<svg width="227" height="219" viewBox="0 0 227 219" fill="none" xmlns="http://www.w3.org/2000/svg">
<g filter="url(#filter0_d_816_5873)">
<path d="M30 0C83.0867 16.712 196.041 77.7391 226.809 188.31C226.879 188.541 226.943 188.771 227 189C226.937 188.77 226.873 188.54 226.809 188.31C221.023 169.256 171.033 144.362 132.5 133C111.48 126.802 58.9699 127 55 127C70.0857 102.81 102.316 37.569 30 0Z" fill="white"/>
<path d="M30 0C83.0867 16.712 196.041 77.7391 226.809 188.31C226.879 188.541 226.943 188.771 227 189C226.937 188.77 226.873 188.54 226.809 188.31C221.023 169.256 171.033 144.362 132.5 133C111.48 126.802 58.9699 127 55 127C70.0857 102.81 102.316 37.569 30 0Z" fill="url(#paint0_linear_816_5873)"/>
<path d="M136.617 59.1526C174.438 89.5956 209.581 131.228 225.497 184.656C223.401 180.888 219.839 176.972 215.213 173.037C209.094 167.831 201.083 162.569 192.056 157.552C174.002 147.517 151.854 138.446 132.571 132.76C122.027 129.651 103.614 128.151 87.3674 127.426C72.0272 126.741 58.5855 126.747 55.45 126.75C63.0077 114.559 74.6287 92.3722 75.5256 68.5266C75.979 56.4725 73.6921 43.9904 66.7518 32.1649C60.134 20.8891 49.2944 10.2256 32.5978 1.10091C59.1746 9.87998 99.1992 29.0338 136.617 59.1526Z" stroke="white" stroke-width="0.5"/>
</g>
<defs>
<filter id="filter0_d_816_5873" x="0" y="-30" width="257" height="249" filterUnits="userSpaceOnUse" color-interpolation-filters="sRGB">
<feFlood flood-opacity="0" result="BackgroundImageFix"/>
<feColorMatrix in="SourceAlpha" type="matrix" values="0 0 0 0 0 0 0 0 0 0 0 0 0 0 0 0 0 0 127 0" result="hardAlpha"/>
<feOffset/>
<feGaussianBlur stdDeviation="15"/>
<feComposite in2="hardAlpha" operator="out"/>
<feColorMatrix type="matrix" values="0 0 0 0 0 0 0 0 0 0 0 0 0 0 0 0 0 0 0.3 0"/>
<feBlend mode="normal" in2="BackgroundImageFix" result="effect1_dropShadow_816_5873"/>
<feBlend mode="normal" in="SourceGraphic" in2="effect1_dropShadow_816_5873" result="shape"/>
</filter>
<linearGradient id="paint0_linear_816_5873" x1="146.704" y1="74.6371" x2="128.166" y2="94.092" gradientUnits="userSpaceOnUse">
<stop stop-opacity="0.22"/>
<stop offset="1" stop-opacity="0"/>
</linearGradient>
</defs>
</svg>
