<svg width="409" height="87" viewBox="0 0 409 87" fill="none" xmlns="http://www.w3.org/2000/svg">
<path d="M273 79.875C250.2 81.875 185.5 79.0417 156 77.375C142.25 76.7917 112.9 75.675 105.5 75.875C96.2498 76.125 78.4998 73.875 62.7498 70.625C46.9998 67.375 42.2497 57.625 39.7497 54.125C37.2497 50.625 37.7497 48.375 42.2497 44.375C46.7497 40.375 59.7497 37.125 70.9997 32.625C82.2497 28.125 101.5 21.875 131 15.375C160.5 8.875 208 15.875 246.5 18.375C285 20.875 324.5 20.375 347.5 28.875C370.5 37.375 370 42.375 367.5 50.875C365 59.375 359.5 60.875 347.5 67.875C335.5 74.875 301.5 77.375 273 79.875Z" fill="#57574B"/>
<path d="M49 38.8341L84.1948 72.6725L89.4366 75.1485L161.074 79H286.628L339.545 71.2969L368 30.5808L362.259 26.7293L332.306 67.7205L327.064 63.869L346.783 20.4017L335.8 18.476L319.826 59.1921L310.84 56.9913L325.067 16H318.078L294.116 75.1485V16L142.5 9.5L99.421 20.4017L115.895 62.2183L107.658 66.345L77.9546 26.7293L69.2183 30.5808L99.421 67.7205L90.9343 71.2969L55.7394 35.8079L49 38.8341Z" fill="black" fill-opacity="0.3"/>
<path fill-rule="evenodd" clip-rule="evenodd" d="M0 47.375C1 52.5417 4.5 63.975 10.5 68.375C18 73.875 73 81.875 98.5 82.875C124 83.875 234 87.375 261.5 86.875C289 86.375 358 81.375 368.5 77.375C379 73.375 402 62.375 406 54.875C410 47.375 413 39.375 394.5 28.375C376 17.375 323 13.875 307.5 13.875C301.111 13.875 282.062 11.751 259.356 9.21908C226.977 5.60872 187.16 1.1689 166 0.875004C130 0.375004 88 7.375 64 17.875C52.4419 22.9317 43.435 25.785 35.9182 28.1663C27.8266 30.7297 21.4617 32.7461 15.5 36.375C6.3 41.975 1.33333 46.0417 0 47.375ZM156 77.375C185.5 79.0417 250.2 81.875 273 79.875C274.972 79.702 276.97 79.529 278.986 79.3545C306.1 77.0075 336.33 74.3906 347.5 67.875C349.65 66.6205 351.592 65.5427 353.345 64.5695C361.375 60.1125 365.448 57.8517 367.5 50.875C370 42.375 370.5 37.375 347.5 28.875C329.97 22.3967 302.856 21.1463 273.905 19.8112C264.871 19.3945 255.657 18.9696 246.5 18.375C237.361 17.7816 227.716 16.9347 217.925 16.0749C186.465 13.3125 153.498 10.4178 131 15.375C101.5 21.875 82.2497 28.125 70.9997 32.625C67.2322 34.132 63.2684 35.4988 59.4933 36.8006C51.9958 39.3859 45.2427 41.7146 42.2497 44.375C37.7497 48.375 37.2497 50.625 39.7497 54.125C40.0206 54.5042 40.3178 54.9567 40.6526 55.4664C43.4081 59.6613 48.7061 67.7271 62.7498 70.625C78.4998 73.875 96.2498 76.125 105.5 75.875C112.9 75.675 142.25 76.7917 156 77.375Z" fill="white"/>
</svg>
