<svg width="14" height="9" viewBox="0 0 14 9" fill="none" xmlns="http://www.w3.org/2000/svg">
<path d="M0.125054 1.50434C0.125163 1.3808 0.161873 1.26007 0.230556 1.15739C0.299239 1.05471 0.396812 0.974688 0.510949 0.927428C0.625085 0.880169 0.750666 0.867792 0.871831 0.891862C0.992997 0.915933 1.10431 0.975375 1.19172 1.06267L7.00005 6.87101L12.8073 1.06267C12.9248 0.946966 13.0832 0.882364 13.2481 0.882937C13.413 0.883509 13.571 0.949204 13.6876 1.06572C13.8043 1.18224 13.8702 1.34015 13.8709 1.50502C13.8717 1.6699 13.8073 1.8284 13.6917 1.946L7.44172 8.196C7.38367 8.25411 7.31474 8.30021 7.23887 8.33167C7.16299 8.36312 7.08167 8.37931 6.99953 8.37931C6.9174 8.37931 6.83606 8.36312 6.76018 8.33167C6.68431 8.30021 6.61539 8.25411 6.55735 8.196L0.307345 1.946C0.190484 1.82873 0.124924 1.66989 0.125054 1.50434Z" fill="#C9C9CA"/>
</svg>
