<svg width="27" height="26" viewBox="0 0 27 26" fill="none" xmlns="http://www.w3.org/2000/svg">
<mask id="mask0_713_40184" style="mask-type:alpha" maskUnits="userSpaceOnUse" x="0" y="0" width="27" height="26">
<rect x="0.742188" width="26" height="26" fill="#D9D9D9"/>
</mask>
<g mask="url(#mask0_713_40184)">
<path d="M1.77135 14.4083C1.44635 13.7583 1.19358 13.0993 1.01302 12.4313C0.832465 11.7632 0.742188 11.0861 0.742188 10.4C0.742188 8.37778 1.4283 6.68056 2.80052 5.30833C4.17274 3.93611 5.86997 3.25 7.89219 3.25C9.02969 3.25 10.113 3.48924 11.1422 3.96771C12.1714 4.44618 13.038 5.10972 13.7422 5.95833C14.4464 5.10972 15.313 4.44618 16.3422 3.96771C17.3714 3.48924 18.4547 3.25 19.5922 3.25C21.6144 3.25 23.3116 3.93611 24.6839 5.30833C26.0561 6.68056 26.7422 8.37778 26.7422 10.4C26.7422 11.0861 26.6519 11.7632 26.4714 12.4313C26.2908 13.0993 26.038 13.7583 25.713 14.4083C25.5144 14.0653 25.2797 13.7583 25.0089 13.4875C24.738 13.2167 24.422 13 24.0609 12.8375C24.2234 12.4222 24.3498 12.016 24.4401 11.6188C24.5304 11.2215 24.5755 10.8153 24.5755 10.4C24.5755 8.99167 24.0971 7.80903 23.1401 6.85208C22.1832 5.89514 21.0005 5.41667 19.5922 5.41667C18.1297 5.41667 17.0057 5.8184 16.2203 6.62188C15.4349 7.42535 14.6089 8.32361 13.7422 9.31667C12.8755 8.30556 12.0495 7.40278 11.2641 6.60833C10.4786 5.81389 9.35469 5.41667 7.89219 5.41667C6.48385 5.41667 5.30122 5.89514 4.34427 6.85208C3.38733 7.80903 2.90885 8.99167 2.90885 10.4C2.90885 10.8153 2.95399 11.2215 3.04427 11.6188C3.13455 12.016 3.26094 12.4222 3.42344 12.8375C3.06233 13 2.74635 13.2167 2.47552 13.4875C2.20469 13.7583 1.96997 14.0653 1.77135 14.4083ZM0.742188 23.8333V22.1271C0.742188 21.3326 1.14392 20.6962 1.9474 20.2177C2.75087 19.7392 3.79358 19.5 5.07552 19.5C5.31024 19.5 5.53594 19.5045 5.7526 19.5135C5.96927 19.5226 6.17691 19.5451 6.37552 19.5813C6.12274 19.9424 5.93316 20.3306 5.80677 20.7458C5.68038 21.1611 5.61719 21.6035 5.61719 22.0729V23.8333H0.742188ZM7.24219 23.8333V22.0729C7.24219 20.8993 7.84254 19.9514 9.04323 19.2292C10.2439 18.5069 11.8102 18.1458 13.7422 18.1458C15.6922 18.1458 17.263 18.5069 18.4547 19.2292C19.6464 19.9514 20.2422 20.8993 20.2422 22.0729V23.8333H7.24219ZM21.8672 23.8333V22.0729C21.8672 21.6035 21.8085 21.1611 21.6911 20.7458C21.5738 20.3306 21.3977 19.9424 21.163 19.5813C21.3616 19.5451 21.5648 19.5226 21.7724 19.5135C21.98 19.5045 22.1922 19.5 22.4089 19.5C23.7089 19.5 24.7561 19.7392 25.5505 20.2177C26.345 20.6962 26.7422 21.3326 26.7422 22.1271V23.8333H21.8672ZM13.7422 20.3125C12.713 20.3125 11.7922 20.4479 10.9797 20.7188C10.1672 20.9896 9.68872 21.3056 9.54427 21.6667H17.9672C17.8047 21.3056 17.3217 20.9896 16.5182 20.7188C15.7148 20.4479 14.7894 20.3125 13.7422 20.3125ZM5.07552 18.4167C4.47969 18.4167 3.96962 18.2045 3.54531 17.7802C3.12101 17.3559 2.90885 16.8458 2.90885 16.25C2.90885 15.6361 3.12101 15.1215 3.54531 14.7063C3.96962 14.291 4.47969 14.0833 5.07552 14.0833C5.68941 14.0833 6.20399 14.291 6.61927 14.7063C7.03455 15.1215 7.24219 15.6361 7.24219 16.25C7.24219 16.8458 7.03455 17.3559 6.61927 17.7802C6.20399 18.2045 5.68941 18.4167 5.07552 18.4167ZM22.4089 18.4167C21.813 18.4167 21.303 18.2045 20.8786 17.7802C20.4543 17.3559 20.2422 16.8458 20.2422 16.25C20.2422 15.6361 20.4543 15.1215 20.8786 14.7063C21.303 14.291 21.813 14.0833 22.4089 14.0833C23.0227 14.0833 23.5373 14.291 23.9526 14.7063C24.3679 15.1215 24.5755 15.6361 24.5755 16.25C24.5755 16.8458 24.3679 17.3559 23.9526 17.7802C23.5373 18.2045 23.0227 18.4167 22.4089 18.4167ZM13.7422 17.3333C12.8394 17.3333 12.072 17.0174 11.4401 16.3854C10.8082 15.7535 10.4922 14.9861 10.4922 14.0833C10.4922 13.1625 10.8082 12.3906 11.4401 11.7677C12.072 11.1448 12.8394 10.8333 13.7422 10.8333C14.663 10.8333 15.4349 11.1448 16.0578 11.7677C16.6807 12.3906 16.9922 13.1625 16.9922 14.0833C16.9922 14.9861 16.6807 15.7535 16.0578 16.3854C15.4349 17.0174 14.663 17.3333 13.7422 17.3333ZM13.7422 13C13.4352 13 13.178 13.1038 12.9703 13.3115C12.7627 13.5191 12.6589 13.7764 12.6589 14.0833C12.6589 14.3903 12.7627 14.6476 12.9703 14.8552C13.178 15.0628 13.4352 15.1667 13.7422 15.1667C14.0491 15.1667 14.3064 15.0628 14.5141 14.8552C14.7217 14.6476 14.8255 14.3903 14.8255 14.0833C14.8255 13.7764 14.7217 13.5191 14.5141 13.3115C14.3064 13.1038 14.0491 13 13.7422 13Z" fill="#1C1B1F"/>
</g>
</svg>
