<svg width="36" height="36" viewBox="0 0 36 36" fill="none" xmlns="http://www.w3.org/2000/svg">
<rect width="36" height="36" rx="10" fill="#FF0000"/>
<path d="M26.8404 13.5329C26.6264 12.7304 25.9978 12.1018 25.2087 11.8878C23.7643 11.4999 17.9999 11.4999 17.9999 11.4999C17.9999 11.4999 12.2221 11.4999 10.791 11.8878C10.0019 12.1018 9.37334 12.7304 9.15934 13.5329C8.77148 14.9773 8.77148 17.9999 8.77148 17.9999C8.77148 17.9999 8.77148 21.0226 9.15934 22.467C9.37334 23.2695 10.0019 23.8981 10.791 24.1121C12.2355 24.4999 17.9999 24.4999 17.9999 24.4999C17.9999 24.4999 23.7776 24.4999 25.2087 24.1121C25.9978 23.8981 26.6264 23.2695 26.8404 22.467C27.2283 21.0226 27.2283 17.9999 27.2283 17.9999C27.2283 17.9999 27.2283 14.9773 26.8404 13.5329ZM16.1141 20.7417V15.2582L20.9423 17.9999L16.1141 20.7417Z" fill="white"/>
</svg>
