<svg width="111" height="56" viewBox="0 0 111 56" fill="none" xmlns="http://www.w3.org/2000/svg">
<path d="M6.01866 31.7911C9.45114 30.0796 10.4131 29.7451 13.224 29.0011C14.1797 28.7495 14.9476 28.037 15.2613 27.0998C17.3258 20.9742 19.5485 8.06572 23.4385 7.76422C29.047 7.32952 83.1744 2.3228 87.4298 2.48746C91.018 2.62142 99.4485 3.62896 102.005 6.14413C106.941 10.9981 107.206 27.7331 109.483 35.7093C110.039 37.6505 108.573 39.5772 106.561 39.505C106.281 39.495 105.983 39.4864 105.64 39.4812C104.665 39.4807 103.772 38.9857 103.204 38.1929C102.049 36.6025 100.426 35.4413 98.4539 35.4864C96.488 35.531 93.7352 37.8428 93.1744 39.9212C92.874 41.0286 91.8969 41.8207 90.7562 41.9725C78.9809 43.5635 36.8247 45.9941 25.8254 46.4028C24.7141 46.4446 23.7046 45.8382 23.1364 44.8806C21.9415 42.8621 19.535 41.5524 17.1877 41.8231C14.9159 42.088 12.9409 43.8133 12.1884 45.951C11.8196 46.9939 10.8797 47.6944 9.78886 47.836C8.69171 47.9781 8.19467 48.3463 6.09879 48.103C5.49831 48.0354 -0.681734 35.1315 6.02445 31.7843L6.01866 31.7911Z" fill="#FED05E"/>
<path d="M14.5348 45.0971C12.6756 46.9276 12.3198 50.6702 14.3234 52.664C16.327 54.6578 20.0268 54.5169 21.8616 52.3713C23.6963 50.2258 22.7143 46.5426 20.9525 44.8914C19.1908 43.2401 16.394 43.2667 14.5353 45.1035L14.5348 45.0971Z" fill="#3C7980"/>
<path d="M95.5843 38.4158C93.2921 40.0516 93.4597 43.7663 95.3809 45.6777C97.3021 47.5892 100.857 47.4531 102.622 45.3954C104.381 43.3319 103.96 39.7826 101.749 38.2106C99.5436 36.6382 97.1026 37.3345 95.5838 38.4095L95.5843 38.4158Z" fill="#3C7980"/>
<path d="M4.4449 44.1675C5.70621 45.4898 7.69148 43.9793 7.70474 40.6373C7.71801 37.2953 4.7739 39.4253 3.53473 37.8985C1.49453 38.3736 2.85273 41.1908 4.4449 44.1675Z" fill="#FFEDB8"/>
<path d="M108.184 30.0537C106.569 29.6526 105.264 31.0344 105.573 32.4876C105.843 33.7599 108.299 34.8945 109.03 34.1088L108.19 30.0532L108.184 30.0537Z" fill="#E08E65"/>
<path d="M15.2449 27.2976C17.2322 29.4892 22.4525 29.4396 24.5969 29.0832C26.2338 12.0486 20.7508 11.8143 19.3202 14.3533C17.6341 19.3147 17.1881 20.8327 15.2449 27.2976Z" fill="#79ADAF"/>
<path d="M45.9877 26.6328C45.9877 26.6328 60.7702 25.3603 60.9129 25.159C61.1533 24.8298 60.8788 12.6283 59.6687 11.1499C58.4587 9.67147 52.4703 10.4336 51.3759 10.3662C49.1174 10.2307 45.6539 10.3977 44.7802 13.0963C43.9065 15.795 45.9877 26.6328 45.9877 26.6328Z" fill="#79ADAF"/>
<path d="M30.9147 13.537C32.0248 13.806 39.0476 11.8479 40.4232 15.4626C41.7989 19.0774 43.7401 43.6323 43.8815 44.3947" fill="#FED05E"/>
<path d="M30.7333 14.464C31.8074 14.6787 33.0662 14.3339 34.1363 14.2509C35.5463 14.1417 37.2221 14.0308 38.5222 14.7098C39.4062 15.1675 39.6333 15.974 39.8363 16.8775C39.883 17.0704 39.8665 17.021 39.9296 17.3457C39.9826 17.6206 40.0356 17.8954 40.0822 18.1707C40.1863 18.7776 40.2835 19.3787 40.3687 19.987C41.2939 26.2866 41.8433 32.6406 42.4233 38.9797C42.5891 40.7926 42.6209 42.673 42.9373 44.4679C43.1497 45.656 45.0391 45.5222 44.8257 44.3216C44.5535 42.7704 44.5219 41.1373 44.3814 39.5696C44.0848 36.315 43.782 33.061 43.4476 29.8093C43.1133 26.5577 42.7581 23.2823 42.2915 20.0409C42.1159 18.8373 41.9277 17.6347 41.6708 16.4437C41.4454 15.4151 41.1479 14.4365 40.349 13.687C38.9705 12.4055 36.8819 12.2567 35.0995 12.2998C34.2527 12.321 33.4169 12.4048 32.5754 12.4954C32.2365 12.5343 31.8976 12.5733 31.5509 12.5938C31.4376 12.6026 31.3243 12.6114 31.2037 12.6081C30.9132 12.6179 31.3073 12.6381 31.0952 12.5974C29.8985 12.3542 29.5366 14.2207 30.7328 14.4577L30.7333 14.464Z" fill="#FFEDB8"/>
<path d="M29.6942 28.181C29.6942 28.181 39.7443 26.7174 39.8526 26.5632C40.0229 26.3091 39.4798 19.3015 38.5919 18.1405C37.704 16.9794 34.6564 17.1205 33.8608 17.0681C32.2245 16.954 30.3396 16.4915 29.7232 18.587C29.1009 20.6892 29.6942 28.181 29.6942 28.181Z" fill="#79ADAF"/>
<path d="M65.0167 24.9995C65.0167 24.9995 80.2956 24.0054 80.4384 23.8042C80.6788 23.4749 80.0774 11.1403 78.8673 9.66189C77.6572 8.18346 73.0052 9.52033 71.9113 9.45931C69.6528 9.32372 65.1731 9.0433 64.3057 11.7415C63.432 14.4401 65.0167 24.9995 65.0167 24.9995Z" fill="#79ADAF"/>
<path d="M83.8881 23.3783C83.8881 23.3783 98.0289 21.997 98.1716 21.7958C98.412 21.4665 97.8594 9.76208 96.6493 8.28365C95.4393 6.80522 90.4073 7.65169 89.3129 7.58436C87.0544 7.44877 84.0507 7.42166 83.1839 10.1261C82.3102 12.8248 83.8881 23.3783 83.8881 23.3783Z" fill="#79ADAF"/>
<path d="M102.824 7.22187C100.087 6.6415 102.212 24.4939 106.944 22.2253C107.484 21.0233 104.644 7.50553 102.824 7.22187Z" fill="#79ADAF"/>
</svg>
