<svg width="40" height="80" viewBox="0 0 40 80" fill="none" xmlns="http://www.w3.org/2000/svg">
<g clip-path="url(#clip0_1550_9362)">
<path d="M18.6558 37.3909C18.3101 38.2082 14.7423 64.0471 0.392578 79.0883" stroke="#9A96BD" stroke-width="0.5" stroke-linecap="round" stroke-linejoin="round"/>
<path d="M39.7017 21.3753C36.8098 36.9981 23.2459 41.7761 17.7292 40.7544C12.2125 39.7328 1.46205 29.3438 4.14967 14.7898C5.97285 4.96663 15.4031 -1.50881 25.2106 0.298652C35.0338 2.12183 41.5092 11.5521 39.686 21.3596L39.7017 21.3753Z" fill="#FF9A00"/>
<path d="M17.4935 40.2358L15.2773 43.7565L19.1123 44.6995L18.7194 40.4873L17.4935 40.2358Z" fill="#FF9A00"/>
<path d="M33.0373 13.0767C33.0373 13.0767 35.0019 15.7643 34.5461 20.8095L30.7426 21.2653C30.7426 21.2653 30.6168 17.6032 28.5107 14.3183L33.0373 13.0767Z" fill="white"/>
</g>
<defs>
<clipPath id="clip0_1550_9362">
<rect width="40" height="79.4813" fill="white"/>
</clipPath>
</defs>
</svg>
