<svg width="48" height="54" viewBox="0 0 48 54" fill="none" xmlns="http://www.w3.org/2000/svg">
<path d="M35.3213 49.3185C40.9213 46.2066 45.3213 39.131 46.8213 35.9821C48.8213 25.9798 47.3213 18.2003 42.3213 10.4207C37.3213 2.64119 22.8213 -3.47131 12.3213 4.86392C1.82132 13.1991 0.321323 23.7571 0.321323 30.4253C0.321323 37.0935 4.82132 47.0957 12.8213 51.5412C20.8213 55.9866 28.3213 53.2082 35.3213 49.3185Z" fill="#281B52"/>
<path d="M33.9801 46.0011C38.8284 43.3232 42.6377 37.2342 43.9364 34.5244C45.6679 25.9167 44.3693 19.222 40.0405 12.5272C35.7116 5.83238 23.1581 0.572185 14.0676 7.74518C4.97711 14.9182 3.67847 24.004 3.67847 29.7424C3.67847 35.4808 7.57439 44.0883 14.5005 47.9139C21.4266 51.7395 27.9198 49.3485 33.9801 46.0011Z" fill="#281B52" stroke="white" stroke-width="0.5"/>
<path d="M15.6785 28.2026L28.6785 36.5378L28.6785 19.8674L15.6785 28.2026Z" fill="white"/>
</svg>
