<svg width="59" height="48" viewBox="0 0 59 48" fill="none" xmlns="http://www.w3.org/2000/svg">
<path d="M46.4138 39.1551C45.7775 38.2127 44.9911 37.3938 44.2324 36.559C43.5706 35.8281 43.0267 35.0353 42.3247 34.3092C40.734 32.6511 39.1648 30.9129 37.6532 29.2214C37.551 29.1083 37.4376 29.0077 37.3203 28.9217C37.5568 29.0865 39.2643 25.2167 39.3763 24.8569C39.8223 23.4249 40.0376 21.9232 40.019 20.4212C39.9937 18.8863 39.7108 17.3525 39.1944 15.9043C38.9362 15.1801 38.5707 14.5364 38.2295 13.8603C37.8563 13.1287 37.6409 12.3615 37.024 11.783C34.9074 9.78901 32.7788 8.07253 29.9355 7.2483C27.2014 6.45331 24.2358 6.49294 21.535 7.40658C19.0822 8.23854 17.317 9.67579 15.549 11.5021C15.3872 11.6693 15.2236 11.8437 15.0545 12.0089C13.134 13.9971 12.1821 17.2584 12.0523 19.9837C11.9106 22.8695 12.6765 25.7724 14.2395 28.2028C15.0797 29.5194 15.9913 31.0346 17.4293 31.7786C18.8004 32.4812 19.9709 33.3796 21.462 33.8961C24.3318 34.8834 27.4972 34.9129 30.3848 33.9713C31.2976 33.6779 32.1757 33.2817 33.0058 32.8024C33.0804 32.9315 33.1642 33.0553 33.2664 33.1685C33.6621 33.3213 34.2911 34.2617 34.5832 34.5973C35.0779 35.1664 35.5094 35.7966 35.9855 36.3764C37.1743 37.8177 38.5491 39.0593 39.7792 40.4337C40.3421 41.0679 40.907 41.6949 41.4773 42.3311C41.6405 42.5074 41.8111 42.6856 41.9579 42.8653C42.5251 43.5709 43.279 43.9288 44.1247 44.2646C44.3986 44.377 44.693 44.4714 44.9875 44.449C45.2582 44.428 45.5106 44.3007 45.7538 44.1787C46.3232 43.8869 46.9063 43.5441 47.2334 42.9924C47.5888 42.3937 47.5741 41.6335 47.3532 40.974C47.1376 40.3236 46.8153 39.7227 46.4376 39.1537L46.4138 39.1551ZM33.5062 29.0147C28.7765 33.2519 21.5089 32.8483 17.2717 28.1186C13.0344 23.3889 13.438 16.1213 18.1677 11.8841C22.8974 7.6469 30.165 8.05048 34.4022 12.7802C38.6394 17.5098 38.2358 24.7774 33.5062 29.0147Z" fill="#456184"/>
<path d="M34.2392 28.2845C38.5684 23.6372 38.3104 16.3603 33.6631 12.0312C29.0158 7.70207 21.739 7.95999 17.4099 12.6073C13.0807 17.2546 13.3387 24.5314 17.986 28.8606C22.6333 33.1897 29.9101 32.9318 34.2392 28.2845Z" fill="white"/>
<path d="M27.6419 28.5818C27.522 28.651 27.3949 28.7183 27.2623 28.7764C27.1997 28.8064 27.1391 28.8291 27.0711 28.8499C27.0289 28.862 26.9867 28.874 26.9517 28.8881C26.8159 28.9296 26.6766 28.9547 26.5373 28.9797C26.4641 28.9913 26.3981 29.0048 26.3268 29.0091C26.2938 29.0158 26.2554 29.0134 26.2224 29.0201C26.2224 29.0201 26.2079 29.0162 26.1987 29.0215C26.1841 29.0176 26.1729 29.0302 26.1584 29.0263C26.0356 29.048 25.8862 29.0236 25.7693 29.0234C25.6068 29.0189 25.4463 29.007 25.2857 28.9952C25.2183 28.9849 25.1416 28.98 25.0669 28.9678C25.0306 28.958 24.8924 28.921 24.8574 28.935C24.8283 28.9272 24.8065 28.9214 24.7774 28.9136C24.6974 28.8922 24.6173 28.8707 24.5426 28.8585C24.2589 28.7825 23.9752 28.7065 23.6993 28.6013C23.5723 28.5517 23.4525 28.504 23.3255 28.4544C23.262 28.4296 23.2077 28.3994 23.1441 28.3746C23.1296 28.3707 23.1005 28.3629 23.0859 28.359C23.0932 28.361 23.1005 28.3629 23.115 28.3668C23.2314 28.398 23.0733 28.3478 23.0462 28.3328C22.5497 28.0906 22.0761 27.7922 21.6268 27.4612C21.524 27.3791 21.414 27.2951 21.3113 27.213C21.2914 27.1999 21.2735 27.1795 21.2609 27.1683C21.2052 27.1144 21.1475 27.0677 21.0898 27.0211C20.8829 26.8331 20.6799 26.6306 20.4861 26.4227C20.2995 26.2168 20.1203 26.0128 19.9522 25.7962C19.8645 25.687 19.7788 25.5705 19.7004 25.4559C19.6878 25.4447 19.6771 25.4263 19.6737 25.4098L19.6452 25.3709C19.6452 25.3709 19.6239 25.334 19.6258 25.3267C19.5972 25.2879 19.5667 25.2563 19.5507 25.2287C19.2481 24.7577 18.9824 24.2655 18.77 23.7486C18.7173 23.6253 18.6718 23.504 18.6191 23.3807C18.5964 23.32 18.5736 23.2593 18.5562 23.2079C18.5422 23.173 18.5282 23.138 18.5234 23.0977C18.4402 22.826 18.3644 22.5562 18.3051 22.283C18.239 21.9768 18.1821 21.6653 18.149 21.3523C18.1374 21.279 18.1351 21.2005 18.1308 21.1291C18.1314 21.0981 18.1295 20.9884 18.1294 21.1054C18.1293 21.2223 18.128 21.0816 18.1285 21.0505C18.1185 20.8841 18.1158 20.7197 18.115 20.5479C18.1169 20.221 18.1372 19.8833 18.1846 19.5608C18.1846 19.5608 18.1885 19.5462 18.1905 19.539C18.1963 19.5172 18.2138 19.4517 18.2105 19.4352C18.2358 19.3406 18.2592 19.2533 18.2845 19.1587C18.2904 19.1369 18.3157 19.0424 18.3425 18.9716C18.3425 18.9716 18.3483 18.9497 18.3726 18.9173C18.4008 18.8702 18.431 18.8159 18.4592 18.7689C18.6658 18.4344 18.5902 17.9308 18.2319 17.7256C17.8882 17.5244 17.4103 17.5912 17.1886 17.9529C16.7828 18.6238 16.6528 19.3998 16.6179 20.1702C16.589 20.8018 16.6329 21.4529 16.7301 22.0793C16.9271 23.2938 17.3618 24.494 17.9815 25.5567C19.2547 27.7301 21.2858 29.4906 23.7158 30.2275C25.2027 30.6727 26.9257 30.7601 28.3112 29.954C28.6525 29.757 28.8573 29.3129 28.6535 28.9386C28.4637 28.5993 28.007 28.3833 27.638 28.5963L27.6419 28.5818ZM18.3804 18.8882C18.3804 18.8882 18.3483 18.9497 18.3372 18.9623C18.3489 18.9187 18.3659 18.8843 18.3804 18.8882Z" fill="#456184"/>
<path d="M19.6808 25.4116C19.66 25.3437 19.6348 25.3214 19.6328 25.3286C19.6488 25.3563 19.6721 25.3859 19.6808 25.4116Z" fill="#456184"/>
<path d="M30.4393 28.1228C30.152 27.8275 29.6888 27.7813 29.3716 28.0628C29.0749 28.3263 29.0243 28.8352 29.3117 29.1305C29.599 29.4258 30.0622 29.4719 30.3793 29.1904C30.6761 28.9269 30.7266 28.418 30.4393 28.1228Z" fill="#456184"/>
<path d="M40.8046 14.3164C40.3491 13.9214 39.7379 14.6309 40.1935 15.0259C42.3001 16.8534 43.0619 20.0047 41.9881 22.5862C41.7541 23.1395 42.5948 23.5519 42.8308 22.9913C44.0646 20.0161 43.2408 16.4272 40.8065 14.3091L40.8046 14.3164Z" fill="#456184"/>
<path d="M43.1762 12.7688C42.7634 12.3307 42.1596 13.0421 42.5651 13.4783C45.0254 16.1101 45.7885 20.1584 44.4844 23.5124C44.2649 24.0695 45.1056 24.4819 45.327 23.9175C46.799 20.1407 45.9379 15.7309 43.1762 12.7688Z" fill="#456184"/>
<path d="M8.71653 14.8563C7.59517 16.6844 7.65538 19.0785 8.81995 20.872C9.14389 21.3798 9.92361 20.8558 9.59773 20.3553C8.59876 18.8167 8.60309 16.8219 9.55724 15.2687C9.87464 14.7534 9.03198 14.3483 8.71458 14.8636L8.71653 14.8563Z" fill="#456184"/>
<path d="M5.91853 15.3773C5.2399 16.9497 5.31834 18.6938 6.10582 20.2069C6.38364 20.7414 7.15611 20.2154 6.88361 19.6902C6.25537 18.4849 6.21587 17.0319 6.75924 15.7897C7.00052 15.2384 6.15981 14.826 5.91658 15.3846L5.91853 15.3773Z" fill="#456184"/>
<path d="M40.788 32.5952C40.788 32.5952 40.7297 32.5796 40.7007 32.5718C39.9881 32.4667 39.2049 33.8474 38.7523 34.2563C37.951 34.9772 37.1391 35.6796 36.3271 36.3821C35.9323 36.7207 36.1587 36.8359 36.4315 37.1273C36.6379 37.3464 36.8496 37.5746 37.056 37.7937C37.6626 38.4396 38.2672 39.0928 38.8666 39.7368C40.2484 41.2142 41.6282 42.6989 43.01 44.1763C43.7062 44.9242 44.3741 45.8361 45.167 46.4851C45.7544 46.97 46.6775 47.0458 47.4345 46.8978C48.8916 46.6099 50.2536 44.8151 49.7911 43.3112C49.6282 42.7841 49.2868 42.3418 48.9506 41.9087C47.1836 39.6575 45.3224 37.4669 43.3849 35.3572C42.9149 34.8415 42.4358 34.331 41.9546 33.8279C41.7051 33.5661 41.1817 32.7553 40.788 32.5952Z" fill="#2F4156"/>
</svg>
