<svg width="12" height="10" viewBox="0 0 12 10" fill="none" xmlns="http://www.w3.org/2000/svg">
<path fill-rule="evenodd" clip-rule="evenodd" d="M0.814342 2.85645C0.814491 2.68703 0.865265 2.52144 0.960275 2.38061C1.05528 2.23978 1.19024 2.13002 1.34811 2.06521C1.50599 2.00039 1.67969 1.98342 1.84729 2.01643C2.0149 2.04944 2.16887 2.13097 2.28976 2.25069L4.14555 4.0908L6.00134 5.93091L9.71436 2.2486C9.87684 2.08991 10.096 2.00131 10.324 2.0021C10.5521 2.00288 10.7706 2.09298 10.932 2.2528C11.0933 2.41261 11.1845 2.62918 11.1855 2.8553C11.1866 3.08143 11.0975 3.29882 10.9376 3.46011L10.935 3.46278L6.61264 7.74859C6.53239 7.82821 6.43693 7.89155 6.33206 7.93466C6.22712 7.97779 6.11463 8 6.00101 8C5.88739 8 5.77489 7.97779 5.66995 7.93466C5.56505 7.89154 5.46978 7.82837 5.38954 7.74876L1.06702 3.46277C0.905375 3.30193 0.814161 3.08351 0.814342 2.85645Z" fill="#F4F4F4"/>
</svg>
