<svg width="60" height="60" viewBox="0 0 60 60" fill="none" xmlns="http://www.w3.org/2000/svg">
<rect width="60" height="60" rx="30" fill="black" fill-opacity="0.5"/>
<mask id="mask0_151_69673" style="mask-type:alpha" maskUnits="userSpaceOnUse" x="6" y="6" width="48" height="48">
<rect x="6" y="6" width="48" height="48" fill="#D9D9D9"/>
</mask>
<g mask="url(#mask0_151_69673)">
<path d="M23.5383 26.5H21.1538C20.7288 26.5 20.3725 26.3562 20.0848 26.0685C19.7975 25.7809 19.6538 25.4245 19.6538 24.9995C19.6538 24.5742 19.7975 24.218 20.0848 23.931C20.3725 23.6437 20.7288 23.5 21.1538 23.5H23.5383V21.1155C23.5383 20.6905 23.6821 20.3342 23.9698 20.0465C24.2575 19.7592 24.6138 19.6155 25.0388 19.6155C25.4641 19.6155 25.8203 19.7592 26.1073 20.0465C26.3946 20.3342 26.5383 20.6905 26.5383 21.1155V23.5H28.9228C29.3478 23.5 29.7041 23.6439 29.9918 23.9315C30.2791 24.2192 30.4228 24.5755 30.4228 25.0005C30.4228 25.4259 30.2791 25.782 29.9918 26.069C29.7041 26.3564 29.3478 26.5 28.9228 26.5H26.5383V28.8845C26.5383 29.3095 26.3945 29.6659 26.1068 29.9535C25.8191 30.2409 25.4628 30.3845 25.0378 30.3845C24.6125 30.3845 24.2563 30.2409 23.9693 29.9535C23.682 29.6659 23.5383 29.3095 23.5383 28.8845V26.5ZM25.0383 37.2305C21.62 37.2305 18.727 36.047 16.3593 33.68C13.9916 31.313 12.8078 28.4207 12.8078 25.003C12.8078 21.5857 13.9913 18.6924 16.3583 16.323C18.7253 13.954 21.6176 12.7695 25.0353 12.7695C28.4526 12.7695 31.346 13.9534 33.7153 16.321C36.0843 18.6887 37.2688 21.5817 37.2688 25C37.2688 26.4284 37.0291 27.7925 36.5498 29.0925C36.0701 30.3925 35.4303 31.5232 34.6303 32.4845L46.1383 43.9925C46.4153 44.2692 46.557 44.6172 46.5633 45.0365C46.5696 45.4559 46.428 45.8104 46.1383 46.1C45.8486 46.3897 45.4973 46.5345 45.0843 46.5345C44.6716 46.5345 44.3205 46.3897 44.0308 46.1L32.5228 34.592C31.5228 35.4177 30.3728 36.0639 29.0728 36.5305C27.7728 36.9972 26.428 37.2305 25.0383 37.2305ZM25.0383 34.231C27.6153 34.231 29.798 33.3367 31.5863 31.548C33.375 29.7597 34.2693 27.577 34.2693 25C34.2693 22.423 33.375 20.2404 31.5863 18.452C29.798 16.6634 27.6153 15.769 25.0383 15.769C22.4613 15.769 20.2786 16.6634 18.4903 18.452C16.7016 20.2404 15.8073 22.423 15.8073 25C15.8073 27.577 16.7016 29.7597 18.4903 31.548C20.2786 33.3367 22.4613 34.231 25.0383 34.231Z" fill="white"/>
</g>
</svg>
