<svg width="41" height="70" viewBox="0 0 41 70" fill="none" xmlns="http://www.w3.org/2000/svg">
<path fill-rule="evenodd" clip-rule="evenodd" d="M35.241 69.5706C36.3705 69.5696 37.4744 69.2311 38.4133 68.5977C39.3522 67.9643 40.0839 67.0645 40.516 66.0121C40.9481 64.9596 41.0612 63.8016 40.8412 62.6842C40.6211 61.5669 40.0775 60.5404 39.2794 59.7344L27.012 47.3625L14.7446 34.9906L39.2934 10.2371C40.3513 9.15393 40.9419 7.69299 40.9367 6.17256C40.9315 4.65225 40.3308 3.19545 39.2654 2.11964C38.1999 1.04385 36.7562 0.436332 35.2487 0.429262C33.7411 0.422191 32.2919 1.01616 31.2166 2.08188L31.1988 2.09948L2.62674 30.9152C2.09592 31.4503 1.67369 32.0866 1.38631 32.7858C1.09876 33.4854 0.950684 34.2353 0.950684 34.9928C0.950684 35.7502 1.09874 36.5002 1.38631 37.1999C1.67375 37.8992 2.09492 38.5343 2.62561 39.0692L31.1989 67.886C32.2711 68.9637 33.7273 69.5718 35.241 69.5706Z" fill="white"/>
</svg>
