<svg width="28" height="29" viewBox="0 0 28 29" fill="none" xmlns="http://www.w3.org/2000/svg">
<path d="M2.01647 8.77885C7.27642 13.3452 12.2749 10.0473 14.0006 8.61256C13.8229 8.48927 13.5721 8.27442 13.4442 8.13392C12.064 6.61793 8.11232 1.82166 8.11232 1.82166C8.10999 1.8188 8.10377 1.81287 8.09561 1.80542C7.25757 0.785837 5.98875 0.135742 4.56869 0.135742C2.04543 0.135742 0 2.18733 0 4.71812C0 5.84761 0.409203 6.8798 1.08453 7.67861C1.27193 7.90187 2.08334 8.86105 2.01647 8.77885Z" fill="#0054A7"/>
<path d="M26.6633 2.39642C24.8808 0.617859 21.9935 0.617859 20.211 2.39642L14.7429 8.87059C14.7429 8.87059 8.67433 15.191 2.20898 9.60534C3.48962 11.1691 6.49939 14.782 8.88439 17.1218C9.27362 17.504 9.49333 18.0283 9.49333 18.5718V23.5608L9.51476 23.5822L9.52654 23.5967C9.53484 26.1057 11.5742 28.1359 14.0886 28.1359C16.6084 28.1359 18.6505 26.0974 18.6505 23.5822V23.5801L18.6333 18.7064C18.6277 17.0935 19.5311 17.6903 26.6619 8.83678L26.6633 8.83602C28.4449 7.0584 28.4449 4.17499 26.6633 2.39642Z" fill="#1FB9DF"/>
</svg>
