<svg width="64" height="53" viewBox="0 0 64 53" fill="none" xmlns="http://www.w3.org/2000/svg">
<g clip-path="url(#clip0_755_9972)" filter="url(#filter0_d_755_9972)">
<path d="M52 21.685C52 16.7961 48 12.9072 43.2222 12.9072H20.7778C15.8889 12.9072 12 16.7961 12 21.685V32.1294C12 37.0183 15.8889 40.9072 20.7778 40.9072H43.2222C48.1111 40.9072 52 37.0183 52 32.1294V21.685ZM38.7778 27.685L28.7778 32.685C28.3333 32.9072 27 32.5739 27 32.1294V21.9072C27 21.4628 28.3333 21.1294 28.7778 21.3517L38.4444 26.5739C38.7778 26.9072 39.2222 27.4628 38.7778 27.685Z" fill="white"/>
</g>
<defs>
<filter id="filter0_d_755_9972" x="0" y="0.907227" width="64" height="52" filterUnits="userSpaceOnUse" color-interpolation-filters="sRGB">
<feFlood flood-opacity="0" result="BackgroundImageFix"/>
<feColorMatrix in="SourceAlpha" type="matrix" values="0 0 0 0 0 0 0 0 0 0 0 0 0 0 0 0 0 0 127 0" result="hardAlpha"/>
<feOffset/>
<feGaussianBlur stdDeviation="6"/>
<feComposite in2="hardAlpha" operator="out"/>
<feColorMatrix type="matrix" values="0 0 0 0 0 0 0 0 0 0 0 0 0 0 0 0 0 0 0.12 0"/>
<feBlend mode="normal" in2="BackgroundImageFix" result="effect1_dropShadow_755_9972"/>
<feBlend mode="normal" in="SourceGraphic" in2="effect1_dropShadow_755_9972" result="shape"/>
</filter>
<clipPath id="clip0_755_9972">
<rect width="40" height="28" fill="white" transform="translate(12 12.9072)"/>
</clipPath>
</defs>
</svg>
