<svg width="46" height="64" viewBox="0 0 46 64" fill="none" xmlns="http://www.w3.org/2000/svg">
<g clip-path="url(#clip0_673_69646)">
<path d="M5.10404 40.8344C4.11427 44.9057 3.14158 48.9846 2.18746 53.0656C5.69208 51.5985 9.08536 50.1378 11.8412 47.8182C13.2085 46.6655 14.4081 45.3121 15.6538 43.8989L15.654 43.8987C24.4907 33.8811 33.3089 23.8817 41.4065 13.4687C41.2646 11.6335 40.3874 9.85442 39.0083 8.6357C37.6345 7.42163 35.7954 6.7814 34.2036 6.84343C31.3926 9.99806 28.6276 13.2134 25.8494 16.4441C25.6114 16.7208 25.3733 16.9977 25.1351 17.2746C22.0301 20.8844 18.9035 24.5071 15.6867 28.0619L15.6865 28.0621C11.8986 32.2448 6.78877 38.2789 5.10404 40.8344ZM1.65398 53.2358C1.65229 53.2357 1.6514 53.2356 1.65138 53.2357L1.65398 53.2358Z" fill="#D2D9FF" stroke="#456184" stroke-width="2"/>
<path d="M1.10306 53.9452C1.00939 53.7542 1.05709 53.5234 1.10522 53.3174C1.28889 52.5265 1.48003 51.734 1.6637 50.9431C2.23193 51.1695 2.72896 51.5956 3.09732 52.0932C3.40575 52.5112 3.63808 52.9759 3.83698 53.4599C3.35098 53.665 2.86498 53.8701 2.37986 54.072C1.94224 54.2548 1.30949 54.3747 1.09888 53.9476L1.10306 53.9452Z" fill="#37384A"/>
<path d="M33.8209 10.2162L33.823 10.2176C36.0772 11.8084 37.9977 13.9085 39.16 16.3166C31.6901 25.7114 23.6814 34.7956 15.6547 43.8955L15.4994 44.0715L15.4985 44.0749C14.5239 45.1794 13.5722 46.2437 12.5402 47.1994C10.7692 44.3852 8.35275 41.9764 5.52112 40.2257C7.51982 37.4151 12.1716 31.9431 15.6872 28.0589C15.6872 28.0588 15.6873 28.0588 15.6873 28.0587L14.9459 27.3877C18.4139 23.5573 21.7786 19.645 25.1337 15.7439C27.3276 13.1928 29.5175 10.6465 31.7296 8.13096L33.8209 10.2162ZM33.8209 10.2162C33.2259 9.79404 32.6441 9.44894 32.0755 9.25251L33.8209 10.2162Z" fill="white" stroke="#456184" stroke-width="2"/>
<path d="M22.4606 31.8192C24.4025 29.4766 26.3857 27.0463 27.2454 24.1278C27.3709 23.699 27.4363 23.1517 27.0783 22.8793C26.9287 22.7651 26.7364 22.7312 26.5487 22.7197C25.3347 22.6486 24.2425 23.415 23.3253 24.2141C20.6753 26.5223 18.5339 29.4115 17.0982 32.6204C16.7913 33.3042 16.513 34.0133 16.4434 34.7607C16.3897 35.304 16.5866 36.0063 17.1271 36.0594C17.3684 36.0817 17.5947 35.9623 17.8046 35.8385C19.7674 34.6841 21.4308 33.0647 22.4606 31.8192Z" fill="#FBDC81"/>
<path d="M27.4384 13.0705C27.5203 12.9759 27.598 12.8838 27.6798 12.7892C29.7591 13.4417 31.7105 14.7164 33.366 16.5156C34.5539 17.8046 35.6004 19.3841 36.4863 21.2206C36.4077 21.3161 36.3291 21.4115 36.2497 21.5102C35.3619 19.6415 34.3132 18.0437 33.1171 16.7454C31.4608 14.9496 29.5125 13.6898 27.4384 13.0705ZM25.0531 15.8414C28.8745 17.5607 32.0044 20.7928 33.6622 24.64C33.5794 24.7378 33.5009 24.8333 33.4181 24.9311C31.7988 21.0589 28.661 17.8036 24.8227 16.1079C24.8995 16.0191 24.9763 15.9302 25.0531 15.8414ZM6.47176 37.324C6.54109 37.2367 6.61042 37.1493 6.68063 37.0587C10.1068 39.4488 12.8662 42.7581 14.6094 46.5505C14.526 46.6376 14.4426 46.7247 14.3592 46.8118C12.6408 43.0189 9.89308 39.7057 6.47176 37.324ZM8.7668 34.5077C8.84449 34.4156 8.92306 34.3201 9.00074 34.228C10.9471 34.8095 12.8327 35.9608 14.4538 37.5848C15.8103 38.9437 16.9873 40.5899 18.0727 42.6705C17.9917 42.7618 17.9149 42.8506 17.8339 42.9419C16.7481 40.8365 15.5737 39.1804 14.2139 37.8206C12.592 36.1998 10.707 35.0594 8.7635 34.5068L8.7668 34.5077Z" fill="#456184"/>
</g>
<defs>
<clipPath id="clip0_673_69646">
<rect width="32" height="56.6731" fill="white" transform="matrix(0.965926 0.258819 0.258819 -0.965926 0.242188 55.1008)"/>
</clipPath>
</defs>
</svg>
