<svg width="24" height="24" viewBox="0 0 24 24" fill="none" xmlns="http://www.w3.org/2000/svg">
<path d="M17.1163 15.3582C16.8456 15.6642 16.5615 15.9665 16.2645 16.2635C11.9687 20.5593 6.58683 22.1422 4.24368 19.7991C2.63728 18.1926 2.87617 15.158 4.56944 12.0242M6.89065 8.72526C7.17236 8.40495 7.4687 8.08875 7.77921 7.77824C12.075 3.48247 17.4569 1.89956 19.8 4.2427C21.4075 5.85021 21.1672 8.88795 19.4708 12.024M16.2645 7.77824C20.5603 12.074 22.1432 17.4559 19.8 19.7991C17.4569 22.1422 12.075 20.5593 7.77921 16.2635C3.48345 11.9678 1.90053 6.58585 4.24368 4.2427C6.58683 1.89956 11.9687 3.48247 16.2645 7.77824ZM13.001 12C13.001 12.5523 12.5533 13 12.001 13C11.4488 13 11.001 12.5523 11.001 12C11.001 11.4477 11.4488 11 12.001 11C12.5533 11 13.001 11.4477 13.001 12Z" stroke="#333333" stroke-width="2" stroke-linecap="round" stroke-linejoin="round"/>
</svg>
