<svg width="40" height="91" viewBox="0 0 40 91" fill="none" xmlns="http://www.w3.org/2000/svg">
<g clip-path="url(#clip0_1550_9357)">
<path d="M19.3154 44.041C19.3154 45.1027 21.1647 71.9177 29.2983 89.8972" stroke="#9A96BD" stroke-width="0.5" stroke-linecap="round" stroke-linejoin="round"/>
<path d="M40 20C40 37.5856 26.1986 45.5137 20 45.5137C13.8014 45.5137 0 36.387 0 20C0 8.95548 8.95548 0 20 0C31.0445 0 40 8.95548 40 20Z" fill="#FD83C6"/>
<path d="M18.9551 45.0513L17.7051 49.4177L22.003 49.2122L20.3078 44.9314L18.9551 45.0513Z" fill="#FD83C6"/>
<path d="M7.89426 14.5547C7.89426 14.5547 5.12028 19.8972 7.24357 25.0342L12.8086 25.2397C12.8086 25.2397 13.0141 19.452 14.3155 15.8218L7.89426 14.5376V14.5547Z" fill="white"/>
</g>
<defs>
<clipPath id="clip0_1550_9357">
<rect width="40" height="90.3253" fill="white"/>
</clipPath>
</defs>
</svg>
