<svg width="36" height="36" viewBox="0 0 36 36" fill="none" xmlns="http://www.w3.org/2000/svg">
<g clip-path="url(#clip0_725_85)">
<rect width="36" height="36" rx="10" fill="url(#paint0_linear_725_85)"/>
<path d="M19.4798 14.9025C17.8409 14.9025 16.5112 16.2115 16.5112 17.8298C16.5112 19.4481 17.8409 20.7571 19.4798 20.7571C21.1187 20.7571 22.4484 19.4481 22.4484 17.8298C22.4484 16.2115 21.129 14.9025 19.4798 14.9025ZM19.4798 19.2316C18.6964 19.2316 18.0574 18.6029 18.0574 17.8298C18.0574 17.0567 18.6964 16.428 19.4798 16.428C20.2632 16.428 20.9022 17.0567 20.9022 17.8298C20.9022 18.6029 20.2735 19.2316 19.4798 19.2316Z" fill="white"/>
<path d="M10.0892 14.9025C9.45013 14.9025 8.8523 15.1499 8.38846 15.5725V13.1502H6.73926V20.6232H8.38846V20.0975C8.8523 20.5098 9.43983 20.7675 10.0892 20.7675C11.5632 20.7675 12.7588 19.4584 12.7588 17.8401C12.7588 16.2219 11.5735 14.9025 10.0892 14.9025ZM9.75936 19.2935C9.15122 19.2935 8.62553 18.9327 8.39877 18.4071C8.32661 18.2318 8.27508 18.036 8.27508 17.8298C8.27508 17.6237 8.31631 17.4278 8.39877 17.2526C8.62553 16.7269 9.15122 16.3662 9.75936 16.3662C10.584 16.3662 11.2436 17.0155 11.2436 17.8298C11.2436 18.6441 10.584 19.2935 9.75936 19.2935Z" fill="white"/>
<path d="M27.5917 15.0262V15.4901C27.1279 15.1293 26.5507 14.9128 25.9322 14.9128C24.417 14.9128 23.1904 16.1807 23.1904 17.7371C23.1904 19.2935 24.417 20.5614 25.9322 20.5614C26.561 20.5614 27.1382 20.3449 27.5917 19.9841V20.7675C27.5917 20.7675 27.4268 21.5406 26.2724 21.5406V22.9939C26.2724 22.9939 27.5196 23.1382 28.6328 22.025C28.6328 22.025 29.1482 21.4787 29.2616 20.7572V15.0262H27.5917ZM26.2415 19.1698C25.4065 19.1698 24.7366 18.5205 24.7366 17.7268C24.7366 16.9331 25.4169 16.2837 26.2415 16.2837C26.829 16.2837 27.3444 16.6136 27.5917 17.0877C27.6948 17.2836 27.7464 17.5 27.7464 17.7268C27.7464 17.9536 27.6845 18.1803 27.5917 18.3659C27.3444 18.8503 26.829 19.1698 26.2415 19.1698Z" fill="white"/>
<path d="M12.9443 13.0059V14.5004C12.9443 14.5004 13.7071 14.6035 13.8514 15.3457V20.6231H15.5521V15.3457V15.3044C15.4491 14.5623 15.0058 14.0057 15.0058 14.0057C14.0369 12.8616 12.9443 13.0059 12.9443 13.0059Z" fill="white"/>
</g>
<defs>
<linearGradient id="paint0_linear_725_85" x1="17.9978" y1="35.9973" x2="17.9978" y2="0.00362142" gradientUnits="userSpaceOnUse">
<stop stop-color="#00D44D"/>
<stop offset="1" stop-color="#00E56D"/>
</linearGradient>
<clipPath id="clip0_725_85">
<rect width="36" height="36" fill="white"/>
</clipPath>
</defs>
</svg>
