<svg width="102" height="67" viewBox="0 0 102 67" fill="none" xmlns="http://www.w3.org/2000/svg">
<g clip-path="url(#clip0_810_5758)">
<path d="M68.732 19.1898C68.732 19.1898 65.6259 22.6194 65.8811 23.2331C66.1363 23.8467 72.2761 28.8259 73.0853 28.3041C73.8945 27.7823 75.526 24.7308 75.526 24.7308L68.732 19.1898Z" fill="#D9D9D9"/>
<path d="M73.118 28.6398C71.8524 29.0236 65.9216 24.0501 65.5647 23.3291C65.3287 22.7787 66.2681 21.3191 68.4463 18.931C68.5536 18.8293 68.7435 18.7718 68.9276 18.9232L75.7407 24.5275C75.8424 24.6349 75.9 24.8248 75.7926 24.9264C75.6162 25.2563 74.1171 28.0604 73.2446 28.6014C73.2446 28.6014 73.1813 28.6206 73.118 28.6398ZM68.7839 19.5887C67.4897 21.0177 66.209 22.7191 66.2608 23.118C66.5793 23.7124 72.0651 28.1299 72.9894 27.9878C73.5014 27.6252 74.5098 25.9374 75.1904 24.7635L68.7839 19.5887Z" fill="#D9D9D9"/>
<path d="M73.0068 10.5005C73.0068 10.5005 68.1959 5.11824 63.7587 8.26047C59.3216 11.4027 54.8397 20.7777 56.9358 20.6258C59.0319 20.4739 63.8581 16.108 65.9641 17.1279C68.07 18.1477 73.0068 10.5005 73.0068 10.5005Z" fill="#CE7B90"/>
<path d="M83.0192 18.4509C83.0192 18.4509 89.3697 21.846 87.3264 26.9573C85.2831 32.0686 77.2834 38.5025 76.8591 36.4199C76.4349 34.3372 79.6671 28.589 78.167 26.8326C76.6478 25.0129 83.0192 18.4509 83.0192 18.4509Z" fill="#CE7B90"/>
<path d="M64.8716 18.0811C64.8716 18.0811 77.1974 28.6476 78.1658 28.423C79.1151 28.1351 92.5683 8.92194 90.2581 3.12685C87.9479 -2.66824 67.0373 11.5506 64.8716 18.0811Z" fill="white"/>
<path d="M78.2423 28.676C77.2106 28.9198 69.2543 22.2801 64.6566 18.2843C64.5549 18.1769 64.5165 18.0504 64.5414 17.9046C66.1553 13.2 77.6563 4.18404 85.0604 1.93874C88.7942 0.806493 90.1023 1.93005 90.5743 3.03077C91.3783 4.99826 90.5524 8.42742 88.2424 13.3432C84.8743 20.2383 79.1283 28.4073 78.2423 28.676ZM65.251 17.9658C69.7279 21.7909 76.9918 27.7423 78.1137 28.024C79.4598 26.9938 92.1557 8.70134 89.9415 3.22267C89.3351 1.67898 87.0684 1.95176 85.2332 2.50829C78.2912 4.68254 67.0298 13.3494 65.251 17.9658Z" fill="white"/>
<path d="M78.7725 4.67494C78.7725 4.67494 87.9758 13.1478 88.6833 12.5186C89.3908 11.8894 92.7492 3.82254 89.9871 1.55052C88.2282 0.0799345 83.6334 1.33509 78.7725 4.67494Z" fill="#CE7B90"/>
<path d="M79.0233 20.7689C77.5045 21.2295 75.882 20.8922 74.6314 19.9585C72.5426 18.3116 72.1853 15.3103 73.8323 13.2215C74.419 12.4217 75.2915 11.8807 76.1774 11.612C77.6962 11.1514 79.3187 11.4886 80.5693 12.4224C82.6581 14.0693 83.0154 17.0706 81.3685 19.1594C80.7626 19.8959 79.9726 20.481 79.0233 20.7689Z" fill="#CEBED6"/>
<path d="M80.0163 18.1175C79.953 18.1366 79.8897 18.1558 79.8072 18.1117C79.6423 18.0236 79.5214 17.8529 79.6096 17.688C80.6025 15.0374 78.6807 14.169 78.5982 14.1249C78.4333 14.0367 78.3757 13.8469 78.4006 13.7011C78.4888 13.5362 78.6786 13.4786 78.8244 13.5035C78.8244 13.5035 81.3235 14.6805 80.1677 17.9333C80.1869 17.9966 80.1428 18.0791 80.0163 18.1175Z" fill="#B2A0BB"/>
<path d="M88.9489 8.15368C88.8857 8.17287 88.8224 8.19206 88.7399 8.14797C88.5749 8.05979 88.5174 7.86994 88.6056 7.70499C89.6887 5.57986 88.7006 3.46091 88.6814 3.39762C88.6238 3.20778 88.6487 3.06202 88.8194 2.94116C88.9901 2.82031 89.155 2.90849 89.2759 3.07915C89.3142 3.20572 90.4232 5.49533 89.227 7.93116C89.1388 8.09611 89.0755 8.1153 88.9489 8.15368Z" fill="#B86C7F"/>
<path d="M66.0428 26.5011C66.0428 26.5011 64.0785 24.1254 60.2032 26.6135C56.3278 29.1017 56.5668 34.9029 55.756 37.0146C54.9068 38.9997 59.8952 40.1819 65.5197 37.9926C71.1441 35.8033 71.6837 29.835 66.0428 26.5011Z" fill="#E83844"/>
<path d="M65.3893 28.2202C65.3893 28.2202 64.4992 27.1081 62.6469 28.2917C60.7754 29.4121 60.9293 32.1986 60.5268 33.1499C60.1243 34.1012 62.4947 34.6262 65.0951 33.6304C67.6954 32.6345 67.3801 28.8604 65.3893 28.2202Z" fill="#EDD14E"/>
<g clip-path="url(#clip1_810_5758)">
<path d="M37.5028 58.8583C37.313 58.9159 37.148 58.8277 37.0905 58.6379C37.0329 58.448 37.1211 58.2831 37.3109 58.2255C37.6906 58.1103 38.1336 57.976 38.5574 57.7784C38.7472 57.7208 38.9122 57.809 38.9698 57.9988C39.0273 58.1887 38.9391 58.3536 38.7493 58.4112C38.3255 58.6088 37.9458 58.724 37.5028 58.8583ZM36.2372 59.2421C35.775 59.3132 35.332 59.4475 34.8506 59.4553C34.6416 59.4496 34.4767 59.3614 34.4824 59.1523C34.4881 58.9433 34.5955 58.8416 34.7853 58.7841C35.1842 58.7322 35.6464 58.6612 36.0261 58.546C36.2159 58.4884 36.4001 58.6399 36.4384 58.7665C36.5152 59.0196 36.427 59.1846 36.2372 59.2421ZM39.9574 57.8376C39.8308 57.8759 39.6659 57.7878 39.5642 57.6804C39.5066 57.4905 39.5315 57.3448 39.7022 57.2239C40.126 57.0263 40.4673 56.7846 40.8278 56.6062C40.9985 56.4853 41.1634 56.5735 41.2651 56.6809C41.3667 56.7882 41.2978 57.0165 41.1904 57.1181C40.805 57.4423 40.3812 57.6399 39.9574 57.8376ZM33.6156 59.4843C33.5523 59.5035 33.5523 59.5035 33.489 59.5227C33.0077 59.5304 32.5704 59.4557 32.1331 59.381C31.9874 59.3561 31.8665 59.1855 31.8722 58.9764C31.8779 58.7674 32.0678 58.7098 32.2768 58.7155C32.7141 58.7902 33.0689 58.8209 33.5503 58.8131C33.7593 58.8188 33.8802 58.9895 33.8552 59.1352C33.8495 59.3442 33.7422 59.4459 33.6156 59.4843ZM42.151 56.4122C42.0245 56.4506 41.8787 56.4257 41.7771 56.3183C41.6562 56.1476 41.6811 56.0019 41.8326 55.8177C42.1547 55.5128 42.496 55.271 42.7549 54.9852C42.8622 54.8836 43.0521 54.826 43.2362 54.9775C43.3379 55.0848 43.3955 55.2747 43.244 55.4588C42.9219 55.7638 42.5997 56.0688 42.2143 56.393C42.2143 56.393 42.2143 56.393 42.151 56.4122ZM31.0553 59.0169C30.992 59.0361 30.9287 59.0553 30.8462 59.0112C30.3898 58.8732 29.9774 58.6527 29.6283 58.4131C29.4634 58.3249 29.4058 58.135 29.5572 57.9509C29.6454 57.7859 29.8353 57.7284 30.0194 57.8798C30.3685 58.1195 30.7617 58.2767 31.1549 58.4338C31.3198 58.522 31.4407 58.6927 31.3525 58.8576C31.2259 58.896 31.1185 58.9977 31.0553 59.0169ZM43.9821 54.4749C43.9189 54.4941 43.7731 54.4692 43.6906 54.4251C43.5257 54.3369 43.5314 54.1278 43.6196 53.9629C43.8592 53.6138 44.0989 53.2647 44.2561 52.8715C44.3442 52.7066 44.5341 52.649 44.699 52.7372C44.864 52.8254 44.9216 53.0152 44.8334 53.1802C44.6129 53.5926 44.3925 54.0049 44.1528 54.354C44.1087 54.4365 44.0454 54.4557 43.9821 54.4749ZM22.1744 60.9499C21.7314 61.0842 21.2692 61.1553 20.8262 61.2896C20.6364 61.3472 20.4522 61.1957 20.458 60.9867C20.4004 60.7968 20.5519 60.6127 20.7609 60.6184C21.1598 60.5665 21.6028 60.4322 21.9825 60.317C22.1723 60.2595 22.3373 60.3477 22.3948 60.5375C22.4524 60.7274 22.3009 60.9115 22.1744 60.9499ZM23.4208 60.5028C23.231 60.5603 23.066 60.4722 23.0085 60.2823C22.9509 60.0925 23.0391 59.9275 23.2289 59.8699C23.6719 59.7356 24.0324 59.5572 24.3929 59.3788C24.5636 59.2579 24.7285 59.3461 24.8494 59.5167C24.9703 59.6874 24.8821 59.8524 24.7114 59.9732C24.2876 60.1708 23.8638 60.3684 23.4208 60.5028ZM19.5471 61.4011L19.4838 61.4203C19.0216 61.4913 18.6036 61.4799 18.1222 61.4877C17.9132 61.482 17.7923 61.3113 17.8172 61.1655C17.8229 60.9565 17.9936 60.8356 18.1393 60.8606C18.5574 60.872 18.9755 60.8834 19.4377 60.8123C19.6467 60.8181 19.7484 60.9254 19.8059 61.1153C19.781 61.261 19.6737 61.3627 19.5471 61.4011ZM25.7546 59.3114C25.628 59.3497 25.4822 59.3248 25.3614 59.1542C25.2405 58.9835 25.3287 58.8186 25.4361 58.7169C25.7774 58.4752 26.1187 58.2335 26.4408 57.9285C26.6115 57.8076 26.7573 57.8325 26.9414 57.984C27.0622 58.1547 27.0373 58.3004 26.8859 58.4846C26.5638 58.7896 26.1592 59.0505 25.8178 59.2922L25.7546 59.3114ZM16.9121 61.3709C16.8488 61.3901 16.8488 61.3901 16.7855 61.4093C16.3482 61.3346 15.9109 61.2599 15.4737 61.1852C15.3279 61.1603 15.2071 60.9896 15.2128 60.7806C15.2185 60.5716 15.4083 60.514 15.6174 60.5197C15.9914 60.6136 16.4286 60.6883 16.8659 60.763C17.0749 60.7687 17.1958 60.9394 17.1901 61.1484C17.146 61.2309 17.0386 61.3325 16.9121 61.3709ZM28.8342 57.6173C28.7076 57.6557 28.6251 57.6116 28.5235 57.5042C28.4218 57.3969 28.3201 57.2895 28.2185 57.1821C28.1111 57.2838 28.067 57.3663 27.9596 57.4679C27.8523 57.5696 27.6624 57.6272 27.4783 57.4757C27.3766 57.3683 27.319 57.1785 27.4705 56.9943C27.5779 56.8927 27.6661 56.7277 27.8367 56.6069C27.8175 56.5436 27.7351 56.4995 27.6967 56.3729C27.5758 56.2023 27.664 56.0373 27.7714 55.9356C27.942 55.8148 28.107 55.903 28.2087 56.0104C28.2968 55.8454 28.4867 55.7878 28.6516 55.876C28.8166 55.9642 28.8742 56.1541 28.786 56.319C28.7419 56.4015 28.6978 56.4839 28.6537 56.5664C28.7745 56.7371 28.8762 56.8445 29.0412 56.9326C29.2061 57.0208 29.1371 57.2491 29.0489 57.414C28.8783 57.5349 28.8342 57.6173 28.8342 57.6173ZM45.1343 52.1215C45.071 52.1407 45.0077 52.1599 44.9252 52.1158C44.7603 52.0276 44.6394 51.857 44.7276 51.692C44.8848 51.2988 44.9595 50.8616 44.9709 50.4435L44.9517 50.3802C44.4512 50.3247 43.9947 50.1867 43.6456 49.947C43.4807 49.8589 43.4231 49.669 43.5113 49.5041C43.5995 49.3391 43.7893 49.2815 43.9543 49.3697C44.2842 49.5461 44.6581 49.64 45.0954 49.7147C45.2412 49.7396 45.362 49.9103 45.3563 50.1193C45.3563 50.1193 45.3563 50.1193 45.3755 50.1826C45.5213 50.2075 45.6421 50.3781 45.6172 50.5239C45.5425 50.9612 45.4678 51.3984 45.3298 51.8549C45.3241 52.0639 45.1975 52.1023 45.1343 52.1215ZM14.3574 60.6945C14.2941 60.7137 14.2309 60.7328 14.1484 60.6888C13.6919 60.5508 13.2796 60.3303 12.8864 60.1731C12.7214 60.0849 12.6639 59.8951 12.752 59.7301C12.8402 59.5652 13.0301 59.5076 13.195 59.5958C13.5882 59.753 13.9373 59.9926 14.3937 60.1306C14.5587 60.2188 14.6795 60.3895 14.5914 60.5544C14.5473 60.6369 14.4207 60.6753 14.3574 60.6945ZM49.6502 49.9228C49.4604 49.9804 49.2705 50.038 49.0807 50.0955C48.8908 50.1531 48.7259 50.0649 48.6683 49.8751C48.6107 49.6852 48.6989 49.5203 48.8888 49.4627C49.2052 49.3667 49.5849 49.2516 49.9646 49.1365L50.1544 49.0789C50.3443 49.0213 50.5092 49.1095 50.5668 49.2993C50.6244 49.4892 50.5362 49.6541 50.3463 49.7117L50.1565 49.7693C49.9666 49.8269 49.7768 49.8844 49.6502 49.9228ZM47.7958 50.4161C47.2703 50.5063 46.8082 50.5773 46.3901 50.5659C46.1811 50.5602 46.0794 50.4528 46.0218 50.263C45.9642 50.0731 46.1349 49.9523 46.3248 49.8947C46.7428 49.9061 47.1417 49.8543 47.6039 49.7832C47.7937 49.7257 47.9779 49.8771 47.9722 50.0862C48.0738 50.1935 47.9857 50.3585 47.7958 50.4161ZM51.5544 49.1381C51.4278 49.1764 51.2629 49.0882 51.1612 48.9809C51.0404 48.8102 51.1286 48.6453 51.2992 48.5244C51.6597 48.346 52.001 48.1043 52.3232 47.7993C52.4938 47.6784 52.6396 47.7033 52.8045 47.7915C52.9695 47.8797 52.9005 48.1079 52.8123 48.2729C52.4902 48.5779 52.0856 48.8388 51.681 49.0997C51.6177 49.1189 51.5544 49.1381 51.5544 49.1381ZM29.1252 55.3869C29.0619 55.4061 28.9987 55.4253 28.9162 55.3812C28.7512 55.293 28.6304 55.1223 28.7186 54.9574C28.8758 54.5642 28.9505 54.1269 29.0444 53.753C29.0693 53.6072 29.2207 53.4231 29.449 53.4921C29.5947 53.517 29.7788 53.6684 29.7099 53.8967C29.6351 54.3339 29.4972 54.7904 29.3592 55.2468C29.2959 55.266 29.2518 55.3485 29.1252 55.3869ZM27.3455 55.4429C27.1557 55.5004 26.9907 55.4123 26.9332 55.2224C26.8948 55.0958 26.8564 54.9693 26.7988 54.7794C26.7029 54.463 26.6069 54.1466 26.5934 53.8743C26.5359 53.6844 26.7065 53.5636 26.8964 53.506C27.0862 53.4484 27.2704 53.5999 27.2647 53.8089C27.2781 54.0812 27.3549 54.3344 27.4509 54.6508C27.4892 54.7774 27.5276 54.9039 27.566 55.0305C27.6044 55.1571 27.5162 55.322 27.3455 55.4429ZM53.5256 47.4347C53.399 47.473 53.3165 47.4289 53.234 47.3849C53.0691 47.2967 53.0748 47.0876 53.163 46.9227C53.4026 46.5736 53.6423 46.2245 53.7995 45.8313C53.8877 45.6664 54.0775 45.6088 54.2425 45.697C54.4074 45.7852 54.465 45.975 54.3768 46.14C54.1563 46.5524 53.9359 46.9647 53.6329 47.333C53.6521 47.3963 53.5888 47.4155 53.5256 47.4347ZM45.4559 49.5363L45.3926 49.5555C45.1836 49.5497 45.0819 49.4424 45.0244 49.2525C44.9725 48.8536 44.9206 48.4547 44.8247 48.1383L44.7863 48.0118C44.7287 47.8219 44.8169 47.657 45.0068 47.5994C45.1966 47.5418 45.3616 47.63 45.4191 47.8199L45.4575 47.9464C45.5727 48.3261 45.6245 48.725 45.6956 49.1872C45.6707 49.3329 45.5825 49.4979 45.4559 49.5363ZM12.0041 59.5424C11.9408 59.5615 11.795 59.5366 11.7126 59.4925C11.3635 59.2529 10.9952 58.95 10.6269 58.647C10.5252 58.5396 10.4677 58.3498 10.6191 58.1657C10.7265 58.064 10.9164 58.0064 11.1005 58.1579C11.3863 58.4167 11.7546 58.7197 12.1037 58.9593C12.2686 59.0475 12.2629 59.2565 12.1747 59.4215C12.1114 59.4407 12.0673 59.5232 12.0041 59.5424ZM42.8707 49.2146C42.7441 49.253 42.5984 49.2281 42.4967 49.1207C42.3567 48.8868 42.2358 48.7161 42.159 48.463C42.0823 48.2098 42.0496 47.8742 42.1186 47.646C42.1435 47.5002 42.295 47.3161 42.5232 47.3851C42.669 47.41 42.8531 47.5615 42.7841 47.7897C42.7592 47.9355 42.7535 48.1445 42.8111 48.3343C42.8494 48.4609 42.907 48.6508 43.0279 48.8214C43.1487 48.9921 43.0605 49.157 42.9532 49.2587C42.9973 49.1762 42.934 49.1954 42.8707 49.2146ZM29.5102 52.7825C29.3203 52.84 29.1362 52.6886 29.0786 52.4987C29.0402 52.3721 29.0019 52.2456 28.9635 52.119C28.8867 51.8659 28.7467 51.6319 28.645 51.5246C28.4801 51.4364 28.4858 51.2273 28.574 51.0624C28.6621 50.8974 28.8712 50.9032 29.0361 50.9913C29.3027 51.1869 29.462 51.4841 29.5963 51.9271C29.6347 52.0537 29.6923 52.2435 29.6674 52.3893C29.7882 52.5599 29.6367 52.7441 29.5102 52.7825ZM54.6777 45.0813C54.6144 45.1005 54.5511 45.1197 54.4686 45.0756C54.3229 45.0507 54.1828 44.8167 54.2077 44.671C54.3016 44.297 54.3763 43.8597 54.451 43.4225C54.4567 43.2134 54.6274 43.0926 54.8556 43.1616C55.0647 43.1673 55.1855 43.3379 55.1165 43.5662C55.0418 44.0034 54.9863 44.504 54.8291 44.8972C54.8483 44.9604 54.741 45.0621 54.6777 45.0813ZM27.1034 52.8213C27.0401 52.8405 26.9768 52.8597 26.8943 52.8156C26.7486 52.7907 26.6277 52.62 26.6334 52.411C26.7522 51.8912 27.0168 51.3964 27.4214 51.1355C27.592 51.0146 27.7378 51.0395 27.8586 51.2102C27.9795 51.3809 27.9546 51.5266 27.7839 51.6475C27.5059 51.87 27.3295 52.1999 27.2356 52.5739C27.274 52.7004 27.2299 52.7829 27.1034 52.8213ZM10.0667 57.7113C9.94016 57.7496 9.79441 57.7247 9.69274 57.6174C9.43184 57.2128 9.19013 56.8714 8.92923 56.4668C8.80838 56.2962 8.89656 56.1312 9.06722 56.0104C9.23788 55.8895 9.40283 55.9777 9.52368 56.1484C9.70211 56.5089 9.94382 56.8502 10.1855 57.1915C10.3064 57.3622 10.2815 57.5079 10.1108 57.6288C10.1933 57.6729 10.13 57.6921 10.0667 57.7113ZM44.5176 47.1258C44.3911 47.1642 44.3086 47.1201 44.2261 47.076C43.9403 46.8171 43.668 46.8306 43.3708 46.9899C43.2001 47.1107 43.0352 47.0225 42.9143 46.8519C42.8567 46.662 42.8816 46.5163 43.0523 46.3954C43.1789 46.357 43.2422 46.3378 43.3687 46.2995C43.8117 46.1651 44.2682 46.3031 44.6556 46.6693C44.7573 46.7767 44.8149 46.9666 44.6634 47.1507C44.6442 47.0874 44.5809 47.1066 44.5176 47.1258ZM55.0434 42.4136L54.9801 42.4328C54.7711 42.4271 54.6502 42.2564 54.6751 42.1107C54.6539 41.357 54.5637 40.8315 54.6269 40.8123C54.5694 40.6225 54.7208 40.4383 54.9299 40.444C55.1197 40.3865 55.3039 40.5379 55.2982 40.747C55.2982 40.747 55.4076 41.3357 55.3656 42.1086C55.2774 42.2735 55.17 42.3752 55.0434 42.4136ZM8.87531 55.3775C8.68546 55.4351 8.52052 55.3469 8.46295 55.1571L8.44375 55.0938C8.30942 54.6508 8.23837 54.1886 8.18651 53.7898C8.12894 53.5999 8.29959 53.4791 8.48944 53.4215C8.67929 53.3639 8.86343 53.5154 8.85772 53.7244C8.90958 54.1233 8.96144 54.5222 9.07659 54.9019C9.13416 55.0917 9.06516 55.32 8.87531 55.3775ZM8.56986 52.7752C8.50658 52.7944 8.50658 52.7944 8.44329 52.8136C8.29754 52.7887 8.1134 52.6372 8.11911 52.4281C8.19382 51.9909 8.24933 51.4903 8.32404 51.053C8.34894 50.9073 8.5196 50.7864 8.72864 50.7921C8.87439 50.817 8.99525 50.9877 8.98954 51.1967C8.91483 51.634 8.84013 52.0713 8.8287 52.4894C8.8038 52.6351 8.69643 52.7368 8.56986 52.7752ZM9.10057 50.1956C9.03728 50.2148 8.974 50.234 8.89153 50.1899C8.72658 50.1017 8.66901 49.9119 8.75719 49.7469C8.91437 49.3538 9.11564 48.8781 9.27282 48.4849C9.36101 48.32 9.55086 48.2624 9.71581 48.3506C9.88075 48.4388 9.93833 48.6286 9.85014 48.7936C9.69296 49.1868 9.4725 49.5991 9.31532 49.9923C9.27123 50.0748 9.22713 50.1573 9.10057 50.1956ZM10.316 47.8231C10.2527 47.8423 10.1069 47.8174 10.0245 47.7733C9.92279 47.6659 9.86522 47.4761 9.9534 47.3111C9.99749 47.2286 10.1049 47.127 10.149 47.0445C10.2371 46.8796 10.4462 46.8853 10.6111 46.9735C10.7761 47.0616 10.7704 47.2707 10.6822 47.4356C10.6381 47.5181 10.594 47.6006 10.4866 47.7022C10.4425 47.7847 10.3792 47.8039 10.316 47.8231Z" fill="white"/>
</g>
</g>
<defs>
<clipPath id="clip0_810_5758">
<rect width="93.903" height="40.9999" fill="white" transform="translate(0 27.25) rotate(-16.8699)"/>
</clipPath>
<clipPath id="clip1_810_5758">
<rect width="48.8693" height="19.3096" fill="white" transform="translate(6.33301 48.1328) rotate(-16.8699)"/>
</clipPath>
</defs>
</svg>
