<svg width="48" height="54" viewBox="0 0 48 54" fill="none" xmlns="http://www.w3.org/2000/svg">
<path d="M12.6784 49.3185C7.07843 46.2066 2.67843 39.131 1.17843 35.9821C-0.821568 25.9798 0.678432 18.2003 5.67843 10.4207C10.6784 2.64119 25.1784 -3.47131 35.6784 4.86392C46.1784 13.1991 47.6784 23.7571 47.6784 30.4253C47.6784 37.0935 43.1784 47.0957 35.1784 51.5412C27.1784 55.9866 19.6784 53.2082 12.6784 49.3185Z" fill="#281B52"/>
<path d="M14.0196 46.0011C9.17136 43.3232 5.36201 37.2342 4.06337 34.5244C2.33185 25.9167 3.63049 19.222 7.9593 12.5272C12.2881 5.83238 24.8417 0.572185 33.9321 7.74518C43.0226 14.9182 44.3213 24.004 44.3213 29.7424C44.3213 35.4808 40.4254 44.0883 33.4993 47.9139C26.5732 51.7395 20.08 49.3485 14.0196 46.0011Z" fill="#281B52" stroke="white" stroke-width="0.5"/>
<path d="M32.3213 28.2026L19.3213 36.5378L19.3213 19.8674L32.3213 28.2026Z" fill="white"/>
</svg>
