<svg width="12" height="21" viewBox="0 0 12 21" fill="none" xmlns="http://www.w3.org/2000/svg">
<path fill-rule="evenodd" clip-rule="evenodd" d="M10.2871 20.7785C10.6259 20.7782 10.9571 20.6767 11.2388 20.4867C11.5204 20.2967 11.74 20.0267 11.8696 19.711C11.9992 19.3952 12.0332 19.0478 11.9671 18.7126C11.9011 18.3774 11.7381 18.0695 11.4986 17.8277L7.8184 14.1161L4.13818 10.4045L11.5028 2.9785C11.8202 2.65355 11.9974 2.21527 11.9958 1.75914C11.9942 1.30305 11.814 0.866008 11.4944 0.543264C11.1748 0.220529 10.7416 0.0382727 10.2894 0.0361515C9.83714 0.0340304 9.40236 0.212221 9.07977 0.531938L9.07444 0.537217L0.502816 9.18194C0.343572 9.34245 0.216901 9.53337 0.130688 9.74311C0.0444231 9.95298 0 10.178 0 10.4052C0 10.6324 0.0444174 10.8574 0.130688 11.0673C0.21692 11.2771 0.343269 11.4677 0.502479 11.6281L9.07447 20.2732C9.39614 20.5965 9.83298 20.7789 10.2871 20.7785Z" fill="white"/>
</svg>
