<svg width="71" height="42" viewBox="0 0 71 42" fill="none" xmlns="http://www.w3.org/2000/svg">
<path d="M7.12546 13.6445C10.9276 12.6163 14.6494 12.4128 18.364 12.2151C19.4941 12.1557 20.5229 11.5779 21.2037 10.6752C24.3503 6.4981 28.1023 4.09684 32.0303 4.57569C37.796 5.27858 41.8375 4.9301 46.1119 5.96376C49.717 6.83041 58.2038 8.27245 60.2813 11.3384C63.9349 16.7322 65.8044 22.7037 67.4059 28.5571C68.0695 30.9906 66.2079 33.3989 63.689 33.3218C62.2367 33.2762 60.7321 33.0665 59.3165 32.8807C58.0691 32.7155 56.9878 31.9397 56.4348 30.8143C55.5805 29.0869 54.2067 27.6906 52.2908 27.3519C50.375 27.0132 47.3099 28.6241 46.1879 30.5114C45.4709 31.712 44.2124 32.5049 42.8135 32.4527C38.023 32.263 33.3307 31.0469 28.5867 30.0414C27.3576 29.7799 26.3107 28.936 25.8764 27.7527C25.0526 25.5034 22.9109 23.7242 20.5048 23.5295C18.2418 23.3456 15.9839 24.5818 14.7446 26.4614C13.9799 27.6233 12.5863 28.1763 11.2056 28.0277C8.82752 27.7641 6.28174 27.8546 4.12124 27.1509C3.5271 26.9602 -0.337444 15.6722 7.12389 13.6575L7.12546 13.6445Z" fill="#8DBAC7"/>
<path d="M17.0425 26.458C14.6241 27.8786 13.7959 31.4583 15.3584 33.7915C16.9208 36.1247 20.5592 36.7194 22.7662 34.9839C24.9732 33.2483 25.1448 29.6674 23.3445 27.509C21.5953 25.416 18.222 26.1549 17.0433 26.4515L17.0425 26.458Z" fill="#3C7980"/>
<path d="M50.4446 29.4422C46.1407 30.4357 45.8493 34.8959 48.0405 37.3517C50.2309 39.814 55.0321 38.8351 56.018 35.6887C57.0038 32.5423 54.7493 28.4422 50.4454 29.4357L50.4446 29.4422Z" fill="#3C7980"/>
<path d="M2.63377 21.4545C2.97496 23.0275 7.6927 20.5726 8.22504 19.0535C8.75737 17.5343 4.99503 16.0109 3.67607 15.081C3.67607 15.081 2.24987 19.6922 2.63377 21.4545Z" fill="#FFEDB8"/>
<path d="M66.3093 24.8463C63.9289 25.141 62.8768 26.2353 62.9259 27.9962C62.9686 29.5394 66.6216 31.2599 67.7996 30.5359L66.3093 24.8463Z" fill="#E08E65"/>
<path d="M19.4198 12.0213C21.1295 13.4654 24.6726 14.5218 26.8985 14.688C27.9904 12.0211 27.22 5.05218 25.4044 6.10592C22.9849 8.348 22.2876 7.81604 20.1907 12.1087" fill="#3C7980"/>
<path d="M30.3894 16.4782C30.3894 16.4782 55.7063 19.0058 56.0052 18.924C56.5076 18.7881 57.1812 13.1269 55.3334 11.9028C53.4791 10.6779 45.885 9.6733 43.9353 9.34362C39.9209 8.65712 35.3862 7.60489 33.2445 9.01951C31.1037 10.4277 30.3894 16.4782 30.3894 16.4782Z" fill="#3C7980"/>
<path d="M43.7433 9.51526C43.1975 12.2819 42.9753 15.0879 43.0209 17.9069C43.0292 18.4338 43.6614 18.8001 44.136 18.733C44.7181 18.6462 44.9687 18.1509 44.9611 17.6175C44.9194 14.9831 45.1818 12.3331 45.6919 9.75276C45.7944 9.23281 45.3372 8.72352 44.8387 8.66276C44.282 8.5949 43.8523 8.99609 43.7498 9.51604L43.7433 9.51526Z" fill="#8DBAC7"/>
<path d="M63.7873 18.373C63.326 19.1976 62.0565 19.2137 61.2976 18.6479C60.5387 18.0821 60.173 17.1436 59.8335 16.2609C59.1323 14.4073 59.7761 12.1853 59.0757 10.3252C61.1838 11.8968 62.423 13.5925 63.7808 18.3722L63.7873 18.373Z" fill="#3C7980"/>
</svg>
