<svg width="27" height="27" viewBox="0 0 27 27" fill="none" xmlns="http://www.w3.org/2000/svg">
<g clip-path="url(#clip0_673_69736)">
<path d="M22.4355 22.6849C27.5126 17.6078 27.5126 9.37613 22.4355 4.29902C17.3584 -0.778096 9.12673 -0.778096 4.04962 4.29902C-1.0275 9.37613 -1.0275 17.6078 4.04962 22.6849C9.12673 27.762 17.3584 27.762 22.4355 22.6849Z" fill="#FFD05D"/>
<path d="M20.0437 2.3963C21.3386 4.41718 22.089 6.82089 22.089 9.39847C22.089 16.5776 16.2688 22.3992 9.0882 22.3992C6.5945 22.3992 4.26553 21.6961 2.28735 20.479C4.59802 24.0861 8.64132 26.4761 13.2428 26.4761C20.4219 26.4761 26.2436 20.6559 26.2436 13.4753C26.2436 8.78839 23.7636 4.68257 20.0452 2.39478L20.0437 2.3963Z" fill="#FDC453"/>
<path d="M2.00845 14.8632C2.00845 8.19662 7.41374 2.79286 14.0788 2.79286C17.9757 2.79286 21.4394 4.63987 23.6464 7.50571C21.563 3.88642 17.6554 1.45068 13.1805 1.45068C6.51387 1.45068 1.11011 6.85445 1.11011 13.5211C1.11011 16.2908 2.04353 18.8425 3.61295 20.8786C2.5926 19.1079 2.00845 17.0534 2.00845 14.8632Z" fill="#FFD77F"/>
<path d="M7.91377 16.2206C7.57823 15.8958 7.04288 16.2557 7.21523 16.6889C8.1761 19.0895 10.5219 20.784 13.2657 20.784C16.0095 20.784 18.2775 19.1444 19.2658 16.8078C19.4458 16.3823 18.9058 16.0132 18.5734 16.335C16.6714 18.179 12.6312 20.8038 7.91377 16.2206Z" fill="#5E4939"/>
<path d="M22.4186 8.55964L17.1399 8.99737C17.0773 8.99737 17.0163 9.00042 16.9523 9.00652C16.905 9.01262 15.2044 9.21547 13.3101 9.32681C13.2659 9.32986 13.2201 9.32986 13.1759 9.32681C11.2816 9.21547 9.57948 9.01262 9.53068 9.00652C9.46967 9.00042 9.40866 8.99737 9.34613 8.99737L4.06743 8.55964C3.02877 8.53981 2.4553 9.05075 2.5102 9.95367C2.51173 9.98875 2.88388 12.0432 2.88388 12.0432C3.00437 12.7493 3.13553 13.3274 3.56716 13.9649C3.79137 14.2974 4.12539 14.546 4.48228 14.7291C4.66378 14.8221 4.85595 14.8938 5.05423 14.9411C5.22048 14.9807 5.40502 14.9792 5.58347 14.9883C5.74057 14.9975 5.99832 15.0097 6.15542 15.0097H7.36185C7.70044 15.0097 7.82246 15.0097 7.86211 15.0097C8.42033 15.0097 8.98771 14.8785 9.48645 14.6299C10.2704 14.2395 10.7249 13.5913 11.0498 12.8043C11.3579 12.0615 11.9725 11.4987 12.6268 11.0701C13.0005 10.8246 13.4825 10.8246 13.8561 11.0701C14.21 11.3019 14.5379 11.5749 14.8216 11.8876C15.0305 12.1179 15.1998 12.4077 15.3706 12.6731C15.5628 12.9736 15.6864 13.3304 15.8877 13.6355C16.089 13.9436 16.3132 14.1952 16.6228 14.4088C17.1414 14.7641 17.7698 14.9594 18.3936 15.0021C18.4698 15.0066 18.5461 15.0097 18.6224 15.0097H20.3291C20.4862 15.0097 20.7439 14.9975 20.901 14.9883C21.0795 14.9792 21.2625 14.9807 21.4302 14.9411C21.6285 14.8938 21.8207 14.8221 22.0022 14.7291C22.3591 14.546 22.6931 14.2959 22.9173 13.9649C23.3489 13.3274 23.4801 12.7478 23.6006 12.0432C23.6006 12.0432 23.9712 9.98875 23.9743 9.95367C24.0277 9.05075 23.4557 8.53981 22.417 8.55964H22.4186Z" fill="#2D292A"/>
<path d="M18.6238 15.0112H20.3305C20.4876 15.0112 20.7454 14.999 20.9025 14.9898C21.0809 14.9807 21.2639 14.9822 21.4317 14.9426C21.63 14.8953 21.8222 14.8236 22.0037 14.7305C22.3606 14.5475 22.6946 14.2974 22.9188 13.9664C23.3504 13.3289 23.4816 12.7493 23.6021 12.0447C23.6021 12.0447 23.9727 9.99024 23.9757 9.95516C23.9834 9.82857 23.9773 9.71113 23.9605 9.60132C21.5293 13.3655 18.5796 14.276 16.6853 14.453C17.1917 14.7824 17.7926 14.9654 18.3935 15.0051C18.4698 15.0097 18.546 15.0127 18.6223 15.0127L18.6238 15.0112Z" fill="#414042"/>
<path d="M4.48232 14.7305C4.66381 14.8235 4.85599 14.8952 5.05426 14.9425C5.22051 14.9821 5.40506 14.9806 5.58351 14.9898C5.7406 14.9989 5.99836 15.0111 6.15545 15.0111H7.36188C7.70048 15.0111 7.82249 15.0111 7.86215 15.0111C8.42037 15.0111 8.98774 14.88 9.48648 14.6313C10.2704 14.2409 10.7249 13.5927 11.0498 12.8057C11.213 12.4107 11.4647 12.069 11.7621 11.7686C8.2465 14.0991 5.31965 14.4651 4.10864 14.5048C4.22761 14.5886 4.35267 14.6634 4.48232 14.7305Z" fill="#414042"/>
</g>
<defs>
<clipPath id="clip0_673_69736">
<rect width="26" height="26" fill="white" transform="translate(0.242188 0.773926)"/>
</clipPath>
</defs>
</svg>
