<svg width="35" height="79" viewBox="0 0 35 79" fill="none" xmlns="http://www.w3.org/2000/svg">
<g clip-path="url(#clip0_1550_9352)">
<path d="M17.2518 35.6709C17.2518 36.4876 17.981 55.8688 12.6289 77.9626" stroke="#9A96BD" stroke-width="0.5" stroke-linecap="round" stroke-linejoin="round"/>
<path d="M35 17.5C35 32.8854 22.925 39.8271 17.5 39.8271C12.075 39.8271 0 31.8354 0 17.5C0 7.83125 7.83125 0 17.5 0C27.1688 0 35 7.83125 35 17.5Z" fill="#7C6FC6"/>
<path d="M16.8875 39.2437L15.3125 42.7582L18.9583 43.1228L18.0542 39.302L16.8875 39.2437Z" fill="#7C6FC6"/>
<path d="M25.2727 8.79364C25.2727 8.79364 28.6706 10.7332 29.5311 16.202L25.404 17.4124C25.404 17.4124 24.4269 14.1311 21.3936 11.6957L25.2873 8.77905L25.2727 8.79364Z" fill="white"/>
</g>
<defs>
<clipPath id="clip0_1550_9352">
<rect width="35" height="78.3271" fill="white"/>
</clipPath>
</defs>
</svg>
