<svg width="159" height="32" viewBox="0 0 159 32" fill="none" xmlns="http://www.w3.org/2000/svg">
<g clip-path="url(#clip0_461_99760)">
<path d="M75.1 23.75C76.9 23.65 78.8 23.45 80.5 23.25L80.9 26.85C77.2 27.35 72.6 27.65 69.3 27.65H65.8L65.6 23.95H69.7C70.1 23.95 70.6 23.95 71.1 23.95V21.15C68.3 20.55 66.3 18.35 66.3 14.55V14.25C66.3 9.55001 69.3 7.45001 73 7.45001C76.7 7.45001 79.7 9.55001 79.7 14.25V14.55C79.7 18.25 77.8 20.35 75.1 21.05V23.75ZM70.3 14.45C70.3 16.65 71.6 17.65 73 17.65C74.4 17.65 75.7 16.75 75.7 14.45V14.15C75.7 11.95 74.4 10.95 73 10.95C71.6 10.95 70.3 11.85 70.3 14.15V14.45ZM89 15.25V18.95H86V31.05H82V6.45001H86V15.25H89Z" fill="#0055A7"/>
<path d="M90.2 19.55V15.75C90.2 9.65001 93.2 7.35001 97 7.35001C100.7 7.35001 103.7 9.65001 103.7 15.75V19.55C103.7 25.65 100.7 27.95 97 27.95C93.2 27.95 90.2 25.65 90.2 19.55ZM99.7 19.55V15.75C99.7 12.05 98.4 11.05 97 11.05C95.6 11.05 94.2 12.05 94.2 15.75V19.55C94.2 23.25 95.5 24.25 97 24.25C98.5 24.25 99.7 23.25 99.7 19.55ZM106.7 6.45001H110.7V31.05H106.7V6.45001Z" fill="#0055A7"/>
<path d="M122.7 13.85V7.75001H126.6V27.25H114V7.75001H117.9V13.85H122.7ZM117.9 23.55H122.7V17.55H117.9V23.55ZM130.2 6.45001H134.2V31.05H130.2V6.45001Z" fill="#0055A7"/>
<path d="M147.4 14.75C146.9 17.65 144.8 19.15 142.2 19.15C139.1 19.15 136.8 17.15 136.8 13.05V12.75C136.8 8.65001 139.1 6.65001 142.2 6.65001C144.9 6.65001 146.9 8.15001 147.4 11.15H149.2V6.65001H152.8V19.65H149.2V14.75H147.4ZM140.5 13.05C140.5 14.75 141.3 15.65 142.2 15.65C143.1 15.65 143.9 14.75 143.9 13.05V12.85C143.9 11.15 143.1 10.25 142.2 10.25C141.3 10.25 140.5 11.15 140.5 12.85V13.05ZM141.1 20.85H158.1V31.05H141.1V20.85ZM145.1 27.35H154.1V24.35H145.1V27.35ZM154.4 6.45001H158.2V19.65H154.4V6.45001Z" fill="#0055A7"/>
<path d="M48.2 6.25V31.05H42.3V1.15C42.3 0.949997 42.7 0.849997 42.8 0.949997L48.2 6.25Z" fill="#0055A7"/>
<path d="M0 10.25V0.950012H5.9V15.25C5.9 15.45 5.6 15.55 5.4 15.35L0 10.25Z" fill="#E83844"/>
<path d="M14.4 25.75V0.950012H8.40002V30.75C8.40002 30.95 8.80002 31.05 9.00002 30.95L14.4 25.75Z" fill="#E83844"/>
<path d="M22.8 0.950012H16.9V31.05H22.8V0.950012Z" fill="#E83844"/>
<path d="M25.9 1.05003C25.7 0.850027 25.4 0.950027 25.4 1.15003V15.25C25.4 15.45 25.8 15.55 25.9 15.35L31.3 10.15V6.15003L25.9 1.05003Z" fill="#E83844"/>
<path d="M25.9 16.55C25.7 16.35 25.4 16.45 25.4 16.75V30.85C25.4 31.05 25.8 31.15 25.9 30.95L31.3 25.75V21.75L25.9 16.55Z" fill="#E83844"/>
<path d="M39.7 6.25V31.05H33.8V1.15C33.8 0.949997 34.1 0.849997 34.3 0.949997L39.7 6.25Z" fill="#0055A7"/>
<path d="M56.6 6.25V31.05H50.7V1.15C50.7 0.949997 51.1 0.849997 51.2 0.949997L56.6 6.25Z" fill="#0055A7"/>
</g>
<defs>
<clipPath id="clip0_461_99760">
<rect width="158.2" height="30.1" fill="white" transform="translate(0 0.950012)"/>
</clipPath>
</defs>
</svg>
