<svg width="36" height="36" viewBox="0 0 36 36" fill="none" xmlns="http://www.w3.org/2000/svg">
<g clip-path="url(#clip0_725_99)">
<rect width="36" height="36" rx="10" fill="#EFD925"/>
<path d="M17.9906 7.54761C12.4675 7.54761 8 11.6946 8 16.8219C8 19.8567 9.56456 22.5335 11.9774 24.23V28.3016C11.9774 28.3582 12.0151 28.4147 12.0528 28.4336C12.0716 28.4524 12.0905 28.4524 12.1282 28.4524C12.1659 28.4524 12.1847 28.4336 12.2224 28.4147L15.804 25.8699C16.5203 26.0207 17.2554 26.0961 18.0094 26.0961C23.5325 26.0961 28 21.9491 28 16.8219C27.9811 11.7135 23.5137 7.54761 17.9906 7.54761Z" fill="#010100"/>
<path d="M24.2299 15.7663C23.8906 15.3893 23.3816 15.2196 22.7407 15.2196C22.3826 15.2196 22.0433 15.295 21.7605 15.4647C21.5532 15.5778 21.3647 15.7286 21.195 15.8794V12.8445H19.7812V20.7992H21.195V17.8398C21.195 17.5947 21.2327 17.3685 21.2893 17.18C21.3647 16.9915 21.4401 16.8219 21.5532 16.6899C21.6663 16.558 21.7982 16.4637 21.949 16.3883C22.0998 16.3129 22.2506 16.2752 22.4203 16.2752C22.703 16.2752 22.9292 16.3506 23.0989 16.5014C23.2497 16.6522 23.3251 16.9538 23.3251 17.3497V20.7992H24.72V17.4062C24.7388 16.6899 24.5692 16.1244 24.2299 15.7663Z" fill="#F1D825"/>
<path d="M15.0122 14.5033C15.9924 14.5033 16.8407 15.1442 17.18 16.049H18.688C18.311 14.3148 16.803 13.0142 15.0122 13.0142C12.9387 13.0142 11.2422 14.7672 11.2422 16.9161C11.2422 19.0651 12.9198 20.8181 15.0122 20.8181C16.803 20.8181 18.2921 19.5175 18.688 17.7832H17.18C16.8407 18.6881 16.0113 19.329 15.0122 19.329C13.7304 19.329 12.6936 18.2545 12.6936 16.9161C12.6936 15.5778 13.7304 14.5033 15.0122 14.5033Z" fill="#F1D825"/>
</g>
<defs>
<clipPath id="clip0_725_99">
<rect width="36" height="36" fill="white"/>
</clipPath>
</defs>
</svg>
