<svg width="36" height="36" viewBox="0 0 36 36" fill="none" xmlns="http://www.w3.org/2000/svg">
<g clip-path="url(#clip0_725_76)">
<rect width="36" height="36" rx="10" fill="url(#paint0_linear_725_76)"/>
<path fill-rule="evenodd" clip-rule="evenodd" d="M21.993 28C25.3048 28 28 25.3048 28 21.993V14.007C28 10.6952 25.3048 8 21.993 8H14.007C10.6952 8 8 10.6952 8 14.007V21.993C8 25.3048 10.6952 28 14.007 28H21.993ZM15.7446 15.8927C16.3092 15.2888 17.1129 14.9113 18.0049 14.9113C19.7134 14.9113 21.0985 16.2964 21.0985 18.005C21.0985 19.7135 19.7134 21.0986 18.0049 21.0986C17.1123 21.0986 16.3081 20.7206 15.7434 20.1159C15.2272 19.5632 14.9113 18.821 14.9113 18.005C14.9113 17.1883 15.2277 16.4456 15.7446 15.8927ZM14.007 9.87966H21.993C24.2705 9.87966 26.1203 11.7295 26.1203 14.007V21.993C26.1203 24.2705 24.2705 26.1203 21.993 26.1203H14.007C11.7295 26.1203 9.87966 24.2705 9.87966 21.993V14.007C9.87966 11.7295 11.7295 9.87966 14.007 9.87966ZM13.1616 18.005C13.1616 20.72 15.3695 22.9279 18.0845 22.9279C20.7996 22.9279 23.0075 20.72 23.0075 18.005C23.0075 15.2899 20.7996 13.082 18.0845 13.082C15.3695 13.082 13.1616 15.2899 13.1616 18.005ZM22.1223 12.7439C22.1223 13.3904 22.6494 13.9175 23.2959 13.9175C23.9423 13.9175 24.4694 13.3904 24.4694 12.7439C24.4694 12.0975 23.9423 11.5704 23.2959 11.5704C22.6494 11.5704 22.1223 12.0975 22.1223 12.7439Z" fill="white"/>
</g>
<defs>
<linearGradient id="paint0_linear_725_76" x1="5.27306" y1="5.27306" x2="30.7269" y2="30.7269" gradientUnits="userSpaceOnUse">
<stop stop-color="#FFE185"/>
<stop offset="0.21" stop-color="#FFBB36"/>
<stop offset="0.38" stop-color="#FF5176"/>
<stop offset="0.52" stop-color="#F63395"/>
<stop offset="0.74" stop-color="#A436D2"/>
<stop offset="1" stop-color="#5F4EED"/>
</linearGradient>
<clipPath id="clip0_725_76">
<rect width="36" height="36" fill="white"/>
</clipPath>
</defs>
</svg>
