<svg width="223" height="191" viewBox="0 0 223 191" fill="none" xmlns="http://www.w3.org/2000/svg">
<rect x="1.24219" y="0.59375" width="190" height="190" rx="95" fill="black" fill-opacity="0.2"/>
<g filter="url(#filter0_di_673_69752)">
<rect x="1.24219" y="49.5718" width="189.838" height="107.203" rx="12" fill="#00C53A"/>
</g>
<path d="M130.974 95.3562L126.463 108.377C125.502 111.012 124.207 112.777 121.616 112.777C120.991 112.777 120.499 112.687 120.075 112.531L120.566 110.521C120.79 110.588 121.147 110.7 121.46 110.7C122.8 110.7 123.581 109.717 124.028 108.399L124.274 107.551L119.405 95.3562H122.04L124.318 101.677C124.676 102.771 125.056 103.999 125.435 105.138H125.547L126.507 101.677L128.473 95.3562H130.974Z" fill="white"/>
<path d="M111.115 107.931C108.993 107.931 107.497 106.546 107.497 104.38C107.497 101.744 109.73 100.382 114.845 99.8234C114.822 98.394 114.309 97.1433 112.5 97.1433C111.204 97.1433 109.998 97.724 108.949 98.394L107.988 96.652C109.261 95.848 110.981 95.0439 112.946 95.0439C116.006 95.0439 117.413 96.987 117.413 100.248V107.64H115.314L115.09 106.233H115.023C113.907 107.194 112.589 107.931 111.115 107.931ZM111.897 105.898C112.969 105.898 113.84 105.385 114.845 104.469V101.454C111.204 101.9 109.976 102.816 109.976 104.201C109.976 105.407 110.802 105.898 111.897 105.898Z" fill="white"/>
<path d="M94.9773 107.64V91.2024H99.9578C103.621 91.2024 106.234 92.4531 106.234 96.1605C106.234 99.7563 103.621 101.409 100.047 101.409H97.568V107.64H94.9773ZM97.568 99.3319H99.8014C102.437 99.3319 103.688 98.3269 103.688 96.1605C103.688 93.9941 102.325 93.2794 99.7121 93.2794H97.568V99.3319Z" fill="white"/>
<rect x="61.5159" y="86.7666" width="25.3118" height="25.3118" fill="white"/>
<g clip-path="url(#clip0_673_69752)">
<path d="M76.5517 99.5378L71.5915 92.4043H67.4714V105.738H71.7916V98.6045L76.7517 105.738H80.8718V92.4043H76.5517V99.5378Z" fill="#03CF5D"/>
</g>
<path d="M173.048 138.772H175.823V130.188H177.941V141.387H175.823V140.216H173.048V138.772ZM170.208 132.226C169.213 132.226 168.523 132.611 168.523 133.333C168.523 134.055 169.213 134.424 170.208 134.424C171.186 134.424 171.876 134.055 171.876 133.333C171.876 132.611 171.186 132.226 170.208 132.226ZM170.208 135.964C168.042 135.964 166.518 134.905 166.518 133.333C166.518 131.76 168.042 130.685 170.208 130.685C172.358 130.685 173.882 131.76 173.882 133.333C173.882 134.905 172.358 135.964 170.208 135.964ZM169.422 143.023H178.262V144.708H167.304V140.312H169.357V138.338C168.058 138.403 166.822 138.419 165.715 138.419L165.443 136.734C168.138 136.718 171.732 136.686 174.845 136.285L174.989 137.793C173.834 138.002 172.646 138.13 171.459 138.21V141.002H169.422V143.023Z" fill="white"/>
<path d="M164.006 136.363V138.489C164.006 139.411 163.908 140.207 163.711 140.876C163.514 141.54 163.23 142.086 162.859 142.513C162.493 142.935 162.058 143.247 161.551 143.45C161.045 143.652 160.483 143.753 159.864 143.753C159.369 143.753 158.908 143.692 158.48 143.568C158.053 143.438 157.668 143.239 157.325 142.969C156.987 142.699 156.695 142.359 156.447 141.948C156.205 141.532 156.02 141.037 155.89 140.463C155.761 139.889 155.696 139.231 155.696 138.489V136.363C155.696 135.44 155.795 134.65 155.992 133.992C156.194 133.328 156.478 132.786 156.844 132.364C157.215 131.942 157.654 131.633 158.16 131.436C158.666 131.233 159.228 131.132 159.847 131.132C160.342 131.132 160.801 131.197 161.222 131.326C161.65 131.45 162.035 131.644 162.378 131.908C162.721 132.173 163.014 132.513 163.256 132.929C163.497 133.34 163.683 133.832 163.812 134.406C163.942 134.974 164.006 135.626 164.006 136.363ZM161.568 138.809V136.034C161.568 135.589 161.543 135.201 161.492 134.87C161.447 134.538 161.377 134.256 161.281 134.026C161.186 133.79 161.068 133.598 160.927 133.452C160.786 133.306 160.626 133.199 160.446 133.132C160.266 133.064 160.067 133.03 159.847 133.03C159.572 133.03 159.327 133.084 159.113 133.191C158.905 133.298 158.728 133.469 158.582 133.705C158.435 133.936 158.323 134.245 158.244 134.633C158.171 135.016 158.135 135.483 158.135 136.034V138.809C158.135 139.254 158.157 139.645 158.202 139.982C158.253 140.32 158.326 140.609 158.421 140.851C158.523 141.087 158.641 141.281 158.776 141.433C158.916 141.58 159.077 141.686 159.257 141.754C159.442 141.821 159.645 141.855 159.864 141.855C160.134 141.855 160.373 141.802 160.581 141.695C160.795 141.582 160.975 141.408 161.121 141.172C161.273 140.93 161.385 140.615 161.459 140.227C161.532 139.839 161.568 139.366 161.568 138.809Z" fill="white"/>
<path d="M154.085 136.363V138.489C154.085 139.411 153.987 140.207 153.79 140.876C153.593 141.54 153.309 142.086 152.938 142.513C152.572 142.935 152.136 143.247 151.63 143.45C151.124 143.652 150.561 143.753 149.943 143.753C149.448 143.753 148.986 143.692 148.559 143.568C148.132 143.438 147.746 143.239 147.403 142.969C147.066 142.699 146.773 142.359 146.526 141.948C146.284 141.532 146.098 141.037 145.969 140.463C145.84 139.889 145.775 139.231 145.775 138.489V136.363C145.775 135.44 145.873 134.65 146.07 133.992C146.273 133.328 146.557 132.786 146.922 132.364C147.294 131.942 147.732 131.633 148.238 131.436C148.745 131.233 149.307 131.132 149.926 131.132C150.421 131.132 150.879 131.197 151.301 131.326C151.728 131.45 152.114 131.644 152.457 131.908C152.8 132.173 153.092 132.513 153.334 132.929C153.576 133.34 153.762 133.832 153.891 134.406C154.02 134.974 154.085 135.626 154.085 136.363ZM151.647 138.809V136.034C151.647 135.589 151.622 135.201 151.571 134.87C151.526 134.538 151.456 134.256 151.36 134.026C151.264 133.79 151.146 133.598 151.006 133.452C150.865 133.306 150.705 133.199 150.525 133.132C150.345 133.064 150.145 133.03 149.926 133.03C149.65 133.03 149.406 133.084 149.192 133.191C148.984 133.298 148.806 133.469 148.66 133.705C148.514 133.936 148.402 134.245 148.323 134.633C148.25 135.016 148.213 135.483 148.213 136.034V138.809C148.213 139.254 148.236 139.645 148.281 139.982C148.331 140.32 148.404 140.609 148.5 140.851C148.601 141.087 148.719 141.281 148.854 141.433C148.995 141.58 149.155 141.686 149.335 141.754C149.521 141.821 149.723 141.855 149.943 141.855C150.213 141.855 150.452 141.802 150.66 141.695C150.873 141.582 151.053 141.408 151.2 141.172C151.352 140.93 151.464 140.615 151.537 140.227C151.61 139.839 151.647 139.366 151.647 138.809Z" fill="white"/>
<path d="M144.163 136.363V138.489C144.163 139.411 144.065 140.207 143.868 140.876C143.671 141.54 143.387 142.086 143.016 142.513C142.65 142.935 142.215 143.247 141.708 143.45C141.202 143.652 140.64 143.753 140.021 143.753C139.526 143.753 139.065 143.692 138.637 143.568C138.21 143.438 137.825 143.239 137.482 142.969C137.144 142.699 136.852 142.359 136.604 141.948C136.362 141.532 136.177 141.037 136.047 140.463C135.918 139.889 135.853 139.231 135.853 138.489V136.363C135.853 135.44 135.952 134.65 136.149 133.992C136.351 133.328 136.635 132.786 137.001 132.364C137.372 131.942 137.811 131.633 138.317 131.436C138.823 131.233 139.385 131.132 140.004 131.132C140.499 131.132 140.957 131.197 141.379 131.326C141.807 131.45 142.192 131.644 142.535 131.908C142.878 132.173 143.171 132.513 143.413 132.929C143.654 133.34 143.84 133.832 143.969 134.406C144.099 134.974 144.163 135.626 144.163 136.363ZM141.725 138.809V136.034C141.725 135.589 141.7 135.201 141.649 134.87C141.604 134.538 141.534 134.256 141.438 134.026C141.343 133.79 141.225 133.598 141.084 133.452C140.943 133.306 140.783 133.199 140.603 133.132C140.423 133.064 140.223 133.03 140.004 133.03C139.729 133.03 139.484 133.084 139.27 133.191C139.062 133.298 138.885 133.469 138.739 133.705C138.592 133.936 138.48 134.245 138.401 134.633C138.328 135.016 138.291 135.483 138.291 136.034V138.809C138.291 139.254 138.314 139.645 138.359 139.982C138.41 140.32 138.483 140.609 138.578 140.851C138.68 141.087 138.798 141.281 138.933 141.433C139.073 141.58 139.234 141.686 139.414 141.754C139.599 141.821 139.802 141.855 140.021 141.855C140.291 141.855 140.53 141.802 140.738 141.695C140.952 141.582 141.132 141.408 141.278 141.172C141.43 140.93 141.542 140.615 141.616 140.227C141.689 139.839 141.725 139.366 141.725 138.809Z" fill="white"/>
<path d="M134.048 141.535L134.04 143.163C134.04 143.787 133.882 144.417 133.567 145.053C133.258 145.688 132.864 146.209 132.386 146.614L131.121 145.964C131.261 145.705 131.399 145.446 131.534 145.188C131.669 144.929 131.782 144.645 131.872 144.336C131.962 144.026 132.007 143.675 132.007 143.281V141.535H134.048Z" fill="white"/>
<path d="M124.009 137.991L122.068 137.527L122.768 131.301H129.67V133.267H124.768L124.464 135.992C124.627 135.896 124.875 135.795 125.207 135.688C125.538 135.576 125.91 135.519 126.32 135.519C126.916 135.519 127.445 135.612 127.906 135.798C128.368 135.983 128.758 136.253 129.079 136.608C129.405 136.962 129.653 137.395 129.821 137.907C129.99 138.419 130.075 138.998 130.075 139.645C130.075 140.191 129.99 140.711 129.821 141.206C129.653 141.695 129.397 142.134 129.054 142.522C128.711 142.904 128.28 143.205 127.763 143.425C127.245 143.644 126.632 143.754 125.924 143.754C125.395 143.754 124.883 143.675 124.388 143.517C123.899 143.36 123.457 143.126 123.064 142.817C122.676 142.508 122.363 142.134 122.127 141.695C121.897 141.251 121.776 140.745 121.764 140.176H124.177C124.211 140.525 124.301 140.826 124.447 141.079C124.599 141.327 124.799 141.518 125.046 141.653C125.294 141.788 125.583 141.855 125.915 141.855C126.225 141.855 126.489 141.796 126.708 141.678C126.928 141.56 127.105 141.397 127.24 141.189C127.375 140.975 127.473 140.728 127.535 140.446C127.603 140.16 127.636 139.85 127.636 139.518C127.636 139.187 127.597 138.886 127.518 138.616C127.44 138.346 127.319 138.112 127.155 137.915C126.992 137.719 126.784 137.567 126.531 137.46C126.284 137.353 125.994 137.3 125.662 137.3C125.212 137.3 124.863 137.37 124.616 137.51C124.374 137.651 124.172 137.811 124.009 137.991Z" fill="white"/>
<path d="M46.123 139.412V140.229H45.1795V141.473H46.0754V142.258H43.9188V142.932H46.7097V143.725H40.1289V142.932H42.9039V142.258H40.7553V141.473H41.6433V140.229H40.7077V139.412H46.123ZM45.9644 145.43V146.238H40.9218V144.193H41.9366V145.43H45.9644ZM42.6581 141.473H44.1646V140.229H42.6581V141.473Z" fill="white"/>
<path d="M39.2884 139.555V140.205C39.2804 140.954 39.2804 141.787 39.0426 142.956H40.0178V143.773H37.2348V146.35H36.22V143.773H33.437V142.956H38.0515C38.1387 142.572 38.1982 142.219 38.2338 141.894L34.0951 142.1L33.9762 141.236L38.3052 141.117C38.3131 140.847 38.3171 140.597 38.3211 140.355H34.2061V139.555H39.2884Z" fill="white"/>
<path d="M31.0813 142.877V143.678H25.9753V139.682H31.0258V140.498H27.006V141.259H30.8593V142.052H27.006V142.877H31.0813ZM31.8028 144.7V145.525H25.1982V144.7H31.8028Z" fill="white"/>
<path d="M24.5478 139.158V144.344H23.533V139.158H24.5478ZM24.7381 145.43V146.239H19.7113V143.82H20.7341V145.43H24.7381ZM20.5914 139.618C21.7014 139.618 22.5657 140.379 22.5657 141.434C22.5657 142.512 21.7014 143.265 20.5914 143.265C19.4814 143.265 18.6172 142.512 18.6172 141.434C18.6172 140.379 19.4814 139.618 20.5914 139.618ZM20.5914 140.498C20.0285 140.49 19.6003 140.847 19.6083 141.434C19.6003 142.037 20.0285 142.385 20.5914 142.385C21.1385 142.385 21.5666 142.037 21.5666 141.434C21.5666 140.847 21.1385 140.49 20.5914 140.498Z" fill="white"/>
<path d="M18.4185 144.716V145.565H11.814V144.716H14.589V143.416H12.361V142.623H13.3283V140.562H12.3293V139.753H17.8635V140.562H16.8487V142.623H17.8318V143.416H15.5959V144.716H18.4185ZM14.3432 142.623H15.8497V140.562H14.3432V142.623Z" fill="white"/>
<path d="M45.9231 130.451V137.682H44.9003V130.451H45.9231ZM42.0063 130.959C43.0925 130.959 43.9013 131.958 43.9013 133.528C43.9013 135.113 43.0925 136.105 42.0063 136.105C40.8963 136.105 40.0876 135.113 40.0955 133.528C40.0876 131.958 40.8963 130.959 42.0063 130.959ZM42.0063 131.871C41.4434 131.871 41.0707 132.457 41.0707 133.528C41.0707 134.606 41.4434 135.185 42.0063 135.185C42.5534 135.185 42.926 134.606 42.926 133.528C42.926 132.457 42.5534 131.871 42.0063 131.871Z" fill="white"/>
<path d="M39.1759 130.451V137.666H38.2007V130.451H39.1759ZM37.717 130.594V137.326H36.7577V133.98H36.0599V133.076H36.7577V130.594H37.717ZM36.2264 131.268V132.085H35.7666V135.082C35.9688 135.066 36.163 135.046 36.3454 135.018L36.4167 135.748C35.275 135.994 33.8003 136.017 32.8964 136.017L32.7854 135.185H33.388V132.085H32.9202V131.268H36.2264ZM34.2839 135.169L34.8469 135.145V132.085H34.2839V135.169Z" fill="white"/>
<path d="M31.9368 130.451V137.682H30.9378V133.813H29.5979V135.97H26.1172V131.006H27.1241V132.759H28.6068V131.006H29.5979V132.997H30.9378V130.451H31.9368ZM27.1241 135.161H28.6068V133.552H27.1241V135.161Z" fill="white"/>
<path d="M24.8728 130.451V137.682H23.85V130.451H24.8728ZM20.956 130.959C22.0423 130.959 22.851 131.958 22.851 133.528C22.851 135.113 22.0423 136.105 20.956 136.105C19.846 136.105 19.0373 135.113 19.0452 133.528C19.0373 131.958 19.846 130.959 20.956 130.959ZM20.956 131.871C20.3931 131.871 20.0204 132.457 20.0204 133.528C20.0204 134.606 20.3931 135.185 20.956 135.185C21.5031 135.185 21.8758 134.606 21.8758 133.528C21.8758 132.457 21.5031 131.871 20.956 131.871Z" fill="white"/>
<path d="M13.1067 131.141V135.074C13.7687 135.062 14.3792 135.014 15.0571 134.868L15.1919 135.716C14.3039 135.906 13.5269 135.938 12.5992 135.938H12.0918V131.141H13.1067ZM18.07 130.451V137.666H17.1186V130.451H18.07ZM16.5239 130.586V137.349H15.5645V133.552H14.1215V132.735H15.5645V130.586H16.5239Z" fill="white"/>
<g filter="url(#filter1_d_673_69752)">
<ellipse cx="178.79" cy="58.3424" rx="32.452" ry="32.452" fill="#FEC000"/>
<path d="M178.79 93.2944C198.094 93.2944 213.742 77.6459 213.742 58.3424C213.742 39.0389 198.094 23.3904 178.79 23.3904C159.487 23.3904 143.838 39.0389 143.838 58.3424C143.838 77.6459 159.487 93.2944 178.79 93.2944Z" stroke="white" stroke-width="5"/>
</g>
<path d="M202.525 61.5535V68.582H200.851V67.0524H198.609V67.9227H192.912V62.437H198.609V63.3073H200.851V61.5535H202.525ZM194.587 63.7689V66.5908H196.96V63.7689H194.587ZM198.424 68.8985C200.982 68.8985 202.552 69.7557 202.565 71.2326C202.552 72.7095 200.982 73.5535 198.424 73.5535C195.866 73.5535 194.297 72.7095 194.297 71.2326C194.297 69.7557 195.866 68.8985 198.424 68.8985ZM198.424 70.1776C196.829 70.1776 195.971 70.5205 195.971 71.2326C195.971 71.9183 196.829 72.2743 198.424 72.2743C200.02 72.2743 200.89 71.9183 200.89 71.2326C200.89 70.5205 200.02 70.1776 198.424 70.1776ZM198.609 65.6941H200.851V64.6392H198.609V65.6941Z" fill="#000543"/>
<path d="M185.109 73.8733C181.761 73.8733 179.727 71.3763 179.727 66.9928C179.727 62.6093 181.761 60.1123 185.109 60.1123C188.457 60.1123 190.491 62.6278 190.491 66.9928C190.491 71.3948 188.457 73.8733 185.109 73.8733ZM185.109 71.5798C186.663 71.5798 187.662 70.0816 187.643 66.9928C187.643 63.941 186.663 62.3873 185.109 62.3873C183.555 62.3873 182.575 63.941 182.575 66.9928C182.557 70.0816 183.555 71.5798 185.109 71.5798Z" fill="#000543"/>
<path d="M172.606 73.8733C169.258 73.8733 167.223 71.3763 167.223 66.9928C167.223 62.6093 169.258 60.1123 172.606 60.1123C175.953 60.1123 177.988 62.6278 177.988 66.9928C177.988 71.3948 175.953 73.8733 172.606 73.8733ZM172.606 71.5798C174.159 71.5798 175.158 70.0816 175.14 66.9928C175.14 63.941 174.159 62.3873 172.606 62.3873C171.052 62.3873 170.072 63.941 170.072 66.9928C170.053 70.0816 171.052 71.5798 172.606 71.5798Z" fill="#000543"/>
<path d="M160.416 73.8733C157.642 73.8548 155.015 72.2086 155.015 67.3072C155.015 62.7942 157.179 60.1123 160.527 60.1123C163.228 60.1123 165.059 61.8139 165.336 64.0149H162.599C162.377 63.0717 161.6 62.4983 160.527 62.4983C158.715 62.4983 157.753 64.1444 157.734 66.7708H157.864C158.474 65.5871 159.806 64.8843 161.286 64.8843C163.69 64.8843 165.484 66.6969 165.484 69.2123C165.484 71.9312 163.431 73.8918 160.416 73.8733ZM160.398 71.6723C161.766 71.6723 162.784 70.6365 162.784 69.2863C162.784 67.9546 161.803 66.9003 160.435 66.9003C159.066 66.9003 158.03 67.9731 158.012 69.2863C158.03 70.5995 159.029 71.6723 160.398 71.6723Z" fill="#000543"/>
<path d="M185.879 45.6735C185.879 47.0466 186.877 48.3909 188.99 48.9401L188.165 50.3711C186.646 49.9736 185.59 49.1353 184.982 48.0584C184.403 49.2365 183.354 50.1543 181.798 50.6024L180.93 49.1714C183.057 48.5932 184.041 47.1478 184.041 45.6735V45.6301H181.393V44.1847H184.041V42.8115H185.908V44.1847H188.542V45.6301H185.879V45.6735ZM192.13 42.8693V50.5735H190.292V47.8127H188.209V46.3239H190.292V42.8693H192.13ZM192.13 51.1372V55.8782H183.274V51.1372H192.13ZM185.127 52.6115V54.4039H190.321V52.6115H185.127Z" fill="#000543"/>
<path d="M179.997 51.1808V52.7808H174.837V56.8115H172.995V52.7808H167.864V51.1808H179.997ZM178.886 44.4115V45.95H174.895C175.107 47.1808 176.605 48.5654 179.354 48.8884L178.681 50.4269C176.43 50.1577 174.8 49.1884 173.93 47.9038C173.068 49.2038 171.423 50.1577 169.15 50.4269L168.478 48.8884C171.226 48.5654 172.739 47.1884 172.965 45.95H168.96V44.4115H172.995V42.8115H174.837V44.4115H178.886Z" fill="#000543"/>
<defs>
<filter id="filter0_di_673_69752" x="0.242188" y="49.5718" width="191.838" height="111.203" filterUnits="userSpaceOnUse" color-interpolation-filters="sRGB">
<feFlood flood-opacity="0" result="BackgroundImageFix"/>
<feColorMatrix in="SourceAlpha" type="matrix" values="0 0 0 0 0 0 0 0 0 0 0 0 0 0 0 0 0 0 127 0" result="hardAlpha"/>
<feMorphology radius="1" operator="erode" in="SourceAlpha" result="effect1_dropShadow_673_69752"/>
<feOffset dy="3"/>
<feGaussianBlur stdDeviation="1"/>
<feComposite in2="hardAlpha" operator="out"/>
<feColorMatrix type="matrix" values="0 0 0 0 0 0 0 0 0 0.505882 0 0 0 0 0.0823529 0 0 0 1 0"/>
<feBlend mode="normal" in2="BackgroundImageFix" result="effect1_dropShadow_673_69752"/>
<feBlend mode="normal" in="SourceGraphic" in2="effect1_dropShadow_673_69752" result="shape"/>
<feColorMatrix in="SourceAlpha" type="matrix" values="0 0 0 0 0 0 0 0 0 0 0 0 0 0 0 0 0 0 127 0" result="hardAlpha"/>
<feOffset dy="1"/>
<feGaussianBlur stdDeviation="2"/>
<feComposite in2="hardAlpha" operator="arithmetic" k2="-1" k3="1"/>
<feColorMatrix type="matrix" values="0 0 0 0 1 0 0 0 0 1 0 0 0 0 1 0 0 0 0.6 0"/>
<feBlend mode="normal" in2="shape" result="effect2_innerShadow_673_69752"/>
</filter>
<filter id="filter1_d_673_69752" x="127.338" y="14.8904" width="94.9041" height="94.9041" filterUnits="userSpaceOnUse" color-interpolation-filters="sRGB">
<feFlood flood-opacity="0" result="BackgroundImageFix"/>
<feColorMatrix in="SourceAlpha" type="matrix" values="0 0 0 0 0 0 0 0 0 0 0 0 0 0 0 0 0 0 127 0" result="hardAlpha"/>
<feOffset dx="-4" dy="4"/>
<feGaussianBlur stdDeviation="5"/>
<feComposite in2="hardAlpha" operator="out"/>
<feColorMatrix type="matrix" values="0 0 0 0 0 0 0 0 0 0 0 0 0 0 0 0 0 0 0.15 0"/>
<feBlend mode="normal" in2="BackgroundImageFix" result="effect1_dropShadow_673_69752"/>
<feBlend mode="normal" in="SourceGraphic" in2="effect1_dropShadow_673_69752" result="shape"/>
</filter>
<clipPath id="clip0_673_69752">
<rect width="13.4004" height="13.3337" fill="white" transform="translate(67.4714 92.7554)"/>
</clipPath>
</defs>
</svg>
