<svg width="16" height="16" viewBox="0 0 16 16" fill="none" xmlns="http://www.w3.org/2000/svg">
<path d="M15.5181 13.4057L10.1314 8.01892L15.5146 2.63571C15.7881 2.34777 15.9384 1.96436 15.9333 1.56722C15.9282 1.17009 15.7682 0.790651 15.4874 0.509812C15.2065 0.228972 14.8271 0.0689484 14.4299 0.0638601C14.0328 0.0587719 13.6494 0.209021 13.3615 0.482572L7.97825 5.86578L2.59434 0.481865C2.30639 0.208313 1.92298 0.0580651 1.52585 0.0631534C1.12871 0.0682416 0.749274 0.228265 0.468435 0.509104C0.187595 0.789944 0.0275715 1.16938 0.0224833 1.56652C0.017395 1.96365 0.167644 2.34706 0.441195 2.635L5.8244 8.01821L0.436953 13.4057C0.163401 13.6936 0.0131524 14.077 0.0182411 14.4741C0.0233297 14.8713 0.183352 15.2507 0.464192 15.5316C0.745031 15.8124 1.12447 15.9724 1.5216 15.9775C1.91874 15.9826 2.30215 15.8323 2.59009 15.5588L7.97683 10.1721L13.3643 15.5595C13.6522 15.8331 14.0356 15.9833 14.4328 15.9782C14.8299 15.9731 15.2093 15.8131 15.4902 15.5323C15.771 15.2514 15.931 14.872 15.9361 14.4749C15.9412 14.0777 15.791 13.6943 15.5174 13.4064L15.5181 13.4057Z" fill="white"/>
</svg>
