<svg width="12" height="21" viewBox="0 0 12 21" fill="none" xmlns="http://www.w3.org/2000/svg">
<path fill-rule="evenodd" clip-rule="evenodd" d="M1.7129 20.7785C1.37407 20.7782 1.04289 20.6767 0.761213 20.4867C0.479554 20.2967 0.26005 20.0267 0.130417 19.711C0.000783867 19.3952 -0.0331663 19.0478 0.03286 18.7126C0.0988894 18.3774 0.261944 18.0695 0.50139 17.8277L4.1816 14.1161L7.86182 10.4045L0.4972 2.9785C0.179814 2.65355 0.0026225 2.21527 0.00419275 1.75914C0.00576294 1.30305 0.185955 0.866008 0.505595 0.543264C0.825225 0.220529 1.25835 0.0382727 1.71061 0.0361515C2.16286 0.0340304 2.59764 0.212221 2.92023 0.531938L2.92556 0.537217L11.4972 9.18194C11.6564 9.34245 11.7831 9.53337 11.8693 9.74311C11.9556 9.95298 12 10.178 12 10.4052C12 10.6324 11.9556 10.8574 11.8693 11.0673C11.7831 11.2771 11.6567 11.4677 11.4975 11.6281L2.92553 20.2732C2.60386 20.5965 2.16702 20.7789 1.7129 20.7785Z" fill="white"/>
</svg>
