<svg width="45" height="45" viewBox="0 0 45 45" fill="none" xmlns="http://www.w3.org/2000/svg">
<rect x="0.5" y="0.5" width="44" height="44" rx="22" stroke="white"/>
<path d="M32.6985 15.9289L25.6274 23L32.6985 30.0711C33.4763 30.8489 33.4763 32.1217 32.6985 32.8995C31.9207 33.6773 30.6479 33.6773 29.8701 32.8995L22.799 25.8284L15.7279 32.8995C14.9501 33.6773 13.6773 33.6773 12.8995 32.8995C12.1217 32.1217 12.1217 30.8489 12.8995 30.0711L19.9706 23L12.8995 15.9289C12.1217 15.1511 12.1217 13.8783 12.8995 13.1005C13.6773 12.3227 14.9501 12.3227 15.7279 13.1005L22.799 20.1716L29.8701 13.1005C30.6479 12.3227 31.9207 12.3227 32.6985 13.1005C33.4763 13.8783 33.4763 15.1511 32.6985 15.9289Z" fill="white"/>
</svg>
