<svg width="432" height="282" viewBox="0 0 432 282" fill="none" xmlns="http://www.w3.org/2000/svg">
<path d="M21.238 103.436C140.714 113.678 219.038 187.033 219.038 187.033L161.454 204.749C161.454 204.749 72.4329 124.693 21.238 103.436Z" fill="#D6DFEE"/>
<path d="M143.383 197.262C143.383 197.262 140.635 135.785 44.019 87.535C67.4539 90.028 161.062 106.433 194.332 153.689C227.357 200.599 143.383 197.262 143.383 197.262Z" fill="#F7FAFF"/>
<path d="M144.147 23.485C144.147 23.485 143.189 22.616 142.285 24.1411L144.076 26.0919L144.147 23.485Z" fill="#FFD5D9"/>
<path d="M137.142 49.6605L137.674 42.1235L138.472 32.21C140.423 30.5962 149.006 31.7489 149.006 31.7489L149.432 37.1933C149.024 44.6772 145.708 45.0674 145.708 45.0674L145.513 49.6605H137.16H137.142Z" fill="#FFD5D9"/>
<path d="M145.14 45.5993C145.14 45.5993 148.829 44.5175 150.372 41.7155C151.914 38.9135 155.781 37.5302 156.454 36.5194C157.111 35.5085 150.584 35.4908 148.669 38.9667C146.736 42.4426 144.466 44.6239 145.14 45.5993Z" fill="#FFD5D9"/>
<path d="M136.646 41.8752L150.993 41.5028L158.281 77.397C158.281 77.397 158.264 77.397 158.228 77.4147C158.264 77.5566 158.317 77.6808 158.335 77.8227C162.644 78.7271 173.001 80.9793 177.718 82.5577C178.605 82.7173 179.474 82.9833 180.343 83.3734C185.982 85.9449 188.465 92.5953 185.894 98.2348C184.706 100.842 182.648 102.757 180.236 103.821C180.166 103.998 180.059 104.087 179.953 104.105C179.953 104.105 179.261 104.389 177.86 104.584C176.743 104.814 175.572 104.867 174.42 104.726C168.248 104.513 156.916 101.835 140.281 89.1903C140.281 89.1903 140.281 89.1726 140.299 89.1371C137.461 86.7784 135.954 83.1607 136.309 79.4719C135.918 74.7369 134.5 55.4951 136.646 41.8752Z" fill="#494949"/>
<g style="mix-blend-mode:multiply" opacity="0.46">
<path d="M136.646 41.8752L150.993 41.5028L158.281 77.397C158.281 77.397 158.264 77.397 158.228 77.4147C158.264 77.5566 158.317 77.6808 158.335 77.8227C162.644 78.7271 173.001 80.9793 177.718 82.5577C178.605 82.7173 179.474 82.9833 180.343 83.3734C185.982 85.9449 188.465 92.5953 185.894 98.2348C184.706 100.842 182.648 102.757 180.236 103.821C180.166 103.998 180.059 104.087 179.953 104.105C179.953 104.105 179.261 104.389 177.86 104.584C176.743 104.814 175.572 104.867 174.42 104.726C168.248 104.513 156.916 101.835 140.281 89.1903C140.281 89.1903 140.281 89.1726 140.299 89.1371C137.461 86.7784 135.954 83.1607 136.309 79.4719C135.918 74.7369 134.5 55.4951 136.646 41.8752Z" fill="#494949"/>
</g>
<path d="M216.29 67.2176C216.787 69.8069 216.237 72.6621 214.464 74.6129C212.69 76.5636 209.64 77.3794 207.299 76.2089C206.962 77.0779 206.59 77.9823 205.845 78.5498C204.94 79.2237 203.681 79.206 202.617 78.8513C199.62 77.8405 197.917 74.4178 198.13 71.2611C198.343 68.1044 200.099 65.2492 202.227 62.9082C203.734 61.2412 205.525 59.7337 207.654 59.0421C209.782 58.3505 212.335 58.5988 213.985 60.1239C215.421 61.4363 215.971 63.4225 216.45 65.3024L216.29 67.2354V67.2176Z" fill="#784431"/>
<path d="M204.94 68.3527C204.94 68.3527 202.794 81.4229 203.184 85.1116C203.184 85.1116 190.274 91.6023 182.488 84.3135C182.488 84.3135 184.014 75.6415 184.049 73.2651C184.102 70.9064 204.94 68.335 204.94 68.335V68.3527Z" fill="#FFD5D9"/>
<path d="M194.548 80.7489C190.966 83.5864 186.638 83.4091 182.967 81.4228C183.411 78.674 184.014 74.737 184.049 73.265C184.085 71.598 194.459 69.8423 200.56 68.9379C199.939 73.4424 198.219 77.8227 194.548 80.7312V80.7489Z" fill="#EFBABF"/>
<path d="M193.998 28.6456C195.878 34.3738 192.083 40.7581 185.503 42.9217C178.924 45.0853 172.078 42.1946 170.199 36.4664C168.319 30.7382 172.114 24.3539 178.693 22.1903C185.255 20.0267 192.118 22.9174 193.998 28.6456Z" fill="#784431"/>
<path d="M169.862 45.3159C170.926 43.8084 171.848 41.4852 172.327 40.1552C175.324 28.0781 187.277 20.346 199.638 22.7224C212.389 25.1874 220.741 37.5305 218.276 50.2992C216.822 57.8363 211.91 63.8482 205.49 66.9694L206.11 67.5015L202.067 75.8189C188.554 80.2879 175.466 72.9636 175.466 72.9636C159.576 63.795 168.283 47.5326 169.862 45.3159Z" fill="#FFD5D9"/>
<path d="M204.94 64.3092C202.776 67.0935 202.723 70.6759 204.834 72.3074C206.944 73.939 210.402 72.9991 212.566 70.2148C214.729 67.4305 214.783 63.8482 212.672 62.2166C210.562 60.5851 207.104 61.525 204.94 64.3092Z" fill="#FFD5D9"/>
<path d="M206.359 65.4088C204.993 67.1645 204.958 69.4167 206.288 70.4453C207.618 71.4739 209.782 70.8886 211.147 69.1329C212.513 67.3773 212.548 65.125 211.218 64.0964C209.888 63.0678 207.724 63.6531 206.359 65.4088Z" fill="#EFBABF"/>
<path d="M193.342 48.2065L188.678 46.2202C186.39 45.2449 187.898 42.9039 190.203 43.8793L194.867 45.8655C197.155 46.8409 195.647 49.1819 193.342 48.2065Z" fill="#784431"/>
<path d="M175.289 40.9886C174.562 40.6339 173.799 40.4034 173.001 40.2438C172.185 40.0842 171.689 39.2329 171.848 38.559C172.043 37.8141 172.841 37.4772 173.657 37.6368C174.721 37.8496 175.75 38.2043 176.708 38.6654C177.452 39.0201 177.701 39.9245 177.328 40.5275C176.92 41.1837 176.016 41.3256 175.271 40.9709L175.289 40.9886Z" fill="#784431"/>
<path d="M176.37 48.3484C175.927 49.2529 175.395 50.1219 174.756 50.849C174.437 51.2037 174.082 51.5407 173.692 51.7712C173.515 51.8776 173.249 52.0195 173.036 52.1791C172.806 52.3387 172.593 52.516 172.415 52.7288C172.061 53.1544 171.742 53.7043 171.777 54.325C171.795 54.9634 172.22 55.4954 172.664 55.7969C173.586 56.4353 174.65 56.5417 175.643 56.5949C175.395 56.5063 175.164 56.4353 174.916 56.3466C174.685 56.2757 174.455 56.1693 174.224 56.0806C173.994 55.992 173.781 55.8678 173.568 55.7614C173.373 55.6196 173.143 55.5309 173.001 55.3535C172.664 55.052 172.415 54.6796 172.433 54.3072C172.433 53.917 172.628 53.5091 172.93 53.1899C173.072 53.0303 173.249 52.8707 173.426 52.7288C173.604 52.5869 173.799 52.4983 174.047 52.3387C174.508 52.0194 174.88 51.6293 175.182 51.2037C175.803 50.3525 176.175 49.3593 176.37 48.3662V48.3484Z" fill="#EFBABF"/>
<path d="M174.827 34.0722C174.827 34.0722 190.097 43.3827 197.776 22.7045C197.776 22.7045 191.161 14.4048 177.948 22.6513C177.948 22.6513 171.21 31.9795 174.81 34.0722H174.827Z" fill="#784431"/>
<path d="M208.806 151.349C208.806 151.349 210.81 165.199 208.363 171.885C208.363 171.885 180.414 167.806 175.501 169.58L159.664 166.299L162.218 143.546L208.788 151.367L208.806 151.349Z" fill="#5767BE"/>
<g style="mix-blend-mode:multiply" opacity="0.5">
<path d="M174.703 162.504C174.703 162.504 174.792 162.397 174.827 162.327C175.093 162.397 175.377 162.468 175.643 162.522C175.732 162.557 175.82 162.593 175.909 162.628C176.565 162.859 177.186 163 177.842 163.089C177.434 164.792 177.026 166.512 176.583 168.214C176.459 168.604 176.352 169.012 176.228 169.403C175.962 169.456 175.714 169.509 175.519 169.598L175.022 169.491C174.934 167.168 174.792 164.845 174.703 162.522V162.504Z" fill="#5767BE"/>
</g>
<g style="mix-blend-mode:overlay" opacity="0.56">
<path d="M177.363 149.594L174.224 162.008L177.47 162.752" stroke="white" stroke-width="0.4" stroke-miterlimit="10"/>
</g>
<path d="M182.702 81.9547C182.702 81.9547 178.162 80.8906 176.016 81.7596C173.87 82.6286 166.617 95.7519 166.226 108.432C165.836 121.112 158.193 141.542 161.438 146.915C164.683 152.289 198.237 161.599 209.8 154.683C209.8 154.683 216.007 149.505 214.481 145.213C212.956 140.921 210.828 121.023 213.169 112.635C215.51 104.247 216.751 87.9134 203.131 84.5971C203.131 84.5971 184.865 89.2789 182.684 81.9547H182.702Z" fill="#494949"/>
<g style="mix-blend-mode:multiply" opacity="0.46">
<path d="M168.212 137.747C175.306 142.819 183.818 144.22 192.242 142.039C201.074 139.751 206.148 133.86 210.865 126.039C211.273 125.366 211.645 124.692 212 124C212.5 132.5 213.452 142.287 214.499 145.231C216.024 149.522 209.817 154.701 209.817 154.701C198.236 161.617 164.683 152.289 161.455 146.933C159.966 144.468 160.782 138.775 162.147 132.125C163.938 134.235 165.96 136.133 168.248 137.765L168.212 137.747Z" fill="#494949"/>
</g>
<path d="M210.668 60.7092C209.001 59.7516 207.033 61.4363 206.004 63.0501C204.958 64.6817 203.681 66.6679 201.748 66.5261C200.365 66.4196 199.301 65.0896 199.106 63.7063C198.911 62.323 199.443 60.9398 200.116 59.7161C201.482 57.2688 203.521 55.2293 205.986 53.8638C203.202 53.4382 201.429 50.4233 201.411 47.6036C201.411 44.7838 202.688 42.1592 203.965 39.6409C199.177 40.8823 193.59 39.1975 190.824 35.1009C188.039 31.022 188.784 24.7441 192.81 21.8534C193.839 21.1086 195.364 20.6475 196.304 21.4987C197.261 19.0159 199.815 17.2425 202.475 17.2247C205.135 17.207 207.725 18.945 208.7 21.4278C208.948 22.0662 209.125 22.7756 209.658 23.2189C210.048 23.5382 210.544 23.6623 211.041 23.7865C214.198 24.4958 217.567 25.0633 220.068 27.1382C222.568 29.2131 223.65 33.3807 221.344 35.6684C225.14 37.3532 228.42 40.7404 228.97 44.8547C229.52 48.9691 226.594 53.5623 222.444 53.917C225.175 58.1023 222.71 64.6285 217.886 65.9586C217.62 66.0295 216.006 66.5616 215.74 66.4552C215.439 66.3488 216.574 65.5862 216.397 65.3024C215.439 63.7596 213.648 63.7595 212.69 62.2166L210.686 60.7092H210.668Z" fill="#784431"/>
<path d="M191.923 54.5731C191.923 54.5731 189.05 50.1751 181.762 52.8884C181.762 52.8884 185.167 48.1001 189.405 50.7957C189.405 50.7957 192.438 52.0017 191.923 54.5731Z" fill="#1E243A"/>
<path d="M170.199 43.9149C173.568 45.0853 173.763 49.5367 173.763 49.5367C172.185 47.4263 170.607 46.2735 169.188 45.6883C169.525 45.1031 169.862 44.5178 170.199 43.9326V43.9149Z" fill="#1E243A"/>
<path d="M181.318 62.0923C181.318 62.0923 178.924 64.8411 173.001 62.9613" stroke="#1E243A" stroke-width="0.5" stroke-miterlimit="10"/>
<path d="M182.843 63.653C182.843 63.653 180.325 62.9968 180.804 59.7869" stroke="#1E243A" stroke-width="0.5" stroke-miterlimit="10"/>
<path d="M169.649 53.6686L168.354 52.9238C167.432 52.374 167.751 49.6429 169.081 46.8054C170.412 43.9679 172.238 42.1236 173.178 42.6556L174.437 43.4004C174.437 43.4004 174.473 43.4004 174.491 43.4181C174.508 43.4181 174.526 43.4536 174.544 43.4713H174.579V43.4891C175.395 44.163 175.058 46.8054 173.763 49.5365C172.486 52.2498 170.749 54.0587 169.791 53.7218L169.702 53.6863C169.702 53.6863 169.684 53.6863 169.667 53.6863C169.667 53.6863 169.667 53.6863 169.631 53.6686H169.649Z" fill="#5767BE"/>
<path d="M155.089 44.9079L157.288 40.226L157.536 39.694L159.735 35.0121L172.77 45.2271C173.178 45.4754 172.894 46.965 172.149 48.5789C171.422 50.1395 170.518 51.2213 170.075 51.0794L155.089 44.9079Z" fill="#5767BE"/>
<path opacity="0.19" d="M156.295 42.3187C157.998 43.4359 159.735 44.4645 161.562 45.298C164.843 46.77 169.259 47.302 171.954 44.6242L172.735 45.2448C173.143 45.4931 172.859 46.9828 172.114 48.5966C171.387 50.1572 170.482 51.239 170.039 51.0972L155.054 44.9256L156.26 42.3364L156.295 42.3187Z" fill="#1E243A"/>
<path d="M154.433 44.7482L153.138 44.0033C152.216 43.4536 152.535 40.7225 153.865 37.885C155.196 35.0475 157.022 33.2031 157.962 33.7352L159.221 34.48C159.221 34.48 159.257 34.48 159.274 34.4977C159.292 34.4977 159.31 34.5332 159.328 34.5509H159.363V34.5687C160.179 35.2426 159.842 37.885 158.547 40.6161C157.27 43.3294 155.532 45.1383 154.575 44.8014L154.486 44.7659C154.486 44.7659 154.468 44.7659 154.451 44.7659C154.451 44.7659 154.451 44.7659 154.415 44.7482H154.433Z" fill="#ECBB30"/>
<path d="M130.208 32.7243L133.24 26.2691L133.577 25.542L136.61 19.0867L157.856 35.083C158.512 35.4732 158.21 37.5836 157.164 39.8004C156.153 41.9462 154.823 43.4004 154.149 43.1521L130.208 32.7243Z" fill="#5767BE"/>
<path opacity="0.19" d="M131.485 29.9755C134.5 32.0504 137.461 34.2318 140.795 35.5973C144.502 37.1225 150.815 38.9136 154.433 34.0544C154.681 33.7174 154.912 33.3628 155.107 33.0081L157.838 35.0652C158.494 35.4554 158.193 37.5658 157.146 39.7826C156.135 41.9284 154.805 43.3827 154.131 43.1344L130.19 32.7066L131.485 29.9578V29.9755Z" fill="#1E243A"/>
<path d="M129.782 32.7954L128.381 31.9796C127.37 31.3944 128.044 27.7411 129.871 23.8396C131.697 19.938 134.003 17.2424 135.014 17.8454L136.379 18.6611C136.379 18.6611 136.432 18.6612 136.45 18.6789C136.468 18.6789 136.486 18.7144 136.503 18.7321H136.539V18.7498C137.408 19.5124 136.734 23.0415 134.96 26.8189C133.205 30.5609 131.023 33.1678 129.942 32.8663L129.853 32.8308C129.853 32.8308 129.835 32.8308 129.818 32.8308C129.818 32.8308 129.8 32.8131 129.782 32.8131V32.7954Z" fill="#ECBB30"/>
<path d="M105.203 21.8888L109.548 12.6137L110.044 11.5674L114.389 2.29236L135.067 19.5124C135.723 19.9025 135.067 22.7932 133.56 25.9854C132.106 29.0712 130.421 31.288 129.711 31.0929V31.1283L105.167 21.9065L105.203 21.8888Z" fill="#5767BE"/>
<path opacity="0.19" d="M106.249 19.6542C108.856 21.4277 111.587 22.8996 114.442 23.8928C118.982 25.5066 127.317 26.1982 129.765 18.1823C130.048 17.2424 130.19 16.3379 130.208 15.4335L135.085 19.4946C135.741 19.8848 135.085 22.7755 133.577 25.9676C132.123 29.0534 130.438 31.2702 129.729 31.0751V31.1106L105.185 21.8888L106.231 19.6542H106.249Z" fill="#1E243A"/>
<path d="M104.724 22.0661L103.323 21.2503C102.312 20.6651 103.624 15.6285 106.267 10.0067C108.909 4.38498 111.853 0.323815 112.864 0.909046L114.229 1.72486C114.229 1.72486 114.283 1.72483 114.3 1.74256C114.318 1.74256 114.336 1.77803 114.354 1.79576H114.389V1.83126C115.223 2.68251 113.91 7.55946 111.356 12.9862C108.838 18.3596 106.018 22.3144 104.901 22.1193L104.812 22.0838C104.812 22.0838 104.795 22.0838 104.777 22.0838C104.777 22.0838 104.777 22.0661 104.742 22.0484L104.724 22.0661Z" fill="#ECBB30"/>
<path d="M103.802 19.4238C100.361 17.402 99.3504 11.9931 101.549 7.31126C103.748 2.6294 108.306 0.483553 111.747 2.48753C111.747 2.48753 111.782 2.50524 111.782 2.52298L111.729 2.61168C112.35 2.96637 111.09 7.00978 108.927 11.6384C106.763 16.2671 104.493 19.7253 103.873 19.3529L103.819 19.4415C103.819 19.4415 103.784 19.4415 103.784 19.4238H103.802Z" fill="#74D7ED"/>
<path opacity="0.19" d="M103.801 19.4236C101.762 18.2354 100.574 15.8236 100.414 13.1102C105.185 12.2235 109.884 8.4284 111.888 2.87756C112.083 3.88842 110.877 7.54169 108.944 11.6383C106.781 16.267 104.511 19.7252 103.89 19.3527L103.837 19.4414C103.837 19.4414 103.801 19.4414 103.801 19.4236Z" fill="#1E243A"/>
<g style="mix-blend-mode:overlay">
<path d="M102.861 7.48855C103.127 8.16245 104.724 7.64813 106.426 6.35353C108.129 5.05892 109.281 3.46287 109.015 2.78897C108.749 2.11507 107.153 2.62933 105.451 3.92394C103.748 5.21854 102.595 6.81464 102.861 7.48855Z" fill="white"/>
</g>
<path opacity="0.53" d="M112.083 11.5497L134.021 24.407" stroke="#1E243A" stroke-width="0.5" stroke-miterlimit="10"/>
<path opacity="0.53" d="M135.794 25.276L157.057 37.7432" stroke="#1E243A" stroke-width="0.5" stroke-miterlimit="10"/>
<path opacity="0.53" d="M159.771 39.4813L172.274 46.7878" stroke="#1E243A" stroke-width="0.5" stroke-miterlimit="10"/>
<path opacity="0.54" d="M116.96 18.0228C117.209 18.1646 117.545 18.0227 117.723 17.6681C117.9 17.3134 117.811 16.9232 117.563 16.7636C117.315 16.6217 116.978 16.7636 116.801 17.1183C116.623 17.473 116.712 17.8632 116.96 18.0228Z" fill="#1E243A"/>
<path opacity="0.54" d="M129.569 25.7193C129.818 25.8612 130.155 25.7193 130.332 25.3646C130.492 25.0276 130.421 24.6197 130.172 24.4601C129.924 24.3183 129.587 24.4601 129.41 24.8148C129.232 25.1695 129.321 25.5597 129.569 25.7193Z" fill="#1E243A"/>
<path opacity="0.54" d="M139.625 31.6072C139.873 31.7491 140.21 31.6072 140.387 31.2525C140.565 30.8978 140.476 30.5077 140.228 30.3481C139.979 30.2062 139.642 30.3481 139.465 30.7028C139.306 31.0397 139.376 31.4476 139.625 31.6072Z" fill="#1E243A"/>
<path opacity="0.54" d="M153.546 39.7472C153.795 39.8891 154.132 39.7472 154.309 39.3925C154.486 39.0378 154.397 38.6476 154.149 38.488C153.901 38.3461 153.564 38.488 153.387 38.8427C153.209 39.1974 153.298 39.5876 153.546 39.7472Z" fill="#1E243A"/>
<path opacity="0.54" d="M161.651 44.4999C161.899 44.6418 162.236 44.4999 162.413 44.1452C162.591 43.7905 162.502 43.4004 162.254 43.2408C162.005 43.0989 161.669 43.2407 161.491 43.5954C161.314 43.9501 161.402 44.3403 161.651 44.4999Z" fill="#1E243A"/>
<path opacity="0.54" d="M169.401 49.04C169.649 49.1819 169.986 49.04 170.163 48.6853C170.341 48.3306 170.252 47.9405 170.004 47.7809C169.755 47.639 169.418 47.7808 169.241 48.1355C169.064 48.4902 169.153 48.8804 169.401 49.04Z" fill="#1E243A"/>
<g style="mix-blend-mode:overlay" opacity="0.28">
<path d="M112.74 1.28149L114.034 1.99086C114.034 1.99086 111.516 12.6846 106.781 17.0118C106.781 17.0118 113.502 5.55546 112.74 1.28149Z" fill="white"/>
</g>
<g style="mix-blend-mode:overlay" opacity="0.28">
<path d="M135.599 18.7676C135.599 18.7676 136.681 21.3213 132.744 28.2732C132.744 28.2732 135.812 25.9677 136.45 19.3705L135.599 18.7676Z" fill="white"/>
</g>
<path d="M152.571 62.057L150.957 54.6795L148.918 44.9434C150.336 42.8508 158.902 41.5384 158.902 41.5384L160.835 46.6459C162.555 53.9524 159.47 55.247 159.47 55.247L160.569 59.6983L152.553 62.057H152.571Z" fill="#FFD5D9"/>
<path d="M158.973 41.9109C158.973 41.9109 157.093 32.4408 155.497 33.0792C155.497 33.0792 154.823 33.3807 154.894 34.161C154.965 34.9413 157.235 44.0568 157.235 44.0568C157.235 44.0568 159.363 44.1809 158.973 41.8932V41.9109Z" fill="#FFD5D9"/>
<path d="M153.245 42.9039C153.245 42.9039 151.081 33.5047 149.521 34.1786C149.521 34.1786 148.864 34.4978 148.953 35.2781C149.042 36.0584 151.578 45.1029 151.578 45.1029C151.578 45.1029 153.706 45.1738 153.245 42.8861V42.9039Z" fill="#FFD5D9"/>
<path d="M150.62 43.8085C150.62 43.8085 148.918 37.0695 147.534 37.7611C147.534 37.7611 146.949 38.0803 147.02 38.6478C147.073 39.2153 149.13 45.6529 149.13 45.6529C149.13 45.6529 150.993 45.4401 150.62 43.8085Z" fill="#FFD5D9"/>
<path d="M155.923 41.8045C155.923 41.8045 153.387 31.2881 151.808 31.962C151.808 31.962 151.152 32.2812 151.258 33.1502C151.365 34.0192 154.291 44.1809 154.291 44.1809C154.291 44.1809 156.472 44.3582 155.905 41.8222L155.923 41.8045Z" fill="#FFD5D9"/>
<path d="M159.097 55.921C159.097 55.921 162.342 53.8461 163.034 50.7071C163.726 47.5681 167.042 45.1563 167.397 44.0036C167.751 42.8508 161.473 44.6597 160.604 48.5435C159.735 52.4273 158.175 55.1584 159.097 55.9033V55.921Z" fill="#FFD5D9"/>
<path d="M165.198 100.984C162.555 95.9826 151.932 75.5172 148.19 62.2165L161.917 57.3395L184.368 90.0948C184.368 90.0948 184.368 90.0948 184.333 90.1303C184.422 90.2367 184.51 90.3431 184.599 90.4495C188.891 89.4741 199.247 87.1686 204.195 86.6543C205.064 86.4415 205.969 86.2997 206.909 86.2997C213.098 86.2819 218.152 91.283 218.17 97.4722C218.17 100.327 217.106 102.934 215.368 104.921C215.368 105.116 215.332 105.24 215.226 105.293C215.226 105.293 214.712 105.843 213.541 106.588C212.601 107.262 211.573 107.811 210.456 108.166C204.763 110.542 193.342 112.866 172.948 108.326C172.948 108.326 172.948 108.308 172.948 108.272C169.33 107.297 166.404 104.566 165.215 100.984H165.198Z" fill="#494949"/>
<path d="M148.953 27.741L149.556 29.6917C149.556 29.6917 148.297 30.4189 147.818 29.2661C147.321 28.0957 147.286 26.3754 147.286 26.3754C147.286 26.3754 148.368 26.2336 148.953 27.7587V27.741Z" fill="#FFD5D9"/>
<path d="M147.517 26.8188L148.031 29.0888C148.031 29.0888 146.666 30.0287 146.222 28.6809C145.779 27.3331 145.85 25.2759 145.85 25.2759C145.85 25.2759 146.985 25.0276 147.517 26.801V26.8188Z" fill="#FFD5D9"/>
<path d="M146.08 26.0561L146.186 28.5211C146.186 28.5211 144.661 29.3547 144.466 27.8827C144.271 26.4108 144.697 24.2472 144.697 24.2472C144.697 24.2472 145.885 24.123 146.08 26.0561Z" fill="#FFD5D9"/>
<path d="M144.98 25.3114L144.821 27.475C144.821 27.475 143.313 27.7942 143.296 26.4642C143.278 25.1341 143.899 23.3784 143.899 23.3784C143.899 23.3784 145.016 23.5912 144.98 25.3114Z" fill="#FFD5D9"/>
<path d="M147.286 26.3576L147.818 29.0355" stroke="#494949" stroke-width="0.5" stroke-miterlimit="10"/>
<path d="M145.849 25.2938L146.116 28.3441" stroke="#494949" stroke-width="0.5" stroke-miterlimit="10"/>
<path d="M144.697 24.2473L144.378 27.0848" stroke="#494949" stroke-width="0.5" stroke-miterlimit="10"/>
<path d="M206.625 109.656C206.625 109.656 173.622 114.391 166.741 103.715" stroke="#1E243A" stroke-width="0.5" stroke-miterlimit="10"/>
<path d="M183.446 89.7046C183.446 89.7046 184.067 94.3687 181.726 97.1175" stroke="#1E243A" stroke-width="0.5" stroke-miterlimit="10"/>
<path d="M203.273 87.4346C203.273 87.4346 186.124 91.1943 183.393 89.7755L178.232 81.4581" stroke="#1E243A" stroke-width="0.5" stroke-miterlimit="10"/>
<path d="M163.016 60.9041C163.016 60.9041 154.22 65.4618 150.159 65.1249" stroke="#1E243A" stroke-width="0.5" stroke-miterlimit="10"/>
<path d="M147.836 44.2872C147.836 44.2872 139.855 44.9079 137.94 44.0921" stroke="#1E243A" stroke-width="0.5" stroke-miterlimit="10"/>
<path d="M283.131 113.968C331.529 141.56 379.927 169.153 428.324 196.745C427.973 196.621 424.167 209.511 424.167 209.511C424.167 209.511 327.879 199.66 291.391 269.11C244.383 242.309 127.597 190.594 127.597 190.594L140.425 185.078C163.972 153.944 223.253 124.388 283.131 113.968Z" fill="white"/>
<path d="M124.917 191.441C129.616 189.437 138.702 188.465 143.381 186.501C123.752 152.76 79.428 120.986 21.2382 103.436C16.4552 105.445 9.47226 108.093 4.68828 110.102C62.4011 128.198 103.959 157.794 124.917 191.441Z" fill="white"/>
<path d="M149.442 187.768C149.529 187.768 149.615 187.732 149.677 187.661C177.71 155.659 221.019 134.185 282.081 122.012C282.25 121.978 282.36 121.814 282.327 121.644C282.293 121.474 282.127 121.368 281.959 121.398C220.757 133.6 177.334 155.14 149.207 187.248C149.094 187.378 149.106 187.575 149.236 187.689C149.296 187.742 149.369 187.768 149.442 187.768Z" fill="#C7D3F2"/>
<path d="M249.442 125.202C249.47 125.202 249.498 125.198 249.526 125.19C259.172 122.481 269.529 120.018 280.312 117.868C280.482 117.834 280.591 117.669 280.558 117.5C280.524 117.33 280.354 117.224 280.19 117.254C269.392 119.407 259.018 121.874 249.357 124.587C249.191 124.633 249.094 124.806 249.141 124.972C249.18 125.112 249.306 125.202 249.442 125.202Z" fill="#C7D3F2"/>
<path d="M147.266 183.36C147.353 183.36 147.439 183.324 147.501 183.253C167.187 160.781 194.304 143.747 230.406 131.177C230.569 131.12 230.655 130.942 230.598 130.78C230.541 130.616 230.36 130.53 230.201 130.588C193.994 143.194 166.789 160.286 147.031 182.842C146.918 182.972 146.93 183.169 147.06 183.283C147.119 183.335 147.192 183.36 147.266 183.36Z" fill="#C7D3F2"/>
<path d="M136.166 185.134C136.227 185.134 136.288 185.116 136.342 185.079C136.484 184.982 136.522 184.788 136.424 184.645C112.428 149.477 76.5167 125.33 19.9859 106.347C19.8209 106.294 19.6449 106.381 19.5899 106.544C19.5339 106.708 19.6229 106.885 19.7859 106.94C76.1778 125.876 111.992 149.95 135.907 184.997C135.969 185.086 136.067 185.134 136.166 185.134Z" fill="#C7D3F2"/>
<path d="M129.971 186.592C130.031 186.592 130.093 186.574 130.147 186.537C130.29 186.44 130.327 186.246 130.229 186.103C106.32 151.063 70.3739 126.957 13.6781 107.942C13.5151 107.889 13.3361 107.976 13.2821 108.139C13.2261 108.303 13.3151 108.48 13.4781 108.535C70.0369 127.503 105.884 151.535 129.712 186.455C129.774 186.544 129.871 186.592 129.971 186.592Z" fill="#C7D3F2"/>
<path d="M284.75 127.185C333.148 154.777 381.545 182.37 429.943 209.962C377.825 221.644 331.078 245.308 299.197 275.087C250.799 247.495 202.401 219.902 154.005 192.31C177.552 161.176 224.871 137.606 284.75 127.185Z" fill="#E8F1FF"/>
<path d="M154.005 192.31L299.197 275.087C289.395 286.9 273.081 278.095 273.081 278.095L124.126 192.032L123.265 189.946C132.41 193.604 146.761 195.98 154.005 192.31Z" fill="#CADAEF"/>
<path d="M429.942 211.524C430.485 211.524 431.013 211.241 431.301 210.735C431.728 209.986 431.467 209.032 430.718 208.604L285.525 125.827C285.209 125.647 284.842 125.584 284.483 125.645C224.693 136.05 176.823 159.859 153.038 191.002C144.494 194.084 135.252 193.728 126.958 189.991L125.42 189.299C105.545 155.537 60.8989 126.156 2.81607 108.638C1.99106 108.389 1.11908 108.857 0.86908 109.683C0.620087 110.509 1.08807 111.381 1.91406 111.63C59.4959 128.997 103.621 158.037 122.973 191.305C123.137 191.586 123.385 191.81 123.682 191.944L125.675 192.841C134.864 196.981 145.119 197.312 154.555 193.774C154.832 193.67 155.073 193.49 155.252 193.253C178.396 162.651 225.471 139.183 284.466 128.821L429.17 211.319C429.414 211.459 429.68 211.524 429.942 211.524Z" fill="#CDD7E8"/>
<path d="M218.813 209.591C221.202 205.419 223.516 201.272 225.756 197.152C229.834 198.007 233.839 198.89 237.768 199.797C232.891 182.051 218.891 161.052 206.77 150.383C200.432 153.22 193.039 157.622 188.357 161.04C201.161 176.34 213.742 190.296 218.813 209.591Z" fill="#A6B4D9"/>
<path d="M213.157 211.143C215.546 206.971 217.86 202.824 220.1 198.704C224.178 199.559 228.183 200.442 232.112 201.349C227.041 182.054 218.325 165.058 205.52 149.758C199.182 152.595 191.789 156.997 187.107 160.415C199.911 175.715 208.085 191.847 213.157 211.143Z" fill="#BBCBF5"/>
<path d="M141.788 181.616L133.033 180.522C135.912 174.765 147.898 174.989 147.898 174.989L141.788 181.616Z" fill="#AEAEC9"/>
</svg>
