<svg width="1281" height="501" viewBox="0 0 1281 501" fill="none" xmlns="http://www.w3.org/2000/svg">
<g clip-path="url(#clip0_673_69426)">
<rect width="1280" height="500" transform="translate(0.742188 0.398438)" fill="#6177F1"/>
<g opacity="0.2">
<path d="M111.897 452.057C109.066 452.057 106.801 449.792 106.801 446.961C106.801 444.131 109.066 441.866 111.897 441.866C114.727 441.866 116.992 444.131 116.992 446.961C117.181 449.792 114.727 452.057 111.897 452.057Z" fill="#FDF9FD"/>
<path d="M111.897 470.362C114.711 470.362 116.992 468.08 116.992 465.266C116.992 462.452 114.711 460.171 111.897 460.171C109.083 460.171 106.801 462.452 106.801 465.266C106.801 468.08 109.083 470.362 111.897 470.362Z" fill="#FDF9FD"/>
<path d="M111.897 488.856C114.711 488.856 116.992 486.575 116.992 483.761C116.992 480.947 114.711 478.665 111.897 478.665C109.083 478.665 106.801 480.947 106.801 483.761C106.801 486.575 109.083 488.856 111.897 488.856Z" fill="#FDF9FD"/>
<path d="M93.5916 452.057C90.7609 452.057 88.4963 449.792 88.4963 446.961C88.4963 444.131 90.7609 441.866 93.5916 441.866C96.4223 441.866 98.6869 444.131 98.6869 446.961C98.6869 449.792 96.4223 452.057 93.5916 452.057Z" fill="#FDF9FD"/>
<path d="M93.5916 470.551C90.7609 470.551 88.4963 468.286 88.4963 465.455C88.4963 462.625 90.7609 460.36 93.5916 460.36C96.4223 460.36 98.6869 462.625 98.6869 465.455C98.6869 468.286 96.4223 470.551 93.5916 470.551Z" fill="#FDF9FD"/>
<path d="M93.5916 488.856C90.7609 488.856 88.4963 486.591 88.4963 483.761C88.4963 480.93 90.7609 478.665 93.5916 478.665C96.4223 478.665 98.6869 480.93 98.6869 483.761C98.6869 486.591 96.4223 488.856 93.5916 488.856Z" fill="#FDF9FD"/>
</g>
<path d="M1098.3 141.933C1098.3 144.491 1096.11 146.684 1093.55 146.684C1090.99 146.684 1088.8 144.491 1088.8 141.933C1088.8 139.375 1090.99 137.182 1093.55 137.182C1096.11 137.182 1098.3 139.375 1098.3 141.933Z" fill="#25C7E4"/>
<path d="M153.835 246.04C153.835 248.598 156.028 250.791 158.586 250.791C161.144 250.791 163.337 248.598 163.337 246.04C163.337 243.481 161.144 241.289 158.586 241.289C156.028 241.289 153.835 243.299 153.835 246.04Z" fill="#25C7E4"/>
<path d="M1209.61 432.725C1207.36 434.155 1204.51 433.542 1203.08 431.296C1201.65 429.05 1202.26 426.191 1204.51 424.761C1206.75 423.332 1209.61 423.945 1211.04 426.191C1212.47 428.233 1211.86 431.296 1209.61 432.725Z" fill="#96C3F9"/>
<g opacity="0.3">
<path d="M1019.54 429.383C1017.98 429.383 1016.76 428.169 1016.76 426.608V420.539C1016.76 418.979 1017.98 417.765 1019.54 417.765C1021.1 417.765 1022.31 418.979 1022.31 420.539V426.435C1022.48 427.995 1021.27 429.383 1019.54 429.383Z" fill="#FDF9FD"/>
<path d="M1019.54 453.658C1017.98 453.658 1016.76 454.871 1016.76 456.432V462.327C1016.76 463.888 1017.98 465.102 1019.54 465.102C1021.1 465.102 1022.31 463.888 1022.31 462.327V456.432C1022.48 455.045 1021.27 453.658 1019.54 453.658Z" fill="#FDF9FD"/>
<path d="M1031.85 441.52C1031.85 439.96 1033.06 438.746 1034.62 438.746H1040.52C1042.08 438.746 1043.29 439.96 1043.29 441.52C1043.29 443.081 1042.08 444.295 1040.52 444.295H1034.62C1033.06 444.295 1031.85 443.081 1031.85 441.52Z" fill="#FDF9FD"/>
<path d="M1007.4 441.52C1007.4 439.96 1006.19 438.746 1004.62 438.746H998.556C996.995 438.746 995.781 439.96 995.781 441.52C995.781 443.081 996.995 444.295 998.556 444.295H1004.45C1006.19 444.295 1007.4 443.081 1007.4 441.52Z" fill="#FDF9FD"/>
<path d="M1028.21 432.851C1027.17 431.81 1027.17 429.903 1028.21 428.863L1032.37 424.701C1033.41 423.661 1035.32 423.661 1036.36 424.701C1037.4 425.742 1037.4 427.649 1036.36 428.689L1032.19 432.851C1031.15 434.065 1029.42 434.065 1028.21 432.851Z" fill="#FDF9FD"/>
<path d="M1011.04 450.19C1010 449.15 1008.09 449.15 1007.05 450.19L1002.89 454.351C1001.85 455.392 1001.85 457.299 1002.89 458.339C1003.93 459.38 1005.84 459.38 1006.88 458.339L1011.04 454.178C1012.08 453.138 1012.08 451.23 1011.04 450.19Z" fill="#FDF9FD"/>
<path d="M1028.21 450.19C1029.25 449.15 1031.15 449.15 1032.19 450.19L1036.36 454.351C1037.4 455.392 1037.4 457.299 1036.36 458.339C1035.32 459.38 1033.41 459.38 1032.37 458.339L1028.21 454.178C1027.17 453.138 1027.17 451.23 1028.21 450.19Z" fill="#FDF9FD"/>
<path d="M1011.04 432.851C1012.08 431.81 1012.08 429.903 1011.04 428.863L1006.88 424.701C1005.84 423.661 1003.93 423.661 1002.89 424.701C1001.85 425.742 1001.85 427.649 1002.89 428.689L1007.05 432.851C1008.09 434.065 1009.83 434.065 1011.04 432.851Z" fill="#FDF9FD"/>
<path d="M1022.48 441.52C1022.48 443.081 1021.27 444.295 1019.71 444.295C1018.15 444.295 1016.94 443.081 1016.94 441.52C1016.94 439.96 1018.15 438.746 1019.71 438.746C1021.27 438.573 1022.48 439.96 1022.48 441.52Z" fill="#FDF9FD"/>
</g>
<g opacity="0.2">
<path d="M332.133 365.894L201.054 496.973C196.946 501.082 196.946 507.655 201.054 511.763C205.162 515.871 211.736 515.871 215.844 511.763L346.923 380.684C351.031 376.576 351.031 370.003 346.923 365.894C342.815 361.786 336.241 361.786 332.133 365.894Z" fill="url(#paint0_linear_673_69426)"/>
<path d="M496.939 -197.252L285.67 14.0174C280.517 19.1703 280.517 27.415 285.67 32.5679C290.823 37.7208 299.067 37.7208 304.22 32.5679L515.489 -178.495C520.642 -183.648 520.642 -191.893 515.489 -197.046C510.336 -202.198 502.092 -202.198 496.939 -197.252Z" fill="white"/>
<path d="M1271.38 270.3L1153.43 388.251C1146.8 394.882 1146.8 405.753 1153.43 412.385C1160.06 419.016 1170.93 419.016 1177.56 412.385L1295.51 294.434C1302.14 287.803 1302.14 276.932 1295.51 270.3C1288.88 263.669 1278.01 263.669 1271.38 270.3Z" fill="url(#paint1_linear_673_69426)"/>
</g>
<path d="M1112.94 410.552C1112.94 410.552 1108.68 406.851 1108.72 400.047C1108.76 392.129 1106.66 387.434 1104.07 386.2L1116.44 384.091C1116.44 384.091 1120.3 384.37 1121.7 391.492C1123.09 398.615 1119.79 406.653 1126.43 409L1112.94 410.552Z" fill="#F19774"/>
<path d="M1078.92 405.18C1078.92 405.18 1086.32 408.284 1091.18 400.207C1096.03 392.129 1095.71 382.5 1116.48 384.052C1116.48 384.052 1111.23 384.529 1107.97 392.527C1105.02 399.729 1100.97 409.12 1090.22 408.244C1080.59 407.448 1078.92 405.18 1078.92 405.18Z" fill="#F3CDB7"/>
<path d="M100.602 303.399C100.602 303.399 94.7409 303.798 89.7236 298.736C83.9069 292.831 78.8452 290.966 76.0479 291.899L83.6405 281.198C83.6405 281.198 86.7042 278.578 93.0093 282.796C99.3143 287.014 102.822 295.451 109.482 292.254L100.602 303.399Z" fill="#8E9BF0"/>
<path d="M71.4744 324.623C71.4744 324.623 79.2447 321.426 76.847 311.879C74.4493 302.333 67.0786 295.406 83.6404 281.198C83.6404 281.198 80.1327 285.416 83.596 293.763C86.7485 301.267 90.7003 311.213 82.1308 318.495C74.3605 325.067 71.4744 324.623 71.4744 324.623Z" fill="#D3BDFD"/>
<path d="M323.637 60.3779C322.554 60.3779 322.193 62.4534 322.193 66.3336C322.193 74.2744 323.727 98.2774 323.727 98.2774C323.727 98.2774 325.261 74.2744 325.171 66.2433C325.171 62.3631 324.81 60.3779 323.637 60.3779Z" fill="#68D8DD"/>
<path d="M323.727 155.397C324.81 155.397 325.261 153.322 325.261 149.442C325.261 141.501 323.727 117.498 323.727 117.498C323.727 117.498 322.103 141.501 322.193 149.532C322.193 153.322 322.554 155.397 323.727 155.397Z" fill="#68D8DD"/>
<path d="M371.192 107.843C371.192 106.76 369.116 106.309 365.236 106.309C357.295 106.309 333.292 107.843 333.292 107.843C333.292 107.843 357.295 109.377 365.326 109.286C369.116 109.377 371.192 109.016 371.192 107.843Z" fill="#68D8DD"/>
<path d="M276.172 107.933C276.172 109.016 278.248 109.467 282.128 109.467C290.159 109.467 314.072 107.933 314.072 107.933C314.072 107.933 289.978 106.308 282.038 106.399C278.157 106.399 276.172 106.76 276.172 107.933Z" fill="#68D8DD"/>
<path d="M357.295 74.2743C356.483 73.4622 354.768 74.6353 352.061 77.4326C346.376 83.0273 330.585 101.165 330.585 101.165C330.585 101.165 348.632 85.2832 354.317 79.5983C356.844 76.801 358.017 75.0865 357.295 74.2743Z" fill="#68D8DD"/>
<path d="M290.069 141.501C290.881 142.313 292.595 141.14 295.302 138.343C300.987 132.748 316.779 114.61 316.779 114.61C316.779 114.61 298.731 130.582 293.137 136.267C290.43 138.974 289.347 140.689 290.069 141.501Z" fill="#68D8DD"/>
<path d="M357.295 141.501C358.107 140.689 356.934 138.974 354.137 136.267C348.542 130.582 330.405 114.791 330.405 114.791C330.405 114.791 346.286 132.838 351.971 138.523C354.768 141.05 356.483 142.223 357.295 141.501Z" fill="#68D8DD"/>
<path d="M290.069 74.2744C289.256 75.0866 290.429 76.8011 293.227 79.5082C298.821 85.1931 316.959 100.985 316.959 100.985C316.959 100.985 300.987 82.9372 295.302 77.3425C292.595 74.6354 290.881 73.5525 290.069 74.2744Z" fill="#68D8DD"/>
<path d="M337.082 73.5525C336.27 73.2818 335.458 74.6353 334.285 77.4327C332.029 83.2078 326.344 100.985 326.344 100.985C326.344 100.985 334.285 84.02 336.451 78.2448C337.624 75.4475 337.894 73.8232 337.082 73.5525Z" fill="#68D8DD"/>
<path d="M310.191 142.223C311.004 142.493 311.816 141.14 312.989 138.343C315.245 132.567 320.93 114.791 320.93 114.791C320.93 114.791 312.989 131.755 310.823 137.53C309.74 140.328 309.47 141.952 310.191 142.223Z" fill="#68D8DD"/>
<path d="M358.017 121.288C358.288 120.476 356.934 119.663 354.137 118.49C348.362 116.234 330.585 110.55 330.585 110.55C330.585 110.55 347.549 118.49 353.325 120.656C356.122 121.829 357.746 122.1 358.017 121.288Z" fill="#68D8DD"/>
<path d="M289.347 94.3973C289.076 95.2094 290.43 96.0215 293.227 97.1946C299.002 99.4505 316.779 105.135 316.779 105.135C316.779 105.135 299.814 97.1946 294.039 95.0289C291.242 93.9461 289.618 93.6754 289.347 94.3973Z" fill="#68D8DD"/>
<path d="M357.475 93.0438C357.115 92.2316 355.58 92.5926 352.783 93.8559C347.098 96.2923 330.495 104.865 330.495 104.865C330.495 104.865 348.091 98.458 353.776 95.9313C356.483 94.7583 357.836 93.8559 357.475 93.0438Z" fill="#68D8DD"/>
<path d="M289.888 122.641C290.249 123.453 291.783 123.093 294.58 121.829C300.265 119.393 316.779 110.82 316.779 110.82C316.779 110.82 299.273 117.227 293.588 119.754C290.881 121.017 289.527 121.919 289.888 122.641Z" fill="#68D8DD"/>
<path d="M338.436 141.681C339.248 141.32 338.887 139.786 337.624 136.989C335.187 131.304 326.615 114.7 326.615 114.7C326.615 114.7 333.022 132.297 335.548 137.982C336.812 140.689 337.714 142.042 338.436 141.681Z" fill="#68D8DD"/>
<path d="M308.838 74.0939C308.026 74.4549 308.387 75.9889 309.65 78.7862C312.086 84.4711 320.749 100.984 320.749 100.984C320.749 100.984 314.342 83.3883 311.816 77.7034C310.552 75.0865 309.65 73.733 308.838 74.0939Z" fill="#68D8DD"/>
<path d="M932.935 113.03C932.285 113.03 932.069 114.276 932.069 116.604C932.069 121.422 932.989 135.77 932.989 135.77C932.989 135.77 933.909 121.368 933.855 116.55C933.855 114.221 933.639 113.03 932.935 113.03Z" fill="#F2A64C"/>
<path d="M932.989 170.042C933.639 170.042 933.909 168.797 933.909 166.469C933.909 161.704 932.989 147.302 932.989 147.302C932.989 147.302 932.014 161.704 932.069 166.523C932.069 168.797 932.285 170.042 932.989 170.042Z" fill="#F2A64C"/>
<path d="M961.468 141.509C961.468 140.859 960.222 140.589 957.894 140.589C953.13 140.589 938.728 141.509 938.728 141.509C938.728 141.509 953.13 142.429 957.949 142.375C960.222 142.429 961.468 142.213 961.468 141.509Z" fill="#F2A64C"/>
<path d="M904.456 141.563C904.456 142.213 905.701 142.484 908.029 142.484C912.794 142.484 927.196 141.563 927.196 141.563C927.196 141.563 912.74 140.589 907.975 140.643C905.647 140.643 904.456 140.859 904.456 141.563Z" fill="#F2A64C"/>
<path d="M953.13 121.368C952.642 120.881 951.614 121.585 949.989 123.263C946.578 126.62 937.104 137.503 937.104 137.503C937.104 137.503 947.932 127.974 951.343 124.563C952.859 122.884 953.563 121.855 953.13 121.368Z" fill="#F2A64C"/>
<path d="M912.794 161.704C913.281 162.191 914.31 161.488 915.934 159.809C919.345 156.452 928.82 145.57 928.82 145.57C928.82 145.57 917.992 155.153 914.635 158.564C913.01 160.188 912.361 161.217 912.794 161.704Z" fill="#F2A64C"/>
<path d="M953.13 161.704C953.617 161.217 952.913 160.188 951.235 158.564C947.878 155.153 936.996 145.678 936.996 145.678C936.996 145.678 946.525 156.506 949.936 159.917C951.614 161.433 952.643 162.137 953.13 161.704Z" fill="#F2A64C"/>
<path d="M912.794 121.368C912.306 121.855 913.01 122.884 914.689 124.508C918.046 127.919 928.928 137.394 928.928 137.394C928.928 137.394 919.345 126.566 915.934 123.209C914.31 121.585 913.281 120.935 912.794 121.368Z" fill="#F2A64C"/>
<path d="M941.002 120.935C940.515 120.773 940.027 121.585 939.324 123.263C937.97 126.728 934.559 137.394 934.559 137.394C934.559 137.394 939.324 127.216 940.623 123.751C941.327 122.072 941.489 121.098 941.002 120.935Z" fill="#F2A64C"/>
<path d="M924.868 162.137C925.355 162.3 925.842 161.488 926.546 159.809C927.9 156.344 931.311 145.678 931.311 145.678C931.311 145.678 926.546 155.857 925.247 159.322C924.597 161 924.435 161.975 924.868 162.137Z" fill="#F2A64C"/>
<path d="M953.563 149.576C953.725 149.089 952.913 148.602 951.235 147.898C947.77 146.544 937.104 143.133 937.104 143.133C937.104 143.133 947.282 147.898 950.747 149.197C952.426 149.901 953.4 150.064 953.563 149.576Z" fill="#F2A64C"/>
<path d="M912.361 133.442C912.198 133.929 913.01 134.416 914.689 135.12C918.154 136.474 928.82 139.885 928.82 139.885C928.82 139.885 918.641 135.12 915.176 133.821C913.498 133.171 912.523 133.009 912.361 133.442Z" fill="#F2A64C"/>
<path d="M953.238 132.63C953.022 132.143 952.101 132.359 950.423 133.117C947.012 134.579 937.05 139.722 937.05 139.722C937.05 139.722 947.608 135.878 951.018 134.362C952.643 133.659 953.455 133.117 953.238 132.63Z" fill="#F2A64C"/>
<path d="M912.686 150.389C912.902 150.876 913.823 150.659 915.501 149.901C918.912 148.439 928.82 143.296 928.82 143.296C928.82 143.296 918.317 147.14 914.906 148.656C913.281 149.414 912.469 149.955 912.686 150.389Z" fill="#F2A64C"/>
<path d="M941.814 161.812C942.301 161.596 942.085 160.675 941.327 158.997C939.865 155.586 934.721 145.624 934.721 145.624C934.721 145.624 938.566 156.182 940.082 159.592C940.84 161.217 941.381 162.029 941.814 161.812Z" fill="#F2A64C"/>
<path d="M924.056 121.26C923.569 121.476 923.785 122.397 924.543 124.075C926.005 127.486 931.203 137.394 931.203 137.394C931.203 137.394 927.359 126.837 925.843 123.426C925.085 121.855 924.543 121.043 924.056 121.26Z" fill="#F2A64C"/>
<path d="M1031.64 55.659C1033.39 53.3244 1040.86 52.8607 1044.06 46.8484C1047.26 40.8362 1047.66 38.0379 1049.27 38.8374C1050.87 39.6369 1055.69 47.2482 1055.29 48.8472C1054.89 50.4462 1047.67 58.4572 1044.07 59.2567C1040.47 60.0562 1030.46 57.258 1031.66 55.659H1031.64Z" fill="#FFC801"/>
<path d="M154.183 378.256C154.183 378.256 159.703 390.051 159.442 390.793C159.181 391.535 146.636 392.799 146.395 391.796C146.154 390.793 143.144 380.763 142.381 380.001C141.618 379.239 154.183 378.236 154.183 378.236V378.256Z" fill="#8E0EC7"/>
<path d="M315.172 456.134C315.172 456.134 315.172 470.86 316.083 470.57C316.995 470.28 327.008 464.966 326.56 464.096C326.111 463.207 322.464 455.844 321.553 455.554C320.641 455.264 315.172 456.134 315.172 456.134Z" fill="#FFC801"/>
<path d="M73.9939 449.894C74.9743 451.468 66.6023 456.722 65.6149 455.155C67.2249 452.558 66.7744 449.481 65.9005 446.305C68.4263 448.295 71.1005 449.599 73.9869 449.902L73.9939 449.894Z" fill="url(#paint2_radial_673_69426)"/>
<path d="M70.7886 454.031C72.271 453.099 73.5488 451.807 74.728 450.092C74.8552 449.908 74.8058 449.647 74.6224 449.52C74.439 449.393 74.1778 449.443 74.0507 449.626C71.8476 452.845 69.2287 454.49 65.5587 454.958C65.3329 454.986 65.1705 455.191 65.1986 455.417C65.2268 455.642 65.4314 455.805 65.6572 455.776C67.6193 455.521 69.2991 454.956 70.7886 454.031Z" fill="url(#paint3_radial_673_69426)"/>
<path d="M67.2184 395.393C78.6586 413.639 76.5866 443.379 67.6923 448.958C58.7979 454.537 31.1373 443.439 19.7042 425.2C8.26404 406.954 13.1537 391.115 26.2764 382.889C39.3991 374.662 55.7712 377.154 67.2113 395.4L67.2184 395.393Z" fill="url(#paint4_radial_673_69426)"/>
<g style="mix-blend-mode:screen" opacity="0.29">
<path d="M50.1768 390.212C54.1273 394.431 55.0991 399.935 52.3458 402.505C49.5995 405.082 44.1729 403.736 40.2295 399.525C36.2789 395.306 35.3071 389.801 38.0604 387.231C40.8067 384.655 46.2333 386 50.1838 390.219L50.1768 390.212Z" fill="white"/>
</g>
<g style="mix-blend-mode:screen" opacity="0.29">
<path d="M63.8791 398.478C65.4593 400.171 65.8537 402.373 64.7523 403.404C63.651 404.435 61.4775 403.899 59.8973 402.206C58.3171 400.513 57.9227 398.311 59.0241 397.28C60.1254 396.25 62.2988 396.785 63.8791 398.478Z" fill="white"/>
</g>
<path d="M111.248 225.552C111.639 227.041 119.576 224.961 119.185 223.472C116.696 222.97 115.095 220.948 113.668 218.619C113.435 221.27 112.706 223.63 111.248 225.552Z" fill="url(#paint5_radial_673_69426)"/>
<path d="M115.575 225.964C114.17 226.333 112.658 226.37 110.962 226.112C110.777 226.085 110.65 225.906 110.677 225.721C110.703 225.536 110.883 225.409 111.068 225.436C114.26 225.932 116.743 225.283 119.116 223.329C119.259 223.207 119.475 223.229 119.597 223.376C119.718 223.524 119.697 223.735 119.549 223.857C118.281 224.902 116.986 225.594 115.581 225.964H115.575Z" fill="url(#paint6_radial_673_69426)"/>
<path d="M82.1575 190.506C86.6915 207.778 105.837 223.424 114.26 221.217C122.678 219.01 131.682 195.993 127.153 178.721C122.625 161.449 110.27 155.408 97.8466 158.661C85.4232 161.919 77.6289 173.234 82.1575 190.506Z" fill="url(#paint7_radial_673_69426)"/>
<g style="mix-blend-mode:screen" opacity="0.29">
<path d="M94.9078 185.554C98.0212 185.354 100.296 181.316 99.9878 176.534C99.6801 171.753 96.9067 168.039 93.7933 168.239C90.6799 168.439 88.4055 172.478 88.7133 177.259C89.021 182.041 91.7944 185.755 94.9078 185.554Z" fill="white"/>
</g>
<g style="mix-blend-mode:screen" opacity="0.29">
<path d="M85.9198 190.237C86.0414 192.154 87.1564 193.637 88.4035 193.558C89.6506 193.479 90.5647 191.858 90.4379 189.946C90.3164 188.03 89.2014 186.546 87.9543 186.625C86.7072 186.704 85.7983 188.32 85.9198 190.237Z" fill="white"/>
</g>
<path d="M158.519 121.231C157.65 122.927 148.604 118.288 149.473 116.591C152.618 116.651 155.094 114.626 157.45 112.191C157.021 115.464 157.271 118.507 158.529 121.231H158.519Z" fill="url(#paint8_radial_673_69426)"/>
<path d="M153.177 120.572C154.774 121.391 156.592 121.85 158.718 121.979C158.948 121.989 159.158 121.82 159.168 121.58C159.178 121.351 159.008 121.151 158.768 121.131C154.774 120.872 151.939 119.425 149.592 116.432C149.453 116.252 149.183 116.212 149.003 116.362C148.823 116.502 148.784 116.771 148.933 116.961C150.191 118.567 151.569 119.754 153.177 120.572Z" fill="url(#paint9_radial_673_69426)"/>
<path d="M203.111 86.5996C192.996 106.295 165.638 120.103 156.042 115.185C146.447 110.266 141.714 80.0045 151.819 60.3092C161.923 40.6139 178.488 36.6031 192.657 43.8666C206.825 51.1301 213.226 66.9043 203.111 86.5996Z" fill="url(#paint10_radial_673_69426)"/>
<g style="mix-blend-mode:screen" opacity="0.29">
<path d="M198.728 68.82C197.07 74.527 192.727 78.2785 189.012 77.2009C185.298 76.1234 183.631 70.6259 185.278 64.9288C186.936 59.2217 191.279 55.4703 194.993 56.5478C198.708 57.6254 200.375 63.1129 198.728 68.82Z" fill="white"/>
</g>
<g style="mix-blend-mode:screen" opacity="0.29">
<path d="M198.628 85.2725C197.969 87.5573 196.222 89.0639 194.734 88.6249C193.246 88.1958 192.577 85.9909 193.236 83.706C193.895 81.4212 195.642 79.9146 197.13 80.3536C198.618 80.7827 199.287 82.9877 198.628 85.2725Z" fill="white"/>
</g>
<path d="M1237.32 354.019C1238.14 355.33 1231.16 359.708 1230.34 358.403C1231.68 356.238 1231.31 353.674 1230.58 351.028C1232.68 352.685 1234.91 353.773 1237.32 354.025L1237.32 354.019Z" fill="url(#paint11_radial_673_69426)"/>
<path d="M1234.65 357.466C1235.89 356.689 1236.95 355.613 1237.94 354.183C1238.04 354.03 1238 353.813 1237.85 353.707C1237.69 353.601 1237.48 353.642 1237.37 353.795C1235.54 356.478 1233.35 357.849 1230.29 358.238C1230.11 358.262 1229.97 358.433 1229.99 358.621C1230.02 358.809 1230.19 358.944 1230.38 358.92C1232.01 358.708 1233.41 358.237 1234.65 357.466Z" fill="url(#paint12_radial_673_69426)"/>
<path d="M1231.68 308.601C1241.21 323.806 1239.49 348.59 1232.07 353.239C1224.66 357.888 1201.61 348.639 1192.08 333.44C1182.55 318.235 1186.62 305.036 1197.56 298.181C1208.5 291.325 1222.14 293.402 1231.67 308.607L1231.68 308.601Z" fill="url(#paint13_radial_673_69426)"/>
<g style="mix-blend-mode:screen" opacity="0.29">
<path d="M1217.48 304.284C1220.77 307.8 1221.58 312.387 1219.28 314.528C1217 316.676 1212.47 315.554 1209.19 312.044C1205.9 308.529 1205.09 303.942 1207.38 301.8C1209.67 299.653 1214.19 300.774 1217.48 304.29L1217.48 304.284Z" fill="white"/>
</g>
<g style="mix-blend-mode:screen" opacity="0.29">
<path d="M1228.9 311.172C1230.21 312.583 1230.54 314.418 1229.62 315.277C1228.71 316.136 1226.89 315.69 1225.58 314.279C1224.26 312.868 1223.93 311.033 1224.85 310.174C1225.77 309.315 1227.58 309.761 1228.9 311.172Z" fill="white"/>
</g>
<path d="M967.481 19.88C965.73 21.6131 974.963 30.9466 976.713 29.2135C975.417 25.3634 976.939 21.5269 979.024 17.687C975.165 19.4855 971.311 20.3632 967.481 19.88Z" fill="url(#paint14_radial_673_69426)"/>
<path d="M970.373 26.2064C968.736 24.5544 967.476 22.4898 966.477 19.9324C966.366 19.655 966.513 19.3357 966.79 19.2244C967.068 19.1132 967.387 19.2608 967.498 19.5382C969.364 24.3578 972.251 27.2796 976.856 29.0043C977.139 29.1049 977.283 29.422 977.175 29.7087C977.067 29.9953 976.758 30.135 976.471 30.0272C974.008 29.1062 972.014 27.8657 970.377 26.2137L970.373 26.2064Z" fill="url(#paint15_radial_673_69426)"/>
<path d="M992.77 -48.465C972.464 -28.365 966.101 10.6797 975.898 20.5855C985.69 30.4839 1024.79 24.5473 1045.1 4.45459C1065.41 -15.6381 1063.89 -37.5899 1049.45 -52.2021C1034.99 -66.8101 1013.08 -68.5577 992.77 -48.465Z" fill="url(#paint16_radial_673_69426)"/>
<path d="M1253.11 170.375C1254.18 172.467 1265.3 166.743 1264.23 164.65C1260.37 164.724 1257.32 162.225 1254.43 159.222C1254.95 163.259 1254.65 167.014 1253.1 170.375H1253.11Z" fill="url(#paint17_radial_673_69426)"/>
<path d="M1259.68 169.562C1257.71 170.572 1255.48 171.138 1252.87 171.298C1252.59 171.31 1252.33 171.101 1252.32 170.806C1252.3 170.522 1252.51 170.276 1252.81 170.252C1257.71 169.932 1261.2 168.147 1264.08 164.454C1264.25 164.232 1264.58 164.183 1264.81 164.367C1265.03 164.54 1265.08 164.872 1264.89 165.106C1263.35 167.088 1261.65 168.553 1259.68 169.562Z" fill="url(#paint18_radial_673_69426)"/>
<path d="M1198.33 127.646C1210.75 151.946 1244.37 168.984 1256.16 162.915C1267.95 156.846 1273.76 119.509 1261.35 95.209C1248.93 70.9088 1228.58 65.9602 1211.17 74.9219C1193.76 83.8837 1185.9 103.346 1198.33 127.646Z" fill="url(#paint19_radial_673_69426)"/>
<g style="mix-blend-mode:screen" opacity="0.29">
<path d="M1203.71 105.71C1205.75 112.751 1211.09 117.38 1215.65 116.05C1220.21 114.721 1222.26 107.938 1220.24 100.909C1218.2 93.8674 1212.86 89.2388 1208.3 90.5683C1203.74 91.8978 1201.69 98.6683 1203.71 105.71Z" fill="white"/>
</g>
<g style="mix-blend-mode:screen" opacity="0.29">
<path d="M1203.84 126.009C1204.64 128.828 1206.79 130.687 1208.62 130.145C1210.45 129.616 1211.27 126.896 1210.46 124.076C1209.65 121.257 1207.5 119.399 1205.68 119.94C1203.85 120.47 1203.03 123.19 1203.84 126.009Z" fill="white"/>
</g>
</g>
<defs>
<linearGradient id="paint0_linear_673_69426" x1="292.734" y1="514.786" x2="292.734" y2="325.447" gradientUnits="userSpaceOnUse">
<stop stop-color="#5233C3"/>
<stop offset="0.8967" stop-color="#2E1C6D" stop-opacity="0.1033"/>
<stop offset="1" stop-color="#291A64" stop-opacity="0"/>
</linearGradient>
<linearGradient id="paint1_linear_673_69426" x1="1224.44" y1="417.427" x2="1224.44" y2="265.304" gradientUnits="userSpaceOnUse">
<stop stop-color="#5233C3"/>
<stop offset="0.8967" stop-color="#2E1C6D" stop-opacity="0.1033"/>
<stop offset="1" stop-color="#291A64" stop-opacity="0"/>
</linearGradient>
<radialGradient id="paint2_radial_673_69426" cx="0" cy="0" r="1" gradientUnits="userSpaceOnUse" gradientTransform="translate(69.9251 459.215) rotate(147.901) scale(10.3933 10.3863)">
<stop offset="0.05" stop-color="#7BE5C5"/>
<stop offset="1" stop-color="#3ACE99"/>
</radialGradient>
<radialGradient id="paint3_radial_673_69426" cx="0" cy="0" r="1" gradientUnits="userSpaceOnUse" gradientTransform="translate(65.2729 449.049) rotate(147.901) scale(8.12696 8.12147)">
<stop offset="0.05" stop-color="#7BE5B8"/>
<stop offset="1" stop-color="#3ACE87"/>
</radialGradient>
<radialGradient id="paint4_radial_673_69426" cx="0" cy="0" r="1" gradientUnits="userSpaceOnUse" gradientTransform="translate(44.7805 397.126) rotate(147.901) scale(50.1595 50.1256)">
<stop offset="0.09" stop-color="#ABFFF0"/>
<stop offset="1" stop-color="#3ACEC5"/>
</radialGradient>
<radialGradient id="paint5_radial_673_69426" cx="0" cy="0" r="1" gradientUnits="userSpaceOnUse" gradientTransform="translate(119.189 228.374) rotate(-14.6794) scale(8.6183 8.61266)">
<stop stop-color="#F9C273"/>
<stop offset="1" stop-color="#C66C3C"/>
</radialGradient>
<radialGradient id="paint6_radial_673_69426" cx="0" cy="0" r="1" gradientUnits="userSpaceOnUse" gradientTransform="translate(115.69 219.786) rotate(-14.6794) scale(6.73717 6.73276)">
<stop stop-color="#F9C273"/>
<stop offset="1" stop-color="#C66C3C"/>
</radialGradient>
<radialGradient id="paint7_radial_673_69426" cx="0" cy="0" r="1" gradientUnits="userSpaceOnUse" gradientTransform="translate(95.9428 177.916) rotate(-14.6794) scale(41.5961 41.5689)">
<stop offset="0.24" stop-color="#F9C273"/>
<stop offset="1" stop-color="#C66C3C"/>
</radialGradient>
<radialGradient id="paint8_radial_673_69426" cx="0" cy="0" r="1" gradientUnits="userSpaceOnUse" gradientTransform="translate(148.127 122.513) rotate(-152.857) scale(10.6821 10.6774)">
<stop offset="0.05" stop-color="#8ECBFD"/>
<stop offset="1" stop-color="#4E4FFB"/>
</radialGradient>
<radialGradient id="paint9_radial_673_69426" cx="0" cy="0" r="1" gradientUnits="userSpaceOnUse" gradientTransform="translate(154.656 113.054) rotate(-152.857) scale(8.34602 8.34237)">
<stop offset="0.05" stop-color="#8ECBFD"/>
<stop offset="1" stop-color="#4E4FFB"/>
</radialGradient>
<radialGradient id="paint10_radial_673_69426" cx="0" cy="0" r="1" gradientUnits="userSpaceOnUse" gradientTransform="translate(189.781 67.6585) rotate(-152.857) scale(51.5437 51.5211)">
<stop offset="0.05" stop-color="#8ECBFD"/>
<stop offset="1" stop-color="#4E4FFB"/>
</radialGradient>
<radialGradient id="paint11_radial_673_69426" cx="0" cy="0" r="1" gradientUnits="userSpaceOnUse" gradientTransform="translate(1233.93 361.786) rotate(147.901) scale(8.66109 8.65524)">
<stop offset="0.05" stop-color="#E3E57B"/>
<stop offset="1" stop-color="#CBCE3A"/>
</radialGradient>
<radialGradient id="paint12_radial_673_69426" cx="0" cy="0" r="1" gradientUnits="userSpaceOnUse" gradientTransform="translate(1230.06 353.314) rotate(147.901) scale(6.77246 6.76789)">
<stop offset="0.05" stop-color="#C9E57B"/>
<stop offset="1" stop-color="#CBCE3A"/>
</radialGradient>
<radialGradient id="paint13_radial_673_69426" cx="0" cy="0" r="1" gradientUnits="userSpaceOnUse" gradientTransform="translate(1212.98 310.045) rotate(147.901) scale(41.7996 41.7713)">
<stop offset="0.09" stop-color="#FDFFAB"/>
<stop offset="1" stop-color="#CEAD3A"/>
</radialGradient>
<radialGradient id="paint14_radial_673_69426" cx="0" cy="0" r="1" gradientUnits="userSpaceOnUse" gradientTransform="translate(969.924 33.141) rotate(45.3206) scale(13.7893 13.7803)">
<stop stop-color="#F973F4"/>
<stop offset="1" stop-color="#BB3CC6"/>
</radialGradient>
<radialGradient id="paint15_radial_673_69426" cx="0" cy="0" r="1" gradientUnits="userSpaceOnUse" gradientTransform="translate(979.024 21.4236) rotate(45.3206) scale(10.7795 10.7724)">
<stop stop-color="#DE73F9"/>
<stop offset="1" stop-color="#B33CC6"/>
</radialGradient>
<radialGradient id="paint16_radial_673_69426" cx="0" cy="0" r="1" gradientUnits="userSpaceOnUse" gradientTransform="translate(1021.24 -39.4359) rotate(45.3206) scale(66.5537 66.5102)">
<stop offset="0.24" stop-color="#E673F9"/>
<stop offset="1" stop-color="#AA3CC6"/>
</radialGradient>
<radialGradient id="paint17_radial_673_69426" cx="0" cy="0" r="1" gradientUnits="userSpaceOnUse" gradientTransform="translate(1265.88 171.957) rotate(-27.2404) scale(13.1359 13.1623)">
<stop offset="0.05" stop-color="#8ECBFD"/>
<stop offset="1" stop-color="#4ED1FB"/>
</radialGradient>
<radialGradient id="paint18_radial_673_69426" cx="0" cy="0" r="1" gradientUnits="userSpaceOnUse" gradientTransform="translate(1257.86 160.286) rotate(-27.2404) scale(10.2632 10.2838)">
<stop offset="0.05" stop-color="#8ECBFD"/>
<stop offset="1" stop-color="#4EBDFB"/>
</radialGradient>
<radialGradient id="paint19_radial_673_69426" cx="0" cy="0" r="1" gradientUnits="userSpaceOnUse" gradientTransform="translate(1214.7 104.277) rotate(-27.2404) scale(63.3839 63.5114)">
<stop offset="0.05" stop-color="#8ECEFD"/>
<stop offset="1" stop-color="#4EA8FB"/>
</radialGradient>
<clipPath id="clip0_673_69426">
<rect width="1280" height="500" fill="white" transform="translate(0.742188 0.398438)"/>
</clipPath>
</defs>
</svg>
