<svg width="426" height="395" viewBox="0 0 426 395" fill="none" xmlns="http://www.w3.org/2000/svg">
<path d="M100.352 126.597C104.295 116.542 111 107.586 119.536 100.97C130.574 92.4141 145.419 87.8694 158.83 91.7644C168.361 94.5327 176.308 101.176 185.585 104.703C206.358 112.602 229.274 103.833 250.327 96.7142C283.316 85.559 319.207 78.3739 352.843 87.3913C381.861 95.1702 407.801 115.832 419.194 143.63C430.587 171.428 425.888 205.882 405.346 227.804C393.115 240.856 375.515 250.118 369.491 266.96C367.068 273.732 366.834 281.079 367.042 288.269C367.513 304.551 369.9 321.898 362.219 336.262C355.886 348.109 343.423 355.823 330.349 358.911C317.276 362 303.571 360.952 290.32 358.75C242.926 350.877 198.646 328.464 161.131 298.452C141.175 282.487 122.861 264.094 108.628 242.784C101.593 232.251 95.1896 220.845 90.9088 208.888C87.0767 198.183 93.1401 184.287 93.8628 172.918C94.8505 157.381 94.5754 141.324 100.352 126.597Z" fill="#AECDF3"/>
<path d="M208.421 140.137L202.313 138.944L182.373 241.037L188.481 242.23L208.421 140.137Z" fill="#F8FAFB"/>
<path d="M201.471 143.194L191.523 194.128C193.473 194.099 195.559 194.346 197.694 194.995L207.376 145.421L201.471 143.194Z" fill="#A7A9AC"/>
<path d="M240.195 191.628L153.476 174.69C149.249 173.865 146.467 169.731 147.292 165.504L157.64 112.525C158.466 108.298 162.599 105.515 166.826 106.341L253.545 123.278C257.772 124.103 260.554 128.237 259.729 132.464L249.381 185.443C248.555 189.67 244.422 192.454 240.195 191.628Z" fill="#F8FAFB"/>
<path d="M205.692 139.897C205.784 139.799 205.875 139.701 205.965 139.599C207.07 138.344 207.857 136.809 208.238 135.179C208.53 133.928 208.806 132.065 210.271 131.655C211.422 131.332 212.621 132.29 212.989 133.428C213.358 134.566 213.117 135.803 212.847 136.967C212.375 139.001 211.819 141.017 211.181 143.006C213.153 143.636 215.124 144.265 217.096 144.894C218.242 145.261 219.427 145.649 220.316 146.461C221.204 147.273 221.709 148.636 221.17 149.712C220.42 151.21 218.299 151.265 216.675 150.855C218.503 151.434 219.818 153.458 219.393 155.327C218.967 157.195 216.678 158.456 214.945 157.64C216.184 157.945 216.874 159.44 216.563 160.676C216.251 161.913 215.163 162.84 213.965 163.274C212.766 163.71 211.461 163.728 210.187 163.693C205.306 163.562 200.444 162.727 195.8 161.222C195.109 160.997 194.397 160.744 193.878 160.237C193.32 159.693 193.047 158.917 192.92 158.149C192.54 155.844 193.309 153.512 194.214 151.359C194.986 149.522 195.865 147.732 196.846 145.998C197.376 145.061 197.949 144.125 198.762 143.419C199.863 142.465 201.121 142.754 202.365 142.214C203.612 141.673 204.752 140.881 205.692 139.897Z" fill="#2456A2"/>
<path d="M190.911 157.11C191.019 157.952 191.062 158.841 190.501 159.296C190.047 159.663 189.391 159.579 188.816 159.475C187.85 159.3 186.882 159.124 185.915 158.949C185.589 158.89 185.251 158.826 184.98 158.634C184.448 158.258 184.337 157.524 184.306 156.874C184.058 151.828 185.817 146.71 189.117 142.884C189.511 142.427 189.955 141.971 190.534 141.802C190.982 141.672 191.462 141.731 191.925 141.792C193.046 141.938 194.2 142.019 195.311 142.234C196.041 142.375 196.766 142.406 196.253 143.294C195.707 144.238 194.884 145.075 194.302 146.019C193.217 147.776 192.204 149.593 191.537 151.547C191.076 152.897 190.783 154.317 190.761 155.746C190.758 156.113 190.846 156.603 190.911 157.11Z" fill="#2456A2"/>
<path d="M317.146 346.217C317.146 346.217 327.212 353.946 321.582 368.63C317.166 380.145 312.705 382.075 292.038 384.345C269.781 386.789 202.439 394.292 202.439 394.292C202.439 394.292 183.207 395.787 165.253 374.803C147.299 353.817 10.5756 195.588 10.5756 195.588C10.5756 195.588 -1.38669 182.946 0.272028 173.721C1.92973 164.495 1.98151 156.094 18.5007 155.738C35.0199 155.381 115.204 154.833 115.204 154.833C115.204 154.833 129.493 152.068 148.849 171.826C168.208 191.583 317.146 346.217 317.146 346.217Z" fill="#34414C"/>
<path d="M321.582 368.629C317.166 380.145 312.705 382.075 292.038 384.345C269.781 386.789 202.439 394.292 202.439 394.292C202.439 394.292 183.207 395.787 165.253 374.802C147.299 353.817 10.5756 195.588 10.5756 195.588C10.5756 195.588 -1.38669 182.946 0.272028 173.721C1.62824 166.173 1.91552 159.182 11.0151 156.691C3.92852 163.765 13.357 171.517 13.357 171.517C13.357 171.517 163.818 343.265 178.502 359.23C193.186 375.196 212.867 373.194 212.867 373.194C212.867 373.194 291.005 365.278 311.78 363.352C317.929 362.782 321.245 359.866 322.876 356.014C323.597 359.383 323.511 363.597 321.582 368.629Z" fill="#1B242B"/>
<path d="M240.09 346.057C238.743 350.204 243.198 355.368 250.039 357.59C256.881 359.813 263.52 358.254 264.867 354.107C266.215 349.96 261.76 344.796 254.918 342.574C248.076 340.35 241.437 341.91 240.09 346.057Z" fill="#1B242B"/>
<path d="M295.973 331.643L171.56 341.514L31.4202 183.074L148.698 179.686L295.973 331.643Z" fill="#B9E5FA"/>
<path d="M90.4277 231.189L181.396 223.813C182.284 223.741 183.157 224.069 183.777 224.707L219.871 261.803C221.535 263.513 220.619 266.387 218.274 266.819L130.989 282.945C129.95 283.136 128.886 282.764 128.192 281.966L88.4147 236.12C86.8118 234.272 87.9893 231.386 90.4277 231.189Z" fill="white"/>
<path d="M88.7223 232.803L165.727 247.976L183.777 224.707" stroke="#B29CE5" stroke-miterlimit="10"/>
<g opacity="0.2">
<path d="M105.961 180.92L124.286 180.39L134.823 299.98L113.922 276.348L105.961 180.92Z" fill="white"/>
</g>
<g opacity="0.3">
<path d="M148.781 315.76L132.339 180.158L148.698 179.686L175.827 207.677L194.136 339.722L171.56 341.514L148.781 315.76Z" fill="white"/>
</g>
<path d="M58.6389 168.822C58.3415 169.738 59.6246 170.975 61.5056 171.586C63.3867 172.197 65.152 171.951 65.4494 171.035C65.7468 170.119 64.4637 168.882 62.5827 168.271C60.7016 167.66 58.9363 167.906 58.6389 168.822Z" fill="#1B242B"/>
<path d="M96.0525 167.384C95.5388 168.964 97.7538 171.101 101 172.156C104.247 173.21 107.295 172.784 107.808 171.203C108.321 169.623 106.105 167.487 102.859 166.432C99.6145 165.378 96.5661 165.803 96.0525 167.384Z" fill="#1B242B"/>
<path d="M52.1675 172.225L33.0099 172.639C33.0099 172.639 29.3778 173.044 28.649 171.222C27.9201 169.4 28.7799 168.886 31.401 168.747C34.022 168.608 49.1749 168.626 49.1749 168.626C49.1749 168.626 53.1481 167.984 54.2637 169.735C55.3803 171.485 54.1378 172.182 52.1675 172.225Z" fill="#1B242B"/>
<path d="M133.283 170.305L114.126 170.719C114.126 170.719 110.494 171.124 109.765 169.302C109.036 167.48 109.896 166.966 112.518 166.827C115.139 166.688 130.292 166.706 130.292 166.706C130.292 166.706 134.265 166.065 135.381 167.815C136.496 169.565 135.253 170.261 133.283 170.305Z" fill="#1B242B"/>
<path d="M26.7658 205.718L32.0344 211.715C33.3408 213.202 35.6665 213.17 36.9313 211.647C37.9434 210.428 37.918 208.654 36.8735 207.465L31.6039 201.467C30.2975 199.98 27.9718 200.013 26.707 201.535C25.6959 202.755 25.7203 204.528 26.7658 205.718Z" fill="#34414C"/>
<path d="M84.473 192.725L102.543 190.025C102.543 190.025 128.921 195.34 135.614 168.765L70.851 160.891C70.851 160.891 73.2132 175.851 86.4017 182.545L84.473 192.725Z" fill="#D1D3D4"/>
<path d="M301.362 164.373L411.012 149.962C413.834 149.591 415.936 152.506 414.693 155.066L372.925 241.135C372.925 241.135 308.634 263.468 241.635 243.165C241.635 243.165 280.513 218.785 298.448 166.771C298.892 165.485 300.013 164.549 301.362 164.373Z" fill="white"/>
<path d="M414.693 155.066C415.936 152.506 413.833 149.59 411.011 149.962L301.362 164.373C300.013 164.55 298.891 165.485 298.448 166.772C296.901 171.258 295.189 175.525 293.369 179.602L409.605 165.551L414.693 155.066Z" fill="#2456A2"/>
<path d="M388.779 159.797C388.851 160.902 388.226 161.842 387.382 161.898C386.539 161.952 385.797 161.102 385.724 159.997C385.651 158.893 386.277 157.953 387.12 157.897C387.964 157.842 388.707 158.693 388.779 159.797Z" fill="white"/>
<path d="M394.889 159.397C394.961 160.502 394.336 161.442 393.492 161.498C392.649 161.552 391.907 160.702 391.834 159.597C391.762 158.493 392.387 157.553 393.23 157.497C394.074 157.442 394.816 158.293 394.889 159.397Z" fill="white"/>
<path d="M400.998 158.999C401.07 160.103 400.445 161.043 399.601 161.099C398.758 161.154 398.016 160.303 397.943 159.199C397.87 158.094 398.496 157.153 399.339 157.098C400.184 157.042 400.926 157.893 400.998 158.999Z" fill="white"/>
<path d="M296.994 188.616C297.407 188.616 389.721 178.71 389.721 178.71" stroke="#2456A2" stroke-width="0.5669" stroke-miterlimit="10" stroke-linecap="round" stroke-linejoin="round"/>
<path d="M294.243 197.283L385.595 187.791" stroke="#2456A2" stroke-width="0.5669" stroke-miterlimit="10" stroke-linecap="round" stroke-linejoin="round"/>
<path d="M289.979 206.777L378.44 198.247" stroke="#2456A2" stroke-width="0.5669" stroke-miterlimit="10" stroke-linecap="round" stroke-linejoin="round"/>
<path d="M282.962 216.819C282.962 216.819 354.64 210.903 373.763 208.564" stroke="#2456A2" stroke-width="0.5669" stroke-miterlimit="10" stroke-linecap="round" stroke-linejoin="round"/>
<path d="M275.67 225.9C276.083 225.9 319.145 226.313 368.397 219.158" stroke="#2456A2" stroke-width="0.5669" stroke-miterlimit="10" stroke-linecap="round" stroke-linejoin="round"/>
<path d="M267.14 233.878C267.14 233.878 299.333 240.482 361.243 230.439" stroke="#2456A2" stroke-width="0.5669" stroke-miterlimit="10" stroke-linecap="round" stroke-linejoin="round"/>
<path d="M297.893 182.137L279.842 194.998L217.319 107.239C213.782 102.275 214.95 95.3205 219.914 91.7838C224.878 88.2471 231.834 89.4145 235.37 94.3795L297.893 182.137Z" fill="#FBCE67"/>
<path d="M227.707 95.1982L220.892 100.054L289.982 197.016L296.797 192.16L227.707 95.1982Z" fill="#E5B553"/>
<path d="M219.914 91.7838C214.95 95.3205 213.783 102.275 217.319 107.239L218.85 109.388C222.938 106.888 232.113 101.195 237.42 97.2573L235.37 94.3795C231.833 89.4145 224.878 88.2471 219.914 91.7838Z" fill="#EA4E4E"/>
<path d="M217.319 107.239L218.85 109.388C220.136 108.602 221.926 107.499 223.939 106.234C220.995 100.292 219.84 95.616 219.634 92.0042C214.916 95.6018 213.852 102.373 217.319 107.239Z" fill="#C64646"/>
<path d="M279.843 194.997L298.735 205.549C299.92 206.189 301.327 205.202 301.129 203.871L297.894 182.137C297.894 182.137 284.634 182.446 279.843 194.997Z" fill="#FFE8BB"/>
<path d="M301.129 203.871L300.003 196.311C295.579 197.328 293.1 199.747 291.782 201.667L298.734 205.549C299.919 206.189 301.326 205.203 301.129 203.871Z" fill="#23201A"/>
<path d="M217.858 107.996L226.001 119.426C229.796 117.403 237.934 112.707 244.106 106.641L235.948 95.1907C233.379 97.8331 227.62 102.994 217.858 107.996Z" fill="#23201A"/>
<path d="M219.782 109.868C219.782 109.868 229.997 105.756 237.138 97.5029" stroke="#FBCE67" stroke-width="0.2634" stroke-miterlimit="10" stroke-linecap="round" stroke-linejoin="round"/>
<path d="M221.852 112.775C221.852 112.775 232.065 108.662 239.209 100.409" stroke="#FBCE67" stroke-width="0.2634" stroke-miterlimit="10" stroke-linecap="round" stroke-linejoin="round"/>
<path d="M223.923 115.681C223.923 115.681 234.137 111.569 241.279 103.316" stroke="#FBCE67" stroke-width="0.2634" stroke-miterlimit="10" stroke-linecap="round" stroke-linejoin="round"/>
<path d="M143.701 184.499L145.219 187.082C145.34 187.287 145.553 187.42 145.791 187.436L148.78 187.65C149.378 187.692 149.668 188.402 149.27 188.849L147.282 191.093C147.125 191.271 147.064 191.515 147.122 191.746L147.842 194.655C147.986 195.237 147.401 195.731 146.852 195.491L144.105 194.295C143.886 194.199 143.636 194.217 143.434 194.344L140.89 195.929C140.381 196.246 139.73 195.842 139.788 195.246L140.078 192.263C140.101 192.027 140.006 191.793 139.824 191.64L137.531 189.71C137.072 189.325 137.256 188.58 137.84 188.451L140.767 187.805C140.999 187.753 141.191 187.592 141.281 187.37L142.407 184.593C142.633 184.039 143.397 183.983 143.701 184.499Z" fill="#FBB040"/>
<path d="M266.972 108.793L268.49 111.377C268.611 111.582 268.824 111.715 269.062 111.731L272.052 111.944C272.649 111.987 272.939 112.696 272.541 113.144L270.553 115.387C270.396 115.565 270.335 115.81 270.393 116.041L271.114 118.949C271.258 119.531 270.673 120.025 270.123 119.786L267.376 118.589C267.158 118.494 266.907 118.512 266.705 118.638L264.161 120.222C263.652 120.539 263.002 120.135 263.06 119.539L263.349 116.557C263.372 116.32 263.277 116.087 263.095 115.933L260.802 114.004C260.343 113.618 260.526 112.874 261.111 112.745L264.038 112.098C264.271 112.048 264.462 111.885 264.552 111.664L265.678 108.886C265.904 108.333 266.667 108.276 266.972 108.793Z" fill="#FBB040"/>
<path d="M336.247 321.851L337.267 324.669C337.349 324.893 337.534 325.062 337.765 325.123L340.664 325.88C341.244 326.032 341.398 326.782 340.925 327.15L338.56 328.991C338.372 329.137 338.268 329.366 338.283 329.604L338.458 332.595C338.494 333.193 337.828 333.572 337.331 333.236L334.85 331.556C334.653 331.423 334.404 331.395 334.181 331.481L331.391 332.572C330.833 332.79 330.267 332.274 330.434 331.698L331.265 328.819C331.331 328.591 331.28 328.344 331.13 328.16L329.23 325.843C328.85 325.38 329.166 324.682 329.765 324.662L332.76 324.563C332.998 324.555 333.217 324.431 333.345 324.23L334.961 321.706C335.282 321.203 336.043 321.288 336.247 321.851Z" fill="#FBB040"/>
<path d="M379.805 131.872L380.825 134.69C380.907 134.913 381.092 135.083 381.323 135.144L384.222 135.901C384.802 136.052 384.956 136.802 384.483 137.171L382.118 139.011C381.93 139.157 381.826 139.387 381.841 139.624L382.016 142.616C382.052 143.214 381.386 143.593 380.889 143.257L378.408 141.577C378.211 141.444 377.962 141.415 377.739 141.501L374.949 142.593C374.391 142.811 373.825 142.294 373.992 141.719L374.823 138.84C374.889 138.611 374.838 138.365 374.688 138.181L372.788 135.863C372.408 135.401 372.724 134.702 373.323 134.683L376.318 134.583C376.556 134.575 376.775 134.451 376.903 134.25L378.519 131.727C378.84 131.224 379.601 131.309 379.805 131.872Z" fill="white"/>
<path d="M360.837 262.31L361.369 263.782C361.412 263.899 361.509 263.987 361.629 264.018L363.144 264.414C363.446 264.493 363.528 264.885 363.28 265.078L362.045 266.04C361.946 266.117 361.892 266.236 361.899 266.36L361.991 267.923C362.009 268.236 361.661 268.434 361.402 268.258L360.106 267.38C360.003 267.31 359.872 267.296 359.756 267.341L358.298 267.911C358.006 268.025 357.711 267.756 357.797 267.454L358.232 265.95C358.266 265.83 358.24 265.701 358.161 265.606L357.168 264.395C356.969 264.153 357.134 263.788 357.447 263.778L359.012 263.726C359.136 263.722 359.251 263.657 359.318 263.552L360.162 262.234C360.332 261.971 360.73 262.015 360.837 262.31Z" fill="white"/>
<path d="M114.724 316.384L115.832 340.065L57.369 358.004L112.315 316.045L114.724 316.384Z" fill="#DAC7FF"/>
<path d="M57.5081 358.004L112.454 316.045L85.6241 313.264L57.5081 358.004Z" fill="white"/>
<path d="M57.5081 358.004L114.863 316.384L161.051 321.967L57.5081 358.004Z" fill="white"/>
<path d="M119.759 312.118C120.123 311.806 120.484 311.489 120.841 311.168" stroke="#383838" stroke-linecap="round" stroke-linejoin="round"/>
<path d="M122.931 309.198C132.687 299.564 139.235 286.703 141.193 273.125C141.567 270.534 141.768 267.821 140.88 265.359C138.876 259.806 131.301 257.525 126.105 260.329C120.91 263.133 118.527 269.825 119.848 275.579C121.169 281.333 125.64 286.027 130.927 288.653C136.214 291.279 142.247 292.048 148.15 292.015C160.076 291.949 172.217 288.581 181.537 281.141C190.107 274.3 195.989 263.789 196.272 252.89" stroke="#383838" stroke-linecap="round" stroke-linejoin="round" stroke-dasharray="2.83 2.83"/>
<path d="M196.278 251.456C196.269 250.978 196.249 250.499 196.217 250.019" stroke="#383838" stroke-linecap="round" stroke-linejoin="round"/>
<path d="M105.506 185.019C125.689 185.019 142.051 168.658 142.051 148.475C142.051 128.292 125.689 111.93 105.506 111.93C85.3233 111.93 68.9617 128.292 68.9617 148.475C68.9617 168.658 85.3233 185.019 105.506 185.019Z" fill="#EA4E4E"/>
<path d="M91.0245 175.908L84.4729 192.725L111.336 180.713L91.0245 175.908Z" fill="#EA4E4E"/>
<path d="M120.401 139.617C116.004 132.16 105.883 138.626 105.839 138.664C105.795 138.626 95.6748 132.159 91.2762 139.617C85.2362 149.859 105.747 162.175 105.837 162.228V162.23L105.839 162.229L105.841 162.23V162.228C105.931 162.175 126.44 149.859 120.401 139.617Z" fill="white"/>
<path d="M322.768 280.275L324.621 285.975C324.835 286.636 325.451 287.083 326.144 287.083H332.138C333.691 287.083 334.336 289.069 333.08 289.981L328.231 293.504C327.669 293.912 327.434 294.635 327.648 295.295L329.5 300.995C329.98 302.472 328.29 303.699 327.035 302.787L322.186 299.264C321.625 298.856 320.864 298.856 320.302 299.264L315.453 302.787C314.197 303.699 312.508 302.472 312.987 300.995L314.839 295.295C315.053 294.635 314.818 293.912 314.257 293.504L309.407 289.981C308.151 289.069 308.797 287.083 310.35 287.083H316.344C317.038 287.083 317.654 286.636 317.868 285.975L319.72 280.275C320.201 278.799 322.289 278.799 322.768 280.275Z" fill="#FFF3A7" stroke="#1F2F6D" stroke-miterlimit="10"/>
<path d="M73.3925 93.3593C75.5297 84.3737 69.978 75.3569 60.9924 73.2197C52.0068 71.0826 42.99 76.6343 40.8529 85.6199C38.7157 94.6054 44.2674 103.622 53.253 105.759C62.2385 107.897 71.2553 102.345 73.3925 93.3593Z" fill="#FFD649"/>
<path d="M57.112 74.4181C66.073 74.4181 73.387 81.4661 73.814 90.3211C73.827 90.0491 73.835 89.7761 73.835 89.5011C73.835 80.2651 66.348 72.7781 57.112 72.7781C47.876 72.7781 40.389 80.2651 40.389 89.5011C40.389 89.7761 40.397 90.0491 40.41 90.3211C40.837 81.4671 48.151 74.4181 57.112 74.4181Z" fill="#F9E4B2"/>
<path d="M71.3519 93.3701C68.4469 97.4611 63.9169 100.253 58.7359 100.74C58.5969 100.754 58.4559 100.762 58.3159 100.773C58.0589 100.791 57.8009 100.802 57.5409 100.809C57.3969 100.813 57.2559 100.829 57.1109 100.829C56.9659 100.829 56.8249 100.813 56.6809 100.809C56.4209 100.803 56.1629 100.791 55.9059 100.773C55.7659 100.762 55.6249 100.754 55.4859 100.74C50.3059 100.253 45.7749 97.4611 42.8699 93.3701C42.5069 92.8581 41.6979 93.2431 41.8699 93.8471C43.7579 100.487 49.8649 105.351 57.1109 105.351C64.3569 105.351 70.4629 100.487 72.3519 93.8471C72.5239 93.2431 71.7159 92.8581 71.3519 93.3701Z" fill="#F7BF43"/>
<path d="M52.8109 87.1852C52.5299 87.1852 52.2509 87.0652 52.0569 86.8332L50.3199 84.7612L48.5829 86.8332C48.2329 87.2492 47.6149 87.3042 47.1969 86.9552C46.7809 86.6062 46.7259 85.9852 47.0749 85.5692L49.5659 82.5982C49.9399 82.1522 50.6999 82.1522 51.0739 82.5982L53.5649 85.5692C53.9139 85.9852 53.8599 86.6062 53.4429 86.9552C53.2579 87.1092 53.0339 87.1852 52.8109 87.1852Z" fill="#5C532C"/>
<path d="M66.3959 87.1852C66.1149 87.1852 65.8359 87.0652 65.6419 86.8332L63.9049 84.7612L62.1679 86.8332C61.8199 87.2492 61.1999 87.3042 60.7819 86.9552C60.3659 86.6062 60.3109 85.9852 60.6599 85.5692L63.1509 82.5982C63.5249 82.1522 64.2849 82.1522 64.6589 82.5982L67.1499 85.5692C67.4989 85.9852 67.4449 86.6062 67.0279 86.9552C66.8429 87.1092 66.6179 87.1852 66.3959 87.1852Z" fill="#5C532C"/>
<path d="M46.947 92.2642C48.527 96.7582 52.468 99.9582 57.112 99.9582C61.756 99.9582 65.6969 96.7582 67.2769 92.2642H46.947Z" fill="white"/>
<path d="M125.09 49.3748L126.858 54.8166C127.063 55.4467 127.65 55.8735 128.313 55.8735H134.034C135.515 55.8735 136.132 57.7696 134.933 58.6403L130.304 62.0032C129.768 62.3926 129.544 63.083 129.749 63.7131L131.517 69.1549C131.974 70.5638 130.362 71.7355 129.163 70.8648L124.534 67.5019C123.998 67.1125 123.272 67.1125 122.736 67.5019L118.107 70.8648C116.908 71.7355 115.296 70.5638 115.753 69.1549L117.521 63.7131C117.726 63.083 117.501 62.3926 116.965 62.0032L112.336 58.6403C111.137 57.7696 111.754 55.8735 113.235 55.8735H118.956C119.619 55.8735 120.206 55.4467 120.411 54.8166L122.179 49.3748C122.639 47.9659 124.632 47.9659 125.09 49.3748Z" fill="#FCE001" stroke="#1F2F6D" stroke-miterlimit="10"/>
<path d="M328.841 114.171C326.267 114.171 324.029 115.842 322.878 118.303C321.727 115.84 319.487 114.171 316.915 114.171C313.164 114.171 310.125 117.717 310.125 122.092C310.125 128.686 320.859 135.87 322.879 136.766C324.996 135.77 335.633 130.15 335.633 122.092C335.631 117.717 332.591 114.171 328.841 114.171Z" fill="#FF6666" stroke="#1F2F6D" stroke-miterlimit="10" stroke-linecap="round" stroke-linejoin="round"/>
<path d="M201.174 70.3506C220.502 70.3506 236.171 54.6816 236.171 35.3529C236.171 16.0242 220.502 0.355225 201.174 0.355225C181.845 0.355225 166.176 16.0242 166.176 35.3529C166.176 54.6816 181.845 70.3506 201.174 70.3506Z" fill="#FFD649"/>
<path d="M201.178 3.78377C219.931 3.78377 235.238 18.5339 236.132 37.0657C236.159 36.4965 236.176 35.9251 236.176 35.3496C236.176 16.0204 220.507 0.351562 201.178 0.351562C181.849 0.351562 166.18 16.0204 166.18 35.3496C166.18 35.9251 166.196 36.4965 166.224 37.0657C167.117 18.536 182.424 3.78377 201.178 3.78377Z" fill="#F9E4B2"/>
<path d="M230.98 43.4468C224.9 52.0085 215.42 57.8516 204.577 58.8708C204.286 58.9001 203.991 58.9169 203.698 58.9399C203.16 58.9776 202.62 59.0006 202.076 59.0152C201.774 59.0236 201.479 59.0571 201.176 59.0571C200.872 59.0571 200.577 59.0236 200.276 59.0152C199.732 59.0027 199.192 58.9776 198.654 58.9399C198.361 58.9169 198.066 58.9001 197.775 58.8708C186.934 57.8516 177.452 52.0085 171.372 43.4468C170.613 42.3753 168.919 43.181 169.279 44.4451C173.231 58.3414 186.011 68.5208 201.176 68.5208C216.34 68.5208 229.119 58.3414 233.072 44.4451C233.432 43.181 231.741 42.3753 230.98 43.4468Z" fill="#F7BF43"/>
<path d="M181.344 29.8331C181.097 29.8331 180.846 29.7892 180.601 29.6929C179.54 29.2827 179.013 28.0919 179.423 27.0308C180.499 24.2495 183.111 22.4539 186.08 22.4539C189.048 22.4539 191.662 24.2495 192.736 27.0287C193.148 28.0898 192.62 29.2806 191.559 29.6908C190.498 30.1031 189.305 29.5757 188.895 28.5146C188.437 27.3343 187.332 26.5704 186.078 26.5704C184.823 26.5704 183.718 27.3322 183.261 28.5125C182.947 29.3329 182.169 29.8331 181.344 29.8331Z" fill="#5C532C"/>
<path d="M211.537 29.8331C211.29 29.8331 211.039 29.7892 210.794 29.6929C209.733 29.2827 209.206 28.0919 209.616 27.0308C210.692 24.2495 213.304 22.4539 216.273 22.4539C219.241 22.4539 221.855 24.2495 222.929 27.0287C223.341 28.0898 222.813 29.2806 221.752 29.6908C220.693 30.1031 219.498 29.5757 219.088 28.5146C218.63 27.3343 217.525 26.5704 216.271 26.5704C215.018 26.5704 213.911 27.3322 213.457 28.5125C213.143 29.3329 212.364 29.8331 211.537 29.8331Z" fill="#5C532C"/>
<path d="M201.178 55.6626C194.265 55.6626 188.177 51.477 185.67 44.9955C185.26 43.9345 185.787 42.7437 186.849 42.3335C187.905 41.9275 189.1 42.4507 189.511 43.5117C191.398 48.3922 195.977 51.546 201.176 51.546C206.374 51.546 210.956 48.3922 212.841 43.5117C213.254 42.4507 214.451 41.9275 215.505 42.3335C216.566 42.7437 217.094 43.9366 216.684 44.9955C214.179 51.477 208.091 55.6626 201.178 55.6626Z" fill="#5C532C"/>
<path d="M301.133 66.0109C310.369 66.0109 317.856 58.5238 317.856 49.2879C317.856 40.0521 310.369 32.5649 301.133 32.5649C291.897 32.5649 284.41 40.0521 284.41 49.2879C284.41 58.5238 291.897 66.0109 301.133 66.0109Z" fill="#FFD649"/>
<path d="M301.133 34.204C310.094 34.204 317.408 41.252 317.835 50.107C317.848 49.835 317.856 49.562 317.856 49.287C317.856 40.051 310.369 32.564 301.133 32.564C291.897 32.564 284.41 40.051 284.41 49.287C284.41 49.562 284.418 49.835 284.431 50.107C284.858 41.253 292.172 34.204 301.133 34.204Z" fill="#F9E4B2"/>
<path d="M315.373 53.156C312.468 57.247 307.938 60.039 302.757 60.526C302.618 60.54 302.477 60.548 302.337 60.559C302.08 60.577 301.822 60.588 301.562 60.595C301.418 60.599 301.277 60.615 301.132 60.615C300.987 60.615 300.846 60.599 300.702 60.595C300.442 60.589 300.184 60.577 299.927 60.559C299.787 60.548 299.646 60.54 299.507 60.526C294.327 60.039 289.796 57.247 286.891 53.156C286.528 52.644 285.719 53.029 285.891 53.633C287.779 60.273 293.886 65.137 301.132 65.137C308.378 65.137 314.484 60.273 316.373 53.633C316.545 53.029 315.737 52.644 315.373 53.156Z" fill="#F7BF43"/>
<path d="M291.656 46.651C291.538 46.651 291.418 46.63 291.301 46.584C290.794 46.388 290.542 45.819 290.738 45.312C291.252 43.983 292.5 43.125 293.919 43.125C295.337 43.125 296.586 43.983 297.099 45.311C297.296 45.818 297.044 46.387 296.537 46.584C296.03 46.781 295.46 46.529 295.264 46.022C295.045 45.458 294.517 45.093 293.918 45.093C293.319 45.093 292.79 45.457 292.572 46.021C292.422 46.412 292.05 46.651 291.656 46.651Z" fill="#5C532C"/>
<path d="M298.934 60.1841C298.84 60.1841 298.745 60.1711 298.65 60.1421C297.299 59.7361 296.392 58.6521 296.392 57.4441C296.392 56.7941 296.655 56.1801 297.107 55.6881C296.654 55.1961 296.392 54.5821 296.392 53.9321C296.392 52.7241 297.3 51.6401 298.65 51.2341C299.166 51.0771 299.719 51.3721 299.875 51.8931C300.031 52.4131 299.736 52.9621 299.216 53.1181C298.711 53.2691 298.359 53.6041 298.359 53.9321C298.359 54.2601 298.711 54.5941 299.215 54.7461C299.631 54.8711 299.916 55.2531 299.916 55.6881C299.916 56.1221 299.631 56.5051 299.215 56.6301C298.71 56.7811 298.358 57.1161 298.358 57.4441C298.358 57.7711 298.71 58.1061 299.215 58.2581C299.735 58.4141 300.03 58.9631 299.874 59.4831C299.747 59.9091 299.356 60.1841 298.934 60.1841Z" fill="#5C532C"/>
<path d="M306.083 46.651C305.965 46.651 305.845 46.63 305.728 46.584C305.221 46.388 304.969 45.819 305.165 45.312C305.679 43.983 306.927 43.125 308.346 43.125C309.764 43.125 311.013 43.983 311.526 45.311C311.723 45.818 311.471 46.387 310.964 46.584C310.457 46.781 309.888 46.529 309.692 46.022C309.473 45.458 308.945 45.093 308.346 45.093C307.747 45.093 307.218 45.457 307 46.021C306.85 46.412 306.478 46.651 306.083 46.651Z" fill="#5C532C"/>
<path d="M292.753 50.1199C290.215 49.9249 289.434 51.9879 289.434 51.9879C289.434 51.9879 288.653 49.9249 286.115 50.1199C283.577 50.3149 281.991 55.3309 289.434 59.6009C296.877 55.3309 295.291 50.3159 292.753 50.1199Z" fill="#FF6363"/>
<path d="M284.383 52.476C284.383 52.476 284.722 50.633 286.042 50.426C287.362 50.22 288.36 51.109 288.36 51.28C288.36 51.451 287.079 50.865 286.115 51.085C284.855 51.373 284.335 53.452 284.383 52.476Z" fill="#FFA9A9"/>
<path d="M289.715 52.2319C289.715 52.2319 290.335 50.6329 291.655 50.4259C292.975 50.2199 294.132 51.0969 294.132 51.2679C294.132 51.4389 293.037 50.7919 291.728 51.0849C290.313 51.4019 289.666 53.2079 289.715 52.2319Z" fill="#FFA9A9"/>
</svg>
