<svg width="365" height="261" viewBox="0 0 365 261" fill="none" xmlns="http://www.w3.org/2000/svg">
<path d="M167.132 166.169C163.227 164.517 159.112 162.85 154.562 161.108L155.403 158.931C159.968 160.688 164.113 162.355 168.048 164.022L167.132 166.169Z" fill="white"/>
<path d="M141.857 156.378C137.607 154.831 133.342 153.329 129.062 151.812L129.843 149.605C134.123 151.121 138.388 152.638 142.653 154.17L141.857 156.378Z" fill="white"/>
<path d="M116.252 147.247C111.462 145.52 107.287 143.973 103.487 142.531L104.313 140.339C108.098 141.781 112.258 143.327 117.033 145.039L116.237 147.247H116.252Z" fill="white"/>
<path d="M90.8424 137.486C88.0191 136.299 85.2708 135.113 82.6878 133.941C81.2461 133.296 79.8194 132.635 78.3777 131.944L79.3839 129.827C80.8106 130.502 82.2223 131.163 83.6489 131.809C86.2169 132.965 88.9502 134.152 91.7434 135.323L90.8424 137.486Z" fill="white"/>
<path d="M66.2135 125.712C62.1587 123.474 58.2091 121.116 54.4847 118.698L55.7612 116.731C59.4405 119.119 63.3451 121.447 67.3548 123.654L66.2285 125.697L66.2135 125.712Z" fill="white"/>
<path d="M43.2816 110.829C39.5873 107.991 36.0581 105.032 32.7993 102.029L34.3912 100.317C37.605 103.275 41.074 106.189 44.7083 108.982L43.2816 110.844V110.829Z" fill="white"/>
<path d="M23.2331 92.2225C20.1695 88.7083 17.3462 85.0591 14.8382 81.3647L16.7755 80.0582C19.2234 83.6774 21.9866 87.2516 24.9901 90.6907L23.2331 92.2375V92.2225Z" fill="white"/>
<path d="M7.93014 69.4857C6.26318 66.1068 4.80647 62.6077 3.59004 59.0785C3.31973 58.2976 3.06443 57.5017 2.80913 56.7057L5.04675 56.0149C5.28703 56.7808 5.54233 57.5467 5.79763 58.3126C6.98403 61.7366 8.4107 65.1456 10.0326 68.4495L7.93014 69.4857Z" fill="white"/>
<path d="M0.256117 43.1149C0.120958 40.5619 0.22608 38.084 0.54145 35.7562C0.85682 33.4886 1.39746 31.311 2.14834 29.2686L4.34091 30.0796C3.6501 31.9568 3.15452 33.9691 2.85416 36.0716C2.55381 38.2492 2.46371 40.5769 2.58385 42.9797L0.256117 43.0998V43.1149Z" fill="white"/>
<path d="M11.5944 19.357L9.9725 17.675C11.9698 15.7528 14.3126 13.8906 16.9407 12.1636C18.3223 11.2625 19.764 10.3915 21.2207 9.58054L22.347 11.6229C20.9354 12.4038 19.5537 13.2298 18.2322 14.1159C15.7243 15.7678 13.4866 17.5399 11.5944 19.357Z" fill="white"/>
<path d="M47.4565 1.47101L47.7268 3.79874C43.1915 4.32436 38.7913 5.22541 34.6464 6.48689L33.9706 4.24927C38.2507 2.94274 42.801 2.01164 47.4715 1.47101" fill="white"/>
<path d="M74.8486 2.52222L74.4281 4.81991C73.0615 4.56461 71.6949 4.35437 70.3434 4.15914C70.3434 4.15914 70.3133 4.15914 70.2983 4.15914C67.2197 3.72363 64.1261 3.45331 61.0925 3.31815L61.1826 0.975403" fill="white"/>
<path d="M185.784 174.864C183.771 173.828 181.669 172.777 179.536 171.756L180.543 169.653C182.69 170.69 184.823 171.741 186.85 172.792L185.784 174.864Z" fill="white"/>
<path d="M143.87 132.8L144.095 133.836L153.676 178.183L360.859 259.939L364.313 260.48L143.87 132.8Z" fill="white"/>
<path opacity="0.22" d="M143.87 132.8L144.095 133.836L153.676 178.183L360.859 259.939L364.313 260.48L143.87 132.8Z" fill="#8382EE"/>
<path d="M143.87 132.8L145.251 133.596L364.929 260.975L208.806 127.589L143.87 132.8Z" fill="white"/>
<path d="M308.628 228.282L355.708 255.629" stroke="#8382EE" stroke-width="0.5" stroke-miterlimit="10"/>
<path d="M292.109 219.121C292.109 219.121 293.475 220.142 295.352 220.488C297.23 220.818 299.242 217.619 300.984 214.541C302.726 211.462 303.852 209.57 306.525 210.681C309.199 211.808 306.465 222.891 302.381 231.06L301.179 233.133C301.179 233.133 296.479 234.424 294.902 230.955L286.642 226.27C286.642 226.27 290.802 219.812 292.109 219.121Z" fill="#1E243A"/>
<path d="M300.984 214.526C300.984 214.526 300.623 217.124 305.294 218.491L299.783 233.043C299.783 233.043 299.287 233.583 301.164 233.133C303.041 232.682 309.454 215.697 307.366 211.327C307.366 211.327 304.483 206.522 300.984 214.526Z" fill="white"/>
<path d="M297.154 220.188C297.154 220.188 298.311 222.425 299.933 222.71C299.933 222.71 300.759 222.485 300.083 221.704C299.392 220.938 298.176 220.007 297.86 219.151C297.86 219.151 296.298 219.347 297.169 220.172L297.154 220.188Z" fill="white"/>
<path d="M298.836 218.01C298.836 218.01 299.993 220.248 301.615 220.533C301.615 220.533 302.441 220.308 301.765 219.527C301.074 218.761 299.858 217.83 299.542 216.974C299.542 216.974 297.98 217.169 298.851 217.995L298.836 218.01Z" fill="white"/>
<path opacity="0.28" d="M300.984 214.526C300.984 214.526 302.981 209.961 304.558 209.87L301.059 215.021" fill="#8382EE"/>
<path opacity="0.28" d="M305.039 226.345C305.039 226.345 308.583 216.628 307.877 212.874C307.877 212.874 305.114 224.483 305.039 226.345Z" fill="#8382EE"/>
<path d="M132.351 206.131L146.438 237.067L364.313 260.48L132.351 206.131Z" fill="white"/>
<g opacity="0.22">
<path d="M132.351 206.131L146.438 237.067L364.313 260.48L132.351 206.131Z" fill="#8382EE"/>
</g>
<path opacity="0.08" d="M133.057 207.858L140.521 224.813L356.819 259.714L133.057 207.858Z" fill="#8382EE"/>
<path d="M255.075 180.811C255.075 180.811 255.901 185.587 261.397 187.044C266.909 188.5 265.512 184.641 266.924 183.454C268.336 182.268 260.496 178.844 259.205 173.783C259.205 173.783 253.168 173.663 255.075 180.811Z" fill="#FFD5D9"/>
<path d="M255.18 176.937C255.18 176.937 253.844 178.994 253.108 182.929C252.372 186.863 251.321 187.179 251.321 187.179C251.321 187.179 253.153 188.53 254.7 186.458C256.246 184.385 257.568 182.343 257.568 182.343L255.165 176.952L255.18 176.937Z" fill="#FFD5D9"/>
<path d="M258.679 185.812C258.679 185.812 266.879 191.129 267.224 190.032C267.555 188.921 260.256 184.175 260.256 184.175C260.256 184.175 258.829 185.151 258.679 185.812Z" fill="#FFD5D9"/>
<path d="M261.623 185.257C261.623 185.257 269.192 191.444 269.657 190.378C270.123 189.311 263.38 183.8 263.38 183.8C263.38 183.8 261.863 184.626 261.623 185.257Z" fill="#FFD5D9"/>
<path d="M262.118 182.989C262.118 182.989 269.372 189.536 269.882 188.5C270.393 187.464 263.935 181.622 263.935 181.622C263.935 181.622 262.374 182.373 262.118 182.989Z" fill="#FFD5D9"/>
<path d="M261.397 180.691C261.397 180.691 269.011 186.818 269.462 185.752C269.912 184.686 263.14 179.22 263.14 179.22C263.14 179.22 261.623 180.046 261.397 180.691Z" fill="#FFD5D9"/>
<path d="M266.368 188.666C266.368 188.666 261.803 185.467 261.022 184.956" stroke="#EFBABF" stroke-width="0.5" stroke-miterlimit="10"/>
<path d="M267.044 186.863C267.044 186.863 264.086 184.671 262.779 183.965" stroke="#EFBABF" stroke-width="0.5" stroke-miterlimit="10"/>
<path d="M267.254 184.851C267.254 184.851 265.092 183.319 264.341 182.719" stroke="#EFBABF" stroke-width="0.5" stroke-miterlimit="10"/>
<path d="M265.873 207.753C265.392 212.093 261.247 215.202 256.592 214.691C251.951 214.18 248.572 210.246 249.053 205.906C249.534 201.566 253.678 198.457 258.334 198.968C262.989 199.478 266.353 203.413 265.873 207.753Z" fill="#1E243A"/>
<path d="M218.567 179.37C218.567 179.37 232.684 180.165 262.554 200.394L254.324 214.3L225.565 203.713C225.565 203.713 201.222 188.906 218.552 179.37H218.567Z" fill="#1E243A"/>
<path d="M249.293 211.733C249.293 211.733 270.874 226.33 290.577 228.838L295.698 219.707L262.118 200.034C262.118 200.034 244.983 204.434 249.293 211.718V211.733Z" fill="#1E243A"/>
<g style="mix-blend-mode:multiply" opacity="0.75">
<path d="M295.713 219.722L262.133 200.049C262.133 200.049 262.103 200.049 262.058 200.064C232.549 180.165 218.582 179.37 218.582 179.37C201.252 188.906 225.595 203.713 225.595 203.713L251.981 213.429C258.349 217.349 275.048 226.855 290.592 228.838L295.713 219.707V219.722Z" fill="#1E243A"/>
</g>
<path d="M227.563 137.41C227.563 137.41 235.747 135.819 242.025 146.992C248.302 158.165 265.918 178.243 265.918 178.243C265.918 178.243 258.784 183.98 253.994 186.428C253.994 186.428 236.904 168.422 231.092 159.096C225.28 149.77 220.069 142.742 227.548 137.41H227.563Z" fill="#8382EE"/>
<g style="mix-blend-mode:multiply" opacity="0.26">
<path d="M259.956 171.245C257.072 172.957 253.678 173.723 249.879 173.332C246.125 172.927 242.535 171.575 239.577 169.218C238.21 168.136 237.009 166.86 235.777 165.613C243.121 174.984 253.994 186.443 253.994 186.443C258.769 183.995 265.918 178.258 265.918 178.258C265.918 178.258 263.41 175.405 259.956 171.245Z" fill="#8382EE"/>
</g>
<path d="M238.511 170.779C238.285 166.755 242.896 150.175 242.13 147.367C241.364 144.559 234.741 141.36 234.741 141.36C228.869 145.4 221.315 136.855 221.315 136.855C221.315 136.855 219.168 136.84 209.932 138.762C207.259 140.234 205.142 142.186 204.165 145.325C202.664 150.22 203.099 155.762 203.535 160.793C203.985 166.034 204.961 171.32 204.931 176.576C204.931 178.153 204.691 179.61 204.301 181.021C204.511 182.478 204.646 183.349 204.646 183.349C201.537 189.131 204.556 192.6 204.556 192.6C220.595 194.207 235.237 184.536 238.36 180.646C241.484 176.756 238.736 174.789 238.511 170.779Z" fill="#8382EE"/>
<g style="mix-blend-mode:multiply" opacity="0.26">
<path d="M239.427 174.819C234.426 177.132 228.449 177.342 223.163 176.066C217.216 174.624 212.29 171.516 208.986 166.575C207.649 168.812 206.208 170.99 204.811 173.182C204.886 174.324 204.931 175.45 204.931 176.576C204.931 178.153 204.691 179.61 204.3 181.022C204.511 182.478 204.646 183.349 204.646 183.349C201.537 189.131 204.556 192.6 204.556 192.6C220.595 194.207 235.237 184.536 238.375 180.646C240.268 178.288 240.012 176.637 239.457 174.819H239.427Z" fill="#8382EE"/>
</g>
<path d="M231.452 142.892C233.194 144.198 235.552 144.619 237.64 143.988C238.526 143.718 239.367 143.267 239.922 142.531C240.508 141.766 240.718 140.789 240.823 139.843C240.928 138.987 240.943 138.056 240.448 137.35C240.148 136.915 239.667 136.63 239.201 136.374C237.73 135.608 235.898 135.218 234.441 136.029C233.825 136.374 233.315 136.9 232.924 137.486C232.068 138.762 231.663 140.339 231.828 141.886L231.467 142.892H231.452Z" fill="#2C3A64"/>
<path d="M261.653 185.196C261.172 189.537 257.027 192.645 252.372 192.135C247.716 191.624 244.352 187.689 244.833 183.349C245.314 179.009 249.458 175.9 254.114 176.411C258.754 176.922 262.133 180.856 261.653 185.196Z" fill="#1E243A"/>
<path d="M233.179 196.235C232.744 200.725 225.821 203.728 217.711 202.947C209.602 202.166 203.369 197.886 203.805 193.396C204.24 188.906 211.164 185.902 219.273 186.683C227.383 187.464 233.615 191.744 233.179 196.235Z" fill="#1E243A"/>
<path d="M205.517 188.741C205.517 188.741 216.81 180.226 252.672 176.351L255.39 192.285L226.602 202.782C226.602 202.782 198.459 207.212 205.517 188.741Z" fill="#1E243A"/>
<path d="M244.202 185.241C244.202 185.241 255.511 208.714 271.294 220.788L280.32 215.472L261.172 181.592C261.172 181.592 244.157 176.787 244.202 185.241Z" fill="#1E243A"/>
<path d="M274.433 208.624C274.433 208.624 280.079 213.76 280.109 215.667C280.139 217.574 283.669 218.941 287.033 220.052C290.396 221.164 292.469 221.915 291.883 224.753C291.298 227.591 279.884 227.036 271.084 224.588L268.816 223.807C268.816 223.807 266.654 219.452 269.747 217.229L266.714 210.276C266.714 210.276 273.517 207.483 274.433 208.624Z" fill="#1E243A"/>
<path d="M287.017 220.052C287.017 220.052 284.404 220.203 283.954 225.053L268.621 222.44C268.621 222.44 268.005 222.05 268.801 223.822C269.612 225.579 287.498 228.598 291.388 225.714C291.388 225.714 295.547 221.96 287.032 220.068L287.017 220.052Z" fill="white"/>
<path d="M280.725 217.379C280.725 217.379 278.758 218.941 278.773 220.578C278.773 220.578 279.163 221.344 279.779 220.533C280.41 219.707 281.086 218.34 281.867 217.86C281.867 217.86 281.371 216.373 280.725 217.379Z" fill="white"/>
<path d="M283.188 218.611C283.188 218.611 281.221 220.173 281.236 221.809C281.236 221.809 281.626 222.575 282.242 221.764C282.873 220.938 283.548 219.572 284.329 219.091C284.329 219.091 283.834 217.605 283.188 218.611Z" fill="white"/>
<path d="M21.6111 184.476L108.803 148.418L364.929 260.975L21.6111 184.476Z" fill="white"/>
<path d="M260.031 120.05C262.689 118.909 264.251 115.92 264.326 113.022C264.386 110.123 263.17 107.33 261.563 104.927C258.424 100.257 253.678 96.6827 248.317 94.9857C242.956 93.2887 237.009 93.4539 231.753 95.4813C226.151 97.6288 221.3 101.789 215.399 102.87C208.866 104.071 202.258 101.248 196.657 97.6739C194.854 101.473 195.47 106.309 198.173 109.538C195.831 109.943 194.149 107.405 193.142 105.243C192.482 103.801 191.806 102.359 191.145 100.933C189.688 101.293 188.968 102.915 188.592 104.372C187.135 109.973 187.736 116.085 190.274 121.282C191.551 123.88 193.263 126.252 195.17 128.445C200.741 134.872 208.145 140.024 216.54 141.495C224.92 142.952 234.261 140.219 239.487 133.506C240.959 131.614 242.085 129.466 243.421 127.469C245.794 123.94 248.828 120.921 251.861 117.933C252.237 117.557 252.627 117.182 253.123 117.017C254.58 116.521 255.916 117.993 256.772 119.269L260.046 120.095L260.031 120.05Z" fill="#2C3A64"/>
<path d="M221.676 126.478C221.676 126.478 218.778 135.789 217.261 138.146C217.261 138.146 225.37 147.983 233.765 146.031C233.765 146.031 235.432 139.528 236.168 137.906C236.904 136.284 221.661 126.493 221.661 126.493L221.676 126.478Z" fill="#FFD5D9"/>
<path d="M231.527 140.744C232.173 142.096 233.375 142.772 234.711 143.102C235.207 141.36 235.747 139.528 236.093 138.762C236.363 138.161 234.441 136.434 231.903 134.497C231.302 136.585 230.581 138.747 231.527 140.744Z" fill="#EFBABF"/>
<path d="M256.291 126.958C256.457 125.501 257.132 123.639 257.553 122.588C262.133 113.833 259.1 102.915 250.495 97.824C241.604 92.5679 230.131 95.5113 224.875 104.402C221.766 109.658 221.526 115.815 223.688 121.056H223.027L221.045 128.13C226.737 137.906 238.375 140.444 238.375 140.444C252.657 143.357 256.051 129.091 256.291 126.943V126.958Z" fill="#FFD5D9" stroke="#FFD5D9" stroke-width="0.32" stroke-miterlimit="10"/>
<path d="M246.47 132.304C246.47 132.304 244.593 135.413 247.236 135.939C249.879 136.449 250.39 133.221 250.39 133.221L246.47 132.304Z" fill="#1E243A"/>
<mask id="mask0_392_543" style="mask-type:luminance" maskUnits="userSpaceOnUse" x="245" y="132" width="6" height="4">
<path d="M246.47 132.304C246.47 132.304 244.593 135.413 247.236 135.939C249.879 136.449 250.39 133.221 250.39 133.221L246.47 132.304Z" fill="white"/>
</mask>
<g mask="url(#mask0_392_543)">
<path d="M249.579 135.909C249.368 136.945 248.197 137.666 246.965 137.546C245.734 137.425 244.893 136.479 245.103 135.458C245.314 134.437 246.485 133.701 247.716 133.821C248.948 133.941 249.789 134.888 249.579 135.924V135.909Z" fill="#EF5545"/>
</g>
<path opacity="0.42" d="M243.496 128.685C243.301 129.136 242.4 129.196 241.469 128.805C240.538 128.415 239.952 127.724 240.133 127.274C240.313 126.823 241.229 126.763 242.16 127.153C243.091 127.544 243.677 128.235 243.496 128.685Z" fill="#EF5545"/>
<path opacity="0.42" d="M255.12 131.283C254.925 131.749 254.234 131.884 253.573 131.614C252.913 131.343 252.537 130.728 252.732 130.277C252.928 129.812 253.618 129.676 254.279 129.947C254.94 130.232 255.315 130.833 255.12 131.283Z" fill="#EF5545"/>
<path d="M228.299 115.485C228.299 115.485 234.471 120.561 231.122 130.457C231.122 130.457 233.765 132.875 235.282 129.091C236.784 125.291 237.084 117.767 237.084 117.767C237.084 117.767 244.953 116.025 249.624 111.61L245.118 116.221C245.118 116.221 250.72 116.506 254.369 112.932C254.369 112.932 254.219 118.173 258.724 120.035C258.724 120.035 260.962 119.314 260.677 114.599C260.406 109.883 258.935 97.4336 245.419 94.4751C245.419 94.4751 225.115 91.9672 221.541 109.733C221.541 109.733 220.64 115.845 222.201 119.089C222.201 119.089 224.784 113.998 228.299 115.47V115.485Z" fill="#2C3A64"/>
<path d="M249.864 123.714C249.864 123.714 252.762 122.363 253.363 124.736" stroke="#2C245C" stroke-width="0.5" stroke-miterlimit="10"/>
<path d="M242.085 122.573L229.455 119.645" stroke="#2C245C" stroke-width="0.5" stroke-miterlimit="10"/>
<path opacity="0.47" d="M277.211 210.156L280.094 215.667" stroke="#8382EE" stroke-width="0.5" stroke-miterlimit="10" stroke-linecap="round"/>
<path opacity="0.47" d="M233.645 200.56L249.143 194.673" stroke="#8382EE" stroke-width="0.5" stroke-miterlimit="10" stroke-linecap="round"/>
<path d="M189.148 186.037C189.148 186.037 188.262 190.798 182.735 192.18C177.209 193.561 178.65 189.717 177.269 188.5C175.887 187.284 183.756 183.98 185.123 178.949C185.123 178.949 191.16 178.904 189.148 186.037Z" fill="#FFD5D9"/>
<path d="M189.118 182.148C189.118 182.148 190.424 184.22 191.1 188.17C191.776 192.12 192.827 192.435 192.827 192.435C192.827 192.435 190.965 193.757 189.463 191.669C187.946 189.582 186.655 187.509 186.655 187.509L189.133 182.163L189.118 182.148Z" fill="#FFD5D9"/>
<path d="M185.483 190.978C185.483 190.978 177.209 196.174 176.878 195.063C176.563 193.952 183.922 189.311 183.922 189.311C183.922 189.311 185.333 190.318 185.483 190.978Z" fill="#FFD5D9"/>
<path d="M182.555 190.378C182.555 190.378 174.896 196.46 174.46 195.393C174.025 194.327 180.828 188.906 180.828 188.906C180.828 188.906 182.33 189.747 182.555 190.393V190.378Z" fill="#FFD5D9"/>
<path d="M182.089 188.11C182.089 188.11 174.731 194.552 174.25 193.516C173.755 192.465 180.287 186.713 180.287 186.713C180.287 186.713 181.834 187.479 182.089 188.11Z" fill="#FFD5D9"/>
<path d="M182.84 185.812C182.84 185.812 175.136 191.834 174.701 190.768C174.265 189.702 181.113 184.325 181.113 184.325C181.113 184.325 182.615 185.181 182.825 185.827L182.84 185.812Z" fill="#FFD5D9"/>
<path d="M177.749 193.727C177.749 193.727 182.36 190.603 183.156 190.092" stroke="#EFBABF" stroke-width="0.5" stroke-miterlimit="10"/>
<path d="M177.119 191.909C177.119 191.909 180.107 189.747 181.429 189.071" stroke="#EFBABF" stroke-width="0.5" stroke-miterlimit="10"/>
<path d="M176.923 189.897C176.923 189.897 179.101 188.395 179.867 187.81" stroke="#EFBABF" stroke-width="0.5" stroke-miterlimit="10"/>
<path d="M211.854 137.425C211.854 137.425 203.52 137.065 198.969 149.049C194.419 161.033 179.957 183.484 179.957 183.484C179.957 183.484 187.856 188.11 192.947 189.807C192.947 189.807 207.184 169.473 211.554 159.396C215.909 149.304 220.039 141.6 211.854 137.425Z" fill="#8382EE"/>
<path d="M248.017 126.237C248.017 126.237 247.867 121.987 243.602 123.264L243.061 121.957L243.121 124.045C243.121 124.045 245.133 122.979 248.032 126.237H248.017Z" fill="#1E243A"/>
<path d="M252.867 127.439C252.867 127.439 253.859 123.85 256.382 126.267L257.012 125.306L256.532 127.078C256.532 127.078 255.435 125.532 252.867 127.439Z" fill="#1E243A"/>
<path d="M248.617 120.786C248.617 120.786 249.098 119.855 248.542 119.479C247.972 119.119 243.031 118.638 241.649 119.9C241.649 119.9 248.167 120.516 248.632 120.786H248.617Z" fill="#2C3A64"/>
<path d="M257.943 122.348C256.862 121.867 255.901 121.552 255.631 121.582C254.955 121.657 254.97 122.708 254.97 122.708C255.18 122.708 256.246 123.054 257.463 123.504L257.958 122.333L257.943 122.348Z" fill="#2C3A64"/>
<path d="M249.654 124.841C248.783 127.754 246.38 129.616 244.277 129.001C242.19 128.37 241.199 125.501 242.07 122.573C242.941 119.66 245.344 117.797 247.446 118.413C249.533 119.044 250.525 121.912 249.654 124.841Z" stroke="#2C245C" stroke-width="0.5" stroke-miterlimit="10"/>
<path d="M257.718 126.928C256.922 129.541 255.24 131.343 253.949 130.953C252.657 130.562 252.252 128.129 253.048 125.516C253.844 122.903 255.525 121.101 256.817 121.492C258.109 121.882 258.514 124.315 257.718 126.928Z" stroke="#2C245C" stroke-width="0.5" stroke-miterlimit="10"/>
<path d="M252.642 124.225C252.417 125.081 252.282 125.952 252.297 126.793C252.297 127.213 252.357 127.634 252.492 128.024C252.552 128.205 252.657 128.445 252.702 128.685C252.762 128.925 252.792 129.166 252.807 129.406C252.807 129.887 252.702 130.427 252.312 130.818C251.921 131.208 251.336 131.313 250.855 131.238C249.864 131.103 249.083 130.547 248.362 129.977C248.572 130.067 248.783 130.157 248.993 130.247C249.203 130.337 249.413 130.397 249.624 130.487C249.834 130.562 250.044 130.607 250.254 130.668C250.465 130.683 250.675 130.758 250.87 130.743C251.276 130.743 251.651 130.653 251.861 130.397C252.087 130.142 252.177 129.766 252.162 129.376C252.162 129.181 252.132 128.986 252.087 128.79C252.042 128.595 251.966 128.415 251.891 128.16C251.756 127.679 251.726 127.213 251.771 126.748C251.846 125.832 252.162 124.976 252.612 124.21L252.642 124.225Z" fill="#EFBABF"/>
<g style="mix-blend-mode:overlay" opacity="0.36">
<path d="M219.153 143.703C219.153 143.703 231.377 150.19 235.582 147.412C235.582 147.412 237.88 145.986 235.447 145.009" stroke="white" stroke-width="0.5" stroke-miterlimit="10" stroke-linecap="round"/>
</g>
<g style="mix-blend-mode:overlay" opacity="0.36">
<path d="M204.931 183.83C204.931 183.83 216.36 180.511 224.019 179.295" stroke="white" stroke-width="0.5" stroke-miterlimit="10" stroke-linecap="round"/>
</g>
<g style="mix-blend-mode:overlay" opacity="0.36">
<path d="M205.096 181.277C205.096 181.277 210.097 180.046 212.11 179.835" stroke="white" stroke-width="0.5" stroke-miterlimit="10" stroke-linecap="round"/>
</g>
<g style="mix-blend-mode:overlay" opacity="0.36">
<path d="M238.601 168.347C238.601 168.347 238.541 161.559 238.285 159.201" stroke="white" stroke-width="0.5" stroke-miterlimit="10" stroke-linecap="round"/>
</g>
<g style="mix-blend-mode:overlay" opacity="0.36">
<path d="M205.141 171.26C205.141 171.26 212.26 159.997 212.635 156.213" stroke="white" stroke-width="0.5" stroke-miterlimit="10" stroke-linecap="round"/>
</g>
<path d="M231.077 118.849C231.077 118.849 232.879 146.391 219.063 143.883C205.247 141.375 197.302 131.539 194.164 127.198C194.164 127.198 217.786 113.277 225.806 113.517C225.806 113.517 230.446 111.745 231.077 118.849Z" fill="#2C3A64"/>
<g style="mix-blend-mode:multiply" opacity="0.28">
<path d="M194.464 127.018C194.269 127.138 194.164 127.198 194.164 127.198C197.302 131.538 205.247 141.375 219.063 143.883C227.368 145.385 230.026 136.044 230.822 128.34C219.123 133.281 205.066 133.1 194.464 127.018Z" fill="#DB6F4A"/>
</g>
<path d="M232.293 117.557C232.248 117.377 232.218 117.197 232.203 117.032C232.173 117.032 232.128 117.017 232.098 117.002C229.68 116.611 227.338 118.653 226.887 121.552C226.421 124.45 228.013 127.108 230.431 127.499C230.792 127.559 231.167 127.559 231.512 127.499C232.173 124.195 233.209 120.846 232.293 117.542V117.557Z" fill="#FFD5D9"/>
<path d="M231.572 119.87C231.542 119.765 231.527 119.675 231.527 119.584C231.512 119.584 231.482 119.584 231.467 119.584C230.146 119.374 228.884 120.486 228.629 122.062C228.374 123.639 229.245 125.096 230.566 125.291C230.762 125.321 230.957 125.321 231.152 125.291C231.512 123.489 232.083 121.672 231.572 119.87Z" fill="#EFBABF"/>
<g style="mix-blend-mode:overlay" opacity="0.36">
<path d="M182.375 182.373C182.375 182.373 189.658 186.203 193.353 186.908" stroke="white" stroke-width="0.5" stroke-miterlimit="10" stroke-linecap="round"/>
</g>
<g style="mix-blend-mode:overlay" opacity="0.36">
<path d="M260.722 179.475L263.725 177.162" stroke="white" stroke-width="0.5" stroke-miterlimit="10" stroke-linecap="round"/>
</g>
<g style="mix-blend-mode:overlay" opacity="0.33">
<path d="M217.681 105.873C217.681 105.873 228.164 117.903 238.661 115.545" stroke="white" stroke-width="0.5" stroke-miterlimit="10" stroke-linecap="round"/>
</g>
<g style="mix-blend-mode:overlay" opacity="0.33">
<path d="M234.711 113.698C234.711 113.698 242.655 115.214 249.353 109.418" stroke="white" stroke-width="0.5" stroke-miterlimit="10" stroke-linecap="round"/>
</g>
<g style="mix-blend-mode:overlay" opacity="0.33">
<path d="M249.068 114.073C249.068 114.073 254.88 113.577 257.793 107.751" stroke="white" stroke-width="0.5" stroke-miterlimit="10" stroke-linecap="round"/>
</g>
<path d="M256.036 112.106C255.901 113.593 255.075 114.974 253.979 115.98C253.408 116.476 252.792 116.911 252.057 117.182C251.351 117.467 250.45 117.527 249.804 117.122C250.555 117.122 251.14 116.791 251.696 116.446C252.237 116.086 252.777 115.65 253.273 115.199C254.279 114.298 255.135 113.277 256.036 112.106Z" fill="#2C3A64"/>
<path d="M39.2419 183.139C39.2419 183.139 293.295 243.855 318.269 247.895" stroke="#8382EE" stroke-width="0.5" stroke-miterlimit="10"/>
<path d="M155.643 135.233C155.643 135.233 188.292 154.11 191.776 155.987" stroke="#8382EE" stroke-width="0.5" stroke-miterlimit="10"/>
<path opacity="0.33" d="M206.838 146.887C206.748 147.502 206.178 147.938 205.547 147.863C204.916 147.788 204.496 147.202 204.571 146.571C204.646 145.94 205.232 145.52 205.862 145.595C206.493 145.67 206.914 146.256 206.838 146.887Z" fill="white"/>
<path opacity="0.33" d="M219.138 152.053C219.048 152.668 218.477 153.104 217.846 153.029C217.231 152.939 216.795 152.368 216.87 151.737C216.96 151.122 217.531 150.686 218.162 150.761C218.792 150.836 219.213 151.422 219.138 152.053Z" fill="white"/>
<path opacity="0.33" d="M212.846 174.594C212.53 175.135 211.839 175.33 211.284 175.014C210.743 174.699 210.548 174.008 210.863 173.453C211.179 172.912 211.869 172.717 212.425 173.032C212.981 173.348 213.161 174.038 212.846 174.594Z" fill="white"/>
<path opacity="0.33" d="M231.482 154.155C231.392 154.771 230.822 155.206 230.191 155.131C229.56 155.056 229.14 154.47 229.215 153.84C229.305 153.224 229.875 152.788 230.506 152.864C231.122 152.954 231.557 153.524 231.482 154.155Z" fill="white"/>
<path opacity="0.33" d="M200.816 162.52C200.726 163.136 200.156 163.571 199.525 163.496C198.894 163.421 198.474 162.835 198.549 162.205C198.639 161.589 199.209 161.153 199.84 161.228C200.456 161.318 200.891 161.889 200.816 162.52Z" fill="white"/>
<path opacity="0.33" d="M193.503 173.753C193.413 174.369 192.842 174.804 192.211 174.729C191.581 174.654 191.16 174.068 191.235 173.438C191.325 172.822 191.896 172.386 192.527 172.462C193.157 172.537 193.578 173.122 193.503 173.753Z" fill="white"/>
<path opacity="0.33" d="M232.954 162.79C232.864 163.406 232.293 163.841 231.663 163.766C231.032 163.691 230.611 163.106 230.686 162.475C230.777 161.859 231.347 161.424 231.978 161.499C232.609 161.574 233.029 162.159 232.954 162.79Z" fill="white"/>
<path opacity="0.33" d="M241.559 150.581C241.469 151.197 240.898 151.632 240.268 151.557C239.637 151.482 239.216 150.896 239.291 150.265C239.382 149.65 239.952 149.214 240.583 149.289C241.214 149.364 241.634 149.95 241.559 150.581Z" fill="white"/>
<path opacity="0.33" d="M246.425 162.37C246.335 162.985 245.764 163.421 245.133 163.346C244.518 163.256 244.082 162.685 244.157 162.054C244.232 161.424 244.818 161.003 245.449 161.078C246.064 161.168 246.5 161.739 246.425 162.37Z" fill="white"/>
<path opacity="0.33" d="M251.216 169.173C251.125 169.788 250.555 170.224 249.924 170.149C249.308 170.059 248.873 169.488 248.948 168.857C249.023 168.227 249.609 167.806 250.239 167.881C250.855 167.971 251.291 168.542 251.216 169.173Z" fill="white"/>
<path opacity="0.33" d="M222.337 162.069C222.247 162.685 221.676 163.121 221.045 163.045C220.429 162.955 219.994 162.385 220.069 161.754C220.159 161.138 220.73 160.703 221.36 160.778C221.976 160.868 222.412 161.439 222.337 162.069Z" fill="white"/>
<path opacity="0.33" d="M226.061 171.02C225.971 171.636 225.4 172.071 224.769 171.996C224.139 171.921 223.718 171.335 223.793 170.704C223.883 170.089 224.454 169.653 225.085 169.728C225.716 169.803 226.136 170.389 226.061 171.02Z" fill="white"/>
</svg>
