<svg xmlns="http://www.w3.org/2000/svg" width="480" height="260" fill="none"><g clip-path="url(#a)"><path fill="#5866C5" d="M480 0H0v260h480V0Z"/><g stroke="#C9F3F5" stroke-miterlimit="10" stroke-width="2" clip-path="url(#b)" opacity=".08"><path d="M-43 242.514h539.461M-43 214.884h539.461M-43 187.259h539.461M-43 159.628h539.461M-43 131.998h539.461M-43 104.368h539.461M-43 76.743h539.461M-43 49.113h539.461M-43 21.483h539.461M19.514-13.402V526.06M47.144-13.402V526.06M74.77-13.402V526.06M102.4-13.402V526.06M130.03-13.402V526.06M157.66-13.402V526.06M185.285-13.402V526.06M212.915-13.402V526.06M240.545-13.402V526.06M268.176-13.402V526.06M295.801-13.402V526.06M323.431-13.402V526.06M351.061-13.402V526.06M378.691-13.402V526.06M406.322-13.402V526.06M433.947-13.402V526.06M461.577-13.402V526.06"/></g><path fill="#FF73F1" fill-opacity=".5" d="m47.531 260.419-9.959 1.83 8.74 5.118-9.984-1.699 6.451 7.807-8.803-5.007 3.409 9.539-6.563-7.715-.073 10.127-3.52-9.497-3.524 9.497-.07-10.127-6.566 7.715 3.41-9.539-8.804 5.007 6.451-7.807-9.98 1.699 8.739-5.118-9.962-1.83 9.962-1.83-8.74-5.114 9.981 1.696-6.451-7.804 8.803 5.007-3.409-9.539 6.566 7.712.07-10.128 3.524 9.498 3.52-9.498.073 10.128 6.563-7.712-3.41 9.539 8.807-5.007-6.454 7.804 9.984-1.696-8.74 5.114 9.959 1.83Z"/><g opacity=".5"><path fill="url(#c)" d="M460.591 212.083c-.291-.291.559-1.609 1.895-2.945 1.335-1.336 2.657-2.186 2.945-1.895l17.338 17.339c.291.291-.558 1.61-1.894 2.945-1.336 1.336-2.657 2.186-2.945 1.895l-17.339-17.339Z"/><path fill="#fff" d="M460.591 212.083c.291.291 1.609-.559 2.945-1.895 1.336-1.335 2.186-2.656 1.895-2.945-.291-.291-1.61.559-2.945 1.895-1.336 1.336-2.186 2.657-1.895 2.945Z"/><path fill="url(#d)" d="M458.595 209.045c-.227-.227.439-1.263 1.487-2.314 1.051-1.05 2.087-1.717 2.314-1.49.058.056 2.371 2.372 2.427 2.427.227.227-.44 1.263-1.487 2.314-1.051 1.051-2.087 1.717-2.314 1.49l-2.427-2.427Z"/><path fill="#F4F4F4" d="M458.595 209.045c.227.227 1.263-.439 2.313-1.49 1.051-1.051 1.717-2.087 1.49-2.314-.227-.227-1.263.44-2.313 1.49-1.051 1.051-1.717 2.087-1.487 2.314h-.003Z"/><path fill="url(#e)" d="M456.607 205.346c-.125-.125.242-.693.818-1.272.576-.576 1.147-.943 1.272-.818l2.66 2.66c.125.125-.242.693-.818 1.272-.576.576-1.147.943-1.272.818l-2.66-2.66Z"/><path fill="#999" d="M456.607 205.346c.125.125.693-.242 1.272-.818.576-.576.943-1.146.818-1.272-.125-.125-.693.242-1.272.818-.576.576-.943 1.147-.818 1.272Z"/><path fill="#DDD" d="M437.446 206.065c6.083 6.082 15.942 6.082 22.022 0 6.082-6.082 6.082-15.942 0-22.024-6.083-6.083-15.942-6.083-22.022 0-6.082 6.082-6.082 15.942 0 22.024Z"/><path fill="#FCFFF8" d="M463.545 195.053c0-4.031-1.569-7.82-4.418-10.669a14.988 14.988 0 0 0-10.668-4.418c-4.031 0-7.82 1.569-10.669 4.418a14.989 14.989 0 0 0-4.418 10.669c0 4.03 1.569 7.819 4.418 10.668a14.989 14.989 0 0 0 10.669 4.418c4.03 0 7.819-1.569 10.668-4.418a14.988 14.988 0 0 0 4.418-10.668Z"/><mask id="f" width="31" height="30" x="433" y="180" maskUnits="userSpaceOnUse" style="mask-type:luminance"><path fill="#fff" d="M438.151 205.358c5.692 5.692 14.917 5.692 20.61 0 5.692-5.693 5.692-14.918 0-20.61-5.693-5.692-14.918-5.692-20.61 0-5.69 5.689-5.69 14.917 0 20.61Z"/></mask><g mask="url(#f)"><path fill="#6476F4" d="M438.151 205.358c5.692 5.692 14.917 5.692 20.61 0 5.692-5.693 5.692-14.918 0-20.61-5.693-5.693-14.918-5.693-20.61 0-5.69 5.689-5.69 14.917 0 20.61Z"/><path fill="#F5F5F5" d="M417.218 164.289v158.282h27.623a7.275 7.275 0 0 0 7.276-7.276V164.289h-34.899Z"/></g></g><path fill="#fff" d="M53.525 59.846a2.07 2.07 0 1 1-4.14 0v-4.832c0-1.14.93-2.07 2.07-2.07 1.14 0 2.07.93 2.07 2.07v4.832ZM53.525 81.93a2.07 2.07 0 1 1-4.14 0v-4.832c0-1.14.93-2.07 2.07-2.07 1.14 0 2.07.93 2.07 2.07v4.832ZM45.014 62.37a2.07 2.07 0 0 1 .755 2.826 2.064 2.064 0 0 1-2.825.755l-4.182-2.412a2.064 2.064 0 0 1-.755-2.826 2.064 2.064 0 0 1 2.825-.755l4.182 2.413ZM64.14 73.413a2.063 2.063 0 0 1 .755 2.825 2.064 2.064 0 0 1-2.825.755l-4.182-2.412a2.064 2.064 0 0 1-.755-2.826A2.064 2.064 0 0 1 59.958 71l4.182 2.413ZM42.944 70.993a2.066 2.066 0 0 1 2.825.755c.574.993.231 2.259-.755 2.825l-4.182 2.413a2.068 2.068 0 0 1-2.07-3.58l4.182-2.413ZM62.07 59.951a2.068 2.068 0 0 1 2.07 3.58l-4.182 2.413a2.066 2.066 0 0 1-2.825-.755 2.066 2.066 0 0 1 .755-2.825l4.182-2.413Z"/><path fill="#00FF67" d="M462.757 119.738h-7.101l5.019-5.024-1.695-1.695-5.024 5.019v-7.101h-2.398v7.101l-5.019-5.019-1.701 1.695 5.02 5.024h-7.096v2.398h7.096l-5.02 5.019 1.701 1.7 5.019-5.024v7.106h2.398v-7.106l5.024 5.024 1.695-1.7-5.019-5.019h7.101v-2.398Z"/><g clip-path="url(#g)"><path fill="#fff" d="M356.017 98.938a12.562 12.562 0 0 1-8.554-9.144 12.38 12.38 0 0 1 .212-6.458 12.457 12.457 0 0 1-3.669-9.282 12.43 12.43 0 0 1 3.963-8.72 12.401 12.401 0 0 1 5.7-3.046c.039-.14.078-.278.12-.42 2.009-6.598 9.012-10.333 15.614-8.323a12.397 12.397 0 0 1 5.487 3.412c.141-.04.282-.072.423-.105a12.513 12.513 0 0 1 6.463.213 12.554 12.554 0 0 1 8.552 9.147 12.39 12.39 0 0 1-.21 6.458 12.422 12.422 0 0 1 3.666 9.28 12.425 12.425 0 0 1-3.962 8.718 12.41 12.41 0 0 1-5.7 3.047 17.1 17.1 0 0 1-.12.419c-2.01 6.602-9.013 10.334-15.614 8.324a12.404 12.404 0 0 1-5.488-3.412c-.141.04-.281.072-.422.105a12.516 12.516 0 0 1-6.464-.213h.003Z"/><path fill="#FFDA22" d="M388.953 74.353a10.76 10.76 0 0 0-1.192-1.096 10.45 10.45 0 0 0 .611-6.593c-1.312-5.649-6.955-9.168-12.604-7.856-.536.123-1.051.287-1.546.485a10.456 10.456 0 0 0-5.403-3.828c-5.55-1.69-11.418 1.438-13.107 6.988a11.002 11.002 0 0 0-.354 1.581 10.453 10.453 0 0 0-6.017 2.768c-4.239 3.96-4.463 10.606-.5 14.845.374.401.775.766 1.195 1.096a10.443 10.443 0 0 0-.611 6.593c1.312 5.649 6.955 9.168 12.604 7.856a10.416 10.416 0 0 0 1.545-.485 10.46 10.46 0 0 0 5.404 3.828c5.55 1.689 11.418-1.438 13.107-6.988.159-.524.276-1.054.353-1.582a10.454 10.454 0 0 0 6.018-2.767c4.238-3.96 4.463-10.606.5-14.845h-.003Z"/><path fill="#FFDA22" d="M368.897 82.887a4.885 4.885 0 1 0 0-9.77 4.885 4.885 0 0 0 0 9.77Z"/><path fill="#000" stroke="#000" stroke-linecap="round" stroke-linejoin="round" stroke-width="1.5" d="M367.294 75.746c.325-1.067.261-2.031-.143-2.154-.403-.123-.994.642-1.318 1.709-.325 1.067-.261 2.03.142 2.154.404.123.994-.642 1.319-1.71ZM372.259 77.261c.325-1.067.261-2.03-.143-2.154-.403-.123-.994.642-1.318 1.71-.325 1.066-.261 2.03.142 2.153.404.123.994-.642 1.319-1.709Z"/><path stroke="#000" stroke-linecap="round" stroke-linejoin="round" d="M374.138 82.545c-1.686 1.127-4.247 1.441-6.826.656-2.582-.787-4.532-2.477-5.304-4.349"/><path stroke="#000" stroke-linecap="round" stroke-linejoin="round" d="M362.762 77.927a1.49 1.49 0 0 1-1.863.991M374.031 81.36c-.24.787.203 1.623.991 1.862"/></g><g clip-path="url(#h)"><path fill="#fff" d="M104.661 98.724c-9.767-.339-18.402-6.05-22.538-14.905-2.742-5.868-.282-12.83 5.48-15.522l.197-.09c3.642-1.618 7.728-1.162 10.893.852.486-3.72 2.759-7.143 6.339-8.899.065-.032.13-.062.195-.092 5.761-2.691 12.678-.107 15.419 5.762 4.136 8.854 2.973 19.145-3.035 26.85l-4.93 6.325-8.015-.279-.005-.002Z"/><path fill="#23A0E7" d="M105.817 61.769c-4.749 2.328-6.778 8.042-4.53 12.852-2.248-4.812-7.93-6.924-12.763-4.777-4.987 2.215-7.086 8.27-4.778 13.213a24.07 24.07 0 0 0 20.978 13.871l7.098.247 4.367-5.602a24.073 24.073 0 0 0 2.826-24.989c-2.308-4.942-8.298-7.218-13.196-4.815h-.002Z"/><path fill="#000" stroke="#000" stroke-linecap="round" stroke-linejoin="round" stroke-width="1.5" d="M102.47 82.53c.383-.18.311-1.142-.161-2.151-.471-1.01-1.163-1.683-1.546-1.504-.382.179-.31 1.142.161 2.15.472 1.01 1.164 1.683 1.546 1.505ZM106.526 80.433c.382-.178.31-1.141-.162-2.15-.471-1.01-1.163-1.683-1.546-1.504-.382.179-.31 1.142.161 2.15.472 1.01 1.164 1.683 1.547 1.504Z"/><path stroke="#000" stroke-linecap="round" stroke-linejoin="round" d="M111.735 82.024c-.525 1.955-2.238 3.88-4.691 4.987-2.455 1.11-5.032 1.126-6.842.23"/><path stroke="#000" stroke-linecap="round" stroke-linejoin="round" d="M100.157 86.048c.339.75.005 1.633-.744 1.972M110.869 81.205a1.491 1.491 0 0 0 1.972.744"/></g><path fill="#fff" d="m171.155 40.42-18.866 14.183 3.547 27.557c.701 5.447 5.663 9.31 11.116 8.652l131.96-15.92c5.514-.665 9.43-5.696 8.72-11.205l-3.787-29.423c-.702-5.45-5.672-9.314-11.128-8.65L171.155 40.422Z"/><path fill="#F97412" d="M166.866 38.007 148 52.19l3.547 27.557c.701 5.447 5.664 9.309 11.116 8.651l131.96-15.92c5.514-.665 9.43-5.696 8.721-11.205l-3.788-29.422c-.702-5.452-5.671-9.315-11.127-8.65L166.866 38.007Z"/><path fill="#fff" d="M160.019 56.174 148 52.19l18.866-14.183-6.847 18.167ZM181.441 72.422c-.538.062-.993-.036-1.365-.293-.373-.258-.593-.646-.661-1.164l-2.573-19.657c-.068-.518.046-.944.341-1.279.295-.334.711-.533 1.249-.595l.139-.016c.353-.04.679.007.979.141.3.135.605.382.915.74l11.049 13.439-.721-4.426-1.239-9.468c-.068-.518.046-.944.341-1.279.295-.335.711-.533 1.249-.595l.139-.016c.538-.062.993.036 1.366.294.372.258.592.646.66 1.164l2.573 19.656c.068.518-.046.945-.341 1.28-.295.334-.711.532-1.249.594l-.139.016a1.828 1.828 0 0 1-1.101-.211c-.328-.207-.704-.567-1.129-1.082l-10.72-13.082.717 4.399 1.25 9.55c.068.519-.046.945-.341 1.28-.295.334-.711.532-1.249.594l-.139.016Zm26.85-2.98c-2.003.231-3.809-.05-5.419-.84-1.646-.788-3.002-2.013-4.067-3.675-1.067-1.68-1.749-3.66-2.047-5.936-.303-2.314-.151-4.389.456-6.224.602-1.873 1.592-3.368 2.97-4.485 1.395-1.138 3.084-1.82 5.069-2.05 1.984-.228 3.799.051 5.446.839 1.628.79 2.975 2.024 4.042 3.705 1.065 1.662 1.746 3.632 2.044 5.908.301 2.295.149 4.37-.456 6.224-.601 1.873-1.6 3.379-2.994 4.516-1.379 1.117-3.06 1.79-5.044 2.018Zm-7.767-10.8c.215 1.647.664 3.06 1.346 4.241.7 1.178 1.566 2.046 2.599 2.603a5.692 5.692 0 0 0 3.385.625c1.206-.139 2.238-.596 3.096-1.371.875-.796 1.491-1.844 1.848-3.144.373-1.32.45-2.813.232-4.48-.218-1.665-.677-3.087-1.377-4.265-.684-1.199-1.552-2.076-2.603-2.631-1.036-.576-2.156-.795-3.361-.656-1.224.141-2.264.608-3.12 1.402-.857.794-1.471 1.851-1.844 3.172-.355 1.318-.422 2.82-.201 4.504Zm27.588 8.405c-.537.062-.993-.036-1.365-.294-.373-.258-.593-.645-.661-1.164l-2.34-17.88-5.063.584c-.537.062-.983-.037-1.337-.297-.336-.262-.537-.652-.605-1.17-.068-.519.027-.943.285-1.273.276-.333.684-.53 1.221-.592l13.853-1.595c.538-.062.974.038 1.31.3.354.26.565.649.632 1.167.068.518-.036.944-.313 1.276-.257.33-.655.526-1.193.588l-5.035.58 2.34 17.88c.068.518-.045.944-.34 1.279-.295.334-.712.533-1.25.595l-.139.016Zm12.007-1.383c-.538.062-.993-.036-1.366-.294-.372-.258-.592-.645-.66-1.164L235.52 44.55c-.068-.518.046-.945.341-1.28.295-.334.711-.532 1.249-.594l.139-.016c.538-.062.993.036 1.366.294.372.257.592.645.66 1.163l2.573 19.657c.068.518-.046.945-.341 1.279-.295.335-.711.533-1.249.595l-.139.016Zm13.942-1.493c-1.966.226-3.744-.058-5.335-.851-1.61-.792-2.937-2.02-3.983-3.684-1.047-1.665-1.72-3.644-2.02-5.94-.298-2.276-.156-4.35.428-6.22.583-1.871 1.555-3.364 2.915-4.479 1.357-1.133 3.01-1.812 4.957-2.036a9.949 9.949 0 0 1 3.24.162c1.082.214 2.031.565 2.848 1.053.51.298.799.706.867 1.225.041.314-.044.672-.255 1.072-.329.507-.753.791-1.273.85a1.805 1.805 0 0 1-1.013-.193c-1.298-.714-2.624-.994-3.978-.838-1.187.137-2.199.601-3.037 1.393-.819.79-1.405 1.843-1.76 3.162-.336 1.316-.394 2.816-.173 4.5.215 1.648.655 3.063 1.318 4.245.681 1.18 1.52 2.051 2.516 2.613 1.014.56 2.115.77 3.302.634.834-.096 1.572-.284 2.213-.565a6.599 6.599 0 0 0 1.785-1.248c.334-.32.706-.504 1.114-.551.463-.053.897.094 1.3.442.377.295.594.655.649 1.08.071.537-.127 1.04-.593 1.506-.678.717-1.533 1.304-2.565 1.761-1.032.457-2.188.76-3.467.907Zm13.22-1.748c-1.613.185-2.83-.05-3.65-.707-.802-.66-1.312-1.822-1.53-3.488l-2.035-15.547c-.118-.907-.026-1.566.278-1.977.32-.431.944-.7 1.871-.807l9.596-1.105c.538-.062.975.038 1.31.3.354.26.565.649.633 1.167.068.518-.036.944-.313 1.276-.258.33-.656.527-1.194.588l-7.621.878c-.241.028-.41.104-.507.228-.099.105-.132.287-.098.546l.72 5.498 7.705-.888c.538-.062.974.038 1.31.3.354.26.565.649.633 1.167.067.519-.037.944-.313 1.276-.258.33-.656.527-1.194.589l-7.705.887.665 5.08c.068.519.247.884.538 1.094.291.21.706.285 1.244.223l7.009-.807c.538-.062.975.038 1.31.3.354.26.565.649.633 1.167.068.518-.036.944-.313 1.276-.258.33-.656.527-1.194.589l-7.788.897Z"/></g><rect width="430" height="100" x="25" y="130" fill="#fff" rx="20"/><g clip-path="url(#i)"><rect width="422" height="92" x="29" y="134" fill="#fff" rx="16"/><path fill="#0C0C0C" d="M89.064 176.389c.28 0 .536-.186.637-.464a.744.744 0 0 0-.187-.797c-1.136-1.062-.952-1.796-1.43-4.162h4.65c1.599 0 2.965-1.203 3.247-2.86l1.916-11.247c.314-1.842-.797-3.601-2.53-4.005-4.464-1.041-16.232-3.465-29.058-3.465-8.763 0-16.512 1.113-23.031 3.31-1.533.516-2.494 2.177-2.236 3.864l1.756 11.479c.26 1.694 1.63 2.924 3.258 2.924H81.79c1.994 3.604 5.249 4.649 7.023 5.374a.798.798 0 0 0 .25.049Z"/><path fill="#ED4BA2" d="M43.227 153.771c19.11-6.435 43.587-1.656 51.408.169 1.414.33 2.325 1.774 2.069 3.276-.53 3.104-1.397 8.201-1.902 11.165-.232 1.356-1.35 2.339-2.657 2.339h-5.108c.372 2.248.144 3.705 1.727 5.184.088.083.006.23-.105.184-1.617-.66-5.008-1.73-6.833-5.368H45.81c-1.325 0-2.454-1.014-2.666-2.393l-1.743-11.395c-.213-1.382.559-2.734 1.825-3.161Z"/><path fill="#FF52AF" d="M43.227 153.772c16.279-5.483 36.446-2.827 46.9-.792-1.87 5.448-7 12.719-21.07 13.203-15.656.537-23.45-3.383-27.506-8.265l-.15-.985c-.212-1.383.56-2.735 1.826-3.161Z"/><path fill="#fff" d="M49.987 155.627c1.48-.013 2.654.831 2.971 2.069h1.93v-2.565H56.5v6.208h-1.612v-2.348H52.97c-.305 1.269-1.492 2.133-2.983 2.133-1.778 0-3.085-1.156-3.073-2.768-.012-1.587 1.295-2.742 3.072-2.729Zm0 1.345c-.9-.012-1.548.521-1.536 1.384-.012.863.635 1.409 1.536 1.409.877 0 1.511-.546 1.511-1.409s-.634-1.396-1.51-1.384Zm.407 4.875v1.117h4.494v-1.117H56.5v4.71h-7.706v-4.71h1.6Zm0 3.403h4.494v-1.041h-4.494v1.041Zm17.1-10.119v11.553h-1.56v-11.553h1.56Zm-2.45.204v10.829h-1.51v-5.497h-2.07v-1.321h2.07v-4.011h1.51Zm-2.792 1.104v1.295H59.42v5.027c1.237-.006 2.17-.069 3.25-.292l.127 1.321c-1.308.266-2.476.317-4.165.317h-.8v-7.668h4.419Zm15.615-1.308v11.579H76.23v-11.579h1.637Zm-6.271.813c1.74 0 3.034 1.6 3.034 4.113 0 2.539-1.295 4.126-3.034 4.126-1.777 0-3.072-1.587-3.06-4.126-.012-2.513 1.283-4.113 3.06-4.113Zm0 1.46c-.901 0-1.498.939-1.498 2.653 0 1.727.597 2.654 1.498 2.654.876 0 1.473-.927 1.473-2.654 0-1.714-.597-2.653-1.473-2.653Zm16.733 3.694v1.282h-8.176v-6.398h8.087v1.308h-6.436v1.218h6.17v1.27h-6.17v1.32h6.525Zm1.155 2.92v1.321H78.91v-1.321h10.575Z"/><path fill="#fff" stroke="#000" stroke-linecap="round" stroke-width=".8" d="M49.077 149.937a3.936 3.936 0 1 0 7.873 0A3.936 3.936 0 0 0 53.013 146c-2.158 0-3.936 1.778-3.936 3.937Z"/><path fill="#000" stroke="#000" stroke-linecap="round" stroke-width=".8" d="M53.585 151.143c0 1.111.635 2 1.396 2 .762 0 1.397-.889 1.397-2s-.635-2-1.397-2c-.761 0-1.396.889-1.396 2Z"/><path fill="#fff" stroke="#000" stroke-linecap="round" stroke-width=".8" d="M42.95 149.937a3.936 3.936 0 0 0 3.936 3.936 3.916 3.916 0 0 0 3.937-3.936c0-2.159-1.778-3.937-3.937-3.937-2.158 0-3.936 1.778-3.936 3.937Z"/><path fill="#000" stroke="#000" stroke-linecap="round" stroke-width=".8" d="M47.458 151.143c0 1.111.635 2 1.397 2s1.397-.889 1.397-2-.635-2-1.397-2c-.794 0-1.397.889-1.397 2Z"/><path fill="#fff" stroke="#000" stroke-width=".8" d="M96.486 159.708c-.542.7-.407 1.716.316 2.258.7.542 1.716.407 2.258-.316l5.284-6.932a1.6 1.6 0 0 0-.316-2.258 1.6 1.6 0 0 0-2.259.316l-5.283 6.932Z"/><path fill="#fff" stroke="#000" stroke-width=".8" d="M97.908 160.386c-.203.858-1.084 1.4-1.964 1.196-.859-.203-1.4-1.084-1.197-1.964l2.055-8.468c.203-.858 1.083-1.4 1.964-1.197a1.625 1.625 0 0 1 1.197 1.942l-2.055 8.491Z"/><path fill="#fff" stroke="#000" stroke-width=".8" d="m104.185 162.26-1.806 3.793a5.58 5.58 0 0 1-7.452 2.642 5.589 5.589 0 0 1-2.664-7.474l1.806-3.793 10.116 4.832Z"/><path fill="#fff" stroke="#000" stroke-width=".8" d="M100.686 162.847a1.599 1.599 0 0 0 .767 2.145 1.599 1.599 0 0 0 2.145-.768l1.242-2.597a1.6 1.6 0 0 0-.767-2.145 1.6 1.6 0 0 0-2.146.768l-1.241 2.597Z"/><path fill="#fff" stroke="#000" stroke-width=".8" d="M97.773 161.469a1.6 1.6 0 0 0 .767 2.146 1.6 1.6 0 0 0 2.146-.768l1.241-2.597a1.599 1.599 0 0 0-.767-2.145 1.6 1.6 0 0 0-2.145.768l-1.242 2.596Z"/><path fill="#fff" stroke="#000" stroke-width=".8" d="M91.97 163.547a1.707 1.707 0 0 0 2.28-.813l.949-2.01 1.942.926c.406.203.88.226 1.31.068.428-.158.767-.474.97-.881a1.708 1.708 0 0 0-.813-2.281l-1.942-.925c-1.67-.791-3.725-.068-4.538 1.625l-.949 2.01a1.68 1.68 0 0 0 .79 2.281Z"/><rect width="217" height="17" x="110.998" y="165" fill="#FF52AF" rx="2"/><path fill="#FF38A4" d="M114.633 160.58c-.299 0-.537-.079-.714-.238-.168-.168-.252-.387-.252-.658 0-1.344 1.059-2.865 3.178-4.564.709-.56 1.218-1.064 1.526-1.512.317-.448.476-.901.476-1.358 0-.467-.149-.845-.448-1.134-.289-.299-.663-.448-1.12-.448-.327 0-.635.079-.924.238-.28.159-.574.406-.882.742-.215.243-.471.364-.77.364a.839.839 0 0 1-.546-.182c-.233-.177-.35-.392-.35-.644a1 1 0 0 1 .182-.574c.317-.485.765-.877 1.344-1.176a4.169 4.169 0 0 1 1.918-.448c.7 0 1.311.145 1.834.434a3.114 3.114 0 0 1 1.652 2.786c0 .569-.107 1.083-.322 1.54a4.627 4.627 0 0 1-.826 1.19c-.336.364-.877.863-1.624 1.498-.644.551-1.134 1.017-1.47 1.4-.327.373-.551.728-.672 1.064h4.312c.289 0 .523.079.7.238.177.149.266.35.266.602 0 .261-.089.467-.266.616-.168.149-.401.224-.7.224h-5.502Zm11.003.112c-.821 0-1.535-.233-2.142-.7-.606-.467-1.073-1.139-1.4-2.016-.326-.877-.49-1.923-.49-3.136s.164-2.259.49-3.136c.327-.877.794-1.549 1.4-2.016.607-.467 1.321-.7 2.142-.7.812 0 1.522.233 2.128.7.607.457 1.074 1.129 1.4 2.016.327.877.49 1.923.49 3.136s-.163 2.263-.49 3.15c-.326.877-.793 1.549-1.4 2.016-.606.457-1.316.686-2.128.686Zm-2.142-5.852c0 1.297.192 2.319.574 3.066.383.737.906 1.106 1.568 1.106.663 0 1.181-.369 1.554-1.106.383-.747.574-1.769.574-3.066s-.191-2.315-.574-3.052c-.373-.747-.891-1.12-1.554-1.12-.662 0-1.185.373-1.568 1.12-.382.737-.574 1.755-.574 3.052Zm7.629 5.74c-.299 0-.537-.079-.714-.238-.168-.168-.252-.387-.252-.658 0-1.344 1.059-2.865 3.178-4.564.709-.56 1.218-1.064 1.526-1.512.317-.448.476-.901.476-1.358 0-.467-.15-.845-.448-1.134-.29-.299-.663-.448-1.12-.448-.327 0-.635.079-.924.238-.28.159-.574.406-.882.742-.215.243-.472.364-.77.364a.839.839 0 0 1-.546-.182c-.234-.177-.35-.392-.35-.644 0-.205.06-.397.182-.574.317-.485.765-.877 1.344-1.176a4.169 4.169 0 0 1 1.918-.448c.7 0 1.311.145 1.834.434a3.114 3.114 0 0 1 1.652 2.786 3.59 3.59 0 0 1-.322 1.54 4.652 4.652 0 0 1-.826 1.19c-.336.364-.878.863-1.624 1.498-.644.551-1.134 1.017-1.47 1.4-.327.373-.551.728-.672 1.064h4.312c.289 0 .522.079.7.238.177.149.266.35.266.602 0 .261-.089.467-.266.616-.168.149-.402.224-.7.224h-5.502Zm7.937 0c-.299 0-.537-.079-.714-.238-.168-.168-.252-.387-.252-.658 0-1.344 1.059-2.865 3.178-4.564.709-.56 1.218-1.064 1.526-1.512.317-.448.476-.901.476-1.358 0-.467-.149-.845-.448-1.134-.289-.299-.663-.448-1.12-.448-.327 0-.635.079-.924.238-.28.159-.574.406-.882.742-.215.243-.471.364-.77.364a.839.839 0 0 1-.546-.182c-.233-.177-.35-.392-.35-.644a1 1 0 0 1 .182-.574c.317-.485.765-.877 1.344-1.176a4.169 4.169 0 0 1 1.918-.448c.7 0 1.311.145 1.834.434a3.114 3.114 0 0 1 1.652 2.786c0 .569-.107 1.083-.322 1.54a4.627 4.627 0 0 1-.826 1.19c-.336.364-.877.863-1.624 1.498-.644.551-1.134 1.017-1.47 1.4-.327.373-.551.728-.672 1.064h4.312c.289 0 .523.079.7.238.177.149.266.35.266.602 0 .261-.089.467-.266.616-.168.149-.401.224-.7.224h-5.502Zm19.883 1.316c-.271 0-.49-.079-.658-.238-.159-.159-.238-.378-.238-.658v-6.314h-1.218v6.132c0 .28-.08.499-.238.658-.15.159-.36.238-.63.238-.271 0-.49-.079-.658-.238-.159-.159-.238-.378-.238-.658V149.52c0-.28.079-.499.238-.658.168-.159.387-.238.658-.238.27 0 .48.079.63.238.158.159.238.378.238.658v3.486h1.218v-3.626c0-.28.079-.499.238-.658.168-.159.387-.238.658-.238.27 0 .48.079.63.238.158.159.238.378.238.658V161c0 .28-.08.499-.238.658-.15.159-.36.238-.63.238Zm-10.472-3.878c0-.28.126-.509.378-.686a9.262 9.262 0 0 0 1.778-1.792c.522-.691.928-1.4 1.218-2.128.289-.728.434-1.395.434-2.002v-.168c0-.187-.08-.289-.238-.308h-2.38c-.271 0-.486-.075-.644-.224-.15-.149-.224-.355-.224-.616s.074-.467.224-.616c.158-.149.373-.224.644-.224h3.248c.336 0 .611.112.826.336.214.215.322.499.322.854v.378a8.99 8.99 0 0 1-.658 3.43 10.918 10.918 0 0 1-1.568 2.674c-.616.765-1.251 1.363-1.904 1.792a1.067 1.067 0 0 1-.588.182.81.81 0 0 1-.658-.308.871.871 0 0 1-.21-.574Zm13.337-2.408a.876.876 0 0 1-.686-.322.967.967 0 0 1-.21-.588c0-.289.131-.509.392-.658a16.57 16.57 0 0 0 1.372-.868c.84-.597 1.26-1.269 1.26-2.016v-.504h-1.918c-.27 0-.485-.075-.644-.224-.149-.149-.224-.355-.224-.616s.075-.467.224-.616c.159-.149.374-.224.644-.224h5.46c.271 0 .481.075.63.224.159.149.238.355.238.616s-.079.467-.238.616c-.149.149-.359.224-.63.224h-1.722v.504c0 .252-.028.504-.084.756 1.12.579 2.012 1.171 2.674 1.778a.904.904 0 0 1 .322.714.815.815 0 0 1-.238.602.878.878 0 0 1-.644.266.854.854 0 0 1-.56-.196c-.7-.607-1.47-1.148-2.31-1.624-.569.747-1.432 1.423-2.59 2.03-.168.084-.34.126-.518.126Zm2.324 3.346c0-.653.145-1.223.434-1.708a3.026 3.026 0 0 1 1.246-1.148c.542-.271 1.158-.406 1.848-.406.691 0 1.302.135 1.834.406.542.271.957.653 1.246 1.148.299.485.448 1.055.448 1.708s-.149 1.227-.448 1.722a2.94 2.94 0 0 1-1.246 1.134c-.532.271-1.143.406-1.834.406-.69 0-1.306-.135-1.848-.406a3.061 3.061 0 0 1-1.246-1.134c-.289-.495-.434-1.069-.434-1.722Zm1.82 0c0 .467.164.849.49 1.148.327.289.733.434 1.218.434.486 0 .892-.145 1.218-.434.327-.299.49-.681.49-1.148a1.47 1.47 0 0 0-.49-1.134c-.326-.299-.732-.448-1.218-.448-.485 0-.891.149-1.218.448-.326.299-.49.677-.49 1.134Zm1.54-7.07c0-.261.075-.467.224-.616.159-.149.374-.224.644-.224h1.4v-1.722c0-.261.084-.467.252-.616.168-.149.388-.224.658-.224h.07c.271 0 .49.075.658.224.168.149.252.355.252.616v5.754c0 .261-.084.467-.252.616-.168.149-.387.224-.658.224h-.07c-.27 0-.49-.075-.658-.224-.168-.149-.252-.355-.252-.616v-2.352h-1.4c-.27 0-.485-.075-.644-.224-.149-.149-.224-.355-.224-.616Zm11.843 8.75c-.27 0-.49-.075-.658-.224-.168-.149-.252-.355-.252-.616v-4.354l-.028-.042-3.108-4.914c-.112-.187-.168-.359-.168-.518 0-.289.164-.541.49-.756.196-.112.388-.168.574-.168.318 0 .56.14.728.42l2.45 4.158 2.45-4.158a.802.802 0 0 1 .728-.42c.187 0 .378.056.574.168.327.215.49.467.49.756 0 .159-.056.331-.168.518l-3.108 4.914-.014.028v4.368c0 .261-.084.467-.252.616-.168.149-.387.224-.658.224h-.07Zm6.989-.056c-.812 0-1.4-.187-1.764-.56-.355-.373-.532-.98-.532-1.82v-7.84c0-.457.089-.779.266-.966.187-.196.513-.294.98-.294h2.898c.728 0 1.372.135 1.932.406.569.261 1.008.63 1.316 1.106.308.467.462 1.003.462 1.61 0 .495-.126.943-.378 1.344a2.342 2.342 0 0 1-.994.91c.672.252 1.181.635 1.526 1.148.355.504.532 1.097.532 1.778 0 .616-.159 1.167-.476 1.652-.317.476-.77.849-1.358 1.12-.579.271-1.251.406-2.016.406h-2.394Zm-.406-2.436c0 .261.065.453.196.574.131.121.331.182.602.182h2.142c.551 0 .989-.149 1.316-.448.336-.308.504-.709.504-1.204s-.182-.896-.546-1.204c-.355-.308-.826-.462-1.414-.462h-2.8v2.562Zm2.394-4.214c.523 0 .933-.14 1.232-.42.299-.289.448-.677.448-1.162 0-.485-.154-.868-.462-1.148-.299-.28-.705-.42-1.218-.42h-2.044c-.121 0-.21.028-.266.084-.056.047-.084.135-.084.266v2.8h2.394Zm5.726 6.706c-.271 0-.49-.075-.658-.224-.168-.149-.252-.355-.252-.616v-9.856c0-.261.084-.476.252-.644.168-.168.387-.252.658-.252.513 0 .868.243 1.064.728 1.446 3.481 2.492 6.169 3.136 8.064h.056c.438-1.176 1.502-3.864 3.192-8.064.093-.243.219-.425.378-.546.168-.121.387-.182.658-.182.27 0 .49.084.658.252a.873.873 0 0 1 .252.644v9.856c0 .261-.084.467-.252.616-.168.149-.388.224-.658.224h-.07c-.271 0-.49-.075-.658-.224-.168-.149-.252-.355-.252-.616v-4.032l.154-2.03c-.56 1.531-1.358 3.542-2.394 6.034-.122.308-.262.532-.42.672-.15.131-.35.196-.602.196s-.458-.065-.616-.196c-.15-.14-.285-.364-.406-.672-1.074-2.567-1.872-4.611-2.394-6.132l.154 2.128v4.032c0 .261-.084.467-.252.616-.168.149-.388.224-.658.224h-.07Zm13.264-.154c-.27 0-.485-.075-.644-.224-.149-.149-.224-.355-.224-.616s.075-.467.224-.616c.159-.149.374-.224.644-.224h1.806v-4.48c0-.28.084-.499.252-.658.178-.159.406-.238.686-.238.299 0 .532.079.7.238.168.159.252.378.252.658v4.48h1.106v-4.48c0-.28.084-.499.252-.658.178-.159.406-.238.686-.238.299 0 .532.079.7.238.168.159.252.378.252.658v4.48h3.752c.271 0 .481.075.63.224.159.149.238.355.238.616s-.079.467-.238.616c-.149.149-.359.224-.63.224h-10.444Zm.938-10.584c0-.261.075-.467.224-.616.159-.149.374-.224.644-.224h6.538c.336 0 .612.112.826.336.215.215.322.499.322.854 0 1.419-.037 2.543-.112 3.374a11.038 11.038 0 0 1-.42 2.254.88.88 0 0 1-.308.434.803.803 0 0 1-.49.154.994.994 0 0 1-.448-.098c-.336-.14-.504-.415-.504-.826 0-.112.014-.224.042-.336.131-.569.22-1.181.266-1.834.047-.663.07-1.493.07-2.492 0-.093-.046-.14-.14-.14h-5.642c-.27 0-.485-.075-.644-.224-.149-.149-.224-.355-.224-.616Zm11.182 9.884c-.271 0-.485-.07-.644-.21-.149-.14-.229-.341-.238-.602 0-.261.079-.471.238-.63.159-.159.369-.238.63-.238h1.372v-3.99c0-.28.084-.499.252-.658.168-.159.392-.238.672-.238.299 0 .532.079.7.238.177.159.266.378.266.658v3.948c1.232-.084 2.212-.205 2.94-.364a1.28 1.28 0 0 1 .308-.042c.252 0 .443.079.574.238.14.149.21.35.21.602a.862.862 0 0 1-.168.532.8.8 0 0 1-.49.294c-.597.131-1.339.243-2.226.336-.887.084-1.666.126-2.338.126h-2.058Zm-.294-9.87c0-.261.075-.467.224-.616.159-.149.373-.224.644-.224h4.858c.336 0 .611.112.826.336.215.215.322.499.322.854 0 1.241-.028 2.212-.084 2.912a10.84 10.84 0 0 1-.35 2.002.85.85 0 0 1-.308.448.889.889 0 0 1-.518.154c-.084 0-.205-.023-.364-.07-.355-.131-.532-.397-.532-.798l.028-.294c.121-.607.201-1.157.238-1.652.037-.495.056-1.181.056-2.058 0-.112-.056-.168-.168-.168h-4.004c-.271 0-.485-.07-.644-.21-.149-.149-.224-.355-.224-.616Zm8.204-.588c0-.261.084-.467.252-.616.168-.149.387-.224.658-.224h.07c.271 0 .49.075.658.224.168.149.252.355.252.616v3.71h1.05c.271 0 .481.075.63.224.159.149.238.355.238.616s-.079.467-.238.616c-.149.149-.359.224-.63.224h-1.05v6.342c0 .261-.084.467-.252.616-.168.149-.387.224-.658.224h-.07c-.271 0-.49-.075-.658-.224-.168-.149-.252-.355-.252-.616v-11.732Zm4.784 9.646a.91.91 0 0 1-.602-.224.868.868 0 0 1-.266-.336.976.976 0 0 1-.098-.42.79.79 0 0 1 .252-.574c.914-.868 1.605-1.792 2.072-2.772.466-.989.7-2.077.7-3.262v-1.456c0-.271.088-.485.266-.644.177-.168.406-.252.686-.252s.504.079.672.238c.177.159.266.378.266.658v1.456c0 .551-.052 1.134-.154 1.75a23.174 23.174 0 0 1 1.75 2.128c.55.747.97 1.428 1.26 2.044.065.131.098.28.098.448 0 .327-.14.583-.42.77a.965.965 0 0 1-.546.168c-.318 0-.57-.154-.756-.462-.672-1.204-1.349-2.198-2.03-2.982a9.89 9.89 0 0 1-2.436 3.416.983.983 0 0 1-.714.308Zm5.432-5.796c0-.261.074-.467.224-.616.158-.149.373-.224.644-.224h1.652v-3.01c0-.261.084-.467.252-.616.168-.149.387-.224.658-.224h.07c.27 0 .49.075.658.224.168.149.252.355.252.616v11.732c0 .261-.084.467-.252.616-.168.149-.388.224-.658.224h-.07c-.271 0-.49-.075-.658-.224-.168-.149-.252-.355-.252-.616v-7.042h-1.652c-.271 0-.486-.075-.644-.224-.15-.149-.224-.355-.224-.616Zm9.141 2.45c-.271 0-.486-.075-.644-.224-.15-.159-.224-.369-.224-.63s.079-.467.238-.616c.158-.159.368-.233.63-.224l.602.014a1.734 1.734 0 0 1-.084-.574v-2.73h-.49c-.271 0-.486-.075-.644-.224-.15-.149-.224-.355-.224-.616s.074-.467.224-.616c.158-.149.373-.224.644-.224h6.062c.27 0 .48.075.63.224.158.149.238.355.238.616s-.08.467-.238.616c-.15.149-.36.224-.63.224h-.49v2.73c0 .224-.028.415-.084.574l.602-.014c.261-.009.471.065.63.224.158.149.238.355.238.616s-.08.471-.238.63c-.159.149-.369.224-.63.224h-6.118Zm1.4 2.198c0-.261.084-.467.252-.616.168-.149.387-.224.658-.224h.07c.27 0 .49.075.658.224.168.149.252.355.252.616v.406c0 .644.205 1.12.616 1.428.42.308 1.078.462 1.974.462.513 0 1.022-.047 1.526-.14a6.974 6.974 0 0 0 1.414-.406 1.09 1.09 0 0 1 .406-.084c.214 0 .392.084.532.252a.864.864 0 0 1 .224.616c0 .373-.257.663-.77.868-.98.383-2.091.574-3.332.574-1.456 0-2.567-.303-3.332-.91-.766-.607-1.148-1.475-1.148-2.604v-.462Zm.924-4.312c0 .159.032.271.098.336.065.065.172.098.322.098h.77c.186 0 .28-.145.28-.434v-2.87h-1.47v2.87Zm4.34-.112c0-.261.074-.467.224-.616.158-.149.373-.224.644-.224h.546v-.532h-.546c-.271 0-.486-.075-.644-.224-.15-.149-.224-.355-.224-.616s.074-.467.224-.616c.158-.149.373-.224.644-.224h.546v-1.022c0-.261.084-.467.252-.616.168-.149.387-.224.658-.224h.07c.27 0 .49.075.658.224.168.149.252.355.252.616v7.49c0 .261-.084.467-.252.616-.168.149-.388.224-.658.224h-.07c-.271 0-.49-.075-.658-.224-.168-.149-.252-.355-.252-.616v-2.576h-.546c-.271 0-.486-.075-.644-.224-.15-.149-.224-.355-.224-.616Zm5.567 2.324a.9.9 0 0 1-.658-.28.81.81 0 0 1-.224-.574c0-.308.136-.541.406-.7.588-.373 1.05-.686 1.386-.938.392-.299.705-.639.938-1.022a2.37 2.37 0 0 0 .35-1.26v-.308h-1.946c-.27 0-.485-.075-.644-.224-.149-.149-.224-.355-.224-.616s.075-.467.224-.616c.159-.149.374-.224.644-.224h5.46c.271 0 .481.075.63.224.159.149.238.355.238.616s-.079.467-.238.616c-.149.149-.359.224-.63.224h-1.694v.308c0 .355-.042.686-.126.994.476.252.966.555 1.47.91.504.345.962.7 1.372 1.064.215.187.322.42.322.7a.815.815 0 0 1-.238.602.925.925 0 0 1-.672.294.834.834 0 0 1-.546-.196 26.3 26.3 0 0 0-1.484-1.162 8.208 8.208 0 0 0-1.022-.658c-.56.737-1.404 1.428-2.534 2.072a1.147 1.147 0 0 1-.56.154Zm1.372 1.26c0-.28.08-.499.238-.658.168-.159.388-.238.658-.238.299 0 .528.079.686.238.159.159.238.378.238.658v.546h4.872v-.546c0-.28.08-.499.238-.658.168-.159.388-.238.658-.238.299 0 .528.079.686.238.159.159.238.378.238.658v2.856c0 .653-.168 1.157-.504 1.512-.336.364-.812.546-1.428.546h-4.508c-.644 0-1.152-.182-1.526-.546-.364-.364-.546-.868-.546-1.512v-2.856Zm1.82 2.8c0 .289.154.434.462.434h3.948c.308 0 .462-.145.462-.434v-.644h-4.872v.644Zm4.83-10.458c0-.261.084-.467.252-.616.168-.149.388-.224.658-.224h.07c.271 0 .49.075.658.224.168.149.252.355.252.616v5.474c0 .261-.084.467-.252.616-.168.149-.387.224-.658.224h-.07c-.27 0-.49-.075-.658-.224-.168-.149-.252-.355-.252-.616v-5.474Zm4.07 9.632a.967.967 0 0 1-.588-.21.957.957 0 0 1-.252-.322.903.903 0 0 1-.098-.406c0-.243.084-.439.252-.588.877-.821 1.549-1.689 2.016-2.604.467-.924.7-1.862.7-2.814v-1.078h-1.834c-.271 0-.485-.075-.644-.224-.149-.149-.224-.355-.224-.616s.075-.467.224-.616c.159-.149.373-.224.644-.224h5.46c.271 0 .481.075.63.224.159.149.238.355.238.616s-.079.467-.238.616c-.149.149-.359.224-.63.224h-1.736v1.078c0 .495-.042.966-.126 1.414a24.114 24.114 0 0 1 1.764 2.002c.551.7.961 1.321 1.232 1.862a.983.983 0 0 1 0 .966.859.859 0 0 1-.336.322c-.177.093-.345.14-.504.14-.336 0-.597-.154-.784-.462a15.428 15.428 0 0 0-2.03-2.772c-.532 1.129-1.321 2.179-2.366 3.15a1.05 1.05 0 0 1-.77.322Zm7.546-9.632c0-.261.084-.467.252-.616.168-.149.387-.224.658-.224h.07c.271 0 .49.075.658.224.168.149.252.355.252.616v3.57h1.05c.271 0 .481.075.63.224.159.149.238.355.238.616s-.079.467-.238.616c-.149.149-.359.224-.63.224h-1.05v6.482c0 .261-.084.467-.252.616-.168.149-.387.224-.658.224h-.07c-.271 0-.49-.075-.658-.224-.168-.149-.252-.355-.252-.616v-11.732Zm10.065 6.468c-.7 0-1.321-.149-1.862-.448a3.395 3.395 0 0 1-1.274-1.246 3.592 3.592 0 0 1-.448-1.792c0-.691.158-1.297.476-1.82a3.288 3.288 0 0 1 1.288-1.218 3.749 3.749 0 0 1 1.82-.448c.662 0 1.264.145 1.806.434.55.299.98.714 1.288 1.246a3.46 3.46 0 0 1 .476 1.806c0 .653-.154 1.246-.462 1.778a3.274 3.274 0 0 1-1.26 1.26c-.542.299-1.158.448-1.848.448Zm-1.764-3.486c0 .541.163.98.49 1.316.326.327.751.49 1.274.49.513 0 .933-.168 1.26-.504.326-.336.49-.77.49-1.302s-.164-.966-.49-1.302c-.327-.336-.747-.504-1.26-.504-.523 0-.948.168-1.274.504-.327.336-.49.77-.49 1.302Zm.28 5.516c0-.261.084-.467.252-.616.168-.149.387-.224.658-.224h.07c.27 0 .49.075.658.224.168.149.252.355.252.616v.504c0 1.26.863 1.89 2.59 1.89 1.054 0 2.02-.177 2.898-.532a1.09 1.09 0 0 1 .406-.084c.233 0 .424.084.574.252a.895.895 0 0 1 .224.616c0 .364-.234.639-.7.826-1.036.401-2.17.602-3.402.602-1.456 0-2.567-.303-3.332-.91-.766-.607-1.148-1.475-1.148-2.604v-.56Zm6.678-8.498c0-.261.084-.467.252-.616.168-.149.387-.224.658-.224h.07c.27 0 .49.075.658.224.168.149.252.355.252.616v7.49c0 .261-.084.467-.252.616-.168.149-.388.224-.658.224h-.07c-.271 0-.49-.075-.658-.224-.168-.149-.252-.355-.252-.616v-7.49Zm7.387 9.534c-1.232 0-2.174-.266-2.828-.798-.644-.532-.966-1.297-.966-2.296v-5.362c0-.345.108-.625.322-.84.215-.224.49-.336.826-.336h4.746c.271 0 .481.075.63.224.159.149.238.355.238.616s-.079.467-.238.616c-.149.149-.359.224-.63.224h-3.822a.192.192 0 0 0-.14.056.226.226 0 0 0-.042.14v1.89h3.304c.271 0 .481.079.63.238.159.149.238.355.238.616s-.079.467-.238.616c-.149.14-.359.21-.63.21H299.3v1.036c0 .476.164.845.49 1.106.327.252.784.378 1.372.378.887 0 1.764-.135 2.632-.406.103-.028.196-.042.28-.042.196 0 .36.061.49.182.131.121.22.294.266.518a.47.47 0 0 1 .014.14c0 .392-.238.667-.714.826a9.981 9.981 0 0 1-2.926.448Zm2.548-5.124c0-.261.075-.467.224-.616.159-.149.374-.224.644-.224h1.372v-3.57c0-.261.084-.467.252-.616.168-.149.388-.224.658-.224h.07c.271 0 .49.075.658.224.168.149.252.355.252.616v11.732c0 .261-.084.467-.252.616-.168.149-.387.224-.658.224h-.07c-.27 0-.49-.075-.658-.224-.168-.149-.252-.355-.252-.616v-6.482h-1.372c-.27 0-.485-.075-.644-.224-.149-.149-.224-.355-.224-.616Zm9.264 8.274c-.28 0-.504-.079-.672-.238-.168-.159-.252-.378-.252-.658v-2.87h-2.296c-.28 0-.504-.075-.672-.224a.833.833 0 0 1-.238-.616c0-.252.079-.453.238-.602.168-.159.392-.238.672-.238h10.36c.28 0 .499.079.658.238.168.149.252.35.252.602a.81.81 0 0 1-.252.616c-.159.149-.378.224-.658.224h-2.254v2.87c0 .28-.084.499-.252.658-.159.159-.378.238-.658.238h-.056c-.28 0-.504-.079-.672-.238-.168-.159-.252-.378-.252-.658v-2.87h-2.03v2.87c0 .28-.084.499-.252.658-.159.159-.378.238-.658.238h-.056Zm-2.128-12.292c0-.28.089-.499.266-.658.177-.159.406-.238.686-.238s.504.079.672.238c.177.159.266.378.266.658v.882h4.396v-.882c0-.28.084-.499.252-.658.168-.159.392-.238.672-.238.289 0 .523.084.7.252.177.159.266.373.266.644v3.64c0 .644-.168 1.148-.504 1.512-.336.355-.812.532-1.428.532h-4.172c-.635 0-1.139-.182-1.512-.546-.373-.364-.56-.863-.56-1.498v-3.64Zm1.89 3.57c0 .289.154.434.462.434h3.472c.308 0 .462-.145.462-.434v-1.008h-4.396v1.008Z"/><path fill="#333" d="M340.034 162.148c-1.036 0-1.857-.061-2.464-.182-.644-.112-1.125-.313-1.442-.602-.317-.289-.476-.681-.476-1.176v-.462c0-.336.103-.597.308-.784.215-.187.495-.28.84-.28h5.124c.084 0 .126-.037.126-.112v-.252c0-.065-.042-.098-.126-.098h-5.46c-.271 0-.485-.065-.644-.196-.149-.14-.224-.336-.224-.588 0-.252.075-.439.224-.56.149-.131.364-.196.644-.196h6.23c.364 0 .644.107.84.322.205.205.308.49.308.854v1.176c0 .336-.089.597-.266.784-.177.177-.434.266-.77.266h-5.236c-.084 0-.126.037-.126.112v.084c0 .14.191.233.574.28.42.047 1.069.07 1.946.07 1.139 0 2.161-.075 3.066-.224l.266-.028c.243 0 .429.065.56.196.14.131.21.322.21.574a.664.664 0 0 1-.196.49.98.98 0 0 1-.532.28c-.728.168-1.829.252-3.304.252Zm-6.356-6.748c0-.252.079-.448.238-.588.159-.14.383-.21.672-.21h10.36c.289 0 .513.07.672.21.159.14.238.336.238.588 0 .252-.079.448-.238.588-.159.14-.383.21-.672.21h-10.36c-.289 0-.513-.07-.672-.21-.159-.14-.238-.336-.238-.588Zm1.974-5.894c0-.252.075-.448.224-.588.159-.14.373-.21.644-.21h6.174c.336 0 .611.112.826.336.215.215.322.495.322.84v1.232c0 .317-.098.574-.294.77-.187.187-.434.28-.742.28h-5.138c-.047 0-.07.019-.07.056v.14c0 .084.075.145.224.182.14.047.369.075.686.084.317.009.812.014 1.484.014 1.185 0 2.189-.061 3.01-.182a1.27 1.27 0 0 1 .238-.014c.448 0 .705.21.77.63a.419.419 0 0 1 .014.14.73.73 0 0 1-.196.518c-.121.131-.303.215-.546.252-.457.075-.985.131-1.582.168-.597.037-1.153.056-1.666.056-.999 0-1.815-.051-2.45-.154-.625-.103-1.097-.299-1.414-.588-.308-.299-.462-.719-.462-1.26v-.378c0-.345.107-.621.322-.826.215-.215.49-.322.826-.322h5.012c.056 0 .084-.023.084-.07v-.252c0-.056-.028-.084-.084-.084h-5.348c-.28 0-.495-.065-.644-.196-.149-.131-.224-.322-.224-.574Zm13.635 7.07c-.28 0-.504-.075-.672-.224a.833.833 0 0 1-.238-.616c0-.252.079-.453.238-.602.168-.159.392-.238.672-.238h4.228v-.756c-1.092-.084-1.885-.299-2.38-.644-.485-.345-.728-.859-.728-1.54v-2.072c0-.345.107-.625.322-.84a1.1 1.1 0 0 1 .812-.322h6.146c.261 0 .467.075.616.224.159.149.238.35.238.602 0 .261-.075.457-.224.588-.149.131-.359.196-.63.196h-5.222a.19.19 0 0 0-.14.056.15.15 0 0 0-.042.112v.196h5.32c.261 0 .467.065.616.196.159.121.238.294.238.518 0 .243-.075.425-.224.546-.149.112-.359.168-.63.168h-5.278c.075.187.289.308.644.364.355.056.943.084 1.764.084 1.241 0 2.231-.056 2.968-.168a1.27 1.27 0 0 1 .238-.014c.42 0 .667.205.742.616a.657.657 0 0 1 .014.168.747.747 0 0 1-.196.532.839.839 0 0 1-.518.266c-.607.103-1.465.173-2.576.21v.714h4.242c.28 0 .499.079.658.238.168.149.252.35.252.602a.81.81 0 0 1-.252.616c-.159.149-.378.224-.658.224h-10.36Zm1.708 2.982c0-.523.145-.98.434-1.372.289-.401.695-.714 1.218-.938.532-.224 1.148-.336 1.848-.336.7 0 1.311.112 1.834.336.532.224.943.537 1.232.938.289.392.434.849.434 1.372 0 .523-.145.985-.434 1.386-.289.401-.7.714-1.232.938-.523.224-1.134.336-1.834.336-.7 0-1.316-.112-1.848-.336-.523-.224-.929-.537-1.218-.938a2.31 2.31 0 0 1-.434-1.386Zm1.82 0c0 .308.154.555.462.742.308.187.714.28 1.218.28s.91-.093 1.218-.28c.308-.187.462-.434.462-.742s-.154-.551-.462-.728c-.308-.187-.714-.28-1.218-.28s-.91.093-1.218.28c-.308.177-.462.42-.462.728Zm18.378 2.338c-.271 0-.49-.079-.658-.238-.159-.159-.238-.378-.238-.658v-6.314h-1.218v6.132c0 .28-.08.499-.238.658-.15.159-.36.238-.63.238-.271 0-.49-.079-.658-.238-.159-.159-.238-.378-.238-.658V149.52c0-.28.079-.499.238-.658.168-.159.387-.238.658-.238.27 0 .48.079.63.238.158.159.238.378.238.658v3.486h1.218v-3.626c0-.28.079-.499.238-.658.168-.159.387-.238.658-.238.27 0 .48.079.63.238.158.159.238.378.238.658V161c0 .28-.08.499-.238.658-.15.159-.36.238-.63.238Zm-10.626-10.108c0-.261.074-.467.224-.616.158-.149.373-.224.644-.224h4.648c.27 0 .48.075.63.224.158.149.238.355.238.616 0 .252-.08.453-.238.602-.15.14-.36.21-.63.21h-4.648c-.271 0-.486-.07-.644-.21-.15-.149-.224-.35-.224-.602Zm.742 4.214c0-.569.116-1.083.35-1.54.233-.457.55-.812.952-1.064a2.411 2.411 0 0 1 1.344-.392c.494 0 .942.131 1.344.392.401.252.718.607.952 1.064.233.457.35.971.35 1.54 0 .579-.117 1.097-.35 1.554a2.67 2.67 0 0 1-.952 1.05c-.402.252-.85.378-1.344.378-.495 0-.943-.126-1.344-.378a2.654 2.654 0 0 1-.952-1.05c-.234-.457-.35-.975-.35-1.554Zm.21-6.804c0-.205.065-.387.196-.546a.847.847 0 0 1 .308-.238.859.859 0 0 1 .364-.084c.149 0 .294.042.434.126l.154.098c.14.084.289.14.448.168.158.028.401.042.728.042h1.092c.27 0 .48.079.63.238.158.149.238.355.238.616-.01.261-.094.462-.252.602-.15.14-.36.21-.63.21h-1.372c-.411 0-.766-.033-1.064-.098a1.992 1.992 0 0 1-.77-.35l-.168-.126a.785.785 0 0 1-.336-.658Zm1.554 6.804c0 .392.079.709.238.952.168.233.382.35.644.35.261 0 .471-.117.63-.35.168-.243.252-.56.252-.952 0-.392-.084-.709-.252-.952-.159-.243-.369-.364-.63-.364-.262 0-.476.121-.644.364-.159.243-.238.56-.238.952Zm-27.865 24.174c-1.484 0-2.59-.149-3.318-.448-.709-.289-1.064-.812-1.064-1.568v-.56c0-.336.103-.597.308-.784.215-.187.495-.28.84-.28h5.096c.103 0 .154-.051.154-.154v-.252c0-.084-.051-.126-.154-.126h-5.432c-.271 0-.485-.065-.644-.196-.149-.14-.224-.336-.224-.588 0-.252.075-.443.224-.574.159-.14.373-.21.644-.21h6.23c.364 0 .644.107.84.322.205.205.308.49.308.854v1.302c0 .336-.089.597-.266.784-.177.177-.434.266-.77.266h-5.236c-.037 0-.07.023-.098.07a.448.448 0 0 0-.028.168c0 .187.154.303.462.35.308.037.854.056 1.638.056h.35c.495 0 1.031-.019 1.61-.056a17.669 17.669 0 0 0 1.526-.182l.252-.028c.233 0 .42.07.56.21.149.14.224.336.224.588 0 .392-.243.639-.728.742a18.91 18.91 0 0 1-1.638.21c-.625.056-1.181.084-1.666.084Zm-6.384-7.084c0-.261.075-.467.224-.616.159-.149.373-.224.644-.224h10.5c.271 0 .481.075.63.224.159.149.238.355.238.616s-.079.467-.238.616c-.149.14-.359.21-.63.21h-10.5c-.271 0-.485-.07-.644-.21-.149-.149-.224-.355-.224-.616Zm2.282-3.962c0-.523.159-.98.476-1.372.317-.401.765-.714 1.344-.938.579-.224 1.251-.336 2.016-.336.765 0 1.437.112 2.016.336.588.224 1.041.537 1.358.938.317.392.476.849.476 1.372 0 .532-.159.999-.476 1.4-.308.392-.756.695-1.344.91-.579.215-1.255.322-2.03.322-.765 0-1.437-.112-2.016-.336-.579-.224-1.027-.532-1.344-.924a2.154 2.154 0 0 1-.476-1.372Zm1.89 0c0 .317.168.56.504.728.345.168.826.252 1.442.252.625 0 1.106-.084 1.442-.252.345-.168.518-.411.518-.728s-.173-.56-.518-.728c-.345-.177-.826-.266-1.442-.266-.607 0-1.083.089-1.428.266-.345.168-.518.411-.518.728Zm13.299 4.354c-.663 0-1.172-.168-1.526-.504-.346-.345-.518-.845-.518-1.498v-3.402c0-.364.093-.639.28-.826.196-.196.476-.294.84-.294h4.27c.364 0 .639.098.826.294.196.187.294.462.294.826v3.402c0 .672-.159 1.176-.476 1.512-.308.327-.784.49-1.428.49h-2.562Zm-.322 2.338c0-.261.084-.467.252-.616.168-.149.387-.224.658-.224h.07c.27 0 .49.075.658.224.168.149.252.355.252.616v.504c0 .635.21 1.111.63 1.428.42.308 1.068.462 1.946.462.466 0 .9-.033 1.302-.098.41-.075.84-.187 1.288-.336.158-.056.298-.084.42-.084.233 0 .424.079.574.238.158.149.238.359.238.63 0 .373-.243.649-.728.826-.906.336-2.026.504-3.36.504-1.344 0-2.38-.313-3.108-.938-.728-.635-1.092-1.493-1.092-2.576v-.56Zm.098-4.564c0 .187.042.327.126.42.093.084.233.126.42.126h1.778c.186 0 .322-.042.406-.126.093-.093.14-.233.14-.42v-2.408a.174.174 0 0 0-.07-.14.172.172 0 0 0-.14-.07h-2.45a.212.212 0 0 0-.154.07.187.187 0 0 0-.056.14v2.408Zm6.174-3.934c0-.261.084-.467.252-.616.168-.149.387-.224.658-.224h.07c.27 0 .49.075.658.224.168.149.252.355.252.616v2.03h1.078c.27 0 .48.075.63.224.158.149.238.355.238.616s-.08.467-.238.616c-.15.149-.36.224-.63.224h-1.078v3.766c0 .261-.084.467-.252.616-.168.149-.388.224-.658.224h-.07c-.271 0-.49-.075-.658-.224-.168-.149-.252-.355-.252-.616v-7.476Zm7.989 9.408c-1.185 0-2.114-.271-2.786-.812-.672-.541-1.008-1.302-1.008-2.282v-5.544c0-.28.089-.499.266-.658.178-.159.416-.238.714-.238.28 0 .5.079.658.238.168.159.252.378.252.658v5.474c0 .504.15.877.448 1.12.308.243.77.364 1.386.364.392 0 .752-.023 1.078-.07.336-.056.719-.145 1.148-.266.103-.028.201-.042.294-.042.224 0 .411.079.56.238.15.149.224.35.224.602a.78.78 0 0 1-.196.532 1.007 1.007 0 0 1-.518.322 9 9 0 0 1-1.274.294c-.373.047-.788.07-1.246.07Zm4.214-9.408c0-.261.084-.467.252-.616.168-.149.388-.224.658-.224h.07c.271 0 .49.075.658.224.168.149.252.355.252.616v3.57h1.05c.271 0 .481.075.63.224.159.149.238.355.238.616s-.079.467-.238.616c-.149.149-.359.224-.63.224h-1.05v6.482c0 .261-.084.467-.252.616-.168.149-.387.224-.658.224h-.07c-.27 0-.49-.075-.658-.224-.168-.149-.252-.355-.252-.616v-11.732Zm7.528 6.706c-.635 0-1.139-.182-1.512-.546-.373-.364-.56-.863-.56-1.498v-4.172c0-.28.084-.499.252-.658.177-.159.406-.238.686-.238h.056c.271 0 .485.079.644.238.168.159.252.378.252.658v1.176h4.396v-1.176c0-.28.079-.499.238-.658.168-.159.387-.238.658-.238h.056c.28 0 .504.079.672.238.177.159.266.378.266.658v4.172c0 .644-.168 1.148-.504 1.512-.336.355-.812.532-1.428.532h-4.172Zm-4.074 3.612c0-.261.075-.467.224-.616.159-.149.373-.224.644-.224h4.27v-1.54c0-.28.084-.499.252-.658.177-.159.406-.238.686-.238.299 0 .532.079.7.238.168.159.252.378.252.658v1.54h4.284c.271 0 .481.075.63.224.159.149.238.355.238.616s-.079.467-.238.616c-.149.149-.359.224-.63.224H368.77c-.271 0-.485-.075-.644-.224-.149-.149-.224-.355-.224-.616Zm3.892-5.726c0 .289.154.434.462.434h3.472c.308 0 .462-.145.462-.434v-1.246h-4.396v1.246Zm9.208 4.984a.824.824 0 0 1-.588-.224.796.796 0 0 1-.28-.616c0-.215.084-.42.252-.616.765-.849 1.316-1.736 1.652-2.66.345-.933.518-2.072.518-3.416v-1.428c0-.28.079-.499.238-.658.158-.159.373-.238.644-.238.27 0 .485.079.644.238.158.159.238.378.238.658v1.428c0 .877-.056 1.675-.168 2.394.438.523.858 1.115 1.26 1.778.401.653.732 1.293.994 1.918a1.5 1.5 0 0 1 .112.518.79.79 0 0 1-.434.742 1.222 1.222 0 0 1-.462.112.809.809 0 0 1-.448-.126.76.76 0 0 1-.294-.364 12.994 12.994 0 0 0-1.344-2.422c-.374.915-.976 1.801-1.806 2.66-.215.215-.458.322-.728.322Zm4.046-5.474c0-.261.074-.467.224-.616.158-.149.373-.224.644-.224h1.092v-3.08c0-.271.079-.485.238-.644.158-.159.373-.238.644-.238.27 0 .485.079.644.238.158.159.238.373.238.644v11.326c0 .271-.08.485-.238.644-.159.159-.374.238-.644.238-.271 0-.486-.079-.644-.238-.159-.159-.238-.373-.238-.644v-6.566h-1.092c-.271 0-.486-.075-.644-.224-.15-.149-.224-.355-.224-.616Zm4.774-4.06c0-.271.079-.485.238-.644.158-.159.373-.238.644-.238.27 0 .485.079.644.238.158.159.238.373.238.644v11.648c0 .271-.08.485-.238.644-.159.159-.374.238-.644.238-.271 0-.486-.079-.644-.238-.159-.159-.238-.373-.238-.644v-11.648Zm8.521 7c-.868 0-1.628-.163-2.282-.49-.653-.327-1.152-.775-1.498-1.344-.345-.569-.518-1.218-.518-1.946 0-.737.178-1.391.532-1.96.355-.569.859-1.013 1.512-1.33.654-.317 1.405-.476 2.254-.476.85 0 1.601.159 2.254.476.654.317 1.158.761 1.512 1.33.355.569.532 1.223.532 1.96 0 .728-.172 1.377-.518 1.946-.345.569-.844 1.017-1.498 1.344-.653.327-1.414.49-2.282.49Zm-6.118 3.276c0-.261.075-.467.224-.616.159-.149.374-.224.644-.224h2.38v-1.54c0-.28.084-.499.252-.658.178-.159.406-.238.686-.238.299 0 .532.079.7.238.168.159.252.378.252.658v1.54h1.946v-1.54c0-.28.084-.499.252-.658.178-.159.406-.238.686-.238.299 0 .532.079.7.238.168.159.252.378.252.658v1.54h2.394c.271 0 .481.075.63.224.159.149.238.355.238.616s-.079.467-.238.616c-.149.149-.359.224-.63.224h-10.5c-.27 0-.485-.075-.644-.224-.149-.149-.224-.355-.224-.616Zm3.71-7.056c0 .635.215 1.143.644 1.526.439.383 1.027.574 1.764.574.738 0 1.321-.191 1.75-.574.439-.383.658-.891.658-1.526 0-.625-.219-1.129-.658-1.512-.429-.383-1.012-.574-1.75-.574-.737 0-1.325.191-1.764.574-.429.383-.644.887-.644 1.512Zm9.992 4.998a.76.76 0 0 1-.56-.224c-.149-.149-.229-.35-.238-.602l-.168-6.748a.861.861 0 0 1 .266-.686.949.949 0 0 1 .7-.28c.28 0 .509.093.686.28a.861.861 0 0 1 .266.686l-.168 6.748a.845.845 0 0 1-.224.602.76.76 0 0 1-.56.224Zm-1.162 2.296c0-.308.112-.569.336-.784.224-.215.499-.322.826-.322.327 0 .602.107.826.322.224.215.336.476.336.784 0 .308-.112.569-.336.784a1.146 1.146 0 0 1-.826.322c-.327 0-.602-.107-.826-.322a1.045 1.045 0 0 1-.336-.784Z"/><path fill="#fff" d="M114.283 178.482c-.271 0-.485-.075-.644-.224-.149-.149-.224-.355-.224-.616s.075-.467.224-.616c.159-.149.373-.224.644-.224h1.806v-4.48c0-.28.084-.499.252-.658.177-.159.406-.238.686-.238.299 0 .532.079.7.238.168.159.252.378.252.658v4.48h1.106v-4.48c0-.28.084-.499.252-.658.177-.159.406-.238.686-.238.299 0 .532.079.7.238.168.159.252.378.252.658v4.48h3.752c.271 0 .481.075.63.224.159.149.238.355.238.616s-.079.467-.238.616c-.149.149-.359.224-.63.224h-10.444Zm.938-10.584c0-.261.075-.467.224-.616.159-.149.373-.224.644-.224h6.538c.336 0 .611.112.826.336.215.215.322.499.322.854 0 1.419-.037 2.543-.112 3.374a11.175 11.175 0 0 1-.42 2.254.88.88 0 0 1-.308.434.803.803 0 0 1-.49.154.994.994 0 0 1-.448-.098c-.336-.14-.504-.415-.504-.826 0-.112.014-.224.042-.336.131-.569.219-1.181.266-1.834.047-.663.07-1.493.07-2.492 0-.093-.047-.14-.14-.14h-5.642c-.271 0-.485-.075-.644-.224-.149-.149-.224-.355-.224-.616Zm11.181 9.884c-.27 0-.485-.07-.644-.21-.149-.14-.228-.341-.238-.602 0-.261.08-.471.238-.63.159-.159.369-.238.63-.238h1.372v-3.99c0-.28.084-.499.252-.658.168-.159.392-.238.672-.238.299 0 .532.079.7.238.178.159.266.378.266.658v3.948c1.232-.084 2.212-.205 2.94-.364a1.28 1.28 0 0 1 .308-.042c.252 0 .444.079.574.238.14.149.21.35.21.602a.862.862 0 0 1-.168.532.8.8 0 0 1-.49.294c-.597.131-1.339.243-2.226.336-.886.084-1.666.126-2.338.126h-2.058Zm-.294-9.87c0-.261.075-.467.224-.616.159-.149.374-.224.644-.224h4.858c.336 0 .612.112.826.336.215.215.322.499.322.854 0 1.241-.028 2.212-.084 2.912a10.757 10.757 0 0 1-.35 2.002.844.844 0 0 1-.308.448.889.889 0 0 1-.518.154c-.084 0-.205-.023-.364-.07-.354-.131-.532-.397-.532-.798l.028-.294c.122-.607.201-1.157.238-1.652.038-.495.056-1.181.056-2.058 0-.112-.056-.168-.168-.168h-4.004c-.27 0-.485-.07-.644-.21-.149-.149-.224-.355-.224-.616Zm8.204-.588c0-.261.084-.467.252-.616.168-.149.388-.224.658-.224h.07c.271 0 .49.075.658.224.168.149.252.355.252.616v3.71h1.05c.271 0 .481.075.63.224.159.149.238.355.238.616s-.079.467-.238.616c-.149.149-.359.224-.63.224h-1.05v6.342c0 .261-.084.467-.252.616-.168.149-.387.224-.658.224h-.07c-.27 0-.49-.075-.658-.224-.168-.149-.252-.355-.252-.616v-11.732Zm4.784 9.646a.91.91 0 0 1-.602-.224.868.868 0 0 1-.266-.336.99.99 0 0 1-.098-.42.79.79 0 0 1 .252-.574c.915-.868 1.605-1.792 2.072-2.772.467-.989.7-2.077.7-3.262v-1.456c0-.271.089-.485.266-.644.177-.168.406-.252.686-.252s.504.079.672.238c.177.159.266.378.266.658v1.456c0 .551-.051 1.134-.154 1.75a23.174 23.174 0 0 1 1.75 2.128c.551.747.971 1.428 1.26 2.044.065.131.098.28.098.448 0 .327-.14.583-.42.77a.965.965 0 0 1-.546.168c-.317 0-.569-.154-.756-.462-.672-1.204-1.349-2.198-2.03-2.982a9.863 9.863 0 0 1-2.436 3.416.98.98 0 0 1-.714.308Zm5.432-5.796c0-.261.075-.467.224-.616.159-.149.373-.224.644-.224h1.652v-3.01c0-.261.084-.467.252-.616.168-.149.387-.224.658-.224h.07c.271 0 .49.075.658.224.168.149.252.355.252.616v11.732c0 .261-.084.467-.252.616-.168.149-.387.224-.658.224h-.07c-.271 0-.49-.075-.658-.224-.168-.149-.252-.355-.252-.616v-7.042h-1.652c-.271 0-.485-.075-.644-.224-.149-.149-.224-.355-.224-.616Zm8.931 5.74a.897.897 0 0 1-.588-.238c-.187-.159-.28-.373-.28-.644 0-.224.079-.425.238-.602.719-.831 1.255-1.652 1.61-2.464a6.194 6.194 0 0 0 .532-2.506v-1.526h-1.4c-.271 0-.485-.07-.644-.21-.149-.149-.224-.355-.224-.616s.079-.467.238-.616c.159-.159.369-.238.63-.238h4.48c.271 0 .481.079.63.238.159.149.238.355.238.616s-.079.467-.238.616c-.149.14-.359.21-.63.21h-1.316v1.526c0 .523-.047 1.003-.14 1.442.439.485.877 1.064 1.316 1.736.439.672.77 1.283.994 1.834.075.196.112.364.112.504 0 .308-.145.546-.434.714a.881.881 0 0 1-.462.126c-.336 0-.588-.159-.756-.476-.457-.961-.938-1.741-1.442-2.338a9.357 9.357 0 0 1-1.778 2.59c-.215.215-.443.322-.686.322Zm4.13-5.67c0-.261.075-.467.224-.616.159-.149.373-.224.644-.224h1.008v-2.898c0-.271.079-.485.238-.644.159-.159.373-.238.644-.238s.485.079.644.238c.159.159.238.373.238.644v11.326c0 .271-.079.485-.238.644-.159.159-.373.238-.644.238s-.485-.079-.644-.238c-.159-.159-.238-.373-.238-.644v-6.748h-1.008c-.271 0-.485-.075-.644-.224-.149-.149-.224-.355-.224-.616Zm4.62-3.878c0-.271.079-.485.238-.644.159-.159.373-.238.644-.238s.485.079.644.238c.159.159.238.373.238.644v11.648c0 .271-.079.485-.238.644-.159.159-.373.238-.644.238s-.485-.079-.644-.238c-.159-.159-.238-.373-.238-.644v-11.648Zm3.608 6.566a.874.874 0 0 1-.7-.336.852.852 0 0 1-.196-.56c0-.308.135-.541.406-.7.877-.485 1.535-.961 1.974-1.428.438-.467.658-1.008.658-1.624v-.644h-1.946c-.271 0-.486-.075-.644-.224-.15-.149-.224-.355-.224-.616s.074-.467.224-.616c.158-.149.373-.224.644-.224h5.46c.27 0 .48.075.63.224.158.149.238.355.238.616s-.08.467-.238.616c-.15.149-.36.224-.63.224h-1.694v.644c0 .28-.038.593-.112.938.494.289.984.611 1.47.966.494.345.9.667 1.218.966a.972.972 0 0 1 .294.714.827.827 0 0 1-.252.63.88.88 0 0 1-.644.266.795.795 0 0 1-.588-.238 12.257 12.257 0 0 0-2.282-1.736c-.626.821-1.48 1.493-2.562 2.016a1.118 1.118 0 0 1-.504.126Zm1.176 1.792c0-.261.074-.467.224-.616.158-.149.373-.224.644-.224h6.216c.336 0 .611.112.826.336.214.215.322.495.322.84V179c0 .28-.089.499-.266.658-.168.159-.402.238-.7.238-.28 0-.504-.079-.672-.238-.168-.159-.252-.378-.252-.658v-2.198c0-.075-.024-.131-.07-.168a.187.187 0 0 0-.154-.07h-5.25c-.271 0-.486-.075-.644-.224-.15-.149-.224-.355-.224-.616Zm6.342-8.4c0-.261.084-.467.252-.616.168-.149.387-.224.658-.224h.07c.27 0 .49.075.658.224.168.149.252.355.252.616v1.89h1.078c.27 0 .48.075.63.224.158.149.238.355.238.616s-.08.467-.238.616c-.15.149-.36.224-.63.224h-1.078v2.52c0 .261-.084.467-.252.616-.168.149-.388.224-.658.224h-.07c-.271 0-.49-.075-.658-.224-.168-.149-.252-.355-.252-.616v-6.09Zm6.817 10.458c-.271 0-.486-.07-.644-.21-.15-.14-.229-.341-.238-.602 0-.261.079-.471.238-.63.158-.159.368-.238.63-.238h1.372v-3.99c0-.28.084-.499.252-.658.168-.159.392-.238.672-.238.298 0 .532.079.7.238.177.159.266.378.266.658v3.948c1.232-.084 2.212-.205 2.94-.364.112-.028.214-.042.308-.042.252 0 .443.079.574.238.14.149.21.35.21.602a.862.862 0 0 1-.168.532.802.802 0 0 1-.49.294c-.598.131-1.34.243-2.226.336-.887.084-1.666.126-2.338.126h-2.058Zm-.294-9.87c0-.261.074-.467.224-.616.158-.149.373-.224.644-.224h4.858c.336 0 .611.112.826.336.214.215.322.499.322.854 0 1.241-.028 2.212-.084 2.912a10.84 10.84 0 0 1-.35 2.002.85.85 0 0 1-.308.448.891.891 0 0 1-.518.154 1.39 1.39 0 0 1-.364-.07c-.355-.131-.532-.397-.532-.798l.028-.294a14 14 0 0 0 .238-1.652c.037-.495.056-1.181.056-2.058 0-.112-.056-.168-.168-.168h-4.004c-.271 0-.486-.07-.644-.21-.15-.149-.224-.355-.224-.616Zm8.204-.588c0-.261.084-.467.252-.616.168-.149.387-.224.658-.224h.07c.27 0 .49.075.658.224.168.149.252.355.252.616v3.71h1.05c.27 0 .48.075.63.224.158.149.238.355.238.616s-.08.467-.238.616c-.15.149-.36.224-.63.224h-1.05v6.342c0 .261-.084.467-.252.616-.168.149-.388.224-.658.224h-.07c-.271 0-.49-.075-.658-.224-.168-.149-.252-.355-.252-.616v-11.732Zm4.783 6.286a.876.876 0 0 1-.686-.322.967.967 0 0 1-.21-.588c0-.289.131-.509.392-.658a16.57 16.57 0 0 0 1.372-.868c.84-.597 1.26-1.269 1.26-2.016v-.504h-1.918c-.27 0-.485-.075-.644-.224-.149-.149-.224-.355-.224-.616s.075-.467.224-.616c.159-.149.374-.224.644-.224h5.46c.271 0 .481.075.63.224.159.149.238.355.238.616s-.079.467-.238.616c-.149.149-.359.224-.63.224h-1.722v.504c0 .252-.028.504-.084.756 1.12.579 2.012 1.171 2.674 1.778a.904.904 0 0 1 .322.714.815.815 0 0 1-.238.602.878.878 0 0 1-.644.266.854.854 0 0 1-.56-.196c-.7-.607-1.47-1.148-2.31-1.624-.569.747-1.432 1.423-2.59 2.03-.168.084-.34.126-.518.126Zm2.324 3.346c0-.653.145-1.223.434-1.708a3.026 3.026 0 0 1 1.246-1.148c.542-.271 1.158-.406 1.848-.406.691 0 1.302.135 1.834.406.542.271.957.653 1.246 1.148.299.485.448 1.055.448 1.708s-.149 1.227-.448 1.722a2.94 2.94 0 0 1-1.246 1.134c-.532.271-1.143.406-1.834.406-.69 0-1.306-.135-1.848-.406a3.061 3.061 0 0 1-1.246-1.134c-.289-.495-.434-1.069-.434-1.722Zm1.82 0c0 .467.164.849.49 1.148.327.289.733.434 1.218.434.486 0 .892-.145 1.218-.434.327-.299.49-.681.49-1.148a1.47 1.47 0 0 0-.49-1.134c-.326-.299-.732-.448-1.218-.448-.485 0-.891.149-1.218.448-.326.299-.49.677-.49 1.134Zm1.54-7.07c0-.261.075-.467.224-.616.159-.149.374-.224.644-.224h1.4v-1.722c0-.261.084-.467.252-.616.168-.149.388-.224.658-.224h.07c.271 0 .49.075.658.224.168.149.252.355.252.616v5.754c0 .261-.084.467-.252.616-.168.149-.387.224-.658.224h-.07c-.27 0-.49-.075-.658-.224-.168-.149-.252-.355-.252-.616v-2.352h-1.4c-.27 0-.485-.075-.644-.224-.149-.149-.224-.355-.224-.616Zm9.208 3.878c-.691 0-1.307-.145-1.848-.434a3.295 3.295 0 0 1-1.274-1.232c-.299-.523-.448-1.12-.448-1.792 0-.681.154-1.288.462-1.82a3.26 3.26 0 0 1 1.288-1.232 3.749 3.749 0 0 1 1.82-.448c.681 0 1.292.154 1.834.462.541.299.966.714 1.274 1.246.317.532.476 1.129.476 1.792 0 .672-.154 1.269-.462 1.792a3.302 3.302 0 0 1-1.274 1.232c-.542.289-1.158.434-1.848.434Zm-4.046 2.926c0-.261.079-.471.238-.63.158-.159.368-.238.63-.238h2.338c.746 0 1.54-.033 2.38-.098.84-.075 1.535-.177 2.086-.308.112-.028.214-.042.308-.042.242 0 .434.075.574.224.149.149.224.35.224.602a.82.82 0 0 1-.182.532.888.888 0 0 1-.476.294c-.616.159-1.372.28-2.268.364-.887.075-1.764.112-2.632.112h-2.338c-.271 0-.486-.07-.644-.21-.15-.14-.229-.341-.238-.602Zm2.282-6.398c0 .513.168.943.504 1.288.336.336.765.504 1.288.504.504 0 .919-.168 1.246-.504.326-.345.49-.775.49-1.288 0-.532-.164-.966-.49-1.302-.318-.336-.733-.504-1.246-.504-.532 0-.966.168-1.302.504-.327.336-.49.77-.49 1.302Zm7.14-2.968c0-.261.084-.467.252-.616.168-.149.387-.224.658-.224h.07c.27 0 .49.075.658.224.168.149.252.355.252.616v11.732c0 .261-.084.467-.252.616-.168.149-.388.224-.658.224h-.07c-.271 0-.49-.075-.658-.224-.168-.149-.252-.355-.252-.616v-11.732Zm9.351 12.572c-.663 0-1.172-.173-1.526-.518-.346-.336-.518-.831-.518-1.484v-1.596c0-.364.093-.639.28-.826.196-.196.476-.294.84-.294h1.988v-1.036H219.3c-.28 0-.504-.075-.672-.224a.833.833 0 0 1-.238-.616c0-.252.079-.453.238-.602.168-.159.392-.238.672-.238h10.36c.28 0 .499.079.658.238.168.149.252.35.252.602a.81.81 0 0 1-.252.616c-.159.149-.378.224-.658.224h-4.242v1.036h2.002c.364 0 .639.098.826.294.196.187.294.462.294.826v1.596c0 .672-.159 1.171-.476 1.498-.308.336-.784.504-1.428.504h-4.172Zm-2.562-8.834c0-.187.051-.35.154-.49a.925.925 0 0 1 .462-.322c.886-.299 1.619-.672 2.198-1.12.588-.457.882-.91.882-1.358v-.266c.009-.271.093-.476.252-.616.168-.149.396-.224.686-.224.289 0 .518.079.686.238.177.149.266.364.266.644v.364c0 .289-.047.541-.14.756.532.233 1.087.504 1.666.812a17.58 17.58 0 0 1 1.554.882c.14.093.242.205.308.336a.815.815 0 0 1 .112.406.92.92 0 0 1-.154.504c-.178.28-.411.42-.7.42a.92.92 0 0 1-.518-.182 15.517 15.517 0 0 0-1.666-.98 12.016 12.016 0 0 0-1.638-.728c-.42.383-.92.728-1.498 1.036a8.915 8.915 0 0 1-1.764.7 1.024 1.024 0 0 1-.294.042.895.895 0 0 1-.616-.224c-.159-.159-.238-.369-.238-.63Zm2.408 6.636c0 .187.042.327.126.42.093.084.233.126.42.126h3.248c.186 0 .322-.042.406-.126.093-.093.14-.233.14-.42v-.658a.174.174 0 0 0-.07-.14.172.172 0 0 0-.14-.07h-3.92a.212.212 0 0 0-.154.07.187.187 0 0 0-.056.14v.658Zm18.447 2.24c-.27 0-.49-.075-.658-.224-.168-.149-.252-.355-.252-.616v-4.508h-2.282c-.27 0-.485-.075-.644-.224-.149-.149-.224-.355-.224-.616s.075-.467.224-.616c.159-.149.374-.224.644-.224h2.282v-2.212h-2.24c-.27.961-.7 1.843-1.288 2.646a12.344 12.344 0 0 1-1.904 2.086c-.7.597-1.376 1.055-2.03 1.372a1.214 1.214 0 0 1-.462.112c-.298 0-.546-.126-.742-.378a.857.857 0 0 1-.182-.532c0-.149.042-.294.126-.434a.912.912 0 0 1 .364-.336 10.37 10.37 0 0 0 2.324-1.75c.691-.7 1.228-1.414 1.61-2.142.392-.728.588-1.372.588-1.932v-.168c0-.196-.074-.299-.224-.308h-3.584c-.27 0-.485-.075-.644-.224-.149-.149-.224-.355-.224-.616s.075-.467.224-.616c.159-.149.374-.224.644-.224h4.522c.336 0 .612.112.826.336.215.215.322.499.322.854v.574h1.974v-1.694c0-.261.084-.467.252-.616.168-.149.388-.224.658-.224h.07c.271 0 .49.075.658.224.168.149.252.355.252.616v11.774c0 .261-.084.467-.252.616-.168.149-.387.224-.658.224h-.07Zm3.272-5.768c-.28 0-.499-.098-.658-.294a.834.834 0 0 1-.196-.546c0-.289.135-.513.406-.672.588-.336 1.055-.639 1.4-.91.821-.635 1.232-1.414 1.232-2.338v-.77h-1.932c-.271 0-.485-.075-.644-.224-.149-.149-.224-.355-.224-.616s.075-.467.224-.616c.159-.149.373-.224.644-.224h5.46c.271 0 .481.075.63.224.159.149.238.355.238.616s-.079.467-.238.616c-.149.149-.359.224-.63.224h-1.708v.77c0 .364-.042.709-.126 1.036.532.289 1.045.607 1.54.952.504.336.919.653 1.246.952a.972.972 0 0 1 .294.714.827.827 0 0 1-.252.63.861.861 0 0 1-.63.266.822.822 0 0 1-.602-.252 10.211 10.211 0 0 0-1.12-.896 11.353 11.353 0 0 0-1.246-.77c-.551.719-1.405 1.381-2.562 1.988-.177.093-.359.14-.546.14Zm1.316 1.652c0-.261.084-.467.252-.616.168-.149.387-.224.658-.224h.07c.271 0 .49.075.658.224.168.149.252.355.252.616v.504c0 1.26.863 1.89 2.59 1.89 1.055 0 2.021-.177 2.898-.532a1.09 1.09 0 0 1 .406-.084c.233 0 .425.084.574.252a.895.895 0 0 1 .224.616c0 .364-.233.639-.7.826-1.036.401-2.17.602-3.402.602-1.456 0-2.567-.303-3.332-.91-.765-.607-1.148-1.475-1.148-2.604v-.56Zm6.678-8.498c0-.261.084-.467.252-.616.168-.149.387-.224.658-.224h.07c.271 0 .49.075.658.224.168.149.252.355.252.616v7.49c0 .261-.084.467-.252.616-.168.149-.387.224-.658.224h-.07c-.271 0-.49-.075-.658-.224-.168-.149-.252-.355-.252-.616v-7.49Zm9.435 8.47a3.764 3.764 0 0 1-1.862-.476 3.394 3.394 0 0 1-1.386-1.4c-.336-.625-.504-1.363-.504-2.212 0-.877.173-1.619.518-2.226a3.466 3.466 0 0 1 1.358-1.386 3.792 3.792 0 0 1 1.876-.476c.663 0 1.279.154 1.848.462.588.327 1.05.803 1.386 1.428.336.616.504 1.349.504 2.198 0 .877-.173 1.619-.518 2.226a3.466 3.466 0 0 1-1.358 1.386 3.715 3.715 0 0 1-1.862.476Zm-1.932-4.088c0 .485.084.91.252 1.274.177.364.411.644.7.84.299.196.625.294.98.294.345 0 .663-.098.952-.294.299-.196.532-.476.7-.84.177-.364.266-.789.266-1.274 0-.476-.089-.896-.266-1.26-.168-.373-.401-.658-.7-.854a1.696 1.696 0 0 0-1.932.014 2.092 2.092 0 0 0-.7.84c-.168.364-.252.784-.252 1.26Zm7.21-4.382c0-.261.084-.467.252-.616.168-.149.387-.224.658-.224h.07c.271 0 .49.075.658.224.168.149.252.355.252.616v11.732c0 .261-.084.467-.252.616-.168.149-.387.224-.658.224h-.07c-.271 0-.49-.075-.658-.224-.168-.149-.252-.355-.252-.616v-11.732Zm6.897 8.47a3.766 3.766 0 0 1-1.862-.476 3.394 3.394 0 0 1-1.386-1.4c-.336-.625-.504-1.363-.504-2.212 0-.877.173-1.619.518-2.226a3.466 3.466 0 0 1 1.358-1.386 3.794 3.794 0 0 1 1.876-.476c.663 0 1.279.154 1.848.462.588.327 1.05.803 1.386 1.428.336.616.504 1.349.504 2.198 0 .877-.172 1.619-.518 2.226a3.46 3.46 0 0 1-1.358 1.386c-.56.317-1.18.476-1.862.476Zm-1.932-4.088c0 .485.084.91.252 1.274a2.1 2.1 0 0 0 .7.84c.299.196.626.294.98.294.346 0 .663-.098.952-.294.299-.196.532-.476.7-.84.178-.364.266-.789.266-1.274 0-.476-.088-.896-.266-1.26-.168-.373-.401-.658-.7-.854a1.698 1.698 0 0 0-1.932.014 2.1 2.1 0 0 0-.7.84c-.168.364-.252.784-.252 1.26Zm6.636-4.382c0-.261.084-.467.252-.616.168-.149.388-.224.658-.224h.07c.271 0 .49.075.658.224.168.149.252.355.252.616v1.834h1.05c.271 0 .481.075.63.224.159.149.238.355.238.616s-.079.467-.238.616c-.149.149-.359.224-.63.224h-1.05v2.212h1.05c.271 0 .481.075.63.224.159.149.238.355.238.616s-.079.467-.238.616c-.149.149-.359.224-.63.224h-1.05v4.368c0 .261-.084.467-.252.616-.168.149-.387.224-.658.224h-.07c-.27 0-.49-.075-.658-.224-.168-.149-.252-.355-.252-.616v-11.774Zm4.812 9.59c-.299 0-.546-.126-.742-.378a.857.857 0 0 1-.182-.532c0-.149.042-.294.126-.434a.906.906 0 0 1 .364-.336 10.392 10.392 0 0 0 2.324-1.75c.691-.7 1.227-1.414 1.61-2.142.392-.728.588-1.372.588-1.932v-.168c0-.196-.075-.299-.224-.308h-3.584c-.271 0-.485-.075-.644-.224-.149-.149-.224-.355-.224-.616s.075-.467.224-.616c.159-.149.373-.224.644-.224h4.522c.336 0 .611.112.826.336.215.215.322.499.322.854v.364a7 7 0 0 1-.896 3.458 10.824 10.824 0 0 1-2.1 2.744c-.84.793-1.671 1.391-2.492 1.792a1.214 1.214 0 0 1-.462.112Zm7.938-9.59c0-.261.084-.467.252-.616.168-.149.387-.224.658-.224h.07c.271 0 .49.075.658.224.168.149.252.355.252.616v11.732c0 .261-.084.467-.252.616-.168.149-.387.224-.658.224h-.07c-.271 0-.49-.075-.658-.224-.168-.149-.252-.355-.252-.616v-11.732Zm9.236 12.852c-1.484 0-2.59-.149-3.318-.448-.71-.289-1.064-.812-1.064-1.568v-.658c0-.336.102-.597.308-.784.214-.187.494-.28.84-.28h5.096c.102 0 .154-.061.154-.182v-.238c0-.103-.052-.154-.154-.154h-5.432c-.271 0-.486-.065-.644-.196-.15-.14-.224-.336-.224-.588 0-.252.074-.443.224-.574.158-.14.373-.21.644-.21h6.23c.364 0 .644.107.84.322.205.205.308.49.308.854v1.372c0 .336-.089.597-.266.784-.178.177-.434.266-.77.266h-5.236c-.084 0-.126.047-.126.14v.112c0 .149.102.261.308.336.205.065.457.103.756.112.308.009.793.014 1.456.014.513 0 1.045-.028 1.596-.084a11.25 11.25 0 0 0 1.47-.238c.093-.019.186-.028.28-.028.186 0 .345.056.476.168a.86.86 0 0 1 .28.616c0 .383-.243.635-.728.756-.458.112-.999.201-1.624.266-.616.075-1.176.112-1.68.112Zm-6.356-7.504c0-.252.079-.453.238-.602.158-.149.382-.224.672-.224h10.36c.289 0 .513.075.672.224.158.149.238.35.238.602a.81.81 0 0 1-.252.616c-.159.159-.378.238-.658.238h-10.36c-.28 0-.504-.079-.672-.238a.833.833 0 0 1-.238-.616Zm2.002-4.676c0-.345.107-.625.322-.84.214-.224.49-.336.826-.336h6.174c.27 0 .48.075.63.224.158.149.238.355.238.616 0 .271-.075.476-.224.616-.15.131-.364.196-.644.196h-5.25a.19.19 0 0 0-.14.056.15.15 0 0 0-.042.112v.196c0 .224.088.387.266.49.177.103.429.173.756.21.336.028.816.042 1.442.042.494 0 1.003-.023 1.526-.07a12.99 12.99 0 0 0 1.414-.224l.266-.028c.205 0 .368.056.49.168.13.103.214.261.252.476a.743.743 0 0 1 .014.182.784.784 0 0 1-.196.532.908.908 0 0 1-.518.28 13.84 13.84 0 0 1-1.54.252c-.57.056-1.139.084-1.708.084-1.055 0-1.9-.07-2.534-.21-.626-.14-1.088-.378-1.386-.714-.29-.336-.434-.798-.434-1.386v-.924Z"/><path fill="#D6F0FF" d="M324.05 171.985a4.288 4.288 0 0 1-.148.671c-1.288 4.159-6.194 4.045-9.596 4.209.022 1.62 1.176 2.757 2.561 3.148 1.46.412 2.577.028 3.982-.335.18-.046.28.143.224.295.453.283.89.59 1.35.855.048-.298.091-.597.114-.901.022-.286.005-.581.11-.839-.031-.069-.021-.153.06-.197 2.352-1.246 4.063-5.257 1.343-6.906Z"/><path fill="#FFE2F2" d="M313.524 176.508c.027-.018.05-.043.078-.059a.155.155 0 0 1 .174.012c1.82-.216 3.71-.286 5.498-.704 1.511-.352 3.264-1.084 3.92-2.795.171-.446.272-.881.318-1.302-.056-.093-.048-.217.022-.291.147-3.139-2.919-5.485-5.489-6.231-3.142-.912-7.24-.759-9.422 2.348-2.221 3.162-.88 7.717 2.566 8.817.054-.162.3-.205.327 0 .096.741.105 1.493.151 2.241.305-.308.605-.623.886-.958.311-.373.578-.813.971-1.078Z"/><path fill="#000" stroke="#000" stroke-width=".3" d="M324.099 171.337c.015-1.35-.481-2.766-1.226-3.748-1.214-1.599-2.898-2.483-4.686-3.024-3.564-1.078-7.98-.46-10.236 3.113-2.152 3.408-.237 8.063 3.192 9.115.008.003.014.001.022.002-.013.787.042 1.577.016 2.364-.009.278.289.364.455.209.457-.425.892-.873 1.309-1.348.302-.344.641-.687.819-1.125l.175-.011c-.373 3.503 4.561 4.862 6.853 3.346.5.512 1.108.894 1.693 1.269.141.091.336.01.377-.17.091-.407.158-.819.206-1.235.036-.323.112-.663.023-.97 1.55-.472 2.581-2.243 2.893-3.91.274-1.464-.43-3.605-1.885-3.877Zm-11.546 6.248a15.22 15.22 0 0 1-.886.958c-.046-.748-.055-1.5-.151-2.241-.026-.205-.272-.162-.327 0-3.446-1.1-4.787-5.655-2.566-8.817 2.182-3.107 6.28-3.26 9.422-2.348 2.57.746 5.636 3.092 5.489 6.231-.07.074-.078.198-.022.291a5.19 5.19 0 0 1-.318 1.302c-.656 1.712-2.409 2.443-3.919 2.795-1.789.418-3.678.489-5.499.704a.153.153 0 0 0-.173-.012c-.029.016-.051.041-.078.059-.393.266-.66.706-.972 1.078Zm10.154 1.306c-.082.044-.091.128-.06.197-.105.258-.088.553-.11.839-.023.303-.067.603-.115.901-.46-.265-.896-.572-1.349-.855.055-.152-.044-.341-.224-.295-1.405.363-2.522.747-3.983.335-1.384-.391-2.538-1.528-2.56-3.148 3.402-.164 8.307-.05 9.596-4.208.067-.218.115-.443.148-.672 2.72 1.649 1.009 5.66-1.343 6.906Z"/><path fill="#FFB1DC" d="M316.574 166.105c-1.358-1.034-4.489-.805-5.562.678-.142.197-.073.567.205.548.849-.058 1.649-.475 2.515-.549.893-.077 1.724.268 2.602.309.505.023.607-.707.24-.986ZM319.128 167.482c-.227-.442-.636-.713-.993-1.016-.378-.322-.871.393-.508.732.345.323.672.697 1.111.848.296.102.537-.28.39-.564Z"/><path fill="#FF38A4" d="M312.013 171.972c.409 0 .74-.368.74-.823 0-.454-.331-.823-.74-.823s-.741.369-.741.823c0 .455.332.823.741.823ZM315.592 172.083c.464 0 .84-.418.84-.934s-.376-.934-.84-.934c-.464 0-.84.418-.84.934s.376.934.84.934ZM319.019 170.542c-.381 0-.698.353-.698.776 0 .423.317.775.698.775.38 0 .697-.352.697-.775 0-.423-.317-.776-.697-.776Z"/><path fill="#3A3A3A" stroke="#000" stroke-width=".2" d="M328.282 163.44h-2.618l-.731-8.946h4.046l-.697 8.946Z"/><path fill="#000" stroke="#000" stroke-width=".2" d="M328.282 163.694h-2.616a.256.256 0 0 1-.254-.234l-.733-8.945a.25.25 0 0 1 .067-.193.251.251 0 0 1 .187-.082h4.046a.254.254 0 0 1 .254.275l-.697 8.945a.254.254 0 0 1-.254.234Zm-2.384-.508h2.148l.658-8.438h-3.497l.691 8.438Z"/><path fill="#E5E5E5" stroke="#000" stroke-width=".2" d="M331.26 151.452a4.198 4.198 0 1 1-8.396.002 4.198 4.198 0 0 1 8.396-.002Z"/><path fill="#000" stroke="#000" stroke-width=".2" d="M327.062 155.905a4.458 4.458 0 0 1-4.452-4.453 4.456 4.456 0 0 1 4.452-4.452 4.457 4.457 0 0 1 4.453 4.452 4.459 4.459 0 0 1-4.453 4.453Zm0-8.397a3.948 3.948 0 0 0-3.944 3.944 3.95 3.95 0 0 0 3.944 3.945 3.95 3.95 0 0 0 3.945-3.945 3.95 3.95 0 0 0-3.945-3.944Z"/><path fill="#F91C1C" stroke="#000" stroke-width=".2" d="M330.59 157.179h-7.21v3.02h7.21v-3.02Z"/><path fill="#000" stroke="#000" stroke-width=".2" d="M330.59 160.377h-7.21c-.14 0-.254-.08-.254-.178v-3.02c0-.099.114-.179.254-.179h7.21c.14 0 .254.08.254.179v3.02c0 .098-.114.178-.254.178Zm-6.956-.357h6.702v-2.662h-6.702v2.662Z"/><path fill="#C9C9C9" stroke="#000" stroke-width=".2" d="M331.744 151.436c0 .48-.388.868-.868.868h-7.756a.867.867 0 1 1 0-1.736h7.758c.48 0 .868.389.868.868h-.002Z"/><path fill="#000" stroke="#000" stroke-width=".2" d="M330.877 152.556h-7.757a1.123 1.123 0 0 1 0-2.244h7.759a1.123 1.123 0 0 1 0 2.244h-.002Zm-7.757-1.734a.614.614 0 0 0 0 1.228h7.759a.615.615 0 0 0 0-1.228h-7.759Z"/><path fill="#FFD6FD" d="M29 194h422v16c0 8.837-7.163 16-16 16H45c-8.837 0-16-7.163-16-16v-16Z"/><path fill="#FF38A4" d="M200.322 207.264c-.013 1.764.927 3.796 2.831 4.672l-.901 1.269c-1.289-.59-2.209-1.771-2.717-3.161-.521 1.53-1.466 2.825-2.806 3.453l-.939-1.282c1.929-.902 2.894-3.047 2.907-4.951v-.711h-2.45v-1.321h6.398v1.321h-2.323v.711Zm4.85-3.149v4.406h1.701v1.358h-1.701v5.789h-1.625v-11.553h1.625Zm5.307 2.907c0 1.867.52 3.796 2.094 4.812l-.876 1.257c-.996-.603-1.631-1.593-1.993-2.78-.419 1.307-1.111 2.399-2.158 3.034l-.99-1.194c1.714-1.066 2.349-3.097 2.349-5.052v-1.994h1.574v1.917Zm6.309-2.907v11.553h-1.549v-11.553h1.549Zm-2.425.165v10.855h-1.51v-5.802h-1.498v-1.32h1.498v-3.733h1.51Zm12.798-.165v11.553h-1.638v-11.553h1.638Zm-2.526 1.739v1.295h-6.907v-1.295h2.628v-1.586h1.651v1.586h2.628Zm-3.428 1.93c1.701 0 2.97 1.143 2.97 2.755 0 1.612-1.269 2.755-2.97 2.755-1.714 0-2.984-1.143-2.984-2.755 0-1.612 1.27-2.755 2.984-2.755Zm0 1.308c-.851.012-1.435.558-1.435 1.447 0 .901.584 1.435 1.435 1.422.838.013 1.422-.521 1.422-1.422 0-.889-.584-1.435-1.422-1.447Zm20.047 3.91v1.32h-10.576v-1.32h4.457v-2.133h-3.339v-6.017h1.625v1.79h5.04v-1.79h1.612v6.017h-3.326v2.133h4.507Zm-7.833-3.428h5.04v-1.637h-5.04v1.637Zm17.685-5.459v11.553h-1.638v-11.553h1.638Zm-3.466 1.206c0 3.504-1.232 6.411-5.357 8.367l-.851-1.295c2.983-1.41 4.297-3.238 4.558-5.802h-3.936v-1.27h5.586Z"/><mask id="j" width="25" height="24" x="260" y="198" maskUnits="userSpaceOnUse" style="mask-type:alpha"><path fill="#D9D9D9" d="M260.5 198h24v24h-24z"/></mask><g mask="url(#j)"><path fill="#333" d="m273.446 210-4.6-4.6 1.054-1.054 5.654 5.654-5.654 5.654-1.054-1.054 4.6-4.6Z"/></g></g><rect width="421" height="91" x="29.5" y="134.5" stroke="#222" rx="15.5"/><defs><clipPath id="a"><path fill="#fff" d="M0 0h480v260H0z"/></clipPath><clipPath id="b"><path fill="#fff" d="M0 0h480v340H0z"/></clipPath><clipPath id="g"><path fill="#fff" d="M344 53h49.793v50H344z"/></clipPath><clipPath id="h"><path fill="#fff" d="M81 59h42.089v40H81z"/></clipPath><clipPath id="i"><rect width="422" height="92" x="29" y="134" fill="#fff" rx="16"/></clipPath><linearGradient id="c" x1="472.767" x2="466.33" y1="217.246" y2="223.683" gradientUnits="userSpaceOnUse"><stop stop-color="#0091F9"/><stop offset=".96" stop-color="#1F05F9"/></linearGradient><linearGradient id="d" x1="463.611" x2="459.81" y1="206.459" y2="210.26" gradientUnits="userSpaceOnUse"><stop stop-color="#B0B0AB"/><stop offset=".35" stop-color="#E3E3E3"/><stop offset=".46" stop-color="#E1E1E1"/><stop offset=".5" stop-color="#DBDBDA"/><stop offset=".53" stop-color="#D0D0CE"/><stop offset=".56" stop-color="#C2C2BD"/><stop offset=".57" stop-color="#B5B5AF"/><stop offset="1" stop-color="#D3D2D1"/></linearGradient><linearGradient id="e" x1="460.884" x2="458.044" y1="203.732" y2="206.572" gradientUnits="userSpaceOnUse"><stop stop-color="#B0B0AB"/><stop offset=".35" stop-color="#E3E3E3"/><stop offset=".46" stop-color="#E1E1E1"/><stop offset=".5" stop-color="#DBDBDA"/><stop offset=".53" stop-color="#D0D0CE"/><stop offset=".56" stop-color="#C2C2BD"/><stop offset=".57" stop-color="#B5B5AF"/><stop offset="1" stop-color="#D3D2D1"/></linearGradient></defs></svg>