<svg width="280" height="213" viewBox="0 0 280 213" fill="none" xmlns="http://www.w3.org/2000/svg">
<path d="M259.66 23.4001L255.143 4.88736C254.402 1.99938 251.81 0 248.848 0H190.052C187.09 0 184.498 1.99938 183.758 4.88736L179.24 23.252H49.5772C42.6905 23.252 37.0626 28.8799 37.0626 35.7666V199.378C37.0626 202.043 39.2101 204.191 41.8759 204.191H265.14C267.805 204.191 269.953 202.043 269.953 199.378V35.6926C270.027 29.5463 265.584 24.4368 259.66 23.4001Z" fill="#1B1B51"/>
<path d="M254.402 15.4767H250.477L248.108 5.70194C247.367 2.81395 244.776 0.814575 241.813 0.814575H182.943C179.981 0.814575 177.389 2.81395 176.649 5.70194L174.279 15.4767H38.4696C33.7303 15.4767 29.9537 19.3273 29.9537 23.9925V190.565C29.9537 193.824 32.6195 196.415 35.8037 196.415H256.994C260.252 196.415 262.844 193.75 262.844 190.565V23.9925C262.918 19.2533 259.067 15.4767 254.402 15.4767Z" fill="#848484"/>
<path d="M254.402 15.4767H250.477L248.108 5.70194C247.367 2.81395 244.776 0.814575 241.813 0.814575H182.943C179.981 0.814575 177.389 2.81395 176.649 5.70194L174.279 15.4767H38.4696C33.7303 15.4767 29.9537 19.3273 29.9537 23.9925V190.565C29.9537 193.824 32.6195 196.415 35.8037 196.415H256.994C260.252 196.415 262.844 193.75 262.844 190.565V23.9925C262.918 19.2533 259.067 15.4767 254.402 15.4767Z" fill="#E8386A"/>
<path d="M253.736 188.566H39.2102C38.2475 188.566 37.507 187.826 37.507 186.863V39.6173H255.439V186.863C255.439 187.752 254.624 188.566 253.736 188.566Z" fill="#F4FBFF"/>
<path d="M45.0602 27.3989C45.0602 29.4723 43.357 31.1755 41.2836 31.1755C39.2102 31.1755 37.507 29.4723 37.507 27.3989C37.507 25.3254 39.2102 23.6223 41.2836 23.6223C43.357 23.6223 45.0602 25.3254 45.0602 27.3989Z" fill="#FF89DE"/>
<path d="M58.1672 27.3989C58.1672 29.4723 56.4641 31.1755 54.3906 31.1755C52.3172 31.1755 50.614 29.4723 50.614 27.3989C50.614 25.3254 52.3172 23.6223 54.3906 23.6223C56.4641 23.6223 58.1672 25.3254 58.1672 27.3989Z" fill="#ECD250"/>
<path d="M71.274 27.3989C71.274 29.4723 69.5708 31.1755 67.4974 31.1755C65.424 31.1755 63.7208 29.4723 63.7208 27.3989C63.7208 25.3254 65.424 23.6223 67.4974 23.6223C69.5708 23.6223 71.274 25.3254 71.274 27.3989Z" fill="#35C8A5"/>
<path d="M179.24 15.2546L181.536 6.8868C181.906 5.62793 183.017 4.73932 184.35 4.73932H232.409" stroke="white" stroke-width="0.5" stroke-miterlimit="10" stroke-linecap="round"/>
<path d="M45.8186 91.4447L45.5574 90.593L46.1803 89.9561C50.7114 85.3233 53.5 79.0471 53.5 72.1131C53.5 57.9764 41.8906 46.5 27.5 46.5C13.1094 46.5 1.5 57.9764 1.5 72.1131C1.5 86.2499 13.1094 97.7263 27.5 97.7263C30.1897 97.7263 32.7099 97.3403 35.1826 96.62L35.8221 96.4337L36.3891 96.7831L50.0338 105.191L45.8186 91.4447Z" fill="white" stroke="#373D8B" stroke-width="3"/>
<path d="M39.7498 62.986C36.3301 59.5663 30.8586 59.5663 27.4389 62.986L27.3146 63.1104L27.1902 62.986C23.7705 59.5663 18.299 59.5663 14.8793 62.986C11.4597 66.4057 11.4597 71.8772 14.8793 75.2969L15.0037 75.4213L27.3146 87.7321L39.6255 75.4213L39.7498 75.2969C43.1695 71.8772 43.1695 66.4057 39.7498 62.986Z" fill="#EB6FA1"/>
<path d="M208.659 39.5C208.659 32.5964 203.063 27 196.159 27C189.256 27 183.659 32.5964 183.659 39.5C183.659 46.4036 189.256 52 196.159 52C203.063 52 208.659 46.4036 208.659 39.5Z" fill="#FFE253"/>
<path d="M191.567 36.8241C192.112 36.7462 192.657 37.3693 192.93 38.3038C192.93 38.0702 192.93 37.8755 192.891 37.6418C192.696 36.3568 191.995 35.4223 191.372 35.5001C190.71 35.617 190.36 36.7073 190.554 37.9923C190.593 38.226 190.632 38.4596 190.71 38.6543C190.71 37.6808 191.022 36.902 191.567 36.8241Z" fill="#68490C"/>
<path d="M199.744 35.617C200.289 35.5391 200.834 36.1622 201.107 37.0967C201.107 36.8631 201.107 36.6684 201.068 36.4347C200.873 35.1497 200.172 34.2152 199.549 34.293C198.887 34.4099 198.537 35.5002 198.732 36.7852C198.771 37.0189 198.81 37.2525 198.887 37.4472C198.848 36.4737 199.199 35.6949 199.744 35.617Z" fill="#68490C"/>
<path d="M197.135 46.0529C194.215 46.4813 191.528 44.4953 191.099 41.6137L201.613 40.0172C202.042 42.8988 200.056 45.5856 197.135 46.0529Z" fill="#68490C"/>
<path d="M240.897 39.5001C240.897 32.5965 235.301 27 228.397 27C221.494 27 215.897 32.5965 215.897 39.5001C215.897 46.4036 221.494 52.0001 228.397 52.0001C235.301 52.0001 240.897 46.4036 240.897 39.5001Z" fill="#FFE253"/>
<path d="M227.992 46.0863C225.062 45.891 222.816 43.4497 222.914 40.52L233.558 41.1059C233.46 44.0356 230.921 46.2817 227.992 46.0863Z" fill="#68490C"/>
<path d="M226.039 33.0983C225.16 32.2194 223.793 32.2194 223.011 33.0983C222.132 32.2194 220.765 32.2194 219.984 33.0983C219.105 33.9771 219.105 35.3443 219.984 36.1255L223.011 39.1528L226.039 36.1255C226.917 35.3443 226.917 33.9771 226.039 33.0983Z" fill="#FF64A0"/>
<path d="M236.683 33.0983C235.804 32.2194 234.437 32.2194 233.656 33.0983C232.777 32.2194 231.41 32.2194 230.629 33.0983C229.75 33.9771 229.75 35.3443 230.629 36.1255L233.656 39.1528L236.683 36.1255C237.562 35.3443 237.562 33.9771 236.683 33.0983Z" fill="#FF64A0"/>
<path d="M242.661 157.134L242.916 156.292L242.305 155.658C238.643 151.861 236.387 146.713 236.387 141.022C236.387 129.415 245.78 120.022 257.387 120.022C268.994 120.022 278.387 129.415 278.387 141.022C278.387 152.629 268.994 162.022 257.387 162.022C255.215 162.022 253.181 161.706 251.183 161.116L250.535 160.925L249.963 161.282L239.414 167.876L242.661 157.134Z" fill="white" stroke="#373D8B" stroke-width="3"/>
<path d="M248.654 150.524C247.689 150.524 246.811 150.173 246.153 149.559C245.802 149.252 245.583 148.857 245.451 148.506C245.276 147.935 245.32 147.409 245.451 146.97C245.188 146.707 244.925 146.356 244.749 145.829C244.53 145.171 244.618 144.601 244.749 144.162C244.354 143.767 244.003 143.241 243.96 142.539C243.96 142.144 244.003 141.793 244.091 141.53C243.565 141.179 243.126 140.565 243.082 139.731C243.082 139.687 243.082 139.643 243.082 139.599C243.082 138.239 244.223 137.143 245.627 137.143H250.935C250.716 135.344 250.804 133.501 251.286 131.746L251.462 131.088C251.769 129.991 252.734 129.202 253.875 129.202C255.191 129.202 256.288 130.211 256.376 131.527V131.571V134.861L259.359 138.678L261.421 140.258L261.948 149.734H259.447C258.438 150.261 257.297 150.524 256.156 150.524H248.654Z" fill="white"/>
<path d="M253.831 130.035C254.709 130.035 255.411 130.693 255.454 131.571V135.168L258.701 139.336L260.544 140.74L260.982 148.857H259.184C258.218 149.383 257.165 149.646 256.112 149.646H248.654C247.952 149.646 247.294 149.383 246.768 148.901C246.548 148.725 246.373 148.462 246.285 148.199C245.978 147.277 246.636 146.619 246.636 146.619C246.636 146.619 245.89 146.444 245.583 145.522C245.276 144.601 245.846 143.855 245.846 143.855C245.846 143.855 244.881 143.416 244.837 142.451C244.793 141.486 245.276 141.091 245.276 141.091C245.276 141.091 243.96 140.74 243.916 139.643C243.916 139.599 243.916 139.556 243.916 139.556C243.916 138.678 244.662 137.976 245.583 137.976H251.901L251.813 137.625C251.462 135.739 251.55 133.808 252.032 131.922L252.208 131.264C252.427 130.518 253.085 130.035 253.831 130.035ZM253.831 128.28C252.296 128.28 250.935 129.333 250.541 130.781L250.365 131.439C249.97 132.975 249.795 134.598 249.883 136.177H245.583C243.74 136.177 242.205 137.669 242.161 139.512C242.161 139.556 242.161 139.643 242.161 139.687C242.205 140.565 242.6 141.267 243.082 141.749C243.038 141.969 243.038 142.232 243.038 142.495C243.082 143.241 243.345 143.855 243.74 144.338C243.653 144.864 243.696 145.435 243.872 146.005C244.004 146.444 244.223 146.795 244.442 147.102C244.355 147.584 244.398 148.111 244.574 148.681C244.749 149.208 245.056 149.69 245.495 150.129C246.329 150.919 247.426 151.357 248.566 151.357H256.025C257.253 151.357 258.438 151.094 259.535 150.568H260.895H262.737L262.65 148.725L262.211 140.609L262.167 139.775L261.509 139.292L259.842 138.02L257.122 134.554V131.571V131.527V131.483C257.078 129.684 255.586 128.28 253.831 128.28Z" fill="#015FDA"/>
<path d="M259.71 150.612V137.45H270.196L268.88 150.612H259.71Z" fill="#B6D9FF"/>
<path d="M269.231 138.327L268.09 149.734H260.632V138.327H269.231ZM271.161 136.572H269.231H260.588H258.833V138.327V149.734V151.489H260.588H268.046H269.625L269.801 149.91L270.942 138.503L271.161 136.572Z" fill="#015FDA"/>
<path d="M198.602 166.1C197.369 164.409 195.277 163.38 193.153 163.836C191.018 164.294 189.777 165.632 189.082 167.52C189.034 167.639 188.996 167.765 188.956 167.891C188.02 169.918 188.203 172.591 189.093 174.447C189.398 175.085 190.021 175.097 190.487 174.802C190.866 175.596 192.076 175.494 192.195 174.455C192.371 172.903 193.33 171.748 194.638 170.983C195.723 170.348 196.986 170.842 198.031 170.053C198.983 169.334 199.021 168.414 198.639 167.558C198.921 167.151 198.983 166.623 198.602 166.1Z" fill="#BFD8EE"/>
<path d="M204.345 156.108C198.688 152.364 191.671 152.999 185.898 156.123C180.402 159.097 176.783 166.667 178.419 172.809C180.054 178.946 185.355 183.84 191.955 181.653C193.09 181.277 193.059 179.772 191.955 179.384C184.009 176.592 179.913 168.436 186.453 161.681C189.224 158.819 193.853 157.962 197.637 158.515C199.635 158.806 201.429 159.891 202.623 161.532C204.028 163.464 202.737 165.612 202.711 167.681C202.691 169.302 204.525 170.308 205.903 169.513C210.881 166.642 208.429 158.81 204.345 156.108Z" fill="#BFD8EE"/>
<path d="M214.595 196.31C214.43 196.186 214.314 195.991 214.278 195.772C214.158 195.562 214.021 195.36 213.909 195.146C213.578 194.513 214.365 193.894 214.893 194.386C214.958 194.446 215.021 194.516 215.085 194.577C216.474 193.504 217.816 192.374 219.06 191.133C220.336 190.138 220.776 188.711 220.379 186.853C219.675 186.298 218.963 185.754 218.244 185.22C216.021 183.561 213.79 181.902 211.473 180.376C206.37 177.016 201.155 174.72 195.411 172.76C195.423 172.793 195.444 172.818 195.451 172.855C196.615 179.302 197.584 185.792 198.617 192.261C199.102 195.298 199.326 198.538 200.115 201.511C201.277 205.888 204.785 201.696 206.782 200.896C207.191 200.732 207.52 200.985 207.65 201.327C207.669 201.345 207.692 201.353 207.709 201.375C209.511 203.592 211.36 205.775 213.463 207.717C214.484 208.66 215.811 210.243 217.082 210.804C218.238 211.314 219.904 209.453 220.66 208.807C223.015 206.793 219.747 203.592 218.415 201.7C217.159 199.912 215.743 198.181 214.595 196.31Z" fill="#5DC09B"/>
<path d="M216.224 195.731C218.902 193.927 221.899 191.818 222.963 188.756C223.928 185.98 219.108 183.588 217.493 182.413C210.974 177.67 203.389 172.366 195.143 171.488C194.616 171.432 194.471 172.026 194.705 172.385C194.376 172.427 194.076 172.658 194.126 173.037C195.262 181.635 196.677 190.203 197.986 198.776C198.355 201.191 198.384 204.158 200.87 205.353C203.131 206.44 205.349 203.615 207.05 202.468C209.249 205.627 211.815 208.479 214.64 211.094C216.69 212.991 218.123 213.204 220.362 211.447C222.575 209.71 224.611 208.383 223.079 205.562C221.316 202.313 218.877 198.585 216.224 195.731ZM220.662 208.808C219.906 209.455 218.24 211.315 217.084 210.805C215.812 210.244 214.486 208.661 213.465 207.718C211.362 205.776 209.513 203.593 207.711 201.376C207.693 201.354 207.671 201.346 207.652 201.328C207.521 200.986 207.192 200.733 206.784 200.897C204.787 201.697 201.279 205.889 200.117 201.512C199.328 198.54 199.104 195.3 198.619 192.262C197.586 185.792 196.617 179.303 195.453 172.856C195.446 172.819 195.425 172.794 195.413 172.761C201.157 174.721 206.371 177.016 211.475 180.377C213.792 181.903 216.023 183.561 218.246 185.221C218.966 185.755 219.677 186.299 220.381 186.854C220.778 188.712 220.338 190.139 219.062 191.134C217.818 192.375 216.476 193.505 215.087 194.578C215.023 194.517 214.96 194.447 214.895 194.387C214.366 193.895 213.58 194.513 213.911 195.147C214.023 195.361 214.159 195.563 214.28 195.773C214.316 195.992 214.432 196.186 214.597 196.311C215.746 198.181 217.161 199.913 218.42 201.702C219.75 203.594 223.017 206.794 220.662 208.808Z" fill="#006A4A"/>
<path d="M194.982 164.21C197.227 164.522 198.157 166.657 198.391 168.615C198.458 169.177 199.304 169.4 199.452 168.758C199.887 166.871 198.947 164.742 197.292 163.695C195.005 162.248 192.426 162.507 190.201 163.942C186.297 166.461 185.86 174.072 190.729 175.715C191.244 175.889 191.571 175.096 191.097 174.843C187.986 173.184 188.211 169.092 189.797 166.462C190.859 164.7 193.024 163.938 194.982 164.21Z" fill="#3A4961"/>
<path d="M191.621 181.874C186.132 182.572 181.245 179.071 179.627 173.871C177.895 168.305 180.951 162.345 185.018 158.702C189.435 154.744 195.965 153.747 201.226 156.453C206.12 158.97 209.141 164.982 205.974 169.883C205.655 170.376 206.273 170.934 206.752 170.661C212.127 167.602 207.521 159.428 204.345 156.61C198.967 151.838 191.227 152.537 185.488 156.168C179.497 159.96 176.319 167.46 177.915 174.343C179.304 180.335 185.838 184.444 191.755 182.869C192.293 182.726 192.198 181.801 191.621 181.874Z" fill="#3A4961"/>
<path d="M209.189 182.796C206.836 180.637 204.375 178.779 201.704 177.025C200.956 176.533 200.07 177.674 200.746 178.267C203.147 180.373 205.593 182.255 208.301 183.947C209.006 184.387 209.805 183.361 209.189 182.796Z" fill="#8FCFB0"/>
<path d="M214.061 185.949C213.219 185.152 212.277 184.595 211.293 183.989C210.04 183.218 208.897 185.186 210.144 185.954C210.624 186.249 211.104 186.545 211.584 186.84C212.08 187.145 212.596 187.331 213.141 187.528C214.045 187.855 214.725 186.578 214.061 185.949Z" fill="#8FCFB0"/>
<rect x="107" y="56" width="78" height="31" rx="15.5" fill="#E8386A"/>
<path d="M123.391 64.8281C125.211 64.8125 126.656 65.8516 127.047 67.375H129.422V64.2188H131.406V71.8594H129.422V68.9688H127.062C126.688 70.5312 125.227 71.5938 123.391 71.5938C121.203 71.5938 119.594 70.1719 119.609 68.1875C119.594 66.2344 121.203 64.8125 123.391 64.8281ZM123.391 66.4844C122.281 66.4688 121.484 67.125 121.5 68.1875C121.484 69.25 122.281 69.9219 123.391 69.9219C124.469 69.9219 125.25 69.25 125.25 68.1875C125.25 67.125 124.469 66.4688 123.391 66.4844ZM123.891 72.4844V73.8594H129.422V72.4844H131.406V78.2812H121.922V72.4844H123.891ZM123.891 76.6719H129.422V75.3906H123.891V76.6719ZM144.938 64.2188V78.4375H143.016V64.2188H144.938ZM141.922 64.4688V77.7969H140.063V71.0312H137.516V69.4062H140.063V64.4688H141.922ZM138.485 65.8281V67.4219H135.001V73.6094C136.524 73.6016 137.672 73.5234 139.001 73.25L139.157 74.875C137.547 75.2031 136.11 75.2656 134.032 75.2656H133.047V65.8281H138.485ZM157.704 64.2188V78.4688H155.689V64.2188H157.704ZM149.986 65.2188C152.126 65.2188 153.72 67.1875 153.72 70.2812C153.72 73.4062 152.126 75.3594 149.986 75.3594C147.798 75.3594 146.204 73.4062 146.22 70.2812C146.204 67.1875 147.798 65.2188 149.986 65.2188ZM149.986 67.0156C148.876 67.0156 148.142 68.1719 148.142 70.2812C148.142 72.4062 148.876 73.5469 149.986 73.5469C151.064 73.5469 151.798 72.4062 151.798 70.2812C151.798 68.1719 151.064 67.0156 149.986 67.0156ZM170.58 71.5625V73.1406H160.518V65.2656H170.471V66.875H162.549V68.375H170.143V69.9375H162.549V71.5625H170.58ZM172.002 75.1562V76.7812H158.986V75.1562H172.002Z" fill="white"/>
<path d="M64.5732 115L64.5556 113.084L69.1259 108.883C70.3213 107.74 70.9541 107.037 70.9541 106.035C70.9541 104.91 70.0927 104.207 68.9326 104.207C67.7373 104.207 66.9638 104.963 66.9638 106.176H64.4502C64.4326 103.68 66.2783 102.098 68.9677 102.098C71.6923 102.098 73.5029 103.645 73.5029 105.859C73.5029 107.301 72.7998 108.496 70.1806 110.869L68.247 112.75V112.82H73.6787V115H64.5732ZM79.779 115.176C76.5973 115.176 74.6637 112.803 74.6637 108.637C74.6637 104.471 76.5973 102.098 79.779 102.098C82.9606 102.098 84.8942 104.488 84.8942 108.637C84.8942 112.82 82.9606 115.176 79.779 115.176ZM79.779 112.996C81.2555 112.996 82.2048 111.572 82.1872 108.637C82.1872 105.736 81.2555 104.26 79.779 104.26C78.3024 104.26 77.3708 105.736 77.3708 108.637C77.3532 111.572 78.3024 112.996 79.779 112.996ZM86.0023 115L85.9848 113.084L90.5551 108.883C91.7504 107.74 92.3832 107.037 92.3832 106.035C92.3832 104.91 91.5219 104.207 90.3617 104.207C89.1664 104.207 88.393 104.963 88.393 106.176H85.8793C85.8617 103.68 87.7074 102.098 90.3969 102.098C93.1215 102.098 94.932 103.645 94.932 105.859C94.932 107.301 94.2289 108.496 91.6098 110.869L89.6762 112.75V112.82H95.1078V115H86.0023ZM96.2687 115L96.2511 113.084L100.821 108.883C102.017 107.74 102.65 107.037 102.65 106.035C102.65 104.91 101.788 104.207 100.628 104.207C99.4327 104.207 98.6593 104.963 98.6593 106.176H96.1456C96.128 103.68 97.9738 102.098 100.663 102.098C103.388 102.098 105.198 103.645 105.198 105.859C105.198 107.301 104.495 108.496 101.876 110.869L99.9425 112.75V112.82H105.374V115H96.2687ZM123.235 100.621V116.617H121.073V108.479H119.614V115.914H117.522V101.043H119.614V106.686H121.073V100.621H123.235ZM116.397 102.59C116.379 107.055 115.044 110.711 110.544 113.33L109.243 111.783C112.503 109.867 113.901 107.521 114.217 104.383H110.051V102.59H116.397ZM137.755 100.621V110.113H135.523V106.334H133.027V104.523H135.523V100.621H137.755ZM132.288 110.465C135.699 110.482 137.79 111.607 137.808 113.559C137.79 115.492 135.699 116.635 132.288 116.635C128.878 116.635 126.786 115.492 126.786 113.559C126.786 111.607 128.878 110.482 132.288 110.465ZM132.288 112.188C130.161 112.188 129.019 112.627 129.019 113.559C129.019 114.473 130.161 114.93 132.288 114.93C134.415 114.93 135.575 114.473 135.575 113.559C135.575 112.627 134.415 112.188 132.288 112.188ZM133.501 101.588V103.381H130.32C130.372 105.244 131.497 107.125 133.993 107.951L132.886 109.709C131.119 109.138 129.907 107.978 129.212 106.527C128.5 108.162 127.226 109.48 125.327 110.131L124.167 108.355C126.795 107.477 127.973 105.385 128.034 103.381H124.818V101.588H133.501ZM142.362 102.273H145.333L148.268 107.758H148.391L151.309 102.273H154.28L149.639 110.465V115H147.003V110.465L142.362 102.273ZM154.931 115V102.273H159.994C162.806 102.273 164.212 103.627 164.212 105.543C164.212 107.037 163.246 107.969 161.927 108.268V108.391C163.369 108.461 164.722 109.604 164.722 111.484C164.722 113.506 163.21 115 160.328 115H154.931ZM159.8 112.82C161.33 112.82 161.98 112.188 161.98 111.238C161.98 110.166 161.171 109.41 159.871 109.41H157.568V112.82H159.8ZM159.607 107.6C160.714 107.6 161.54 106.984 161.54 105.965C161.54 105.051 160.872 104.418 159.66 104.418H157.568V107.6H159.607ZM165.672 102.273H168.942L172.475 110.904H172.615L176.149 102.273H179.418V115H176.852V106.668H176.746L173.424 114.947H171.666L168.344 106.633H168.238V115H165.672V102.273ZM196.945 102.01V103.574C196.927 105.525 196.927 107.723 196.347 110.939L194.15 110.746C194.677 107.819 194.695 105.64 194.695 103.785H185.115V102.01H196.945ZM198.263 112.838V114.666H183.673V112.838H186.785V107.811H189.017V112.838H190.775V107.811H192.99V112.838H198.263ZM207.51 102.221V103.504C207.492 105.016 207.492 106.984 207.071 109.639L204.856 109.463C205.216 107.143 205.251 105.429 205.278 104.014H199.213V102.221H207.51ZM203.52 106.809V111.449C205.093 111.388 206.693 111.273 208.16 111.08L208.301 112.75C205.014 113.312 201.375 113.365 198.58 113.348L198.369 111.555C199.266 111.546 200.268 111.546 201.305 111.52V106.809H203.52ZM211.184 100.621V107.055H213.364V108.918H211.184V116.617H208.916V100.621H211.184ZM219.394 104.242C219.394 107.248 220.606 110.166 223.278 111.326L221.907 113.119C220.132 112.249 218.945 110.658 218.286 108.689C217.583 110.781 216.353 112.495 214.524 113.4L213.118 111.572C215.86 110.342 217.108 107.248 217.126 104.242V101.852H219.394V104.242ZM226.847 100.621V116.652H224.632V107.459H221.485V105.648H224.632V100.621H226.847ZM80.2712 123.621V135.398H78.0387V131.461H75.9997V129.615H78.0387V128.227H75.9997V126.434H78.0387V123.621H80.2712ZM75.7184 124.764V126.557H74.4001V131.408C74.9362 131.373 75.4636 131.32 75.9645 131.268L76.0524 132.902C73.0641 133.395 69.5485 133.465 67.0173 133.465L66.7887 131.637L68.4938 131.619V126.557H67.193V124.764H75.7184ZM80.6579 137.543V139.336H69.6364V134.52H71.8864V137.543H80.6579ZM70.6559 131.584L72.2555 131.531V126.557H70.6559V131.584ZM91.0824 124.5V126.293H87.8832C87.9887 127.98 89.1928 129.668 91.6977 130.354L90.5727 132.094C88.7445 131.575 87.4613 130.477 86.7406 129.07C86.0111 130.591 84.7016 131.795 82.8031 132.375L81.6781 130.617C84.227 129.879 85.4662 128.104 85.5805 126.293H82.2934V124.5H91.0824ZM95.0199 123.621V132.305H92.7699V123.621H95.0199ZM86.5297 132.973V134.467H92.7875V132.973H95.0199V139.441H84.3148V132.973H86.5297ZM86.5297 137.648H92.7875V136.207H86.5297V137.648ZM102.368 127.98C102.351 130.424 103.651 133.236 106.288 134.449L105.04 136.207C103.256 135.39 101.982 133.755 101.278 131.83C100.558 133.948 99.2482 135.741 97.3937 136.611L96.0929 134.836C98.7648 133.588 100.101 130.617 100.118 127.98V126.996H96.7257V125.168H105.585V126.996H102.368V127.98ZM109.083 123.621V129.721H111.439V131.602H109.083V139.617H106.833V123.621H109.083ZM128.122 123.639V135.135H125.872V123.639H128.122ZM128.544 137.543V139.336H117.399V133.975H119.667V137.543H128.544ZM119.35 124.658C121.811 124.658 123.727 126.346 123.727 128.684C123.727 131.074 121.811 132.744 119.35 132.744C116.889 132.744 114.973 131.074 114.973 128.684C114.973 126.346 116.889 124.658 119.35 124.658ZM119.35 126.609C118.102 126.592 117.153 127.383 117.17 128.684C117.153 130.02 118.102 130.793 119.35 130.793C120.563 130.793 121.512 130.02 121.512 128.684C121.512 127.383 120.563 126.592 119.35 126.609ZM143.064 123.621V139.652H140.849V131.074H138.036V129.264H140.849V123.621H143.064ZM137.773 124.957V126.768H132.534V129.422H137.193V131.18H132.534V134.203C134.749 134.186 136.525 134.106 138.511 133.799L138.74 135.592C136.402 135.943 134.31 136.031 131.568 136.031H130.302V124.957H137.773ZM159.025 132.674V134.484H155.721V139.617H153.471V134.484H149.973V139.617H147.67V134.484H144.383V132.674H159.025ZM148.32 124.219V125.994H155.035V124.219H157.285V131.162H146.105V124.219H148.32ZM148.32 129.387H155.035V127.752H148.32V129.387ZM177.308 135.926V137.754H162.665V135.926H168.835V132.973H164.212V124.641H166.462V127.119H173.441V124.641H175.673V132.973H171.068V135.926H177.308ZM166.462 131.18H173.441V128.912H166.462V131.18ZM190.985 123.621V139.652H188.752V131.215H186.168V129.387H188.752V123.621H190.985ZM185.272 124.957V130.951H180.297V134.08C182.503 134.062 184.375 133.983 186.432 133.623L186.608 135.451C184.235 135.838 182.055 135.926 179.383 135.926H178.065V129.176H183.092V126.768H178.029V124.957H185.272ZM208.388 123.621V129.756H210.656V131.602H208.388V139.582H206.138V123.621H208.388ZM204.117 125.256C204.099 130.037 202.236 134.186 196.857 136.822L195.591 135.1C199.379 133.201 201.41 130.652 201.832 127.084H196.505V125.256H204.117ZM224.051 123.621V139.617H221.784V123.621H224.051ZM219.252 125.291C219.252 130.143 217.547 134.168 211.834 136.875L210.657 135.082C214.787 133.131 216.607 130.6 216.967 127.049H211.518V125.291H219.252Z" fill="#333333"/>
<path d="M121 161H170.411C170.602 161 170.685 160.758 170.533 160.641L160.583 153" stroke="#333333" stroke-width="1.5"/>
</svg>
