<svg width="578" height="81" viewBox="0 0 578 81" fill="none" xmlns="http://www.w3.org/2000/svg">
<rect x="0.242188" y="0.59375" width="577" height="80" rx="40" fill="url(#paint0_linear_673_79567)"/>
<rect x="3.74219" y="4.09375" width="570" height="73" rx="36.5" fill="url(#paint1_linear_673_79567)"/>
<rect x="3.74219" y="4.09375" width="570" height="73" rx="36.5" fill="url(#paint2_linear_673_79567)"/>
<path d="M530.806 70.5938C547.375 70.5938 560.806 57.1623 560.806 40.5937C560.806 24.0252 547.375 10.5938 530.806 10.5938C514.238 10.5938 500.806 24.0252 500.806 40.5937C500.806 57.1623 514.238 70.5938 530.806 70.5938Z" fill="url(#paint3_linear_673_79567)"/>
<path d="M530.806 66.6924C545.22 66.6924 556.905 55.0077 556.905 40.5938C556.905 26.1799 545.22 14.4951 530.806 14.4951C516.392 14.4951 504.708 26.1799 504.708 40.5938C504.708 55.0077 516.392 66.6924 530.806 66.6924Z" fill="url(#paint4_linear_673_79567)"/>
<mask id="mask0_673_79567" style="mask-type:alpha" maskUnits="userSpaceOnUse" x="513" y="24" width="34" height="34">
<rect x="513.106" y="24.2266" width="33.7476" height="33.7476" fill="#D9D9D9"/>
</mask>
<g mask="url(#mask0_673_79567)">
<path d="M520.916 51.6465L519.434 50.1646L535.529 34.0696H525.762V31.9604H539.12V45.3188H537.011V35.5515L520.916 51.6465Z" fill="white"/>
</g>
<path d="M207.148 26.0312V54.5312H203.117V26.0312H207.148ZM191.711 28.0312C195.992 28.0312 199.18 31.9688 199.18 38.1562C199.18 44.4062 195.992 48.3125 191.711 48.3125C187.336 48.3125 184.148 44.4062 184.18 38.1562C184.148 31.9688 187.336 28.0312 191.711 28.0312ZM191.711 31.625C189.492 31.625 188.023 33.9375 188.023 38.1562C188.023 42.4062 189.492 44.6875 191.711 44.6875C193.867 44.6875 195.336 42.4062 195.336 38.1562C195.336 33.9375 193.867 31.625 191.711 31.625ZM235.43 26.0312V47.5312H231.648V26.0312H235.43ZM229.648 26.4688V46.625H225.898V37.0938H223.336V42.5938H211.992V28.2188H215.773V32.5625H219.648V28.2188H223.336V33.9062H225.898V26.4688H229.648ZM215.773 39.375H219.648V35.5938H215.773V39.375ZM236.148 50.7812V53.9688H216.148V44.6875H220.148V50.7812H236.148ZM261.836 40.7188V43.875H241.711V28.125H261.617V31.3438H245.773V34.3438H260.961V37.4688H245.773V40.7188H261.836ZM264.68 47.9062V51.1562H238.648V47.9062H264.68ZM289.898 28.875V32H284.148C284.227 34.8594 286.289 37.7344 290.805 38.9375L288.992 42C285.758 41.1562 283.508 39.375 282.211 37.0625C280.961 39.6094 278.695 41.5938 275.336 42.5L273.461 39.4375C277.977 38.2031 280.117 35.1406 280.18 32H274.461V28.875H280.18V25.9062H284.211V28.875H289.898ZM296.242 26.0312V32.7188H300.086V35.9688H296.242V42.6875H292.242V26.0312H296.242ZM296.242 43.875V54.1562H277.648V43.875H296.242ZM281.586 47.0312V50.9688H292.305V47.0312H281.586ZM309.18 28.0312C311.727 28.0312 313.852 29.4375 315.148 31.875H321.398V26.0312H325.336V54.5312H321.398V43.875H315.461C314.18 46.6875 311.93 48.3125 309.18 48.3125C304.867 48.3125 301.773 44.4062 301.805 38.1562C301.773 31.9688 304.867 28.0312 309.18 28.0312ZM309.18 31.625C307.055 31.625 305.586 33.9375 305.617 38.1562C305.586 42.4062 307.055 44.6875 309.18 44.6875C311.336 44.6875 312.742 42.4062 312.742 38.1562C312.742 33.9375 311.336 31.625 309.18 31.625ZM316.273 35.0938C316.445 36.0312 316.555 37.0625 316.555 38.1562C316.555 39.0469 316.477 39.8906 316.367 40.6875H321.398V35.0938H316.273ZM351.43 26.0312V37.1562H355.617V40.4375H351.43V54.4688H347.492V26.0312H351.43ZM345.555 30.2812V33.4688H328.836V30.2812H335.273V26.4688H339.273V30.2812H345.555ZM337.273 35.0625C341.43 35.0625 344.523 37.875 344.523 41.8438C344.523 45.8125 341.43 48.625 337.273 48.625C333.086 48.625 329.992 45.8125 329.992 41.8438C329.992 37.875 333.086 35.0625 337.273 35.0625ZM337.273 38.2812C335.273 38.3125 333.805 39.6562 333.805 41.8438C333.805 44.0625 335.273 45.375 337.273 45.3438C339.273 45.375 340.711 44.0625 340.711 41.8438C340.711 39.6562 339.273 38.3125 337.273 38.2812ZM380.555 26.0312V54.4688H376.523V26.0312H380.555ZM372.023 29C372.023 37.625 368.992 44.7812 358.836 49.5938L356.742 46.4062C364.086 42.9375 367.32 38.4375 367.961 32.125H358.273V29H372.023Z" fill="#000543"/>
<defs>
<linearGradient id="paint0_linear_673_79567" x1="218.646" y1="80.6072" x2="218.646" y2="0.557149" gradientUnits="userSpaceOnUse">
<stop stop-color="#C7C9D6"/>
<stop offset="1" stop-color="white"/>
</linearGradient>
<linearGradient id="paint1_linear_673_79567" x1="218.605" y1="77.0505" x2="218.605" y2="3.97656" gradientUnits="userSpaceOnUse">
<stop stop-color="white"/>
<stop offset="1" stop-color="#C7C9D6"/>
</linearGradient>
<linearGradient id="paint2_linear_673_79567" x1="213.923" y1="-19.8352" x2="217.267" y2="38.5219" gradientUnits="userSpaceOnUse">
<stop stop-color="#C7C9D6"/>
<stop offset="1" stop-color="white" stop-opacity="0"/>
</linearGradient>
<linearGradient id="paint3_linear_673_79567" x1="530.871" y1="70.5504" x2="530.871" y2="10.6636" gradientUnits="userSpaceOnUse">
<stop offset="0.0714286" stop-color="#29CCDE"/>
<stop offset="0.8333" stop-color="#5785E7"/>
</linearGradient>
<linearGradient id="paint4_linear_673_79567" x1="522.337" y1="-19.5238" x2="530.818" y2="40.232" gradientUnits="userSpaceOnUse">
<stop stop-color="white"/>
<stop offset="0.1788" stop-color="#FAFDFD" stop-opacity="0.8212"/>
<stop offset="0.3824" stop-color="#EDF5F8" stop-opacity="0.6176"/>
<stop offset="0.5982" stop-color="#D6EAEF" stop-opacity="0.4018"/>
<stop offset="0.821" stop-color="#B6D9E2" stop-opacity="0.179"/>
<stop offset="1" stop-color="#97C9D6" stop-opacity="0"/>
</linearGradient>
</defs>
</svg>
