<?xml version="1.0" encoding="utf-8"?>
<!-- Generator: Adobe Illustrator 27.7.0, SVG Export Plug-In . SVG Version: 6.00 Build 0)  -->
<svg version="1.1" id="레이어_1" xmlns="http://www.w3.org/2000/svg" xmlns:xlink="http://www.w3.org/1999/xlink" x="0px"
     y="0px" viewBox="0 0 46 26" style="enable-background:new 0 0 46 26;" xml:space="preserve">
<style type="text/css">
	.st0{fill:#FFFFFF;}
</style>
    <g>
	<path class="st0" d="M39,5.1v20h-4.8v-24c0-0.2,0.3-0.3,0.4-0.1L39,5.1z"/>
        <path class="st0" d="M0.2,8.4V0.9H5v11.5c0,0.2-0.3,0.3-0.4,0.1L0.2,8.4z"/>
        <path class="st0" d="M11.8,20.9v-20H7v24c0,0.2,0.3,0.3,0.4,0.1L11.8,20.9z"/>
        <rect x="13.8" y="0.9" class="st0" width="4.8" height="24.2"/>
        <g>
		<path class="st0" d="M21,1c-0.1-0.1-0.4-0.1-0.4,0.1v11.3c0,0.2,0.3,0.3,0.4,0.1l4.4-4.2V5.1L21,1z"/>
            <path class="st0" d="M21,13.5c-0.1-0.1-0.4-0.1-0.4,0.1v11.3c0,0.2,0.3,0.3,0.4,0.1l4.4-4.2v-3.2L21,13.5z"/>
	</g>
        <path class="st0" d="M32.2,5.1v20h-4.8v-24c0-0.2,0.3-0.3,0.4-0.1L32.2,5.1z"/>
        <path class="st0" d="M45.8,5.1v20H41v-24c0-0.2,0.3-0.3,0.4-0.1L45.8,5.1z"/>
</g>
</svg>
