<svg width="148" height="148" viewBox="0 0 148 148" fill="none" xmlns="http://www.w3.org/2000/svg">
<path d="M45.9899 30.7133C50.6603 30.7133 54.4465 26.9375 54.4465 22.2798C54.4465 17.622 50.6603 13.8462 45.9899 13.8462C41.3194 13.8462 37.5332 17.622 37.5332 22.2798C37.5332 26.9375 41.3194 30.7133 45.9899 30.7133Z" fill="#2A2A2A" stroke="#2A2A2A" stroke-width="2" stroke-miterlimit="10" stroke-linecap="round" stroke-linejoin="round"/>
<path d="M77.7549 36.769H14.2178C7.5002 36.769 2.05176 42.2026 2.05176 48.9019V76.6991C2.05176 83.3984 7.5002 88.832 14.2178 88.832H19.6312L33.8799 101.175L32.9052 88.832H77.7549C84.4726 88.832 89.921 83.3984 89.921 76.6991V48.9019C89.921 42.2026 84.4726 36.769 77.7549 36.769Z" fill="#88DBFF" stroke="#2A2A2A" stroke-width="2" stroke-miterlimit="10" stroke-linecap="round" stroke-linejoin="round"/>
<mask id="mask0_68_981" style="mask-type:luminance" maskUnits="userSpaceOnUse" x="2" y="6" width="88" height="96">
<path d="M77.7549 6H14.2178C7.5002 6 2.05176 11.4336 2.05176 18.1329V76.6993C2.05176 83.3986 7.5002 88.8322 14.2178 88.8322H19.6312L33.8799 101.175L32.9052 88.8322H77.7549C84.4726 88.8322 89.921 83.3986 89.921 76.6993V18.1329C89.921 11.4336 84.4726 6 77.7549 6Z" fill="white"/>
</mask>
<g mask="url(#mask0_68_981)">
<path d="M46.2003 68.5663C59.4024 68.5663 70.1047 58.5913 70.1047 46.2866C70.1047 33.9818 59.4024 24.0068 46.2003 24.0068C32.9983 24.0068 22.2959 33.9818 22.2959 46.2866C22.2959 58.5913 32.9983 68.5663 46.2003 68.5663Z" fill="#2A2A2A" stroke="#2A2A2A" stroke-width="2" stroke-miterlimit="10" stroke-linecap="round" stroke-linejoin="round"/>
<path d="M76.037 107.944H15.9219L18.6847 95.4406C20.7462 86.1049 29.0486 79.4546 38.6342 79.4546H53.3247C62.9103 79.4546 71.2057 86.1049 73.2743 95.4406L76.037 107.944Z" fill="#F7E06C" stroke="#2A2A2A" stroke-width="2" stroke-miterlimit="10" stroke-linecap="round" stroke-linejoin="round"/>
<path d="M53.479 79.4545C53.479 79.4545 52.4342 83.3775 45.9901 83.3775C39.5389 83.3775 38.4871 79.4545 38.4871 79.4545V70.4824H53.479V79.4545Z" fill="#FFDDD9" stroke="#2A2A2A" stroke-width="2" stroke-miterlimit="10" stroke-linecap="round" stroke-linejoin="round"/>
<path d="M29.2238 54.5735C29.883 57.9301 28.165 61.084 25.3882 61.6294C22.6114 62.1679 19.8275 59.8952 19.1684 56.5385C18.5093 53.1819 20.2272 50.028 23.004 49.4826C25.7809 48.9441 28.5647 51.2238 29.2238 54.5735Z" fill="#FFDDD9" stroke="#2A2A2A" stroke-width="2" stroke-miterlimit="10" stroke-linecap="round" stroke-linejoin="round"/>
<path d="M72.8197 56.5382C73.4778 53.1838 71.759 50.0251 68.9807 49.483C66.2024 48.941 63.4167 51.2208 62.7586 54.5752C62.1006 57.9296 63.8194 61.0884 66.5977 61.6304C69.376 62.1725 72.1617 59.8926 72.8197 56.5382Z" fill="#FFDDD9" stroke="#2A2A2A" stroke-width="2" stroke-miterlimit="10" stroke-linecap="round" stroke-linejoin="round"/>
<path d="M68.3236 52.1046C68.3236 65.4262 58.3243 76.2165 45.9829 76.2165C33.6485 76.2165 23.6492 65.4262 23.6492 52.1046C23.6492 48.2794 24.4766 44.657 25.9492 41.4402C29.5885 33.4752 37.1966 27.9927 45.9829 27.9927C55.1267 27.9927 62.9873 33.9227 66.4443 42.4123C67.6574 45.3773 68.3236 48.657 68.3236 52.1046Z" fill="#FFDDD9" stroke="#2A2A2A" stroke-width="2" stroke-miterlimit="10" stroke-linecap="round" stroke-linejoin="round"/>
<path d="M39.1743 53.1046C39.5538 53.1046 39.8614 52.4221 39.8614 51.5801C39.8614 50.7382 39.5538 50.0557 39.1743 50.0557C38.7947 50.0557 38.4871 50.7382 38.4871 51.5801C38.4871 52.4221 38.7947 53.1046 39.1743 53.1046Z" fill="white" stroke="#2A2A2A" stroke-width="2" stroke-miterlimit="10" stroke-linecap="round" stroke-linejoin="round"/>
<path d="M53.4789 51.5801C53.4789 52.4193 53.1703 53.1046 52.7917 53.1046C52.413 53.1046 52.1045 52.4263 52.1045 51.5801C52.1045 50.734 52.413 50.0557 52.7917 50.0557C53.1703 50.0557 53.4789 50.734 53.4789 51.5801Z" fill="white" stroke="#2A2A2A" stroke-width="2" stroke-miterlimit="10" stroke-linecap="round" stroke-linejoin="round"/>
<path d="M37.5054 45.8879C37.9682 45.797 38.5432 45.748 39.1602 45.748C39.7913 45.748 40.3663 45.797 40.8291 45.8879" fill="white"/>
<path d="M37.5054 45.8879C37.9682 45.797 38.5432 45.748 39.1602 45.748C39.7913 45.748 40.3663 45.797 40.8291 45.8879" stroke="#2A2A2A" stroke-width="2" stroke-miterlimit="10" stroke-linecap="round" stroke-linejoin="round"/>
<path d="M51.1228 45.8879C51.5856 45.797 52.1606 45.748 52.7847 45.748C53.4158 45.748 53.9908 45.797 54.4536 45.8879" fill="white"/>
<path d="M51.1228 45.8879C51.5856 45.797 52.1606 45.748 52.7847 45.748C53.4158 45.748 53.9908 45.797 54.4536 45.8879" stroke="#2A2A2A" stroke-width="2" stroke-miterlimit="10" stroke-linecap="round" stroke-linejoin="round"/>
<path d="M50.8984 57.6431C49.524 60.3074 47.8341 61.741 46.0039 61.741C44.1387 61.741 42.4418 60.3074 41.0674 57.6431H50.8984Z" fill="#EAA99D" stroke="#2A2A2A" stroke-width="2" stroke-miterlimit="10" stroke-linecap="round" stroke-linejoin="round"/>
<path d="M66.4444 42.4123C66.1148 42.4332 65.7923 42.4402 65.4627 42.4402C58.7591 42.4402 52.7917 39.3144 48.928 34.4472C45.0643 39.3144 39.097 42.4402 32.3934 42.4402C30.1425 42.4402 27.9827 42.0906 25.9492 41.4402C29.5885 33.4752 37.1967 27.9927 45.9829 27.9927C55.1268 27.9927 62.9874 33.9227 66.4444 42.4123Z" fill="#2A2A2A" stroke="#2A2A2A" stroke-width="2" stroke-miterlimit="10" stroke-linecap="round" stroke-linejoin="round"/>
<path d="M23.6703 53.0979L32.4496 40.5454H26.3841C26.3841 40.5454 22.6115 46.6713 23.6703 53.0979Z" fill="#2A2A2A" stroke="#2A2A2A" stroke-width="2" stroke-miterlimit="10" stroke-linecap="round" stroke-linejoin="round"/>
<path d="M68.3166 53.0979L59.5444 40.5454H65.6099C65.6099 40.5454 69.3755 46.6713 68.3166 53.0979Z" fill="#2A2A2A" stroke="#2A2A2A" stroke-width="2" stroke-miterlimit="10" stroke-linecap="round" stroke-linejoin="round"/>
</g>
<path d="M14.2178 88.832H19.6312L33.8798 101.175L32.9052 88.832H77.7549" stroke="#2A2A2A" stroke-width="2" stroke-miterlimit="10" stroke-linecap="round" stroke-linejoin="round"/>
<path d="M70.2449 74.6016H133.782C140.5 74.6016 145.948 80.0351 145.948 86.7344V114.532C145.948 121.231 140.5 126.665 133.782 126.665H128.369L114.12 139.007L115.095 126.665H70.2449C63.5273 126.665 58.0789 121.231 58.0789 114.532V86.7344C58.0789 80.0351 63.5273 74.6016 70.2449 74.6016Z" fill="#ABC2FD" stroke="#2A2A2A" stroke-width="2" stroke-miterlimit="10" stroke-linecap="round" stroke-linejoin="round"/>
<mask id="mask1_68_981" style="mask-type:luminance" maskUnits="userSpaceOnUse" x="70" y="63" width="59" height="77">
<path d="M70.2449 126.664H115.095L114.12 139.007L128.369 126.664V63.3428H72.4397L70.2449 126.664Z" fill="white"/>
</mask>
<g mask="url(#mask1_68_981)">
<path d="M73.7439 139.951C77.4183 114.07 79.7042 106.503 100.194 106.503C120.676 106.503 122.962 114.063 126.63 139.951" fill="white"/>
<path d="M73.7439 139.951C77.4183 114.07 79.7042 106.503 100.194 106.503C120.676 106.503 122.962 114.063 126.63 139.951" stroke="#2A2A2A" stroke-width="2" stroke-miterlimit="10" stroke-linecap="round" stroke-linejoin="round"/>
<path d="M100.187 111.72C114.566 111.72 126.223 102.002 126.223 90.0139C126.223 78.0259 114.566 68.3076 100.187 68.3076C85.8074 68.3076 74.1506 78.0259 74.1506 90.0139C74.1506 102.002 85.8074 111.72 100.187 111.72Z" fill="white" stroke="#2A2A2A" stroke-width="2" stroke-miterlimit="10" stroke-linecap="round" stroke-linejoin="round"/>
<path d="M100.187 102.028C89.6614 102.028 86.4779 99.7902 85.6014 98.8322C84.4023 97.5245 83.8694 94.8042 83.8694 90.014C83.8694 85.2238 84.4023 82.5035 85.6014 81.1958C86.4779 80.2378 89.6614 78 100.187 78C110.712 78 113.895 80.2378 114.772 81.1958C115.971 82.5035 116.504 85.2238 116.504 90.014C116.504 94.8042 115.971 97.5245 114.772 98.8322C113.895 99.7972 110.712 102.028 100.187 102.028Z" fill="#2A2A2A" stroke="#2A2A2A" stroke-width="2" stroke-miterlimit="10" stroke-linecap="round" stroke-linejoin="round"/>
<path d="M94.0791 90.9861C94.509 90.9861 94.8575 90.0593 94.8575 88.9161C94.8575 87.7729 94.509 86.8462 94.0791 86.8462C93.6493 86.8462 93.3008 87.7729 93.3008 88.9161C93.3008 90.0593 93.6493 90.9861 94.0791 90.9861Z" fill="#ABC2FD" stroke="#ABC2FD" stroke-width="2" stroke-miterlimit="10" stroke-linecap="round" stroke-linejoin="round"/>
<path d="M106.294 90.9861C106.724 90.9861 107.073 90.0593 107.073 88.9161C107.073 87.7729 106.724 86.8462 106.294 86.8462C105.864 86.8462 105.516 87.7729 105.516 88.9161C105.516 90.0593 105.864 90.9861 106.294 90.9861Z" fill="#ABC2FD" stroke="#ABC2FD" stroke-width="2" stroke-miterlimit="10" stroke-linecap="round" stroke-linejoin="round"/>
<path d="M104.071 95.8599C103.097 96.6151 101.722 97.0767 100.194 97.0767C98.665 97.0767 97.2766 96.6081 96.3159 95.8599H104.071Z" fill="#ABC2FD" stroke="#ABC2FD" stroke-width="2" stroke-miterlimit="10" stroke-linecap="round" stroke-linejoin="round"/>
<path d="M104.275 128.007C104.356 128.007 104.422 127.925 104.422 127.825C104.422 127.724 104.356 127.643 104.275 127.643C104.194 127.643 104.128 127.724 104.128 127.825C104.128 127.925 104.194 128.007 104.275 128.007Z" stroke="#ABC2FD" stroke-width="2" stroke-miterlimit="10" stroke-linecap="round" stroke-linejoin="round"/>
<path d="M113.3 128.007C113.381 128.007 113.447 127.925 113.447 127.825C113.447 127.724 113.381 127.643 113.3 127.643C113.218 127.643 113.152 127.724 113.152 127.825C113.152 127.925 113.218 128.007 113.3 128.007Z" stroke="#ABC2FD" stroke-width="2" stroke-miterlimit="10" stroke-linecap="round" stroke-linejoin="round"/>
</g>
<path d="M133.782 126.665H128.369L114.12 139.007L115.095 126.665H70.2449" stroke="#2A2A2A" stroke-width="2" stroke-miterlimit="10" stroke-linecap="round" stroke-linejoin="round"/>
<path d="M113.63 13.5H84.95C76.97 13.5 70.5 19.97 70.5 27.95C70.5 35.93 76.97 42.4 84.95 42.4L83.07 52.75L94.57 42.4H113.63C121.61 42.4 128.08 35.93 128.08 27.95C128.08 19.97 121.61 13.5 113.63 13.5Z" fill="#ABC2FD" stroke="#2A2A2A" stroke-width="2" stroke-miterlimit="10" stroke-linecap="round" stroke-linejoin="round"/>
<path d="M84.3501 24.7402H114.07" stroke="#2A2A2A" stroke-width="2" stroke-miterlimit="10" stroke-linecap="round" stroke-linejoin="round"/>
<path d="M84.3501 31.3701H114.07" stroke="#2A2A2A" stroke-width="2" stroke-miterlimit="10" stroke-linecap="round" stroke-linejoin="round"/>
</svg>
