<svg width="148" height="148" viewBox="0 0 148 148" fill="none" xmlns="http://www.w3.org/2000/svg">
<rect x="11" y="11" width="126" height="126" rx="7" fill="white" stroke="#2A2A2A" stroke-width="2"/>
<path d="M18 11H130C133.866 11 137 14.134 137 18V27H11V18C11 14.134 14.134 11 18 11Z" fill="#F7E06C" stroke="#2A2A2A" stroke-width="2"/>
<circle cx="128" cy="19" r="3" fill="white" stroke="#2A2A2A" stroke-width="2"/>
<circle cx="128" cy="19" r="3" fill="white" stroke="#2A2A2A" stroke-width="2"/>
<circle cx="118" cy="19" r="3" fill="white" stroke="#2A2A2A" stroke-width="2"/>
<circle cx="108" cy="19" r="3" fill="white" stroke="#2A2A2A" stroke-width="2"/>
<rect x="22" y="42" width="16" height="16" rx="7" fill="#ABC2FD" stroke="#2A2A2A" stroke-width="2"/>
<mask id="path-8-inside-1_68_949" fill="white">
<path d="M118 41C120.209 41 122 42.7909 122 45V72C122 74.2091 120.209 76 118 76H52.9998C50.7908 75.9997 48.9998 74.209 48.9998 72V53.3994L43.2263 48.7812C42.4882 48.1907 42.906 47 43.8513 47H48.9998V45C48.9998 42.791 50.7908 41.0003 52.9998 41H118Z"/>
</mask>
<path d="M118 41C120.209 41 122 42.7909 122 45V72C122 74.2091 120.209 76 118 76H52.9998C50.7908 75.9997 48.9998 74.209 48.9998 72V53.3994L43.2263 48.7812C42.4882 48.1907 42.906 47 43.8513 47H48.9998V45C48.9998 42.791 50.7908 41.0003 52.9998 41H118Z" fill="#ABC2FD"/>
<path d="M122 45H124H122ZM52.9998 76L52.9995 78H52.9998V76ZM48.9998 72H46.9998H48.9998ZM48.9998 53.3994H50.9998V52.4381L50.249 51.8376L48.9998 53.3994ZM43.2263 48.7812L41.9769 50.343L41.977 50.3431L43.2263 48.7812ZM48.9998 47V49H50.9998V47H48.9998ZM52.9998 41V39H52.9995L52.9998 41ZM118 41V43C119.104 43 120 43.8954 120 45H122H124C124 41.6863 121.313 39 118 39V41ZM122 45H120V72H122H124V45H122ZM122 72H120C120 73.1046 119.104 74 118 74V76V78C121.313 78 124 75.3137 124 72H122ZM118 76V74H52.9998V76V78H118V76ZM52.9998 76L53 74C51.8952 73.9999 50.9998 73.1042 50.9998 72H48.9998H46.9998C46.9998 75.3138 49.6864 77.9996 52.9995 78L52.9998 76ZM48.9998 72H50.9998V53.3994H48.9998H46.9998V72H48.9998ZM48.9998 53.3994L50.249 51.8376L44.4756 47.2194L43.2263 48.7812L41.977 50.3431L47.7505 54.9612L48.9998 53.3994ZM43.2263 48.7812L44.4757 47.2195C45.2145 47.8105 44.7958 49 43.8513 49V47V45C41.0163 45 39.7619 48.5709 41.9769 50.343L43.2263 48.7812ZM43.8513 47V49H48.9998V47V45H43.8513V47ZM48.9998 47H50.9998V45H48.9998H46.9998V47H48.9998ZM48.9998 45H50.9998C50.9998 43.8958 51.8952 43.0001 53 43L52.9998 41L52.9995 39C49.6864 39.0004 46.9998 41.6862 46.9998 45H48.9998ZM52.9998 41V43H118V41V39H52.9998V41Z" fill="#2A2A2A" mask="url(#path-8-inside-1_68_949)"/>
<rect x="58" y="50" width="54" height="2" rx="1" fill="#2A2A2A"/>
<rect x="58" y="57" width="37" height="2" rx="1" fill="#2A2A2A"/>
<rect x="58" y="64" width="21" height="2" rx="1" fill="#2A2A2A"/>
<rect x="110" y="87" width="16" height="16" rx="7" fill="#88DBFF" stroke="#2A2A2A" stroke-width="2"/>
<mask id="path-14-inside-2_68_949" fill="white">
<path d="M29.9998 86C27.7906 86 25.9998 87.7909 25.9998 90V117C25.9998 119.209 27.7906 121 29.9998 121H94.9998C97.2087 121 98.9998 119.209 98.9998 117V98.3994L104.773 93.7812C105.511 93.1907 105.093 92 104.148 92H98.9998V90C98.9998 87.791 97.2087 86.0003 94.9998 86H29.9998Z"/>
</mask>
<path d="M29.9998 86C27.7906 86 25.9998 87.7909 25.9998 90V117C25.9998 119.209 27.7906 121 29.9998 121H94.9998C97.2087 121 98.9998 119.209 98.9998 117V98.3994L104.773 93.7812C105.511 93.1907 105.093 92 104.148 92H98.9998V90C98.9998 87.791 97.2087 86.0003 94.9998 86H29.9998Z" fill="#88DBFF"/>
<path d="M25.9998 90H23.9998H25.9998ZM94.9998 121L95 123H94.9998V121ZM98.9998 117H101H98.9998ZM98.9998 98.3994H96.9998V97.4381L97.7505 96.8376L98.9998 98.3994ZM104.773 93.7812L106.023 95.343L106.022 95.3431L104.773 93.7812ZM98.9998 92V94H96.9998V92H98.9998ZM94.9998 86V84H95L94.9998 86ZM29.9998 86V88C28.8952 88 27.9998 88.8954 27.9998 90H25.9998H23.9998C23.9998 86.6863 26.6861 84 29.9998 84V86ZM25.9998 90H27.9998V117H25.9998H23.9998V90H25.9998ZM25.9998 117H27.9998C27.9998 118.105 28.8952 119 29.9998 119V121V123C26.6861 123 23.9998 120.314 23.9998 117H25.9998ZM29.9998 121V119H94.9998V121V123H29.9998V121ZM94.9998 121L94.9995 119C96.1043 119 96.9998 118.104 96.9998 117H98.9998H101C101 120.314 98.3131 123 95 123L94.9998 121ZM98.9998 117H96.9998V98.3994H98.9998H101V117H98.9998ZM98.9998 98.3994L97.7505 96.8376L103.524 92.2194L104.773 93.7812L106.022 95.3431L100.249 99.9612L98.9998 98.3994ZM104.773 93.7812L103.524 92.2195C102.785 92.8105 103.204 94 104.148 94V92V90C106.983 90 108.238 93.5709 106.023 95.343L104.773 93.7812ZM104.148 92V94H98.9998V92V90H104.148V92ZM98.9998 92H96.9998V90H98.9998H101V92H98.9998ZM98.9998 90H96.9998C96.9998 88.8958 96.1043 88.0001 94.9995 88L94.9998 86L95 84C98.3131 84.0004 101 86.6862 101 90H98.9998ZM94.9998 86V88H29.9998V86V84H94.9998V86Z" fill="#2A2A2A" mask="url(#path-14-inside-2_68_949)"/>
<rect width="54" height="2" rx="1" transform="matrix(-1 0 0 1 90.0002 95)" fill="#2A2A2A"/>
<rect width="37" height="2" rx="1" transform="matrix(-1 0 0 1 90.0002 102)" fill="#2A2A2A"/>
<rect width="21" height="2" rx="1" transform="matrix(-1 0 0 1 90.0002 109)" fill="#2A2A2A"/>
</svg>
