<svg width="22" height="22" viewBox="0 0 22 22" fill="none" xmlns="http://www.w3.org/2000/svg">
<path d="M15.9695 14.0887H14.982L14.632 13.7512C16.132 12.0012 16.907 9.61367 16.482 7.07617C15.8945 3.60117 12.9945 0.826173 9.49453 0.401173C4.20703 -0.248827 -0.242968 4.20117 0.407032 9.48867C0.832032 12.9887 3.60703 15.8887 7.08203 16.4762C9.61953 16.9012 12.007 16.1262 13.757 14.6262L14.0945 14.9762V15.9637L19.407 21.2762C19.9195 21.7887 20.757 21.7887 21.2695 21.2762C21.782 20.7637 21.782 19.9262 21.2695 19.4137L15.9695 14.0887ZM8.46953 14.0887C5.35703 14.0887 2.84453 11.5762 2.84453 8.46367C2.84453 5.35117 5.35703 2.83867 8.46953 2.83867C11.582 2.83867 14.0945 5.35117 14.0945 8.46367C14.0945 11.5762 11.582 14.0887 8.46953 14.0887Z" fill="#4149BB"/>
</svg>
