<svg width="30" height="30" viewBox="0 0 30 30" fill="none" xmlns="http://www.w3.org/2000/svg">
<path d="M18.2012 23.6795L18.1517 23.6407C18.166 23.6316 18.1838 23.6244 18.1945 23.6112C18.5108 23.2276 16.9982 21.4562 14.8153 19.6563C12.6324 17.8564 10.6072 16.7068 10.2909 17.0919C10.2802 17.1041 10.2766 17.123 10.27 17.1378L10.2215 17.098L9.76696 22.0703L13.317 24.9995L18.2012 23.6795Z" fill="white" stroke="#282828" stroke-width="1.5" stroke-linecap="round" stroke-linejoin="round"/>
<path d="M13.3154 25.0053L9.76535 22.0762L9.40008 26.0596L13.3154 25.0053Z" fill="#EE5750" stroke="#282828" stroke-width="1.5" stroke-linecap="round" stroke-linejoin="round"/>
<path d="M27.267 8.20064C26.2381 7.05561 25.0092 6.04167 23.6894 5.24754C22.8242 4.72832 21.9259 4.30143 21.0198 4C17.4106 8.37152 13.8029 12.7451 10.1946 17.1156C11.1001 17.4185 12 17.8449 12.8642 18.3651C14.1829 19.1577 15.4118 20.1702 16.4423 21.3162C17.1162 22.065 17.7075 22.8688 18.1748 23.6991C21.782 19.3266 25.3923 14.9566 29 10.5835C28.5327 9.75267 27.942 8.94937 27.267 8.20064Z" fill="#4DCC80" stroke="#282828" stroke-width="1.5" stroke-linecap="round" stroke-linejoin="round"/>
<path d="M9.40039 26.0552C9.40039 26.0552 3.88524 25.0974 1.64112 20.6096C-0.602997 16.1218 4.52648 17.7243 5.80898 20.2888C7.09199 22.8532 4.52648 25.739 0.999869 24.7771" stroke="#282828" stroke-width="1.5" stroke-linecap="round" stroke-linejoin="round"/>
</svg>
