<svg width="20" height="30" viewBox="0 0 20 30" fill="none" xmlns="http://www.w3.org/2000/svg">
<g clip-path="url(#clip0_1052_1922)">
<mask id="path-1-outside-1_1052_1922" maskUnits="userSpaceOnUse" x="0.296875" y="-0.5" width="19" height="25" fill="black">
<rect fill="white" x="0.296875" y="-0.5" width="19" height="25"/>
<path fill-rule="evenodd" clip-rule="evenodd" d="M7.40625 1.5H12.1855C12.7378 1.5 13.1855 1.94772 13.1855 2.5V13.3753H16.2609C17.1399 13.3753 17.5913 14.4279 16.9853 15.0646L14.1867 18.0055L10.5037 21.8748C10.1095 22.2889 9.44904 22.2888 9.05494 21.8747L5.37304 18.0055L2.57445 15.0646C1.9685 14.4279 2.41986 13.3753 3.29886 13.3753H6.40625V2.5C6.40625 1.94772 6.85397 1.5 7.40625 1.5Z"/>
</mask>
<path d="M13.1855 13.3753H11.6855V14.8753H13.1855V13.3753ZM16.9853 15.0646L18.0719 16.0987L16.9853 15.0646ZM14.1867 18.0055L15.2732 19.0397L15.2733 19.0396L14.1867 18.0055ZM10.5037 21.8748L11.5902 22.909L11.5902 22.909L10.5037 21.8748ZM9.05494 21.8747L10.1416 20.8406H10.1416L9.05494 21.8747ZM5.37304 18.0055L6.45967 16.9715L6.45967 16.9715L5.37304 18.0055ZM2.57445 15.0646L1.48782 16.0987H1.48782L2.57445 15.0646ZM6.40625 13.3753V14.8753H7.90625V13.3753H6.40625ZM12.1855 0H7.40625V3H12.1855V0ZM14.6855 2.5C14.6855 1.11929 13.5662 0 12.1855 0V3C11.9094 3 11.6855 2.77614 11.6855 2.5H14.6855ZM14.6855 13.3753V2.5H11.6855V13.3753H14.6855ZM13.1855 14.8753H16.2609V11.8753H13.1855V14.8753ZM16.2609 14.8753C15.8214 14.8753 15.5957 14.349 15.8987 14.0306L18.0719 16.0987C19.5868 14.5068 18.4584 11.8753 16.2609 11.8753V14.8753ZM15.8987 14.0306L13.1001 16.9715L15.2733 19.0396L18.0719 16.0987L15.8987 14.0306ZM13.1002 16.9713L9.41719 20.8406L11.5902 22.909L15.2732 19.0397L13.1002 16.9713ZM9.4172 20.8406C9.61428 20.6335 9.94451 20.6336 10.1416 20.8406L7.96831 22.9087C8.95357 23.9441 10.6048 23.9442 11.5902 22.909L9.4172 20.8406ZM10.1416 20.8406L6.45967 16.9715L4.28642 19.0396L7.96831 22.9087L10.1416 20.8406ZM6.45967 16.9715L3.66107 14.0306L1.48782 16.0987L4.28642 19.0396L6.45967 16.9715ZM3.66107 14.0306C3.96405 14.349 3.73836 14.8753 3.29886 14.8753V11.8753C1.10136 11.8753 -0.0270543 14.5068 1.48782 16.0987L3.66107 14.0306ZM3.29886 14.8753H6.40625V11.8753H3.29886V14.8753ZM4.90625 2.5V13.3753H7.90625V2.5H4.90625ZM7.40625 0C6.02554 0 4.90625 1.11929 4.90625 2.5H7.90625C7.90625 2.77614 7.68239 3 7.40625 3V0Z" fill="#4DCC80" mask="url(#path-1-outside-1_1052_1922)"/>
<rect y="26" width="20" height="3.50002" rx="1.75001" stroke="#4DCC80" stroke-width="1.5"/>
</g>
<defs>
<clipPath id="clip0_1052_1922">
<rect width="20" height="30" fill="white"/>
</clipPath>
</defs>
</svg>
