<svg width="28" height="28" viewBox="0 0 28 28" fill="none" xmlns="http://www.w3.org/2000/svg">
<circle cx="14" cy="14" r="14" fill="#E4E4E4" fill-opacity="0.2"/>
<path d="M12.9912 19.0909C12.8077 19.0908 12.6267 19.0515 12.4618 18.9759C12.297 18.9003 12.1527 18.7904 12.0398 18.6546L9.27737 15.2552C9.17439 15.1385 9.09741 15.0035 9.05098 14.8584C9.00455 14.7132 8.98962 14.5608 9.00707 14.4101C9.02452 14.2595 9.074 14.1136 9.15257 13.9812C9.23115 13.8488 9.33722 13.7325 9.46453 13.6393C9.59183 13.546 9.73777 13.4777 9.8937 13.4383C10.0496 13.399 10.2124 13.3894 10.3724 13.4101C10.5323 13.4308 10.6863 13.4814 10.825 13.5589C10.9638 13.6365 11.0845 13.7393 11.1802 13.8614L12.9912 16.1175L17.7289 10.462C17.8246 10.3399 17.9453 10.237 18.0841 10.1595C18.2228 10.082 18.3767 10.0313 18.5367 10.0106C18.6967 9.98992 18.8595 9.99953 19.0154 10.0389C19.1713 10.0783 19.3173 10.1466 19.4446 10.2399C19.5719 10.3331 19.6779 10.4494 19.7565 10.5818C19.8351 10.7142 19.8846 10.86 19.902 11.0107C19.9195 11.1614 19.9045 11.3138 19.8581 11.4589C19.8117 11.6041 19.7347 11.739 19.6317 11.8558L13.9426 18.6546C13.8298 18.7904 13.6855 18.9003 13.5206 18.9759C13.3557 19.0515 13.1747 19.0908 12.9912 19.0909Z" fill="#FEFEFE"/>
</svg>
