<svg width="60" height="60" viewBox="0 0 60 60" fill="none" xmlns="http://www.w3.org/2000/svg">
<circle cx="30" cy="30" r="30" fill="white"/>
<path d="M27.3333 32.3984H32.6666V40.8002H27.3333V32.3984Z" fill="#2D304D"/>
<path d="M41.2267 27.813L30.9467 18.355C30.8228 18.2425 30.6753 18.1532 30.5128 18.0923C30.3504 18.0314 30.1761 18 30.0001 18C29.8241 18 29.6498 18.0314 29.4873 18.0923C29.3248 18.1532 29.1774 18.2425 29.0534 18.355L18.7735 27.825C18.5247 28.0508 18.3283 28.3187 18.1955 28.6134C18.0628 28.908 17.9964 29.2234 18.0002 29.5414V39.5995C17.9991 40.2139 18.2598 40.8053 18.7286 41.2519C19.1974 41.6985 19.8386 41.9662 20.5201 42H24.6668V31.1977C24.6668 30.8794 24.8073 30.5741 25.0573 30.349C25.3073 30.1239 25.6465 29.9975 26.0001 29.9975H34C34.3537 29.9975 34.6928 30.1239 34.9429 30.349C35.1929 30.5741 35.3334 30.8794 35.3334 31.1977V42H39.48C40.1615 41.9662 40.8027 41.6985 41.2715 41.2519C41.7403 40.8053 42.001 40.2139 42 39.5995V29.5414C42.0011 28.8968 41.7238 28.277 41.2267 27.813Z" fill="#2D304D"/>
</svg>
