<svg width="48" height="48" viewBox="0 0 48 48" fill="none" xmlns="http://www.w3.org/2000/svg">
<circle cx="24" cy="24" r="23.5" fill="white" stroke="#D2D2D2"/>
<path d="M21.1466 35C20.7261 34.9998 20.3112 34.9089 19.9334 34.7343C19.5556 34.5597 19.2248 34.3059 18.9663 33.9922L12.6357 26.1395C12.3997 25.8699 12.2232 25.5582 12.1168 25.2229C12.0104 24.8875 11.9762 24.5354 12.0162 24.1874C12.0562 23.8394 12.1696 23.5024 12.3496 23.1966C12.5297 22.8907 12.7728 22.6222 13.0645 22.4068C13.3563 22.1914 13.6907 22.0335 14.0481 21.9426C14.4054 21.8516 14.7784 21.8294 15.145 21.8773C15.5116 21.9251 15.8643 22.042 16.1823 22.2211C16.5003 22.4002 16.7771 22.6379 16.9962 22.9199L21.1466 28.1315L32.0038 15.0672C32.2229 14.7852 32.4997 14.5475 32.8177 14.3684C33.1357 14.1893 33.4884 14.0724 33.855 14.0246C34.2216 13.9767 34.5946 13.9989 34.9519 14.0899C35.3093 14.1808 35.6437 14.3387 35.9355 14.5541C36.2272 14.7695 36.4703 15.038 36.6504 15.3439C36.8304 15.6497 36.9438 15.9867 36.9838 16.3347C37.0238 16.6828 36.9896 17.0348 36.8832 17.3702C36.7768 17.7055 36.6004 18.0172 36.3644 18.2869L23.3268 33.9922C23.0683 34.3059 22.7375 34.5597 22.3597 34.7343C21.9819 34.9089 21.567 34.9998 21.1466 35Z" fill="#E0E0E0"/>
</svg>
