<svg width="502" height="328" viewBox="0 0 502 328" fill="none" xmlns="http://www.w3.org/2000/svg">
<g clip-path="url(#clip0_108_1587)">
<path d="M0.117911 327.577C34.64 271.936 76.2231 220.85 109.945 164.707L110.206 164.291C109.858 164.101 109.528 163.876 109.215 163.616C108.067 162.629 107.423 161.209 106.797 159.841C100.032 145.121 91.0232 131.423 80.2057 119.335C51.3706 187.912 24.6573 257.372 0.117911 327.577Z" fill="#F9DE7F"/>
<path d="M139.928 225.717C136.294 220.262 132.659 214.789 129.024 209.334C89.041 251.745 46.6927 291.367 0.970454 327.595C57.6493 307.836 114.554 288.059 173.39 275.989C162.224 259.226 151.076 242.48 139.928 225.717Z" fill="#F9DE7F"/>
<path d="M174.416 182.579C157.754 190.615 143.024 199.464 129.041 209.335C132.676 214.79 136.311 220.262 139.946 225.717C151.511 211.413 163.059 197.126 174.607 182.822L174.416 182.597L174.416 182.579Z" fill="#FE9518"/>
<path d="M109.945 164.706C76.2233 220.849 34.6403 271.936 0.118193 327.577C0.0834103 327.698 0.0312358 327.819 -0.00354719 327.94C0.326891 327.836 0.657329 327.715 0.970376 327.594C46.6752 291.366 89.0409 251.726 129.024 209.333C143.007 199.462 157.737 190.613 174.398 182.578C154.381 176.136 134.12 170.438 113.685 165.486C112.485 165.191 111.267 164.897 110.206 164.308L109.945 164.724L109.945 164.706Z" fill="#F9C048"/>
<path d="M500.225 52.9825C500.198 52.5364 500.036 52.0985 499.745 51.7581C476.527 22.4673 440.337 3.06887 402.987 -0.134634C365.636 -3.33814 326.676 9.63629 298.706 34.5176C294.23 38.5112 290.389 42.5999 287.181 46.7391C278.887 46.4449 269.846 47.8987 260.148 51.0949C216.151 65.5446 180.865 108.165 170.24 159.744C169.998 160.923 170.744 162.086 171.976 162.369C173.16 162.609 174.329 161.865 174.613 160.638C184.928 110.602 219.079 69.2604 261.577 55.3062C269.6 52.6613 277.118 51.3015 284.035 51.1433C278.4 59.6872 275.428 68.3801 275.416 76.9352C275.334 86.5247 280.168 96.3482 287.972 102.54C294.217 107.529 301.484 109.409 308.447 107.815C314.436 106.46 319.727 102.55 323.331 96.8191C327.387 90.3882 328.824 82.3274 327.174 75.2634C324.291 62.8114 313.299 52.3378 299.209 48.5048C297.059 47.9209 294.828 47.4764 292.56 47.1685C295.535 43.6259 298.714 40.4737 301.699 37.8262C328.727 13.7197 366.5 1.17685 402.629 4.27656C438.803 7.3735 473.785 26.1299 496.27 54.4807C497.047 55.418 498.408 55.6028 499.395 54.8253C499.994 54.3404 500.267 53.6518 500.223 52.9379L500.225 52.9825ZM289.305 51.2659C292.332 51.4822 295.241 51.9744 297.987 52.7455C310.565 56.1343 320.309 65.3413 322.826 76.2483C324.184 82.2107 322.984 89.0029 319.542 94.4554C316.552 99.2082 312.25 102.385 307.416 103.489C301.783 104.778 295.84 103.219 290.683 99.103C284.013 93.7819 279.743 85.0881 279.779 76.9346C279.82 67.3924 283.915 58.675 289.26 51.2687L289.305 51.2659Z" fill="#F9C048"/>
</g>
<defs>
<clipPath id="clip0_108_1587">
<rect width="328" height="502" fill="white" transform="matrix(-4.37114e-08 1 1 4.37114e-08 0 0)"/>
</clipPath>
</defs>
</svg>
