<svg width="1920" height="1330" viewBox="0 0 1920 1330" fill="none" xmlns="http://www.w3.org/2000/svg">
<path d="M323.76 1186.33H352.83M344.83 1167.61H373.9M348.41 1096.1L353.83 1101.52C356.82 1104.51 361.67 1104.51 364.67 1101.52C367.66 1098.53 367.66 1093.68 364.67 1090.68C361.68 1087.69 356.83 1087.69 353.83 1090.68L348.41 1096.1ZM348.41 1096.1L342.99 1101.52C340 1104.51 335.15 1104.51 332.15 1101.52C329.16 1098.53 329.16 1093.68 332.15 1090.68C335.14 1087.69 339.99 1087.69 342.99 1090.68L348.41 1096.1ZM309.95 1059.81L303.37 1053.23M386.88 1059.81L393.46 1053.23M307.74 1098.27H284.71M389.08 1098.27H412.11M348.41 1144.65V1097.23M348.41 1057.6V1034.57M444.17 1146.02H351.53C336.19 1146.02 323.76 1158.45 323.76 1173.79V1184.86C323.76 1198.71 334.98 1209.93 348.83 1209.93C362.68 1209.93 373.9 1198.7 373.9 1184.86V1152.79V1146.01C373.9 1137.25 376.71 1128.76 381.74 1121.58C386.37 1114.98 389.09 1106.95 389.09 1098.27C389.09 1074.78 369.18 1055.95 345.32 1057.71C325.05 1059.21 309.23 1075.12 307.84 1095.39C307.17 1105.11 309.92 1114.16 315.01 1121.46C317.9 1125.61 320.08 1130.19 321.42 1135C322.95 1140.54 318.69 1146 312.94 1146H245.22M78.25 901.35C58.28 886.06 45.41 861.97 45.41 834.88C45.41 792.43 77.03 757.35 118.01 751.92M150.05 915.93C161.07 913.09 171.22 908.06 179.99 901.32C199.94 886.03 212.8 861.96 212.8 834.88C212.8 792.43 181.18 757.35 140.2 751.92M86.55 877.07L102.39 830.92M78.25 901.34L51.66 980.17M132.84 842.94L86.54 980.17H118.01M171.76 876.98C182.6 866.09 189.3 851.09 189.3 834.51C189.3 805.05 168.14 780.56 140.19 775.35M118 775.35C90.05 780.56 68.89 805.06 68.89 834.51C68.89 851.14 75.63 866.19 86.53 877.09M140.18 775.35V739.84C140.18 733.71 135.21 728.75 129.09 728.75C122.97 728.75 118 733.72 118 739.84V775.34M118 998.36V1011.47C118 1017.6 122.97 1022.56 129.09 1022.56C135.21 1022.56 140.18 1017.59 140.18 1011.47V967.05C140.18 960.92 135.21 955.96 129.09 955.96C122.97 955.96 118 960.93 118 967.05V980.16M171.75 876.96L179.97 901.31L206.61 980.16M171.73 980.16L150.03 915.92M177.87 998.35L216.94 1114.02L245.19 1145.99L248.24 1103.44L212.75 998.35M212.76 998.36H255.36C260.38 998.36 264.46 994.29 264.46 989.26C264.46 984.23 260.39 980.16 255.36 980.16H206.62M171.74 980.16H154.33V998.35H177.89M51.67 980.16H2.85C-2.17 980.16 -6.25 984.23 -6.25 989.26C-6.25 994.29 -2.18 998.36 2.85 998.36H45.51L9.95 1103.45L13 1146L41.25 1114.03L80.39 998.36H118.01M117.88 819.84C126.92 819.84 134.25 827.17 134.25 836.21C134.25 845.25 126.92 852.58 117.88 852.58C108.84 852.58 101.51 845.25 101.51 836.21C101.51 827.17 108.84 819.84 117.88 819.84Z" stroke="#CD0C37" stroke-opacity="0.4" stroke-width="3" stroke-linecap="round" stroke-linejoin="round"/>
<path d="M310.77 919.59C316.27 919.59 320.73 915.13 320.73 909.63C320.73 904.13 316.27 899.67 310.77 899.67C309.82 899.67 308.9 899.81 308.03 900.06C305.48 900.78 302.77 899.62 301.54 897.28C299.87 894.12 296.55 891.95 292.72 891.95C290.22 891.95 287.94 892.88 286.19 894.4C283.47 896.75 279.48 896.88 276.61 894.7C274.94 893.44 272.85 892.67 270.58 892.67C267.25 892.67 264.3 894.31 262.5 896.83C259.4 901.13 253.7 902.68 248.84 900.52C247.6 899.98 246.24 899.66 244.8 899.66C239.3 899.66 234.84 904.12 234.84 909.62C234.84 915.12 239.3 919.58 244.8 919.58H310.76L310.77 919.59Z" stroke="#CD0C37" stroke-opacity="0.4" stroke-width="3" stroke-linecap="round" stroke-linejoin="round"/>
<path d="M41.67 718.39C47.17 718.39 51.63 713.93 51.63 708.43C51.63 702.93 47.17 698.47 41.67 698.47C40.72 698.47 39.8 698.61 38.93 698.86C36.38 699.58 33.67 698.42 32.44 696.08C30.77 692.92 27.45 690.75 23.63 690.75C21.13 690.75 18.85 691.68 17.1 693.2C14.38 695.55 10.39 695.68 7.52 693.5C5.85 692.24 3.76 691.47 1.49 691.47C-1.84 691.47 -4.79 693.11 -6.59 695.63C-9.69 699.93 -15.39 701.48 -20.25 699.32C-21.49 698.78 -22.85 698.46 -24.29 698.46C-29.79 698.46 -34.25 702.92 -34.25 708.42C-34.25 713.92 -29.79 718.38 -24.29 718.38H41.67V718.39Z" stroke="#CD0C37" stroke-opacity="0.4" stroke-width="3" stroke-linecap="round" stroke-linejoin="round"/>
<mask id="mask0_1013_6902" style="mask-type:luminance" maskUnits="userSpaceOnUse" x="147" y="698" width="78" height="80">
<path d="M224.493 698H147V778H224.493V698Z" fill="white"/>
</mask>
<g mask="url(#mask0_1013_6902)">
<path d="M152.316 753.195C152.316 753.195 166.907 756.171 174.227 749.846C177.705 748.043 179.299 747.622 181.507 747.582C184.151 747.533 184.459 747.088 187.67 747.751C190.768 748.504 190.129 748.876 191.584 749.846C192.798 750.655 192.943 751.472 191.657 753.761C185.712 759.107 184.41 768.457 184.41 768.457C176.257 770.6 173.346 765.828 165.217 766.395C158.423 766.872 155.317 756.527 152.324 753.203" fill="#EE342E"/>
<path d="M152.316 753.195C152.316 753.195 166.907 756.171 174.227 749.846C177.705 748.043 179.299 747.622 181.507 747.582C184.151 747.533 184.459 747.088 187.67 747.751C190.768 748.504 190.129 748.876 191.584 749.846C192.798 750.655 192.943 751.472 191.657 753.761C185.712 759.107 184.41 768.457 184.41 768.457C176.257 770.6 173.346 765.828 165.217 766.395C158.423 766.872 155.317 756.527 152.324 753.203L152.316 753.195Z" stroke="#D66577" stroke-width="1.73" stroke-linecap="round" stroke-linejoin="round"/>
<path d="M190.07 759.115C190.814 759.738 194.575 762.56 198.87 761.857C203.173 761.153 205.825 758.937 205.154 756.041C204.58 753.591 201.757 753.332 199.929 754.416C198.101 755.491 195.74 754.763 192.27 752.03L181.262 749.069" fill="#C2CBE7"/>
<path d="M190.07 759.115C190.814 759.738 194.575 762.56 198.87 761.857C203.173 761.153 205.825 758.937 205.154 756.041C204.58 753.591 201.757 753.332 199.929 754.416C198.101 755.491 195.74 754.763 192.27 752.03L181.262 749.069" stroke="#D66577" stroke-width="1.73" stroke-linecap="round" stroke-linejoin="round"/>
<path d="M192.958 756.397C193.023 764.267 191.09 767.438 190.33 768.376C190.33 768.376 191.422 774.207 189.23 776.197C187.038 778.187 182.468 777.467 181.603 774.215C180.737 770.964 180.219 768.602 179.03 767.761C177.833 766.92 172.625 763.175 174.444 757.853C176.264 752.531 178.707 750.072 178.707 750.072" fill="#C2CBE7"/>
<path d="M192.958 756.397C193.023 764.267 191.09 767.438 190.33 768.376C190.33 768.376 191.422 774.207 189.23 776.197C187.038 778.187 182.468 777.467 181.603 774.215C180.737 770.964 180.219 768.602 179.03 767.761C177.833 766.92 172.625 763.175 174.444 757.853C176.264 752.531 178.707 750.072 178.707 750.072" stroke="#D66577" stroke-width="1.73" stroke-linecap="round" stroke-linejoin="round"/>
<path d="M183.299 759.01C183.363 756.446 185.353 754.424 187.755 754.521C190.166 754.618 192.034 756.802 191.929 759.382C191.824 761.938 189.818 763.903 187.448 763.79C185.086 763.677 183.226 761.55 183.291 759.002" fill="white"/>
<path d="M183.299 759.01C183.363 756.446 185.353 754.424 187.755 754.521C190.166 754.618 192.034 756.802 191.929 759.382C191.824 761.938 189.818 763.903 187.448 763.79C185.086 763.677 183.226 761.55 183.291 759.002L183.299 759.01Z" stroke="#D66577" stroke-width="1.73" stroke-miterlimit="10"/>
<path d="M191.484 756.891C191.484 756.891 189.939 758.573 188.345 759.277C188.434 761.76 187.383 763.79 187.383 763.79" stroke="#D66577" stroke-width="1.73" stroke-miterlimit="10"/>
<path d="M188.338 759.277C186.308 757.619 184.254 756.705 184.254 756.705" stroke="#D66577" stroke-width="1.73" stroke-miterlimit="10"/>
<path d="M193.602 752.329C193.602 752.329 188.466 750.905 187.164 752.863C187.164 752.863 189.599 757.352 193.602 752.329Z" fill="#EE342E"/>
<path d="M193.602 752.329C193.602 752.329 188.466 750.905 187.164 752.863C187.164 752.863 189.599 757.352 193.602 752.329Z" stroke="#D66577" stroke-width="1.73" stroke-linecap="round" stroke-linejoin="round"/>
<path d="M180.727 752.071C180.727 752.071 185.879 750.866 187.157 752.872C187.157 752.872 184.682 757.255 180.727 752.071Z" fill="#EE342E"/>
<path d="M180.727 752.071C180.727 752.071 185.879 750.866 187.157 752.872C187.157 752.872 184.682 757.255 180.727 752.071Z" stroke="#D66577" stroke-width="1.73" stroke-linecap="round" stroke-linejoin="round"/>
<path d="M183.087 761.024C189.59 761.639 192.308 764.761 193.028 768.513C193.74 772.266 193.465 773.908 191.111 774.669C188.757 775.429 185.587 774.127 184.632 772.339C183.678 770.552 183.476 769.856 179.812 769.193C176.148 768.522 172.306 764.995 172.896 760.814C173.487 756.632 176.261 753.647 176.261 753.647" fill="#C2CBE7"/>
<path d="M183.087 761.024C189.59 761.639 192.308 764.761 193.028 768.513C193.74 772.266 193.465 773.908 191.111 774.669C188.757 775.429 185.587 774.127 184.632 772.339C183.678 770.552 183.476 769.856 179.812 769.193C176.148 768.522 172.306 764.995 172.896 760.814C173.487 756.632 176.261 753.647 176.261 753.647" stroke="#D66577" stroke-width="1.73" stroke-linecap="round" stroke-linejoin="round"/>
<path d="M179.765 757.166C174.896 760.822 171.386 763.539 167.552 761.776C163.727 760.021 165.457 757.069 167.633 756.05C169.817 755.031 177.315 750.962 178.827 749.49" fill="#C2CBE7"/>
<path d="M179.765 757.166C174.896 760.822 171.386 763.539 167.552 761.776C163.727 760.021 165.457 757.069 167.633 756.05C169.817 755.031 177.315 750.962 178.827 749.49" stroke="#D66577" stroke-width="1.73" stroke-linecap="round" stroke-linejoin="round"/>
<path d="M163.231 715.116C165.528 714.275 166.491 711.525 169.249 706.243C172.064 700.848 174.369 698.583 176.852 698.705C180.467 698.891 184.625 710.311 186.339 710.4C188.054 710.489 193.352 699.546 196.967 699.732C199.45 699.861 201.513 702.344 203.769 707.998C205.977 713.53 206.657 716.369 208.857 717.437C215.982 720.907 221.644 727.806 218.926 738.765C217.422 744.824 211.906 750.793 203.575 751.949C195.657 753.049 187.294 752.337 184.204 752.184C181.114 752.022 172.727 751.884 164.962 749.984C156.793 747.986 151.908 741.483 151.034 735.304C149.449 724.118 155.782 717.833 163.223 715.108" fill="#C2CBE7"/>
<path d="M163.231 715.116C165.528 714.275 166.491 711.525 169.249 706.243C172.064 700.848 174.369 698.583 176.852 698.705C180.467 698.891 184.625 710.311 186.339 710.4C188.054 710.489 193.352 699.546 196.967 699.732C199.45 699.861 201.513 702.344 203.769 707.998C205.977 713.53 206.657 716.369 208.857 717.437C215.982 720.907 221.644 727.806 218.926 738.765C217.422 744.824 211.906 750.793 203.575 751.949C195.657 753.049 187.294 752.337 184.204 752.184C181.114 752.022 172.727 751.884 164.962 749.984C156.793 747.986 151.908 741.483 151.034 735.304C149.449 724.118 155.782 717.833 163.223 715.108L163.231 715.116Z" stroke="#D66577" stroke-width="1.73" stroke-linecap="round" stroke-linejoin="round"/>
<path d="M191.913 727.305C191.913 727.305 191.977 727.24 191.977 727.2C191.977 727.175 191.977 727.143 191.945 727.119C190.942 726.391 191.395 724.806 191.411 724.741C191.629 723.997 192.139 723.414 192.899 723.059C193.967 722.557 195.439 722.573 196.644 723.091C199.216 724.126 198.642 728.162 198.149 729.513C197.534 731.171 196.215 731.988 194.323 731.891C194.193 731.891 194.056 731.875 193.918 731.859C192.05 731.648 191.071 730.783 190.926 729.198C190.942 728.033 191.411 727.596 191.913 727.297" fill="#231F20"/>
<path d="M194.3 726.634C192.561 726.545 192.699 723.844 194.438 723.933C196.176 724.022 196.039 726.723 194.3 726.634Z" fill="white"/>
<path d="M195.57 729.894C194.486 729.837 194.567 728.155 195.658 728.211C196.742 728.268 196.661 729.95 195.57 729.894Z" fill="white"/>
<path d="M193.142 730.054C192.463 730.021 192.519 728.962 193.199 729.002C193.878 729.034 193.822 730.094 193.142 730.054Z" fill="white"/>
<path d="M173.334 726.359C173.334 726.359 173.399 726.294 173.399 726.254C173.399 726.229 173.399 726.197 173.367 726.173C172.364 725.445 172.817 723.859 172.833 723.795C173.051 723.051 173.561 722.468 174.321 722.112C175.389 721.611 176.861 721.627 178.066 722.145C180.638 723.18 180.064 727.216 179.57 728.567C178.956 730.225 177.637 731.042 175.745 730.945C175.615 730.945 175.478 730.929 175.34 730.912C173.472 730.702 172.493 729.837 172.348 728.251C172.364 727.087 172.833 726.65 173.334 726.351" fill="#231F20"/>
<path d="M175.73 725.688C173.991 725.599 174.128 722.898 175.867 722.987C177.606 723.075 177.469 725.777 175.73 725.688Z" fill="white"/>
<path d="M176.999 728.946C175.915 728.89 175.996 727.207 177.088 727.264C178.172 727.321 178.091 729.003 176.999 728.946Z" fill="white"/>
<path d="M174.572 729.108C173.893 729.076 173.949 728.016 174.629 728.057C175.308 728.089 175.251 729.149 174.572 729.108Z" fill="white"/>
<path d="M179.938 732.756C179.938 732.756 180.132 734.123 182.421 734.236C184.766 734.374 185.203 732.546 185.284 730.937C185.203 732.546 185.437 734.398 187.783 734.503C190.096 734.625 190.444 733.282 190.444 733.282" stroke="#D66577" stroke-width="1.73" stroke-linecap="round" stroke-linejoin="round"/>
<path d="M164.381 719.192C174.887 718.44 181.795 722.856 183.251 723.439C184.011 723.746 184.221 723.859 185.588 723.932H185.653H185.717C187.076 724.005 187.303 723.908 188.087 723.681C189.592 723.253 196.911 719.556 207.289 721.376C207.289 721.376 210.111 721.74 209.521 724.353C208.817 727.693 203.519 731.826 198.634 733.606C196.345 734.439 193.984 735.506 189.899 730.564C189.899 730.564 188.168 728.656 187.44 726.545C187.44 726.545 186.615 726.108 185.612 726.059H185.548H185.483C184.48 726.011 183.615 726.359 183.615 726.359C182.668 728.381 180.759 730.103 180.759 730.103C176.19 734.6 173.949 733.306 171.757 732.239C167.074 729.966 162.229 725.315 161.865 721.926C161.542 719.265 164.389 719.192 164.389 719.192" fill="#D66577"/>
<path d="M205.502 722.338L201.911 726.164C201.83 726.253 201.879 726.398 202 726.415L203.537 726.633C203.626 726.649 203.69 726.738 203.658 726.827L202.695 729.593C202.639 729.747 202.841 729.86 202.946 729.739L206.513 725.67C206.594 725.581 206.537 725.444 206.424 725.428L205.146 725.25C205.057 725.242 205.001 725.153 205.025 725.064L205.761 722.484C205.801 722.338 205.615 722.225 205.51 722.338" fill="white"/>
<path d="M180.217 723.552L176.626 727.378C176.545 727.467 176.593 727.612 176.715 727.628L178.252 727.847C178.34 727.863 178.405 727.952 178.373 728.041L177.41 730.807C177.354 730.961 177.556 731.074 177.661 730.953L181.228 726.884C181.309 726.795 181.252 726.658 181.139 726.642L179.861 726.464C179.772 726.456 179.715 726.367 179.74 726.278L180.476 723.698C180.516 723.552 180.33 723.439 180.225 723.552" fill="white"/>
<path d="M223.692 724.069C220.27 724.336 216.865 724.797 213.484 725.452" stroke="#D66577" stroke-width="1.98" stroke-linecap="round" stroke-linejoin="round"/>
<path d="M222.625 734.268C219.641 733.864 216.397 733.274 213.445 732.667" stroke="#D66577" stroke-width="1.98" stroke-linecap="round" stroke-linejoin="round"/>
<path d="M147.801 720.196C151.174 720.811 154.522 721.62 157.814 722.615" stroke="#D66577" stroke-width="1.98" stroke-linecap="round" stroke-linejoin="round"/>
<path d="M147.824 730.451C150.833 730.354 154.117 730.095 157.118 729.796" stroke="#D66577" stroke-width="1.98" stroke-linecap="round" stroke-linejoin="round"/>
<path d="M163.887 735.465L169.023 735.732C170.132 735.789 171.07 734.94 171.126 733.84C171.183 732.732 170.334 731.793 169.234 731.729L164.098 731.462C162.99 731.405 162.051 732.254 161.995 733.354C161.938 734.462 162.788 735.401 163.887 735.457" fill="#F7B9D4"/>
<path d="M169.897 734.123L167.422 730.839" stroke="#F6ABCC" stroke-width="1.98" stroke-miterlimit="10" stroke-linecap="round"/>
<path d="M167.214 734.074L164.73 730.782" stroke="#F6ABCC" stroke-width="1.98" stroke-miterlimit="10" stroke-linecap="round"/>
<path d="M164.334 733.993L161.859 730.701" stroke="#F6ABCC" stroke-width="1.98" stroke-miterlimit="10" stroke-linecap="round"/>
<path d="M203.876 736.832L209.012 737.099C210.12 737.156 211.058 736.307 211.115 735.207C211.171 734.099 210.322 733.16 209.222 733.096L204.086 732.829C202.978 732.772 202.04 733.621 201.983 734.721C201.927 735.83 202.776 736.768 203.876 736.824" fill="#F7B9D4"/>
<path d="M209.885 735.49L207.41 732.206" stroke="#F6ABCC" stroke-width="1.98" stroke-miterlimit="10" stroke-linecap="round"/>
<path d="M207.19 735.433L204.715 732.149" stroke="#F6ABCC" stroke-width="1.98" stroke-miterlimit="10" stroke-linecap="round"/>
<path d="M204.323 735.352L201.84 732.068" stroke="#F6ABCC" stroke-width="1.98" stroke-miterlimit="10" stroke-linecap="round"/>
<path d="M200.957 755.67C202.033 755.767 202.987 756.382 202.632 757.522C202.276 758.671 201.337 759.002 199.688 758.493" fill="#C2CBE7"/>
<path d="M200.957 755.67C202.033 755.767 202.987 756.382 202.632 757.522C202.276 758.671 201.337 759.002 199.688 758.493" stroke="#D66577" stroke-width="1.73" stroke-linecap="round" stroke-linejoin="round"/>
</g>
<mask id="mask1_1013_6902" style="mask-type:luminance" maskUnits="userSpaceOnUse" x="243" y="860" width="52" height="46">
<path d="M294.118 860.45H243.211V905.45H294.118V860.45Z" fill="white"/>
</mask>
<g mask="url(#mask1_1013_6902)">
<path d="M271.359 896.833C271.359 896.833 267.989 891.595 263.841 891.174C259.683 890.743 258.85 890.835 258.85 890.835C258.85 890.835 254.985 887.794 252.366 889.626C247.632 892.941 248.731 899.791 252.147 901.641C255.562 903.49 259.17 902.886 260.617 902.877C262.064 902.868 267.769 903.289 267.769 903.289C267.769 903.289 273.255 902.886 271.359 896.833Z" fill="#C2CBE7"/>
<path d="M271.359 896.833C271.359 896.833 267.989 891.595 263.841 891.174C259.683 890.743 258.85 890.835 258.85 890.835C258.85 890.835 254.985 887.794 252.366 889.626C247.632 892.941 248.731 899.791 252.147 901.641C255.562 903.49 259.17 902.886 260.617 902.877C262.064 902.868 267.769 903.289 267.769 903.289C267.769 903.289 273.255 902.886 271.359 896.833Z" stroke="#D66577" stroke-width="1.22" stroke-linecap="round" stroke-linejoin="round"/>
<path d="M257.332 888.976C257.332 888.976 260.088 890.863 259.905 890.844C259.722 890.835 250.903 886.76 249.301 897.071C249.026 900.423 249.264 902.428 249.264 902.428C249.264 902.428 248.037 904.077 245.152 903.884C242.259 903.692 244.749 903.5 245.271 902.163C245.793 900.826 245.931 892.859 248.76 890.286C251.425 887.868 253.788 888.024 257.35 888.976" fill="#DD4239"/>
<path d="M257.332 888.976C257.332 888.976 260.088 890.863 259.905 890.844C259.722 890.835 250.903 886.76 249.301 897.071C249.026 900.423 249.264 902.428 249.264 902.428C249.264 902.428 248.037 904.077 245.152 903.884C242.259 903.692 244.749 903.5 245.271 902.163C245.793 900.826 245.931 892.859 248.76 890.286C251.425 887.868 253.788 888.024 257.35 888.976H257.332Z" stroke="#D66577" stroke-width="1.22" stroke-linecap="round" stroke-linejoin="round"/>
<path d="M263.477 901.641C263.477 901.641 262.186 900.606 261.609 899.498C259.823 899.681 258.312 899.031 258.312 899.031" fill="white"/>
<path d="M263.477 901.641C263.477 901.641 262.186 900.606 261.609 899.498C259.823 899.681 258.312 899.031 258.312 899.031" stroke="#D66577" stroke-width="1.22" stroke-miterlimit="10"/>
<path d="M261.609 899.489C262.708 897.941 263.258 896.421 263.258 896.421L261.609 899.489Z" fill="white"/>
<path d="M261.609 899.489C262.708 897.941 263.258 896.421 263.258 896.421" stroke="#D66577" stroke-width="1.22" stroke-miterlimit="10"/>
<path d="M281.618 871.943C281.618 871.943 281.05 863.189 279.567 861.815C276.664 859.123 270.189 863.875 265.4 866.458C265.4 866.458 264.328 866.98 262.836 866.971C256.865 866.925 252.241 871.165 250.794 876.275C248.266 885.176 254.283 889.901 257.085 891.934C261.627 895.231 272.616 900.927 279.109 901.339C283.001 901.586 288.623 900.322 291.856 893.189C293.339 889.928 292.543 885.606 290.821 881.531C290.51 880.798 290.18 880.395 290.235 879.635C290.4 877.135 290.885 870.881 290.107 868.582C289.676 867.309 288.88 866.311 285.885 866.943C284.008 867.337 281.535 868.701 281.535 868.701" fill="#C2CBE7"/>
<path d="M281.618 871.943C281.618 871.943 281.05 863.189 279.567 861.815C276.664 859.123 270.189 863.875 265.4 866.458C265.4 866.458 264.328 866.98 262.836 866.971C256.865 866.925 252.241 871.165 250.794 876.275C248.266 885.176 254.283 889.901 257.085 891.934C261.627 895.231 272.616 900.927 279.109 901.339C283.001 901.586 288.623 900.322 291.856 893.189C293.339 889.928 292.543 885.606 290.821 881.531C290.51 880.798 290.18 880.395 290.235 879.635C290.4 877.135 290.885 870.881 290.107 868.582C289.676 867.309 288.88 866.311 285.885 866.943C284.008 867.337 281.535 868.701 281.535 868.701" stroke="#D66577" stroke-width="1.22" stroke-linecap="round" stroke-linejoin="round"/>
<path d="M258.578 874.361C260.492 876.193 262.324 878.125 264.045 880.14" stroke="#D66577" stroke-width="1.22" stroke-linecap="round" stroke-linejoin="round"/>
<path d="M254.629 880.286C256.589 881.55 258.786 882.841 260.819 883.977" stroke="#D66577" stroke-width="1.22" stroke-linecap="round" stroke-linejoin="round"/>
<path d="M274.786 893.299C274.786 893.299 274.475 894.178 275.683 894.791C276.883 895.405 277.652 894.425 278.174 893.482C277.652 894.425 277.231 895.579 278.403 896.156C279.53 896.724 280.079 896.019 280.079 896.019" stroke="#D66577" stroke-width="1.06" stroke-linecap="round" stroke-linejoin="round"/>
<path d="M284.558 894.801C284.393 894.792 284.238 894.746 284.082 894.654C283.194 894.123 282.25 894.425 282.214 894.434C281.664 894.627 281.06 894.334 280.868 893.775C280.675 893.226 280.968 892.612 281.527 892.42C281.6 892.392 283.423 891.779 285.172 892.823C285.675 893.125 285.84 893.775 285.538 894.279C285.327 894.636 284.943 894.819 284.558 894.792" fill="#D66577"/>
<path d="M275.886 891.046C275.51 891.019 275.162 890.799 274.988 890.433C274.558 889.498 273.615 889.205 273.569 889.187C273.001 889.031 272.68 888.445 272.836 887.887C272.992 887.319 273.578 886.989 274.146 887.145C274.228 887.163 276.069 887.694 276.92 889.544C277.168 890.075 276.93 890.707 276.398 890.954C276.234 891.028 276.06 891.055 275.886 891.046Z" fill="#D66577"/>
<path d="M274.914 888.39C274.868 888.518 274.566 888.527 274.236 888.408C273.916 888.289 273.687 888.088 273.732 887.96C273.778 887.831 274.08 887.822 274.401 887.941C274.721 888.06 274.95 888.262 274.905 888.39" fill="white"/>
<path d="M275.327 889.525C275.281 889.589 275.107 889.543 274.952 889.424C274.796 889.305 274.704 889.159 274.75 889.094C274.796 889.03 274.961 889.076 275.126 889.195C275.281 889.314 275.373 889.461 275.327 889.525Z" fill="white"/>
<path d="M276.112 890.065C276.066 890.129 275.892 890.083 275.737 889.964C275.581 889.845 275.489 889.699 275.535 889.634C275.581 889.57 275.746 889.616 275.911 889.735C276.066 889.854 276.158 890.001 276.112 890.065Z" fill="white"/>
<path d="M283.065 893.023C283.093 893.161 282.845 893.326 282.507 893.399C282.168 893.472 281.875 893.426 281.838 893.289C281.811 893.152 282.058 892.987 282.397 892.914C282.735 892.84 283.028 892.886 283.065 893.023Z" fill="white"/>
<path d="M284.027 893.775C284.027 893.858 283.853 893.903 283.661 893.894C283.459 893.876 283.304 893.803 283.313 893.72C283.313 893.638 283.487 893.592 283.679 893.61C283.881 893.629 284.036 893.702 284.027 893.784" fill="white"/>
<path d="M284.976 893.802C284.976 893.884 284.802 893.93 284.61 893.921C284.409 893.902 284.253 893.829 284.262 893.747C284.262 893.664 284.436 893.619 284.628 893.637C284.83 893.655 284.986 893.728 284.976 893.811" fill="white"/>
<path d="M283.979 888.381C284.354 888.876 284.473 889.453 284.473 889.453C283.722 890.698 283.466 892.291 283.466 892.291C282.688 896.11 284.144 896.742 285.362 897.227C287.981 898.271 291.579 898.812 293.292 897.795C294.638 897.017 293.924 895.799 293.924 895.799C291.369 890.799 286.937 889.05 286.149 888.537C285.728 888.262 285.59 888.198 285.087 887.52L285.059 887.484C284.547 886.788 284.519 886.632 284.363 886.128C284.061 885.139 283.457 879.453 278.155 873.555C278.155 873.555 276.671 871.751 275.307 873.308C273.539 875.249 274.061 881.504 274.565 884.187C274.858 885.78 275.453 887.603 279.895 887.85C279.895 887.85 281.561 888.052 283.036 887.585C283.036 887.585 283.567 887.85 283.951 888.354L283.979 888.39V888.381Z" fill="#D66577"/>
<path d="M283.058 884.571L279.12 883.994C279.029 883.985 278.964 884.067 279.01 884.15L279.56 885.175C279.596 885.239 279.56 885.313 279.496 885.331L277.417 885.899C277.307 885.935 277.316 886.1 277.435 886.118L281.492 886.631C281.584 886.64 281.648 886.549 281.602 886.466L281.116 885.587C281.08 885.523 281.116 885.45 281.171 885.432L283.085 884.791C283.195 884.754 283.177 884.589 283.058 884.571Z" fill="white"/>
<path d="M293.156 895.881L290.024 895.249C289.951 895.24 289.887 895.304 289.915 895.368L290.208 896.192C290.226 896.247 290.189 896.302 290.134 896.311L288.339 896.668C288.239 896.687 288.23 896.824 288.321 896.842L291.563 897.419C291.636 897.428 291.7 897.364 291.673 897.3L291.416 896.595C291.398 896.549 291.435 896.485 291.49 896.476L293.147 896.055C293.239 896.027 293.248 895.899 293.147 895.881" fill="white"/>
<path d="M273.109 899.846C273.054 899.746 272.999 899.654 272.944 899.563C272.056 898.18 270.646 897.511 269.391 896.953C267.99 896.33 266.488 896.165 265.051 896.431C263.604 896.687 260.573 897.557 261.14 900.341C261.296 901.128 261.726 901.788 262.221 902.282C264.263 904.315 267.331 904.05 269.648 903.592C270.591 903.409 271.745 903.335 272.578 902.722C273.073 902.365 273.475 901.678 273.439 900.918C273.42 900.533 273.292 900.167 273.118 899.837" fill="#C2CBE7"/>
<path d="M273.109 899.846C273.054 899.746 272.999 899.654 272.944 899.563C272.056 898.18 270.646 897.511 269.391 896.953C267.99 896.33 266.488 896.165 265.051 896.431C263.604 896.687 260.573 897.557 261.14 900.341C261.296 901.128 261.726 901.788 262.221 902.282C264.263 904.315 267.331 904.05 269.648 903.592C270.591 903.409 271.745 903.335 272.578 902.722C273.073 902.365 273.475 901.678 273.439 900.918C273.421 900.533 273.292 900.167 273.118 899.837L273.109 899.846Z" stroke="#D66577" stroke-width="1.22" stroke-linecap="round" stroke-linejoin="round"/>
<path d="M270.474 900.744C270.511 900.661 270.557 900.579 270.603 900.497C271.299 899.288 272.388 898.702 273.359 898.207C274.44 897.658 275.603 897.511 276.711 897.722C277.828 897.942 280.154 898.674 279.696 901.101C279.568 901.788 279.238 902.365 278.844 902.795C277.26 904.581 274.897 904.361 273.112 903.976C272.388 903.821 271.5 903.766 270.859 903.244C270.474 902.933 270.181 902.346 270.209 901.687C270.227 901.348 270.328 901.037 270.465 900.744" fill="#C2CBE7"/>
<path d="M270.474 900.744C270.511 900.661 270.557 900.579 270.603 900.497C271.299 899.288 272.388 898.702 273.359 898.207C274.44 897.658 275.603 897.511 276.711 897.722C277.828 897.942 280.154 898.674 279.696 901.101C279.568 901.788 279.238 902.365 278.844 902.795C277.26 904.581 274.897 904.361 273.112 903.976C272.388 903.821 271.5 903.766 270.859 903.244C270.474 902.933 270.181 902.346 270.209 901.687C270.227 901.348 270.328 901.037 270.465 900.744H270.474Z" stroke="#D66577" stroke-width="1.22" stroke-linecap="round" stroke-linejoin="round"/>
<path d="M256.589 898.143C257.028 898.307 257.44 898.555 257.816 898.903C258.548 899.59 258.96 900.633 258.759 901.613C258.622 902.318 258.182 902.941 257.633 903.408C255.911 904.846 253.439 904.901 251.314 904.883C250.627 904.883 249.931 904.837 249.272 904.608C247.807 904.113 247.221 902.758 247.019 901.32C246.891 900.386 247.156 899.388 247.935 898.811C248.439 898.445 249.052 898.262 249.675 898.17C250.288 898.088 250.92 898.088 251.543 898.051C253.173 897.95 255.041 897.547 256.589 898.133" fill="#C2CBE7"/>
<path d="M256.589 898.143C257.028 898.307 257.44 898.555 257.816 898.903C258.548 899.59 258.96 900.633 258.759 901.613C258.622 902.318 258.182 902.941 257.633 903.408C255.911 904.846 253.439 904.901 251.314 904.883C250.627 904.883 249.931 904.837 249.272 904.608C247.807 904.113 247.221 902.758 247.019 901.32C246.891 900.386 247.156 899.388 247.935 898.811C248.439 898.445 249.052 898.262 249.675 898.17C250.288 898.088 250.92 898.088 251.543 898.051C253.173 897.95 255.041 897.547 256.589 898.133V898.143Z" stroke="#D66577" stroke-width="1.22" stroke-linecap="round" stroke-linejoin="round"/>
<path d="M254.201 893.372C255.419 893.263 256.637 893.272 257.727 893.913C259.311 894.847 260.227 896.816 259.806 898.656C259.137 901.568 255.941 902.292 253.405 902.383C251.958 902.438 249.998 902.017 249.165 900.671C248.762 900.03 248.606 899.242 248.67 898.482C248.725 897.786 248.972 897.1 249.449 896.605C250.044 896.001 250.721 895.991 251.491 896.037" fill="#C2CBE7"/>
<path d="M254.201 893.372C255.419 893.263 256.637 893.272 257.727 893.913C259.311 894.847 260.227 896.816 259.806 898.656C259.137 901.568 255.941 902.292 253.405 902.383C251.958 902.438 249.998 902.017 249.165 900.671C248.762 900.03 248.606 899.242 248.67 898.482C248.725 897.786 248.972 897.1 249.449 896.605C250.044 896.001 250.721 895.991 251.491 896.037" stroke="#D66577" stroke-width="1.22" stroke-linecap="round" stroke-linejoin="round"/>
</g>
<path d="M1831.75 1077.87C1831.75 1077.23 1831.78 1076.6 1831.85 1075.98C1831.91 1075.36 1832.01 1074.75 1832.13 1074.15C1832.25 1073.55 1832.41 1072.96 1832.58 1072.38C1832.76 1071.8 1832.97 1071.24 1833.2 1070.68C1833.43 1070.13 1833.69 1069.59 1833.98 1069.07C1834.26 1068.55 1834.57 1068.04 1834.9 1067.55C1835.23 1067.06 1835.59 1066.59 1835.96 1066.13C1836.34 1065.67 1836.73 1065.24 1837.15 1064.82C1837.57 1064.4 1838 1064 1838.46 1063.63C1838.92 1063.25 1839.39 1062.9 1839.88 1062.57C1840.37 1062.24 1840.88 1061.93 1841.4 1061.65C1841.92 1061.37 1842.46 1061.11 1843.01 1060.87C1843.56 1060.64 1844.13 1060.43 1844.71 1060.25C1845.29 1060.07 1845.88 1059.92 1846.48 1059.8C1847.08 1059.68 1847.69 1059.58 1848.31 1059.52C1848.93 1059.46 1849.56 1059.42 1850.2 1059.42C1850.84 1059.42 1851.47 1059.45 1852.09 1059.52C1852.71 1059.58 1853.32 1059.68 1853.92 1059.8C1854.52 1059.92 1855.11 1060.07 1855.69 1060.25C1856.27 1060.43 1856.83 1060.64 1857.39 1060.87C1857.94 1061.1 1858.48 1061.36 1859 1061.65C1859.52 1061.93 1860.03 1062.24 1860.52 1062.57C1861.01 1062.9 1861.49 1063.26 1861.94 1063.63C1862.4 1064.01 1862.83 1064.4 1863.25 1064.82C1863.67 1065.24 1864.06 1065.68 1864.44 1066.13C1864.82 1066.58 1865.17 1067.06 1865.5 1067.55C1865.83 1068.04 1866.14 1068.55 1866.42 1069.07C1866.7 1069.59 1866.96 1070.13 1867.2 1070.68C1867.43 1071.23 1867.64 1071.8 1867.82 1072.38C1868 1072.96 1868.15 1073.55 1868.28 1074.15C1868.4 1074.75 1868.5 1075.36 1868.56 1075.98C1868.62 1076.6 1868.66 1077.23 1868.66 1077.87M1837.75 1235.18H1859.89M1862.32 1116.72V1173.69M1839.57 1114.36V1173.69M1879.29 1208.46L1862.41 1196.01L1848.82 1208.46L1835.23 1196.01L1818.34 1208.46M1792.69 1173.69H1865.15C1873.8 1173.69 1880.82 1180.7 1880.82 1189.35V1199.93C1880.82 1205.46 1878.97 1210.82 1875.56 1215.17L1848.83 1249.3L1822.1 1215.17C1818.69 1210.82 1816.84 1205.45 1816.84 1199.93V1114.35H1885.08V1156.47C1885.08 1165.97 1892.78 1173.68 1902.29 1173.68H1916.23M1792.71 1173.68H1720.46C1709.8 1173.68 1700.28 1167.01 1696.64 1157L1651.11 1031.9C1686.73 1018.9 1705.1 979.5 1692.12 943.85C1681.23 913.94 1651.73 896.19 1621.46 898.91C1610.68 899.88 1600.64 893.26 1596.94 883.08C1591.54 868.25 1601.72 852.38 1617.44 851C1668.81 846.5 1718.81 876.67 1737.28 927.42C1757.06 981.77 1733.98 1041.24 1685.3 1068.86L1702.89 1117.19C1777.96 1079.55 1814.57 990.82 1785.15 910C1753.44 822.99 1657.25 778.11 1570.23 809.76L1551.65 758.75L1503.75 776.19L1636.74 1141.58C1642.42 1157.19 1630.86 1173.69 1614.25 1173.69H1550.15M1692.04 1144.58L1678.42 1149.54M1680.74 1113.53L1673.08 1116.32M1669.44 1082.48L1655.82 1087.44M1658.14 1051.43L1650.48 1054.22M1563.03 790.14L1549.41 795.1M1598.41 802.21L1602.31 824.35M1627.53 799.66V810.9M1656.65 802.21L1652.75 824.35M1684.89 809.78L1681.05 820.34M1711.39 822.13L1700.15 841.6M1735.33 838.9L1728.11 847.51M1756.01 859.57L1738.79 874.02M1772.78 883.52L1763.05 889.14M1735.35 1095.84L1728.13 1087.23M1756.03 1075.17L1738.81 1060.72M1772.8 1051.22L1763.07 1045.6M1785.16 1024.73L1764.04 1017.04M1785.16 910.01L1764.04 917.7M1792.73 996.49L1781.66 994.54M1795.28 967.37H1772.8M1792.73 938.25L1781.66 940.2M1878.39 1096.33C1885.55 1096.33 1891.35 1090.53 1891.35 1083.37C1891.35 1076.21 1885.55 1070.41 1878.39 1070.41C1874.38 1070.41 1870.8 1072.23 1868.43 1075.09C1867.08 1066.23 1859.45 1059.43 1850.21 1059.43C1840.97 1059.43 1833.94 1065.69 1832.16 1074.03C1829.83 1071.8 1826.68 1070.42 1823.2 1070.42C1816.04 1070.42 1810.24 1076.22 1810.24 1083.38C1810.24 1090.54 1816.04 1096.34 1823.2 1096.34H1878.39V1096.33ZM1885.06 1096.33H1816.82V1114.36H1885.06V1096.33ZM1617.62 939.98C1632.71 934.52 1649.4 942.31 1654.9 957.4C1660.4 972.5 1652.62 989.2 1637.54 994.72L1617.62 939.99V939.98ZM1637.58 994.72L1617.66 939.99C1632.75 934.52 1649.44 942.31 1654.94 957.41C1660.44 972.51 1652.66 989.2 1637.58 994.72Z" stroke="#ACB6CA" stroke-width="3" stroke-linecap="round" stroke-linejoin="round"/>
<path d="M1806.67 809.39C1812.17 809.39 1816.63 804.93 1816.63 799.43C1816.63 793.93 1812.17 789.47 1806.67 789.47C1805.72 789.47 1804.8 789.61 1803.93 789.86C1801.38 790.58 1798.67 789.42 1797.44 787.08C1795.77 783.92 1792.45 781.75 1788.63 781.75C1786.13 781.75 1783.85 782.68 1782.1 784.2C1779.38 786.55 1775.39 786.68 1772.52 784.5C1770.85 783.24 1768.76 782.47 1766.49 782.47C1763.16 782.47 1760.21 784.11 1758.41 786.63C1755.31 790.93 1749.61 792.48 1744.75 790.32C1743.51 789.78 1742.15 789.46 1740.71 789.46C1735.21 789.46 1730.75 793.92 1730.75 799.42C1730.75 804.92 1735.21 809.38 1740.71 809.38H1806.67V809.39Z" stroke="#244EA2" stroke-opacity="0.4" stroke-width="3" stroke-linecap="round" stroke-linejoin="round"/>
<mask id="mask2_1013_6902" style="mask-type:luminance" maskUnits="userSpaceOnUse" x="1573" y="741" width="63" height="60">
<path d="M1635.34 741H1573.1V801H1635.34V741Z" fill="white"/>
</mask>
<g mask="url(#mask2_1013_6902)">
<path d="M1634.79 790.088C1634.79 790.088 1621.05 788.996 1616.17 781.497C1613.54 779.002 1612.24 778.221 1610.29 777.621C1607.95 776.898 1607.79 776.428 1604.77 776.189C1601.82 776.066 1602.3 776.558 1600.76 777.05C1599.47 777.455 1599.13 778.142 1599.69 780.513C1603.6 786.79 1602.37 795.432 1602.37 795.432C1609.06 799.424 1612.88 795.931 1619.95 798.513C1625.86 800.675 1631.27 792.279 1634.79 790.095" fill="#EE342E"/>
<path d="M1634.79 790.088C1634.79 790.088 1621.05 788.996 1616.17 781.497C1613.54 779.002 1612.24 778.221 1610.29 777.621C1607.95 776.898 1607.79 776.428 1604.77 776.189C1601.82 776.066 1602.3 776.558 1600.76 777.05C1599.47 777.455 1599.13 778.142 1599.69 780.513C1603.6 786.79 1602.37 795.432 1602.37 795.432C1609.06 799.424 1612.88 795.931 1619.95 798.513C1625.86 800.675 1631.27 792.279 1634.79 790.095V790.088Z" stroke="#6680B5" stroke-width="1.55" stroke-linecap="round" stroke-linejoin="round"/>
<path d="M1609.44 785.502C1608.37 783.738 1614.63 781.019 1616.8 780.289C1619.47 779.392 1622.65 779.536 1623.84 779.768C1627.15 780.411 1627.16 783.564 1624.84 784.1C1623.84 784.331 1620.75 784.1 1617.41 785.416C1612.12 787.498 1610.32 786.956 1609.44 785.502Z" fill="#C2CBE7"/>
<path d="M1609.44 785.502C1608.37 783.738 1614.63 781.019 1616.8 780.289C1619.47 779.392 1622.65 779.536 1623.84 779.768C1627.15 780.411 1627.16 783.564 1624.84 784.1C1623.84 784.331 1620.75 784.1 1617.41 785.416C1612.12 787.498 1610.32 786.956 1609.44 785.502Z" stroke="#6680B5" stroke-width="1.55" stroke-linecap="round" stroke-linejoin="round"/>
<path d="M1617.89 788.996C1619.13 790.587 1622.07 791.006 1622.15 789.928C1622.16 789.697 1621.52 789.625 1621.19 788.996C1620.72 788.113 1621 787.296 1621.5 786.689C1622.16 785.886 1623.37 785.452 1624.51 785.857C1625.49 786.211 1626.31 786.812 1626.77 788.121C1627.75 790.926 1625.51 794.166 1621.1 793.768C1620.17 793.682 1618.44 793.429 1616.71 791.65" fill="#C2CBE7"/>
<path d="M1617.89 788.996C1619.13 790.587 1622.07 791.006 1622.15 789.928C1622.16 789.697 1621.52 789.625 1621.19 788.996C1620.72 788.113 1621 787.296 1621.5 786.689C1622.16 785.886 1623.37 785.452 1624.51 785.857C1625.49 786.211 1626.31 786.812 1626.77 788.121C1627.75 790.926 1625.51 794.166 1621.1 793.768C1620.17 793.682 1618.44 793.429 1616.71 791.65" stroke="#6680B5" stroke-width="1.55" stroke-linecap="round" stroke-linejoin="round"/>
<path d="M1609.83 794.427L1607.73 794.333C1604.19 795.642 1602.45 792.322 1601.4 789.466L1599.11 786.682C1598.05 783.825 1598.27 779.132 1601.81 777.823L1603.29 777.274C1606.84 775.965 1610.56 777.223 1611.62 780.087L1616.15 789.929C1617.21 792.785 1614.37 795.801 1609.84 794.427" fill="#C2CBE7"/>
<path d="M1600.52 784.88C1600.52 784.88 1604.91 782.884 1606.38 784.512C1606.38 784.512 1604.88 788.973 1600.52 784.88Z" fill="#EE342E"/>
<path d="M1600.52 784.88C1600.52 784.88 1604.91 782.884 1606.38 784.512C1606.38 784.512 1604.88 788.973 1600.52 784.88Z" stroke="#6680B5" stroke-width="1.55" stroke-linecap="round" stroke-linejoin="round"/>
<path d="M1612.05 782.92C1612.05 782.92 1607.24 782.494 1606.39 784.518C1606.39 784.518 1609.28 788.235 1612.05 782.92Z" fill="#EE342E"/>
<path d="M1612.05 782.92C1612.05 782.92 1607.24 782.494 1606.39 784.518C1606.39 784.518 1609.28 788.235 1612.05 782.92Z" stroke="#6680B5" stroke-width="1.55" stroke-linecap="round" stroke-linejoin="round"/>
<path d="M1618.54 753.821C1616.66 753.286 1615.73 751.16 1613.22 747.124C1610.66 743.003 1608.7 741.339 1606.73 741.585C1603.86 741.947 1601.24 751.275 1599.88 751.449C1598.52 751.622 1593.65 743.234 1590.79 743.595C1588.82 743.841 1587.33 745.946 1585.87 750.574C1584.45 755.108 1584.08 757.4 1582.39 758.384C1576.93 761.566 1572.83 767.387 1575.65 775.942C1577.2 780.672 1581.94 785.09 1588.64 785.517C1595 785.922 1601.6 784.859 1604.05 784.548C1606.5 784.237 1613.16 783.629 1619.22 781.655C1625.6 779.58 1629.1 774.12 1629.43 769.152C1630.03 760.163 1624.62 755.542 1618.54 753.821Z" fill="#C2CBE7"/>
<path d="M1618.54 753.821C1616.66 753.286 1615.73 751.16 1613.22 747.124C1610.66 743.003 1608.7 741.339 1606.73 741.585C1603.86 741.947 1601.24 751.275 1599.88 751.449C1598.52 751.622 1593.65 743.234 1590.79 743.595C1588.82 743.841 1587.33 745.946 1585.87 750.574C1584.45 755.108 1584.08 757.4 1582.39 758.384C1576.93 761.566 1572.83 767.387 1575.65 775.942C1577.2 780.672 1581.94 785.09 1588.64 785.517C1595 785.922 1601.6 784.859 1604.05 784.548C1606.5 784.237 1613.16 783.629 1619.22 781.655C1625.6 779.58 1629.1 774.12 1629.43 769.152C1630.03 760.163 1624.62 755.542 1618.54 753.821Z" stroke="#6680B5" stroke-width="1.55" stroke-linecap="round" stroke-linejoin="round"/>
<path d="M1595.44 774.554C1595.44 774.554 1595.38 774.511 1595.38 774.475C1595.38 774.453 1595.38 774.431 1595.41 774.41C1596.16 773.773 1595.71 772.544 1595.69 772.493C1595.47 771.915 1595.03 771.481 1594.41 771.242C1593.53 770.91 1592.36 771.004 1591.43 771.495C1589.45 772.472 1590.13 775.646 1590.62 776.688C1591.2 777.967 1592.3 778.539 1593.8 778.351C1593.91 778.336 1594.01 778.322 1594.12 778.3C1595.59 778.018 1596.32 777.273 1596.34 776.008C1596.26 775.082 1595.86 774.764 1595.44 774.554Z" fill="#261A16"/>
<path d="M1593.49 774.163C1594.87 773.99 1594.6 771.849 1593.23 772.023C1591.85 772.196 1592.12 774.337 1593.49 774.163Z" fill="white"/>
<path d="M1592.68 776.825C1593.54 776.716 1593.37 775.378 1592.51 775.487C1591.65 775.595 1591.82 776.933 1592.68 776.825Z" fill="white"/>
<path d="M1594.61 776.81C1595.15 776.745 1595.05 775.906 1594.51 775.978C1593.97 776.043 1594.07 776.882 1594.61 776.81Z" fill="white"/>
<path d="M1610.15 772.695C1610.15 772.695 1610.09 772.651 1610.09 772.615C1610.09 772.594 1610.09 772.572 1610.12 772.55C1610.88 771.914 1610.42 770.684 1610.4 770.634C1610.18 770.055 1609.74 769.621 1609.12 769.383C1608.24 769.05 1607.07 769.144 1606.14 769.636C1604.16 770.612 1604.84 773.787 1605.33 774.828C1605.91 776.108 1607.01 776.679 1608.51 776.491C1608.62 776.477 1608.72 776.462 1608.83 776.441C1610.3 776.159 1611.03 775.414 1611.05 774.148C1610.97 773.223 1610.57 772.905 1610.15 772.695Z" fill="#261A16"/>
<path d="M1608.21 772.305C1609.58 772.131 1609.31 769.991 1607.94 770.164C1606.56 770.338 1606.83 772.478 1608.21 772.305Z" fill="white"/>
<path d="M1607.39 774.965C1608.26 774.857 1608.09 773.519 1607.23 773.627C1606.37 773.736 1606.53 775.074 1607.39 774.965Z" fill="white"/>
<path d="M1609.33 774.951C1609.86 774.886 1609.76 774.047 1609.22 774.12C1608.69 774.185 1608.79 775.024 1609.33 774.951Z" fill="white"/>
<path d="M1605.2 777.519C1605.2 777.519 1605.21 779.269 1603.4 779.5C1601.54 779.746 1601.09 778.322 1600.93 777.049C1601.09 778.329 1601.01 779.811 1599.15 780.035C1597.31 780.267 1596.88 778.567 1596.88 778.567" stroke="#6680B5" stroke-width="1.55" stroke-linecap="round" stroke-linejoin="round"/>
<path d="M1581.86 773.548C1581.86 773.548 1580.49 771.061 1583.21 770.562C1583.21 770.562 1592.33 768.595 1598.37 771.372C1598.37 771.372 1599.15 771.509 1600.42 771.278C1601.68 771.046 1601.58 770.967 1601.98 770.743C1602.39 770.526 1608.04 766.382 1616.44 766.36C1616.44 766.36 1618.7 766.252 1618.61 768.378C1618.52 771.097 1615.56 775.349 1611.66 776.738C1611.66 776.738 1607.19 778.234 1604.14 775.928C1604.14 775.928 1602.37 774.749 1601.49 772.818C1601.49 772.818 1601.07 772.268 1600.22 772.406C1599.64 772.5 1599.2 772.645 1599.05 773.209C1598.91 773.78 1598.13 777.294 1594.64 778.705C1594.64 778.705 1588.41 781.46 1583.25 775.479C1583.25 775.479 1582.56 774.742 1581.88 773.534" fill="#6680B5"/>
<path d="M1594.11 771.727L1591.48 774.988C1591.42 775.06 1591.46 775.176 1591.57 775.183L1592.8 775.263C1592.87 775.263 1592.92 775.342 1592.9 775.415L1592.3 777.671C1592.27 777.794 1592.43 777.873 1592.51 777.772L1595.11 774.323C1595.17 774.25 1595.11 774.142 1595.02 774.135L1594 774.07C1593.92 774.07 1593.87 773.997 1593.89 773.925L1594.31 771.828C1594.34 771.705 1594.18 771.633 1594.1 771.727" fill="white"/>
<path d="M1613.4 768.457L1610.76 771.718C1610.71 771.791 1610.75 771.906 1610.85 771.914L1612.08 771.993C1612.15 771.993 1612.2 772.073 1612.19 772.145L1611.59 774.401C1611.55 774.524 1611.72 774.604 1611.8 774.503L1614.39 771.053C1614.45 770.981 1614.39 770.872 1614.31 770.865L1613.28 770.8C1613.21 770.8 1613.16 770.728 1613.17 770.655L1613.6 768.558C1613.63 768.435 1613.47 768.363 1613.39 768.457" fill="white"/>
<path d="M1573.75 770.634C1575.08 771.205 1576.37 771.928 1577.63 772.796" stroke="#6680B5" stroke-width="1.77" stroke-linecap="round" stroke-linejoin="round"/>
<path d="M1574.63 778.228C1575.86 778.488 1577.24 778.654 1578.51 778.755" stroke="#6680B5" stroke-width="1.77" stroke-linecap="round" stroke-linejoin="round"/>
<path d="M1630.23 763.692C1627.86 764.661 1625.54 765.782 1623.28 767.033" stroke="#6680B5" stroke-width="1.77" stroke-linecap="round" stroke-linejoin="round"/>
<path d="M1631.87 771.705C1629.65 772.067 1627.19 772.341 1624.95 772.544" stroke="#6680B5" stroke-width="1.77" stroke-linecap="round" stroke-linejoin="round"/>
<path d="M1614 784.953C1617.28 787.34 1618.89 789.335 1619.79 791.013C1621.62 794.405 1622.41 796.56 1622.72 798.816C1622.95 800.45 1622.35 800.364 1620 800.414C1618.83 800.436 1618.17 800.537 1617.19 800.089C1616.17 799.619 1615.83 794 1606.12 794.455" fill="#C2CBE7"/>
<path d="M1614 784.953C1617.28 787.34 1618.89 789.335 1619.79 791.013C1621.62 794.405 1622.41 796.56 1622.72 798.816C1622.95 800.45 1622.35 800.364 1620 800.414C1618.83 800.436 1618.17 800.537 1617.19 800.089C1616.17 799.619 1615.83 794 1606.12 794.455" stroke="#6680B5" stroke-width="1.55" stroke-linecap="round" stroke-linejoin="round"/>
<path d="M1602.09 789.66C1600.17 788.952 1595.83 788.865 1597.19 793.883C1597.8 796.118 1598.98 797.803 1600.44 799.242C1601.5 800.291 1603.55 800.283 1604.84 800.399C1606.12 800.515 1606.67 800.37 1607.1 799.698C1607.54 798.996 1604.28 794.679 1606.12 794.44" fill="#C2CBE7"/>
<path d="M1602.09 789.66C1600.17 788.952 1595.83 788.865 1597.19 793.883C1597.8 796.118 1598.98 797.803 1600.44 799.242C1601.5 800.291 1603.55 800.283 1604.84 800.399C1606.12 800.515 1606.67 800.37 1607.1 799.698C1607.54 798.996 1604.28 794.679 1606.12 794.44" stroke="#6680B5" stroke-width="1.55" stroke-linecap="round" stroke-linejoin="round"/>
<path d="M1610.08 789.082C1609.31 787.498 1607.19 786.485 1605.39 786.746C1603.65 786.999 1602.74 788.358 1603.32 789.855C1603.93 791.417 1605.94 792.611 1607.87 792.451C1609.88 792.285 1610.89 790.745 1610.08 789.089" fill="white"/>
<path d="M1610.08 789.082C1609.31 787.498 1607.19 786.485 1605.39 786.746C1603.65 786.999 1602.74 788.358 1603.32 789.855C1603.93 791.417 1605.94 792.611 1607.87 792.451C1609.88 792.285 1610.89 790.745 1610.08 789.089V789.082Z" stroke="#6680B5" stroke-width="1.55" stroke-miterlimit="10"/>
<path d="M1603.46 787.859C1603.41 788.749 1606.23 789.971 1606.23 789.971C1606.23 789.971 1607.04 791.244 1608.38 792.213" stroke="#6680B5" stroke-width="1.55" stroke-miterlimit="10"/>
<path d="M1606.22 789.972L1608.64 787.723" stroke="#6680B5" stroke-width="1.55" stroke-miterlimit="10"/>
<path d="M1600.43 788.221C1600.73 788.372 1600.94 788.683 1600.99 789.016L1600.43 788.221Z" fill="#C2CBE7"/>
<path d="M1600.43 788.221C1600.73 788.372 1600.94 788.683 1600.99 789.016" stroke="#6680B5" stroke-width="1.55" stroke-linecap="round" stroke-linejoin="round"/>
<path d="M1600.92 768.487C1601.44 768.349 1601.88 767.995 1602.14 767.525C1602.4 767.019 1602.43 766.426 1602.45 765.854" stroke="#6680B5" stroke-width="1.55" stroke-linecap="round" stroke-linejoin="round"/>
<path d="M1599.15 782.27C1600.51 781.743 1602.27 781.28 1603.19 781.403C1604.67 781.598 1605.12 782.755 1604.44 784.968C1604.15 785.901 1603.14 786.703 1601.98 787.137C1599.94 787.889 1599.09 788.157 1597.53 788.048C1596.74 787.998 1595.6 787.868 1595.22 786.776C1594.98 786.096 1595.24 785.098 1596.11 784.237C1597.03 783.312 1597.98 782.726 1599.15 782.27Z" fill="#C2CBE7"/>
<path d="M1599.15 782.27C1600.51 781.743 1602.27 781.28 1603.19 781.403C1604.67 781.598 1605.12 782.755 1604.44 784.968C1604.15 785.901 1603.14 786.703 1601.98 787.137C1599.94 787.889 1599.09 788.157 1597.53 788.048C1596.74 787.998 1595.6 787.868 1595.22 786.776C1594.98 786.096 1595.24 785.098 1596.11 784.237C1597.03 783.312 1597.98 782.726 1599.15 782.27Z" stroke="#6680B5" stroke-width="1.55" stroke-linecap="round" stroke-linejoin="round"/>
</g>
<mask id="mask3_1013_6902" style="mask-type:luminance" maskUnits="userSpaceOnUse" x="1693" y="1073" width="87" height="101">
<path d="M1779.91 1073.32H1693V1173.32H1779.91V1073.32Z" fill="white"/>
</mask>
<g mask="url(#mask3_1013_6902)">
<path d="M1776.63 1150.01C1776.63 1150.01 1757.99 1149.65 1750.78 1139.91C1747.02 1136.76 1745.2 1135.8 1742.51 1135.15C1739.3 1134.36 1739.05 1133.73 1734.94 1133.66H1734.94C1730.95 1133.73 1731.63 1134.36 1729.58 1135.15C1727.88 1135.8 1727.47 1136.76 1728.43 1139.91C1734.23 1148.07 1733.26 1159.85 1733.26 1159.85C1742.63 1164.7 1747.5 1159.67 1757.26 1162.59C1765.43 1165.03 1772.06 1153.25 1776.63 1150.01" fill="#EE342E"/>
<path d="M1776.63 1150.01C1776.63 1150.01 1757.99 1149.65 1750.78 1139.91C1747.02 1136.76 1745.2 1135.8 1742.51 1135.15C1739.3 1134.36 1739.05 1133.73 1734.94 1133.66H1734.94C1730.95 1133.73 1731.63 1134.36 1729.58 1135.15C1727.88 1135.8 1727.47 1136.76 1728.43 1139.91C1734.23 1148.07 1733.26 1159.85 1733.26 1159.85C1742.63 1164.7 1747.5 1159.67 1757.26 1162.59C1765.43 1165.03 1772.06 1153.25 1776.63 1150.01V1150.01Z" stroke="#6680B5" stroke-width="2.04" stroke-linecap="round" stroke-linejoin="round"/>
<path d="M1745.24 1167.2C1746.77 1168.74 1750.66 1168.64 1751.5 1168.4C1752.86 1168.01 1755.19 1166.74 1754.4 1164.35C1753.47 1161.53 1752.86 1159.63 1752.17 1156.71C1751.78 1155.09 1751.99 1154.62 1752.2 1154.19C1752.55 1153.49 1752.86 1153.18 1753.1 1152.67C1754.26 1150.22 1752.75 1148.13 1751.87 1146.9C1749.45 1143.47 1747.77 1140.39 1747 1136.25C1746.83 1135.36 1746.83 1134.19 1745.78 1132.99C1744.69 1131.77 1743.23 1131.28 1741.42 1130.87C1737.59 1129.99 1734.57 1130.02 1731.76 1131.08C1730.24 1131.66 1728.43 1132.57 1727.7 1134.02C1725.49 1138.42 1723.49 1143.83 1725.45 1146.28C1721.71 1146.39 1719.61 1146.71 1716.83 1148.51C1715.35 1149.47 1715.07 1151.96 1715.52 1154.02C1716.25 1157.38 1718.21 1158.23 1719.41 1158.09C1722.73 1157.7 1730.26 1157.01 1733.6 1157.18C1736.23 1157.32 1737.67 1157.61 1739.37 1159.28C1741.38 1161.25 1743.04 1164.98 1745.22 1167.18" fill="#C2CBE7"/>
<path d="M1745.24 1167.2C1746.77 1168.74 1750.66 1168.64 1751.5 1168.4C1752.86 1168.01 1755.19 1166.74 1754.4 1164.35C1753.47 1161.53 1752.86 1159.63 1752.17 1156.71C1751.78 1155.09 1751.99 1154.62 1752.2 1154.19C1752.55 1153.49 1752.86 1153.18 1753.1 1152.67C1754.26 1150.22 1752.75 1148.13 1751.87 1146.9C1749.45 1143.47 1747.77 1140.39 1747 1136.25C1746.83 1135.36 1746.83 1134.19 1745.78 1132.99C1744.69 1131.77 1743.23 1131.28 1741.42 1130.87C1737.59 1129.99 1734.57 1130.02 1731.76 1131.08C1730.24 1131.66 1728.43 1132.57 1727.7 1134.02C1725.49 1138.42 1723.49 1143.83 1725.45 1146.28C1721.71 1146.39 1719.61 1146.71 1716.83 1148.51C1715.35 1149.47 1715.07 1151.96 1715.52 1154.02C1716.25 1157.38 1718.21 1158.23 1719.41 1158.09C1722.73 1157.7 1730.26 1157.01 1733.6 1157.18C1736.23 1157.32 1737.67 1157.61 1739.37 1159.28C1741.38 1161.25 1743.04 1164.98 1745.22 1167.18L1745.24 1167.2Z" stroke="#6680B5" stroke-width="2.04" stroke-linecap="round" stroke-linejoin="round"/>
<path d="M1727.96 1134.59C1727.85 1136.15 1730.19 1143.75 1738.64 1138.78C1732.69 1136.2 1727.96 1134.59 1727.96 1134.59Z" fill="#EF4136"/>
<path d="M1727.96 1134.59C1727.85 1136.15 1730.19 1143.75 1738.64 1138.78C1732.69 1136.2 1727.96 1134.59 1727.96 1134.59Z" stroke="#6680B5" stroke-width="2.34" stroke-linecap="round" stroke-linejoin="round"/>
<path d="M1727.96 1134.59C1727.69 1134.66 1721.69 1139.3 1722.08 1131.13C1725.99 1132.84 1727.96 1134.59 1727.96 1134.59Z" fill="#EF4136"/>
<path d="M1727.96 1134.59C1727.69 1134.66 1721.69 1139.3 1722.08 1131.13C1725.99 1132.84 1727.96 1134.59 1727.96 1134.59Z" stroke="#6680B5" stroke-width="2.34" stroke-linecap="round" stroke-linejoin="round"/>
<path d="M1738.82 1148.14C1739.27 1145.1 1737.32 1142.3 1734.46 1141.93C1731.59 1141.56 1728.93 1143.77 1728.53 1146.84C1728.14 1149.89 1730.12 1152.61 1732.94 1152.96C1735.75 1153.31 1738.38 1151.16 1738.82 1148.14Z" fill="white"/>
<path d="M1738.82 1148.14C1739.27 1145.1 1737.32 1142.3 1734.46 1141.93C1731.59 1141.56 1728.93 1143.77 1728.53 1146.84C1728.14 1149.89 1730.12 1152.61 1732.94 1152.96C1735.75 1153.31 1738.38 1151.16 1738.82 1148.14Z" stroke="#6680B5" stroke-width="2.34" stroke-miterlimit="10"/>
<path d="M1729.57 1143.98C1729.57 1143.98 1731.06 1146.28 1732.81 1147.43C1732.2 1150.35 1733.03 1152.97 1733.03 1152.97" stroke="#6680B5" stroke-width="2.34" stroke-miterlimit="10"/>
<path d="M1732.81 1147.43C1735.54 1145.87 1738.16 1145.21 1738.16 1145.21" stroke="#6680B5" stroke-width="2.34" stroke-miterlimit="10"/>
<path d="M1735.88 1172.55L1734.02 1172.57C1734.02 1172.57 1732.11 1171.32 1731.02 1170.32C1733.2 1167.97 1736.36 1168.4 1736.36 1168.4L1735.89 1172.55H1735.88Z" fill="white"/>
<path d="M1724.7 1162.37C1724.06 1161.57 1723.35 1160.54 1723.6 1159.54C1723.79 1158.74 1724.51 1158.35 1725.18 1158.05C1728.16 1156.75 1731.25 1156 1734.31 1155.83C1734.57 1155.82 1734.83 1155.81 1735.05 1155.97C1735.31 1156.15 1735.46 1156.5 1735.58 1156.84C1736.48 1159.46 1736.45 1162.29 1736.41 1164.96C1736.37 1167.37 1736.34 1169.72 1736.3 1172.04C1736.3 1172.19 1736.28 1172.37 1736.19 1172.46C1736.11 1172.54 1735.99 1172.54 1735.89 1172.54C1734.55 1172.54 1733.88 1172.73 1732.82 1171.74C1731.91 1170.89 1731.07 1169.85 1730.2 1168.87C1728.39 1166.84 1726.55 1164.67 1724.71 1162.37" fill="white"/>
<path d="M1724.7 1162.37C1724.06 1161.57 1723.35 1160.54 1723.6 1159.54C1723.79 1158.74 1724.51 1158.35 1725.18 1158.05C1728.16 1156.75 1731.25 1156 1734.31 1155.83C1734.57 1155.82 1734.83 1155.81 1735.05 1155.97C1735.31 1156.15 1735.46 1156.5 1735.58 1156.84C1736.48 1159.46 1736.45 1162.29 1736.41 1164.96C1736.37 1167.37 1736.34 1169.72 1736.3 1172.04C1736.3 1172.19 1736.28 1172.37 1736.19 1172.46C1736.11 1172.54 1735.99 1172.54 1735.89 1172.54C1734.55 1172.54 1733.88 1172.73 1732.82 1171.74C1731.91 1170.89 1731.07 1169.85 1730.2 1168.87C1728.39 1166.84 1726.55 1164.67 1724.71 1162.37H1724.7Z" stroke="#C53346" stroke-width="2.04" stroke-linecap="round" stroke-linejoin="round"/>
<path d="M1700.65 1082.53C1700.56 1081.97 1700.49 1081.41 1700.6 1080.85C1700.82 1079.76 1701.73 1078.93 1702.7 1078.39C1704.73 1077.27 1707.18 1077.06 1709.46 1077.45C1710.28 1077.59 1711.12 1077.82 1711.73 1078.37C1712.13 1078.73 1712.4 1079.19 1712.66 1079.66C1714.01 1082.13 1714.82 1084.88 1715.03 1087.69C1715.06 1087.93 1715.06 1088.19 1714.96 1088.41C1714.85 1088.65 1714.61 1088.81 1714.39 1088.96C1711.47 1090.79 1708.08 1091.87 1704.64 1092.05C1701.94 1092.19 1700.94 1084.36 1700.65 1082.52" fill="#8A91C8"/>
<path d="M1700.65 1082.53C1700.56 1081.97 1700.49 1081.41 1700.6 1080.85C1700.82 1079.76 1701.73 1078.93 1702.7 1078.39C1704.73 1077.27 1707.18 1077.06 1709.46 1077.45C1710.28 1077.59 1711.12 1077.82 1711.73 1078.37C1712.13 1078.73 1712.4 1079.19 1712.66 1079.66C1714.01 1082.13 1714.82 1084.88 1715.03 1087.69C1715.06 1087.93 1715.06 1088.19 1714.96 1088.41C1714.85 1088.65 1714.61 1088.81 1714.39 1088.96C1711.47 1090.79 1708.08 1091.87 1704.64 1092.05C1701.94 1092.19 1700.94 1084.36 1700.65 1082.52V1082.53Z" stroke="#6573B7" stroke-width="2.04" stroke-miterlimit="10"/>
<path d="M1706.72 1089.5C1705.34 1089.88 1703.85 1090.33 1703.03 1091.5C1702.75 1091.9 1702.62 1092.56 1703.05 1092.79C1703.16 1092.85 1703.29 1092.87 1703.39 1092.94C1703.65 1093.13 1703.53 1093.56 1703.34 1093.83C1703.14 1094.1 1702.87 1094.36 1702.9 1094.69C1703.4 1094.78 1704.02 1094.98 1704.05 1095.5C1704.08 1096.01 1703.43 1096.41 1703.53 1096.9C1703.62 1097.33 1704.16 1097.45 1704.59 1097.55C1705.02 1097.64 1705.53 1097.98 1705.37 1098.39C1709.21 1097.35 1713.06 1096.3 1716.91 1095.25C1717.15 1095.18 1717.39 1095.12 1717.57 1094.94C1717.89 1094.61 1717.79 1094.01 1717.47 1093.67C1717.14 1093.34 1716.66 1093.21 1716.19 1093.13C1715.93 1092.41 1717.18 1091.66 1716.75 1091.02C1716.53 1090.69 1715.97 1090.68 1715.83 1090.31C1715.59 1089.7 1716.81 1089.18 1716.51 1088.6C1716.32 1088.24 1715.72 1088.32 1715.49 1087.99C1715.27 1087.67 1715.52 1087.26 1715.78 1086.97C1715.92 1086.8 1714.15 1087.07 1713.99 1087.14C1713.34 1087.4 1712.82 1087.8 1712.07 1088.02C1710.29 1088.52 1708.5 1089.01 1706.73 1089.5" fill="#BFC0C2"/>
<path d="M1706.72 1089.5C1705.34 1089.88 1703.85 1090.33 1703.03 1091.5C1702.75 1091.9 1702.62 1092.56 1703.05 1092.79C1703.16 1092.85 1703.29 1092.87 1703.39 1092.94C1703.65 1093.13 1703.53 1093.56 1703.34 1093.83C1703.14 1094.1 1702.87 1094.36 1702.9 1094.69C1703.4 1094.78 1704.02 1094.98 1704.05 1095.5C1704.08 1096.01 1703.43 1096.41 1703.53 1096.9C1703.62 1097.33 1704.16 1097.45 1704.59 1097.55C1705.02 1097.64 1705.53 1097.98 1705.37 1098.39C1709.21 1097.35 1713.06 1096.3 1716.91 1095.25C1717.15 1095.18 1717.39 1095.12 1717.57 1094.94C1717.89 1094.61 1717.79 1094.01 1717.47 1093.67C1717.14 1093.34 1716.66 1093.21 1716.19 1093.13C1715.93 1092.41 1717.18 1091.66 1716.75 1091.02C1716.53 1090.69 1715.97 1090.68 1715.83 1090.31C1715.59 1089.7 1716.81 1089.18 1716.51 1088.6C1716.32 1088.24 1715.72 1088.32 1715.49 1087.99C1715.27 1087.67 1715.52 1087.26 1715.78 1086.97C1715.92 1086.8 1714.15 1087.07 1713.99 1087.14C1713.34 1087.4 1712.82 1087.8 1712.07 1088.02C1710.29 1088.52 1708.5 1089.01 1706.73 1089.5H1706.72Z" stroke="#6F7173" stroke-width="2.04" stroke-linecap="round" stroke-linejoin="round"/>
<path d="M1735.88 1172.55L1734.02 1172.57C1734.02 1172.57 1732.11 1171.32 1731.02 1170.32C1733.2 1167.97 1736.36 1168.4 1736.36 1168.4L1735.89 1172.55H1735.88Z" fill="#6680B5"/>
<path d="M1724.7 1162.37C1724.06 1161.57 1723.35 1160.54 1723.6 1159.54C1723.79 1158.74 1724.51 1158.35 1725.18 1158.05C1728.16 1156.75 1731.25 1156 1734.31 1155.83C1734.57 1155.82 1734.83 1155.81 1735.05 1155.97C1735.31 1156.15 1735.46 1156.5 1735.58 1156.84C1736.48 1159.46 1736.45 1162.29 1736.41 1164.96C1736.37 1167.37 1736.34 1169.72 1736.3 1172.04C1736.3 1172.19 1736.28 1172.37 1736.19 1172.46C1736.11 1172.54 1735.99 1172.54 1735.89 1172.54C1734.55 1172.54 1733.88 1172.73 1732.82 1171.74C1731.91 1170.89 1731.07 1169.85 1730.2 1168.87C1728.39 1166.84 1726.55 1164.67 1724.71 1162.37H1724.7Z" stroke="#6680B5" stroke-width="2.04" stroke-linecap="round" stroke-linejoin="round"/>
<path d="M1715.76 1137.42C1717.17 1141.68 1718.75 1145.89 1719.89 1150.23C1721.02 1154.55 1721.93 1159.38 1725.44 1162.16C1725.02 1161.75 1725.85 1161.19 1726.42 1161.34C1726.98 1161.49 1727.69 1161.8 1728.05 1161.34C1728.41 1160.89 1728.13 1159.94 1728.7 1159.86C1729.1 1160.3 1729.5 1160.75 1729.9 1161.19C1730.76 1160.92 1731.36 1160.01 1731.26 1159.12C1731.64 1158.81 1732.21 1158.94 1732.66 1159.14C1733.11 1159.34 1733.57 1159.6 1734.06 1159.55C1734.55 1159.49 1734.98 1158.87 1734.66 1158.5C1735.29 1158.66 1735.9 1158.07 1736.02 1157.43C1736.14 1156.8 1735.91 1156.15 1735.7 1155.55C1728.51 1135.78 1725.34 1114.69 1717.54 1095.15C1717.37 1094.75 1708.19 1097.53 1707.35 1097.87C1704.59 1099.01 1706.32 1101.77 1706.89 1104.02C1708.69 1111.13 1710.33 1118.28 1712.22 1125.37C1713.3 1129.41 1714.45 1133.44 1715.77 1137.42" fill="#7781BF"/>
<path d="M1715.76 1137.42C1717.17 1141.68 1718.75 1145.89 1719.89 1150.23C1721.02 1154.55 1721.93 1159.38 1725.44 1162.16C1725.02 1161.75 1725.85 1161.19 1726.42 1161.34C1726.98 1161.49 1727.69 1161.8 1728.05 1161.34C1728.41 1160.89 1728.13 1159.94 1728.7 1159.86C1729.1 1160.3 1729.5 1160.75 1729.9 1161.19C1730.76 1160.92 1731.36 1160.01 1731.26 1159.12C1731.64 1158.81 1732.21 1158.94 1732.66 1159.14C1733.11 1159.34 1733.57 1159.6 1734.06 1159.55C1734.55 1159.49 1734.98 1158.87 1734.66 1158.5C1735.29 1158.66 1735.9 1158.07 1736.02 1157.43C1736.14 1156.8 1735.91 1156.15 1735.7 1155.55C1728.51 1135.78 1725.34 1114.69 1717.54 1095.15C1717.37 1094.75 1708.19 1097.53 1707.35 1097.87C1704.59 1099.01 1706.32 1101.77 1706.89 1104.02C1708.69 1111.13 1710.33 1118.28 1712.22 1125.37C1713.3 1129.41 1714.45 1133.44 1715.77 1137.42H1715.76Z" stroke="#6680B5" stroke-width="2.04" stroke-linecap="round" stroke-linejoin="round"/>
<path d="M1702.23 1080.51V1080.65" stroke="#F9E9F2" stroke-width="1.17" stroke-linecap="round" stroke-linejoin="round"/>
<path d="M1703.96 1079.18C1704.07 1079.28 1704.06 1079.48 1703.94 1079.57" stroke="#F9E9F2" stroke-width="1.17" stroke-linecap="round" stroke-linejoin="round"/>
<path d="M1706.31 1081.47C1706.33 1081.73 1706.48 1081.98 1706.69 1082.13" stroke="#F9E9F2" stroke-width="1.17" stroke-linecap="round" stroke-linejoin="round"/>
<path d="M1710.95 1080.95C1711.12 1080.95 1711.27 1081.06 1711.35 1081.21" stroke="#F9E9F2" stroke-width="1.17" stroke-linecap="round" stroke-linejoin="round"/>
<path d="M1708.18 1078.51V1078.78" stroke="#F9E9F2" stroke-width="1.17" stroke-linecap="round" stroke-linejoin="round"/>
<path d="M1706.31 1079.14C1706.22 1079.23 1706.14 1079.32 1706.05 1079.4" stroke="#F9E9F2" stroke-width="1.17" stroke-linecap="round" stroke-linejoin="round"/>
<path d="M1708.91 1080.65H1709.3" stroke="#F9E9F2" stroke-width="1.17" stroke-linecap="round" stroke-linejoin="round"/>
<path d="M1704.84 1092.58C1706.69 1091.76 1708.55 1090.94 1710.41 1090.12C1711.03 1089.84 1711.64 1089.58 1712.29 1089.42C1712.71 1089.33 1713.14 1089.28 1713.56 1089.24" stroke="#D4D4D5" stroke-width="1.17" stroke-linecap="round" stroke-linejoin="round"/>
<path d="M1705.91 1094.04C1708.61 1092.98 1711.33 1092 1714.07 1091.08" stroke="#D4D4D5" stroke-width="1.17" stroke-linecap="round" stroke-linejoin="round"/>
<path d="M1706.13 1095.19C1708.98 1095.09 1711.82 1094.48 1714.46 1093.4" stroke="#D4D4D5" stroke-width="1.17" stroke-linecap="round" stroke-linejoin="round"/>
<path d="M1709.2 1099.59C1709.92 1104.81 1711.75 1109.81 1712.47 1115.03C1712.73 1116.9 1712.99 1118.77 1713.38 1120.6C1713.87 1122.86 1714.55 1125.05 1715.24 1127.26C1718.29 1137.11 1721.35 1146.96 1724.41 1156.81" stroke="#6680B5" stroke-width="1.75" stroke-linecap="round" stroke-linejoin="round"/>
<path d="M1729.34 1157.7C1724.4 1148.18 1722.97 1137.31 1720.46 1126.88C1718.29 1117.86 1715.26 1109.07 1712.26 1100.3" stroke="#6680B5" stroke-width="1.75" stroke-linecap="round" stroke-linejoin="round"/>
<path d="M1731.89 1155.35C1729.52 1149.98 1729.21 1143.95 1727.4 1138.37C1727 1137.14 1726.52 1135.94 1726.09 1134.73C1721.85 1123.15 1720.23 1110.63 1714.9 1099.5" stroke="#6680B5" stroke-width="1.75" stroke-linecap="round" stroke-linejoin="round"/>
<path d="M1711.09 1136.73C1709.84 1133.6 1710.64 1129.97 1713.01 1128.47C1713.75 1127.99 1714.69 1127.72 1715.61 1128.05C1716.52 1128.36 1717.26 1129.21 1717.73 1130.13C1718.2 1131.06 1718.41 1132.07 1718.6 1133.06C1718.73 1133.79 1718.91 1134.89 1719.05 1135.59C1719.46 1137.58 1719.41 1138.53 1718.3 1139.5C1716.87 1140.75 1712.83 1141.11 1711.08 1136.73" fill="#C2CBE7"/>
<path d="M1711.09 1136.73C1709.84 1133.6 1710.64 1129.97 1713.01 1128.47C1713.75 1127.99 1714.69 1127.72 1715.61 1128.05C1716.52 1128.36 1717.26 1129.21 1717.73 1130.13C1718.2 1131.06 1718.41 1132.07 1718.6 1133.06C1718.73 1133.79 1718.91 1134.89 1719.05 1135.59C1719.46 1137.58 1719.41 1138.53 1718.3 1139.5C1716.87 1140.75 1712.83 1141.11 1711.08 1136.73H1711.09Z" stroke="#6680B5" stroke-width="2.04" stroke-linecap="round" stroke-linejoin="round"/>
<path d="M1735.2 1106.28C1726.6 1115.29 1724.12 1130.75 1733.37 1135.7C1743.79 1141.28 1755.01 1148.1 1765.85 1143.1C1777.15 1137.88 1772.07 1110.29 1764.49 1103.05C1756.9 1095.82 1743.79 1097.27 1735.2 1106.28Z" fill="#C2CBE7"/>
<path d="M1737.42 1137.59C1729.09 1132.95 1719.45 1130.82 1717.45 1120.31C1716.51 1115.29 1715.68 1108.42 1714.54 1099.68C1713.37 1090.64 1724.92 1088.44 1731.96 1087.27C1733.22 1087.06 1734.05 1087.16 1735.04 1086.44C1738.3 1084.05 1746.41 1078 1750.21 1077.08C1752.32 1076.57 1754.37 1076.8 1756.09 1081.42C1757.17 1084.33 1757.44 1088.87 1757.44 1088.87" fill="#C2CBE7"/>
<path d="M1737.42 1137.59C1729.09 1132.95 1719.45 1130.82 1717.45 1120.31C1716.51 1115.29 1715.68 1108.42 1714.54 1099.68C1713.37 1090.64 1724.92 1088.44 1731.96 1087.27C1733.22 1087.06 1734.05 1087.16 1735.04 1086.44C1738.3 1084.05 1746.41 1078 1750.21 1077.08C1752.32 1076.57 1754.37 1076.8 1756.09 1081.42C1757.17 1084.33 1757.44 1088.87 1757.44 1088.87" stroke="#6680B5" stroke-width="2.34" stroke-linecap="round" stroke-linejoin="round"/>
<path d="M1752.97 1091.55C1752.97 1091.55 1765.39 1084.77 1768.54 1085.6C1774.72 1087.23 1773.83 1100.16 1774.43 1108.92C1774.43 1108.92 1774.64 1110.83 1775.94 1112.85C1781.16 1120.94 1779.36 1130.91 1773.65 1137.28C1763.76 1148.32 1752.23 1144.33 1746.99 1142.26" fill="#C2CBE7"/>
<path d="M1752.97 1091.55C1752.97 1091.55 1765.39 1084.77 1768.54 1085.6C1774.72 1087.23 1773.83 1100.16 1774.43 1108.92C1774.43 1108.92 1774.64 1110.83 1775.94 1112.85C1781.16 1120.94 1779.36 1130.91 1773.65 1137.28C1763.76 1148.32 1752.23 1144.33 1746.99 1142.26" stroke="#6680B5" stroke-width="2.34" stroke-linecap="round" stroke-linejoin="round"/>
<path d="M1774.6 1129.88C1771.74 1127.88 1768.51 1126.05 1762.84 1124.77" stroke="#6680B5" stroke-width="2.34" stroke-linecap="round" stroke-linejoin="round"/>
<path d="M1767.78 1139.11C1766.7 1137.78 1761.76 1133.47 1758.79 1131.74" stroke="#6680B5" stroke-width="2.34" stroke-linecap="round" stroke-linejoin="round"/>
<path d="M1727.11 1102.89C1727.15 1102.89 1727.19 1102.88 1727.22 1102.85C1727.23 1102.84 1727.25 1102.8 1727.24 1102.77C1726.95 1101.66 1728.22 1100.65 1728.28 1100.61C1728.88 1100.14 1729.58 1099.96 1730.31 1100.09C1731.34 1100.28 1732.33 1101.08 1732.84 1102.12C1733.94 1104.23 1731.25 1107 1730.14 1107.78C1728.77 1108.74 1727.4 1108.72 1726.12 1107.72C1726.03 1107.64 1725.94 1107.57 1725.86 1107.49C1724.64 1106.38 1724.44 1105.19 1725.28 1103.86C1725.98 1102.95 1726.58 1102.86 1727.11 1102.89" fill="#231F20"/>
<path d="M1729.18 1103.63C1728.02 1102.65 1729.71 1100.61 1730.85 1101.61C1731.98 1102.58 1730.32 1104.59 1729.18 1103.63Z" fill="white"/>
<path d="M1728.17 1106.8C1727.44 1106.21 1728.49 1104.95 1729.2 1105.54C1729.92 1106.12 1728.88 1107.37 1728.17 1106.8Z" fill="white"/>
<path d="M1726.37 1105.69C1725.9 1105.32 1726.57 1104.52 1727.02 1104.9C1727.48 1105.28 1726.82 1106.07 1726.37 1105.69Z" fill="white"/>
<path d="M1740.38 1113.88C1740.43 1113.88 1740.48 1113.88 1740.51 1113.84C1740.52 1113.82 1740.54 1113.79 1740.54 1113.75C1740.13 1112.44 1741.57 1111.36 1741.63 1111.31C1742.31 1110.8 1743.14 1110.64 1744.02 1110.84C1745.25 1111.12 1746.45 1112.11 1747.11 1113.34C1748.52 1115.85 1745.51 1118.88 1744.25 1119.72C1742.69 1120.75 1741.06 1120.65 1739.5 1119.42C1739.39 1119.33 1739.28 1119.24 1739.17 1119.14C1737.65 1117.78 1737.34 1116.4 1738.26 1114.91C1739.04 1113.89 1739.74 1113.82 1740.38 1113.88Z" fill="#231F20"/>
<path d="M1742.88 1114.86C1741.45 1113.66 1743.33 1111.39 1744.75 1112.62C1746.13 1113.83 1744.29 1116.05 1742.88 1114.86Z" fill="white"/>
<path d="M1741.86 1118.46C1740.97 1117.74 1742.14 1116.34 1743.02 1117.07C1743.89 1117.8 1742.74 1119.17 1741.86 1118.46Z" fill="white"/>
<path d="M1739.66 1117.08C1739.09 1116.62 1739.83 1115.73 1740.4 1116.2C1740.96 1116.66 1740.23 1117.54 1739.66 1117.08Z" fill="white"/>
<path d="M1735.61 1116.51C1735.61 1116.51 1734.49 1117.95 1732.9 1116.71C1731.52 1115.64 1731.75 1114.35 1732.56 1113.24C1731.75 1114.35 1730.71 1114.7 1729.42 1113.87C1728.06 1112.8 1728.75 1111.69 1728.75 1111.69" stroke="#6680B5" stroke-width="2.34" stroke-linecap="round" stroke-linejoin="round"/>
<path d="M1728.88 1113.38C1728.88 1113.38 1730.7 1115.48 1732.26 1113.63C1732.26 1113.63 1730.99 1116.25 1733.91 1117.24L1733.9 1117.45C1733.9 1117.45 1733.53 1119.42 1732.07 1121.16C1731.85 1121.42 1731.61 1121.68 1731.33 1121.91C1729.06 1123.81 1726.71 1122.3 1726.06 1121.62C1724.64 1120.17 1724.65 1118.81 1725.59 1116.88C1725.94 1116.17 1726.86 1115.08 1727.3 1114.67C1728.58 1113.49 1728.7 1113.58 1728.88 1113.37" fill="#F05357"/>
<path d="M1728.88 1113.38C1728.88 1113.38 1730.7 1115.48 1732.26 1113.63C1732.26 1113.63 1730.99 1116.25 1733.91 1117.24L1733.9 1117.45C1733.9 1117.45 1733.53 1119.42 1732.07 1121.16C1731.85 1121.42 1731.61 1121.68 1731.33 1121.91C1729.06 1123.81 1726.71 1122.3 1726.06 1121.62C1724.64 1120.17 1724.65 1118.81 1725.59 1116.88C1725.94 1116.17 1726.86 1115.08 1727.3 1114.67C1728.58 1113.49 1728.7 1113.58 1728.88 1113.37V1113.38Z" stroke="#6680B5" stroke-width="2.34" stroke-linecap="round" stroke-linejoin="round"/>
<path d="M1736.77 1109.41C1736.04 1108.8 1735.17 1108.59 1735.17 1108.59C1733.21 1109.66 1730.76 1109.94 1730.76 1109.94C1724.86 1110.87 1724.02 1108.62 1723.37 1106.72C1722 1102.67 1721.46 1097.14 1723.16 1094.6C1724.46 1092.6 1726.26 1093.76 1726.26 1093.76C1733.69 1097.98 1735.99 1104.85 1736.73 1106.09C1737.11 1106.75 1737.2 1106.96 1738.19 1107.78L1738.25 1107.81C1739.26 1108.63 1739.5 1108.69 1740.26 1108.96C1741.74 1109.49 1750.39 1110.79 1758.97 1119.25C1758.97 1119.25 1761.6 1121.63 1759.12 1123.61C1756.01 1126.17 1746.48 1124.97 1742.43 1124.03C1740.02 1123.47 1737.28 1122.44 1737.27 1115.66C1737.27 1115.66 1737.09 1113.11 1737.93 1110.9C1737.93 1110.9 1737.56 1110.07 1736.83 1109.46L1736.78 1109.41L1736.77 1109.41Z" fill="#6680B5"/>
<path d="M1734.49 1104.86L1728.97 1104.89C1728.85 1104.89 1728.78 1105.03 1728.85 1105.13L1729.81 1106.43C1729.87 1106.51 1729.84 1106.62 1729.75 1106.66L1727.01 1107.89C1726.86 1107.95 1726.91 1108.18 1727.08 1108.18L1732.76 1108.03C1732.88 1108.03 1732.95 1107.88 1732.87 1107.78L1732.03 1106.68C1731.97 1106.6 1731.99 1106.49 1732.08 1106.45L1734.58 1105.15C1734.73 1105.08 1734.66 1104.86 1734.49 1104.86" fill="white"/>
<path d="M1757.66 1119.3L1750.98 1119C1750.83 1119 1750.71 1119.15 1750.78 1119.28L1751.63 1120.91C1751.68 1121 1751.62 1121.14 1751.5 1121.18L1747.9 1122.5C1747.7 1122.57 1747.71 1122.85 1747.91 1122.86L1754.81 1123.03C1754.96 1123.03 1755.07 1122.86 1755.01 1122.74L1754.26 1121.35C1754.21 1121.26 1754.26 1121.13 1754.37 1121.08L1757.69 1119.67C1757.88 1119.59 1757.85 1119.32 1757.65 1119.31" fill="white"/>
<path d="M1720.45 1099.76C1720.45 1099.76 1726.09 1105.29 1724.35 1113.91L1720.45 1099.76Z" fill="#C2CBE7"/>
<path d="M1720.45 1099.76C1720.45 1099.76 1726.09 1105.29 1724.35 1113.91" stroke="#7990C9" stroke-width="2.34" stroke-linecap="round" stroke-linejoin="round"/>
<path d="M1740.14 1148.3C1724.79 1142.01 1724.88 1135.94 1725.04 1134.23C1725.55 1128.74 1731.14 1127.21 1733.01 1129.99C1733.78 1131.13 1735.93 1135.25 1739.74 1138.35" fill="#C2CBE7"/>
<path d="M1740.14 1148.3C1724.79 1142.01 1724.88 1135.94 1725.04 1134.23C1725.55 1128.74 1731.14 1127.21 1733.01 1129.99C1733.78 1131.13 1735.93 1135.25 1739.74 1138.35" stroke="#6680B5" stroke-width="2.04" stroke-linecap="round" stroke-linejoin="round"/>
<path d="M1699.29 1075.74C1698.23 1075.96 1697.38 1076.81 1696.95 1077.8C1696.52 1078.79 1696.48 1079.91 1696.61 1080.99" stroke="#6680B5" stroke-width="2.34" stroke-linecap="round" stroke-linejoin="round"/>
<path d="M1696.02 1074.19C1694.63 1074.98 1693.76 1076.62 1693.88 1078.21" stroke="#6680B5" stroke-width="2.34" stroke-linecap="round" stroke-linejoin="round"/>
</g>
</svg>
