<svg width="1920" height="1330" viewBox="0 0 1920 1330" fill="none" xmlns="http://www.w3.org/2000/svg">
<g clip-path="url(#clip0_1022_18982)">
<path d="M252.726 1173.41C252.726 1173.41 265.063 1073.25 188.605 1031.32" stroke="black" stroke-opacity="0.1" stroke-width="2" stroke-linecap="round" stroke-linejoin="round"/>
<path d="M165.971 1033.52C175.822 1038.75 189.571 1032.13 189.571 1032.13C189.571 1032.13 187.345 1017.03 177.494 1011.81C167.643 1006.59 153.895 1013.2 153.895 1013.2C153.895 1013.2 156.12 1028.3 165.971 1033.52Z" fill="#D2D98B" stroke="black" stroke-opacity="0.1" stroke-width="2" stroke-linecap="round" stroke-linejoin="round"/>
<path d="M153.895 1013.2L189.571 1032.13" stroke="black" stroke-opacity="0.1" stroke-width="2" stroke-linecap="round" stroke-linejoin="round"/>
<path d="M203.31 1009.76C200.78 1020.62 210.693 1032.22 210.693 1032.22C210.693 1032.22 224.719 1026.21 227.249 1015.35C229.779 1004.49 219.865 992.894 219.865 992.894C219.865 992.894 205.839 998.901 203.31 1009.76Z" fill="#D2D98B" stroke="black" stroke-opacity="0.1" stroke-width="2" stroke-linecap="round" stroke-linejoin="round"/>
<path d="M219.866 992.894L210.685 1032.22C210.685 1032.22 208.79 1044.7 212.339 1048.52" stroke="black" stroke-opacity="0.1" stroke-width="2" stroke-linecap="round" stroke-linejoin="round"/>
<path d="M248.838 1065.15C243.215 1074.78 249.258 1088.78 249.258 1088.78C249.258 1088.78 264.428 1087.18 270.06 1077.56C275.682 1067.93 269.639 1053.92 269.639 1053.92C269.639 1053.92 254.47 1055.52 248.838 1065.15Z" fill="#D2D98B" stroke="black" stroke-opacity="0.1" stroke-width="2" stroke-linecap="round" stroke-linejoin="round"/>
<path d="M269.639 1053.92L249.257 1088.78C249.257 1088.78 243.769 1100.15 246.021 1104.85" stroke="black" stroke-opacity="0.1" stroke-width="2" stroke-linecap="round" stroke-linejoin="round"/>
<path d="M221.528 1036.4C218.999 1047.26 228.912 1058.86 228.912 1058.86C228.912 1058.86 242.938 1052.85 245.468 1041.99C247.997 1031.13 238.084 1019.53 238.084 1019.53C238.084 1019.53 224.058 1025.54 221.528 1036.4Z" fill="#D2D98B" stroke="black" stroke-opacity="0.1" stroke-width="2" stroke-linecap="round" stroke-linejoin="round"/>
<path d="M238.083 1019.53L228.902 1058.86C228.902 1058.86 228.232 1063.25 228.438 1067.63" stroke="black" stroke-opacity="0.1" stroke-width="2" stroke-linecap="round" stroke-linejoin="round"/>
<path d="M256.393 1105.98C250.394 1115.38 255.883 1129.62 255.883 1129.62C255.883 1129.62 271.107 1128.62 277.114 1119.22C283.112 1109.83 277.623 1095.59 277.623 1095.59C277.623 1095.59 262.4 1096.59 256.393 1105.98Z" fill="#D2D98B" stroke="black" stroke-opacity="0.1" stroke-width="2" stroke-linecap="round" stroke-linejoin="round"/>
<path d="M277.623 1095.59L255.883 1129.62C255.883 1129.62 253.791 1133.54 252.521 1137.73" stroke="black" stroke-opacity="0.1" stroke-width="2" stroke-linecap="round" stroke-linejoin="round"/>
<path d="M219.751 1067.51C230.031 1071.84 233.589 1086.68 233.589 1086.68C233.589 1086.68 220.484 1094.5 210.213 1090.17C199.933 1085.84 196.375 1071 196.375 1071C196.375 1071 209.48 1063.18 219.751 1067.51Z" fill="#D2D98B" stroke="black" stroke-opacity="0.1" stroke-width="2" stroke-linecap="round" stroke-linejoin="round"/>
<path d="M196.365 1071L233.579 1086.67C233.579 1086.67 237.53 1088.7 240.954 1091.44" stroke="black" stroke-opacity="0.1" stroke-width="2" stroke-linecap="round" stroke-linejoin="round"/>
<path d="M185.494 1039.8C196.642 1039.9 205.572 1052.27 205.572 1052.27C205.572 1052.27 196.418 1064.48 185.271 1064.37C174.124 1064.27 165.193 1051.9 165.193 1051.9C165.193 1051.9 174.347 1039.69 185.494 1039.8Z" fill="#D2D98B" stroke="black" stroke-opacity="0.1" stroke-width="2" stroke-linecap="round" stroke-linejoin="round"/>
<path d="M165.193 1051.91L205.572 1052.28C205.572 1052.28 218.14 1053.39 221.028 1057.73" stroke="black" stroke-opacity="0.1" stroke-width="2" stroke-linecap="round" stroke-linejoin="round"/>
<path d="M225.722 1095.17C235.841 1099.84 238.889 1114.8 238.889 1114.8C238.889 1114.8 225.525 1122.16 215.406 1117.48C205.287 1112.8 202.238 1097.85 202.238 1097.85C202.238 1097.85 215.602 1090.48 225.722 1095.17Z" fill="#D2D98B" stroke="black" stroke-opacity="0.1" stroke-width="2" stroke-linecap="round" stroke-linejoin="round"/>
<path d="M202.229 1097.85L238.888 1114.8C238.888 1114.8 249.892 1120.97 250.733 1126.12" stroke="black" stroke-opacity="0.1" stroke-width="2" stroke-linecap="round" stroke-linejoin="round"/>
<path d="M223.075 1227.72H287.134L298.96 1142.97H211.258L223.075 1227.72Z" fill="#F7DACC" stroke="black" stroke-opacity="0.1" stroke-width="2" stroke-linecap="round" stroke-linejoin="round"/>
<path d="M213.716 1162.22H296.493C299.065 1162.22 301.15 1160.14 301.15 1157.56V1144.45C301.15 1141.88 299.065 1139.79 296.493 1139.79H213.716C211.144 1139.79 209.059 1141.88 209.059 1144.45V1157.56C209.059 1160.14 211.144 1162.22 213.716 1162.22Z" fill="#F7DACC" stroke="black" stroke-opacity="0.1" stroke-width="2" stroke-linecap="round" stroke-linejoin="round"/>
<path d="M283.647 1231.11H226.562C219.75 1231.11 214.226 1225.58 214.226 1218.77V1218.33H295.975V1218.77C295.975 1225.58 290.45 1231.11 283.638 1231.11H283.647Z" fill="#F7DACC" stroke="black" stroke-opacity="0.1" stroke-width="2" stroke-linecap="round" stroke-linejoin="round"/>
</g>
<g clip-path="url(#clip1_1022_18982)">
<path d="M269.64 967.59L244.92 957.38C243.65 956.86 243.05 955.4 243.57 954.13L248.78 941.51C249.07 940.8 249.68 940.27 250.42 940.06L270.14 934.61C271.46 934.24 272.83 935.02 273.2 936.34C273.57 937.66 272.79 939.03 271.47 939.4L252.92 944.53L249.12 953.73L271.54 962.99C272.81 963.51 273.41 964.97 272.89 966.24C272.37 967.51 270.91 968.11 269.64 967.59Z" fill="#FBFDFC" stroke="black" stroke-opacity="0.1" stroke-width="2" stroke-linecap="round" stroke-linejoin="round"/>
<path d="M298.17 979.37L322.89 989.58C324.16 990.1 325.61 989.5 326.14 988.23L331.35 975.61C331.64 974.9 331.59 974.1 331.21 973.43L321.08 955.66C320.4 954.47 318.88 954.05 317.69 954.73C316.5 955.41 316.08 956.93 316.76 958.12L326.29 974.84L322.49 984.04L300.07 974.78C298.8 974.26 297.35 974.86 296.82 976.13C296.3 977.4 296.9 978.85 298.17 979.38V979.37Z" fill="#FBFDFC" stroke="black" stroke-opacity="0.1" stroke-width="2" stroke-linecap="round" stroke-linejoin="round"/>
<path d="M194.877 863.216L218.455 872.954C219.268 873.29 219.653 874.217 219.318 875.03L218.39 877.276C218.054 878.09 217.127 878.475 216.313 878.139L192.735 868.401C191.299 867.819 190.615 866.173 191.207 864.741C191.798 863.308 193.444 862.625 194.877 863.216Z" fill="#FBFDFC" stroke="black" stroke-opacity="0.1" stroke-width="2" stroke-linecap="round" stroke-linejoin="round"/>
<path d="M252.037 892.89L228.459 883.152C227.646 882.816 227.26 881.889 227.596 881.076L228.524 878.83C228.86 878.016 229.787 877.631 230.6 877.967L254.179 887.705C255.612 888.296 256.295 889.942 255.703 891.374C255.112 892.807 253.466 893.491 252.034 892.899L252.037 892.89Z" fill="#FBFDFC" stroke="black" stroke-opacity="0.1" stroke-width="2" stroke-linecap="round" stroke-linejoin="round"/>
<path d="M225.579 881.974L219.201 879.34L213.342 893.528L219.719 896.161L225.579 881.974Z" fill="#697AE2" stroke="black" stroke-opacity="0.1" stroke-width="2" stroke-linecap="round" stroke-linejoin="round"/>
<path d="M229.707 877.587L219.364 873.316C218.552 872.981 217.623 873.367 217.288 874.179L216.356 876.434C216.021 877.245 216.407 878.175 217.219 878.51L227.562 882.782C228.373 883.117 229.303 882.731 229.638 881.919L230.57 879.664C230.905 878.852 230.518 877.923 229.707 877.587Z" fill="#FBFDFC" stroke="black" stroke-opacity="0.1" stroke-width="2" stroke-linecap="round" stroke-linejoin="round"/>
<path d="M224.81 870.683L227.712 871.882C229.45 872.6 230.275 874.585 229.557 876.322L229.129 877.358L219.933 873.56L220.36 872.524C221.078 870.787 223.063 869.962 224.801 870.68L224.81 870.683Z" fill="#E18B63" stroke="black" stroke-opacity="0.1" stroke-width="2" stroke-linecap="round" stroke-linejoin="round"/>
<path d="M422.653 963.322L399.074 953.585C398.261 953.249 397.876 952.322 398.212 951.508L399.139 949.262C399.475 948.449 400.402 948.064 401.216 948.4L424.794 958.137C426.227 958.729 426.91 960.374 426.319 961.807C425.727 963.24 424.082 963.923 422.649 963.332L422.653 963.322Z" fill="#FBFDFC" stroke="black" stroke-opacity="0.1" stroke-width="2" stroke-linecap="round" stroke-linejoin="round"/>
<path d="M365.47 933.663L389.049 943.4C389.862 943.736 390.247 944.664 389.911 945.477L388.984 947.723C388.648 948.536 387.721 948.922 386.907 948.586L363.329 938.848C361.896 938.256 361.213 936.611 361.804 935.178C362.396 933.746 364.042 933.062 365.474 933.654L365.47 933.663Z" fill="#FBFDFC" stroke="black" stroke-opacity="0.1" stroke-width="2" stroke-linecap="round" stroke-linejoin="round"/>
<path d="M383.955 963.949L390.332 966.583L396.191 952.395L389.814 949.761L383.955 963.949Z" fill="#697AE2" stroke="black" stroke-opacity="0.1" stroke-width="2" stroke-linecap="round" stroke-linejoin="round"/>
<path d="M387.836 948.95L398.179 953.221C398.99 953.556 399.92 953.17 400.255 952.359L401.187 950.103C401.522 949.292 401.136 948.362 400.324 948.027L389.981 943.755C389.17 943.42 388.24 943.806 387.905 944.618L386.973 946.873C386.638 947.685 387.025 948.615 387.836 948.95Z" fill="#FBFDFC" stroke="black" stroke-opacity="0.1" stroke-width="2" stroke-linecap="round" stroke-linejoin="round"/>
<path d="M399.746 947.781L390.55 943.983L390.977 942.948C391.695 941.21 393.68 940.386 395.417 941.103L398.32 942.302C400.057 943.019 400.882 945.005 400.164 946.742L399.737 947.777L399.746 947.781Z" fill="#E18B63" stroke="black" stroke-opacity="0.1" stroke-width="2" stroke-linecap="round" stroke-linejoin="round"/>
<path d="M270.839 932.371L209.559 902.401C205.739 900.531 204.019 896.011 205.649 892.081C207.269 888.151 211.679 886.151 215.699 887.521L280.269 909.511L270.829 932.371H270.839Z" fill="#FBFDFC" stroke="black" stroke-opacity="0.1" stroke-width="2" stroke-linecap="round" stroke-linejoin="round"/>
<path d="M322.168 953.56L386.738 975.55C390.768 976.92 395.168 974.93 396.788 970.99C398.408 967.06 396.698 962.54 392.878 960.67L331.598 930.7L322.158 953.56H322.168Z" fill="#FBFDFC" stroke="black" stroke-opacity="0.1" stroke-width="2" stroke-linecap="round" stroke-linejoin="round"/>
<path d="M329.37 959.68L310.49 954.63C299.25 951.62 288.46 947.16 278.37 941.37L261.42 931.63C257.43 929.34 255.76 924.44 257.51 920.18L262.23 908.75C263.99 904.49 268.63 902.2 273.07 903.39L291.95 908.44C303.19 911.45 313.98 915.91 324.07 921.7L341.02 931.44C345.01 933.73 346.68 938.63 344.93 942.89L340.21 954.32C338.45 958.58 333.81 960.87 329.37 959.68Z" fill="#B3BCCA" stroke="black" stroke-opacity="0.1" stroke-width="2" stroke-linecap="round" stroke-linejoin="round"/>
<path d="M343.586 946.159L260.891 912.007L258.856 916.933L341.551 951.085L343.586 946.159Z" fill="#AAD2C1" stroke="black" stroke-opacity="0.1" stroke-width="2" stroke-linecap="round" stroke-linejoin="round"/>
<path d="M281.589 972.57C281.069 973.84 281.669 975.29 282.939 975.82C284.209 976.35 285.659 975.74 286.189 974.47L296.999 948.3L292.409 946.4L281.599 972.57H281.589Z" fill="#FBFDFC" stroke="black" stroke-opacity="0.1" stroke-width="2" stroke-linecap="round" stroke-linejoin="round"/>
</g>
<g clip-path="url(#clip2_1022_18982)">
<path d="M1567.28 1161.08H1559.63V1164.64H1567.28V1161.08Z" fill="#FBFDFC" stroke="black" stroke-opacity="0.1" stroke-width="2" stroke-linecap="round" stroke-linejoin="round"/>
<path d="M1540.07 1192.47V1196.51H1553.74V1192.47H1540.07Z" fill="#FBFDFC" stroke="black" stroke-opacity="0.1" stroke-width="2" stroke-linecap="round" stroke-linejoin="round"/>
<path d="M1548.93 1175.65H1544.89V1192.47H1548.93V1175.65Z" fill="#FBFDFC" stroke="black" stroke-opacity="0.1" stroke-width="2" stroke-linecap="round" stroke-linejoin="round"/>
<path d="M1550.8 1138.27H1543.03V1175.65H1550.8V1138.27Z" fill="#FBFDFC" stroke="black" stroke-opacity="0.1" stroke-width="2" stroke-linecap="round" stroke-linejoin="round"/>
<path d="M1550.79 1152.62H1552.45C1554.35 1152.62 1555.89 1154.16 1555.89 1156.06V1169.66C1555.89 1171.56 1554.35 1173.1 1552.45 1173.1H1550.79V1152.61V1152.62Z" fill="#FBFDFC" stroke="black" stroke-opacity="0.1" stroke-width="2" stroke-linecap="round" stroke-linejoin="round"/>
<path d="M1555.89 1155.33H1557.11C1558.5 1155.33 1559.63 1156.46 1559.63 1157.86V1167.84C1559.63 1169.24 1558.5 1170.37 1557.11 1170.37H1555.89V1155.32V1155.33Z" fill="#FBFDFC" stroke="black" stroke-opacity="0.1" stroke-width="2" stroke-linecap="round" stroke-linejoin="round"/>
<g style="mix-blend-mode:darken">
<path d="M1548.93 1175.65H1544.89V1178.82H1548.93V1175.65Z" fill="#AEBEFA"/>
</g>
<g style="mix-blend-mode:darken">
<path d="M1550.8 1138.27H1543.03V1148.96H1550.8V1138.27Z" fill="#AEBEFA"/>
</g>
<path d="M1727.16 1196.6H1511.53C1509.53 1196.6 1507.91 1198.22 1507.91 1200.21C1507.91 1202.21 1509.53 1203.83 1511.53 1203.83H1727.16C1729.16 1203.83 1730.78 1202.21 1730.78 1200.21C1730.78 1198.22 1729.16 1196.6 1727.16 1196.6Z" fill="#D3DAE3" stroke="black" stroke-opacity="0.1" stroke-width="2" stroke-linecap="round" stroke-linejoin="round"/>
<path d="M1725.88 1203.83H1512.8V1231.09H1725.88V1203.83Z" fill="#D3DAE3" stroke="black" stroke-opacity="0.1" stroke-width="2" stroke-linecap="round" stroke-linejoin="round"/>
<path d="M1668.58 1078.8C1662.36 1083.51 1654.77 1086.06 1646.96 1086.06H1572.85C1566.57 1086.06 1561.03 1081.93 1559.24 1075.92C1558.48 1073.32 1556.08 1071.54 1553.38 1071.54H1546.01C1542.63 1071.54 1539.89 1074.28 1539.89 1077.66V1145.78L1550.97 1142.73C1555.56 1141.46 1558.94 1137.55 1559.52 1132.82L1560.72 1123.02C1561.59 1115.9 1567.63 1110.55 1574.81 1110.55H1635.33C1648.98 1110.55 1660.62 1120.43 1662.83 1133.89L1663.83 1139.95C1666.95 1158.94 1665.29 1178.41 1658.99 1196.6H1714.85V1086.05C1714.85 1078.04 1708.36 1071.55 1700.35 1071.55H1690.22C1682.42 1071.55 1674.82 1074.1 1668.6 1078.81L1668.58 1078.8Z" fill="#B7DECE" stroke="black" stroke-opacity="0.1" stroke-width="2" stroke-linecap="round" stroke-linejoin="round"/>
<path d="M1721.02 1094.18H1714.84V1121.57H1721.02V1094.18Z" fill="#FBFDFC" stroke="black" stroke-opacity="0.1" stroke-width="2" stroke-linecap="round" stroke-linejoin="round"/>
<path d="M1725.89 1093.94C1725.89 1092.59 1724.8 1091.5 1723.45 1091.5C1722.11 1091.5 1721.02 1092.59 1721.02 1093.94V1121.81C1721.02 1123.16 1722.11 1124.25 1723.45 1124.25C1724.8 1124.25 1725.89 1123.16 1725.89 1121.81V1093.94Z" fill="#FBFDFC" stroke="black" stroke-opacity="0.1" stroke-width="2" stroke-linecap="round" stroke-linejoin="round"/>
<path d="M1730.77 1090.13C1730.77 1088.79 1729.68 1087.7 1728.33 1087.7C1726.98 1087.7 1725.89 1088.79 1725.89 1090.13V1125.62C1725.89 1126.96 1726.98 1128.06 1728.33 1128.06C1729.68 1128.06 1730.77 1126.96 1730.77 1125.62V1090.13Z" fill="#FBFDFC" stroke="black" stroke-opacity="0.1" stroke-width="2" stroke-linecap="round" stroke-linejoin="round"/>
<path d="M1742.67 1079.12C1742.67 1075.83 1740 1073.17 1736.72 1073.17C1733.43 1073.17 1730.77 1075.83 1730.77 1079.12V1136.64C1730.77 1139.93 1733.43 1142.59 1736.72 1142.59C1740 1142.59 1742.67 1139.93 1742.67 1136.64V1079.12Z" fill="#CCD1EC" stroke="black" stroke-opacity="0.1" stroke-width="2" stroke-linecap="round" stroke-linejoin="round"/>
<path d="M1552.43 1059.97H1546.49V1071.55H1552.43V1059.97Z" fill="#FBFDFC" stroke="black" stroke-opacity="0.1" stroke-width="2" stroke-linecap="round" stroke-linejoin="round"/>
<path d="M1555.76 1059.96C1556.81 1059.96 1557.66 1059.11 1557.66 1058.06C1557.66 1057.01 1556.81 1056.16 1555.76 1056.16H1543.17C1542.12 1056.16 1541.27 1057.01 1541.27 1058.06C1541.27 1059.11 1542.12 1059.96 1543.17 1059.96H1555.76Z" fill="#FBFDFC" stroke="black" stroke-opacity="0.1" stroke-width="2" stroke-linecap="round" stroke-linejoin="round"/>
<path d="M1553.65 1052.91H1545.27L1543.17 1056.16H1555.76L1553.65 1052.91Z" fill="#FBFDFC" stroke="black" stroke-opacity="0.1" stroke-width="2" stroke-linecap="round" stroke-linejoin="round"/>
<path d="M1539.9 1120.3C1539.9 1118.96 1538.81 1117.88 1537.47 1117.88C1536.13 1117.88 1535.04 1118.96 1535.04 1120.3V1136.38C1535.04 1137.73 1536.13 1138.81 1537.47 1138.81C1538.81 1138.81 1539.9 1137.73 1539.9 1136.38V1120.3Z" fill="#FBFDFC" stroke="black" stroke-opacity="0.1" stroke-width="2" stroke-linecap="round" stroke-linejoin="round"/>
<path d="M1530.89 1122.99V1133.7L1535.04 1136.38V1120.3L1530.89 1122.99Z" fill="#FBFDFC" stroke="black" stroke-opacity="0.1" stroke-width="2" stroke-linecap="round" stroke-linejoin="round"/>
<path d="M1569.15 1165.83C1570.97 1165.83 1572.45 1164.36 1572.45 1162.54C1572.45 1160.72 1570.97 1159.24 1569.15 1159.24C1567.33 1159.24 1565.85 1160.72 1565.85 1162.54C1565.85 1164.36 1567.33 1165.83 1569.15 1165.83Z" fill="#E18B63" stroke="black" stroke-opacity="0.1" stroke-width="2" stroke-linecap="round" stroke-linejoin="round"/>
<path d="M1535.23 1185.05H1541.71V1182.04H1535.23V1185.05Z" fill="#FBFDFC" stroke="black" stroke-opacity="0.1" stroke-width="2" stroke-linecap="round" stroke-linejoin="round"/>
<path d="M1544.89 1188H1543.5C1542.51 1188 1541.71 1187.19 1541.71 1186.21V1180.9C1541.71 1179.91 1542.51 1179.11 1543.5 1179.11H1544.89V1188Z" fill="#FBFDFC" stroke="black" stroke-opacity="0.1" stroke-width="2" stroke-linecap="round" stroke-linejoin="round"/>
<path d="M1533.65 1186.08C1535.19 1186.08 1536.44 1184.83 1536.44 1183.28C1536.44 1181.74 1535.19 1180.49 1533.65 1180.49C1532.1 1180.49 1530.85 1181.74 1530.85 1183.28C1530.85 1184.83 1532.1 1186.08 1533.65 1186.08Z" fill="#E18B63" stroke="black" stroke-opacity="0.1" stroke-width="2" stroke-linecap="round" stroke-linejoin="round"/>
<path d="M1687.26 1128.6C1698.46 1128.6 1707.54 1119.52 1707.54 1108.31C1707.54 1097.11 1698.46 1088.03 1687.26 1088.03C1676.05 1088.03 1666.97 1097.11 1666.97 1108.31C1666.97 1119.52 1676.05 1128.6 1687.26 1128.6Z" fill="#E0B6AB" stroke="black" stroke-opacity="0.1" stroke-width="2" stroke-linecap="round" stroke-linejoin="round"/>
<path d="M1687.26 1124.28C1678.45 1124.28 1671.29 1117.12 1671.29 1108.31C1671.29 1099.51 1678.45 1092.35 1687.26 1092.35C1696.06 1092.35 1703.22 1099.51 1703.22 1108.31C1703.22 1117.12 1696.06 1124.28 1687.26 1124.28Z" fill="#FBFDFC" stroke="black" stroke-opacity="0.1" stroke-width="2" stroke-linecap="round" stroke-linejoin="round"/>
<path d="M1692.94 1159.39C1699.56 1159.39 1704.94 1154.01 1704.94 1147.39C1704.94 1140.76 1699.56 1135.39 1692.94 1135.39C1686.31 1135.39 1680.94 1140.76 1680.94 1147.39C1680.94 1154.01 1686.31 1159.39 1692.94 1159.39Z" fill="#CCD1EC" stroke="black" stroke-opacity="0.1" stroke-width="2" stroke-linecap="round" stroke-linejoin="round"/>
<path d="M1692.94 1155.09C1688.69 1155.09 1685.23 1151.64 1685.23 1147.39C1685.23 1143.13 1688.69 1139.68 1692.94 1139.68C1697.18 1139.68 1700.64 1143.14 1700.64 1147.39C1700.64 1151.63 1697.18 1155.09 1692.94 1155.09Z" fill="#FBFDFC" stroke="black" stroke-opacity="0.1" stroke-width="2" stroke-linecap="round" stroke-linejoin="round"/>
<path d="M1687.26 1113.96C1684.14 1113.96 1681.61 1111.43 1681.61 1108.31C1681.61 1105.2 1684.14 1102.67 1687.26 1102.67C1690.37 1102.67 1692.9 1105.2 1692.9 1108.31C1692.9 1111.43 1690.37 1113.96 1687.26 1113.96Z" fill="#D3DAE3" stroke="black" stroke-opacity="0.1" stroke-width="2" stroke-linecap="round" stroke-linejoin="round"/>
<path d="M1692.94 1139.69V1155.09" stroke="black" stroke-opacity="0.1" stroke-width="2" stroke-linecap="round" stroke-linejoin="round"/>
<path d="M1687.49 1141.95L1698.39 1152.84" stroke="black" stroke-opacity="0.1" stroke-width="2" stroke-linecap="round" stroke-linejoin="round"/>
<path d="M1685.23 1147.39H1700.64" stroke="black" stroke-opacity="0.1" stroke-width="2" stroke-linecap="round" stroke-linejoin="round"/>
<path d="M1687.49 1152.84L1698.39 1141.95" stroke="black" stroke-opacity="0.1" stroke-width="2" stroke-linecap="round" stroke-linejoin="round"/>
</g>
<g clip-path="url(#clip3_1022_18982)">
<path d="M1557.09 969.52C1557.09 969.52 1543.93 949.77 1555.5 932C1574.16 903.35 1621.94 908.83 1603.03 848" stroke="black" stroke-opacity="0.1" stroke-width="2" stroke-linecap="round" stroke-linejoin="round"/>
<path d="M1549.98 941.18C1560.46 941.18 1568.96 932.682 1568.96 922.2C1568.96 911.717 1560.46 903.22 1549.98 903.22C1539.5 903.22 1531 911.717 1531 922.2C1531 932.682 1539.5 941.18 1549.98 941.18Z" fill="#EAB197" stroke="black" stroke-opacity="0.1" stroke-width="2" stroke-linecap="round" stroke-linejoin="round"/>
<path d="M1549.98 936.4C1557.82 936.4 1564.18 930.042 1564.18 922.2C1564.18 914.358 1557.82 908 1549.98 908C1542.14 908 1535.78 914.358 1535.78 922.2C1535.78 930.042 1542.14 936.4 1549.98 936.4Z" fill="#EAB197" stroke="black" stroke-opacity="0.1" stroke-width="2" stroke-linecap="round" stroke-linejoin="round"/>
<path d="M1555.37 924.499C1556.64 924.499 1557.67 923.47 1557.67 922.199C1557.67 920.929 1556.64 919.899 1555.37 919.899C1554.1 919.899 1553.07 920.929 1553.07 922.199C1553.07 923.47 1554.1 924.499 1555.37 924.499Z" fill="#FBFDFC" stroke="black" stroke-opacity="0.1" stroke-width="2" stroke-linecap="round" stroke-linejoin="round"/>
<path d="M1549.98 919.1C1551.25 919.1 1552.28 918.07 1552.28 916.8C1552.28 915.53 1551.25 914.5 1549.98 914.5C1548.71 914.5 1547.68 915.53 1547.68 916.8C1547.68 918.07 1548.71 919.1 1549.98 919.1Z" fill="#FBFDFC" stroke="black" stroke-opacity="0.1" stroke-width="2" stroke-linecap="round" stroke-linejoin="round"/>
<path d="M1544.59 924.499C1545.86 924.499 1546.89 923.47 1546.89 922.199C1546.89 920.929 1545.86 919.899 1544.59 919.899C1543.32 919.899 1542.29 920.929 1542.29 922.199C1542.29 923.47 1543.32 924.499 1544.59 924.499Z" fill="#FBFDFC" stroke="black" stroke-opacity="0.1" stroke-width="2" stroke-linecap="round" stroke-linejoin="round"/>
<path d="M1549.98 929.89C1551.25 929.89 1552.28 928.86 1552.28 927.59C1552.28 926.32 1551.25 925.29 1549.98 925.29C1548.71 925.29 1547.68 926.32 1547.68 927.59C1547.68 928.86 1548.71 929.89 1549.98 929.89Z" fill="#FBFDFC" stroke="black" stroke-opacity="0.1" stroke-width="2" stroke-linecap="round" stroke-linejoin="round"/>
<path d="M1656.79 946.638L1609.51 907.738L1550.3 979.698L1597.57 1018.6L1656.79 946.638Z" fill="#E6C3BA" stroke="black" stroke-opacity="0.1" stroke-width="2" stroke-linecap="round" stroke-linejoin="round"/>
<path d="M1610.7 892.737L1671.26 942.578C1666.94 947.829 1659.17 948.591 1653.91 944.264L1612.37 910.086C1607.12 905.765 1606.36 897.989 1610.69 892.73L1610.7 892.737Z" fill="#DDD393" stroke="black" stroke-opacity="0.1" stroke-width="2" stroke-linecap="round" stroke-linejoin="round"/>
<path d="M1596.38 1033.58L1535.81 983.738C1540.13 978.487 1547.91 977.724 1553.17 982.052L1594.69 1016.22C1599.95 1020.54 1600.71 1028.32 1596.38 1033.58Z" fill="#DDD393" stroke="black" stroke-opacity="0.1" stroke-width="2" stroke-linecap="round" stroke-linejoin="round"/>
<path d="M1606.62 911.25L1651.79 952.7" stroke="black" stroke-opacity="0.1" stroke-width="2" stroke-linecap="round" stroke-linejoin="round"/>
<path d="M1602.36 916.43L1647.52 957.88" stroke="black" stroke-opacity="0.1" stroke-width="2" stroke-linecap="round" stroke-linejoin="round"/>
<path d="M1598.09 921.62L1643.26 963.07" stroke="black" stroke-opacity="0.1" stroke-width="2" stroke-linecap="round" stroke-linejoin="round"/>
<path d="M1593.83 926.8L1638.99 968.25" stroke="black" stroke-opacity="0.1" stroke-width="2" stroke-linecap="round" stroke-linejoin="round"/>
<path d="M1589.56 931.979L1634.73 973.439" stroke="black" stroke-opacity="0.1" stroke-width="2" stroke-linecap="round" stroke-linejoin="round"/>
<path d="M1561.38 966.22L1606.55 1007.68" stroke="black" stroke-opacity="0.1" stroke-width="2" stroke-linecap="round" stroke-linejoin="round"/>
<path d="M1557.37 971.1L1602.53 1012.56" stroke="black" stroke-opacity="0.1" stroke-width="2" stroke-linecap="round" stroke-linejoin="round"/>
<path d="M1553.35 975.979L1598.52 1017.43" stroke="black" stroke-opacity="0.1" stroke-width="2" stroke-linecap="round" stroke-linejoin="round"/>
<path d="M1585.29 937.17L1630.46 978.62" stroke="black" stroke-opacity="0.1" stroke-width="2" stroke-linecap="round" stroke-linejoin="round"/>
<path d="M1623.51 972.3L1581.71 941.53" stroke="black" stroke-opacity="0.1" stroke-width="2" stroke-linecap="round" stroke-linejoin="round"/>
<path d="M1627.29 982.47L1577.92 946.12" stroke="black" stroke-opacity="0.1" stroke-width="2" stroke-linecap="round" stroke-linejoin="round"/>
<path d="M1622.99 987.699L1573.61 951.359" stroke="black" stroke-opacity="0.1" stroke-width="2" stroke-linecap="round" stroke-linejoin="round"/>
<path d="M1618.68 992.94L1569.31 956.6" stroke="black" stroke-opacity="0.1" stroke-width="2" stroke-linecap="round" stroke-linejoin="round"/>
<path d="M1614.37 998.17L1565 961.83" stroke="black" stroke-opacity="0.1" stroke-width="2" stroke-linecap="round" stroke-linejoin="round"/>
<path d="M1563.06 964.18L1610.33 1003.08" stroke="black" stroke-opacity="0.1" stroke-width="2" stroke-linecap="round" stroke-linejoin="round"/>
<path d="M1694.41 1043.58C1692.62 1040.31 1639.17 944.35 1635.91 946.14C1632.64 947.93 1684.8 1044.6 1686.59 1047.86C1688.38 1051.13 1691.58 1052.81 1693.74 1051.63C1695.9 1050.45 1696.2 1046.84 1694.41 1043.58ZM1689.9 1041.37C1691.54 1044.35 1692.25 1047.11 1691.49 1047.52C1690.73 1047.93 1688.79 1045.85 1687.16 1042.87C1685.53 1039.89 1684.81 1037.13 1685.57 1036.72C1686.33 1036.31 1688.27 1038.39 1689.9 1041.37Z" fill="#FBFDFC" stroke="black" stroke-opacity="0.1" stroke-width="2" stroke-linecap="round" stroke-linejoin="round"/>
</g>
<g clip-path="url(#clip4_1022_18982)">
<path d="M1764.53 928.47L1774.06 933.97L1764.53 939.48L1755 933.97L1764.53 928.47Z" fill="#AAD2C1" stroke="black" stroke-opacity="0.1" stroke-width="2" stroke-linecap="round" stroke-linejoin="round"/>
<path d="M1764.53 865L1774.06 870.5V933.97L1764.53 928.47V865Z" fill="#FBFDFC" stroke="black" stroke-opacity="0.1" stroke-width="2" stroke-linecap="round" stroke-linejoin="round"/>
<path d="M1755 870.5L1764.53 865V928.47L1755 933.97V870.5Z" fill="#C1C7E9" stroke="black" stroke-opacity="0.1" stroke-width="2" stroke-linecap="round" stroke-linejoin="round"/>
</g>
<g clip-path="url(#clip5_1022_18982)">
<path d="M1789.35 1046.72L1774 1037.86L1789.35 1029L1804.7 1037.86L1789.35 1046.72Z" fill="#DDD185" stroke="black" stroke-opacity="0.1" stroke-width="2" stroke-linecap="round" stroke-linejoin="round"/>
<path d="M1789.35 1064.27L1774 1055.4V1037.86L1789.35 1046.72V1064.27Z" fill="#FBFDFC" stroke="black" stroke-opacity="0.1" stroke-width="2" stroke-linecap="round" stroke-linejoin="round"/>
<path d="M1804.7 1055.4L1789.35 1064.27V1046.72L1804.7 1037.86V1055.4Z" fill="#BAC1EB" stroke="black" stroke-opacity="0.1" stroke-width="2" stroke-linecap="round" stroke-linejoin="round"/>
</g>
<g clip-path="url(#clip6_1022_18982)">
<path d="M140.77 957.77L151.4 954.92L148.55 965.55L137.92 968.4L140.77 957.77Z" fill="#AAD2C1" stroke="black" stroke-opacity="0.1" stroke-width="2" stroke-linecap="round" stroke-linejoin="round"/>
<path d="M100.85 917.85L111.47 915L151.4 954.92L140.77 957.77L100.85 917.85Z" fill="#FBFDFC" stroke="black" stroke-opacity="0.1" stroke-width="2" stroke-linecap="round" stroke-linejoin="round"/>
<path d="M98 928.47L100.85 917.85L140.77 957.77L137.92 968.4L98 928.47Z" fill="#E8E0B0" stroke="black" stroke-opacity="0.1" stroke-width="2" stroke-linecap="round" stroke-linejoin="round"/>
</g>
<defs>
<clipPath id="clip0_1022_18982">
<rect width="149.044" height="240" fill="white" transform="translate(153 992)"/>
</clipPath>
<clipPath id="clip1_1022_18982">
<rect width="237.52" height="128.77" fill="white" transform="translate(190 862)"/>
</clipPath>
<clipPath id="clip2_1022_18982">
<rect width="236.579" height="180" fill="white" transform="translate(1507 1052)"/>
</clipPath>
<clipPath id="clip3_1022_18982">
<rect width="166.58" height="206.01" fill="white" transform="translate(1530 847)"/>
</clipPath>
<clipPath id="clip4_1022_18982">
<rect width="21.06" height="76.48" fill="white" transform="translate(1754 864)"/>
</clipPath>
<clipPath id="clip5_1022_18982">
<rect width="32.7" height="37.27" fill="white" transform="translate(1773 1028)"/>
</clipPath>
<clipPath id="clip6_1022_18982">
<rect width="55.4" height="55.4" fill="white" transform="translate(97 914)"/>
</clipPath>
</defs>
</svg>
