<svg width="1919" height="1080" viewBox="0 0 1919 1080" fill="none" xmlns="http://www.w3.org/2000/svg">
<g style="mix-blend-mode:multiply" opacity="0.24">
<path d="M1546.09 329.572H1573.98C1575.31 329.572 1576.51 328.181 1577.4 327.321C1580.32 325.903 1582.38 322.016 1584.12 319.371C1585.97 316.534 1587 313.111 1587 309.715C1587 299.664 1578.39 291.467 1567.75 291.467C1565.86 291.467 1564.03 291.713 1562.31 292.19C1560.67 277.843 1548.62 266.688 1533.98 266.688C1522.53 266.688 1512.66 273.493 1508.13 283.326C1506.15 282.18 1503.87 281.526 1501.43 281.526C1493.99 281.526 1487.95 287.622 1487.95 295.136C1487.95 295.968 1488.04 296.773 1488.17 297.564C1486.62 297.032 1484.96 296.732 1483.23 296.732C1474.82 296.732 1468 303.619 1468 312.115C1468 319.807 1473.59 327.049 1480.89 328.181C1481.56 328.522 1482.31 329.585 1483.11 329.585H1546.09V329.572Z" fill="#A4C7FF"/>
</g>
<g style="mix-blend-mode:multiply" opacity="0.24">
<path d="M347.816 930.748H306.334C304.386 930.748 302.582 929.573 301.248 928.327C296.919 926.263 293.817 921.029 291.256 917.185C288.515 913.055 287 908.285 287 903.336C287 888.705 299.805 876.885 315.64 876.885C318.454 876.885 321.159 877.277 323.72 877.989C326.137 857.128 344.064 840.93 365.851 840.93C382.877 840.93 397.558 850.862 404.303 865.138C407.225 863.464 410.651 862.539 414.258 862.539C425.332 862.539 434.314 871.403 434.314 882.332C434.314 883.543 434.206 884.717 433.989 885.857C436.298 885.073 438.751 884.646 441.348 884.646C453.864 884.646 464 894.65 464 907.039C464 918.217 455.704 927.9 444.81 929.573C443.8 930.072 442.682 930.784 441.528 930.784H347.852L347.816 930.748Z" fill="#A4C7FF"/>
</g>
<g style="mix-blend-mode:multiply" opacity="0.24">
<path d="M373.362 249.73H327.661C325.516 249.73 323.528 248.438 322.058 247.067C317.289 244.796 313.872 239.039 311.05 234.81C308.03 230.267 306.361 225.02 306.361 219.577C306.361 203.482 320.469 190.481 337.914 190.481C341.014 190.481 343.994 190.912 346.816 191.695C349.478 168.747 369.229 150.93 393.231 150.93C411.988 150.93 428.162 161.855 435.593 177.558C438.812 175.718 442.587 174.7 446.561 174.7C458.761 174.7 468.656 184.451 468.656 196.473C468.656 197.804 468.537 199.096 468.299 200.349C470.842 199.488 473.544 199.018 476.405 199.018C490.195 199.018 501.361 210.022 501.361 223.65C501.361 235.946 492.222 246.597 480.22 248.438C479.108 248.986 477.876 249.769 476.604 249.769H373.401L373.362 249.73Z" fill="#A4C7FF"/>
</g>
<path d="M407.685 237.987C404.674 237.987 401.828 238.565 399.287 239.602C394.042 241.736 388.02 240.828 383.621 237.256C378 232.682 370.837 229.935 363.028 229.935C358.041 229.935 353.325 231.055 349.102 233.059C346.55 222.696 337.212 215.01 326.086 215.01H326.039C323.51 215.01 321.193 213.642 319.958 211.437C312.125 197.479 296.589 188.436 279.124 190.134C259.153 192.067 243.182 208.29 241.453 228.32C241.441 228.485 241.429 228.65 241.417 228.815C240.559 240.239 249.674 249.93 261.106 249.93H426.361C424.068 243.045 416.588 237.987 407.696 237.987H407.685Z" fill="#ABC3FF"/>
<path d="M1665.68 535.99H1686.51C1687.5 535.99 1688.39 534.95 1689.06 534.308C1691.24 533.248 1692.78 530.344 1694.08 528.367C1695.46 526.247 1696.23 523.689 1696.23 521.152C1696.23 513.641 1689.8 507.517 1681.85 507.517C1680.44 507.517 1679.08 507.7 1677.79 508.057C1676.57 497.336 1667.57 489 1656.64 489C1648.09 489 1640.72 494.085 1637.33 501.433C1635.86 500.577 1634.15 500.088 1632.33 500.088C1626.77 500.088 1622.27 504.643 1622.27 510.258C1622.27 510.88 1622.33 511.481 1622.43 512.072C1621.27 511.675 1620.03 511.45 1618.74 511.45C1612.46 511.45 1607.37 516.597 1607.37 522.946C1607.37 528.693 1611.54 534.104 1617 534.95C1617.49 535.205 1618.05 536 1618.65 536H1665.68V535.99Z" fill="#ABC3FF"/>
<g style="mix-blend-mode:multiply" opacity="0.24">
<path d="M1687.82 210.748H1646.33C1644.39 210.748 1642.58 209.573 1641.25 208.327C1636.92 206.263 1633.82 201.029 1631.26 197.185C1628.51 193.055 1627 188.285 1627 183.336C1627 168.705 1639.8 156.885 1655.64 156.885C1658.45 156.885 1661.16 157.277 1663.72 157.989C1666.14 137.128 1684.06 120.93 1705.85 120.93C1722.88 120.93 1737.56 130.862 1744.3 145.138C1747.22 143.464 1750.65 142.539 1754.26 142.539C1765.33 142.539 1774.31 151.403 1774.31 162.332C1774.31 163.543 1774.21 164.717 1773.99 165.857C1776.3 165.073 1778.75 164.646 1781.35 164.646C1793.86 164.646 1804 174.65 1804 187.039C1804 198.217 1795.7 207.9 1784.81 209.573C1783.8 210.072 1782.68 210.784 1781.53 210.784H1687.85L1687.82 210.748Z" fill="#A4C7FF"/>
</g>
<path d="M435.68 885.99H456.509C457.497 885.99 458.395 884.95 459.06 884.308C461.238 883.248 462.78 880.344 464.081 878.367C465.462 876.247 466.228 873.689 466.228 871.152C466.228 863.641 459.796 857.517 451.852 857.517C450.44 857.517 449.079 857.7 447.789 858.057C446.569 847.336 437.566 839 426.637 839C418.088 839 410.718 844.085 407.33 851.433C405.858 850.577 404.155 850.088 402.33 850.088C396.775 850.088 392.268 854.643 392.268 860.258C392.268 860.88 392.329 861.481 392.429 862.072C391.27 861.675 390.03 861.45 388.739 861.45C382.458 861.45 377.367 866.597 377.367 872.946C377.367 878.693 381.541 884.104 386.995 884.95C387.489 885.205 388.054 886 388.649 886H435.68V885.99Z" fill="#ABC3FF"/>
<g style="mix-blend-mode:multiply" opacity="0.24">
<path d="M1722.05 1062.88H1670.73C1668.32 1062.88 1666.09 1061.43 1664.44 1059.89C1659.08 1057.34 1655.24 1050.89 1652.07 1046.15C1648.68 1041.05 1646.81 1035.17 1646.81 1029.07C1646.81 1011.02 1662.65 996.445 1682.24 996.445C1685.72 996.445 1689.07 996.928 1692.24 997.806C1695.23 972.077 1717.41 952.1 1744.37 952.1C1765.43 952.1 1783.6 964.349 1791.94 981.956C1795.56 979.892 1799.8 978.751 1804.26 978.751C1817.96 978.751 1829.08 989.684 1829.08 1003.16C1829.08 1004.66 1828.94 1006.1 1828.67 1007.51C1831.53 1006.54 1834.57 1006.02 1837.78 1006.02C1853.27 1006.02 1865.81 1018.35 1865.81 1033.63C1865.81 1047.42 1855.54 1059.36 1842.06 1061.43C1840.81 1062.04 1839.43 1062.92 1838 1062.92H1722.1L1722.05 1062.88Z" fill="#A4C7FF"/>
</g>
<path d="M1918.81 1090.1V981.396C1916.9 981.161 1914.95 981.043 1912.97 981.043C1903.66 981.043 1894.97 983.674 1887.59 988.22C1884.33 990.24 1880.19 990.087 1877.08 987.844C1869.14 982.124 1859.32 978.847 1848.72 979.117C1824.1 979.751 1804.09 999.778 1803.55 1024.31C1803.44 1029.33 1804.12 1034.17 1805.5 1038.71C1805.98 1040.29 1805.73 1041.99 1804.83 1043.35C1802.97 1046.18 1801.9 1049.56 1801.9 1053.19C1801.9 1053.76 1801.93 1054.32 1801.98 1054.88C1797.29 1053.01 1792.03 1051.96 1786.47 1051.96C1766.86 1051.96 1750.96 1064.99 1750.96 1081.06C1750.96 1081.07 1750.96 1081.09 1750.96 1081.1C1749.24 1080.69 1747.44 1080.46 1745.61 1080.46C1737.95 1080.46 1731.18 1084.28 1727.11 1090.1H1918.81Z" fill="#ABC3FF"/>
</svg>
