<svg width="1920" height="1004" viewBox="0 0 1920 1004" fill="none" xmlns="http://www.w3.org/2000/svg">
<g opacity="0.4" clip-path="url(#clip0_1054_1400)">
<path d="M50.9276 696.039C45.1212 694.313 40.3607 689.352 37.2952 684.355C35.8526 682.055 35.0953 679.502 35.3477 676.914C34.8428 677.094 34.3018 677.202 33.6527 677.13C25.2496 676.375 16.9908 686.117 12.1221 691.545C4.90915 699.634 -2.12345 707.938 -8.97573 716.35C-15.2149 724.043 -21.2377 731.915 -27.1162 739.932C-29.8932 743.742 -32.6702 747.589 -35.375 751.435C-37.7553 754.815 -40.5683 758.409 -39.2339 762.759C-37.1422 769.589 -29.2801 774.478 -23.1852 777.247C-15.8641 780.554 -7.42495 781.992 0.184685 778.72C7.54187 775.557 13.1319 769.41 18.2891 763.55C24.8168 756.181 31.056 748.56 37.0427 740.723C42.6688 733.353 48.5834 725.804 53.1636 717.716C56.8062 711.317 58.4291 703.516 55.6521 696.65C54.1013 696.65 52.5145 696.47 50.9637 696.003L50.9276 696.039Z" fill="#F7C158"/>
<path d="M56.0821 662.57C53.7019 665.194 51.2495 667.782 48.8692 670.37C47.1381 672.24 44.9382 674.145 43.7841 676.446C42.8103 678.351 43.9644 679.933 45.0824 681.479C47.3545 684.57 50.961 688.453 54.9281 688.596C56.8395 688.668 58.4263 687.446 59.8328 686.116C61.7803 684.319 63.4754 682.269 65.1704 680.22C67.0818 677.92 68.8851 675.511 70.544 673.031C71.9866 670.91 73.2128 668.645 74.6554 666.524C74.6554 666.488 74.6554 666.452 74.6554 666.416C69.8227 663.792 65.2065 660.7 60.9508 657.105C59.4001 659.011 57.669 660.772 56.0461 662.57H56.0821Z" fill="#E0DFD6"/>
<path d="M152.52 532.651C144.405 528.84 135.786 526.54 126.914 525.318C119.881 524.383 112.777 524.491 105.708 524.203C99.7934 525.066 93.9149 526.504 88.3609 528.661C72.0597 534.988 57.9945 547.21 50.3488 562.992C36.5361 591.427 41.7654 627.376 66.073 648.513C78.2268 659.082 93.6624 665.769 109.783 666.991C125.868 668.213 141.917 663.468 155.333 654.696C170.192 644.954 182.922 630.359 188.801 613.463C194.03 598.509 192.66 581.793 186.349 567.377C179.677 552.099 167.631 539.769 152.484 532.687L152.52 532.651ZM173.401 601.636C171.201 615.584 161.897 625.434 150.861 633.523C140.727 640.928 129.258 646.213 116.6 646.932C104.59 647.615 92.2559 644.523 82.4824 637.369C73.5023 630.791 67.0467 621.192 64.1616 610.516C60.7354 597.862 63.8009 584.956 69.968 573.668C76.135 562.309 84.9709 551.632 96.5115 545.413C103.364 541.71 113.642 538.619 122.19 540.164C128.14 539.805 134.091 540.524 139.753 542.357C152.123 546.347 161.933 555.586 167.811 567.018C173.185 577.479 175.241 590.025 173.401 601.672V601.636Z" fill="#E0DFD6"/>
<path d="M133.187 549.831C128.715 548.861 124.135 548.753 119.591 549.4C115.191 550.011 110.647 550.478 106.355 551.629C105.165 551.952 104.408 551.233 104.155 550.335C101.09 551.773 98.1685 553.57 95.4637 555.619C85.5459 563.24 77.6478 574.6 73.5364 586.355C66.9005 605.372 76.3855 626.654 94.9588 634.706C104.408 638.804 115.011 639.487 125.001 637.007C135.423 634.418 144.764 627.984 152.698 620.902C161.498 612.993 165.79 603.395 165.213 591.532C164.744 582.041 161.57 572.371 155.872 564.75C150.282 557.273 142.384 551.845 133.223 549.831H133.187ZM158.433 604.797C157.531 607.565 156.233 610.297 154.285 612.49C152.121 614.898 150.282 616.552 146.892 616.372C146.134 616.336 145.521 615.689 145.341 614.97C144.295 610.189 147.721 605.48 149.236 601.058C150.607 596.96 151.075 592.538 150.498 588.296C149.921 584.09 148.407 580.208 146.351 576.469C145.377 574.708 144.259 573.09 143.177 571.401C141.915 569.459 140.184 568.201 140.148 565.721C140.148 564.498 141.338 563.42 142.456 563.204C145.016 562.701 147.613 565.002 149.489 566.583C151.544 568.309 153.311 570.394 154.718 572.695C157.531 577.116 159.406 582.041 160.128 587.254C160.921 593.149 160.308 599.153 158.433 604.797Z" fill="#319FE8"/>
<path d="M199.586 575.321C194.284 555.37 181.481 537.971 163.485 527.546C154 522.046 143.433 518.199 132.542 516.545C129.584 516.114 126.555 515.791 123.489 515.683C112.598 513.957 100.66 515.647 90.8148 518.559C73.648 523.663 58.2484 533.621 47.7897 548.288C27.1246 577.299 27.882 619.502 50.8191 647.003C52.3338 648.836 53.9206 650.562 55.5796 652.215C53.6682 653.941 51.865 655.774 50.1339 657.572C47.4651 660.268 44.9045 663.036 42.2718 665.768C40.3964 667.709 38.4129 669.65 37.0063 671.951C36.5375 670.909 35.6359 670.01 34.1933 669.758C25.682 668.212 16.7741 674.971 11.4365 680.723C3.3941 689.35 -4.35979 698.301 -11.8973 707.36C-19.1463 716.096 -26.1789 724.975 -32.9951 734.034C-36.4212 738.564 -39.7753 743.093 -43.0211 747.767C-46.0866 752.152 -48.6111 756.79 -47.9259 762.326C-46.8079 771.133 -39.1622 777.856 -31.9492 782.133C-23.9068 786.879 -14.6743 789.862 -5.26141 788.82C4.58424 787.741 12.7348 781.63 19.4068 774.692C26.8722 766.963 33.7245 758.551 40.3603 750.103C48.2224 740.074 57.0222 729.541 62.3598 717.929C65.7138 710.632 66.9039 701.249 62.6844 694.599C64.8843 693.197 66.6875 691.255 68.4186 689.386C71.0874 686.51 73.5759 683.491 75.884 680.291C78.1921 677.128 80.6806 673.713 82.2674 670.118C103.473 679.069 128.106 679.321 149.708 669.219C167.164 661.059 182.419 647.147 191.976 630.431C201.605 613.607 204.563 594.158 199.55 575.321H199.586ZM53.1272 717.75C48.511 725.838 42.6324 733.351 37.0063 740.757C31.0196 748.593 24.7804 756.179 18.2527 763.584C13.0594 769.444 7.46941 775.591 0.148285 778.754C-7.46135 782.026 -15.8644 780.588 -23.2216 777.28C-29.3165 774.512 -37.2147 769.623 -39.2704 762.793C-40.6047 758.407 -37.7917 754.849 -35.4114 751.469C-32.7066 747.623 -29.9296 743.776 -27.1526 739.966C-21.3102 731.949 -15.2513 724.113 -9.01213 716.384C-2.19592 707.936 4.83669 699.667 12.0857 691.579C16.9544 686.115 25.2132 676.373 33.6163 677.164C34.2654 677.236 34.8425 677.128 35.3113 676.948C35.0588 679.536 35.8523 682.089 37.2588 684.389C40.3603 689.386 45.0848 694.347 50.8912 696.073C52.442 696.54 54.0288 696.756 55.5796 696.72C58.3566 703.586 56.7337 711.387 53.0912 717.786L53.1272 717.75ZM74.6939 666.559C73.2513 668.68 72.0251 670.945 70.5825 673.066C68.8875 675.546 67.0842 677.955 65.2089 680.255C63.5138 682.304 61.8188 684.317 59.8713 686.151C58.4648 687.481 56.914 688.667 54.9665 688.631C50.9994 688.523 47.3929 684.605 45.1209 681.513C43.9668 679.968 42.8488 678.386 43.8225 676.481C44.9766 674.18 47.1766 672.275 48.9077 670.405C51.324 667.817 53.7764 665.229 56.1206 662.604C57.7074 660.843 59.4746 659.046 61.0254 657.14C65.281 660.735 69.8973 663.791 74.7299 666.451C74.7299 666.487 74.7299 666.523 74.7299 666.559H74.6939ZM188.875 613.463C182.96 630.359 170.265 644.918 155.407 654.696C141.99 663.503 125.906 668.212 109.857 666.99C93.736 665.768 78.3003 659.082 66.1466 648.513C41.8029 627.375 36.6096 591.462 50.4224 562.991C58.0681 547.21 72.1333 534.987 88.4345 528.66C93.9885 526.503 99.8309 525.065 105.782 524.203C112.85 524.49 119.955 524.346 126.988 525.317C135.859 526.503 144.479 528.84 152.593 532.65C167.741 539.732 179.822 552.063 186.458 567.341C192.769 581.756 194.14 598.472 188.911 613.427L188.875 613.463Z" fill="#333333"/>
<path d="M139.753 542.358C134.055 540.525 128.141 539.806 122.19 540.165C113.643 538.619 103.364 541.711 96.5119 545.414C84.9712 551.633 76.1714 562.31 69.9683 573.669C63.8373 584.957 60.7358 597.863 64.1619 610.517C67.0471 621.193 73.5026 630.828 82.4827 637.37C92.2562 644.524 104.59 647.58 116.6 646.933C129.259 646.214 140.727 640.929 150.861 633.524C161.897 625.435 171.202 615.585 173.402 601.637C175.241 590.026 173.185 577.48 167.812 566.983C161.933 555.551 152.124 546.312 139.753 542.322V542.358ZM152.701 620.906C144.802 627.988 135.462 634.422 125.003 637.011C115.013 639.491 104.41 638.808 94.9611 634.71C76.3878 626.658 66.9028 605.376 73.5387 586.359C77.6501 574.568 85.5482 563.244 95.466 555.623C98.1708 553.538 101.092 551.777 104.158 550.339C104.41 551.237 105.167 551.956 106.358 551.633C110.649 550.483 115.193 550.015 119.593 549.404C124.101 548.757 128.718 548.865 133.19 549.835C142.386 551.849 150.284 557.277 155.838 564.754C161.536 572.375 164.71 582.081 165.179 591.536C165.756 603.399 161.5 612.997 152.664 620.906H152.701Z" fill="#333333"/>
<path d="M149.489 566.586C147.614 565.005 145.017 562.704 142.457 563.207C141.339 563.423 140.148 564.501 140.148 565.724C140.148 568.204 141.916 569.426 143.178 571.404C144.26 573.057 145.378 574.711 146.352 576.472C148.407 580.211 149.922 584.093 150.499 588.299C151.112 592.577 150.643 596.999 149.237 601.061C147.722 605.519 144.296 610.192 145.342 614.973C145.486 615.692 146.099 616.339 146.893 616.375C150.283 616.555 152.086 614.937 154.286 612.493C156.233 610.336 157.496 607.568 158.433 604.8C160.309 599.156 160.922 593.152 160.128 587.257C159.443 582.044 157.532 577.119 154.719 572.698C153.276 570.433 151.545 568.348 149.489 566.586Z" fill="#67B7ED"/>
</g>
<g opacity="0.5" clip-path="url(#clip1_1054_1400)">
<path d="M1824.76 339.563C1831.61 332.039 1840.07 325.859 1847.84 319.321C1862.66 306.847 1877.31 294.154 1891.76 281.226C1898.98 274.776 1906.16 268.277 1913.31 261.704C1916.88 258.417 1920.42 255.136 1923.96 251.828C1925.78 250.12 1927.64 248.405 1929.46 246.67C1930.3 245.873 1931.08 245.147 1931.94 244.598C1929.19 242.993 1926.27 241.676 1923.25 240.575C1910.39 249.992 1898.2 260.28 1886.19 270.754C1874.98 280.55 1863.83 290.421 1852.66 300.238C1842.7 309.011 1832.36 317.471 1823.02 326.9C1820.08 329.856 1817.29 332.977 1814.73 336.246C1817.99 336.815 1821.59 338.157 1822.6 338.559C1823.34 338.852 1824.06 339.205 1824.81 339.551L1824.76 339.563Z" fill="#319FE8"/>
<path d="M1925.45 256.456C1921.51 260.13 1917.56 263.777 1913.59 267.403C1899.15 280.611 1884.55 293.599 1869.75 306.381C1862.41 312.714 1855.04 318.972 1847.6 325.215C1841.11 330.639 1834.67 336.39 1827.51 340.889C1830.95 342.685 1834.26 344.79 1837.15 347.293C1838.9 348.775 1840.52 350.426 1842.08 352.115C1843.1 350.298 1844.93 349.009 1846.5 347.638C1848.53 345.857 1850.57 344.076 1852.54 342.253C1856.55 338.621 1860.59 335.065 1864.63 331.481C1879.06 318.753 1893.33 305.833 1907.44 292.78C1914.57 286.179 1921.65 279.564 1928.71 272.867C1932.24 269.533 1935.74 266.177 1939.23 262.794C1941.06 261.059 1942.85 259.302 1944.66 257.54C1944.94 257.283 1945.2 257.032 1945.49 256.802C1943.73 254.34 1941.67 252.053 1939.58 250.165C1938.19 248.916 1936.72 247.77 1935.17 246.721C1934.4 248.261 1933.09 249.327 1931.73 250.599C1929.64 252.559 1927.53 254.524 1925.42 256.489L1925.45 256.456Z" fill="#F7C158"/>
<path d="M1929.31 278.97C1915.2 292.303 1900.93 305.503 1886.47 318.437C1879.21 324.893 1871.96 331.322 1864.64 337.709C1860.99 340.9 1857.27 343.995 1853.55 347.116C1851.62 348.734 1849.69 350.352 1847.78 351.965C1846.57 352.982 1845.5 353.91 1844.13 354.455C1845.61 356.275 1847 358.198 1848.22 360.214C1849.61 362.557 1851.18 365.287 1851.96 368.068C1856.6 364.753 1860.72 360.646 1864.84 356.765L1884.05 338.666C1896.85 326.593 1909.65 314.521 1922.45 302.502C1928.87 296.476 1935.29 290.477 1941.68 284.457C1946.59 279.818 1951.72 274.599 1950.3 267.261C1949.9 265.127 1949.09 263.052 1948.08 261.049C1947.8 261.305 1947.51 261.562 1947.26 261.84C1945.33 263.711 1943.37 265.588 1941.43 267.433C1937.42 271.291 1933.38 275.127 1929.3 278.943L1929.31 278.97Z" fill="#4DCC80"/>
<path d="M1813.27 379.608C1812.49 377.5 1811.8 376.496 1810.47 374.642C1809.24 372.938 1808.1 371.804 1806.34 370.634C1804.77 369.592 1802.72 368.959 1800.96 368.07C1800.77 367.97 1800.6 367.837 1800.43 367.677C1799.06 373.642 1797.78 379.644 1795.71 385.364C1801.71 383.864 1807.71 382.364 1813.69 380.897C1813.57 380.472 1813.42 380.054 1813.27 379.608Z" fill="#4149BB"/>
<path d="M1810.78 367.247C1813.36 369.059 1815.61 371.192 1817.2 373.916C1818.16 375.537 1819.05 377.455 1819.63 379.41C1828.18 377.367 1837.05 375.622 1845.05 372.039C1845.5 368.462 1842.39 364.237 1840.51 361.517C1837.96 357.819 1834.92 354.477 1831.45 351.62C1827.81 348.658 1824.04 346.117 1819.73 344.223C1817.66 343.316 1815.56 342.442 1813.42 341.718C1812.72 341.501 1811.95 341.273 1811.21 340.98C1807.8 345.973 1805.02 351.368 1803.16 357.268C1802.47 359.464 1801.88 361.697 1801.31 363.924C1801.39 363.906 1801.47 363.889 1801.58 363.866C1804.89 363.697 1808.14 365.393 1810.78 367.247Z" fill="#EFCC8C"/>
<path d="M1789.85 394.278C1799.02 391.991 1808.2 389.731 1817.35 387.449C1826.47 385.173 1835.98 383.404 1844.8 380.098C1853.28 376.919 1859.97 371.369 1866.47 365.24C1873.4 358.739 1880.33 352.211 1887.26 345.684C1901.28 332.508 1915.3 319.332 1929.26 306.113C1935.88 299.848 1942.69 293.736 1949.13 287.258C1954.41 281.978 1958.54 275.538 1957.65 267.752C1956.66 259.423 1951.26 251.724 1945.41 246.002C1939.59 240.301 1932.46 236.314 1924.53 234.459C1923.39 233.298 1921.62 232.775 1919.94 234.002C1895.83 251.513 1873.9 271.902 1851.55 291.596C1840.95 300.927 1830.02 310.019 1819.87 319.872C1811.1 328.421 1802.98 337.927 1798.24 349.353C1792.9 362.257 1792.64 376.749 1786.03 389.162C1784.83 391.413 1787.17 394.876 1789.78 394.236L1789.85 394.278ZM1948.08 261.051C1949.09 263.054 1949.9 265.13 1950.3 267.264C1951.72 274.602 1946.59 279.82 1941.68 284.459C1935.29 290.48 1928.84 296.484 1922.45 302.504C1909.63 314.556 1896.85 326.623 1884.05 338.669L1864.84 356.768C1860.72 360.648 1856.6 364.755 1851.96 368.071C1851.17 365.263 1849.61 362.56 1848.22 360.217C1847 358.2 1845.61 356.277 1844.13 354.458C1845.5 353.913 1846.57 352.984 1847.78 351.968C1849.71 350.349 1851.64 348.731 1853.55 347.119C1857.27 343.997 1860.99 340.903 1864.64 337.712C1871.96 331.325 1879.25 324.917 1886.46 318.44C1900.93 305.506 1915.2 292.306 1929.31 278.972C1933.35 275.136 1937.39 271.299 1941.44 267.463C1943.37 265.591 1945.33 263.741 1947.27 261.869C1947.55 261.613 1947.83 261.356 1948.08 261.078L1948.08 261.051ZM1935.17 246.691C1936.68 247.745 1938.19 248.886 1939.58 250.135C1941.67 252.05 1943.72 254.309 1945.48 256.772C1945.19 257.002 1944.94 257.253 1944.66 257.51C1942.84 259.272 1941.05 261.001 1939.23 262.764C1935.73 266.12 1932.23 269.476 1928.7 272.837C1921.67 279.528 1914.57 286.149 1907.43 292.749C1893.3 305.808 1879.03 318.729 1864.63 331.451C1860.59 335.035 1856.51 338.57 1852.54 342.222C1850.54 344.051 1848.5 345.806 1846.49 347.608C1844.93 348.979 1843.1 350.267 1842.08 352.085C1840.54 350.39 1838.9 348.772 1837.15 347.262C1834.26 344.759 1830.95 342.655 1827.5 340.859C1834.69 336.354 1841.14 330.603 1847.59 325.185C1855.04 318.969 1862.41 312.684 1869.74 306.351C1884.55 293.569 1899.17 280.575 1913.58 267.372C1917.56 263.747 1921.5 260.1 1925.44 256.426C1927.55 254.461 1929.63 252.502 1931.74 250.536C1933.07 249.27 1934.39 248.204 1935.19 246.659L1935.17 246.691ZM1823.02 326.925C1832.37 317.496 1842.7 309.036 1852.66 300.263C1863.83 290.419 1874.98 280.548 1886.19 270.779C1898.21 260.305 1910.4 250.018 1923.26 240.601C1926.27 241.701 1929.19 243.018 1931.95 244.623C1931.08 245.172 1930.31 245.898 1929.47 246.695C1927.64 248.404 1925.82 250.139 1923.96 251.853C1920.42 255.161 1916.85 258.448 1913.31 261.729C1906.17 268.302 1899.01 274.795 1891.76 281.251C1877.31 294.152 1862.65 306.846 1847.84 319.347C1840.08 325.885 1831.62 332.064 1824.76 339.588C1824.02 339.268 1823.3 338.916 1822.56 338.596C1821.57 338.188 1817.94 336.852 1814.68 336.283C1817.24 333.013 1820.04 329.919 1822.97 326.937L1823.02 326.925ZM1803.16 357.268C1805.02 351.367 1807.81 345.972 1811.21 340.98C1811.95 341.273 1812.75 341.468 1813.42 341.718C1815.57 342.441 1817.66 343.316 1819.74 344.223C1824.04 346.116 1827.81 348.657 1831.45 351.62C1834.92 354.477 1837.95 357.792 1840.52 361.517C1842.39 364.237 1845.48 368.467 1845.06 372.039C1837.06 375.649 1828.16 377.372 1819.63 379.409C1819.05 377.455 1818.16 375.537 1817.2 373.916C1815.61 371.192 1813.33 369.064 1810.78 367.247C1808.14 365.393 1804.89 363.697 1801.58 363.866C1801.5 363.883 1801.42 363.9 1801.31 363.923C1801.88 361.697 1802.45 359.47 1803.16 357.268ZM1800.42 367.652C1800.57 367.817 1800.74 367.95 1800.95 368.044C1802.72 368.96 1804.76 369.566 1806.33 370.609C1808.09 371.778 1809.23 372.912 1810.47 374.616C1811.81 376.438 1812.47 377.448 1813.26 379.583C1813.41 380.001 1813.55 380.42 1813.68 380.871C1807.68 382.371 1801.68 383.871 1795.7 385.339C1797.8 379.613 1799.05 373.617 1800.42 367.652Z" fill="#333333"/>
</g>
<g opacity="0.5" clip-path="url(#clip2_1054_1400)">
<path d="M1759.57 942.813C1759.41 941.513 1759.26 940.214 1759.08 938.915C1757.3 925.182 1756.06 905.713 1746.54 894.596C1735.95 882.218 1719.35 880.101 1702.22 881.288C1684.39 882.515 1665.06 893.954 1650.87 904.791C1643.73 910.254 1640.71 916.166 1631.05 914.561C1621.38 912.957 1612.35 908.681 1602.63 907.205C1583.76 904.35 1563.99 904.262 1546.68 912.01C1531.43 918.829 1514.33 932.61 1520.17 951.356C1523.97 963.557 1530.58 975.509 1535.64 987.26C1540.8 999.228 1545.95 1011.2 1551.11 1023.17C1557.01 1036.88 1567.22 1054.62 1585.27 1050.35C1595.51 1047.92 1604.61 1041.81 1615.36 1039.82C1627.64 1037.54 1639.28 1040.35 1651.3 1039.35C1664.03 1038.3 1676.66 1032.28 1688.57 1028.11C1700.32 1023.97 1714.1 1022.73 1726.47 1024.62C1740.08 1026.71 1755.11 1026.02 1757.59 1010.3C1761.15 987.822 1762.15 965.402 1759.57 942.813Z" fill="#333333"/>
<path d="M1747.27 916.152C1747.03 912.951 1746.55 909.751 1744.97 906.991C1740.83 899.732 1730.76 902.042 1723.84 901.809C1709.36 901.32 1694.87 904.031 1681.23 908.724C1667.54 913.433 1654.88 920.949 1643.81 930.23C1642.35 931.457 1638.62 936.262 1636.32 935.227C1632.47 933.478 1628.5 931.994 1624.51 930.583C1617.21 927.992 1609.68 926.123 1602.09 924.655C1587.86 921.903 1572.89 920.467 1558.5 922.737C1551.25 923.885 1543.99 926.05 1537.83 930.141C1532.91 933.414 1524.57 940.866 1525.23 947.356C1525.75 952.401 1529.6 957.623 1531.79 962.099C1534.61 967.899 1537.36 973.73 1540.04 979.594C1548.36 997.803 1555.8 1016.37 1564.06 1034.61C1565.27 1037.3 1566.49 1038.86 1569.17 1040.13C1573.43 1042.15 1578.49 1039.2 1582.4 1037.64C1587.4 1035.63 1592.55 1034.01 1597.77 1032.7C1610.18 1029.61 1623.14 1028.31 1635.9 1029.17C1647.19 1029.94 1657.57 1031.62 1668.69 1027.88C1679.98 1024.07 1690.4 1018.45 1702.1 1015.8C1708.83 1014.27 1715.73 1013.51 1722.63 1013.52C1729.32 1013.53 1735.73 1015.7 1742.23 1015.65C1753.43 1015.56 1751.01 1004.06 1751.52 996.102C1752.06 987.559 1751.95 978.992 1751.52 970.449C1750.64 953.043 1748.41 935.74 1747.4 918.342C1747.36 917.612 1747.32 916.874 1747.26 916.136L1747.27 916.152Z" fill="#4DCC80"/>
<path d="M1743.57 1002.27C1743.65 1000.71 1743.38 999.141 1743.1 997.4C1742.56 993.951 1742.46 990.342 1742.13 986.86C1741.42 979.368 1740.71 971.884 1740 964.392C1738.96 953.354 1737.99 942.309 1736.88 931.279C1736.1 923.586 1735.6 915.862 1734.57 908.193C1734.21 905.594 1734.37 901.11 1732.37 899.225C1730.24 897.228 1726.26 897.22 1723.75 898.263C1689.56 900.011 1657.66 918.653 1641.32 945.838C1613.04 924.188 1571.88 918.284 1536.8 931.071C1535.85 931.415 1535.08 931.865 1534.45 932.394C1532.07 933.902 1530.68 936.517 1532.06 939.654L1570.56 1027.22C1572 1030.51 1576.03 1032.27 1579.83 1030.99C1606.49 1021.97 1630.78 1011.89 1652.89 1027.5C1655.71 1029.49 1660.82 1029.66 1663.1 1026.62C1677.48 1007.48 1707.84 1009.86 1733.42 1011.67C1737.23 1011.94 1740.87 1009.32 1742.56 1006.02C1743.23 1004.72 1743.51 1003.5 1743.57 1002.27H1743.57Z" fill="#EEEFEF"/>
<path d="M1736.74 998.341C1737.81 995.413 1737.74 992.116 1737.38 988.98C1736.45 980.621 1736.27 972.239 1735.31 963.856C1734.52 957.022 1734.53 950.003 1734.03 943.105C1733.35 933.671 1732.39 924.254 1731.17 914.869C1730.57 910.297 1730.26 905.42 1729.07 900.976C1728.31 898.12 1727.28 894.037 1724.91 892.016C1725.41 894.149 1723.37 907.401 1723.13 909.679C1722.74 913.409 1722.61 917.155 1722.6 920.893C1722.58 928.385 1723.07 935.869 1722.99 943.361C1722.84 957.495 1720.46 972.487 1710.85 983.389C1698.65 997.234 1678.02 1001.14 1662.7 1011.85C1660.06 1013.69 1657.46 1015.79 1654.28 1016.47C1650.29 1017.33 1646.24 1015.79 1642.4 1014.5C1625.18 1008.7 1606.2 1007.56 1588.24 1011.22C1585.3 1011.83 1582.09 1012.51 1579.46 1011.2C1577.96 1010.45 1576.88 1009.15 1575.88 1007.86C1567.27 996.737 1561.8 983.758 1556.42 970.931C1550.31 956.388 1544.22 941.845 1538.11 927.302C1536.15 927.615 1534.82 929.524 1534.62 931.401C1534.17 935.548 1536.66 939.896 1538.08 943.682C1546.31 965.621 1556.15 986.389 1564.82 1008.09C1566.99 1013.49 1569.16 1022.97 1575.12 1024.28C1581.08 1025.59 1588.8 1021.15 1594.75 1020.23C1601.72 1019.16 1608.53 1016.85 1615.59 1016.89C1622.62 1016.93 1629.73 1017.84 1636.35 1020.08C1639.65 1021.19 1642.65 1021.83 1645.55 1023.67C1647.85 1025.14 1651.66 1027.7 1654.32 1028.24C1655.9 1028.56 1656.94 1028.45 1658.44 1027.88C1663.45 1026 1666.11 1023.26 1669.92 1019.85C1683.37 1007.84 1703.02 1004.73 1720.45 1005.62C1726.41 1005.92 1733.04 1005.7 1736.15 999.656C1736.37 999.215 1736.57 998.766 1736.73 998.309L1736.74 998.341Z" fill="#808080"/>
<path d="M1736.39 995.145C1736.74 991.792 1735.96 988.159 1735.64 984.814C1735.27 980.779 1734.9 976.744 1734.52 972.709C1732.53 951.236 1730.5 929.77 1728.48 908.304C1728.1 904.262 1727.72 900.219 1727.34 896.176C1726.84 890.922 1721.23 889.438 1717.31 891.13C1684.63 892.751 1654.22 911.256 1638.73 938.377C1611.62 916.623 1572.27 910.567 1538.79 923.208C1537.89 923.545 1537.15 924.003 1536.54 924.524C1534.28 926.016 1532.96 928.631 1534.29 931.775L1571.4 1019.45C1572.8 1022.74 1576.65 1024.53 1580.27 1023.25C1605.71 1014.34 1632.14 1011.77 1653.33 1027.46C1656.04 1029.46 1659.09 1030.02 1661.26 1027C1674.92 1007.92 1702.51 1002.62 1726.96 1004.52C1731.63 1004.88 1735.27 1000.86 1736.15 996.581C1736.24 996.108 1736.32 995.627 1736.37 995.145H1736.39Z" fill="#EEEFEF"/>
<path d="M1730.44 995.818C1732.15 991.07 1731.84 984.661 1731.65 980.722C1731.21 971.337 1730.28 963.468 1729.67 954.107C1728.17 931.245 1727.29 895.517 1721.06 889.902C1721.54 892.044 1719.68 905.272 1719.46 907.55C1719.11 911.272 1719 915.018 1719.01 918.756C1719.03 926.248 1719.53 933.724 1719.49 941.216C1719.41 955.342 1717.22 970.318 1708.18 981.171C1696.71 994.952 1677.21 998.762 1662.77 1009.4C1660.3 1011.23 1657.84 1013.31 1654.83 1013.98C1651.06 1014.81 1647.22 1013.26 1643.59 1011.95C1627.27 1006.09 1609.31 1004.85 1592.35 1008.42C1589.58 1009.01 1586.54 1009.68 1584.03 1008.36C1582.62 1007.6 1581.59 1006.3 1580.63 1005C1572.44 993.845 1567.21 980.842 1562.06 967.992C1556.22 953.425 1550.38 938.866 1544.54 924.299C1542.68 924.603 1541.43 926.505 1541.25 928.382C1540.85 932.529 1543.22 936.884 1544.59 940.679C1552.47 962.649 1560.53 984.468 1568.85 1006.2C1570.92 1011.61 1574.58 1017.11 1580.22 1018.44C1585.87 1019.77 1592.73 1016.87 1598.35 1015.98C1604.93 1014.93 1611.57 1014.15 1618.25 1014.22C1624.9 1014.29 1631.63 1015.24 1637.91 1017.51C1641.04 1018.64 1644.05 1020.09 1646.8 1021.95C1648.99 1023.43 1651.13 1026.82 1653.65 1027.38C1655.15 1027.7 1656.72 1027.38 1658.15 1026.81C1662.87 1024.95 1666.09 1020.85 1669.66 1017.44C1682.56 1005.14 1701.63 1001.95 1718.82 1002.26C1721.15 1002.3 1723.56 1002.24 1725.72 1001.35C1728.08 1000.37 1729.55 998.321 1730.45 995.81L1730.44 995.818Z" fill="#808080"/>
<path d="M1730.34 988.907C1727.24 955.906 1724.15 922.906 1721.06 889.905C1720.57 884.651 1715.27 883.143 1711.58 884.811C1680.82 886.271 1652.27 904.617 1637.82 931.641C1612.18 909.758 1575.09 903.51 1543.63 915.983C1542.79 916.32 1542.09 916.769 1541.53 917.282C1539.4 918.766 1538.18 921.373 1539.44 924.518L1574.83 1012.35C1576.17 1015.64 1579.8 1017.45 1583.21 1016.2C1607.12 1007.42 1641.96 1013.29 1654.19 1027.39C1655.01 1028.33 1658.59 1028.88 1660.62 1025.86C1673.39 1006.85 1698.22 996.182 1721.25 998.212C1725.81 998.613 1730.76 993.423 1730.33 988.907H1730.34Z" fill="#EEEFEF"/>
<path d="M1650.15 983.242C1646.29 965.891 1641.69 948.982 1637.82 931.639C1637.41 929.827 1636.52 929.995 1636.92 931.792C1640.4 947.314 1642.74 963.252 1646.2 978.774C1650.04 995.956 1655.95 1010.19 1657.34 1027.78C1657.48 1029.64 1658.58 1029.77 1658.44 1027.91C1657.22 1012.19 1653.66 999.068 1650.14 983.242H1650.15Z" fill="#808080"/>
<path d="M1596.35 921.519C1596.51 921.535 1596.67 921.559 1596.83 921.575C1602.77 922.281 1608.5 923.765 1614.1 925.802C1618.45 927.375 1624.26 929.252 1627.48 932.797C1626.76 932.011 1623.63 931.666 1622.58 931.337C1620.48 930.688 1618.4 930.022 1616.3 929.38C1612.35 928.169 1608.37 926.933 1604.33 926.035C1593.47 923.629 1582.51 923.925 1571.56 925.634C1565.51 926.573 1559.23 928.979 1553.12 929.043C1553.49 929.043 1555.01 927.543 1555.44 927.278C1556.99 926.308 1558.65 925.778 1560.4 925.225C1571.94 921.591 1584.3 920.155 1596.35 921.519Z" fill="#808080"/>
<path d="M1601.28 935.035C1601.44 935.051 1601.6 935.075 1601.76 935.091C1607.69 935.797 1613.42 937.281 1619.03 939.318C1623.37 940.89 1629.18 942.767 1632.4 946.313C1631.68 945.527 1628.55 945.182 1627.5 944.853C1625.4 944.203 1623.32 943.537 1621.22 942.896C1617.27 941.684 1613.29 940.449 1609.26 939.551C1598.39 937.144 1587.43 937.441 1576.48 939.15C1570.43 940.088 1564.15 942.495 1558.04 942.559C1558.41 942.559 1559.93 941.059 1560.36 940.794C1561.91 939.823 1563.57 939.294 1565.32 938.741C1576.87 935.107 1589.23 933.671 1601.28 935.035Z" fill="#808080"/>
<path d="M1606.1 946.933C1606.26 946.949 1606.42 946.973 1606.58 946.989C1612.52 947.695 1618.25 949.179 1623.85 951.217C1628.2 952.789 1634.01 954.666 1637.23 958.211C1636.51 957.425 1633.38 957.08 1632.33 956.751C1630.23 956.102 1628.15 955.436 1626.05 954.794C1622.1 953.583 1618.12 952.348 1614.08 951.449C1603.22 949.043 1592.26 949.339 1581.31 951.048C1575.26 951.987 1568.98 954.393 1562.87 954.457C1563.24 954.457 1564.76 952.957 1565.19 952.692C1566.74 951.722 1568.4 951.192 1570.15 950.639C1581.69 947.005 1594.05 945.569 1606.1 946.933Z" fill="#808080"/>
<path d="M1609.92 960.985C1610.08 961.001 1610.24 961.025 1610.4 961.041C1616.34 961.747 1622.06 963.231 1627.67 965.268C1632.02 966.841 1637.83 968.718 1641.04 972.263C1640.33 971.477 1637.19 971.132 1636.14 970.803C1634.05 970.154 1631.96 969.488 1629.87 968.846C1625.91 967.635 1621.94 966.399 1617.9 965.501C1607.03 963.095 1596.07 963.391 1585.13 965.1C1579.08 966.038 1572.8 968.445 1566.68 968.509C1567.05 968.509 1568.58 967.009 1569 966.744C1570.56 965.774 1572.22 965.244 1573.97 964.691C1585.51 961.049 1597.87 959.621 1609.92 960.985Z" fill="#808080"/>
<path d="M1614.71 978.71C1614.87 978.726 1615.03 978.75 1615.19 978.767C1621.13 979.472 1626.85 980.956 1632.46 982.994C1636.81 984.566 1642.62 986.443 1645.83 989.989C1645.12 989.203 1641.98 988.858 1640.93 988.529C1638.84 987.879 1636.75 987.213 1634.66 986.571C1630.7 985.36 1626.72 984.125 1622.69 983.226C1611.82 980.82 1600.86 981.117 1589.91 982.825C1583.87 983.764 1577.59 986.17 1571.47 986.235C1571.84 986.235 1573.37 984.735 1573.79 984.47C1575.35 983.499 1577.01 982.97 1578.76 982.416C1590.3 978.783 1602.66 977.347 1614.71 978.71Z" fill="#808080"/>
<path d="M1671.64 913.111C1671.5 913.183 1671.36 913.247 1671.22 913.32C1666.05 915.895 1661.33 919.143 1656.89 922.865C1653.44 925.753 1648.78 929.387 1647.01 933.775C1647.4 932.804 1650.15 931.464 1650.99 930.823C1652.68 929.539 1654.37 928.24 1656.06 926.956C1659.26 924.542 1662.47 922.095 1665.85 919.945C1674.96 914.178 1685.03 910.937 1695.54 909.02C1701.36 907.961 1707.85 908.218 1713.44 906.309C1713.1 906.421 1711.22 905.507 1710.75 905.394C1709.02 904.977 1707.33 905.009 1705.56 905.049C1693.87 905.33 1682.15 907.953 1671.64 913.111Z" fill="#808080"/>
<path d="M1672.6 925.153C1672.46 925.226 1672.32 925.29 1672.18 925.362C1667.03 927.929 1662.32 931.178 1657.89 934.9C1654.46 937.787 1649.8 941.413 1648.04 945.801C1648.43 944.83 1651.16 943.491 1652.01 942.849C1653.69 941.565 1655.37 940.266 1657.06 938.991C1660.26 936.576 1663.46 934.13 1666.83 931.988C1675.91 926.228 1685.96 922.988 1696.44 921.087C1702.24 920.036 1708.72 920.284 1714.29 918.383C1713.96 918.496 1712.07 917.581 1711.61 917.461C1709.88 917.044 1708.2 917.076 1706.44 917.116C1694.77 917.389 1683.09 920.004 1672.6 925.153Z" fill="#808080"/>
<path d="M1673.74 937.136C1673.6 937.208 1673.46 937.272 1673.32 937.345C1668.15 939.919 1663.41 943.168 1658.97 946.898C1655.52 949.786 1650.85 953.428 1649.08 957.807C1649.47 956.837 1652.21 955.497 1653.06 954.848C1654.76 953.564 1656.44 952.265 1658.14 950.981C1661.34 948.567 1664.57 946.112 1667.95 943.97C1677.07 938.195 1687.15 934.954 1697.68 933.037C1703.5 931.978 1710.01 932.227 1715.59 930.318C1715.26 930.43 1713.38 929.516 1712.9 929.403C1711.16 928.986 1709.48 929.018 1707.7 929.066C1695.99 929.347 1684.26 931.978 1673.74 937.136Z" fill="#808080"/>
<path d="M1675.72 950.684C1675.58 950.748 1675.45 950.82 1675.32 950.884C1670.3 953.419 1665.72 956.636 1661.41 960.326C1658.07 963.189 1653.55 966.783 1651.86 971.147C1652.23 970.184 1654.9 968.86 1655.72 968.227C1657.37 966.951 1658.99 965.668 1660.64 964.4C1663.74 962.01 1666.86 959.588 1670.14 957.47C1678.98 951.767 1688.77 948.598 1699.01 946.761C1704.67 945.742 1711 946.039 1716.43 944.17C1716.11 944.283 1714.26 943.352 1713.81 943.24C1712.11 942.815 1710.48 942.839 1708.74 942.863C1697.35 943.063 1685.95 945.606 1675.73 950.692L1675.72 950.684Z" fill="#808080"/>
<path d="M1679.11 965.204C1678.97 965.268 1678.83 965.341 1678.7 965.413C1673.59 967.972 1668.93 971.204 1664.55 974.91C1661.16 977.782 1656.56 981.408 1654.82 985.779C1655.21 984.817 1657.91 983.477 1658.75 982.836C1660.42 981.56 1662.08 980.261 1663.75 978.985C1666.9 976.579 1670.08 974.14 1673.42 972.015C1682.4 966.279 1692.34 963.063 1702.73 961.186C1708.47 960.151 1714.9 960.415 1720.41 958.53C1720.08 958.643 1718.22 957.72 1717.74 957.608C1716.04 957.191 1714.37 957.215 1712.61 957.255C1701.05 957.496 1689.49 960.087 1679.1 965.212L1679.11 965.204Z" fill="#808080"/>
<path d="M1683.81 982.776C1683.68 982.841 1683.56 982.905 1683.44 982.969C1678.74 985.423 1674.47 988.552 1670.46 992.17C1667.36 994.969 1663.15 998.491 1661.62 1002.81C1661.95 1001.86 1664.45 1000.58 1665.21 999.958C1666.74 998.715 1668.26 997.456 1669.79 996.22C1672.68 993.886 1675.58 991.52 1678.65 989.458C1686.89 983.907 1696.07 980.891 1705.7 979.215C1711.01 978.284 1716.99 978.669 1722.08 976.889C1721.77 976.993 1720.02 976.046 1719.59 975.918C1717.99 975.469 1716.44 975.469 1714.82 975.469C1704.08 975.501 1693.37 977.867 1683.82 982.776H1683.81Z" fill="#808080"/>
<path d="M1618.76 994.433C1618.92 994.449 1619.08 994.473 1619.24 994.489C1625.18 995.195 1630.9 996.679 1636.51 998.717C1640.86 1000.29 1646.67 1002.17 1649.88 1005.71C1649.17 1004.93 1646.03 1004.58 1644.98 1004.25C1642.89 1003.6 1640.8 1002.94 1638.71 1002.29C1634.75 1001.08 1630.78 999.848 1626.74 998.949C1615.87 996.543 1604.91 996.839 1593.96 998.548C1587.92 999.487 1581.64 1001.89 1575.52 1001.96C1575.89 1001.96 1577.42 1000.46 1577.84 1000.19C1579.4 999.222 1581.06 998.692 1582.81 998.139C1594.35 994.505 1606.71 993.069 1618.76 994.433Z" fill="#808080"/>
</g>
<defs>
<clipPath id="clip0_1054_1400">
<rect width="250" height="274" fill="white" transform="translate(-48 515)"/>
</clipPath>
<clipPath id="clip1_1054_1400">
<rect width="193.874" height="130" fill="white" transform="translate(1759.59 267.805) rotate(-12)"/>
</clipPath>
<clipPath id="clip2_1054_1400">
<rect width="242.009" height="170" fill="white" transform="translate(1519 881)"/>
</clipPath>
</defs>
</svg>
