<svg width="1920" height="1330" viewBox="0 0 1920 1330" fill="none" xmlns="http://www.w3.org/2000/svg">
<path d="M206.003 1160.44L229.451 1144.49L217.638 1127.13L194.19 1143.07L206.003 1160.44Z" fill="#A5CDEB"/>
<path d="M147.409 1077.1L173.462 1059.38L161.058 1041.14L135.005 1058.86L147.409 1077.1Z" fill="#A5CDEB"/>
<path d="M132.452 1065.37L168.058 1041.16L159.789 1029L124.183 1053.22L132.452 1065.37Z" fill="#A5CDEB"/>
<path d="M187.802 1222.82H245.795V1208.12H187.802V1222.82Z" fill="#A5CDEB"/>
<path d="M163.3 1231.11C126.52 1231.11 96.5967 1201.19 96.5967 1164.4C96.5967 1127.62 126.52 1097.7 163.3 1097.7V1115.91C136.559 1115.91 114.803 1137.66 114.803 1164.4C114.803 1191.15 136.559 1212.9 163.3 1212.9V1231.11Z" fill="#A5CDEB"/>
<path d="M144.058 1253.08H218.289L206.071 1208.12H156.497L144.058 1253.08Z" fill="white"/>
<path d="M116.327 1275.63H286.497V1243.66H116.327V1275.63Z" fill="#A5CDEB"/>
<path d="M189.764 1152.44L227.975 1126.45L177.179 1051.76L138.968 1077.75L189.764 1152.44Z" fill="white"/>
<path d="M164.936 1121.91C174.672 1121.91 182.564 1114.02 182.564 1104.28C182.564 1094.55 174.672 1086.66 164.936 1086.66C155.2 1086.66 147.308 1094.55 147.308 1104.28C147.308 1114.02 155.2 1121.91 164.936 1121.91Z" fill="#A5CDEB"/>
<path d="M164.934 1112.78C169.628 1112.78 173.433 1108.98 173.433 1104.28C173.433 1099.59 169.628 1095.78 164.934 1095.78C160.24 1095.78 156.434 1099.59 156.434 1104.28C156.434 1108.98 160.24 1112.78 164.934 1112.78Z" fill="#6E83AE"/>
<path d="M286.657 1265.6H116.084V1269.44H286.657V1265.6Z" fill="#6E83AE"/>
<path d="M202.984 1111.46C205.166 1111.46 206.934 1109.69 206.934 1107.51C206.934 1105.33 205.166 1103.56 202.984 1103.56C200.802 1103.56 199.033 1105.33 199.033 1107.51C199.033 1109.69 200.802 1111.46 202.984 1111.46Z" fill="#6E83AE"/>
<path d="M1663.91 879.854C1691.11 879.854 1713.17 857.799 1713.17 830.592C1713.17 803.385 1691.11 781.33 1663.91 781.33C1636.7 781.33 1614.65 803.385 1614.65 830.592C1614.65 857.799 1636.7 879.854 1663.91 879.854Z" fill="#BCD3F5"/>
<path d="M1736.36 858.339C1731.14 858.339 1725.18 857.607 1720.02 856.839C1703.66 854.401 1682.56 849.182 1660.61 842.143C1638.67 835.104 1618.47 827.078 1603.74 819.542C1581.95 808.393 1580.76 802.942 1581.77 799.812C1583.68 793.842 1597.72 793.464 1623.48 798.689C1624.65 798.925 1625.4 800.061 1625.16 801.226C1624.93 802.391 1623.8 803.145 1622.63 802.908C1589.08 796.104 1585.88 801.073 1585.86 801.127C1585.55 802.115 1588.51 806.916 1605.7 815.711C1620.23 823.143 1640.2 831.075 1661.93 838.045C1683.66 845.014 1704.51 850.177 1720.66 852.582C1739.76 855.428 1744.96 853.245 1745.28 852.257C1745.29 852.203 1745.58 846.212 1713.69 832.036C1712.61 831.553 1712.12 830.281 1712.6 829.195C1713.08 828.109 1714.36 827.62 1715.44 828.103C1739.89 838.973 1751.31 847.542 1749.37 853.571C1748.21 857.199 1742.87 858.338 1736.36 858.339Z" fill="white"/>
<path d="M1634.34 1049.33L1593.31 1037.35L1583.18 995.829L1614.07 966.295L1655.1 978.281L1665.23 1019.8L1634.34 1049.33ZM1595.72 1035.05L1633.55 1046.1L1662.03 1018.87L1652.69 980.579L1614.86 969.526L1586.37 996.761L1595.72 1035.05Z" fill="white"/>
<path d="M1511.18 994.693L1490.22 988.571L1485.05 967.367L1500.83 952.283L1521.78 958.405L1526.95 979.609L1511.18 994.693ZM1492.63 986.273L1510.39 991.46L1523.76 978.676L1519.37 960.703L1501.62 955.515L1488.24 968.3L1492.63 986.273Z" fill="#90C8F2"/>
<path d="M1668.03 956.282L1657.11 937.382L1668.01 918.478L1689.84 918.471L1700.76 937.37L1689.85 956.276L1668.03 956.282ZM1660.43 937.382L1669.69 953.4L1688.19 953.395L1697.44 937.37L1688.18 921.352L1669.68 921.357L1660.43 937.382Z" fill="white"/>
<path d="M1525.53 977.331L1524.72 980.096L1584.35 997.515L1585.16 994.75L1525.53 977.331Z" fill="#90C8F2"/>
<path d="M1667.27 953.958L1652.63 978.748L1655.11 980.214L1669.75 955.424L1667.27 953.958Z" fill="white"/>
<path d="M245.473 1035.91L243.083 1035.18L266.74 957.253L330.625 1014.13L360.853 934.926L420.737 993.806L442.454 915.901L444.86 916.572L422.005 998.554L361.825 939.383L331.668 1018.4L267.996 961.714L245.473 1035.91Z" fill="white"/>
<path d="M258.134 1036.73C258.218 1028.42 251.551 1021.61 243.244 1021.53C234.936 1021.45 228.133 1028.11 228.049 1036.42C227.965 1044.73 234.632 1051.53 242.94 1051.62C251.247 1051.7 258.05 1045.03 258.134 1036.73Z" fill="#B9E1DC"/>
<path d="M271.128 970.692C279.039 968.151 283.393 959.679 280.852 951.768C278.311 943.858 269.838 939.505 261.927 942.046C254.017 944.587 249.663 953.059 252.204 960.97C254.745 968.88 263.217 973.233 271.128 970.692Z" fill="white"/>
<path d="M374.409 930.729C376.33 938.813 371.333 946.923 363.25 948.844C355.167 950.764 347.056 945.769 345.136 937.685C343.215 929.601 348.211 921.491 356.294 919.57C364.378 917.649 372.487 922.645 374.409 930.729Z" fill="#B9E1DC"/>
<path d="M456.499 922.171C460.857 915.097 458.655 905.83 451.582 901.472C444.508 897.114 435.24 899.316 430.883 906.39C426.525 913.464 428.727 922.731 435.801 927.089C442.874 931.447 452.142 929.245 456.499 922.171Z" fill="#FECC32"/>
<path d="M343.369 1023.69C347.727 1016.61 345.525 1007.35 338.45 1002.99C331.376 998.629 322.109 1000.83 317.751 1007.9C313.393 1014.98 315.595 1024.25 322.669 1028.6C329.744 1032.96 339.011 1030.76 343.369 1023.69Z" fill="#FECC32"/>
<path d="M433.502 1002.27C437.86 995.197 435.658 985.929 428.584 981.572C421.51 977.214 412.243 979.416 407.885 986.49C403.527 993.563 405.729 1002.83 412.803 1007.19C419.877 1011.55 429.144 1009.34 433.502 1002.27Z" fill="white"/>
<path d="M1690.38 1220.05H1690.38C1689.67 1220.05 1689.1 1219.48 1689.1 1218.77L1689.15 1127.09C1689.16 1126.38 1689.73 1125.8 1690.44 1125.8H1690.44C1691.15 1125.81 1691.72 1126.38 1691.72 1127.09L1691.66 1218.77C1691.66 1219.48 1691.09 1220.05 1690.38 1220.05Z" fill="white"/>
<path d="M1695.59 1230.4C1701.98 1227.52 1704.82 1220.01 1701.94 1213.63C1699.06 1207.24 1691.55 1204.4 1685.17 1207.28C1678.78 1210.16 1675.94 1217.67 1678.82 1224.05C1681.7 1230.44 1689.21 1233.28 1695.59 1230.4Z" fill="#90C8F2"/>
<path d="M1714.83 1220.07H1714.83C1714.12 1220.07 1713.55 1219.49 1713.55 1218.78L1713.61 1127.1C1713.61 1126.39 1714.18 1125.82 1714.89 1125.82H1714.89C1715.6 1125.82 1716.17 1126.4 1716.17 1127.1L1716.11 1218.79C1716.11 1219.49 1715.54 1220.07 1714.83 1220.07Z" fill="white"/>
<path d="M1723.78 1227.75C1728.73 1222.8 1728.73 1214.77 1723.78 1209.82C1718.83 1204.87 1710.8 1204.87 1705.85 1209.82C1700.9 1214.77 1700.9 1222.8 1705.85 1227.75C1710.8 1232.7 1718.83 1232.7 1723.78 1227.75Z" fill="#ABDBC4"/>
<path d="M1739.82 1220.08H1739.82C1739.11 1220.08 1738.54 1219.51 1738.54 1218.8L1738.6 1127.12C1738.6 1126.41 1739.17 1125.84 1739.88 1125.84H1739.88C1740.59 1125.84 1741.16 1126.41 1741.16 1127.12L1741.1 1218.8C1741.1 1219.51 1740.53 1220.08 1739.82 1220.08Z" fill="white"/>
<path d="M1749.74 1226.73C1754.11 1221.25 1753.21 1213.27 1747.73 1208.91C1742.26 1204.54 1734.28 1205.44 1729.91 1210.92C1725.55 1216.39 1726.45 1224.37 1731.92 1228.74C1737.4 1233.1 1745.37 1232.2 1749.74 1226.73Z" fill="#90C8F2"/>
<path d="M1795.27 1216.59C1794.71 1216.59 1794.19 1216.21 1794.03 1215.65L1769.64 1127.27C1769.45 1126.59 1769.85 1125.88 1770.53 1125.69C1771.22 1125.5 1771.92 1125.9 1772.11 1126.59L1796.51 1214.96C1796.69 1215.65 1796.29 1216.35 1795.61 1216.54C1795.5 1216.57 1795.38 1216.59 1795.27 1216.59Z" fill="white"/>
<path d="M1806.37 1221.33C1809.7 1215.17 1807.4 1207.48 1801.24 1204.15C1795.07 1200.82 1787.38 1203.12 1784.06 1209.29C1780.73 1215.45 1783.03 1223.14 1789.19 1226.47C1795.36 1229.79 1803.05 1227.49 1806.37 1221.33Z" fill="#ABDBC4"/>
<path d="M1827.5 1253.58H1827.49C1826.79 1253.58 1826.21 1253 1826.21 1252.29L1826.29 1132.31C1826.29 1131.6 1826.86 1131.03 1827.57 1131.03H1827.57C1828.28 1131.03 1828.85 1131.6 1828.85 1132.31L1828.78 1252.29C1828.78 1253 1828.2 1253.58 1827.5 1253.58Z" fill="white"/>
<path d="M1657.02 1253.47H1657.02C1656.31 1253.47 1655.74 1252.89 1655.74 1252.18L1655.81 1132.2C1655.81 1131.49 1656.39 1130.92 1657.1 1130.92H1657.1C1657.81 1130.92 1658.38 1131.49 1658.38 1132.2L1658.3 1252.19C1658.3 1252.89 1657.73 1253.47 1657.02 1253.47Z" fill="white"/>
<path d="M1835.44 1250.86H1649.07V1266.26H1835.44V1250.86Z" fill="#90C8F2"/>
<path d="M1835.52 1116.27H1649.16V1131.67H1835.52V1116.27Z" fill="#90C8F2"/>
<path d="M181.082 874.671L199.358 861.68C201.04 860.484 201.434 858.151 200.239 856.468L189.124 840.832L178.702 839.07L166.518 847.732L164.756 858.154L175.871 873.79C177.066 875.473 179.399 875.867 181.082 874.671Z" fill="white"/>
<path d="M126.253 913.646L144.529 900.654C146.211 899.459 146.606 897.125 145.41 895.443L134.295 879.807L123.873 878.045L111.689 886.706L109.927 897.128L121.042 912.765C122.238 914.448 124.572 914.841 126.253 913.646Z" fill="white"/>
<path d="M109.926 897.13L94.7698 875.808C79.2235 853.938 84.3491 823.608 106.22 808.062C107.926 806.849 109.779 805.716 111.718 804.703C133.458 793.101 160.628 800.748 174.962 820.913L189.123 840.834L164.755 858.156L149.598 836.834C143.622 828.427 131.948 826.454 123.542 832.43C122.993 832.82 122.506 833.167 122.001 833.617C114.644 840.039 114.071 851.359 119.744 859.34L134.294 879.809L109.926 897.13Z" fill="#E1BAB9"/>
</svg>
