<svg width="1920" height="1330" viewBox="0 0 1920 1330" fill="none" xmlns="http://www.w3.org/2000/svg">
<path d="M172.398 753.171C172.398 757.13 158.837 760.334 142.115 760.334C125.394 760.334 111.832 757.13 111.832 753.171C111.832 749.213 125.394 746.009 142.115 746.009C158.837 746.009 172.398 749.213 172.398 753.171Z" stroke="#ACB6CA" stroke-width="3" stroke-linecap="round" stroke-linejoin="round"/>
<path d="M-61.8359 1125.79H120.067C126.848 1125.79 132.342 1120.3 132.342 1113.52C132.342 1106.73 126.848 1101.24 120.067 1101.24H113.677C108.023 1101.24 103.266 1097.02 102.6 1091.41L98.2866 1055.18H90.1478C85.6657 1055.18 82.0267 1051.55 82.0267 1047.06C82.0267 1042.58 85.6568 1038.94 90.1478 1038.94H112.212L104.384 997.185" stroke="#ACB6CA" stroke-width="3" stroke-linejoin="round"/>
<path d="M185.94 1055.17L181.627 1091.4C180.961 1097.01 176.204 1101.23 170.55 1101.23H164.16C157.379 1101.23 151.885 1106.73 151.885 1113.51C151.885 1120.29 157.379 1125.78 164.16 1125.78M96.2267 1038.93H136.273V1013.3M93.1913 1055.16H167.035M143.551 746.009C205.395 745.228 256.651 795.153 257.414 857.006C257.867 893.244 241.163 925.604 214.927 946.471C201.064 957.494 190.875 972.289 185.168 988.869C182.55 996.466 175.423 1001.59 167.39 1001.59H135.412C126.936 1001.59 119.685 995.49 118.229 987.138L117.475 982.825C115.371 970.781 110.179 959.429 102.164 950.189C84.52 929.811 73.0085 896.306 73.0085 858.435C73.0085 825.622 81.6532 796.085 95.4368 775.529C99.4042 769.618 107.01 767.328 113.64 769.937C119.552 772.272 123.297 777.97 123.297 784.156C123.297 785.061 123.208 785.984 123.048 786.907C119.516 806.345 117.395 831.267 117.395 858.435C117.395 895.17 121.273 927.788 127.264 948.308C129.545 956.109 131.249 964.062 132.341 972.112L133.504 980.65C133.797 982.807 134.862 984.688 136.406 986.029C137.942 987.378 139.956 988.177 142.131 988.177C146.497 988.177 150.181 984.955 150.767 980.641L151.92 972.103C153.003 964.071 154.698 956.136 156.979 948.352C162.979 927.841 166.867 895.197 166.867 858.426C166.867 831.258 164.737 806.345 161.213 786.898C161.044 785.975 160.965 785.052 160.965 784.147C160.965 777.961 164.701 772.263 170.621 769.928C177.251 767.319 184.857 769.6 188.825 775.52C202.608 796.076 211.253 825.613 211.253 858.426C211.253 896.306 199.741 929.811 182.097 950.181C174.091 959.42 168.89 970.772 166.787 982.816L163.521 1001.58L159.296 1028.43C158.426 1033.94 162.686 1038.93 168.269 1038.93H194.123C198.605 1038.93 202.244 1042.57 202.244 1047.05C202.244 1051.53 198.605 1055.17 194.123 1055.17H185.984M105.803 1003.78C101.907 981.245 90.1293 960.707 72.2186 946.462C45.9826 925.596 29.279 893.236 29.7316 856.997C30.4594 795.153 81.7153 745.228 143.56 746.009" stroke="#ACB6CA" stroke-width="3" stroke-linecap="round" stroke-linejoin="round"/>
<path d="M486.624 1125.81H374.358C365.545 1125.81 357.823 1131.63 355.321 1140.08C349.17 1160.85 329.945 1176 307.18 1176C279.462 1176 256.998 1153.54 256.998 1125.82C256.998 1124.91 257.016 1124.02 257.069 1123.12C258.471 1096.65 280.367 1075.64 307.18 1075.64C325.499 1075.64 341.537 1085.45 350.288 1100.11C352.365 1103.59 356.723 1104.97 360.442 1103.35C364.879 1101.4 366.655 1096 364.169 1091.83C352.587 1072.46 331.401 1059.47 307.18 1059.47C276.426 1059.47 250.563 1080.4 243.046 1108.8C240.401 1118.8 231.445 1125.83 221.105 1125.83" stroke="#ACB6CA" stroke-width="3" stroke-linejoin="round"/>
<path d="M307.179 1018.03H287.883C285.549 1018.03 283.659 1019.92 283.659 1022.26C283.659 1024.59 281.768 1026.48 279.434 1026.48H260.139L268.623 1036.3L260.139 1046.12H284.164C286.499 1046.12 288.389 1044.23 288.389 1041.89C288.389 1039.56 290.28 1037.67 292.614 1037.67H307.179M307.179 1059.45V1011.25M279.274 1097.89L278.759 1097.37M335.589 1154.2L335.074 1153.69M273.31 1125.78H266.99M347.367 1125.78H341.047M279.283 1153.69L278.768 1154.2M335.598 1097.37L335.083 1097.89M307.179 1159.65V1165.97M307.179 1085.59V1091.91M302.989 1121.58L311.368 1129.96V1129.95M302.989 1121.58L286.889 1146.05L311.368 1129.95M302.989 1121.58L327.468 1105.48L311.368 1129.95M221.104 1125.77H164.168" stroke="#ACB6CA" stroke-width="3" stroke-linecap="round" stroke-linejoin="round"/>
<path d="M42.561 977.664L42.5696 977.662L42.5782 977.659C43.1594 977.487 43.7881 977.393 44.4331 977.393C48.1933 977.393 51.2405 980.44 51.2405 984.2C51.2405 987.843 48.3808 990.817 44.7835 990.999H44.4331H-10.5949C-14.3551 990.999 -17.4023 987.952 -17.4023 984.191C-17.4023 980.431 -14.3551 977.384 -10.5949 977.384C-9.60522 977.384 -8.67502 977.594 -7.82836 977.966C-3.12196 980.055 2.38498 978.55 5.38962 974.393L5.39277 974.388C6.63257 972.66 8.64601 971.544 10.9193 971.544C12.4652 971.544 13.8893 972.065 15.0355 972.934C17.9877 975.182 22.1134 975.051 24.9131 972.624L24.9165 972.621C26.1098 971.581 27.6711 970.949 29.3803 970.949C31.9927 970.949 34.2644 972.428 35.4107 974.595C36.7705 977.183 39.7491 978.461 42.561 977.664Z" fill="#FFF2E1" stroke="#ACB6CA" stroke-width="3"/>
<path d="M286.67 892.317L286.679 892.314L286.688 892.312C287.269 892.14 287.897 892.045 288.542 892.045C292.303 892.045 295.35 895.093 295.35 898.853C295.35 902.495 292.49 905.469 288.893 905.651H288.542H233.514C229.754 905.651 226.707 902.604 226.707 898.844C226.707 895.084 229.754 892.036 233.514 892.036C234.504 892.036 235.434 892.247 236.281 892.619C240.987 894.708 246.494 893.202 249.499 889.045L249.502 889.041C250.742 887.313 252.755 886.196 255.029 886.196C256.574 886.196 257.998 886.718 259.144 887.586C262.097 889.834 266.223 889.703 269.023 887.277L269.026 887.274C270.219 886.233 271.78 885.602 273.49 885.602C276.102 885.602 278.374 887.08 279.52 889.247C280.88 891.836 283.858 893.114 286.67 892.317Z" fill="#FFF2E1" stroke="#ACB6CA" stroke-width="3"/>
<path d="M1615.78 991.543C1616.43 971.738 1629.85 987.874 1645.8 968.873C1656.76 955.812 1669.66 973.591 1683.79 974.157C1697.92 974.723 1715.66 966.381 1714.88 987.062M1766.12 831.006C1751.7 855.1 1712.16 863.031 1690.39 854.269C1666.97 844.842 1663.35 874.302 1691.06 879.943C1700.68 881.896 1708.14 883.666 1710.67 891.753C1715.06 905.817 1726.74 903.07 1734.37 899.957C1742 896.845 1763.49 885.647 1775.73 905.141M1543.11 892.638C1552.05 941.137 1592.89 895.212 1595.57 910.188C1598.24 925.174 1603.13 925.174 1611.04 922.628C1618.95 920.082 1618.03 911.037 1626.23 919.799C1634.43 928.56 1641.05 940.352 1652.98 932.238C1671.78 919.461 1652.53 909.622 1640.94 900.012C1629.35 890.402 1633.59 877.396 1638.67 868.918C1643.77 860.439 1635 847.999 1622.27 846.585C1609.55 845.17 1588.35 823.686 1610.68 820.857C1633.02 818.028 1643.47 809.549 1634.71 799.939C1625.95 790.328 1609.47 794.253 1607.25 777.597" stroke="#C9243F" stroke-opacity="0.4" stroke-width="3" stroke-linecap="round" stroke-linejoin="round"/>
<path d="M1921.31 1074.44L1928.23 1080.19M1884.53 1074.44L1891.45 1080.19M1847.44 1042.26L1853.25 1083.69C1853.81 1088.65 1859.66 1091.01 1863.5 1087.81L1869.82 1082.55C1871.79 1080.92 1874.64 1080.92 1876.61 1082.55L1888.48 1092.43C1890.45 1094.06 1893.3 1094.06 1895.27 1092.43L1907.14 1082.55C1909.11 1080.92 1911.96 1080.92 1913.93 1082.55L1925.79 1092.43C1927.76 1094.06 1930.61 1094.06 1932.58 1092.43L1944.45 1082.55C1946.42 1080.92 1949.27 1080.92 1951.24 1082.55L1960.81 1090.52C1964.49 1093.58 1969.12 1095.25 1973.89 1095.25M1809.66 1042.26L1795.7 1156.13C1795.23 1160.33 1798.51 1164 1802.73 1164H1843.95C1848.17 1164 1851.45 1160.33 1850.98 1156.13L1845.6 1108.26C1844.77 1100.85 1838.5 1095.25 1831.05 1095.25H1709.54C1691.15 1095.25 1676.23 1080.34 1676.23 1061.95C1676.23 1049.05 1685.1 1037.9 1697.63 1034.85C1740.45 1024.42 1777.43 996.235 1798.76 956.214C1801.68 950.738 1799.61 943.93 1794.12 941.018C1788.64 938.098 1781.84 940.17 1778.92 945.655C1773.93 954.991 1767.96 963.589 1761.16 971.319C1757.39 975.627 1753.34 979.661 1749.08 983.412C1724.99 1004.64 1693.66 1016.83 1660.43 1016.83C1586.45 1016.83 1526.25 956.643 1526.25 882.663C1526.25 852.682 1536.18 824.271 1553.7 801.308C1556.74 797.329 1562.56 796.891 1566.09 800.432C1569.01 803.352 1569.31 807.97 1566.8 811.247C1551.67 831.052 1542.68 855.803 1542.68 882.654C1542.68 947.407 1595.66 1000.39 1660.41 1000.38C1689.84 1000.38 1716.75 989.581 1737.39 971.73C1741.71 967.997 1745.74 963.954 1749.47 959.646C1767.33 939.011 1778.12 912.096 1778.12 882.663C1778.12 817.909 1725.14 764.938 1660.4 764.938C1633.55 764.938 1608.8 773.928 1588.99 789.06C1585.71 791.561 1581.1 791.269 1578.19 788.348C1574.67 784.834 1575.05 779.021 1578.99 776.009C1584.75 771.619 1590.91 767.649 1597.43 764.172C1602.92 761.26 1604.99 754.443 1602.07 748.976C1599.16 743.491 1592.35 741.419 1586.86 744.34C1535.63 771.646 1503.79 824.654 1503.79 882.672C1503.79 956.306 1554.86 1018.24 1623.44 1034.9C1635.89 1037.93 1644.63 1049.13 1644.63 1061.95C1644.63 1080.35 1629.71 1095.26 1611.32 1095.26M1809.69 1026.95C1809.69 1016.52 1818.14 1008.07 1828.57 1008.07C1839.01 1008.07 1847.46 1016.52 1847.46 1026.95M1753.67 1051.34L1796.97 1042.27M1796.97 1026.19L1775.32 1021.65M1904.17 1051.34L1860.87 1042.27M1860.87 1026.2L1904.17 1017.13M1847.44 1042.28H1809.73V1026.2H1847.44V1042.28Z" stroke="#C9243F" stroke-opacity="0.4" stroke-width="3" stroke-linecap="round" stroke-linejoin="round"/>
<path d="M1802.6 1141.18H1820.77M1802.6 1119.85H1820.77" stroke="#C9243F" stroke-opacity="0.4" stroke-width="3" stroke-linecap="round" stroke-linejoin="round"/>
<path d="M1610.49 1095.3H1431" stroke="#C9243F" stroke-opacity="0.4" stroke-width="3" stroke-linejoin="round"/>
<path d="M1776.68 813.328C1781.78 813.328 1785.9 809.202 1785.9 804.11C1785.9 799.017 1781.78 794.892 1776.68 794.892C1775.81 794.892 1774.96 795.02 1774.15 795.257C1771.79 795.923 1769.28 794.846 1768.14 792.683C1766.6 789.754 1763.52 787.755 1759.98 787.755C1757.66 787.755 1755.55 788.613 1753.93 790.027C1751.41 792.2 1747.71 792.327 1745.06 790.31C1743.51 789.142 1741.58 788.43 1739.48 788.43C1736.4 788.43 1733.67 789.954 1732 792.282C1729.12 796.261 1723.85 797.694 1719.36 795.704C1718.22 795.202 1716.95 794.91 1715.62 794.91C1710.52 794.91 1706.4 799.035 1706.4 804.128C1706.4 809.221 1710.52 813.346 1715.62 813.346H1776.68V813.328Z" fill="#FFF2E1" stroke="#C9243F" stroke-opacity="0.4" stroke-width="3" stroke-linecap="round" stroke-linejoin="round"/>
<mask id="mask0_1013_6903" style="mask-type:luminance" maskUnits="userSpaceOnUse" x="1657" y="704" width="77" height="77">
<path d="M1733.31 704H1657.34V780.299H1733.31V704Z" fill="white"/>
</mask>
<g mask="url(#mask0_1013_6903)">
<path d="M1679.07 768.7C1678.98 768.818 1678.89 768.946 1678.87 769.092C1678.84 769.266 1678.9 769.43 1678.96 769.594C1679.38 770.835 1679.48 772.186 1679.22 773.473C1679.2 773.592 1679.18 773.719 1679.22 773.829C1679.35 774.103 1679.76 773.993 1680.03 773.847C1682.04 772.77 1684.4 772.232 1686.63 772.679C1687.41 772.834 1688.16 773.108 1688.91 773.327C1691.78 774.157 1694.78 774.313 1697.74 774.678C1698.61 774.787 1699.5 774.924 1700.23 775.408C1700.09 774.431 1699.96 773.446 1699.82 772.469C1699.76 772.04 1699.69 771.593 1699.47 771.228C1699.3 770.936 1699.05 770.698 1698.8 770.47C1698.1 769.841 1697.42 769.202 1696.73 768.572C1696.52 768.38 1696.31 768.189 1696.16 767.951C1695.99 767.678 1695.91 767.358 1695.81 767.048C1695.21 764.976 1694.06 763.114 1692.92 761.271C1692.59 760.741 1692.25 760.203 1691.77 759.819C1691.34 759.482 1690.82 759.281 1690.29 759.108C1689 758.688 1687.65 758.432 1686.29 758.341C1685.5 758.286 1684.1 758.003 1683.78 758.962C1683.47 759.819 1683.56 760.75 1683.21 761.636C1682.74 762.85 1682.13 763.999 1681.46 765.113C1680.71 766.345 1679.89 767.531 1679.05 768.7" fill="#D5342B"/>
<path d="M1679.07 768.7C1678.98 768.818 1678.89 768.946 1678.87 769.092C1678.84 769.266 1678.9 769.43 1678.96 769.594C1679.38 770.835 1679.48 772.186 1679.22 773.473C1679.2 773.592 1679.18 773.719 1679.22 773.829C1679.35 774.103 1679.76 773.993 1680.03 773.847C1682.04 772.77 1684.4 772.232 1686.63 772.679C1687.41 772.834 1688.16 773.108 1688.91 773.327C1691.78 774.157 1694.78 774.313 1697.74 774.678C1698.61 774.787 1699.5 774.924 1700.23 775.408C1700.09 774.431 1699.96 773.446 1699.82 772.469C1699.76 772.04 1699.69 771.593 1699.47 771.228C1699.3 770.936 1699.05 770.698 1698.8 770.47C1698.1 769.841 1697.42 769.202 1696.73 768.572C1696.52 768.38 1696.31 768.189 1696.16 767.951C1695.99 767.678 1695.91 767.358 1695.81 767.048C1695.21 764.976 1694.06 763.114 1692.92 761.271C1692.59 760.741 1692.25 760.203 1691.77 759.819C1691.34 759.482 1690.82 759.281 1690.29 759.108C1689 758.688 1687.65 758.432 1686.29 758.341C1685.5 758.286 1684.1 758.003 1683.78 758.962C1683.47 759.819 1683.56 760.75 1683.21 761.636C1682.74 762.85 1682.13 763.999 1681.46 765.113C1680.71 766.345 1679.89 767.531 1679.05 768.7H1679.07Z" stroke="#D66577" stroke-width="1.52" stroke-linecap="round" stroke-linejoin="round"/>
<path d="M1684.1 762.612C1682.34 764.081 1679.07 763.798 1679.25 762.575C1679.29 762.31 1680 762.383 1680.51 761.772C1681.24 760.896 1681.14 759.901 1680.76 759.089C1680.25 758.012 1679.06 757.218 1677.73 757.4C1676.59 757.555 1675.58 758.03 1674.77 759.381C1673.06 762.265 1674.64 766.436 1679.42 767.138C1680.43 767.293 1682.36 767.458 1684.69 765.915" fill="#C4CBDF"/>
<path d="M1684.1 762.612C1682.34 764.081 1679.07 763.798 1679.25 762.575C1679.29 762.31 1680 762.383 1680.51 761.772C1681.24 760.896 1681.14 759.901 1680.76 759.089C1680.25 758.012 1679.06 757.218 1677.73 757.4C1676.59 757.555 1675.58 758.03 1674.77 759.381C1673.06 762.265 1674.64 766.436 1679.42 767.138C1680.43 767.293 1682.36 767.458 1684.69 765.915" stroke="#D66577" stroke-width="1.52" stroke-linecap="round" stroke-linejoin="round"/>
<path d="M1682.04 769.448C1682.57 770.681 1683.77 771.465 1684.95 772.123C1685.96 772.688 1687.03 773.236 1688.19 773.373C1690.09 773.601 1691.92 772.725 1693.64 771.867C1694.62 771.374 1695.64 770.863 1696.42 770.087C1698.12 768.408 1698.47 765.77 1698.24 763.388C1697.81 758.944 1695.21 754.599 1690.31 754.444C1686.58 754.326 1685.15 757.903 1683.93 760.833C1682.93 763.206 1680.93 766.856 1682.05 769.448" fill="#C4CBDF"/>
<path d="M1682.04 769.448C1682.57 770.681 1683.77 771.465 1684.95 772.123C1685.96 772.688 1687.03 773.236 1688.19 773.373C1690.09 773.601 1691.92 772.725 1693.64 771.867C1694.62 771.374 1695.64 770.863 1696.42 770.087C1698.12 768.408 1698.47 765.77 1698.24 763.388C1697.81 758.944 1695.21 754.599 1690.31 754.444C1686.58 754.326 1685.15 757.903 1683.93 760.833C1682.93 763.206 1680.93 766.856 1682.05 769.448H1682.04Z" stroke="#D66577" stroke-width="1.52" stroke-linecap="round" stroke-linejoin="round"/>
<path d="M1694.62 777.716C1693.76 779.24 1692.18 779.879 1690.77 779.487C1689.37 779.094 1688.19 777.78 1687.46 776.165C1686.75 774.595 1686.47 772.432 1687.36 770.99C1688.44 769.219 1692.06 767.12 1693.67 768.562C1695.5 770.196 1695.87 775.48 1694.62 777.716Z" fill="#C4CBDF"/>
<path d="M1694.62 777.716C1693.76 779.24 1692.18 779.879 1690.77 779.487C1689.37 779.094 1688.19 777.78 1687.46 776.165C1686.75 774.595 1686.47 772.432 1687.36 770.99C1688.44 769.219 1692.06 767.12 1693.67 768.562C1695.5 770.196 1695.87 775.48 1694.62 777.716Z" stroke="#D66577" stroke-width="1.52" stroke-linecap="round" stroke-linejoin="round"/>
<path d="M1692.79 758.999C1692.23 759.555 1691.6 760.149 1690.82 760.231C1690.11 760.304 1689.42 759.921 1688.94 759.4C1688.47 758.88 1688.16 758.223 1687.87 757.584" fill="#EE342E"/>
<path d="M1692.79 758.999C1692.23 759.555 1691.6 760.149 1690.82 760.231C1690.11 760.304 1689.42 759.921 1688.94 759.4C1688.47 758.88 1688.16 758.223 1687.87 757.584" stroke="#D66577" stroke-width="1.52" stroke-linecap="round" stroke-linejoin="round"/>
<path d="M1687.82 760.321C1689.69 759.938 1692.41 759.645 1693.55 761.005C1694.69 762.365 1694.94 764.729 1693.3 765.605C1692.46 766.062 1691.23 765.779 1690.23 765.76C1688.14 765.715 1686.34 766.326 1684.39 765.66C1683.39 765.313 1682.36 764.857 1681.78 764.045C1681.16 763.177 1681.18 762.064 1681.41 761.051C1681.75 759.582 1684.09 756.205 1685.47 755.712" fill="#C4CBDF"/>
<path d="M1687.82 760.321C1689.69 759.938 1692.41 759.645 1693.55 761.005C1694.69 762.365 1694.94 764.729 1693.3 765.605C1692.46 766.062 1691.23 765.779 1690.23 765.76C1688.14 765.715 1686.34 766.326 1684.39 765.66C1683.39 765.313 1682.36 764.857 1681.78 764.045C1681.16 763.177 1681.18 762.064 1681.41 761.051C1681.75 759.582 1684.09 756.205 1685.47 755.712" stroke="#D66577" stroke-width="1.52" stroke-linecap="round" stroke-linejoin="round"/>
<path d="M1688.29 773.574C1687.67 773.473 1687.21 773.081 1686.77 772.688C1686.24 772.223 1685.71 771.739 1685.4 771.073C1685.09 770.407 1685.05 769.521 1685.49 768.718C1685.76 768.207 1686.19 767.787 1686.61 767.386C1687.69 766.364 1688.83 765.369 1690.08 764.666C1693.1 762.959 1698.45 764.21 1697.38 768.235C1696.51 771.502 1690.72 773.957 1688.28 773.574" fill="#C4CBDF"/>
<path d="M1688.29 773.574C1687.67 773.473 1687.21 773.081 1686.77 772.688C1686.24 772.223 1685.71 771.739 1685.4 771.073C1685.09 770.407 1685.05 769.521 1685.49 768.718C1685.76 768.207 1686.19 767.787 1686.61 767.386C1687.69 766.364 1688.83 765.369 1690.08 764.666C1693.1 762.959 1698.45 764.21 1697.38 768.235C1696.51 771.502 1690.72 773.957 1688.28 773.574H1688.29Z" stroke="#D66577" stroke-width="1.52" stroke-linecap="round" stroke-linejoin="round"/>
<path d="M1721.3 728.552C1719.34 727.128 1719.17 724.253 1717.98 718.485C1716.75 712.589 1715.17 709.815 1712.78 709.258C1709.3 708.455 1702.25 718.193 1700.59 717.81C1698.93 717.426 1696.86 705.589 1693.36 704.786C1690.97 704.238 1688.33 706.045 1684.65 710.81C1681.06 715.473 1679.64 717.992 1677.26 718.412C1669.54 719.781 1662.29 724.81 1661.91 735.972C1661.7 742.141 1665.33 749.315 1672.94 752.664C1680.17 755.859 1688.31 757.438 1691.3 758.122C1694.28 758.807 1702.3 760.942 1710.2 761.234C1718.51 761.544 1724.91 756.68 1727.42 751.04C1731.96 740.836 1727.63 733.142 1721.29 728.533" fill="#C4CBDF"/>
<path d="M1721.3 728.552C1719.34 727.128 1719.17 724.253 1717.98 718.485C1716.75 712.589 1715.17 709.815 1712.78 709.258C1709.3 708.455 1702.25 718.193 1700.59 717.81C1698.93 717.426 1696.86 705.589 1693.36 704.786C1690.97 704.238 1688.33 706.045 1684.65 710.81C1681.06 715.473 1679.64 717.992 1677.26 718.412C1669.54 719.781 1662.29 724.81 1661.91 735.972C1661.7 742.141 1665.33 749.315 1672.94 752.664C1680.17 755.859 1688.31 757.438 1691.3 758.122C1694.28 758.807 1702.3 760.942 1710.2 761.234C1718.51 761.544 1724.91 756.68 1727.42 751.04C1731.96 740.836 1727.63 733.142 1721.29 728.533L1721.3 728.552Z" stroke="#D66577" stroke-width="1.52" stroke-linecap="round" stroke-linejoin="round"/>
<path d="M1701.58 746.029C1701.58 746.029 1701.65 745.983 1701.66 745.937C1701.66 745.91 1701.66 745.883 1701.64 745.855C1700.78 744.97 1701.5 743.51 1701.53 743.455C1701.87 742.761 1702.47 742.287 1703.26 742.068C1704.39 741.767 1705.82 742.031 1706.91 742.752C1709.23 744.203 1707.98 748.027 1707.26 749.259C1706.38 750.765 1704.95 751.34 1703.13 750.921C1703 750.893 1702.87 750.857 1702.74 750.82C1700.95 750.291 1700.15 749.278 1700.29 747.717C1700.51 746.585 1701.04 746.239 1701.58 746.038" fill="#D66577"/>
<path d="M1704.02 745.793C1702.34 745.409 1702.94 742.799 1704.62 743.191C1706.3 743.575 1705.7 746.185 1704.02 745.793Z" fill="white"/>
<path d="M1704.7 749.178C1703.65 748.941 1704.02 747.307 1705.07 747.554C1706.12 747.791 1705.75 749.425 1704.7 749.178Z" fill="white"/>
<path d="M1702.3 748.913C1701.64 748.767 1701.88 747.745 1702.53 747.9C1703.19 748.055 1702.95 749.068 1702.3 748.913Z" fill="white"/>
<path d="M1683.65 741.905C1683.65 741.905 1683.72 741.859 1683.73 741.813C1683.73 741.786 1683.73 741.759 1683.71 741.731C1682.86 740.846 1683.58 739.386 1683.6 739.331C1683.94 738.637 1684.54 738.163 1685.34 737.944C1686.46 737.642 1687.89 737.907 1688.98 738.628C1691.31 740.079 1690.06 743.903 1689.34 745.135C1688.45 746.641 1687.03 747.216 1685.2 746.796C1685.07 746.769 1684.95 746.733 1684.82 746.696C1683.03 746.167 1682.23 745.154 1682.36 743.593C1682.58 742.461 1683.11 742.115 1683.65 741.914" fill="#D66577"/>
<path d="M1686.1 741.667C1684.42 741.283 1685.02 738.673 1686.7 739.065C1688.38 739.449 1687.78 742.059 1686.1 741.667Z" fill="white"/>
<path d="M1686.77 745.052C1685.72 744.815 1686.1 743.181 1687.15 743.428C1688.2 743.665 1687.82 745.299 1686.77 745.052Z" fill="white"/>
<path d="M1684.37 744.788C1683.71 744.642 1683.95 743.62 1684.61 743.775C1685.26 743.93 1685.03 744.943 1684.37 744.788Z" fill="white"/>
<path d="M1691.09 751.688C1693.4 751.688 1694.08 750.529 1694.44 748.969C1694.09 750.52 1694.06 752.072 1696.26 752.875" stroke="#D66577" stroke-width="1.52" stroke-linecap="round" stroke-linejoin="round"/>
<path d="M1732.51 746.724C1729.16 747.244 1725.83 747.956 1722.55 748.85" stroke="#D66577" stroke-width="1.74" stroke-linecap="round" stroke-linejoin="round"/>
<path d="M1731.69 753.394C1728.71 753.339 1725.45 753.12 1722.49 752.864" stroke="#D66577" stroke-width="1.74" stroke-linecap="round" stroke-linejoin="round"/>
<path d="M1660.99 727.32C1663.42 729.684 1665.72 732.194 1667.87 734.832" stroke="#D66577" stroke-width="1.74" stroke-linecap="round" stroke-linejoin="round"/>
<path d="M1658.13 735.041C1660.62 736.674 1663.44 738.326 1666.03 739.787" stroke="#D66577" stroke-width="1.74" stroke-linecap="round" stroke-linejoin="round"/>
<path d="M1700.67 738.6C1700.37 738.828 1700.1 739.074 1699.84 739.348" stroke="#D66577" stroke-width="1.52" stroke-linecap="round" stroke-linejoin="round"/>
<path d="M1695.54 754.481C1694.89 754.38 1693.89 754.471 1693.34 754.827C1692.74 755.211 1692.45 756.032 1692.77 756.689C1693.06 757.292 1693.76 757.52 1694.39 757.547C1693.63 757.511 1693.63 759.026 1693.68 759.455C1693.77 760.331 1694.05 761.207 1694.41 762.01C1695.49 764.401 1697.96 766.957 1700.7 767.221C1702.54 767.404 1704.65 766.19 1704.86 764.237C1705.05 762.412 1704.03 760.504 1702.98 759.08C1701.2 756.689 1698.51 754.937 1695.55 754.481" fill="#C4CBDF"/>
<path d="M1695.54 754.481C1694.89 754.38 1693.89 754.471 1693.34 754.827C1692.74 755.211 1692.45 756.032 1692.77 756.689C1693.06 757.292 1693.76 757.52 1694.39 757.547C1693.63 757.511 1693.63 759.026 1693.68 759.455C1693.77 760.331 1694.05 761.207 1694.41 762.01C1695.49 764.401 1697.96 766.957 1700.7 767.221C1702.54 767.404 1704.65 766.19 1704.86 764.237C1705.05 762.412 1704.03 760.504 1702.98 759.08C1701.2 756.689 1698.51 754.937 1695.55 754.481H1695.54Z" stroke="#D66577" stroke-width="1.52" stroke-linecap="round" stroke-linejoin="round"/>
<g style="mix-blend-mode:color-burn" opacity="0.44">
<mask id="mask1_1013_6903" style="mask-type:luminance" maskUnits="userSpaceOnUse" x="1695" y="770" width="5" height="5">
<path d="M1699.3 770.998H1695.31V774.731H1699.3V770.998Z" fill="white"/>
</mask>
<g mask="url(#mask1_1013_6903)">
<mask id="mask2_1013_6903" style="mask-type:luminance" maskUnits="userSpaceOnUse" x="1695" y="770" width="5" height="5">
<path d="M1699.3 770.998H1695.31V774.731H1699.3V770.998Z" fill="white"/>
</mask>
<g mask="url(#mask2_1013_6903)">
<path d="M1697.56 771.253C1697.86 771.408 1698.05 771.71 1698.21 772.002C1698.7 772.86 1699.06 773.781 1699.3 774.731C1698.5 774.694 1697.72 774.612 1696.94 774.493C1696.45 774.42 1695.89 774.265 1695.73 773.791C1695.68 773.626 1695.68 773.444 1695.68 773.27C1695.63 772.686 1694.98 771.691 1695.56 771.208C1695.98 770.852 1697.14 771.034 1697.57 771.253" fill="#8898CA"/>
</g>
</g>
</g>
<g style="mix-blend-mode:color-burn" opacity="0.44">
<mask id="mask3_1013_6903" style="mask-type:luminance" maskUnits="userSpaceOnUse" x="1680" y="769" width="5" height="5">
<path d="M1684.03 769.129H1680.2V773.117H1684.03V769.129Z" fill="white"/>
</mask>
<g mask="url(#mask3_1013_6903)">
<mask id="mask4_1013_6903" style="mask-type:luminance" maskUnits="userSpaceOnUse" x="1680" y="769" width="5" height="5">
<path d="M1684.03 769.129H1680.2V773.117H1684.03V769.129Z" fill="white"/>
</mask>
<g mask="url(#mask4_1013_6903)">
<path d="M1680.5 771.83C1680.42 772.249 1680.21 772.651 1680.2 773.071C1680.73 773.208 1681.27 772.961 1681.78 772.779C1682.33 772.578 1682.91 772.432 1683.5 772.359C1683.72 772.332 1683.99 772.268 1684.03 772.058C1684.08 771.839 1683.84 771.684 1683.66 771.547C1682.82 770.935 1682.65 769.539 1681.59 769.238C1681.36 769.174 1681.11 769.156 1680.87 769.137C1680.43 769.101 1680.26 769.101 1680.29 769.566C1680.34 770.324 1680.65 771.045 1680.49 771.82" fill="#8898CA"/>
</g>
</g>
</g>
<path d="M1673.23 735.607C1673.38 732.96 1676.16 733.38 1676.16 733.38C1686.52 734.457 1692.49 739.951 1693.81 740.772C1694.5 741.201 1694.68 741.347 1696 741.649L1696.06 741.667L1696.12 741.685C1697.44 741.986 1697.67 741.931 1698.48 741.849C1700.02 741.694 1707.79 739.358 1717.57 742.917C1717.57 742.917 1720.25 743.757 1719.23 746.194C1717.97 749.324 1712.1 752.436 1707.03 753.331C1704.66 753.75 1702.17 754.38 1699.04 748.859C1699.04 748.859 1697.69 746.696 1697.34 744.523C1697.34 744.523 1696.61 743.958 1695.64 743.739L1695.58 743.72L1695.51 743.702C1694.54 743.483 1693.64 743.666 1693.64 743.666C1692.37 745.473 1690.21 746.823 1690.21 746.823C1684.99 750.419 1683.03 748.767 1681.07 747.353C1676.91 744.341 1672.99 738.974 1673.23 735.607" fill="#D66577"/>
<path d="M1690.19 740.297L1685.66 742.825C1685.56 742.88 1685.56 743.035 1685.66 743.09L1687.04 743.756C1687.12 743.793 1687.15 743.902 1687.09 743.975L1685.36 746.294C1685.26 746.421 1685.41 746.595 1685.55 746.503L1690.14 743.747C1690.24 743.683 1690.23 743.537 1690.13 743.492L1688.98 742.944C1688.9 742.908 1688.87 742.807 1688.92 742.734L1690.39 740.526C1690.48 740.398 1690.33 740.243 1690.2 740.316" fill="white"/>
<path d="M1715.61 744.049L1711.08 746.577C1710.98 746.632 1710.98 746.787 1711.08 746.842L1712.45 747.508C1712.54 747.545 1712.56 747.654 1712.51 747.727L1710.77 750.046C1710.67 750.173 1710.83 750.347 1710.97 750.255L1715.56 747.499C1715.66 747.435 1715.65 747.289 1715.55 747.244L1714.4 746.696C1714.32 746.66 1714.29 746.559 1714.34 746.486L1715.81 744.277C1715.89 744.15 1715.75 743.995 1715.62 744.068" fill="white"/>
</g>
<mask id="mask5_1013_6903" style="mask-type:luminance" maskUnits="userSpaceOnUse" x="168" y="708" width="78" height="75">
<path d="M168.5 782.29V708.5H245.08V782.29H168.5Z" fill="white" stroke="white"/>
</mask>
<g mask="url(#mask5_1013_6903)">
<mask id="path-56-inside-1_1013_6903" fill="white">
<path d="M244.892 769.191C244.892 769.191 227.782 767.831 221.692 758.481C218.412 755.371 216.792 754.391 214.362 753.651C211.452 752.751 211.252 752.161 207.482 751.871C203.812 751.721 204.402 752.331 202.482 752.941C200.882 753.451 200.452 754.301 201.152 757.251C206.032 765.071 204.492 775.851 204.492 775.851C212.832 780.821 217.592 776.471 226.402 779.691C233.782 782.391 240.522 771.921 244.902 769.191"/>
</mask>
<path d="M244.892 769.191C244.892 769.191 227.782 767.831 221.692 758.481C218.412 755.371 216.792 754.391 214.362 753.651C211.452 752.751 211.252 752.161 207.482 751.871C203.812 751.721 204.402 752.331 202.482 752.941C200.882 753.451 200.452 754.301 201.152 757.251C206.032 765.071 204.492 775.851 204.492 775.851C212.832 780.821 217.592 776.471 226.402 779.691C233.782 782.391 240.522 771.921 244.902 769.191" fill="#EE342E"/>
<path d="M221.692 758.481L222.53 757.935L222.466 757.836L222.38 757.755L221.692 758.481ZM214.362 753.651L214.067 754.606L214.071 754.607L214.362 753.651ZM207.482 751.871L207.559 750.874L207.541 750.872L207.523 750.871L207.482 751.871ZM202.482 752.941L202.179 751.988L202.178 751.988L202.482 752.941ZM201.152 757.251L200.179 757.482L200.217 757.641L200.304 757.78L201.152 757.251ZM204.492 775.851L203.502 775.709L203.408 776.369L203.98 776.71L204.492 775.851ZM226.402 779.691L226.746 778.752L226.745 778.751L226.402 779.691ZM244.892 769.191C244.971 768.194 244.972 768.194 244.972 768.194C244.972 768.194 244.972 768.194 244.972 768.194C244.971 768.194 244.971 768.194 244.97 768.194C244.969 768.194 244.966 768.193 244.963 768.193C244.956 768.193 244.945 768.192 244.93 768.19C244.901 768.188 244.855 768.184 244.795 768.178C244.674 768.166 244.493 768.148 244.26 768.121C243.793 768.067 243.116 767.979 242.283 767.845C240.614 767.576 238.33 767.123 235.863 766.384C230.875 764.891 225.373 762.299 222.53 757.935L220.854 759.026C224.102 764.012 230.199 766.776 235.289 768.3C237.861 769.07 240.235 769.541 241.965 769.819C242.831 769.959 243.538 770.05 244.03 770.107C244.277 770.136 244.47 770.156 244.602 770.168C244.669 770.175 244.72 770.18 244.755 770.183C244.773 770.184 244.787 770.185 244.796 770.186C244.801 770.187 244.805 770.187 244.808 770.187C244.809 770.187 244.81 770.187 244.811 770.187C244.812 770.187 244.812 770.187 244.812 770.187C244.813 770.187 244.813 770.188 244.892 769.191ZM222.38 757.755C219.041 754.589 217.289 753.497 214.653 752.694L214.071 754.607C216.295 755.285 217.783 756.153 221.004 759.206L222.38 757.755ZM214.658 752.695C211.952 751.859 211.475 751.175 207.559 750.874L207.405 752.868C211.03 753.146 210.952 753.643 214.067 754.606L214.658 752.695ZM207.523 750.871C205.662 750.795 204.721 750.9 203.97 751.186C203.624 751.318 203.319 751.493 203.098 751.607C202.861 751.729 202.591 751.857 202.179 751.988L202.785 753.894C203.333 753.72 203.709 753.542 204.017 753.383C204.34 753.216 204.476 753.133 204.682 753.055C205.034 752.921 205.632 752.796 207.441 752.87L207.523 750.871ZM202.178 751.988C201.259 752.281 200.38 752.769 200.008 753.858C199.687 754.801 199.829 756.007 200.179 757.482L202.125 757.02C201.775 755.545 201.783 754.85 201.901 754.503C201.97 754.302 202.106 754.11 202.786 753.893L202.178 751.988ZM200.304 757.78C202.618 761.489 203.434 765.949 203.654 769.544C203.764 771.332 203.725 772.883 203.658 773.984C203.625 774.534 203.585 774.971 203.554 775.268C203.539 775.416 203.525 775.529 203.516 775.604C203.511 775.641 203.508 775.669 203.505 775.687C203.504 775.696 203.503 775.702 203.503 775.706C203.502 775.708 203.502 775.709 203.502 775.709C203.502 775.71 203.502 775.71 203.502 775.71C203.502 775.71 203.502 775.71 203.502 775.71C203.502 775.709 203.502 775.709 204.492 775.851C205.482 775.992 205.482 775.992 205.482 775.991C205.482 775.991 205.482 775.991 205.482 775.991C205.482 775.99 205.483 775.989 205.483 775.988C205.483 775.986 205.483 775.983 205.484 775.98C205.485 775.973 205.486 775.964 205.488 775.952C205.491 775.929 205.495 775.895 205.501 775.851C205.511 775.764 205.526 775.638 205.543 775.477C205.577 775.153 205.62 774.687 205.655 774.104C205.725 772.94 205.766 771.307 205.65 769.422C205.421 765.672 204.566 760.833 202.001 756.721L200.304 757.78ZM203.98 776.71C208.381 779.332 211.874 779.492 215.29 779.427C218.668 779.362 221.862 779.096 226.059 780.63L226.745 778.751C222.132 777.065 218.541 777.364 215.252 777.427C212.001 777.489 208.943 777.339 205.004 774.992L203.98 776.71ZM226.059 780.63C230.305 782.183 234.238 779.886 237.416 777.246C239.031 775.904 240.55 774.389 241.898 773.08C243.279 771.74 244.444 770.655 245.431 770.039L244.373 768.342C243.171 769.092 241.851 770.339 240.505 771.645C239.127 772.983 237.678 774.428 236.138 775.708C233.006 778.31 229.88 779.898 226.746 778.752L226.059 780.63Z" fill="#6680B5" mask="url(#path-56-inside-1_1013_6903)"/>
<path d="M244.892 769.191C244.892 769.191 227.782 767.831 221.692 758.481C218.412 755.371 216.792 754.391 214.362 753.651C211.452 752.751 211.252 752.161 207.482 751.871C203.812 751.721 204.402 752.331 202.482 752.941C200.882 753.451 200.452 754.301 201.152 757.251C206.032 765.071 204.492 775.851 204.492 775.851C212.832 780.821 217.592 776.471 226.402 779.691C233.782 782.391 240.522 771.921 244.902 769.191H244.892Z" stroke="#6680B5" stroke-width="1.39" stroke-linecap="round" stroke-linejoin="round"/>
<mask id="path-59-inside-2_1013_6903" fill="white">
<path d="M213.3 763.471C211.97 761.271 219.76 757.881 222.46 756.971C225.79 755.851 229.76 756.031 231.24 756.321C235.37 757.121 235.38 761.051 232.49 761.721C231.25 762.011 227.4 761.721 223.23 763.361C216.63 765.951 214.39 765.281 213.29 763.471"/>
</mask>
<path d="M213.3 763.471C211.97 761.271 219.76 757.881 222.46 756.971C225.79 755.851 229.76 756.031 231.24 756.321C235.37 757.121 235.38 761.051 232.49 761.721C231.25 762.011 227.4 761.721 223.23 763.361C216.63 765.951 214.39 765.281 213.29 763.471" fill="#C4CBDF"/>
<path d="M222.46 756.971L222.141 756.023L222.141 756.023L222.46 756.971ZM231.24 756.321L231.048 757.302L231.05 757.303L231.24 756.321ZM232.49 761.721L232.264 760.747L232.262 760.747L232.49 761.721ZM223.23 763.361L223.595 764.292L223.596 764.291L223.23 763.361ZM214.156 762.953C214.152 762.947 214.139 762.95 214.159 762.883C214.19 762.779 214.288 762.593 214.529 762.329C215.01 761.802 215.838 761.204 216.873 760.601C218.92 759.406 221.478 758.357 222.779 757.918L222.141 756.023C220.742 756.495 218.054 757.596 215.865 758.873C214.781 759.506 213.741 760.225 213.052 760.981C212.707 761.358 212.394 761.805 212.243 762.311C212.081 762.855 212.116 763.445 212.444 763.988L214.156 762.953ZM222.779 757.919C225.909 756.866 229.697 757.037 231.048 757.302L231.432 755.339C229.823 755.024 225.671 754.836 222.141 756.023L222.779 757.919ZM231.05 757.303C232.816 757.645 233.421 758.574 233.506 759.203C233.591 759.826 233.238 760.521 232.264 760.747L232.716 762.695C234.632 762.251 235.719 760.645 235.488 758.936C235.258 757.232 233.794 755.797 231.43 755.339L231.05 757.303ZM232.262 760.747C232.05 760.797 231.671 760.83 231.041 760.871C230.449 760.91 229.699 760.953 228.856 761.04C227.166 761.214 225.064 761.565 222.864 762.43L223.596 764.291C225.566 763.517 227.473 763.193 229.061 763.029C229.857 762.947 230.563 762.906 231.172 762.867C231.743 762.829 232.31 762.79 232.718 762.694L232.262 760.747ZM222.865 762.43C219.595 763.713 217.548 764.127 216.243 764.067C215.611 764.038 215.188 763.898 214.888 763.721C214.59 763.544 214.353 763.295 214.145 762.951L212.435 763.99C212.777 764.552 213.232 765.065 213.87 765.442C214.505 765.818 215.261 766.024 216.152 766.065C217.892 766.145 220.265 765.599 223.595 764.292L222.865 762.43Z" fill="#6680B5" mask="url(#path-59-inside-2_1013_6903)"/>
<path d="M213.3 763.471C211.97 761.271 219.76 757.881 222.46 756.971C225.79 755.851 229.76 756.031 231.24 756.321C235.37 757.121 235.38 761.051 232.49 761.721C231.25 762.011 227.4 761.721 223.23 763.361C216.63 765.951 214.39 765.281 213.29 763.471H213.3Z" stroke="#6680B5" stroke-width="1.39" stroke-linecap="round" stroke-linejoin="round"/>
<mask id="path-62-inside-3_1013_6903" fill="white">
<path d="M223.819 767.821C225.369 769.801 229.029 770.331 229.129 768.991C229.149 768.711 228.359 768.611 227.939 767.831C227.359 766.731 227.709 765.721 228.329 764.961C229.149 763.961 230.649 763.421 232.079 763.931C233.309 764.371 234.319 765.121 234.899 766.751C236.129 770.251 233.329 774.291 227.829 773.791C226.669 773.691 224.519 773.371 222.359 771.151"/>
</mask>
<path d="M223.819 767.821C225.369 769.801 229.029 770.331 229.129 768.991C229.149 768.711 228.359 768.611 227.939 767.831C227.359 766.731 227.709 765.721 228.329 764.961C229.149 763.961 230.649 763.421 232.079 763.931C233.309 764.371 234.319 765.121 234.899 766.751C236.129 770.251 233.329 774.291 227.829 773.791C226.669 773.691 224.519 773.371 222.359 771.151" fill="#C4CBDF"/>
<path d="M229.129 768.991L230.127 769.065L230.127 769.062L229.129 768.991ZM227.939 767.831L227.055 768.297L227.059 768.305L227.939 767.831ZM228.329 764.961L227.556 764.327L227.555 764.328L228.329 764.961ZM232.079 763.931L232.416 762.989L232.415 762.989L232.079 763.931ZM234.899 766.751L235.843 766.419L235.842 766.415L234.899 766.751ZM227.829 773.791L227.92 772.795L227.915 772.794L227.829 773.791ZM223.032 768.437C223.995 769.667 225.543 770.389 226.832 770.633C227.477 770.755 228.162 770.779 228.747 770.614C229.342 770.446 230.058 769.987 230.127 769.065L228.132 768.916C228.151 768.664 228.372 768.642 228.203 768.689C228.026 768.739 227.68 768.758 227.204 768.668C226.251 768.487 225.194 767.954 224.607 767.204L223.032 768.437ZM230.127 769.062C230.171 768.45 229.74 768.102 229.628 768.014C229.499 767.913 229.296 767.792 229.236 767.754C229.036 767.627 228.908 767.52 228.82 767.356L227.059 768.305C227.391 768.921 227.867 769.254 228.162 769.442C228.21 769.472 228.322 769.541 228.339 769.552C228.387 769.582 228.398 769.591 228.394 769.588C228.391 769.585 228.376 769.574 228.355 769.553C228.335 769.532 228.301 769.496 228.267 769.443C228.19 769.327 228.116 769.144 228.132 768.919L230.127 769.062ZM228.824 767.364C228.493 766.736 228.642 766.159 229.104 765.593L227.555 764.328C226.777 765.282 226.226 766.725 227.055 768.297L228.824 767.364ZM229.103 765.595C229.676 764.896 230.741 764.515 231.743 764.872L232.415 762.989C230.558 762.326 228.623 763.025 227.556 764.327L229.103 765.595ZM231.743 764.872C232.742 765.23 233.495 765.787 233.957 767.086L235.842 766.415C235.144 764.455 233.877 763.512 232.416 762.989L231.743 764.872ZM233.956 767.082C234.447 768.481 234.139 769.986 233.141 771.105C232.15 772.218 230.405 773.021 227.92 772.795L227.739 774.786C230.754 775.061 233.158 774.093 234.635 772.436C236.105 770.786 236.581 768.521 235.843 766.419L233.956 767.082ZM227.915 772.794C226.883 772.705 225.004 772.435 223.076 770.453L221.643 771.848C224.035 774.306 226.456 774.676 227.743 774.787L227.915 772.794Z" fill="#6680B5" mask="url(#path-62-inside-3_1013_6903)"/>
<path d="M223.819 767.821C225.369 769.801 229.029 770.331 229.129 768.991C229.149 768.711 228.359 768.611 227.939 767.831C227.359 766.731 227.709 765.721 228.329 764.961C229.149 763.961 230.649 763.421 232.079 763.931C233.309 764.371 234.319 765.121 234.899 766.751C236.129 770.251 233.329 774.291 227.829 773.791C226.669 773.691 224.519 773.371 222.359 771.151" stroke="#6680B5" stroke-width="1.39" stroke-linecap="round" stroke-linejoin="round"/>
<mask id="path-65-inside-4_1013_6903" fill="white">
<path d="M213.782 774.591L211.162 774.471C206.742 776.101 204.582 771.961 203.262 768.401L200.402 764.931C199.092 761.371 199.352 755.521 203.772 753.891L205.612 753.211C210.032 751.581 214.672 753.151 215.992 756.721L221.642 768.991C222.962 772.551 219.422 776.311 213.772 774.601"/>
</mask>
<path d="M213.782 774.591L211.162 774.471C206.742 776.101 204.582 771.961 203.262 768.401L200.402 764.931C199.092 761.371 199.352 755.521 203.772 753.891L205.612 753.211C210.032 751.581 214.672 753.151 215.992 756.721L221.642 768.991C222.962 772.551 219.422 776.311 213.772 774.601" fill="#C4CBDF"/>
<path d="M211.162 774.471L211.208 773.472L211.006 773.462L210.816 773.532L211.162 774.471ZM203.262 768.401L204.199 768.053L204.141 767.895L204.034 767.764L203.262 768.401ZM200.402 764.931L199.463 765.276L199.522 765.435L199.63 765.567L200.402 764.931ZM203.772 753.891L204.118 754.829L204.119 754.829L203.772 753.891ZM205.612 753.211L205.266 752.272L205.265 752.273L205.612 753.211ZM215.992 756.721L215.054 757.067L215.067 757.104L215.084 757.139L215.992 756.721ZM221.642 768.991L222.579 768.643L222.566 768.607L222.55 768.572L221.642 768.991ZM213.828 773.592L211.208 773.472L211.116 775.469L213.736 775.589L213.828 773.592ZM210.816 773.532C209.871 773.881 209.115 773.899 208.495 773.741C207.867 773.582 207.295 773.221 206.762 772.68C205.665 771.567 204.855 769.821 204.199 768.053L202.324 768.748C202.989 770.541 203.918 772.644 205.337 774.084C206.061 774.818 206.94 775.41 208.002 775.68C209.071 775.951 210.242 775.875 211.508 775.409L210.816 773.532ZM204.034 767.764L201.174 764.294L199.63 765.567L202.49 769.037L204.034 767.764ZM201.34 764.585C200.744 762.964 200.506 760.805 200.916 758.897C201.322 757.009 202.324 755.49 204.118 754.829L203.426 752.952C200.8 753.921 199.462 756.142 198.96 758.477C198.463 760.791 198.75 763.337 199.463 765.276L201.34 764.585ZM204.119 754.829L205.959 754.149L205.265 752.273L203.425 752.953L204.119 754.829ZM205.958 754.149C210.056 752.637 213.991 754.191 215.054 757.067L216.93 756.374C215.353 752.11 210.008 750.524 205.266 752.272L205.958 754.149ZM215.084 757.139L220.734 769.409L222.55 768.572L216.9 756.302L215.084 757.139ZM220.704 769.338C221.209 770.699 220.798 772.085 219.686 772.999C218.57 773.916 216.637 774.423 214.062 773.643L213.482 775.558C216.557 776.488 219.219 775.97 220.955 774.545C222.695 773.116 223.395 770.842 222.579 768.643L220.704 769.338Z" fill="#6680B5" mask="url(#path-65-inside-4_1013_6903)"/>
<path d="M203.104 762.849C203.145 762.834 203.187 762.818 203.231 762.802C203.761 762.605 204.481 762.364 205.253 762.186C206.029 762.007 206.832 761.897 207.534 761.945C208.099 761.983 208.555 762.119 208.886 762.363C208.833 762.477 208.763 762.616 208.674 762.767C208.435 763.173 208.078 763.639 207.592 763.959C207.121 764.268 206.512 764.452 205.711 764.285C205.019 764.14 204.155 763.726 203.104 762.849Z" fill="#EE342E" stroke="#6680B5"/>
<path d="M202.172 762.69C202.172 762.69 207.652 760.2 209.482 762.23C209.482 762.23 207.612 767.8 202.172 762.69Z" stroke="#6680B5" stroke-width="1.39" stroke-linecap="round" stroke-linejoin="round"/>
<path d="M215.579 760.707C215.626 760.708 215.671 760.709 215.715 760.71C215.014 761.884 214.336 762.56 213.731 762.926C213.031 763.349 212.395 763.378 211.847 763.243C211.283 763.103 210.792 762.782 210.432 762.478C210.298 762.365 210.186 762.258 210.098 762.168C210.329 761.829 210.713 761.549 211.234 761.326C211.88 761.049 212.674 760.886 213.467 760.797C214.254 760.709 215.014 760.697 215.579 760.707Z" fill="#EE342E" stroke="#6680B5"/>
<path d="M216.542 760.251C216.542 760.251 210.542 759.721 209.492 762.241C209.492 762.241 213.102 766.871 216.542 760.251Z" stroke="#6680B5" stroke-width="1.39" stroke-linecap="round" stroke-linejoin="round"/>
<mask id="path-71-inside-5_1013_6903" fill="white">
<path d="M224.632 723.98C222.292 723.32 221.132 720.66 218.012 715.63C214.822 710.49 212.362 708.42 209.912 708.73C206.342 709.18 203.072 720.81 201.372 721.02C199.672 721.23 193.612 710.78 190.042 711.23C187.592 711.54 185.732 714.16 183.912 719.93C182.132 725.58 181.672 728.44 179.572 729.66C172.782 733.63 167.682 740.89 171.182 751.55C173.122 757.44 179.032 762.95 187.372 763.48C195.302 763.98 203.542 762.66 206.582 762.27C209.632 761.89 217.932 761.12 225.492 758.66C233.442 756.07 237.792 749.27 238.212 743.08C238.952 731.88 232.212 726.12 224.632 723.97"/>
</mask>
<path d="M224.632 723.98C222.292 723.32 221.132 720.66 218.012 715.63C214.822 710.49 212.362 708.42 209.912 708.73C206.342 709.18 203.072 720.81 201.372 721.02C199.672 721.23 193.612 710.78 190.042 711.23C187.592 711.54 185.732 714.16 183.912 719.93C182.132 725.58 181.672 728.44 179.572 729.66C172.782 733.63 167.682 740.89 171.182 751.55C173.122 757.44 179.032 762.95 187.372 763.48C195.302 763.98 203.542 762.66 206.582 762.27C209.632 761.89 217.932 761.12 225.492 758.66C233.442 756.07 237.792 749.27 238.212 743.08C238.952 731.88 232.212 726.12 224.632 723.97" fill="#C4CBDF"/>
<path d="M218.012 715.63L218.862 715.103L218.862 715.103L218.012 715.63ZM209.912 708.73L210.037 709.722L210.038 709.722L209.912 708.73ZM190.042 711.23L189.917 710.238L189.916 710.238L190.042 711.23ZM183.912 719.93L182.958 719.629L182.958 719.63L183.912 719.93ZM179.572 729.66L179.07 728.796L179.067 728.797L179.572 729.66ZM171.182 751.55L170.232 751.862L170.232 751.863L171.182 751.55ZM187.372 763.48L187.309 764.478L187.309 764.478L187.372 763.48ZM206.582 762.27L206.458 761.278L206.455 761.278L206.582 762.27ZM225.492 758.66L225.801 759.611L225.802 759.611L225.492 758.66ZM238.212 743.08L239.21 743.148L239.21 743.146L238.212 743.08ZM224.903 723.018C224.069 722.782 223.362 722.184 222.431 720.867C221.48 719.521 220.461 717.682 218.862 715.103L217.162 716.157C218.683 718.609 219.804 720.615 220.798 722.021C221.812 723.456 222.856 724.518 224.361 724.943L224.903 723.018ZM218.862 715.103C217.248 712.503 215.77 710.596 214.332 709.374C212.875 708.137 211.376 707.537 209.786 707.738L210.038 709.722C210.898 709.614 211.854 709.894 213.037 710.899C214.239 711.919 215.586 713.618 217.162 716.158L218.862 715.103ZM209.787 707.738C209.085 707.827 208.47 708.178 207.95 708.61C207.428 709.045 206.944 709.61 206.5 710.226C205.612 711.455 204.785 713.023 204.044 714.523C203.284 716.062 202.633 717.492 202.039 718.604C201.745 719.155 201.495 719.57 201.286 719.843C201.182 719.979 201.111 720.05 201.075 720.079C201.032 720.115 201.093 720.047 201.249 720.028L201.495 722.013C201.863 721.967 202.15 721.784 202.343 721.626C202.543 721.462 202.72 721.26 202.875 721.058C203.185 720.652 203.497 720.121 203.804 719.546C204.413 718.403 205.121 716.859 205.837 715.408C206.573 713.918 207.339 712.48 208.121 711.396C208.512 710.855 208.883 710.436 209.229 710.148C209.579 709.857 209.846 709.746 210.037 709.722L209.787 707.738ZM201.249 720.028C201.404 720.009 201.48 720.059 201.428 720.034C201.385 720.014 201.298 719.963 201.163 719.857C200.893 719.643 200.546 719.302 200.124 718.841C199.273 717.91 198.286 716.686 197.167 715.384C196.076 714.115 194.885 712.802 193.719 711.831C193.135 711.345 192.527 710.918 191.913 710.627C191.302 710.337 190.619 710.15 189.917 710.238L190.167 712.222C190.358 712.198 190.645 712.239 191.055 712.434C191.463 712.627 191.927 712.941 192.439 713.368C193.467 714.224 194.566 715.426 195.65 716.687C196.704 717.914 197.774 719.235 198.649 720.191C199.09 720.673 199.523 721.11 199.924 721.426C200.124 721.584 200.346 721.736 200.58 721.846C200.805 721.951 201.127 722.058 201.495 722.013L201.249 720.028ZM189.916 710.238C188.326 710.439 187.026 711.395 185.924 712.956C184.836 714.498 183.879 716.711 182.958 719.629L184.866 720.231C185.765 717.379 186.648 715.398 187.558 714.109C188.453 712.841 189.308 712.331 190.168 712.222L189.916 710.238ZM182.958 719.63C182.046 722.527 181.515 724.56 180.928 726.1C180.353 727.607 179.819 728.36 179.07 728.796L180.074 730.525C181.425 729.74 182.171 728.453 182.796 726.813C183.409 725.205 183.998 722.984 184.866 720.231L182.958 719.63ZM179.067 728.797C175.545 730.857 172.404 733.802 170.611 737.677C168.808 741.572 168.411 746.315 170.232 751.862L172.132 751.238C170.453 746.125 170.856 741.909 172.426 738.517C174.005 735.104 176.809 732.434 180.077 730.524L179.067 728.797ZM170.232 751.863C172.295 758.126 178.545 763.921 187.309 764.478L187.435 762.482C179.519 761.979 173.949 756.755 172.132 751.237L170.232 751.863ZM187.309 764.478C195.357 764.986 203.71 763.647 206.709 763.262L206.455 761.278C203.374 761.674 195.247 762.975 187.435 762.482L187.309 764.478ZM206.706 763.263C209.715 762.888 218.129 762.108 225.801 759.611L225.183 757.709C217.735 760.133 209.549 760.893 206.458 761.278L206.706 763.263ZM225.802 759.611C234.155 756.89 238.763 749.729 239.21 743.148L237.214 743.013C236.821 748.812 232.729 755.251 225.182 757.709L225.802 759.611ZM239.21 743.146C239.595 737.319 238.032 732.823 235.316 729.499C232.615 726.193 228.837 724.124 224.905 723.008L224.359 724.932C228.007 725.967 231.389 727.853 233.768 730.764C236.132 733.658 237.569 737.642 237.214 743.014L239.21 743.146Z" fill="#6680B5" mask="url(#path-71-inside-5_1013_6903)"/>
<path d="M224.632 723.98C222.292 723.32 221.132 720.66 218.012 715.63C214.822 710.49 212.362 708.42 209.912 708.73C206.342 709.18 203.072 720.81 201.372 721.02C199.672 721.23 193.612 710.78 190.042 711.23C187.592 711.54 185.732 714.16 183.912 719.93C182.132 725.58 181.672 728.44 179.572 729.66C172.782 733.63 167.682 740.89 171.182 751.55C173.122 757.44 179.032 762.95 187.372 763.48C195.302 763.98 203.542 762.66 206.582 762.27C209.632 761.89 217.932 761.12 225.492 758.66C233.442 756.07 237.792 749.27 238.212 743.08C238.952 731.88 232.212 726.12 224.632 723.97V723.98Z" stroke="#6680B5" stroke-width="1.39" stroke-linecap="round" stroke-linejoin="round"/>
<mask id="path-74-inside-6_1013_6903" fill="white">
<path d="M195.841 749.82C195.841 749.82 195.771 749.76 195.761 749.72C195.761 749.7 195.761 749.66 195.781 749.64C196.721 748.85 196.161 747.31 196.131 747.25C195.861 746.53 195.311 745.99 194.531 745.69C193.431 745.27 191.981 745.39 190.821 746C188.351 747.22 189.211 751.17 189.811 752.47C190.541 754.07 191.911 754.78 193.781 754.55C193.911 754.53 194.041 754.51 194.181 754.49C196.021 754.14 196.921 753.21 196.951 751.63C196.851 750.48 196.351 750.08 195.831 749.82"/>
</mask>
<path d="M195.841 749.82C195.841 749.82 195.771 749.76 195.761 749.72C195.761 749.7 195.761 749.66 195.781 749.64C196.721 748.85 196.161 747.31 196.131 747.25C195.861 746.53 195.311 745.99 194.531 745.69C193.431 745.27 191.981 745.39 190.821 746C188.351 747.22 189.211 751.17 189.811 752.47C190.541 754.07 191.911 754.78 193.781 754.55C193.911 754.53 194.041 754.51 194.181 754.49C196.021 754.14 196.921 753.21 196.951 751.63C196.851 750.48 196.351 750.08 195.831 749.82" fill="#261A16"/>
<path d="M195.761 749.72H194.761V749.843L194.791 749.963L195.761 749.72ZM195.781 749.64L195.138 748.875L195.104 748.903L195.074 748.933L195.781 749.64ZM196.131 747.25L195.195 747.601L195.213 747.651L195.237 747.697L196.131 747.25ZM194.531 745.69L194.89 744.757L194.888 744.756L194.531 745.69ZM190.821 746L191.264 746.897L191.275 746.891L191.286 746.885L190.821 746ZM189.811 752.47L190.721 752.055L190.719 752.051L189.811 752.47ZM193.781 754.55L193.903 755.543L193.918 755.541L193.933 755.539L193.781 754.55ZM194.181 754.49L194.322 755.48L194.345 755.477L194.368 755.473L194.181 754.49ZM196.951 751.63L197.951 751.649L197.952 751.596L197.947 751.544L196.951 751.63ZM195.841 749.82C196.492 749.061 196.492 749.061 196.492 749.061C196.492 749.061 196.492 749.061 196.492 749.061C196.492 749.061 196.492 749.062 196.493 749.062C196.493 749.062 196.493 749.062 196.493 749.062C196.494 749.063 196.494 749.063 196.495 749.064C196.496 749.064 196.497 749.065 196.497 749.066C196.499 749.067 196.501 749.069 196.502 749.07C196.505 749.073 196.508 749.075 196.511 749.078C196.516 749.083 196.524 749.09 196.534 749.101C196.543 749.11 196.566 749.135 196.594 749.175C196.61 749.198 196.689 749.308 196.731 749.478L194.791 749.963C194.838 750.153 194.929 750.285 194.962 750.331C195.005 750.393 195.048 750.44 195.075 750.469C195.104 750.5 195.131 750.526 195.149 750.542C195.158 750.551 195.167 750.559 195.174 750.565C195.177 750.568 195.18 750.571 195.183 750.573C195.184 750.574 195.186 750.576 195.187 750.577C195.187 750.577 195.188 750.578 195.189 750.578C195.189 750.578 195.189 750.579 195.189 750.579C195.19 750.579 195.19 750.579 195.19 750.579C195.19 750.579 195.19 750.579 195.19 750.579C195.19 750.579 195.19 750.58 195.841 749.82ZM196.761 749.72C196.761 749.705 196.763 749.767 196.75 749.845C196.743 749.887 196.728 749.956 196.695 750.037C196.662 750.118 196.6 750.235 196.488 750.347L195.074 748.933C194.842 749.165 194.791 749.432 194.777 749.516C194.759 749.623 194.761 749.716 194.761 749.72H196.761ZM196.424 750.406C197.246 749.715 197.352 748.742 197.318 748.118C197.301 747.791 197.244 747.502 197.19 747.291C197.145 747.113 197.083 746.919 197.025 746.803L195.237 747.697C195.211 747.647 195.198 747.609 195.206 747.628C195.206 747.63 195.209 747.638 195.214 747.652C195.223 747.68 195.237 747.726 195.252 747.785C195.283 747.905 195.312 748.061 195.321 748.225C195.34 748.583 195.256 748.775 195.138 748.875L196.424 750.406ZM197.067 746.899C196.689 745.89 195.915 745.151 194.89 744.757L194.172 746.624C194.707 746.83 195.033 747.171 195.195 747.601L197.067 746.899ZM194.888 744.756C193.488 744.222 191.739 744.388 190.356 745.115L191.286 746.885C192.223 746.393 193.374 746.319 194.174 746.625L194.888 744.756ZM190.378 745.104C188.64 745.962 188.186 747.745 188.165 749.191C188.144 750.654 188.545 752.114 188.903 752.889L190.719 752.051C190.477 751.526 190.148 750.361 190.165 749.22C190.181 748.061 190.532 747.258 191.264 746.897L190.378 745.104ZM188.901 752.885C189.344 753.856 190.012 754.616 190.905 755.083C191.792 755.546 192.816 755.677 193.903 755.543L193.659 753.558C192.876 753.654 192.28 753.545 191.832 753.31C191.39 753.079 191.008 752.684 190.721 752.055L188.901 752.885ZM193.933 755.539C194.064 755.519 194.189 755.499 194.322 755.48L194.04 753.5C193.893 753.521 193.758 753.542 193.629 753.562L193.933 755.539ZM194.368 755.473C195.406 755.275 196.311 754.891 196.963 754.217C197.633 753.525 197.932 752.636 197.951 751.649L195.951 751.611C195.94 752.204 195.774 752.571 195.526 752.826C195.261 753.1 194.796 753.355 193.994 753.508L194.368 755.473ZM197.947 751.544C197.885 750.833 197.691 750.258 197.355 749.8C197.02 749.344 196.608 749.091 196.278 748.926L195.384 750.715C195.574 750.81 195.672 750.887 195.742 750.983C195.811 751.078 195.917 751.277 195.955 751.717L197.947 751.544Z" fill="#6680B5" mask="url(#path-74-inside-6_1013_6903)"/>
<path d="M193.766 747.333C193.632 747.212 193.435 747.129 193.145 747.166C192.859 747.203 192.689 747.332 192.589 747.485C192.481 747.649 192.432 747.872 192.461 748.103C192.491 748.334 192.592 748.536 192.737 748.667C192.872 748.788 193.068 748.871 193.358 748.834L193.766 747.333ZM193.766 747.333C193.911 747.464 194.013 747.666 194.042 747.898M193.766 747.333L194.042 747.898M194.042 747.898C194.071 748.129 194.022 748.352 193.914 748.515M194.042 747.898L193.914 748.515M193.914 748.515C193.814 748.668 193.645 748.797 193.358 748.834L193.914 748.515Z" fill="white" stroke="#6680B5"/>
<path d="M192.252 751.476C192.376 751.461 192.444 751.497 192.487 751.537C192.541 751.586 192.587 751.671 192.601 751.78C192.615 751.888 192.59 751.981 192.551 752.04C192.52 752.088 192.465 752.138 192.339 752.154C192.212 752.169 192.144 752.133 192.101 752.094C192.048 752.045 192.002 751.961 191.988 751.854C191.975 751.746 191.999 751.653 192.038 751.593C192.07 751.545 192.127 751.493 192.252 751.476Z" fill="white" stroke="#6680B5"/>
<path d="M194.763 752.134L194.763 752.134L194.756 752.135C194.754 752.129 194.752 752.121 194.751 752.112C194.75 752.103 194.75 752.094 194.751 752.087C194.751 752.087 194.751 752.087 194.751 752.087L194.751 752.087L194.758 752.086C194.761 752.092 194.762 752.1 194.764 752.108C194.765 752.118 194.765 752.127 194.764 752.134C194.763 752.134 194.763 752.134 194.763 752.134Z" fill="white" stroke="#6680B5"/>
<mask id="path-79-inside-7_1013_6903" fill="white">
<path d="M214.181 747.51C214.181 747.51 214.111 747.45 214.101 747.41C214.101 747.39 214.101 747.35 214.121 747.33C215.061 746.53 214.501 745 214.471 744.94C214.201 744.22 213.651 743.68 212.871 743.38C211.781 742.96 210.321 743.08 209.161 743.69C206.691 744.91 207.551 748.86 208.151 750.16C208.881 751.76 210.251 752.47 212.121 752.24C212.251 752.22 212.381 752.2 212.521 752.18C214.361 751.83 215.261 750.9 215.291 749.32C215.191 748.17 214.691 747.77 214.171 747.51"/>
</mask>
<path d="M214.181 747.51C214.181 747.51 214.111 747.45 214.101 747.41C214.101 747.39 214.101 747.35 214.121 747.33C215.061 746.53 214.501 745 214.471 744.94C214.201 744.22 213.651 743.68 212.871 743.38C211.781 742.96 210.321 743.08 209.161 743.69C206.691 744.91 207.551 748.86 208.151 750.16C208.881 751.76 210.251 752.47 212.121 752.24C212.251 752.22 212.381 752.2 212.521 752.18C214.361 751.83 215.261 750.9 215.291 749.32C215.191 748.17 214.691 747.77 214.171 747.51" fill="#261A16"/>
<path d="M214.101 747.41H213.101V747.533L213.131 747.652L214.101 747.41ZM214.121 747.33L213.473 746.568L213.442 746.594L213.414 746.623L214.121 747.33ZM214.471 744.94L213.535 745.291L213.553 745.34L213.576 745.387L214.471 744.94ZM212.871 743.38L212.511 744.313L212.512 744.313L212.871 743.38ZM209.161 743.69L209.604 744.586L209.615 744.581L209.626 744.575L209.161 743.69ZM208.151 750.16L209.061 749.745L209.059 749.741L208.151 750.16ZM212.121 752.24L212.243 753.232L212.258 753.231L212.273 753.228L212.121 752.24ZM212.521 752.18L212.662 753.17L212.685 753.167L212.708 753.162L212.521 752.18ZM215.291 749.32L216.291 749.339L216.292 749.286L216.287 749.233L215.291 749.32ZM214.181 747.51C214.832 746.751 214.832 746.751 214.832 746.751C214.832 746.751 214.832 746.751 214.832 746.751C214.832 746.751 214.832 746.751 214.832 746.751C214.833 746.751 214.833 746.752 214.833 746.752C214.834 746.752 214.834 746.753 214.835 746.753C214.836 746.754 214.836 746.755 214.837 746.755C214.839 746.757 214.841 746.758 214.842 746.76C214.845 746.762 214.848 746.765 214.851 746.768C214.856 746.772 214.864 746.78 214.874 746.791C214.882 746.8 214.906 746.825 214.934 746.864C214.95 746.888 215.028 746.997 215.071 747.167L213.131 747.652C213.178 747.843 213.269 747.974 213.302 748.02C213.345 748.082 213.388 748.13 213.415 748.159C213.444 748.19 213.47 748.215 213.489 748.232C213.498 748.241 213.507 748.249 213.513 748.255C213.517 748.258 213.52 748.26 213.523 748.263C213.524 748.264 213.526 748.265 213.527 748.266C213.527 748.267 213.528 748.267 213.528 748.268C213.529 748.268 213.529 748.268 213.529 748.268C213.529 748.269 213.53 748.269 213.53 748.269C213.53 748.269 213.53 748.269 213.53 748.269C213.53 748.269 213.53 748.269 214.181 747.51ZM215.101 747.41C215.101 747.394 215.103 747.457 215.09 747.534C215.083 747.576 215.068 747.645 215.035 747.727C215.002 747.808 214.94 747.925 214.828 748.037L213.414 746.623C213.182 746.854 213.131 747.121 213.117 747.205C213.099 747.313 213.101 747.406 213.101 747.41H215.101ZM214.769 748.091C215.584 747.397 215.692 746.43 215.658 745.804C215.641 745.477 215.584 745.188 215.53 744.978C215.484 744.799 215.422 744.607 215.365 744.493L213.576 745.387C213.552 745.338 213.539 745.301 213.546 745.319C213.547 745.321 213.549 745.329 213.554 745.343C213.563 745.371 213.577 745.416 213.592 745.474C213.623 745.593 213.652 745.748 213.661 745.911C213.68 746.265 213.597 746.462 213.473 746.568L214.769 748.091ZM215.407 744.589C215.029 743.58 214.254 742.841 213.23 742.447L212.512 744.313C213.047 744.519 213.373 744.86 213.535 745.291L215.407 744.589ZM213.23 742.447C211.838 741.91 210.078 742.078 208.695 742.805L209.626 744.575C210.564 744.082 211.723 744.009 212.511 744.313L213.23 742.447ZM208.718 742.793C206.98 743.652 206.526 745.434 206.505 746.88C206.484 748.344 206.885 749.804 207.243 750.579L209.059 749.741C208.817 749.216 208.488 748.051 208.504 746.909C208.521 745.751 208.872 744.948 209.604 744.586L208.718 742.793ZM207.241 750.575C207.684 751.546 208.352 752.306 209.245 752.772C210.132 753.236 211.156 753.366 212.243 753.232L211.999 751.247C211.216 751.344 210.62 751.234 210.171 751C209.73 750.769 209.348 750.374 209.061 749.745L207.241 750.575ZM212.273 753.228C212.404 753.208 212.528 753.189 212.662 753.17L212.379 751.19C212.233 751.211 212.098 751.232 211.969 751.251L212.273 753.228ZM212.708 753.162C213.746 752.965 214.651 752.58 215.303 751.907C215.973 751.215 216.272 750.326 216.291 749.339L214.291 749.301C214.28 749.894 214.113 750.26 213.866 750.515C213.601 750.79 213.136 751.045 212.334 751.197L212.708 753.162ZM216.287 749.233C216.225 748.523 216.03 747.948 215.695 747.49C215.36 747.033 214.948 746.78 214.618 746.615L213.724 748.404C213.913 748.499 214.012 748.576 214.082 748.672C214.151 748.767 214.256 748.967 214.295 749.406L216.287 749.233Z" fill="#6680B5" mask="url(#path-79-inside-7_1013_6903)"/>
<path d="M212.106 745.024C211.971 744.903 211.775 744.819 211.485 744.857C211.198 744.893 211.029 745.023 210.929 745.175C210.821 745.339 210.772 745.562 210.801 745.793C210.83 746.024 210.932 746.227 211.077 746.357C211.211 746.479 211.408 746.562 211.698 746.525L212.106 745.024ZM212.106 745.024C212.251 745.154 212.352 745.357 212.382 745.588M212.106 745.024L212.382 745.588M212.382 745.588C212.411 745.819 212.362 746.042 212.254 746.206M212.382 745.588L212.254 746.206M212.254 746.206C212.154 746.358 211.984 746.488 211.698 746.525L212.254 746.206Z" fill="white" stroke="#6680B5"/>
<path d="M210.592 749.166C210.716 749.152 210.783 749.188 210.827 749.227C210.88 749.276 210.927 749.362 210.941 749.47C210.954 749.579 210.93 749.672 210.891 749.731C210.86 749.778 210.805 749.829 210.679 749.844C210.552 749.859 210.484 749.823 210.441 749.784C210.388 749.736 210.341 749.651 210.328 749.544C210.314 749.437 210.338 749.344 210.378 749.283C210.41 749.235 210.466 749.183 210.592 749.166Z" fill="white" stroke="#6680B5"/>
<path d="M213.103 749.823L213.103 749.823L213.096 749.824C213.094 749.818 213.092 749.811 213.091 749.802C213.09 749.792 213.09 749.783 213.09 749.776C213.091 749.776 213.091 749.776 213.091 749.776L213.091 749.776L213.098 749.775C213.1 749.782 213.102 749.789 213.103 749.798C213.105 749.808 213.104 749.816 213.104 749.823C213.103 749.823 213.103 749.823 213.103 749.823Z" fill="white" stroke="#6680B5"/>
<path d="M208.011 753.521C208.011 753.521 208.021 755.701 205.761 755.991C203.451 756.301 202.881 754.531 202.681 752.931C202.881 754.521 202.781 756.381 200.471 756.651C198.181 756.941 197.641 754.821 197.641 754.821" stroke="#6680B5" stroke-width="1.39" stroke-linecap="round" stroke-linejoin="round"/>
<path d="M178.909 748.57C178.909 748.57 177.199 745.47 180.579 744.84C180.579 744.84 191.949 742.39 199.479 745.85C199.479 745.85 200.459 746.02 202.029 745.74C203.599 745.45 203.469 745.35 203.969 745.08C204.469 744.81 211.519 739.65 221.989 739.62C221.989 739.62 224.819 739.48 224.689 742.14C224.579 745.53 220.899 750.83 216.019 752.56C216.019 752.56 210.449 754.42 206.639 751.55C206.639 751.55 204.439 750.08 203.339 747.68C203.339 747.68 202.819 747 201.759 747.16C201.039 747.27 200.489 747.46 200.309 748.16C200.129 748.87 199.149 753.25 194.819 755.01C194.819 755.01 187.059 758.44 180.619 750.99C180.619 750.99 179.759 750.07 178.909 748.57Z" fill="#6680B5"/>
<mask id="path-86-inside-8_1013_6903" fill="white">
<path d="M194.181 746.3L190.901 750.36C190.821 750.45 190.891 750.59 191.011 750.6L192.541 750.7C192.631 750.7 192.701 750.8 192.671 750.89L191.921 753.71C191.881 753.87 192.081 753.97 192.181 753.84L195.421 749.54C195.491 749.45 195.421 749.31 195.311 749.3L194.031 749.22C193.941 749.22 193.881 749.13 193.891 749.04L194.421 746.43C194.451 746.28 194.261 746.19 194.161 746.31"/>
</mask>
<path d="M194.181 746.3L190.901 750.36C190.821 750.45 190.891 750.59 191.011 750.6L192.541 750.7C192.631 750.7 192.701 750.8 192.671 750.89L191.921 753.71C191.881 753.87 192.081 753.97 192.181 753.84L195.421 749.54C195.491 749.45 195.421 749.31 195.311 749.3L194.031 749.22C193.941 749.22 193.881 749.13 193.891 749.04L194.421 746.43C194.451 746.28 194.261 746.19 194.161 746.31" fill="white"/>
<path d="M190.901 750.36L191.649 751.025L191.664 751.007L191.679 750.989L190.901 750.36ZM191.011 750.6L190.928 751.597L190.937 751.598L190.946 751.598L191.011 750.6ZM192.541 750.7L192.476 751.698L192.509 751.7H192.541V750.7ZM192.671 750.89L191.723 750.574L191.713 750.604L191.705 750.633L192.671 750.89ZM191.921 753.71L190.955 753.453L190.953 753.461L190.951 753.468L191.921 753.71ZM192.181 753.84L192.974 754.45L192.98 754.442L192.181 753.84ZM195.421 749.54L194.632 748.927L194.627 748.933L194.623 748.939L195.421 749.54ZM195.311 749.3L195.402 748.305L195.388 748.303L195.374 748.302L195.311 749.3ZM194.031 749.22L194.094 748.222L194.063 748.22H194.031V749.22ZM193.891 749.04L192.911 748.841L192.902 748.885L192.898 748.93L193.891 749.04ZM194.421 746.43L195.401 746.629L195.402 746.627L194.421 746.43ZM193.404 745.672L190.124 749.732L191.679 750.989L194.959 746.929L193.404 745.672ZM190.154 749.696C189.812 750.081 189.807 750.579 189.978 750.939C190.141 751.284 190.487 751.56 190.928 751.597L191.094 749.604C191.416 749.631 191.666 749.832 191.785 750.082C191.91 750.347 191.911 750.73 191.649 751.025L190.154 749.696ZM190.946 751.598L192.476 751.698L192.607 749.703L191.077 749.603L190.946 751.598ZM192.541 751.7C192.202 751.7 191.956 751.515 191.828 751.329C191.699 751.142 191.626 750.865 191.723 750.574L193.62 751.207C193.851 750.514 193.361 749.7 192.541 749.7V751.7ZM191.705 750.633L190.955 753.453L192.888 753.968L193.638 751.148L191.705 750.633ZM190.951 753.468C190.669 754.595 192.16 755.508 192.974 754.45L191.389 753.231C191.661 752.877 192.121 752.827 192.446 752.99C192.767 753.15 192.996 753.535 192.892 753.953L190.951 753.468ZM192.98 754.442L196.22 750.142L194.623 748.939L191.383 753.239L192.98 754.442ZM196.211 750.154C196.523 749.753 196.487 749.279 196.338 748.962C196.192 748.654 195.87 748.347 195.402 748.305L195.221 750.296C194.863 750.264 194.631 750.032 194.53 749.819C194.425 749.597 194.39 749.238 194.632 748.927L196.211 750.154ZM195.374 748.302L194.094 748.222L193.969 750.219L195.249 750.299L195.374 748.302ZM194.031 748.22C194.348 748.22 194.592 748.386 194.727 748.569C194.855 748.741 194.908 748.949 194.885 749.151L192.898 748.93C192.843 749.421 193.168 750.22 194.031 750.22V748.22ZM194.871 749.239L195.401 746.629L193.441 746.231L192.911 748.841L194.871 749.239ZM195.402 746.627C195.645 745.41 194.124 744.793 193.393 745.67L194.93 746.951C194.398 747.588 193.257 747.151 193.441 746.234L195.402 746.627Z" fill="white" mask="url(#path-86-inside-8_1013_6903)"/>
<mask id="path-88-inside-9_1013_6903" fill="white">
<path d="M218.22 742.23L214.94 746.29C214.86 746.38 214.93 746.52 215.05 746.53L216.58 746.63C216.67 746.63 216.74 746.73 216.71 746.82L215.96 749.64C215.92 749.8 216.12 749.9 216.22 749.77L219.46 745.47C219.53 745.38 219.46 745.24 219.35 745.23L218.07 745.15C217.98 745.15 217.92 745.06 217.93 744.97L218.46 742.36C218.49 742.21 218.3 742.12 218.2 742.24"/>
</mask>
<path d="M218.22 742.23L214.94 746.29C214.86 746.38 214.93 746.52 215.05 746.53L216.58 746.63C216.67 746.63 216.74 746.73 216.71 746.82L215.96 749.64C215.92 749.8 216.12 749.9 216.22 749.77L219.46 745.47C219.53 745.38 219.46 745.24 219.35 745.23L218.07 745.15C217.98 745.15 217.92 745.06 217.93 744.97L218.46 742.36C218.49 742.21 218.3 742.12 218.2 742.24" fill="white"/>
<path d="M214.94 746.29L215.688 746.955L215.704 746.937L215.718 746.919L214.94 746.29ZM215.05 746.53L214.967 747.527L214.976 747.527L214.985 747.528L215.05 746.53ZM216.58 746.63L216.515 747.628L216.548 747.63H216.58V746.63ZM216.71 746.82L215.762 746.504L215.752 746.533L215.744 746.563L216.71 746.82ZM215.96 749.64L214.994 749.383L214.992 749.39L214.99 749.398L215.96 749.64ZM216.22 749.77L217.013 750.38L217.019 750.372L216.22 749.77ZM219.46 745.47L218.671 744.856L218.666 744.862L218.662 744.868L219.46 745.47ZM219.35 745.23L219.441 744.234L219.427 744.233L219.413 744.232L219.35 745.23ZM218.07 745.15L218.133 744.152L218.102 744.15H218.07V745.15ZM217.93 744.97L216.95 744.771L216.942 744.815L216.937 744.86L217.93 744.97ZM218.46 742.36L219.44 742.559L219.441 742.556L218.46 742.36ZM217.443 741.602L214.163 745.662L215.718 746.919L218.998 742.859L217.443 741.602ZM214.193 745.626C213.851 746.01 213.846 746.509 214.017 746.868C214.18 747.214 214.526 747.49 214.967 747.527L215.134 745.534C215.455 745.56 215.705 745.761 215.824 746.012C215.949 746.277 215.95 746.66 215.688 746.955L214.193 745.626ZM214.985 747.528L216.515 747.628L216.646 745.632L215.116 745.532L214.985 747.528ZM216.58 747.63C216.241 747.63 215.995 747.444 215.867 747.259C215.738 747.072 215.665 746.795 215.762 746.504L217.659 747.136C217.89 746.444 217.4 745.63 216.58 745.63V747.63ZM215.744 746.563L214.994 749.383L216.927 749.897L217.677 747.077L215.744 746.563ZM214.99 749.398C214.708 750.525 216.199 751.438 217.013 750.38L215.428 749.16C215.7 748.807 216.161 748.757 216.485 748.919C216.806 749.08 217.035 749.465 216.931 749.883L214.99 749.398ZM217.019 750.372L220.259 746.072L218.662 744.868L215.422 749.168L217.019 750.372ZM220.25 746.084C220.562 745.683 220.527 745.208 220.377 744.892C220.231 744.584 219.909 744.277 219.441 744.234L219.26 746.226C218.902 746.194 218.67 745.962 218.569 745.748C218.464 745.527 218.429 745.167 218.671 744.856L220.25 746.084ZM219.413 744.232L218.133 744.152L218.008 746.148L219.288 746.228L219.413 744.232ZM218.07 744.15C218.387 744.15 218.631 744.316 218.767 744.499C218.894 744.671 218.947 744.879 218.924 745.081L216.937 744.86C216.882 745.351 217.207 746.15 218.07 746.15V744.15ZM218.91 745.169L219.44 742.559L217.48 742.161L216.95 744.771L218.91 745.169ZM219.441 742.556C219.684 741.339 218.163 740.723 217.432 741.6L218.969 742.88C218.438 743.518 217.296 743.081 217.48 742.164L219.441 742.556Z" fill="white" mask="url(#path-88-inside-9_1013_6903)"/>
<path d="M168.801 744.94C170.461 745.65 172.071 746.55 173.641 747.64" stroke="#6680B5" stroke-width="1.59" stroke-linecap="round" stroke-linejoin="round"/>
<path d="M169.902 754.41C171.432 754.73 173.152 754.94 174.742 755.07" stroke="#6680B5" stroke-width="1.59" stroke-linecap="round" stroke-linejoin="round"/>
<path d="M239.209 736.29C236.249 737.5 233.359 738.89 230.539 740.46" stroke="#6680B5" stroke-width="1.59" stroke-linecap="round" stroke-linejoin="round"/>
<path d="M241.241 746.271C238.471 746.721 235.411 747.061 232.621 747.321" stroke="#6680B5" stroke-width="1.59" stroke-linecap="round" stroke-linejoin="round"/>
<mask id="path-94-inside-10_1013_6903" fill="white">
<path d="M218.97 762.79C223.06 765.77 225.07 768.25 226.19 770.34C228.47 774.57 229.46 777.25 229.85 780.06C230.13 782.1 229.38 781.99 226.45 782.05C224.98 782.08 224.17 782.2 222.96 781.65C221.69 781.07 221.25 774.06 209.16 774.62"/>
</mask>
<path d="M218.97 762.79C223.06 765.77 225.07 768.25 226.19 770.34C228.47 774.57 229.46 777.25 229.85 780.06C230.13 782.1 229.38 781.99 226.45 782.05C224.98 782.08 224.17 782.2 222.96 781.65C221.69 781.07 221.25 774.06 209.16 774.62" fill="#C4CBDF"/>
<path d="M226.19 770.34L225.309 770.812L225.31 770.815L226.19 770.34ZM229.85 780.06L230.841 779.924L230.841 779.923L229.85 780.06ZM226.45 782.05L226.471 783.05L226.471 783.05L226.45 782.05ZM222.96 781.65L222.545 782.56L222.546 782.56L222.96 781.65ZM218.381 763.598C222.382 766.513 224.276 768.886 225.309 770.812L227.072 769.868C225.864 767.614 223.739 765.027 219.559 761.982L218.381 763.598ZM225.31 770.815C227.564 774.996 228.493 777.556 228.86 780.198L230.841 779.923C230.427 776.944 229.376 774.144 227.07 769.866L225.31 770.815ZM228.859 780.196C228.926 780.681 228.905 780.886 228.885 780.957C228.881 780.974 228.885 780.949 228.915 780.915C228.944 780.882 228.964 780.876 228.941 780.887C228.861 780.923 228.661 780.973 228.194 781.003C227.744 781.031 227.185 781.035 226.43 781.05L226.471 783.05C227.18 783.035 227.814 783.03 228.32 782.999C228.809 782.968 229.328 782.907 229.767 782.708C230.286 782.473 230.654 782.063 230.813 781.49C230.947 781.005 230.914 780.459 230.841 779.924L228.859 780.196ZM226.43 781.05C224.864 781.082 224.329 781.174 223.374 780.74L222.546 782.56C224.012 783.227 225.096 783.078 226.471 783.05L226.43 781.05ZM223.376 780.74C223.509 780.801 223.497 780.864 223.341 780.62C223.205 780.407 223.065 780.14 222.841 779.74C222.417 778.982 221.81 777.972 220.82 776.995C218.798 775.002 215.37 773.331 209.114 773.621L209.206 775.619C215.04 775.349 217.877 776.903 219.416 778.42C220.205 779.198 220.702 780.014 221.096 780.717C221.281 781.047 221.478 781.418 221.656 781.697C221.814 781.945 222.094 782.354 222.545 782.56L223.376 780.74Z" fill="#6680B5" mask="url(#path-94-inside-10_1013_6903)"/>
<path d="M218.97 762.79C223.06 765.77 225.07 768.25 226.19 770.34C228.47 774.57 229.46 777.25 229.85 780.06C230.13 782.1 229.38 781.99 226.45 782.05C224.98 782.08 224.17 782.2 222.96 781.65C221.69 781.07 221.25 774.06 209.16 774.62" stroke="#6680B5" stroke-width="1.39" stroke-linecap="round" stroke-linejoin="round"/>
<mask id="path-97-inside-11_1013_6903" fill="white">
<path d="M204.132 768.66C201.742 767.77 196.332 767.67 198.032 773.93C198.792 776.71 200.262 778.81 202.072 780.61C203.392 781.91 205.952 781.9 207.562 782.05C209.152 782.2 209.842 782.01 210.372 781.18C210.922 780.31 206.862 774.92 209.162 774.63"/>
</mask>
<path d="M204.132 768.66C201.742 767.77 196.332 767.67 198.032 773.93C198.792 776.71 200.262 778.81 202.072 780.61C203.392 781.91 205.952 781.9 207.562 782.05C209.152 782.2 209.842 782.01 210.372 781.18C210.922 780.31 206.862 774.92 209.162 774.63" fill="#C4CBDF"/>
<path d="M198.032 773.93L197.067 774.192L197.067 774.194L198.032 773.93ZM202.072 780.61L201.367 781.319L201.37 781.323L202.072 780.61ZM207.562 782.05L207.656 781.055L207.655 781.055L207.562 782.05ZM210.372 781.18L211.215 781.718L211.217 781.715L210.372 781.18ZM204.481 767.723C203.785 767.464 202.896 767.27 201.976 767.229C201.062 767.188 200.046 767.294 199.138 767.702C198.205 768.121 197.399 768.858 196.99 770.005C196.592 771.121 196.61 772.512 197.067 774.192L198.997 773.668C198.603 772.219 198.66 771.275 198.874 770.676C199.076 770.11 199.453 769.753 199.958 769.526C200.489 769.287 201.168 769.195 201.886 769.227C202.6 769.259 203.284 769.412 203.783 769.597L204.481 767.723ZM197.067 774.194C197.885 777.184 199.467 779.43 201.367 781.319L202.777 779.901C201.057 778.19 199.699 776.237 198.996 773.667L197.067 774.194ZM201.37 781.323C202.25 782.189 203.467 782.557 204.533 782.746C205.592 782.934 206.747 782.979 207.469 783.046L207.655 781.055C206.766 780.972 205.836 780.946 204.883 780.777C203.936 780.609 203.214 780.331 202.774 779.898L201.37 781.323ZM207.468 783.046C208.286 783.123 209.02 783.132 209.654 782.94C210.359 782.726 210.845 782.297 211.215 781.718L209.529 780.642C209.369 780.893 209.245 780.974 209.075 781.026C208.834 781.099 208.428 781.128 207.656 781.055L207.468 783.046ZM211.217 781.715C211.386 781.447 211.421 781.169 211.424 780.978C211.426 780.781 211.394 780.593 211.357 780.434C211.283 780.117 211.152 779.77 211.012 779.441C210.87 779.104 210.699 778.738 210.529 778.377C210.357 778.01 210.184 777.644 210.025 777.284C209.692 776.529 209.487 775.941 209.454 775.567C209.438 775.386 209.479 775.401 209.425 775.488C209.34 775.624 209.225 775.63 209.287 775.622L209.037 773.638C208.524 773.703 208.032 773.941 207.727 774.43C207.453 774.871 207.429 775.362 207.462 775.74C207.526 776.486 207.87 777.354 208.196 778.092C208.366 778.478 208.55 778.868 208.719 779.227C208.891 779.593 209.045 779.925 209.17 780.22C209.299 780.523 209.376 780.742 209.41 780.888C209.426 780.96 209.423 780.977 209.424 780.955C209.424 780.938 209.426 780.805 209.527 780.646L211.217 781.715Z" fill="#6680B5" mask="url(#path-97-inside-11_1013_6903)"/>
<path d="M204.132 768.66C201.742 767.77 196.332 767.67 198.032 773.93C198.792 776.71 200.262 778.81 202.072 780.61C203.392 781.91 205.952 781.9 207.562 782.05C209.152 782.2 209.842 782.01 210.372 781.18C210.922 780.31 206.862 774.92 209.162 774.63" stroke="#6680B5" stroke-width="1.39" stroke-linecap="round" stroke-linejoin="round"/>
<mask id="path-100-inside-12_1013_6903" fill="white">
<path d="M214.092 767.93C213.132 765.96 210.492 764.69 208.242 765.02C206.072 765.33 204.942 767.03 205.662 768.89C206.412 770.83 208.932 772.32 211.342 772.13C213.852 771.93 215.102 770 214.092 767.94"/>
</mask>
<path d="M214.092 767.93C213.132 765.96 210.492 764.69 208.242 765.02C206.072 765.33 204.942 767.03 205.662 768.89C206.412 770.83 208.932 772.32 211.342 772.13C213.852 771.93 215.102 770 214.092 767.94" fill="white"/>
<path d="M208.242 765.02L208.383 766.01L208.387 766.009L208.242 765.02ZM205.662 768.89L206.595 768.529L206.594 768.529L205.662 768.89ZM211.342 772.13L211.42 773.127L211.421 773.127L211.342 772.13ZM214.991 767.492C214.393 766.265 213.306 765.313 212.092 764.715C210.876 764.117 209.45 763.832 208.097 764.03L208.387 766.009C209.284 765.878 210.302 766.063 211.209 766.51C212.118 766.957 212.831 767.625 213.193 768.368L214.991 767.492ZM208.1 764.03C206.789 764.217 205.686 764.843 205.036 765.819C204.376 766.809 204.262 768.044 204.729 769.251L206.594 768.529C206.341 767.875 206.432 767.331 206.7 766.928C206.978 766.511 207.525 766.132 208.383 766.01L208.1 764.03ZM204.729 769.25C205.205 770.482 206.207 771.498 207.38 772.175C208.558 772.855 209.991 773.239 211.42 773.127L211.263 771.133C210.283 771.21 209.25 770.945 208.379 770.442C207.502 769.936 206.868 769.238 206.595 768.529L204.729 769.25ZM211.421 773.127C212.911 773.008 214.168 772.36 214.874 771.279C215.592 770.18 215.628 768.802 214.99 767.5L213.194 768.38C213.565 769.137 213.481 769.755 213.2 770.185C212.906 770.635 212.283 771.052 211.262 771.133L211.421 773.127Z" fill="#6680B5" mask="url(#path-100-inside-12_1013_6903)"/>
<path d="M214.092 767.93C213.132 765.96 210.492 764.69 208.242 765.02C206.072 765.33 204.942 767.03 205.662 768.89C206.412 770.83 208.932 772.32 211.342 772.13C213.852 771.93 215.102 770 214.092 767.94V767.93Z" stroke="#6680B5" stroke-width="1.39" stroke-miterlimit="10"/>
<path d="M205.841 766.41C205.771 767.52 209.291 769.04 209.291 769.04C209.291 769.04 210.301 770.63 211.961 771.83" stroke="#6680B5" stroke-width="1.39" stroke-miterlimit="10"/>
<path d="M209.289 769.04L212.299 766.24" stroke="#6680B5" stroke-width="1.39" stroke-miterlimit="10"/>
<mask id="path-105-inside-13_1013_6903" fill="white">
<path d="M202.062 766.86C202.433 767.05 202.702 767.43 202.762 767.85L202.062 766.86Z"/>
</mask>
<path d="M202.062 766.86C202.433 767.05 202.702 767.43 202.762 767.85L202.062 766.86Z" fill="#C4CBDF"/>
<path d="M201.606 767.75C201.683 767.79 201.758 767.888 201.773 767.992L203.752 767.709C203.647 766.972 203.182 766.311 202.519 765.971L201.606 767.75Z" fill="#6680B5" mask="url(#path-105-inside-13_1013_6903)"/>
<path d="M202.062 766.86C202.433 767.05 202.702 767.43 202.762 767.85" stroke="#6680B5" stroke-width="1.39" stroke-linecap="round" stroke-linejoin="round"/>
<path d="M202.68 742.26C203.32 742.09 203.88 741.65 204.19 741.06C204.52 740.43 204.56 739.69 204.59 738.98" stroke="#6680B5" stroke-width="1.39" stroke-linecap="round" stroke-linejoin="round"/>
<mask id="path-109-inside-14_1013_6903" fill="white">
<path d="M200.47 759.44C202.16 758.78 204.36 758.21 205.5 758.36C207.35 758.61 207.91 760.05 207.06 762.81C206.7 763.97 205.44 764.98 204 765.51C201.46 766.45 200.39 766.78 198.46 766.65C197.47 766.58 196.05 766.43 195.57 765.07C195.27 764.22 195.6 762.98 196.68 761.9C197.84 760.74 199.01 760.01 200.47 759.45"/>
</mask>
<path d="M200.47 759.44C202.16 758.78 204.36 758.21 205.5 758.36C207.35 758.61 207.91 760.05 207.06 762.81C206.7 763.97 205.44 764.98 204 765.51C201.46 766.45 200.39 766.78 198.46 766.65C197.47 766.58 196.05 766.43 195.57 765.07C195.27 764.22 195.6 762.98 196.68 761.9C197.84 760.74 199.01 760.01 200.47 759.45" fill="#C4CBDF"/>
<path d="M205.5 758.36L205.634 757.369L205.631 757.369L205.5 758.36ZM207.06 762.81L208.015 763.107L208.016 763.104L207.06 762.81ZM204 765.51L203.655 764.572L203.653 764.572L204 765.51ZM198.46 766.65L198.39 767.648L198.393 767.648L198.46 766.65ZM195.57 765.07L196.513 764.737L195.57 765.07ZM200.834 760.372C201.638 760.058 202.563 759.765 203.414 759.571C204.297 759.37 204.986 759.301 205.37 759.352L205.631 757.369C204.875 757.269 203.894 757.41 202.969 757.621C202.013 757.84 200.993 758.163 200.107 758.509L200.834 760.372ZM205.367 759.351C206.021 759.44 206.244 759.682 206.352 759.983C206.505 760.407 206.511 761.196 206.105 762.516L208.016 763.104C208.46 761.664 208.611 760.353 208.234 759.305C207.812 758.133 206.83 757.531 205.634 757.369L205.367 759.351ZM206.105 762.514C205.878 763.247 204.959 764.092 203.655 764.572L204.346 766.449C205.922 765.869 207.523 764.693 208.015 763.107L206.105 762.514ZM203.653 764.572C201.133 765.505 200.233 765.767 198.528 765.652L198.393 767.648C200.548 767.793 201.788 767.395 204.347 766.448L203.653 764.572ZM198.531 765.653C198.032 765.617 197.574 765.567 197.197 765.416C196.862 765.282 196.637 765.088 196.513 764.737L194.627 765.403C194.984 766.412 195.709 766.974 196.452 767.272C197.152 767.553 197.899 767.613 198.39 767.648L198.531 765.653ZM196.513 764.737C196.386 764.378 196.469 763.526 197.388 762.607L195.973 761.193C194.732 762.435 194.154 764.063 194.627 765.403L196.513 764.737ZM197.388 762.607C198.443 761.552 199.492 760.896 200.829 760.384L200.112 758.516C198.529 759.124 197.238 759.928 195.973 761.193L197.388 762.607Z" fill="#6680B5" mask="url(#path-109-inside-14_1013_6903)"/>
<path d="M200.47 759.44C202.16 758.78 204.36 758.21 205.5 758.36C207.35 758.61 207.91 760.05 207.06 762.81C206.7 763.97 205.44 764.98 204 765.51C201.46 766.45 200.39 766.78 198.46 766.65C197.47 766.58 196.05 766.43 195.57 765.07C195.27 764.22 195.6 762.98 196.68 761.9C197.84 760.74 199.01 760.01 200.47 759.45V759.44Z" stroke="#6680B5" stroke-width="1.39" stroke-linecap="round" stroke-linejoin="round"/>
</g>
</svg>
