<svg width="1920" height="1004" viewBox="0 0 1920 1004" fill="none" xmlns="http://www.w3.org/2000/svg">
<path d="M152.259 553.252H-87.6538C-88.9688 553.252 -90.0352 552.186 -90.0352 550.871V328.049C-90.0352 326.734 -88.9688 325.668 -87.6538 325.668H152.259C153.574 325.668 154.64 326.734 154.64 328.049V550.869C154.64 552.186 153.574 553.252 152.259 553.252Z" fill="#EAF0FF"/>
<path d="M41.4086 419.576C41.4086 435.376 34.3405 449.513 23.2042 459.046C14.143 466.772 2.36974 471.436 -10.472 471.436C-26.971 471.436 -41.6825 463.731 -51.1751 451.711C-58.161 442.876 -62.332 431.719 -62.332 419.576C-62.332 390.934 -39.1142 367.695 -10.472 367.695C-0.732819 367.695 8.38994 370.387 16.1977 375.072C21.8686 378.462 26.8409 382.941 30.8476 388.201C37.4842 396.913 41.4086 407.782 41.4086 419.576Z" fill="#8FD1C4"/>
<path d="M41.408 419.576C41.408 435.377 34.3399 449.513 23.2035 459.046C14.1424 466.772 2.3691 471.436 -10.4726 471.436C-26.9717 471.436 -41.6832 463.731 -51.1758 451.711L-10.5548 420.254L30.8469 388.201C37.4835 396.913 41.408 407.782 41.408 419.576Z" fill="#77BFB2"/>
<path d="M41.4081 419.576C41.4081 435.377 34.34 449.513 23.2037 459.046C11.4098 445.67 -1.84286 430.363 -10.5547 420.254L30.8471 388.201C37.4837 396.913 41.4081 407.782 41.4081 419.576Z" fill="#9BE9D8"/>
<path d="M146.739 382.982H49.4414V387.003H146.739V382.982Z" fill="#686868"/>
<path d="M146.739 401.477H49.4414V405.498H146.739V401.477Z" fill="#686868"/>
<path d="M-34.481 521.558C-50.9616 521.558 -62.2747 518.75 -62.5397 518.682C-62.9363 518.579 -63.1767 518.174 -63.0739 517.778C-62.9712 517.383 -62.5767 517.143 -62.1699 517.246C-61.5452 517.404 0.304642 532.719 46.0993 490.481C46.3993 490.204 46.8698 490.223 47.1492 490.525C47.4266 490.827 47.4081 491.297 47.1061 491.575C20.2966 516.301 -11.9289 521.558 -34.481 521.558Z" fill="#337266"/>
<path d="M50.4901 494.635C50.0319 494.483 43.9912 489.869 43.611 488.979C43.2967 488.241 50.9113 486.916 50.9113 486.916L50.4901 494.635Z" fill="#337266"/>
<path d="M166.999 309.562V331.157C166.999 333.725 164.924 335.801 162.376 335.801H-95.1572C-97.7256 335.801 -99.8008 333.725 -99.8008 331.157V309.562C-99.8008 307.015 -97.7256 304.939 -95.1572 304.939H162.376C164.924 304.939 166.999 307.015 166.999 309.562Z" fill="#C3D4F4"/>
<path d="M166.999 323.082V331.157C166.999 333.725 164.924 335.8 162.376 335.8H-95.1572C-97.7256 335.8 -99.8008 333.725 -99.8008 331.157V323.082H166.999Z" fill="#A2AAC8"/>
<path d="M101.951 431.119H55.9141V436.819H101.951V431.119Z" fill="#9BE9D8"/>
<path d="M101.951 450.41H55.9141V456.11H101.951V450.41Z" fill="#9BE9D8"/>
<path d="M144.012 429.807H114.637V458.305H144.012V429.807Z" fill="#9BE9D8"/>
<g opacity="0.7">
<path style="mix-blend-mode:overlay" opacity="0.1" d="M1852.51 309.055H1706.59V369.999H1852.51V309.055Z" fill="url(#paint0_linear_1015_844)"/>
<path d="M1791.45 172.219C1791.45 171.015 1792.7 170.047 1794.25 170.047H1816.31C1817.86 170.047 1819.11 171.027 1819.11 172.219V290.598C1819.11 291.802 1817.86 292.77 1816.31 292.77H1794.25C1792.7 292.77 1791.45 291.79 1791.45 290.598V172.219Z" fill="#6DCFBF"/>
<path d="M1819.11 272.053H1791.45V278.168H1819.11V272.053Z" fill="#DFF8FF"/>
<path d="M1819.11 250.143H1791.45V256.257H1819.11V250.143Z" fill="#DFF8FF"/>
<g style="mix-blend-mode:multiply" opacity="0.2">
<path d="M1794.25 292.77H1805.2V170.035H1794.25C1792.7 170.035 1791.45 171.015 1791.45 172.207V290.586C1791.45 291.79 1792.7 292.758 1794.25 292.758V292.77Z" fill="#868686"/>
</g>
<path d="M1767.9 190.127C1767.9 189.1 1768.96 188.273 1770.28 188.273H1789.08C1790.39 188.273 1791.46 189.1 1791.46 190.127V290.917C1791.46 291.944 1790.4 292.77 1789.08 292.77H1770.28C1768.97 292.77 1767.9 291.944 1767.9 290.917V190.127Z" fill="#F7CA55"/>
<path d="M1791.45 275.133H1767.9V280.339H1791.45V275.133Z" fill="#FF888D"/>
<path d="M1791.45 256.48H1767.9V261.686H1791.45V256.48Z" fill="#FF888D"/>
<g style="mix-blend-mode:multiply" opacity="0.2">
<path d="M1770.27 292.77H1779.6V188.273H1770.27C1768.96 188.273 1767.89 189.1 1767.89 190.127V290.917C1767.89 291.944 1768.95 292.77 1770.27 292.77Z" fill="#868686"/>
</g>
<path d="M1743.62 188.794C1743.82 187.779 1745.03 187.083 1746.33 187.236L1764.91 189.432C1766.21 189.585 1767.11 190.53 1766.91 191.545L1747.44 291.189C1747.24 292.205 1746.02 292.901 1744.72 292.748L1726.14 290.552C1724.85 290.398 1723.95 289.454 1724.15 288.439L1743.62 188.794Z" fill="#B0A5AD"/>
<path d="M1727.19 272.832L1750.49 275.594L1749.48 280.729L1726.19 277.979L1727.19 272.832Z" fill="#A69AA3"/>
<path d="M1730.79 254.395L1754.08 257.145L1753.08 262.292L1729.79 259.541L1730.79 254.395Z" fill="#A69AA3"/>
<g style="mix-blend-mode:multiply" opacity="0.2">
<path d="M1726.14 290.552L1735.36 291.638L1755.55 188.334L1746.33 187.248C1745.03 187.094 1743.82 187.791 1743.62 188.806L1724.15 288.451C1723.95 289.466 1724.85 290.41 1726.14 290.564V290.552Z" fill="#868686"/>
</g>
<path d="M1852.51 290.422H1699.5C1698.67 290.422 1698 291.095 1698 291.921V301.318C1698 302.144 1698.67 302.817 1699.5 302.817C1703.37 302.817 1706.52 305.969 1706.52 309.841V314.114C1706.52 314.941 1707.2 315.613 1708.02 315.613H1852.52V290.422H1852.51Z" fill="#C4D4F4"/>
<path d="M1852.51 303.598H1702.66C1704.94 304.755 1706.52 307.104 1706.52 309.831V314.104C1706.52 314.93 1707.2 315.603 1708.02 315.603H1852.52V303.598H1852.51Z" fill="#A2B1C8"/>
</g>
<g opacity="0.7">
<path d="M275.476 906.56V1056.11C275.476 1059.87 272.463 1062.88 268.713 1062.88H-301.885C-305.603 1062.88 -308.648 1059.87 -308.648 1056.11V906.56C-308.648 902.81 -305.603 899.797 -301.885 899.797H268.713C272.463 899.797 275.476 902.81 275.476 906.56Z" fill="#9DB7DE"/>
<path d="M249.381 1047.14H-282.539C-285.597 1047.14 -288.078 1044.66 -288.078 1041.6V927.498C-288.078 924.44 -285.597 921.959 -282.539 921.959H249.381C252.442 921.959 254.92 924.44 254.92 927.498V1041.6C254.923 1044.66 252.442 1047.14 249.381 1047.14Z" fill="#8EA9D2"/>
<path d="M305.379 875.661V895.341C305.379 902.328 299.705 907.97 292.718 907.97H-325.863C-332.85 907.97 -338.523 902.328 -338.523 895.341V875.661C-338.523 868.673 -332.85 863 -325.863 863H292.718C299.705 863 305.379 868.673 305.379 875.661Z" fill="#CAD8F4"/>
<path opacity="0.22" d="M305.379 890.18V895.341C305.379 902.328 299.705 907.97 292.718 907.97H-325.863C-332.85 907.97 -338.523 902.328 -338.523 895.341V875.661C-338.523 868.673 -332.85 863 -325.863 863H-199.448C-195.922 874.827 -188.614 887.648 -173.902 889.988C-149.798 893.802 211.625 890.982 305.379 890.18Z" fill="#CAD8F4"/>
<path d="M172.414 849H19.0977V863.38H172.414V849Z" fill="#6DCFBF"/>
<path d="M202.567 747.933L189.398 749.951L204.614 849.231L217.782 847.212L202.567 747.933Z" fill="#79A5FF"/>
<path d="M202.515 747.938L189.344 749.953L192.242 739.898L193.746 734.693L196.737 739.211L202.515 747.938Z" fill="#E69862"/>
<path d="M216.688 839.997L203.52 842.016L204.625 849.229L217.793 847.211L216.688 839.997Z" fill="#2A2410"/>
<path d="M217.73 853.097L206.315 854.844C205.832 854.918 205.378 854.585 205.304 854.102L204.559 849.23L217.726 847.211L218.472 852.083C218.545 852.57 218.213 853.024 217.73 853.097Z" fill="#F0B783"/>
<path d="M196.741 739.211L192.246 739.898L193.75 734.693L196.741 739.211Z" fill="#2A2410"/>
<path d="M215.832 834.864L202.664 836.881L203.456 842.055L216.625 840.038L215.832 834.864Z" fill="#FCF9ED"/>
<path d="M193.372 754.349L204.636 827.869C204.722 828.426 205.24 828.807 205.797 828.72C206.354 828.634 206.734 828.116 206.648 827.559L195.387 754.039C195.301 753.482 194.782 753.102 194.226 753.188C193.669 753.274 193.285 753.796 193.372 754.349Z" fill="#2D3D81"/>
<path d="M198.52 753.552L209.781 827.072C209.864 827.629 210.386 828.01 210.939 827.923C211.496 827.837 211.876 827.319 211.79 826.762L200.529 753.242C200.443 752.685 199.924 752.305 199.368 752.391C198.817 752.478 198.434 752.999 198.52 753.552Z" fill="#2D3D81"/>
<path d="M226.353 748.38L213.031 748.424L213.363 848.858L226.684 848.814L226.353 748.38Z" fill="#65DAA2"/>
<path d="M226.317 748.399L212.992 748.444L217.349 738.927L219.608 734L221.899 738.911L226.317 748.399Z" fill="#E69862"/>
<path d="M226.657 841.517L213.336 841.561L213.36 848.858L226.681 848.814L226.657 841.517Z" fill="#2A2410"/>
<path d="M225.782 854.645L214.234 854.684C213.744 854.687 213.347 854.29 213.344 853.801L213.328 848.871L226.649 848.826L226.665 853.756C226.669 854.246 226.272 854.645 225.782 854.645Z" fill="#F0B783"/>
<path d="M221.901 738.911L217.352 738.927L219.61 734L221.901 738.911Z" fill="#2A2410"/>
<path d="M226.642 836.276L213.32 836.32L213.338 841.554L226.659 841.51L226.642 836.276Z" fill="#FCF9ED"/>
<path d="M216.32 753.38L216.563 827.757C216.563 828.32 217.021 828.775 217.584 828.771C218.147 828.768 218.598 828.314 218.598 827.751L218.355 753.374C218.352 752.811 217.894 752.356 217.334 752.359C216.771 752.359 216.317 752.817 216.32 753.38Z" fill="#326F68"/>
<path d="M221.539 753.365L221.782 827.742C221.785 828.305 222.24 828.76 222.803 828.756C223.366 828.753 223.82 828.299 223.817 827.736L223.574 753.362C223.571 752.799 223.116 752.344 222.553 752.348C221.99 752.344 221.536 752.802 221.539 753.365Z" fill="#326F68"/>
<path d="M236.121 747.863L222 847.303L235.189 849.176L249.31 749.736L236.121 747.863Z" fill="#F7BE3F"/>
<path d="M249.307 749.817L236.117 747.943L241.796 739.155L244.739 734.605L246.297 739.791L249.307 749.817Z" fill="#E69862"/>
<path d="M223.026 840.068L222 847.293L235.189 849.166L236.215 841.941L223.026 840.068Z" fill="#2A2410"/>
<path d="M233.488 854.885L222.054 853.26C221.568 853.193 221.232 852.742 221.302 852.259L221.996 847.377L235.187 849.252L234.492 854.134C234.422 854.617 233.971 854.953 233.488 854.885Z" fill="#F0B783"/>
<path d="M246.298 739.789L241.797 739.153L244.74 734.604L246.298 739.789Z" fill="#2A2410"/>
<path d="M223.811 834.957L223.074 840.139L236.264 842.013L237 836.831L223.811 834.957Z" fill="#FCF9ED"/>
<path d="M238.706 753.302L228.245 826.94C228.165 827.496 228.552 828.011 229.109 828.091C229.665 828.171 230.18 827.784 230.26 827.228L240.722 753.589C240.802 753.033 240.414 752.518 239.858 752.441C239.301 752.358 238.786 752.745 238.706 753.302Z" fill="#CA8A24"/>
<path d="M243.858 754.034L233.397 827.673C233.317 828.229 233.704 828.744 234.261 828.824C234.818 828.904 235.333 828.517 235.413 827.961L245.874 754.322C245.954 753.766 245.567 753.251 245.01 753.171C244.453 753.091 243.938 753.478 243.858 754.034Z" fill="#CA8A24"/>
<path d="M253.636 788.121L252.945 793.509L252.312 798.4L251.349 805.832L250.731 810.666L249.762 818.158L249.141 822.934L248.169 830.488L247.561 835.194L246.576 842.811L245.981 847.462L244.989 855.137L244.394 859.731L243.882 863.701H191.528L191.016 859.731L190.421 855.137L189.429 847.462L188.834 842.811L187.849 835.194L187.241 830.488L186.265 822.934L185.644 818.158L184.678 810.666L184.058 805.832L183.098 798.4L182.464 793.509L181.773 788.121H253.636Z" fill="#B4B9C6"/>
<path d="M252.934 793.506L252.3 798.397H183.087L182.453 793.506H252.934Z" fill="#CDDDEF"/>
<path d="M251.334 805.834L250.717 810.668H184.664L184.043 805.834H251.334Z" fill="#CDDDEF"/>
<path d="M249.75 818.158L249.13 822.935H186.253L185.633 818.158H249.75Z" fill="#CDDDEF"/>
<path d="M248.166 830.484L247.558 835.19H187.846L187.238 830.484H248.166Z" fill="#CDDDEF"/>
<path d="M246.57 842.807L245.975 847.458H189.423L188.828 842.807H246.57Z" fill="#CDDDEF"/>
<path d="M244.974 855.135L244.379 859.729H191.001L190.406 855.135H244.974Z" fill="#CDDDEF"/>
</g>
<defs>
<linearGradient id="paint0_linear_1015_844" x1="1779.55" y1="369.999" x2="1779.55" y2="309.055" gradientUnits="userSpaceOnUse">
<stop stop-opacity="0"/>
<stop offset="1"/>
</linearGradient>
</defs>
</svg>
