<svg width="1920" height="919" viewBox="0 0 1920 919" fill="none" xmlns="http://www.w3.org/2000/svg">
<path d="M213.154 216.844L215.087 276.381H219.433L216.536 217.393L213.154 216.844Z" fill="#FF8C3C"/>
<path d="M234.648 243.031L197.949 245.237V250.197L234.31 246.89L234.648 243.031Z" fill="#FF8C3C"/>
<path d="M230.194 259.071L204.465 231.797L202.398 234.158L228.358 260.644L230.194 259.071Z" fill="#FF8C3C"/>
<path d="M205.385 262.477L229.278 233.106L227.209 230.748L204.008 260.38L205.385 262.477Z" fill="#FF8C3C"/>
<path d="M408.536 133.27C408.536 133.27 406.653 141.603 405.157 146.619C403.929 150.738 400.52 157.765 397.231 158.931C393.667 160.197 389.094 159.617 386.786 155.786C384.041 151.229 385.719 145.428 386.631 140.296C387.739 134.073 388.865 128.365 387.317 121.984C386.448 118.401 383.597 114.973 380.622 113.618C377.228 112.07 373.71 113.093 371.058 115.556C367.804 118.581 364.655 121.758 361.621 125.077C355.255 132.042 348.648 140.055 339.639 140.759C336.391 141.013 333.323 139.633 332.222 135.882C331.626 133.856 332.194 129.761 332.374 127.711C332.938 121.286 333.618 118.656 333.385 113.45C333.137 107.854 330.199 102.974 326.78 100.526C324.324 98.7643 319.341 97.3063 316.646 97.7592C310.522 98.786 305.077 102.071 300.914 108.217C296.751 114.362 294.186 121.851 291.76 129.284C294.505 130.853 297.251 132.42 299.996 133.99C301.681 126.985 304.485 120.461 308.229 114.837C310.075 112.063 312.231 109.442 315.054 108.142C317.877 106.842 321.5 107.125 323.973 109.656C327.24 113 326.448 117.198 325.67 121.953C324.904 126.644 323.65 132.479 324.078 137.356C324.789 145.437 331.831 151.992 338.702 152.857C345.57 153.726 351.992 150.059 356.999 145.086C362.006 140.113 365.936 133.844 370.503 128.325C371.164 127.525 371.97 126.951 372.811 126.414C375.42 124.758 377.957 126.302 378.094 131.229C378.171 134.067 377.886 136.813 377.275 139.487C375.752 146.166 375.249 152.715 376.648 158.05C378.153 163.789 381.202 166.51 385.303 169.451C390.776 173.375 398.15 173.872 404.565 167.534C414.728 157.492 415.519 137.359 415.519 137.359L408.529 133.27H408.536Z" fill="#FF6F5A"/>
<path d="M191.056 86.1211C191.056 86.1211 160.136 107.622 150.386 123.53C142.283 136.752 137.338 153.56 143.679 167.712C150.02 181.864 171.36 188.791 181.693 177.226C188.068 170.091 190.209 159.11 186.179 150.433C182.149 141.756 179.919 138.607 171.838 131.823C164.488 125.652 152.747 121.548 143.471 121.061C132.883 120.503 122.212 121.198 108.606 128.42C95.9889 135.117 86.3132 146.937 80.3942 162.472C74.0068 179.233 75.685 190.755 78.7283 202.906C82.5595 218.197 94.8194 225.847 105.379 243.654C116.439 262.301 110.588 282.124 97.8099 296.406C87.4051 308.04 47.5078 319.682 47.5078 319.682L51.2056 330.695C51.2056 330.695 90.6997 321.633 107.814 304.05C119.705 291.834 128.314 273.224 123.964 252.576C121.687 241.767 113.364 230.41 106.722 221.585C97.3259 209.104 87.7991 200.967 90.1258 185.72C92.2973 171.493 96.569 153.684 111.897 141.889C117.661 137.456 127.467 132.859 139.916 132.124C152.471 131.379 179.652 147.241 173.742 164.653C170.96 170.712 166.93 170.802 163.874 170.324C159.95 169.71 153.581 167.523 152.145 157.4C150.954 148.996 153.023 138.018 163.521 124.601C171.462 114.45 196.379 96.6592 196.379 96.6592L191.056 86.1242V86.1211Z" fill="#76B072"/>
<path d="M316.956 427.584L279.014 429.527V433.896L316.605 430.983L316.956 427.584Z" fill="#81AF4E"/>
<path d="M403.981 673.663C398.927 667.312 385.007 652.404 392.565 646.393C400.12 640.383 408.181 653.448 414.114 657.804C423.328 664.731 429.255 678.095 436.172 664.171C441.82 652.799 429.94 643.931 425.135 634.79C421.106 626.574 411.555 614.172 427.876 614.465C438.466 613.813 441.381 630.879 449.801 637.205C461.3 645.841 467.866 641.356 469.457 629.343C470.928 618.206 472.135 606.992 470.414 589.693L462.596 590.721C462.596 590.721 468.565 623.567 460.252 630.18C451.943 636.793 440.436 602.292 420.465 609.8C408.115 614.44 406.064 612.373 419.213 638.205C419.213 638.205 434.939 656.074 426.876 659.895C418.815 663.72 407.228 635.224 390.973 637.34C379.226 638.871 376.742 639.048 393.814 676.017L403.978 673.663H403.981Z" fill="#FFE7B1"/>
<path d="M294.732 404.518L296.728 456.962H301.221L298.225 405.001L294.732 404.518Z" fill="#81AF4E"/>
<path d="M312.345 441.715L285.747 417.689L283.611 419.768L310.447 443.099L312.345 441.715Z" fill="#81AF4E"/>
<path d="M286.701 444.715L311.398 418.844L309.262 416.766L285.275 442.869L286.701 444.715Z" fill="#81AF4E"/>
<path d="M319.397 507.64C319.397 507.64 337.929 513.991 345.586 520.797C353.244 527.606 359.086 538.254 358.931 549.65C358.768 561.674 351.32 572.979 341.612 575.941C334.718 578.044 327.45 576.245 320.461 574.554C313.472 572.863 306.124 571.301 299.335 573.841C292.545 576.381 286.659 584.43 287.991 592.826C289.309 601.13 296.599 605.916 303.325 608.464C321.058 615.174 346.426 618.321 352.829 627.526C355.394 631.212 357.9 635.482 356.966 642.855C356.308 648.036 353.763 652.22 349.676 655.859C345.299 659.759 342.787 660.262 336.633 660.872C330.365 661.494 323.288 662.168 317.021 662.79C313.108 663.177 302.681 663.417 302.681 663.417L301.244 652.806C301.244 652.806 321.329 653.541 331.294 652.201C335.588 651.623 341.875 651.568 345.611 648.987C349.914 646.016 351.334 642.026 348.902 636.001C346.631 630.378 336.492 626.857 331.363 625.785C320.702 623.558 312.024 621.355 302.242 617.31C296.242 614.831 290.995 609.84 287.002 603.921C283.006 598.002 280.709 590.095 282.038 582.678C283.766 573.04 291.326 566.076 299.354 563.942C307.385 561.806 315.794 563.691 323.714 566.438C328.823 568.212 334.187 569.552 339.264 567.706C345.097 565.587 347.717 561.541 349.422 557.68C353.581 548.268 351.92 540.716 347.476 533.122C344.754 528.468 340.203 525.683 335.472 523.099C331.885 521.14 318.132 514.969 318.132 514.969L319.392 507.635L319.397 507.64Z" fill="#FF9637"/>
<path d="M360.989 696.215L443.765 725.065L398.846 832.971L323.904 827.226L360.989 696.215Z" fill="#76B072"/>
<path d="M360.989 696.215L443.765 725.065L398.846 832.971L323.904 827.226L360.989 696.215Z" fill="#76B072"/>
<path d="M360.995 696.214L271.977 680.018L259.246 794.081L323.91 827.225L360.995 696.214Z" fill="#76B072"/>
<path d="M394.423 707.863L350.145 734.539L348.605 739.972L399.439 709.61L394.423 707.863Z" fill="white"/>
<path d="M443.764 725.098L334.128 791.152L332.586 796.601L440.94 731.885L443.764 725.098Z" fill="white"/>
<path d="M350.391 829.256L357.158 829.776L414.425 795.573L417.144 789.037L350.391 829.256Z" fill="white"/>
<path d="M296.484 684.479L269.679 700.628L269.102 705.796L302.854 685.636L296.484 684.479Z" fill="white"/>
<path d="M348.513 693.939L264.8 744.378L264.236 749.41L355.103 695.139L348.513 693.939Z" fill="white"/>
<path d="M348.908 738.914L259.382 792.851L259.246 794.08L262.344 795.669L347.187 744.996L348.908 738.914Z" fill="white"/>
<path d="M331.625 799.949L303.617 816.825L307.851 818.995L329.975 805.78L331.625 799.949Z" fill="white"/>
<path d="M300.019 685.137L279.393 804.503L290.866 810.389L316.478 688.124L300.019 685.137Z" fill="#FF9051"/>
<path d="M415.519 715.221L368.934 830.663L356.078 829.663L399.431 709.559L415.519 715.221Z" fill="#FF9051"/>
<path d="M325.22 823.997C325.095 823.997 324.968 823.98 324.844 823.944C324.109 823.737 323.683 822.972 323.89 822.239C325.349 817.085 332.722 790.645 340.529 762.654C348.587 733.754 356.922 703.868 358.624 697.857C358.831 697.122 359.594 696.697 360.329 696.904C361.064 697.111 361.489 697.877 361.282 698.609C359.583 704.614 351.248 734.498 343.19 763.395C335.383 791.388 328.011 817.832 326.549 822.991C326.377 823.599 325.822 823.997 325.22 823.997Z" fill="#40903B"/>
<path d="M399.519 834.376C399.342 834.376 399.165 834.343 398.991 834.271C398.287 833.981 397.949 833.172 398.242 832.467L442.501 725.21C442.792 724.505 443.599 724.168 444.306 724.461C445.011 724.751 445.348 725.561 445.055 726.266L400.796 833.523C400.575 834.056 400.061 834.376 399.519 834.376Z" fill="#40903B"/>
<path d="M1353.23 146.207L1311.46 148.343V153.156L1352.84 149.948L1353.23 146.207Z" fill="#81AF4E"/>
<path d="M1348.15 161.76L1318.87 135.316L1316.52 137.604L1346.05 163.287L1348.15 161.76Z" fill="#81AF4E"/>
<path d="M1319.92 165.064L1347.11 136.584L1344.76 134.297L1318.36 163.03L1319.92 165.064Z" fill="#81AF4E"/>
<path d="M1496.23 242.535C1496.23 242.535 1518.2 235.817 1529.97 226.025C1540.09 217.607 1542.49 195.115 1533.96 187.168C1525.88 179.629 1511.81 174.153 1494.66 169.238C1478.45 164.59 1463.79 155.631 1459.67 143.717C1456.16 133.541 1454.59 120.468 1458.71 110.526C1461.85 102.94 1471.91 92.1225 1481.35 90.2607C1487.11 89.1246 1492.01 89.5062 1497.14 91.6224C1502.12 93.6778 1505.93 97.5314 1507.83 103.984C1512.19 118.89 1495.9 143.122 1478.4 152.772C1460.9 162.425 1439.33 163.202 1420.21 157.386C1412.4 155.009 1404.77 151.5 1398.83 145.903C1388.56 136.23 1384.6 121.72 1376.56 110.127C1363.89 91.8421 1340.28 81.8134 1318.32 85.3837C1318.73 81.1138 1319.15 76.8467 1319.56 72.5768C1341.81 67.3153 1366.76 76.0344 1380.89 94.0074C1390 105.603 1394.66 120.263 1404.14 131.564C1415.06 144.59 1432.22 152.133 1449.2 151.372C1466.19 150.612 1479.97 141.442 1489.68 127.493C1495.35 119.344 1499.5 111.856 1494.23 103.588C1489.07 97.7425 1478.13 101.483 1472.79 110.272C1467.46 119.063 1466.73 129.286 1469.73 140.104C1472.79 151.127 1484.05 155.411 1494.35 158.406C1504.76 161.433 1510.72 163.234 1520.94 166.862C1530.51 170.259 1538.96 175.772 1542.95 181.259C1546.23 185.763 1549.55 195.118 1549.24 202.638C1548.63 217.561 1545.79 224.323 1537.26 233.735C1529.03 242.833 1500.13 251.694 1500.13 251.694L1496.23 242.538V242.535Z" fill="#FFF7EE"/>
<path d="M1680.33 531.782C1685.94 527.45 1700.92 517.781 1695.46 510.686C1689.99 503.592 1680.48 513.071 1674.47 515.442C1665.11 519.27 1657.41 529.526 1653.99 515.661C1651.21 504.339 1663.26 499.461 1669.19 492.629C1674.26 486.418 1684.95 477.879 1670.64 474.177C1661.51 471.039 1655.73 485.266 1647.18 488.757C1635.5 493.525 1630.61 488.006 1631.49 477.108C1632.31 467.006 1633.38 456.899 1638.15 442.18L1644.79 444.977C1644.79 444.977 1633.36 472.272 1639.38 480.077C1645.39 487.88 1661.96 460.48 1677.99 471.896C1687.91 478.953 1690.09 477.642 1673.72 497.056C1673.72 497.056 1656.6 508.876 1662.92 514.177C1669.24 519.481 1684.75 497.353 1698.56 503.15C1708.53 507.338 1710.67 508.097 1688.77 536.307L1680.33 531.782H1680.33Z" fill="#FFF7EE"/>
<path d="M1713.33 394.508C1713.33 394.508 1722.67 387.82 1730.13 386.109C1736.55 384.638 1746.23 390.49 1746.81 396.274C1747.36 401.764 1745.27 409 1742.03 417.294C1738.97 425.134 1738.09 433.662 1741.58 438.898C1744.57 443.368 1749.3 447.946 1754.5 449.317C1758.47 450.364 1765.83 449.643 1769.43 446.46C1771.63 444.517 1772.96 442.458 1773.67 439.782C1774.37 437.183 1773.99 434.505 1771.99 431.802C1767.38 425.563 1752.8 424.697 1743.65 428.725C1734.51 432.75 1727.66 441.075 1724.18 450.424C1722.76 454.243 1721.84 458.332 1722.27 462.383C1723 469.383 1727.58 475.344 1729.76 482.038C1733.19 492.597 1730.03 504.999 1721.95 512.635C1723.78 513.761 1725.6 514.888 1727.43 516.015C1736.26 508.774 1740.36 496.239 1737.48 485.195C1735.63 478.072 1731.21 471.787 1729.58 464.609C1727.71 456.335 1729.91 447.243 1735.36 440.734C1740.81 434.224 1748.63 431.528 1757.13 431.892C1762.09 432.104 1766.33 432.722 1768.02 437.314C1768.79 441.131 1763.98 444.34 1758.87 443.799C1753.75 443.259 1749.46 440.457 1746.06 435.995C1742.6 431.447 1744.31 425.683 1746.24 420.689C1748.19 415.643 1749.28 412.732 1750.94 407.58C1752.49 402.757 1752.85 397.734 1751.88 394.492C1751.08 391.829 1748.36 387.682 1745.28 385.533C1739.15 381.263 1735.6 380.343 1729.27 380.881C1723.15 381.4 1710.87 390.188 1710.87 390.188L1713.33 394.506L1713.33 394.508Z" fill="#FF9637"/>
<path d="M1709.73 533.488L1635.9 558.859L1675.64 654.67L1742.43 649.767L1709.73 533.488Z" fill="#FFE19F"/>
<path d="M1709.74 533.505L1788.9 519.396L1799.92 620.417L1742.36 649.596L1709.74 533.505Z" fill="#FFE19F"/>
<path d="M1763.84 523.906L1781.89 629.754L1771.66 634.942L1749.2 526.512L1763.84 523.906Z" fill="white"/>
<path d="M1661.26 550.313L1702.28 652.979L1713.68 652.121L1675.54 545.324L1661.26 550.313Z" fill="white"/>
<path d="M1740.88 646.776C1740.44 646.776 1740.05 646.487 1739.93 646.049C1736.25 632.832 1730.09 611.919 1724.13 591.693C1718.1 571.203 1711.86 550.017 1708.08 536.44C1707.94 535.911 1708.24 535.362 1708.77 535.214C1709.3 535.067 1709.84 535.376 1709.99 535.905C1713.76 549.466 1719.99 570.646 1726.03 591.128C1731.99 611.36 1738.15 632.281 1741.83 645.514C1741.97 646.044 1741.67 646.593 1741.14 646.74C1741.05 646.766 1740.97 646.778 1740.88 646.778V646.776Z" fill="#FFB419"/>
<path d="M1674.93 655.797C1674.54 655.797 1674.17 655.568 1674.02 655.187L1634.29 560.228C1634.08 559.722 1634.32 559.14 1634.82 558.929C1635.33 558.717 1635.91 558.955 1636.12 559.462L1675.85 654.42C1676.06 654.927 1675.82 655.509 1675.31 655.719C1675.19 655.771 1675.06 655.797 1674.93 655.797Z" fill="#FFB419"/>
</svg>
