<svg width="1920" height="1330" viewBox="0 0 1920 1330" fill="none" xmlns="http://www.w3.org/2000/svg">
<path d="M1594.88 989.602C1607.85 1001.88 1608.38 1022.33 1596.11 1035.3C1591.1 1040.58 1584.73 1043.77 1578.06 1044.9L1572.66 1064.26L1566.1 1044.68C1560.42 1043.51 1554.96 1040.82 1550.45 1036.52C1537.48 1024.25 1536.95 1003.8 1549.22 990.83C1561.49 977.862 1581.94 977.327 1594.9 989.602H1594.88Z" fill="white"/>
<path d="M1557.52 1007.64C1557.52 999.007 1564.72 992.057 1573.43 992.493C1581.21 992.869 1587.54 999.304 1587.84 1007.08C1588.02 1012.15 1585.72 1016.67 1582.08 1019.56C1579.9 1021.28 1578.73 1023.97 1578.73 1026.74V1029.91H1566.64V1026.64C1566.64 1023.83 1565.33 1021.2 1563.14 1019.44C1559.71 1016.67 1557.52 1012.41 1557.52 1007.66V1007.64Z" fill="#FFDB8A"/>
<path d="M1571.64 1036.19H1573.68C1576.46 1036.19 1578.71 1033.94 1578.71 1031.16C1578.71 1028.38 1576.46 1026.13 1573.68 1026.13H1571.64C1568.87 1026.13 1566.62 1028.38 1566.62 1031.16C1566.62 1033.94 1568.87 1036.19 1571.64 1036.19Z" fill="#434746" stroke="#251E1C" stroke-opacity="0.2" stroke-width="0.75" stroke-linecap="round" stroke-linejoin="round"/>
<path d="M1566.21 1030.76H1579.15C1579.96 1030.76 1580.62 1030.11 1580.62 1029.3V1029.28C1580.62 1028.47 1579.96 1027.81 1579.15 1027.81H1566.21C1565.4 1027.81 1564.74 1028.47 1564.74 1029.28V1029.3C1564.74 1030.11 1565.4 1030.76 1566.21 1030.76Z" fill="#C9C9C9" stroke="#251E1C" stroke-opacity="0.2" stroke-width="0.75" stroke-linecap="round" stroke-linejoin="round"/>
<path d="M1566.21 1027.81H1579.15C1579.96 1027.81 1580.62 1027.16 1580.62 1026.35V1026.33C1580.62 1025.52 1579.96 1024.86 1579.15 1024.86H1566.21C1565.4 1024.86 1564.74 1025.52 1564.74 1026.33V1026.35C1564.74 1027.16 1565.4 1027.81 1566.21 1027.81Z" fill="#C9C9C9" stroke="#251E1C" stroke-opacity="0.2" stroke-width="0.75" stroke-linecap="round" stroke-linejoin="round"/>
<path d="M1566.21 1033.69H1579.15C1579.96 1033.69 1580.62 1033.04 1580.62 1032.23V1032.21C1580.62 1031.4 1579.96 1030.74 1579.15 1030.74H1566.21C1565.4 1030.74 1564.74 1031.4 1564.74 1032.21V1032.23C1564.74 1033.04 1565.4 1033.69 1566.21 1033.69Z" fill="#C9C9C9" stroke="#251E1C" stroke-opacity="0.2" stroke-width="0.75" stroke-linecap="round" stroke-linejoin="round"/>
<path d="M1575.51 1024.86L1579.15 1009.16" stroke="#251E1C" stroke-opacity="0.2" stroke-width="0.75" stroke-linecap="round" stroke-linejoin="round"/>
<path d="M1569.83 1024.86L1566.2 1009.16" stroke="#251E1C" stroke-opacity="0.2" stroke-width="0.75" stroke-linecap="round" stroke-linejoin="round"/>
<path d="M1578.28 1008.09L1576.89 1009.26C1576.5 1009.6 1575.9 1009.52 1575.61 1009.12L1575.35 1008.79C1574.99 1008.31 1574.28 1008.31 1573.92 1008.79L1573.88 1008.85C1573.53 1009.34 1572.77 1009.32 1572.42 1008.83C1572.08 1008.33 1571.37 1008.29 1570.99 1008.77L1570.84 1008.95C1570.46 1009.4 1569.75 1009.38 1569.41 1008.89L1569.35 1008.81C1569.01 1008.31 1568.28 1008.29 1567.93 1008.77L1567.05 1009.88" fill="white"/>
<path d="M1578.28 1008.09L1576.89 1009.26C1576.5 1009.6 1575.9 1009.52 1575.61 1009.12L1575.35 1008.79C1574.99 1008.31 1574.28 1008.31 1573.92 1008.79L1573.88 1008.85C1573.53 1009.34 1572.77 1009.32 1572.42 1008.83C1572.08 1008.33 1571.37 1008.29 1570.99 1008.77L1570.84 1008.95C1570.46 1009.4 1569.75 1009.38 1569.41 1008.89L1569.35 1008.81C1569.01 1008.31 1568.28 1008.29 1567.93 1008.77L1567.05 1009.88" stroke="#251E1C" stroke-opacity="0.2" stroke-width="0.75" stroke-linecap="round" stroke-linejoin="round"/>
<path d="M1578.02 1009.22C1577.87 1009.89 1578.3 1010.56 1578.97 1010.71C1579.64 1010.86 1580.31 1010.43 1580.46 1009.76L1580.88 1007.85C1581.03 1007.17 1580.61 1006.51 1579.93 1006.36C1579.26 1006.21 1578.6 1006.63 1578.45 1007.31L1578.02 1009.22Z" fill="white" stroke="#251E1C" stroke-opacity="0.2" stroke-width="0.75" stroke-linecap="round" stroke-linejoin="round"/>
<path d="M1566.88 1007.29C1566.74 1006.62 1566.07 1006.19 1565.4 1006.34C1564.72 1006.49 1564.3 1007.16 1564.45 1007.83L1564.87 1009.74C1565.02 1010.42 1565.69 1010.84 1566.36 1010.69C1567.03 1010.54 1567.46 1009.88 1567.31 1009.2L1566.88 1007.29Z" fill="white" stroke="#251E1C" stroke-opacity="0.2" stroke-width="0.75" stroke-linecap="round" stroke-linejoin="round"/>
<path d="M1630.72 1073.34L1640.76 1079.28L1633.8 1091.09L1621.99 1083.1L1629.48 1072.6L1630.72 1073.34Z" fill="#FAD1BF"/>
<path d="M1648.75 1065.86C1648.67 1066.09 1647.31 1069.87 1643.06 1071.85L1648.75 1065.86Z" fill="#FAD1BF"/>
<path d="M1643.27 1072.25C1643.23 1072.11 1643.17 1071.96 1643.08 1071.85C1647.31 1069.86 1648.67 1066.08 1648.77 1065.86C1648.77 1065.86 1650.21 1066 1650.37 1068.1C1650.41 1068.52 1650.31 1068.95 1650.09 1069.33C1649.59 1070.17 1648.4 1071.91 1646.54 1073.4C1646.22 1073.65 1645.85 1073.8 1645.46 1073.85C1644.94 1073.93 1644.39 1073.8 1643.97 1073.46C1643.64 1073.19 1643.38 1072.8 1643.27 1072.25Z" fill="#FAD1BF"/>
<path d="M1645.44 1073.84C1644.58 1075.65 1643.4 1076.79 1642.55 1077.46L1645.44 1073.84Z" fill="#F1ECE8"/>
<path d="M1640.97 1069.21C1644.44 1067.48 1645.97 1063.2 1646.05 1062.94H1646.06C1646.06 1062.94 1648.61 1062.76 1648.75 1065.85L1643.06 1071.85C1642.94 1071.68 1642.76 1071.54 1642.53 1071.48C1641.86 1071.3 1640.94 1070.75 1640.96 1069.21H1640.97Z" fill="#FAD1BF"/>
<path d="M1646.05 1062.94C1645.97 1063.2 1644.45 1067.48 1640.98 1069.21L1646.05 1062.94Z" fill="#FAD1BF"/>
<path d="M1642.3 1060.91C1643.14 1059.99 1644.26 1060.42 1644.45 1060.5C1644.47 1060.51 1644.49 1060.51 1644.49 1060.51L1642.3 1061.2C1642.32 1061.11 1642.32 1061.01 1642.3 1060.91Z" fill="#FAD1BF"/>
<path d="M1642.3 1060.91C1642.31 1061 1642.31 1061.1 1642.3 1061.2L1642.01 1061.3C1642.09 1061.16 1642.18 1061.02 1642.3 1060.91Z" fill="#FAD1BF"/>
<path d="M1642.3 1061.2C1642.28 1061.59 1642.17 1061.98 1641.96 1062.3C1642.04 1061.99 1642.07 1061.65 1642.01 1061.31L1642.3 1061.21V1061.2Z" fill="#FAD1BF"/>
<path d="M1642.3 1061.2L1644.48 1060.51C1645.21 1060.86 1645.96 1061.53 1646.06 1062.93H1646.05L1640.97 1069.21C1640.97 1069.21 1639.11 1069.62 1638.57 1067.04L1638.55 1066.53L1640.32 1063.98C1640.32 1063.98 1640.4 1063.96 1640.43 1063.95C1641.19 1063.68 1641.75 1063.06 1641.96 1062.31C1642.16 1061.98 1642.28 1061.59 1642.3 1061.2Z" fill="#FAD1BF"/>
<path d="M1642.01 1061.3C1642.07 1061.65 1642.05 1061.99 1641.96 1062.29C1641.68 1062.77 1641.25 1063.15 1640.7 1063.35C1639.43 1063.78 1638.04 1063.04 1637.58 1061.72C1637.3 1060.87 1637.45 1060.01 1637.92 1059.35L1639.6 1059.29C1640.79 1059.25 1641.82 1060.12 1642.02 1061.3H1642.01Z" fill="#FAD1BF"/>
<path d="M1642.16 1060.16C1642.24 1060.42 1642.29 1060.66 1642.29 1060.92C1642.18 1061.03 1642.09 1061.17 1641.99 1061.31C1641.81 1060.13 1640.76 1059.27 1639.57 1059.3L1637.89 1059.36C1638.17 1058.97 1638.56 1058.67 1639.03 1058.52C1640.29 1058.09 1641.69 1058.82 1642.15 1060.16H1642.16Z" fill="#FAD1BF"/>
<path d="M1643.27 1072.25C1643.37 1072.8 1643.64 1073.19 1643.97 1073.46C1644.39 1073.8 1644.93 1073.93 1645.46 1073.85L1642.58 1077.46H1642.57C1642.46 1077.54 1642.37 1077.62 1642.26 1077.69C1641.67 1078.1 1641.17 1078.62 1640.81 1079.24L1640.78 1079.29L1630.73 1073.35L1636.54 1072.29C1638.77 1069.48 1638.59 1067.05 1638.59 1067.05C1639.12 1069.63 1640.99 1069.22 1640.99 1069.22C1640.97 1070.77 1641.9 1071.31 1642.57 1071.49C1642.8 1071.55 1642.98 1071.68 1643.09 1071.86C1643.19 1071.97 1643.25 1072.12 1643.28 1072.26L1643.27 1072.25Z" fill="#FAD1BF"/>
<path d="M1640.32 1063.98L1638.55 1066.53L1638.42 1064.35L1640.1 1064.03C1640.17 1064.02 1640.24 1064.01 1640.32 1063.98Z" fill="#FAD1BF"/>
<path d="M1641.96 1062.3C1641.76 1063.05 1641.19 1063.68 1640.44 1063.95C1640.4 1063.96 1640.37 1063.97 1640.32 1063.98H1640.31C1640.24 1064 1640.17 1064.02 1640.09 1064.03L1638.41 1064.34L1638.54 1066.53L1638.56 1067.04L1636.78 1059.41H1636.95L1637.9 1059.36C1637.43 1060.02 1637.29 1060.88 1637.56 1061.73C1638.01 1063.05 1639.41 1063.79 1640.67 1063.36C1641.23 1063.17 1641.66 1062.8 1641.94 1062.3H1641.96Z" fill="#FAD1BF"/>
<path d="M1631.63 1064.6C1631.63 1064.6 1632.38 1059.21 1636.77 1059.41L1638.56 1067.04C1638.56 1067.04 1638.73 1069.48 1636.5 1072.27L1630.7 1073.34L1629.47 1072.6L1629.91 1071.82C1630.47 1070.84 1630.85 1069.76 1631.03 1068.64L1631.61 1064.59L1631.63 1064.6Z" fill="#FAD1BF"/>
<path d="M1621.99 1083.1L1633.8 1091.09C1634.54 1091.59 1634.73 1092.6 1634.23 1093.33L1620.06 1114.29C1617.42 1118.18 1612.11 1119.21 1608.2 1116.56L1607.52 1116.1C1603.62 1113.47 1602.59 1108.15 1605.24 1104.25L1619.41 1083.29C1619.9 1082.55 1620.91 1082.36 1621.64 1082.86L1621.99 1083.1Z" fill="#A6DDFF"/>
<path d="M1604.52 1089.28C1603.09 1088.25 1601.11 1087.97 1599.26 1089.01C1597.93 1089.75 1597.07 1091.06 1596.9 1092.56C1596.59 1095.82 1599.24 1098.16 1602.1 1097.92L1601.27 1102.12L1600.6 1105.49L1600.57 1105.51C1595.63 1107.11 1591.97 1106.66 1590.02 1106.13C1589.28 1105.95 1589.01 1105.03 1589.52 1104.47C1594.21 1099.26 1586.05 1094.28 1589.2 1084.74C1592.31 1075.32 1600.03 1074.49 1602.1 1074.42C1602.44 1074.42 1602.75 1074.36 1603.05 1074.24C1604.22 1073.79 1607.54 1072.85 1610.68 1075.25C1614.68 1078.33 1614.28 1082.57 1614.28 1082.57L1614 1082.09C1611.79 1082 1610.06 1079.77 1610.06 1079.77C1611.17 1085.49 1604.51 1089.26 1604.51 1089.26L1604.52 1089.28Z" fill="#605553"/>
<path d="M1623.32 1205.46C1637.5 1208.1 1639.1 1217.01 1639.07 1221.02C1639.06 1222.12 1638.17 1223 1637.06 1223L1604.28 1222.8C1603.2 1222.79 1602.32 1221.91 1602.31 1220.83L1602.17 1206.32L1623.34 1205.46H1623.32Z" fill="#BFCED6"/>
<path d="M1619.33 1174.75L1623.32 1205.47L1602.17 1206.32L1598.74 1178.49L1599.84 1175.6L1619.33 1174.75Z" fill="#FAD1BF"/>
<path d="M1617.88 1154.89C1618.43 1154.77 1618.86 1154.29 1618.9 1153.67V1153.72C1618.86 1154.33 1618.44 1154.81 1617.89 1154.94V1154.89H1617.88Z" fill="white"/>
<path d="M1617.87 1154.89L1617.88 1154.94H1617.87L1617.86 1154.89H1617.87Z" fill="#FFDB8A"/>
<path d="M1617.89 1154.94L1621.66 1173.39C1621.79 1174.04 1621.31 1174.66 1620.64 1174.69L1619.34 1174.75L1599.85 1175.6L1602.24 1169.45H1612.22C1613.08 1169.45 1613.77 1168.75 1613.77 1167.9V1154.77L1616.75 1154.94V1154.89L1617.48 1154.92C1617.62 1154.94 1617.74 1154.92 1617.87 1154.88V1154.92H1617.9L1617.89 1154.94Z" fill="#FFDB8A"/>
<path d="M1616.74 1154.95L1613.77 1154.77V1154.73L1616.74 1154.9V1154.95Z" fill="#FFDB8A"/>
<path d="M1614.58 1090.78C1614.57 1090.86 1614.55 1090.95 1614.52 1091.04C1614.21 1090.93 1614.03 1090.84 1614.03 1090.84L1614.58 1090.79V1090.78Z" fill="#FAD1BF"/>
<path d="M1613.77 1154.77V1165.41C1613.77 1166.27 1613.08 1166.96 1612.22 1166.96H1603.2L1605.03 1162.26H1608.74V1154.48L1613.76 1154.77H1613.77Z" fill="#F2A2BF"/>
<path d="M1613.76 1154.77L1608.74 1154.49V1154.44L1613.76 1154.72V1154.77Z" fill="#F2A2BF"/>
<path d="M1612.95 1086.49C1612.7 1085.94 1612.8 1085.35 1613.18 1085.2C1613.54 1085.05 1614.04 1085.36 1614.28 1085.93C1614.53 1086.49 1614.41 1087.06 1614.05 1087.22C1613.67 1087.38 1613.18 1087.06 1612.95 1086.49Z" fill="black"/>
<path d="M1608.75 1145.3V1154.45L1608.09 1154.41L1608.1 1154.36L1608.03 1154.39H1608.02L1603.41 1154.14V1145.3H1608.75Z" fill="white"/>
<path d="M1608.1 1154.36L1608.09 1154.41L1608.03 1154.39L1608.1 1154.36Z" fill="white"/>
<path d="M1608.1 1154.42L1608.09 1154.46L1608.75 1154.49V1162.26H1605.04H1603.41V1154.19L1608.02 1154.44L1608.1 1154.42Z" fill="white"/>
<path d="M1608.02 1154.44L1603.41 1154.19V1154.14L1608.02 1154.39H1608.03L1608.09 1154.41L1608.75 1154.44V1154.49L1608.09 1154.46L1608.1 1154.42L1608.02 1154.44Z" fill="white"/>
<path d="M1612.22 1169.44H1602.24L1603.2 1166.96H1612.22C1613.08 1166.96 1613.77 1166.27 1613.77 1165.41V1167.9C1613.77 1168.75 1613.08 1169.44 1612.22 1169.44Z" fill="#FFDB8A"/>
<path d="M1612.22 1138.11H1602.2L1602.92 1135.61H1612.22C1613.08 1135.61 1613.77 1136.31 1613.77 1137.16V1139.66C1613.77 1138.8 1613.08 1138.11 1612.22 1138.11Z" fill="#FFBDD8"/>
<path d="M1614.52 1091.03C1614.54 1090.94 1614.57 1090.86 1614.58 1090.77L1614.03 1090.82C1614.03 1090.82 1614.2 1090.91 1614.52 1091.02V1091.03ZM1612.94 1086.49C1613.17 1087.05 1613.66 1087.38 1614.04 1087.22C1614.4 1087.06 1614.51 1086.48 1614.27 1085.93C1614.04 1085.37 1613.54 1085.05 1613.17 1085.2C1612.8 1085.35 1612.7 1085.94 1612.94 1086.49ZM1599.25 1089.01C1601.09 1087.95 1603.08 1088.24 1604.52 1089.28C1604.52 1089.28 1611.18 1085.51 1610.06 1079.79C1610.06 1079.79 1611.8 1082.01 1614 1082.11L1614.29 1082.59V1082.62L1616.36 1086.29C1616.51 1086.21 1616.68 1086.12 1616.84 1086.09C1617.67 1085.91 1618.47 1086.44 1618.65 1087.26C1618.79 1087.97 1618.43 1088.61 1617.84 1088.93C1618.67 1090.45 1621.18 1095.94 1615.68 1099.11L1614.05 1107.03C1608.32 1109.9 1600.6 1105.51 1600.6 1105.51L1601.27 1102.13L1602.1 1097.94C1599.23 1098.18 1596.59 1095.84 1596.91 1092.58C1597.06 1091.06 1597.93 1089.75 1599.27 1089.02L1599.25 1089.01Z" fill="#FAD1BF"/>
<path d="M1598.41 1175.93L1599.61 1176.21L1599.84 1175.6L1598.74 1178.49L1598.41 1175.93Z" fill="#FAD1BF"/>
<path d="M1598.7 1146.74L1597.91 1146.63L1582.09 1144.47L1581.14 1144.35L1580.29 1144.24C1579.63 1144.16 1579.19 1143.49 1579.38 1142.84C1579.83 1141.19 1580.28 1139.61 1580.73 1138.12H1602.19L1599.92 1145.98C1599.77 1146.5 1599.24 1146.84 1598.7 1146.76V1146.74Z" fill="#A6DDFF"/>
<path d="M1596.78 1108.4C1597.62 1108.14 1598.51 1108.01 1599.42 1108.05C1603.15 1108.18 1605.65 1110.23 1606.73 1112.84C1606.9 1113.24 1607.04 1113.66 1607.16 1114.09C1607.26 1114.53 1607.34 1114.98 1607.4 1115.45C1607.55 1116.68 1607.51 1117.96 1607.35 1119.22C1607.32 1119.53 1607.27 1119.82 1607.23 1120.13C1607.07 1121.02 1606.85 1121.89 1606.63 1122.72L1602.91 1135.6H1581.5C1585.57 1122.63 1589.39 1115.6 1591.78 1112.09C1593 1110.31 1594.77 1108.94 1596.79 1108.34C1596.81 1108.33 1596.84 1108.33 1596.86 1108.32L1596.79 1108.39L1596.78 1108.4Z" fill="#A6DDFF"/>
<path d="M1596.85 1108.33C1599.08 1106.2 1600.61 1105.56 1600.61 1105.56C1600.61 1105.56 1608.33 1109.93 1614.06 1107.07C1615.49 1108.87 1616.62 1111.07 1617.47 1113.52C1617.7 1114.12 1617.88 1114.75 1618.06 1115.39C1618.06 1115.39 1618.06 1115.4 1618.06 1115.41C1618.25 1116.06 1618.41 1116.7 1618.56 1117.37C1618.72 1118.06 1618.87 1118.73 1618.99 1119.42C1619.11 1120.13 1619.24 1120.82 1619.34 1121.53C1621.15 1134.15 1619.16 1149.08 1618.89 1153.67C1618.86 1154.28 1618.42 1154.77 1617.87 1154.89H1617.86C1617.73 1154.94 1617.6 1154.95 1617.46 1154.94L1616.73 1154.9L1613.76 1154.74V1137.16C1613.76 1136.31 1613.06 1135.61 1612.21 1135.61H1602.91L1606.62 1122.78C1606.86 1121.93 1607.07 1121.05 1607.21 1120.14C1607.26 1119.83 1607.31 1119.54 1607.34 1119.24C1607.49 1117.97 1607.54 1116.69 1607.39 1115.46C1607.34 1114.99 1607.26 1114.54 1607.14 1114.1C1607.03 1113.65 1606.9 1113.23 1606.72 1112.81C1605.63 1110.19 1603.12 1108.14 1599.4 1108.01C1598.52 1107.98 1597.66 1108.09 1596.84 1108.34L1596.85 1108.33Z" fill="white"/>
<path d="M1596.85 1108.33C1597.67 1108.08 1598.54 1107.96 1599.42 1108C1603.15 1108.13 1605.66 1110.18 1606.74 1112.8C1606.91 1113.22 1607.05 1113.64 1607.16 1114.09C1607.04 1113.66 1606.9 1113.24 1606.74 1112.84C1605.65 1110.23 1603.14 1108.18 1599.42 1108.05C1598.52 1108.01 1597.63 1108.14 1596.78 1108.4L1596.85 1108.33Z" fill="#D0EBFF"/>
<path d="M1595.83 1151.65L1596.25 1151.69L1596.24 1151.72L1595.83 1151.65Z" fill="#FAD1BF"/>
<path d="M1596.79 1150.05C1597.14 1148.92 1597.52 1147.81 1597.91 1146.68L1598.7 1146.79C1599.24 1146.87 1599.77 1146.53 1599.92 1146L1602.2 1138.1H1612.22C1613.08 1138.1 1613.77 1138.79 1613.77 1139.64V1154.73L1608.75 1154.43V1145.29H1603.42V1154.13L1596.02 1153.71C1595.97 1153.34 1595.97 1152.96 1596.03 1152.59C1596.07 1152.37 1596.11 1152.16 1596.17 1151.95L1596.23 1151.76V1151.72L1596.78 1150.04L1596.79 1150.05Z" fill="#F2A2BF"/>
<path d="M1603.41 1154.19L1596.03 1153.76C1596.03 1153.76 1596.02 1153.73 1596.02 1153.72L1603.41 1154.14V1154.19Z" fill="#F2A2BF"/>
<path d="M1596.02 1153.72C1596.02 1153.72 1596.02 1153.75 1596.03 1153.76H1596.02V1153.72Z" fill="#FAD1BF"/>
<path d="M1597.2 1161.57C1598.01 1162.1 1599.13 1162.03 1599.75 1161.31C1600.43 1160.53 1600.36 1159.39 1599.66 1158.71C1599.28 1158.34 1598.84 1157.89 1598.38 1157.41C1597.89 1156.91 1597.4 1156.34 1596.96 1155.83C1596.46 1155.23 1596.14 1154.51 1596.04 1153.76L1603.42 1154.19V1162.26H1605.05L1603.22 1166.96H1592.88C1592.92 1166.45 1592.96 1165.97 1593.02 1165.48C1593.09 1164.8 1593.19 1164.17 1593.28 1163.56C1593.47 1162.24 1593.68 1161.15 1593.82 1160.44C1593.91 1159.97 1594.47 1159.76 1594.85 1160.02L1596.61 1161.18L1597.2 1161.56V1161.57Z" fill="#F2A2BF"/>
<path d="M1592.87 1166.97H1603.21L1602.25 1169.46H1592.74C1592.75 1168.61 1592.8 1167.78 1592.87 1166.97Z" fill="#FFDB8A"/>
<path d="M1599.85 1175.6L1599.6 1176.2L1598.4 1175.92L1589.48 1173.83C1589.52 1173.68 1589.52 1173.49 1589.49 1173.33C1589.45 1172.88 1589.4 1172.45 1589.38 1172.01C1589.48 1173 1590.43 1173.68 1591.43 1173.47C1592.22 1173.29 1592.8 1172.57 1592.75 1171.74C1592.72 1170.98 1592.71 1170.21 1592.73 1169.45H1602.24L1599.85 1175.6Z" fill="#FFDB8A"/>
<path d="M1591.43 1173.48C1590.43 1173.68 1589.48 1173.01 1589.38 1172.03V1172L1589.2 1169.46H1592.73C1592.71 1170.23 1592.72 1171.01 1592.76 1171.76C1592.8 1172.58 1592.23 1173.3 1591.43 1173.48Z" fill="#FAD1BF"/>
<path d="M1589.21 1169.45L1589.03 1166.96H1592.88C1592.81 1167.77 1592.76 1168.6 1592.75 1169.45H1589.22H1589.21Z" fill="#FAD1BF"/>
<path d="M1589.38 1172C1589.19 1171.19 1589.05 1170.31 1588.98 1169.46H1589.2L1589.38 1172Z" fill="#FAD1BF"/>
<path d="M1588.83 1166.97C1588.8 1165.59 1588.85 1164.59 1588.85 1164.59L1589.01 1166.97H1588.83Z" fill="#FAD1BF"/>
<path d="M1589.03 1166.97L1589.2 1169.46H1588.98C1588.89 1168.58 1588.84 1167.72 1588.83 1166.97H1589.02H1589.03Z" fill="#FAD1BF"/>
<path d="M1598.38 1157.41C1598.84 1157.89 1599.29 1158.34 1599.66 1158.71C1600.38 1159.41 1600.44 1160.53 1599.75 1161.31C1599.13 1162.03 1598.01 1162.1 1597.2 1161.58L1596.61 1161.19L1594.85 1160.03C1594.45 1159.77 1593.92 1159.98 1593.82 1160.45C1593.68 1161.18 1593.47 1162.26 1593.28 1163.57C1593.2 1164.17 1593.11 1164.81 1593.02 1165.49C1592.97 1165.97 1592.92 1166.45 1592.88 1166.97H1589.04L1588.87 1164.59C1588.87 1164.59 1588.83 1165.57 1588.85 1166.97H1585.7L1585.58 1165.09C1585.58 1165.09 1585.58 1165.86 1585.61 1166.97H1582.42L1582.39 1166.6C1582.39 1166.6 1582.39 1166.72 1582.4 1166.97H1579.6C1579.58 1165.59 1579.59 1164.13 1579.61 1162.68C1579.63 1160.95 1579.7 1159.23 1579.79 1157.53C1579.84 1156.52 1579.9 1155.51 1579.97 1154.54C1579.97 1154.44 1579.99 1154.35 1580 1154.26C1580.26 1150.77 1580.6 1147.64 1580.95 1145.4C1581.01 1145.04 1581.05 1144.69 1581.12 1144.35L1582.07 1144.47L1597.89 1146.63C1597.5 1147.76 1597.13 1148.87 1596.78 1150L1596.24 1151.69L1595.82 1151.65L1596.23 1151.72L1596.17 1151.91C1596.1 1152.15 1596.05 1152.37 1596.03 1152.6C1595.97 1152.97 1595.97 1153.35 1596.01 1153.72V1153.76H1596.03C1596.13 1154.51 1596.45 1155.22 1596.95 1155.83C1597.39 1156.34 1597.88 1156.91 1598.37 1157.41H1598.38Z" fill="#FAD1BF"/>
<path d="M1587.31 1175.16C1586.82 1175 1586.41 1174.63 1586.23 1174.12C1586.17 1173.77 1586.11 1173.41 1586.08 1173.05L1589.49 1173.84C1589.38 1174.52 1588.85 1175.09 1588.13 1175.22C1587.85 1175.26 1587.57 1175.24 1587.31 1175.16Z" fill="#FAD1BF"/>
<path d="M1586.03 1172.71C1586.04 1172.81 1586.05 1172.94 1586.07 1173.05H1586.05C1586.04 1172.94 1586.03 1172.82 1586.03 1172.71Z" fill="#FAD1BF"/>
<path d="M1586.09 1173.05C1586.13 1173.41 1586.18 1173.77 1586.24 1174.12C1586.21 1174.03 1586.18 1173.94 1586.17 1173.83C1586.13 1173.59 1586.09 1173.33 1586.08 1173.05H1586.09Z" fill="#FAD1BF"/>
<path d="M1585.84 1169.45H1588.99C1589.06 1170.3 1589.19 1171.18 1589.39 1171.99V1172.01C1589.41 1172.45 1589.46 1172.88 1589.51 1173.33C1589.53 1173.49 1589.53 1173.68 1589.49 1173.83L1586.08 1173.03C1586.07 1172.93 1586.06 1172.8 1586.05 1172.69L1585.85 1169.43L1585.84 1169.45Z" fill="#FAD1BF"/>
<path d="M1588.99 1169.45H1585.83L1585.68 1166.96H1588.83C1588.85 1167.71 1588.89 1168.57 1588.99 1169.45Z" fill="#FAD1BF"/>
<path d="M1585.83 1169.45L1586.03 1172.71C1585.88 1171.69 1585.77 1170.54 1585.7 1169.45H1585.82H1585.83Z" fill="#FAD1BF"/>
<path d="M1586.04 1172.71C1586.04 1172.82 1586.05 1172.94 1586.06 1173.05L1582.88 1172.31L1582.62 1169.45H1585.7C1585.77 1170.54 1585.86 1171.67 1586.03 1172.71H1586.04Z" fill="#FAD1BF"/>
<path d="M1585.59 1166.97C1585.55 1165.84 1585.55 1165.09 1585.55 1165.09L1585.67 1166.97H1585.59Z" fill="#FAD1BF"/>
<path d="M1585.68 1166.97L1585.84 1169.46H1585.72C1585.66 1168.54 1585.63 1167.69 1585.6 1166.97H1585.68Z" fill="#FAD1BF"/>
<path d="M1598.75 1178.49L1598.62 1178.82C1595.8 1186.03 1589.95 1191.65 1582.63 1194.14L1561.31 1200.84L1555.33 1180.51L1571.64 1176.15C1573.43 1175.63 1574.9 1174.31 1575.6 1172.57L1576.33 1170.77L1579.82 1171.59C1579.94 1173.09 1580.12 1174.45 1580.34 1175.66C1580.49 1176.47 1581.3 1176.98 1582.11 1176.78C1582.86 1176.6 1583.34 1175.85 1583.19 1175.09C1583.36 1175.84 1584.11 1176.32 1584.86 1176.18L1585.15 1176.13C1585.96 1175.98 1586.45 1175.18 1586.28 1174.38C1586.27 1174.3 1586.26 1174.23 1586.25 1174.14C1586.41 1174.64 1586.82 1175.02 1587.33 1175.17C1587.59 1175.25 1587.87 1175.28 1588.15 1175.23C1588.87 1175.1 1589.4 1174.52 1589.51 1173.86L1598.43 1175.94L1598.76 1178.5L1598.75 1178.49Z" fill="#FAD1BF"/>
<path d="M1586.07 1173.05C1586.08 1173.33 1586.12 1173.59 1586.17 1173.83C1586.18 1173.93 1586.2 1174.02 1586.24 1174.12C1586.25 1174.21 1586.26 1174.28 1586.27 1174.37C1586.44 1175.17 1585.94 1175.97 1585.13 1176.12L1584.85 1176.17C1584.1 1176.31 1583.35 1175.83 1583.18 1175.07V1175.05C1583.15 1174.97 1583.14 1174.89 1583.12 1174.78L1582.88 1172.31L1586.06 1173.05H1586.07Z" fill="#FAD1BF"/>
<path d="M1582.89 1172.31L1583.13 1174.78C1582.96 1174.24 1582.82 1173.3 1582.72 1172.26L1582.89 1172.31Z" fill="#FAD1BF"/>
<path d="M1585.71 1169.45H1582.64L1582.41 1166.96H1585.6C1585.62 1167.67 1585.65 1168.53 1585.71 1169.45Z" fill="#FAD1BF"/>
<path d="M1582.64 1169.45L1582.9 1172.31L1582.72 1172.26C1582.63 1171.35 1582.57 1170.35 1582.5 1169.45H1582.64Z" fill="#FAD1BF"/>
<path d="M1582.38 1166.6L1582.42 1166.97H1582.39C1582.38 1166.73 1582.38 1166.6 1582.38 1166.6Z" fill="#FAD1BF"/>
<path d="M1582.42 1166.97L1582.65 1169.46H1582.51C1582.45 1168.39 1582.42 1167.46 1582.41 1166.97H1582.43H1582.42Z" fill="#FAD1BF"/>
<path d="M1583.19 1175.08C1583.34 1175.84 1582.86 1176.59 1582.11 1176.76C1581.3 1176.96 1580.49 1176.46 1580.34 1175.65C1580.1 1174.44 1579.94 1173.08 1579.82 1171.58L1582.72 1172.26C1582.82 1173.32 1582.96 1174.24 1583.13 1174.78C1583.15 1174.88 1583.16 1174.96 1583.19 1175.05V1175.08Z" fill="#FAD1BF"/>
<path d="M1581.5 1135.61H1602.91L1602.18 1138.11H1580.73C1580.98 1137.25 1581.23 1136.42 1581.5 1135.61Z" fill="#A6DDFF"/>
<path d="M1582.72 1172.26L1579.82 1171.58C1579.77 1170.89 1579.72 1170.18 1579.7 1169.45H1582.51C1582.57 1170.35 1582.63 1171.35 1582.73 1172.26H1582.72Z" fill="#FAD1BF"/>
<path d="M1582.5 1169.45H1579.69C1579.64 1168.64 1579.62 1167.82 1579.59 1166.96H1582.4C1582.41 1167.45 1582.44 1168.38 1582.5 1169.45Z" fill="#FAD1BF"/>
<path d="M1579.6 1162.67C1579.58 1164.12 1579.56 1165.58 1579.59 1166.96H1576.12L1579.79 1157.51C1579.71 1159.21 1579.63 1160.93 1579.61 1162.65L1579.6 1162.67Z" fill="#F2A2BF"/>
<path d="M1579.59 1166.97C1579.62 1167.83 1579.64 1168.65 1579.69 1169.46H1575.17C1575.18 1169.39 1575.21 1169.32 1575.23 1169.23L1576.11 1166.97H1579.58H1579.59Z" fill="#FFDB8A"/>
<path d="M1580.96 1145.39C1580.6 1147.63 1580.25 1150.76 1580.01 1154.23C1579.99 1154.33 1579.98 1154.42 1579.98 1154.53C1579.91 1155.5 1579.85 1156.51 1579.79 1157.52L1576.12 1166.97H1571.14C1570.29 1166.97 1569.59 1166.28 1569.59 1165.42V1139.64C1569.59 1138.79 1570.29 1138.1 1571.14 1138.1H1580.73C1580.29 1139.6 1579.83 1141.17 1579.38 1142.82C1579.21 1143.48 1579.64 1144.14 1580.3 1144.22L1581.14 1144.32C1581.07 1144.66 1581.03 1145.02 1580.97 1145.38L1580.96 1145.39Z" fill="#F2A2BF"/>
<path d="M1579.68 1169.45C1579.7 1170.18 1579.75 1170.89 1579.81 1171.58L1576.31 1170.76L1575.98 1170.69C1575.42 1170.56 1575.07 1170.01 1575.16 1169.45H1579.68Z" fill="#FFDB8A"/>
<path d="M1571.14 1135.61H1581.51C1581.24 1136.42 1580.99 1137.25 1580.73 1138.11H1571.14C1570.29 1138.11 1569.59 1138.8 1569.59 1139.66V1137.16C1569.59 1136.31 1570.29 1135.61 1571.14 1135.61Z" fill="#FFBDD8"/>
<path d="M1561.3 1200.83C1562.18 1215.21 1553.94 1218.92 1550.04 1219.88C1548.97 1220.13 1547.91 1219.48 1547.64 1218.39L1539.86 1186.56C1539.6 1185.53 1540.25 1184.45 1541.28 1184.18L1555.3 1180.49L1561.28 1200.83H1561.3Z" fill="#BFCED6"/>
<path d="M1614.11 1091.11L1613.69 1091.16C1614.67 1091.03 1616.13 1090.76 1616.94 1090.17C1616.94 1090.17 1618.51 1093.81 1615.75 1094.39C1613.54 1094.86 1612.63 1091.26 1612.63 1091.26C1612.63 1091.26 1612.98 1091.25 1613.5 1091.19C1613.5 1091.19 1613.5 1091.18 1613.51 1091.19" fill="white"/>
<path d="M1646.77 1019.76C1646.77 1019.76 1659.04 1018.36 1661.72 1005.09C1661.72 1005.09 1663.7 1018.59 1676.24 1020.51C1676.24 1020.51 1663.7 1022.24 1661.52 1035.8C1661.52 1035.8 1661.26 1023.4 1646.79 1019.76H1646.77Z" fill="white"/>
<path d="M1632.24 866.645C1630.42 866.645 1628.68 867.085 1627.12 867.889C1626.64 868.135 1626.06 867.91 1625.82 867.353C1623.27 861.726 1618.13 857.89 1612.2 857.89C1604.51 857.89 1598.15 864.331 1597.06 872.733C1596.99 873.322 1596.6 873.751 1596.11 873.826C1591.87 874.458 1588.31 877.491 1586.51 881.692C1586.16 882.517 1586.69 883.514 1587.47 883.514H1598.69H1609.62H1619.97H1625.7H1643.61C1644.15 883.514 1644.6 883.021 1644.66 882.378C1644.71 881.885 1644.74 881.371 1644.74 880.867C1644.74 873.011 1639.15 866.645 1632.24 866.645Z" fill="white"/>
<path d="M1653.61 946.831C1677.47 946.831 1696.82 927.437 1696.82 903.513C1696.82 879.589 1677.47 860.194 1653.61 860.194C1629.74 860.194 1610.4 879.589 1610.4 903.513C1610.4 927.437 1629.74 946.831 1653.61 946.831Z" fill="#D1CEEA"/>
<path d="M1667.37 870.709L1673.35 880.055L1697.87 864.286L1691.89 854.941L1667.37 870.709Z" fill="white" stroke="#251E1C" stroke-opacity="0.1" stroke-width="0.75" stroke-linecap="round" stroke-linejoin="round"/>
<path d="M1690.38 856.085L1696.21 865.195C1696.73 866.012 1697.82 866.25 1698.63 865.726L1700.58 864.476C1701.39 863.952 1701.63 862.865 1701.1 862.048L1695.27 852.937C1694.75 852.12 1693.67 851.882 1692.85 852.406L1690.91 853.656C1690.09 854.18 1689.86 855.268 1690.38 856.085Z" fill="#434746" stroke="#251E1C" stroke-opacity="0.1" stroke-width="0.75" stroke-linecap="round" stroke-linejoin="round"/>
<path d="M1667.38 870.697C1667.38 870.697 1656.25 870.45 1649.96 881.735C1649.96 881.735 1649.96 890.856 1649.96 890.652H1670.81C1672.12 890.652 1673.19 889.58 1673.19 888.262V880.042L1667.38 870.697Z" fill="white" stroke="#251E1C" stroke-opacity="0.1" stroke-width="0.75" stroke-linecap="round" stroke-linejoin="round"/>
<path d="M1628.08 893.92H1638.87V907.477H1626.83V895.174C1626.83 894.488 1627.38 893.92 1628.08 893.92Z" fill="white" stroke="#251E1C" stroke-opacity="0.1" stroke-width="0.75" stroke-linecap="round" stroke-linejoin="round"/>
<path d="M1626.83 907.467H1671.48C1672.42 907.467 1673.19 908.238 1673.19 909.182V914.24C1673.19 915.183 1672.42 915.955 1671.48 915.955H1626.83V907.478V907.467Z" fill="white" stroke="#251E1C" stroke-opacity="0.1" stroke-width="0.75" stroke-linecap="round" stroke-linejoin="round"/>
<path d="M1626.83 928.107H1677.09C1678.52 928.107 1679.68 929.276 1679.68 930.712V932.566H1626.82V928.107H1626.83Z" fill="white" stroke="#251E1C" stroke-opacity="0.1" stroke-width="0.75" stroke-linecap="round" stroke-linejoin="round"/>
<path d="M1626.83 915.954H1638.95L1645.24 928.107H1626.83V915.954Z" fill="white" stroke="#251E1C" stroke-opacity="0.1" stroke-width="0.75" stroke-linecap="round" stroke-linejoin="round"/>
<path d="M1653.53 903.662H1667.9C1668.58 903.662 1669.13 904.209 1669.13 904.895V907.467H1652.3V904.895C1652.3 904.219 1652.84 903.662 1653.53 903.662Z" fill="#434746" stroke="#251E1C" stroke-opacity="0.1" stroke-width="0.75" stroke-linecap="round" stroke-linejoin="round"/>
<path d="M1627.96 893.92L1637.61 883.803C1638.75 882.614 1640.32 881.938 1641.97 881.938H1649.97V890.662H1644.35C1642.49 890.662 1640.74 891.52 1639.59 892.988L1638.88 893.92H1627.97H1627.96Z" fill="white" stroke="#251E1C" stroke-opacity="0.1" stroke-width="0.75" stroke-linecap="round" stroke-linejoin="round"/>
<path d="M1656.31 890.77H1665.43V898.679C1665.43 899.354 1664.89 899.911 1664.2 899.911H1657.54C1656.87 899.911 1656.31 899.365 1656.31 898.679V890.77Z" fill="white" stroke="#251E1C" stroke-opacity="0.1" stroke-width="0.75" stroke-linecap="round" stroke-linejoin="round"/>
<path d="M1661.33 886.107C1663.33 886.107 1664.95 884.48 1664.95 882.474C1664.95 880.467 1663.33 878.841 1661.33 878.841C1659.33 878.841 1657.7 880.467 1657.7 882.474C1657.7 884.48 1659.33 886.107 1661.33 886.107Z" fill="#D8D8D8" stroke="#251E1C" stroke-opacity="0.1" stroke-width="0.75" stroke-linecap="round" stroke-linejoin="round"/>
<path d="M1634.21 925.997C1636.21 925.997 1637.83 924.37 1637.83 922.364C1637.83 920.357 1636.21 918.73 1634.21 918.73C1632.21 918.73 1630.59 920.357 1630.59 922.364C1630.59 924.37 1632.21 925.997 1634.21 925.997Z" fill="#D8D8D8" stroke="#251E1C" stroke-opacity="0.1" stroke-width="0.75" stroke-linecap="round" stroke-linejoin="round"/>
<path d="M1626.83 913.361H1673.2V910.253H1626.83V913.361Z" fill="#D8D8D8" stroke="#251E1C" stroke-opacity="0.1" stroke-width="0.75" stroke-linecap="round" stroke-linejoin="round"/>
<path d="M1694.51 866.452L1688.29 857.257" stroke="#251E1C" stroke-opacity="0.1" stroke-width="0.75" stroke-linecap="round" stroke-linejoin="round"/>
<path d="M1731.94 987.171C1755.81 987.171 1775.15 967.777 1775.15 943.853C1775.15 919.928 1755.81 900.534 1731.94 900.534C1708.08 900.534 1688.73 919.928 1688.73 943.853C1688.73 967.777 1708.08 987.171 1731.94 987.171Z" fill="#B8E1FF"/>
<path d="M1756.58 925.654H1709.48C1707.73 925.654 1706.3 927.079 1706.3 928.837V958.856C1706.3 960.614 1707.73 962.039 1709.48 962.039H1756.58C1758.33 962.039 1759.76 960.614 1759.76 958.856V928.837C1759.76 927.079 1758.33 925.654 1756.58 925.654Z" fill="white"/>
<path d="M1753.89 928.387H1712.19C1710.66 928.387 1709.43 929.625 1709.43 931.152V956.551C1709.43 958.078 1710.66 959.316 1712.19 959.316H1753.89C1755.41 959.316 1756.65 958.078 1756.65 956.551V931.152C1756.65 929.625 1755.41 928.387 1753.89 928.387Z" fill="#F2A2BF"/>
<path d="M1743.05 942.276L1728.41 933.81C1727.2 933.113 1725.7 933.981 1725.7 935.385V952.318C1725.7 953.711 1727.2 954.59 1728.41 953.894L1743.05 945.427C1744.25 944.731 1744.25 942.984 1743.05 942.287V942.276Z" fill="white"/>
<path d="M1723.04 879.613C1723.04 879.613 1723.51 874.19 1729.74 875.251C1729.74 875.251 1728.8 867.942 1737.5 869.121C1737.5 869.121 1732.8 856.164 1748.31 849.326" stroke="#251E1C" stroke-opacity="0.2" stroke-width="0.75" stroke-linecap="round" stroke-linejoin="round"/>
<path d="M1723.35 843.275L1723.34 843.282C1722.36 844.082 1722.22 845.526 1723.02 846.508L1727.84 852.448C1728.64 853.43 1730.08 853.577 1731.06 852.777L1731.07 852.77C1732.05 851.97 1732.2 850.525 1731.4 849.544L1726.57 843.604C1725.77 842.622 1724.33 842.475 1723.35 843.275Z" fill="#FFD6EC"/>
<path d="M1749.79 855.542C1749.79 855.542 1756.61 854.76 1758.1 847.376C1758.1 847.376 1759.2 854.889 1766.17 855.96C1766.17 855.96 1759.2 856.914 1757.98 864.48C1757.98 864.48 1757.83 857.579 1749.79 855.542Z" fill="#FFDB8A"/>
<path d="M1751.28 845.961C1752.53 845.961 1753.55 844.939 1753.55 843.678C1753.55 842.418 1752.53 841.396 1751.28 841.396C1750.02 841.396 1749 842.418 1749 843.678C1749 844.939 1750.02 845.961 1751.28 845.961Z" fill="white"/>
<g clip-path="url(#clip0_1042_10742)">
<path d="M333.513 981.445C335.933 981.445 338.237 982.027 340.322 983.088C340.964 983.423 341.722 983.118 342.057 982.376C345.425 974.945 352.264 969.869 360.152 969.869C370.373 969.869 378.816 978.391 380.274 989.487C380.376 990.258 380.886 990.84 381.528 990.942C387.171 991.771 391.895 995.784 394.301 1001.35C394.767 1002.44 394.067 1003.75 393.032 1003.75H378.116H363.579H349.814H342.188H318.392C317.678 1003.75 317.066 1003.1 316.993 1002.26C316.934 1001.6 316.891 1000.93 316.891 1000.26C316.891 989.88 324.327 981.46 333.513 981.46V981.445Z" fill="white"/>
<path d="M312.984 956.039H127.749C116.289 956.039 107 965.304 107 976.733V1031.63C107 1043.06 116.289 1052.33 127.749 1052.33H312.984C324.444 1052.33 333.733 1043.06 333.733 1031.63V976.733C333.733 965.304 324.444 956.039 312.984 956.039Z" fill="#FFD6EC"/>
<path d="M177.991 915.93L163.103 891.061C162.856 890.64 162.229 890.64 161.981 891.061L147.094 915.93C146.831 916.366 147.152 916.918 147.662 916.918H152.853C153.218 916.918 153.509 917.209 153.509 917.573V944.288C153.509 944.651 153.801 944.942 154.165 944.942H170.948C171.313 944.942 171.604 944.651 171.604 944.288V917.573C171.604 917.209 171.896 916.918 172.26 916.918H177.451C177.961 916.918 178.282 916.366 178.02 915.93H177.991Z" fill="#BEDBF1"/>
<path d="M139.686 877.726L124.799 852.858C124.551 852.437 123.924 852.437 123.676 852.858L108.789 877.726C108.527 878.163 108.847 878.715 109.358 878.715H114.548C114.913 878.715 115.205 879.006 115.205 879.37V906.085C115.205 906.448 115.496 906.739 115.861 906.739H132.643C133.008 906.739 133.299 906.448 133.299 906.085V879.37C133.299 879.006 133.591 878.715 133.956 878.715H139.146C139.657 878.715 139.978 878.163 139.715 877.726H139.686Z" fill="#BEDBF1"/>
<path d="M73.5376 1085.89C74.6895 1085.89 75.7976 1086.01 76.8766 1086.2C77.3286 1086.28 77.766 1086.01 77.8973 1085.53C80.2302 1077.86 87.229 1072.29 95.511 1072.29C105.688 1072.29 113.941 1080.69 113.941 1091.05C113.941 1092.73 113.723 1094.33 113.329 1095.87C113.227 1096.29 112.848 1096.58 112.439 1096.58H90.1744H77.9118H58.4755C57.7464 1096.58 57.309 1095.72 57.7027 1095.07C60.9105 1089.56 66.8158 1085.88 73.5521 1085.88L73.5376 1085.89Z" fill="white"/>
<path d="M307.85 944.565H113.122C103.499 944.565 95.625 952.419 95.625 962.017V1026.28C95.625 1035.88 103.499 1043.73 113.122 1043.73H137.997C138.668 1065.91 146.687 1125.46 223.295 1125.46C223.295 1125.46 157.04 1128.09 157.04 1043.73H307.865C317.488 1043.73 325.362 1035.88 325.362 1026.28V962.017C325.362 952.419 317.488 944.565 307.865 944.565H307.85Z" fill="white"/>
<path d="M260.568 971.76V931.259C260.568 931.259 220.602 935.782 220.602 971.76C220.602 990.128 231.027 1000.19 241.219 1005.63C253.627 1012.25 268.587 1012.8 281.185 1006.55C291.494 1001.43 301.817 991.364 301.817 971.542L260.568 971.76Z" fill="#FFDB8A"/>
<path d="M268.117 965.085H309.367C309.367 965.085 308.069 924.802 268.117 924.802V965.085Z" fill="#F2A2BF"/>
<g opacity="0.4">
<path d="M125.586 929.499V1020.41H217.664" stroke="#251E1C" stroke-width="0.75" stroke-linecap="round" stroke-linejoin="round"/>
<path d="M125.838 929.633L125.588 929.488L125.337 929.633L122.16 931.472L125.588 923.109L129.016 931.472L125.838 929.633Z" fill="#251E1C" stroke="#251E1C"/>
<path d="M215.67 1016.99L224.053 1020.41L215.67 1023.82L217.513 1020.66L217.659 1020.41L217.513 1020.15L215.67 1016.99Z" fill="#251E1C" stroke="#251E1C"/>
<path d="M125.586 1003.11C125.586 1003.11 129.596 1002.05 137.309 978.42C145.022 954.803 145.299 995.145 158.597 1005.76C168.191 1013.41 178.879 984.805 184.114 968.241C184.945 965.608 188.721 965.623 189.494 968.27C192.06 977.053 197.514 987.873 208.887 987.873" stroke="#251E1C" stroke-width="0.75" stroke-linecap="round" stroke-linejoin="round"/>
</g>
</g>
<defs>
<clipPath id="clip0_1042_10742">
<rect width="338" height="274" fill="white" transform="translate(57 852)"/>
</clipPath>
</defs>
</svg>
