<svg width="1920" height="1330" viewBox="0 0 1920 1330" fill="none" xmlns="http://www.w3.org/2000/svg">
<path d="M1679.24 1203.94C1691.93 1185.17 1687 1159.66 1668.23 1146.98C1649.46 1134.29 1623.96 1139.22 1611.27 1157.99L1584.22 1198C1571.53 1216.77 1576.46 1242.27 1595.23 1254.96C1614 1267.65 1639.5 1262.72 1652.19 1243.95L1679.24 1203.94Z" fill="white" stroke="#9D9D9D" stroke-width="2" stroke-miterlimit="10"/>
<path d="M1668.22 1146.98L1628.47 1205.78" stroke="#9D9D9D" stroke-width="2" stroke-linecap="round" stroke-linejoin="round"/>
<path d="M1662.24 1155.87L1662.23 1155.86C1658.12 1153.08 1652.55 1154.16 1649.77 1158.27L1638.08 1175.56C1635.31 1179.67 1636.38 1185.24 1640.49 1188.02L1640.5 1188.02C1644.6 1190.8 1650.18 1189.72 1652.95 1185.62L1664.64 1168.32C1667.42 1164.22 1666.34 1158.64 1662.24 1155.87Z" fill="#FFDAA5" stroke="#9D9D9D" stroke-width="2" stroke-linecap="round" stroke-linejoin="round"/>
<path d="M1542.04 884.809L1602.66 884.469V967.199H1711.81V936.789" stroke="#696969" stroke-width="2" stroke-linecap="round" stroke-linejoin="round"/>
<path d="M1542.27 888.567C1540.19 888.577 1538.5 886.907 1538.49 884.827C1538.48 882.747 1540.15 881.057 1542.23 881.047C1544.31 881.037 1546 882.707 1546.01 884.787C1546.02 886.867 1544.35 888.557 1542.27 888.567Z" fill="white"/>
<path d="M1542.28 889.067C1544.63 889.057 1546.53 887.137 1546.52 884.787C1546.51 882.437 1544.59 880.537 1542.24 880.547C1539.89 880.557 1537.99 882.477 1538 884.827C1538.01 887.177 1539.93 889.077 1542.28 889.067C1544.63 889.057 1539.93 889.077 1542.28 889.067ZM1542.24 881.547C1544.04 881.537 1545.51 882.987 1545.52 884.787C1545.53 886.587 1544.08 888.057 1542.28 888.067C1540.48 888.077 1539.01 886.627 1539 884.827C1538.99 883.027 1540.44 881.557 1542.24 881.547C1544.04 881.537 1540.44 881.557 1542.24 881.547Z" fill="#696969"/>
<path d="M1747.97 876H1671.96C1666.82 876 1662.65 880.168 1662.65 885.31V935.19C1662.65 940.332 1666.82 944.5 1671.96 944.5H1747.97C1753.11 944.5 1757.28 940.332 1757.28 935.19V885.31C1757.28 880.168 1753.11 876 1747.97 876Z" fill="white" stroke="#696969" stroke-width="2" stroke-linecap="round" stroke-linejoin="round"/>
<path d="M1745.31 879.703H1674.42C1669.82 879.703 1666.09 883.433 1666.09 888.033V932.473C1666.09 937.074 1669.82 940.803 1674.42 940.803H1745.31C1749.91 940.803 1753.64 937.074 1753.64 932.473V888.033C1753.64 883.433 1749.91 879.703 1745.31 879.703Z" fill="#FFADAD" stroke="#696969" stroke-width="2" stroke-linecap="round" stroke-linejoin="round"/>
<path d="M1725.88 907.335L1698.66 891.615C1696.41 890.315 1693.61 891.935 1693.61 894.535V925.965C1693.61 928.555 1696.42 930.175 1698.66 928.885L1725.88 913.165C1728.13 911.865 1728.13 908.625 1725.88 907.335Z" fill="white" stroke="#696969" stroke-width="2" stroke-linecap="round" stroke-linejoin="round"/>
<path d="M1726.45 1078.69L1721.39 1085.67C1720.5 1086.9 1720.49 1088.57 1721.39 1089.81L1726.48 1096.88C1728.17 1099.22 1726.5 1102.48 1723.62 1102.48H1723.61C1722.48 1102.48 1721.41 1101.93 1720.74 1101.02L1712.67 1089.82C1711.78 1088.58 1711.78 1086.93 1712.67 1085.68L1720.74 1074.55C1721.4 1073.64 1722.46 1073.09 1723.6 1073.09C1726.47 1073.09 1728.14 1076.36 1726.45 1078.69Z" fill="#799BD8" stroke="#777777" stroke-width="2" stroke-miterlimit="10"/>
<path d="M1747.62 1076.46L1740.91 1100.99C1740.49 1102.52 1739.09 1103.59 1737.5 1103.59H1736.86C1734.54 1103.59 1732.84 1101.37 1733.46 1099.13L1740.17 1074.6C1740.59 1073.07 1741.98 1072 1743.58 1072H1744.2C1746.53 1072 1748.22 1074.22 1747.61 1076.46H1747.62Z" fill="#799BD8" stroke="#777777" stroke-width="2" stroke-miterlimit="10"/>
<path d="M1756.93 1073.09C1758.06 1073.09 1759.13 1073.62 1759.79 1074.55L1767.86 1085.68C1768.75 1086.91 1768.76 1088.58 1767.86 1089.82L1759.79 1101.02C1759.13 1101.94 1758.06 1102.48 1756.92 1102.48H1756.91C1754.03 1102.48 1752.36 1099.22 1754.04 1096.88L1759.14 1089.81C1760.03 1088.57 1760.03 1086.91 1759.14 1085.67L1754.07 1078.69C1752.38 1076.35 1754.05 1073.09 1756.93 1073.09Z" fill="#799BD8" stroke="#777777" stroke-width="2" stroke-miterlimit="10"/>
<path d="M1746.17 895.021L1783.95 902.771C1784.6 902.901 1784.93 903.641 1784.59 904.221L1771.25 926.581C1770.9 927.161 1770.09 927.221 1769.66 926.691L1745.22 896.581C1744.65 895.871 1745.28 894.841 1746.17 895.021Z" fill="white" stroke="#777777" stroke-width="2" stroke-linecap="round" stroke-linejoin="round"/>
<path d="M1800.93 929.128L1777.91 915.398" stroke="#777777" stroke-width="2" stroke-linecap="round" stroke-linejoin="round"/>
<path d="M233.249 898.487L231.445 892.819C230.843 890.968 229.131 889.695 227.188 889.695H197.459C194.383 889.695 192.231 892.726 193.226 895.641C194.244 898.556 192.069 901.587 188.992 901.587H188.483C185.429 901.587 183.278 904.571 184.226 907.463L203.475 966.272C204.076 968.123 205.788 969.349 207.731 969.349H303.811C306.888 969.349 309.063 966.319 308.045 963.404L287.524 904.641C286.9 902.836 285.211 901.633 283.314 901.633L237.506 901.587C235.563 901.587 233.828 900.314 233.249 898.463V898.487Z" fill="#FFF2E0" stroke="#878787" stroke-width="2" stroke-linecap="round" stroke-linejoin="round"/>
<path d="M240.539 884.791L238.734 879.123C238.132 877.272 236.42 876 234.477 876H204.749C201.672 876 199.52 879.031 200.515 881.946C201.533 884.861 199.358 887.891 196.281 887.891H195.772C192.718 887.891 190.567 890.876 191.515 893.768L210.764 952.577C211.365 954.428 213.077 955.654 215.021 955.654H311.1C314.177 955.654 316.352 952.623 315.334 949.708L294.813 890.945C294.189 889.141 292.5 887.938 290.603 887.938L244.795 887.891C242.852 887.891 241.117 886.619 240.539 884.768V884.791Z" fill="#FFEBCD" stroke="#878787" stroke-width="2" stroke-linecap="round" stroke-linejoin="round"/>
<path d="M88.8067 1088.65L88.8124 1088.65C90.1198 1090.54 89.6536 1093.12 87.7711 1094.43L70.145 1106.67C68.2624 1107.98 65.6765 1107.51 64.3691 1105.63L64.3634 1105.62C63.056 1103.74 63.5222 1101.15 65.4047 1099.85L83.0308 1087.6C84.9134 1086.3 87.4993 1086.76 88.8067 1088.65Z" fill="white"/>
<path d="M89.3076 1119.48C87.0764 1119.48 85.2676 1117.67 85.2676 1115.44C85.2676 1113.21 87.0764 1111.4 89.3076 1111.4C91.5388 1111.4 93.3477 1113.21 93.3477 1115.44C93.3477 1117.67 91.5388 1119.48 89.3076 1119.48Z" fill="#FF7955"/>
<path d="M253.047 1090.39C250.186 1090.39 247.867 1088.07 247.867 1085.21C247.867 1082.35 250.186 1080.03 253.047 1080.03C255.907 1080.03 258.227 1082.35 258.227 1085.21C258.227 1088.07 255.907 1090.39 253.047 1090.39Z" fill="#FFC866"/>
<path d="M1577.12 1044.01C1574.48 1044.01 1572.33 1041.87 1572.33 1039.22C1572.33 1036.57 1574.48 1034.43 1577.12 1034.43C1579.77 1034.43 1581.91 1036.57 1581.91 1039.22C1581.91 1041.87 1579.77 1044.01 1577.12 1044.01Z" fill="#F9D1D1"/>
<path d="M1562.85 1042.17C1563.99 1041.73 1564.87 1040.7 1565.06 1039.41C1565.1 1039.18 1566.22 1032.93 1573.6 1030.09C1581.28 1027.13 1587.04 1031.12 1587.09 1031.16C1588.66 1032.28 1590.85 1031.91 1591.97 1030.33C1593.09 1028.75 1592.72 1026.57 1591.14 1025.45C1590.78 1025.19 1582.23 1019.26 1571.08 1023.55C1559.77 1027.9 1558.19 1037.97 1558.12 1038.4C1557.84 1040.31 1559.17 1042.09 1561.08 1042.37C1561.7 1042.46 1562.3 1042.38 1562.84 1042.17H1562.85Z" fill="#F9D1D1"/>
<path d="M1552.69 1035.46C1553.7 1035.07 1554.52 1034.22 1554.82 1033.09C1554.94 1032.67 1557.9 1022.39 1569.01 1018.11C1579.98 1013.88 1589.15 1019.51 1589.53 1019.75C1591.16 1020.77 1593.32 1020.29 1594.35 1018.66C1595.38 1017.03 1594.91 1014.88 1593.29 1013.84C1592.79 1013.52 1580.85 1006.04 1566.49 1011.57C1552.13 1017.1 1548.2 1030.7 1548.05 1031.28C1547.55 1033.15 1548.66 1035.07 1550.53 1035.56C1551.27 1035.76 1552.02 1035.7 1552.69 1035.45V1035.46Z" fill="#F9D1D1"/>
<path d="M1542.75 1030.08C1543.78 1029.68 1544.6 1028.81 1544.89 1027.66C1545.04 1027.09 1548.79 1013.29 1564.77 1007.14C1579.59 1001.43 1593.09 1009.14 1593.22 1009.22C1594.89 1010.19 1597.03 1009.64 1598.01 1007.97C1598.99 1006.31 1598.44 1004.17 1596.78 1003.19C1596.12 1002.8 1580.31 993.648 1562.26 1000.6C1542.79 1008.1 1538.28 1025.22 1538.1 1025.95C1537.63 1027.82 1538.77 1029.73 1540.64 1030.2C1541.37 1030.38 1542.1 1030.32 1542.75 1030.07V1030.08Z" fill="#F9D1D1"/>
<path d="M468.309 1145.53H338.359C338.359 1145.53 338.859 1043.55 338.359 1044C337.859 1044.45 172.329 1044 172.329 1044V1073.18" stroke="#888888" stroke-width="2" stroke-linecap="round" stroke-linejoin="round"/>
<path d="M114.756 1062.06H231.276C233.203 1062.06 234.766 1063.63 234.766 1065.55V1151.32C234.766 1153.25 233.203 1154.81 231.276 1154.81H114.756C112.828 1154.81 111.266 1153.25 111.266 1151.32V1065.55C111.266 1063.63 112.828 1062.06 114.756 1062.06Z" fill="white" stroke="#888888" stroke-width="2" stroke-linecap="round" stroke-linejoin="round"/>
<path d="M231.276 1062.06H114.756C112.826 1062.06 111.266 1063.62 111.266 1065.55V1069.89H234.766V1065.55C234.766 1063.62 233.206 1062.06 231.276 1062.06Z" fill="#FDE9CD" stroke="#888888" stroke-width="2" stroke-linecap="round" stroke-linejoin="round"/>
<path d="M228.809 1077.6H190.189" stroke="#888888" stroke-width="2" stroke-linecap="round" stroke-linejoin="round"/>
<path d="M228.809 1082.98H208.809" stroke="#888888" stroke-width="2" stroke-linecap="round" stroke-linejoin="round"/>
<path d="M205.809 1082.98H168.309" stroke="#888888" stroke-width="2" stroke-linecap="round" stroke-linejoin="round"/>
<path d="M228.809 1088.73H160.689" stroke="#888888" stroke-width="2" stroke-linecap="round" stroke-linejoin="round"/>
<path d="M228.809 1093.98H180.939" stroke="#888888" stroke-width="2" stroke-linecap="round" stroke-linejoin="round"/>
<path d="M228.809 1099.23H202.559" stroke="#888888" stroke-width="2" stroke-linecap="round" stroke-linejoin="round"/>
<path d="M198.438 1099.23H146.938" stroke="#888888" stroke-width="2" stroke-linecap="round" stroke-linejoin="round"/>
<path d="M228.809 1104.48H190.189" stroke="#888888" stroke-width="2" stroke-linecap="round" stroke-linejoin="round"/>
<path d="M228.809 1109.85H208.809" stroke="#888888" stroke-width="2" stroke-linecap="round" stroke-linejoin="round"/>
<path d="M205.809 1109.85H168.309" stroke="#888888" stroke-width="2" stroke-linecap="round" stroke-linejoin="round"/>
<path d="M228.809 1115.6H160.689" stroke="#888888" stroke-width="2" stroke-linecap="round" stroke-linejoin="round"/>
<path d="M228.809 1120.85H180.939" stroke="#888888" stroke-width="2" stroke-linecap="round" stroke-linejoin="round"/>
<path d="M228.809 1126.1H202.559" stroke="#888888" stroke-width="2" stroke-linecap="round" stroke-linejoin="round"/>
<path d="M198.438 1126.1H146.938" stroke="#888888" stroke-width="2" stroke-linecap="round" stroke-linejoin="round"/>
<path d="M228.809 1131.35H190.189" stroke="#888888" stroke-width="2" stroke-linecap="round" stroke-linejoin="round"/>
<path d="M228.809 1136.73H208.809" stroke="#888888" stroke-width="2" stroke-linecap="round" stroke-linejoin="round"/>
<path d="M205.809 1136.73H168.309" stroke="#888888" stroke-width="2" stroke-linecap="round" stroke-linejoin="round"/>
<path d="M228.809 1142.48H160.689" stroke="#888888" stroke-width="2" stroke-linecap="round" stroke-linejoin="round"/>
<path d="M120.248 1075.77H133.068C134.741 1075.77 136.098 1077.13 136.098 1078.8V1091.62C136.098 1093.3 134.741 1094.65 133.068 1094.65H120.248C118.574 1094.65 117.218 1093.3 117.218 1091.62V1078.8C117.218 1077.13 118.574 1075.77 120.248 1075.77Z" fill="#7AC1DD" stroke="#888888" stroke-width="2" stroke-linecap="round" stroke-linejoin="round"/>
<path d="M76.7184 1140.56H190.708C192.608 1140.56 194.148 1142.1 194.148 1144V1221.65C194.148 1223.55 192.608 1225.09 190.708 1225.09H76.7184C74.8186 1225.09 73.2784 1223.55 73.2784 1221.65V1144C73.2784 1142.1 74.8186 1140.56 76.7184 1140.56Z" fill="white" stroke="#888888" stroke-width="2" stroke-linecap="round" stroke-linejoin="round"/>
<path d="M81.9275 1145.34H185.497C187.397 1145.34 188.938 1146.88 188.938 1148.78V1152.37C188.938 1154.27 187.397 1155.81 185.497 1155.81H81.9275C80.0276 1155.81 78.4875 1154.27 78.4875 1152.37V1148.78C78.4875 1146.88 80.0276 1145.34 81.9275 1145.34Z" fill="#7AC1DD" stroke="#888888" stroke-width="2" stroke-miterlimit="10"/>
<path d="M108.997 1153.11C107.6 1153.11 106.467 1151.98 106.467 1150.58C106.467 1149.19 107.6 1148.05 108.997 1148.05C110.395 1148.05 111.527 1149.19 111.527 1150.58C111.527 1151.98 110.395 1153.11 108.997 1153.11Z" fill="white" stroke="#888888" stroke-width="2" stroke-linecap="round" stroke-linejoin="round"/>
<path d="M99.9075 1153.11C98.5103 1153.11 97.3775 1151.98 97.3775 1150.58C97.3775 1149.19 98.5103 1148.05 99.9075 1148.05C101.305 1148.05 102.438 1149.19 102.438 1150.58C102.438 1151.98 101.305 1153.11 99.9075 1153.11Z" fill="white" stroke="#888888" stroke-width="2" stroke-linecap="round" stroke-linejoin="round"/>
<path d="M90.5403 1153.11C89.1431 1153.11 88.0103 1151.98 88.0103 1150.58C88.0103 1149.19 89.1431 1148.05 90.5403 1148.05C91.9376 1148.05 93.0703 1149.19 93.0703 1150.58C93.0703 1151.98 91.9376 1153.11 90.5403 1153.11Z" fill="white" stroke="#888888" stroke-width="2" stroke-linecap="round" stroke-linejoin="round"/>
<path d="M177.578 1210.18H89.8481" stroke="#888888" stroke-width="2" stroke-linecap="round" stroke-linejoin="round"/>
<path d="M159.328 1177.09H172.328V1210.18H159.328V1177.09Z" fill="#F47851" stroke="#888888" stroke-width="2" stroke-linecap="round" stroke-linejoin="round"/>
<path d="M137.516 1166.76H150.516V1210.17H137.516V1166.76Z" fill="#FFC866" stroke="#888888" stroke-width="2" stroke-linecap="round" stroke-linejoin="round"/>
<path d="M116.32 1182.83H129.32V1210.18H116.32V1182.83Z" fill="#7AC1AA" stroke="#888888" stroke-width="2" stroke-linecap="round" stroke-linejoin="round"/>
<path d="M95.1094 1173.85H108.109V1210.18H95.1094V1173.85Z" fill="#799BD8" stroke="#888888" stroke-width="2" stroke-miterlimit="10"/>
<path d="M1832 795.492V799.055C1832 799.969 1831.34 800.745 1830.44 800.9L1824.97 801.843C1824.34 801.95 1823.79 802.374 1823.56 802.971C1823.47 803.192 1823.37 803.413 1823.29 803.628C1823.02 804.219 1823.11 804.905 1823.48 805.436L1826.28 809.388C1826.8 810.134 1826.72 811.155 1826.07 811.799L1823.56 814.3C1822.92 814.957 1821.89 815.04 1821.15 814.509L1817.37 811.841C1816.82 811.459 1816.11 811.387 1815.51 811.674C1815.1 811.871 1814.67 812.044 1814.24 812.211C1813.63 812.444 1813.19 812.987 1813.07 813.638L1812.21 818.664C1812.06 819.559 1811.28 820.221 1810.36 820.221H1806.82C1805.9 820.221 1805.12 819.559 1804.96 818.664L1804.09 813.578C1803.98 812.951 1803.56 812.402 1802.96 812.163C1802.45 811.972 1801.96 811.751 1801.49 811.501C1800.87 811.184 1800.14 811.25 1799.57 811.65L1795.53 814.509C1794.78 815.04 1793.76 814.957 1793.11 814.3L1790.61 811.799C1789.97 811.155 1789.87 810.134 1790.4 809.388L1793.61 804.857C1793.97 804.338 1794.05 803.663 1793.82 803.067C1793.81 803.067 1793.81 803.061 1793.81 803.049C1793.56 802.446 1793.03 802.004 1792.38 801.897L1786.56 800.894C1785.66 800.739 1785 799.957 1785 799.037V795.498C1785 794.579 1785.66 793.803 1786.56 793.641L1792.37 792.639C1793.01 792.531 1793.55 792.107 1793.79 791.511C1793.86 791.314 1793.94 791.111 1794.04 790.914C1794.29 790.323 1794.21 789.636 1793.84 789.105L1790.4 784.234C1789.87 783.488 1789.96 782.467 1790.61 781.823L1793.11 779.322C1793.76 778.677 1794.78 778.582 1795.53 779.113L1800.33 782.509C1800.87 782.879 1801.56 782.975 1802.15 782.706C1802.38 782.599 1802.61 782.497 1802.85 782.408C1803.45 782.175 1803.86 781.632 1803.97 780.999L1804.95 775.269C1805.11 774.368 1805.9 773.711 1806.81 773.711H1810.35C1811.27 773.711 1812.05 774.368 1812.21 775.269L1813.19 780.933C1813.29 781.572 1813.72 782.115 1814.32 782.348C1814.52 782.42 1814.72 782.503 1814.91 782.587C1815.5 782.844 1816.19 782.76 1816.71 782.39L1821.45 779.053C1822.19 778.522 1823.21 778.606 1823.86 779.25L1826.38 781.775C1827.02 782.42 1827.12 783.44 1826.59 784.187L1823.34 788.765C1822.96 789.314 1822.9 790.018 1823.17 790.621C1823.3 790.92 1823.43 791.212 1823.54 791.517C1823.78 792.131 1824.32 792.567 1824.97 792.674L1830.44 793.618C1831.34 793.773 1832 794.555 1832 795.474V795.492ZM1817.36 797.271C1817.36 792.466 1813.47 788.574 1808.67 788.574C1803.86 788.574 1799.97 792.466 1799.97 797.271C1799.97 802.076 1803.86 805.967 1808.67 805.967C1813.47 805.967 1817.36 802.064 1817.36 797.271Z" fill="#B9F8D2"/>
</svg>
