<svg width="1920" height="1330" viewBox="0 0 1920 1330" fill="none" xmlns="http://www.w3.org/2000/svg">
<path d="M1491 1163.44L1619.41 1115.88L1737 1144.41L1615.19 1207.56L1491 1163.44Z" fill="#DD7286" fill-opacity="0.33" stroke="#434343" stroke-width="0.5" stroke-linecap="round" stroke-linejoin="round"/>
<path d="M1529.93 1159.73L1622.2 1123.93L1700.15 1143.97L1612.85 1186.77L1529.93 1159.73Z" fill="white" stroke="#434343" stroke-width="0.5" stroke-linecap="round" stroke-linejoin="round"/>
<path d="M1564.32 1153.88L1569.09 1151.76L1606.75 1162.85L1601.77 1165.75L1564.32 1153.88Z" fill="#757575" stroke="#434343"/>
<path d="M1602.33 1166.58L1607.51 1163.57V1170.33L1602.33 1173.38V1166.58Z" fill="#3F3F3F" stroke="#434343"/>
<path d="M1563.41 1154.64L1601.33 1166.66V1173.57L1563.41 1161.15V1154.64Z" fill="#585858" stroke="#434343"/>
<path d="M1562.91 1153.96V1161.51L1601.83 1174.26V1166.29L1562.91 1153.96Z" stroke="#434343" stroke-width="0.5" stroke-linecap="round" stroke-linejoin="round"/>
<path d="M1562.91 1153.96L1569.06 1151.23L1608.01 1162.7L1601.83 1166.29" stroke="#434343" stroke-width="0.5" stroke-linecap="round" stroke-linejoin="round"/>
<path d="M1601.83 1174.26L1608.01 1170.61V1162.7" stroke="#434343" stroke-width="0.5" stroke-linecap="round" stroke-linejoin="round"/>
<path d="M1543.25 1118.97L1543.33 1116.72L1565.02 1121.52L1560.95 1122.82L1543.25 1118.97Z" fill="#333333" stroke="#434343"/>
<path d="M1542.25 1118.96L1518.3 1124.02L1542.33 1116.78L1542.25 1118.96Z" fill="#3F3F3F" stroke="#434343"/>
<path d="M1542.73 1119.89L1559.04 1123.43L1528.68 1133.12L1508.83 1127.04L1542.73 1119.89Z" fill="#585858" stroke="#434343"/>
<path d="M1529.18 1137.07L1574.27 1121.75V1126.04L1529.18 1142.36V1137.07Z" fill="#3F3F3F" stroke="#434343"/>
<path d="M1499.29 1127.9L1528.18 1137.08V1142.4L1499.29 1133.29V1127.9Z" fill="#585858" stroke="#434343"/>
<path d="M1567.09 1121.91L1568.86 1121.35L1567.05 1120.95L1542.96 1115.61L1542.84 1115.58L1542.71 1115.62L1506.69 1126.47L1505.12 1126.94L1506.69 1127.42L1528.54 1134.12L1528.68 1134.17L1528.83 1134.12L1561.12 1123.81L1561.12 1123.81L1567.09 1121.91ZM1528.68 1136.19L1500.48 1127.24L1542.91 1114.52L1572.92 1121.16L1528.68 1136.19Z" fill="#757575" stroke="#434343"/>
<path d="M1498.79 1127.22V1133.66L1528.68 1143.08L1574.77 1126.39V1121.06L1542.89 1114L1498.79 1127.22Z" stroke="#434343" stroke-width="0.5" stroke-linecap="round" stroke-linejoin="round"/>
<path d="M1498.79 1127.22L1528.68 1136.71L1574.77 1121.05" stroke="#434343" stroke-width="0.5" stroke-linecap="round" stroke-linejoin="round"/>
<path d="M1528.68 1143.08V1136.72" stroke="#434343" stroke-width="0.5" stroke-linecap="round" stroke-linejoin="round"/>
<path d="M1506.84 1126.94L1528.68 1133.64L1560.97 1123.34L1566.94 1121.43L1542.85 1116.1L1506.84 1126.94Z" stroke="#434343" stroke-width="0.5" stroke-linecap="round" stroke-linejoin="round"/>
<path d="M1506.84 1126.94L1542.73 1119.37L1542.85 1116.1" stroke="#434343" stroke-width="0.5" stroke-linecap="round" stroke-linejoin="round"/>
<path d="M1560.97 1123.34L1542.73 1119.38" stroke="#434343" stroke-width="0.5" stroke-linecap="round" stroke-linejoin="round"/>
<path d="M1670.33 1062.92C1669.27 1062.48 1668.18 1062.07 1667.22 1061.43C1661.14 1057.45 1660.14 1050.62 1661.32 1043.36L1668.7 998.106L1662.53 997.1L1655.15 1042.35C1653.97 1049.62 1650.85 1055.77 1643.82 1057.62C1642.72 1057.9 1641.56 1057.96 1640.4 1058.04C1638.89 1058.15 1637.62 1059.22 1637.47 1060.7C1637.3 1062.32 1638.69 1063.79 1640.45 1064.08L1668.37 1068.63C1670.13 1068.92 1671.91 1067.96 1672.26 1066.37C1672.58 1064.92 1671.73 1063.51 1670.33 1062.92Z" fill="#D0906C" stroke="#8B8B8B" stroke-width="0.5" stroke-linecap="round" stroke-linejoin="round"/>
<path d="M1670.37 998.381L1660.87 996.831C1658.98 996.524 1657.7 994.744 1658.01 992.859L1674.34 995.523C1674.03 997.408 1672.26 998.689 1670.37 998.381Z" fill="#AF6E54" stroke="#8B8B8B" stroke-width="0.5" stroke-linecap="round" stroke-linejoin="round"/>
<path d="M1651.3 986.692C1650.79 986.608 1650.32 986.957 1650.33 987.435C1650.41 989.819 1652.33 991.936 1654.99 992.369L1677.36 996.018C1680.02 996.451 1682.51 995.055 1683.34 992.819C1683.51 992.38 1683.17 991.889 1682.66 991.806L1651.3 986.692Z" fill="#D0906C" stroke="#8B8B8B" stroke-width="0.5" stroke-linecap="round" stroke-linejoin="round"/>
<path d="M1665.61 1021.45L1658.03 1020.21C1657.29 1020.09 1656.58 1020.6 1656.46 1021.34C1656.34 1022.09 1656.84 1022.8 1657.59 1022.92L1665.17 1024.15C1665.92 1024.27 1666.62 1023.77 1666.74 1023.02C1666.87 1022.27 1666.36 1021.57 1665.61 1021.45Z" fill="#AF6E54" stroke="#8B8B8B" stroke-width="0.5" stroke-linecap="round" stroke-linejoin="round"/>
<path d="M1665.17 1024.15L1657.59 1022.92C1656.85 1022.79 1656.14 1023.3 1656.02 1024.05C1655.9 1024.79 1656.41 1025.5 1657.15 1025.62L1664.73 1026.86C1665.48 1026.98 1666.18 1026.47 1666.31 1025.72C1666.43 1024.98 1665.92 1024.27 1665.17 1024.15Z" fill="#AF6E54" stroke="#8B8B8B" stroke-width="0.5" stroke-linecap="round" stroke-linejoin="round"/>
<path d="M1678.96 919.154L1677.89 918.98C1677.58 918.928 1677.26 919.008 1677.04 919.205L1669.89 925.294C1669.54 925.601 1669.3 925.999 1669.23 926.443L1659.2 987.97L1674.76 990.508L1684.79 928.981C1684.87 928.537 1684.78 928.077 1684.53 927.682L1679.69 919.638C1679.54 919.38 1679.27 919.204 1678.95 919.152L1678.96 919.154Z" fill="white" stroke="#8B8B8B" stroke-width="0.5" stroke-linecap="round" stroke-linejoin="round"/>
<path d="M1678.43 919.071L1679.25 914.047" stroke="#8B8B8B" stroke-width="0.5" stroke-linecap="round" stroke-linejoin="round"/>
<path d="M1679.76 914.128L1678.73 913.961L1677.92 918.985L1678.94 919.152L1679.76 914.128Z" fill="white" stroke="#8B8B8B" stroke-width="0.5" stroke-linecap="round" stroke-linejoin="round"/>
<path d="M1684.73 908.31C1684.08 912.287 1681.57 915.191 1679.12 914.79C1676.66 914.389 1675.2 910.838 1675.85 906.861C1676.5 902.883 1679.91 894.433 1682.37 894.834C1684.83 895.235 1685.38 904.332 1684.73 908.31Z" fill="#F26761" stroke="#8B8B8B" stroke-width="0.5" stroke-linecap="round" stroke-linejoin="round"/>
<path d="M1681.42 910.843C1681.24 911.947 1680.86 912.885 1680.41 913.511C1679.94 914.164 1679.5 914.349 1679.21 914.301C1678.91 914.254 1678.56 913.938 1678.32 913.17C1678.09 912.434 1678.02 911.422 1678.2 910.318C1678.38 909.214 1678.77 908.276 1679.22 907.651C1679.69 906.998 1680.13 906.812 1680.42 906.86C1680.71 906.907 1681.07 907.223 1681.31 907.991C1681.54 908.727 1681.6 909.739 1681.42 910.843Z" fill="#FFD38D" stroke="#8B8B8B"/>
<path d="M1679.13 914.795C1680.29 914.984 1681.54 913.251 1681.92 910.923C1682.3 908.596 1681.66 906.556 1680.5 906.366C1679.34 906.177 1678.09 907.91 1677.71 910.238C1677.33 912.565 1677.96 914.606 1679.13 914.795Z" stroke="#8B8B8B" stroke-width="0.5" stroke-linecap="round" stroke-linejoin="round"/>
<path d="M1670.21 926.328L1683.9 928.561" stroke="#8B8B8B" stroke-width="0.5" stroke-linecap="round" stroke-linejoin="round"/>
<path d="M302.719 846.461L298.285 849.344L338.709 911.515L343.142 908.632L302.719 846.461Z" fill="#3C3C3C" stroke="#7C7C7C" stroke-width="0.5" stroke-linecap="round" stroke-linejoin="round"/>
<path d="M298.293 849.349C298.293 849.349 299.383 857.941 308.619 865.237L313.048 862.357C313.048 862.357 311.895 853.191 302.722 846.47L298.293 849.349Z" fill="#F8A5A2" stroke="#7C7C7C" stroke-width="0.5" stroke-linecap="round" stroke-linejoin="round"/>
<path d="M298.291 849.346C298.291 849.346 289.759 846.283 290.474 832.027C290.474 832.027 303.521 836.937 302.72 846.466L298.291 849.346Z" fill="#A4A4A4" stroke="#7C7C7C" stroke-width="0.5" stroke-linecap="round" stroke-linejoin="round"/>
<path d="M325.055 827.343L320.02 828.961L345.434 908.064L350.47 906.446L325.055 827.343Z" fill="#3C3C3C" stroke="#7C7C7C" stroke-width="0.5" stroke-linecap="round" stroke-linejoin="round"/>
<path d="M320.004 828.983C320.004 828.983 319.087 838.456 326.501 849.191L331.536 847.569C331.536 847.569 332.527 837.474 325.039 827.361L320.004 828.983Z" fill="#F8A5A2" stroke="#7C7C7C" stroke-width="0.5" stroke-linecap="round" stroke-linejoin="round"/>
<path d="M320.005 828.979C320.005 828.979 312.34 823.754 316.358 808.87C316.358 808.87 328.97 819.479 325.04 827.357L320.005 828.979Z" fill="#A4A4A4" stroke="#7C7C7C" stroke-width="0.5" stroke-linecap="round" stroke-linejoin="round"/>
<path d="M349.513 838.505L343.512 838.219L339.408 924.335L345.41 924.621L349.513 838.505Z" fill="#3C3C3C" stroke="#7C7C7C" stroke-width="0.5" stroke-linecap="round" stroke-linejoin="round"/>
<path d="M343.519 838.216C343.519 838.216 338.809 847.074 342.474 860.214L348.469 860.503C348.469 860.503 353.506 851.073 349.514 838.505L343.519 838.216Z" fill="#F8A5A2" stroke="#7C7C7C" stroke-width="0.5" stroke-linecap="round" stroke-linejoin="round"/>
<path d="M343.519 838.21C343.519 838.21 337.964 830.612 348.104 817.65C348.104 817.65 355.381 832.551 349.514 838.499L343.519 838.21Z" fill="#A4A4A4" stroke="#7C7C7C" stroke-width="0.5" stroke-linecap="round" stroke-linejoin="round"/>
<path d="M357.802 868.196L312.267 884.117C311.168 884.501 310.589 885.703 310.973 886.802L340.529 971.336C340.914 972.434 342.116 973.014 343.214 972.63L388.75 956.709C389.848 956.324 390.428 955.122 390.044 954.023L360.487 869.49C360.103 868.391 358.901 867.812 357.802 868.196Z" fill="#DFD3CC" stroke="#7C7C7C" stroke-width="0.5" stroke-linecap="round" stroke-linejoin="round"/>
<path d="M365.8 885.118L316.422 902.383L319.394 910.884L368.773 893.62L365.8 885.118Z" fill="#A4A4A4" stroke="#7C7C7C" stroke-width="0.5" stroke-linecap="round" stroke-linejoin="round"/>
<path d="M308.614 865.218L313.692 873.038L318.129 870.142L313.043 862.338L308.614 865.218Z" fill="white" stroke="#7C7C7C" stroke-width="0.5" stroke-linecap="round" stroke-linejoin="round"/>
<path d="M326.497 849.187L329.594 858.838L334.625 857.203L331.52 847.569L326.497 849.187Z" fill="white" stroke="#7C7C7C" stroke-width="0.5" stroke-linecap="round" stroke-linejoin="round"/>
<path d="M342.478 860.216L342.059 869.016L348.06 869.302L348.48 860.502L342.478 860.216Z" fill="white" stroke="#7C7C7C" stroke-width="0.5" stroke-linecap="round" stroke-linejoin="round"/>
<path d="M167.419 1043.67L156.595 1042.38C155.442 1042.25 154.394 1043.01 154.273 1044.09L152.561 1058.52L150.624 1074.91L148.687 1091.3L146.75 1107.7L144.813 1124.09L142.876 1140.48L140.939 1156.87L139.227 1171.31C139.092 1172.39 139.93 1173.37 141.096 1173.51L151.921 1174.79L240.235 1185.25C241.387 1185.39 242.436 1184.62 242.557 1183.55L257.623 1056.35C257.758 1055.27 256.92 1054.28 255.754 1054.15L167.419 1043.67Z" fill="#D4B4A1" stroke="#C6C6C6" stroke-width="0.5" stroke-linecap="round" stroke-linejoin="round"/>
<path d="M156.837 1141.21L168.377 1043.78L166.477 1043.56L164.64 1059.05L152.678 1057.63L152.459 1059.41L164.422 1060.84L162.69 1075.45L150.727 1074.03L150.522 1075.81L162.485 1077.23L160.75 1091.83L148.79 1090.42L148.582 1092.19L160.545 1093.61L158.813 1108.22L146.85 1106.8L146.645 1108.58L158.608 1110L156.876 1124.61L144.913 1123.19L144.694 1124.97L156.654 1126.38L154.936 1140.99L142.959 1139.57L142.755 1141.35L154.717 1142.77L152.985 1157.38L141.022 1155.96L140.818 1157.74L152.78 1159.16L150.944 1174.66L152.845 1174.88L154.706 1159.16L154.9 1157.6L156.84 1141.23L156.837 1141.21Z" fill="white" stroke="#C6C6C6" stroke-width="0.5" stroke-linecap="round" stroke-linejoin="round"/>
<path d="M243.041 1064.78L221.922 1062.28L214.913 1121.46L236.032 1123.96L243.041 1064.78Z" fill="white" stroke="#C6C6C6" stroke-width="0.5" stroke-linecap="round" stroke-linejoin="round"/>
<path d="M231.55 935H180.74C174.26 935 169 940.26 169 946.74V967.24C169 973.72 174.26 978.98 180.74 978.98H198.58C199.27 984.7 202.98 996.68 221.92 996.68C221.92 996.68 208.3 990.01 211.97 978.98H231.56C238.04 978.98 243.3 973.72 243.3 967.24V946.74C243.3 940.26 238.04 935 231.56 935H231.55Z" fill="white"/>
<path d="M183.563 960.958L181.253 959.868C181.253 959.868 181.153 959.848 181.103 959.868C181.053 959.888 181.023 959.928 181.003 959.978C180.323 962.238 179.553 964.128 178.713 965.578C177.873 967.028 177.053 968.238 176.293 969.158C176.263 969.198 176.243 969.248 176.253 969.298C176.263 969.348 176.293 969.388 176.333 969.418L179.113 971.038C179.113 971.038 179.173 971.058 179.203 971.058C179.263 971.058 179.323 971.028 179.353 970.978C180.183 969.648 180.953 968.188 181.623 966.648C182.303 965.108 182.983 963.268 183.643 961.168C183.673 961.088 183.633 960.998 183.553 960.958H183.563Z" fill="#4DCC80"/>
<path d="M177.932 954.55L178.662 954.79C179.632 955.11 180.502 955.64 181.252 956.34C181.282 956.37 181.332 956.39 181.372 956.39C181.382 956.39 181.392 956.39 181.402 956.39C181.452 956.39 181.502 956.34 181.532 956.29L182.682 953.95C182.722 953.87 182.692 953.78 182.622 953.73C182.472 953.62 181.942 953.28 180.992 952.68C180.042 952.08 179.152 951.68 178.352 951.49C178.272 951.47 178.192 951.51 178.152 951.58L176.962 954.01C176.962 954.01 176.942 954.11 176.962 954.15C176.982 954.2 177.022 954.23 177.072 954.25C177.112 954.27 177.402 954.36 177.942 954.54L177.932 954.55Z" fill="#4DCC80"/>
<path d="M179.77 947.848C180.45 948.178 181.18 948.618 181.94 949.178C181.97 949.198 182.01 949.208 182.04 949.208C182.05 949.208 182.07 949.208 182.08 949.208C182.13 949.198 182.17 949.168 182.2 949.118L183.45 946.838C183.49 946.758 183.47 946.658 183.4 946.608C182.46 945.958 181.66 945.478 181.02 945.158C180.38 944.848 179.7 944.558 178.99 944.308C178.91 944.278 178.81 944.308 178.77 944.398L177.61 946.798C177.61 946.798 177.59 946.898 177.61 946.948C177.63 946.998 177.67 947.028 177.72 947.048C178.39 947.248 179.08 947.518 179.77 947.848Z" fill="#4DCC80"/>
<path d="M205.082 962.749H195.322L195.432 961.849H203.552C203.652 961.849 203.732 961.769 203.732 961.669V959.449C203.732 959.349 203.652 959.269 203.552 959.269H195.552V958.219H202.622C202.722 958.219 202.802 958.139 202.802 958.039V952.669C202.802 952.569 202.722 952.489 202.622 952.489H195.552V951.499H199.652C199.752 951.499 199.832 951.419 199.832 951.319V947.869H204.902C205.002 947.869 205.082 947.789 205.082 947.689V945.539C205.082 945.439 205.002 945.359 204.902 945.359H199.882L200.052 943.459C200.052 943.459 200.042 943.369 200.012 943.329C199.982 943.289 199.942 943.269 199.892 943.269L196.642 943.049C196.592 943.039 196.542 943.059 196.512 943.099C196.472 943.129 196.462 943.179 196.462 943.229L196.572 945.359H191.512L191.682 943.429C191.682 943.429 191.672 943.329 191.642 943.299C191.612 943.259 191.562 943.239 191.522 943.239L188.372 943.079C188.372 943.079 188.272 943.099 188.242 943.129C188.212 943.159 188.192 943.209 188.192 943.259C188.192 943.299 188.232 943.959 188.252 944.349C188.282 944.829 188.302 945.169 188.312 945.369H183.872C183.772 945.369 183.692 945.449 183.692 945.549V947.699C183.692 947.799 183.772 947.879 183.872 947.879H188.352V951.329C188.352 951.429 188.432 951.509 188.532 951.509H192.472V952.499H185.562C185.462 952.499 185.382 952.579 185.382 952.679V958.049C185.382 958.149 185.462 958.229 185.562 958.229H192.472V959.279H185.032C184.932 959.279 184.852 959.359 184.852 959.459V961.649C184.852 961.749 184.932 961.829 185.032 961.829H192.372L192.192 962.759H183.782C183.682 962.759 183.602 962.839 183.602 962.939V965.159C183.602 965.259 183.682 965.339 183.782 965.339H190.912C189.642 966.549 188.072 967.399 186.252 967.879C183.842 968.519 183.232 968.659 183.162 968.669C183.092 968.669 183.032 968.709 183.002 968.769C182.972 968.829 182.982 968.899 183.022 968.959L184.962 971.269C184.962 971.269 185.042 971.329 185.092 971.329C185.142 971.329 185.272 971.329 187.832 970.759C189.522 970.379 191.622 968.879 194.052 966.279C196.092 968.299 198.082 969.679 199.962 970.369C202.512 971.319 202.882 971.469 202.922 971.489C202.952 971.499 202.972 971.509 203.002 971.509C203.062 971.509 203.112 971.479 203.152 971.429C203.172 971.399 203.332 971.189 204.132 970.159C204.962 969.089 205.092 968.909 205.122 968.869C205.152 968.819 205.162 968.759 205.142 968.709C205.122 968.659 205.072 968.619 205.012 968.609C201.972 968.009 199.852 967.279 198.702 966.429C197.952 965.869 197.512 965.539 197.252 965.339H205.102C205.202 965.339 205.282 965.259 205.282 965.159V962.939C205.282 962.839 205.202 962.759 205.102 962.759L205.082 962.749ZM195.552 955.789V954.949H199.792V955.789H195.552ZM196.642 947.959V949.009H191.592V947.959H196.642ZM192.492 954.949V955.789H188.562V954.949H192.492Z" fill="#4DCC80"/>
<path d="M234.244 945.867H222.434V944.917C222.434 944.447 222.464 944.027 222.514 943.657C222.594 943.107 222.594 943.067 222.594 943.037C222.594 942.947 222.524 942.867 222.434 942.867L219.154 942.617C219.104 942.617 219.054 942.627 219.024 942.667C218.984 942.697 218.964 942.747 218.964 942.797C218.964 942.817 218.984 943.057 219.014 943.527C219.044 943.987 219.074 944.417 219.094 944.827V945.867H208.344C208.244 945.867 208.164 945.947 208.164 946.047V953.067C208.164 953.167 208.244 953.247 208.344 953.247H211.314C211.414 953.247 211.494 953.167 211.494 953.067V948.587H231.124V953.067C231.124 953.167 231.204 953.247 231.304 953.247H234.274C234.374 953.247 234.454 953.167 234.454 953.067V946.047C234.454 945.947 234.374 945.867 234.274 945.867H234.244Z" fill="#4DCC80"/>
<path d="M233.922 959.788H222.422V959.008L229.332 952.808C229.582 952.558 229.682 952.208 229.632 951.758C229.602 951.478 229.442 951.008 228.682 951.008H213.452C213.352 951.008 213.272 951.088 213.272 951.188V953.588C213.272 953.688 213.352 953.768 213.452 953.768H223.802L220.432 956.628H219.342C219.242 956.628 219.162 956.708 219.162 956.808V959.788H208.692C208.592 959.788 208.512 959.868 208.512 959.968V962.338C208.512 962.438 208.592 962.518 208.692 962.518H219.162V967.058C219.162 967.378 219.152 967.698 219.132 968.018C219.132 968.118 219.112 968.318 218.622 968.288C218.422 968.288 217.942 968.248 217.152 968.178C215.982 968.068 215.902 968.068 215.872 968.068C215.822 968.068 215.762 968.098 215.732 968.138C215.702 968.178 215.692 968.238 215.702 968.288L216.482 971.158C216.502 971.238 216.572 971.288 216.652 971.288C216.682 971.288 216.882 971.288 218.132 971.348C218.302 971.348 218.462 971.358 218.622 971.358C219.352 971.358 220.002 971.278 220.542 971.118C221.392 970.868 221.922 970.428 222.122 969.798C222.312 969.208 222.412 968.548 222.412 967.828V962.508H233.912C234.012 962.508 234.092 962.428 234.092 962.328V959.958C234.092 959.858 234.012 959.778 233.912 959.778L233.922 959.788Z" fill="#4DCC80"/>
<path d="M1814.24 986.185L1809.52 985.472C1808.66 985.344 1807.79 985.586 1807.14 986.159C1806.47 986.72 1806.1 987.548 1806.1 988.414C1806.1 988.63 1806.1 988.694 1806.33 990.477C1806.45 991.407 1806.51 992.349 1806.51 993.279L1806.55 1010.57H1801.48V982.173C1801.48 981.995 1801.49 981.562 1801.6 980.657C1801.75 979.295 1801.75 979.256 1801.75 979.065C1801.75 977.473 1800.49 976.161 1798.9 976.098L1794.17 975.919C1793.35 975.868 1792.58 976.187 1792 976.747C1791.42 977.308 1791.1 978.085 1791.1 978.887C1791.1 979.053 1791.1 979.078 1791.27 980.912C1791.37 981.969 1791.41 982.899 1791.41 983.701V1010.57H1785.97V991.292C1785.97 990.872 1786.01 990.413 1786.07 989.955C1786.22 988.898 1786.24 988.796 1786.24 988.554C1786.24 986.975 1784.99 985.663 1783.41 985.586L1778.77 985.357C1777.97 985.319 1777.17 985.612 1776.58 986.172C1776 986.733 1775.66 987.509 1775.66 988.325C1775.66 988.49 1775.66 988.503 1775.83 990.439C1775.93 991.572 1775.98 992.629 1775.98 993.572V1017.03C1775.98 1018.68 1777.31 1020 1778.95 1020H1813.43C1815.07 1020 1816.39 1018.68 1816.39 1017.03V992.311C1816.39 991.878 1816.45 991.356 1816.53 990.757C1816.68 989.849 1816.75 989.305 1816.75 989.127C1816.75 987.662 1815.68 986.414 1814.23 986.198L1814.24 986.185Z" fill="#B9F8D2"/>
<path d="M1760.01 954H1733.53C1731.89 954 1730.56 955.325 1730.56 956.968V992.031C1730.56 993.674 1731.89 994.998 1733.53 994.998H1760.01C1761.65 994.998 1762.98 993.674 1762.98 992.031V956.968C1762.98 955.325 1761.65 954 1760.01 954ZM1740.9 969.233V963.705H1752.67V969.233H1740.9ZM1740.9 985.331V979.001H1752.67V985.331H1740.9Z" fill="#F8DBB9"/>
</svg>
