<svg width="1920" height="1330" viewBox="0 0 1920 1330" fill="none" xmlns="http://www.w3.org/2000/svg">
<mask id="mask0_1061_7738" style="mask-type:luminance" maskUnits="userSpaceOnUse" x="1525" y="1121" width="146" height="146">
<path d="M1597.74 1266.48C1637.91 1266.48 1670.48 1233.91 1670.48 1193.74C1670.48 1153.57 1637.91 1121 1597.74 1121C1557.57 1121 1525 1153.57 1525 1193.74C1525 1233.91 1557.57 1266.48 1597.74 1266.48Z" fill="white"/>
</mask>
<g mask="url(#mask0_1061_7738)">
<path d="M1597.74 1266.48C1637.91 1266.48 1670.48 1233.91 1670.48 1193.74C1670.48 1153.57 1637.91 1121 1597.74 1121C1557.57 1121 1525 1153.57 1525 1193.74C1525 1233.91 1557.57 1266.48 1597.74 1266.48Z" fill="#FFC6A3" stroke="#9D9D9D" stroke-width="2" stroke-linecap="round" stroke-linejoin="round"/>
<path d="M1525.21 1199.2C1525.21 1199.2 1563.63 1154.17 1594.03 1176.98C1624.43 1199.78 1592.81 1266.31 1592.81 1266.31" stroke="#9D9D9D" stroke-width="2" stroke-linecap="round" stroke-linejoin="round"/>
<path d="M1544.71 1243.52C1544.71 1243.52 1565.11 1171.96 1654.16 1147.84" stroke="#9D9D9D" stroke-width="2" stroke-linecap="round" stroke-linejoin="round"/>
<path d="M1630.16 1128.61C1630.16 1128.61 1607.22 1141.98 1622.53 1159.51C1639.11 1178.47 1667.56 1173.33 1667.56 1173.33" stroke="#9D9D9D" stroke-width="2" stroke-linecap="round" stroke-linejoin="round"/>
<path d="M1544.71 1143.95C1544.71 1143.95 1576.61 1136.06 1610.55 1165.89C1651.2 1201.61 1649.44 1244.9 1649.44 1244.9" stroke="#9D9D9D" stroke-width="2" stroke-linecap="round" stroke-linejoin="round"/>
</g>
<path d="M1597.74 1266.48C1637.91 1266.48 1670.48 1233.91 1670.48 1193.74C1670.48 1153.57 1637.91 1121 1597.74 1121C1557.57 1121 1525 1153.57 1525 1193.74C1525 1233.91 1557.57 1266.48 1597.74 1266.48Z" stroke="#9D9D9D" stroke-width="3" stroke-linecap="round" stroke-linejoin="round"/>
<path d="M295.668 872.258C303.688 874.228 310.228 877.018 315.408 879.908C312.358 872.738 310.818 865.748 310.088 859.738C308.338 862.278 306.268 864.628 303.888 866.728C301.358 868.958 298.608 870.798 295.678 872.268L295.668 872.258ZM229.838 782.768C248.898 765.958 281.018 771.108 301.428 794.258C314.278 808.828 319.478 827.118 316.808 842.858H316.848C316.808 843.128 312.968 869.938 330.168 891.238L330.148 891.258L325.088 895.718C325.088 895.718 325.008 895.788 324.978 895.838C321.838 892.418 307.298 878.408 278.288 876.598V876.578C262.418 877.158 245.068 869.718 232.298 855.238C211.888 832.088 210.788 799.588 229.848 782.768H229.838ZM237.458 850.668C255.358 870.968 283.108 875.838 299.318 861.548C315.528 847.258 314.158 819.118 296.258 798.818C278.358 778.518 250.608 773.648 234.398 787.938C218.188 802.228 219.558 830.368 237.458 850.668Z" fill="#E0E0E0"/>
<path d="M396.298 958.977L396.688 959.427C398.248 961.197 398.078 963.907 396.308 965.467L390.278 970.787C388.508 972.347 385.808 972.177 384.238 970.407L383.848 969.957C383.848 969.957 383.908 969.887 383.938 969.857L396.188 959.057C396.188 959.057 396.258 958.997 396.298 958.977Z" fill="#ABDBC4"/>
<path d="M383.638 944.617L396.298 958.977C396.298 958.977 396.228 959.027 396.188 959.057L383.938 969.857C383.938 969.857 383.868 969.917 383.848 969.957L376.578 961.717L383.628 944.627L383.638 944.617Z" fill="#E6B5B2"/>
<path d="M372.068 931.484L383.638 944.614L376.588 961.704L365.008 948.574L372.068 931.484Z" fill="#E6B5B2"/>
<path d="M360.857 918.789L372.067 931.489L365.007 948.579L353.797 935.879L360.857 918.789Z" fill="#E6B5B2"/>
<path d="M349.347 905.734L360.857 918.784L353.797 935.874L342.297 922.824L349.347 905.734Z" fill="#E6B5B2"/>
<path d="M343.387 898.977L349.348 905.737L342.298 922.827L330.938 909.947L343.387 898.977Z" fill="#E6B5B2"/>
<path d="M325.079 895.714L330.139 891.254L330.159 891.234C330.259 891.364 330.369 891.494 330.469 891.624C330.819 892.024 331.019 892.274 331.079 892.354L325.719 896.694L325.319 896.214C325.219 896.104 325.109 895.974 324.969 895.824C324.999 895.784 325.039 895.744 325.079 895.704V895.714Z" fill="#ABDBC4"/>
<path d="M325.318 896.22L325.718 896.7L331.078 892.36C331.008 892.28 330.818 892.02 330.468 891.63C330.358 891.5 330.258 891.37 330.158 891.24C330.708 890.77 331.518 890.73 332.128 891.15L343.398 898.98L330.948 909.96L324.718 897.66C324.418 897.06 324.518 896.33 324.978 895.84C325.118 895.99 325.238 896.12 325.328 896.23L325.318 896.22Z" fill="#ABDBC4"/>
<path d="M400.071 963.439L387.821 974.239C387.401 974.609 386.771 974.569 386.401 974.159L383.861 971.279C383.521 970.899 383.531 970.329 383.861 969.959L384.251 970.409C385.811 972.179 388.521 972.349 390.291 970.789L396.321 965.469C398.091 963.909 398.261 961.209 396.701 959.429L396.311 958.979C396.721 958.699 397.291 958.759 397.621 959.139L400.161 962.019C400.531 962.439 400.491 963.069 400.071 963.439Z" fill="#ABDBC4"/>
<path d="M330.159 891.238C312.959 869.938 316.799 843.128 316.839 842.858H316.799C319.469 827.108 314.269 808.828 301.419 794.258C281.009 771.108 248.889 765.958 229.829 782.768C210.769 799.578 211.869 832.088 232.279 855.238C245.049 869.718 262.399 877.158 278.269 876.578V876.598C307.279 878.418 321.819 892.418 324.959 895.838" stroke="#666666" stroke-width="2" stroke-miterlimit="10"/>
<path d="M299.314 861.535C315.551 847.215 314.182 819.13 296.257 798.805C278.331 778.479 250.637 773.611 234.4 787.931C218.163 802.251 219.531 830.336 237.457 850.662C255.382 870.987 283.077 875.855 299.314 861.535Z" stroke="#666666" stroke-width="2" stroke-miterlimit="10"/>
<path d="M315.396 879.899C310.216 877.019 303.676 874.219 295.656 872.249C298.586 870.779 301.346 868.939 303.866 866.709C306.246 864.609 308.316 862.259 310.066 859.719C310.796 865.729 312.336 872.729 315.386 879.889L315.396 879.899Z" stroke="#666666" stroke-width="2" stroke-miterlimit="10"/>
<path d="M343.391 898.977L349.351 905.737L360.861 918.787L372.071 931.487L383.641 944.617L396.301 958.977" stroke="#666666" stroke-width="2" stroke-linecap="round" stroke-linejoin="round"/>
<path d="M383.857 969.945L376.587 961.705L365.007 948.575L353.798 935.875L342.298 922.825L330.938 909.945" stroke="#666666" stroke-width="2" stroke-linecap="round" stroke-linejoin="round"/>
<path d="M330.94 909.944L324.71 897.644C324.41 897.044 324.51 896.314 324.97 895.824C325 895.784 325.04 895.744 325.08 895.704L330.14 891.244L330.16 891.224C330.71 890.754 331.52 890.714 332.13 891.134L343.4 898.964L330.95 909.944H330.94Z" stroke="#666666" stroke-width="2" stroke-linecap="round" stroke-linejoin="round"/>
<path d="M342.297 922.824L349.347 905.734" stroke="#666666" stroke-width="2" stroke-linecap="round" stroke-linejoin="round"/>
<path d="M353.797 935.879L360.857 918.789" stroke="#666666" stroke-width="2" stroke-linecap="round" stroke-linejoin="round"/>
<path d="M365.008 948.574L372.068 931.484" stroke="#666666" stroke-width="2" stroke-linecap="round" stroke-linejoin="round"/>
<path d="M376.586 961.707L383.636 944.617" stroke="#666666" stroke-width="2" stroke-linecap="round" stroke-linejoin="round"/>
<path d="M396.299 958.979C396.709 958.699 397.279 958.759 397.609 959.139L400.149 962.019C400.519 962.439 400.479 963.069 400.059 963.439L387.809 974.239C387.389 974.609 386.759 974.569 386.389 974.159L383.849 971.279C383.509 970.899 383.519 970.329 383.849 969.959C383.869 969.919 383.909 969.889 383.939 969.859L396.189 959.059C396.189 959.059 396.259 958.999 396.299 958.979Z" stroke="#666666" stroke-width="2" stroke-linecap="round" stroke-linejoin="round"/>
<g filter="url(#filter0_d_1061_7738)">
<path d="M1702.23 994.574C1700.98 999.635 1701.2 1013.8 1673.92 1045.13C1671.77 1047.61 1668.08 1048.04 1665.21 1046.46L1654.57 1040.59C1651.6 1038.96 1650.17 1035.47 1651.12 1032.21C1653.6 1023.78 1658.9 1007.52 1665.96 995.415C1674.37 981.019 1684.83 975.539 1690.51 969.705L1704.87 977.442C1703.39 983.717 1702.95 991.689 1702.23 994.574Z" fill="white"/>
<path d="M1716.75 957.774C1715.57 960.074 1712.07 964.363 1709.45 967.916L1695.86 960.593C1697.76 955.624 1698.35 951.408 1699.96 948.48C1701.66 945.406 1707.06 937.857 1714.04 941.885C1716.45 943.28 1718.19 944.875 1718.75 946.936C1719.61 950.046 1718.24 954.931 1716.76 957.787L1716.75 957.774Z" fill="white"/>
<path d="M1704.85 977.448L1690.5 969.71C1691.42 968.754 1692.22 967.794 1692.85 966.786L1705.92 973.831C1705.52 974.917 1705.16 976.145 1704.85 977.448Z" fill="#FFD0B2"/>
<path d="M1695.85 960.588L1709.44 967.91C1708.61 969.026 1707.86 970.063 1707.31 970.945L1694.37 963.976C1694.94 962.813 1695.42 961.681 1695.84 960.575L1695.85 960.588Z" fill="#FFD0B2"/>
<path d="M1693.1 966.384C1693.58 965.569 1694 964.769 1694.38 963.986L1707.32 970.956C1707.18 971.173 1707.06 971.382 1706.94 971.58C1706.56 972.228 1706.23 972.984 1705.93 973.824L1692.85 966.779C1692.94 966.655 1693.01 966.519 1693.1 966.384Z" fill="white"/>
</g>
<g filter="url(#filter1_d_1061_7738)">
<path d="M1630.62 931.842C1632.33 936.759 1640.27 948.506 1634.57 989.656C1634.12 992.908 1631.26 995.284 1627.99 995.532L1615.87 996.442C1612.48 996.695 1609.38 994.567 1608.4 991.314C1605.86 982.896 1601.4 966.383 1600.7 952.397C1599.87 935.745 1605.64 925.431 1607.2 917.437L1623.45 916.064C1625.65 922.126 1629.64 929.042 1630.62 931.842Z" fill="white"/>
<path d="M1622.65 893.101C1622.93 895.676 1622.35 901.173 1622.08 905.582L1606.7 906.876C1605.57 901.68 1603.74 897.821 1603.5 894.494C1603.23 890.992 1603.63 881.723 1611.68 881.275C1614.46 881.128 1616.78 881.504 1618.38 882.92C1620.79 885.063 1622.32 889.898 1622.65 893.101Z" fill="white"/>
<path d="M1623.45 916.061L1607.2 917.435C1607.45 916.136 1607.59 914.9 1607.57 913.708L1622.37 912.456C1622.62 913.588 1623 914.808 1623.45 916.061Z" fill="#FFD0B2"/>
<path d="M1606.68 906.879L1622.07 905.585C1621.98 906.965 1621.94 908.248 1621.95 909.291L1607.31 910.532C1607.15 909.243 1606.93 908.034 1606.67 906.888L1606.68 906.879Z" fill="#FFD0B2"/>
<path d="M1607.56 913.234C1607.51 912.289 1607.43 911.395 1607.32 910.519L1621.96 909.277C1621.97 909.539 1621.98 909.789 1621.98 910.004C1622.02 910.757 1622.15 911.568 1622.36 912.446L1607.56 913.699C1607.57 913.542 1607.55 913.391 1607.55 913.233L1607.56 913.234Z" fill="white"/>
</g>
<path d="M89.6204 1127.83C89.6204 1127.83 96.5298 1108.18 105.147 1110.84C113.76 1113.51 117.512 1139.61 131.874 1130.55C146.237 1121.49 162.044 1090.36 154.35 1069.3C146.66 1048.22 131.901 1058.39 134.187 1069.14C136.473 1079.89 152.856 1083.64 157.889 1068.88C162.926 1054.11 156.126 1026.14 178.284 1008.72C200.441 991.295 209.963 1004.58 210.359 1032.99C210.758 1061.39 228.857 1072.48 244.48 1059.88C260.103 1047.27 262.859 1053.82 280.36 1060.77" stroke="#7A7A7A" stroke-width="2" stroke-miterlimit="10"/>
<path d="M92.9341 1135.71L91.046 1140.14L78.2046 1139.72L81.8135 1131.31L92.9341 1135.71Z" fill="#C0E15C"/>
<path d="M91.0469 1140.14L87.3896 1148.66L74.558 1148.25L78.2054 1139.72L91.0469 1140.14Z" fill="white"/>
<path d="M87.3906 1148.67L83.8398 1156.97L70.9951 1156.56L74.5589 1148.26L87.3906 1148.67Z" fill="#C0E15C"/>
<path d="M83.8379 1156.97L80.1516 1165.55L67.3167 1165.15L70.9932 1156.56L83.8379 1156.97Z" fill="white"/>
<path d="M80.1507 1165.55L76.1261 1174.93C76.1261 1174.93 76.0707 1174.91 76.0413 1174.9L65.0935 1170.56C65.0935 1170.56 65.0348 1170.54 65.0055 1170.53L67.3093 1165.14L80.1441 1165.54L80.1507 1165.55Z" fill="#C0E15C"/>
<path d="M93.545 1128.31L92.9325 1135.71L81.8119 1131.31L86.943 1125.68C87.1956 1125.41 87.677 1125.33 88.13 1125.47C88.0946 1125.57 88.0559 1125.66 88.0334 1125.73C87.9818 1125.82 87.9367 1125.92 87.8948 1126.02L92.4468 1127.99C92.4661 1127.93 92.5468 1127.79 92.6629 1127.53C92.6918 1127.44 92.75 1127.36 92.7855 1127.29C93.2647 1127.48 93.5823 1127.9 93.558 1128.3L93.545 1128.31Z" fill="#BCBCBC"/>
<path d="M92.7513 1127.3L92.7708 1127.31C92.7256 1127.38 92.6869 1127.46 92.6482 1127.55C92.5321 1127.8 92.4612 1127.95 92.4321 1128.01L87.8801 1126.03C87.9122 1125.94 87.9769 1125.84 88.0188 1125.74C88.0445 1125.67 88.0832 1125.58 88.1153 1125.48C88.1544 1125.5 88.1935 1125.51 88.2326 1125.52L92.7448 1127.32L92.7513 1127.3Z" fill="#BCBCBC"/>
<path d="M66.8568 1174.06C65.2755 1173.43 64.3872 1171.98 64.8867 1170.83L65.0124 1170.54C65.0124 1170.54 65.0711 1170.56 65.1004 1170.57L76.0483 1174.9C76.0483 1174.9 76.107 1174.92 76.1331 1174.94L76.0139 1175.24C75.5145 1176.4 73.8271 1176.82 72.2427 1176.2L66.8568 1174.06Z" fill="#BCBCBC"/>
<path d="M64.888 1170.83C64.3885 1171.98 65.267 1173.43 66.858 1174.06L72.244 1176.2C73.8252 1176.83 75.5157 1176.4 76.0152 1175.24L76.1344 1174.94C76.4475 1175.11 76.6279 1175.42 76.515 1175.66L75.7029 1177.54C75.5902 1177.82 75.1903 1177.92 74.8154 1177.77L63.8708 1173.43C63.4958 1173.28 63.2926 1172.95 63.4053 1172.67L64.2076 1170.79C64.3205 1170.54 64.6585 1170.44 65.0039 1170.54L64.8782 1170.82L64.888 1170.83Z" fill="#BCBCBC"/>
<path d="M92.9321 1135.71L91.044 1140.14L87.3868 1148.67L83.836 1156.97L80.1497 1165.55L76.1317 1174.95" stroke="#666666" stroke-linecap="round" stroke-linejoin="round"/>
<path d="M65.0178 1170.53L67.3183 1165.14L70.9948 1156.56L74.5586 1148.25L78.2061 1139.72L81.815 1131.31" stroke="#666666" stroke-linecap="round" stroke-linejoin="round"/>
<path d="M81.8119 1131.31L86.943 1125.68C87.1956 1125.41 87.677 1125.33 88.13 1125.47C88.1691 1125.48 88.2082 1125.49 88.2473 1125.51L92.7595 1127.3L92.7791 1127.31C93.2583 1127.5 93.5758 1127.92 93.5515 1128.32L92.9391 1135.72L81.8184 1131.32L81.8119 1131.31Z" stroke="#666666" stroke-linecap="round" stroke-linejoin="round"/>
<path d="M78.2045 1139.72L91.0459 1140.14" stroke="#666666" stroke-linecap="round" stroke-linejoin="round"/>
<path d="M74.556 1148.25L87.3877 1148.66" stroke="#666666" stroke-linecap="round" stroke-linejoin="round"/>
<path d="M70.9942 1156.56L83.8389 1156.96" stroke="#666666" stroke-linecap="round" stroke-linejoin="round"/>
<path d="M67.3184 1165.14L80.1533 1165.55" stroke="#666666" stroke-linecap="round" stroke-linejoin="round"/>
<path d="M76.1344 1174.94C76.4475 1175.11 76.6279 1175.42 76.515 1175.66L75.7029 1177.54C75.5902 1177.82 75.1903 1177.92 74.8154 1177.77L63.8708 1173.43C63.4958 1173.28 63.2926 1172.95 63.4053 1172.67L64.2076 1170.79C64.3205 1170.54 64.6585 1170.44 65.0039 1170.54C65.0333 1170.55 65.0626 1170.56 65.0919 1170.57L76.0398 1174.9C76.0398 1174.9 76.0985 1174.92 76.1246 1174.94L76.1344 1174.94Z" stroke="#666666" stroke-linecap="round" stroke-linejoin="round"/>
<path d="M286.481 1057.82L290.635 1060.24L288.655 1072.93L280.746 1068.32L286.481 1057.82Z" fill="#C0E15C"/>
<path d="M290.637 1060.24L298.657 1064.91L296.674 1077.61L288.657 1072.93L290.637 1060.24Z" fill="white"/>
<path d="M298.656 1064.91L306.458 1069.46L304.475 1082.15L296.674 1077.61L298.656 1064.91Z" fill="#C0E15C"/>
<path d="M306.457 1069.46L314.529 1074.17L312.55 1086.86L304.474 1082.16L306.457 1069.46Z" fill="white"/>
<path d="M314.531 1074.17L323.351 1079.31C323.351 1079.31 323.315 1079.35 323.302 1079.39L317.655 1089.72C317.655 1089.72 317.635 1089.78 317.626 1089.81L312.562 1086.86L314.541 1074.17L314.531 1074.17Z" fill="#C0E15C"/>
<path d="M279.213 1056.3L286.48 1057.82L280.745 1068.32L275.796 1062.55C275.554 1062.26 275.529 1061.78 275.726 1061.34C275.827 1061.4 275.899 1061.44 275.974 1061.48C276.062 1061.54 276.16 1061.61 276.251 1061.66L278.771 1057.38C278.719 1057.34 278.575 1057.25 278.34 1057.11C278.259 1057.06 278.19 1057.01 278.119 1056.96C278.377 1056.51 278.822 1056.24 279.219 1056.32L279.213 1056.3Z" fill="#BCBCBC"/>
<path d="M278.108 1056.96L278.114 1056.94C278.183 1056.99 278.265 1057.04 278.336 1057.09C278.571 1057.23 278.712 1057.33 278.767 1057.36L276.247 1061.63C276.156 1061.58 276.058 1061.52 275.97 1061.45C275.895 1061.42 275.823 1061.37 275.722 1061.32C275.734 1061.28 275.747 1061.24 275.77 1061.21L278.101 1056.94L278.108 1056.96Z" fill="#BCBCBC"/>
<path d="M321.337 1088.41C320.52 1089.9 318.97 1090.6 317.88 1089.96L317.609 1089.79C317.609 1089.79 317.629 1089.73 317.638 1089.7L323.286 1079.37C323.286 1079.37 323.315 1079.32 323.335 1079.29L323.618 1079.45C324.708 1080.09 324.921 1081.82 324.107 1083.3L321.33 1088.39L321.337 1088.41Z" fill="#BCBCBC"/>
<path d="M317.887 1089.98C318.977 1090.62 320.52 1089.91 321.344 1088.43L324.121 1083.34C324.938 1081.84 324.722 1080.12 323.632 1079.48L323.348 1079.32C323.552 1079.03 323.88 1078.89 324.115 1079.03L325.887 1080.07C326.141 1080.22 326.192 1080.63 326.001 1080.98L320.344 1091.31C320.153 1091.65 319.796 1091.82 319.542 1091.67L317.767 1090.64C317.532 1090.5 317.475 1090.15 317.617 1089.81L317.887 1089.98Z" fill="#BCBCBC"/>
<path d="M286.484 1057.82L290.638 1060.25L298.658 1064.92L306.46 1069.46L314.532 1074.17L323.352 1079.31" stroke="#666666" stroke-linecap="round" stroke-linejoin="round"/>
<path d="M317.617 1089.81L312.553 1086.85L304.478 1082.15L296.676 1077.61L288.659 1072.93L280.75 1068.31" stroke="#666666" stroke-linecap="round" stroke-linejoin="round"/>
<path d="M280.749 1068.32L275.8 1062.54C275.558 1062.25 275.533 1061.77 275.73 1061.34C275.742 1061.3 275.755 1061.26 275.778 1061.22L278.109 1056.96L278.116 1056.94C278.374 1056.48 278.819 1056.22 279.216 1056.3L286.484 1057.82L280.749 1068.32Z" stroke="#666666" stroke-linecap="round" stroke-linejoin="round"/>
<path d="M288.657 1072.93L290.637 1060.24" stroke="#666666" stroke-linecap="round" stroke-linejoin="round"/>
<path d="M296.674 1077.61L298.656 1064.91" stroke="#666666" stroke-linecap="round" stroke-linejoin="round"/>
<path d="M304.478 1082.16L306.461 1069.46" stroke="#666666" stroke-linecap="round" stroke-linejoin="round"/>
<path d="M312.552 1086.86L314.531 1074.17" stroke="#666666" stroke-linecap="round" stroke-linejoin="round"/>
<path d="M323.352 1079.31C323.556 1079.02 323.884 1078.88 324.119 1079.02L325.891 1080.06C326.145 1080.21 326.196 1080.61 326.005 1080.96L320.348 1091.29C320.157 1091.64 319.8 1091.8 319.545 1091.65L317.77 1090.63C317.536 1090.48 317.479 1090.13 317.62 1089.8C317.63 1089.77 317.64 1089.74 317.649 1089.71L323.297 1079.38C323.297 1079.38 323.326 1079.32 323.346 1079.3L323.352 1079.31Z" stroke="#666666" stroke-linecap="round" stroke-linejoin="round"/>
<path d="M283.47 1170.94C291.462 1170.94 297.94 1164.46 297.94 1156.47C297.94 1148.48 291.462 1142 283.47 1142C275.478 1142 269 1148.48 269 1156.47C269 1164.46 275.478 1170.94 283.47 1170.94Z" fill="white"/>
<mask id="mask1_1061_7738" style="mask-type:luminance" maskUnits="userSpaceOnUse" x="269" y="1142" width="29" height="29">
<path d="M283.47 1170.94C291.462 1170.94 297.94 1164.46 297.94 1156.47C297.94 1148.48 291.462 1142 283.47 1142C275.478 1142 269 1148.48 269 1156.47C269 1164.46 275.478 1170.94 283.47 1170.94Z" fill="white"/>
</mask>
<g mask="url(#mask1_1061_7738)">
<path d="M296.841 1150.11C292.661 1148.38 285.811 1146.43 282.411 1150.44C278.451 1155.11 283.891 1165.95 286.491 1170.52" stroke="#F95E3A" stroke-width="1.5" stroke-linecap="round" stroke-linejoin="round"/>
<path d="M287.219 1171.76C287.549 1172.3 287.739 1172.61 287.739 1172.61" stroke="#F95E3A" stroke-width="1.5" stroke-linecap="round" stroke-linejoin="round"/>
<path d="M275.992 1142C275.992 1142 276.282 1142.3 276.582 1142.8" stroke="#F95E3A" stroke-width="1.5" stroke-linecap="round" stroke-linejoin="round"/>
<path d="M277.278 1145.78C277.158 1146.52 276.778 1147.31 275.988 1148.08C274.388 1149.65 272.238 1150.5 270.578 1150.96" stroke="#F95E3A" stroke-width="1.5" stroke-linecap="round" stroke-linejoin="round"/>
<path d="M269.06 1151.3C268.45 1151.41 268.07 1151.44 268.07 1151.44" stroke="#F95E3A" stroke-width="1.5" stroke-linecap="round" stroke-linejoin="round"/>
</g>
<path d="M1806.47 912.94C1814.46 912.94 1820.94 906.462 1820.94 898.47C1820.94 890.478 1814.46 884 1806.47 884C1798.48 884 1792 890.478 1792 898.47C1792 906.462 1798.48 912.94 1806.47 912.94Z" fill="#C0E15C"/>
<mask id="mask2_1061_7738" style="mask-type:luminance" maskUnits="userSpaceOnUse" x="1792" y="884" width="29" height="29">
<path d="M1806.47 912.94C1814.46 912.94 1820.94 906.462 1820.94 898.47C1820.94 890.478 1814.46 884 1806.47 884C1798.48 884 1792 890.478 1792 898.47C1792 906.462 1798.48 912.94 1806.47 912.94Z" fill="white"/>
</mask>
<g mask="url(#mask2_1061_7738)">
<path d="M1789.62 893.777C1789.62 893.777 1802.45 886.447 1807.54 892.447C1812.63 898.447 1802.21 914.617 1802.21 914.617" stroke="white" stroke-width="2" stroke-linecap="round" stroke-linejoin="round"/>
<path d="M1813.95 884C1813.95 884 1810.95 887.14 1813.95 890.08C1816.95 893.02 1821.87 893.44 1821.87 893.44" stroke="white" stroke-width="2" stroke-linecap="round" stroke-linejoin="round"/>
</g>
<defs>
<filter id="filter0_d_1061_7738" x="1648.83" y="938.729" width="72.1914" height="110.658" filterUnits="userSpaceOnUse" color-interpolation-filters="sRGB">
<feFlood flood-opacity="0" result="BackgroundImageFix"/>
<feColorMatrix in="SourceAlpha" type="matrix" values="0 0 0 0 0 0 0 0 0 0 0 0 0 0 0 0 0 0 127 0" result="hardAlpha"/>
<feOffset/>
<feGaussianBlur stdDeviation="1"/>
<feComposite in2="hardAlpha" operator="out"/>
<feColorMatrix type="matrix" values="0 0 0 0 0 0 0 0 0 0 0 0 0 0 0 0 0 0 0.6 0"/>
<feBlend mode="normal" in2="BackgroundImageFix" result="effect1_dropShadow_1061_7738"/>
<feBlend mode="normal" in="SourceGraphic" in2="effect1_dropShadow_1061_7738" result="shape"/>
</filter>
<filter id="filter1_d_1061_7738" x="1598.62" y="879.245" width="39.9844" height="119.217" filterUnits="userSpaceOnUse" color-interpolation-filters="sRGB">
<feFlood flood-opacity="0" result="BackgroundImageFix"/>
<feColorMatrix in="SourceAlpha" type="matrix" values="0 0 0 0 0 0 0 0 0 0 0 0 0 0 0 0 0 0 127 0" result="hardAlpha"/>
<feOffset/>
<feGaussianBlur stdDeviation="1"/>
<feComposite in2="hardAlpha" operator="out"/>
<feColorMatrix type="matrix" values="0 0 0 0 0 0 0 0 0 0 0 0 0 0 0 0 0 0 0.6 0"/>
<feBlend mode="normal" in2="BackgroundImageFix" result="effect1_dropShadow_1061_7738"/>
<feBlend mode="normal" in="SourceGraphic" in2="effect1_dropShadow_1061_7738" result="shape"/>
</filter>
</defs>
</svg>
