<svg width="1920" height="1004" viewBox="0 0 1920 1004" fill="none" xmlns="http://www.w3.org/2000/svg">
<g opacity="0.6">
<path d="M115.917 690.092C116.267 689.36 116.893 688.642 116.925 687.896C117.293 679.661 116.319 671.588 113.762 663.73C113.414 662.665 113.119 661.581 112.796 660.504C110.331 661.637 107.884 662.807 105.396 663.884C104.386 664.32 103.119 664.909 102.581 663.303C102.076 661.794 103.135 661.118 104.381 660.683C106.797 659.839 109.213 658.993 111.629 658.148C109.529 649.547 105.365 642.1 99.1373 635.807C96.7662 637.284 94.4528 638.871 91.988 640.165C91.3316 640.51 90.2065 639.962 89.2959 639.825C89.6998 639.058 89.909 637.996 90.5419 637.58C92.8102 636.085 95.2227 634.81 97.5812 633.452C96.8059 632.106 96.2649 630.531 95.2173 629.45C89.7701 623.826 84.4293 618.061 78.5855 612.872C74.13 608.916 68.7657 606.177 63.0517 604.192C56.6398 601.965 50.4119 599.163 43.9189 597.235C38.8233 595.722 33.4662 595.034 28.1867 594.235C25.8625 593.883 23.4428 594.146 21.0681 594.193C20.7417 594.201 20.4225 594.567 20.0998 594.765C20.7363 597.479 21.4053 600.185 21.9913 602.91C22.2419 604.078 22.4366 605.286 22.4222 606.473C22.415 606.961 21.8831 607.628 21.4143 607.859C21.1113 608.009 20.2567 607.643 20.0583 607.282C19.5751 606.4 19.1351 605.412 19.0215 604.426C18.6555 601.218 18.4427 597.992 18.1705 594.774C16.7262 594.601 15.2098 594.06 13.8484 594.32C8.77627 595.29 3.71314 596.381 -1.26704 597.74C-2.83936 598.169 -4.14302 599.579 -5.57108 600.54C-4.93459 602.004 -4.32512 603.483 -3.65617 604.933C-2.51299 607.414 -1.29048 609.859 -0.203209 612.363C0.00415039 612.841 -0.0860138 613.909 -0.354675 614.035C-0.895607 614.291 -1.77914 614.309 -2.29302 614.02C-2.95116 613.649 -3.5642 612.962 -3.88515 612.266C-5.46288 608.849 -6.93963 605.385 -8.45063 601.938C-10.5567 603.146 -12.7853 604.186 -14.7453 605.6C-18.8816 608.582 -22.9026 611.73 -26.9091 614.889C-27.5384 615.385 -27.8431 616.29 -28.2993 617.004C-24.6047 619.367 -22.6177 623.128 -20.4521 626.72C-20.2898 626.988 -20.8308 628.085 -21.186 628.166C-21.7468 628.292 -22.697 628.086 -23.0162 627.666C-25.3278 624.632 -27.5221 621.509 -29.7526 618.413C-31.3177 619.599 -33.238 620.524 -34.3451 622.044C-35.445 623.555 -36.2528 623.537 -37.414 622.601C-41.0941 619.637 -44.6048 616.438 -48.4436 613.699C-50.2485 612.412 -52.6088 611.584 -54.8122 611.303C-55.9319 611.161 -57.5024 612.468 -58.4617 613.501C-62.0985 617.417 -65.584 621.478 -69.1 625.506C-72.4682 629.363 -72.3997 633.061 -68.8494 636.714C-67.0336 638.58 -65.1097 640.34 -63.2345 642.149C-61.5161 639.424 -59.8248 636.68 -58.0343 634.004C-57.8396 633.714 -56.8479 633.571 -56.5955 633.79C-56.1141 634.204 -55.6326 634.924 -55.6218 635.524C-55.5893 637.392 -60.2395 642.598 -62.2518 643.139C-60.364 645.254 -58.523 647.416 -56.5738 649.473C-54.5561 651.603 -52.4555 653.656 -50.3405 655.69C-49.731 656.276 -48.9503 656.686 -48.2471 657.174C-46.6279 654.655 -45.0718 652.093 -43.3408 649.655C-42.9459 649.1 -41.9398 648.979 -41.2149 648.658C-41.0364 649.52 -40.4035 650.726 -40.7533 651.184C-42.625 653.644 -44.7436 655.916 -46.7757 658.254C-45.5496 659.666 -44.356 661.11 -43.0902 662.486C-40.3404 665.476 -37.5618 668.436 -34.776 671.392C-34.4731 671.713 -34.044 671.918 -33.6743 672.176C-33.6221 671.696 -33.7519 671.054 -33.4904 670.766C-31.6044 668.698 -29.6841 666.653 -27.6484 664.735C-27.3544 664.457 -25.9715 664.709 -25.8164 665.048C-25.5333 665.663 -25.4846 666.832 -25.8831 667.237C-27.8918 669.287 -30.0735 671.168 -32.1958 673.108C-31.0779 674.639 -30.106 676.307 -28.8132 677.672C-25.9011 680.746 -22.8178 683.656 -19.8246 686.655C-13.7482 692.744 -7.72398 698.884 -1.60783 704.933C5.64788 712.108 13.01 719.176 20.2639 726.352C27.534 733.543 34.7591 740.781 41.9481 748.053C46.3585 752.514 50.5994 757.14 55.0332 761.576C58.7711 765.316 62.6748 768.888 66.5064 772.534C66.5695 772.474 66.6344 772.414 66.6957 772.353C66.3946 768.911 69.5807 767.84 71.254 765.754C71.5768 765.352 72.8209 765.076 72.9742 765.269C73.3979 765.806 73.8757 766.982 73.6197 767.267C71.7517 769.347 69.7087 771.271 67.7217 773.246C67.6514 773.323 67.5811 773.399 67.5108 773.477C68.1959 774.438 68.8018 775.465 69.5771 776.345C72.6911 779.874 75.8537 783.358 79.0182 786.839C79.1408 786.975 79.4762 786.915 79.7124 786.948C80.1487 785.925 80.4138 784.775 81.0629 783.911C82.161 782.449 83.4088 781.062 84.7791 779.854C85.4733 779.241 86.575 779.09 87.491 778.729C87.3846 779.831 87.6389 781.179 87.0907 781.98C86.063 783.484 84.487 784.6 83.3006 786.012C82.262 787.249 81.1332 787.514 79.7088 786.944C81.932 790.238 83.8541 793.94 88.5819 794.054C89.3825 794.073 90.2822 793.817 90.9818 793.417C96.283 790.399 100.059 785.864 103.339 780.837C104.332 779.313 105.641 777.968 106.44 776.36C106.802 775.631 106.611 774.185 106.088 773.531C102.736 769.338 99.2473 765.254 95.751 761.179C94.0796 759.23 92.3828 757.286 90.5311 755.516C89.2905 754.329 89.5123 753.48 90.4012 752.245C92.5541 749.254 94.6097 746.188 96.6111 743.092C97.1106 742.319 97.2512 741.313 97.5578 740.415C95.2913 739.338 92.9797 738.341 90.7979 737.115C90.385 736.884 90.293 735.703 90.4301 735.04C90.4932 734.731 91.685 734.264 91.9862 734.457C94.2148 735.887 96.3479 737.465 98.5116 738.996C100.133 736.699 101.853 734.464 103.355 732.093C107.583 725.424 110.434 718.112 112.486 710.548C114.132 704.479 115.165 698.242 116.426 692.07C116.485 691.778 116.121 691.399 115.953 691.06C114.307 692.252 108.362 692.344 106.81 691.098C106.391 690.762 105.996 689.967 106.11 689.515C106.234 689.026 107.08 688.269 107.419 688.359C110.225 689.091 113.443 687.834 115.917 690.092ZM29.3191 689.96C27.9487 688.155 27.0237 686.713 25.8697 685.483C24.6653 684.201 23.221 683.148 21.9155 681.956C12.4294 673.296 2.95763 664.621 -6.52853 655.961C-8.84372 653.847 -8.82208 653.741 -6.75392 651.296C-2.44269 646.197 2.27605 641.559 7.77734 637.726C12.1751 634.661 16.6468 631.592 21.8975 630.427C26.5513 629.394 31.4756 628.42 36.1349 628.885C41.2683 629.397 46.3332 631.309 51.2467 633.106C56.5569 635.048 61.2359 638.205 65.3813 642.109C71.1368 647.531 75.3669 653.947 78.8523 661.051C81.9789 667.425 83.9605 673.932 84.029 681.004C84.0831 686.63 83.3457 692.106 81.7896 697.58C80.6807 701.482 78.4737 705.227 79.0615 709.554C79.1047 709.872 78.7766 710.476 78.4989 710.564C75.9349 711.379 75.6356 713.99 74.2904 715.759C72.0329 718.727 69.8115 721.722 67.3232 725.041C63.598 721.459 60.2749 718.372 57.0762 715.16C53.6827 711.752 50.4984 708.134 47.0599 704.776C43.6268 701.422 40.1522 698.069 36.3837 695.112C34 693.242 32.4096 690.048 29.3191 689.96ZM69.0037 621.058C70.4192 618.355 71.7102 615.688 73.2248 613.157C73.5422 612.627 74.6781 612.587 75.439 612.32C75.5328 613.211 75.9367 614.217 75.6572 614.967C74.9901 616.757 74.0344 618.447 73.1202 620.138C72.7073 620.903 72.2024 621.666 71.5732 622.246C71.2702 622.527 70.4967 622.572 70.0856 622.389C69.6619 622.201 69.4202 621.602 69.0037 621.058ZM44.8457 608.4C44.7321 608.373 44.6167 608.344 44.5031 608.317C45.0494 606.15 45.4695 603.937 46.2124 601.839C46.4613 601.135 47.5341 600.726 48.2301 600.181C48.5348 601.015 49.1912 601.898 49.0812 602.673C48.735 605.129 48.176 607.562 47.5233 609.958C47.3917 610.443 46.5262 610.951 45.9492 611.018C45.5309 611.067 44.8258 610.492 44.6275 610.032C44.4418 609.599 44.7537 608.952 44.8457 608.4ZM107.538 718.447C104.911 717.456 102.354 716.551 99.8658 715.485C99.4871 715.323 99.2202 714.396 99.2851 713.869C99.3284 713.516 100.136 712.908 100.448 712.991C103.142 713.703 105.823 714.484 108.449 715.415C108.896 715.573 109.397 716.633 109.262 717.099C109.112 717.614 108.257 717.925 107.538 718.447Z" fill="#D86D31"/>
<path d="M109.398 654.993C108.492 654.353 107.6 653.693 106.668 653.095C106.542 653.014 106.044 653.209 106.017 653.338C105.959 653.616 105.998 654.11 106.171 654.207C107.084 654.72 108.05 655.137 108.998 655.587C109.132 655.388 109.265 655.19 109.398 654.993Z" fill="#D86D31"/>
<path d="M-8.45051 601.932C-6.93951 605.38 -5.46276 608.844 -3.88504 612.261C-3.56409 612.957 -2.95104 613.643 -2.29291 614.015C-1.77902 614.305 -0.895488 614.287 -0.354555 614.029C-0.085892 613.903 0.00245965 612.836 -0.203095 612.358C-1.28857 609.853 -2.51288 607.408 -3.65605 604.927C-4.325 603.478 -4.93445 601.999 -5.57095 600.535C-7.24062 599.538 -7.88614 600.65 -8.45051 601.932Z" fill="#78BBA3"/>
<path d="M18.1733 594.771C18.4456 597.989 18.6565 601.215 19.0244 604.423C19.138 605.407 19.5761 606.397 20.0612 607.279C20.2595 607.64 21.1142 608.006 21.4171 607.856C21.8859 607.625 22.4178 606.958 22.425 606.469C22.4394 605.283 22.2465 604.075 21.9941 602.906C21.4081 600.182 20.7391 597.475 20.1026 594.762C19.4589 594.765 18.8152 594.767 18.1733 594.771Z" fill="#78BBA3"/>
<path d="M111.626 658.148C109.21 658.994 106.794 659.84 104.378 660.684C103.132 661.118 102.075 661.794 102.578 663.304C103.116 664.91 104.383 664.32 105.393 663.884C107.881 662.809 110.328 661.637 112.793 660.505C112.405 659.719 112.016 658.933 111.626 658.148Z" fill="#78BBA3"/>
<path d="M97.5826 633.449C95.2241 634.807 92.8116 636.084 90.5432 637.577C89.9103 637.993 89.7012 639.055 89.2973 639.821C90.2079 639.96 91.333 640.508 91.9893 640.162C94.456 638.868 96.7676 637.281 99.1387 635.804C98.9818 634.78 99.2667 633.464 97.5826 633.449Z" fill="#78BBA3"/>
<path d="M115.915 690.091C113.442 687.836 110.223 689.091 107.421 688.357C107.082 688.268 106.236 689.024 106.112 689.513C105.997 689.965 106.393 690.76 106.812 691.096C108.366 692.342 114.311 692.25 115.955 691.058C115.941 690.735 115.928 690.412 115.915 690.091Z" fill="#78BBA3"/>
<path d="M98.5137 738.994C96.3499 737.463 94.2169 735.885 91.9882 734.456C91.6871 734.263 90.497 734.728 90.4321 735.038C90.2951 735.702 90.3871 736.883 90.8 737.113C92.9835 738.339 95.2933 739.337 97.5598 740.413C97.879 739.937 98.1963 739.465 98.5137 738.994Z" fill="#78BBA3"/>
<path d="M69.0034 621.058C69.4199 621.603 69.6616 622.2 70.0853 622.391C70.4964 622.575 71.2681 622.53 71.5729 622.248C72.2021 621.666 72.707 620.905 73.1199 620.141C74.0323 618.449 74.988 616.76 75.6569 614.969C75.9364 614.219 75.5325 613.211 75.4387 612.322C74.6796 612.589 73.5419 612.629 73.2245 613.159C71.7099 615.69 70.4189 618.355 69.0034 621.058Z" fill="#78BBA3"/>
<path d="M44.8442 608.398C44.7522 608.95 44.4421 609.597 44.6278 610.03C44.8261 610.49 45.5311 611.065 45.9495 611.016C46.5265 610.95 47.3919 610.441 47.5236 609.956C48.1745 607.562 48.7353 605.127 49.0815 602.672C49.1915 601.896 48.5351 601.013 48.2304 600.18C47.5344 600.724 46.4615 601.134 46.2127 601.837C45.4698 603.936 45.0497 606.148 44.5034 608.315C44.6152 608.342 44.7288 608.371 44.8442 608.398Z" fill="#78BBA3"/>
<path d="M79.7139 786.94C81.1401 787.509 82.2671 787.246 83.3057 786.007C84.4921 784.594 86.068 783.479 87.0958 781.976C87.6421 781.175 87.3879 779.826 87.4961 778.725C86.5801 779.085 85.4784 779.237 84.7842 779.85C83.4138 781.058 82.1661 782.444 81.068 783.907C80.4207 784.77 80.1556 785.921 79.7175 786.943L79.7139 786.94Z" fill="#78BBA3"/>
<path d="M66.6974 772.348C67.0381 772.646 67.3789 772.945 67.7215 773.241C69.7103 771.267 71.7533 769.341 73.6195 767.26C73.8755 766.975 73.3977 765.799 72.974 765.262C72.8225 765.069 71.5766 765.345 71.2538 765.747C69.5823 767.833 66.398 768.906 66.6974 772.348Z" fill="#78BBA3"/>
<path d="M107.853 719.224C108.612 718.572 109.514 718.189 109.672 717.548C109.814 716.97 109.285 715.653 108.814 715.456C106.044 714.302 103.215 713.332 100.373 712.445C100.042 712.342 99.1913 713.097 99.1456 713.536C99.0772 714.19 99.3587 715.342 99.7582 715.543C102.384 716.867 105.081 717.992 107.853 719.224Z" fill="#78BBA3"/>
</g>
<g opacity="0.8">
<path d="M1708.46 903.647C1708.82 903.062 1709.2 902.488 1709.6 901.927C1709.79 901.649 1710 901.379 1710.2 901.103C1710.82 900.243 1708.68 902.929 1709.84 901.587C1710.74 900.543 1711.66 899.532 1712.67 898.595C1713.12 898.175 1713.58 897.768 1714.06 897.376C1714.31 897.168 1714.57 896.972 1714.82 896.762C1715.45 896.234 1713.16 897.974 1713.84 897.511C1714.01 897.396 1714.17 897.269 1714.34 897.152C1715.39 896.4 1716.49 895.713 1717.63 895.091C1718.19 894.783 1718.76 894.491 1719.34 894.215C1719.63 894.078 1719.93 893.954 1720.22 893.817C1721.06 893.415 1718.99 894.286 1719.06 894.294C1719.21 894.31 1719.49 894.121 1719.62 894.071C1720.85 893.609 1722.08 893.184 1723.35 892.851C1724.58 892.529 1725.81 892.319 1727.06 892.098C1723.95 892.649 1726.36 892.201 1727.18 892.136C1727.84 892.083 1728.5 892.05 1729.16 892.039C1730.44 892.016 1731.7 892.091 1732.98 892.202C1734.49 892.334 1731.2 891.928 1732.07 892.08C1732.34 892.126 1732.6 892.16 1732.87 892.205C1733.51 892.314 1734.14 892.444 1734.77 892.596C1736 892.889 1737.18 893.28 1738.37 893.714C1739.67 894.195 1737.67 893.504 1737.41 893.307C1737.63 893.473 1737.99 893.563 1738.24 893.682C1738.82 893.958 1739.39 894.255 1739.95 894.573C1740.48 894.874 1741 895.192 1741.51 895.529C1742.24 896.013 1744.04 897.64 1741.7 895.588C1742.64 896.409 1743.58 897.201 1744.43 898.119C1744.86 898.584 1745.25 899.079 1745.67 899.558C1746.23 900.211 1744.34 897.712 1745.2 898.952C1745.41 899.253 1745.62 899.549 1745.82 899.855C1746.59 901.01 1747.26 902.227 1747.83 903.485C1748.12 904.115 1748.5 905.409 1747.59 902.87C1747.69 903.162 1747.82 903.447 1747.92 903.738C1748.19 904.464 1748.43 905.199 1748.64 905.941C1748.85 906.668 1749.03 907.401 1749.19 908.139C1749.27 908.52 1749.34 908.901 1749.41 909.284C1749.48 909.646 1749.72 911.345 1749.51 909.771C1749.28 908.171 1749.5 909.824 1749.53 910.15C1749.57 910.514 1749.6 910.877 1749.63 911.24C1749.7 912.208 1749.74 913.18 1749.74 914.151C1749.76 916.009 1749.66 917.865 1749.47 919.713C1749.4 920.372 1749.08 922.131 1749.52 919.506C1749.43 920.007 1749.37 920.512 1749.29 921.013C1749.13 922.054 1748.93 923.09 1748.72 924.122C1748.24 926.418 1747.65 928.689 1746.96 930.932C1745.26 936.538 1743.34 942.047 1741.84 947.718C1735.42 972.082 1732.7 997.505 1723.75 1021.17C1723.64 1021.48 1723.23 1022.66 1723.67 1021.44C1724.07 1020.34 1723.77 1021.19 1723.62 1021.47C1723.37 1021.94 1723.14 1022.42 1722.87 1022.88C1722.31 1023.87 1721.68 1024.79 1721.04 1025.72C1720.32 1026.76 1722.29 1024.22 1721.04 1025.72C1720.74 1026.07 1720.44 1026.42 1720.12 1026.76C1719.36 1027.59 1718.56 1028.38 1717.72 1029.13C1717.32 1029.48 1716.91 1029.82 1716.5 1030.16C1715.55 1030.96 1718.06 1029.04 1716.48 1030.16C1715.57 1030.82 1714.62 1031.42 1713.64 1031.98C1712.78 1032.47 1711.9 1032.93 1711 1033.34C1709.25 1034.15 1712.17 1032.93 1711.01 1033.36C1710.39 1033.59 1709.78 1033.82 1709.16 1034.03C1708.23 1034.33 1707.29 1034.59 1706.34 1034.81C1705.83 1034.93 1705.32 1035.04 1704.81 1035.13C1704.56 1035.17 1704.3 1035.21 1704.05 1035.26C1703.14 1035.43 1705.96 1035.05 1704.69 1035.16C1702.63 1035.33 1700.66 1035.22 1698.6 1035.18C1701.06 1035.23 1699.54 1035.31 1698.77 1035.17C1698.28 1035.08 1697.79 1034.97 1697.3 1034.85C1696.26 1034.6 1695.26 1034.24 1694.25 1033.88C1693.35 1033.57 1695.96 1034.67 1695.11 1034.24C1694.88 1034.12 1694.65 1034.02 1694.42 1033.91C1693.96 1033.69 1693.51 1033.45 1693.07 1033.19C1692.68 1032.97 1692.3 1032.73 1691.92 1032.48C1691.71 1032.34 1691.49 1032.2 1691.28 1032.05C1690.64 1031.59 1690.31 1030.9 1691.61 1032.32C1690.89 1031.53 1689.99 1030.9 1689.27 1030.11C1688.94 1029.75 1688.62 1029.38 1688.31 1029.01C1688.11 1028.78 1687.48 1028.01 1688.25 1028.96C1689.11 1030.02 1688.22 1028.88 1688.09 1028.69C1685.8 1025.38 1681.28 1023.52 1677.58 1025.87C1674.29 1027.96 1672.32 1032.85 1674.76 1036.38C1678.02 1041.1 1682.2 1045.21 1687.49 1047.59C1692.45 1049.83 1697.8 1050.99 1703.27 1050.68C1713.81 1050.08 1724.34 1045.23 1731.35 1037.26C1733.23 1035.13 1734.98 1032.82 1736.35 1030.33C1738.01 1027.3 1739.11 1023.94 1740.23 1020.68C1742.36 1014.44 1744.09 1008.08 1745.64 1001.67C1748.81 988.547 1751.18 975.247 1754.18 962.085C1755.64 955.661 1757.25 949.264 1759.2 942.972C1760.8 937.83 1762.65 932.808 1763.71 927.513C1765.41 918.981 1765.9 909.912 1763.38 901.479C1761.18 894.157 1756.94 888.015 1750.89 883.393C1745.66 879.398 1739.34 877.485 1732.87 876.808C1720.32 875.496 1706.73 881.186 1698.78 890.938C1697.49 892.51 1696.26 894.128 1695.19 895.855C1693.07 899.276 1694.32 904.482 1697.93 906.389C1701.69 908.375 1706.19 907.309 1708.46 903.647Z" fill="#FFBD95"/>
<path d="M1637.96 884.128C1638.29 882.818 1638.66 881.518 1639.09 880.234C1639.26 879.719 1639.43 879.206 1639.62 878.697C1639.89 877.955 1641.09 875.451 1639.75 878.245C1640.74 876.177 1641.67 874.123 1642.88 872.168C1643.42 871.297 1643.99 870.447 1644.6 869.62C1644.76 869.401 1644.93 869.188 1645.09 868.964C1643.65 871.036 1644 870.34 1644.36 869.901C1644.76 869.424 1645.15 868.941 1645.56 868.477C1646.86 867.013 1648.27 865.654 1649.8 864.427C1651.37 863.166 1648.29 865.493 1649.6 864.576C1649.93 864.344 1650.26 864.108 1650.6 863.883C1651.39 863.353 1652.21 862.858 1653.04 862.399C1653.8 861.986 1654.57 861.616 1655.35 861.256C1656.77 860.596 1653.22 862.093 1655.02 861.395C1655.45 861.23 1655.88 861.075 1656.31 860.928C1657.98 860.363 1659.69 859.984 1661.42 859.67C1662.7 859.439 1659.01 859.958 1660.87 859.752C1661.3 859.704 1661.74 859.665 1662.18 859.635C1663.05 859.577 1663.92 859.554 1664.79 859.57C1665.58 859.584 1666.37 859.628 1667.16 859.703C1667.89 859.773 1669.48 860.112 1666.38 859.588C1666.87 859.671 1667.37 859.737 1667.86 859.83C1669.44 860.131 1671.01 860.564 1672.52 861.127C1672.72 861.199 1672.91 861.281 1673.11 861.351C1674.13 861.716 1671.1 860.474 1671.88 860.835C1672.23 860.994 1672.58 861.141 1672.93 861.306C1673.68 861.662 1674.41 862.054 1675.12 862.477C1675.77 862.864 1676.41 863.28 1677.03 863.721C1677.19 863.842 1677.36 863.97 1677.52 864.089C1678.42 864.716 1675.78 862.655 1676.6 863.372C1676.91 863.642 1677.24 863.897 1677.55 864.172C1678.11 864.676 1678.66 865.206 1679.18 865.759C1679.84 866.463 1681.51 868.993 1679.72 866.263C1680.64 867.665 1681.56 868.996 1682.28 870.523C1682.35 870.686 1682.42 870.851 1682.5 871.014C1682.97 872.014 1681.69 868.962 1682.08 869.999C1682.23 870.411 1682.4 870.819 1682.54 871.235C1682.83 872.086 1683.07 872.951 1683.27 873.828C1683.36 874.202 1683.43 874.577 1683.5 874.954C1683.55 875.183 1683.58 875.413 1683.62 875.643C1683.83 876.779 1683.36 873.448 1683.48 874.6C1683.57 875.567 1683.66 876.529 1683.68 877.502C1683.71 878.607 1683.67 879.712 1683.58 880.812C1683.52 881.578 1683.1 883.648 1683.64 880.618C1683.53 881.249 1683.45 881.887 1683.33 882.518C1682.85 885.064 1682.11 887.558 1681.19 889.978C1681.11 890.178 1681.03 890.378 1680.95 890.578C1680.26 892.34 1681.66 888.975 1681.12 890.186C1680.8 890.909 1680.48 891.629 1680.14 892.342C1679.46 893.74 1678.74 895.11 1677.96 896.455C1676.24 899.46 1674.29 902.326 1672.2 905.09C1671.08 906.576 1670.94 909.305 1671.41 911.018C1671.9 912.802 1673.27 914.747 1674.94 915.625C1676.73 916.568 1678.89 917.047 1680.87 916.411C1682.9 915.759 1684.2 914.574 1685.47 912.884C1692.71 903.31 1698.32 892.069 1699.03 879.924C1699.56 870.785 1696.39 861.623 1690.12 854.934C1678.12 842.133 1657.18 841.018 1642.9 850.556C1632.6 857.442 1626.12 868.262 1623.1 880.145C1622.11 884.045 1624.45 888.666 1628.54 889.57C1632.57 890.459 1636.9 888.308 1637.96 884.128Z" fill="#FFBD95"/>
<path fill-rule="evenodd" clip-rule="evenodd" d="M1666.48 874.211C1679.92 879.872 1693.35 885.533 1706.79 891.193C1714.52 894.449 1722.82 898.205 1726.8 905.583C1730.49 912.411 1729.58 920.711 1728.4 928.381C1723.77 958.387 1716.57 987.995 1706.89 1016.77C1700.16 1036.77 1689.5 1058.91 1669.03 1064.04C1661.28 1065.98 1653.12 1065.1 1645.22 1063.88C1617.99 1059.65 1591.39 1051.34 1566.58 1039.33C1557.24 1034.8 1547.43 1028.94 1543.89 1019.18C1541.52 1012.61 1542.42 1005.34 1543.77 998.489C1549.89 967.253 1564.23 938.284 1579.5 910.358C1587.56 895.622 1596.46 880.464 1610.66 871.487C1624.85 862.509 1645.88 862.04 1656.66 874.915" fill="#B4E8D8"/>
<path fill-rule="evenodd" clip-rule="evenodd" d="M1562.34 993.192C1568.25 980.171 1575.91 987.157 1640.3 1009.96C1648.37 1012.82 1651.45 1019.5 1649.09 1027.35C1648 1036.42 1640.7 1044.64 1631.19 1040.46C1606.79 1033.54 1591.52 1028.25 1567.81 1019.26C1552.38 1014.32 1559.05 1002.38 1562.34 993.192Z" fill="#FF9D61"/>
<path fill-rule="evenodd" clip-rule="evenodd" d="M1718.09 895.819C1707.34 901.185 1703.25 914.154 1700.2 925.775C1677.51 1026.49 1675.58 991.254 1577.74 958.751C1569.43 956.691 1566.72 949.578 1568.79 941.23C1573.39 922.634 1579.5 910.363 1589.15 894.205C1596.83 881.351 1606.09 866.717 1620.59 862.976C1644.01 859.075 1696.3 884.199 1718.09 895.819Z" fill="#30C7A3"/>
<path d="M1644.81 971.568C1642.28 978.778 1639.75 985.989 1637.23 993.199" stroke="#EFC52E" stroke-width="10.8753" stroke-miterlimit="10"/>
<path d="M1593.97 953.165C1591.45 960.376 1588.92 967.586 1586.39 974.797" stroke="#EFC52E" stroke-width="10.8753" stroke-miterlimit="10"/>
<path d="M1658.46 928.101C1645.32 922.547 1631.97 917.536 1618.37 913.234C1614.52 912.018 1609.81 914.738 1608.94 918.675C1608.01 922.901 1610.26 926.798 1614.38 928.1C1620.75 930.114 1627.08 932.268 1633.35 934.575C1636.49 935.728 1639.61 936.918 1642.72 938.144C1644.27 938.756 1645.82 939.379 1647.37 940.01C1648.14 940.325 1648.92 940.629 1649.69 940.963C1647.79 940.133 1650.33 941.233 1650.67 941.378C1652.66 942.221 1654.42 942.762 1656.6 942.164C1658.38 941.675 1660.33 940.301 1661.21 938.637C1662.94 935.349 1662.43 929.777 1658.46 928.101Z" fill="white"/>
<path d="M1649.16 946.977C1636.34 941.559 1623.29 936.705 1610.01 932.507C1608.03 931.879 1605.82 933.283 1605.3 935.228C1604.74 937.315 1606.03 939.311 1608.02 939.94C1620.63 943.929 1633.08 948.467 1645.26 953.614C1647.17 954.422 1649.38 954.202 1650.53 952.244C1651.47 950.635 1651.09 947.791 1649.16 946.977Z" fill="#384476"/>
<path d="M1638.8 875.01C1631.24 872.72 1622.66 870.631 1615.21 874.451C1608.19 878.053 1604.52 885.653 1601.42 892.51C1600.61 894.299 1603.26 895.873 1604.07 894.068C1606.89 887.844 1610.08 880.753 1616.36 877.322C1623.07 873.654 1631.17 875.913 1638 877.982C1639.9 878.556 1640.7 875.582 1638.8 875.01Z" fill="#384476"/>
<path d="M1627.05 881.485C1619.99 880.562 1612.81 885.145 1610.97 892.117C1610.47 894.032 1613.44 894.833 1613.95 892.914C1614.63 890.321 1616.34 887.995 1618.59 886.487C1619.79 885.678 1620.94 885.135 1622.32 884.77C1623.58 884.436 1625.06 884.303 1626.26 884.46C1627.08 884.567 1627.91 884.25 1628.14 883.372C1628.34 882.65 1627.88 881.594 1627.05 881.485Z" fill="#384476"/>
<path d="M1648.1 1020.04C1646.96 1025.2 1645.43 1030.26 1643.49 1035.18C1642.77 1037 1642.01 1039.26 1640.4 1040.51C1638.54 1041.96 1635.93 1040.95 1633.89 1040.46C1623.45 1037.94 1613.11 1035 1602.9 1031.63C1597 1029.69 1591.15 1027.6 1585.34 1025.38C1583.5 1024.67 1582.71 1027.65 1584.55 1028.35C1595.57 1032.56 1606.77 1036.3 1618.12 1039.51C1623.74 1041.1 1629.41 1042.65 1635.11 1043.91C1637.22 1044.38 1639.44 1044.62 1641.4 1043.53C1643.17 1042.56 1644.35 1040.79 1645.19 1039.01C1647.91 1033.3 1649.7 1027 1651.07 1020.84C1651.5 1018.91 1648.53 1018.1 1648.1 1020.04Z" fill="#384476"/>
<path d="M1690.6 981.046C1683.87 1001.07 1681.2 1023.21 1669.11 1041.04C1665.66 1046.13 1661.41 1050.68 1656.46 1054.34C1654.88 1055.51 1656.41 1058.19 1658 1057.01C1676.49 1043.31 1682.66 1020.82 1688.36 999.658C1689.97 993.684 1691.6 987.71 1693.57 981.842C1694.2 979.964 1691.22 979.175 1690.6 981.046Z" fill="#384476"/>
</g>
<path d="M1838.65 213.262C1848.41 221.166 1858.3 228.922 1867.9 237.014C1876.46 244.224 1884.63 251.879 1893.1 259.194C1897.97 263.394 1903.13 267.236 1908.05 271.371C1914.03 276.387 1919.87 281.553 1925.79 286.631C1927.79 288.34 1929.69 290.219 1931.9 291.589C1934.16 292.988 1934.76 294.788 1934.45 297.175C1932.15 297.166 1930.3 297.853 1929.53 300.294C1929.38 300.756 1929.05 301.192 1928.72 301.56C1926.63 303.885 1924.45 306.128 1922.44 308.519C1921.12 310.084 1919.16 311.373 1919.49 313.873C1915.57 314.147 1913.12 311.42 1910.47 309.26C1904.18 304.11 1897.97 298.849 1891.78 293.565C1887.14 289.603 1882.62 285.507 1878 281.522C1874.02 278.089 1869.95 274.762 1865.97 271.331C1859.1 265.408 1852.26 259.462 1845.44 253.48C1840.09 248.783 1834.78 244.033 1829.48 239.275C1826.8 236.869 1824.18 234.39 1821.54 231.946C1827.24 225.717 1832.94 219.49 1838.65 213.262ZM1888.41 267.449C1887.05 266.317 1885.68 265.184 1884.32 264.052C1884.16 262.625 1883.93 261.203 1883.86 259.771C1883.65 255.53 1882.28 253.967 1878.23 253.398C1875.97 253.08 1873.72 252.693 1871.47 252.338C1869.87 251.014 1868.27 249.692 1866.67 248.368C1866.87 246.268 1866.94 244.142 1867.33 242.077C1867.64 240.399 1866.9 239.311 1865.53 239.462C1864.61 239.566 1863.62 240.837 1863.05 241.815C1862.57 242.622 1862.67 243.761 1862.51 244.753C1859.63 242.144 1856.84 239.434 1853.85 236.964C1852.05 235.472 1850.06 233.709 1847.93 233.314C1846.72 233.091 1845.05 235.405 1843.6 236.575C1843.53 236.629 1843.45 236.67 1843.39 236.729C1841.09 238.96 1840.98 240.87 1843.33 242.98C1846.03 245.414 1848.89 247.669 1851.71 249.979C1855.11 252.772 1858.56 255.513 1861.95 258.326C1866.57 262.16 1871.14 266.058 1875.76 269.898C1880.19 273.577 1884.61 277.256 1889.1 280.864C1895.55 286.065 1902.02 291.26 1908.57 296.337C1911.01 298.222 1912.64 297.973 1914.08 296.014C1916.58 292.633 1916.6 290.514 1914.18 288.463C1912.57 287.095 1910.96 285.726 1909.34 284.357C1910.1 284 1910.97 283.782 1911.58 283.252C1912.35 282.573 1912.91 281.646 1913.56 280.826C1912.73 280.315 1911.9 279.361 1911.09 279.379C1908.56 279.435 1906.03 279.784 1903.52 280.172C1902.07 280.396 1901.21 280.09 1901 278.531C1900.74 276.613 1900.35 274.711 1900.14 272.789C1899.74 268.923 1897.61 267.069 1893.69 267.266C1891.93 267.352 1890.17 267.388 1888.41 267.449ZM1838.42 224.613C1838.37 224.569 1838.32 224.525 1838.28 224.48C1838.75 223.773 1839.43 223.124 1839.65 222.345C1839.92 221.396 1839.8 220.339 1839.85 219.328C1838.77 219.479 1837.44 219.286 1836.69 219.86C1835.48 220.797 1834.68 222.261 1833.65 223.456C1831.55 225.898 1829.34 228.245 1827.36 230.781C1826.92 231.345 1827.28 232.528 1827.27 233.425C1828.35 233.356 1829.85 233.719 1830.45 233.146C1833.24 230.442 1835.79 227.481 1838.42 224.613Z" fill="#C7F0F1"/>
<path d="M1838.64 213.262C1832.94 219.489 1827.24 225.717 1821.54 231.945C1818.23 229.491 1814.79 227.187 1811.63 224.551C1805.37 219.33 1799.27 213.926 1793.1 208.598C1792.72 208.265 1792.32 207.95 1791.94 207.609C1789.11 205.042 1789 204.89 1791.38 201.831C1794.99 197.202 1798.65 192.616 1802.46 188.154C1805.72 184.322 1807.05 184.251 1810.92 187.513C1818.33 193.756 1825.65 200.109 1833.05 206.368C1834.4 207.515 1835.93 208.463 1837.43 209.438C1838.9 210.401 1839.66 211.533 1838.64 213.262Z" fill="#60BCBC"/>
<path d="M1919.49 313.871C1919.16 311.372 1921.12 310.083 1922.44 308.516C1924.45 306.125 1926.63 303.883 1928.72 301.558C1929.05 301.189 1929.38 300.755 1929.53 300.292C1930.3 297.851 1932.14 297.163 1934.45 297.173C1937.17 299.147 1939.96 301.024 1942.57 303.132C1943.82 304.142 1943.49 305.491 1942.54 306.77C1939.32 311.079 1936.17 315.436 1933.01 319.787C1931.28 322.159 1929.08 322.626 1926.67 320.877C1923.95 318.902 1920.9 317.214 1919.49 313.871Z" fill="#60BCBC"/>
<path d="M1909.35 284.353C1910.96 285.721 1912.57 287.091 1914.19 288.46C1916.61 290.51 1916.58 292.63 1914.09 296.011C1912.64 297.968 1911.01 298.218 1908.58 296.334C1902.02 291.257 1895.56 286.063 1889.1 280.861C1884.62 277.252 1880.19 273.573 1875.76 269.894C1871.14 266.055 1866.57 262.157 1861.95 258.322C1858.56 255.51 1855.11 252.77 1851.71 249.975C1848.89 247.667 1846.03 245.41 1843.33 242.977C1840.99 240.868 1841.1 238.957 1843.39 236.726C1843.46 236.666 1843.53 236.626 1843.6 236.572C1845.06 235.402 1846.73 233.088 1847.93 233.31C1850.06 233.705 1852.05 235.47 1853.86 236.96C1856.84 239.432 1859.64 242.142 1862.51 244.749C1862.52 245.565 1862.58 246.385 1862.54 247.198C1862.32 252.222 1863.42 255.855 1869.62 256.57C1870.89 256.716 1872.15 256.887 1873.41 257.055C1879.55 257.867 1879.42 257.883 1880.01 263.987C1880.2 265.969 1880.84 268.21 1882.04 269.726C1884.24 272.5 1887.7 271.91 1890.75 271.654C1894.52 271.338 1895.77 272.128 1896.19 275.772C1896.32 276.952 1896.6 278.118 1896.78 279.292C1897.47 283.6 1899.43 285.037 1903.84 284.59C1905.67 284.411 1907.51 284.429 1909.35 284.353Z" fill="#60BCBC"/>
<path d="M1909.34 284.352C1907.51 284.427 1905.66 284.411 1903.83 284.595C1899.43 285.041 1897.47 283.605 1896.78 279.296C1896.59 278.122 1896.32 276.957 1896.18 275.777C1895.77 272.132 1894.52 271.342 1890.75 271.659C1887.7 271.914 1884.24 272.504 1882.04 269.73C1880.84 268.214 1880.19 265.973 1880 263.991C1879.41 257.886 1879.54 257.871 1873.41 257.059C1872.14 256.891 1870.88 256.719 1869.61 256.574C1863.42 255.858 1862.32 252.225 1862.54 247.202C1862.57 246.389 1862.52 245.569 1862.51 244.753C1862.66 243.761 1862.57 242.621 1863.05 241.816C1863.62 240.84 1864.61 239.567 1865.53 239.463C1866.89 239.312 1867.64 240.397 1867.33 242.078C1866.94 244.142 1866.87 246.269 1866.67 248.368C1866.15 251.686 1867.9 253.13 1871.47 252.339C1873.72 252.694 1875.97 253.081 1878.23 253.399C1882.28 253.968 1883.65 255.53 1883.86 259.772C1883.93 261.203 1884.16 262.625 1884.32 264.052C1883.99 267.539 1885.32 268.651 1888.41 267.451C1890.17 267.39 1891.93 267.352 1893.69 267.264C1897.6 267.066 1899.74 268.92 1900.14 272.787C1900.34 274.711 1900.74 276.611 1901 278.529C1901.21 280.088 1902.06 280.396 1903.52 280.171C1906.02 279.783 1908.55 279.434 1911.08 279.377C1911.9 279.359 1912.73 280.314 1913.56 280.824C1912.91 281.644 1912.35 282.573 1911.57 283.251C1910.97 283.777 1910.1 283.996 1909.34 284.352Z" fill="#E3A791"/>
<path d="M1838.42 224.608C1835.79 227.477 1833.24 230.437 1830.45 233.141C1829.85 233.714 1828.35 233.352 1827.27 233.42C1827.28 232.523 1826.92 231.339 1827.36 230.776C1829.34 228.24 1831.55 225.892 1833.65 223.451C1834.68 222.256 1835.48 220.792 1836.69 219.855C1837.44 219.281 1838.77 219.475 1839.84 219.323C1839.8 220.334 1839.92 221.391 1839.65 222.34C1839.43 223.119 1838.75 223.768 1838.27 224.475C1838.33 224.52 1838.37 224.563 1838.42 224.608Z" fill="#E3A791"/>
<path d="M1871.47 252.337C1867.9 253.129 1866.15 251.684 1866.67 248.367C1868.27 249.689 1869.87 251.014 1871.47 252.337Z" fill="#87ADAA"/>
<path d="M1888.41 267.446C1885.33 268.646 1883.99 267.534 1884.32 264.048C1885.68 265.181 1887.05 266.314 1888.41 267.446Z" fill="#87ADAA"/>
<path d="M1868.09 187.658C1877.86 195.561 1887.74 203.318 1897.35 211.41C1905.9 218.62 1914.08 226.275 1922.55 233.589C1927.41 237.789 1932.58 241.632 1937.5 245.766C1943.47 250.783 1949.32 255.948 1955.24 261.026C1957.23 262.735 1959.14 264.614 1961.35 265.985C1963.6 267.383 1964.2 269.184 1963.9 271.57C1961.59 271.561 1959.75 272.248 1958.98 274.69C1958.83 275.152 1958.5 275.587 1958.17 275.956C1956.08 278.281 1953.89 280.524 1951.89 282.914C1950.57 284.48 1948.61 285.769 1948.94 288.269C1945.01 288.543 1942.56 285.815 1939.92 283.656C1933.62 278.506 1927.41 273.245 1921.23 267.96C1916.59 263.998 1912.06 259.902 1907.45 255.917C1903.47 252.485 1899.4 249.157 1895.42 245.726C1888.55 239.803 1881.7 233.857 1874.89 227.875C1869.54 223.179 1864.23 218.429 1858.93 213.671C1856.25 211.264 1853.63 208.786 1850.99 206.341C1856.69 200.112 1862.39 193.886 1868.09 187.658ZM1917.86 241.845C1916.49 240.713 1915.13 239.58 1913.77 238.447C1913.61 237.02 1913.38 235.598 1913.31 234.166C1913.1 229.925 1911.73 228.362 1907.68 227.793C1905.42 227.475 1903.17 227.089 1900.92 226.733C1899.31 225.41 1897.72 224.088 1896.12 222.763C1896.32 220.663 1896.39 218.537 1896.78 216.473C1897.09 214.794 1896.34 213.707 1894.98 213.858C1894.05 213.961 1893.07 215.233 1892.49 216.21C1892.02 217.018 1892.11 218.156 1891.96 219.149C1889.08 216.539 1886.29 213.83 1883.3 211.359C1881.5 209.867 1879.51 208.104 1877.37 207.709C1876.17 207.487 1874.5 209.801 1873.04 210.971C1872.98 211.024 1872.9 211.065 1872.84 211.125C1870.54 213.356 1870.43 215.266 1872.77 217.376C1875.48 219.809 1878.34 222.064 1881.15 224.374C1884.56 227.167 1888.01 229.909 1891.4 232.721C1896.02 236.556 1900.59 240.454 1905.21 244.293C1909.63 247.973 1914.06 251.651 1918.54 255.26C1925 260.461 1931.47 265.655 1938.02 270.733C1940.45 272.617 1942.09 272.368 1943.53 270.409C1946.02 267.029 1946.05 264.909 1943.63 262.859C1942.02 261.49 1940.4 260.122 1938.79 258.752C1939.55 258.396 1940.42 258.177 1941.02 257.648C1941.8 256.968 1942.35 256.042 1943.01 255.222C1942.18 254.71 1941.35 253.756 1940.53 253.774C1938 253.831 1935.47 254.18 1932.97 254.568C1931.51 254.792 1930.66 254.486 1930.45 252.927C1930.19 251.009 1929.79 249.107 1929.59 247.184C1929.18 243.319 1927.05 241.465 1923.14 241.661C1921.38 241.747 1919.62 241.784 1917.86 241.845ZM1867.87 199.009C1867.82 198.964 1867.77 198.921 1867.72 198.876C1868.2 198.168 1868.88 197.519 1869.1 196.741C1869.37 195.792 1869.25 194.734 1869.29 193.723C1868.22 193.875 1866.88 193.681 1866.14 194.256C1864.92 195.192 1864.13 196.657 1863.1 197.852C1861 200.294 1858.79 202.64 1856.81 205.177C1856.37 205.741 1856.73 206.924 1856.72 207.82C1857.8 207.751 1859.3 208.115 1859.89 207.541C1862.69 204.838 1865.23 201.876 1867.87 199.009Z" fill="#E8DCCC"/>
<path d="M1868.09 187.659C1862.39 193.887 1856.69 200.114 1850.98 206.342C1847.67 203.888 1844.24 201.584 1841.08 198.948C1834.82 193.728 1828.72 188.323 1822.55 182.996C1822.17 182.663 1821.77 182.347 1821.39 182.006C1818.55 179.439 1818.45 179.288 1820.83 176.228C1824.43 171.6 1828.1 167.013 1831.9 162.551C1835.17 158.72 1836.5 158.649 1840.37 161.91C1847.78 168.154 1855.1 174.506 1862.49 180.766C1863.85 181.912 1865.38 182.86 1866.87 183.836C1868.35 184.798 1869.1 185.93 1868.09 187.659Z" fill="#EBBC75"/>
<path d="M1938.79 258.751C1940.4 260.119 1942.02 261.489 1943.63 262.857C1946.05 264.908 1946.02 267.027 1943.53 270.408C1942.09 272.365 1940.45 272.616 1938.02 270.731C1931.47 265.654 1925 260.46 1918.54 255.259C1914.06 251.65 1909.63 247.97 1905.21 244.292C1900.59 240.452 1896.02 236.555 1891.39 232.72C1888 229.907 1884.56 227.167 1881.15 224.373C1878.34 222.064 1875.48 219.808 1872.77 217.374C1870.43 215.265 1870.54 213.354 1872.84 211.123C1872.9 211.064 1872.98 211.023 1873.04 210.969C1874.5 209.799 1876.17 207.485 1877.37 207.708C1879.51 208.103 1881.5 209.867 1883.3 211.358C1886.29 213.829 1889.08 216.539 1891.95 219.146C1891.96 219.962 1892.02 220.782 1891.99 221.595C1891.76 226.62 1892.87 230.253 1899.06 230.967C1900.33 231.114 1901.59 231.284 1902.86 231.452C1908.99 232.265 1908.86 232.281 1909.45 238.384C1909.64 240.366 1910.28 242.607 1911.48 244.124C1913.68 246.897 1917.14 246.308 1920.19 246.052C1923.97 245.736 1925.21 246.525 1925.63 250.17C1925.77 251.35 1926.04 252.515 1926.23 253.69C1926.92 257.998 1928.88 259.435 1933.28 258.988C1935.11 258.808 1936.95 258.826 1938.79 258.751Z" fill="#EBBC75"/>
<path d="M1938.79 258.749C1936.95 258.824 1935.11 258.808 1933.28 258.992C1928.88 259.439 1926.91 258.002 1926.23 253.694C1926.04 252.519 1925.77 251.355 1925.63 250.174C1925.21 246.53 1923.97 245.74 1920.19 246.056C1917.14 246.312 1913.68 246.901 1911.48 244.128C1910.28 242.611 1909.64 240.37 1909.45 238.388C1908.86 232.283 1908.99 232.269 1902.85 231.456C1901.59 231.289 1900.32 231.117 1899.06 230.971C1892.86 230.256 1891.76 226.622 1891.98 221.6C1892.02 220.786 1891.96 219.967 1891.95 219.15C1892.11 218.158 1892.02 217.019 1892.49 216.213C1893.06 215.237 1894.05 213.964 1894.97 213.861C1896.34 213.709 1897.09 214.795 1896.77 216.476C1896.38 218.539 1896.32 220.666 1896.11 222.766C1895.6 226.083 1897.34 227.528 1900.91 226.736C1903.17 227.092 1905.42 227.478 1907.68 227.796C1911.73 228.365 1913.09 229.928 1913.3 234.169C1913.37 235.601 1913.6 237.023 1913.76 238.45C1913.43 241.936 1914.77 243.048 1917.85 241.848C1919.61 241.787 1921.38 241.749 1923.14 241.661C1927.05 241.464 1929.18 243.317 1929.59 247.184C1929.79 249.108 1930.18 251.009 1930.44 252.927C1930.66 254.486 1931.51 254.794 1932.96 254.568C1935.47 254.18 1938 253.831 1940.53 253.775C1941.34 253.756 1942.18 254.712 1943 255.222C1942.35 256.042 1941.79 256.97 1941.02 257.648C1940.42 258.174 1939.54 258.393 1938.79 258.749Z" fill="#4EC1C1"/>
<path d="M1867.87 199.006C1865.23 201.875 1862.69 204.835 1859.89 207.539C1859.3 208.113 1857.8 207.75 1856.71 207.818C1856.72 206.922 1856.37 205.737 1856.81 205.175C1858.78 202.638 1861 200.291 1863.1 197.85C1864.12 196.655 1864.92 195.19 1866.14 194.254C1866.88 193.679 1868.22 193.874 1869.29 193.721C1869.24 194.732 1869.36 195.79 1869.1 196.739C1868.88 197.517 1868.2 198.166 1867.72 198.874C1867.77 198.918 1867.82 198.962 1867.87 199.006Z" fill="#67B1B1"/>
<path d="M1900.91 226.734C1897.34 227.525 1895.6 226.081 1896.11 222.763C1897.71 224.086 1899.31 225.41 1900.91 226.734Z" fill="#87ADAA"/>
<path d="M1917.86 241.844C1914.77 243.044 1913.44 241.932 1913.77 238.445C1915.13 239.578 1916.49 240.711 1917.86 241.844Z" fill="#87ADAA"/>
</svg>
