<svg width="1920" height="1330" viewBox="0 0 1920 1330" fill="none" xmlns="http://www.w3.org/2000/svg">
<path d="M1596.28 1268.19C1637.24 1268.19 1670.45 1234.98 1670.45 1194.01C1670.45 1153.05 1637.24 1119.84 1596.28 1119.84C1555.32 1119.84 1522.11 1153.05 1522.11 1194.01C1522.11 1234.98 1555.32 1268.19 1596.28 1268.19Z" fill="#EAF4FF"/>
<mask id="mask0_1013_6896" style="mask-type:luminance" maskUnits="userSpaceOnUse" x="1522" y="1119" width="149" height="150">
<path d="M1596.28 1268.19C1637.24 1268.19 1670.45 1234.98 1670.45 1194.02C1670.45 1153.05 1637.24 1119.84 1596.28 1119.84C1555.32 1119.84 1522.11 1153.05 1522.11 1194.02C1522.11 1234.98 1555.32 1268.19 1596.28 1268.19Z" fill="white"/>
</mask>
<g mask="url(#mask0_1013_6896)">
<path d="M1576.11 1122.51V1157.26L1552.65 1172.88L1570.12 1186.06L1576.11 1226.36L1586.75 1215.51L1606.9 1220.93L1584.43 1232.56L1592.95 1241.08L1624.73 1237.98L1638.68 1262.78C1638.68 1262.78 1604.58 1312.38 1601.48 1312.38C1598.38 1312.38 1561.18 1263.56 1561.18 1263.56L1576.11 1243.41L1557.3 1227.91L1542.58 1192.26L1532.5 1200.25V1211.63L1526.3 1209.31L1529.4 1192.26L1536.38 1174.43L1492.2 1164.36L1495.94 1110.11L1576.11 1122.51Z" fill="#BFD9ED"/>
<path d="M1630.77 1119.84L1613.95 1151.03L1622.36 1172.69H1643.85L1631.39 1189.51L1648.21 1211.25H1660.05L1687.46 1206.33L1648.21 1110.11L1630.77 1119.84Z" fill="#BFD9ED"/>
</g>
<path opacity="0.42" d="M1623.76 1241.86C1582.79 1241.86 1549.59 1208.66 1549.59 1167.69C1549.59 1153.55 1553.55 1140.34 1560.41 1129.09C1537.58 1141.73 1522.11 1166.06 1522.11 1194.02C1522.11 1234.98 1555.32 1268.19 1596.28 1268.19C1623.1 1268.19 1646.6 1253.95 1659.63 1232.62C1648.99 1238.5 1636.77 1241.86 1623.76 1241.86Z" fill="#BFD9ED"/>
<path d="M1581.65 1092.98L1600.31 1120.35L1525.9 1180.18L1504.8 1149.23L1581.65 1092.98Z" fill="#97B5CB"/>
<path d="M1574.17 1164.14C1594.87 1147.79 1606.93 1128.56 1601.11 1121.18C1595.28 1113.8 1573.78 1121.07 1553.07 1137.42C1532.37 1153.76 1520.31 1172.99 1526.13 1180.37C1531.96 1187.75 1553.47 1180.48 1574.17 1164.14Z" fill="#97B5CB"/>
<path d="M1475.38 1160.03L1547.12 1143.7L1602.28 1070.9L1600.93 1068.19L1531.89 1088.51L1474.03 1157.31L1475.38 1160.03Z" fill="#97B5CB"/>
<path d="M1474.03 1157.31L1545.77 1140.99L1600.93 1068.19L1530.54 1085.79L1474.03 1157.31Z" fill="#ADD0E6"/>
<path d="M1534.9 1105.88L1502.36 1151.53L1498.27 1194.02L1495.48 1222.24" stroke="#D7BE8A" stroke-width="1.7937" stroke-miterlimit="10" stroke-linecap="round" stroke-linejoin="round"/>
<path d="M1494.87 1194.99L1501.67 1195.52C1502.61 1195.59 1503.43 1194.89 1503.5 1193.95C1503.58 1193.01 1502.87 1192.19 1501.94 1192.12L1495.14 1191.59C1494.2 1191.52 1493.38 1192.22 1493.31 1193.16C1493.23 1194.1 1493.93 1194.92 1494.87 1194.99Z" fill="#D7BE8A"/>
<path d="M1498.37 1228.9L1490.97 1228.18L1494.72 1194.02L1502.12 1194.74L1498.37 1228.9Z" fill="#D7BE8A"/>
<path d="M113.485 1099.51C125.526 1116.94 142.24 1122.69 142.24 1122.69C131.106 1111.74 134.327 1101.5 134.332 1101.49C134.454 1101.1 139.553 1100.77 140.027 1100.7C143.014 1100.27 146.062 1100.08 149.009 1099.43C160.553 1096.85 170.545 1088.38 173.376 1076.69C179.655 1050.73 154.274 1037.94 132.572 1035.01C111.529 1032.18 78.6865 1036.29 73.2445 1061.58C68.0405 1085.77 90.2475 1097.6 110.841 1099.34C111.72 1099.42 112.602 1099.49 113.485 1099.51Z" fill="white"/>
<path d="M160.676 1051C155.236 1047.25 149.3 1044.12 142.948 1041.97C136.603 1039.79 129.908 1038.64 123.196 1038.4C119.838 1038.32 116.472 1038.39 113.129 1038.77C109.794 1039.19 106.469 1039.76 103.238 1040.71C96.7883 1042.53 90.5683 1045.63 85.7773 1050.23C91.4173 1046.76 97.5533 1044.55 103.864 1043.25C110.181 1041.99 116.644 1041.49 123.081 1041.75C129.523 1041.92 135.933 1042.87 142.198 1044.46C148.469 1046.08 154.567 1048.46 160.676 1051Z" fill="#D0E6FF"/>
<path d="M89.1143 1076.35C89.1143 1076.34 89.1102 1076.33 89.1019 1076.32C89.1019 1076.31 89.1019 1076.3 89.1019 1076.3C89.1019 1076.16 89.1766 1076.08 89.3259 1076.08C89.4005 1076.08 89.4835 1076.12 89.5747 1076.2C90.0227 1076.62 90.5203 1076.96 91.0678 1077.2C91.6153 1077.45 92.2125 1077.58 92.8595 1077.58C93.0337 1077.58 93.2328 1077.56 93.4568 1077.53C93.6807 1077.49 93.8923 1077.42 94.0913 1077.34C94.2904 1077.25 94.4563 1077.13 94.589 1076.99C94.7301 1076.85 94.8006 1076.67 94.8006 1076.46C94.8006 1076.22 94.7425 1076 94.6264 1075.81C94.5102 1075.62 94.3568 1075.46 94.166 1075.33C94.0913 1075.28 93.9794 1075.19 93.83 1075.08C93.6807 1074.96 93.5107 1074.83 93.3199 1074.68C93.1291 1074.53 92.93 1074.37 92.7227 1074.21C92.5153 1074.03 92.3162 1073.87 92.1254 1073.72C91.9429 1073.56 91.777 1073.42 91.6277 1073.3C91.4784 1073.17 91.3664 1073.08 91.2918 1073.01C90.8024 1072.65 90.4125 1072.28 90.1222 1071.9C89.8402 1071.53 89.6245 1071.14 89.4752 1070.73C89.3259 1070.33 89.2305 1069.91 89.189 1069.48C89.1475 1069.04 89.1268 1068.57 89.1268 1068.08C89.1268 1067.35 89.301 1066.66 89.6494 1066.01C89.9978 1065.35 90.4872 1064.78 91.1176 1064.3C91.7563 1063.81 92.5194 1063.43 93.407 1063.14C94.2946 1062.85 95.2817 1062.71 96.3683 1062.71C96.501 1062.71 96.7001 1062.73 96.9656 1062.76C97.231 1062.78 97.5213 1062.83 97.8365 1062.9C98.16 1062.96 98.4877 1063.05 98.8195 1063.17C99.1513 1063.29 99.4541 1063.43 99.7278 1063.62C99.819 1063.68 99.8895 1063.75 99.9393 1063.82C99.9974 1063.88 100.035 1063.99 100.051 1064.13C100.093 1064.8 100.126 1065.46 100.151 1066.12C100.176 1066.77 100.209 1067.45 100.25 1068.18C100.25 1068.32 100.221 1068.42 100.163 1068.47C100.105 1068.51 100.031 1068.53 99.9393 1068.53C99.8481 1068.53 99.7776 1068.51 99.7278 1068.46C99.4872 1068.22 99.2384 1067.98 98.9812 1067.75C98.7241 1067.52 98.4545 1067.31 98.1725 1067.14C97.8904 1066.96 97.5877 1066.81 97.2642 1066.7C96.949 1066.6 96.6047 1066.54 96.2314 1066.54C96.0075 1066.54 95.7835 1066.56 95.5596 1066.6C95.3356 1066.64 95.1324 1066.7 94.9499 1066.8C94.7674 1066.9 94.6181 1067.04 94.5019 1067.21C94.3941 1067.39 94.3402 1067.61 94.3402 1067.87C94.3402 1068.15 94.3734 1068.4 94.4397 1068.61C94.5144 1068.81 94.6927 1069.01 94.9748 1069.19L97.961 1071.22C98.5084 1071.61 98.9522 1072 99.2923 1072.39C99.6324 1072.77 99.8978 1073.15 100.089 1073.53C100.279 1073.92 100.408 1074.29 100.474 1074.67C100.549 1075.03 100.586 1075.39 100.586 1075.75C100.586 1076.33 100.491 1076.88 100.3 1077.39C100.109 1077.91 99.8481 1078.38 99.5163 1078.82C99.1845 1079.25 98.7946 1079.64 98.3467 1079.99C97.907 1080.33 97.4342 1080.63 96.9282 1080.88C96.4222 1081.12 95.8955 1081.3 95.348 1081.42C94.8089 1081.56 94.278 1081.62 93.7554 1081.62C93.3489 1081.62 92.9466 1081.61 92.5485 1081.6C92.1586 1081.59 91.777 1081.56 91.4038 1081.5C91.0305 1081.45 90.6697 1081.36 90.3213 1081.25C89.9729 1081.14 89.6411 1080.99 89.3259 1080.79L89.1143 1076.35ZM107.716 1072.29C107.666 1073.09 107.62 1073.73 107.579 1074.23C107.546 1074.73 107.517 1075.13 107.492 1075.45C107.467 1075.76 107.446 1076 107.43 1076.18C107.413 1076.36 107.401 1076.52 107.392 1076.68C107.583 1077.18 107.865 1077.59 108.238 1077.9C108.612 1078.21 109.06 1078.36 109.582 1078.36C110.038 1078.36 110.437 1078.22 110.777 1077.94C111.125 1077.65 111.411 1077.28 111.635 1076.82C111.867 1076.36 112.042 1075.85 112.158 1075.29C112.274 1074.72 112.332 1074.16 112.332 1073.61C112.332 1073.15 112.291 1072.73 112.208 1072.34C112.133 1071.95 112.017 1071.61 111.859 1071.33C111.702 1071.04 111.503 1070.82 111.262 1070.66C111.03 1070.49 110.752 1070.41 110.428 1070.41C110.163 1070.41 109.897 1070.46 109.632 1070.57C109.375 1070.67 109.126 1070.8 108.885 1070.97C108.645 1071.13 108.425 1071.31 108.226 1071.52C108.035 1071.72 107.878 1071.91 107.753 1072.1L107.716 1072.29ZM107.965 1068.64C108.661 1068.17 109.391 1067.79 110.155 1067.51C110.918 1067.23 111.714 1067.09 112.544 1067.09C113.323 1067.09 113.995 1067.25 114.559 1067.57C115.132 1067.89 115.604 1068.32 115.978 1068.87C116.351 1069.41 116.625 1070.03 116.799 1070.73C116.981 1071.44 117.073 1072.18 117.073 1072.95C117.073 1073.62 117.006 1074.3 116.874 1074.99C116.741 1075.68 116.546 1076.35 116.289 1076.99C116.032 1077.63 115.712 1078.23 115.331 1078.8C114.949 1079.36 114.509 1079.85 114.012 1080.28C113.522 1080.69 112.975 1081.02 112.369 1081.26C111.764 1081.5 111.109 1081.62 110.403 1081.62C109.781 1081.62 109.184 1081.5 108.612 1081.25C108.048 1081 107.517 1080.68 107.019 1080.28C107.019 1080.32 107.007 1080.47 106.982 1080.74C106.965 1081 106.94 1081.31 106.907 1081.68C106.874 1082.06 106.837 1082.46 106.795 1082.88C106.754 1083.31 106.716 1083.71 106.683 1084.09C106.65 1084.46 106.621 1084.77 106.596 1085.03C106.579 1085.3 106.571 1085.45 106.571 1085.49C106.571 1085.56 106.571 1085.61 106.571 1085.65C106.579 1085.7 106.584 1085.75 106.584 1085.79C106.584 1085.86 106.55 1085.91 106.484 1085.95C106.426 1086 106.289 1086.06 106.073 1086.11L102.801 1086.95C102.71 1086.97 102.59 1087.01 102.44 1087.06C102.291 1087.12 102.146 1087.15 102.005 1087.15C101.889 1087.15 101.785 1087.12 101.694 1087.06C101.611 1087 101.569 1086.89 101.569 1086.74L103.087 1068.52C103.112 1068.25 103.141 1068.06 103.174 1067.96C103.216 1067.85 103.311 1067.78 103.461 1067.75C104.215 1067.6 104.991 1067.45 105.787 1067.3C106.584 1067.14 107.359 1066.94 108.114 1066.7C108.18 1066.7 108.218 1066.72 108.226 1066.74C108.243 1066.76 108.251 1066.79 108.251 1066.83C108.251 1066.84 108.247 1066.87 108.238 1066.9C108.238 1066.94 108.226 1067.01 108.201 1067.13C108.185 1067.24 108.155 1067.42 108.114 1067.66C108.081 1067.89 108.031 1068.22 107.965 1068.64ZM126.069 1067.09C126.857 1067.09 127.57 1067.24 128.209 1067.54C128.856 1067.83 129.407 1068.21 129.863 1068.68C130.328 1069.15 130.685 1069.67 130.934 1070.25C131.182 1070.83 131.307 1071.41 131.307 1071.99C131.307 1072.51 131.149 1073.02 130.834 1073.55C130.519 1074.06 130.075 1074.53 129.503 1074.94C128.939 1075.35 128.258 1075.69 127.462 1075.95C126.666 1076.2 125.791 1076.33 124.837 1076.33C124.339 1076.33 123.816 1076.28 123.269 1076.18C123.302 1076.54 123.406 1076.85 123.58 1077.1C123.754 1077.36 123.974 1077.57 124.239 1077.74C124.505 1077.91 124.804 1078.03 125.135 1078.11C125.475 1078.19 125.824 1078.22 126.181 1078.22C126.579 1078.22 126.96 1078.19 127.325 1078.13C127.698 1078.05 128.055 1077.96 128.395 1077.84C128.735 1077.72 129.063 1077.59 129.378 1077.45C129.693 1077.31 129.992 1077.17 130.274 1077.03C130.349 1077.01 130.411 1077 130.461 1076.99C130.519 1076.98 130.573 1076.97 130.622 1076.97C130.622 1076.97 130.618 1077.03 130.61 1077.17C130.61 1077.3 130.61 1077.49 130.61 1077.73C130.61 1077.97 130.606 1078.26 130.598 1078.6C130.598 1078.94 130.593 1079.32 130.585 1079.73C130.61 1079.77 130.627 1079.81 130.635 1079.85C130.643 1079.9 130.647 1079.93 130.647 1079.95C130.647 1080.05 130.556 1080.16 130.374 1080.28C130.191 1080.39 129.951 1080.51 129.652 1080.64C129.362 1080.76 129.026 1080.88 128.644 1081C128.271 1081.12 127.889 1081.22 127.499 1081.31C127.11 1081.41 126.732 1081.48 126.367 1081.53C126.002 1081.59 125.683 1081.62 125.409 1081.62C124.513 1081.62 123.642 1081.46 122.796 1081.15C121.958 1080.84 121.212 1080.4 120.556 1079.82C119.909 1079.24 119.391 1078.53 119.001 1077.7C118.611 1076.87 118.416 1075.94 118.416 1074.9C118.416 1073.82 118.603 1072.8 118.976 1071.85C119.35 1070.9 119.872 1070.07 120.544 1069.37C121.224 1068.66 122.033 1068.1 122.97 1067.7C123.908 1067.29 124.94 1067.09 126.069 1067.09ZM125.919 1070.4C125.579 1070.4 125.264 1070.47 124.974 1070.62C124.692 1070.76 124.43 1070.97 124.19 1071.24C123.957 1071.51 123.754 1071.83 123.58 1072.22C123.406 1072.59 123.265 1073 123.157 1073.46C124.011 1073.31 124.721 1073.15 125.285 1072.99C125.849 1072.82 126.301 1072.65 126.641 1072.49C126.981 1072.31 127.222 1072.14 127.363 1071.98C127.504 1071.8 127.574 1071.64 127.574 1071.48C127.574 1071.33 127.516 1071.19 127.4 1071.06C127.292 1070.93 127.155 1070.81 126.989 1070.71C126.823 1070.61 126.641 1070.54 126.442 1070.49C126.251 1070.43 126.077 1070.4 125.919 1070.4ZM145.566 1078.47C145.558 1078.51 145.553 1078.54 145.553 1078.57C145.553 1078.6 145.553 1078.62 145.553 1078.65C145.553 1078.86 145.587 1079.03 145.653 1079.17C145.719 1079.3 145.79 1079.42 145.865 1079.51C145.947 1079.59 146.022 1079.66 146.088 1079.72C146.155 1079.77 146.188 1079.81 146.188 1079.85C146.188 1079.97 146.064 1080.08 145.815 1080.18L142.468 1081.61C142.459 1081.62 142.43 1081.62 142.381 1081.62C142.314 1081.62 142.248 1081.56 142.182 1081.45C142.115 1081.33 142.049 1081.18 141.982 1081C141.924 1080.83 141.866 1080.64 141.808 1080.44C141.758 1080.23 141.713 1080.04 141.671 1079.87C141.149 1080.47 140.585 1080.92 139.979 1081.2C139.374 1081.48 138.772 1081.62 138.175 1081.62C137.478 1081.62 136.798 1081.47 136.134 1081.16C135.471 1080.85 134.882 1080.42 134.368 1079.85C133.853 1079.28 133.439 1078.59 133.123 1077.79C132.816 1076.98 132.663 1076.08 132.663 1075.08C132.663 1073.89 132.833 1072.81 133.173 1071.83C133.522 1070.85 133.99 1070.01 134.579 1069.3C135.168 1068.6 135.852 1068.06 136.632 1067.67C137.42 1067.28 138.254 1067.09 139.133 1067.09C139.755 1067.09 140.344 1067.22 140.9 1067.47C141.456 1067.72 141.982 1068.05 142.48 1068.45C142.53 1068.2 142.559 1068 142.567 1067.85C142.576 1067.7 142.592 1067.58 142.617 1067.5C142.65 1067.42 142.708 1067.36 142.791 1067.34C142.874 1067.3 143.011 1067.28 143.202 1067.26C143.799 1067.18 144.392 1067.11 144.981 1067.04C145.578 1066.96 146.2 1066.91 146.847 1066.88L145.566 1078.47ZM141.846 1073.78C141.929 1073.31 141.982 1072.87 142.007 1072.45C142.041 1072.03 142.065 1071.64 142.082 1071.29C141.949 1071.19 141.804 1071.09 141.647 1070.98C141.497 1070.88 141.331 1070.78 141.149 1070.68C140.975 1070.59 140.788 1070.51 140.589 1070.45C140.398 1070.39 140.195 1070.36 139.979 1070.36C139.531 1070.36 139.154 1070.51 138.847 1070.8C138.548 1071.09 138.304 1071.44 138.113 1071.87C137.93 1072.29 137.798 1072.74 137.715 1073.21C137.64 1073.68 137.603 1074.1 137.603 1074.47C137.603 1075.78 137.773 1076.74 138.113 1077.35C138.461 1077.96 138.942 1078.26 139.556 1078.26C139.805 1078.26 140.083 1078.19 140.39 1078.05C140.697 1077.91 141.008 1077.71 141.323 1077.47L141.846 1073.78ZM155.097 1062.09L154.649 1066.4C154.591 1066.99 154.529 1067.57 154.462 1068.17C154.404 1068.77 154.346 1069.34 154.288 1069.89C154.23 1070.44 154.176 1070.94 154.126 1071.41C154.077 1071.87 154.035 1072.25 154.002 1072.55L154.86 1071.61L156.254 1069.98C156.428 1069.78 156.598 1069.58 156.764 1069.38C156.93 1069.18 157.079 1069 157.212 1068.86C157.345 1068.7 157.453 1068.57 157.536 1068.47C157.619 1068.36 157.668 1068.3 157.685 1068.28L162.687 1067.93C162.712 1067.93 162.737 1067.92 162.761 1067.92C162.795 1067.92 162.824 1067.92 162.848 1067.92C162.99 1067.92 163.06 1067.96 163.06 1068.03C163.06 1068.09 162.973 1068.22 162.799 1068.42L158.904 1072.78C158.73 1072.97 158.523 1073.19 158.282 1073.45C158.05 1073.7 157.789 1073.97 157.498 1074.28L159.315 1076.45L162.45 1079.82C162.475 1079.86 162.513 1079.89 162.562 1079.92C162.612 1079.93 162.658 1079.95 162.699 1079.97C162.749 1079.98 162.79 1080 162.824 1080.03C162.865 1080.05 162.886 1080.07 162.886 1080.12C162.886 1080.15 162.878 1080.17 162.861 1080.19C162.853 1080.21 162.815 1080.24 162.749 1080.29C162.674 1080.35 162.542 1080.43 162.351 1080.54C162.168 1080.65 161.953 1080.77 161.704 1080.9C161.455 1081.03 161.189 1081.17 160.907 1081.3C160.625 1081.44 160.352 1081.56 160.086 1081.67C159.821 1081.79 159.576 1081.88 159.352 1081.95C159.128 1082.02 158.954 1082.06 158.83 1082.06C158.73 1082.06 158.63 1082.03 158.531 1081.98C158.44 1081.93 158.336 1081.84 158.22 1081.71C158.062 1081.53 157.863 1081.29 157.623 1080.99C157.39 1080.7 157.137 1080.38 156.864 1080.03C156.59 1079.67 156.308 1079.31 156.018 1078.93C155.736 1078.55 155.462 1078.19 155.196 1077.85C154.939 1077.5 154.703 1077.19 154.487 1076.92C154.28 1076.64 154.118 1076.41 154.002 1076.25C153.96 1076.29 153.919 1076.32 153.877 1076.35C153.836 1076.36 153.795 1076.39 153.753 1076.42C153.72 1076.45 153.691 1076.5 153.666 1076.55C153.641 1076.59 153.629 1076.65 153.629 1076.73C153.629 1076.76 153.62 1076.86 153.604 1077.02C153.587 1077.17 153.566 1077.35 153.542 1077.57C153.525 1077.77 153.504 1078 153.479 1078.24C153.454 1078.48 153.43 1078.71 153.405 1078.92C153.388 1079.13 153.371 1079.31 153.355 1079.47C153.338 1079.62 153.33 1079.71 153.33 1079.74C153.33 1079.8 153.33 1079.85 153.33 1079.89C153.338 1079.93 153.342 1079.96 153.342 1079.99C153.342 1080.08 153.309 1080.15 153.243 1080.2C153.185 1080.24 153.036 1080.3 152.795 1080.36L149.535 1081.42C149.444 1081.46 149.324 1081.5 149.174 1081.55C149.025 1081.6 148.88 1081.62 148.739 1081.62C148.623 1081.62 148.519 1081.59 148.428 1081.53C148.345 1081.48 148.303 1081.37 148.303 1081.21L149.871 1063.28C149.871 1063.24 149.867 1063.2 149.859 1063.17C149.85 1063.13 149.846 1063.09 149.846 1063.04C149.846 1062.97 149.875 1062.9 149.933 1062.85C150 1062.78 150.145 1062.72 150.369 1062.66L153.865 1061.83C153.956 1061.81 154.077 1061.77 154.226 1061.71C154.375 1061.66 154.52 1061.63 154.661 1061.63C154.769 1061.63 154.869 1061.65 154.96 1061.7C155.059 1061.75 155.109 1061.85 155.109 1061.99C155.109 1062 155.105 1062.02 155.097 1062.04C155.097 1062.05 155.097 1062.07 155.097 1062.09ZM169.194 1066.42C168.929 1067.71 168.667 1069 168.41 1070.3C168.161 1071.58 167.929 1072.89 167.714 1074.21C167.697 1074.48 167.668 1074.67 167.626 1074.78C167.593 1074.89 167.502 1074.95 167.353 1074.98C167.029 1075.04 166.71 1075.1 166.395 1075.16C166.079 1075.23 165.748 1075.31 165.399 1075.4C165.333 1075.4 165.291 1075.39 165.275 1075.38C165.266 1075.35 165.262 1075.32 165.262 1075.28L165.138 1062.98C165.154 1062.72 165.184 1062.53 165.225 1062.42C165.266 1062.32 165.358 1062.24 165.499 1062.21C166.204 1062.05 166.917 1061.88 167.639 1061.68C168.361 1061.47 169.124 1061.26 169.928 1061.05C169.953 1061.05 169.99 1061.04 170.04 1061.04C170.131 1061.04 170.177 1061.08 170.177 1061.17C170.177 1061.17 170.161 1061.28 170.127 1061.48C170.094 1061.67 170.049 1061.92 169.99 1062.22C169.941 1062.53 169.883 1062.88 169.816 1063.27C169.75 1063.65 169.679 1064.04 169.605 1064.43C169.53 1064.81 169.455 1065.18 169.381 1065.53C169.314 1065.88 169.252 1066.18 169.194 1066.42ZM168.759 1076.72C168.734 1077.08 168.713 1077.35 168.696 1077.54C168.688 1077.73 168.68 1077.88 168.672 1077.98C168.663 1078.07 168.659 1078.13 168.659 1078.15C168.659 1078.18 168.655 1078.2 168.647 1078.21C168.647 1078.22 168.643 1078.25 168.634 1078.29C168.634 1078.32 168.63 1078.4 168.622 1078.52C168.614 1078.64 168.601 1078.81 168.584 1079.05C168.568 1079.28 168.543 1079.6 168.51 1080C168.493 1080.28 168.464 1080.47 168.423 1080.58C168.39 1080.68 168.298 1080.74 168.149 1080.78C167.444 1080.92 166.706 1081.06 165.934 1081.21C165.163 1081.37 164.416 1081.57 163.695 1081.81C163.67 1081.82 163.632 1081.82 163.583 1081.82L163.471 1081.72C163.454 1081.7 163.446 1081.7 163.446 1081.7L163.719 1078.29C163.736 1078.02 163.761 1077.83 163.794 1077.73C163.836 1077.62 163.931 1077.55 164.08 1077.52C164.785 1077.39 165.499 1077.25 166.22 1077.09C166.942 1076.93 167.705 1076.77 168.51 1076.61C168.535 1076.6 168.572 1076.59 168.622 1076.59C168.713 1076.59 168.759 1076.64 168.759 1076.72Z" fill="#D0E6FF"/>
<path d="M282.635 1153.58C282.563 1153.4 282.113 1152.02 281.792 1152.12L234.519 1168.91C235.952 1175.42 240.022 1186.43 243.101 1207.29C226.322 1205.61 217.913 1229.85 232.858 1232.29C237.325 1233.03 241.872 1231.39 245.165 1228.29C256.652 1217.45 249.655 1195.5 247.08 1182.07C258.425 1177.55 267.602 1174.71 278.947 1170.18C280.565 1176.71 282.497 1182.93 283.812 1189.48C274.285 1188.26 262.156 1197.15 262.988 1206.53C263.365 1210.78 267.044 1213.94 271.308 1214.13C276.475 1214.36 281.509 1211.91 285.264 1208.02C290.168 1202.95 292.736 1196.05 292.45 1189.01C292.243 1183.92 285.384 1160.22 282.635 1153.58Z" fill="#FECC32"/>
<path d="M228.109 1225C229.359 1226.91 231.411 1227.88 233.397 1228.11C235.42 1228.31 237.482 1227.81 239.342 1226.9C243.092 1225.09 245.989 1221.7 247.588 1217.47C247.621 1219.76 246.855 1222.08 245.556 1224.05C244.268 1226.05 242.401 1227.69 240.229 1228.75C238.067 1229.77 235.529 1230.28 233.111 1229.68C230.731 1229.11 228.56 1227.3 228.109 1225ZM267.455 1209.75C268.401 1210.55 269.571 1211.07 270.778 1211.32C273.21 1211.87 275.746 1211.39 277.959 1210.44C282.378 1208.43 285.72 1204.46 286.93 1200C285.571 1201.87 284.128 1203.56 282.493 1205.02C280.867 1206.48 279.074 1207.72 277.132 1208.57C275.2 1209.43 273.106 1209.91 271.022 1209.75C268.947 1209.61 266.898 1208.7 265.647 1206.71C265.864 1207.85 266.51 1208.95 267.455 1209.75Z" fill="white"/>
<path d="M185.331 947.043C185.342 946.288 185.33 945.45 185.293 944.531C185.255 943.612 185.164 942.641 185.016 941.614L184.852 938.84C184.125 938.409 183.369 937.93 182.581 937.4C181.793 936.87 181.038 936.302 180.314 935.697C179.592 935.093 178.933 934.456 178.339 933.791C177.745 933.124 177.274 932.429 176.924 931.702C176.902 931.655 177.063 931.526 177.41 931.317C177.755 931.107 178.199 930.86 178.739 930.572C179.277 930.285 179.867 929.978 180.506 929.656C181.145 929.336 181.737 929.037 182.282 928.762C182.827 928.485 183.456 928.16 184.173 927.788C184.037 926.123 183.923 924.534 183.83 923.02C183.738 921.508 183.64 919.984 183.537 918.447C183.433 916.91 183.316 915.344 183.185 913.749C183.053 912.155 182.874 910.458 182.647 908.664C182.236 905.285 181.97 902.269 181.849 899.615C181.728 896.963 181.622 894.49 181.531 892.197C181.512 891.919 181.566 891.625 181.693 891.319C181.82 891.013 181.978 890.727 182.168 890.463C182.359 890.199 182.555 889.961 182.755 889.748C182.956 889.536 183.116 889.374 183.234 889.259C183.316 889.191 183.623 888.913 184.154 888.428C184.685 887.943 185.299 887.403 185.993 886.809C186.689 886.216 187.389 885.648 188.096 885.107C188.802 884.567 189.39 884.184 189.858 883.959L190.491 883.654C190.866 883.474 191.265 883.391 191.69 883.403C192.114 883.416 192.508 883.651 192.873 884.11C195.383 886.452 198.095 889.023 201.009 891.818C203.924 894.616 206.976 897.772 210.164 901.287C211.878 903.176 213.525 904.951 215.103 906.616C216.681 908.281 218.237 909.899 219.77 911.47C221.303 913.042 222.841 914.608 224.386 916.174C225.931 917.739 227.522 919.356 229.158 921.02C229.774 921.763 230.312 922.328 230.771 922.713C231.23 923.097 231.62 923.385 231.943 923.577C232.266 923.769 232.516 923.902 232.695 923.973C232.874 924.046 232.998 924.152 233.066 924.293C233.133 924.433 232.977 924.681 232.6 925.034L226.223 931.124C225.763 931.606 225.289 932.092 224.805 932.585C224.32 933.077 223.859 933.529 223.422 933.942C222.985 934.353 222.599 934.703 222.263 934.995C221.928 935.287 221.677 935.472 221.513 935.551L221.302 935.651C220.974 935.808 220.692 935.82 220.457 935.69C220.22 935.558 220.033 935.41 219.897 935.245C219.291 934.583 218.722 934 218.189 933.491C217.657 932.984 217.131 932.471 216.609 931.956C216.088 931.442 215.548 930.889 214.987 930.291C214.427 929.696 213.811 928.967 213.138 928.106C213.035 928.012 212.859 927.975 212.609 927.994C212.359 928.014 212.076 928.071 211.76 928.163C211.445 928.257 211.12 928.376 210.787 928.523C210.452 928.668 210.145 928.809 209.864 928.944C208.973 929.372 208.255 929.723 207.711 930C207.165 930.276 206.685 930.522 206.268 930.736C205.853 930.951 205.453 931.155 205.073 931.353C204.691 931.55 204.22 931.784 203.656 932.054C202.976 932.38 202.277 932.709 201.557 933.041C200.836 933.372 200.177 933.666 199.58 933.924L197.543 934.817C197.744 936.798 197.894 938.67 197.993 940.439C198.092 942.208 198.168 944.046 198.22 945.956C198.263 946.165 198.225 946.371 198.105 946.573C197.986 946.774 197.832 946.921 197.645 947.01C197.504 947.078 197.415 947.106 197.382 947.093C194.715 947.366 192.416 947.472 190.487 947.419C188.559 947.369 186.839 947.242 185.331 947.043ZM193.849 904.062C194.288 906.419 194.64 908.577 194.905 910.541C195.17 912.505 195.389 914.252 195.563 915.784C195.736 917.317 195.875 918.611 195.981 919.672C196.085 920.732 196.186 921.542 196.282 922.101L196.434 922.416C196.501 922.556 196.534 922.657 196.534 922.715L204.971 918.664C204.162 917.64 203.329 916.612 202.473 915.58C201.618 914.549 200.74 913.457 199.839 912.302C198.939 911.149 197.994 909.901 197.004 908.56C196.014 907.219 194.961 905.72 193.849 904.062Z" fill="#ABDBC4"/>
<path d="M1791.13 1040.14C1792.24 1037.69 1793.61 1035.46 1795.23 1033.46C1796.85 1031.47 1798.65 1029.74 1800.64 1028.27C1802.63 1026.8 1804.76 1025.61 1807.04 1024.71C1809.32 1023.81 1811.68 1023.22 1814.13 1022.94C1816.57 1022.66 1819.05 1022.72 1821.58 1023.12C1824.11 1023.51 1826.61 1024.27 1829.09 1025.4C1831.05 1026.29 1832.72 1027.2 1834.09 1028.13C1835.45 1029.06 1836.6 1029.97 1837.53 1030.87C1838.46 1031.76 1839.19 1032.61 1839.72 1033.42C1840.26 1034.22 1840.67 1034.95 1840.97 1035.6C1840.95 1035.59 1840.9 1035.66 1840.83 1035.82C1840.68 1036.15 1840.43 1036.78 1840.08 1037.7C1839.73 1038.62 1839.34 1039.64 1838.93 1040.77C1838.51 1041.9 1838.07 1043.04 1837.61 1044.19C1837.16 1045.35 1836.74 1046.33 1836.37 1047.16C1836.31 1047.29 1836.19 1047.42 1836.03 1047.55C1835.86 1047.68 1835.6 1047.66 1835.24 1047.5C1835.04 1047.41 1834.81 1047.26 1834.55 1047.06C1834.15 1046.72 1833.69 1046.14 1833.2 1045.34C1832.7 1044.53 1832.1 1043.65 1831.39 1042.7C1830.68 1041.74 1829.83 1040.79 1828.84 1039.85C1827.86 1038.9 1826.68 1038.11 1825.29 1037.48C1823.46 1036.65 1821.63 1036.26 1819.81 1036.31C1817.98 1036.35 1816.26 1036.77 1814.63 1037.57C1813 1038.37 1811.5 1039.51 1810.13 1041C1808.75 1042.49 1807.59 1044.27 1806.65 1046.34C1805.82 1048.17 1805.22 1050.01 1804.87 1051.86C1804.52 1053.7 1804.46 1055.44 1804.71 1057.06C1804.96 1058.68 1805.52 1060.14 1806.4 1061.44C1807.27 1062.74 1808.52 1063.75 1810.12 1064.48C1811.4 1065.06 1812.54 1065.53 1813.57 1065.88C1814.59 1066.24 1815.57 1066.51 1816.51 1066.7C1817.45 1066.88 1818.4 1066.99 1819.37 1067.02C1820.34 1067.06 1821.4 1067.04 1822.58 1066.95C1822.63 1066.94 1822.75 1066.98 1822.92 1067.07C1823.08 1067.14 1823.16 1067.25 1823.16 1067.39C1823.16 1067.54 1823.07 1067.81 1822.9 1068.18L1821.08 1072.2C1820.74 1072.94 1820.41 1073.66 1820.08 1074.35C1819.75 1075.05 1819.45 1075.68 1819.19 1076.23C1818.92 1076.78 1818.7 1077.23 1818.54 1077.57C1818.37 1077.91 1818.27 1078.08 1818.25 1078.07C1816.93 1078.25 1815.59 1078.28 1814.23 1078.16C1812.87 1078.04 1811.52 1077.82 1810.17 1077.49C1808.83 1077.16 1807.51 1076.75 1806.23 1076.26C1804.94 1075.77 1803.72 1075.26 1802.56 1074.74C1799.41 1073.31 1796.73 1071.37 1794.53 1068.93C1792.33 1066.49 1790.7 1063.74 1789.66 1060.68C1788.61 1057.62 1788.18 1054.33 1788.38 1050.81C1788.58 1047.29 1789.49 1043.74 1791.13 1040.14Z" fill="#B1C6D9"/>
<path d="M1608.18 983.65C1607.88 983.279 1607.73 982.947 1607.74 982.654C1607.76 982.36 1607.85 982.092 1608.03 981.847C1608.08 981.791 1608.11 981.757 1608.13 981.745C1608.15 981.733 1608.19 981.699 1608.23 981.643C1609.87 979.727 1611.6 977.722 1613.42 975.63C1615.24 973.538 1617.09 971.419 1619 969.272C1620.9 967.126 1622.79 964.983 1624.69 962.846C1626.58 960.709 1628.42 958.637 1630.22 956.632L1630.19 956.611C1630.12 956.556 1629.86 956.462 1629.43 956.328C1628.99 956.194 1628.5 956.035 1627.95 955.851C1627.41 955.666 1626.87 955.465 1626.34 955.245C1625.8 955.026 1625.4 954.813 1625.11 954.605C1624.87 954.425 1624.77 954.203 1624.8 953.94C1624.84 953.677 1624.94 953.432 1625.1 953.207C1625.23 953.038 1625.37 952.9 1625.54 952.791C1627.12 951.701 1628.66 950.718 1630.14 949.843C1631.63 948.968 1633.14 948.055 1634.68 947.105C1636.67 947.387 1638.65 947.809 1640.61 948.37C1642.57 948.932 1644.48 949.598 1646.33 950.368C1648.18 951.138 1649.95 951.998 1651.66 952.949C1653.36 953.9 1654.94 954.915 1656.41 955.993C1658.45 957.5 1660.22 959.137 1661.71 960.903C1663.21 962.67 1664.3 964.483 1665 966.344C1665.7 968.205 1665.95 970.084 1665.75 971.981C1665.56 973.878 1664.8 975.718 1663.49 977.501C1662.92 978.27 1662.21 978.887 1661.34 979.351C1660.48 979.816 1659.54 980.174 1658.53 980.428C1657.52 980.681 1656.48 980.843 1655.42 980.912C1654.35 980.981 1653.33 981.006 1652.36 980.987C1652.78 982.307 1653.15 983.501 1653.48 984.568C1653.81 985.635 1654.01 986.647 1654.09 987.601C1654.17 988.557 1654.07 989.492 1653.8 990.408C1653.53 991.324 1653.02 992.298 1652.26 993.33C1651.1 994.906 1649.71 996.208 1648.1 997.235C1646.49 998.262 1644.75 999.035 1642.87 999.552C1641 1000.07 1639.04 1000.34 1636.98 1000.36C1634.93 1000.38 1632.86 1000.17 1630.8 999.731C1628.73 999.294 1626.7 998.635 1624.7 997.754C1622.7 996.873 1620.82 995.79 1619.08 994.504C1618.44 994.034 1617.63 993.338 1616.66 992.419C1615.69 991.499 1614.68 990.518 1613.64 989.476C1612.6 988.433 1611.59 987.385 1610.61 986.333C1609.64 985.28 1608.83 984.386 1608.18 983.65ZM1643.91 962.335C1641.92 964.286 1639.97 966.312 1638.04 968.413C1636.12 970.513 1634.28 972.572 1632.52 974.589C1630.75 976.606 1629.1 978.533 1627.54 980.369C1625.98 982.205 1624.58 983.834 1623.33 985.258C1624.08 985.811 1624.92 986.367 1625.86 986.926C1626.79 987.485 1627.77 987.979 1628.78 988.408C1629.8 988.838 1630.83 989.189 1631.89 989.462C1632.95 989.735 1633.97 989.856 1634.95 989.824C1635.93 989.793 1636.85 989.582 1637.72 989.192C1638.58 988.803 1639.33 988.176 1639.97 987.313C1640.36 986.788 1640.54 986.206 1640.52 985.568C1640.5 984.929 1640.34 984.282 1640.06 983.624C1639.78 982.966 1639.41 982.318 1638.95 981.678C1638.5 981.038 1638.03 980.447 1637.55 979.903C1637.06 979.36 1636.61 978.879 1636.18 978.46C1635.75 978.042 1635.42 977.724 1635.21 977.506C1634.97 977.275 1634.87 977.057 1634.91 976.851C1634.94 976.646 1635.05 976.43 1635.21 976.205C1635.39 975.962 1635.81 975.706 1636.47 975.439C1637.13 975.172 1638.03 974.81 1639.18 974.353L1641.75 973.338C1642.4 973.524 1643.12 973.694 1643.92 973.848C1644.72 974.002 1645.5 974.083 1646.28 974.09C1647.06 974.097 1647.78 973.996 1648.46 973.785C1649.14 973.574 1649.67 973.197 1650.08 972.652C1651.21 971.113 1651.74 969.69 1651.68 968.383C1651.61 967.076 1650.95 965.959 1649.7 965.032C1648.27 963.983 1646.34 963.083 1643.91 962.335Z" fill="#FFC6A3"/>
<path d="M1744.01 889.161C1731.97 906.594 1715.25 912.345 1715.25 912.345C1726.39 901.391 1723.17 891.154 1723.16 891.138C1723.04 890.751 1717.94 890.418 1717.47 890.351C1714.48 889.927 1711.43 889.734 1708.48 889.078C1696.94 886.506 1686.95 878.036 1684.12 866.338C1677.84 840.383 1703.22 827.589 1724.92 824.665C1745.96 821.83 1778.81 825.945 1784.25 851.236C1789.45 875.42 1767.25 887.256 1746.65 888.996C1745.77 889.07 1744.89 889.143 1744.01 889.161Z" fill="white"/>
<path d="M1696.82 840.656C1702.26 836.9 1708.19 833.775 1714.54 831.619C1720.89 829.442 1727.58 828.295 1734.3 828.048C1737.65 827.97 1741.02 828.046 1744.36 828.423C1747.7 828.843 1751.02 829.415 1754.25 830.359C1760.7 832.185 1766.92 835.282 1771.72 839.884C1766.08 836.41 1759.94 834.204 1753.63 832.901C1747.31 831.644 1740.85 831.139 1734.41 831.399C1727.97 831.572 1721.56 832.524 1715.29 834.117C1709.02 835.733 1702.93 838.116 1696.82 840.656Z" fill="#FFD0B3"/>
<path d="M1712.78 871.026C1712.82 870.421 1712.87 869.836 1712.91 869.272C1712.95 868.708 1712.99 868.16 1713.02 867.629L1713.47 861.756C1713.52 861.309 1713.56 860.902 1713.59 860.537C1713.62 860.164 1713.65 859.803 1713.67 859.455C1713.69 859.098 1713.71 858.741 1713.73 858.385C1713.75 858.02 1713.78 857.617 1713.8 857.178C1713.53 857.169 1713.24 857.165 1712.93 857.165C1712.63 857.165 1712.32 857.165 1711.99 857.165H1709.58C1709.49 857.165 1709.44 857.132 1709.41 857.066C1709.39 856.991 1709.39 856.925 1709.39 856.867V856.779L1710.75 853.184L1710.74 853.134C1710.74 853.092 1710.77 853.059 1710.82 853.034C1710.87 853.001 1711 852.976 1711.19 852.96C1712.33 852.893 1713.44 852.831 1714.51 852.773C1715.59 852.707 1716.65 852.649 1717.7 852.599C1718.75 852.549 1719.8 852.499 1720.85 852.449C1721.9 852.4 1722.98 852.354 1724.09 852.313C1724.19 852.313 1724.3 852.325 1724.4 852.35C1724.52 852.375 1724.58 852.466 1724.58 852.624C1724.58 852.64 1724.57 852.657 1724.57 852.673C1724.56 852.69 1724.55 852.707 1724.55 852.723C1724.42 853.063 1724.3 853.387 1724.18 853.694C1724.07 854.001 1723.96 854.303 1723.86 854.602C1723.75 854.901 1723.64 855.203 1723.52 855.51C1723.41 855.817 1723.29 856.141 1723.16 856.481C1723.15 856.489 1723.13 856.531 1723.11 856.605C1723.08 856.672 1723.05 856.75 1723 856.842C1722.95 856.925 1722.88 857.003 1722.8 857.078C1722.72 857.153 1722.61 857.194 1722.49 857.202C1722.45 857.194 1722.4 857.19 1722.36 857.19C1722.32 857.19 1722.28 857.19 1722.23 857.19H1718.9C1718.86 857.613 1718.82 858.061 1718.78 858.534C1718.75 859.007 1718.71 859.467 1718.66 859.915L1717.75 869.633C1717.74 869.707 1717.72 869.782 1717.7 869.856C1717.68 869.931 1717.63 869.985 1717.54 870.018L1714.01 871.287C1713.92 871.321 1713.8 871.362 1713.65 871.412C1713.5 871.462 1713.36 871.486 1713.22 871.486C1713.1 871.486 1713 871.457 1712.91 871.399C1712.82 871.341 1712.78 871.233 1712.78 871.076V871.026ZM1734.84 868.127C1734.83 868.16 1734.83 868.193 1734.83 868.227C1734.83 868.251 1734.83 868.276 1734.83 868.301C1734.83 868.509 1734.86 868.683 1734.93 868.824C1735 868.956 1735.07 869.068 1735.14 869.16C1735.22 869.243 1735.3 869.313 1735.37 869.371C1735.43 869.421 1735.47 869.467 1735.47 869.508C1735.47 869.624 1735.34 869.732 1735.09 869.832L1731.74 871.262C1731.74 871.271 1731.71 871.275 1731.66 871.275C1731.59 871.275 1731.53 871.217 1731.46 871.101C1731.39 870.985 1731.33 870.835 1731.26 870.653C1731.2 870.479 1731.14 870.292 1731.09 870.093C1731.04 869.886 1730.99 869.695 1730.95 869.521C1730.43 870.126 1729.86 870.57 1729.26 870.852C1728.65 871.134 1728.05 871.275 1727.45 871.275C1726.76 871.275 1726.08 871.121 1725.41 870.815C1724.75 870.508 1724.16 870.072 1723.64 869.508C1723.13 868.936 1722.72 868.247 1722.4 867.443C1722.09 866.638 1721.94 865.734 1721.94 864.73C1721.94 863.544 1722.11 862.462 1722.45 861.483C1722.8 860.504 1723.27 859.662 1723.86 858.957C1724.45 858.252 1725.13 857.708 1725.91 857.327C1726.7 856.937 1727.53 856.742 1728.41 856.742C1729.03 856.742 1729.62 856.871 1730.18 857.128C1730.73 857.377 1731.26 857.7 1731.76 858.098C1731.81 857.85 1731.84 857.65 1731.84 857.501C1731.85 857.352 1731.87 857.236 1731.89 857.153C1731.93 857.07 1731.99 857.016 1732.07 856.991C1732.15 856.958 1732.29 856.933 1732.48 856.916C1733.08 856.833 1733.67 856.759 1734.26 856.692C1734.86 856.618 1735.48 856.564 1736.12 856.531L1734.84 868.127ZM1731.12 863.436C1731.21 862.963 1731.26 862.52 1731.28 862.105C1731.32 861.682 1731.34 861.296 1731.36 860.948C1731.23 860.848 1731.08 860.744 1730.92 860.637C1730.77 860.529 1730.61 860.429 1730.43 860.338C1730.25 860.238 1730.07 860.16 1729.87 860.102C1729.68 860.044 1729.47 860.014 1729.26 860.014C1728.81 860.014 1728.43 860.16 1728.12 860.45C1727.83 860.74 1727.58 861.097 1727.39 861.52C1727.21 861.943 1727.07 862.391 1726.99 862.864C1726.92 863.337 1726.88 863.756 1726.88 864.121C1726.88 865.431 1727.05 866.393 1727.39 867.007C1727.74 867.613 1728.22 867.915 1728.83 867.915C1729.08 867.915 1729.36 867.845 1729.67 867.704C1729.97 867.563 1730.28 867.368 1730.6 867.119L1731.12 863.436ZM1738.53 860.102C1738.63 858.965 1738.7 857.841 1738.76 856.73C1738.83 855.618 1738.9 854.478 1738.97 853.308C1738.99 853.034 1739.02 852.848 1739.05 852.748C1739.09 852.64 1739.19 852.57 1739.33 852.537C1740.11 852.396 1740.88 852.255 1741.65 852.114C1742.43 851.964 1743.21 851.769 1743.99 851.529C1744.01 851.52 1744.05 851.516 1744.1 851.516C1744.19 851.516 1744.24 851.558 1744.24 851.641L1742.62 869.409V869.62C1742.62 869.695 1742.59 869.757 1742.53 869.807C1742.47 869.848 1742.34 869.898 1742.12 869.956L1738.86 871.151C1738.77 871.192 1738.65 871.233 1738.5 871.275C1738.35 871.325 1738.21 871.35 1738.07 871.35C1737.95 871.35 1737.85 871.321 1737.75 871.262C1737.67 871.204 1737.63 871.105 1737.63 870.964V870.889C1737.7 870.051 1737.76 869.234 1737.82 868.438C1737.88 867.633 1737.95 866.804 1738.02 865.95C1738.09 865.095 1738.17 864.191 1738.25 863.237C1738.34 862.283 1738.43 861.238 1738.53 860.102ZM1752.11 851.74L1751.67 856.058C1751.61 856.638 1751.55 857.227 1751.48 857.825C1751.42 858.422 1751.36 858.994 1751.3 859.542C1751.25 860.089 1751.19 860.595 1751.14 861.06C1751.09 861.524 1751.05 861.906 1751.02 862.204L1751.88 861.259L1753.27 859.629C1753.44 859.43 1753.61 859.231 1753.78 859.032C1753.95 858.832 1754.1 858.658 1754.23 858.509C1754.36 858.351 1754.47 858.223 1754.55 858.123C1754.63 858.015 1754.68 857.953 1754.7 857.937L1759.7 857.588C1759.73 857.58 1759.75 857.576 1759.78 857.576C1759.81 857.576 1759.84 857.576 1759.86 857.576C1760.01 857.576 1760.08 857.613 1760.08 857.688C1760.08 857.746 1759.99 857.874 1759.82 858.073L1755.92 862.428C1755.75 862.619 1755.54 862.843 1755.3 863.1C1755.07 863.349 1754.8 863.627 1754.51 863.934L1756.33 866.099L1759.47 869.471C1759.49 869.512 1759.53 869.545 1759.58 869.57C1759.63 869.587 1759.67 869.603 1759.72 869.62C1759.77 869.637 1759.81 869.657 1759.84 869.682C1759.88 869.699 1759.9 869.728 1759.9 869.769C1759.9 869.803 1759.89 869.827 1759.88 869.844C1759.87 869.861 1759.83 869.894 1759.77 869.944C1759.69 870.002 1759.56 870.085 1759.37 870.192C1759.18 870.3 1758.97 870.421 1758.72 870.553C1758.47 870.686 1758.21 870.819 1757.92 870.951C1757.64 871.092 1757.37 871.217 1757.1 871.325C1756.84 871.441 1756.59 871.532 1756.37 871.598C1756.14 871.673 1755.97 871.71 1755.85 871.71C1755.75 871.71 1755.65 871.686 1755.55 871.636C1755.46 871.586 1755.35 871.495 1755.24 871.362C1755.08 871.18 1754.88 870.939 1754.64 870.64C1754.41 870.35 1754.15 870.031 1753.88 869.682C1753.61 869.326 1753.32 868.961 1753.03 868.587C1752.75 868.206 1752.48 867.845 1752.21 867.505C1751.96 867.156 1751.72 866.845 1751.5 866.572C1751.3 866.29 1751.13 866.066 1751.02 865.9C1750.98 865.941 1750.94 865.974 1750.89 865.999C1750.85 866.016 1750.81 866.041 1750.77 866.074C1750.74 866.107 1750.71 866.149 1750.68 866.198C1750.66 866.24 1750.65 866.302 1750.65 866.385C1750.65 866.418 1750.64 866.514 1750.62 866.671C1750.6 866.821 1750.58 867.003 1750.56 867.219C1750.54 867.426 1750.52 867.65 1750.5 867.891C1750.47 868.131 1750.45 868.359 1750.42 868.575C1750.4 868.782 1750.39 868.965 1750.37 869.122C1750.35 869.272 1750.35 869.363 1750.35 869.396C1750.35 869.454 1750.35 869.504 1750.35 869.545C1750.35 869.579 1750.36 869.612 1750.36 869.645C1750.36 869.736 1750.33 869.807 1750.26 869.856C1750.2 869.898 1750.05 869.952 1749.81 870.018L1746.55 871.076C1746.46 871.109 1746.34 871.151 1746.19 871.2C1746.04 871.25 1745.9 871.275 1745.76 871.275C1745.64 871.275 1745.54 871.246 1745.44 871.188C1745.36 871.13 1745.32 871.022 1745.32 870.864L1746.89 852.935C1746.89 852.893 1746.88 852.856 1746.87 852.823C1746.87 852.781 1746.86 852.74 1746.86 852.698C1746.86 852.624 1746.89 852.557 1746.95 852.499C1747.02 852.433 1747.16 852.371 1747.39 852.313L1750.88 851.479C1750.97 851.462 1751.09 851.425 1751.24 851.367C1751.39 851.309 1751.54 851.28 1751.68 851.28C1751.79 851.28 1751.89 851.305 1751.98 851.355C1752.08 851.404 1752.13 851.5 1752.13 851.641C1752.13 851.657 1752.12 851.674 1752.11 851.69C1752.11 851.707 1752.11 851.724 1752.11 851.74ZM1766.21 856.07C1765.95 857.364 1765.68 858.658 1765.43 859.952C1765.18 861.238 1764.95 862.54 1764.73 863.859C1764.71 864.133 1764.68 864.324 1764.64 864.432C1764.61 864.539 1764.52 864.606 1764.37 864.631C1764.05 864.689 1763.73 864.751 1763.41 864.817C1763.1 864.884 1762.76 864.962 1762.42 865.054C1762.35 865.054 1762.31 865.045 1762.29 865.029C1762.28 865.004 1762.28 864.971 1762.28 864.929L1762.15 852.636C1762.17 852.371 1762.2 852.184 1762.24 852.076C1762.28 851.968 1762.37 851.898 1762.52 851.865C1763.22 851.707 1763.93 851.529 1764.66 851.33C1765.38 851.122 1766.14 850.915 1766.94 850.708C1766.97 850.699 1767.01 850.695 1767.06 850.695C1767.15 850.695 1767.19 850.737 1767.19 850.82C1767.19 850.828 1767.18 850.931 1767.14 851.131C1767.11 851.321 1767.06 851.57 1767.01 851.877C1766.96 852.184 1766.9 852.532 1766.83 852.922C1766.77 853.304 1766.7 853.69 1766.62 854.079C1766.55 854.461 1766.47 854.83 1766.4 855.187C1766.33 855.535 1766.27 855.83 1766.21 856.07ZM1765.78 866.373C1765.75 866.729 1765.73 867.003 1765.71 867.194C1765.7 867.385 1765.7 867.53 1765.69 867.629C1765.68 867.721 1765.68 867.779 1765.68 867.803C1765.68 867.828 1765.67 867.849 1765.66 867.866C1765.66 867.874 1765.66 867.899 1765.65 867.94C1765.65 867.974 1765.65 868.052 1765.64 868.177C1765.63 868.293 1765.62 868.467 1765.6 868.699C1765.58 868.932 1765.56 869.251 1765.53 869.657C1765.51 869.931 1765.48 870.122 1765.44 870.23C1765.41 870.329 1765.31 870.396 1765.17 870.429C1764.46 870.57 1763.72 870.715 1762.95 870.864C1762.18 871.022 1761.43 871.221 1760.71 871.462C1760.69 871.47 1760.65 871.474 1760.6 871.474L1760.49 871.374C1760.47 871.358 1760.46 871.35 1760.46 871.35L1760.74 867.94C1760.75 867.675 1760.78 867.488 1760.81 867.38C1760.85 867.273 1760.95 867.202 1761.1 867.169C1761.8 867.044 1762.52 866.903 1763.24 866.746C1763.96 866.588 1764.72 866.427 1765.53 866.261C1765.55 866.252 1765.59 866.248 1765.64 866.248C1765.73 866.248 1765.78 866.29 1765.78 866.373Z" fill="#FFD0B3"/>
</svg>
