<svg width="1920" height="1004" viewBox="0 0 1920 1004" fill="none" xmlns="http://www.w3.org/2000/svg">
<g opacity="0.4">
<path d="M81.5849 244.517C132.816 179.812 236.795 186.523 283.404 252.864C288.769 260.511 293.281 268.751 296.768 277.425C311.453 314.091 307.6 356.932 285.039 389.444C259.928 425.653 222.716 436.506 181.82 444.968C171.014 447.204 162.101 455.816 155.013 464.123C148.647 471.589 142.993 479.727 135.793 486.389C121.973 499.186 105.803 500.495 88.3501 494.897C76.2095 491.006 64.2365 484.849 56.6803 474.589C47.7406 462.455 48.7061 447.319 56.2666 434.815C60.8313 427.249 66.6644 420.293 69.5021 411.924C74.4306 397.34 69.4072 381.435 64.0936 366.984C51.666 333.163 53.053 292.964 70.7652 260.826C73.9889 254.985 77.6143 249.549 81.5982 244.521L81.5849 244.517Z" fill="#333333"/>
<path d="M72.9808 282.192C75.6185 273.67 79.3205 265.462 84.1092 257.801C106.56 221.942 148.503 203.752 190.13 208.329C232.402 212.979 273.152 242.411 286.971 283.367C294.839 306.696 292.068 332.22 283.396 354.902C277.341 370.73 268.46 385.517 257.465 398.405C247.151 410.497 234.11 420.228 219.642 426.771C204.806 433.469 187.953 433.093 172.19 436.793C162.84 438.994 152.088 440.238 142.274 442.74C148.556 434.586 154.677 426.289 160.69 417.921C168.06 407.662 175.046 397.144 182.623 387.012C183.687 385.582 184.76 384.168 185.834 382.755C186.292 382.155 186.754 381.542 187.226 380.945C187.226 380.945 187.942 380.017 188.115 379.794C189.924 377.486 191.743 375.195 193.598 372.928C197.725 367.896 202.524 363.795 204.469 357.328C205.658 353.365 203.01 349.069 199.096 348.021C194.176 346.702 191.951 350.826 189.459 354.199C185.748 359.215 181.666 363.975 177.718 368.815C178.837 367.442 150.371 340.522 147.314 337.647C149.81 333.992 152.389 330.133 152.792 325.719C153.167 321.567 150.289 315.381 145.409 315.448C140.555 315.522 137.483 322.014 135.91 325.717C124.907 351.701 113.872 377.648 103.424 403.838C101.288 409.219 99.1547 414.587 97.0182 419.968C97.2942 418.568 97.4608 417.153 97.4652 415.708C97.5464 406.147 95.1569 395.173 90.4604 386.883C85.5387 378.165 80.2607 370.088 76.5093 360.705C66.5969 335.907 65.0864 307.633 72.9808 282.192Z" fill="#F7C158"/>
<path d="M137.811 359.669C138.781 357.32 139.763 354.975 140.733 352.627C140.456 353.29 153.641 364.817 154.834 366.13C156.416 367.843 168.802 379.285 168.359 380.938C157.917 396.1 147.155 411.135 136.129 425.885C134.21 428.447 132.277 431.005 130.317 433.556C129.862 434.143 129.407 434.73 128.966 435.32C128.857 435.461 128.772 435.566 128.704 435.661C128.619 435.766 128.511 435.907 128.358 436.107C127.448 437.281 126.528 438.438 125.609 439.595C121.805 444.374 117.887 449.051 113.923 453.687C112.497 455.36 111.106 457.057 109.716 458.754C107.057 459.261 104.332 458.956 101.505 457.391C100.604 456.894 99.7434 456.295 98.9371 455.654C98.0392 454.931 108.165 432.695 109.108 430.34C112.586 421.59 116.052 412.837 119.544 404.09C125.493 389.241 131.663 374.465 137.808 359.682L137.811 359.669Z" fill="#F7C158"/>
<path d="M64.1434 445.594C65.7147 445.179 67.2795 445.158 68.7494 445.439C68.3586 444.781 67.9846 444.114 67.6237 443.45C65.5178 439.512 68.4471 434.981 72.8876 433.804C74.459 433.389 76.0237 433.368 77.4937 433.649C77.1029 432.991 76.7288 432.324 76.368 431.66C74.262 427.722 77.1913 423.191 81.6319 422.014C83.2032 421.599 84.7679 421.579 86.2379 421.859C85.8471 421.201 85.473 420.534 85.1122 419.87C83.0063 415.932 85.9355 411.402 90.3761 410.224C95.2737 408.928 100.147 411.425 102.257 415.35C102.418 415.648 103.267 417.08 103.399 417.328C103.957 418.158 104.531 418.978 105.152 419.782C106.386 421.417 107.772 422.965 109.228 424.461C109.166 424.374 110.712 425.851 111.023 426.119C112.012 426.979 113.045 427.78 114.091 428.585C114.963 429.244 115.886 429.874 116.795 430.5C117.347 430.875 117.919 431.227 118.474 431.588C118.583 431.66 118.83 431.797 119.073 431.947C121.116 433.104 123.264 434.133 125.454 435.06C126.496 435.51 127.565 435.91 128.635 436.309C128.932 436.417 129.229 436.525 129.516 436.617C129.741 436.677 130.573 436.957 130.838 437.027C133.261 437.719 135.73 438.239 138.201 438.646C139.3 438.827 140.414 438.955 141.515 439.08C141.611 439.092 141.724 439.094 141.863 439.103C142.547 439.144 143.237 439.159 143.911 439.184C148.908 439.318 153.466 442.198 154.039 446.618C154.543 450.609 150.897 454.749 145.897 454.628C145.093 454.611 144.297 454.568 143.5 454.525C144.455 455.617 145.111 456.927 145.295 458.408C145.799 462.399 142.152 466.539 137.152 466.418C136.349 466.401 135.553 466.358 134.756 466.315C135.711 467.407 136.366 468.717 136.551 470.198C137.055 474.189 133.408 478.329 128.408 478.208C127.605 478.191 126.808 478.148 126.012 478.105C126.967 479.197 127.622 480.507 127.807 481.988C128.311 485.979 124.664 490.119 119.664 489.998C93.9577 489.333 69.689 475.473 58.8627 455.25C56.7568 451.312 59.686 446.781 64.1266 445.604L64.1434 445.594Z" fill="#E0DFD6"/>
<path d="M115.436 448.493C115.568 448.551 115.699 448.619 115.831 448.677C120.713 450.957 125.831 452.524 131.133 453.611C135.242 454.45 140.609 455.752 144.841 454.494C143.903 454.77 141.331 453.543 140.373 453.3C138.452 452.808 136.524 452.331 134.603 451.839C130.979 450.902 127.328 449.977 123.791 448.752C114.288 445.446 106.073 439.969 98.565 433.396C94.4139 429.76 90.8284 424.861 86.1909 421.889C86.4686 422.07 86.8902 423.973 87.0829 424.384C87.7842 425.893 88.7859 427.106 89.8446 428.378C96.8414 436.764 105.56 443.801 115.436 448.493Z" fill="#808080"/>
<path d="M105.862 459.977C105.994 460.035 106.125 460.103 106.257 460.161C111.139 462.442 116.257 464.009 121.558 465.096C125.668 465.934 131.035 467.236 135.267 465.978C134.329 466.255 131.757 465.027 130.799 464.784C128.878 464.292 126.949 463.816 125.028 463.324C121.405 462.386 117.753 461.462 114.216 460.236C104.714 456.93 96.4989 451.454 88.9908 444.88C84.8397 441.244 81.2542 436.346 76.6167 433.373C76.8944 433.554 77.316 435.457 77.5087 435.869C78.21 437.377 79.2116 438.59 80.2704 439.863C87.2672 448.248 95.9854 455.286 105.862 459.977Z" fill="#808080"/>
<path d="M98.206 472.415C98.338 472.472 98.4687 472.541 98.6007 472.598C103.483 474.879 108.601 476.446 113.902 477.533C118.011 478.372 123.378 479.674 127.61 478.416C126.673 478.692 124.1 477.465 123.142 477.222C121.221 476.73 119.293 476.253 117.372 475.761C113.749 474.824 110.097 473.899 106.56 472.673C97.0574 469.368 88.8427 463.891 81.3345 457.318C77.1834 453.682 73.598 448.783 68.9604 445.811C69.2382 445.992 69.6597 447.895 69.8525 448.306C70.5537 449.815 71.5554 451.028 72.6142 452.3C79.6109 460.686 88.3291 467.723 98.206 472.415Z" fill="#808080"/>
<path d="M309.131 374.028C314.151 373.951 319.186 376.922 323.686 378.935C327.639 380.702 331.547 382.58 335.475 384.4C339.405 386.223 343.224 388.204 347.054 390.229C351.034 392.33 353.898 395.934 352.797 400.667C352.294 402.834 350.13 404.431 347.938 404.445C346.074 404.455 344.652 403.465 343.723 402.038C343.61 401.97 343.507 401.89 343.391 401.827C343.207 401.724 343.144 401.674 343.116 401.641C343.002 401.622 342.81 401.579 342.44 401.481C340.572 400.981 338.734 400.255 336.902 399.647C333.461 398.507 330.105 397.121 326.728 395.804C322.993 394.348 319.239 392.929 315.539 391.382C311.708 389.779 307.318 388.514 304.413 385.395C300.513 381.204 303.297 374.119 309.131 374.028Z" fill="#333333"/>
<path d="M322.637 305.602C323.485 305.136 324.288 304.683 325.185 304.314C326.6 303.733 328.138 303.555 329.667 303.452C331.319 303.34 333.02 303.547 334.677 303.586C338.016 303.666 341.343 303.583 344.681 303.472C347.907 303.365 351.124 303.316 354.348 303.073C355.997 302.948 357.635 302.756 359.281 302.614C360.401 302.515 361.542 302.579 362.648 302.797C362.988 302.865 363.274 302.973 363.6 303.089C364.137 303.197 364.615 303.412 365.037 303.73C365.281 303.911 365.262 303.887 364.985 303.656C366.585 303.933 367.837 305.611 368.017 307.123C368.19 308.57 367.658 309.721 366.7 310.654C366.413 311.08 366.098 311.484 365.747 311.857C365.296 312.294 364.769 312.684 364.248 313.036C363.317 313.663 362.212 314.081 361.152 314.434C359.583 314.96 357.939 315.334 356.332 315.736C352.825 316.616 349.272 317.435 345.688 317.921C342.152 318.398 338.605 318.767 335.042 318.988C333.389 319.09 331.688 319.262 330.034 319.15C327.215 318.961 324.96 318.288 322.616 316.719C318.702 314.107 318.138 308.071 322.637 305.602Z" fill="#333333"/>
<path d="M287.121 233.451C290.88 228.746 295.696 224.825 300.081 220.702C304.498 216.55 309.097 212.578 313.615 208.535C315.297 207.028 317.887 206.916 319.527 208.577C321.25 210.319 320.927 212.743 319.485 214.49C315.612 219.186 311.815 223.963 307.832 228.565C303.887 233.122 300.161 238.109 295.606 242.06C293.225 244.127 289.343 244.53 287.058 241.998C284.654 239.331 285.002 236.107 287.121 233.451Z" fill="#333333"/>
<path d="M254.642 195.354C255.882 193.944 257.177 192.586 258.425 191.181C260.92 188.373 263.414 185.566 265.908 182.754C267.232 181.264 269.681 181.324 271.158 182.465C272.638 183.607 273.322 185.958 272.201 187.619C270.099 190.731 267.997 193.844 265.893 196.955C264.842 198.511 263.842 200.097 262.791 201.653C261.562 203.472 260.04 205.111 258.621 206.783C257.004 208.693 253.841 208.549 252.021 207.146C250.197 205.738 249.253 202.718 250.71 200.669C251.984 198.879 253.193 197.002 254.642 195.354Z" fill="#333333"/>
<path d="M157.192 152.62C159.037 152.883 160.802 154.505 160.682 156.517C160.393 161.404 160.104 166.29 159.812 171.175C159.668 173.617 159.551 176.065 159.378 178.504C159.186 181.189 158.603 183.858 158.141 186.509C157.747 188.787 155.192 190.175 153.07 189.911C150.879 189.638 148.903 187.684 148.996 185.365C149.104 182.663 149.122 179.952 149.516 177.271C149.868 174.855 150.256 172.442 150.626 170.025C151.366 165.196 152.104 160.365 152.844 155.536C153.145 153.601 155.406 152.364 157.192 152.62Z" fill="#333333"/>
<path d="M65.8387 186.557C68.0286 185.432 70.6145 186.089 71.9038 188.217C74.0164 191.705 76.1305 195.19 78.2406 198.676C80.3605 202.175 82.2779 205.743 84.183 209.361C85.5647 211.986 84.8549 215.672 82.0633 217.107C79.4413 218.453 75.7492 217.825 74.3172 214.987C72.4722 211.329 70.6712 207.683 69.0492 203.92C67.4246 200.156 65.8001 196.392 64.177 192.625C63.702 191.525 63.4214 190.51 63.7354 189.303C64.0165 188.23 64.8388 187.07 65.8387 186.557Z" fill="#333333"/>
<path d="M28.0477 232.015C31.1051 232.606 33.8282 234.543 36.3217 236.345C38.7084 238.068 41.1613 239.694 43.6529 241.265C48.5097 244.326 53.6368 246.867 58.6835 249.587C60.5243 250.579 61.2582 252.99 60.4551 254.862C59.5972 256.858 57.611 257.806 55.4895 257.377C49.3883 256.142 43.5405 253.795 37.8473 251.32C32.2094 248.868 24.8309 245.918 21.6479 240.373C19.0797 235.899 23.3584 231.108 28.0477 232.015Z" fill="#333333"/>
<path d="M130.876 254.384C137.468 251.292 144.41 248.953 151.592 247.728C159.085 246.452 165.982 246.677 173.403 248.328C177.114 249.154 175.972 254.174 172.627 254.528C166.4 255.181 159.946 256.593 153.927 258.307C147.895 260.024 142.198 262.57 136.844 265.832C126.303 272.253 117.342 280.951 110.363 291.138C105.788 297.819 96.0211 292.176 99.4926 284.862C105.841 271.498 117.509 260.657 130.876 254.384Z" fill="white" fill-opacity="0.4"/>
</g>
<path opacity="0.4" d="M1583.93 912.684L1548.3 1045.64C1545.45 1056.27 1548.49 1067.61 1556.28 1075.4L1653.59 1172.72C1661.38 1180.51 1672.72 1183.55 1683.35 1180.7L1816.29 1145.07C1826.93 1142.22 1835.23 1133.92 1838.08 1123.28L1873.71 990.33C1876.55 979.696 1873.52 968.351 1865.73 960.568L1768.41 863.242C1760.63 855.459 1749.29 852.419 1738.65 855.268L1605.71 890.896C1595.08 893.745 1586.78 902.05 1583.93 912.684Z" fill="#EDDD86"/>
<g opacity="0.4" clip-path="url(#clip0_1054_1399)">
<path fill-rule="evenodd" clip-rule="evenodd" d="M1861.42 358.113C1862.11 357.953 1864.33 356.601 1866.1 355.872C1873.75 352.787 1880.08 348.386 1882.55 342.237C1881.18 339.771 1883.57 335.845 1882.91 333.113C1882.22 330.163 1879.04 326.289 1876.41 323.098C1860.27 303.53 1830.47 280.063 1814.07 307.009C1813.52 313.351 1811.32 319.377 1812.3 325.966C1807.25 337.407 1800.56 348.58 1789.71 359.023C1776.57 347.651 1754.21 367.802 1753.26 382.012C1752.74 390.243 1758.69 400.303 1764.42 407.517C1757.65 415.095 1752.14 422.918 1746.32 430.647C1741.86 426.356 1736.16 424.698 1731.8 426.294C1715.03 432.281 1723.56 464.204 1742.23 466.331C1750.86 467.329 1766.32 458.941 1762.81 448.224C1757.54 462.406 1741.68 464.658 1732.95 454.633C1726.94 447.696 1725.87 434.634 1731.9 430.895C1735.95 428.368 1740.46 430.775 1744.36 433.067C1741.01 438.947 1733.99 443.786 1737.69 450.229C1739.38 453.162 1742.97 453.641 1744.46 456.933C1760.21 449.275 1767.88 433.364 1779.9 422.155C1785.15 425.07 1787.79 429.143 1793.1 430.576C1796.42 431.457 1801.92 431.601 1805.29 430.875C1812.35 429.364 1816.29 423.705 1821.19 418.676C1829.55 410.141 1829.49 404.165 1824 393.778C1828.27 388.03 1832.23 381.738 1837.27 375.634C1840.99 371.122 1848.86 361.073 1855.27 358.27C1857.08 357.481 1859.27 358.665 1861.42 358.113Z" fill="#2D2828"/>
<path fill-rule="evenodd" clip-rule="evenodd" d="M1721.2 404.533C1698.49 403.665 1688.21 430.793 1689.67 444.915C1690.69 454.679 1695.7 464.031 1703.86 474.006C1717.93 491.222 1741.64 502.997 1758.88 500.427C1789.2 495.918 1805.68 467.027 1792.77 441.232C1793.84 457.481 1795.62 472.35 1781.2 484.761C1778.43 487.148 1774.31 489.717 1770.6 491.165C1765.52 493.135 1754.36 494.91 1749.77 494.851C1737.54 494.767 1717.03 480.615 1707.77 469.166C1700.08 459.621 1695.54 451.457 1694.59 443.014C1693.35 431.844 1698.38 414.97 1713.6 407.807C1716.17 406.614 1719.53 407.002 1721.2 404.533Z" fill="#2D2828"/>
<path fill-rule="evenodd" clip-rule="evenodd" d="M1737.52 400.363C1734.59 401.223 1729.1 398.65 1727.75 402.02C1730.45 403.698 1734.65 403.687 1738.33 404.496C1742.25 405.366 1745.92 407.721 1749.73 407.408C1748.5 401.718 1741.36 402.342 1737.52 400.363Z" fill="#2D2828"/>
<path fill-rule="evenodd" clip-rule="evenodd" d="M1755.43 479.936C1763.39 483.772 1776.75 474.175 1780.25 465.627C1781.28 463.074 1782.1 459.316 1780.64 458.037C1779.34 466.223 1771.96 473.485 1763.03 476.663C1760.31 477.645 1756.83 477.869 1755.43 479.936Z" fill="#2D2828"/>
<path fill-rule="evenodd" clip-rule="evenodd" d="M1743.26 421.86C1744.61 422.838 1746.97 425.441 1747.91 423.268C1740.22 416.2 1727.57 414.28 1720.15 419.328C1707.02 428.257 1704.34 449.125 1716.73 463.378C1725.65 473.63 1739.42 478.511 1750.59 479.692C1743.9 472.204 1729.41 468.78 1721.39 459.603C1713.32 450.438 1712.17 439.723 1716.2 431.485C1717.19 429.502 1719.7 424.809 1722.94 422.575C1729.85 417.867 1736.37 422.39 1743.26 421.86Z" fill="#2D2828"/>
<path fill-rule="evenodd" clip-rule="evenodd" d="M1877.37 338.568C1866.54 338.258 1853.52 331.179 1843.65 323.205C1840.93 321 1827.13 307.127 1829.58 303.916C1831.93 300.885 1839.79 303.632 1842.84 304.991C1846.95 306.847 1851.4 310.054 1854.72 312.249C1865.35 319.387 1870.24 326.194 1877.57 333.659C1878.93 335.041 1877.09 336.772 1877.33 338.503L1877.37 338.568Z" fill="#34ACDF"/>
<path fill-rule="evenodd" clip-rule="evenodd" d="M1871.39 344.852C1869.84 347.265 1866.11 347.026 1863.67 348.69C1854.51 344.999 1841.39 338.935 1832.92 328.662C1828.87 323.731 1824.23 316.907 1823.14 311.055C1836.69 330.003 1854.15 341.202 1871.39 344.852Z" fill="#34ACDF"/>
<path fill-rule="evenodd" clip-rule="evenodd" d="M1816.09 393.601C1806.52 397.606 1797.88 386.999 1791.91 376.211C1810.1 365.42 1816.76 348.365 1822.57 335.406C1827.71 341.486 1833.04 346.557 1838.74 349.529C1826.72 361.295 1814.57 373.022 1811.52 386.379C1823.58 375.234 1828.26 362.78 1842.01 351.939C1843.74 353.172 1845.51 354.036 1847.31 354.995C1832.44 367.07 1822.27 379.984 1816.1 393.571L1816.09 393.601Z" fill="#34ACDF"/>
<path fill-rule="evenodd" clip-rule="evenodd" d="M1817.73 329.978C1822.48 332.445 1817.75 339.883 1815.92 343.734C1810.96 354.191 1801.69 367.143 1790.67 374.497C1789.54 372.649 1789.01 370.946 1789.1 369.327C1803.3 357.027 1813.42 344.002 1817.7 329.961L1817.73 329.978Z" fill="#34ACDF"/>
<path fill-rule="evenodd" clip-rule="evenodd" d="M1820.99 400.58C1820.79 405.287 1817.82 408.56 1813.25 408.116C1811.17 407.914 1808.15 405.411 1805.37 404.285C1800.3 402.232 1795.79 400.708 1790.85 394.701C1786.89 389.946 1783.12 384.458 1779.7 379.611C1774.64 372.344 1772.26 361.958 1782.39 364.175C1781.41 366.561 1780.92 368.992 1779.61 371.342C1782.21 380.226 1790.07 389.27 1797.5 396.787C1803.74 403.104 1813.29 405.348 1819.93 401.321C1820.27 401.078 1820.61 400.836 1820.99 400.58Z" fill="#34ACDF"/>
<path fill-rule="evenodd" clip-rule="evenodd" d="M1795.5 411.706C1791.55 413.372 1787.72 414.271 1783.99 414.589C1782.89 412.759 1781.47 412.735 1780.34 410.888C1783.72 410.843 1787.11 410.49 1791.03 407.569C1792.43 409.571 1794.12 409.827 1795.5 411.706Z" fill="#34ACDF"/>
<path fill-rule="evenodd" clip-rule="evenodd" d="M1765.91 372.606C1767.47 382.834 1779.9 397.074 1787.61 404.237C1783.34 406.038 1779.39 405.909 1775.39 406.071C1764.39 397.133 1755.52 382.04 1765.94 372.623L1765.91 372.606Z" fill="#34ACDF"/>
<path fill-rule="evenodd" clip-rule="evenodd" d="M1775.33 418.602C1767.32 428.613 1755.67 438.003 1747.55 447.991C1746.09 447.625 1744.75 446.569 1743.57 444.533C1753.02 434.037 1759.29 421.384 1768.55 411.898C1770.61 414.404 1766.93 417.34 1765.43 419.308C1762.83 422.711 1761.52 425.588 1757.62 428.959C1760.35 429.618 1762.81 425.572 1765.04 423.23C1767.48 420.654 1770.07 418.116 1771.23 415.757C1772.78 415.618 1774.01 417.44 1775.33 418.602Z" fill="#7F7D74"/>
<path fill-rule="evenodd" clip-rule="evenodd" d="M1855.74 348.539C1847.89 347.356 1833.71 337.654 1826.64 327.868C1825.95 326.914 1821.05 317.861 1823.17 321.439C1833.01 336.374 1844.29 342.962 1855.74 348.539Z" fill="#34ACDF"/>
<path fill-rule="evenodd" clip-rule="evenodd" d="M1806.01 416.303C1801.54 419.144 1794.75 420.129 1789.99 418.699C1791.91 417.174 1796.17 417.12 1799.36 414.217C1801.48 415.443 1803.66 416.378 1806.01 416.303Z" fill="#34ACDF"/>
</g>
<defs>
<clipPath id="clip0_1054_1399">
<rect width="122.99" height="228.746" fill="white" transform="translate(1786.38 263.184) rotate(30)"/>
</clipPath>
</defs>
</svg>
