<svg width="1920" height="1330" viewBox="0 0 1920 1330" fill="none" xmlns="http://www.w3.org/2000/svg">
<path d="M430.152 1037.38C430.109 1037.7 430.062 1038.01 430.011 1038.33C428.043 1050.56 418.793 1061.71 410.091 1070.01C398.315 1081.23 385.718 1091.51 373.489 1102.22C370.266 1105.04 366.777 1104.87 363.401 1102.07C360.012 1099.25 356.679 1096.37 353.366 1093.46C340.948 1082.57 327.808 1072.43 317.377 1059.44C308.674 1048.61 304.404 1036.45 307.38 1022.53C310.421 1008.31 318.703 998.338 333.073 994.825C346.429 991.56 357.853 995.753 366.59 1006.4C368.653 1008.91 369.279 1007.71 370.665 1006.07C379.12 996.071 389.966 991.927 402.735 994.535C422.302 998.531 432.777 1018.33 430.152 1037.38Z" fill="white"/>
<path d="M415.61 1041.42C415.577 1041.66 415.541 1041.91 415.502 1042.15C413.998 1051.49 406.929 1060.02 400.278 1066.36C391.279 1074.93 381.651 1082.79 372.306 1090.97C369.843 1093.13 367.177 1093 364.596 1090.86C362.006 1088.71 359.459 1086.5 356.927 1084.28C347.437 1075.96 337.395 1068.21 329.423 1058.28C322.772 1050 319.509 1040.71 321.783 1030.07C324.107 1019.21 330.437 1011.59 341.418 1008.9C351.625 1006.4 360.356 1009.61 367.034 1017.74C368.611 1019.66 369.088 1018.75 370.148 1017.49C376.61 1009.85 384.899 1006.68 394.657 1008.68C409.611 1011.73 417.616 1026.86 415.61 1041.42Z" fill="#F5A79D"/>
<path d="M389.108 1053.91H369.164L365.645 1035.14L358.606 1065.64L349.22 1028.1L336.902 1061.53L332.209 1037.48L322.237 1078.54L316.371 1026.34L308.745 1055.1H292.32" stroke="#8F96A7" stroke-width="3" stroke-miterlimit="10" stroke-linecap="round" stroke-linejoin="round"/>
<path d="M269.535 990.692L174.12 1020.16C171.619 1020.93 168.966 1019.53 168.194 1017.03L129.54 891.885C128.768 889.384 130.169 886.731 132.67 885.959L228.084 856.489C230.585 855.716 233.238 857.117 234.01 859.618L272.664 984.766C273.436 987.266 272.035 989.919 269.535 990.692Z" fill="#C6DEF9"/>
<path d="M261.606 986.778L178.453 1012.46C176.217 1013.15 173.844 1011.9 173.153 1009.66L137.698 894.869C137.007 892.633 138.26 890.26 140.496 889.569L223.65 863.886C225.886 863.195 228.259 864.448 228.95 866.685L264.405 981.479C265.096 983.715 263.843 986.088 261.606 986.778Z" fill="white"/>
<path d="M198.535 859.336L189.59 862.099C189.504 861.473 189.381 860.847 189.189 860.224C187.288 854.07 180.757 850.622 174.603 852.522C168.448 854.423 165 860.954 166.901 867.108C167.093 867.731 167.344 868.317 167.626 868.882L158.681 871.645C156.926 872.187 155.943 874.049 156.485 875.805L159.968 887.081C160.51 888.836 162.372 889.82 164.127 889.278L203.98 876.968C205.736 876.426 206.719 874.564 206.177 872.809L202.694 861.532C202.152 859.778 200.29 858.794 198.535 859.336ZM178.6 865.465C176.512 866.11 174.295 864.94 173.65 862.851C173.005 860.763 174.175 858.547 176.264 857.901C178.353 857.256 180.569 858.427 181.214 860.515C181.859 862.604 180.689 864.82 178.6 865.465Z" fill="#9EADCF"/>
<path d="M172.604 946.991C173.232 949.024 172.093 951.18 170.06 951.808C168.027 952.436 165.871 951.297 165.243 949.264C164.615 947.231 165.754 945.075 167.787 944.447C169.819 943.819 171.976 944.958 172.604 946.991Z" fill="#C6DEF9"/>
<path d="M235.166 930.416L180.666 947.249C179.281 947.677 177.811 946.901 177.383 945.516C176.955 944.131 177.731 942.662 179.116 942.234L233.617 925.401C235.002 924.973 236.471 925.749 236.899 927.134C237.327 928.519 236.551 929.988 235.166 930.416Z" fill="#C6DEF9"/>
<path d="M178.463 969.808C179.456 967.927 178.737 965.596 176.855 964.603C174.974 963.61 172.643 964.329 171.65 966.211C170.657 968.092 171.377 970.422 173.258 971.416C175.139 972.409 177.47 971.689 178.463 969.808Z" fill="#C6DEF9"/>
<path d="M241.299 950.307L186.798 967.141C185.413 967.568 183.944 966.793 183.516 965.408C183.088 964.023 183.864 962.553 185.249 962.125L239.749 945.292C241.134 944.865 242.604 945.64 243.032 947.025C243.459 948.41 242.684 949.88 241.299 950.307Z" fill="#C6DEF9"/>
<path d="M184.877 986.777C185.505 988.81 184.366 990.967 182.334 991.594C180.301 992.222 178.144 991.083 177.516 989.051C176.889 987.018 178.027 984.861 180.06 984.233C182.093 983.605 184.25 984.744 184.877 986.777Z" fill="#C6DEF9"/>
<path d="M247.439 970.202L192.939 987.036C191.554 987.463 190.084 986.687 189.657 985.302C189.229 983.917 190.005 982.448 191.39 982.02L245.89 965.187C247.275 964.759 248.745 965.535 249.172 966.92C249.6 968.305 248.824 969.775 247.439 970.202Z" fill="#C6DEF9"/>
<path d="M207.899 906.992C208.084 897.84 200.815 890.271 191.663 890.086C182.511 889.901 174.942 897.17 174.757 906.322C174.572 915.474 181.841 923.043 190.993 923.228C200.145 923.413 207.714 916.144 207.899 906.992Z" fill="#FECC32"/>
<path d="M192.132 895.978L184.633 898.294L190.514 917.336L198.013 915.019L192.132 895.978Z" fill="white"/>
<path d="M199.682 899.967L180.641 905.848L182.957 913.347L201.998 907.466L199.682 899.967Z" fill="white"/>
<path d="M281.141 1244.79L312.905 1222.65" stroke="white" stroke-width="4.9562" stroke-miterlimit="10" stroke-linecap="round" stroke-linejoin="round"/>
<path d="M275.297 1237.6L307.061 1215.46" stroke="white" stroke-width="4.9562" stroke-miterlimit="10" stroke-linecap="round" stroke-linejoin="round"/>
<path d="M274.055 1227.2L297.715 1210.71" stroke="white" stroke-width="4.9562" stroke-miterlimit="10" stroke-linecap="round" stroke-linejoin="round"/>
<path d="M208.234 1140.2L239.998 1118.06" stroke="white" stroke-width="4.9562" stroke-miterlimit="10" stroke-linecap="round" stroke-linejoin="round"/>
<path d="M212.961 1148.17L244.725 1126.03" stroke="white" stroke-width="4.9562" stroke-miterlimit="10" stroke-linecap="round" stroke-linejoin="round"/>
<path d="M238.508 1184.82L270.272 1162.68" stroke="white" stroke-width="4.9562" stroke-miterlimit="10" stroke-linecap="round" stroke-linejoin="round"/>
<path d="M244.648 1192.44L276.412 1170.3" stroke="white" stroke-width="4.9562" stroke-miterlimit="10" stroke-linecap="round" stroke-linejoin="round"/>
<path d="M249.672 1200.84L281.436 1178.7" stroke="white" stroke-width="4.9562" stroke-miterlimit="10" stroke-linecap="round" stroke-linejoin="round"/>
<path d="M257.117 1207.55L284.63 1188.37" stroke="white" stroke-width="4.9562" stroke-miterlimit="10" stroke-linecap="round" stroke-linejoin="round"/>
<path d="M234.789 1175.51L262.302 1156.33" stroke="white" stroke-width="4.9562" stroke-miterlimit="10" stroke-linecap="round" stroke-linejoin="round"/>
<path d="M222.281 1152.94L245.942 1136.45" stroke="white" stroke-width="4.9562" stroke-miterlimit="10" stroke-linecap="round" stroke-linejoin="round"/>
<path d="M278.527 1250.59L281.858 1248.27C282.871 1247.56 283.103 1246.2 282.467 1245.14C275.679 1233.85 279.007 1223.2 282.83 1210.96C286.941 1197.79 291.604 1182.87 280.826 1167.41C270.047 1151.94 254.432 1151.15 240.655 1150.46C227.798 1149.81 216.61 1149.24 208.355 1138.84C207.646 1137.94 206.39 1137.71 205.454 1138.36L201.832 1140.89C200.854 1141.57 200.606 1142.94 201.338 1143.89C212.049 1157.66 226.982 1158.41 240.217 1159.08C253.721 1159.76 265.384 1160.36 273.741 1172.35C282.099 1184.34 278.617 1195.48 274.585 1208.39C270.659 1220.96 266.229 1235.14 275.227 1249.86C275.926 1251 277.426 1251.36 278.527 1250.59Z" fill="#B2D2F5"/>
<path d="M240.649 1150.46C242.46 1150.55 244.304 1150.64 246.164 1150.77C249.454 1139.52 251.686 1127.19 243.822 1114.44C243.164 1113.38 241.753 1113.06 240.724 1113.77L237.18 1116.24C236.263 1116.88 235.956 1118.13 236.539 1119.09C242.888 1129.46 240.658 1139.29 237.298 1150.28C238.403 1150.34 239.517 1150.4 240.649 1150.46Z" fill="#F7BAB3"/>
<path d="M278.924 1205.36C265.42 1204.68 253.757 1204.09 245.4 1192.1C238.288 1181.9 239.752 1172.3 242.831 1161.72C242.07 1160.65 241.743 1160.19 240.982 1159.12C238.925 1159.02 236.822 1158.91 234.699 1158.77C231.242 1170.59 228.954 1183.61 238.315 1197.04C249.094 1212.5 264.709 1213.29 278.486 1213.99C291.29 1214.64 302.439 1215.2 310.685 1225.48C311.456 1226.44 312.812 1226.69 313.823 1225.99L317.159 1223.66C318.259 1222.9 318.445 1221.37 317.614 1220.32C306.917 1206.78 292.082 1206.03 278.924 1205.36Z" fill="#F7BAB3"/>
<path d="M1769.46 997.19L1769.42 997.203L1766.03 986.474L1712.27 1003.48L1715.66 1014.21L1715.62 1014.22L1709.18 1037.8C1708.71 1039.55 1708.74 1041.4 1709.29 1043.13L1725.83 1095.41C1727.4 1100.38 1732.7 1103.13 1737.66 1101.56L1801.66 1081.32C1806.62 1079.75 1809.37 1074.45 1807.8 1069.48L1791.26 1017.2C1790.72 1015.47 1789.68 1013.93 1788.29 1012.78L1769.46 997.19Z" fill="#C6DEF9"/>
<path d="M1766.1 986.339L1712.12 1003.41C1709.78 1004.16 1707.27 1002.86 1706.53 1000.51L1701.52 984.679C1700.78 982.332 1702.08 979.827 1704.43 979.085L1758.4 962.01C1760.75 961.267 1763.26 962.568 1764 964.915L1769.01 980.745C1769.75 983.092 1768.45 985.597 1766.1 986.339Z" fill="#7990C5"/>
<path d="M1792.6 1021.25L1710.49 1047.23L1722.98 1086.71L1805.09 1060.74L1792.6 1021.25Z" fill="white"/>
<path d="M1759.21 1037.93L1747.41 1041.67L1756.89 1071.64L1768.7 1067.91L1759.21 1037.93Z" fill="#F97A6B"/>
<path d="M1774.93 1055.93L1771.2 1044.12L1741.22 1053.61L1744.95 1065.41L1774.93 1055.93Z" fill="#F97A6B"/>
<path d="M1706.87 982.429L1712.24 999.427" stroke="#AFC8ED" stroke-width="4.1195" stroke-miterlimit="10" stroke-linecap="round" stroke-linejoin="round"/>
<path d="M1713.24 980.413L1718.62 997.412" stroke="#AFC8ED" stroke-width="4.1195" stroke-miterlimit="10" stroke-linecap="round" stroke-linejoin="round"/>
<path d="M1719.61 978.396L1724.99 995.395" stroke="#AFC8ED" stroke-width="4.1195" stroke-miterlimit="10" stroke-linecap="round" stroke-linejoin="round"/>
<path d="M1725.98 976.381L1731.36 993.379" stroke="#AFC8ED" stroke-width="4.1195" stroke-miterlimit="10" stroke-linecap="round" stroke-linejoin="round"/>
<path d="M1738.73 972.348L1744.11 989.346" stroke="#AFC8ED" stroke-width="4.1195" stroke-miterlimit="10" stroke-linecap="round" stroke-linejoin="round"/>
<path d="M1732.36 974.363L1737.74 991.362" stroke="#AFC8ED" stroke-width="4.1195" stroke-miterlimit="10" stroke-linecap="round" stroke-linejoin="round"/>
<path d="M1745.11 970.331L1750.49 987.329" stroke="#AFC8ED" stroke-width="4.1195" stroke-miterlimit="10" stroke-linecap="round" stroke-linejoin="round"/>
<path d="M1751.48 968.314L1756.86 985.313" stroke="#AFC8ED" stroke-width="4.1195" stroke-miterlimit="10" stroke-linecap="round" stroke-linejoin="round"/>
<path d="M1757.86 966.298L1763.24 983.296" stroke="#AFC8ED" stroke-width="4.1195" stroke-miterlimit="10" stroke-linecap="round" stroke-linejoin="round"/>
<path opacity="0.32" d="M1739.5 1092.38C1737.41 1093.04 1735.18 1091.88 1734.52 1089.79L1717.75 1036.79C1717.09 1034.7 1718.25 1032.46 1720.34 1031.8C1722.43 1031.14 1724.66 1032.3 1725.32 1034.39L1742.09 1087.4C1742.75 1089.49 1741.59 1091.72 1739.5 1092.38Z" fill="white"/>
<path d="M1734.55 1007.65L1769.17 996.694" stroke="#7990C5" stroke-width="6.7281" stroke-miterlimit="10" stroke-linecap="round" stroke-linejoin="round"/>
<path d="M1609.98 852.363C1631.63 855.178 1646.87 883.846 1634.66 911.531C1623.85 936.057 1633.2 949.645 1628.46 971.14C1625.25 985.68 1620.23 990 1610.63 973.696C1602.8 960.394 1598.92 936.846 1588.26 938.881C1577.6 940.914 1582.28 964.135 1579.67 979.377C1576.49 997.883 1570.29 995.856 1562.09 983.317C1549.59 964.197 1554.3 949.159 1535.22 929.801C1514.02 908.271 1518.02 876.052 1537.35 865.688C1553.35 857.109 1568.61 861.563 1574.56 863.946C1579.29 859.605 1591.98 850.022 1609.98 852.363Z" fill="white"/>
<path d="M1643.83 1196.29L1633.12 1217.1L1591.5 1195.68L1602.21 1174.87C1608.13 1163.38 1622.24 1158.86 1633.73 1164.77C1645.23 1170.69 1649.75 1184.8 1643.83 1196.29Z" fill="white"/>
<path d="M1622.42 1237.9L1633.14 1217.09L1591.51 1195.66L1580.8 1216.48C1574.89 1227.97 1579.41 1242.08 1590.9 1248C1602.4 1253.91 1616.51 1249.39 1622.42 1237.9Z" fill="#FDC8A9"/>
<path d="M1526.12 1195.53L1515.16 1174.85L1556.52 1152.93L1567.48 1173.61C1573.53 1185.03 1569.18 1199.19 1557.76 1205.25C1546.34 1211.3 1532.17 1206.95 1526.12 1195.53Z" fill="white"/>
<path d="M1504.21 1154.19L1515.17 1174.87L1556.53 1152.95L1545.57 1132.27C1539.51 1120.84 1525.35 1116.49 1513.92 1122.55C1502.5 1128.6 1498.15 1142.77 1504.21 1154.19Z" fill="#FDC8A9"/>
</svg>
