<svg width="1920" height="1004" viewBox="0 0 1920 1004" fill="none" xmlns="http://www.w3.org/2000/svg">
<g opacity="0.6">
<path d="M261.585 378.02C265.961 356.581 260.99 333.667 248.294 315.867C225.422 281.679 176.71 276.641 140.431 289.703C103.851 301.643 83.7837 333.701 84.6393 371.575C84.3177 386.859 90.0024 401.216 96.4987 414.683C105.275 426.074 117.187 435.014 129.948 441.511C182.9 466.174 249.884 436.475 261.585 378.02ZM192.125 433.769C186.966 435.761 181.607 437.238 176.211 438.43C163.658 440.991 150.374 438.516 139.498 431.779C138.818 431.305 136.212 429.829 136.93 429.098C137.138 428.9 137.416 428.947 137.585 429.116C140.017 430.166 142.403 431.005 144.943 431.604C152.326 433.409 160.11 434.154 167.652 432.966C180.94 430.561 192.989 423.765 203.878 416.01C219.751 404.578 233.481 388.776 237.863 369.298C239.454 361.071 239.832 352.511 238.63 344.207C238.277 342.124 237.814 340.08 237.222 338.053C236.751 336.411 236.106 334.812 235.799 333.128C235.661 331.399 236.226 329.628 237.753 328.76C239.175 327.974 240.892 328.52 242.098 329.467C243.428 330.627 244.016 332.347 244.727 333.91C247.077 339.574 248.912 345.488 249.896 351.549C253.262 381.331 233.811 409.865 208.947 424.657C203.523 428.019 198.056 431.375 192.125 433.769Z" fill="#FFF0E7"/>
<path d="M249.885 351.55C248.9 345.491 247.066 339.575 244.716 333.91C244.008 332.349 243.417 330.628 242.087 329.467C240.881 328.521 239.161 327.973 237.742 328.761C236.215 329.629 235.65 331.4 235.788 333.129C236.095 334.813 236.738 336.411 237.211 338.054C237.803 340.081 238.269 342.125 238.619 344.207C239.821 352.511 239.442 361.074 237.852 369.299C233.474 388.776 219.743 404.578 203.867 416.011C192.981 423.767 180.929 430.561 167.641 432.967C160.099 434.154 152.315 433.41 144.932 431.605C142.392 431.005 140.01 430.166 137.574 429.116C137.408 428.949 137.13 428.902 136.919 429.098C136.202 429.828 138.807 431.305 139.487 431.779C150.366 438.518 163.648 440.992 176.2 438.431C181.598 437.24 186.956 435.765 192.114 433.769C198.045 431.375 203.512 428.019 208.927 424.656C233.801 409.863 253.251 381.332 249.885 351.55Z" fill="#FF9D61"/>
<path d="M66.583 423.002C61.0783 426.946 55.6996 431.061 50.3256 435.179C53.1248 438.659 55.5828 442.493 56.7422 446.367C64.4352 440.673 72.0902 434.921 79.4025 428.751C77.0102 425.438 74.8801 421.997 73.016 418.427C70.7682 419.948 68.619 421.882 66.583 423.002Z" fill="#498463"/>
<path d="M282.271 388.406C290.546 357.079 282.935 322.505 262.512 297.39C232.645 259.511 176.296 252.901 132.943 268.603C90.9728 282.272 64.2742 319.214 62.3922 363.034C61.4106 383.774 64.624 402.366 73.0178 418.429C74.8819 421.998 77.0121 425.439 79.4043 428.752C85.8948 437.742 94.3221 445.796 105.011 452.779C168.713 497.018 262.644 464.102 282.271 388.406ZM96.4966 414.69C90.0002 401.222 84.3155 386.866 84.6371 371.582C83.7815 333.707 103.848 301.65 140.428 289.709C176.71 276.649 225.42 281.685 248.292 315.873C260.986 333.672 265.959 356.587 261.583 378.027C249.882 436.481 182.895 466.179 129.945 441.52C117.185 435.02 105.273 426.081 96.4966 414.69Z" fill="#B44C2C"/>
<path d="M50.3279 435.18C50.1122 434.912 49.9007 434.638 49.6821 434.375C45.2197 429.12 37.5246 429.077 32.2068 433.058C27.4261 435.833 22.7749 438.823 18.1702 441.878C3.10614 451.888 -11.7632 462.201 -26.19 473.114C-32.1297 477.57 -39.9458 483.95 -46.1474 488.72C-56.0302 495.367 -55.1738 507.458 -45.3976 513.709C-34.2483 520.822 -23.0971 510.167 -13.5142 505.034C1.01962 496.303 15.2592 487.081 29.3775 477.697C36.9117 472.593 44.5928 467.623 51.6064 461.812C57.4792 457.168 58.3495 451.736 56.7454 446.371C55.585 442.494 53.1247 438.658 50.3279 435.18Z" fill="#5A2938"/>
</g>
<path opacity="0.5" d="M1736.43 884.219L1741.84 887.427C1744.95 889.277 1748.61 890.002 1752.2 889.481L1758.43 888.578C1764.17 887.746 1769.9 890.113 1773.37 894.746L1777.13 899.77C1779.3 902.667 1782.4 904.733 1785.91 905.62L1792.01 907.16C1797.63 908.579 1802.02 912.954 1803.45 918.557L1804.99 924.633C1805.88 928.137 1807.96 931.228 1810.86 933.388L1815.9 937.136C1820.55 940.591 1822.93 946.307 1822.09 952.026L1821.19 958.229C1820.67 961.806 1821.39 965.452 1823.25 968.556L1826.47 973.941C1829.44 978.907 1829.44 985.093 1826.47 990.059L1823.25 995.444C1821.39 998.548 1820.66 1002.2 1821.19 1005.77L1822.09 1011.97C1822.93 1017.69 1820.55 1023.41 1815.9 1026.86L1810.86 1030.61C1807.96 1032.77 1805.88 1035.86 1804.99 1039.37L1803.45 1045.44C1802.02 1051.05 1797.63 1055.42 1792.01 1056.84L1785.91 1058.38C1782.4 1059.27 1779.3 1061.33 1777.13 1064.23L1773.37 1069.25C1769.9 1073.89 1764.16 1076.26 1758.43 1075.42L1752.2 1074.52C1748.61 1074 1744.95 1074.72 1741.84 1076.57L1736.43 1079.78C1731.45 1082.74 1725.24 1082.74 1720.26 1079.78L1714.86 1076.57C1711.74 1074.72 1708.08 1074 1704.49 1074.52L1698.27 1075.42C1692.53 1076.25 1686.79 1073.89 1683.33 1069.25L1679.57 1064.23C1677.4 1061.33 1674.3 1059.27 1670.78 1058.38L1664.68 1056.84C1659.06 1055.42 1654.67 1051.05 1653.25 1045.44L1651.7 1039.37C1650.81 1035.86 1648.74 1032.77 1645.83 1030.61L1640.79 1026.86C1636.14 1023.41 1633.77 1017.69 1634.6 1011.97L1635.51 1005.77C1636.03 1002.19 1635.3 998.548 1633.45 995.444L1630.23 990.059C1627.26 985.093 1627.26 978.907 1630.23 973.941L1633.45 968.556C1635.3 965.452 1636.03 961.805 1635.51 958.229L1634.6 952.026C1633.77 946.307 1636.14 940.591 1640.79 937.136L1645.83 933.388C1648.74 931.228 1650.81 928.137 1651.7 924.633L1653.25 918.557C1654.67 912.954 1659.06 908.58 1664.68 907.16L1670.78 905.62C1674.3 904.733 1677.4 902.667 1679.57 899.77L1683.33 894.746C1686.79 890.112 1692.53 887.744 1698.27 888.578L1704.49 889.481C1708.08 890.001 1711.74 889.277 1714.86 887.427L1720.26 884.219C1725.24 881.26 1731.45 881.26 1736.43 884.219Z" fill="#FFC39E"/>
<path d="M1831.51 464.59L1828.24 462.987C1825.09 461.445 1823.8 457.646 1825.34 454.504L1828.42 448.221L1843.07 455.409L1839.99 461.692C1838.45 464.834 1834.65 466.133 1831.51 464.59Z" fill="#7CBFC4"/>
<path d="M1894.96 331.143L1809.02 288.979L1745.29 418.869L1831.23 461.034L1894.96 331.143Z" fill="#7CBFC4"/>
<path d="M1896.03 328.953L1810.09 286.788L1746.36 416.679L1832.3 458.843L1896.03 328.953Z" fill="#8BD6DB"/>
<path d="M1980.89 373.307L1894.95 331.143L1831.22 461.033L1917.16 503.198L1980.89 373.307Z" fill="#7CBFC4"/>
<path d="M1981.96 371.119L1896.03 328.954L1832.3 458.845L1918.23 501.009L1981.96 371.119Z" fill="#8BD6DB"/>
<path d="M1896.53 338.216L1888.4 334.225L1827.16 459.036L1835.3 463.027L1896.53 338.216Z" fill="#7CBFC4"/>
<path d="M1754.53 416.247L1753.06 419.226C1753.06 419.226 1807.95 421.185 1835.78 451.72L1831.88 430.486C1831.88 430.486 1789.53 405.938 1754.53 416.247Z" fill="#FAFDFF"/>
<path d="M1835.78 451.715C1816.39 428.072 1785.09 417.114 1754.53 416.251C1773.68 377.217 1792.83 338.183 1811.98 299.148C1842.55 300.012 1873.84 310.971 1893.23 334.613C1874.08 373.647 1854.93 412.682 1835.78 451.715Z" fill="#B4F7F3"/>
<path d="M1913.56 494.272L1912.1 497.249C1912.1 497.249 1876.96 455.04 1835.78 451.715L1854.96 441.811C1854.96 441.811 1900.29 460.281 1913.56 494.272Z" fill="#FAFDFF"/>
<path d="M1913.56 494.272C1891.3 469.981 1865.12 453.258 1835.79 451.723C1854.94 412.689 1874.09 373.654 1893.25 334.62C1923.81 335.483 1951.63 353.526 1971.01 377.169C1951.86 416.203 1932.71 455.237 1913.56 494.272Z" fill="#B4F7F3"/>
<path d="M1835.28 452.729C1815.34 428.211 1784.84 413.248 1753.24 412.482C1773.21 371.782 1793.18 331.081 1813.15 290.381C1844.74 291.148 1875.24 306.11 1895.18 330.628C1875.22 371.327 1855.25 412.028 1835.28 452.729Z" fill="#F3F3F3"/>
<path d="M1917.33 492.983C1897.39 468.464 1866.89 453.502 1835.29 452.736C1855.26 412.035 1875.23 371.335 1895.2 330.635C1926.79 331.402 1957.29 346.363 1977.23 370.882C1957.27 411.582 1937.3 452.283 1917.33 492.983Z" fill="#F3F3F3"/>
<path d="M1895.2 330.635L1835.29 452.736" stroke="#B4F7F3" stroke-width="1.3344" stroke-miterlimit="10"/>
<g opacity="0.47">
<path d="M1960.76 378.965C1944.26 361.286 1921.89 350.214 1897.84 347.84L1896.62 350.336C1920.73 352.473 1943.2 363.574 1959.54 381.454L1960.76 378.965Z" fill="#7BD1D1"/>
<path d="M1952.72 395.37C1936.22 377.689 1913.85 366.619 1889.79 364.243L1888.57 366.74C1912.69 368.877 1935.15 379.977 1951.5 397.857L1952.72 395.37Z" fill="#7BD1D1"/>
<path d="M1944.67 411.774C1928.17 394.094 1905.79 383.023 1881.74 380.648L1880.52 383.145C1904.64 385.282 1927.1 396.382 1943.45 414.263L1944.67 411.774Z" fill="#7BD1D1"/>
<path d="M1936.62 428.18C1920.12 410.499 1897.75 399.429 1873.7 397.055L1872.47 399.551C1896.59 401.688 1919.05 412.788 1935.4 430.669L1936.62 428.18Z" fill="#7BD1D1"/>
<path d="M1928.57 444.584C1912.07 426.904 1889.7 415.834 1865.65 413.459L1864.42 415.956C1888.54 418.092 1911 429.193 1927.35 447.073L1928.57 444.584Z" fill="#7BD1D1"/>
<path d="M1920.52 460.988C1904.02 443.308 1881.65 432.238 1857.6 429.863L1856.37 432.36C1880.49 434.497 1902.95 445.597 1919.3 463.478L1920.52 460.988Z" fill="#7BD1D1"/>
</g>
<g opacity="0.47">
<path d="M1879.29 338.991C1862.79 321.311 1840.41 310.241 1816.36 307.866L1815.14 310.363C1839.26 312.5 1861.72 323.6 1878.07 341.481L1879.29 338.991Z" fill="#7BD1D1"/>
<path d="M1871.24 355.397C1854.74 337.716 1832.36 326.646 1808.31 324.271L1807.09 326.768C1831.2 328.905 1853.67 340.005 1870.01 357.886L1871.24 355.397Z" fill="#7BD1D1"/>
<path d="M1863.19 371.802C1846.69 354.121 1824.32 343.051 1800.26 340.677L1799.04 343.173C1823.16 345.31 1845.62 356.411 1861.97 374.291L1863.19 371.802Z" fill="#7BD1D1"/>
<path d="M1855.14 388.205C1838.64 370.525 1816.27 359.455 1792.21 357.08L1790.99 359.577C1815.11 361.713 1837.57 372.814 1853.92 390.694L1855.14 388.205Z" fill="#7BD1D1"/>
<path d="M1847.09 404.611C1830.59 386.93 1808.22 375.86 1784.17 373.485L1782.94 375.982C1807.06 378.119 1829.52 389.219 1845.87 407.1L1847.09 404.611Z" fill="#7BD1D1"/>
<path d="M1839.04 421.017C1822.55 403.336 1800.17 392.266 1776.12 389.892L1774.89 392.388C1799.01 394.525 1821.48 405.625 1837.82 423.506L1839.04 421.017Z" fill="#7BD1D1"/>
</g>
<path d="M1835.57 256.259L1911.61 361.028L1924.68 351.545L1848.64 246.776L1835.57 256.259Z" fill="#C2907E"/>
<path d="M1848.64 246.771L1835.58 256.254L1842.83 266.244L1855.89 256.761L1848.64 246.771Z" fill="#A5E6E2"/>
<path d="M1851.5 250.708L1838.44 260.191L1839.97 262.306L1853.04 252.823L1851.5 250.708Z" fill="white"/>
<path d="M1844.73 241.382L1848.64 246.776L1835.58 256.259L1831.66 250.864C1829.7 248.165 1830.3 244.39 1833 242.431L1836.29 240.041C1838.99 238.084 1842.77 238.684 1844.73 241.382Z" fill="#7CBFC4"/>
<path d="M1911.62 361.029L1929.09 371.358L1924.68 351.546L1911.62 361.029Z" fill="#FFC1A0"/>
</svg>
