<svg width="1920" height="1330" viewBox="0 0 1920 1330" fill="none" xmlns="http://www.w3.org/2000/svg">
<path d="M312.291 1206.52V1172H309.763V1203.84C307.157 1202.3 303.419 1202.34 300.151 1204.22C295.666 1206.8 293.741 1211.89 295.864 1215.56C297.161 1217.8 299.675 1219 302.467 1219C304.233 1219 306.105 1218.52 307.845 1217.51C309.968 1216.29 311.596 1214.47 312.423 1212.39C313.237 1210.35 313.184 1208.28 312.304 1206.52H312.291Z" fill="#FFB5C5"/>
<path d="M375.549 1136.36C368.542 1131.55 364.23 1128.73 364.19 1128.7L361.588 1127L362.238 1130.06L365.893 1147.27L369.018 1162C366.107 1161.02 362.412 1161.86 359.569 1164.45C357.725 1166.14 356.498 1168.31 356.122 1170.58C355.727 1172.95 356.297 1175.14 357.732 1176.75C359.495 1178.72 362.245 1179.39 365.008 1178.79C366.758 1178.41 368.508 1177.52 370.024 1176.14C371.868 1174.45 373.095 1172.28 373.47 1170.02C373.846 1167.79 373.35 1165.72 372.102 1164.15L368.535 1147.34L369.816 1147.38C372.739 1147.46 375.408 1148.54 377.333 1150.41C379.559 1152.56 380.257 1155.07 380.451 1156.79C380.565 1157.78 381.283 1158.55 382.241 1158.72C382.523 1158.77 382.805 1158.76 383.073 1158.71C383.71 1158.57 384.26 1158.14 384.568 1157.52C387.063 1152.4 387.526 1144.57 375.542 1136.36H375.549Z" fill="#E0C4FF"/>
<path d="M351 1047.38C351 1047.34 351 1047.31 351 1047.28C351 1047.23 350.981 1047.18 350.969 1047.13C350.969 1047.11 350.962 1047.08 350.95 1047.05C350.931 1046.99 350.906 1046.94 350.881 1046.88C350.875 1046.86 350.868 1046.85 350.862 1046.83C350.787 1046.69 350.693 1046.57 350.567 1046.47C350.448 1046.38 350.316 1046.3 350.16 1046.26L323.405 1038.05C322.772 1037.86 322.101 1038.22 321.906 1038.85L320.012 1044.99L318.532 1049.78L317.585 1052.85L313.019 1067.67C311.081 1065.55 307.688 1064.54 304.201 1065.34C299.416 1066.44 296.255 1070.51 297.152 1074.42C297.898 1077.66 301.216 1079.79 305.061 1079.79C305.845 1079.79 306.647 1079.7 307.456 1079.52C312.097 1078.45 315.202 1074.6 314.562 1070.8L319.523 1054.7L343.982 1062.2L339.774 1075.86C339.147 1075.18 338.369 1074.59 337.441 1074.15C335.522 1073.25 333.22 1073.03 330.95 1073.55C328.679 1074.07 326.704 1075.26 325.374 1076.91C323.976 1078.65 323.455 1080.67 323.9 1082.62C324.346 1084.57 325.7 1086.16 327.714 1087.12C328.949 1087.7 330.341 1088 331.778 1088C332.574 1088 333.389 1087.91 334.198 1087.72C338.839 1086.66 341.944 1082.81 341.304 1079.01L350.931 1047.76C350.956 1047.68 350.969 1047.6 350.975 1047.53C350.975 1047.48 350.975 1047.43 350.975 1047.39L351 1047.38ZM346.415 1054.33L345.644 1056.84L321.185 1049.33L321.956 1046.82L346.415 1054.33Z" fill="#E4DAA3"/>
<path d="M211.762 1085.55C208.672 1074.02 203.642 1062.81 207.062 1050.7C209.282 1042.85 212.472 1035.12 214.152 1027.19C214.192 1027.01 214.232 1026.83 214.262 1026.65C218.152 1006.7 201.042 998.271 178.762 993.931C156.482 989.591 137.462 990.981 133.582 1010.93C133.542 1011.11 133.512 1011.29 133.482 1011.47C132.062 1019.45 132.122 1027.81 131.232 1035.93C129.852 1048.44 120.982 1056.95 113.792 1066.47C104.552 1078.7 97.0118 1096.78 101.182 1112.22C106.832 1133.15 131.312 1138.99 149.802 1142.6C168.302 1146.2 193.182 1149.98 206.272 1132.7C215.932 1119.96 215.732 1100.37 211.762 1085.56V1085.55Z" fill="#E8D5C4"/>
<path d="M174.86 1146.65C165.45 1146.65 156.27 1144.86 149.61 1143.56C134.48 1140.61 106.33 1135.13 100.21 1112.46C95.8603 1096.32 103.96 1077.8 112.99 1065.85C114.36 1064.04 115.81 1062.24 117.2 1060.5C123.34 1052.87 129.15 1045.66 130.23 1035.8C130.58 1032.65 130.78 1029.39 130.98 1026.24C131.29 1021.3 131.62 1016.19 132.49 1011.28L132.59 1010.72C134.46 1001.11 139.98 994.921 148.99 992.341C156.33 990.241 166.13 990.431 178.95 992.931C191.77 995.431 200.92 998.931 206.94 1003.63C214.32 1009.4 217.11 1017.21 215.24 1026.82L215.12 1027.37C214.08 1032.25 212.47 1037.11 210.9 1041.81C209.9 1044.8 208.87 1047.9 208.01 1050.95C205.31 1060.5 207.99 1069.36 210.82 1078.74C211.46 1080.88 212.13 1083.08 212.72 1085.28C216.6 1099.75 217.16 1119.96 207.07 1133.28C199.14 1143.75 186.82 1146.64 174.86 1146.64V1146.65ZM160.67 992.901C156.42 992.901 152.73 993.361 149.55 994.271C141.21 996.661 136.3 1002.17 134.56 1011.11L134.47 1011.63C133.62 1016.43 133.3 1021.48 132.99 1026.37C132.79 1029.54 132.58 1032.82 132.23 1036.02C131.08 1046.46 124.82 1054.24 118.77 1061.76C117.38 1063.49 115.94 1065.27 114.59 1067.06C105.84 1078.64 97.9803 1096.51 102.15 1111.95C107.94 1133.41 135.3 1138.74 150 1141.6C164.7 1144.46 192.06 1149.79 205.48 1132.08C215.14 1119.33 214.56 1099.82 210.8 1085.8C210.22 1083.64 209.56 1081.44 208.92 1079.32C206.13 1070.08 203.25 1060.52 206.1 1050.41C206.98 1047.31 208.01 1044.2 209.02 1041.18C210.57 1036.54 212.17 1031.73 213.18 1026.96L213.29 1026.44C215.03 1017.5 212.56 1010.55 205.72 1005.21C199.96 1000.71 191.09 997.331 178.58 994.901C171.74 993.571 165.8 992.901 160.68 992.901H160.67Z" fill="#434244" fill-opacity="0.1"/>
<path d="M178.554 1075.86L148.157 1069.93C147.268 1069.76 146.406 1070.34 146.233 1071.23L145.351 1075.75C145.178 1076.64 145.758 1077.5 146.647 1077.68L177.045 1083.6C177.934 1083.78 178.795 1083.2 178.968 1082.31L179.85 1077.78C180.024 1076.89 179.443 1076.03 178.554 1075.86Z" fill="#BCB2AA"/>
<path d="M177.391 1084.63C177.221 1084.63 177.051 1084.61 176.881 1084.58L146.471 1078.66C145.781 1078.53 145.181 1078.13 144.791 1077.55C144.401 1076.97 144.251 1076.26 144.391 1075.57L145.271 1071.04C145.551 1069.61 146.931 1068.68 148.361 1068.96L178.771 1074.88C180.201 1075.16 181.131 1076.54 180.851 1077.97L179.971 1082.5C179.841 1083.19 179.441 1083.79 178.861 1084.18C178.421 1084.48 177.911 1084.63 177.391 1084.63ZM147.861 1070.9C147.561 1070.9 147.301 1071.11 147.241 1071.41L146.361 1075.94C146.331 1076.11 146.361 1076.28 146.461 1076.42C146.561 1076.56 146.701 1076.66 146.871 1076.69L177.281 1082.61C177.451 1082.64 177.611 1082.61 177.761 1082.51C177.901 1082.42 178.001 1082.27 178.031 1082.1L178.911 1077.57C178.981 1077.23 178.751 1076.89 178.411 1076.82L148.001 1070.9C148.001 1070.9 147.921 1070.89 147.881 1070.89L147.861 1070.9Z" fill="#434244" fill-opacity="0.1"/>
<path d="M213.26 861.801L196.4 858.511C194.88 858.211 193.4 859.211 193.1 860.731L187.45 889.721C187.16 891.201 187.22 892.731 187.62 894.181L188.53 901.581L195.28 902.901L204.39 904.671L208.01 898.161C208.92 896.961 209.55 895.571 209.84 894.091L215.49 865.101C215.79 863.581 214.79 862.101 213.27 861.801H213.26Z" fill="#BCB2AA"/>
<path d="M204.909 905.791L187.619 902.421L186.629 894.371C186.209 892.801 186.149 891.121 186.469 889.531L192.119 860.541C192.309 859.541 192.889 858.681 193.729 858.111C194.569 857.541 195.589 857.331 196.589 857.531L213.449 860.821C215.509 861.221 216.859 863.231 216.459 865.291L210.809 894.281C210.499 895.881 209.819 897.411 208.839 898.711L204.899 905.801L204.909 905.791ZM189.429 900.741L203.859 903.551L207.199 897.551C208.019 896.481 208.579 895.221 208.839 893.891L214.489 864.901C214.679 863.921 214.039 862.971 213.059 862.781L196.199 859.491C195.719 859.401 195.239 859.491 194.839 859.771C194.439 860.051 194.169 860.451 194.069 860.921L188.419 889.911C188.159 891.231 188.209 892.621 188.569 893.911L188.599 894.051L189.419 900.721L189.429 900.741Z" fill="#434244" fill-opacity="0.1"/>
<path d="M181.88 1024.36L164.27 1020.93L188.53 901.581L204.2 904.631L181.88 1024.36Z" fill="#BCB2AA"/>
<path d="M182.68 1025.53L163.09 1021.71L187.74 900.401L205.36 903.831L182.67 1025.52L182.68 1025.53ZM165.45 1020.14L181.08 1023.18L203.04 905.421L189.31 902.751L165.45 1020.14Z" fill="#434244" fill-opacity="0.1"/>
<path d="M170.632 1052.81C180.087 1052.81 187.752 1045.15 187.752 1035.69C187.752 1026.24 180.087 1018.57 170.632 1018.57C161.177 1018.57 153.512 1026.24 153.512 1035.69C153.512 1045.15 161.177 1052.81 170.632 1052.81Z" fill="#9C9CA8"/>
<path d="M170.63 1053.82C169.48 1053.82 168.32 1053.71 167.16 1053.48C157.35 1051.57 150.93 1042.03 152.84 1032.22C153.77 1027.47 156.49 1023.36 160.5 1020.66C164.52 1017.95 169.34 1016.97 174.09 1017.9C183.9 1019.81 190.32 1029.35 188.41 1039.16C186.73 1047.8 179.12 1053.82 170.63 1053.82ZM170.59 1019.56C167.41 1019.56 164.31 1020.5 161.61 1022.32C158.04 1024.73 155.62 1028.38 154.79 1032.61C153.09 1041.34 158.81 1049.82 167.53 1051.52C176.26 1053.22 184.74 1047.5 186.44 1038.78C188.14 1030.06 182.42 1021.57 173.7 1019.87C172.66 1019.67 171.62 1019.57 170.58 1019.57L170.59 1019.56Z" fill="#434244" fill-opacity="0.1"/>
<path d="M191.82 864.004L190.661 863.779C190.32 863.712 189.989 863.935 189.922 864.277L189.327 867.329C189.261 867.671 189.484 868.001 189.825 868.068L190.983 868.294C191.325 868.36 191.656 868.137 191.722 867.796L192.317 864.743C192.384 864.402 192.161 864.071 191.82 864.004Z" fill="white"/>
<path d="M191.11 869.301C191.01 869.301 190.9 869.291 190.8 869.271L189.64 869.041C188.76 868.871 188.18 868.011 188.35 867.131L188.95 864.071C189.12 863.191 189.97 862.611 190.86 862.791L192.02 863.021C192.45 863.101 192.81 863.351 193.06 863.711C193.31 864.071 193.39 864.501 193.31 864.931L192.71 867.991C192.63 868.421 192.38 868.781 192.02 869.031C191.75 869.211 191.44 869.311 191.11 869.311V869.301ZM190.38 867.151L190.81 867.231L191.26 864.901L190.83 864.821L190.38 867.151Z" fill="#434244" fill-opacity="0.1"/>
<path d="M189.972 873.465L188.814 873.24C188.472 873.173 188.141 873.396 188.075 873.738L187.48 876.79C187.413 877.132 187.636 877.462 187.978 877.529L189.136 877.755C189.477 877.821 189.808 877.598 189.875 877.257L190.47 874.204C190.536 873.863 190.313 873.532 189.972 873.465Z" fill="white"/>
<path d="M189.27 878.77C189.17 878.77 189.06 878.77 188.96 878.74L187.8 878.51C187.37 878.43 187.01 878.18 186.76 877.82C186.51 877.46 186.43 877.03 186.51 876.6L187.11 873.54C187.28 872.66 188.14 872.08 189.02 872.26L190.18 872.49C190.61 872.57 190.97 872.82 191.22 873.18C191.46 873.54 191.55 873.97 191.47 874.4L190.87 877.46C190.72 878.24 190.04 878.77 189.28 878.77H189.27ZM188.54 876.63L188.97 876.71L189.42 874.38L188.99 874.3L188.54 876.63Z" fill="#434244" fill-opacity="0.1"/>
<path d="M188.136 882.939L186.978 882.713C186.636 882.647 186.305 882.87 186.239 883.211L185.644 886.264C185.577 886.605 185.8 886.936 186.142 887.003L187.3 887.228C187.641 887.295 187.972 887.072 188.039 886.731L188.634 883.678C188.7 883.336 188.477 883.006 188.136 882.939Z" fill="white"/>
<path d="M187.421 888.241C187.321 888.241 187.211 888.231 187.111 888.211L185.951 887.981C185.521 887.901 185.161 887.651 184.911 887.291C184.671 886.931 184.581 886.501 184.661 886.071L185.261 883.011C185.341 882.581 185.591 882.221 185.951 881.971C186.311 881.731 186.741 881.641 187.171 881.721L188.331 881.951C188.761 882.031 189.131 882.281 189.371 882.641C189.611 883.001 189.701 883.431 189.621 883.861L189.021 886.921C188.941 887.351 188.691 887.711 188.331 887.961C188.061 888.141 187.751 888.241 187.421 888.241ZM186.691 886.091L187.121 886.171L187.571 883.841L187.141 883.761L186.691 886.091Z" fill="#434244" fill-opacity="0.1"/>
<path d="M216.589 868.835L215.431 868.609C215.089 868.542 214.759 868.765 214.692 869.107L214.097 872.159C214.03 872.501 214.253 872.832 214.595 872.898L215.753 873.124C216.094 873.19 216.425 872.968 216.492 872.626L217.087 869.573C217.153 869.232 216.931 868.901 216.589 868.835Z" fill="white"/>
<path d="M215.89 874.131C215.79 874.131 215.68 874.121 215.58 874.101L214.42 873.871C213.99 873.791 213.63 873.541 213.38 873.181C213.14 872.821 213.05 872.391 213.13 871.961L213.73 868.901C213.81 868.471 214.06 868.111 214.42 867.861C214.78 867.611 215.21 867.531 215.64 867.611L216.8 867.841C217.23 867.921 217.59 868.171 217.84 868.531C218.08 868.891 218.17 869.321 218.09 869.751L217.49 872.811C217.41 873.241 217.16 873.601 216.8 873.851C216.53 874.031 216.22 874.131 215.89 874.131ZM215.16 871.981L215.59 872.061L216.04 869.731L215.61 869.651L215.16 871.981Z" fill="#434244" fill-opacity="0.1"/>
<path d="M214.749 878.308L213.591 878.082C213.25 878.016 212.919 878.239 212.852 878.58L212.257 881.633C212.191 881.974 212.413 882.305 212.755 882.372L213.913 882.597C214.255 882.664 214.585 882.441 214.652 882.1L215.247 879.047C215.314 878.706 215.091 878.375 214.749 878.308Z" fill="white"/>
<path d="M214.04 883.601C213.94 883.601 213.83 883.601 213.73 883.571L212.57 883.341C211.69 883.171 211.11 882.311 211.28 881.431L211.88 878.371C212.05 877.491 212.9 876.911 213.79 877.091L214.95 877.321C215.83 877.491 216.41 878.351 216.24 879.231L215.64 882.291C215.49 883.071 214.81 883.601 214.04 883.601ZM213.31 881.451L213.74 881.531L214.19 879.201L213.76 879.121L213.31 881.451Z" fill="#434244" fill-opacity="0.1"/>
<path d="M212.905 887.768L211.747 887.542C211.406 887.476 211.075 887.699 211.008 888.04L210.413 891.093C210.347 891.434 210.57 891.765 210.911 891.832L212.069 892.057C212.411 892.124 212.742 891.901 212.808 891.56L213.403 888.507C213.47 888.166 213.247 887.835 212.905 887.768Z" fill="white"/>
<path d="M212.2 893.061C212.1 893.061 211.99 893.051 211.89 893.031L210.73 892.801C209.85 892.631 209.27 891.771 209.44 890.891L210.04 887.831C210.12 887.401 210.37 887.041 210.73 886.791C211.09 886.541 211.52 886.461 211.95 886.541L213.11 886.771C213.54 886.851 213.9 887.101 214.15 887.461C214.39 887.821 214.48 888.251 214.4 888.681L213.8 891.741C213.72 892.171 213.47 892.531 213.11 892.781C212.84 892.961 212.53 893.061 212.21 893.061H212.2ZM211.47 890.911L211.9 890.991L212.35 888.661L211.92 888.581L211.47 890.911Z" fill="#434244" fill-opacity="0.1"/>
<path d="M194.047 887.187L157.18 1077.56L158.063 1077.73L194.93 887.359L194.047 887.187Z" fill="white"/>
<path d="M197.978 877.202L159.066 1077.95L159.95 1078.12L198.861 877.373L197.978 877.202Z" fill="white"/>
<path d="M201.697 868.144L160.961 1078.3L161.844 1078.47L202.581 868.316L201.697 868.144Z" fill="white"/>
<path d="M203.588 868.519L162.852 1078.68L163.735 1078.85L204.472 868.691L203.588 868.519Z" fill="white"/>
<path d="M203.669 878.306L164.758 1079.05L165.641 1079.22L204.553 878.478L203.669 878.306Z" fill="white"/>
<path d="M203.515 889.03L166.648 1079.4L167.532 1079.57L204.399 889.201L203.515 889.03Z" fill="white"/>
<path d="M192.828 888.471C193.783 888.471 194.558 887.696 194.558 886.741C194.558 885.785 193.783 885.011 192.828 885.011C191.872 885.011 191.098 885.785 191.098 886.741C191.098 887.696 191.872 888.471 192.828 888.471Z" fill="white"/>
<path d="M192.829 889.471C192.659 889.471 192.479 889.451 192.309 889.421C190.829 889.131 189.859 887.691 190.149 886.221C190.289 885.501 190.699 884.881 191.299 884.481C191.899 884.071 192.629 883.921 193.349 884.061C194.069 884.201 194.689 884.611 195.089 885.211C195.499 885.821 195.649 886.541 195.509 887.261C195.259 888.561 194.109 889.471 192.829 889.471ZM192.829 886.001C192.689 886.001 192.539 886.041 192.419 886.131C192.259 886.241 192.149 886.411 192.109 886.601C192.029 887.001 192.289 887.381 192.689 887.461C193.089 887.541 193.469 887.281 193.549 886.881C193.589 886.691 193.549 886.491 193.439 886.331C193.329 886.171 193.159 886.061 192.969 886.021C192.919 886.021 192.879 886.011 192.829 886.011V886.001Z" fill="white"/>
<path d="M205.718 890.981C206.674 890.981 207.448 890.207 207.448 889.251C207.448 888.296 206.674 887.521 205.718 887.521C204.763 887.521 203.988 888.296 203.988 889.251C203.988 890.207 204.763 890.981 205.718 890.981Z" fill="white"/>
<path d="M205.72 891.981C205.55 891.981 205.37 891.961 205.2 891.931C203.72 891.641 202.75 890.201 203.04 888.721C203.33 887.241 204.76 886.271 206.24 886.561C206.96 886.701 207.58 887.111 207.98 887.721C208.38 888.331 208.54 889.051 208.4 889.771C208.15 891.071 207 891.981 205.72 891.981ZM205.72 888.511C205.38 888.511 205.07 888.751 205 889.101C204.92 889.501 205.18 889.881 205.58 889.961C205.98 890.041 206.36 889.781 206.44 889.381C206.48 889.191 206.44 888.991 206.33 888.831C206.22 888.671 206.05 888.561 205.86 888.521C205.81 888.521 205.77 888.511 205.72 888.511Z" fill="white"/>
<path d="M196.738 878.741C197.693 878.741 198.468 877.967 198.468 877.011C198.468 876.056 197.693 875.281 196.738 875.281C195.782 875.281 195.008 876.056 195.008 877.011C195.008 877.967 195.782 878.741 196.738 878.741Z" fill="white"/>
<path d="M196.748 879.741C196.568 879.741 196.398 879.721 196.218 879.691C195.498 879.551 194.878 879.141 194.478 878.541C194.078 877.941 193.918 877.211 194.058 876.491C194.198 875.771 194.608 875.151 195.208 874.751C195.818 874.341 196.538 874.201 197.258 874.331C198.738 874.621 199.708 876.061 199.418 877.541C199.278 878.261 198.868 878.881 198.258 879.281C197.798 879.591 197.278 879.751 196.738 879.751L196.748 879.741ZM196.748 876.271C196.608 876.271 196.458 876.311 196.338 876.401C196.178 876.511 196.068 876.681 196.028 876.871C195.988 877.061 196.028 877.261 196.138 877.421C196.248 877.581 196.418 877.691 196.608 877.731C196.798 877.771 196.998 877.731 197.158 877.621C197.318 877.511 197.428 877.341 197.468 877.151C197.548 876.751 197.288 876.371 196.888 876.291C196.838 876.291 196.798 876.281 196.748 876.281V876.271Z" fill="white"/>
<path d="M205.757 880.501C206.713 880.501 207.487 879.726 207.487 878.771C207.487 877.816 206.713 877.041 205.757 877.041C204.802 877.041 204.027 877.816 204.027 878.771C204.027 879.726 204.802 880.501 205.757 880.501Z" fill="white"/>
<path d="M205.766 881.501C205.596 881.501 205.416 881.481 205.246 881.451C204.526 881.311 203.906 880.901 203.506 880.291C203.096 879.691 202.946 878.961 203.086 878.241C203.226 877.521 203.636 876.901 204.236 876.501C204.836 876.101 205.566 875.941 206.286 876.081C207.766 876.371 208.736 877.811 208.446 879.281C208.196 880.581 207.046 881.491 205.766 881.491V881.501ZM205.766 878.031C205.626 878.031 205.476 878.071 205.356 878.161C205.196 878.271 205.086 878.431 205.046 878.631C205.006 878.821 205.046 879.021 205.156 879.181C205.266 879.341 205.436 879.451 205.626 879.491C206.026 879.571 206.406 879.311 206.486 878.911C206.566 878.511 206.306 878.131 205.906 878.051C205.856 878.051 205.816 878.041 205.766 878.041V878.031Z" fill="white"/>
<path d="M200.417 870.091C201.373 870.091 202.147 869.316 202.147 868.361C202.147 867.405 201.373 866.631 200.417 866.631C199.462 866.631 198.688 867.405 198.688 868.361C198.688 869.316 199.462 870.091 200.417 870.091Z" fill="white"/>
<path d="M200.429 871.091C200.249 871.091 200.079 871.071 199.899 871.041C198.419 870.751 197.449 869.311 197.739 867.841C198.029 866.361 199.469 865.391 200.939 865.681C201.659 865.821 202.279 866.231 202.679 866.841C203.089 867.451 203.239 868.171 203.099 868.891C202.959 869.611 202.549 870.231 201.949 870.631C201.489 870.941 200.969 871.101 200.429 871.101V871.091ZM200.429 867.621C200.089 867.621 199.779 867.861 199.709 868.211C199.629 868.611 199.889 868.991 200.289 869.071C200.479 869.111 200.679 869.071 200.839 868.961C200.999 868.851 201.109 868.681 201.149 868.491C201.189 868.301 201.149 868.101 201.039 867.941C200.929 867.781 200.759 867.671 200.569 867.631C200.519 867.631 200.479 867.621 200.429 867.621Z" fill="white"/>
<path d="M205.578 871.101C206.533 871.101 207.308 870.326 207.308 869.371C207.308 868.415 206.533 867.641 205.578 867.641C204.622 867.641 203.848 868.415 203.848 869.371C203.848 870.326 204.622 871.101 205.578 871.101Z" fill="white"/>
<path d="M205.589 872.101C205.409 872.101 205.239 872.081 205.059 872.051C203.579 871.761 202.609 870.321 202.899 868.851C203.039 868.131 203.449 867.511 204.059 867.111C204.669 866.701 205.389 866.551 206.109 866.691C206.829 866.831 207.449 867.241 207.849 867.841C208.259 868.451 208.409 869.171 208.269 869.891C208.129 870.611 207.719 871.231 207.119 871.631C206.659 871.941 206.139 872.101 205.599 872.101H205.589ZM205.589 868.631C205.449 868.631 205.299 868.671 205.179 868.751C205.019 868.861 204.909 869.031 204.869 869.221C204.789 869.621 205.049 870.001 205.449 870.081C205.639 870.121 205.839 870.081 205.999 869.971C206.159 869.861 206.269 869.691 206.309 869.501C206.349 869.311 206.309 869.111 206.199 868.951C206.089 868.791 205.919 868.681 205.729 868.641C205.679 868.641 205.629 868.631 205.589 868.631Z" fill="white"/>
<path d="M364.813 894.768L269.867 964.666L273.466 969.554L368.412 899.656L364.813 894.768Z" fill="white"/>
<path d="M273.719 970.527C273.333 970.63 272.904 970.497 272.655 970.149L269.058 965.264C268.897 965.048 268.837 964.785 268.878 964.515C268.922 964.255 269.057 964.022 269.272 963.861L364.227 893.963C364.443 893.802 364.706 893.741 364.976 893.783C365.236 893.827 365.469 893.961 365.63 894.177L369.227 899.062C369.552 899.503 369.461 900.128 369.013 900.466L274.059 970.363C273.956 970.443 273.845 970.493 273.729 970.524L273.719 970.527ZM271.254 964.882L273.665 968.16L367.002 899.452L364.592 896.174L271.254 964.882Z" fill="#434244" fill-opacity="0.1"/>
<path d="M381.708 917.733L286.762 987.631L290.36 992.519L385.306 922.621L381.708 917.733Z" fill="white"/>
<path d="M290.626 993.483C290.239 993.586 289.81 993.453 289.562 993.105L285.965 988.22C285.803 988.004 285.743 987.741 285.785 987.471C285.829 987.211 285.963 986.978 286.179 986.817L381.133 916.919C381.349 916.758 381.612 916.697 381.882 916.739C382.142 916.783 382.375 916.917 382.536 917.133L386.134 922.019C386.459 922.459 386.367 923.084 385.919 923.422L290.965 993.32C290.862 993.399 290.751 993.449 290.635 993.48L290.626 993.483ZM288.161 987.839L290.571 991.116L383.908 922.408L381.498 919.13L288.161 987.839Z" fill="#434244" fill-opacity="0.1"/>
<path d="M266.828 935.275L254.41 944.417C252.969 945.478 252.661 947.506 253.722 948.947L300.587 1012.61C301.648 1014.05 303.676 1014.36 305.117 1013.3L317.535 1004.15C318.976 1003.09 319.284 1001.06 318.223 999.623L271.358 935.964C270.297 934.523 268.269 934.214 266.828 935.275Z" fill="#E2E2E2"/>
<path d="M304.294 1014.78C303.734 1014.93 303.152 1014.96 302.559 1014.87C301.438 1014.71 300.46 1014.11 299.78 1013.2L252.914 949.526C252.246 948.618 251.966 947.492 252.134 946.381C252.299 945.26 252.906 944.279 253.812 943.602L266.228 934.456C267.136 933.789 268.261 933.508 269.373 933.676C270.494 933.841 271.472 934.439 272.152 935.354L319.018 999.023C319.685 999.932 319.966 1001.06 319.798 1002.17C319.633 1003.29 319.026 1004.27 318.12 1004.95L305.704 1014.09C305.273 1014.42 304.794 1014.64 304.292 1014.77L304.294 1014.78ZM268.17 935.717C267.9 935.789 267.652 935.907 267.417 936.074L255.001 945.219C254.517 945.576 254.2 946.096 254.121 946.687C254.031 947.28 254.179 947.872 254.534 948.346L301.4 1012.02C302.132 1013.01 303.536 1013.22 304.53 1012.49L316.946 1003.35C317.43 1002.99 317.746 1002.47 317.826 1001.88C317.916 1001.29 317.767 1000.69 317.413 1000.22L270.547 936.55C270.189 936.066 269.67 935.75 269.079 935.67C268.765 935.619 268.46 935.639 268.16 935.719L268.17 935.717Z" fill="#434244" fill-opacity="0.1"/>
<path d="M291.05 924.284L278.633 933.426C277.192 934.487 276.883 936.515 277.944 937.956L318.264 992.725C319.325 994.166 321.354 994.474 322.795 993.413L335.212 984.271C336.653 983.21 336.962 981.182 335.901 979.741L295.581 924.972C294.52 923.531 292.492 923.223 291.05 924.284Z" fill="#DFDFDF"/>
<path d="M321.977 994.917C321.417 995.067 320.835 995.099 320.242 995.009C319.121 994.844 318.143 994.247 317.463 993.332L277.141 938.551C276.473 937.643 276.192 936.517 276.36 935.406C276.526 934.285 277.133 933.304 278.038 932.627L290.454 923.482C291.362 922.814 292.488 922.533 293.599 922.701C294.72 922.867 295.698 923.464 296.378 924.379L336.701 979.16C338.086 981.045 337.679 983.701 335.803 985.084L323.387 994.229C322.956 994.551 322.477 994.773 321.975 994.908L321.977 994.917ZM292.397 924.742C292.126 924.815 291.878 924.933 291.643 925.099L279.227 934.244C278.233 934.977 278.019 936.38 278.751 937.374L319.073 992.155C319.431 992.639 319.95 992.955 320.541 993.035C321.134 993.124 321.726 992.976 322.201 992.621L334.617 983.476C335.611 982.744 335.825 981.34 335.093 980.346L294.771 925.566C294.413 925.082 293.894 924.765 293.303 924.686C292.989 924.635 292.684 924.655 292.384 924.735L292.397 924.742Z" fill="#434244" fill-opacity="0.1"/>
<path d="M313.976 911.521L301.558 920.663C300.117 921.724 299.809 923.752 300.87 925.193L337.266 974.631C338.326 976.072 340.355 976.38 341.796 975.319L354.213 966.178C355.654 965.117 355.963 963.088 354.902 961.647L318.506 912.21C317.445 910.769 315.417 910.46 313.976 911.521Z" fill="#E7E7E7"/>
<path d="M340.979 976.813C339.337 977.253 337.527 976.682 336.467 975.237L300.07 925.793C299.402 924.884 299.121 923.759 299.289 922.647C299.455 921.526 300.052 920.548 300.967 919.868L313.383 910.723C315.269 909.338 317.925 909.745 319.307 911.621L355.705 961.065C357.09 962.951 356.683 965.606 354.807 966.989L342.391 976.134C341.96 976.457 341.471 976.681 340.979 976.813ZM315.313 911.976C315.053 912.046 314.805 912.165 314.57 912.331L302.154 921.476C301.67 921.834 301.353 922.353 301.264 922.947C301.174 923.54 301.323 924.132 301.677 924.606L338.075 974.05C338.807 975.045 340.21 975.259 341.205 974.527L353.621 965.381C354.615 964.649 354.829 963.246 354.097 962.252L317.7 912.807C317.143 912.045 316.183 911.744 315.313 911.976Z" fill="#434244" fill-opacity="0.1"/>
<path d="M337.445 899.489L325.027 908.631C323.586 909.692 323.278 911.72 324.339 913.161L355.719 955.786C356.78 957.227 358.808 957.535 360.249 956.474L372.667 947.332C374.108 946.272 374.416 944.243 373.355 942.802L341.975 900.177C340.914 898.736 338.886 898.428 337.445 899.489Z" fill="#EEEEEE"/>
<path d="M359.43 957.975C357.798 958.412 355.979 957.844 354.919 956.399L323.536 913.769C322.151 911.883 322.557 909.227 324.433 907.845L336.849 898.7C338.735 897.314 341.391 897.721 342.773 899.597L374.156 942.227C374.824 943.135 375.105 944.261 374.937 945.372C374.771 946.493 374.164 947.474 373.259 948.151L360.843 957.296C360.412 957.619 359.923 957.843 359.43 957.975ZM338.779 899.953C338.519 900.023 338.261 900.143 338.036 900.307L325.62 909.452C324.625 910.185 324.411 911.588 325.144 912.582L356.526 955.212C357.259 956.207 358.662 956.421 359.656 955.689L372.072 946.543C372.556 946.186 372.873 945.666 372.953 945.076C373.042 944.482 372.894 943.89 372.539 943.416L341.156 900.786C340.6 900.024 339.639 899.722 338.77 899.955L338.779 899.953Z" fill="#434244" fill-opacity="0.1"/>
<path d="M361.074 887.717L348.656 896.858C347.215 897.919 346.907 899.947 347.968 901.388L373.976 936.717C375.037 938.158 377.065 938.467 378.506 937.406L390.924 928.264C392.365 927.203 392.673 925.175 391.613 923.734L365.604 888.405C364.543 886.964 362.515 886.656 361.074 887.717Z" fill="#F3F3F3"/>
<path d="M377.708 938.905C376.075 939.342 374.256 938.774 373.196 937.329L347.185 901.997C345.8 900.111 346.206 897.456 348.082 896.073L360.498 886.928C361.407 886.26 362.532 885.979 363.644 886.147C364.765 886.313 365.743 886.91 366.423 887.825L392.433 923.157C393.819 925.043 393.412 927.698 391.536 929.081L379.12 938.226C378.689 938.549 378.2 938.773 377.708 938.905ZM362.436 888.169C362.165 888.241 361.917 888.359 361.682 888.526L349.266 897.671C348.272 898.403 348.058 899.807 348.79 900.801L374.801 936.133C375.533 937.127 376.937 937.341 377.931 936.609L390.347 927.464C391.341 926.731 391.555 925.328 390.823 924.334L364.812 889.002C364.455 888.518 363.935 888.202 363.344 888.122C363.031 888.071 362.725 888.091 362.426 888.171L362.436 888.169Z" fill="#434244" fill-opacity="0.1"/>
<path d="M278.095 964.943C279.274 964.628 279.974 963.416 279.658 962.237C279.342 961.058 278.13 960.358 276.951 960.674C275.772 960.99 275.072 962.202 275.388 963.381C275.704 964.56 276.916 965.259 278.095 964.943Z" fill="white"/>
<path d="M278.351 965.9C277.114 966.231 275.737 965.803 274.935 964.703C273.889 963.275 274.19 961.269 275.616 960.214C277.034 959.171 279.05 959.47 280.105 960.895C280.612 961.588 280.818 962.433 280.691 963.275C280.567 964.126 280.114 964.868 279.421 965.375C279.093 965.618 278.725 965.789 278.358 965.888L278.351 965.9ZM277.209 961.64C277.065 961.679 276.937 961.744 276.805 961.831C276.546 962.025 276.374 962.309 276.324 962.623C276.276 962.946 276.349 963.258 276.542 963.517C276.935 964.054 277.701 964.169 278.225 963.77C278.484 963.576 278.656 963.292 278.707 962.978C278.755 962.655 278.681 962.343 278.488 962.084C278.18 961.67 277.67 961.506 277.197 961.633L277.209 961.64Z" fill="#434244" fill-opacity="0.1"/>
<path d="M294.994 987.902C296.172 987.587 296.872 986.375 296.556 985.196C296.24 984.017 295.028 983.317 293.85 983.633C292.671 983.949 291.971 985.161 292.287 986.34C292.603 987.519 293.815 988.218 294.994 987.902Z" fill="white"/>
<path d="M295.251 988.869C294.826 988.983 294.387 989.007 293.935 988.942C293.094 988.815 292.341 988.365 291.835 987.672C291.328 986.98 291.123 986.134 291.249 985.293C291.373 984.442 291.826 983.699 292.519 983.192C293.947 982.147 295.953 982.448 297.008 983.874C298.053 985.302 297.752 987.308 296.327 988.363C295.999 988.606 295.64 988.775 295.254 988.878L295.251 988.869ZM294.107 984.599C293.962 984.638 293.835 984.703 293.703 984.79C293.444 984.984 293.272 985.268 293.221 985.582C293.173 985.905 293.246 986.217 293.44 986.476C293.634 986.735 293.908 986.909 294.232 986.957C294.555 987.005 294.867 986.932 295.125 986.739C295.662 986.346 295.78 985.59 295.379 985.056C295.071 984.641 294.561 984.478 294.088 984.604L294.107 984.599Z" fill="#434244" fill-opacity="0.1"/>
<path d="M299.056 949.514C300.235 949.198 300.935 947.986 300.619 946.807C300.303 945.628 299.091 944.929 297.912 945.244C296.733 945.56 296.033 946.772 296.349 947.951C296.665 949.13 297.877 949.83 299.056 949.514Z" fill="white"/>
<path d="M299.314 950.48C298.889 950.593 298.45 950.618 297.998 950.553C297.156 950.426 296.404 949.975 295.898 949.283C295.391 948.59 295.185 947.745 295.312 946.903C295.436 946.052 295.889 945.31 296.581 944.803C297.274 944.297 298.119 944.091 298.961 944.217C299.802 944.344 300.555 944.795 301.061 945.487C301.568 946.18 301.773 947.025 301.647 947.867C301.523 948.718 301.07 949.46 300.377 949.967C300.049 950.21 299.69 950.379 299.304 950.482L299.314 950.48ZM298.17 946.21C298.025 946.249 297.888 946.317 297.765 946.401C297.507 946.595 297.334 946.879 297.284 947.193C297.236 947.516 297.309 947.828 297.503 948.087C297.696 948.345 297.971 948.52 298.294 948.568C298.618 948.616 298.929 948.543 299.188 948.349C299.447 948.156 299.619 947.872 299.67 947.558C299.718 947.234 299.644 946.923 299.451 946.664C299.257 946.405 298.983 946.23 298.659 946.182C298.487 946.156 298.324 946.169 298.17 946.21Z" fill="#434244" fill-opacity="0.1"/>
<path d="M315.954 972.472C317.133 972.156 317.833 970.944 317.517 969.765C317.201 968.586 315.989 967.887 314.81 968.202C313.632 968.518 312.932 969.73 313.248 970.909C313.564 972.088 314.776 972.788 315.954 972.472Z" fill="white"/>
<path d="M316.212 973.438C315.787 973.552 315.348 973.576 314.896 973.511C314.055 973.385 313.302 972.934 312.796 972.241C312.289 971.549 312.084 970.703 312.21 969.862C312.334 969.011 312.787 968.268 313.48 967.762C314.898 966.719 316.914 967.017 317.969 968.443C318.476 969.136 318.681 969.981 318.555 970.822C318.431 971.674 317.978 972.416 317.285 972.923C316.957 973.166 316.598 973.334 316.212 973.438ZM315.068 969.169C314.923 969.207 314.796 969.273 314.664 969.36C314.405 969.553 314.233 969.838 314.182 970.151C314.134 970.475 314.207 970.786 314.401 971.045C314.595 971.304 314.869 971.479 315.193 971.527C315.516 971.575 315.828 971.501 316.086 971.308C316.345 971.114 316.517 970.83 316.568 970.516C316.616 970.193 316.543 969.881 316.349 969.622C316.041 969.208 315.532 969.044 315.058 969.171L315.068 969.169Z" fill="#434244" fill-opacity="0.1"/>
<path d="M320.005 934.085C321.184 933.769 321.884 932.557 321.568 931.378C321.252 930.199 320.04 929.5 318.861 929.816C317.682 930.132 316.983 931.343 317.299 932.522C317.614 933.701 318.826 934.401 320.005 934.085Z" fill="white"/>
<path d="M320.273 935.049C319.036 935.38 317.659 934.952 316.857 933.852C315.811 932.424 316.112 930.418 317.538 929.363C318.23 928.856 319.076 928.651 319.917 928.777C320.768 928.901 321.511 929.354 322.018 930.047C323.063 931.475 322.762 933.481 321.334 934.527C321.005 934.77 320.637 934.941 320.27 935.039L320.273 935.049ZM319.129 930.78C318.984 930.818 318.847 930.886 318.724 930.971C318.188 931.363 318.069 932.119 318.471 932.654C318.864 933.19 319.62 933.309 320.154 932.907C320.413 932.713 320.585 932.429 320.636 932.115C320.684 931.792 320.611 931.48 320.417 931.221C320.223 930.962 319.949 930.788 319.625 930.74C319.453 930.713 319.29 930.726 319.136 930.767L319.129 930.78Z" fill="#434244" fill-opacity="0.1"/>
<path d="M336.911 957.042C338.09 956.726 338.79 955.514 338.474 954.335C338.158 953.156 336.946 952.457 335.768 952.773C334.589 953.089 333.889 954.3 334.205 955.479C334.521 956.658 335.733 957.358 336.911 957.042Z" fill="white"/>
<path d="M337.169 958.008C335.933 958.339 334.555 957.911 333.753 956.811C333.247 956.119 333.041 955.273 333.167 954.432C333.291 953.581 333.744 952.838 334.437 952.332C335.129 951.825 335.975 951.619 336.816 951.746C337.658 951.872 338.41 952.323 338.917 953.015C339.423 953.708 339.629 954.554 339.502 955.395C339.378 956.246 338.925 956.989 338.233 957.495C337.904 957.738 337.536 957.91 337.169 958.008ZM336.025 953.738C335.88 953.777 335.743 953.845 335.621 953.93C335.362 954.123 335.19 954.407 335.139 954.721C335.091 955.045 335.165 955.356 335.358 955.615C335.75 956.152 336.507 956.27 337.044 955.878C337.302 955.684 337.475 955.4 337.525 955.086C337.573 954.763 337.5 954.451 337.306 954.192C337.113 953.934 336.838 953.759 336.515 953.711C336.342 953.685 336.18 953.697 336.025 953.738Z" fill="#434244" fill-opacity="0.1"/>
<path d="M340.966 918.654C342.145 918.339 342.845 917.127 342.529 915.948C342.213 914.769 341.001 914.069 339.822 914.385C338.643 914.701 337.944 915.913 338.259 917.092C338.575 918.271 339.787 918.97 340.966 918.654Z" fill="white"/>
<path d="M341.234 919.618C339.997 919.95 338.62 919.522 337.818 918.422C336.772 916.993 337.073 914.987 338.499 913.932C339.191 913.426 340.037 913.22 340.888 913.344C341.729 913.47 342.482 913.921 342.988 914.614C343.495 915.306 343.701 916.152 343.574 916.993C343.45 917.844 342.997 918.587 342.304 919.093C341.976 919.336 341.608 919.508 341.241 919.606L341.234 919.618ZM340.09 915.349C339.945 915.388 339.808 915.455 339.685 915.54C339.149 915.932 339.03 916.689 339.432 917.223C339.834 917.757 340.591 917.875 341.115 917.476C341.374 917.282 341.546 916.998 341.597 916.684C341.645 916.361 341.571 916.049 341.378 915.79C341.184 915.532 340.91 915.357 340.586 915.309C340.414 915.283 340.251 915.295 340.097 915.337L340.09 915.349Z" fill="#434244" fill-opacity="0.1"/>
<path d="M357.872 941.61C359.051 941.295 359.751 940.083 359.435 938.904C359.119 937.725 357.907 937.025 356.728 937.341C355.549 937.657 354.85 938.869 355.166 940.048C355.482 941.227 356.693 941.926 357.872 941.61Z" fill="white"/>
<path d="M358.13 942.577C356.894 942.908 355.516 942.48 354.714 941.38C354.207 940.688 354.001 939.842 354.128 939.001C354.252 938.15 354.705 937.407 355.398 936.9C356.826 935.855 358.832 936.156 359.887 937.582C360.394 938.274 360.599 939.12 360.473 939.961C360.349 940.812 359.896 941.555 359.203 942.061C358.875 942.305 358.507 942.476 358.14 942.574L358.13 942.577ZM356.986 938.307C356.841 938.346 356.714 938.411 356.582 938.498C356.323 938.692 356.151 938.976 356.1 939.29C356.052 939.613 356.125 939.925 356.319 940.184C356.711 940.721 357.468 940.839 358.004 940.447C358.263 940.253 358.435 939.969 358.486 939.655C358.534 939.332 358.461 939.02 358.267 938.761C357.959 938.347 357.45 938.183 356.986 938.307Z" fill="#434244" fill-opacity="0.1"/>
<path d="M361.923 903.224C363.102 902.908 363.802 901.696 363.486 900.517C363.17 899.338 361.958 898.638 360.779 898.954C359.6 899.27 358.901 900.482 359.217 901.661C359.532 902.84 360.744 903.54 361.923 903.224Z" fill="white"/>
<path d="M362.183 904.19C361.758 904.303 361.319 904.328 360.867 904.263C360.026 904.136 359.273 903.685 358.767 902.993C357.722 901.565 358.023 899.559 359.448 898.504C360.141 897.997 360.986 897.791 361.837 897.915C362.679 898.042 363.431 898.492 363.937 899.185C364.444 899.877 364.65 900.723 364.523 901.564C364.399 902.415 363.946 903.158 363.254 903.665C362.925 903.908 362.567 904.076 362.18 904.18L362.183 904.19ZM361.039 899.92C360.894 899.959 360.757 900.027 360.635 900.111C360.098 900.504 359.98 901.26 360.382 901.794C360.575 902.053 360.85 902.228 361.173 902.276C361.497 902.324 361.808 902.25 362.067 902.057C362.326 901.863 362.498 901.579 362.549 901.265C362.596 900.942 362.523 900.63 362.33 900.371C362.136 900.113 361.862 899.938 361.538 899.89C361.365 899.864 361.203 899.876 361.049 899.918L361.039 899.92Z" fill="#434244" fill-opacity="0.1"/>
<path d="M378.822 926.183C380.001 925.867 380.7 924.655 380.384 923.476C380.068 922.297 378.857 921.597 377.678 921.913C376.499 922.229 375.799 923.441 376.115 924.62C376.431 925.799 377.643 926.499 378.822 926.183Z" fill="white"/>
<path d="M379.091 927.146C377.855 927.477 376.477 927.049 375.675 925.949C375.168 925.257 374.962 924.411 375.089 923.57C375.213 922.719 375.666 921.976 376.359 921.47C377.787 920.425 379.793 920.725 380.848 922.151C381.354 922.844 381.56 923.689 381.434 924.531C381.31 925.382 380.857 926.124 380.164 926.631C379.836 926.874 379.468 927.045 379.101 927.143L379.091 927.146ZM377.949 922.886C377.805 922.925 377.677 922.99 377.545 923.077C377.286 923.271 377.114 923.555 377.064 923.869C377.016 924.192 377.089 924.504 377.282 924.763C377.675 925.3 378.431 925.418 378.968 925.026C379.227 924.832 379.399 924.548 379.449 924.234C379.497 923.911 379.424 923.599 379.231 923.34C378.923 922.926 378.413 922.762 377.94 922.889L377.949 922.886Z" fill="#434244" fill-opacity="0.1"/>
<path d="M391.338 869.758L322.406 890.964L323.259 893.736L392.191 872.529L391.338 869.758Z" fill="white"/>
<path d="M323.506 894.686C323.265 894.751 322.997 894.719 322.779 894.601C322.549 894.476 322.369 894.266 322.289 894.008L321.432 891.235C321.271 890.709 321.564 890.144 322.09 889.982L391.019 868.769C391.289 868.697 391.544 868.722 391.784 868.844C392.024 868.966 392.195 869.179 392.274 869.437L393.131 872.21C393.293 872.736 392.999 873.301 392.473 873.463L323.545 894.675C323.545 894.675 323.516 894.683 323.506 894.686ZM323.643 891.605L323.905 892.467L390.923 871.849L390.661 870.987L323.643 891.605Z" fill="#434244" fill-opacity="0.1"/>
<path d="M324.058 896.93C326.597 896.25 328.104 893.64 327.424 891.101C326.743 888.561 324.133 887.054 321.594 887.735C319.055 888.415 317.548 891.025 318.228 893.565C318.908 896.104 321.519 897.611 324.058 896.93Z" fill="#F8A7AF"/>
<path d="M324.319 897.906C322.908 898.284 321.436 898.12 320.134 897.433C318.77 896.711 317.775 895.508 317.318 894.036C316.862 892.564 317.013 891.002 317.734 889.638C318.456 888.275 319.66 887.28 321.132 886.823C322.597 886.379 324.166 886.518 325.519 887.242C326.883 887.964 327.878 889.167 328.335 890.639C328.791 892.111 328.64 893.673 327.919 895.037C327.197 896.4 325.993 897.395 324.521 897.852C324.454 897.87 324.377 897.891 324.309 897.909L324.319 897.906ZM321.852 888.701C321.852 888.701 321.765 888.724 321.717 888.737C320.752 889.037 319.962 889.683 319.497 890.574C319.031 891.465 318.932 892.485 319.23 893.441C319.845 895.429 321.957 896.551 323.934 895.928C325.922 895.313 327.034 893.203 326.421 891.224C325.818 889.284 323.791 888.171 321.85 888.691L321.852 888.701Z" fill="#434244" fill-opacity="0.1"/>
<path d="M423.988 941.518L353.266 927.387L352.697 930.231L423.419 944.362L423.988 941.518Z" fill="white"/>
<path d="M423.681 945.335C423.536 945.374 423.384 945.383 423.23 945.352L352.502 931.216C352.239 931.162 352.013 931.016 351.869 930.785C351.727 930.565 351.664 930.292 351.72 930.038L352.293 927.193C352.405 926.645 352.923 926.3 353.471 926.412L424.2 940.547C424.463 940.601 424.688 940.748 424.833 940.978C424.975 941.199 425.038 941.472 424.981 941.725L424.408 944.57C424.335 944.953 424.041 945.249 423.684 945.344L423.681 945.335ZM353.881 929.449L422.641 943.191L422.818 942.305L354.058 928.563L353.881 929.449Z" fill="#434244" fill-opacity="0.1"/>
<path d="M354.218 933.407C356.757 932.727 358.264 930.117 357.584 927.577C356.903 925.038 354.293 923.531 351.754 924.211C349.215 924.892 347.708 927.502 348.388 930.041C349.069 932.58 351.679 934.087 354.218 933.407Z" fill="#F8A7AF"/>
<path d="M354.469 934.385C353.629 934.61 352.737 934.642 351.851 934.465C350.342 934.166 349.042 933.292 348.181 932.011C347.32 930.731 347.023 929.195 347.322 927.686C347.622 926.177 348.495 924.877 349.776 924.016C351.059 923.165 352.592 922.858 354.101 923.158C357.219 923.782 359.245 926.821 358.62 929.939C358.321 931.448 357.447 932.748 356.167 933.609C355.632 933.97 355.059 934.227 354.46 934.387L354.469 934.385ZM352.003 925.179C351.607 925.286 351.239 925.457 350.886 925.686C350.051 926.241 349.483 927.097 349.282 928.083C349.08 929.069 349.286 930.069 349.843 930.914C350.398 931.749 351.255 932.316 352.24 932.518C353.226 932.72 354.227 932.514 355.071 931.956C355.906 931.401 356.474 930.545 356.676 929.559C357.083 927.525 355.754 925.541 353.72 925.134C353.14 925.02 352.566 925.039 352.015 925.187L352.003 925.179Z" fill="#434244" fill-opacity="0.1"/>
<path d="M1697.08 1217.22L1703.75 1171.27L1700.38 1170.78L1694.23 1213.16C1691.06 1210.61 1686.08 1209.93 1681.37 1211.82C1674.92 1214.4 1671.37 1220.79 1673.49 1226.08C1674.77 1229.32 1677.88 1231.4 1681.59 1231.94C1683.93 1232.28 1686.52 1232 1689.02 1231C1692.09 1229.78 1694.59 1227.66 1696.09 1225.06C1697.58 1222.49 1697.91 1219.73 1697.07 1217.21L1697.08 1217.22Z" fill="#FFC4D1"/>
<path d="M1764.01 920.985C1762.91 921.296 1761.62 921.243 1760.28 920.799C1757.59 919.919 1754.52 917.617 1754.11 914.632C1754.02 913.983 1754.48 913.379 1755.13 913.29C1755.78 913.201 1756.39 913.654 1756.47 914.312C1756.73 916.169 1759.01 917.875 1761.01 918.533C1762.22 918.933 1763.33 918.879 1763.97 918.391C1766.53 916.444 1763.64 911.512 1762.26 909.14L1760.16 905.55C1752.7 908.9 1742.71 906.261 1738.3 899.729C1734.47 894.068 1736.61 887.057 1738.56 882.276C1739.28 880.499 1740.1 878.757 1740.9 877.069C1741.29 876.251 1741.68 875.416 1742.07 874.581L1739.29 869.844C1737.54 866.832 1735.71 863.721 1734.31 860.425C1732.89 857.083 1732.8 854.515 1734.05 852.578C1735.45 850.392 1738.53 849.485 1741.22 850.463C1743.35 851.236 1745.17 853.04 1746.33 855.555C1748.7 860.638 1747.68 866.316 1746.4 870.191C1745.92 871.639 1745.35 873.061 1744.74 874.447L1749.7 882.925C1750.96 882.276 1752.39 881.832 1753.93 881.636C1758.55 881.05 1763.23 882.872 1765.85 886.266C1768.07 889.145 1768.8 892.727 1767.92 896.326C1767.11 899.605 1765.06 902.502 1762.26 904.403L1764.34 907.949C1765.93 910.677 1769.67 917.075 1765.43 920.301C1765.01 920.612 1764.54 920.852 1764.02 920.994L1764.01 920.985ZM1743.53 877.087C1743.37 877.424 1743.22 877.753 1743.06 878.082C1742.28 879.744 1741.47 881.459 1740.77 883.174C1738.01 889.972 1737.86 894.806 1740.28 898.396C1743.98 903.861 1752.62 906.172 1758.96 903.479L1748.93 886.328C1748.08 887.11 1747.4 888.061 1746.93 889.154C1746.08 891.118 1746.09 893.384 1746.95 894.939C1747.57 896.059 1748.58 896.743 1749.95 896.957C1750.41 897.028 1750.84 896.921 1751.06 896.699C1751.53 896.228 1752.28 896.228 1752.75 896.69C1753.22 897.152 1753.22 897.907 1752.76 898.378C1751.99 899.16 1750.8 899.516 1749.58 899.32C1747.48 898.992 1745.85 897.881 1744.86 896.103C1743.65 893.9 1743.59 890.878 1744.73 888.221C1745.41 886.639 1746.43 885.298 1747.7 884.231L1743.52 877.095L1743.53 877.087ZM1750.9 884.978L1761.05 902.333C1763.3 900.769 1764.95 898.414 1765.6 895.748C1766.31 892.86 1765.72 890.007 1763.95 887.706C1761.85 884.969 1758.03 883.511 1754.23 883.991C1753.01 884.142 1751.9 884.48 1750.9 884.978ZM1737.83 852.605C1737.11 852.809 1736.47 853.218 1736.06 853.858C1735.27 855.093 1735.42 856.932 1736.51 859.492C1737.85 862.646 1739.63 865.694 1741.36 868.645L1743.24 871.87C1743.57 871.062 1743.87 870.253 1744.14 869.435C1745.27 865.97 1746.21 860.922 1744.16 856.55C1743.64 855.43 1742.46 853.44 1740.4 852.693C1739.61 852.409 1738.66 852.365 1737.82 852.605H1737.83Z" fill="#C4D4FF"/>
<path d="M1764.01 920.985C1762.36 921.447 1760.61 921.047 1759.09 920.336C1757.57 919.617 1756.16 918.586 1755.16 917.208C1754.67 916.515 1754.3 915.733 1754.14 914.898C1754.01 914.498 1754.08 914.009 1754.37 913.681C1754.65 913.343 1755.12 913.183 1755.54 913.272C1755.97 913.352 1756.34 913.681 1756.48 914.098C1756.57 914.525 1756.64 914.916 1756.86 915.289C1757.26 916.027 1757.86 916.631 1758.53 917.128C1759.2 917.626 1759.94 918.035 1760.72 918.328C1761.49 918.621 1762.35 918.79 1763.15 918.63C1763.55 918.55 1763.9 918.355 1764.17 918.044C1764.46 917.768 1764.63 917.386 1764.75 917.013C1764.96 916.222 1764.84 915.378 1764.63 914.578C1764.19 912.97 1763.38 911.486 1762.53 910.028L1759.93 905.683L1760.28 905.789C1756.32 907.602 1751.73 907.771 1747.56 906.616C1743.39 905.461 1739.46 902.901 1737.21 899.027C1736.12 897.081 1735.57 894.841 1735.53 892.629C1735.47 890.407 1735.85 888.23 1736.42 886.124C1737 884.027 1737.79 882.001 1738.68 880.063C1739.54 878.099 1740.42 876.136 1741.3 874.225L1741.34 874.989L1737.57 868.6C1736.32 866.458 1735.1 864.272 1734.05 861.988C1733.02 859.749 1731.93 857.172 1732.43 854.328C1732.69 852.933 1733.46 851.591 1734.6 850.694C1735.72 849.796 1737.1 849.299 1738.5 849.219C1739.88 849.13 1741.32 849.45 1742.52 850.098C1743.74 850.747 1744.76 851.68 1745.58 852.729C1747.21 854.853 1748.06 857.403 1748.37 859.962C1748.69 862.531 1748.42 865.116 1747.84 867.578C1747.3 870.075 1746.21 872.341 1745.3 874.669L1745.27 874.118L1750.12 882.649L1749.48 882.463C1752.48 880.97 1755.99 880.739 1759.17 881.574C1762.35 882.409 1765.26 884.435 1766.88 887.315C1768.56 890.149 1768.88 893.677 1767.93 896.77C1767.02 899.889 1764.98 902.635 1762.29 904.43L1762.31 904.341L1764.72 908.526C1765.52 909.922 1766.26 911.361 1766.78 912.89C1767.03 913.654 1767.25 914.436 1767.33 915.236C1767.44 916.035 1767.41 916.853 1767.21 917.635C1766.81 919.19 1765.57 920.541 1764.02 920.967L1764.01 920.985ZM1764.01 920.985C1765.57 920.55 1766.79 919.19 1767.18 917.644C1767.37 916.871 1767.4 916.053 1767.29 915.253C1767.21 914.454 1766.98 913.681 1766.74 912.916C1766.2 911.397 1765.46 909.966 1764.66 908.571L1762.2 904.421L1762.16 904.368L1762.21 904.332C1764.84 902.519 1766.82 899.782 1767.66 896.708C1768.52 893.651 1768.1 890.256 1766.44 887.581C1764.83 884.871 1762.01 883.014 1758.98 882.294C1755.95 881.574 1752.65 881.894 1749.92 883.334L1749.52 883.547L1749.28 883.147L1744.23 874.732L1744.08 874.492L1744.19 874.181C1745.02 871.888 1746.03 869.64 1746.48 867.267C1746.98 864.912 1747.15 862.495 1746.85 860.149C1746.54 857.821 1745.71 855.528 1744.29 853.742C1742.88 851.956 1740.78 850.747 1738.62 850.925C1737.55 850.987 1736.5 851.387 1735.7 852.036C1734.89 852.684 1734.37 853.617 1734.17 854.648C1733.97 855.688 1734.11 856.817 1734.4 857.927C1734.69 859.047 1735.16 860.131 1735.66 861.242C1737.7 865.65 1740.37 869.835 1742.8 874.145L1743.02 874.536L1742.84 874.909C1741.91 876.846 1741.03 878.766 1740.16 880.677C1739.23 882.587 1738.47 884.533 1737.86 886.524C1737.26 888.514 1736.86 890.558 1736.87 892.602C1736.85 894.646 1737.31 896.672 1738.25 898.458C1740.21 902.039 1743.85 904.599 1747.81 905.789C1751.79 906.989 1756.22 906.945 1760.07 905.283L1760.3 905.185L1760.42 905.398L1762.92 909.806C1763.74 911.29 1764.52 912.819 1764.95 914.489C1765.15 915.316 1765.26 916.204 1765.03 917.066C1764.89 917.484 1764.69 917.893 1764.36 918.195C1764.07 918.524 1763.65 918.755 1763.22 918.826C1762.35 918.986 1761.48 918.79 1760.69 918.488C1759.89 918.177 1759.14 917.751 1758.47 917.235C1757.8 916.711 1757.19 916.089 1756.79 915.325C1756.57 914.951 1756.49 914.507 1756.41 914.107C1756.3 913.716 1755.95 913.396 1755.55 913.325C1755.15 913.236 1754.71 913.387 1754.44 913.707C1754.17 914.018 1754.1 914.471 1754.22 914.871C1754.37 915.698 1754.73 916.48 1755.22 917.164C1756.21 918.533 1757.6 919.572 1759.12 920.301C1760.63 921.021 1762.38 921.429 1764.03 920.976L1764.01 920.985Z" fill="#C4D4FF"/>
<path d="M1743.53 877.086C1742.81 878.748 1742.17 880.436 1741.46 882.089C1740.73 883.742 1740.18 885.457 1739.74 887.181C1739.31 888.914 1739.02 890.682 1739.06 892.424C1739.07 894.166 1739.5 895.881 1740.34 897.347C1742.1 900.288 1745.24 902.27 1748.55 903.168C1751.86 904.092 1755.51 904.03 1758.63 902.688L1758.23 903.896C1754.88 898.191 1751.5 892.486 1748.2 886.755L1749.53 886.959C1748.41 887.972 1747.6 889.358 1747.3 890.833C1747 892.3 1747.15 893.935 1747.98 895.01C1748.39 895.543 1748.97 895.899 1749.66 896.085C1749.82 896.13 1750.04 896.174 1750.16 896.183C1750.27 896.192 1750.4 896.183 1750.47 896.156C1750.59 896.103 1750.4 896.227 1750.8 895.916C1751.08 895.712 1751.43 895.596 1751.77 895.57C1752.47 895.508 1753.18 895.863 1753.55 896.45C1753.93 897.036 1753.97 897.809 1753.64 898.422C1753.56 898.573 1753.45 898.716 1753.34 898.84C1753.23 898.947 1753.14 899.027 1753.04 899.115C1752.83 899.284 1752.62 899.427 1752.39 899.542C1751.93 899.782 1751.44 899.933 1750.95 900.004C1750.45 900.075 1749.95 900.057 1749.47 899.977C1749.02 899.897 1748.57 899.782 1748.13 899.622C1747.25 899.311 1746.44 898.822 1745.75 898.182C1744.36 896.903 1743.66 895.072 1743.48 893.304C1743.11 889.705 1744.81 886.141 1747.56 884.009L1747.49 884.355L1745.57 880.783C1744.92 879.574 1744.25 878.321 1743.55 877.077L1743.53 877.086ZM1743.53 877.086C1744.22 878.224 1744.94 879.352 1745.69 880.516L1747.94 884.08L1748.05 884.266L1747.88 884.426C1745.39 886.603 1744.06 890.007 1744.5 893.179C1744.71 894.752 1745.41 896.254 1746.56 897.258C1747.13 897.756 1747.8 898.138 1748.53 898.369C1748.9 898.485 1749.27 898.573 1749.65 898.627C1750.01 898.671 1750.36 898.68 1750.71 898.618C1751.06 898.565 1751.38 898.449 1751.67 898.28C1751.81 898.2 1751.95 898.102 1752.07 897.996C1752.13 897.951 1752.19 897.88 1752.24 897.836C1752.26 897.809 1752.28 897.774 1752.31 897.738C1752.46 897.436 1752.19 897.054 1751.87 897.107C1751.79 897.107 1751.72 897.143 1751.67 897.187C1751.62 897.223 1751.67 897.187 1751.45 897.383C1751.28 897.507 1751.11 897.587 1750.95 897.64C1750.62 897.747 1750.31 897.774 1750.01 897.747C1749.7 897.711 1749.51 897.667 1749.25 897.614C1748.3 897.383 1747.34 896.832 1746.7 896.023C1746.05 895.223 1745.71 894.264 1745.56 893.322C1745.4 892.371 1745.44 891.42 1745.62 890.496C1745.99 888.647 1746.97 886.95 1748.36 885.679L1749.15 884.959L1749.7 885.884C1753.07 891.58 1756.38 897.32 1759.71 903.043L1760.2 903.887L1759.3 904.252C1755.72 905.709 1751.73 905.683 1748.13 904.616C1744.55 903.523 1741.19 901.293 1739.31 897.916C1738.42 896.21 1738.04 894.281 1738.1 892.415C1738.12 890.54 1738.56 888.727 1739.09 886.986C1739.65 885.244 1740.31 883.547 1741.12 881.929C1741.91 880.303 1742.71 878.668 1743.54 877.068L1743.53 877.086Z" fill="#C4D4FF"/>
<path d="M1750.91 884.968L1756.57 893.57C1758.38 896.361 1760.11 899.106 1761.79 901.888L1760.56 901.621C1762.53 900.244 1763.97 898.173 1764.65 895.898C1765.32 893.624 1765.12 891.118 1763.94 889.047C1762.8 886.959 1760.71 885.448 1758.35 884.728C1755.99 884.026 1753.33 884.035 1750.91 884.968ZM1750.91 884.968C1753.14 883.6 1755.95 883.226 1758.59 883.751C1761.23 884.266 1763.79 885.839 1765.26 888.256C1766.01 889.438 1766.49 890.807 1766.67 892.202C1766.83 893.606 1766.71 895.036 1766.33 896.378C1765.59 899.08 1763.81 901.435 1761.53 903.016L1760.76 903.55L1760.31 902.75C1758.6 899.746 1756.95 896.707 1755.38 893.712C1753.81 890.718 1752.31 887.776 1750.9 884.968H1750.91Z" fill="#C4D4FF"/>
<path d="M1737.83 852.604C1736.94 852.853 1736.15 853.493 1735.84 854.364C1735.51 855.235 1735.63 856.185 1735.84 857.056C1736.31 858.825 1737.26 860.433 1738.16 862.024C1739.09 863.614 1740.08 865.152 1741.09 866.707C1742.08 868.262 1743.07 869.826 1744 871.417L1742.43 871.532C1742.74 870.608 1743.12 869.71 1743.43 868.786C1743.73 867.862 1744 866.938 1744.22 865.996C1744.63 864.121 1744.9 862.193 1744.75 860.255C1744.61 858.336 1744.08 856.381 1742.94 854.772C1742.36 853.982 1741.63 853.28 1740.73 852.853C1739.85 852.426 1738.79 852.338 1737.83 852.595V852.604ZM1737.83 852.604C1738.79 852.329 1739.85 852.382 1740.76 852.8C1741.68 853.191 1742.49 853.848 1743.14 854.621C1744.46 856.168 1745.26 858.123 1745.68 860.14C1746.1 862.166 1746.07 864.272 1745.75 866.307C1745.59 867.329 1745.37 868.333 1745.07 869.319C1744.76 870.297 1744.41 871.248 1744.04 872.199L1743.38 873.896L1742.47 872.314C1741.54 870.715 1740.65 869.097 1739.79 867.453C1738.94 865.8 1738.12 864.13 1737.39 862.406C1736.69 860.682 1735.93 858.967 1735.59 857.11C1735.42 856.194 1735.41 855.217 1735.76 854.346C1736.1 853.466 1736.92 852.844 1737.81 852.613L1737.83 852.604Z" fill="#C4D4FF"/>
<path d="M1692.29 908.313C1695.45 916.977 1690.4 917.439 1684.73 919.51C1679.05 921.58 1674.89 924.477 1671.73 915.813C1668.57 907.149 1670.61 898.449 1676.29 896.378C1681.96 894.308 1689.12 899.648 1692.29 908.313Z" fill="white"/>
<path d="M1677.52 922.575C1676.77 922.575 1676.04 922.442 1675.33 922.122C1673.51 921.296 1672.1 919.394 1670.91 916.115C1667.58 907.006 1669.87 897.774 1675.99 895.534C1679.02 894.423 1682.5 895.161 1685.77 897.596C1688.93 899.951 1691.54 903.647 1693.12 908.002C1694.32 911.281 1694.47 913.645 1693.6 915.449C1692.46 917.812 1689.75 918.728 1686.89 919.696C1686.29 919.901 1685.66 920.114 1685.03 920.345C1684.4 920.576 1683.79 920.816 1683.19 921.047C1681.21 921.829 1679.31 922.575 1677.52 922.575ZM1678.86 896.814C1678.07 896.814 1677.32 896.947 1676.6 897.205C1671.39 899.106 1669.59 907.317 1672.58 915.502C1673.58 918.257 1674.72 919.901 1676.07 920.496C1677.77 921.269 1679.98 920.398 1682.55 919.385C1683.15 919.145 1683.79 918.896 1684.43 918.665C1685.08 918.434 1685.72 918.212 1686.33 918.008C1688.95 917.128 1691.19 916.364 1692.01 914.675C1692.65 913.351 1692.46 911.361 1691.46 908.606C1689.99 904.58 1687.6 901.168 1684.71 899.018C1682.75 897.551 1680.74 896.805 1678.86 896.805L1678.86 896.814Z" fill="#434244" fill-opacity="0.1"/>
<path d="M1676.97 874.573L1661.73 880.134L1670.67 904.636L1685.91 899.076L1676.97 874.573Z" fill="#C5F2EA"/>
<path d="M1670.13 905.771L1660.59 879.601L1677.49 873.434L1687.03 899.604L1670.13 905.771ZM1662.86 880.667L1671.19 903.496L1684.75 898.547L1676.43 875.717L1662.86 880.667Z" fill="#434244" fill-opacity="0.1"/>
<path d="M1692.02 915.84L1676.78 921.4L1704.31 996.903L1719.54 991.342L1692.02 915.84Z" fill="#C5F2EA"/>
<path d="M1703.78 998.039L1675.64 920.869L1692.54 914.702L1720.68 991.872L1703.78 998.039ZM1677.91 921.927L1704.83 995.764L1718.4 990.814L1691.47 916.977L1677.91 921.927Z" fill="#434244" fill-opacity="0.1"/>
<path d="M1725.31 1008.91L1711.19 1014.06L1716.06 1027.44L1730.18 1022.29L1725.31 1008.91Z" fill="#C5F2EA"/>
<path d="M1715.54 1028.57L1710.05 1013.53L1725.84 1007.77L1731.33 1022.81L1715.54 1028.57ZM1712.33 1014.59L1716.61 1026.3L1729.05 1021.76L1724.78 1010.04L1712.33 1014.59Z" fill="#434244" fill-opacity="0.1"/>
<path d="M1667.56 852.702C1666.38 850.445 1664.06 849.316 1662.08 850.036L1657.33 851.769C1655.35 852.489 1654.31 854.853 1654.86 857.332L1655.43 862.006C1655.52 862.744 1655.7 863.472 1655.95 864.183L1660.59 876.909L1675.83 871.346L1671.19 858.629C1670.92 857.883 1670.56 857.181 1670.12 856.532L1667.55 852.702H1667.56Z" fill="white"/>
<path d="M1660.06 878.055L1655.11 864.494C1654.83 863.73 1654.64 862.93 1654.54 862.122L1653.97 857.447C1653.33 854.595 1654.6 851.822 1657.02 850.942L1661.77 849.21C1664.17 848.33 1666.92 849.609 1668.31 852.249L1670.86 856.043C1671.34 856.754 1671.72 857.518 1672.02 858.327L1676.96 871.879L1660.06 878.046V878.055ZM1663.3 850.72C1662.99 850.72 1662.68 850.774 1662.39 850.88L1657.63 852.613C1656.1 853.173 1655.27 855.119 1655.72 857.145L1656.3 861.908C1656.38 862.584 1656.54 863.241 1656.77 863.89L1661.11 875.78L1674.67 870.83L1670.34 858.949C1670.09 858.274 1669.77 857.634 1669.37 857.047L1666.75 853.128C1665.97 851.644 1664.6 850.729 1663.28 850.729L1663.3 850.72Z" fill="#434244" fill-opacity="0.1"/>
<path d="M1676.47 871.062L1659.9 877.11C1659.21 877.362 1658.85 878.127 1659.11 878.819L1659.37 879.537C1659.62 880.228 1660.38 880.584 1661.08 880.332L1677.65 874.284C1678.34 874.032 1678.7 873.267 1678.44 872.575L1678.18 871.857C1677.93 871.166 1677.16 870.81 1676.47 871.062Z" fill="white"/>
<path d="M1660.62 881.299C1660.3 881.299 1659.98 881.228 1659.68 881.094C1659.14 880.845 1658.74 880.401 1658.54 879.841L1658.28 879.13C1658.08 878.571 1658.1 877.966 1658.35 877.433C1658.6 876.891 1659.04 876.491 1659.6 876.287L1676.18 870.235C1677.33 869.817 1678.6 870.413 1679.03 871.559L1679.29 872.27C1679.71 873.416 1679.11 874.696 1677.97 875.123L1661.39 881.174C1661.14 881.263 1660.88 881.308 1660.63 881.308L1660.62 881.299ZM1676.93 871.87C1676.88 871.87 1676.83 871.87 1676.78 871.897L1660.21 877.948C1660.06 878.002 1659.99 878.117 1659.96 878.18C1659.93 878.242 1659.89 878.366 1659.94 878.517L1660.2 879.228C1660.25 879.379 1660.37 879.45 1660.43 879.477C1660.49 879.504 1660.62 879.548 1660.77 879.495L1677.34 873.443C1677.57 873.363 1677.69 873.105 1677.61 872.874L1677.35 872.163C1677.29 871.986 1677.11 871.87 1676.93 871.87Z" fill="#434244" fill-opacity="0.1"/>
<path d="M1725.4 1005.23L1708.82 1011.28C1708.13 1011.53 1707.77 1012.3 1708.03 1012.99L1708.29 1013.71C1708.54 1014.4 1709.31 1014.75 1710 1014.5L1726.57 1008.45C1727.26 1008.2 1727.62 1007.44 1727.37 1006.75L1727.1 1006.03C1726.85 1005.34 1726.09 1004.98 1725.4 1005.23Z" fill="white"/>
<path d="M1709.54 1015.46C1708.64 1015.46 1707.79 1014.9 1707.46 1014L1707.2 1013.29C1706.78 1012.14 1707.38 1010.86 1708.52 1010.44L1725.1 1004.38C1725.66 1004.18 1726.26 1004.21 1726.8 1004.45C1727.34 1004.7 1727.74 1005.15 1727.94 1005.71L1728.2 1006.42C1728.62 1007.57 1728.02 1008.84 1726.88 1009.27L1710.3 1015.32C1710.05 1015.41 1709.79 1015.46 1709.54 1015.46ZM1725.85 1006.03C1725.81 1006.03 1725.76 1006.03 1725.7 1006.05L1709.13 1012.11C1708.9 1012.19 1708.78 1012.44 1708.86 1012.67L1709.12 1013.39C1709.17 1013.54 1709.29 1013.61 1709.35 1013.63C1709.41 1013.66 1709.54 1013.71 1709.69 1013.65L1726.26 1007.6C1726.49 1007.52 1726.61 1007.26 1726.53 1007.03L1726.27 1006.32C1726.22 1006.17 1726.1 1006.1 1726.04 1006.07C1726 1006.05 1725.93 1006.03 1725.85 1006.03Z" fill="#434244" fill-opacity="0.1"/>
<path d="M1734 1025.43L1715.25 1032.27C1714.46 1032.56 1714.06 1033.43 1714.35 1034.21L1714.64 1035.01C1714.92 1035.8 1715.79 1036.2 1716.57 1035.91L1735.33 1029.07C1736.11 1028.79 1736.51 1027.92 1736.23 1027.13L1735.93 1026.33C1735.65 1025.55 1734.78 1025.15 1734 1025.43Z" fill="white"/>
<path d="M1716.06 1036.9C1715.71 1036.9 1715.36 1036.83 1715.04 1036.68C1714.47 1036.41 1714.02 1035.93 1713.8 1035.33L1713.51 1034.52C1713.29 1033.91 1713.31 1033.26 1713.59 1032.69C1713.85 1032.11 1714.33 1031.66 1714.94 1031.44L1733.7 1024.6C1734.3 1024.38 1734.95 1024.4 1735.53 1024.68C1736.11 1024.95 1736.55 1025.43 1736.77 1026.03L1737.07 1026.84C1737.29 1027.44 1737.26 1028.09 1736.99 1028.67C1736.72 1029.25 1736.24 1029.69 1735.64 1029.91L1716.87 1036.76C1716.61 1036.85 1716.33 1036.9 1716.05 1036.9H1716.06ZM1734.53 1026.23C1734.45 1026.23 1734.38 1026.24 1734.31 1026.26L1715.55 1033.1C1715.4 1033.16 1715.27 1033.27 1715.2 1033.42C1715.13 1033.58 1715.12 1033.74 1715.19 1033.9L1715.48 1034.7C1715.53 1034.85 1715.65 1034.98 1715.8 1035.05C1715.95 1035.12 1716.12 1035.13 1716.27 1035.07L1735.03 1028.23C1735.18 1028.17 1735.31 1028.06 1735.38 1027.91C1735.45 1027.75 1735.46 1027.59 1735.4 1027.43L1735.1 1026.63C1735.05 1026.47 1734.93 1026.35 1734.78 1026.28C1734.7 1026.24 1734.61 1026.22 1734.53 1026.22V1026.23Z" fill="#434244" fill-opacity="0.1"/>
<path d="M1719.15 990.273L1703.95 995.821L1709.5 1011.03L1724.7 1005.48L1719.15 990.273Z" fill="white"/>
<path d="M1708.97 1012.17L1702.81 995.284L1719.69 989.126L1725.85 1006.01L1708.97 1012.17ZM1705.09 996.342L1710.03 1009.88L1723.56 1004.94L1718.62 991.401L1705.09 996.342Z" fill="#434244" fill-opacity="0.1"/>
<path d="M1729.92 1022.38L1724.49 1024.36L1721.8 1025.34L1716.37 1027.32L1714.74 1031.22C1714.79 1031.83 1715.39 1032.22 1715.96 1032L1723.27 1029.34L1725.95 1028.36L1733.26 1025.69C1733.83 1025.49 1734.04 1024.8 1733.69 1024.31L1729.93 1022.36L1729.92 1022.38Z" fill="#C5F2EA"/>
<path d="M1715.65 1032.96C1715.31 1032.96 1714.97 1032.86 1714.68 1032.68C1714.2 1032.37 1713.91 1031.87 1713.86 1031.3L1713.84 1031.09L1715.7 1026.63L1729.99 1021.41L1734.28 1023.63L1734.41 1023.8C1734.74 1024.26 1734.83 1024.84 1734.67 1025.38C1734.5 1025.92 1734.1 1026.35 1733.56 1026.55L1716.27 1032.86C1716.06 1032.93 1715.86 1032.96 1715.65 1032.96ZM1717.04 1028.03L1715.75 1031.12L1732.87 1024.9L1729.87 1023.35L1717.04 1028.03Z" fill="#434244" fill-opacity="0.1"/>
<path d="M1674.5 878.353L1666.66 881.216L1667.8 884.33L1675.64 881.467L1674.5 878.353Z" fill="#434244" fill-opacity="0.1"/>
<path d="M1687.2 928.04C1688.15 928.04 1688.92 927.273 1688.92 926.325C1688.92 925.378 1688.15 924.61 1687.2 924.61C1686.26 924.61 1685.49 925.378 1685.49 926.325C1685.49 927.273 1686.26 928.04 1687.2 928.04Z" fill="#434244" fill-opacity="0.1"/>
<path d="M1691.39 939.54C1692.34 939.54 1693.11 938.772 1693.11 937.824C1693.11 936.877 1692.34 936.109 1691.39 936.109C1690.45 936.109 1689.68 936.877 1689.68 937.824C1689.68 938.772 1690.45 939.54 1691.39 939.54Z" fill="#434244" fill-opacity="0.1"/>
<path d="M1695.59 951.039C1696.54 951.039 1697.3 950.271 1697.3 949.323C1697.3 948.376 1696.54 947.608 1695.59 947.608C1694.64 947.608 1693.88 948.376 1693.88 949.323C1693.88 950.271 1694.64 951.039 1695.59 951.039Z" fill="#434244" fill-opacity="0.1"/>
<path d="M1699.78 962.538C1700.73 962.538 1701.5 961.77 1701.5 960.823C1701.5 959.875 1700.73 959.107 1699.78 959.107C1698.83 959.107 1698.07 959.875 1698.07 960.823C1698.07 961.77 1698.83 962.538 1699.78 962.538Z" fill="#434244" fill-opacity="0.1"/>
<path d="M1703.97 974.028C1704.92 974.028 1705.69 973.26 1705.69 972.313C1705.69 971.366 1704.92 970.598 1703.97 970.598C1703.03 970.598 1702.26 971.366 1702.26 972.313C1702.26 973.26 1703.03 974.028 1703.97 974.028Z" fill="#434244" fill-opacity="0.1"/>
<path d="M1706.52 986.13C1707.47 986.13 1708.24 985.362 1708.24 984.415C1708.24 983.468 1707.47 982.7 1706.52 982.7C1705.58 982.7 1704.81 983.468 1704.81 984.415C1704.81 985.362 1705.58 986.13 1706.52 986.13Z" fill="#434244" fill-opacity="0.1"/>
<path d="M1709.91 984.149C1710.44 984.149 1710.87 983.715 1710.87 983.181C1710.87 982.646 1710.44 982.212 1709.91 982.212C1709.37 982.212 1708.94 982.646 1708.94 983.181C1708.94 983.715 1709.37 984.149 1709.91 984.149Z" fill="#434244" fill-opacity="0.1"/>
<path d="M1712.71 1003.1C1713.66 1003.1 1714.43 1002.34 1714.43 1001.39C1714.43 1000.44 1713.66 999.674 1712.71 999.674C1711.77 999.674 1711 1000.44 1711 1001.39C1711 1002.34 1711.77 1003.1 1712.71 1003.1Z" fill="#434244" fill-opacity="0.1"/>
<path d="M1716.1 1001.12C1716.63 1001.12 1717.07 1000.69 1717.07 1000.15C1717.07 999.618 1716.63 999.185 1716.1 999.185C1715.56 999.185 1715.13 999.618 1715.13 1000.15C1715.13 1000.69 1715.56 1001.12 1716.1 1001.12Z" fill="#434244" fill-opacity="0.1"/>
<path d="M1533.9 1152.97L1535.95 1159.19C1539.27 1169.31 1570 1168.31 1604.58 1156.94C1639.16 1145.57 1664.51 1128.15 1661.19 1118.03L1659.14 1111.81L1533.9 1152.97Z" fill="#F5E5C0"/>
<path d="M1555.97 1167.07C1544.51 1167.07 1536.77 1164.56 1535.09 1159.46L1533.05 1153.24C1532.9 1152.78 1533.15 1152.27 1533.62 1152.12L1658.86 1110.96C1659.08 1110.89 1659.33 1110.91 1659.53 1111.01C1659.74 1111.12 1659.9 1111.31 1659.98 1111.53L1662.02 1117.75C1663.76 1123.06 1658.63 1130.16 1647.59 1137.75C1636.84 1145.15 1621.65 1152.27 1604.85 1157.79C1586.1 1163.95 1568.72 1167.08 1555.96 1167.08L1555.97 1167.07ZM1535.02 1153.54L1536.79 1158.91C1539.9 1168.39 1570.83 1167.11 1604.31 1156.1C1620.95 1150.62 1635.97 1143.58 1646.6 1136.29C1656.79 1129.29 1661.8 1122.73 1660.34 1118.3L1658.57 1112.93L1535.02 1153.54Z" fill="#434244" fill-opacity="0.1"/>
<path d="M1602.56 1150.71C1637.14 1139.34 1662.48 1121.92 1659.15 1111.79C1655.83 1101.66 1625.09 1102.67 1590.51 1114.04C1555.93 1125.41 1530.59 1142.83 1533.92 1152.96C1537.24 1163.09 1567.98 1162.08 1602.56 1150.71Z" fill="#F5E5C0"/>
<path d="M1553.76 1160.84C1541.99 1160.84 1534.67 1158.18 1533.06 1153.24C1529.52 1142.49 1554.63 1124.91 1590.23 1113.2C1625.81 1101.51 1656.46 1100.77 1659.99 1111.52C1663.53 1122.27 1638.42 1139.86 1602.82 1151.56C1586.02 1157.08 1569.58 1160.36 1556.54 1160.79C1555.59 1160.82 1554.67 1160.83 1553.77 1160.83L1553.76 1160.84ZM1639.49 1105.74C1626.83 1105.74 1609.18 1108.85 1590.77 1114.9C1557.28 1125.9 1531.63 1143.21 1534.74 1152.69C1536.19 1157.12 1544.11 1159.43 1556.46 1159.02C1569.34 1158.6 1585.61 1155.35 1602.26 1149.88C1635.74 1138.87 1661.4 1121.57 1658.29 1112.09C1656.89 1107.83 1649.85 1105.74 1639.48 1105.74H1639.49Z" fill="#434244" fill-opacity="0.1"/>
<path d="M1518.42 1102.16L1534.24 1150.32C1537.49 1160.22 1567.53 1159.23 1601.33 1148.12C1635.14 1137.02 1659.91 1119.98 1656.65 1110.08L1640.83 1061.92L1518.41 1102.16H1518.42Z" fill="white"/>
<path d="M1553.66 1158.03C1542.14 1158.03 1534.98 1155.42 1533.4 1150.6L1517.58 1102.43C1517.42 1101.97 1517.67 1101.46 1518.14 1101.31L1640.57 1061.07C1640.79 1061 1641.04 1061.02 1641.24 1061.13C1641.46 1061.23 1641.62 1061.42 1641.69 1061.64L1657.51 1109.81C1660.96 1120.33 1636.41 1137.53 1601.62 1148.97C1585.19 1154.37 1569.11 1157.57 1556.36 1157.99C1555.43 1158.02 1554.54 1158.03 1553.66 1158.03ZM1519.54 1102.72L1535.08 1150.04C1536.5 1154.36 1544.22 1156.61 1556.3 1156.21C1568.88 1155.8 1584.78 1152.63 1601.06 1147.28C1633.78 1136.53 1658.86 1119.62 1655.81 1110.37L1640.27 1063.05L1519.54 1102.72Z" fill="#434244" fill-opacity="0.1"/>
<path d="M1515.98 1099.5L1518.03 1105.72C1521.35 1115.84 1552.08 1114.84 1586.67 1103.47C1621.25 1092.11 1646.59 1074.68 1643.27 1064.56L1641.22 1058.34L1515.98 1099.5Z" fill="#F5E5C0"/>
<path d="M1537.89 1113.58C1526.11 1113.58 1518.8 1110.92 1517.18 1105.99L1515.14 1099.77C1515.07 1099.54 1515.09 1099.29 1515.19 1099.09C1515.3 1098.88 1515.49 1098.72 1515.71 1098.65L1640.95 1057.48C1641.17 1057.41 1641.42 1057.43 1641.62 1057.54C1641.84 1057.64 1642 1057.83 1642.07 1058.05L1644.11 1064.27C1645.85 1069.58 1640.73 1076.68 1629.69 1084.28C1618.93 1091.67 1603.75 1098.79 1586.94 1104.32C1570.13 1109.83 1553.69 1113.11 1540.65 1113.54C1539.71 1113.57 1538.79 1113.58 1537.89 1113.58ZM1517.1 1100.06L1518.87 1105.43C1520.33 1109.86 1528.24 1112.17 1540.6 1111.76C1553.48 1111.34 1569.74 1108.09 1586.39 1102.63C1603.04 1097.15 1618.06 1090.12 1628.68 1082.82C1638.87 1075.82 1643.88 1069.26 1642.42 1064.83L1640.66 1059.46L1517.1 1100.07V1100.06Z" fill="#434244" fill-opacity="0.1"/>
<path d="M1584.64 1097.23C1619.23 1085.87 1644.56 1068.44 1641.24 1058.31C1637.91 1048.19 1607.18 1049.19 1572.6 1060.56C1538.02 1071.93 1512.68 1089.35 1516 1099.48C1519.33 1109.61 1550.06 1108.6 1584.64 1097.23Z" fill="#F5E5C0"/>
<path d="M1536.02 1107.37C1524.56 1107.37 1516.82 1104.86 1515.14 1099.76C1511.6 1089.01 1536.72 1071.43 1572.31 1059.73C1589.12 1054.2 1605.56 1050.93 1618.6 1050.51C1631.99 1050.06 1640.33 1052.75 1642.07 1058.05C1645.6 1068.8 1620.49 1086.39 1584.9 1098.09C1566.15 1104.24 1548.77 1107.37 1536.01 1107.37H1536.02ZM1621.37 1052.23C1620.49 1052.23 1619.59 1052.25 1618.66 1052.28C1605.78 1052.69 1589.52 1055.95 1572.87 1061.41C1539.38 1072.41 1513.73 1089.72 1516.84 1099.2C1519.95 1108.69 1550.87 1107.4 1584.36 1096.39C1617.84 1085.39 1643.5 1068.08 1640.39 1058.59C1639.05 1054.51 1632.17 1052.22 1621.37 1052.22V1052.23Z" fill="#434244" fill-opacity="0.1"/>
<path d="M1583.52 1093.8C1615.75 1083.2 1639.69 1067.94 1636.99 1059.71C1634.28 1051.48 1605.96 1053.4 1573.73 1064C1541.49 1074.59 1517.55 1089.85 1520.26 1098.08C1522.96 1106.31 1551.28 1104.39 1583.52 1093.8Z" fill="white"/>
<path d="M1535.36 1104.08C1526.73 1104.08 1520.71 1102.37 1519.39 1098.38C1516.16 1088.52 1544.33 1072.74 1573.43 1063.17C1602.54 1053.61 1634.58 1049.6 1637.82 1059.46C1639.67 1065.1 1631.23 1071.91 1623.82 1076.64C1613.66 1083.12 1599.43 1089.52 1583.78 1094.66C1566.45 1100.36 1548.08 1104.08 1535.37 1104.08H1535.36ZM1621.64 1055.51C1610.48 1055.51 1593.7 1058.39 1573.99 1064.86C1539.58 1076.17 1518.86 1091.04 1521.09 1097.83C1523.32 1104.62 1548.82 1104.29 1583.23 1092.98C1598.75 1087.87 1612.83 1081.54 1622.87 1075.14C1632.45 1069.04 1637.28 1063.52 1636.14 1060.01C1635.19 1057.11 1629.98 1055.5 1621.65 1055.5L1621.64 1055.51Z" fill="#434244" fill-opacity="0.1"/>
<path d="M1580.91 1085.9C1601.83 1079.02 1617.56 1069.72 1616.05 1065.12C1614.54 1060.51 1596.35 1062.36 1575.44 1069.23C1554.52 1076.11 1538.79 1085.41 1540.3 1090.02C1541.81 1094.62 1559.99 1092.77 1580.91 1085.9Z" fill="white"/>
<path d="M1548.12 1093.45C1543.05 1093.45 1540.14 1092.39 1539.44 1090.29C1538.55 1087.56 1541.75 1083.99 1548.99 1079.71C1555.68 1075.75 1564.97 1071.73 1575.14 1068.39C1585.32 1065.05 1595.18 1062.77 1602.91 1061.99C1611.27 1061.14 1615.97 1062.1 1616.88 1064.84C1617.77 1067.58 1614.57 1071.14 1607.33 1075.43C1600.64 1079.38 1591.35 1083.41 1581.17 1086.75C1570.99 1090.09 1561.13 1092.36 1553.4 1093.14C1551.44 1093.34 1549.67 1093.45 1548.11 1093.45H1548.12ZM1608.19 1063.47C1606.75 1063.47 1605.07 1063.56 1603.11 1063.76C1595.5 1064.53 1585.77 1066.77 1575.71 1070.08C1565.66 1073.38 1556.49 1077.34 1549.91 1081.24C1542.78 1085.46 1540.7 1088.39 1541.14 1089.73C1541.58 1091.07 1544.99 1092.21 1553.24 1091.37C1560.85 1090.59 1570.58 1088.36 1580.63 1085.05C1590.69 1081.74 1599.86 1077.78 1606.44 1073.89C1613.57 1069.67 1615.65 1066.73 1615.21 1065.39C1614.87 1064.37 1612.81 1063.46 1608.19 1063.46V1063.47Z" fill="#434244" fill-opacity="0.1"/>
<path d="M1526.13 1110.06C1526.93 1110.06 1527.58 1109.41 1527.58 1108.61C1527.58 1107.81 1526.93 1107.16 1526.13 1107.16C1525.33 1107.16 1524.68 1107.81 1524.68 1108.61C1524.68 1109.41 1525.33 1110.06 1526.13 1110.06Z" fill="white"/>
<path d="M1526.14 1110.94C1525.15 1110.94 1524.24 1110.32 1523.92 1109.34C1523.72 1108.74 1523.77 1108.11 1524.05 1107.55C1524.33 1106.99 1524.81 1106.58 1525.41 1106.39C1526.63 1105.99 1527.96 1106.65 1528.36 1107.88C1528.55 1108.47 1528.51 1109.1 1528.22 1109.66C1527.94 1110.22 1527.46 1110.63 1526.87 1110.83C1526.63 1110.91 1526.38 1110.94 1526.14 1110.94ZM1526.14 1108.05C1526.07 1108.05 1526.02 1108.06 1525.96 1108.07C1525.82 1108.12 1525.7 1108.22 1525.63 1108.35C1525.56 1108.48 1525.55 1108.63 1525.6 1108.78C1525.64 1108.92 1525.74 1109.03 1525.87 1109.1C1526 1109.18 1526.15 1109.18 1526.3 1109.14C1526.44 1109.1 1526.55 1109 1526.63 1108.86C1526.7 1108.73 1526.71 1108.58 1526.66 1108.44C1526.62 1108.3 1526.52 1108.18 1526.39 1108.11C1526.31 1108.07 1526.22 1108.05 1526.14 1108.05Z" fill="#434244" fill-opacity="0.1"/>
<path d="M1585.72 1102C1586.52 1102 1587.17 1101.35 1587.17 1100.55C1587.17 1099.75 1586.52 1099.1 1585.72 1099.1C1584.92 1099.1 1584.27 1099.75 1584.27 1100.55C1584.27 1101.35 1584.92 1102 1585.72 1102Z" fill="white"/>
<path d="M1585.71 1102.89C1585.34 1102.89 1584.99 1102.8 1584.66 1102.64C1584.1 1102.36 1583.69 1101.88 1583.49 1101.29C1583.1 1100.06 1583.76 1098.73 1584.99 1098.33C1586.21 1097.93 1587.54 1098.6 1587.94 1099.83C1588.34 1101.05 1587.67 1102.38 1586.44 1102.78C1586.2 1102.86 1585.96 1102.89 1585.72 1102.89H1585.71ZM1585.71 1100C1585.65 1100 1585.59 1100.01 1585.53 1100.02C1585.39 1100.07 1585.27 1100.17 1585.2 1100.3C1585.13 1100.43 1585.12 1100.58 1585.16 1100.73C1585.21 1100.87 1585.31 1100.98 1585.44 1101.05C1585.57 1101.13 1585.72 1101.13 1585.87 1101.09C1586.16 1100.99 1586.32 1100.67 1586.22 1100.38C1586.14 1100.14 1585.93 1100 1585.69 1100H1585.71Z" fill="#434244" fill-opacity="0.1"/>
<path d="M1553.15 1109.65C1553.95 1109.65 1554.6 1109 1554.6 1108.2C1554.6 1107.4 1553.95 1106.75 1553.15 1106.75C1552.35 1106.75 1551.7 1107.4 1551.7 1108.2C1551.7 1109 1552.35 1109.65 1553.15 1109.65Z" fill="white"/>
<path d="M1553.15 1110.54C1552.16 1110.54 1551.25 1109.92 1550.93 1108.94C1550.53 1107.71 1551.19 1106.39 1552.42 1105.99C1553.02 1105.79 1553.65 1105.83 1554.21 1106.12C1554.77 1106.4 1555.17 1106.88 1555.37 1107.48C1555.77 1108.7 1555.1 1110.03 1553.88 1110.43C1553.64 1110.51 1553.39 1110.54 1553.15 1110.54ZM1553.15 1107.65C1553.09 1107.65 1553.03 1107.66 1552.97 1107.67C1552.68 1107.77 1552.52 1108.09 1552.62 1108.39C1552.71 1108.68 1553.02 1108.84 1553.33 1108.74C1553.47 1108.7 1553.58 1108.6 1553.66 1108.46C1553.73 1108.33 1553.74 1108.18 1553.69 1108.04C1553.65 1107.9 1553.55 1107.78 1553.42 1107.71C1553.34 1107.67 1553.25 1107.65 1553.17 1107.65H1553.15Z" fill="#434244" fill-opacity="0.1"/>
<path d="M1638.45 1073.13C1639.25 1073.13 1639.9 1072.48 1639.9 1071.68C1639.9 1070.88 1639.25 1070.24 1638.45 1070.24C1637.65 1070.24 1637 1070.88 1637 1071.68C1637 1072.48 1637.65 1073.13 1638.45 1073.13Z" fill="white"/>
<path d="M1638.46 1074.02C1637.47 1074.02 1636.56 1073.4 1636.24 1072.41C1635.84 1071.19 1636.5 1069.86 1637.73 1069.46C1638.96 1069.06 1640.28 1069.73 1640.68 1070.96C1641.08 1072.18 1640.41 1073.51 1639.19 1073.91C1638.95 1073.99 1638.7 1074.02 1638.46 1074.02ZM1637.92 1071.86C1637.97 1072 1638.07 1072.12 1638.2 1072.19C1638.33 1072.26 1638.48 1072.27 1638.63 1072.23C1638.92 1072.13 1639.08 1071.81 1638.98 1071.52C1638.88 1071.22 1638.56 1071.06 1638.27 1071.16C1637.98 1071.26 1637.82 1071.57 1637.92 1071.87L1637.92 1071.86Z" fill="#434244" fill-opacity="0.1"/>
<path d="M1616.46 1088.84C1617.26 1088.84 1617.9 1088.19 1617.9 1087.39C1617.9 1086.59 1617.26 1085.95 1616.46 1085.95C1615.66 1085.95 1615.01 1086.59 1615.01 1087.39C1615.01 1088.19 1615.66 1088.84 1616.46 1088.84Z" fill="white"/>
<path d="M1616.47 1089.73C1615.48 1089.73 1614.56 1089.11 1614.24 1088.12C1613.85 1086.9 1614.51 1085.57 1615.74 1085.17C1616.96 1084.77 1618.29 1085.44 1618.69 1086.67C1619.09 1087.89 1618.42 1089.22 1617.19 1089.62C1616.95 1089.7 1616.71 1089.73 1616.47 1089.73ZM1616.47 1086.84C1616.4 1086.84 1616.35 1086.84 1616.29 1086.86C1616.15 1086.91 1616.03 1087 1615.96 1087.14C1615.89 1087.27 1615.88 1087.42 1615.92 1087.56C1615.97 1087.71 1616.07 1087.82 1616.2 1087.89C1616.33 1087.96 1616.48 1087.97 1616.63 1087.93C1616.77 1087.88 1616.88 1087.79 1616.95 1087.65C1617.03 1087.52 1617.03 1087.37 1616.99 1087.23C1616.91 1086.99 1616.7 1086.84 1616.46 1086.84L1616.47 1086.84Z" fill="#434244" fill-opacity="0.1"/>
<path d="M1551.71 1164.65C1552.51 1164.65 1553.15 1164 1553.15 1163.2C1553.15 1162.4 1552.51 1161.75 1551.71 1161.75C1550.91 1161.75 1550.26 1162.4 1550.26 1163.2C1550.26 1164 1550.91 1164.65 1551.71 1164.65Z" fill="white"/>
<path d="M1551.7 1165.53C1550.72 1165.53 1549.8 1164.91 1549.48 1163.93C1549.08 1162.7 1549.75 1161.37 1550.98 1160.97C1551.57 1160.78 1552.2 1160.82 1552.76 1161.11C1553.32 1161.39 1553.73 1161.87 1553.92 1162.47C1554.32 1163.69 1553.66 1165.02 1552.43 1165.42C1552.19 1165.5 1551.94 1165.53 1551.7 1165.53ZM1551.7 1162.64C1551.64 1162.64 1551.59 1162.65 1551.53 1162.66C1551.38 1162.71 1551.27 1162.81 1551.2 1162.94C1551.13 1163.07 1551.12 1163.22 1551.16 1163.37C1551.21 1163.51 1551.3 1163.62 1551.44 1163.69C1551.57 1163.77 1551.72 1163.77 1551.86 1163.73C1552.16 1163.63 1552.32 1163.31 1552.22 1163.02C1552.17 1162.88 1552.08 1162.76 1551.94 1162.69C1551.86 1162.65 1551.77 1162.63 1551.7 1162.63L1551.7 1162.64Z" fill="#434244" fill-opacity="0.1"/>
<path d="M1620.07 1149.08C1620.86 1149.08 1621.51 1148.43 1621.51 1147.63C1621.51 1146.83 1620.86 1146.18 1620.07 1146.18C1619.27 1146.18 1618.62 1146.83 1618.62 1147.63C1618.62 1148.43 1619.27 1149.08 1620.07 1149.08Z" fill="white"/>
<path d="M1620.06 1149.96C1619.69 1149.96 1619.34 1149.88 1619.01 1149.72C1618.45 1149.43 1618.04 1148.95 1617.85 1148.36C1617.65 1147.76 1617.69 1147.13 1617.98 1146.57C1618.26 1146.01 1618.74 1145.6 1619.34 1145.41C1620.56 1145.01 1621.89 1145.67 1622.29 1146.9C1622.48 1147.49 1622.44 1148.13 1622.15 1148.69C1621.87 1149.25 1621.39 1149.65 1620.8 1149.85C1620.56 1149.93 1620.31 1149.96 1620.07 1149.96H1620.06ZM1620.06 1147.07C1620 1147.07 1619.94 1147.08 1619.88 1147.09C1619.74 1147.14 1619.62 1147.24 1619.55 1147.37C1619.48 1147.5 1619.47 1147.65 1619.52 1147.8C1619.56 1147.94 1619.66 1148.05 1619.79 1148.13C1619.92 1148.2 1620.08 1148.21 1620.22 1148.16C1620.36 1148.12 1620.48 1148.02 1620.55 1147.89C1620.62 1147.75 1620.63 1147.6 1620.58 1147.46C1620.54 1147.32 1620.44 1147.2 1620.31 1147.13C1620.23 1147.09 1620.14 1147.07 1620.06 1147.07Z" fill="#434244" fill-opacity="0.1"/>
<path d="M1585.32 1160.51C1586.12 1160.51 1586.77 1159.86 1586.77 1159.06C1586.77 1158.26 1586.12 1157.62 1585.32 1157.62C1584.52 1157.62 1583.88 1158.26 1583.88 1159.06C1583.88 1159.86 1584.52 1160.51 1585.32 1160.51Z" fill="white"/>
<path d="M1585.32 1161.41C1584.96 1161.41 1584.6 1161.32 1584.28 1161.16C1583.72 1160.88 1583.31 1160.4 1583.11 1159.8C1582.71 1158.58 1583.38 1157.25 1584.6 1156.85C1585.83 1156.45 1587.15 1157.12 1587.55 1158.34C1587.95 1159.57 1587.29 1160.89 1586.06 1161.29C1585.82 1161.37 1585.57 1161.41 1585.33 1161.41H1585.32ZM1585.32 1158.51C1585.26 1158.51 1585.21 1158.52 1585.15 1158.54C1584.85 1158.64 1584.69 1158.96 1584.79 1159.25C1584.84 1159.39 1584.93 1159.51 1585.07 1159.58C1585.2 1159.65 1585.35 1159.66 1585.49 1159.62C1585.63 1159.57 1585.75 1159.47 1585.82 1159.34C1585.89 1159.21 1585.9 1159.06 1585.86 1158.91C1585.81 1158.77 1585.71 1158.66 1585.58 1158.58C1585.5 1158.54 1585.41 1158.52 1585.33 1158.52L1585.32 1158.51Z" fill="#434244" fill-opacity="0.1"/>
<path d="M1650.27 1132.04C1651.07 1132.04 1651.72 1131.39 1651.72 1130.59C1651.72 1129.79 1651.07 1129.14 1650.27 1129.14C1649.47 1129.14 1648.82 1129.79 1648.82 1130.59C1648.82 1131.39 1649.47 1132.04 1650.27 1132.04Z" fill="white"/>
<path d="M1650.27 1132.94C1649.29 1132.94 1648.37 1132.32 1648.05 1131.33C1647.86 1130.73 1647.9 1130.1 1648.19 1129.54C1648.47 1128.98 1648.95 1128.58 1649.55 1128.38C1650.77 1127.98 1652.09 1128.65 1652.49 1129.87C1652.69 1130.47 1652.65 1131.1 1652.36 1131.66C1652.08 1132.22 1651.6 1132.63 1651 1132.82C1650.76 1132.9 1650.51 1132.94 1650.27 1132.94ZM1650.27 1130.04C1650.21 1130.04 1650.16 1130.05 1650.1 1130.07C1649.95 1130.11 1649.84 1130.21 1649.77 1130.34C1649.7 1130.48 1649.69 1130.63 1649.73 1130.77C1649.78 1130.91 1649.87 1131.03 1650.01 1131.1C1650.14 1131.17 1650.29 1131.18 1650.43 1131.13C1650.58 1131.09 1650.69 1130.99 1650.76 1130.86C1650.83 1130.73 1650.84 1130.57 1650.8 1130.43C1650.75 1130.29 1650.66 1130.17 1650.52 1130.1C1650.44 1130.06 1650.35 1130.04 1650.27 1130.04Z" fill="#434244" fill-opacity="0.1"/>
<path d="M1583.94 1153.05L1586.67 1103.46L1617.53 1142C1617.53 1142 1609.17 1145.54 1601.33 1148.12C1593.49 1150.69 1589.39 1151.89 1583.93 1153.04L1583.94 1153.05Z" fill="#FFC9CE"/>
<path d="M1583.94 1153.94C1583.73 1153.94 1583.52 1153.87 1583.36 1153.72C1583.15 1153.55 1583.04 1153.28 1583.05 1153L1585.79 1103.42C1585.8 1103.05 1586.05 1102.73 1586.4 1102.62C1586.75 1102.5 1587.14 1102.62 1587.37 1102.91L1618.23 1141.45C1618.41 1141.66 1618.47 1141.96 1618.4 1142.22C1618.33 1142.49 1618.14 1142.71 1617.88 1142.83C1617.8 1142.86 1609.4 1146.41 1601.62 1148.97C1594.17 1151.41 1589.88 1152.71 1584.13 1153.92C1584.06 1153.93 1584 1153.94 1583.94 1153.94ZM1587.43 1105.83L1584.89 1151.94C1589.51 1150.92 1593.4 1149.8 1601.06 1147.28C1607.13 1145.28 1613.59 1142.68 1616.1 1141.65L1587.43 1105.84V1105.83Z" fill="#434244" fill-opacity="0.1"/>
<path d="M1617.54 1142.01L1618.14 1090.21L1646 1126.16C1646 1126.16 1639.3 1131.54 1632.12 1135.16C1624.94 1138.78 1617.54 1142.01 1617.54 1142.01H1617.54Z" fill="#FFC9CE"/>
<path d="M1617.54 1142.9C1617.37 1142.9 1617.19 1142.85 1617.05 1142.75C1616.8 1142.58 1616.65 1142.3 1616.65 1141.99L1617.25 1090.19C1617.25 1089.81 1617.5 1089.48 1617.86 1089.36C1618.21 1089.24 1618.61 1089.36 1618.84 1089.65L1646.7 1125.6C1646.99 1125.98 1646.93 1126.53 1646.56 1126.83C1646.49 1126.89 1639.7 1132.32 1632.52 1135.93C1625.41 1139.51 1617.97 1142.78 1617.9 1142.8C1617.79 1142.86 1617.67 1142.87 1617.55 1142.87L1617.54 1142.9ZM1618.99 1092.77L1618.43 1140.63C1620.85 1139.56 1626.38 1137.05 1631.71 1134.36C1637.41 1131.49 1642.86 1127.45 1644.75 1126L1618.99 1092.77Z" fill="#434244" fill-opacity="0.1"/>
<path d="M1645.99 1126.16L1640.73 1073.96L1648.04 1083.82L1656.66 1110.08C1656.66 1110.08 1658.31 1114.07 1653.47 1119.48C1648.81 1124.71 1645.99 1126.15 1645.99 1126.15L1645.99 1126.16Z" fill="#FFC9CE"/>
<path d="M1645.99 1127.05C1645.84 1127.05 1645.69 1127.01 1645.56 1126.94C1645.3 1126.8 1645.13 1126.54 1645.1 1126.25L1639.84 1074.05C1639.8 1073.65 1640.03 1073.27 1640.4 1073.13C1640.77 1072.99 1641.2 1073.11 1641.44 1073.43L1648.75 1083.3C1648.8 1083.38 1648.85 1083.46 1648.88 1083.55L1657.51 1109.81C1657.56 1109.93 1659.28 1114.31 1654.13 1120.08C1649.42 1125.37 1646.52 1126.89 1646.4 1126.95C1646.27 1127.01 1646.13 1127.05 1645.99 1127.05ZM1641.94 1077.08L1646.72 1124.61C1647.93 1123.73 1650.04 1122 1652.8 1118.9C1657.15 1114.02 1655.88 1110.56 1655.83 1110.41L1647.23 1084.23L1641.93 1077.08H1641.94Z" fill="#434244" fill-opacity="0.1"/>
<path d="M1583.88 1152.88L1552.69 1111.53L1551.57 1156.99C1551.57 1156.99 1560.15 1157.35 1568.07 1156.01C1576 1154.66 1583.88 1152.87 1583.88 1152.87V1152.88Z" fill="#FFC9CE"/>
<path d="M1554.25 1157.93C1552.59 1157.93 1551.56 1157.88 1551.54 1157.88C1551.06 1157.86 1550.67 1157.46 1550.68 1156.98L1551.8 1111.51C1551.81 1111.13 1552.06 1110.8 1552.42 1110.69C1552.77 1110.57 1553.17 1110.7 1553.39 1111L1584.58 1152.35C1584.77 1152.59 1584.81 1152.91 1584.71 1153.19C1584.6 1153.47 1584.36 1153.69 1584.07 1153.75C1583.99 1153.77 1576.07 1155.55 1568.22 1156.9C1563 1157.78 1557.43 1157.94 1554.24 1157.94L1554.25 1157.93ZM1552.49 1156.13C1554.86 1156.18 1561.65 1156.2 1567.93 1155.14C1573.82 1154.13 1579.76 1152.88 1582.34 1152.31L1553.52 1114.1L1552.49 1156.13Z" fill="#434244" fill-opacity="0.1"/>
<path d="M1551.57 1156.99L1524.86 1111.84L1524.82 1124.11L1533.45 1150.37C1533.45 1150.37 1534.49 1154.56 1541.6 1156.05C1548.44 1157.49 1551.57 1156.98 1551.57 1156.98V1156.99Z" fill="#FFC9CE"/>
<path d="M1549.93 1157.97C1548.29 1157.97 1545.5 1157.79 1541.42 1156.93C1533.86 1155.34 1532.64 1150.79 1532.59 1150.6L1523.98 1124.39C1523.96 1124.3 1523.94 1124.2 1523.94 1124.11L1523.97 1111.84C1523.97 1111.44 1524.24 1111.1 1524.63 1110.99C1525.01 1110.88 1525.42 1111.05 1525.63 1111.4L1552.34 1156.55C1552.49 1156.8 1552.5 1157.11 1552.38 1157.38C1552.26 1157.64 1552.01 1157.83 1551.71 1157.87C1551.66 1157.88 1551.07 1157.97 1549.92 1157.97H1549.93ZM1525.72 1123.98L1534.3 1150.11C1534.36 1150.31 1535.39 1153.85 1541.79 1155.19C1545.86 1156.04 1548.59 1156.19 1550.07 1156.18L1525.75 1115.07L1525.72 1123.97V1123.98Z" fill="#434244" fill-opacity="0.1"/>
<path d="M1648.69 997.357L1586.69 1029.37C1584.7 1030.4 1583.92 1032.84 1584.95 1034.82C1585.97 1036.8 1588.41 1037.58 1590.39 1036.56L1652.4 1004.54C1654.38 1003.52 1655.16 1001.08 1654.13 999.096C1653.11 997.111 1650.67 996.333 1648.69 997.357Z" fill="#EDCCB2"/>
<path d="M1588.56 1037.88C1586.77 1037.88 1585.04 1036.9 1584.17 1035.21C1582.92 1032.8 1583.87 1029.82 1586.29 1028.57L1648.29 996.55C1649.47 995.946 1650.8 995.83 1652.05 996.23C1653.3 996.63 1654.32 997.492 1654.93 998.665C1655.53 999.838 1655.65 1001.17 1655.25 1002.42C1654.85 1003.68 1653.99 1004.7 1652.81 1005.3L1590.81 1037.32C1590.09 1037.69 1589.32 1037.87 1588.56 1037.87V1037.88ZM1650.55 997.777C1650.05 997.777 1649.56 997.892 1649.11 998.132L1587.11 1030.15C1585.56 1030.95 1584.96 1032.85 1585.75 1034.4C1586.55 1035.94 1588.46 1036.55 1589.99 1035.76L1652 1003.74C1652.74 1003.35 1653.3 1002.7 1653.55 1001.89C1653.81 1001.09 1653.74 1000.24 1653.35 999.483C1652.97 998.736 1652.31 998.176 1651.5 997.928C1651.18 997.83 1650.86 997.777 1650.54 997.777H1650.55Z" fill="#434244" fill-opacity="0.1"/>
<path d="M1588.08 1043.65C1593.72 1040.74 1596.38 1034.68 1594.03 1030.13C1591.68 1025.57 1585.2 1024.23 1579.57 1027.14C1573.93 1030.05 1571.27 1036.11 1573.62 1040.67C1575.97 1045.22 1582.44 1046.56 1588.08 1043.65Z" fill="#FFF6DC"/>
<path d="M1581.96 1046.06C1578.03 1046.06 1574.5 1044.29 1572.83 1041.06C1571.57 1038.62 1571.55 1035.72 1572.79 1032.91C1574 1030.18 1576.26 1027.84 1579.17 1026.34C1585.23 1023.21 1592.26 1024.72 1594.83 1029.71C1597.4 1034.69 1594.56 1041.29 1588.5 1044.43C1586.36 1045.53 1584.11 1046.07 1581.96 1046.07V1046.06ZM1585.73 1026.47C1583.87 1026.47 1581.88 1026.93 1579.98 1027.91C1577.43 1029.23 1575.46 1031.25 1574.42 1033.62C1573.41 1035.93 1573.41 1038.28 1574.42 1040.24C1576.55 1044.35 1582.5 1045.51 1587.69 1042.84C1592.89 1040.16 1595.39 1034.63 1593.26 1030.51C1591.91 1027.89 1589.01 1026.47 1585.74 1026.47H1585.73Z" fill="#434244" fill-opacity="0.1"/>
<path d="M1477.62 1068.42L1546.23 1081.16C1548.42 1081.56 1550.53 1080.11 1550.94 1077.92C1551.34 1075.72 1549.89 1073.61 1547.7 1073.21L1479.1 1060.47C1476.9 1060.07 1474.79 1061.51 1474.38 1063.71C1473.98 1065.91 1475.43 1068.02 1477.62 1068.42Z" fill="#EDCCB2"/>
<path d="M1546.99 1082.12C1546.69 1082.12 1546.39 1082.09 1546.08 1082.04L1477.48 1069.3C1474.81 1068.8 1473.04 1066.23 1473.54 1063.55C1474.03 1060.88 1476.61 1059.11 1479.28 1059.61L1547.89 1072.34C1549.18 1072.58 1550.3 1073.31 1551.05 1074.39C1551.8 1075.48 1552.07 1076.79 1551.83 1078.09C1551.59 1079.39 1550.86 1080.51 1549.78 1081.25C1548.94 1081.82 1547.98 1082.13 1547 1082.13L1546.99 1082.12ZM1478.37 1061.3C1476.88 1061.3 1475.55 1062.36 1475.27 1063.87C1474.95 1065.58 1476.09 1067.23 1477.79 1067.55L1546.39 1080.29C1547.22 1080.44 1548.06 1080.26 1548.76 1079.79C1549.45 1079.31 1549.92 1078.59 1550.07 1077.76C1550.22 1076.94 1550.05 1076.09 1549.57 1075.4C1549.09 1074.71 1548.38 1074.23 1547.55 1074.08L1478.95 1061.35C1478.75 1061.31 1478.56 1061.3 1478.37 1061.3Z" fill="#434244" fill-opacity="0.1"/>
<path d="M1563.47 1080.23C1564.41 1075.19 1560.11 1070.16 1553.87 1069C1547.64 1067.85 1541.82 1070.99 1540.89 1076.04C1539.95 1081.08 1544.25 1086.11 1550.49 1087.26C1556.73 1088.42 1562.54 1085.27 1563.47 1080.23Z" fill="#FFF6DC"/>
<path d="M1553.06 1088.41C1552.18 1088.41 1551.26 1088.33 1550.34 1088.16C1543.63 1086.92 1539 1081.41 1540.02 1075.9C1541.05 1070.38 1547.34 1066.9 1554.05 1068.15C1560.76 1069.39 1565.38 1074.89 1564.36 1080.41C1563.48 1085.17 1558.68 1088.41 1553.06 1088.41ZM1541.77 1076.22C1540.93 1080.77 1544.92 1085.34 1550.67 1086.41C1556.4 1087.47 1561.77 1084.64 1562.62 1080.08C1563.47 1075.53 1559.48 1070.96 1553.73 1069.89C1547.99 1068.82 1542.63 1071.66 1541.77 1076.22Z" fill="#434244" fill-opacity="0.1"/>
<path d="M1761.91 1032.15C1763.38 1032.77 1764.07 1034.47 1763.45 1035.94L1752.46 1061.92L1747.14 1059.67L1758.13 1033.69C1758.75 1032.22 1760.45 1031.53 1761.91 1032.15Z" fill="#E0CDFF"/>
<path d="M1752.46 1062.81C1752.34 1062.81 1752.23 1062.79 1752.11 1062.74L1746.79 1060.49C1746.58 1060.4 1746.4 1060.23 1746.31 1060.01C1746.22 1059.79 1746.22 1059.55 1746.31 1059.33L1757.3 1033.35C1758.11 1031.43 1760.33 1030.54 1762.25 1031.35C1763.18 1031.74 1763.9 1032.47 1764.27 1033.41C1764.65 1034.34 1764.65 1035.37 1764.26 1036.29L1753.27 1062.27C1753.13 1062.61 1752.8 1062.81 1752.45 1062.81H1752.46ZM1748.3 1059.2L1751.99 1060.76L1762.63 1035.6C1762.83 1035.11 1762.84 1034.56 1762.64 1034.07C1762.44 1033.58 1762.05 1033.19 1761.56 1032.98C1760.55 1032.55 1759.37 1033.02 1758.94 1034.05L1748.3 1059.2Z" fill="#434244" fill-opacity="0.1"/>
<path d="M1765.13 1133.49L1756.36 1062.79C1756.02 1060.04 1754.42 1057.51 1751.91 1056.34C1749.29 1055.13 1746.33 1055.45 1744.05 1057.19L1690.03 1098.01C1688.59 1099.1 1688.61 1101.26 1690.06 1102.33C1691.15 1103.14 1692.2 1103.8 1692.2 1103.8C1692.96 1104.12 1693.84 1104.01 1694.51 1103.51L1748.32 1062.84C1748.68 1062.56 1749.22 1062.79 1749.28 1063.25L1758.14 1134.74C1758.17 1134.97 1758.09 1135.16 1757.91 1135.29C1757.73 1135.43 1757.53 1135.45 1757.32 1135.36L1699.46 1110.88C1697.66 1110.11 1695.58 1110.96 1694.82 1112.76C1694.05 1114.57 1694.9 1116.65 1696.7 1117.41L1754.56 1141.89C1757.13 1142.99 1760.01 1142.61 1762.24 1140.91C1764.48 1139.18 1765.48 1136.29 1765.14 1133.49H1765.13Z" fill="#E0CDFF"/>
<path d="M1757.58 1143.4C1756.45 1143.4 1755.3 1143.17 1754.21 1142.71L1696.36 1118.23C1695.26 1117.77 1694.42 1116.91 1693.98 1115.81C1693.53 1114.72 1693.54 1113.51 1694 1112.42C1694.46 1111.32 1695.32 1110.48 1696.42 1110.03C1697.52 1109.59 1698.72 1109.6 1699.81 1110.06L1757.2 1134.35L1748.46 1063.84L1695.05 1104.21C1694.14 1104.91 1692.92 1105.06 1691.86 1104.61C1691.82 1104.6 1691.77 1104.57 1691.74 1104.55C1691.69 1104.53 1690.65 1103.87 1689.54 1103.05C1688.62 1102.37 1688.09 1101.32 1688.09 1100.18C1688.09 1099.04 1688.6 1097.99 1689.51 1097.31L1743.52 1056.49C1746.09 1054.55 1749.37 1054.19 1752.29 1055.54C1754.96 1056.77 1756.86 1059.51 1757.25 1062.68L1766.02 1133.39C1766.42 1136.62 1765.18 1139.77 1762.78 1141.62C1761.25 1142.8 1759.42 1143.41 1757.58 1143.41V1143.4ZM1698.09 1111.49C1697.75 1111.49 1697.41 1111.55 1697.09 1111.69C1696.44 1111.95 1695.92 1112.46 1695.65 1113.11C1695.37 1113.77 1695.36 1114.49 1695.63 1115.14C1695.89 1115.8 1696.4 1116.32 1697.05 1116.59L1754.9 1141.07C1757.19 1142.04 1759.73 1141.71 1761.7 1140.2C1763.6 1138.75 1764.58 1136.21 1764.25 1133.6L1755.48 1062.89C1755.16 1060.32 1753.65 1058.12 1751.55 1057.15C1749.23 1056.09 1746.62 1056.36 1744.59 1057.9L1690.57 1098.72C1690.12 1099.07 1689.85 1099.59 1689.86 1100.17C1689.86 1100.75 1690.14 1101.28 1690.6 1101.62C1691.5 1102.29 1692.37 1102.85 1692.62 1103.01C1693.07 1103.17 1693.59 1103.1 1693.98 1102.8L1747.8 1062.13C1748.22 1061.81 1748.77 1061.74 1749.27 1061.94C1749.76 1062.15 1750.11 1062.6 1750.17 1063.12L1759.03 1134.61C1759.1 1135.16 1758.89 1135.65 1758.46 1135.98C1758.02 1136.31 1757.48 1136.38 1756.98 1136.17L1699.13 1111.69C1698.8 1111.55 1698.44 1111.47 1698.1 1111.47L1698.09 1111.49Z" fill="#434244" fill-opacity="0.1"/>
<path d="M1775.43 1180.94L1771.89 1183.68L1742.97 1151.69L1746.5 1148.95L1775.43 1180.94Z" fill="#E0CDFF"/>
<path d="M1771.89 1184.56C1771.65 1184.56 1771.41 1184.47 1771.24 1184.27L1742.31 1152.28C1742.14 1152.09 1742.06 1151.85 1742.09 1151.61C1742.11 1151.36 1742.23 1151.13 1742.43 1150.98L1745.96 1148.25C1746.33 1147.96 1746.85 1148.01 1747.16 1148.35L1776.09 1180.34C1776.25 1180.53 1776.33 1180.77 1776.31 1181.02C1776.29 1181.27 1776.17 1181.49 1775.97 1181.64L1772.43 1184.38C1772.28 1184.5 1772.08 1184.56 1771.89 1184.56ZM1744.28 1151.8L1772 1182.47L1774.13 1180.82L1746.41 1150.16L1744.28 1151.8Z" fill="#434244" fill-opacity="0.1"/>
<path d="M1744.74 1155.71C1747.72 1155.71 1750.13 1153.3 1750.13 1150.32C1750.13 1147.34 1747.72 1144.92 1744.74 1144.92C1741.76 1144.92 1739.35 1147.34 1739.35 1150.32C1739.35 1153.3 1741.76 1155.71 1744.74 1155.71Z" fill="#E0CDFF"/>
<path d="M1744.75 1156.6C1742.87 1156.6 1741.01 1155.76 1739.77 1154.16C1738.74 1152.84 1738.3 1151.19 1738.51 1149.53C1738.73 1147.86 1739.57 1146.38 1740.9 1145.35C1742.23 1144.32 1743.88 1143.87 1745.54 1144.09C1747.2 1144.3 1748.68 1145.14 1749.71 1146.48C1751.83 1149.21 1751.33 1153.17 1748.59 1155.29C1747.45 1156.17 1746.09 1156.6 1744.75 1156.6ZM1744.74 1145.81C1743.78 1145.81 1742.81 1146.11 1741.99 1146.75C1741.04 1147.49 1740.42 1148.55 1740.27 1149.75C1740.12 1150.94 1740.44 1152.12 1741.18 1153.08C1742.7 1155.04 1745.53 1155.41 1747.49 1153.89C1749.46 1152.37 1749.82 1149.53 1748.3 1147.57C1747.41 1146.42 1746.08 1145.82 1744.73 1145.82L1744.74 1145.81Z" fill="#434244" fill-opacity="0.1"/>
</svg>
