<svg width="313" height="194" viewBox="0 0 313 194" fill="none" xmlns="http://www.w3.org/2000/svg">
<path d="M312.836 40.2363C312.748 39.7981 312.527 39.3866 312.192 39.0893C285.179 13.2573 246.671 -0.997392 209.234 0.948868C171.798 2.89513 134.984 21.0873 110.688 49.5676C106.801 54.1371 103.557 58.7137 100.947 63.2535C92.6908 64.099 83.9345 66.7782 74.7661 71.2736C33.1652 91.6175 4.05382 138.673 0.599002 191.221C0.52089 192.422 1.41978 193.472 2.67869 193.583C3.88474 193.659 4.94026 192.762 5.05353 191.507C8.41297 140.529 36.5749 94.8969 76.7592 75.2492C84.3438 71.5296 91.6039 69.1523 98.4339 68.0474C94.0235 77.283 92.2712 86.3012 93.4323 94.7771C94.6647 104.288 100.8 113.356 109.378 118.419C116.248 122.505 123.705 123.372 130.384 120.838C136.131 118.675 140.836 114.077 143.621 107.906C146.757 100.98 147.075 92.798 144.472 86.0268C139.91 74.0874 127.586 65.2194 113.104 63.3538C110.894 63.0702 108.623 62.9357 106.334 62.9416C108.795 59.0246 111.512 55.4665 114.106 52.4348C137.575 24.851 173.272 7.24915 209.485 5.36742C245.742 3.47679 282.964 17.2613 309.123 42.2625C310.022 43.0844 311.395 43.0809 312.266 42.1755C312.793 41.613 312.969 40.8936 312.827 40.1925L312.836 40.2363ZM103.671 67.4465C106.699 67.2458 109.648 67.3347 112.474 67.722C125.398 69.3548 136.312 77.1393 140.301 87.5983C142.463 93.3184 142.205 100.211 139.543 106.084C137.233 111.202 133.407 114.938 128.77 116.695C123.366 118.743 117.265 118.013 111.593 114.643C104.256 110.287 98.8353 102.26 97.7539 94.1785C96.4863 84.7209 99.3475 75.5244 103.627 67.4554L103.671 67.4465Z" fill="#F9C048"/>
</svg>
