<svg width="1395" height="485" viewBox="0 0 1395 485" fill="none" xmlns="http://www.w3.org/2000/svg">
<path d="M1134.87 483.954V1.10793" stroke="#FF887D" stroke-opacity="0.3" stroke-miterlimit="10"/>
<path d="M1186.67 483.954V1.10793" stroke="#FF887D" stroke-opacity="0.3" stroke-miterlimit="10"/>
<path d="M1238.47 483.954V1.10793" stroke="#FF887D" stroke-opacity="0.3" stroke-miterlimit="10"/>
<path d="M1290.28 483.954V1.10793" stroke="#FF887D" stroke-opacity="0.3" stroke-miterlimit="10"/>
<path d="M1342.08 483.954V1.10793" stroke="#FF887D" stroke-opacity="0.3" stroke-miterlimit="10"/>
<path d="M1393.88 483.954V1.10793" stroke="#FF887D" stroke-opacity="0.3" stroke-miterlimit="10"/>
<path d="M1085.57 483.954V1.10793" stroke="#FF887D" stroke-opacity="0.3" stroke-miterlimit="10"/>
<path d="M1036.27 483.954V1.10793" stroke="#FF887D" stroke-opacity="0.3" stroke-miterlimit="10"/>
<path d="M986.973 483.954V1.10793" stroke="#FF887D" stroke-opacity="0.3" stroke-miterlimit="10"/>
<path d="M937.675 483.954V1.10793" stroke="#FF887D" stroke-opacity="0.3" stroke-miterlimit="10"/>
<path d="M888.376 483.954V1.10793" stroke="#FF887D" stroke-opacity="0.3" stroke-miterlimit="10"/>
<path d="M839.077 483.954V1.10793" stroke="#FF887D" stroke-opacity="0.3" stroke-miterlimit="10"/>
<path d="M789.778 483.954V1.10793" stroke="#FF887D" stroke-opacity="0.3" stroke-miterlimit="10"/>
<path d="M740.479 483.954V1.10793" stroke="#FF887D" stroke-opacity="0.3" stroke-miterlimit="10"/>
<path d="M691.181 483.954V1.10793" stroke="#FF887D" stroke-opacity="0.3" stroke-miterlimit="10"/>
<path d="M641.883 483.954V1.10793" stroke="#FF887D" stroke-opacity="0.3" stroke-miterlimit="10"/>
<path d="M592.584 483.954V1.10793" stroke="#FF887D" stroke-opacity="0.3" stroke-miterlimit="10"/>
<path d="M543.286 483.954V1.10793" stroke="#FF887D" stroke-opacity="0.3" stroke-miterlimit="10"/>
<path d="M493.986 483.954V1.10793" stroke="#FF887D" stroke-opacity="0.3" stroke-miterlimit="10"/>
<path d="M444.688 483.954V1.10793" stroke="#FF887D" stroke-opacity="0.3" stroke-miterlimit="10"/>
<path d="M395.389 483.954V1.10793" stroke="#FF887D" stroke-opacity="0.3" stroke-miterlimit="10"/>
<path d="M346.091 483.954V1.10793" stroke="#FF887D" stroke-opacity="0.3" stroke-miterlimit="10"/>
<path d="M296.792 483.954V1.10793" stroke="#FF887D" stroke-opacity="0.3" stroke-miterlimit="10"/>
<path d="M247.493 483.954V1.10793" stroke="#FF887D" stroke-opacity="0.3" stroke-miterlimit="10"/>
<path d="M198.194 483.954V1.10793" stroke="#FF887D" stroke-opacity="0.3" stroke-miterlimit="10"/>
<path d="M148.896 483.954V1.10793" stroke="#FF887D" stroke-opacity="0.3" stroke-miterlimit="10"/>
<path d="M99.5967 483.954V1.10793" stroke="#FF887D" stroke-opacity="0.3" stroke-miterlimit="10"/>
<path d="M50.2999 483.954V1.10793" stroke="#FF887D" stroke-opacity="0.3" stroke-miterlimit="10"/>
<path d="M1 483.954V1.10793" stroke="#FF887D" stroke-opacity="0.3" stroke-miterlimit="10"/>
<path d="M1 1.00049H1393.88" stroke="#FF887D" stroke-opacity="0.3" stroke-miterlimit="10"/>
<path d="M1 49.2964H1393.88" stroke="#FF887D" stroke-opacity="0.3" stroke-miterlimit="10"/>
<path d="M1 97.5918H1393.88" stroke="#FF887D" stroke-opacity="0.3" stroke-miterlimit="10"/>
<path d="M1 145.887H1393.88" stroke="#FF887D" stroke-opacity="0.3" stroke-miterlimit="10"/>
<path d="M1 194.181H1393.88" stroke="#FF887D" stroke-opacity="0.3" stroke-miterlimit="10"/>
<path d="M1 242.478H1393.88" stroke="#FF887D" stroke-opacity="0.3" stroke-miterlimit="10"/>
<path d="M1 290.772H1393.88" stroke="#FF887D" stroke-opacity="0.3" stroke-miterlimit="10"/>
<path d="M1 339.069H1393.88" stroke="#FF887D" stroke-opacity="0.3" stroke-miterlimit="10"/>
<path d="M1 387.362H1393.88" stroke="#FF887D" stroke-opacity="0.3" stroke-miterlimit="10"/>
<path d="M1 435.658H1393.88" stroke="#FF887D" stroke-opacity="0.3" stroke-miterlimit="10"/>
<path d="M1 483.954H1393.88" stroke="#FF887D" stroke-opacity="0.3" stroke-miterlimit="10"/>
</svg>
