<svg width="1920" height="57" viewBox="0 0 1920 57" fill="none" xmlns="http://www.w3.org/2000/svg">
<g clip-path="url(#clip0_135_985)">
<path d="M28.6412 0.000976562H0V28.501H28.6412V0.000976562Z" fill="#EDEEFE"/>
<path d="M85.9254 0.000732422H57.2842V28.5007H85.9254V0.000732422Z" fill="#EDEEFE"/>
<path d="M830.605 0.000732422H801.964V28.5007H830.605V0.000732422Z" fill="#EDEEFE"/>
<path d="M143.208 0.000732422H114.566V28.5007H143.208V0.000732422Z" fill="#EDEEFE"/>
<path d="M887.888 0.000732422H859.246V28.5007H887.888V0.000732422Z" fill="#EDEEFE"/>
<path d="M200.492 0.000732422H171.851V28.5007H200.492V0.000732422Z" fill="#EDEEFE"/>
<path d="M945.171 0.000732422H916.53V28.5007H945.171V0.000732422Z" fill="#EDEEFE"/>
<path d="M257.773 0.000732422H229.132V28.5007H257.773V0.000732422Z" fill="#EDEEFE"/>
<path d="M1002.45 0.000732422H973.812V28.5007H1002.45V0.000732422Z" fill="#EDEEFE"/>
<path d="M315.057 0.000732422H286.415V28.5007H315.057V0.000732422Z" fill="#EDEEFE"/>
<path d="M1059.74 0.000732422H1031.1V28.5007H1059.74V0.000732422Z" fill="#EDEEFE"/>
<path d="M372.339 0.000732422H343.698V28.5007H372.339V0.000732422Z" fill="#EDEEFE"/>
<path d="M1117.02 0.000732422H1088.38V28.5007H1117.02V0.000732422Z" fill="#EDEEFE"/>
<path d="M429.623 0.000732422H400.981V28.5007H429.623V0.000732422Z" fill="#EDEEFE"/>
<path d="M1174.3 0.000732422H1145.66V28.5007H1174.3V0.000732422Z" fill="#EDEEFE"/>
<path d="M486.906 0.000732422H458.265V28.5007H486.906V0.000732422Z" fill="#EDEEFE"/>
<path d="M1231.59 0.000732422H1202.94V28.5007H1231.59V0.000732422Z" fill="#EDEEFE"/>
<path d="M544.19 0.000732422H515.548V28.5007H544.19V0.000732422Z" fill="#EDEEFE"/>
<path d="M1288.87 0.000732422H1260.23V28.5007H1288.87V0.000732422Z" fill="#EDEEFE"/>
<path d="M601.473 0.000732422H572.832V28.5007H601.473V0.000732422Z" fill="#EDEEFE"/>
<path d="M1346.15 0.000732422H1317.51V28.5007H1346.15V0.000732422Z" fill="#EDEEFE"/>
<path d="M57.2828 28.5007H28.6416V57.0007H57.2828V28.5007Z" fill="#EDEEFE"/>
<path d="M801.963 28.5007H773.321V57.0007H801.963V28.5007Z" fill="#EDEEFE"/>
<path d="M114.566 28.5007H85.9248V57.0007H114.566V28.5007Z" fill="#EDEEFE"/>
<path d="M859.246 28.5007H830.604V57.0007H859.246V28.5007Z" fill="#EDEEFE"/>
<path d="M171.849 28.5007H143.208V57.0007H171.849V28.5007Z" fill="#EDEEFE"/>
<path d="M916.529 28.5007H887.888V57.0007H916.529V28.5007Z" fill="#EDEEFE"/>
<path d="M229.132 28.5007H200.491V57.0007H229.132V28.5007Z" fill="#EDEEFE"/>
<path d="M973.812 28.5007H945.171V57.0007H973.812V28.5007Z" fill="#EDEEFE"/>
<path d="M286.415 28.5007H257.773V57.0007H286.415V28.5007Z" fill="#EDEEFE"/>
<path d="M1031.1 28.5007H1002.45V57.0007H1031.1V28.5007Z" fill="#EDEEFE"/>
<path d="M343.699 28.5007H315.058V57.0007H343.699V28.5007Z" fill="#EDEEFE"/>
<path d="M1088.38 28.5007H1059.74V57.0007H1088.38V28.5007Z" fill="#EDEEFE"/>
<path d="M400.982 28.5007H372.341V57.0007H400.982V28.5007Z" fill="#EDEEFE"/>
<path d="M1145.66 28.5007H1117.02V57.0007H1145.66V28.5007Z" fill="#EDEEFE"/>
<path d="M458.265 28.5007H429.624V57.0007H458.265V28.5007Z" fill="#EDEEFE"/>
<path d="M1202.94 28.5007H1174.3V57.0007H1202.94V28.5007Z" fill="#EDEEFE"/>
<path d="M515.547 28.5007H486.906V57.0007H515.547V28.5007Z" fill="#EDEEFE"/>
<path d="M1260.23 28.5007H1231.59V57.0007H1260.23V28.5007Z" fill="#EDEEFE"/>
<path d="M572.831 28.5007H544.189V57.0007H572.831V28.5007Z" fill="#EDEEFE"/>
<path d="M1317.51 28.5007H1288.87V57.0007H1317.51V28.5007Z" fill="#EDEEFE"/>
<path d="M658.756 0.000732422H630.115V28.5007H658.756V0.000732422Z" fill="#EDEEFE"/>
<path d="M1403.44 0.000732422H1374.79V28.5007H1403.44V0.000732422Z" fill="#EDEEFE"/>
<path d="M716.038 0.000732422H687.396V28.5007H716.038V0.000732422Z" fill="#EDEEFE"/>
<path d="M1460.72 0.000732422H1432.08V28.5007H1460.72V0.000732422Z" fill="#EDEEFE"/>
<path d="M773.322 0.000732422H744.681V28.5007H773.322V0.000732422Z" fill="#EDEEFE"/>
<path d="M630.114 28.5007H601.473V57.0007H630.114V28.5007Z" fill="#EDEEFE"/>
<path d="M1374.79 28.5007H1346.15V57.0007H1374.79V28.5007Z" fill="#EDEEFE"/>
<path d="M687.398 28.5007H658.757V57.0007H687.398V28.5007Z" fill="#EDEEFE"/>
<path d="M1432.08 28.5007H1403.44V57.0007H1432.08V28.5007Z" fill="#EDEEFE"/>
<path d="M744.679 28.5007H716.038V57.0007H744.679V28.5007Z" fill="#EDEEFE"/>
<path d="M57.2836 0.000732422H28.6416V28.5007H57.2836V0.000732422Z" fill="#FA7CA2"/>
<path d="M801.963 0.000732422H773.321V28.5007H801.963V0.000732422Z" fill="#FA7CA2"/>
<path d="M114.566 0.000732422H85.9248V28.5007H114.566V0.000732422Z" fill="#FA7CA2"/>
<path d="M859.246 0.000732422H830.604V28.5007H859.246V0.000732422Z" fill="#FA7CA2"/>
<path d="M171.849 0.000732422H143.208V28.5007H171.849V0.000732422Z" fill="#FA7CA2"/>
<path d="M916.529 0.000732422H887.888V28.5007H916.529V0.000732422Z" fill="#FA7CA2"/>
<path d="M229.133 0.000732422H200.491V28.5007H229.133V0.000732422Z" fill="#FA7CA2"/>
<path d="M973.813 0.000732422H945.171V28.5007H973.813V0.000732422Z" fill="#FA7CA2"/>
<path d="M286.415 0.000732422H257.773V28.5007H286.415V0.000732422Z" fill="#FA7CA2"/>
<path d="M1031.1 0.000732422H1002.45V28.5007H1031.1V0.000732422Z" fill="#FA7CA2"/>
<path d="M343.699 0.000732422H315.058V28.5007H343.699V0.000732422Z" fill="#FA7CA2"/>
<path d="M1088.38 0.000732422H1059.74V28.5007H1088.38V0.000732422Z" fill="#FA7CA2"/>
<path d="M400.982 0.000732422H372.34V28.5007H400.982V0.000732422Z" fill="#FA7CA2"/>
<path d="M1145.66 0.000732422H1117.02V28.5007H1145.66V0.000732422Z" fill="#FA7CA2"/>
<path d="M458.266 0.000732422H429.624V28.5007H458.266V0.000732422Z" fill="#FA7CA2"/>
<path d="M1202.95 0.000732422H1174.3V28.5007H1202.95V0.000732422Z" fill="#FA7CA2"/>
<path d="M515.547 0.000732422H486.906V28.5007H515.547V0.000732422Z" fill="#FA7CA2"/>
<path d="M1260.23 0.000732422H1231.59V28.5007H1260.23V0.000732422Z" fill="#FA7CA2"/>
<path d="M572.831 0.000732422H544.189V28.5007H572.831V0.000732422Z" fill="#FA7CA2"/>
<path d="M1317.51 0.000732422H1288.87V28.5007H1317.51V0.000732422Z" fill="#FA7CA2"/>
<path d="M28.6412 28.5007H0V57.0007H28.6412V28.5007Z" fill="#FA7CA2"/>
<path d="M85.9254 28.5007H57.2842V57.0007H85.9254V28.5007Z" fill="#FA7CA2"/>
<path d="M830.605 28.5007H801.964V57.0007H830.605V28.5007Z" fill="#FA7CA2"/>
<path d="M143.208 28.5007H114.566V57.0007H143.208V28.5007Z" fill="#FA7CA2"/>
<path d="M887.887 28.5007H859.246V57.0007H887.887V28.5007Z" fill="#FA7CA2"/>
<path d="M200.492 28.5007H171.851V57.0007H200.492V28.5007Z" fill="#FA7CA2"/>
<path d="M945.171 28.5007H916.53V57.0007H945.171V28.5007Z" fill="#FA7CA2"/>
<path d="M257.773 28.5007H229.132V57.0007H257.773V28.5007Z" fill="#FA7CA2"/>
<path d="M1002.45 28.5007H973.812V57.0007H1002.45V28.5007Z" fill="#FA7CA2"/>
<path d="M315.056 28.5007H286.415V57.0007H315.056V28.5007Z" fill="#FA7CA2"/>
<path d="M1059.74 28.5007H1031.1V57.0007H1059.74V28.5007Z" fill="#FA7CA2"/>
<path d="M372.339 28.5007H343.698V57.0007H372.339V28.5007Z" fill="#FA7CA2"/>
<path d="M1117.02 28.5007H1088.38V57.0007H1117.02V28.5007Z" fill="#FA7CA2"/>
<path d="M429.623 28.5007H400.981V57.0007H429.623V28.5007Z" fill="#FA7CA2"/>
<path d="M1174.3 28.5007H1145.66V57.0007H1174.3V28.5007Z" fill="#FA7CA2"/>
<path d="M486.906 28.5007H458.265V57.0007H486.906V28.5007Z" fill="#FA7CA2"/>
<path d="M1231.59 28.5007H1202.94V57.0007H1231.59V28.5007Z" fill="#FA7CA2"/>
<path d="M544.189 28.5007H515.548V57.0007H544.189V28.5007Z" fill="#FA7CA2"/>
<path d="M1288.87 28.5007H1260.23V57.0007H1288.87V28.5007Z" fill="#FA7CA2"/>
<path d="M601.473 28.5007H572.832V57.0007H601.473V28.5007Z" fill="#FA7CA2"/>
<path d="M1346.15 28.5007H1317.51V57.0007H1346.15V28.5007Z" fill="#FA7CA2"/>
<path d="M630.115 0.000732422H601.473V28.5007H630.115V0.000732422Z" fill="#FA7CA2"/>
<path d="M1374.79 0.000732422H1346.15V28.5007H1374.79V0.000732422Z" fill="#FA7CA2"/>
<path d="M687.398 0.000732422H658.757V28.5007H687.398V0.000732422Z" fill="#FA7CA2"/>
<path d="M1432.08 0.000732422H1403.44V28.5007H1432.08V0.000732422Z" fill="#FA7CA2"/>
<path d="M744.679 0.000732422H716.038V28.5007H744.679V0.000732422Z" fill="#FA7CA2"/>
<path d="M658.756 28.5007H630.115V57.0007H658.756V28.5007Z" fill="#FA7CA2"/>
<path d="M1403.44 28.5007H1374.79V57.0007H1403.44V28.5007Z" fill="#FA7CA2"/>
<path d="M716.04 28.5007H687.398V57.0007H716.04V28.5007Z" fill="#FA7CA2"/>
<path d="M1460.72 28.5007H1432.08V57.0007H1460.72V28.5007Z" fill="#FA7CA2"/>
<path d="M773.322 28.5007H744.681V57.0007H773.322V28.5007Z" fill="#FA7CA2"/>
<path d="M1518 0.000732422H1489.36V28.5007H1518V0.000732422Z" fill="#EDEEFE"/>
<path d="M1489.36 28.5007H1460.72V57.0007H1489.36V28.5007Z" fill="#EDEEFE"/>
<path d="M1489.36 0.000732422H1460.72V28.5007H1489.36V0.000732422Z" fill="#FA7CA2"/>
<path d="M1518 28.5007H1489.36V57.0007H1518V28.5007Z" fill="#FA7CA2"/>
<path d="M1575.29 0H1546.64V28.5H1575.29V0Z" fill="#EDEEFE"/>
<path d="M1546.64 28.5H1518V57H1546.64V28.5Z" fill="#EDEEFE"/>
<path d="M1546.64 0H1518V28.5H1546.64V0Z" fill="#FA7CA2"/>
<path d="M1575.29 28.5H1546.64V57H1575.29V28.5Z" fill="#FA7CA2"/>
<path d="M1805.41 0H1776.77V28.5H1805.41V0Z" fill="#EDEEFE"/>
<path d="M1776.77 28.5H1748.12V57H1776.77V28.5Z" fill="#EDEEFE"/>
<path d="M1776.77 0H1748.12V28.5H1776.77V0Z" fill="#FA7CA2"/>
<path d="M1805.41 28.5H1776.77V57H1805.41V28.5Z" fill="#FA7CA2"/>
<path d="M1690.35 0H1661.71V28.5H1690.35V0Z" fill="#EDEEFE"/>
<path d="M1661.7 28.5H1633.06V57H1661.7V28.5Z" fill="#EDEEFE"/>
<path d="M1661.7 0H1633.06V28.5H1661.7V0Z" fill="#FA7CA2"/>
<path d="M1690.35 28.5H1661.71V57H1690.35V28.5Z" fill="#FA7CA2"/>
<path d="M1920.47 0H1891.83V28.5H1920.47V0Z" fill="#EDEEFE"/>
<path d="M1891.83 28.5H1863.19V57H1891.83V28.5Z" fill="#EDEEFE"/>
<path d="M1891.83 0H1863.19V28.5H1891.83V0Z" fill="#FA7CA2"/>
<path d="M1920.47 28.5H1891.83V57H1920.47V28.5Z" fill="#FA7CA2"/>
<path d="M1632.82 0H1604.18V28.5H1632.82V0Z" fill="#EDEEFE"/>
<path d="M1604.17 28.5H1575.53V57H1604.17V28.5Z" fill="#EDEEFE"/>
<path d="M1604.17 0H1575.53V28.5H1604.17V0Z" fill="#FA7CA2"/>
<path d="M1632.82 28.5H1604.18V57H1632.82V28.5Z" fill="#FA7CA2"/>
<path d="M1862.94 0H1834.3V28.5H1862.94V0Z" fill="#EDEEFE"/>
<path d="M1834.3 28.5H1805.66V57H1834.3V28.5Z" fill="#EDEEFE"/>
<path d="M1834.3 0H1805.66V28.5H1834.3V0Z" fill="#FA7CA2"/>
<path d="M1862.94 28.5H1834.3V57H1862.94V28.5Z" fill="#FA7CA2"/>
<path d="M1747.88 0H1719.24V28.5H1747.88V0Z" fill="#EDEEFE"/>
<path d="M1719.23 28.5H1690.59V57H1719.23V28.5Z" fill="#EDEEFE"/>
<path d="M1719.23 0H1690.59V28.5H1719.23V0Z" fill="#FA7CA2"/>
<path d="M1747.88 28.5H1719.24V57H1747.88V28.5Z" fill="#FA7CA2"/>
</g>
<defs>
<clipPath id="clip0_135_985">
<rect width="1920" height="57" fill="white"/>
</clipPath>
</defs>
</svg>
