<svg width="798" height="167" viewBox="0 0 798 167" fill="none" xmlns="http://www.w3.org/2000/svg">
<path d="M28.32 75.2C27.9467 75.2 27.68 75.1333 27.52 75C27.36 74.8667 27.28 74.6 27.28 74.2V39C27.28 38.6 27.36 38.3333 27.52 38.2C27.68 38.0667 27.9467 38 28.32 38H33.92C34.2933 38 34.56 38.0667 34.72 38.2C34.88 38.3333 34.96 38.6 34.96 39V51.6H38.64C39.0133 51.6 39.28 51.6667 39.44 51.8C39.6 51.9333 39.68 52.2 39.68 52.6V57.24C39.68 57.64 39.6 57.9067 39.44 58.04C39.28 58.1733 39.0133 58.24 38.64 58.24H34.96V74.2C34.96 74.6 34.88 74.8667 34.72 75C34.56 75.1333 34.2933 75.2 33.92 75.2H28.32ZM15.56 63.56C15.8 62.36 16 61.04 16.16 59.6C16.3467 58.16 16.4933 56.68 16.6 55.16C16.7067 53.64 16.7867 52.1333 16.84 50.64C16.92 49.12 16.96 47.6933 16.96 46.36C16.96 45.72 16.8533 45.28 16.64 45.04C16.4267 44.8 16.04 44.68 15.48 44.68H4.28C3.90667 44.68 3.64 44.6133 3.48 44.48C3.32 44.3467 3.24 44.08 3.24 43.68V39C3.24 38.6 3.32 38.3333 3.48 38.2C3.64 38.0667 3.90667 38 4.28 38H20.2C21.64 38 22.72 38.3733 23.44 39.12C24.16 39.8667 24.52 41.08 24.52 42.76C24.52 44.3867 24.4933 46.1333 24.44 48C24.4133 49.84 24.3333 51.7067 24.2 53.6C24.0933 55.4933 23.9333 57.3733 23.72 59.24C23.5067 61.08 23.2267 62.8267 22.88 64.48C22.8 64.88 22.68 65.16 22.52 65.32C22.3867 65.4533 22.0933 65.4933 21.64 65.44L16.56 64.88C16.1867 64.8267 15.8933 64.72 15.68 64.56C15.4933 64.4 15.4533 64.0667 15.56 63.56ZM1.08 69.12C1.08 68.72 1.16 68.4533 1.32 68.32C1.48 68.1867 1.74667 68.12 2.12 68.12H6.36V54.04C6.36 53.64 6.44 53.3733 6.6 53.24C6.76 53.1067 7.02667 53.04 7.4 53.04H12.6C12.9733 53.04 13.24 53.1067 13.4 53.24C13.56 53.3733 13.64 53.64 13.64 54.04V68.12H24.64C25.0133 68.12 25.28 68.1867 25.44 68.32C25.6 68.4533 25.68 68.72 25.68 69.12V73.8C25.68 74.2 25.6 74.4667 25.44 74.6C25.28 74.7333 25.0133 74.8 24.64 74.8H2.12C1.74667 74.8 1.48 74.7333 1.32 74.6C1.16 74.4667 1.08 74.2 1.08 73.8V69.12ZM73.16 47.44C73.16 49.12 72.8 50.3333 72.08 51.08C71.36 51.8267 70.28 52.2 68.84 52.2H61.64V53.76H74.68C75.0533 53.76 75.32 53.8267 75.48 53.96C75.64 54.0933 75.72 54.36 75.72 54.76V59.44C75.72 59.84 75.64 60.1067 75.48 60.24C75.32 60.3733 75.0533 60.44 74.68 60.44H40.92C40.5467 60.44 40.28 60.3733 40.12 60.24C39.96 60.1067 39.88 59.84 39.88 59.44V54.76C39.88 54.36 39.96 54.0933 40.12 53.96C40.28 53.8267 40.5467 53.76 40.92 53.76H53.96V52.2H46.72C45.28 52.2 44.2 51.8267 43.48 51.08C42.76 50.3333 42.4 49.12 42.4 47.44V39C42.4 38.6 42.48 38.3333 42.64 38.2C42.8 38.0667 43.0667 38 43.44 38H72.12C72.4933 38 72.76 38.0667 72.92 38.2C73.08 38.3333 73.16 38.6 73.16 39V47.44ZM42.4 62.8C42.4 62.4 42.48 62.1333 42.64 62C42.8 61.8667 43.0667 61.8 43.44 61.8H72.12C72.4933 61.8 72.76 61.8667 72.92 62C73.08 62.1333 73.16 62.4 73.16 62.8V74.96C73.16 75.36 73.08 75.6267 72.92 75.76C72.76 75.8933 72.4933 75.96 72.12 75.96H66.52C66.1467 75.96 65.88 75.8933 65.72 75.76C65.56 75.6267 65.48 75.36 65.48 74.96V68.44H43.44C43.0667 68.44 42.8 68.3733 42.64 68.24C42.48 68.1067 42.4 67.84 42.4 67.44V62.8ZM64.72 46.32C65.1733 46.32 65.48 46.24 65.64 46.08C65.8 45.8933 65.88 45.5467 65.88 45.04V43.68H49.68V45.04C49.68 45.5467 49.76 45.8933 49.92 46.08C50.08 46.24 50.3867 46.32 50.84 46.32H64.72ZM104.848 55.6C104.474 55.6 104.208 55.5333 104.048 55.4C103.888 55.2667 103.808 55 103.808 54.6V53.36H99.0478C98.4611 54.8533 97.1545 55.6 95.1278 55.6H81.8878C80.4478 55.6 79.3678 55.2267 78.6478 54.48C77.9278 53.7333 77.5678 52.52 77.5678 50.84V39C77.5678 38.6 77.6478 38.3333 77.8078 38.2C77.9678 38.0667 78.2345 38 78.6078 38H83.7278C84.1011 38 84.3678 38.0667 84.5278 38.2C84.6878 38.3333 84.7678 38.6 84.7678 39V40.96H92.2478V39C92.2478 38.6 92.3278 38.3333 92.4878 38.2C92.6478 38.0667 92.9145 38 93.2878 38H98.4078C98.7811 38 99.0478 38.0667 99.2078 38.2C99.3678 38.3333 99.4478 38.6 99.4478 39V39.76H103.808V39C103.808 38.6 103.888 38.3333 104.048 38.2C104.208 38.0667 104.474 38 104.848 38H110.448C110.821 38 111.088 38.0667 111.248 38.2C111.408 38.3333 111.488 38.6 111.488 39V54.6C111.488 55 111.408 55.2667 111.248 55.4C111.088 55.5333 110.821 55.6 110.448 55.6H104.848ZM111.968 74.32C112.021 74.64 111.954 74.84 111.768 74.92C111.581 75 111.301 75.0667 110.928 75.12C109.088 75.3067 107.261 75.4533 105.448 75.56C103.661 75.6667 101.808 75.7467 99.8878 75.8C97.9678 75.88 95.9545 75.9333 93.8478 75.96C91.7678 75.9867 89.5145 76 87.0878 76C84.6078 76 82.7945 75.48 81.6478 74.44C80.5011 73.4267 79.9278 71.7733 79.9278 69.48V64.8C79.9278 64.4267 80.0078 64.1733 80.1678 64.04C80.3278 63.9067 80.5945 63.84 80.9678 63.84H104.568V62.32H80.9678C80.5945 62.32 80.3278 62.2533 80.1678 62.12C80.0078 61.9867 79.9278 61.7333 79.9278 61.36V58.28C79.9278 57.88 80.0078 57.6133 80.1678 57.48C80.3278 57.3467 80.5945 57.28 80.9678 57.28H110.448C110.821 57.28 111.088 57.3467 111.248 57.48C111.408 57.6133 111.488 57.88 111.488 58.28V67.84C111.488 68.24 111.408 68.5067 111.248 68.64C111.088 68.7733 110.821 68.84 110.448 68.84H86.8478V69.28C86.8478 69.8933 87.0078 70.2667 87.3278 70.4C87.6478 70.5333 88.1411 70.6 88.8078 70.6C91.0478 70.6 93.1411 70.5867 95.0878 70.56C97.0611 70.5333 98.9278 70.4933 100.688 70.44C102.474 70.3867 104.168 70.32 105.768 70.24C107.394 70.16 108.994 70.0533 110.568 69.92C111.234 69.8933 111.581 70.1467 111.608 70.68L111.968 74.32ZM92.2478 46.92H84.7678V48.16C84.7678 48.6667 84.8478 49.0133 85.0078 49.2C85.1678 49.36 85.4745 49.44 85.9278 49.44H91.0878C91.5411 49.44 91.8478 49.36 92.0078 49.2C92.1678 49.0133 92.2478 48.6667 92.2478 48.16V46.92ZM99.4478 47.64H103.808V45.48H99.4478V47.64ZM125.139 41.8C125.139 41.4 125.219 41.1333 125.379 41C125.539 40.8667 125.805 40.8 126.179 40.8H130.419V38C130.419 37.6 130.499 37.3333 130.659 37.2C130.819 37.0667 131.085 37 131.459 37H137.019C137.392 37 137.659 37.0667 137.819 37.2C137.979 37.3333 138.059 37.6 138.059 38V40.8H142.339C142.712 40.8 142.979 40.8667 143.139 41C143.299 41.1333 143.379 41.4 143.379 41.8V46.48C143.379 46.88 143.299 47.1467 143.139 47.28C142.979 47.4133 142.712 47.48 142.339 47.48H138.059V59.2C138.059 59.9733 138.125 60.7333 138.259 61.48C138.392 62.2 138.619 62.88 138.939 63.52C139.259 64.1333 139.685 64.6933 140.219 65.2C140.779 65.68 141.472 66.0533 142.299 66.32C142.405 66.3467 142.525 66.3867 142.659 66.44C142.819 66.4667 142.965 66.52 143.099 66.6C143.232 66.68 143.339 66.8133 143.419 67C143.525 67.16 143.579 67.4 143.579 67.72V72.16C143.579 72.64 143.445 72.92 143.179 73C142.939 73.1067 142.725 73.1467 142.539 73.12C141.925 73.04 141.245 72.9067 140.499 72.72C139.779 72.5333 139.045 72.2667 138.299 71.92C137.579 71.5733 136.859 71.1333 136.139 70.6C135.445 70.0933 134.805 69.4667 134.219 68.72C133.632 69.4667 132.979 70.0933 132.259 70.6C131.565 71.1333 130.845 71.5733 130.099 71.92C129.379 72.2667 128.659 72.5333 127.939 72.72C127.219 72.9067 126.552 73.04 125.939 73.12C125.752 73.1467 125.525 73.1067 125.259 73C125.019 72.92 124.899 72.64 124.899 72.16V67.72C124.899 67.4 124.939 67.16 125.019 67C125.125 66.8133 125.245 66.68 125.379 66.6C125.512 66.52 125.645 66.4667 125.779 66.44C125.939 66.3867 126.072 66.3467 126.179 66.32C127.005 66.0533 127.685 65.68 128.219 65.2C128.779 64.6933 129.219 64.1333 129.539 63.52C129.859 62.88 130.085 62.2 130.219 61.48C130.352 60.7333 130.419 59.9733 130.419 59.2V47.48H126.179C125.805 47.48 125.539 47.4133 125.379 47.28C125.219 47.1467 125.139 46.88 125.139 46.48V41.8ZM140.179 53.8C140.179 53.4 140.259 53.1333 140.419 53C140.579 52.8667 140.845 52.8 141.219 52.8H145.299V39C145.299 38.6 145.379 38.3333 145.539 38.2C145.699 38.0667 145.965 38 146.339 38H151.339C151.712 38 151.979 38.0667 152.139 38.2C152.299 38.3333 152.379 38.6 152.379 39V74.2C152.379 74.6 152.299 74.8667 152.139 75C151.979 75.1333 151.712 75.2 151.339 75.2H146.339C145.965 75.2 145.699 75.1333 145.539 75C145.379 74.8667 145.299 74.6 145.299 74.2V59.44H141.219C140.845 59.44 140.579 59.3733 140.419 59.24C140.259 59.1067 140.179 58.84 140.179 58.44V53.8ZM154.979 75.2C154.605 75.2 154.339 75.1333 154.179 75C154.019 74.8667 153.939 74.6 153.939 74.2V39C153.939 38.6 154.019 38.3333 154.179 38.2C154.339 38.0667 154.605 38 154.979 38H159.979C160.352 38 160.619 38.0667 160.779 38.2C160.939 38.3333 161.019 38.6 161.019 39V74.2C161.019 74.6 160.939 74.8667 160.779 75C160.619 75.1333 160.352 75.2 159.979 75.2H154.979ZM199.099 71.24C199.099 72.92 198.739 74.1333 198.019 74.88C197.299 75.6267 196.219 76 194.779 76H171.859C170.419 76 169.339 75.6267 168.619 74.88C167.899 74.1333 167.539 72.92 167.539 71.24V63C167.539 62.6 167.619 62.3333 167.779 62.2C167.939 62.0667 168.205 62 168.579 62H198.059C198.432 62 198.699 62.0667 198.859 62.2C199.019 62.3333 199.099 62.6 199.099 63V71.24ZM165.739 53.52C165.739 52.5867 165.912 51.72 166.259 50.92C166.605 50.0933 167.179 49.3867 167.979 48.8C168.805 48.1867 169.885 47.7067 171.219 47.36C172.552 47.0133 174.219 46.84 176.219 46.84C178.219 46.84 179.885 47.0133 181.219 47.36C182.552 47.7067 183.619 48.1867 184.419 48.8C185.245 49.3867 185.832 50.0933 186.179 50.92C186.525 51.72 186.699 52.5867 186.699 53.52C186.699 54.4533 186.525 55.3333 186.179 56.16C185.832 56.96 185.245 57.6667 184.419 58.28C183.619 58.8667 182.552 59.3333 181.219 59.68C179.885 60.0267 178.219 60.2 176.219 60.2C174.219 60.2 172.552 60.0267 171.219 59.68C169.885 59.3333 168.805 58.8667 167.979 58.28C167.179 57.6667 166.605 56.96 166.259 56.16C165.912 55.3333 165.739 54.4533 165.739 53.52ZM187.379 48.44C187.379 48.04 187.459 47.7733 187.619 47.64C187.779 47.5067 188.045 47.44 188.419 47.44H191.419V39C191.419 38.6 191.499 38.3333 191.659 38.2C191.819 38.0667 192.085 38 192.459 38H198.059C198.432 38 198.699 38.0667 198.859 38.2C199.019 38.3333 199.099 38.6 199.099 39V59.16C199.099 59.56 199.019 59.8267 198.859 59.96C198.699 60.0933 198.432 60.16 198.059 60.16H192.459C192.085 60.16 191.819 60.0933 191.659 59.96C191.499 59.8267 191.419 59.56 191.419 59.16V54.08H188.419C188.045 54.08 187.779 54.0133 187.619 53.88C187.459 53.7467 187.379 53.48 187.379 53.08V48.44ZM164.859 40.48C164.859 40.08 164.939 39.8133 165.099 39.68C165.259 39.5467 165.525 39.48 165.899 39.48H172.379V38.04C172.379 37.64 172.459 37.3733 172.619 37.24C172.779 37.1067 173.045 37.04 173.419 37.04H179.019C179.392 37.04 179.659 37.1067 179.819 37.24C179.979 37.3733 180.059 37.64 180.059 38.04V39.48H186.459C186.832 39.48 187.099 39.5467 187.259 39.68C187.419 39.8133 187.499 40.08 187.499 40.48V44.36C187.499 44.76 187.419 45.0267 187.259 45.16C187.099 45.2933 186.832 45.36 186.459 45.36H165.899C165.525 45.36 165.259 45.2933 165.099 45.16C164.939 45.0267 164.859 44.76 164.859 44.36V40.48ZM190.579 69.92C191.032 69.92 191.339 69.8267 191.499 69.64C191.659 69.48 191.739 69.1467 191.739 68.64V67.88H174.819V68.64C174.819 69.1467 174.899 69.48 175.059 69.64C175.219 69.8267 175.525 69.92 175.979 69.92H190.579ZM173.139 53.52C173.139 54 173.365 54.3867 173.819 54.68C174.299 54.9733 175.099 55.12 176.219 55.12C177.339 55.12 178.125 54.9733 178.579 54.68C179.059 54.3867 179.299 54 179.299 53.52C179.299 53.04 179.059 52.6533 178.579 52.36C178.125 52.0667 177.339 51.92 176.219 51.92C175.099 51.92 174.299 52.0667 173.819 52.36C173.365 52.6533 173.139 53.04 173.139 53.52ZM237.939 73.8C237.939 74.2 237.859 74.4533 237.699 74.56C237.539 74.6667 237.272 74.7467 236.899 74.8C235.059 74.9867 233.125 75.1467 231.099 75.28C229.099 75.44 227.059 75.5733 224.979 75.68C222.925 75.7867 220.872 75.8667 218.819 75.92C216.792 75.9733 214.819 76 212.899 76C210.339 76 208.499 75.3067 207.379 73.92C206.285 72.56 205.739 70.3733 205.739 67.36V63.76C205.739 63.36 205.819 63.0933 205.979 62.96C206.139 62.8267 206.405 62.76 206.779 62.76H212.379C212.752 62.76 213.019 62.8267 213.179 62.96C213.339 63.0933 213.419 63.36 213.419 63.76V66.6C213.419 67.56 213.619 68.2667 214.019 68.72C214.419 69.1733 215.152 69.3867 216.219 69.36C219.525 69.3067 222.939 69.1867 226.459 69C230.005 68.7867 233.352 68.5067 236.499 68.16C237.192 68.08 237.539 68.4133 237.539 69.16L237.939 73.8ZM230.339 65.2C229.965 65.2 229.699 65.1333 229.539 65C229.379 64.8667 229.299 64.6 229.299 64.2V39C229.299 38.6 229.379 38.3333 229.539 38.2C229.699 38.0667 229.965 38 230.339 38H235.939C236.312 38 236.579 38.0667 236.739 38.2C236.899 38.3333 236.979 38.6 236.979 39V47.84H240.659C241.032 47.84 241.299 47.9067 241.459 48.04C241.619 48.1733 241.699 48.44 241.699 48.84V53.48C241.699 53.88 241.619 54.1467 241.459 54.28C241.299 54.4133 241.032 54.48 240.659 54.48H236.979V64.2C236.979 64.6 236.899 64.8667 236.739 65C236.579 65.1333 236.312 65.2 235.939 65.2H230.339ZM203.099 55.48C203.099 55.08 203.179 54.8133 203.339 54.68C203.499 54.5467 203.765 54.48 204.139 54.48H208.379V49.24C208.379 48.84 208.459 48.5733 208.619 48.44C208.779 48.3067 209.045 48.24 209.419 48.24H214.619C214.992 48.24 215.259 48.3067 215.419 48.44C215.579 48.5733 215.659 48.84 215.659 49.24V54.48H226.659C227.032 54.48 227.299 54.5467 227.459 54.68C227.619 54.8133 227.699 55.08 227.699 55.48V60.16C227.699 60.56 227.619 60.8267 227.459 60.96C227.299 61.0933 227.032 61.16 226.659 61.16H204.139C203.765 61.16 203.499 61.0933 203.339 60.96C203.179 60.8267 203.099 60.56 203.099 60.16V55.48ZM218.219 51C218.272 50.68 218.339 50.28 218.419 49.8C218.499 49.32 218.579 48.84 218.659 48.36C218.739 47.8533 218.805 47.3733 218.859 46.92C218.939 46.44 218.992 46.0533 219.019 45.76C219.045 45.2 218.965 44.8133 218.779 44.6C218.592 44.3867 218.232 44.28 217.699 44.28H206.179C205.859 44.28 205.619 44.2267 205.459 44.12C205.325 44.0133 205.259 43.7733 205.259 43.4V38.88C205.259 38.5067 205.325 38.2667 205.459 38.16C205.619 38.0533 205.859 38 206.179 38H222.779C224.032 38 224.965 38.3333 225.579 39C226.219 39.64 226.552 40.7067 226.579 42.2C226.579 42.8133 226.552 43.5333 226.499 44.36C226.472 45.1867 226.419 46.04 226.339 46.92C226.259 47.8 226.152 48.68 226.019 49.56C225.912 50.4133 225.792 51.1733 225.659 51.84C225.579 52.2133 225.472 52.4667 225.339 52.6C225.232 52.7067 224.979 52.7333 224.579 52.68L219.099 52.16C218.645 52.1067 218.365 52 218.259 51.84C218.179 51.68 218.165 51.4 218.219 51Z" fill="#FA7CA2"/>
<path d="M21.5059 124.061H0.990234V122.689H10.4102V117.307H11.9844V122.689H21.5059V124.061ZM12.0098 109.766C12.0098 110.976 12.3949 112.076 13.165 113.066C13.9437 114.048 14.9508 114.865 16.1865 115.517C17.4222 116.16 18.7298 116.604 20.1094 116.85L19.4746 118.094C18.2897 117.865 17.1514 117.506 16.0596 117.015C14.9678 116.524 13.9945 115.902 13.1396 115.148C12.2848 114.395 11.6416 113.536 11.21 112.571C10.7783 113.536 10.1351 114.395 9.28027 115.148C8.42546 115.902 7.45215 116.524 6.36035 117.015C5.26855 117.506 4.13021 117.865 2.94531 118.094L2.28516 116.85C3.67318 116.604 4.98503 116.16 6.2207 115.517C7.45638 114.865 8.45931 114.048 9.22949 113.066C10.0081 112.076 10.4017 110.976 10.4102 109.766V109.664H2.94531V108.293H10.4102V105.119H11.9844V108.293H19.4746V109.664H12.0098V109.766ZM43.615 116.748H23.2009V115.377H43.615V116.748ZM41.2029 113.041H25.8162V105.576H41.0505V106.947H27.3904V111.721H41.2029V113.041ZM33.408 118.881C34.9991 118.889 36.366 119.054 37.5086 119.376C38.6596 119.689 39.5398 120.146 40.1492 120.747C40.767 121.348 41.0759 122.072 41.0759 122.918C41.0759 123.764 40.767 124.484 40.1492 125.076C39.5398 125.677 38.6596 126.13 37.5086 126.435C36.366 126.748 34.9991 126.904 33.408 126.904C31.7999 126.904 30.4161 126.748 29.2566 126.435C28.1056 126.13 27.2211 125.677 26.6033 125.076C25.9939 124.484 25.6892 123.764 25.6892 122.918C25.6892 122.072 25.9939 121.348 26.6033 120.747C27.2211 120.146 28.1056 119.689 29.2566 119.376C30.4161 119.054 31.7999 118.889 33.408 118.881ZM33.408 120.176C32.1638 120.184 31.0805 120.299 30.158 120.519C29.2439 120.739 28.5414 121.056 28.0505 121.471C27.5597 121.877 27.3142 122.359 27.3142 122.918C27.3142 123.477 27.5597 123.959 28.0505 124.365C28.5414 124.771 29.2439 125.08 30.158 125.292C31.072 125.504 32.1554 125.609 33.408 125.609C34.6436 125.609 35.7143 125.504 36.6199 125.292C37.5339 125.08 38.2364 124.771 38.7273 124.365C39.2267 123.959 39.4763 123.477 39.4763 122.918C39.4763 122.359 39.2267 121.877 38.7273 121.471C38.2364 121.056 37.5339 120.739 36.6199 120.519C35.7143 120.299 34.6436 120.184 33.408 120.176ZM58.8433 108.445H45.4878V107.1H51.3784V104.484H52.9527V107.1H58.8433V108.445ZM52.1655 109.766C53.2235 109.766 54.1545 109.931 54.9585 110.261C55.7626 110.582 56.3846 111.048 56.8247 111.657C57.2733 112.258 57.4976 112.965 57.4976 113.777C57.4976 114.581 57.2733 115.284 56.8247 115.885C56.3846 116.486 55.7626 116.951 54.9585 117.281C54.1545 117.603 53.2235 117.764 52.1655 117.764C51.0991 117.764 50.1597 117.603 49.3472 117.281C48.5432 116.951 47.9168 116.486 47.4683 115.885C47.0282 115.284 46.8081 114.581 46.8081 113.777C46.8081 112.965 47.0282 112.258 47.4683 111.657C47.9168 111.048 48.5432 110.582 49.3472 110.261C50.1597 109.931 51.0991 109.766 52.1655 109.766ZM52.1655 111.035C51.4038 111.035 50.731 111.154 50.147 111.391C49.563 111.619 49.1102 111.941 48.7886 112.355C48.4754 112.77 48.3231 113.244 48.3316 113.777C48.3231 114.311 48.4754 114.78 48.7886 115.187C49.1102 115.593 49.563 115.91 50.147 116.139C50.731 116.359 51.4038 116.469 52.1655 116.469C52.9188 116.469 53.5832 116.359 54.1587 116.139C54.7342 115.91 55.1828 115.593 55.5044 115.187C55.826 114.78 55.9911 114.311 55.9995 113.777C55.9911 113.244 55.826 112.77 55.5044 112.355C55.1828 111.932 54.7342 111.606 54.1587 111.378C53.5832 111.149 52.9188 111.035 52.1655 111.035ZM62.855 110.908H66.3081V112.279H62.855V118.551H61.2554V104.586H62.855V110.908ZM62.855 126.98H61.2554V121.217H48.3062V119.896H62.855V126.98ZM74.1477 109.182C74.1477 110.011 74.3424 110.828 74.7317 111.632C75.1295 112.436 75.6881 113.16 76.4075 113.803C77.1269 114.446 77.9563 114.937 78.8958 115.275L78.0325 116.545C76.9407 116.122 75.9928 115.508 75.1888 114.704C74.3847 113.9 73.7838 112.986 73.386 111.962C72.9713 113.088 72.3492 114.112 71.5198 115.034C70.6904 115.948 69.7298 116.646 68.638 117.129L67.7493 115.885C68.6888 115.47 69.5266 114.899 70.263 114.171C70.9993 113.435 71.5748 112.626 71.9895 111.746C72.4042 110.866 72.6158 110.011 72.6243 109.182V105.982H74.1477V109.182ZM86.5638 118.475H85.0403V112.152H81.6888V117.764H80.1653V105.018H81.6888V110.807H85.0403V104.586H86.5638V118.475ZM79.2513 119.033C80.7747 119.033 82.095 119.19 83.2122 119.503C84.3294 119.808 85.1884 120.256 85.7893 120.849C86.3902 121.441 86.6907 122.148 86.6907 122.969C86.6907 123.79 86.3902 124.496 85.7893 125.089C85.1884 125.681 84.3294 126.13 83.2122 126.435C82.095 126.748 80.7747 126.904 79.2513 126.904C77.7109 126.904 76.3779 126.748 75.2522 126.435C74.135 126.13 73.276 125.681 72.6751 125.089C72.0826 124.496 71.7864 123.79 71.7864 122.969C71.7864 122.148 72.0826 121.441 72.6751 120.849C73.276 120.256 74.135 119.808 75.2522 119.503C76.3779 119.19 77.7109 119.033 79.2513 119.033ZM79.2513 120.303C78.0579 120.303 77.0169 120.413 76.1282 120.633C75.2395 120.844 74.5582 121.153 74.0843 121.56C73.6103 121.957 73.3776 122.427 73.386 122.969C73.3776 123.51 73.6103 123.984 74.0843 124.391C74.5582 124.788 75.2395 125.093 76.1282 125.305C77.0169 125.525 78.0579 125.635 79.2513 125.635C80.4277 125.635 81.456 125.525 82.3362 125.305C83.2164 125.093 83.8977 124.788 84.3802 124.391C84.8626 123.984 85.108 123.51 85.1165 122.969C85.108 122.427 84.8626 121.957 84.3802 121.56C83.8977 121.153 83.2164 120.844 82.3362 120.633C81.456 120.413 80.4277 120.303 79.2513 120.303ZM110.247 115.529H89.833V114.184H110.247V115.529ZM107.81 112.178H92.626V105.449H107.556V106.77H94.2256V110.832H107.81V112.178ZM107.556 122.74H93.9717V125.355H108.267V126.676H92.4229V121.471H106.007V119.033H92.3467V117.738H107.556V122.74ZM119.382 106.262C120.541 106.262 121.574 106.482 122.479 106.922C123.385 107.354 124.092 107.963 124.599 108.75C125.107 109.529 125.365 110.426 125.374 111.441C125.365 112.465 125.107 113.371 124.599 114.158C124.092 114.937 123.385 115.542 122.479 115.974C121.582 116.405 120.55 116.621 119.382 116.621C118.222 116.621 117.185 116.405 116.271 115.974C115.366 115.542 114.659 114.933 114.151 114.146C113.643 113.358 113.389 112.457 113.389 111.441C113.389 110.434 113.643 109.537 114.151 108.75C114.667 107.963 115.378 107.354 116.284 106.922C117.19 106.482 118.222 106.262 119.382 106.262ZM119.382 107.684C118.535 107.684 117.774 107.844 117.096 108.166C116.428 108.488 115.903 108.936 115.522 109.512C115.141 110.079 114.955 110.722 114.964 111.441C114.955 112.161 115.141 112.808 115.522 113.384C115.903 113.959 116.428 114.408 117.096 114.729C117.774 115.051 118.535 115.208 119.382 115.199C120.228 115.208 120.985 115.051 121.654 114.729C122.323 114.408 122.847 113.959 123.228 113.384C123.609 112.808 123.8 112.161 123.8 111.441C123.8 110.722 123.609 110.079 123.228 109.512C122.847 108.936 122.323 108.488 121.654 108.166C120.985 107.844 120.228 107.684 119.382 107.684ZM130.274 127.006H128.675V104.586H130.274V127.006ZM113.897 120.531C116.343 120.531 118.666 120.48 120.867 120.379C123.068 120.269 125.154 120.066 127.126 119.77L127.253 120.988C125.662 121.285 124.003 121.505 122.276 121.648C120.558 121.784 118.967 121.868 117.503 121.902C116.039 121.936 114.346 121.953 112.425 121.953L112.171 120.531H113.897ZM151.742 108.141H144.1V109.943H151.26V112.508H144.1V114.387C146.097 114.387 147.752 114.344 149.064 114.26C150.384 114.167 151.692 113.997 152.987 113.752L153.342 116.316C151.971 116.553 150.583 116.714 149.178 116.799C147.773 116.883 146.038 116.926 143.973 116.926H142.754H140.825V105.525H151.742V108.141ZM158.293 127.082H143.186V118.754H158.293V127.082ZM146.385 124.492H155.094V121.268H146.385V124.492ZM158.293 109.639H161.416V112.305H158.293V117.738H155.043V104.23H158.293V109.639ZM180.783 107.658C180.783 109.131 180.749 110.434 180.682 111.568C180.614 112.694 180.449 113.972 180.187 115.402H183.246V118.018H174.232V127.361H170.982V118.018H162.172V115.402H176.911C177.182 114.065 177.356 112.842 177.432 111.733C177.516 110.616 177.559 109.427 177.559 108.166H164.584V105.576H180.783V107.658ZM195.478 112.787H188.496V115.25C190.273 115.25 191.733 115.212 192.876 115.136C194.027 115.051 195.174 114.903 196.316 114.691L196.621 117.281C195.343 117.51 194.023 117.662 192.66 117.738C191.306 117.806 189.427 117.84 187.023 117.84H185.297V110.375H192.228V108.115H185.246V105.576H195.478V112.787ZM203.857 118.475H200.633V114.92H196.799V112.355H200.633V110.02H196.799V107.455H200.633V104.256H203.857V118.475ZM203.857 127.336H200.633V122.105H187.937V119.516H203.857V127.336ZM219.593 108.395V108.75C219.576 110.299 219.53 111.708 219.454 112.978C219.378 114.239 219.212 115.665 218.959 117.256L215.759 117.002C215.988 115.512 216.14 114.171 216.216 112.978C216.293 111.784 216.339 110.502 216.356 109.131H207.609V106.541H219.593V108.395ZM213.83 119.871C216.343 119.77 218.578 119.592 220.533 119.338L220.736 121.75C218.789 122.08 216.745 122.309 214.604 122.436C212.463 122.554 210.224 122.613 207.888 122.613H206.695L206.39 120.023H207.457L210.63 119.973V113.168H213.83V119.871ZM224.9 113.523H228.048V116.215H224.9V127.336H221.625V104.23H224.9V113.523ZM254.671 109.74H235.45V107.15H243.448V104.459H246.648V107.15H254.671V109.74ZM255.687 124.975H234.536V122.385H243.448V119.731C242.137 119.621 241.007 119.372 240.059 118.982C239.111 118.585 238.387 118.068 237.888 117.434C237.388 116.799 237.143 116.062 237.151 115.225C237.143 114.302 237.456 113.502 238.091 112.825C238.734 112.148 239.648 111.632 240.833 111.276C242.026 110.921 243.431 110.747 245.048 110.756C246.639 110.747 248.027 110.921 249.212 111.276C250.397 111.632 251.311 112.148 251.954 112.825C252.597 113.502 252.919 114.302 252.919 115.225C252.919 116.062 252.665 116.799 252.157 117.434C251.658 118.068 250.939 118.58 249.999 118.97C249.06 119.359 247.943 119.613 246.648 119.731V122.385H255.687V124.975ZM245.048 113.27C243.533 113.27 242.39 113.435 241.62 113.765C240.85 114.086 240.469 114.573 240.478 115.225C240.469 115.902 240.846 116.401 241.608 116.723C242.378 117.044 243.525 117.205 245.048 117.205C248.078 117.205 249.593 116.545 249.593 115.225C249.593 114.573 249.204 114.086 248.425 113.765C247.655 113.435 246.529 113.27 245.048 113.27ZM276.171 127.336H272.895V104.23H276.171V127.336ZM269.239 106.643C269.239 109.114 268.905 111.361 268.236 113.384C267.576 115.407 266.459 117.264 264.885 118.957C263.31 120.641 261.19 122.114 258.524 123.375L256.823 120.785C258.795 119.854 260.42 118.817 261.698 117.675C262.985 116.532 263.966 115.267 264.643 113.879C265.329 112.482 265.761 110.917 265.938 109.182H258.067V106.643H269.239ZM298.305 117.281H295.055V104.256H298.305V117.281ZM298.305 127.082H282.817V118.348H298.305V127.082ZM286.016 124.492H295.131V120.912H286.016V124.492ZM287.819 107.328C287.811 108.293 288.001 109.211 288.39 110.083C288.788 110.946 289.389 111.716 290.193 112.394C291.005 113.071 292.017 113.6 293.227 113.98L291.653 116.443C290.366 116.062 289.258 115.495 288.327 114.742C287.404 113.98 286.676 113.071 286.143 112.013C285.602 113.164 284.852 114.158 283.896 114.996C282.94 115.834 281.793 116.46 280.456 116.875L278.881 114.336C280.117 113.964 281.15 113.418 281.979 112.698C282.817 111.97 283.435 111.145 283.833 110.223C284.239 109.292 284.442 108.327 284.442 107.328V105.094H287.819V107.328ZM311.655 104.992C313.297 104.992 314.702 105.145 315.87 105.449C317.046 105.745 317.943 106.186 318.561 106.77C319.187 107.345 319.5 108.048 319.5 108.877C319.5 109.715 319.187 110.43 318.561 111.022C317.943 111.606 317.046 112.051 315.87 112.355C314.702 112.66 313.297 112.812 311.655 112.812C310.013 112.812 308.604 112.66 307.427 112.355C306.259 112.051 305.362 111.606 304.736 111.022C304.118 110.43 303.809 109.715 303.809 108.877C303.809 108.048 304.118 107.345 304.736 106.77C305.362 106.186 306.259 105.745 307.427 105.449C308.604 105.145 310.013 104.992 311.655 104.992ZM311.655 106.236C310.385 106.236 309.285 106.346 308.354 106.566C307.423 106.778 306.708 107.083 306.208 107.48C305.709 107.87 305.459 108.335 305.459 108.877C305.459 109.436 305.709 109.918 306.208 110.324C306.708 110.73 307.419 111.039 308.341 111.251C309.272 111.463 310.377 111.568 311.655 111.568C312.933 111.568 314.037 111.463 314.968 111.251C315.908 111.039 316.627 110.73 317.126 110.324C317.626 109.918 317.875 109.436 317.875 108.877C317.875 108.335 317.626 107.87 317.126 107.48C316.627 107.083 315.908 106.778 314.968 106.566C314.037 106.346 312.933 106.236 311.655 106.236ZM321.887 115.809H301.473V114.488H321.887V115.809ZM319.196 122.74H305.612V125.381H319.907V126.701H304.063V121.496H317.647V119.211H303.987V117.941H319.196V122.74ZM336.119 111.492C336.119 112.694 336.331 113.887 336.754 115.072C337.177 116.257 337.769 117.324 338.531 118.271C339.301 119.219 340.182 119.956 341.172 120.48L340.207 121.725C339.081 121.09 338.095 120.193 337.249 119.033C336.411 117.865 335.785 116.558 335.37 115.11C334.972 116.651 334.354 118.047 333.517 119.3C332.687 120.544 331.71 121.505 330.584 122.182L329.594 120.963C330.567 120.396 331.43 119.609 332.184 118.602C332.937 117.594 333.525 116.469 333.948 115.225C334.371 113.98 334.587 112.736 334.596 111.492V110.248H330.051V108.902H334.596V105.424H336.144V108.902H340.613V110.248H336.119V111.492ZM348.84 126.98H347.291V115.174H343.863V125.812H342.34V105.094H343.863V113.777H347.291V104.586H348.84V126.98ZM370.238 127.006H368.613V121.242H363.281V119.973H368.613V104.586H370.238V127.006ZM351.804 116.52C354.792 116.52 357.488 116.477 359.891 116.393C362.303 116.299 364.601 116.096 366.785 115.783L366.912 117.002C364.923 117.332 362.587 117.577 359.904 117.738V126.27H358.304V117.814C356.595 117.882 354.504 117.916 352.033 117.916L351.804 116.52ZM359.193 105.754C360.293 105.754 361.271 105.936 362.126 106.3C362.98 106.664 363.645 107.176 364.119 107.836C364.593 108.488 364.83 109.241 364.83 110.096C364.83 110.967 364.593 111.733 364.119 112.394C363.645 113.045 362.98 113.549 362.126 113.904C361.271 114.26 360.293 114.438 359.193 114.438C358.084 114.438 357.103 114.26 356.248 113.904C355.393 113.549 354.729 113.045 354.255 112.394C353.789 111.742 353.556 110.976 353.556 110.096C353.556 109.241 353.793 108.488 354.267 107.836C354.741 107.176 355.401 106.664 356.248 106.3C357.103 105.936 358.084 105.754 359.193 105.754ZM359.193 107.049C358.397 107.049 357.682 107.18 357.048 107.442C356.421 107.705 355.93 108.069 355.575 108.534C355.228 109 355.054 109.52 355.054 110.096C355.054 110.697 355.228 111.234 355.575 111.708C355.93 112.174 356.421 112.537 357.048 112.8C357.674 113.062 358.389 113.193 359.193 113.193C359.98 113.193 360.683 113.062 361.3 112.8C361.927 112.537 362.413 112.174 362.76 111.708C363.116 111.234 363.298 110.697 363.306 110.096C363.298 109.52 363.116 109 362.76 108.534C362.413 108.069 361.927 107.705 361.3 107.442C360.683 107.18 359.98 107.049 359.193 107.049ZM385.187 107.734C385.187 108.75 385.593 109.711 386.406 110.616C387.227 111.513 388.259 112.267 389.503 112.876C390.747 113.485 391.992 113.887 393.236 114.082L392.626 115.352C391.484 115.14 390.358 114.793 389.249 114.311C388.141 113.82 387.146 113.21 386.266 112.482C385.394 111.746 384.743 110.925 384.311 110.02C383.879 110.917 383.223 111.733 382.343 112.47C381.471 113.206 380.485 113.82 379.385 114.311C378.285 114.793 377.172 115.14 376.046 115.352L375.412 114.082C376.647 113.887 377.887 113.485 379.131 112.876C380.375 112.267 381.404 111.513 382.216 110.616C383.029 109.711 383.435 108.75 383.435 107.734V107.379H376.072V106.059H392.525V107.379H385.187V107.734ZM394.531 118.83H385.06V126.955H383.511V118.83H374.117V117.459H394.531V118.83ZM414.405 112.914H399.171V105.398H400.745V111.568H414.405V112.914ZM416.792 117.484H396.302V116.164H416.792V117.484ZM414.532 126.422H399.07V119.922H400.644V125.051H414.532V126.422ZM442.298 109.08V109.537C442.289 110.73 442.268 111.767 442.234 112.647C442.2 113.519 442.12 114.522 441.993 115.656C441.866 116.79 441.671 118.009 441.409 119.312L439.809 119.135C440.216 117.239 440.482 115.364 440.609 113.511L426.708 114.311L426.428 112.889L440.685 112.279L440.749 109.715V109.08V108.217H427.038V106.871H442.298V109.08ZM444.964 123.756H424.55V122.385H432.776V116.418H434.35V122.385H444.964V123.756ZM465.245 127.006H463.645V113.473H456.358V112.127H463.645V104.586H465.245V127.006ZM449.629 120.15H449.706C451.661 120.133 453.425 120.062 454.999 119.935C456.582 119.808 458.186 119.583 459.811 119.262L460.014 120.582C458.321 120.938 456.667 121.183 455.05 121.318C453.442 121.454 451.661 121.521 449.706 121.521H448.004V107.125H449.629V120.15Z" fill="#000543"/>
</svg>
