<svg width="400" height="412" viewBox="0 0 400 412" fill="none" xmlns="http://www.w3.org/2000/svg">
<path opacity="0.1" d="M390.776 355.719C288.602 431.551 5.87549 407.56 5.87549 407.56V19.585H391.872C391.872 19.585 410.85 340.815 390.776 355.719Z" fill="#393954"/>
<path d="M384.9 336.134C282.726 411.966 0 387.955 0 387.955V0H387.955C387.955 0 404.975 321.23 384.9 336.134Z" fill="#E6B6B2"/>
<path d="M391.579 82.1387H0.979248V0H389.816L391.579 82.1387Z" fill="#F4D6D8"/>
<path d="M0 387.955C0 387.955 306.424 319.428 327.987 316.608C327.987 316.608 346.671 347.532 384.9 336.134C384.9 336.134 324.442 414.179 0 387.955Z" fill="#F4D6D8"/>
<path d="M144.703 45.9223C143.921 45.9223 143.309 45.5483 142.935 44.8343C142.765 44.5283 142.697 44.1883 142.697 43.7463C142.697 42.8963 143.173 42.1143 143.887 41.8423C146.471 40.8903 148.341 39.9723 149.463 39.1223C150.585 38.2723 151.129 37.2863 151.129 36.1643V35.8243H145.247C143.989 35.8243 143.139 35.0083 143.139 33.7503C143.139 32.5263 143.989 31.7443 145.247 31.7443H161.805C163.063 31.7443 163.913 32.5263 163.913 33.7503C163.913 34.9743 163.131 35.8243 161.805 35.8243H155.719V36.4023C155.719 36.8103 155.651 37.3203 155.549 37.9663C158.167 39.0543 161.091 40.5163 163.097 41.8763C163.743 42.3183 164.083 42.9983 164.083 43.7123C164.083 44.2563 163.913 44.7323 163.573 45.1403C163.165 45.6503 162.655 45.9223 162.043 45.9223C161.567 45.9223 161.091 45.7523 160.615 45.4123C158.099 43.6783 155.719 42.3863 153.441 41.5023C151.707 43.2023 149.055 44.6303 145.519 45.7863C145.315 45.8883 145.043 45.9223 144.703 45.9223ZM138.651 52.5863C138.651 51.3283 139.433 50.5463 140.759 50.5463H151.129V46.8063C151.129 45.4463 152.047 44.6303 153.407 44.6303C154.869 44.6303 155.719 45.4463 155.719 46.8063V50.5463H166.123C167.449 50.5463 168.231 51.3283 168.231 52.5863C168.231 53.8443 167.449 54.6263 166.123 54.6263H140.759C139.433 54.6263 138.651 53.8443 138.651 52.5863ZM146.471 27.5963C146.471 27.0523 146.607 26.6103 146.879 26.2703C147.253 25.7603 147.763 25.4883 148.375 25.4883C148.715 25.4883 149.055 25.5903 149.429 25.7603L149.905 25.9983C150.211 26.1683 150.891 26.2363 151.945 26.2363H158.371C159.697 26.2363 160.445 27.0183 160.445 28.2423C160.445 29.4663 159.595 30.3163 158.337 30.3163H152.489C150.075 30.3163 148.851 30.1803 147.729 29.5343L147.321 29.2963C146.743 28.9903 146.471 28.4463 146.471 27.5963ZM184.371 58.8423C179.305 58.8423 175.871 55.8163 175.871 51.6683C175.871 47.7243 179.101 44.4943 184.371 44.4943C189.641 44.4943 192.871 47.7243 192.871 51.6683C192.871 55.8163 189.437 58.8423 184.371 58.8423ZM169.581 40.8903C169.581 39.6663 170.397 38.8843 171.791 38.8843H196.951C198.345 38.8843 199.161 39.6663 199.161 40.8903C199.161 42.1143 198.311 42.9643 196.951 42.9643H171.791C170.431 42.9643 169.581 42.1143 169.581 40.8903ZM174.443 31.5743V29.1603C174.443 27.4943 175.599 26.3043 177.231 26.3043H192.225C193.551 26.3043 194.333 27.0863 194.333 28.3443C194.333 29.6703 193.585 30.3163 192.225 30.3163H179.475C179.203 30.3163 179.033 30.4863 179.033 30.7243V31.3703C179.033 33.1043 181.345 33.1723 185.017 33.1723C187.431 33.1723 190.117 32.9003 192.157 32.4583L192.803 32.3903C193.789 32.3903 194.435 32.9003 194.605 33.9543C194.639 34.0223 194.639 34.1583 194.639 34.3963C194.639 35.3823 193.993 36.1303 192.905 36.3683C190.729 36.8783 187.771 37.1843 185.017 37.1843C182.467 37.1843 180.393 37.0143 178.863 36.6743C175.837 35.9943 174.443 34.4303 174.443 31.5743ZM180.461 51.6683C180.461 53.4703 182.059 54.7963 184.371 54.7963C186.683 54.7963 188.281 53.4703 188.281 51.6683C188.281 49.8663 186.683 48.5403 184.371 48.5403C182.059 48.5403 180.461 49.8663 180.461 51.6683ZM211.118 45.1063C207.004 45.1063 203.944 42.4543 203.944 38.3743C203.944 37.3203 204.182 36.3003 204.658 35.3483H203.57C202.312 35.3483 201.462 34.5663 201.462 33.3083C201.462 32.0503 202.244 31.2683 203.57 31.2683H218.53C219.856 31.2683 220.638 32.0503 220.638 33.3083C220.638 34.5663 219.788 35.3483 218.53 35.3483H217.544C218.054 36.3343 218.326 37.3543 218.326 38.3743C218.326 42.3863 215.164 45.1063 211.118 45.1063ZM204.114 27.3243C204.114 26.8823 204.216 26.5083 204.42 26.1683C204.794 25.5223 205.44 25.1823 206.12 25.1823C206.494 25.1823 206.8 25.2503 207.106 25.4203L207.582 25.6583C207.854 25.7603 208.228 25.8623 208.67 25.8963C208.976 25.9303 209.69 25.9303 210.812 25.9303H215.708C216.966 25.9303 217.782 26.7463 217.782 27.9703C217.782 29.2283 216.932 30.0103 215.674 30.0103H210.166C207.888 30.0103 206.528 29.8403 205.406 29.1603L204.998 28.9223C204.42 28.5823 204.114 28.0383 204.114 27.3243ZM206.222 49.1863C206.222 47.9283 207.004 47.1463 208.33 47.1463H223.426C225.058 47.1463 226.214 48.3363 226.214 50.0023V55.8843C226.214 57.2443 225.33 58.0603 223.868 58.0603C222.508 58.0603 221.624 57.2443 221.624 55.8843V51.8043C221.624 51.4303 221.386 51.2263 221.08 51.2263H208.33C207.004 51.2263 206.222 50.4443 206.222 49.1863ZM208.364 38.3403C208.364 39.9383 209.52 41.0943 211.152 41.0943C212.682 41.0943 213.906 39.9383 213.906 38.3403C213.906 36.7083 212.784 35.5183 211.152 35.5183C209.418 35.5183 208.364 36.6743 208.364 38.3403ZM221.624 44.2563V27.5283C221.624 26.2703 222.508 25.4883 223.834 25.4883H224.004C225.33 25.4883 226.214 26.2703 226.214 27.5283V33.4783H228.832C230.158 33.4783 230.94 34.2603 230.94 35.5183C230.94 36.7763 230.158 37.5583 228.832 37.5583H226.214V44.2563C226.214 45.5143 225.33 46.2963 224.004 46.2963H223.834C222.508 46.2963 221.624 45.5143 221.624 44.2563ZM233.547 54.6263C232.221 54.6263 231.439 53.8443 231.439 52.5863C231.439 51.3283 232.221 50.5463 233.547 50.5463H237.933V39.6663C237.933 38.3063 238.851 37.4903 240.211 37.4903C241.673 37.4903 242.523 38.3063 242.523 39.6663V50.5463H245.209V39.6663C245.209 38.3063 246.127 37.4903 247.487 37.4903C248.949 37.4903 249.799 38.3063 249.799 39.6663V50.5463H258.911C260.237 50.5463 261.019 51.3283 261.019 52.5863C261.019 53.8443 260.237 54.6263 258.911 54.6263H233.547ZM235.825 28.9223C235.825 27.6643 236.607 26.8823 237.933 26.8823H253.811C255.443 26.8823 256.599 28.0383 256.599 29.7723C256.599 36.6743 256.293 40.1763 255.307 43.4403C255.001 44.3583 254.287 44.8683 253.369 44.8683C252.961 44.8683 252.587 44.8003 252.281 44.6303C251.465 44.2903 251.057 43.6103 251.057 42.6243C251.057 42.3523 251.091 42.0803 251.159 41.8083C251.805 39.0543 251.975 36.1643 251.975 31.3023C251.975 31.0643 251.873 30.9623 251.635 30.9623H237.933C236.607 30.9623 235.825 30.1803 235.825 28.9223Z" fill="black"/>
<path d="M179.959 130H105.346V234H180.058C184.927 234 189 230.3 189 225.9V138.1C188.901 133.7 184.927 130 179.959 130Z" fill="#AC93A8"/>
<path d="M177.176 131.6H101.073V232.5H177.176C182.144 232.5 186.217 228.9 186.217 224.6V139.5C186.217 135.1 182.144 131.6 177.176 131.6Z" fill="#E2E2E2"/>
<path d="M175.388 131.6H101.073V229.9H175.388C180.256 229.9 184.23 226.4 184.23 222.2V139.3C184.23 135 180.256 131.6 175.388 131.6Z" fill="#EFEFEF"/>
<path d="M171.712 130H97V234H171.712C176.581 234 180.654 230.3 180.654 225.9V138.1C180.555 133.7 176.581 130 171.712 130Z" fill="#EECDE9"/>
<path d="M171.713 130H109.32C109.32 130 101.868 193.4 117.367 209.1C128.594 220.4 172.905 218.7 172.905 218.7C177.078 218.7 180.456 215.6 180.456 211.8V138.1C180.555 133.7 176.581 130 171.713 130Z" fill="#EECDE9"/>
<path d="M124.254 156.226C126.024 156.226 127.574 156.873 128.648 157.959H133.678V155.029H136.778V168.042H133.678V165.381H128.624C127.55 166.455 126.012 167.102 124.254 167.09C120.885 167.114 118.321 164.795 118.346 161.67C118.321 158.496 120.885 156.226 124.254 156.226ZM124.254 158.887C122.521 158.887 121.275 159.912 121.3 161.67C121.275 163.379 122.521 164.478 124.254 164.453C125.938 164.478 127.159 163.379 127.159 161.67C127.159 159.912 125.938 158.887 124.254 158.887ZM129.186 168.506C133.897 168.506 136.827 170.117 136.852 172.876C136.827 175.635 133.897 177.246 129.186 177.246C124.498 177.246 121.544 175.635 121.544 172.876C121.544 170.117 124.498 168.506 129.186 168.506ZM129.186 170.874C126.231 170.874 124.596 171.533 124.596 172.876C124.596 174.17 126.231 174.829 129.186 174.829C132.188 174.829 133.8 174.17 133.8 172.876C133.8 171.533 132.188 170.874 129.186 170.874ZM129.991 160.425C130.064 160.815 130.113 161.243 130.113 161.67C130.113 162.097 130.064 162.5 129.991 162.891H133.678V160.425H129.991ZM144.787 156.592C147.79 156.592 150.024 159.07 150.476 163.062H154.333V155.029H157.409V177.295H154.333V165.552H150.5C150.17 169.824 147.888 172.437 144.787 172.437C141.418 172.437 139.001 169.385 139.025 164.502C139.001 159.668 141.418 156.592 144.787 156.592ZM144.787 159.399C143.127 159.399 141.979 161.206 142.004 164.502C141.979 167.822 143.127 169.604 144.787 169.604C146.472 169.604 147.57 167.822 147.57 164.502C147.57 161.206 146.472 159.399 144.787 159.399Z" fill="#000543"/>
<path d="M292.959 130H218.346V234H293.058C297.927 234 302 230.3 302 225.9V138.1C301.901 133.7 297.927 130 292.959 130Z" fill="#928B6A"/>
<path d="M290.176 131.6H214.073V232.5H290.176C295.144 232.5 299.217 228.9 299.217 224.6V139.5C299.217 135.1 295.144 131.6 290.176 131.6Z" fill="#E2E2E2"/>
<path d="M288.388 131.6H214.073V229.9H288.388C293.256 229.9 297.23 226.4 297.23 222.2V139.3C297.23 135 293.256 131.6 288.388 131.6Z" fill="#EFEFEF"/>
<path d="M284.712 130H210V234H284.712C289.581 234 293.654 230.3 293.654 225.9V138.1C293.555 133.7 289.581 130 284.712 130Z" fill="#EFE2A6"/>
<path d="M284.713 130H222.32C222.32 130 214.868 193.4 230.367 209.1C241.594 220.4 285.905 218.7 285.905 218.7C290.078 218.7 293.456 215.6 293.456 211.8V138.1C293.555 133.7 289.581 130 284.713 130Z" fill="#EFE2A6"/>
<path d="M242.845 156.763C242.845 159.375 245.506 162.28 250.608 162.915L249.388 165.43C245.506 164.868 242.662 163.074 241.209 160.669C239.744 163.074 236.924 164.868 233.079 165.43L231.834 162.915C236.888 162.28 239.573 159.375 239.573 156.763V155.688H242.845V156.763ZM251.316 167.114V169.653H242.674V177.246H239.598V169.653H231.053V167.114H251.316ZM264.843 157.007V159.473H251.659V157.007H256.713V154.907H259.813V157.007H264.843ZM258.251 160.181C261.474 160.181 263.72 161.841 263.72 164.282C263.72 166.724 261.474 168.384 258.251 168.384C255.028 168.384 252.733 166.724 252.733 164.282C252.733 161.841 255.028 160.181 258.251 160.181ZM258.251 162.524C256.762 162.524 255.761 163.135 255.785 164.282C255.761 165.405 256.762 165.991 258.251 165.991C259.74 165.991 260.766 165.405 260.766 164.282C260.766 163.135 259.74 162.524 258.251 162.524ZM269.286 155.029V160.791H272.289V163.33H269.286V168.97H266.161V155.029H269.286ZM269.286 169.897V177.246H266.161V172.388H254.32V169.897H269.286Z" fill="#000543"/>
</svg>
