<svg width="143" height="146" viewBox="0 0 143 146" fill="none" xmlns="http://www.w3.org/2000/svg">
<path d="M97.7751 116.925C97.7751 132.708 82.0717 145.477 62.7201 145.477C43.3684 145.477 27.665 132.708 27.665 116.925V107.884C27.665 92.1009 43.3684 79.332 62.7201 79.332C82.0717 79.332 97.7751 92.1009 97.7751 107.884V116.925Z" fill="url(#paint0_radial_27_73)"/>
<path d="M47.3345 96.3033C47.3345 96.3033 60.8965 92.6551 80.0895 96.3033L81.9136 102.648C81.9136 102.648 63.7516 100.665 45.6689 102.648L47.3345 96.3033Z" fill="url(#paint1_linear_27_73)"/>
<path d="M41.0687 95.9072L39.1653 102.728C39.1653 102.728 37.5791 102.728 34.1687 103.838C34.0894 103.838 33.6136 99.0796 41.0687 95.9072Z" fill="url(#paint2_linear_27_73)"/>
<path d="M110.622 56.1719C110.622 77.9822 92.9356 95.6683 71.1253 95.6683H52.1702C30.36 95.6683 12.6738 77.9822 12.6738 56.1719C12.6738 34.3617 30.36 16.6755 52.1702 16.6755H71.1253C92.9356 16.7548 110.622 34.441 110.622 56.1719Z" fill="url(#paint3_radial_27_73)"/>
<path d="M28.6955 28.0176L29.1713 31.9038C29.1713 31.9038 25.5231 33.0141 23.0645 35.79C23.1438 35.79 22.7472 31.19 28.6955 28.0176Z" fill="url(#paint4_linear_27_73)"/>
<path d="M41.0684 23.1001C41.0684 23.1001 44.9546 20.4828 50.9028 21.038H71.4441C71.4441 21.038 77.7889 21.8311 79.2165 24.2104L41.0684 23.1001Z" fill="url(#paint5_linear_27_73)"/>
<path d="M95.6337 54.586C95.6337 60.8515 90.5579 65.9273 84.2924 65.9273H39.0064C32.7409 65.9273 27.665 60.8515 27.665 54.586C27.665 48.3205 32.7409 43.2446 39.0064 43.2446H84.2924C90.5579 43.2446 95.6337 48.3205 95.6337 54.586Z" fill="url(#paint6_radial_27_73)"/>
<path d="M51.0615 54.905C51.0615 57.3636 49.0788 59.2671 46.6995 59.2671C44.2408 59.2671 42.3374 57.2843 42.3374 54.905C42.3374 52.4464 44.3202 50.543 46.6995 50.543C49.0788 50.543 51.0615 52.5257 51.0615 54.905Z" fill="#27A3FF"/>
<path d="M79.6128 54.905C79.6128 57.3636 77.63 59.2671 75.2507 59.2671C72.7921 59.2671 70.8887 57.2843 70.8887 54.905C70.8887 52.4464 72.8714 50.543 75.2507 50.543C77.63 50.543 79.6128 52.5257 79.6128 54.905Z" fill="#27A3FF"/>
<path d="M62.7186 6.4436H60.7358V16.6746H62.7186V6.4436Z" fill="url(#paint7_linear_27_73)"/>
<path d="M65.178 3.66933C65.178 5.65208 63.5918 7.15897 61.6884 7.15897C59.7056 7.15897 58.1987 5.57277 58.1987 3.66933C58.1987 1.68658 59.7849 0.179688 61.6884 0.179688C63.6711 0.179687 65.178 1.68658 65.178 3.66933Z" fill="#27A3FF"/>
<path d="M109.75 40.1526H112.605C112.605 40.1526 116.253 45.5457 115.777 56.9663C115.777 56.9663 115.936 67.1973 112.763 72.2732H109.829L109.75 40.1526Z" fill="url(#paint8_linear_27_73)"/>
<path d="M107.212 40.1521H110.068C110.068 40.1521 113.716 45.5452 113.24 56.9658C113.24 56.9658 113.399 67.1968 110.226 72.2727H107.292L107.212 40.1521Z" fill="url(#paint9_linear_27_73)"/>
<path d="M13.9439 40.1521H11.0887C11.0887 40.1521 7.44048 45.5452 7.91634 56.9658C7.91634 56.9658 7.75772 67.1968 10.9301 72.2727H13.8646L13.9439 40.1521Z" fill="url(#paint10_linear_27_73)"/>
<path d="M16.4017 40.1526H13.5465C13.5465 40.1526 9.89825 45.5457 10.3741 56.9663C10.3741 56.9663 10.2155 67.1973 13.3879 72.2732H16.3224L16.4017 40.1526Z" fill="url(#paint11_linear_27_73)"/>
<path d="M31.6301 93.7654C28.6956 91.0688 19.575 96.224 11.1681 105.265C2.76124 114.307 -1.68012 123.824 1.25435 126.52C4.18882 129.217 13.3095 124.062 21.7163 115.02C30.0439 105.979 34.4853 96.4619 31.6301 93.7654Z" fill="url(#paint12_linear_27_73)"/>
<path d="M132.116 74.0173C129.895 70.7656 119.823 73.7001 109.592 80.6794C99.3609 87.5793 92.9368 95.9069 95.1574 99.1586C97.3781 102.41 107.45 99.4758 117.681 92.4966C127.833 85.5966 134.337 77.269 132.116 74.0173Z" fill="url(#paint13_linear_27_73)"/>
<path d="M134.415 78.8554C133.939 78.8554 133.384 78.7761 132.908 78.6968C130.925 78.3003 129.339 77.1899 128.308 75.5244C127.356 73.8589 127.118 71.8762 127.673 69.9727C128.229 68.1486 129.497 66.5624 131.163 65.5313C132.829 64.5003 134.732 64.1831 136.635 64.5003L135.842 68.7038C135.049 68.5451 134.097 68.7038 133.384 69.1796C132.591 69.6555 132.035 70.3693 131.798 71.1624C131.56 71.8762 131.639 72.6693 132.035 73.3037C132.432 73.9382 133.066 74.3348 133.78 74.4934C134.653 74.652 135.525 74.4934 136.318 74.0175C137.349 73.383 137.984 72.352 138.063 71.2417L142.346 71.4003C142.266 73.9382 140.839 76.3175 138.539 77.6658C137.191 78.4589 135.763 78.8554 134.415 78.8554Z" fill="url(#paint14_linear_27_73)"/>
<defs>
<radialGradient id="paint0_radial_27_73" cx="0" cy="0" r="1" gradientUnits="userSpaceOnUse" gradientTransform="translate(62.6868 112.376) scale(37.93 30.9016)">
<stop stop-color="#F1F1F5"/>
<stop offset="0.551" stop-color="#E4E2EC"/>
<stop offset="1" stop-color="#CFCFDE"/>
</radialGradient>
<linearGradient id="paint1_linear_27_73" x1="45.7278" y1="98.7179" x2="81.9874" y2="98.7179" gradientUnits="userSpaceOnUse">
<stop stop-color="white"/>
<stop offset="1"/>
</linearGradient>
<linearGradient id="paint2_linear_27_73" x1="34.0839" y1="99.8617" x2="43.6828" y2="99.8617" gradientUnits="userSpaceOnUse">
<stop stop-color="white"/>
<stop offset="1"/>
</linearGradient>
<radialGradient id="paint3_radial_27_73" cx="0" cy="0" r="1" gradientUnits="userSpaceOnUse" gradientTransform="translate(61.6938 56.2013) scale(44.4542 44.4542)">
<stop stop-color="#F1F1F5"/>
<stop offset="0.551" stop-color="#E4E2EC"/>
<stop offset="1" stop-color="#CFCFDE"/>
</radialGradient>
<linearGradient id="paint4_linear_27_73" x1="23.145" y1="31.9242" x2="31.5371" y2="31.9242" gradientUnits="userSpaceOnUse">
<stop stop-color="white"/>
<stop offset="1"/>
</linearGradient>
<linearGradient id="paint5_linear_27_73" x1="41.0538" y1="22.6049" x2="93.5883" y2="22.6049" gradientUnits="userSpaceOnUse">
<stop stop-color="white"/>
<stop offset="1"/>
</linearGradient>
<radialGradient id="paint6_radial_27_73" cx="0" cy="0" r="1" gradientUnits="userSpaceOnUse" gradientTransform="translate(61.6954 54.5879) scale(25.2974 23.5063)">
<stop stop-color="#3E3C44"/>
<stop offset="0.551" stop-color="#242327"/>
<stop offset="1" stop-color="#040100"/>
</radialGradient>
<linearGradient id="paint7_linear_27_73" x1="60.7017" y1="11.6072" x2="62.6845" y2="11.6072" gradientUnits="userSpaceOnUse">
<stop stop-color="#F1F1F5"/>
<stop offset="0.551" stop-color="#E4E2EC"/>
<stop offset="1" stop-color="#CFCFDE"/>
</linearGradient>
<linearGradient id="paint8_linear_27_73" x1="112.767" y1="40.8148" x2="112.767" y2="71.0605" gradientUnits="userSpaceOnUse">
<stop stop-color="#F1F1F5"/>
<stop offset="0.5153" stop-color="#D5CFD9"/>
<stop offset="1" stop-color="#BBBBCA"/>
</linearGradient>
<linearGradient id="paint9_linear_27_73" x1="110.275" y1="40.2895" x2="110.275" y2="73.0767" gradientUnits="userSpaceOnUse">
<stop stop-color="#9DA1AF"/>
<stop offset="0.1378" stop-color="#ACB1C5"/>
<stop offset="0.2347" stop-color="#D7DBE7"/>
<stop offset="0.4133" stop-color="#9399B0"/>
<stop offset="0.6318" stop-color="#686D84"/>
<stop offset="1" stop-color="#41434F"/>
</linearGradient>
<linearGradient id="paint10_linear_27_73" x1="10.8803" y1="40.8143" x2="10.8803" y2="71.06" gradientUnits="userSpaceOnUse">
<stop stop-color="#F1F1F5"/>
<stop offset="0.5153" stop-color="#D5CFD9"/>
<stop offset="1" stop-color="#BBBBCA"/>
</linearGradient>
<linearGradient id="paint11_linear_27_73" x1="13.3723" y1="40.29" x2="13.3723" y2="73.0772" gradientUnits="userSpaceOnUse">
<stop stop-color="#9DA1AF"/>
<stop offset="0.1378" stop-color="#ACB1C5"/>
<stop offset="0.2347" stop-color="#D7DBE7"/>
<stop offset="0.4133" stop-color="#9399B0"/>
<stop offset="0.6318" stop-color="#686D84"/>
<stop offset="1" stop-color="#41434F"/>
</linearGradient>
<linearGradient id="paint12_linear_27_73" x1="11.463" y1="106.023" x2="21.6541" y2="114.509" gradientUnits="userSpaceOnUse">
<stop stop-color="#F1F1F5"/>
<stop offset="0.551" stop-color="#E4E2EC"/>
<stop offset="1" stop-color="#CFCFDE"/>
</linearGradient>
<linearGradient id="paint13_linear_27_73" x1="109.735" y1="81.4703" x2="117.773" y2="92.0178" gradientUnits="userSpaceOnUse">
<stop stop-color="#F1F1F5"/>
<stop offset="0.551" stop-color="#E4E2EC"/>
<stop offset="1" stop-color="#CFCFDE"/>
</linearGradient>
<linearGradient id="paint14_linear_27_73" x1="134.88" y1="71.438" x2="138.206" y2="59.9375" gradientUnits="userSpaceOnUse">
<stop stop-color="#9DA1AF"/>
<stop offset="0.2347" stop-color="#CFD1E3"/>
<stop offset="0.6318" stop-color="#686D84"/>
<stop offset="1" stop-color="#41434F"/>
</linearGradient>
</defs>
</svg>
