<svg width="44" height="54" viewBox="0 0 44 54" fill="none" xmlns="http://www.w3.org/2000/svg">
<g filter="url(#filter0_d_493_21)">
<path d="M23.5755 37.6295L20.5836 41.7627L15.913 48.2182C15.3141 48.708 14.4475 48.9159 13.5647 48.7084C12.4553 48.446 11.658 47.6058 11.5114 46.6556L12.1585 38.6533L12.5712 33.566L23.5728 37.6296L23.5755 37.6295Z" fill="#F2F2F2"/>
<path d="M23.5775 37.6275L20.584 41.7636C19.1842 41.4489 17.7321 41.0237 16.2702 40.4831C14.8075 39.9434 13.4274 39.3237 12.1587 38.6533L12.5713 33.5641L23.5775 37.6275Z" fill="black"/>
<path d="M34.8103 36.3117C33.4199 40.0789 25.5945 40.6597 17.3322 37.6094C9.06986 34.559 3.49914 29.0328 4.88951 25.2657C6.27988 21.4985 14.1053 20.9176 22.3676 23.968C30.63 27.0193 36.2007 32.5455 34.8103 36.3117Z" fill="#F7CA55"/>
<path d="M39.0284 12.3842C38.1178 10.2524 35.7137 7.20272 29.415 4.87669C23.1163 2.55157 19.3074 3.30725 17.2303 4.33648C15.9576 4.96655 15.1429 6.25102 15.0949 7.66972C14.9626 11.6248 14.6392 21.2573 14.5043 25.0071C14.4419 26.7443 16.3439 29.0962 19.9787 30.4379C23.6146 31.7804 26.5887 31.2282 27.6696 29.8668C30.0036 26.9276 36.0167 19.3965 38.4861 16.3041C39.3712 15.1968 39.5862 13.6899 39.0284 12.3842Z" fill="#F7CA55"/>
<path d="M14.5037 25.0087C14.4413 26.7459 16.3432 29.0979 19.9781 30.4395C23.6139 31.782 26.588 31.2299 27.669 29.8685" stroke="black" stroke-opacity="0.2" stroke-miterlimit="10" stroke-linecap="round" stroke-linejoin="round"/>
<path d="M15.7266 8.30284C16.9363 10.8271 20.654 13.6445 25.5132 15.4388C30.3696 17.2314 34.9204 17.3033 37.5452 16.3577" stroke="black" stroke-opacity="0.2" stroke-miterlimit="10" stroke-linecap="round" stroke-linejoin="round"/>
</g>
<defs>
<filter id="filter0_d_493_21" x="0.676758" y="0.347656" width="42.6582" height="53.4404" filterUnits="userSpaceOnUse" color-interpolation-filters="sRGB">
<feFlood flood-opacity="0" result="BackgroundImageFix"/>
<feColorMatrix in="SourceAlpha" type="matrix" values="0 0 0 0 0 0 0 0 0 0 0 0 0 0 0 0 0 0 127 0" result="hardAlpha"/>
<feOffset dy="1"/>
<feGaussianBlur stdDeviation="2"/>
<feComposite in2="hardAlpha" operator="out"/>
<feColorMatrix type="matrix" values="0 0 0 0 0 0 0 0 0 0 0 0 0 0 0 0 0 0 0.16 0"/>
<feBlend mode="normal" in2="BackgroundImageFix" result="effect1_dropShadow_493_21"/>
<feBlend mode="normal" in="SourceGraphic" in2="effect1_dropShadow_493_21" result="shape"/>
</filter>
</defs>
</svg>
