<svg width="230" height="198" viewBox="0 0 230 198" fill="none" xmlns="http://www.w3.org/2000/svg">
<g clip-path="url(#clip0_509_1482)">
<path d="M199.225 196.026L7.175 169.036C3.65544 168.541 1.17719 165.252 1.67183 161.733L23.2216 8.39818C23.8652 3.8185 28.1212 0.611355 32.7009 1.25499L220.934 27.7094C225.514 28.3531 228.721 32.6091 228.077 37.1888L206.528 190.523C206.027 194.085 202.787 196.527 199.225 196.026Z" fill="#350C06"/>
<path d="M198.245 188.84L10.1818 162.41C9.20654 162.272 8.51409 161.354 8.65116 160.378L28.0674 22.2246L219.693 49.1558L200.277 187.309C200.134 188.327 199.221 188.977 198.245 188.84Z" fill="#FFF8EC"/>
<path d="M32.4111 15.3114C34.2378 15.5681 35.9267 14.2954 36.1834 12.4687C36.4402 10.642 35.1675 8.95302 33.3407 8.69629C31.514 8.43956 29.8251 9.71228 29.5684 11.539C29.3116 13.3657 30.5844 15.0547 32.4111 15.3114Z" fill="#FF6A54"/>
<path d="M43.9452 16.9325C45.7719 17.1892 47.4609 15.9165 47.7176 14.0898C47.9744 12.2631 46.7016 10.5741 44.8749 10.3174C43.0482 10.0607 41.3593 11.3334 41.1025 13.1601C40.8458 14.9868 42.1185 16.6757 43.9452 16.9325Z" fill="#FFD606"/>
<path d="M55.5214 18.5594C57.3481 18.8162 59.0371 17.5434 59.2938 15.7167C59.5505 13.89 58.2778 12.2011 56.4511 11.9443C54.6244 11.6876 52.9354 12.9603 52.6787 14.787C52.422 16.6137 53.6947 18.3027 55.5214 18.5594Z" fill="#00A443"/>
<path d="M58.4603 48.4206L33.8658 44.9641C32.6784 44.7972 31.7978 43.6789 31.9706 42.4491L33.4665 31.8056C33.6333 30.6183 34.7517 29.7377 35.9814 29.9105L60.576 33.367C61.7633 33.5339 62.6439 34.6522 62.4711 35.882L60.9693 46.5679C60.8024 47.7552 59.69 48.5934 58.4603 48.4206Z" fill="#FF6A54"/>
<path d="M59.0274 39.4625L69.6505 34.6422L67.5348 49.6958L58.6102 42.4308L59.0274 39.4625Z" fill="#FF6A54"/>
<path d="M38.2166 38.0084C38.1212 38.6868 37.4984 39.1182 36.8624 39.0288C36.2263 38.9394 35.7525 38.3107 35.8419 37.6746C35.9373 36.9962 36.56 36.5648 37.1961 36.6542C37.8322 36.7436 38.306 37.3723 38.2166 38.0084Z" fill="white"/>
<path d="M41.0254 34.9434L40.1017 41.516L43.8757 42.0464L44.0842 40.5623L41.752 40.2345L42.5095 35.1519L41.0254 34.9434Z" fill="white"/>
<path d="M45.5625 35.582L44.6388 42.1547L45.8261 42.3216L47.0043 35.7847L45.5625 35.582Z" fill="white"/>
<path d="M47.8105 35.8965L48.0867 42.854L49.6193 43.0262L52.5174 36.558L50.8213 36.3196L49.2328 40.853L49.2947 36.1051L47.8105 35.8965Z" fill="white"/>
<path d="M56.2422 37.1255L53.2739 36.7083L51.7751 43.3732L55.5491 43.9036L55.8053 42.0802L53.8673 42.024L54.0402 40.7943L55.6939 41.0267L55.8296 39.4458L54.2666 39.1829L54.3739 38.4196L56.2821 38.6878L56.2422 37.1255Z" fill="white"/>
<path d="M139.819 128.902L106.75 120.761L116.637 80.7114C118.875 71.5992 128.13 66.0093 137.242 68.247C146.354 70.4846 151.944 79.74 149.707 88.8522L139.819 128.902Z" fill="black"/>
<path d="M90.28 60.2119C90.28 60.2119 93.984 59.3926 96.2123 60.902C98.4406 62.4115 86.3416 72.9132 84.0175 73.4479C81.6999 73.9357 69.5578 68.4011 69.3442 65.835C69.1307 63.2688 71.7912 42.6359 74.4732 43.3C77.1619 43.9171 76.4781 46.7399 76.4781 46.7399C76.4781 46.7399 77.3854 41.9866 78.2394 40.3361C79.0934 38.6856 83.8716 38.7351 81.6755 45.5085C81.6755 45.5085 83.9368 37.9308 87.6198 39.6447C90.4507 40.9517 86.976 48.311 86.976 48.311C86.976 48.311 90.003 44.4776 91.9358 45.7063C93.9625 46.9482 92.7911 50.516 90.28 60.2119Z" fill="#FFC59B"/>
<path d="M155.402 182.82L79.2899 172.123L87.118 116.424C88.4634 106.851 97.93 102.822 107.503 104.168L141.892 106.321C157.8 108.557 163.863 122.616 161.627 138.523L155.402 182.82Z" fill="#1D74BC"/>
<path d="M153.376 111.093C153.376 111.093 172.554 125.464 170.787 153.017C169.207 177.2 125.281 171.744 125.281 171.744L153.376 111.093Z" fill="#1D74BC"/>
<path d="M137.144 157.812L116.322 157.182L110.268 141.354C109.776 140.089 110.825 138.753 112.186 138.944L129.83 141.424C130.486 141.516 131.044 141.977 131.246 142.58L137.144 157.812Z" fill="#1B2E35"/>
<path d="M133.499 148.687C134.018 150.1 133.124 152.032 126.866 152.3C120.56 152.563 117.393 150.586 114.821 151.182C112.249 151.777 111.912 156.898 120.328 159.66C128.798 162.382 135.142 161.168 140.29 158.924C145.392 156.675 145.304 147.427 139.722 144.585C139.722 144.585 137.95 143.57 133.816 143.707C132.998 143.736 132.436 143.992 132.055 144.321L133.499 148.687Z" fill="#FFC59B"/>
<path d="M126.249 114.123C121.697 113.483 118.511 109.255 119.151 104.704L121.037 91.2832L137.602 93.6112L135.715 107.032C135.029 111.577 130.801 114.763 126.249 114.123Z" fill="#FFC59B"/>
<path d="M125.549 104.456C117.936 101.424 114.33 92.3515 117.588 84.1483L119.387 79.5203C121.013 75.4422 125.378 73.328 129.234 74.8271L143.38 80.404C147.056 81.8298 148.741 86.1818 147.182 90.1258L145.243 95.0691C141.985 103.272 133.168 107.44 125.549 104.456Z" fill="#FFC59B"/>
<path d="M118.635 81.472C120.338 81.9506 123.865 82.7333 128.085 81.9866C131.769 81.3081 134.332 79.7543 135.664 78.7929C136.13 80.5812 137.23 83.6546 139.837 86.8921C142.122 89.7015 144.652 91.4449 146.29 92.3927L148.002 88.0397C150.747 81.1042 146.762 73.0314 139.149 69.9995C131.536 66.9677 123.093 70.1834 120.347 77.1189L118.635 81.472Z" fill="black"/>
<path d="M120.215 86.5752C119.388 88.7081 116.542 89.5522 113.913 88.5128C111.284 87.4733 109.777 84.9168 110.65 82.7905C111.476 80.6576 114.322 79.8135 116.951 80.8529C119.581 81.8924 121.041 84.4423 120.215 86.5752Z" fill="#FFC59B"/>
<path d="M151.229 98.7812C150.403 100.914 147.557 101.758 144.928 100.719C142.298 99.6794 140.791 97.1229 141.664 94.9966C142.491 92.8637 145.337 92.0195 147.966 93.059C150.548 94.0918 152.049 96.6952 151.229 98.7812Z" fill="#FFC59B"/>
<path d="M131.432 86.0936C131.432 86.0936 131.065 89.3915 128.974 92.3516L132.059 93.5508" stroke="black" stroke-miterlimit="10"/>
<path d="M126.913 87.9463C126.619 88.6707 126.024 89.1613 125.615 89.0081C125.206 88.8548 125.07 88.118 125.37 87.3467C125.67 86.5753 126.258 86.1317 126.668 86.2849C127.124 86.4447 127.212 87.1749 126.913 87.9463Z" fill="black"/>
<path d="M134.762 91.682C134.916 91.6079 136.187 90.7338 137.388 91.3812C137.744 91.5747 137.992 91.8489 138.153 92.063" stroke="black" stroke-miterlimit="10"/>
<path d="M127.991 99.343C125.677 98.4436 124.566 95.799 125.458 93.5319L125.545 93.257L133.936 96.5417L133.849 96.8167C132.903 99.1241 130.305 100.242 127.991 99.343Z" fill="white"/>
<path d="M65.6811 63.9801C65.6811 63.9801 81.2383 68.3677 93.5737 70.4841C93.5737 70.4841 86.5362 93.6601 83.8425 102.613C83.8425 102.613 107.006 103.954 111.436 104.433C115.867 104.912 98.4701 134.384 98.4701 134.384C98.4701 134.384 60.9798 133.183 52.9488 129.039C44.9178 124.896 51.6519 86.1734 65.6811 63.9801Z" fill="#1D74BC"/>
<path d="M67.8943 76.1591C72.446 76.7988 73.4352 69.7601 68.8835 69.1204C64.3318 68.4807 63.3426 75.5194 67.8943 76.1591Z" fill="#41A4F7"/>
<path d="M80.8269 91.039C85.3786 91.6787 86.3678 84.64 81.8161 84.0003C77.2644 83.3606 76.2752 90.3993 80.8269 91.039Z" fill="#41A4F7"/>
<path d="M60.3991 98.5047C64.9508 99.1444 65.94 92.1057 61.3883 91.466C56.8836 90.8329 55.8943 97.8716 60.3991 98.5047Z" fill="#41A4F7"/>
<path d="M74.6042 118.973C79.1559 119.612 80.1452 112.574 75.5935 111.934C71.0418 111.294 70.0525 118.333 74.6042 118.973Z" fill="#41A4F7"/>
<path d="M56.7722 127.711C61.3239 128.351 62.3131 121.312 57.7614 120.672C53.2097 120.032 52.2205 127.071 56.7722 127.711Z" fill="#41A4F7"/>
<path d="M99.2478 113.869C103.799 114.509 104.789 107.47 100.237 106.83C95.7322 106.197 94.743 113.236 99.2478 113.869Z" fill="#41A4F7"/>
<path d="M93.8923 137.33C98.444 137.97 99.4332 130.931 94.8815 130.292C90.3768 129.659 89.3406 136.691 93.8923 137.33Z" fill="#41A4F7"/>
<path d="M113.41 126.483C117.962 127.123 118.951 120.084 114.399 119.445C109.847 118.805 108.858 125.844 113.41 126.483Z" fill="#41A4F7"/>
<path d="M142.078 117.593C146.63 118.232 147.619 111.194 143.067 110.554C138.515 109.914 137.526 116.953 142.078 117.593Z" fill="#41A4F7"/>
<path d="M136.66 134.009C136.673 133.915 136.68 133.868 136.693 133.774C136.818 132.883 136.575 131.891 136.01 131.142C135.728 130.767 135.385 130.48 134.989 130.233C134.6 129.939 134.144 129.779 133.668 129.76C132.77 129.682 131.745 129.825 131.036 130.443C130.327 131.061 129.786 131.846 129.654 132.785C129.641 132.879 129.634 132.926 129.621 133.02C129.496 133.911 129.739 134.902 130.304 135.652C130.586 136.026 130.929 136.314 131.325 136.561C131.714 136.855 132.17 137.015 132.646 137.034C133.544 137.112 134.569 136.969 135.278 136.351C135.987 135.733 136.528 134.947 136.66 134.009Z" fill="#41A4F7"/>
<path d="M157.188 134.693C161.74 135.333 162.729 128.294 158.177 127.655C153.626 127.015 152.637 134.054 157.188 134.693Z" fill="#41A4F7"/>
<path d="M154.868 157.673C159.42 158.312 160.409 151.274 155.857 150.634C151.305 149.994 150.316 157.033 154.868 157.673Z" fill="#41A4F7"/>
<path d="M127.298 172.03C131.849 172.669 132.839 165.631 128.287 164.991C123.782 164.358 122.746 171.39 127.298 172.03Z" fill="#41A4F7"/>
<path d="M104.112 157.906C108.664 158.546 109.653 151.507 105.101 150.867C100.596 150.234 99.6072 157.273 104.112 157.906Z" fill="#41A4F7"/>
<path d="M85.6941 165.368C90.2458 166.008 91.235 158.969 86.6833 158.329C82.1316 157.69 81.1424 164.728 85.6941 165.368Z" fill="#41A4F7"/>
<path d="M85.8221 127.678C85.2709 129.897 84.7733 132.076 84.2221 134.296C84.1224 134.665 84.7324 134.75 84.8321 134.382C85.3833 132.162 85.8809 129.983 86.4321 127.764C86.4849 127.388 85.9218 127.309 85.8221 127.678Z" fill="black"/>
<path d="M83.4047 101.976C82.3277 102.83 81.1635 103.623 79.9252 104.263C79.6107 104.458 79.8197 105.013 80.1342 104.818C81.426 104.138 82.6372 103.352 83.7207 102.451C84.0419 102.209 83.6789 101.728 83.4047 101.976Z" fill="black"/>
<path d="M141.421 144.057C147.718 143.172 153.946 144.143 159.675 146.958C160.031 147.151 160.258 146.561 159.895 146.414C154.079 143.539 147.757 142.555 141.359 143.474C140.971 143.515 141.032 144.098 141.421 144.057Z" fill="black"/>
<path d="M145.239 125.74C145.42 131.603 145.46 137.447 145.353 143.317C145.347 143.699 145.91 143.779 145.963 143.403C146.077 137.486 145.996 131.589 145.822 125.678C145.828 125.296 145.245 125.358 145.239 125.74Z" fill="black"/>
<path d="M137.039 162.295C139.695 163.482 142.458 164.253 145.387 164.521C145.763 164.574 145.848 163.964 145.473 163.911C142.638 163.656 139.915 162.938 137.306 161.758C136.944 161.611 136.724 162.155 137.039 162.295Z" fill="black"/>
<path d="M89.9913 60.2188C88.6393 60.9858 87.415 61.8665 86.305 62.9546C86.0308 63.2032 86.5008 63.6042 86.7816 63.3087C87.7845 62.3012 88.962 61.4139 90.2069 60.7276C90.5617 60.586 90.3527 60.0303 89.9913 60.2188Z" fill="black"/>
<path d="M76.0407 58.0184C79.9603 57.7079 83.7407 58.0478 87.516 59.1047C87.8848 59.2044 88.1047 58.6611 87.7359 58.5614C83.8733 57.4444 79.9522 57.0847 75.9322 57.4289C75.5971 57.4297 75.7056 58.0191 76.0407 58.0184Z" fill="black"/>
<path d="M77.422 46.4889C77.1275 49.6058 76.8865 52.6822 76.5921 55.7991C76.5393 56.1744 77.1493 56.2602 77.2021 55.8848C77.4966 52.768 77.7375 49.6915 78.032 46.5747C78.0378 46.1927 77.4278 46.1069 77.422 46.4889Z" fill="black"/>
<path d="M81.644 49.8108C81.4198 51.4063 81.296 52.968 81.2126 54.5832C81.2067 54.9652 81.7698 55.0443 81.8226 54.6689C81.8591 53.0471 82.0298 51.492 82.254 49.8966C82.3068 49.5212 81.6968 49.4354 81.644 49.8108Z" fill="black"/>
<path d="M86.5582 50.2623C86.054 52.4883 85.7308 54.7876 85.602 57.0663C85.5962 57.4483 86.1592 57.5275 86.212 57.1521C86.3878 54.8799 86.7109 52.5806 87.1683 50.348C87.221 49.9726 86.6579 49.8935 86.5582 50.2623Z" fill="black"/>
<path d="M114.628 152.542C117.197 153.669 119.873 154.38 122.708 154.635C123.084 154.687 123.169 154.077 122.794 154.025C120.053 153.783 117.417 153.125 114.902 151.958C114.533 151.859 114.266 152.395 114.628 152.542Z" fill="black"/>
<path d="M115.065 155.234C117.989 156.219 120.918 156.823 123.995 157.064C124.377 157.069 124.456 156.506 124.081 156.454C121.091 156.273 118.162 155.67 115.331 154.698C114.963 154.598 114.696 155.135 115.065 155.234Z" fill="black"/>
<path d="M119.99 158.654C121.465 159.052 122.98 159.17 124.534 159.005C124.923 158.964 124.861 158.381 124.472 158.422C122.972 158.546 121.551 158.442 120.122 158.05C119.7 157.991 119.621 158.554 119.99 158.654Z" fill="black"/>
<path d="M120.84 102.213C124.358 105.1 128.75 106.196 133.231 105.295C133.626 105.207 133.518 104.617 133.17 104.712C128.842 105.539 124.632 104.517 121.241 101.743C120.939 101.51 120.538 101.98 120.84 102.213Z" fill="black"/>
<path d="M119.389 79.5195C119.389 79.5195 130.686 78.4753 136.746 73.4891" stroke="white" stroke-width="0.5" stroke-miterlimit="10" stroke-linecap="round" stroke-linejoin="round"/>
<path d="M122.763 74.9216C122.763 74.9216 128.926 70.9068 136.437 70.5748" stroke="white" stroke-width="0.5" stroke-miterlimit="10" stroke-linecap="round" stroke-linejoin="round"/>
<path d="M139.374 77.2559C139.374 77.2559 142.562 88.2791 146.744 91.2115" stroke="white" stroke-width="0.5" stroke-miterlimit="10" stroke-linecap="round" stroke-linejoin="round"/>
<path d="M143.365 81.8848C143.365 81.8848 144.855 85.9223 147.95 88.0798" stroke="white" stroke-width="0.5" stroke-miterlimit="10" stroke-linecap="round" stroke-linejoin="round"/>
<path d="M142.593 75.125C142.593 75.125 147.56 78.5984 148.497 84.1853" stroke="white" stroke-width="0.5" stroke-miterlimit="10" stroke-linecap="round" stroke-linejoin="round"/>
<path d="M124.75 91.4225C124.519 93.0649 122.786 94.1612 120.862 93.8908C118.938 93.6204 117.574 92.0889 117.805 90.4465C118.036 88.8041 119.769 87.7079 121.693 87.9783C123.617 88.2486 124.981 89.7802 124.75 91.4225Z" fill="#FF8181"/>
<path d="M141.96 97.3346C141.729 98.977 139.996 100.073 138.072 99.8029C136.148 99.5325 134.784 98.001 135.015 96.3586C135.246 94.7162 136.979 93.62 138.903 93.8904C140.827 94.1607 142.191 95.6923 141.96 97.3346Z" fill="#FF8181"/>
</g>
<defs>
<clipPath id="clip0_509_1482">
<rect width="207.254" height="170" fill="white" transform="translate(24.3896 0.0869141) rotate(8)"/>
</clipPath>
</defs>
</svg>
