<svg width="25" height="24" viewBox="0 0 25 24" fill="none" xmlns="http://www.w3.org/2000/svg">
<path d="M4 5.20703V5.31653C4 5.27893 4.00848 5.2439 4.01069 5.20703H4Z" fill="white" stroke="#333333" stroke-width="1.5" stroke-linecap="round" stroke-linejoin="round"/>
<path d="M17.9863 5.31913C17.9863 5.28152 17.9948 5.2465 17.997 5.20963C18.0423 4.25469 18.6629 3.45682 19.5186 3.1449V3H6.31839C5.07476 3 4.06895 3.98075 4.01069 5.20963C4.00848 5.2465 4 5.28152 4 5.31913C4 6.6 5.03826 7.63826 6.31876 7.63826H19.519V7.49189C18.6271 7.16891 17.9863 6.32237 17.9863 5.31913Z" fill="white" stroke="#333333" stroke-width="1.5" stroke-linecap="round" stroke-linejoin="round"/>
<path d="M6.31876 7.63749C5.03826 7.63749 4 6.59923 4 5.31836V18.6049H4.00774C4.007 18.631 4 18.655 4 18.6804C4 19.9613 5.03826 20.9996 6.31876 20.9996H19.519V7.63749H6.31876Z" fill="#F8CE00" stroke="#333333" stroke-width="1.5" stroke-linecap="round" stroke-linejoin="round"/>
<path d="M11.6087 13.3127L9.5698 11.9227L7.53125 13.3127V10.487V7.66016H9.5698H11.6087V10.487V13.3127Z" fill="white" stroke="#333333" stroke-width="1.5" stroke-linecap="round" stroke-linejoin="round"/>
<path d="M17.8063 5.26953H11.6611" stroke="#333333" stroke-width="1.5" stroke-linecap="round" stroke-linejoin="round"/>
</svg>
