<svg width="126" height="100" viewBox="0 0 126 100" fill="none" xmlns="http://www.w3.org/2000/svg">
<path d="M122.766 72.763C103.013 84.1139 80.1009 87.5309 59.6692 97.384C57.282 98.5308 59.0841 100.192 59.8331 99.9818C81.5754 93.5223 105.05 87.6948 124.826 76.3204C127.119 75.0098 125.06 71.429 122.743 72.763H122.766Z" fill="#DDB94A"/>
<path d="M121.058 70.68C101.305 82.0309 78.3926 85.4479 57.9609 95.3009C55.5737 96.4477 57.6566 100.005 60.0438 98.8583C80.4755 89.0052 103.365 85.6117 123.141 74.2374C125.435 72.9267 123.375 69.346 121.058 70.68Z" fill="#E6E6E7"/>
<path d="M17.4955 41.0975L12.9551 40.7932C12.9551 40.7932 7.89987 43.4847 8.92964 48.9846C9.95942 54.4845 58.0078 98.7415 58.0078 98.7415C58.0078 98.7415 56.744 97.267 62.1737 93.1947C67.6034 89.1225 17.5189 41.0975 17.5189 41.0975H17.4955Z" fill="#C59F42"/>
<path d="M12.955 40.8166L62.1735 93.2181L125.856 71.0311L75.5372 18.4424L12.955 40.8166Z" fill="#DDB94A"/>
<path d="M118.881 37.1421C109.356 50.459 91.2176 58.7908 74.6476 76.2034C72.4476 78.5204 75.1156 80.1118 75.888 79.5501C95.1962 65.0631 112.609 53.5483 121.924 39.857C122.883 38.4294 119.911 35.7613 118.904 37.1656L118.881 37.1421Z" fill="#8A89DA"/>
<path d="M116.775 35.6441C107.039 48.7738 88.7601 56.9418 71.9092 74.0501C69.6624 76.3437 73.4305 80.3223 75.607 77.9819C92.1536 60.2885 110.268 51.8396 119.747 38.3121C120.73 36.9079 117.758 34.2633 116.751 35.6441H116.775Z" fill="#E6E6E7"/>
<path d="M11.34 21.9763L5.60597 22.2103C5.60597 22.2103 -0.806701 25.5337 0.948598 31.1741C2.7507 37.0251 73.3137 78.5671 73.3137 78.5671C73.3137 78.5671 71.3009 77.0458 75.6775 70.1417C79.7498 63.729 11.34 21.9763 11.34 21.9763Z" fill="#767BC5"/>
<path d="M5.60626 22.2104L75.7012 70.1417L120.216 35.3166L64.7715 0L5.60626 22.2104Z" fill="#8A89DA"/>
</svg>
