<svg width="83" height="85" viewBox="0 0 83 85" fill="none" xmlns="http://www.w3.org/2000/svg">
<path d="M63.552 46.595C59.3674 46.6776 49.7731 46.8703 49.7593 46.1545C49.7593 45.8655 49.3188 45.8655 49.3188 46.1545C49.2638 46.4023 49.2087 46.6501 49.1536 46.8979C48.9885 47.2145 49.1949 47.5586 49.5391 47.5723C54.1779 47.8476 58.8856 47.7375 63.5383 47.6687C63.7861 48.9489 64.9423 50.0501 66.305 49.9813C66.4289 49.9813 66.5391 49.9813 66.6492 49.9675C68.1771 49.8987 69.4573 48.7424 69.4573 47.1594C69.4573 45.5764 68.1771 44.4201 66.6492 44.3513C66.5253 44.3513 66.4152 44.3513 66.305 44.3375C64.9698 44.2825 63.8273 45.3286 63.552 46.5812V46.595Z" fill="#50637C"/>
<path d="M68.535 56.2029C64.3504 56.2855 54.756 56.4782 54.7422 55.7624C54.7422 55.4734 54.3018 55.4734 54.3018 55.7624C54.2467 56.0102 54.1916 56.258 54.1366 56.5058C53.9714 56.8224 54.1779 57.1665 54.522 57.1802C59.1608 57.4555 63.8686 57.3454 68.5212 57.2766C68.769 58.5568 69.9252 59.658 71.3017 59.5891C71.4119 59.5891 71.5357 59.5892 71.6459 59.5754C73.1738 59.5066 74.454 58.3503 74.454 56.7673C74.454 55.1843 73.1738 54.028 71.6459 53.9592C71.522 53.9592 71.4119 53.9592 71.3017 53.9454C69.9665 53.8904 68.824 54.9365 68.5487 56.1891L68.535 56.2029Z" fill="#50637C"/>
<path d="M75.0182 39.2033C70.049 39.2997 58.6652 39.5337 58.6514 38.6803C58.6514 38.3499 58.1421 38.3499 58.1284 38.6803C58.0595 38.9693 57.9907 39.2722 57.9356 39.5612C57.7429 39.9329 57.9769 40.3321 58.3899 40.3596C63.8822 40.6762 69.4709 40.5523 75.0045 40.4835C75.2935 42.0114 76.6838 43.3053 78.2944 43.2365C78.432 43.2365 78.5696 43.2365 78.7073 43.2228C80.5243 43.1402 82.0385 41.7636 82.0385 39.8916C82.0385 38.0195 80.5105 36.643 78.7073 36.5604C78.5696 36.5604 78.432 36.5604 78.2944 36.5467C76.7114 36.4778 75.3486 37.7305 75.032 39.2171L75.0182 39.2033Z" fill="#50637C"/>
<path d="M69.3332 30.7102C64.3639 30.8065 52.9802 31.0405 52.9664 30.1871C52.9664 29.8567 52.4571 29.8567 52.4433 30.1871C52.3745 30.4762 52.3056 30.779 52.2506 31.0681C52.0579 31.4397 52.2919 31.8389 52.7049 31.8665C58.1972 32.183 63.7858 32.0592 69.3194 31.9903C69.6085 33.5183 70.9988 34.8122 72.6093 34.7434C72.7469 34.7434 72.8846 34.7434 73.0222 34.7296C74.8392 34.647 76.3534 33.2705 76.3534 31.3984C76.3534 29.5264 74.8255 28.1498 73.0222 28.0673C72.8846 28.0673 72.7469 28.0673 72.6093 28.0535C71.0263 27.9847 69.6635 29.2373 69.347 30.7239L69.3332 30.7102Z" fill="#50637C"/>
<path d="M27.7079 73.3131C27.6115 68.4953 27.4051 57.497 28.231 57.4832C28.5613 57.4832 28.5613 56.9876 28.231 56.9739C27.9419 56.9051 27.6666 56.85 27.3775 56.7812C27.0196 56.6022 26.6204 56.8225 26.6066 57.2216C26.29 62.5488 26.414 67.9447 26.469 73.2856C24.9962 73.5747 23.7298 74.8962 23.7986 76.4654C23.7986 76.603 23.7986 76.7269 23.8123 76.8646C23.8949 78.6127 25.2164 80.0856 27.0334 80.0856C28.8504 80.0856 30.1719 78.6127 30.2545 76.8646C30.2545 76.7269 30.2544 76.5893 30.2682 76.4654C30.337 74.9375 29.1257 73.616 27.6941 73.2994L27.7079 73.3131Z" fill="#50637C"/>
<path d="M35.3195 64.8474C35.2369 60.5802 35.058 50.8344 35.7738 50.8206C36.0628 50.8206 36.0628 50.3802 35.7738 50.3802C35.526 50.3251 35.2645 50.27 35.0167 50.215C34.7001 50.0498 34.356 50.2563 34.3284 50.6142C34.0531 55.3219 34.1495 60.1122 34.2046 64.8474C32.8969 65.0951 31.7819 66.279 31.8507 67.6692C31.8507 67.7931 31.8507 67.9032 31.8645 68.0271C31.9333 69.5826 33.1033 70.8765 34.7139 70.8765C36.3244 70.8765 37.4944 69.5826 37.5633 68.0271C37.5633 67.9032 37.5632 67.7931 37.577 67.6692C37.6458 66.3065 36.5721 65.1502 35.292 64.8611L35.3195 64.8474Z" fill="#50637C"/>
<path d="M43.8129 78.2277C43.7165 73.4099 43.51 62.4115 44.3359 62.3978C44.6663 62.3978 44.6663 61.9022 44.3359 61.8885C44.0469 61.8196 43.7716 61.7645 43.4825 61.6957C43.1246 61.5168 42.7254 61.737 42.7117 62.1362C42.3951 67.4633 42.5189 72.8593 42.574 78.2002C41.1011 78.4892 39.8347 79.8107 39.9036 81.3799C39.9036 81.5176 39.9036 81.6415 39.9173 81.7791C39.9999 83.5273 41.3214 85.0002 43.1384 85.0002C44.9554 85.0002 46.2768 83.5273 46.3594 81.7791C46.3594 81.6415 46.3594 81.5038 46.3732 81.3799C46.442 79.852 45.2307 78.5305 43.7991 78.2139L43.8129 78.2277Z" fill="#50637C"/>
<path d="M28.3817 14.5221C28.2853 19.7804 28.0513 31.8111 28.9461 31.8249C29.3039 31.8249 29.3039 32.3755 28.9461 32.3755C28.6295 32.4443 28.3266 32.5132 28.01 32.582C27.6246 32.7885 27.1841 32.5269 27.1566 32.1002C26.8125 26.2913 26.9363 20.386 27.0052 14.5358C25.3946 14.2192 24.0181 12.7739 24.0869 11.0532C24.0869 10.9018 24.087 10.7642 24.1007 10.6128C24.1833 8.69939 25.6424 7.08887 27.6246 7.08887C29.6068 7.08887 31.0659 8.69939 31.1485 10.6128C31.1485 10.7642 31.1485 10.9018 31.1622 11.0532C31.2448 12.7326 29.9096 14.1642 28.3404 14.5083L28.3817 14.5221Z" fill="#50637C"/>
<path d="M37.2194 19.6016C37.123 24.7636 36.9028 36.5741 37.77 36.5878C38.1141 36.5878 38.1141 37.1247 37.77 37.1247C37.4671 37.1935 37.1643 37.2623 36.8615 37.3312C36.476 37.5239 36.0493 37.2899 36.0355 36.8494C35.6914 31.1368 35.8291 25.3417 35.8979 19.6154C34.3149 19.3125 32.9659 17.881 33.0347 16.2016C33.0347 16.064 33.0348 15.9125 33.0485 15.7749C33.1311 13.8891 34.5627 12.3198 36.5036 12.3198C38.4445 12.3198 39.876 13.8891 39.9586 15.7749C39.9586 15.9125 39.9586 16.064 39.9724 16.2016C40.0412 17.8534 38.7473 19.2575 37.2056 19.6016H37.2194Z" fill="#50637C"/>
<path d="M43.2625 7.4332C43.1662 12.6915 42.9322 24.7223 43.8269 24.736C44.1848 24.736 44.1848 25.2866 43.8269 25.2866C43.5103 25.3555 43.2075 25.4243 42.8909 25.4931C42.5055 25.6996 42.065 25.4381 42.0375 25.0113C41.6933 19.2024 41.8172 13.2972 41.886 7.44696C40.2755 7.13036 38.899 5.68502 38.9678 3.96437C38.9678 3.81295 38.9678 3.6753 38.9816 3.52388C39.0642 1.61052 40.5233 0 42.5055 0C44.4877 0 45.9468 1.61052 46.0294 3.52388C46.0294 3.6753 46.0294 3.81295 46.0431 3.96437C46.1257 5.64372 44.7905 7.0753 43.2212 7.41943L43.2625 7.4332Z" fill="#50637C"/>
<path d="M53.0352 19.2988C52.9664 23.1669 52.8012 32.0316 53.4482 32.0454C53.7097 32.0454 53.7097 32.4446 53.4482 32.4446C53.2142 32.4997 52.9939 32.5547 52.7599 32.596C52.4708 32.7474 52.1543 32.5547 52.1405 32.2381C51.879 27.9572 51.9753 23.6074 52.0304 19.2988C50.8466 19.0648 49.8279 18.0049 49.883 16.7385C49.883 16.6284 49.883 16.5183 49.8968 16.4082C49.9656 14.9903 51.0255 13.8203 52.4846 13.8203C53.9437 13.8203 55.0174 15.0041 55.0725 16.4082C55.0725 16.5183 55.0725 16.6284 55.0862 16.7385C55.1413 17.9774 54.164 19.0236 53.0077 19.2851L53.0352 19.2988Z" fill="#50637C"/>
<path d="M15.4564 29.5819C18.994 29.4305 27.088 29.0726 27.1155 29.6782C27.1155 29.9122 27.4871 29.9122 27.4871 29.6782C27.5284 29.4718 27.5697 29.2653 27.611 29.045C27.7349 28.7835 27.5697 28.4944 27.2669 28.4807C23.3438 28.343 19.3795 28.5357 15.4426 28.6734C15.2086 27.5997 14.2038 26.6912 13.0475 26.7738C12.9511 26.7738 12.8547 26.7875 12.7584 26.8013C11.4645 26.8977 10.4183 27.8888 10.4458 29.2377C10.4734 30.573 11.5883 31.5228 12.8823 31.5503C12.9786 31.5503 13.075 31.5503 13.1851 31.5503C14.3138 31.5778 15.2636 30.6556 15.4701 29.5956L15.4564 29.5819Z" fill="#50637C"/>
<path d="M52.7189 70.078C52.6088 66.8019 52.3335 59.3274 52.8979 59.2998C53.1181 59.2998 53.1181 58.9557 52.8979 58.9557C52.7052 58.9144 52.5125 58.8731 52.3198 58.8318C52.072 58.7079 51.8105 58.8731 51.7967 59.1484C51.6453 62.7687 51.7829 66.444 51.8793 70.078C50.8744 70.2845 50.0347 71.2067 50.1036 72.2666C50.1036 72.363 50.1036 72.4456 50.1173 72.5419C50.1862 73.7395 51.1084 74.7168 52.3473 74.7031C53.5862 74.6893 54.4671 73.6707 54.5084 72.4731C54.5084 72.3767 54.5084 72.2942 54.5084 72.1978C54.536 71.1517 53.6963 70.2707 52.7189 70.078Z" fill="#50637C"/>
<path d="M9.05547 57.2078C12.5931 57.0564 20.687 56.6985 20.7146 57.3042C20.7146 57.5382 21.0863 57.5382 21.0863 57.3042C21.1276 57.0977 21.1689 56.8775 21.2101 56.671C21.334 56.4095 21.1689 56.1204 20.866 56.1066C16.9429 55.969 12.9786 56.1617 9.04173 56.2993C8.80772 55.2257 7.80284 54.3172 6.64656 54.3998C6.55021 54.3998 6.45386 54.3997 6.35751 54.4273C5.06358 54.5236 4.01743 55.5147 4.04496 56.8637C4.0725 58.1989 5.18746 59.1487 6.48139 59.1763C6.57774 59.1763 6.6741 59.1763 6.78422 59.1763C7.91297 59.2038 8.86277 58.2815 9.06925 57.2216L9.05547 57.2078Z" fill="#50637C"/>
<path d="M8.50501 37.7993C13.8459 37.5653 26.0556 37.0285 26.0969 37.937C26.1107 38.2949 26.6613 38.2811 26.6613 37.9232C26.7301 37.6066 26.7852 37.29 26.854 36.9734C27.0467 36.5742 26.7852 36.1475 26.3447 36.12C20.4256 35.9135 14.4378 36.1888 8.50501 36.409C8.14712 34.7847 6.63296 33.422 4.89854 33.5321C4.74713 33.5321 4.5957 33.5596 4.45805 33.5596C2.51716 33.6973 0.920425 35.2115 0.961721 37.2212C1.01678 39.2447 2.68233 40.6763 4.62322 40.7175C4.77464 40.7175 4.92608 40.7175 5.0775 40.7175C6.78438 40.7588 8.20219 39.3686 8.51879 37.7718L8.50501 37.7993Z" fill="#50637C"/>
<path d="M16.2275 47.7785C21.183 47.5583 32.5117 47.0627 32.5392 47.9162C32.553 48.2465 33.0623 48.2328 33.0623 47.9162C33.1174 47.6271 33.1862 47.3243 33.2413 47.0352C33.4202 46.6635 33.1724 46.2644 32.7595 46.2506C27.2672 46.0579 21.7198 46.3194 16.2138 46.5259C15.8834 45.0117 14.4794 43.7453 12.8688 43.8692C12.7312 43.8692 12.5935 43.883 12.4558 43.8967C10.6526 44.0206 9.17977 45.4247 9.22106 47.2968C9.26236 49.1688 10.8178 50.4903 12.621 50.5316C12.7587 50.5316 12.8964 50.5316 13.034 50.5316C14.617 50.5591 15.9385 49.2789 16.2275 47.7923V47.7785Z" fill="#50637C"/>
<path d="M22.0499 61.5582C22.5592 62.3703 23.6742 62.5355 24.6378 62.5906C34.4936 63.2376 44.4183 62.8934 54.2054 61.5582C54.7835 61.4756 55.3892 61.3793 55.8434 61.0214C56.4766 60.5121 56.6556 59.6173 56.7657 58.8052C58.156 49.0457 58.5965 39.1623 58.0734 29.3201C58.0459 28.921 58.0321 28.508 57.8394 28.1501C57.5503 27.5857 56.9309 27.2967 56.3527 27.0626C50.3511 24.6537 43.6888 24.7776 37.2191 24.9291C33.0896 25.0254 28.9738 25.1355 24.8442 25.2319C24.3349 25.2319 23.8119 25.2594 23.3714 25.4934C22.3665 26.0027 22.1325 27.3242 22.0362 28.4529C21.1277 38.9695 21.0313 49.555 21.7195 60.0853C21.7471 60.5809 21.7884 61.1039 22.0637 61.5307L22.0499 61.5582Z" fill="#50637C"/>
<path opacity="0.42" d="M54.7558 30.7516C54.7558 30.4212 54.508 30.2148 54.1914 30.1872C44.8173 29.4302 35.4295 28.852 26.0279 28.4528C25.3947 28.4253 25.2983 29.2512 25.7388 29.5265C25.7113 29.5678 25.6837 29.5953 25.6837 29.6366C24.9679 39.4374 24.8853 49.3071 24.5137 59.1216C24.5137 59.3281 24.6926 59.4795 24.8853 59.4933C33.9703 59.92 43.0554 59.7824 52.1266 59.2455C52.3331 59.2455 52.5809 59.0941 52.6222 58.8739C54.3566 49.5961 54.976 40.167 54.742 30.7378L54.7558 30.7516ZM50.7914 58.337C46.2627 58.6399 41.7064 58.7638 37.1639 58.8463C34.8926 58.8876 32.6214 58.8739 30.3501 58.8463C27.9962 58.8188 25.257 59.6034 25.3533 56.4512C25.6424 47.5314 26.193 38.5702 26.1655 29.6504C35.0716 29.9945 43.9639 30.5176 52.8562 31.2059C54.742 31.3573 53.572 58.1443 50.7914 58.337Z" fill="#F1F1F2"/>
<path d="M38.0035 35.7623C37.8521 34.9777 36.7372 35.0878 36.5169 35.7623C34.7825 41.2133 33.2683 46.7194 32.0295 52.3081C31.9193 52.8311 32.6764 53.0376 32.8279 52.5283C33.4886 50.3672 34.1631 48.206 34.8376 46.0449C35.9112 46.2514 36.9849 46.4854 38.0724 46.6643C38.3064 48.5226 38.5266 50.3672 38.7744 52.2255C38.8983 53.2166 40.4262 53.2716 40.3712 52.2255C40.0683 46.7056 39.0772 41.172 38.0173 35.7485L38.0035 35.7623ZM35.1404 45.0813C35.7598 43.0991 36.393 41.1307 37.0262 39.1485C37.3291 41.0344 37.5769 42.9202 37.8246 44.806C36.9299 44.8886 36.0351 44.985 35.1404 45.0676V45.0813Z" fill="#F1F1F2"/>
<path d="M45.7397 51.5642C45.6296 48.2743 45.6434 44.9844 45.5195 41.6945C45.4782 40.4832 45.7948 38.2807 45.2854 36.8354C46.0012 36.5876 45.9737 35.4589 45.2166 35.2799C44.8312 35.1836 44.4183 35.2524 44.0191 35.2662C43.496 35.2799 43.0968 35.7617 43.2344 36.2986C43.3308 36.6565 43.6887 36.8905 44.0466 36.8905C44.0741 36.8905 44.1154 36.8905 44.143 36.8905C44.4045 41.6532 44.4733 46.5399 44.2531 51.3026C43.2757 51.3026 43.2757 52.982 44.3356 52.9682H45.1478C45.9462 52.9544 46.1527 52.0184 45.7397 51.5642Z" fill="#F1F1F2"/>
</svg>
