<svg width="400" height="405" viewBox="0 0 400 405" fill="none" xmlns="http://www.w3.org/2000/svg">
<g clip-path="url(#clip0_1890_136)">
<path opacity="0.1" d="M390.778 348.642C288.629 424.455 5.97192 400.45 5.97192 400.45V12.5898H391.894C391.894 12.5898 410.867 333.741 390.778 348.642Z" fill="black"/>
<path d="M384.806 336.052C282.657 411.865 0 387.86 0 387.86V0H387.88C387.88 0 404.895 321.151 384.806 336.052Z" fill="#98C9D5"/>
<path d="M391.678 0H0.979004V82.1186H391.678V0Z" fill="#CCE5EB"/>
<path d="M107.71 391.463C107.71 391.463 294.033 349.973 325.616 313.339C325.616 313.339 359.332 333.526 384.806 336.071C384.806 336.071 325.733 394.811 107.71 391.483V391.463Z" fill="#CCE5EB"/>
<path d="M168.906 58.8423C163.806 58.8423 160.406 56.0203 160.406 51.8383C160.406 48.3363 162.752 45.7863 166.56 45.0723V42.8623H156.326C154.966 42.8623 154.116 42.0463 154.116 40.8223C154.116 39.5983 154.966 38.7823 156.326 38.7823H181.486C182.846 38.7823 183.696 39.5983 183.696 40.8223C183.696 42.0463 182.846 42.8623 181.486 42.8623H171.15V45.0383C174.958 45.7523 177.406 48.3363 177.406 51.8383C177.406 56.0203 174.006 58.8423 168.906 58.8423ZM158.026 35.5523C158.026 34.7023 158.604 33.9203 159.522 33.7503C161.46 33.3083 162.82 33.0023 163.568 32.7983C165.574 32.2883 166.56 31.6083 166.56 30.6903V30.3843H160.78C159.454 30.3843 158.672 29.6023 158.672 28.3443C158.672 27.0863 159.454 26.3043 160.78 26.3043H177.1C178.426 26.3043 179.208 27.0863 179.208 28.3443C179.208 29.6023 178.426 30.3843 177.1 30.3843H171.15V31.2003C171.15 31.4723 171.15 31.6423 171.116 31.7103C173.7 32.1183 176.624 32.9003 178.698 33.7503C179.48 34.0223 179.854 34.7023 179.854 35.5183C179.854 35.9603 179.752 36.3343 179.548 36.6743C179.208 37.1843 178.698 37.4563 178.018 37.4563C177.61 37.4563 177.202 37.3883 176.794 37.2183C174.21 36.2323 171.456 35.4843 168.498 34.9743C166.628 36.1303 164.044 36.9463 160.678 37.4563L159.998 37.5243C159.046 37.5243 158.434 37.1163 158.162 36.3343C158.06 36.1303 158.026 35.8583 158.026 35.5523ZM164.996 51.8383C164.996 53.6063 166.594 54.7963 168.906 54.7963C171.218 54.7963 172.816 53.6063 172.816 51.8383C172.816 50.0703 171.218 48.8803 168.906 48.8803C166.594 48.8803 164.996 50.0703 164.996 51.8383ZM195.653 45.1063C191.539 45.1063 188.479 42.4543 188.479 38.3743C188.479 37.3203 188.717 36.3003 189.193 35.3483H188.105C186.847 35.3483 185.997 34.5663 185.997 33.3083C185.997 32.0503 186.779 31.2683 188.105 31.2683H203.065C204.391 31.2683 205.173 32.0503 205.173 33.3083C205.173 34.5663 204.323 35.3483 203.065 35.3483H202.079C202.589 36.3343 202.861 37.3543 202.861 38.3743C202.861 42.3863 199.699 45.1063 195.653 45.1063ZM188.649 27.3243C188.649 26.8823 188.751 26.5083 188.955 26.1683C189.329 25.5223 189.975 25.1823 190.655 25.1823C191.029 25.1823 191.335 25.2503 191.641 25.4203L192.117 25.6583C192.389 25.7603 192.763 25.8623 193.205 25.8963C193.511 25.9303 194.225 25.9303 195.347 25.9303H200.243C201.501 25.9303 202.317 26.7463 202.317 27.9703C202.317 29.2283 201.467 30.0103 200.209 30.0103H194.701C192.423 30.0103 191.063 29.8403 189.941 29.1603L189.533 28.9223C188.955 28.5823 188.649 28.0383 188.649 27.3243ZM190.757 49.1863C190.757 47.9283 191.539 47.1463 192.865 47.1463H207.961C209.593 47.1463 210.749 48.3363 210.749 50.0023V55.8843C210.749 57.2443 209.865 58.0603 208.403 58.0603C207.043 58.0603 206.159 57.2443 206.159 55.8843V51.8043C206.159 51.4303 205.921 51.2263 205.615 51.2263H192.865C191.539 51.2263 190.757 50.4443 190.757 49.1863ZM192.899 38.3403C192.899 39.9383 194.055 41.0943 195.687 41.0943C197.217 41.0943 198.441 39.9383 198.441 38.3403C198.441 36.7083 197.319 35.5183 195.687 35.5183C193.953 35.5183 192.899 36.6743 192.899 38.3403ZM206.159 44.2563V27.5283C206.159 26.2703 207.043 25.4883 208.369 25.4883H208.539C209.865 25.4883 210.749 26.2703 210.749 27.5283V33.4783H213.367C214.693 33.4783 215.475 34.2603 215.475 35.5183C215.475 36.7763 214.693 37.5583 213.367 37.5583H210.749V44.2563C210.749 45.5143 209.865 46.2963 208.539 46.2963H208.369C207.043 46.2963 206.159 45.5143 206.159 44.2563ZM218.083 54.6263C216.757 54.6263 215.975 53.8443 215.975 52.5863C215.975 51.3283 216.757 50.5463 218.083 50.5463H222.469V39.6663C222.469 38.3063 223.387 37.4903 224.747 37.4903C226.209 37.4903 227.059 38.3063 227.059 39.6663V50.5463H229.745V39.6663C229.745 38.3063 230.663 37.4903 232.023 37.4903C233.485 37.4903 234.335 38.3063 234.335 39.6663V50.5463H243.447C244.773 50.5463 245.555 51.3283 245.555 52.5863C245.555 53.8443 244.773 54.6263 243.447 54.6263H218.083ZM220.361 28.9223C220.361 27.6643 221.143 26.8823 222.469 26.8823H238.347C239.979 26.8823 241.135 28.0383 241.135 29.7723C241.135 36.6743 240.829 40.1763 239.843 43.4403C239.537 44.3583 238.823 44.8683 237.905 44.8683C237.497 44.8683 237.123 44.8003 236.817 44.6303C236.001 44.2903 235.593 43.6103 235.593 42.6243C235.593 42.3523 235.627 42.0803 235.695 41.8083C236.341 39.0543 236.511 36.1643 236.511 31.3023C236.511 31.0643 236.409 30.9623 236.171 30.9623H222.469C221.143 30.9623 220.361 30.1803 220.361 28.9223Z" fill="black"/>
<path d="M122.959 130H48.3459V234H123.058C127.927 234 132 230.3 132 225.9V138.1C131.901 133.7 127.927 130 122.959 130Z" fill="#AC93A8"/>
<path d="M120.176 131.6H44.073V232.5H120.176C125.144 232.5 129.217 228.9 129.217 224.6V139.5C129.217 135.1 125.144 131.6 120.176 131.6Z" fill="#E2E2E2"/>
<path d="M118.388 131.6H44.073V229.9H118.388C123.256 229.9 127.23 226.4 127.23 222.2V139.3C127.23 135 123.256 131.6 118.388 131.6Z" fill="#EFEFEF"/>
<path d="M114.712 130H40V234H114.712C119.581 234 123.654 230.3 123.654 225.9V138.1C123.555 133.7 119.581 130 114.712 130Z" fill="#EECDE9"/>
<path d="M114.713 130H52.3198C52.3198 130 44.8684 193.4 60.3673 209.1C71.594 220.4 115.905 218.7 115.905 218.7C120.078 218.7 123.456 215.6 123.456 211.8V138.1C123.555 133.7 119.581 130 114.713 130Z" fill="#EECDE9"/>
<path d="M67.2539 156.226C69.0239 156.226 70.5742 156.873 71.6484 157.959H76.6777V155.029H79.7783V168.042H76.6777V165.381H71.624C70.5498 166.455 69.0117 167.102 67.2539 167.09C63.8848 167.114 61.3213 164.795 61.3457 161.67C61.3213 158.496 63.8848 156.226 67.2539 156.226ZM67.2539 158.887C65.5205 158.887 64.2754 159.912 64.2998 161.67C64.2754 163.379 65.5205 164.478 67.2539 164.453C68.9385 164.478 70.1592 163.379 70.1592 161.67C70.1592 159.912 68.9385 158.887 67.2539 158.887ZM72.1855 168.506C76.8975 168.506 79.8271 170.117 79.8516 172.876C79.8271 175.635 76.8975 177.246 72.1855 177.246C67.498 177.246 64.5439 175.635 64.5439 172.876C64.5439 170.117 67.498 168.506 72.1855 168.506ZM72.1855 170.874C69.2314 170.874 67.5957 171.533 67.5957 172.876C67.5957 174.17 69.2314 174.829 72.1855 174.829C75.1885 174.829 76.7998 174.17 76.7998 172.876C76.7998 171.533 75.1885 170.874 72.1855 170.874ZM72.9912 160.425C73.0645 160.815 73.1133 161.243 73.1133 161.67C73.1133 162.097 73.0645 162.5 72.9912 162.891H76.6777V160.425H72.9912ZM87.7871 156.592C90.79 156.592 93.0239 159.07 93.4756 163.062H97.333V155.029H100.409V177.295H97.333V165.552H93.5C93.1704 169.824 90.8877 172.437 87.7871 172.437C84.418 172.437 82.001 169.385 82.0254 164.502C82.001 159.668 84.418 156.592 87.7871 156.592ZM87.7871 159.399C86.127 159.399 84.9795 161.206 85.0039 164.502C84.9795 167.822 86.127 169.604 87.7871 169.604C89.4717 169.604 90.5703 167.822 90.5703 164.502C90.5703 161.206 89.4717 159.399 87.7871 159.399Z" fill="#000543"/>
<path d="M235.959 130H161.346V234H236.058C240.927 234 245 230.3 245 225.9V138.1C244.901 133.7 240.927 130 235.959 130Z" fill="#928B6A"/>
<path d="M233.176 131.6H157.073V232.5H233.176C238.144 232.5 242.217 228.9 242.217 224.6V139.5C242.217 135.1 238.144 131.6 233.176 131.6Z" fill="#E2E2E2"/>
<path d="M231.388 131.6H157.073V229.9H231.388C236.256 229.9 240.23 226.4 240.23 222.2V139.3C240.23 135 236.256 131.6 231.388 131.6Z" fill="#EFEFEF"/>
<path d="M227.712 130H153V234H227.712C232.581 234 236.654 230.3 236.654 225.9V138.1C236.555 133.7 232.581 130 227.712 130Z" fill="#EFE2A6"/>
<path d="M227.713 130H165.32C165.32 130 157.868 193.4 173.367 209.1C184.594 220.4 228.905 218.7 228.905 218.7C233.078 218.7 236.456 215.6 236.456 211.8V138.1C236.555 133.7 232.581 130 227.713 130Z" fill="#EFE2A6"/>
<path d="M185.845 156.763C185.845 159.375 188.506 162.28 193.608 162.915L192.388 165.43C188.506 164.868 185.662 163.074 184.209 160.669C182.744 163.074 179.924 164.868 176.079 165.43L174.834 162.915C179.888 162.28 182.573 159.375 182.573 156.763V155.688H185.845V156.763ZM194.316 167.114V169.653H185.674V177.246H182.598V169.653H174.053V167.114H194.316ZM207.843 157.007V159.473H194.659V157.007H199.713V154.907H202.813V157.007H207.843ZM201.251 160.181C204.474 160.181 206.72 161.841 206.72 164.282C206.72 166.724 204.474 168.384 201.251 168.384C198.028 168.384 195.733 166.724 195.733 164.282C195.733 161.841 198.028 160.181 201.251 160.181ZM201.251 162.524C199.762 162.524 198.761 163.135 198.785 164.282C198.761 165.405 199.762 165.991 201.251 165.991C202.74 165.991 203.766 165.405 203.766 164.282C203.766 163.135 202.74 162.524 201.251 162.524ZM212.286 155.029V160.791H215.289V163.33H212.286V168.97H209.161V155.029H212.286ZM212.286 169.897V177.246H209.161V172.388H197.32V169.897H212.286Z" fill="#000543"/>
<path d="M348.959 130H274.346V234H349.058C353.927 234 358 230.3 358 225.9V138.1C357.901 133.7 353.927 130 348.959 130Z" fill="#869CB0"/>
<path d="M346.176 131.6H270.073V232.5H346.176C351.144 232.5 355.217 228.9 355.217 224.6V139.5C355.217 135.1 351.144 131.6 346.176 131.6Z" fill="#E2E2E2"/>
<path d="M344.388 131.6H270.073V229.9H344.388C349.256 229.9 353.23 226.4 353.23 222.2V139.3C353.23 135 349.256 131.6 344.388 131.6Z" fill="#EFEFEF"/>
<path d="M340.712 130H266V234H340.712C345.581 234 349.654 230.3 349.654 225.9V138.1C349.555 133.7 345.581 130 340.712 130Z" fill="#C1DBF3"/>
<path d="M340.713 130H278.32C278.32 130 270.868 193.4 286.367 209.1C297.594 220.4 341.905 218.7 341.905 218.7C346.078 218.7 349.456 215.6 349.456 211.8V138.1C349.555 133.7 345.581 130 340.713 130Z" fill="#C1DBF3"/>
<path d="M305.778 155.029V168.213H302.678V162.964H299.211V160.449H302.678V155.029H305.778ZM298.186 168.701C302.922 168.726 305.827 170.288 305.852 172.998C305.827 175.684 302.922 177.271 298.186 177.271C293.449 177.271 290.544 175.684 290.544 172.998C290.544 170.288 293.449 168.726 298.186 168.701ZM298.186 171.094C295.231 171.094 293.645 171.704 293.645 172.998C293.645 174.268 295.231 174.902 298.186 174.902C301.14 174.902 302.751 174.268 302.751 172.998C302.751 171.704 301.14 171.094 298.186 171.094ZM299.87 156.372V158.862H295.451C295.524 161.45 297.087 164.062 300.554 165.21L299.016 167.651C296.562 166.858 294.877 165.247 293.913 163.232C292.924 165.503 291.154 167.334 288.518 168.237L286.906 165.771C290.556 164.551 292.192 161.646 292.277 158.862H287.81V156.372H299.87ZM327.996 172.119V174.658H307.659V172.119H316.229V168.018H309.808V156.445H312.933V159.888H322.625V156.445H325.726V168.018H319.329V172.119H327.996ZM312.933 165.527H322.625V162.378H312.933V165.527Z" fill="#000543"/>
</g>
<defs>
<clipPath id="clip0_1890_136">
<rect width="400" height="404.053" fill="white"/>
</clipPath>
</defs>
</svg>
