<svg width="160" height="121" viewBox="0 0 160 121" fill="none" xmlns="http://www.w3.org/2000/svg">
<g clip-path="url(#clip0_19_3636)">
<path d="M104.553 107.36C78.5057 95.5884 74.0644 100.731 52.0079 111.584C28.098 123.355 6.82629 106.208 4.25499 91.4142C-3.09161 49.2214 22.3042 10.6517 52.1915 2.18643C69.3893 -2.68904 102.583 2.03616 104.603 29.6527C105.521 42.2087 99.3767 53.7629 114.02 58.2877C129.181 62.9628 152.623 51.2751 158.734 74.8176C164.795 98.143 128.913 118.38 104.569 107.376L104.553 107.36Z" fill="#F0F8FF"/>
<path d="M50.3382 87.3569C50.3382 87.3569 43.5259 86.5053 45.2457 79.8099C46.9655 73.1145 46.0137 69.6082 40.8377 64.5824C35.645 59.5567 35.6617 55.3157 37.8156 50.6406C39.9695 45.9655 29.8345 40.7394 34.3928 36.6654C41.6893 30.1536 39.0512 26.2298 35.5949 23.0575C31.7046 19.501 30.9198 12.4884 36.9641 13.1062C43.0083 13.7239 46.5814 23.4582 46.5313 27.5656C46.4812 31.673 46.9488 35.5801 53.3937 38.335C59.8387 41.09 61.5251 44.3125 62.1762 49.7891C62.8274 55.2656 61.6253 55.0819 66.8347 62.0111L50.3549 87.3569H50.3382Z" fill="#969924"/>
<path d="M67.4192 83.4331C58.3528 76.2868 41.6894 33.9437 41.5225 33.5263L41.823 33.4094C41.99 33.8268 58.62 76.0865 67.6196 83.1826L67.4192 83.4331Z" fill="#C2C23C"/>
<path d="M49.203 52.5608C48.2012 52.7111 46.9657 52.2269 45.4963 51.1082L45.6967 50.8578C47.3664 52.1434 48.7188 52.5608 49.6705 52.0933C51.2567 51.342 51.3235 48.4367 51.3235 48.4033H51.6408C51.6408 48.5369 51.5573 51.5423 49.8041 52.3772C49.6205 52.4606 49.4201 52.5274 49.203 52.5608Z" fill="#C2C23C"/>
<path d="M45.0121 42.7932C44.0103 42.9434 42.7747 42.4592 41.3054 41.3405L41.5058 41.0901C43.1922 42.3757 44.5279 42.7932 45.4796 42.3423C47.0658 41.591 47.1326 38.669 47.1326 38.6523H47.4498C47.4498 38.7859 47.3664 41.7913 45.6132 42.6429C45.4295 42.7264 45.2292 42.7932 45.0121 42.8265V42.7932Z" fill="#C2C23C"/>
<path d="M42.4574 37.1663C41.4556 37.3166 40.2201 36.8324 38.7507 35.697L38.9511 35.4465C40.6375 36.7322 41.9732 37.1496 42.9249 36.6988C44.5111 35.9474 44.5779 33.0255 44.5779 33.0088H44.8952C44.8952 33.1424 44.8117 36.1478 43.0585 36.9826C42.8748 37.0661 42.6745 37.1329 42.4574 37.1663Z" fill="#C2C23C"/>
<path d="M47.3328 48.1195C46.498 48.2531 45.4628 47.8357 44.2439 46.9007L44.4443 46.6502C45.8301 47.7021 46.9321 48.0527 47.7001 47.6687C48.9858 47.0509 49.0526 44.6633 49.0526 44.6299H49.3698C49.3698 44.7468 49.303 47.2513 47.8337 47.9525C47.6834 48.036 47.4998 48.0861 47.3328 48.1028V48.1195Z" fill="#C2C23C"/>
<path d="M51.4069 57.3694C50.4051 57.5197 49.1695 57.0355 47.7002 55.9001L47.9006 55.6496C49.5702 56.9353 50.9227 57.3527 51.8744 56.9019C53.4606 56.1506 53.5274 53.2286 53.5274 53.2119H53.8446C53.8446 53.3455 53.7611 56.3509 52.008 57.2025C51.8243 57.2859 51.6239 57.3527 51.4069 57.3861V57.3694Z" fill="#C2C23C"/>
<path d="M53.5441 63.1131C52.5423 63.2633 51.3067 62.7791 49.8374 61.6605L50.0378 61.41C51.7241 62.6957 53.0599 63.1131 54.0116 62.6456C55.5978 61.8942 55.6646 58.989 55.6646 58.9556H55.9818C55.9818 59.0891 55.8983 62.0946 54.1452 62.9294C53.9615 63.0129 53.7612 63.0797 53.5441 63.1131Z" fill="#C2C23C"/>
<path d="M55.9317 67.1705C55.2138 67.2873 54.3122 66.92 53.2603 66.1186L53.4606 65.8681C54.6294 66.7697 55.5644 67.0536 56.2323 66.753C57.3343 66.2354 57.3844 64.1817 57.3844 64.165H57.7016C57.7016 64.2652 57.6348 66.4358 56.3659 67.0369C56.2323 67.1037 56.082 67.1538 55.9317 67.1705Z" fill="#C2C23C"/>
<path d="M54.4123 60.7587C54.4123 60.7587 34.9939 59.2727 34.0255 54.1802C33.057 49.0877 36.6635 43.0768 30.3855 37.9676C24.0908 32.8751 21.937 25.9626 18.7145 27.315C14.557 29.0515 17.3286 34.4279 20.6513 39.3701C24.5417 45.1472 22.5213 49.9726 21.1689 52.4938C17.7962 58.8386 25.6437 61.6938 24.6418 70.1424C24.2244 73.5986 29.2502 85.2864 46.5481 80.1437L54.4123 60.7421V60.7587Z" fill="#C2C23C"/>
<path d="M47.6168 80.1104C41.2721 77.4389 25.744 56.067 25.5938 55.8666L25.7607 55.7498C25.911 55.9668 41.4056 77.3053 47.7003 79.9434L47.6168 80.1104Z" fill="#969924"/>
<path d="M32.6897 65.4171C32.1221 65.6509 31.3039 65.5674 30.2854 65.15L30.3689 64.983C31.5377 65.4505 32.3892 65.4839 32.9068 65.0832C33.7583 64.4153 33.4077 62.7623 33.4077 62.7456L33.5914 62.6956C33.5914 62.6956 33.9587 64.4821 33.007 65.2168C32.9068 65.3003 32.7899 65.367 32.673 65.4171H32.6897Z" fill="#969924"/>
<path d="M28.8997 60.5585C28.332 60.7923 27.5139 60.7088 26.4954 60.2913L26.5788 60.1244C27.7476 60.5919 28.5992 60.6253 29.1168 60.2246C29.9683 59.5567 29.6177 57.9037 29.6177 57.887L29.8013 57.8369C29.8013 57.8369 30.1687 59.6235 29.2336 60.3581C29.1335 60.4416 29.0166 60.4917 28.8997 60.5418V60.5585Z" fill="#969924"/>
<path d="M26.6456 57.7533C26.0779 57.9871 25.2597 57.9036 24.2412 57.4862L24.3247 57.3192C25.4935 57.7867 26.345 57.8201 26.8626 57.4194C27.7141 56.7515 27.3635 55.0985 27.3635 55.0818L27.5639 55.0317C27.5639 55.0317 27.9312 56.8183 26.9962 57.553C26.896 57.6364 26.7791 57.7032 26.6622 57.7533H26.6456Z" fill="#969924"/>
<path d="M30.9868 63.2132C30.5026 63.4135 29.8347 63.33 28.9832 62.9961L29.0666 62.8291C30.0351 63.2132 30.7363 63.2465 31.1537 62.9126C31.8383 62.3783 31.5712 61.0092 31.5712 60.9925L31.7548 60.9424C31.7548 60.9424 32.0554 62.4284 31.2706 63.0462C31.1871 63.113 31.087 63.1631 30.9868 63.2132Z" fill="#969924"/>
<path d="M34.6434 67.8214C34.0757 68.0552 33.2575 67.9717 32.239 67.5543L32.3225 67.3873C33.4913 67.8548 34.3428 67.8882 34.8604 67.4875C35.712 66.8196 35.3613 65.1666 35.3613 65.1499L35.5617 65.0999C35.5617 65.0999 35.929 66.8864 34.994 67.6211C34.8938 67.7046 34.7769 67.7713 34.6601 67.8214H34.6434Z" fill="#969924"/>
<path d="M36.6636 70.7267C36.0959 70.9605 35.2778 70.877 34.2593 70.4596L34.3428 70.2926C35.5115 70.7601 36.3631 70.7935 36.8807 70.3928C37.7322 69.7249 37.3816 68.0719 37.3816 68.0552L37.5652 68.0051C37.5652 68.0051 37.9326 69.7917 36.9809 70.5263C36.8807 70.6098 36.7638 70.6766 36.6469 70.7267H36.6636Z" fill="#969924"/>
<path d="M38.6171 72.6635C38.1997 72.8305 37.6153 72.7637 36.8806 72.4798L36.9641 72.3129C37.7822 72.6468 38.3833 72.6635 38.734 72.3963C39.3183 71.9288 39.0846 70.7768 39.0846 70.7601L39.285 70.71C39.285 70.71 39.5521 71.9956 38.8675 72.5299C38.8007 72.58 38.7173 72.6301 38.6171 72.6802V72.6635Z" fill="#969924"/>
<path d="M76.235 120.5C117.823 120.5 151.538 119.087 151.538 117.344C151.538 115.601 117.823 114.188 76.235 114.188C34.6465 114.188 0.932373 115.601 0.932373 117.344C0.932373 119.087 34.6465 120.5 76.235 120.5Z" fill="#D6E6F2"/>
<path d="M20.5512 89.9448H100.829C102.132 89.9448 103.2 91.0134 103.2 92.3158V116.059C103.2 117.361 102.132 118.43 100.829 118.43H20.5512C13.5886 118.43 7.94507 112.786 7.94507 105.823V102.551C7.94507 95.5883 13.5886 89.9448 20.5512 89.9448Z" fill="#6FA3DC"/>
<path d="M20.551 118.43H81.461V103.202H7.92822V105.807C7.92822 112.736 13.6051 118.413 20.5343 118.413L20.551 118.43Z" fill="#6093D1"/>
<path d="M40.5873 102.117V106.274C40.5873 112.97 46.0638 118.446 52.7592 118.446H125.173V116.96H52.9763C46.9821 116.96 42.0733 112.051 42.0733 106.057V102.334C42.0733 96.3397 46.9821 91.4308 52.9763 91.4308H125.157V89.9448H52.7425C46.0471 89.9448 40.5706 95.4214 40.5706 102.117H40.5873Z" fill="#4E83B7"/>
<path d="M42.0732 102.334V106.057C42.0732 112.051 46.9821 116.96 52.9763 116.96H125.157V91.4309H52.9763C46.9821 91.4309 42.0732 96.3398 42.0732 102.334Z" fill="#F4E9FA"/>
<path d="M87.5053 110.816C67.97 110.816 51.6572 103.069 47.7836 92.75C44.3941 94.6033 42.0732 98.2099 42.0732 102.334V106.057C42.0732 112.052 46.9821 116.96 52.9763 116.96H125.157V96.5736C119.129 104.939 104.553 110.833 87.5053 110.833V110.816Z" fill="#D4CAE9"/>
<path d="M32.3725 61.4768H112.651C113.953 61.4768 115.022 62.5454 115.022 63.8478V87.5906C115.022 88.893 113.953 89.9616 112.651 89.9616H32.3725C25.4099 89.9616 19.7664 84.318 19.7664 77.3555V74.0829C19.7664 67.1203 25.4099 61.4768 32.3725 61.4768Z" fill="#B3D0FF"/>
<path d="M32.3725 89.9616H93.2825V74.7341H19.7498V77.3388C19.7498 84.268 25.4267 89.9449 32.3558 89.9449L32.3725 89.9616Z" fill="#94B8ED"/>
<path d="M52.4087 73.6488V77.8063C52.4087 84.5017 57.8852 89.9783 64.5807 89.9783H136.995V88.4923H64.8144C58.8203 88.4923 53.9114 83.5834 53.9114 77.5892V73.8658C53.9114 67.8717 58.8203 62.9628 64.8144 62.9628H136.995V61.4768H64.5807C57.8852 61.4768 52.4087 66.9534 52.4087 73.6488Z" fill="#82AADB"/>
<path d="M53.8948 73.8659V77.5893C53.8948 83.5835 58.8036 88.4923 64.7978 88.4923H136.978V62.9629H64.7978C58.8036 62.9629 53.8948 67.8718 53.8948 73.8659Z" fill="#F4EAFF"/>
<path d="M99.3268 82.3477C79.7915 82.3477 63.4787 74.6004 59.6051 64.2817C56.2156 66.1351 53.8948 69.7416 53.8948 73.8657V77.5891C53.8948 83.5833 58.8036 88.4921 64.7978 88.4921H136.978V68.1053C130.951 76.4704 116.374 82.3644 99.3268 82.3644V82.3477Z" fill="#D4CAE9"/>
<path d="M69.1055 69.5579C69.1055 69.8251 69.3225 70.0588 69.6064 70.0588H136.995V69.0737H69.6064C69.3392 69.0737 69.1055 69.2908 69.1055 69.5746V69.5579Z" fill="#BEB4D6"/>
<path d="M69.1055 73.9993C69.1055 74.2665 69.3225 74.5002 69.6064 74.5002H136.995V73.5151H69.6064C69.3392 73.5151 69.1055 73.7322 69.1055 74.016V73.9993Z" fill="#BEB4D6"/>
<path d="M69.1055 78.4408C69.1055 78.7079 69.3225 78.9417 69.6064 78.9417H136.995V77.9565H69.6064C69.3392 77.9565 69.1055 78.1736 69.1055 78.4574V78.4408Z" fill="#BEB4D6"/>
<path d="M69.1055 82.8822C69.1055 83.1493 69.3225 83.3831 69.6064 83.3831H136.995V82.3979H69.6064C69.3392 82.3979 69.1055 82.615 69.1055 82.8989V82.8822Z" fill="#BEB4D6"/>
<path d="M57.2842 97.5252C57.2842 97.7924 57.5012 98.0261 57.7851 98.0261H125.173V97.041H57.7851C57.5179 97.041 57.2842 97.2581 57.2842 97.5419V97.5252Z" fill="#BEB4D6"/>
<path d="M57.2842 101.967C57.2842 102.234 57.5012 102.468 57.7851 102.468H125.173V101.482H57.7851C57.5179 101.482 57.2842 101.699 57.2842 101.983V101.967Z" fill="#BEB4D6"/>
<path d="M57.2842 106.408C57.2842 106.675 57.5012 106.909 57.7851 106.909H125.173V105.924H57.7851C57.5179 105.924 57.2842 106.141 57.2842 106.425V106.408Z" fill="#BEB4D6"/>
<path d="M57.2842 110.849C57.2842 111.116 57.5012 111.35 57.7851 111.35H125.173V110.365H57.7851C57.5179 110.365 57.2842 110.582 57.2842 110.866V110.849Z" fill="#BEB4D6"/>
<path d="M82.9805 45.0471C83.4647 45.3309 87.5721 49.7222 89.3587 49.2881C90.661 48.9708 90.7612 44.7131 90.7612 44.7131C90.7612 44.7131 89.1082 45.4979 86.1529 41.5407C83.665 38.2181 82.9805 45.0304 82.9805 45.0304V45.0471Z" fill="#FBB99D"/>
<path d="M89.8596 49.1545C92.7648 48.1861 99.7107 42.1919 99.7107 42.1919L97.7905 41.5908L88.2066 45.8652C88.2066 45.8652 86.971 50.1229 89.8763 49.1545H89.8596Z" fill="#FBB99D"/>
<path d="M97.2395 41.5408C97.2896 41.3404 97.2395 41.0733 97.2395 40.8729C97.2395 40.4555 97.3898 40.0548 97.54 39.6707C97.6235 39.4537 97.54 38.9027 97.8239 38.8192C98.2914 38.6856 98.1745 39.6373 98.2246 39.8377C98.2747 40.0381 98.4083 40.2217 98.6086 40.2384C98.7422 40.2384 98.8591 40.1716 98.976 40.0882C99.3266 39.8377 99.6271 39.5539 99.9444 39.27C100.111 39.1197 100.278 38.9862 100.462 38.8526C100.596 38.7524 100.729 38.5688 100.879 38.502C100.996 38.4519 101.163 38.502 101.197 38.6355C101.213 38.7691 101.096 38.8192 101.03 38.886C100.863 39.0697 100.712 39.2533 100.545 39.437C100.512 39.4704 100.328 39.6373 100.345 39.7041C100.395 39.988 100.896 39.5539 100.98 39.4871C101.18 39.3201 101.397 39.1698 101.681 39.1364C101.714 39.1364 101.764 39.1364 101.781 39.1698C101.814 39.2199 101.781 39.27 101.764 39.3201C101.564 39.5873 101.28 39.7876 101.096 40.0548C101.063 40.1049 101.03 40.1549 101.063 40.205C101.163 40.4054 101.547 40.1883 101.681 40.1216C101.764 40.0882 101.865 40.0381 101.931 40.1216C101.981 40.1549 101.981 40.2384 101.948 40.2885C101.931 40.3386 101.881 40.3887 101.831 40.4221C101.698 40.539 101.581 40.6725 101.447 40.7894C101.38 40.8395 101.163 40.9731 101.213 41.0733C101.213 41.09 101.247 41.1067 101.263 41.1067C101.347 41.1234 101.43 41.1067 101.497 41.0733C101.581 41.0566 101.681 41.0566 101.731 41.1067C101.798 41.1901 101.731 41.307 101.681 41.3905C101.447 41.6744 101.113 41.8747 100.813 42.0751C100.495 42.2921 100.161 42.4925 99.8275 42.6762C99.193 43.0268 98.4751 43.2439 97.874 43.6446C97.7905 43.7114 97.6903 43.7782 97.5901 43.8116C97.3898 43.8783 97.1727 43.8282 96.989 43.7615C96.6384 43.6112 96.3212 43.2939 96.221 42.9099C96.1876 42.793 96.1041 42.5426 96.1876 42.4424C96.2377 42.3756 96.4213 42.3255 96.5048 42.2754C96.6217 42.2087 96.7386 42.1586 96.8555 42.0751C97.0391 41.9415 97.2061 41.7578 97.3063 41.5074L97.2395 41.5408Z" fill="#FBB99D"/>
<path d="M78.9397 36.0308C77.1532 34.8787 75.016 34.4446 73.9474 35.9306C73.3463 36.7655 73.6635 38.8359 74.4817 39.9212C76.0512 42.025 80.6428 46.1658 84.9339 47.585C86.5034 48.1026 89.6591 45.2308 87.8057 43.0769C85.368 40.2551 81.4442 37.6504 78.923 36.0308H78.9397Z" fill="#E8A32B"/>
<path d="M73.2461 86.4551C73.2461 86.4551 71.3928 88.8594 71.3594 89.3937C71.2759 90.9632 75.5336 93.9853 77.5205 94.1189C77.8043 94.1356 78.2551 93.8852 78.1216 93.1171C77.988 92.3491 75.9343 90.1451 76.7691 89.1767C77.604 88.2249 73.2461 86.4551 73.2461 86.4551Z" fill="#53424D"/>
<path d="M95.8704 79.6263C95.8704 79.6263 95.2861 82.615 95.4864 83.0992C96.1209 84.5518 101.264 85.3533 103.117 84.5852C103.367 84.485 103.668 84.0509 103.217 83.4164C102.75 82.782 99.9278 81.7301 100.245 80.4945C100.562 79.2589 95.8704 79.6263 95.8704 79.6263Z" fill="#53424D"/>
<path d="M96.1876 60.9425C96.1876 60.9425 78.1551 60.4416 75.3333 60.3247C71.1925 60.1578 70.007 58.5883 72.1609 54.3139C73.6302 51.3753 99.0261 50.1397 101.748 54.9651C105.087 60.8757 96.1876 60.9425 96.1876 60.9425Z" fill="#5A7FE5"/>
<path d="M101.881 79.86C102.883 74.684 103.918 58.4547 101.748 54.9651C99.3935 51.2083 94.7184 54.9317 94.5013 60.7589C94.3677 64.5324 94.0839 77.3388 94.2509 80.8284C94.2843 81.68 96.5049 82.0974 97.8407 82.0306C97.8741 82.0306 101.614 81.3627 101.898 79.86H101.881Z" fill="#5A7FE5"/>
<path d="M81.0769 69.3577C81.0769 69.3577 68.8381 64.4822 66.4671 62.9461C62.9775 60.692 62.1761 55.4826 66.1833 52.8946C68.9383 51.1081 91.5791 62.9127 91.3621 68.4394C91.1784 73.4484 81.0769 69.3577 81.0769 69.3577Z" fill="#5A7FE5"/>
<path d="M78.8728 89.9615C82.3625 86.0043 91.4789 72.53 91.362 68.4393C91.2452 64.0146 85.3178 64.8328 82.1788 69.7583C80.1418 72.9474 73.413 83.8504 71.7934 86.9226C71.3927 87.674 73.0957 89.16 74.2812 89.7778C74.3146 89.7778 77.871 91.1135 78.8728 89.9615Z" fill="#5A7FE5"/>
<path d="M79.9248 57.8869C81.3774 58.0538 82.6631 59.1892 83.3143 60.4916C83.4645 60.7921 83.8986 60.525 83.7651 60.2244C83.0304 58.7551 81.6112 57.5529 79.9415 57.3693C79.6076 57.3359 79.6243 57.8368 79.9415 57.8869H79.9248Z" fill="#305DDE"/>
<path d="M78.6726 36.682C77.3869 33.1757 71.0421 34.5615 66.701 35.4298C63.779 36.0141 62.1761 37.4501 62.5936 42.8097C62.7605 44.9302 62.9275 51.3752 64.113 54.581C64.33 55.1654 65.215 55.6496 65.6992 56.0336C68.4374 58.2543 82.5629 55.1821 81.8617 51.9095C81.8617 51.9095 81.4443 44.1789 78.6893 36.6653L78.6726 36.682Z" fill="#FDC71C"/>
<path d="M67.8531 35.3797C67.8531 35.3797 71.0255 39.6708 74.7155 38.4519C76.4353 37.8842 76.5355 36.3481 75.1329 35.363C73.7638 34.3946 67.8364 35.363 67.8364 35.363L67.8531 35.3797Z" fill="#FBB99D"/>
<path d="M74.7156 23.7086C74.3149 23.1743 73.814 22.7068 73.2129 22.3227C72.3447 21.7717 71.3763 21.6382 70.3745 21.7384C69.2057 21.8552 66.5008 23.0741 66.0333 26.1964C65.8163 27.6824 66.4507 29.2352 67.3357 30.404C68.254 31.6396 69.74 31.9735 71.226 32.0737C71.8271 32.1071 72.4616 32.0737 73.0293 31.8733C73.7639 31.5895 74.3483 31.0051 74.7824 30.3539C75.2499 29.6359 75.5672 28.8345 75.7008 27.983C75.9512 26.4135 75.6006 24.8941 74.7156 23.7086Z" fill="#53424D"/>
<path d="M75.801 36.014C75.801 36.014 73.9977 33.8434 73.8474 31.1719C73.814 30.5041 72.7621 30.4373 72.9792 30.1033C73.1963 29.7527 69.6565 29.1516 69.6565 29.1516C69.6565 29.1516 70.2743 33.2256 67.8533 35.3795L75.801 36.014Z" fill="#FBB99D"/>
<path d="M73.8808 31.6228C73.8808 30.8047 72.9958 29.9364 73.263 29.519C73.5301 29.1016 69.189 28.3669 69.189 28.3669C69.189 28.3669 69.8067 29.2185 69.9236 30.5208C71.4263 32.0235 72.9457 32.5244 74.1312 32.7749L73.8808 31.6228Z" fill="#DC8162"/>
<path d="M72.4115 22.6734C73.981 23.742 77.4706 28.4505 75.2333 31.2221C74.2816 32.4076 70.9088 31.4058 68.8718 29.135C68.0369 28.2 67.6362 25.9125 68.3208 23.7753C68.6213 22.8069 70.6083 21.4044 72.4115 22.6734Z" fill="#FBB99D"/>
<path d="M67.4692 21.1873C67.8699 21.371 68.2205 21.6548 68.471 22.0055C68.7214 22.3561 69.0554 22.9739 68.8884 23.3913C68.7548 23.7086 68.4877 23.959 68.2873 24.2428C68.1203 24.4933 68.0035 24.7938 67.8198 25.0443C67.5025 25.4784 67.035 25.7957 66.6176 26.1129C66.2169 26.4301 65.7661 26.3633 65.2986 26.1964C64.5305 25.9292 63.8126 25.4116 63.512 24.6603C63.1948 23.8421 63.7458 22.9739 64.2467 22.3394C64.3635 22.1891 64.4971 22.0389 64.5973 21.8719C65.0982 21.0204 66.3672 20.7866 67.2521 21.0872C67.3189 21.1038 67.3857 21.1372 67.4525 21.1706L67.4692 21.1873Z" fill="#53424D"/>
<path d="M74.8991 24.5768C74.6988 25.1278 74.5318 24.343 73.2461 24.0258C73.0959 23.9924 72.9122 23.9757 72.7619 23.9757C72.6284 23.9757 72.4781 23.9757 72.3612 24.0258C72.0774 24.126 71.9772 24.3931 71.9772 24.677C71.9772 25.2948 71.71 25.779 71.3761 26.2799C71.0088 26.8142 70.7082 27.3652 70.6247 28.0163C70.608 28.2167 70.6247 28.4004 70.5413 28.5673C70.4578 28.7844 70.4077 29.0348 70.4244 29.2686C70.4411 29.5024 70.5079 29.7194 70.5413 29.9532C70.5913 30.3038 70.5413 30.5376 70.2908 30.788C70.1906 30.8882 70.0904 30.9717 69.9736 31.0385C69.7398 31.1887 69.4727 31.2889 69.1888 31.3223C68.5376 31.4058 67.9199 31.122 67.5191 30.621C66.8346 29.7528 66.7177 28.5172 66.7344 27.4486C66.7344 26.6973 66.8346 25.9459 66.9514 25.2113C67.0683 24.5267 67.4023 23.9089 67.8865 23.408C68.5209 22.7401 69.4059 22.306 70.3075 22.1224C70.7583 22.0222 71.2425 21.9888 71.71 22.0389C73.9307 22.2225 75.0828 24.1427 74.9158 24.5601L74.8991 24.5768Z" fill="#53424D"/>
<path d="M70.7752 28.7008C70.7752 28.7008 69.4561 27.7157 68.8217 28.083C68.1872 28.4504 69.2892 30.2369 70.6416 29.8529C71.994 29.4856 71.1592 28.9513 70.7752 28.7008Z" fill="#FBB99D"/>
<path d="M72.0608 27.9662C72.0608 27.9662 72.0942 27.9829 72.1109 27.9829C72.161 27.9996 72.2111 28.033 72.2779 28.033C72.4949 28.0831 72.6118 27.9328 72.6953 27.7492C72.7454 27.6323 72.929 27.7158 72.879 27.8326C72.712 28.2334 72.3113 28.3169 71.9439 28.0831C71.8437 28.0163 71.9773 27.866 72.0775 27.9328L72.0608 27.9662Z" fill="#1E100C"/>
<path d="M74.2146 27.432C74.2146 27.432 74.3315 27.5322 74.3816 27.5822C74.5987 27.6991 74.7322 27.5822 74.8324 27.3986C74.8992 27.2817 75.0662 27.3652 75.0161 27.4821C74.8992 27.6991 74.7155 27.8995 74.4317 27.816C74.2814 27.7826 74.1478 27.6657 74.0477 27.5488C73.9642 27.4487 74.1311 27.3485 74.2146 27.432Z" fill="#1E100C"/>
<path d="M74.6822 26.4468C74.365 26.3466 74.0811 26.4801 73.9309 26.7807C73.8641 26.9143 73.647 26.7807 73.7305 26.6638C73.9309 26.2798 74.3149 26.0794 74.749 26.213C74.8993 26.2631 74.8325 26.4968 74.6822 26.4468Z" fill="#513D38"/>
<path d="M72.6785 27.0646C72.3947 26.8809 72.0941 26.9477 71.8771 27.1814C71.7769 27.2983 71.6099 27.1146 71.7101 27.0145C72.0106 26.6972 72.4281 26.6137 72.8121 26.8642C72.9457 26.9477 72.8121 27.148 72.6785 27.0646Z" fill="#513D38"/>
<path d="M73.4966 27.1815C73.4299 27.3986 73.3965 27.6323 73.4633 27.8494C73.5634 28.1666 73.9141 28.3002 74.0977 28.5506C74.3649 28.9013 74.0977 29.1183 73.6803 29.2352C73.5801 29.2686 73.53 29.135 73.6302 29.1016C74.5819 28.8178 73.4633 28.3336 73.313 27.9496C73.2128 27.6991 73.2462 27.4153 73.313 27.1648C73.3464 27.0813 73.4967 27.1147 73.48 27.1982L73.4966 27.1815Z" fill="#DC8162"/>
<path d="M72.879 29.6357C72.879 29.6357 72.8122 30.4539 73.4968 30.4706C74.1813 30.4706 74.2648 29.7359 74.2648 29.7359L72.879 29.6524V29.6357Z" fill="#FAFFFF"/>
<path d="M71.5599 29.3688C71.6434 29.6192 71.9106 29.7361 72.161 29.6526C72.4115 29.5691 72.5283 29.302 72.4449 29.0515C72.3614 28.8011 72.0942 28.6842 71.8438 28.7677C71.5933 28.8512 71.4764 29.1183 71.5599 29.3688Z" fill="#F3A498"/>
<path d="M75.3167 28.5338C75.1163 28.3669 74.8158 28.4002 74.6488 28.6173C74.4818 28.8177 74.5152 29.1182 74.7323 29.2852C74.9327 29.4521 75.2332 29.4187 75.4002 29.2017C75.5671 29.0013 75.5337 28.7008 75.3167 28.5338Z" fill="#F3A498"/>
<path d="M70.3077 29.6527C69.9404 30.2037 69.3059 31.5895 70.5581 31.4393C71.4431 31.3224 70.8921 30.354 70.5581 29.9198C70.4747 29.8197 70.6416 29.7028 70.7251 29.803C71.2093 30.4374 71.6267 31.6396 70.4079 31.6396C69.0888 31.6396 69.7066 30.1703 70.1574 29.5191C70.2242 29.4189 70.3745 29.5525 70.3077 29.6527Z" fill="#FB8245"/>
<path d="M114.256 31.6391L106.476 23.8586L57.7859 72.5484L65.5663 80.3288L114.256 31.6391Z" fill="#FF95A9"/>
<path d="M114.247 31.6351L111.803 29.1912L63.1138 77.8809L65.5577 80.3248L114.247 31.6351Z" fill="#EF849D"/>
<path d="M108.916 26.2948L106.472 23.8508L57.7827 72.5405L60.2266 74.9845L108.916 26.2948Z" fill="#EF849D"/>
<path d="M106.456 23.8589L116.357 21.7551L114.237 31.6396L106.456 23.8589Z" fill="#B3D0FF"/>
<path d="M116.357 21.7551L111.448 22.7903L115.305 26.6974L116.357 21.7551Z" fill="#53424D"/>
<path d="M70.0102 75.8808L62.2297 68.1003L54.4493 75.8808L62.2297 83.6612L70.0102 75.8808Z" fill="#FDC71C"/>
<path d="M70.0041 75.8761L62.2236 68.0957L59.5436 70.7758L67.324 78.5562L70.0041 75.8761Z" fill="#E8A32B"/>
<path d="M68.9718 49.572C69.3391 49.9894 71.8436 55.466 73.6803 55.6163C75.016 55.7331 76.4519 51.7259 76.4519 51.7259C76.4519 51.7259 74.6487 51.943 73.0792 47.2512C71.7768 43.294 68.9551 49.5553 68.9551 49.5553L68.9718 49.572Z" fill="#FBB99D"/>
<path d="M74.1979 55.6497C77.2534 55.6497 85.7521 52.1601 85.7521 52.1601L84.1158 50.9746L73.6636 51.9931C73.6636 51.9931 71.1424 55.633 74.1979 55.633V55.6497Z" fill="#FBB99D"/>
<path d="M83.6148 50.7741C83.7317 50.5904 83.7484 50.3233 83.8319 50.1396C83.9655 49.7389 84.2326 49.405 84.4998 49.0877C84.65 48.9041 84.7335 48.3531 85.034 48.3698C85.5183 48.3698 85.1175 49.2547 85.0841 49.4717C85.0674 49.6721 85.1342 49.9059 85.3346 49.9726C85.4515 50.0227 85.6017 49.9893 85.7186 49.956C86.1193 49.8391 86.5034 49.6554 86.8874 49.4884C87.0878 49.405 87.2881 49.3382 87.5052 49.2547C87.6554 49.2046 87.8391 49.071 88.0061 49.0543C88.1397 49.0543 88.2732 49.1378 88.2565 49.2881C88.2398 49.4217 88.1063 49.4217 88.0228 49.4717C87.8057 49.5886 87.6054 49.7222 87.405 49.8391C87.3549 49.8725 87.1378 49.956 87.1212 50.0227C87.0878 50.3066 87.6888 50.0561 87.789 50.0227C88.0395 49.9393 88.2899 49.8558 88.5571 49.9226C88.5905 49.9226 88.6239 49.9393 88.6406 49.9726C88.6573 50.0227 88.6072 50.0728 88.5738 50.1062C88.3066 50.3066 87.9727 50.3901 87.7055 50.5904C87.6555 50.6238 87.6221 50.6739 87.6221 50.724C87.6554 50.9411 88.0896 50.8576 88.2231 50.8409C88.3066 50.8409 88.4235 50.8409 88.4736 50.9077C88.507 50.9578 88.4736 51.0246 88.4402 51.0746C88.4068 51.1247 88.34 51.1414 88.2899 51.1748C88.1397 51.2416 87.9727 51.3418 87.8057 51.3919C87.7222 51.4253 87.4885 51.4754 87.4885 51.5922C87.4885 51.6089 87.5052 51.6256 87.5219 51.6423C87.5887 51.6924 87.6721 51.6924 87.7556 51.6924C87.8391 51.6924 87.9393 51.7258 87.956 51.8093C87.9894 51.9095 87.9059 51.993 87.8224 52.0598C87.5219 52.2601 87.1378 52.3436 86.7872 52.4438C86.4199 52.544 86.0359 52.6274 85.6518 52.7109C84.9339 52.8445 84.1825 52.8278 83.4812 53.0115C83.3811 53.0449 83.2642 53.0783 83.164 53.0783C82.9636 53.0783 82.7633 52.9781 82.613 52.8278C82.3292 52.5774 82.1288 52.1766 82.1455 51.7759C82.1455 51.6423 82.1455 51.3919 82.2624 51.3251C82.3459 51.275 82.5128 51.2917 82.613 51.275C82.7466 51.2583 82.8802 51.2249 82.997 51.1915C83.2141 51.1247 83.4312 51.0079 83.5981 50.7908L83.6148 50.7741Z" fill="#FBB99D"/>
<path d="M68.0034 39.7543C66.6676 38.0846 64.7976 36.9993 63.3116 38.0679C62.46 38.669 62.1261 40.7394 62.5602 42.0251C63.3784 44.5129 66.4339 49.9059 70.0404 52.6108C71.3594 53.5959 75.2665 51.8762 74.1979 49.2381C72.7954 45.7985 69.8901 42.0751 68.0034 39.7376V39.7543Z" fill="#E8A32B"/>
</g>
<defs>
<clipPath id="clip0_19_3636">
<rect width="158.469" height="120" fill="white" transform="translate(0.932373 0.5)"/>
</clipPath>
</defs>
</svg>
