<svg width="429" height="280" viewBox="0 0 429 280" fill="none" xmlns="http://www.w3.org/2000/svg">
<g clip-path="url(#clip0_1632_8714)">
<path d="M111.537 136.547C111.537 136.547 140.479 140.365 163.633 140.69L169.206 147.42C169.206 147.42 133.408 160.393 97.0654 152.929" fill="#FCBEAF"/>
<path d="M85.5264 132.783C85.5264 132.783 120.349 137.896 127.034 138.151L124.557 164.422C124.557 164.422 114.161 167.506 102.756 169.189" fill="#FF837A"/>
<path d="M71.5069 135.322C71.5069 135.322 37.1363 124.84 29.9995 99.4427L21.2861 98.8452C21.2861 98.8452 21.6507 135.071 48.9284 160.227" fill="#FCBEAF"/>
<path d="M38.6023 86.8216C38.8483 85.9034 39.0283 84.9238 38.6067 84.0144C38.3959 83.5575 38.005 83.1841 37.5219 83.0479C36.2878 82.6964 35.3348 83.9045 34.553 84.8622C33.8064 85.7848 32.2912 88.5086 31.4085 87.7178C31.1054 87.4454 30.9605 87.0369 30.8419 86.6459C30.3852 85.139 30.2578 81.6948 30.2051 80.1176C30.1744 79.1511 30.2139 78.1495 29.8098 77.2708C29.8098 77.262 29.8011 77.2533 29.7967 77.2445C29.2213 76.0363 27.3855 76.4229 27.2801 77.7541C27.0957 80.0517 27.1045 83.0171 26.8937 85.2181C26.8629 85.5476 26.393 85.5783 26.3139 85.2532C25.8572 83.4081 25.6859 80.5745 25.6991 79.2741C25.721 77.6311 25.2994 75.0259 23.4197 75.3686C21.6147 75.9397 23.4988 81.9276 23.165 84.8535C23.1255 85.2181 22.6116 85.2532 22.5282 84.8974C22.0582 82.8853 21.2985 80.0517 20.6616 78.681C20.3191 77.9474 19.8184 77.139 19.0147 77.0336C17.4688 77.0424 17.9563 81.3829 18.6414 83.4784C18.8829 84.2208 19.511 86.5404 18.7556 86.7513C18.0705 87.0193 17.0911 82.1868 15.7559 81.049C15.4705 80.8029 15.1016 80.5701 14.7414 80.6755C14.3022 80.8029 14.1529 81.3389 14.1046 81.7958C13.9158 83.597 14.2583 85.4026 14.5965 87.1818C15.3519 91.1621 16.2918 95.463 19.3836 98.0769C21.114 99.5399 23.3319 100.23 25.4795 100.814C26.6258 101.126 27.8423 101.288 28.993 100.994C30.5257 100.603 31.9311 99.43 33.1125 98.4196C34.3949 97.3213 35.4578 95.9594 35.8618 94.2856C36.4811 91.7112 37.904 89.4443 38.5979 86.8304L38.6023 86.8216Z" fill="#FCBEAF"/>
<path d="M20.3047 89.366C20.107 89.366 19.927 89.2298 19.8787 89.0321C19.8216 88.7949 19.9665 88.5576 20.1993 88.5005C22.7904 87.8635 25.4519 87.6263 28.1134 87.7976C28.3549 87.8152 28.5394 88.0217 28.5262 88.2633C28.5086 88.5049 28.2978 88.6894 28.0607 88.6763C25.487 88.5137 22.9134 88.7422 20.4101 89.3572C20.3749 89.366 20.3398 89.3704 20.3047 89.3704V89.366Z" fill="#DEA58D"/>
<path d="M30.1954 97.4142C30.0153 97.4142 29.8485 97.3043 29.7826 97.1286C29.1326 95.3889 28.9701 93.4998 29.3126 91.6723C29.3566 91.435 29.5849 91.2769 29.8265 91.3208C30.0637 91.3647 30.2218 91.5932 30.1778 91.8348C29.866 93.5042 30.0153 95.2307 30.6082 96.8211C30.6917 97.0495 30.5775 97.2999 30.3491 97.3878C30.3008 97.4054 30.2481 97.4142 30.1954 97.4142Z" fill="#DEA58D"/>
<path d="M90.8405 138.542C90.8405 138.542 54.0544 127.625 48.6217 123.72L34.4492 145.971C34.4492 145.971 41.586 156.018 49.1048 166.167" fill="#FF837A"/>
<path d="M49.1037 166.17L46.1963 191.334L107.752 192.74L112.68 147.301C112.68 147.301 93.0441 136.547 91.2873 136.547" fill="#FF837A"/>
<path d="M78.2643 127.217C76.9643 128.596 72.9062 136.772 73.7319 138.815C73.9735 139.421 74.5005 139.86 75.0319 140.238C77.6187 142.096 80.5393 142.922 83.6575 143.296C85.8314 143.555 88.2909 143.612 89.9027 142.132C91.0797 141.051 91.5145 139.39 91.7648 137.813C92.0371 136.117 92.529 132.976 92.5158 131.259" fill="#E6AD9F"/>
<path d="M59.6462 91.7369C59.1148 89.536 57.7489 87.5986 56.0449 86.1137C54.4945 84.7606 52.6324 83.7326 50.6121 83.3372C47.2129 82.6738 44.0112 84.2378 41.7889 86.7727C40.3572 88.4113 39.2856 90.441 39.145 92.6156C38.8596 97.0132 42.9352 99.961 46.6463 101.332C50.375 102.716 54.6526 101.718 58.0607 99.6666" fill="#845140"/>
<path d="M111.417 95.9665C112.739 94.1302 114.732 92.8517 116.871 92.1093C118.817 91.4371 120.929 91.1867 122.95 91.5821C126.349 92.2499 128.725 94.9034 129.827 98.0884C130.539 100.144 130.767 102.433 130.078 104.498C128.69 108.68 123.802 109.875 119.849 109.752C115.874 109.629 112.286 107.094 109.901 103.914" fill="#845140"/>
<path d="M110.917 94.4963C110.917 94.4963 114.404 115.627 108.027 124.598C100.719 134.874 92.3131 135.081 84.6142 134.997C77.2535 134.813 69.515 133.938 62.0665 123.764C55.5622 114.885 57.8986 94.8609 57.8986 94.8609L60.0418 84.3129L108.545 83.979L110.921 94.4963H110.917Z" fill="#FCBEAF"/>
<path d="M108.581 110.026C109.152 107.926 112.468 106.27 114.295 106.213C117.382 106.12 118.999 109.033 119.35 111.744C119.798 115.17 118.458 118.443 115.252 120.003C113.741 120.736 112.081 121.062 110.426 121.272C108.739 121.492 107.092 121.729 105.384 121.593" fill="#FCBEAF"/>
<path d="M61.3252 109.972C60.7235 107.881 57.3857 106.268 55.5587 106.242C52.4712 106.189 50.8945 109.128 50.5827 111.839C50.1831 115.27 51.5665 118.525 54.7945 120.041C56.3141 120.753 57.983 121.056 59.6387 121.245C61.3252 121.438 62.9765 121.658 64.6849 121.495" fill="#FCBEAF"/>
<path d="M92.631 109.375C92.6442 111.167 93.1317 112.718 94.7874 112.705C96.2455 112.696 96.9087 111.137 96.8955 109.344C96.8823 107.552 96.3158 106.102 94.7391 106.111C93.3206 106.12 92.6179 107.578 92.631 109.371V109.375Z" fill="#472A28"/>
<path d="M95.2588 108.434C95.2588 108.729 95.5003 108.966 95.799 108.966C96.0932 108.966 96.3304 108.724 96.3304 108.426C96.3304 108.131 96.0889 107.894 95.7902 107.894C95.496 107.894 95.2588 108.136 95.2588 108.434Z" fill="#FDBFB0"/>
<path d="M72.9055 108.553C72.9186 110.346 73.4061 111.896 75.0619 111.883C76.5199 111.874 77.1831 110.315 77.1699 108.522C77.1568 106.73 76.5902 105.28 75.0135 105.289C73.595 105.298 72.8923 106.756 72.9055 108.549V108.553Z" fill="#472A28"/>
<path d="M75.5371 107.473C75.5371 107.767 75.7787 108.005 76.0773 108.005C76.3716 108.005 76.6087 107.763 76.6087 107.464C76.6087 107.17 76.3672 106.933 76.0685 106.933C75.7743 106.933 75.5371 107.174 75.5371 107.473Z" fill="#FDBFB0"/>
<path d="M96.3244 118.46C96.342 121.166 98.551 123.345 101.256 123.323C103.962 123.306 106.14 121.096 106.118 118.39C106.096 115.684 103.892 113.505 101.186 113.527C98.4808 113.544 96.3024 115.754 96.3244 118.46Z" fill="#FF9A8F"/>
<path d="M63.634 116.062C63.6515 118.768 65.8606 120.947 68.566 120.925C71.2714 120.907 73.4497 118.698 73.4278 115.991C73.4058 113.285 71.2011 111.106 68.4957 111.128C65.7903 111.146 63.612 113.355 63.634 116.062Z" fill="#FF9A8F"/>
<path d="M92.6508 83.6656C92.6596 84.2938 92.4708 84.9088 92.3654 85.5283C92.0448 87.4305 92.5235 89.4075 93.4106 91.1208C94.2978 92.8341 95.5758 94.3146 96.9285 95.6897C100.275 99.0944 104.153 101.976 108.382 104.191C108.835 104.428 109.309 104.674 109.586 105.1C110.205 106.053 109.542 107.292 108.896 108.228C109.595 108.43 110.267 107.912 110.873 107.512C112.361 106.536 114.237 106.172 115.98 106.515C116.67 104.226 117.267 101.875 117.491 99.4942C117.636 97.9434 117.684 96.375 117.539 94.8243C117.276 91.9379 116.376 89.1483 115.392 86.4245C114.487 83.916 113.499 81.4207 112.133 79.1362C110.763 76.8474 108.989 74.7606 106.749 73.3196C104.728 72.0192 102.282 71.0264 100.012 70.24C97.539 69.3789 94.9653 68.821 92.3566 68.5838C90.5691 68.4212 87.7847 68.1708 86.2168 69.2471" fill="#845140"/>
<path d="M97.0116 79.5851C96.6515 82.2957 95.6545 84.9755 93.8846 87.0315C92.6505 88.4637 91.0826 89.5488 89.4884 90.5241C81.8553 95.1941 73.2034 97.7157 64.5603 99.5916C62.6015 100.018 60.5681 100.413 58.6313 99.9519C57.3137 99.8948 56.3563 98.735 55.961 97.4434C54.4458 92.4835 55.0431 86.8822 57.362 82.1946C59.6853 77.5071 63.6599 73.7509 68.2801 71.5543C70.4278 70.5351 72.7027 69.841 74.9997 69.2918C78.3506 68.4879 81.8465 67.9915 85.1975 68.6592C86.4448 68.9096 87.6613 69.3182 88.8296 69.8234C92.9403 71.5983 97.6177 74.9766 97.0028 79.5851H97.0116Z" fill="#845140"/>
<path d="M67.1775 99.0031C65.1089 99.9432 63.4488 100.686 61.8063 102.056C60.1549 103.436 59.4478 105.61 58.8198 107.666C57.0938 106.77 55.8158 105.061 55.4381 103.15C55.2317 102.113 55.2844 101.042 55.179 99.9872C55.1175 99.3502 54.9989 98.7219 54.9243 98.0849C54.8188 97.2195 54.7925 96.3408 54.7925 95.471C54.7793 92.5891 55.0209 89.6676 56.0222 86.9658C57.0236 84.264 58.855 81.7862 61.4154 80.4683" fill="#845140"/>
<path d="M93.3289 85.366C93.2982 85.366 93.2718 85.366 93.2411 85.3572C93.0039 85.3089 92.8502 85.0761 92.8985 84.8388C93.2323 83.2002 93.4607 81.8251 93.4914 80.4281C93.5222 79.0662 93.3597 77.5945 92.9907 75.9426C92.6658 74.4797 92.1387 72.6214 90.9046 71.2507C90.7421 71.0706 90.7597 70.7938 90.9398 70.6313C91.1198 70.4687 91.3965 70.4819 91.559 70.6664C92.9293 72.1909 93.5002 74.1854 93.8472 75.7581C94.2292 77.4846 94.3961 79.0179 94.3654 80.4544C94.3347 81.9174 94.0975 83.3364 93.7549 85.0189C93.711 85.2254 93.5309 85.3704 93.3245 85.3704L93.3289 85.366Z" fill="#A3644F"/>
<path d="M41.6893 90.8797H41.6805C41.4389 90.8753 41.2457 90.6732 41.2501 90.4316C41.3203 87.5892 43.7402 84.9093 46.7574 84.3338C49.4409 83.8198 52.4844 84.839 54.7023 86.9917C54.878 87.163 54.8824 87.4398 54.7111 87.6111C54.5398 87.7869 54.2631 87.7869 54.0918 87.6199C52.076 85.6606 49.3311 84.7336 46.9243 85.1949C44.2936 85.7001 42.1855 88.0065 42.1284 90.4535C42.1241 90.6908 41.9264 90.8841 41.6893 90.8841V90.8797Z" fill="#A3644F"/>
<path d="M57.0381 111.198C57.003 110.829 56.9635 110.443 56.7614 110.135C56.5594 109.832 56.2256 109.648 55.8962 109.494C55.4 109.261 54.8861 109.072 54.3635 108.927C54.1 108.852 53.8321 108.795 53.5642 108.743C53.428 108.716 53.2963 108.694 53.1601 108.677C53.0503 108.659 52.8834 108.58 52.7868 108.659C52.6638 108.76 52.7693 108.936 52.8439 109.032C53.5378 109.955 54.851 110.122 55.7733 110.816C55.8655 110.882 55.9577 110.97 55.9665 111.08C55.9885 111.304 55.6986 111.409 55.4746 111.427C54.5348 111.497 53.551 111.326 52.6814 111.686C52.5057 111.761 52.3125 111.888 52.3125 112.081C52.3125 112.305 52.5804 112.428 52.8044 112.468C53.6608 112.617 54.627 112.398 55.3517 112.881C56.3354 113.54 56.2432 115.056 56.9898 115.974C57.0689 116.07 57.1787 115.13 57.1831 115.077C57.2138 114.643 57.2182 114.203 57.2094 113.768C57.1918 112.907 57.1128 112.051 57.0381 111.194V111.198Z" fill="#D19E91"/>
<path d="M111 112.503C111.018 112.134 111.044 111.747 111.238 111.431C111.426 111.119 111.756 110.921 112.076 110.754C112.56 110.504 113.069 110.293 113.587 110.13C113.846 110.047 114.11 109.977 114.378 109.915C114.51 109.884 114.646 109.858 114.777 109.832C114.887 109.81 115.05 109.722 115.151 109.801C115.278 109.898 115.177 110.078 115.111 110.179C114.452 111.128 113.148 111.347 112.252 112.077C112.164 112.147 112.076 112.235 112.068 112.349C112.055 112.573 112.349 112.67 112.573 112.678C113.513 112.714 114.492 112.503 115.375 112.828C115.555 112.894 115.752 113.017 115.757 113.21C115.761 113.434 115.502 113.566 115.283 113.614C114.431 113.794 113.456 113.614 112.753 114.128C111.795 114.827 111.945 116.338 111.233 117.283C111.159 117.384 111.009 116.448 111.005 116.395C110.957 115.96 110.935 115.525 110.926 115.086C110.908 114.225 110.952 113.364 111 112.507V112.503Z" fill="#D19E91"/>
<path d="M128.549 100.58C128.339 100.58 128.154 100.43 128.119 100.215C127.75 98.0933 126.305 96.2086 124.351 95.3036C122.396 94.3986 120.025 94.5128 118.167 95.6023C117.956 95.7253 117.688 95.655 117.565 95.4442C117.442 95.2333 117.513 94.9653 117.723 94.8423C119.827 93.6078 122.506 93.4804 124.72 94.504C126.933 95.5276 128.567 97.6583 128.984 100.061C129.024 100.299 128.866 100.527 128.628 100.571C128.602 100.571 128.576 100.575 128.554 100.575L128.549 100.58Z" fill="#A3644F"/>
<path d="M98.5161 104.749C98.2482 104.749 97.9935 104.582 97.8969 104.315C97.752 103.919 96.9351 103.313 96.1358 103.155C95.9601 103.12 95.5297 103.062 95.3408 103.273C95.0949 103.541 94.6777 103.563 94.4098 103.317C94.1419 103.071 94.1199 102.654 94.3659 102.386C94.8226 101.881 95.5429 101.696 96.3905 101.863C97.4577 102.074 98.7797 102.878 99.1354 103.862C99.2584 104.205 99.0827 104.582 98.7445 104.706C98.6699 104.732 98.5952 104.745 98.5205 104.745L98.5161 104.749Z" fill="#734942"/>
<path d="M72.2464 104.201C72.1717 104.201 72.097 104.187 72.0224 104.161C71.6798 104.038 71.5041 103.656 71.6271 103.317C71.9872 102.333 73.3048 101.525 74.372 101.319C75.2196 101.152 75.9355 101.341 76.3966 101.841C76.6426 102.109 76.6206 102.527 76.3527 102.773C76.0848 103.019 75.6676 102.997 75.4217 102.729C75.2328 102.518 74.8024 102.575 74.6267 102.61C73.8274 102.768 73.0061 103.37 72.8656 103.77C72.769 104.038 72.5143 104.205 72.2464 104.205V104.201Z" fill="#734942"/>
<path d="M83.8854 126.795C79.0044 127.259 76.0998 122.482 75.965 120.671C75.95 120.416 75.965 120.237 76.0549 120.117C76.7286 119.114 78.3007 120.177 82.1337 120.416C85.9666 120.656 91.5063 118.56 92.0154 119.458C92.0603 119.533 92.0903 119.638 92.1202 119.728C92.7491 121.779 89.1707 126.27 83.9004 126.78L83.8854 126.795Z" fill="white"/>
<path d="M83.8862 126.795C79.0052 127.259 76.1006 122.483 75.9658 120.671C77.3583 121.854 79.9186 122.872 83.1526 122.902C86.4914 122.932 90.1147 121.27 92.121 119.728C92.7499 121.779 89.1715 126.271 83.9012 126.78L83.8862 126.795Z" fill="#D8424D"/>
<path d="M80.0771 287.195L91.8736 288.764C91.8736 288.764 99.5945 279.569 105.172 270.55C93.6436 269.746 86.7264 267.545 83.8937 266.442C80.8809 277.873 80.0771 287.191 80.0771 287.191V287.195Z" fill="white"/>
<path d="M110.774 256.671C110.129 247.849 108.895 212.923 108.895 212.923L78.5645 230.742L85.9559 259.443C85.1742 261.824 84.489 264.174 83.8918 266.445C86.7245 267.548 93.6373 269.754 105.17 270.553C108.469 265.22 111.016 259.948 110.779 256.671H110.774Z" fill="#FCBEAF"/>
<path d="M37.4179 259.298C34.023 257.312 30.8477 254.953 27.9798 252.26L14.1543 270.615L23.7593 278.017C23.7593 278.017 35.9993 270.892 45.0114 263.046C44.4317 262.778 43.8871 262.518 43.4172 262.316C41.3574 261.438 39.3547 260.427 37.4179 259.298Z" fill="white"/>
<path d="M46.1525 192.741L34.0398 243.587L27.9834 252.26C30.8469 254.953 34.0266 257.316 37.4215 259.297C39.3539 260.426 41.361 261.437 43.4207 262.316C43.8907 262.518 44.4352 262.777 45.015 263.045C52.2527 256.741 59.3719 249.694 61.5063 244.782C66.2934 233.755 74.1548 197.301 74.1548 197.301L46.1525 192.741Z" fill="#FCBEAF"/>
<path d="M46.2271 190.565L29.626 239.598C29.626 239.598 44.6636 251.297 72.8241 250.778C100.98 250.256 112.895 241.733 112.895 241.733L107.757 192.744" fill="#FF837A"/>
<path d="M14.1572 270.614C12.6201 272.174 9.01435 275.016 7.30592 276.347C5.5975 277.678 2.46611 281.228 1.43403 283.223C0.401946 285.222 0.0857328 287.783 1.06951 289.808C2.11476 291.956 4.32825 293.055 6.44512 293.784C7.2137 294.047 7.99984 294.285 8.80354 294.311C10.2572 294.359 11.6758 293.709 12.8572 292.782C14.043 291.855 16.5112 288.635 17.4862 287.453C19.3528 285.191 21.8956 280.284 23.7622 278.017" fill="#C76660"/>
<path d="M14.3294 270.245C13.3852 271.589 12.1027 273.404 11.5757 274.985C11.0487 276.567 11.0136 278.425 11.8568 279.844C12.7396 281.325 14.4304 282.067 16.0686 282.164C17.4257 282.243 18.7959 281.935 20.0081 281.281C21.3871 280.534 22.5202 279.374 23.6313 278.228C24.3516 277.485 25.0719 276.743 25.7921 276" fill="white"/>
<path d="M60.705 206.152C60.705 207.083 59.9496 207.834 59.0229 207.834C58.0962 207.834 57.3408 207.079 57.3408 206.152C57.3408 205.225 58.0962 204.469 59.0229 204.469C59.9496 204.469 60.705 205.225 60.705 206.152Z" fill="#FFB1AB"/>
<path d="M72.5712 199.558C72.5712 200.489 71.8158 201.24 70.8891 201.24C69.9624 201.24 69.207 200.485 69.207 199.558C69.207 198.631 69.9624 197.875 70.8891 197.875C71.8158 197.875 72.5712 198.631 72.5712 199.558Z" fill="#FFB1AB"/>
<path d="M83.8739 192.528C83.8739 193.46 83.1185 194.211 82.1918 194.211C81.2652 194.211 80.5098 193.455 80.5098 192.528C80.5098 191.601 81.2652 190.846 82.1918 190.846C83.1185 190.846 83.8739 191.601 83.8739 192.528Z" fill="#FFB1AB"/>
<path d="M94.537 186.558C94.537 187.489 93.7816 188.241 92.8549 188.241C91.9282 188.241 91.1729 187.485 91.1729 186.558C91.1729 185.631 91.9282 184.875 92.8549 184.875C93.7816 184.875 94.537 185.631 94.537 186.558Z" fill="#FFB1AB"/>
<path d="M102.985 182.447C103.914 182.447 104.667 181.693 104.667 180.764C104.667 179.835 103.914 179.082 102.985 179.082C102.056 179.082 101.303 179.835 101.303 180.764C101.303 181.693 102.056 182.447 102.985 182.447Z" fill="#FFB1AB"/>
<path d="M47.7631 214.289C48.6921 214.289 49.4452 213.535 49.4452 212.606C49.4452 211.677 48.6921 210.923 47.7631 210.923C46.8341 210.923 46.0811 211.677 46.0811 212.606C46.0811 213.535 46.8341 214.289 47.7631 214.289Z" fill="#FFB1AB"/>
<path d="M54.5399 193.519C54.5399 194.45 53.7845 195.201 52.8579 195.201C51.9312 195.201 51.1758 194.445 51.1758 193.519C51.1758 192.592 51.9312 191.836 52.8579 191.836C53.7845 191.836 54.5399 192.592 54.5399 193.519Z" fill="#FFB1AB"/>
<path d="M66.4061 186.929C66.4061 187.86 65.6507 188.611 64.7241 188.611C63.7974 188.611 63.042 187.856 63.042 186.929C63.042 186.002 63.7974 185.246 64.7241 185.246C65.6507 185.246 66.4061 186.002 66.4061 186.929Z" fill="#FFB1AB"/>
<path d="M77.7079 179.895C77.7079 180.826 76.9525 181.577 76.0258 181.577C75.0991 181.577 74.3438 180.821 74.3438 179.895C74.3438 178.968 75.0991 178.212 76.0258 178.212C76.9525 178.212 77.7079 178.968 77.7079 179.895Z" fill="#FFB1AB"/>
<path d="M88.371 173.925C88.371 174.856 87.6156 175.607 86.6889 175.607C85.7622 175.607 85.0068 174.852 85.0068 173.925C85.0068 172.998 85.7622 172.242 86.6889 172.242C87.6156 172.242 88.371 172.998 88.371 173.925Z" fill="#FFB1AB"/>
<path d="M96.8149 169.812C97.7439 169.812 98.497 169.059 98.497 168.13C98.497 167.201 97.7439 166.447 96.8149 166.447C95.8859 166.447 95.1328 167.201 95.1328 168.13C95.1328 169.059 95.8859 169.812 96.8149 169.812Z" fill="#FFB1AB"/>
<path d="M109.939 161.382C109.939 162.313 109.184 163.064 108.257 163.064C107.331 163.064 106.575 162.309 106.575 161.382C106.575 160.455 107.331 159.699 108.257 159.699C109.184 159.699 109.939 160.455 109.939 161.382Z" fill="#FFB1AB"/>
<path d="M121.266 155.525C121.266 156.457 120.51 157.208 119.583 157.208C118.657 157.208 117.901 156.452 117.901 155.525C117.901 154.598 118.657 153.843 119.583 153.843C120.51 153.843 121.266 154.598 121.266 155.525Z" fill="#FFB1AB"/>
<path d="M59.5116 175.12C59.5116 176.051 58.7562 176.802 57.8295 176.802C56.9029 176.802 56.1475 176.047 56.1475 175.12C56.1475 174.193 56.9029 173.437 57.8295 173.437C58.7562 173.437 59.5116 174.193 59.5116 175.12Z" fill="#FFB1AB"/>
<path d="M70.8124 168.086C70.8124 169.018 70.057 169.769 69.1303 169.769C68.2036 169.769 67.4482 169.013 67.4482 168.086C67.4482 167.159 68.2036 166.404 69.1303 166.404C70.057 166.404 70.8124 167.159 70.8124 168.086Z" fill="#FFB1AB"/>
<path d="M81.4765 162.116C81.4765 163.047 80.7211 163.798 79.7944 163.798C78.8677 163.798 78.1123 163.043 78.1123 162.116C78.1123 161.189 78.8677 160.433 79.7944 160.433C80.7211 160.433 81.4765 161.189 81.4765 162.116Z" fill="#FFB1AB"/>
<path d="M89.9204 158.003C90.8493 158.003 91.6024 157.25 91.6024 156.321C91.6024 155.392 90.8493 154.638 89.9204 154.638C88.9914 154.638 88.2383 155.392 88.2383 156.321C88.2383 157.25 88.9914 158.003 89.9204 158.003Z" fill="#FFB1AB"/>
<path d="M104.586 150.496C104.586 151.427 103.83 152.178 102.904 152.178C101.977 152.178 101.222 151.423 101.222 150.496C101.222 149.569 101.977 148.813 102.904 148.813C103.83 148.813 104.586 149.569 104.586 150.496Z" fill="#FFB1AB"/>
<path d="M116.896 143.717C116.896 144.649 116.141 145.4 115.214 145.4C114.288 145.4 113.532 144.644 113.532 143.717C113.532 142.79 114.288 142.035 115.214 142.035C116.141 142.035 116.896 142.79 116.896 143.717Z" fill="#FFB1AB"/>
<path d="M55.9843 159.845C55.9843 160.776 55.2289 161.527 54.3022 161.527C53.3755 161.527 52.6201 160.772 52.6201 159.845C52.6201 158.918 53.3755 158.162 54.3022 158.162C55.2289 158.162 55.9843 158.918 55.9843 159.845Z" fill="#FFB1AB"/>
<path d="M64.9663 155.557C65.8952 155.557 66.6483 154.803 66.6483 153.874C66.6483 152.945 65.8952 152.191 64.9663 152.191C64.0373 152.191 63.2842 152.945 63.2842 153.874C63.2842 154.803 64.0373 155.557 64.9663 155.557Z" fill="#FFB1AB"/>
<path d="M76.7763 148.08C76.7763 149.011 76.0209 149.762 75.0942 149.762C74.1675 149.762 73.4121 149.007 73.4121 148.08C73.4121 147.153 74.1675 146.397 75.0942 146.397C76.0209 146.397 76.7763 147.153 76.7763 148.08Z" fill="#FFB1AB"/>
<path d="M100.575 140.018C100.575 140.949 99.8197 141.701 98.893 141.701C97.9663 141.701 97.2109 140.945 97.2109 140.018C97.2109 139.091 97.9663 138.335 98.893 138.335C99.8197 138.335 100.575 139.091 100.575 140.018Z" fill="#FFB1AB"/>
<path d="M45.8056 147.671C45.8056 148.602 45.0502 149.353 44.1235 149.353C43.1968 149.353 42.4414 148.598 42.4414 147.671C42.4414 146.744 43.1968 145.988 44.1235 145.988C45.0502 145.988 45.8056 146.744 45.8056 147.671Z" fill="#FFB1AB"/>
<path d="M56.4696 141.7C56.4696 142.632 55.7142 143.383 54.7875 143.383C53.8609 143.383 53.1055 142.627 53.1055 141.7C53.1055 140.773 53.8609 140.018 54.7875 140.018C55.7142 140.018 56.4696 140.773 56.4696 141.7Z" fill="#FFB1AB"/>
<path d="M66.5976 135.906C66.5976 136.838 65.8422 137.589 64.9155 137.589C63.9888 137.589 63.2334 136.833 63.2334 135.906C63.2334 134.979 63.9888 134.224 64.9155 134.224C65.8422 134.224 66.5976 134.979 66.5976 135.906Z" fill="#FFB1AB"/>
<path d="M53.577 225.281C53.577 226.213 52.8216 226.964 51.895 226.964C50.9683 226.964 50.2129 226.208 50.2129 225.281C50.2129 224.354 50.9683 223.599 51.895 223.599C52.8216 223.599 53.577 224.354 53.577 225.281Z" fill="#FFB1AB"/>
<path d="M65.4432 218.686C65.4432 219.618 64.6879 220.369 63.7612 220.369C62.8345 220.369 62.0791 219.613 62.0791 218.686C62.0791 217.76 62.8345 217.004 63.7612 217.004C64.6879 217.004 65.4432 217.76 65.4432 218.686Z" fill="#FFB1AB"/>
<path d="M76.7391 211.658C76.7391 212.589 75.9838 213.34 75.0571 213.34C74.1304 213.34 73.375 212.585 73.375 211.658C73.375 210.731 74.1304 209.975 75.0571 209.975C75.9838 209.975 76.7391 210.731 76.7391 211.658Z" fill="#FFB1AB"/>
<path d="M87.4091 205.687C87.4091 206.618 86.6537 207.37 85.727 207.37C84.8003 207.37 84.0449 206.614 84.0449 205.687C84.0449 204.76 84.8003 204.004 85.727 204.004C86.6537 204.004 87.4091 204.76 87.4091 205.687Z" fill="#FFB1AB"/>
<path d="M97.536 199.888C97.536 200.82 96.7806 201.571 95.854 201.571C94.9273 201.571 94.1719 200.815 94.1719 199.888C94.1719 198.961 94.9273 198.206 95.854 198.206C96.7806 198.206 97.536 198.961 97.536 199.888Z" fill="#FFB1AB"/>
<path d="M106.118 196.751C107.047 196.751 107.8 195.998 107.8 195.069C107.8 194.14 107.047 193.386 106.118 193.386C105.189 193.386 104.436 194.14 104.436 195.069C104.436 195.998 105.189 196.751 106.118 196.751Z" fill="#FFB1AB"/>
<path d="M42.3173 231.735C42.3173 232.666 41.5619 233.417 40.6352 233.417C39.7085 233.417 38.9531 232.662 38.9531 231.735C38.9531 230.808 39.7085 230.052 40.6352 230.052C41.5619 230.052 42.3173 230.808 42.3173 231.735Z" fill="#FFB1AB"/>
<path d="M62.3143 237.638C62.3143 238.569 61.559 239.32 60.6323 239.32C59.7056 239.32 58.9502 238.565 58.9502 237.638C58.9502 236.711 59.7056 235.955 60.6323 235.955C61.559 235.955 62.3143 236.711 62.3143 237.638Z" fill="#FFB1AB"/>
<path d="M74.1776 231.043C74.1776 231.975 73.4222 232.726 72.4956 232.726C71.5689 232.726 70.8135 231.97 70.8135 231.043C70.8135 230.116 71.5689 229.361 72.4956 229.361C73.4222 229.361 74.1776 230.116 74.1776 231.043Z" fill="#FFB1AB"/>
<path d="M86.2948 224.362C86.2948 225.293 85.5394 226.044 84.6127 226.044C83.6861 226.044 82.9307 225.289 82.9307 224.362C82.9307 223.435 83.6861 222.679 84.6127 222.679C85.5394 222.679 86.2948 223.435 86.2948 224.362Z" fill="#FFB1AB"/>
<path d="M96.1415 218.044C96.1415 218.975 95.3861 219.727 94.4594 219.727C93.5327 219.727 92.7773 218.971 92.7773 218.044C92.7773 217.117 93.5327 216.361 94.4594 216.361C95.3861 216.361 96.1415 217.117 96.1415 218.044Z" fill="#FFB1AB"/>
<path d="M106.269 212.25C106.269 213.181 105.514 213.933 104.587 213.933C103.661 213.933 102.905 213.177 102.905 212.25C102.905 211.323 103.661 210.567 104.587 210.567C105.514 210.567 106.269 211.323 106.269 212.25Z" fill="#FFB1AB"/>
<path d="M51.0546 244.092C51.0546 245.023 50.2992 245.774 49.3725 245.774C48.4458 245.774 47.6904 245.019 47.6904 244.092C47.6904 243.165 48.4458 242.409 49.3725 242.409C50.2992 242.409 51.0546 243.165 51.0546 244.092Z" fill="#FFB1AB"/>
<path d="M72.495 249.172C72.495 250.103 71.7396 250.854 70.8129 250.854C69.8863 250.854 69.1309 250.099 69.1309 249.172C69.1309 248.245 69.8863 247.489 70.8129 247.489C71.7396 247.489 72.495 248.245 72.495 249.172Z" fill="#FFB1AB"/>
<path d="M84.6073 243.711C84.6073 244.643 83.8519 245.394 82.9252 245.394C81.9986 245.394 81.2432 244.638 81.2432 243.711C81.2432 242.784 81.9986 242.029 82.9252 242.029C83.8519 242.029 84.6073 242.784 84.6073 243.711Z" fill="#FFB1AB"/>
<path d="M95.9091 236.682C95.9091 237.613 95.1537 238.365 94.227 238.365C93.3003 238.365 92.5449 237.609 92.5449 236.682C92.5449 235.755 93.3003 235 94.227 235C95.1537 235 95.9091 235.755 95.9091 236.682Z" fill="#FFB1AB"/>
<path d="M106.577 230.712C106.577 231.643 105.822 232.394 104.895 232.394C103.968 232.394 103.213 231.639 103.213 230.712C103.213 229.785 103.968 229.029 104.895 229.029C105.822 229.029 106.577 229.785 106.577 230.712Z" fill="#FFB1AB"/>
<path d="M68.626 243.17C68.5074 243.17 68.3933 243.126 68.3054 243.033C68.1385 242.858 68.1473 242.581 68.323 242.414C76.1053 235.064 82.4076 225.953 86.5404 216.077C86.6326 215.853 86.8917 215.747 87.1157 215.84C87.3397 215.932 87.4451 216.191 87.3528 216.415C83.1718 226.405 76.7992 235.618 68.9247 243.051C68.8412 243.13 68.7314 243.17 68.6216 243.17H68.626Z" fill="#CC6868"/>
<path d="M200.777 140.967L237.656 144.947L235.297 158.873C235.297 158.873 218.973 160.257 207.883 158.808" fill="#FCBEAF"/>
<path d="M140.199 116.883C140.137 116.544 140.071 116.193 139.856 115.925C139.645 115.661 139.325 115.516 139.009 115.402C138.534 115.226 138.047 115.095 137.546 115.002C137.296 114.954 137.046 114.919 136.795 114.897C136.668 114.884 136.545 114.875 136.417 114.866C136.316 114.862 136.154 114.796 136.071 114.879C135.965 114.985 136.075 115.139 136.15 115.222C136.861 116.017 138.086 116.07 138.995 116.637C139.083 116.694 139.176 116.764 139.198 116.865C139.237 117.072 138.978 117.19 138.772 117.225C137.911 117.366 136.988 117.287 136.211 117.682C136.053 117.761 135.886 117.898 135.904 118.078C135.926 118.284 136.176 118.376 136.387 118.394C137.19 118.464 138.064 118.183 138.772 118.574C139.733 119.106 139.764 120.511 140.528 121.302C140.607 121.386 140.638 120.507 140.638 120.463C140.634 120.059 140.603 119.655 140.559 119.251C140.476 118.46 140.335 117.673 140.199 116.887V116.883Z" fill="#D19E91"/>
<path d="M144.724 216.951C144.724 216.951 142.757 237.186 145.243 252.918C146.485 260.786 151.786 288.138 151.786 288.138L170.329 288.612C170.329 288.612 176.425 232.024 180.281 232.006C184.071 231.883 186.403 240.982 192.885 254.31C195.815 260.329 201.853 286.631 201.853 286.631L219.223 285.673C219.223 285.673 218.384 230.899 212.851 215.905" fill="#E39E54"/>
<path d="M190.182 85.3623C191.912 87.0054 194.416 92.1146 195.496 94.2409C197.604 98.3925 199.708 102.54 201.816 106.691C203.919 110.834 206.023 114.981 208.127 119.124C208.355 119.576 208.592 120.112 208.377 120.574C208.237 120.881 207.929 121.074 207.639 121.246C204.771 122.959 201.811 124.519 198.772 125.916C198.478 126.052 198.157 126.188 197.841 126.131C197.446 126.061 197.165 125.722 196.923 125.406C195.817 123.97 194.705 122.533 193.599 121.096L196.66 127.045C196.818 127.357 196.69 127.739 196.374 127.884C190.037 130.862 183.317 133.024 176.431 134.302C175.531 134.469 174.564 134.614 173.726 134.25C173.005 133.938 172.491 133.292 172.004 132.677C166.439 125.582 160.875 118.487 155.311 111.392" fill="#844B40"/>
<path d="M134.206 95.6338C133.257 97.8216 132.949 103.506 132.791 105.883C132.475 110.527 132.163 115.17 131.847 119.814C131.531 124.453 131.219 129.088 130.903 133.727C130.868 134.237 130.863 134.817 131.237 135.159C131.487 135.388 131.843 135.445 132.177 135.489C135.488 135.946 138.821 136.218 142.164 136.315C142.489 136.323 142.836 136.328 143.108 136.148C143.442 135.928 143.569 135.506 143.67 135.12C144.127 133.362 144.583 131.61 145.045 129.852L144.57 136.345C144.54 136.789 144.882 137.18 145.33 137.193C152.269 137.435 159.239 136.794 166.016 135.282C166.912 135.085 167.856 134.839 168.484 134.171C169.024 133.6 169.248 132.809 169.45 132.049C171.795 123.342 174.141 114.634 176.486 105.927" fill="#844B40"/>
<path d="M177.921 136.451C182.564 136.267 186.406 136.614 186.406 136.614C186.406 136.614 201.747 137.47 214.04 141.688L215.125 163.025L204.158 163.869L214.119 217.663C214.119 217.663 207.606 221.217 183.684 221.204C160.868 221.191 144.605 217.848 144.605 217.848L141.579 180.8L126.115 180.339C126.115 180.339 126.77 155.315 135.997 146.292C143.419 139.034 161.285 136.605 161.285 136.605C161.285 136.605 165.124 136.258 169.77 136.442" fill="white"/>
<path d="M162.875 134.478C162.344 136.507 161.725 141.045 163.481 142.908C164 143.457 164.702 143.712 165.374 143.905C168.668 144.832 171.778 144.503 174.848 143.607C176.982 142.983 179.288 142.016 180.061 139.745C180.623 138.089 180.219 136.116 179.687 134.311C179.116 132.369 178.093 128.657 177.245 126.812" fill="#E6AD9F"/>
<path d="M139.672 100.532C139.672 100.532 138.939 119.857 145.825 127.866C153.713 137.039 161.021 137.667 168.368 136.907C175.387 136.081 182.699 134.566 188.922 124.189C194.355 115.13 190.358 96.2089 190.358 96.2089L187.381 86.3198L141.016 90.2737L139.672 100.532Z" fill="#FCBEAF"/>
<path d="M143.93 114.709C143.196 112.754 139.885 111.463 138.132 111.572C135.172 111.753 133.89 114.683 133.789 117.301C133.666 120.614 135.229 123.623 138.431 124.831C139.938 125.398 141.554 125.56 143.152 125.622C144.782 125.683 146.376 125.767 147.997 125.486" fill="#FCBEAF"/>
<path d="M186.846 109.74C187.079 107.666 189.973 105.602 191.694 105.277C194.606 104.727 196.569 107.254 197.307 109.766C198.238 112.947 197.461 116.251 194.65 118.206C193.328 119.124 191.8 119.677 190.267 120.13C188.704 120.587 187.175 121.061 185.537 121.184" fill="#FCBEAF"/>
<path d="M158.448 113.14C158.592 114.854 158.263 116.378 156.682 116.51C155.29 116.628 154.517 115.201 154.372 113.487C154.227 111.774 154.64 110.337 156.146 110.21C157.499 110.096 158.303 111.427 158.448 113.14Z" fill="#472725"/>
<path d="M157.509 111.928C157.531 112.209 157.324 112.459 157.043 112.481C156.762 112.503 156.512 112.297 156.49 112.016C156.468 111.734 156.674 111.484 156.955 111.462C157.236 111.44 157.487 111.647 157.509 111.928Z" fill="#FDBFB0"/>
<path d="M177.224 110.615C177.369 112.328 177.039 113.853 175.458 113.984C174.066 114.103 173.293 112.675 173.148 110.962C173.003 109.249 173.416 107.812 174.923 107.685C176.275 107.57 177.079 108.901 177.224 110.615Z" fill="#472725"/>
<path d="M176.428 109.662C176.45 109.943 176.243 110.193 175.962 110.215C175.681 110.237 175.431 110.031 175.409 109.749C175.387 109.468 175.593 109.218 175.874 109.196C176.155 109.174 176.406 109.38 176.428 109.662Z" fill="#FDBFB0"/>
<path d="M154.144 125.98C156.559 125.029 157.745 122.299 156.794 119.884C155.843 117.468 153.114 116.281 150.699 117.233C148.285 118.184 147.098 120.914 148.049 123.329C149.001 125.745 151.729 126.931 154.144 125.98Z" fill="#FFA99F"/>
<path d="M186.746 116.967C186.965 119.554 185.051 121.83 182.464 122.049C179.877 122.269 177.602 120.354 177.382 117.766C177.163 115.178 179.078 112.903 181.664 112.683C184.251 112.464 186.526 114.379 186.746 116.967Z" fill="#FFA99F"/>
<path d="M156.169 88.5778C156.217 89.1797 156.45 89.7508 156.603 90.3351C157.078 92.1231 156.797 94.0561 156.098 95.7694C155.4 97.4828 154.311 99.0116 153.143 100.444C150.248 103.993 146.792 107.086 142.949 109.573C142.541 109.836 142.106 110.118 141.878 110.548C141.373 111.515 142.11 112.639 142.813 113.474C142.167 113.729 141.478 113.289 140.863 112.964C139.357 112.165 137.534 111.98 135.896 112.464C135.035 110.337 134.258 108.145 133.832 105.891C133.555 104.42 133.375 102.93 133.375 101.432C133.375 98.6514 133.99 95.91 134.688 93.217C135.334 90.7392 136.054 88.2703 137.161 85.9638C138.268 83.6574 139.778 81.5092 141.794 79.932C143.608 78.513 145.861 77.3488 147.96 76.3955C150.244 75.3543 152.66 74.5943 155.128 74.1374C156.819 73.8255 159.458 73.3378 161.052 74.2297" fill="#844B40"/>
<path d="M194.57 105.668C195.062 103.304 195.106 102.004 194.728 99.6489C194.122 95.8796 193.459 91.9257 191.865 88.3672C190.231 84.7165 187.592 81.6061 184.627 78.9658C180.872 75.6182 176.739 72.5386 171.698 71.5238C168.821 70.9439 165.87 71.0889 162.967 71.4183C159.633 71.7918 156.028 72.5825 153.915 75.3722L152.835 88.6484C152.76 91.627 153.599 87.1987 155.026 89.8126C155.865 91.3502 167.398 95.8576 167.051 94.9175C168.461 96.4419 186.889 104.912 187.535 105.703C188.457 106.827 189.296 108.088 189.537 109.525C189.559 109.661 190.218 108.927 190.253 108.879C190.486 108.558 190.679 108.202 190.719 107.803C190.749 107.522 190.701 107.236 190.701 106.955C190.701 105.922 191.553 105.839 192.383 105.733C192.528 105.716 194.575 105.668 194.57 105.681V105.668Z" fill="#844B40"/>
<path d="M172.216 104.745C172.009 104.745 171.807 104.648 171.68 104.472C171.469 104.178 171.535 103.765 171.829 103.554C173.213 102.557 175.176 102.513 176.603 103.444C176.911 103.642 176.994 104.051 176.796 104.358C176.599 104.661 176.19 104.749 175.883 104.551C174.917 103.923 173.533 103.954 172.593 104.626C172.475 104.71 172.343 104.749 172.211 104.749L172.216 104.745Z" fill="#734942"/>
<path d="M153.646 107.403C153.484 107.403 153.321 107.346 153.194 107.228C152.93 106.977 152.913 106.56 153.163 106.296C154.327 105.053 156.246 104.627 157.827 105.264C158.165 105.4 158.328 105.782 158.192 106.121C158.056 106.459 157.669 106.621 157.335 106.485C156.264 106.055 154.915 106.353 154.125 107.197C153.998 107.338 153.822 107.403 153.646 107.403Z" fill="#734942"/>
<path d="M190.975 110.034C190.949 109.691 190.927 109.331 191.072 109.019C191.212 108.712 191.489 108.492 191.766 108.303C192.183 108.017 192.622 107.767 193.083 107.556C193.312 107.451 193.549 107.354 193.786 107.271C193.905 107.227 194.023 107.187 194.146 107.148C194.243 107.117 194.383 107.016 194.489 107.073C194.616 107.148 194.546 107.323 194.493 107.424C193.997 108.369 192.82 108.72 192.082 109.493C192.012 109.568 191.937 109.66 191.946 109.766C191.959 109.972 192.24 110.029 192.447 110.012C193.316 109.937 194.19 109.634 195.038 109.827C195.209 109.867 195.407 109.959 195.433 110.135C195.464 110.341 195.24 110.491 195.042 110.561C194.278 110.825 193.364 110.768 192.776 111.321C191.977 112.072 192.288 113.443 191.739 114.396C191.682 114.497 191.441 113.654 191.428 113.61C191.335 113.215 191.265 112.819 191.208 112.415C191.094 111.624 191.037 110.829 190.98 110.034H190.975Z" fill="#DEA58D"/>
<path d="M213.415 123.429C215.277 128.643 215.853 136.481 217.715 141.691C218.984 145.245 220.275 148.848 222.568 152.015C224.856 155.182 228.299 157.919 232.454 158.776C233.986 159.092 235.712 159.114 236.96 158.324C237.926 157.713 238.453 156.711 238.861 155.727C240.548 151.664 240.807 146.928 238.488 142.987C237.794 141.81 224.504 121.891 220.139 116.558" fill="#FCBEAF"/>
<path d="M169.132 128.366C164.477 129.906 160.582 125.897 160.047 124.16C159.976 123.916 159.95 123.737 160.011 123.6C160.444 122.472 162.214 123.158 166.004 122.538C169.794 121.918 174.728 118.641 175.424 119.403C175.484 119.466 175.537 119.561 175.586 119.642C176.656 121.502 174.168 126.678 169.144 128.348L169.132 128.366Z" fill="white"/>
<path d="M169.132 128.366C164.478 129.906 160.582 125.896 160.047 124.16C161.668 125.003 164.391 125.425 167.55 124.734C170.812 124.02 173.974 121.592 175.586 119.642C176.656 121.502 174.168 126.678 169.144 128.348L169.132 128.366Z" fill="#D8424D"/>
<path d="M199.265 117.986C198.553 117.357 197.855 116.646 197.706 115.653C197.631 115.156 197.745 114.629 198.074 114.243C198.909 113.267 200.371 113.742 201.553 114.106C202.686 114.458 205.457 115.886 205.751 114.735C205.852 114.339 205.747 113.922 205.628 113.531C205.172 112.024 203.371 109.085 202.537 107.749C202.027 106.928 201.439 106.115 201.285 105.162C201.285 105.153 201.285 105.144 201.285 105.131C201.092 103.809 202.835 103.11 203.661 104.16C205.088 105.97 206.726 108.444 208.123 110.152C208.334 110.407 208.738 110.174 208.624 109.863C207.978 108.075 206.551 105.623 205.817 104.547C204.886 103.189 203.793 100.791 205.549 100.031C207.368 99.5034 209.12 105.531 211.022 107.78C211.259 108.057 211.702 107.807 211.575 107.464C210.85 105.531 209.91 102.75 209.682 101.256C209.559 100.452 209.528 99.5078 210.139 98.9718C211.43 98.1196 213.433 102.003 214.026 104.125C214.236 104.881 215.001 107.152 215.747 106.91C216.463 106.752 214.601 102.188 215.08 100.501C215.181 100.136 215.356 99.7362 215.716 99.6264C216.151 99.4902 216.577 99.8505 216.867 100.202C218.022 101.595 218.742 103.286 219.45 104.955C221.026 108.685 222.634 112.784 221.514 116.676C220.886 118.851 219.423 120.657 217.961 122.339C217.179 123.231 216.257 124.048 215.137 124.439C213.644 124.966 211.825 124.769 210.284 124.584C208.606 124.382 206.968 123.842 205.703 122.673C203.762 120.876 201.32 119.782 199.287 117.99L199.265 117.986Z" fill="#FCBEAF"/>
<path d="M208.796 113.759C208.664 113.759 208.532 113.698 208.444 113.588C208.3 113.395 208.335 113.118 208.528 112.973C210.649 111.356 212.994 110.073 215.502 109.164C215.731 109.08 215.981 109.199 216.064 109.428C216.148 109.656 216.029 109.906 215.801 109.99C213.376 110.868 211.11 112.107 209.059 113.667C208.98 113.728 208.888 113.759 208.791 113.759H208.796Z" fill="#A37667"/>
<path d="M211.893 122.199C211.695 122.199 211.515 122.063 211.467 121.861C211.076 120.209 210.241 118.689 209.055 117.472C208.884 117.296 208.889 117.019 209.064 116.852C209.24 116.681 209.517 116.685 209.683 116.861C210.983 118.192 211.893 119.853 212.319 121.659C212.376 121.896 212.226 122.133 211.994 122.186C211.958 122.194 211.928 122.199 211.893 122.199Z" fill="#A37667"/>
<path d="M187.195 161.774L187.534 205.073C187.538 205.657 187.042 206.123 186.462 206.079L155.508 203.834C154.942 203.794 154.507 203.32 154.507 202.753L153.084 158.786L186.431 160.965C186.857 160.992 187.191 161.347 187.195 161.774Z" fill="#388A54"/>
<path d="M186.021 160.882L181.515 161.769L182.582 164.748L182.323 209.607C182.323 209.607 183.35 206.47 185.841 206.215L186.016 160.877L186.021 160.882Z" fill="#F5F5F5"/>
<path d="M182.585 164.748L182.325 209.607L150.291 207.283C149.725 207.243 149.29 206.769 149.29 206.202L149.4 160.877L182.585 164.743V164.748Z" fill="#47AD69"/>
<path d="M149.4 160.881L182.585 164.747C182.585 164.747 182.511 162.634 186.024 160.881L153.331 158.812C153.331 158.812 150.182 158.447 149.405 160.881H149.4Z" fill="#E0E0E0"/>
<g style="mix-blend-mode:multiply" opacity="0.6">
<path d="M142.826 196.193C142.826 196.193 146.928 199.55 156.889 197.327C166.85 195.104 174.197 192.736 174.197 192.736C174.197 192.736 181.417 194.853 187.43 191.726L187.184 187.363C187.184 187.363 166.191 184.314 164.627 184.398" fill="#A8A8A8"/>
</g>
<path d="M185.687 175.194C186.776 175.62 187.703 176.569 187.883 177.72C187.966 178.261 187.892 178.814 187.971 179.355C188.186 180.844 189.539 182.267 188.946 183.655C188.744 184.126 188.327 184.517 188.269 185.026C188.221 185.448 188.428 185.852 188.463 186.274C188.555 187.398 187.453 188.224 186.442 188.721C183.399 190.223 179.951 190.9 176.565 190.663C176.152 190.632 175.722 190.588 175.366 190.377C174.541 189.894 174.391 188.787 174.33 187.833C174.202 185.817 174.071 183.779 174.453 181.797C174.874 179.609 175.968 177.29 178.124 176.411C180.391 175.493 183.267 174.241 185.691 175.194H185.687Z" fill="#FCBEAF"/>
<path d="M128.042 180.488C128.016 183.559 127.757 191.479 130.163 193.39C131.143 194.168 132.355 194.594 133.558 194.937C136.193 195.688 138.916 196.11 141.657 196.185C145.601 196.299 170.656 190.939 178.733 189.274C179.005 189.217 179.295 189.151 179.501 188.958C179.76 188.712 179.813 188.33 179.844 187.974C180.129 184.841 179.361 183.172 178.645 180.105C167.103 180.589 157.551 178.48 146.967 180.936" fill="#FCBEAF"/>
<path d="M142.215 105.532C142.075 105.532 141.934 105.461 141.851 105.338C141.714 105.136 141.772 104.864 141.974 104.728C142.184 104.587 142.395 104.447 142.606 104.306C143.937 103.432 145.311 102.522 146.291 101.284C147.441 99.8294 148.755 98.1204 149.809 96.2709C151.579 93.1649 152.127 90.4543 151.583 87.4845C151.539 87.2473 151.697 87.0189 151.934 86.9749C152.171 86.9354 152.4 87.0892 152.444 87.3264C153.028 90.5158 152.448 93.4066 150.568 96.7058C149.484 98.6081 148.148 100.348 146.976 101.828C145.909 103.181 144.473 104.126 143.085 105.04C142.874 105.176 142.663 105.316 142.457 105.457C142.382 105.505 142.299 105.532 142.215 105.532Z" fill="#A3644F"/>
<path d="M188.195 101.616C188.076 101.616 187.958 101.568 187.87 101.471C185.546 98.9233 183.447 97.3154 181.256 96.406C180.202 95.9667 179.064 95.6724 177.962 95.3824L177.312 95.2111C171.883 93.7657 166.653 91.635 161.76 88.8717C160.658 88.2479 159.393 87.4967 158.361 86.473C158.19 86.3017 158.19 86.0249 158.361 85.8536C158.532 85.6823 158.809 85.6823 158.98 85.8536C159.933 86.8025 161.137 87.5142 162.191 88.1117C167.017 90.8355 172.182 92.9398 177.536 94.3676L178.181 94.5389C179.314 94.8333 180.483 95.1408 181.594 95.6021C183.904 96.5642 186.104 98.2424 188.52 100.887C188.682 101.067 188.669 101.344 188.489 101.507C188.405 101.581 188.3 101.621 188.195 101.621V101.616Z" fill="#A3644F"/>
<path d="M172.308 89.3738L165.658 95.3402C165.341 95.6253 165.314 96.1141 165.599 96.432L166.438 97.3674C166.723 97.6853 167.212 97.7118 167.529 97.4267L174.179 91.4603C174.497 91.1752 174.524 90.6863 174.239 90.3684L173.4 89.4331C173.115 89.1152 172.626 89.0886 172.308 89.3738Z" fill="#F2B246"/>
<path d="M188.746 88.0904C188.584 88.0904 188.43 88.0026 188.356 87.8488C186.23 83.6533 182.448 79.9542 177.705 77.4282C175.834 76.4309 174.095 75.75 172.391 75.3458C170.213 74.8318 167.898 74.7483 165.694 75.0998C165.452 75.1393 165.228 74.9768 165.189 74.7351C165.149 74.4935 165.312 74.2695 165.553 74.2299C167.872 73.8565 170.305 73.9488 172.593 74.4847C174.372 74.9065 176.181 75.6138 178.118 76.6462C183.015 79.2557 186.928 83.091 189.137 87.4446C189.247 87.6599 189.159 87.9235 188.944 88.0333C188.883 88.0641 188.812 88.0816 188.746 88.0816V88.0904Z" fill="#A3644F"/>
<path d="M136.274 134.368C136.164 134.368 136.058 134.333 135.971 134.263C135.839 134.158 135.769 134.004 135.769 133.802V127.563C135.769 127.322 135.966 127.124 136.208 127.124C136.449 127.124 136.647 127.322 136.647 127.563V133.578C136.678 133.608 136.7 133.648 136.722 133.687C136.809 133.872 136.744 134.131 136.585 134.259C136.493 134.329 136.383 134.364 136.274 134.364V134.368Z" fill="#A3644F"/>
<path d="M147.164 135.906C146.922 135.906 146.725 135.708 146.725 135.467V131.833C146.725 131.592 146.922 131.394 147.164 131.394C147.405 131.394 147.603 131.592 147.603 131.833V135.467C147.603 135.708 147.405 135.906 147.164 135.906Z" fill="#A3644F"/>
<path d="M193.283 128.065C193.138 128.065 192.997 127.994 192.914 127.862C192.124 126.628 191.526 125.284 191.149 123.869C191.087 123.636 191.223 123.395 191.46 123.333C191.693 123.272 191.935 123.408 191.996 123.645C192.352 124.972 192.91 126.233 193.652 127.392C193.784 127.594 193.722 127.867 193.52 127.999C193.445 128.047 193.366 128.069 193.283 128.069V128.065Z" fill="#A3644F"/>
<path d="M179.899 229.085C167.053 232.341 170.167 279.598 170.575 286.381C171.752 275.908 176.886 232.02 180.281 232.007C184.071 231.884 186.403 240.982 192.886 254.311C194.071 256.745 195.762 262.5 197.361 268.488C195.345 249.066 190.035 226.52 179.903 229.09L179.899 229.085Z" fill="#DE864B"/>
<path d="M224.097 154.063C223.965 154.063 223.833 154.001 223.745 153.891C221.475 150.917 218.906 147.548 218.216 143.519C218.176 143.282 218.335 143.053 218.576 143.014C218.818 142.974 219.042 143.132 219.081 143.374C219.736 147.187 222.235 150.469 224.444 153.36C224.589 153.553 224.553 153.83 224.36 153.975C224.281 154.036 224.189 154.063 224.092 154.063H224.097Z" fill="#A37667"/>
<path d="M199.197 164.501C199.149 164.501 199.105 164.501 199.056 164.501C198.815 164.501 198.617 164.303 198.617 164.062C198.617 163.82 198.793 163.631 199.056 163.622C200.914 163.635 202.776 163.517 204.616 163.293C204.858 163.266 205.078 163.433 205.104 163.675C205.135 163.917 204.963 164.136 204.722 164.163C202.895 164.387 201.033 164.497 199.193 164.497L199.197 164.501Z" fill="#CCCCCC"/>
<path d="M145.444 180.891C145.444 180.891 145.435 180.891 145.431 180.891C145.189 180.883 144.996 180.681 145.005 180.439C145.145 176.002 145.128 171.147 144.956 167.119C144.948 166.877 145.132 166.671 145.378 166.662C145.615 166.653 145.826 166.838 145.835 167.084C146.01 171.134 146.028 176.011 145.883 180.47C145.874 180.707 145.681 180.896 145.444 180.896V180.891Z" fill="#CCCCCC"/>
<path d="M304.912 215.901C304.912 215.901 308.105 233.755 309.435 250.691C309.576 252.505 308.614 289.237 308.614 289.237L289.189 289.847C289.189 289.847 283.01 249.76 273.914 238.847C272.68 237.366 270.418 237.366 269.184 238.847C260.093 249.76 254.419 289.847 254.419 289.847L234.994 289.237C234.994 289.237 233.465 251.451 233.606 249.637C234.932 232.697 238.187 215.897 238.187 215.897" fill="#4783AD"/>
<path d="M222.094 168.675C220.267 174.794 219.863 181.336 220.931 187.636C221.203 189.248 221.98 191.207 223.614 191.256C224.519 191.282 225.3 190.671 225.986 190.083C228.766 187.702 231.467 185.123 233.228 181.916C234.229 180.084 234.901 178.094 235.564 176.112C236.403 173.617 237.242 171.122 238.076 168.626" fill="#E3AB9E"/>
<path d="M317.133 168.675C318.96 174.794 319.364 181.336 318.297 187.636C318.025 189.248 317.247 191.207 315.614 191.256C314.709 191.282 313.927 190.671 313.242 190.083C310.462 187.702 307.761 185.123 306 181.916C304.999 180.084 304.327 178.094 303.664 176.112C302.825 173.617 301.986 171.122 301.151 168.626" fill="#E3AB9E"/>
<path d="M265.855 135.87C261.104 135.681 257.173 136.037 257.173 136.037C257.173 136.037 238.89 138.524 231.296 145.953C221.854 155.187 221.182 169.25 221.182 169.25H235.907L235.684 217.368C235.684 217.368 252.329 220.79 275.676 220.799C300.16 220.812 306.827 217.175 306.827 217.175L305.325 185.254L304.157 169.245H318.883C318.883 169.245 318.215 155.183 308.768 145.948C301.17 138.519 282.891 136.033 282.891 136.033C282.891 136.033 278.961 135.677 274.209 135.866" fill="white"/>
<path d="M261.968 131.793C261.107 133.761 259.759 138.251 261.235 140.413C261.67 141.054 262.342 141.423 262.992 141.722C266.176 143.185 269.368 143.347 272.614 142.93C274.871 142.64 277.357 142.029 278.499 139.859C279.334 138.273 279.237 136.217 278.987 134.302C278.719 132.246 278.28 128.336 277.717 126.333" fill="#E6AD9F"/>
<path d="M241.69 92.4176C241.69 92.4176 238.33 113.026 244.637 122.52C251.866 133.397 259.613 135.045 267.584 135.212C275.213 135.26 283.25 134.614 291.3 124.325C298.327 115.346 296.57 94.5395 296.57 94.5395L294.699 83.5477L244.496 81.6016L241.69 92.4132V92.4176Z" fill="#FCBEAF"/>
<path d="M244.361 108.172C243.838 105.98 240.461 104.157 238.568 104.038C235.375 103.84 233.61 106.806 233.153 109.596C232.578 113.128 233.856 116.563 237.123 118.281C238.66 119.089 240.373 119.48 242.077 119.757C243.812 120.038 245.512 120.341 247.286 120.253" fill="#FCBEAF"/>
<path d="M291.002 108.572C291.525 106.379 294.902 104.556 296.795 104.438C299.988 104.24 301.753 107.205 302.21 109.995C302.785 113.527 301.507 116.963 298.24 118.68C296.703 119.489 294.99 119.88 293.286 120.156C291.551 120.438 289.851 120.741 288.077 120.653" fill="#FCBEAF"/>
<path d="M260.128 108.426C260.058 110.28 259.5 111.87 257.787 111.804C256.281 111.747 255.644 110.113 255.714 108.259C255.784 106.405 256.421 104.92 258.051 104.986C259.518 105.043 260.198 106.576 260.128 108.43V108.426Z" fill="#472725"/>
<path d="M259.541 107.292C259.528 107.599 259.273 107.837 258.966 107.823C258.658 107.81 258.421 107.555 258.434 107.248C258.447 106.94 258.702 106.703 259.009 106.716C259.317 106.73 259.554 106.984 259.541 107.292Z" fill="#FDBFB0"/>
<path d="M280.581 108.225C280.511 110.079 279.953 111.669 278.24 111.604C276.734 111.546 276.097 109.912 276.167 108.058C276.238 106.204 276.874 104.719 278.504 104.785C279.971 104.842 280.651 106.376 280.581 108.23V108.225Z" fill="#472725"/>
<path d="M280.023 107.02C280.01 107.328 279.755 107.565 279.448 107.552C279.141 107.539 278.903 107.284 278.917 106.976C278.93 106.669 279.184 106.432 279.492 106.445C279.799 106.458 280.036 106.713 280.023 107.02Z" fill="#FDBFB0"/>
<path d="M257.611 116.892C257.501 119.69 255.147 121.873 252.345 121.764C249.548 121.654 247.365 119.299 247.475 116.496C247.584 113.698 249.938 111.514 252.74 111.624C255.538 111.734 257.721 114.089 257.611 116.892Z" fill="#FFA99F"/>
<path d="M289.935 116.3C289.825 119.098 287.471 121.282 284.669 121.172C281.872 121.062 279.689 118.707 279.799 115.904C279.909 113.106 282.263 110.922 285.065 111.032C287.862 111.142 290.045 113.497 289.935 116.3Z" fill="#FFA99F"/>
<path d="M249.525 145.896C249.525 145.896 253.904 172.844 235.322 184.464L243.135 153.839" fill="#D4D4D4"/>
<path d="M260.959 81.8076C260.928 82.4578 261.104 83.0992 261.192 83.745C261.46 85.7263 260.902 87.756 259.927 89.5001C258.952 91.2442 257.582 92.7334 256.137 94.1173C252.562 97.5308 248.451 100.386 244.002 102.539C243.528 102.767 243.027 103.009 242.724 103.444C242.052 104.411 242.698 105.715 243.335 106.704C242.606 106.888 241.929 106.33 241.314 105.9C239.804 104.841 237.876 104.402 236.057 104.7C235.421 102.306 234.88 99.8548 234.722 97.3814C234.621 95.7691 234.626 94.1481 234.823 92.5445C235.192 89.566 236.215 86.7104 237.327 83.9163C238.346 81.3507 239.448 78.7983 240.941 76.4787C242.434 74.1547 244.34 72.0547 246.708 70.6313C248.842 69.3529 251.407 68.404 253.783 67.6615C256.37 66.8532 259.057 66.3568 261.763 66.1986C263.616 66.0888 266.51 65.9218 268.1 67.086" fill="#754549"/>
<path d="M289.462 145.896C289.462 145.896 285.083 172.844 303.665 184.464L295.852 153.839" fill="#D4D4D4"/>
<path d="M299.825 105.237C300.664 102.772 300.888 101.384 300.796 98.8096C300.647 94.6888 300.467 90.3659 299.232 86.3417C297.968 82.2122 295.556 78.5307 292.728 75.3017C289.149 71.216 285.135 67.3632 279.864 65.6015C276.86 64.5955 273.676 64.3583 270.523 64.3231C266.904 64.2792 262.934 64.6438 260.299 67.35L257.374 81.4302C256.899 84.6108 257.826 87.8354 259.007 90.8272C259.701 92.5845 260.527 94.3637 261.946 95.6158C263.926 97.3555 266.733 97.7816 269.368 97.7421C272.306 97.6981 275.231 97.1578 277.993 96.1605C276.228 96.3318 274.098 96.3362 273.114 94.8645C272.785 94.3725 272.644 93.7838 272.508 93.2083C272.262 92.1539 272.012 91.0996 271.766 90.0452C273.07 91.864 291.687 103.4 292.271 104.327C293.106 105.659 293.844 107.117 293.909 108.69C293.914 108.839 294.718 108.141 294.762 108.097C295.051 107.785 295.306 107.429 295.403 107.003C295.473 106.704 295.46 106.397 295.499 106.093C295.635 104.986 296.562 105.008 297.462 105.008C297.621 105.008 299.817 105.228 299.812 105.241L299.825 105.237Z" fill="#754549"/>
<path d="M275.676 101.512C275.478 101.512 275.285 101.424 275.153 101.257C274.929 100.967 274.982 100.554 275.272 100.334C276.708 99.2186 278.803 99.0956 280.362 100.031C280.674 100.22 280.775 100.624 280.586 100.936C280.397 101.248 279.993 101.349 279.681 101.16C278.597 100.506 277.081 100.598 276.08 101.376C275.961 101.468 275.817 101.512 275.676 101.512Z" fill="#472725"/>
<path d="M260.159 101.512C260.018 101.512 259.878 101.468 259.755 101.376C258.753 100.598 257.238 100.51 256.153 101.16C255.841 101.349 255.437 101.248 255.249 100.936C255.06 100.624 255.161 100.22 255.473 100.031C257.032 99.0956 259.127 99.2186 260.563 100.334C260.848 100.559 260.901 100.971 260.681 101.257C260.554 101.424 260.356 101.512 260.159 101.512Z" fill="#472725"/>
<path d="M295.39 109.437C295.408 109.068 295.434 108.681 295.627 108.365C295.816 108.053 296.146 107.855 296.466 107.688C296.949 107.438 297.459 107.227 297.977 107.065C298.236 106.981 298.5 106.911 298.767 106.849C298.899 106.818 299.035 106.792 299.167 106.766C299.277 106.744 299.439 106.656 299.54 106.735C299.668 106.832 299.567 107.012 299.501 107.113C298.842 108.062 297.538 108.281 296.642 109.011C296.554 109.081 296.466 109.169 296.457 109.283C296.444 109.507 296.738 109.604 296.962 109.613C297.902 109.648 298.882 109.437 299.764 109.762C299.944 109.828 300.142 109.951 300.147 110.144C300.151 110.368 299.892 110.5 299.672 110.548C298.82 110.728 297.845 110.548 297.142 111.062C296.185 111.761 296.334 113.272 295.623 114.217C295.548 114.318 295.399 113.382 295.395 113.329C295.346 112.894 295.324 112.459 295.315 112.02C295.298 111.159 295.342 110.298 295.39 109.441V109.437Z" fill="#D19E91"/>
<path d="M240.083 110.007C240.065 109.638 240.039 109.252 239.845 108.935C239.657 108.623 239.327 108.426 239.007 108.259C238.523 108.008 238.014 107.797 237.496 107.635C237.237 107.551 236.973 107.481 236.705 107.42C236.574 107.389 236.437 107.362 236.306 107.336C236.196 107.314 236.033 107.226 235.932 107.305C235.805 107.402 235.906 107.582 235.972 107.683C236.631 108.632 237.935 108.852 238.831 109.581C238.919 109.651 239.007 109.739 239.015 109.853C239.029 110.077 238.734 110.174 238.51 110.183C237.57 110.218 236.591 110.012 235.708 110.332C235.528 110.398 235.331 110.521 235.326 110.714C235.322 110.938 235.581 111.07 235.801 111.119C236.653 111.299 237.628 111.119 238.33 111.633C239.288 112.331 239.138 113.842 239.85 114.787C239.924 114.888 240.074 113.952 240.078 113.9C240.127 113.465 240.148 113.03 240.157 112.59C240.175 111.729 240.131 110.868 240.083 110.012V110.007Z" fill="#D19E91"/>
<path d="M243.278 138.853C243.278 138.853 244.406 163.253 234.744 185.254C234.744 185.254 250.695 164.883 250.7 136.951C250.7 136.951 247.472 137.074 243.278 138.858V138.853Z" fill="#474747"/>
<path d="M295.183 138.853C295.183 138.853 294.054 163.253 303.716 185.254C303.716 185.254 287.853 164.707 287.849 136.775C287.849 136.775 290.989 137.074 295.183 138.853Z" fill="#474747"/>
<path d="M250.018 149.542C251.621 150.588 251.735 153.272 250.233 154.454C251.266 155.592 251.41 157.441 250.567 158.729C249.759 159.959 248.297 160.539 246.979 161.198C245.341 162.019 243.817 163.06 242.455 164.286C241.757 164.919 241.015 165.635 240.075 165.705C239.214 165.766 238.397 165.235 237.884 164.541C237.37 163.847 237.102 163.003 236.847 162.182C236.39 160.714 235.929 159.234 235.819 157.705C235.556 154.085 237.541 150.751 240.044 148.282C241.902 146.445 244.441 146.129 246.966 146.151C248.384 146.164 252.03 147.587 250.031 149.547L250.018 149.542Z" fill="#FCBEAF"/>
<path d="M237.091 154.915C236.503 155.662 235.914 156.409 235.33 157.156C231.909 161.5 228.479 165.867 225.765 170.687C223.055 175.506 221.074 180.835 220.802 186.361C220.662 189.239 221.228 192.551 223.679 194.067C225.87 195.42 228.861 194.752 230.855 193.127C232.849 191.497 234.052 189.107 235.08 186.748C237.601 180.967 239.45 174.891 240.583 168.688C240.996 166.421 241.325 164.101 242.327 162.023" fill="#FCBEAF"/>
<path d="M288.358 149.542C286.755 150.588 286.641 153.272 288.143 154.454C287.111 155.592 286.966 157.441 287.809 158.729C288.617 159.959 290.08 160.539 291.397 161.198C293.036 162.019 294.56 163.06 295.921 164.286C296.619 164.919 297.362 165.635 298.301 165.705C299.162 165.766 299.979 165.235 300.493 164.541C301.007 163.847 301.275 163.003 301.529 162.182C301.986 160.714 302.447 159.234 302.557 157.705C302.821 154.085 300.836 150.751 298.332 148.282C296.474 146.445 293.936 146.129 291.411 146.151C289.992 146.164 286.347 147.587 288.345 149.547L288.358 149.542Z" fill="#FCBEAF"/>
<path d="M301.288 154.915C301.876 155.662 302.465 156.409 303.049 157.156C306.47 161.5 309.9 165.867 312.614 170.687C315.324 175.506 317.305 180.835 317.577 186.361C317.718 189.239 317.151 192.551 314.7 194.067C312.509 195.42 309.518 194.752 307.524 193.127C305.53 191.497 304.327 189.107 303.299 186.748C300.778 180.967 298.929 174.891 297.796 168.688C297.383 166.421 297.054 164.101 296.053 162.023" fill="#FCBEAF"/>
<path d="M268.115 126.795C263.234 127.259 260.329 122.482 260.195 120.671C260.18 120.416 260.195 120.237 260.284 120.117C260.958 119.114 262.53 120.177 266.363 120.416C270.196 120.656 275.736 118.56 276.245 119.458C276.29 119.533 276.32 119.638 276.35 119.728C276.979 121.779 273.4 126.27 268.13 126.78L268.115 126.795Z" fill="white"/>
<path d="M268.116 126.795C263.235 127.259 260.33 122.483 260.195 120.671C261.588 121.854 264.148 122.872 267.382 122.902C270.721 122.932 274.344 121.27 276.351 119.728C276.979 121.779 273.401 126.271 268.131 126.78L268.116 126.795Z" fill="#D8424D"/>
<path d="M237.615 230.623C237.435 230.623 237.268 230.513 237.203 230.333C237.119 230.104 237.238 229.854 237.466 229.77C239.644 228.98 241.638 227.811 243.386 226.295C245.174 224.749 246.272 223.128 246.654 221.485C246.706 221.248 246.944 221.103 247.181 221.155C247.418 221.208 247.563 221.445 247.51 221.683C247.084 223.514 245.894 225.289 243.962 226.963C242.13 228.553 240.044 229.775 237.765 230.601C237.716 230.618 237.664 230.627 237.615 230.627V230.623Z" fill="#5DABE0"/>
<path d="M304.534 228.461C304.485 228.461 304.437 228.452 304.389 228.435C301.068 227.266 298.174 224.999 296.242 222.056C296.11 221.854 296.167 221.581 296.369 221.449C296.571 221.318 296.844 221.375 296.975 221.577C298.802 224.362 301.538 226.502 304.679 227.609C304.907 227.688 305.026 227.938 304.946 228.171C304.885 228.351 304.714 228.465 304.534 228.465V228.461Z" fill="#5DABE0"/>
<path d="M270.787 94.9919C270.787 94.9919 270.778 94.9919 270.769 94.9919C268.977 94.9304 267.133 94.1221 265.13 92.523C264.59 92.0924 263.9 91.5037 263.36 90.7701C262.394 89.4697 261.977 87.8442 261.665 86.4208C261.366 85.0633 261.107 83.6795 260.896 82.3C260.861 82.0584 261.024 81.8344 261.265 81.7992C261.511 81.7641 261.731 81.9266 261.766 82.1682C261.972 83.5257 262.227 84.892 262.526 86.2319C262.833 87.6246 263.206 89.0831 264.067 90.2473C264.55 90.8975 265.183 91.4379 265.683 91.8376C267.532 93.3137 269.206 94.0606 270.804 94.1133C271.046 94.1221 271.235 94.3242 271.226 94.5658C271.217 94.803 271.024 94.9919 270.787 94.9919Z" fill="#96595E"/>
<path d="M242.735 100.294C242.582 100.294 242.432 100.215 242.353 100.07C242.235 99.859 242.309 99.5911 242.52 99.4724C245.252 97.9304 247.883 96.1512 250.333 94.1918C251.089 93.5856 251.967 92.8563 252.757 92.026C253.978 90.7432 254.98 89.2232 255.95 87.7558C256.082 87.5537 256.354 87.4966 256.561 87.6328C256.763 87.7646 256.82 88.0414 256.684 88.2435C255.691 89.7416 254.668 91.2923 253.394 92.6323C252.564 93.5021 251.66 94.2577 250.882 94.8816C248.392 96.8717 245.726 98.6773 242.955 100.241C242.885 100.281 242.81 100.298 242.74 100.298L242.735 100.294Z" fill="#96595E"/>
<path d="M296.611 91.2972C296.405 91.2972 296.216 91.1478 296.181 90.937C295.952 89.6673 295.469 88.2923 294.709 86.7327C294.279 85.8497 293.888 84.9447 293.51 84.0704C292.944 82.7656 292.36 81.4125 291.648 80.1473C290.41 77.9331 289.097 76.0792 287.643 74.4801C283.374 69.797 278.165 67.7805 272.974 68.8085C272.737 68.8568 272.504 68.6987 272.456 68.4614C272.408 68.2242 272.566 67.9914 272.803 67.9474C278.31 66.8579 283.809 68.9711 288.293 73.8914C289.795 75.5389 291.139 77.4455 292.412 79.7212C293.146 81.0303 293.739 82.401 294.314 83.7277C294.687 84.5932 295.078 85.4894 295.5 86.3549C296.295 87.9891 296.8 89.4433 297.046 90.792C297.09 91.0292 296.932 91.2577 296.69 91.3016C296.664 91.306 296.637 91.3104 296.611 91.3104V91.2972Z" fill="#96595E"/>
<path d="M270.032 233.464C259.232 234.607 256.29 269.348 255.552 282.844C257.629 270.85 262.478 246.903 269.188 238.85C270.423 237.37 272.684 237.37 273.918 238.85C279.742 245.84 284.367 264.792 286.945 277.519C286.655 256.265 281.573 232.247 270.036 233.464H270.032Z" fill="#3B7196"/>
<path d="M398.469 118.477C398.469 118.477 411.324 104.393 411.324 102.842C411.324 101.291 407.736 75.7976 407.736 75.7976L416.185 71.8218C416.185 71.8218 428.184 99.3407 428.979 106.818C429.774 114.295 407.889 142.829 407.889 142.829" fill="#FCBEAF"/>
<path d="M421.922 107.988C421.847 107.988 421.768 107.97 421.698 107.926C419.291 106.507 416.59 105.255 412.949 103.871C412.721 103.783 412.607 103.533 412.695 103.304C412.782 103.076 413.037 102.962 413.261 103.05C416.955 104.451 419.695 105.721 422.146 107.17C422.357 107.293 422.423 107.561 422.3 107.772C422.216 107.913 422.071 107.988 421.922 107.988Z" fill="#D19E91"/>
<path d="M323.601 162.292C323.601 162.292 320.145 191.713 322.086 203.851C324.027 215.989 324.642 218.296 324.642 218.296L334.392 215.484C334.392 215.484 333.856 194.876 334.704 191.374C335.551 187.873 336.627 173.428 336.627 173.428" fill="#FCBEAF"/>
<path d="M324.349 214.369C324.604 216.614 323.269 218.749 323.155 221.007C323.067 222.773 323.778 224.565 325.056 225.791C326.334 227.017 328.153 227.654 329.918 227.487C331.609 227.329 333.151 226.494 334.635 225.677C334.828 225.115 335.022 224.552 335.21 223.99C335.347 223.599 335.478 223.204 335.544 222.795C335.777 221.363 335.07 219.825 333.836 219.07C334.297 219.399 334.758 219.724 335.219 220.054C335.285 220.102 335.355 220.15 335.439 220.159C335.715 220.185 335.79 219.786 335.751 219.509C335.452 217.391 334.855 215.313 333.989 213.358" fill="#FCBEAF"/>
<path d="M335.93 105.386C335.952 105.034 335.97 104.665 335.82 104.345C335.675 104.028 335.386 103.809 335.096 103.615C334.661 103.325 334.204 103.075 333.73 102.864C333.493 102.759 333.251 102.662 333.005 102.579C332.882 102.535 332.759 102.495 332.636 102.46C332.535 102.429 332.39 102.328 332.285 102.39C332.153 102.469 332.228 102.649 332.285 102.75C332.808 103.716 334.02 104.063 334.793 104.85C334.867 104.929 334.942 105.021 334.938 105.127C334.929 105.342 334.639 105.399 334.424 105.386C333.528 105.32 332.623 105.017 331.753 105.228C331.578 105.272 331.376 105.368 331.349 105.548C331.319 105.764 331.551 105.913 331.758 105.983C332.544 106.247 333.488 106.177 334.099 106.739C334.933 107.503 334.626 108.918 335.201 109.889C335.263 109.99 335.5 109.12 335.513 109.072C335.605 108.663 335.671 108.254 335.728 107.842C335.833 107.029 335.886 106.207 335.935 105.39L335.93 105.386Z" fill="#D19E91"/>
<path d="M334.627 214.39C334.627 214.39 333.735 230.193 335.936 247.19C336.985 255.322 341.895 287.651 341.895 287.651L360.978 288.139C360.978 288.139 367.254 229.903 371.22 229.885C375.12 229.758 377.522 239.119 384.189 252.835C387.202 259.029 394.018 287.901 394.018 287.901L408.774 284.567C408.774 284.567 410.426 228.743 404.729 213.314" fill="white"/>
<path d="M368.79 131.548C373.568 131.354 388.646 121.149 398.47 118.482L412.423 142.364L399.897 158.355L406.037 215.128C406.037 215.128 399.335 218.788 374.715 218.774C351.236 218.761 334.498 215.321 334.498 215.321L334.213 180.325L320.027 179.578C320.027 179.578 320.699 153.826 330.194 144.543C337.832 137.074 351.653 131.719 351.653 131.719C351.653 131.719 355.606 131.363 360.384 131.552" fill="#47AD94"/>
<path d="M353.31 129.518C352.765 131.609 352.128 136.279 353.933 138.195C354.469 138.761 355.189 139.025 355.883 139.218C359.274 140.172 362.471 139.833 365.629 138.911C367.829 138.269 370.201 137.272 370.996 134.939C371.575 133.235 371.158 131.205 370.609 129.347C370.021 127.348 368.971 123.53 368.097 121.628" fill="#E6AD9F"/>
<path d="M339.325 88.8944C339.325 88.8944 333.949 108.057 338.916 117.722C344.608 128.798 351.771 131.179 359.303 132.189C366.523 133.05 374.205 133.288 382.922 124.4C390.533 116.642 391.078 96.745 391.078 96.745L390.472 86.1355L343.123 78.9526L339.316 88.8944H339.325Z" fill="#FCBEAF"/>
<path d="M340.183 104.103C339.92 101.973 336.916 99.886 335.137 99.5697C332.133 99.0425 330.144 101.661 329.419 104.257C328.497 107.543 329.344 110.93 332.256 112.907C333.626 113.839 335.207 114.388 336.793 114.832C338.409 115.284 339.986 115.75 341.672 115.855" fill="#FCBEAF"/>
<path d="M384.32 109.441C385.049 107.42 388.439 106.05 390.244 106.142C393.292 106.291 394.649 109.288 394.781 111.981C394.952 115.39 393.376 118.505 390.095 119.787C388.554 120.389 386.889 120.578 385.246 120.657C383.573 120.741 381.931 120.846 380.262 120.574" fill="#FCBEAF"/>
<path d="M355.088 106.02C354.825 107.768 354.126 109.214 352.51 108.968C351.087 108.752 350.657 107.136 350.925 105.387C351.188 103.639 351.948 102.299 353.485 102.536C354.869 102.747 355.352 104.271 355.088 106.02Z" fill="#472725"/>
<path d="M354.437 104.583C354.393 104.873 354.125 105.071 353.835 105.027C353.546 104.983 353.348 104.715 353.392 104.425C353.436 104.135 353.704 103.937 353.994 103.981C354.283 104.025 354.481 104.293 354.437 104.583Z" fill="#FDBFB0"/>
<path d="M374.482 108.005C374.218 109.753 373.52 111.199 371.904 110.953C370.481 110.737 370.05 109.121 370.318 107.372C370.586 105.624 371.342 104.284 372.879 104.521C374.262 104.732 374.745 106.256 374.482 108.005Z" fill="#472725"/>
<path d="M373.915 106.858C373.871 107.148 373.603 107.346 373.313 107.302C373.023 107.258 372.825 106.99 372.869 106.7C372.913 106.41 373.181 106.213 373.471 106.257C373.761 106.301 373.959 106.569 373.915 106.858Z" fill="#FDBFB0"/>
<path d="M351.809 113.769C351.409 116.409 348.945 118.228 346.301 117.824C343.662 117.424 341.844 114.959 342.248 112.315C342.647 109.674 345.111 107.856 347.755 108.26C350.394 108.66 352.213 111.124 351.809 113.769Z" fill="#FFA99F"/>
<path d="M382.485 116.65C382.086 119.291 379.622 121.109 376.978 120.705C374.339 120.305 372.52 117.841 372.924 115.196C373.324 112.556 375.788 110.737 378.432 111.141C381.076 111.545 382.889 114.006 382.485 116.65Z" fill="#FFA99F"/>
<path d="M358.702 80.895C358.605 81.51 358.702 82.1339 358.715 82.7577C358.741 83.7945 348.64 87.1201 344.174 90.9685C340.445 94.18 342.456 98.0196 340.432 98.7313C339.957 98.8982 339.457 99.074 339.127 99.4518C338.39 100.295 338.859 101.6 339.36 102.606C338.653 102.703 338.069 102.101 337.533 101.626C336.216 100.462 334.437 99.8428 332.68 99.9306C332.333 97.5979 332.078 95.2124 332.193 92.8576C332.434 87.9329 333.945 83.0872 336.444 78.8478C338.763 74.9203 342.153 70.7292 346.387 68.7962C348.544 67.8121 351.078 67.1882 353.405 66.7358C355.944 66.2437 358.539 66.0636 361.117 66.1998C362.887 66.292 365.645 66.4414 367.024 67.7154" fill="#593C36"/>
<path d="M393.033 107.223C394.092 104.978 394.452 103.686 394.636 101.239C394.935 97.3203 395.22 93.2039 394.483 89.2632C393.723 85.2171 391.83 81.4697 389.498 78.1133C386.542 73.8607 383.147 69.7839 378.347 67.5565C375.606 66.2869 372.616 65.7202 369.638 65.3512C366.212 64.925 362.413 64.8459 359.629 67.1304L355.36 80.1562C354.57 83.1216 356.476 78.8865 357.275 81.8476C357.745 83.5873 383.244 92.2682 383.121 91.2446C386.727 92.0617 385.532 104.613 385.984 105.553C386.634 106.902 387.175 108.365 387.074 109.858C387.065 109.999 387.899 109.428 387.943 109.388C388.255 109.125 388.532 108.813 388.668 108.422C388.764 108.145 388.786 107.851 388.857 107.57C389.103 106.533 389.977 106.656 390.833 106.753C390.982 106.77 393.042 107.209 393.033 107.223Z" fill="#593C36"/>
<path d="M375.098 101.802C374.922 101.802 374.751 101.732 374.619 101.595C373.798 100.73 372.397 100.427 371.29 100.879C370.952 101.015 370.57 100.853 370.43 100.519C370.293 100.181 370.452 99.7985 370.79 99.6579C372.406 98.9989 374.374 99.4207 375.572 100.69C375.823 100.954 375.81 101.371 375.546 101.622C375.419 101.74 375.256 101.802 375.094 101.802H375.098Z" fill="#734942"/>
<path d="M355.97 99.1963C355.838 99.1963 355.706 99.1568 355.587 99.0733C354.612 98.3792 353.181 98.3572 352.184 99.0162C351.881 99.2183 351.472 99.1348 351.27 98.8273C351.068 98.5241 351.152 98.1156 351.459 97.9135C352.917 96.9514 354.929 96.9865 356.352 97.9969C356.65 98.2078 356.721 98.6208 356.51 98.9151C356.382 99.0952 356.176 99.1919 355.974 99.1919L355.97 99.1963Z" fill="#734942"/>
<path d="M388.382 110.728C388.439 110.381 388.505 110.016 388.72 109.735C388.931 109.463 389.264 109.309 389.585 109.186C390.072 109.002 390.573 108.857 391.083 108.756C391.337 108.703 391.596 108.663 391.856 108.637C391.983 108.624 392.115 108.611 392.242 108.602C392.347 108.593 392.51 108.527 392.602 108.611C392.712 108.716 392.602 108.874 392.523 108.962C391.798 109.792 390.538 109.858 389.616 110.456C389.523 110.513 389.431 110.588 389.414 110.693C389.379 110.904 389.642 111.027 389.857 111.058C390.744 111.194 391.693 111.097 392.497 111.497C392.659 111.58 392.835 111.717 392.817 111.897C392.8 112.112 392.541 112.209 392.325 112.231C391.5 112.314 390.595 112.037 389.875 112.446C388.891 113.004 388.878 114.454 388.1 115.275C388.017 115.363 387.978 114.458 387.978 114.41C387.978 113.992 388.004 113.575 388.043 113.162C388.118 112.345 388.254 111.536 388.386 110.728H388.382Z" fill="#D19E91"/>
<path d="M361.227 123.53C356.328 123.706 353.708 118.768 353.68 116.951C353.68 116.696 353.706 116.518 353.803 116.404C354.534 115.442 356.041 116.595 359.853 117.06C363.666 117.524 369.319 115.757 369.774 116.683C369.815 116.761 369.838 116.867 369.863 116.958C370.37 119.043 366.534 123.317 361.243 123.516L361.227 123.53Z" fill="white"/>
<path d="M361.228 123.53C356.328 123.706 353.709 118.768 353.681 116.951C355.001 118.214 357.498 119.381 360.724 119.6C364.056 119.826 367.77 118.38 369.864 116.959C370.371 119.043 366.535 123.317 361.244 123.516L361.228 123.53Z" fill="#D8424D"/>
<path d="M396.315 77.6473C395.608 76.9707 394.922 76.2107 394.808 75.1827C394.751 74.6687 394.892 74.1283 395.243 73.7505C396.139 72.7796 397.623 73.3288 398.822 73.7549C399.973 74.1635 402.762 75.7494 403.113 74.5764C403.232 74.1723 403.144 73.7417 403.039 73.3332C402.63 71.7648 400.9 68.6676 400.1 67.2574C399.613 66.3919 399.038 65.5309 398.923 64.5424C398.923 64.5336 398.923 64.5204 398.923 64.5117C398.778 63.1454 400.601 62.4996 401.405 63.611C402.797 65.5309 404.378 68.1404 405.744 69.9592C405.95 70.2316 406.376 70.0075 406.271 69.6824C405.682 67.8197 404.317 65.2365 403.605 64.0987C402.705 62.6665 401.681 60.1536 403.517 59.4419C405.406 58.9762 406.96 65.2453 408.823 67.6396C409.055 67.9339 409.521 67.6923 409.402 67.3365C408.735 65.3156 407.887 62.4205 407.711 60.8741C407.619 60.0438 407.624 59.0685 408.274 58.5457C409.635 57.7242 411.532 61.8011 412.055 64.0064C412.239 64.7884 412.933 67.1607 413.706 66.9455C414.449 66.8137 412.727 62.0427 413.285 60.3293C413.403 59.9603 413.601 59.5561 413.974 59.4551C414.427 59.3321 414.848 59.7231 415.134 60.0965C416.262 61.577 416.934 63.3475 417.589 65.0916C419.056 68.9927 420.536 73.2761 419.222 77.2299C418.489 79.4397 416.908 81.2365 415.331 82.9015C414.492 83.7889 413.509 84.5841 412.34 84.9443C410.781 85.4232 408.919 85.1464 407.343 84.8916C405.625 84.6149 403.965 83.9866 402.709 82.7346C400.786 80.806 398.322 79.5759 396.31 77.6517L396.315 77.6473Z" fill="#FCBEAF"/>
<path d="M406.315 73.6939C406.174 73.6939 406.038 73.628 405.954 73.505C405.814 73.3073 405.862 73.0306 406.064 72.8944C408.313 71.3216 410.777 70.1003 413.39 69.2744C413.623 69.1997 413.868 69.3315 413.939 69.5599C414.013 69.7928 413.886 70.0388 413.653 70.1135C411.124 70.9174 408.739 72.0948 406.565 73.6148C406.49 73.6676 406.402 73.6939 406.315 73.6939Z" fill="#D19E91"/>
<path d="M409.142 82.4982C408.935 82.4982 408.751 82.3532 408.711 82.1423C408.378 80.4246 407.583 78.8255 406.414 77.5251C406.252 77.345 406.265 77.0682 406.445 76.9056C406.625 76.7431 406.902 76.7563 407.064 76.9364C408.342 78.3554 409.208 80.0995 409.572 81.9754C409.62 82.2126 409.462 82.4455 409.225 82.4894C409.199 82.4938 409.168 82.4982 409.142 82.4982Z" fill="#D19E91"/>
<path d="M346.547 87.8966C345.436 89.4299 346.152 91.9296 347.909 92.6413C348.339 91.1344 349.165 89.7418 350.28 88.6347C350.399 88.5161 350.561 88.3887 350.719 88.4458C350.908 88.5117 350.935 88.7621 350.939 88.9642C350.948 89.6144 351.071 90.2777 351.426 90.8225C351.778 91.3672 352.388 91.7714 353.038 91.7582C353.442 90.5809 353.943 89.4386 354.531 88.3491C354.786 87.8747 355.19 87.3431 355.722 87.4178C355.981 87.4529 356.2 87.633 356.363 87.8395C356.824 88.415 356.951 89.1794 357.272 89.8428C357.593 90.5062 358.291 91.1212 358.994 90.906C359.683 90.6951 359.916 89.8604 360.092 89.1575C360.201 88.705 360.346 88.2305 360.689 87.9098C361.031 87.5891 361.629 87.4968 361.954 87.8307C362.099 87.9801 362.169 88.1866 362.23 88.3887C362.551 89.3903 362.872 90.392 363.192 91.3936C363.82 91.376 364.338 90.8664 364.611 90.2997C364.887 89.733 364.984 89.1004 365.199 88.5117C365.261 88.3491 365.335 88.1778 365.485 88.0855C365.647 87.9889 365.854 88.0108 366.034 88.0636C367.351 88.459 367.79 90.1152 367.742 91.4903C368.295 91.622 368.88 91.3013 369.218 90.8445C369.556 90.3876 369.688 89.8121 369.784 89.2497C369.815 89.0564 369.85 88.8543 369.986 88.7138C370.136 88.56 370.373 88.5336 370.584 88.5644C371.708 88.7269 372.121 90.1459 372.081 91.2794C372.072 91.5474 372.13 91.9076 372.397 91.9252C372.485 91.9296 372.569 91.89 372.643 91.8417C373.487 91.297 373.561 89.7945 374.549 89.6275C375.059 89.5441 375.551 89.9175 375.792 90.3744C376.03 90.8313 376.078 91.3629 376.157 91.8725C376.188 92.0702 376.236 92.2942 376.398 92.4084C376.728 92.6413 377.163 92.2547 377.286 91.8725C377.409 91.4903 377.444 91.029 377.769 90.7917C378.212 90.4666 378.871 90.8488 379.095 91.3497C379.323 91.8505 379.288 92.4304 379.411 92.9664C379.438 93.0762 379.477 93.1948 379.574 93.2563C379.758 93.3749 379.991 93.1992 380.136 93.0323C380.663 92.4524 381.19 91.8768 381.713 91.2969C382.174 91.398 382.112 92.0702 381.989 92.527C381.866 92.9839 382.06 93.7 382.512 93.5638C382.617 93.5331 382.705 93.4496 382.784 93.3705C383.829 92.3337 384.677 91.1036 385.279 89.7593C385.481 89.3112 385.652 88.8456 385.683 88.3579C385.74 87.4793 385.318 86.6314 384.778 85.9329C383.988 84.9137 382.938 84.1361 381.901 83.3717C380.557 82.3788 379.205 81.3815 377.725 80.6083C376.201 79.8088 374.563 79.2508 372.92 78.7544C370.834 78.1218 368.708 77.577 366.539 77.3442C362.331 76.8961 358.001 77.6649 354.202 79.5364" fill="#593C36"/>
<path d="M348.565 85.1078C348.565 85.1078 348.543 85.1078 348.53 85.1078C348.289 85.0902 348.109 84.875 348.126 84.6333C348.258 82.9903 348.398 81.2901 348.803 79.6383C349.264 77.758 350.028 76.2028 351.069 75.0255C351.231 74.8453 351.508 74.8278 351.688 74.9859C351.868 75.1485 351.886 75.4252 351.728 75.6054C350.783 76.6773 350.085 78.1007 349.659 79.8448C349.268 81.4263 349.136 83.0913 349.005 84.7036C348.987 84.9321 348.794 85.1078 348.565 85.1078Z" fill="#734C47"/>
<path d="M358.017 85.6257C357.78 85.6257 357.583 85.4368 357.578 85.1952V85.0722C357.578 85.0722 357.578 85.037 357.578 85.0194C357.596 81.1183 358.413 77.2743 359.203 73.5488C359.251 73.3116 359.489 73.1578 359.726 73.2106C359.963 73.2589 360.117 73.4961 360.064 73.7333C359.273 77.4632 358.456 81.3204 358.461 85.1864C358.461 85.428 358.268 85.6213 358.026 85.6257H358.022H358.017Z" fill="#734C47"/>
<path d="M365.677 85.0596C365.435 85.0596 365.238 84.8619 365.238 84.6203C365.229 81.299 365.22 77.8636 364.214 74.6609C364.14 74.4281 364.271 74.1821 364.5 74.1118C364.733 74.0371 364.978 74.1689 365.049 74.3973C366.098 77.7274 366.107 81.2287 366.112 84.6159C366.112 84.8575 365.914 85.0552 365.672 85.0552L365.677 85.0596Z" fill="#734C47"/>
<path d="M371.591 86.5617C371.591 86.5617 371.574 86.5617 371.569 86.5617C371.328 86.5485 371.139 86.342 371.152 86.1004C371.337 82.4848 370.858 78.9088 369.725 75.4733C369.65 75.2448 369.773 74.9944 370.006 74.9197C370.239 74.8451 370.485 74.9681 370.559 75.2009C371.728 78.7418 372.224 82.4233 372.031 86.1487C372.017 86.3816 371.824 86.5661 371.591 86.5661V86.5617Z" fill="#734C47"/>
<path d="M378.247 88.0247C378.247 88.0247 378.221 88.0247 378.203 88.0247C377.961 88.0027 377.786 87.7875 377.808 87.5458C378.159 83.9171 377.259 80.3015 376.385 76.8089C376.328 76.5717 376.468 76.3344 376.705 76.2773C376.943 76.2158 377.18 76.3608 377.237 76.598C378.124 80.1653 379.046 83.8556 378.682 87.6337C378.66 87.8621 378.466 88.0291 378.247 88.0291V88.0247Z" fill="#734C47"/>
<path d="M385.468 89.3818C385.468 89.3818 385.446 89.3818 385.433 89.3818C385.191 89.3643 385.011 89.1534 385.029 88.9118C385.288 85.4763 384.743 81.9749 383.457 78.7811C383.364 78.557 383.474 78.3022 383.698 78.21C383.922 78.1177 384.177 78.2275 384.269 78.4516C385.609 81.7684 386.175 85.4104 385.903 88.9777C385.885 89.2061 385.692 89.3818 385.464 89.3818H385.468Z" fill="#734C47"/>
<path d="M342.603 86.3159C342.379 86.3159 342.185 86.1446 342.163 85.9161C341.913 83.0474 342.427 80.1479 343.639 77.5383C343.74 77.3187 344.004 77.222 344.223 77.3274C344.443 77.4285 344.539 77.6921 344.438 77.9117C343.288 80.3851 342.805 83.1265 343.042 85.8458C343.064 86.0875 342.884 86.3027 342.642 86.3203C342.629 86.3203 342.616 86.3203 342.603 86.3203V86.3159Z" fill="#734C47"/>
<path d="M334.405 203.815L334.445 208.489C344.59 209.003 376.317 210.286 405.123 206.688L404.613 202.185C376.009 205.664 344.406 204.325 334.405 203.815Z" fill="#56D4AE"/>
<path d="M334.286 189.534L334.326 194.208C344.045 194.704 375.442 195.838 403.616 192.6L403.098 188.014C375.143 191.137 343.874 190.026 334.291 189.534H334.286Z" fill="#56D4AE"/>
<path d="M365.153 233.417C358.346 245.784 360.41 272.952 361.512 283.355C363.111 269.437 367.947 229.894 371.218 229.881C375.118 229.753 377.521 239.115 384.188 252.831C385.242 254.997 386.757 259.93 388.285 265.435C386.972 256.64 385.312 247.73 384.117 243.025C381.869 234.186 373.673 217.949 365.158 233.417H365.153Z" fill="#E6E6E6"/>
<path d="M395.106 162.621C394.961 162.621 394.82 162.55 394.737 162.419C394.605 162.217 394.662 161.944 394.864 161.812C396.674 160.639 397.662 159.906 399.102 158.403C399.269 158.228 399.546 158.223 399.722 158.39C399.897 158.557 399.902 158.838 399.735 159.01C398.246 160.565 397.174 161.355 395.339 162.546C395.264 162.594 395.181 162.616 395.101 162.616L395.106 162.621Z" fill="#337D6B"/>
<path d="M334.438 180.382C334.214 180.382 334.021 180.211 334.004 179.982C333.63 176.037 334.004 172.25 334.399 168.244C334.57 166.491 334.75 164.681 334.86 162.862C334.873 162.62 335.088 162.436 335.326 162.449C335.567 162.462 335.752 162.673 335.738 162.915C335.629 164.747 335.449 166.57 335.273 168.327C334.882 172.29 334.509 176.037 334.878 179.894C334.9 180.136 334.724 180.351 334.482 180.373C334.469 180.373 334.456 180.373 334.438 180.373V180.382Z" fill="#337D6B"/>
<path d="M73.5215 42.0452C73.5215 42.0452 76.5255 38.8601 80.219 36.211C83.9126 33.5576 85.4585 28.6196 81.9055 25.9134C77.6015 22.6361 73.5698 29.2479 73.5698 29.2479C73.5698 29.2479 69.5381 22.6317 65.2341 25.9134C61.6811 28.6152 63.227 33.5576 66.9205 36.211C70.6141 38.8645 73.4907 42.0452 73.4907 42.0452H73.5215Z" fill="#DB635A"/>
<path d="M360.863 50.8626C360.863 50.8626 363.771 47.5897 367.381 44.8264C370.991 42.0631 372.383 37.0768 368.751 34.4848C364.346 31.3393 360.521 38.0741 360.521 38.0741C360.521 38.0741 356.291 31.5853 352.088 34.9944C348.619 37.8061 350.314 42.6957 354.087 45.235C357.859 47.7742 360.833 50.867 360.833 50.867H360.863V50.8626Z" fill="#DB635A"/>
<path d="M343.173 63.3125C343.173 63.3125 344.675 61.7222 346.524 60.3955C348.369 59.0687 349.141 56.5998 347.367 55.2467C345.215 53.608 343.199 56.9161 343.199 56.9161C343.199 56.9161 341.183 53.608 339.031 55.2467C337.257 56.5998 338.03 59.0687 339.875 60.3955C341.719 61.7222 343.16 63.3125 343.16 63.3125H343.177H343.173Z" fill="#DB635A"/>
<path d="M140.629 116.879C140.594 116.51 140.554 116.124 140.352 115.816C140.15 115.513 139.816 115.329 139.487 115.175C138.991 114.942 138.477 114.753 137.954 114.608C137.691 114.533 137.423 114.476 137.155 114.424C137.019 114.397 136.887 114.375 136.751 114.358C136.641 114.34 136.474 114.261 136.378 114.34C136.255 114.441 136.36 114.617 136.435 114.714C137.129 115.636 138.442 115.803 139.364 116.497C139.456 116.563 139.549 116.651 139.557 116.761C139.579 116.985 139.289 117.09 139.065 117.108C138.126 117.178 137.142 117.007 136.272 117.367C136.097 117.442 135.903 117.569 135.903 117.762C135.903 117.987 136.171 118.11 136.395 118.149C137.252 118.298 138.218 118.079 138.942 118.562C139.926 119.221 139.834 120.737 140.581 121.655C140.66 121.751 140.769 120.811 140.774 120.759C140.805 120.324 140.809 119.884 140.8 119.449C140.783 118.588 140.704 117.732 140.629 116.875V116.879Z" fill="#D19E91"/>
</g>
<defs>
<clipPath id="clip0_1632_8714">
<rect width="428.526" height="280" fill="white" transform="translate(0.474609)"/>
</clipPath>
</defs>
</svg>
