<svg width="202" height="151" viewBox="0 0 202 151" fill="none" xmlns="http://www.w3.org/2000/svg">
<path d="M19.0703 26.5L7.76172 29.1252V144.432L19.0703 145.644V26.5Z" fill="#C4582A"/>
<path d="M19.0703 26.5L74.9063 34.9814V137.667L19.0703 145.745V26.5Z" fill="#E27343"/>
<path d="M68.9724 45.395C70.2148 41.1683 65.2126 37.6733 62.5728 41.8565C62.011 42.7474 61.6185 43.8122 61.3448 44.8263C61.8922 40.1325 56.9908 42.7003 56.4866 46.0867C56.3786 46.8111 56.429 47.597 56.4866 48.325C56.4866 48.325 67.0529 48.4192 71.7562 48.5604C72.3504 46.4815 71.7202 43.0734 68.976 45.3913L68.9724 45.395Z" fill="white"/>
<path d="M69.4695 88.7804C68.8393 88.2625 68.7709 87.8025 68.6412 86.9695C68.4792 85.9228 68.2595 84.4922 66.7037 83.2101C65.148 81.928 63.7074 81.9932 62.6558 82.0403C61.8203 82.0765 61.3594 82.0982 60.7291 81.5803C60.0989 81.0624 60.0269 80.6024 59.9008 79.773C59.7388 78.7263 59.5191 77.2957 57.9633 76.0136C57.2971 75.4631 56.3103 75.5609 55.7629 76.2345C55.2155 76.9045 55.3127 77.8969 55.9826 78.4474C56.6128 78.9654 56.6813 79.4253 56.8109 80.2583C56.973 81.305 57.1926 82.7356 58.7484 84.0178C60.3042 85.2999 61.7447 85.2347 62.7963 85.1876C63.6318 85.1514 64.0928 85.1297 64.723 85.6476C65.3532 86.1655 65.4217 86.6255 65.5513 87.4585C65.7134 88.5052 65.933 89.9358 67.4888 91.2179C68.1587 91.7684 69.1418 91.6706 69.6892 90.997C70.2366 90.3269 70.1394 89.3346 69.4695 88.7841V88.7804Z" fill="#14AF73"/>
<path d="M57.9634 76.0097C58.6332 76.5602 58.7304 77.5526 58.183 78.2226C57.6356 78.8963 56.6525 78.994 55.9826 78.4435C55.3164 77.893 55.2191 76.9043 55.7629 76.2306C56.3103 75.557 57.2935 75.4592 57.9634 76.0097Z" fill="#FBCD26"/>
<path d="M26.6269 96.5975C27.0339 96.7243 27.268 97.1589 27.1455 97.5718C26.825 98.6402 27.4264 99.7702 28.4888 100.093C28.8994 100.216 29.1335 100.654 29.0074 101.067C28.8814 101.48 28.4492 101.712 28.0387 101.588C26.9763 101.262 25.8563 101.871 25.5357 102.936C25.4133 103.349 24.9775 103.584 24.567 103.457C24.1564 103.334 23.926 102.896 24.0484 102.483C24.3689 101.415 23.7675 100.285 22.7051 99.9622C22.2946 99.839 22.0641 99.4008 22.1865 98.9879C22.309 98.575 22.7447 98.3432 23.1553 98.4664C24.2177 98.7887 25.3377 98.1839 25.6582 97.1154C25.7806 96.7026 26.2128 96.4671 26.6269 96.5939V96.5975Z" fill="#2EA4FF"/>
<path d="M34.9048 77.0715L38.5887 74.7583L39.0254 80.3589L35.3384 82.6721L34.9048 77.0715Z" fill="#FFAE00"/>
<path d="M30 75.8284L33.687 73.5151L38.5887 74.7583L34.9047 77.0716L30 75.8284Z" fill="#FF382E"/>
<path d="M34.9047 77.0713L35.3383 82.6719L30.4336 81.4287L30 75.8281L34.9047 77.0713Z" fill="#5BAB5D"/>
<path d="M70.1821 136.505C69.5795 135.956 69.5324 135.021 70.0817 134.418C71.5159 132.839 71.3967 130.388 69.818 128.954C68.2394 127.52 65.7883 127.639 64.354 129.218C63.8048 129.82 62.8696 129.867 62.267 129.318C61.6644 128.769 61.6173 127.834 62.1666 127.231C64.6993 124.447 69.024 124.24 71.8078 126.77C74.5916 129.299 74.7987 133.621 72.2691 136.408C71.7199 137.01 70.7878 137.057 70.1821 136.508V136.505Z" fill="#FF364A"/>
<path d="M64.3572 129.218C64.9064 128.612 64.8594 127.68 64.2568 127.131C63.6542 126.581 62.719 126.625 62.1697 127.231C61.6205 127.834 61.6676 128.769 62.2702 129.318C62.8727 129.867 63.808 129.82 64.3572 129.218Z" fill="#FBCD26"/>
<path d="M41.4739 57.9804V60.0444L47.7434 60.7033V58.6393L41.4739 57.9804ZM45.6589 64.8682L51.26 65.4569V67.1689L37.9891 65.7741V64.0621L43.5585 64.6475V61.9435L39.3894 61.5053V53.8093L41.4739 54.0284V56.3164L47.7434 56.9753V54.6873L49.812 54.9047V62.6007L45.6589 62.1642V64.8682Z" fill="white"/>
<path d="M31.3072 55.5997L33.5031 55.8305V52.2785L35.6036 52.4993V61.2673L33.5031 61.0465V57.5425L31.3072 57.3117V55.5997ZM32.1824 58.8597L31.164 60.4007C29.5728 59.7054 28.4748 58.55 27.8383 57.1871C27.2018 58.6082 26.0402 59.6861 24.3376 60.0832L23.2715 58.3071C25.5947 57.7353 26.6608 55.9754 26.7245 54.142L23.8443 53.8393V52.1433L31.7209 52.9712V54.6672L28.8726 54.3678C28.9363 56.0545 29.9547 57.8896 32.1824 58.8597ZM30.6548 65.1311C32.5643 65.3318 33.5668 65.0372 33.5668 64.2052C33.5668 63.3732 32.5643 62.8678 30.6548 62.6671C28.7294 62.4648 27.7269 62.7594 27.7269 63.5914C27.7269 64.4234 28.7294 64.9288 30.6548 65.1311ZM30.6548 61.0671C33.7577 61.3933 35.6672 62.634 35.6672 64.426C35.6672 66.218 33.7577 67.0573 30.6548 66.7311C27.536 66.4033 25.6265 65.1626 25.6265 63.3706C25.6265 61.5786 27.536 60.7393 30.6548 61.0671Z" fill="white"/>
<g clip-path="url(#clip0_34_30331)">
<path d="M57.2174 119.436C63.363 113.291 63.363 103.327 57.2174 97.1811C51.0719 91.0356 41.108 91.0356 34.9625 97.1811C28.8169 103.327 28.8169 113.291 34.9625 119.436C41.108 125.582 51.0719 125.582 57.2174 119.436Z" fill="#FF8C62"/>
<path d="M48.6173 117.554C48.3613 115.88 47.8374 114.25 47.6641 112.564C47.6129 112.048 47.5774 111.485 47.2387 111.091C46.8291 110.61 46.124 110.54 45.4938 110.504C45.2496 110.492 44.9897 110.48 44.7691 110.587C44.4304 110.752 44.2807 111.15 44.2098 111.516C44.131 111.95 44.1232 112.395 44.0838 112.836C43.9577 114.305 43.4733 115.715 43.2094 117.164C43.0124 118.248 44.4855 117.96 45.163 117.972C46.1792 117.988 47.1954 117.976 48.2116 117.936C48.3652 117.933 48.5464 117.905 48.6055 117.763C48.633 117.696 48.6251 117.621 48.6133 117.55L48.6173 117.554Z" fill="#EAEAEA"/>
<path d="M36.482 113.769C36.4977 114.053 36.5135 114.348 36.6513 114.593C36.9349 115.093 37.569 115.16 38.1086 115.164C42.1774 115.195 46.3328 115.38 50.3936 115.164C51.6264 115.097 53.0601 115.101 54.2378 114.703C54.6159 114.573 54.9941 114.404 55.2619 114.088C55.7149 113.553 55.7739 112.316 55.7621 111.583C55.6952 108.141 55.9315 105.061 55.6321 101.63C55.6125 101.386 55.5888 101.134 55.4707 100.925C55.1752 100.401 53.9582 100.334 53.3949 100.334C48.9638 100.323 46.3209 100.047 42.5279 100.263C41.5866 100.319 40.6491 100.09 39.7196 100.236C39.0736 100.338 37.5454 100.374 37.057 100.878C36.6592 101.288 36.415 102.95 36.4268 103.533C36.4504 104.58 36.478 105.628 36.5095 106.676C36.5843 109.039 36.3638 111.402 36.482 113.765V113.769Z" fill="#3D3D3D"/>
<path d="M55.5691 113.458C55.4943 113.762 55.4194 113.9 55.2619 114.085C54.9941 114.4 54.6159 114.569 54.2378 114.699C53.0641 115.101 51.6264 115.097 50.3936 115.16C46.3327 115.373 42.1734 115.188 38.1086 115.16C37.569 115.156 36.9309 115.093 36.6513 114.589C36.5134 114.345 36.4977 114.049 36.4819 113.766L55.5691 113.458Z" fill="#F7F7F7"/>
<path d="M37.3327 111.721C37.3445 111.942 37.3602 112.174 37.4823 112.363C37.7344 112.753 38.4513 112.639 38.9397 112.639C42.6224 112.639 46.3879 112.765 50.0667 112.576C51.1813 112.517 52.3433 112.675 53.4067 112.356C53.7494 112.253 54.0921 112.115 54.3363 111.871C54.7498 111.45 54.8089 110.481 54.801 109.914C54.7616 107.223 54.9901 104.872 54.7419 102.19C54.7262 102.001 54.7026 101.804 54.6002 101.638C54.3363 101.229 53.2334 101.185 52.7214 101.189C48.7078 101.205 46.317 100.953 42.8784 101.142C42.0277 101.189 41.1769 101.016 40.334 101.138C39.7471 101.221 38.3646 101.256 37.9195 101.654C37.5572 101.977 37.3248 103.277 37.3366 103.734C37.3524 104.553 37.3721 105.372 37.3957 106.191C37.4508 108.039 37.2381 109.886 37.3327 111.733V111.721Z" fill="#B7EBFF"/>
<path d="M51.9297 117.452C47.2938 117.535 43.7608 117.35 39.5896 117.507C39.5896 117.665 39.5857 117.826 39.5817 117.984L39.4833 117.996C43.6268 118.008 47.7743 117.996 51.9179 117.952C51.9612 117.787 51.9652 117.618 51.9297 117.448V117.452Z" fill="#D6D6D6"/>
<path d="M48.1652 103.356C48.1703 103.289 48.2038 103.074 48.1535 103.022C48.0997 102.965 47.9335 103.037 47.868 103.05C47.6346 103.101 47.3995 103.149 47.1662 103.2C46.6977 103.299 46.2292 103.398 45.7608 103.497C46.0764 103.755 46.3585 103.935 46.654 104.216C46.5835 104.318 46.5096 104.479 46.4324 104.571C46.0025 105.087 45.5811 105.616 45.069 106.054C44.5401 106.509 43.9121 106.805 43.2707 107.067C42.997 107.177 42.7552 107.219 42.4697 107.258C42.4748 107.258 42.6427 107.355 42.6779 107.364C42.8744 107.407 43.1111 107.429 43.3093 107.387C43.3647 107.376 43.8281 107.263 43.8281 107.211C44.53 106.914 45.1932 106.526 45.7977 106.063C46.2746 105.698 46.7094 105.282 47.1678 104.896C47.3962 105.035 47.6128 105.198 47.8093 105.379C47.8596 105.426 47.9453 105.471 47.9872 105.418C48.0023 105.398 48.004 105.371 48.004 105.344C48.0158 104.884 48.0242 104.424 48.0846 103.969C48.1115 103.764 48.1501 103.559 48.1619 103.354L48.1652 103.356Z" fill="#61AA99"/>
<path d="M44.4175 109.34C44.4175 109.206 44.4225 109.073 44.4175 108.939C44.4141 108.821 44.4225 108.677 44.3722 108.565C44.3184 108.442 44.1673 108.445 44.028 108.445C43.8416 108.445 43.6552 108.445 43.4688 108.447C43.4537 108.447 43.4386 108.449 43.4268 108.452C43.3496 108.444 43.2572 108.479 43.2489 108.56C43.2421 108.625 43.2388 108.69 43.2388 108.754C43.2102 108.847 43.2203 108.947 43.2304 109.051C43.2489 109.253 43.269 109.456 43.2891 109.658C43.3093 109.859 43.3362 110.062 43.3328 110.264C43.3311 110.366 43.3462 110.465 43.3614 110.566C43.3698 110.625 43.3899 110.69 43.3832 110.751C43.3765 110.806 43.363 110.855 43.363 110.914C43.363 110.961 43.3966 111.014 43.4537 111.036C43.7005 111.13 43.9776 111.167 44.2496 111.152C44.3403 111.147 44.4192 111.097 44.4175 111.021C44.4108 110.462 44.4108 109.903 44.4175 109.342V109.34Z" fill="#D9924E"/>
<path d="M46.3048 107.552C46.2997 107.481 46.2477 107.434 46.1721 107.429C45.9052 107.411 45.6399 107.417 45.3746 107.448C45.3091 107.454 45.2705 107.498 45.2587 107.545C45.2268 107.595 45.2302 107.669 45.2805 107.706C45.2637 107.978 45.2621 108.254 45.2721 108.524C45.2788 108.663 45.2654 108.806 45.2621 108.945C45.2587 109.086 45.2738 109.226 45.2637 109.367C45.2453 109.639 45.2671 109.913 45.2537 110.186C45.2469 110.327 45.2604 110.467 45.2486 110.608C45.2419 110.68 45.2537 110.747 45.2503 110.818C45.2503 110.878 45.2436 110.92 45.257 110.969C45.2251 111.041 45.2503 111.138 45.3494 111.157C45.5895 111.2 45.8699 111.187 46.115 111.172C46.1906 111.167 46.2393 111.12 46.246 111.049C46.2611 110.902 46.2729 110.755 46.2863 110.608C46.2981 110.473 46.33 110.347 46.3367 110.211C46.3518 109.916 46.3619 109.62 46.3635 109.325C46.3686 108.734 46.3501 108.143 46.3048 107.553V107.552Z" fill="#6D9DBF"/>
<path d="M48.4978 106.329C48.5011 106.254 48.4356 106.209 48.3685 106.2C47.9924 106.153 47.6146 106.151 47.2368 106.192C47.1545 106.151 47.0269 106.192 47.0504 106.331C47.0605 106.392 47.042 106.469 47.042 106.531C47.042 106.593 47.042 106.655 47.047 106.717C47.0537 106.811 47.0638 106.905 47.0772 106.999C47.1528 108.329 47.2301 109.659 47.3056 110.989C47.3106 111.073 47.3711 111.14 47.4584 111.142C47.7724 111.15 48.0847 111.123 48.392 111.063C48.4575 111.049 48.5062 110.977 48.5045 110.913C48.486 109.387 48.4424 107.856 48.4944 106.329H48.4978Z" fill="#F9DD3A"/>
</g>
<g clip-path="url(#clip1_34_30331)">
<rect x="149.688" y="0.480469" width="93" height="93" rx="6" transform="rotate(60 149.688 0.480469)" fill="#FFE9E1"/>
<rect x="165.857" y="112.809" width="22" height="22" rx="4" transform="rotate(45 165.857 112.809)" fill="#FFE9E1"/>
<path d="M133.453 134.018C133.453 139.412 128.839 143.831 123.12 143.831H82.5013C76.7822 143.831 72.168 139.477 72.168 134.018V37.3134C72.168 31.9193 76.7822 27.5 82.5013 27.5H123.12C128.839 27.5 133.453 31.9193 133.453 37.3134V134.018Z" fill="#4429CC"/>
<path d="M131.503 130.963C131.503 136.097 127.149 140.191 121.819 140.191H83.8006C78.4715 140.191 74.1172 136.032 74.1172 130.963V39.6523C74.1172 34.5832 78.4065 30.4238 83.8006 30.4238H121.884C127.214 30.4238 131.568 34.5832 131.568 39.6523V130.963H131.503Z" fill="#1D107A"/>
<path d="M131.049 130.963C131.049 136.097 126.76 140.191 121.561 140.191H84.1916C78.9274 140.191 74.7031 136.032 74.7031 130.963V39.6523C74.7031 34.5182 78.9924 30.4238 84.1916 30.4238H121.561C126.825 30.4238 131.049 34.5832 131.049 39.6523V130.963Z" fill="#9A9A9E"/>
<path d="M131.049 130.897C131.049 136.031 126.825 140.126 121.561 140.126H84.1916C78.9274 140.126 74.7031 135.966 74.7031 130.897V39.7168C74.7031 34.5826 78.9274 30.4883 84.1916 30.4883H121.561C126.825 30.4883 131.049 34.6476 131.049 39.7168V130.897Z" fill="#9D9DA1"/>
<path d="M130.984 130.897C130.984 136.031 126.759 140.126 121.495 140.126H84.256C78.9919 140.126 74.7676 136.031 74.7676 130.897V39.7168C74.7676 34.6476 78.9919 30.4883 84.256 30.4883H121.56C126.824 30.4883 131.049 34.6476 131.049 39.7168V130.897H130.984Z" fill="#A0A0A4"/>
<path d="M130.984 130.897C130.984 136.031 126.759 140.126 121.495 140.126H84.256C78.9919 140.126 74.7676 135.966 74.7676 130.897V39.7818C74.7676 34.6476 78.9919 30.4883 84.256 30.4883H121.495C126.759 30.4883 130.984 34.6476 130.984 39.7168V130.897Z" fill="#A3A3A6"/>
<path d="M130.919 130.834C130.919 135.903 126.694 140.062 121.43 140.062H84.256C79.0569 140.062 74.7676 135.903 74.7676 130.834V39.7832C74.7676 34.714 78.9919 30.5547 84.256 30.5547H121.43C126.629 30.5547 130.919 34.714 130.919 39.7832V130.834Z" fill="#A6A6A9"/>
<path d="M130.918 130.833C130.918 135.902 126.694 140.061 121.495 140.061H84.3209C79.1218 140.061 74.8975 135.902 74.8975 130.833V39.8477C74.8975 34.7785 79.1218 30.6191 84.3209 30.6191H121.43C126.629 30.6191 130.853 34.7785 130.853 39.8477V130.833H130.918Z" fill="#A9A9AC"/>
<path d="M130.853 130.768C130.853 135.837 126.629 139.996 121.43 139.996H84.3209C79.1218 139.996 74.8975 135.837 74.8975 130.768V39.8477C74.8975 34.7785 79.1218 30.6191 84.3209 30.6191H121.43C126.629 30.6191 130.853 34.7785 130.853 39.8477V130.768Z" fill="#ACACAF"/>
<path d="M130.854 130.768C130.854 135.837 126.63 139.996 121.43 139.996H84.3864C79.1872 139.996 74.9629 135.837 74.9629 130.768V39.8477C74.9629 34.7785 79.1872 30.6191 84.3864 30.6191H121.43C126.63 30.6191 130.854 34.7785 130.854 39.8477V130.768Z" fill="#AFAFB2"/>
<path d="M130.789 130.702C130.789 135.772 126.564 139.931 121.365 139.931H84.3861C79.187 139.931 74.9626 135.837 74.9626 130.702V39.9121C74.9626 34.8429 79.187 30.6836 84.3861 30.6836H121.365C126.564 30.6836 130.789 34.7779 130.789 39.9121V130.702Z" fill="#B1B1B4"/>
<path d="M130.724 130.702C130.724 135.771 126.5 139.93 121.3 139.93H84.3864C79.1872 139.93 74.9629 135.836 74.9629 130.702V39.9116C75.0279 34.8424 79.1872 30.748 84.3864 30.748H121.365C126.565 30.748 130.789 34.8424 130.789 39.9766V130.702H130.724Z" fill="#B4B4B7"/>
<path d="M130.724 130.702C130.724 135.771 126.499 139.93 121.365 139.93H84.451C79.2519 139.93 75.0925 135.836 75.0925 130.702V39.9766C75.0275 34.8424 79.2519 30.748 84.451 30.748H121.365C126.564 30.748 130.724 34.8424 130.724 39.9766V130.702Z" fill="#B7B7BA"/>
<path d="M130.659 130.638C130.659 135.708 126.434 139.802 121.3 139.802H84.4511C79.252 139.802 75.0927 135.708 75.0927 130.638V39.978C75.0927 34.9088 79.317 30.8145 84.4511 30.8145H121.3C126.499 30.8145 130.659 34.9088 130.659 39.978V130.638Z" fill="#BABABD"/>
<path d="M130.659 130.638C130.659 135.707 126.499 139.801 121.3 139.801H84.4511C79.252 139.801 75.0927 135.707 75.0927 130.638V40.0424C75.0927 34.9732 79.317 30.8789 84.4511 30.8789H121.235C126.434 30.8789 130.594 34.9732 130.594 40.0424V130.638H130.659Z" fill="#BDBDC0"/>
<path d="M130.594 130.573C130.594 135.642 126.435 139.736 121.236 139.736H84.5167C79.3825 139.736 75.1582 135.642 75.1582 130.573V40.0424C75.1582 34.9732 79.3175 30.8789 84.5167 30.8789H121.301C126.5 30.8789 130.659 34.9732 130.659 40.0424V130.573H130.594Z" fill="#C0C0C2"/>
<path d="M130.594 130.573C130.594 135.642 126.435 139.736 121.236 139.736H84.5167C79.3825 139.736 75.1582 135.642 75.1582 130.573V40.0424C75.1582 34.9732 79.3175 30.8789 84.5167 30.8789H121.236C126.37 30.8789 130.594 34.9732 130.594 40.0424V130.573Z" fill="#C3C3C5"/>
<path d="M130.529 130.507C130.529 135.576 126.369 139.671 121.17 139.671H84.5811C79.447 139.671 75.2227 135.576 75.2227 130.507V40.1069C75.2227 35.0377 79.382 30.9434 84.5811 30.9434H121.235C126.369 30.9434 130.594 35.0377 130.594 40.1069V130.507H130.529Z" fill="#C6C6C8"/>
<path d="M130.529 130.507C130.529 135.576 126.37 139.671 121.236 139.671H84.5816C79.4474 139.671 75.2881 135.576 75.2881 130.507V40.1069C75.2881 35.0377 79.4474 30.9434 84.5816 30.9434H121.171C126.305 30.9434 130.464 35.0377 130.464 40.1069V130.507H130.529Z" fill="#C9C9CB"/>
<path d="M130.464 130.442C130.464 135.511 126.305 139.606 121.171 139.606H84.5816C79.4474 139.606 75.2881 135.511 75.2881 130.442V40.1069C75.2881 35.0377 79.4474 30.9434 84.5816 30.9434H121.171C126.305 30.9434 130.464 35.0377 130.464 40.1069V130.442Z" fill="#CCCCCE"/>
<path d="M130.399 130.442C130.399 135.511 126.239 139.605 121.105 139.605H84.646C79.5119 139.605 75.3525 135.511 75.3525 130.442V40.1713C75.3525 35.1022 79.5119 31.0078 84.646 31.0078H121.17C126.304 31.0078 130.464 35.1022 130.464 40.1713V130.442H130.399Z" fill="#CFCFD1"/>
<path d="M130.399 130.443C130.399 135.512 126.24 139.607 121.105 139.607H84.6463C79.5121 139.607 75.3528 135.512 75.3528 130.443V40.2377C75.3528 35.1686 79.5121 31.0742 84.6463 31.0742H121.105C126.24 31.0742 130.399 35.1686 130.399 40.2377V130.443Z" fill="#D2D2D3"/>
<path d="M130.334 130.378C130.334 135.447 126.175 139.542 121.04 139.542H84.6463C79.5121 139.542 75.3528 135.447 75.3528 130.378V40.2377C75.3528 35.1686 79.5121 31.0742 84.6463 31.0742H121.04C126.175 31.0742 130.334 35.1686 130.334 40.2377V130.378Z" fill="#D5D5D6"/>
<path d="M130.334 130.378C130.334 135.447 126.175 139.542 121.106 139.542H84.7115C79.5773 139.477 75.418 135.382 75.418 130.378V40.2377C75.418 35.1686 79.5773 31.0742 84.6465 31.0742H121.041C126.175 31.0742 130.269 35.1686 130.269 40.2377V130.378H130.334Z" fill="#D8D8D9"/>
<path d="M130.269 130.313C130.269 135.382 126.109 139.476 121.04 139.476H84.7109C79.5768 139.476 75.4824 135.382 75.4824 130.313V40.3022C75.4824 35.233 79.6417 31.1387 84.7109 31.1387H121.04C126.174 31.1387 130.269 35.233 130.269 40.3022V130.313Z" fill="#DBDBDC"/>
<path d="M130.269 130.312C130.269 135.381 126.11 139.411 121.041 139.411H84.7764C79.7072 139.411 75.5479 135.316 75.5479 130.312V40.3017C75.5479 35.2325 79.7072 31.2031 84.7764 31.2031H121.041C126.11 31.2031 130.269 35.2975 130.269 40.3017V130.312Z" fill="#DEDEDF"/>
<path d="M130.204 130.247C130.204 135.316 126.11 139.345 120.976 139.345H84.7764C79.7072 139.345 75.5479 135.251 75.5479 130.247V40.3661C75.5479 35.2969 79.7072 31.2676 84.7764 31.2676H120.976C126.045 31.2676 130.204 35.3619 130.204 40.3661V130.247Z" fill="#E0E0E1"/>
<path d="M130.204 130.247C130.204 135.251 126.11 139.345 120.976 139.345H84.7764C79.7072 139.345 75.5479 135.251 75.5479 130.247V40.3661C75.5479 35.3619 79.6422 31.2676 84.7764 31.2676H120.976C126.045 31.2676 130.204 35.3619 130.204 40.3661V130.247Z" fill="#E3E3E4"/>
<path d="M130.139 130.248C130.139 135.252 126.045 139.347 120.976 139.347H84.8414C79.7722 139.347 75.6779 135.252 75.6779 130.248V40.4325C75.6779 35.4283 79.7722 31.334 84.8414 31.334H120.976C126.045 31.334 130.139 35.4283 130.139 40.4325V130.248Z" fill="#E6E6E7"/>
<path d="M130.139 130.183C130.139 135.187 126.045 139.282 120.976 139.282H84.8414C79.7722 139.282 75.6779 135.187 75.6779 130.183V40.4325C75.6779 35.4283 79.7722 31.334 84.8414 31.334H120.911C125.98 31.334 130.074 35.4283 130.074 40.4325V130.183H130.139Z" fill="#E9E9EA"/>
<path d="M130.074 130.183C130.074 135.187 125.98 139.281 120.91 139.281H84.8413C79.7721 139.281 75.6777 135.187 75.6777 130.183V40.497C75.6777 35.4928 79.7721 31.3984 84.8413 31.3984H120.91C125.98 31.3984 130.074 35.4928 130.074 40.497V130.183Z" fill="#ECECED"/>
<path d="M130.008 130.118C130.008 135.122 125.914 139.216 120.845 139.216H84.9057C79.8365 139.216 75.7422 135.122 75.7422 130.118V40.497C75.7422 35.4928 79.8365 31.3984 84.9057 31.3984H120.91C125.914 31.3984 130.008 35.4928 130.008 40.497V130.118Z" fill="#EFEFEF"/>
<path d="M130.008 130.118C130.008 135.122 125.914 139.216 120.845 139.216H84.9057C79.8365 139.216 75.7422 135.122 75.7422 130.118V40.497C75.7422 35.4928 79.8365 31.3984 84.9057 31.3984H120.845C125.914 31.3984 130.008 35.4928 130.008 40.497V130.118Z" fill="#F2F2F2"/>
<path d="M129.943 130.054C129.943 135.058 125.849 139.152 120.78 139.152H84.9706C79.9014 139.152 75.8721 135.058 75.8721 130.054V40.5634C75.8721 35.5592 79.9664 31.4648 84.9706 31.4648H120.845C125.914 31.4648 130.008 35.5592 130.008 40.5634V130.054H129.943Z" fill="#F5F5F5"/>
<path d="M134.169 42.3828H133.389V54.6008H134.169V42.3828Z" fill="#2A19A5"/>
<path d="M134.169 58.1094H133.389V70.3274H134.169V58.1094Z" fill="#2A19A5"/>
<path d="M122.535 31.4648H83.2159C83.2159 31.4648 76.522 32.9596 75.8721 39.9785V40.4984C75.8721 40.4984 76.392 33.9994 83.6708 32.6347L122.989 32.5047C122.989 32.5047 130.138 33.8695 130.008 41.8632C129.943 41.9282 131.698 33.4145 122.535 31.4648Z" fill="white"/>
<path opacity="0.3" d="M124.224 27.8242H81.9159C81.9159 27.8242 75.222 27.3692 72.8174 36.3378H73.1423C73.1423 36.3378 74.8321 29.5789 81.201 28.5391H123.249C123.249 28.5391 132.543 28.864 133.258 38.1575C133.193 38.1575 134.038 29.7739 124.224 27.8242Z" fill="white"/>
<path d="M111.45 111.374C111.45 119.927 102.94 126.847 92.4532 126.847C81.9661 126.847 73.4561 119.927 73.4561 111.374V106.475C73.4561 97.9217 81.9661 91.002 92.4532 91.002C102.94 91.002 111.45 97.9217 111.45 106.475V111.374Z" fill="url(#paint0_radial_34_30331)"/>
<path d="M84.1155 100.199C84.1155 100.199 91.465 98.2219 101.866 100.199L102.855 103.637C102.855 103.637 93.0123 102.563 83.2129 103.637L84.1155 100.199Z" fill="url(#paint1_linear_34_30331)"/>
<path d="M80.7198 99.9844L79.6883 103.681C79.6883 103.681 78.8287 103.681 76.9806 104.282C76.9376 104.282 76.6797 101.704 80.7198 99.9844Z" fill="url(#paint2_linear_34_30331)"/>
<path d="M118.412 78.4509C118.412 90.2704 108.828 99.8549 97.0083 99.8549H86.736C74.9166 99.8549 65.332 90.2704 65.332 78.4509C65.332 66.6314 74.9166 57.0469 86.736 57.0469H97.0083C108.828 57.0899 118.412 66.6744 118.412 78.4509Z" fill="url(#paint3_radial_34_30331)"/>
<path d="M74.0145 63.1934L74.2723 65.2994C74.2723 65.2994 72.2953 65.9011 70.9629 67.4054C71.0059 67.4054 70.791 64.9126 74.0145 63.1934Z" fill="url(#paint4_linear_34_30331)"/>
<path d="M80.7197 60.5285C80.7197 60.5285 82.8257 59.1102 86.0492 59.411H97.181C97.181 59.411 100.619 59.8408 101.393 61.1302L80.7197 60.5285Z" fill="url(#paint5_linear_34_30331)"/>
<path d="M110.29 77.5914C110.29 80.9869 107.539 83.7376 104.144 83.7376H79.6022C76.2068 83.7376 73.4561 80.9869 73.4561 77.5914C73.4561 74.196 76.2068 71.4453 79.6022 71.4453H104.144C107.539 71.4453 110.29 74.196 110.29 77.5914Z" fill="url(#paint6_radial_34_30331)"/>
<path d="M86.135 77.7643C86.135 79.0967 85.0605 80.1282 83.7711 80.1282C82.4387 80.1282 81.4072 79.0537 81.4072 77.7643C81.4072 76.4319 82.4817 75.4004 83.7711 75.4004C85.0605 75.4004 86.135 76.4749 86.135 77.7643Z" fill="#27A3FF"/>
<path d="M101.608 77.7643C101.608 79.0967 100.533 80.1282 99.2438 80.1282C97.9114 80.1282 96.8799 79.0537 96.8799 77.7643C96.8799 76.4319 97.9544 75.4004 99.2438 75.4004C100.533 75.4004 101.608 76.4749 101.608 77.7643Z" fill="#27A3FF"/>
<path d="M92.4524 51.502H91.3779V57.0464H92.4524V51.502Z" fill="url(#paint7_linear_34_30331)"/>
<path d="M93.7852 49.9985C93.7852 51.073 92.9256 51.8897 91.894 51.8897C90.8195 51.8897 90.0029 51.0301 90.0029 49.9985C90.0029 48.924 90.8625 48.1074 91.894 48.1074C92.9685 48.1074 93.7852 48.924 93.7852 49.9985Z" fill="#27A3FF"/>
<path d="M117.939 69.7695H119.487C119.487 69.7695 121.464 72.6922 121.206 78.8813C121.206 78.8813 121.292 84.4257 119.573 87.1764H117.982L117.939 69.7695Z" fill="url(#paint8_linear_34_30331)"/>
<path d="M116.565 69.7695H118.112C118.112 69.7695 120.089 72.6922 119.831 78.8813C119.831 78.8813 119.917 84.4257 118.198 87.1764H116.608L116.565 69.7695Z" fill="url(#paint9_linear_34_30331)"/>
<path d="M66.0201 69.7695H64.4729C64.4729 69.7695 62.4958 72.6922 62.7537 78.8813C62.7537 78.8813 62.6677 84.4257 64.3869 87.1764H65.9772L66.0201 69.7695Z" fill="url(#paint10_linear_34_30331)"/>
<path d="M67.3522 69.7695H65.8049C65.8049 69.7695 63.8278 72.6922 64.0857 78.8813C64.0857 78.8813 63.9997 84.4257 65.7189 87.1764H67.3092L67.3522 69.7695Z" fill="url(#paint11_linear_34_30331)"/>
<path d="M75.6048 98.8236C74.0146 97.3623 69.0719 100.156 64.516 105.056C59.9601 109.955 57.5532 115.113 59.1435 116.574C60.7337 118.036 65.6764 115.242 70.2323 110.342C74.7452 105.443 77.1521 100.285 75.6048 98.8236Z" fill="url(#paint12_linear_34_30331)"/>
<path d="M130.06 88.1217C128.857 86.3595 123.398 87.9497 117.854 91.732C112.31 95.4712 108.828 99.9841 110.032 101.746C111.235 103.508 116.694 101.918 122.238 98.136C127.739 94.3967 131.264 89.8838 130.06 88.1217Z" fill="url(#paint13_linear_34_30331)"/>
<path d="M131.307 90.7436C131.049 90.7436 130.749 90.7006 130.491 90.6576C129.416 90.4427 128.557 89.841 127.998 88.9384C127.482 88.0358 127.353 86.9613 127.654 85.9298C127.955 84.9413 128.643 84.0817 129.545 83.5229C130.448 82.9642 131.479 82.7923 132.511 82.9642L132.081 85.2421C131.651 85.1562 131.135 85.2421 130.749 85.5C130.319 85.7579 130.018 86.1447 129.889 86.5745C129.76 86.9613 129.803 87.3911 130.018 87.735C130.233 88.0788 130.577 88.2937 130.963 88.3797C131.436 88.4656 131.909 88.3797 132.339 88.1218C132.898 87.778 133.241 87.2192 133.284 86.6175L135.605 86.7035C135.562 88.0788 134.789 89.3682 133.542 90.0989C132.812 90.5287 132.038 90.7436 131.307 90.7436Z" fill="url(#paint14_linear_34_30331)"/>
<path d="M149.708 56.6155C149.708 68.3856 140.19 77.9028 128.42 77.9028C116.65 77.9028 107.133 68.3856 107.133 56.6155C107.133 44.8454 116.65 35.3281 128.42 35.3281C140.19 35.3281 149.708 44.8454 149.708 56.6155Z" fill="url(#paint15_linear_34_30331)"/>
<path d="M125.8 66.3164C125.018 66.3164 124.237 65.9945 123.685 65.4428L116.467 58.1784C115.317 57.029 115.317 55.144 116.467 53.9945C117.616 52.8451 119.501 52.8451 120.65 53.9945L125.754 59.098L135.409 49.2129C136.559 48.0175 138.444 48.0175 139.593 49.167C140.742 50.3164 140.788 52.2014 139.639 53.3509L127.869 65.3968C127.363 65.9945 126.627 66.3164 125.8 66.3164Z" fill="white"/>
<g opacity="0.75">
<path d="M125.8 66.3164C125.018 66.3164 124.237 65.9945 123.685 65.4428L116.467 58.1784C115.317 57.029 115.317 55.144 116.467 53.9945C117.616 52.8451 119.501 52.8451 120.65 53.9945L125.754 59.098L135.409 49.2129C136.559 48.0175 138.444 48.0175 139.593 49.167C140.742 50.3164 140.788 52.2014 139.639 53.3509L127.869 65.3968C127.363 65.9945 126.627 66.3164 125.8 66.3164Z" fill="#C9C9C9"/>
</g>
</g>
<defs>
<radialGradient id="paint0_radial_34_30331" cx="0" cy="0" r="1" gradientUnits="userSpaceOnUse" gradientTransform="translate(92.4351 108.909) scale(20.5552 16.7463)">
<stop stop-color="#F1F1F5"/>
<stop offset="0.551" stop-color="#E4E2EC"/>
<stop offset="1" stop-color="#CFCFDE"/>
</radialGradient>
<linearGradient id="paint1_linear_34_30331" x1="83.2448" y1="101.508" x2="102.895" y2="101.508" gradientUnits="userSpaceOnUse">
<stop stop-color="white"/>
<stop offset="1"/>
</linearGradient>
<linearGradient id="paint2_linear_34_30331" x1="76.9346" y1="102.127" x2="82.1365" y2="102.127" gradientUnits="userSpaceOnUse">
<stop stop-color="white"/>
<stop offset="1"/>
</linearGradient>
<radialGradient id="paint3_radial_34_30331" cx="0" cy="0" r="1" gradientUnits="userSpaceOnUse" gradientTransform="translate(91.8971 78.4668) scale(24.0908 24.0908)">
<stop stop-color="#F1F1F5"/>
<stop offset="0.551" stop-color="#E4E2EC"/>
<stop offset="1" stop-color="#CFCFDE"/>
</radialGradient>
<linearGradient id="paint4_linear_34_30331" x1="71.0065" y1="65.3104" x2="75.5544" y2="65.3104" gradientUnits="userSpaceOnUse">
<stop stop-color="white"/>
<stop offset="1"/>
</linearGradient>
<linearGradient id="paint5_linear_34_30331" x1="80.7118" y1="60.2602" x2="109.182" y2="60.2602" gradientUnits="userSpaceOnUse">
<stop stop-color="white"/>
<stop offset="1"/>
</linearGradient>
<radialGradient id="paint6_radial_34_30331" cx="0" cy="0" r="1" gradientUnits="userSpaceOnUse" gradientTransform="translate(91.8979 77.5925) scale(13.7092 12.7386)">
<stop stop-color="#3E3C44"/>
<stop offset="0.551" stop-color="#242327"/>
<stop offset="1" stop-color="#040100"/>
</radialGradient>
<linearGradient id="paint7_linear_34_30331" x1="91.3594" y1="54.3002" x2="92.4339" y2="54.3002" gradientUnits="userSpaceOnUse">
<stop stop-color="#F1F1F5"/>
<stop offset="0.551" stop-color="#E4E2EC"/>
<stop offset="1" stop-color="#CFCFDE"/>
</linearGradient>
<linearGradient id="paint8_linear_34_30331" x1="119.574" y1="70.1284" x2="119.574" y2="86.5192" gradientUnits="userSpaceOnUse">
<stop stop-color="#F1F1F5"/>
<stop offset="0.5153" stop-color="#D5CFD9"/>
<stop offset="1" stop-color="#BBBBCA"/>
</linearGradient>
<linearGradient id="paint9_linear_34_30331" x1="118.224" y1="69.844" x2="118.224" y2="87.6121" gradientUnits="userSpaceOnUse">
<stop stop-color="#9DA1AF"/>
<stop offset="0.1378" stop-color="#ACB1C5"/>
<stop offset="0.2347" stop-color="#D7DBE7"/>
<stop offset="0.4133" stop-color="#9399B0"/>
<stop offset="0.6318" stop-color="#686D84"/>
<stop offset="1" stop-color="#41434F"/>
</linearGradient>
<linearGradient id="paint10_linear_34_30331" x1="64.3599" y1="70.1284" x2="64.3599" y2="86.5192" gradientUnits="userSpaceOnUse">
<stop stop-color="#F1F1F5"/>
<stop offset="0.5153" stop-color="#D5CFD9"/>
<stop offset="1" stop-color="#BBBBCA"/>
</linearGradient>
<linearGradient id="paint11_linear_34_30331" x1="65.7105" y1="69.844" x2="65.7105" y2="87.6121" gradientUnits="userSpaceOnUse">
<stop stop-color="#9DA1AF"/>
<stop offset="0.1378" stop-color="#ACB1C5"/>
<stop offset="0.2347" stop-color="#D7DBE7"/>
<stop offset="0.4133" stop-color="#9399B0"/>
<stop offset="0.6318" stop-color="#686D84"/>
<stop offset="1" stop-color="#41434F"/>
</linearGradient>
<linearGradient id="paint12_linear_34_30331" x1="64.6758" y1="105.466" x2="70.1986" y2="110.065" gradientUnits="userSpaceOnUse">
<stop stop-color="#F1F1F5"/>
<stop offset="0.551" stop-color="#E4E2EC"/>
<stop offset="1" stop-color="#CFCFDE"/>
</linearGradient>
<linearGradient id="paint13_linear_34_30331" x1="117.932" y1="92.1606" x2="122.288" y2="97.8766" gradientUnits="userSpaceOnUse">
<stop stop-color="#F1F1F5"/>
<stop offset="0.551" stop-color="#E4E2EC"/>
<stop offset="1" stop-color="#CFCFDE"/>
</linearGradient>
<linearGradient id="paint14_linear_34_30331" x1="131.56" y1="86.7239" x2="133.362" y2="80.4915" gradientUnits="userSpaceOnUse">
<stop stop-color="#9DA1AF"/>
<stop offset="0.2347" stop-color="#CFD1E3"/>
<stop offset="0.6318" stop-color="#686D84"/>
<stop offset="1" stop-color="#41434F"/>
</linearGradient>
<linearGradient id="paint15_linear_34_30331" x1="111.584" y1="47.0326" x2="149.836" y2="68.8258" gradientUnits="userSpaceOnUse">
<stop stop-color="#65E9BD"/>
<stop offset="1" stop-color="#0FBB93"/>
</linearGradient>
<clipPath id="clip0_34_30331">
<rect width="32" height="33" fill="white" transform="translate(30 92)"/>
</clipPath>
<clipPath id="clip1_34_30331">
<rect width="145" height="145" fill="white" transform="translate(56.667 0.5)"/>
</clipPath>
</defs>
</svg>
