<svg width="90" height="72" viewBox="0 0 90 72" fill="none" xmlns="http://www.w3.org/2000/svg">
<g clip-path="url(#clip0_364_15889)">
<path d="M89.9978 65.5812L89.582 51.3408C89.4962 48.408 87.0746 46.1352 84.1436 46.2402L69.875 46.7388C68.1692 46.7982 66.6728 47.67 65.7554 48.9756V48.9288C65.7554 46.8468 64.4336 45.6096 62.5538 44.8476L83.0408 44.7846C86.5784 44.7738 89.4512 41.8866 89.4446 38.349L89.4008 15.6354C89.3942 12.126 86.6408 9.31022 83.132 9.22622C64.6844 8.78402 61.9052 8.71622 61.7852 8.71622C60.0692 8.71622 58.4564 9.38522 57.2426 10.6002C56.0294 11.8152 55.3622 13.4298 55.364 15.147L55.3694 19.5456C54.2648 17.0364 51.5492 17.4588 50.4584 17.1414L47.765 17.6646C48.1994 17.2176 48.5744 16.71 48.866 16.1532C51.68 14.7792 51.8498 12.0924 52.55 10.68L50.0552 10.1802C47.9552 9.75962 46.9208 8.59982 44.3054 6.93362C43.8452 10.8882 44.0288 10.2696 43.7738 11.1486C43.4924 12.1236 43.3046 13.0242 43.604 14.0994C43.058 14.385 42.4634 13.8936 42.3524 13.5258C42.161 12.894 42.2774 11.4996 41.6468 10.053C41.1074 8.81702 40.2122 7.97402 39.56 7.36022C38.9714 6.80462 38.1866 6.55442 37.4156 6.63542L25.2422 0.178223L2.66303 9.02462L13.895 12.0384L13.718 18.321C6.47662 19.4802 1.43663 25.6242 1.32263 32.5716C1.23683 37.7262 6.16462 38.49 7.79542 35.8578C9.04042 38.301 11.657 38.3436 12.869 36.8124C13.3838 37.728 14.2826 38.3424 15.2762 38.4642L12.9128 41.112L0.155025 50.7084C-1.66057 62.5704 13.0664 67.4328 13.2824 67.572L18.476 61.2612C20.2568 62.4882 25.3448 64.7136 27.3374 65.5722C27.6434 69.3972 31.2866 71.0856 35.2388 71.3916C47.4266 72.342 48.818 66.309 49.676 65.202C50.4704 65.724 52.2698 68.4264 55.679 67.7178C57.0992 67.4178 59.2538 66.8202 61.4534 65.6778C62.7668 64.9932 63.8324 63.9786 64.5704 62.7654L64.4966 66.2514C64.4342 69.1968 66.8006 71.6202 69.7502 71.6202H69.7508C69.8246 71.6202 69.8984 71.6184 69.9728 71.6154L84.9626 70.9878C87.8222 70.8678 90.0812 68.4432 89.9978 65.5818V65.5812Z" fill="white"/>
<path d="M15.6663 31.8307C15.0873 32.5813 14.7123 33.4879 14.5923 34.4281C14.3379 36.4261 15.9879 36.8953 16.6251 35.5699C16.8069 35.1919 16.8729 34.7701 17.0091 34.3735C17.5455 32.8075 18.7209 32.4577 19.2591 31.9735C20.8161 30.5731 18.1869 28.5643 15.6663 31.8301V31.8307Z" fill="#AAD66D"/>
<path d="M13.8482 29.8691C12.5096 30.9233 11.6408 32.5529 11.5106 34.2521C11.378 35.9885 10.4204 35.9927 9.85157 35.0903C8.00177 32.1563 12.2312 26.1575 17.0378 25.8635C18.7982 25.7561 19.6562 27.2147 17.5202 28.2035C16.253 28.7903 14.8214 29.1023 13.8476 29.8691H13.8482Z" fill="#AAD66D"/>
<path d="M9.45275 26.0097C7.31675 27.7941 6.06035 30.5847 6.13955 33.3663C6.22115 36.2325 3.44315 35.5977 3.49235 32.6085C3.60515 25.7595 9.25115 20.2479 16.1061 20.3079C17.6997 20.3217 18.3345 21.4311 16.9047 22.1379C14.4177 23.3673 11.6421 24.1803 9.45214 26.0097H9.45275Z" fill="#AAD66D"/>
<path d="M32.799 59.6633C30.5106 59.2001 28.188 58.7249 26.1162 57.6491C24.0444 56.5727 22.2198 54.7967 21.6336 52.5365C20.4858 48.1097 24.8226 39.3263 39.5706 44.0981C47.6622 46.7159 55.2054 51.0173 61.0524 57.0755C61.1004 55.0301 60.9756 52.9805 59.7696 50.9345C52.1184 45.1529 43.3122 40.2599 33.7374 39.7199C30.189 39.5201 26.541 39.9491 23.337 41.4881C20.133 43.0271 17.4138 45.7679 16.3908 49.1717C15.3678 52.5755 16.2654 56.6087 18.9726 58.9115C21.1134 60.7325 30.0852 64.4003 32.2296 65.2427C32.3586 63.4601 32.487 61.6781 32.799 59.6639V59.6633Z" fill="#C0CCCE"/>
<path d="M63.5851 48.9293L63.5503 58.6691C63.5437 60.8063 62.3467 62.7647 60.4513 63.7523C58.4701 64.7813 56.5273 65.3195 55.2313 65.5931C53.0713 66.0425 50.8549 63.3461 50.8729 63.3587C49.9489 62.5331 48.4951 62.7941 47.9155 63.8891C47.1055 64.9853 46.5055 70.0913 35.4085 69.2273C32.4703 68.9999 29.2939 67.8431 29.5003 64.8863L30.2485 53.8757C30.3313 52.6625 31.3279 51.7067 32.5447 51.6875C47.3329 51.4403 54.8419 48.6713 58.0075 47.0369C60.4201 45.7913 62.4949 47.2625 62.6107 47.2955C63.2107 47.6171 63.5851 48.2387 63.5851 48.9293Z" fill="#8B59D3"/>
<path d="M63.5498 58.6692C63.5432 60.8064 62.3462 62.7648 60.4508 63.7524C58.4696 64.7814 56.5268 65.3196 55.2308 65.5932C53.0708 66.0426 50.8544 63.3462 50.8724 63.3588C49.9484 62.5332 48.4946 62.7942 47.915 63.8892C47.105 64.9854 46.505 70.0914 35.408 69.2274C35.39 69.2088 33.011 67.9176 33.1958 65.0742L33.8408 55.1574C33.896 54.3054 34.6004 53.6418 35.4542 53.631C51.9476 53.4234 59.9096 49.848 63.1712 47.7576C63.9026 48.6564 63.4436 48.8004 63.5504 58.6692H63.5498Z" fill="#A369F7"/>
<path d="M56.6654 52.8528C56.4608 53.0748 56.3978 53.4576 56.6138 53.6688C57.245 54.2868 61.4942 53.0802 62.0612 52.041C62.1782 51.8268 62.1722 51.5268 61.9856 51.3696C61.5344 50.9898 57.0092 52.4796 56.6654 52.8528Z" fill="#FFB020"/>
<path d="M60.9199 54.1129C59.9557 54.5143 59.8681 54.5287 59.8003 54.6499C59.7097 54.8125 59.8021 55.0933 60.2629 55.1461C60.9715 55.2271 61.6147 54.8647 61.7077 54.6775C61.9441 54.2029 61.0525 54.1801 60.9199 54.1123V54.1129Z" fill="#FF605B"/>
<path d="M36.4449 65.2431C36.8406 65.2431 37.1613 64.9224 37.1613 64.5267C37.1613 64.131 36.8406 63.8103 36.4449 63.8103C36.0493 63.8103 35.7285 64.131 35.7285 64.5267C35.7285 64.9224 36.0493 65.2431 36.4449 65.2431Z" fill="#FFB020"/>
<path d="M66.9731 51.9285L66.6677 66.2979C66.6299 68.0787 68.1029 69.5217 69.8825 69.4473L84.8717 68.8197C86.5595 68.7489 87.8771 67.3347 87.8273 65.6463L87.4115 51.4059C87.3617 49.6953 85.9289 48.3519 84.2189 48.4113L69.9503 48.9099C68.3141 48.9669 67.0073 50.2917 66.9725 51.9285H66.9731Z" fill="#F48682"/>
<path d="M74.2888 55.1064L74.4424 62.2386C74.458 62.9622 75.2374 63.4092 75.8698 63.057L81.382 59.9892C81.9976 59.6466 82.0474 58.7802 81.475 58.3692L75.8092 54.3042C75.166 53.8428 74.272 54.3138 74.2888 55.1052V55.1064Z" fill="white"/>
<path d="M57.5343 15.1455L57.5619 38.4327C57.5649 40.7841 59.4759 42.6873 61.8273 42.6801L83.0337 42.6153C85.3803 42.6081 87.2775 40.7013 87.2727 38.3547L87.2289 15.6411C87.2247 13.3353 85.3833 11.4537 83.0787 11.3979L61.8879 10.8897C59.4981 10.8321 57.5307 12.7557 57.5337 15.1461L57.5343 15.1455Z" fill="#76A0EE"/>
<path d="M68.8748 32.1488C67.055 31.2944 65.5694 29.7488 64.7882 27.8966C63.176 24.074 64.6898 19.6532 68.144 17.6996C70.148 16.5662 74.1164 15.776 76.5608 16.7408C80.219 18.185 82.0844 23.198 79.1828 28.4366C78.086 30.4166 76.5158 32.093 74.7716 33.5408C72.8102 33.5924 70.8488 33.0746 68.8754 32.1482L68.8748 32.1488Z" fill="#F3C97C"/>
<path d="M73.254 34.8248C73.0068 34.8248 72.8058 34.6256 72.8034 34.3784C72.7824 31.8866 72.8958 29.375 73.1424 26.8886C72.423 26.9942 71.6988 27.014 70.9788 26.9492C70.8204 29.3522 70.4214 31.7468 70.0344 34.0664C69.9936 34.3118 69.7614 34.478 69.516 34.4366C69.2706 34.3958 69.105 34.1636 69.1458 33.9182C69.5322 31.5986 69.9318 29.2046 70.0842 26.8238C69.4536 26.7038 68.8416 26.5082 68.4018 26.0378C67.9122 25.5134 67.7382 24.5834 68.3124 23.9942C68.9622 23.327 70.1238 23.6216 70.6242 24.3842C70.9572 24.8918 71.025 25.4858 71.0208 26.0492C71.7918 26.1224 72.5616 26.084 73.2402 25.961C73.3476 25.007 73.3914 24.3962 73.698 23.9006C74.262 22.9874 75.513 22.9334 75.927 23.9216C76.3182 24.8558 75.819 26.1404 74.0682 26.6858C73.8048 29.2358 73.6824 31.8146 73.704 34.3718C73.7064 34.6208 73.506 34.8236 73.2576 34.826H73.254V34.8248ZM69.06 25.4222C69.3234 25.7042 69.7512 25.8344 70.1202 25.9124C70.1094 25.2632 69.933 24.5888 69.2814 24.5264C68.7678 24.476 68.748 25.0892 69.06 25.4228V25.4222ZM74.2284 25.2782C74.2116 25.4132 74.1954 25.5482 74.1792 25.6832C76.1778 24.7856 74.5332 22.8122 74.2284 25.2782Z" fill="white"/>
<path d="M67.4869 31.6831C70.4659 32.2045 73.5175 32.3095 76.5247 31.9945C76.3903 33.6457 76.1749 35.2903 75.8791 36.9205C75.6415 38.2291 75.2923 38.8549 73.4749 39.1837C71.9503 39.4597 70.2733 39.4975 68.9677 38.6629C68.0647 38.0857 67.9573 37.5223 67.9363 36.5509C67.9021 34.9555 67.8679 33.3595 67.4863 31.6831H67.4869Z" fill="#A369F7"/>
<path d="M2.15156 51.9235C2.15156 51.9235 0.824357 59.7901 12.6462 64.9291L27.4464 46.9465C27.4464 46.9465 35.73 47.0473 39.8802 40.2913L42.9138 36.8641L39.6756 30.3319L44.6706 24.5953C44.6706 24.5953 50.0766 24.1177 52.89 22.1737C53.9532 21.4393 53.5734 19.7857 52.2942 19.6009L50.511 19.3435L42.6174 20.8765L31.9836 26.9317L22.7958 33.2995L14.3886 42.7183L2.15096 51.9235H2.15156Z" fill="#FAD1DA"/>
<path d="M27.9029 41.2627C27.2381 43.0477 28.1147 43.7539 29.2217 43.4737C30.0665 43.2601 30.7949 42.4267 31.8467 41.8399C33.0095 41.9935 34.2371 41.4751 34.9391 40.5355C35.1365 40.2709 35.3051 39.9667 35.5895 39.7981C35.8949 39.6175 36.2723 39.6301 36.6209 39.5623C38.0945 39.2749 38.8355 37.6549 39.9743 36.6769C41.3123 35.5279 42.2135 35.7091 42.9557 32.3365C43.3571 30.5113 43.2395 29.7259 41.7047 28.4377C40.2137 27.1861 38.5391 26.1529 36.7511 25.3831C35.2709 24.7453 33.5879 24.2875 32.0621 24.8071C31.2287 25.0909 30.5183 25.6429 29.8253 26.1847C27.0005 28.3945 24.1085 30.6793 22.2929 33.7723C21.7505 34.6963 21.3035 35.8051 21.6509 36.8191C21.7847 37.2097 22.0289 37.5541 22.2989 37.8667C23.7431 39.5359 26.0705 40.3921 28.2521 40.0567C28.1597 40.4311 28.0721 40.8073 27.9023 41.2627H27.9029Z" fill="#FAD1DA"/>
<path d="M31.456 41.1943C31.5862 40.3405 31.6708 39.5263 31.2874 38.9449C31.0786 38.6281 30.7342 38.3917 30.3694 38.1409L30.3034 38.0953C28.9942 37.1929 27.7582 36.1675 26.6296 35.0485C26.4532 34.8733 26.452 34.5883 26.6272 34.4119C26.8024 34.2355 27.088 34.2343 27.2644 34.4095C28.3552 35.4913 29.5498 36.4819 30.8152 37.3543L30.88 37.3993C31.2802 37.6747 31.7338 37.9861 32.0398 38.4493C32.599 39.2971 32.4982 40.3375 32.347 41.3305C32.257 41.9197 31.3666 41.7841 31.4566 41.1949L31.456 41.1943Z" fill="#D8B1BA"/>
<path d="M35.0407 39.4669C35.0371 39.0211 35.1151 38.5891 35.1913 38.1715C35.2975 37.5871 35.3977 37.0357 35.2531 36.5389C35.0629 35.8819 34.4431 35.3677 33.8773 34.9369C32.8321 34.1407 31.7293 33.3949 30.6007 32.7193C30.3871 32.5915 30.3175 32.3149 30.4453 32.1019C30.5731 31.8883 30.8503 31.8193 31.0627 31.9465C32.2201 32.6389 33.3511 33.4045 34.4227 34.2205C35.1031 34.7383 35.8513 35.3677 36.1183 36.2881C36.3211 36.9883 36.1975 37.6711 36.0775 38.3323C36.0061 38.7265 35.9383 39.0985 35.9413 39.4591C35.9461 40.0549 35.0461 40.0687 35.0407 39.4669Z" fill="#D8B1BA"/>
<path d="M38.3732 37.182C38.7482 35.6886 39.0536 34.134 38.333 32.9814C38.042 32.5164 37.6046 32.151 37.1048 31.755C35.8298 30.7464 34.4954 29.781 33.1388 28.8858C32.9312 28.749 32.8742 28.4694 33.011 28.2618C33.1484 28.0542 33.4274 27.9966 33.635 28.134C35.0132 29.0436 36.3686 30.024 37.6634 31.0488C38.2094 31.4808 38.7302 31.917 39.0968 32.5038C40.0046 33.9564 39.6686 35.7192 39.2468 37.401C39.101 37.9818 38.2274 37.7622 38.3732 37.182Z" fill="#D8B1BA"/>
<path d="M28.8354 43.9712C27.6228 43.9712 26.7606 43.0424 27.4818 41.1056C27.5526 40.9142 27.6084 40.739 27.6564 40.5698C26.6808 40.6208 25.6842 40.4606 24.7404 40.0964C24.5082 40.007 24.393 39.7466 24.4824 39.5144C24.5718 39.2822 24.8322 39.1664 25.0644 39.2564C26.0772 39.647 27.1572 39.7694 28.1844 39.6116C28.5042 39.5636 28.7664 39.854 28.6902 40.1648L28.6698 40.2482C28.5822 40.6052 28.4916 40.9742 28.3254 41.42C27.7962 42.842 28.3314 43.235 29.1114 43.0376C29.9898 42.8156 31.371 41.3228 31.9062 41.3942C32.889 41.5238 33.99 41.1116 34.6938 40.106C34.8624 39.866 35.0532 39.5936 35.361 39.4118C36.4194 38.786 36.6024 39.8582 38.5752 37.5158C39.432 36.4982 39.6756 36.3008 40.4352 35.7722C41.5032 35.0294 41.9874 34.6472 42.5172 32.24C42.888 30.5552 42.8046 29.948 41.4168 28.7828C39.9552 27.5558 38.3262 26.5514 36.5742 25.7966C36.3456 25.6982 36.2406 25.4336 36.339 25.205C36.4374 24.9764 36.702 24.8708 36.9306 24.9698C38.763 25.7588 40.467 26.81 41.9958 28.0934C43.6614 29.492 43.8348 30.443 43.3968 32.4338C42.819 35.0624 42.2148 35.6318 40.9494 36.5114C40.2618 36.9896 40.0722 37.1354 39.264 38.0954C38.3772 39.1484 37.7226 39.8876 36.3648 40.0556C36.1446 40.0826 35.955 40.1066 35.8194 40.1864C35.6352 40.2956 35.4858 40.556 35.3004 40.8056C34.5288 41.8388 33.225 42.4154 31.9446 42.3044C31.572 42.5264 31.1802 42.8186 30.7998 43.103C30.1974 43.553 29.5962 43.9718 28.8354 43.9718V43.9712Z" fill="#D8B1BA"/>
<path d="M37.9308 36.5888C39.3024 35.9378 40.4796 34.943 41.5764 33.893C43.221 32.3186 44.307 32.765 44.7204 33.9344C45.0006 34.727 44.8254 36.0968 44.5116 36.7094C44.043 37.6238 41.8146 39.152 40.2996 39.3176C37.8036 39.59 36.951 37.0538 37.9308 36.5888Z" fill="#FAD1DA"/>
<path d="M16.1371 9.51343L15.8857 18.4594C15.8857 18.4594 23.7583 21.6106 34.1479 18.1906L33.7561 9.71203L16.1371 9.51343Z" fill="#C0CCCE"/>
<path d="M25.1059 2.56372L9.6001 8.63872L25.1887 12.8219L38.1145 9.46492L25.1059 2.56372Z" fill="#E3F2F5"/>
<path d="M38.7463 11.3195C38.4667 10.6787 37.9189 10.1621 37.3891 9.66352C37.2079 9.49312 37.1995 9.20812 37.3705 9.02692C37.5409 8.84572 37.8259 8.83792 38.0071 9.00772C38.5753 9.54292 39.2191 10.1495 39.5719 10.9595C40.1275 12.2327 39.6253 16.6919 43.4473 16.4501C44.8717 16.3577 46.1557 15.1835 46.3699 13.7771C46.4071 13.5311 46.6357 13.3625 46.8829 13.3997C47.1289 13.4375 47.2975 13.6667 47.2603 13.9127C46.9843 15.7205 45.3355 17.2301 43.5055 17.3483C38.7985 17.6525 39.0673 12.0539 38.7469 11.3189L38.7463 11.3195Z" fill="#1D1D3D"/>
<path d="M46.0805 10.7717C46.0169 11.3741 45.7643 11.9405 45.6629 12.5375C45.4001 14.0855 46.4705 14.8703 47.8493 14.2331C48.6689 13.8545 49.3223 13.1303 49.6277 12.3095C48.4271 12.0689 47.2757 11.5859 46.0805 10.7717Z" fill="#FFB020"/>
</g>
<defs>
<clipPath id="clip0_364_15889">
<rect width="90" height="71.4408" fill="white" transform="translate(0 0.178223)"/>
</clipPath>
</defs>
</svg>
