<svg width="70" height="60" viewBox="0 0 70 60" fill="none" xmlns="http://www.w3.org/2000/svg">
<g clip-path="url(#clip0_34_30482)">
<path d="M38.7149 59.0411C37.955 54.0723 36.4 49.232 35.8856 44.2281C35.7336 42.6965 35.6284 41.0246 34.6229 39.8555C33.407 38.4291 31.3142 38.2187 29.4436 38.1135C28.7188 38.0784 27.9471 38.0434 27.2924 38.359C26.2869 38.8501 25.8427 40.0309 25.6322 41.1182C25.3984 42.4042 25.375 43.7253 25.2581 45.0348C24.884 49.3957 23.4459 53.5812 22.6626 57.8837C22.0781 61.0988 26.4506 60.2453 28.4615 60.2804C31.4779 60.3272 34.4943 60.2921 37.5107 60.1751C37.9667 60.1635 38.5045 60.0816 38.6799 59.6607C38.7617 59.462 38.7383 59.2399 38.7032 59.0294L38.7149 59.0411Z" fill="#B7B7B7"/>
<path d="M2.69372 47.8052C2.74049 48.647 2.78725 49.5239 3.19644 50.2487C4.03823 51.7335 5.92052 51.9323 7.52224 51.944C19.5995 52.0375 31.9339 52.587 43.9877 51.944C47.6471 51.7452 51.9028 51.757 55.3985 50.5761C56.5209 50.1903 57.6433 49.6876 58.4383 48.7523C59.7828 47.1622 59.9582 43.4911 59.9231 41.3165C59.7243 31.0982 60.4258 21.9556 59.5373 11.7724C59.4788 11.0475 59.4087 10.2992 59.0579 9.67957C58.1811 8.12461 54.5684 7.92586 52.8966 7.92586C39.7437 7.89078 31.8988 7.07239 20.64 7.71542C17.8457 7.8791 15.0632 7.20099 12.3041 7.63357C10.3867 7.93755 5.85039 8.04278 4.40066 9.53928C3.21983 10.7552 2.49495 15.6889 2.53003 17.4193C2.60017 20.5292 2.682 23.6391 2.77554 26.7491C2.99767 33.7639 2.34298 40.7787 2.69372 47.7936V47.8052Z" fill="#3D3D3D"/>
<path d="M59.3502 46.8813C59.1281 47.7816 58.906 48.1908 58.4383 48.7403C57.6433 49.6756 56.5209 50.1784 55.3985 50.5642C51.9145 51.7567 47.6471 51.745 43.9877 51.932C31.9339 52.5634 19.5878 52.0139 7.52224 51.932C5.92052 51.9203 4.02654 51.7333 3.19645 50.2368C2.78725 49.5119 2.74049 48.6351 2.69373 47.7933L59.3502 46.8813Z" fill="#D6D6D6"/>
<path d="M5.21906 41.7256C5.25413 42.3803 5.3009 43.0701 5.66334 43.6313C6.41158 44.7887 8.53943 44.4496 9.98917 44.4496C20.9206 44.4496 32.0976 44.8238 43.0174 44.2626C46.326 44.0872 49.775 44.5549 52.9317 43.6079C53.9488 43.3039 54.966 42.8947 55.6908 42.1699C56.9184 40.9189 57.0938 38.0428 57.0704 36.3592C56.9535 28.374 57.6316 21.3942 56.8951 13.4324C56.8483 12.8712 56.7782 12.2866 56.4742 11.7956C55.6909 10.5797 52.4172 10.4511 50.8974 10.4628C38.9838 10.5096 31.8872 9.76126 21.6806 10.3224C19.1552 10.4627 16.6299 9.94838 14.1279 10.3108C12.3859 10.5563 8.28223 10.6616 6.9611 11.8424C5.88549 12.8011 5.19568 16.6592 5.23076 18.0154C5.27752 20.4472 5.33597 22.879 5.40612 25.3108C5.5698 30.7941 4.93846 36.2774 5.21906 41.7606V41.7256Z" fill="#E0EAFF"/>
<path d="M48.5474 58.7368C34.7866 58.9823 24.2994 58.4328 11.9182 58.9005C11.9182 59.3681 11.9065 59.8474 11.8949 60.3151L11.6026 60.3502C23.9019 60.3853 36.2129 60.3502 48.5123 60.2216C48.6409 59.7306 48.6526 59.2278 48.5474 58.7251V58.7368Z" fill="#3D3D3D"/>
<path d="M25.7126 16.0902C25.7126 15.8853 25.5498 15.7172 25.3449 15.7119C25.2713 15.7119 25.1978 15.7119 25.1242 15.7119C17.6641 15.7119 11.9115 23.0302 14.6591 30.8843C15.5785 33.5111 18.4942 36.4268 21.121 37.3462C28.9699 40.0938 36.2934 34.3411 36.2934 26.881C36.2934 26.6709 36.1252 26.508 35.9204 26.508H26.0909C25.8808 26.508 25.7126 26.3399 25.7126 26.1298V16.0954V16.0902Z" fill="#B795EE"/>
<path d="M26.8317 15.633V24.7532C26.8317 25.1893 27.1837 25.5413 27.6197 25.5413H36.5561C37.0289 25.5413 37.3914 25.1315 37.3389 24.6639C36.7715 19.5732 32.784 15.5174 27.7195 14.8449C27.2467 14.7819 26.8264 15.1497 26.8264 15.6277L26.8317 15.633Z" fill="#919191"/>
<path d="M53.3492 55.4292C53.3556 55.3278 53.3682 55.2264 53.3746 55.125C52.5126 54.5356 50.9979 54.7257 50.0789 55.0236C49.0966 55.3405 49.0966 55.9489 49.1093 56.9692C49.1156 57.546 49.1726 58.1924 49.61 58.5664C49.9522 58.8516 50.4275 58.8959 50.8712 58.9213C51.2704 58.9466 51.6634 58.9656 52.0627 58.991C52.3415 59.01 52.6457 59.0163 52.8612 58.8325C53.0767 58.6487 53.1147 58.3382 53.1337 58.0594C53.2035 57.1847 53.2795 56.3101 53.3492 55.4292Z" fill="#2F3F47"/>
<path d="M54.4013 55.4292C54.3949 55.3278 54.3823 55.2264 54.3759 55.125C55.2378 54.5356 56.7526 54.7257 57.6716 55.0236C58.6539 55.3405 58.6539 55.9489 58.6412 56.9692C58.6349 57.546 58.5778 58.1924 58.1405 58.5664C57.7983 58.8516 57.323 58.8959 56.8793 58.9213C56.4801 58.9466 56.0871 58.9656 55.6878 58.991C55.409 59.01 55.1048 59.0163 54.8893 58.8325C54.6738 58.6487 54.6358 58.3382 54.6168 58.0594C54.547 57.1847 54.471 56.3101 54.4013 55.4292Z" fill="#2F3F47"/>
<path d="M47.0304 53.2424C46.8149 53.2931 46.6058 53.3565 46.403 53.4389C46.2509 53.5023 46.1051 53.5719 45.9974 53.6987C45.8516 53.8698 45.8136 54.1043 45.7882 54.3325C45.7565 54.6304 45.7439 54.9346 45.7439 55.2324C45.7439 55.4859 45.7629 55.7521 45.896 55.9676C46.0798 56.2718 46.441 56.4112 46.7833 56.4936C47.4297 56.6584 48.1078 56.6965 48.7733 56.7282C52.8105 56.9246 56.8666 56.7915 60.8784 56.3415C61.0432 56.3225 61.227 56.2972 61.3411 56.1704C61.4045 56.1007 61.4425 56.0056 61.4678 55.9106C61.677 55.2451 61.8164 54.3325 61.3664 53.7114C60.9798 53.179 60.27 53.4832 59.7249 53.4769C59.1736 53.4706 58.6222 53.4262 58.0708 53.4008C56.9997 53.3565 55.9223 53.3121 54.8512 53.2741C53.3365 53.217 51.8218 53.1727 50.307 53.1346C49.2803 53.1093 48.0762 53.0016 47.0241 53.2361L47.0304 53.2424Z" fill="#C3D5E0"/>
<path d="M55.7005 38.8685C58.4384 38.8812 61.1826 38.9382 63.9206 38.9953C63.8572 37.5376 63.7494 36.0736 63.4389 34.6476C62.8938 32.1505 61.6516 29.7041 59.5475 28.2464C56.3216 26.0092 51.2197 26.3008 47.7466 28.5126C46.2889 29.4443 45.1164 30.7182 44.4953 32.2836C43.7918 34.0709 43.6017 36.0165 43.4876 37.9369C43.475 38.1904 43.4559 38.4439 43.4433 38.6974C47.5184 38.539 51.619 38.8495 55.6941 38.8622L55.7005 38.8685Z" fill="white"/>
<path d="M55.4849 39.6035C51.4668 39.5972 47.436 39.3056 43.4179 39.4514C43.2214 43.8118 43.4052 48.1912 43.9693 52.5262C44.0453 53.1219 44.1467 53.743 44.5397 54.212C45.1481 54.9409 46.2065 54.6177 47.0241 54.6177C48.4057 54.6177 49.8253 54.681 51.2196 54.7064C53.8498 54.7634 56.461 54.7697 59.0785 54.4782C60.3207 54.3388 62.8304 54.719 63.4325 53.6036C63.9205 52.691 63.7177 50.853 63.7937 49.8327C63.8825 48.6348 63.9458 47.4306 63.9839 46.2265C64.0536 44.059 64.0473 41.8914 63.9585 39.7239C61.1382 39.6669 58.3116 39.6098 55.4913 39.6035H55.4849Z" fill="white"/>
<path d="M64.9726 46.6574C65.0234 46.6067 65.0297 46.537 65.036 46.4673C65.1755 44.6547 65.2895 42.8421 65.3783 41.0295C65.3846 40.871 65.3783 40.6872 65.2578 40.5858C65.1691 40.5161 65.0487 40.5098 64.9346 40.5098C64.529 40.5098 64.1297 40.4971 63.7241 40.4971C63.4706 42.5568 63.3692 44.6357 63.4199 46.7081C63.8699 46.7081 64.3199 46.7081 64.7635 46.7144C64.8396 46.7144 64.9156 46.7144 64.9726 46.6637V46.6574Z" fill="#2F3F47"/>
<path d="M67.0641 50.8339C67.1148 50.6817 67.1718 50.5297 67.2922 50.4156C67.3873 50.3268 67.5077 50.2825 67.6281 50.2381C68.1351 50.0543 68.6612 49.9149 69.1872 49.8262C69.5992 50.105 69.9731 50.4473 70.29 50.8275C70.347 50.8973 70.4104 50.9796 70.4231 51.0683C70.4357 51.1381 70.4167 51.2141 70.3977 51.2838C70.1886 52.0887 69.9794 52.8936 69.7766 53.6985C69.4724 53.7429 69.1619 53.7429 68.8576 53.7049C68.9717 53.2169 69.0921 52.7289 69.2062 52.2345C69.3203 51.7655 69.4027 51.2014 69.0478 50.8719C68.6865 50.9669 68.3316 51.062 67.9704 51.1507C67.907 51.1698 67.8436 51.1824 67.7929 51.2268C67.7359 51.2775 67.7042 51.3536 67.6788 51.4296C67.5331 51.8923 67.419 52.3613 67.3366 52.8366C67.1084 52.7732 66.8803 52.7099 66.6521 52.6465C66.6331 52.019 66.8486 51.4106 67.0577 50.8149L67.0641 50.8339Z" fill="#2F3F47"/>
<path d="M69.84 50.1305C69.84 50.1305 69.8653 50.0861 69.8716 50.0608C69.9414 49.7692 70.0047 49.4714 70.0744 49.1798C69.6118 49.0721 69.1491 49.0024 68.6801 48.9644C68.6041 49.2115 68.5597 49.4587 68.5407 49.7185C68.5407 49.7756 68.5407 49.8326 68.5724 49.877C68.5978 49.9023 68.6294 49.915 68.6611 49.9213C69.0097 50.0291 69.371 50.1051 69.7322 50.1558C69.7702 50.1558 69.8146 50.1622 69.84 50.1368V50.1305Z" fill="#516770"/>
<path d="M70.2963 48.9835C70.5752 48.5208 70.3534 47.2977 70.347 46.8033C70.347 46.1315 70.3407 45.447 70.1822 44.7943C70.0301 44.1415 69.7069 43.5013 69.1745 43.0831C68.8703 42.8486 68.5154 42.6965 68.1542 42.5697C67.0641 42.1958 65.8916 42.069 64.7444 42.2084C64.6557 42.2211 64.5543 42.2338 64.4909 42.2972C64.4212 42.3669 64.4022 42.4683 64.3895 42.5634C64.3388 42.9373 64.2628 43.3493 64.2818 43.7295C64.3135 44.395 64.1741 44.2112 64.6621 44.4077C65.0297 44.5534 65.7331 44.4394 66.1641 44.5281C66.6648 44.6358 67.1465 44.8133 67.6281 44.978C67.9323 45.0858 68.2619 45.2125 68.4203 45.4914C68.5091 45.6435 68.5281 45.8273 68.5471 45.9984C68.6675 47.0441 68.7182 48.1026 68.7119 49.1546C68.7119 49.3321 70.0555 49.2434 70.2393 49.0406C70.2583 49.0215 70.2773 48.9962 70.29 48.9708L70.2963 48.9835Z" fill="#EECA2E"/>
<g opacity="0.15">
<path d="M68.0085 42.8803C67.9704 43.5077 67.8056 44.0781 67.5585 44.6548C67.5078 44.7689 67.6535 44.8513 67.7233 44.7499C68.1162 44.1985 68.319 43.5457 68.3887 42.8803C68.4141 42.6394 68.0275 42.6331 68.0085 42.8803Z" fill="#272525"/>
<path d="M69.0098 43.3304C68.8957 43.9388 68.6232 44.3381 68.1922 44.7691C68.1351 44.8261 68.2112 44.9275 68.2809 44.8832C68.5725 44.6994 68.8513 44.5789 69.0605 44.2937C69.2569 44.0212 69.39 43.7233 69.4217 43.3874C69.4471 43.1529 69.0541 43.1023 69.0098 43.3304Z" fill="#272525"/>
</g>
<path d="M42.7778 40.5483C42.7271 40.599 42.7208 40.6687 42.7144 40.7384C42.575 42.551 42.4609 44.3636 42.3722 46.1762C42.3659 46.3346 42.3722 46.5184 42.4926 46.6198C42.5813 46.6896 42.7018 46.6959 42.8158 46.6959C43.2215 46.6959 43.6207 46.7086 44.0263 46.7086C44.2799 44.6488 44.3813 42.57 44.3306 40.4976C43.8806 40.4976 43.4306 40.4975 42.987 40.4912C42.9109 40.4912 42.8349 40.4912 42.7778 40.5419V40.5483Z" fill="#2F3F47"/>
<path d="M37.7012 38.317C37.7203 38.4754 37.7393 38.6402 37.6822 38.7923C37.6379 38.9127 37.5491 39.0078 37.4604 39.1029C37.0865 39.4895 36.6809 39.8507 36.2436 40.1676C35.7492 40.0979 35.2612 39.9648 34.8112 39.762C34.7288 39.724 34.6401 39.6796 34.5831 39.6036C34.5387 39.5465 34.526 39.4705 34.5134 39.4008C34.3422 38.5895 34.1711 37.772 34 36.9607C34.2535 36.7896 34.5324 36.6502 34.8176 36.5424C34.9316 37.0304 35.0457 37.5248 35.1598 38.0128C35.2676 38.4818 35.445 39.0268 35.9077 39.1599C36.1865 38.9191 36.4654 38.6719 36.7442 38.4311C36.795 38.3867 36.8457 38.3423 36.871 38.2853C36.9027 38.2156 36.89 38.1332 36.8773 38.0508C36.8076 37.5691 36.6999 37.1002 36.5541 36.6375C36.7886 36.5931 37.0168 36.5488 37.2513 36.5044C37.5428 37.0621 37.6252 37.7022 37.7012 38.3233V38.317Z" fill="#2F3F47"/>
<path d="M35.5274 40.1801C35.5274 40.1801 35.5274 40.2308 35.5274 40.2562L35.7365 41.1308C36.1929 41.023 36.6428 40.8773 37.0865 40.7062C37.0421 40.4526 36.9724 40.2055 36.8773 39.971C36.8583 39.9203 36.8266 39.8632 36.7759 39.8442C36.7443 39.8316 36.7062 39.8379 36.6745 39.8442C36.3133 39.9076 35.9584 39.9963 35.6098 40.1104C35.5718 40.1231 35.5337 40.1421 35.5211 40.1738L35.5274 40.1801Z" fill="#516770"/>
<path d="M35.6225 41.4102C35.5781 41.9489 36.326 42.9439 36.5478 43.3875C36.852 43.9896 37.1562 44.5981 37.5872 45.1178C38.0181 45.6375 38.5885 46.0684 39.2477 46.2015C39.6216 46.2776 40.0082 46.2586 40.3885 46.2079C41.5293 46.0621 42.6384 45.6501 43.6017 45.0164C43.6778 44.9656 43.7601 44.9086 43.7918 44.8199C43.8235 44.7312 43.7918 44.6297 43.7601 44.5347C43.6397 44.1734 43.5193 43.7742 43.3355 43.4446C43.0123 42.8615 43.2151 42.9629 42.6954 43.0073C42.2961 43.039 41.7194 43.4573 41.2948 43.565C40.8004 43.6918 40.2871 43.7488 39.78 43.8122C39.4568 43.8502 39.1082 43.8819 38.842 43.7044C38.6963 43.603 38.5949 43.4509 38.4998 43.3051C37.9294 42.4179 37.4097 41.4989 36.9534 40.5482C36.8773 40.3835 35.7049 41.0679 35.6351 41.3278C35.6288 41.3531 35.6225 41.3848 35.6225 41.4102Z" fill="#EECA2E"/>
<g opacity="0.15">
<path d="M40.3884 45.8588C40.1476 45.2757 40.0398 44.6927 40.0081 44.0652C40.0018 43.9448 39.837 43.9258 39.818 44.0526C39.7103 44.718 39.818 45.3962 40.0525 46.0236C40.1349 46.2518 40.4835 46.0806 40.3884 45.8525V45.8588Z" fill="#272525"/>
<path d="M39.292 45.9029C39.1209 45.3071 39.1906 44.8318 39.387 44.2487C39.4124 44.1727 39.2983 44.1156 39.2603 44.1853C39.0828 44.4769 38.8864 44.7114 38.823 45.0599C38.7659 45.3895 38.7786 45.7191 38.899 46.0296C38.9814 46.2515 39.3554 46.1247 39.292 45.8965V45.9029Z" fill="#272525"/>
</g>
<path d="M45.2875 34.5905C45.2875 34.8377 45.3065 35.0975 45.4143 35.3193C45.6805 35.8897 46.3903 36.0735 47.0114 36.1749C50.5605 36.7707 54.1984 36.9735 57.7666 36.5235C58.2356 36.4665 58.7109 36.3904 59.1355 36.2003C59.5665 36.0038 59.9531 35.6742 60.1115 35.2306C60.2129 34.9517 60.2193 34.6476 60.2193 34.3497L60.2319 33.437C60.2319 33.2976 60.2319 33.1582 60.1812 33.0314C60.1242 32.892 60.0038 32.7842 59.8834 32.6955C59.4144 32.3723 58.8186 32.3026 58.2482 32.2455C54.4646 31.8653 50.6366 31.5357 46.872 32.0427C46.7135 32.0617 46.5487 32.0934 46.4347 32.2012C46.3776 32.2582 46.3396 32.3279 46.2762 32.3786C46.1685 32.461 46.0164 32.461 45.8833 32.499C45.5157 32.6194 45.3826 33.0694 45.3382 33.456C45.2939 33.83 45.2748 34.2102 45.2812 34.5905H45.2875Z" fill="#C9E1F9"/>
<path d="M50.0282 35.1418C50.155 34.9136 50.174 34.6411 50.1486 34.3876C50.136 34.2291 50.0979 34.0707 49.9965 33.9502C49.7874 33.6967 49.4008 33.7284 49.0839 33.6714C48.7987 33.7918 48.5705 34.02 48.4438 34.2988C48.3741 34.4636 48.336 34.6537 48.3614 34.8312C48.4121 35.1988 48.7163 35.522 49.0776 35.5917C49.4388 35.6614 49.8444 35.4713 50.0219 35.1418H50.0282Z" fill="#2F3F47"/>
<path d="M56.2519 35.1418C56.3786 34.9136 56.3976 34.6411 56.3723 34.3876C56.3596 34.2291 56.3216 34.0707 56.2202 33.9502C56.011 33.6967 55.6244 33.7284 55.3075 33.6714C55.0223 33.7918 54.7942 34.02 54.6674 34.2988C54.5977 34.4636 54.5597 34.6537 54.585 34.8312C54.6294 35.1988 54.9399 35.522 55.3012 35.5917C55.6688 35.6614 56.0681 35.4713 56.2455 35.1418H56.2519Z" fill="#2F3F47"/>
<path d="M57.6715 46.7655C57.7475 46.6705 57.7412 46.5374 57.7348 46.417C57.5954 44.0847 57.8743 41.9488 57.7348 39.6166C55.8969 39.6799 53.6407 39.5405 51.7964 39.6039C51.0992 39.6292 50.3894 39.6482 49.7112 39.5024C49.6352 41.8854 49.6098 44.2621 49.6289 46.6451C52.164 46.9113 54.7181 46.9937 57.2722 46.905C57.418 46.905 57.5827 46.8859 57.6715 46.7719V46.7655Z" fill="#B9CEFE"/>
<path d="M52.4112 47.8235C52.4112 47.8235 52.4365 47.8552 52.4619 47.8615C52.4619 47.8488 52.4619 47.8362 52.4619 47.8235C52.4999 47.8045 52.4049 47.7791 52.4175 47.8235H52.4112Z" fill="#B4C7BA"/>
<path d="M52.4112 50.0295C52.4112 50.0295 52.4365 50.0612 52.4619 50.0676C52.4619 50.0549 52.4619 50.0422 52.4619 50.0295C52.4999 50.0105 52.4049 49.9852 52.4175 50.0295H52.4112Z" fill="#B4C7BA"/>
</g>
<defs>
<clipPath id="clip0_34_30482">
<rect y="0.658691" width="70" height="58.6824" fill="white"/>
</clipPath>
</defs>
</svg>
