<svg width="237" height="161" viewBox="0 0 237 161" fill="none" xmlns="http://www.w3.org/2000/svg">
<path d="M208.689 30.1599L165.551 36.2225C157.886 37.2998 150.818 31.9733 149.74 24.308C148.663 16.6428 153.989 9.57432 161.655 8.49703L204.792 2.43444C212.458 1.35716 219.526 6.68362 220.603 14.3489C221.681 22.0142 216.354 29.0826 208.689 30.1599Z" fill="white"/>
<path d="M161.702 33.6866L155.777 47.7411L175.247 33.0303L161.702 33.6866Z" fill="white"/>
<path d="M167.495 21.0646C167.713 22.6139 166.591 24.102 165.042 24.3198C163.493 24.5375 162.005 23.4162 161.787 21.8668C161.569 20.3174 162.69 18.8293 164.24 18.6116C165.871 18.3824 167.266 19.4336 167.495 21.0646Z" fill="#74AFFF"/>
<path d="M181.766 19.0597C181.983 20.609 180.862 22.0971 179.313 22.3149C177.763 22.5326 176.275 21.4113 176.057 19.8619C175.84 18.3125 176.961 16.8244 178.51 16.6067C180.141 16.3775 181.536 17.4288 181.766 19.0597Z" fill="#74AFFF"/>
<path d="M196.117 17.0421C196.335 18.5915 195.214 20.0796 193.664 20.2973C192.115 20.5151 190.627 19.3937 190.409 17.8443C190.191 16.295 191.313 14.8069 192.862 14.5891C194.493 14.3599 195.888 15.4112 196.117 17.0421Z" fill="#74AFFF"/>
<path d="M210.389 15.0362C210.606 16.5856 209.485 18.0737 207.936 18.2914C206.386 18.5092 204.898 17.3878 204.68 15.8385C204.463 14.2891 205.584 12.801 207.133 12.5833C208.764 12.354 210.159 13.4053 210.389 15.0362Z" fill="#74AFFF"/>
<path d="M53.8967 81.3633L72.4908 72.846C79.6836 69.5899 82.7307 61.0955 79.4746 53.9028L73.379 40.7061C71.1191 35.868 65.406 33.6773 60.4864 35.9487L46.1939 42.5309C41.5075 44.6864 39.4569 50.2134 41.6124 54.8999L53.8967 81.3633Z" fill="#FFC59B"/>
<path d="M66.8462 50.4385C66.8462 50.4385 67.3747 53.6073 70.1151 57.1305L66.4429 58.8108" stroke="black" stroke-miterlimit="10"/>
<path d="M69.5687 52.0513C69.9394 52.9139 70.6835 53.4746 71.2314 53.2313C71.6977 52.9995 71.8163 52.0681 71.364 51.2169C70.9933 50.3543 70.2493 49.7936 69.7014 50.0369C69.235 50.2688 69.198 51.1887 69.5687 52.0513Z" fill="black"/>
<path d="M59.3675 56.9781C59.7382 57.8407 60.4823 58.4014 61.0302 58.1581C61.4965 57.9262 61.6151 56.9948 61.1628 56.1437C60.7921 55.2811 60.0481 54.7204 59.5002 54.9637C59.0339 55.1955 58.9854 56.0339 59.3675 56.9781Z" fill="black"/>
<path d="M44.2687 59.5992C44.2687 59.5992 51.0665 55.8997 54.844 43.7269C54.844 43.7269 55.4347 50.2964 54.6801 54.3939C54.6801 54.3939 59.2951 52.9138 62.352 50.4053C62.352 50.4053 62.5309 43.395 61.3514 39.7356C61.3514 39.7356 63.6342 44.7367 64.3919 49.5365L71.0597 46.6868C71.0597 46.6868 71.2757 38.7566 67.3668 36.9776C67.3668 36.9776 71.8822 38.3387 72.9608 45.4217L77.5529 43.7785C77.5529 43.7785 73.8772 26.4996 57.8828 28.6644C41.8884 30.8291 32.1017 48.1705 40.7367 61.0935C40.585 61.1979 41.9982 59.4193 44.2687 59.5992Z" fill="black"/>
<path d="M106.392 51.9491C106.392 51.9491 105.969 48.3496 102.477 42.4373C99.0785 36.5951 106.107 33.9442 110.582 42.7119C110.582 42.7119 109.995 34.3956 108.938 28.058C107.881 21.7204 114.566 21.9452 115.872 31.2413C115.872 31.2413 115.481 23.729 117.49 21.451C119.498 19.1731 122.006 22.2299 123.048 30.2328C123.048 30.2328 123.566 27.998 125.504 25.8131C127.453 23.7096 129.193 26.625 129.179 33.03C129.179 33.03 129.779 30.2015 132.074 29.9622C134.369 29.7228 138.235 40.0729 125.174 58.3735C125.092 58.385 115.109 59.5385 106.392 51.9491Z" fill="#FFC59B"/>
<path d="M40.204 59.6709C40.204 59.6709 66.4907 43.1705 75.5185 36.9956C75.5185 36.9956 67.1448 21.7906 49.1687 29.9716C30.7262 38.3845 35.0455 54.3255 40.204 59.6709Z" fill="white"/>
<path d="M37.5164 63.6244C37.6742 65.9306 40.1739 67.7414 43.1325 67.4919C46.1025 67.3239 48.3082 65.2677 48.2205 62.8685C48.0627 60.5623 45.563 58.7515 42.6044 59.001C39.6459 59.2505 37.3586 61.3182 37.5164 63.6244Z" fill="#FFC59B"/>
<path d="M58.7592 47.9168C58.7592 47.9168 77.6028 42.3581 85.0252 35.4108C92.5291 28.4521 75.5187 36.9963 75.5187 36.9963L58.7592 47.9168Z" fill="#47BA70"/>
<path d="M114.933 147.044L22.9498 159.972L14.7291 128.696C12.2237 119.153 13.4578 109 18.3105 100.335C21.5613 94.4734 26.3588 89.5582 32.1194 86.1707L48.0724 76.611L70.3162 76.3121L100.991 81.5641L114.933 147.044Z" fill="black"/>
<path d="M101.573 51.3792C102.481 51.3346 131.517 54.9874 131.517 54.9874C131.517 54.9874 135.551 119.781 119.054 127.838C102.638 135.882 95.2993 121.53 94.0183 111.232C92.726 100.853 101.573 51.3792 101.573 51.3792Z" fill="black"/>
<path d="M61.004 89.927C54.9697 90.7751 49.3893 86.57 48.5412 80.5356L46.3408 64.8789L68.195 61.8075L70.384 77.3827C71.2435 83.4986 67.0384 89.079 61.004 89.927Z" fill="#FFC59B"/>
<path d="M34.3338 96.0044C36.9433 95.6376 36.3703 91.5604 33.7608 91.9271C31.1513 92.2938 31.7244 96.3711 34.3338 96.0044Z" fill="#47BA70"/>
<path d="M44.3846 111.306C46.9941 110.939 46.421 106.862 43.8116 107.229C41.2021 107.596 41.7752 111.673 44.3846 111.306Z" fill="#47BA70"/>
<path d="M25.0659 120.591C27.6753 120.224 27.1023 116.146 24.4929 116.513C21.8019 116.891 22.3749 120.969 25.0659 120.591Z" fill="#47BA70"/>
<path d="M22.0649 103.966C24.6744 103.599 24.1013 99.5215 21.4919 99.8882C18.8009 100.266 19.3739 104.344 22.0649 103.966Z" fill="#47BA70"/>
<path d="M41.9282 126.37C44.5376 126.003 43.9646 121.926 41.3552 122.293C38.6642 122.671 39.2372 126.748 41.9282 126.37Z" fill="#47BA70"/>
<path d="M19.4618 132.189C22.0712 131.822 21.4982 127.745 18.8887 128.112C16.2793 128.478 16.8523 132.556 19.4618 132.189Z" fill="#47BA70"/>
<path d="M45.1678 84.3364C47.7773 83.9697 47.2042 79.8924 44.5948 80.2591C41.9853 80.6259 42.5584 84.7031 45.1678 84.3364Z" fill="#47BA70"/>
<path d="M59.0799 101.673C61.6894 101.307 61.1164 97.2293 58.5069 97.596C55.8974 97.9628 56.4705 102.04 59.0799 101.673Z" fill="#47BA70"/>
<path d="M78.5913 109.742C81.2007 109.375 80.6277 105.298 78.0183 105.665C75.3272 106.043 75.9003 110.12 78.5913 109.742Z" fill="#47BA70"/>
<path d="M78.5809 93.6938C81.1904 93.3271 80.6173 89.2498 78.0079 89.6166C75.3984 89.9833 75.9714 94.0606 78.5809 93.6938Z" fill="#47BA70"/>
<path d="M95.6463 86.7221C98.2558 86.3554 97.6828 82.2781 95.0733 82.6449C92.4638 83.0116 93.0369 87.0889 95.6463 86.7221Z" fill="#47BA70"/>
<path d="M101.365 101.968C103.975 101.602 103.402 97.5242 100.792 97.891C98.1826 98.2577 98.7556 102.335 101.365 101.968Z" fill="#47BA70"/>
<path d="M92.1346 120.312C92.2162 120.3 92.3793 120.277 92.4608 120.266C93.5209 120.117 94.4549 119.071 94.2129 117.941C93.9709 116.81 93.0294 116.028 91.8878 116.189C91.8062 116.2 91.6432 116.223 91.5616 116.234C90.5015 116.383 89.5675 117.429 89.8095 118.559C90.0515 119.69 90.993 120.472 92.1346 120.312Z" fill="#47BA70"/>
<path d="M113.188 115.69C115.797 115.323 115.224 111.246 112.615 111.613C109.924 111.991 110.497 116.068 113.188 115.69Z" fill="#47BA70"/>
<path d="M127.286 97.6596C129.895 97.2929 129.322 93.2156 126.713 93.5824C124.103 93.9491 124.677 98.0264 127.286 97.6596Z" fill="#47BA70"/>
<path d="M113.406 91.7934C116.016 91.4267 115.443 87.3494 112.833 87.7162C110.224 88.0829 110.797 92.1602 113.406 91.7934Z" fill="#47BA70"/>
<path d="M103.458 72.4848C106.067 72.1181 105.494 68.0408 102.885 68.4076C100.275 68.7743 100.848 72.8516 103.458 72.4848Z" fill="#47BA70"/>
<path d="M111.607 58.2846C114.217 57.9179 113.644 53.8406 111.034 54.2074C108.425 54.5741 108.998 58.6514 111.607 58.2846Z" fill="#47BA70"/>
<path d="M120.232 75.2837C122.842 74.9169 122.269 70.8397 119.659 71.2064C117.05 71.5731 117.623 75.6504 120.232 75.2837Z" fill="#47BA70"/>
<path d="M127.695 60.9302C130.305 60.5634 129.732 56.4861 127.122 56.8529C124.513 57.2196 125.086 61.2969 127.695 60.9302Z" fill="#47BA70"/>
<path d="M110.395 43.1538C111.614 44.7287 112.833 46.3036 113.119 48.3423C113.211 48.9946 114.271 48.8456 114.18 48.1933C113.789 46.003 112.546 44.265 111.223 42.5384C110.816 42.0135 109.988 42.6288 110.395 43.1538Z" fill="black"/>
<path d="M115.19 39.4029C119.894 39.7397 124.468 40.9263 128.737 42.9041C129.354 43.1501 129.729 42.2659 129.1 41.9383C124.738 39.8905 120.082 38.7153 115.297 38.39C114.703 38.3072 114.526 39.4131 115.19 39.4029Z" fill="black"/>
<path d="M116.08 32.127C116.307 34.3402 116.465 36.6464 116.693 38.8596C116.785 39.512 117.763 39.3744 117.753 38.7106C117.525 36.4974 117.367 34.1912 117.14 31.978C117.048 31.3257 116.069 31.4632 116.08 32.127Z" fill="black"/>
<path d="M122.777 31.851C122.643 34.4476 122.509 37.0443 122.293 39.6524C122.222 40.3277 123.235 40.4348 123.306 39.7595C123.44 37.1629 123.656 34.5547 123.79 31.9581C123.861 31.2828 122.848 31.1757 122.777 31.851Z" fill="black"/>
<path d="M127.03 40.8162C128.013 38.9319 128.821 36.9889 129.268 34.8471C129.421 34.1604 128.408 34.0533 128.255 34.74C127.785 36.7187 127.059 38.6502 126.146 40.4416C125.726 40.9996 126.691 41.3628 127.03 40.8162Z" fill="black"/>
<path d="M51.7748 72.1817C55.4465 75.8235 60.6372 77.256 65.6829 75.8817C66.3238 75.7084 66.1748 74.6483 65.5339 74.8216C60.8845 76.0571 56.0658 74.9049 52.5915 71.4848C52.115 71.0528 51.2868 71.6682 51.7748 72.1817Z" fill="black"/>
<path d="M71.095 67.0556L70.3955 67.4033C66.9565 68.9677 62.9189 67.4562 61.366 64.0988L74.4111 58.1076C76.0455 61.4536 74.534 65.4912 71.095 67.0556Z" fill="white"/>
<path d="M96.3 80.7258C94.9617 85.4043 93.7051 90.0713 92.5414 94.8085C92.377 95.4137 93.4014 95.6023 93.5543 94.9156C94.6479 90.2715 95.916 85.6859 97.2657 81.089C97.4301 80.4838 96.4644 80.1206 96.3 80.7258Z" fill="white"/>
<path d="M92.9692 101.401C94.1765 108.217 95.4653 115.021 96.8243 121.732C96.9975 122.373 97.9761 122.235 97.8844 121.583C96.514 114.79 95.2251 107.986 94.0292 101.252C93.9376 100.6 92.8775 100.749 92.9692 101.401Z" fill="white"/>
<path d="M38.8539 105.68C41.0741 112.603 43.3058 119.607 45.4445 126.541C45.6178 127.182 46.5619 126.8 46.3887 126.159C44.1685 119.236 41.9367 112.232 39.798 105.298C39.6248 104.657 38.6807 105.04 38.8539 105.68Z" fill="white"/>
<path d="M44.0079 118.095C43.5521 113.668 43.1779 109.23 43.0483 104.758C43.0382 104.094 41.9781 104.243 41.9882 104.907C42.1178 109.379 42.4105 113.829 42.9478 118.244C43.0395 118.896 44.0996 118.747 44.0079 118.095Z" fill="white"/>
<path d="M44.0439 81.6667C45.2322 101.956 74.7988 97.5513 75.6324 79.2229C75.6222 78.5591 74.6093 78.452 74.6194 79.1158C74.3232 86.4752 69.2326 92.2632 62.0324 93.6909C53.2241 95.5109 45.6294 91.1731 45.0224 81.5291C45.0938 80.8539 44.0337 81.0028 44.0439 81.6667Z" fill="white"/>
<path d="M48.6895 30.7051C48.8385 31.7652 47.6484 32.7641 46.099 32.9818C44.4681 33.211 43.1304 32.5675 42.9814 31.5074C42.8324 30.4473 44.0225 29.4485 45.5719 29.2307C47.1212 29.013 48.5406 29.6451 48.6895 30.7051Z" fill="#47BA70"/>
<path d="M44.9988 35.2154C45.0327 40.7821 46.5702 45.8049 49.7042 50.3538C50.1106 50.8787 50.8573 50.2749 50.5324 49.7384C47.5959 45.4112 45.9998 40.563 46.0117 35.3225C46.013 34.7402 44.9886 34.5516 44.9988 35.2154Z" fill="black"/>
<path d="M51.5162 31.8873C57.4307 32.5528 62.6174 35.7322 65.9718 40.666C66.3782 41.1909 67.1249 40.5871 66.8 40.0506C63.3297 34.8837 57.8754 31.5756 51.7049 30.8629C51.0296 30.7915 50.8409 31.8159 51.5162 31.8873Z" fill="black"/>
</svg>
