<svg width="46" height="33" viewBox="0 0 46 33" fill="none" xmlns="http://www.w3.org/2000/svg">
<path d="M2.61223 20.5044C2.61223 20.5044 4.64954 5.41623 21.1217 3.10122C33.5166 1.35923 40.2192 8.81601 42.8309 12.6068C43.7711 13.9714 44.2335 15.4864 44.2181 17.1517C44.2344 20.2262 43.4656 25.4068 38.6761 26.8283C35.8793 27.6372 15.6547 31.0616 14.1679 29.358C12.6811 27.6544 11.6638 19.2322 11.6638 19.2322L2.61223 20.5044Z" fill="#FFC59B"/>
<path d="M23.2525 28.9123C25.5936 23.6771 23.9402 18.4212 21.5057 13.5245C21.1694 12.9065 20.2367 13.3702 20.5615 13.9066C22.8686 18.4886 24.5692 23.4884 22.2868 28.5491C22.0294 29.0842 22.9951 29.4474 23.2525 28.9123Z" fill="black"/>
<path d="M31.4541 27.5111C34.1213 22.23 33.2847 16.2772 30.0119 11.332C29.687 10.7956 28.8587 11.4109 29.1836 11.9474C32.2475 16.5893 32.9453 22.1458 30.4769 27.0663C30.2309 27.683 31.1967 28.0462 31.4541 27.5111Z" fill="black"/>
<path d="M39.6105 25.7823C42.4751 20.723 40.3796 15.2797 37.9566 10.4645C37.6203 9.84656 36.6876 10.3103 37.0125 10.8467C39.3196 15.4287 41.4508 20.5343 38.7263 25.4076C38.3057 25.9657 39.283 26.4104 39.6105 25.7823Z" fill="black"/>
<path d="M12.468 19.0362C12.3177 18.5584 12.342 18.1392 12.4478 17.7085C12.6122 17.1033 11.7165 16.6471 11.482 17.3453C11.3176 17.9505 11.2347 18.5442 11.4079 19.1852C11.5697 19.7445 12.6413 19.6771 12.468 19.0362Z" fill="black"/>
</svg>
