<svg width="243" height="21" viewBox="0 0 243 21" fill="none" xmlns="http://www.w3.org/2000/svg">
<path d="M13.7403 4.13281V5.75C13.7403 7.71875 13.7403 9.86328 13.1602 12.9746L11.2442 12.7812C11.7891 9.8457 11.7891 7.66602 11.7891 5.75V5.69727H2.17387V4.13281H13.7403ZM15.1993 14.9082V16.5078H0.714882V14.9082H3.96684V9.8457H5.91801V14.9082H7.93949V9.8457H9.85551V14.9082H15.1993ZM24.4285 4.32617V5.45117C24.4285 6.875 24.4285 8.86133 23.989 11.6035L22.0554 11.4453C22.4334 9.03711 22.4773 7.26172 22.4949 5.89062H16.2546V4.32617H24.4285ZM20.4207 8.86133V13.5547C22.0379 13.4932 23.699 13.3789 25.2195 13.1855L25.325 14.6445C22.0379 15.1719 18.3992 15.2422 15.6043 15.2246L15.4109 13.6602C16.3513 13.6514 17.3972 13.6426 18.4871 13.6074V8.86133H20.4207ZM28.0144 2.67383V9.14258H30.3171V10.7949H28.0144V18.5645H26.0457V2.67383H28.0144ZM36.2593 6.48828C36.2593 9.44141 37.6655 12.3418 40.1968 13.4492L39.019 15.0137C37.2173 14.1348 35.9516 12.4473 35.2749 10.373C34.5805 12.5615 33.2886 14.3809 31.4604 15.3125L30.23 13.7305C32.8139 12.5176 34.2554 9.45898 34.2729 6.48828V3.95703H36.2593V6.48828ZM43.7124 2.67383V18.582H41.7788V9.38867H38.4389V7.80664H41.7788V2.67383H43.7124ZM50.3752 3.78125C52.8889 3.76367 54.7346 5.36328 54.7521 7.61328C54.7346 9.88086 52.8889 11.4629 50.3752 11.4629C47.8791 11.4629 46.0158 9.88086 46.0158 7.61328C46.0158 5.36328 47.8791 3.76367 50.3752 3.78125ZM50.3752 5.46875C48.9865 5.46875 47.9494 6.29492 47.9494 7.61328C47.9494 8.94922 48.9865 9.75781 50.3752 9.75781C51.7814 9.75781 52.8361 8.94922 52.8361 7.61328C52.8361 6.29492 51.7814 5.46875 50.3752 5.46875ZM58.4611 2.67383V18.582H56.51V2.67383H58.4611ZM45.2951 13.6602C48.1604 13.6602 52.133 13.625 55.5607 13.1328L55.7189 14.5566C52.1506 15.2422 48.3361 15.2598 45.5412 15.2598L45.2951 13.6602ZM68.6403 6.80469C68.6403 9.47656 69.5543 12.0957 71.7516 13.2734L70.5914 14.8203C69.1588 14.0205 68.2184 12.6318 67.6911 10.9355C67.1022 12.8076 66.0827 14.3721 64.5973 15.2598L63.3493 13.8359C65.6871 12.4648 66.7418 9.63477 66.7418 6.92773V4.08008H68.6403V6.80469ZM77.3239 2.67383V18.5645H75.443V10.5137H73.8082V17.791H71.9625V2.95508H73.8082V8.93164H75.443V2.67383H77.3239ZM92.9691 15.1016V16.7188H78.4496V15.1016H84.7074V12.5176H80.1722V7.31445H89.3129V5.3457H80.1371V3.76367H91.2464V8.86133H82.1234V10.918H91.6156V12.5176H86.641V15.1016H92.9691ZM107.788 10.5312V12.0957H101.653V15.0137H99.6671V12.0957H93.2686V10.5312H107.788ZM106.189 16.6484V18.248H95.044V13.5371H97.0128V16.6484H106.189ZM100.511 3.02539C103.939 3.02539 106.206 4.27344 106.206 6.27734C106.206 8.28125 103.939 9.51172 100.511 9.51172C97.0831 9.51172 94.8155 8.28125 94.8155 6.27734C94.8155 4.27344 97.0831 3.02539 100.511 3.02539ZM100.511 4.57227C98.3311 4.57227 96.9073 5.1875 96.9249 6.27734C96.9073 7.33203 98.3311 7.94727 100.511 7.94727C102.708 7.94727 104.114 7.33203 104.114 6.27734C104.114 5.1875 102.708 4.57227 100.511 4.57227ZM125.315 2.67383V18.5645H123.434V10.5312H121.676V17.7559H119.848V2.97266H121.676V8.93164H123.434V2.67383H125.315ZM114.329 4.50195V12.8867C115.7 12.8604 117.203 12.7461 118.864 12.4121L119.057 14.1172C116.913 14.5039 115.102 14.6094 113.415 14.6094H112.36V4.50195H114.329ZM131.011 3.18359C133.419 3.18359 135.212 4.67773 135.23 6.76953C135.212 8.87891 133.419 10.3555 131.011 10.3555C128.585 10.3555 126.792 8.87891 126.792 6.76953C126.792 4.67773 128.585 3.18359 131.011 3.18359ZM131.011 4.80078C129.675 4.80078 128.691 5.55664 128.691 6.76953C128.691 8 129.675 8.77344 131.011 8.77344C132.347 8.77344 133.331 8 133.331 6.76953C133.331 5.55664 132.347 4.80078 131.011 4.80078ZM139.747 2.67383V10.707H137.779V2.67383H139.747ZM139.747 11.3926V15.541H131.152V16.8242H140.222V18.3711H129.236V14.0996H137.796V12.9219H129.2V11.3926H139.747ZM144.441 15.752L142.965 20.6738H141.295L142.209 15.752H144.441Z" fill="white"/>
<g clip-path="url(#clip0_844_1483)">
<path d="M192.91 15.1346C193.986 15.0748 195.122 14.9552 196.139 14.8356L196.378 16.9884C194.165 17.2874 191.415 17.4668 189.441 17.4668H187.348L187.229 15.2542H189.68C189.92 15.2542 190.219 15.2542 190.518 15.2542V13.5798C188.843 13.221 187.647 11.9053 187.647 9.63292V9.45351C187.647 6.64288 189.441 5.38707 191.654 5.38707C193.866 5.38707 195.66 6.64288 195.66 9.45351V9.63292C195.66 11.8455 194.524 13.1014 192.91 13.52V15.1346ZM190.039 9.57312C190.039 10.8887 190.817 11.4867 191.654 11.4867C192.491 11.4867 193.268 10.9485 193.268 9.57312V9.39371C193.268 8.0781 192.491 7.48009 191.654 7.48009C190.817 7.48009 190.039 8.0183 190.039 9.39371V9.57312ZM201.222 10.0515V12.2641H199.428V19.5H197.036V4.78906H199.428V10.0515H201.222Z" fill="white"/>
<path d="M201.94 12.6229V10.3505C201.94 6.70268 203.734 5.32727 206.007 5.32727C208.22 5.32727 210.014 6.70268 210.014 10.3505V12.6229C210.014 16.2708 208.22 17.6462 206.007 17.6462C203.734 17.6462 201.94 16.2708 201.94 12.6229ZM207.621 12.6229V10.3505C207.621 8.1379 206.844 7.53989 206.007 7.53989C205.17 7.53989 204.332 8.1379 204.332 10.3505V12.6229C204.332 14.8356 205.11 15.4336 206.007 15.4336C206.904 15.4336 207.621 14.8356 207.621 12.6229ZM211.808 4.78906H214.2V19.5H211.808V4.78906Z" fill="white"/>
<path d="M221.376 9.21431V5.56647H223.708V17.2276H216.173V5.56647H218.505V9.21431H221.376ZM218.505 15.015H221.376V11.4269H218.505V15.015ZM225.861 4.78906H228.253V19.5H225.861V4.78906Z" fill="white"/>
<path d="M236.146 9.75252C235.847 11.4867 234.592 12.3837 233.037 12.3837C231.183 12.3837 229.808 11.1877 229.808 8.73591V8.5565C229.808 6.10468 231.183 4.90866 233.037 4.90866C234.651 4.90866 235.847 5.80567 236.146 7.59969H237.223V4.90866H239.376V12.6828H237.223V9.75252H236.146ZM232.02 8.73591C232.02 9.75252 232.499 10.2907 233.037 10.2907C233.575 10.2907 234.053 9.75252 234.053 8.73591V8.6163C234.053 7.59969 233.575 7.06149 233.037 7.06149C232.499 7.06149 232.02 7.59969 232.02 8.6163V8.73591ZM232.379 13.4004H242.545V19.5H232.379V13.4004ZM234.771 17.2874H240.153V15.4934H234.771V17.2874ZM240.333 4.78906H242.605V12.6828H240.333V4.78906Z" fill="white"/>
<path d="M176.824 4.66946V19.5H173.296V1.61962C173.296 1.50002 173.535 1.44022 173.595 1.50002L176.824 4.66946Z" fill="white"/>
<path d="M148 7.06146V1.5H151.528V10.0515C151.528 10.1711 151.349 10.2309 151.229 10.1113L148 7.06146Z" fill="white"/>
<path d="M156.611 16.3306V1.5H153.023V19.3206C153.023 19.4402 153.263 19.5 153.382 19.4402L156.611 16.3306Z" fill="white"/>
<path d="M161.635 1.5H158.106V19.5H161.635V1.5Z" fill="white"/>
<path d="M163.488 1.55933C163.369 1.43973 163.189 1.49953 163.189 1.61913V10.051C163.189 10.1706 163.429 10.2304 163.488 10.1108L166.718 7.00119V4.60917L163.488 1.55933Z" fill="white"/>
<path d="M163.488 10.8298C163.369 10.7102 163.189 10.77 163.189 10.9494V19.3813C163.189 19.5009 163.429 19.5607 163.488 19.4411L166.718 16.3315V13.9394L163.488 10.8298Z" fill="white"/>
<path d="M171.741 4.66946V19.5H168.213V1.61962C168.213 1.50002 168.392 1.44022 168.512 1.50002L171.741 4.66946Z" fill="white"/>
<path d="M181.848 4.66946V19.5H178.319V1.61962C178.319 1.50002 178.559 1.44022 178.618 1.50002L181.848 4.66946Z" fill="white"/>
</g>
<defs>
<clipPath id="clip0_844_1483">
<rect width="94.6047" height="18" fill="white" transform="translate(148 1.5)"/>
</clipPath>
</defs>
</svg>
