<svg width="85" height="81" viewBox="0 0 85 81" fill="none" xmlns="http://www.w3.org/2000/svg">
<path d="M19.5758 77.3957C20.2674 77.0814 21.069 77.1757 21.8392 77.2385C23.2067 77.3643 24.5744 77.38 25.9261 77.2857C28.0167 77.1442 30.4216 76.484 31.239 74.5664C31.5377 73.859 31.5848 73.0731 31.6162 72.3029C31.8363 67.4773 32.0405 62.6517 32.2606 57.8104C32.3549 55.547 32.4965 53.2992 32.4022 51.0515C32.3236 49.3382 32.5593 47.6877 34.2883 46.8075C35.5615 46.163 37.0548 46.1788 38.4852 46.2416C40.6858 46.3517 43.0592 46.6031 44.6782 48.0964C46.6745 49.9355 46.8159 52.9692 47.2403 55.6413C47.8062 59.1465 49.0479 62.5103 49.9124 65.9527C50.7769 69.395 51.3272 75.1323 50.2741 78.5275C50.1169 79.0147 49.9126 79.5334 49.4724 79.8007C49.1895 79.9736 48.8437 80.005 48.5136 80.0364C38.6896 81.0267 28.3938 80.1465 18.5226 79.9893C18.0825 79.3605 18.8842 77.6944 19.5758 77.38V77.3957Z" fill="#50637C"/>
<path d="M0.619201 58.9265C0.682075 60.1368 0.760798 61.3943 1.34238 62.4317C2.53699 64.5694 5.25623 64.8524 7.56685 64.8681C24.9358 64.9938 41.3302 65.7955 58.6677 64.8681C63.9334 64.5852 70.0636 64.6009 75.0778 62.8875C76.681 62.3374 78.3001 61.6143 79.4475 60.2625C81.3809 57.9676 81.6324 52.6862 81.5852 49.574C81.3023 34.8772 85.4678 20.7148 84.1946 6.06516C84.1003 5.02773 84.006 3.94315 83.503 3.06292C82.2456 0.815169 76.1309 0.327886 73.7417 0.547945C57.5517 1.99405 41.2988 0.343591 25.093 1.27098C21.0848 1.49104 17.0766 1.88402 13.0998 2.51276C10.3491 2.95288 3.81019 3.09433 1.73535 5.24776C0.0377464 7.00824 1.24804 12.7298 1.31091 15.229C1.40523 19.7088 1.53094 24.1729 1.67241 28.6526C1.98678 38.7439 0.147676 48.8352 0.650668 58.9265H0.619201Z" fill="#64768D"/>
<path d="M78.0644 50.6591C77.9858 51.7123 77.8287 52.9068 76.9484 53.4884C76.4454 53.8185 75.801 53.8657 75.2037 53.8971C57.709 54.856 40.1513 53.2841 22.6409 54.0543C16.9823 54.3058 11.1978 54.7774 5.74353 53.2841C4.61179 39.1375 7.33116 24.7393 4.62757 10.8127C4.40751 9.64952 4.21879 8.25059 5.11475 7.48038C5.68061 6.99311 6.51388 6.16001 7.26837 6.1443C24.4015 5.86136 36.6776 4.6825 55.9013 4.79253C60.4125 4.82396 66.9829 4.87109 72.0285 4.66675C74.3234 4.57244 76.6184 4.33666 78.929 4.3681C81.3025 4.39953 81.5697 4.82397 81.2868 7.10315C80.1707 16.3613 79.432 25.5724 78.9604 34.8777C78.6932 40.1434 78.4416 45.3934 78.0644 50.6434V50.6591Z" fill="white"/>
<path d="M14.1844 12.3996C32.7165 11.6451 51.2801 12.3367 69.8279 13.0284C70.1894 13.0284 70.5982 13.0598 70.8811 13.2799C71.2741 13.5785 71.3683 14.1444 71.4155 14.6316C71.777 18.4041 71.9343 22.1922 71.8714 25.9804C71.8085 30.1615 71.494 34.3426 71.164 38.508C70.771 43.5851 70.378 48.6622 70.0008 53.7393C70.0008 53.8965 69.9694 54.0694 69.8594 54.1794C69.7336 54.3209 69.5136 54.3366 69.325 54.3523C56.2315 54.9339 43.1222 55.1854 30.013 55.1068C26.775 55.0911 23.5369 55.0439 20.2989 54.9811C18.6642 54.9496 17.0294 54.9182 15.379 54.871C14.0429 54.8396 13.0527 55.154 12.9113 53.645C12.6283 50.5013 13.1155 47.0904 13.2098 43.9152C13.3041 40.6458 13.4143 37.3921 13.5086 34.1226C13.5715 32.2993 13.98 12.3839 14.1686 12.3839L14.1844 12.3996Z" fill="#D8F5F6"/>
<path d="M50.5389 18.2351C50.5586 17.9725 50.6898 17.1324 50.4929 16.929C50.2829 16.7058 49.6331 16.988 49.3772 17.0406C48.4648 17.2375 47.546 17.4278 46.6337 17.6247C44.8025 18.0119 42.9713 18.3992 41.1401 18.7864C42.374 19.7972 43.4767 20.4995 44.6318 21.5955C44.3562 21.9959 44.0674 22.626 43.7655 22.987C42.0852 25.0019 40.4378 27.0694 38.436 28.7824C36.3686 30.5611 33.9138 31.7163 31.4066 32.7402C30.3368 33.1733 29.3917 33.3374 28.2759 33.4884C28.2956 33.4884 28.9519 33.8691 29.0898 33.9019C29.8577 34.0725 30.7831 34.1578 31.5576 33.9938C31.7742 33.9478 33.5857 33.5081 33.5857 33.3046C36.3292 32.1429 38.9217 30.6268 41.2845 28.8153C43.1485 27.391 44.8484 25.7633 46.6402 24.2537C47.5329 24.7985 48.3795 25.4351 49.1475 26.144C49.3444 26.3277 49.6791 26.5049 49.8432 26.2949C49.9022 26.2161 49.9088 26.1112 49.9088 26.0061C49.9547 24.2078 49.9875 22.4094 50.2238 20.6307C50.3288 19.83 50.4798 19.0293 50.5257 18.2285L50.5389 18.2351Z" fill="#61AA99"/>
<path d="M35.8895 41.6272C35.8895 41.1022 35.9092 40.5836 35.8895 40.0586C35.8764 39.5991 35.9092 39.0347 35.7123 38.595C35.5023 38.1158 34.9116 38.1289 34.3668 38.1289C33.6383 38.1289 32.9097 38.1289 32.1812 38.1355C32.1221 38.1355 32.0631 38.1421 32.0171 38.1552C31.7152 38.1224 31.3542 38.2602 31.3214 38.5753C31.2951 38.8312 31.282 39.0872 31.282 39.3366C31.1704 39.6976 31.2098 40.0914 31.2492 40.4983C31.3214 41.2859 31.4002 42.0801 31.4789 42.8677C31.5577 43.6553 31.6627 44.4495 31.6496 45.2371C31.643 45.6375 31.7021 46.0247 31.7612 46.4185C31.794 46.6482 31.8727 46.9042 31.8465 47.1405C31.8202 47.3571 31.7677 47.5474 31.7677 47.7771C31.7677 47.9609 31.899 48.1709 32.1222 48.2563C33.087 48.6238 34.1699 48.7682 35.2332 48.7091C35.5876 48.6894 35.8961 48.4925 35.8895 48.1972C35.8633 46.0116 35.8633 43.826 35.8895 41.6338V41.6272Z" fill="#64768D"/>
<path d="M43.2667 34.6368C43.247 34.3612 43.0435 34.1774 42.7482 34.1577C41.7046 34.0855 40.6676 34.1118 39.6306 34.2299C39.3746 34.2562 39.2237 34.4268 39.1777 34.6106C39.053 34.8075 39.0661 35.0963 39.263 35.2407C39.1974 36.3039 39.1908 37.3803 39.2302 38.437C39.2564 38.9818 39.2039 39.5397 39.1908 40.0844C39.1777 40.6358 39.2368 41.1805 39.1974 41.7319C39.1252 42.7951 39.2105 43.865 39.158 44.9348C39.1317 45.4861 39.1843 46.0309 39.1383 46.5822C39.1121 46.8644 39.158 47.1269 39.1449 47.4026C39.1449 47.6389 39.1186 47.803 39.1711 47.9933C39.0464 48.2756 39.1449 48.6562 39.5321 48.7284C40.4707 48.8991 41.5668 48.8466 42.525 48.7875C42.8204 48.7678 43.0107 48.584 43.037 48.3084C43.096 47.7308 43.142 47.1598 43.1945 46.5822C43.2404 46.0571 43.3651 45.5649 43.3914 45.0332C43.4505 43.8781 43.4898 42.7229 43.4964 41.5678C43.5161 39.2575 43.4439 36.9471 43.2667 34.6434V34.6368Z" fill="#6D9DBF"/>
<path d="M51.8386 29.8592C51.8518 29.5638 51.5958 29.3866 51.3332 29.3538C49.863 29.17 48.3863 29.1635 46.9095 29.321C46.5879 29.1635 46.0891 29.321 46.181 29.8657C46.2204 30.102 46.1482 30.4039 46.1482 30.6468C46.1482 30.8896 46.1482 31.1325 46.1679 31.3753C46.1941 31.7429 46.2335 32.1104 46.286 32.478C46.5814 37.6762 46.8833 42.8744 47.1786 48.0726C47.1983 48.4007 47.4346 48.6633 47.7759 48.6698C49.0033 48.7027 50.224 48.5976 51.4251 48.3614C51.6811 48.3089 51.8714 48.0266 51.8649 47.7772C51.7927 41.8111 51.622 35.8253 51.8255 29.8592H51.8386Z" fill="#F9DD3A"/>
</svg>
