<svg width="960" height="812" viewBox="0 0 960 812" fill="none" xmlns="http://www.w3.org/2000/svg">
<rect width="960" height="812" fill="#E5FBE2"/>
<g clip-path="url(#clip0_1895_1337)">
<path d="M711.162 60H249.414V314.552H711.162V60Z" fill="#AD9476"/>
<path d="M696.025 75.2136L711.163 60V314.552H696.025V75.2136Z" fill="#745D42"/>
<path d="M249.414 60L264.551 75.2136V312.789L249.414 314.552V60Z" fill="#745D42"/>
<path d="M696.026 75.2134H264.552V304.337H696.026V75.2134Z" fill="#40713D"/>
<path d="M264.552 94.54V304.338H696.026V251.04C527.15 280.514 336.856 213.215 264.552 94.54Z" fill="#39652E"/>
<path d="M730 323.831H230L250.834 305.282H709.166L730 323.831Z" fill="#AD9476"/>
<path d="M730 323.831H230V330H730V323.831Z" fill="#BCA890"/>
<path d="M694.486 75.4546H264.579V304.545H694.486V75.4546Z" stroke="white" stroke-width="3" stroke-miterlimit="10"/>
<path d="M313.93 314.803L327.561 308.241C327.845 308.107 328.172 308.04 328.533 308.082L314.902 314.644C314.549 314.611 314.222 314.669 313.93 314.803Z" fill="white"/>
<path d="M329.643 312.345L316.012 318.907C316.649 318.606 317.062 317.912 317.028 317.076C316.985 315.856 316.029 314.769 314.885 314.644L328.516 308.082C329.652 308.199 330.616 309.294 330.659 310.515C330.685 311.359 330.272 312.044 329.643 312.345Z" fill="white"/>
<path d="M314.894 314.644C316.03 314.761 316.993 315.856 317.036 317.076C317.079 318.297 316.193 319.191 315.049 319.074C313.913 318.957 312.949 317.862 312.906 316.642C312.863 315.421 313.749 314.527 314.894 314.652V314.644Z" fill="#CACACA"/>
<path d="M349.798 314.252L370.933 309.47C371.226 309.403 371.527 309.42 371.828 309.52L350.693 314.302C350.392 314.202 350.09 314.185 349.798 314.252Z" fill="white"/>
<path d="M371.518 315.414L350.383 320.195C351.226 320.003 351.966 319.15 352.216 317.947C352.551 316.333 351.863 314.695 350.693 314.294L371.828 309.512C373.007 309.913 373.687 311.552 373.351 313.165C373.101 314.369 372.361 315.221 371.518 315.414Z" fill="white"/>
<path d="M350.693 314.302C351.872 314.703 352.551 316.341 352.216 317.955C351.88 319.568 350.658 320.554 349.488 320.153C348.309 319.752 347.629 318.114 347.965 316.5C348.3 314.887 349.522 313.901 350.693 314.302Z" fill="#CACACA"/>
<path d="M646.225 312.487L626.252 308.634C625.976 308.584 625.692 308.601 625.408 308.709L645.382 312.563C645.657 312.454 645.95 312.437 646.225 312.487Z" fill="#FFEE57"/>
<path d="M625.89 314.234L645.863 318.088C645.063 317.937 644.34 317.16 644.073 316.04C643.712 314.535 644.297 312.981 645.39 312.563L625.417 308.709C624.324 309.127 623.739 310.682 624.1 312.186C624.367 313.307 625.09 314.084 625.89 314.234Z" fill="#FFEE57"/>
<path d="M645.389 312.563C644.296 312.981 643.711 314.536 644.073 316.04C644.434 317.545 645.613 318.431 646.706 318.013C647.799 317.604 648.384 316.04 648.023 314.536C647.661 313.031 646.482 312.145 645.398 312.563H645.389Z" fill="#C8BA3A"/>
<path d="M496.359 302.231L537.967 299.03C536.831 299.113 535.945 300.426 535.954 302.089L494.346 305.291C494.346 303.619 495.223 302.315 496.359 302.231Z" fill="white"/>
<path d="M496.617 302.231L538.225 299.03L538.724 299.072L497.116 302.273L496.617 302.231Z" fill="#979797"/>
<path d="M497.116 302.089L538.724 298.879L538.733 302.064L497.125 305.266L497.116 302.089Z" fill="white"/>
<path d="M497.116 302.273L538.724 299.072L538.733 302.064L497.125 305.266L497.116 302.273Z" fill="white"/>
<path d="M496.617 302.039L538.225 298.837L538.724 298.879L497.116 302.089L496.617 302.039Z" fill="#979797"/>
<path d="M497.245 299.974L538.853 296.764L538.862 301.888L497.254 305.09L497.245 299.974Z" fill="white"/>
<path d="M496.359 302.231L537.967 299.03C538.053 299.03 538.139 299.03 538.225 299.03L496.618 302.231C496.532 302.231 496.445 302.231 496.359 302.231Z" fill="#979797"/>
<path d="M496.342 302.039L537.95 298.837C538.036 298.837 538.13 298.837 538.225 298.837L496.617 302.039C496.523 302.039 496.436 302.039 496.342 302.039Z" fill="#979797"/>
<path d="M497.245 299.974L538.853 296.764L542.149 297.048L500.541 300.25L497.245 299.974Z" fill="white"/>
<path d="M497.107 299.773L538.715 296.572L541.951 296.839L500.343 300.049L497.107 299.773Z" fill="#BCA890"/>
<path d="M500.499 300.116L542.107 296.915L542.15 297.048L500.542 300.25L500.499 300.116Z" fill="white"/>
<path d="M501.608 290.838L543.216 287.636L553.121 288.48L511.513 291.682L501.608 290.838Z" fill="#BCA890"/>
<path d="M553.123 288.665C553.725 288.715 554.267 289.108 554.663 289.701C540.791 290.771 526.927 291.833 513.055 292.903C512.659 292.309 512.117 291.916 511.515 291.866C524.001 290.905 540.644 289.626 553.123 288.665Z" fill="white"/>
<path d="M512.624 301.278L554.232 298.077L557.382 298.344L515.774 301.546L512.624 301.278Z" fill="white"/>
<path d="M512.83 301.111L554.438 297.901L557.519 298.169L515.911 301.37L512.83 301.111Z" fill="#BCA890"/>
<path d="M511.515 291.682L553.123 288.48C554.396 288.589 555.429 290.152 555.437 291.958C555.437 293.061 555.042 295.954 554.439 297.901L512.831 301.103C513.434 299.155 513.83 296.263 513.83 295.159C513.83 293.346 512.788 291.791 511.515 291.682Z" fill="#AD9476"/>
<path d="M515.911 303.686L557.519 300.484V300.668L515.911 303.87V303.686Z" fill="#979797"/>
<path d="M511.513 291.866C512.709 291.966 513.691 293.438 513.691 295.151C513.691 296.263 513.286 299.23 512.666 301.153L512.623 301.278L515.773 301.546V306.662L497.254 305.09V299.974L500.541 300.259L500.498 300.125C499.87 298.094 499.448 295.059 499.44 293.947C499.44 292.242 500.404 290.93 501.608 291.039L511.513 291.883V291.866Z" fill="#745D42"/>
<path d="M512.83 301.111L515.911 301.37V303.686V303.878V306.87L497.116 305.274V302.089L497.107 299.774L500.335 300.049C499.724 298.001 499.31 295.034 499.31 293.931C499.31 292.117 500.334 290.737 501.608 290.838L511.513 291.682C512.787 291.791 513.819 293.354 513.828 295.159C513.828 296.263 513.432 299.155 512.83 301.103V301.111ZM515.79 306.67V301.554L512.632 301.287L512.675 301.161C513.294 299.239 513.708 296.271 513.699 295.159C513.699 293.454 512.718 291.983 511.522 291.874L501.617 291.03C500.421 290.93 499.448 292.234 499.448 293.939C499.448 295.051 499.87 298.085 500.507 300.116L500.55 300.25L497.245 299.966V305.082L515.79 306.653" fill="#745D42"/>
<path d="M515.911 301.37L557.519 298.169V300.484L515.911 303.686V301.37Z" fill="#C9BAA5"/>
<path d="M515.911 303.87L557.519 300.668L558.018 300.71L516.41 303.911L515.911 303.87Z" fill="#979797"/>
<path d="M515.911 303.686L557.519 300.484L558.018 300.526L516.41 303.728L515.911 303.686Z" fill="#979797"/>
<path d="M516.41 303.912C517.667 304.02 518.699 305.567 518.699 307.356L518.716 315.79C518.716 316.985 518.037 317.897 517.202 317.83L495.877 316.016C495.043 315.941 494.354 314.912 494.354 313.725L494.337 305.291C494.337 303.502 495.352 302.123 496.609 302.232L497.108 302.273V305.266L515.911 306.863V303.87L516.402 303.912H516.41Z" fill="#666666"/>
<path d="M516.41 303.728C517.744 303.845 518.829 305.475 518.837 307.372L518.854 315.807C518.854 317.102 518.123 318.097 517.211 318.022L495.886 316.208C494.974 316.133 494.234 315.013 494.225 313.717L494.208 305.283C494.208 303.385 495.284 301.931 496.618 302.048L497.117 302.089V305.274V302.282L496.609 302.24C495.353 302.131 494.329 303.502 494.337 305.299L494.354 313.734C494.354 314.929 495.043 315.957 495.877 316.024L517.202 317.838C518.037 317.913 518.717 316.994 518.717 315.798L518.699 307.364C518.699 305.575 517.667 304.02 516.41 303.92L515.911 303.878V303.686L516.41 303.728Z" fill="#666666"/>
<path d="M560.445 304.17C560.445 302.273 559.352 300.635 558.018 300.526L516.41 303.727C517.744 303.844 518.828 305.474 518.837 307.372L518.854 315.806C518.854 317.01 518.217 317.955 517.4 318.022L559.008 314.82C559.825 314.753 560.471 313.817 560.462 312.605L560.445 304.17Z" fill="#979797"/>
<path d="M401.13 146.86C400.319 146.86 399.673 146.645 399.192 146.214C398.736 145.758 398.508 145.163 398.508 144.428C398.508 140.78 401.383 136.651 407.134 132.04C409.059 130.52 410.44 129.152 411.276 127.936C412.137 126.72 412.568 125.491 412.568 124.25C412.568 122.983 412.163 121.957 411.352 121.172C410.567 120.361 409.553 119.956 408.312 119.956C407.425 119.956 406.589 120.171 405.804 120.602C405.044 121.033 404.246 121.704 403.41 122.616C402.827 123.275 402.131 123.604 401.32 123.604C400.737 123.604 400.243 123.439 399.838 123.11C399.205 122.629 398.888 122.046 398.888 121.362C398.888 120.805 399.053 120.285 399.382 119.804C400.243 118.487 401.459 117.423 403.03 116.612C404.626 115.801 406.361 115.396 408.236 115.396C410.136 115.396 411.795 115.789 413.214 116.574C414.633 117.334 415.735 118.385 416.52 119.728C417.305 121.045 417.698 122.515 417.698 124.136C417.698 125.681 417.407 127.075 416.824 128.316C416.267 129.481 415.519 130.558 414.582 131.546C413.67 132.534 412.201 133.889 410.174 135.612C408.426 137.107 407.096 138.373 406.184 139.412C405.297 140.425 404.689 141.388 404.36 142.3H416.064C416.849 142.3 417.483 142.515 417.964 142.946C418.445 143.351 418.686 143.896 418.686 144.58C418.686 145.289 418.445 145.847 417.964 146.252C417.508 146.657 416.875 146.86 416.064 146.86H401.13ZM431.756 147.164C429.527 147.164 427.589 146.531 425.942 145.264C424.296 143.997 423.029 142.173 422.142 139.792C421.256 137.411 420.812 134.573 420.812 131.28C420.812 127.987 421.256 125.149 422.142 122.768C423.029 120.387 424.296 118.563 425.942 117.296C427.589 116.029 429.527 115.396 431.756 115.396C433.96 115.396 435.886 116.029 437.532 117.296C439.179 118.537 440.446 120.361 441.332 122.768C442.219 125.149 442.662 127.987 442.662 131.28C442.662 134.573 442.219 137.423 441.332 139.83C440.446 142.211 439.179 144.035 437.532 145.302C435.886 146.543 433.96 147.164 431.756 147.164ZM425.942 131.28C425.942 134.801 426.462 137.575 427.5 139.602C428.539 141.603 429.958 142.604 431.756 142.604C433.555 142.604 434.961 141.603 435.974 139.602C437.013 137.575 437.532 134.801 437.532 131.28C437.532 127.759 437.013 124.997 435.974 122.996C434.961 120.969 433.555 119.956 431.756 119.956C429.958 119.956 428.539 120.969 427.5 122.996C426.462 124.997 425.942 127.759 425.942 131.28ZM447.408 146.86C446.598 146.86 445.952 146.645 445.47 146.214C445.014 145.758 444.786 145.163 444.786 144.428C444.786 140.78 447.662 136.651 453.412 132.04C455.338 130.52 456.718 129.152 457.554 127.936C458.416 126.72 458.846 125.491 458.846 124.25C458.846 122.983 458.441 121.957 457.63 121.172C456.845 120.361 455.832 119.956 454.59 119.956C453.704 119.956 452.868 120.171 452.082 120.602C451.322 121.033 450.524 121.704 449.688 122.616C449.106 123.275 448.409 123.604 447.598 123.604C447.016 123.604 446.522 123.439 446.116 123.11C445.483 122.629 445.166 122.046 445.166 121.362C445.166 120.805 445.331 120.285 445.66 119.804C446.522 118.487 447.738 117.423 449.308 116.612C450.904 115.801 452.64 115.396 454.514 115.396C456.414 115.396 458.074 115.789 459.492 116.574C460.911 117.334 462.013 118.385 462.798 119.728C463.584 121.045 463.976 122.515 463.976 124.136C463.976 125.681 463.685 127.075 463.102 128.316C462.545 129.481 461.798 130.558 460.86 131.546C459.948 132.534 458.479 133.889 456.452 135.612C454.704 137.107 453.374 138.373 452.462 139.412C451.576 140.425 450.968 141.388 450.638 142.3H462.342C463.128 142.3 463.761 142.515 464.242 142.946C464.724 143.351 464.964 143.896 464.964 144.58C464.964 145.289 464.724 145.847 464.242 146.252C463.786 146.657 463.153 146.86 462.342 146.86H447.408ZM469.713 146.86C468.902 146.86 468.256 146.645 467.775 146.214C467.319 145.758 467.091 145.163 467.091 144.428C467.091 140.78 469.966 136.651 475.717 132.04C477.642 130.52 479.023 129.152 479.859 127.936C480.72 126.72 481.151 125.491 481.151 124.25C481.151 122.983 480.745 121.957 479.935 121.172C479.149 120.361 478.136 119.956 476.895 119.956C476.008 119.956 475.172 120.171 474.387 120.602C473.627 121.033 472.829 121.704 471.993 122.616C471.41 123.275 470.713 123.604 469.903 123.604C469.32 123.604 468.826 123.439 468.421 123.11C467.787 122.629 467.471 122.046 467.471 121.362C467.471 120.805 467.635 120.285 467.965 119.804C468.826 118.487 470.042 117.423 471.613 116.612C473.209 115.801 474.944 115.396 476.819 115.396C478.719 115.396 480.378 115.789 481.797 116.574C483.215 117.334 484.317 118.385 485.103 119.728C485.888 121.045 486.281 122.515 486.281 124.136C486.281 125.681 485.989 127.075 485.407 128.316C484.849 129.481 484.102 130.558 483.165 131.546C482.253 132.534 480.783 133.889 478.757 135.612C477.009 137.107 475.679 138.373 474.767 139.412C473.88 140.425 473.272 141.388 472.943 142.3H484.647C485.432 142.3 486.065 142.515 486.547 142.946C487.028 143.351 487.269 143.896 487.269 144.58C487.269 145.289 487.028 145.847 486.547 146.252C486.091 146.657 485.457 146.86 484.647 146.86H469.713ZM525.2 150.432C524.465 150.432 523.87 150.217 523.414 149.786C522.983 149.355 522.768 148.76 522.768 148V130.862H519.462V147.506C519.462 148.266 519.246 148.861 518.816 149.292C518.41 149.723 517.84 149.938 517.106 149.938C516.371 149.938 515.776 149.723 515.32 149.292C514.889 148.861 514.674 148.266 514.674 147.506V116.84C514.674 116.08 514.889 115.485 515.32 115.054C515.776 114.623 516.371 114.408 517.106 114.408C517.84 114.408 518.41 114.623 518.816 115.054C519.246 115.485 519.462 116.08 519.462 116.84V126.302H522.768V116.46C522.768 115.7 522.983 115.105 523.414 114.674C523.87 114.243 524.465 114.028 525.2 114.028C525.934 114.028 526.504 114.243 526.91 114.674C527.34 115.105 527.556 115.7 527.556 116.46V148C527.556 148.76 527.34 149.355 526.91 149.786C526.504 150.217 525.934 150.432 525.2 150.432ZM496.776 139.906C496.776 139.146 497.118 138.525 497.802 138.044C499.6 136.676 501.209 135.055 502.628 133.18C504.046 131.305 505.148 129.38 505.934 127.404C506.719 125.428 507.112 123.617 507.112 121.97V121.514C507.112 121.007 506.896 120.729 506.466 120.678H500.006C499.271 120.678 498.688 120.475 498.258 120.07C497.852 119.665 497.65 119.107 497.65 118.398C497.65 117.689 497.852 117.131 498.258 116.726C498.688 116.321 499.271 116.118 500.006 116.118H508.822C509.734 116.118 510.481 116.422 511.064 117.03C511.646 117.613 511.938 118.385 511.938 119.348V120.374C511.938 123.667 511.342 126.771 510.152 129.684C509.012 132.42 507.593 134.839 505.896 136.942C504.224 139.019 502.501 140.641 500.728 141.806C500.221 142.135 499.689 142.3 499.132 142.3C498.397 142.3 497.802 142.021 497.346 141.464C496.966 141.008 496.776 140.489 496.776 139.906ZM533.738 133.37C533.003 133.37 532.383 133.079 531.876 132.496C531.496 131.989 531.306 131.457 531.306 130.9C531.306 130.115 531.661 129.519 532.37 129.114C533.865 128.253 535.106 127.467 536.094 126.758C538.374 125.137 539.514 123.313 539.514 121.286V119.918H534.308C533.573 119.918 532.991 119.715 532.56 119.31C532.155 118.905 531.952 118.347 531.952 117.638C531.952 116.929 532.155 116.371 532.56 115.966C532.991 115.561 533.573 115.358 534.308 115.358H549.128C549.863 115.358 550.433 115.561 550.838 115.966C551.269 116.371 551.484 116.929 551.484 117.638C551.484 118.347 551.269 118.905 550.838 119.31C550.433 119.715 549.863 119.918 549.128 119.918H544.454V121.286C544.454 121.97 544.378 122.654 544.226 123.338C547.266 124.909 549.685 126.517 551.484 128.164C552.067 128.671 552.358 129.317 552.358 130.102C552.358 130.761 552.143 131.305 551.712 131.736C551.231 132.217 550.648 132.458 549.964 132.458C549.381 132.458 548.875 132.281 548.444 131.926C546.544 130.279 544.454 128.81 542.174 127.518C540.629 129.545 538.285 131.381 535.144 133.028C534.688 133.256 534.219 133.37 533.738 133.37ZM540.046 142.452C540.046 140.679 540.439 139.133 541.224 137.816C542.035 136.473 543.162 135.435 544.606 134.7C546.075 133.965 547.747 133.598 549.622 133.598C551.497 133.598 553.156 133.965 554.6 134.7C556.069 135.435 557.197 136.473 557.982 137.816C558.793 139.133 559.198 140.679 559.198 142.452C559.198 144.225 558.793 145.783 557.982 147.126C557.197 148.443 556.069 149.469 554.6 150.204C553.156 150.939 551.497 151.306 549.622 151.306C547.747 151.306 546.075 150.939 544.606 150.204C543.162 149.469 542.035 148.443 541.224 147.126C540.439 145.783 540.046 144.225 540.046 142.452ZM544.986 142.452C544.986 143.719 545.429 144.757 546.316 145.568C547.203 146.353 548.305 146.746 549.622 146.746C550.939 146.746 552.041 146.353 552.928 145.568C553.815 144.757 554.258 143.719 554.258 142.452C554.258 141.211 553.815 140.185 552.928 139.374C552.041 138.563 550.939 138.158 549.622 138.158C548.305 138.158 547.203 138.563 546.316 139.374C545.429 140.185 544.986 141.211 544.986 142.452ZM549.166 123.262C549.166 122.553 549.369 121.995 549.774 121.59C550.205 121.185 550.787 120.982 551.522 120.982H555.322V116.308C555.322 115.599 555.55 115.041 556.006 114.636C556.462 114.231 557.057 114.028 557.792 114.028H557.982C558.717 114.028 559.312 114.231 559.768 114.636C560.224 115.041 560.452 115.599 560.452 116.308V131.926C560.452 132.635 560.224 133.193 559.768 133.598C559.312 134.003 558.717 134.206 557.982 134.206H557.792C557.057 134.206 556.462 134.003 556.006 133.598C555.55 133.193 555.322 132.635 555.322 131.926V125.542H551.522C550.787 125.542 550.205 125.339 549.774 124.934C549.369 124.529 549.166 123.971 549.166 123.262Z" fill="#000543"/>
<path d="M401.13 146.86C400.319 146.86 399.673 146.645 399.192 146.214C398.736 145.758 398.508 145.163 398.508 144.428C398.508 140.78 401.383 136.651 407.134 132.04C409.059 130.52 410.44 129.152 411.276 127.936C412.137 126.72 412.568 125.491 412.568 124.25C412.568 122.983 412.163 121.957 411.352 121.172C410.567 120.361 409.553 119.956 408.312 119.956C407.425 119.956 406.589 120.171 405.804 120.602C405.044 121.033 404.246 121.704 403.41 122.616C402.827 123.275 402.131 123.604 401.32 123.604C400.737 123.604 400.243 123.439 399.838 123.11C399.205 122.629 398.888 122.046 398.888 121.362C398.888 120.805 399.053 120.285 399.382 119.804C400.243 118.487 401.459 117.423 403.03 116.612C404.626 115.801 406.361 115.396 408.236 115.396C410.136 115.396 411.795 115.789 413.214 116.574C414.633 117.334 415.735 118.385 416.52 119.728C417.305 121.045 417.698 122.515 417.698 124.136C417.698 125.681 417.407 127.075 416.824 128.316C416.267 129.481 415.519 130.558 414.582 131.546C413.67 132.534 412.201 133.889 410.174 135.612C408.426 137.107 407.096 138.373 406.184 139.412C405.297 140.425 404.689 141.388 404.36 142.3H416.064C416.849 142.3 417.483 142.515 417.964 142.946C418.445 143.351 418.686 143.896 418.686 144.58C418.686 145.289 418.445 145.847 417.964 146.252C417.508 146.657 416.875 146.86 416.064 146.86H401.13ZM431.756 147.164C429.527 147.164 427.589 146.531 425.942 145.264C424.296 143.997 423.029 142.173 422.142 139.792C421.256 137.411 420.812 134.573 420.812 131.28C420.812 127.987 421.256 125.149 422.142 122.768C423.029 120.387 424.296 118.563 425.942 117.296C427.589 116.029 429.527 115.396 431.756 115.396C433.96 115.396 435.886 116.029 437.532 117.296C439.179 118.537 440.446 120.361 441.332 122.768C442.219 125.149 442.662 127.987 442.662 131.28C442.662 134.573 442.219 137.423 441.332 139.83C440.446 142.211 439.179 144.035 437.532 145.302C435.886 146.543 433.96 147.164 431.756 147.164ZM425.942 131.28C425.942 134.801 426.462 137.575 427.5 139.602C428.539 141.603 429.958 142.604 431.756 142.604C433.555 142.604 434.961 141.603 435.974 139.602C437.013 137.575 437.532 134.801 437.532 131.28C437.532 127.759 437.013 124.997 435.974 122.996C434.961 120.969 433.555 119.956 431.756 119.956C429.958 119.956 428.539 120.969 427.5 122.996C426.462 124.997 425.942 127.759 425.942 131.28ZM447.408 146.86C446.598 146.86 445.952 146.645 445.47 146.214C445.014 145.758 444.786 145.163 444.786 144.428C444.786 140.78 447.662 136.651 453.412 132.04C455.338 130.52 456.718 129.152 457.554 127.936C458.416 126.72 458.846 125.491 458.846 124.25C458.846 122.983 458.441 121.957 457.63 121.172C456.845 120.361 455.832 119.956 454.59 119.956C453.704 119.956 452.868 120.171 452.082 120.602C451.322 121.033 450.524 121.704 449.688 122.616C449.106 123.275 448.409 123.604 447.598 123.604C447.016 123.604 446.522 123.439 446.116 123.11C445.483 122.629 445.166 122.046 445.166 121.362C445.166 120.805 445.331 120.285 445.66 119.804C446.522 118.487 447.738 117.423 449.308 116.612C450.904 115.801 452.64 115.396 454.514 115.396C456.414 115.396 458.074 115.789 459.492 116.574C460.911 117.334 462.013 118.385 462.798 119.728C463.584 121.045 463.976 122.515 463.976 124.136C463.976 125.681 463.685 127.075 463.102 128.316C462.545 129.481 461.798 130.558 460.86 131.546C459.948 132.534 458.479 133.889 456.452 135.612C454.704 137.107 453.374 138.373 452.462 139.412C451.576 140.425 450.968 141.388 450.638 142.3H462.342C463.128 142.3 463.761 142.515 464.242 142.946C464.724 143.351 464.964 143.896 464.964 144.58C464.964 145.289 464.724 145.847 464.242 146.252C463.786 146.657 463.153 146.86 462.342 146.86H447.408ZM469.713 146.86C468.902 146.86 468.256 146.645 467.775 146.214C467.319 145.758 467.091 145.163 467.091 144.428C467.091 140.78 469.966 136.651 475.717 132.04C477.642 130.52 479.023 129.152 479.859 127.936C480.72 126.72 481.151 125.491 481.151 124.25C481.151 122.983 480.745 121.957 479.935 121.172C479.149 120.361 478.136 119.956 476.895 119.956C476.008 119.956 475.172 120.171 474.387 120.602C473.627 121.033 472.829 121.704 471.993 122.616C471.41 123.275 470.713 123.604 469.903 123.604C469.32 123.604 468.826 123.439 468.421 123.11C467.787 122.629 467.471 122.046 467.471 121.362C467.471 120.805 467.635 120.285 467.965 119.804C468.826 118.487 470.042 117.423 471.613 116.612C473.209 115.801 474.944 115.396 476.819 115.396C478.719 115.396 480.378 115.789 481.797 116.574C483.215 117.334 484.317 118.385 485.103 119.728C485.888 121.045 486.281 122.515 486.281 124.136C486.281 125.681 485.989 127.075 485.407 128.316C484.849 129.481 484.102 130.558 483.165 131.546C482.253 132.534 480.783 133.889 478.757 135.612C477.009 137.107 475.679 138.373 474.767 139.412C473.88 140.425 473.272 141.388 472.943 142.3H484.647C485.432 142.3 486.065 142.515 486.547 142.946C487.028 143.351 487.269 143.896 487.269 144.58C487.269 145.289 487.028 145.847 486.547 146.252C486.091 146.657 485.457 146.86 484.647 146.86H469.713ZM525.2 150.432C524.465 150.432 523.87 150.217 523.414 149.786C522.983 149.355 522.768 148.76 522.768 148V130.862H519.462V147.506C519.462 148.266 519.246 148.861 518.816 149.292C518.41 149.723 517.84 149.938 517.106 149.938C516.371 149.938 515.776 149.723 515.32 149.292C514.889 148.861 514.674 148.266 514.674 147.506V116.84C514.674 116.08 514.889 115.485 515.32 115.054C515.776 114.623 516.371 114.408 517.106 114.408C517.84 114.408 518.41 114.623 518.816 115.054C519.246 115.485 519.462 116.08 519.462 116.84V126.302H522.768V116.46C522.768 115.7 522.983 115.105 523.414 114.674C523.87 114.243 524.465 114.028 525.2 114.028C525.934 114.028 526.504 114.243 526.91 114.674C527.34 115.105 527.556 115.7 527.556 116.46V148C527.556 148.76 527.34 149.355 526.91 149.786C526.504 150.217 525.934 150.432 525.2 150.432ZM496.776 139.906C496.776 139.146 497.118 138.525 497.802 138.044C499.6 136.676 501.209 135.055 502.628 133.18C504.046 131.305 505.148 129.38 505.934 127.404C506.719 125.428 507.112 123.617 507.112 121.97V121.514C507.112 121.007 506.896 120.729 506.466 120.678H500.006C499.271 120.678 498.688 120.475 498.258 120.07C497.852 119.665 497.65 119.107 497.65 118.398C497.65 117.689 497.852 117.131 498.258 116.726C498.688 116.321 499.271 116.118 500.006 116.118H508.822C509.734 116.118 510.481 116.422 511.064 117.03C511.646 117.613 511.938 118.385 511.938 119.348V120.374C511.938 123.667 511.342 126.771 510.152 129.684C509.012 132.42 507.593 134.839 505.896 136.942C504.224 139.019 502.501 140.641 500.728 141.806C500.221 142.135 499.689 142.3 499.132 142.3C498.397 142.3 497.802 142.021 497.346 141.464C496.966 141.008 496.776 140.489 496.776 139.906ZM533.738 133.37C533.003 133.37 532.383 133.079 531.876 132.496C531.496 131.989 531.306 131.457 531.306 130.9C531.306 130.115 531.661 129.519 532.37 129.114C533.865 128.253 535.106 127.467 536.094 126.758C538.374 125.137 539.514 123.313 539.514 121.286V119.918H534.308C533.573 119.918 532.991 119.715 532.56 119.31C532.155 118.905 531.952 118.347 531.952 117.638C531.952 116.929 532.155 116.371 532.56 115.966C532.991 115.561 533.573 115.358 534.308 115.358H549.128C549.863 115.358 550.433 115.561 550.838 115.966C551.269 116.371 551.484 116.929 551.484 117.638C551.484 118.347 551.269 118.905 550.838 119.31C550.433 119.715 549.863 119.918 549.128 119.918H544.454V121.286C544.454 121.97 544.378 122.654 544.226 123.338C547.266 124.909 549.685 126.517 551.484 128.164C552.067 128.671 552.358 129.317 552.358 130.102C552.358 130.761 552.143 131.305 551.712 131.736C551.231 132.217 550.648 132.458 549.964 132.458C549.381 132.458 548.875 132.281 548.444 131.926C546.544 130.279 544.454 128.81 542.174 127.518C540.629 129.545 538.285 131.381 535.144 133.028C534.688 133.256 534.219 133.37 533.738 133.37ZM540.046 142.452C540.046 140.679 540.439 139.133 541.224 137.816C542.035 136.473 543.162 135.435 544.606 134.7C546.075 133.965 547.747 133.598 549.622 133.598C551.497 133.598 553.156 133.965 554.6 134.7C556.069 135.435 557.197 136.473 557.982 137.816C558.793 139.133 559.198 140.679 559.198 142.452C559.198 144.225 558.793 145.783 557.982 147.126C557.197 148.443 556.069 149.469 554.6 150.204C553.156 150.939 551.497 151.306 549.622 151.306C547.747 151.306 546.075 150.939 544.606 150.204C543.162 149.469 542.035 148.443 541.224 147.126C540.439 145.783 540.046 144.225 540.046 142.452ZM544.986 142.452C544.986 143.719 545.429 144.757 546.316 145.568C547.203 146.353 548.305 146.746 549.622 146.746C550.939 146.746 552.041 146.353 552.928 145.568C553.815 144.757 554.258 143.719 554.258 142.452C554.258 141.211 553.815 140.185 552.928 139.374C552.041 138.563 550.939 138.158 549.622 138.158C548.305 138.158 547.203 138.563 546.316 139.374C545.429 140.185 544.986 141.211 544.986 142.452ZM549.166 123.262C549.166 122.553 549.369 121.995 549.774 121.59C550.205 121.185 550.787 120.982 551.522 120.982H555.322V116.308C555.322 115.599 555.55 115.041 556.006 114.636C556.462 114.231 557.057 114.028 557.792 114.028H557.982C558.717 114.028 559.312 114.231 559.768 114.636C560.224 115.041 560.452 115.599 560.452 116.308V131.926C560.452 132.635 560.224 133.193 559.768 133.598C559.312 134.003 558.717 134.206 557.982 134.206H557.792C557.057 134.206 556.462 134.003 556.006 133.598C555.55 133.193 555.322 132.635 555.322 131.926V125.542H551.522C550.787 125.542 550.205 125.339 549.774 124.934C549.369 124.529 549.166 123.971 549.166 123.262Z" fill="white"/>
<path d="M353.553 201.96C352.78 201.96 352.153 201.747 351.673 201.32C351.193 200.893 350.953 200.307 350.953 199.56V187.12L350.873 187L341.993 172.96C341.673 172.427 341.513 171.933 341.513 171.48C341.513 170.653 341.98 169.933 342.913 169.32C343.473 169 344.02 168.84 344.553 168.84C345.46 168.84 346.153 169.24 346.633 170.04L353.633 181.92L360.633 170.04C361.113 169.24 361.807 168.84 362.713 168.84C363.247 168.84 363.793 169 364.353 169.32C365.287 169.933 365.753 170.653 365.753 171.48C365.753 171.933 365.593 172.427 365.273 172.96L356.393 187L356.353 187.08V199.56C356.353 200.307 356.113 200.893 355.633 201.32C355.153 201.747 354.527 201.96 353.753 201.96H353.553ZM374.322 201.8C372.002 201.8 370.322 201.267 369.282 200.2C368.268 199.133 367.762 197.4 367.762 195V172.6C367.762 171.293 368.015 170.373 368.522 169.84C369.055 169.28 369.988 169 371.322 169H379.602C381.682 169 383.522 169.387 385.122 170.16C386.748 170.907 388.002 171.96 388.882 173.32C389.762 174.653 390.202 176.187 390.202 177.92C390.202 179.333 389.842 180.613 389.122 181.76C388.428 182.907 387.482 183.773 386.282 184.36C388.202 185.08 389.655 186.173 390.642 187.64C391.655 189.08 392.162 190.773 392.162 192.72C392.162 194.48 391.708 196.053 390.802 197.44C389.895 198.8 388.602 199.867 386.922 200.64C385.268 201.413 383.348 201.8 381.162 201.8H374.322ZM373.162 194.84C373.162 195.587 373.348 196.133 373.722 196.48C374.095 196.827 374.668 197 375.442 197H381.562C383.135 197 384.388 196.573 385.322 195.72C386.282 194.84 386.762 193.693 386.762 192.28C386.762 190.867 386.242 189.72 385.202 188.84C384.188 187.96 382.842 187.52 381.162 187.52H373.162V194.84ZM380.002 182.8C381.495 182.8 382.668 182.4 383.522 181.6C384.375 180.773 384.802 179.667 384.802 178.28C384.802 176.893 384.362 175.8 383.482 175C382.628 174.2 381.468 173.8 380.002 173.8H374.162C373.815 173.8 373.562 173.88 373.402 174.04C373.242 174.173 373.162 174.427 373.162 174.8V182.8H380.002ZM397.16 201.96C396.387 201.96 395.76 201.747 395.28 201.32C394.8 200.893 394.56 200.307 394.56 199.56V171.4C394.56 170.653 394.8 170.04 395.28 169.56C395.76 169.08 396.387 168.84 397.16 168.84C398.627 168.84 399.64 169.533 400.2 170.92C404.333 180.867 407.32 188.547 409.16 193.96H409.32C410.573 190.6 413.613 182.92 418.44 170.92C418.707 170.227 419.067 169.707 419.52 169.36C420 169.013 420.627 168.84 421.4 168.84C422.173 168.84 422.8 169.08 423.28 169.56C423.76 170.04 424 170.653 424 171.4V199.56C424 200.307 423.76 200.893 423.28 201.32C422.8 201.747 422.173 201.96 421.4 201.96H421.2C420.427 201.96 419.8 201.747 419.32 201.32C418.84 200.893 418.6 200.307 418.6 199.56V188.04L419.04 182.24C417.44 186.613 415.16 192.36 412.2 199.48C411.853 200.36 411.453 201 411 201.4C410.573 201.773 410 201.96 409.28 201.96C408.56 201.96 407.973 201.773 407.52 201.4C407.093 201 406.707 200.36 406.36 199.48C403.293 192.147 401.013 186.307 399.52 181.96L399.96 188.04V199.56C399.96 200.307 399.72 200.893 399.24 201.32C398.76 201.747 398.133 201.96 397.36 201.96H397.16ZM515.844 201.52C515.071 201.52 514.457 201.307 514.004 200.88C513.577 200.453 513.364 199.867 513.364 199.12C513.364 198.373 513.577 197.787 514.004 197.36C514.457 196.933 515.071 196.72 515.844 196.72H521.004V183.92C521.004 183.12 521.244 182.493 521.724 182.04C522.231 181.587 522.884 181.36 523.684 181.36C524.537 181.36 525.204 181.587 525.684 182.04C526.164 182.493 526.404 183.12 526.404 183.92V196.72H529.564V183.92C529.564 183.12 529.804 182.493 530.284 182.04C530.791 181.587 531.444 181.36 532.244 181.36C533.097 181.36 533.764 181.587 534.244 182.04C534.724 182.493 534.964 183.12 534.964 183.92V196.72H545.684C546.457 196.72 547.057 196.933 547.484 197.36C547.937 197.787 548.164 198.373 548.164 199.12C548.164 199.867 547.937 200.453 547.484 200.88C547.057 201.307 546.457 201.52 545.684 201.52H515.844ZM518.524 171.28C518.524 170.533 518.737 169.947 519.164 169.52C519.617 169.093 520.231 168.88 521.004 168.88H539.684C540.644 168.88 541.431 169.2 542.044 169.84C542.657 170.453 542.964 171.267 542.964 172.28C542.964 176.333 542.857 179.547 542.644 181.92C542.431 184.293 542.031 186.44 541.444 188.36C541.257 188.893 540.964 189.307 540.564 189.6C540.164 189.893 539.697 190.04 539.164 190.04C538.684 190.04 538.257 189.947 537.884 189.76C536.924 189.36 536.444 188.573 536.444 187.4C536.444 187.08 536.484 186.76 536.564 186.44C536.937 184.813 537.191 183.067 537.324 181.2C537.457 179.307 537.524 176.933 537.524 174.08C537.524 173.813 537.391 173.68 537.124 173.68H521.004C520.231 173.68 519.617 173.467 519.164 173.04C518.737 172.613 518.524 172.027 518.524 171.28ZM551.272 199.52C550.498 199.52 549.885 199.32 549.432 198.92C549.005 198.52 548.778 197.947 548.752 197.2C548.752 196.453 548.978 195.853 549.432 195.4C549.885 194.947 550.485 194.72 551.232 194.72H555.152V183.32C555.152 182.52 555.392 181.893 555.872 181.44C556.352 180.987 556.992 180.76 557.792 180.76C558.645 180.76 559.312 180.987 559.792 181.44C560.298 181.893 560.552 182.52 560.552 183.32V194.6C564.072 194.36 566.872 194.013 568.952 193.56C569.272 193.48 569.565 193.44 569.832 193.44C570.552 193.44 571.098 193.667 571.472 194.12C571.872 194.547 572.072 195.12 572.072 195.84C572.072 196.427 571.912 196.933 571.592 197.36C571.272 197.787 570.805 198.067 570.192 198.2C568.485 198.573 566.365 198.893 563.832 199.16C561.298 199.4 559.072 199.52 557.152 199.52H551.272ZM550.432 171.32C550.432 170.573 550.645 169.987 551.072 169.56C551.525 169.133 552.138 168.92 552.912 168.92H566.792C567.752 168.92 568.538 169.24 569.152 169.88C569.765 170.493 570.072 171.307 570.072 172.32C570.072 175.867 569.992 178.64 569.832 180.64C569.672 182.613 569.338 184.52 568.832 186.36C568.672 186.893 568.378 187.32 567.952 187.64C567.525 187.933 567.032 188.08 566.472 188.08C566.232 188.08 565.885 188.013 565.432 187.88C564.418 187.507 563.912 186.747 563.912 185.6L563.992 184.76C564.338 183.027 564.565 181.453 564.672 180.04C564.778 178.627 564.832 176.667 564.832 174.16C564.832 173.84 564.672 173.68 564.352 173.68H552.912C552.138 173.68 551.525 173.48 551.072 173.08C550.645 172.653 550.432 172.067 550.432 171.32ZM573.872 169.64C573.872 168.893 574.112 168.307 574.592 167.88C575.072 167.453 575.698 167.24 576.472 167.24H576.672C577.445 167.24 578.072 167.453 578.552 167.88C579.032 168.307 579.272 168.893 579.272 169.64V180.24H582.272C583.045 180.24 583.645 180.453 584.072 180.88C584.525 181.307 584.752 181.893 584.752 182.64C584.752 183.387 584.525 183.973 584.072 184.4C583.645 184.827 583.045 185.04 582.272 185.04H579.272V203.16C579.272 203.907 579.032 204.493 578.552 204.92C578.072 205.347 577.445 205.56 576.672 205.56H576.472C575.698 205.56 575.072 205.347 574.592 204.92C574.112 204.493 573.872 203.907 573.872 203.16V169.64ZM588.339 197.2C587.699 197.2 587.126 196.987 586.619 196.56C586.299 196.32 586.046 196 585.859 195.6C585.672 195.2 585.579 194.8 585.579 194.4C585.579 193.787 585.819 193.24 586.299 192.76C588.912 190.28 590.886 187.64 592.219 184.84C593.552 182.013 594.219 178.907 594.219 175.52V171.36C594.219 170.587 594.472 169.973 594.979 169.52C595.486 169.04 596.139 168.8 596.939 168.8C597.739 168.8 598.379 169.027 598.859 169.48C599.366 169.933 599.619 170.56 599.619 171.36V175.52C599.619 177.093 599.472 178.76 599.179 180.52C600.939 182.413 602.606 184.44 604.179 186.6C605.752 188.733 606.952 190.68 607.779 192.44C607.966 192.813 608.059 193.24 608.059 193.72C608.059 194.653 607.659 195.387 606.859 195.92C606.379 196.24 605.859 196.4 605.299 196.4C604.392 196.4 603.672 195.96 603.139 195.08C601.219 191.64 599.286 188.8 597.339 186.56C595.712 190.32 593.392 193.573 590.379 196.32C589.792 196.907 589.112 197.2 588.339 197.2ZM603.859 180.64C603.859 179.893 604.072 179.307 604.499 178.88C604.952 178.453 605.566 178.24 606.339 178.24H611.059V169.64C611.059 168.893 611.299 168.307 611.779 167.88C612.259 167.453 612.886 167.24 613.659 167.24H613.859C614.632 167.24 615.259 167.453 615.739 167.88C616.219 168.307 616.459 168.893 616.459 169.64V203.16C616.459 203.907 616.219 204.493 615.739 204.92C615.259 205.347 614.632 205.56 613.859 205.56H613.659C612.886 205.56 612.259 205.347 611.779 204.92C611.299 204.493 611.059 203.907 611.059 203.16V183.04H606.339C605.566 183.04 604.952 182.827 604.499 182.4C604.072 181.973 603.859 181.387 603.859 180.64ZM406.894 275.264C401.278 275.264 397.17 274.744 394.57 273.704C391.936 272.664 390.618 270.809 390.618 268.14V266.684C390.618 265.505 391 264.587 391.762 263.928C392.56 263.235 393.6 262.888 394.882 262.888H413.914C414.226 262.888 414.382 262.749 414.382 262.472V261.64C414.382 261.397 414.226 261.276 413.914 261.276H393.634C392.629 261.276 391.832 261.033 391.242 260.548C390.688 260.028 390.41 259.3 390.41 258.364C390.41 257.428 390.688 256.735 391.242 256.284C391.797 255.799 392.594 255.556 393.634 255.556H402.37V253.268H386.666C385.592 253.268 384.76 253.008 384.17 252.488C383.581 251.968 383.286 251.24 383.286 250.304C383.286 249.368 383.581 248.64 384.17 248.12C384.76 247.6 385.592 247.34 386.666 247.34H425.146C426.221 247.34 427.053 247.6 427.642 248.12C428.232 248.64 428.526 249.368 428.526 250.304C428.526 251.24 428.232 251.968 427.642 252.488C427.053 253.008 426.221 253.268 425.146 253.268H409.39V255.556H416.774C418.126 255.556 419.166 255.955 419.894 256.752C420.657 257.515 421.038 258.572 421.038 259.924V263.668C421.038 264.916 420.709 265.887 420.05 266.58C419.392 267.239 418.438 267.568 417.19 267.568H397.742C397.43 267.568 397.274 267.793 397.274 268.244C397.274 268.764 397.985 269.111 399.406 269.284C400.966 269.457 403.376 269.544 406.634 269.544C410.864 269.544 414.66 269.267 418.022 268.712L419.01 268.608C419.912 268.608 420.605 268.851 421.09 269.336C421.61 269.821 421.87 270.532 421.87 271.468C421.87 272.196 421.628 272.803 421.142 273.288C420.657 273.808 419.998 274.155 419.166 274.328C416.462 274.952 412.372 275.264 406.894 275.264ZM389.318 243.544C389.318 242.816 389.526 242.175 389.942 241.62C390.358 241.065 390.913 240.719 391.606 240.58C395.766 239.783 398.574 239.107 400.03 238.552C401.452 237.997 402.249 237.425 402.422 236.836H393.426C392.386 236.836 391.589 236.611 391.034 236.16C390.48 235.709 390.202 235.033 390.202 234.132C390.202 233.265 390.48 232.589 391.034 232.104C391.624 231.584 392.421 231.324 393.426 231.324H418.646C419.652 231.324 420.432 231.584 420.986 232.104C421.576 232.589 421.87 233.265 421.87 234.132C421.87 234.999 421.576 235.675 420.986 236.16C420.432 236.611 419.652 236.836 418.646 236.836H409.494V237.772C411.713 238.188 413.897 238.708 416.046 239.332C418.23 239.921 419.981 240.528 421.298 241.152C422.165 241.568 422.598 242.348 422.598 243.492C422.598 243.943 422.512 244.376 422.338 244.792C422.2 245.173 421.992 245.485 421.714 245.728C421.16 246.248 420.484 246.508 419.686 246.508C419.028 246.508 418.456 246.387 417.97 246.144C416.272 245.485 414.278 244.844 411.99 244.22C409.702 243.561 407.536 243.024 405.49 242.608C402.994 243.891 399.198 245.035 394.102 246.04C393.548 246.144 392.976 246.196 392.386 246.196C391.242 246.196 390.41 245.884 389.89 245.26C389.509 244.809 389.318 244.237 389.318 243.544ZM395.194 226.644C395.194 226.159 395.316 225.656 395.558 225.136C396.044 224.096 396.876 223.576 398.054 223.576C398.366 223.576 398.8 223.645 399.354 223.784C400.221 223.992 401.33 224.165 402.682 224.304C404.034 224.443 405.282 224.512 406.426 224.512H413.55C414.556 224.512 415.336 224.755 415.89 225.24C416.445 225.725 416.722 226.401 416.722 227.268C416.722 229.105 415.648 230.024 413.498 230.024H405.438C401.902 230.024 399.042 229.643 396.858 228.88C396.304 228.672 395.888 228.377 395.61 227.996C395.333 227.58 395.194 227.129 395.194 226.644ZM453.834 274.328C448.565 274.328 444.439 273.253 441.458 271.104C438.511 268.989 437.038 266.025 437.038 262.212V261.692C437.038 260.652 437.333 259.837 437.922 259.248C438.546 258.659 439.361 258.364 440.366 258.364H440.574C441.579 258.364 442.359 258.659 442.914 259.248C443.503 259.837 443.798 260.652 443.798 261.692V262.004C443.798 265.956 447.143 267.932 453.834 267.932C458.791 267.932 463.315 267.204 467.406 265.748C467.718 265.609 468.117 265.54 468.602 265.54C469.295 265.54 469.902 265.748 470.422 266.164C470.942 266.545 471.306 267.1 471.514 267.828C471.618 268.175 471.67 268.521 471.67 268.868C471.67 270.22 470.89 271.208 469.33 271.832C466.973 272.699 464.598 273.323 462.206 273.704C459.849 274.12 457.058 274.328 453.834 274.328ZM429.55 250.772C429.55 249.801 429.827 249.039 430.382 248.484C430.971 247.929 431.769 247.652 432.774 247.652H443.018C449.154 247.652 454.059 247.288 457.734 246.56C458.081 246.491 458.445 246.456 458.826 246.456C459.762 246.456 460.49 246.733 461.01 247.288C461.565 247.843 461.842 248.588 461.842 249.524C461.842 250.252 461.599 250.911 461.114 251.5C460.663 252.055 460.074 252.419 459.346 252.592C456.503 253.216 453.227 253.597 449.518 253.736V256.856C449.518 257.896 449.223 258.711 448.634 259.3C448.079 259.855 447.299 260.132 446.294 260.132H446.086C445.046 260.132 444.231 259.855 443.642 259.3C443.053 258.711 442.758 257.896 442.758 256.856V253.892H432.826C431.821 253.892 431.023 253.615 430.434 253.06C429.879 252.505 429.585 251.743 429.55 250.772ZM432.93 234.704C432.93 231.619 434.039 229.157 436.258 227.32C438.477 225.448 441.475 224.512 445.254 224.512C447.715 224.512 449.865 224.945 451.702 225.812C453.574 226.644 455.013 227.84 456.018 229.4C457.023 230.925 457.526 232.693 457.526 234.704C457.526 237.789 456.417 240.251 454.198 242.088C451.979 243.925 448.998 244.844 445.254 244.844C441.441 244.844 438.425 243.943 436.206 242.14C434.022 240.303 432.93 237.824 432.93 234.704ZM439.69 234.704C439.69 235.952 440.158 236.94 441.094 237.668C442.065 238.396 443.451 238.76 445.254 238.76C447.022 238.76 448.374 238.396 449.31 237.668C450.281 236.94 450.766 235.952 450.766 234.704C450.766 233.456 450.281 232.468 449.31 231.74C448.374 230.977 447.022 230.596 445.254 230.596C443.486 230.596 442.117 230.977 441.146 231.74C440.175 232.468 439.69 233.456 439.69 234.704ZM458.826 235.796C458.826 234.895 459.034 234.149 459.45 233.56C459.901 232.971 460.507 232.676 461.27 232.676H464.442V227.84C464.442 226.8 464.737 225.985 465.326 225.396C465.95 224.807 466.782 224.512 467.822 224.512H468.03C469.07 224.512 469.902 224.807 470.526 225.396C471.15 225.985 471.462 226.8 471.462 227.84V257.896C471.462 258.936 471.15 259.751 470.526 260.34C469.902 260.929 469.07 261.224 468.03 261.224H467.822C466.782 261.224 465.95 260.929 465.326 260.34C464.737 259.751 464.442 258.936 464.442 257.896V238.916H461.27C460.507 238.916 459.901 238.621 459.45 238.032C459.034 237.443 458.826 236.697 458.826 235.796ZM489.242 266.476C488.237 266.476 487.439 266.216 486.85 265.696C486.295 265.176 486.001 264.431 485.966 263.46C485.966 262.489 486.261 261.709 486.85 261.12C487.439 260.531 488.219 260.236 489.19 260.236H494.286V245.416C494.286 244.376 494.598 243.561 495.222 242.972C495.846 242.383 496.678 242.088 497.718 242.088C498.827 242.088 499.694 242.383 500.318 242.972C500.977 243.561 501.306 244.376 501.306 245.416V260.08C505.882 259.768 509.522 259.317 512.226 258.728C512.642 258.624 513.023 258.572 513.37 258.572C514.306 258.572 515.017 258.867 515.502 259.456C516.022 260.011 516.282 260.756 516.282 261.692C516.282 262.455 516.074 263.113 515.658 263.668C515.242 264.223 514.635 264.587 513.838 264.76C511.619 265.245 508.863 265.661 505.57 266.008C502.277 266.32 499.382 266.476 496.886 266.476H489.242ZM488.15 229.816C488.15 228.845 488.427 228.083 488.982 227.528C489.571 226.973 490.369 226.696 491.374 226.696H509.418C510.666 226.696 511.689 227.112 512.486 227.944C513.283 228.741 513.682 229.799 513.682 231.116C513.682 235.727 513.578 239.332 513.37 241.932C513.162 244.497 512.729 246.976 512.07 249.368C511.862 250.061 511.481 250.616 510.926 251.032C510.371 251.413 509.73 251.604 509.002 251.604C508.69 251.604 508.239 251.517 507.65 251.344C506.333 250.859 505.674 249.871 505.674 248.38L505.778 247.288C506.229 245.035 506.523 242.989 506.662 241.152C506.801 239.315 506.87 236.767 506.87 233.508C506.87 233.092 506.662 232.884 506.246 232.884H491.374C490.369 232.884 489.571 232.624 488.982 232.104C488.427 231.549 488.15 230.787 488.15 229.816ZM518.622 227.632C518.622 226.661 518.934 225.899 519.558 225.344C520.182 224.789 520.997 224.512 522.002 224.512H522.262C523.267 224.512 524.082 224.789 524.706 225.344C525.33 225.899 525.642 226.661 525.642 227.632V241.412H529.542C530.547 241.412 531.327 241.689 531.882 242.244C532.471 242.799 532.766 243.561 532.766 244.532C532.766 245.503 532.471 246.265 531.882 246.82C531.327 247.375 530.547 247.652 529.542 247.652H525.642V271.208C525.642 272.179 525.33 272.941 524.706 273.496C524.082 274.051 523.267 274.328 522.262 274.328H522.002C520.997 274.328 520.182 274.051 519.558 273.496C518.934 272.941 518.622 272.179 518.622 271.208V227.632ZM535.87 254.88C534.83 254.88 533.998 254.585 533.374 253.996C532.785 253.407 532.49 252.644 532.49 251.708C532.49 250.772 532.785 250.027 533.374 249.472C533.963 248.917 534.795 248.64 535.87 248.64H551.574V244.272H547.622C545.161 244.272 543.254 243.717 541.902 242.608C540.585 241.464 539.926 239.765 539.926 237.512V230.388C539.926 229.105 540.325 228.065 541.122 227.268C541.919 226.436 542.942 226.02 544.19 226.02H566.03C567.278 226.02 568.301 226.436 569.098 227.268C569.895 228.065 570.294 229.105 570.294 230.388V237.512C570.294 239.8 569.687 241.499 568.474 242.608C567.295 243.717 565.51 244.272 563.118 244.272H558.594V248.64H574.35C575.425 248.64 576.257 248.917 576.846 249.472C577.435 250.027 577.73 250.772 577.73 251.708C577.73 252.644 577.418 253.407 576.794 253.996C576.205 254.585 575.39 254.88 574.35 254.88H535.87ZM539.51 261.484C539.51 260.548 539.805 259.82 540.394 259.3C540.983 258.745 541.815 258.468 542.89 258.468H565.822C568.769 258.468 570.242 259.941 570.242 262.888V271.208C570.242 272.144 569.93 272.889 569.306 273.444C568.682 274.033 567.85 274.328 566.81 274.328H566.55C565.545 274.328 564.73 274.051 564.106 273.496C563.517 272.941 563.222 272.179 563.222 271.208V265.488C563.222 265.28 563.135 265.107 562.962 264.968C562.823 264.795 562.65 264.708 562.442 264.708H542.89C541.85 264.708 541.018 264.413 540.394 263.824C539.805 263.235 539.51 262.455 539.51 261.484ZM546.946 236.524C546.946 237.599 547.518 238.136 548.662 238.136H561.558C562.702 238.136 563.274 237.599 563.274 236.524V232.78C563.274 232.607 563.205 232.468 563.066 232.364C562.962 232.225 562.806 232.156 562.598 232.156H547.622C547.414 232.156 547.241 232.225 547.102 232.364C546.998 232.468 546.946 232.607 546.946 232.78V236.524Z" fill="#000543"/>
<path d="M353.553 201.96C352.78 201.96 352.153 201.747 351.673 201.32C351.193 200.893 350.953 200.307 350.953 199.56V187.12L350.873 187L341.993 172.96C341.673 172.427 341.513 171.933 341.513 171.48C341.513 170.653 341.98 169.933 342.913 169.32C343.473 169 344.02 168.84 344.553 168.84C345.46 168.84 346.153 169.24 346.633 170.04L353.633 181.92L360.633 170.04C361.113 169.24 361.807 168.84 362.713 168.84C363.247 168.84 363.793 169 364.353 169.32C365.287 169.933 365.753 170.653 365.753 171.48C365.753 171.933 365.593 172.427 365.273 172.96L356.393 187L356.353 187.08V199.56C356.353 200.307 356.113 200.893 355.633 201.32C355.153 201.747 354.527 201.96 353.753 201.96H353.553ZM374.322 201.8C372.002 201.8 370.322 201.267 369.282 200.2C368.268 199.133 367.762 197.4 367.762 195V172.6C367.762 171.293 368.015 170.373 368.522 169.84C369.055 169.28 369.988 169 371.322 169H379.602C381.682 169 383.522 169.387 385.122 170.16C386.748 170.907 388.002 171.96 388.882 173.32C389.762 174.653 390.202 176.187 390.202 177.92C390.202 179.333 389.842 180.613 389.122 181.76C388.428 182.907 387.482 183.773 386.282 184.36C388.202 185.08 389.655 186.173 390.642 187.64C391.655 189.08 392.162 190.773 392.162 192.72C392.162 194.48 391.708 196.053 390.802 197.44C389.895 198.8 388.602 199.867 386.922 200.64C385.268 201.413 383.348 201.8 381.162 201.8H374.322ZM373.162 194.84C373.162 195.587 373.348 196.133 373.722 196.48C374.095 196.827 374.668 197 375.442 197H381.562C383.135 197 384.388 196.573 385.322 195.72C386.282 194.84 386.762 193.693 386.762 192.28C386.762 190.867 386.242 189.72 385.202 188.84C384.188 187.96 382.842 187.52 381.162 187.52H373.162V194.84ZM380.002 182.8C381.495 182.8 382.668 182.4 383.522 181.6C384.375 180.773 384.802 179.667 384.802 178.28C384.802 176.893 384.362 175.8 383.482 175C382.628 174.2 381.468 173.8 380.002 173.8H374.162C373.815 173.8 373.562 173.88 373.402 174.04C373.242 174.173 373.162 174.427 373.162 174.8V182.8H380.002ZM397.16 201.96C396.387 201.96 395.76 201.747 395.28 201.32C394.8 200.893 394.56 200.307 394.56 199.56V171.4C394.56 170.653 394.8 170.04 395.28 169.56C395.76 169.08 396.387 168.84 397.16 168.84C398.627 168.84 399.64 169.533 400.2 170.92C404.333 180.867 407.32 188.547 409.16 193.96H409.32C410.573 190.6 413.613 182.92 418.44 170.92C418.707 170.227 419.067 169.707 419.52 169.36C420 169.013 420.627 168.84 421.4 168.84C422.173 168.84 422.8 169.08 423.28 169.56C423.76 170.04 424 170.653 424 171.4V199.56C424 200.307 423.76 200.893 423.28 201.32C422.8 201.747 422.173 201.96 421.4 201.96H421.2C420.427 201.96 419.8 201.747 419.32 201.32C418.84 200.893 418.6 200.307 418.6 199.56V188.04L419.04 182.24C417.44 186.613 415.16 192.36 412.2 199.48C411.853 200.36 411.453 201 411 201.4C410.573 201.773 410 201.96 409.28 201.96C408.56 201.96 407.973 201.773 407.52 201.4C407.093 201 406.707 200.36 406.36 199.48C403.293 192.147 401.013 186.307 399.52 181.96L399.96 188.04V199.56C399.96 200.307 399.72 200.893 399.24 201.32C398.76 201.747 398.133 201.96 397.36 201.96H397.16ZM515.844 201.52C515.071 201.52 514.457 201.307 514.004 200.88C513.577 200.453 513.364 199.867 513.364 199.12C513.364 198.373 513.577 197.787 514.004 197.36C514.457 196.933 515.071 196.72 515.844 196.72H521.004V183.92C521.004 183.12 521.244 182.493 521.724 182.04C522.231 181.587 522.884 181.36 523.684 181.36C524.537 181.36 525.204 181.587 525.684 182.04C526.164 182.493 526.404 183.12 526.404 183.92V196.72H529.564V183.92C529.564 183.12 529.804 182.493 530.284 182.04C530.791 181.587 531.444 181.36 532.244 181.36C533.097 181.36 533.764 181.587 534.244 182.04C534.724 182.493 534.964 183.12 534.964 183.92V196.72H545.684C546.457 196.72 547.057 196.933 547.484 197.36C547.937 197.787 548.164 198.373 548.164 199.12C548.164 199.867 547.937 200.453 547.484 200.88C547.057 201.307 546.457 201.52 545.684 201.52H515.844ZM518.524 171.28C518.524 170.533 518.737 169.947 519.164 169.52C519.617 169.093 520.231 168.88 521.004 168.88H539.684C540.644 168.88 541.431 169.2 542.044 169.84C542.657 170.453 542.964 171.267 542.964 172.28C542.964 176.333 542.857 179.547 542.644 181.92C542.431 184.293 542.031 186.44 541.444 188.36C541.257 188.893 540.964 189.307 540.564 189.6C540.164 189.893 539.697 190.04 539.164 190.04C538.684 190.04 538.257 189.947 537.884 189.76C536.924 189.36 536.444 188.573 536.444 187.4C536.444 187.08 536.484 186.76 536.564 186.44C536.937 184.813 537.191 183.067 537.324 181.2C537.457 179.307 537.524 176.933 537.524 174.08C537.524 173.813 537.391 173.68 537.124 173.68H521.004C520.231 173.68 519.617 173.467 519.164 173.04C518.737 172.613 518.524 172.027 518.524 171.28ZM551.272 199.52C550.498 199.52 549.885 199.32 549.432 198.92C549.005 198.52 548.778 197.947 548.752 197.2C548.752 196.453 548.978 195.853 549.432 195.4C549.885 194.947 550.485 194.72 551.232 194.72H555.152V183.32C555.152 182.52 555.392 181.893 555.872 181.44C556.352 180.987 556.992 180.76 557.792 180.76C558.645 180.76 559.312 180.987 559.792 181.44C560.298 181.893 560.552 182.52 560.552 183.32V194.6C564.072 194.36 566.872 194.013 568.952 193.56C569.272 193.48 569.565 193.44 569.832 193.44C570.552 193.44 571.098 193.667 571.472 194.12C571.872 194.547 572.072 195.12 572.072 195.84C572.072 196.427 571.912 196.933 571.592 197.36C571.272 197.787 570.805 198.067 570.192 198.2C568.485 198.573 566.365 198.893 563.832 199.16C561.298 199.4 559.072 199.52 557.152 199.52H551.272ZM550.432 171.32C550.432 170.573 550.645 169.987 551.072 169.56C551.525 169.133 552.138 168.92 552.912 168.92H566.792C567.752 168.92 568.538 169.24 569.152 169.88C569.765 170.493 570.072 171.307 570.072 172.32C570.072 175.867 569.992 178.64 569.832 180.64C569.672 182.613 569.338 184.52 568.832 186.36C568.672 186.893 568.378 187.32 567.952 187.64C567.525 187.933 567.032 188.08 566.472 188.08C566.232 188.08 565.885 188.013 565.432 187.88C564.418 187.507 563.912 186.747 563.912 185.6L563.992 184.76C564.338 183.027 564.565 181.453 564.672 180.04C564.778 178.627 564.832 176.667 564.832 174.16C564.832 173.84 564.672 173.68 564.352 173.68H552.912C552.138 173.68 551.525 173.48 551.072 173.08C550.645 172.653 550.432 172.067 550.432 171.32ZM573.872 169.64C573.872 168.893 574.112 168.307 574.592 167.88C575.072 167.453 575.698 167.24 576.472 167.24H576.672C577.445 167.24 578.072 167.453 578.552 167.88C579.032 168.307 579.272 168.893 579.272 169.64V180.24H582.272C583.045 180.24 583.645 180.453 584.072 180.88C584.525 181.307 584.752 181.893 584.752 182.64C584.752 183.387 584.525 183.973 584.072 184.4C583.645 184.827 583.045 185.04 582.272 185.04H579.272V203.16C579.272 203.907 579.032 204.493 578.552 204.92C578.072 205.347 577.445 205.56 576.672 205.56H576.472C575.698 205.56 575.072 205.347 574.592 204.92C574.112 204.493 573.872 203.907 573.872 203.16V169.64ZM588.339 197.2C587.699 197.2 587.126 196.987 586.619 196.56C586.299 196.32 586.046 196 585.859 195.6C585.672 195.2 585.579 194.8 585.579 194.4C585.579 193.787 585.819 193.24 586.299 192.76C588.912 190.28 590.886 187.64 592.219 184.84C593.552 182.013 594.219 178.907 594.219 175.52V171.36C594.219 170.587 594.472 169.973 594.979 169.52C595.486 169.04 596.139 168.8 596.939 168.8C597.739 168.8 598.379 169.027 598.859 169.48C599.366 169.933 599.619 170.56 599.619 171.36V175.52C599.619 177.093 599.472 178.76 599.179 180.52C600.939 182.413 602.606 184.44 604.179 186.6C605.752 188.733 606.952 190.68 607.779 192.44C607.966 192.813 608.059 193.24 608.059 193.72C608.059 194.653 607.659 195.387 606.859 195.92C606.379 196.24 605.859 196.4 605.299 196.4C604.392 196.4 603.672 195.96 603.139 195.08C601.219 191.64 599.286 188.8 597.339 186.56C595.712 190.32 593.392 193.573 590.379 196.32C589.792 196.907 589.112 197.2 588.339 197.2ZM603.859 180.64C603.859 179.893 604.072 179.307 604.499 178.88C604.952 178.453 605.566 178.24 606.339 178.24H611.059V169.64C611.059 168.893 611.299 168.307 611.779 167.88C612.259 167.453 612.886 167.24 613.659 167.24H613.859C614.632 167.24 615.259 167.453 615.739 167.88C616.219 168.307 616.459 168.893 616.459 169.64V203.16C616.459 203.907 616.219 204.493 615.739 204.92C615.259 205.347 614.632 205.56 613.859 205.56H613.659C612.886 205.56 612.259 205.347 611.779 204.92C611.299 204.493 611.059 203.907 611.059 203.16V183.04H606.339C605.566 183.04 604.952 182.827 604.499 182.4C604.072 181.973 603.859 181.387 603.859 180.64ZM406.894 275.264C401.278 275.264 397.17 274.744 394.57 273.704C391.936 272.664 390.618 270.809 390.618 268.14V266.684C390.618 265.505 391 264.587 391.762 263.928C392.56 263.235 393.6 262.888 394.882 262.888H413.914C414.226 262.888 414.382 262.749 414.382 262.472V261.64C414.382 261.397 414.226 261.276 413.914 261.276H393.634C392.629 261.276 391.832 261.033 391.242 260.548C390.688 260.028 390.41 259.3 390.41 258.364C390.41 257.428 390.688 256.735 391.242 256.284C391.797 255.799 392.594 255.556 393.634 255.556H402.37V253.268H386.666C385.592 253.268 384.76 253.008 384.17 252.488C383.581 251.968 383.286 251.24 383.286 250.304C383.286 249.368 383.581 248.64 384.17 248.12C384.76 247.6 385.592 247.34 386.666 247.34H425.146C426.221 247.34 427.053 247.6 427.642 248.12C428.232 248.64 428.526 249.368 428.526 250.304C428.526 251.24 428.232 251.968 427.642 252.488C427.053 253.008 426.221 253.268 425.146 253.268H409.39V255.556H416.774C418.126 255.556 419.166 255.955 419.894 256.752C420.657 257.515 421.038 258.572 421.038 259.924V263.668C421.038 264.916 420.709 265.887 420.05 266.58C419.392 267.239 418.438 267.568 417.19 267.568H397.742C397.43 267.568 397.274 267.793 397.274 268.244C397.274 268.764 397.985 269.111 399.406 269.284C400.966 269.457 403.376 269.544 406.634 269.544C410.864 269.544 414.66 269.267 418.022 268.712L419.01 268.608C419.912 268.608 420.605 268.851 421.09 269.336C421.61 269.821 421.87 270.532 421.87 271.468C421.87 272.196 421.628 272.803 421.142 273.288C420.657 273.808 419.998 274.155 419.166 274.328C416.462 274.952 412.372 275.264 406.894 275.264ZM389.318 243.544C389.318 242.816 389.526 242.175 389.942 241.62C390.358 241.065 390.913 240.719 391.606 240.58C395.766 239.783 398.574 239.107 400.03 238.552C401.452 237.997 402.249 237.425 402.422 236.836H393.426C392.386 236.836 391.589 236.611 391.034 236.16C390.48 235.709 390.202 235.033 390.202 234.132C390.202 233.265 390.48 232.589 391.034 232.104C391.624 231.584 392.421 231.324 393.426 231.324H418.646C419.652 231.324 420.432 231.584 420.986 232.104C421.576 232.589 421.87 233.265 421.87 234.132C421.87 234.999 421.576 235.675 420.986 236.16C420.432 236.611 419.652 236.836 418.646 236.836H409.494V237.772C411.713 238.188 413.897 238.708 416.046 239.332C418.23 239.921 419.981 240.528 421.298 241.152C422.165 241.568 422.598 242.348 422.598 243.492C422.598 243.943 422.512 244.376 422.338 244.792C422.2 245.173 421.992 245.485 421.714 245.728C421.16 246.248 420.484 246.508 419.686 246.508C419.028 246.508 418.456 246.387 417.97 246.144C416.272 245.485 414.278 244.844 411.99 244.22C409.702 243.561 407.536 243.024 405.49 242.608C402.994 243.891 399.198 245.035 394.102 246.04C393.548 246.144 392.976 246.196 392.386 246.196C391.242 246.196 390.41 245.884 389.89 245.26C389.509 244.809 389.318 244.237 389.318 243.544ZM395.194 226.644C395.194 226.159 395.316 225.656 395.558 225.136C396.044 224.096 396.876 223.576 398.054 223.576C398.366 223.576 398.8 223.645 399.354 223.784C400.221 223.992 401.33 224.165 402.682 224.304C404.034 224.443 405.282 224.512 406.426 224.512H413.55C414.556 224.512 415.336 224.755 415.89 225.24C416.445 225.725 416.722 226.401 416.722 227.268C416.722 229.105 415.648 230.024 413.498 230.024H405.438C401.902 230.024 399.042 229.643 396.858 228.88C396.304 228.672 395.888 228.377 395.61 227.996C395.333 227.58 395.194 227.129 395.194 226.644ZM453.834 274.328C448.565 274.328 444.439 273.253 441.458 271.104C438.511 268.989 437.038 266.025 437.038 262.212V261.692C437.038 260.652 437.333 259.837 437.922 259.248C438.546 258.659 439.361 258.364 440.366 258.364H440.574C441.579 258.364 442.359 258.659 442.914 259.248C443.503 259.837 443.798 260.652 443.798 261.692V262.004C443.798 265.956 447.143 267.932 453.834 267.932C458.791 267.932 463.315 267.204 467.406 265.748C467.718 265.609 468.117 265.54 468.602 265.54C469.295 265.54 469.902 265.748 470.422 266.164C470.942 266.545 471.306 267.1 471.514 267.828C471.618 268.175 471.67 268.521 471.67 268.868C471.67 270.22 470.89 271.208 469.33 271.832C466.973 272.699 464.598 273.323 462.206 273.704C459.849 274.12 457.058 274.328 453.834 274.328ZM429.55 250.772C429.55 249.801 429.827 249.039 430.382 248.484C430.971 247.929 431.769 247.652 432.774 247.652H443.018C449.154 247.652 454.059 247.288 457.734 246.56C458.081 246.491 458.445 246.456 458.826 246.456C459.762 246.456 460.49 246.733 461.01 247.288C461.565 247.843 461.842 248.588 461.842 249.524C461.842 250.252 461.599 250.911 461.114 251.5C460.663 252.055 460.074 252.419 459.346 252.592C456.503 253.216 453.227 253.597 449.518 253.736V256.856C449.518 257.896 449.223 258.711 448.634 259.3C448.079 259.855 447.299 260.132 446.294 260.132H446.086C445.046 260.132 444.231 259.855 443.642 259.3C443.053 258.711 442.758 257.896 442.758 256.856V253.892H432.826C431.821 253.892 431.023 253.615 430.434 253.06C429.879 252.505 429.585 251.743 429.55 250.772ZM432.93 234.704C432.93 231.619 434.039 229.157 436.258 227.32C438.477 225.448 441.475 224.512 445.254 224.512C447.715 224.512 449.865 224.945 451.702 225.812C453.574 226.644 455.013 227.84 456.018 229.4C457.023 230.925 457.526 232.693 457.526 234.704C457.526 237.789 456.417 240.251 454.198 242.088C451.979 243.925 448.998 244.844 445.254 244.844C441.441 244.844 438.425 243.943 436.206 242.14C434.022 240.303 432.93 237.824 432.93 234.704ZM439.69 234.704C439.69 235.952 440.158 236.94 441.094 237.668C442.065 238.396 443.451 238.76 445.254 238.76C447.022 238.76 448.374 238.396 449.31 237.668C450.281 236.94 450.766 235.952 450.766 234.704C450.766 233.456 450.281 232.468 449.31 231.74C448.374 230.977 447.022 230.596 445.254 230.596C443.486 230.596 442.117 230.977 441.146 231.74C440.175 232.468 439.69 233.456 439.69 234.704ZM458.826 235.796C458.826 234.895 459.034 234.149 459.45 233.56C459.901 232.971 460.507 232.676 461.27 232.676H464.442V227.84C464.442 226.8 464.737 225.985 465.326 225.396C465.95 224.807 466.782 224.512 467.822 224.512H468.03C469.07 224.512 469.902 224.807 470.526 225.396C471.15 225.985 471.462 226.8 471.462 227.84V257.896C471.462 258.936 471.15 259.751 470.526 260.34C469.902 260.929 469.07 261.224 468.03 261.224H467.822C466.782 261.224 465.95 260.929 465.326 260.34C464.737 259.751 464.442 258.936 464.442 257.896V238.916H461.27C460.507 238.916 459.901 238.621 459.45 238.032C459.034 237.443 458.826 236.697 458.826 235.796ZM489.242 266.476C488.237 266.476 487.439 266.216 486.85 265.696C486.295 265.176 486.001 264.431 485.966 263.46C485.966 262.489 486.261 261.709 486.85 261.12C487.439 260.531 488.219 260.236 489.19 260.236H494.286V245.416C494.286 244.376 494.598 243.561 495.222 242.972C495.846 242.383 496.678 242.088 497.718 242.088C498.827 242.088 499.694 242.383 500.318 242.972C500.977 243.561 501.306 244.376 501.306 245.416V260.08C505.882 259.768 509.522 259.317 512.226 258.728C512.642 258.624 513.023 258.572 513.37 258.572C514.306 258.572 515.017 258.867 515.502 259.456C516.022 260.011 516.282 260.756 516.282 261.692C516.282 262.455 516.074 263.113 515.658 263.668C515.242 264.223 514.635 264.587 513.838 264.76C511.619 265.245 508.863 265.661 505.57 266.008C502.277 266.32 499.382 266.476 496.886 266.476H489.242ZM488.15 229.816C488.15 228.845 488.427 228.083 488.982 227.528C489.571 226.973 490.369 226.696 491.374 226.696H509.418C510.666 226.696 511.689 227.112 512.486 227.944C513.283 228.741 513.682 229.799 513.682 231.116C513.682 235.727 513.578 239.332 513.37 241.932C513.162 244.497 512.729 246.976 512.07 249.368C511.862 250.061 511.481 250.616 510.926 251.032C510.371 251.413 509.73 251.604 509.002 251.604C508.69 251.604 508.239 251.517 507.65 251.344C506.333 250.859 505.674 249.871 505.674 248.38L505.778 247.288C506.229 245.035 506.523 242.989 506.662 241.152C506.801 239.315 506.87 236.767 506.87 233.508C506.87 233.092 506.662 232.884 506.246 232.884H491.374C490.369 232.884 489.571 232.624 488.982 232.104C488.427 231.549 488.15 230.787 488.15 229.816ZM518.622 227.632C518.622 226.661 518.934 225.899 519.558 225.344C520.182 224.789 520.997 224.512 522.002 224.512H522.262C523.267 224.512 524.082 224.789 524.706 225.344C525.33 225.899 525.642 226.661 525.642 227.632V241.412H529.542C530.547 241.412 531.327 241.689 531.882 242.244C532.471 242.799 532.766 243.561 532.766 244.532C532.766 245.503 532.471 246.265 531.882 246.82C531.327 247.375 530.547 247.652 529.542 247.652H525.642V271.208C525.642 272.179 525.33 272.941 524.706 273.496C524.082 274.051 523.267 274.328 522.262 274.328H522.002C520.997 274.328 520.182 274.051 519.558 273.496C518.934 272.941 518.622 272.179 518.622 271.208V227.632ZM535.87 254.88C534.83 254.88 533.998 254.585 533.374 253.996C532.785 253.407 532.49 252.644 532.49 251.708C532.49 250.772 532.785 250.027 533.374 249.472C533.963 248.917 534.795 248.64 535.87 248.64H551.574V244.272H547.622C545.161 244.272 543.254 243.717 541.902 242.608C540.585 241.464 539.926 239.765 539.926 237.512V230.388C539.926 229.105 540.325 228.065 541.122 227.268C541.919 226.436 542.942 226.02 544.19 226.02H566.03C567.278 226.02 568.301 226.436 569.098 227.268C569.895 228.065 570.294 229.105 570.294 230.388V237.512C570.294 239.8 569.687 241.499 568.474 242.608C567.295 243.717 565.51 244.272 563.118 244.272H558.594V248.64H574.35C575.425 248.64 576.257 248.917 576.846 249.472C577.435 250.027 577.73 250.772 577.73 251.708C577.73 252.644 577.418 253.407 576.794 253.996C576.205 254.585 575.39 254.88 574.35 254.88H535.87ZM539.51 261.484C539.51 260.548 539.805 259.82 540.394 259.3C540.983 258.745 541.815 258.468 542.89 258.468H565.822C568.769 258.468 570.242 259.941 570.242 262.888V271.208C570.242 272.144 569.93 272.889 569.306 273.444C568.682 274.033 567.85 274.328 566.81 274.328H566.55C565.545 274.328 564.73 274.051 564.106 273.496C563.517 272.941 563.222 272.179 563.222 271.208V265.488C563.222 265.28 563.135 265.107 562.962 264.968C562.823 264.795 562.65 264.708 562.442 264.708H542.89C541.85 264.708 541.018 264.413 540.394 263.824C539.805 263.235 539.51 262.455 539.51 261.484ZM546.946 236.524C546.946 237.599 547.518 238.136 548.662 238.136H561.558C562.702 238.136 563.274 237.599 563.274 236.524V232.78C563.274 232.607 563.205 232.468 563.066 232.364C562.962 232.225 562.806 232.156 562.598 232.156H547.622C547.414 232.156 547.241 232.225 547.102 232.364C546.998 232.468 546.946 232.607 546.946 232.78V236.524Z" fill="white"/>
<path d="M436.66 201.52C435.886 201.52 435.273 201.307 434.82 200.88C434.393 200.453 434.18 199.867 434.18 199.12C434.18 198.373 434.393 197.787 434.82 197.36C435.273 196.933 435.886 196.72 436.66 196.72H446.5V183.12C446.5 182.32 446.74 181.693 447.22 181.24C447.726 180.787 448.38 180.56 449.18 180.56C450.033 180.56 450.7 180.787 451.18 181.24C451.66 181.693 451.9 182.32 451.9 183.12V196.72H466.5C467.273 196.72 467.873 196.933 468.3 197.36C468.753 197.787 468.98 198.373 468.98 199.12C468.98 199.867 468.753 200.453 468.3 200.88C467.873 201.307 467.273 201.52 466.5 201.52H436.66ZM439.34 171.32C439.34 170.573 439.553 169.987 439.98 169.56C440.433 169.133 441.046 168.92 441.82 168.92H460.1C461.06 168.92 461.846 169.24 462.46 169.88C463.073 170.493 463.38 171.307 463.38 172.32C463.38 176.533 463.246 179.76 462.98 182C462.74 184.213 462.233 186.333 461.46 188.36C461.273 188.867 460.966 189.267 460.54 189.56C460.14 189.853 459.673 190 459.14 190C458.766 190 458.326 189.893 457.82 189.68C456.886 189.2 456.42 188.48 456.42 187.52C456.42 187.253 456.486 186.893 456.62 186.44C457.153 184.653 457.513 182.92 457.7 181.24C457.886 179.533 457.98 177.16 457.98 174.12C457.98 173.853 457.846 173.72 457.58 173.72H441.82C441.046 173.72 440.433 173.507 439.98 173.08C439.553 172.653 439.34 172.067 439.34 171.32ZM487.167 206.48C485.167 206.48 483.407 206.107 481.887 205.36C480.394 204.64 479.234 203.64 478.407 202.36C477.581 201.08 477.167 199.64 477.167 198.04C477.167 196.467 477.581 195.04 478.407 193.76C479.234 192.453 480.407 191.44 481.927 190.72C483.447 189.973 485.194 189.6 487.167 189.6C489.141 189.6 490.887 189.973 492.407 190.72C493.927 191.44 495.101 192.453 495.927 193.76C496.754 195.04 497.167 196.467 497.167 198.04C497.167 199.64 496.754 201.08 495.927 202.36C495.101 203.64 493.927 204.64 492.407 205.36C490.914 206.107 489.167 206.48 487.167 206.48ZM469.767 185.36C469.767 184.64 469.994 184.067 470.447 183.64C470.901 183.213 471.541 183 472.367 183H501.967C502.794 183 503.434 183.213 503.887 183.64C504.341 184.067 504.567 184.64 504.567 185.36C504.567 186.08 504.327 186.667 503.847 187.12C503.394 187.573 502.767 187.8 501.967 187.8H472.367C471.567 187.8 470.927 187.573 470.447 187.12C469.994 186.667 469.767 186.08 469.767 185.36ZM475.487 171.56C475.487 170.573 475.794 169.773 476.407 169.16C477.021 168.52 477.807 168.2 478.767 168.2H496.407C497.181 168.2 497.781 168.413 498.207 168.84C498.661 169.267 498.887 169.853 498.887 170.6C498.887 171.373 498.674 171.96 498.247 172.36C497.821 172.733 497.207 172.92 496.407 172.92H481.407C481.247 172.92 481.114 172.973 481.007 173.08C480.927 173.16 480.887 173.267 480.887 173.4V174.16C480.887 174.8 481.141 175.267 481.647 175.56C482.154 175.853 482.874 176.053 483.807 176.16C484.767 176.24 486.141 176.28 487.927 176.28C489.341 176.28 490.794 176.213 492.287 176.08C493.781 175.92 495.127 175.707 496.327 175.44L497.087 175.36C497.674 175.36 498.141 175.52 498.487 175.84C498.861 176.133 499.101 176.587 499.207 177.2C499.234 177.28 499.247 177.453 499.247 177.72C499.247 178.307 499.061 178.813 498.687 179.24C498.341 179.64 497.847 179.907 497.207 180.04C495.927 180.333 494.461 180.573 492.807 180.76C491.181 180.92 489.554 181 487.927 181C484.914 181 482.501 180.8 480.687 180.4C478.901 180 477.581 179.32 476.727 178.36C475.901 177.4 475.487 176.08 475.487 174.4V171.56ZM482.567 198.04C482.567 199.107 482.994 199.987 483.847 200.68C484.701 201.373 485.807 201.72 487.167 201.72C488.527 201.72 489.634 201.373 490.487 200.68C491.341 199.987 491.767 199.107 491.767 198.04C491.767 196.973 491.341 196.093 490.487 195.4C489.634 194.707 488.527 194.36 487.167 194.36C485.807 194.36 484.701 194.707 483.847 195.4C482.994 196.093 482.567 196.973 482.567 198.04Z" fill="#000543"/>
<path d="M436.66 201.52C435.886 201.52 435.273 201.307 434.82 200.88C434.393 200.453 434.18 199.867 434.18 199.12C434.18 198.373 434.393 197.787 434.82 197.36C435.273 196.933 435.886 196.72 436.66 196.72H446.5V183.12C446.5 182.32 446.74 181.693 447.22 181.24C447.726 180.787 448.38 180.56 449.18 180.56C450.033 180.56 450.7 180.787 451.18 181.24C451.66 181.693 451.9 182.32 451.9 183.12V196.72H466.5C467.273 196.72 467.873 196.933 468.3 197.36C468.753 197.787 468.98 198.373 468.98 199.12C468.98 199.867 468.753 200.453 468.3 200.88C467.873 201.307 467.273 201.52 466.5 201.52H436.66ZM439.34 171.32C439.34 170.573 439.553 169.987 439.98 169.56C440.433 169.133 441.046 168.92 441.82 168.92H460.1C461.06 168.92 461.846 169.24 462.46 169.88C463.073 170.493 463.38 171.307 463.38 172.32C463.38 176.533 463.246 179.76 462.98 182C462.74 184.213 462.233 186.333 461.46 188.36C461.273 188.867 460.966 189.267 460.54 189.56C460.14 189.853 459.673 190 459.14 190C458.766 190 458.326 189.893 457.82 189.68C456.886 189.2 456.42 188.48 456.42 187.52C456.42 187.253 456.486 186.893 456.62 186.44C457.153 184.653 457.513 182.92 457.7 181.24C457.886 179.533 457.98 177.16 457.98 174.12C457.98 173.853 457.846 173.72 457.58 173.72H441.82C441.046 173.72 440.433 173.507 439.98 173.08C439.553 172.653 439.34 172.067 439.34 171.32ZM487.167 206.48C485.167 206.48 483.407 206.107 481.887 205.36C480.394 204.64 479.234 203.64 478.407 202.36C477.581 201.08 477.167 199.64 477.167 198.04C477.167 196.467 477.581 195.04 478.407 193.76C479.234 192.453 480.407 191.44 481.927 190.72C483.447 189.973 485.194 189.6 487.167 189.6C489.141 189.6 490.887 189.973 492.407 190.72C493.927 191.44 495.101 192.453 495.927 193.76C496.754 195.04 497.167 196.467 497.167 198.04C497.167 199.64 496.754 201.08 495.927 202.36C495.101 203.64 493.927 204.64 492.407 205.36C490.914 206.107 489.167 206.48 487.167 206.48ZM469.767 185.36C469.767 184.64 469.994 184.067 470.447 183.64C470.901 183.213 471.541 183 472.367 183H501.967C502.794 183 503.434 183.213 503.887 183.64C504.341 184.067 504.567 184.64 504.567 185.36C504.567 186.08 504.327 186.667 503.847 187.12C503.394 187.573 502.767 187.8 501.967 187.8H472.367C471.567 187.8 470.927 187.573 470.447 187.12C469.994 186.667 469.767 186.08 469.767 185.36ZM475.487 171.56C475.487 170.573 475.794 169.773 476.407 169.16C477.021 168.52 477.807 168.2 478.767 168.2H496.407C497.181 168.2 497.781 168.413 498.207 168.84C498.661 169.267 498.887 169.853 498.887 170.6C498.887 171.373 498.674 171.96 498.247 172.36C497.821 172.733 497.207 172.92 496.407 172.92H481.407C481.247 172.92 481.114 172.973 481.007 173.08C480.927 173.16 480.887 173.267 480.887 173.4V174.16C480.887 174.8 481.141 175.267 481.647 175.56C482.154 175.853 482.874 176.053 483.807 176.16C484.767 176.24 486.141 176.28 487.927 176.28C489.341 176.28 490.794 176.213 492.287 176.08C493.781 175.92 495.127 175.707 496.327 175.44L497.087 175.36C497.674 175.36 498.141 175.52 498.487 175.84C498.861 176.133 499.101 176.587 499.207 177.2C499.234 177.28 499.247 177.453 499.247 177.72C499.247 178.307 499.061 178.813 498.687 179.24C498.341 179.64 497.847 179.907 497.207 180.04C495.927 180.333 494.461 180.573 492.807 180.76C491.181 180.92 489.554 181 487.927 181C484.914 181 482.501 180.8 480.687 180.4C478.901 180 477.581 179.32 476.727 178.36C475.901 177.4 475.487 176.08 475.487 174.4V171.56ZM482.567 198.04C482.567 199.107 482.994 199.987 483.847 200.68C484.701 201.373 485.807 201.72 487.167 201.72C488.527 201.72 489.634 201.373 490.487 200.68C491.341 199.987 491.767 199.107 491.767 198.04C491.767 196.973 491.341 196.093 490.487 195.4C489.634 194.707 488.527 194.36 487.167 194.36C485.807 194.36 484.701 194.707 483.847 195.4C482.994 196.093 482.567 196.973 482.567 198.04Z" fill="#FFEE57"/>
</g>
<g filter="url(#filter0_d_1895_1337)">
<path d="M845 540H115V556H845V540Z" fill="#755A43"/>
<path d="M845 540H115V556H845V540Z" fill="#F1ECE8"/>
</g>
<g filter="url(#filter1_dd_1895_1337)">
<path d="M829.083 526H130.917L115 540H845L829.083 526Z" fill="#755A43"/>
<path d="M829.083 526H130.917L115 540H845L829.083 526Z" fill="url(#paint0_linear_1895_1337)"/>
</g>
<g clip-path="url(#clip1_1895_1337)">
<path d="M303.299 390H196.709V538.571H303.441C310.396 538.571 316.215 533.286 316.215 527V401.571C316.073 395.286 310.396 390 303.299 390Z" fill="#928B6A"/>
<path d="M299.324 392.286H190.604V536.428H299.324C306.42 536.428 312.239 531.286 312.239 525.143V403.571C312.239 397.286 306.42 392.286 299.324 392.286Z" fill="#E2E2E2"/>
<path d="M296.769 392.286H190.604V532.714H296.769C303.723 532.714 309.401 527.714 309.401 521.714V403.286C309.401 397.143 303.723 392.286 296.769 392.286Z" fill="#EFEFEF"/>
<path d="M291.518 390H184.786V538.571H291.518C298.473 538.571 304.292 533.286 304.292 527V401.571C304.15 395.286 298.473 390 291.518 390Z" fill="#EFE2A6"/>
<path d="M291.519 390H202.386C202.386 390 191.741 480.571 213.882 503C229.921 519.143 293.222 516.714 293.222 516.714C299.183 516.714 304.009 512.286 304.009 506.857V401.571C304.15 395.286 298.473 390 291.519 390Z" fill="#EFE2A6"/>
<path d="M263.133 428.581V432.104H244.299V428.581H251.518V425.582H255.948V428.581H263.133ZM253.716 433.115C258.319 433.115 261.528 435.487 261.528 438.974C261.528 442.462 258.319 444.834 253.716 444.834C249.112 444.834 245.833 442.462 245.833 438.974C245.833 435.487 249.112 433.115 253.716 433.115ZM253.716 436.463C251.588 436.463 250.158 437.335 250.193 438.974C250.158 440.579 251.588 441.416 253.716 441.416C255.843 441.416 257.308 440.579 257.308 438.974C257.308 437.335 255.843 436.463 253.716 436.463ZM269.48 425.756V433.987H273.77V437.614H269.48V445.671H265.016V425.756H269.48ZM269.48 446.996V457.494H265.016V450.554H248.1V446.996H269.48Z" fill="#000543"/>
<path d="M231.707 428.232C231.707 431.964 235.509 436.115 242.798 437.021L241.054 440.614C235.509 439.812 231.445 437.248 229.37 433.813C227.278 437.248 223.249 439.812 217.756 440.614L215.977 437.021C223.197 436.115 227.033 431.964 227.033 428.232V426.698H231.707V428.232ZM243.809 443.02V446.648H231.463V457.494H227.068V446.648H214.861V443.02H243.809Z" fill="#000543"/>
</g>
<g clip-path="url(#clip2_1895_1337)">
<path d="M456.157 390H349.566V538.571H456.298C463.253 538.571 469.072 533.286 469.072 527V401.571C468.93 395.286 463.253 390 456.157 390Z" fill="#AC93A8"/>
<path d="M452.181 392.286H343.462V536.428H452.181C459.278 536.428 465.097 531.286 465.097 525.143V403.571C465.097 397.286 459.278 392.286 452.181 392.286Z" fill="#E2E2E2"/>
<path d="M449.626 392.286H343.462V532.714H449.626C456.581 532.714 462.258 527.714 462.258 521.714V403.286C462.258 397.143 456.581 392.286 449.626 392.286Z" fill="#EFEFEF"/>
<path d="M444.376 390H337.644V538.571H444.376C451.33 538.571 457.149 533.286 457.149 527V401.571C457.007 395.286 451.33 390 444.376 390Z" fill="#EECDE9"/>
<path d="M444.376 390H355.243C355.243 390 344.599 480.571 366.74 503C382.778 519.143 446.079 516.714 446.079 516.714C452.04 516.714 456.866 512.286 456.866 506.857V401.571C457.008 395.286 451.331 390 444.376 390Z" fill="#EECDE9"/>
<path d="M405.91 427.988C410.2 427.988 413.391 431.529 414.036 437.231H419.547V425.756H423.942V457.564H419.547V440.788H414.071C413.6 446.892 410.339 450.624 405.91 450.624C401.097 450.624 397.644 446.264 397.679 439.289C397.644 432.383 401.097 427.988 405.91 427.988ZM405.91 431.999C403.538 431.999 401.899 434.58 401.934 439.289C401.899 444.032 403.538 446.578 405.91 446.578C408.317 446.578 409.886 444.032 409.886 439.289C409.886 434.58 408.317 431.999 405.91 431.999Z" fill="#000543"/>
<path d="M376.577 427.465C379.106 427.465 381.321 428.39 382.855 429.942H390.04V425.756H394.469V444.346H390.04V440.544H382.82C381.286 442.079 379.088 443.003 376.577 442.986C371.764 443.021 368.102 439.707 368.137 435.243C368.102 430.709 371.764 427.465 376.577 427.465ZM376.577 431.267C374.101 431.267 372.322 432.732 372.357 435.243C372.322 437.684 374.101 439.254 376.577 439.219C378.984 439.254 380.728 437.684 380.728 435.243C380.728 432.732 378.984 431.267 376.577 431.267ZM383.622 445.009C390.354 445.009 394.539 447.31 394.574 451.252C394.539 455.193 390.354 457.495 383.622 457.495C376.926 457.495 372.706 455.193 372.706 451.252C372.706 447.31 376.926 445.009 383.622 445.009ZM383.622 448.392C379.402 448.392 377.066 449.333 377.066 451.252C377.066 453.1 379.402 454.042 383.622 454.042C387.912 454.042 390.214 453.1 390.214 451.252C390.214 449.333 387.912 448.392 383.622 448.392ZM384.773 433.464C384.878 434.022 384.948 434.633 384.948 435.243C384.948 435.853 384.878 436.429 384.773 436.987H390.04V433.464H384.773Z" fill="#000543"/>
</g>
<g clip-path="url(#clip3_1895_1337)">
<path d="M609.013 390H502.423V538.571H609.155C616.11 538.571 621.929 533.286 621.929 527V401.571C621.787 395.286 616.11 390 609.013 390Z" fill="#829483"/>
<path d="M605.037 392.286H496.318V536.428H605.037C612.134 536.428 617.953 531.286 617.953 525.143V403.571C617.953 397.286 612.134 392.286 605.037 392.286Z" fill="#E2E2E2"/>
<path d="M602.483 392.286H496.318V532.714H602.483C609.437 532.714 615.115 527.714 615.115 521.714V403.286C615.115 397.143 609.437 392.286 602.483 392.286Z" fill="#EFEFEF"/>
<path d="M597.232 390H490.5V538.571H597.232C604.187 538.571 610.006 533.286 610.006 527V401.571C609.864 395.286 604.187 390 597.232 390Z" fill="#B5E4B8"/>
<path d="M597.232 390H508.1C508.1 390 497.455 480.571 519.596 503C535.634 519.143 598.936 516.714 598.936 516.714C604.897 516.714 609.722 512.286 609.722 506.857V401.571C609.864 395.286 604.187 390 597.232 390Z" fill="#B5E4B8"/>
<path d="M578.961 440.579V444.102H571.985V447.066H575.438V457.495H571.009V450.554H553.221V447.066H556.849V444.102H550.013V440.579H578.961ZM564.487 426.384C571.462 426.349 575.996 428.756 576.031 432.627C575.996 436.499 571.462 438.905 564.487 438.905C557.476 438.905 552.908 436.499 552.908 432.627C552.908 428.756 557.476 426.349 564.487 426.384ZM564.487 429.837C560.057 429.837 557.511 430.814 557.546 432.627C557.511 434.511 560.057 435.452 564.487 435.452C568.881 435.452 571.427 434.511 571.427 432.627C571.427 430.814 568.881 429.837 564.487 429.837ZM561.348 447.066H567.591V444.102H561.348V447.066Z" fill="#000543"/>
<path d="M530.48 435.417C530.48 440.23 532.224 445.043 536.723 447.485L534.282 450.728C531.422 449.264 529.521 446.683 528.423 443.579C527.307 446.962 525.406 449.822 522.528 451.496L519.982 448.148C524.551 445.497 526.26 440.335 526.295 435.417V434.685H521.168V431.127H526.295V426.838H530.446V431.127H535.468V434.685H530.48V435.417ZM548.024 425.756V457.495H543.804V425.756H548.024ZM541.537 426.28V456.03H537.351V441.416H533.619V437.789H537.351V426.28H541.537Z" fill="#000543"/>
</g>
<g clip-path="url(#clip4_1895_1337)">
<path d="M761.87 390H655.28V538.571H762.012C768.967 538.571 774.786 533.286 774.786 527V401.571C774.644 395.286 768.967 390 761.87 390Z" fill="#829178"/>
<path d="M757.895 392.286H649.176V536.428H757.895C764.991 536.428 770.811 531.286 770.811 525.143V403.571C770.811 397.286 764.991 392.286 757.895 392.286Z" fill="#E2E2E2"/>
<path d="M755.34 392.286H649.176V532.714H755.34C762.295 532.714 767.972 527.714 767.972 521.714V403.286C767.972 397.143 762.295 392.286 755.34 392.286Z" fill="#EFEFEF"/>
<path d="M750.089 390H643.357V538.571H750.089C757.044 538.571 762.863 533.286 762.863 527V401.571C762.721 395.286 757.044 390 750.089 390Z" fill="#BDDAAA"/>
<path d="M750.09 390H660.957C660.957 390 650.312 480.571 672.454 503C688.492 519.143 751.793 516.714 751.793 516.714C757.754 516.714 762.58 512.286 762.58 506.857V401.571C762.722 395.286 757.045 390 750.09 390Z" fill="#BDDAAA"/>
<path d="M711.799 427.5C716.717 427.465 720.449 430.744 720.449 435.208C720.449 439.777 716.717 442.986 711.799 442.986C706.847 442.986 703.08 439.777 703.08 435.208C703.08 430.744 706.847 427.465 711.799 427.5ZM711.799 431.302C709.288 431.302 707.44 432.732 707.475 435.208C707.44 437.754 709.288 439.219 711.799 439.219C714.241 439.219 716.089 437.754 716.124 435.208C716.089 432.732 714.241 431.302 711.799 431.302ZM728.052 425.756V433.22H732.342V436.847H728.052V444.311H723.588V425.756H728.052ZM728.052 445.636V457.53H723.588V449.229H706.672V445.636H728.052Z" fill="#000543"/>
<path d="M687.907 426.349C694.952 426.349 699.416 428.686 699.451 432.557C699.416 436.394 694.952 438.731 687.907 438.696C680.896 438.731 676.327 436.394 676.327 432.557C676.327 428.686 680.896 426.349 687.907 426.349ZM687.907 429.802C683.477 429.802 680.931 430.744 680.966 432.557C680.931 434.336 683.477 435.243 687.907 435.243C692.301 435.243 694.847 434.336 694.847 432.557C694.847 430.744 692.301 429.802 687.907 429.802ZM698.928 446.334V457.146H676.781V446.334H698.928ZM681.175 449.856V453.588H694.568V449.856H681.175ZM702.381 440.544V444.102H673.433V440.544H702.381Z" fill="#000543"/>
</g>
<g filter="url(#filter2_d_1895_1337)">
<path d="M845 736H115V752H845V736Z" fill="#755A43"/>
<path d="M845 736H115V752H845V736Z" fill="#F1ECE8"/>
</g>
<g filter="url(#filter3_dd_1895_1337)">
<path d="M829.083 722H130.917L115 736H845L829.083 722Z" fill="#755A43"/>
<path d="M829.083 722H130.917L115 736H845L829.083 722Z" fill="url(#paint1_linear_1895_1337)"/>
</g>
<g clip-path="url(#clip5_1895_1337)">
<path d="M379.227 586H272.637V734.571H379.369C386.323 734.571 392.143 729.286 392.143 723V597.571C392.001 591.286 386.323 586 379.227 586Z" fill="#869CB0"/>
<path d="M375.251 588.286H266.532V732.428H375.251C382.348 732.428 388.167 727.286 388.167 721.143V599.571C388.167 593.286 382.348 588.286 375.251 588.286Z" fill="#E2E2E2"/>
<path d="M372.697 588.286H266.532V728.714H372.697C379.651 728.714 385.328 723.714 385.328 717.714V599.286C385.328 593.143 379.651 588.286 372.697 588.286Z" fill="#EFEFEF"/>
<path d="M367.446 586H260.714V734.571H367.446C374.401 734.571 380.22 729.286 380.22 723V597.571C380.078 591.286 374.401 586 367.446 586Z" fill="#C1DBF3"/>
<path d="M367.446 586H278.314C278.314 586 267.669 676.571 289.81 699C305.848 715.143 369.15 712.714 369.15 712.714C375.111 712.714 379.936 708.286 379.936 702.857V597.571C380.078 591.286 374.401 586 367.446 586Z" fill="#C1DBF3"/>
<path d="M349.28 646.17V649.798H320.228V646.17H332.469V640.311H323.297V623.779H327.761V628.697H341.607V623.779H346.037V640.311H336.899V646.17H349.28ZM327.761 636.754H341.607V632.254H327.761V636.754Z" fill="#000543"/>
<path d="M317.54 621.756V640.59H313.111V633.091H308.158V629.499H313.111V621.756H317.54ZM306.693 641.288C313.46 641.322 317.61 643.555 317.645 647.426C317.61 651.262 313.46 653.53 306.693 653.53C299.927 653.53 295.777 651.262 295.777 647.426C295.777 643.555 299.927 641.322 306.693 641.288ZM306.693 644.706C302.473 644.706 300.206 645.577 300.206 647.426C300.206 649.24 302.473 650.146 306.693 650.146C310.914 650.146 313.215 649.24 313.215 647.426C313.215 645.577 310.914 644.706 306.693 644.706ZM309.1 623.675V627.232H302.787C302.892 630.929 305.124 634.661 310.076 636.3L307.879 639.788C304.374 638.654 301.967 636.352 300.59 633.475C299.177 636.719 296.649 639.334 292.882 640.625L290.58 637.102C295.794 635.358 298.131 631.208 298.253 627.232H291.871V623.675H309.1Z" fill="#000543"/>
</g>
<g clip-path="url(#clip6_1895_1337)">
<path d="M532.084 586H425.494V734.571H532.226C539.181 734.571 545 729.286 545 723V597.571C544.858 591.286 539.181 586 532.084 586Z" fill="#95B3B1"/>
<path d="M528.109 588.286H419.39V732.428H528.109C535.205 732.428 541.024 727.286 541.024 721.143V599.571C541.024 593.286 535.205 588.286 528.109 588.286Z" fill="#E2E2E2"/>
<path d="M525.554 588.286H419.39V728.714H525.554C532.509 728.714 538.186 723.714 538.186 717.714V599.286C538.186 593.143 532.509 588.286 525.554 588.286Z" fill="#EFEFEF"/>
<path d="M520.303 586H413.571V734.571H520.303C527.258 734.571 533.077 729.286 533.077 723V597.571C532.935 591.286 527.258 586 520.303 586Z" fill="#B6E1DF"/>
<path d="M520.304 586H431.171C431.171 586 420.526 676.571 442.668 699C458.706 715.143 522.007 712.714 522.007 712.714C527.968 712.714 532.794 708.286 532.794 702.857V597.571C532.936 591.286 527.258 586 520.304 586Z" fill="#B6E1DF"/>
<path d="M502.103 637.451V640.974H490.14V646.449H485.745V640.974H473.05V637.451H502.103ZM498.371 623.151V634.835H476.677V623.151H498.371ZM481.037 626.604V631.382H494.011V626.604H481.037ZM498.894 649.379V652.937H476.468V643.694H480.897V649.379H498.894Z" fill="#000543"/>
<path d="M468.828 621.791V631.522H473.118V635.149H468.828V645.473H464.364V621.791H468.828ZM462.48 625.104V628.627H443.646V625.104H450.866V621.721H455.295V625.104H462.48ZM453.063 629.743C457.667 629.743 460.876 632.219 460.876 635.881C460.876 639.543 457.667 641.95 453.063 641.95C448.425 641.95 445.181 639.543 445.181 635.881C445.181 632.219 448.425 629.743 453.063 629.743ZM453.063 633.126C450.936 633.161 449.506 634.137 449.541 635.881C449.506 637.625 450.936 638.567 453.063 638.567C455.191 638.567 456.656 637.625 456.656 635.881C456.656 634.137 455.191 633.161 453.063 633.126ZM469.979 649.379V652.936H448.25V643.659H452.68V649.379H469.979Z" fill="#000543"/>
</g>
<g clip-path="url(#clip7_1895_1337)">
<path d="M684.941 586H578.351V734.571H685.083C692.037 734.571 697.856 729.286 697.856 723V597.571C697.714 591.286 692.037 586 684.941 586Z" fill="#BF9FAB"/>
<path d="M680.965 588.286H572.246V732.428H680.965C688.062 732.428 693.881 727.286 693.881 721.143V599.571C693.881 593.286 688.062 588.286 680.965 588.286Z" fill="#E2E2E2"/>
<path d="M678.41 588.286H572.246V728.714H678.41C685.365 728.714 691.042 723.714 691.042 717.714V599.286C691.042 593.143 685.365 588.286 678.41 588.286Z" fill="#EFEFEF"/>
<path d="M673.16 586H566.428V734.571H673.16C680.114 734.571 685.934 729.286 685.934 723V597.571C685.792 591.286 680.114 586 673.16 586Z" fill="#F1CBD9"/>
<path d="M673.16 586H584.028C584.028 586 573.383 676.571 595.524 699C611.562 715.143 674.863 712.714 674.863 712.714C680.824 712.714 685.65 708.286 685.65 702.857V597.571C685.792 591.286 680.115 586 673.16 586Z" fill="#F1CBD9"/>
<path d="M652.692 621.791V644.984H648.262V634.626H642.577V630.964H648.262V621.791H652.692ZM642.856 624.128C642.856 632.638 637.45 638.916 628.173 641.811L626.359 638.288C632.934 636.23 637.171 632.446 638.008 627.755H627.999V624.128H642.856ZM653.494 649.379V652.936H631.765V642.648H636.299V649.379H653.494Z" fill="#000543"/>
<path d="M625.556 646.17V649.797H596.503V646.17H608.745V640.311H599.572V623.779H604.036V628.696H617.883V623.779H622.312V640.311H613.174V646.17H625.556ZM604.036 636.753H617.883V632.254H604.036V636.753Z" fill="#000543"/>
</g>
<defs>
<filter id="filter0_d_1895_1337" x="107" y="536" width="746" height="32" filterUnits="userSpaceOnUse" color-interpolation-filters="sRGB">
<feFlood flood-opacity="0" result="BackgroundImageFix"/>
<feColorMatrix in="SourceAlpha" type="matrix" values="0 0 0 0 0 0 0 0 0 0 0 0 0 0 0 0 0 0 127 0" result="hardAlpha"/>
<feOffset dy="4"/>
<feGaussianBlur stdDeviation="4"/>
<feComposite in2="hardAlpha" operator="out"/>
<feColorMatrix type="matrix" values="0 0 0 0 0.454902 0 0 0 0 0.364706 0 0 0 0 0.258824 0 0 0 0.3 0"/>
<feBlend mode="normal" in2="BackgroundImageFix" result="effect1_dropShadow_1895_1337"/>
<feBlend mode="normal" in="SourceGraphic" in2="effect1_dropShadow_1895_1337" result="shape"/>
</filter>
<filter id="filter1_dd_1895_1337" x="107" y="516" width="746" height="30" filterUnits="userSpaceOnUse" color-interpolation-filters="sRGB">
<feFlood flood-opacity="0" result="BackgroundImageFix"/>
<feColorMatrix in="SourceAlpha" type="matrix" values="0 0 0 0 0 0 0 0 0 0 0 0 0 0 0 0 0 0 127 0" result="hardAlpha"/>
<feOffset dy="-2"/>
<feGaussianBlur stdDeviation="4"/>
<feComposite in2="hardAlpha" operator="out"/>
<feColorMatrix type="matrix" values="0 0 0 0 0.454902 0 0 0 0 0.364706 0 0 0 0 0.258824 0 0 0 0.06 0"/>
<feBlend mode="normal" in2="BackgroundImageFix" result="effect1_dropShadow_1895_1337"/>
<feColorMatrix in="SourceAlpha" type="matrix" values="0 0 0 0 0 0 0 0 0 0 0 0 0 0 0 0 0 0 127 0" result="hardAlpha"/>
<feOffset dy="1"/>
<feGaussianBlur stdDeviation="0.5"/>
<feComposite in2="hardAlpha" operator="out"/>
<feColorMatrix type="matrix" values="0 0 0 0 0.454902 0 0 0 0 0.364706 0 0 0 0 0.258824 0 0 0 0.08 0"/>
<feBlend mode="normal" in2="effect1_dropShadow_1895_1337" result="effect2_dropShadow_1895_1337"/>
<feBlend mode="normal" in="SourceGraphic" in2="effect2_dropShadow_1895_1337" result="shape"/>
</filter>
<filter id="filter2_d_1895_1337" x="107" y="732" width="746" height="32" filterUnits="userSpaceOnUse" color-interpolation-filters="sRGB">
<feFlood flood-opacity="0" result="BackgroundImageFix"/>
<feColorMatrix in="SourceAlpha" type="matrix" values="0 0 0 0 0 0 0 0 0 0 0 0 0 0 0 0 0 0 127 0" result="hardAlpha"/>
<feOffset dy="4"/>
<feGaussianBlur stdDeviation="4"/>
<feComposite in2="hardAlpha" operator="out"/>
<feColorMatrix type="matrix" values="0 0 0 0 0.454902 0 0 0 0 0.364706 0 0 0 0 0.258824 0 0 0 0.3 0"/>
<feBlend mode="normal" in2="BackgroundImageFix" result="effect1_dropShadow_1895_1337"/>
<feBlend mode="normal" in="SourceGraphic" in2="effect1_dropShadow_1895_1337" result="shape"/>
</filter>
<filter id="filter3_dd_1895_1337" x="107" y="712" width="746" height="30" filterUnits="userSpaceOnUse" color-interpolation-filters="sRGB">
<feFlood flood-opacity="0" result="BackgroundImageFix"/>
<feColorMatrix in="SourceAlpha" type="matrix" values="0 0 0 0 0 0 0 0 0 0 0 0 0 0 0 0 0 0 127 0" result="hardAlpha"/>
<feOffset dy="-2"/>
<feGaussianBlur stdDeviation="4"/>
<feComposite in2="hardAlpha" operator="out"/>
<feColorMatrix type="matrix" values="0 0 0 0 0.454902 0 0 0 0 0.364706 0 0 0 0 0.258824 0 0 0 0.06 0"/>
<feBlend mode="normal" in2="BackgroundImageFix" result="effect1_dropShadow_1895_1337"/>
<feColorMatrix in="SourceAlpha" type="matrix" values="0 0 0 0 0 0 0 0 0 0 0 0 0 0 0 0 0 0 127 0" result="hardAlpha"/>
<feOffset dy="1"/>
<feGaussianBlur stdDeviation="0.5"/>
<feComposite in2="hardAlpha" operator="out"/>
<feColorMatrix type="matrix" values="0 0 0 0 0.454902 0 0 0 0 0.364706 0 0 0 0 0.258824 0 0 0 0.08 0"/>
<feBlend mode="normal" in2="effect1_dropShadow_1895_1337" result="effect2_dropShadow_1895_1337"/>
<feBlend mode="normal" in="SourceGraphic" in2="effect2_dropShadow_1895_1337" result="shape"/>
</filter>
<linearGradient id="paint0_linear_1895_1337" x1="512.923" y1="511.072" x2="512.923" y2="567.072" gradientUnits="userSpaceOnUse">
<stop stop-color="#F8F4F1"/>
<stop offset="1" stop-color="#F8F4F1"/>
</linearGradient>
<linearGradient id="paint1_linear_1895_1337" x1="512.923" y1="707.072" x2="512.923" y2="763.072" gradientUnits="userSpaceOnUse">
<stop stop-color="#F8F4F1"/>
<stop offset="1" stop-color="#F8F4F1"/>
</linearGradient>
<clipPath id="clip0_1895_1337">
<rect width="500" height="270" fill="white" transform="translate(230 60)"/>
</clipPath>
<clipPath id="clip1_1895_1337">
<rect width="132.857" height="150" fill="white" transform="translate(184.786 390)"/>
</clipPath>
<clipPath id="clip2_1895_1337">
<rect width="132.857" height="150" fill="white" transform="translate(337.644 390)"/>
</clipPath>
<clipPath id="clip3_1895_1337">
<rect width="132.857" height="150" fill="white" transform="translate(490.5 390)"/>
</clipPath>
<clipPath id="clip4_1895_1337">
<rect width="132.857" height="150" fill="white" transform="translate(643.357 390)"/>
</clipPath>
<clipPath id="clip5_1895_1337">
<rect width="132.857" height="150" fill="white" transform="translate(260.714 586)"/>
</clipPath>
<clipPath id="clip6_1895_1337">
<rect width="132.857" height="150" fill="white" transform="translate(413.571 586)"/>
</clipPath>
<clipPath id="clip7_1895_1337">
<rect width="132.857" height="150" fill="white" transform="translate(566.428 586)"/>
</clipPath>
</defs>
</svg>
