<svg width="90" height="77" viewBox="0 0 90 77" fill="none" xmlns="http://www.w3.org/2000/svg">
<path d="M18.1647 41.132C27.0114 41.132 34.1831 33.9604 34.1831 25.1136C34.1831 16.2669 27.0114 9.09521 18.1647 9.09521C9.31793 9.09521 2.14624 16.2669 2.14624 25.1136C2.14624 33.9604 9.31793 41.132 18.1647 41.132Z" fill="#ABA2F9"/>
<path d="M15.2822 16.2541L13.5158 21.7003L8.18052 23.7776C7.17611 24.1688 7.00211 25.5158 7.87452 26.1488L12.5084 29.5118L12.8348 35.2281C12.896 36.3039 14.1242 36.8859 14.9954 36.2517L19.6257 32.8839L25.1631 34.3395C26.2054 34.6137 27.1384 33.6255 26.8048 32.6007L25.0323 27.1562L28.1278 22.3399C28.7104 21.4333 28.0594 20.2411 26.9812 20.2417L21.2559 20.2447L17.6318 15.8125C16.9496 14.9778 15.6146 15.2293 15.2822 16.2541Z" fill="white"/>
<path d="M71.8366 41.132C80.6833 41.132 87.855 33.9604 87.855 25.1136C87.855 16.2669 80.6833 9.09521 71.8366 9.09521C62.9898 9.09521 55.8181 16.2669 55.8181 25.1136C55.8181 33.9604 62.9898 41.132 71.8366 41.132Z" fill="#F48682"/>
<path d="M73.075 15.879L69.1245 20.0233L63.4161 19.5853C62.3415 19.5031 61.6016 20.6419 62.1134 21.5905L64.8345 26.6282L62.6534 31.9221C62.243 32.9187 63.0975 33.9747 64.1577 33.7803L69.7893 32.7495L74.1502 36.4593C74.971 37.1577 76.2394 36.6711 76.3828 35.6025L77.143 29.9276L82.0187 26.9264C82.9367 26.3612 82.8659 25.0046 81.8939 24.5384L76.7314 22.0621L75.3838 16.4977C75.13 15.45 73.8178 15.0984 73.0744 15.8784L73.075 15.879Z" fill="white"/>
<path d="M48.7795 73.5887C42.4896 75.3527 35.5655 74.7479 29.677 71.9201C31.5814 61.6809 32.7382 51.8216 33.1073 41.9328C33.2945 37.9014 33.4787 34.0235 33.6629 30.1457C38.1845 28.2875 42.936 27.7277 47.5782 26.797C52.0831 25.894 56.5166 24.6328 60.8222 23.0284C62.5718 21.6412 63.8235 20.5312 65.0193 20.227C65.6967 20.1615 66.2295 20.9002 66.2133 21.58C66.1971 22.2604 65.8065 22.867 65.4291 23.4334C63.0075 27.0682 60.5852 30.7037 57.9908 34.4567C55.3615 41.5374 53.6155 45.6709 50.3053 48.3763C49.1155 56.714 48.6565 65.1562 48.7789 73.5887H48.7795Z" fill="#FAD1DA"/>
<path d="M46.1058 37.9304C55.9845 37.9304 63.9927 29.9222 63.9927 20.0436C63.9927 10.165 55.9845 2.15674 46.1058 2.15674C36.2272 2.15674 28.219 10.165 28.219 20.0436C28.219 29.9222 36.2272 37.9304 46.1058 37.9304Z" fill="#EDD45B"/>
<path d="M44.7714 9.72605L41.709 15.3379L35.4251 16.5163C34.2425 16.7384 33.7733 18.1808 34.6001 19.0556L38.9915 23.702L38.1701 30.0423C38.0153 31.2357 39.2429 32.1274 40.3301 31.612L46.1064 28.8717L51.8827 31.612C52.9699 32.128 54.1975 31.2363 54.0427 30.0423L53.2213 23.702L57.6128 19.0556C58.4396 18.1808 57.9704 16.7384 56.7878 16.5163L50.5039 15.3379L47.4414 9.72605C46.8648 8.66944 45.348 8.66944 44.7714 9.72605Z" fill="white"/>
<path d="M33.2182 44.483C30.5206 41.8772 29.2918 38.1313 28.3624 34.4971C27.5146 31.182 26.803 27.747 25.1625 24.9275C24.8667 24.4193 25.1049 23.7647 25.6653 23.5853C26.5852 23.2901 27.6514 23.4023 28.5244 23.8469C29.743 24.4673 30.613 25.6338 31.144 26.8938C31.675 28.1538 31.9036 29.517 32.5054 30.9408C34.9085 31.7262 37.1069 33.1303 38.8295 34.9807C39.5231 35.7259 40.1417 36.5425 40.8869 37.2361C41.6322 37.9297 42.5358 38.5063 43.3728 38.6653C43.3038 41.0558 42.999 43.439 42.3054 45.9338C40.8191 45.6854 39.3017 45.719 37.7999 45.599C36.2981 45.479 34.4393 45.6632 33.2176 44.483H33.2182Z" fill="#FAD1DA"/>
<path d="M43.4676 42.0017C42.6018 36.8075 35.0003 33.0436 34.9235 33.0064C34.7003 32.8978 34.6073 32.6284 34.7165 32.4046C34.8257 32.1814 35.0945 32.0878 35.3183 32.197C35.6483 32.3578 43.4136 36.2003 44.3556 41.8535C44.3964 42.0989 44.2308 42.3305 43.986 42.3713C43.7418 42.4121 43.509 42.2471 43.4682 42.0017H43.4676Z" fill="#FAD1DA"/>
<path d="M44.6142 47.4129C42.7074 47.0445 40.7568 46.8117 38.8163 46.7223C38.5679 46.7109 38.3759 46.5003 38.3873 46.2519C38.3987 46.0035 38.6111 45.8163 38.8577 45.8229C40.8414 45.9147 42.8358 46.1523 44.7846 46.5291C45.0288 46.5765 45.1884 46.8123 45.141 47.0565C45.0942 47.2989 44.8596 47.4603 44.6136 47.4129H44.6142Z" fill="#FAD1DA"/>
</svg>
