<svg width="302" height="188" viewBox="0 0 302 188" fill="none" xmlns="http://www.w3.org/2000/svg">
<g clip-path="url(#clip0_84_49872)">
<path d="M205.799 54.4168C205.799 54.4168 196.099 64.2287 196.779 66.09C197.46 67.9512 215.101 83.5844 217.579 82.1354C220.058 80.6865 225.316 71.8088 225.316 71.8088L205.799 54.4168Z" fill="#D9D9D9"/>
<path d="M217.633 83.1398C213.813 84.1182 196.793 68.5293 195.824 66.3349C195.193 64.6647 198.182 60.4389 204.981 53.6088C205.315 53.32 205.888 53.1732 206.416 53.6484L225.982 71.2314C226.271 71.5645 226.417 72.1376 226.084 72.4264C225.516 73.3862 220.685 81.5441 218.015 83.042C218.015 83.042 217.824 83.0909 217.633 83.1398ZM205.902 55.6122C201.86 59.7005 197.823 64.6018 197.925 65.7968C198.797 67.6091 214.563 81.4835 217.335 81.1807C218.907 80.1674 222.131 75.2708 224.312 71.8627L205.902 55.6122Z" fill="#D9D9D9"/>
<path d="M219.666 29.0862C219.666 29.0862 206.037 12.4257 192.409 21.2079C178.781 29.9901 164.208 57.3338 170.472 57.1544C176.736 56.975 191.682 44.5983 197.823 47.9109C203.963 51.2234 219.666 29.0862 219.666 29.0862Z" fill="#CE7B90"/>
<path d="M248.457 54.0769C248.457 54.0769 266.932 65.0185 260.179 79.9785C253.426 94.9386 228.756 113.062 227.764 106.803C226.772 100.543 237.15 83.8409 232.91 78.4132C228.621 72.7945 248.457 54.0769 248.457 54.0769Z" fill="#CE7B90"/>
<path d="M194.443 50.6088C194.443 50.6088 229.784 83.6922 232.698 83.1494C235.563 82.4156 278.144 26.9339 272.017 9.36954C265.891 -8.19482 201.746 31.437 194.443 50.6088Z" fill="white"/>
<path d="M232.894 83.9135C229.788 84.5052 206.952 63.6889 193.777 51.1866C193.488 50.8534 193.39 50.4714 193.483 50.0405C198.904 36.2359 234.34 10.8769 256.689 5.15325C267.959 2.26697 271.71 5.7845 272.972 9.12499C275.111 15.0908 272.204 25.1985 264.682 39.5412C253.749 59.6424 235.568 83.2286 232.894 83.9135ZM195.589 50.3153C208.427 62.2935 229.29 80.969 232.595 81.9544C236.74 79.0612 276.944 26.2235 271.062 9.61419C269.457 4.93657 262.669 5.45373 257.129 6.87241C236.166 12.4446 201.49 36.7949 195.589 50.3153Z" fill="white"/>
<path d="M237.601 12.4839C237.601 12.4839 263.913 38.9236 266.103 37.1415C268.292 35.3594 279.348 11.7663 271.416 4.63804C266.368 0.0279829 252.517 3.16818 237.601 12.4839Z" fill="#CE7B90"/>
<path d="M236.25 60.4597C231.666 61.6338 226.876 60.4178 223.272 57.4734C217.265 52.2949 216.591 43.3077 221.77 37.3C223.622 34.9938 226.291 33.4959 228.966 32.811C233.55 31.6369 238.34 32.8529 241.943 35.7974C247.951 40.9758 248.624 49.963 243.446 55.9708C241.545 58.086 239.115 59.7259 236.25 60.4597Z" fill="#CEBED6"/>
<path d="M239.553 52.6933C239.362 52.7422 239.171 52.7911 238.931 52.649C238.451 52.3648 238.114 51.8407 238.398 51.3608C241.701 43.5942 236.089 40.7569 235.849 40.6148C235.369 40.3306 235.223 39.7576 235.316 39.3266C235.6 38.8468 236.173 38.7 236.604 38.7932C236.604 38.7932 243.895 42.6252 240.029 52.1645C240.077 52.3555 239.935 52.5954 239.553 52.6933Z" fill="#B2A0BB"/>
<path d="M267.463 24.1728C267.272 24.2217 267.081 24.2706 266.841 24.1285C266.361 23.8443 266.214 23.2712 266.498 22.7914C270.002 16.6019 267.335 10.1608 267.286 9.96983C267.139 9.39677 267.232 8.96581 267.756 8.62804C268.28 8.29026 268.76 8.57446 269.098 9.09859C269.196 9.48063 272.201 16.4458 268.32 23.5461C268.036 24.026 267.845 24.0749 267.463 24.1728Z" fill="#B86C7F"/>
<path d="M196.835 75.8462C196.835 75.8462 191.293 68.513 179.425 75.42C167.556 82.327 167.512 99.6398 164.821 105.825C162.033 111.627 176.739 115.799 193.779 110.011C210.819 104.222 213.205 86.5129 196.835 75.8462Z" fill="#C9564C"/>
<path d="M194.664 80.8806C194.664 80.8806 192.158 77.4516 186.485 80.7362C180.764 83.8297 180.86 92.1507 179.537 94.9321C178.213 97.7135 185.207 99.5864 193.083 96.9587C200.959 94.331 200.511 83.047 194.664 80.8806Z" fill="#EDD14E"/>
<g clip-path="url(#clip1_84_49872)">
<path d="M107.6 168.516C107.027 168.663 106.547 168.379 106.4 167.806C106.253 167.232 106.537 166.753 107.11 166.606C108.257 166.312 109.594 165.97 110.882 165.436C111.455 165.29 111.935 165.574 112.082 166.147C112.228 166.72 111.944 167.2 111.371 167.347C110.083 167.88 108.937 168.174 107.6 168.516ZM103.779 169.494C102.393 169.646 101.056 169.988 99.6211 169.949C98.9991 169.904 98.5193 169.62 98.5635 168.998C98.6078 168.376 98.9409 168.087 99.5139 167.941C100.709 167.838 102.095 167.687 103.241 167.393C103.814 167.246 104.343 167.722 104.441 168.104C104.637 168.868 104.352 169.348 103.779 169.494ZM115.045 165.795C114.663 165.893 114.183 165.609 113.894 165.276C113.747 164.703 113.84 164.272 114.364 163.934C115.653 163.4 116.701 162.725 117.798 162.24C118.322 161.903 118.802 162.187 119.091 162.52C119.38 162.853 119.145 163.524 118.811 163.813C117.621 164.728 116.333 165.262 115.045 165.795ZM95.9382 169.874C95.7472 169.923 95.7472 169.923 95.5561 169.972C94.1212 169.932 92.8283 169.653 91.5354 169.373C91.1045 169.28 90.7667 168.756 90.811 168.134C90.8552 167.512 91.4283 167.365 92.0502 167.41C93.3431 167.689 94.396 167.827 95.831 167.866C96.453 167.91 96.7908 168.435 96.6976 168.865C96.6533 169.487 96.3202 169.776 95.9382 169.874ZM121.765 161.835C121.383 161.933 120.952 161.84 120.663 161.507C120.326 160.982 120.419 160.551 120.894 160.023C121.893 159.156 122.942 158.481 123.75 157.663C124.083 157.374 124.656 157.227 125.185 157.702C125.474 158.036 125.621 158.609 125.145 159.137C124.146 160.004 123.147 160.871 121.956 161.786C121.956 161.786 121.956 161.786 121.765 161.835ZM88.372 168.148C88.181 168.197 87.9899 168.246 87.75 168.104C86.4082 167.633 85.2085 166.923 84.1998 166.163C83.72 165.879 83.5732 165.306 84.0484 164.777C84.3326 164.297 84.9057 164.151 85.4345 164.626C86.4431 165.385 87.5939 165.905 88.7447 166.424C89.2246 166.708 89.5623 167.233 89.2781 167.712C88.8961 167.81 88.563 168.099 88.372 168.148ZM127.473 156.302C127.281 156.351 126.851 156.258 126.611 156.116C126.131 155.832 126.175 155.21 126.459 154.73C127.219 153.721 127.978 152.713 128.497 151.562C128.782 151.082 129.355 150.935 129.835 151.219C130.314 151.504 130.461 152.077 130.177 152.557C129.467 153.756 128.756 154.956 127.997 155.965C127.855 156.205 127.664 156.254 127.473 156.302ZM61.6643 172.749C60.3272 173.091 58.9412 173.243 57.604 173.585C57.031 173.732 56.5022 173.257 56.5464 172.635C56.3997 172.062 56.8749 171.533 57.4969 171.577C58.6919 171.475 60.029 171.132 61.1751 170.839C61.7482 170.692 62.2281 170.976 62.3748 171.549C62.5216 172.122 62.0464 172.651 61.6643 172.749ZM65.4358 171.579C64.8627 171.726 64.3829 171.442 64.2361 170.869C64.0893 170.296 64.3735 169.816 64.9466 169.669C66.2837 169.327 67.3809 168.842 68.4781 168.358C69.0022 168.02 69.4821 168.304 69.8199 168.828C70.1577 169.352 69.8735 169.832 69.3493 170.17C68.0611 170.704 66.7729 171.237 65.4358 171.579ZM53.779 173.751L53.588 173.799C52.2019 173.951 50.958 173.862 49.523 173.823C48.901 173.779 48.5633 173.254 48.6564 172.823C48.7007 172.201 49.2248 171.864 49.6558 171.957C50.8997 172.045 52.1437 172.134 53.5297 171.982C54.1517 172.027 54.4406 172.36 54.5873 172.933C54.4942 173.364 54.161 173.653 53.779 173.751ZM72.5431 168.334C72.161 168.432 71.7301 168.339 71.3923 167.815C71.0545 167.291 71.3387 166.811 71.6718 166.522C72.7201 165.847 73.7684 165.171 74.7677 164.304C75.2919 163.967 75.7228 164.06 76.2516 164.535C76.5894 165.059 76.4962 165.49 76.021 166.019C75.0216 166.885 73.7823 167.61 72.7341 168.286L72.5431 168.334ZM45.9333 173.317C45.7422 173.366 45.7422 173.366 45.5512 173.415C44.2584 173.136 42.9655 172.856 41.6726 172.577C41.2417 172.483 40.9039 171.959 40.9481 171.337C40.9924 170.715 41.5655 170.569 42.1874 170.613C43.2893 170.941 44.5821 171.221 45.875 171.5C46.497 171.545 46.8348 172.069 46.7905 172.691C46.6484 172.931 46.3153 173.219 45.9333 173.317ZM81.9379 163.689C81.5559 163.787 81.3159 163.645 81.0271 163.312C80.7382 162.979 80.4494 162.646 80.1605 162.313C79.8274 162.602 79.6853 162.841 79.3522 163.13C79.019 163.419 78.446 163.566 77.9172 163.091C77.6283 162.758 77.4816 162.185 77.9568 161.656C78.2899 161.367 78.5741 160.887 79.0982 160.549C79.0493 160.358 78.8094 160.216 78.7115 159.834C78.3738 159.31 78.658 158.83 78.9911 158.541C79.5152 158.203 79.9951 158.488 80.2839 158.821C80.5681 158.341 81.1412 158.194 81.6211 158.478C82.1009 158.763 82.2477 159.336 81.9635 159.815C81.8214 160.055 81.6793 160.295 81.5372 160.535C81.875 161.059 82.1639 161.393 82.6437 161.677C83.1236 161.961 82.8883 162.632 82.6041 163.112C82.08 163.449 81.9379 163.689 81.9379 163.689ZM131.211 149.442C131.02 149.491 130.829 149.54 130.589 149.398C130.109 149.114 129.772 148.589 130.056 148.11C130.575 146.959 130.855 145.666 130.943 144.422L130.894 144.231C129.411 144 128.069 143.53 127.06 142.77C126.58 142.486 126.434 141.913 126.718 141.433C127.002 140.953 127.575 140.807 128.055 141.091C129.015 141.659 130.116 141.988 131.409 142.267C131.84 142.36 132.178 142.885 132.134 143.507C132.134 143.507 132.134 143.507 132.183 143.698C132.614 143.791 132.951 144.315 132.858 144.746C132.579 146.039 132.299 147.332 131.829 148.673C131.784 149.295 131.402 149.393 131.211 149.442ZM38.4113 170.969C38.2203 171.018 38.0293 171.067 37.7893 170.925C36.4476 170.454 35.2479 169.744 34.0971 169.224C33.6172 168.94 33.4705 168.367 33.7547 167.887C34.0388 167.407 34.6119 167.261 35.0918 167.545C36.2426 168.064 37.2512 168.824 38.593 169.294C39.0729 169.578 39.4107 170.103 39.1265 170.583C38.9844 170.822 38.6023 170.92 38.4113 170.969ZM144.951 143.481C144.378 143.628 143.805 143.774 143.231 143.921C142.658 144.068 142.179 143.784 142.032 143.211C141.885 142.638 142.169 142.158 142.742 142.011C143.697 141.766 144.844 141.473 145.99 141.179L146.563 141.033C147.136 140.886 147.616 141.17 147.762 141.743C147.909 142.316 147.625 142.796 147.052 142.943L146.479 143.089C145.906 143.236 145.333 143.383 144.951 143.481ZM139.362 144.709C137.785 144.909 136.399 145.06 135.155 144.972C134.533 144.928 134.244 144.594 134.098 144.021C133.951 143.448 134.475 143.11 135.048 142.964C136.292 143.052 137.487 142.95 138.873 142.798C139.446 142.652 139.975 143.127 139.931 143.749C140.219 144.082 139.935 144.562 139.362 144.709ZM150.725 141.391C150.343 141.489 149.864 141.205 149.575 140.872C149.237 140.348 149.521 139.868 150.045 139.53C151.142 139.045 152.191 138.37 153.19 137.503C153.714 137.166 154.145 137.259 154.625 137.543C155.105 137.827 154.87 138.498 154.585 138.978C153.586 139.844 152.347 140.569 151.107 141.293C150.916 141.342 150.725 141.391 150.725 141.391ZM83.0956 157.083C82.9046 157.132 82.7136 157.181 82.4737 157.039C81.9938 156.754 81.656 156.23 81.9402 155.75C82.4597 154.6 82.7392 153.307 83.0677 152.205C83.1608 151.774 83.6361 151.245 84.307 151.481C84.7379 151.574 85.2667 152.049 85.0314 152.72C84.7519 154.013 84.2813 155.354 83.8108 156.696C83.6198 156.745 83.4777 156.985 83.0956 157.083ZM77.7867 157.018C77.2137 157.165 76.7338 156.88 76.587 156.307C76.4892 155.925 76.3914 155.543 76.2446 154.97C76 154.015 75.7554 153.06 75.7507 152.247C75.604 151.674 76.1281 151.336 76.7012 151.189C77.2742 151.043 77.803 151.518 77.7588 152.14C77.7634 152.953 77.9591 153.717 78.2037 154.672C78.3015 155.054 78.3994 155.436 78.4972 155.818C78.5951 156.2 78.3109 156.68 77.7867 157.018ZM156.819 136.574C156.437 136.672 156.197 136.53 155.957 136.388C155.478 136.103 155.522 135.481 155.806 135.001C156.565 133.993 157.325 132.984 157.844 131.833C158.129 131.353 158.702 131.207 159.182 131.491C159.661 131.775 159.808 132.348 159.524 132.828C158.813 134.028 158.103 135.227 157.153 136.285C157.201 136.476 157.01 136.525 156.819 136.574ZM132.506 141.783L132.315 141.832C131.694 141.787 131.405 141.454 131.258 140.881C131.155 139.686 131.053 138.491 130.808 137.536L130.71 137.154C130.564 136.581 130.848 136.101 131.421 135.954C131.994 135.808 132.474 136.092 132.621 136.665L132.718 137.047C133.012 138.193 133.114 139.388 133.266 140.774C133.173 141.205 132.889 141.685 132.506 141.783ZM31.5509 167.23C31.3599 167.279 30.929 167.186 30.689 167.044C29.6804 166.285 28.6228 165.334 27.5652 164.384C27.2763 164.051 27.1296 163.478 27.6048 162.949C27.9379 162.66 28.5109 162.513 29.0397 162.988C29.8574 163.797 30.915 164.747 31.9237 165.507C32.4035 165.791 32.3593 166.413 32.0751 166.893C31.8841 166.942 31.742 167.181 31.5509 167.23ZM124.847 140.488C124.465 140.585 124.034 140.492 123.745 140.159C123.359 139.444 123.021 138.92 122.825 138.156C122.629 137.392 122.576 136.388 122.811 135.717C122.904 135.286 123.38 134.757 124.05 134.992C124.481 135.085 125.01 135.561 124.775 136.232C124.682 136.662 124.637 137.284 124.784 137.858C124.882 138.24 125.029 138.813 125.367 139.337C125.704 139.861 125.42 140.341 125.087 140.63C125.229 140.39 125.038 140.439 124.847 140.488ZM84.5818 149.375C84.0088 149.521 83.48 149.046 83.3332 148.473C83.2354 148.091 83.1375 147.709 83.0397 147.327C82.844 146.563 82.4573 145.848 82.1685 145.515C81.6886 145.23 81.7328 144.609 82.017 144.129C82.3012 143.649 82.9232 143.693 83.4031 143.977C84.1718 144.595 84.6074 145.501 84.9499 146.838C85.0477 147.22 85.1945 147.793 85.1013 148.224C85.4391 148.748 84.9639 149.277 84.5818 149.375ZM160.558 129.713C160.367 129.762 160.176 129.811 159.936 129.669C159.505 129.576 159.119 128.861 159.212 128.43C159.54 127.328 159.82 126.035 160.099 124.742C160.144 124.12 160.668 123.783 161.339 124.018C161.961 124.062 162.298 124.586 162.063 125.257C161.784 126.55 161.553 128.034 161.033 129.185C161.082 129.376 160.749 129.665 160.558 129.713ZM77.407 149.177C77.216 149.226 77.025 149.275 76.785 149.132C76.3541 149.039 76.0163 148.515 76.0605 147.893C76.4822 146.36 77.3348 144.921 78.5741 144.196C79.0982 143.858 79.5291 143.952 79.8669 144.476C80.2047 145 80.1115 145.431 79.5874 145.769C78.7301 146.395 78.1617 147.355 77.8333 148.457C77.9311 148.839 77.789 149.079 77.407 149.177ZM26.0184 161.523C25.6363 161.621 25.2054 161.528 24.9165 161.195C24.1921 159.955 23.5165 158.907 22.792 157.668C22.4542 157.144 22.7384 156.664 23.2626 156.326C23.7867 155.988 24.2666 156.272 24.6044 156.797C25.0889 157.894 25.7645 158.942 26.44 159.99C26.7778 160.514 26.6846 160.945 26.1605 161.283C26.4004 161.425 26.2094 161.474 26.0184 161.523ZM130.026 134.48C129.644 134.578 129.404 134.435 129.164 134.293C128.346 133.485 127.533 133.49 126.627 133.925C126.103 134.263 125.623 133.979 125.285 133.455C125.138 132.882 125.231 132.451 125.756 132.113C126.138 132.015 126.329 131.966 126.711 131.868C128.048 131.526 129.39 131.996 130.496 133.138C130.785 133.471 130.932 134.044 130.457 134.573C130.408 134.382 130.217 134.431 130.026 134.48ZM161.996 121.814L161.804 121.863C161.183 121.819 160.845 121.295 160.938 120.864C160.973 118.616 160.773 117.039 160.964 116.99C160.817 116.417 161.292 115.888 161.914 115.932C162.487 115.785 163.016 116.261 162.972 116.883C162.972 116.883 163.221 118.651 162.995 120.948C162.711 121.427 162.378 121.716 161.996 121.814ZM22.7734 154.416C22.2003 154.563 21.7204 154.278 21.5737 153.705L21.5248 153.514C21.1823 152.177 21.0309 150.791 20.9284 149.596C20.7816 149.023 21.3058 148.685 21.8788 148.539C22.4519 148.392 22.9807 148.867 22.9364 149.489C23.0389 150.684 23.1414 151.879 23.4349 153.025C23.5817 153.598 23.3464 154.269 22.7734 154.416ZM22.2026 146.624C22.0116 146.673 22.0116 146.673 21.8206 146.722C21.3896 146.628 20.8608 146.153 20.9051 145.531C21.1846 144.238 21.4152 142.754 21.6948 141.462C21.788 141.031 22.3121 140.693 22.9341 140.737C23.365 140.83 23.7028 141.354 23.6585 141.976C23.379 143.269 23.0995 144.562 23.011 145.806C22.9178 146.237 22.5847 146.526 22.2026 146.624ZM24.1198 139.009C23.9288 139.058 23.7377 139.106 23.4978 138.964C23.0179 138.68 22.8712 138.107 23.1554 137.627C23.6748 136.476 24.3364 135.086 24.8559 133.935C25.1401 133.455 25.7131 133.308 26.193 133.593C26.6729 133.877 26.8196 134.45 26.5355 134.93C26.016 136.08 25.3055 137.28 24.786 138.431C24.6439 138.671 24.5018 138.911 24.1198 139.009ZM28.0496 132.099C27.8586 132.148 27.4276 132.055 27.1877 131.913C26.8988 131.58 26.7521 131.007 27.0363 130.527C27.1784 130.287 27.5115 129.998 27.6536 129.758C27.9378 129.278 28.5598 129.323 29.0396 129.607C29.5195 129.891 29.4753 130.513 29.1911 130.993C29.049 131.233 28.9069 131.473 28.5738 131.762C28.4317 132.001 28.2406 132.05 28.0496 132.099Z" fill="#AD8CBB"/>
</g>
</g>
<defs>
<clipPath id="clip0_84_49872">
<rect width="280" height="122.254" fill="white" transform="translate(0 69.4663) rotate(-14.3648)"/>
</clipPath>
<clipPath id="clip1_84_49872">
<rect width="145.718" height="57.5775" fill="white" transform="translate(16.1436 132.502) rotate(-14.3648)"/>
</clipPath>
</defs>
</svg>
