<svg width="122" height="112" viewBox="0 0 122 112" fill="none" xmlns="http://www.w3.org/2000/svg">
<path d="M82.1654 91.4159C81.8755 91.6816 81.5373 91.9955 81.4165 92.382C81.3199 92.6719 81.4165 92.8894 81.4649 93.1068C82.6485 96.5854 83.7356 105.475 85.1608 108.736C85.6681 109.871 86.1996 111.031 87.0692 111.756C87.4557 112.094 88.2287 111.756 88.7119 111.055C89.4607 109.968 89.6298 108.06 90.1613 106.876C90.886 105.233 91.9247 103.397 93.3017 102.552C93.9539 102.165 94.5578 102.069 95.1617 102.021C98.3021 101.707 99.0268 101.972 102.554 101.296C105.622 100.716 108.883 98.1071 108.979 94.6769C108.979 94.6528 108.979 94.6287 108.979 94.5803C109.076 90.7153 107.699 87.8165 107.095 84.3862C107.047 84.1447 107.023 83.9032 107.095 83.6134C107.168 83.2993 107.313 82.9853 107.53 82.6954C108.4 81.3668 109.728 80.6662 110.912 80.0623C112.241 79.41 113.545 78.7336 114.874 78.0814C115.888 77.5741 116.444 76.0281 115.767 75.6416C114.97 75.1826 113.255 74.8203 112.337 74.6271C108.545 73.8299 106.564 74.0473 103.472 73.6849C100.887 73.395 99.7515 73.6367 98.0605 74.5063C96.8044 75.1585 95.7173 77.1393 94.8719 78.3955C91.5382 83.2751 93.2292 80.9802 89.4366 85.4975C87.3591 87.9856 84.4845 89.3143 82.1654 91.44V91.4159Z" fill="#FCDD9F"/>
<path d="M63.2508 28.6812C48.2011 15.2985 38.6351 10.0325 23.4646 3.5344C20.6141 2.32657 17.0872 0.756375 14.0918 0.490654C11.0964 0.224933 4.0426 0.369895 1.45783 3.5344C-1.00616 6.55396 -0.0398865 13.4385 2.56904 17.835C4.06676 20.3714 5.51617 23.5118 7.23129 25.9757C18.5125 42.2572 22.4742 48.4171 35.7604 62.0655C42.2586 68.7569 57.6464 80.2313 67.3333 85.5699C70.5461 87.3333 76.392 90.5944 81.1751 88.4445C84.4362 86.9951 85.9823 84.6519 88.3738 82.3329C91.031 79.7481 88.253 82.5745 90.9102 79.9897C93.3259 77.6224 97.4809 73.25 96.5871 69.1434C95.8624 65.7856 88.5429 55.0843 86.4171 52.5479C76.9235 41.2185 72.5994 36.967 63.2508 28.6572V28.6812Z" fill="#FF7B6F"/>
<path d="M16.1209 32.9813C15.6619 33.4161 15.1305 33.9475 15.1305 34.5031C15.1305 35.0829 15.7344 35.3244 16.3142 35.1553C16.8698 34.9862 17.4012 34.5273 17.8602 34.0925C20.4208 31.6769 22.7882 28.9955 25.1314 26.3382C26.8706 24.3816 28.5858 22.4007 30.3251 20.4441C32.3059 18.1975 34.3351 15.8785 35.4463 13.1971C36.0502 11.7477 33.9486 11.6752 33.1031 12.5932C31.7261 14.1151 30.5908 16.1201 29.3588 17.7627C26.774 21.2654 24.0443 24.6714 21.0972 27.9083C19.5028 29.6717 17.836 31.3628 16.0967 32.9571L16.1209 32.9813Z" fill="white"/>
<path d="M45.6161 64.8683C45.1812 65.2548 44.7223 65.6654 44.1425 65.7621C43.5627 65.8587 42.8863 65.4962 42.8622 64.9165C50.2783 57.8628 57.018 50.1811 63.7336 42.4752C64.4825 41.6055 67.4779 37.1124 68.8065 37.7888C69.9419 38.3685 67.961 40.3494 67.5021 40.9291C64.3617 44.9632 61.1247 48.9007 57.6703 52.6933C53.8294 56.9207 49.7952 60.9791 45.5919 64.8441L45.6161 64.8683Z" fill="white"/>
<path d="M39.674 28.005C40.8335 28.0774 41.9689 28.3915 42.9835 28.9471C46.0272 30.6139 47.5008 34.5513 46.7036 37.9332C45.8823 41.3152 43.0318 44.0207 39.7223 45.0836C39.0459 45.301 38.3454 45.446 37.6449 45.3977C36.9926 45.3493 36.3645 45.1078 35.7848 44.7937C34.0938 43.8516 32.8618 42.2331 31.8955 40.5422C31.2675 39.4793 30.736 38.344 30.4945 37.112C29.504 31.9184 34.8185 27.6668 39.6982 28.005H39.674Z" fill="white"/>
<path d="M37.1373 32.7883C38.2968 32.2085 39.7221 32.0395 40.8333 32.6676C41.6305 33.1024 42.1861 33.9237 42.4035 34.7933C42.6209 35.663 42.5243 36.605 42.2344 37.4747C41.9445 38.3201 41.4372 39.1415 40.6642 39.6005C40.1811 39.8903 39.6496 40.0353 39.094 40.132C37.7412 40.3252 36.2677 40.0594 35.2048 39.1657C32.6925 37.0157 34.7941 33.9478 37.1373 32.7883Z" fill="#537082"/>
<path d="M99.1718 66.2203C99.5583 66.7276 99.9448 67.2348 100.476 67.573C101.394 68.1528 102.554 68.1286 103.665 68.1286C107.965 68.0561 112.289 68.3943 116.541 69.1431C117.531 69.3122 118.57 69.5296 119.56 69.3122C120.551 69.0948 121.541 68.4185 121.71 67.4281C121.879 66.5101 121.372 65.6163 120.84 64.8433C119.971 63.5872 118.98 62.4518 117.966 61.2922C113.014 55.543 108.013 49.7697 101.974 45.2041C98.1572 42.3295 93.9781 39.9863 89.6541 37.933C86.3687 36.3628 82.9385 34.9376 79.3633 34.1887C76.9959 33.6815 73.155 32.8601 75.0634 36.3869C76.7544 39.5031 79.6532 42.1603 81.9239 44.8659C84.6778 48.127 87.3833 51.4365 90.0889 54.7459C93.1568 58.5385 96.1764 62.3794 99.1477 66.2203H99.1718Z" fill="#3FC3C9"/>
<path d="M43.1523 71.1242C42.645 70.786 42.017 70.4479 41.4372 70.617C40.5917 70.8827 40.3985 71.9697 40.3743 72.8394C40.326 74.1921 40.2777 75.5932 40.7125 76.8735C41.2198 78.3953 42.3793 79.579 43.3697 80.8352C45.0607 82.9851 46.3652 85.4491 47.9595 87.6715C49.7713 90.1596 51.9696 92.3336 54.1437 94.5077C59.2407 99.5564 64.362 104.605 70.2079 108.736C71.7298 109.799 73.3724 110.837 75.2325 110.982C77.0926 111.127 79.17 110.064 79.5324 108.253C79.6773 107.528 79.5566 106.755 79.4358 106.03C78.856 102.721 78.3004 99.4115 77.3341 96.1986C76.9959 95.1116 76.7544 93.6622 76.0538 92.7201C75.2325 91.6089 73.7348 90.8118 72.5511 90.1837C65.9322 86.7776 60.0137 83.1783 53.2982 78.3711C49.8679 75.9072 46.7275 73.4432 43.1523 71.1484V71.1242Z" fill="#3FC3C9"/>
</svg>
