<svg width="81" height="83" viewBox="0 0 81 83" fill="none" xmlns="http://www.w3.org/2000/svg">
<path d="M55.0559 65.9439C55.0559 74.8358 46.2086 82.0297 35.306 82.0297C24.4034 82.0297 15.5562 74.8358 15.5562 65.9439V60.85C15.5562 51.9581 24.4034 44.7642 35.306 44.7642C46.2086 44.7642 55.0559 51.9581 55.0559 60.85V65.9439Z" fill="url(#paint0_radial_27_161)"/>
<path d="M26.6381 54.3256C26.6381 54.3256 34.2788 52.2702 45.0921 54.3256L46.1198 57.9003C46.1198 57.9003 35.8874 56.7832 25.6997 57.9003L26.6381 54.3256Z" fill="url(#paint1_linear_27_161)"/>
<path d="M23.1078 54.1025L22.0354 57.9453C22.0354 57.9453 21.1417 57.9453 19.2203 58.5708C19.1757 58.5708 18.9076 55.8899 23.1078 54.1025Z" fill="url(#paint2_linear_27_161)"/>
<path d="M62.2938 31.7155C62.2938 44.0033 52.3295 53.9676 40.0417 53.9676H29.3625C17.0746 53.9676 7.11035 44.0033 7.11035 31.7155C7.11035 19.4277 17.0746 9.46338 29.3625 9.46338H40.0417C52.3295 9.50806 62.2938 19.4724 62.2938 31.7155Z" fill="url(#paint3_radial_27_161)"/>
<path d="M16.1368 15.8535L16.4049 18.043C16.4049 18.043 14.3495 18.6685 12.9644 20.2324C13.009 20.2324 12.7856 17.6408 16.1368 15.8535Z" fill="url(#paint4_linear_27_161)"/>
<path d="M23.1079 13.0832C23.1079 13.0832 25.2974 11.6087 28.6486 11.9215H40.2215C40.2215 11.9215 43.7961 12.3683 44.6004 13.7088L23.1079 13.0832Z" fill="url(#paint5_linear_27_161)"/>
<path d="M53.8494 30.8223C53.8494 34.3522 50.9897 37.2119 47.4598 37.2119H21.9458C18.4159 37.2119 15.5562 34.3522 15.5562 30.8223C15.5562 27.2923 18.4159 24.4326 21.9458 24.4326H47.4598C50.9897 24.4326 53.8494 27.2923 53.8494 30.8223Z" fill="url(#paint6_radial_27_161)"/>
<path d="M28.7376 31.002C28.7376 32.3872 27.6206 33.4596 26.2801 33.4596C24.8949 33.4596 23.8225 32.3425 23.8225 31.002C23.8225 29.6168 24.9396 28.5444 26.2801 28.5444C27.6206 28.5444 28.7376 29.6615 28.7376 31.002Z" fill="#27A3FF"/>
<path d="M44.8233 31.002C44.8233 32.3872 43.7063 33.4596 42.3658 33.4596C40.9806 33.4596 39.9082 32.3425 39.9082 31.002C39.9082 29.6168 41.0253 28.5444 42.3658 28.5444C43.7063 28.5444 44.8233 29.6615 44.8233 31.002Z" fill="#27A3FF"/>
<path d="M35.3053 3.69922H34.1882V9.46332H35.3053V3.69922Z" fill="url(#paint7_linear_27_161)"/>
<path d="M36.6909 2.13597C36.6909 3.25304 35.7972 4.10202 34.7248 4.10202C33.6078 4.10202 32.7588 3.20836 32.7588 2.13597C32.7588 1.0189 33.6524 0.169922 34.7248 0.169922C35.8419 0.169922 36.6909 1.0189 36.6909 2.13597Z" fill="#27A3FF"/>
<path d="M61.8022 22.6904H63.4108C63.4108 22.6904 65.4662 25.7289 65.1981 32.1632C65.1981 32.1632 65.2875 37.9273 63.5002 40.787H61.8469L61.8022 22.6904Z" fill="url(#paint8_linear_27_161)"/>
<path d="M60.3728 22.6904H61.9814C61.9814 22.6904 64.0368 25.7289 63.7687 32.1632C63.7687 32.1632 63.8581 37.9273 62.0707 40.787H60.4175L60.3728 22.6904Z" fill="url(#paint9_linear_27_161)"/>
<path d="M7.82578 22.6904H6.2172C6.2172 22.6904 4.16178 25.7289 4.42988 32.1632C4.42988 32.1632 4.34051 37.9273 6.12783 40.787H7.7811L7.82578 22.6904Z" fill="url(#paint10_linear_27_161)"/>
<path d="M9.21055 22.6904H7.60196C7.60196 22.6904 5.54655 25.7289 5.81465 32.1632C5.81465 32.1632 5.72528 37.9273 7.5126 40.787H9.16587L9.21055 22.6904Z" fill="url(#paint11_linear_27_161)"/>
<path d="M17.7901 52.8956C16.1369 51.3764 10.9983 54.2808 6.26195 59.3746C1.52556 64.4685 -0.976687 69.8305 0.676582 71.3497C2.32985 72.8689 7.46839 69.9645 12.2048 64.8706C16.8965 59.7768 19.3987 54.4148 17.7901 52.8956Z" fill="url(#paint12_linear_27_161)"/>
<path d="M74.4034 41.7697C73.1523 39.9377 67.4775 41.591 61.7134 45.5231C55.9493 49.4105 52.33 54.1022 53.5811 55.9342C54.8323 57.7662 60.507 56.1129 66.2711 52.1808C71.9905 48.2934 75.6545 43.6017 74.4034 41.7697Z" fill="url(#paint13_linear_27_161)"/>
<path d="M75.6988 44.4953C75.4307 44.4953 75.118 44.4506 74.8499 44.4059C73.7328 44.1825 72.8391 43.5569 72.2583 42.6186C71.7221 41.6802 71.588 40.5632 71.9008 39.4908C72.2136 38.4631 72.9285 37.5694 73.8668 36.9885C74.8052 36.4076 75.8776 36.2289 76.95 36.4077L76.5031 38.7758C76.0563 38.6865 75.5201 38.7758 75.118 39.0439C74.6711 39.312 74.3584 39.7142 74.2243 40.161C74.0903 40.5632 74.1349 41.01 74.3584 41.3675C74.5818 41.7249 74.9392 41.9483 75.3414 42.0377C75.8329 42.1271 76.3244 42.0377 76.7712 41.7696C77.3521 41.4121 77.7096 40.8313 77.7543 40.2057L80.1671 40.2951C80.1225 41.7249 79.3182 43.0654 78.0224 43.825C77.2628 44.2718 76.4585 44.4953 75.6988 44.4953Z" fill="url(#paint14_linear_27_161)"/>
<defs>
<radialGradient id="paint0_radial_27_161" cx="0" cy="0" r="1" gradientUnits="userSpaceOnUse" gradientTransform="translate(35.2872 63.3808) scale(21.3696 17.4098)">
<stop stop-color="#F1F1F5"/>
<stop offset="0.551" stop-color="#E4E2EC"/>
<stop offset="1" stop-color="#CFCFDE"/>
</radialGradient>
<linearGradient id="paint1_linear_27_161" x1="25.7329" y1="55.686" x2="46.1614" y2="55.686" gradientUnits="userSpaceOnUse">
<stop stop-color="white"/>
<stop offset="1"/>
</linearGradient>
<linearGradient id="paint2_linear_27_161" x1="19.1726" y1="56.3305" x2="24.5805" y2="56.3305" gradientUnits="userSpaceOnUse">
<stop stop-color="white"/>
<stop offset="1"/>
</linearGradient>
<radialGradient id="paint3_radial_27_161" cx="0" cy="0" r="1" gradientUnits="userSpaceOnUse" gradientTransform="translate(34.728 31.732) scale(25.0453 25.0453)">
<stop stop-color="#F1F1F5"/>
<stop offset="0.551" stop-color="#E4E2EC"/>
<stop offset="1" stop-color="#CFCFDE"/>
</radialGradient>
<linearGradient id="paint4_linear_27_161" x1="13.0097" y1="18.0545" x2="17.7378" y2="18.0545" gradientUnits="userSpaceOnUse">
<stop stop-color="white"/>
<stop offset="1"/>
</linearGradient>
<linearGradient id="paint5_linear_27_161" x1="23.0997" y1="12.8043" x2="52.6974" y2="12.8043" gradientUnits="userSpaceOnUse">
<stop stop-color="white"/>
<stop offset="1"/>
</linearGradient>
<radialGradient id="paint6_radial_27_161" cx="0" cy="0" r="1" gradientUnits="userSpaceOnUse" gradientTransform="translate(34.7287 30.8233) scale(14.2524 13.2434)">
<stop stop-color="#3E3C44"/>
<stop offset="0.551" stop-color="#242327"/>
<stop offset="1" stop-color="#040100"/>
</radialGradient>
<linearGradient id="paint7_linear_27_161" x1="34.169" y1="6.60835" x2="35.2861" y2="6.60835" gradientUnits="userSpaceOnUse">
<stop stop-color="#F1F1F5"/>
<stop offset="0.551" stop-color="#E4E2EC"/>
<stop offset="1" stop-color="#CFCFDE"/>
</linearGradient>
<linearGradient id="paint8_linear_27_161" x1="63.502" y1="23.0635" x2="63.502" y2="40.1038" gradientUnits="userSpaceOnUse">
<stop stop-color="#F1F1F5"/>
<stop offset="0.5153" stop-color="#D5CFD9"/>
<stop offset="1" stop-color="#BBBBCA"/>
</linearGradient>
<linearGradient id="paint9_linear_27_161" x1="62.0981" y1="22.7679" x2="62.0981" y2="41.24" gradientUnits="userSpaceOnUse">
<stop stop-color="#9DA1AF"/>
<stop offset="0.1378" stop-color="#ACB1C5"/>
<stop offset="0.2347" stop-color="#D7DBE7"/>
<stop offset="0.4133" stop-color="#9399B0"/>
<stop offset="0.6318" stop-color="#686D84"/>
<stop offset="1" stop-color="#41434F"/>
</linearGradient>
<linearGradient id="paint10_linear_27_161" x1="6.09977" y1="23.0635" x2="6.09977" y2="40.1038" gradientUnits="userSpaceOnUse">
<stop stop-color="#F1F1F5"/>
<stop offset="0.5153" stop-color="#D5CFD9"/>
<stop offset="1" stop-color="#BBBBCA"/>
</linearGradient>
<linearGradient id="paint11_linear_27_161" x1="7.50379" y1="22.7679" x2="7.50379" y2="41.24" gradientUnits="userSpaceOnUse">
<stop stop-color="#9DA1AF"/>
<stop offset="0.1378" stop-color="#ACB1C5"/>
<stop offset="0.2347" stop-color="#D7DBE7"/>
<stop offset="0.4133" stop-color="#9399B0"/>
<stop offset="0.6318" stop-color="#686D84"/>
<stop offset="1" stop-color="#41434F"/>
</linearGradient>
<linearGradient id="paint12_linear_27_161" x1="6.42812" y1="59.8016" x2="12.1697" y2="64.5823" gradientUnits="userSpaceOnUse">
<stop stop-color="#F1F1F5"/>
<stop offset="0.551" stop-color="#E4E2EC"/>
<stop offset="1" stop-color="#CFCFDE"/>
</linearGradient>
<linearGradient id="paint13_linear_27_161" x1="61.7942" y1="45.9687" x2="66.3226" y2="51.9111" gradientUnits="userSpaceOnUse">
<stop stop-color="#F1F1F5"/>
<stop offset="0.551" stop-color="#E4E2EC"/>
<stop offset="1" stop-color="#CFCFDE"/>
</linearGradient>
<linearGradient id="paint14_linear_27_161" x1="75.9611" y1="40.3163" x2="77.835" y2="33.837" gradientUnits="userSpaceOnUse">
<stop stop-color="#9DA1AF"/>
<stop offset="0.2347" stop-color="#CFD1E3"/>
<stop offset="0.6318" stop-color="#686D84"/>
<stop offset="1" stop-color="#41434F"/>
</linearGradient>
</defs>
</svg>
