<svg width="366" height="255" viewBox="0 0 366 255" fill="none" xmlns="http://www.w3.org/2000/svg">
<g clip-path="url(#clip0_1574_2759)">
<path d="M62.3879 102.036C59.6717 101.833 56.9669 102.751 54.6332 104.159C52.3034 105.567 50.2949 107.445 48.3323 109.331C44.9274 112.602 41.5723 115.977 38.8981 119.867C36.2239 123.762 34.246 128.234 33.8787 132.944C33.5115 137.653 34.9002 142.607 38.1788 146.005C41.6908 149.643 46.9015 151.135 51.9399 151.563C61.1216 152.34 70.5367 149.991 78.2761 144.995C81.2181 143.093 84.1601 140.366 84.2404 136.861" fill="#232B2B"/>
<path d="M67.7934 188.413C59.3309 205.261 46.4268 250.183 46.4268 250.183L56.4042 254.877L83.8613 209.018C85.5408 206.482 88.3106 201.103 88.6052 198.077C89.0911 193.076 89.8639 186.68 90.1814 182.043" fill="#FDBDA1"/>
<path d="M75.2535 173.228C73.6391 177.066 72.0246 180.903 70.4063 184.74C67.6748 191.228 64.6027 198.13 58.6193 201.841C52.0888 205.892 45.5736 204.19 38.7141 200.728C31.8546 197.265 16.7507 188.367 11.6357 182.628C14.2602 179.709 15.6298 177.731 18.4991 175.049C25.1864 176.082 39.7012 181.19 45.3823 184.87C44.2691 176.893 43.898 168.706 45.5201 160.814" fill="#FDBDA1"/>
<path d="M95.7282 167.325L89.5994 195.238C89.5994 195.238 54.4641 193.669 42.6962 182.062C42.6962 182.062 36.8122 153.411 54.2996 144.199" fill="#424666"/>
<path d="M78.004 66.6668C75.8424 65.982 73.4896 65.718 71.3051 66.3263C69.1207 66.9346 67.1351 68.5108 66.4044 70.657C65.6737 72.8032 66.4312 75.4698 68.3861 76.6251C69.5874 77.3367 71.068 77.4285 72.449 77.2143C74.9472 76.8279 77.2809 75.4583 78.838 73.4689" fill="#3A444A"/>
<path d="M69.1514 71.9695C66.9899 71.2847 64.6371 71.0208 62.4526 71.629C60.2681 72.2373 58.2826 73.8135 57.5519 75.9598C56.8212 78.106 57.5787 80.7725 59.5336 81.9279C60.7349 82.6394 62.2154 82.7313 63.5965 82.517C66.0947 82.1306 68.8607 78.6607 70.4177 76.6713" fill="#3A444A"/>
<path d="M60.4095 260.715C58.2595 259.927 56.1056 259.142 53.9556 258.354C53.3358 258.129 52.7122 257.899 52.1613 257.543C51.5109 257.126 50.9868 256.552 50.4474 256.005C48.7564 254.291 46.8321 252.795 44.7471 251.556C45.5734 249.735 46.5413 248.009 47.7311 246.28L58.9864 250.274C63.6996 256.055 64.7479 257.084 66.8023 259.483C67.3915 260.171 67.6937 261.082 67.7319 261.966C67.7396 262.172 67.7205 262.383 67.6746 262.589C67.4106 262.612 67.1313 262.597 66.8788 262.563C64.6522 262.264 62.5213 261.487 60.4095 260.715Z" fill="white"/>
<path d="M50.4471 256.005C50.9865 256.552 51.5107 257.126 52.161 257.543C52.7119 257.899 53.3393 258.128 53.9553 258.354C56.1053 259.142 58.2592 259.926 60.4093 260.714C62.521 261.487 64.6558 262.264 66.8785 262.562C67.131 262.597 67.4065 262.612 67.6743 262.589C67.5289 263.255 67.1119 263.859 66.4577 264.081C65.8838 264.272 65.2488 264.15 64.6481 264.016C57.4826 262.428 50.5007 259.965 43.9243 256.709C43.6871 256.59 43.4346 256.46 43.3007 256.238C43.1056 255.913 43.2165 255.512 43.3351 255.163C43.7559 253.909 44.2227 252.715 44.7468 251.56C46.828 252.799 48.7561 254.295 50.4471 256.009V256.005Z" fill="#6B6B6B"/>
<path d="M59.0436 257.773C59.2157 257.83 59.4032 257.826 59.5792 257.746C59.8317 257.627 60.1148 257.459 60.417 257.279C61.0674 256.893 62.15 256.239 62.655 256.449C63.0108 256.595 63.424 256.434 63.5656 256.09C63.7071 255.745 63.5311 255.347 63.1715 255.202C62.0008 254.735 60.7077 255.5 59.6595 256.12C59.3879 256.281 59.1316 256.434 58.9403 256.522C58.596 256.683 58.4582 257.088 58.6342 257.425C58.7222 257.593 58.8714 257.715 59.0436 257.773Z" fill="#B8B8B8"/>
<path d="M57.3063 255.424C57.4784 255.481 57.6697 255.477 57.8419 255.397C58.0944 255.278 58.3775 255.11 58.6797 254.93C59.3301 254.544 60.4319 253.901 60.9177 254.1C61.285 254.249 61.6867 254.085 61.8282 253.74C61.9698 253.396 61.7938 252.998 61.4342 252.849C60.2635 252.382 58.9666 253.147 57.9222 253.767C57.6506 253.928 57.3942 254.081 57.203 254.169C56.8586 254.33 56.7209 254.735 56.8969 255.072C56.9849 255.24 57.1341 255.362 57.3063 255.42V255.424Z" fill="#B8B8B8"/>
<path d="M4.24794 186.874C5.15846 184.774 6.06897 182.67 6.97949 180.57C7.23964 179.965 7.50744 179.357 7.89384 178.825C8.3491 178.202 8.95356 177.712 9.53124 177.203C11.3408 175.615 12.9438 173.779 14.3057 171.774C16.077 172.704 17.7412 173.775 19.3978 175.061L14.7533 186.063C8.70872 190.432 7.61839 191.419 5.1049 193.328C4.38184 193.876 3.45601 194.124 2.57227 194.113C2.36569 194.113 2.15527 194.078 1.95251 194.021C1.94868 193.753 1.97546 193.481 2.0252 193.229C2.45368 191.025 3.35272 188.94 4.24794 186.878V186.874Z" fill="white"/>
<path d="M9.5315 177.203C8.95381 177.712 8.34935 178.202 7.89409 178.825C7.50769 179.357 7.24372 179.965 6.97975 180.57C6.06923 182.67 5.15871 184.774 4.24819 186.875C3.35297 188.937 2.45393 191.022 2.02545 193.225C1.97572 193.478 1.94511 193.749 1.95276 194.017C1.29474 193.834 0.717057 193.382 0.537249 192.717C0.380394 192.135 0.537249 191.504 0.709406 190.915C2.71408 183.852 5.57954 177.027 9.21396 170.65C9.34404 170.42 9.48941 170.179 9.71896 170.057C10.0556 169.881 10.4497 170.019 10.7902 170.152C12.022 170.646 13.1812 171.182 14.306 171.771C12.944 173.779 11.3411 175.612 9.5315 177.199V177.203Z" fill="#6B6B6B"/>
<path d="M7.26696 185.685C7.1981 185.853 7.19427 186.044 7.26696 186.22C7.37025 186.48 7.52328 186.771 7.68396 187.085C8.0321 187.758 8.62126 188.875 8.38024 189.369C8.21574 189.717 8.34963 190.138 8.6863 190.299C9.02296 190.459 9.42849 190.306 9.59682 189.954C10.1324 188.81 9.44379 187.475 8.88523 186.396C8.73986 186.117 8.60213 185.849 8.52562 185.654C8.38407 185.298 7.99002 185.138 7.64188 185.294C7.4659 185.371 7.33965 185.516 7.27078 185.685H7.26696Z" fill="#B8B8B8"/>
<path d="M9.7152 184.086C9.64634 184.254 9.64251 184.445 9.7152 184.621C9.8185 184.881 9.97152 185.172 10.1322 185.486C10.4803 186.159 11.058 187.295 10.8323 187.77C10.664 188.129 10.8017 188.539 11.1384 188.699C11.475 188.86 11.8806 188.707 12.0489 188.355C12.5845 187.215 11.8959 185.876 11.3373 184.797C11.1919 184.518 11.058 184.254 10.9777 184.055C10.8361 183.699 10.4421 183.539 10.0939 183.695C9.91796 183.772 9.79172 183.917 9.72285 184.086H9.7152Z" fill="#B8B8B8"/>
<path d="M44.625 154.555C46.0979 140.465 51.6299 134.738 55.0424 122.055C57.5138 112.862 57.9691 104.323 66.049 97.1539C69.8785 93.7566 73.6201 93.4085 78.7236 92.9991C83.8271 92.5898 88.9535 93.0795 94.0455 93.6151C95.989 93.8217 98.9807 95.8799 101.785 96.5532C108.534 98.1753 108.885 98.2863 108.885 98.2863C111.238 101.136 110.71 109.561 110.729 113.256C110.821 130.583 98.338 153.748 94.1718 171.373C84.3282 170.757 66.4583 160.86 44.6288 154.555H44.625Z" fill="#5270AB"/>
<path d="M83.0425 86.6792L80.8848 93.619L91.8378 101.668L98.154 95.7194L97.7255 88.4658" fill="#F0B398"/>
<path d="M81.9751 90.1646L77.3154 93.1563L85.1428 104.66L91.8378 101.668L81.5046 92.4753L81.9751 90.1646Z" fill="#FFFEFA"/>
<path d="M97.9629 92.4482L100.308 96.4461L96.8687 104.652L91.8379 101.668L97.8672 94.8049L97.9629 92.4482Z" fill="#FFFEFA"/>
<path d="M78.0887 77.0155C77.8132 73.0674 76.4666 67.5928 77.7673 63.8589C78.7773 60.9513 80.3 58.1586 82.5686 56.2151C84.8411 54.2678 95.6181 52.42 99.5127 56.5403L104.44 62.5964L104.758 66.0089" fill="#3A444A"/>
<path d="M97.7988 57.5734C99.7499 56.9153 101.973 57.1181 103.775 58.1166C105.573 59.1151 106.923 60.8979 107.394 62.8988C108.966 64.4023 109.54 66.7589 109.525 68.9357C109.49 73.1249 107.612 77.2605 104.486 80.0494" fill="#3A444A"/>
<path d="M103.95 83.5232C103.4 85.9831 99.5853 91.7446 95.6487 92.4333C91.8842 93.0913 89.3898 93.1142 86.0844 91.1937C83.0276 89.4186 80.8432 87.0237 80.1431 83.5576C79.4429 80.0915 79.902 76.4801 80.8546 73.0752C81.4782 70.8486 82.3275 68.645 83.7507 66.824C86.379 63.465 90.7173 63.3005 94.9065 64.1115C100.825 65.2592 104.54 69.0123 104.83 74.747C104.972 77.5551 104.559 80.7687 103.947 83.5194L103.95 83.5232Z" fill="#FDBDA1"/>
<path d="M103.488 77.9415C104.299 76.8167 106.261 76.6522 107.52 77.4441C108.779 78.2361 109.314 79.7434 109.069 81.0748C108.825 82.4061 107.906 83.5615 106.782 84.4452C104.8 85.9984 102.099 86.8133 99.4248 86.6641" fill="#FDBDA1"/>
<path d="M107.635 79.4337C108.125 80.3786 107.899 81.863 107.153 82.9763C106.541 83.8945 105.619 84.5372 104.724 84.7438C104.559 84.782 104.521 84.5448 104.67 84.4262C105.282 83.9404 105.864 83.3895 106.403 82.785C106.751 82.3986 107.095 81.9663 107.256 81.469C107.451 80.876 107.348 80.2753 107.061 79.8813C106.778 79.4872 106.33 79.2845 105.852 79.2156C105.558 79.1735 105.163 79.2309 104.972 79.5714C104.827 79.8277 104.88 80.1338 105.03 80.3021C105.179 80.4704 105.397 80.5317 105.607 80.5967C105.818 80.6617 106.032 80.7382 106.162 80.9257C106.223 81.0137 106.258 81.1552 106.189 81.2738C106.093 81.4422 105.898 81.4307 105.756 81.3886C105.412 81.2891 105.06 81.1858 104.777 80.9678C104.494 80.7497 104.284 80.3978 104.291 79.9578C104.307 78.9708 105.24 78.5538 105.913 78.504C106.636 78.4505 107.294 78.791 107.627 79.4337H107.635Z" fill="#DEA58D"/>
<path d="M80.8166 75.0107C80.2963 73.7253 78.4332 73.094 77.0215 73.5646C75.6098 74.0313 74.7299 75.3665 74.6457 76.717C74.5654 78.0674 75.1775 79.4103 76.0613 80.535C77.6145 82.5206 80.04 83.9552 82.6721 84.4526" fill="#FDBDA1"/>
<path d="M76.4326 75.4621C75.7325 76.2617 75.5948 77.7575 76.05 79.0162C76.425 80.0529 77.1633 80.8984 77.982 81.3154C78.1312 81.3919 78.2269 81.17 78.1121 81.017C77.6377 80.3973 77.2016 79.7239 76.8228 79.0085C76.578 78.5494 76.3484 78.0444 76.3102 77.5241C76.2643 76.9044 76.5091 76.342 76.8802 76.0283C77.2513 75.7146 77.7333 75.6266 78.2116 75.6725C78.5061 75.6993 78.8772 75.8523 78.9805 76.2272C79.0609 76.5142 78.9346 76.7973 78.751 76.9197C78.5673 77.0459 78.3378 77.0536 78.1197 77.0651C77.9017 77.0765 77.6721 77.1033 77.5 77.2525C77.4196 77.3252 77.3508 77.4515 77.3929 77.5854C77.4464 77.7728 77.6377 77.8072 77.7831 77.7996C78.1427 77.7843 78.5061 77.769 78.8351 77.6236C79.1603 77.4782 79.4511 77.1913 79.5506 76.759C79.7724 75.7987 78.9652 75.1675 78.3263 74.9609C77.6377 74.7352 76.9185 74.9074 76.4403 75.4506L76.4326 75.4621Z" fill="#DEA58D"/>
<path d="M101.919 67.417C102.309 68.7636 102.699 70.1065 103.09 71.4531C103.327 72.2756 103.568 73.0982 103.66 73.9513C103.782 75.1028 103.633 76.2735 103.755 77.4251C103.774 77.5819 103.816 77.7694 103.962 77.8306C104.08 77.8803 104.218 77.8229 104.333 77.7655C105.09 77.3906 105.848 77.0157 106.605 76.6446C106.69 74.9651 106.525 73.278 106.123 71.6482" fill="#3A444A"/>
<path d="M86.9786 81.4985C86.7425 83.2234 85.151 84.4282 83.4295 84.1886C81.7045 83.9524 80.4998 82.361 80.7393 80.6394C80.9755 78.9145 82.567 77.7097 84.2885 77.9493C86.0135 78.1855 87.2182 79.7769 86.9786 81.4985Z" fill="#FF9A8F"/>
<path d="M95.6502 78.7863C95.5755 79.8829 95.802 80.8536 96.815 80.9219C97.7069 80.9839 98.1844 80.0609 98.2591 78.9644C98.3337 77.8678 98.0543 76.9553 97.0898 76.8879C96.2221 76.8278 95.7251 77.6871 95.6504 78.7836L95.6502 78.7863Z" fill="#472A28"/>
<path d="M97.3003 78.3328C97.2867 78.5128 97.4234 78.669 97.606 78.6828C97.7859 78.6964 97.9421 78.5596 97.9559 78.3769C97.9695 78.197 97.8327 78.0408 97.6501 78.027C97.4702 78.0134 97.314 78.1502 97.3003 78.3328Z" fill="#FDBFB0"/>
<path d="M87.1268 77.3737C87.0521 78.4703 87.2786 79.441 88.2915 79.5093C89.1835 79.5713 89.6609 78.6483 89.7356 77.5518C89.8103 76.4552 89.5308 75.5427 88.5664 75.4753C87.6986 75.4152 87.2017 76.2745 87.127 77.3711L87.1268 77.3737Z" fill="#472A28"/>
<path d="M88.7856 76.8343C88.772 77.0143 88.9088 77.1705 89.0914 77.1842C89.2713 77.1978 89.4274 77.061 89.4412 76.8784C89.4548 76.6984 89.3181 76.5422 89.1355 76.5284C88.9556 76.5149 88.7994 76.6516 88.7856 76.8343Z" fill="#FDBFB0"/>
<path d="M98.9213 76.2011C98.7336 76.1869 98.564 76.0548 98.5107 75.8592C98.4303 75.5705 97.8904 75.0964 97.3388 74.9417C97.2175 74.9074 96.919 74.8441 96.7753 74.984C96.5886 75.1614 96.2951 75.155 96.1205 74.9659C95.946 74.7769 95.953 74.4791 96.1397 74.3016C96.4869 73.9667 97.0015 73.8737 97.5866 74.0372C98.3231 74.2435 99.2064 74.8849 99.4029 75.6031C99.4707 75.8532 99.3273 76.1124 99.0837 76.182C99.03 76.1967 98.9769 76.2022 98.9246 76.1982L98.9213 76.2011Z" fill="#734942"/>
<path d="M87.1996 74.9962C87.1577 74.9931 87.1166 74.9805 87.0761 74.9586C86.8907 74.8567 86.8127 74.5775 86.8998 74.3423C87.1545 73.6579 87.9365 73.1391 88.5459 73.0374C89.0301 72.9546 89.4213 73.1192 89.6529 73.4948C89.7764 73.6957 89.7417 73.9915 89.5783 74.155C89.4149 74.3186 89.1822 74.2853 89.0587 74.0844C88.9642 73.9265 88.7198 73.9489 88.6194 73.9664C88.1628 74.045 87.6701 74.4381 87.5699 74.7164C87.5013 74.9028 87.3495 75.0107 87.1993 74.9994L87.1996 74.9962Z" fill="#734942"/>
<path d="M90.7334 88.1647C88.2049 87.9533 87.1637 85.2543 87.2613 84.3192C87.277 84.1882 87.3011 84.0981 87.3579 84.0453C87.793 83.5962 88.4962 84.2819 90.4264 84.7555C92.3565 85.2291 95.3702 84.6698 95.5471 85.174C95.5631 85.2163 95.5687 85.2724 95.5757 85.3209C95.7078 86.4233 93.4733 88.3826 90.7424 88.1584L90.7334 88.1647Z" fill="white"/>
<path d="M90.7332 88.1647C88.2047 87.9533 87.1635 85.2543 87.2611 84.3193C87.8618 85.0494 89.0724 85.8028 90.7167 86.1148C92.4145 86.4363 94.4123 85.9223 95.5756 85.3209C95.7077 86.4233 93.4731 88.3827 90.7422 88.1585L90.7332 88.1647Z" fill="#D8424D"/>
<path d="M104.076 83.2773C103.84 85.0022 102.249 86.207 100.527 85.9674C98.8022 85.7312 97.5974 84.1398 97.837 82.4182C98.0732 80.6933 99.6646 79.4885 101.386 79.7281C103.111 79.9643 104.316 81.5557 104.076 83.2773Z" fill="#FF9A8F"/>
<path d="M96.8694 104.653L86.0732 133.495L85.1436 104.66L91.8386 101.668L96.8694 104.653Z" fill="#E6E5E1"/>
<path d="M97.0218 96.9055C98.1887 96.4043 99.3823 95.907 100.641 95.7654C101.903 95.6201 103.265 95.8764 104.21 96.7257C104.926 97.3722 105.347 98.3325 105.331 99.2966C105.316 100.261 104.868 101.209 104.13 101.829C103.816 102.093 103.415 102.392 103.476 102.797C103.529 103.172 103.943 103.356 104.249 103.578C105.167 104.243 105.247 105.708 104.574 106.623C103.9 107.537 102.672 107.92 101.544 107.805C100.415 107.69 99.3708 107.151 98.4335 106.512C96.2031 104.997 94.3859 102.874 93.242 100.433C93.066 100.054 92.9015 99.66 92.8671 99.243C92.7829 98.1259 93.4983 98.1221 94.34 97.9002C95.2658 97.6592 96.1457 97.2766 97.0218 96.9017V96.9055Z" fill="#E37725"/>
<path d="M89.137 98.7111C87.8669 98.7685 86.5776 98.8412 85.3802 99.2582C84.1827 99.679 83.0656 100.502 82.5836 101.68C82.2201 102.571 82.2622 103.62 82.6945 104.48C83.1268 105.341 83.9455 105.999 84.879 106.24C85.2769 106.343 85.7666 106.435 85.8928 106.825C86.0076 107.185 85.713 107.529 85.537 107.866C85.0014 108.865 85.5676 110.219 86.57 110.747C87.5723 111.275 88.8463 111.083 89.8142 110.49C90.7821 109.898 91.486 108.956 92.0522 107.973C93.4027 105.639 94.1104 102.939 94.0798 100.241C94.076 99.8244 94.0531 99.3959 93.9 99.0095C93.4907 97.9689 92.8441 98.275 91.9872 98.4433C91.0499 98.627 90.0896 98.6652 89.137 98.7111Z" fill="#D15F22"/>
<path d="M95.5605 100.135C95.3616 101.175 94.3592 101.86 93.3187 101.661C92.2781 101.462 91.5933 100.46 91.7922 99.4192C91.9911 98.3786 92.9935 97.6938 94.0341 97.8928C95.0747 98.0917 95.7595 99.094 95.5605 100.135Z" fill="#FF862A"/>
<path d="M104.279 64.8461C102.611 67.1836 100.021 68.8516 97.2011 69.4025C94.3816 69.9534 91.3554 69.3834 88.9299 67.8455C90.158 67.2448 91.0991 66.0856 91.4358 64.7619C87.2428 67.1951 83.551 70.4814 80.6511 74.3645C79.3121 71.6253 80.0773 68.163 82.0437 65.8293C84.0101 63.4956 86.9712 62.1834 89.9744 61.644C92.9775 61.1046 96.0534 61.2652 99.0987 61.4259" fill="#3A444A"/>
<path d="M73.1375 93.6652C73.1375 93.6652 77.4376 118.234 53.5575 126.344L50.7227 133.984C50.7227 133.984 69.1473 127.986 75.2493 116.868C81.3513 105.751 79.5264 92.6284 79.5264 92.6284L73.1375 93.669V93.6652Z" fill="#232B2B"/>
<path d="M192.309 102.38C191.104 107.288 189.891 112.223 189.554 117.266C189.218 122.308 189.799 127.511 192.026 132.044C194.792 137.68 199.934 141.903 205.63 144.539C218.959 150.702 235.842 148.193 246.802 138.418" fill="#232B2B"/>
<path d="M259.424 230.53C256.865 229.991 254.305 229.447 251.746 228.908C251.011 228.751 250.269 228.594 249.584 228.288C248.781 227.925 248.092 227.37 247.392 226.846C245.2 225.208 242.778 223.846 240.223 222.791C240.854 220.644 241.665 218.582 242.717 216.482L256.084 219.179C262.362 224.86 263.72 225.84 266.433 228.181C267.213 228.854 267.703 229.818 267.894 230.786C267.94 231.016 267.951 231.253 267.932 231.486C267.638 231.551 267.32 231.578 267.029 231.578C264.47 231.59 261.93 231.058 259.42 230.526L259.424 230.53Z" fill="#416178"/>
<path d="M247.396 226.846C248.096 227.37 248.785 227.925 249.588 228.288C250.269 228.594 251.011 228.755 251.75 228.908C254.309 229.447 256.868 229.991 259.428 230.53C261.941 231.062 264.478 231.594 267.037 231.582C267.328 231.582 267.642 231.555 267.94 231.49C267.886 232.252 267.515 232.986 266.815 233.331C266.199 233.633 265.461 233.591 264.765 233.537C256.409 232.879 248.119 231.226 240.154 228.629C239.867 228.533 239.561 228.43 239.373 228.204C239.098 227.875 239.159 227.412 239.236 227.007C239.503 225.549 239.832 224.156 240.23 222.798C242.786 223.854 245.208 225.216 247.4 226.854L247.396 226.846Z" fill="#4C718C"/>
<path d="M257.397 227.477C257.599 227.515 257.814 227.477 257.993 227.362C258.257 227.194 258.552 226.961 258.862 226.719C259.535 226.192 260.645 225.3 261.253 225.453C261.681 225.56 262.118 225.319 262.221 224.914C262.324 224.508 262.06 224.095 261.628 223.988C260.228 223.651 258.892 224.7 257.814 225.545C257.534 225.763 257.27 225.973 257.068 226.1C256.704 226.333 256.616 226.8 256.872 227.148C256.999 227.324 257.19 227.431 257.393 227.469L257.397 227.477Z" fill="white"/>
<path d="M255.043 225.144C255.246 225.182 255.46 225.144 255.64 225.029C255.904 224.86 256.198 224.627 256.508 224.386C257.178 223.858 258.318 222.974 258.899 223.12C259.339 223.227 259.764 222.986 259.867 222.584C259.971 222.179 259.707 221.765 259.274 221.658C257.874 221.322 256.539 222.37 255.46 223.215C255.181 223.433 254.917 223.644 254.714 223.77C254.351 224.003 254.263 224.47 254.519 224.818C254.645 224.994 254.836 225.101 255.039 225.14L255.043 225.144Z" fill="white"/>
<path d="M191.196 225.208C189.482 223.234 187.764 221.26 186.05 219.282C185.557 218.716 185.059 218.142 184.704 217.484C184.283 216.711 184.068 215.851 183.824 215.013C183.062 212.384 181.953 209.837 180.549 207.453C182.347 206.122 184.237 204.966 186.345 203.926L195.381 214.14C196.961 222.458 197.455 224.057 198.204 227.561C198.419 228.567 198.231 229.635 197.799 230.522C197.696 230.733 197.562 230.928 197.409 231.104C197.133 230.977 196.865 230.809 196.632 230.633C194.582 229.099 192.879 227.14 191.196 225.204V225.208Z" fill="#416178"/>
<path d="M183.824 215.013C184.068 215.851 184.279 216.711 184.703 217.484C185.063 218.142 185.56 218.716 186.05 219.282C187.764 221.256 189.482 223.23 191.196 225.208C192.879 227.148 194.581 229.103 196.632 230.637C196.865 230.813 197.133 230.981 197.409 231.108C196.907 231.681 196.169 232.045 195.4 231.896C194.727 231.766 194.164 231.287 193.64 230.821C187.374 225.258 181.758 218.938 176.972 212.063C176.8 211.814 176.62 211.547 176.608 211.252C176.589 210.824 176.914 210.491 177.22 210.211C178.314 209.209 179.416 208.299 180.553 207.453C181.957 209.837 183.066 212.384 183.827 215.013H183.824Z" fill="#4C718C"/>
<path d="M191.417 221.547C191.555 221.7 191.75 221.8 191.964 221.819C192.278 221.846 192.653 221.838 193.047 221.83C193.9 221.815 195.323 221.773 195.717 222.263C195.993 222.603 196.49 222.68 196.815 222.42C197.141 222.159 197.179 221.67 196.9 221.325C195.985 220.212 194.29 220.243 192.921 220.269C192.565 220.277 192.228 220.281 191.991 220.262C191.563 220.227 191.207 220.549 191.203 220.981C191.203 221.199 191.283 221.398 191.425 221.551L191.417 221.547Z" fill="white"/>
<path d="M190.95 218.268C191.088 218.421 191.283 218.521 191.498 218.54C191.811 218.563 192.182 218.559 192.58 218.551C193.433 218.536 194.876 218.517 195.251 218.984C195.534 219.336 196.023 219.401 196.349 219.14C196.674 218.88 196.712 218.391 196.433 218.046C195.518 216.933 193.824 216.964 192.45 216.99C192.094 216.998 191.758 217.002 191.521 216.987C191.092 216.952 190.736 217.273 190.732 217.706C190.732 217.924 190.813 218.123 190.954 218.276L190.95 218.268Z" fill="white"/>
<path d="M258.957 117.855C262.052 126.731 276.276 144.723 277.14 154.222C277.649 159.8 265.147 214.626 259.875 222.056L241.733 218.253L249.22 163.626L231.121 140.415L217.509 128.073L221.338 114.699" fill="#31344D"/>
<path d="M240.085 119.24C241.508 128.096 244.794 136.241 244.886 145.247C244.978 154.253 245.475 167.088 241.707 175.003C235.651 187.72 207.918 210.311 196.958 217.61C193.392 212.943 188.996 208.903 185.431 204.236C191.269 196.81 209.054 171.61 213.948 163.346C209.984 150.898 208.117 137.783 208.875 124.565" fill="#3F4363"/>
<path d="M208.901 140.962C205.546 129.6 197.933 106.106 196.85 95.1302C196.066 87.1765 192.955 82.666 198.48 75.7338C201.449 72.0037 207.811 67.432 212.413 65.2896C217.015 63.1472 221.939 61.682 226.844 60.2703C228.718 59.7309 231.308 59.727 234.013 60.2779C237.253 60.936 242.682 61.7202 244.668 62.5734C247.809 63.92 250.823 68.1092 252.082 70.944C257.973 84.2307 264.443 112.954 266.478 127.997C257.132 131.054 231.281 137.982 208.901 140.962Z" fill="#51577D"/>
<path d="M214.3 59.0841L214.64 64.3636C214.843 65.6758 215.493 66.8159 216.553 67.5695C217.563 68.2926 218.722 68.7823 219.916 69.0386C221.565 69.3906 223.241 69.2834 224.855 68.9162C226.052 68.6446 227.246 68.2735 228.26 67.5695C229.668 66.5901 230.349 65.079 230.437 63.3345C230.486 62.3666 228.107 54.8682 228.107 54.8682" fill="#F0B398"/>
<path d="M204.039 52.0946C202.092 48.6285 198.542 44.229 198.071 40.2808C197.704 37.2088 197.834 34.0258 198.993 31.2904C200.152 28.555 202.379 26.3705 205.183 25.9841C205.179 24.4347 206.067 22.9771 207.368 22.3995C207.903 23.3674 208.875 24.056 209.896 24.1822C209.495 23.0613 209.881 21.7185 210.78 21.1025C211.197 22.7132 212.536 24.0483 214.051 24.362L221.002 27.7631L222.758 30.7242" fill="#3A3E4A"/>
<path d="M213.201 24.3162C214.697 22.8586 216.82 22.0667 218.905 22.1891C220.99 22.3115 223.006 23.3521 224.319 24.9742C226.419 25.659 227.98 27.5642 228.917 29.5613C230.723 33.4099 230.826 38.0199 229.189 41.9451" fill="#3A3E4A"/>
<path d="M230.562 38.4368C230.233 36.0113 229.07 33.7197 227.291 31.9981C225.513 30.2766 223.125 29.1327 220.577 28.7769C216.84 28.2566 212.999 29.4081 209.479 30.9002C208.083 31.4931 206.698 32.1473 205.489 33.0426C204.28 33.9378 203.239 35.1008 202.723 36.4666C202.176 37.905 201.564 40.5716 201.701 42.0712C202.03 45.6062 203.431 47.9781 204.525 51.3448" fill="#3A3E4A"/>
<path d="M230.237 44.6231C230.65 48.1887 230.004 52.7834 227.613 55.7177C225.218 58.652 221.323 60.584 217.494 60.3927C213.951 60.2129 210.477 57.5043 208.4 54.8952C206.323 52.286 205.251 49.0533 204.716 45.7823C204.368 43.6437 204.234 41.4248 204.788 39.2824C205.81 35.3267 209.727 33.3258 213.909 32.2049C219.816 30.6249 224.782 32.1781 227.421 36.8722C228.714 39.1715 229.935 41.9949 230.241 44.6231H230.237Z" fill="#FDBDA1"/>
<path d="M227.98 40.461C228.229 39.0761 229.955 38.0622 231.454 38.2344C232.954 38.4066 234.105 39.5504 234.469 40.8741C234.829 42.1978 234.496 43.6593 233.857 44.96C232.724 47.2516 230.613 49.1836 228.099 50.2204" fill="#FDBDA1"/>
<path d="M232.43 40.0059C233.29 40.6563 233.738 42.11 233.547 43.4605C233.39 44.57 232.828 45.5608 232.101 46.1462C231.967 46.2533 231.825 46.0544 231.909 45.8784C232.254 45.163 232.544 44.4055 232.774 43.6136C232.923 43.1047 233.046 42.5577 232.977 42.0335C232.896 41.4061 232.537 40.9011 232.101 40.6678C231.665 40.4344 231.171 40.442 230.704 40.5874C230.417 40.6754 230.081 40.9011 230.054 41.299C230.035 41.5974 230.218 41.8537 230.425 41.9417C230.635 42.0297 230.861 41.9876 231.083 41.957C231.305 41.9226 231.534 41.8996 231.737 42.0144C231.833 42.068 231.925 42.1789 231.913 42.3243C231.898 42.5194 231.714 42.5959 231.569 42.6189C231.209 42.6763 230.842 42.7375 230.486 42.661C230.13 42.5844 229.786 42.3587 229.599 41.9532C229.182 41.0427 229.851 40.2508 230.444 39.9103C231.083 39.5468 231.833 39.566 232.418 40.0059H232.43Z" fill="#DEA58D"/>
<path d="M205.913 48.0699C204.873 47.1211 202.891 47.366 201.805 48.4142C200.718 49.4625 200.496 51.0731 201.017 52.3432C201.537 53.6134 202.688 54.5736 203.989 55.2163C206.281 56.3488 209.131 56.6013 211.759 55.8973" fill="#FDBDA1"/>
<path d="M202.103 50.4111C201.812 51.4517 202.344 52.8787 203.316 53.8313C204.115 54.6156 205.163 55.0632 206.093 55.0862C206.261 55.09 206.254 54.8451 206.082 54.7572C205.374 54.4014 204.681 53.9729 204.019 53.487C203.595 53.1733 203.163 52.8137 202.899 52.3546C202.581 51.8075 202.562 51.1878 202.761 50.7363C202.964 50.2849 203.365 49.9941 203.824 49.8258C204.107 49.7225 204.509 49.6957 204.773 49.998C204.972 50.2237 204.98 50.5374 204.869 50.7363C204.758 50.9314 204.551 51.0386 204.356 51.1495C204.161 51.2566 203.962 51.379 203.874 51.5933C203.832 51.6928 203.824 51.8381 203.92 51.9453C204.05 52.0906 204.241 52.0371 204.371 51.9682C204.693 51.796 205.022 51.6201 205.255 51.3446C205.492 51.0692 205.63 50.6789 205.531 50.2428C205.313 49.2673 204.299 49.0454 203.618 49.1334C202.891 49.229 202.306 49.7034 202.107 50.4111H202.103Z" fill="#DEA58D"/>
<path d="M221.89 31.853C222.838 32.9127 223.787 33.9725 224.736 35.0322C225.314 35.6787 225.895 36.3291 226.354 37.0675C226.974 38.066 227.349 39.206 227.969 40.2046C228.053 40.3423 228.175 40.4915 228.336 40.4838C228.466 40.4762 228.566 40.3614 228.646 40.2581C229.174 39.581 229.706 38.9076 230.234 38.2305C229.572 36.6581 228.68 35.1852 227.598 33.8692" fill="#3A3E4A"/>
<path d="M222.673 31.0837C222.184 32.0708 221.239 32.8168 220.168 33.0693C219.804 33.1534 219.418 33.184 219.07 33.0501C218.722 32.9162 218.435 32.5872 218.435 32.2161C217.069 33.1458 215.512 33.7923 213.893 34.1137C213.454 34.2017 213.029 33.9071 212.945 33.4672L212.933 33.4059C212.011 34.4236 210.883 35.2538 209.635 35.8276C209.257 36.0036 208.821 35.7396 208.786 35.3264C208.052 35.8238 207.313 36.325 206.701 36.9639C206.089 37.6027 205.599 38.3947 205.481 39.2746C205.404 39.8255 205.473 40.3802 205.515 40.9349C205.676 43.02 205.347 45.4761 205.018 47.5419C203.797 45.5794 203.082 42.9664 203.059 40.6557C203.036 38.3449 203.874 35.9845 205.553 34.4006C206.789 33.2376 208.392 32.5528 209.987 31.9866C212.551 31.0761 215.202 30.4104 217.891 30.0049" fill="#3A3E4A"/>
<path d="M213.982 50.904C214.515 52.559 213.601 54.3319 211.946 54.8645C210.291 55.397 208.518 54.4836 207.986 52.8286C207.453 51.1736 208.367 49.4007 210.022 48.8681C211.677 48.3356 213.45 49.249 213.982 50.904Z" fill="#ED947E"/>
<path d="M229.875 44.2629C230.407 45.9179 229.494 47.6908 227.839 48.2234C226.184 48.7559 224.411 47.8425 223.878 46.1875C223.346 44.5325 224.259 42.7596 225.914 42.227C227.569 41.6945 229.342 42.6079 229.875 44.2629Z" fill="#ED947E"/>
<path d="M221.078 51.5555C221.254 51.4561 221.43 51.3642 221.618 51.2992C221.893 51.2036 221.87 51.6053 221.817 51.7659C221.752 51.9534 221.622 52.1141 221.522 52.2824C221.396 52.489 221.124 52.7338 220.937 52.8792C220.715 53.0514 220.432 53.1164 220.16 53.1815C219.785 53.2656 217.364 53.3995 217.96 52.4469C218.171 52.1103 218.959 52.2021 219.276 52.16C219.911 52.0758 220.527 51.8692 221.086 51.5594L221.078 51.5555Z" fill="#D9A28A"/>
<path d="M220.482 43.032C220.82 44.0778 221.391 44.895 222.357 44.5822C223.208 44.3085 223.309 43.2742 222.971 42.2283C222.633 41.1825 222.034 40.439 221.114 40.7346C220.286 41.0011 220.144 41.9836 220.482 43.0294L220.482 43.032Z" fill="#472A28"/>
<path d="M221.846 41.9982C221.9 42.1703 222.085 42.2645 222.26 42.2095C222.432 42.1553 222.526 41.9703 222.471 41.7956C222.417 41.6234 222.232 41.5292 222.057 41.5842C221.885 41.6384 221.791 41.8234 221.846 41.9982Z" fill="#FDBFB0"/>
<path d="M211.594 46.1868C211.932 47.2326 212.502 48.0498 213.468 47.737C214.319 47.4632 214.42 46.429 214.082 45.3831C213.744 44.3373 213.146 43.5938 212.225 43.8894C211.397 44.1559 211.255 45.1384 211.593 46.1842L211.594 46.1868Z" fill="#472A28"/>
<path d="M212.934 45.0699C212.988 45.2421 213.173 45.3363 213.347 45.2813C213.519 45.2271 213.614 45.0421 213.559 44.8674C213.504 44.6952 213.319 44.601 213.145 44.656C212.973 44.7102 212.879 44.8952 212.934 45.0699Z" fill="#FDBFB0"/>
<path d="M222.507 39.8575C222.328 39.914 222.121 39.8543 221.999 39.6925C221.817 39.4543 221.14 39.2147 220.57 39.2759C220.445 39.2891 220.144 39.3412 220.063 39.5244C219.955 39.7586 219.68 39.8616 219.448 39.7509C219.216 39.6402 219.112 39.3611 219.219 39.127C219.417 38.6871 219.86 38.4096 220.464 38.3441C221.225 38.2621 222.283 38.5295 222.732 39.1234C222.888 39.3304 222.851 39.6243 222.651 39.7794C222.607 39.8131 222.559 39.8378 222.509 39.8535L222.507 39.8575Z" fill="#734942"/>
<path d="M210.778 43.9522C210.738 43.9648 210.695 43.9685 210.649 43.9632C210.439 43.9374 210.263 43.7072 210.257 43.4564C210.239 42.7264 210.773 41.9542 211.301 41.6335C211.719 41.3768 212.144 41.3843 212.498 41.647C212.688 41.7876 212.765 42.0751 212.674 42.2877C212.583 42.5002 212.355 42.5558 212.166 42.4151C212.019 42.3036 211.801 42.4151 211.714 42.4687C211.319 42.7113 211.008 43.2593 211.018 43.5549C211.023 43.7534 210.923 43.9099 210.779 43.9552L210.778 43.9522Z" fill="#734942"/>
<path d="M221.06 53.7825C218.73 54.7865 216.54 52.8956 216.186 52.0248C216.138 51.9018 216.117 51.8109 216.142 51.7377C216.315 51.1366 217.258 51.4103 219.184 50.9194C221.11 50.4285 223.505 48.516 223.898 48.8776C223.932 48.9073 223.964 48.9542 223.993 48.9937C224.628 49.904 223.58 52.6847 221.065 53.7727L221.06 53.7825Z" fill="white"/>
<path d="M221.06 53.7823C218.73 54.7864 216.54 52.8955 216.186 52.0246C217.06 52.386 218.482 52.4807 220.08 51.9816C221.729 51.4659 223.25 50.0718 223.993 48.9935C224.628 49.9039 223.58 52.6846 221.065 53.7726L221.06 53.7823Z" fill="#D8424D"/>
<path d="M230.107 59.6314C236.879 55.2777 248.436 48.6095 252.32 41.7309C256.203 34.8484 258.36 25.0087 254.462 18.1377C257.756 17.8163 266.111 14.6448 267.156 14.4497C275.339 33.2072 267.672 54.6656 265.679 58.8739C261.761 67.1489 253.05 85.5429 245.437 92.1461" fill="#51577D"/>
<path d="M263.946 13.742C264.73 9.67528 261.96 4.22365 259.167 1.1669C258.57 0.512705 257.771 -0.126189 256.899 0.0268398C256.007 0.179868 255.472 1.07891 255.055 1.88231C254.653 1.33523 253.88 1.09421 253.237 1.31993C252.599 1.54182 252.139 2.21132 252.166 2.8923C251.504 2.37965 250.517 2.33374 249.81 2.78518C249.106 3.23661 248.731 4.15478 248.922 4.96966C248.635 4.73629 248.272 4.99261 247.95 5.17625C247.602 5.37136 247.35 5.76158 247.346 6.12885C247.338 7.16944 247.61 8.30951 248.038 9.25446C247.579 9.05552 247.212 9.55286 246.956 9.98517C246.669 10.4672 246.615 10.823 246.814 11.2821C247.166 12.0893 247.981 13.061 248.605 13.6808C249.764 14.8285 251.535 15.0122 253.157 15.1346C253.941 15.7046 254.232 16.4697 254.431 17.4147" fill="#FDBDA1"/>
<path d="M255.518 13.7801C255.392 13.7801 255.273 13.7189 255.197 13.608L254.083 11.9132C254.011 11.806 253.999 11.6683 254.053 11.5497C254.106 11.4311 254.213 11.347 254.34 11.324C254.917 11.2284 255.415 10.6966 255.472 10.1151C255.529 9.53357 255.147 8.91381 254.6 8.70339C254.16 8.53506 253.636 8.59627 253.134 8.66896C251.7 8.8832 250.273 9.22369 248.896 9.67895C248.697 9.74781 248.479 9.63687 248.414 9.43793C248.349 9.23899 248.456 9.02093 248.655 8.95589C250.074 8.48533 251.543 8.13336 253.02 7.9153C253.594 7.83113 254.259 7.75844 254.868 7.99181C255.736 8.32465 256.317 9.2696 256.226 10.1916C256.153 10.93 255.652 11.5956 254.99 11.9132L255.832 13.1871C255.946 13.3631 255.897 13.6003 255.721 13.7151C255.656 13.7572 255.583 13.7763 255.51 13.7763L255.518 13.7801Z" fill="#DEA58D"/>
<path d="M255.177 8.27877C255.036 8.27877 254.89 8.26346 254.745 8.22521C254.179 8.08748 253.651 7.68961 253.268 7.10427C252.943 6.61075 252.748 6.04838 252.576 5.54721L251.983 3.82946C251.914 3.63053 252.021 3.41246 252.22 3.3436C252.419 3.27473 252.637 3.38185 252.706 3.58079L253.299 5.29854C253.463 5.77675 253.636 6.27027 253.907 6.68344C254.186 7.10427 254.546 7.38737 254.925 7.48302C255.315 7.57866 255.751 7.43328 255.931 7.14253C256.122 6.83647 256.072 6.38886 255.996 5.99482C255.763 4.76294 255.319 3.58844 254.68 2.50959C254.573 2.32596 254.634 2.09259 254.814 1.98547C254.994 1.87835 255.231 1.93956 255.338 2.11937C256.023 3.27473 256.497 4.53339 256.746 5.85326C256.841 6.36208 256.91 7.01628 256.577 7.55188C256.291 8.01097 255.751 8.28259 255.177 8.28259V8.27877Z" fill="#DEA58D"/>
<path d="M250.969 8.83362C250.87 8.83362 250.766 8.79537 250.694 8.71503C249.734 7.70504 249.049 6.39282 248.769 5.02704C248.727 4.82045 248.861 4.61769 249.068 4.57561C249.274 4.53352 249.477 4.66742 249.519 4.87401C249.772 6.10206 250.384 7.28038 251.249 8.1909C251.394 8.34393 251.386 8.58495 251.233 8.73033C251.161 8.79919 251.065 8.83745 250.969 8.83745V8.83362Z" fill="#DEA58D"/>
<path d="M258.475 7.19259C258.165 7.19259 257.844 7.0893 257.557 6.89419C257.216 6.66465 256.971 6.34329 256.757 6.02958C256.65 5.87655 256.543 5.72352 256.432 5.56667C255.824 4.70588 255.196 3.81449 254.886 2.82363C254.821 2.62087 254.936 2.40663 255.139 2.34542C255.338 2.28421 255.556 2.39515 255.617 2.59792C255.893 3.474 256.486 4.31566 257.059 5.12671C257.17 5.28356 257.281 5.44042 257.388 5.59727C257.587 5.88803 257.767 6.11374 257.989 6.26677C258.207 6.41598 258.456 6.46571 258.643 6.4045C258.804 6.35094 258.949 6.20556 259.041 6.01045C259.125 5.83064 259.175 5.60875 259.198 5.29122C259.24 4.67145 259.175 4.05551 258.995 3.46253C258.934 3.25976 259.049 3.04552 259.252 2.98814C259.45 2.92693 259.669 3.0417 259.726 3.24446C259.929 3.92544 260.009 4.63319 259.959 5.34478C259.94 5.62405 259.894 5.99132 259.73 6.33946C259.546 6.72203 259.236 7.01279 258.884 7.13138C258.754 7.17729 258.616 7.19642 258.475 7.19642V7.19259Z" fill="#DEA58D"/>
<path d="M266.519 12.7913L253.308 16.4327C253.115 16.4861 253.001 16.6862 253.055 16.8797L253.782 19.5204C253.836 19.7139 254.036 19.8275 254.229 19.7742L267.44 16.1328C267.634 16.0795 267.748 15.8794 267.694 15.6858L266.966 13.0451C266.913 12.8516 266.713 12.738 266.519 12.7913Z" fill="white"/>
<path d="M236.921 105.058C236.764 105.058 236.607 104.993 236.496 104.867L214.005 79.9462C213.89 79.8199 213.841 79.6478 213.864 79.4794L214.548 74.6743L209.051 72.6238C208.798 72.5281 208.645 72.268 208.684 72.0002L209.433 66.954C209.479 66.6403 209.77 66.4261 210.084 66.472C210.397 66.5179 210.612 66.8087 210.566 67.1224L209.885 71.7094L215.379 73.76C215.631 73.8556 215.784 74.112 215.746 74.3798L215.034 79.3761L237.346 104.098C237.56 104.331 237.541 104.695 237.304 104.909C237.193 105.008 237.055 105.058 236.921 105.058Z" fill="#65699C"/>
<path d="M217.517 133.269C216.886 133.269 216.27 133.089 215.73 132.741C214.984 132.263 214.472 131.52 214.284 130.656L211.874 119.523C211.805 119.213 212.004 118.907 212.314 118.842L227.659 115.518C227.969 115.449 228.275 115.648 228.34 115.957L230.75 127.09C230.937 127.955 230.777 128.842 230.299 129.589C229.82 130.335 229.078 130.847 228.214 131.035L218.228 133.196C217.991 133.246 217.754 133.273 217.521 133.273L217.517 133.269ZM213.114 119.837L215.405 130.411C215.528 130.977 215.864 131.463 216.35 131.773C216.836 132.087 217.417 132.19 217.984 132.068L227.969 129.906C228.535 129.784 229.021 129.447 229.335 128.961C229.648 128.475 229.752 127.894 229.629 127.328L227.338 116.753L213.114 119.833V119.837Z" fill="#65699C"/>
<path d="M214.491 62.0605L210.818 66.0661L222.839 74.3028L225.708 68.7249C225.708 68.7249 216.098 66.3759 215.176 64.7271C214.254 63.0744 214.487 62.0644 214.487 62.0644L214.491 62.0605Z" fill="white"/>
<path d="M225.712 68.7251L232.254 71.2195L232.613 57.8945L229.358 58.7515C229.358 58.7515 230.096 65.4656 225.808 68.6295" fill="white"/>
<path d="M222.842 74.303L238.072 103.903L232.253 71.2156L225.711 68.7251L222.842 74.303Z" fill="#E6E5E1"/>
<path d="M223.699 72.6312L226.396 75.4584L230.436 74.2073L230.107 70.4008L225.712 68.7251L223.699 72.6312Z" fill="#E37725"/>
<path d="M226.396 75.4585L229.866 87.9571L238.26 104.438L234.989 86.5837L230.436 74.2075L226.396 75.4585Z" fill="#D15F22"/>
<path d="M208.3 67.5508L200.725 73.2128L200.48 106.431L208.3 67.5508Z" fill="#232B2B"/>
<path d="M199.773 83.8022L199.391 122.564L200.064 125.17L202.061 87.5782" fill="#374B73"/>
<path d="M231.087 82.6318L227.609 83.8789L229.427 85.6388V125.166C229.427 125.166 230.417 122.243 231.665 121.455L231.083 82.6279L231.087 82.6318Z" fill="#BABABA"/>
<path d="M229.426 85.6426H200.063V125.17H229.426V85.6426Z" fill="#5270AB"/>
<path d="M200.064 85.6427C200.064 85.6427 199.008 83.9632 200.924 82.6318H231.086C231.086 82.6318 228.967 83.6877 229.426 85.6427H200.064Z" fill="white"/>
<path d="M221.84 100.165C222.969 98.9978 226.886 98.4125 228.405 97.8386C229.082 97.5823 229.939 97.4293 230.452 97.9381C230.827 98.3092 230.865 98.9175 230.689 99.4148C230.509 99.9083 230.153 100.318 229.805 100.712C231.412 101.255 232.774 102.483 233.478 104.025C233.646 104.392 233.776 104.775 233.857 105.169C233.994 105.873 233.96 106.599 233.925 107.315C233.86 108.642 233.791 109.97 233.726 111.297C233.673 112.334 233.619 113.382 233.294 114.366C232.9 115.555 232.108 116.608 231.071 117.311C229.694 118.249 227.992 118.547 226.339 118.754C222.326 119.263 218.263 119.385 214.227 119.125C212.658 119.025 210.918 118.777 209.923 117.56C209.185 116.657 209.035 115.425 208.913 114.266C208.657 111.822 208.4 109.373 208.148 106.929C208.014 105.635 207.907 104.224 208.63 103.141C209.426 101.951 210.967 101.553 212.375 101.293C215.501 100.708 218.668 100.333 221.844 100.172" fill="#FDBDA1"/>
<path d="M200.726 73.2129C190.855 80.6654 186.379 86.3198 180.063 96.9514C178.135 100.196 176.371 103.635 175.794 107.365C175.216 111.095 175.977 115.196 178.571 117.943C181.15 120.675 185.052 121.666 188.77 122.186C196.812 123.311 205.076 122.829 212.934 120.774C212.662 114.944 212.658 109.136 212.387 103.306C212.348 102.472 211.943 100.387 211.943 100.387C211.717 100.161 210.099 100.303 209.223 100.291C204.926 100.242 202.509 100.326 198.208 100.276C199.065 99.2583 198.048 98.103 198.905 97.0853L199.192 95.073V89.3268L197.371 84.7206" fill="#51577D"/>
<path d="M216.25 100.322H211.82V120.923H216.25V100.322Z" fill="white"/>
<path d="M254.63 51.3907C254.461 51.3907 254.297 51.318 254.182 51.1764L251.007 47.213C250.808 46.9643 250.85 46.6047 251.095 46.4058C251.343 46.2068 251.703 46.2489 251.902 46.4938L255.077 50.4572C255.276 50.7059 255.234 51.0655 254.989 51.2644C254.882 51.3486 254.756 51.3907 254.63 51.3907Z" fill="#65699C"/>
<path d="M239.239 103.604C239.239 103.604 239.216 103.604 239.205 103.604C238.887 103.585 238.646 103.314 238.665 103L240.616 69.0964L236.588 66.2003C236.397 66.0626 236.309 65.8216 236.366 65.5921L237.422 61.4985L234.254 58.9506C234.006 58.7517 233.967 58.3921 234.166 58.1434C234.365 57.8947 234.725 57.8565 234.973 58.0554L238.428 60.8367C238.604 60.9783 238.681 61.2078 238.623 61.4259L237.571 65.4964L241.538 68.3466C241.699 68.4613 241.787 68.6488 241.776 68.8439L239.809 103.061C239.79 103.367 239.538 103.6 239.235 103.6L239.239 103.604Z" fill="#65699C"/>
<path d="M244.553 132.756C244.289 132.756 244.055 132.576 243.994 132.308L238.187 106.558C238.118 106.248 238.313 105.942 238.619 105.873C238.933 105.804 239.235 105.999 239.304 106.305L245.111 132.056C245.18 132.366 244.985 132.672 244.679 132.741C244.637 132.748 244.595 132.756 244.553 132.756Z" fill="#65699C"/>
<path d="M259.454 123.383C258.666 123.383 257.89 123.173 257.19 122.763C256.149 122.151 255.411 121.172 255.112 120.005L252.997 111.745C252.958 111.596 252.981 111.439 253.058 111.309C253.134 111.179 253.264 111.083 253.41 111.045L261.562 108.975C261.869 108.899 262.182 109.082 262.259 109.392C262.335 109.698 262.152 110.012 261.846 110.089L254.252 112.017L256.222 119.718C256.444 120.586 256.995 121.317 257.767 121.772C258.54 122.228 259.447 122.35 260.315 122.12L264.156 121.107C264.462 121.026 264.776 121.21 264.856 121.516C264.937 121.822 264.753 122.136 264.447 122.216L260.606 123.23C260.223 123.329 259.833 123.383 259.451 123.383H259.454Z" fill="#65699C"/>
<path d="M190.951 100.8C190.633 100.8 190.377 100.544 190.377 100.23C190.377 99.9124 190.629 99.6561 190.947 99.6523L199.926 99.6025C200.24 99.6025 200.5 99.8589 200.5 100.173C200.5 100.49 200.247 100.746 199.93 100.75L190.951 100.8Z" fill="#565A85"/>
<path d="M233.956 57.137L257.61 86.9928L256 79.196L239.285 53.4834L233.956 57.137Z" fill="#232B2B"/>
<path d="M342.751 123.276C345.18 132.182 346.649 141.356 347.12 150.576C347.281 153.755 347.304 157.053 346.037 159.972C344.71 163.025 342.078 165.359 339.151 166.943C336.224 168.526 332.992 169.441 329.786 170.34C326.549 171.246 323.286 172.157 319.931 172.406C316.576 172.654 313.09 172.188 310.179 170.504C306.391 168.308 304.012 164.33 302.187 160.351C298.503 152.305 296.418 143.533 296.089 134.692" fill="#232B2B"/>
<path d="M296.33 106.638C287.742 107.567 277.508 111.818 270.369 116.688C268.391 118.034 266.486 119.542 265.047 121.455C263.609 123.368 262.668 125.736 262.825 128.123C263.047 131.463 265.403 134.386 268.303 136.05C271.207 137.714 274.596 138.307 277.929 138.613C289.494 139.684 301.33 137.657 311.878 132.798" fill="#E8E8E8"/>
<path d="M343.65 89.8315C348.195 91.4689 352.61 93.4736 356.837 95.8188C359.255 97.1616 361.658 98.6536 363.452 100.758C365.25 102.862 366.379 105.689 365.881 108.413C365.319 111.474 361.321 116.267 358.869 118.184C349.366 125.613 343.792 132.22 331.756 133.058C330.612 125.112 330.876 112.285 321.002 105.586C327.119 103.153 332.732 101.335 338.849 98.9023" fill="white"/>
<path d="M277.243 174.238C272.232 185.057 270.675 197.254 271.39 209.156C272.102 221.057 274.868 233.95 278.441 245.324C282.871 245.351 285.369 244.471 289.509 242.887C291.112 234.524 291.919 224.481 288.832 216.547C294.073 204.63 299.195 192.655 304.437 180.738" fill="#E6A68A"/>
<path d="M325.585 75.6421C328.378 83.4312 329.644 91.7636 329.296 100.031C322.831 102.786 315.565 103.386 308.702 101.864" fill="#404B52"/>
<path d="M299.383 73.1665C294.716 79.2762 290.048 85.382 285.377 91.4917C286.429 93.0411 287.795 94.2309 289.547 94.8889C290.66 93.7374 291.464 92.888 292.577 91.7365C291.777 93.0832 290.932 94.7129 290.132 96.0596C296.827 100.559 305.03 102.835 313.087 102.449" fill="#404B52"/>
<path d="M295.049 186.235C292.638 192.544 290.209 198.906 289.126 205.574C288.709 208.134 288.51 210.85 289.524 213.241C291.208 217.216 296.02 219.232 300.294 218.616C304.567 218 308.266 215.234 311.059 211.944C315.616 206.573 320.761 194.178 320.784 187.134" fill="#FDBDA1"/>
<path d="M277.469 161.472L263.023 183.171C263.023 183.171 304.946 201.428 320.218 196.538C320.218 196.538 328.895 172.203 329.067 158.511" fill="#424666"/>
<path d="M311.515 104.939C318.191 104.392 326.531 106.389 330.75 111.076C334.97 115.762 335.1 119.343 335.636 125.479C336.171 131.616 335.441 141.421 334.289 147.527C332.732 155.787 331.6 157.684 329.105 165.768C311.725 167.524 294.058 166.051 277.47 161.472C280.871 146.184 283.262 136.616 286.663 121.328C287.309 118.417 288.58 115.686 289.949 112.981C291.319 110.276 292.876 107.579 295.806 106.316C299.8 104.595 303.806 104.197 308.114 104.805" fill="#5270AB"/>
<path d="M317.842 98.6573L317.582 106.944C317.387 108.214 316.759 109.312 315.738 110.043C314.762 110.743 313.645 111.217 312.49 111.462C310.898 111.802 309.28 111.699 307.715 111.347C306.56 111.087 305.404 110.727 304.425 110.05C303.063 109.105 302.405 107.648 302.317 105.961C302.271 105.027 304.559 97.7812 304.559 97.7812" fill="#F0B398"/>
<path d="M324.694 89.8621C325.406 86.4304 327.212 81.786 326.554 78.3467C326.041 75.6687 324.144 72.4781 321.967 71.0243C313.041 65.06 306.423 68.0862 305.233 68.7518L303.951 73.951L303.267 76.9082" fill="#404B52"/>
<path d="M309.138 69.0236C307.493 68.1972 305.496 68.0977 303.778 68.7596C302.061 69.4214 300.645 70.8293 299.976 72.5471C298.396 73.6833 297.592 75.6994 297.336 77.6276C296.846 81.3424 297.99 85.2446 300.412 88.1024" fill="#404B52"/>
<path d="M300.052 90.2065C300.657 93.3091 302.558 98.053 305.355 99.8817C308.148 101.707 311.939 102.288 315.103 101.106C318.029 100.012 320.095 95.7499 321.14 93.0031C322.188 90.2562 322.226 87.253 321.802 84.3646C321.526 82.4747 319.269 80.8832 318.232 79.2343C316.319 76.1852 314.265 75.2403 310.455 75.4163C305.068 75.6649 301.315 78.297 300.351 82.9453C299.88 85.2216 299.609 87.9187 300.052 90.2103V90.2065Z" fill="#FDBDA1"/>
<path d="M301.17 86.4381C300.588 85.3401 298.875 84.9499 297.658 85.497C296.445 86.0402 295.78 87.3104 295.833 88.5193C295.883 89.7282 296.552 90.8683 297.44 91.7903C299.001 93.4162 301.292 94.4721 303.683 94.671" fill="#FDBDA1"/>
<path d="M297.314 87.2414C296.763 88.018 296.778 89.3608 297.298 90.4397C297.727 91.3311 298.461 92.012 299.23 92.3105C299.368 92.364 299.437 92.1574 299.318 92.035C298.836 91.5262 298.392 90.9676 297.987 90.3632C297.727 89.9768 297.478 89.5483 297.394 89.0892C297.295 88.5421 297.463 88.018 297.765 87.7081C298.067 87.3944 298.488 87.272 298.917 87.2682C299.184 87.2682 299.525 87.3676 299.651 87.6928C299.747 87.9377 299.663 88.2016 299.51 88.3317C299.357 88.4618 299.154 88.4886 298.959 88.5192C298.764 88.5498 298.565 88.5919 298.427 88.7449C298.362 88.8176 298.312 88.9362 298.362 89.051C298.427 89.2116 298.603 89.2231 298.729 89.2078C299.047 89.1619 299.372 89.1122 299.647 88.9553C299.923 88.7985 300.156 88.5153 300.206 88.1213C300.313 87.2452 299.54 86.7593 298.951 86.6331C298.32 86.4954 297.692 86.7134 297.317 87.2414H297.314Z" fill="#DEA58D"/>
<path d="M321.588 86.8281C322.208 85.7531 323.941 85.4279 325.131 86.017C326.324 86.6062 326.936 87.8993 326.841 89.1082C326.745 90.3133 326.034 91.4266 325.112 92.3142C323.489 93.8789 321.16 94.8506 318.765 94.9616" fill="#FDBDA1"/>
<path d="M325.413 87.7769C325.934 88.5727 325.869 89.9117 325.31 90.9752C324.847 91.8475 324.09 92.5017 323.309 92.7695C323.168 92.8192 323.11 92.6088 323.233 92.4902C323.73 92.0005 324.201 91.4573 324.625 90.8719C324.901 90.4932 325.165 90.08 325.264 89.6209C325.383 89.0777 325.237 88.5497 324.947 88.2245C324.656 87.8993 324.243 87.7616 323.81 87.7425C323.543 87.731 323.198 87.819 323.061 88.1404C322.953 88.3814 323.03 88.6492 323.179 88.7831C323.328 88.917 323.527 88.9514 323.722 88.9897C323.918 89.0279 324.116 89.0777 324.247 89.2345C324.308 89.3072 324.354 89.4296 324.3 89.5444C324.227 89.7013 324.055 89.7089 323.925 89.6859C323.608 89.6286 323.286 89.5673 323.015 89.399C322.743 89.2307 322.525 88.9399 322.491 88.5459C322.414 87.666 323.206 87.2107 323.803 87.1036C324.442 86.9926 325.058 87.2337 325.413 87.7731V87.7769Z" fill="#DEA58D"/>
<path d="M316.018 92.6074C316.014 94.1545 317.262 95.4125 318.809 95.4159C320.356 95.4193 321.614 94.1715 321.618 92.6244C321.621 91.0774 320.373 89.8193 318.826 89.8159C317.279 89.8125 316.021 91.0604 316.018 92.6074Z" fill="#ED947E"/>
<path d="M300.649 92.7524C300.646 94.2995 301.894 95.5575 303.441 95.5609C304.988 95.5643 306.246 94.3165 306.249 92.7694C306.253 91.2224 305.005 89.9643 303.458 89.9609C301.911 89.9575 300.653 91.2054 300.649 92.7524Z" fill="#ED947E"/>
<path d="M311.564 74.2878C310.757 74.7775 310.038 75.5886 310.057 76.5335C310.069 77.0844 310.352 77.62 310.795 77.9452C311.067 78.1441 311.396 78.2589 311.729 78.2857C311.939 78.301 312.023 78.565 311.859 78.6989C311.147 79.2842 310.264 79.6629 309.365 79.8733C308.236 80.1411 307.065 80.1641 305.906 80.1603C305.042 80.1564 304.135 80.122 303.389 79.6859C302.616 79.2345 302.126 78.3851 301.985 77.5014C301.847 76.6177 302.035 75.7071 302.39 74.8846C303.178 73.0674 304.823 71.6404 306.736 71.1201" fill="#404B52"/>
<path d="M314.657 88.0107C314.654 89.1097 314.944 90.0635 315.959 90.0652C316.853 90.0685 317.269 89.1161 317.271 88.0171C317.274 86.918 316.935 86.0257 315.968 86.0218C315.099 86.0188 314.659 86.9089 314.657 88.008L314.657 88.0107Z" fill="#472A28"/>
<path d="M316.273 87.45C316.271 87.6304 316.418 87.7773 316.601 87.7791C316.782 87.7808 316.928 87.6341 316.93 87.4509C316.932 87.2705 316.785 87.1236 316.602 87.1218C316.422 87.1201 316.275 87.2668 316.273 87.45Z" fill="#FDBFB0"/>
<path d="M305.229 88.2577C305.226 89.3568 305.516 90.3105 306.531 90.3123C307.425 90.3155 307.841 89.3632 307.844 88.2641C307.846 87.1651 307.507 86.2728 306.541 86.2689C305.671 86.2658 305.231 87.156 305.229 88.255L305.229 88.2577Z" fill="#472A28"/>
<path d="M306.848 87.6106C306.847 87.7911 306.993 87.938 307.176 87.9397C307.357 87.9415 307.504 87.7947 307.505 87.6116C307.507 87.4311 307.361 87.2842 307.177 87.2824C306.997 87.2807 306.85 87.4274 306.848 87.6106Z" fill="#FDBFB0"/>
<path d="M317.566 85.6195C317.377 85.6177 317.2 85.4969 317.133 85.3053C317.034 85.0225 316.464 84.5848 315.904 84.4667C315.781 84.4404 315.479 84.3968 315.344 84.5458C315.17 84.7352 314.876 84.748 314.69 84.5708C314.503 84.3937 314.491 84.096 314.665 83.9067C314.99 83.5497 315.497 83.4231 316.092 83.5478C316.84 83.7054 317.764 84.2874 318.007 84.9912C318.091 85.2362 317.965 85.5043 317.726 85.5897C317.674 85.608 317.621 85.6169 317.569 85.6164L317.566 85.6195Z" fill="#734942"/>
<path d="M305.145 85.8806C305.103 85.8802 305.061 85.8704 305.019 85.8512C304.827 85.7617 304.731 85.4882 304.803 85.2478C305.012 84.5482 305.758 83.9791 306.36 83.8377C306.837 83.7233 307.239 83.8618 307.494 84.2214C307.631 84.4137 307.616 84.7112 307.463 84.8851C307.311 85.059 307.077 85.0411 306.94 84.8487C306.835 84.6973 306.593 84.7357 306.494 84.7598C306.044 84.8682 305.578 85.2928 305.496 85.5771C305.44 85.7676 305.295 85.8852 305.145 85.8838L305.145 85.8806Z" fill="#734942"/>
<path d="M311.176 98.411C308.65 98.6441 307.154 96.1682 307.086 95.2305C307.079 95.0987 307.087 95.0058 307.134 94.9439C307.484 94.4258 308.296 94.9782 310.279 95.1077C312.262 95.2373 315.132 94.1606 315.394 94.6262C315.417 94.665 315.433 94.7193 315.448 94.7659C315.771 95.8283 313.912 98.1475 311.184 98.4033L311.176 98.411Z" fill="white"/>
<path d="M311.176 98.4109C308.65 98.644 307.154 96.1681 307.087 95.2303C307.805 95.8445 309.129 96.3751 310.802 96.3953C312.53 96.4156 314.408 95.5609 315.448 94.7657C315.771 95.8282 313.912 98.1474 311.184 98.4031L311.176 98.4109Z" fill="#D8424D"/>
<path d="M302.673 104.212L300.424 104.901L302.857 113.926L308.404 111.489C308.404 111.489 303.592 109.649 302.589 104.538" fill="white"/>
<path d="M308.404 111.485L312.372 115.189L320.681 105.663L317.762 104.197C317.762 104.197 315.111 110.942 308.806 111.409" fill="white"/>
<path d="M302.861 113.926L300.424 141.046L312.375 115.188L308.404 111.485L302.861 113.926Z" fill="#E6E5E1"/>
<path d="M278.131 256.697C280.35 255.603 282.565 254.505 284.784 253.411C285.419 253.097 286.065 252.776 286.616 252.332C287.267 251.808 287.76 251.131 288.277 250.481C289.891 248.445 291.785 246.617 293.874 245.04C292.776 243.181 291.532 241.444 290.056 239.727L278.441 245.327C274.056 252.084 273.05 253.308 271.126 256.124C270.575 256.931 270.357 257.945 270.418 258.897C270.433 259.119 270.479 259.345 270.552 259.559C270.839 259.551 271.134 259.505 271.401 259.437C273.754 258.855 275.954 257.772 278.131 256.697Z" fill="white"/>
<path d="M288.276 250.481C287.76 251.131 287.266 251.808 286.616 252.332C286.065 252.776 285.422 253.097 284.783 253.411C282.564 254.505 280.349 255.603 278.13 256.697C275.954 257.772 273.754 258.855 271.401 259.437C271.133 259.502 270.839 259.551 270.552 259.559C270.785 260.259 271.305 260.856 272.032 261.017C272.667 261.154 273.337 260.948 273.964 260.734C281.47 258.193 288.678 254.735 295.358 250.473C295.599 250.32 295.851 250.148 295.97 249.895C296.142 249.524 295.974 249.107 295.805 248.744C295.205 247.443 294.566 246.219 293.873 245.041C291.781 246.617 289.891 248.445 288.276 250.481Z" fill="#6B6B6B"/>
<path d="M279.255 253.377C279.079 253.457 278.873 253.476 278.678 253.407C278.394 253.312 278.069 253.162 277.725 253.006C276.983 252.669 275.743 252.091 275.227 252.374C274.859 252.573 274.4 252.447 274.209 252.095C274.018 251.743 274.159 251.296 274.53 251.093C275.736 250.454 277.212 251.123 278.406 251.667C278.716 251.808 279.01 251.942 279.225 252.015C279.615 252.149 279.81 252.566 279.657 252.948C279.58 253.139 279.435 253.289 279.255 253.369V253.377Z" fill="#B8B8B8"/>
<path d="M280.847 250.656C280.671 250.737 280.464 250.756 280.269 250.687C279.986 250.591 279.661 250.442 279.317 250.285C278.574 249.945 277.316 249.386 276.818 249.654C276.444 249.857 275.992 249.731 275.797 249.375C275.606 249.023 275.747 248.575 276.118 248.373C277.32 247.734 278.8 248.403 279.994 248.946C280.304 249.088 280.594 249.222 280.813 249.295C281.203 249.428 281.398 249.845 281.245 250.228C281.168 250.419 281.023 250.568 280.843 250.649L280.847 250.656Z" fill="#B8B8B8"/>
<path d="M311.384 111.986C312.558 111.909 313.752 111.841 314.899 112.101C316.047 112.365 317.16 113.004 317.727 114.04C318.155 114.825 318.224 115.796 317.914 116.634C317.604 117.472 316.919 118.164 316.085 118.482C315.73 118.616 315.286 118.754 315.213 119.129C315.144 119.473 315.45 119.76 315.649 120.047C316.246 120.911 315.867 122.216 314.999 122.809C314.13 123.402 312.937 123.356 311.984 122.908C311.032 122.461 310.286 121.669 309.662 120.823C308.178 118.815 307.244 116.401 306.992 113.914C306.953 113.528 306.93 113.134 307.03 112.759C307.298 111.756 307.925 111.974 308.732 112.04C309.616 112.112 310.504 112.047 311.384 111.99V111.986Z" fill="#E37725"/>
<path d="M303.931 111.141C302.803 110.8 301.655 110.467 300.477 110.463C299.299 110.463 298.07 110.838 297.29 111.718C296.697 112.388 296.41 113.317 296.525 114.201C296.64 115.089 297.152 115.915 297.894 116.409C298.208 116.619 298.61 116.852 298.598 117.231C298.587 117.583 298.224 117.793 297.967 118.031C297.191 118.742 297.267 120.097 297.982 120.869C298.698 121.642 299.869 121.864 300.898 121.642C301.927 121.42 302.83 120.812 303.629 120.131C305.527 118.505 306.977 116.363 307.78 113.995C307.903 113.627 308.013 113.249 308.002 112.862C307.964 111.825 307.306 111.894 306.506 111.779C305.63 111.653 304.781 111.393 303.935 111.137L303.931 111.141Z" fill="#D15F22"/>
<path d="M309.111 114.358C308.618 115.207 307.531 115.494 306.682 115.001C305.833 114.507 305.546 113.42 306.039 112.571C306.533 111.722 307.619 111.435 308.469 111.928C309.318 112.422 309.605 113.508 309.111 114.358Z" fill="#FF862A"/>
<path d="M337.3 91.6103C336.206 88.8213 335.314 85.9482 334.645 83.0254C334.427 82.0766 334.304 80.8983 335.073 80.3015C335.593 79.8959 336.359 79.9418 336.94 80.2555C337.518 80.5693 337.946 81.101 338.317 81.6443C339.737 83.7063 340.647 86.1204 340.942 88.6071" fill="#FDBDA1"/>
<path d="M334.824 88.2248C334.231 88.4926 333.684 88.8943 333.355 89.4528C333.026 90.0114 332.946 90.7382 333.248 91.3121C333.554 91.886 334.281 92.2303 334.889 92.0046C334.093 92.345 333.565 93.2211 333.638 94.0819C333.711 94.9427 334.376 95.7193 335.218 95.9221C334.786 96.1975 334.518 96.714 334.549 97.2267C334.579 97.7393 334.904 98.2252 335.367 98.4432C335.643 98.5733 336.006 98.6651 336.079 98.9635C336.14 99.2007 335.968 99.4303 335.914 99.6713C335.834 100.039 336.052 100.421 336.358 100.643C336.664 100.865 337.039 100.957 337.41 101.037C338.485 101.278 339.595 101.466 340.689 101.335C341.783 101.205 342.877 100.716 343.524 99.8243C344.044 99.1089 344.235 98.206 344.342 97.3261C344.717 94.277 344.262 91.1323 343.034 88.3166C342.648 87.429 342.12 86.5108 341.232 86.1244C340.509 85.8069 339.656 85.9064 338.925 86.2163C338.183 86.53 337.617 87.0847 336.928 87.4749C336.278 87.8422 335.505 87.911 334.828 88.2171L334.824 88.2248Z" fill="#FDBDA1"/>
<path d="M283.097 113.119C283.323 110.131 283.327 107.124 283.109 104.132C283.04 103.16 282.807 102.001 281.896 101.653C281.28 101.42 280.561 101.688 280.098 102.158C279.635 102.629 279.386 103.264 279.191 103.891C278.442 106.282 278.281 108.853 278.732 111.317" fill="#FDBDA1"/>
<path d="M320.685 105.662L328.569 103.218C328.569 103.218 335.949 111.083 335.777 129.16" fill="#5270AB"/>
<path d="M323.523 104.729L335.777 132.649C335.777 132.649 331.837 108.734 329.342 102.529L323.523 104.729Z" fill="#232B2B"/>
<path d="M299.528 105.084L284.597 130.472C284.597 130.472 285.924 115.869 293.874 106.638L299.528 105.084Z" fill="#232B2B"/>
<path d="M284.466 109.155C285.109 109.235 285.752 109.457 286.234 109.893C286.712 110.329 287.007 111.003 286.88 111.638C286.758 112.273 286.161 112.82 285.515 112.786C286.375 112.877 287.137 113.558 287.32 114.404C287.504 115.249 287.095 116.187 286.353 116.627C286.846 116.76 287.255 117.177 287.378 117.679C287.5 118.176 287.332 118.735 286.953 119.083C286.727 119.289 286.41 119.484 286.425 119.787C286.437 120.031 286.67 120.2 286.792 120.414C286.976 120.743 286.88 121.171 286.655 121.474C286.429 121.776 286.096 121.975 285.767 122.162C284.811 122.709 283.808 123.214 282.722 123.413C281.639 123.612 280.449 123.467 279.566 122.805C278.858 122.273 278.41 121.466 278.047 120.659C276.788 117.858 276.302 114.718 276.647 111.665C276.758 110.701 276.991 109.671 277.726 109.036C278.326 108.52 279.168 108.367 279.956 108.443C280.759 108.524 281.459 108.887 282.236 109.059C282.967 109.22 283.724 109.059 284.463 109.151L284.466 109.155Z" fill="#FDBDA1"/>
<path d="M87.3086 172.98L76.589 170.363C76.1758 170.264 75.7244 170.371 75.4451 170.688C74.9133 171.3 75.4757 172.069 76.0304 172.536C77.2508 173.573 78.6625 174.384 80.1737 174.923L71.562 174.013C70.487 173.898 69.8022 175.206 70.5635 175.975C70.5673 175.979 70.575 175.987 70.5788 175.991C71.1335 176.542 71.9255 176.771 72.6753 176.981C75.3112 177.716 77.9471 178.451 80.583 179.185C77.4536 179.556 74.3242 179.923 71.1947 180.295C70.3187 180.398 69.4081 180.513 68.731 181.14C68.3561 181.484 68.6009 183.11 71.0455 183.447C75.074 184.002 76.4857 183.784 82.7675 184.698C82.1898 185.406 80.2999 185.452 79.3932 185.586C78.2914 185.746 75.6479 186.267 74.8062 187.104C74.3165 187.594 74.1138 188.336 74.4236 188.952C74.9248 189.943 78.6625 189.618 79.7184 189.419C80.9274 189.189 84.4623 188.524 90.373 187.41C91.3218 187.231 92.2974 187.051 93.2461 187.234C94.1949 187.418 95.1207 188.049 95.3618 188.987C95.5492 189.721 95.2929 190.486 95.1514 191.232C94.9907 192.089 95.0442 193.13 95.9165 193.543C96.4177 193.78 97.0106 193.685 97.4697 193.382C98.3688 192.786 98.6672 191.749 98.935 190.766C99.9335 187.093 100.932 183.42 101.931 179.744" fill="#FDBDA1"/>
<path d="M206.212 156.315L279.44 217.874L263.617 235.297L171.758 179.912" fill="#25283B"/>
<path d="M288.319 223.938C286.28 226.096 284.241 228.25 282.202 230.408C281.616 231.027 281.023 231.651 280.331 232.133C279.516 232.703 278.598 233.051 277.699 233.43C274.887 234.616 272.19 236.177 269.688 238.044C268.127 236.234 267.056 234.738 265.797 232.546L276.945 220.476C285.886 217.634 286.674 217.174 290.434 215.885C291.513 215.514 292.684 215.583 293.679 215.946C293.912 216.031 294.134 216.153 294.337 216.302C294.214 216.624 294.05 216.941 293.874 217.22C292.336 219.688 290.316 221.827 288.315 223.946L288.319 223.938Z" fill="#4D3930"/>
<path d="M277.703 233.43C278.598 233.051 279.52 232.703 280.335 232.133C281.027 231.651 281.62 231.023 282.206 230.407C284.245 228.25 286.284 226.096 288.323 223.938C290.324 221.823 292.344 219.684 293.882 217.213C294.058 216.933 294.222 216.616 294.345 216.294C295.003 216.773 295.439 217.542 295.328 218.41C295.228 219.171 294.742 219.856 294.272 220.499C288.617 228.162 282.102 235.197 274.933 241.395C274.673 241.617 274.393 241.85 274.076 241.904C273.613 241.98 273.23 241.663 272.909 241.364C271.754 240.289 270.69 239.191 269.703 238.04C272.205 236.177 274.902 234.612 277.714 233.426L277.703 233.43Z" fill="#949494"/>
<path d="M284.329 224.176C284.486 224.003 284.585 223.778 284.589 223.537C284.597 223.185 284.566 222.775 284.532 222.339C284.459 221.398 284.329 219.83 284.834 219.332C285.19 218.98 285.236 218.426 284.933 218.1C284.631 217.775 284.096 217.798 283.736 218.15C282.584 219.305 282.722 221.176 282.837 222.691C282.868 223.085 282.894 223.456 282.891 223.72C282.879 224.199 283.254 224.547 283.721 224.497C283.954 224.474 284.172 224.352 284.329 224.176Z" fill="white"/>
<path d="M280.79 225.124C280.947 224.952 281.046 224.723 281.05 224.485C281.058 224.134 281.027 223.724 280.993 223.288C280.92 222.347 280.809 220.755 281.295 220.281C281.658 219.921 281.697 219.374 281.394 219.049C281.092 218.724 280.557 218.747 280.197 219.099C279.045 220.254 279.183 222.125 279.298 223.64C279.329 224.03 279.355 224.401 279.351 224.669C279.34 225.147 279.715 225.495 280.182 225.446C280.415 225.423 280.633 225.3 280.79 225.124Z" fill="white"/>
<path d="M193.645 167.738C196.648 180.375 196.732 196.37 194.119 209.094C190.454 226.956 166.516 251.414 159.068 268.06C151.298 268.867 142.066 267.773 134.641 265.34C135.96 254.215 154.718 222.037 160.07 212.193C154.695 199.465 149.477 196.351 151.064 182.624" fill="#31344D"/>
<path d="M237.419 78.6452C243.536 75.3092 256.019 70.0527 262.867 67.8108C263.892 67.4742 265.243 67.2025 265.962 67.8682C266.678 68.5301 266.142 69.5592 265.515 70.2899C263.98 72.0841 262.014 73.645 259.757 74.8616C260.683 75.2404 261.628 75.6268 262.358 76.2159C262.898 76.6482 262.718 77.6429 262.366 78.2053C262.014 78.7677 261.318 79.1617 260.576 79.2191C261.662 79.4754 262.45 80.6576 262.343 81.6178C262.236 82.5781 261.245 83.4197 260.12 83.5077C261.012 83.8329 261.214 85.0457 260.92 85.8414C260.629 86.6333 259.864 87.2378 259.057 87.7045C257.565 88.5615 238.539 94.7706 236.749 94.8701" fill="#FDBDA1"/>
<path d="M177.179 96.4845L239.163 77.6084L242.35 92.8959C242.35 92.8959 205.982 115.957 190.875 122.453" fill="#424666"/>
<path d="M167.637 55.9167C165.353 52.8485 161.183 51.5477 157.4 52.091C153.612 52.6342 150.211 54.7996 147.51 57.5082C144.809 60.2168 142.728 63.4686 140.67 66.6899C136.913 72.57 133.156 78.4501 129.395 84.3264C128.986 84.9691 128.565 85.6386 128.454 86.3923C128.205 88.0756 129.529 89.5562 130.822 90.6618C139.392 98.0033 150.75 101.137 161.864 103.107C164.863 103.639 168.161 104.048 170.774 102.483C173.131 101.072 178.414 100.088 179.371 97.5137C182.798 88.2899 180.465 76.7247 180.369 66.885" fill="#3A3E4A"/>
<path d="M158.945 96.7295C151.928 97.4679 144.583 102.732 139.514 107.637C134.441 112.541 131.074 119.171 130.103 126.161C128.936 134.566 131.752 140.932 134.28 149.031C135.7 153.576 139.46 155.825 140.83 163.033C142.563 172.138 143.301 184.04 144.346 191.867C168.345 190.987 211.958 160.917 211.958 160.917C206.047 154.563 205.756 154.425 201.739 143.621C197.129 131.218 195.182 118.016 193.258 104.924C193.258 104.924 185.752 97.6515 174.282 97.6438" fill="#424666"/>
<path d="M179.784 98.2059C179.784 98.2059 192.21 114.802 197.218 127.951L195.071 116.711L184.176 94.4414L178.051 96.1706" fill="#232B2B"/>
<path d="M176.153 90.3062C176.153 90.3062 177.668 101.328 177.504 102.284C177.202 104.01 176.337 105.429 174.814 106.229C173.72 106.803 172.484 107.025 171.26 107.147C169.604 107.315 167.924 107.216 166.325 106.665C165.17 106.267 164.076 105.636 163.157 104.79C162.197 103.907 161.688 102.698 161.65 101.366L161.401 92.2687" fill="#F0B398"/>
<path d="M161.47 96.2627L156.264 97.0278L166.486 111.298L172.462 107.009C172.462 107.009 162.92 104.366 161.895 98.3936" fill="white"/>
<path d="M172.454 107.005L179.478 108.046L180.018 95.6235L176.643 95.8837C176.643 95.8837 177.156 105.207 172.458 107.009L172.454 107.005Z" fill="white"/>
<path d="M151.045 83.4273C149.446 79.3835 146.217 74.0963 146.335 69.7542C146.427 66.3761 147.093 62.9444 148.826 60.1516C150.559 57.3589 157.238 51.4787 166.68 54.8645L173.85 59.5701L175.319 63.0362" fill="#3A3E4A"/>
<path d="M165.318 55.5072C167.143 54.1682 169.538 53.6441 171.757 54.0917C173.972 54.5393 175.977 55.9586 177.136 57.8982C179.282 58.9503 180.667 61.2266 181.371 63.5106C182.725 67.9101 182.136 72.8683 179.787 76.824" fill="#3A3E4A"/>
<path d="M180.84 72.9757C180.855 70.3245 179.952 67.6962 178.307 65.5806C176.662 63.465 174.275 61.8773 171.601 61.1122C167.675 59.9874 163.383 60.6416 159.385 61.7051C157.797 62.1298 156.217 62.6195 154.783 63.3999C153.348 64.1804 152.059 65.2669 151.297 66.6518C150.494 68.1094 149.434 70.8754 149.354 72.5051C149.174 76.3423 150.31 79.1006 150.976 82.8728" fill="#3A3E4A"/>
<path d="M179.428 80.5772C181.184 85.7419 177.902 91.6909 173.456 93.6305C169.608 95.31 167.691 95.9757 163.59 95.0613C159.798 94.2158 156.256 92.1729 154.37 88.7757C152.484 85.3785 152.503 81.4112 152.369 77.5319C152.281 74.9955 152.442 72.4016 153.325 70.022C154.963 65.6301 159.454 64.0157 164.11 63.4763C170.69 62.7149 175.828 65.4082 178.036 71.3151C179.118 74.2074 178.43 77.6429 179.428 80.5772Z" fill="#FDBDA1"/>
<path d="M177.308 75.1063C177.787 73.6602 179.787 72.8338 181.367 73.247C182.947 73.6563 184.011 75.0604 184.198 76.5333C184.382 78.01 183.808 79.525 182.921 80.8219C181.36 83.1097 178.804 84.858 175.95 85.5887" fill="#FDBDA1"/>
<path d="M182.262 74.6432C183.123 75.5078 183.395 77.2102 182.966 78.6908C182.614 79.9074 181.83 80.9327 180.923 81.4721C180.759 81.5716 180.633 81.3229 180.755 81.1431C181.256 80.3971 181.7 79.5898 182.083 78.7444C182.327 78.1973 182.557 77.6043 182.561 77.0075C182.568 76.2921 182.247 75.6685 181.796 75.3356C181.348 75.0028 180.79 74.9378 180.242 75.0258C179.906 75.0793 179.493 75.2783 179.401 75.722C179.332 76.0549 179.496 76.3686 179.718 76.5025C179.94 76.6364 180.2 76.6249 180.453 76.6211C180.705 76.6211 180.969 76.6287 181.176 76.7894C181.275 76.8659 181.36 77.0037 181.325 77.1643C181.275 77.3824 181.057 77.436 180.893 77.4398C180.48 77.4474 180.059 77.4589 179.676 77.3174C179.29 77.1758 178.938 76.8659 178.793 76.3801C178.467 75.2936 179.343 74.5131 180.063 74.2262C180.835 73.9163 181.673 74.0617 182.262 74.647V74.6432Z" fill="#DEA58D"/>
<path d="M152.961 79.5712C151.99 78.3967 149.828 78.3585 148.504 79.3149C147.181 80.2751 146.702 81.9661 147.066 83.4084C147.429 84.8507 148.52 86.052 149.817 86.9395C152.101 88.5043 155.119 89.2005 158.046 88.8447" fill="#FDBDA1"/>
<path d="M148.524 81.4995C148.057 82.5707 148.409 84.1814 149.304 85.3482C150.043 86.3123 151.099 86.9474 152.093 87.1119C152.273 87.1425 152.304 86.8785 152.128 86.7599C151.424 86.2702 150.747 85.7078 150.108 85.0842C149.698 84.6825 149.289 84.2349 149.075 83.7031C148.818 83.0681 148.891 82.3986 149.174 81.9471C149.457 81.4957 149.932 81.2432 150.452 81.1323C150.773 81.0634 151.206 81.0978 151.443 81.4575C151.619 81.7291 151.584 82.0696 151.431 82.2609C151.282 82.456 151.045 82.5363 150.819 82.6243C150.594 82.7123 150.36 82.8118 150.234 83.026C150.173 83.1293 150.146 83.2823 150.234 83.4124C150.353 83.5884 150.567 83.5616 150.716 83.508C151.087 83.3741 151.466 83.2326 151.76 82.9763C152.055 82.7161 152.262 82.3182 152.223 81.8362C152.135 80.7574 151.083 80.3633 150.341 80.3595C149.545 80.3518 148.849 80.7727 148.528 81.4995H148.524Z" fill="#DEA58D"/>
<path d="M172.546 64.6089C173.403 65.8867 174.256 67.1683 175.113 68.4461C175.637 69.2265 176.161 70.0108 176.54 70.8716C177.053 72.0384 177.282 73.3124 177.795 74.4792C177.867 74.6399 177.971 74.8197 178.147 74.835C178.288 74.8465 178.411 74.7394 178.514 74.6399C179.184 73.9972 179.853 73.3545 180.523 72.7079C180.052 70.9251 179.317 69.2074 178.357 67.635" fill="#3A3E4A"/>
<path d="M185.342 142.114L184.646 141.203L184.99 141.663L184.42 141.601C184.462 141.131 185.419 122.989 185.935 113.226L182.522 109.917C182.389 109.787 182.324 109.595 182.354 109.408L183.169 104.58C183.223 104.266 183.521 104.056 183.831 104.109C184.145 104.163 184.355 104.458 184.301 104.771L183.536 109.301L186.918 112.583C187.037 112.698 187.102 112.859 187.09 113.027C187.09 113.027 186.715 120.189 186.333 127.354C186.142 130.935 185.954 134.52 185.809 137.209C185.736 138.552 185.675 139.673 185.633 140.461C185.577 141.459 185.478 142.011 185.338 142.118L185.342 142.114Z" fill="#565A85"/>
<path d="M160.79 85.1062C161.119 87.0096 159.839 88.8195 157.935 89.1482C156.032 89.477 154.222 88.1966 153.893 86.2932C153.565 84.3899 154.845 82.5799 156.748 82.2512C158.652 81.9224 160.462 83.2029 160.79 85.1062Z" fill="#FF9A8F"/>
<path d="M182.316 143.162C182.167 143.162 182.018 143.105 181.907 142.99L154.706 115.284C154.549 115.123 154.5 114.886 154.58 114.676L157.205 107.916L151.868 105.311C151.6 105.18 151.477 104.863 151.585 104.587L154.064 98.2253C154.178 97.9307 154.511 97.7853 154.806 97.9001C155.1 98.0149 155.246 98.3477 155.131 98.6423L152.843 104.511L158.18 107.116C158.448 107.246 158.57 107.56 158.463 107.839L155.781 114.749L182.722 142.19C182.944 142.416 182.94 142.78 182.714 143.001C182.603 143.112 182.458 143.166 182.313 143.166L182.316 143.162Z" fill="#565A85"/>
<path d="M179.988 80.5881C180.316 82.4915 179.036 84.3014 177.133 84.6302C175.229 84.9589 173.419 83.6785 173.091 81.7751C172.762 79.8718 174.042 78.0619 175.946 77.7331C177.849 77.4044 179.659 78.6848 179.988 80.5881Z" fill="#FF9A8F"/>
<path d="M166.489 111.298L183.82 142.577L179.485 108.046L172.461 107.009L166.489 111.298Z" fill="#E6E5E1"/>
<path d="M145.677 102.479C145.677 102.479 155.578 128.295 140.581 160.431C140.581 160.431 144.174 118.697 139.3 106.133C139.3 106.133 143.814 102.839 145.677 102.479Z" fill="#232B2B"/>
<path d="M195.056 166.912C194.884 166.912 194.712 166.836 194.597 166.686C191.296 162.344 189.104 156.843 186.98 151.525C186.031 149.149 185.14 146.907 184.153 144.769C184.019 144.482 184.145 144.141 184.436 144.008C184.723 143.874 185.064 144 185.197 144.291C186.196 146.456 187.095 148.713 188.048 151.104C190.14 156.349 192.302 161.778 195.512 165.994C195.703 166.246 195.653 166.606 195.401 166.797C195.297 166.878 195.175 166.916 195.053 166.916L195.056 166.912Z" fill="#565A85"/>
<path d="M169.627 78.9542C169.894 80.0203 170.409 80.8739 171.393 80.6265C172.261 80.4103 172.43 79.3851 172.163 78.319C171.896 77.2529 171.349 76.471 170.411 76.7043C169.567 76.9148 169.359 77.8855 169.626 78.9516L169.627 78.9542Z" fill="#472A28"/>
<path d="M171.056 78.0139C171.098 78.1893 171.277 78.2957 171.454 78.2525C171.63 78.2099 171.736 78.0316 171.693 77.8536C171.65 77.6782 171.472 77.5718 171.294 77.615C171.119 77.6576 171.012 77.8359 171.056 78.0139Z" fill="#FDBFB0"/>
<path d="M159.853 81.319C160.12 82.3851 160.635 83.2386 161.62 82.9912C162.487 82.7751 162.657 81.7498 162.39 80.6837C162.123 79.6176 161.575 78.8357 160.637 79.0691C159.793 79.2795 159.585 80.2502 159.853 81.3164L159.853 81.319Z" fill="#472A28"/>
<path d="M161.265 80.2941C161.307 80.4695 161.486 80.5759 161.663 80.5327C161.839 80.4902 161.945 80.3119 161.902 80.1339C161.859 79.9585 161.681 79.8521 161.503 79.8953C161.328 79.9379 161.221 80.1161 161.265 80.2941Z" fill="#FDBFB0"/>
<path d="M171.906 75.2709C171.723 75.3153 171.521 75.2419 171.41 75.0723C171.244 74.8225 170.585 74.538 170.012 74.561C169.886 74.5658 169.583 74.5976 169.489 74.775C169.366 75.0014 169.085 75.0857 168.861 74.9598C168.636 74.8338 168.551 74.5483 168.674 74.3219C168.901 73.8963 169.362 73.649 169.969 73.6241C170.733 73.5932 171.771 73.9309 172.18 74.5536C172.321 74.7705 172.265 75.0613 172.055 75.2026C172.008 75.2333 171.959 75.2548 171.908 75.2671L171.906 75.2709Z" fill="#734942"/>
<path d="M159.189 79.0353C159.149 79.0452 159.106 79.046 159.06 79.0376C158.853 78.9978 158.692 78.7563 158.703 78.5057C158.734 77.7761 159.318 77.0414 159.866 76.7568C160.301 76.5287 160.724 76.5646 161.06 76.8504C161.24 77.0034 161.298 77.2955 161.193 77.5014C161.088 77.7074 160.856 77.7475 160.677 77.5945C160.538 77.4735 160.313 77.5701 160.222 77.6178C159.812 77.8334 159.465 78.3593 159.455 78.6549C159.448 78.8534 159.337 79.0028 159.19 79.0383L159.189 79.0353Z" fill="#734942"/>
<path d="M168.739 89.5869C166.327 90.3725 164.32 88.2884 164.048 87.3887C164.011 87.2618 163.999 87.1694 164.031 87.0988C164.258 86.5161 165.172 86.8754 167.134 86.5635C169.097 86.2516 171.658 84.5674 172.017 84.9636C172.048 84.9964 172.075 85.0459 172.1 85.0879C172.649 86.0528 171.349 88.7254 168.745 89.5776L168.739 89.5869Z" fill="white"/>
<path d="M168.74 89.5867C166.327 90.3723 164.321 88.2882 164.048 87.3885C164.885 87.8286 166.293 88.0536 167.929 87.7035C169.619 87.3416 171.261 86.0931 172.1 85.0877C172.649 86.0526 171.35 88.7251 168.745 89.5774L168.74 89.5867Z" fill="#D8424D"/>
<path d="M154.733 182.123C153.872 182.123 153.019 181.928 152.224 181.538C150.854 180.864 149.829 179.701 149.335 178.259L145.884 168.155C145.835 168.01 145.846 167.853 145.911 167.716C145.98 167.578 146.099 167.474 146.24 167.425L163.915 161.388C164.213 161.284 164.542 161.445 164.646 161.744L168.096 171.847C169.114 174.824 167.519 178.076 164.542 179.093L156.585 181.813C155.98 182.02 155.357 182.123 154.733 182.123ZM147.158 168.328L150.425 177.888C150.82 179.04 151.638 179.969 152.732 180.509C153.827 181.044 155.062 181.125 156.214 180.731L164.171 178.01C166.551 177.199 167.825 174.602 167.01 172.222L163.743 162.662L147.154 168.328H147.158Z" fill="#565A85"/>
<path d="M202.275 158.036C200.24 158.036 198.258 156.961 197.217 155.079L194.551 150.266C194.402 149.995 194.493 149.654 194.761 149.494L201.066 145.756C201.338 145.595 201.69 145.683 201.85 145.959C202.011 146.23 201.923 146.582 201.648 146.747L195.821 150.198L198.216 154.524C199.417 156.694 202.179 157.524 204.375 156.372L206.028 155.508C206.311 155.358 206.655 155.469 206.805 155.749C206.95 156.028 206.843 156.376 206.564 156.521L204.911 157.386C204.073 157.826 203.166 158.033 202.271 158.033L202.275 158.036Z" fill="#565A85"/>
<path d="M172.274 62.5771C172.928 63.3193 173.009 64.0577 173.127 65.037C173.25 66.0623 172.098 68.2086 171.249 68.9087C170.514 69.5169 169.439 69.8727 168.487 69.7082C168.808 67.9369 168.785 66.246 168.494 64.4708C168.338 67.0991 164.741 70.2324 162.335 71.2997C161.539 70.6685 162.894 68.9967 162.335 68.1512C161.822 67.3822 161.31 66.6132 160.797 65.8404C161.229 67.585 160.893 69.5055 159.89 70.9975C158.888 72.4895 157.235 73.5301 155.456 73.7864L156.026 70.768C154.347 73.2814 153.092 76.2005 152.61 79.1845C151.428 78.5533 151.053 77.0919 150.835 75.7682C150.215 72.0457 151.015 68.1053 153.035 64.9184C155.059 61.7316 158.284 59.3329 161.918 58.3076" fill="#3A3E4A"/>
<path d="M177.095 104.79C178.376 104.243 179.685 103.696 181.069 103.535C182.454 103.378 183.95 103.658 184.987 104.591C185.771 105.299 186.234 106.355 186.215 107.411C186.196 108.467 185.706 109.511 184.899 110.192C184.555 110.483 184.115 110.812 184.18 111.256C184.241 111.665 184.692 111.868 185.029 112.112C186.035 112.843 186.127 114.45 185.389 115.452C184.65 116.455 183.3 116.876 182.064 116.749C180.825 116.623 179.681 116.03 178.648 115.334C176.199 113.673 174.206 111.344 172.948 108.666C172.752 108.252 172.573 107.82 172.538 107.361C172.443 106.137 173.231 106.133 174.156 105.888C175.17 105.624 176.138 105.203 177.098 104.79H177.095Z" fill="#E37725"/>
<path d="M168.441 106.776C167.048 106.841 165.633 106.917 164.317 107.38C163.001 107.843 161.776 108.746 161.248 110.035C160.851 111.014 160.896 112.166 161.371 113.111C161.845 114.056 162.744 114.779 163.77 115.039C164.206 115.15 164.745 115.253 164.879 115.682C165.005 116.076 164.684 116.455 164.489 116.822C163.9 117.92 164.519 119.404 165.621 119.986C166.723 120.567 168.119 120.357 169.179 119.703C170.239 119.052 171.012 118.015 171.635 116.94C173.116 114.377 173.892 111.412 173.862 108.455C173.858 107.996 173.831 107.529 173.663 107.101C173.215 105.957 172.504 106.293 171.566 106.481C170.537 106.684 169.485 106.726 168.441 106.776Z" fill="#D15F22"/>
<path d="M175.492 108.333C175.273 109.477 174.172 110.226 173.032 110.008C171.892 109.79 171.138 108.688 171.356 107.548C171.574 106.404 172.676 105.655 173.816 105.873C174.96 106.091 175.71 107.193 175.492 108.333Z" fill="#FF862A"/>
<path d="M135.222 149.36C126.66 163.201 114.383 168.641 101.728 183.887C96.2266 180.436 91.9418 175.757 86.4404 172.303C97.359 156.705 108.278 141.104 119.196 125.506C122.643 120.583 127.574 115.131 132.739 112.059C132.739 112.059 133.493 113.654 133.83 116.378" fill="#424666"/>
<path d="M239.828 77.267L235.569 78.6196L240.606 94.4771L244.865 93.1245L239.828 77.267Z" fill="white"/>
<path d="M88.8028 168.604L86.0566 172.129L101.983 184.536L104.729 181.011L88.8028 168.604Z" fill="white"/>
<path d="M134.644 150.76C134.48 150.76 134.315 150.687 134.201 150.553C133.998 150.309 134.032 149.949 134.277 149.746C136.481 147.925 138.267 145.584 139.446 142.979C139.576 142.692 139.916 142.562 140.203 142.692C140.49 142.822 140.62 143.162 140.49 143.449C139.243 146.215 137.345 148.698 135.008 150.63C134.901 150.718 134.771 150.76 134.644 150.76Z" fill="#565A85"/>
<path d="M210.003 98.8642C209.754 98.8642 209.525 98.6997 209.452 98.4472L207.493 91.603C207.405 91.2969 207.581 90.9794 207.887 90.8952C208.19 90.8072 208.511 90.9832 208.599 91.2893L210.558 98.1335C210.646 98.4395 210.47 98.7571 210.164 98.8412C210.11 98.8565 210.057 98.8642 210.007 98.8642H210.003Z" fill="#565A85"/>
<path d="M122.004 161.009C121.874 161.009 121.741 160.963 121.633 160.871L118.546 158.251C118.305 158.044 118.274 157.685 118.481 157.443C118.688 157.202 119.047 157.172 119.288 157.378L122.376 159.999C122.617 160.206 122.647 160.565 122.441 160.806C122.326 160.94 122.165 161.009 122.004 161.009Z" fill="#565A85"/>
</g>
<defs>
<clipPath id="clip0_1574_2759">
<rect width="365.528" height="280" fill="white" transform="translate(0.472656)"/>
</clipPath>
</defs>
</svg>
