<svg width="400" height="402" viewBox="0 0 400 402" fill="none" xmlns="http://www.w3.org/2000/svg">
<g clip-path="url(#clip0_1890_152)">
<path opacity="0.1" d="M391.8 346.72C290.425 421.96 9.91016 398.136 9.91016 398.136V10.9204H389.021C389.021 10.9204 411.737 331.933 391.8 346.72Z" fill="black"/>
<path d="M381.89 335.8C280.515 411.059 0 387.235 0 387.235V0H384.921C384.921 0 401.807 321.012 381.87 335.8H381.89Z" fill="#BDD8BA"/>
<path d="M388.71 0H0.97168V81.4962H388.71V0Z" fill="#D7F1D8"/>
<path d="M204.945 386.284C204.945 386.284 280.729 343.301 330.415 319.497C330.415 319.497 351.829 342.057 381.89 335.8C381.89 335.8 330.376 380.687 204.945 386.284Z" fill="#DAF1DE"/>
<path d="M140.759 54.6263C139.433 54.6263 138.651 53.8443 138.651 52.5863C138.651 51.3283 139.433 50.5463 140.759 50.5463H149.123V38.9863C149.123 37.6263 150.041 36.8103 151.401 36.8103C152.863 36.8103 153.713 37.6263 153.713 38.9863V50.5463H166.123C167.449 50.5463 168.231 51.3283 168.231 52.5863C168.231 53.8443 167.449 54.6263 166.123 54.6263H140.759ZM143.037 28.9563C143.037 27.6983 143.819 26.9163 145.145 26.9163H160.683C162.315 26.9163 163.471 28.0723 163.471 29.8063C163.471 36.9803 163.165 40.0063 161.839 43.4403C161.533 44.2903 160.785 44.8343 159.867 44.8343C159.561 44.8343 159.187 44.7323 158.745 44.5623C157.963 44.1543 157.555 43.5423 157.555 42.7263C157.555 42.4883 157.623 42.1823 157.725 41.8083C158.643 38.7823 158.881 36.5043 158.881 31.3363C158.881 31.0983 158.779 30.9963 158.541 30.9963H145.145C143.819 30.9963 143.037 30.2143 143.037 28.9563ZM184.371 58.8423C179.305 58.8423 175.871 55.8163 175.871 51.6683C175.871 47.7243 179.101 44.4943 184.371 44.4943C189.641 44.4943 192.871 47.7243 192.871 51.6683C192.871 55.8163 189.437 58.8423 184.371 58.8423ZM169.581 40.8903C169.581 39.6663 170.397 38.8843 171.791 38.8843H196.951C198.345 38.8843 199.161 39.6663 199.161 40.8903C199.161 42.1143 198.311 42.9643 196.951 42.9643H171.791C170.431 42.9643 169.581 42.1143 169.581 40.8903ZM174.443 31.5743V29.1603C174.443 27.4943 175.599 26.3043 177.231 26.3043H192.225C193.551 26.3043 194.333 27.0863 194.333 28.3443C194.333 29.6703 193.585 30.3163 192.225 30.3163H179.475C179.203 30.3163 179.033 30.4863 179.033 30.7243V31.3703C179.033 33.1043 181.345 33.1723 185.017 33.1723C187.431 33.1723 190.117 32.9003 192.157 32.4583L192.803 32.3903C193.789 32.3903 194.435 32.9003 194.605 33.9543C194.639 34.0223 194.639 34.1583 194.639 34.3963C194.639 35.3823 193.993 36.1303 192.905 36.3683C190.729 36.8783 187.771 37.1843 185.017 37.1843C182.467 37.1843 180.393 37.0143 178.863 36.6743C175.837 35.9943 174.443 34.4303 174.443 31.5743ZM180.461 51.6683C180.461 53.4703 182.059 54.7963 184.371 54.7963C186.683 54.7963 188.281 53.4703 188.281 51.6683C188.281 49.8663 186.683 48.5403 184.371 48.5403C182.059 48.5403 180.461 49.8663 180.461 51.6683ZM211.118 45.1063C207.004 45.1063 203.944 42.4543 203.944 38.3743C203.944 37.3203 204.182 36.3003 204.658 35.3483H203.57C202.312 35.3483 201.462 34.5663 201.462 33.3083C201.462 32.0503 202.244 31.2683 203.57 31.2683H218.53C219.856 31.2683 220.638 32.0503 220.638 33.3083C220.638 34.5663 219.788 35.3483 218.53 35.3483H217.544C218.054 36.3343 218.326 37.3543 218.326 38.3743C218.326 42.3863 215.164 45.1063 211.118 45.1063ZM204.114 27.3243C204.114 26.8823 204.216 26.5083 204.42 26.1683C204.794 25.5223 205.44 25.1823 206.12 25.1823C206.494 25.1823 206.8 25.2503 207.106 25.4203L207.582 25.6583C207.854 25.7603 208.228 25.8623 208.67 25.8963C208.976 25.9303 209.69 25.9303 210.812 25.9303H215.708C216.966 25.9303 217.782 26.7463 217.782 27.9703C217.782 29.2283 216.932 30.0103 215.674 30.0103H210.166C207.888 30.0103 206.528 29.8403 205.406 29.1603L204.998 28.9223C204.42 28.5823 204.114 28.0383 204.114 27.3243ZM206.222 49.1863C206.222 47.9283 207.004 47.1463 208.33 47.1463H223.426C225.058 47.1463 226.214 48.3363 226.214 50.0023V55.8843C226.214 57.2443 225.33 58.0603 223.868 58.0603C222.508 58.0603 221.624 57.2443 221.624 55.8843V51.8043C221.624 51.4303 221.386 51.2263 221.08 51.2263H208.33C207.004 51.2263 206.222 50.4443 206.222 49.1863ZM208.364 38.3403C208.364 39.9383 209.52 41.0943 211.152 41.0943C212.682 41.0943 213.906 39.9383 213.906 38.3403C213.906 36.7083 212.784 35.5183 211.152 35.5183C209.418 35.5183 208.364 36.6743 208.364 38.3403ZM221.624 44.2563V27.5283C221.624 26.2703 222.508 25.4883 223.834 25.4883H224.004C225.33 25.4883 226.214 26.2703 226.214 27.5283V33.4783H228.832C230.158 33.4783 230.94 34.2603 230.94 35.5183C230.94 36.7763 230.158 37.5583 228.832 37.5583H226.214V44.2563C226.214 45.5143 225.33 46.2963 224.004 46.2963H223.834C222.508 46.2963 221.624 45.5143 221.624 44.2563ZM233.547 54.6263C232.221 54.6263 231.439 53.8443 231.439 52.5863C231.439 51.3283 232.221 50.5463 233.547 50.5463H237.933V39.6663C237.933 38.3063 238.851 37.4903 240.211 37.4903C241.673 37.4903 242.523 38.3063 242.523 39.6663V50.5463H245.209V39.6663C245.209 38.3063 246.127 37.4903 247.487 37.4903C248.949 37.4903 249.799 38.3063 249.799 39.6663V50.5463H258.911C260.237 50.5463 261.019 51.3283 261.019 52.5863C261.019 53.8443 260.237 54.6263 258.911 54.6263H233.547ZM235.825 28.9223C235.825 27.6643 236.607 26.8823 237.933 26.8823H253.811C255.443 26.8823 256.599 28.0383 256.599 29.7723C256.599 36.6743 256.293 40.1763 255.307 43.4403C255.001 44.3583 254.287 44.8683 253.369 44.8683C252.961 44.8683 252.587 44.8003 252.281 44.6303C251.465 44.2903 251.057 43.6103 251.057 42.6243C251.057 42.3523 251.091 42.0803 251.159 41.8083C251.805 39.0543 251.975 36.1643 251.975 31.3023C251.975 31.0643 251.873 30.9623 251.635 30.9623H237.933C236.607 30.9623 235.825 30.1803 235.825 28.9223Z" fill="black"/>
<path d="M123.959 130H49.3459V234H124.058C128.927 234 133 230.3 133 225.9V138.1C132.901 133.7 128.927 130 123.959 130Z" fill="#AC93A8"/>
<path d="M121.176 131.6H45.073V232.5H121.176C126.144 232.5 130.217 228.9 130.217 224.6V139.5C130.217 135.1 126.144 131.6 121.176 131.6Z" fill="#E2E2E2"/>
<path d="M119.388 131.6H45.073V229.9H119.388C124.256 229.9 128.23 226.4 128.23 222.2V139.3C128.23 135 124.256 131.6 119.388 131.6Z" fill="#EFEFEF"/>
<path d="M115.712 130H41V234H115.712C120.581 234 124.654 230.3 124.654 225.9V138.1C124.555 133.7 120.581 130 115.712 130Z" fill="#EECDE9"/>
<path d="M115.713 130H53.3198C53.3198 130 45.8684 193.4 61.3673 209.1C72.594 220.4 116.905 218.7 116.905 218.7C121.078 218.7 124.456 215.6 124.456 211.8V138.1C124.555 133.7 120.581 130 115.713 130Z" fill="#EECDE9"/>
<path d="M72.0625 168.872C76.9209 168.872 79.9727 170.41 79.9971 173.071C79.9727 175.684 76.9209 177.246 72.0625 177.246C67.2529 177.246 64.1523 175.684 64.1523 173.071C64.1523 170.41 67.2529 168.872 72.0625 168.872ZM72.0625 171.191C69.0107 171.191 67.2529 171.826 67.2529 173.071C67.2529 174.268 69.0107 174.878 72.0625 174.878C75.1143 174.878 76.8965 174.268 76.8965 173.071C76.8965 171.826 75.1143 171.191 72.0625 171.191ZM79.875 156.03V157.837C79.875 159.595 79.875 161.499 79.2402 163.794L76.1885 163.501C76.6768 161.487 76.7378 159.985 76.7744 158.472H64.3721V156.03H79.875ZM82.2676 164.941V167.456H62.1016V164.941H69.6699V161.06H72.7461V164.941H82.2676ZM102.923 166.479V168.921H82.6104V166.479H91.2041V165.112H85.1494V155.566H100.555V157.959H88.2744V159.204H100.042V161.45H88.2744V162.72H100.75V165.112H94.3291V166.479H102.923ZM92.7666 169.946C97.6738 169.922 100.481 171.24 100.506 173.584C100.481 175.977 97.6738 177.246 92.7666 177.246C87.7861 177.246 84.9785 175.977 84.9785 173.584C84.9785 171.24 87.7861 169.922 92.7666 169.946ZM92.7666 172.241C89.5684 172.241 88.0791 172.656 88.1035 173.584C88.0791 174.536 89.5684 174.951 92.7666 174.951C95.8916 174.951 97.3564 174.536 97.3809 173.584C97.3564 172.656 95.8916 172.241 92.7666 172.241ZM68.2539 188.226C70.0239 188.226 71.5742 188.873 72.6484 189.959H77.6777V187.029H80.7783V200.042H77.6777V197.381H72.624C71.5498 198.455 70.0117 199.102 68.2539 199.09C64.8848 199.114 62.3213 196.795 62.3457 193.67C62.3213 190.496 64.8848 188.226 68.2539 188.226ZM68.2539 190.887C66.5205 190.887 65.2754 191.912 65.2998 193.67C65.2754 195.379 66.5205 196.478 68.2539 196.453C69.9385 196.478 71.1592 195.379 71.1592 193.67C71.1592 191.912 69.9385 190.887 68.2539 190.887ZM73.1855 200.506C77.8975 200.506 80.8271 202.117 80.8516 204.876C80.8271 207.635 77.8975 209.246 73.1855 209.246C68.498 209.246 65.5439 207.635 65.5439 204.876C65.5439 202.117 68.498 200.506 73.1855 200.506ZM73.1855 202.874C70.2314 202.874 68.5957 203.533 68.5957 204.876C68.5957 206.17 70.2314 206.829 73.1855 206.829C76.1885 206.829 77.7998 206.17 77.7998 204.876C77.7998 203.533 76.1885 202.874 73.1855 202.874ZM73.9912 192.425C74.0645 192.815 74.1133 193.243 74.1133 193.67C74.1133 194.097 74.0645 194.5 73.9912 194.891H77.6777V192.425H73.9912ZM88.7871 188.592C91.79 188.592 94.0239 191.07 94.4756 195.062H98.333V187.029H101.409V209.295H98.333V197.552H94.5C94.1704 201.824 91.8877 204.437 88.7871 204.437C85.418 204.437 83.001 201.385 83.0254 196.502C83.001 191.668 85.418 188.592 88.7871 188.592ZM88.7871 191.399C87.127 191.399 85.9795 193.206 86.0039 196.502C85.9795 199.822 87.127 201.604 88.7871 201.604C90.4717 201.604 91.5703 199.822 91.5703 196.502C91.5703 193.206 90.4717 191.399 88.7871 191.399Z" fill="#000543"/>
<path d="M236.959 130H162.346V234H237.058C241.927 234 246 230.3 246 225.9V138.1C245.901 133.7 241.927 130 236.959 130Z" fill="#928B6A"/>
<path d="M234.176 131.6H158.073V232.5H234.176C239.144 232.5 243.217 228.9 243.217 224.6V139.5C243.217 135.1 239.144 131.6 234.176 131.6Z" fill="#E2E2E2"/>
<path d="M232.388 131.6H158.073V229.9H232.388C237.256 229.9 241.23 226.4 241.23 222.2V139.3C241.23 135 237.256 131.6 232.388 131.6Z" fill="#EFEFEF"/>
<path d="M228.712 130H154V234H228.712C233.581 234 237.654 230.3 237.654 225.9V138.1C237.555 133.7 233.581 130 228.712 130Z" fill="#EFE2A6"/>
<path d="M228.713 130H166.32C166.32 130 158.868 193.4 174.367 209.1C185.594 220.4 229.905 218.7 229.905 218.7C234.078 218.7 237.456 215.6 237.456 211.8V138.1C237.555 133.7 233.581 130 228.713 130Z" fill="#EFE2A6"/>
<path d="M185.062 168.872C189.921 168.872 192.973 170.41 192.997 173.071C192.973 175.684 189.921 177.246 185.062 177.246C180.253 177.246 177.152 175.684 177.152 173.071C177.152 170.41 180.253 168.872 185.062 168.872ZM185.062 171.191C182.011 171.191 180.253 171.826 180.253 173.071C180.253 174.268 182.011 174.878 185.062 174.878C188.114 174.878 189.896 174.268 189.896 173.071C189.896 171.826 188.114 171.191 185.062 171.191ZM192.875 156.03V157.837C192.875 159.595 192.875 161.499 192.24 163.794L189.188 163.501C189.677 161.487 189.738 159.985 189.774 158.472H177.372V156.03H192.875ZM195.268 164.941V167.456H175.102V164.941H182.67V161.06H185.746V164.941H195.268ZM215.923 166.479V168.921H195.61V166.479H204.204V165.112H198.149V155.566H213.555V157.959H201.274V159.204H213.042V161.45H201.274V162.72H213.75V165.112H207.329V166.479H215.923ZM205.767 169.946C210.674 169.922 213.481 171.24 213.506 173.584C213.481 175.977 210.674 177.246 205.767 177.246C200.786 177.246 197.979 175.977 197.979 173.584C197.979 171.24 200.786 169.922 205.767 169.946ZM205.767 172.241C202.568 172.241 201.079 172.656 201.104 173.584C201.079 174.536 202.568 174.951 205.767 174.951C208.892 174.951 210.356 174.536 210.381 173.584C210.356 172.656 208.892 172.241 205.767 172.241ZM186.845 188.763C186.845 191.375 189.506 194.28 194.608 194.915L193.388 197.43C189.506 196.868 186.662 195.074 185.209 192.669C183.744 195.074 180.924 196.868 177.079 197.43L175.834 194.915C180.888 194.28 183.573 191.375 183.573 188.763V187.688H186.845V188.763ZM195.316 199.114V201.653H186.674V209.246H183.598V201.653H175.053V199.114H195.316ZM208.843 189.007V191.473H195.659V189.007H200.713V186.907H203.813V189.007H208.843ZM202.251 192.181C205.474 192.181 207.72 193.841 207.72 196.282C207.72 198.724 205.474 200.384 202.251 200.384C199.028 200.384 196.733 198.724 196.733 196.282C196.733 193.841 199.028 192.181 202.251 192.181ZM202.251 194.524C200.762 194.524 199.761 195.135 199.785 196.282C199.761 197.405 200.762 197.991 202.251 197.991C203.74 197.991 204.766 197.405 204.766 196.282C204.766 195.135 203.74 194.524 202.251 194.524ZM213.286 187.029V192.791H216.289V195.33H213.286V200.97H210.161V187.029H213.286ZM213.286 201.897V209.246H210.161V204.388H198.32V201.897H213.286Z" fill="#000543"/>
<path d="M349.959 130H275.346V234H350.058C354.927 234 359 230.3 359 225.9V138.1C358.901 133.7 354.927 130 349.959 130Z" fill="#869CB0"/>
<path d="M347.176 131.6H271.073V232.5H347.176C352.144 232.5 356.217 228.9 356.217 224.6V139.5C356.217 135.1 352.144 131.6 347.176 131.6Z" fill="#E2E2E2"/>
<path d="M345.388 131.6H271.073V229.9H345.388C350.256 229.9 354.23 226.4 354.23 222.2V139.3C354.23 135 350.256 131.6 345.388 131.6Z" fill="#EFEFEF"/>
<path d="M341.712 130H267V234H341.712C346.581 234 350.654 230.3 350.654 225.9V138.1C350.555 133.7 346.581 130 341.712 130Z" fill="#C1DBF3"/>
<path d="M341.713 130H279.32C279.32 130 271.868 193.4 287.367 209.1C298.594 220.4 342.905 218.7 342.905 218.7C347.078 218.7 350.456 215.6 350.456 211.8V138.1C350.555 133.7 346.581 130 341.713 130Z" fill="#C1DBF3"/>
<path d="M306.778 155.029V168.213H303.678V162.964H300.211V160.449H303.678V155.029H306.778ZM299.186 168.701C303.922 168.726 306.827 170.288 306.852 172.998C306.827 175.684 303.922 177.271 299.186 177.271C294.449 177.271 291.544 175.684 291.544 172.998C291.544 170.288 294.449 168.726 299.186 168.701ZM299.186 171.094C296.231 171.094 294.645 171.704 294.645 172.998C294.645 174.268 296.231 174.902 299.186 174.902C302.14 174.902 303.751 174.268 303.751 172.998C303.751 171.704 302.14 171.094 299.186 171.094ZM300.87 156.372V158.862H296.451C296.524 161.45 298.087 164.062 301.554 165.21L300.016 167.651C297.562 166.858 295.877 165.247 294.913 163.232C293.924 165.503 292.154 167.334 289.518 168.237L287.906 165.771C291.556 164.551 293.192 161.646 293.277 158.862H288.81V156.372H300.87ZM328.996 172.119V174.658H308.659V172.119H317.229V168.018H310.808V156.445H313.933V159.888H323.625V156.445H326.726V168.018H320.329V172.119H328.996ZM313.933 165.527H323.625V162.378H313.933V165.527Z" fill="#000543"/>
</g>
<defs>
<clipPath id="clip0_1890_152">
<rect width="400" height="402" fill="white"/>
</clipPath>
</defs>
</svg>
