<svg width="43" height="36" viewBox="0 0 43 36" fill="none" xmlns="http://www.w3.org/2000/svg">
<path d="M9.73864 8.51344C19.2806 14.6492 28.75 20.9057 38.147 27.2589C38.461 27.4763 38.1711 27.9593 37.8571 27.7661C28.0736 22.041 18.3868 16.1953 8.72406 10.2286C7.63701 9.55222 8.65159 7.83706 9.71449 8.51344H9.73864Z" fill="#FF7B6E"/>
<path d="M13.2414 0.710316C23.0248 4.52704 32.8325 8.24708 42.6884 11.8222C43.2199 12.0155 43.0266 12.8609 42.4469 12.6918C32.3735 9.86553 22.4451 6.50784 12.7099 2.64281C11.5262 2.15968 12.0335 0.227162 13.2414 0.686136V0.710316Z" fill="#FF7B6E"/>
<path d="M2.32267 13.7071C6.62257 22.0894 13 29.0223 20.3678 34.844C20.6093 35.0373 20.2953 35.3996 20.0537 35.2546C11.7921 30.4717 5.31811 22.9348 0.897421 14.5525C0.390129 13.6104 1.83954 12.765 2.32267 13.7071Z" fill="#FF7B6E"/>
</svg>
