<svg width="106" height="100" viewBox="0 0 106 100" fill="none" xmlns="http://www.w3.org/2000/svg">
<path d="M24.5947 96.1197C25.4592 95.7267 26.4612 95.8446 27.4239 95.9232C29.1333 96.0803 30.8429 96.1 32.5326 95.9821C35.1458 95.8053 38.152 94.98 39.1737 92.583C39.547 91.6988 39.6059 90.7164 39.6452 89.7536C39.9203 83.7216 40.1756 77.6897 40.4506 71.638C40.5685 68.8087 40.7455 65.999 40.6276 63.1894C40.5294 61.0477 40.824 58.9846 42.9853 57.8843C44.5768 57.0788 46.4435 57.0984 48.2315 57.177C50.9822 57.3146 53.949 57.6289 55.9727 59.4955C58.468 61.7943 58.6449 65.5865 59.1754 68.9266C59.8827 73.3082 61.4348 77.5129 62.5155 81.8158C63.5961 86.1188 64.284 93.2903 62.9676 97.5343C62.7711 98.1434 62.5156 98.7918 61.9655 99.1258C61.6118 99.3419 61.1796 99.3812 60.767 99.4205C48.4869 100.658 35.6172 99.5581 23.2782 99.3616C22.728 98.5757 23.7302 96.493 24.5947 96.1V96.1197Z" fill="#C6C6C6"/>
<path d="M0.898879 73.0331C0.977471 74.546 1.07588 76.1178 1.80286 77.4146C3.29611 80.0868 6.69516 80.4405 9.58344 80.4601C31.2946 80.6173 51.7877 81.6194 73.4595 80.4601C80.0417 80.1065 87.7043 80.1261 93.9721 77.9844C95.9762 77.2968 98 76.3929 99.4343 74.7032C101.851 71.8345 102.165 65.2328 102.106 61.3425C101.753 42.9715 106.96 25.2685 105.368 6.95645C105.25 5.65967 105.132 4.30394 104.504 3.20364C102.932 0.393961 95.2886 -0.215143 92.302 0.0599312C72.0645 1.86756 51.7484 -0.195511 31.4912 0.963729C26.4809 1.2388 21.4706 1.73002 16.4996 2.51595C13.0612 3.0661 4.88761 3.24291 2.29406 5.9347C0.172061 8.13529 1.68493 15.2872 1.76352 18.4113C1.88141 24.011 2.03856 29.5911 2.21539 35.1908C2.60835 47.8049 0.309473 60.419 0.938214 73.0331H0.898879Z" fill="#D6D6D6"/>
<path d="M97.7056 62.6982C97.6074 64.0146 97.411 65.5078 96.3107 66.2348C95.6819 66.6474 94.8764 66.7064 94.1298 66.7457C72.2614 67.9442 50.3143 65.9794 28.4263 66.9422C21.3529 67.2565 14.1224 67.846 7.30453 65.9794C5.88986 48.2961 9.28907 30.2984 5.90959 12.8901C5.63452 11.4362 5.39861 9.6875 6.51856 8.72474C7.22589 8.11565 8.26747 7.07429 9.21058 7.05464C30.627 6.70097 45.9721 5.22739 70.0018 5.36493C75.6408 5.40422 83.8538 5.46313 90.1608 5.20771C93.0294 5.08982 95.8981 4.79509 98.7864 4.83439C101.753 4.87369 102.087 5.40423 101.734 8.25321C100.339 19.826 99.4151 31.3397 98.8257 42.9714C98.4917 49.5535 98.1772 56.116 97.7056 62.6785V62.6982Z" fill="#F4F4F4"/>
<path d="M17.8553 14.8745C41.0204 13.9314 64.2249 14.7959 87.4097 15.6605C87.8616 15.6605 88.3726 15.6998 88.7262 15.9748C89.2174 16.3481 89.3353 17.0554 89.3942 17.6645C89.8461 22.3801 90.0427 27.1153 89.9641 31.8505C89.8855 37.0769 89.4924 42.3033 89.0798 47.5101C88.5886 53.8564 88.0974 60.2028 87.6258 66.5491C87.6258 66.7456 87.5866 66.9617 87.4491 67.0993C87.2919 67.2761 87.0169 67.2958 86.7811 67.3154C70.4142 68.0424 54.0276 68.3567 37.6411 68.2585C33.5936 68.2388 29.546 68.1799 25.4984 68.1013C23.455 68.062 21.4116 68.0227 19.3486 67.9638C17.6785 67.9245 16.4407 68.3174 16.2639 66.4312C15.9102 62.5016 16.5192 58.2379 16.6371 54.269C16.755 50.1822 16.8927 46.1151 17.0105 42.0283C17.0891 39.7491 17.5998 14.8549 17.8356 14.8549L17.8553 14.8745Z" fill="white"/>
<path d="M34.045 6.50454C54.6951 5.26671 75.4241 5.24705 96.0939 6.42593C96.0743 6.93679 96.0349 7.42803 96.0153 7.93888C89.4724 7.89958 82.9296 7.86027 76.3868 7.80133C68.4686 7.74238 60.5308 7.7031 52.6126 7.87994C44.7337 8.05677 36.8744 8.46934 28.9955 8.88195L17.9139 9.45176C16.1063 9.55 14.2005 9.82507 12.3929 9.74647C11.0175 9.66788 10.644 8.7248 10.9584 7.44768C14.7505 7.15295 18.6605 7.40839 22.4918 7.21191C26.3429 7.01543 30.1939 6.74034 34.045 6.52421V6.50454Z" fill="#E6E6E6"/>
<path d="M63.2985 22.1695C63.3231 21.8413 63.4872 20.7912 63.2411 20.5368C62.9785 20.2579 62.1663 20.6107 61.8463 20.6763C60.7059 20.9224 59.5574 21.1603 58.417 21.4065C56.128 21.8905 53.839 22.3746 51.55 22.8586C53.0924 24.1221 54.4707 24.9999 55.9147 26.37C55.5701 26.8705 55.2091 27.6581 54.8317 28.1093C52.7314 30.628 50.6722 33.2123 48.1699 35.3537C45.5856 37.577 42.5172 39.0209 39.3832 40.3008C38.0459 40.8423 36.8644 41.0474 35.4697 41.2361C35.4943 41.2361 36.3148 41.7119 36.4871 41.753C37.447 41.9663 38.6037 42.0729 39.5718 41.8678C39.8426 41.8104 42.107 41.2607 42.107 41.0064C45.5363 39.5542 48.777 37.6591 51.7305 35.3947C54.0605 33.6144 56.1854 31.5797 58.4252 29.6927C59.541 30.3737 60.5993 31.1695 61.5592 32.0556C61.8053 32.2853 62.2237 32.5068 62.4288 32.2442C62.5027 32.1458 62.5109 32.0145 62.5109 31.8833C62.5683 29.6353 62.6093 27.3874 62.9047 25.164C63.0359 24.1631 63.2246 23.1622 63.2821 22.1613L63.2985 22.1695Z" fill="#61AA99"/>
<path d="M44.9867 51.4093C44.9867 50.7529 45.0113 50.1048 44.9867 49.4485C44.9703 48.8742 45.0113 48.1686 44.7651 47.6189C44.5026 47.02 43.7642 47.0364 43.0833 47.0364C42.1726 47.0364 41.2619 47.0364 40.3513 47.0446C40.2774 47.0446 40.2036 47.0528 40.1462 47.0692C39.7688 47.0282 39.3175 47.2005 39.2765 47.5943C39.2437 47.9143 39.2273 48.2343 39.2273 48.546C39.0878 48.9973 39.1371 49.4895 39.1863 49.9982C39.2765 50.9827 39.375 51.9754 39.4734 52.9599C39.5719 53.9444 39.7031 54.9371 39.6867 55.9216C39.6785 56.4221 39.7524 56.9061 39.8262 57.3984C39.8673 57.6855 39.9657 58.0055 39.9328 58.3008C39.9 58.5716 39.8344 58.8095 39.8344 59.0966C39.8344 59.3264 39.9985 59.5889 40.2775 59.6956C41.4835 60.155 42.8372 60.3355 44.1662 60.2617C44.6093 60.237 44.9949 59.9909 44.9867 59.6217C44.9539 56.8897 44.9539 54.1577 44.9867 51.4175V51.4093Z" fill="#D9924E"/>
<path d="M54.2082 42.6718C54.1836 42.3272 53.9292 42.0975 53.5601 42.0729C52.2556 41.9826 50.9593 42.0155 49.663 42.1631C49.3431 42.1959 49.1544 42.4092 49.097 42.639C48.9411 42.8851 48.9575 43.2461 49.2036 43.4266C49.1216 44.7556 49.1133 46.1011 49.1626 47.422C49.1954 48.103 49.1297 48.8003 49.1133 49.4813C49.0969 50.1704 49.1708 50.8514 49.1215 51.5406C49.0313 52.8696 49.138 54.2069 49.0723 55.5442C49.0395 56.2334 49.1052 56.9143 49.0477 57.6035C49.0149 57.9562 49.0724 58.2844 49.0559 58.629C49.0559 58.9243 49.0231 59.1295 49.0887 59.3674C48.9329 59.7202 49.0559 60.196 49.54 60.2863C50.7132 60.4996 52.0833 60.4339 53.2811 60.3601C53.6503 60.3355 53.8882 60.1058 53.921 59.7612C53.9949 59.0392 54.0523 58.3254 54.1179 57.6035C54.1754 56.9471 54.3312 56.3318 54.3641 55.6673C54.4379 54.2233 54.4871 52.7794 54.4953 51.3354C54.5199 48.4476 54.4297 45.5597 54.2082 42.68V42.6718Z" fill="#6D9DBF"/>
<path d="M64.9229 36.6991C64.9393 36.3299 64.6193 36.1084 64.2911 36.0674C62.4534 35.8377 60.6074 35.8295 58.7615 36.0264C58.3595 35.8295 57.736 36.0264 57.8508 36.7073C57.9001 37.0027 57.8098 37.38 57.8098 37.6836C57.8098 37.9872 57.8098 38.2907 57.8344 38.5943C57.8672 39.0537 57.9164 39.5132 57.9821 39.9726C58.3513 46.4703 58.7287 52.9681 59.0979 59.4658C59.1225 59.876 59.4178 60.2042 59.8444 60.2124C61.3786 60.2534 62.9046 60.1222 64.406 59.8268C64.726 59.7612 64.9639 59.4084 64.9557 59.0966C64.8654 51.639 64.6521 44.1568 64.9064 36.6991H64.9229Z" fill="#F9DD3A"/>
</svg>
