<svg width="419" height="248" viewBox="0 0 419 248" fill="none" xmlns="http://www.w3.org/2000/svg">
<path d="M185.979 247.67C284.97 247.67 365.219 242.543 365.219 236.22C365.219 229.896 284.97 224.77 185.979 224.77C86.988 224.77 6.73975 229.896 6.73975 236.22C6.73975 242.543 86.988 247.67 185.979 247.67Z" fill="#D6E6F2"/>
<path d="M351.32 179.544C296.804 249.299 233.052 226.35 165.719 225.548C98.3868 224.745 -0.798055 233.786 0.0500811 137.98C0.615505 73.3075 43.4935 -12.0668 147.437 30.8878C217.738 59.9343 252.371 5.47879 302.882 0.2365C363.948 -6.07564 401.36 115.513 351.32 179.544Z" fill="#E1F3F9"/>
<path d="M324.368 208.619C324.368 208.619 348.021 80.6447 396.035 79.561C444.049 78.4773 411.207 163.903 342.98 214.179L324.368 208.619Z" fill="#20997C"/>
<path d="M311.081 239.671C338.08 220.446 391.229 108.257 391.748 107.126L390.9 106.843C390.381 107.974 337.326 219.975 310.515 239.058L311.081 239.718V239.671Z" fill="#178369"/>
<path d="M367.293 157.542C370.168 157.919 373.796 156.553 378.178 153.537L377.659 152.878C372.665 156.317 368.754 157.495 366.068 156.317C361.592 154.385 361.733 146.752 361.733 146.658H360.791C360.791 147.035 360.65 154.951 365.644 157.071C366.162 157.307 366.728 157.448 367.34 157.542H367.293Z" fill="#178369"/>
<path d="M380.581 131.674C383.455 132.051 387.083 130.685 391.465 127.669L390.947 127.009C385.952 130.449 382.042 131.627 379.356 130.449C374.88 128.517 375.021 120.884 375.021 120.79H374.079C374.079 121.167 373.937 129.083 378.932 131.203C379.45 131.439 380.015 131.58 380.628 131.627L380.581 131.674Z" fill="#178369"/>
<path d="M388.591 116.738C391.465 117.115 395.094 115.749 399.476 112.733L398.957 112.073C393.963 115.513 390.052 116.691 387.366 115.513C382.89 113.581 383.031 105.948 383.031 105.854H382.089C382.089 106.231 381.947 114.147 386.942 116.267C387.46 116.503 388.026 116.644 388.638 116.738H388.591Z" fill="#178369"/>
<path d="M373.23 145.81C375.633 146.093 378.649 144.962 382.324 142.465L381.806 141.805C377.707 144.633 374.455 145.622 372.288 144.633C368.613 143.078 368.754 136.764 368.754 136.717H367.812C367.812 137.046 367.67 143.643 371.864 145.434C372.288 145.622 372.806 145.763 373.277 145.81H373.23Z" fill="#178369"/>
<path d="M360.367 170.311C363.241 170.688 366.869 169.322 371.251 166.306L370.733 165.647C365.739 169.086 361.828 170.264 359.142 169.086C354.666 167.154 354.807 159.521 354.807 159.427H353.865C353.865 159.804 353.723 167.72 358.718 169.84C359.236 170.076 359.802 170.217 360.414 170.311H360.367Z" fill="#178369"/>
<path d="M353.535 185.532C356.409 185.909 360.037 184.542 364.419 181.527L363.901 180.867C358.907 184.307 354.996 185.485 352.31 184.307C347.834 182.375 347.975 174.742 347.975 174.647H347.033C347.033 174.977 346.891 182.94 351.886 185.061C352.404 185.296 352.97 185.438 353.582 185.532H353.535Z" fill="#178369"/>
<path d="M346.138 196.322C348.211 196.557 350.85 195.615 353.959 193.447L353.441 192.788C349.954 195.191 347.221 196.039 345.337 195.238C342.227 193.919 342.321 188.547 342.321 188.5H341.379C341.379 188.783 341.284 194.484 344.865 196.039C345.242 196.18 345.666 196.322 346.091 196.369L346.138 196.322Z" fill="#178369"/>
<path d="M329.928 211.022C329.928 211.022 372.759 141.428 401.124 151.652C429.49 161.877 390.946 204.52 339.587 218.514L329.975 211.022H329.928Z" fill="#178369"/>
<path d="M302.316 234.345C325.829 228.361 391.842 165.646 392.502 165.033L391.983 164.609C391.324 165.222 325.452 227.796 302.128 233.78L302.316 234.345Z" fill="#116851"/>
<path d="M362.44 193.022C364.278 194.012 367.152 194.059 370.922 193.164L370.733 192.551C366.398 193.588 363.43 193.352 361.875 191.844C359.33 189.347 361.451 184.164 361.451 184.117L360.791 183.881C360.791 183.881 358.529 189.488 361.356 192.268C361.639 192.551 362.016 192.834 362.393 193.022H362.44Z" fill="#116851"/>
<path d="M378.366 178.84C380.204 179.829 383.078 179.876 386.847 178.981L386.659 178.368C382.324 179.405 379.356 179.169 377.801 177.662C375.256 175.164 377.377 169.981 377.377 169.934L376.717 169.698C376.717 169.698 374.455 175.306 377.282 178.086C377.565 178.368 377.942 178.651 378.319 178.84H378.366Z" fill="#116851"/>
<path d="M387.79 170.735C389.627 171.725 392.502 171.772 396.271 170.877L396.083 170.264C391.748 171.301 388.779 171.065 387.224 169.557C384.68 167.06 386.8 161.877 386.8 161.83L386.141 161.594C386.141 161.594 383.879 167.201 386.706 169.981C386.989 170.264 387.366 170.547 387.743 170.735H387.79Z" fill="#116851"/>
<path d="M369.602 186.567C371.157 187.415 373.513 187.415 376.669 186.661L376.481 186.048C372.947 186.897 370.45 186.708 369.225 185.483C367.152 183.457 368.895 179.169 368.895 179.122L368.235 178.886C368.235 178.886 366.35 183.551 368.706 185.86C368.942 186.096 369.272 186.331 369.602 186.52V186.567Z" fill="#116851"/>
<path d="M354.336 199.949C356.174 200.938 359.048 200.985 362.818 200.09L362.629 199.477C358.294 200.514 355.326 200.278 353.771 198.771C351.226 196.273 353.347 191.09 353.347 191.043L352.687 190.808C352.687 190.808 350.425 196.415 353.252 199.195C353.535 199.477 353.912 199.76 354.289 199.949H354.336Z" fill="#116851"/>
<path d="M345.666 208.525C347.503 209.514 350.378 209.561 354.147 208.666L353.959 208.053C349.624 209.09 346.655 208.854 345.1 207.347C342.556 204.849 344.676 199.666 344.676 199.619L344.017 199.384C344.017 199.384 341.755 204.991 344.582 207.771C344.865 208.053 345.242 208.336 345.619 208.525H345.666Z" fill="#116851"/>
<path d="M337.749 213.943C339.116 214.65 341.142 214.697 343.875 214.037L343.686 213.424C340.671 214.178 338.55 213.99 337.514 212.953C335.723 211.21 337.231 207.582 337.231 207.535L336.572 207.299C336.572 207.299 334.922 211.351 336.996 213.33C337.231 213.519 337.467 213.754 337.749 213.896V213.943Z" fill="#116851"/>
<g clip-path="url(#clip0_299_3565)">
<path d="M332.897 36.0771H25.7468V234.039H332.897V36.0771Z" fill="#255599"/>
<g filter="url(#filter0_d_299_3565)">
<path d="M46.7792 22.4656H154.112C168.031 22.4656 179.166 32.3637 179.166 44.427V233.109C179.166 221.046 168.031 211.148 154.112 211.148H46.7792C46.1606 211.148 45.542 211.148 45.2327 211.148V22.4656C45.8513 22.4656 46.4699 22.4656 46.7792 22.4656Z" fill="#F2F2F2"/>
</g>
<path d="M311.554 22.4673H204.222C190.303 22.4673 179.167 32.3654 179.167 44.4287V233.111C179.167 221.048 190.303 211.15 204.222 211.15H311.554C312.173 211.15 312.792 211.15 313.101 211.15V22.4673C312.792 22.4673 312.173 22.4673 311.554 22.4673Z" fill="#FCFCFC"/>
<g filter="url(#filter1_d_299_3565)">
<path d="M312.791 22.4651H205.459C191.54 22.4651 180.404 32.3632 180.404 44.4265V233.109C180.404 221.046 191.54 211.148 205.459 211.148H312.791C313.41 211.148 314.029 211.148 314.338 211.148V22.4651C313.719 22.4651 313.101 22.4651 312.791 22.4651Z" fill="#F2F2F2"/>
</g>
<path d="M202.675 68.553H292.995" stroke="#255599" stroke-width="1.5"/>
<path d="M202.675 108.764H292.995" stroke="#255599" stroke-width="1.5" stroke-dasharray="4 4"/>
<path d="M98.1265 157.637H85.4446" stroke="#255599" stroke-width="1.5"/>
<path d="M75.5469 157.638H62.865" stroke="#255599" stroke-width="1.5"/>
<path d="M80.4956 140.007V152.689" stroke="#255599" stroke-width="1.5"/>
<path d="M80.4956 162.587V175.269" stroke="#255599" stroke-width="1.5"/>
<g clip-path="url(#clip1_299_3565)">
<path d="M117.802 49.7091L100.402 50.0291L101.702 120.746L119.102 120.426L117.802 49.7091Z" fill="#F7C820"/>
<path d="M135.195 49.3869L117.795 49.7068L119.095 120.423L136.495 120.103L135.195 49.3869Z" fill="#F7C820"/>
<path d="M152.588 49.0644L135.188 49.3843L136.489 120.101L153.889 119.781L152.588 49.0644Z" fill="#F7C820"/>
<path opacity="0.25" d="M117.802 49.7091L100.402 50.0291L101.702 120.746L119.102 120.426L117.802 49.7091Z" fill="white"/>
<path opacity="0.25" d="M152.588 49.0644L135.188 49.3843L136.489 120.101L153.889 119.781L152.588 49.0644Z" fill="white"/>
<path d="M152.276 31.8799L100.094 32.8394L100.41 50.016L152.591 49.0566L152.276 31.8799Z" fill="#EEEBF3"/>
<path d="M152.385 37.8516L100.204 38.811L100.3 44.0589L152.482 43.0995L152.385 37.8516Z" fill="#DDD6E6"/>
<path d="M112.607 10.7751L138.94 10.291C146.067 10.1599 151.961 15.8411 152.092 22.9686L152.256 31.9012L100.075 32.8606L99.9108 23.928C99.7798 16.8005 105.461 10.9065 112.588 10.7755L112.607 10.7751Z" fill="#77D0E5"/>
<path d="M153.878 119.795L101.702 120.741L113.485 148.746L143.132 148.214L153.878 119.795Z" fill="white"/>
<path d="M134.119 172.048L143.132 148.214L113.485 148.746L123.382 172.245L134.119 172.048Z" fill="#2770B4"/>
</g>
</g>
<defs>
<filter id="filter0_d_299_3565" x="45.2327" y="21.4656" width="133.934" height="211.644" filterUnits="userSpaceOnUse" color-interpolation-filters="sRGB">
<feFlood flood-opacity="0" result="BackgroundImageFix"/>
<feColorMatrix in="SourceAlpha" type="matrix" values="0 0 0 0 0 0 0 0 0 0 0 0 0 0 0 0 0 0 127 0" result="hardAlpha"/>
<feOffset dy="-1"/>
<feComposite in2="hardAlpha" operator="out"/>
<feColorMatrix type="matrix" values="0 0 0 0 0 0 0 0 0 0 0 0 0 0 0 0 0 0 0.2 0"/>
<feBlend mode="normal" in2="BackgroundImageFix" result="effect1_dropShadow_299_3565"/>
<feBlend mode="normal" in="SourceGraphic" in2="effect1_dropShadow_299_3565" result="shape"/>
</filter>
<filter id="filter1_d_299_3565" x="180.404" y="21.4651" width="133.934" height="211.644" filterUnits="userSpaceOnUse" color-interpolation-filters="sRGB">
<feFlood flood-opacity="0" result="BackgroundImageFix"/>
<feColorMatrix in="SourceAlpha" type="matrix" values="0 0 0 0 0 0 0 0 0 0 0 0 0 0 0 0 0 0 127 0" result="hardAlpha"/>
<feOffset dy="-1"/>
<feComposite in2="hardAlpha" operator="out"/>
<feColorMatrix type="matrix" values="0 0 0 0 0 0 0 0 0 0 0 0 0 0 0 0 0 0 0.2 0"/>
<feBlend mode="normal" in2="BackgroundImageFix" result="effect1_dropShadow_299_3565"/>
<feBlend mode="normal" in="SourceGraphic" in2="effect1_dropShadow_299_3565" result="shape"/>
</filter>
<clipPath id="clip0_299_3565">
<rect width="314.883" height="232.915" fill="white" transform="translate(21.7258 5.14551)"/>
</clipPath>
<clipPath id="clip1_299_3565">
<rect width="131.201" height="131.201" fill="white" transform="translate(34.386 86.4634) rotate(-46.0533)"/>
</clipPath>
</defs>
</svg>
