<svg width="80" height="68" viewBox="0 0 80 68" fill="none" xmlns="http://www.w3.org/2000/svg">
<g clip-path="url(#clip0_364_15605)">
<path d="M79.9729 6.63818C79.9713 3.60085 77.4987 1.11925 74.4609 1.10645L5.53501 0.817383C2.46462 0.817383 -0.0164512 3.31072 8.21534e-05 6.38218L0.245949 52.2254C0.262482 55.2553 2.74088 57.7251 5.77075 57.7304L35.2155 57.7859L34.9675 61.1385L23.6646 64.2761L14.6107 67.9427L64.1126 67.884L56.9051 64.211L45.7318 61.2574L45.479 57.8051L74.4651 57.8601C77.5249 57.8601 80.0017 55.3827 79.9995 52.3214L79.9723 6.63712L79.9729 6.63818Z" fill="white"/>
<path d="M37.44 53.0212L36.7328 62.5866L24.1643 66.0756L56.4278 66.017L43.967 62.7226L43.2854 53.418L37.44 53.0212Z" fill="#1D1D3D"/>
<path d="M1.86777 6.37158L2.11364 52.2148C2.12431 54.2303 3.75897 55.859 5.77444 55.8628L74.4582 55.9924C76.4875 55.9961 78.1339 54.3518 78.1328 52.3225L78.1056 6.63825C78.1046 4.61958 76.472 2.98118 74.4534 2.97265L5.55044 2.68411C3.51097 2.67558 1.85657 4.33211 1.86724 6.37158H1.86777Z" fill="#ABA2F9"/>
<path d="M3.65186 7.94882L3.88599 46.0806C3.89612 47.7568 5.45452 49.112 7.37559 49.1152L72.846 49.2235C74.7804 49.2267 76.35 47.8587 76.3489 46.1707L76.3233 8.17122C76.3223 6.49228 74.766 5.12908 72.8417 5.12215L7.16332 4.88162C5.21932 4.87468 3.64226 6.25228 3.65239 7.94882H3.65186Z" fill="#E3F2F5"/>
<path d="M19.0101 34.9147L19.3536 43.9499C19.3899 44.9078 20.1845 45.6609 21.1429 45.6465L36.7232 45.4107C37.6816 45.3963 38.4533 44.6187 38.4603 43.6598L38.5115 36.5259C38.5184 35.5457 37.7248 34.7473 36.744 34.7494L28.5045 34.7665L26.184 32.9414L20.7259 33.0843C19.744 33.1099 18.9723 33.9329 19.0096 34.9147H19.0101Z" fill="#EDD45B"/>
<path d="M43.319 34.8951L43.6454 43.9308C43.68 44.8887 44.4731 45.6433 45.4315 45.6305L61.0123 45.4247C61.9712 45.4119 62.744 44.6359 62.7526 43.6769L62.8176 36.5431C62.8267 35.5628 62.0342 34.7633 61.0539 34.7633L52.8144 34.7644L50.4976 32.9351L45.0395 33.0679C44.0576 33.0919 43.2843 33.9132 43.3195 34.8945L43.319 34.8951Z" fill="#EDD45B"/>
<path d="M47.494 28.7199V21.6169H46.6828V28.7199C46.277 28.8815 45.9895 29.2772 45.9895 29.7407C45.9895 30.3476 46.4818 30.8399 47.0887 30.8399C47.6956 30.8399 48.1879 30.3476 48.1879 29.7407C48.1879 29.2772 47.9004 28.8815 47.4946 28.7199H47.494Z" fill="#FF605B"/>
<path d="M41.0978 28.7199V21.6169H40.2866V28.7199C39.8807 28.8815 39.5933 29.2772 39.5933 29.7407C39.5933 30.3476 40.0855 30.8399 40.6925 30.8399C41.2994 30.8399 41.7917 30.3476 41.7917 29.7407C41.7917 29.2772 41.5042 28.8815 41.0983 28.7199H41.0978Z" fill="#FF605B"/>
<path d="M34.997 28.7199V21.6169H34.1858V28.7199C33.7799 28.8815 33.4924 29.2772 33.4924 29.7407C33.4924 30.3476 33.9847 30.8399 34.5916 30.8399C35.1986 30.8399 35.6908 30.3476 35.6908 29.7407C35.6908 29.2772 35.4034 28.8815 34.9975 28.7199H34.997Z" fill="#FF605B"/>
<path d="M46.0871 14.5665C47.7959 13.5927 51.2172 14.1073 52.7729 14.8263C56.5628 16.5777 55.8748 20.9655 52.6337 22.2743C51.558 22.7089 50.3676 22.7356 49.2076 22.7511C44.3537 22.8151 39.4988 22.7772 34.6465 22.6375C28.8503 22.4705 26.5159 22.0519 26.0951 19.2161C25.4892 15.134 29.6769 12.0215 33.0012 13.646C32.7703 10.4343 35.334 6.96492 40.2305 7.47052C46.1905 8.08599 45.7196 12.8455 46.0871 14.5665Z" fill="#76A0EE"/>
</g>
<defs>
<clipPath id="clip0_364_15605">
<rect width="80" height="67.1264" fill="white" transform="translate(0 0.817383)"/>
</clipPath>
</defs>
</svg>
