<svg width="79" height="85" viewBox="0 0 79 85" fill="none" xmlns="http://www.w3.org/2000/svg">
<g clip-path="url(#clip0_364_15534)">
<path d="M7.1936 61.5455L7.4188 60.7834C7.90674 59.1323 9.63446 58.1928 11.3491 58.6995L59.6131 72.9624L60.5514 69.7871L12.2874 55.5243C8.85817 54.5108 5.3017 56.4981 4.30705 59.8639L4.08185 60.6259C3.06843 64.0552 5.05568 67.6117 8.42146 68.6063L56.6854 82.8692L57.6238 79.6939L9.3598 65.4311C7.70867 64.9431 6.70566 63.1966 7.1936 61.5455Z" fill="#1BA2C3"/>
<path d="M11.3679 58.6359C9.71673 58.148 7.92551 59.0687 7.43757 60.7199L7.21236 61.4819C6.72442 63.1331 7.66392 64.8608 9.37856 65.3675L57.6425 79.6304L59.6506 72.8353L11.3866 58.5724L11.3679 58.6359Z" fill="#EEEEEE"/>
<path d="M27.4513 4.21151C24.022 3.19809 20.4655 5.18534 19.4709 8.55112L4.32594 59.7998C5.33936 56.3705 8.94057 54.4656 12.3063 55.4602L13.5129 55.8168L28.6579 4.56808L27.4513 4.21151Z" fill="#1BA2C4"/>
<path d="M75.6518 18.4557L28.658 4.56812L13.513 55.8168L60.5069 69.7043L75.6518 18.4557Z" fill="#1FB9DF"/>
<path d="M12.8499 62.7332L54.1282 74.9317" stroke="#8EBAEF" stroke-width="1.5"/>
<path d="M34.4419 36.8675L31.6477 36.0417" stroke="#255599" stroke-width="1.5"/>
<path d="M29.4248 35.3843L26.6306 34.5586" stroke="#255599" stroke-width="1.5"/>
<path d="M31.6685 31.7664L30.8427 34.5606" stroke="#255599" stroke-width="1.5"/>
<path d="M30.1858 36.7832L29.36 39.5774" stroke="#255599" stroke-width="1.5"/>
<path d="M22.8936 49.5427L22.2555 51.7019" stroke="#255599" stroke-width="1.5"/>
<path d="M29.6887 51.5508L29.0506 53.71" stroke="#255599" stroke-width="1.5"/>
<path d="M36.4836 53.5596L35.8456 55.7187" stroke="#255599" stroke-width="1.5"/>
<path d="M43.2788 55.5669L42.6407 57.7261" stroke="#255599" stroke-width="1.5"/>
<path d="M50.1375 57.5942L49.4994 59.7534" stroke="#255599" stroke-width="1.5"/>
<path d="M56.9324 59.6018L56.2943 61.761" stroke="#255599" stroke-width="1.5"/>
<path d="M53.7095 23.8392L46.0137 21.5649L46.4391 20.1255L49.3891 20.9973L49.7513 19.7717L51.5613 20.3066L51.1991 21.5322L54.1349 22.3998L53.7095 23.8392ZM45.8111 24.5578C45.9501 24.0875 46.2083 23.7118 46.5858 23.4308C46.968 23.1512 47.4332 22.9839 47.9815 22.929C48.5312 22.8693 49.1172 22.9314 49.7395 23.1153C50.3618 23.2992 50.885 23.5649 51.3092 23.9124C51.7348 24.2551 52.0273 24.6463 52.1866 25.0859C52.3507 25.527 52.3632 25.9827 52.2242 26.453C52.0853 26.9233 51.827 27.2989 51.4496 27.5799C51.0769 27.8624 50.618 28.0341 50.0731 28.0952C49.5296 28.1515 48.9467 28.0877 48.3244 27.9038C47.7021 27.7199 47.1757 27.4559 46.7454 27.1118C46.3165 26.7629 46.0176 26.3673 45.8487 25.9248C45.6847 25.4837 45.6721 25.0281 45.8111 24.5578ZM45.7688 28.1094L54.5049 30.691L53.2372 34.9807L51.4131 34.4417L52.2512 31.6056L45.3392 29.563L45.7688 28.1094ZM47.5925 25.0842C47.4923 25.4058 47.5445 25.6924 47.7491 25.944C47.9598 26.1923 48.2892 26.38 48.7371 26.5072C49.187 26.6453 49.5679 26.6675 49.8797 26.5737C50.1976 26.4765 50.4044 26.2664 50.4998 25.9434C50.5967 25.6156 50.5381 25.3245 50.324 25.0701C50.1113 24.811 49.7817 24.6154 49.3352 24.4835C48.8886 24.3515 48.508 24.3372 48.1934 24.4405C47.8849 24.5405 47.6846 24.755 47.5925 25.0842ZM55.2456 21.4728L57.0698 22.0119L56.0758 25.3753L57.8288 25.8933L57.3908 27.3754L55.6378 26.8574L54.665 30.1495L52.8408 29.6104L55.2456 21.4728Z" fill="white"/>
<path d="M43.8232 26.0931L38.8067 24.6106L38.5224 25.5726C39.6339 25.9889 40.4466 26.4899 40.9605 27.0757C41.4744 27.6614 41.6354 28.2875 41.4437 28.954C41.2929 29.4466 40.9851 29.8154 40.5201 30.0602C40.0552 30.3051 39.4564 30.4174 38.7238 30.3971C37.9958 30.3783 37.1663 30.2313 36.2352 29.9562C35.2899 29.6768 34.5019 29.3458 33.8711 28.9631C33.2452 28.5818 32.8036 28.1621 32.5465 27.7039C32.2879 27.2504 32.2323 26.7742 32.3797 26.2754C32.5777 25.6056 33.0539 25.1653 33.8084 24.9543C34.5629 24.7434 35.5316 24.7688 36.7146 25.0306L36.9968 24.0758L31.9945 22.5975L32.4283 21.1296L44.257 24.6252L43.8232 26.0931ZM33.5199 19.3757C34.3092 19.5367 35.0183 19.6016 35.6473 19.5705C36.2763 19.5395 36.8002 19.436 37.2189 19.2602C37.6424 19.0857 37.9574 18.8586 38.1641 18.5787L34.6654 17.5448L35.0865 16.1196L44.7633 18.9793L44.3421 20.4044L40.8149 19.3621C40.8315 19.7079 40.967 20.0708 41.2215 20.4507C41.4821 20.8273 41.8703 21.2003 42.3862 21.5697C42.9082 21.9358 43.5536 22.2686 44.3226 22.5681L43.2601 23.8037C42.0919 23.3345 41.1617 22.7678 40.4696 22.1036C39.7789 21.4346 39.3508 20.7244 39.1855 19.973C38.643 20.5152 37.9 20.8793 36.9566 21.0654C36.0132 21.2515 34.9268 21.2223 33.6974 20.9778L33.5199 19.3757ZM34.2324 26.8229C34.135 27.1351 34.2874 27.441 34.6896 27.7406C35.0965 28.0416 35.7465 28.3241 36.6396 28.588C37.5184 28.8477 38.2104 28.9619 38.7156 28.9304C39.2208 28.8989 39.5221 28.727 39.6195 28.4149C39.8042 27.7722 39.0033 27.1791 37.2165 26.6356C36.3111 26.3783 35.6089 26.2638 35.1099 26.292C34.617 26.3168 34.3245 26.4938 34.2324 26.8229Z" fill="white"/>
</g>
<defs>
<clipPath id="clip0_364_15534">
<rect width="60.8696" height="70" fill="white" transform="translate(20.2322) rotate(16.4634)"/>
</clipPath>
</defs>
</svg>
