<svg width="238" height="89" viewBox="0 0 238 89" fill="none" xmlns="http://www.w3.org/2000/svg">
<path d="M190.619 62.4677L7.87535 88.1506L49.4375 27.0938C50.197 25.9892 51.6661 25.2006 53.3786 24.9599L224.95 0.847098C228.701 0.319916 231.351 2.60848 229.774 4.99225L190.619 62.4677Z" fill="#92C5FF"/>
<path d="M66.8238 43.1124C111.103 36.8894 155.382 30.6664 199.743 24.4319C200.395 24.3402 200.246 23.2801 199.594 23.3718C155.315 29.5948 111.036 35.8178 66.6748 42.0523C66.0225 42.144 66.1714 43.2041 66.8238 43.1124Z" fill="#3D98EA"/>
<path d="M49.0064 63.0782C93.2856 56.8552 137.565 50.6322 181.926 44.3977C182.578 44.306 182.429 43.2459 181.777 43.3376C137.497 49.5606 93.2182 55.7837 48.8574 62.0182C48.2165 62.1914 48.3541 63.1699 49.0064 63.0782Z" fill="#3D98EA"/>
</svg>
