<svg width="25" height="24" viewBox="0 0 25 24" fill="none" xmlns="http://www.w3.org/2000/svg">
<path d="M20.0181 17.237C20.0181 17.7912 19.569 18.2399 19.0148 18.2399H4.9849C4.43156 18.2399 3.98242 17.7912 3.98242 17.237V6.00249C3.98242 5.44915 4.43156 5 4.9849 5H19.0148C19.569 5 20.0181 5.44915 20.0181 6.00249V17.237Z" fill="#F8CE00" stroke="#333333" stroke-width="1.5" stroke-linecap="round" stroke-linejoin="round"/>
<path d="M20.6293 19.2756H3.36986C2.61477 19.2756 2 18.6604 2 17.9057V16.6807V16.3125H2.36778H9.63221H9.92654L9.99087 16.5985C10.0573 16.8895 10.3109 17.0917 10.6081 17.0917H13.3915C13.6874 17.0917 13.9411 16.8895 14.0083 16.5985L14.0726 16.3125H14.3661H21.6314H22V16.6807V17.9057C22.0004 18.66 21.3852 19.2756 20.6293 19.2756Z" fill="white" stroke="#333333" stroke-width="1.5" stroke-linecap="round" stroke-linejoin="round"/>
<path d="M7.51562 12.793H16.4861" stroke="#333333" stroke-width="1.5" stroke-linecap="round" stroke-linejoin="round"/>
</svg>
