<svg width="80" height="69" viewBox="0 0 80 69" fill="none" xmlns="http://www.w3.org/2000/svg">
<g clip-path="url(#clip0_364_15620)">
<path d="M79.8069 12.745C79.7952 10.329 78.2085 8.27402 76.0261 7.55616L76.0363 5.84523C76.0523 3.04469 73.7984 0.766293 70.9973 0.751893L48.2501 0.639893C45.3787 0.639893 43.0779 3.02123 43.1904 5.90069L43.2443 7.28149H36.2219L36.2304 5.84469C36.2464 3.04416 33.9925 0.765759 31.1915 0.751359L8.44375 0.639893C5.57228 0.639893 3.27148 3.02123 3.38348 5.90069L3.45388 7.70976C1.47681 8.53643 0.105081 10.4788 0.099748 12.7551L1.465e-05 54.6543C-0.00691868 57.6906 2.44801 60.1551 5.48641 60.1551L5.58615 60.154L33.4901 59.6527L33.6219 61.9599H29.0789L28.9563 68.0042L53.5003 68.1215L52.4555 61.9599H48.4027L48.2309 59.3882L74.6112 58.914C77.5973 58.8602 80.0149 56.3871 80.0005 53.401L79.8075 12.7455L79.8069 12.745Z" fill="white"/>
<path d="M35.1577 54.5435L35.7257 64.5051L46.6473 65.0304L45.9497 54.5904L35.1577 54.5435Z" fill="#C1CFD2"/>
<path d="M2.05482 12.7596L1.95509 54.6588C1.95029 56.638 3.57216 58.2348 5.55082 58.1991L74.5748 56.9585C76.5071 56.9239 78.0527 55.3426 78.0436 53.4098L77.8506 12.7543C77.8415 10.8103 76.2628 9.23855 74.3183 9.23855L5.58656 9.23535C3.63882 9.23535 2.05856 10.8119 2.05376 12.7596H2.05482Z" fill="#E3F2F5"/>
<path d="M5.3376 5.82507L5.92694 20.968C5.992 22.6448 7.376 23.9669 9.05387 23.9557L31.1003 23.8091C32.8021 23.7979 34.1781 22.4203 34.1883 20.7184L34.2741 5.83414C34.2843 4.11627 32.8987 2.71627 31.1808 2.70774L8.4592 2.59574C6.68907 2.58721 5.2688 4.05654 5.3376 5.82507Z" fill="#76A0EE"/>
<path d="M25.2228 16.1837C21.9503 14.2541 17.5919 14.5255 14.4068 16.6039C11.8522 18.2706 10.0804 20.9858 9.33911 23.9517L30.2852 23.8146C29.6255 20.6765 27.9498 17.7922 25.2234 16.1837H25.2228Z" fill="#EDD45B"/>
<path d="M19.593 4.70803C17.2314 4.8035 15.8068 5.41523 15.6298 7.82697C15.497 9.62963 16.385 11.4734 17.8767 12.4936C19.1652 13.3752 20.3487 13.188 21.2879 12.291C23.6138 10.0691 23.2852 4.55923 19.593 4.70803Z" fill="#EDD45B"/>
<path d="M45.144 5.82507L45.7333 20.968C45.7984 22.6448 47.1824 23.9669 48.8603 23.9557L70.9067 23.8091C72.6085 23.7979 73.9845 22.4203 73.9947 20.7184L74.0805 5.83414C74.0907 4.11627 72.7051 2.71627 70.9872 2.70774L48.2656 2.59574C46.4955 2.58721 45.0752 4.05654 45.144 5.82507Z" fill="#F48682"/>
<path d="M65.0292 16.1837C61.7567 14.2541 57.3983 14.5255 54.2132 16.6039C51.6591 18.2706 49.8868 20.9858 49.1455 23.9517L70.0916 23.8146C69.4319 20.6765 67.7562 17.7922 65.0298 16.1837H65.0292Z" fill="#7AD001"/>
<path d="M59.3994 4.70803C57.0378 4.8035 55.6132 5.41523 55.4362 7.82697C55.3034 9.62963 56.1914 11.4734 57.6831 12.4936C58.9716 13.3752 60.1551 13.188 61.0943 12.291C63.4202 10.0691 63.0916 4.55923 59.3994 4.70803Z" fill="#7AD001"/>
<path d="M5.75045 31.7994L6.33978 46.9424C6.40485 48.6192 7.78885 49.9413 9.46671 49.9301L31.5131 49.7834C33.215 49.7722 34.591 48.3946 34.6011 46.6928L34.687 31.8085C34.6971 30.0906 33.3115 28.6906 31.5936 28.6821L8.87205 28.5701C7.10191 28.5616 5.68165 30.0309 5.75045 31.7994Z" fill="#EDD45B"/>
<path d="M25.6357 42.159C22.3632 40.2294 18.0048 40.5009 14.8197 42.5793C12.2656 44.2459 10.4933 46.9611 9.75195 49.927L30.6981 49.7899C30.0384 46.6518 28.3626 43.7675 25.6362 42.159H25.6357Z" fill="#F48682"/>
<path d="M20.0058 30.6826C17.6442 30.7781 16.2197 31.3898 16.0426 33.8016C15.9098 35.6042 16.7978 37.448 18.2895 38.4682C20.2831 39.8314 22.0549 38.5882 22.8175 36.4074C23.9647 33.1264 22.3066 30.5898 20.0058 30.6826Z" fill="#F48682"/>
<path d="M45.5561 31.7994L46.1454 46.9424C46.2105 48.6192 47.5945 49.9413 49.2724 49.9301L71.3188 49.7834C73.0206 49.7722 74.3966 48.3946 74.4068 46.6928L74.4926 31.8085C74.5028 30.0906 73.1172 28.6906 71.3993 28.6821L48.6777 28.5701C46.9076 28.5616 45.4873 30.0309 45.5561 31.7994Z" fill="#ABA2F9"/>
<path d="M65.4421 42.159C62.1696 40.2294 57.8112 40.5009 54.6261 42.5793C52.072 44.2459 50.2997 46.9611 49.5583 49.927L70.5045 49.7899C69.8447 46.6518 68.169 43.7675 65.4426 42.159H65.4421Z" fill="#76A0EE"/>
<path d="M55.8483 33.8016C55.7155 35.6042 56.6035 37.448 58.0952 38.4682C60.0653 39.8154 61.844 38.6357 62.6232 36.4074C63.0333 35.2346 63.1475 33.9226 62.7229 32.7552C61.6467 29.7946 56.1475 29.737 55.8483 33.8016Z" fill="#76A0EE"/>
<path d="M30.9946 63.9155L30.9514 66.0585L51.1829 66.1555L50.8031 63.9155H30.9946Z" fill="#E3F2F5"/>
</g>
<defs>
<clipPath id="clip0_364_15620">
<rect width="80" height="67.4816" fill="white" transform="translate(0 0.639893)"/>
</clipPath>
</defs>
</svg>
