<svg width="202" height="151" viewBox="0 0 202 151" fill="none" xmlns="http://www.w3.org/2000/svg">
<path d="M19.0703 26.5L7.76172 29.1252V144.432L19.0703 145.644V26.5Z" fill="#E24A08"/>
<path d="M19.0703 26.5L74.9063 34.9814V137.667L19.0703 145.745V26.5Z" fill="#FF5106"/>
<g style="mix-blend-mode:overlay">
<path d="M72.8552 63.5099V81.9313C67.8676 81.7832 63.8726 77.7087 63.8726 72.7206C63.8726 67.7325 67.8924 63.6581 72.8552 63.5099ZM73.1281 63.2383C67.8676 63.2383 63.5996 67.4856 63.5996 72.7206C63.5996 77.9557 67.8676 82.203 73.1281 82.203V63.2383Z" fill="#FFB600"/>
<path d="M62.9016 76.3242C57.641 76.3242 53.373 80.5715 53.373 85.8066C53.373 91.0416 57.641 95.2889 62.9016 95.2889V76.3242Z" fill="#FF5A12"/>
<path d="M19.666 84.9686C24.9266 84.9686 29.1946 80.7213 29.1946 75.4863C29.1946 70.2512 24.9266 66.0039 19.666 66.0039V84.9686Z" fill="#C3C3C3"/>
<path d="M20.8921 109.317C25.8797 109.465 29.8747 113.539 29.8747 118.527C29.8747 123.515 25.8797 127.59 20.8921 127.738V109.317ZM20.6191 109.045V127.985C25.8797 127.985 30.1477 123.738 30.1477 118.503C30.1229 113.292 25.8797 109.045 20.6191 109.045Z" fill="#FFB600"/>
<path d="M32.8276 76.3009C37.8152 76.4491 41.8103 80.5235 41.8103 85.5116C41.8103 90.4998 37.8152 94.5742 32.8276 94.7224V76.3009ZM32.5547 76.0293V94.9693C37.8152 94.9693 42.0832 90.722 42.0832 85.487C42.0832 80.2519 37.8152 76.0293 32.5547 76.0293Z" fill="#FFB600"/>
<path d="M34.1418 88.623C28.8813 88.623 24.6133 92.8703 24.6133 98.1054C24.6133 103.34 28.8813 107.588 34.1418 107.588V88.623Z" fill="#FF5A12"/>
<path d="M53.8203 56.5467C59.0809 56.5467 63.3488 52.2994 63.3488 47.0644C63.3488 41.8293 59.0809 37.582 53.8203 37.582V56.5467Z" fill="#FFB600"/>
<path d="M68.1867 119.539C62.9262 119.539 58.6582 123.786 58.6582 129.021C58.6582 134.256 62.9262 138.504 68.1867 138.504V119.539Z" fill="#FF5A12"/>
<path d="M60.1968 86.1037C65.1844 86.2518 69.1794 90.3263 69.1794 95.3144C69.1794 100.302 65.1844 104.377 60.1968 104.525V86.1037ZM59.9238 85.832V104.772C65.1844 104.772 69.4524 100.525 69.4524 95.2897C69.4524 90.0793 65.1844 85.832 59.9238 85.832Z" fill="#C3C3C3"/>
<path d="M55.2832 117.045C60.5437 117.045 64.8117 112.797 64.8117 107.562C64.8117 102.327 60.5437 98.0801 55.2832 98.0801V117.045Z" fill="#FFB600"/>
<g opacity="0.19">
<path d="M22.5784 55.6816H22.2559V130.503H22.5784V55.6816Z" fill="#C3C3C3"/>
</g>
<mask id="mask0_4_40646" style="mask-type:luminance" maskUnits="userSpaceOnUse" x="54" y="46" width="15" height="14">
<path d="M61.8104 59.7316C65.6202 59.7316 68.7086 56.6581 68.7086 52.8668C68.7086 49.0754 65.6202 46.002 61.8104 46.002C58.0006 46.002 54.9121 49.0754 54.9121 52.8668C54.9121 56.6581 58.0006 59.7316 61.8104 59.7316Z" fill="white"/>
</mask>
<g mask="url(#mask0_4_40646)">
<g opacity="0.6">
<path d="M76.9211 58.2086L68.499 66.5898L68.6043 66.6946L77.0263 58.3134L76.9211 58.2086Z" fill="#C3C3C3"/>
<path d="M77.5078 56.1044L66.8574 66.7031L66.9627 66.8079L77.6131 56.2092L77.5078 56.1044Z" fill="#C3C3C3"/>
<path d="M77.6442 54.4795L65.2217 66.8418L65.327 66.9466L77.7495 54.5843L77.6442 54.4795Z" fill="#C3C3C3"/>
<path d="M77.7806 52.8585L63.5859 66.9844L63.6912 67.0891L77.8859 52.9633L77.7806 52.8585Z" fill="#C3C3C3"/>
<path d="M78.3673 50.7875L61.9443 67.1309L62.0496 67.2356L78.4726 50.8923L78.3673 50.7875Z" fill="#C3C3C3"/>
<path d="M78.4921 49.1421L59.8584 67.6855L59.9637 67.7903L78.5974 49.2469L78.4921 49.1421Z" fill="#C3C3C3"/>
<path d="M78.6285 47.5212L58.2227 67.8281L58.3279 67.9329L78.7338 47.6259L78.6285 47.5212Z" fill="#C3C3C3"/>
<path d="M79.2143 45.4501L56.5801 67.9746L56.6854 68.0794L79.3196 45.5549L79.2143 45.4501Z" fill="#C3C3C3"/>
<path d="M79.3341 43.8077L54.9277 68.0957L55.033 68.2005L79.4394 43.9124L79.3341 43.8077Z" fill="#C3C3C3"/>
<path d="M79.9199 41.7365L53.3027 68.2246L53.408 68.3294L80.0251 41.8413L79.9199 41.7365Z" fill="#C3C3C3"/>
<path d="M80.0563 40.1155L51.667 68.3672L51.7723 68.472L80.1615 40.2203L80.0563 40.1155Z" fill="#C3C3C3"/>
<path d="M80.1751 38.475L50.0137 68.4902L50.1189 68.595L80.2804 38.5798L80.1751 38.475Z" fill="#C3C3C3"/>
<path d="M80.7608 36.404L48.3711 68.6367L48.4764 68.7415L80.8661 36.5087L80.7608 36.404Z" fill="#C3C3C3"/>
<path d="M80.8972 34.7811L46.7354 68.7773L46.8406 68.8821L81.0025 34.8858L80.8972 34.7811Z" fill="#C3C3C3"/>
<path d="M81.017 33.1406L45.083 68.9004L45.1883 69.0052L81.1223 33.2453L81.017 33.1406Z" fill="#C3C3C3"/>
<path d="M81.6204 31.0519L43.458 69.0293L43.5633 69.1341L81.7256 31.1567L81.6204 31.0519Z" fill="#C3C3C3"/>
<path d="M81.7567 29.429L41.8223 69.1699L41.9275 69.2747L81.862 29.5338L81.7567 29.429Z" fill="#C3C3C3"/>
<path d="M81.8756 27.7905L40.1689 69.2949L40.2742 69.3997L81.9808 27.8952L81.8756 27.7905Z" fill="#C3C3C3"/>
<path d="M82.4673 25.7145L38.0938 69.873L38.199 69.9778L82.5726 25.8193L82.4673 25.7145Z" fill="#C3C3C3"/>
<path d="M82.6039 24.0916L36.4581 70.0137L36.5634 70.1184L82.7091 24.1964L82.6039 24.0916Z" fill="#C3C3C3"/>
<path d="M82.7226 22.4531L34.8047 70.1387L34.91 70.2434L82.8278 22.5578L82.7226 22.4531Z" fill="#C3C3C3"/>
<path d="M83.3073 20.3781L33.1611 70.2812L33.2664 70.386L83.4126 20.4829L83.3073 20.3781Z" fill="#C3C3C3"/>
<path d="M83.4542 18.7228L31.4131 70.5117L31.5184 70.6165L83.5595 18.8276L83.4542 18.7228Z" fill="#C3C3C3"/>
</g>
</g>
<mask id="mask1_4_40646" style="mask-type:luminance" maskUnits="userSpaceOnUse" x="37" y="74" width="8" height="9">
<path d="M40.9666 82.1773C42.9674 82.1773 44.5894 80.5632 44.5894 78.5721C44.5894 76.5809 42.9674 74.9668 40.9666 74.9668C38.9657 74.9668 37.3438 76.5809 37.3438 78.5721C37.3438 80.5632 38.9657 82.1773 40.9666 82.1773Z" fill="white"/>
</mask>
<g mask="url(#mask1_4_40646)">
<g opacity="0.6">
<path d="M48.8815 81.3831L44.46 85.7832L44.5126 85.8356L48.9342 81.4355L48.8815 81.3831Z" fill="#C3C3C3"/>
<path d="M49.2143 80.2874L43.6172 85.8574L43.6698 85.9098L49.267 80.3398L49.2143 80.2874Z" fill="#C3C3C3"/>
<path d="M49.2732 79.4391L42.7461 85.9346L42.7987 85.987L49.3258 79.4915L49.2732 79.4391Z" fill="#C3C3C3"/>
<path d="M49.3496 78.5733L41.8926 85.9941L41.9452 86.0465L49.4022 78.6257L49.3496 78.5733Z" fill="#C3C3C3"/>
<path d="M49.6472 77.4757L41.0146 86.0664L41.0673 86.1188L49.6999 77.528L49.6472 77.4757Z" fill="#C3C3C3"/>
<path d="M49.7125 76.6338L39.9219 86.377L39.9745 86.4293L49.7651 76.6862L49.7125 76.6338Z" fill="#C3C3C3"/>
<path d="M49.7889 75.7689L39.0684 86.4375L39.121 86.4899L49.8415 75.8213L49.7889 75.7689Z" fill="#C3C3C3"/>
<path d="M50.1041 74.6537L38.208 86.4922L38.2606 86.5446L50.1568 74.7061L50.1041 74.6537Z" fill="#C3C3C3"/>
<path d="M50.163 73.8064L37.3369 86.5703L37.3896 86.6227L50.2156 73.8588L50.163 73.8064Z" fill="#C3C3C3"/>
<path d="M50.4782 72.7273L36.4941 86.6436L36.5468 86.6959L50.5309 72.7796L50.4782 72.7273Z" fill="#C3C3C3"/>
<path d="M50.5371 71.8809L35.623 86.7227L35.6757 86.775L50.5897 71.9333L50.5371 71.8809Z" fill="#C3C3C3"/>
<path d="M50.6125 71.0152L34.751 86.7998L34.8036 86.8522L50.6651 71.0676L50.6125 71.0152Z" fill="#C3C3C3"/>
<path d="M50.9111 69.9204L33.8916 86.8574L33.9442 86.9098L50.9638 69.9728L50.9111 69.9204Z" fill="#C3C3C3"/>
<path d="M50.969 69.0731L33.0195 86.9355L33.0722 86.9879L51.0216 69.1255L50.969 69.0731Z" fill="#C3C3C3"/>
<path d="M51.0454 68.2063L32.166 86.9941L32.2187 87.0465L51.098 68.2586L51.0454 68.2063Z" fill="#C3C3C3"/>
<path d="M51.3616 67.1262L31.3066 87.084L31.3593 87.1364L51.4143 67.1786L51.3616 67.1262Z" fill="#C3C3C3"/>
<path d="M51.4371 66.2604L30.4521 87.1436L30.5048 87.1959L51.4897 66.3128L51.4371 66.2604Z" fill="#C3C3C3"/>
<path d="M51.4959 65.414L29.5811 87.2227L29.6337 87.275L51.5485 65.4664L51.4959 65.414Z" fill="#C3C3C3"/>
<path d="M51.8175 64.3033L28.499 87.5088L28.5517 87.5612L51.8702 64.3557L51.8175 64.3033Z" fill="#C3C3C3"/>
<path d="M51.8764 63.457L27.6279 87.5879L27.6806 87.6403L51.929 63.5094L51.8764 63.457Z" fill="#C3C3C3"/>
<path d="M51.9518 62.5921L26.7734 87.6484L26.8261 87.7008L52.0044 62.6445L51.9518 62.5921Z" fill="#C3C3C3"/>
<path d="M52.2495 61.4965L25.8955 87.7227L25.9481 87.775L52.3021 61.5488L52.2495 61.4965Z" fill="#C3C3C3"/>
<path d="M52.3384 60.6203L24.9844 87.8418L25.037 87.8942L52.3911 60.6727L52.3384 60.6203Z" fill="#C3C3C3"/>
</g>
</g>
<mask id="mask2_4_40646" style="mask-type:luminance" maskUnits="userSpaceOnUse" x="56" y="113" width="15" height="14">
<path d="M63.7205 126.898C67.5303 126.898 70.6188 123.824 70.6188 120.033C70.6188 116.241 67.5303 113.168 63.7205 113.168C59.9107 113.168 56.8223 116.241 56.8223 120.033C56.8223 123.824 59.9107 126.898 63.7205 126.898Z" fill="white"/>
</mask>
<g mask="url(#mask2_4_40646)">
<g opacity="0.6">
<path d="M78.8214 125.367L70.3994 133.748L70.5047 133.853L78.9267 125.472L78.8214 125.367Z" fill="#C3C3C3"/>
<path d="M79.4082 123.296L68.7578 133.895L68.8631 133.999L79.5134 123.401L79.4082 123.296Z" fill="#C3C3C3"/>
<path d="M79.527 121.653L67.1045 134.016L67.2098 134.12L79.6323 121.758L79.527 121.653Z" fill="#C3C3C3"/>
<path d="M79.6634 120.032L65.4688 134.158L65.574 134.263L79.7687 120.137L79.6634 120.032Z" fill="#C3C3C3"/>
<path d="M80.2677 117.944L63.8447 134.287L63.95 134.392L80.373 118.049L80.2677 117.944Z" fill="#C3C3C3"/>
<path d="M80.375 116.316L61.7412 134.859L61.8465 134.964L80.4802 116.421L80.375 116.316Z" fill="#C3C3C3"/>
<path d="M80.5114 114.695L60.1055 135.002L60.2107 135.107L80.6166 114.8L80.5114 114.695Z" fill="#C3C3C3"/>
<path d="M81.1147 112.606L58.4805 135.131L58.5857 135.236L81.22 112.711L81.1147 112.606Z" fill="#C3C3C3"/>
<path d="M81.2335 110.964L56.8271 135.252L56.9324 135.357L81.3388 111.069L81.2335 110.964Z" fill="#C3C3C3"/>
<path d="M81.8027 108.91L55.1855 135.398L55.2908 135.503L81.908 109.015L81.8027 108.91Z" fill="#C3C3C3"/>
<path d="M81.9391 107.289L53.5498 135.541L53.6551 135.646L82.0444 107.394L81.9391 107.289Z" fill="#C3C3C3"/>
<path d="M82.0755 105.666L51.9141 135.682L52.0193 135.786L82.1807 105.771L82.0755 105.666Z" fill="#C3C3C3"/>
<path d="M82.6612 103.56L50.2715 135.793L50.3768 135.898L82.7665 103.665L82.6612 103.56Z" fill="#C3C3C3"/>
<path d="M82.7976 101.937L48.6357 135.934L48.741 136.038L82.9029 102.042L82.7976 101.937Z" fill="#C3C3C3"/>
<path d="M82.935 100.314L47.001 136.074L47.1063 136.179L83.0403 100.419L82.935 100.314Z" fill="#C3C3C3"/>
<path d="M83.5032 98.2258L45.3408 136.203L45.4461 136.308L83.6084 98.3305L83.5032 98.2258Z" fill="#C3C3C3"/>
<path d="M83.6396 96.6028L43.7051 136.344L43.8104 136.449L83.7448 96.7076L83.6396 96.6028Z" fill="#C3C3C3"/>
<path d="M83.776 94.9819L42.0693 136.486L42.1746 136.591L83.8812 95.0866L83.776 94.9819Z" fill="#C3C3C3"/>
<path d="M84.3502 92.8884L39.9766 137.047L40.0818 137.152L84.4554 92.9931L84.3502 92.8884Z" fill="#C3C3C3"/>
<path d="M84.4867 91.2654L38.3409 137.188L38.4462 137.292L84.592 91.3702L84.4867 91.2654Z" fill="#C3C3C3"/>
<path d="M84.623 89.6445L36.7051 137.33L36.8104 137.435L84.7282 89.7492L84.623 89.6445Z" fill="#C3C3C3"/>
<path d="M85.1901 87.5519L35.0439 137.455L35.1492 137.56L85.2954 87.6567L85.1901 87.5519Z" fill="#C3C3C3"/>
<path d="M85.3546 85.9142L33.3135 137.703L33.4187 137.808L85.4599 86.019L85.3546 85.9142Z" fill="#C3C3C3"/>
</g>
</g>
</g>
<path d="M41.4739 57.9804V60.0444L47.7434 60.7033V58.6393L41.4739 57.9804ZM45.6589 64.8682L51.26 65.4569V67.1689L37.9891 65.7741V64.0621L43.5585 64.6475V61.9435L39.3894 61.5053V53.8093L41.4739 54.0284V56.3164L47.7434 56.9753V54.6873L49.812 54.9047V62.6007L45.6589 62.1642V64.8682Z" fill="white"/>
<path d="M31.3072 55.5997L33.5031 55.8305V52.2785L35.6036 52.4993V61.2673L33.5031 61.0465V57.5425L31.3072 57.3117V55.5997ZM32.1824 58.8597L31.164 60.4007C29.5728 59.7054 28.4748 58.55 27.8383 57.1871C27.2018 58.6082 26.0402 59.6861 24.3376 60.0832L23.2715 58.3071C25.5947 57.7353 26.6608 55.9754 26.7245 54.142L23.8443 53.8393V52.1433L31.7209 52.9712V54.6672L28.8726 54.3678C28.9363 56.0545 29.9547 57.8896 32.1824 58.8597ZM30.6548 65.1311C32.5643 65.3318 33.5668 65.0372 33.5668 64.2052C33.5668 63.3732 32.5643 62.8678 30.6548 62.6671C28.7294 62.4648 27.7269 62.7594 27.7269 63.5914C27.7269 64.4234 28.7294 64.9288 30.6548 65.1311ZM30.6548 61.0671C33.7577 61.3933 35.6672 62.634 35.6672 64.426C35.6672 66.218 33.7577 67.0573 30.6548 66.7311C27.536 66.4033 25.6265 65.1626 25.6265 63.3706C25.6265 61.5786 27.536 60.7393 30.6548 61.0671Z" fill="white"/>
<path opacity="0.2" d="M35.584 114.626L45.0018 124.187C45.0018 124.187 52.2471 124.374 54.949 121.22C54.949 121.22 62.0509 116.313 61.8304 107.281L56.9781 99.4844L35.584 114.626Z" fill="url(#paint0_linear_4_40646)"/>
<path d="M57.2174 119.436C63.363 113.291 63.363 103.327 57.2174 97.1811C51.0719 91.0356 41.108 91.0356 34.9625 97.1811C28.8169 103.327 28.8169 113.291 34.9625 119.436C41.108 125.582 51.0719 125.582 57.2174 119.436Z" fill="#FF8C62"/>
<path d="M46.1708 129.767C46.0274 129.767 45.873 129.767 45.7296 129.767V129.656C45.873 129.656 46.0274 129.656 46.1708 129.656H46.281V129.767H46.1708ZM46.7222 129.756V129.645C46.8655 129.645 47.0199 129.634 47.1633 129.634V129.745C47.0199 129.756 46.8655 129.756 46.7222 129.756ZM45.2885 129.745C45.1452 129.734 44.9908 129.734 44.8474 129.723L44.8584 129.612C45.0018 129.623 45.1562 129.623 45.2996 129.634L45.2885 129.745ZM47.6044 129.723L47.5934 129.612C47.7367 129.601 47.8911 129.59 48.0345 129.579L48.0455 129.689C47.9021 129.7 47.7477 129.711 47.6044 129.723ZM44.4063 129.7C44.2629 129.689 44.1085 129.678 43.9652 129.656L43.9762 129.546C44.1196 129.557 44.2629 129.579 44.4173 129.59L44.4063 129.7ZM48.4866 129.645L48.4756 129.535C48.619 129.524 48.7623 129.502 48.9167 129.48L48.9277 129.59C48.7844 129.612 48.63 129.623 48.4866 129.645ZM43.5241 129.601C43.3807 129.579 43.2263 129.568 43.083 129.546L43.094 129.436C43.2373 129.458 43.3807 129.48 43.5351 129.491L43.5241 129.601ZM49.3688 129.535L49.3578 129.425C49.5012 129.403 49.6445 129.381 49.7879 129.359L49.81 129.469C49.6556 129.48 49.5122 129.513 49.3688 129.535ZM42.6529 129.48C42.5095 129.458 42.3661 129.425 42.2228 129.403L42.2448 129.292C42.3882 129.314 42.5316 129.348 42.6749 129.37L42.6529 129.48ZM50.2401 129.381L50.218 129.27C50.3614 129.237 50.5047 129.215 50.6481 129.182L50.6701 129.292C50.5268 129.325 50.3834 129.359 50.2401 129.381ZM41.7817 129.314C41.6383 129.281 41.4949 129.248 41.3516 129.215L41.3736 129.105C41.517 129.138 41.6604 129.171 41.8037 129.204L41.7817 129.314ZM51.1002 129.193L51.0782 129.083C51.2215 129.05 51.3649 129.017 51.5083 128.973L51.5413 129.083C51.387 129.127 51.2436 129.16 51.1002 129.193ZM40.9215 129.116C40.7781 129.083 40.6348 129.039 40.4914 129.006L40.5245 128.895C40.6678 128.94 40.8112 128.973 40.9546 129.006L40.9215 129.116ZM51.9604 128.973L51.9273 128.862C52.0707 128.818 52.214 128.785 52.3464 128.741L52.3795 128.851C52.2361 128.895 52.0927 128.94 51.9604 128.973ZM40.0723 128.884C39.929 128.84 39.7856 128.796 39.6533 128.752L39.6864 128.642C39.8297 128.686 39.9621 128.73 40.1054 128.774L40.0723 128.884ZM52.7985 128.719L52.7654 128.609C52.9088 128.565 53.0411 128.52 53.1845 128.465L53.2176 128.565C53.0852 128.62 52.9419 128.675 52.7985 128.719ZM39.2232 128.609C39.0798 128.565 38.9475 128.509 38.8041 128.465L38.8372 128.366C38.9806 128.421 39.1129 128.465 39.2563 128.509L39.2232 128.609ZM53.6366 128.421L53.6036 128.322C53.7359 128.267 53.8793 128.223 54.0116 128.168L54.0557 128.267C53.9123 128.322 53.78 128.377 53.6366 128.421ZM38.3961 128.3C38.2638 128.245 38.1204 128.19 37.9881 128.134L38.0322 128.035C38.1645 128.09 38.3079 128.146 38.4402 128.201L38.3961 128.3ZM54.4527 128.101L54.4086 128.002C54.5409 127.947 54.6733 127.892 54.8056 127.826L54.8497 127.925C54.7284 127.98 54.5961 128.046 54.4527 128.101ZM37.569 127.958C37.4367 127.903 37.3043 127.837 37.161 127.771L37.2051 127.671C37.3374 127.737 37.4698 127.793 37.6021 127.848L37.569 127.958ZM55.2577 127.737L55.2136 127.638C55.346 127.572 55.4783 127.517 55.6106 127.451L55.6547 127.55C55.5334 127.616 55.4011 127.682 55.2577 127.737ZM36.775 127.594C36.6427 127.528 36.5103 127.462 36.378 127.396L36.4331 127.296C36.5655 127.363 36.6978 127.429 36.8301 127.495L36.775 127.594ZM56.0518 127.352L55.9966 127.252C56.1289 127.186 56.2503 127.12 56.3826 127.043L56.4377 127.142C56.3164 127.208 56.1841 127.285 56.0518 127.352ZM35.981 127.186C35.8487 127.12 35.7273 127.043 35.595 126.966L35.6502 126.866C35.7825 126.943 35.9038 127.01 36.0361 127.076L35.981 127.186ZM56.8237 126.921L56.7686 126.822C56.8899 126.745 57.0222 126.679 57.1435 126.602L57.1987 126.701C57.0773 126.778 56.956 126.855 56.8237 126.921ZM35.209 126.745C35.0877 126.668 34.9554 126.591 34.8341 126.513L34.8892 126.425C35.0105 126.502 35.1429 126.58 35.2642 126.657L35.209 126.745ZM57.5846 126.469L57.5295 126.381C57.6508 126.304 57.7721 126.227 57.8934 126.138L57.9596 126.227C57.8272 126.315 57.7059 126.392 57.5846 126.469ZM34.4591 126.271C34.3378 126.194 34.2165 126.105 34.0952 126.028L34.1614 125.94C34.2827 126.028 34.404 126.105 34.5253 126.183L34.4591 126.271ZM58.3235 125.984L58.2573 125.896C58.3786 125.808 58.4999 125.73 58.6213 125.642L58.6874 125.73C58.5551 125.819 58.4338 125.896 58.3235 125.984ZM33.7313 125.775C33.61 125.686 33.4887 125.598 33.3784 125.51L33.4446 125.422C33.5659 125.51 33.6762 125.598 33.7975 125.686L33.7313 125.775ZM59.0293 125.466L58.9631 125.378C59.0844 125.289 59.1947 125.201 59.316 125.113L59.3822 125.201C59.2719 125.289 59.1506 125.378 59.0293 125.466ZM33.0255 125.245C32.9042 125.157 32.7939 125.058 32.6837 124.969L32.7498 124.881C32.8601 124.969 32.9814 125.069 33.0917 125.157L33.0255 125.245ZM59.724 124.925L59.6579 124.837C59.7682 124.749 59.8784 124.65 59.9997 124.55L60.0769 124.639C59.9556 124.738 59.8453 124.826 59.724 124.925ZM32.3418 124.683C32.2315 124.584 32.1212 124.495 32.011 124.396L32.0881 124.308C32.1984 124.407 32.3087 124.506 32.419 124.595L32.3418 124.683ZM60.3967 124.341L60.3195 124.264C60.4298 124.164 60.5401 124.065 60.6504 123.966L60.7276 124.043C60.6173 124.153 60.507 124.253 60.3967 124.341ZM31.6801 124.098C31.5698 123.999 31.4596 123.9 31.3603 123.801L31.4375 123.723C31.5478 123.823 31.647 123.922 31.7573 124.021L31.6801 124.098ZM61.0474 123.745L60.9702 123.668C61.0805 123.569 61.1797 123.459 61.279 123.359L61.3562 123.437C61.2569 123.536 61.1577 123.646 61.0474 123.745ZM31.0405 123.481C30.9412 123.381 30.831 123.271 30.7317 123.161L30.8089 123.084C30.9082 123.194 31.0184 123.293 31.1177 123.392L31.0405 123.481ZM61.676 123.117L61.5988 123.04C61.698 122.929 61.7973 122.83 61.8965 122.72L61.9737 122.797C61.8745 122.907 61.7752 123.007 61.676 123.117ZM30.4229 122.852C30.3237 122.742 30.2244 122.632 30.1252 122.521L30.2024 122.444C30.3016 122.554 30.4009 122.665 30.5001 122.775L30.4229 122.852ZM62.2715 122.466L62.1833 122.389C62.2825 122.279 62.3707 122.168 62.47 122.058L62.5582 122.124C62.459 122.246 62.3707 122.356 62.2715 122.466ZM29.8385 122.19C29.7392 122.08 29.651 121.97 29.5517 121.849L29.64 121.782C29.7282 121.893 29.8274 122.014 29.9157 122.124L29.8385 122.19ZM62.8339 121.793L62.7457 121.727C62.8339 121.617 62.9332 121.496 63.0214 121.385L63.1096 121.452C63.0214 121.562 62.9332 121.672 62.8339 121.793ZM29.2871 121.496C29.1988 121.374 29.1106 121.264 29.0224 121.143L29.1106 121.077C29.1988 121.198 29.2871 121.308 29.3753 121.43L29.2871 121.496ZM63.3853 121.088L63.2971 121.021C63.3853 120.9 63.4735 120.79 63.5507 120.669L63.6389 120.735C63.5507 120.856 63.4625 120.966 63.3853 121.088ZM28.7577 120.79C28.6695 120.669 28.5923 120.547 28.5041 120.426L28.5923 120.36C28.6805 120.481 28.7577 120.602 28.8459 120.724L28.7577 120.79ZM63.8926 120.371L63.8044 120.305C63.8816 120.183 63.9698 120.062 64.047 119.941L64.1352 119.996C64.058 120.117 63.9808 120.25 63.8926 120.371ZM28.2504 120.062C28.1732 119.941 28.085 119.819 28.0078 119.687L28.096 119.632C28.1732 119.753 28.2504 119.875 28.3276 120.007L28.2504 120.062ZM64.3778 119.621L64.2896 119.566C64.3668 119.445 64.444 119.312 64.5212 119.191L64.6204 119.246C64.5322 119.378 64.455 119.5 64.3778 119.621ZM27.7873 119.312C27.7101 119.191 27.6329 119.059 27.5667 118.926L27.666 118.871C27.7432 119.003 27.8093 119.125 27.8865 119.246L27.7873 119.312ZM64.83 118.86L64.7307 118.805C64.8079 118.673 64.8741 118.551 64.9402 118.419L65.0395 118.474C64.9733 118.606 64.8961 118.739 64.83 118.86ZM27.3462 118.551C27.28 118.419 27.2028 118.298 27.1366 118.165L27.2359 118.11C27.302 118.242 27.3682 118.364 27.4454 118.496L27.3462 118.551ZM65.249 118.088L65.1498 118.033C65.2159 117.901 65.2821 117.768 65.3483 117.636L65.4475 117.68C65.3813 117.823 65.3152 117.956 65.249 118.088ZM26.9381 117.768C26.872 117.636 26.8058 117.504 26.7506 117.371L26.8499 117.327C26.9161 117.459 26.9712 117.592 27.0374 117.724L26.9381 117.768ZM65.635 117.283L65.5357 117.239C65.6019 117.107 65.657 116.974 65.7122 116.842L65.8114 116.886C65.7563 117.018 65.7012 117.151 65.635 117.283ZM26.5742 116.963C26.5191 116.831 26.4529 116.699 26.3978 116.555L26.497 116.511C26.5521 116.643 26.6073 116.776 26.6735 116.919L26.5742 116.963ZM65.9879 116.478L65.8886 116.434C65.9438 116.302 65.9989 116.158 66.0541 116.026L66.1533 116.07C66.0982 116.202 66.043 116.335 65.9879 116.478ZM26.2323 116.158C26.1772 116.026 26.1221 115.882 26.0779 115.75L26.1772 115.717C26.2323 115.849 26.2764 115.993 26.3316 116.125L26.2323 116.158ZM66.3077 115.651L66.2084 115.618C66.2636 115.474 66.3077 115.342 66.3518 115.199L66.4511 115.232C66.4069 115.364 66.3628 115.508 66.3077 115.651ZM25.9236 115.32C25.8794 115.177 25.8243 115.044 25.7802 114.901L25.8905 114.868C25.9346 115.011 25.9787 115.144 26.0338 115.287L25.9236 115.32ZM66.5944 114.802L66.4841 114.769C66.5282 114.625 66.5724 114.493 66.6165 114.35L66.7267 114.383C66.6826 114.526 66.6385 114.669 66.5944 114.802ZM25.6589 114.482C25.6148 114.339 25.5707 114.195 25.5376 114.052L25.6479 114.019C25.692 114.162 25.7251 114.306 25.7692 114.438L25.6589 114.482ZM66.8481 113.953L66.7378 113.92C66.7709 113.776 66.815 113.633 66.8481 113.489L66.9583 113.512C66.9253 113.666 66.8811 113.809 66.8481 113.953ZM25.4163 113.633C25.3832 113.489 25.3501 113.346 25.317 113.203L25.4273 113.181C25.4604 113.324 25.4935 113.467 25.5265 113.611L25.4163 113.633ZM67.0576 113.092L66.9473 113.07C66.9804 112.927 67.0135 112.784 67.0355 112.64L67.1458 112.662C67.1238 112.806 67.0907 112.949 67.0576 113.092ZM25.2178 112.773C25.1847 112.629 25.1626 112.486 25.1295 112.343L25.2398 112.32C25.2619 112.464 25.295 112.607 25.328 112.751L25.2178 112.773ZM67.234 112.232L67.1238 112.21C67.1458 112.067 67.1789 111.923 67.201 111.78L67.3112 111.802C67.2892 111.946 67.2671 112.089 67.234 112.232ZM25.0524 111.901C25.0303 111.758 25.0082 111.615 24.9862 111.46L25.0965 111.449C25.1185 111.593 25.1406 111.736 25.1626 111.879L25.0524 111.901ZM67.3774 111.361L67.2671 111.35C67.2892 111.207 67.3112 111.063 67.3223 110.909L67.4325 110.92C67.4215 111.063 67.3995 111.218 67.3774 111.361ZM24.931 111.03C24.909 110.887 24.898 110.732 24.8759 110.589L24.9862 110.578C24.9972 110.721 25.0193 110.865 25.0413 111.019L24.931 111.03ZM67.4877 110.479L67.3774 110.468C67.3884 110.324 67.3995 110.181 67.4215 110.027L67.5318 110.038C67.5097 110.192 67.4987 110.335 67.4877 110.479ZM24.8318 110.148C24.8208 110.005 24.8097 109.85 24.7987 109.707L24.909 109.696C24.92 109.839 24.931 109.994 24.9421 110.137L24.8318 110.148ZM67.5538 109.597L67.4436 109.586C67.4546 109.442 67.4546 109.288 67.4656 109.144H67.5759C67.5649 109.31 67.5649 109.453 67.5538 109.597ZM24.7767 109.266C24.7656 109.122 24.7656 108.968 24.7656 108.825H24.8759C24.8759 108.968 24.8869 109.122 24.8869 109.266H24.7767ZM67.5869 108.714H67.4766C67.4766 108.593 67.4766 108.472 67.4766 108.35V108.273H67.5869V108.35C67.5869 108.472 67.5869 108.593 67.5869 108.714ZM24.8759 108.384H24.7656V108.361C24.7656 108.218 24.7656 108.086 24.7656 107.942H24.8759C24.8759 108.075 24.8759 108.218 24.8759 108.35V108.384ZM67.4766 107.832C67.4766 107.689 67.4656 107.534 67.4656 107.391H67.5759C67.5869 107.534 67.5869 107.689 67.5869 107.832H67.4766ZM24.8869 107.501H24.7767C24.7877 107.358 24.7877 107.204 24.7987 107.06L24.909 107.071C24.898 107.204 24.898 107.358 24.8869 107.501ZM67.4325 106.961C67.4215 106.818 67.4105 106.663 67.3995 106.52L67.5097 106.509C67.5208 106.652 67.5318 106.807 67.5428 106.95L67.4325 106.961ZM24.9421 106.619L24.8318 106.608C24.8428 106.465 24.8538 106.31 24.8759 106.167L24.9862 106.178C24.9641 106.332 24.9531 106.476 24.9421 106.619ZM67.3553 106.079C67.3443 105.935 67.3223 105.792 67.3002 105.638L67.4105 105.627C67.4325 105.77 67.4436 105.924 67.4656 106.068L67.3553 106.079ZM25.0303 105.748L24.92 105.737C24.9421 105.593 24.9531 105.439 24.9752 105.296L25.0854 105.307C25.0634 105.461 25.0524 105.605 25.0303 105.748ZM67.2451 105.207C67.223 105.064 67.201 104.921 67.1789 104.777L67.2892 104.755C67.3112 104.899 67.3333 105.042 67.3553 105.196L67.2451 105.207ZM25.1516 104.877L25.0413 104.855C25.0634 104.711 25.0854 104.568 25.1185 104.425L25.2288 104.447C25.2067 104.59 25.1737 104.733 25.1516 104.877ZM67.1017 104.336C67.0686 104.193 67.0466 104.05 67.0135 103.906L67.1238 103.884C67.1568 104.028 67.1789 104.171 67.212 104.314L67.1017 104.336ZM25.317 104.016L25.2067 103.994C25.2398 103.851 25.2729 103.708 25.306 103.564L25.4163 103.586C25.3722 103.73 25.3501 103.873 25.317 104.016ZM66.9142 103.476C66.8811 103.333 66.8481 103.189 66.8039 103.046L66.9142 103.024C66.9473 103.167 66.9914 103.311 67.0245 103.454L66.9142 103.476ZM25.5155 103.156L25.4052 103.134C25.4383 102.991 25.4824 102.848 25.5155 102.704L25.6258 102.737C25.5817 102.87 25.5486 103.013 25.5155 103.156ZM66.6937 102.627C66.6496 102.484 66.6165 102.34 66.5724 102.208L66.6826 102.175C66.7268 102.318 66.7709 102.462 66.8039 102.605L66.6937 102.627ZM25.7471 102.307L25.6368 102.274C25.6809 102.131 25.7251 101.987 25.7692 101.855L25.8794 101.888C25.8353 102.02 25.7912 102.164 25.7471 102.307ZM66.44 101.789C66.3959 101.645 66.3518 101.513 66.2967 101.37L66.3959 101.337C66.44 101.48 66.4952 101.612 66.5393 101.756L66.44 101.789ZM26.0118 101.469L25.9125 101.436C25.9566 101.293 26.0118 101.16 26.0559 101.017L26.1551 101.05C26.111 101.182 26.0669 101.326 26.0118 101.469ZM66.1533 100.951C66.0982 100.818 66.0541 100.675 65.9989 100.543L66.0982 100.499C66.1533 100.631 66.2084 100.774 66.2525 100.907L66.1533 100.951ZM26.3206 100.631L26.2213 100.587C26.2764 100.443 26.3316 100.311 26.3867 100.179L26.486 100.223C26.4308 100.366 26.3757 100.499 26.3206 100.631ZM65.8335 100.135C65.7784 100.002 65.7232 99.87 65.657 99.7377L65.7563 99.6936C65.8114 99.8259 65.8776 99.9582 65.9327 100.102L65.8335 100.135ZM26.6514 99.8259L26.5521 99.7818C26.6073 99.6494 26.6735 99.5171 26.7396 99.3737L26.8389 99.4179C26.7727 99.5502 26.7176 99.6825 26.6514 99.8259ZM65.4696 99.3407C65.4034 99.2083 65.3483 99.076 65.2821 98.9437L65.3813 98.8995C65.4475 99.0319 65.5137 99.1642 65.5688 99.2966L65.4696 99.3407ZM27.0263 99.0209L26.9271 98.9767C26.9933 98.8444 27.0594 98.7121 27.1256 98.5797L27.2248 98.6349C27.1587 98.7562 27.0925 98.8885 27.0263 99.0209ZM65.0836 98.5467C65.0174 98.4143 64.9513 98.293 64.8741 98.1607L64.9733 98.1055C65.0395 98.2379 65.1167 98.3592 65.1828 98.4915L65.0836 98.5467ZM27.4344 98.2379L27.3351 98.1827C27.4013 98.0504 27.4785 97.9291 27.5557 97.7968L27.6549 97.8519C27.5667 97.9842 27.5005 98.1055 27.4344 98.2379ZM64.6645 97.7857C64.5873 97.6534 64.5212 97.5321 64.444 97.4108L64.5432 97.3556C64.6204 97.4769 64.6976 97.6093 64.7638 97.7306L64.6645 97.7857ZM27.8645 97.4659L27.7652 97.4108C27.8424 97.2895 27.9196 97.1571 27.9968 97.0358L28.085 97.091C28.0189 97.2233 27.9417 97.3446 27.8645 97.4659ZM64.2124 97.0248C64.1352 96.9035 64.058 96.7822 63.9698 96.6609L64.058 96.5947C64.1352 96.716 64.2234 96.8373 64.3006 96.9697L64.2124 97.0248ZM28.3276 96.7271L28.2394 96.6719C28.3166 96.5506 28.4048 96.4293 28.482 96.308L28.5702 96.3742C28.4931 96.4844 28.4159 96.6057 28.3276 96.7271ZM63.7272 96.297C63.6389 96.1757 63.5617 96.0544 63.4735 95.933L63.5617 95.8669C63.65 95.9882 63.7272 96.1095 63.8154 96.2308L63.7272 96.297ZM28.8349 95.9992L28.7467 95.933C28.8349 95.8117 28.9231 95.6904 29.0114 95.5802L29.0996 95.6463C29.0003 95.7566 28.9121 95.8779 28.8349 95.9992ZM63.2199 95.5802C63.1317 95.4588 63.0434 95.3486 62.9552 95.2273L63.0434 95.1611C63.1317 95.2824 63.2199 95.3927 63.3081 95.514L63.2199 95.5802ZM29.3532 95.2934L29.265 95.2273C29.3532 95.106 29.4525 94.9957 29.5407 94.8854L29.6289 94.9516C29.5407 95.0618 29.4415 95.1721 29.3532 95.2934ZM62.6685 94.8854C62.5803 94.7751 62.481 94.6648 62.3818 94.5435L62.47 94.4774C62.5692 94.5876 62.6575 94.6979 62.7567 94.8192L62.6685 94.8854ZM29.9157 94.6097L29.8274 94.5435C29.9267 94.4332 30.0149 94.323 30.1142 94.2127L30.2024 94.2899C30.1031 94.3891 30.0039 94.4994 29.9157 94.6097ZM62.1061 94.2237C62.0068 94.1134 61.9076 94.0032 61.8083 93.8929L61.8855 93.8157C61.9848 93.926 62.084 94.0362 62.1833 94.1465L62.1061 94.2237ZM30.4891 93.948L30.4119 93.8708C30.5112 93.7605 30.6104 93.6503 30.7097 93.551L30.7869 93.6282C30.6986 93.7385 30.5884 93.8377 30.4891 93.948ZM61.5106 93.5731C61.4113 93.4628 61.301 93.3635 61.2018 93.2643L61.279 93.1871C61.3782 93.2864 61.4885 93.3966 61.5878 93.5069L61.5106 93.5731ZM31.1067 93.3084L31.0295 93.2312C31.1287 93.132 31.239 93.0217 31.3493 92.9224L31.4265 92.9996C31.3052 93.1099 31.2059 93.2092 31.1067 93.3084ZM60.882 92.9555C60.7717 92.8563 60.6724 92.757 60.5622 92.6578L60.6394 92.5806C60.7496 92.6798 60.8599 92.7791 60.9592 92.8783L60.882 92.9555ZM31.7353 92.7019L31.6581 92.6247C31.7683 92.5254 31.8786 92.4262 31.9889 92.3269L32.0661 92.4041C31.9558 92.5034 31.8455 92.6026 31.7353 92.7019ZM60.2313 92.36C60.121 92.2608 60.0108 92.1725 59.9005 92.0733L59.9667 91.9851C60.0769 92.0843 60.1872 92.1725 60.2975 92.2718L60.2313 92.36ZM32.3969 92.1174L32.3308 92.0292C32.441 91.9299 32.5513 91.8417 32.6726 91.7424L32.7388 91.8307C32.6175 91.9299 32.5072 92.0292 32.3969 92.1174ZM59.5586 91.7976C59.4483 91.7094 59.327 91.6101 59.2168 91.5219L59.2829 91.4337C59.4042 91.5219 59.5145 91.6211 59.6248 91.7094L59.5586 91.7976ZM33.0807 91.566L33.0145 91.4778C33.1358 91.3896 33.2461 91.3013 33.3674 91.2131L33.4335 91.3013C33.3122 91.3896 33.1909 91.4778 33.0807 91.566ZM58.8639 91.2572C58.7426 91.169 58.6323 91.0808 58.511 90.9925L58.5771 90.9043C58.6984 90.9925 58.8198 91.0808 58.93 91.169L58.8639 91.2572ZM33.7754 91.0367L33.7092 90.9484C33.8306 90.8602 33.9519 90.783 34.0732 90.6948L34.1393 90.783C34.018 90.8712 33.8967 90.9484 33.7754 91.0367ZM58.147 90.7389C58.0257 90.6617 57.9044 90.5735 57.7831 90.4963L57.8383 90.4081C57.9596 90.4853 58.0809 90.5735 58.2022 90.6507L58.147 90.7389ZM34.5033 90.5404L34.4481 90.4522C34.5694 90.375 34.6907 90.2868 34.8231 90.2096L34.8782 90.2978C34.7459 90.375 34.6246 90.4632 34.5033 90.5404ZM57.4082 90.2647C57.2869 90.1875 57.1545 90.1103 57.0332 90.0331L57.0884 89.9339C57.2207 90.0111 57.342 90.0883 57.4633 90.1655L57.4082 90.2647ZM35.2421 90.0772L35.187 89.978C35.3083 89.9008 35.4406 89.8236 35.573 89.7574L35.6281 89.8567C35.4958 89.9228 35.3745 90 35.2421 90.0772ZM56.6583 89.8126C56.5259 89.7354 56.4046 89.6692 56.2723 89.603L56.3274 89.5038C56.4598 89.57 56.5921 89.6471 56.7134 89.7133L56.6583 89.8126ZM36.003 89.6361L35.9479 89.5369C36.0802 89.4707 36.2015 89.3935 36.3339 89.3273L36.389 89.4266C36.2677 89.4928 36.1354 89.57 36.003 89.6361ZM55.8753 89.3935C55.743 89.3273 55.6106 89.2612 55.4783 89.195L55.5224 89.0958C55.6547 89.1619 55.7871 89.2281 55.9194 89.2943L55.8753 89.3935ZM36.786 89.2281L36.7419 89.1288C36.8742 89.0627 37.0066 88.9965 37.1389 88.9414L37.183 89.0406C37.0507 89.1068 36.9184 89.1729 36.786 89.2281ZM55.0813 89.0075C54.949 88.9414 54.8166 88.8862 54.6843 88.8311L54.7284 88.7318C54.8607 88.787 55.0041 88.8531 55.1364 88.9083L55.0813 89.0075ZM37.58 88.8642L37.5359 88.7649C37.6683 88.7098 37.8006 88.6436 37.944 88.5885L37.9881 88.6877C37.8447 88.7429 37.7124 88.798 37.58 88.8642ZM54.2763 88.6546C54.1439 88.5995 54.0006 88.5444 53.8682 88.4892L53.9123 88.39C54.0557 88.4451 54.188 88.5002 54.3204 88.5554L54.2763 88.6546ZM38.3851 88.5223L38.341 88.4231C38.4733 88.3679 38.6167 88.3128 38.749 88.2687L38.7821 88.3679C38.6608 88.412 38.5284 88.4672 38.3851 88.5223ZM53.4602 88.3348C53.3168 88.2797 53.1845 88.2356 53.0411 88.1915L53.0742 88.0922C53.2176 88.1363 53.3499 88.1915 53.4933 88.2356L53.4602 88.3348ZM39.2122 88.2135L39.1791 88.1143C39.3224 88.0702 39.4548 88.015 39.5981 87.9709L39.6312 88.0812C39.4879 88.1253 39.3555 88.1694 39.2122 88.2135ZM52.6221 88.0481C52.4787 88.004 52.3464 87.9599 52.203 87.9158L52.2361 87.8055C52.3795 87.8496 52.5228 87.8937 52.6552 87.9378L52.6221 88.0481ZM40.0503 87.9489L40.0172 87.8386C40.1606 87.7945 40.3039 87.7503 40.4473 87.7173L40.4804 87.8275C40.337 87.8606 40.1936 87.9047 40.0503 87.9489ZM51.7729 87.7945C51.6296 87.7614 51.4862 87.7173 51.3428 87.6842L51.3649 87.5739C51.5083 87.607 51.6516 87.6511 51.795 87.6842L51.7729 87.7945ZM40.8994 87.7062L40.8774 87.596C41.0207 87.5629 41.1641 87.5298 41.3075 87.4857L41.3295 87.596C41.1862 87.6401 41.0428 87.6732 40.8994 87.7062ZM50.9238 87.5849C50.7804 87.5518 50.6371 87.5188 50.4937 87.4967L50.5158 87.3864C50.6591 87.4195 50.8025 87.4526 50.9458 87.4857L50.9238 87.5849ZM41.7596 87.5077L41.7375 87.3975C41.8809 87.3644 42.0243 87.3423 42.1676 87.3092L42.1897 87.4195C42.0463 87.4526 41.903 87.4857 41.7596 87.5077ZM50.0636 87.4085C49.9202 87.3864 49.7769 87.3533 49.6335 87.3313L49.6556 87.221C49.7989 87.2431 49.9423 87.2651 50.0857 87.2982L50.0636 87.4085ZM42.6198 87.3423L42.5977 87.232C42.7411 87.21 42.8844 87.1879 43.0388 87.1659L43.0499 87.2761C42.9065 87.2982 42.7631 87.3203 42.6198 87.3423ZM49.1924 87.2651C49.049 87.2431 48.9057 87.221 48.7513 87.21L48.7623 87.0997C48.9057 87.1218 49.0601 87.1328 49.2034 87.1548L49.1924 87.2651ZM43.491 87.221L43.48 87.1107C43.6233 87.0887 43.7777 87.0776 43.9211 87.0556L43.9321 87.1659C43.7777 87.1879 43.6343 87.199 43.491 87.221ZM48.3212 87.1548C48.1778 87.1438 48.0345 87.1218 47.8801 87.1107L47.8911 87.0005C48.0345 87.0115 48.1889 87.0225 48.3322 87.0446L48.3212 87.1548ZM44.3622 87.1218L44.3512 87.0115C44.4945 87.0005 44.6489 86.9894 44.7923 86.9784L44.8033 87.0887C44.6599 87.0997 44.5056 87.1107 44.3622 87.1218ZM47.439 87.0887C47.2956 87.0776 47.1412 87.0776 46.9979 87.0666V86.9563C47.1412 86.9674 47.2956 86.9674 47.439 86.9784V87.0887ZM45.2444 87.0666V86.9563C45.3878 86.9453 45.5422 86.9453 45.6855 86.9453V87.0556C45.5311 87.0556 45.3878 87.0666 45.2444 87.0666ZM46.5567 87.0556C46.4244 87.0556 46.3031 87.0556 46.1708 87.0556H46.1156V86.9453H46.1708C46.3031 86.9453 46.4354 86.9453 46.5567 86.9453V87.0556Z" fill="white"/>
<path d="M56.9786 112.277C56.9786 112.453 56.8352 112.608 56.6477 112.608H35.5955C35.419 112.608 35.2646 112.464 35.2646 112.277V99.8152C35.2646 99.6388 35.408 99.4844 35.5955 99.4844H56.6477C56.8242 99.4844 56.9786 99.6277 56.9786 99.8152V112.277Z" fill="#231F20"/>
<path d="M56.2285 100.201H36.0254V111.295H56.2285V100.201Z" fill="#00ADEE"/>
<path d="M52.4564 101.027H39.4766V110.313H52.4564V101.027Z" fill="white"/>
<path d="M52.4674 101.027H39.4766V102.34H52.4674V101.027Z" fill="#3C5363"/>
<path d="M40.7893 101.656C40.7893 101.81 40.6569 101.943 40.5025 101.943C40.3482 101.943 40.2158 101.81 40.2158 101.656C40.2158 101.501 40.3482 101.369 40.5025 101.369C40.668 101.369 40.7893 101.501 40.7893 101.656Z" fill="white"/>
<path d="M41.6604 101.656C41.6604 101.81 41.528 101.943 41.3736 101.943C41.2192 101.943 41.0869 101.81 41.0869 101.656C41.0869 101.501 41.2192 101.369 41.3736 101.369C41.5391 101.369 41.6604 101.501 41.6604 101.656Z" fill="white"/>
<path d="M42.5313 101.656C42.5313 101.81 42.399 101.943 42.2446 101.943C42.0902 101.943 41.9579 101.81 41.9579 101.656C41.9579 101.501 42.0902 101.369 42.2446 101.369C42.41 101.369 42.5313 101.501 42.5313 101.656Z" fill="white"/>
<path d="M48.9167 113.766H43.3477V117.25H48.9167V113.766Z" fill="#C3C3C3"/>
<path d="M35.2646 112.145V114.306C35.2646 114.482 35.408 114.637 35.5955 114.637H56.6808C56.8573 114.637 57.0117 114.493 57.0117 114.306V112.145H35.2646Z" fill="white"/>
<path d="M51.5633 117.449L51.0229 117.019L46.689 117.008H46.2038H45.7185L41.3846 117.019L40.8442 117.449C40.8442 117.449 40.6457 117.703 41.2743 117.703C41.7375 117.703 43.9982 117.703 45.7296 117.703C46.314 117.703 46.7 117.703 46.7 117.703C48.4314 117.703 50.6921 117.703 51.1553 117.703C51.7508 117.703 51.5633 117.449 51.5633 117.449Z" fill="url(#paint1_linear_4_40646)"/>
<path d="M48.0567 113.411C48.0567 113.61 47.9024 113.764 47.7039 113.764H44.5609C44.3624 113.764 44.208 113.61 44.208 113.411C44.208 113.213 44.3624 113.059 44.5609 113.059H47.7039C47.9024 113.059 48.0567 113.213 48.0567 113.411Z" fill="#A4A4A4"/>
<path d="M43.756 102.814H40.4697V105.825H43.756V102.814Z" fill="#FAAF40"/>
<path d="M47.6379 102.814H44.3516V105.825H47.6379V102.814Z" fill="#00A69C"/>
<path d="M51.5197 102.814H48.2334V105.825H51.5197V102.814Z" fill="#EE4036"/>
<path d="M51.3545 106.74H40.459V106.851H51.3545V106.74Z" fill="#6D6E70"/>
<path d="M51.3545 107.215H40.459V107.325H51.3545V107.215Z" fill="#6D6E70"/>
<path d="M51.3545 107.699H40.459V107.809H51.3545V107.699Z" fill="#6D6E70"/>
<path d="M51.3535 105.936V108.516L52.2357 107.921L52.8754 109.189L53.2172 108.979L52.5997 107.733L53.5701 107.358L51.3535 105.936Z" fill="#231F20"/>
<g clip-path="url(#clip0_4_40646)">
<rect x="149.688" y="0.480469" width="93" height="93" rx="6" transform="rotate(60 149.688 0.480469)" fill="#FFE9E1"/>
<rect x="165.857" y="112.809" width="22" height="22" rx="4" transform="rotate(45 165.857 112.809)" fill="#FFE9E1"/>
<path d="M133.453 134.018C133.453 139.412 128.839 143.831 123.12 143.831H82.5013C76.7822 143.831 72.168 139.477 72.168 134.018V37.3134C72.168 31.9193 76.7822 27.5 82.5013 27.5H123.12C128.839 27.5 133.453 31.9193 133.453 37.3134V134.018Z" fill="#4429CC"/>
<path d="M131.503 130.963C131.503 136.097 127.149 140.191 121.819 140.191H83.8006C78.4715 140.191 74.1172 136.032 74.1172 130.963V39.6523C74.1172 34.5832 78.4065 30.4238 83.8006 30.4238H121.884C127.214 30.4238 131.568 34.5832 131.568 39.6523V130.963H131.503Z" fill="#1D107A"/>
<path d="M131.049 130.963C131.049 136.097 126.76 140.191 121.561 140.191H84.1916C78.9274 140.191 74.7031 136.032 74.7031 130.963V39.6523C74.7031 34.5182 78.9924 30.4238 84.1916 30.4238H121.561C126.825 30.4238 131.049 34.5832 131.049 39.6523V130.963Z" fill="#9A9A9E"/>
<path d="M131.049 130.897C131.049 136.031 126.825 140.126 121.561 140.126H84.1916C78.9274 140.126 74.7031 135.966 74.7031 130.897V39.7168C74.7031 34.5826 78.9274 30.4883 84.1916 30.4883H121.561C126.825 30.4883 131.049 34.6476 131.049 39.7168V130.897Z" fill="#9D9DA1"/>
<path d="M130.984 130.897C130.984 136.031 126.759 140.126 121.495 140.126H84.256C78.9919 140.126 74.7676 136.031 74.7676 130.897V39.7168C74.7676 34.6476 78.9919 30.4883 84.256 30.4883H121.56C126.824 30.4883 131.049 34.6476 131.049 39.7168V130.897H130.984Z" fill="#A0A0A4"/>
<path d="M130.984 130.897C130.984 136.031 126.759 140.126 121.495 140.126H84.256C78.9919 140.126 74.7676 135.966 74.7676 130.897V39.7818C74.7676 34.6476 78.9919 30.4883 84.256 30.4883H121.495C126.759 30.4883 130.984 34.6476 130.984 39.7168V130.897Z" fill="#A3A3A6"/>
<path d="M130.919 130.834C130.919 135.903 126.694 140.062 121.43 140.062H84.256C79.0569 140.062 74.7676 135.903 74.7676 130.834V39.7832C74.7676 34.714 78.9919 30.5547 84.256 30.5547H121.43C126.629 30.5547 130.919 34.714 130.919 39.7832V130.834Z" fill="#A6A6A9"/>
<path d="M130.918 130.833C130.918 135.902 126.694 140.061 121.495 140.061H84.3209C79.1218 140.061 74.8975 135.902 74.8975 130.833V39.8477C74.8975 34.7785 79.1218 30.6191 84.3209 30.6191H121.43C126.629 30.6191 130.853 34.7785 130.853 39.8477V130.833H130.918Z" fill="#A9A9AC"/>
<path d="M130.853 130.768C130.853 135.837 126.629 139.996 121.43 139.996H84.3209C79.1218 139.996 74.8975 135.837 74.8975 130.768V39.8477C74.8975 34.7785 79.1218 30.6191 84.3209 30.6191H121.43C126.629 30.6191 130.853 34.7785 130.853 39.8477V130.768Z" fill="#ACACAF"/>
<path d="M130.854 130.768C130.854 135.837 126.63 139.996 121.43 139.996H84.3864C79.1872 139.996 74.9629 135.837 74.9629 130.768V39.8477C74.9629 34.7785 79.1872 30.6191 84.3864 30.6191H121.43C126.63 30.6191 130.854 34.7785 130.854 39.8477V130.768Z" fill="#AFAFB2"/>
<path d="M130.789 130.702C130.789 135.772 126.564 139.931 121.365 139.931H84.3861C79.187 139.931 74.9626 135.837 74.9626 130.702V39.9121C74.9626 34.8429 79.187 30.6836 84.3861 30.6836H121.365C126.564 30.6836 130.789 34.7779 130.789 39.9121V130.702Z" fill="#B1B1B4"/>
<path d="M130.724 130.702C130.724 135.771 126.5 139.93 121.3 139.93H84.3864C79.1872 139.93 74.9629 135.836 74.9629 130.702V39.9116C75.0279 34.8424 79.1872 30.748 84.3864 30.748H121.365C126.565 30.748 130.789 34.8424 130.789 39.9766V130.702H130.724Z" fill="#B4B4B7"/>
<path d="M130.724 130.702C130.724 135.771 126.499 139.93 121.365 139.93H84.451C79.2519 139.93 75.0925 135.836 75.0925 130.702V39.9766C75.0275 34.8424 79.2519 30.748 84.451 30.748H121.365C126.564 30.748 130.724 34.8424 130.724 39.9766V130.702Z" fill="#B7B7BA"/>
<path d="M130.659 130.638C130.659 135.708 126.434 139.802 121.3 139.802H84.4511C79.252 139.802 75.0927 135.708 75.0927 130.638V39.978C75.0927 34.9088 79.317 30.8145 84.4511 30.8145H121.3C126.499 30.8145 130.659 34.9088 130.659 39.978V130.638Z" fill="#BABABD"/>
<path d="M130.659 130.638C130.659 135.707 126.499 139.801 121.3 139.801H84.4511C79.252 139.801 75.0927 135.707 75.0927 130.638V40.0424C75.0927 34.9732 79.317 30.8789 84.4511 30.8789H121.235C126.434 30.8789 130.594 34.9732 130.594 40.0424V130.638H130.659Z" fill="#BDBDC0"/>
<path d="M130.594 130.573C130.594 135.642 126.435 139.736 121.236 139.736H84.5167C79.3825 139.736 75.1582 135.642 75.1582 130.573V40.0424C75.1582 34.9732 79.3175 30.8789 84.5167 30.8789H121.301C126.5 30.8789 130.659 34.9732 130.659 40.0424V130.573H130.594Z" fill="#C0C0C2"/>
<path d="M130.594 130.573C130.594 135.642 126.435 139.736 121.236 139.736H84.5167C79.3825 139.736 75.1582 135.642 75.1582 130.573V40.0424C75.1582 34.9732 79.3175 30.8789 84.5167 30.8789H121.236C126.37 30.8789 130.594 34.9732 130.594 40.0424V130.573Z" fill="#C3C3C5"/>
<path d="M130.529 130.507C130.529 135.576 126.369 139.671 121.17 139.671H84.5811C79.447 139.671 75.2227 135.576 75.2227 130.507V40.1069C75.2227 35.0377 79.382 30.9434 84.5811 30.9434H121.235C126.369 30.9434 130.594 35.0377 130.594 40.1069V130.507H130.529Z" fill="#C6C6C8"/>
<path d="M130.529 130.507C130.529 135.576 126.37 139.671 121.236 139.671H84.5816C79.4474 139.671 75.2881 135.576 75.2881 130.507V40.1069C75.2881 35.0377 79.4474 30.9434 84.5816 30.9434H121.171C126.305 30.9434 130.464 35.0377 130.464 40.1069V130.507H130.529Z" fill="#C9C9CB"/>
<path d="M130.464 130.442C130.464 135.511 126.305 139.606 121.171 139.606H84.5816C79.4474 139.606 75.2881 135.511 75.2881 130.442V40.1069C75.2881 35.0377 79.4474 30.9434 84.5816 30.9434H121.171C126.305 30.9434 130.464 35.0377 130.464 40.1069V130.442Z" fill="#CCCCCE"/>
<path d="M130.399 130.442C130.399 135.511 126.239 139.605 121.105 139.605H84.646C79.5119 139.605 75.3525 135.511 75.3525 130.442V40.1713C75.3525 35.1022 79.5119 31.0078 84.646 31.0078H121.17C126.304 31.0078 130.464 35.1022 130.464 40.1713V130.442H130.399Z" fill="#CFCFD1"/>
<path d="M130.399 130.443C130.399 135.512 126.24 139.607 121.105 139.607H84.6463C79.5121 139.607 75.3528 135.512 75.3528 130.443V40.2377C75.3528 35.1686 79.5121 31.0742 84.6463 31.0742H121.105C126.24 31.0742 130.399 35.1686 130.399 40.2377V130.443Z" fill="#D2D2D3"/>
<path d="M130.334 130.378C130.334 135.447 126.175 139.542 121.04 139.542H84.6463C79.5121 139.542 75.3528 135.447 75.3528 130.378V40.2377C75.3528 35.1686 79.5121 31.0742 84.6463 31.0742H121.04C126.175 31.0742 130.334 35.1686 130.334 40.2377V130.378Z" fill="#D5D5D6"/>
<path d="M130.334 130.378C130.334 135.447 126.175 139.542 121.106 139.542H84.7115C79.5773 139.477 75.418 135.382 75.418 130.378V40.2377C75.418 35.1686 79.5773 31.0742 84.6465 31.0742H121.041C126.175 31.0742 130.269 35.1686 130.269 40.2377V130.378H130.334Z" fill="#D8D8D9"/>
<path d="M130.269 130.313C130.269 135.382 126.109 139.476 121.04 139.476H84.7109C79.5768 139.476 75.4824 135.382 75.4824 130.313V40.3022C75.4824 35.233 79.6417 31.1387 84.7109 31.1387H121.04C126.174 31.1387 130.269 35.233 130.269 40.3022V130.313Z" fill="#DBDBDC"/>
<path d="M130.269 130.312C130.269 135.381 126.11 139.411 121.041 139.411H84.7764C79.7072 139.411 75.5479 135.316 75.5479 130.312V40.3017C75.5479 35.2325 79.7072 31.2031 84.7764 31.2031H121.041C126.11 31.2031 130.269 35.2975 130.269 40.3017V130.312Z" fill="#DEDEDF"/>
<path d="M130.204 130.247C130.204 135.316 126.11 139.345 120.976 139.345H84.7764C79.7072 139.345 75.5479 135.251 75.5479 130.247V40.3661C75.5479 35.2969 79.7072 31.2676 84.7764 31.2676H120.976C126.045 31.2676 130.204 35.3619 130.204 40.3661V130.247Z" fill="#E0E0E1"/>
<path d="M130.204 130.247C130.204 135.251 126.11 139.345 120.976 139.345H84.7764C79.7072 139.345 75.5479 135.251 75.5479 130.247V40.3661C75.5479 35.3619 79.6422 31.2676 84.7764 31.2676H120.976C126.045 31.2676 130.204 35.3619 130.204 40.3661V130.247Z" fill="#E3E3E4"/>
<path d="M130.139 130.248C130.139 135.252 126.045 139.347 120.976 139.347H84.8414C79.7722 139.347 75.6779 135.252 75.6779 130.248V40.4325C75.6779 35.4283 79.7722 31.334 84.8414 31.334H120.976C126.045 31.334 130.139 35.4283 130.139 40.4325V130.248Z" fill="#E6E6E7"/>
<path d="M130.139 130.183C130.139 135.187 126.045 139.282 120.976 139.282H84.8414C79.7722 139.282 75.6779 135.187 75.6779 130.183V40.4325C75.6779 35.4283 79.7722 31.334 84.8414 31.334H120.911C125.98 31.334 130.074 35.4283 130.074 40.4325V130.183H130.139Z" fill="#E9E9EA"/>
<path d="M130.074 130.183C130.074 135.187 125.98 139.281 120.91 139.281H84.8413C79.7721 139.281 75.6777 135.187 75.6777 130.183V40.497C75.6777 35.4928 79.7721 31.3984 84.8413 31.3984H120.91C125.98 31.3984 130.074 35.4928 130.074 40.497V130.183Z" fill="#ECECED"/>
<path d="M130.008 130.118C130.008 135.122 125.914 139.216 120.845 139.216H84.9057C79.8365 139.216 75.7422 135.122 75.7422 130.118V40.497C75.7422 35.4928 79.8365 31.3984 84.9057 31.3984H120.91C125.914 31.3984 130.008 35.4928 130.008 40.497V130.118Z" fill="#EFEFEF"/>
<path d="M130.008 130.118C130.008 135.122 125.914 139.216 120.845 139.216H84.9057C79.8365 139.216 75.7422 135.122 75.7422 130.118V40.497C75.7422 35.4928 79.8365 31.3984 84.9057 31.3984H120.845C125.914 31.3984 130.008 35.4928 130.008 40.497V130.118Z" fill="#F2F2F2"/>
<path d="M129.943 130.054C129.943 135.058 125.849 139.152 120.78 139.152H84.9706C79.9014 139.152 75.8721 135.058 75.8721 130.054V40.5634C75.8721 35.5592 79.9664 31.4648 84.9706 31.4648H120.845C125.914 31.4648 130.008 35.5592 130.008 40.5634V130.054H129.943Z" fill="#F5F5F5"/>
<path d="M134.169 42.3828H133.389V54.6008H134.169V42.3828Z" fill="#2A19A5"/>
<path d="M134.169 58.1094H133.389V70.3274H134.169V58.1094Z" fill="#2A19A5"/>
<path d="M122.535 31.4648H83.2159C83.2159 31.4648 76.522 32.9596 75.8721 39.9785V40.4984C75.8721 40.4984 76.392 33.9994 83.6708 32.6347L122.989 32.5047C122.989 32.5047 130.138 33.8695 130.008 41.8632C129.943 41.9282 131.698 33.4145 122.535 31.4648Z" fill="white"/>
<path opacity="0.3" d="M124.224 27.8242H81.9159C81.9159 27.8242 75.222 27.3692 72.8174 36.3378H73.1423C73.1423 36.3378 74.8321 29.5789 81.201 28.5391H123.249C123.249 28.5391 132.543 28.864 133.258 38.1575C133.193 38.1575 134.038 29.7739 124.224 27.8242Z" fill="white"/>
<path d="M111.45 111.374C111.45 119.927 102.94 126.847 92.4532 126.847C81.9661 126.847 73.4561 119.927 73.4561 111.374V106.475C73.4561 97.9217 81.9661 91.002 92.4532 91.002C102.94 91.002 111.45 97.9217 111.45 106.475V111.374Z" fill="url(#paint2_radial_4_40646)"/>
<path d="M84.1155 100.199C84.1155 100.199 91.465 98.2219 101.866 100.199L102.855 103.637C102.855 103.637 93.0123 102.563 83.2129 103.637L84.1155 100.199Z" fill="url(#paint3_linear_4_40646)"/>
<path d="M80.7198 99.9844L79.6883 103.681C79.6883 103.681 78.8287 103.681 76.9806 104.282C76.9376 104.282 76.6797 101.704 80.7198 99.9844Z" fill="url(#paint4_linear_4_40646)"/>
<path d="M118.412 78.4509C118.412 90.2704 108.828 99.8549 97.0083 99.8549H86.736C74.9166 99.8549 65.332 90.2704 65.332 78.4509C65.332 66.6314 74.9166 57.0469 86.736 57.0469H97.0083C108.828 57.0899 118.412 66.6744 118.412 78.4509Z" fill="url(#paint5_radial_4_40646)"/>
<path d="M74.0145 63.1934L74.2723 65.2994C74.2723 65.2994 72.2953 65.9011 70.9629 67.4054C71.0059 67.4054 70.791 64.9126 74.0145 63.1934Z" fill="url(#paint6_linear_4_40646)"/>
<path d="M80.7197 60.5285C80.7197 60.5285 82.8257 59.1102 86.0492 59.411H97.181C97.181 59.411 100.619 59.8408 101.393 61.1302L80.7197 60.5285Z" fill="url(#paint7_linear_4_40646)"/>
<path d="M110.29 77.5914C110.29 80.9869 107.539 83.7376 104.144 83.7376H79.6022C76.2068 83.7376 73.4561 80.9869 73.4561 77.5914C73.4561 74.196 76.2068 71.4453 79.6022 71.4453H104.144C107.539 71.4453 110.29 74.196 110.29 77.5914Z" fill="url(#paint8_radial_4_40646)"/>
<path d="M86.135 77.7643C86.135 79.0967 85.0605 80.1282 83.7711 80.1282C82.4387 80.1282 81.4072 79.0537 81.4072 77.7643C81.4072 76.4319 82.4817 75.4004 83.7711 75.4004C85.0605 75.4004 86.135 76.4749 86.135 77.7643Z" fill="#27A3FF"/>
<path d="M101.608 77.7643C101.608 79.0967 100.533 80.1282 99.2438 80.1282C97.9114 80.1282 96.8799 79.0537 96.8799 77.7643C96.8799 76.4319 97.9544 75.4004 99.2438 75.4004C100.533 75.4004 101.608 76.4749 101.608 77.7643Z" fill="#27A3FF"/>
<path d="M92.4524 51.502H91.3779V57.0464H92.4524V51.502Z" fill="url(#paint9_linear_4_40646)"/>
<path d="M93.7852 49.9985C93.7852 51.073 92.9256 51.8897 91.894 51.8897C90.8195 51.8897 90.0029 51.0301 90.0029 49.9985C90.0029 48.924 90.8625 48.1074 91.894 48.1074C92.9685 48.1074 93.7852 48.924 93.7852 49.9985Z" fill="#27A3FF"/>
<path d="M117.939 69.7695H119.487C119.487 69.7695 121.464 72.6922 121.206 78.8813C121.206 78.8813 121.292 84.4257 119.573 87.1764H117.982L117.939 69.7695Z" fill="url(#paint10_linear_4_40646)"/>
<path d="M116.565 69.7695H118.112C118.112 69.7695 120.089 72.6922 119.831 78.8813C119.831 78.8813 119.917 84.4257 118.198 87.1764H116.608L116.565 69.7695Z" fill="url(#paint11_linear_4_40646)"/>
<path d="M66.0201 69.7695H64.4729C64.4729 69.7695 62.4958 72.6922 62.7537 78.8813C62.7537 78.8813 62.6677 84.4257 64.3869 87.1764H65.9772L66.0201 69.7695Z" fill="url(#paint12_linear_4_40646)"/>
<path d="M67.3522 69.7695H65.8049C65.8049 69.7695 63.8278 72.6922 64.0857 78.8813C64.0857 78.8813 63.9997 84.4257 65.7189 87.1764H67.3092L67.3522 69.7695Z" fill="url(#paint13_linear_4_40646)"/>
<path d="M75.6048 98.8236C74.0146 97.3623 69.0719 100.156 64.516 105.056C59.9601 109.955 57.5532 115.113 59.1435 116.574C60.7337 118.036 65.6764 115.242 70.2323 110.342C74.7452 105.443 77.1521 100.285 75.6048 98.8236Z" fill="url(#paint14_linear_4_40646)"/>
<path d="M130.06 88.1217C128.857 86.3595 123.398 87.9497 117.854 91.732C112.31 95.4712 108.828 99.9841 110.032 101.746C111.235 103.508 116.694 101.918 122.238 98.136C127.739 94.3967 131.264 89.8838 130.06 88.1217Z" fill="url(#paint15_linear_4_40646)"/>
<path d="M131.307 90.7436C131.049 90.7436 130.749 90.7006 130.491 90.6576C129.416 90.4427 128.557 89.841 127.998 88.9384C127.482 88.0358 127.353 86.9613 127.654 85.9298C127.955 84.9413 128.643 84.0817 129.545 83.5229C130.448 82.9642 131.479 82.7923 132.511 82.9642L132.081 85.2421C131.651 85.1562 131.135 85.2421 130.749 85.5C130.319 85.7579 130.018 86.1447 129.889 86.5745C129.76 86.9613 129.803 87.3911 130.018 87.735C130.233 88.0788 130.577 88.2937 130.963 88.3797C131.436 88.4656 131.909 88.3797 132.339 88.1218C132.898 87.778 133.241 87.2192 133.284 86.6175L135.605 86.7035C135.562 88.0788 134.789 89.3682 133.542 90.0989C132.812 90.5287 132.038 90.7436 131.307 90.7436Z" fill="url(#paint16_linear_4_40646)"/>
<path d="M149.708 56.6155C149.708 68.3856 140.19 77.9028 128.42 77.9028C116.65 77.9028 107.133 68.3856 107.133 56.6155C107.133 44.8454 116.65 35.3281 128.42 35.3281C140.19 35.3281 149.708 44.8454 149.708 56.6155Z" fill="url(#paint17_linear_4_40646)"/>
<path d="M125.8 66.3164C125.018 66.3164 124.237 65.9945 123.685 65.4428L116.467 58.1784C115.317 57.029 115.317 55.144 116.467 53.9945C117.616 52.8451 119.501 52.8451 120.65 53.9945L125.754 59.098L135.409 49.2129C136.559 48.0175 138.444 48.0175 139.593 49.167C140.742 50.3164 140.788 52.2014 139.639 53.3509L127.869 65.3968C127.363 65.9945 126.627 66.3164 125.8 66.3164Z" fill="white"/>
<g opacity="0.75">
<path d="M125.8 66.3164C125.018 66.3164 124.237 65.9945 123.685 65.4428L116.467 58.1784C115.317 57.029 115.317 55.144 116.467 53.9945C117.616 52.8451 119.501 52.8451 120.65 53.9945L125.754 59.098L135.409 49.2129C136.559 48.0175 138.444 48.0175 139.593 49.167C140.742 50.3164 140.788 52.2014 139.639 53.3509L127.869 65.3968C127.363 65.9945 126.627 66.3164 125.8 66.3164Z" fill="#C9C9C9"/>
</g>
</g>
<defs>
<linearGradient id="paint0_linear_4_40646" x1="41.0474" y1="105.126" x2="59.6089" y2="117.65" gradientUnits="userSpaceOnUse">
<stop offset="0.0107527"/>
<stop offset="0.9259" stop-opacity="0"/>
</linearGradient>
<linearGradient id="paint1_linear_4_40646" x1="46.1963" y1="117.485" x2="46.1963" y2="116.996" gradientUnits="userSpaceOnUse">
<stop stop-color="white"/>
<stop offset="1" stop-color="#D5D5D5"/>
</linearGradient>
<radialGradient id="paint2_radial_4_40646" cx="0" cy="0" r="1" gradientUnits="userSpaceOnUse" gradientTransform="translate(92.4351 108.909) scale(20.5552 16.7463)">
<stop stop-color="#F1F1F5"/>
<stop offset="0.551" stop-color="#E4E2EC"/>
<stop offset="1" stop-color="#CFCFDE"/>
</radialGradient>
<linearGradient id="paint3_linear_4_40646" x1="83.2448" y1="101.508" x2="102.895" y2="101.508" gradientUnits="userSpaceOnUse">
<stop stop-color="white"/>
<stop offset="1"/>
</linearGradient>
<linearGradient id="paint4_linear_4_40646" x1="76.9346" y1="102.127" x2="82.1365" y2="102.127" gradientUnits="userSpaceOnUse">
<stop stop-color="white"/>
<stop offset="1"/>
</linearGradient>
<radialGradient id="paint5_radial_4_40646" cx="0" cy="0" r="1" gradientUnits="userSpaceOnUse" gradientTransform="translate(91.8971 78.4668) scale(24.0908 24.0908)">
<stop stop-color="#F1F1F5"/>
<stop offset="0.551" stop-color="#E4E2EC"/>
<stop offset="1" stop-color="#CFCFDE"/>
</radialGradient>
<linearGradient id="paint6_linear_4_40646" x1="71.0065" y1="65.3104" x2="75.5544" y2="65.3104" gradientUnits="userSpaceOnUse">
<stop stop-color="white"/>
<stop offset="1"/>
</linearGradient>
<linearGradient id="paint7_linear_4_40646" x1="80.7118" y1="60.2602" x2="109.182" y2="60.2602" gradientUnits="userSpaceOnUse">
<stop stop-color="white"/>
<stop offset="1"/>
</linearGradient>
<radialGradient id="paint8_radial_4_40646" cx="0" cy="0" r="1" gradientUnits="userSpaceOnUse" gradientTransform="translate(91.8979 77.5925) scale(13.7092 12.7386)">
<stop stop-color="#3E3C44"/>
<stop offset="0.551" stop-color="#242327"/>
<stop offset="1" stop-color="#040100"/>
</radialGradient>
<linearGradient id="paint9_linear_4_40646" x1="91.3594" y1="54.3002" x2="92.4339" y2="54.3002" gradientUnits="userSpaceOnUse">
<stop stop-color="#F1F1F5"/>
<stop offset="0.551" stop-color="#E4E2EC"/>
<stop offset="1" stop-color="#CFCFDE"/>
</linearGradient>
<linearGradient id="paint10_linear_4_40646" x1="119.574" y1="70.1284" x2="119.574" y2="86.5192" gradientUnits="userSpaceOnUse">
<stop stop-color="#F1F1F5"/>
<stop offset="0.5153" stop-color="#D5CFD9"/>
<stop offset="1" stop-color="#BBBBCA"/>
</linearGradient>
<linearGradient id="paint11_linear_4_40646" x1="118.224" y1="69.844" x2="118.224" y2="87.6121" gradientUnits="userSpaceOnUse">
<stop stop-color="#9DA1AF"/>
<stop offset="0.1378" stop-color="#ACB1C5"/>
<stop offset="0.2347" stop-color="#D7DBE7"/>
<stop offset="0.4133" stop-color="#9399B0"/>
<stop offset="0.6318" stop-color="#686D84"/>
<stop offset="1" stop-color="#41434F"/>
</linearGradient>
<linearGradient id="paint12_linear_4_40646" x1="64.3599" y1="70.1284" x2="64.3599" y2="86.5192" gradientUnits="userSpaceOnUse">
<stop stop-color="#F1F1F5"/>
<stop offset="0.5153" stop-color="#D5CFD9"/>
<stop offset="1" stop-color="#BBBBCA"/>
</linearGradient>
<linearGradient id="paint13_linear_4_40646" x1="65.7105" y1="69.844" x2="65.7105" y2="87.6121" gradientUnits="userSpaceOnUse">
<stop stop-color="#9DA1AF"/>
<stop offset="0.1378" stop-color="#ACB1C5"/>
<stop offset="0.2347" stop-color="#D7DBE7"/>
<stop offset="0.4133" stop-color="#9399B0"/>
<stop offset="0.6318" stop-color="#686D84"/>
<stop offset="1" stop-color="#41434F"/>
</linearGradient>
<linearGradient id="paint14_linear_4_40646" x1="64.6758" y1="105.466" x2="70.1986" y2="110.065" gradientUnits="userSpaceOnUse">
<stop stop-color="#F1F1F5"/>
<stop offset="0.551" stop-color="#E4E2EC"/>
<stop offset="1" stop-color="#CFCFDE"/>
</linearGradient>
<linearGradient id="paint15_linear_4_40646" x1="117.932" y1="92.1606" x2="122.288" y2="97.8766" gradientUnits="userSpaceOnUse">
<stop stop-color="#F1F1F5"/>
<stop offset="0.551" stop-color="#E4E2EC"/>
<stop offset="1" stop-color="#CFCFDE"/>
</linearGradient>
<linearGradient id="paint16_linear_4_40646" x1="131.56" y1="86.7239" x2="133.362" y2="80.4915" gradientUnits="userSpaceOnUse">
<stop stop-color="#9DA1AF"/>
<stop offset="0.2347" stop-color="#CFD1E3"/>
<stop offset="0.6318" stop-color="#686D84"/>
<stop offset="1" stop-color="#41434F"/>
</linearGradient>
<linearGradient id="paint17_linear_4_40646" x1="111.584" y1="47.0326" x2="149.836" y2="68.8258" gradientUnits="userSpaceOnUse">
<stop stop-color="#65E9BD"/>
<stop offset="1" stop-color="#0FBB93"/>
</linearGradient>
<clipPath id="clip0_4_40646">
<rect width="145" height="145" fill="white" transform="translate(56.667 0.5)"/>
</clipPath>
</defs>
</svg>
