<svg width="16" height="18" viewBox="0 0 16 18" fill="none" xmlns="http://www.w3.org/2000/svg">
<path d="M6.25 10.6652H9.58331V16.4985H6.25V10.6652Z" fill="#666666"/>
<path d="M14.9337 7.48159L8.5087 0.914969C8.43123 0.836863 8.33907 0.774868 8.23752 0.732561C8.13597 0.690254 8.02705 0.668472 7.91704 0.668472C7.80703 0.668472 7.69811 0.690254 7.59656 0.732561C7.49501 0.774868 7.40284 0.836863 7.32538 0.914969L0.900418 7.48992C0.74495 7.64665 0.622166 7.83269 0.539194 8.03726C0.456223 8.24183 0.414717 8.46084 0.417088 8.68158V15.6649C0.416443 16.0915 0.579398 16.5021 0.872397 16.8121C1.1654 17.1222 1.56613 17.3081 1.99208 17.3315H4.58373V9.83158C4.58373 9.61056 4.67152 9.3986 4.8278 9.24232C4.98408 9.08605 5.19604 8.99825 5.41706 8.99825H10.417C10.638 8.99825 10.85 9.08605 11.0063 9.24232C11.1626 9.3986 11.2503 9.61056 11.2503 9.83158V17.3315H13.842C14.2679 17.3081 14.6687 17.1222 14.9617 16.8121C15.2547 16.5021 15.4176 16.0915 15.417 15.6649V8.68158C15.4176 8.23403 15.2443 7.80374 14.9337 7.48159Z" fill="#666666"/>
</svg>
