<svg width="33" height="29" viewBox="0 0 33 29" fill="none" xmlns="http://www.w3.org/2000/svg">
<path d="M21.6626 28.48L19.1855 24.3833C24.4255 20.8583 27.1884 17.2379 27.2837 11.1405C26.9979 11.2358 26.712 11.2358 26.331 11.2358C23.3775 11.2358 20.7099 9.33034 20.7099 5.90055C20.7099 2.18494 22.9964 0.0889483 26.331 0.0889486C30.5229 0.088949 33 3.51875 33 9.61616C33 18.0954 28.9986 24.1928 21.6626 28.48ZM2.98928 28.48L0.512207 24.3833C5.6569 20.8583 8.41979 17.2379 8.51507 11.1405C8.22925 11.2358 7.94343 11.2358 7.65761 11.2358C4.70418 11.2358 1.94129 9.33034 1.94129 5.90054C1.94129 2.18493 4.32309 0.0889467 7.65761 0.088947C11.8496 0.0889474 14.2314 3.51875 14.2314 9.61616C14.2314 18.0954 10.23 24.1928 2.98928 28.48Z" fill="white"/>
</svg>
