<svg width="80" height="85" viewBox="0 0 80 85" fill="none" xmlns="http://www.w3.org/2000/svg">
<g clip-path="url(#clip0_364_15583)">
<path d="M78.3868 51.6618C76.372 49.8544 73.2978 50.054 71.5221 52.0355L66.3163 57.8424C68.4601 42.1744 69.2026 27.5731 69.5051 23.5796L65.654 14.1173L60.7674 13.7408C59.7769 7.36717 52.087 5.23836 48.6229 10.1878C46.9546 7.12136 43.5172 5.7105 40.4809 6.75433C39.2129 7.19032 38.1274 8.01393 37.3266 9.15174C36.8377 8.26084 36.1787 7.48117 35.4002 6.86499C35.8907 5.13381 35.3985 3.19352 33.971 1.9139C31.9595 0.109859 28.8864 0.302275 27.1063 2.28816L12.2458 18.8637L8.68551 14.3286C7.01104 12.1959 3.95185 11.8645 1.86086 13.5067C-0.251826 15.1656 -0.62053 18.2181 1.03892 20.3313L8.17499 29.4222C10.0574 31.8201 13.6177 31.8958 15.618 29.6657L19.1527 25.7229L13.0888 75.493L16.6758 75.6398L19.1232 81.6269L20.2121 81.7999C35.2628 84.1751 48.2548 84.0883 47.9767 84.0883C56.1055 84.0883 60.4487 83.1401 60.9287 83.0823C61.2913 82.1675 61.9297 80.7794 63.0653 76.033L78.7616 58.5253C80.5506 56.5294 80.3827 53.4502 78.3874 51.6618H78.3868Z" fill="white"/>
<path d="M9.71467 28.2142L2.5786 19.1228C1.58871 17.8615 1.80838 16.0369 3.06965 15.047C4.33036 14.0571 6.15553 14.2768 7.14542 15.5381L12.146 21.9084L28.5642 3.59494C29.6342 2.40096 31.4699 2.30086 32.6633 3.37138C33.8573 4.44135 33.9574 6.27708 32.8869 7.47051L14.1597 28.3593C12.9529 29.7046 10.8275 29.6317 9.71467 28.2136V28.2142Z" fill="#AAD66D"/>
<path d="M67.5238 23.9065L64.2962 15.9768L33.2955 62.5281L20.7935 64.4161L17.7932 73.2022L20.5171 79.8667C20.5171 79.8667 45.0685 83.7612 59.5169 81.3348C59.5169 81.3348 64.8684 67.918 67.5233 23.9065H67.5238Z" fill="#76A0EE"/>
<path d="M64.2963 15.9768C64.2963 15.9768 60.8239 61.5104 55.285 76.565L18.439 74.7805L17.7939 73.2022L64.2963 15.9768Z" fill="#ABA2F9"/>
<path d="M22.7027 12.772L64.2963 15.9769L53.0716 75.1731L15.2886 73.6244L22.7027 12.772Z" fill="#E3F2F5"/>
<path d="M29.8221 7.56667C26.075 8.85742 25.6418 14.408 29.1075 16.8282C29.4901 17.0896 29.9734 16.9828 30.1958 16.588C30.4149 16.197 30.2865 15.6637 29.9067 15.3984C27.631 13.808 27.8346 10.0837 30.3871 9.20499C32.8563 8.3558 35.3332 11.0163 34.5969 13.689L36.2225 13.8163C36.9343 9.97076 33.3846 6.34266 29.8221 7.56723V7.56667Z" fill="#FFB020"/>
<path d="M41.1167 8.60559C37.3679 9.89522 36.9314 15.4436 40.4021 17.8671C40.7808 18.1291 41.2646 18.0229 41.4904 17.6269C41.7095 17.2359 41.5777 16.7037 41.2012 16.4374C38.9128 14.8374 39.1325 11.1226 41.6784 10.2445C43.3306 9.67611 45.183 10.7055 45.812 12.529C46.0444 13.2163 46.0745 13.9204 45.9304 14.5627L47.5437 14.685C47.6761 13.8314 47.6055 12.9149 47.2963 12.0201C46.3586 9.28739 43.5831 7.75696 41.1167 8.60503V8.60559Z" fill="#FFB020"/>
<path d="M58.591 13.06C57.2224 9.08823 52.3853 8.12615 50.1875 11.3666C48.5553 13.7846 49.3306 17.257 51.6935 18.9076C52.0761 19.1689 52.5594 19.0622 52.7818 18.6673C53.0015 18.2764 52.8725 17.7431 52.4932 17.4778C50.9033 16.3661 50.4311 14.0966 51.4449 12.5067C52.8563 10.2822 56.1708 10.8506 57.1034 13.5694C57.3192 14.1989 57.3631 14.8379 57.2597 15.4352L58.8629 15.5603C58.9591 14.755 58.8768 13.8992 58.5915 13.0606L58.591 13.06Z" fill="#FFB020"/>
<path d="M33.2194 33.4148C33.2127 33.4148 33.206 33.4148 33.1988 33.4148L24.8865 33.0133C24.648 33.0016 24.4689 32.7931 24.4911 32.5573L25.2347 24.7344C25.2552 24.5209 25.4337 24.3579 25.6478 24.3568L34.1759 24.3179H34.1781C34.4272 24.3179 34.6208 24.5353 34.5924 24.7828L33.6326 33.0455C33.6081 33.2569 33.429 33.4148 33.2188 33.4148H33.2194ZM25.3631 32.2008L32.8495 32.5623L33.7099 25.1537L26.0293 25.1887L25.3626 32.2008H25.3631Z" fill="#B2ACA3"/>
<path d="M32.1612 47.2919L23.8489 46.8904C23.6104 46.8787 23.4313 46.6702 23.4535 46.4344L24.1971 38.6115C24.2176 38.398 24.3961 38.235 24.6102 38.2339L33.1388 38.1956H33.1411C33.3902 38.1956 33.5837 38.413 33.5554 38.6605L32.5955 46.9232C32.5705 47.1396 32.382 47.3025 32.1612 47.2919ZM24.3255 46.0785L31.8119 46.44L32.6723 39.0314L24.9917 39.0659L24.325 46.0779L24.3255 46.0785Z" fill="#B2ACA3"/>
<path d="M31.1068 61.0571C31.1001 61.0571 31.0935 61.0571 31.0862 61.0571L22.774 60.6556C22.5354 60.6439 22.3563 60.4354 22.3786 60.1996L23.1221 52.3767C23.1427 52.1632 23.3212 52.0002 23.5353 51.9991L32.0639 51.9602H32.0661C32.3152 51.9602 32.5088 52.1776 32.4804 52.4251L31.5206 60.6879C31.4961 60.8992 31.317 61.0571 31.1068 61.0571ZM23.2506 59.8431L30.737 60.2046L31.5973 52.796L23.9168 52.8311L23.25 59.8431H23.2506Z" fill="#B2ACA3"/>
<path d="M28.4353 31.1331L25.1408 26.9367C24.9985 26.7554 25.0302 26.4935 25.2115 26.3511C25.3928 26.2087 25.6547 26.2404 25.7971 26.4217L28.7845 30.2272L35.7582 22.4488C35.9117 22.2776 36.1753 22.2631 36.3471 22.4166C36.5184 22.5706 36.5329 22.8342 36.3794 23.0055L29.0742 31.1537C28.9018 31.3461 28.5965 31.3372 28.4358 31.1331H28.4353Z" fill="#FF605B"/>
<path d="M27.4587 45.4945L24.1643 41.298C24.0219 41.1167 24.0536 40.8548 24.2349 40.7124C24.4162 40.5701 24.6781 40.6018 24.8205 40.7831L27.8079 44.5886L34.7811 36.8102C34.9346 36.6389 35.1982 36.6244 35.37 36.7779C35.5413 36.932 35.5557 37.1956 35.4023 37.3668L28.0971 45.5151C27.9247 45.7075 27.6194 45.6986 27.4587 45.4945Z" fill="#FF605B"/>
<path d="M26.4499 59.5257L23.1555 55.3293C23.0131 55.148 23.0448 54.8861 23.2261 54.7437C23.4074 54.6013 23.6693 54.633 23.8117 54.8143L26.7992 58.6198L33.7728 50.8414C33.9263 50.6701 34.1899 50.6557 34.3618 50.8092C34.5331 50.9632 34.5475 51.2268 34.394 51.3981L27.0889 59.5463C26.9165 59.7387 26.6112 59.7298 26.4505 59.5257H26.4499Z" fill="#FF605B"/>
<path d="M37.1896 27.2163C36.9605 27.1924 36.7948 26.9867 36.8187 26.7575C36.8432 26.5284 37.0467 26.361 37.2775 26.3866C37.4143 26.4011 51.018 27.8225 56.8528 27.1997C57.0835 27.1785 57.2871 27.3415 57.3121 27.57C57.3366 27.7991 57.1703 28.0049 56.9417 28.0294C52.103 28.5449 41.9461 27.7174 37.1902 27.2163H37.1896Z" fill="#1D1D3D"/>
<path d="M36.2787 42.0642C36.049 42.0453 35.8783 41.8434 35.8978 41.6143C35.9167 41.3847 36.1185 41.2162 36.3476 41.2334C36.4617 41.2428 47.8553 42.1699 55.1788 41.2356C55.4063 41.2073 55.6159 41.368 55.6454 41.5965C55.6743 41.8251 55.5131 42.0336 55.2845 42.0631C49.9769 42.7405 41.5357 42.5013 36.2787 42.0653V42.0642Z" fill="#1D1D3D"/>
<path d="M35.0753 56.1784C34.845 56.1689 34.666 55.9748 34.6749 55.7452C34.6838 55.5149 34.8773 55.3364 35.1081 55.3448C35.2271 55.3492 47.0395 55.8141 52.5 55.3459C52.7314 55.3275 52.9316 55.496 52.9516 55.7257C52.9711 55.9554 52.8009 56.1572 52.5718 56.1773C48.2063 56.5515 39.4319 56.3486 35.0753 56.1784Z" fill="#1D1D3D"/>
<path d="M54.1305 77.9617L46.9939 68.8708C46.004 67.6096 46.2237 65.785 47.4849 64.7951C48.7456 63.8052 50.5708 64.0249 51.5607 65.2861L56.5613 71.6564L72.9795 53.343C74.0495 52.149 75.8852 52.0489 77.0786 53.1194C78.2726 54.1894 78.3727 56.0251 77.3022 57.2186L58.575 78.1074C57.3682 79.4526 55.2427 79.3798 54.13 77.9617H54.1305Z" fill="#AAD66D"/>
</g>
<defs>
<clipPath id="clip0_364_15583">
<rect width="80" height="83.4173" fill="white" transform="translate(0 0.671875)"/>
</clipPath>
</defs>
</svg>
