<svg width="77" height="82" viewBox="0 0 77 82" fill="none" xmlns="http://www.w3.org/2000/svg">
<g clip-path="url(#clip0_364_15840)">
<path d="M19.8923 73.6893L19.7135 72.915C19.3262 71.2374 20.3684 69.5696 22.1105 69.1674L71.1479 57.8463L70.4031 54.6201L21.3657 65.9413C17.8814 66.7457 15.7624 70.2252 16.5519 73.645L16.7306 74.4192C17.535 77.9035 21.0146 80.0225 24.4343 79.233L73.4717 67.9118L72.7269 64.6857L23.6895 76.0069C22.0119 76.3942 20.2796 75.3669 19.8923 73.6893Z" fill="#328C2B"/>
<path d="M22.0954 69.1029C20.4178 69.4902 19.3111 71.1729 19.6984 72.8505L19.8772 73.6248C20.2645 75.3024 21.9323 76.3446 23.6744 75.9424L72.7118 64.6212L71.1179 57.7172L22.0805 69.0384L22.0954 69.1029Z" fill="#EEEEEE"/>
<path d="M9.32953 13.8073C5.84529 14.6117 3.72624 18.0912 4.51574 21.5109L16.5371 73.5809C15.7327 70.0967 17.9311 66.6668 21.3508 65.8773L22.5768 65.5942L10.5555 13.5242L9.32953 13.8073Z" fill="#328C2B"/>
<path d="M58.3026 2.50164L10.5557 13.5249L22.577 65.5949L70.3239 54.5716L58.3026 2.50164Z" fill="#3EB135"/>
<path d="M25.4014 71.9429L67.3413 62.2603" stroke="#8EBAEF" stroke-width="1.5"/>
<path d="M31.4767 38.8018L28.6377 39.4573" stroke="#255599" stroke-width="1.5"/>
<path d="M26.3795 39.9791L23.5405 40.6345" stroke="#255599" stroke-width="1.5"/>
<path d="M26.5552 35.7249L27.2106 38.5639" stroke="#255599" stroke-width="1.5"/>
<path d="M27.7319 40.8228L28.3874 43.6618" stroke="#255599" stroke-width="1.5"/>
<path d="M27.6582 55.5188L28.1647 57.7126" stroke="#255599" stroke-width="1.5"/>
<path d="M34.562 53.9248L35.0685 56.1186" stroke="#255599" stroke-width="1.5"/>
<path d="M41.4663 52.3311L41.9728 54.5248" stroke="#255599" stroke-width="1.5"/>
<path d="M48.3701 50.7375L48.8766 52.9313" stroke="#255599" stroke-width="1.5"/>
<path d="M55.3384 49.1282L55.8449 51.322" stroke="#255599" stroke-width="1.5"/>
<path d="M62.2427 47.5344L62.7492 49.7282" stroke="#255599" stroke-width="1.5"/>
<path d="M51.7651 -0.202842C53.1193 -0.515468 53.9636 -1.86664 53.651 -3.22077C53.3383 -4.57491 51.9872 -5.41921 50.633 -5.10659C49.2789 -4.79396 48.4346 -3.44279 48.7472 -2.08866C49.0598 -0.734525 50.411 0.109783 51.7651 -0.202842Z" fill="#FCFCFC" stroke="#8EBAEF" stroke-width="1.5"/>
<path d="M47.2039 21.8992L35.1566 24.6805L34.809 23.1746L46.8562 20.3933L47.2039 21.8992ZM37.2744 27.5775C37.1562 27.0659 37.2388 26.5867 37.522 26.14C37.8101 25.6922 38.2775 25.2945 38.9243 24.947C39.571 24.5994 40.3747 24.3147 41.3352 24.093C42.286 23.8734 43.1258 23.7787 43.8547 23.8087C44.5824 23.8339 45.172 23.9875 45.6235 24.2697C46.0739 24.547 46.3606 24.9409 46.4835 25.4514C46.5979 25.9689 46.5135 26.4511 46.2303 26.8978C45.9481 27.3493 45.4861 27.7483 44.8442 28.0947C44.2023 28.4412 43.4059 28.7242 42.455 28.9437C41.4994 29.1643 40.6523 29.2608 39.9138 29.233C39.1801 29.2041 38.5851 29.0491 38.1288 28.7681C37.6784 28.4908 37.3936 28.0939 37.2744 27.5775ZM34.961 17.1609L44.0978 15.0515L44.4421 16.5429L37.1443 18.2278L37.5588 20.0233L44.929 18.3217L45.2667 19.7842L36.0575 21.9103L34.961 17.1609ZM39.1567 27.1429C39.3101 27.8294 40.3015 27.9615 42.1308 27.5392C43.9504 27.1191 44.7835 26.5658 44.6301 25.8793C44.5484 25.5474 44.2564 25.3504 43.754 25.2885C43.2505 25.2217 42.5523 25.2914 41.6594 25.4975C40.7472 25.7081 40.0819 25.9532 39.6635 26.2328C39.2439 26.5076 39.075 26.811 39.1567 27.1429Z" fill="white"/>
<path d="M32.0146 19.9925C32.1869 20.761 32.327 21.4226 32.4347 21.9773C32.5461 22.5261 32.6485 23.1786 32.7417 23.9349C32.8339 24.6864 32.8976 25.513 32.933 26.4149L31.0361 26.6545C31.0078 25.4969 30.923 24.4692 30.7819 23.5714C30.6396 22.6688 30.4494 21.6909 30.2113 20.6376L22.4501 22.4294L22.1125 20.9669L31.7271 18.7472L32.0146 19.9925ZM22.9264 30.174L27.227 29.1811L26.1806 24.6489L28.0196 24.2244L29.0659 28.7566L34.9447 27.3993L35.2924 28.9053L23.2741 31.6799L22.9264 30.174Z" fill="white"/>
</g>
<defs>
<clipPath id="clip0_364_15840">
<rect width="60.8696" height="70" fill="white" transform="translate(0.972168 13.6926) rotate(-13)"/>
</clipPath>
</defs>
</svg>
