<svg width="66" height="13" viewBox="0 0 66 13" fill="none" xmlns="http://www.w3.org/2000/svg">
<mask id="path-1-outside-1_1013_6229" maskUnits="userSpaceOnUse" x="-3" y="-2.51025" width="73" height="20" fill="black">
<rect fill="white" x="-3" y="-2.51025" width="73" height="20"/>
<path d="M0.484375 0.880371L10.2969 0.880371L10.2969 2.66943L5.00781 2.66943L5 5.80225L9.04687 5.80225L9.04687 7.59131L5 7.59131L5 10.7007L10.2969 10.7007L10.2969 12.4897L0.484375 12.4897L0.484375 0.880371ZM12.4209 0.880371L17.3663 0.880371L20.085 8.34131L22.6006 0.880371L24.6397 0.872559L20.5694 12.4897L16.8897 12.4819L12.4209 0.880371ZM27.1856 0.880371L36.9981 0.880371L36.9981 2.66943L31.7091 2.66943L31.7013 5.80225L35.7481 5.80225L35.7481 7.59131L31.7013 7.59131L31.7013 10.7007L36.9981 10.7007L36.9981 12.4897L27.1856 12.4897L27.1856 0.880371ZM40.2863 0.880371L43.1144 0.880371L50.4816 7.06787L50.4894 0.880371L52.2081 0.880371L52.2081 12.4897L49.38 12.4897L42.005 6.32568L42.005 12.4897L40.2863 12.4897L40.2863 0.880371ZM58.1759 2.66162L54.8634 2.66162L54.8634 0.872559L66.0041 0.872559L66.0041 2.66162L62.6916 2.66162L62.6916 12.4897L58.1759 12.4897L58.1759 2.66162Z"/>
</mask>
<path d="M0.484375 0.880371L10.2969 0.880371L10.2969 2.66943L5.00781 2.66943L5 5.80225L9.04687 5.80225L9.04687 7.59131L5 7.59131L5 10.7007L10.2969 10.7007L10.2969 12.4897L0.484375 12.4897L0.484375 0.880371ZM12.4209 0.880371L17.3663 0.880371L20.085 8.34131L22.6006 0.880371L24.6397 0.872559L20.5694 12.4897L16.8897 12.4819L12.4209 0.880371ZM27.1856 0.880371L36.9981 0.880371L36.9981 2.66943L31.7091 2.66943L31.7013 5.80225L35.7481 5.80225L35.7481 7.59131L31.7013 7.59131L31.7013 10.7007L36.9981 10.7007L36.9981 12.4897L27.1856 12.4897L27.1856 0.880371ZM40.2863 0.880371L43.1144 0.880371L50.4816 7.06787L50.4894 0.880371L52.2081 0.880371L52.2081 12.4897L49.38 12.4897L42.005 6.32568L42.005 12.4897L40.2863 12.4897L40.2863 0.880371ZM58.1759 2.66162L54.8634 2.66162L54.8634 0.872559L66.0041 0.872559L66.0041 2.66162L62.6916 2.66162L62.6916 12.4897L58.1759 12.4897L58.1759 2.66162Z" fill="#333333"/>
<path d="M0.484375 0.880371L0.484375 -2.11963L-2.51562 -2.11963L-2.51563 0.880371L0.484375 0.880371ZM10.2969 0.880371L13.2969 0.880371L13.2969 -2.11963L10.2969 -2.11963L10.2969 0.880371ZM10.2969 2.66943L10.2969 5.66943L13.2969 5.66943L13.2969 2.66943L10.2969 2.66943ZM5.00781 2.66943L5.00781 -0.330566L2.01528 -0.330566L2.00782 2.66195L5.00781 2.66943ZM5 5.80225L2.00001 5.79477L1.99251 8.80225L5 8.80225L5 5.80225ZM9.04687 5.80225L12.0469 5.80225L12.0469 2.80225L9.04687 2.80225L9.04687 5.80225ZM9.04687 7.59131L9.04687 10.5913L12.0469 10.5913L12.0469 7.59131L9.04687 7.59131ZM5 7.59131L5 4.59131L2 4.59131L2 7.59131L5 7.59131ZM5 10.7007L2 10.7007L2 13.7007L5 13.7007L5 10.7007ZM10.2969 10.7007L13.2969 10.7007L13.2969 7.70068L10.2969 7.70068L10.2969 10.7007ZM10.2969 12.4897L10.2969 15.4897L13.2969 15.4897L13.2969 12.4897L10.2969 12.4897ZM0.484375 12.4897L-2.51563 12.4897L-2.51563 15.4897L0.484375 15.4897L0.484375 12.4897ZM0.484375 3.88037L10.2969 3.88037L10.2969 -2.11963L0.484375 -2.11963L0.484375 3.88037ZM7.29687 0.880371L7.29687 2.66943L13.2969 2.66943L13.2969 0.880371L7.29687 0.880371ZM10.2969 -0.330566L5.00781 -0.330566L5.00781 5.66943L10.2969 5.66943L10.2969 -0.330566ZM2.00782 2.66195L2.00001 5.79477L7.99999 5.80973L8.0078 2.67691L2.00782 2.66195ZM5 8.80225L9.04687 8.80225L9.04687 2.80225L5 2.80225L5 8.80225ZM6.04687 5.80225L6.04687 7.59131L12.0469 7.59131L12.0469 5.80225L6.04687 5.80225ZM9.04687 4.59131L5 4.59131L5 10.5913L9.04687 10.5913L9.04687 4.59131ZM2 7.59131L2 10.7007L8 10.7007L8 7.59131L2 7.59131ZM5 13.7007L10.2969 13.7007L10.2969 7.70068L5 7.70068L5 13.7007ZM7.29687 10.7007L7.29687 12.4897L13.2969 12.4897L13.2969 10.7007L7.29687 10.7007ZM10.2969 9.48975L0.484375 9.48975L0.484375 15.4897L10.2969 15.4897L10.2969 9.48975ZM3.48437 12.4897L3.48437 0.880371L-2.51563 0.880371L-2.51563 12.4897L3.48437 12.4897ZM12.4209 0.880371L12.4209 -2.11963L8.05052 -2.11963L9.62144 1.9587L12.4209 0.880371ZM17.3662 0.880371L20.1849 -0.146754L19.466 -2.11963L17.3662 -2.11963L17.3662 0.880371ZM20.085 8.34131L17.2663 9.36843L20.1949 17.4051L22.9278 9.29981L20.085 8.34131ZM22.6006 0.880371L22.5891 -2.11961L20.4434 -2.11139L19.7579 -0.0781296L22.6006 0.880371ZM24.6397 0.872559L27.4709 1.86454L28.8753 -2.14369L24.6282 -2.12742L24.6397 0.872559ZM20.5694 12.4897L20.563 15.4897L22.6955 15.4943L23.4006 13.4817L20.5694 12.4897ZM16.8897 12.4819L14.0902 13.5603L14.8287 15.4776L16.8833 15.4819L16.8897 12.4819ZM12.4209 3.88037L17.3662 3.88037L17.3662 -2.11963L12.4209 -2.11963L12.4209 3.88037ZM14.5476 1.9075L17.2663 9.36843L22.9037 7.31418L20.1849 -0.146754L14.5476 1.9075ZM22.9278 9.29981L25.4434 1.83887L19.7579 -0.0781296L17.2422 7.38281L22.9278 9.29981ZM22.6121 3.88035L24.6512 3.87254L24.6282 -2.12742L22.5891 -2.11961L22.6121 3.88035ZM21.8084 -0.119425L17.7381 11.4978L23.4006 13.4817L27.4709 1.86454L21.8084 -0.119425ZM20.5757 9.48975L16.8961 9.48194L16.8833 15.4819L20.563 15.4897L20.5757 9.48975ZM19.6892 11.4036L15.2204 -0.197956L9.62144 1.9587L14.0902 13.5603L19.6892 11.4036ZM27.1856 0.880371L27.1856 -2.11963L24.1856 -2.11963L24.1856 0.880371L27.1856 0.880371ZM36.9981 0.880371L39.9981 0.880371L39.9981 -2.11963L36.9981 -2.11963L36.9981 0.880371ZM36.9981 2.66943L36.9981 5.66943L39.9981 5.66943L39.9981 2.66943L36.9981 2.66943ZM31.7091 2.66943L31.7091 -0.330566L28.7165 -0.330566L28.7091 2.66195L31.7091 2.66943ZM31.7012 5.80225L28.7013 5.79477L28.6938 8.80225L31.7012 8.80225L31.7012 5.80225ZM35.7481 5.80225L38.7481 5.80225L38.7481 2.80225L35.7481 2.80225L35.7481 5.80225ZM35.7481 7.59131L35.7481 10.5913L38.7481 10.5913L38.7481 7.59131L35.7481 7.59131ZM31.7012 7.59131L31.7012 4.59131L28.7013 4.59131L28.7013 7.59131L31.7012 7.59131ZM31.7012 10.7007L28.7013 10.7007L28.7013 13.7007L31.7012 13.7007L31.7012 10.7007ZM36.9981 10.7007L39.9981 10.7007L39.9981 7.70068L36.9981 7.70068L36.9981 10.7007ZM36.9981 12.4897L36.9981 15.4897L39.9981 15.4897L39.9981 12.4897L36.9981 12.4897ZM27.1856 12.4897L24.1856 12.4897L24.1856 15.4897L27.1856 15.4897L27.1856 12.4897ZM27.1856 3.88037L36.9981 3.88037L36.9981 -2.11963L27.1856 -2.11963L27.1856 3.88037ZM33.9981 0.880371L33.9981 2.66943L39.9981 2.66943L39.9981 0.880371L33.9981 0.880371ZM36.9981 -0.330566L31.7091 -0.330566L31.7091 5.66943L36.9981 5.66943L36.9981 -0.330566ZM28.7091 2.66195L28.7013 5.79477L34.7012 5.80973L34.7091 2.67692L28.7091 2.66195ZM31.7012 8.80225L35.7481 8.80225L35.7481 2.80225L31.7012 2.80225L31.7012 8.80225ZM32.7481 5.80225L32.7481 7.59131L38.7481 7.59131L38.7481 5.80225L32.7481 5.80225ZM35.7481 4.59131L31.7012 4.59131L31.7012 10.5913L35.7481 10.5913L35.7481 4.59131ZM28.7013 7.59131L28.7013 10.7007L34.7012 10.7007L34.7012 7.59131L28.7013 7.59131ZM31.7012 13.7007L36.9981 13.7007L36.9981 7.70068L31.7012 7.70068L31.7012 13.7007ZM33.9981 10.7007L33.9981 12.4897L39.9981 12.4897L39.9981 10.7007L33.9981 10.7007ZM36.9981 9.48975L27.1856 9.48975L27.1856 15.4897L36.9981 15.4897L36.9981 9.48975ZM30.1856 12.4897L30.1856 0.880371L24.1856 0.880371L24.1856 12.4897L30.1856 12.4897ZM40.2863 0.880371L40.2863 -2.11963L37.2863 -2.11963L37.2863 0.880371L40.2863 0.880371ZM43.1144 0.880371L45.0438 -1.41689L44.2071 -2.11963L43.1144 -2.11963L43.1144 0.880371ZM50.4816 7.06787L48.5522 9.36513L53.4734 13.4984L53.4816 7.07166L50.4816 7.06787ZM50.4894 0.880371L50.4894 -2.11963L47.4932 -2.11963L47.4894 0.876583L50.4894 0.880371ZM52.2081 0.880371L55.2081 0.880371L55.2081 -2.11963L52.2081 -2.11963L52.2081 0.880371ZM52.2081 12.4897L52.2081 15.4897L55.2081 15.4897L55.2081 12.4897L52.2081 12.4897ZM49.38 12.4897L47.4561 14.7916L48.2914 15.4897L49.38 15.4897L49.38 12.4897ZM42.005 6.32568L43.9289 4.02382L39.005 -0.0916076L39.005 6.32568L42.005 6.32568ZM42.005 12.4897L42.005 15.4897L45.005 15.4897L45.005 12.4897L42.005 12.4897ZM40.2863 12.4897L37.2863 12.4897L37.2863 15.4897L40.2863 15.4897L40.2863 12.4897ZM40.2863 3.88037L43.1144 3.88037L43.1144 -2.11963L40.2863 -2.11963L40.2863 3.88037ZM41.185 3.17763L48.5522 9.36513L52.411 4.77061L45.0438 -1.41689L41.185 3.17763ZM53.4816 7.07166L53.4894 0.884159L47.4894 0.876583L47.4816 7.06408L53.4816 7.07166ZM50.4894 3.88037L52.2081 3.88037L52.2081 -2.11963L50.4894 -2.11963L50.4894 3.88037ZM49.2081 0.880371L49.2081 12.4897L55.2081 12.4897L55.2081 0.880371L49.2081 0.880371ZM52.2081 9.48975L49.38 9.48975L49.38 15.4897L52.2081 15.4897L52.2081 9.48975ZM51.3039 10.1879L43.9289 4.02382L40.0811 8.62755L47.4561 14.7916L51.3039 10.1879ZM39.005 6.32568L39.005 12.4897L45.005 12.4897L45.005 6.32568L39.005 6.32568ZM42.005 9.48975L40.2863 9.48975L40.2863 15.4897L42.005 15.4897L42.005 9.48975ZM43.2863 12.4897L43.2863 0.880371L37.2863 0.880371L37.2863 12.4897L43.2863 12.4897ZM58.1759 2.66162L61.1759 2.66162L61.1759 -0.338379L58.1759 -0.338379L58.1759 2.66162ZM54.8634 2.66162L51.8634 2.66162L51.8634 5.66162L54.8634 5.66162L54.8634 2.66162ZM54.8634 0.872559L54.8634 -2.12744L51.8634 -2.12744L51.8634 0.872559L54.8634 0.872559ZM66.0041 0.872559L69.0041 0.872559L69.0041 -2.12744L66.0041 -2.12744L66.0041 0.872559ZM66.0041 2.66162L66.0041 5.66162L69.0041 5.66162L69.0041 2.66162L66.0041 2.66162ZM62.6916 2.66162L62.6916 -0.338379L59.6916 -0.338379L59.6916 2.66162L62.6916 2.66162ZM62.6916 12.4897L62.6916 15.4897L65.6916 15.4897L65.6916 12.4897L62.6916 12.4897ZM58.1759 12.4897L55.1759 12.4897L55.1759 15.4897L58.1759 15.4897L58.1759 12.4897ZM58.1759 -0.338379L54.8634 -0.338379L54.8634 5.66162L58.1759 5.66162L58.1759 -0.338379ZM57.8634 2.66162L57.8634 0.872559L51.8634 0.872559L51.8634 2.66162L57.8634 2.66162ZM54.8634 3.87256L66.0041 3.87256L66.0041 -2.12744L54.8634 -2.12744L54.8634 3.87256ZM63.0041 0.872559L63.0041 2.66162L69.0041 2.66162L69.0041 0.872559L63.0041 0.872559ZM66.0041 -0.338379L62.6916 -0.338379L62.6916 5.66162L66.0041 5.66162L66.0041 -0.338379ZM59.6916 2.66162L59.6916 12.4897L65.6916 12.4897L65.6916 2.66162L59.6916 2.66162ZM62.6916 9.48975L58.1759 9.48975L58.1759 15.4897L62.6916 15.4897L62.6916 9.48975ZM61.1759 12.4897L61.1759 2.66162L55.1759 2.66162L55.1759 12.4897L61.1759 12.4897Z" fill="white" mask="url(#path-1-outside-1_1013_6229)"/>
</svg>
