<svg width="90" height="80" viewBox="0 0 90 80" fill="none" xmlns="http://www.w3.org/2000/svg">
<g clip-path="url(#clip0_364_15925)">
<path d="M62.0176 25.465L63.3147 25.2598C64.7337 25.0354 77.1562 22.8509 76.3828 15.4376C75.9796 11.5726 73.2467 9.35685 69.0211 10.036C66.9098 5.77919 60.6454 4.93863 58.0739 10.3948C55.395 16.0766 60.6394 23.5673 61.2466 24.4024L62.0182 25.465H62.0176Z" fill="white"/>
<path d="M22.7975 25.2593L24.0947 25.4645L24.8662 24.4019C25.4728 23.5667 30.7172 16.076 28.0383 10.3943C25.4782 4.96387 19.2133 5.75644 17.0912 10.0355C12.8667 9.3563 10.1332 11.5702 9.72945 15.4371C8.95609 22.8498 21.378 25.0343 22.7975 25.2593Z" fill="white"/>
<path d="M56.0494 38.1905L61.2392 28.3191C62.3311 26.2414 60.8372 23.6729 58.4331 23.6729C57.4767 23.6729 56.5821 24.0977 55.9774 24.8374L54.8206 26.2534L55.57 22.3757C55.9138 20.5974 54.7492 18.8575 52.9739 18.4987C51.4433 18.1891 49.8918 18.9871 49.269 20.442L47.9665 23.4827L47.5441 18.1237C47.4643 17.1103 46.9615 16.2188 46.2206 15.6116C49.434 12.8283 53.9267 7.80652 51.1632 3.24371C49.038 -0.266753 45.5624 -0.794132 42.1989 1.49838C38.5763 -1.37851 32.4517 0.345223 32.4517 6.48898C32.4517 11.8402 38.2085 15.9242 40.4746 17.3251C40.3216 17.8123 40.396 17.4169 39.5446 25.075L37.4717 20.5782C36.6125 18.7141 34.3284 17.9569 32.5189 18.9799C31.0724 19.7976 30.3944 21.4806 30.8708 23.0723C32.6155 28.9095 31.8817 26.0674 34.1304 35.9082L34.0926 38.2373C32.9329 37.4591 30.7382 36.2274 28.4139 36.1548L29.4644 32.7925C29.885 31.445 29.3 29.9606 28.0731 29.2629C26.6115 28.4319 24.745 28.9527 23.9302 30.431L23.7599 30.74L23.7809 28.5699C23.7983 26.8504 22.4129 25.4248 20.6928 25.3924C19.1166 25.3756 17.8849 26.4358 17.5657 27.8415L17.2129 29.3943L16.3478 26.1418C15.8882 24.4157 14.1632 23.3225 12.3909 23.6717C10.705 24.0035 9.52543 25.546 9.64662 27.2595L9.99821 32.2405L8.18988 29.6702C7.07452 28.0839 4.82642 27.7707 3.32048 29.0283C2.11632 30.0332 1.77314 31.7114 2.48591 33.1075C4.85581 37.7531 3.79746 35.4708 7.19332 43.3731L7.42491 44.7656C4.67582 43.7067 0.574986 43.3737 0.0416072 46.259C-0.134786 47.2117 0.2324 48.1711 1.00037 48.7633L4.45323 51.4266C5.44139 52.5899 8.68066 56.1604 12.0765 57.2697L15.4472 78.8431C27.0447 81.0384 31.7683 73.4067 32.3695 72.9561L25.9072 53.4683C27.2985 50.2356 27.0795 45.332 26.6337 41.8528L26.7111 41.6062L29.225 44.4015C30.0938 45.9134 33.1291 50.835 36.8171 52.7111L36.15 78.1459C48.3583 82.8569 55.5298 75.2864 56.0626 75.0374L52.7513 51.3732C55.06 47.9869 55.8376 42.2889 56.0482 38.1923L56.0494 38.1905Z" fill="white"/>
<path d="M86.9763 34.2734C85.753 34.2734 85.0666 34.9765 84.9058 35.0665L85.8394 33.1064C86.8239 31.0389 85.318 28.6066 82.9991 28.6066C82.0169 28.6066 81.1092 29.0524 80.5092 29.8287L79.5348 31.0887L80.1204 27.775C80.4324 26.0105 79.3128 24.294 77.5723 23.8674C75.884 23.4534 74.174 24.387 73.5723 25.9655L71.7933 30.6309L71.2359 27.538C70.8892 25.6121 68.9734 24.4014 67.0901 24.9047C65.5752 25.3091 64.5576 26.6855 64.6152 28.2532C64.8078 33.4652 64.8096 30.9489 64.5606 39.546L64.1844 40.9055C62.0611 38.7096 58.3491 36.6829 56.7561 39.306C56.2863 40.0793 56.2551 41.0219 56.6733 41.8259L58.6827 45.6957C59.0888 47.1669 60.5228 51.7699 63.1351 54.2064L57.1053 75.1923C62.9941 79.364 68.2247 79.9423 74.9324 76.9809L77.2795 56.5841C79.9044 54.2364 81.7697 49.6976 82.8305 46.3551L89.2136 39.3306C90.9536 37.416 89.621 34.2728 86.9751 34.2728L86.9763 34.2734Z" fill="white"/>
<path d="M41.9418 4.52527C41.9418 4.52527 46.4116 -0.467127 49.3311 4.35428C52.2506 9.17569 42.3264 15.929 42.3264 15.929C42.3264 15.929 34.5957 11.6848 34.5957 6.48959C34.5957 1.2944 40.4047 1.253 41.9418 4.52467V4.52527Z" fill="#F48682"/>
<path d="M67.4941 12.6642C67.4941 12.6642 73.6655 10.0543 74.2505 15.6605C74.8354 21.2667 62.9787 23.1434 62.9787 23.1434C62.9787 23.1434 57.7955 16.0079 60.0106 11.3088C62.2257 6.60984 67.4977 9.04934 67.4935 12.6642H67.4941Z" fill="#A369F7"/>
<path d="M18.6176 12.6642C18.6176 12.6642 12.4463 10.0543 11.8613 15.6605C11.2763 21.2667 23.133 23.1434 23.133 23.1434C23.133 23.1434 28.3162 16.0079 26.1011 11.3088C23.886 6.60984 18.614 9.04934 18.6182 12.6642H18.6176Z" fill="#F3C97C"/>
<path d="M38.3329 76.6908C38.3329 76.6908 46.5238 79.8527 53.7715 74.1181L50.5052 50.776C50.5052 50.776 52.0303 49.2743 52.9285 45.3151C53.8267 41.3558 53.9287 37.6204 53.9287 37.6204L59.3422 27.3236C59.5672 26.8958 59.4634 26.369 59.0933 26.0582C58.6541 25.6898 57.9989 25.7516 57.6365 26.195L51.104 34.1897L53.4661 21.9706C53.5879 21.3394 53.1787 20.7274 52.5487 20.6002C52.0075 20.4904 51.4592 20.7742 51.2396 21.2872L46.5148 32.3202L45.4084 18.2933C45.3472 17.5158 44.6926 16.9188 43.9127 16.9296C43.1669 16.9392 42.5435 17.5032 42.4607 18.2465L40.824 32.9693L35.5262 21.4762C35.1848 20.7358 34.2836 20.4448 33.5739 20.8462C33.0075 21.166 32.7375 21.8356 32.9241 22.4596C34.6952 28.3837 33.9417 25.4642 36.278 35.6842L36.1904 41.0666L33.5721 40.505C33.5721 40.505 30.4834 38.0115 27.7211 38.3169C27.3077 38.3625 27.1127 38.8485 27.3905 39.1575L30.9736 43.1407C30.9736 43.1407 35.069 50.4496 38.9995 51.2392L38.3323 76.6902L38.3329 76.6908Z" fill="#FAD1DA"/>
<path d="M44.1582 37.339C44.1582 37.339 47.0621 34.0955 48.9592 37.228C50.8563 40.3605 44.4078 44.7487 44.4078 44.7487C44.4078 44.7487 39.3848 41.9912 39.3848 38.6158C39.3848 35.2403 43.1592 35.2133 44.1582 37.339Z" fill="#FAD1DA"/>
<path d="M44.3468 48.9382C44.1662 48.9382 43.9958 48.829 43.9268 48.6502C42.9975 46.2437 40.7896 43.2145 37.6235 42.5959C37.3793 42.5485 37.2203 42.3121 37.2683 42.0679C37.3157 41.8237 37.5527 41.6653 37.7963 41.7127C41.3224 42.4015 43.7553 45.7062 44.7668 48.3263C44.8814 48.6232 44.66 48.9382 44.3474 48.9382H44.3468Z" fill="#FAD1DA"/>
<path d="M41.9026 51.5957C41.878 51.3485 42.0586 51.1283 42.3064 51.1037L46.2987 50.7095C46.5446 50.6849 46.766 50.8655 46.7906 51.1133C46.8146 51.3605 46.634 51.5807 46.3869 51.6053L42.3946 51.9995C42.148 52.0241 41.9272 51.8441 41.9026 51.5957Z" fill="#FAD1DA"/>
<path d="M59.5827 74.3322C59.5827 74.3322 65.6989 78.7168 72.9448 75.5177L75.2541 55.4491C75.2541 55.4491 76.8422 54.5312 78.4394 51.4395C80.0359 48.3478 80.9239 45.2705 80.9239 45.2705L87.6292 37.8914C87.9076 37.5849 87.9352 37.1253 87.6946 36.7881C87.4096 36.3885 86.8528 36.2979 86.4569 36.5883L79.3178 41.8165L83.9052 32.1869C84.4139 31.1195 82.9506 30.1758 82.2042 31.1411L75.9117 39.2792L78.0098 27.4039C78.1262 26.7457 77.7116 26.1097 77.0624 25.9507C76.4409 25.7983 75.8025 26.1331 75.5745 26.7313L71.0507 38.5946L69.1266 27.9198C69.0024 27.2323 68.3172 26.7967 67.6422 26.9773C67.1034 27.1213 66.7357 27.6181 66.7561 28.176C67.0644 36.5193 66.8245 29.8146 66.6949 39.8696L65.4649 44.3166L63.413 43.2876C63.413 43.2876 61.3869 40.5547 59.029 40.2145C58.6762 40.1635 58.4098 40.5247 58.5742 40.8409L60.6903 44.9166C60.6903 44.9166 62.5166 51.8613 65.6077 53.3618L59.5815 74.334L59.5827 74.3322Z" fill="#FAD1DA"/>
<path d="M72.6537 43.1135C72.6537 43.1135 75.761 41.0466 76.6609 44.0537C77.5609 47.0608 71.2678 49.3149 71.2678 49.3149C71.2678 49.3149 67.6931 45.9466 68.4191 43.1465C69.145 40.3459 72.2823 41.1354 72.6537 43.1135Z" fill="#FAD1DA"/>
<path d="M71.7188 55.3198C71.6648 55.3198 70.9472 55.2028 68.2515 54.7828C68.0062 54.7444 67.8382 54.514 67.8766 54.2686C67.915 54.0232 68.1448 53.8553 68.3907 53.8937L71.7878 54.4252C72.335 54.511 72.2684 55.3198 71.7188 55.3198Z" fill="#FAD1DA"/>
<path d="M70.2575 51.6844C69.2771 48.5297 66.036 45.6888 66.0036 45.6606C65.8159 45.498 65.7961 45.2137 65.9587 45.0259C66.1212 44.8381 66.405 44.8177 66.5934 44.9809C66.7344 45.1033 70.0595 48.0149 71.1172 51.4174C71.191 51.655 71.0584 51.907 70.8209 51.9808C70.5833 52.0546 70.3313 51.9214 70.2575 51.6844Z" fill="#FAD1DA"/>
<path d="M17.3326 77.0191C17.3326 77.0191 24.7261 78.4194 29.9507 72.4658L23.5921 53.2912C23.5921 53.2912 24.6463 51.7895 24.7921 48.3126C24.9379 44.8363 24.4465 41.6709 24.4465 41.6709L27.42 32.1541C27.5436 31.7587 27.375 31.3303 27.0144 31.1257C26.5878 30.8833 26.0448 31.0357 25.8072 31.4659L21.5342 39.2146L21.6386 28.5488C21.644 27.998 21.2042 27.5456 20.6534 27.5348C20.1777 27.5258 19.7613 27.8522 19.6557 28.316L17.3764 38.347L14.2775 26.6925C14.1059 26.0463 13.4621 25.6443 12.8058 25.7733C12.1776 25.8969 11.7402 26.4693 11.7852 27.1077L12.6792 39.7725L6.43821 30.9013C6.03623 30.3295 5.23166 30.2239 4.69468 30.6715C4.2669 31.0285 4.1421 31.6345 4.39589 32.1319C8.18954 39.5686 5.14826 33.5892 9.2659 42.7634L10.0237 47.3148L7.72936 47.2458C7.72936 47.2458 4.74028 45.6205 2.45917 46.3051C2.11779 46.4077 2.02839 46.8475 2.31038 47.0653L5.94623 49.8701C5.94623 49.8701 10.5276 55.3995 13.9631 55.4583L17.3314 77.0179L17.3326 77.0191Z" fill="#FAD1DA"/>
<path d="M15.9894 43.0657C15.9894 43.0657 17.9369 39.8829 20.02 42.2306C22.1032 44.5789 17.3448 49.2737 17.3448 49.2737C17.3448 49.2737 12.6841 47.7245 12.1628 44.8789C11.6414 42.0332 14.8195 41.4278 15.99 43.0651L15.9894 43.0657Z" fill="#FAD1DA"/>
<path d="M16.4037 55.3282C16.3353 55.0895 16.4733 54.8405 16.7121 54.7715L20.0168 53.8229C20.2556 53.7539 20.5046 53.8925 20.5736 54.1313C20.642 54.3701 20.504 54.6197 20.2652 54.6881L16.9605 55.6366C16.7235 55.705 16.4727 55.5688 16.4037 55.3282Z" fill="#FAD1DA"/>
<path d="M17.9227 51.857C15.2492 48.9657 11.8684 48.8871 11.8348 48.8865C11.5864 48.8829 11.3872 48.6795 11.3902 48.4312C11.3932 48.1846 11.5936 47.9866 11.8396 47.9866C13.7181 47.9866 16.5662 49.0647 18.5839 51.2462C18.7525 51.4286 18.7411 51.7136 18.5587 51.8822C18.3769 52.0508 18.0919 52.04 17.9227 51.8576V51.857Z" fill="#FAD1DA"/>
</g>
<defs>
<clipPath id="clip0_364_15925">
<rect width="90" height="79.5748" fill="white" transform="translate(0 0.111328)"/>
</clipPath>
</defs>
</svg>
