<svg width="118" height="100" viewBox="0 0 118 100" fill="none" xmlns="http://www.w3.org/2000/svg">
<path d="M12.1156 52.1163C13.3354 51.5851 14.7322 51.5654 16.0701 51.5654C19.8278 51.5654 21.8739 51.6048 25.5726 51.1719C27.1662 50.9752 25.7496 54.3001 25.5332 54.7919C24.2741 57.7627 26.5759 61.9139 29.0942 63.3895C32.2617 65.2585 36.59 64.4125 39.9542 63.4485C43.5742 62.4254 44.3218 57.566 42.7873 54.4968C42.2954 53.5131 41.5478 52.6278 40.5248 51.9589C38.6754 50.7391 41.8429 50.3456 42.3151 50.326C45.0104 50.2276 49.0239 49.7554 51.6405 49.4013C52.3881 49.3029 52.9981 49.2242 53.5293 49.3226C54.9064 49.2636 56.9525 49.1652 59.2347 49.0865C59.7659 40.7644 59.0183 32.6587 59.0183 31.8128C59.0183 30.8684 57.5427 31.5373 57.5427 31.5373C57.5427 31.5373 51.7783 35.8263 50.3027 29.3929C48.5714 21.8774 53.1161 19.5953 55.6737 19.8707C58.2313 20.1461 58.3494 18.2574 58.3494 18.2574C58.3494 16.3884 57.5427 2.97078 57.6805 1.61328C57.8182 0.27545 56.0672 0 56.0672 0C56.0672 0 41.8429 -1.20197e-06 39.6985 0.275434C37.554 0.550869 40.5051 4.3086 40.5051 7.25969C40.5051 11.0174 35.0161 13.5554 30.1763 10.3485C26.1431 7.65318 31.2583 0.885339 27.6187 0.6886C25.1988 0.550882 14.8699 -0.118024 12.45 0.0196932C10.0301 0.157411 10.581 3.50196 10.581 3.50196C10.581 3.50196 11.3877 17.982 11.1909 19.5953C10.9942 21.2085 7.76765 19.3198 7.76765 19.3198C2.25895 18.2378 0.783396 23.471 0.921113 28.0354C1.05883 32.5997 5.07232 33.6621 9.10548 31.9308C11.7024 30.8094 11.1909 35.6885 11.1909 35.6885C11.1909 35.6885 11.6631 35.8262 11.368 43.0663C11.1516 48.3782 11.2499 47.6897 11.3286 52.7065C11.486 52.4114 11.8008 52.2146 12.1156 52.0769V52.1163Z" fill="#E6E6E7"/>
<path d="M114.302 65.0815C110.407 60.7533 108.006 64.3143 106.787 64.8455C105.567 65.3767 104.229 64.8455 104.229 64.8455C104.229 64.8455 103.836 63.6454 104.111 61.5009C104.386 59.3564 104.111 52.7853 104.111 50.2277C104.111 47.6701 101.829 48.0833 101.829 48.0833C98.74 48.6145 88.9424 48.221 88.2735 48.221C87.6046 48.221 87.88 46.3519 87.88 46.3519C89.4932 44.601 90.4376 39.6431 87.88 36.8298C85.3224 34.0164 79.5579 34.9607 77.02 38.8365C74.4624 42.732 77.02 45.1322 77.02 46.8831C77.02 48.6341 75.0132 48.6341 75.0132 48.6341C72.0425 48.6341 64.8811 48.9096 59.2741 49.126C56.9919 49.2243 54.9458 49.3031 53.5686 49.3621C54.1982 49.4801 54.7294 49.8736 55.3196 50.7786C56.0082 51.8803 55.8311 54.1035 55.8705 55.3429C55.8705 55.9332 55.8705 56.9562 55.8705 58.1563C55.8311 60.891 55.8311 64.511 56.441 65.7308C58.4084 64.8651 59.1757 63.6257 61.4579 63.4486C63.8778 63.2519 66.219 63.9995 68.1667 65.4357C73.0458 69.036 73.0655 75.1743 69.898 79.8173C68.9733 81.1552 67.8322 82.1192 66.5534 82.7291C64.8418 83.5751 62.8744 83.6931 61.0054 83.516C59.4511 83.3587 57.9559 82.6701 57.5821 84.4997C57.228 86.1917 57.6018 89.1625 57.8575 90.9134C58.1723 92.9792 58.4084 95.0646 58.4281 97.1501C58.4281 97.3862 58.4281 97.6616 58.2313 97.819C58.0936 97.937 57.8969 97.9567 57.7001 97.9764C57.4444 97.9764 57.1886 98.0157 56.9329 98.0157C56.9329 98.0157 76.5084 97.3272 78.6529 97.1894C80.7973 97.0517 81.7417 96.3828 80.1284 94.7695C78.5152 93.1563 77.8463 90.2052 77.984 86.9983C78.1217 83.7718 84.8305 82.9652 89.3949 86.054C93.9592 89.1428 90.2015 92.3496 89.6703 94.6318C89.1391 96.914 90.0638 97.1894 90.0638 97.1894H102.813C104.013 97.1894 105.764 96.2451 105.37 93.7662C104.977 91.2872 104.17 79.8764 104.17 78.6762C104.17 77.4761 106.59 78.2828 106.59 78.2828C108.459 79.4829 112.354 79.4829 112.354 79.4829C119.732 77.4761 118.257 69.4295 114.361 65.1012L114.302 65.0815Z" fill="#D0D1D3"/>
<path d="M68.1273 65.4158C66.1796 63.9796 63.8384 63.232 61.4185 63.4288C59.1363 63.6058 58.369 64.865 56.4016 65.7109C55.7917 64.4715 55.7917 60.8711 55.8311 58.1365C55.8311 56.956 55.8704 55.9133 55.8311 55.3231C55.7917 54.0836 55.9688 51.8605 55.2802 50.7587C54.7097 49.834 54.1588 49.4602 53.5292 49.3422C52.998 49.2438 52.4078 49.3225 51.6405 49.4209C49.0239 49.775 44.9907 50.2472 42.3151 50.3456C41.8429 50.3456 38.6557 50.739 40.5248 51.9785C41.5478 52.6474 42.2757 53.5328 42.7872 54.5165C44.3218 57.5856 43.5742 62.4451 39.9542 63.4681C36.59 64.4125 32.2617 65.2584 29.0942 63.4091C26.5759 61.9335 24.2741 57.7823 25.5332 54.8116C25.7496 54.3197 27.1661 50.9948 25.5725 51.1916C21.8738 51.6244 19.8474 51.6047 16.07 51.585C14.7322 51.585 13.355 51.585 12.1156 52.1359C11.8008 52.2736 11.486 52.4704 11.3286 52.7655C11.3286 52.7655 11.3286 52.8048 11.3089 52.8245C11.1712 53.1196 11.2106 53.4344 11.2303 53.7492C11.7418 59.8874 11.6434 66.1241 11.7024 72.341C11.7024 80.7615 11.486 89.2606 11.8401 97.6614C11.9188 99.7075 12.1746 99.9239 14.1026 99.9829C16.1094 100.062 18.1751 99.8452 20.1819 99.7862C23.5658 99.6878 26.1037 99.5698 29.4877 99.4714C30.2943 99.4517 32.183 99.7665 32.4191 98.9992C32.4584 98.9009 32.4584 98.7828 32.4191 98.6254C32.3404 98.291 30.2353 97.1302 29.8615 96.6974C29.2122 95.9301 28.7597 94.9661 28.8187 93.9627C28.8581 93.2151 29.1926 92.5265 29.5664 91.8969C30.7665 89.9296 33.5208 88.3163 35.7833 87.9622C39.0885 87.4506 42.2954 89.7328 44.1251 92.5265C44.9514 93.7856 45.3252 94.7497 45.2268 96.1859C45.0498 98.8222 45.3055 98.1533 47.7648 98.0155C51.0503 97.8188 53.6669 98.1533 56.8935 98.0155C57.1492 98.0155 57.405 97.9959 57.6607 97.9762C57.8575 97.9762 58.0542 97.9368 58.1919 97.8188C58.369 97.6614 58.3887 97.386 58.3887 97.1499C58.3493 95.0644 58.1329 92.979 57.8181 90.9133C57.5624 89.1623 57.1886 86.2112 57.5427 84.4996C57.9165 82.6699 59.4117 83.3585 60.966 83.5159C62.835 83.7126 64.8221 83.5945 66.514 82.7289C67.7928 82.119 68.9536 81.155 69.8586 79.8171C73.0458 75.1741 73.0064 69.0358 68.1273 65.4355V65.4158Z" fill="#65A8DF"/>
</svg>
