<svg width="90" height="88" viewBox="0 0 90 88" fill="none" xmlns="http://www.w3.org/2000/svg">
<path d="M5.48712 43.429C5.48712 43.429 14.019 45.825 32.1596 44.0429V32.395L4.91746 33.0313C4.91746 33.0313 3.06637 41.9872 5.48771 43.429H5.48712Z" fill="#BD3234"/>
<path d="M5.26184 42.5639C14.4666 44.2818 21.8798 44.1072 31.5091 43.0888C31.0132 40.9882 31.1553 38.0426 31.7037 35.4568C25.1444 36.1049 18.0685 34.6117 11.5275 35.4184C9.46114 35.6732 7.29279 36.2087 5.8539 37.713C4.41443 39.2168 4.20272 41.1168 5.26184 42.5633V42.5639Z" fill="#EAE5DB"/>
<path d="M7.68613 37.5742C14.8063 36.6466 22.0131 36.3812 29.1821 36.7822C29.9853 36.827 30.8675 36.8571 31.5038 36.3647C32.2439 35.7915 32.3666 34.74 32.4238 33.806C32.8625 26.6799 32.9964 19.1423 33.2181 9.9334C33.3231 5.57959 31.8347 4.89966 29.6598 4.71803C22.2236 4.09824 14.716 4.3412 7.01209 6.08379C3.47149 8.09057 3.19904 12.6366 3.16307 16.1849C3.07815 24.61 3.48623 33.0399 4.38495 41.4173C4.47163 42.2276 4.70221 43.2106 5.4877 43.43C4.72285 41.3059 5.31138 37.8844 7.68672 37.5748L7.68613 37.5742Z" fill="#F48682"/>
<path d="M8.71508 35.9082H8.71391C8.46505 35.9082 8.26455 35.7059 8.26514 35.4571L8.33118 7.58158C8.33118 7.33331 8.53345 7.13281 8.78113 7.13281H8.78231C9.03117 7.13281 9.23167 7.33508 9.23108 7.58394L9.16503 35.4594C9.16503 35.7077 8.96276 35.9082 8.71508 35.9082Z" fill="#BD3234"/>
<path d="M13.0501 18.905C12.8036 18.905 12.6031 18.7069 12.6001 18.4598C12.5978 18.2109 12.7971 18.0075 13.0453 18.0051L29.4498 17.8335C29.6934 17.8347 29.9021 18.0305 29.9045 18.2787C29.9069 18.5276 29.7075 18.731 29.4593 18.7334L13.0548 18.905H13.0501Z" fill="white"/>
<path d="M16.6126 23.2178C16.5837 22.9707 16.76 22.7472 17.0065 22.7183C19.7139 22.3981 22.4672 22.2595 25.1934 22.3044C25.4423 22.3085 25.6398 22.5131 25.6363 22.762C25.6322 23.0108 25.4199 23.2037 25.1787 23.2048C22.4943 23.16 19.7799 23.2974 17.1121 23.6129C16.8644 23.6418 16.6415 23.4649 16.6126 23.219V23.2178Z" fill="white"/>
<path d="M12.9658 10.5128L13.1156 14.4332L29.4723 14.3583L29.296 10.3701L12.9658 10.5128Z" fill="#F3C97C"/>
<path d="M58.802 43.2682C58.802 43.2682 66.927 45.5504 84.1718 44.0378C85.077 43.9582 85.7729 43.1986 85.7729 42.2899V32.1104L58.2253 32.7537C58.2253 32.7537 56.353 41.8099 58.802 43.2676V43.2682Z" fill="#ABA2F9"/>
<path d="M58.5744 42.3936C67.8824 44.1309 75.3787 43.954 85.116 42.9243C84.6147 40.8002 84.758 37.8216 85.313 35.2068C78.6805 35.862 71.525 34.3524 64.9102 35.1685C62.8209 35.4262 60.6284 35.9676 59.173 37.4884C57.7176 39.0093 57.5029 40.9305 58.5744 42.393V42.3936Z" fill="#EAE5DB"/>
<path d="M61.0258 37.3475C68.2261 36.4098 75.5131 36.1415 82.763 36.5467C83.575 36.5921 84.985 36.937 85.6278 36.4387C86.3761 35.8591 85.9828 34.4815 86.0406 33.5368C86.4056 27.6108 86.6244 19.6993 86.8438 10.5895C86.9499 6.18673 85.4444 5.49913 83.2454 5.31574C75.726 4.68888 68.1341 3.74181 60.3435 5.50385C57.9416 5.94318 57.4793 6.08766 56.9421 7.92342C56.0233 11.0642 56.3134 28.4293 57.6869 41.2331C57.7747 42.0528 58.0077 43.047 58.8014 43.2681C58.0283 41.1198 58.6227 37.66 61.0252 37.3475H61.0258Z" fill="#ABA2F9"/>
<path d="M65.1442 26.3994C64.8977 26.3994 64.6972 26.2007 64.6942 25.9542C64.6919 25.7054 64.8912 25.5019 65.1395 25.4995L81.7279 25.3262H81.7327C81.9792 25.3262 82.1797 25.5249 82.1826 25.7714C82.185 26.0203 81.9856 26.2237 81.7374 26.2261L65.1489 26.3994H65.1442Z" fill="white"/>
<path d="M68.7515 30.7671C68.7226 30.52 68.8989 30.2965 69.1454 30.2677C71.8823 29.9445 74.6669 29.8041 77.4232 29.849C77.672 29.8531 77.8696 30.0577 77.866 30.3066C77.8619 30.5525 77.6614 30.7494 77.4161 30.7494H77.4084C74.6928 30.7046 71.9477 30.8432 69.251 31.1616C69.0033 31.1905 68.7804 31.0136 68.7515 30.7677V30.7671Z" fill="white"/>
<path d="M63.578 19.2629C63.578 19.2629 73.1796 14.6609 83.4081 19.5778L83.1003 12.5072C83.1003 12.5072 74.0878 7.08842 63.4695 12.5031L63.5786 19.2629H63.578Z" fill="#938ADD"/>
<path d="M44.8956 60.9429H41.4033V70.6259H44.8956V60.9429Z" fill="#B2ACA3"/>
<path d="M43.2368 27.8909C33.4559 27.8909 25.5255 35.8213 25.5255 45.6021C25.5255 55.383 33.4559 63.3134 43.2368 63.3134C53.0177 63.3134 60.9481 55.383 60.9481 45.6021C60.9481 35.8213 53.0177 27.8909 43.2368 27.8909ZM43.2368 60.3071C42.1954 60.3071 41.1764 60.1992 40.1986 59.9928C36.316 59.1766 32.9983 56.8308 30.9066 53.6151C29.4052 51.3105 28.5318 48.5578 28.5318 45.6021C28.5318 37.4813 35.1159 30.8972 43.2368 30.8972C44.5672 30.8972 45.8592 31.0747 47.0846 31.4085C50.5102 32.3325 53.4405 34.4655 55.3924 37.3227C57.0017 39.6815 57.9417 42.5321 57.9417 45.6021C57.9417 53.723 51.3577 60.3071 43.2368 60.3071Z" fill="#F3C97C"/>
<path d="M55.3925 37.3224L40.1986 59.9925C36.316 59.1764 32.9983 56.8305 30.9066 53.6148L47.0847 31.4082C50.5103 32.3323 53.4405 34.4652 55.3925 37.3224Z" fill="#EAE5DB"/>
<path d="M40.3095 84.6472H46.1641C46.3039 84.6472 46.4171 84.5339 46.4171 84.3942V68.3736C46.4171 68.2339 46.3039 68.1207 46.1641 68.1207H40.3095C40.1698 68.1207 40.0565 68.2339 40.0565 68.3736V84.3942C40.0565 84.5339 40.1698 84.6472 40.3095 84.6472Z" fill="#ABA2F9"/>
<path d="M73.5082 49.3683C74.7855 51.7047 73.2888 55.1386 69.1549 56.0792C60.8595 57.9668 63.8181 57.9397 61.6857 59.0401C61.3136 59.2323 60.8395 59.2925 60.4868 59.0666C60.0734 58.8018 59.9602 58.2192 60.1065 57.7504C61.165 54.359 69.2399 52.8487 69.4315 52.7497C71.0255 51.9264 70.7419 50.1131 69.1225 49.7557C67.8682 49.4792 66.8398 50.185 65.9664 50.1467C65.5807 50.1302 65.1762 49.9486 65.0087 49.6012C64.797 49.1625 65.0276 48.6341 65.3389 48.259C67.6618 45.4556 72.2845 47.1292 73.5088 49.3677L73.5082 49.3683Z" fill="#F48682"/>
<path d="M59.0609 60.8672C58.5774 60.3424 57.7022 60.2374 57.1078 60.6319C56.5134 61.0264 56.271 61.8738 56.5671 62.5237C56.8766 63.203 57.74 63.5722 58.4441 63.3245C59.3953 62.9902 59.8022 61.671 59.0609 60.8672Z" fill="#F48682"/>
<path d="M43.9833 4.31322C47.0474 3.40919 48.9934 5.37528 49.3302 7.64212C50.0083 12.2135 45.5425 13.4425 45.2022 18.182C45.1485 18.9303 45.1603 20.0855 44.2198 20.2919C43.5888 20.4305 42.7384 19.9304 42.7868 18.1932C42.9271 13.1759 45.6362 10.8861 46.0779 9.50029C46.6228 7.79072 45.1397 6.7092 43.7421 7.60202C42.6594 8.29315 42.4312 9.51975 41.7866 10.1106C41.5024 10.3713 41.0884 10.5293 40.724 10.4019C40.264 10.241 40.0535 9.70491 40.0081 9.21958C39.7698 6.67794 41.7896 4.96013 43.9833 4.31322Z" fill="#7AD001"/>
<path d="M44.4839 22.5743C43.771 22.5454 43.0775 23.0897 42.9365 23.7891C42.7956 24.4885 43.2231 25.2593 43.8919 25.5093C44.5913 25.7706 45.4623 25.4215 45.7854 24.748C46.2212 23.8393 45.5767 22.6186 44.4845 22.5743H44.4839Z" fill="#7AD001"/>
<path d="M14.8411 52.5473C14.5982 49.9738 16.4882 47.3903 18.3004 46.777C20.8225 45.9237 23.945 47.9924 24.1562 52.2265C24.579 60.7236 25.0643 57.8045 25.779 60.0955C25.904 60.4953 25.881 60.973 25.5974 61.2808C25.2654 61.6423 24.6716 61.6529 24.2352 61.4277C23.2291 60.9081 21.1386 57.5061 21.0932 53.4454C21.0855 52.7513 21.1315 52.0407 20.9246 51.3779C20.3897 49.6654 18.5545 49.6306 17.9224 51.1638C17.4329 52.3509 17.9495 53.4867 17.7608 54.34C17.5497 55.2965 16.6014 55.5819 15.7929 54.6307C15.2787 54.0262 14.8553 53.2207 14.8405 52.5473H14.8411Z" fill="#76A0EE"/>
<path d="M27.1235 62.9981C26.5232 63.3837 26.2679 64.227 26.5539 64.881C26.8399 65.535 27.6325 65.9201 28.323 65.7414C29.046 65.5539 29.5584 64.7678 29.4364 64.0312C29.2718 63.037 28.0435 62.4072 27.1235 62.9981Z" fill="#76A0EE"/>
</svg>
