<svg width="197" height="121" viewBox="0 0 197 121" fill="none" xmlns="http://www.w3.org/2000/svg">
<g clip-path="url(#clip0_19_3794)">
<path d="M95.2615 118.909C147.749 118.909 190.299 117.542 190.299 115.855C190.299 114.169 147.749 112.801 95.2615 112.801C42.7739 112.801 0.224365 114.169 0.224365 115.855C0.224365 117.542 42.7739 118.909 95.2615 118.909Z" fill="#D6E6F2"/>
<path d="M141.879 102.621C118.931 91.0621 115.134 95.8766 95.9827 105.887C75.2404 116.725 56.4068 100.118 53.9466 86.0356C46.9265 45.8235 68.5808 9.5351 94.6041 1.9211C109.578 -2.46914 138.655 2.49374 140.818 28.7716C141.794 40.7122 136.598 51.6136 149.472 56.1099C162.791 60.7758 183.13 50.0017 188.793 72.4619C194.413 94.7101 163.342 113.438 141.9 102.642L141.879 102.621Z" fill="#F0F8FF"/>
<path d="M70.2774 94.4342C70.2774 94.4342 48.1565 89.535 47.6899 83.9358C47.2233 78.3367 52.165 72.5466 45.5902 66.0355C39.0155 59.5244 37.446 51.7831 33.5648 52.6739C28.5595 53.8192 31.0409 60.0122 34.2435 65.8658C37.955 72.6951 35.007 77.4883 33.1406 79.9485C28.4322 86.1203 37.1067 90.5318 34.8585 99.3547C33.9465 102.96 38.1883 116.279 58.7398 113.777L70.2774 94.4554V94.4342Z" fill="#C2C23C"/>
<path d="M150.532 112.801C150.532 112.801 165.442 114.137 167.245 104.805C168.453 98.5913 169.09 95.5796 175.495 92.271C181.9 88.9624 182.982 85.1872 182.048 80.5637C181.115 75.9402 192.462 73.5436 189.005 68.92C183.469 61.5393 187.075 58.6337 191.317 56.5764C196.067 54.2859 198.634 48.2201 192.526 47.4354C186.396 46.6507 180.373 54.498 179.376 58.1459C178.379 61.7938 176.916 65.166 169.853 66.1841C162.791 67.2021 160.288 69.6835 158.252 74.4131C156.216 79.1215 157.446 79.2275 150.511 84.2328V112.78L150.532 112.801Z" fill="#969924"/>
<path d="M144.445 103.13C155.219 98.7822 182.515 64.8904 182.791 64.551L182.515 64.3813C182.239 64.7207 155.007 98.5489 144.318 102.854L144.445 103.109V103.13Z" fill="#C2C23C"/>
<path d="M170.32 79.7364C171.253 80.097 172.61 79.9273 174.349 79.2698L174.222 78.9941C172.228 79.7576 170.807 79.8425 169.98 79.2274C168.623 78.2094 169.28 75.6007 169.302 75.5795L168.983 75.5159C168.962 75.6219 168.262 78.3154 169.789 79.4607C169.959 79.588 170.129 79.6728 170.341 79.7577L170.32 79.7364Z" fill="#C2C23C"/>
<path d="M176.958 72.0165C177.913 72.377 179.249 72.2074 180.988 71.5499L180.861 71.2742C178.867 72.0377 177.446 72.1225 176.619 71.5075C175.24 70.4894 175.919 67.8807 175.919 67.8595L175.601 67.7959C175.558 67.9019 174.88 70.5955 176.407 71.7408C176.576 71.868 176.746 71.9528 176.958 72.0377V72.0165Z" fill="#C2C23C"/>
<path d="M180.903 67.5626C181.836 67.9231 183.193 67.7535 184.933 67.0748L184.805 66.7991C182.812 67.5626 181.391 67.6474 180.564 67.0324C179.206 66.0143 179.864 63.4056 179.885 63.3844L179.567 63.3208C179.546 63.4268 178.846 66.1204 180.373 67.2444C180.542 67.3717 180.712 67.4565 180.924 67.5414L180.903 67.5626Z" fill="#C2C23C"/>
<path d="M173.289 76.2157C174.074 76.5126 175.198 76.3854 176.661 75.8127L176.534 75.537C174.901 76.1733 173.734 76.2369 173.056 75.7279C171.932 74.9008 172.483 72.7587 172.483 72.7375L172.165 72.6738C172.165 72.6738 171.55 75.0068 172.844 75.9612C172.971 76.0673 173.141 76.1521 173.31 76.2157H173.289Z" fill="#C2C23C"/>
<path d="M166.905 83.5328C167.86 83.8934 169.196 83.7237 170.935 83.0662L170.808 82.7905C168.814 83.554 167.393 83.6389 166.566 83.0238C165.208 82.0058 165.866 79.3971 165.887 79.3759L165.569 79.3123C165.548 79.4183 164.848 82.1118 166.375 83.2571C166.545 83.3844 166.714 83.4692 166.926 83.554L166.905 83.5328Z" fill="#C2C23C"/>
<path d="M163.342 88.1564C164.275 88.5169 165.633 88.3472 167.372 87.6898L167.245 87.4141C165.251 88.1776 163.83 88.2624 163.003 87.6474C161.624 86.6293 162.303 84.0206 162.303 83.9994L161.985 83.9358C161.964 84.0418 161.264 86.7354 162.791 87.8594C162.96 87.9867 163.13 88.0715 163.342 88.1564Z" fill="#C2C23C"/>
<path d="M159.948 91.2318C160.627 91.4863 161.603 91.3803 162.854 90.8925L162.727 90.6168C161.327 91.147 160.33 91.2106 159.758 90.7864C158.803 90.0865 159.27 88.2626 159.291 88.2414L158.973 88.1777C158.973 88.1777 158.443 90.1926 159.546 91.0197C159.673 91.1046 159.8 91.1894 159.948 91.2318Z" fill="#C2C23C"/>
<path d="M152.78 111.995C151.889 113.989 149.896 115.283 147.69 115.283H54.6887L54.7948 114.88L84.5084 48.2412C85.3992 46.2264 87.3929 44.9326 89.5986 44.9326H174.222C178.273 44.9326 180.967 49.1108 179.312 52.8011L152.759 111.995H152.78Z" fill="#6093D1"/>
<path d="M149.09 112.462C148.305 114.18 146.608 115.304 144.7 115.304H51.2107L51.3167 114.901L83.2361 47.711C84.0209 46.0355 85.7176 44.9751 87.5628 44.9751H171.932C175.41 44.9751 177.743 48.5594 176.322 51.7407L149.069 112.483L149.09 112.462Z" fill="#6FA3DC"/>
<path d="M64.4449 110.108H138.485C140.118 110.108 141.561 108.984 141.963 107.393L155.346 54.604C155.919 52.3346 154.201 50.1289 151.868 50.1289H89.5138C88.1353 50.1289 86.8627 50.9348 86.2689 52.1862L61.1999 104.975C60.0759 107.351 61.815 110.108 64.4449 110.108Z" fill="#94B8ED"/>
<path d="M63.1088 110.108H140.33C140.903 110.108 141.433 109.768 141.667 109.259L167.732 52.2286C168.178 51.253 167.457 50.1501 166.396 50.1501H90.1926C89.6199 50.1501 89.1109 50.4683 88.8776 50.9773L61.7939 108.008C61.3273 108.984 62.0484 110.108 63.1088 110.108Z" fill="#F0F8FF"/>
<path d="M147.372 115.304H15.6643C13.9464 115.304 12.5466 113.904 12.5466 112.186V109.79C12.5466 108.072 13.9464 106.672 15.6643 106.672H147.902C149.895 106.672 151.38 108.517 150.935 110.468L150.383 112.865C150.065 114.286 148.814 115.283 147.35 115.283L147.372 115.304Z" fill="#6093D1"/>
<path d="M49.8108 61.2636C49.8108 61.2636 42.4937 57.7005 41.0515 53.7132C39.6093 49.726 42.5149 47.8384 42.5149 47.8384C42.5149 47.8384 47.9868 56.0886 52.271 57.7005C56.5552 59.3336 49.8108 61.2424 49.8108 61.2424V61.2636Z" fill="#FBB99D"/>
<path d="M55.6857 59.885C55.7494 60.0123 56.6189 60.1183 56.7462 60.1395C57.9127 60.4153 59.0367 60.8819 60.2456 60.9031C60.8183 60.9031 61.3909 60.8182 61.8999 60.5425C62.1969 60.3728 62.4514 60.1608 62.7059 59.9487C62.8119 59.8638 62.918 59.7578 63.0452 59.8214C63.1513 59.8638 63.1937 59.9911 63.1725 60.1183C63.1301 60.3941 62.8968 60.6061 62.7483 60.8606C62.6423 61.0091 62.4938 61.2848 62.5362 61.4757C62.5786 61.6454 62.8331 61.7726 62.9816 61.815C63.4906 61.9847 64.0208 62.0271 64.5511 62.0483C64.9752 62.0483 65.4842 62.0059 65.5055 62.5574C65.5055 62.7695 65.6115 62.8967 65.6963 63.0664C65.7388 63.1512 65.76 63.2573 65.7175 63.3421C65.7175 63.3845 65.6751 63.4269 65.6539 63.4481C65.5903 63.533 65.5691 63.6178 65.5479 63.7238C65.5479 63.7875 65.5479 63.8511 65.5055 63.9147C65.463 63.9784 65.3782 64.0208 65.2934 64.042C65.0813 64.0844 64.8904 64.1056 64.6783 64.1268C64.4238 64.1268 64.1905 64.1904 63.936 64.1904C63.7239 64.1904 63.533 64.148 63.3421 64.148C62.4302 64.148 60.5002 63.8299 60.4153 63.8299C59.7578 63.7026 58.1248 63.1936 57.5733 62.9179C57.0219 62.6422 55.6433 59.9275 55.6433 59.9062L55.6857 59.885Z" fill="#FBB99D"/>
<path d="M48.6656 60.6487C51.444 62.5999 60.4578 63.7876 60.4578 63.7876L59.5458 61.3062L49.8745 56.5129C49.8745 56.5129 45.9297 58.6762 48.6868 60.6275L48.6656 60.6487Z" fill="#FBB99D"/>
<path d="M117.785 19.8002C110.107 9.78959 95.7703 7.92321 85.7597 15.6008C75.7491 23.2785 73.8827 37.6157 81.5603 47.6263C89.2379 57.6369 103.575 59.5033 113.586 51.8256C123.596 44.148 125.463 29.8108 117.785 19.8002ZM84.8265 45.1024C78.485 36.8309 80.0333 24.9752 88.3047 18.6337C96.5762 12.2922 108.432 13.8405 114.773 22.112C121.115 30.3834 119.567 42.2392 111.295 48.5807C103.024 54.9221 91.1679 53.3739 84.8265 45.1024Z" fill="#53424D"/>
<path d="M47.0959 73.9466C45.9719 72.5044 46.2476 70.4047 47.711 69.2806L79.6516 44.7419C81.0938 43.6179 83.1935 43.8936 84.3176 45.357C85.4416 46.7992 85.1659 48.8989 83.7025 50.0229L51.7619 74.5616C50.3197 75.6857 48.22 75.41 47.0959 73.9466Z" fill="#53424D"/>
<path d="M43.0452 41.5605C36.8734 42.8119 40.0335 55.2403 40.0335 55.2403L46.8204 55.1342C46.8204 55.1342 49.0473 40.3516 43.0452 41.5818V41.5605Z" fill="#FF4650"/>
<path d="M60.8393 111.359C60.8393 111.359 60.2454 114.986 60.5424 115.58C61.3907 117.297 67.8594 118.019 70.1288 117.022C70.4469 116.873 70.7863 116.343 70.1924 115.601C69.5774 114.858 65.9931 113.713 66.3536 112.207C66.6929 110.701 60.8605 111.359 60.8605 111.359H60.8393Z" fill="#FFA60E"/>
<path d="M56.131 63.6389L45.6326 68.6654C46.7142 72.7375 49.6835 78.9305 51.6347 82.7693H51.6135L55.4735 90.0864C55.8765 90.8499 56.1522 91.6771 56.2794 92.5254L59.0578 111.02C59.1851 111.889 59.6941 112.653 60.4364 113.013C61.7301 113.671 63.9571 114.392 66.5233 113.607C70.2985 112.441 67.6898 89.7895 66.8203 87.0111C65.272 82.0906 61.2635 73.904 61.1787 73.6919L56.131 63.6177V63.6389Z" fill="#B3D0FF"/>
<path d="M33.3739 110.574C33.3739 110.574 31.1469 113.48 31.2106 114.138C31.2954 114.795 38.7397 120.458 38.7397 120.458C38.7397 120.458 39.6093 120.203 39.4396 119.228C39.2487 118.252 36.7249 115.346 37.6793 114.201C38.6549 113.056 33.3739 110.553 33.3739 110.553V110.574Z" fill="#E0880A"/>
<path d="M31.6772 113.607C33.2679 113.395 39.9275 119.567 39.1003 120.288C37.8702 121.348 33.2255 118.125 31.9317 116.152C30.4895 113.968 31.6984 113.586 31.6984 113.586L31.6772 113.607Z" fill="#FFA60E"/>
<path d="M50.5318 67.0111L39.8849 65.6113C38.9729 69.7259 38.4215 76.4915 38.3579 80.8393H38.3366V89.2168C38.3366 90.0864 38.1882 90.956 37.9125 91.7619L31.8255 109.344C31.5498 110.171 31.6346 111.104 32.1224 111.804C32.9496 113.056 34.5615 114.837 37.1702 115.495C41.009 116.449 49.1532 95.325 49.6622 92.4618C50.5742 87.3505 50.8499 78.1458 50.8711 77.9125L50.553 67.0111H50.5318Z" fill="#B3D0FF"/>
<path d="M41.1364 44.3176C42.2605 39.3972 48.6868 40.903 53.0983 41.7938C56.0675 42.4088 57.743 44.254 57.5946 51.6771C57.5309 54.9221 58.7398 62.8542 57.2976 66.587C57.2976 66.587 51.147 70.3834 39.9063 65.6114C39.9063 65.6114 38.761 54.816 41.1576 44.3176H41.1364Z" fill="#FF4650"/>
<path d="M66.4386 57.0219C66.4386 57.0219 57.1279 53.8406 55.2191 50.1502C53.3103 46.4599 55.8978 44.2542 55.8978 44.2542C55.8978 44.2542 61.5817 51.5712 65.972 52.6105C70.341 53.6497 66.4598 57.0431 66.4598 57.0431L66.4386 57.0219Z" fill="#FBB99D"/>
<path d="M51.465 43.4693C48.1564 48.6867 59.1002 54.9009 59.1002 54.9009L63.6389 50.0016C63.6389 50.0016 54.6887 38.3579 51.465 43.4693Z" fill="#ED3748"/>
<path d="M73.1829 54.0315C73.1829 54.0315 74.1161 53.9042 74.2433 53.883C75.4098 53.7345 76.5975 53.7769 77.7216 53.3528C78.2518 53.1619 78.7396 52.865 79.1001 52.4408C79.3122 52.1863 79.4819 51.9106 79.6304 51.6136C79.694 51.5076 79.7788 51.3591 79.9061 51.3591C80.0121 51.3591 80.097 51.4652 80.1182 51.5712C80.1818 51.8469 80.0333 52.1227 79.9909 52.3984C79.9485 52.568 79.9061 52.8862 80.0333 53.0346C80.1394 53.1831 80.3939 53.2043 80.5636 53.1831C81.0938 53.1831 81.6028 53.0134 82.0906 52.8438C82.4936 52.7165 82.9177 52.462 83.151 52.971C83.2359 53.1619 83.3631 53.2467 83.5116 53.374C83.5752 53.4376 83.6389 53.5224 83.6389 53.6073C83.6389 53.6497 83.6388 53.6921 83.6176 53.7345C83.6176 53.8194 83.5964 53.9254 83.6176 54.0102C83.6176 54.0739 83.6601 54.1375 83.6389 54.2011C83.6389 54.286 83.5752 54.3496 83.4904 54.392C83.3207 54.498 83.1298 54.6041 82.939 54.6889C82.7269 54.795 82.5148 54.9222 82.2815 55.0071C82.0906 55.0707 81.8997 55.1131 81.7088 55.1767C80.8817 55.4949 78.9941 55.8978 78.9305 55.8978C78.2942 56.0039 76.6187 56.1099 76.0036 56.0675C75.4098 56.0251 73.1829 53.989 73.1829 53.989V54.0315Z" fill="#FBB99D"/>
<path d="M67.0324 57.1916C70.2561 57.9975 78.9518 55.919 78.9518 55.919L77.2339 53.9678L66.6718 52.9922C66.6718 52.9922 63.8086 56.3644 67.0324 57.1916Z" fill="#FBB99D"/>
<path d="M45.675 41.8573C45.675 42.5148 47.0324 43.0663 48.7079 43.0663C50.3834 43.0663 51.7408 42.536 51.7408 41.8573C51.7408 41.1787 50.3834 40.6484 48.7079 40.6484C47.0324 40.6484 45.675 41.1787 45.675 41.8573Z" fill="#FBB99D"/>
<path d="M51.2318 38.3369C51.2318 38.3369 50.0653 39.7155 51.7408 41.7515C51.7408 41.7515 47.7747 44.1057 45.675 41.7515C45.675 41.7515 46.8203 40.0124 46.3113 37.4885L51.2318 38.3581V38.3369Z" fill="#FBB99D"/>
<path d="M52.9709 28.4321C52.9709 28.4321 53.9041 30.9348 54.0101 33.5647C54.1798 37.4671 53.0557 39.6729 48.3473 38.4003C43.7238 37.149 50.7015 27.7322 52.9709 28.4321Z" fill="#FBB99D"/>
<path d="M50.9985 38.7398C50.9985 38.7398 49.535 38.7186 48.7079 38.4641C48.7079 38.4641 48.5382 38.6974 48.3049 38.8459C48.3049 38.8459 49.6623 39.2276 50.9985 38.7398Z" fill="#DC8162"/>
<path d="M50.9986 34.1374C49.9594 34.6889 49.7897 38.7185 47.6476 38.9943C44.6147 39.3972 42.2817 33.8405 42.6423 30.9773C43.0028 28.1565 44.0845 26.8628 47.584 26.1205C50.8077 25.4418 54.4344 26.7567 54.1587 28.6867C54.0739 29.2594 53.7982 29.9593 52.7801 30.4895C51.7621 31.0197 53.3316 32.9073 51.0198 34.1374H50.9986Z" fill="#53424D"/>
<path d="M50.532 35.8766C50.532 35.8766 48.7716 34.0526 49.5139 33.2254C50.5744 32.0377 51.7621 34.7525 51.7621 34.7525L50.532 35.8766Z" fill="#FBB99D"/>
<path d="M58.0611 67.5627C58.0611 67.5627 46.5658 69.9168 39.3972 66.2901L39.885 64.3601C39.885 64.3601 47.8596 67.499 57.6581 65.3357L58.0611 67.5627Z" fill="#94B8ED"/>
<path d="M52.377 65.6963H51.359L51.1045 68.92H52.8012L52.377 65.6963Z" fill="#B3D0FF"/>
<path d="M45.2297 65.3146L44.4874 65.0601L43.2361 68.0293L44.7419 68.5383L45.2297 65.3146Z" fill="#B3D0FF"/>
<path d="M55.3887 68.4321C56.0461 70.1924 57.8913 74.5615 60.4364 73.5222C60.7757 73.395 60.6273 72.8223 60.2879 72.9708C58.1882 73.8192 56.5127 69.7683 55.9613 68.2836C55.8341 67.9443 55.2826 68.0928 55.4099 68.4321H55.3887Z" fill="#94B8ED"/>
<path d="M79.8359 55.0963H142.492C144.059 55.0963 145.339 56.3765 145.339 57.9434V97.23C145.339 98.7969 144.059 100.077 142.492 100.077H79.8359C78.269 100.077 76.9888 98.7969 76.9888 97.23V57.9243C76.9888 56.3574 78.269 55.0771 79.8359 55.0771V55.0963Z" fill="#D4E6ED"/>
<path d="M142.492 55.0962H79.8359C78.2499 55.0962 76.9888 56.3764 76.9888 57.9433V63.2363H145.358V57.9433C145.358 56.3764 144.078 55.0962 142.511 55.0962H142.492Z" fill="#BFD7F5"/>
<path d="M83.8869 59.1855C83.8869 59.9689 83.2563 60.5995 82.4728 60.5995C81.6894 60.5995 81.0588 59.9689 81.0588 59.1855C81.0588 58.4021 81.6894 57.7715 82.4728 57.7715C83.2563 57.7715 83.8869 58.4021 83.8869 59.1855Z" fill="white"/>
<path d="M87.4792 59.1855C87.4792 59.9689 86.8486 60.5995 86.0651 60.5995C85.2817 60.5995 84.6511 59.9689 84.6511 59.1855C84.6511 58.4021 85.2817 57.7715 86.0651 57.7715C86.8486 57.7715 87.4792 58.4021 87.4792 59.1855Z" fill="white"/>
<path d="M90.9186 59.1855C90.9186 59.9689 90.288 60.5995 89.5046 60.5995C88.7212 60.5995 88.0906 59.9689 88.0906 59.1855C88.0906 58.4021 88.7212 57.7715 89.5046 57.7715C90.288 57.7715 90.9186 58.4021 90.9186 59.1855Z" fill="white"/>
<path d="M77.0651 55.0963H139.721C141.288 55.0963 142.568 56.3765 142.568 57.9434V97.23C142.568 98.7969 141.288 100.077 139.721 100.077H77.0651C75.4983 100.077 74.218 98.7969 74.218 97.23V57.9243C74.218 56.3574 75.4983 55.0771 77.0651 55.0771V55.0963Z" fill="white"/>
<path d="M139.721 55.0962H77.0651C75.4791 55.0962 74.218 56.3764 74.218 57.9433V63.2363H142.587V57.9433C142.587 56.3764 141.307 55.0962 139.74 55.0962H139.721Z" fill="#C9E1F9"/>
<path d="M130.817 59.1855C130.817 59.9689 130.186 60.5995 129.403 60.5995C128.619 60.5995 127.989 59.9689 127.989 59.1855C127.989 58.4021 128.619 57.7715 129.403 57.7715C130.186 57.7715 130.817 58.4021 130.817 59.1855Z" fill="#969924"/>
<path d="M134.39 59.1855C134.39 59.9689 133.759 60.5995 132.976 60.5995C132.193 60.5995 131.562 59.9689 131.562 59.1855C131.562 58.4021 132.193 57.7715 132.976 57.7715C133.759 57.7715 134.39 58.4021 134.39 59.1855Z" fill="#FEC000"/>
<path d="M137.849 59.1855C137.849 59.9689 137.218 60.5995 136.435 60.5995C135.651 60.5995 135.021 59.9689 135.021 59.1855C135.021 58.4021 135.651 57.7715 136.435 57.7715C137.218 57.7715 137.849 58.4021 137.849 59.1855Z" fill="#DC4026"/>
<path d="M116.665 66.8032C116.684 66.5571 116.807 65.7695 116.622 65.5787C116.425 65.3695 115.816 65.6341 115.576 65.6833C114.721 65.8679 113.859 66.0463 113.004 66.2309C111.287 66.594 109.571 66.957 107.854 67.3201C109.011 68.2676 110.044 68.926 111.127 69.9536C110.869 70.329 110.598 70.9197 110.315 71.2581C108.74 73.1471 107.196 75.0853 105.319 76.6913C103.381 78.3588 101.079 79.4418 98.7288 80.4017C97.7258 80.8078 96.8397 80.9616 95.7937 81.1032C95.8122 81.1032 96.4275 81.46 96.5567 81.4908C97.2766 81.6508 98.1442 81.7308 98.8703 81.5769C99.0733 81.5339 100.772 81.1216 100.772 80.9309C103.344 79.8418 105.774 78.4204 107.989 76.7221C109.737 75.3869 111.33 73.8609 113.01 72.4456C113.847 72.9564 114.641 73.5532 115.361 74.2178C115.545 74.39 115.859 74.5562 116.013 74.3593C116.068 74.2854 116.075 74.187 116.075 74.0885C116.118 72.4026 116.148 70.7166 116.37 69.0491C116.468 68.2984 116.61 67.5477 116.653 66.797L116.665 66.8032Z" fill="#61AA99"/>
<path d="M102.931 88.7331C102.931 88.2408 102.95 87.7547 102.931 87.2624C102.919 86.8317 102.95 86.3026 102.765 85.8903C102.568 85.4411 102.015 85.4534 101.504 85.4534C100.821 85.4534 100.138 85.4534 99.4549 85.4596C99.3995 85.4596 99.3442 85.4657 99.3011 85.478C99.018 85.4473 98.6796 85.5765 98.6488 85.8718C98.6242 86.1118 98.6119 86.3518 98.6119 86.5856C98.5073 86.924 98.5443 87.2932 98.5812 87.6747C98.6489 88.4131 98.7227 89.1576 98.7965 89.896C98.8704 90.6344 98.9688 91.3789 98.9565 92.1173C98.9504 92.4926 99.0058 92.8557 99.0611 93.2249C99.0919 93.4402 99.1657 93.6802 99.1411 93.9017C99.1165 94.1048 99.0673 94.2832 99.0673 94.4986C99.0673 94.6709 99.1903 94.8678 99.3996 94.9478C100.304 95.2923 101.319 95.4277 102.316 95.3723C102.648 95.3539 102.938 95.1693 102.931 94.8924C102.907 92.8434 102.907 90.7944 102.931 88.7392V88.7331Z" fill="#D9924E"/>
<path d="M109.848 82.1801C109.829 81.9216 109.638 81.7494 109.362 81.7309C108.383 81.6632 107.411 81.6878 106.439 81.7986C106.199 81.8232 106.057 81.9832 106.014 82.1555C105.897 82.3401 105.91 82.6108 106.094 82.7462C106.033 83.743 106.026 84.7521 106.063 85.7428C106.088 86.2535 106.039 86.7765 106.026 87.2872C106.014 87.8041 106.07 88.3148 106.033 88.8317C105.965 89.8285 106.045 90.8314 105.996 91.8344C105.971 92.3513 106.02 92.862 105.977 93.3788C105.953 93.6434 105.996 93.8895 105.983 94.148C105.983 94.3695 105.959 94.5233 106.008 94.7018C105.891 94.9664 105.983 95.3232 106.346 95.3909C107.226 95.5509 108.254 95.5017 109.152 95.4463C109.429 95.4278 109.608 95.2556 109.632 94.9971C109.688 94.4556 109.731 93.9203 109.78 93.3788C109.823 92.8866 109.94 92.4251 109.965 91.9267C110.02 90.8437 110.057 89.7608 110.063 88.6778C110.081 86.5119 110.014 84.346 109.848 82.1862V82.1801Z" fill="#6D9DBF"/>
<path d="M117.884 77.7004C117.896 77.4235 117.656 77.2574 117.41 77.2266C116.032 77.0543 114.647 77.0482 113.263 77.1958C112.961 77.0482 112.494 77.1958 112.58 77.7065C112.617 77.928 112.549 78.2111 112.549 78.4388C112.549 78.6664 112.549 78.8941 112.568 79.1218C112.592 79.4663 112.629 79.8109 112.678 80.1555C112.955 85.0288 113.238 89.9021 113.515 94.7754C113.534 95.0831 113.755 95.3292 114.075 95.3354C115.226 95.3661 116.37 95.2677 117.496 95.0462C117.736 94.9969 117.915 94.7324 117.908 94.4985C117.841 88.9053 117.681 83.2936 117.872 77.7004H117.884Z" fill="#F9DD3A"/>
</g>
<defs>
<clipPath id="clip0_19_3794">
<rect width="195.885" height="120" fill="white" transform="translate(0.224365 0.5)"/>
</clipPath>
</defs>
</svg>
