<svg width="20" height="20" viewBox="0 0 20 20" fill="none" xmlns="http://www.w3.org/2000/svg">
<path d="M10 7.33332L6.66666 10.6667L13.3333 10.6667L10 7.33332ZM9.99637 0.249999C11.3446 0.249999 12.6122 0.505838 13.7991 1.01751C14.9861 1.52921 16.0185 2.22364 16.8965 3.10082C17.7745 3.97799 18.4696 5.00948 18.9818 6.19528C19.4939 7.3811 19.75 8.64813 19.75 9.99637C19.75 11.3446 19.4942 12.6122 18.9825 13.7991C18.4708 14.9861 17.7764 16.0185 16.8992 16.8965C16.022 17.7745 14.9905 18.4696 13.8047 18.9818C12.6189 19.4939 11.3519 19.75 10.0036 19.75C8.65537 19.75 7.38778 19.4942 6.20086 18.9825C5.01394 18.4708 3.98148 17.7764 3.10347 16.8992C2.22549 16.022 1.53041 14.9905 1.01825 13.8047C0.506081 12.6189 0.250001 11.3519 0.250001 10.0036C0.250001 8.65537 0.505839 7.38777 1.01751 6.20086C1.52921 5.01394 2.22364 3.98148 3.10082 3.10347C3.97799 2.22548 5.00948 1.53041 6.19528 1.01824C7.3811 0.506078 8.64813 0.249999 9.99637 0.249999ZM10 1.33333C7.58056 1.33333 5.53125 2.17292 3.85208 3.85208C2.17292 5.53125 1.33333 7.58055 1.33333 10C1.33333 12.4194 2.17292 14.4687 3.85208 16.1479C5.53125 17.8271 7.58056 18.6667 10 18.6667C12.4194 18.6667 14.4687 17.8271 16.1479 16.1479C17.8271 14.4687 18.6667 12.4194 18.6667 10C18.6667 7.58055 17.8271 5.53125 16.1479 3.85208C14.4688 2.17292 12.4194 1.33333 10 1.33333Z" fill="#000543"/>
</svg>
