<svg width="174" height="121" viewBox="0 0 174 121" fill="none" xmlns="http://www.w3.org/2000/svg">
<g clip-path="url(#clip0_19_4202)">
<path d="M134.642 93.2703C134.642 93.2703 141.669 94.4696 141.956 87.3074C142.26 80.1453 144.253 76.9696 150.909 73.5406C157.564 70.1115 158.831 65.9054 158.105 60.6183C157.378 55.3311 169 53.2027 165.706 47.7804C160.436 39.1318 164.219 36.0237 168.611 33.9291C173.544 31.5811 176.432 24.8412 170.25 23.6419C164.067 22.4426 157.598 31.0237 156.415 35.1115C155.233 39.1993 153.594 42.9493 146.382 43.7264C139.169 44.5203 136.517 47.2061 134.236 52.4426C131.956 57.6791 133.206 57.848 125.942 63.1689L134.675 93.2534L134.642 93.2703Z" fill="#969924"/>
<path d="M118.882 84.2669C130.013 79.9088 159.27 42.9325 159.557 42.5609L159.304 42.3582C159.017 42.7298 129.811 79.6386 118.763 83.9629L118.882 84.2669Z" fill="#C2C23C"/>
<path d="M146.213 59.098C147.159 59.5541 148.527 59.4359 150.334 58.7602L150.216 58.4561C148.172 59.2163 146.719 59.2332 145.909 58.4899C144.574 57.2737 145.368 54.3514 145.368 54.3345L145.047 54.2332C145.013 54.3683 144.186 57.375 145.672 58.7264C145.824 58.8784 146.01 58.9967 146.213 59.0811V59.098Z" fill="#C2C23C"/>
<path d="M153.307 50.6859C154.253 51.1419 155.622 51.0237 157.429 50.348L157.311 50.044C155.267 50.821 153.814 50.821 153.003 50.0778C151.652 48.8615 152.463 45.9392 152.463 45.9223L152.142 45.8379C152.108 45.973 151.28 48.9798 152.767 50.3311C152.919 50.4832 153.105 50.6014 153.307 50.6859Z" fill="#C2C23C"/>
<path d="M157.53 45.8717C158.476 46.3277 159.861 46.2095 161.652 45.5338L161.534 45.2298C159.49 45.9899 158.037 46.0068 157.226 45.2635C155.892 44.0473 156.686 41.125 156.686 41.1081L156.365 41.0237C156.331 41.1419 155.503 44.1487 156.99 45.5169C157.142 45.669 157.328 45.7872 157.53 45.8717Z" fill="#C2C23C"/>
<path d="M149.405 55.2635C150.199 55.6351 151.348 55.5506 152.834 54.9932L152.716 54.6892C151.027 55.3142 149.828 55.331 149.169 54.7229C148.071 53.7263 148.73 51.3277 148.73 51.3108L148.409 51.2263C148.375 51.3277 147.682 53.8446 148.932 54.9763C149.067 55.0946 149.219 55.1959 149.388 55.2804L149.405 55.2635Z" fill="#C2C23C"/>
<path d="M142.598 63.2196C143.544 63.6756 144.929 63.5574 146.72 62.8817L146.601 62.5777C144.557 63.3547 143.105 63.3547 142.294 62.6115C140.959 61.3952 141.753 58.4729 141.753 58.456L141.432 58.3716C141.399 58.5067 140.571 61.5135 142.057 62.8648C142.209 63.0169 142.395 63.1351 142.598 63.2196Z" fill="#C2C23C"/>
<path d="M138.747 68.2703C139.693 68.7264 141.078 68.6082 142.868 67.9325L142.75 67.6284C140.706 68.3886 139.253 68.4055 138.443 67.6622C137.091 66.446 137.902 63.5237 137.902 63.5068L137.581 63.4224C137.547 63.5406 136.72 66.5643 138.206 67.9156C138.358 68.0676 138.544 68.1859 138.747 68.2703Z" fill="#C2C23C"/>
<path d="M135.165 71.5811C135.841 71.902 136.838 71.8345 138.138 71.3446L138.02 71.0406C136.584 71.5811 135.571 71.598 135.013 71.0743C134.084 70.2297 134.642 68.1858 134.642 68.1689L134.321 68.0845C134.287 68.1689 133.696 70.348 134.777 71.3277C134.895 71.4291 135.03 71.5304 135.165 71.598V71.5811Z" fill="#C2C23C"/>
<path d="M126.348 73.7432C126.348 73.7432 146.263 76.9865 148.493 72.1047C150.723 67.2061 148.544 60.2804 156.128 56.6655C163.713 53.0676 167.564 46.6318 170.486 48.777C174.253 51.5473 170.148 56.277 165.588 60.4493C160.267 65.3142 161.128 70.6689 161.854 73.5405C163.713 80.7534 155.098 81.7162 154.05 90.4662C153.628 94.0473 145.723 104.588 129.54 95.1959L126.365 73.7432H126.348Z" fill="#C2C23C"/>
<path d="M128.459 94.875C135.503 93.7433 156.348 76.0068 156.55 75.821L156.415 75.6689C156.213 75.8548 135.402 93.5575 128.408 94.6723L128.459 94.8581V94.875Z" fill="#969924"/>
<path d="M147.074 83.7432C147.598 84.1148 148.425 84.2331 149.557 84.0641L149.506 83.8783C148.223 84.0641 147.344 83.8783 146.922 83.3547C146.229 82.4763 146.973 80.8885 146.99 80.8885L146.804 80.7871C146.804 80.7871 146.01 82.4932 146.77 83.4729C146.854 83.5743 146.939 83.6756 147.057 83.7432H147.074Z" fill="#969924"/>
<path d="M152.074 79.7567C152.598 80.1283 153.425 80.2465 154.557 80.0776L154.506 79.8749C153.206 80.0607 152.344 79.8749 151.922 79.3513C151.229 78.4729 151.973 76.885 151.989 76.8681L151.804 76.7837C151.804 76.7837 150.993 78.4898 151.77 79.4695C151.854 79.5709 151.956 79.6722 152.057 79.7398L152.074 79.7567Z" fill="#969924"/>
<path d="M155.047 77.4932C155.571 77.8649 156.398 77.9831 157.53 77.8142L157.496 77.6115C156.196 77.7973 155.334 77.6115 154.912 77.0878C154.219 76.2095 154.962 74.6216 154.979 74.6047L154.794 74.5203C154.794 74.5203 154 76.2263 154.76 77.2061C154.844 77.3074 154.929 77.4088 155.047 77.4763V77.4932Z" fill="#969924"/>
<path d="M149.321 81.9188C149.76 82.2398 150.452 82.3242 151.398 82.1891L151.348 82.0033C150.284 82.1553 149.574 82.0033 149.236 81.581C148.679 80.8715 149.287 79.5539 149.287 79.5539L149.101 79.4695C149.101 79.4695 148.425 80.8884 149.067 81.6992C149.135 81.7837 149.219 81.8681 149.304 81.9357L149.321 81.9188Z" fill="#969924"/>
<path d="M144.54 85.669C145.064 86.0406 145.892 86.1589 147.023 85.99L146.99 85.7873C145.689 85.9731 144.827 85.7873 144.405 85.2636C143.713 84.3852 144.456 82.7974 144.473 82.7805L144.287 82.696C144.287 82.696 143.493 84.4021 144.253 85.3819C144.338 85.4832 144.439 85.5846 144.54 85.6521V85.669Z" fill="#969924"/>
<path d="M141.77 88.1013C142.293 88.473 143.121 88.5912 144.253 88.4223L144.202 88.2196C142.902 88.4054 142.04 88.2196 141.618 87.6959C140.925 86.8176 141.668 85.2466 141.685 85.2297L141.5 85.1453C141.5 85.1453 140.706 86.8513 141.466 87.8311C141.55 87.9324 141.652 88.0338 141.753 88.1013H141.77Z" fill="#969924"/>
<path d="M139.338 89.571C139.709 89.8412 140.317 89.9257 141.128 89.8074L141.077 89.6216C140.165 89.7568 139.557 89.6216 139.27 89.2669C138.797 88.6588 139.321 87.5439 139.321 87.5439L139.135 87.4595C139.135 87.4595 138.561 88.6926 139.118 89.3851C139.186 89.4527 139.253 89.5372 139.321 89.5879L139.338 89.571Z" fill="#969924"/>
<path d="M169.591 117.966C169.591 119.317 131.753 120.399 85.0809 120.399C38.4086 120.399 0.570801 119.301 0.570801 117.966C0.570801 116.632 38.4086 115.534 85.0809 115.534C131.753 115.534 169.591 116.632 169.591 117.966Z" fill="#D6E6F2"/>
<path d="M94.0337 111.716C72.581 99.6893 69.7262 99.6724 51.5844 109.014C31.9222 119.115 19.4053 111.649 17.1756 97.696C13.3749 73.946 53.3411 79.3345 47.4627 49.1149C43.1215 26.8345 53.4087 16.2602 67.885 13.0001C82.2094 9.79062 102.716 13.169 102.834 34.5203C102.902 46.3447 90.4864 56.6487 102.547 61.4291C115.03 66.3954 133.594 63.4224 138.662 85.7028C143.679 107.78 114.101 122.933 94.0506 111.699L94.0337 111.716Z" fill="#F0F8FF"/>
<path d="M99.2533 117.054L71.2634 117.189L75.0641 113.98L71.2634 105.703V91.3784H99.2533L99.9121 108.22L104.439 113.085L99.2533 117.054Z" fill="#B3D0FF"/>
<path d="M69.304 107.679C68.2229 107.679 67.3276 106.784 67.3276 105.703V93.3548C67.3276 92.2737 68.2229 91.3784 69.304 91.3784C70.3851 91.3784 71.2803 92.2737 71.2803 93.3548V105.703C71.2803 106.784 70.3851 107.679 69.304 107.679Z" fill="#83ABDB"/>
<path d="M79.777 116.615C79.0169 117.375 77.75 117.375 76.9899 116.615L68.0034 107.172C67.2433 106.412 67.4966 105.855 68.2568 105.095C69.0169 104.334 70.2838 104.334 71.0439 105.095L79.6588 113.49C80.4189 114.25 80.5372 115.855 79.7602 116.615H79.777Z" fill="#83ABDB"/>
<path d="M78.2567 117.189H56.3648C55.233 117.189 54.304 116.26 54.304 115.128C54.304 113.997 55.233 113.068 56.3648 113.068H78.2567C79.3884 113.068 80.3175 113.997 80.3175 115.128C80.3175 116.26 79.3884 117.189 78.2567 117.189Z" fill="#83ABDB"/>
<path d="M98.9156 107.611C97.8345 107.611 96.9392 106.716 96.9392 105.635V93.2871C96.9392 92.2061 97.8345 91.3108 98.9156 91.3108C99.9966 91.3108 100.892 92.2061 100.892 93.2871V105.635C100.892 106.716 99.9966 107.611 98.9156 107.611Z" fill="#B3D0FF"/>
<path d="M109.388 116.547C108.628 117.307 107.361 117.307 106.601 116.547L97.8682 107.814C97.1081 107.054 97.1081 105.787 97.8682 105.027C98.6283 104.267 99.8952 104.267 100.655 105.027L109.388 113.659C110.149 114.419 110.149 115.77 109.388 116.547Z" fill="#B3D0FF"/>
<path d="M107.885 117.138H85.9932C84.8614 117.138 83.9324 116.209 83.9324 115.078C83.9324 113.946 84.8614 113.017 85.9932 113.017H107.885C109.017 113.017 109.946 113.946 109.946 115.078C109.946 116.209 109.017 117.138 107.885 117.138Z" fill="#B3D0FF"/>
<path d="M32.9357 26.5474H133.088C135.723 26.5474 137.851 28.6757 137.851 31.3109V94.3176C137.851 96.9528 135.723 99.0812 133.088 99.0812H32.9188C30.2837 99.0812 28.1553 96.9528 28.1553 94.3176V31.3109C28.1553 28.6757 30.3005 26.5474 32.9188 26.5474H32.9357Z" fill="#83ABDB"/>
<path d="M141.635 94.3176C141.635 96.9528 139.507 99.0812 136.871 99.0812H36.7025C34.0673 99.0812 31.939 96.9528 31.939 94.3176V31.3109C31.939 28.6757 34.0673 26.5474 36.7025 26.5474H136.871C139.507 26.5474 141.635 28.6757 141.635 31.3109V94.3176Z" fill="#B3D0FF"/>
<path d="M137.801 30.2129H35.1655V81.7163H137.801V30.2129Z" fill="#E3F5FB"/>
<path d="M137.8 30.2129H135.959V81.7163H137.8V30.2129Z" fill="#CEE8EF"/>
<path d="M36.7025 99.0811H136.871C139.507 99.0811 141.635 96.9528 141.635 94.3176V87.1724H31.939V94.3176C31.939 96.9528 34.0673 99.0811 36.7025 99.0811Z" fill="#94B8ED"/>
<path d="M115.385 65.5C115.368 69.9932 118.983 73.6419 123.476 73.6588C127.969 73.6756 131.618 70.0608 131.635 65.5675C131.652 61.0743 128.037 57.4256 123.544 57.4088C119.05 57.3919 115.402 61.0067 115.385 65.5Z" fill="#FDC71C"/>
<path d="M149.152 116.243H151.99L152.192 75.0438C152.226 69.7736 150.25 64.7567 146.669 60.9222L139.371 53.1182L137.294 55.0607L144.591 62.8648C147.682 66.1756 149.371 70.4999 149.355 75.0438L149.152 116.26V116.243Z" fill="#4E83B7"/>
<path d="M125.449 55.9237L131.828 61.1974C132.634 61.8631 133.826 61.75 134.492 60.9447L142.445 51.3235C143.111 50.5182 142.998 49.3257 142.193 48.6599L135.813 43.3862C135.008 42.7204 133.816 42.8336 133.15 43.6389L125.196 53.2601C124.53 54.0654 124.644 55.2579 125.449 55.9237Z" fill="#6093D1"/>
<path d="M134.76 52.0372C142.361 58.321 143.425 69.571 137.142 77.1723L109.608 54.4189C115.892 46.8176 127.142 45.7534 134.743 52.0372H134.76Z" fill="#6FA3DC"/>
<path d="M136.534 114.216L163.662 114.351V118.287L134.608 118.152V116.108C134.608 115.061 135.486 114.216 136.517 114.216H136.534Z" fill="#6093D1"/>
<path d="M109.625 54.4189C111.229 52.4763 113.172 50.9729 115.284 49.8918C115.807 58.9459 125.402 66.2094 137.175 66.2601C138.561 66.2601 139.929 66.1756 141.246 65.9898C141.213 69.9425 139.878 73.8952 137.159 77.1723L109.625 54.4189Z" fill="#4E83B7"/>
<path d="M62.3887 52.9354L57.1101 45.3518L9.63967 78.3938L14.9183 85.9774L62.3887 52.9354Z" fill="#FF95A9"/>
<path d="M62.3732 52.9503L60.7134 50.5657L13.2429 83.6077L14.9028 85.9923L62.3732 52.9503Z" fill="#EF849D"/>
<path d="M58.7643 47.7447L57.1045 45.3601L9.63406 78.4021L11.2939 80.7867L58.7643 47.7447Z" fill="#EF849D"/>
<path d="M57.1079 45.365L65.6045 45.0779L62.3782 52.9495L57.1079 45.365Z" fill="white"/>
<path d="M65.6046 45.0779L61.3816 45.213L63.9998 49.0137L65.6046 45.0779Z" fill="#53424D"/>
<path d="M19.2457 82.975L13.967 75.3914L6.38342 80.67L11.662 88.2536L19.2457 82.975Z" fill="#FDC71C"/>
<path d="M19.2515 82.9825L13.9729 75.3989L11.3665 77.2131L16.6451 84.7968L19.2515 82.9825Z" fill="#E8A32B"/>
<path d="M24.929 57.9664C25.3176 56.6995 25.1655 55.1117 23.8142 54.5035C23.0541 54.1657 22.1081 54.9427 21.3818 55.7198C19.6419 57.5779 15.723 66.3448 17.902 68.5407C19.9628 70.6184 23.679 61.9867 24.929 57.9664Z" fill="#FBB99D"/>
<path d="M24.2703 69.9595C24.2703 69.9595 28.3074 71.9358 28.6284 72.1892C30.6892 73.8446 32.0236 74.2331 31.5676 74.5034C30.7399 74.9933 27.9358 73.6926 27.5135 73.5068C26.9899 73.2703 25.7399 72.5777 25.3345 72.2906C24.929 71.9865 24.2703 69.9595 24.2703 69.9595Z" fill="#FBB99D"/>
<path d="M18.0878 68.7095C20.0303 70.5845 27.5303 73.5237 27.5303 73.5237V71.3278L20.081 65.3818C20.081 65.3818 16.1452 66.8345 18.0878 68.7095Z" fill="#FBB99D"/>
<path d="M41.0775 112.747C41.0775 112.747 40.4188 116.108 40.6552 116.649C41.3816 118.27 47.3782 119.166 49.5066 118.304C49.8107 118.186 50.1485 117.696 49.608 116.986C49.0674 116.277 45.7735 115.095 46.1451 113.709C46.5167 112.324 41.0607 112.747 41.0607 112.747H41.0775Z" fill="#E8A32B"/>
<path d="M38.2903 68.2534L28.3579 72.5777C29.2363 76.3953 31.787 82.2568 33.4593 85.8886H33.4255L36.7701 92.8142C37.1079 93.5237 37.3444 94.3176 37.4289 95.1115L39.3883 112.392C39.4728 113.203 39.9289 113.929 40.6045 114.301C41.787 114.943 43.8309 115.703 46.2464 115.061C49.7937 114.098 48.1383 92.9663 47.412 90.3649C46.1282 85.7365 42.6822 78 42.6147 77.7973L38.2734 68.2703L38.2903 68.2534Z" fill="#5A7FE5"/>
<path d="M15.5877 111.108C15.5877 111.108 13.4087 113.743 13.4594 114.351C13.51 114.96 20.2499 120.483 20.2499 120.483C20.2499 120.483 21.0776 120.28 20.9256 119.368C20.7904 118.456 18.5269 115.669 19.456 114.655C20.4019 113.625 15.5709 111.125 15.5709 111.125L15.5877 111.108Z" fill="#CA8623"/>
<path d="M13.8985 113.862C15.385 113.727 21.3648 119.689 20.5708 120.331C19.3884 121.277 15.1823 118.118 14.0506 116.243C12.7837 114.166 13.9154 113.862 13.9154 113.862H13.8985Z" fill="#E8A32B"/>
<path d="M32.9864 71.2095L23.9661 69.0474C22.9695 72.848 21.4323 79.6048 21.2128 83.6588H21.1959L20.9087 91.446C20.8749 92.2568 20.7229 93.0507 20.4188 93.794L14.1688 109.926C13.8817 110.686 13.9323 111.547 14.3546 112.223C15.081 113.405 16.5168 115.128 18.9155 115.821C22.4459 116.835 30.7229 97.4933 31.2972 94.8244C32.3107 90.1115 32.8682 81.5643 32.9188 81.3447L32.9864 71.2095Z" fill="#5A7FE5"/>
<path d="M37.4458 72.6792C38.0032 74.3346 39.5742 78.4562 41.9559 77.5779C42.2769 77.4596 42.1587 76.936 41.8377 77.0542C39.8614 77.7806 38.4424 73.9461 37.9695 72.5441C37.8681 72.2231 37.3445 72.3414 37.4458 72.6623V72.6792Z" fill="#305DDE"/>
<path d="M31.314 79.0474C31.2464 80.8379 31.7025 82.6623 32.3951 84.3008C32.5471 84.6724 33.1046 84.3683 32.9356 84.0136C32.2768 82.4765 31.8545 80.7535 31.9221 79.0812C31.9221 78.6758 31.314 78.6589 31.2971 79.0643L31.314 79.0474Z" fill="#305DDE"/>
<path d="M33.5776 42.4258C34.2532 44.0136 34.9965 49.3008 31.6857 49.5204C30.2667 49.6048 28.1046 46.9359 27.733 44.3852C27.564 43.3379 28.51 41.767 30.2499 40.9562C31.0269 40.5845 32.8343 40.5845 33.5944 42.4258H33.5776Z" fill="#FBB99D"/>
<path d="M33.4424 46.9021C33.4424 46.9021 31.5336 49.1657 33.4424 51.0407C35.3512 52.8988 28.4424 52.0035 28.4424 52.0035L29.2363 45.2805L33.4424 46.9021Z" fill="#FBB99D"/>
<path d="M18.9661 58.5744C18.9661 58.5744 21.4323 50.6859 24.9627 51.7501C28.4931 52.8143 24.5573 61.0407 24.5573 61.0407C24.5573 61.0407 20.5032 60.5508 18.9661 58.5744Z" fill="#FEC44F"/>
<path d="M34.4391 50.8717C30.6385 49.9595 27.0743 50.5338 24.5067 51.5643C19.7263 53.4899 24.1182 61.1757 24.5743 62.4088C26.9729 68.8278 23.0878 68.4393 23.8479 69.892C25.2162 72.4933 31.8716 72.8143 36.0608 71.3615C37.6993 70.7872 39.0168 69.7399 38.6114 69.0136C35.7229 63.8616 38.0202 61.294 37.8851 57.8818C37.7331 54.3852 37.5641 51.6318 34.4391 50.8886V50.8717Z" fill="#FEB801"/>
<path d="M38.5944 54.9765C37.7329 53.963 36.314 53.2366 35.0809 54.0474C34.3883 54.5035 34.5235 55.7197 34.7938 56.7501C35.4188 59.2163 40.064 66.7163 43.5606 66.6657C46.4829 66.6319 41.2971 58.1859 38.5944 54.9596V54.9765Z" fill="#FBB99D"/>
<path d="M35.8918 60.3313C35.8918 60.3313 30.5878 53.9968 33.3918 51.5982C36.1959 49.1995 40.9763 56.9529 40.9763 56.9529C40.9763 56.9529 38.3749 60.1117 35.8918 60.3313Z" fill="#FEB801"/>
<path d="M30.3512 38.9967C32.885 39.1994 33.6789 41.1251 32.5978 43.2872C30.8748 46.7332 35.4863 45.4663 33.0708 49.2163C31.162 52.1893 32.8174 51.5643 33.4762 55.1791C34.2363 59.3177 25.9086 62.9494 20.3005 58.017C17.5471 55.5845 14.5573 52.24 20.1992 46.8008C21.939 45.1285 23.4931 45.2974 24.76 42.1893C25.5201 40.3481 26.635 38.6927 30.3512 38.9967Z" fill="#53424D"/>
<path d="M49.8442 61.142C49.8442 61.142 52.226 58.4055 52.8679 58.7602C53.5098 59.115 51.4996 60.6521 51.4996 60.6521L49.8442 61.142Z" fill="#FBB99D"/>
<path d="M48.3242 62.0035C48.3242 62.0035 52.1587 59.6724 52.5641 59.5372C55.0641 58.6926 55.5877 58.2703 55.5539 58.794C55.5202 59.7568 53.4594 61.1589 53.0877 61.4122C52.6148 61.7163 51.3479 62.1724 50.8749 62.3582C50.4019 62.544 48.3411 61.9866 48.3411 61.9866L48.3242 62.0035Z" fill="#FBB99D"/>
<path d="M44.1689 66.5982C47.3276 65.8043 53.0878 61.1928 53.0878 61.1928L51.4324 60.5171L42.5641 63.1353C42.5641 63.1353 41.5675 67.257 44.1857 66.5982H44.1689Z" fill="#FBB99D"/>
<path d="M101.323 59.2348C98.7427 59.2857 92.8259 59.4045 92.8174 58.9631C92.8174 58.7849 92.5458 58.7849 92.5458 58.9631C92.5118 59.1159 92.4779 59.2687 92.4439 59.4215C92.3421 59.6168 92.4694 59.829 92.6816 59.8375C95.5424 60.0073 98.4456 59.9393 101.315 59.8969C101.468 60.6864 102.181 61.3655 103.021 61.323C103.097 61.323 103.165 61.323 103.233 61.3145C104.176 61.2721 104.965 60.559 104.965 59.5828C104.965 58.6066 104.176 57.8935 103.233 57.8511C103.157 57.8511 103.089 57.8511 103.021 57.8426C102.198 57.8086 101.493 58.4538 101.323 59.2263V59.2348Z" fill="#65A8DF"/>
<path d="M104.396 65.1601C101.815 65.211 95.8987 65.3298 95.8902 64.8884C95.8902 64.7101 95.6186 64.7101 95.6186 64.8884C95.5846 65.0412 95.5506 65.194 95.5167 65.3468C95.4148 65.5421 95.5422 65.7543 95.7544 65.7628C98.6151 65.9325 101.518 65.8646 104.388 65.8222C104.54 66.6117 105.253 67.2908 106.102 67.2483C106.17 67.2483 106.247 67.2483 106.315 67.2398C107.257 67.1974 108.046 66.4843 108.046 65.5081C108.046 64.5319 107.257 63.8188 106.315 63.7764C106.238 63.7764 106.17 63.7764 106.102 63.7679C105.279 63.7339 104.574 64.3791 104.405 65.1516L104.396 65.1601Z" fill="#65A8DF"/>
<path d="M108.395 54.6764C105.33 54.7358 98.3097 54.8801 98.3013 54.3538C98.3013 54.1501 97.9872 54.1501 97.9787 54.3538C97.9363 54.5321 97.8938 54.7188 97.8598 54.8971C97.741 55.1263 97.8853 55.3725 98.14 55.3895C101.527 55.5847 104.974 55.5083 108.386 55.4659C108.564 56.4081 109.422 57.2061 110.415 57.1636C110.5 57.1636 110.585 57.1636 110.67 57.1552C111.79 57.1042 112.724 56.2553 112.724 55.1008C112.724 53.9464 111.782 53.0975 110.67 53.0465C110.585 53.0465 110.5 53.0465 110.415 53.038C109.439 52.9956 108.598 53.7681 108.403 54.6849L108.395 54.6764Z" fill="#65A8DF"/>
<path d="M104.889 49.4389C101.824 49.4983 94.8039 49.6426 94.7954 49.1163C94.7954 48.9125 94.4813 48.9125 94.4728 49.1163C94.4304 49.2945 94.3879 49.4813 94.354 49.6596C94.2351 49.8888 94.3795 50.1349 94.6341 50.1519C98.0212 50.3472 101.468 50.2708 104.88 50.2283C105.058 51.1706 105.916 51.9685 106.909 51.9261C106.994 51.9261 107.079 51.9261 107.164 51.9176C108.284 51.8667 109.218 51.0178 109.218 49.8633C109.218 48.7088 108.276 47.8599 107.164 47.809C107.079 47.809 106.994 47.809 106.909 47.8005C105.933 47.7581 105.092 48.5305 104.897 49.4473L104.889 49.4389Z" fill="#65A8DF"/>
<path d="M79.2182 75.7117C79.1587 72.7406 79.0314 65.958 79.5407 65.9495C79.7445 65.9495 79.7445 65.6439 79.5407 65.6354C79.3625 65.593 79.1927 65.559 79.0144 65.5166C78.7937 65.4062 78.5475 65.542 78.539 65.7882C78.3438 69.0734 78.4202 72.4011 78.4542 75.6948C77.5459 75.873 76.7649 76.688 76.8073 77.6557C76.8073 77.7406 76.8073 77.817 76.8158 77.9019C76.8667 78.9799 77.6817 79.8883 78.8022 79.8883C79.9227 79.8883 80.7377 78.9799 80.7886 77.9019C80.7886 77.817 80.7886 77.7321 80.7971 77.6557C80.8395 76.7134 80.0925 75.8985 79.2097 75.7032L79.2182 75.7117Z" fill="#65A8DF"/>
<path d="M83.9128 70.4909C83.8619 67.8594 83.7515 61.8493 84.1929 61.8408C84.3712 61.8408 84.3712 61.5691 84.1929 61.5691C84.0401 61.5352 83.8789 61.5012 83.7261 61.4673C83.5308 61.3654 83.3186 61.4927 83.3016 61.7134C83.1318 64.6166 83.1913 67.5708 83.2252 70.4909C82.4188 70.6437 81.7312 71.3738 81.7736 72.2312C81.7736 72.3076 81.7736 72.3755 81.7821 72.4519C81.8245 73.4111 82.5461 74.2091 83.5393 74.2091C84.5325 74.2091 85.2541 73.4111 85.2965 72.4519C85.2965 72.3755 85.2965 72.3076 85.305 72.2312C85.3474 71.3908 84.6853 70.6777 83.8958 70.4994L83.9128 70.4909Z" fill="#65A8DF"/>
<path d="M89.1503 78.7423C89.0909 75.7711 88.9635 68.9885 89.4729 68.98C89.6766 68.98 89.6766 68.6744 89.4729 68.666C89.2946 68.6235 89.1248 68.5895 88.9466 68.5471C88.7258 68.4367 88.4797 68.5726 88.4712 68.8187C88.2759 72.1039 88.3523 75.4316 88.3863 78.7253C87.478 78.9035 86.697 79.7185 86.7394 80.6862C86.7394 80.7711 86.7395 80.8475 86.7479 80.9324C86.7989 82.0105 87.6138 82.9188 88.7343 82.9188C89.8549 82.9188 90.6698 82.0105 90.7207 80.9324C90.7207 80.8475 90.7207 80.7626 90.7292 80.6862C90.7717 79.7439 90.0247 78.929 89.1418 78.7338L89.1503 78.7423Z" fill="#65A8DF"/>
<path d="M79.6344 39.4558C79.575 42.6986 79.4307 50.1179 79.9825 50.1264C80.2032 50.1264 80.2032 50.4659 79.9825 50.4659C79.7872 50.5083 79.6005 50.5508 79.4052 50.5932C79.1675 50.7206 78.8959 50.5593 78.8789 50.2961C78.6667 46.7138 78.7431 43.0721 78.7855 39.4643C77.7923 39.2691 76.9435 38.3777 76.9859 37.3166C76.9859 37.2232 76.9859 37.1384 76.9944 37.045C77.0453 35.865 77.9452 34.8718 79.1676 34.8718C80.3899 34.8718 81.2898 35.865 81.3407 37.045C81.3407 37.1384 81.3407 37.2232 81.3492 37.3166C81.4001 38.3523 80.5767 39.2351 79.609 39.4473L79.6344 39.4558Z" fill="#65A8DF"/>
<path d="M85.0841 42.588C85.0247 45.7714 84.8889 53.0548 85.4237 53.0633C85.6359 53.0633 85.6359 53.3944 85.4237 53.3944C85.2369 53.4368 85.0502 53.4793 84.8634 53.5217C84.6257 53.6406 84.3626 53.4962 84.3541 53.2246C84.1419 49.7017 84.2267 46.1279 84.2692 42.5965C83.293 42.4098 82.4611 41.5269 82.5035 40.4913C82.5035 40.4064 82.5035 40.313 82.512 40.2281C82.5629 39.0651 83.4458 38.0974 84.6427 38.0974C85.8396 38.0974 86.7225 39.0651 86.7734 40.2281C86.7734 40.313 86.7734 40.4064 86.7819 40.4913C86.8244 41.5099 86.0264 42.3758 85.0756 42.588H85.0841Z" fill="#65A8DF"/>
<path d="M88.8107 35.084C88.7513 38.3268 88.607 45.746 89.1587 45.7545C89.3795 45.7545 89.3795 46.0941 89.1587 46.0941C88.9635 46.1365 88.7768 46.179 88.5815 46.2214C88.3438 46.3487 88.0722 46.1875 88.0552 45.9243C87.843 42.342 87.9194 38.7003 87.9618 35.0925C86.9686 34.8972 86.1197 34.0059 86.1622 32.9448C86.1622 32.8514 86.1622 32.7665 86.1707 32.6732C86.2216 31.4932 87.1214 30.5 88.3438 30.5C89.5662 30.5 90.466 31.4932 90.517 32.6732C90.517 32.7665 90.517 32.8514 90.5255 32.9448C90.5764 33.9804 89.753 34.8633 88.7852 35.0755L88.8107 35.084Z" fill="#65A8DF"/>
<path d="M94.8379 42.4015C94.7954 44.7869 94.6935 50.2537 95.0925 50.2622C95.2538 50.2622 95.2538 50.5084 95.0925 50.5084C94.9482 50.5424 94.8124 50.5763 94.6681 50.6018C94.4898 50.6952 94.2946 50.5763 94.2861 50.3811C94.1248 47.741 94.1842 45.0585 94.2182 42.4015C93.4881 42.2572 92.8599 41.6036 92.8939 40.8226C92.8939 40.7547 92.8939 40.6868 92.9024 40.6189C92.9448 39.7445 93.5985 39.0229 94.4983 39.0229C95.3981 39.0229 96.0603 39.753 96.0942 40.6189C96.0942 40.6868 96.0942 40.7547 96.1027 40.8226C96.1366 41.5866 95.534 42.2317 94.8209 42.393L94.8379 42.4015Z" fill="#65A8DF"/>
<path d="M71.663 48.7425C73.8447 48.6491 78.8362 48.4284 78.8531 48.8019C78.8531 48.9463 79.0823 48.9463 79.0823 48.8019C79.1078 48.6746 79.1333 48.5473 79.1587 48.4115C79.2351 48.2502 79.1333 48.0719 78.9465 48.0634C76.5272 47.9785 74.0824 48.0974 71.6546 48.1823C71.5102 47.5201 70.8906 46.9599 70.1775 47.0108C70.1181 47.0108 70.0586 47.0193 69.9992 47.0278C69.2013 47.0872 68.5561 47.6984 68.5731 48.5303C68.5901 49.3537 69.2776 49.9395 70.0756 49.9564C70.135 49.9564 70.1945 49.9564 70.2624 49.9564C70.9584 49.9734 71.5442 49.4047 71.6715 48.751L71.663 48.7425Z" fill="#65A8DF"/>
<path d="M94.6427 73.717C94.5748 71.6967 94.405 67.0872 94.753 67.0702C94.8888 67.0702 94.8888 66.858 94.753 66.858C94.6342 66.8326 94.5153 66.8071 94.3965 66.7816C94.2437 66.7052 94.0824 66.8071 94.0739 66.9769C93.9805 69.2094 94.0654 71.476 94.1249 73.717C93.5052 73.8444 92.9873 74.4131 93.0298 75.0668C93.0298 75.1262 93.0298 75.1771 93.0383 75.2365C93.0807 75.9751 93.6495 76.5778 94.4135 76.5693C95.1775 76.5608 95.7208 75.9326 95.7462 75.1941C95.7462 75.1347 95.7462 75.0837 95.7462 75.0243C95.7632 74.3792 95.2454 73.8359 94.6427 73.717Z" fill="#65A8DF"/>
<path d="M67.7158 65.7799C69.8974 65.6865 74.8889 65.4658 74.9058 65.8393C74.9058 65.9836 75.1351 65.9836 75.1351 65.8393C75.1605 65.712 75.186 65.5761 75.2115 65.4488C75.2879 65.2875 75.186 65.1092 74.9992 65.1008C72.5799 65.0159 70.1351 65.1347 67.7073 65.2196C67.563 64.5575 66.9433 63.9972 66.2302 64.0481C66.1708 64.0481 66.1114 64.0481 66.0519 64.0651C65.254 64.1245 64.6088 64.7357 64.6258 65.5676C64.6428 66.3911 65.3304 66.9768 66.1283 66.9938C66.1878 66.9938 66.2472 66.9938 66.3151 66.9938C67.0112 67.0108 67.5969 66.442 67.7243 65.7884L67.7158 65.7799Z" fill="#65A8DF"/>
<path d="M67.3763 53.8104C70.6699 53.6661 78.1996 53.3351 78.225 53.8953C78.2335 54.116 78.5731 54.1076 78.5731 53.8869C78.6155 53.6916 78.6495 53.4964 78.6919 53.3011C78.8108 53.0549 78.6495 52.7918 78.3778 52.7748C74.7276 52.6475 71.035 52.8172 67.3763 52.9531C67.1555 51.9514 66.2218 51.111 65.1522 51.1789C65.0588 51.1789 64.9654 51.1959 64.8805 51.1959C63.6836 51.2808 62.6989 52.2145 62.7244 53.4539C62.7583 54.7018 63.7854 55.5846 64.9824 55.6101C65.0758 55.6101 65.1692 55.6101 65.2625 55.6101C66.3151 55.6356 67.1895 54.7782 67.3847 53.7935L67.3763 53.8104Z" fill="#65A8DF"/>
<path d="M72.1385 59.9648C75.1945 59.829 82.1808 59.5234 82.1978 60.0497C82.2063 60.2535 82.5204 60.245 82.5204 60.0497C82.5543 59.8715 82.5968 59.6847 82.6307 59.5064C82.7411 59.2772 82.5883 59.0311 82.3336 59.0226C78.9466 58.9037 75.5256 59.065 72.13 59.1924C71.9263 58.2586 71.0604 57.4776 70.0672 57.554C69.9823 57.554 69.8974 57.5625 69.8125 57.571C68.7005 57.6474 67.7922 58.5132 67.8177 59.6677C67.8431 60.8222 68.8023 61.6372 69.9144 61.6626C69.9993 61.6626 70.0842 61.6626 70.1691 61.6626C71.1453 61.6796 71.9602 60.8901 72.1385 59.9733V59.9648Z" fill="#65A8DF"/>
<path d="M75.7293 68.4622C76.0434 68.9631 76.731 69.0649 77.3253 69.0989C83.4033 69.4979 89.5238 69.2856 95.5594 68.4622C95.9159 68.4113 96.2894 68.3519 96.5696 68.1311C96.9601 67.8171 97.0704 67.2653 97.1383 66.7644C97.9957 60.7458 98.2673 54.6508 97.9448 48.5812C97.9278 48.3351 97.9193 48.0804 97.8004 47.8597C97.6222 47.5116 97.2402 47.3334 96.8837 47.1891C93.1825 45.7035 89.0739 45.7799 85.0841 45.8733C82.5374 45.9327 79.9993 46.0006 77.4526 46.06C77.1385 46.06 76.8159 46.077 76.5443 46.2213C75.9246 46.5354 75.7803 47.3504 75.7209 48.0464C75.1606 54.5319 75.1012 61.0599 75.5256 67.5539C75.5426 67.8595 75.5681 68.1821 75.7378 68.4452L75.7293 68.4622Z" fill="#65A8DF"/>
<path opacity="0.42" d="M95.8989 49.4642C95.8989 49.2605 95.7461 49.1331 95.5508 49.1162C89.7699 48.6493 83.9805 48.2927 78.1826 48.0466C77.7921 48.0296 77.7327 48.5389 78.0043 48.7087C77.9873 48.7342 77.9703 48.7511 77.9703 48.7766C77.5289 54.8207 77.478 60.9072 77.2488 66.9598C77.2488 67.0871 77.3591 67.1805 77.478 67.189C83.0806 67.4521 88.6833 67.3673 94.2775 67.0362C94.4048 67.0362 94.5576 66.9428 94.5831 66.807C95.6527 61.0855 96.0347 55.2706 95.8904 49.4557L95.8989 49.4642ZM93.4541 66.4759C90.6612 66.6627 87.8514 66.7391 85.0501 66.79C83.6494 66.8155 82.2487 66.807 80.8481 66.79C79.3965 66.773 77.7072 67.2569 77.7666 65.3129C77.9449 59.8121 78.2844 54.2859 78.2675 48.7851C83.7598 48.9973 89.2436 49.3199 94.7274 49.7443C95.8904 49.8377 95.1688 66.3571 93.4541 66.4759Z" fill="#F1F1F2"/>
<path d="M85.5681 52.554C85.4747 52.0701 84.7871 52.138 84.6513 52.554C83.5817 55.9156 82.6479 59.3111 81.8839 62.7576C81.816 63.0802 82.2829 63.2075 82.3763 62.8934C82.7838 61.5607 83.1997 60.2279 83.6157 58.8952C84.2778 59.0225 84.9399 59.1668 85.6106 59.2772C85.7549 60.4232 85.8907 61.5607 86.0435 62.7067C86.1199 63.3179 87.0621 63.3518 87.0282 62.7067C86.8414 59.3026 86.2302 55.8901 85.5766 52.5455L85.5681 52.554ZM83.8024 58.301C84.1844 57.0786 84.5749 55.8646 84.9654 54.6422C85.1521 55.8052 85.305 56.9682 85.4578 58.1312C84.906 58.1821 84.3542 58.2415 83.8024 58.2925V58.301Z" fill="#F1F1F2"/>
<path d="M90.3387 62.2993C90.2708 60.2704 90.2793 58.2416 90.2029 56.2128C90.1775 55.4657 90.3727 54.1075 90.0586 53.2162C90.5 53.0634 90.4831 52.3673 90.0162 52.2569C89.7785 52.1975 89.5238 52.24 89.2776 52.2484C88.9551 52.2569 88.7089 52.554 88.7938 52.8851C88.8532 53.1058 89.0739 53.2501 89.2946 53.2501C89.3116 53.2501 89.3371 53.2501 89.354 53.2501C89.5153 56.1873 89.5578 59.2008 89.4219 62.138C88.8192 62.138 88.8192 63.1736 89.4729 63.1651H89.9737C90.4661 63.1567 90.5934 62.5794 90.3387 62.2993Z" fill="#F1F1F2"/>
</g>
<defs>
<clipPath id="clip0_19_4202">
<rect width="173.159" height="120" fill="white" transform="translate(0.587646 0.5)"/>
</clipPath>
</defs>
</svg>
