<svg width="216" height="121" viewBox="0 0 216 121" fill="none" xmlns="http://www.w3.org/2000/svg">
<g clip-path="url(#clip0_19_3976)">
<path d="M215.819 117.405C215.819 119.124 172.702 120.5 119.505 120.5C66.3078 120.5 23.1912 119.103 23.1912 117.405C23.1912 115.707 66.3078 114.31 119.505 114.31C172.702 114.31 215.819 115.707 215.819 117.405Z" fill="#D6E6F2"/>
<path d="M166.77 103.993C143.514 92.2787 139.666 97.1578 120.257 107.303C99.2363 118.286 80.1498 101.457 77.6565 87.1846C70.542 46.4324 92.4872 9.65643 118.86 1.94015C134.035 -2.50907 163.503 2.52048 165.695 29.1513C166.684 41.2523 161.418 52.3002 174.465 56.8569C187.963 61.5855 208.575 50.6666 214.314 73.4286C220.01 95.9756 188.522 114.955 166.791 104.014L166.77 103.993Z" fill="#F0F8FF"/>
<path d="M43.9327 106.808C43.9327 106.808 35.1632 105.712 37.3771 97.0932C39.5909 88.4742 38.3658 83.9604 31.7027 77.4908C25.0181 71.0212 25.0396 65.5617 27.8123 59.5435C30.585 53.5252 17.5383 46.7976 23.4061 41.5531C32.7989 33.1706 29.4029 28.1195 24.9536 24.0357C19.9456 19.4575 18.9354 10.4086 26.7161 11.2254C34.4969 12.0206 39.0966 24.5515 39.0321 29.839C38.9676 35.1265 39.5694 40.156 47.8661 43.7025C56.1627 47.249 58.3335 51.3973 59.1718 58.4473C60.0101 65.4973 58.4625 65.2608 65.1686 74.1808L43.9542 106.808H43.9327Z" fill="#969924"/>
<path d="M65.9207 101.779C54.2495 92.5794 32.7987 38.0711 32.5837 37.5338L32.9706 37.3833C33.1856 37.9206 54.5934 92.3215 66.1786 101.456L65.9207 101.779Z" fill="#C2C23C"/>
<path d="M42.4926 62.0153C41.2029 62.2087 39.6124 61.5854 37.7209 60.1453L37.9789 59.8229C40.1283 61.4779 41.8693 62.0153 43.0944 61.4135C45.1363 60.4462 45.2223 56.7063 45.2223 56.6633H45.6307C45.6307 56.8353 45.5232 60.7042 43.2664 61.7789C43.0299 61.8863 42.772 61.9723 42.4926 62.0153Z" fill="#C2C23C"/>
<path d="M37.0761 49.4413C35.7864 49.6348 34.1959 49.0114 32.3044 47.5713L32.5624 47.2489C34.7332 48.904 36.4528 49.4413 37.6779 48.861C39.7198 47.8938 39.8058 44.1323 39.8058 44.1108H40.2142C40.2142 44.2828 40.1067 48.1517 37.8499 49.2479C37.6134 49.3553 37.3555 49.4413 37.0761 49.4843V49.4413Z" fill="#C2C23C"/>
<path d="M33.7875 42.1979C32.4979 42.3914 30.9073 41.768 29.0159 40.3065L29.2738 39.984C31.4447 41.6391 33.1642 42.1764 34.3893 41.5961C36.4312 40.6289 36.5172 36.8674 36.5172 36.8459H36.9256C36.9256 37.0179 36.8181 40.8868 34.5613 41.9615C34.3248 42.0689 34.0669 42.1549 33.7875 42.1979Z" fill="#C2C23C"/>
<path d="M40.0852 56.2979C39.0106 56.4698 37.6779 55.9325 36.1089 54.7288L36.3668 54.4064C38.1508 55.7605 39.5694 56.2119 40.5581 55.7175C42.2131 54.9223 42.2991 51.8487 42.2991 51.8057H42.7075C42.7075 51.9561 42.6215 55.1802 40.7301 56.0829C40.5366 56.1904 40.3002 56.2549 40.0852 56.2764V56.2979Z" fill="#C2C23C"/>
<path d="M45.3082 68.2055C44.0186 68.3989 42.4281 67.7756 40.5366 66.314L40.7945 65.9916C42.9439 67.6466 44.6849 68.184 45.9101 67.6036C47.952 66.6364 48.038 62.875 48.038 62.8535H48.4463C48.4463 63.0255 48.3389 66.8944 46.082 67.9905C45.8456 68.098 45.5877 68.184 45.3082 68.227V68.2055Z" fill="#C2C23C"/>
<path d="M48.0595 75.5993C46.7698 75.7927 45.1793 75.1694 43.2878 73.7293L43.5458 73.4069C45.7166 75.0619 47.4361 75.5993 48.6613 74.9974C50.7032 74.0302 50.7892 70.2903 50.7892 70.2473H51.1976C51.1976 70.4193 51.0901 74.2882 48.8332 75.3628C48.5968 75.4703 48.3389 75.5563 48.0595 75.5993Z" fill="#C2C23C"/>
<path d="M51.1331 80.8223C50.2089 80.9727 49.0482 80.4999 47.6941 79.4682L47.952 79.1457C49.4566 80.3064 50.6602 80.6718 51.52 80.2849C52.9386 79.6186 53.0031 76.9749 53.0031 76.9534H53.4114C53.4114 77.0823 53.3255 79.8765 51.6919 80.6503C51.52 80.7363 51.3265 80.8008 51.1331 80.8223Z" fill="#C2C23C"/>
<path d="M49.1772 72.5687C49.1772 72.5687 24.1799 70.6557 22.9333 64.1001C21.6866 57.5445 26.3293 49.8067 18.2476 43.2296C10.1445 36.674 7.37176 27.7755 3.22345 29.5165C-2.12851 31.7519 1.43946 38.6729 5.71673 45.0351C10.7248 52.4719 8.12404 58.6836 6.38304 61.9292C2.04129 70.0969 12.1434 73.7723 10.8538 84.6482C10.3164 89.0974 16.7861 104.143 39.0536 97.523L49.1772 72.5472V72.5687Z" fill="#C2C23C"/>
<path d="M40.4507 97.4801C32.283 94.0411 12.2938 66.529 12.1003 66.2711L12.3153 66.1206C12.5087 66.4 32.455 93.8691 40.5582 97.2652L40.4507 97.4801Z" fill="#969924"/>
<path d="M21.2352 78.587C20.5045 78.8879 19.4513 78.7804 18.1401 78.2431L18.2476 78.0281C19.7522 78.63 20.8484 78.673 21.5147 78.1571C22.6109 77.2974 22.1595 75.1695 22.1595 75.148L22.3959 75.0835C22.3959 75.0835 22.8688 77.3833 21.6436 78.3291C21.5147 78.4365 21.3642 78.5225 21.2138 78.587H21.2352Z" fill="#969924"/>
<path d="M16.3561 72.3106C15.6253 72.6115 14.5721 72.5041 13.261 71.9667L13.3685 71.7518C14.873 72.3536 15.9692 72.3966 16.6355 71.8807C17.7317 71.021 17.2803 68.8931 17.2803 68.8716L17.5168 68.8071C17.5168 68.8071 17.9896 71.107 16.786 72.0527C16.657 72.1602 16.5066 72.2246 16.3561 72.2891V72.3106Z" fill="#969924"/>
<path d="M13.433 68.7213C12.7022 69.0222 11.649 68.9147 10.3379 68.3774L10.4454 68.1624C11.9499 68.7643 13.0461 68.8072 13.7124 68.2914C14.8086 67.4316 14.3572 65.3037 14.3572 65.2823L14.6152 65.2178C14.6152 65.2178 15.088 67.5176 13.8844 68.4633C13.7554 68.5708 13.605 68.6568 13.4545 68.7213H13.433Z" fill="#969924"/>
<path d="M19.0429 75.7283C18.4196 75.9863 17.5598 75.8788 16.4636 75.4489L16.5711 75.234C17.8177 75.7283 18.7205 75.7713 19.2578 75.3414C20.1391 74.6536 19.7952 72.8911 19.7952 72.8697L20.0316 72.8052C20.0316 72.8052 20.4185 74.7181 19.4083 75.5134C19.3008 75.5994 19.1718 75.6639 19.0429 75.7283Z" fill="#969924"/>
<path d="M23.7287 81.6605C22.9979 81.9614 21.9447 81.8539 20.6335 81.3166L20.741 81.1016C22.2456 81.7035 23.3418 81.7465 24.0081 81.2306C25.1043 80.3708 24.6529 78.243 24.6529 78.2215L24.9108 78.157C24.9108 78.157 25.3837 80.4568 24.18 81.4025C24.0511 81.51 23.9006 81.596 23.7502 81.6605H23.7287Z" fill="#969924"/>
<path d="M26.3507 85.4005C25.6199 85.7014 24.5667 85.5939 23.2556 85.0566L23.3631 84.8416C24.8677 85.4435 25.9638 85.4864 26.6301 84.9706C27.7263 84.1108 27.275 81.983 27.275 81.9615L27.5114 81.897C27.5114 81.897 27.9843 84.1968 26.7806 85.1425C26.6516 85.25 26.5012 85.336 26.3507 85.4005Z" fill="#969924"/>
<path d="M28.8655 87.8937C28.3281 88.1086 27.5759 88.0226 26.6301 87.6572L26.7376 87.4423C27.7908 87.8722 28.5646 87.8937 29.0159 87.5498C29.7682 86.948 29.4673 85.4649 29.4673 85.4434L29.7252 85.3789C29.7252 85.3789 30.0691 87.0339 29.1879 87.7217C29.1019 87.7862 28.9944 87.8507 28.8655 87.9152V87.8937Z" fill="#969924"/>
<path d="M185.212 27.9046C184.459 29.7101 183.6 35.7284 187.361 35.9648C188.973 36.0723 191.423 33.0416 191.853 30.1185C192.047 28.9148 190.972 27.1523 188.994 26.2281C188.113 25.8197 186.071 25.7982 185.212 27.9046Z" fill="#FBB99D"/>
<path d="M185.362 32.9986C185.362 32.9986 187.533 35.5779 185.362 37.6843C183.191 39.8122 191.036 38.7805 191.036 38.7805L190.134 31.1501L185.362 32.9986Z" fill="#FBB99D"/>
<path d="M195.034 45.5512C194.583 44.1111 194.776 42.3056 196.302 41.6178C197.162 41.2309 198.237 42.1122 199.053 42.9934C201.031 45.1213 205.48 55.0729 203.008 57.5662C200.666 59.909 196.453 50.1079 195.034 45.5512Z" fill="#FBB99D"/>
<path d="M195.787 59.178C195.787 59.178 191.208 61.4133 190.843 61.7142C188.5 63.5842 186.974 64.0356 187.49 64.3365C188.436 64.8953 191.617 63.4123 192.09 63.1973C192.67 62.9394 194.11 62.1441 194.561 61.8217C195.034 61.4778 195.765 59.178 195.765 59.178H195.787Z" fill="#FBB99D"/>
<path d="M202.815 57.7595C200.601 59.8874 192.09 63.2189 192.09 63.2189V60.7256L200.558 53.9766C200.558 53.9766 205.029 55.6316 202.815 57.7595Z" fill="#FBB99D"/>
<path d="M201.805 46.2603C201.805 46.2603 199.011 37.2974 194.991 38.5225C190.972 39.7262 195.464 49.076 195.464 49.076C195.464 49.076 200.085 48.5386 201.805 46.2818V46.2603Z" fill="#FEC44F"/>
<path d="M202.041 108.807C202.041 108.807 201.783 110.591 202.665 112.547C203.438 114.245 199.741 118.48 197.356 119.124C196.302 119.404 195.228 118.2 196.646 116.954C199.784 114.202 198.022 109.732 198.022 109.732L202.02 108.807H202.041Z" fill="#FBB99D"/>
<path d="M202.514 112.182C202.514 112.182 200.064 118.802 197.205 116.481C197.205 116.481 194.626 117.19 194.948 118.286C195.249 119.382 198 119.511 199.72 118.437C201.891 117.104 202.557 116.868 203.352 115.9C205.072 113.815 202.514 112.16 202.514 112.16V112.182Z" fill="#53424D"/>
<path d="M200.236 87.7006C200.451 88.3239 201.074 91.1396 201.762 93.7188C203.309 99.3287 202.407 106.422 202.02 108.786C201.934 109.259 201.955 109.753 201.955 110.226C201.998 112.418 199.441 113.45 199.269 113.042C197.957 110.248 192.584 96.1691 192.562 89.7855C192.562 80.4787 194.304 70.9569 200.214 87.6791L200.236 87.7006Z" fill="#FBB99D"/>
<path d="M191.918 56.814C191.918 56.814 198.366 57.7812 198.839 66.0348C199.29 74.2884 209.027 113.149 209.027 113.149C209.027 113.149 202.235 116.61 193.616 115.471L183.513 56.7925H191.939L191.918 56.814Z" fill="#EF849D"/>
<path d="M166.49 114.331C166.49 114.331 165.093 115.578 164.47 117.727C163.933 119.597 158.129 120.478 155.808 119.382C154.776 118.909 156.087 117.62 158.022 117.254C161.225 116.653 162.686 112.375 162.686 112.375L166.49 114.353V114.331Z" fill="#FBB99D"/>
<path d="M164.986 116.502C164.986 116.502 158.581 120.006 157.485 117.319C157.485 117.319 154.755 117.921 155.034 119.081C155.292 120.242 158 120.629 160.042 120.07C163.073 119.232 162.321 119.554 163.567 119.167C165.48 118.544 164.986 116.502 164.986 116.502Z" fill="#53424D"/>
<path d="M179.322 96.3409C179.086 96.9857 177.646 99.651 176.485 102.166C173.927 107.668 168.425 112.698 166.512 114.331C166.125 114.654 165.803 115.041 165.48 115.449C164.04 117.211 161.311 116.309 161.439 115.879C162.299 112.762 167.522 97.9315 171.821 92.8589C178.097 85.4436 185.921 79.0599 179.344 96.3409H179.322Z" fill="#FBB99D"/>
<path d="M157.463 113.472C159.763 115.471 162.084 116.653 164.191 117.255C164.384 117.341 164.578 117.384 164.771 117.427C166.211 117.792 167.522 117.942 168.661 117.942H168.941C171.219 117.899 172.702 117.384 172.702 117.384C172.702 117.384 186.05 80.4787 190.908 72.225C195.765 63.9929 188.737 56.814 188.737 56.814L179.494 58.0821L157.463 113.472Z" fill="#FF95A9"/>
<path d="M184.244 37.4909C188.565 36.4592 192.606 37.104 195.529 38.2861C200.967 40.4785 195.98 49.205 195.443 50.6021C192.713 57.8885 197.119 57.4586 196.259 59.0922C194.712 62.0368 187.146 62.4022 182.396 60.7472C180.548 60.1024 179.043 58.8987 179.516 58.082C182.783 52.2141 180.182 49.3125 180.333 45.4436C180.505 41.4887 180.698 38.3506 184.244 37.4909Z" fill="#FEB801"/>
<path d="M179.516 42.1551C180.483 40.9944 182.116 40.1776 183.514 41.1019C184.309 41.6177 184.137 42.9933 183.857 44.1755C183.148 46.9912 177.882 55.5027 173.884 55.4383C170.574 55.3953 176.442 45.809 179.516 42.1551Z" fill="#FBB99D"/>
<path d="M182.589 48.2379C182.589 48.2379 188.607 41.0375 185.426 38.3293C182.245 35.5995 176.807 44.412 176.807 44.412C176.807 44.412 179.752 48.0015 182.589 48.2379Z" fill="#FEB801"/>
<path d="M188.865 23.1545C185.512 23.4125 184.459 25.9487 185.899 28.8504C188.199 33.4286 182.073 31.7306 185.319 36.6956C187.877 40.6505 186.544 40.0702 184.803 44.6054C179.816 57.5231 198.409 59.3931 205.846 52.8805C209.499 49.6779 209.822 39.06 202.428 33.5575C199.827 31.6231 197.033 29.1728 196.345 27.4318C195.378 24.96 193.852 22.7891 188.887 23.176L188.865 23.1545Z" fill="#53424D"/>
<path d="M166.748 49.1621C166.748 49.1621 164.04 46.0455 163.331 46.4539C162.622 46.8623 164.878 48.6033 164.878 48.6033L166.748 49.1621Z" fill="#FBB99D"/>
<path d="M168.468 50.1507C168.468 50.1507 164.105 47.5069 163.653 47.3565C160.816 46.3892 160.236 45.9164 160.257 46.5182C160.3 47.6144 162.621 49.2049 163.073 49.4843C163.61 49.8282 165.05 50.3441 165.588 50.559C166.125 50.774 168.468 50.1507 168.468 50.1507Z" fill="#FBB99D"/>
<path d="M173.196 55.3522C169.607 54.4494 163.073 49.2264 163.073 49.2264L164.964 48.4526L175.045 51.4403C175.045 51.4403 176.162 56.1259 173.196 55.3736V55.3522Z" fill="#FBB99D"/>
<path d="M34.1315 101.499C31.4232 101.499 29.1879 99.2856 29.1879 96.5559V91.9132C29.1879 89.205 31.4017 86.9696 34.1315 86.9696H36.7322C37.549 86.9696 38.3013 87.1846 38.9891 87.5285C38.0003 85.0782 35.593 83.3157 32.7988 83.3157C29.1234 83.3157 26.1143 86.3248 26.1143 90.0003V98.4258C26.1143 102.101 29.1234 105.11 32.7988 105.11C35.593 105.11 38.0003 103.348 38.9891 100.898C38.3013 101.242 37.549 101.456 36.7322 101.456H34.1315V101.499Z" fill="#604F5B"/>
<path d="M38.989 87.55C39.2899 88.3238 39.4834 89.1406 39.4834 90.0218V98.4474C39.4834 99.3287 39.3114 100.145 38.989 100.919C40.5796 100.102 41.6757 98.4474 41.6757 96.556V91.9133C41.6757 90.0218 40.5796 88.3668 38.989 87.55Z" fill="#5A7FE5"/>
<path d="M63.406 117.62H44.9858C39.5049 117.62 35.0342 113.171 35.0342 107.668L35.0342 78.5871C35.0342 75.9863 37.1621 73.8585 39.7628 73.8585H68.629C71.2298 73.8585 73.3577 75.9863 73.3577 78.5871V107.668C73.3577 113.149 68.9084 117.62 63.406 117.62Z" fill="#604F5B"/>
<path d="M149.048 115.797C149.048 116.963 148.048 117.907 146.808 117.907H79.7261C78.4859 117.907 77.4863 116.963 77.4863 115.797V25.3358C77.4863 24.1696 78.4859 23.2256 79.7261 23.2256H146.808C148.048 23.2256 149.048 24.1696 149.048 25.3358V115.797Z" fill="#5A7FE5"/>
<path d="M150.084 107.93C150.288 110.743 147.789 113.205 144.494 113.427L89.8697 117.259C86.5933 117.499 83.7612 115.408 83.5761 112.594L78.2821 37.1454C78.0785 34.3318 80.5774 31.8884 83.8723 31.6478L138.515 27.8161C141.792 27.594 144.605 29.6671 144.809 32.4807L150.103 107.93H150.084Z" fill="#D2E4FF"/>
<path d="M139.904 27.5198H98.4956L81.5215 45.2528V108.707C81.5215 111.539 83.8168 113.834 86.6489 113.834H139.904C142.736 113.834 145.031 111.539 145.031 108.707V32.6472C145.031 29.8151 142.736 27.5198 139.904 27.5198Z" fill="white"/>
<path d="M98.4956 27.5198L81.5215 45.2528V45.7526H93.8125C96.6446 45.7526 98.9399 43.4573 98.9399 40.6252V27.5198H98.5141H98.4956Z" fill="#B3D0FF"/>
<path d="M131.389 29.3339C131.389 30.4445 130.297 31.3515 128.927 31.3515H103.105C101.754 31.3515 100.643 30.4445 100.643 29.3339V23.2254C100.643 22.1148 101.735 21.2078 103.105 21.2078H128.927C130.278 21.2078 131.389 22.1148 131.389 23.2254V29.3339Z" fill="#FEB801"/>
<path d="M109.288 51.491L91.2584 52.1759C90.9067 52.1759 90.592 51.9723 90.592 51.6946C90.592 51.4169 90.8697 51.1763 91.2214 51.1578L109.251 50.4729C109.602 50.4729 109.917 50.6765 109.917 50.9542C109.917 51.2318 109.639 51.4725 109.288 51.491Z" fill="#D2E4FF"/>
<path d="M126.909 50.8242L121.152 51.0464C120.801 51.0464 120.486 50.8427 120.486 50.5651C120.486 50.2874 120.764 50.0468 121.115 50.0283L126.872 49.8062C127.224 49.8062 127.539 50.0098 127.539 50.2874C127.539 50.5651 127.261 50.8057 126.909 50.8242Z" fill="#D2E4FF"/>
<path d="M133.832 50.5654L130.371 50.695C130.019 50.695 129.704 50.4914 129.704 50.2137C129.704 49.9361 129.982 49.6955 130.334 49.677L133.795 49.5474C134.147 49.5474 134.462 49.751 134.462 50.0287C134.462 50.3063 134.184 50.5469 133.832 50.5654Z" fill="#D2E4FF"/>
<path d="M133.962 52.5276L105.956 53.5827C105.622 53.5827 105.345 53.3976 105.345 53.1384C105.345 52.8793 105.604 52.6572 105.919 52.6572L133.925 51.6021C134.258 51.6021 134.536 51.7872 134.536 52.0463C134.536 52.3055 134.277 52.5276 133.962 52.5276Z" fill="#D2E4FF"/>
<path d="M105.438 55.6374L91.3511 56.1742C91.0179 56.1742 90.7402 55.9891 90.7402 55.73C90.7402 55.4709 90.9994 55.2487 91.3141 55.2487L105.401 54.7119C105.734 54.7119 106.011 54.897 106.011 55.1561C106.011 55.4153 105.752 55.6374 105.438 55.6374Z" fill="#D2E4FF"/>
<path d="M134.036 54.5635L118.469 55.1558C118.136 55.1558 117.858 54.9707 117.858 54.7116C117.858 54.4524 118.099 54.2303 118.432 54.2303L133.999 53.6379C134.332 53.6379 134.61 53.8231 134.61 54.0822C134.61 54.3413 134.351 54.5635 134.036 54.5635Z" fill="#D2E4FF"/>
<path d="M134.055 56.7852L91.4806 58.3771C91.1289 58.3771 90.8142 58.1735 90.8142 57.8958C90.8142 57.6182 91.0919 57.3775 91.4436 57.359L134.018 55.7671C134.369 55.7671 134.684 55.9707 134.684 56.2484C134.684 56.526 134.406 56.7667 134.055 56.7852Z" fill="#D2E4FF"/>
<path d="M105.937 68.9092L91.8508 69.446C91.5176 69.446 91.24 69.2609 91.24 69.0018C91.24 68.7426 91.4991 68.5205 91.8138 68.5205L105.9 67.9836C106.233 67.9836 106.511 68.1688 106.511 68.4279C106.511 68.6871 106.252 68.9092 105.937 68.9092Z" fill="#D2E4FF"/>
<path d="M134.536 67.8359L118.969 68.4283C118.635 68.4283 118.358 68.2431 118.358 67.984C118.358 67.7248 118.617 67.5027 118.931 67.5027L134.499 66.9104C134.832 66.9104 135.11 67.0955 135.11 67.3546C135.11 67.6138 134.851 67.8359 134.536 67.8359Z" fill="#D2E4FF"/>
<path d="M134.554 70.0569L91.9801 71.6488C91.6284 71.6488 91.3137 71.4452 91.3137 71.1675C91.3137 70.8899 91.5914 70.6493 91.9431 70.6308L134.517 69.0388C134.869 69.0388 135.184 69.2425 135.184 69.5201C135.184 69.7978 134.906 70.0384 134.554 70.0569Z" fill="#D2E4FF"/>
<path d="M110.398 81.0893L92.3688 81.7742C92.0171 81.7742 91.7024 81.5706 91.7024 81.2929C91.7024 81.0153 91.9801 80.7747 92.3317 80.7562L110.361 80.0713C110.713 80.0713 111.027 80.2749 111.027 80.5525C111.027 80.8302 110.75 81.0708 110.398 81.0893Z" fill="#D2E4FF"/>
<path d="M128.02 80.4228L122.263 80.645C121.911 80.645 121.596 80.4414 121.596 80.1637C121.596 79.8861 121.874 79.6454 122.226 79.6269L127.983 79.4048C128.334 79.4048 128.649 79.6084 128.649 79.8861C128.649 80.1637 128.371 80.4043 128.02 80.4228Z" fill="#D2E4FF"/>
<path d="M134.943 80.1638L131.481 80.2934C131.129 80.2934 130.815 80.0898 130.815 79.8121C130.815 79.5344 131.092 79.2938 131.444 79.2753L134.906 79.1458C135.257 79.1458 135.572 79.3493 135.572 79.627C135.572 79.9046 135.294 80.1453 134.943 80.1638Z" fill="#D2E4FF"/>
<path d="M135.072 82.1257L107.066 83.1808C106.733 83.1808 106.455 82.9957 106.455 82.7365C106.455 82.4774 106.714 82.2553 107.029 82.2553L135.035 81.2002C135.368 81.2002 135.646 81.3853 135.646 81.6444C135.646 81.9036 135.387 82.1257 135.072 82.1257Z" fill="#D2E4FF"/>
<path d="M106.548 85.2358L92.4614 85.7726C92.1282 85.7726 91.8506 85.5876 91.8506 85.3284C91.8506 85.0693 92.1097 84.8471 92.4244 84.8471L106.511 84.3103C106.844 84.3103 107.122 84.4954 107.122 84.7546C107.122 85.0137 106.863 85.2358 106.548 85.2358Z" fill="#D2E4FF"/>
<path d="M135.146 84.1621L119.579 84.7544C119.246 84.7544 118.968 84.5693 118.968 84.3102C118.968 84.051 119.209 83.8289 119.542 83.8289L135.109 83.2366C135.443 83.2366 135.72 83.4217 135.72 83.6808C135.72 83.94 135.48 84.1621 135.146 84.1621Z" fill="#D2E4FF"/>
<path d="M135.165 86.383L92.5909 87.975C92.2392 87.975 91.9246 87.7713 91.9246 87.4937C91.9246 87.216 92.2022 86.9754 92.5539 86.9569L135.128 85.365C135.48 85.365 135.794 85.5686 135.794 85.8463C135.794 86.1239 135.517 86.3645 135.165 86.383Z" fill="#D2E4FF"/>
<path d="M107.048 98.5078L92.9612 99.0446C92.628 99.0446 92.3503 98.8595 92.3503 98.6003C92.3503 98.3412 92.6095 98.1191 92.9242 98.1191L107.011 97.5823C107.344 97.5823 107.622 97.7674 107.622 98.0265C107.622 98.2857 107.362 98.5078 107.048 98.5078Z" fill="#D2E4FF"/>
<path d="M135.646 97.4341L120.079 98.0264C119.746 98.0264 119.468 97.8413 119.468 97.5822C119.468 97.323 119.727 97.1009 120.042 97.1009L135.609 96.5085C135.942 96.5085 136.22 96.6937 136.22 96.9528C136.22 97.212 135.961 97.4341 135.646 97.4341Z" fill="#D2E4FF"/>
<path d="M135.665 99.6555L93.0905 101.247C92.7388 101.247 92.4241 101.044 92.4241 100.766C92.4241 100.488 92.7017 100.248 93.0534 100.229L135.628 98.6375C135.979 98.6375 136.294 98.841 136.294 99.1187C136.294 99.3963 136.016 99.637 135.665 99.6555Z" fill="#D2E4FF"/>
<path d="M156.878 57.877C156.397 57.877 156.008 57.4882 156.008 57.007V50.2691C156.008 49.7879 156.397 49.3992 156.878 49.3992C157.359 49.3992 157.748 49.7879 157.748 50.2691V57.007C157.748 57.4882 157.359 57.877 156.878 57.877Z" fill="#5FB7FF"/>
<path d="M152.639 53.6195C152.639 53.1382 153.027 52.7495 153.509 52.7495H160.246C160.728 52.7495 161.116 53.1382 161.116 53.6195C161.116 54.1008 160.728 54.4895 160.246 54.4895H153.509C153.027 54.4895 152.639 54.1008 152.639 53.6195Z" fill="#5FB7FF"/>
<path d="M70.2485 62.7637H70.0449C69.6462 62.7637 69.323 63.0869 69.323 63.4856V70.3159C69.323 70.7146 69.6462 71.0379 70.0449 71.0379H70.2485C70.6472 71.0379 70.9704 70.7146 70.9704 70.3159V63.4856C70.9704 63.0869 70.6472 62.7637 70.2485 62.7637Z" fill="#5FB7FF"/>
<path d="M66.5649 106.486C66.5649 107.412 67.3239 108.152 68.2309 108.152C69.1379 108.152 69.8968 107.393 69.8968 106.486C69.8968 105.579 69.1379 104.82 68.2309 104.82C67.3239 104.82 66.5649 105.56 66.5649 106.486Z" fill="#FA8FB8"/>
<path d="M173.112 44.7345H159.321C156.785 44.7345 154.694 42.6613 154.694 40.1069C154.694 37.5709 156.767 35.4792 159.321 35.4792H173.112C175.647 35.4792 177.739 37.5524 177.739 40.1069C177.739 42.6428 175.666 44.7345 173.112 44.7345Z" fill="#D6E6F2"/>
<path d="M162.209 44.29V47.2147L166.614 44.29H162.209Z" fill="#D6E6F2"/>
<path d="M161.339 41.6803C162.116 41.6803 162.746 41.0504 162.746 40.2735C162.746 39.4965 162.116 38.8667 161.339 38.8667C160.562 38.8667 159.932 39.4965 159.932 40.2735C159.932 41.0504 160.562 41.6803 161.339 41.6803Z" fill="#F0F8FF"/>
<path d="M167.411 40.2735C167.411 41.0509 166.781 41.6803 166.004 41.6803C165.226 41.6803 164.597 41.0509 164.597 40.2735C164.597 39.496 165.226 38.8667 166.004 38.8667C166.781 38.8667 167.411 39.496 167.411 40.2735Z" fill="#F0F8FF"/>
<path d="M170.65 41.6803C171.427 41.6803 172.057 41.0504 172.057 40.2735C172.057 39.4965 171.427 38.8667 170.65 38.8667C169.873 38.8667 169.243 39.4965 169.243 40.2735C169.243 41.0504 169.873 41.6803 170.65 41.6803Z" fill="#F0F8FF"/>
<path d="M171.057 7.84326H149.103C146.006 7.84326 143.495 10.3544 143.495 13.4519V15.5436C143.495 18.6412 146.006 21.1523 149.103 21.1523H171.057C174.154 21.1523 176.665 18.6412 176.665 15.5436V13.4519C176.665 10.3544 174.154 7.84326 171.057 7.84326Z" fill="#FA8FB8"/>
<path d="M154.323 20.5232V24.7251L160.673 20.5232H154.323Z" fill="#FA8FB8"/>
<path d="M153.065 16.7467C154.179 16.7467 155.082 15.8434 155.082 14.7291C155.082 13.6147 154.179 12.7114 153.065 12.7114C151.95 12.7114 151.047 13.6147 151.047 14.7291C151.047 15.8434 151.95 16.7467 153.065 16.7467Z" fill="#F0F8FF"/>
<path d="M161.801 14.7291C161.801 15.8397 160.894 16.7467 159.765 16.7467C158.636 16.7467 157.748 15.8397 157.748 14.7291C157.748 13.6184 158.655 12.7114 159.765 12.7114C160.876 12.7114 161.801 13.6184 161.801 14.7291Z" fill="#F0F8FF"/>
<path d="M168.521 14.7291C168.521 15.8397 167.614 16.7467 166.503 16.7467C165.393 16.7467 164.467 15.8397 164.467 14.7291C164.467 13.6184 165.374 12.7114 166.503 12.7114C167.632 12.7114 168.521 13.6184 168.521 14.7291Z" fill="#F0F8FF"/>
</g>
<defs>
<clipPath id="clip0_19_3976">
<rect width="215.304" height="120" fill="white" transform="translate(0.515137 0.5)"/>
</clipPath>
</defs>
</svg>
