<svg width="76" height="155" viewBox="0 0 76 155" fill="none" xmlns="http://www.w3.org/2000/svg">
<path d="M48 144.882C48 150.391 43.5085 154.882 38 154.882C32.4915 154.882 28 150.391 28 144.882C28 139.374 32.4915 134.882 38 134.882C43.5085 134.882 48 139.374 48 144.882Z" fill="url(#paint0_radial_1494_9113)"/>
<path d="M39.1977 -100.66H37.0781V96.2068H39.1977V-100.66Z" fill="url(#paint1_linear_1494_9113)" fill-opacity="0.6"/>
<path d="M45.0916 114.655C45.0916 117.554 42.7169 119.992 39.7485 119.992H35.7908C32.8884 119.992 30.4478 117.62 30.4478 114.655V98.7104C30.4478 95.8114 32.8224 93.3736 35.7908 93.3736H39.7485C42.6509 93.3736 45.0916 95.7455 45.0916 98.7104V114.655Z" fill="url(#paint2_linear_1494_9113)"/>
<path d="M30.4479 114.985L0.236816 142.525H75.2368L45.0257 114.985H30.4479Z" fill="url(#paint3_linear_1494_9113)"/>
<defs>
<radialGradient id="paint0_radial_1494_9113" cx="0" cy="0" r="1" gradientUnits="userSpaceOnUse" gradientTransform="translate(37.9834 144.872) scale(9.97525)">
<stop stop-color="#FFEBA3"/>
<stop offset="1" stop-color="#FFC700"/>
</radialGradient>
<linearGradient id="paint1_linear_1494_9113" x1="37.0699" y1="34.8845" x2="39.1752" y2="34.8845" gradientUnits="userSpaceOnUse">
<stop stop-color="#313131"/>
<stop offset="0.0645211" stop-color="#343434"/>
<stop offset="0.6328" stop-color="#494949"/>
<stop offset="1" stop-color="#515151"/>
</linearGradient>
<linearGradient id="paint2_linear_1494_9113" x1="30.4596" y1="106.688" x2="45.0713" y2="106.688" gradientUnits="userSpaceOnUse">
<stop stop-color="#227DD0"/>
<stop offset="0.5" stop-color="#4E8DEC"/>
<stop offset="1" stop-color="#1B77CC"/>
</linearGradient>
<linearGradient id="paint3_linear_1494_9113" x1="0.297627" y1="128.76" x2="75.1331" y2="128.76" gradientUnits="userSpaceOnUse">
<stop stop-color="#227DD0"/>
<stop offset="0.5" stop-color="#4E8DEC"/>
<stop offset="1" stop-color="#1B77CC"/>
</linearGradient>
</defs>
</svg>
