<svg width="198" height="164" viewBox="0 0 198 164" fill="none" xmlns="http://www.w3.org/2000/svg">
<circle cx="127.945" cy="61.5559" r="54.9446" fill="#E4EAFF"/>
<circle cx="179.452" cy="124.062" r="12.5" fill="#E4EAFF"/>
<g filter="url(#filter0_d_34_29859)">
<path d="M19.2301 19L7.44067 21.7368V141.947L19.2301 143.211V19Z" fill="#5F71AB"/>
<path d="M19.2301 19L77.4407 27.8421V134.895L19.2301 143.316V19Z" fill="#7188D5"/>
<g clip-path="url(#clip0_34_29859)">
<path opacity="0.6" d="M37.5572 87.6321C37.2703 88.3276 36.8196 89.0435 36.1229 89.289C35.6926 89.4322 35.2418 89.4117 34.791 89.514C32.9468 89.9231 31.9428 92.3368 30.0576 92.3982C28.7872 92.4595 27.7422 91.3754 27.1479 90.2504C26.5537 89.1254 26.1644 87.8571 25.2833 86.9367C24.7505 86.3844 24.0743 85.9957 23.5621 85.423C22.1687 83.9298 22.3121 81.2911 23.8489 79.941C24.9349 79.0001 26.4513 78.7342 27.8856 78.6933C30.324 78.6524 34.2377 78.8774 36.2663 80.4524C38.1924 81.9661 38.3768 85.5866 37.5572 87.6321Z" fill="#0455BF"/>
<path d="M70.6707 35.6089C71.5352 35.9642 72.3997 36.5226 72.7048 37.411C72.8828 37.944 72.8573 38.5278 72.959 39.0608C73.4421 41.3452 76.417 42.6397 76.4679 44.9749C76.5187 46.5485 75.1457 47.8177 73.7473 48.5537C72.3488 49.2898 70.747 49.7213 69.6028 50.8127C68.9163 51.4473 68.4077 52.2849 67.6958 52.9195C65.8142 54.6201 62.5342 54.417 60.8815 52.488C59.7119 51.1427 59.4068 49.239 59.4068 47.4623C59.4068 44.4418 59.7373 39.5939 61.746 37.1064C63.653 34.7459 68.1535 34.5682 70.6707 35.6089Z" fill="#0455BF"/>
<path d="M34.1515 39.8068C36.2968 38.6989 37.1362 36.0647 36.0264 33.9232C34.9165 31.7816 32.2777 30.9437 30.1324 32.0516C27.9871 33.1595 27.1478 35.7937 28.2576 37.9352C29.3674 40.0768 32.0062 40.9147 34.1515 39.8068Z" fill="#0455BF"/>
<mask id="mask0_34_29859" style="mask-type:luminance" maskUnits="userSpaceOnUse" x="27" y="31" width="10" height="10">
<path d="M34.1514 39.8067C36.2966 38.6988 37.136 36.0647 36.0262 33.9232C34.9164 31.7816 32.2776 30.9437 30.1324 32.0516C27.9871 33.1595 27.1477 35.7937 28.2576 37.9352C29.3674 40.0767 32.0061 40.9146 34.1514 39.8067Z" fill="white"/>
</mask>
<g mask="url(#mask0_34_29859)">
<path d="M33.5839 31.5595C33.4313 31.4326 33.2025 31.458 33.0245 31.5849C32.872 31.7118 32.7957 31.8895 32.7194 32.0925C32.6686 32.2702 32.6177 32.4733 32.4906 32.6509C32.2617 32.9809 31.8295 33.1332 31.6261 33.4886C31.5752 33.5901 31.5244 33.7424 31.5498 33.8439C31.6006 34.1485 31.9058 34.2246 32.16 34.1992C32.338 34.1739 32.516 34.0977 32.694 34.047C33.0499 33.9454 33.4568 33.9708 33.8127 34.0723C34.0416 34.1485 34.0416 34.4531 33.8127 34.5546C33.711 34.6054 33.6093 34.6561 33.5076 34.7069C33.2534 34.8846 33.0754 35.2145 33.1517 35.5191C33.2025 35.7222 33.3551 35.8998 33.5076 36.0521C33.8382 36.3821 34.1687 36.7121 34.5247 37.042C34.7281 37.2451 34.9569 37.4482 35.262 37.372C35.44 37.3212 35.5926 37.1436 35.6434 36.9659C35.7451 36.6359 35.5926 36.2806 35.44 36.0014C35.3129 35.7222 35.1349 35.443 35.1603 35.113C35.1603 34.9861 35.2112 34.8592 35.2875 34.7577C35.5163 34.4531 35.8468 34.5546 36.152 34.5038C36.6605 34.4277 36.991 33.92 37.0419 33.4124C37.0927 32.9048 36.8893 32.4225 36.6859 31.9656" fill="#03A678"/>
</g>
<mask id="mask1_34_29859" style="mask-type:luminance" maskUnits="userSpaceOnUse" x="27" y="31" width="10" height="10">
<path d="M34.1514 39.8067C36.2966 38.6988 37.136 36.0647 36.0262 33.9232C34.9164 31.7816 32.2776 30.9437 30.1324 32.0516C27.9871 33.1595 27.1477 35.7937 28.2576 37.9352C29.3674 40.0767 32.0061 40.9146 34.1514 39.8067Z" fill="white"/>
</mask>
<g mask="url(#mask1_34_29859)">
<path d="M26.8713 35.4937C26.9222 35.9506 26.973 36.3821 27.1765 36.7882C27.3799 37.1943 27.7613 37.5243 28.1935 37.5497C28.5241 37.5751 28.8292 37.4228 29.1597 37.3466C29.4903 37.2705 29.8971 37.3466 30.0496 37.6258C30.1513 37.8543 30.1005 38.1081 30.0751 38.3365C30.0496 39.1488 30.7361 39.8087 31.3464 40.3417C31.5498 40.5194 31.7786 40.6971 32.0329 40.7986C32.2871 40.9001 32.5923 40.9255 32.8211 40.7478C33.0245 40.5955 33.1516 40.3417 33.1516 40.0879C33.1771 39.8341 33.1008 39.5803 33.0499 39.3264C32.9228 38.8188 32.7957 38.2858 32.6431 37.7781C32.516 37.3213 32.338 36.7882 31.8803 36.6613C31.5244 36.5852 31.143 36.8136 30.787 36.7375C30.5073 36.6867 30.2785 36.4836 30.2022 36.2298C30.1259 35.976 30.2276 35.6714 30.431 35.4937C30.5582 35.3922 30.7107 35.3161 30.8378 35.2145C30.965 35.113 31.0413 34.91 30.9396 34.783C30.7616 34.5292 30.3039 34.783 30.1005 34.58C29.9988 34.4785 29.9988 34.3262 30.0496 34.1739C30.1005 34.047 30.2022 33.9201 30.253 33.7931C30.5073 33.2855 30.3039 32.6509 29.8971 32.2448C29.4903 31.8387 28.9563 31.6103 28.4478 31.4072" fill="#03A678"/>
</g>
<path d="M61.6698 80.2618C63.7801 81.2517 64.4667 83.13 64.6446 84.526C64.7209 85.1605 64.6446 85.8966 64.6192 86.3535C64.5429 86.3789 64.4667 86.3789 64.4158 86.4043C64.2632 86.4296 64.1107 86.4804 63.9327 86.5058C63.9581 86.0489 63.9836 85.4651 63.8819 84.8306C63.6276 83.0031 62.7631 81.7086 61.3138 80.9217C58.6186 79.5003 56.6608 80.9217 55.0589 82.3177C55.0081 82.2162 54.9572 82.1147 54.8809 81.9878C54.8301 81.8863 54.7792 81.7847 54.7029 81.7086C56.4065 80.2618 58.4915 78.7896 61.6698 80.2618Z" fill="#CF3A3A"/>
<path d="M61.4409 80.7696C63.3987 81.7342 63.9835 83.5617 64.1107 84.9069C64.1615 85.4907 64.1615 86.0237 64.1107 86.4806C63.8818 86.5314 63.653 86.6075 63.4496 86.6583C63.5004 86.2268 63.5259 85.6938 63.4496 85.11C63.2716 83.3586 62.4834 82.1403 61.0849 81.4549C58.6694 80.2874 56.8133 81.4549 55.2877 82.7748C55.186 82.5718 55.0843 82.3941 54.9826 82.191C56.6099 80.795 58.7457 79.4498 61.4409 80.7696Z" fill="#F2B705"/>
<path d="M61.1867 81.3278C63.0428 82.1654 63.5513 83.8914 63.6276 85.1859C63.653 85.7189 63.6276 86.2011 63.5768 86.6072C63.3479 86.6834 63.1445 86.7342 62.9157 86.8103C62.9665 86.4042 62.9919 85.9219 62.9665 85.3889C62.8394 83.7391 62.1275 82.5715 60.8053 81.9877C58.6949 81.0232 56.9405 82.0131 55.4912 83.2061C55.3895 83.0284 55.3132 82.8507 55.2115 82.673C56.8133 81.3785 58.7966 80.2363 61.1867 81.3278Z" fill="#03A678"/>
<path d="M60.7798 81.9878C62.5851 82.7493 63.0428 84.4245 63.0936 85.6682C63.119 86.049 63.0936 86.4297 63.0682 86.785C63.0173 86.8104 62.9665 86.8104 62.9156 86.8358C62.7631 86.8866 62.5851 86.9373 62.4325 86.9881C62.458 86.6581 62.4834 86.2774 62.458 85.8967C62.3817 84.2722 61.6952 83.1808 60.3984 82.6478C58.5932 81.8863 57.0167 82.5716 55.6945 83.5869C55.6183 83.4854 55.5674 83.3585 55.5166 83.2569C55.4911 83.2062 55.4657 83.1554 55.4149 83.0793C56.915 81.9371 58.6949 81.0995 60.7798 81.9878Z" fill="#0455BF"/>
<path d="M66.0939 88.3587C66.1956 88.2572 66.4499 87.5465 66.4245 87.1911C66.399 86.8358 66.1702 86.4804 65.8396 86.3535C65.5091 86.2266 65.1786 86.3535 65.026 86.6835C65.1023 86.3789 65.204 85.9474 65.1277 85.592C65.026 85.1098 64.7209 84.9067 64.3395 84.8306C64.0344 84.7798 63.653 84.9321 63.4496 85.1606C63.2462 85.4144 63.119 85.719 63.0173 85.9982C63.1445 85.719 63.0173 85.3636 62.7631 85.1859C62.5088 85.0336 62.1528 85.059 61.8986 85.2113C61.6443 85.389 61.4917 85.6682 61.4409 85.9728C61.4155 85.6174 61.0086 85.3382 60.6527 85.4144C60.2967 85.4905 60.0424 85.8205 59.9916 86.2012C59.9407 86.5566 60.017 87.1911 60.1187 87.3434C60.195 87.5211 65.6871 88.6379 66.0939 88.3587Z" fill="#F2F2F2"/>
<path d="M58.9237 84.4498C59.0254 84.3483 59.2797 83.6376 59.2543 83.2822C59.2288 82.9269 59 82.5715 58.6694 82.4446C58.3389 82.3177 58.0084 82.4446 57.8558 82.7746C57.9321 82.47 58.0338 82.0385 57.9575 81.6831C57.8558 81.2009 57.5507 80.9978 57.1947 80.9217C56.8896 80.8709 56.5082 80.9978 56.3048 81.2516C56.1014 81.5055 55.9743 81.81 55.8726 82.0892C55.9997 81.81 55.8726 81.4547 55.6183 81.277C55.364 81.0993 55.0081 81.1247 54.7538 81.3024C54.4995 81.4801 54.347 81.7593 54.2961 82.0639C54.2707 81.7085 53.8639 81.4293 53.5079 81.5055C53.1519 81.5816 52.8722 81.9116 52.8468 82.2669C52.796 82.6223 52.8722 83.2568 52.9739 83.4091C53.0248 83.5614 58.5169 84.729 58.9237 84.4498Z" fill="#F2F2F2"/>
<path d="M28.8519 121.564C28.8519 121.564 25.7999 121.352 25.2011 123.029C24.6023 124.726 24.583 124.996 24.8921 125.362C25.2977 125.825 27.4418 124.765 27.4418 124.765L28.8519 121.564Z" fill="#03A678"/>
<path d="M33.5071 124.803C33.5071 124.803 34.9558 127.483 33.6616 128.718C32.3674 129.971 32.1163 130.087 31.672 129.952C31.0732 129.778 31.1698 127.387 31.1698 127.387L33.5071 124.803Z" fill="#03A678"/>
<path d="M36.6556 119.5C37.1771 118.074 37.5248 116.203 36.5783 115.605C35.4001 114.853 33.7968 115.972 32.5799 117.032C33.7582 118.131 35.1489 118.941 36.6556 119.5Z" fill="#CF3A3A"/>
<path d="M27.1327 125.208C27.1327 125.208 24.2546 127.31 24.5637 128.717C24.8921 130.106 26.2828 129.084 26.2828 129.084C26.2828 129.084 24.1194 131.263 25.375 132.304C26.6305 133.345 27.7315 130.935 27.7315 130.935C27.7315 130.935 27.7122 131.378 28.4462 131.88C29.7597 132.767 31.0153 127.869 31.0153 127.869L27.1327 125.208Z" fill="#CF3A3A"/>
<path d="M27.7701 125.651C27.7701 125.651 25.7806 127.098 26.0124 128.062C26.2249 129.026 27.1907 128.312 27.1907 128.312C27.1907 128.312 25.7033 129.797 26.5725 130.53C27.4418 131.243 28.1951 129.604 28.1951 129.604C28.1951 129.604 28.1758 129.913 28.6973 130.26C29.6052 130.877 30.4551 127.502 30.4551 127.502L27.7701 125.651Z" fill="#F2B705"/>
<path d="M32.5799 117.013C27.4804 122.142 27.1328 125.208 27.1328 125.208C28.2724 127.349 31.0153 127.869 31.0153 127.869C30.8994 128.043 33.8741 126.751 36.6556 119.501C35.149 118.941 33.7582 118.132 32.5799 117.013Z" fill="#F2F2F2"/>
<path d="M33.5457 123.723C33.0048 124.514 31.7493 124.938 30.8608 124.321C29.9722 123.723 29.4893 122.586 30.1654 121.583C30.7062 120.792 31.9038 120.503 32.7924 121.101C33.6809 121.718 34.0866 122.933 33.5457 123.723Z" fill="#03A678"/>
<path d="M32.6185 121.41C32.1935 121.12 31.6527 121.082 31.2084 121.236C30.9187 121.352 30.6482 121.525 30.4744 121.795C29.9142 122.605 30.3199 123.531 31.0346 124.032C31.6141 124.437 32.406 124.283 32.9276 123.859C33.0435 123.762 33.14 123.666 33.2173 123.531C33.6616 122.894 33.3332 121.911 32.6185 121.41Z" fill="#0455BF"/>
<path d="M62.5597 48.8076C62.5088 48.8076 62.458 48.8076 62.4071 48.8076C62.4325 48.7061 62.4325 48.6299 62.4325 48.5284C62.4325 47.8939 61.8986 47.3608 61.2629 47.3608C60.7035 47.3608 60.2459 47.7416 60.1187 48.2746C60.017 48.2238 59.8899 48.1731 59.7373 48.1731C59.3305 48.1731 59 48.4777 58.9237 48.8838C58.7966 48.833 58.644 48.8076 58.5169 48.8076C57.8812 48.8076 57.3727 49.3153 57.3727 49.9498C57.3727 50.5844 57.8812 51.092 58.5169 51.092C59.1525 51.092 61.924 51.092 62.5342 51.092C63.1699 51.092 63.6784 50.5844 63.6784 49.9498C63.7038 49.3153 63.1953 48.8076 62.5597 48.8076Z" fill="#F2F2F2"/>
<path d="M71.8194 62.8691C71.7685 62.8691 71.6922 62.8691 71.6414 62.8691C71.6668 62.7676 71.6668 62.6661 71.6668 62.5645C71.6668 61.8792 71.1074 61.3208 70.4209 61.3208C69.8361 61.3208 69.3276 61.7269 69.2005 62.2853C69.0733 62.2346 68.9462 62.1838 68.7936 62.1838C68.3614 62.1838 68.0054 62.5138 67.9291 62.9199C67.802 62.8691 67.6494 62.8437 67.4969 62.8437C66.8358 62.8437 66.2764 63.3768 66.2764 64.0621C66.2764 64.722 66.8104 65.2804 67.4969 65.2804C68.1834 65.2804 71.1329 65.2804 71.7939 65.2804C72.455 65.2804 73.0144 64.7474 73.0144 64.0621C73.0398 63.4275 72.5059 62.8691 71.8194 62.8691Z" fill="#F2F2F2"/>
<path d="M68.7637 101.679C68.9671 101.907 65.2803 105.791 64.6955 106.273C64.5175 106.425 64.3903 106.654 64.4158 106.882C65.9159 105.994 68.0517 103.227 68.1789 103.278C68.306 103.303 67.289 104.547 66.7041 105.029C65.9414 105.74 65.382 106.501 64.6192 107.06C64.3649 107.263 64.5429 107.364 64.5683 107.441C64.7463 107.847 65.5091 108.431 65.6617 108.253C65.8397 108.075 65.8142 108.126 65.8651 108.024C65.9668 107.847 66.0431 108.431 66.2465 108.354C66.4245 108.278 69.4502 104.979 69.5773 105.182C69.7045 105.385 68.3314 106.349 67.7212 106.933C67.2635 107.441 66.8059 107.974 66.3482 108.481C66.4753 108.634 66.6024 108.735 66.8059 108.684C67.1364 108.684 67.4161 107.948 67.7466 107.669C68.7383 106.984 69.4756 105.918 70.391 105.156C71.0266 104.572 71.4843 103.862 71.942 103.126C72.5014 102.085 73.5184 101.222 73.7981 100.257C74.0269 99.3691 72.4759 99.2676 72.12 99.4706C71.7386 99.6737 71.8148 99.496 71.8657 99.293C71.9165 99.0899 71.6877 98.4046 71.3063 98.2777C70.9249 98.1508 67.4415 103.329 65.8397 105.055C66.9076 103.963 67.7721 103.075 68.6111 101.831C68.5857 101.704 68.662 101.577 68.7637 101.679Z" fill="#CF63BD"/>
<path d="M42.5237 41.4722C42.7526 41.2691 46.3631 45.2541 46.8208 45.8633C46.9479 46.041 47.1768 46.1933 47.431 46.1933C46.6428 44.645 44.0493 42.3098 44.1002 42.1829C44.151 42.056 45.3206 43.1728 45.7275 43.782C46.3885 44.5942 47.1005 45.2034 47.609 46.0156C47.787 46.2694 47.8887 46.1171 47.9904 46.0917C48.4226 45.9648 49.0329 45.2287 48.8803 45.0511C48.7023 44.8734 48.7786 44.8988 48.6515 44.8226C48.4735 44.7211 49.0583 44.6703 49.0075 44.4673C48.9312 44.2896 45.8546 41.0153 46.0834 40.9138C46.2868 40.8123 47.1513 42.2337 47.7107 42.8936C48.1938 43.4012 48.6769 43.8835 49.16 44.3911C49.3126 44.2642 49.4143 44.1373 49.3889 43.9596C49.4143 43.6297 48.7023 43.2997 48.4481 42.9444C47.8378 41.9037 46.8208 41.0915 46.1089 40.1269C45.5749 39.4416 44.8884 38.934 44.1765 38.4517C43.1848 37.8172 42.3966 36.7511 41.4558 36.3958C40.5913 36.1166 40.3625 37.6395 40.5405 38.0202C40.7185 38.401 40.5405 38.3248 40.3371 38.2741C40.1337 38.2233 39.4217 38.3756 39.2692 38.7563C39.1166 39.137 44.0239 42.9697 45.6258 44.6957C44.6341 43.5535 43.7951 42.6398 42.6 41.7006C42.5492 41.6753 42.422 41.5737 42.5237 41.4722Z" fill="#CF3A3A"/>
</g>
<path d="M42.4717 56.7013C43.6107 56.821 44.3441 55.6709 44.3058 53.3639C44.2679 51.0737 43.4937 49.7652 42.3547 49.6454C41.2325 49.5275 40.4991 50.6776 40.5371 52.9678C40.5754 55.2748 41.3495 56.5834 42.4717 56.7013ZM48.819 47.2318L51.03 47.4641L51.288 63.0241L49.0771 62.7917L48.9416 54.6244L46.3789 54.3551C46.1936 57.2942 44.6492 58.9474 42.5052 58.7221C40.2105 58.4809 38.4833 56.1644 38.4266 52.746C38.3702 49.3443 40.0268 47.4003 42.3215 47.6415C44.3985 47.8598 45.9844 49.7244 46.3323 52.5514L48.9118 52.8226L48.819 47.2318Z" fill="white"/>
<path d="M25.7156 49.4433C25.7355 50.6389 26.5682 51.4493 27.7072 51.569C28.8462 51.6887 29.6717 51.0526 29.6518 49.857C29.6317 48.6445 28.7825 47.8492 27.6435 47.7295C26.5045 47.6098 25.6955 48.2308 25.7156 49.4433ZM34.0933 49.4833L31.6479 49.2263C31.7026 49.501 31.7405 49.7739 31.7456 50.0771C31.7503 50.3633 31.7213 50.6293 31.659 50.9085L34.1213 51.1673L34.0933 49.4833ZM34.1506 52.9355L30.7169 52.5746C29.9922 53.238 28.9442 53.565 27.7382 53.4382C25.4602 53.1988 23.6582 51.4124 23.6219 49.2232C23.5853 47.0172 25.3343 45.604 27.6122 45.8435C28.8517 45.9737 29.9145 46.5393 30.6638 47.3577L34.064 47.7151L34.0305 45.6943L36.2415 45.9267L36.3923 55.0202L34.1813 54.7878L34.1506 52.9355ZM31.2445 59.1861C33.2712 59.3991 34.3527 59.0757 34.3376 58.1664C34.3226 57.257 33.2266 56.7047 31.1998 56.4917C29.1731 56.2787 28.1084 56.6039 28.1235 57.5132C28.1385 58.4226 29.2178 58.9731 31.2445 59.1861ZM31.1714 54.7741C34.4376 55.1174 36.483 56.4586 36.5151 58.3952C36.547 60.315 34.5392 61.247 31.273 60.9037C28.0235 60.5622 25.9778 59.2041 25.946 57.2844C25.9139 55.3478 27.9219 54.4325 31.1714 54.7741Z" fill="white"/>
<g clip-path="url(#clip1_34_29859)">
<path opacity="0.3" d="M49.3354 119.216C58.0557 119.216 65.1249 112.24 65.1249 103.634C65.1249 95.0289 58.0557 88.0527 49.3354 88.0527C40.6151 88.0527 33.546 95.0289 33.546 103.634C33.546 112.24 40.6151 119.216 49.3354 119.216Z" fill="white"/>
<path d="M57.1152 106.304L41.0977 106.53L41.1743 111.813L57.1918 111.587L57.1152 106.304Z" fill="#009345"/>
<path d="M50.2591 106.398L41.0949 106.528L41.1715 111.811L50.3357 111.681L50.2591 106.398Z" fill="#009345"/>
<path d="M57.5818 107.916L41.6068 108.142L41.6517 111.243L57.6268 111.017L57.5818 107.916Z" fill="white"/>
<path d="M57.5325 92.6871L42.6111 92.9004L42.8352 108.162L57.7565 107.948L57.5325 92.6871Z" fill="#F6921E"/>
<path d="M43.1527 108.112L42.9401 93.5888C42.931 93.0674 42.5149 92.6508 42.0078 92.6568H41.8195C41.3123 92.6658 40.9054 93.0973 40.9145 93.6188L41.1271 108.142C41.1271 108.166 43.1557 108.139 43.1557 108.112H43.1527Z" fill="#FF4400"/>
<path d="M43.1527 108.112L42.9401 93.5888C42.931 93.0674 42.5149 92.6508 42.0078 92.6568H41.8195C41.3123 92.6658 40.9054 93.0973 40.9145 93.6188L41.1271 108.142C41.1271 108.166 43.1557 108.139 43.1557 108.112H43.1527Z" fill="#B25A02"/>
<path d="M44.2731 109.079L44.4037 114.611L46.3139 113.419L48.1937 114.513L48.1147 109.07L44.2731 109.079Z" fill="#BE1E2D"/>
<path d="M46.9548 95.303L47.5834 95.291L49.3539 99.9391L48.7131 99.9511L48.209 98.5456L46.4081 98.5756L45.9466 99.9991L45.3301 100.011L46.9548 95.303ZM48.0085 97.9942L47.5712 96.8074L47.2645 95.9174L46.9882 96.7805L46.5843 98.0152L48.0055 97.9912L48.0085 97.9942Z" fill="white"/>
<path d="M50.9027 97.9375L50.9148 98.5339L49.445 98.5578L49.4329 97.9615L50.9027 97.9375Z" fill="white"/>
<path d="M53.5537 96.1094C53.6083 96.0464 53.6478 95.9955 53.6751 95.9595C53.6842 95.9505 53.6933 95.9416 53.7055 95.9296C53.7176 95.9176 53.7298 95.8996 53.745 95.8756C53.6022 95.8816 53.4838 95.8846 53.3897 95.8876C53.2955 95.8876 53.1832 95.8906 53.0526 95.8936L51.3155 95.9236L51.3064 95.3572L54.4586 95.3032L54.4677 95.8367L52.1051 99.0583C52.1051 99.0583 52.096 99.0703 52.0869 99.0793C52.0778 99.0883 52.0717 99.1002 52.0626 99.1122C52.0504 99.1272 52.0383 99.1452 52.0292 99.1602C52.017 99.1752 52.0049 99.1901 51.9958 99.2021C51.9867 99.2111 51.9806 99.2201 51.9715 99.2291C51.9624 99.2381 51.9563 99.2501 51.9472 99.2621C51.9381 99.2741 51.929 99.286 51.9168 99.301C51.9047 99.313 51.8925 99.328 51.8834 99.346H51.9259C52.0444 99.34 52.1415 99.334 52.2175 99.331C52.2934 99.328 52.3571 99.325 52.4057 99.325C52.4543 99.325 52.4938 99.325 52.5242 99.325C52.5545 99.325 52.5879 99.325 52.6183 99.325L54.5983 99.292L54.6074 99.8584L51.1698 99.9184L51.1606 99.373L53.5506 96.1154L53.5537 96.1094Z" fill="white"/>
</g>
</g>
<path d="M137.028 132.215C137.028 137.653 132.27 142.029 126.45 142.029H84.8159C78.9532 142.029 74.2375 137.61 74.2375 132.215V35.3098C74.2375 29.8719 78.9957 25.4961 84.8159 25.4961H126.45C132.313 25.4961 137.028 29.9144 137.028 35.3098V132.215Z" fill="url(#paint0_radial_34_29859)"/>
<path d="M134.989 132.215C134.989 137.653 130.231 142.029 124.411 142.029H82.7767C76.9139 142.029 72.1982 137.61 72.1982 132.215V35.3098C72.1982 29.8719 76.9564 25.4961 82.7767 25.4961H124.411C130.273 25.4961 134.989 29.9144 134.989 35.3098V132.215Z" fill="white"/>
<path d="M133.29 130.09C133.29 135.316 128.786 139.522 123.263 139.522H83.9236C78.4007 139.522 73.8975 135.273 73.8975 130.09V36.9236C73.8975 31.7406 78.4007 27.4922 83.9236 27.4922H123.263C128.786 27.4922 133.29 31.7406 133.29 36.9236V130.09Z" fill="#1562AF"/>
<path d="M133.247 130.09C133.247 135.316 128.787 139.522 123.264 139.522H83.9664C78.4435 139.522 73.9827 135.273 73.9827 130.09V36.966C73.9402 31.7406 78.401 27.4922 83.9239 27.4922H123.221C128.744 27.4922 133.205 31.7406 133.205 36.9236V130.09H133.247Z" fill="url(#paint1_linear_34_29859)"/>
<path d="M133.205 130.048C133.205 135.274 128.744 139.48 123.221 139.48H83.9241C78.4012 139.48 73.9404 135.231 73.9404 130.048V36.9665C73.9404 31.741 78.4012 27.5352 83.9241 27.5352H123.221C128.744 27.5352 133.205 31.7835 133.205 36.9665V130.048Z" fill="url(#paint2_linear_34_29859)"/>
<path d="M133.205 130.048C133.205 135.274 128.744 139.48 123.221 139.48H83.9661C78.4432 139.48 73.9824 135.274 73.9824 130.048V36.9665C73.9824 31.741 78.4432 27.5352 83.9661 27.5352H123.221C128.744 27.5352 133.205 31.741 133.205 36.9665V130.048Z" fill="url(#paint3_linear_34_29859)"/>
<path d="M133.162 130.006C133.162 135.231 128.701 139.437 123.178 139.437H83.9661C78.4432 139.437 73.9824 135.231 73.9824 130.006V36.9665C73.9824 31.741 78.4432 27.5352 83.9661 27.5352H123.178C128.701 27.5352 133.162 31.741 133.162 36.9665V130.006Z" fill="url(#paint4_linear_34_29859)"/>
<path d="M133.162 130.006C133.162 135.232 128.701 139.438 123.178 139.438H83.9661C78.4432 139.438 73.9824 135.232 73.9824 130.006V37.0095C73.9824 31.784 78.4432 27.5781 83.9661 27.5781H123.178C128.701 27.5781 133.162 31.784 133.162 37.0095V130.006Z" fill="url(#paint5_linear_34_29859)"/>
<path d="M133.12 130.006C133.12 135.232 128.659 139.438 123.136 139.438H83.9661C78.4432 139.438 73.9824 135.232 73.9824 130.006V37.0095C73.9824 31.784 78.4432 27.5781 83.9661 27.5781H123.136C128.659 27.5781 133.12 31.784 133.12 37.0095V130.006Z" fill="url(#paint6_linear_34_29859)"/>
<path d="M133.077 129.964C133.077 135.189 128.616 139.395 123.136 139.395H84.0086C78.5282 139.395 74.0674 135.189 74.0674 129.964V37.0095C74.0674 31.784 78.5282 27.5781 84.0086 27.5781H123.136C128.616 27.5781 133.077 31.784 133.077 37.0095V129.964Z" fill="url(#paint7_linear_34_29859)"/>
<path d="M133.078 129.962C133.078 135.188 128.617 139.394 123.136 139.394H84.0515C78.5711 139.394 74.1104 135.188 74.1104 129.962V37.0505C74.1104 31.825 78.5711 27.6191 84.0515 27.6191H123.136C128.617 27.6191 133.078 31.825 133.078 37.0505V129.962Z" fill="url(#paint8_linear_34_29859)"/>
<path d="M133.035 129.92C133.035 135.103 128.574 139.351 123.094 139.351H84.0086C78.5282 139.351 74.0674 135.145 74.0674 129.92V37.0505C74.0674 31.8675 78.5282 27.6191 84.0086 27.6191H123.094C128.574 27.6191 133.035 31.825 133.035 37.0505V129.92Z" fill="url(#paint9_linear_34_29859)"/>
<path d="M132.992 129.92C132.992 135.103 128.531 139.351 123.051 139.351H84.0086C78.5282 139.351 74.0674 135.145 74.0674 129.92V37.0505C74.0674 31.8675 78.5282 27.6191 84.0086 27.6191H123.051C128.531 27.6191 132.992 31.825 132.992 37.0505V129.92Z" fill="url(#paint10_linear_34_29859)"/>
<path d="M132.993 129.92C132.993 135.103 128.532 139.351 123.052 139.351H84.0515C78.5711 139.351 74.1104 135.145 74.1104 129.92V37.0505C74.1104 31.8675 78.5711 27.6191 84.0515 27.6191H123.052C128.532 27.6191 132.993 31.825 132.993 37.0505V129.92Z" fill="url(#paint11_linear_34_29859)"/>
<path d="M132.95 129.878C132.95 135.061 128.489 139.309 123.009 139.309H84.0086C78.5282 139.309 74.0674 135.103 74.0674 129.878V37.0935C74.0674 31.9105 78.5282 27.6621 84.0086 27.6621H123.009C128.489 27.6621 132.95 31.868 132.95 37.0935V129.878Z" fill="url(#paint12_linear_34_29859)"/>
<path d="M132.95 129.878C132.95 135.061 128.532 139.31 123.052 139.31H84.094C78.6136 139.31 74.1953 135.104 74.1953 129.878V37.094C74.1953 31.911 78.6136 27.7051 84.094 27.7051H123.052C128.532 27.7051 132.95 31.911 132.95 37.094V129.878Z" fill="url(#paint13_linear_34_29859)"/>
<path d="M132.908 129.836C132.908 135.019 128.489 139.225 123.009 139.225H84.094C78.6136 139.225 74.1953 135.019 74.1953 129.836V37.094C74.1953 31.911 78.6136 27.7051 84.094 27.7051H123.009C128.489 27.7051 132.908 31.911 132.908 37.094V129.836Z" fill="url(#paint14_linear_34_29859)"/>
<path d="M132.865 129.836C132.865 135.019 128.446 139.225 122.966 139.225H84.051C78.5706 139.225 74.1523 135.019 74.1523 129.836V37.094C74.1523 31.911 78.5706 27.7051 84.051 27.7051H122.966C128.446 27.7051 132.865 31.911 132.865 37.094V129.836Z" fill="url(#paint15_linear_34_29859)"/>
<path d="M132.865 129.836C132.865 135.019 128.447 139.225 122.967 139.225H84.094C78.6136 139.225 74.1953 135.019 74.1953 129.836V37.1369C74.1953 31.9539 78.6136 27.748 84.094 27.748H122.967C128.447 27.748 132.865 31.9539 132.865 37.1369V129.836Z" fill="url(#paint16_linear_34_29859)"/>
<path d="M132.823 129.794C132.823 134.977 128.404 139.183 122.924 139.183H84.094C78.6561 139.183 74.1953 134.977 74.1953 129.794V37.1369C74.1953 31.9539 78.6136 27.748 84.094 27.748H122.924C128.362 27.748 132.823 31.9539 132.823 37.1369V129.794Z" fill="url(#paint17_linear_34_29859)"/>
<path d="M132.822 129.794C132.822 134.977 128.404 139.183 122.966 139.183H84.1785C78.7406 139.183 74.3223 134.977 74.3223 129.794V37.1369C74.3223 31.9539 78.7406 27.748 84.1785 27.748H122.966C128.404 27.748 132.822 31.9539 132.822 37.1369V129.794Z" fill="url(#paint18_linear_34_29859)"/>
<path d="M132.78 129.751C132.78 134.934 128.362 139.14 122.924 139.14H84.1365C78.6986 139.14 74.2803 134.934 74.2803 129.751V37.1369C74.2803 31.9539 78.6986 27.748 84.1365 27.748H122.924C128.362 27.748 132.78 31.9539 132.78 37.1369V129.751Z" fill="url(#paint19_linear_34_29859)"/>
<path d="M132.738 129.75C132.738 134.933 128.319 139.139 122.882 139.139H84.1365C78.6986 139.139 74.2803 134.933 74.2803 129.75V37.178C74.2803 31.9949 78.6986 27.7891 84.1365 27.7891H122.882C128.319 27.7891 132.738 31.9949 132.738 37.178V129.75Z" fill="url(#paint20_linear_34_29859)"/>
<path d="M132.737 129.75C132.737 134.933 128.319 139.139 122.881 139.139H84.1785C78.7406 139.139 74.3223 134.933 74.3223 129.75V37.178C74.3223 31.9949 78.7406 27.7891 84.1785 27.7891H122.881C128.319 27.7891 132.737 31.9949 132.737 37.178V129.75Z" fill="url(#paint21_linear_34_29859)"/>
<path d="M132.695 129.707C132.695 134.89 128.277 139.096 122.839 139.096H84.1365C78.6986 139.096 74.2803 134.89 74.2803 129.707V37.1779C74.2803 31.9949 78.6986 27.7891 84.1365 27.7891H122.839C128.277 27.7891 132.695 31.9949 132.695 37.1779V129.707Z" fill="url(#paint22_linear_34_29859)"/>
<path d="M132.695 129.708C132.695 134.891 128.277 139.097 122.839 139.097H84.1785C78.7406 139.097 74.3223 134.891 74.3223 129.708V37.2209C74.3223 32.0379 78.7406 27.832 84.1785 27.832H122.839C128.277 27.832 132.695 32.0379 132.695 37.2209V129.708Z" fill="url(#paint23_linear_34_29859)"/>
<path d="M132.652 129.708C132.652 134.891 128.234 139.097 122.839 139.097H84.221C78.7831 139.097 74.4073 134.891 74.4073 129.708V37.2209C74.4073 32.0379 78.8256 27.832 84.221 27.832H122.839C128.277 27.832 132.652 32.0379 132.652 37.2209V129.708Z" fill="url(#paint24_linear_34_29859)"/>
<path d="M132.61 129.665C132.61 134.848 128.192 139.054 122.796 139.054H84.221C78.7831 139.054 74.4073 134.848 74.4073 129.665V37.2209C74.4073 32.0379 78.8256 27.832 84.221 27.832H122.796C128.234 27.832 132.61 32.0379 132.61 37.2209V129.665Z" fill="url(#paint25_linear_34_29859)"/>
<path d="M132.61 129.665C132.61 134.848 128.234 139.054 122.796 139.054H84.221C78.7831 139.054 74.4073 134.848 74.4073 129.665V37.2209C74.4073 32.0379 78.7831 27.832 84.221 27.832H122.796C128.234 27.832 132.61 32.0379 132.61 37.2209V129.665Z" fill="url(#paint26_linear_34_29859)"/>
<path d="M132.567 129.623C132.567 134.806 128.192 139.012 122.754 139.012H84.221C78.8255 139.012 74.4072 134.806 74.4072 129.623V37.2639C74.4072 32.0809 78.783 27.875 84.221 27.875H122.754C128.149 27.875 132.567 32.0809 132.567 37.2639V129.623Z" fill="url(#paint27_linear_34_29859)"/>
<path d="M132.525 129.624C132.525 134.807 128.149 138.97 122.711 138.97H84.221C78.8255 138.97 74.4072 134.764 74.4072 129.624V37.2644C74.4072 32.0814 78.783 27.918 84.221 27.918H122.711C128.107 27.918 132.525 32.1239 132.525 37.2644V129.624Z" fill="url(#paint28_linear_34_29859)"/>
<path d="M132.525 129.624C132.525 134.807 128.149 138.97 122.754 138.97H84.2634C78.868 138.97 74.4922 134.764 74.4922 129.624V37.2644C74.4922 32.0814 78.868 27.918 84.2634 27.918H122.754C128.149 27.918 132.525 32.1239 132.525 37.2644V129.624Z" fill="url(#paint29_linear_34_29859)"/>
<path d="M132.482 129.58C132.482 134.763 128.107 138.926 122.711 138.926H84.2634C78.868 138.926 74.4922 134.72 74.4922 129.58V37.3054C74.4922 32.1224 78.868 27.959 84.2634 27.959H122.711C128.107 27.959 132.482 32.1649 132.482 37.3054V129.58Z" fill="url(#paint30_linear_34_29859)"/>
<path d="M132.483 129.58C132.483 134.763 128.107 138.926 122.712 138.926H84.3064C78.911 138.926 74.5352 134.72 74.5352 129.58V37.3054C74.5352 32.1224 78.911 27.959 84.3064 27.959H122.712C128.107 27.959 132.483 32.1649 132.483 37.3054V129.58Z" fill="url(#paint31_linear_34_29859)"/>
<path d="M136.858 70.4011C136.858 70.656 136.561 70.8684 136.221 70.8684C135.881 70.8684 135.584 70.656 135.584 70.4011V61.6919C135.584 61.437 135.881 61.2246 136.221 61.2246C136.561 61.2246 136.858 61.437 136.858 61.6919V70.4011Z" fill="white"/>
<path d="M136.9 70.4011C136.9 70.656 136.688 70.8684 136.391 70.8684C136.093 70.8684 135.881 70.656 135.881 70.4011V61.6919C135.881 61.437 136.093 61.2246 136.391 61.2246C136.688 61.2246 136.9 61.437 136.9 61.6919V70.4011Z" fill="url(#paint32_linear_34_29859)"/>
<path d="M136.858 55.7878C136.858 56.0427 136.561 56.2551 136.221 56.2551C135.881 56.2551 135.584 56.0427 135.584 55.7878V47.0786C135.584 46.8237 135.881 46.6113 136.221 46.6113C136.561 46.6113 136.858 46.8237 136.858 47.0786V55.7878Z" fill="white"/>
<path d="M136.9 55.7878C136.9 56.0427 136.688 56.2551 136.391 56.2551C136.093 56.2551 135.881 56.0427 135.881 55.7878V47.0786C135.881 46.8237 136.093 46.6113 136.391 46.6113C136.688 46.6113 136.9 46.8237 136.9 47.0786V55.7878Z" fill="url(#paint33_linear_34_29859)"/>
<path d="M109.949 112.374C109.949 120.927 101.439 127.847 90.9522 127.847C80.4651 127.847 71.9551 120.927 71.9551 112.374V107.475C71.9551 98.9217 80.4651 92.002 90.9522 92.002C101.439 92.002 109.949 98.9217 109.949 107.475V112.374Z" fill="url(#paint34_radial_34_29859)"/>
<path d="M82.6145 101.199C82.6145 101.199 89.9641 99.2219 100.365 101.199L101.354 104.637C101.354 104.637 91.5113 103.563 81.7119 104.637L82.6145 101.199Z" fill="url(#paint35_linear_34_29859)"/>
<path d="M79.2189 100.984L78.1873 104.681C78.1873 104.681 77.3277 104.681 75.4796 105.282C75.4366 105.282 75.1787 102.704 79.2189 100.984Z" fill="url(#paint36_linear_34_29859)"/>
<path d="M116.911 79.4509C116.911 91.2704 107.327 100.855 95.5073 100.855H85.2351C73.4156 100.855 63.8311 91.2704 63.8311 79.4509C63.8311 67.6314 73.4156 58.0469 85.2351 58.0469H95.5073C107.327 58.0899 116.911 67.6744 116.911 79.4509Z" fill="url(#paint37_radial_34_29859)"/>
<path d="M72.5134 64.1934L72.7713 66.2994C72.7713 66.2994 70.7942 66.9011 69.4619 68.4054C69.5048 68.4054 69.2899 65.9126 72.5134 64.1934Z" fill="url(#paint38_linear_34_29859)"/>
<path d="M79.2188 61.5285C79.2188 61.5285 81.3248 60.1102 84.5483 60.411H95.6801C95.6801 60.411 99.1185 60.8408 99.8921 62.1302L79.2188 61.5285Z" fill="url(#paint39_linear_34_29859)"/>
<path d="M108.789 78.5914C108.789 81.9869 106.038 84.7376 102.643 84.7376H78.1012C74.7058 84.7376 71.9551 81.9869 71.9551 78.5914C71.9551 75.196 74.7058 72.4453 78.1012 72.4453H102.643C106.038 72.4453 108.789 75.196 108.789 78.5914Z" fill="url(#paint40_radial_34_29859)"/>
<path d="M84.634 78.7643C84.634 80.0967 83.5595 81.1282 82.2701 81.1282C80.9378 81.1282 79.9062 80.0537 79.9062 78.7643C79.9062 77.4319 80.9807 76.4004 82.2701 76.4004C83.5595 76.4004 84.634 77.4749 84.634 78.7643Z" fill="#27A3FF"/>
<path d="M100.107 78.7643C100.107 80.0967 99.0322 81.1282 97.7428 81.1282C96.4104 81.1282 95.3789 80.0537 95.3789 78.7643C95.3789 77.4319 96.4534 76.4004 97.7428 76.4004C99.0322 76.4004 100.107 77.4749 100.107 78.7643Z" fill="#27A3FF"/>
<path d="M90.9515 52.502H89.877V58.0464H90.9515V52.502Z" fill="url(#paint41_linear_34_29859)"/>
<path d="M92.2842 50.9985C92.2842 52.073 91.4246 52.8897 90.3931 52.8897C89.3186 52.8897 88.502 52.0301 88.502 50.9985C88.502 49.924 89.3615 49.1074 90.3931 49.1074C91.4676 49.1074 92.2842 49.924 92.2842 50.9985Z" fill="#27A3FF"/>
<path d="M116.438 70.7695H117.986C117.986 70.7695 119.963 73.6922 119.705 79.8813C119.705 79.8813 119.791 85.4257 118.072 88.1764H116.481L116.438 70.7695Z" fill="url(#paint42_linear_34_29859)"/>
<path d="M115.064 70.7695H116.611C116.611 70.7695 118.588 73.6922 118.33 79.8813C118.33 79.8813 118.416 85.4257 116.697 88.1764H115.107L115.064 70.7695Z" fill="url(#paint43_linear_34_29859)"/>
<path d="M64.5192 70.7695H62.9719C62.9719 70.7695 60.9948 73.6922 61.2527 79.8813C61.2527 79.8813 61.1667 85.4257 62.8859 88.1764H64.4762L64.5192 70.7695Z" fill="url(#paint44_linear_34_29859)"/>
<path d="M65.8512 70.7695H64.3039C64.3039 70.7695 62.3268 73.6922 62.5847 79.8813C62.5847 79.8813 62.4988 85.4257 64.218 88.1764H65.8082L65.8512 70.7695Z" fill="url(#paint45_linear_34_29859)"/>
<path d="M74.1038 99.8236C72.5136 98.3623 67.5709 101.156 63.015 106.056C58.4591 110.955 56.0523 116.113 57.6425 117.574C59.2328 119.036 64.1755 116.242 68.7313 111.342C73.2442 106.443 75.6511 101.285 74.1038 99.8236Z" fill="url(#paint46_linear_34_29859)"/>
<path d="M128.559 89.1217C127.356 87.3595 121.897 88.9497 116.353 92.732C110.809 96.4712 107.327 100.984 108.531 102.746C109.734 104.508 115.193 102.918 120.737 99.136C126.238 95.3967 129.763 90.8838 128.559 89.1217Z" fill="url(#paint47_linear_34_29859)"/>
<path d="M129.805 91.7436C129.547 91.7436 129.247 91.7006 128.989 91.6576C127.914 91.4427 127.055 90.841 126.496 89.9384C125.98 89.0358 125.851 87.9613 126.152 86.9298C126.453 85.9413 127.141 85.0817 128.043 84.5229C128.946 83.9642 129.977 83.7923 131.009 83.9642L130.579 86.2421C130.149 86.1562 129.633 86.2421 129.247 86.5C128.817 86.7579 128.516 87.1447 128.387 87.5745C128.258 87.9613 128.301 88.3911 128.516 88.735C128.731 89.0788 129.075 89.2937 129.461 89.3797C129.934 89.4656 130.407 89.3797 130.837 89.1218C131.396 88.778 131.739 88.2192 131.782 87.6175L134.103 87.7035C134.06 89.0788 133.287 90.3682 132.04 91.0989C131.31 91.5287 130.536 91.7436 129.805 91.7436Z" fill="url(#paint48_linear_34_29859)"/>
<path opacity="0.7" d="M111.285 84.2931H153.641C156.742 84.2931 159.249 81.7866 159.249 78.6853V48.6918C159.249 45.5905 156.742 43.084 153.641 43.084H111.285C108.183 43.084 105.677 45.5905 105.677 48.6918V78.6853C105.677 81.7866 108.183 84.2931 111.285 84.2931Z" fill="#B8D5FF"/>
<path d="M153.64 84.591H111.284C108.013 84.591 105.379 81.957 105.379 78.6858V48.6923C105.379 45.4211 108.013 42.7871 111.284 42.7871H153.64C156.912 42.7871 159.546 45.4211 159.546 48.6923V78.6858C159.588 81.957 156.912 84.591 153.64 84.591ZM111.284 43.3819C108.353 43.3819 105.974 45.761 105.974 48.6923V78.6858C105.974 81.6172 108.353 83.9963 111.284 83.9963H153.64C156.572 83.9963 158.951 81.6172 158.951 78.6858V48.6923C158.951 45.761 156.572 43.3819 153.64 43.3819H111.284Z" fill="url(#paint49_linear_34_29859)"/>
<path d="M118.846 54.8105H115.702V76.3498H118.846V54.8105Z" fill="#B3FFF8"/>
<path d="M126.62 64.793H123.477V76.3485H126.62V64.793Z" fill="#B3FFF8"/>
<path d="M134.353 57.9961H131.209V76.349H134.353V57.9961Z" fill="#B3FFF8"/>
<path d="M142.127 61.6074H138.983V76.3493H142.127V61.6074Z" fill="#B3FFF8"/>
<path d="M149.902 68.957H146.758V76.3492H149.902V68.957Z" fill="#B3FFF8"/>
<path d="M149.689 63.9449L134.352 51.3272L125.643 57.2325L117.062 50.5625L117.444 50.0527L125.643 56.4253L134.395 50.5201L150.114 63.4351L149.689 63.9449Z" fill="#B3FFF8"/>
<defs>
<filter id="filter0_d_34_29859" x="3.44067" y="19" width="78" height="132.316" filterUnits="userSpaceOnUse" color-interpolation-filters="sRGB">
<feFlood flood-opacity="0" result="BackgroundImageFix"/>
<feColorMatrix in="SourceAlpha" type="matrix" values="0 0 0 0 0 0 0 0 0 0 0 0 0 0 0 0 0 0 127 0" result="hardAlpha"/>
<feOffset dy="4"/>
<feGaussianBlur stdDeviation="2"/>
<feComposite in2="hardAlpha" operator="out"/>
<feColorMatrix type="matrix" values="0 0 0 0 0 0 0 0 0 0 0 0 0 0 0 0 0 0 0.25 0"/>
<feBlend mode="normal" in2="BackgroundImageFix" result="effect1_dropShadow_34_29859"/>
<feBlend mode="normal" in="SourceGraphic" in2="effect1_dropShadow_34_29859" result="shape"/>
</filter>
<radialGradient id="paint0_radial_34_29859" cx="0" cy="0" r="1" gradientUnits="userSpaceOnUse" gradientTransform="translate(105.638 83.7512) scale(46.8088 46.8088)">
<stop stop-color="#F1F1F5"/>
<stop offset="0.551" stop-color="#E4E2EC"/>
<stop offset="1" stop-color="#CFCFDE"/>
</radialGradient>
<linearGradient id="paint1_linear_34_29859" x1="133.805" y1="83.512" x2="70.7099" y2="83.512" gradientUnits="userSpaceOnUse">
<stop stop-color="#1864B1"/>
<stop offset="1" stop-color="#1863B1"/>
</linearGradient>
<linearGradient id="paint2_linear_34_29859" x1="133.779" y1="83.5099" x2="70.7317" y2="83.5099" gradientUnits="userSpaceOnUse">
<stop stop-color="#1B66B4"/>
<stop offset="1" stop-color="#1B63B4"/>
</linearGradient>
<linearGradient id="paint3_linear_34_29859" x1="133.752" y1="83.5072" x2="70.7527" y2="83.5072" gradientUnits="userSpaceOnUse">
<stop stop-color="#1E68B6"/>
<stop offset="1" stop-color="#1E64B6"/>
</linearGradient>
<linearGradient id="paint4_linear_34_29859" x1="133.726" y1="83.5047" x2="70.7747" y2="83.5047" gradientUnits="userSpaceOnUse">
<stop stop-color="#216BB9"/>
<stop offset="1" stop-color="#2164B9"/>
</linearGradient>
<linearGradient id="paint5_linear_34_29859" x1="133.699" y1="83.5028" x2="70.7966" y2="83.5028" gradientUnits="userSpaceOnUse">
<stop stop-color="#246DBB"/>
<stop offset="1" stop-color="#2465BB"/>
</linearGradient>
<linearGradient id="paint6_linear_34_29859" x1="133.673" y1="83.5002" x2="70.8186" y2="83.5002" gradientUnits="userSpaceOnUse">
<stop stop-color="#276FBE"/>
<stop offset="1" stop-color="#2766BE"/>
</linearGradient>
<linearGradient id="paint7_linear_34_29859" x1="133.646" y1="83.4975" x2="70.8401" y2="83.4975" gradientUnits="userSpaceOnUse">
<stop stop-color="#2A71C0"/>
<stop offset="1" stop-color="#2A66C0"/>
</linearGradient>
<linearGradient id="paint8_linear_34_29859" x1="133.62" y1="83.4936" x2="70.8621" y2="83.4936" gradientUnits="userSpaceOnUse">
<stop stop-color="#2D73C3"/>
<stop offset="1" stop-color="#2D67C3"/>
</linearGradient>
<linearGradient id="paint9_linear_34_29859" x1="133.594" y1="83.4913" x2="70.884" y2="83.4913" gradientUnits="userSpaceOnUse">
<stop stop-color="#3075C5"/>
<stop offset="1" stop-color="#3068C5"/>
</linearGradient>
<linearGradient id="paint10_linear_34_29859" x1="133.567" y1="83.4884" x2="70.9055" y2="83.4884" gradientUnits="userSpaceOnUse">
<stop stop-color="#3377C8"/>
<stop offset="1" stop-color="#3368C8"/>
</linearGradient>
<linearGradient id="paint11_linear_34_29859" x1="133.541" y1="83.486" x2="70.9276" y2="83.486" gradientUnits="userSpaceOnUse">
<stop stop-color="#3679CA"/>
<stop offset="1" stop-color="#3669CA"/>
</linearGradient>
<linearGradient id="paint12_linear_34_29859" x1="133.515" y1="83.4838" x2="70.949" y2="83.4838" gradientUnits="userSpaceOnUse">
<stop stop-color="#397CCD"/>
<stop offset="1" stop-color="#3969CD"/>
</linearGradient>
<linearGradient id="paint13_linear_34_29859" x1="133.489" y1="83.4819" x2="70.9714" y2="83.4819" gradientUnits="userSpaceOnUse">
<stop stop-color="#3C7ECF"/>
<stop offset="1" stop-color="#3C6ACF"/>
</linearGradient>
<linearGradient id="paint14_linear_34_29859" x1="133.462" y1="83.4794" x2="70.993" y2="83.4794" gradientUnits="userSpaceOnUse">
<stop stop-color="#3F80D2"/>
<stop offset="1" stop-color="#3F6BD2"/>
</linearGradient>
<linearGradient id="paint15_linear_34_29859" x1="133.435" y1="83.4767" x2="71.0141" y2="83.4767" gradientUnits="userSpaceOnUse">
<stop stop-color="#4282D4"/>
<stop offset="1" stop-color="#426BD4"/>
</linearGradient>
<linearGradient id="paint16_linear_34_29859" x1="133.41" y1="83.4747" x2="71.0365" y2="83.4747" gradientUnits="userSpaceOnUse">
<stop stop-color="#4584D7"/>
<stop offset="1" stop-color="#456CD7"/>
</linearGradient>
<linearGradient id="paint17_linear_34_29859" x1="133.383" y1="83.4722" x2="71.0584" y2="83.4722" gradientUnits="userSpaceOnUse">
<stop stop-color="#4886D9"/>
<stop offset="1" stop-color="#486CD9"/>
</linearGradient>
<linearGradient id="paint18_linear_34_29859" x1="133.356" y1="83.4695" x2="71.08" y2="83.4695" gradientUnits="userSpaceOnUse">
<stop stop-color="#4B88DC"/>
<stop offset="1" stop-color="#4B6DDC"/>
</linearGradient>
<linearGradient id="paint19_linear_34_29859" x1="133.33" y1="83.467" x2="71.1019" y2="83.467" gradientUnits="userSpaceOnUse">
<stop stop-color="#4E8ADE"/>
<stop offset="1" stop-color="#4E6EDE"/>
</linearGradient>
<linearGradient id="paint20_linear_34_29859" x1="133.304" y1="83.463" x2="71.1239" y2="83.463" gradientUnits="userSpaceOnUse">
<stop stop-color="#518DE1"/>
<stop offset="1" stop-color="#516EE1"/>
</linearGradient>
<linearGradient id="paint21_linear_34_29859" x1="133.277" y1="83.4606" x2="71.1449" y2="83.4606" gradientUnits="userSpaceOnUse">
<stop stop-color="#548FE3"/>
<stop offset="1" stop-color="#546FE3"/>
</linearGradient>
<linearGradient id="paint22_linear_34_29859" x1="133.251" y1="83.4578" x2="71.1674" y2="83.4578" gradientUnits="userSpaceOnUse">
<stop stop-color="#5791E6"/>
<stop offset="1" stop-color="#576FE6"/>
</linearGradient>
<linearGradient id="paint23_linear_34_29859" x1="133.224" y1="83.4559" x2="71.1889" y2="83.4559" gradientUnits="userSpaceOnUse">
<stop stop-color="#5A93E8"/>
<stop offset="1" stop-color="#5A70E8"/>
</linearGradient>
<linearGradient id="paint24_linear_34_29859" x1="133.198" y1="83.4534" x2="71.2104" y2="83.4534" gradientUnits="userSpaceOnUse">
<stop stop-color="#5D95EB"/>
<stop offset="1" stop-color="#5D71EB"/>
</linearGradient>
<linearGradient id="paint25_linear_34_29859" x1="133.172" y1="83.4507" x2="71.2324" y2="83.4507" gradientUnits="userSpaceOnUse">
<stop stop-color="#6097ED"/>
<stop offset="1" stop-color="#6071ED"/>
</linearGradient>
<linearGradient id="paint26_linear_34_29859" x1="133.145" y1="83.4482" x2="71.2539" y2="83.4482" gradientUnits="userSpaceOnUse">
<stop stop-color="#6399F0"/>
<stop offset="1" stop-color="#6372F0"/>
</linearGradient>
<linearGradient id="paint27_linear_34_29859" x1="133.119" y1="83.4462" x2="71.2758" y2="83.4462" gradientUnits="userSpaceOnUse">
<stop stop-color="#669BF2"/>
<stop offset="1" stop-color="#6673F2"/>
</linearGradient>
<linearGradient id="paint28_linear_34_29859" x1="133.092" y1="83.444" x2="71.2973" y2="83.444" gradientUnits="userSpaceOnUse">
<stop stop-color="#699EF5"/>
<stop offset="1" stop-color="#6973F5"/>
</linearGradient>
<linearGradient id="paint29_linear_34_29859" x1="133.066" y1="83.4416" x2="71.3193" y2="83.4416" gradientUnits="userSpaceOnUse">
<stop stop-color="#6CA0F7"/>
<stop offset="1" stop-color="#6C74F7"/>
</linearGradient>
<linearGradient id="paint30_linear_34_29859" x1="133.04" y1="83.4375" x2="71.3408" y2="83.4375" gradientUnits="userSpaceOnUse">
<stop stop-color="#6FA2FA"/>
<stop offset="1" stop-color="#6F74FA"/>
</linearGradient>
<linearGradient id="paint31_linear_34_29859" x1="133.014" y1="83.4349" x2="71.3633" y2="83.4349" gradientUnits="userSpaceOnUse">
<stop stop-color="#72A4FC"/>
<stop offset="1" stop-color="#7275FC"/>
</linearGradient>
<linearGradient id="paint32_linear_34_29859" x1="135.892" y1="66.0483" x2="136.901" y2="66.0483" gradientUnits="userSpaceOnUse">
<stop offset="0.3312" stop-color="#C3C0D8"/>
<stop offset="1" stop-color="#A9A7B7"/>
</linearGradient>
<linearGradient id="paint33_linear_34_29859" x1="135.892" y1="51.4511" x2="136.901" y2="51.4511" gradientUnits="userSpaceOnUse">
<stop offset="0.3312" stop-color="#C3C0D8"/>
<stop offset="1" stop-color="#A9A7B7"/>
</linearGradient>
<radialGradient id="paint34_radial_34_29859" cx="0" cy="0" r="1" gradientUnits="userSpaceOnUse" gradientTransform="translate(90.9342 109.909) scale(20.5552 16.7463)">
<stop stop-color="#F1F1F5"/>
<stop offset="0.551" stop-color="#E4E2EC"/>
<stop offset="1" stop-color="#CFCFDE"/>
</radialGradient>
<linearGradient id="paint35_linear_34_29859" x1="81.7438" y1="102.508" x2="101.394" y2="102.508" gradientUnits="userSpaceOnUse">
<stop stop-color="white"/>
<stop offset="1"/>
</linearGradient>
<linearGradient id="paint36_linear_34_29859" x1="75.4337" y1="103.127" x2="80.6355" y2="103.127" gradientUnits="userSpaceOnUse">
<stop stop-color="white"/>
<stop offset="1"/>
</linearGradient>
<radialGradient id="paint37_radial_34_29859" cx="0" cy="0" r="1" gradientUnits="userSpaceOnUse" gradientTransform="translate(90.3961 79.4668) scale(24.0908 24.0908)">
<stop stop-color="#F1F1F5"/>
<stop offset="0.551" stop-color="#E4E2EC"/>
<stop offset="1" stop-color="#CFCFDE"/>
</radialGradient>
<linearGradient id="paint38_linear_34_29859" x1="69.5055" y1="66.3104" x2="74.0534" y2="66.3104" gradientUnits="userSpaceOnUse">
<stop stop-color="white"/>
<stop offset="1"/>
</linearGradient>
<linearGradient id="paint39_linear_34_29859" x1="79.2108" y1="61.2602" x2="107.681" y2="61.2602" gradientUnits="userSpaceOnUse">
<stop stop-color="white"/>
<stop offset="1"/>
</linearGradient>
<radialGradient id="paint40_radial_34_29859" cx="0" cy="0" r="1" gradientUnits="userSpaceOnUse" gradientTransform="translate(90.3969 78.5925) scale(13.7092 12.7386)">
<stop stop-color="#3E3C44"/>
<stop offset="0.551" stop-color="#242327"/>
<stop offset="1" stop-color="#040100"/>
</radialGradient>
<linearGradient id="paint41_linear_34_29859" x1="89.8585" y1="55.3002" x2="90.933" y2="55.3002" gradientUnits="userSpaceOnUse">
<stop stop-color="#F1F1F5"/>
<stop offset="0.551" stop-color="#E4E2EC"/>
<stop offset="1" stop-color="#CFCFDE"/>
</linearGradient>
<linearGradient id="paint42_linear_34_29859" x1="118.073" y1="71.1284" x2="118.073" y2="87.5192" gradientUnits="userSpaceOnUse">
<stop stop-color="#F1F1F5"/>
<stop offset="0.5153" stop-color="#D5CFD9"/>
<stop offset="1" stop-color="#BBBBCA"/>
</linearGradient>
<linearGradient id="paint43_linear_34_29859" x1="116.723" y1="70.844" x2="116.723" y2="88.6121" gradientUnits="userSpaceOnUse">
<stop stop-color="#9DA1AF"/>
<stop offset="0.1378" stop-color="#ACB1C5"/>
<stop offset="0.2347" stop-color="#D7DBE7"/>
<stop offset="0.4133" stop-color="#9399B0"/>
<stop offset="0.6318" stop-color="#686D84"/>
<stop offset="1" stop-color="#41434F"/>
</linearGradient>
<linearGradient id="paint44_linear_34_29859" x1="62.8589" y1="71.1284" x2="62.8589" y2="87.5192" gradientUnits="userSpaceOnUse">
<stop stop-color="#F1F1F5"/>
<stop offset="0.5153" stop-color="#D5CFD9"/>
<stop offset="1" stop-color="#BBBBCA"/>
</linearGradient>
<linearGradient id="paint45_linear_34_29859" x1="64.2095" y1="70.844" x2="64.2095" y2="88.6121" gradientUnits="userSpaceOnUse">
<stop stop-color="#9DA1AF"/>
<stop offset="0.1378" stop-color="#ACB1C5"/>
<stop offset="0.2347" stop-color="#D7DBE7"/>
<stop offset="0.4133" stop-color="#9399B0"/>
<stop offset="0.6318" stop-color="#686D84"/>
<stop offset="1" stop-color="#41434F"/>
</linearGradient>
<linearGradient id="paint46_linear_34_29859" x1="63.1748" y1="106.466" x2="68.6976" y2="111.065" gradientUnits="userSpaceOnUse">
<stop stop-color="#F1F1F5"/>
<stop offset="0.551" stop-color="#E4E2EC"/>
<stop offset="1" stop-color="#CFCFDE"/>
</linearGradient>
<linearGradient id="paint47_linear_34_29859" x1="116.431" y1="93.1606" x2="120.787" y2="98.8766" gradientUnits="userSpaceOnUse">
<stop stop-color="#F1F1F5"/>
<stop offset="0.551" stop-color="#E4E2EC"/>
<stop offset="1" stop-color="#CFCFDE"/>
</linearGradient>
<linearGradient id="paint48_linear_34_29859" x1="130.058" y1="87.7239" x2="131.86" y2="81.4915" gradientUnits="userSpaceOnUse">
<stop stop-color="#9DA1AF"/>
<stop offset="0.2347" stop-color="#CFD1E3"/>
<stop offset="0.6318" stop-color="#686D84"/>
<stop offset="1" stop-color="#41434F"/>
</linearGradient>
<linearGradient id="paint49_linear_34_29859" x1="158.292" y1="63.6884" x2="103.771" y2="63.6884" gradientUnits="userSpaceOnUse">
<stop stop-color="#AAA5D9"/>
<stop offset="1" stop-color="white"/>
</linearGradient>
<clipPath id="clip0_34_29859">
<rect width="56.4211" height="103.579" fill="white" transform="translate(20.0723 29.5264)"/>
</clipPath>
<clipPath id="clip1_34_29859">
<rect width="31.5789" height="31.5789" fill="white" transform="translate(33.546 88.0527)"/>
</clipPath>
</defs>
</svg>
