<svg width="96" height="100" viewBox="0 0 96 100" fill="none" xmlns="http://www.w3.org/2000/svg">
<path d="M74.1938 54.8179C69.2708 54.915 57.9833 55.1417 57.9671 54.2996C57.9671 53.9596 57.4489 53.9596 57.4489 54.2996C57.3841 54.5911 57.3193 54.8826 57.2546 55.1741C57.0602 55.5466 57.3032 55.9515 57.708 55.9677C63.1655 56.2915 68.704 56.162 74.1777 56.081C74.4692 57.5871 75.8295 58.8826 77.4327 58.8017C77.5784 58.8017 77.708 58.8017 77.8376 58.7855C79.6351 58.7045 81.1412 57.3442 81.1412 55.4818C81.1412 53.6195 79.6351 52.2592 77.8376 52.1782C77.6918 52.1782 77.5623 52.1782 77.4327 52.162C75.8618 52.0972 74.5177 53.328 74.1938 54.8017V54.8179Z" fill="#65A8DF"/>
<path d="M80.0561 66.1215C75.133 66.2186 63.8455 66.4453 63.8293 65.6032C63.8293 65.2631 63.3111 65.2631 63.3111 65.6032C63.2463 65.8947 63.1815 66.1862 63.1168 66.4777C62.9224 66.8502 63.1653 67.255 63.5702 67.2712C69.0277 67.5951 74.5662 67.4656 80.0399 67.3846C80.3313 68.8907 81.6917 70.1862 83.3111 70.1052C83.4406 70.1052 83.5864 70.1053 83.7159 70.0891C85.5135 70.0081 87.0196 68.6478 87.0196 66.7854C87.0196 64.9231 85.5135 63.5627 83.7159 63.4818C83.5702 63.4818 83.4406 63.4818 83.3111 63.4656C81.7402 63.4008 80.3961 64.6316 80.0722 66.1052L80.0561 66.1215Z" fill="#65A8DF"/>
<path d="M87.6837 46.1216C81.8375 46.235 68.4448 46.5103 68.4286 45.5062C68.4286 45.1176 67.8295 45.1176 67.8133 45.5062C67.7323 45.8463 67.6513 46.2026 67.5865 46.5427C67.3598 46.9799 67.6351 47.4495 68.1209 47.4819C74.5824 47.8544 81.1574 47.7086 87.6675 47.6277C88.0076 49.4252 89.6432 50.9475 91.5379 50.8665C91.6999 50.8665 91.8618 50.8665 92.0238 50.8504C94.1614 50.7532 95.9428 49.1337 95.9428 46.9313C95.9428 44.7289 94.1452 43.1095 92.0238 43.0123C91.8618 43.0123 91.6999 43.0123 91.5379 42.9961C89.6756 42.9151 88.0724 44.3888 87.6999 46.1378L87.6837 46.1216Z" fill="#65A8DF"/>
<path d="M80.9956 36.1295C75.1494 36.2429 61.7567 36.5182 61.7405 35.5142C61.7405 35.1255 61.1413 35.1255 61.1251 35.5142C61.0442 35.8542 60.9632 36.2105 60.8984 36.5506C60.6717 36.9878 60.947 37.4575 61.4328 37.4899C67.8944 37.8623 74.4692 37.7166 80.9794 37.6356C81.3194 39.4332 82.9551 40.9555 84.8498 40.8745C85.0118 40.8745 85.1737 40.8745 85.3356 40.8583C87.4733 40.7611 89.2547 39.1417 89.2547 36.9393C89.2547 34.7368 87.4571 33.1174 85.3356 33.0202C85.1737 33.0202 85.0118 33.0202 84.8498 33.004C82.9875 32.9231 81.3842 34.3968 81.0118 36.1457L80.9956 36.1295Z" fill="#65A8DF"/>
<path d="M32.0237 86.2511C31.9104 80.583 31.6675 67.6438 32.6391 67.6276C33.0278 67.6276 33.0278 67.0446 32.6391 67.0284C32.299 66.9474 31.9751 66.8826 31.635 66.8017C31.214 66.5911 30.7443 66.8502 30.7281 67.3199C30.3557 73.5871 30.5015 79.9353 30.5662 86.2187C28.8335 86.5588 27.3436 88.1134 27.4245 89.9596C27.4245 90.1215 27.4245 90.2673 27.4407 90.4292C27.5379 92.4859 29.0925 94.2187 31.2302 94.2187C33.3678 94.2187 34.9225 92.4859 35.0197 90.4292C35.0197 90.2673 35.0197 90.1053 35.0358 89.9596C35.1168 88.162 33.6917 86.6073 32.0075 86.2349L32.0237 86.2511Z" fill="#65A8DF"/>
<path d="M40.9795 76.2914C40.8823 71.2712 40.6717 59.8056 41.5139 59.7894C41.8539 59.7894 41.8539 59.2712 41.5139 59.2712C41.2224 59.2064 40.9147 59.1416 40.6232 59.0769C40.2507 58.8825 39.8459 59.1255 39.8135 59.5465C39.4896 65.085 39.6029 70.7206 39.6677 76.2914C38.1293 76.5829 36.8175 77.9757 36.8985 79.6113C36.8985 79.757 36.8985 79.8866 36.9147 80.0323C36.9956 81.8623 38.3722 83.3846 40.2669 83.3846C42.1616 83.3846 43.5382 81.8623 43.6191 80.0323C43.6191 79.8866 43.6191 79.757 43.6353 79.6113C43.7163 78.008 42.4531 76.6477 40.947 76.3076L40.9795 76.2914Z" fill="#65A8DF"/>
<path d="M50.971 92.0324C50.8576 86.3644 50.6147 73.4252 51.5864 73.409C51.975 73.409 51.975 72.826 51.5864 72.8098C51.2463 72.7288 50.9224 72.664 50.5823 72.583C50.1613 72.3725 49.6917 72.6316 49.6755 73.1013C49.303 79.3685 49.4487 85.7167 49.5135 92.0001C47.7807 92.3401 46.2908 93.8948 46.3718 95.7409C46.3718 95.9029 46.3718 96.0486 46.388 96.2106C46.4852 98.2673 48.0398 100 50.1775 100C52.3151 100 53.8698 98.2673 53.967 96.2106C53.967 96.0486 53.967 95.8867 53.9832 95.7409C54.0641 93.9434 52.639 92.3887 50.9548 92.0162L50.971 92.0324Z" fill="#65A8DF"/>
<path d="M32.8174 17.085C32.704 23.2713 32.4287 37.4251 33.4813 37.4413C33.9024 37.4413 33.9024 38.0891 33.4813 38.0891C33.1089 38.17 32.7526 38.251 32.3801 38.332C31.9267 38.5749 31.4085 38.2672 31.3761 37.7652C30.9712 30.9312 31.117 23.9838 31.1979 17.1012C29.3032 16.7287 27.6838 15.0283 27.7648 13.0041C27.7648 12.8259 27.7648 12.664 27.781 12.4858C27.8781 10.2348 29.5947 8.34009 31.9267 8.34009C34.2587 8.34009 35.9753 10.2348 36.0725 12.4858C36.0725 12.664 36.0724 12.8259 36.0886 13.0041C36.1858 14.9798 34.6149 16.664 32.7688 17.0688L32.8174 17.085Z" fill="#65A8DF"/>
<path d="M43.2141 23.0607C43.1008 29.1336 42.8417 43.0283 43.8619 43.0445C44.2668 43.0445 44.2668 43.6761 43.8619 43.6761C43.5056 43.7571 43.1494 43.838 42.7931 43.919C42.3396 44.1457 41.8376 43.8704 41.8214 43.3522C41.4165 36.6315 41.5785 29.8137 41.6595 23.0769C39.7971 22.7206 38.2101 21.0364 38.2911 19.0607C38.2911 18.8988 38.2911 18.7206 38.3073 18.5587C38.4044 16.3401 40.0886 14.4939 42.372 14.4939C44.6554 14.4939 46.3396 16.3401 46.4368 18.5587C46.4368 18.7206 46.4368 18.8988 46.453 19.0607C46.534 21.004 45.0117 22.6558 43.1979 23.0607H43.2141Z" fill="#65A8DF"/>
<path d="M50.3235 8.74494C50.2101 14.9312 49.9348 29.085 50.9875 29.1012C51.4085 29.1012 51.4085 29.749 50.9875 29.749C50.615 29.83 50.2587 29.9109 49.8863 29.9919C49.4328 30.2348 48.9146 29.9271 48.8822 29.4251C48.4774 22.5911 48.6231 15.6437 48.704 8.76113C46.8093 8.38866 45.1899 6.68825 45.2709 4.66396C45.2709 4.48583 45.2709 4.32388 45.2871 4.14575C45.3842 1.89473 47.1008 0 49.4328 0C51.7648 0 53.4814 1.89473 53.5786 4.14575C53.5786 4.32388 53.5786 4.48583 53.5948 4.66396C53.6919 6.63967 52.1211 8.32389 50.2749 8.72874L50.3235 8.74494Z" fill="#65A8DF"/>
<path d="M61.8214 22.7045C61.7404 27.2551 61.5461 37.6843 62.3072 37.7004C62.6149 37.7004 62.6149 38.1701 62.3072 38.1701C62.0319 38.2349 61.7728 38.2996 61.4975 38.3482C61.1574 38.5264 60.7849 38.2996 60.7688 37.9272C60.4611 32.8907 60.5744 27.7733 60.6392 22.7045C59.2465 22.4292 58.0481 21.1822 58.1129 19.6923C58.1129 19.5628 58.1129 19.4332 58.1291 19.3037C58.21 17.6357 59.457 16.2592 61.1736 16.2592C62.8902 16.2592 64.1534 17.6519 64.2182 19.3037C64.2182 19.4332 64.2181 19.5628 64.2343 19.6923C64.2991 21.1498 63.1493 22.3806 61.789 22.6883L61.8214 22.7045Z" fill="#65A8DF"/>
<path d="M17.6107 34.8016C21.7727 34.6235 31.2949 34.2024 31.3273 34.915C31.3273 35.1903 31.7645 35.1903 31.7645 34.915C31.8131 34.6721 31.8617 34.4291 31.9103 34.17C32.056 33.8623 31.8617 33.5223 31.5054 33.5061C26.89 33.3441 22.2261 33.5708 17.5945 33.7328C17.3192 32.4696 16.137 31.4008 14.7767 31.498C14.6633 31.498 14.55 31.5142 14.4366 31.5304C12.9143 31.6437 11.6836 32.8097 11.716 34.3968C11.7483 35.9676 13.0601 37.085 14.5823 37.1174C14.6957 37.1174 14.8091 37.1174 14.9386 37.1174C16.2665 37.1498 17.384 36.0648 17.6269 34.8178L17.6107 34.8016Z" fill="#65A8DF"/>
<path d="M61.449 82.4455C61.3194 78.5912 60.9956 69.7977 61.6595 69.7653C61.9186 69.7653 61.9186 69.3604 61.6595 69.3604C61.4328 69.3118 61.2061 69.2633 60.9794 69.2147C60.6879 69.0689 60.3802 69.2633 60.364 69.5871C60.1859 73.8463 60.3478 78.1701 60.4612 82.4455C59.279 82.6884 58.2911 83.7734 58.3721 85.0203C58.3721 85.1337 58.3721 85.2309 58.3883 85.3442C58.4693 86.7531 59.5543 87.9029 61.0118 87.8867C62.4693 87.8706 63.5057 86.6722 63.5543 85.2633C63.5543 85.1499 63.5543 85.0527 63.5543 84.9394C63.5867 83.7086 62.5988 82.6722 61.449 82.4455Z" fill="#65A8DF"/>
<path d="M10.0805 67.3037C14.2425 67.1255 23.7647 66.7045 23.7971 67.417C23.7971 67.6924 24.2344 67.6924 24.2344 67.417C24.283 67.1741 24.3316 66.915 24.3801 66.6721C24.5259 66.3644 24.3316 66.0243 23.9753 66.0081C19.3599 65.8462 14.6959 66.0729 10.0644 66.2348C9.78905 64.9717 8.60683 63.9029 7.24651 64C7.13315 64 7.0198 64 6.90644 64.0324C5.38417 64.1458 4.15342 65.3118 4.18581 66.8988C4.21819 68.4697 5.52992 69.5871 7.05218 69.6195C7.16554 69.6195 7.27891 69.6195 7.40846 69.6195C8.7364 69.6519 9.85381 68.5668 10.0967 67.3199L10.0805 67.3037Z" fill="#65A8DF"/>
<path d="M9.43264 44.4696C15.716 44.1943 30.0804 43.5627 30.129 44.6315C30.1452 45.0526 30.793 45.0364 30.793 44.6154C30.8739 44.2429 30.9387 43.8704 31.0197 43.4979C31.2464 43.0283 30.9387 42.5263 30.4205 42.4939C23.4569 42.251 16.4124 42.5749 9.43264 42.834C9.01158 40.923 7.23021 39.3198 5.18973 39.4494C5.01159 39.4494 4.83344 39.4817 4.6715 39.4817C2.3881 39.6437 0.50959 41.4251 0.558173 43.7894C0.62295 46.17 2.58242 47.8542 4.86582 47.9028C5.04396 47.9028 5.22212 47.9028 5.40026 47.9028C7.40836 47.9514 9.07638 46.3158 9.44884 44.4372L9.43264 44.4696Z" fill="#65A8DF"/>
<path d="M18.5177 56.2105C24.3477 55.9514 37.6756 55.3684 37.708 56.3724C37.7241 56.7611 38.3233 56.7449 38.3233 56.3724C38.3881 56.0323 38.4691 55.6761 38.5339 55.336C38.7444 54.8987 38.4529 54.4291 37.9671 54.4129C31.5055 54.1862 24.9792 54.4939 18.5015 54.7368C18.1128 52.9554 16.461 51.4656 14.5663 51.6113C14.4043 51.6113 14.2424 51.6275 14.0804 51.6437C11.959 51.7894 10.2262 53.4413 10.2748 55.6437C10.3234 57.8461 12.1533 59.4008 14.2748 59.4494C14.4367 59.4494 14.5987 59.4494 14.7606 59.4494C16.623 59.4818 18.1776 57.9757 18.5177 56.2267V56.2105Z" fill="#65A8DF"/>
<path d="M25.3681 72.4209C25.9673 73.3764 27.279 73.5707 28.4127 73.6355C40.0078 74.3966 51.6839 73.9918 63.1981 72.4209C63.8783 72.3238 64.5908 72.2104 65.1252 71.7894C65.8702 71.1902 66.0807 70.1375 66.2102 69.1821C67.8458 57.7003 68.3641 46.0728 67.7487 34.4938C67.7163 34.0242 67.7001 33.5383 67.4734 33.1173C67.1333 32.4533 66.4046 32.1132 65.7244 31.8379C58.6637 29.0039 50.8256 29.1497 43.2143 29.3278C38.356 29.4412 33.5139 29.5707 28.6556 29.6841C28.0564 29.6841 27.441 29.7165 26.9228 29.9918C25.7406 30.591 25.4653 32.1456 25.3519 33.4736C24.2831 45.846 24.1697 58.2995 24.9795 70.6881C25.0119 71.2711 25.0604 71.8865 25.3843 72.3885L25.3681 72.4209Z" fill="#65A8DF"/>
<path opacity="0.42" d="M63.8457 36.1783C63.8457 35.7896 63.5542 35.5467 63.1817 35.5143C52.1534 34.6236 41.1088 33.9434 30.0481 33.4738C29.3032 33.4414 29.1898 34.4131 29.708 34.737C29.6757 34.7856 29.6433 34.8179 29.6433 34.8665C28.8011 46.3969 28.704 58.0082 28.2667 69.5548C28.2667 69.7977 28.4772 69.9758 28.704 69.992C39.3922 70.4941 50.0805 70.3321 60.7525 69.7005C60.9955 69.7005 61.287 69.5224 61.3356 69.2633C63.3761 58.3483 64.1048 47.2552 63.8295 36.1621L63.8457 36.1783ZM59.1817 68.6317C53.8538 68.988 48.4934 69.1337 43.1493 69.2309C40.4773 69.2795 37.8052 69.2633 35.1331 69.2309C32.3639 69.1985 29.1412 70.1216 29.2546 66.4131C29.5946 55.9192 30.2425 45.3767 30.2101 34.8827C40.6878 35.2876 51.1493 35.903 61.6108 36.7127C63.8295 36.8908 62.453 68.405 59.1817 68.6317Z" fill="#F1F1F2"/>
<path d="M44.1372 42.0729C43.9591 41.1498 42.6474 41.2793 42.3883 42.0729C40.3478 48.4858 38.5664 54.9636 37.1089 61.5385C36.9793 62.1538 37.8701 62.3968 38.0482 61.7976C38.8255 59.2551 39.619 56.7125 40.4125 54.17C41.6757 54.4129 42.9389 54.6883 44.2182 54.8988C44.4935 57.085 44.7526 59.2551 45.0441 61.4413C45.1899 62.6073 46.9874 62.6721 46.9227 61.4413C46.5664 54.9474 45.4004 48.4372 44.1534 42.0567L44.1372 42.0729ZM40.7688 53.0364C41.4976 50.7044 42.2425 48.3887 42.9874 46.0567C43.3437 48.2753 43.6352 50.4939 43.9267 52.7125C42.8741 52.8097 41.8215 52.9231 40.7688 53.0202V53.0364Z" fill="#F1F1F2"/>
<path d="M53.2384 60.664C53.1089 56.7936 53.1251 52.9231 52.9793 49.0527C52.9307 47.6276 53.3032 45.0365 52.704 43.3361C53.5461 43.0446 53.5137 41.7166 52.623 41.5061C52.1696 41.3928 51.6838 41.4737 51.2141 41.4899C50.5987 41.5061 50.1291 42.0729 50.291 42.7045C50.4044 43.1256 50.8254 43.4009 51.2465 43.4009C51.2789 43.4009 51.3275 43.4009 51.3599 43.4009C51.6676 49.0041 51.7485 54.7531 51.4894 60.3563C50.3396 60.3563 50.3396 62.332 51.5866 62.3158H52.542C53.4813 62.2996 53.7242 61.1984 53.2384 60.664Z" fill="#F1F1F2"/>
</svg>
