<svg width="90" height="87" viewBox="0 0 90 87" fill="none" xmlns="http://www.w3.org/2000/svg">
<g clip-path="url(#clip0_364_10347)">
<path d="M69.7996 19.3973C53.6241 17.7714 53.8262 18.182 53.645 17.5921C53.0735 15.7482 51.6003 15.0227 49.541 16.5992C49.4174 16.6936 49.2571 16.7234 49.1076 16.6784L34.4502 12.2809C34.0327 12.1555 33.982 11.5827 34.371 11.3862L56.203 0.355862C56.2208 0.346991 56.2391 0.339387 56.2575 0.332417C56.3399 0.302636 58.282 -0.379158 59.5943 0.656206C60.4763 1.35131 60.8235 2.60781 60.6271 4.3896C60.5973 4.65509 60.3597 4.84519 60.0936 4.81731C59.8281 4.78752 59.6367 4.54864 59.6659 4.28378C59.8236 2.85556 59.5981 1.89117 58.9961 1.41657C58.1743 0.76836 56.8031 1.17325 56.6086 1.23535L35.8899 11.7043L49.1544 15.6836C51.5223 13.9848 53.5044 14.7508 54.4536 16.9971L69.6982 18.4171C71.0637 17.3475 80.4682 10.0435 84.7877 8.33906C86.124 7.81188 87.2525 7.8518 88.1434 8.45819C89.9791 9.70772 90.0006 12.9171 90.0006 13.0533C90.0006 13.3207 89.7839 13.5368 89.5172 13.5368C89.2504 13.5368 89.0337 13.3207 89.0337 13.0533C89.0337 13.0254 89.0121 10.2165 87.5979 9.25594C86.9883 8.84217 86.162 8.83584 85.1432 9.2382C80.7096 10.9877 70.2501 19.2129 70.145 19.2953C70.0505 19.3701 69.9295 19.4087 69.8009 19.3973H69.7996Z" fill="#1D1D3D"/>
<path d="M56.0199 13.4191C54.3217 14.6452 53.2807 16.7318 53.3225 18.8259C53.3466 20.0368 53.7084 21.2192 54.1849 22.3325C55.7918 26.0893 58.5944 27.9497 62.272 26.4258C65.0847 25.2599 67.0357 22.2697 66.9692 19.2258C66.8545 13.9368 60.6005 10.1115 56.0193 13.4191H56.0199Z" fill="#F3C97C"/>
<path d="M45.8329 9.1198C44.0213 8.47855 41.9037 8.7827 40.3456 9.90804C38.7875 11.0327 37.8326 12.9476 37.8706 14.8688C37.9175 17.2133 39.5897 21.0423 42.1717 22.0213C43.4213 22.4953 44.8476 22.354 46.0819 21.842C48.6627 20.7724 50.4527 18.0287 50.3919 15.2357C50.3311 12.4426 48.3535 10.012 45.8329 9.1198Z" fill="#F3C97C"/>
<path d="M16.6678 21.616C16.6678 21.616 24.1587 26.8733 22.683 33.7983H20.2777L17.541 30.7188L16.6678 21.616Z" fill="#B2ACA3"/>
<path d="M53.1521 29.4992L48.645 25.3679C48.645 25.3679 31.2586 27.317 22.683 33.7972C22.683 33.7972 18.6651 25.3996 11.8053 23.5247L3.28033 25.909C3.28033 25.909 8.46349 37.0294 16.3459 38.4912C24.2284 39.953 48.427 35.0613 48.427 35.0613L53.1533 29.4999L53.1521 29.4992Z" fill="#EAE5DB"/>
<path d="M25.438 33.9864L54.707 28.3014L64.8129 71.115L36.2295 81.4623C36.2295 81.4623 31.6312 83.2675 29.1258 80.1253L10.5044 73.6698L0 23.5256L19.843 34.8095C19.843 34.8095 23.2615 36.673 25.438 33.9864Z" fill="#76A0EE"/>
<path d="M35.8163 80.3938L25.2561 35.3802C25.1953 35.1204 25.3563 34.86 25.616 34.7992C25.8771 34.7377 26.1363 34.8993 26.1971 35.1591L36.7573 80.1727C36.8181 80.4325 36.6572 80.6929 36.3974 80.7538C36.1344 80.8152 35.8765 80.6511 35.8163 80.3938Z" fill="#6B94DF"/>
<path d="M28.6385 79.3397L19.8037 36.2942C19.7499 36.0325 19.9184 35.7771 20.1801 35.7233C20.4412 35.6707 20.6972 35.838 20.751 36.0997L29.5858 79.1452C29.6397 79.4069 29.4711 79.6623 29.2094 79.7161C28.9401 79.7706 28.6911 79.5951 28.6385 79.3397Z" fill="#6B94DF"/>
<path d="M31.6597 42.482L36.2872 48.1518C36.2872 48.1518 40.8019 40.5722 51.6789 43.6098L53.3219 36.8115C53.3219 36.8115 41.2644 30.5626 31.6597 42.4813V42.482Z" fill="#F48682"/>
<path d="M48.9637 65.0728C52.3971 64.2915 54.3088 59.8278 53.2336 55.1028C52.1584 50.3779 48.5034 47.181 45.07 47.9623C41.6366 48.7436 39.7249 53.2073 40.8001 57.9322C41.8753 62.6572 45.5303 65.8541 48.9637 65.0728Z" fill="#ABA2F9"/>
<path d="M74.7426 73.5439C74.7426 73.5439 74.7274 82.7697 67.2556 86.6539L40.9216 71.2578C40.9216 71.2578 29.21 70.6178 25.4424 68.9539L19.2708 65.1996C18.1702 64.5305 17.387 63.4431 17.1025 62.186L16.9884 61.6867V61.6848L16.8839 61.2222L16.3732 60.5183L16.2883 60.4023C15.6058 59.4645 15.244 58.3309 15.2573 57.1701L15.2668 56.3401L15.0482 55.8623L15.0463 55.8604L14.7023 55.0981C14.5977 54.8681 14.5572 54.6147 14.5825 54.3631L14.5901 54.2972V54.2953L14.9633 50.7615L15.002 50.2356L15.1027 48.8954L15.2865 46.4547C15.3061 46.1974 15.4702 45.9731 15.7117 45.8863C16.3212 45.6677 17.458 45.5226 17.9421 47.1935L20.1528 49.4024L25.0464 52.3C25.0464 52.3 30.0249 53.8125 31.7579 53.3677C31.7579 53.3677 30.17 49.536 30.4178 47.4957C30.4818 46.9736 30.6478 46.4376 30.8626 45.9249C31.3308 44.8053 32.9339 44.8516 33.3711 45.9851C33.5416 46.43 33.7171 46.8127 33.8819 47.0294C35.5933 49.3079 42.6166 55.8819 43.5936 59.948L74.7433 73.5433L74.7426 73.5439Z" fill="#FAD1DA"/>
<path d="M25.7276 67.4049C25.7206 67.4049 25.7143 67.4049 25.7073 67.4049C25.4405 67.3935 25.2327 67.1686 25.2441 66.9018C25.4019 63.1095 25.815 59.2906 26.4727 55.5508C26.519 55.2879 26.7699 55.1111 27.0329 55.1586C27.2958 55.2049 27.4713 55.4558 27.4251 55.7187C26.775 59.416 26.3663 63.1925 26.2104 66.9424C26.1996 67.2022 25.9855 67.4062 25.7276 67.4062V67.4049Z" fill="#D9B0B9"/>
<path d="M25.8195 57.9792C25.7035 58.2194 25.4152 58.3214 25.1732 58.2054C22.1926 56.7722 19.4464 54.9118 17.0113 52.6757C16.2395 51.966 15.4792 51.1847 15.0014 50.2368L15.1022 48.8967C15.3341 48.8618 15.5622 49.0012 15.6338 49.2312C15.9645 50.297 16.806 51.1752 17.6646 51.9622C20.03 54.1362 22.6976 55.9427 25.5927 57.3336C25.8328 57.4495 25.9348 57.7378 25.8189 57.9799L25.8195 57.9792Z" fill="#D9B0B9"/>
<path d="M24.831 62.3615C24.6992 62.5953 24.4033 62.677 24.1714 62.5452C20.8777 60.6848 17.8135 58.4411 15.0476 55.8629L15.0457 55.861L14.7017 55.0987C14.5971 54.8687 14.5566 54.6152 14.5819 54.3637L14.5895 54.2978V54.2959C14.7188 54.2902 14.8506 54.3364 14.9513 54.4334C17.8546 57.2632 21.1173 59.7097 24.6472 61.7037C24.8792 61.8355 24.9628 62.1295 24.831 62.3615Z" fill="#D9B0B9"/>
<path d="M24.1309 65.1791C24.0111 65.4167 23.7209 65.5136 23.4808 65.3939C21.2624 64.2799 19.0789 63.0342 16.9879 61.6877V61.6858L16.8833 61.2233L16.3726 60.5193C16.531 60.3957 16.756 60.3818 16.9334 60.4978C19.1714 61.9716 21.519 63.3276 23.9154 64.5283C24.1537 64.6481 24.25 64.9402 24.1302 65.1784L24.1309 65.1791Z" fill="#D9B0B9"/>
<path d="M65.4124 16.078L56.556 24.9344C55.7538 24.155 55.1538 23.1291 54.7089 22.0906C54.6925 22.052 54.6766 22.0127 54.6602 21.974L62.9481 13.686C63.948 14.2639 64.8085 15.0914 65.4124 16.0787V16.078Z" fill="#EAE5DB"/>
<path d="M65.4124 16.078L56.556 24.9344C55.7538 24.155 55.1538 23.1291 54.7089 22.0906C54.6925 22.052 54.6766 22.0127 54.6602 21.974L62.9481 13.686C63.948 14.2639 64.8085 15.0914 65.4124 16.0787V16.078Z" fill="white"/>
<path d="M47.8878 11.5592L40.2519 19.1952C39.6353 18.277 39.0378 16.8849 38.856 15.7342L44.745 9.84521C45.9077 10.0302 47.0483 10.6778 47.8878 11.5592Z" fill="#EAE5DB"/>
<path d="M47.8878 11.5592L40.2519 19.1952C39.6353 18.277 39.0378 16.8849 38.856 15.7342L44.745 9.84521C45.9077 10.0302 47.0483 10.6778 47.8878 11.5592Z" fill="white"/>
</g>
<defs>
<clipPath id="clip0_364_10347">
<rect width="90" height="86.5688" fill="white" transform="translate(0 0.0847168)"/>
</clipPath>
</defs>
</svg>
