<svg width="368" height="255" viewBox="0 0 368 255" fill="none" xmlns="http://www.w3.org/2000/svg">
<g clip-path="url(#clip0_1877_6459)">
<path d="M338.499 64.3789C347.526 68.0184 355.693 73.7794 362.147 81.0717C364.255 83.4506 366.212 86.0471 367.26 89.0475C368.307 92.0478 368.347 95.5275 366.745 98.2749C364.938 101.382 361.299 103.086 357.717 103.366C354.135 103.645 350.571 102.687 347.176 101.51C337.167 98.0529 327.842 92.6248 319.889 85.6343" fill="#FC7167"/>
<path d="M307.657 17.0034C318.859 27.3937 322.96 43.4784 320.484 58.5556C319.649 63.6375 317.852 68.7594 314.203 72.39C311.5 75.0753 307.981 76.7618 304.47 78.2398C290.267 84.2228 274.981 87.6314 259.58 88.2528C267.733 67.3791 273.952 45.7464 278.124 23.7231" fill="#825733"/>
<path d="M338.867 146.249C332.56 103.325 345.813 69.607 335.201 62.4035C329.494 58.5287 322.592 56.7046 315.717 56.1542C308.842 55.6038 301.931 56.2607 295.074 56.9842C292.455 57.2594 289.237 58.7595 286.17 61.1474C282.5 64.0102 276.184 68.3331 274.178 70.7654C271.009 74.609 272.616 78.4704 272.589 83.4503C272.465 106.796 276.508 131.247 282.123 154.993C295.385 154.163 309.454 154.744 338.872 146.245L338.867 146.249Z" fill="#FC7167"/>
<path d="M308.513 41.4277L312.69 55.888L303.365 88.6211L291.918 58.5777L292.495 48.7999" fill="#E6A78B"/>
<path d="M311.323 37.0472C311.625 32.7242 313.098 26.7279 311.674 22.6357C310.564 19.4534 307.643 16.5019 305.154 14.367C302.664 12.2366 292.118 10.1017 287.848 14.6156L282.451 21.2465L282.101 24.9837" fill="#825733"/>
<path d="M289.73 14.8597C287.595 14.1407 285.159 14.3582 283.188 15.4545C281.217 16.5508 279.739 18.4992 279.225 20.6962C277.503 22.3429 276.872 24.926 276.89 27.3094C276.93 31.8987 278.985 36.4303 282.407 39.4839" fill="#825733"/>
<path d="M279.855 36.0971C279.043 33.5806 279.105 30.811 280.032 28.3078C280.96 25.8045 282.749 23.572 285.057 22.0408C288.448 19.7905 292.722 19.1159 296.845 18.9206C298.478 18.8451 300.134 18.8363 301.727 19.1425C303.325 19.4487 304.878 20.0968 306.019 21.1797C307.222 22.3248 309.064 24.6328 309.628 26.1551C310.955 29.7458 310.706 32.7106 311.212 36.4966" fill="#825733"/>
<path d="M284.524 43.5448C285.128 46.2389 290.516 53.3092 294.826 54.0682C298.949 54.7916 298.256 55.0047 301.878 52.9009C305.225 50.9569 307.937 47.2064 308.704 43.4116C309.472 39.6168 309.33 35.5734 308.287 31.8407C307.604 29.4041 306.672 26.9896 305.114 24.9923C302.233 21.3129 297.48 21.1309 292.895 22.023C286.415 23.2791 282.34 27.3935 282.025 33.6738C281.87 36.7496 283.854 40.5311 284.528 43.5448H284.524Z" fill="#FDBDA1"/>
<path d="M283.498 37.1717C282.606 35.9423 280.458 35.7603 279.082 36.6302C277.702 37.4957 277.116 39.1512 277.387 40.607C277.653 42.0628 278.661 43.3322 279.894 44.2953C282.065 45.9997 285.021 46.8918 287.954 46.7231" fill="#FDBDA1"/>
<path d="M278.958 38.805C278.425 39.8391 278.669 41.4636 279.486 42.6841C280.156 43.6916 281.163 44.3929 282.144 44.6237C282.322 44.6637 282.366 44.4062 282.202 44.2731C281.532 43.7405 280.897 43.1368 280.302 42.4755C279.921 42.0494 279.543 41.579 279.366 41.033C279.153 40.385 279.268 39.7237 279.579 39.2932C279.89 38.8627 280.378 38.6408 280.902 38.5653C281.226 38.5165 281.656 38.5786 281.865 38.9559C282.024 39.2399 281.962 39.5728 281.803 39.7548C281.638 39.9368 281.399 40.0033 281.168 40.0744C280.937 40.1454 280.702 40.2297 280.56 40.4383C280.493 40.536 280.453 40.6869 280.533 40.82C280.64 41.002 280.853 40.9887 281.004 40.9443C281.381 40.8333 281.767 40.7224 282.078 40.4827C282.388 40.243 282.619 39.8613 282.61 39.3775C282.593 38.299 281.572 37.8419 280.835 37.7842C280.045 37.7265 279.322 38.0993 278.958 38.8005V38.805Z" fill="#DEA58D"/>
<path d="M308.336 33.9579C308.904 32.5509 310.945 31.8586 312.494 32.3734C314.039 32.8838 315.006 34.3485 315.095 35.8265C315.184 37.3045 314.509 38.7736 313.546 40.0074C311.846 42.1822 309.188 43.7534 306.303 44.2994" fill="#FDBDA1"/>
<path d="M313.133 34.4593C313.901 35.3337 314.052 36.9715 313.55 38.3518C313.138 39.488 312.33 40.4112 311.433 40.8684C311.269 40.9527 311.163 40.7086 311.291 40.5443C311.815 39.8653 312.285 39.1285 312.703 38.3429C312.969 37.8369 313.222 37.2866 313.266 36.7185C313.32 36.0394 313.049 35.4225 312.645 35.0807C312.237 34.7389 311.713 34.6413 311.185 34.6901C310.861 34.7212 310.457 34.8854 310.341 35.2982C310.253 35.6089 310.395 35.9196 310.594 36.0571C310.794 36.1947 311.047 36.2036 311.287 36.2169C311.527 36.2302 311.78 36.2569 311.966 36.4211C312.055 36.501 312.13 36.6386 312.086 36.785C312.028 36.9892 311.815 37.0247 311.66 37.0203C311.265 37.0025 310.865 36.9848 310.51 36.8294C310.151 36.6741 309.835 36.3545 309.729 35.884C309.485 34.8321 310.368 34.1398 311.074 33.9134C311.828 33.6693 312.618 33.8557 313.138 34.4504L313.133 34.4593Z" fill="#DEA58D"/>
<path d="M285.216 25.645C284.79 27.1186 284.359 28.5921 283.933 30.0657C283.671 30.9666 283.41 31.8676 283.312 32.7997C283.179 34.0602 283.343 35.3429 283.205 36.6034C283.188 36.7765 283.139 36.9807 282.979 37.0472C282.846 37.1005 282.699 37.0384 282.571 36.9762C281.741 36.5679 280.911 36.1551 280.081 35.7468C279.992 33.9093 280.17 32.0585 280.609 30.2698" fill="#825733"/>
<path d="M302.133 40.3415C302.626 42.2088 304.545 43.3246 306.411 42.8273C308.279 42.3341 309.394 40.4153 308.897 38.5485C308.404 36.6813 306.485 35.5655 304.618 36.0627C302.752 36.5599 301.635 38.4748 302.133 40.3415Z" fill="#ED947E"/>
<path d="M283.78 44.5598C284.273 46.4271 286.192 47.5429 288.059 47.0456C289.926 46.5524 291.042 44.6336 290.545 42.7668C290.051 40.8995 288.133 39.7837 286.266 40.281C284.399 40.7742 283.283 42.693 283.78 44.5598Z" fill="#ED947E"/>
<path d="M299.122 36.7034C299.288 37.8527 299.738 38.805 300.799 38.6506C301.734 38.5165 302.023 37.457 301.856 36.3078C301.69 35.1585 301.198 34.278 300.187 34.4226C299.277 34.5533 298.955 35.5513 299.121 36.7006L299.122 36.7034Z" fill="#472A28"/>
<path d="M300.725 35.8683C300.751 36.0572 300.927 36.1882 301.119 36.1619C301.308 36.1359 301.439 35.9599 301.412 35.7682C301.386 35.5793 301.21 35.4483 301.019 35.4746C300.83 35.5006 300.699 35.6766 300.725 35.8683Z" fill="#FDBFB0"/>
<path d="M289.304 38.4114C289.471 39.5607 289.921 40.513 290.982 40.3586C291.917 40.2245 292.205 39.165 292.039 38.0158C291.872 36.8665 291.381 35.986 290.37 36.1306C289.46 36.2613 289.138 37.2593 289.304 38.4086L289.304 38.4114Z" fill="#472A28"/>
<path d="M290.898 37.486C290.924 37.6749 291.1 37.8059 291.292 37.7795C291.481 37.7536 291.612 37.5776 291.585 37.3859C291.559 37.197 291.383 37.066 291.192 37.0923C291.003 37.1183 290.872 37.2942 290.898 37.486Z" fill="#FDBFB0"/>
<path d="M301.795 33.7557C301.597 33.7827 301.393 33.6839 301.294 33.4937C301.147 33.2134 300.484 32.8436 299.88 32.8063C299.747 32.7979 299.425 32.7987 299.308 32.9751C299.154 33.1999 298.849 33.2585 298.627 33.102C298.405 32.9455 298.346 32.6363 298.499 32.4115C298.784 31.9885 299.295 31.778 299.935 31.8169C300.742 31.8665 301.797 32.3327 302.159 33.031C302.285 33.2742 302.194 33.5739 301.958 33.6998C301.906 33.727 301.852 33.7444 301.797 33.7519L301.795 33.7557Z" fill="#734942"/>
<path d="M288.852 35.9395C288.808 35.9455 288.763 35.9417 288.716 35.9281C288.502 35.864 288.359 35.593 288.397 35.3306C288.508 34.5671 289.201 33.8574 289.808 33.6171C290.289 33.424 290.73 33.5071 291.053 33.8436C291.225 34.0237 291.255 34.3369 291.122 34.5421C290.99 34.7474 290.742 34.7647 290.57 34.5846C290.437 34.4425 290.19 34.5199 290.09 34.5603C289.636 34.743 289.214 35.2585 289.172 35.5682C289.143 35.776 289.01 35.9211 288.852 35.9428L288.852 35.9395Z" fill="#734942"/>
<path d="M297.289 48.7954C294.684 49.4278 292.739 47.0699 292.524 46.1C292.496 45.9634 292.49 45.865 292.53 45.7932C292.816 45.1977 293.75 45.6502 295.843 45.4805C297.936 45.3108 300.77 43.7437 301.115 44.1901C301.146 44.2271 301.17 44.2815 301.193 44.3278C301.694 45.3887 300.108 48.099 297.296 48.7861L297.289 48.7954Z" fill="white"/>
<path d="M297.288 48.7952C294.683 49.4276 292.738 47.0697 292.524 46.0998C293.37 46.6312 294.835 46.9822 296.587 46.7458C298.397 46.5012 300.228 45.3188 301.193 44.3276C301.693 45.3885 300.108 48.0988 297.295 48.7859L297.288 48.7952Z" fill="#D8424D"/>
<path d="M332.232 57.8322C331.851 58.2849 332.028 58.9152 332.286 59.4211C332.539 59.9271 334.443 62.4215 334.443 63.0118C334.443 63.2914 334.336 63.5621 334.123 63.6953C333.724 63.9527 333.276 63.6332 332.912 63.3358C332.024 62.599 328.069 60.8814 327.182 60.149C326.653 59.7141 326.099 59.2613 325.468 59.1104C324.838 58.9595 324.106 59.2125 323.897 59.8561C323.768 60.26 323.871 60.7305 324.075 61.1255C324.279 61.5205 324.576 61.8489 324.869 62.1685C325.633 63.0073 329.454 64.8315 330.217 65.6704C330.528 66.0121 330.848 66.3716 330.999 66.8199C331.194 67.4014 330.826 67.8896 330.302 67.8585C329.893 67.8363 329.494 67.5966 329.112 67.4369C327.071 66.6024 324.891 66.0299 322.779 65.4174C321.793 65.1333 320.795 64.8803 319.787 64.6717C319.104 64.5297 317.985 64.1524 317.555 64.9514C317.328 65.3819 317.71 65.9456 318.025 66.3228C318.34 66.7045 318.744 66.9797 319.139 67.246C320.662 68.2757 326.245 70.7435 327.767 71.7776C328.154 72.0395 328.606 72.4389 328.522 72.9094C328.473 73.1934 328.22 73.3799 327.958 73.4242C327.696 73.4686 327.421 73.402 327.155 73.3399C325.606 72.9715 320.719 72.2303 319.157 72.1016C318.842 72.075 318.522 72.0528 318.229 72.1415C317.936 72.2303 317.661 72.4478 317.577 72.7674C317.466 73.1757 317.683 73.6462 317.999 73.9391C318.314 74.232 318.709 74.3785 319.095 74.525C320.928 75.2085 326.09 76.3802 327.923 77.0593C328.646 77.33 329.41 77.623 329.942 78.2488C330.328 78.7059 330.524 79.3894 330.395 79.9354C330.533 80.7209 328.837 81.1692 328.34 81.3379C327.186 81.7285 325.979 81.9814 324.847 82.443C324.55 82.5629 324.217 82.6916 324.128 83.0378C324.053 83.3352 324.119 83.7346 324.212 84.0231C324.354 84.4669 324.714 84.7066 325.14 84.8442C325.641 85.0084 328.882 85.0395 329.383 85.0928C331.793 85.3369 334.203 84.9507 336.374 83.992C337.51 83.9565 338.557 83.4328 339.285 82.5274L343.617 77.1525C344.886 75.5769 344.94 73.1757 343.772 71.2938C341.526 67.6721 337.514 62.1729 334.878 58.8663C334.412 58.2805 333.901 57.668 333.182 57.5348C332.832 57.4682 332.468 57.5659 332.241 57.8366L332.232 57.8322Z" fill="#FDBDA1"/>
<path d="M336.271 81.4575C336.165 81.4575 336.067 81.422 335.987 81.3377C334.926 80.1704 333.435 79.4558 332.001 79.4292C331.757 79.4247 331.562 79.2206 331.566 78.9765C331.566 78.7324 331.771 78.5415 332.01 78.5415H332.019C333.63 78.5726 335.29 79.3315 336.506 80.592C336.631 80.6453 336.724 80.7518 336.746 80.9027C336.773 81.0936 336.675 81.3199 336.502 81.4043C336.427 81.4398 336.351 81.4575 336.271 81.4575Z" fill="#DEA58D"/>
<path d="M330.612 75.2305C330.559 75.2305 330.506 75.2216 330.453 75.1994C330.222 75.1107 330.111 74.8533 330.195 74.6269C331.438 71.3957 333.169 68.4797 335.344 65.9587C335.503 65.7723 335.783 65.7546 335.969 65.9143C336.156 66.0741 336.178 66.3537 336.018 66.5402C333.91 68.9857 332.232 71.813 331.025 74.9509C330.959 75.1284 330.79 75.2349 330.612 75.2349V75.2305Z" fill="#DEA58D"/>
<path d="M283.396 151.238C284.129 192.515 286.889 226.491 295.54 266.858C300.085 266.179 304.581 265.779 309.126 265.1C310.142 226.473 312.415 190.615 313.36 156.928" fill="#D4997F"/>
<path d="M305.034 151.904C305.034 151.904 302.229 198.813 308.709 207.131C315.184 215.448 353.989 244.946 353.989 244.946L363.718 235.11C363.718 235.11 338.339 204.055 326.813 192.861L336.684 149.92" fill="#FDBDA1"/>
<path d="M338.867 146.249C338.867 146.249 336.191 166.35 334.336 180.389L283.911 179.346L280.645 146.249" fill="#3A3E4A"/>
<path d="M283.911 24.1317C284.568 26.7192 286.996 28.6056 289.606 29.1648C292.215 29.724 294.954 29.1337 297.417 28.104C295.802 27.274 294.865 25.2901 295.256 23.5147C298.513 26.9989 303.311 28.9917 308.078 28.8364C307.532 26.0846 306.161 23.5014 304.186 21.5041C302.215 19.5069 299.645 18.1088 296.902 17.5273" fill="#825733"/>
<path d="M309.548 66.9219C304.301 66.9929 298.811 67.095 295.189 67.1616L303.365 88.6211L309.548 66.9219Z" fill="#FAF9F5"/>
<path d="M203.878 53.6289C226.807 61.4937 248.919 71.3558 269.881 83.5347C271.053 84.2138 272.3 84.995 272.788 86.2599C273.636 88.4702 271.768 90.7161 270.046 92.3405C266.06 96.0998 262.016 99.8014 257.92 103.441C254.489 106.49 250.792 109.61 246.278 110.458C242.754 111.119 239.128 110.303 235.675 109.335C220.202 104.994 205.64 97.4269 193.19 87.2586" fill="#444957"/>
<path d="M139.406 49.7324C116.583 53.8335 95.0928 59.1729 72.9053 65.9015C74.5874 70.6949 75.6304 76.163 76.4782 81.1739C99.6865 82.1371 127.613 86.1405 150.404 81.6489" fill="#444957"/>
<path d="M140.56 270.116C143.573 269.029 146.582 267.946 149.596 266.858C150.462 266.548 151.336 266.228 152.113 265.744C153.027 265.172 153.768 264.386 154.527 263.636C156.915 261.293 159.622 259.238 162.547 257.533C161.429 255.057 160.102 252.713 158.477 250.365L142.721 255.887C136.055 263.796 134.572 265.203 131.674 268.487C130.844 269.428 130.405 270.675 130.334 271.874C130.316 272.158 130.342 272.442 130.4 272.721C130.769 272.748 131.155 272.726 131.51 272.681C134.617 272.26 137.604 271.186 140.56 270.12V270.116Z" fill="#334242"/>
<path d="M208.591 129.428C206.398 163.044 200.899 231.022 195.067 264.195C188.982 264.017 181.956 264.914 175.871 264.736C174.016 230.223 170.62 164.069 163.435 134.377" fill="#7087AB"/>
<path d="M139.326 143.688C131.874 153.817 125.944 165.064 121.794 176.936C118.892 185.245 116.841 194.055 117.76 202.808C118.625 211.059 122.07 218.79 125.638 226.278C131.421 238.417 135.868 244.324 142.544 255.997C148.434 254.772 154.74 253.978 160.63 252.753C160.648 234.808 152.295 216.362 147.368 199.11C156.463 183.958 183.408 155.574 194.637 141.926" fill="#7087AB"/>
<path d="M173.572 47.0472C181.49 45.2852 195.742 49.9544 203.047 53.8424C203.438 54.051 204.241 60.4201 205.901 67.6901C207.561 74.9602 208.307 86.8462 207.934 94.356C207.432 104.52 206.633 138.447 204.982 148.553C184.428 153.533 153.284 145.215 132.637 142.464C132.907 122.233 137.19 92.2699 138.735 73.3713C139.028 69.7718 142.548 64.6143 143.12 60.9926C143.755 56.9936 147.714 48.9646 147.714 48.9646C150.91 47.966 164.203 47.4334 169.466 47.4467" fill="white"/>
<path d="M182.774 31.6855L183.2 48.1431C183.173 49.6965 182.605 51.1212 181.5 52.1643C180.443 53.1629 173.111 60.5972 171.18 60.433C169.751 60.3087 163.103 51.8003 162.721 49.7897C162.508 48.6757 164.092 37.1181 164.092 37.1181" fill="#E6A78B"/>
<path d="M186.35 26.6437C186.648 22.2497 188.095 16.1647 186.688 12.0015C185.591 8.76147 183.03 3.98133 180.074 2.54329C167.949 -3.34201 159.884 2.69419 158.522 3.7239L157.82 10.4125L157.479 14.2074" fill="#524033"/>
<path d="M163.43 3.39095C161.242 2.64531 158.743 2.86723 156.72 3.98126C154.696 5.09973 153.178 7.09257 152.641 9.34283C150.87 11.025 150.217 13.6747 150.231 16.1158C150.257 20.8205 152.352 25.4764 155.854 28.6143" fill="#524033"/>
<path d="M155.761 31.2997C157.044 35.059 160.848 42.1604 164.634 43.9535C168.424 45.7466 174.176 44.8589 177.909 42.8439C181.362 40.9798 181.637 34.7527 182.467 31.1576C183.297 27.5625 182.831 23.821 181.81 20.2969C181.14 17.9934 178.064 16.4044 176.489 14.527C173.586 11.0651 170.87 10.2395 166.156 11.1139C159.503 12.3477 156.88 15.9961 156.476 21.9391C156.281 24.8507 154.811 28.5257 155.757 31.2952L155.761 31.2997Z" fill="#FDBDA1"/>
<path d="M156.502 26.4172C155.592 25.1522 153.391 24.9614 151.975 25.849C150.559 26.7367 149.951 28.4277 150.222 29.9235C150.493 31.4192 151.522 32.7197 152.783 33.7139C155.007 35.467 158.034 36.3902 161.043 36.226" fill="#FDBDA1"/>
<path d="M151.842 28.0819C151.291 29.1382 151.54 30.8071 152.37 32.0631C153.053 33.0973 154.088 33.8207 155.091 34.056C155.273 34.1003 155.321 33.834 155.153 33.6965C154.469 33.1461 153.817 32.5247 153.209 31.8456C152.818 31.4107 152.432 30.9225 152.255 30.3632C152.037 29.6975 152.157 29.0228 152.476 28.579C152.796 28.1396 153.298 27.9132 153.835 27.8333C154.167 27.7845 154.607 27.8511 154.824 28.2328C154.989 28.5213 154.926 28.8675 154.758 29.0539C154.589 29.2403 154.345 29.3113 154.105 29.3823C153.866 29.4534 153.626 29.5421 153.48 29.7507C153.413 29.8528 153.369 30.0082 153.448 30.1413C153.559 30.3277 153.777 30.3144 153.932 30.27C154.323 30.1591 154.713 30.0437 155.033 29.7996C155.353 29.5554 155.588 29.1649 155.583 28.6678C155.57 27.5582 154.523 27.0877 153.768 27.03C152.956 26.9679 152.215 27.3496 151.842 28.0686V28.0819Z" fill="#DEA58D"/>
<path d="M181.966 23.4037C182.552 21.9612 184.651 21.26 186.235 21.7881C187.82 22.3163 188.805 23.8209 188.894 25.3389C188.983 26.8568 188.286 28.3614 187.296 29.6263C185.547 31.85 182.818 33.4567 179.857 34.007" fill="#FDBDA1"/>
<path d="M186.887 23.9274C187.673 24.8284 187.824 26.5061 187.304 27.9219C186.878 29.0848 186.048 30.0346 185.125 30.5007C184.957 30.585 184.85 30.3364 184.983 30.1678C185.52 29.4754 186.008 28.7164 186.439 27.9131C186.714 27.3982 186.976 26.8345 187.02 26.2487C187.074 25.5519 186.803 24.9216 186.386 24.5665C185.969 24.2115 185.431 24.1094 184.89 24.1626C184.557 24.1937 184.144 24.3624 184.025 24.784C183.936 25.1036 184.073 25.4231 184.282 25.5652C184.486 25.7072 184.744 25.7161 184.992 25.7294C185.241 25.7427 185.494 25.7738 185.684 25.9424C185.773 26.0223 185.849 26.1643 185.804 26.3153C185.742 26.5239 185.525 26.5638 185.365 26.5549C184.961 26.5372 184.553 26.515 184.184 26.3552C183.816 26.191 183.492 25.867 183.385 25.3832C183.141 24.3047 184.047 23.599 184.766 23.3682C185.538 23.1196 186.35 23.3149 186.883 23.9274H186.887Z" fill="#DEA58D"/>
<path d="M174.98 30.3633C175.272 32.5293 177.265 34.0472 179.427 33.7543C181.593 33.4613 183.111 31.4685 182.818 29.307C182.525 27.1411 180.532 25.6231 178.37 25.9161C176.205 26.209 174.687 28.2018 174.98 30.3633Z" fill="#ED947E"/>
<path d="M155.77 32.3072C156.063 34.4731 158.055 35.991 160.217 35.6981C162.383 35.4052 163.901 33.4123 163.608 31.2508C163.315 29.0849 161.322 27.567 159.16 27.8599C156.995 28.1528 155.477 30.1457 155.77 32.3072Z" fill="#ED947E"/>
<path d="M172.703 25.7093C172.791 26.8671 173.175 27.8476 174.245 27.7652C175.187 27.6944 175.546 26.6568 175.457 25.4989C175.369 24.3411 174.938 23.4294 173.919 23.5055C173.003 23.5745 172.614 24.5486 172.702 25.7064L172.703 25.7093Z" fill="#472A28"/>
<path d="M174.358 24.984C174.371 25.1742 174.538 25.3168 174.731 25.3034C174.921 25.2903 175.064 25.1235 175.05 24.9305C175.037 24.7402 174.87 24.5977 174.677 24.611C174.487 24.6242 174.345 24.7909 174.358 24.984Z" fill="#FDBFB0"/>
<path d="M162.792 26.7513C162.881 27.9091 163.265 28.8896 164.335 28.8072C165.277 28.7364 165.636 27.6988 165.547 26.5409C165.459 25.3831 165.028 24.4714 164.009 24.5475C163.093 24.6165 162.704 25.5905 162.792 26.7484L162.792 26.7513Z" fill="#472A28"/>
<path d="M164.445 25.9352C164.458 26.1254 164.625 26.2679 164.818 26.2546C165.008 26.2415 165.151 26.0747 165.137 25.8816C165.124 25.6914 164.957 25.5489 164.764 25.5622C164.574 25.5753 164.432 25.7421 164.445 25.9352Z" fill="#FDBFB0"/>
<path d="M175.567 22.9488C175.369 22.9625 175.171 22.8502 175.086 22.6538C174.958 22.3641 174.321 21.9505 173.721 21.8725C173.589 21.8551 173.267 21.8343 173.138 22.0024C172.97 22.2163 172.662 22.2541 172.451 22.083C172.24 21.9119 172.202 21.5995 172.37 21.3855C172.682 20.9826 173.206 20.8071 173.843 20.8891C174.644 20.9929 175.665 21.5293 175.98 22.2504C176.089 22.5016 175.978 22.7944 175.734 22.9041C175.68 22.9278 175.626 22.9415 175.57 22.9453L175.567 22.9488Z" fill="#734942"/>
<path d="M162.507 24.2545C162.463 24.2576 162.418 24.2507 162.372 24.234C162.163 24.1556 162.039 23.8756 162.094 23.6163C162.256 22.8621 162.995 22.2007 163.617 22.0019C164.11 21.8417 164.545 21.9543 164.844 22.3118C165.003 22.5031 165.012 22.8176 164.866 23.0135C164.72 23.2093 164.472 23.2099 164.312 23.0186C164.189 22.8678 163.937 22.9284 163.835 22.962C163.369 23.1136 162.914 23.5995 162.851 23.9056C162.808 24.111 162.666 24.2469 162.507 24.2578L162.507 24.2545Z" fill="#734942"/>
<path d="M170.01 38.3485C167.368 38.8037 165.587 36.3201 165.438 35.3379C165.42 35.1998 165.42 35.1012 165.464 35.0322C165.79 34.4574 166.691 34.9718 168.791 34.9436C170.891 34.9155 173.824 33.5432 174.139 34.0118C174.166 34.0508 174.187 34.1067 174.207 34.1544C174.635 35.2467 172.87 37.8438 170.018 38.3397L170.01 38.3485Z" fill="white"/>
<path d="M170.01 38.3481C167.368 38.8033 165.587 36.3196 165.438 35.3375C166.247 35.9247 167.685 36.3737 169.449 36.2561C171.271 36.1341 173.177 35.0779 174.207 34.154C174.635 35.2463 172.87 37.8434 170.018 38.3393L170.01 38.3481Z" fill="#D8424D"/>
<path d="M162.281 2.49869C160.328 1.71754 158.06 2.16138 156.196 3.14226C154.332 4.12314 152.783 5.58781 151.19 6.96371C149.601 8.34405 147.896 9.68 145.895 10.3191C146.418 12.1211 148.154 13.5015 150.027 13.5991C149.179 13.7145 148.336 13.8299 147.488 13.9453C147.475 15.6674 148.278 17.3762 149.609 18.4636C150.941 19.551 152.778 19.9948 154.461 19.6397" fill="#524033"/>
<path d="M166.041 8.65479C165.126 11.1003 165.766 14.0519 167.612 15.8982C164.971 16.8347 162.246 17.7268 159.445 17.6514C156.645 17.5759 153.72 16.3465 152.326 13.9187" fill="#524033"/>
<path d="M176.279 61.6181L181.122 152.436L208.688 153.706C208.688 153.706 210.801 82.5007 207.645 68.8216C204.49 55.1425 204.188 53.7089 204.188 53.7089L187.686 47.8369" fill="#444957"/>
<path d="M183.142 45.5425L187.962 47.2557L187.194 57.5883C187.194 57.5883 177.931 57.9345 176.511 63.5046L173.546 59.0618L182.902 49.9853" fill="#646C82"/>
<path d="M164.704 60.2199C164.704 60.2199 154.305 121.829 156.085 153.706C156.085 153.706 136.059 156.688 130.4 153.821C130.4 153.821 130.294 84.8663 130.183 71.671C130.072 58.4757 139.406 49.732 139.406 49.732L160.27 47.6948" fill="#444957"/>
<path d="M163.102 45.7686L158.291 47.7969L159.707 58.0584C159.707 58.0584 162.934 54.7518 164.704 60.2199L166.897 56.3097L163.275 49.8785" fill="#646C82"/>
<path d="M168.668 171.73C168.477 171.73 168.3 171.606 168.242 171.41L163.262 154.194C163.196 153.959 163.329 153.71 163.564 153.644C163.799 153.577 164.043 153.71 164.114 153.945L169.094 171.162C169.161 171.397 169.028 171.641 168.792 171.712C168.753 171.726 168.708 171.73 168.668 171.73Z" fill="#829DC7"/>
<path d="M96.7576 65.373C104.938 65.7769 112.669 69.8558 118.466 75.639C124.262 81.4223 131.958 88.3683 134.746 96.0645C135.962 99.4243 136.952 103.215 135.531 106.495C134.559 108.741 132.549 110.414 130.321 111.421C128.093 112.429 121.928 113.277 119.495 113.547C110.681 114.515 101.68 113.805 93.127 111.466" fill="#6E9396"/>
<path d="M89.9842 39.0532C90.0286 55.8392 82.8251 72.5231 70.5796 84.0008C68.5291 85.9226 66.1368 87.7911 63.3273 87.9598C60.0961 88.1551 57.2023 86.0513 54.8411 83.8365C47.5311 76.9659 42.3293 67.8894 40.0879 58.1161" fill="#524033"/>
<path d="M81.7465 32.8841C81.8087 30.8735 81.8708 28.8363 81.3826 26.8656C80.8944 24.895 79.7937 22.9643 77.9207 21.7304C76.5004 20.7939 74.7339 20.3146 72.9719 19.9906C71.1432 19.6577 69.2525 19.4713 67.4017 19.7109C64.5079 20.0882 61.9114 21.4952 59.8431 23.2483C57.7704 25.0015 56.1637 27.1053 54.5703 29.1869" fill="#524033"/>
<path d="M64.3972 20.5322C57.2158 22.5561 49.9147 33.1106 44.8904 38.6187C34.9351 49.5371 22.8938 58.3118 10.9412 67.0021C7.50592 69.5009 4.06617 71.9997 0.630859 74.503C3.33827 82.6563 10.1201 89.1319 18.0693 92.3941C26.0184 95.6563 35.0062 95.8916 43.3947 94.0452C49.5152 92.7004 55.4361 90.2504 60.4781 86.5221C67.4153 81.3914 72.4484 74.0281 76.0213 66.1766C79.5942 58.3251 81.8178 49.9365 84.0193 41.5924" fill="#524033"/>
<path d="M43.6697 77.9648C35.6451 82.2079 18.3531 114.906 16.7775 121.066C15.2019 127.226 15.983 134.266 20.4525 139.019C24.0032 142.796 29.4802 144.665 34.8462 144.798C40.2122 144.931 45.5027 143.48 50.4293 141.487C58.778 138.109 66.3809 133.125 72.6302 126.934" fill="#6E9396"/>
<path d="M56.7006 145.894C54.8632 150.519 52.8748 154.975 52.1513 159.897C51.4278 164.819 51.9294 170.088 54.5391 174.326C58.6846 181.055 67.6324 183.847 75.3463 182.129C83.0602 180.416 94.2893 162.853 98.7233 156.311" fill="#3F5978"/>
<path d="M119.096 142.605C119.416 156.387 102.079 212.448 92.6611 264.346C88.529 263.924 80.7885 264.128 76.6519 263.707C74.0066 227.396 82.3153 181.872 91.9421 146.764" fill="#2A3B4F"/>
<path d="M115.332 128.145L119.092 142.605C119.092 142.605 91.13 155.441 58.8673 149.334L57.9619 139.561" fill="#FDBDA1"/>
<path d="M72.0668 67.153C63.9446 66.4872 50.403 73.0916 43.6656 77.9649C43.3061 78.2268 54.6772 113.223 56.0753 120.649C57.9705 130.693 52.3515 139.982 55.3873 149.814C76.5318 151.948 99.5848 154.864 117.547 136.596C116.664 129.712 105.364 80.3794 104.294 76.8509C103.113 72.9584 98.0669 65.5108 98.0669 65.5108C94.747 64.956 81.4451 66.252 76.2078 66.9888" fill="#6E9396"/>
<path d="M64.2334 57.5483C64.6994 58.4271 65.556 69.8737 65.343 69.4787C64.5441 67.9785 66.4348 72.6344 67.6465 73.6552C68.8049 74.6361 76.3768 79.6959 78.1389 79.3319C79.4393 79.0656 82.7015 71.3784 82.6882 69.1725C82.6838 67.9519 79.6035 58.3117 79.6035 58.3117" fill="#E6A78B"/>
<path d="M55.9949 49.386C55.0672 44.9077 52.7104 38.8538 53.5671 34.3665C54.2372 30.8735 56.7094 26.7148 59.55 24.8151C71.1919 17.0391 70.8856 20.8162 72.4346 21.6861L83.0424 28.6322" fill="#524033"/>
<path d="M72.9053 22.3651C75.0535 21.2865 80.1221 20.1281 83.2689 21.8635C85.3727 23.022 90.3037 29.8216 90.5878 35.2586C90.8452 40.1364 90.8142 43.3586 87.6585 47.0869" fill="#524033"/>
<path d="M88.129 49.8341C87.3434 53.882 84.3652 60.3087 80.7213 62.6922C77.0774 65.0756 74.4943 65.6304 70.3666 64.0858C66.5496 62.6566 61.9958 57.0643 60.6288 53.4825C59.2617 49.9007 59.2795 48.365 59.8343 44.5969C60.1938 42.1335 65.4355 39.9765 67.2686 38.2145C70.7927 34.8235 69.6964 32.5244 73.4468 31.5968C74.552 31.3216 76.2297 29.3687 78.6175 30.7491C83.7927 33.7406 84.0767 34.9034 86.0607 40.3138C87.1037 43.1588 88.7104 46.8516 88.129 49.8386V49.8341Z" fill="#FDBDA1"/>
<path d="M86.673 44.9163C87.4275 43.4872 89.6689 42.9767 91.2534 43.6869C92.8379 44.397 93.699 46.0525 93.6324 47.6282C93.5658 49.2038 92.6914 50.6907 91.5375 51.8935C89.5002 54.0106 86.5132 55.3909 83.3975 55.6528" fill="#FDBDA1"/>
<path d="M91.7025 45.9638C92.4216 46.9757 92.4038 48.7245 91.7247 50.1359C91.1655 51.2943 90.2068 52.1864 89.2082 52.5725C89.0262 52.6435 88.9419 52.3728 89.0928 52.213C89.7186 51.5517 90.3045 50.8194 90.8282 50.0338C91.1655 49.5278 91.4939 48.973 91.6005 48.3738C91.7292 47.6592 91.5117 46.9802 91.1167 46.5718C90.7217 46.1635 90.1757 46.0037 89.6121 45.9993C89.2659 45.9993 88.8176 46.128 88.6534 46.5541C88.5291 46.8736 88.6401 47.2198 88.8398 47.3885C89.0395 47.5572 89.3014 47.5927 89.5544 47.6326C89.8074 47.6726 90.0692 47.7303 90.2512 47.9255C90.3355 48.0188 90.3977 48.1741 90.34 48.325C90.2556 48.5336 90.0293 48.5514 89.8606 48.5292C89.4434 48.467 89.0218 48.4049 88.6622 48.2007C88.2983 47.9966 88.0009 47.6237 87.9344 47.1133C87.7923 45.9727 88.8043 45.338 89.5721 45.1693C90.3977 44.9918 91.2143 45.2758 91.7025 45.9638Z" fill="#DEA58D"/>
<path d="M60.047 45.4315C59.2393 44.029 56.9801 43.6073 55.4267 44.3752C53.8733 45.143 53.0699 46.8296 53.1942 48.4052C53.3185 49.9808 54.2461 51.4278 55.4489 52.5862C57.566 54.6278 60.6018 55.8928 63.7265 56.0348" fill="#FDBDA1"/>
<path d="M55.0585 46.6654C54.3794 47.7039 54.4637 49.4527 55.1961 50.833C55.7997 51.9692 56.7894 52.8258 57.8014 53.1765C57.9878 53.2386 58.0633 52.9679 57.9035 52.8125C57.251 52.1734 56.643 51.4677 56.0882 50.6999C55.7287 50.2072 55.3825 49.6657 55.2538 49.071C55.0984 48.3608 55.2893 47.6729 55.6665 47.2512C56.0438 46.8296 56.5853 46.6476 57.149 46.621C57.4951 46.6077 57.9479 46.7186 58.1298 47.1358C58.2674 47.451 58.1698 47.8016 57.9745 47.9747C57.7836 48.1522 57.5218 48.1966 57.2688 48.2454C57.0158 48.2943 56.7584 48.3608 56.5853 48.565C56.5054 48.6626 56.4477 48.818 56.5143 48.9689C56.6075 49.1731 56.8338 49.1819 57.0025 49.1553C57.4153 49.0798 57.8325 49 58.1875 48.7825C58.5426 48.565 58.8267 48.1833 58.871 47.6684C58.9687 46.5233 57.939 45.9242 57.1623 45.791C56.3323 45.6445 55.5245 45.9597 55.0629 46.6654H55.0585Z" fill="#DEA58D"/>
<path d="M67.8366 49.8833C67.8455 52.1513 66.008 53.9977 63.7399 54.0021C61.4719 54.011 59.6256 52.1735 59.6211 49.9055C59.6122 47.6375 61.4497 45.7911 63.7178 45.7867C65.9858 45.7778 67.8321 47.6153 67.8366 49.8833Z" fill="#ED947E"/>
<path d="M87.308 52.4261C87.308 54.419 85.6126 56.0479 83.5265 56.0656C81.4405 56.0789 79.7539 54.4767 79.7539 52.4794C79.7539 50.4866 81.4494 48.8577 83.5354 48.8399C85.6214 48.8266 87.308 50.4289 87.308 52.4261Z" fill="#ED947E"/>
<path d="M77.8137 46.2723C77.811 47.4336 78.1171 48.4412 79.1898 48.4431C80.1344 48.4465 80.5738 47.4403 80.5765 46.2791C80.5792 45.1178 80.2212 44.1751 79.1998 44.1709C78.2807 44.1677 77.8164 45.1082 77.8137 46.2695L77.8137 46.2723Z" fill="#472A28"/>
<path d="M79.521 45.6796C79.5192 45.8703 79.6742 46.0255 79.8677 46.0274C80.0583 46.0292 80.2134 45.8742 80.2153 45.6807C80.2171 45.49 80.0621 45.3348 79.8687 45.3329C79.6781 45.3311 79.5229 45.4861 79.521 45.6796Z" fill="#FDBFB0"/>
<path d="M67.8527 46.533C67.8501 47.6943 68.1562 48.702 69.2288 48.7038C70.1735 48.7072 70.6129 47.7011 70.6155 46.5398C70.6182 45.3786 70.2603 44.4359 69.2388 44.4317C68.3198 44.4285 67.8554 45.369 67.8528 46.5302L67.8527 46.533Z" fill="#472A28"/>
<path d="M69.564 45.8496C69.5622 46.0402 69.7172 46.1954 69.9106 46.1973C70.1012 46.1992 70.2564 46.0441 70.2583 45.8506C70.2601 45.6599 70.1051 45.5047 69.9116 45.5028C69.721 45.501 69.5659 45.656 69.564 45.8496Z" fill="#FDBFB0"/>
<path d="M80.8867 43.7458C80.6877 43.7439 80.4998 43.6163 80.43 43.4138C80.3253 43.115 79.7232 42.6526 79.1309 42.5278C79.0007 42.5 78.6815 42.454 78.5398 42.6114C78.3552 42.8114 78.0453 42.825 77.8482 42.6378C77.651 42.4506 77.6378 42.1362 77.8223 41.9361C78.1651 41.5589 78.7013 41.4252 79.3294 41.5569C80.1203 41.7234 81.0959 42.3383 81.3529 43.0819C81.4417 43.3409 81.3085 43.6241 81.0565 43.7143C81.0009 43.7336 80.9454 43.743 80.89 43.7425L80.8867 43.7458Z" fill="#734942"/>
<path d="M67.7642 44.0214C67.7199 44.021 67.6756 44.0106 67.6315 43.9903C67.4289 43.8957 67.3273 43.6068 67.4028 43.3527C67.6239 42.6136 68.4124 42.0123 69.0478 41.8629C69.5525 41.742 69.9764 41.8884 70.2467 42.2683C70.3908 42.4715 70.3747 42.7858 70.2138 42.9695C70.0529 43.1533 69.8052 43.1344 69.6611 42.9311C69.5504 42.7712 69.2944 42.8117 69.1897 42.8372C68.7138 42.9517 68.2216 43.4004 68.1352 43.7007C68.0759 43.902 67.9233 44.0262 67.7642 44.0247L67.7642 44.0214Z" fill="#734942"/>
<path d="M74.1372 58.6613C71.4677 58.9076 69.8869 56.2916 69.816 55.3009C69.8082 55.1617 69.8166 55.0635 69.866 54.9981C70.2359 54.4506 71.0939 55.0343 73.1892 55.1712C75.2846 55.3081 78.3168 54.1705 78.5937 54.6625C78.6182 54.7035 78.6344 54.7608 78.6506 54.81C78.9913 55.9325 77.0278 58.3829 74.1454 58.6532L74.1372 58.6613Z" fill="white"/>
<path d="M74.1371 58.6609C71.4676 58.9071 69.8868 56.2912 69.8159 55.3004C70.5754 55.9493 71.9738 56.5099 73.742 56.5313C75.5675 56.5528 77.5512 55.6497 78.6506 54.8095C78.9913 55.9321 77.0278 58.3825 74.1454 58.6527L74.1371 58.6609Z" fill="#D8424D"/>
<path d="M60.5271 135.353C64.6592 133.427 73.3451 130.64 77.4773 128.713C78.8221 128.087 80.238 127.395 81.028 126.143C81.818 124.887 81.6139 122.895 80.2557 122.304C81.2499 121.807 81.8669 120.64 81.7159 119.539C81.565 118.438 80.6596 117.48 79.5633 117.267C80.4599 116.65 80.8948 115.438 80.593 114.391C80.2912 113.343 79.2748 112.549 78.1919 112.504C78.6579 110.702 77.6459 108.634 75.9416 107.893C74.2328 107.152 70.7709 108.519 69.7722 110.09C69.9276 109.06 69.537 107.156 69.2086 105.838C68.8801 104.524 68.6227 103.144 67.8371 102.039C67.0515 100.933 65.5558 100.188 64.3175 100.743C62.7507 101.444 62.5821 103.561 62.6486 105.274C62.7773 108.701 59.3909 114.976 59.524 118.403C58.3745 119.126 57.3536 119.779 56.2041 120.502" fill="#FDBDA1"/>
<path d="M68.0637 236.433C68.6451 237.219 69.2043 238.035 69.95 238.67C70.5802 239.207 71.3259 239.589 72.0671 239.966C74.6369 241.284 77.2023 242.598 79.7721 243.916C82.2931 245.208 84.8408 246.513 87.5881 247.201C87.8988 247.28 88.245 247.334 88.5823 247.343C88.2805 248.19 87.6503 248.918 86.7892 249.118C86.0347 249.291 85.2535 249.043 84.5256 248.785C75.7865 245.74 67.4334 241.59 59.7328 236.455C59.4532 236.269 59.1647 236.065 59.0315 235.758C58.8451 235.31 59.0582 234.804 59.2668 234.365C60.0213 232.789 60.8158 231.298 61.6813 229.869C64.0824 231.768 66.2395 233.974 68.0637 236.433Z" fill="#273333"/>
<path d="M77.6286 236.415C78.1257 236.531 78.6406 236.508 79.1466 236.486C80.629 236.42 82.107 236.353 83.5894 236.286C82.6263 234.746 81.4279 232.798 79.8256 230.139L66.3684 223.406C65.6228 224.272 64.926 225.142 64.2646 226.02C67.9885 229.056 71.7123 232.092 75.4361 235.124C76.0974 235.661 76.7898 236.215 77.6198 236.411L77.6286 236.415Z" fill="#FDBDA1"/>
<path d="M88.7641 246.539C88.8707 245.385 88.6532 244.16 88.0318 243.184C86.5805 240.889 85.5863 239.469 83.589 236.286C82.1066 236.353 80.6286 236.42 79.1462 236.486C78.6357 236.508 78.1209 236.531 77.6282 236.415C76.7983 236.224 76.1059 235.67 75.4445 235.128C71.7207 232.092 67.9969 229.056 64.2731 226.025C63.3411 227.272 62.4845 228.546 61.6855 229.869C64.0867 231.768 66.2438 233.974 68.0679 236.433C68.6494 237.219 69.2086 238.035 69.9543 238.67C70.5845 239.207 71.3302 239.589 72.0714 239.966C74.6412 241.284 77.2066 242.598 79.7764 243.916C82.2974 245.208 84.845 246.513 87.5924 247.2C87.9031 247.28 88.2493 247.334 88.5866 247.342C88.6798 247.081 88.7419 246.81 88.7686 246.539H88.7641Z" fill="#334242"/>
<path d="M107.76 157.239C107.409 150.612 105.998 143.48 101.049 139.05C96.9303 135.362 91.0361 134.252 85.5147 134.603C73.642 135.357 62.373 142.552 56.6963 153.013L83.4509 160.98C80.8367 171.703 68.6222 206.34 66.3675 223.406L79.8247 230.139C88.524 211.538 108.519 171.686 107.755 157.239H107.76Z" fill="#3F5978"/>
<path d="M78.7424 181.006C78.7424 181.006 78.7025 181.006 78.6803 181.006C78.4362 180.975 78.2675 180.749 78.2986 180.509C78.9155 175.937 79.102 173.55 79.2795 171.237C79.4615 168.916 79.6479 166.515 80.2648 161.917C80.2959 161.673 80.5222 161.504 80.7619 161.535C81.006 161.566 81.1747 161.792 81.1436 162.032C80.5267 166.604 80.3403 168.991 80.1627 171.304C79.9808 173.625 79.7943 176.031 79.1774 180.624C79.1463 180.846 78.9555 181.011 78.738 181.011L78.7424 181.006Z" fill="#4F7096"/>
<path d="M73.6865 31.5128C73.6865 31.5128 79.9003 32.7023 82.2881 33.2482C82.2881 33.2482 80.6193 30.9269 78.5332 30.4831C76.4472 30.0393 75.5684 30.1502 73.6865 31.5128Z" fill="#D9A28A"/>
<path d="M69.9361 83.5884C69.3635 83.5884 68.8043 83.5529 68.2495 83.4775C65.1959 83.0602 62.3864 81.418 60.7353 79.0879C58.9422 76.558 58.525 73.1893 59.6746 70.4996C59.7722 70.2733 60.0296 70.1712 60.256 70.2644C60.4823 70.362 60.5844 70.6194 60.4912 70.8458C59.4615 73.2558 59.8432 76.2873 61.4588 78.5686C62.9723 80.7035 65.5554 82.2081 68.3694 82.5898C70.9614 82.9448 73.8153 82.3945 76.4028 81.0452C76.6203 80.9298 76.8866 81.0186 77.002 81.2316C77.1174 81.4491 77.0286 81.7154 76.8156 81.8308C74.6142 82.9759 72.2263 83.5795 69.9361 83.5795V83.5884Z" fill="#B0C7C9"/>
<path d="M82.3464 81.5422C81.3389 81.5422 80.3314 81.3647 79.3816 80.9874C79.1552 80.8987 79.0398 80.6412 79.133 80.4104C79.2218 80.1841 79.4792 80.0731 79.71 80.1619C83.1054 81.5067 87.3396 80.0243 89.1549 76.8553C90.9702 73.6907 90.1047 69.2834 87.2331 67.0376C87.0422 66.8867 87.0067 66.6071 87.1576 66.4162C87.3085 66.2209 87.5881 66.1899 87.779 66.3408C90.9879 68.8485 91.9511 73.7662 89.9272 77.2991C88.4092 79.9489 85.3734 81.5422 82.3508 81.5422H82.3464Z" fill="#B0C7C9"/>
<path d="M93.6324 134.576C93.4327 134.576 93.2507 134.439 93.2019 134.239C89.0475 117.2 84.1919 100.104 78.7638 83.4241C78.6883 83.1889 78.8171 82.9403 79.0479 82.8649C79.2831 82.7894 79.5316 82.9181 79.6071 83.1489C85.0397 99.8506 89.9041 116.965 94.0629 134.026C94.1206 134.266 93.9741 134.505 93.7389 134.563C93.7034 134.572 93.6679 134.576 93.6324 134.576Z" fill="#B0C7C9"/>
<path d="M114.622 98.6343C110.064 98.5855 103.89 99.3978 99.3319 99.3445C97.8495 99.3267 96.2739 99.2868 95.0355 98.4657C93.7972 97.649 93.1625 95.7494 94.1567 94.6487C93.0427 94.6087 92.0041 93.8009 91.6846 92.7313C91.3694 91.6661 91.8 90.4189 92.7054 89.7753C91.6357 89.5845 90.7392 88.6569 90.5794 87.5828C90.4196 86.5087 91.0188 85.3636 91.9908 84.8754C90.8235 83.424 90.8901 81.1249 92.1373 79.7446C93.3889 78.3642 97.1038 78.1823 98.6617 79.1987C98.0936 78.3243 97.6675 76.4291 97.4234 75.0932C97.1793 73.7616 96.8464 72.3991 97.1038 71.0675C97.3613 69.736 98.4176 68.44 99.7757 68.4356C101.489 68.4267 102.519 70.2864 103.167 71.8753C104.463 75.0488 110.135 79.3673 111.431 82.5452C112.78 82.7272 112.833 82.9669 114.183 83.1533" fill="#FDBDA1"/>
<path d="M58.214 139.002C57.8501 139.002 57.4772 138.948 57.1177 138.828C55.9238 138.442 54.8852 137.479 54.1928 136.117C53.5981 134.945 53.3318 133.667 53.0744 132.433L51.3523 124.186C51.0993 122.966 50.7797 121.448 51.3079 120.063C51.623 119.229 52.3376 118.523 53.1676 118.212C53.82 117.968 54.4902 117.999 55.0494 118.301C55.2669 118.416 55.3468 118.687 55.227 118.9C55.1116 119.118 54.8408 119.197 54.6278 119.078C54.2062 118.851 53.7712 118.931 53.4783 119.038C52.888 119.26 52.3642 119.783 52.1379 120.374C51.7029 121.519 51.9914 122.895 52.2222 124L53.9443 132.246C54.1884 133.422 54.4458 134.643 54.9873 135.708C55.3246 136.374 56.0836 137.555 57.3929 137.976C58.467 138.322 59.6787 137.963 60.2069 137.133C60.34 136.924 60.6152 136.867 60.8194 137C61.028 137.133 61.0857 137.408 60.9525 137.612C60.3977 138.482 59.3236 138.993 58.214 138.993V139.002Z" fill="#B0C7C9"/>
<path d="M114.582 102.944C113.894 102.944 113.22 102.722 112.705 102.211C112.532 102.038 112.527 101.759 112.705 101.586C112.878 101.413 113.157 101.408 113.331 101.586C114.138 102.385 115.607 102.092 116.424 101.333C117.356 100.467 117.756 99.1135 118.022 97.9062C118.927 93.8229 118.927 89.5044 118.022 85.421C117.791 84.378 117.485 83.3084 116.797 82.5316C116.211 81.8703 115.128 81.391 114.267 81.7993C114.045 81.9058 113.783 81.8126 113.677 81.5907C113.57 81.3688 113.663 81.1025 113.885 81.0004C115.15 80.3968 116.642 81.0182 117.463 81.9458C118.284 82.8734 118.634 84.0718 118.892 85.2302C119.824 89.4378 119.824 93.8895 118.892 98.1015C118.594 99.4419 118.142 100.951 117.032 101.985C116.393 102.58 115.474 102.948 114.587 102.948L114.582 102.944Z" fill="#B0C7C9"/>
<path d="M86.6113 91.5952C86.6113 92.1145 86.1896 92.5317 85.6748 92.5317C85.1599 92.5317 84.7383 92.11 84.7383 91.5952C84.7383 91.0803 85.1599 90.6587 85.6748 90.6587C86.1896 90.6587 86.6113 91.0803 86.6113 91.5952Z" fill="#B0C7C9"/>
<path d="M88.373 98.6655C88.373 99.1848 87.9514 99.602 87.4365 99.602C86.9216 99.602 86.5 99.1804 86.5 98.6655C86.5 98.1507 86.9216 97.729 87.4365 97.729C87.9514 97.729 88.373 98.1507 88.373 98.6655Z" fill="#B0C7C9"/>
<path d="M90.1357 105.736C90.1357 106.255 89.714 106.672 89.1992 106.672C88.6843 106.672 88.2627 106.251 88.2627 105.736C88.2627 105.221 88.6843 104.799 89.1992 104.799C89.714 104.799 90.1357 105.221 90.1357 105.736Z" fill="#B0C7C9"/>
<path d="M91.9023 112.478C91.9023 112.997 91.4806 113.414 90.9658 113.414C90.4509 113.414 90.0293 112.992 90.0293 112.478C90.0293 111.963 90.4509 111.541 90.9658 111.541C91.4806 111.541 91.9023 111.963 91.9023 112.478Z" fill="#B0C7C9"/>
<path d="M93.664 119.552C93.664 120.072 93.2424 120.489 92.7275 120.489C92.2127 120.489 91.791 120.067 91.791 119.552C91.791 119.037 92.2127 118.616 92.7275 118.616C93.2424 118.616 93.664 119.037 93.664 119.552Z" fill="#B0C7C9"/>
<path d="M95.4257 126.623C95.4257 127.142 95.0041 127.559 94.4892 127.559C93.9744 127.559 93.5527 127.137 93.5527 126.623C93.5527 126.108 93.9744 125.686 94.4892 125.686C95.0041 125.686 95.4257 126.108 95.4257 126.623Z" fill="#B0C7C9"/>
<path d="M199.826 87.3208C198.228 99.837 196.226 111.519 194.624 124.035C193.678 131.443 192.733 138.979 193.958 146.342C195.059 152.96 197.935 159.271 202.205 164.442C202.839 165.214 203.674 166.031 204.668 165.92C205.653 165.809 206.283 164.851 206.772 163.985C216.696 146.351 225.493 128.078 233.091 109.322" fill="#CCCBC8"/>
<path d="M204.984 148.553C196.693 167.168 176.356 208.733 169.117 261.719C174.954 263.45 181.349 266.494 187.181 268.221C199.72 236.012 227.393 196.124 243.487 170.159" fill="#323D3C"/>
<path d="M271.182 147.554C275.412 164.025 283.809 191.738 284.972 208.702C285.74 219.9 281.807 230.827 277.937 241.368C275.039 249.255 272.141 257.142 269.242 265.029C262.935 265.513 256.304 265.655 250.082 264.528C253.082 248.67 253.597 225.572 256.597 209.714C245.932 193.878 226.621 173.94 215.955 158.104" fill="#323D3C"/>
<path d="M201.468 153.147C200.598 142.197 203.709 123.649 201.818 99.3004C201.193 91.2269 196.839 88.8835 202.591 83.1846C207.841 77.9872 217.033 74.4765 224.246 72.8831C232.492 71.0634 239.278 71.0545 247.662 72.0265C256.051 72.9985 271.594 77.8541 276.796 84.5028C280.968 89.8333 281.576 94.5468 281.918 101.307C282.26 108.066 281.177 114.346 280.138 121.035C278.088 134.226 277.258 140.497 275.207 153.688C275.207 153.688 258.825 160.75 236.047 160.865C213.269 160.976 201.468 153.147 201.468 153.147Z" fill="#CCCBC8"/>
<path d="M246.873 65.7192L248.325 76.5267C248.276 78.2266 247.583 79.7579 246.261 80.8497C245 81.8927 243.491 82.6561 241.893 83.1221C239.688 83.7657 237.366 83.8234 235.076 83.5482C233.381 83.3441 231.672 83.0067 230.158 82.23C228.046 81.1471 226.843 79.2963 226.412 77.0726C226.177 75.8432 228.121 65.9767 228.121 65.9767" fill="#E6A78B"/>
<path d="M270.587 79.6558C277.231 83.5393 282.682 86.9036 288.096 92.0522C295.633 99.2202 311.624 111.297 314.5 120.715C319.498 137.084 287.812 159.897 279.202 164.558C275.491 161.353 269.304 156.453 265.594 153.249C274.542 144.554 282.544 135.171 291.492 126.476C282.442 120.746 275.172 114.257 268.545 106.379" fill="#CCCBC8"/>
<path d="M267.835 154.252L264.861 157.008L273.751 166.085L277.755 163.417" fill="#FDBDA1"/>
<path d="M202.724 153.409L207.451 155.583L203.981 163.293L199.329 160.612" fill="#FDBDA1"/>
<path d="M226.115 70.9302C225.582 71.2852 221.632 73.5266 221.632 73.5266L224.401 86.5755L235.085 83.5485C235.085 83.5485 227.313 76.2873 228.13 72.8298" fill="#FAF9F5"/>
<path d="M247.668 72.0264C248.333 75.5194 238.955 83.5485 238.955 83.5485L249.496 87.037L253.069 72.8786C253.069 72.8786 248.178 71.7557 247.659 71.3784V72.0264H247.668Z" fill="#FAF9F5"/>
<path d="M252.798 62.0976C253.509 57.6015 255.568 51.4721 254.503 47.0515C253.673 43.6117 251.014 39.5905 248.103 37.8418C236.159 30.6605 227.766 34.9879 226.27 35.9289L224.93 42.7507L224.229 46.6254" fill="#524033"/>
<path d="M231.347 36.04C229.163 35.068 226.567 35.0635 224.379 36.0267C222.191 36.9898 220.442 38.9027 219.679 41.1707C217.699 42.7375 216.78 45.405 216.572 47.9215C216.163 52.7682 217.89 57.7526 221.205 61.3121" fill="#524033"/>
<path d="M220.868 64.064C221.84 68.0496 225.009 75.6482 229.541 77.6232C233.513 79.3542 236.775 78.7817 241.05 77.7919C247.405 76.3228 247.192 70.0114 248.382 66.3852C249.571 62.7591 249.434 58.8622 248.71 55.1428C248.235 52.7106 245.213 50.7888 243.766 48.7072C241.094 44.8724 238.378 43.7761 233.447 44.2377C226.478 44.8946 223.442 48.4053 222.479 54.4904C222.009 57.4685 220.154 61.1169 220.873 64.0551L220.868 64.064Z" fill="#FDBDA1"/>
<path d="M222.089 59.1061C221.268 57.7213 219.018 57.3219 217.478 58.103C215.938 58.8842 215.157 60.5708 215.299 62.1375C215.441 63.7043 216.377 65.1379 217.584 66.2785C219.71 68.2891 222.746 69.5186 225.858 69.6295" fill="#FDBDA1"/>
<path d="M217.135 60.3891C216.47 61.4277 216.572 63.1676 217.313 64.539C217.925 65.6664 218.92 66.5052 219.932 66.8425C220.118 66.9047 220.189 66.6339 220.029 66.4786C219.377 65.8483 218.76 65.1515 218.201 64.397C217.841 63.9088 217.491 63.3762 217.353 62.7859C217.193 62.0802 217.375 61.3966 217.748 60.9706C218.121 60.5445 218.658 60.3581 219.217 60.3314C219.563 60.3137 220.012 60.4202 220.198 60.8374C220.34 61.1525 220.242 61.4987 220.051 61.6763C219.861 61.8538 219.603 61.9026 219.35 61.9559C219.102 62.0091 218.84 62.0757 218.671 62.2799C218.591 62.3775 218.534 62.5329 218.605 62.6793C218.698 62.8835 218.924 62.8879 219.088 62.8569C219.497 62.777 219.914 62.6971 220.265 62.4752C220.615 62.2533 220.895 61.8716 220.935 61.3611C221.023 60.2205 219.989 59.6346 219.217 59.5059C218.387 59.3683 217.588 59.6879 217.135 60.398V60.3891Z" fill="#DEA58D"/>
<path d="M248.582 58.3562C249.319 56.9226 251.542 56.3989 253.127 57.0869C254.711 57.7793 255.586 59.417 255.537 60.9882C255.488 62.5594 254.631 64.0463 253.495 65.2535C251.489 67.3839 248.529 68.782 245.431 69.075" fill="#FDBDA1"/>
<path d="M253.601 59.3503C254.325 60.3489 254.325 62.0932 253.664 63.5002C253.118 64.6586 252.172 65.5551 251.183 65.9501C251.001 66.0212 250.916 65.7549 251.067 65.5951C251.684 64.9293 252.257 64.197 252.776 63.4114C253.109 62.9054 253.428 62.3506 253.53 61.7514C253.65 61.0369 253.428 60.3622 253.033 59.9628C252.638 59.5589 252.092 59.4035 251.533 59.408C251.187 59.408 250.748 59.5411 250.583 59.9672C250.459 60.2868 250.575 60.6285 250.774 60.7927C250.974 60.957 251.236 60.9925 251.489 61.028C251.742 61.0679 252.004 61.1167 252.186 61.312C252.27 61.4052 252.337 61.5561 252.274 61.707C252.19 61.9157 251.964 61.9378 251.8 61.9112C251.387 61.8535 250.965 61.7958 250.601 61.5961C250.237 61.3964 249.935 61.028 249.869 60.522C249.718 59.3858 250.717 58.7466 251.48 58.5735C252.301 58.3871 253.118 58.6623 253.606 59.3414L253.601 59.3503Z" fill="#DEA58D"/>
<path d="M240.744 64.876C240.846 67.1307 242.754 68.8794 245.009 68.7773C247.263 68.6752 249.012 66.7667 248.91 64.512C248.808 62.2573 246.9 60.5086 244.645 60.6107C242.39 60.7128 240.641 62.6213 240.744 64.876Z" fill="#ED947E"/>
<path d="M220.785 65.1025C220.887 67.3572 222.795 69.106 225.05 69.0039C227.305 68.9018 229.053 66.9933 228.951 64.7386C228.849 62.4839 226.941 60.7352 224.686 60.8373C222.431 60.9393 220.682 62.8478 220.785 65.1025Z" fill="#ED947E"/>
<path d="M238.114 59.5721C238.112 60.7334 238.418 61.741 239.491 61.7429C240.435 61.7463 240.875 60.7401 240.877 59.5789C240.88 58.4176 240.522 57.4749 239.501 57.4707C238.582 57.4676 238.117 58.408 238.114 59.5693L238.114 59.5721Z" fill="#472A28"/>
<path d="M239.822 58.9795C239.82 59.1701 239.975 59.3253 240.168 59.3272C240.359 59.329 240.514 59.174 240.516 58.9805C240.518 58.7898 240.363 58.6346 240.169 58.6327C239.979 58.6309 239.824 58.7859 239.822 58.9795Z" fill="#FDBFB0"/>
<path d="M228.154 59.8329C228.151 60.9941 228.457 62.0018 229.53 62.0036C230.474 62.007 230.914 61.0009 230.916 59.8396C230.919 58.6784 230.561 57.7357 229.54 57.7315C228.621 57.7283 228.156 58.6688 228.154 59.83L228.154 59.8329Z" fill="#472A28"/>
<path d="M229.865 59.1494C229.863 59.3401 230.018 59.4952 230.211 59.4971C230.402 59.499 230.557 59.3439 230.559 59.1504C230.561 58.9597 230.406 58.8045 230.212 58.8026C230.022 58.8008 229.867 58.9558 229.865 59.1494Z" fill="#FDBFB0"/>
<path d="M241.187 57.0456C240.989 57.0437 240.801 56.9161 240.731 56.7136C240.626 56.4148 240.024 55.9524 239.432 55.8276C239.301 55.7999 238.982 55.7538 238.841 55.9112C238.656 56.1112 238.346 56.1248 238.149 55.9376C237.952 55.7504 237.939 55.436 238.123 55.2359C238.466 54.8587 239.002 54.725 239.63 54.8568C240.421 55.0232 241.397 55.6381 241.654 56.3817C241.742 56.6407 241.609 56.9239 241.357 57.0141C241.302 57.0335 241.246 57.0428 241.191 57.0423L241.187 57.0456Z" fill="#734942"/>
<path d="M228.065 57.3212C228.021 57.3208 227.976 57.3104 227.932 57.2901C227.73 57.1955 227.628 56.9066 227.704 56.6525C227.925 55.9134 228.713 55.3121 229.349 55.1627C229.853 55.0418 230.277 55.1882 230.547 55.5681C230.692 55.7714 230.675 56.0856 230.515 56.2693C230.354 56.4531 230.106 56.4342 229.962 56.2309C229.851 56.071 229.595 56.1115 229.491 56.137C229.015 56.2515 228.522 56.7002 228.436 57.0005C228.377 57.2018 228.224 57.326 228.065 57.3245L228.065 57.3212Z" fill="#734942"/>
<path d="M234.438 71.9611C231.768 72.2074 230.188 69.5914 230.117 68.6007C230.109 68.4615 230.117 68.3633 230.167 68.2979C230.537 67.7505 231.395 68.3341 233.49 68.471C235.585 68.6079 238.618 67.4703 238.895 67.9623C238.919 68.0033 238.935 68.0606 238.951 68.1098C239.292 69.2323 237.329 71.6827 234.446 71.953L234.438 71.9611Z" fill="white"/>
<path d="M234.438 71.9607C231.768 72.2069 230.188 69.591 230.117 68.6002C230.876 69.2491 232.275 69.8097 234.043 69.8311C235.868 69.8526 237.852 68.9495 238.951 68.1094C239.292 69.2319 237.329 71.6823 234.446 71.9525L234.438 71.9607Z" fill="#D8424D"/>
<path d="M241.294 43.2122C241.498 43.9224 241.232 44.7035 240.766 45.2761C240.3 45.8486 239.656 46.2481 239.008 46.6032C235.706 48.4185 231.965 49.426 228.201 49.5103C229.466 48.4406 230.504 47.1047 231.237 45.6223C228.463 48.7691 224.49 50.8329 220.318 51.2945C220.962 50.7841 221.202 49.9319 221.463 49.1508C222.848 45.0453 225.893 41.5301 229.754 39.5728" fill="#524033"/>
<path d="M241.787 35.1966C238.365 31.9744 234.295 31.3352 230.593 31.8545C226.891 32.3694 223.385 34.1936 220.837 36.9276C219.595 38.2591 218.574 39.8126 217.988 41.5391C217.402 43.2612 217.273 45.1608 217.771 46.914C219.936 43.5674 223.27 41.0464 226.98 39.5862C230.691 38.126 234.761 37.6954 238.733 38.0328" fill="#524033"/>
<path d="M236.389 160.306C236.389 160.306 236.367 160.306 236.354 160.306C236.11 160.288 235.928 160.071 235.946 159.827C238.111 132.77 238.333 107.862 236.598 85.7989C236.58 85.5548 236.762 85.3417 237.006 85.3196C237.246 85.3018 237.463 85.4838 237.486 85.7279C239.226 107.835 239.004 132.788 236.833 159.893C236.815 160.124 236.62 160.302 236.389 160.302V160.306Z" fill="#E6E5E1"/>
<path d="M280.112 118.146C280.019 118.146 279.93 118.119 279.85 118.061C274.027 113.774 268.63 107.338 265.421 100.84C261.91 93.73 261.644 85.8474 264.711 79.7446C264.822 79.5272 265.088 79.4384 265.306 79.5493C265.523 79.6603 265.612 79.9266 265.501 80.1441C262.558 85.9983 262.825 93.588 266.216 100.45C269.367 106.823 274.658 113.143 280.374 117.351C280.569 117.498 280.614 117.773 280.467 117.972C280.379 118.092 280.245 118.154 280.108 118.154L280.112 118.146Z" fill="#E6E5E1"/>
<path d="M302.331 127.653C302.299 127.653 302.273 127.653 302.242 127.644C299.024 126.991 295.726 126.72 292.446 126.845C292.198 126.858 291.994 126.663 291.985 126.419C291.976 126.175 292.167 125.966 292.411 125.957C295.766 125.828 299.13 126.104 302.419 126.774C302.659 126.823 302.814 127.058 302.766 127.297C302.721 127.506 302.539 127.653 302.331 127.653Z" fill="#E6E5E1"/>
<path d="M202.426 153.2C202.426 153.2 202.404 153.2 202.391 153.2C202.147 153.182 201.965 152.969 201.983 152.725C203.172 136.662 203.003 120.245 202.844 104.373C202.808 100.991 202.773 97.6091 202.755 94.2315C202.755 93.9874 202.95 93.7876 203.194 93.7832C203.438 93.7832 203.638 93.9785 203.638 94.2226C203.66 97.6002 203.696 100.978 203.727 104.36C203.887 120.254 204.055 136.685 202.861 152.787C202.844 153.022 202.648 153.2 202.418 153.2H202.426Z" fill="#E6E5E1"/>
<path d="M203.022 105.07C202.915 105.07 202.809 105.03 202.725 104.955L199.88 102.354C199.698 102.19 199.684 101.91 199.853 101.728C200.017 101.546 200.297 101.533 200.479 101.702L203.324 104.303C203.506 104.467 203.519 104.746 203.35 104.928C203.262 105.026 203.142 105.075 203.022 105.075V105.07Z" fill="#E6E5E1"/>
<path d="M233.735 93.5303C233.731 94.0274 234.126 94.4313 234.623 94.4402C235.12 94.4446 235.524 94.0496 235.533 93.5525C235.537 93.0554 235.142 92.6515 234.645 92.6426C234.148 92.6382 233.744 93.0332 233.735 93.5303Z" fill="#E6E5E1"/>
<path d="M233.735 104.209C233.731 104.706 234.126 105.11 234.623 105.119C235.12 105.123 235.524 104.728 235.533 104.231C235.537 103.734 235.142 103.33 234.645 103.321C234.148 103.317 233.744 103.712 233.735 104.209Z" fill="#E6E5E1"/>
<path d="M233.735 114.155C233.731 114.652 234.126 115.056 234.623 115.065C235.12 115.07 235.524 114.675 235.533 114.177C235.542 113.68 235.142 113.276 234.645 113.268C234.148 113.263 233.744 113.658 233.735 114.155Z" fill="#E6E5E1"/>
<path d="M234.06 124.217C234.055 124.714 234.45 125.118 234.947 125.127C235.444 125.132 235.848 124.737 235.857 124.24C235.866 123.742 235.467 123.339 234.969 123.33C234.472 123.325 234.068 123.72 234.06 124.217Z" fill="#E6E5E1"/>
<path d="M233.615 134.607C233.611 135.105 234.006 135.508 234.503 135.517C235 135.522 235.404 135.127 235.413 134.63C235.417 134.133 235.022 133.729 234.525 133.72C234.028 133.715 233.624 134.11 233.615 134.607Z" fill="#E6E5E1"/>
<path d="M233.163 143.857C233.159 144.354 233.554 144.758 234.051 144.767C234.548 144.771 234.952 144.376 234.961 143.879C234.965 143.382 234.57 142.978 234.073 142.969C233.576 142.961 233.172 143.36 233.163 143.857Z" fill="#E6E5E1"/>
<path d="M231.942 155.344C231.938 155.841 232.333 156.245 232.83 156.254C233.327 156.258 233.731 155.863 233.74 155.366C233.744 154.869 233.349 154.465 232.852 154.456C232.355 154.452 231.951 154.847 231.942 155.344Z" fill="#E6E5E1"/>
<path d="M252.634 78.0047C253.016 78.7991 253.735 79.6202 254.698 79.6025C255.714 79.5847 256.398 78.6615 256.726 77.8005C257.055 76.9395 257.268 75.963 258.049 75.3816C258.639 74.9422 259.505 74.7691 259.864 74.1655C260.281 73.4598 259.753 72.6032 259.114 72.0484C257.822 70.9254 254.831 69.4963 253.411 71.0941C251.773 72.936 251.622 75.9142 252.629 78.0091L252.634 78.0047Z" fill="#FDBDA1"/>
<path d="M256.642 79.8997C257.023 80.6942 257.742 81.5153 258.706 81.4975C259.722 81.4798 260.406 80.5566 260.734 79.6955C261.062 78.8345 261.275 77.858 262.057 77.2766C262.647 76.8372 263.512 76.6641 263.872 76.0605C264.289 75.3548 263.761 74.4982 263.122 73.9434C261.83 72.8205 258.839 71.3913 257.418 72.9891C255.781 74.8311 255.63 77.8092 256.637 79.9041L256.642 79.8997Z" fill="#FDBDA1"/>
<path d="M261.311 81.1472C261.692 81.9417 262.411 82.7628 263.375 82.7451C264.391 82.7273 265.074 81.8041 265.403 80.9431C265.731 80.082 265.944 79.1056 266.726 78.5242C267.316 78.0848 268.181 77.9117 268.541 77.308C268.958 76.6023 268.43 75.7457 267.791 75.1909C266.499 74.068 263.508 72.6389 262.087 74.2367C260.45 76.0786 260.299 79.0568 261.306 81.1517L261.311 81.1472Z" fill="#FDBDA1"/>
<path d="M266.384 80.0021C266.677 80.6501 267.276 81.1782 267.99 81.4578C269.153 81.9061 270.622 81.6487 271.47 80.8098C272.318 79.971 272.451 78.5995 271.732 77.6675C269.872 75.2441 265.021 76.9884 266.379 80.0065L266.384 80.0021Z" fill="#FDBDA1"/>
</g>
<defs>
<clipPath id="clip0_1877_6459">
<rect width="367.37" height="280" fill="white" transform="translate(0.630859)"/>
</clipPath>
</defs>
</svg>
