<svg width="205" height="151" viewBox="0 0 205 151" fill="none" xmlns="http://www.w3.org/2000/svg">
<path d="M119.71 46.8545C120.905 42.3931 126.482 40.8988 129.748 44.1648L198.334 112.751C201.6 116.016 200.106 121.593 195.644 122.789L101.954 147.893C97.493 149.088 93.4105 145.006 94.6059 140.544L119.71 46.8545Z" fill="#E5E1FF"/>
<path d="M188.571 30.2503C190.749 28.073 194.467 29.0692 195.264 32.0435L202.884 60.485C203.681 63.4593 200.96 66.181 197.985 65.384L169.544 57.7631C166.57 56.9662 165.573 53.2483 167.751 51.071L188.571 30.2503Z" fill="#E5E1FF"/>
<g clip-path="url(#clip0_34_30044)" filter="url(#filter0_d_34_30044)">
<path d="M117.308 8L106 10.6251V125.927L117.308 127.139V8Z" fill="#7564CA"/>
<path d="M117.308 8L173.142 16.4811V119.163L117.308 127.24V8Z" fill="#A494F4"/>
<g style="mix-blend-mode:overlay" clip-path="url(#clip1_34_30044)">
<path d="M130.803 100.233C131.505 100.527 132.187 100.977 132.44 101.702C132.596 102.133 132.557 102.603 132.655 103.033C133.044 104.874 135.422 105.932 135.481 107.811C135.52 109.084 134.428 110.122 133.298 110.71C132.167 111.297 130.9 111.669 129.965 112.531C129.4 113.06 129.01 113.725 128.445 114.234C126.924 115.605 124.293 115.429 122.968 113.882C122.032 112.785 121.798 111.258 121.779 109.828C121.779 107.381 122.052 103.464 123.65 101.447C125.151 99.5282 128.756 99.3911 130.803 100.233Z" fill="#CF3A3A"/>
<path d="M137.941 58.2732L139.316 53.5093L144.058 54.8905L142.683 59.6544L137.941 58.2732Z" fill="#03A678"/>
<path d="M169.169 64.8746C167.682 64.0572 165.746 63.7189 164.315 64.6491C163.614 65.1283 163.109 65.8612 162.463 66.425C161.594 67.1861 160.471 67.6653 159.714 68.5392C159.209 69.1311 158.9 69.8922 158.479 70.5687C157.469 72.2319 155.645 73.7259 155.842 75.6991C155.842 75.8118 155.87 75.9246 155.954 76.0091C156.066 76.1219 156.235 76.1219 156.375 76.0937C158.507 75.9246 160.583 75.2762 162.604 74.5997C164.091 74.1205 165.606 73.6413 167.093 73.1339C168.44 72.7111 169.814 72.2601 170.965 71.3862C171.863 70.7097 173.265 69.0747 172.901 67.8063C172.648 66.7069 170.151 65.4102 169.169 64.8746Z" fill="#CF63BD"/>
<path d="M152.84 37.3567C152.784 37.0572 152.933 36.7577 153.082 36.4956C153.417 35.8966 153.846 35.3538 154.144 34.7173C154.442 34.0996 154.572 33.3509 154.293 32.7144C153.641 31.2543 151.33 31.3666 150.399 30.0563C150.268 29.8878 150.175 29.6819 150.175 29.476C150.138 28.7085 151.126 28.3529 151.535 27.7164C152.038 26.949 151.666 25.9568 151.461 25.0583C151.163 23.7106 151.461 22.0446 152.672 21.3707C153.51 20.9027 154.554 21.0337 155.485 21.2958C158.224 22.0633 160.628 23.7854 162.677 25.7697C163.739 26.7992 164.783 27.9972 165.025 29.476C165.248 30.8987 164.652 32.3587 163.646 33.3696C163.031 33.9686 162.286 34.4178 161.559 34.8671C159.845 35.8966 158.112 36.7764 156.752 38.274C156.305 38.7606 155.933 39.0227 155.262 38.9291C154.535 38.8542 152.989 38.1991 152.84 37.3567Z" fill="#0455BF"/>
<path d="M163.956 34.448C164.301 34.4942 164.002 40.5934 163.864 41.4482C163.818 41.7023 163.864 42.0026 164.094 42.1875C164.715 40.3161 164.508 36.3424 164.646 36.2731C164.784 36.2038 164.83 38.052 164.669 38.8837C164.531 40.062 164.646 41.1247 164.37 42.1875C164.301 42.5571 164.531 42.5109 164.623 42.5571C165.083 42.7881 166.164 42.7188 166.164 42.4416C166.164 42.1643 166.187 42.2337 166.164 42.0719C166.118 41.8409 166.624 42.2799 166.716 42.0719C166.808 41.864 166.968 36.7814 167.221 36.8507C167.474 36.92 167.014 38.7682 166.945 39.7385C166.922 40.524 166.922 41.3095 166.899 42.095C167.106 42.1181 167.313 42.1181 167.428 41.9333C167.704 41.6792 167.405 40.8475 167.497 40.3623C167.842 39.0224 167.681 37.5669 167.888 36.2269C168.026 35.2566 167.865 34.2863 167.704 33.3159C167.428 31.9991 167.635 30.5205 167.175 29.4809C166.716 28.5567 165.313 29.5964 165.152 30.0584C164.991 30.5205 164.922 30.3126 164.784 30.1046C164.669 29.8967 163.979 29.4578 163.542 29.6426C163.128 29.8274 163.956 36.8738 163.864 39.5537C163.979 37.821 164.048 36.4117 163.841 34.7021C163.818 34.6097 163.795 34.4249 163.956 34.448Z" fill="#F2F2F2"/>
<path d="M162.435 93.0864L164.231 94.8905L162.435 96.6946L160.64 94.8905L162.435 93.0864Z" fill="#0455BF"/>
<path d="M156.599 52.0719L163.165 54.0169L161.257 49.1685L156.599 52.0719Z" fill="#CF63BD"/>
<path d="M156.065 45.3348C156.486 46.3496 156.009 47.5335 154.998 47.9845C153.988 48.4073 152.81 47.9281 152.361 46.9133C151.94 45.8985 152.417 44.7146 153.427 44.2636C154.465 43.8408 155.644 44.32 156.065 45.3348Z" fill="#CF3A3A"/>
<path d="M150.864 58.242C151.085 58.7313 151.758 58.9475 152.218 58.6773C152.293 58.6323 152.361 58.5782 152.415 58.5092C152.487 58.4131 152.523 58.293 152.541 58.176C152.616 57.6596 152.332 57.1133 151.868 56.8791C151.199 56.5399 150.619 57.6956 150.867 58.242H150.864Z" fill="#90EBC0"/>
<path d="M151.767 59.0495C151.635 59.0495 151.503 59.0284 151.372 58.9864C151.037 58.8783 150.768 58.6472 150.634 58.347C150.418 57.8697 150.658 57.1762 151.019 56.831C151.306 56.5548 151.656 56.4888 151.979 56.6539C152.538 56.9361 152.879 57.5935 152.789 58.2149C152.762 58.395 152.705 58.5451 152.615 58.6652C152.547 58.7553 152.457 58.8333 152.343 58.8994C152.17 58.9984 151.973 59.0525 151.767 59.0525V59.0495ZM151.091 58.1399C151.166 58.308 151.324 58.4401 151.524 58.5061C151.725 58.5691 151.931 58.5541 152.089 58.4611C152.143 58.428 152.185 58.395 152.212 58.359C152.248 58.311 152.275 58.2359 152.29 58.1429C152.349 57.7376 152.116 57.2903 151.752 57.1072C151.704 57.0832 151.56 57.0111 151.366 57.1972C151.124 57.4284 150.986 57.9057 151.091 58.1399Z" fill="#90EBC0"/>
<path d="M151.234 62.1807C150.75 62.4058 150.544 63.0843 150.816 63.5466C150.861 63.6216 150.915 63.6907 150.986 63.7417C151.082 63.8138 151.202 63.8468 151.321 63.8648C151.835 63.9338 152.379 63.6427 152.607 63.1744C152.935 62.4989 151.779 61.9285 151.237 62.1837L151.234 62.1807Z" fill="#90EBC0"/>
<path d="M151.471 64.123C151.408 64.123 151.348 64.12 151.285 64.111C151.103 64.087 150.957 64.0299 150.834 63.9399C150.744 63.8738 150.667 63.7838 150.598 63.6697C150.43 63.3905 150.395 63.0333 150.499 62.6971C150.604 62.3578 150.831 62.0847 151.127 61.9466C151.599 61.7244 152.293 61.9586 152.639 62.3158C152.917 62.601 152.986 62.9522 152.828 63.2764C152.58 63.7868 152.03 64.12 151.468 64.12L151.471 64.123ZM151.342 62.4089C151.175 62.4869 151.046 62.646 150.983 62.8502C150.921 63.0513 150.942 63.2584 151.034 63.4145C151.067 63.4686 151.1 63.5106 151.136 63.5376C151.184 63.5736 151.258 63.6007 151.354 63.6127C151.758 63.6667 152.2 63.4295 152.379 63.0603C152.403 63.0123 152.472 62.8682 152.284 62.676C152.048 62.4359 151.575 62.3008 151.342 62.4119V62.4089Z" fill="#90EBC0"/>
<path d="M148.389 61.3487C150.583 61.2767 152.777 61.1596 154.968 60.9975C154.974 60.6313 154.935 60.262 154.857 59.9018C154.842 59.8387 154.828 59.7697 154.777 59.7277C154.735 59.6886 154.672 59.6766 154.615 59.6676C153.417 59.4575 152.188 59.6016 150.98 59.7487C150.338 59.8267 149.387 59.7607 148.792 60.0128C148.544 60.1179 148.55 60.1449 148.487 60.4091C148.466 60.4902 148.425 61.3487 148.386 61.3487H148.389Z" fill="#90EBC0"/>
<path d="M148.389 61.6014L148.38 61.097C148.251 61.1 148.171 61.1991 148.153 61.2651C148.168 61.2021 148.191 60.8899 148.203 60.7218C148.224 60.4666 148.23 60.3976 148.239 60.3525L148.251 60.3075C148.323 60.0073 148.383 59.9143 148.691 59.7852C149.136 59.5961 149.74 59.572 150.275 59.548C150.52 59.536 150.75 59.527 150.945 59.503C152.155 59.3559 153.408 59.2058 154.654 59.4249C154.72 59.437 154.84 59.458 154.938 59.548C155.052 59.6501 155.079 59.7852 155.097 59.8572C155.18 60.2355 155.219 60.6227 155.213 61.01V61.2411L154.98 61.2591C152.804 61.4182 150.598 61.5353 148.419 61.6104C148.407 61.6104 148.395 61.6104 148.383 61.6104L148.389 61.6014ZM153.306 59.8152C152.538 59.8152 151.767 59.9083 151.01 59.9983C150.795 60.0253 150.556 60.0343 150.302 60.0463C149.812 60.0674 149.253 60.0914 148.891 60.2445C148.801 60.2805 148.777 60.2985 148.771 60.3015C148.771 60.3045 148.759 60.3646 148.747 60.4186L148.735 60.4666C148.73 60.4996 148.724 60.6197 148.712 60.7578C148.703 60.8839 148.694 60.992 148.685 61.085C150.687 61.013 152.714 60.9049 154.714 60.7638C154.705 60.4936 154.669 60.2235 154.612 59.9593C154.612 59.9443 154.606 59.9353 154.603 59.9233C154.591 59.9233 154.579 59.9203 154.576 59.9173C154.158 59.8452 153.733 59.8152 153.309 59.8152H153.306Z" fill="#90EBC0"/>
<path d="M160.372 104.469C162.3 104.943 164.237 105.378 166.183 105.775C166.276 105.456 166.332 105.126 166.353 104.796C166.356 104.736 166.359 104.676 166.327 104.625C166.3 104.58 166.249 104.556 166.201 104.532C165.209 104.054 164.103 103.88 163.017 103.712C162.438 103.622 161.627 103.334 161.051 103.406C160.808 103.436 160.808 103.463 160.689 103.676C160.653 103.742 160.405 104.478 160.372 104.469Z" fill="#FFB2B8"/>
<path d="M160.309 104.691L160.426 104.25C160.315 104.223 160.22 104.286 160.19 104.34C160.22 104.289 160.315 104.022 160.366 103.88C160.444 103.664 160.468 103.604 160.489 103.568L160.509 103.532C160.644 103.289 160.719 103.223 161.021 103.184C161.454 103.13 161.986 103.253 162.455 103.364C162.671 103.415 162.874 103.463 163.05 103.49C164.138 103.658 165.265 103.835 166.297 104.331C166.35 104.355 166.449 104.403 166.515 104.508C166.587 104.625 166.581 104.748 166.578 104.814C166.557 105.162 166.497 105.511 166.398 105.844L166.338 106.045L166.135 106.003C164.204 105.61 162.252 105.171 160.339 104.703C160.33 104.703 160.318 104.697 160.309 104.694V104.691ZM165.02 104.34C164.354 104.151 163.657 104.043 162.979 103.938C162.784 103.908 162.575 103.856 162.351 103.805C161.917 103.703 161.427 103.589 161.074 103.634C160.988 103.646 160.964 103.652 160.955 103.655C160.955 103.658 160.928 103.706 160.904 103.751L160.883 103.79C160.871 103.817 160.835 103.92 160.79 104.037C160.752 104.145 160.719 104.238 160.689 104.316C162.449 104.745 164.237 105.147 166.013 105.511C166.069 105.273 166.105 105.03 166.12 104.784C166.12 104.772 166.12 104.76 166.12 104.751C166.111 104.745 166.102 104.742 166.096 104.739C165.75 104.574 165.388 104.445 165.017 104.34H165.02Z" fill="#FFB2B8"/>
<path d="M159.619 107.162C161.547 107.636 163.484 108.071 165.43 108.467C165.522 108.149 165.579 107.819 165.6 107.489C165.603 107.429 165.606 107.369 165.573 107.318C165.546 107.273 165.496 107.249 165.448 107.225C164.455 106.747 163.349 106.573 162.264 106.405C161.684 106.315 160.874 106.027 160.297 106.099C160.055 106.129 160.055 106.156 159.936 106.369C159.9 106.435 159.652 107.171 159.619 107.162Z" fill="#FFB2B8"/>
<path d="M159.559 107.381L159.675 106.94C159.565 106.913 159.469 106.976 159.439 107.03C159.469 106.979 159.565 106.712 159.616 106.57C159.693 106.354 159.717 106.294 159.738 106.258L159.759 106.222C159.894 105.979 159.968 105.913 160.27 105.874C160.704 105.82 161.236 105.943 161.705 106.054C161.92 106.105 162.124 106.153 162.3 106.18C163.388 106.348 164.515 106.525 165.546 107.021C165.6 107.045 165.699 107.093 165.765 107.198C165.836 107.315 165.83 107.438 165.827 107.504C165.806 107.852 165.747 108.201 165.648 108.534L165.588 108.735L165.385 108.693C163.454 108.3 161.502 107.861 159.589 107.393C159.58 107.393 159.568 107.387 159.559 107.384V107.381ZM164.27 107.03C163.603 106.841 162.907 106.733 162.228 106.627C162.034 106.597 161.825 106.546 161.601 106.495C161.167 106.393 160.677 106.279 160.324 106.324C160.237 106.336 160.214 106.342 160.205 106.345C160.205 106.348 160.178 106.396 160.154 106.441L160.133 106.48C160.121 106.507 160.085 106.609 160.04 106.727C160.001 106.835 159.968 106.928 159.939 107.006C161.699 107.435 163.487 107.837 165.262 108.2C165.319 107.963 165.355 107.72 165.37 107.474C165.37 107.462 165.37 107.45 165.37 107.441C165.361 107.435 165.352 107.432 165.346 107.429C164.999 107.264 164.638 107.135 164.267 107.03H164.27Z" fill="#FFB2B8"/>
<path d="M132.741 70.346C133.347 69.8897 133.605 69.5355 134.11 68.9021C134.531 69.3103 134.702 69.5145 135.126 69.9227C134.456 70.4 134.364 70.6192 133.73 71.1415C134.337 71.6609 135.093 72.3033 135.592 72.9247C134.983 73.1048 134.8 73.4891 134.253 73.8163C133.892 73.2999 133.153 72.7356 132.687 72.3303C132.235 72.7446 132.017 73.2099 131.479 73.5761C131.115 73.1228 130.633 72.7506 130.269 72.2973C130.678 71.919 131.231 71.4357 131.641 71.0575C130.639 70.0098 130.188 69.4844 130.188 69.4844C130.188 69.4844 130.893 68.86 131.147 68.6769C131.297 68.5688 132.645 70.4211 132.741 70.349V70.346Z" fill="#9ACFEE"/>
<path d="M135.7 72.8107C135.189 72.1892 134.579 71.6579 133.969 71.1356C134.382 70.7753 134.758 70.3791 135.204 70.0578C135.284 70.0008 135.314 69.8837 135.237 69.8087C134.893 69.4755 134.564 69.1242 134.22 68.788C134.164 68.734 134.05 68.719 133.996 68.788C133.605 69.2803 133.222 69.7577 132.729 70.1509C132.726 70.1449 132.723 70.1419 132.72 70.1359C132.693 70.0819 132.621 70.0308 132.582 69.9858C132.46 69.8477 132.343 69.7036 132.224 69.5625C131.978 69.2683 131.742 68.9531 131.461 68.689C131.282 68.5178 131.171 68.4608 130.962 68.6139C130.651 68.8421 130.364 69.1122 130.077 69.3644C130.009 69.4244 130.023 69.5265 130.077 69.5895C130.508 70.0879 130.962 70.5652 131.413 71.0395C130.995 71.4207 130.573 71.793 130.158 72.1742C130.092 72.2373 130.104 72.3363 130.158 72.3994C130.535 72.8527 130.992 73.2279 131.369 73.6782C131.41 73.7263 131.509 73.7413 131.56 73.7022C132.011 73.375 132.313 72.9277 132.696 72.5345C133.195 72.9547 133.727 73.36 134.116 73.8854C134.164 73.9514 134.253 73.9934 134.331 73.9424C134.779 73.6572 135.12 73.2369 135.634 73.0658C135.754 73.0268 135.781 72.8947 135.703 72.8017L135.7 72.8107ZM132.794 72.2163C132.729 72.1592 132.636 72.1532 132.57 72.2163C132.191 72.5795 131.904 73.0268 131.494 73.357C131.174 72.9938 130.813 72.6666 130.49 72.3033C130.908 71.9221 131.333 71.5468 131.751 71.1656C131.814 71.1055 131.808 71.0005 131.751 70.9404C131.297 70.4661 130.842 69.9888 130.409 69.4935C130.633 69.2923 130.854 69.0822 131.1 68.9081C131.141 68.8781 131.153 68.8601 131.153 68.8481C131.159 68.8511 131.168 68.8571 131.189 68.8661C131.237 68.8841 131.3 68.9741 131.336 69.0102C131.446 69.1272 131.551 69.2473 131.656 69.3704C131.892 69.6496 132.122 69.9378 132.364 70.211C132.442 70.298 132.546 70.4451 132.672 70.4901C132.714 70.5202 132.768 70.5262 132.824 70.4811C132.824 70.4811 132.827 70.4811 132.83 70.4781C132.842 70.4691 132.854 70.4631 132.863 70.4511C133.35 70.0669 133.739 69.6196 134.125 69.1362C134.382 69.3914 134.633 69.6496 134.89 69.9047C134.445 70.253 134.053 70.6582 133.619 71.0245C133.557 71.0755 133.56 71.1986 133.619 71.2496C134.214 71.757 134.815 72.2703 135.332 72.8587C134.941 73.0478 134.645 73.348 134.286 73.6002C133.862 73.0718 133.312 72.6545 132.8 72.2133L132.794 72.2163Z" fill="#9ACFEE"/>
</g>
<g clip-path="url(#clip2_34_30044)">
<path opacity="0.3" d="M144.165 104.927C152.529 104.927 159.31 98.1462 159.31 89.782C159.31 81.4178 152.529 74.6372 144.165 74.6372C135.801 74.6372 129.02 81.4178 129.02 89.782C129.02 98.1462 135.801 104.927 144.165 104.927Z" fill="white"/>
<g clip-path="url(#clip3_34_30044)">
<path d="M138.447 98.3374L138.341 100.144L138.957 98.5287L138.447 98.3374Z" fill="#1F1C1D"/>
<path d="M142.528 84.1387L139.127 98.7627L138.107 98.4438L141.04 83.8198L142.528 84.1387Z" fill="#9C86CB"/>
<path d="M142.528 84.1387L149.075 97.6574L150.01 97.126L143.91 83.501L142.528 84.1387Z" fill="#9C86CB"/>
<path d="M142.103 79.4198C141.805 79.5048 141.763 81.7154 141.763 81.7154L142.953 81.6304C142.953 81.6516 142.401 79.3347 142.103 79.4198Z" fill="#1F1C1D"/>
<path d="M140.976 81.8855L140.53 84.6275C142.486 85.1589 144.654 84.5212 144.654 84.5212L143.697 81.7155C143.123 81.2478 141.189 81.5667 140.976 81.8855Z" fill="#263A88"/>
<path d="M147.63 88.4536C144.973 89.9415 141.742 90.2391 138.872 89.2188C138.617 89.1338 138.49 89.5377 138.745 89.6227C141.72 90.6642 145.079 90.3666 147.821 88.815C148.055 88.6874 147.863 88.3261 147.63 88.4536Z" fill="#69BAC2"/>
<path d="M149.373 97.4446C149.373 97.4446 149.691 98.635 149.798 98.635C149.904 98.635 150.053 97.3809 150.053 97.3809L149.373 97.4446Z" fill="#1F1C1D"/>
<path d="M148.459 94.4904L149.096 97.6575L150.223 97.4875L150.031 93.959L148.459 94.4904Z" fill="#BC1E33"/>
</g>
</g>
<path d="M144.12 36.2369L144.148 37.9168L135.44 37.0015L135.412 35.3217L138.69 35.6662L138.667 34.2771L140.804 34.5017L140.827 35.8908L144.12 36.2369ZM138.241 40.4884C138.253 41.2476 138.902 41.6866 139.866 41.7879C140.814 41.8876 141.466 41.5853 141.454 40.8262C141.442 40.0831 140.777 39.6424 139.829 39.5428C138.865 39.4415 138.228 39.7454 138.241 40.4884ZM143.478 41.0389C143.505 42.6703 142.03 43.6278 139.893 43.4032C137.772 43.1803 136.243 41.907 136.216 40.2757C136.19 38.6604 137.681 37.7047 139.802 37.9276C141.939 38.1521 143.451 39.4237 143.478 41.0389ZM137.367 45.8466L137.339 44.1344L147.203 45.1712L147.286 50.13L145.165 49.9071L145.111 46.6605L137.367 45.8466ZM149.062 39.2717L149.091 41.0323L147.131 40.8263L147.193 44.5574L145.072 44.3346L144.918 35.0147L147.039 35.2376L147.102 39.0657L149.062 39.2717Z" fill="#333333"/>
<path d="M134.242 39.1653L133.468 40.793C130.875 40.1334 129.007 38.7278 128.032 37.0291C127.111 38.5286 125.267 39.5441 122.687 39.6599L121.856 37.8633C125.222 37.7495 126.877 36.0047 126.848 34.2603L126.836 33.5496L129.101 33.7877L129.113 34.4984C129.142 36.2267 130.877 38.3439 134.242 39.1653ZM134.771 42.0264L134.8 43.7547L129.128 43.1586L129.213 48.2304L127.092 48.0075L127.008 42.9357L121.433 42.3498L121.404 40.6215L134.771 42.0264Z" fill="#333333"/>
</g>
<path d="M78.4025 98.3652H47.6289V117.663H78.4025V98.3652Z" fill="url(#paint0_linear_34_30044)"/>
<path d="M78.4032 117.619C78.4032 117.619 80.7671 118.436 81.111 120.628H44.9219C44.9219 120.628 45.2227 118.307 47.5866 117.619H78.4032Z" fill="url(#paint1_linear_34_30044)"/>
<path d="M115.323 99.5255H9.76383C7.35695 99.5255 5.42285 97.5914 5.42285 95.1845V28.3937C5.42285 25.9868 7.35695 24.0527 9.76383 24.0527H115.323C117.729 24.0527 119.664 25.9868 119.664 28.3937V95.1845C119.664 97.5914 117.729 99.5255 115.323 99.5255Z" fill="#A7AFC6"/>
<path d="M115.28 99.4825H9.76383C7.35695 99.4825 5.42285 97.5484 5.42285 95.1416V28.3507C5.42285 25.9439 7.35695 24.0098 9.76383 24.0098H115.28C117.686 24.0098 119.621 25.9439 119.621 28.3507V95.1416C119.621 97.5484 117.686 99.4825 115.28 99.4825Z" fill="url(#paint2_linear_34_30044)"/>
<path d="M115.28 99.4825H9.76383C7.35695 99.4825 5.42285 97.5484 5.42285 95.1416V28.3937C5.42285 25.9868 7.35695 24.0527 9.76383 24.0527H115.28C117.686 24.0527 119.621 25.9868 119.621 28.3937V95.1416C119.621 97.5054 117.643 99.4825 115.28 99.4825Z" fill="url(#paint3_linear_34_30044)"/>
<path d="M115.237 99.4396H9.76383C7.35695 99.4396 5.42285 97.5055 5.42285 95.0986V28.3507C5.42285 25.9439 7.35695 24.0098 9.76383 24.0098H115.237C117.643 24.0098 119.578 25.9439 119.578 28.3507V95.0986C119.578 97.5055 117.643 99.4396 115.237 99.4396Z" fill="url(#paint4_linear_34_30044)"/>
<path d="M115.237 99.3966H9.76383C7.35695 99.3966 5.42285 97.4625 5.42285 95.0556V28.3507C5.42285 25.9439 7.35695 24.0098 9.76383 24.0098H115.237C117.643 24.0098 119.578 25.9439 119.578 28.3507V95.0556C119.578 97.4625 117.601 99.3966 115.237 99.3966Z" fill="url(#paint5_linear_34_30044)"/>
<path d="M115.194 99.3966H9.76383C7.35695 99.3966 5.42285 97.4625 5.42285 95.0556V28.3507C5.42285 25.9439 7.35695 24.0098 9.76383 24.0098H115.194C117.601 24.0098 119.535 25.9439 119.535 28.3507V95.0556C119.535 97.4195 117.601 99.3966 115.194 99.3966Z" fill="url(#paint6_linear_34_30044)"/>
<path d="M115.194 99.3536H9.76383C7.35695 99.3536 5.42285 97.4195 5.42285 95.0126V28.3507C5.42285 25.9439 7.35695 24.0098 9.76383 24.0098H115.194C117.601 24.0098 119.535 25.9439 119.535 28.3507V95.0126C119.535 97.4195 117.558 99.3536 115.194 99.3536Z" fill="url(#paint7_linear_34_30044)"/>
<path d="M115.151 99.3106H9.76382C7.35695 99.3106 5.42285 97.3765 5.42285 94.9697V28.3507C5.42285 25.9439 7.35695 24.0098 9.76382 24.0098H115.151C117.558 24.0098 119.492 25.9439 119.492 28.3507V94.9697C119.492 97.3765 117.558 99.3106 115.151 99.3106Z" fill="url(#paint8_linear_34_30044)"/>
<path d="M115.151 99.3106H9.76382C7.35695 99.3106 5.42285 97.3765 5.42285 94.9697V28.3507C5.42285 25.9439 7.35695 24.0098 9.76382 24.0098H115.151C117.558 24.0098 119.492 25.9439 119.492 28.3507V94.9697C119.492 97.3335 117.515 99.3106 115.151 99.3106Z" fill="url(#paint9_linear_34_30044)"/>
<path d="M115.108 99.2676H9.76382C7.35695 99.2676 5.42285 97.3335 5.42285 94.9267V28.3507C5.42285 25.9439 7.35695 24.0098 9.76382 24.0098H115.108C117.515 24.0098 119.449 25.9439 119.449 28.3507V94.9267C119.449 97.3335 117.515 99.2676 115.108 99.2676Z" fill="url(#paint10_linear_34_30044)"/>
<path d="M115.108 99.2247H9.76382C7.35695 99.2247 5.42285 97.2906 5.42285 94.8837V28.3078C5.42285 25.9009 7.35695 23.9668 9.76382 23.9668H115.108C117.515 23.9668 119.449 25.9009 119.449 28.3078V94.8837C119.449 97.2906 117.472 99.2247 115.108 99.2247Z" fill="url(#paint11_linear_34_30044)"/>
<path d="M115.065 99.2247H9.76383C7.39993 99.2247 5.42285 97.2906 5.42285 94.8837V28.3507C5.42285 25.9439 7.35695 24.0098 9.76383 24.0098H115.065C117.472 24.0098 119.406 25.9439 119.406 28.3507V94.8837C119.406 97.2476 117.472 99.2247 115.065 99.2247Z" fill="url(#paint12_linear_34_30044)"/>
<path d="M115.065 99.1817H9.76381C7.39992 99.1817 5.46582 97.2476 5.46582 94.8407V28.3507C5.46582 25.9439 7.39992 24.0098 9.8068 24.0098H115.108C117.515 24.0098 119.406 25.9439 119.406 28.3507V94.8407C119.363 97.2476 117.429 99.1817 115.065 99.1817Z" fill="url(#paint13_linear_34_30044)"/>
<path d="M115.022 99.1387H9.76381C7.39992 99.1387 5.46582 97.2046 5.46582 94.7977V28.3078C5.46582 25.9009 7.39992 23.9668 9.76381 23.9668H115.022C117.429 23.9668 119.32 25.9009 119.32 28.3078V94.7977C119.363 97.2046 117.429 99.1387 115.022 99.1387Z" fill="url(#paint14_linear_34_30044)"/>
<path d="M115.022 99.1387H9.76381C7.39992 99.1387 5.46582 97.2046 5.46582 94.7977V28.3507C5.46582 25.9439 7.39992 24.0098 9.76381 24.0098H115.022C117.429 24.0098 119.32 25.9439 119.32 28.3507V94.7977C119.32 97.2046 117.386 99.1387 115.022 99.1387Z" fill="url(#paint15_linear_34_30044)"/>
<path d="M115.022 99.0957H9.76381C7.39992 99.0957 5.46582 97.1616 5.46582 94.7548V28.3078C5.46582 25.9009 7.39992 23.9668 9.76381 23.9668H115.022C117.386 23.9668 119.32 25.9009 119.32 28.3078V94.7548C119.32 97.1616 117.386 99.0957 115.022 99.0957Z" fill="url(#paint16_linear_34_30044)"/>
<path d="M114.979 99.0528H9.76381C7.39992 99.0528 5.46582 97.1187 5.46582 94.7118V28.3078C5.46582 25.9009 7.39992 23.9668 9.76381 23.9668H114.979C117.343 23.9668 119.277 25.9009 119.277 28.3078V94.7118C119.277 97.1187 117.343 99.0528 114.979 99.0528Z" fill="url(#paint17_linear_34_30044)"/>
<path d="M114.979 99.0528H9.76381C7.39992 99.0528 5.46582 97.1187 5.46582 94.7118V28.3078C5.46582 25.9009 7.39992 23.9668 9.76381 23.9668H114.979C117.343 23.9668 119.277 25.9009 119.277 28.3078V94.7118C119.277 97.1187 117.343 99.0528 114.979 99.0528Z" fill="url(#paint18_linear_34_30044)"/>
<path d="M114.936 99.0098H9.76381C7.39992 99.0098 5.46582 97.0757 5.46582 94.6688V28.3078C5.46582 25.9009 7.39992 23.9668 9.76381 23.9668H114.936C117.3 23.9668 119.234 25.9009 119.234 28.3078V94.6688C119.234 97.0757 117.3 99.0098 114.936 99.0098Z" fill="url(#paint19_linear_34_30044)"/>
<path d="M114.936 98.9668H9.76381C7.39992 98.9668 5.46582 97.0327 5.46582 94.6258V28.3078C5.46582 25.9009 7.39992 23.9668 9.76381 23.9668H114.936C117.3 23.9668 119.234 25.9009 119.234 28.3078V94.6258C119.234 97.0327 117.3 98.9668 114.936 98.9668Z" fill="url(#paint20_linear_34_30044)"/>
<path d="M114.893 98.9668H9.76381C7.39992 98.9668 5.46582 97.0327 5.46582 94.6258V28.3078C5.46582 25.9439 7.39992 23.9668 9.76381 23.9668H114.893C117.257 23.9668 119.191 25.9009 119.191 28.3078V94.6258C119.191 97.0327 117.257 98.9668 114.893 98.9668Z" fill="url(#paint21_linear_34_30044)"/>
<path d="M114.893 98.9245H9.76381C7.39992 98.9245 5.46582 96.9904 5.46582 94.5835V28.3084C5.46582 25.9445 7.39992 23.9675 9.76381 24.0105H114.893C117.257 24.0105 119.191 25.9446 119.191 28.3514V94.6265C119.191 96.9904 117.257 98.9245 114.893 98.9245Z" fill="url(#paint22_linear_34_30044)"/>
<path d="M114.85 98.8808H9.76381C7.39992 98.8808 5.46582 96.9467 5.46582 94.5828V28.3078C5.46582 25.9439 7.39992 24.0098 9.76381 24.0098H114.85C117.214 24.0098 119.148 25.9439 119.148 28.3078V94.5828C119.148 96.9467 117.214 98.8808 114.85 98.8808Z" fill="url(#paint23_linear_34_30044)"/>
<path d="M114.85 98.8808H9.76381C7.39992 98.8808 5.46582 96.9467 5.46582 94.5828V28.3507C5.46582 25.9868 7.39992 24.0527 9.76381 24.0527H114.85C117.214 24.0527 119.148 25.9868 119.148 28.3507V94.5828C119.148 96.9467 117.214 98.8808 114.85 98.8808Z" fill="url(#paint24_linear_34_30044)"/>
<path d="M114.807 98.8378H9.76381C7.39992 98.8378 5.46582 96.9037 5.46582 94.5398V28.3507C5.46582 25.9868 7.39992 24.0527 9.76381 24.0527H114.807C117.171 24.0527 119.105 25.9868 119.105 28.3507V94.5398C119.105 96.9037 117.171 98.8378 114.807 98.8378Z" fill="url(#paint25_linear_34_30044)"/>
<path d="M114.807 98.7949H9.76381C7.39992 98.7949 5.46582 96.8608 5.46582 94.4969V28.3078C5.46582 25.9439 7.39992 24.0098 9.76381 24.0098H114.807C117.171 24.0098 119.105 25.9439 119.105 28.3078V94.4969C119.105 96.8608 117.171 98.7949 114.807 98.7949Z" fill="url(#paint26_linear_34_30044)"/>
<path d="M114.764 98.7949H9.76381C7.39992 98.7949 5.46582 96.8608 5.46582 94.4969V28.3507C5.46582 25.9868 7.39992 24.0527 9.76381 24.0527H114.764C117.128 24.0527 119.062 25.9868 119.062 28.3507V94.4969C119.062 96.8608 117.128 98.7949 114.764 98.7949Z" fill="url(#paint27_linear_34_30044)"/>
<path d="M114.764 98.7519H9.76381C7.39992 98.7519 5.46582 96.8178 5.46582 94.4539V28.3078C5.46582 25.9439 7.39992 24.0098 9.76381 24.0098H114.764C117.128 24.0098 119.062 25.9439 119.062 28.3078V94.4539C119.062 96.8178 117.128 98.7519 114.764 98.7519Z" fill="url(#paint28_linear_34_30044)"/>
<path d="M114.721 98.7089H9.76381C7.39992 98.7089 5.46582 96.7748 5.46582 94.4109V28.3078C5.46582 25.9439 7.39992 24.0098 9.76381 24.0098H114.721C117.085 24.0098 119.019 25.9439 119.019 28.3078V94.4109C119.019 96.8178 117.085 98.7089 114.721 98.7089Z" fill="url(#paint29_linear_34_30044)"/>
<path d="M114.721 98.7089H9.76381C7.39992 98.7089 5.46582 96.7748 5.46582 94.4109V28.3507C5.46582 25.9868 7.39992 24.0527 9.76381 24.0527H114.721C117.085 24.0527 119.019 25.9868 119.019 28.3507V94.4109C119.019 96.7748 117.085 98.7089 114.721 98.7089Z" fill="url(#paint30_linear_34_30044)"/>
<path d="M114.678 98.6659H9.76381C7.39992 98.6659 5.46582 96.7318 5.46582 94.3679V28.3078C5.46582 25.9439 7.39992 24.0098 9.76381 24.0098H114.678C117.042 24.0098 118.976 25.9439 118.976 28.3078V94.3679C118.976 96.7318 117.042 98.6659 114.678 98.6659Z" fill="url(#paint31_linear_34_30044)"/>
<path d="M114.678 98.6229H9.76381C7.39992 98.6229 5.46582 96.6889 5.46582 94.325V28.3078C5.46582 25.9439 7.39992 24.0098 9.76381 24.0098H114.678C117.042 24.0098 118.976 25.9439 118.976 28.3078V94.325C118.976 96.7318 117.042 98.6229 114.678 98.6229Z" fill="url(#paint32_linear_34_30044)"/>
<path d="M113.26 88.2657H11.1392C9.97876 88.2657 9.0332 87.3202 9.0332 86.1597V29.942C9.0332 28.7815 9.97876 27.8359 11.1392 27.8359H113.26C114.42 27.8359 115.366 28.7815 115.366 29.942V86.1597C115.409 87.3202 114.463 88.2657 113.26 88.2657Z" fill="url(#paint33_linear_34_30044)"/>
<path opacity="0.3" d="M115.409 30.1139C115.409 30.1139 115.537 28.2657 113.131 27.8359H11.3111C11.3111 27.8359 9.0332 28.0508 9.0332 30.1139V86.4606C9.0332 86.4606 9.76386 88.4806 11.655 88.2657C11.655 88.2657 9.72088 87.1912 9.76386 86.0308V30.6726C9.76386 30.6726 9.72088 28.6096 11.698 28.6096H113.002C112.959 28.6096 114.936 28.7815 115.409 30.1139Z" fill="#3E5389"/>
<path d="M9.76383 98.6229C9.76383 98.6229 5.46583 98.537 5.46583 94.325V28.3078C5.46583 28.3078 5.42285 24.0098 10.0647 24.0098H114.85C114.85 24.0098 118.245 24.5255 118.976 27.835C118.976 27.835 117.643 24.7404 114.678 24.5255H9.84979C9.84979 24.5255 5.89563 24.7834 5.80967 28.3507V94.4969C5.85265 94.4539 5.93861 97.7633 9.76383 98.6229Z" fill="white"/>
<path d="M81.2824 71.3744C81.2824 79.9275 72.7723 86.8472 62.2852 86.8472C51.7981 86.8472 43.2881 79.9275 43.2881 71.3744V66.4747C43.2881 57.9217 51.7981 51.002 62.2852 51.002C72.7723 51.002 81.2824 57.9217 81.2824 66.4747V71.3744Z" fill="url(#paint34_radial_34_30044)"/>
<path d="M53.9475 60.199C53.9475 60.199 61.2971 58.2219 71.6982 60.199L72.6868 63.6374C72.6868 63.6374 62.8443 62.5629 53.0449 63.6374L53.9475 60.199Z" fill="url(#paint35_linear_34_30044)"/>
<path d="M50.5519 59.9844L49.5204 63.6807C49.5204 63.6807 48.6608 63.6806 46.8126 64.2824C46.7696 64.2824 46.5118 61.7036 50.5519 59.9844Z" fill="url(#paint36_linear_34_30044)"/>
<path d="M88.2443 38.4509C88.2443 50.2704 78.6598 59.8549 66.8403 59.8549H56.5681C44.7486 59.8549 35.1641 50.2704 35.1641 38.4509C35.1641 26.6314 44.7486 17.0469 56.5681 17.0469H66.8403C78.6598 17.0899 88.2443 26.6744 88.2443 38.4509Z" fill="url(#paint37_radial_34_30044)"/>
<path d="M43.8464 23.1934L44.1043 25.2994C44.1043 25.2994 42.1272 25.9011 40.7949 27.4054C40.8378 27.4054 40.6229 24.9126 43.8464 23.1934Z" fill="url(#paint38_linear_34_30044)"/>
<path d="M50.5518 20.5285C50.5518 20.5285 52.6578 19.1102 55.8813 19.411H67.0131C67.0131 19.411 70.4515 19.8408 71.2251 21.1302L50.5518 20.5285Z" fill="url(#paint39_linear_34_30044)"/>
<path d="M80.1219 37.5914C80.1219 40.9869 77.3712 43.7376 73.9758 43.7376H49.4342C46.0388 43.7376 43.2881 40.9869 43.2881 37.5914C43.2881 34.196 46.0388 31.4453 49.4342 31.4453H73.9758C77.3712 31.4453 80.1219 34.196 80.1219 37.5914Z" fill="url(#paint40_radial_34_30044)"/>
<path d="M55.9671 37.7643C55.9671 39.0967 54.8926 40.1282 53.6032 40.1282C52.2708 40.1282 51.2393 39.0537 51.2393 37.7643C51.2393 36.4319 52.3138 35.4004 53.6032 35.4004C54.8926 35.4004 55.9671 36.4749 55.9671 37.7643Z" fill="#27A3FF"/>
<path d="M71.4397 37.7643C71.4397 39.0967 70.3652 40.1282 69.0758 40.1282C67.7434 40.1282 66.7119 39.0537 66.7119 37.7643C66.7119 36.4319 67.7864 35.4004 69.0758 35.4004C70.3652 35.4004 71.4397 36.4749 71.4397 37.7643Z" fill="#27A3FF"/>
<path d="M62.2845 11.502H61.21V17.0464H62.2845V11.502Z" fill="url(#paint41_linear_34_30044)"/>
<path d="M63.6172 9.99854C63.6172 11.073 62.7576 11.8897 61.7261 11.8897C60.6516 11.8897 59.835 11.0301 59.835 9.99854C59.835 8.92404 60.6946 8.10742 61.7261 8.10742C62.8006 8.10742 63.6172 8.92404 63.6172 9.99854Z" fill="#27A3FF"/>
<path d="M87.7715 29.7695H89.3188C89.3188 29.7695 91.2958 32.6922 91.038 38.8813C91.038 38.8813 91.1239 44.4257 89.4047 47.1764H87.8145L87.7715 29.7695Z" fill="url(#paint42_linear_34_30044)"/>
<path d="M86.3966 29.7695H87.9439C87.9439 29.7695 89.921 32.6922 89.6631 38.8813C89.6631 38.8813 89.749 44.4257 88.0298 47.1764H86.4396L86.3966 29.7695Z" fill="url(#paint43_linear_34_30044)"/>
<path d="M35.8522 29.7695H34.3049C34.3049 29.7695 32.3278 32.6922 32.5857 38.8813C32.5857 38.8813 32.4997 44.4257 34.2189 47.1764H35.8092L35.8522 29.7695Z" fill="url(#paint44_linear_34_30044)"/>
<path d="M37.1842 29.7695H35.6369C35.6369 29.7695 33.6599 32.6922 33.9177 38.8813C33.9177 38.8813 33.8318 44.4257 35.551 47.1764H37.1412L37.1842 29.7695Z" fill="url(#paint45_linear_34_30044)"/>
<path d="M45.4378 58.8236C43.8476 57.3623 38.9049 60.156 34.349 65.0557C29.7931 69.9554 27.3862 75.113 28.9765 76.5743C30.5668 78.0356 35.5094 75.2419 40.0653 70.3422C44.5782 65.4425 46.9851 60.2849 45.4378 58.8236Z" fill="url(#paint46_linear_34_30044)"/>
<path d="M99.8926 80.1421H23.6891C20.2507 80.1421 17.457 77.3484 17.457 73.91V73.2653C17.457 69.8269 20.2507 67.0332 23.6891 67.0332H99.8926C103.331 67.0332 106.125 69.8269 106.125 73.2653V73.91C106.125 77.3484 103.331 80.1421 99.8926 80.1421Z" fill="#B57F1F"/>
<path d="M99.8926 80.0991H23.6891C20.2507 80.0991 17.457 77.3054 17.457 73.867V73.2653C17.457 69.8269 20.2507 67.0332 23.6891 67.0332H99.8926C103.331 67.0332 106.125 69.8269 106.125 73.2653V73.867C106.125 77.3054 103.331 80.0991 99.8926 80.0991Z" fill="#B78121"/>
<path d="M99.8926 80.0561H23.6891C20.2507 80.0561 17.457 77.2624 17.457 73.824V73.2223C17.457 69.7839 20.2507 66.9902 23.6891 66.9902H99.8926C103.331 66.9902 106.125 69.7839 106.125 73.2223V73.824C106.082 77.2624 103.288 80.0561 99.8926 80.0561Z" fill="#BA8424"/>
<path d="M99.8496 80.0131H23.6891C20.2507 80.0131 17.5 77.2194 17.5 73.824V73.2653C17.5 69.8269 20.2937 67.0762 23.6891 67.0762H99.8496C103.288 67.0762 106.039 69.8699 106.039 73.2653V73.824C106.082 77.2624 103.288 80.0131 99.8496 80.0131Z" fill="#BC8626"/>
<path d="M99.8496 79.9702H23.6891C20.2507 79.9702 17.5 77.1765 17.5 73.7811V73.2223C17.5 69.7839 20.2937 67.0332 23.6891 67.0332H99.8496C103.288 67.0332 106.039 69.8269 106.039 73.2223V73.7811C106.039 77.2194 103.288 79.9702 99.8496 79.9702Z" fill="#BE8928"/>
<path d="M99.8066 79.9272H23.6891C20.2507 79.9272 17.5 77.1335 17.5 73.7381V73.2223C17.5 69.7839 20.2937 67.0332 23.6891 67.0332H99.8496C103.288 67.0332 106.039 69.8269 106.039 73.2223V73.7381C106.039 77.1765 103.245 79.9272 99.8066 79.9272Z" fill="#C18B2B"/>
<path d="M99.8066 79.8842H23.6461C20.2077 79.8842 17.457 77.0905 17.457 73.6951V73.1793C17.457 69.741 20.2507 66.9902 23.6461 66.9902H99.8066C103.245 66.9902 105.996 69.7839 105.996 73.1793V73.6951C105.996 77.1335 103.245 79.8842 99.8066 79.8842Z" fill="#C38E2D"/>
<path d="M99.8066 79.8842H23.6461C20.2077 79.8842 17.457 77.0905 17.457 73.6951V73.1793C17.457 69.741 20.2507 66.9902 23.6461 66.9902H99.7636C103.202 66.9902 105.953 69.7839 105.953 73.1793V73.6951C105.996 77.0905 103.202 79.8842 99.8066 79.8842Z" fill="#C5902F"/>
<path d="M99.7636 79.8412H23.6461C20.2077 79.8412 17.457 77.0905 17.457 73.6521V73.1793C17.457 69.741 20.2077 66.9902 23.6461 66.9902H99.7636C103.202 66.9902 105.953 69.741 105.953 73.1793V73.6521C105.953 77.0475 103.202 79.8412 99.7636 79.8412Z" fill="#C89232"/>
<path d="M99.7636 79.7983H23.6461C20.2507 79.7983 17.457 77.0476 17.457 73.6092V73.1364C17.457 69.741 20.2077 66.9473 23.6461 66.9473H99.7636C103.159 66.9473 105.953 69.698 105.953 73.1364V73.6092C105.953 77.0046 103.159 79.7983 99.7636 79.7983Z" fill="#CA9534"/>
<path d="M99.7206 79.7553H23.6461C20.2507 79.7553 17.457 77.0046 17.457 73.5662V73.1364C17.457 69.741 20.2077 66.9473 23.6461 66.9473H99.7206C103.116 66.9473 105.91 69.698 105.91 73.1364V73.5662C105.91 76.9616 103.159 79.7553 99.7206 79.7553Z" fill="#CC9736"/>
<path d="M99.7206 79.7123H23.6461C20.2507 79.7123 17.457 76.9616 17.457 73.5232V73.0934C17.457 69.698 20.2077 66.9043 23.6461 66.9043H99.7206C103.116 66.9043 105.91 69.655 105.91 73.0934V73.5232C105.91 76.9186 103.116 79.7123 99.7206 79.7123Z" fill="#CF9A39"/>
<path d="M99.6777 79.6693H23.6032C20.2078 79.6693 17.4141 76.9186 17.4141 73.4802V73.0934C17.4141 69.698 20.1648 66.9043 23.6032 66.9043H99.6777C103.073 66.9043 105.867 69.655 105.867 73.0934V73.4802C105.867 76.9186 103.116 79.6693 99.6777 79.6693Z" fill="#D19C3B"/>
<path d="M99.6776 79.6263H23.6461C20.2507 79.6263 17.5 76.8756 17.5 73.4802V73.0934C17.5 69.698 20.2507 66.9473 23.6461 66.9473H99.6776C103.073 66.9473 105.824 69.698 105.824 73.0934V73.4802C105.867 76.8756 103.073 79.6263 99.6776 79.6263Z" fill="#D39E3D"/>
<path d="M99.6777 79.5834H23.6461C20.2507 79.5834 17.5 76.8326 17.5 73.4372V73.0934C17.5 69.698 20.2507 66.9473 23.6461 66.9473H99.6777C103.073 66.9473 105.824 69.698 105.824 73.0934V73.4372C105.824 76.8326 103.073 79.5834 99.6777 79.5834Z" fill="#D6A140"/>
<path d="M99.6347 79.5404H23.6032C20.2077 79.5404 17.457 76.7897 17.457 73.3943V73.0504C17.457 69.655 20.2077 66.9043 23.6032 66.9043H99.6347C103.03 66.9043 105.781 69.655 105.781 73.0504V73.3943C105.781 76.7897 103.03 79.5404 99.6347 79.5404Z" fill="#D8A342"/>
<path d="M99.6347 79.4974H23.6032C20.2077 79.4974 17.457 76.7467 17.457 73.3513V73.0504C17.457 69.655 20.2077 66.9043 23.6032 66.9043H99.5917C102.987 66.9043 105.738 69.655 105.738 73.0504V73.3513C105.781 76.7467 103.03 79.4974 99.6347 79.4974Z" fill="#DAA644"/>
<path d="M99.5917 79.4545H23.6032C20.2077 79.4545 17.457 76.7037 17.457 73.3083V73.0075C17.457 69.612 20.2077 66.8613 23.6032 66.8613H99.5917C102.987 66.8613 105.738 69.612 105.738 73.0075V73.3083C105.738 76.7037 102.987 79.4545 99.5917 79.4545Z" fill="#DCA846"/>
<path d="M99.5917 79.4115H23.6032C20.2077 79.4115 17.457 76.6608 17.457 73.2653V73.0075C17.457 69.612 20.2077 66.8613 23.6032 66.8613H99.5917C102.987 66.8613 105.738 69.612 105.738 73.0075V73.2653C105.738 76.6608 102.987 79.4115 99.5917 79.4115Z" fill="#DFAB49"/>
<path d="M99.5917 79.3685H23.6032C20.2077 79.3685 17.457 76.6178 17.457 73.2224V72.9645C17.457 69.5691 20.2077 66.8184 23.6032 66.8184H99.5487C102.944 66.8184 105.695 69.5691 105.695 72.9645V73.2224C105.695 76.6178 102.944 79.3685 99.5917 79.3685Z" fill="#E1AD4B"/>
<path d="M99.5487 79.3255H23.6032C20.2077 79.3255 17.457 76.5748 17.457 73.1794V72.9645C17.457 69.5691 20.2077 66.8184 23.6032 66.8184H99.5487C102.944 66.8184 105.695 69.5691 105.695 72.9645V73.1794C105.695 76.5748 102.944 79.3255 99.5487 79.3255Z" fill="#E3AF4D"/>
<path d="M99.5487 79.2826H23.6032C20.2077 79.2826 17.457 76.5318 17.457 73.1364V72.9215C17.457 69.5261 20.2077 66.7754 23.6032 66.7754H99.5487C102.944 66.7754 105.695 69.5261 105.695 72.9215V73.1364C105.652 76.5748 102.944 79.2826 99.5487 79.2826Z" fill="#E6B250"/>
<path d="M99.5057 79.2396H23.6032C20.2077 79.2396 17.457 76.4889 17.457 73.0934V72.9215C17.457 69.5261 20.2077 66.7754 23.6032 66.7754H99.5487C102.944 66.7754 105.695 69.5261 105.695 72.9215V73.0934C105.652 76.5318 102.901 79.2396 99.5057 79.2396Z" fill="#E8B452"/>
<path d="M99.5057 79.2396H23.6032C20.2077 79.2396 17.5 76.4888 17.5 73.1364V72.9645C17.5 69.5691 20.2507 66.8613 23.6032 66.8613H99.5057C102.901 66.8613 105.609 69.612 105.609 72.9645V73.1364C105.609 76.4888 102.901 79.2396 99.5057 79.2396Z" fill="#EAB754"/>
<path d="M99.4628 79.1966H23.6032C20.2077 79.1966 17.5 76.4459 17.5 73.0934V72.9645C17.5 69.5691 20.2507 66.8613 23.6032 66.8613H99.5057C102.901 66.8613 105.609 69.612 105.609 72.9645V73.0934C105.609 76.4459 102.858 79.1966 99.4628 79.1966Z" fill="#EDB957"/>
<path d="M99.4628 79.1536H23.5602C20.1648 79.1536 17.457 76.4029 17.457 73.0505V72.9215C17.457 69.5261 20.2077 66.8184 23.5602 66.8184H99.4628C102.858 66.8184 105.566 69.5691 105.566 72.9215V73.0505C105.566 76.4029 102.858 79.1536 99.4628 79.1536Z" fill="#EFBB59"/>
<path d="M99.4628 79.1106H23.5602C20.2077 79.1106 17.457 76.3599 17.457 73.0075V72.9215C17.457 69.5261 20.2077 66.8184 23.5602 66.8184H99.4198C102.815 66.8184 105.523 69.5691 105.523 72.9215V73.0075C105.566 76.3599 102.815 79.1106 99.4628 79.1106Z" fill="#F1BE5B"/>
<path d="M99.4198 79.0677H23.5602C20.2077 79.0677 17.457 76.3169 17.457 72.9645V72.8785C17.457 69.5261 20.2077 66.7754 23.5602 66.7754H99.4198C102.772 66.7754 105.523 69.5261 105.523 72.8785V72.9645C105.523 76.3169 102.815 79.0677 99.4198 79.0677Z" fill="#F4C05E"/>
<path d="M99.4198 79.0247H23.5602C20.2077 79.0247 17.457 76.274 17.457 72.9215V72.8785C17.457 69.5261 20.2077 66.7754 23.5602 66.7754H99.4198C102.772 66.7754 105.523 69.5261 105.523 72.8785V72.9215C105.523 76.274 102.772 79.0247 99.4198 79.0247Z" fill="#F6C360"/>
<path d="M99.3768 78.9817H23.5602C20.2077 78.9817 17.457 76.274 17.457 72.8785V72.8356C17.457 69.4831 20.2077 66.7324 23.5602 66.7324H99.3768C102.729 66.7324 105.48 69.4831 105.48 72.8356V72.8785C105.48 76.231 102.772 78.9817 99.3768 78.9817Z" fill="#F8C562"/>
<path d="M99.3768 78.9387H23.5602C20.2077 78.9387 17.457 76.231 17.457 72.8356C17.457 69.4831 20.1648 66.7324 23.5602 66.7324H99.3768C102.729 66.7324 105.48 69.4402 105.48 72.8356C105.48 76.231 102.729 78.9387 99.3768 78.9387Z" fill="#FBC865"/>
<path d="M99.3768 78.8958H23.5602C20.2077 78.8958 17.457 76.188 17.457 72.7926C17.457 69.4402 20.1648 66.6895 23.5602 66.6895H99.3768C102.729 66.6895 105.48 69.3972 105.48 72.7926C105.437 76.188 102.729 78.8958 99.3768 78.8958Z" fill="#FDCA67"/>
<path d="M100.537 75.9725L98.7748 74.2103C99.2476 73.6516 99.5485 72.9639 99.5485 72.1903C99.5485 70.514 98.1731 69.1387 96.4969 69.1387C94.8207 69.1387 93.4453 70.514 93.4453 72.1903C93.4453 73.8665 94.8207 75.2418 96.4969 75.2418C97.1846 75.2418 97.7863 75.0269 98.302 74.6401L100.107 76.4453C100.15 76.4882 100.236 76.5312 100.322 76.5312C100.408 76.5312 100.494 76.4882 100.537 76.4453C100.666 76.2733 100.666 76.1014 100.537 75.9725ZM94.09 72.1473C94.09 70.8149 95.1645 69.7404 96.4969 69.7404C97.8293 69.7404 98.9038 70.8149 98.9038 72.1473C98.9038 72.8349 98.6029 73.4367 98.1731 73.8665C98.1301 73.8665 98.0871 73.9094 98.0871 73.9094L98.0442 73.9524C97.6144 74.2963 97.0986 74.5112 96.4969 74.5112C95.1645 74.5541 94.09 73.4796 94.09 72.1473Z" fill="#5D8DFC"/>
<path d="M99.8933 48.1217C98.6899 46.3595 93.2315 47.9497 87.687 51.732C82.1426 55.4712 78.6612 59.9841 79.8647 61.7463C81.0681 63.5085 86.5266 61.9182 92.071 58.136C97.5724 54.3967 101.097 49.8838 99.8933 48.1217Z" fill="url(#paint47_linear_34_30044)"/>
<path d="M101.139 50.7436C100.881 50.7436 100.581 50.7006 100.323 50.6576C99.2482 50.4427 98.3886 49.841 97.8299 48.9384C97.3141 48.0358 97.1852 46.9613 97.486 45.9298C97.7869 44.9413 98.4745 44.0817 99.3771 43.5229C100.28 42.9642 101.311 42.7923 102.343 42.9642L101.913 45.2421C101.483 45.1562 100.967 45.2421 100.581 45.5C100.151 45.7579 99.8499 46.1447 99.721 46.5745C99.592 46.9613 99.635 47.3911 99.8499 47.735C100.065 48.0788 100.409 48.2937 100.795 48.3797C101.268 48.4656 101.741 48.3797 102.171 48.1218C102.73 47.778 103.073 47.2192 103.116 46.6175L105.437 46.7035C105.394 48.0788 104.621 49.3682 103.374 50.0989C102.644 50.5287 101.87 50.7436 101.139 50.7436Z" fill="url(#paint48_linear_34_30044)"/>
<path d="M21.3682 126.215V129.782C21.3682 129.782 21.3682 131.974 25.6662 132.232H101.182C101.182 132.232 104.835 132.232 105.222 130.04V126.258L21.3682 126.215Z" fill="#0E121A"/>
<path d="M101.483 128.752H26.01C23.6891 128.752 21.3682 127.505 21.3682 126.216L23.3882 117.491C23.3882 116.201 25.967 115.17 28.2879 115.17H98.4312C100.752 115.17 103.159 116.158 103.675 117.491L105.179 126.216C105.179 127.505 103.804 128.752 101.483 128.752Z" fill="#484946"/>
<path d="M34.8205 118.092H27.8577C27.7717 118.092 27.7288 118.092 27.6428 118.092C27.5998 118.092 27.5998 118.092 27.5998 118.092C27.5568 118.092 27.5139 118.092 27.4709 118.092C27.4279 118.092 27.3849 118.092 27.3419 118.049C27.299 118.049 27.299 118.049 27.256 118.049C27.213 118.049 27.213 118.049 27.17 118.006C27.127 118.006 27.127 117.963 27.0841 117.963C27.0411 117.963 27.0411 117.92 26.9981 117.92L26.9551 117.877C26.9121 117.834 26.8692 117.791 26.8262 117.791L26.7832 117.748C26.7832 117.748 26.7832 117.748 26.7832 117.705C26.7832 117.662 26.7832 117.619 26.7832 117.619V119.08C26.7832 119.123 26.7832 119.166 26.7832 119.166V119.209C26.7832 119.209 26.7832 119.252 26.8262 119.252C26.8692 119.295 26.9121 119.338 26.9551 119.338L26.9981 119.381C27.0411 119.381 27.0411 119.424 27.0841 119.424C27.127 119.424 27.127 119.424 27.17 119.467C27.213 119.467 27.213 119.467 27.256 119.51H27.299C27.3419 119.51 27.3849 119.553 27.4279 119.553C27.4709 119.553 27.5139 119.553 27.5139 119.553H27.5568C27.6428 119.553 27.6858 119.553 27.7717 119.553H34.7345C35.2932 119.553 35.766 119.295 35.766 118.995V117.533C35.852 117.834 35.3792 118.092 34.8205 118.092Z" fill="url(#paint49_linear_34_30044)"/>
<path d="M34.8205 115.256C35.3792 115.256 35.852 115.514 35.852 115.815V117.577C35.852 117.878 35.3792 118.136 34.8205 118.136H27.8577C27.299 118.136 26.7832 117.878 26.7832 117.577V115.815C26.7832 115.514 27.256 115.256 27.8577 115.256H34.8205Z" fill="#D2E5F7"/>
<path d="M45.6085 118.092H38.6458C38.5598 118.092 38.5168 118.092 38.4309 118.092C38.3879 118.092 38.3879 118.092 38.3879 118.092C38.3449 118.092 38.3019 118.092 38.259 118.092C38.216 118.092 38.173 118.092 38.13 118.049C38.087 118.049 38.087 118.049 38.0441 118.049C38.0011 118.049 38.0011 118.049 37.9581 118.006C37.9151 118.006 37.9151 117.963 37.8721 117.963C37.8292 117.963 37.8292 117.92 37.7862 117.92C37.7432 117.92 37.7432 117.877 37.7432 117.877C37.7002 117.834 37.6572 117.791 37.6143 117.791L37.5713 117.748C37.5713 117.748 37.5713 117.748 37.5713 117.705C37.5713 117.662 37.5713 117.619 37.5713 117.619V119.08C37.5713 119.123 37.5713 119.166 37.5713 119.166V119.209C37.5713 119.209 37.5713 119.252 37.6143 119.252C37.6572 119.295 37.7002 119.338 37.7432 119.338L37.7862 119.381C37.8292 119.381 37.8292 119.424 37.8721 119.424C37.9151 119.424 37.9151 119.424 37.9581 119.467C38.0011 119.467 38.0011 119.467 38.0441 119.51H38.087C38.13 119.51 38.173 119.553 38.216 119.553C38.259 119.553 38.3019 119.553 38.3019 119.553C38.3449 119.553 38.3449 119.553 38.3449 119.553C38.4309 119.553 38.4739 119.553 38.5598 119.553H45.5226C46.0813 119.553 46.5541 119.295 46.5541 118.995V117.533C46.683 117.834 46.2103 118.092 45.6085 118.092Z" fill="url(#paint50_linear_34_30044)"/>
<path d="M45.6085 115.256C46.1673 115.256 46.64 115.514 46.64 115.815V117.577C46.64 117.878 46.1673 118.136 45.6085 118.136H38.6458C38.087 118.136 37.6143 117.878 37.6143 117.577V115.815C37.6143 115.514 38.087 115.256 38.6458 115.256H45.6085Z" fill="#D2E5F7"/>
<path d="M56.4398 118.092H49.477C49.3911 118.092 49.3481 118.092 49.2621 118.092C49.2191 118.092 49.2191 118.092 49.2191 118.092C49.1762 118.092 49.1332 118.092 49.0902 118.092C49.0472 118.092 49.0042 118.092 48.9613 118.049C48.9183 118.049 48.9183 118.049 48.8753 118.049C48.8323 118.049 48.8323 118.049 48.7894 118.006C48.7464 118.006 48.7464 117.963 48.7034 117.963C48.6604 117.963 48.6604 117.92 48.6174 117.92L48.5745 117.877C48.5315 117.834 48.4885 117.791 48.4455 117.791L48.4025 117.748C48.4025 117.748 48.4025 117.748 48.4025 117.705C48.4025 117.662 48.4025 117.619 48.4025 117.619V119.08C48.4025 119.123 48.4025 119.166 48.4025 119.166V119.209C48.4025 119.209 48.4025 119.252 48.4455 119.252C48.4885 119.295 48.5315 119.338 48.5745 119.338L48.6174 119.381C48.6604 119.381 48.6604 119.424 48.7034 119.424C48.7464 119.424 48.7464 119.424 48.7894 119.467C48.8323 119.467 48.8323 119.467 48.8753 119.51H48.9183C48.9613 119.51 49.0042 119.553 49.0472 119.553C49.0902 119.553 49.1332 119.553 49.1332 119.553H49.1762C49.2621 119.553 49.3051 119.553 49.3911 119.553H56.3538C56.9126 119.553 57.3853 119.295 57.3853 118.995V117.533C57.4713 117.834 56.9985 118.092 56.4398 118.092Z" fill="url(#paint51_linear_34_30044)"/>
<path d="M56.4398 115.256C56.9985 115.256 57.4713 115.514 57.4713 115.815V117.577C57.4713 117.878 56.9985 118.136 56.4398 118.136H49.477C48.9183 118.136 48.4455 117.878 48.4455 117.577V115.815C48.4455 115.514 48.9183 115.256 49.477 115.256H56.4398Z" fill="#D2E5F7"/>
<path d="M67.2277 118.092H60.265C60.179 118.092 60.136 118.092 60.0501 118.092C60.0071 118.092 60.0071 118.092 60.0071 118.092C59.9641 118.092 59.9211 118.092 59.8782 118.092C59.8352 118.092 59.7922 118.092 59.7492 118.049C59.7063 118.049 59.7062 118.049 59.6633 118.049C59.6203 118.049 59.6203 118.049 59.5773 118.006C59.5343 118.006 59.5343 117.963 59.4913 117.963C59.4484 117.963 59.4484 117.92 59.4054 117.92L59.3624 117.877C59.3194 117.834 59.2764 117.791 59.2335 117.791L59.1905 117.748C59.1905 117.748 59.1905 117.748 59.1905 117.705C59.1905 117.662 59.1905 117.619 59.1905 117.619V119.08C59.1905 119.123 59.1905 119.166 59.1905 119.166V119.209C59.1905 119.209 59.1905 119.252 59.2335 119.252C59.2764 119.295 59.3194 119.338 59.3624 119.338L59.4054 119.381C59.4484 119.381 59.4484 119.424 59.4913 119.424C59.5343 119.424 59.5343 119.424 59.5773 119.467C59.6203 119.467 59.6203 119.467 59.6633 119.51H59.7062C59.7492 119.51 59.7922 119.553 59.8352 119.553C59.8782 119.553 59.9211 119.553 59.9211 119.553C59.9641 119.553 59.9641 119.553 59.9641 119.553C60.0501 119.553 60.0931 119.553 60.179 119.553H67.1418C67.7005 119.553 68.1733 119.295 68.1733 118.995V117.533C68.3022 117.834 67.8295 118.092 67.2277 118.092Z" fill="url(#paint52_linear_34_30044)"/>
<path d="M67.2277 115.256C67.7865 115.256 68.2592 115.514 68.2592 115.815V117.577C68.2592 117.878 67.7865 118.136 67.2277 118.136H60.265C59.7062 118.136 59.2335 117.878 59.2335 117.577V115.815C59.2335 115.514 59.7062 115.256 60.265 115.256H67.2277Z" fill="#D2E5F7"/>
<path d="M78.0587 118.092H71.096C71.01 118.092 70.967 118.092 70.8811 118.092C70.8381 118.092 70.8381 118.092 70.8381 118.092C70.7951 118.092 70.7521 118.092 70.7092 118.092C70.6662 118.092 70.6232 118.092 70.5802 118.049C70.5372 118.049 70.5372 118.049 70.4943 118.049C70.4513 118.049 70.4513 118.049 70.4083 118.006C70.3653 118.006 70.3653 117.963 70.3223 117.963C70.2794 117.963 70.2794 117.92 70.2364 117.92L70.1934 117.877C70.1504 117.834 70.1074 117.791 70.0645 117.791L70.0215 117.748C70.0215 117.748 70.0215 117.748 70.0215 117.705C70.0215 117.662 70.0215 117.619 70.0215 117.619V119.08C70.0215 119.123 70.0215 119.166 70.0215 119.166V119.209C70.0215 119.209 70.0215 119.252 70.0645 119.252C70.1074 119.295 70.1504 119.338 70.1934 119.338L70.2364 119.381C70.2794 119.381 70.2794 119.424 70.3223 119.424C70.3653 119.424 70.3653 119.424 70.4083 119.467C70.4513 119.467 70.4513 119.467 70.4943 119.51H70.5372C70.5802 119.51 70.6232 119.553 70.6662 119.553C70.7092 119.553 70.7521 119.553 70.7521 119.553H70.7951C70.8811 119.553 70.9241 119.553 71.01 119.553H77.9728C78.5745 119.553 79.0043 119.295 79.0043 118.995V117.533C79.0903 117.834 78.6175 118.092 78.0587 118.092Z" fill="url(#paint53_linear_34_30044)"/>
<path d="M78.0587 115.256C78.6604 115.256 79.0902 115.514 79.0902 115.815V117.577C79.0902 117.878 78.6175 118.136 78.0587 118.136H71.096C70.5372 118.136 70.0645 117.878 70.0645 117.577V115.815C70.0645 115.514 70.5372 115.256 71.096 115.256H78.0587Z" fill="#D2E5F7"/>
<path d="M88.8467 118.092H81.8839C81.798 118.092 81.755 118.092 81.669 118.092C81.6261 118.092 81.6261 118.092 81.6261 118.092C81.5831 118.092 81.5401 118.092 81.4971 118.092C81.4541 118.092 81.4112 118.092 81.3682 118.049C81.3252 118.049 81.3252 118.049 81.2822 118.049C81.2392 118.049 81.2392 118.049 81.1963 118.006C81.1533 118.006 81.1533 117.963 81.1103 117.963C81.0673 117.963 81.0673 117.92 81.0243 117.92L80.9814 117.877C80.9384 117.834 80.8954 117.791 80.8524 117.791L80.8094 117.748C80.8094 117.748 80.8094 117.748 80.8094 117.705C80.8094 117.662 80.8094 117.619 80.8094 117.619V119.08C80.8094 119.123 80.8094 119.166 80.8094 119.166V119.209C80.8094 119.209 80.8094 119.252 80.8524 119.252C80.8954 119.295 80.9384 119.338 80.9814 119.338L81.0243 119.381C81.0673 119.381 81.0673 119.424 81.1103 119.424C81.1533 119.424 81.1533 119.424 81.1963 119.467C81.2392 119.467 81.2392 119.467 81.2822 119.51H81.3252C81.3682 119.51 81.4112 119.553 81.4541 119.553C81.4971 119.553 81.5401 119.553 81.5401 119.553H81.5831C81.669 119.553 81.712 119.553 81.798 119.553H88.7607C89.3195 119.553 89.7923 119.295 89.7923 118.995V117.533C89.9212 117.834 89.4484 118.092 88.8467 118.092Z" fill="url(#paint54_linear_34_30044)"/>
<path d="M88.8467 115.256C89.4054 115.256 89.8782 115.514 89.8782 115.815V117.577C89.8782 117.878 89.4054 118.136 88.8467 118.136H81.8839C81.3252 118.136 80.8524 117.878 80.8524 117.577V115.815C80.8524 115.514 81.3252 115.256 81.8839 115.256H88.8467Z" fill="#D2E5F7"/>
<path d="M99.6779 118.092H92.7151C92.6292 118.092 92.5862 118.092 92.5002 118.092C92.4572 118.092 92.4572 118.092 92.4572 118.092C92.4143 118.092 92.3713 118.092 92.3283 118.092C92.2853 118.092 92.2423 118.092 92.1994 118.049C92.1564 118.049 92.1564 118.049 92.1134 118.049C92.0704 118.049 92.0704 118.049 92.0274 118.006C91.9845 118.006 91.9845 117.963 91.9415 117.963C91.8985 117.963 91.8985 117.92 91.8555 117.92L91.8125 117.877C91.7696 117.834 91.7266 117.791 91.6836 117.791L91.6406 117.748C91.6406 117.748 91.6406 117.748 91.6406 117.705C91.6406 117.662 91.6406 117.619 91.6406 117.619V119.08C91.6406 119.123 91.6406 119.166 91.6406 119.166V119.209C91.6406 119.209 91.6406 119.252 91.6836 119.252C91.7266 119.295 91.7696 119.338 91.8125 119.338L91.8555 119.381C91.8985 119.381 91.8985 119.424 91.9415 119.424C91.9845 119.424 91.9845 119.424 92.0274 119.467C92.0704 119.467 92.0704 119.467 92.1134 119.51H92.1564C92.1994 119.51 92.2423 119.553 92.2853 119.553C92.3283 119.553 92.3713 119.553 92.3713 119.553C92.4143 119.553 92.4143 119.553 92.4143 119.553C92.5002 119.553 92.5432 119.553 92.6292 119.553H99.6779C100.237 119.553 100.709 119.295 100.709 118.995V117.533C100.709 117.834 100.237 118.092 99.6779 118.092Z" fill="url(#paint55_linear_34_30044)"/>
<path d="M99.6779 115.256C100.237 115.256 100.709 115.514 100.709 115.815V117.577C100.709 117.878 100.237 118.136 99.6779 118.136H92.7151C92.1564 118.136 91.6836 117.878 91.6836 117.577V115.815C91.6836 115.514 92.1564 115.256 92.7151 115.256H99.6779Z" fill="#D2E5F7"/>
<path d="M50.6808 122.09H43.7181C43.6321 122.09 43.5891 122.09 43.5032 122.09C43.4602 122.09 43.4602 122.09 43.4602 122.09C43.4172 122.09 43.3742 122.09 43.3312 122.09C43.2882 122.09 43.2453 122.09 43.2023 122.047C43.1593 122.047 43.1593 122.047 43.1163 122.047C43.0734 122.047 43.0734 122.047 43.0304 122.004C42.9874 122.004 42.9874 121.961 42.9444 121.961C42.9014 121.961 42.9014 121.918 42.8585 121.918L42.8155 121.875C42.7725 121.832 42.7295 121.789 42.6865 121.789L42.6436 121.746V121.703C42.6436 121.66 42.6436 121.617 42.6436 121.617V123.079C42.6436 123.122 42.6436 123.164 42.6436 123.164V123.207C42.6436 123.207 42.6436 123.25 42.6865 123.25C42.7295 123.293 42.7725 123.336 42.8155 123.336L42.8585 123.379C42.9014 123.379 42.9014 123.422 42.9444 123.422C42.9874 123.422 42.9874 123.422 43.0304 123.465C43.0734 123.465 43.0734 123.465 43.1163 123.508H43.1593C43.2023 123.508 43.2453 123.551 43.2883 123.551C43.3312 123.551 43.3742 123.551 43.3742 123.551H43.4172C43.5032 123.551 43.5461 123.551 43.6321 123.551H50.6808C51.2395 123.551 51.7123 123.293 51.7123 122.993V121.531C51.7553 121.832 51.2825 122.09 50.6808 122.09Z" fill="url(#paint56_linear_34_30044)"/>
<path d="M50.6808 119.254C51.2395 119.254 51.7123 119.512 51.7123 119.813V121.575C51.7123 121.876 51.2395 122.134 50.6808 122.134H43.718C43.1593 122.134 42.6865 121.876 42.6865 121.575V119.813C42.6865 119.512 43.1593 119.254 43.718 119.254H50.6808Z" fill="#D2E5F7"/>
<path d="M61.5119 122.09H54.5491C54.4631 122.09 54.4202 122.09 54.3342 122.09C54.2912 122.09 54.2912 122.09 54.2912 122.09C54.2482 122.09 54.2053 122.09 54.1623 122.09C54.1193 122.09 54.0763 122.09 54.0333 122.047C53.9904 122.047 53.9904 122.047 53.9474 122.047C53.9044 122.047 53.9044 122.047 53.8614 122.004C53.8184 122.004 53.8184 121.961 53.7755 121.961C53.7325 121.961 53.7325 121.918 53.6895 121.918L53.6465 121.875C53.6035 121.832 53.5606 121.789 53.5176 121.789L53.4746 121.746V121.703C53.4746 121.66 53.4746 121.617 53.4746 121.617V123.079C53.4746 123.122 53.4746 123.164 53.4746 123.164V123.207C53.4746 123.207 53.4746 123.25 53.5176 123.25C53.5606 123.293 53.6035 123.336 53.6465 123.336L53.6895 123.379C53.7325 123.379 53.7325 123.422 53.7755 123.422C53.8184 123.422 53.8184 123.422 53.8614 123.465C53.9044 123.465 53.9044 123.465 53.9474 123.508H53.9904C54.0333 123.508 54.0763 123.551 54.1193 123.551C54.1623 123.551 54.2053 123.551 54.2053 123.551H54.2482C54.3342 123.551 54.3772 123.551 54.4631 123.551H61.4259C61.9846 123.551 62.4574 123.293 62.4574 122.993V121.531C62.5434 121.832 62.0706 122.09 61.5119 122.09Z" fill="url(#paint57_linear_34_30044)"/>
<path d="M61.5118 119.254C62.0706 119.254 62.5434 119.512 62.5434 119.813V121.575C62.5434 121.876 62.0706 122.134 61.5118 122.134H54.5491C53.9904 122.134 53.5176 121.876 53.5176 121.575V119.813C53.5176 119.512 53.9904 119.254 54.5491 119.254H61.5118Z" fill="#D2E5F7"/>
<path d="M72.299 122.09H65.3362C65.2503 122.09 65.2073 122.09 65.1213 122.09H65.0783C65.0354 122.09 64.9924 122.09 64.9494 122.09C64.9064 122.09 64.8634 122.09 64.8205 122.047C64.7775 122.047 64.7775 122.047 64.7345 122.047C64.6915 122.047 64.6915 122.047 64.6485 122.004C64.6056 122.004 64.6056 121.961 64.5626 121.961C64.5196 121.961 64.5196 121.918 64.4766 121.918L64.4336 121.875C64.3907 121.832 64.3477 121.789 64.3047 121.789L64.2617 121.746V121.703C64.2617 121.66 64.2617 121.617 64.2617 121.617V123.079C64.2617 123.122 64.2617 123.164 64.2617 123.164V123.207C64.2617 123.207 64.2617 123.25 64.3047 123.25C64.3477 123.293 64.3907 123.336 64.4336 123.336L64.4766 123.379C64.5196 123.379 64.5196 123.422 64.5626 123.422C64.6056 123.422 64.6056 123.422 64.6485 123.465C64.6915 123.465 64.6915 123.465 64.7345 123.508H64.7775C64.8205 123.508 64.8634 123.551 64.9064 123.551C64.9494 123.551 64.9924 123.551 64.9924 123.551H65.0354C65.1213 123.551 65.1643 123.551 65.2503 123.551H72.213C72.8147 123.551 73.2445 123.293 73.2445 122.993V121.531C73.3735 121.832 72.9007 122.09 72.299 122.09Z" fill="url(#paint58_linear_34_30044)"/>
<path d="M72.299 119.254C72.9007 119.254 73.3305 119.512 73.3305 119.813V121.575C73.3305 121.876 72.8577 122.134 72.299 122.134H65.3362C64.7775 122.134 64.3047 121.876 64.3047 121.575V119.813C64.3047 119.512 64.7775 119.254 65.3362 119.254H72.299Z" fill="#D2E5F7"/>
<path d="M83.13 122.09H76.1673C76.0813 122.09 76.0383 122.09 75.9524 122.09C75.9094 122.09 75.9094 122.09 75.9094 122.09C75.8664 122.09 75.8234 122.09 75.7804 122.09C75.7375 122.09 75.6945 122.09 75.6515 122.047C75.6085 122.047 75.6085 122.047 75.5655 122.047C75.5226 122.047 75.5226 122.047 75.4796 122.004C75.4366 122.004 75.4366 121.961 75.3936 121.961C75.3507 121.961 75.3507 121.918 75.3077 121.918L75.2647 121.875C75.2217 121.832 75.1787 121.789 75.1357 121.789L75.0928 121.746V121.703C75.0928 121.66 75.0928 121.617 75.0928 121.617V123.079C75.0928 123.122 75.0928 123.164 75.0928 123.164V123.207C75.0928 123.207 75.0928 123.25 75.1357 123.25C75.1787 123.293 75.2217 123.336 75.2647 123.336L75.3077 123.379C75.3507 123.379 75.3507 123.422 75.3936 123.422C75.4366 123.422 75.4366 123.422 75.4796 123.465C75.5226 123.465 75.5226 123.465 75.5655 123.508H75.6085C75.6515 123.508 75.6945 123.551 75.7375 123.551C75.7805 123.551 75.8234 123.551 75.8234 123.551C75.8664 123.551 75.8664 123.551 75.8664 123.551C75.9524 123.551 75.9954 123.551 76.0813 123.551H83.0441C83.6028 123.551 84.0756 123.293 84.0756 122.993V121.531C84.1615 121.832 83.6888 122.09 83.13 122.09Z" fill="url(#paint59_linear_34_30044)"/>
<path d="M83.13 119.254C83.6888 119.254 84.1615 119.512 84.1615 119.813V121.575C84.1615 121.876 83.6888 122.134 83.13 122.134H76.1673C75.6085 122.134 75.1357 121.876 75.1357 121.575V119.813C75.1357 119.512 75.6085 119.254 76.1673 119.254H83.13Z" fill="#D2E5F7"/>
<path d="M38.8181 122.09H26.139C26.053 122.09 25.9671 122.09 25.9241 122.09C25.8811 122.09 25.8811 122.09 25.8381 122.09C25.7951 122.09 25.7522 122.09 25.7092 122.09C25.6662 122.09 25.6232 122.09 25.5802 122.047C25.5373 122.047 25.5373 122.047 25.4943 122.047C25.4513 122.047 25.4513 122.047 25.4083 122.004C25.3653 122.004 25.3224 121.961 25.3224 121.961C25.2794 121.961 25.2794 121.918 25.2364 121.918C25.1934 121.918 25.1934 121.875 25.1504 121.875C25.1075 121.832 25.0645 121.789 25.0215 121.789L24.9785 121.746V121.703C24.9785 121.66 24.9355 121.617 24.9355 121.617V123.079C24.9355 123.122 24.9355 123.164 24.9785 123.164V123.207C24.9785 123.207 24.9785 123.25 25.0215 123.25C25.0645 123.293 25.1075 123.336 25.1504 123.336L25.1934 123.379C25.2364 123.379 25.2364 123.422 25.2794 123.422C25.3224 123.422 25.3224 123.422 25.3653 123.465C25.4083 123.465 25.4083 123.465 25.4513 123.508C25.4513 123.508 25.4943 123.508 25.5373 123.508C25.5802 123.508 25.6232 123.551 25.6662 123.551C25.7092 123.551 25.7522 123.551 25.7951 123.551C25.8381 123.551 25.8381 123.551 25.8811 123.551C25.9671 123.551 26.01 123.551 26.096 123.551H38.8181C39.4628 123.551 39.9785 123.293 39.9785 122.993V121.531C40.0215 121.832 39.4628 122.09 38.8181 122.09Z" fill="url(#paint60_linear_34_30044)"/>
<path d="M38.8181 119.254C39.4628 119.254 39.9785 119.512 39.9785 119.813V121.575C39.9785 121.876 39.4628 122.134 38.8181 122.134H26.139C25.4943 122.134 24.9785 121.876 24.9785 121.575V119.813C24.9785 119.512 25.4943 119.254 26.139 119.254H38.8181Z" fill="#D2E5F7"/>
<path d="M100.537 122.09H87.8148C87.7288 122.09 87.6428 122.09 87.5999 122.09C87.5569 122.09 87.5569 122.09 87.5139 122.09C87.4709 122.09 87.4279 122.09 87.385 122.09C87.342 122.09 87.299 122.09 87.256 122.047C87.213 122.047 87.213 122.047 87.1701 122.047C87.1271 122.047 87.1271 122.047 87.0841 122.004C87.0411 122.004 86.9981 121.961 86.9981 121.961C86.9552 121.961 86.9552 121.918 86.9122 121.918C86.8692 121.918 86.8692 121.875 86.8262 121.875C86.7832 121.832 86.7403 121.789 86.6973 121.789L86.6543 121.746V121.703C86.6543 121.66 86.6113 121.617 86.6113 121.617V123.079C86.6113 123.122 86.6113 123.164 86.6543 123.164V123.207C86.6543 123.207 86.6543 123.25 86.6973 123.25C86.7403 123.293 86.7832 123.336 86.8262 123.336L86.8692 123.379C86.9122 123.379 86.9122 123.422 86.9552 123.422C86.9981 123.422 86.9981 123.422 87.0411 123.465C87.0841 123.465 87.0841 123.465 87.1271 123.508C87.1271 123.508 87.1701 123.508 87.213 123.508C87.256 123.508 87.299 123.551 87.342 123.551C87.385 123.551 87.4279 123.551 87.4709 123.551C87.5139 123.551 87.5139 123.551 87.5569 123.551C87.6428 123.551 87.6858 123.551 87.7718 123.551H100.537C101.182 123.551 101.697 123.293 101.697 122.993V121.531C101.697 121.832 101.182 122.09 100.537 122.09Z" fill="url(#paint61_linear_34_30044)"/>
<path d="M100.537 119.254C101.182 119.254 101.697 119.512 101.697 119.813V121.575C101.697 121.876 101.182 122.134 100.537 122.134H87.8148C87.1701 122.134 86.6543 121.876 86.6543 121.575V119.813C86.6543 119.512 87.1701 119.254 87.8148 119.254H100.537Z" fill="#D2E5F7"/>
<path d="M32.3714 126.129H24.764C24.678 126.129 24.635 126.129 24.5491 126.129C24.5061 126.129 24.5061 126.129 24.4631 126.129C24.4201 126.129 24.3772 126.129 24.3342 126.129C24.2912 126.129 24.2482 126.129 24.2052 126.086C24.1623 126.086 24.1623 126.086 24.1193 126.086C24.0763 126.086 24.0763 126.086 24.0333 126.043C23.9903 126.043 23.9474 126 23.9474 126C23.9044 126 23.9044 125.957 23.8614 125.957C23.8184 125.957 23.8184 125.914 23.7754 125.914C23.7325 125.871 23.6895 125.828 23.6465 125.828L23.6035 125.785V125.742C23.6035 125.699 23.5605 125.656 23.5605 125.656V127.118C23.5605 127.161 23.5605 127.204 23.6035 127.204V127.247C23.6035 127.247 23.6035 127.29 23.6465 127.29C23.6895 127.332 23.7325 127.375 23.7754 127.375L23.8184 127.418C23.8614 127.418 23.8614 127.461 23.9044 127.461C23.9474 127.461 23.9474 127.461 23.9903 127.504C24.0333 127.504 24.0333 127.504 24.0763 127.547C24.0763 127.547 24.1193 127.547 24.1623 127.547C24.2052 127.547 24.2482 127.547 24.2912 127.59C24.3342 127.59 24.3772 127.59 24.4201 127.59C24.4631 127.59 24.4631 127.59 24.5061 127.59C24.5921 127.59 24.635 127.59 24.721 127.59H32.3285C32.9732 127.59 33.4889 127.332 33.4889 127.032V125.57C33.4889 125.871 32.9732 126.129 32.3714 126.129Z" fill="url(#paint62_linear_34_30044)"/>
<path d="M32.3714 123.293C33.0161 123.293 33.5319 123.551 33.5319 123.852V125.614C33.5319 125.915 33.0161 126.173 32.3714 126.173H24.764C24.1193 126.173 23.6035 125.915 23.6035 125.614V123.852C23.6035 123.551 24.1193 123.293 24.764 123.293H32.3714Z" fill="#D2E5F7"/>
<path d="M101.612 126.129H94.0043C93.9183 126.129 93.8753 126.129 93.7894 126.129C93.7464 126.129 93.7464 126.129 93.7034 126.129C93.6604 126.129 93.6175 126.129 93.5745 126.129C93.5315 126.129 93.4885 126.129 93.4455 126.086C93.4026 126.086 93.4026 126.086 93.3596 126.086C93.3166 126.086 93.3166 126.086 93.2736 126.043C93.2306 126.043 93.1877 126 93.1877 126C93.1447 126 93.1447 125.957 93.1017 125.957C93.0587 125.957 93.0587 125.914 93.0157 125.914C92.9728 125.871 92.9298 125.828 92.8868 125.828L92.8438 125.785V125.742C92.8438 125.699 92.8008 125.656 92.8008 125.656V127.118C92.8008 127.161 92.8008 127.204 92.8438 127.204V127.247C92.8438 127.247 92.8438 127.29 92.8868 127.29C92.9298 127.332 92.9728 127.375 93.0157 127.375L93.0587 127.418C93.1017 127.418 93.1017 127.461 93.1447 127.461C93.1877 127.461 93.1877 127.461 93.2306 127.504C93.2736 127.504 93.2736 127.504 93.3166 127.547C93.3166 127.547 93.3596 127.547 93.4026 127.547C93.4455 127.547 93.4885 127.547 93.5315 127.59C93.5745 127.59 93.6175 127.59 93.6604 127.59C93.7034 127.59 93.7034 127.59 93.7464 127.59C93.8324 127.59 93.8753 127.59 93.9613 127.59H101.569C102.213 127.59 102.729 127.332 102.729 127.032V125.57C102.729 125.871 102.213 126.129 101.612 126.129Z" fill="url(#paint63_linear_34_30044)"/>
<path d="M101.612 123.293C102.256 123.293 102.772 123.551 102.772 123.852V125.614C102.772 125.915 102.256 126.173 101.612 126.173H94.0043C93.3596 126.173 92.8438 125.915 92.8438 125.614V123.852C92.8438 123.551 93.3596 123.293 94.0043 123.293H101.612Z" fill="#D2E5F7"/>
<path d="M89.8352 126.129H36.755C36.6691 126.129 36.5831 126.129 36.5401 126.129C36.4971 126.129 36.4971 126.129 36.4542 126.129C36.4112 126.129 36.3682 126.129 36.3252 126.129C36.2822 126.129 36.2393 126.129 36.1963 126.086C36.1533 126.086 36.1533 126.086 36.1103 126.086C36.0673 126.086 36.0673 126.086 36.0244 126.043C35.9814 126.043 35.9384 126 35.9384 126C35.8954 126 35.8954 125.957 35.8524 125.957C35.8095 125.957 35.8095 125.914 35.7665 125.914C35.7235 125.871 35.6805 125.828 35.6375 125.828L35.5946 125.785V125.742C35.5946 125.699 35.5516 125.656 35.5516 125.656V127.118C35.5516 127.161 35.5516 127.204 35.5946 127.204V127.247C35.5946 127.247 35.5946 127.29 35.6375 127.29C35.6805 127.332 35.7235 127.375 35.7665 127.375L35.8095 127.418C35.8524 127.418 35.8524 127.461 35.8954 127.461C35.9384 127.461 35.9384 127.461 35.9814 127.504C36.0244 127.504 36.0244 127.504 36.0673 127.547C36.0673 127.547 36.1103 127.547 36.1533 127.547C36.1963 127.547 36.2393 127.547 36.2822 127.59C36.3252 127.59 36.3682 127.59 36.4112 127.59C36.4542 127.59 36.4542 127.59 36.4971 127.59C36.5831 127.59 36.6261 127.59 36.712 127.59H89.7923C90.437 127.59 90.9527 127.332 90.9527 127.032V125.57C90.9957 125.871 90.4799 126.129 89.8352 126.129Z" fill="url(#paint64_linear_34_30044)"/>
<path d="M89.8352 123.293C90.4799 123.293 90.9957 123.551 90.9957 123.852V125.614C90.9957 125.915 90.4799 126.173 89.8352 126.173H36.755C36.1103 126.173 35.5945 125.915 35.5945 125.614V123.852C35.5945 123.551 36.1103 123.293 36.755 123.293H89.8352Z" fill="#D2E5F7"/>
<path d="M18.7031 69.0963C18.7031 69.0963 20.2504 66.9903 23.5599 66.6895H99.9782C99.9782 66.6895 103.589 67.1622 104.921 70.3427C104.921 70.3427 102.471 67.635 99.7633 67.3342H23.6888C23.6888 67.3771 20.8521 67.3342 18.7031 69.0963Z" fill="url(#paint65_linear_34_30044)"/>
<defs>
<filter id="filter0_d_34_30044" x="102" y="8" width="75.142" height="127.24" filterUnits="userSpaceOnUse" color-interpolation-filters="sRGB">
<feFlood flood-opacity="0" result="BackgroundImageFix"/>
<feColorMatrix in="SourceAlpha" type="matrix" values="0 0 0 0 0 0 0 0 0 0 0 0 0 0 0 0 0 0 127 0" result="hardAlpha"/>
<feOffset dy="4"/>
<feGaussianBlur stdDeviation="2"/>
<feComposite in2="hardAlpha" operator="out"/>
<feColorMatrix type="matrix" values="0 0 0 0 0 0 0 0 0 0 0 0 0 0 0 0 0 0 0.25 0"/>
<feBlend mode="normal" in2="BackgroundImageFix" result="effect1_dropShadow_34_30044"/>
<feBlend mode="normal" in="SourceGraphic" in2="effect1_dropShadow_34_30044" result="shape"/>
</filter>
<linearGradient id="paint0_linear_34_30044" x1="63.0351" y1="96.2448" x2="63.0351" y2="117.537" gradientUnits="userSpaceOnUse">
<stop offset="0.0634921" stop-color="#B1B5D4"/>
<stop offset="0.2487" stop-color="#A4ACC0"/>
<stop offset="0.4392" stop-color="#E2E7EE"/>
<stop offset="0.5635" stop-color="white"/>
<stop offset="0.6958" stop-color="#F5F9F9"/>
<stop offset="0.8327" stop-color="#E2E7EE"/>
<stop offset="1" stop-color="#B1B3D2"/>
</linearGradient>
<linearGradient id="paint1_linear_34_30044" x1="63.0616" y1="117.813" x2="63.0616" y2="120.759" gradientUnits="userSpaceOnUse">
<stop stop-color="#E9F1F6"/>
<stop offset="0.2729" stop-color="#DAE2F5"/>
<stop offset="1" stop-color="#CAD2F3"/>
</linearGradient>
<linearGradient id="paint2_linear_34_30044" x1="121.454" y1="13.8536" x2="4.00579" y2="109.314" gradientUnits="userSpaceOnUse">
<stop stop-color="#AAB1C8"/>
<stop offset="0.3858" stop-color="#A9B1C7"/>
<stop offset="1" stop-color="#A9B1C7"/>
</linearGradient>
<linearGradient id="paint3_linear_34_30044" x1="119.953" y1="12.4647" x2="5.48748" y2="110.662" gradientUnits="userSpaceOnUse">
<stop stop-color="#ACB3C9"/>
<stop offset="0.3858" stop-color="#ABB2C9"/>
<stop offset="1" stop-color="#AAB2C9"/>
</linearGradient>
<linearGradient id="paint4_linear_34_30044" x1="118.348" y1="11.1327" x2="7.0594" y2="111.968" gradientUnits="userSpaceOnUse">
<stop stop-color="#AFB5CB"/>
<stop offset="0.3858" stop-color="#ADB4CA"/>
<stop offset="1" stop-color="#ACB4CA"/>
</linearGradient>
<linearGradient id="paint5_linear_34_30044" x1="116.632" y1="9.8621" x2="8.72669" y2="113.201" gradientUnits="userSpaceOnUse">
<stop stop-color="#B1B8CC"/>
<stop offset="0.3858" stop-color="#AFB6CB"/>
<stop offset="1" stop-color="#AEB5CC"/>
</linearGradient>
<linearGradient id="paint6_linear_34_30044" x1="114.821" y1="8.65248" x2="10.5162" y2="114.37" gradientUnits="userSpaceOnUse">
<stop stop-color="#B4BACE"/>
<stop offset="0.3858" stop-color="#B1B8CD"/>
<stop offset="1" stop-color="#B0B7CD"/>
</linearGradient>
<linearGradient id="paint7_linear_34_30044" x1="112.913" y1="7.53111" x2="12.3891" y2="115.467" gradientUnits="userSpaceOnUse">
<stop stop-color="#B6BCCF"/>
<stop offset="0.3858" stop-color="#B3B9CE"/>
<stop offset="1" stop-color="#B1B9CF"/>
</linearGradient>
<linearGradient id="paint8_linear_34_30044" x1="110.903" y1="6.49535" x2="14.3608" y2="116.451" gradientUnits="userSpaceOnUse">
<stop stop-color="#B9BED1"/>
<stop offset="0.3858" stop-color="#B5BBCF"/>
<stop offset="1" stop-color="#B3BAD0"/>
</linearGradient>
<linearGradient id="paint9_linear_34_30044" x1="108.816" y1="5.56688" x2="16.4123" y2="117.357" gradientUnits="userSpaceOnUse">
<stop stop-color="#BBC0D2"/>
<stop offset="0.3858" stop-color="#B8BDD1"/>
<stop offset="1" stop-color="#B5BCD2"/>
</linearGradient>
<linearGradient id="paint10_linear_34_30044" x1="106.647" y1="4.74225" x2="18.5561" y2="118.144" gradientUnits="userSpaceOnUse">
<stop stop-color="#BEC2D4"/>
<stop offset="0.3858" stop-color="#BABFD2"/>
<stop offset="1" stop-color="#B7BED3"/>
</linearGradient>
<linearGradient id="paint11_linear_34_30044" x1="104.403" y1="4.04727" x2="20.748" y2="118.805" gradientUnits="userSpaceOnUse">
<stop stop-color="#C0C4D5"/>
<stop offset="0.3858" stop-color="#BCC0D4"/>
<stop offset="1" stop-color="#B8BFD5"/>
</linearGradient>
<linearGradient id="paint12_linear_34_30044" x1="102.106" y1="3.47143" x2="23.0206" y2="119.344" gradientUnits="userSpaceOnUse">
<stop stop-color="#C3C6D7"/>
<stop offset="0.3858" stop-color="#BEC2D5"/>
<stop offset="1" stop-color="#BAC1D6"/>
</linearGradient>
<linearGradient id="paint13_linear_34_30044" x1="99.7615" y1="3.03852" x2="25.3271" y2="119.757" gradientUnits="userSpaceOnUse">
<stop stop-color="#C6C9D9"/>
<stop offset="0.3858" stop-color="#C0C4D6"/>
<stop offset="1" stop-color="#BCC2D7"/>
</linearGradient>
<linearGradient id="paint14_linear_34_30044" x1="97.3725" y1="2.74049" x2="27.6753" y2="120.009" gradientUnits="userSpaceOnUse">
<stop stop-color="#C8CBDA"/>
<stop offset="0.3858" stop-color="#C2C6D8"/>
<stop offset="1" stop-color="#BEC4D9"/>
</linearGradient>
<linearGradient id="paint15_linear_34_30044" x1="94.9701" y1="2.59324" x2="30.0396" y2="120.138" gradientUnits="userSpaceOnUse">
<stop stop-color="#CBCDDC"/>
<stop offset="0.3858" stop-color="#C4C7D9"/>
<stop offset="1" stop-color="#BFC6DA"/>
</linearGradient>
<linearGradient id="paint16_linear_34_30044" x1="92.5576" y1="2.58587" x2="32.4261" y2="120.113" gradientUnits="userSpaceOnUse">
<stop stop-color="#CDCFDD"/>
<stop offset="0.3858" stop-color="#C6C9DA"/>
<stop offset="1" stop-color="#C1C7DC"/>
</linearGradient>
<linearGradient id="paint17_linear_34_30044" x1="90.1442" y1="2.7349" x2="34.7863" y2="119.935" gradientUnits="userSpaceOnUse">
<stop stop-color="#D0D1DF"/>
<stop offset="0.3858" stop-color="#C8CBDC"/>
<stop offset="1" stop-color="#C3C9DD"/>
</linearGradient>
<linearGradient id="paint18_linear_34_30044" x1="87.7576" y1="3.02944" x2="37.135" y2="119.626" gradientUnits="userSpaceOnUse">
<stop stop-color="#D2D3E0"/>
<stop offset="0.3858" stop-color="#CACDDD"/>
<stop offset="1" stop-color="#C5CADF"/>
</linearGradient>
<linearGradient id="paint19_linear_34_30044" x1="85.3955" y1="3.46109" x2="39.4564" y2="119.152" gradientUnits="userSpaceOnUse">
<stop stop-color="#D5D5E2"/>
<stop offset="0.3858" stop-color="#CCCEDE"/>
<stop offset="1" stop-color="#C6CCE0"/>
</linearGradient>
<linearGradient id="paint20_linear_34_30044" x1="83.0879" y1="4.03848" x2="41.7265" y2="118.561" gradientUnits="userSpaceOnUse">
<stop stop-color="#D7D7E3"/>
<stop offset="0.3858" stop-color="#CED0E0"/>
<stop offset="1" stop-color="#C8CEE2"/>
</linearGradient>
<linearGradient id="paint21_linear_34_30044" x1="80.8383" y1="4.7416" x2="43.9511" y2="117.831" gradientUnits="userSpaceOnUse">
<stop stop-color="#DADAE5"/>
<stop offset="0.3858" stop-color="#D0D2E1"/>
<stop offset="1" stop-color="#CACFE3"/>
</linearGradient>
<linearGradient id="paint22_linear_34_30044" x1="78.6515" y1="5.57874" x2="46.0862" y2="116.971" gradientUnits="userSpaceOnUse">
<stop stop-color="#DDDCE7"/>
<stop offset="0.3858" stop-color="#D2D4E2"/>
<stop offset="1" stop-color="#CCD1E4"/>
</linearGradient>
<linearGradient id="paint23_linear_34_30044" x1="76.5519" y1="6.5236" x2="48.1617" y2="115.999" gradientUnits="userSpaceOnUse">
<stop stop-color="#DFDEE8"/>
<stop offset="0.3858" stop-color="#D4D5E4"/>
<stop offset="1" stop-color="#CDD2E6"/>
</linearGradient>
<linearGradient id="paint24_linear_34_30044" x1="74.5412" y1="7.58392" x2="50.1368" y2="114.928" gradientUnits="userSpaceOnUse">
<stop stop-color="#E2E0EA"/>
<stop offset="0.3858" stop-color="#D6D7E5"/>
<stop offset="1" stop-color="#CFD4E7"/>
</linearGradient>
<linearGradient id="paint25_linear_34_30044" x1="72.6195" y1="8.73344" x2="52.0209" y2="113.741" gradientUnits="userSpaceOnUse">
<stop stop-color="#E4E2EB"/>
<stop offset="0.3858" stop-color="#D9D9E7"/>
<stop offset="1" stop-color="#D1D6E9"/>
</linearGradient>
<linearGradient id="paint26_linear_34_30044" x1="70.8069" y1="9.97676" x2="53.7991" y2="112.489" gradientUnits="userSpaceOnUse">
<stop stop-color="#E7E4ED"/>
<stop offset="0.3858" stop-color="#DBDBE8"/>
<stop offset="1" stop-color="#D3D7EA"/>
</linearGradient>
<linearGradient id="paint27_linear_34_30044" x1="69.1014" y1="11.2876" x2="55.4831" y2="111.155" gradientUnits="userSpaceOnUse">
<stop stop-color="#E9E6EE"/>
<stop offset="0.3858" stop-color="#DDDCE9"/>
<stop offset="1" stop-color="#D4D9EC"/>
</linearGradient>
<linearGradient id="paint28_linear_34_30044" x1="67.4972" y1="12.6689" x2="57.0395" y2="109.753" gradientUnits="userSpaceOnUse">
<stop stop-color="#ECE8F0"/>
<stop offset="0.3858" stop-color="#DFDEEB"/>
<stop offset="1" stop-color="#D6DBED"/>
</linearGradient>
<linearGradient id="paint29_linear_34_30044" x1="66.0122" y1="14.0992" x2="58.4996" y2="108.305" gradientUnits="userSpaceOnUse">
<stop stop-color="#EEEBF1"/>
<stop offset="0.3858" stop-color="#E1E0EC"/>
<stop offset="1" stop-color="#D8DCEF"/>
</linearGradient>
<linearGradient id="paint30_linear_34_30044" x1="64.6387" y1="15.573" x2="59.8474" y2="106.817" gradientUnits="userSpaceOnUse">
<stop stop-color="#F1EDF3"/>
<stop offset="0.3858" stop-color="#E3E2ED"/>
<stop offset="1" stop-color="#DADEF0"/>
</linearGradient>
<linearGradient id="paint31_linear_34_30044" x1="63.3685" y1="17.0772" x2="61.0774" y2="105.286" gradientUnits="userSpaceOnUse">
<stop stop-color="#F3EFF4"/>
<stop offset="0.3858" stop-color="#E5E3EF"/>
<stop offset="1" stop-color="#DBDFF2"/>
</linearGradient>
<linearGradient id="paint32_linear_34_30044" x1="62.2153" y1="18.6045" x2="62.2068" y2="103.746" gradientUnits="userSpaceOnUse">
<stop stop-color="#F6F1F6"/>
<stop offset="0.3858" stop-color="#E7E5F0"/>
<stop offset="1" stop-color="#DDE1F3"/>
</linearGradient>
<linearGradient id="paint33_linear_34_30044" x1="9.02968" y1="58.0406" x2="115.392" y2="58.0406" gradientUnits="userSpaceOnUse">
<stop stop-color="#72A4FC"/>
<stop offset="1" stop-color="#7275FC"/>
</linearGradient>
<radialGradient id="paint34_radial_34_30044" cx="0" cy="0" r="1" gradientUnits="userSpaceOnUse" gradientTransform="translate(62.2672 68.9091) scale(20.5552 16.7463)">
<stop stop-color="#F1F1F5"/>
<stop offset="0.551" stop-color="#E4E2EC"/>
<stop offset="1" stop-color="#CFCFDE"/>
</radialGradient>
<linearGradient id="paint35_linear_34_30044" x1="53.0768" y1="61.5075" x2="72.7267" y2="61.5075" gradientUnits="userSpaceOnUse">
<stop stop-color="white"/>
<stop offset="1"/>
</linearGradient>
<linearGradient id="paint36_linear_34_30044" x1="46.7667" y1="62.1274" x2="51.9685" y2="62.1274" gradientUnits="userSpaceOnUse">
<stop stop-color="white"/>
<stop offset="1"/>
</linearGradient>
<radialGradient id="paint37_radial_34_30044" cx="0" cy="0" r="1" gradientUnits="userSpaceOnUse" gradientTransform="translate(61.7291 38.4668) scale(24.0908 24.0908)">
<stop stop-color="#F1F1F5"/>
<stop offset="0.551" stop-color="#E4E2EC"/>
<stop offset="1" stop-color="#CFCFDE"/>
</radialGradient>
<linearGradient id="paint38_linear_34_30044" x1="40.8385" y1="25.3104" x2="45.3864" y2="25.3104" gradientUnits="userSpaceOnUse">
<stop stop-color="white"/>
<stop offset="1"/>
</linearGradient>
<linearGradient id="paint39_linear_34_30044" x1="50.5438" y1="20.2602" x2="79.0136" y2="20.2602" gradientUnits="userSpaceOnUse">
<stop stop-color="white"/>
<stop offset="1"/>
</linearGradient>
<radialGradient id="paint40_radial_34_30044" cx="0" cy="0" r="1" gradientUnits="userSpaceOnUse" gradientTransform="translate(61.7299 37.5925) scale(13.7092 12.7386)">
<stop stop-color="#3E3C44"/>
<stop offset="0.551" stop-color="#242327"/>
<stop offset="1" stop-color="#040100"/>
</radialGradient>
<linearGradient id="paint41_linear_34_30044" x1="61.1915" y1="14.3002" x2="62.266" y2="14.3002" gradientUnits="userSpaceOnUse">
<stop stop-color="#F1F1F5"/>
<stop offset="0.551" stop-color="#E4E2EC"/>
<stop offset="1" stop-color="#CFCFDE"/>
</linearGradient>
<linearGradient id="paint42_linear_34_30044" x1="89.4065" y1="30.1284" x2="89.4065" y2="46.5192" gradientUnits="userSpaceOnUse">
<stop stop-color="#F1F1F5"/>
<stop offset="0.5153" stop-color="#D5CFD9"/>
<stop offset="1" stop-color="#BBBBCA"/>
</linearGradient>
<linearGradient id="paint43_linear_34_30044" x1="88.0561" y1="29.844" x2="88.0561" y2="47.6121" gradientUnits="userSpaceOnUse">
<stop stop-color="#9DA1AF"/>
<stop offset="0.1378" stop-color="#ACB1C5"/>
<stop offset="0.2347" stop-color="#D7DBE7"/>
<stop offset="0.4133" stop-color="#9399B0"/>
<stop offset="0.6318" stop-color="#686D84"/>
<stop offset="1" stop-color="#41434F"/>
</linearGradient>
<linearGradient id="paint44_linear_34_30044" x1="34.1919" y1="30.1284" x2="34.1919" y2="46.5192" gradientUnits="userSpaceOnUse">
<stop stop-color="#F1F1F5"/>
<stop offset="0.5153" stop-color="#D5CFD9"/>
<stop offset="1" stop-color="#BBBBCA"/>
</linearGradient>
<linearGradient id="paint45_linear_34_30044" x1="35.5425" y1="29.844" x2="35.5425" y2="47.6121" gradientUnits="userSpaceOnUse">
<stop stop-color="#9DA1AF"/>
<stop offset="0.1378" stop-color="#ACB1C5"/>
<stop offset="0.2347" stop-color="#D7DBE7"/>
<stop offset="0.4133" stop-color="#9399B0"/>
<stop offset="0.6318" stop-color="#686D84"/>
<stop offset="1" stop-color="#41434F"/>
</linearGradient>
<linearGradient id="paint46_linear_34_30044" x1="34.5088" y1="65.4664" x2="40.0316" y2="70.0648" gradientUnits="userSpaceOnUse">
<stop stop-color="#F1F1F5"/>
<stop offset="0.551" stop-color="#E4E2EC"/>
<stop offset="1" stop-color="#CFCFDE"/>
</linearGradient>
<linearGradient id="paint47_linear_34_30044" x1="87.7647" y1="52.1606" x2="92.1205" y2="57.8766" gradientUnits="userSpaceOnUse">
<stop stop-color="#F1F1F5"/>
<stop offset="0.551" stop-color="#E4E2EC"/>
<stop offset="1" stop-color="#CFCFDE"/>
</linearGradient>
<linearGradient id="paint48_linear_34_30044" x1="101.392" y1="46.7239" x2="103.194" y2="40.4915" gradientUnits="userSpaceOnUse">
<stop stop-color="#9DA1AF"/>
<stop offset="0.2347" stop-color="#CFD1E3"/>
<stop offset="0.6318" stop-color="#686D84"/>
<stop offset="1" stop-color="#41434F"/>
</linearGradient>
<linearGradient id="paint49_linear_34_30044" x1="31.3448" y1="117.106" x2="31.3448" y2="119.42" gradientUnits="userSpaceOnUse">
<stop stop-color="white"/>
<stop offset="0.3085" stop-color="#E4E5F1"/>
<stop offset="0.7612" stop-color="#BDCAE4"/>
</linearGradient>
<linearGradient id="paint50_linear_34_30044" x1="42.1516" y1="117.106" x2="42.1516" y2="119.42" gradientUnits="userSpaceOnUse">
<stop stop-color="white"/>
<stop offset="0.3085" stop-color="#E4E5F1"/>
<stop offset="0.7612" stop-color="#BDCAE4"/>
</linearGradient>
<linearGradient id="paint51_linear_34_30044" x1="52.9585" y1="117.106" x2="52.9585" y2="119.42" gradientUnits="userSpaceOnUse">
<stop stop-color="white"/>
<stop offset="0.3085" stop-color="#E4E5F1"/>
<stop offset="0.7612" stop-color="#BDCAE4"/>
</linearGradient>
<linearGradient id="paint52_linear_34_30044" x1="63.765" y1="117.106" x2="63.765" y2="119.42" gradientUnits="userSpaceOnUse">
<stop stop-color="white"/>
<stop offset="0.3085" stop-color="#E4E5F1"/>
<stop offset="0.7612" stop-color="#BDCAE4"/>
</linearGradient>
<linearGradient id="paint53_linear_34_30044" x1="74.5716" y1="117.106" x2="74.5716" y2="119.42" gradientUnits="userSpaceOnUse">
<stop stop-color="white"/>
<stop offset="0.3085" stop-color="#E4E5F1"/>
<stop offset="0.7612" stop-color="#BDCAE4"/>
</linearGradient>
<linearGradient id="paint54_linear_34_30044" x1="85.3782" y1="117.106" x2="85.3782" y2="119.42" gradientUnits="userSpaceOnUse">
<stop stop-color="white"/>
<stop offset="0.3085" stop-color="#E4E5F1"/>
<stop offset="0.7612" stop-color="#BDCAE4"/>
</linearGradient>
<linearGradient id="paint55_linear_34_30044" x1="96.1849" y1="117.106" x2="96.1849" y2="119.42" gradientUnits="userSpaceOnUse">
<stop stop-color="white"/>
<stop offset="0.3085" stop-color="#E4E5F1"/>
<stop offset="0.7612" stop-color="#BDCAE4"/>
</linearGradient>
<linearGradient id="paint56_linear_34_30044" x1="47.2231" y1="121.104" x2="47.2231" y2="123.417" gradientUnits="userSpaceOnUse">
<stop stop-color="white"/>
<stop offset="0.3085" stop-color="#E4E5F1"/>
<stop offset="0.7612" stop-color="#BDCAE4"/>
</linearGradient>
<linearGradient id="paint57_linear_34_30044" x1="58.0297" y1="121.104" x2="58.0297" y2="123.417" gradientUnits="userSpaceOnUse">
<stop stop-color="white"/>
<stop offset="0.3085" stop-color="#E4E5F1"/>
<stop offset="0.7612" stop-color="#BDCAE4"/>
</linearGradient>
<linearGradient id="paint58_linear_34_30044" x1="68.8355" y1="121.104" x2="68.8355" y2="123.417" gradientUnits="userSpaceOnUse">
<stop stop-color="white"/>
<stop offset="0.3085" stop-color="#E4E5F1"/>
<stop offset="0.7612" stop-color="#BDCAE4"/>
</linearGradient>
<linearGradient id="paint59_linear_34_30044" x1="79.6421" y1="121.104" x2="79.6421" y2="123.417" gradientUnits="userSpaceOnUse">
<stop stop-color="white"/>
<stop offset="0.3085" stop-color="#E4E5F1"/>
<stop offset="0.7612" stop-color="#BDCAE4"/>
</linearGradient>
<linearGradient id="paint60_linear_34_30044" x1="32.4829" y1="121.104" x2="32.4829" y2="123.417" gradientUnits="userSpaceOnUse">
<stop stop-color="white"/>
<stop offset="0.3085" stop-color="#E4E5F1"/>
<stop offset="0.7612" stop-color="#BDCAE4"/>
</linearGradient>
<linearGradient id="paint61_linear_34_30044" x1="94.1755" y1="121.104" x2="94.1755" y2="123.417" gradientUnits="userSpaceOnUse">
<stop stop-color="white"/>
<stop offset="0.3085" stop-color="#E4E5F1"/>
<stop offset="0.7612" stop-color="#BDCAE4"/>
</linearGradient>
<linearGradient id="paint62_linear_34_30044" x1="28.5456" y1="125.157" x2="28.5456" y2="127.47" gradientUnits="userSpaceOnUse">
<stop stop-color="white"/>
<stop offset="0.3085" stop-color="#E4E5F1"/>
<stop offset="0.7612" stop-color="#BDCAE4"/>
</linearGradient>
<linearGradient id="paint63_linear_34_30044" x1="97.7918" y1="125.157" x2="97.7918" y2="127.47" gradientUnits="userSpaceOnUse">
<stop stop-color="white"/>
<stop offset="0.3085" stop-color="#E4E5F1"/>
<stop offset="0.7612" stop-color="#BDCAE4"/>
</linearGradient>
<linearGradient id="paint64_linear_34_30044" x1="63.2803" y1="125.111" x2="63.2803" y2="127.424" gradientUnits="userSpaceOnUse">
<stop stop-color="white"/>
<stop offset="0.3085" stop-color="#E4E5F1"/>
<stop offset="0.7612" stop-color="#BDCAE4"/>
</linearGradient>
<linearGradient id="paint65_linear_34_30044" x1="18.7147" y1="68.5483" x2="104.94" y2="68.5483" gradientUnits="userSpaceOnUse">
<stop stop-color="white"/>
<stop offset="1"/>
</linearGradient>
<clipPath id="clip0_34_30044">
<rect width="67.1419" height="119.24" fill="white" transform="translate(106 8)"/>
</clipPath>
<clipPath id="clip1_34_30044">
<rect width="55.329" height="99.7537" fill="white" transform="translate(117.712 13.25)"/>
</clipPath>
<clipPath id="clip2_34_30044">
<rect width="30.2896" height="30.2896" fill="white" transform="translate(129.02 74.6372)"/>
</clipPath>
<clipPath id="clip3_34_30044">
<rect width="12.1158" height="20.7245" fill="white" transform="translate(138.107 79.4199)"/>
</clipPath>
</defs>
</svg>
