<svg width="90" height="86" viewBox="0 0 90 86" fill="none" xmlns="http://www.w3.org/2000/svg">
<g clip-path="url(#clip0_365_15950)">
<path d="M74.0094 53.3157C72.7338 53.3157 71.4708 53.4675 70.245 53.7639L84.6882 13.8843C85.1196 12.6933 84.9978 11.3847 84.354 10.2939C83.7102 9.20307 82.623 8.46387 81.3714 8.26587L69.708 6.42147C69.2064 5.72127 68.448 5.21847 67.554 5.04387L63.186 4.19187C62.6406 2.68947 61.2366 1.16247 58.479 0.647072C56.2344 0.227672 54.0102 0.664472 52.4538 2.34747L48.6012 1.91547C47.697 1.81347 46.761 2.06907 46.0194 2.67507C37.0302 1.27167 37.4586 1.28067 36.87 1.28067C35.7408 1.28067 34.6746 1.74147 33.8958 2.51007L30.4044 1.89267C28.8864 8.73507 26.7708 15.0375 24.0642 21.3093C13.8468 44.9853 1.2084 52.6005 0 54.0249L12.4344 57.1479L8.7204 66.7833C7.7598 69.2763 9.321 72.0201 11.9484 72.4731L56.9496 80.2359C58.5156 80.5059 60.075 79.8729 61.0224 78.6435C63.969 82.7487 68.7558 85.2969 74.0094 85.2969C82.827 85.2969 90 78.1239 90 69.3063C90 60.4887 82.8264 53.3157 74.0094 53.3157Z" fill="white"/>
<path d="M82.7261 13.1753L59.6837 76.7981C59.3303 77.7749 58.3271 78.3569 57.3035 78.1805L12.3023 70.4177C10.9697 70.1879 10.1801 68.7965 10.6667 67.5341L34.8707 4.74174C35.2343 3.79854 36.2075 3.23754 37.2059 3.39534L81.0455 10.3277C82.3757 10.5383 83.1851 11.9087 82.7261 13.1747V13.1753Z" fill="#AAD66D"/>
<path d="M74.0093 83.2112C81.6881 83.2112 87.9131 76.9862 87.9131 69.3074C87.9131 61.6285 81.6881 55.4036 74.0093 55.4036C66.3304 55.4036 60.1055 61.6285 60.1055 69.3074C60.1055 76.9862 66.3304 83.2112 74.0093 83.2112Z" fill="#F48682"/>
<path d="M84.8891 68.06V70.5542C84.8891 71.5838 84.0563 72.416 83.0273 72.416H77.1167V78.3266C77.1167 79.3562 76.2839 80.1884 75.2549 80.1884H72.7643C71.7347 80.1884 70.8989 79.3562 70.8989 78.3266V72.416H64.9919C63.9623 72.416 63.1265 71.5838 63.1265 70.5542V68.06C63.1265 67.0304 63.9623 66.1982 64.9919 66.1982H70.8989V60.2876C70.8989 59.258 71.7347 58.4258 72.7643 58.4258H75.2549C76.2845 58.4258 77.1167 59.2586 77.1167 60.2876V66.1982H83.0273C84.0569 66.1982 84.8891 67.031 84.8891 68.06Z" fill="white"/>
<path d="M32.0137 4.29736C32.0137 4.29736 25.2103 35.4128 4.44971 52.9916L50.2855 64.5044C50.2855 64.5044 70.6369 47.5406 77.8441 12.4088L32.0137 4.29736Z" fill="#E3F2F5"/>
<path d="M41.8746 10.6006L40.7202 13.6174L66.2238 18.136L67.3614 14.5456L41.8746 10.6006Z" fill="#76A0EE"/>
<path d="M44.2719 21.3979L43.4043 23.2747L57.0537 26.3846L58.0077 23.9689L44.2719 21.3979Z" fill="#A369F7"/>
<path d="M42.9349 25.0645L41.6953 28.0699L63.4861 33.1891L65.0401 29.9377L42.9349 25.0645Z" fill="white"/>
<path d="M29.2535 28.3784L28.2515 29.9948L60.0383 38.6234L61.2911 36.4082L29.2535 28.3784Z" fill="white"/>
<path d="M23.0575 37.0137C23.0575 37.0137 18.5245 43.8099 13.6567 48.6777L48.9067 57.2295C48.9067 57.2295 54.7087 50.9025 57.1597 46.4757L23.0569 37.0137H23.0575Z" fill="#EDD45B"/>
<path d="M72.4048 23.2254C72.3826 23.2254 72.3598 23.2236 72.337 23.2206C65.425 22.1736 58.5826 20.8902 51.9658 19.6494C45.3562 18.4098 38.5216 17.1276 31.6252 16.0836C31.3792 16.0464 31.2106 15.8172 31.2478 15.5712C31.285 15.3252 31.5142 15.156 31.7602 15.1938C38.6722 16.2408 45.5146 17.5242 52.132 18.765C58.7416 20.0046 65.5762 21.2862 72.472 22.3308C72.718 22.368 72.8866 22.5972 72.8494 22.8432C72.8158 23.0658 72.6238 23.226 72.4048 23.226V23.2254Z" fill="#B2ACA3"/>
<path d="M61.2918 43.8745C61.2534 43.8745 61.2144 43.8697 61.176 43.8595L23.8614 33.9361C23.6214 33.8725 23.478 33.6259 23.5422 33.3853C23.6058 33.1453 23.8518 33.0019 24.093 33.0661L61.4076 42.9895C61.6476 43.0531 61.791 43.2997 61.7268 43.5403C61.6734 43.7419 61.491 43.8751 61.2924 43.8751L61.2918 43.8745Z" fill="#B2ACA3"/>
<path d="M35.823 24.245C36.0762 24.1964 36.3444 24.0758 36.6132 23.8694C37.3422 23.309 37.8972 22.2188 37.5888 21.383C37.4436 20.9888 37.0746 20.5964 36.747 20.5934C34.677 20.5748 34.3032 22.2914 34.416 23.1494C34.4532 23.4338 34.5558 23.6726 34.7034 23.8568C33.5328 23.5886 32.2632 23.7008 31.0626 24.2606L29.895 26.9726L37.3218 28.8344L38.4132 26.717C37.8024 25.5896 36.8856 24.746 35.823 24.245Z" fill="#BFD0D3"/>
<path d="M61.3635 5.96345L67.1547 7.09265C68.0193 7.26125 68.5077 8.18405 68.1609 8.99345L66.5895 12.6649L45.4863 9.19325L46.9029 4.92785C47.1087 4.30805 47.7201 3.91685 48.3693 3.98945L53.4543 4.55945C53.4543 4.55945 54.4641 2.01965 58.0959 2.69825C61.7277 3.37745 61.3635 5.96225 61.3635 5.96225V5.96345Z" fill="#EDD45B"/>
</g>
<defs>
<clipPath id="clip0_365_15950">
<rect width="90" height="84.7986" fill="white" transform="translate(0 0.499268)"/>
</clipPath>
</defs>
</svg>
