<svg width="137" height="96" viewBox="0 0 137 96" fill="none" xmlns="http://www.w3.org/2000/svg">
<path d="M50.8336 93.5941C50.8336 93.5941 13.6272 56.4802 22.6474 41.8937C33.1324 24.9481 50.4789 41.8937 50.4789 41.8937L50.8336 93.5941Z" fill="#F0F8FF"/>
<path d="M50.8336 93.5942C50.8336 93.5942 34.4431 6.6303 68.8894 0.940638C116.982 -7.00022 106.543 37.9466 106.543 37.9466C106.543 37.9466 119.125 28.911 131.044 38.6713C147.589 52.2093 121.191 93.5171 121.191 93.5171L50.8182 93.5942H50.8336Z" fill="#F0F8FF"/>
<path d="M109.488 0.971191H98.3399C97.2414 0.971191 96.3508 1.86173 96.3508 2.96026V9.96055C96.3508 11.0591 97.2414 11.9496 98.3399 11.9496H109.488C110.586 11.9496 111.477 11.0591 111.477 9.96055V2.96026C111.477 1.86173 110.586 0.971191 109.488 0.971191Z" fill="#FEB801"/>
<path d="M99.1108 11.5483V13.5066L102.087 11.5483H99.1108Z" fill="#FEB801"/>
<path d="M101.778 6.29079C101.778 6.78421 101.377 7.1851 100.884 7.1851C100.391 7.1851 99.9897 6.78421 99.9897 6.29079C99.9897 5.79738 100.391 5.39648 100.884 5.39648C101.377 5.39648 101.778 5.79738 101.778 6.29079Z" fill="#E08B03"/>
<path d="M104.754 6.29079C104.754 6.78421 104.353 7.1851 103.86 7.1851C103.366 7.1851 102.966 6.78421 102.966 6.29079C102.966 5.79738 103.366 5.39648 103.86 5.39648C104.353 5.39648 104.754 5.79738 104.754 6.29079Z" fill="#E08B03"/>
<path d="M107.715 6.29079C107.715 6.78421 107.314 7.1851 106.82 7.1851C106.327 7.1851 105.926 6.78421 105.926 6.29079C105.926 5.79738 106.327 5.39648 106.82 5.39648C107.314 5.39648 107.715 5.79738 107.715 6.29079Z" fill="#E08B03"/>
<path d="M126.603 91.867C126.603 94.0873 98.3708 95.9068 63.5544 95.9068C28.7379 95.9068 0.505493 94.1027 0.505493 91.867C0.505493 89.6312 28.7379 87.8271 63.5544 87.8271C98.3708 87.8271 126.603 89.6312 126.603 91.867Z" fill="#D6E6F2"/>
<path d="M113.25 77.5741H42.3839L50.3401 32.5039H121.206L113.25 77.5741Z" fill="#212156"/>
<path d="M114.746 77.5741H43.8795L51.8358 32.5039H122.702L114.746 77.5741Z" fill="#2F2E6A"/>
<path d="M96.7979 89.9704H81.1629L71.7573 64.1279H87.3923L96.7979 89.9704Z" fill="#181842"/>
<path d="M98.2937 89.9704H82.6587L73.253 64.1279H88.888L98.2937 89.9704Z" fill="#212156"/>
<path d="M103.475 89.2769H65.4509V92.3761H103.475V89.2769Z" fill="#2F2E6A"/>
<path d="M27.6586 41.7398C27.8436 41.9248 27.7511 36.1734 26.2863 36.6052C24.8215 37.0369 21.9535 37.885 21.9073 39.6582C21.861 41.4314 21.8302 43.3279 22.8941 44.0989C22.8941 44.0989 23.8192 37.8387 27.6586 41.7398Z" fill="#53424D"/>
<path d="M32.7778 48.6631C33.1016 48.4164 37.2956 46.8745 37.5114 45.5176C37.6656 44.5462 34.7823 43.251 34.7823 43.251C34.7823 43.251 34.8439 44.6079 31.2975 45.4867C28.3062 46.2423 32.7778 48.6631 32.7778 48.6631Z" fill="#FFBE9E"/>
<path d="M37.5577 45.1325C37.7273 42.8659 35.6303 36.4053 35.6303 36.4053L34.6589 37.5463L34.8285 45.333C34.8285 45.333 37.3881 47.3991 37.5577 45.1325Z" fill="#FFBE9E"/>
<path d="M34.4739 37.9005C34.3505 37.8079 34.1501 37.7771 34.0113 37.7154C33.7337 37.5921 33.5025 37.3762 33.2712 37.1603C33.1478 37.037 32.7469 36.9445 32.7623 36.7286C32.7932 36.374 33.4254 36.7286 33.5796 36.744C33.7337 36.7749 33.9034 36.7286 33.965 36.5898C34.0113 36.4973 33.9959 36.4048 33.965 36.2969C33.9034 35.9885 33.78 35.6955 33.6875 35.4026C33.6412 35.2484 33.595 35.0942 33.5487 34.94C33.5179 34.8166 33.4254 34.6779 33.4254 34.5545C33.4254 34.462 33.5025 34.3541 33.6104 34.3849C33.7029 34.4003 33.7029 34.4928 33.7337 34.5699C33.8108 34.7395 33.8879 34.8937 33.965 35.0479C33.9804 35.0788 34.0421 35.2484 34.0884 35.2638C34.3042 35.31 34.1501 34.8475 34.1192 34.7704C34.073 34.5853 34.0267 34.3849 34.0884 34.1999C34.0884 34.169 34.1038 34.1536 34.1346 34.1382C34.1809 34.1382 34.2117 34.169 34.2272 34.1999C34.3505 34.4157 34.3968 34.6624 34.5355 34.8629C34.551 34.8937 34.5818 34.94 34.6281 34.9246C34.7822 34.9246 34.7514 34.5853 34.7514 34.4928C34.7514 34.4311 34.7514 34.3386 34.8131 34.3232C34.8593 34.3078 34.9056 34.3232 34.9364 34.3541C34.9673 34.3849 34.9827 34.4311 34.9981 34.462C35.0444 34.5853 35.106 34.7087 35.1369 34.832C35.1369 34.8937 35.1831 35.0787 35.2602 35.0787C35.2757 35.0787 35.2911 35.0788 35.3065 35.0479C35.3527 35.0017 35.3528 34.94 35.3528 34.8783C35.3528 34.8166 35.3836 34.7549 35.4453 34.7395C35.5224 34.7241 35.584 34.7858 35.6149 34.8629C35.7382 35.0942 35.7845 35.3871 35.8462 35.6493C35.9078 35.9268 35.9387 36.2198 35.9695 36.4973C36.0312 37.037 35.9695 37.5767 36.0774 38.1163C36.0929 38.1934 36.1083 38.2705 36.1083 38.363C36.1083 38.5172 36.0004 38.656 35.8924 38.7639C35.692 38.9644 35.3836 39.0877 35.0906 39.0415C34.9981 39.0415 34.8131 39.0106 34.7668 38.9335C34.736 38.8719 34.7668 38.7485 34.7514 38.6714C34.7514 38.5789 34.736 38.471 34.7051 38.3784C34.6743 38.2088 34.5818 38.0392 34.443 37.9159L34.4739 37.9005Z" fill="#FFBE9E"/>
<path d="M25.4537 48.8326C24.1431 49.7269 23.2488 51.053 23.958 52.2094C24.3589 52.8724 25.87 53.2271 26.8414 52.9804C28.7226 52.5024 32.8703 50.5596 35.0752 48.0308C35.877 47.1057 34.8131 44.1298 32.824 44.7774C30.2028 45.6254 27.304 47.5683 25.4537 48.8326Z" fill="#EF7BAB"/>
<path d="M6.704 86.7485C6.704 86.7485 5.03873 88.1363 4.9308 88.4909C4.62242 89.5702 7.1049 92.3457 8.46178 92.762C8.64681 92.8237 9.01687 92.7157 9.04771 92.1606C9.07855 91.6056 7.99921 89.7398 8.72391 89.2156C9.46403 88.6913 6.704 86.764 6.704 86.764V86.7485Z" fill="#E8A32B"/>
<path d="M16.341 76.556C16.341 76.556 16.3256 64.3132 16.6802 62.3396C17.2045 59.4253 20.4116 57.4671 23.2179 59.3945C25.1453 60.7206 24.1739 78.6222 19.8874 80.2412C16.5414 81.5056 16.341 76.556 16.341 76.556Z" fill="#6C4967"/>
<path d="M10.0499 90.0787C13.1029 87.8737 21.5835 79.9637 22.154 77.0957C22.7707 73.9965 18.515 73.6264 15.5546 76.5561C13.6426 78.4526 7.22824 84.9595 5.60923 86.8406C5.22375 87.3032 6.58064 88.5676 7.30534 89.1689C7.32076 89.1689 9.15563 90.7108 10.0345 90.0632L10.0499 90.0787Z" fill="#6C4967"/>
<path d="M29.7094 89.8939C29.7094 89.8939 29.3239 92.0372 29.4935 92.3764C29.9561 93.4095 33.6412 93.9029 34.9519 93.3324C35.1369 93.2553 35.3374 92.9469 34.9981 92.4998C34.6589 92.0526 32.6236 91.3433 32.8395 90.4644C33.0553 89.5856 29.7094 89.9094 29.7094 89.9094V89.8939Z" fill="#E8A32B"/>
<path d="M28.6917 73.6571C28.6917 73.6571 22.4932 66.5951 21.4755 64.8528C19.9953 62.2932 21.1517 58.7159 24.5439 58.3767C26.8722 58.13 37.8506 72.3156 35.5223 76.4017C33.7491 79.5163 28.6917 73.6571 28.6917 73.6571Z" fill="#6C4967"/>
<path d="M34.4122 90.2485C35.3065 86.5941 36.6326 75.076 35.214 72.5164C33.6721 69.7564 30.2028 72.2389 29.8481 76.3866C29.6169 79.0696 28.9538 88.1823 28.9384 90.6648C28.9384 91.2661 30.9583 91.3586 31.8989 91.3432C31.9297 91.3432 34.1501 91.297 34.4122 90.2485Z" fill="#6C4967"/>
<path d="M20.2574 63.265C19.764 64.1285 18.4225 66.2717 17.1736 65.5162C17.004 65.4083 17.1273 65.1307 17.2969 65.2387C18.33 65.8708 19.5481 63.8818 19.9644 63.1416C20.057 62.972 20.3499 63.0954 20.242 63.265H20.2574Z" fill="#5B3C58"/>
<path d="M26.5175 63.7122C27.3193 64.2982 29.4163 65.7167 30.249 64.514C30.3569 64.3598 30.1256 64.144 30.0177 64.3136C29.3238 65.3004 27.3964 63.9898 26.718 63.481C26.5638 63.3576 26.3479 63.5889 26.5175 63.7122Z" fill="#5B3C58"/>
<path d="M23.2333 64.976C23.8347 65.7778 23.9426 67.073 23.588 68.1061C23.4954 68.3683 23.9118 68.4762 24.0043 68.2141C24.4052 67.0422 24.2972 65.6853 23.5417 64.6831C23.3721 64.4672 23.0637 64.7602 23.2333 64.976Z" fill="#5B3C58"/>
<path d="M29.7093 49.6804C29.3547 46.9358 24.5439 46.8895 21.2596 46.8124C19.0547 46.7507 17.667 47.5217 17.081 51.469C16.8498 53.0263 15.9246 57.7137 16.233 60.227C16.2947 60.6742 16.8498 61.183 17.1427 61.5377C18.7617 63.5884 29.478 63.6964 29.4935 61.2139C29.4935 61.2139 30.4649 55.555 29.7093 49.6804Z" fill="#FA8FB8"/>
<path d="M22.709 42.7268C22.709 42.7268 25.8699 43.8987 25.654 44.13C25.4382 44.3767 25.6695 44.9472 25.6078 45.4715C25.5307 46.042 25.8237 46.6896 26.2554 47.3218C26.5484 47.7689 25.8545 48.1544 25.284 48.1852C22.8169 48.2932 21.4446 47.183 22.0614 46.4737C23.4491 44.9009 22.7244 42.7114 22.7244 42.7114L22.709 42.7268Z" fill="#FFBE9E"/>
<path d="M25.6078 45.4714C25.6695 44.9471 25.4382 44.3612 25.6541 44.1299C25.87 43.8832 22.4623 42.6343 22.4623 42.6343C22.4623 42.6343 22.9249 43.251 22.8941 44.0991C23.6805 45.5639 25.0219 46.1653 25.8546 46.6433C25.6695 46.304 25.5924 45.6873 25.6078 45.4868V45.4714Z" fill="#FF9C81"/>
<path d="M26.5175 39.4272C27.6585 40.5836 28.2753 44.0838 26.7026 45.4869C25.8391 46.2579 23.2949 44.9472 22.3081 42.8502C22.1847 42.5727 21.9843 41.1079 22.8786 39.6585C23.2795 38.9955 25.3303 38.2245 26.5175 39.4272Z" fill="#FFBE9E"/>
<path d="M27.6277 42.2799C27.5969 42.4803 27.6277 40.2137 26.3942 39.8745C25.8853 39.7357 25.9316 40.2908 25.3302 40.26C24.8214 40.2291 23.4491 38.9956 23.6033 42.0948C23.6033 42.249 23.4491 42.3878 23.3566 42.5112C23.2487 42.6654 23.4491 43.0663 23.4337 43.2359C23.4029 43.4055 22.9557 42.8041 22.9403 42.9737C22.9249 43.2359 23.2641 44.0377 22.8786 44.0839C22.6936 44.0993 22.5085 43.7755 22.3852 43.6676C22.046 43.3284 21.6451 43.0817 21.3829 42.6808C21.09 42.2336 20.9666 41.6939 20.9512 41.1543C20.9358 40.63 21.0283 40.0749 21.3058 39.6278C21.5988 39.1652 22.0922 38.826 22.6319 38.7181C22.9557 38.6564 23.3103 38.7026 23.6187 38.5947C23.8963 38.5022 24.1738 38.5176 24.4514 38.4251C24.6672 38.348 24.7597 38.2401 24.9293 38.0859C25.284 37.7467 25.7774 37.577 26.2554 37.6696C26.7334 37.7621 27.1497 38.1321 27.2576 38.5947C27.3193 38.8568 27.674 41.5243 27.6585 41.7248C27.6585 41.9098 27.6585 42.0794 27.6277 42.2645V42.2799Z" fill="#53424D"/>
<path d="M23.8192 42.8806C23.8192 42.8806 23.0019 41.94 22.4623 42.0942C21.9226 42.2638 22.4314 43.7441 23.5262 43.7132C24.6055 43.667 24.0813 43.1427 23.8192 42.8806Z" fill="#FFBE9E"/>
<path d="M24.8369 42.6505C24.8369 42.6505 24.8677 42.6505 24.8677 42.6659C24.8985 42.6813 24.9448 42.6967 24.991 42.7122C25.1452 42.743 25.2377 42.6505 25.2994 42.5271C25.3303 42.45 25.469 42.5117 25.4228 42.5888C25.2994 42.8818 24.991 42.928 24.7443 42.743C24.6672 42.6967 24.7752 42.5888 24.8369 42.6351V42.6505Z" fill="#201714"/>
<path d="M26.4096 42.3261C26.4096 42.3261 26.4867 42.4032 26.533 42.434C26.6872 42.5265 26.7797 42.434 26.8568 42.3107C26.903 42.2336 27.0264 42.3107 26.9801 42.3723C26.8876 42.5265 26.7489 42.6653 26.5484 42.6036C26.4405 42.5728 26.348 42.4957 26.2863 42.4032C26.2246 42.3261 26.348 42.2644 26.4096 42.3261Z" fill="#201714"/>
<path d="M26.7797 41.6323C26.5484 41.5552 26.348 41.6323 26.2246 41.8481C26.1629 41.9406 26.0242 41.8481 26.0704 41.7556C26.2246 41.4781 26.5176 41.3547 26.826 41.4626C26.9339 41.4935 26.8722 41.6631 26.7797 41.6323Z" fill="#4D2F20"/>
<path d="M25.3148 42.0178C25.1144 41.879 24.8985 41.9098 24.7289 42.0794C24.6518 42.1565 24.5284 42.0332 24.6055 41.9561C24.8214 41.7248 25.1452 41.6939 25.4073 41.879C25.4998 41.9407 25.4073 42.0948 25.3148 42.0178Z" fill="#4D2F20"/>
<path d="M25.9007 42.126C25.8545 42.2802 25.8236 42.4498 25.8699 42.604C25.9316 42.8353 26.1783 42.9432 26.317 43.1282C26.5021 43.3903 26.317 43.5291 25.9932 43.6062C25.9161 43.6216 25.8853 43.5291 25.9624 43.5137C26.6563 43.3441 25.8699 42.9586 25.762 42.6656C25.7003 42.4806 25.7311 42.2802 25.7928 42.0951C25.8082 42.0335 25.9316 42.0643 25.9161 42.126H25.9007Z" fill="#7C4930"/>
<path d="M25.3919 43.8677C25.3919 43.8677 25.3148 44.469 25.8083 44.4999C26.3017 44.5307 26.3942 44.0064 26.3942 44.0064L25.3919 43.8677Z" fill="#FAFFFF"/>
<path d="M24.4514 43.6985C24.513 43.8836 24.6981 43.9761 24.8677 43.9298C25.0527 43.8836 25.1452 43.6831 25.099 43.5135C25.0527 43.3439 24.8523 43.236 24.6826 43.2822C24.4976 43.3439 24.4051 43.5289 24.4514 43.6985Z" fill="#FF9C81"/>
<path d="M27.3194 42.9582C27.1806 42.8348 26.9647 42.8502 26.8414 42.989C26.718 43.1278 26.7335 43.3436 26.8722 43.467C27.011 43.5903 27.2269 43.5749 27.3502 43.4361C27.4736 43.2974 27.4582 43.0815 27.3194 42.9582Z" fill="#FF9C81"/>
<path d="M22.9095 56.0029C23.2025 56.2958 25.2687 60.2431 26.641 60.2894C27.6278 60.3202 28.5375 57.2981 28.5375 57.2981C28.5375 57.2981 27.2115 57.5294 25.87 54.1217C24.7444 51.2538 22.9095 56.0029 22.9095 56.0029Z" fill="#FFBE9E"/>
<path d="M27.0264 60.2889C29.293 60.1655 35.4298 57.2513 35.4298 57.2513L34.1654 56.4341L26.4713 57.6059C26.4713 57.6059 24.7598 60.4122 27.0264 60.2889Z" fill="#FFBE9E"/>
<path d="M33.7954 56.3109C33.8725 56.1722 33.8879 55.9717 33.9188 55.833C34.0113 55.54 34.1809 55.2779 34.3659 55.0312C34.4739 54.8924 34.5201 54.4761 34.736 54.4761C35.0906 54.4761 34.8285 55.1237 34.8285 55.2933C34.8285 55.4475 34.8902 55.6171 35.0289 55.6633C35.1215 55.6942 35.2294 55.6633 35.3219 55.6325C35.6149 55.5246 35.8924 55.3704 36.17 55.2316C36.3087 55.1545 36.4629 55.1083 36.6171 55.0466C36.725 55.0003 36.8638 54.8924 36.9718 54.877C37.0643 54.877 37.1722 54.9386 37.1722 55.0312C37.1722 55.1237 37.0643 55.1391 37.0026 55.1854C36.8484 55.2779 36.7096 55.3858 36.5554 55.4783C36.5246 55.4937 36.355 55.5863 36.355 55.6325C36.355 55.8484 36.7713 55.6325 36.8484 55.6017C37.0334 55.5246 37.2185 55.4475 37.4189 55.4937C37.4497 55.4937 37.4806 55.4937 37.4806 55.54C37.496 55.5708 37.4652 55.6171 37.4343 55.6479C37.2493 55.8021 37.0026 55.8792 36.8176 56.0334C36.7867 56.0642 36.7559 56.0951 36.7559 56.1413C36.7867 56.2955 37.0951 56.2184 37.203 56.203C37.2647 56.203 37.3572 56.1876 37.3881 56.2493C37.4035 56.2801 37.3881 56.3418 37.3727 56.3726C37.3418 56.4035 37.311 56.4343 37.2647 56.4497C37.1568 56.5114 37.0334 56.5885 36.9101 56.6347C36.8484 56.6502 36.6788 56.7118 36.6942 56.7889C36.6942 56.8044 36.7096 56.8198 36.725 56.8352C36.7713 56.866 36.8484 56.866 36.9101 56.866C36.9718 56.866 37.0489 56.8815 37.0643 56.9431C37.0951 57.0048 37.0334 57.0819 36.9718 57.1282C36.7559 57.2824 36.4783 57.3595 36.2162 57.452C35.9387 57.5445 35.6611 57.6216 35.3836 57.6833C34.8593 57.8066 34.3042 57.822 33.7954 57.9916C33.7183 58.0225 33.6412 58.0533 33.5641 58.0533C33.4099 58.0533 33.2557 57.9916 33.1478 57.8991C32.9165 57.7141 32.7623 57.4365 32.7623 57.1436C32.7623 57.0511 32.7623 56.866 32.824 56.8044C32.8857 56.7581 33.009 56.7581 33.0861 56.7581C33.1786 56.7427 33.2866 56.7118 33.3791 56.681C33.5333 56.6193 33.6875 56.5268 33.8108 56.3572L33.7954 56.3109Z" fill="#FFBE9E"/>
<path d="M21.7993 48.771C20.7508 47.5991 19.3168 46.859 18.2529 47.7225C17.6516 48.2005 17.482 49.7424 17.852 50.683C18.5613 52.487 21.0284 56.3572 23.8192 58.2075C24.8369 58.886 27.6586 57.452 26.7643 55.5554C25.577 53.0575 23.2795 50.4363 21.7993 48.771Z" fill="#EF7BAB"/>
<path d="M65.1579 30.6069L99.1725 30.6069V18.3796L65.1579 18.3796V30.6069Z" fill="#B3D0FF"/>
<path d="M64.464 18.3955H65.8518C68.4113 18.3955 70.4929 20.4925 70.4929 23.0367V32.4886H59.8229V23.0367C59.8229 20.4771 61.9199 18.3955 64.464 18.3955Z" fill="#94B8ED"/>
<path d="M70.4929 65.7783H103.983V24.1775L70.4929 24.1775V65.7783Z" fill="#B3D0FF"/>
<path d="M97.9545 18.3955H99.3422C101.902 18.3955 103.983 20.4925 103.983 23.0367V32.4886H93.3133V23.0367C93.3133 20.4771 95.4103 18.3955 97.9545 18.3955Z" fill="#B3D0FF"/>
<path d="M97.0139 30.6691V30.3453L97.7231 30.1294C97.7231 30.1294 97.8002 30.0986 97.8465 30.0524C97.8773 30.0215 97.8928 29.9753 97.8928 29.9136V25.0257H96.4742C96.4742 25.0257 96.3971 25.0257 96.3508 25.0566C96.32 25.0874 96.3046 25.1182 96.2892 25.1799L96.1196 26.1051H95.6107V24.5015H101.054V26.1051H100.545L100.375 25.1799C100.375 25.1799 100.344 25.0874 100.314 25.0566C100.283 25.0257 100.236 25.0103 100.19 25.0103H98.7716V29.8982C98.7716 29.8982 98.7716 30.0061 98.8179 30.0369C98.8487 30.0678 98.895 30.0986 98.9413 30.114L99.6505 30.3299V30.6537H96.9984L97.0139 30.6691Z" fill="white"/>
<path d="M84.7093 25.3033H91.8792C92.0951 25.3033 92.2801 25.1182 92.2801 24.9024C92.2801 24.6865 92.0951 24.5015 91.8792 24.5015H84.7093C84.4934 24.5015 84.3084 24.6865 84.3084 24.9024C84.3084 25.1182 84.4934 25.3033 84.7093 25.3033Z" fill="white"/>
<path d="M78.8809 25.3033H82.4428C82.6586 25.3033 82.8437 25.1182 82.8437 24.9024C82.8437 24.6865 82.6586 24.5015 82.4428 24.5015H78.8809C78.6651 24.5015 78.48 24.6865 78.48 24.9024C78.48 25.1182 78.6651 25.3033 78.8809 25.3033Z" fill="white"/>
<path d="M74.6098 25.3033H76.7531C76.9689 25.3033 77.154 25.1182 77.154 24.9024C77.154 24.6865 76.9689 24.5015 76.7531 24.5015H74.6098C74.394 24.5015 74.2089 24.6865 74.2089 24.9024C74.2089 25.1182 74.394 25.3033 74.6098 25.3033Z" fill="white"/>
<path d="M74.5635 26.8451H91.9101C92.1105 26.8451 92.2801 26.6755 92.2801 26.475C92.2801 26.2746 92.1105 26.105 91.9101 26.105H74.5635C74.3631 26.105 74.1935 26.2746 74.1935 26.475C74.1935 26.6755 74.3631 26.8451 74.5635 26.8451Z" fill="white"/>
<path d="M86.3592 28.4491H91.9101C92.1105 28.4491 92.2801 28.2795 92.2801 28.079C92.2801 27.8786 92.1105 27.709 91.9101 27.709H86.3592C86.1587 27.709 85.9891 27.8786 85.9891 28.079C85.9891 28.2795 86.1587 28.4491 86.3592 28.4491Z" fill="white"/>
<path d="M74.5635 28.4491H84.2005C84.401 28.4491 84.5706 28.2795 84.5706 28.079C84.5706 27.8786 84.401 27.709 84.2005 27.709H74.5635C74.3631 27.709 74.1935 27.8786 74.1935 28.079C74.1935 28.2795 74.3631 28.4491 74.5635 28.4491Z" fill="white"/>
<path d="M74.6098 30.191H91.8793C92.0951 30.191 92.2802 30.0059 92.2802 29.7901C92.2802 29.5742 92.0951 29.3892 91.8793 29.3892H74.6098C74.394 29.3892 74.2089 29.5742 74.2089 29.7901C74.2089 30.0059 74.394 30.191 74.6098 30.191Z" fill="white"/>
<path d="M93.7603 33.5367H100.93C101.146 33.5367 101.331 33.3516 101.331 33.1358C101.331 32.9199 101.146 32.7349 100.93 32.7349H93.7603C93.5445 32.7349 93.3594 32.9199 93.3594 33.1358C93.3594 33.3516 93.5445 33.5367 93.7603 33.5367Z" fill="white"/>
<path d="M87.932 33.5367H91.4938C91.7097 33.5367 91.8947 33.3516 91.8947 33.1358C91.8947 32.9199 91.7097 32.7349 91.4938 32.7349H87.932C87.7161 32.7349 87.5311 32.9199 87.5311 33.1358C87.5311 33.3516 87.7161 33.5367 87.932 33.5367Z" fill="white"/>
<path d="M83.6454 33.5367H85.7887C86.0045 33.5367 86.1896 33.3516 86.1896 33.1358C86.1896 32.9199 86.0045 32.7349 85.7887 32.7349H83.6454C83.4295 32.7349 83.2445 32.9199 83.2445 33.1358C83.2445 33.3516 83.4295 33.5367 83.6454 33.5367Z" fill="white"/>
<path d="M83.6146 35.079H100.961C101.162 35.079 101.331 34.9094 101.331 34.7089C101.331 34.5085 101.162 34.3389 100.961 34.3389H83.6146C83.4141 34.3389 83.2445 34.5085 83.2445 34.7089C83.2445 34.9094 83.4141 35.079 83.6146 35.079Z" fill="white"/>
<path d="M95.3948 36.6981H100.946C101.146 36.6981 101.316 36.5285 101.316 36.3281C101.316 36.1276 101.146 35.958 100.946 35.958H95.3948C95.1944 35.958 95.0248 36.1276 95.0248 36.3281C95.0248 36.5285 95.1944 36.6981 95.3948 36.6981Z" fill="white"/>
<path d="M83.6146 36.6981H93.2515C93.452 36.6981 93.6216 36.5285 93.6216 36.3281C93.6216 36.1276 93.452 35.958 93.2515 35.958H83.6146C83.4141 35.958 83.2445 36.1276 83.2445 36.3281C83.2445 36.5285 83.4141 36.6981 83.6146 36.6981Z" fill="white"/>
<path d="M83.6454 38.4244H100.915C101.131 38.4244 101.316 38.2393 101.316 38.0235C101.316 37.8076 101.131 37.6226 100.915 37.6226H83.6454C83.4295 37.6226 83.2445 37.8076 83.2445 38.0235C83.2445 38.2393 83.4295 38.4244 83.6454 38.4244Z" fill="white"/>
<path d="M74.2089 38.4404H81.7026V32.7508H74.2089V38.4404Z" fill="white"/>
<path d="M89.7976 41.7862H100.961C101.177 41.7862 101.362 41.6011 101.362 41.3853C101.362 41.1694 101.177 40.9844 100.961 40.9844H89.7976C89.5818 40.9844 89.3967 41.1694 89.3967 41.3853C89.3967 41.6011 89.5818 41.7862 89.7976 41.7862Z" fill="white"/>
<path d="M78.8809 41.7862H82.4428C82.6586 41.7862 82.8437 41.6011 82.8437 41.3853C82.8437 41.1694 82.6586 40.9844 82.4428 40.9844H78.8809C78.6651 40.9844 78.48 41.1694 78.48 41.3853C78.48 41.6011 78.6651 41.7862 78.8809 41.7862Z" fill="white"/>
<path d="M74.6098 41.7862H76.7531C76.9689 41.7862 77.154 41.6011 77.154 41.3853C77.154 41.1694 76.9689 40.9844 76.7531 40.9844H74.6098C74.394 40.9844 74.2089 41.1694 74.2089 41.3853C74.2089 41.6011 74.394 41.7862 74.6098 41.7862Z" fill="white"/>
<path d="M74.5635 43.3134H91.9101C92.1105 43.3134 92.2801 43.1437 92.2801 42.9433C92.2801 42.7429 92.1105 42.5732 91.9101 42.5732H74.5635C74.3631 42.5732 74.1935 42.7429 74.1935 42.9433C74.1935 43.1437 74.3631 43.3134 74.5635 43.3134Z" fill="white"/>
<path d="M92.2801 44.932H100.992C101.192 44.932 101.362 44.7624 101.362 44.562C101.362 44.3615 101.192 44.1919 100.992 44.1919H92.2801C92.0796 44.1919 91.91 44.3615 91.91 44.562C91.91 44.7624 92.0796 44.932 92.2801 44.932Z" fill="white"/>
<path d="M74.5635 44.932H84.2005C84.401 44.932 84.5706 44.7624 84.5706 44.562C84.5706 44.3615 84.401 44.1919 84.2005 44.1919H74.5635C74.3631 44.1919 74.1935 44.3615 74.1935 44.562C74.1935 44.7624 74.3631 44.932 74.5635 44.932Z" fill="white"/>
<path d="M74.6098 46.6739H100.961C101.177 46.6739 101.362 46.4888 101.362 46.273C101.362 46.0571 101.177 45.8721 100.961 45.8721H74.6098C74.394 45.8721 74.2089 46.0571 74.2089 46.273C74.2089 46.4888 74.394 46.6739 74.6098 46.6739Z" fill="white"/>
<path d="M92.2801 55.3705H100.992C101.192 55.3705 101.362 55.2009 101.362 55.0004C101.362 54.8 101.192 54.6304 100.992 54.6304H92.2801C92.0796 54.6304 91.91 54.8 91.91 55.0004C91.91 55.2009 92.0796 55.3705 92.2801 55.3705Z" fill="white"/>
<path d="M74.5635 55.3705H84.2005C84.401 55.3705 84.5706 55.2009 84.5706 55.0004C84.5706 54.8 84.401 54.6304 84.2005 54.6304H74.5635C74.3631 54.6304 74.1935 54.8 74.1935 55.0004C74.1935 55.2009 74.3631 55.3705 74.5635 55.3705Z" fill="white"/>
<path d="M74.6098 57.1128H100.961C101.177 57.1128 101.362 56.9278 101.362 56.7119C101.362 56.4961 101.177 56.311 100.961 56.311H74.6098C74.394 56.311 74.2089 56.4961 74.2089 56.7119C74.2089 56.9278 74.394 57.1128 74.6098 57.1128Z" fill="white"/>
<path d="M115.393 58.0381H76.7839V72.1466H115.393V58.0381Z" fill="#D2E4FF"/>
<path d="M76.5836 72.1458H75.1958C72.6208 72.1458 70.5084 70.0642 70.5084 67.5201V58.0682L81.2401 58.0527V67.5047C81.2556 70.0642 79.1586 72.1458 76.5836 72.1612V72.1458Z" fill="#94B8ED"/>
<path d="M114.484 72.1458H113.096C110.536 72.1458 108.455 70.0642 108.439 67.5201V58.0682L119.094 58.0527V67.5047C119.11 70.0642 117.028 72.1458 114.484 72.1612V72.1458Z" fill="#D2E4FF"/>
<path d="M55.6906 69.0011C56.5233 70.0187 57.433 71.0056 58.4044 71.9307C58.6665 72.1774 58.8053 72.4858 58.8207 72.8713C58.8516 73.3647 58.574 73.6268 57.9572 73.6731C57.6951 73.6885 57.4484 73.6114 57.1863 73.4264C56.9242 73.2413 56.4462 72.7325 55.7369 71.8999C55.0276 71.0672 54.5342 70.4659 54.2721 70.0958C54.0099 69.7258 53.8558 69.3249 53.8403 68.9086C53.8403 68.6927 53.8866 68.4768 54.0408 68.2455C54.195 68.0142 54.5034 67.675 54.9659 67.2124C55.4439 66.7499 56.1069 66.1485 56.9858 65.3776C57.8647 64.622 58.4198 64.1595 58.6511 64.0207C58.8824 63.8819 59.0828 63.7894 59.237 63.7894C59.4992 63.774 59.715 63.8357 59.8846 63.959C60.0542 64.0824 60.1622 64.2674 60.1776 64.4833C60.1776 64.6837 60.1622 64.8687 60.0851 65.0229C60.008 65.1771 59.8075 65.3776 59.5146 65.6089C58.1269 66.6882 56.8471 67.8138 55.706 68.9856L55.6906 69.0011ZM60.9948 68.631C61.8274 69.6487 62.7372 70.6355 63.7086 71.5606C63.9707 71.8073 64.1095 72.1157 64.1249 72.5012C64.1557 72.9946 63.8782 73.2567 63.2614 73.303C62.9993 73.3184 62.7372 73.2413 62.4905 73.0563C62.2438 72.8713 61.7503 72.3624 61.0411 71.5298C60.3318 70.6972 59.8384 70.0958 59.5762 69.7258C59.3141 69.3557 59.1599 68.9548 59.1291 68.5385C59.1291 68.3226 59.1754 68.1068 59.3295 67.8755C59.4837 67.6442 59.7921 67.305 60.2547 66.8424C60.7327 66.3798 61.3957 65.7785 62.2746 65.0075C63.1535 64.252 63.7086 63.7894 63.9399 63.6506C64.1712 63.4964 64.3716 63.4193 64.5258 63.4193C64.7879 63.4039 65.0038 63.4502 65.1734 63.5889C65.343 63.7123 65.4509 63.8973 65.4664 64.1132C65.4818 64.3445 65.4355 64.5295 65.343 64.6991C65.2505 64.8533 65.0655 65.0383 64.7879 65.2542C63.4002 66.3336 62.1358 67.4592 60.9794 68.631H60.9948Z" fill="#FA8FB8"/>
<path d="M112.479 24.0073C111.708 22.928 110.876 21.8949 109.981 20.8927C109.75 20.6306 109.627 20.3067 109.627 19.9059C109.627 19.4279 109.935 19.1812 110.536 19.1812C110.799 19.1812 111.061 19.2737 111.292 19.4741C111.523 19.6746 111.97 20.2142 112.633 21.0931C113.281 21.972 113.728 22.6042 113.975 22.9897C114.206 23.3906 114.33 23.7915 114.33 24.2078C114.33 24.4237 114.252 24.6395 114.083 24.8554C113.913 25.0713 113.589 25.3951 113.081 25.8114C112.572 26.2431 111.863 26.7982 110.937 27.4921C110.012 28.1859 109.426 28.6022 109.18 28.741C108.933 28.8644 108.732 28.9415 108.578 28.9415C108.316 28.9415 108.1 28.8644 107.946 28.7256C107.776 28.5868 107.699 28.4018 107.699 28.1859C107.699 27.9701 107.746 27.785 107.838 27.6463C107.931 27.5075 108.131 27.3225 108.455 27.1066C109.904 26.1198 111.261 25.0867 112.479 24.0073ZM117.799 24.0073C117.028 22.928 116.195 21.8949 115.301 20.8927C115.07 20.6306 114.946 20.3067 114.946 19.9059C114.946 19.4279 115.255 19.1812 115.856 19.1812C116.118 19.1812 116.365 19.2737 116.612 19.4741C116.858 19.6746 117.305 20.2142 117.953 21.0931C118.601 21.972 119.048 22.6042 119.295 22.9897C119.526 23.3906 119.649 23.7915 119.649 24.2078C119.649 24.4237 119.572 24.6395 119.402 24.8554C119.233 25.0713 118.909 25.3951 118.4 25.8114C117.891 26.2431 117.182 26.7982 116.257 27.4921C115.332 28.1859 114.746 28.6022 114.499 28.741C114.252 28.8644 114.052 28.9415 113.898 28.9415C113.636 28.9415 113.42 28.8644 113.266 28.7256C113.096 28.5868 113.019 28.4018 113.019 28.1859C113.019 27.9701 113.065 27.785 113.158 27.6463C113.25 27.5075 113.451 27.3225 113.774 27.1066C115.239 26.1198 116.581 25.0867 117.814 24.0073H117.799Z" fill="#FA8FB8"/>
<path d="M40.8728 26.1201H50.5252C52.6541 26.1201 54.3799 24.3943 54.3799 22.2653V17.3775C54.3799 15.2485 52.6541 13.5227 50.5252 13.5227L40.8728 13.5227C38.7438 13.5227 37.018 15.2485 37.018 17.3775V22.2653C37.018 24.3943 38.7438 26.1201 40.8728 26.1201Z" fill="#5A7FE5"/>
<path d="M51.2036 25.6577V27.9089L47.796 25.6577H51.2036Z" fill="#5A7FE5"/>
<path d="M43.232 19.6435C43.232 20.2294 42.754 20.7074 42.168 20.7074C41.5821 20.7074 41.1041 20.2294 41.1041 19.6435C41.1041 19.0576 41.5821 18.5796 42.168 18.5796C42.754 18.5796 43.232 19.0576 43.232 19.6435Z" fill="#F0F8FF"/>
<path d="M46.7629 19.6435C46.7629 20.2294 46.2849 20.7074 45.699 20.7074C45.1131 20.7074 44.6351 20.2294 44.6351 19.6435C44.6351 19.0576 45.1131 18.5796 45.699 18.5796C46.2849 18.5796 46.7629 19.0576 46.7629 19.6435Z" fill="#F0F8FF"/>
<path d="M50.2939 19.6435C50.2939 20.2294 49.8159 20.7074 49.23 20.7074C48.6441 20.7074 48.1661 20.2294 48.1661 19.6435C48.1661 19.0576 48.6441 18.5796 49.23 18.5796C49.8159 18.5796 50.2939 19.0576 50.2939 19.6435Z" fill="#F0F8FF"/>
<path d="M131.059 41.5698C130.658 41.5698 130.335 41.246 130.335 40.8451V35.2325C130.335 34.8316 130.658 34.5078 131.059 34.5078C131.46 34.5078 131.784 34.8316 131.784 35.2325V40.8451C131.784 41.246 131.46 41.5698 131.059 41.5698Z" fill="#5FB7FF"/>
<path d="M127.528 38.0235C127.528 37.6226 127.852 37.2988 128.253 37.2988H133.866C134.267 37.2988 134.59 37.6226 134.59 38.0235C134.59 38.4244 134.267 38.7482 133.866 38.7482H128.253C127.852 38.7482 127.528 38.4244 127.528 38.0235Z" fill="#5FB7FF"/>
<path d="M27.0881 21.0776H26.9185C26.5864 21.0776 26.3171 21.3469 26.3171 21.679V27.3686C26.3171 27.7008 26.5864 27.97 26.9185 27.97H27.0881C27.4202 27.97 27.6894 27.7008 27.6894 27.3686V21.679C27.6894 21.3469 27.4202 21.0776 27.0881 21.0776Z" fill="#5FB7FF"/>
<path d="M60.1775 14.8946C60.9439 14.8946 61.5652 14.2733 61.5652 13.5069C61.5652 12.7404 60.9439 12.1191 60.1775 12.1191C59.4111 12.1191 58.7898 12.7404 58.7898 13.5069C58.7898 14.2733 59.4111 14.8946 60.1775 14.8946Z" fill="#FA8FB8"/>
<path d="M24.8831 43.3124C24.2972 43.3124 23.8192 42.8344 23.8192 42.2485C23.8192 41.6626 24.2972 41.1846 24.8831 41.1846C25.4691 41.1846 25.9471 41.6626 25.9471 42.2485C25.9471 42.8344 25.4691 43.3124 24.8831 43.3124ZM24.8831 41.4004C24.4206 41.4004 24.0351 41.7859 24.0351 42.2485C24.0351 42.7111 24.4206 43.0965 24.8831 43.0965C25.3457 43.0965 25.7312 42.7111 25.7312 42.2485C25.7312 41.7859 25.3457 41.4004 24.8831 41.4004Z" fill="#FAFFFF"/>
<path d="M26.9956 42.9887C26.4096 42.9887 25.9316 42.5107 25.9316 41.9248C25.9316 41.3388 26.4096 40.8608 26.9956 40.8608C27.5815 40.8608 28.0595 41.3388 28.0595 41.9248C28.0595 42.5107 27.5815 42.9887 26.9956 42.9887ZM26.9956 41.0767C26.533 41.0767 26.1475 41.4622 26.1475 41.9248C26.1475 42.3873 26.533 42.7728 26.9956 42.7728C27.4581 42.7728 27.8436 42.3873 27.8436 41.9248C27.8436 41.4622 27.4581 41.0767 26.9956 41.0767Z" fill="#FAFFFF"/>
<path d="M22.8133 42.0091L22.7317 42.209L23.9593 42.7102L24.0409 42.5104L22.8133 42.0091Z" fill="#FAFFFF"/>
</svg>
