<svg width="70" height="64" viewBox="0 0 70 64" fill="none" xmlns="http://www.w3.org/2000/svg">
<path d="M62.9498 15.3201L62.4297 15.2201C61.9297 15.1501 61.4398 14.9801 61.0098 14.7501C60.4598 14.7301 59.9698 14.4601 59.6198 14.0501C59.3098 13.8801 59.0498 13.6101 58.8698 13.2901C58.3698 13.2701 57.8797 13.0801 57.4797 12.6901C57.1097 12.3201 56.8697 11.7301 56.8497 11.1501C56.6997 11.1001 56.5497 11.0301 56.4197 10.9301C56.0197 10.6301 55.6997 10.2801 55.4197 9.88013C55.2597 9.73013 55.1298 9.55013 55.0098 9.32013C54.9998 9.30013 54.9897 9.28012 54.9797 9.25012C54.8897 9.06012 54.8198 8.88012 54.7798 8.69012C44.9998 8.28012 28.8197 7.97015 28.7897 9.53015C28.7097 14.1202 28.1498 55.2901 28.3798 55.8701C29.0198 57.4601 62.2598 57.3401 62.5698 55.5401C62.8098 54.1501 63.5998 27.6301 62.9498 15.3001V15.3201Z" fill="#B3D0FF"/>
<path d="M56.6797 18.8502C49.4897 19.5602 42.3598 19.6802 35.1498 19.2802C35.0398 19.2802 35.0398 19.4502 35.1498 19.4502C42.2998 19.9602 49.5297 19.9202 56.6797 19.4002C57.0297 19.3702 57.0297 18.8102 56.6797 18.8502Z" fill="white"/>
<path d="M56.1198 23.7202C49.4498 23.6402 42.7797 23.6402 36.1097 23.7202C35.9497 23.7202 35.9497 23.9602 36.1097 23.9602C42.7797 24.1402 49.4498 24.2402 56.1198 24.2702C56.4698 24.2702 56.4698 23.7302 56.1198 23.7202Z" fill="white"/>
<path d="M55.1598 29.2099C48.6898 29.0199 42.1598 29.0499 35.6998 29.2399C35.5398 29.2399 35.5398 29.4799 35.6998 29.4899C42.1598 29.7899 48.6898 29.9399 55.1598 29.8499C55.5698 29.8499 55.5698 29.2199 55.1598 29.2099Z" fill="white"/>
<path d="M55.2998 34.3503C48.4798 34.0803 41.6898 34.4203 34.8798 34.7203C34.7398 34.7203 34.7298 34.9503 34.8798 34.9403C41.6798 34.7003 48.4998 34.9703 55.2998 35.1403C55.8098 35.1503 55.8098 34.3603 55.2998 34.3403V34.3503Z" fill="white"/>
<path d="M56.7997 40.0201C49.5797 40.2101 42.3797 40.5901 35.1497 40.3701C34.7997 40.3601 34.7997 40.9001 35.1497 40.9101C42.3497 41.1301 49.6097 41.3601 56.7997 40.8201C57.2997 40.7801 57.3197 40.0101 56.7997 40.0201Z" fill="white"/>
<path d="M56.6697 45.89C49.3597 45.86 42.0497 46.21 34.7397 46.34C34.4697 46.34 34.4697 46.76 34.7397 46.76C42.0497 46.71 49.3597 46.87 56.6697 46.65C57.1597 46.64 57.1597 45.89 56.6697 45.89Z" fill="white"/>
<path d="M55.8098 14.9002C56.4198 14.9802 59.2198 15.1502 62.9398 15.3102L54.7698 8.7002C54.9698 12.4102 55.2897 14.8302 55.7997 14.9002H55.8098Z" fill="#94B8ED"/>
<path d="M56.9727 40.9421C57.9882 40.087 67.0047 31.2766 67.7529 30.1772C68.2415 29.452 66.4092 27.6425 65.9282 28.0624C64.1723 29.6046 56.3772 37.2393 53.1554 40.4917C52.7355 40.9192 54.4457 42.8813 54.8732 42.7515C55.2015 42.6523 56.0108 41.759 56.9651 40.9497L56.9727 40.9421Z" fill="#5E7493"/>
<path d="M54.9877 42.683C55.171 42.7822 52.1094 43.622 51.9033 43.393C51.6972 43.1639 53.0943 40.3391 53.1554 40.4765C53.3081 40.8812 54.0487 42.1562 54.9954 42.6753L54.9877 42.683Z" fill="#D2CCC6"/>
<path d="M52.8423 43.3317C52.6362 43.3699 51.9872 43.4997 51.9109 43.3928C51.8345 43.2859 52.1475 42.3392 52.1933 42.4155C52.2621 42.5224 52.9568 43.3088 52.8423 43.3317Z" fill="black"/>
<path d="M28.7782 52.7146C28.7846 52.6132 28.7972 52.5119 28.8036 52.4105C27.9419 51.8213 26.4277 52.0114 25.509 52.3091C24.527 52.6259 24.527 53.2341 24.5397 54.2541C24.546 54.8307 24.603 55.4769 25.0402 55.8507C25.3823 56.1358 25.8575 56.1802 26.301 56.2055C26.7001 56.2309 27.0929 56.2499 27.4921 56.2752C27.7709 56.2942 28.075 56.3005 28.2904 56.1168C28.5058 55.9331 28.5438 55.6226 28.5628 55.3439C28.6325 54.4696 28.7085 53.5952 28.7782 52.7146Z" fill="#2F3F47"/>
<path d="M29.8299 52.7146C29.8236 52.6132 29.8109 52.5119 29.8046 52.4105C30.6662 51.8213 32.1804 52.0114 33.0991 52.3091C34.0811 52.6259 34.0811 53.2341 34.0684 54.2541C34.0621 54.8307 34.0051 55.4769 33.5679 55.8507C33.2258 56.1358 32.7506 56.1802 32.3071 56.2055C31.908 56.2309 31.5152 56.2499 31.116 56.2752C30.8373 56.2942 30.5332 56.3005 30.3178 56.1168C30.1023 55.9331 30.0643 55.6226 30.0453 55.3439C29.9756 54.4696 29.8996 53.5952 29.8299 52.7146Z" fill="#2F3F47"/>
<path d="M22.4615 50.529C22.2461 50.5797 22.0371 50.643 21.8343 50.7254C21.6823 50.7887 21.5365 50.8584 21.4288 50.9851C21.2831 51.1562 21.2451 51.3906 21.2198 51.6187C21.1881 51.9165 21.1754 52.2206 21.1754 52.5183C21.1754 52.7718 21.1944 53.0379 21.3275 53.2533C21.5112 53.5574 21.8723 53.6967 22.2145 53.7791C22.8607 53.9438 23.5386 53.9819 24.2038 54.0136C28.2396 54.21 32.2944 54.0769 36.3049 53.6271C36.4696 53.6081 36.6533 53.5827 36.7674 53.456C36.8307 53.3863 36.8687 53.2913 36.8941 53.1962C37.1032 52.531 37.2425 51.6187 36.7927 50.9978C36.4062 50.4656 35.6966 50.7697 35.1518 50.7634C34.6006 50.7571 34.0494 50.7127 33.4982 50.6874C32.4275 50.643 31.3504 50.5987 30.2797 50.5606C28.7655 50.5036 27.2513 50.4593 25.7371 50.4212C24.7107 50.3959 23.5069 50.2882 22.4552 50.5226L22.4615 50.529Z" fill="#C3D5E0"/>
<path d="M31.1287 36.1598C33.8657 36.1725 36.609 36.2295 39.346 36.2865C39.2826 34.8293 39.1749 33.3658 38.8645 31.9403C38.3196 29.4441 37.0778 26.9985 34.9744 25.5413C31.7496 23.3049 26.6494 23.5963 23.1775 25.8074C21.7203 26.7388 20.5482 28.0122 19.9273 29.5771C19.2241 31.3638 19.034 33.3088 18.92 35.2285C18.9073 35.4819 18.8883 35.7354 18.8756 35.9888C22.9494 35.8304 27.0486 36.1408 31.1224 36.1535L31.1287 36.1598Z" fill="white"/>
<path d="M30.9133 36.8949C26.8965 36.8886 22.8671 36.5972 18.8503 36.7429C18.6539 41.1018 18.8376 45.4797 19.4015 49.8133C19.4775 50.4088 19.5789 51.0297 19.9717 51.4985C20.5799 52.2271 21.638 51.904 22.4552 51.904C23.8364 51.904 25.2556 51.9674 26.6494 51.9927C29.2787 52.0498 31.889 52.0561 34.5056 51.7646C35.7474 51.6252 38.2563 52.0054 38.8582 50.8903C39.346 49.978 39.1433 48.1407 39.2193 47.1206C39.308 45.9232 39.3713 44.7194 39.4094 43.5157C39.479 41.3489 39.4727 39.1821 39.384 37.0153C36.5647 36.9583 33.739 36.9013 30.9196 36.8949H30.9133Z" fill="white"/>
<path d="M40.3977 43.9463C40.4483 43.8956 40.4547 43.826 40.461 43.7563C40.6004 41.9443 40.7144 40.1323 40.8031 38.3203C40.8095 38.1619 40.8031 37.9782 40.6828 37.8768C40.5941 37.8071 40.4737 37.8008 40.3596 37.8008C39.9542 37.8008 39.555 37.7881 39.1495 37.7881C38.8961 39.8472 38.7948 41.9253 38.8454 43.997C39.2953 43.997 39.7451 43.997 40.1886 44.0033C40.2646 44.0033 40.3406 44.0034 40.3977 43.9527V43.9463Z" fill="#2F3F47"/>
<path d="M42.4885 48.1211C42.5392 47.9691 42.5963 47.817 42.7166 47.703C42.8117 47.6143 42.932 47.5699 43.0524 47.5256C43.5593 47.3418 44.0851 47.2025 44.611 47.1138C45.0228 47.3925 45.3966 47.7347 45.7134 48.1148C45.7704 48.1845 45.8338 48.2668 45.8464 48.3555C45.8591 48.4252 45.8401 48.5013 45.8211 48.571C45.612 49.3756 45.4029 50.1802 45.2002 50.9848C44.8961 51.0292 44.5856 51.0292 44.2815 50.9912C44.3956 50.5033 44.5159 50.0155 44.63 49.5213C44.744 49.0525 44.8264 48.4886 44.4716 48.1591C44.1105 48.2542 43.7557 48.3492 43.3945 48.4379C43.3312 48.4569 43.2678 48.4696 43.2171 48.5139C43.1601 48.5646 43.1284 48.6406 43.1031 48.7167C42.9574 49.1792 42.8433 49.648 42.761 50.1232C42.5329 50.0598 42.3048 49.9965 42.0767 49.9331C42.0577 49.3059 42.2731 48.6977 42.4822 48.1021L42.4885 48.1211Z" fill="#2F3F47"/>
<path d="M45.2634 47.4182C45.2634 47.4182 45.2887 47.3738 45.2951 47.3485C45.3648 47.0571 45.4281 46.7593 45.4978 46.4678C45.0353 46.3601 44.5728 46.2905 44.104 46.2524C44.028 46.4995 43.9836 46.7466 43.9646 47.0064C43.9646 47.0634 43.9646 47.1204 43.9963 47.1648C44.0216 47.1901 44.0533 47.2028 44.085 47.2091C44.4334 47.3168 44.7946 47.3928 45.1557 47.4435C45.1937 47.4435 45.2381 47.4499 45.2634 47.4245V47.4182Z" fill="#516770"/>
<path d="M45.7196 46.2712C45.9984 45.8087 45.7766 44.586 45.7703 44.0918C45.7703 43.4202 45.7639 42.736 45.6055 42.0834C45.4535 41.4308 45.1304 40.7909 44.5982 40.3728C44.2941 40.1384 43.9393 39.9863 43.5781 39.8596C42.4884 39.4858 41.3163 39.3591 40.1696 39.4985C40.0809 39.5111 39.9795 39.5238 39.9162 39.5872C39.8465 39.6569 39.8275 39.7582 39.8148 39.8533C39.7641 40.2271 39.6881 40.6389 39.7071 41.019C39.7388 41.6843 39.5994 41.5005 40.0872 41.6969C40.4547 41.8427 41.1579 41.7286 41.5888 41.8173C42.0893 41.925 42.5708 42.1024 43.0523 42.2671C43.3564 42.3748 43.6859 42.5015 43.8442 42.7803C43.9329 42.9324 43.9519 43.1161 43.971 43.2871C44.0913 44.3325 44.142 45.3906 44.1357 46.4423C44.1357 46.6197 45.4788 46.531 45.6626 46.3283C45.6816 46.3093 45.7006 46.2839 45.7132 46.2586L45.7196 46.2712Z" fill="#EECA2E"/>
<g opacity="0.15">
<path d="M43.4325 40.1703C43.3945 40.7975 43.2297 41.3677 42.9827 41.9442C42.932 42.0583 43.0777 42.1406 43.1474 42.0393C43.5402 41.4881 43.7429 40.8355 43.8126 40.1703C43.838 39.9295 43.4515 39.9232 43.4325 40.1703Z" fill="#272525"/>
<path d="M44.4335 40.6199C44.3195 41.2281 44.047 41.6273 43.6162 42.0581C43.5592 42.1151 43.6352 42.2165 43.7049 42.1722C43.9963 41.9884 44.2751 41.868 44.4842 41.5829C44.6806 41.3105 44.8136 41.0127 44.8453 40.6769C44.8706 40.4425 44.4778 40.3918 44.4335 40.6199Z" fill="#272525"/>
</g>
<path d="M18.2104 37.8388C18.1597 37.8895 18.1533 37.9591 18.147 38.0288C18.0076 39.8408 17.8936 41.6528 17.8049 43.4648C17.7985 43.6232 17.8049 43.8069 17.9252 43.9083C18.0139 43.978 18.1343 43.9843 18.2484 43.9843C18.6538 43.9843 19.053 43.997 19.4585 43.997C19.7119 41.9379 19.8133 39.8598 19.7626 37.7881C19.3128 37.7881 18.8629 37.7881 18.4194 37.7817C18.3434 37.7817 18.2674 37.7817 18.2104 37.8324V37.8388Z" fill="#2F3F47"/>
<path d="M13.1355 35.6089C13.1546 35.7672 13.1736 35.932 13.1165 36.084C13.0722 36.2044 12.9835 36.2995 12.8948 36.3945C12.521 36.781 12.1155 37.1421 11.6784 37.4589C11.1842 37.3892 10.6963 37.2561 10.2465 37.0534C10.1641 37.0154 10.0754 36.971 10.0184 36.895C9.97407 36.838 9.9614 36.7619 9.94873 36.6923C9.77767 35.8813 9.60661 35.064 9.43555 34.2531C9.68897 34.082 9.96773 33.9426 10.2528 33.8349C10.3669 34.3227 10.4809 34.8169 10.595 35.3048C10.7027 35.7736 10.8801 36.3185 11.3426 36.4515C11.6213 36.2107 11.9001 35.9636 12.1789 35.7229C12.2296 35.6785 12.2802 35.6342 12.3056 35.5772C12.3373 35.5075 12.3246 35.4251 12.3119 35.3428C12.2422 34.8613 12.1345 34.3924 11.9888 33.9299C12.2232 33.8856 12.4513 33.8412 12.6857 33.7969C12.9772 34.3544 13.0595 34.9943 13.1355 35.6152V35.6089Z" fill="#2F3F47"/>
<path d="M10.9624 37.471C10.9624 37.471 10.9624 37.5217 10.9624 37.547L11.1715 38.4214C11.6276 38.3137 12.0775 38.1679 12.521 37.9969C12.4766 37.7435 12.4069 37.4964 12.3119 37.262C12.2929 37.2113 12.2612 37.1543 12.2105 37.1352C12.1788 37.1226 12.1408 37.1289 12.1091 37.1352C11.748 37.1986 11.3932 37.2873 11.0448 37.4013C11.0067 37.414 10.9687 37.433 10.9561 37.4647L10.9624 37.471Z" fill="#516770"/>
<path d="M11.0574 38.7009C11.0131 39.2394 11.7607 40.2341 11.9824 40.6776C12.2865 41.2795 12.5907 41.8877 13.0215 42.4072C13.4523 42.9268 14.0225 43.3576 14.6814 43.4906C15.0552 43.5666 15.4417 43.5476 15.8218 43.497C16.9622 43.3512 18.071 42.9394 19.034 42.3059C19.11 42.2552 19.1924 42.1981 19.224 42.1094C19.2557 42.0208 19.224 41.9194 19.1924 41.8243C19.072 41.4632 18.9516 41.0641 18.7679 40.7346C18.4448 40.1518 18.6475 40.2531 18.128 40.2975C17.7288 40.3291 17.1523 40.7473 16.7278 40.855C16.2336 40.9817 15.7204 41.0388 15.2136 41.1021C14.8905 41.1401 14.542 41.1718 14.2759 40.9944C14.1302 40.893 14.0288 40.7409 13.9338 40.5952C13.3636 39.7082 12.8441 38.7896 12.3879 37.8392C12.3119 37.6745 11.1398 38.3588 11.0701 38.6185C11.0638 38.6439 11.0574 38.6755 11.0574 38.7009Z" fill="#EECA2E"/>
<g opacity="0.15">
<path d="M15.8218 43.1482C15.5811 42.5653 15.4734 41.9824 15.4417 41.3552C15.4353 41.2348 15.2706 41.2159 15.2516 41.3426C15.1439 42.0078 15.2516 42.6857 15.486 43.3129C15.5684 43.541 15.9169 43.3699 15.8218 43.1419V43.1482Z" fill="#272525"/>
<path d="M14.7258 43.1923C14.5548 42.5968 14.6245 42.1216 14.8209 41.5387C14.8462 41.4627 14.7322 41.4057 14.6941 41.4754C14.5168 41.7668 14.3203 42.0012 14.257 42.3497C14.2 42.6791 14.2126 43.0086 14.333 43.319C14.4154 43.5408 14.7892 43.4141 14.7258 43.186V43.1923Z" fill="#272525"/>
</g>
<path d="M20.7192 31.883C20.7192 32.1301 20.7382 32.3899 20.8459 32.6116C21.112 33.1818 21.8216 33.3655 22.4425 33.4669C25.9904 34.0624 29.6271 34.2652 33.194 33.8154C33.6629 33.7584 34.138 33.6823 34.5625 33.4923C34.9933 33.2959 35.3798 32.9664 35.5382 32.5229C35.6396 32.2441 35.6459 31.9401 35.6459 31.6423L35.6586 30.7299C35.6586 30.5906 35.6586 30.4512 35.6079 30.3245C35.5509 30.1851 35.4305 30.0773 35.3101 29.9887C34.8413 29.6655 34.2457 29.5959 33.6755 29.5388C29.8932 29.1587 26.0665 28.8293 22.3031 29.3361C22.1447 29.3551 21.98 29.3868 21.8659 29.4945C21.8089 29.5515 21.7709 29.6212 21.7075 29.6719C21.5998 29.7542 21.4478 29.7542 21.3147 29.7922C20.9473 29.9126 20.8142 30.3625 20.7699 30.7489C20.7255 31.1227 20.7065 31.5029 20.7129 31.883H20.7192Z" fill="#C9E1F9"/>
<path d="M25.4583 32.4342C25.585 32.2061 25.604 31.9337 25.5787 31.6803C25.566 31.5219 25.528 31.3635 25.4266 31.2431C25.2176 30.9897 24.8311 31.0214 24.5143 30.9644C24.2292 31.0847 24.0011 31.3128 23.8744 31.5916C23.8047 31.7563 23.7667 31.9463 23.7921 32.1237C23.8427 32.4912 24.1468 32.8143 24.508 32.884C24.8691 32.9537 25.2746 32.7637 25.452 32.4342H25.4583Z" fill="#2F3F47"/>
<path d="M31.6798 32.4342C31.8065 32.2061 31.8255 31.9337 31.8001 31.6803C31.7875 31.5219 31.7495 31.3635 31.6481 31.2431C31.439 30.9897 31.0525 31.0214 30.7358 30.9644C30.4506 31.0847 30.2226 31.3128 30.0959 31.5916C30.0262 31.7563 29.9881 31.9463 30.0135 32.1237C30.0578 32.4912 30.3683 32.8143 30.7294 32.884C31.0969 32.9537 31.496 32.7637 31.6734 32.4342H31.6798Z" fill="#2F3F47"/>
<path d="M33.099 44.0541C33.1751 43.9591 33.1687 43.826 33.1624 43.7056C33.023 41.3741 33.3018 39.239 33.1624 36.9075C31.3251 36.9709 29.0696 36.8315 27.2259 36.8948C26.529 36.9202 25.8194 36.9392 25.1415 36.7935C25.0655 39.1756 25.0401 41.5515 25.0591 43.9337C27.5934 44.1998 30.1466 44.2822 32.6999 44.1935C32.8456 44.1935 33.0104 44.1745 33.099 44.0604V44.0541Z" fill="#B3D0FF"/>
<path d="M27.8405 45.112C27.8405 45.112 27.8658 45.1437 27.8911 45.1501C27.8911 45.1374 27.8911 45.1247 27.8911 45.112C27.9292 45.093 27.8341 45.0677 27.8468 45.112H27.8405Z" fill="#B4C7BA"/>
<path d="M27.8405 47.3171C27.8405 47.3171 27.8658 47.3488 27.8911 47.3551C27.8911 47.3425 27.8911 47.3298 27.8911 47.3171C27.9292 47.2981 27.8341 47.2728 27.8468 47.3171H27.8405Z" fill="#B4C7BA"/>
</svg>
