<svg width="77" height="84" viewBox="0 0 77 84" fill="none" xmlns="http://www.w3.org/2000/svg">
<g clip-path="url(#clip0_364_10229)">
<path d="M21.0458 75.0556L20.8401 74.288C20.3945 72.625 21.3778 70.9218 23.1048 70.459L71.7173 57.4334L70.8603 54.2352L22.2479 67.2609C18.7938 68.1864 16.7975 71.7377 17.7059 75.1278L17.9115 75.8954C18.8371 79.3494 22.3884 81.3458 25.7785 80.4374L74.391 67.4117L73.534 64.2135L24.9216 77.2392C23.2585 77.6848 21.4914 76.7186 21.0458 75.0556Z" fill="#CE6861"/>
<path d="M23.0876 70.3953C21.4245 70.841 20.3772 72.5613 20.8229 74.2243L21.0285 74.9919C21.4741 76.6549 23.1773 77.6383 24.9043 77.1755L73.5168 64.1498L71.6829 57.3057L23.0704 70.3314L23.0876 70.3953Z" fill="#EEEEEE"/>
<path d="M8.39955 15.5782C4.94551 16.5037 2.94919 20.0551 3.85755 23.4452L17.6888 75.064C16.7632 71.6099 18.8407 68.1053 22.2308 67.197L23.4461 66.8713L9.61486 15.2526L8.39955 15.5782Z" fill="#CE6861"/>
<path d="M56.9479 2.57028L9.61475 15.2532L23.4459 66.8719L70.7791 54.189L56.9479 2.57028Z" fill="#ED7971"/>
<path d="M26.4905 73.1172L68.0669 61.9768" stroke="#8EBAEF" stroke-width="1.5"/>
<path d="M31.4075 39.784L28.5931 40.5381" stroke="#255599" stroke-width="1.5"/>
<path d="M26.3544 41.1372L23.54 41.8914" stroke="#255599" stroke-width="1.5"/>
<path d="M26.3791 36.8806L27.1332 39.695" stroke="#255599" stroke-width="1.5"/>
<path d="M27.733 41.9338L28.4872 44.7482" stroke="#255599" stroke-width="1.5"/>
<path d="M28.1726 56.6255L28.7553 58.8003" stroke="#255599" stroke-width="1.5"/>
<path d="M35.0165 54.7917L35.5993 56.9665" stroke="#255599" stroke-width="1.5"/>
<path d="M41.8609 52.9578L42.4436 55.1325" stroke="#255599" stroke-width="1.5"/>
<path d="M48.7054 51.1228L49.2882 53.2976" stroke="#255599" stroke-width="1.5"/>
<path d="M55.6133 49.2722L56.196 51.447" stroke="#255599" stroke-width="1.5"/>
<path d="M62.4571 47.4373L63.0398 49.612" stroke="#255599" stroke-width="1.5"/>
<path d="M46.852 20.3138L47.252 21.8067L35.3092 25.0067L34.9092 23.5139L46.852 20.3138ZM44.8537 18.3107L45.2422 19.7605L36.1128 22.2067L34.8512 17.4985L43.9088 15.0715L44.305 16.55L37.0704 18.4885L37.5473 20.2685L44.8537 18.3107ZM41.4634 24.2039C44.2912 23.4462 46.2302 23.8497 46.6561 25.3818C47.0571 26.9359 45.5797 28.2549 42.7519 29.0126C39.8954 29.778 37.9421 29.3783 37.5267 27.828C37.1151 26.2921 38.6069 24.9693 41.4634 24.2039ZM41.8365 25.5962C40.0278 26.0809 39.2015 26.6715 39.3928 27.328C39.563 28.0208 40.5702 28.1048 42.3788 27.6202C44.1444 27.1471 44.989 26.567 44.8187 25.8741C44.6274 25.2177 43.6021 25.1232 41.8365 25.5962Z" fill="white"/>
<path d="M35.2625 27.8197L35.6625 29.3125L23.7053 32.5165L23.3053 31.0236L28.358 29.6697L27.6734 27.1146L29.4964 26.6262L30.181 29.1813L35.2625 27.8197ZM31.9953 19.818L32.3876 21.2821L28.3971 22.3514C28.9363 23.7608 30.809 24.836 33.8857 24.4039L33.6061 26.0019C31.1875 26.3346 29.2413 25.8176 28.0113 24.701C27.49 26.2868 26.0774 27.7038 23.8165 28.625L22.761 27.3847C25.6415 26.2206 26.7257 24.3531 26.5023 22.8591L22.5118 23.9283L22.1195 22.4642L26.1387 21.3873L25.7003 19.7509L27.5233 19.2624L27.9617 20.8988L31.9953 19.818Z" fill="white"/>
</g>
<defs>
<clipPath id="clip0_364_10229">
<rect width="60.8696" height="70" fill="white" transform="translate(0.0435791 15.7542) rotate(-15)"/>
</clipPath>
</defs>
</svg>
