<svg width="98" height="81" viewBox="0 0 98 81" fill="none" xmlns="http://www.w3.org/2000/svg">
<path d="M13.0504 56.4399C13.0504 56.4399 -7.44919 41.0652 4.8326 21.0871C17.1324 1.10895 39.1605 -2.46949 58.6172 2.51155C82.6413 8.66144 96.5235 17.0231 97.027 30.8514C97.5305 44.6796 95.4985 66.6718 67.842 68.2002C67.842 68.2002 52.4673 69.7287 45.3104 68.2002L40.707 80.5L34.5571 65.1253C34.5571 65.1253 17.6539 60.8455 13.0504 56.4219V56.4399Z" fill="#50637C"/>
<path d="M29.1085 32.3681C29.1085 32.3681 31.2304 31.2172 33.5142 33.3751C35.7979 35.533 34.4313 40.1723 29.8639 39.8666C25.2964 39.5789 24.5411 33.8067 29.1085 32.3501V32.3681Z" fill="white"/>
<path d="M56.4773 35.2814C56.4773 35.2814 57.9159 37.673 55.3804 40.3164C52.845 42.9597 47.2705 41.5391 47.5043 36.3243C47.738 31.1275 54.6431 30.1205 56.4773 35.2634V35.2814Z" fill="white"/>
<path d="M73.6143 32.3676C73.6143 32.3676 76.0779 33.3207 75.97 36.7013C75.8801 40.0999 71.1868 42.2038 68.1298 38.2298C65.0908 34.2737 69.1727 29.5984 73.5963 32.3496L73.6143 32.3676Z" fill="white"/>
</svg>
