<svg width="25" height="24" viewBox="0 0 25 24" fill="none" xmlns="http://www.w3.org/2000/svg">
<path d="M19.5056 5.94796C19.5056 5.2755 18.9602 4.73047 18.2881 4.73047H6.21788C5.54542 4.73047 5 5.27589 5 5.94796V20.7822C5 21.4546 5.54581 21.9996 6.21788 21.9996H15.0654L19.5056 17.559V5.94796Z" fill="white" stroke="#333333" stroke-width="1.5" stroke-linecap="round" stroke-linejoin="round"/>
<path d="M19.5057 17.5586H16.2829C15.6105 17.5586 15.0654 18.1044 15.0654 18.7765V21.9992L19.5057 17.5586Z" fill="white" stroke="#333333" stroke-width="1.5" stroke-linecap="round" stroke-linejoin="round"/>
<path d="M9.78407 12.728L9.02023 11.051L7.17773 11.0235L8.70812 8.68462L10.2373 6.3457L11.5407 7.19814L12.8433 8.05058L11.3141 10.3895L9.78407 12.728Z" fill="#EE5750" stroke="#333333" stroke-width="1.5" stroke-linecap="round" stroke-linejoin="round"/>
<path d="M14.7231 12.728L15.4869 11.051L17.3286 11.0235L15.7986 8.68462L14.269 6.3457L12.9657 7.19814L11.6631 8.05058L13.1931 10.3895L14.7231 12.728Z" fill="#EE5750" stroke="#333333" stroke-width="1.5" stroke-linecap="round" stroke-linejoin="round"/>
<path d="M12.2536 9.08537C14.2102 9.08537 15.7963 7.49925 15.7963 5.54268C15.7963 3.58611 14.2102 2 12.2536 2C10.297 2 8.71094 3.58611 8.71094 5.54268C8.71094 7.49925 10.297 9.08537 12.2536 9.08537Z" fill="#F8CE00" stroke="#333333" stroke-width="1.5" stroke-linecap="round" stroke-linejoin="round"/>
</svg>
