<svg width="20" height="20" viewBox="0 0 20 20" fill="none" xmlns="http://www.w3.org/2000/svg">
<path d="M8.60012 14.6L15.6501 7.55L14.2501 6.15L8.60012 11.8L5.75012 8.95L4.35012 10.35L8.60012 14.6ZM10.0001 20C8.61679 20 7.31679 19.7375 6.10012 19.2125C4.88345 18.6875 3.82512 17.975 2.92512 17.075C2.02512 16.175 1.31262 15.1167 0.787622 13.9C0.262622 12.6833 0.00012207 11.3833 0.00012207 10C0.00012207 8.61667 0.262622 7.31667 0.787622 6.1C1.31262 4.88333 2.02512 3.825 2.92512 2.925C3.82512 2.025 4.88345 1.3125 6.10012 0.7875C7.31679 0.2625 8.61679 0 10.0001 0C11.3835 0 12.6835 0.2625 13.9001 0.7875C15.1168 1.3125 16.1751 2.025 17.0751 2.925C17.9751 3.825 18.6876 4.88333 19.2126 6.1C19.7376 7.31667 20.0001 8.61667 20.0001 10C20.0001 11.3833 19.7376 12.6833 19.2126 13.9C18.6876 15.1167 17.9751 16.175 17.0751 17.075C16.1751 17.975 15.1168 18.6875 13.9001 19.2125C12.6835 19.7375 11.3835 20 10.0001 20Z" fill="#6082D0"/>
</svg>
