<svg width="33" height="29" viewBox="0 0 33 29" fill="none" xmlns="http://www.w3.org/2000/svg">
<path d="M11.8496 0.0889282L14.3267 4.18563C9.0867 7.7107 6.32381 11.331 6.22853 17.4285C6.51435 17.3332 6.80017 17.3332 7.18125 17.3332C10.1347 17.3332 12.8023 19.2386 12.8023 22.6684C12.8023 26.384 10.5158 28.48 7.18125 28.48C2.98928 28.48 0.512207 25.0502 0.512207 18.9528C0.512207 10.4736 4.51364 4.37617 11.8496 0.0889282ZM30.5229 0.0889282L33 4.18563C27.8553 7.7107 25.0924 11.331 24.9971 17.4285C25.283 17.3332 25.5688 17.3332 25.8546 17.3332C28.808 17.3332 31.5709 19.2386 31.5709 22.6684C31.5709 26.384 29.1891 28.48 25.8546 28.48C21.6626 28.48 19.2808 25.0502 19.2808 18.9528C19.2808 10.4736 23.2822 4.37617 30.5229 0.0889282Z" fill="white"/>
</svg>
