<svg width="1920" height="152" viewBox="0 0 1920 152" fill="none" xmlns="http://www.w3.org/2000/svg">
<path d="M145.155 37.5199C140.62 40.2062 134.19 38.7497 131.175 34.3496C130.046 32.7056 129.37 30.6036 129.884 28.6631C130.398 26.7225 132.364 25.1439 134.275 25.58C133.413 23.9577 132.993 21.9343 133.757 20.2597C134.522 18.5852 136.785 17.6258 138.242 18.7117C137.944 17.1461 138.641 15.4279 139.932 14.5383C141.223 13.6487 143.032 13.6356 144.336 14.5078C144.811 14.8261 145.245 15.2622 145.797 15.3974C146.289 15.5152 146.803 15.3756 147.308 15.3276C149.988 15.0791 152.434 18.0662 151.738 20.7351C153.381 19.4137 156.018 20.7613 156.723 22.776C157.428 24.795 156.762 27.0365 155.895 28.9858C158.04 29.1515 159.751 31.3363 159.709 33.5472C159.666 35.7581 158.074 37.7641 156.061 38.5447C154.048 39.3253 151.721 38.9764 149.835 37.9124C149.207 37.5592 148.527 37.1144 147.835 37.2932C147.406 37.4022 147.071 37.7336 146.688 37.9691C145.741 38.5578 144.45 38.4924 143.563 37.8165" fill="#B3C77D"/>
<path d="M142.578 59.7122C143.903 59.7078 145.232 59.7035 146.557 59.6991C146.37 54.6449 146.187 49.5951 146.001 44.5409C145.945 43.0059 145.89 41.436 146.34 39.9707C147.181 37.2234 149.602 35.357 151.878 33.678C150.566 34.3932 149.254 35.104 147.946 35.8192C147.47 36.0809 146.646 36.8614 146.119 36.7524C145.134 36.5475 145.134 34.7508 145.045 33.7216C144.833 31.2665 144.625 28.8114 144.412 26.3606C144.141 29.5309 143.627 32.6794 142.883 35.7669C142.803 36.1027 142.667 36.4951 142.34 36.5867C142.06 36.6608 141.784 36.4733 141.554 36.2945C139.592 34.7682 137.635 33.242 135.673 31.7157C137.354 34.62 139.605 37.1754 142.251 39.1814C142.251 39.1814 142.807 52.7567 142.578 59.7209V59.7122Z" fill="#BF8348"/>
<path d="M560.79 119.694C556.845 119.212 554.167 116.162 553.732 113.154C553.297 110.146 554.59 107.166 555.864 104.296C557.119 101.468 558.1 100.466 559.163 98.907C559.978 97.7165 561.719 97.8484 562.384 99.1349C563.608 101.507 564.969 102.961 566.003 106.587C566.636 108.812 567.276 111.094 566.876 113.349C566.388 116.108 564.28 118.681 561.231 120.237" fill="#B3C77D"/>
<path d="M559.651 119.706C559.558 118.174 558.898 116.686 557.832 115.61C558.375 116.192 558.915 116.776 559.458 117.358C559.596 117.505 559.765 117.664 559.961 117.634C560.235 117.592 560.323 117.238 560.349 116.956C560.448 115.865 560.548 114.776 560.65 113.685C560.536 114.581 560.448 115.58 560.98 116.3C561.511 117.019 562.898 116.986 563.05 116.099C561.508 120.699 561.313 125.764 562.492 130.475C561.497 130.373 560.498 130.268 559.502 130.163C560.361 126.15 560.326 121.943 559.406 117.946" fill="#BF8348"/>
<path d="M546.293 114.813C541.463 114.222 538.184 110.489 537.652 106.806C537.119 103.124 538.703 99.4748 540.262 95.9614C541.799 92.4994 543 91.2732 544.301 89.3642C545.299 87.9067 547.43 88.0682 548.245 89.6432C549.743 92.5472 551.409 94.3277 552.674 98.7663C553.45 101.49 554.233 104.284 553.743 107.045C553.146 110.422 550.565 113.572 546.833 115.478" fill="#B3C77D"/>
<path d="M544.899 114.828C544.784 112.952 543.976 111.131 542.671 109.813C543.336 110.525 543.998 111.241 544.663 111.953C544.831 112.133 545.038 112.328 545.278 112.291C545.614 112.24 545.721 111.807 545.753 111.461C545.875 110.125 545.996 108.792 546.121 107.456C545.982 108.554 545.875 109.776 546.525 110.657C547.176 111.539 548.874 111.498 549.06 110.411C547.172 116.043 546.933 122.244 548.377 128.011C547.158 127.887 545.935 127.758 544.716 127.63C545.767 122.718 545.725 117.567 544.598 112.673" fill="#BF8348"/>
<path d="M241.469 32.4318C241.675 30.5006 241.331 28.561 240.647 26.7432C240.031 25.0933 239.201 23.4434 237.8 22.3812C235.284 20.4669 231.728 20.9749 228.679 21.8103C226.683 22.3603 224.62 23.0698 223.224 24.6063C220.469 27.6416 221.496 31.8692 223.307 35.551C225.954 40.9247 240.631 40.19 241.461 32.436L241.469 32.4318Z" fill="#B3C77D"/>
<path d="M230.453 39.8916C231.166 46.8354 230.633 50.7608 230.856 56.1764C230.885 56.865 230.394 58.2252 232.059 58.3553C234.043 58.5107 233.976 57.205 233.577 55.6685C232.432 51.2813 232.755 46.4828 232.806 41.9529C232.822 40.6347 232.864 39.2745 233.397 38.0696C234.508 35.5591 237.67 33.6153 236.982 30.9578C235.653 32.3306 234.324 33.7035 232.99 35.0763C232.768 35.303 232.516 35.5465 232.198 35.5549C231.879 35.5633 231.606 35.3324 231.376 35.1141C229.904 33.7203 228.537 32.2131 227.291 30.6094C228.683 33.0527 230.332 38.8043 230.445 39.8916H230.453Z" fill="#BF8348"/>
<path d="M465.342 93.6632C462.593 88.0209 456.243 84.306 449.958 84.7311C449.018 84.8252 448.079 84.9193 447.176 84.6843C446.273 84.4493 445.481 83.8268 444.666 83.4017C442.091 82.1117 438.929 82.4888 436.276 83.6564C433.681 84.8972 431.87 87.4261 429.791 89.3916L524.438 115.718C524.757 112.888 524.239 109.83 522.926 107.349C521.613 104.868 518.973 102.971 516.176 103.056C514.713 103.091 513.321 103.667 511.994 104.251C511.466 102.459 509.838 101.009 508.032 100.539C506.235 100.003 504.283 100.25 502.497 100.782C501.956 98.521 500.285 96.2665 498.453 94.8602C496.621 93.454 494.459 92.6106 492.261 92.0963C488.964 91.3249 485.519 91.2702 482.299 92.1738C479.078 93.0775 476.023 94.8664 473.935 97.4975C473.9 96.627 473.261 95.8218 472.527 95.2724C471.792 94.7231 470.97 94.3638 470.14 94.0704C468.801 93.5863 467.244 93.2775 465.924 93.7955" fill="#5D9667"/>
<path d="M446.514 94.0545L374.166 77.5705C375.112 73.9661 377.168 70.3309 380.042 67.932C381.065 67.1085 382.351 66.344 383.603 66.7069C384.985 67.0662 385.681 68.571 386.176 69.9488C386.596 70.9312 386.95 71.9154 387.369 72.8977C388.544 70.4797 390.254 68.5106 392.434 66.9925C393.781 66.0937 395.461 65.3845 397.039 65.7384C398.814 66.0869 400.166 67.706 401.189 69.268C403.033 72.1326 404.491 75.2066 405.497 78.4919C405.779 76.8938 407.116 75.5978 408.672 75.1571C410.23 74.7826 412.006 75.1973 413.34 76.1543C413.309 75.0287 414.595 74.2641 415.711 74.432C416.826 74.5999 417.637 75.5714 418.124 76.6182C419.929 75.7068 421.387 74.076 423.188 73.0322C426.599 71.1486 431.245 71.3512 433.936 74.1261C436.695 76.9653 436.819 81.4678 436.733 85.446C438.333 84.209 440.615 84.0132 442.466 84.7572C444.316 85.5011 445.737 87.2509 446.117 89.162C446.549 90.6078 446.735 92.5906 446.514 94.0545Z" fill="#74A667"/>
<path d="M270.337 55.1321C275.306 50.6687 283.01 49.5423 288.999 52.4576C289.88 52.8837 290.797 53.4068 291.761 53.5163C292.77 53.631 293.729 53.3676 294.714 53.2933C297.764 53.0347 300.743 54.6303 302.859 56.8726C304.974 59.1149 305.726 62.3195 306.988 65.1166L203.427 53.3478C204.266 50.4636 205.936 47.6273 208.246 45.7017C210.551 43.8221 213.853 42.9869 216.599 44.1834C218.015 44.8099 219.144 45.9159 220.227 47.0167C221.476 45.436 223.605 44.7002 225.578 44.9245C227.551 45.1487 229.389 46.149 230.921 47.3939C232.308 45.41 234.898 43.8886 237.205 43.2196C239.558 42.5559 242.021 42.5565 244.437 42.9707C247.954 43.5101 251.383 44.8309 254.208 46.9676C257.032 49.1042 259.294 52.108 260.345 55.5329C260.771 54.6502 261.711 54.1518 262.624 53.8831C263.538 53.6145 264.517 53.5861 265.486 53.6497C267.01 53.7298 268.652 54.0095 269.792 55.0235" fill="#B3CC79"/>
<path d="M222.53 58.1397L157.978 54.0301C158.323 50.8254 159.585 47.4353 161.766 45.0538C162.513 44.2146 163.523 43.3602 164.657 43.4939C165.857 43.6238 166.721 44.8346 167.31 45.8622C167.752 46.633 168.26 47.3999 168.706 48.2367C169.372 46.0088 170.586 44.0811 172.284 42.5236C173.353 41.5331 174.698 40.7258 176.092 40.7782C177.688 40.8853 179.011 42.0033 180.139 43.1989C182.117 45.3408 183.784 47.8323 185.125 50.409C185.177 49.0127 186.095 47.6992 187.455 47.1564C188.748 46.6174 190.344 46.7245 191.574 47.3835C191.385 46.3991 192.399 45.6109 193.394 45.6199C194.388 45.629 195.222 46.3108 195.799 47.14C197.264 46.1267 198.295 44.475 199.691 43.3993C202.353 41.3218 206.368 40.8914 209.131 42.8554C211.897 44.8855 212.581 48.6943 213.109 52.114C214.294 50.8514 216.256 50.4067 217.933 50.7745C219.61 51.1423 221.077 52.4511 221.696 54.0078C222.095 55.1791 222.59 56.8756 222.53 58.1397Z" fill="#74A667"/>
<path d="M133.539 54.8225L12.9183 55.055C13.1646 49.029 15.1334 42.6193 18.8082 37.8792C20.1438 36.2338 21.8768 34.5254 24.0579 34.6752C26.3717 34.7599 28.0079 36.8926 29.3157 38.7577C30.2965 40.1566 31.2773 41.5554 32.2581 42.9543C33.2837 38.7231 35.2308 35.0291 38.2317 31.8734C40.0985 29.9673 42.4266 28.2635 45.1382 28.2189C48.1143 28.1763 50.7435 30.1845 52.9093 32.2552C56.8467 36.0622 60.3171 40.3955 63.0569 45.1204C62.9457 42.4699 64.5527 39.9655 66.9427 38.7922C69.3327 37.6189 72.176 37.6415 74.6809 38.655C74.2322 36.863 75.9646 35.2207 77.8172 35.103C79.6697 34.9852 81.3134 36.1907 82.4259 37.6568C85.0211 35.624 86.7656 32.4583 89.2302 30.2257C93.9582 26.0902 101.376 24.6919 106.705 28.1126C112.1 31.6001 113.896 38.5696 115.168 44.8726C117.238 42.372 120.884 41.2749 124.054 41.7638C127.225 42.2527 130.117 44.4617 131.416 47.3866C132.392 49.3816 133.491 52.5036 133.539 54.8225Z" fill="#74A667"/>
<path d="M863.237 225.031C863.237 225.031 796.794 198.742 778.007 193.217C427.003 90.8213 286 5.53127 -225 78.5338V224.936H863.237V225.031Z" fill="#74A667"/>
<g clip-path="url(#clip0_467_3917)">
<path d="M375.864 52.1806H343.6V54.1226H375.864V52.1806Z" fill="#FFC545"/>
<path d="M343.182 50.1625H343.22C344.36 50.1625 345.291 51.0954 345.291 52.2377V72.9708C345.291 74.1131 344.36 75.046 343.22 75.046H343.182C342.042 75.046 341.111 74.1131 341.111 72.9708V52.2377C341.111 51.0954 342.042 50.1625 343.182 50.1625Z" fill="#9BD2CD"/>
<path d="M349.395 50.1625H349.433C350.573 50.1625 351.504 51.0954 351.504 52.2377V72.9708C351.504 74.1131 350.573 75.046 349.433 75.046H349.395C348.255 75.046 347.324 74.1131 347.324 72.9708V52.2377C347.324 51.0954 348.255 50.1625 349.395 50.1625Z" fill="#9BD2CD"/>
<path d="M355.609 50.1625H355.647C356.787 50.1625 357.718 51.0954 357.718 52.2377V72.9708C357.718 74.1131 356.787 75.046 355.647 75.046H355.609C354.469 75.046 353.538 74.1131 353.538 72.9708V52.2377C353.538 51.0954 354.469 50.1625 355.609 50.1625Z" fill="#9BD2CD"/>
<path d="M361.822 50.1625H361.86C363 50.1625 363.931 51.0954 363.931 52.2377V72.9708C363.931 74.1131 363 75.046 361.86 75.046H361.822C360.682 75.046 359.751 74.1131 359.751 72.9708V52.2377C359.751 51.0954 360.682 50.1625 361.822 50.1625Z" fill="#9BD2CD"/>
<path d="M368.036 50.1625H368.074C369.214 50.1625 370.145 51.0954 370.145 52.2377V72.9708C370.145 74.1131 369.214 75.046 368.074 75.046H368.036C366.896 75.046 365.964 74.1131 365.964 72.9708V52.2377C365.964 51.0954 366.896 50.1625 368.036 50.1625Z" fill="#9BD2CD"/>
<path d="M382.021 67.6591H342.061V70.3435H382.021V67.6591Z" fill="#FCD746"/>
<path d="M342.612 33.3324H339.42V116.531H342.612V33.3324Z" fill="#72A2ED"/>
<path d="M345.025 113.161H336.969V116.531H345.025V113.161Z" fill="#C8DE86"/>
<path d="M344.056 33.3324H340.864V116.531H344.056V33.3324Z" fill="#FFA912"/>
<path d="M342.726 113.161H338.432V116.531H342.726V113.161Z" fill="#C8DE86"/>
<path d="M344.683 33.3324H341.491V116.531H344.683V33.3324Z" fill="#ED6E50"/>
<path d="M347.115 113.161H339.059V116.531H347.115V113.161Z" fill="#C8DE86"/>
<path d="M377.612 33.3324H374.42V116.531H377.612V33.3324Z" fill="#72A2ED"/>
<path d="M380.044 113.161H371.988V116.531H380.044V113.161Z" fill="#C8DE86"/>
<path d="M379.075 33.3324H375.883V116.531H379.075V33.3324Z" fill="#FFA912"/>
<path d="M381.508 113.161H373.451V116.531H381.508V113.161Z" fill="#C8DE86"/>
<path d="M379.436 33.3324H376.244V116.531H379.436V33.3324Z" fill="#ED6E50"/>
<path d="M381.869 113.161H373.812V116.531H381.869V113.161Z" fill="#C8DE86"/>
<path d="M346.146 33.3324H342.954V116.531H346.146V33.3324Z" fill="#FFA912"/>
<path d="M348.578 113.161H340.522V116.531H348.578V113.161Z" fill="#C8DE86"/>
<path d="M380.899 33.3324H377.707V116.531H380.899V33.3324Z" fill="#FFA912"/>
<path d="M383.332 113.161H375.275V116.531H383.332V113.161Z" fill="#C8DE86"/>
<path d="M381.698 70.3435H341.738V73.028H381.698V70.3435Z" fill="#FFC545"/>
<path d="M381.698 52.1806H341.738V54.1226H381.698V52.1806Z" fill="#FFC545"/>
<path d="M349.015 50.1625H349.053C350.193 50.1625 351.124 51.0954 351.124 52.2377V72.9708C351.124 74.1131 350.193 75.046 349.053 75.046H349.015C347.875 75.046 346.944 74.1131 346.944 72.9708V52.2377C346.944 51.0954 347.875 50.1625 349.015 50.1625Z" fill="#89D6F4"/>
<path d="M355.229 50.1625H355.267C356.407 50.1625 357.338 51.0954 357.338 52.2377V72.9708C357.338 74.1131 356.407 75.046 355.267 75.046H355.229C354.089 75.046 353.158 74.1131 353.158 72.9708V52.2377C353.158 51.0954 354.089 50.1625 355.229 50.1625Z" fill="#9BD2CD"/>
<path d="M361.442 50.1625H361.48C362.62 50.1625 363.551 51.0954 363.551 52.2377V72.9708C363.551 74.1131 362.62 75.046 361.48 75.046H361.442C360.302 75.046 359.371 74.1131 359.371 72.9708V52.2377C359.371 51.0954 360.302 50.1625 361.442 50.1625Z" fill="#89D6F4"/>
<path d="M367.656 50.1625H367.694C368.834 50.1625 369.765 51.0954 369.765 52.2377V72.9708C369.765 74.1131 368.834 75.046 367.694 75.046H367.656C366.516 75.046 365.584 74.1131 365.584 72.9708V52.2377C365.584 51.0954 366.516 50.1625 367.656 50.1625Z" fill="#9BD2CD"/>
<path d="M373.869 50.1625H373.907C375.047 50.1625 375.978 51.0954 375.978 52.2377V72.9708C375.978 74.1131 375.047 75.046 373.907 75.046H373.869C372.729 75.046 371.798 74.1131 371.798 72.9708V52.2377C371.798 51.0954 372.729 50.1625 373.869 50.1625Z" fill="#89D6F4"/>
<path d="M376.187 70.591H376.301C383.199 70.4197 389.906 72.8566 395.131 77.3688L430.17 110.896C434.331 114.513 439.67 116.512 445.2 116.512H458.9L458.862 116.455C456.468 112.666 452.344 110.325 447.86 110.268H447.708C442.35 110.172 437.2 108.211 433.134 104.727L397.697 71.1812C392.661 66.8404 386.239 64.4606 379.607 64.4606H376.206V70.6101L376.187 70.591Z" fill="#9BD2CD"/>
<path d="M380.557 70.591H380.671C387.569 70.4197 394.276 72.8566 399.502 77.3688L434.54 110.896C438.701 114.513 444.041 116.512 449.57 116.512H463.27L463.232 116.455C460.838 112.666 456.715 110.325 452.23 110.268H452.078C446.72 110.172 441.571 108.211 437.504 104.727L402.067 71.1812C397.032 66.8404 390.609 64.4606 383.978 64.4606H380.576V70.6101L380.557 70.591Z" fill="#9BD2CD"/>
<path d="M361.689 15.5312L364.159 30.8954L338.679 30.4766L359.523 15.5312H361.689Z" fill="#72A2ED"/>
<path d="M380.614 30.4766H338.679V33.3705H380.614V30.4766Z" fill="#72A2ED"/>
<path d="M382.439 30.4766H340.769L361.689 15.5312L382.439 30.4766Z" fill="#72A2ED"/>
<path d="M382.458 30.4766H340.522V33.3705H382.458V30.4766Z" fill="#72A2ED"/>
<path d="M306.813 109.163H301.398V110.934H306.813V109.163Z" fill="#F4C67B"/>
<path d="M311.773 103.699H306.357V105.47H311.773V103.699Z" fill="#F4C67B"/>
<path d="M317.15 97.4736H311.735V99.2442H317.15V97.4736Z" fill="#F4C67B"/>
<path d="M322.528 91.248H317.112V93.0185H322.528V91.248Z" fill="#F4C67B"/>
<path d="M307.175 92.9233H305.483V110.458H307.175V92.9233Z" fill="#9BD2CD"/>
<path d="M312.457 86.812H310.766V104.347H312.457V86.812Z" fill="#9BD2CD"/>
<path d="M317.758 98.2351H316.067V80.6815L317.758 79.6725V98.2351Z" fill="#9BD2CD"/>
<path d="M323.06 92.1047L321.349 93.1137V74.5701H323.06V92.1047Z" fill="#9BD2CD"/>
<path d="M328.342 85.9933L326.632 87.0023V68.4587H328.342V85.9933Z" fill="#9BD2CD"/>
<path d="M333.624 79.8628L331.933 80.8719V62.3282H333.624V79.8628Z" fill="#9BD2CD"/>
<path d="M338.926 73.7514L337.216 74.7605V56.2169H338.926V73.7514Z" fill="#9BD2CD"/>
<path d="M301.892 116.531H299.631L340.94 70.3435H343.201L301.892 116.531Z" fill="#F4C67B"/>
<path d="M301.892 98.2922H299.631L340.94 52.1235H343.201L301.892 98.2922Z" fill="#F4C67B"/>
<path d="M301.892 95.208H299.251V116.531H301.892V95.208Z" fill="#C8DE86"/>
<path d="M329.083 86.8119L323.706 86.7929V85.0223H331.135L329.083 86.8119Z" fill="#F4AD7B"/>
<path d="M334.593 80.5673H329.083V78.7967H336.512L334.593 80.5673Z" fill="#F4AD7B"/>
<path d="M338.774 74.7605H333.263V72.9899H340.693L338.774 74.7605Z" fill="#F4AD7B"/>
<path d="M308.03 109.163H302.614V110.934H308.03V109.163Z" fill="#F4AD7B"/>
<path d="M313.008 103.699H307.593V105.47H313.008V103.699Z" fill="#F4AD7B"/>
<path d="M318.366 97.4736H312.951V99.2442H318.366V97.4736Z" fill="#F4AD7B"/>
<path d="M323.744 91.248H318.328V93.0185H323.744V91.248Z" fill="#F4AD7B"/>
<path d="M308.391 92.9233H306.699V110.458H308.391V92.9233Z" fill="#9BD2CD"/>
<path d="M313.673 86.812H311.982V104.347H313.673V86.812Z" fill="#89D6F4"/>
<path d="M318.974 98.2351H317.283V80.6815L318.974 79.6725V98.2351Z" fill="#9BD2CD"/>
<path d="M324.276 92.1047L322.566 93.1137V74.5701H324.276V92.1047Z" fill="#89D6F4"/>
<path d="M329.558 85.9933L327.867 87.0023V68.4587H329.558V85.9933Z" fill="#9BD2CD"/>
<path d="M334.84 79.8628L333.149 80.8719V62.3282H334.84V79.8628Z" fill="#89D6F4"/>
<path d="M340.142 73.7514L338.432 74.7605V56.2169H340.142V73.7514Z" fill="#9BD2CD"/>
<path d="M303.108 116.531H300.847L342.156 70.3435H344.417L303.108 116.531Z" fill="#F4AD7B"/>
<path d="M303.108 98.2922H300.847L342.156 52.1235H344.417L303.108 98.2922Z" fill="#F4AD7B"/>
<path d="M303.108 95.208H300.467V116.531H303.108V95.208Z" fill="#C8DE86"/>
<path d="M342.707 51.7047H340.066V73.028H342.707V51.7047Z" fill="#C8DE86"/>
<path d="M381.146 51.7047H378.505V73.028H381.146V51.7047Z" fill="#C8DE86"/>
<path d="M344.17 51.7047H341.529V73.028H344.17V51.7047Z" fill="#C8DE86"/>
<path d="M382.61 51.7047H379.968V73.028H382.61V51.7047Z" fill="#C8DE86"/>
</g>
<g clip-path="url(#clip1_467_3917)">
<path d="M260.889 115.008C264.614 115.008 267.634 114.365 267.634 113.571C267.634 112.777 264.614 112.133 260.889 112.133C257.163 112.133 254.143 112.777 254.143 113.571C254.143 114.365 257.163 115.008 260.889 115.008Z" fill="#49B3E1"/>
<path d="M267.503 110.525H254.284V113.43H267.503V110.525Z" fill="#49B3E1"/>
<path d="M267.644 110.525C267.644 111.319 264.618 111.962 260.899 111.962C257.179 111.962 254.153 111.319 254.153 110.525C254.153 109.731 257.179 109.087 260.899 109.087C264.618 109.087 267.644 109.731 267.644 110.525Z" fill="#49B3E1"/>
<path d="M257.893 110.434C257.893 110.434 257.953 110.364 257.953 110.274H257.109C257.109 109.52 258.255 109.349 260.848 109.027C261.693 108.926 262.859 108.776 263.492 108.615C262.859 108.454 261.693 108.303 260.848 108.203C258.255 107.881 257.109 107.71 257.109 106.956C257.109 106.202 258.255 106.031 260.848 105.71C261.693 105.609 262.859 105.458 263.492 105.297C262.859 105.137 261.693 104.986 260.848 104.885C258.255 104.564 257.109 104.393 257.109 103.639C257.109 102.885 258.255 102.714 260.838 102.392C261.683 102.292 262.849 102.141 263.482 101.98C262.849 101.819 261.683 101.668 260.838 101.568C258.245 101.246 257.099 101.075 257.099 100.321C257.099 99.5672 258.245 99.3963 260.838 99.0746C261.683 98.9741 262.849 98.8233 263.482 98.6624C262.849 98.5016 261.683 98.3508 260.838 98.2503C258.245 97.9286 257.099 97.7577 257.099 97.0037C257.099 96.2498 258.245 96.0789 260.828 95.7572C261.944 95.6164 263.623 95.4154 263.884 95.1841C263.864 95.1942 263.824 95.2545 263.824 95.345H264.668C264.668 96.099 263.522 96.2699 260.929 96.5916C260.084 96.6921 258.918 96.8429 258.285 97.0037C258.918 97.1646 260.084 97.3154 260.929 97.4159C263.522 97.7376 264.668 97.9085 264.668 98.6624C264.668 99.4164 263.522 99.5873 260.939 99.909C260.094 100.01 258.928 100.16 258.295 100.321C258.928 100.482 260.094 100.633 260.939 100.733C263.532 101.055 264.678 101.226 264.678 101.98C264.678 102.734 263.532 102.905 260.939 103.226C260.094 103.327 258.928 103.478 258.295 103.639C258.928 103.799 260.094 103.95 260.939 104.051C263.532 104.373 264.95 104.594 264.668 105.297C264.296 106.252 263.161 106.423 260.929 106.544C260.084 106.594 258.918 106.795 258.285 106.956C258.918 107.117 260.084 107.268 260.929 107.368C263.522 107.69 264.668 107.861 264.668 108.615C264.668 109.369 263.522 109.54 260.929 109.861C259.813 110.002 258.134 110.203 257.873 110.434H257.893Z" fill="#49B3E1"/>
<path d="M274.47 60.3508C274.47 60.3508 277.667 61.6577 278.873 62.8339C280.542 64.4826 281.487 65.7693 282.12 66.8752C282.331 67.2471 282.291 67.7096 282.01 68.0312L281.376 68.7551C281.085 69.0868 280.622 69.1974 280.22 69.0164C278.431 68.2323 274.43 67.1064 273.626 68.4736C272.64 70.1524 270.328 76.7471 272.47 80.1148C274.018 82.5477 276.42 87.4736 277.637 90.017C278.079 90.9418 277.798 92.0476 276.963 92.6508L276.119 93.2641C275.234 93.9074 273.998 93.7768 273.274 92.9524C271.052 90.4291 266.156 85.5736 261.281 85.5736C256.405 85.5736 251.328 90.8212 249.328 93.254C248.735 93.9778 247.749 94.2191 246.885 93.8773L245.578 93.3545C244.653 92.9826 244.11 92.0175 244.271 91.0323C244.904 87.1117 246.895 77.5815 251.318 75.4704C256.928 72.8064 261.411 74.7667 263.1 73.3693C264.779 71.9619 264.568 70.1223 266.9 65.9302C269.826 60.7328 276.008 58.5312 276.008 58.5312L274.47 60.3508Z" fill="#FED05E"/>
<path d="M262.135 74.6662H254.847V73.1381H262.135C262.547 73.1381 262.889 73.4799 262.889 73.8921V73.9122C262.889 74.3244 262.547 74.6662 262.135 74.6662Z" fill="#E0836E"/>
<path d="M255.349 74.6662H253.862L251.771 68.6746C251.62 68.2223 251.952 67.7598 252.434 67.7598H252.444C252.746 67.7598 253.007 67.9508 253.108 68.2323L255.339 74.6662H255.349Z" fill="#E0836E"/>
<path d="M274.47 61.1953C274.47 61.1953 277.667 62.5021 278.873 63.6783C280.542 65.327 281.487 66.6138 282.12 67.7196C282.331 68.0916 282.291 68.554 282.01 68.8757L281.376 69.5995C281.085 69.9313 280.622 70.0418 280.22 69.8609C278.431 69.0768 274.43 67.9508 273.626 69.318C272.64 70.9969 270.328 77.5916 272.47 80.9593C274.018 83.3921 276.42 88.318 277.637 90.8614C278.079 91.7863 277.798 92.8921 276.963 93.4953L276.119 94.1085C275.234 94.7519 273.998 94.6212 273.274 93.7969C271.052 91.2736 266.156 86.418 261.281 86.418C256.405 86.418 251.328 91.6656 249.328 94.0984C248.735 94.8122 247.749 95.0635 246.885 94.7217L245.578 94.199C244.653 93.827 244.11 92.8619 244.271 91.8768C244.904 87.9561 246.895 78.426 251.318 76.3148C256.928 73.6508 261.411 75.6111 263.1 74.2138C264.779 72.8064 264.568 70.9667 266.9 66.7746C269.826 61.5773 276.008 58.5312 276.008 58.5312L274.47 61.1953Z" fill="#F4AE7B"/>
<path d="M262.909 95.6365H258.868C256.928 95.6365 255.349 93.0328 255.349 89.8159V83.2815C255.349 81.8841 256.485 80.7482 257.883 80.7482H263.884C265.282 80.7482 266.418 81.8841 266.418 83.2815V89.8159C266.418 93.0328 264.839 95.6365 262.899 95.6365H262.909Z" fill="#A8BB6F"/>
<path d="M271.334 84.8598H268.318C267.825 84.8598 267.433 84.5482 267.433 84.1561C267.433 83.754 267.825 83.4424 268.318 83.4424H271.334C271.826 83.4424 272.218 83.754 272.218 84.1461C272.218 84.5482 271.826 84.8598 271.334 84.8598Z" fill="#49B3E1"/>
<path d="M252.876 84.8598H249.861C249.368 84.8598 248.976 84.5482 248.976 84.1561C248.976 83.754 249.368 83.4424 249.861 83.4424H252.876C253.369 83.4424 253.761 83.754 253.761 84.1461C253.761 84.5482 253.369 84.8598 252.876 84.8598Z" fill="#49B3E1"/>
<path d="M262.909 96.4709H258.868C256.928 96.4709 255.349 93.8672 255.349 90.6503V84.1159C255.349 82.7186 256.485 81.5826 257.883 81.5826H263.884C265.282 81.5826 266.418 82.7186 266.418 84.1159V90.6503C266.418 93.8672 264.839 96.4709 262.899 96.4709H262.909Z" fill="#C8DE86"/>
<path d="M258.868 84.3471C258.868 84.9905 258.345 85.5233 257.712 85.5032C256.847 85.473 256.204 84.9302 256.556 84.3471C256.877 83.7942 257.078 83.191 257.712 83.191C258.345 83.191 258.868 83.7138 258.868 84.3471Z" fill="#49B3E1"/>
<path d="M264.176 85.5032C264.814 85.5032 265.332 84.9856 265.332 84.3471C265.332 83.7086 264.814 83.191 264.176 83.191C263.537 83.191 263.02 83.7086 263.02 84.3471C263.02 84.9856 263.537 85.5032 264.176 85.5032Z" fill="#49B3E1"/>
<path d="M271.334 85.1413H268.318C267.825 85.1413 267.433 84.8297 267.433 84.4376C267.433 84.0355 267.825 83.7238 268.318 83.7238H271.334C271.826 83.7238 272.218 84.0355 272.218 84.4276C272.218 84.8297 271.826 85.1413 271.334 85.1413Z" fill="#49B3E1"/>
<path d="M252.876 85.1413H249.861C249.368 85.1413 248.976 84.8297 248.976 84.4376C248.976 84.0355 249.368 83.7238 249.861 83.7238H252.876C253.369 83.7238 253.761 84.0355 253.761 84.4276C253.761 84.8297 253.369 85.1413 252.876 85.1413Z" fill="#49B3E1"/>
<path d="M262.135 75.5106H254.847V73.9826H262.135C262.547 73.9826 262.889 74.3244 262.889 74.7365V74.7566C262.889 75.1688 262.547 75.5106 262.135 75.5106Z" fill="#E0836E"/>
<path d="M255.349 75.5106H253.862L251.65 68.9058C251.499 68.4535 251.831 67.991 252.313 67.991H252.323C252.625 67.991 252.886 68.182 252.987 68.4635L255.349 75.5106Z" fill="#E0836E"/>
<path d="M275.013 63.99C275.013 64.3921 274.681 64.7238 274.279 64.7238C273.877 64.7238 273.545 64.3921 273.545 63.99C273.545 63.5878 273.877 63.2561 274.279 63.2561C274.681 63.2561 275.013 63.5878 275.013 63.99Z" fill="#CC2742"/>
<path d="M274.279 64.5328C274.579 64.5328 274.822 64.2898 274.822 63.99C274.822 63.6902 274.579 63.4471 274.279 63.4471C273.979 63.4471 273.736 63.6902 273.736 63.99C273.736 64.2898 273.979 64.5328 274.279 64.5328Z" fill="#511D0C"/>
<path d="M274.279 63.7286C274.279 63.8593 274.168 63.9699 274.038 63.9699C273.907 63.9699 273.796 63.8593 273.796 63.7286C273.796 63.5979 273.907 63.4873 274.038 63.4873C274.168 63.4873 274.279 63.5979 274.279 63.7286Z" fill="#46A3CB"/>
</g>
<path d="M1639.76 81.5293H1633.7L1635.51 28.6357H1637.95L1639.76 81.5293Z" fill="#CEDED3"/>
<path d="M1636.77 28.6231C1635.49 28.6482 1634.41 27.6093 1634.4 26.3202C1634.4 26.3202 1635.06 0.323909 1636.34 0.298877C1637.62 0.273844 1639.06 26.2451 1639.06 26.2451C1639.08 27.5217 1638.04 28.5981 1636.75 28.6106L1636.77 28.6231Z" fill="#CEDED3"/>
<path d="M1635.56 25.8445C1636.1 24.6805 1637.49 24.1673 1638.66 24.7055C1638.66 24.7055 1661.78 36.5835 1661.24 37.7475C1660.7 38.9115 1636.69 28.936 1636.69 28.936C1635.53 28.3978 1635.01 27.0085 1635.55 25.8445H1635.56Z" fill="#CEDED3"/>
<path d="M1637.9 25.9697C1638.44 27.1337 1637.93 28.523 1636.77 29.0612C1636.77 29.0612 1612.75 39.0367 1612.21 37.8726C1611.68 36.7086 1634.8 24.8307 1634.8 24.8307C1635.97 24.2925 1637.35 24.8057 1637.89 25.9697H1637.9Z" fill="#CEDED3"/>
<path d="M1640.07 26.7207C1640.07 28.5605 1638.58 30.0625 1636.73 30.0625C1634.88 30.0625 1633.39 28.5731 1633.39 26.7207C1633.39 24.8683 1634.88 23.3788 1636.73 23.3788C1638.58 23.3788 1640.07 24.8683 1640.07 26.7207Z" fill="#BDCEBF"/>
<path d="M1460.38 109.091H1454.31L1456.12 56.2097H1458.56L1460.38 109.091Z" fill="#CEDED3"/>
<path d="M1459.68 53.5938C1459.94 54.8455 1459.14 56.0971 1457.88 56.3599C1457.88 56.3599 1432.25 60.7281 1431.99 59.464C1431.72 58.2123 1456.91 51.7915 1456.91 51.7915C1458.16 51.5287 1459.41 52.3297 1459.68 53.5938Z" fill="#CEDED3"/>
<path d="M1457.19 55.3085C1455.94 55.0081 1455.17 53.7315 1455.47 52.4924C1455.47 52.4924 1462.67 27.5099 1463.92 27.8103C1465.17 28.1107 1460 53.6063 1460 53.6063C1459.7 54.8579 1458.43 55.6214 1457.19 55.321V55.3085Z" fill="#CEDED3"/>
<path d="M1456.85 52.9805C1457.89 52.2295 1459.35 52.4548 1460.1 53.4936C1460.1 53.4936 1474.52 75.1342 1473.48 75.8852C1472.44 76.6362 1456.34 56.2347 1456.34 56.2347C1455.59 55.1958 1455.81 53.7314 1456.85 52.9805Z" fill="#CEDED3"/>
<path d="M1460.68 54.2822C1460.68 56.1221 1459.19 57.624 1457.34 57.624C1455.49 57.624 1454 56.1346 1454 54.2822C1454 52.4298 1455.49 50.9404 1457.34 50.9404C1459.19 50.9404 1460.68 52.4298 1460.68 54.2822Z" fill="#BDCEBF"/>
<path d="M1495.57 97.8345H1491.11L1492.44 58.8669H1494.23L1495.57 97.8345Z" fill="#CEDED3"/>
<path d="M1493.36 58.8577C1492.42 58.8762 1491.63 58.1108 1491.62 57.1611C1491.62 57.1611 1492.1 38.0092 1493.04 38C1493.99 37.9816 1495.05 57.115 1495.05 57.115C1495.06 58.0555 1494.3 58.8485 1493.35 58.8577H1493.36Z" fill="#CEDED3"/>
<path d="M1492.47 56.8199C1492.87 55.9623 1493.89 55.5843 1494.75 55.9808C1494.75 55.9808 1511.79 64.7314 1511.39 65.589C1510.99 66.4465 1493.3 59.0975 1493.3 59.0975C1492.45 58.701 1492.07 57.6774 1492.46 56.8199H1492.47Z" fill="#CEDED3"/>
<path d="M1494.21 56.9029C1494.6 57.7604 1494.22 58.7839 1493.37 59.1804C1493.37 59.1804 1475.68 66.5295 1475.28 65.672C1474.88 64.8144 1491.92 56.0638 1491.92 56.0638C1492.78 55.6673 1493.8 56.0453 1494.2 56.9029H1494.21Z" fill="#CEDED3"/>
<path d="M1495.79 57.4561C1495.79 58.8116 1494.69 59.9181 1493.33 59.9181C1491.97 59.9181 1490.87 58.8208 1490.87 57.4561C1490.87 56.0914 1491.97 54.9941 1493.33 54.9941C1494.69 54.9941 1495.79 56.0914 1495.79 57.4561Z" fill="#BDCEBF"/>
<path d="M1413.69 93.9635C1408.3 97.1541 1400.67 95.4241 1397.09 90.198C1395.74 88.2453 1394.94 85.7488 1395.55 83.444C1396.16 81.1391 1398.5 79.2641 1400.77 79.7821C1399.74 77.8553 1399.24 75.452 1400.15 73.4631C1401.06 71.4741 1403.75 70.3347 1405.48 71.6243C1405.13 69.7649 1405.95 67.7242 1407.49 66.6676C1409.02 65.611 1411.17 65.5954 1412.72 66.6313C1413.28 67.0094 1413.8 67.5274 1414.45 67.6879C1415.04 67.8278 1415.65 67.662 1416.25 67.6051C1419.43 67.3098 1422.34 70.8578 1421.51 74.0276C1423.46 72.4582 1426.59 74.0587 1427.43 76.4516C1428.27 78.8497 1427.47 81.512 1426.45 83.8272C1428.99 84.0241 1431.03 86.619 1430.98 89.245C1430.92 91.871 1429.03 94.2536 1426.64 95.1807C1424.25 96.1078 1421.49 95.6935 1419.25 94.4297C1418.5 94.0101 1417.69 93.4818 1416.87 93.6942C1416.36 93.8237 1415.96 94.2173 1415.51 94.497C1414.39 95.1962 1412.85 95.1185 1411.8 94.3157" fill="#B3C77D"/>
<path d="M1410.63 120.322C1412.2 120.317 1413.78 120.311 1415.35 120.306C1415.13 114.303 1414.92 108.305 1414.69 102.302C1414.63 100.479 1414.56 98.6144 1415.1 96.8741C1416.1 93.611 1418.97 91.3942 1421.67 89.4001C1420.12 90.2496 1418.56 91.0938 1417 91.9432C1416.44 92.254 1415.46 93.1811 1414.83 93.0517C1413.66 92.8082 1413.66 90.6743 1413.56 89.4519C1413.31 86.5358 1413.06 83.6198 1412.81 80.7089C1412.48 84.4744 1411.87 88.214 1410.99 91.8811C1410.9 92.2799 1410.73 92.7461 1410.35 92.8548C1410.01 92.9429 1409.68 92.7202 1409.41 92.5078C1407.08 90.695 1404.76 88.8822 1402.43 87.0693C1404.42 90.5189 1407.1 93.5541 1410.24 95.9366C1410.24 95.9366 1410.9 112.06 1410.63 120.332V120.322Z" fill="#BF8348"/>
<path d="M1800.39 42.3449C1794.92 41.6745 1791.2 37.4392 1790.59 33.2623C1789.99 29.0853 1791.78 24.9458 1793.55 20.9604C1795.3 17.0333 1796.66 15.6424 1798.14 13.4769C1799.27 11.8236 1801.68 12.0068 1802.61 13.7934C1804.31 17.0875 1806.2 19.1072 1807.63 24.1421C1808.51 27.2321 1809.4 30.4013 1808.85 33.5329C1808.17 37.3642 1805.24 40.9374 1801.01 43.0987" fill="#B7D16F"/>
<path d="M1798.81 42.361C1798.68 40.2329 1797.77 38.1674 1796.29 36.6723C1797.04 37.4802 1797.79 38.2923 1798.55 39.1002C1798.74 39.3042 1798.97 39.525 1799.24 39.4833C1799.62 39.425 1799.75 38.9336 1799.78 38.5422C1799.92 37.0263 1800.06 35.5146 1800.2 33.9987C1800.04 35.2439 1799.92 36.6307 1800.66 37.6301C1801.4 38.6296 1803.32 38.5838 1803.53 37.3511C1801.39 43.7394 1801.12 50.7732 1802.76 57.3156C1801.38 57.174 1799.99 57.0282 1798.61 56.8825C1799.8 51.3104 1799.75 45.4677 1798.47 39.9164" fill="#BF8348"/>
<path d="M1707.33 35.0281C1702.95 37.623 1696.73 36.216 1693.82 31.9656C1692.73 30.3774 1692.08 28.347 1692.57 26.4724C1693.07 24.5978 1694.97 23.0729 1696.82 23.4941C1695.98 21.9271 1695.58 19.9724 1696.32 18.3548C1697.05 16.7372 1699.24 15.8105 1700.65 16.8594C1700.36 15.3471 1701.03 13.6873 1702.28 12.828C1703.53 11.9686 1705.28 11.956 1706.53 12.7985C1706.99 13.106 1707.41 13.5273 1707.95 13.6578C1708.42 13.7716 1708.92 13.6368 1709.41 13.5904C1711.99 13.3503 1714.36 16.2359 1713.68 18.814C1715.27 17.5376 1717.82 18.8393 1718.5 20.7855C1719.18 22.7359 1718.54 24.9011 1717.7 26.7841C1719.77 26.9442 1721.43 29.0547 1721.38 31.1905C1721.34 33.3262 1719.81 35.264 1717.86 36.018C1715.92 36.7721 1713.67 36.4351 1711.85 35.4072C1711.24 35.066 1710.58 34.6363 1709.91 34.809C1709.5 34.9143 1709.18 35.2345 1708.81 35.462C1707.89 36.0307 1706.65 35.9675 1705.79 35.3145" fill="#CAE387"/>
<path d="M1704.84 56.4657C1706.12 56.4615 1707.4 56.4573 1708.68 56.4531C1708.5 51.5707 1708.32 46.6926 1708.14 41.8103C1708.09 40.3275 1708.04 38.8109 1708.47 37.3955C1709.28 34.7416 1711.62 32.9386 1713.82 31.3168C1712.55 32.0077 1711.29 32.6943 1710.02 33.3852C1709.56 33.6379 1708.77 34.392 1708.26 34.2867C1707.31 34.0887 1707.31 32.3531 1707.22 31.3589C1707.01 28.9873 1706.81 26.6156 1706.61 24.2482C1706.35 27.3107 1705.85 30.3521 1705.13 33.3346C1705.05 33.659 1704.92 34.0381 1704.61 34.1266C1704.34 34.1982 1704.07 34.0171 1703.85 33.8443C1701.95 32.37 1700.06 30.8956 1698.17 29.4212C1699.79 32.2267 1701.96 34.6953 1704.52 36.633C1704.52 36.633 1705.06 49.7467 1704.84 56.4741V56.4657Z" fill="#BF8348"/>
<path d="M1689.77 40.0273C1684.07 39.3289 1680.19 34.9168 1679.56 30.5654C1678.93 26.2141 1680.8 21.9017 1682.65 17.75C1684.46 13.6589 1685.88 12.2099 1687.42 9.95396C1688.6 8.23164 1691.12 8.42254 1692.08 10.2837C1693.85 13.7153 1695.82 15.8194 1697.31 21.0645C1698.23 24.2835 1699.16 27.585 1698.58 30.8474C1697.87 34.8387 1694.82 38.561 1690.41 40.8126" fill="#B3C77D"/>
<path d="M1688.13 40.0444C1687.99 37.8275 1687.04 35.6757 1685.49 34.1182C1686.28 34.9599 1687.06 35.8058 1687.85 36.6475C1688.04 36.8601 1688.29 37.09 1688.57 37.0466C1688.97 36.9859 1689.1 36.4739 1689.13 36.0661C1689.28 34.487 1689.42 32.9122 1689.57 31.333C1689.41 32.6302 1689.28 34.0748 1690.05 35.116C1690.82 36.1572 1692.82 36.1095 1693.04 34.8254C1690.81 41.4804 1690.53 48.8078 1692.24 55.6234C1690.8 55.4759 1689.35 55.324 1687.91 55.1722C1689.15 49.3675 1689.1 43.2808 1687.77 37.4978" fill="#BF8348"/>
<path d="M1787.43 29.1894C1787.76 26.0207 1787.2 22.8383 1786.08 19.8556C1785.07 17.1485 1783.7 14.4413 1781.41 12.6986C1777.28 9.55745 1771.44 10.391 1766.44 11.7617C1763.17 12.6641 1759.78 13.8283 1757.49 16.3494C1752.97 21.3297 1754.65 28.2663 1757.63 34.3074C1761.97 43.1246 1786.05 41.9191 1787.41 29.1963L1787.43 29.1894Z" fill="#CAE386"/>
<path d="M1769.35 41.43C1770.52 52.8234 1769.65 59.264 1770.01 68.15C1770.06 69.2797 1769.26 71.5116 1771.99 71.7251C1775.24 71.98 1775.13 69.8377 1774.48 67.3165C1772.6 60.1182 1773.13 52.2447 1773.21 44.8121C1773.24 42.6492 1773.31 40.4173 1774.18 38.4404C1776.01 34.3211 1781.19 31.1318 1780.06 26.7715C1777.88 29.024 1775.7 31.2765 1773.51 33.529C1773.15 33.9009 1772.74 34.3005 1772.21 34.3142C1771.69 34.328 1771.24 33.9492 1770.87 33.591C1768.45 31.304 1766.21 28.8311 1764.16 26.1997C1766.45 30.2088 1769.15 39.6459 1769.34 41.43H1769.35Z" fill="#BF8348"/>
<path d="M1705.34 48.0867C1711.01 40.3827 1721.48 36.5612 1730.73 38.9054C1732.09 39.2462 1733.53 39.713 1734.91 39.586C1736.36 39.4531 1737.63 38.8045 1738.99 38.4138C1743.19 37.1634 1747.83 38.5334 1751.45 41.0615C1755.07 43.5896 1757.05 47.864 1759.64 51.4183L1611.01 65.0591C1611.35 60.7711 1612.87 56.3083 1615.55 52.9362C1618.23 49.63 1622.62 47.498 1626.81 48.3765C1628.98 48.8427 1630.89 50.0647 1632.73 51.2928C1634.02 48.7132 1636.79 47.0621 1639.62 46.8022C1642.45 46.5423 1645.32 47.4098 1647.83 48.7094C1649.2 45.5241 1652.38 42.6373 1655.42 41.0279C1658.53 39.4126 1661.98 38.6965 1665.49 38.574C1670.58 38.3066 1675.77 39.1604 1680.35 41.334C1684.94 43.5076 1688.98 47.0609 1691.45 51.5568C1691.79 50.1953 1692.96 49.2229 1694.17 48.5804C1695.37 47.9379 1696.73 47.6131 1698.11 47.4202C1700.27 47.0888 1702.65 47.0032 1704.55 48.0933" fill="#B3CC79"/>
<path d="M1643.07 62.3104L1572.25 73.884C1571.82 70.3236 1572.36 66.3855 1574.06 63.2545C1574.68 62.1646 1575.55 60.996 1576.8 60.8705C1578.18 60.7387 1579.29 61.8135 1580.26 62.7622C1580.96 63.5249 1581.66 64.2215 1582.36 64.9842C1582.56 62.3881 1583.38 60.0286 1584.8 57.9056C1585.73 56.6016 1586.93 55.3513 1588.51 55.0778C1590.28 54.7287 1591.98 55.7092 1593.48 56.6991C1596.15 58.5622 1598.57 60.7685 1600.68 63.2552C1600.4 61.6766 1601.06 60.0543 1602.34 59.1316C1603.62 58.209 1605.33 57.9954 1606.87 58.3205C1606.42 57.3468 1607.29 56.1782 1608.34 55.9297C1609.39 55.6812 1610.47 56.2267 1611.3 56.9832C1612.63 55.5281 1613.32 53.5056 1614.58 51.9875C1616.95 49.0898 1621.19 47.5634 1624.63 49.0581C1628.15 50.5497 1629.86 54.5139 1631.22 58.0967C1632.2 56.4587 1634.2 55.4355 1636.12 55.411C1638.04 55.3866 1639.94 56.4239 1641.01 58.0311C1641.86 59.1845 1642.8 60.9304 1643.07 62.3104Z" fill="#5D9667"/>
<path d="M1394.04 118.115L1340.06 133.306C1339.43 130.586 1339.49 127.439 1340.54 124.857C1340.92 123.928 1341.54 122.969 1342.49 122.755C1343.54 122.528 1344.51 123.243 1345.38 123.922C1345.98 124.437 1346.58 124.953 1347.23 125.462C1347.18 123.456 1347.58 121.543 1348.54 119.758C1349.14 118.654 1349.99 117.617 1351.17 117.228C1352.49 116.821 1353.93 117.381 1355.14 118.067C1357.39 119.263 1359.44 120.779 1361.27 122.565C1360.89 121.387 1361.31 120.059 1362.24 119.21C1363.16 118.361 1364.45 118.056 1365.69 118.199C1365.25 117.467 1365.82 116.514 1366.62 116.22C1367.42 115.975 1368.34 116.255 1368.99 116.764C1369.91 115.523 1370.26 113.911 1371.12 112.579C1372.73 110.125 1375.87 108.563 1378.67 109.447C1381.52 110.324 1383.2 113.21 1384.55 115.89C1385.17 114.539 1386.67 113.57 1388.12 113.393C1389.61 113.21 1391.16 113.855 1392.13 114.963C1392.83 115.859 1393.71 117.075 1394.04 118.115Z" fill="#74A667"/>
<path d="M1922.51 57.1411L1827.43 53.3948C1827.81 48.6371 1829.6 43.6693 1832.65 40.0112C1833.76 38.7291 1835.2 37.46 1836.85 37.6575C1838.63 37.794 1839.89 39.5007 1840.89 41.0647C1841.63 42.2211 1842.32 43.3088 1843.07 44.4652C1843.99 41.1871 1845.69 38.2711 1848.17 35.9159C1849.68 34.4509 1851.59 33.2 1853.7 33.2172C1856.08 33.2447 1858.07 34.9139 1859.72 36.6363C1862.71 39.7371 1865.28 43.2855 1867.32 47.0779C1867.34 44.9573 1868.67 43.0874 1870.62 42.1701C1872.51 41.3163 1874.82 41.4737 1876.7 42.3434C1876.43 40.9404 1877.8 39.6688 1879.26 39.6599C1880.71 39.651 1882 40.6296 1882.81 41.7887C1884.92 40.2809 1886.41 37.8204 1888.4 36.1751C1892.29 33.0803 1898.15 32.1842 1902.2 35.0619C1906.39 37.9448 1907.49 43.5566 1908.36 48.5623C1910.08 46.708 1912.96 45.8933 1915.46 46.3894C1917.95 46.8854 1920.13 48.6948 1921.1 51.053C1921.82 52.8051 1922.52 55.2853 1922.51 57.1411Z" fill="#74A667"/>
<path d="M1058 225.031C1058 225.031 1124.44 198.742 1143.23 193.217C1494.24 90.8213 1635.24 5.53123 2146.24 78.5338V224.936H1058V225.031Z" fill="#74A667"/>
<path d="M1461.93 101.871H1460.74V120.358H1461.93V101.871Z" fill="#AC7B40"/>
<path d="M1458.25 115.29H1457.05V123.767H1458.25V115.29Z" fill="#AC7B40"/>
<path d="M1457.93 119.157L1457.18 118.207L1461.2 114.958L1461.94 115.897L1457.93 119.157Z" fill="#AC7B40"/>
<path d="M1493.65 119.157L1494.4 118.207L1490.39 114.958L1489.64 115.897L1493.65 119.157Z" fill="#AC7B40"/>
<path d="M1489.49 120.358H1490.69V101.871H1489.49V120.358Z" fill="#AC7B40"/>
<path d="M1493.18 123.756H1494.37V115.279H1493.18V123.756Z" fill="#AC7B40"/>
<path d="M1496.17 115.119H1455.3V116.469H1496.17V115.119Z" fill="#E59C45"/>
<g style="mix-blend-mode:multiply" opacity="0.3">
<path d="M1496.17 115.119H1455.3V116.469H1496.17V115.119Z" fill="#E59C45"/>
</g>
<path d="M1496.15 115.119H1455.3L1457.75 112.979H1493.87L1496.15 115.119Z" fill="#E59C45"/>
<path d="M1493.88 107.145H1457.75V110.52H1493.88V107.145Z" fill="#E59C45"/>
<path d="M1493.88 103.004H1457.75V106.378H1493.88V103.004Z" fill="#E59C45"/>
<path d="M1794.65 72.7844H1793.49V90.7943H1794.65V72.7844Z" fill="#AC7B40"/>
<path d="M1791.07 85.8496H1789.91V94.1041H1791.07V85.8496Z" fill="#AC7B40"/>
<path d="M1790.76 89.6151L1790.03 88.7039L1793.94 85.528L1794.66 86.4392L1790.76 89.6151Z" fill="#AC7B40"/>
<path d="M1825.55 89.6151L1826.28 88.7039L1822.37 85.528L1821.65 86.4392L1825.55 89.6151Z" fill="#AC7B40"/>
<path d="M1821.5 90.7943H1822.66V72.7844H1821.5V90.7943Z" fill="#AC7B40"/>
<path d="M1825.08 94.1042H1826.24V85.8496H1825.08V94.1042Z" fill="#AC7B40"/>
<path d="M1827.99 85.6888H1788.19V87.002H1827.99V85.6888Z" fill="#E59C45"/>
<g style="mix-blend-mode:multiply" opacity="0.3">
<path d="M1827.99 85.6888H1788.19V87.002H1827.99V85.6888Z" fill="#E59C45"/>
</g>
<path d="M1827.99 85.6888H1788.19L1790.57 83.6118H1825.76L1827.99 85.6888Z" fill="#E59C45"/>
<path d="M1825.76 77.9301H1790.57V81.2131H1825.76V77.9301Z" fill="#E59C45"/>
<path d="M1825.76 73.8832H1790.57V77.1663H1825.76V73.8832Z" fill="#E59C45"/>
<path d="M1755.82 69.0367C1750.63 69.0367 1746.4 64.7802 1746.4 59.5539C1746.4 54.3277 1750.63 50.0711 1755.82 50.0711C1761.02 50.0711 1765.25 54.3277 1765.25 59.5539C1765.25 64.7802 1761.02 69.0367 1755.82 69.0367ZM1755.82 50.745C1751.01 50.745 1747.09 54.6893 1747.09 59.5375C1747.09 64.3857 1751.01 68.3301 1755.82 68.3301C1760.64 68.3301 1764.56 64.3857 1764.56 59.5375C1764.56 54.6893 1760.64 50.745 1755.82 50.745Z" stroke="#4D4D4D" stroke-width="0.5" stroke-miterlimit="10"/>
<path d="M1755.82 68.3465C1751.01 68.3465 1747.09 64.4022 1747.09 59.5539C1747.09 54.7057 1751.01 50.7614 1755.82 50.7614C1760.64 50.7614 1764.56 54.7057 1764.56 59.5539C1764.56 64.4022 1760.64 68.3465 1755.82 68.3465ZM1755.82 51.1558C1751.22 51.1558 1747.48 54.9194 1747.48 59.5539C1747.48 64.1885 1751.22 67.952 1755.82 67.952C1760.43 67.952 1764.17 64.1885 1764.17 59.5539C1764.17 54.9194 1760.43 51.1558 1755.82 51.1558Z" fill="#666666"/>
<path d="M1755.42 51.0805L1755.01 51.1098L1755.61 59.651L1756.02 59.6217L1755.42 51.0805Z" fill="#666666"/>
<path d="M1755.87 59.8004L1755.77 59.4224L1764.02 57.138L1764.14 57.5325L1755.87 59.8004Z" fill="#666666"/>
<path d="M1747.85 56.4858L1747.71 56.8562L1755.76 59.8228L1755.9 59.4524L1747.85 56.4858Z" fill="#666666"/>
<path d="M1749.68 65.5362L1749.42 65.2403L1755.69 59.4553L1755.97 59.7676L1749.68 65.5362Z" fill="#666666"/>
<path d="M1756.01 59.5356L1755.64 59.7182L1759.42 67.389L1759.79 67.2064L1756.01 59.5356Z" fill="#666666"/>
<path d="M1756.87 59.6854C1756.87 60.2606 1756.4 60.7372 1755.82 60.7372C1755.25 60.7372 1754.78 60.2606 1754.78 59.6854C1754.78 59.1102 1755.25 58.6336 1755.82 58.6336C1756.4 58.6336 1756.87 59.1102 1756.87 59.6854Z" fill="#6A9844"/>
<path d="M1784.51 69.0367C1779.32 69.0367 1775.09 64.7802 1775.09 59.5539C1775.09 54.3277 1779.32 50.0711 1784.51 50.0711C1789.71 50.0711 1793.93 54.3277 1793.93 59.5539C1793.93 64.7802 1789.71 69.0367 1784.51 69.0367ZM1784.51 50.745C1779.7 50.745 1775.78 54.6893 1775.78 59.5375C1775.78 64.3857 1779.7 68.3301 1784.51 68.3301C1789.33 68.3301 1793.25 64.3857 1793.25 59.5375C1793.25 54.6893 1789.33 50.745 1784.51 50.745Z" stroke="#4D4D4D" stroke-width="0.5" stroke-miterlimit="10"/>
<path d="M1784.51 68.3465C1779.7 68.3465 1775.78 64.4022 1775.78 59.5539C1775.78 54.7057 1779.7 50.7614 1784.51 50.7614C1789.33 50.7614 1793.25 54.7057 1793.25 59.5539C1793.25 64.4022 1789.33 68.3465 1784.51 68.3465ZM1784.51 51.1558C1779.91 51.1558 1776.17 54.9194 1776.17 59.5539C1776.17 64.1885 1779.91 67.952 1784.51 67.952C1789.12 67.952 1792.86 64.1885 1792.86 59.5539C1792.86 54.9194 1789.12 51.1558 1784.51 51.1558Z" fill="#666666"/>
<path d="M1784.13 51.0728L1783.72 51.1021L1784.32 59.6433L1784.73 59.614L1784.13 51.0728Z" fill="#666666"/>
<path d="M1792.71 57.1316L1784.46 59.4185L1784.57 59.7988L1792.82 57.5119L1792.71 57.1316Z" fill="#666666"/>
<path d="M1776.54 56.4723L1776.41 56.8427L1784.46 59.8093L1784.59 59.4389L1776.54 56.4723Z" fill="#666666"/>
<path d="M1778.37 65.5362L1778.11 65.2403L1784.4 59.4553L1784.66 59.7676L1778.37 65.5362Z" fill="#666666"/>
<path d="M1784.71 59.5172L1784.35 59.6998L1788.13 67.3706L1788.49 67.188L1784.71 59.5172Z" fill="#666666"/>
<path d="M1764.64 50.5642C1764.49 50.5642 1764.36 50.4491 1764.36 50.2848C1764.36 50.1204 1764.48 49.9889 1764.64 49.9889L1778.62 45.7488C1778.77 45.7159 1778.93 45.7981 1778.96 45.946C1778.99 46.0939 1778.91 46.2583 1778.77 46.2911L1764.66 50.5477L1764.64 50.5642Z" fill="#F9F569"/>
<path d="M1767.55 62.2328L1763.27 48.855L1764.36 48.5098L1768 59.8991L1776.63 49.5452C1776.89 49.233 1777.23 48.97 1777.61 48.8057L1779.92 47.7703L1780.38 48.8221L1778.06 49.8575C1777.85 49.9561 1777.65 50.104 1777.51 50.2848L1767.56 62.2328H1767.55Z" fill="#F9F569"/>
<path d="M1779.2 45.0953L1778.12 45.4487L1779.96 51.2042L1781.05 50.8508L1779.2 45.0953Z" fill="#F9F569"/>
<path d="M1778.32 45.3708L1777.83 43.8424C1777.64 43.2507 1777.79 42.5933 1778.19 42.1332L1779.74 40.6541L1780.22 41.1471L1778.68 42.6098C1778.45 42.8727 1778.37 43.2672 1778.49 43.6287L1778.98 45.1572L1778.32 45.3708Z" fill="#666666"/>
<path d="M1763.97 47.2893L1762.88 47.6429L1763.27 48.8471L1764.35 48.4935L1763.97 47.2893Z" fill="#666666"/>
<path d="M1781 50.6956L1784.64 59.4389C1784.73 59.6361 1784.45 59.7676 1784.33 59.5868L1779.96 51.123L1781 50.6956Z" fill="#F9F569"/>
<path d="M1768.1 61.674L1755.37 60.4414C1755.15 60.4249 1755.17 60.1127 1755.37 60.0963L1768.27 60.6057L1768.09 61.674H1768.1Z" fill="#F9F569"/>
<path d="M1765.2 52.1685L1755.07 59.9905L1755.42 60.4469L1765.55 52.6249L1765.2 52.1685Z" fill="#F9F569"/>
<path d="M1767.86 61.6247L1771.09 64.2049L1772.3 64.2542L1768.36 60.9837C1768.17 60.8194 1767.86 60.8687 1767.74 61.0988C1767.65 61.2796 1767.68 61.5096 1767.84 61.6247H1767.86Z" fill="#4D4D4D"/>
<path d="M1771.09 64.1721L1771.21 64.7308C1771.24 64.8952 1771.38 65.0102 1771.56 64.9938L1773.83 64.7308C1773.96 64.7308 1774.06 64.5829 1774.03 64.4514L1773.93 64.0734C1773.9 63.9584 1773.8 63.8927 1773.69 63.8927L1771.11 64.1885L1771.09 64.1721Z" fill="#4D4D4D"/>
<path d="M1763.28 46.1398L1762.73 46.3235L1763.28 47.9761L1763.83 47.7923L1763.28 46.1398Z" fill="#666666"/>
<path d="M1759.5 44.8778C1759.25 44.7299 1759.4 44.3354 1759.68 44.4012C1760.59 44.582 1761.78 44.7134 1763.02 44.6313C1765.52 44.4505 1766.32 43.5959 1767.48 44.8449C1767.56 44.9435 1767.53 45.0914 1767.42 45.1407L1764.15 46.2747C1763.17 46.6199 1762.09 46.4884 1761.2 45.946L1759.48 44.8942L1759.5 44.8778Z" fill="#4D4D4D"/>
<path d="M1780.37 40.539C1780.43 40.7362 1780.4 40.9663 1780.25 41.0978L1780.2 41.1471C1780.2 41.1471 1779.88 41.3608 1779.78 41.3114C1779.7 41.2621 1779.65 41.1635 1779.63 41.0649C1779.58 40.8348 1779.58 40.539 1779.68 40.3254C1779.78 40.1282 1780.23 40.1446 1780.37 40.5226V40.539Z" fill="#666666"/>
<path d="M1779.91 40.5061C1779.86 40.8513 1779.58 41.0978 1779.29 41.0649C1778.99 41.0321 1778.78 40.7198 1778.83 40.3747C1778.88 40.0295 1779.16 39.783 1779.45 39.8159C1779.75 39.8488 1779.96 40.161 1779.91 40.5061Z" fill="#4D4D4D"/>
<path d="M1777.17 40.4897V40.3746C1777.17 40.2103 1777.3 40.0788 1777.44 40.0953H1779.26C1779.39 40.0953 1779.5 40.2103 1779.5 40.3418V40.5554C1779.5 40.6869 1779.4 40.802 1779.27 40.802H1777.44C1777.3 40.802 1777.17 40.6705 1777.17 40.5061V40.4897Z" fill="#4D4D4D"/>
<path d="M1784.92 59.5868C1784.92 59.8005 1784.74 59.9812 1784.53 59.9812C1784.32 59.9812 1784.14 59.8005 1784.14 59.5868C1784.14 59.3732 1784.32 59.1924 1784.53 59.1924C1784.74 59.1924 1784.92 59.3732 1784.92 59.5868Z" fill="#F9F569"/>
<path d="M1757.6 59.6525L1757.36 59.8498L1757.54 60.1127L1757.26 60.2278L1757.38 60.5236L1757.06 60.5729L1757.1 60.8851L1756.79 60.8523L1756.74 61.1645L1756.44 61.0659L1756.31 61.3453L1756.07 61.1645L1755.87 61.4111L1755.66 61.1645L1755.42 61.3453L1755.29 61.0659L1754.99 61.1645L1754.94 60.8523L1754.63 60.8851L1754.66 60.5729L1754.35 60.5236L1754.47 60.2278L1754.19 60.1127L1754.37 59.8498L1754.13 59.6525L1754.37 59.4553L1754.19 59.1924L1754.47 59.0773L1754.35 58.7815L1754.66 58.7322L1754.63 58.4199L1754.94 58.4528L1754.99 58.1406L1755.29 58.2556L1755.42 57.9598L1755.66 58.1406L1755.87 57.9105L1756.07 58.1406L1756.31 57.9598L1756.44 58.2556L1756.74 58.1406L1756.79 58.4528L1757.1 58.4199L1757.06 58.7322L1757.38 58.7815L1757.26 59.0773L1757.54 59.1924L1757.36 59.4553L1757.6 59.6525Z" fill="#666666"/>
<path d="M1768.15 59.028C1769.36 59.028 1770.34 60.0141 1770.34 61.2303C1770.34 62.4464 1769.36 63.4325 1768.15 63.4325C1766.94 63.4325 1765.96 62.4464 1765.96 61.2303C1765.96 60.0141 1766.94 59.028 1768.15 59.028ZM1768.15 58.6336C1766.72 58.6336 1765.57 59.8004 1765.57 61.2303C1765.57 62.6601 1766.73 63.8269 1768.15 63.8269C1769.57 63.8269 1770.73 62.6601 1770.73 61.2303C1770.73 59.8004 1769.57 58.6336 1768.15 58.6336Z" fill="#666666"/>
<path d="M1769.46 61.2302C1769.46 61.9534 1768.87 62.545 1768.15 62.545C1767.43 62.545 1766.85 61.9534 1766.85 61.2302C1766.85 60.5071 1767.43 59.9155 1768.15 59.9155C1768.87 59.9155 1769.46 60.5071 1769.46 61.2302Z" fill="#4D4D4D"/>
<path d="M1607.79 95.7271C1607.84 95.9492 1607.64 96.1745 1607.36 96.2308L1605.49 96.5999C1605.21 96.6562 1604.95 96.5217 1604.9 96.2996C1604.86 96.0775 1605.05 95.8522 1605.33 95.7959L1607.2 95.4268C1607.48 95.3704 1607.75 95.5081 1607.79 95.7271Z" fill="#EEC7BB"/>
<path d="M1608.01 96.8627C1608.06 97.0848 1607.86 97.3101 1607.58 97.3664L1605.71 97.7356C1605.43 97.7919 1605.17 97.6573 1605.12 97.4352C1605.08 97.2131 1605.27 96.9878 1605.56 96.9315L1607.42 96.5624C1607.7 96.5061 1607.97 96.6406 1608.01 96.8627Z" fill="#EEC7BB"/>
<path d="M1608.24 97.9983C1608.28 98.2205 1608.09 98.4457 1607.81 98.502L1605.94 98.8712C1605.66 98.9275 1605.39 98.7899 1605.35 98.5677C1605.31 98.3456 1605.5 98.1204 1605.78 98.064L1607.65 97.6949C1607.93 97.6386 1608.2 97.7731 1608.24 97.9952V97.9983Z" fill="#EEC7BB"/>
<path d="M1641.62 68.0714C1642.34 52.1131 1628.17 51.2121 1628.17 51.2121C1628.17 51.2121 1628.05 51.6156 1627.84 52.3383C1627.63 51.6156 1627.5 51.2121 1627.5 51.2121C1627.5 51.2121 1613.34 52.1099 1614.06 68.0714C1614.78 84.0297 1604.3 89.2636 1623.22 93.8312C1625.06 94.2755 1626.59 94.2223 1627.84 93.7749C1629.09 94.2223 1630.61 94.2755 1632.46 93.8312C1651.38 89.2668 1640.9 84.0329 1641.62 68.0714H1641.62Z" fill="#EAE967" stroke="#EAE967" stroke-width="1.13" stroke-miterlimit="10"/>
<path d="M1616.17 68.3686C1616.17 69.3822 1615.35 70.205 1614.33 70.205C1613.32 70.205 1612.5 69.3822 1612.5 68.3686C1612.5 67.355 1613.32 66.5322 1614.33 66.5322C1615.35 66.5322 1616.17 67.355 1616.17 68.3686Z" fill="#EEC7BB"/>
<path d="M1643.48 68.3686C1643.48 69.3822 1642.66 70.205 1641.64 70.205C1640.63 70.205 1639.81 69.3822 1639.81 68.3686C1639.81 67.355 1640.63 66.5322 1641.64 66.5322C1642.66 66.5322 1643.48 67.355 1643.48 68.3686Z" fill="#EEC7BB"/>
<path d="M1624.35 110.863C1623.59 110.863 1622.98 110.249 1622.98 109.495V118.459C1622.98 119.216 1623.6 119.826 1624.35 119.826C1625.11 119.826 1625.72 119.213 1625.72 118.459V109.495C1625.72 110.249 1625.11 110.863 1624.35 110.863Z" fill="#EEC7BB"/>
<path d="M1631.42 110.863C1630.66 110.863 1630.05 110.249 1630.05 109.495V118.459C1630.05 119.216 1630.66 119.826 1631.42 119.826C1632.17 119.826 1632.79 119.213 1632.79 118.459V109.495C1632.79 110.249 1632.17 110.863 1631.42 110.863Z" fill="#EEC7BB"/>
<path d="M1624.35 95.2453C1623.59 95.2453 1622.98 95.8585 1622.98 96.6124V109.111C1622.98 108.357 1623.6 107.744 1624.35 107.744C1625.11 107.744 1625.72 108.357 1625.72 109.111V96.6124C1625.72 95.8585 1625.11 95.2453 1624.35 95.2453Z" fill="#EEC7BB"/>
<path d="M1624.35 107.744C1623.59 107.744 1622.98 108.357 1622.98 109.111V109.492C1622.98 110.246 1623.6 110.859 1624.35 110.859C1625.11 110.859 1625.72 110.246 1625.72 109.492V109.111C1625.72 108.357 1625.11 107.744 1624.35 107.744Z" fill="#EEC7BB"/>
<path d="M1624.35 107.744C1623.59 107.744 1622.98 108.357 1622.98 109.111V109.492C1622.98 110.246 1623.6 110.859 1624.35 110.859C1625.11 110.859 1625.72 110.246 1625.72 109.492V109.111C1625.72 108.357 1625.11 107.744 1624.35 107.744Z" fill="#DFB1A5"/>
<path d="M1631.42 95.2453C1630.66 95.2453 1630.05 95.8585 1630.05 96.6124V109.111C1630.05 108.357 1630.66 107.744 1631.42 107.744C1632.17 107.744 1632.79 108.357 1632.79 109.111V96.6124C1632.79 95.8585 1632.17 95.2453 1631.42 95.2453Z" fill="#EEC7BB"/>
<path d="M1631.42 107.744C1630.66 107.744 1630.05 108.357 1630.05 109.111V109.492C1630.05 110.246 1630.66 110.859 1631.42 110.859C1632.17 110.859 1632.79 110.246 1632.79 109.492V109.111C1632.79 108.357 1632.17 107.744 1631.42 107.744Z" fill="#EEC7BB"/>
<path d="M1631.42 107.744C1630.66 107.744 1630.05 108.357 1630.05 109.111V109.492C1630.05 110.246 1630.66 110.859 1631.42 110.859C1632.17 110.859 1632.79 110.246 1632.79 109.492V109.111C1632.79 108.357 1632.17 107.744 1631.42 107.744Z" fill="#DFB1A5"/>
<path d="M1627.25 102.807C1627.25 103.917 1626.55 104.822 1625.67 104.822H1622.87C1622 104.822 1621.3 103.921 1621.3 102.807V94.9262C1621.3 93.8156 1622 92.9114 1622.87 92.9114H1625.67C1626.54 92.9114 1627.25 93.8124 1627.25 94.9262V102.807Z" fill="#C49BC7"/>
<path d="M1634.39 102.807C1634.39 103.917 1633.69 104.822 1632.82 104.822H1630.02C1629.15 104.822 1628.44 103.921 1628.44 102.807V94.9262C1628.44 93.8156 1629.14 92.9114 1630.02 92.9114H1632.82C1633.69 92.9114 1634.39 93.8124 1634.39 94.9262V102.807Z" fill="#C49BC7"/>
<path d="M1623.99 80.2349H1631.7C1634.04 80.2349 1635.94 82.1339 1635.94 84.4771V92.1825C1635.94 94.5226 1634.04 96.4216 1631.7 96.4216H1624C1621.66 96.4216 1619.76 94.5226 1619.76 92.1825V84.4771C1619.76 82.137 1621.66 80.2349 1624 80.2349H1623.99Z" fill="#EB633E" stroke="#EB633E" stroke-width="2.26" stroke-miterlimit="10"/>
<path d="M1627.25 120.398C1627.25 121.468 1626.38 122.338 1625.31 122.338H1623.24C1622.17 122.338 1621.3 121.471 1621.3 120.398C1621.3 119.328 1622.17 118.462 1623.24 118.462H1625.31C1626.38 118.462 1627.25 119.328 1627.25 120.398Z" fill="#3A53A3" stroke="#3A53A3" stroke-width="1.13" stroke-miterlimit="10"/>
<path d="M1634.39 120.398C1634.39 121.468 1633.53 122.338 1632.46 122.338H1630.38C1629.31 122.338 1628.45 121.471 1628.45 120.398C1628.45 119.328 1629.31 118.462 1630.38 118.462H1632.46C1633.53 118.462 1634.39 119.328 1634.39 120.398Z" fill="#3A53A3" stroke="#3A53A3" stroke-width="1.13" stroke-miterlimit="10"/>
<path d="M1616.65 93.1336C1616.32 93.8124 1615.51 94.0971 1614.82 93.7686C1614.15 93.4402 1613.86 92.6205 1614.19 91.9416L1618.26 83.526C1618.59 82.8472 1619.41 82.5625 1620.08 82.891C1620.76 83.2194 1621.05 84.036 1620.72 84.718L1616.65 93.1336H1616.65Z" fill="#EEC7BB"/>
<path d="M1612.36 96.9566C1612.01 97.2632 1611.32 97.0536 1610.82 96.4873C1610.32 95.921 1610.2 95.2109 1610.55 94.9043L1614.88 91.0969C1615.23 90.7903 1615.92 91 1616.42 91.5662C1616.92 92.1325 1617.04 92.8426 1616.69 93.1492L1612.36 96.9566Z" fill="#EEC7BB"/>
<path d="M1611.18 97.0066C1611.29 97.6042 1610.91 98.1829 1610.31 98.2987L1608.8 98.5959C1608.21 98.7148 1607.63 98.3237 1607.51 97.7293L1607.21 96.2214C1607.09 95.6238 1607.49 95.0451 1608.08 94.9293L1609.59 94.6321C1610.19 94.5132 1610.76 94.9012 1610.88 95.4987L1611.18 97.0066Z" fill="#EEC7BB"/>
<path d="M1610.17 94.8198C1610.1 95.0357 1609.82 95.1452 1609.55 95.0607L1607.73 94.5038C1607.45 94.4194 1607.28 94.1754 1607.35 93.9595C1607.41 93.7436 1607.69 93.6341 1607.97 93.7186L1609.79 94.2755C1610.06 94.3599 1610.23 94.604 1610.17 94.8198Z" fill="#EEC7BB"/>
<path d="M1627.78 81.577C1627.78 83.1318 1626.52 84.3926 1624.96 84.3926C1623.41 84.3926 1622.14 83.1318 1622.14 81.577C1622.14 80.0221 1623.4 78.7582 1624.96 78.7582C1626.52 78.7582 1627.78 80.019 1627.78 81.577Z" fill="#70C8C1"/>
<path d="M1632.92 81.577C1632.92 83.1318 1631.66 84.3926 1630.1 84.3926C1628.54 84.3926 1627.28 83.1318 1627.28 81.577C1627.28 80.0221 1628.54 78.7582 1630.1 78.7582C1631.65 78.7582 1632.92 80.019 1632.92 81.577Z" fill="#70C8C1"/>
<path d="M1631.04 79.1305C1631.04 80.3256 1630.07 81.2954 1628.87 81.2954H1626.82C1625.63 81.2954 1624.66 80.3256 1624.66 79.1305C1624.66 77.9355 1625.63 76.9656 1626.82 76.9656H1628.87C1630.07 76.9656 1631.04 77.9355 1631.04 79.1305Z" fill="#E4BAB0"/>
<path d="M1627.85 54.278C1627.85 61.8958 1621.67 68.0714 1614.05 68.0714C1614.05 75.6892 1620.23 78.7864 1627.85 78.7864C1635.46 78.7864 1641.64 75.6892 1641.64 68.0714C1634.02 68.0714 1627.85 61.8958 1627.85 54.278Z" fill="#EEC7BB"/>
<path d="M1628.19 51.2121C1628.08 51.2089 1627.96 51.1996 1627.85 51.1996C1627.73 51.1996 1627.61 51.2089 1627.5 51.2121C1620.04 51.4874 1614.05 60.5693 1614.05 68.0714C1621.67 68.0714 1627.84 61.8958 1627.84 54.278C1627.84 61.8958 1634.02 68.0714 1641.64 68.0714C1641.64 60.5693 1635.64 51.4874 1628.19 51.2121H1628.19Z" fill="#EAE967" stroke="#EAE967" stroke-width="1.13" stroke-miterlimit="10"/>
<path opacity="0.4" d="M1629.22 70.205C1629.22 71.2937 1628.34 72.1728 1627.25 72.1728C1626.17 72.1728 1625.29 71.2906 1625.29 70.205C1625.29 69.1163 1626.17 68.2372 1627.25 68.2372C1628.34 68.2372 1629.22 69.1194 1629.22 70.205Z" fill="#D68470"/>
<path d="M1623.76 71.4689C1623.76 72.7297 1624.78 73.7496 1626.04 73.7496" stroke="#D68470" stroke-width="1.13" stroke-miterlimit="10"/>
<path d="M1622.98 68.913C1622.98 69.3791 1622.61 69.7545 1622.14 69.7545C1621.68 69.7545 1621.3 69.3791 1621.3 68.913C1621.3 68.4468 1621.68 68.0714 1622.14 68.0714C1622.61 68.0714 1622.98 68.4468 1622.98 68.913Z" fill="#231F20" stroke="#231F20" stroke-width="1.13" stroke-miterlimit="10"/>
<path d="M1632.26 68.913C1632.26 69.3791 1631.88 69.7545 1631.42 69.7545C1630.95 69.7545 1630.57 69.3791 1630.57 68.913C1630.57 68.4468 1630.95 68.0714 1631.42 68.0714C1631.88 68.0714 1632.26 68.4468 1632.26 68.913Z" fill="#231F20" stroke="#231F20" stroke-width="1.13" stroke-miterlimit="10"/>
<path d="M1622.57 84.0297C1622.57 85.5408 1621.35 86.7672 1619.84 86.7672C1618.33 86.7672 1617.1 85.5408 1617.1 84.0297C1617.1 82.5187 1618.33 81.2923 1619.84 81.2923C1621.35 81.2923 1622.57 82.5187 1622.57 84.0297Z" fill="#EB633E" stroke="#EB633E" stroke-width="2.26" stroke-miterlimit="10"/>
<path d="M1625.68 97.7543C1625.68 103.032 1621.4 107.309 1616.12 107.309C1610.85 107.309 1606.57 103.032 1606.57 97.7543C1606.57 92.4766 1610.85 88.2 1616.12 88.2C1621.4 88.2 1625.68 92.4766 1625.68 97.7543Z" fill="#70C8C1" stroke="#8BCB9A" stroke-width="1.13" stroke-miterlimit="10"/>
<path d="M1625.21 100.72C1625.51 99.7878 1625.68 98.7899 1625.68 97.7543C1625.68 97.1099 1625.61 96.4811 1625.49 95.871C1623.15 97.7105 1619.62 98.8806 1615.68 98.8806C1612.16 98.8806 1608.97 97.9483 1606.66 96.4404C1606.6 96.869 1606.57 97.307 1606.57 97.7543C1606.57 99.0902 1606.84 100.363 1607.34 101.518C1609.73 102.497 1612.49 103.054 1615.42 103.054C1619.06 103.054 1622.44 102.187 1625.2 100.72H1625.21Z" fill="#70C8C1" stroke="#8BD2D3" stroke-width="1.13" stroke-miterlimit="10"/>
<path d="M1625.49 95.8741C1625.12 94.0471 1624.24 92.4109 1622.99 91.122C1622.51 93.3119 1619.37 95.0013 1615.56 95.0013C1612.29 95.0013 1609.51 93.753 1608.49 92.0136C1607.54 93.2806 1606.89 94.7948 1606.66 96.4404C1608.97 97.9483 1612.16 98.8806 1615.68 98.8806C1619.63 98.8806 1623.15 97.7105 1625.49 95.871L1625.49 95.8741Z" fill="#839ED1" stroke="#839ED1" stroke-width="1.13" stroke-miterlimit="10"/>
<path d="M1615.56 95.0013C1619.37 95.0013 1622.51 93.3088 1622.99 91.122C1621.26 89.3231 1618.82 88.2031 1616.12 88.2031C1613 88.2031 1610.23 89.6985 1608.49 92.0136C1609.51 93.753 1612.29 95.0013 1615.56 95.0013H1615.56ZM1615.56 88.4815C1617.14 88.4815 1618.42 89.2449 1618.42 90.1834C1618.42 91.122 1617.14 91.8853 1615.56 91.8853C1613.98 91.8853 1612.7 91.122 1612.7 90.1834C1612.7 89.2449 1613.98 88.4815 1615.56 88.4815Z" fill="#CC6AA8" stroke="#CC6AA8" stroke-width="1.13" stroke-miterlimit="10"/>
<path d="M1615.56 91.8853C1617.14 91.8853 1618.42 91.122 1618.42 90.1834C1618.42 89.2449 1617.14 88.4815 1615.56 88.4815C1613.98 88.4815 1612.7 89.2449 1612.7 90.1834C1612.7 91.122 1613.98 91.8853 1615.56 91.8853Z" fill="#EC8E7A" stroke="#EC8E7A" stroke-width="1.13" stroke-miterlimit="10"/>
<path d="M1632.46 93.1023L1631.83 93.6592C1632.08 93.5497 1632.31 93.3588 1632.46 93.1023Z" fill="#EEC7BB"/>
<path d="M1635.95 82.7627C1635.27 82.4342 1634.45 82.7189 1634.12 83.3978L1630.26 91.3941L1630.75 90.9655C1631.1 90.6589 1631.78 90.8686 1632.28 91.4348C1632.59 91.7852 1632.75 92.1919 1632.75 92.5204L1636.59 84.5835C1636.92 83.9046 1636.63 83.0849 1635.95 82.7564V82.7627Z" fill="#EEC7BB"/>
<path d="M1630.69 93.6404C1630.01 93.3119 1629.73 92.4922 1630.06 91.8133L1630.26 91.3941L1626.42 94.7729C1626.07 95.0795 1626.19 95.7896 1626.69 96.359C1627.19 96.9253 1627.87 97.138 1628.22 96.8283L1631.83 93.6623C1631.47 93.8124 1631.06 93.8218 1630.69 93.6435V93.6404Z" fill="#EEC7BB"/>
<path d="M1632.46 93.1023L1632.55 93.021C1632.69 92.9052 1632.75 92.7269 1632.75 92.5235L1632.52 93.0053C1632.5 93.0429 1632.48 93.071 1632.46 93.1054V93.1023Z" fill="#EEC7BB"/>
<path d="M1630.75 90.9655L1630.26 91.3941L1630.05 91.8134C1629.73 92.4922 1630.01 93.3119 1630.69 93.6404C1631.06 93.8187 1631.47 93.8093 1631.82 93.6592L1632.45 93.1023C1632.47 93.0679 1632.5 93.0397 1632.52 93.0022L1632.75 92.5204C1632.75 92.1888 1632.59 91.7852 1632.28 91.4348C1631.78 90.8686 1631.09 90.6558 1630.74 90.9655H1630.75Z" fill="#DFB1A5"/>
<path d="M1627.04 96.8784C1627.16 97.4759 1626.77 98.0547 1626.18 98.1704L1624.67 98.4676C1624.07 98.5834 1623.49 98.1954 1623.38 97.601L1623.08 96.0931C1622.97 95.4956 1623.35 94.9199 1623.95 94.8011L1625.46 94.5039C1626.05 94.3881 1626.63 94.7729 1626.75 95.3704L1627.04 96.8784Z" fill="#EEC7BB"/>
<path d="M1623.66 95.5988C1623.7 95.8209 1623.51 96.0462 1623.22 96.1025L1621.36 96.4716C1621.08 96.528 1620.81 96.3934 1620.77 96.1682C1620.72 95.9461 1620.92 95.7208 1621.2 95.6645L1623.07 95.2953C1623.35 95.239 1623.61 95.3736 1623.66 95.5957V95.5988Z" fill="#EEC7BB"/>
<path d="M1626.03 94.6916C1625.97 94.9074 1625.69 95.0169 1625.41 94.9325L1623.59 94.3756C1623.32 94.2911 1623.15 94.0471 1623.22 93.8312C1623.28 93.6154 1623.56 93.5059 1623.83 93.5903L1625.66 94.1472C1625.93 94.2317 1626.1 94.4757 1626.03 94.6916Z" fill="#EEC7BB"/>
<path d="M1623.88 96.7344C1623.93 96.9566 1623.73 97.1818 1623.45 97.2381L1621.58 97.6073C1621.3 97.6636 1621.03 97.526 1620.99 97.307C1620.95 97.0848 1621.14 96.8596 1621.42 96.8033L1623.29 96.4341C1623.57 96.3778 1623.84 96.5123 1623.88 96.7344Z" fill="#EEC7BB"/>
<path d="M1624.1 97.8701C1624.15 98.0922 1623.95 98.3175 1623.67 98.3738L1621.8 98.7429C1621.52 98.7992 1621.26 98.6647 1621.21 98.4426C1621.17 98.2205 1621.36 97.9952 1621.65 97.9389L1623.51 97.5697C1623.79 97.5134 1624.06 97.6511 1624.1 97.8732V97.8701Z" fill="#EEC7BB"/>
<path d="M1638.68 84.0297C1638.68 85.5408 1637.45 86.7672 1635.94 86.7672C1634.43 86.7672 1633.2 85.5408 1633.2 84.0297C1633.2 82.5187 1634.43 81.2923 1635.94 81.2923C1637.45 81.2923 1638.68 82.5187 1638.68 84.0297Z" fill="#EB633E" stroke="#EB633E" stroke-width="2.26" stroke-miterlimit="10"/>
<path d="M1513.42 59.2835C1513.42 59.2835 1511.81 51.9379 1505.34 54.2936C1498.87 56.6493 1504.63 62.3494 1501.4 62.681C1501.4 62.681 1504.64 65.4372 1507.41 62.6936C1507.41 62.6936 1513.83 65.6875 1513.42 59.2835Z" fill="#231F20" stroke="#231F20" stroke-width="1.17" stroke-miterlimit="10"/>
<path d="M1534.16 59.2835C1534.16 59.2835 1535.77 51.9379 1542.24 54.2936C1548.7 56.6493 1542.94 62.3494 1546.18 62.681C1546.18 62.681 1542.94 65.4372 1540.17 62.6936C1540.17 62.6936 1533.74 65.6875 1534.16 59.2835Z" fill="#231F20" stroke="#231F20" stroke-width="1.17" stroke-miterlimit="10"/>
<path d="M1512.46 68.3717C1512.46 69.3853 1511.64 70.2081 1510.62 70.2081C1509.61 70.2081 1508.79 69.3853 1508.79 68.3717C1508.79 67.3581 1509.61 66.5353 1510.62 66.5353C1511.64 66.5353 1512.46 67.3581 1512.46 68.3717Z" fill="#EEC7BB"/>
<path d="M1539.77 68.3717C1539.77 69.3853 1538.95 70.2081 1537.93 70.2081C1536.92 70.2081 1536.1 69.3853 1536.1 68.3717C1536.1 67.3581 1536.92 66.5353 1537.93 66.5353C1538.95 66.5353 1539.77 67.3581 1539.77 68.3717Z" fill="#EEC7BB"/>
<path d="M1530.68 92.852C1530.68 95.1952 1530.33 96.4247 1527.99 96.4247H1520.29C1517.94 96.4247 1517.59 94.5257 1517.59 92.1856L1517.33 84.3957C1517.33 82.0556 1517.94 80.238 1520.28 80.238H1527.99C1530.33 80.238 1531.35 82.0556 1531.35 84.3957L1530.68 92.852H1530.68Z" fill="#70C8C1"/>
<path d="M1524.41 81.6083C1524.41 83.1632 1523.15 84.4239 1521.59 84.4239C1520.03 84.4239 1518.77 83.1632 1518.77 81.6083C1518.77 80.0535 1520.03 78.7896 1521.59 78.7896C1523.15 78.7896 1524.41 80.0503 1524.41 81.6083Z" fill="#C49BC7"/>
<path d="M1529.55 81.6083C1529.55 83.1632 1528.29 84.4239 1526.73 84.4239C1525.17 84.4239 1523.91 83.1632 1523.91 81.6083C1523.91 80.0535 1525.17 78.7896 1526.73 78.7896C1528.29 78.7896 1529.55 80.0503 1529.55 81.6083Z" fill="#C49BC7"/>
<path d="M1526.22 79.1305C1526.22 80.3256 1525.53 81.2954 1524.67 81.2954H1523.2C1522.35 81.2954 1521.66 80.3256 1521.66 79.1305C1521.66 77.9355 1522.35 76.9656 1523.2 76.9656H1524.67C1525.53 76.9656 1526.22 77.9355 1526.22 79.1305Z" fill="#E4BAB0"/>
<path d="M1524.49 51.2121C1524.37 51.2089 1524.26 51.1996 1524.14 51.1996C1524.02 51.1996 1523.91 51.2089 1523.79 51.2121C1516.33 51.4874 1510.34 60.5693 1510.34 68.0714C1510.34 75.5735 1516.52 78.7864 1524.14 78.7864C1531.75 78.7864 1537.93 75.6892 1537.93 68.0714C1537.93 60.4536 1531.94 51.4874 1524.48 51.2121H1524.49Z" fill="#EEC7BB"/>
<path opacity="0.4" d="M1525.51 70.2081C1525.51 71.2968 1524.63 72.1759 1523.55 72.1759C1522.46 72.1759 1521.58 71.2937 1521.58 70.2081C1521.58 69.1194 1522.46 68.2403 1523.55 68.2403C1524.63 68.2403 1525.51 69.1226 1525.51 70.2081Z" fill="#D68470"/>
<path d="M1520.05 71.4689C1520.05 72.7297 1521.07 73.7496 1522.33 73.7496" stroke="#D68470" stroke-width="1.13" stroke-miterlimit="10"/>
<path d="M1519.28 68.913C1519.28 69.376 1518.9 69.7545 1518.43 69.7545C1517.97 69.7545 1517.59 69.3791 1517.59 68.913C1517.59 68.4468 1517.97 68.0714 1518.43 68.0714C1518.9 68.0714 1519.28 68.4468 1519.28 68.913Z" fill="#231F20" stroke="#231F20" stroke-width="1.13" stroke-miterlimit="10"/>
<path d="M1528.55 68.913C1528.55 69.376 1528.18 69.7545 1527.71 69.7545C1527.24 69.7545 1526.87 69.3791 1526.87 68.913C1526.87 68.4468 1527.24 68.0714 1527.71 68.0714C1528.18 68.0714 1528.55 68.4468 1528.55 68.913Z" fill="#231F20" stroke="#231F20" stroke-width="1.13" stroke-miterlimit="10"/>
<path d="M1501.85 73.4837C1501.25 73.5712 1500.69 73.152 1500.6 72.5514L1500.39 71.0309C1500.3 70.4303 1500.72 69.8703 1501.32 69.7858L1502.84 69.5668C1503.44 69.4792 1504 69.8984 1504.08 70.4991L1504.3 72.0195C1504.39 72.6202 1503.97 73.1802 1503.37 73.2647L1501.85 73.4837Z" fill="#EEC7BB"/>
<path d="M1503.3 70.1675C1503.08 70.1988 1502.86 69.9954 1502.82 69.7107L1502.55 67.8274C1502.51 67.5427 1502.66 67.2862 1502.88 67.2517C1503.11 67.2205 1503.32 67.4238 1503.36 67.7085L1503.64 69.5918C1503.68 69.8765 1503.53 70.1331 1503.3 70.1675H1503.3Z" fill="#EEC7BB"/>
<path d="M1504.09 72.5858C1503.87 72.5076 1503.78 72.226 1503.88 71.957L1504.53 70.1675C1504.63 69.8953 1504.88 69.7389 1505.09 69.8171C1505.31 69.8953 1505.4 70.1769 1505.3 70.4459L1504.65 72.2354C1504.56 72.5076 1504.3 72.664 1504.09 72.5858H1504.09Z" fill="#EEC7BB"/>
<path d="M1502.16 70.3333C1501.93 70.3646 1501.72 70.1612 1501.67 69.8765L1501.4 67.9932C1501.36 67.7085 1501.51 67.452 1501.73 67.4175C1501.96 67.3863 1502.17 67.5896 1502.22 67.8743L1502.49 69.7576C1502.53 70.0423 1502.38 70.2989 1502.16 70.3333Z" fill="#EEC7BB"/>
<path d="M1501.01 70.496C1500.79 70.5273 1500.57 70.3239 1500.53 70.0392L1500.26 68.1559C1500.22 67.8712 1500.37 67.6146 1500.59 67.5802C1500.81 67.5489 1501.03 67.7523 1501.07 68.037L1501.34 69.9203C1501.38 70.205 1501.24 70.4616 1501.01 70.496Z" fill="#EEC7BB"/>
<path d="M1501.85 73.4837C1501.25 73.5712 1500.69 73.152 1500.6 72.5514L1500.39 71.0309C1500.3 70.4303 1500.72 69.8703 1501.32 69.7858L1502.84 69.5668C1503.44 69.4792 1504 69.8984 1504.08 70.4991L1504.3 72.0195C1504.39 72.6202 1503.97 73.1802 1503.37 73.2647L1501.85 73.4837Z" fill="#EEC7BB"/>
<path d="M1503.3 70.1675C1503.08 70.1988 1502.86 69.9954 1502.82 69.7107L1502.55 67.8274C1502.51 67.5427 1502.66 67.2862 1502.88 67.2517C1503.11 67.2205 1503.32 67.4238 1503.36 67.7085L1503.64 69.5918C1503.68 69.8765 1503.53 70.1331 1503.3 70.1675H1503.3Z" fill="#EEC7BB"/>
<path d="M1504.09 72.5858C1503.87 72.5076 1503.78 72.226 1503.88 71.957L1504.53 70.1675C1504.63 69.8953 1504.88 69.7389 1505.09 69.8171C1505.31 69.8953 1505.4 70.1769 1505.3 70.4459L1504.65 72.2354C1504.56 72.5076 1504.3 72.664 1504.09 72.5858H1504.09Z" fill="#EEC7BB"/>
<path d="M1502.16 70.3333C1501.93 70.3646 1501.72 70.1612 1501.67 69.8765L1501.4 67.9932C1501.36 67.7085 1501.51 67.452 1501.73 67.4175C1501.96 67.3863 1502.17 67.5896 1502.22 67.8743L1502.49 69.7576C1502.53 70.0423 1502.38 70.2989 1502.16 70.3333Z" fill="#EEC7BB"/>
<path d="M1501.01 70.496C1500.79 70.5273 1500.57 70.3239 1500.53 70.0392L1500.26 68.1559C1500.22 67.8712 1500.37 67.6146 1500.59 67.5802C1500.81 67.5489 1501.03 67.7523 1501.07 68.037L1501.34 69.9203C1501.38 70.205 1501.24 70.4616 1501.01 70.496Z" fill="#EEC7BB"/>
<path d="M1514.95 81.2454L1507.16 76.975L1507.57 77.485C1507.85 77.851 1507.61 78.5268 1507.02 78.996C1506.65 79.287 1506.24 79.4278 1505.91 79.409L1513.63 83.6481C1514.3 84.011 1515.13 83.7701 1515.49 83.1068C1515.86 82.4436 1515.61 81.6114 1514.95 81.2485L1514.95 81.2454Z" fill="#EEC7BB"/>
<path d="M1505.34 79.0836L1504.82 78.4235C1504.92 78.6863 1505.09 78.9209 1505.34 79.0836Z" fill="#EEC7BB"/>
<path d="M1504.9 77.2941C1505.26 76.6309 1506.09 76.39 1506.76 76.7529L1507.16 76.975L1503.98 72.9643C1503.69 72.5983 1502.98 72.6828 1502.39 73.152C1501.8 73.6213 1501.55 74.2971 1501.84 74.6631L1504.82 78.4235C1504.69 78.0637 1504.7 77.6539 1504.9 77.2941Z" fill="#EEC7BB"/>
<path d="M1505.34 79.0836L1505.42 79.1806C1505.53 79.3214 1505.7 79.3933 1505.9 79.4059L1505.44 79.1493C1505.4 79.1305 1505.38 79.1055 1505.34 79.0836Z" fill="#EEC7BB"/>
<path d="M1507.57 77.485L1507.16 76.975L1506.76 76.7529C1506.09 76.39 1505.26 76.6309 1504.9 77.2941C1504.7 77.6571 1504.69 78.0669 1504.82 78.4235L1505.34 79.0836C1505.37 79.1055 1505.4 79.1306 1505.44 79.1493L1505.9 79.4059C1506.24 79.4246 1506.65 79.2839 1507.01 78.9929C1507.61 78.5236 1507.85 77.8479 1507.56 77.4819L1507.57 77.485Z" fill="#DFB1A5"/>
<path d="M1540.58 80.1942C1540.11 79.6061 1540.02 78.8897 1540.38 78.5987L1540.89 78.192L1532.34 80.626C1531.62 80.8324 1531.19 81.5895 1531.4 82.3153C1531.61 83.0411 1532.37 83.4635 1533.09 83.257L1541.57 80.8418C1541.25 80.7886 1540.87 80.5571 1540.58 80.1942Z" fill="#EEC7BB"/>
<path d="M1542.85 80.1254L1542.19 80.6541C1542.47 80.5477 1542.7 80.36 1542.85 80.1254Z" fill="#EEC7BB"/>
<path d="M1541.57 80.8418C1541.77 80.8762 1541.96 80.8418 1542.09 80.7323L1542.19 80.6541C1542.15 80.6666 1542.12 80.6854 1542.08 80.6979L1541.57 80.845L1541.57 80.8418Z" fill="#EEC7BB"/>
<path d="M1546.39 75.5265C1545.92 74.9384 1545.24 74.6975 1544.88 74.9884L1540.89 78.1951L1541.34 78.0669C1542.06 77.8604 1542.82 78.2796 1543.03 79.0085C1543.14 79.4058 1543.06 79.8063 1542.85 80.1285L1546.59 77.1252C1546.95 76.8342 1546.87 76.1209 1546.39 75.5297L1546.39 75.5265Z" fill="#EEC7BB"/>
<path d="M1543.03 79.0085C1542.82 78.2827 1542.06 77.8604 1541.34 78.0669L1540.89 78.1951L1540.38 78.6018C1540.02 78.8928 1540.11 79.6092 1540.58 80.1973C1540.88 80.5602 1541.25 80.7917 1541.58 80.8449L1542.09 80.6979C1542.13 80.6854 1542.16 80.6697 1542.2 80.6541L1542.85 80.1254C1543.06 79.8063 1543.14 79.4027 1543.03 79.0054L1543.03 79.0085Z" fill="#DFB1A5"/>
<path d="M1544.77 73.9968L1545.33 72.5632C1545.54 71.9968 1546.18 71.713 1546.75 71.931L1548.18 72.4828C1548.75 72.7008 1549.03 73.3396 1548.81 73.906L1548.26 75.3396C1548.04 75.906 1547.41 76.1898 1546.84 75.9718L1545.41 75.4201C1544.84 75.2021 1544.56 74.5632 1544.77 73.9968Z" fill="#EEC7BB"/>
<path d="M1546.16 72.4137C1546.38 72.4951 1546.63 72.3418 1546.73 72.0758L1547.42 70.2989C1547.52 70.0298 1547.43 69.7451 1547.22 69.6638C1547.01 69.5825 1546.75 69.7358 1546.65 70.0017L1545.97 71.7786C1545.86 72.0477 1545.95 72.3324 1546.16 72.4137Z" fill="#EEC7BB"/>
<path d="M1544.86 74.5974C1545.09 74.5692 1545.24 74.3158 1545.2 74.028L1544.97 72.1384C1544.93 71.8537 1544.72 71.6441 1544.5 71.6723C1544.27 71.7004 1544.12 71.9538 1544.15 72.2417L1544.39 74.1313C1544.42 74.4191 1544.63 74.6256 1544.86 74.5974H1544.86Z" fill="#EEC7BB"/>
<path d="M1547.24 72.8298C1547.46 72.9111 1547.71 72.7578 1547.81 72.4919L1548.5 70.715C1548.6 70.4459 1548.51 70.1612 1548.3 70.0799C1548.09 69.9985 1547.83 70.1518 1547.73 70.4178L1547.05 72.1947C1546.95 72.4638 1547.03 72.7485 1547.24 72.8298Z" fill="#EEC7BB"/>
<path d="M1548.32 73.2428C1548.54 73.3241 1548.79 73.1708 1548.89 72.9049L1549.57 71.1279C1549.68 70.8589 1549.59 70.5742 1549.38 70.4928C1549.16 70.4115 1548.91 70.5648 1548.81 70.8307L1548.13 72.6077C1548.02 72.8767 1548.11 73.1614 1548.32 73.2428Z" fill="#EEC7BB"/>
<path d="M1544.77 73.9968L1545.33 72.5632C1545.54 71.9968 1546.18 71.713 1546.75 71.931L1548.18 72.4828C1548.75 72.7008 1549.03 73.3396 1548.81 73.906L1548.26 75.3396C1548.04 75.906 1547.41 76.1898 1546.84 75.9718L1545.41 75.4201C1544.84 75.2021 1544.56 74.5632 1544.77 73.9968Z" fill="#EEC7BB"/>
<path d="M1546.16 72.4137C1546.38 72.4951 1546.63 72.3418 1546.73 72.0758L1547.42 70.2989C1547.52 70.0298 1547.43 69.7451 1547.22 69.6638C1547.01 69.5825 1546.75 69.7358 1546.65 70.0017L1545.97 71.7786C1545.86 72.0477 1545.95 72.3324 1546.16 72.4137Z" fill="#EEC7BB"/>
<path d="M1544.86 74.5974C1545.09 74.5692 1545.24 74.3158 1545.2 74.028L1544.97 72.1384C1544.93 71.8537 1544.72 71.6441 1544.5 71.6723C1544.27 71.7004 1544.12 71.9538 1544.15 72.2417L1544.39 74.1313C1544.42 74.4191 1544.63 74.6256 1544.86 74.5974H1544.86Z" fill="#EEC7BB"/>
<path d="M1547.24 72.8298C1547.46 72.9111 1547.71 72.7578 1547.81 72.4919L1548.5 70.715C1548.6 70.4459 1548.51 70.1612 1548.3 70.0799C1548.09 69.9985 1547.83 70.1518 1547.73 70.4178L1547.05 72.1947C1546.95 72.4638 1547.03 72.7485 1547.24 72.8298Z" fill="#EEC7BB"/>
<path d="M1548.32 73.2428C1548.54 73.3241 1548.79 73.1708 1548.89 72.9049L1549.57 71.1279C1549.68 70.8589 1549.59 70.5742 1549.38 70.4928C1549.16 70.4115 1548.91 70.5648 1548.81 70.8307L1548.13 72.6077C1548.02 72.8767 1548.11 73.1614 1548.32 73.2428Z" fill="#EEC7BB"/>
<path d="M1532.19 85.2217C1533.68 85.4813 1535.09 84.4865 1535.35 82.9973C1535.61 81.5082 1534.62 80.091 1533.13 79.8313C1531.64 79.5717 1530.22 80.5696 1529.96 82.0557C1529.7 83.5448 1530.7 84.962 1532.19 85.2217Z" fill="#70C8C1"/>
<path d="M1537.14 62.2399C1534.91 56.3709 1529.93 51.1996 1524.14 51.1996C1518.35 51.1996 1513.35 56.4022 1511.13 62.2869C1511.13 62.2869 1510.04 65.4497 1510.19 66.7606C1510.19 66.7606 1512.12 66.3726 1513.34 62.2869H1528.73V59.2178L1530.85 62.2869H1535.26C1536.48 66.3726 1538.41 66.7606 1538.41 66.7606C1538.57 65.4497 1537.13 62.2399 1537.13 62.2399H1537.14Z" fill="#231F20" stroke="#231F20" stroke-width="1.17" stroke-miterlimit="10"/>
<path d="M1520.65 108.078C1521.37 108.078 1521.96 108.638 1522.01 109.345V96.6124C1522.01 95.8585 1521.4 95.2453 1520.65 95.2453C1519.89 95.2453 1519.28 95.8585 1519.28 96.6124V109.495C1519.28 109.53 1519.28 109.564 1519.29 109.599V109.449C1519.29 108.695 1519.9 108.081 1520.65 108.081V108.078Z" fill="#EEC7BB"/>
<path d="M1527.71 95.2453C1526.96 95.2453 1526.34 95.8585 1526.34 96.6124V109.445C1526.34 108.691 1526.96 108.078 1527.71 108.078C1528.46 108.078 1529.08 108.691 1529.08 109.445V96.6124C1529.08 95.8585 1528.46 95.2453 1527.71 95.2453Z" fill="#EEC7BB"/>
<path d="M1522.01 109.495C1522.01 110.253 1521.4 110.863 1520.65 110.863C1519.89 110.863 1519.34 110.303 1519.29 109.596V118.793C1519.29 119.55 1519.9 120.16 1520.65 120.16C1521.41 120.16 1522.02 119.547 1522.02 118.793V109.445C1522.02 109.411 1522.02 109.377 1522.01 109.345V109.495Z" fill="#EEC7BB"/>
<path d="M1520.65 110.863C1521.4 110.863 1522.01 110.249 1522.01 109.495V109.345C1521.96 108.638 1521.37 108.078 1520.65 108.078C1519.94 108.078 1519.29 108.691 1519.29 109.445V109.596C1519.34 110.303 1519.93 110.863 1520.65 110.863Z" fill="#DFB1A5"/>
<path d="M1527.71 110.863C1526.96 110.863 1526.34 110.249 1526.34 109.495V118.793C1526.34 119.55 1526.96 120.16 1527.71 120.16C1528.46 120.16 1529.08 119.547 1529.08 118.793V109.495C1529.08 110.253 1528.46 110.863 1527.71 110.863Z" fill="#EEC7BB"/>
<path d="M1527.71 108.078C1526.96 108.078 1526.34 108.691 1526.34 109.445V109.495C1526.34 110.253 1526.96 110.863 1527.71 110.863C1528.46 110.863 1529.08 110.249 1529.08 109.495V109.445C1529.08 108.691 1528.46 108.078 1527.71 108.078Z" fill="#DFB1A5"/>
<path d="M1523.55 120.398C1523.55 121.468 1522.68 122.338 1521.61 122.338H1519.53C1518.46 122.338 1517.6 121.471 1517.6 120.398C1517.6 119.328 1518.46 118.462 1519.53 118.462H1521.61C1522.68 118.462 1523.55 119.328 1523.55 120.398Z" fill="#C49BC7"/>
<path d="M1530.68 120.398C1530.68 121.468 1529.82 122.338 1528.75 122.338H1526.67C1525.6 122.338 1524.74 121.471 1524.74 120.398C1524.74 119.328 1525.6 118.462 1526.67 118.462H1528.75C1529.82 118.462 1530.68 119.328 1530.68 120.398Z" fill="#C49BC7"/>
<path d="M1529.11 92.9114H1526.31C1525.72 92.9114 1525.2 93.3307 1524.93 93.9501C1523.08 93.3307 1522.56 92.9114 1521.97 92.9114H1519.17C1518.3 92.9114 1517.6 93.8124 1517.6 94.9262L1515.3 103.583C1515.3 104.696 1518.3 104.822 1519.17 104.822H1529.11C1529.14 104.822 1529.16 104.822 1529.18 104.818C1530.02 104.775 1532.66 104.668 1532.66 103.583L1530.69 94.9262C1530.69 93.8156 1529.98 92.9114 1529.11 92.9114Z" fill="#70C8C1"/>
<path d="M1531.16 90.7872C1537.68 91.2377 1542.26 92.3077 1542.26 93.5528C1542.26 95.2078 1534.19 96.5467 1524.25 96.5467C1514.31 96.5467 1506.25 95.2046 1506.25 93.5528C1506.25 92.3108 1510.78 91.2471 1517.24 90.7935" stroke="#DDE11E" stroke-width="6.78" stroke-miterlimit="10"/>
<path d="M1518.03 82.6191C1518.06 81.1093 1516.86 79.8604 1515.35 79.8295C1513.84 79.7987 1512.59 80.9976 1512.56 82.5074C1512.53 84.0172 1513.73 85.2661 1515.24 85.297C1516.75 85.3278 1518 84.1289 1518.03 82.6191Z" fill="#70C8C1"/>
<path d="M1565.87 67.6053C1565.87 68.6189 1565.05 69.4417 1564.04 69.4417C1563.02 69.4417 1562.2 68.6189 1562.2 67.6053C1562.2 66.5916 1563.02 65.7689 1564.04 65.7689C1565.05 65.7689 1565.87 66.5916 1565.87 67.6053Z" fill="#EEC7BB"/>
<path d="M1593.18 67.6053C1593.18 68.6189 1592.36 69.4417 1591.35 69.4417C1590.33 69.4417 1589.51 68.6189 1589.51 67.6053C1589.51 66.5916 1590.33 65.7689 1591.35 65.7689C1592.36 65.7689 1593.18 66.5916 1593.18 67.6053Z" fill="#EEC7BB"/>
<path d="M1574.44 109.733C1573.68 109.733 1573.07 109.12 1573.07 108.366V117.329C1573.07 118.086 1573.68 118.696 1574.44 118.696C1575.19 118.696 1575.8 118.083 1575.8 117.329V108.366C1575.8 109.123 1575.19 109.733 1574.44 109.733Z" fill="#EEC7BB"/>
<path d="M1581.5 109.733C1580.75 109.733 1580.14 109.12 1580.14 108.366V117.329C1580.14 118.086 1580.75 118.696 1581.5 118.696C1582.26 118.696 1582.87 118.083 1582.87 117.329V108.366C1582.87 109.123 1582.26 109.733 1581.5 109.733Z" fill="#EEC7BB"/>
<path d="M1574.44 94.1159C1573.68 94.1159 1573.07 94.7291 1573.07 95.483V107.981C1573.07 107.227 1573.68 106.614 1574.44 106.614C1575.19 106.614 1575.8 107.227 1575.8 107.981V95.483C1575.8 94.7291 1575.19 94.1159 1574.44 94.1159Z" fill="#EEC7BB"/>
<path d="M1574.44 106.614C1573.68 106.614 1573.07 107.227 1573.07 107.981V108.363C1573.07 109.12 1573.68 109.73 1574.44 109.73C1575.19 109.73 1575.8 109.117 1575.8 108.363V107.981C1575.8 107.227 1575.19 106.614 1574.44 106.614Z" fill="#DFB1A5"/>
<path d="M1574.44 106.614C1573.68 106.614 1573.07 107.227 1573.07 107.981V108.363C1573.07 109.12 1573.68 109.73 1574.44 109.73C1575.19 109.73 1575.8 109.117 1575.8 108.363V107.981C1575.8 107.227 1575.19 106.614 1574.44 106.614Z" fill="#DFB1A5"/>
<path d="M1581.5 94.1159C1580.75 94.1159 1580.14 94.7291 1580.14 95.483V107.981C1580.14 107.227 1580.75 106.614 1581.5 106.614C1582.26 106.614 1582.87 107.227 1582.87 107.981V95.483C1582.87 94.7291 1582.26 94.1159 1581.5 94.1159Z" fill="#EEC7BB"/>
<path d="M1581.5 106.614C1580.75 106.614 1580.14 107.227 1580.14 107.981V108.363C1580.14 109.12 1580.75 109.73 1581.5 109.73C1582.26 109.73 1582.87 109.117 1582.87 108.363V107.981C1582.87 107.227 1582.26 106.614 1581.5 106.614Z" fill="#DFB1A5"/>
<path d="M1581.5 106.614C1580.75 106.614 1580.14 107.227 1580.14 107.981V108.363C1580.14 109.12 1580.75 109.73 1581.5 109.73C1582.26 109.73 1582.87 109.117 1582.87 108.363V107.981C1582.87 107.227 1582.26 106.614 1581.5 106.614Z" fill="#DFB1A5"/>
<path d="M1577.34 101.677C1577.34 102.791 1576.64 103.692 1575.76 103.692H1572.96C1572.09 103.692 1571.39 102.791 1571.39 101.677V93.7968C1571.39 92.6831 1572.09 91.7821 1572.96 91.7821H1575.76C1576.63 91.7821 1577.34 92.6831 1577.34 93.7968V101.677Z" fill="#3A53A3" stroke="#3A53A3" stroke-width="1.13" stroke-miterlimit="10"/>
<path d="M1584.48 101.677C1584.48 102.791 1583.77 103.692 1582.9 103.692H1580.1C1579.23 103.692 1578.53 102.791 1578.53 101.677V93.7968C1578.53 92.6831 1579.23 91.7821 1580.1 91.7821H1582.9C1583.77 91.7821 1584.48 92.6831 1584.48 93.7968V101.677Z" fill="#3A53A3" stroke="#3A53A3" stroke-width="1.13" stroke-miterlimit="10"/>
<path d="M1581.78 79.1086H1574.08C1571.74 79.1086 1569.84 81.0079 1569.84 83.3508V91.0531C1569.84 93.3961 1571.74 95.2954 1574.08 95.2954H1581.78C1584.12 95.2954 1586.02 93.3961 1586.02 91.0531V83.3508C1586.02 81.0079 1584.12 79.1086 1581.78 79.1086Z" fill="#DDE11E" stroke="#DDE11E" stroke-width="1.13" stroke-miterlimit="10"/>
<path d="M1581.13 78.0012C1581.13 79.1962 1580.16 80.1661 1578.96 80.1661H1576.91C1575.71 80.1661 1574.74 79.1962 1574.74 78.0012C1574.74 76.803 1575.71 75.8331 1576.91 75.8331H1578.96C1580.16 75.8331 1581.13 76.803 1581.13 78.0012Z" fill="#E4BAB0"/>
<path d="M1578.28 50.0858C1578.16 50.0827 1578.05 50.0733 1577.93 50.0733C1577.81 50.0733 1578.05 53.1861 1577.93 53.1893C1570.47 53.4646 1564.14 59.4431 1564.14 66.9451C1564.14 74.4472 1570.31 77.6602 1577.93 77.6602C1585.55 77.6602 1591.72 74.563 1591.72 66.9451C1591.72 59.3273 1585.73 50.3611 1578.28 50.0858H1578.28Z" fill="#EEC7BB"/>
<path d="M1577.34 119.269C1577.34 120.339 1576.47 121.208 1575.4 121.208H1573.33C1572.26 121.208 1571.39 120.342 1571.39 119.269C1571.39 118.199 1572.26 117.332 1573.33 117.332H1575.4C1576.47 117.332 1577.34 118.199 1577.34 119.269Z" fill="#231F20" stroke="#231F20" stroke-width="1.17" stroke-miterlimit="10"/>
<path d="M1584.48 120.339C1584.48 121.409 1583.61 121.205 1582.54 121.205H1580.46C1579.4 121.205 1578.53 120.339 1578.53 119.266C1578.53 118.196 1579.4 117.329 1580.46 117.329H1582.54C1583.61 117.329 1584.48 118.196 1584.48 119.266V120.336V120.339Z" fill="#231F20" stroke="#231F20" stroke-width="1.17" stroke-miterlimit="10"/>
<path d="M1570.81 83.5886C1571.14 82.9097 1570.85 82.0901 1570.17 81.7616C1569.49 81.4331 1568.67 81.7178 1568.35 82.3967L1568 83.1068C1568.78 83.5824 1569.57 84.0329 1570.37 84.4927L1570.81 83.5886Z" fill="#DDE11E" stroke="#DDE11E" stroke-width="1.13" stroke-miterlimit="10"/>
<path d="M1558.16 93.8075L1559.67 93.5107C1560.26 93.3934 1560.84 93.7829 1560.96 94.3784L1561.26 95.8855C1561.37 96.481 1560.99 97.0615 1560.39 97.1788L1558.88 97.4756C1558.29 97.5928 1557.71 97.2033 1557.59 96.6078L1557.29 95.1007C1557.18 94.5052 1557.56 93.9247 1558.16 93.8075Z" fill="#EEC7BB"/>
<path d="M1557.88 94.5977C1557.92 94.8198 1557.73 95.0451 1557.45 95.1014L1555.58 95.4706C1555.3 95.5269 1555.03 95.3923 1554.99 95.1671C1554.94 94.945 1555.14 94.7197 1555.42 94.6634L1557.29 94.2942C1557.57 94.2379 1557.83 94.3725 1557.88 94.5946V94.5977Z" fill="#EEC7BB"/>
<path d="M1560.25 93.6936C1560.19 93.9094 1559.91 94.0189 1559.63 93.9345L1557.81 93.3776C1557.54 93.2931 1557.37 93.0491 1557.43 92.8332C1557.5 92.6174 1557.78 92.5079 1558.05 92.5923L1559.87 93.1492C1560.15 93.2337 1560.32 93.4777 1560.25 93.6936Z" fill="#EEC7BB"/>
<path d="M1558.1 95.7333C1558.14 95.9555 1557.95 96.1807 1557.67 96.237L1555.8 96.6062C1555.52 96.6625 1555.25 96.528 1555.21 96.3058C1555.17 96.0837 1555.36 95.8585 1555.64 95.8022L1557.51 95.433C1557.79 95.3767 1558.06 95.5112 1558.1 95.7333Z" fill="#EEC7BB"/>
<path d="M1558.32 96.8721C1558.37 97.0942 1558.17 97.3195 1557.89 97.3758L1556.03 97.7449C1555.74 97.8013 1555.48 97.6667 1555.43 97.4446C1555.39 97.2225 1555.58 96.9972 1555.87 96.9409L1557.73 96.5718C1558.02 96.5154 1558.28 96.6531 1558.32 96.8752V96.8721Z" fill="#EEC7BB"/>
<path d="M1583.9 79.603C1583.27 80.019 1583.1 80.87 1583.52 81.4988C1583.93 82.1308 1584.78 82.2997 1585.41 81.8836L1587.35 80.5978C1586.79 79.8783 1586.2 79.1775 1585.56 78.4986L1583.9 79.5998V79.603Z" fill="#DDE11E" stroke="#DDE11E" stroke-width="1.13" stroke-miterlimit="10"/>
<path d="M1566.68 92.1043L1566.05 92.6612C1566.31 92.5517 1566.53 92.3608 1566.68 92.1043Z" fill="#EEC7BB"/>
<path d="M1568 83.1068L1564.48 90.3962L1564.97 89.9676C1565.32 89.661 1566.01 89.8706 1566.5 90.4369C1566.81 90.7872 1566.97 91.1939 1566.97 91.5256L1570.37 84.4928C1569.57 84.036 1568.78 83.5824 1568 83.1068H1568Z" fill="#EEC7BB"/>
<path d="M1566.68 92.1043L1566.77 92.023C1566.91 91.9072 1566.97 91.7289 1566.97 91.5255L1566.74 92.0042C1566.72 92.0417 1566.7 92.0699 1566.68 92.1043Z" fill="#EEC7BB"/>
<path d="M1564.91 92.6424C1564.23 92.3139 1563.95 91.4943 1564.28 90.8154L1564.48 90.3962L1560.64 93.7749C1560.29 94.0815 1560.41 94.7917 1560.91 95.3579C1561.41 95.9242 1562.09 96.1369 1562.44 95.8272L1566.04 92.6581C1565.69 92.8082 1565.28 92.8176 1564.91 92.6393V92.6424Z" fill="#EEC7BB"/>
<path d="M1564.97 89.9676L1564.48 90.3962L1564.28 90.8154C1563.95 91.4943 1564.23 92.3139 1564.91 92.6424C1565.28 92.8207 1565.69 92.8145 1566.04 92.6612L1566.67 92.1043C1566.69 92.0699 1566.72 92.0418 1566.74 92.0042L1566.97 91.5256C1566.97 91.1939 1566.81 90.7904 1566.5 90.4369C1566 89.8706 1565.31 89.6579 1564.96 89.9676H1564.97Z" fill="#DFB1A5"/>
<path d="M1593.76 75.9395L1593.29 76.6434C1593.53 76.4588 1593.69 76.2117 1593.76 75.9395Z" fill="#EEC7BB"/>
<path d="M1591.62 76.6935C1590.99 76.2743 1590.69 75.6204 1590.95 75.2325L1591.31 74.6913L1585.56 78.4955C1586.2 79.1744 1586.79 79.8751 1587.35 80.5947L1592.76 77.0095C1592.43 77.0564 1592.01 76.95 1591.62 76.6903L1591.62 76.6935Z" fill="#EEC7BB"/>
<path d="M1595.74 70.4866C1595.11 70.0674 1594.39 70.0455 1594.14 70.4334L1591.31 74.6944L1591.69 74.4378C1592.32 74.0217 1593.17 74.1907 1593.59 74.8226C1593.82 75.1668 1593.86 75.5735 1593.76 75.9426L1596.41 71.9476C1596.67 71.5596 1596.37 70.9058 1595.74 70.4897V70.4866Z" fill="#EEC7BB"/>
<path d="M1592.76 77.0126C1592.96 76.9844 1593.13 76.8968 1593.23 76.7498L1593.29 76.6465C1593.26 76.6716 1593.24 76.6966 1593.2 76.7216L1592.76 77.0157V77.0126Z" fill="#EEC7BB"/>
<path d="M1593.59 74.8226C1593.17 74.1938 1592.32 74.0217 1591.69 74.4378L1591.31 74.6944L1590.95 75.2356C1590.69 75.6235 1590.99 76.2774 1591.62 76.6966C1592.01 76.9563 1592.43 77.0626 1592.76 77.0157L1593.2 76.7216C1593.24 76.6997 1593.26 76.6716 1593.29 76.6465L1593.76 75.9426C1593.86 75.5735 1593.81 75.1668 1593.59 74.8226H1593.59Z" fill="#DFB1A5"/>
<path d="M1593.74 69.518L1593.84 67.9846C1593.87 67.3788 1594.39 66.9146 1595 66.9506L1596.53 67.0417C1597.14 67.0777 1597.6 67.6005 1597.57 68.2063L1597.48 69.7397C1597.44 70.3456 1596.92 70.8097 1596.31 70.7737L1594.78 70.6826C1594.17 70.6466 1593.71 70.1238 1593.74 69.518Z" fill="#E4BAB0"/>
<path d="M1594 70.0611C1594.21 69.9673 1594.28 69.6763 1594.16 69.4166L1593.36 67.6866C1593.24 67.4269 1592.98 67.2893 1592.77 67.3863C1592.56 67.4801 1592.49 67.7711 1592.62 68.0307L1593.41 69.7608C1593.54 70.0236 1593.8 70.1581 1594 70.0611H1594Z" fill="#E4BAB0"/>
<path d="M1597.61 67.1861C1597.42 67.0609 1597.14 67.1548 1596.98 67.3957L1595.93 68.9849C1595.77 69.2258 1595.8 69.523 1595.99 69.645C1596.17 69.7702 1596.46 69.6763 1596.61 69.4354L1597.66 67.8462C1597.82 67.6053 1597.79 67.3081 1597.61 67.1861Z" fill="#EEC7BB"/>
<path opacity="0.4" d="M1579.31 69.0788C1579.31 70.1675 1578.43 71.0466 1577.34 71.0466C1576.25 71.0466 1575.37 70.1643 1575.37 69.0788C1575.37 67.9901 1576.25 67.111 1577.34 67.111C1578.43 67.111 1579.31 67.9932 1579.31 69.0788Z" fill="#D68470"/>
<path d="M1576.12 72.6202C1574.86 72.6202 1573.84 71.6003 1573.84 70.3395C1573.84 70.3395 1572.75 71.1874 1573.29 72.6202" stroke="#D68470" stroke-width="1.13" stroke-miterlimit="10"/>
<path d="M1571.39 67.7836C1571.39 67.3174 1571.76 66.942 1572.23 66.942C1572.69 66.942 1573.07 67.3174 1573.07 67.7836" stroke="#231F20" stroke-width="1.13" stroke-miterlimit="10"/>
<path d="M1580.66 67.7836C1580.66 67.3174 1581.04 66.942 1581.5 66.942C1581.97 66.942 1582.35 67.3174 1582.35 67.7836" stroke="#231F20" stroke-width="1.13" stroke-miterlimit="10"/>
<path d="M1593.41 69.7608C1593.41 69.7608 1594.85 63.995 1592.55 53.1517C1590.25 42.3084 1590.85 27.6766 1590.85 27.6766" stroke="#231F20" stroke-width="0.56" stroke-linecap="round" stroke-linejoin="round"/>
<path d="M1594.77 70.6805C1594.77 70.6805 1593.39 66.2975 1597.56 56.6431C1601.96 46.4693 1599.91 43.3815 1599.91 43.3815" stroke="#231F20" stroke-width="0.56" stroke-linecap="round" stroke-linejoin="round"/>
<path d="M1578.18 50.3674C1574.04 50.7428 1569.99 53.6335 1567.31 56.7651C1565.15 59.2929 1564.76 62.6153 1564.04 65.7657C1568.17 64.5675 1570.46 61.2044 1572.43 57.4721C1575.07 62.4652 1580.32 65.8689 1586.36 65.8689C1588.81 65.8689 1591.13 65.3121 1593.19 64.3172C1593.95 63.9481 1589.75 57.0592 1589.28 56.4523C1587.5 54.1341 1585.2 52.0787 1582.46 50.9743C1581.06 50.408 1579.61 50.2391 1578.18 50.3674Z" fill="#EB633E" stroke="#EB633E" stroke-width="2.26" stroke-miterlimit="10"/>
<path d="M1596.64 66.5478C1596.45 66.4227 1596.17 66.5166 1596.01 66.7574L1594.96 68.3467C1594.8 68.5876 1594.83 68.8817 1595.02 69.0068C1595.21 69.132 1595.49 69.0381 1595.65 68.7972L1596.69 67.2079C1596.85 66.9671 1596.83 66.673 1596.64 66.5478Z" fill="#EEC7BB"/>
<path d="M1595.67 65.9127C1595.48 65.7876 1595.2 65.8815 1595.04 66.1223L1594 67.7116C1593.84 67.9525 1593.86 68.2497 1594.05 68.3748C1594.24 68.5 1594.52 68.4061 1594.68 68.1652L1595.73 66.576C1595.89 66.3351 1595.86 66.041 1595.67 65.9159L1595.67 65.9127Z" fill="#EEC7BB"/>
<path d="M1602.01 18.7761C1602.01 25.5023 1597.34 30.9584 1591.57 30.9584C1585.8 30.9584 1581.12 25.5054 1581.12 18.7761C1581.12 12.0468 1585.8 6.59695 1591.57 6.59695C1597.34 6.59695 1602.02 12.0499 1602.02 18.7761H1602.01Z" fill="#745297" stroke="#745297" stroke-width="0.41" stroke-miterlimit="10"/>
<path d="M1590.78 30.6017C1590.78 30.6017 1589.01 32.2692 1589.9 32.8699C1590.79 33.4705 1590.85 32.4757 1590.85 32.4757C1590.85 32.4757 1591.38 33.6019 1591.97 32.7416C1592.55 31.8813 1590.78 30.6017 1590.78 30.6017Z" fill="#745297" stroke="#745297" stroke-width="0.41" stroke-miterlimit="10"/>
<path d="M1611.5 35.0473C1611.16 41.7672 1606.22 46.9793 1600.46 46.6946C1594.7 46.4067 1590.3 40.7286 1590.63 34.0086C1590.97 27.2887 1595.91 22.0766 1601.67 22.3613C1607.44 22.6491 1611.83 28.3273 1611.5 35.0473H1611.5Z" fill="#70C8C1"/>
<path d="M1599.69 46.3004C1599.69 46.3004 1597.84 47.8771 1598.7 48.5216C1599.56 49.1661 1599.67 48.1743 1599.67 48.1743C1599.67 48.1743 1600.14 49.3256 1600.77 48.4966C1601.4 47.6675 1599.69 46.3004 1599.69 46.3004Z" fill="#70C8C1"/>
<path d="M1708.2 101.542C1708.2 110.095 1699.69 117.015 1689.2 117.015C1678.72 117.015 1670.21 110.095 1670.21 101.542V96.6427C1670.21 88.0897 1678.72 81.1699 1689.2 81.1699C1699.69 81.1699 1708.2 88.0897 1708.2 96.6427V101.542Z" fill="url(#paint0_radial_467_3917)"/>
<path d="M1680.87 90.367C1680.87 90.367 1688.22 88.3899 1698.62 90.367L1699.6 93.8054C1699.6 93.8054 1689.76 92.7309 1679.96 93.8054L1680.87 90.367Z" fill="url(#paint1_linear_467_3917)"/>
<path d="M1677.47 90.1523L1676.44 93.8486C1676.44 93.8486 1675.58 93.8486 1673.73 94.4503C1673.69 94.4503 1673.43 91.8715 1677.47 90.1523Z" fill="url(#paint2_linear_467_3917)"/>
<path d="M1715.16 68.6189C1715.16 80.4383 1705.58 90.0229 1693.76 90.0229H1683.49C1671.67 90.0229 1662.08 80.4383 1662.08 68.6189C1662.08 56.7994 1671.67 47.2148 1683.49 47.2148H1693.76C1705.58 47.2578 1715.16 56.8424 1715.16 68.6189Z" fill="url(#paint3_radial_467_3917)"/>
<path d="M1670.76 53.3614L1671.02 55.4674C1671.02 55.4674 1669.05 56.0691 1667.71 57.5734C1667.76 57.5734 1667.54 55.0806 1670.76 53.3614Z" fill="url(#paint4_linear_467_3917)"/>
<path d="M1677.47 50.6965C1677.47 50.6965 1679.58 49.2781 1682.8 49.579H1693.93C1693.93 49.579 1697.37 50.0088 1698.14 51.2982L1677.47 50.6965Z" fill="url(#paint5_linear_467_3917)"/>
<path d="M1707.04 67.7594C1707.04 71.1548 1704.29 73.9055 1700.89 73.9055H1676.35C1672.96 73.9055 1670.21 71.1548 1670.21 67.7594C1670.21 64.364 1672.96 61.6133 1676.35 61.6133H1700.89C1704.29 61.6133 1707.04 64.364 1707.04 67.7594Z" fill="url(#paint6_radial_467_3917)"/>
<path d="M1682.89 67.9323C1682.89 69.2646 1681.81 70.2962 1680.52 70.2962C1679.19 70.2962 1678.16 69.2217 1678.16 67.9323C1678.16 66.5999 1679.23 65.5684 1680.52 65.5684C1681.81 65.5684 1682.89 66.6429 1682.89 67.9323Z" fill="#27A3FF"/>
<path d="M1698.36 67.9323C1698.36 69.2646 1697.28 70.2962 1695.99 70.2962C1694.66 70.2962 1693.63 69.2217 1693.63 67.9323C1693.63 66.5999 1694.7 65.5684 1695.99 65.5684C1697.28 65.5684 1698.36 66.6429 1698.36 67.9323Z" fill="#27A3FF"/>
<path d="M1689.2 41.6699H1688.13V47.2143H1689.2V41.6699Z" fill="url(#paint7_linear_467_3917)"/>
<path d="M1690.54 40.1665C1690.54 41.241 1689.68 42.0576 1688.64 42.0576C1687.57 42.0576 1686.75 41.198 1686.75 40.1665C1686.75 39.092 1687.61 38.2754 1688.64 38.2754C1689.72 38.2754 1690.54 39.092 1690.54 40.1665Z" fill="#27A3FF"/>
<path d="M1714.69 59.9375H1716.24C1716.24 59.9375 1718.21 62.8601 1717.96 69.0492C1717.96 69.0492 1718.04 74.5937 1716.32 77.3444H1714.73L1714.69 59.9375Z" fill="url(#paint8_linear_467_3917)"/>
<path d="M1713.31 59.9373H1714.86C1714.86 59.9373 1716.84 62.8599 1716.58 69.049C1716.58 69.049 1716.67 74.5934 1714.95 77.3442H1713.36L1713.31 59.9373Z" fill="url(#paint9_linear_467_3917)"/>
<path d="M1662.77 59.9373H1661.22C1661.22 59.9373 1659.25 62.8599 1659.5 69.049C1659.5 69.049 1659.42 74.5934 1661.14 77.3442H1662.73L1662.77 59.9373Z" fill="url(#paint10_linear_467_3917)"/>
<path d="M1664.1 59.9375H1662.55C1662.55 59.9375 1660.58 62.8601 1660.84 69.0492C1660.84 69.0492 1660.75 74.5937 1662.47 77.3444H1664.06L1664.1 59.9375Z" fill="url(#paint11_linear_467_3917)"/>
<path d="M1672.35 88.9916C1670.76 87.5303 1665.82 90.324 1661.27 95.2237C1656.71 100.123 1654.3 105.281 1655.89 106.742C1657.48 108.204 1662.43 105.41 1666.98 100.51C1671.5 95.6105 1673.9 90.4529 1672.35 88.9916Z" fill="url(#paint12_linear_467_3917)"/>
<path d="M1726.81 78.2896C1725.61 76.5274 1720.15 78.1177 1714.6 81.8999C1709.06 85.6392 1705.58 90.1521 1706.78 91.9143C1707.99 93.6764 1713.44 92.0862 1718.99 88.3039C1724.49 84.5647 1728.01 80.0518 1726.81 78.2896Z" fill="url(#paint13_linear_467_3917)"/>
<path d="M1728.06 80.9115C1727.8 80.9115 1727.5 80.8686 1727.24 80.8256C1726.17 80.6107 1725.31 80.009 1724.75 79.1064C1724.23 78.2038 1724.1 77.1293 1724.4 76.0978C1724.7 75.1092 1725.39 74.2496 1726.29 73.6909C1727.2 73.1322 1728.23 72.9603 1729.26 73.1322L1728.83 75.4101C1728.4 75.3241 1727.88 75.4101 1727.5 75.668C1727.07 75.9259 1726.77 76.3127 1726.64 76.7425C1726.51 77.1293 1726.55 77.5591 1726.77 77.9029C1726.98 78.2468 1727.33 78.4617 1727.71 78.5476C1728.19 78.6336 1728.66 78.5476 1729.09 78.2898C1729.65 77.9459 1729.99 77.3872 1730.03 76.7855L1732.35 76.8714C1732.31 78.2468 1731.54 79.5362 1730.29 80.2668C1729.56 80.6966 1728.79 80.9115 1728.06 80.9115Z" fill="url(#paint14_linear_467_3917)"/>
<defs>
<radialGradient id="paint0_radial_467_3917" cx="0" cy="0" r="1" gradientUnits="userSpaceOnUse" gradientTransform="translate(1689.19 99.0771) scale(20.5552 16.7463)">
<stop stop-color="#F1F1F5"/>
<stop offset="0.551" stop-color="#E4E2EC"/>
<stop offset="1" stop-color="#CFCFDE"/>
</radialGradient>
<linearGradient id="paint1_linear_467_3917" x1="1679.99" y1="91.6755" x2="1699.64" y2="91.6755" gradientUnits="userSpaceOnUse">
<stop stop-color="white"/>
<stop offset="1"/>
</linearGradient>
<linearGradient id="paint2_linear_467_3917" x1="1673.68" y1="92.2954" x2="1678.89" y2="92.2954" gradientUnits="userSpaceOnUse">
<stop stop-color="white"/>
<stop offset="1"/>
</linearGradient>
<radialGradient id="paint3_radial_467_3917" cx="0" cy="0" r="1" gradientUnits="userSpaceOnUse" gradientTransform="translate(1688.65 68.6348) scale(24.0908 24.0908)">
<stop stop-color="#F1F1F5"/>
<stop offset="0.551" stop-color="#E4E2EC"/>
<stop offset="1" stop-color="#CFCFDE"/>
</radialGradient>
<linearGradient id="paint4_linear_467_3917" x1="1667.76" y1="55.4784" x2="1672.3" y2="55.4784" gradientUnits="userSpaceOnUse">
<stop stop-color="white"/>
<stop offset="1"/>
</linearGradient>
<linearGradient id="paint5_linear_467_3917" x1="1677.46" y1="50.4282" x2="1705.93" y2="50.4282" gradientUnits="userSpaceOnUse">
<stop stop-color="white"/>
<stop offset="1"/>
</linearGradient>
<radialGradient id="paint6_radial_467_3917" cx="0" cy="0" r="1" gradientUnits="userSpaceOnUse" gradientTransform="translate(1688.65 67.7604) scale(13.7092 12.7386)">
<stop stop-color="#3E3C44"/>
<stop offset="0.551" stop-color="#242327"/>
<stop offset="1" stop-color="#040100"/>
</radialGradient>
<linearGradient id="paint7_linear_467_3917" x1="1688.11" y1="44.4682" x2="1689.18" y2="44.4682" gradientUnits="userSpaceOnUse">
<stop stop-color="#F1F1F5"/>
<stop offset="0.551" stop-color="#E4E2EC"/>
<stop offset="1" stop-color="#CFCFDE"/>
</linearGradient>
<linearGradient id="paint8_linear_467_3917" x1="1716.32" y1="60.2964" x2="1716.32" y2="76.6872" gradientUnits="userSpaceOnUse">
<stop stop-color="#F1F1F5"/>
<stop offset="0.5153" stop-color="#D5CFD9"/>
<stop offset="1" stop-color="#BBBBCA"/>
</linearGradient>
<linearGradient id="paint9_linear_467_3917" x1="1714.97" y1="60.0118" x2="1714.97" y2="77.7799" gradientUnits="userSpaceOnUse">
<stop stop-color="#9DA1AF"/>
<stop offset="0.1378" stop-color="#ACB1C5"/>
<stop offset="0.2347" stop-color="#D7DBE7"/>
<stop offset="0.4133" stop-color="#9399B0"/>
<stop offset="0.6318" stop-color="#686D84"/>
<stop offset="1" stop-color="#41434F"/>
</linearGradient>
<linearGradient id="paint10_linear_467_3917" x1="1661.11" y1="60.2962" x2="1661.11" y2="76.687" gradientUnits="userSpaceOnUse">
<stop stop-color="#F1F1F5"/>
<stop offset="0.5153" stop-color="#D5CFD9"/>
<stop offset="1" stop-color="#BBBBCA"/>
</linearGradient>
<linearGradient id="paint11_linear_467_3917" x1="1662.46" y1="60.012" x2="1662.46" y2="77.7801" gradientUnits="userSpaceOnUse">
<stop stop-color="#9DA1AF"/>
<stop offset="0.1378" stop-color="#ACB1C5"/>
<stop offset="0.2347" stop-color="#D7DBE7"/>
<stop offset="0.4133" stop-color="#9399B0"/>
<stop offset="0.6318" stop-color="#686D84"/>
<stop offset="1" stop-color="#41434F"/>
</linearGradient>
<linearGradient id="paint12_linear_467_3917" x1="1661.43" y1="95.6344" x2="1666.95" y2="100.233" gradientUnits="userSpaceOnUse">
<stop stop-color="#F1F1F5"/>
<stop offset="0.551" stop-color="#E4E2EC"/>
<stop offset="1" stop-color="#CFCFDE"/>
</linearGradient>
<linearGradient id="paint13_linear_467_3917" x1="1714.68" y1="82.3286" x2="1719.04" y2="88.0445" gradientUnits="userSpaceOnUse">
<stop stop-color="#F1F1F5"/>
<stop offset="0.551" stop-color="#E4E2EC"/>
<stop offset="1" stop-color="#CFCFDE"/>
</linearGradient>
<linearGradient id="paint14_linear_467_3917" x1="1728.31" y1="76.8919" x2="1730.11" y2="70.6595" gradientUnits="userSpaceOnUse">
<stop stop-color="#9DA1AF"/>
<stop offset="0.2347" stop-color="#CFD1E3"/>
<stop offset="0.6318" stop-color="#686D84"/>
<stop offset="1" stop-color="#41434F"/>
</linearGradient>
<clipPath id="clip0_467_3917">
<rect width="164" height="101" fill="white" transform="translate(299.251 15.5312)"/>
</clipPath>
<clipPath id="clip1_467_3917">
<rect width="38" height="56.4772" fill="white" transform="translate(244.251 58.5312)"/>
</clipPath>
</defs>
</svg>
