<svg width="200" height="300" viewBox="0 0 200 300" fill="none" xmlns="http://www.w3.org/2000/svg">
<g clip-path="url(#clip0_181_26071)">
<rect width="200" height="300" rx="4" fill="white"/>
<g clip-path="url(#clip1_181_26071)">
<path d="M200 -3.05176e-05H-0.000244141V300H200V-3.05176e-05Z" fill="#03BC9C"/>
<path d="M0.121892 252.867C-4.38922 263.189 5.65522 270.711 15.6108 270.4C17.0886 269.078 18.9441 268.244 20.9441 268.267C19.4997 269.744 17.633 270.344 15.6108 270.4C-1.21144 285.411 39.7108 309.244 56.4108 288.5C59.1997 294.944 55.1219 297.789 59.9108 304.144C62.7774 307.944 71.3552 311.3 75.8997 311.889C89.7886 313.7 95.133 304.689 96.4885 292.267C101.111 305.533 115.044 308.756 120.055 294.078C123.311 284.511 118.5 270.244 116.822 260.822C112.811 238.267 122.155 214.4 103.211 196.256C87.6552 181.356 62.833 181.656 46.8997 195.733C36.7441 204.7 34.1552 216.811 25.533 226.589C17.2441 235.978 5.47745 240.567 0.110781 252.867C-1.14477 255.744 3.36634 245.422 0.110781 252.867H0.121892Z" fill="#F76F63"/>
<path d="M-8.9588 247.778C38.5307 253.035 79.9158 272.927 111.111 299.726C74.0838 301.842 26.9948 301.522 -10.0002 298.845C-9.58367 282.255 -8.94278 264.383 -8.97483 247.778H-8.9588Z" fill="#F7C42B"/>
<path d="M74.3917 264.872C77.9722 255.888 75.7778 246.573 69.4902 244.067C63.2026 241.561 55.2029 246.813 51.6224 255.797C48.0418 264.781 50.2362 274.095 56.5238 276.601C62.8114 279.107 70.8111 273.855 74.3917 264.872Z" fill="#FCCBB3"/>
<g style="mix-blend-mode:multiply" opacity="0.5">
<path d="M74.3917 264.872C77.9722 255.888 75.7778 246.573 69.4902 244.067C63.2026 241.561 55.2029 246.813 51.6224 255.797C48.0418 264.781 50.2362 274.095 56.5238 276.601C62.8114 279.107 70.8111 273.855 74.3917 264.872Z" fill="#FFDCCB"/>
</g>
<path d="M59.7328 268.545C43.4662 262.056 35.5328 243.622 42.0217 227.356L49.1106 209.578C55.5995 193.311 74.0328 185.378 90.2995 191.867C106.566 198.356 114.5 216.789 108.011 233.056L100.922 250.833C94.4328 267.1 75.9995 275.033 59.7328 268.545Z" fill="#FCCBB3"/>
<path d="M28.5885 225.489C28.4329 226.422 28.244 227.344 28.2107 228.289V228.311C28.2996 229.244 28.3996 230.189 28.5885 231.111V231.133C29.2996 233.333 29.8107 234.111 31.3218 235.833C31.3218 235.833 31.3329 235.844 31.344 235.856C32.044 236.4 32.7551 236.944 33.4551 237.489C33.4663 237.5 33.4885 237.511 33.4996 237.522C34.3218 237.9 35.1551 238.289 36.0107 238.578H36.0329C36.0329 238.578 36.0329 238.578 36.044 238.578L38.8218 238.956C38.8218 238.956 38.844 238.956 38.8551 238.956C40.2885 239.011 41.6329 238.711 42.8774 238.056C44.1663 237.633 45.2885 236.911 46.2329 235.9C47.2551 234.956 47.9662 233.833 48.3885 232.544C49.044 231.3 49.344 229.967 49.2885 228.522L48.9107 225.744C48.4107 223.978 47.5218 222.444 46.2329 221.144L44.1218 219.511C42.4996 218.567 40.744 218.089 38.8551 218.089C38.844 218.089 38.8329 218.089 38.8107 218.089L41.5885 218.467C41.5885 218.467 41.5551 218.467 41.5329 218.456L44.0218 219.511C44.0218 219.511 43.9774 219.489 43.9663 219.478L46.0774 221.111C46.0774 221.111 46.044 221.078 46.0329 221.067L47.6663 223.178C47.6663 223.178 47.644 223.144 47.6329 223.122L48.6885 225.611C48.6885 225.611 48.6774 225.567 48.6663 225.544L49.044 228.322C49.044 228.322 49.044 228.289 49.044 228.267L48.6663 231.044C49.0996 229.656 49.1663 228.267 48.8551 226.889C48.7885 225.5 48.3774 224.211 47.6218 223.011C46.9663 221.8 46.0662 220.822 44.9329 220.089C43.9218 219.167 42.744 218.544 41.3885 218.222L38.6107 217.844C36.7329 217.844 34.9774 218.322 33.344 219.267L31.2329 220.9C29.944 222.2 29.044 223.733 28.5551 225.5L28.5885 225.489Z" fill="#FCCBB3"/>
<path d="M34.9885 225.922C35.1329 225.645 35.2996 225.422 35.444 225.311C35.7218 225.1 35.8996 225.011 36.1663 224.933C36.8329 224.733 37.5107 224.833 38.1774 225.056C38.744 225.245 39.2663 225.556 39.6996 226.033C39.8107 226.156 39.8107 226.156 39.9329 226.345C39.9552 226.378 40.1107 226.711 40.044 226.533C40.0663 226.589 40.1552 227.044 40.144 226.856C40.144 226.944 40.144 227.033 40.144 227.133C40.1663 227.022 40.1552 227.044 40.1218 227.2L42.0329 226.422C40.7552 225.489 38.8996 225.611 37.5885 226.422C36.8774 226.867 36.3552 227.556 36.0107 228.322C35.5552 229.333 35.3885 230.433 35.6663 231.533C36.0107 232.889 37.0107 233.9 38.1663 234.611C39.5996 235.489 40.9107 233.233 39.4774 232.356C39.1329 232.144 38.7329 231.833 38.544 231.589C38.6329 231.7 38.4552 231.456 38.4329 231.422C38.3774 231.344 38.3329 231.256 38.2885 231.178C38.2329 231.067 38.2107 230.967 38.2663 231.133C38.2329 231.033 38.1996 230.933 38.1774 230.833C38.1663 230.767 38.1552 230.7 38.1329 230.633C38.2218 230.911 38.1329 230.689 38.1329 230.578C38.1329 230.411 38.1329 230.256 38.144 230.089C38.144 230.245 38.1107 230.278 38.144 230.111C38.1663 230.033 38.1774 229.956 38.1996 229.878C38.2218 229.789 38.2552 229.7 38.2774 229.611C38.2885 229.567 38.3885 229.322 38.3107 229.511C38.2329 229.7 38.344 229.444 38.3552 229.422C38.3885 229.356 38.4218 229.3 38.4552 229.233C38.5218 229.111 38.5996 229.011 38.6663 228.889C38.7774 228.711 38.6885 228.878 38.6218 228.945C38.6663 228.9 38.7107 228.845 38.7552 228.789C38.7552 228.789 38.9663 228.578 38.9663 228.589C38.9663 228.589 38.5885 228.844 38.9663 228.611C38.9996 228.589 39.244 228.456 39.1107 228.522C39.2218 228.478 39.344 228.445 39.4552 228.411C39.4996 228.4 39.7774 228.344 39.6107 228.367C39.9107 228.322 39.9885 228.333 40.1885 228.389C40.2218 228.389 40.4774 228.489 40.344 228.433C40.4774 228.489 40.5885 228.578 40.7107 228.667C41.3774 229.156 42.4552 228.656 42.6218 227.889C43.1774 225.389 41.2218 223.378 39.0218 222.589C36.8218 221.8 33.8885 222.322 32.7218 224.6C32.3996 225.222 32.5552 226.011 33.1885 226.389C33.7663 226.733 34.6552 226.556 34.9774 225.922H34.9885Z" fill="#1D1D1B"/>
<path d="M94.1106 248.767C94.1106 248.767 94.0662 248.878 94.044 248.922C93.2773 250.122 92.8662 251.411 92.8106 252.8C92.4995 254.189 92.5662 255.578 92.9995 256.956C93.3217 258.311 93.9439 259.5 94.8662 260.5C95.5995 261.633 96.5773 262.533 97.7884 263.189L100.277 264.245C102.122 264.745 103.977 264.745 105.822 264.245L108.311 263.189C109.877 262.267 111.122 261.011 112.055 259.445C112.077 259.389 112.1 259.333 112.122 259.289C112.888 258.089 113.3 256.8 113.355 255.411C113.666 254.022 113.6 252.633 113.166 251.256C112.844 249.9 112.222 248.711 111.3 247.711C110.566 246.578 109.588 245.678 108.377 245.022L105.888 243.967C104.044 243.467 102.188 243.467 100.344 243.967L97.8551 245.022C96.2884 245.945 95.0439 247.2 94.1106 248.767Z" fill="#FCCBB3"/>
<path d="M109.566 255.289C110.455 252.745 108.644 250.222 106.377 249.2C104.333 248.278 101.688 248.367 100.344 250.4C99.9106 251.056 100.311 252.167 101.122 252.311C101.255 252.333 101.377 252.356 101.511 252.4C101.311 252.322 101.633 252.467 101.666 252.5C101.877 252.622 101.666 252.456 101.822 252.622C101.822 252.622 102.088 252.922 101.966 252.767C102.055 252.878 102.111 253 102.177 253.111C102.344 253.378 102.177 253 102.266 253.3C102.311 253.433 102.344 253.556 102.366 253.689C102.455 254.078 102.366 253.456 102.366 253.611C102.355 253.711 102.366 253.822 102.366 253.922C102.366 254.133 102.277 253.967 102.388 253.811C102.366 253.844 102.355 253.967 102.355 254C102.322 254.133 102.288 254.267 102.244 254.4C102.222 254.467 102.188 254.533 102.166 254.611C102.088 254.856 102.311 254.356 102.177 254.578C102.099 254.711 102.033 254.856 101.944 255C101.899 255.067 101.855 255.133 101.811 255.2C101.911 255.044 101.933 255.056 101.811 255.2C101.688 255.322 101.566 255.433 101.444 255.556C101.577 255.422 101.577 255.467 101.433 255.556C101.355 255.6 101.277 255.645 101.199 255.689C101.122 255.733 100.866 255.822 101.177 255.711C101.088 255.745 100.999 255.778 100.899 255.8C100.822 255.822 100.744 255.844 100.655 255.856C100.377 255.922 100.677 255.878 100.588 255.867C100.377 255.833 100.122 255.878 99.8995 255.867C99.8106 255.867 99.8217 255.867 99.9328 255.867C99.8662 255.867 99.7995 255.845 99.7439 255.833C99.5884 255.8 99.4328 255.767 99.2773 255.722C98.5995 255.544 97.8662 255.956 97.6773 256.633C97.4884 257.311 97.9106 258.056 98.5884 258.233C99.8995 258.589 101.299 258.589 102.522 257.933C103.399 257.467 104.099 256.656 104.499 255.745C104.866 254.911 105.077 254.022 104.922 253.1C104.655 251.544 103.433 250.067 101.833 249.778L102.611 251.689C102.666 251.6 102.711 251.567 102.611 251.667C102.666 251.611 102.722 251.556 102.777 251.5C102.855 251.422 102.888 251.422 102.777 251.5C102.855 251.445 102.944 251.4 103.033 251.356C102.855 251.411 103.199 251.267 103.033 251.356C103.111 251.333 103.177 251.311 103.255 251.289C103.333 251.267 103.411 251.256 103.488 251.233C103.688 251.189 103.299 251.233 103.499 251.233C103.688 251.233 103.866 251.211 104.055 251.233C104.144 251.233 104.222 251.245 104.311 251.256C104.166 251.245 104.244 251.245 104.344 251.256C104.511 251.289 104.677 251.333 104.833 251.378C104.911 251.4 104.988 251.433 105.066 251.456C105.299 251.533 105.011 251.422 105.166 251.5C105.477 251.645 105.877 251.867 106.088 252.033C106.144 252.078 106.344 252.256 106.444 252.356C106.533 252.445 106.611 252.522 106.688 252.622C106.611 252.522 106.733 252.689 106.744 252.7C106.977 253.056 107.066 253.245 107.144 253.633C107.211 253.933 107.166 254.2 107.033 254.578C106.799 255.245 107.299 256 107.944 256.178C108.666 256.378 109.311 255.933 109.544 255.267L109.566 255.289Z" fill="#1D1D1B"/>
<path d="M106.166 238.644C107.255 231.878 106.044 223.556 105.055 217.278C104.589 214.333 104.055 211.333 102.566 208.756C100.544 205.256 97.0108 202.922 93.5441 200.844C85.7108 196.156 76.4885 191.956 67.7219 194.5C64.233 195.511 61.0996 197.556 58.4441 200.022C53.0441 205.044 49.4441 211.967 48.4441 219.278L49.5663 219.722C58.7663 223.8 68.9774 228.356 80.5219 230.2C80.5219 227.189 84.5552 220.333 86.9663 218.522C88.5219 223.278 87.1774 227.511 87.2774 233.167C93.8997 236.344 98.8552 238.5 106.2 238.644" fill="#F76F63"/>
<path d="M56.6441 215.144C51.2219 218.056 48.1663 223.911 45.433 229.433C45.9774 221.456 43.4108 213.022 46.5774 205.689C49.3885 199.189 55.9997 195.3 62.1997 191.856C65.3997 190.078 68.6885 188.267 72.3219 187.822C74.6996 187.533 77.1108 187.844 79.4885 188.156C84.7774 188.844 90.133 189.556 95.0774 191.578C101.9 194.378 107.744 199.844 110.277 206.767C111.189 209.267 111.666 211.889 112.144 214.511C113.155 220.078 114.166 225.644 115.177 231.2C115.555 233.256 115.922 235.389 115.322 237.389C114.611 239.778 112.577 241.6 110.311 242.656C108.044 243.711 105.544 244.1 103.077 244.489C104.033 240.044 105 235.5 104.4 230.989C103.8 226.489 101.322 221.956 97.1441 220.167C95.0885 219.289 92.7219 219.1 90.8552 217.867C90.6219 217.711 90.3885 217.533 90.2885 217.267C90.1108 216.8 90.3997 216.3 90.5663 215.833C91.4108 213.533 89.1997 211.189 86.8997 210.344C80.8774 208.122 74.3885 211.433 68.0552 212.411C64.5441 212.944 60.7663 212.811 57.7108 214.622" fill="#F76F63"/>
<g style="mix-blend-mode:multiply" opacity="0.4">
<path d="M77.2105 252.778C76.8883 254.778 79.9549 257.044 84.0661 257.844C88.1661 258.656 91.7549 257.689 92.0772 255.689C92.3994 253.689 89.3327 251.422 85.2216 250.622C81.1216 249.811 77.5327 250.778 77.2105 252.778Z" fill="#FCCBB3"/>
</g>
<path d="M83.5995 251.978C84.9883 252.533 86.7106 251.467 87.455 249.589C88.1995 247.722 87.6772 245.756 86.2995 245.2C84.9106 244.644 83.1883 245.711 82.4439 247.589C81.6994 249.467 82.2217 251.422 83.5995 251.978Z" fill="#1D1D1B"/>
<path d="M91.4883 242.878C92.1328 241.033 90.6772 239.1 89.1883 238.167C87.6995 237.233 85.6217 237.067 84.2106 238.156C83.8995 238.389 83.655 238.622 83.5439 239.011C83.4439 239.356 83.4883 239.811 83.6883 240.122C83.8883 240.433 84.1772 240.7 84.5439 240.789C84.9106 240.878 85.355 240.878 85.655 240.644C85.7328 240.578 85.8217 240.522 85.9106 240.467C85.955 240.444 85.9995 240.422 86.0439 240.389C86.255 240.267 85.7883 240.478 85.955 240.422C86.1772 240.356 86.3883 240.3 86.6106 240.267L86.2328 240.322C86.4995 240.289 86.7772 240.3 87.0439 240.322L86.6661 240.267C86.8439 240.289 87.0106 240.333 87.1883 240.378C87.2661 240.4 87.3439 240.433 87.4217 240.456C87.555 240.5 87.0883 240.3 87.3772 240.444C87.5328 240.522 87.6883 240.611 87.8328 240.711C87.9328 240.778 88.0661 240.956 87.8106 240.678C87.8661 240.733 87.9439 240.778 87.9995 240.833C88.1217 240.944 88.2328 241.056 88.3439 241.178C88.3995 241.233 88.4439 241.3 88.4995 241.367C88.2217 241.067 88.4106 241.245 88.4661 241.345C88.5106 241.411 88.555 241.489 88.5995 241.567C88.6328 241.622 88.6661 241.756 88.7217 241.8C88.6328 241.589 88.6217 241.544 88.6772 241.689C88.6883 241.733 88.6995 241.767 88.7106 241.811C88.7328 241.9 88.755 242 88.7772 242.089L88.7217 241.711C88.7439 241.867 88.7439 242.022 88.7217 242.189L88.7772 241.811C88.755 241.922 88.7328 242.022 88.6995 242.122C88.455 242.833 88.9772 243.733 89.7106 243.889C90.5106 244.067 91.2217 243.644 91.4772 242.878H91.4883Z" fill="#F76F63"/>
<g style="mix-blend-mode:multiply" opacity="0.4">
<path d="M57.8884 245.078C56.7439 246.744 52.9551 246.278 49.4328 244.044C45.8995 241.8 43.9551 238.633 45.0995 236.967C46.2439 235.3 50.0328 235.767 53.5551 238C57.0884 240.244 59.0328 243.411 57.8884 245.078Z" fill="#FCCBB3"/>
</g>
<path d="M53.7994 240.1C52.4105 239.544 51.8994 237.589 52.6439 235.711C53.3883 233.844 55.1105 232.778 56.4994 233.322C57.8883 233.878 58.3994 235.833 57.655 237.711C56.9105 239.589 55.1883 240.644 53.7994 240.1Z" fill="#1D1D1B"/>
<path d="M56.8439 229.467C56.8772 229.4 56.9106 229.344 56.9328 229.278C56.9883 229.133 56.7439 229.478 56.855 229.367C56.8995 229.322 56.955 229.267 56.9995 229.222C57.1439 229.067 56.9439 229.3 56.9106 229.289C56.955 229.289 57.1883 229.122 57.255 229.1C57.4106 229.022 56.955 229.2 57.1995 229.133C57.255 229.111 57.3106 229.1 57.3661 229.078C57.4995 229.044 57.6328 229.022 57.7661 228.989C57.9439 228.956 57.455 229.011 57.7217 228.989C57.7883 228.989 57.855 228.989 57.9217 228.978C58.0883 228.978 58.255 228.978 58.4217 228.978C58.6439 228.978 58.3661 228.944 58.3328 228.956C58.3772 228.933 58.5328 228.989 58.5772 229C58.7217 229.033 58.8661 229.067 59.0106 229.122C59.0661 229.144 59.1439 229.189 59.1995 229.189C59.055 229.178 58.9772 229.089 59.1772 229.189C59.2995 229.256 59.4106 229.333 59.5328 229.4C59.7217 229.522 59.4439 229.367 59.455 229.333C59.455 229.344 59.6106 229.467 59.6217 229.478C59.6772 229.533 59.8328 229.767 59.8884 229.767C59.8439 229.767 59.7106 229.511 59.8217 229.689C59.855 229.756 59.8995 229.811 59.9328 229.878C59.9661 229.933 59.9884 229.978 60.0106 230.033C60.0995 230.189 59.9106 229.722 59.9772 229.967C60.0217 230.1 60.055 230.233 60.0772 230.378C60.1328 230.711 60.455 231.078 60.7439 231.233C61.055 231.411 61.5106 231.489 61.855 231.378C62.6661 231.111 62.9884 230.4 62.8661 229.611C62.5884 227.867 60.9217 226.5 59.255 226.189C58.355 226.022 57.3995 226.011 56.5217 226.289C55.6439 226.567 54.755 227.111 54.3661 227.978C54.1995 228.344 54.1106 228.689 54.2217 229.089C54.3106 229.422 54.5772 229.789 54.8884 229.944C55.5217 230.278 56.5328 230.156 56.855 229.422L56.8439 229.467Z" fill="#F76F63"/>
<path d="M58.3995 255.211C57.1106 265.311 72.1661 264.844 73.6883 256.222C68.5995 255.733 63.5106 255.389 58.3995 255.211Z" fill="#DFFFF9"/>
<path d="M50.7441 246.356C45.4107 244.233 42.8107 238.189 44.9441 232.856L47.1107 227.433L66.4218 235.133L64.2552 240.556C62.133 245.889 56.0885 248.489 50.7552 246.356H50.7441Z" stroke="#58D7DE" stroke-width="2.12" stroke-linejoin="round"/>
<path d="M78.5663 257.444C73.233 255.322 70.633 249.278 72.7663 243.944L74.933 238.522L94.2441 246.222L92.0774 251.644C89.9552 256.978 83.9108 259.578 78.5774 257.444H78.5663Z" stroke="#58D7DE" stroke-width="2.12" stroke-linejoin="round"/>
<path d="M94.4219 247.7C97.7107 246.444 101.122 245.567 104.6 245.067C105.355 244.956 105.766 244 105.577 243.344C105.355 242.533 104.6 242.256 103.855 242.367C100.377 242.867 96.9663 243.744 93.6774 245C92.9663 245.267 92.4774 245.944 92.6996 246.722C92.8885 247.4 93.7107 247.978 94.4219 247.7Z" fill="#58D7DE"/>
<path d="M48.644 226.833C47.8663 224.544 47.0774 222.244 46.2996 219.956C46.0663 219.267 45.3218 218.733 44.5774 218.978C43.8885 219.2 43.344 219.956 43.5996 220.7C44.3774 222.989 45.1663 225.289 45.944 227.578C46.1774 228.267 46.9218 228.8 47.6663 228.556C48.3552 228.333 48.8996 227.578 48.644 226.833Z" fill="#58D7DE"/>
<path d="M65.9106 236.789C66.6995 237.022 67.4884 237.278 68.2662 237.567C68.5995 237.689 68.9328 237.822 69.2661 237.944C69.4217 238 69.5661 238.067 69.7106 238.122C69.7884 238.156 69.855 238.178 69.9328 238.211C69.9884 238.233 70.255 238.344 69.9884 238.233C71.4773 238.867 72.9439 239.522 74.4439 240.111C75.1328 240.389 76.0106 239.811 76.1662 239.133C76.355 238.322 75.9217 237.7 75.1884 237.411C74.7773 237.244 74.3773 237.078 73.9662 236.911C73.9439 236.911 73.6995 236.8 73.7995 236.844C73.8995 236.889 73.6662 236.789 73.6439 236.778C73.455 236.7 73.2773 236.622 73.0884 236.544C72.3773 236.233 71.655 235.922 70.9439 235.622C69.5328 235.033 68.1106 234.511 66.6439 234.078C65.9439 233.867 65.0884 234.333 64.9217 235.056C64.755 235.778 65.1439 236.556 65.8995 236.778L65.9106 236.789Z" fill="#58D7DE"/>
<path d="M67.1553 238.422C66.2775 240.556 65.4219 242.7 64.5664 244.844C63.633 244.267 62.333 244.356 61.4775 245.044C60.5108 245.822 60.233 247.422 61.0442 248.356C61.6997 249.111 62.9441 249.267 63.7664 248.689" stroke="#1D1D1B" stroke-width="1.52" stroke-linecap="round" stroke-linejoin="round"/>
<path d="M-4.69775 31.0899C-2.84014 71.8621 20.2252 111.074 54.9482 132.508C73.6672 144.071 95.7085 150.62 117.69 149.584C142.839 148.405 167.369 137.045 184.54 118.636C201.711 100.226 211.345 74.97 210.773 49.797L210.797 -31.9975H-4.69775V31.078V31.0899Z" fill="#DFFFF9"/>
<path d="M-4.69795 33.3047C2.0824 33.3047 7.57896 27.8082 7.57896 21.0278C7.57896 14.2475 2.0824 8.75092 -4.69795 8.75092C-11.4783 8.75092 -16.9749 14.2475 -16.9749 21.0278C-16.9749 27.8082 -11.4783 33.3047 -4.69795 33.3047Z" fill="#DFFFF9"/>
<path d="M0.125758 3.91423C6.51669 1.24739 9.53567 -6.09539 6.86884 -12.4863C4.202 -18.8773 -3.14077 -21.8962 -9.53171 -19.2294C-15.9226 -16.5626 -18.9416 -9.21979 -16.2748 -2.82886C-13.6079 3.56208 -6.26518 6.58106 0.125758 3.91423Z" fill="#DFFFF9"/>
<path d="M218.858 -5.53514C223.304 -9.9808 223.304 -17.1886 218.858 -21.6343C214.413 -26.08 207.205 -26.08 202.759 -21.6343C198.313 -17.1886 198.313 -9.9808 202.759 -5.53514C207.205 -1.08948 214.413 -1.08948 218.858 -5.53514Z" fill="#DFFFF9"/>
<path d="M210.797 26.3626C217.012 26.3626 222.05 21.3245 222.05 15.1097C222.05 8.89494 217.012 3.85687 210.797 3.85687C204.582 3.85687 199.544 8.89494 199.544 15.1097C199.544 21.3245 204.582 26.3626 210.797 26.3626Z" fill="#DFFFF9"/>
<path d="M210.785 60.7997C220.17 60.7997 227.778 53.192 227.778 43.8073C227.778 34.4227 220.17 26.8149 210.785 26.8149C201.4 26.8149 193.793 34.4227 193.793 43.8073C193.793 53.192 201.4 60.7997 210.785 60.7997Z" fill="#DFFFF9"/>
<path d="M221.454 75.4803C223.174 68.2305 218.692 60.9587 211.442 59.2382C204.192 57.5178 196.92 62.0002 195.2 69.25C193.479 76.4998 197.962 83.7716 205.212 85.4921C212.461 87.2125 219.733 82.7301 221.454 75.4803Z" fill="#DFFFF9"/>
<path d="M208.792 100.84C209.719 95.1078 205.824 89.7088 200.092 88.7814C194.359 87.854 188.96 91.7492 188.033 97.4817C187.105 103.214 191.001 108.613 196.733 109.541C202.466 110.468 207.865 106.573 208.792 100.84Z" fill="#DFFFF9"/>
<path d="M180.849 143.916C193.127 143.916 203.081 133.963 203.081 121.684C203.081 109.406 193.127 99.4525 180.849 99.4525C168.57 99.4525 158.617 109.406 158.617 121.684C158.617 133.963 168.57 143.916 180.849 143.916Z" fill="#DFFFF9"/>
<path d="M157.557 160.182C169.75 160.182 179.634 150.298 179.634 138.105C179.634 125.912 169.75 116.028 157.557 116.028C145.365 116.028 135.48 125.912 135.48 138.105C135.48 150.298 145.365 160.182 157.557 160.182Z" fill="#DFFFF9"/>
<path d="M130.61 159.598C137.423 159.598 142.946 154.075 142.946 147.262C142.946 140.449 137.423 134.926 130.61 134.926C123.797 134.926 118.273 140.449 118.273 147.262C118.273 154.075 123.797 159.598 130.61 159.598Z" fill="#DFFFF9"/>
<path d="M119.036 150.52C120.549 141.238 114.251 132.487 104.97 130.973C95.6879 129.46 86.9367 135.758 85.4234 145.04C83.9101 154.321 90.2077 163.072 99.4895 164.586C108.771 166.099 117.523 159.801 119.036 150.52Z" fill="#DFFFF9"/>
<path d="M74.6198 156.3C82.9851 156.3 89.7665 149.519 89.7665 141.153C89.7665 132.788 82.9851 126.007 74.6198 126.007C66.2545 126.007 59.4731 132.788 59.4731 141.153C59.4731 149.519 66.2545 156.3 74.6198 156.3Z" fill="#DFFFF9"/>
<path d="M49.3516 145.178C58.848 145.178 66.5464 137.48 66.5464 127.983C66.5464 118.487 58.848 110.789 49.3516 110.789C39.8551 110.789 32.1567 118.487 32.1567 127.983C32.1567 137.48 39.8551 145.178 49.3516 145.178Z" fill="#DFFFF9"/>
<path d="M27.9652 132.008C40.6512 132.008 50.9353 121.724 50.9353 109.038C50.9353 96.352 40.6512 86.068 27.9652 86.068C15.2792 86.068 4.99512 96.352 4.99512 109.038C4.99512 121.724 15.2792 132.008 27.9652 132.008Z" fill="#DFFFF9"/>
<path d="M11.3537 98.9879C18.6668 98.9879 24.5952 93.0595 24.5952 85.7465C24.5952 78.4335 18.6668 72.5051 11.3537 72.5051C4.0407 72.5051 -1.8877 78.4335 -1.8877 85.7465C-1.8877 93.0595 4.0407 98.9879 11.3537 98.9879Z" fill="#DFFFF9"/>
<path d="M0.219873 81.4241C12.4061 81.4241 22.285 71.5452 22.285 59.359C22.285 47.1728 12.4061 37.2939 0.219873 37.2939C-11.9663 37.2939 -21.8452 47.1728 -21.8452 59.359C-21.8452 71.5452 -11.9663 81.4241 0.219873 81.4241Z" fill="#DFFFF9"/>
<path d="M-4.69784 49.7259C5.59434 49.7259 13.9378 41.3824 13.9378 31.0902C13.9378 20.798 5.59434 12.4546 -4.69784 12.4546C-14.99 12.4546 -23.3335 20.798 -23.3335 31.0902C-23.3335 41.3824 -14.99 49.7259 -4.69784 49.7259Z" fill="#DFFFF9"/>
<path d="M157.486 190.035C159.272 190.106 160.951 189.725 162.499 188.915C164.107 188.391 165.512 187.498 166.691 186.224C167.965 185.045 168.858 183.652 169.382 182.033C170.191 180.485 170.573 178.818 170.501 177.02L170.037 173.566C169.417 171.363 168.298 169.446 166.691 167.827L164.059 165.791C162.035 164.612 159.844 164.016 157.498 164.016C155.712 163.945 154.033 164.326 152.485 165.136C150.877 165.66 149.472 166.553 148.293 167.827C147.019 169.006 146.126 170.399 145.602 172.018C144.792 173.566 144.411 175.233 144.483 177.031L144.947 180.485C145.566 182.688 146.686 184.605 148.293 186.224L150.925 188.26C152.949 189.439 155.14 190.035 157.486 190.035Z" fill="#DFFFF9"/>
<path d="M144.745 210.338C156.938 210.338 156.962 191.392 144.745 191.392C132.527 191.392 132.527 210.338 144.745 210.338Z" fill="#DFFFF9"/>
<path d="M129.11 219.221C134.147 219.221 134.147 211.397 129.11 211.397C124.073 211.397 124.073 219.221 129.11 219.221Z" fill="#DFFFF9"/>
<path d="M50.5613 158.884C51.3996 158.922 52.1796 158.732 52.9131 158.312C53.6699 158.045 54.322 157.587 54.8808 156.939C55.4746 156.341 55.8938 155.617 56.1383 154.79C56.5225 154.002 56.6971 153.138 56.6622 152.222L56.441 150.455C56.1499 149.324 55.626 148.345 54.8692 147.518L53.635 146.476C52.6803 145.878 51.6557 145.573 50.5496 145.56C49.7113 145.522 48.9312 145.713 48.1977 146.132C47.4409 146.399 46.7889 146.857 46.2301 147.505C45.6363 148.103 45.2171 148.828 44.9726 149.654C44.5884 150.442 44.4138 151.307 44.4487 152.222L44.6699 153.989C44.961 155.121 45.4849 156.1 46.2417 156.926L47.4759 157.969C48.4306 158.566 49.4552 158.871 50.5613 158.884Z" fill="#F7C42B"/>
<path d="M30.5574 115.556C34.253 115.556 34.2638 108.889 30.5574 108.889C26.851 108.889 26.851 115.556 30.5574 115.556Z" fill="#F7C42B"/>
<path d="M176.279 241.22L176.455 241.316C177.396 241.92 178.415 242.222 179.51 242.222C180.605 242.222 181.624 241.92 182.566 241.316C184.406 240.133 185.555 237.911 185.555 235.556C185.555 233.201 184.395 230.99 182.566 229.795C181.624 229.191 180.605 228.889 179.51 228.889C178.415 228.889 177.396 229.191 176.455 229.795L176.279 229.891C175.381 230.471 174.669 231.256 174.144 232.246C173.607 233.273 173.333 234.372 173.333 235.556C173.333 236.739 173.607 237.838 174.144 238.865C174.669 239.855 175.381 240.64 176.279 241.22Z" fill="#F7C42B"/>
<path d="M156.688 33.0126L156.878 33.2415C157.207 33.6421 157.6 33.9282 158.044 34.0856C158.475 34.3431 158.944 34.4575 159.438 34.4432L160.401 34.3001C161.01 34.0999 161.542 33.7565 161.998 33.2558L162.188 33.0269L162.797 32.14L163.19 31.0957C163.354 30.5092 163.38 29.9369 163.253 29.3504C163.253 28.9498 163.164 28.5922 162.987 28.2489C162.898 27.8769 162.733 27.5622 162.493 27.2761C162.315 26.9471 162.087 26.6896 161.795 26.4893C161.555 26.2175 161.263 26.0315 160.934 25.9314C160.477 25.6596 159.97 25.5308 159.438 25.5594L158.411 25.7168L157.486 26.1603L156.7 26.8469L156.092 27.7339L155.699 28.7782C155.534 29.3647 155.509 29.9369 155.636 30.5235C155.636 30.924 155.724 31.2817 155.902 31.625C156.054 32.1686 156.32 32.6407 156.7 33.0413L156.688 33.0126Z" fill="#F7C42B"/>
<path d="M166.667 266.667C171.111 266.667 171.111 261.111 166.667 261.111C162.222 261.111 162.222 266.667 166.667 266.667Z" fill="#F7C42B"/>
<path d="M148.891 128.889C151.846 128.889 151.856 123.333 148.891 123.333C145.925 123.333 145.925 128.889 148.891 128.889Z" fill="#F76F63"/>
<path d="M152.222 245.556C155.185 245.556 155.185 241.111 152.222 241.111C149.259 241.111 149.259 245.556 152.222 245.556Z" fill="#F76F63"/>
<path d="M13.0594 188.462L13.2711 188.552C14.3153 189.001 15.7124 189.001 16.7566 188.552L16.9683 188.462C17.4199 188.292 17.7867 188.052 18.0549 187.752C18.2948 187.582 18.4641 187.382 18.5488 187.142C18.7887 186.812 18.9016 186.463 18.8874 186.083L18.7463 185.353L18.3512 184.693C18.1113 184.374 17.7726 184.114 17.3493 183.924C17.1094 183.754 16.8272 183.634 16.4885 183.574C16.0228 183.404 15.5289 183.324 14.9927 183.334L13.9625 183.434L13.0312 183.714C12.5796 183.884 12.2127 184.124 11.9446 184.424C11.7047 184.594 11.5354 184.793 11.4507 185.033C11.2108 185.363 11.0979 185.713 11.112 186.093L11.2531 186.822L11.6483 187.482C11.9869 187.892 12.4526 188.222 13.0453 188.472L13.0594 188.462Z" fill="#F76F63"/>
<path d="M151.56 187.244C160.048 192.857 168.969 182.923 168.888 175.175C168.888 174.433 167.82 174.165 167.415 174.804C165.685 177.489 164.59 180.749 162.279 183.051C159.697 185.608 155.912 186.81 152.344 185.48C151.195 185.045 150.668 186.669 151.56 187.244Z" fill="#1D1D1B"/>
<path d="M142.578 209.477C143.98 210.505 145.595 209.999 146.658 208.123C147.654 206.362 148.35 203.279 147.122 201.371C146.832 200.914 146.272 201.061 146.175 201.795C146.011 203.149 145.895 204.601 145.353 205.693C144.812 206.786 143.99 207.683 143.11 207.357C142.395 207.096 141.824 208.923 142.578 209.477Z" fill="#1D1D1B"/>
<path d="M43.0392 140.764C36.4601 135.241 34.4346 129.359 33.9031 121.803C33.8456 120.967 32.5671 120.871 32.208 121.612C28.7317 129 33.9462 138.242 41.8038 142.103C42.8094 142.593 43.858 141.457 43.0392 140.764Z" fill="#1D1D1B"/>
<path d="M120.044 151.253C122.506 159.442 136.323 162.278 139.904 153.549C140.28 152.616 139.491 151.658 138.561 152.149C135.687 153.635 133.107 155.526 129.726 155.219C126.346 154.912 123.943 152.702 121.658 150.283C120.998 149.583 119.749 150.283 120.044 151.265V151.253Z" fill="#1D1D1B"/>
<path d="M170.488 120.463C179.597 123.838 185.841 113.321 185.545 105.274C185.511 104.254 184.237 104.172 183.885 105.042C181.406 111.164 178.847 119.768 170.67 119.06C169.84 118.991 169.783 120.208 170.488 120.463Z" fill="#1D1D1B"/>
<path d="M24.7397 77.6626C13.4651 77.928 9.67531 68.4345 8.51469 58.6274C8.4081 57.7709 7.02246 57.3487 6.85666 58.3982C5.34075 68.5189 13.0269 83.308 24.9647 79.3393C25.8411 79.0498 25.7227 77.6385 24.7397 77.6505V77.6626Z" fill="#1D1D1B"/>
</g>
<path d="M97.8002 67.2111C96.0669 67.2111 95.0447 66.2778 95.0002 64.6333C95.0002 62.9889 96.1114 61.8778 97.7558 61.8778H102.111V49.2111C102.111 47.4333 103.267 46.3667 105.045 46.3667C106.956 46.3667 108.111 47.4333 108.111 49.2111V61.7445C112.022 61.4778 115.134 61.0778 117.445 60.5889C117.8 60.5 118.111 60.4556 118.422 60.4556C120.022 60.4556 120.911 61.5222 120.911 63.1222C120.911 64.4111 120.2 65.4333 118.822 65.7445C115.045 66.5889 108.6 67.2111 104.334 67.2111H97.8002ZM96.8669 35.8778C96.8669 34.2333 97.8891 33.2111 99.6225 33.2111H115.045C117.178 33.2111 118.689 34.7222 118.689 36.9889C118.689 44.8556 118.422 48.5 117.311 52.5889C116.956 53.7889 115.934 54.5 114.689 54.5C114.422 54.5 114.022 54.4111 113.534 54.2778C112.422 53.8778 111.845 53.0333 111.845 51.7445L111.934 50.8111C112.689 46.9445 112.867 44.5889 112.867 39.0333C112.867 38.6778 112.689 38.5 112.334 38.5H99.6225C97.8891 38.5 96.8669 37.5222 96.8669 35.8778ZM122.911 71.2556V34.0111C122.911 32.3667 124.067 31.3445 125.8 31.3445H126.022C127.756 31.3445 128.911 32.3667 128.911 34.0111V45.7889H132.245C133.978 45.7889 135 46.8111 135 48.4556C135 50.1 133.978 51.1222 132.245 51.1222H128.911V71.2556C128.911 72.9 127.756 73.9222 126.022 73.9222H125.8C124.067 73.9222 122.911 72.9 122.911 71.2556Z" fill="#333333"/>
<path d="M76.2586 74.3222C73.103 74.3222 70.5252 74.1445 68.6141 73.7445C64.5252 72.9889 62.4808 70.9445 62.4808 67.6556V65.3889C62.4808 63.2556 63.9919 61.7445 66.1252 61.7445H83.0141C83.2364 61.7445 83.3697 61.6111 83.3697 61.3445V59.7889C83.3697 59.5667 83.2808 59.4778 83.103 59.4778H65.0586C63.3252 59.4778 62.303 58.4556 62.303 56.8111C62.303 55.1667 63.3252 54.1445 65.0586 54.1445H85.4141C87.5475 54.1445 89.0586 55.7 89.0586 57.8778V63.1667C89.0586 65.1667 87.6808 66.5445 85.7252 66.5445H68.6586C68.3475 66.5445 68.1697 66.6778 68.1697 66.9889V67.6111C68.1697 68.1889 68.7475 68.5889 69.903 68.7222C71.0586 68.9 73.103 68.9889 75.9919 68.9889C79.7697 68.9889 83.8586 68.6778 86.4808 68.1C86.7919 68.0556 87.0586 68.0111 87.3252 68.0111C88.5697 68.0111 89.503 68.8111 89.7252 70.1C89.7697 70.1889 89.7697 70.3667 89.7697 70.6778C89.7697 71.9222 88.8808 72.9 87.4586 73.2111C84.6141 73.8778 79.503 74.3222 76.2586 74.3222ZM55.1475 50.1889C55.1475 49.2556 55.5475 48.5445 56.3919 48.0556C61.8586 44.6333 64.6141 40.6333 64.6141 36.1V35.2556C64.6141 33.4778 65.6363 32.4111 67.5475 32.4111C69.2808 32.4111 70.3919 33.4778 70.3919 35.2556V36.1C70.3919 37.3 70.2141 38.5889 69.903 39.9667C73.6808 42.3222 76.703 44.7222 78.9252 47.1667C79.503 47.8333 79.7697 48.5 79.7697 49.2111C79.7697 50.0556 79.4586 50.7667 78.7919 51.3445C78.2141 51.8333 77.6364 52.0556 76.9697 52.0556C76.1252 52.0556 75.4141 51.7445 74.7475 51.0778C72.4808 48.8111 70.0808 46.9 67.503 45.2556C65.5919 48.1445 62.8363 50.7222 59.6808 52.5C59.103 52.8111 58.4808 52.9889 57.903 52.9889C57.103 52.9889 56.3919 52.6333 55.8141 51.9667C55.3697 51.3889 55.1475 50.7667 55.1475 50.1889ZM83.3697 49.4778V34.0111C83.3697 32.3667 84.5252 31.3445 86.2586 31.3445H86.4808C88.2141 31.3445 89.3697 32.3667 89.3697 34.0111V49.4778C89.3697 51.1222 88.2141 52.1445 86.4808 52.1445H86.2586C84.5252 52.1445 83.3697 51.1222 83.3697 49.4778Z" fill="#333333"/>
</g>
<rect x="0.5" y="0.5" width="199" height="299" rx="3.5" stroke="#DDDDDD"/>
<defs>
<clipPath id="clip0_181_26071">
<rect width="200" height="300" rx="4" fill="white"/>
</clipPath>
<clipPath id="clip1_181_26071">
<rect width="234.311" height="342.111" fill="white" transform="translate(-16.6667 -21.1111)"/>
</clipPath>
</defs>
</svg>
