<svg width="117" height="123" viewBox="0 0 117 123" fill="none" xmlns="http://www.w3.org/2000/svg">
<g clip-path="url(#clip0_1650_1658)">
<path d="M95.3204 62.1891C95.4928 60.6342 95.5502 59.0793 95.4928 57.5244C95.4353 56.1423 95.263 54.7601 95.0332 53.4356C95.0907 52.9173 95.0907 52.3414 95.0907 51.8231C95.1481 48.7708 94.746 45.661 93.8844 42.6664C93.4824 41.1691 92.908 39.7293 92.2761 38.3472C91.7017 37.0226 91.0124 35.6981 90.2083 34.4887C88.6574 31.9548 86.647 29.7088 84.3494 27.8083C83.2006 26.8293 81.9944 25.9655 80.6732 25.1592C79.3521 24.353 77.9736 23.7195 76.4801 23.1436C74.0102 22.1646 71.3679 21.7615 68.6683 21.7615C68.2662 21.7615 67.9215 21.7615 67.5195 21.7615C66.026 21.8191 64.59 21.9918 63.154 22.3374C61.1436 22.1646 59.0758 22.2222 57.1228 22.4525C55.5719 22.6253 54.0211 22.9133 52.4702 23.374C50.9193 23.7771 49.4259 24.353 47.9324 24.9865C45.1753 26.1383 42.5331 27.6356 40.0631 29.3633C37.5932 31.0909 35.2382 33.1066 33.1703 35.3525C33.0555 35.4677 32.9406 35.6405 32.7683 35.7557C32.5959 35.9284 32.4811 36.0436 32.3087 36.2164C31.2174 37.3106 30.2409 38.52 29.3219 39.7293C28.4603 40.8811 27.6561 42.0905 26.9094 43.3575C25.3585 46.0066 24.0948 48.8284 23.1758 51.7655C22.1993 54.7025 21.6249 57.6972 21.3951 60.807C21.2228 63.1106 21.3377 65.4141 21.5675 67.6601C21.3377 69.215 21.2228 70.7699 21.2803 72.3248C21.3377 73.8222 21.51 75.2619 21.7972 76.7016C22.0844 78.0838 22.4865 79.4659 23.0035 80.7329C23.5204 82.0574 24.2097 83.382 25.0713 84.5338C25.9329 85.7431 26.9668 86.8949 28.0582 87.9315C29.1495 88.9682 30.3558 89.8896 31.6195 90.6382C32.8831 91.4445 34.2617 92.0204 35.6403 92.4811C35.87 92.5387 36.0998 92.6539 36.3295 92.7115C37.0188 93.2298 37.7655 93.6905 38.5123 94.0936C39.7759 94.8423 41.1545 95.4181 42.5331 95.9364C45.2327 96.9731 48.0473 97.6641 50.8619 98.0673C53.9062 98.528 57.0079 98.528 60.1097 98.24C61.6606 98.0672 63.2115 97.8369 64.7049 97.4914C65.624 97.261 66.4855 97.0307 67.4046 96.7427C67.8067 96.6851 68.2662 96.6275 68.6683 96.5699C70.1043 96.3396 71.5403 95.9364 72.9188 95.3606C74.3548 94.7847 75.7334 94.0936 77.0545 93.2873C78.3756 92.4811 79.5819 91.5021 80.7307 90.5231C83.0283 88.565 85.0387 86.2615 86.7619 83.7851C88.5425 81.3088 90.036 78.6597 91.2996 75.953C92.6208 73.0735 93.7696 70.0789 94.4588 66.9691C94.9184 65.4141 95.1481 63.8016 95.3204 62.1891ZM26.2775 67.4874C26.1627 66.6235 26.1052 65.7597 26.0478 64.8382C26.0478 64.6655 26.1052 64.4351 26.1052 64.2624C26.1052 64.0896 26.1627 63.9744 26.1627 63.8016C26.2201 64.4351 26.2775 65.1262 26.3924 65.7597C26.3924 65.9324 26.4499 66.1052 26.5073 66.278C26.3924 66.6811 26.335 67.0842 26.2775 67.4874ZM30.0686 56.5454C29.6665 57.2365 29.2644 57.9275 28.9198 58.6762C29.0347 57.9851 29.1495 57.3516 29.2644 56.6606C29.3793 56.4878 29.4942 56.315 29.6091 56.1423C29.8388 55.9119 30.0686 55.6816 30.2409 55.3936C30.1835 55.8543 30.126 56.1999 30.0686 56.5454ZM56.3761 27.9235C56.6059 27.9235 56.8356 27.8659 57.0079 27.8659C56.3761 28.0963 55.8017 28.3267 55.1699 28.557C55.6294 28.3267 56.0315 28.0963 56.3761 27.9235ZM39.4313 72.8432L39.4887 72.9007C39.6036 73.3615 39.7185 73.7646 39.8334 74.2253C39.8908 74.5132 40.0057 74.8012 40.1206 75.0315C40.178 75.2043 40.2355 75.4347 40.2929 75.6074C39.7185 74.686 39.259 73.707 38.7995 72.728C38.6271 72.3249 38.4548 71.9217 38.3399 71.5186C38.6846 71.9793 39.0292 72.44 39.4313 72.8432ZM35.7551 37.7713C35.4679 37.9441 35.1807 38.1168 34.951 38.2896C35.1233 38.1168 35.2382 37.9441 35.4105 37.7713C35.9849 37.1954 36.6167 36.6195 37.2486 36.0436C36.7316 36.6195 36.2721 37.1954 35.7551 37.7713ZM41.0971 90.4655C41.0396 90.4655 40.9247 90.4655 40.8673 90.4079C39.6611 89.832 38.5697 89.1409 37.5358 88.3923C37.0763 88.0467 36.6167 87.6436 36.2147 87.2405C36.4444 87.2405 36.7316 87.2981 36.9614 87.2981C37.306 87.2981 37.7081 87.3557 38.0527 87.3557C38.1102 87.4132 38.1676 87.4708 38.1676 87.5284C38.3974 87.8164 38.6271 88.0467 38.8569 88.2771C39.3739 88.7954 40.0631 89.1985 40.7524 89.4865C41.2119 89.6592 41.6715 89.832 42.131 89.9472C42.1884 90.0048 42.3033 90.0623 42.3607 90.1199C42.6479 90.2927 42.9351 90.4655 43.2223 90.5806C42.5331 90.6382 41.7863 90.5231 41.0971 90.4655ZM46.6687 31.4941C46.5539 31.4941 46.4964 31.4941 46.3815 31.4941C46.2092 31.4941 45.9795 31.4941 45.8071 31.4941C45.8071 31.3789 45.8071 31.3213 45.8646 31.2061C45.8646 31.0909 45.8646 30.9182 45.8071 30.803C45.922 30.7454 46.0943 30.6878 46.2092 30.6302C47.0708 30.2847 47.9899 29.9391 48.8515 29.6512C48.1047 30.1695 47.358 30.803 46.6687 31.4941ZM53.4467 85.6856C53.3318 85.7431 53.2169 85.8007 53.1595 85.8007C52.9871 85.8583 52.8148 85.9159 52.6425 85.9735C52.0107 85.8583 51.4363 85.6856 50.8044 85.5704C50.5172 85.3976 50.1726 85.2248 49.8854 85.0521C50.0003 84.9369 50.1726 84.7641 50.2875 84.649C50.4598 84.4762 50.6321 84.2458 50.8044 84.0731C51.2639 84.3034 51.7809 84.4762 52.2979 84.5914C52.7574 84.9369 53.2169 85.2824 53.6764 85.5704C53.5615 85.628 53.5041 85.6856 53.4467 85.6856ZM54.3657 95.9364C55.3422 95.8213 56.3761 95.6485 57.3526 95.4182C57.8695 95.5909 58.3865 95.7061 58.9035 95.8789C57.3526 95.994 55.8591 95.994 54.3657 95.9364ZM61.0287 30.1695C60.9713 30.1695 60.9139 30.2271 60.9139 30.2271C60.8564 30.2271 60.7416 30.2271 60.6841 30.1695C60.6267 30.1695 60.5692 30.1695 60.5118 30.1695C60.799 30.0543 61.0862 29.9967 61.4308 29.8816C61.2585 29.9967 61.1436 30.1119 61.0287 30.1695ZM64.6475 57.4092C64.7623 57.4092 64.8198 57.4092 64.9347 57.3516L64.9921 57.4092C64.6475 57.4092 64.2454 57.4668 63.9007 57.4668C64.188 57.5244 64.4177 57.4668 64.6475 57.4092ZM64.7623 81.0784C64.8198 81.0208 64.8772 80.9632 64.9347 80.9057C64.9921 80.9632 65.107 80.9632 65.1644 81.0208C65.2219 81.0208 65.2793 81.0784 65.3368 81.0784C65.1644 81.0784 64.9347 81.0784 64.7623 81.0784ZM69.4724 33.8552C69.5299 33.8552 69.5299 33.8552 69.4724 33.8552C69.4724 33.9128 69.5299 33.8552 69.4724 33.8552C69.4724 33.9128 69.4724 33.9128 69.4724 33.8552ZM69.7596 40.8811C69.3575 40.8235 68.898 40.8235 68.4959 40.8235C68.9555 40.7659 69.415 40.7659 69.8745 40.7659C69.8745 40.7659 69.8745 40.8235 69.9319 40.8235C69.8745 40.8235 69.8171 40.8235 69.7596 40.8811ZM73.3783 25.2168C73.206 25.1017 72.9763 24.9865 72.804 24.9289C73.2635 25.0441 73.723 25.1592 74.1825 25.2744C73.8953 25.2744 73.6656 25.2744 73.3783 25.2168ZM85.211 44.1061C85.0961 43.9333 84.9812 43.7606 84.8663 43.5302C84.8089 43.1847 84.7515 42.8391 84.694 42.4936C84.8664 42.724 85.0387 43.0119 85.211 43.2423C85.211 43.5878 85.211 43.8182 85.211 44.1061ZM87.4511 47.4463C87.4511 47.3311 87.4511 47.2159 87.5086 47.1583C87.7383 47.5615 87.9107 47.9646 88.083 48.3677C87.9107 48.0222 87.6809 47.7342 87.4511 47.4463ZM88.5425 37.3682C88.4851 37.3106 88.1979 36.9075 88.2553 37.0226C88.1979 36.965 88.1979 36.9075 88.1404 36.8499C87.7958 36.4467 87.4512 36.0436 87.1065 35.6405C87.0491 35.5253 87.0491 35.4101 86.9916 35.295C86.7619 34.5463 86.3598 33.8552 85.7854 33.3369C85.3259 32.8762 84.6366 32.5883 83.9473 32.4155C83.5452 32.0124 83.0857 31.6092 82.5687 31.3213C82.2815 31.1485 81.9944 30.9758 81.6497 30.8606C81.3625 30.2271 81.0179 29.6512 80.6158 29.1329C80.2712 28.6146 79.8691 28.1539 79.4095 27.7508C80.0988 28.1539 80.7307 28.6146 81.3625 29.1329C83.1432 30.5726 84.8089 32.1851 86.2449 34.028C87.1065 35.1222 87.8532 36.3316 88.4851 37.5409C88.6 37.4833 88.5425 37.4258 88.5425 37.3682Z" fill="#FFD34E"/>
<path d="M61.1436 1.77683C60.9713 1.71924 60.8564 1.71924 60.6841 1.71924C60.3969 1.71924 60.1097 1.77683 59.8225 1.9496C59.4779 2.17995 59.1332 2.52549 59.0184 2.9862C58.6737 4.54111 58.6737 6.2112 58.6163 7.8237C58.5588 9.49379 58.5014 11.1063 58.444 12.7764C58.3865 13.7554 59.3056 14.5616 60.2246 14.5616C61.2011 14.5616 62.0052 13.7554 62.0052 12.7764C62.0627 11.1639 62.1201 9.49379 62.1776 7.88129C62.1776 7.19022 62.235 6.49915 62.235 5.86566C62.2924 5.05942 62.2924 4.25317 62.4073 3.50451C62.4073 3.21656 62.3499 2.92861 62.1776 2.64067C61.9478 2.17995 61.5457 1.89201 61.1436 1.77683Z" fill="#FFD34E"/>
<path d="M76.5373 8.86115C76.6521 8.68839 76.7096 8.51562 76.8245 8.34285C76.8819 8.28526 76.8819 8.28526 76.9394 8.22767C77.1691 7.93972 77.3414 7.65178 77.3414 7.30624C77.3414 6.96071 77.2266 6.61517 76.9394 6.38481C76.7096 6.15446 76.3649 5.98169 76.0203 5.98169C75.6757 5.98169 75.331 6.09687 75.1013 6.38481C74.6417 6.90312 74.2397 7.42142 74.0099 8.0549C73.7801 8.6308 73.7227 9.1491 73.6078 9.78258C73.4929 10.4161 73.4355 11.1071 73.3781 11.7406C73.3206 12.3741 73.3781 13.0076 73.3781 13.6411C73.3781 13.9866 73.493 14.3321 73.7802 14.5625C74.0099 14.7928 74.3545 14.9656 74.6992 14.9656C75.3885 14.9656 76.0203 14.3897 76.0203 13.6411C75.9629 12.7196 75.9629 11.8558 76.0778 10.9344C76.1926 10.1857 76.3075 9.49464 76.5373 8.86115Z" fill="#FFD34E"/>
<path d="M91.5875 12.95C91.4726 12.95 91.3003 12.95 91.1854 13.0075C90.611 13.1803 90.094 13.4107 89.6345 13.7562C89.1176 14.1593 88.6006 14.5625 88.1411 15.0232C87.6816 15.4263 87.2795 15.8294 86.8774 16.2901C86.4753 16.7508 86.0732 17.2691 85.6712 17.7874C85.4414 18.133 85.384 18.7089 85.4988 19.0544C85.6137 19.4575 85.9009 19.8031 86.2456 20.0334C86.6476 20.2638 87.1072 20.3214 87.5092 20.2062C87.6241 20.1486 87.7964 20.091 87.9113 20.0334C88.1411 19.8607 88.3708 19.6879 88.4857 19.4575C88.9452 18.8241 89.4622 18.2482 90.0366 17.7299C90.3238 17.4419 90.611 17.154 90.9556 16.866C91.1854 16.6357 91.4152 16.4053 91.7024 16.1749C91.8747 16.0598 91.9896 16.0022 92.1619 15.887C92.2193 15.8294 92.3342 15.8294 92.3916 15.7718C92.6214 15.6566 92.7937 15.4263 92.966 15.1959C93.1958 14.8504 93.2533 14.3897 93.1384 13.9866C92.8512 13.4107 92.2193 12.95 91.5875 12.95Z" fill="#FFD34E"/>
<path d="M99.342 30.8025C99.6292 30.457 99.9738 30.1115 100.318 29.8235C101.008 29.3052 101.754 28.9597 102.501 28.6142C102.846 28.4414 103.248 28.3262 103.593 28.211C104.224 27.9807 104.856 27.8079 105.546 27.6927C105.718 27.6927 105.89 27.6351 106.062 27.6351C106.809 27.6351 107.441 27.0017 107.441 26.253C107.441 25.5043 106.809 24.8708 106.062 24.8708C106.005 24.8708 106.005 24.8708 105.948 24.8708C105.431 24.8708 104.914 24.9284 104.397 24.986C103.65 25.1012 102.961 25.3316 102.214 25.6195C101.467 25.9075 100.663 26.1954 99.9738 26.5985C99.5143 26.8289 99.0548 27.1168 98.6527 27.4624C98.1357 27.8655 97.7337 28.2686 97.2741 28.7293C96.9869 29.0173 96.8721 29.3628 96.8721 29.7659C96.8721 30.1691 97.0444 30.5146 97.2741 30.8025C97.7911 31.3208 98.7676 31.3784 99.342 30.8025Z" fill="#FFD34E"/>
<path d="M101.869 38.8066C101.295 38.9218 101.008 39.5553 101.123 40.0736C101.295 40.6495 101.869 40.9374 102.386 40.8222C104.397 40.3039 106.407 39.8432 108.475 39.3249C109.279 39.0946 110.141 38.9218 110.945 38.6914C111.921 38.4611 112.84 38.2307 113.817 38.0004C114.219 37.9428 114.506 37.4821 114.506 37.1365C114.506 36.9062 114.391 36.6758 114.219 36.503C114.104 36.3879 113.817 36.2151 113.645 36.2151H113.587C112.553 36.3303 111.519 36.5606 110.543 36.791C109.681 36.9637 108.82 37.1941 107.958 37.3669C105.948 37.77 103.88 38.2883 101.869 38.8066Z" fill="#FFD34E"/>
<path d="M115.425 51.8807C115.195 51.7655 114.965 51.6503 114.735 51.5927C114.563 51.5352 114.333 51.5352 114.161 51.5352C114.046 51.5352 113.931 51.5352 113.874 51.5352C113.816 51.5352 113.759 51.5352 113.759 51.5352C113.299 51.5352 112.84 51.5927 112.438 51.5927C112.093 51.5927 111.691 51.6503 111.346 51.7079C110.715 51.7655 110.083 51.8231 109.451 51.8807C107.555 52.0535 105.717 52.2262 103.822 52.399C103.65 52.399 103.535 52.4566 103.362 52.4566C103.075 52.5142 102.845 52.6869 102.616 52.9173C102.328 53.2052 102.099 53.666 102.099 54.1267C102.099 54.5874 102.271 54.9905 102.616 55.336C102.903 55.624 103.362 55.8544 103.822 55.8544C105.66 55.6816 107.498 55.5088 109.336 55.336C109.853 55.2785 110.427 55.2209 110.944 55.1633C111.289 55.1057 111.634 55.1057 111.978 55.0481C112.323 54.9905 112.61 54.9905 112.955 54.9329C113.357 54.8753 113.759 54.8177 114.104 54.8177C114.161 54.8177 114.161 54.8177 114.218 54.8753C114.908 55.0481 115.597 54.7602 115.942 54.1843C116.171 53.8387 116.229 53.378 116.114 52.9749C115.999 52.4566 115.769 52.0535 115.425 51.8807Z" fill="#FFD34E"/>
<path d="M110.83 73.822C110.6 73.6492 110.313 73.4765 110.026 73.3037C109.738 73.1309 109.451 72.9582 109.164 72.7854C108.59 72.4399 107.958 72.1519 107.383 71.864C106.464 71.4033 105.545 70.9425 104.569 70.5394C104.397 70.4818 104.224 70.4242 104.109 70.3091C103.937 70.2515 103.765 70.2515 103.592 70.2515C103.42 70.2515 103.248 70.2515 103.075 70.3091C102.558 70.4242 102.156 70.7698 101.869 71.2305C101.582 71.6912 101.525 72.2671 101.639 72.7854C101.754 73.2461 102.099 73.7644 102.558 73.9948C104.109 74.7434 105.603 75.4345 107.154 76.2407C107.671 76.5287 108.245 76.8166 108.762 77.047C109.451 77.3925 110.198 77.7957 110.887 78.1988C111.577 78.6019 112.438 78.4867 113.013 77.9108C113.644 77.2774 113.702 76.068 113.013 75.4345C112.266 74.8586 111.577 74.3403 110.83 73.822Z" fill="#FFD34E"/>
<path d="M107.039 88.9674C106.522 88.4491 105.948 87.9308 105.373 87.4125C104.109 86.2607 102.788 85.1089 101.467 83.9571C101.237 83.7267 100.95 83.6116 100.606 83.6116C100.261 83.6116 99.9738 83.7267 99.7441 83.9571C99.5143 84.1875 99.3994 84.533 99.3994 84.8209C99.3994 85.1089 99.5143 85.512 99.7441 85.6848C101.008 86.8366 102.329 87.9308 103.593 89.025C104.167 89.5433 104.741 90.004 105.316 90.5223C105.833 90.983 106.35 91.3861 106.867 91.9044C107.211 92.25 107.786 92.3075 108.188 92.0772C108.417 91.962 108.59 91.6741 108.705 91.4437C108.762 91.1558 108.762 90.8102 108.59 90.5799C108.13 90.004 107.613 89.4857 107.039 88.9674Z" fill="#FFD34E"/>
<path d="M99.2266 101.867C98.8245 101.119 98.365 100.428 97.9629 99.6789C96.9865 98.0088 96.01 96.3963 95.0335 94.7838C94.7463 94.3231 94.2868 94.0928 93.8273 94.0928C93.5975 94.0928 93.3677 94.1504 93.138 94.2655C92.5061 94.6687 92.2764 95.5325 92.621 96.166C93.5975 97.7785 94.574 99.391 95.5505 101.003C96.4121 102.443 97.3311 103.825 98.1927 105.208C98.5374 105.783 99.3415 106.014 99.9159 105.668C100.203 105.495 100.433 105.208 100.49 104.92C100.605 104.574 100.49 104.228 100.375 103.941C100.031 103.249 99.6287 102.558 99.2266 101.867Z" fill="#FFD34E"/>
<path d="M86.877 110.909C86.5324 110.161 86.1877 109.412 85.8431 108.663C85.5559 107.972 85.2687 107.281 85.0964 106.533C85.0964 106.302 85.0964 106.129 85.0964 105.899C85.0964 105.784 85.1538 105.726 85.1538 105.611C85.3261 105.15 85.2113 104.575 84.9815 104.171C84.7517 103.768 84.3496 103.423 83.8901 103.308C83.7178 103.25 83.5455 103.25 83.4306 103.25C83.086 103.25 82.7988 103.308 82.5116 103.48C82.0521 103.711 81.8223 104.114 81.65 104.575C81.5351 104.92 81.4777 105.266 81.4777 105.669C81.4202 106.014 81.4202 106.36 81.4777 106.705C81.5351 107.108 81.5925 107.512 81.7074 107.857C81.8223 108.203 81.9372 108.548 82.0521 108.836C82.4541 109.873 82.8562 110.852 83.3157 111.831C83.7752 112.81 84.2348 113.731 84.8666 114.595C84.9815 114.71 85.0389 114.825 85.1538 114.941C85.3836 115.171 85.6133 115.286 85.958 115.401C86.4175 115.517 86.9344 115.459 87.3365 115.229C87.7386 114.998 88.0258 114.595 88.1407 114.192C88.2556 113.731 88.1981 113.213 87.9684 112.81C87.5089 112.234 87.2216 111.6 86.877 110.909Z" fill="#FFD34E"/>
<path d="M67.4632 113.56C66.9463 111.602 66.4293 109.586 65.9124 107.628C65.6826 106.822 64.9359 106.246 64.0743 106.246C63.902 106.246 63.7296 106.246 63.6148 106.304C62.6383 106.592 62.0639 107.628 62.2936 108.607C62.8106 110.565 63.3276 112.523 63.8445 114.481C64.304 116.209 64.821 117.994 65.2231 119.722C65.4528 120.701 66.5442 121.277 67.4632 120.989C67.9228 120.874 68.3248 120.586 68.5546 120.125C68.7844 119.664 68.8418 119.204 68.7269 118.743C68.4397 117.073 67.9228 115.288 67.4632 113.56Z" fill="#FFD34E"/>
<path d="M54.0212 107.224C53.9064 107.167 53.734 107.167 53.6192 107.167C53.332 107.167 53.0448 107.224 52.815 107.397C52.5278 107.57 52.1257 107.973 52.0683 108.318C51.5513 112.062 51.0344 115.805 50.5174 119.548V119.491C50.5174 119.548 50.5174 119.606 50.5174 119.663C50.5174 119.663 50.5174 119.663 50.5174 119.606V119.663C50.5174 119.663 50.5174 119.663 50.5174 119.606C50.5174 119.663 50.5174 119.721 50.5174 119.779C50.5174 119.836 50.5174 119.894 50.5174 119.951C50.5174 120.009 50.5174 120.066 50.5174 120.124C50.5174 120.239 50.46 120.354 50.46 120.527C50.46 120.815 50.5174 121.046 50.6323 121.276C50.8046 121.621 51.1492 121.852 51.4939 121.967C52.2406 122.197 53.0448 121.737 53.2745 120.93C53.3894 120.47 53.4468 120.009 53.5617 119.548C53.6192 119.145 53.734 118.684 53.7915 118.281C53.9638 117.36 54.0787 116.438 54.251 115.517C54.5956 113.386 54.8828 111.255 55.17 109.125C55.17 109.009 55.2275 108.837 55.2275 108.721C55.2275 108.433 55.17 108.146 54.9977 107.915C54.768 107.627 54.4233 107.339 54.0212 107.224ZM50.46 119.951V119.894V119.836C50.5174 119.836 50.46 119.894 50.46 119.951Z" fill="#FFD34E"/>
<path d="M43.9699 106.359C43.7401 106.244 43.5104 106.187 43.2806 106.187C43.1657 106.187 43.0509 106.187 42.936 106.244C42.8211 106.302 42.7062 106.359 42.5913 106.359C42.3616 106.474 42.1893 106.647 42.0744 106.878C41.7297 107.338 41.5 107.914 41.2702 108.49C41.0405 109.008 40.8681 109.527 40.7533 110.045C40.5235 110.909 40.3512 111.83 40.2363 112.694C40.064 113.616 39.8917 114.537 39.7193 115.458C39.6045 116.207 39.4321 116.956 39.3173 117.704C39.1449 118.741 38.9726 119.72 38.9152 120.757C38.8577 121.102 39.0875 121.505 39.3173 121.736C39.6045 122.024 39.9491 122.139 40.2937 122.139C40.6384 122.139 41.0405 121.966 41.2702 121.736C41.3277 121.62 41.4425 121.563 41.5 121.448C41.6149 121.217 41.6723 120.987 41.6723 120.757C41.6723 120.699 41.6723 120.699 41.6723 120.641C41.9021 119.202 42.1318 117.704 42.3616 116.265C42.4765 115.458 42.6488 114.652 42.7637 113.846C43.0509 112.291 43.2806 110.794 43.855 109.296C44.0273 108.951 44.1997 108.548 44.4294 108.26C44.6592 107.972 44.6592 107.511 44.5443 107.166C44.5443 106.878 44.3145 106.532 43.9699 106.359Z" fill="#FFD34E"/>
<path d="M33.5156 100.6H33.4581C33.1709 100.658 32.8837 100.658 32.5965 100.83C32.4242 100.946 32.2519 101.061 32.0221 101.176C31.5626 101.522 31.1605 101.867 30.8159 102.27C30.1266 103.076 29.6671 103.94 29.2076 104.862C28.748 105.783 28.2311 106.762 27.829 107.741C27.5992 108.317 27.3695 108.893 27.1397 109.469C26.8525 110.218 26.5653 110.966 26.2781 111.772C25.9909 112.521 25.7612 113.27 25.5888 114.018C25.4165 114.652 25.7612 115.343 26.4504 115.516C27.0823 115.688 27.7716 115.285 27.9439 114.652C28.2311 113.73 28.5757 112.809 28.9204 111.888C29.2076 111.139 29.5522 110.333 29.8394 109.584C30.2415 108.605 30.701 107.684 31.1605 106.762C31.62 105.898 32.0221 104.977 32.654 104.171C32.9412 103.825 33.2284 103.537 33.5156 103.249C33.6304 103.192 33.6879 103.134 33.8028 103.076C33.8602 103.076 33.8602 103.076 33.9176 103.076C34.1474 103.019 34.3197 102.904 34.492 102.731C34.7218 102.501 34.8367 102.155 34.8367 101.867C34.8367 101.522 34.7218 101.234 34.492 101.003C34.1474 100.773 33.8028 100.6 33.5156 100.6ZM33.6304 103.076C33.573 103.076 33.4581 103.076 33.4007 103.134H33.4581C33.5156 103.076 33.573 103.076 33.6304 103.076Z" fill="#FFD34E"/>
<path d="M20.0745 87.874C19.9022 87.874 19.7873 87.8164 19.615 87.8164C19.3278 87.8164 18.9831 87.874 18.7534 88.0468C17.4897 88.6227 16.226 89.2561 15.0198 89.832C14.2156 90.2352 13.4114 90.6383 12.6073 91.0414C10.9415 91.9052 9.21832 92.8267 7.66744 93.9209C7.3228 94.1512 7.0356 94.4392 6.92072 94.8999C6.80584 95.303 6.86328 95.7637 7.09304 96.1669C7.55256 96.9731 8.52904 97.2035 9.3332 96.7427C10.1948 96.2244 11.1138 95.7637 12.0329 95.303C12.837 94.8999 13.6412 94.4392 14.3879 94.036C15.1921 93.6329 15.9962 93.2298 16.8004 92.8267C18.0641 92.2508 19.2703 91.6173 20.534 91.0414C20.9361 90.8686 21.2233 90.4079 21.3382 90.0048C21.453 89.5441 21.3956 89.0834 21.1658 88.6802C20.9361 88.2771 20.534 87.9892 20.0745 87.874Z" fill="#FFD34E"/>
<path d="M11.8029 82.863C12.4347 82.8054 13.0666 82.8054 13.6984 82.863C14.0431 82.9206 14.3303 83.0357 14.6175 83.1509C14.6749 83.2085 14.7323 83.2085 14.7898 83.2661C15.077 83.4389 15.4216 83.4965 15.7663 83.3813C16.0535 83.2661 16.3407 83.0933 16.513 82.8054C16.6853 82.5174 16.7427 82.1719 16.6279 81.8264C16.5704 81.5384 16.3407 81.1929 16.0535 81.0777C15.5939 80.8473 15.077 80.617 14.56 80.4442C14.2154 80.3291 13.8707 80.329 13.5261 80.2715C13.2389 80.2715 13.0091 80.2139 12.7219 80.2139C12.6645 80.2139 12.6071 80.2139 12.5496 80.2139C11.2285 80.2139 9.90737 80.3866 8.58625 80.5594C7.72465 80.6746 6.80561 80.7898 5.94401 80.9625C4.96753 81.1353 4.04849 81.3081 3.07201 81.5384C2.38273 81.7112 1.98065 82.4023 2.21041 83.0933C2.38273 83.7844 3.07201 84.1299 3.76129 83.9572C4.73777 83.7268 5.71425 83.554 6.69073 83.3813C7.78209 83.2085 8.87345 83.0357 9.96481 82.863C10.6541 82.9206 11.2285 82.863 11.8029 82.863Z" fill="#FFD34E"/>
<path d="M5.19748 66.1619C5.9442 66.3923 6.69092 66.6226 7.43764 66.9106C8.06948 67.1985 8.70132 67.4865 9.27572 67.8896C9.3906 67.9472 9.44804 68.0624 9.50548 68.12C9.62036 68.2927 9.73524 68.4655 9.79268 68.6383C9.85012 68.811 9.90756 68.9838 9.965 69.1566C10.1373 69.8476 10.884 70.2508 11.5159 70.078C12.2052 69.9052 12.6072 69.1566 12.4349 68.5231C12.32 68.1776 12.2052 67.8896 12.0903 67.5441C11.9754 67.2561 11.8031 66.9682 11.6308 66.6802C11.1712 66.0468 10.482 65.586 9.79268 65.1829C9.1034 64.8374 8.41412 64.4918 7.6674 64.2615C7.093 64.0311 6.46116 63.8584 5.88676 63.6856C5.54212 63.5704 5.19748 63.4552 4.85284 63.3976C4.62308 63.3401 4.45076 63.2825 4.221 63.2249C3.87636 63.1673 3.58916 63.0521 3.24452 62.9945C3.01476 62.9369 2.84244 62.9369 2.61268 62.8793C2.26804 62.8218 1.98084 62.7642 1.6362 62.7642C1.57876 62.7642 1.46388 62.7642 1.40644 62.7642C1.0618 62.7642 0.774595 62.8793 0.544835 63.1097C0.315075 63.3401 0.200195 63.6856 0.200195 63.9735C0.200195 64.6646 0.774595 65.2405 1.40644 65.1829C1.52132 65.1829 1.6362 65.1829 1.75108 65.1829C2.4978 65.2981 3.24452 65.5284 3.9338 65.7588C4.39332 65.9316 4.7954 66.0467 5.19748 66.1619Z" fill="#FFD34E"/>
<path d="M11.6305 51.9363C10.9412 51.13 10.2519 50.2662 9.56265 49.4599C9.44777 49.3447 9.33289 49.172 9.21801 49.0568C8.81593 48.6537 8.47129 48.2505 8.06921 47.8474C7.55225 47.2715 6.97785 46.6956 6.46089 46.1197C5.71417 45.3135 4.96745 44.5648 4.22073 43.7586C3.87609 43.3555 3.53145 43.0099 3.18681 42.6068C2.84217 42.2037 2.44009 41.8006 2.09545 41.3974C2.09545 41.3398 2.03801 41.3398 2.03801 41.2822C1.98057 41.2247 1.92313 41.1671 1.92313 41.1095C1.80825 40.9943 1.69337 40.9367 1.57849 40.8791C1.52105 40.8791 1.40617 40.8215 1.34873 40.8215C1.17641 40.8215 1.06153 40.8791 0.946646 40.9367C0.774326 41.0519 0.602006 41.2247 0.544566 41.455C0.487126 41.6278 0.487126 41.9157 0.602006 42.0885C0.889206 42.4916 1.23385 42.8947 1.63593 43.2979C1.92313 43.5858 2.21033 43.8738 2.49753 44.1617C3.07193 44.9104 3.64633 45.4863 4.27817 46.1197C5.59929 47.4443 6.92041 48.8264 8.18409 50.2086C8.35641 50.3814 8.47129 50.5541 8.64361 50.7269C9.10313 51.2452 9.56265 51.7635 10.0222 52.3394C10.4817 52.8577 10.8838 53.376 11.3433 53.8943C11.8602 54.5278 12.3772 55.1613 12.8942 55.7947C13.009 55.9675 13.2388 56.0251 13.4111 56.0251C13.5834 56.0251 13.8132 55.9675 13.9281 55.7947C14.043 55.6796 14.1578 55.4492 14.1578 55.2764C14.1578 55.0461 14.043 54.9309 13.9281 54.7581C13.4686 54.1822 13.009 53.6063 12.5495 53.0305C12.2623 52.6849 11.9177 52.2818 11.6305 51.9363Z" fill="#FFD34E"/>
<path d="M20.1893 39.3266C20.7063 38.8083 20.7637 37.8869 20.1893 37.311C19.1554 36.3319 18.1214 35.3529 17.0301 34.3739C16.3982 33.798 15.7664 33.2221 15.0771 32.6462C14.273 31.9552 13.5262 31.3217 12.7795 30.6306C12.3774 30.2851 11.9179 29.8819 11.5158 29.5364C11.2861 29.3636 11.1138 29.1333 10.884 28.9605C10.5394 28.6726 10.2522 28.327 9.96497 27.9815C9.79265 27.8087 9.62033 27.6935 9.39057 27.636C9.27569 27.5784 9.16081 27.5784 9.04593 27.5784C8.81617 27.5784 8.58641 27.636 8.35665 27.7511C8.06945 27.9239 7.83969 28.2119 7.72481 28.5574C7.60993 28.9029 7.66737 29.306 7.83969 29.594C8.64385 30.6882 9.67777 31.6096 10.6542 32.4735C11.4584 33.1645 12.2626 33.8556 13.0667 34.5467C14.8474 36.044 16.5706 37.6565 18.2363 39.269C18.7533 39.9025 19.6723 39.9025 20.1893 39.3266Z" fill="#FFD34E"/>
<path d="M23.5785 23.6623C24.2103 24.3534 24.8422 24.9869 25.474 25.6204C26.5079 26.657 27.5419 27.7512 28.5758 28.7878C29.0927 29.3061 29.9543 29.3061 30.4713 28.7878C30.9883 28.2695 30.9883 27.4056 30.4713 26.8873C29.4374 25.8507 28.4609 24.8141 27.427 23.7775C26.7951 23.144 26.1059 22.4529 25.474 21.8195C24.7847 21.1284 24.0955 20.3797 23.4062 19.6887C22.7169 18.94 21.9702 18.1913 21.2809 17.3851C21.1086 17.2123 20.9363 17.1547 20.7639 17.0971C20.6491 17.0971 20.5342 17.0396 20.4193 17.0396C20.1895 17.0396 20.0172 17.0971 19.7875 17.2123C19.2131 17.5579 18.9833 18.3065 19.3279 18.8824C19.9023 19.8038 20.7065 20.6677 21.3958 21.5315C22.2574 22.2226 22.9467 22.9137 23.5785 23.6623Z" fill="#FFD34E"/>
<path d="M31.678 14.7928C31.9652 15.3687 32.3099 16.0022 32.5971 16.5781C33.5735 18.4209 34.6075 20.2062 35.5839 22.049C35.9286 22.6825 36.8476 22.9129 37.4795 22.5673C38.1687 22.1642 38.3411 21.358 37.9964 20.6669C37.0199 18.9392 36.1009 17.2115 35.1244 15.4839C34.8947 15.0231 34.6649 14.62 34.3777 14.1593C33.9182 13.2955 33.4012 12.4316 32.9991 11.5678C32.8843 11.2798 32.7694 10.9343 32.7119 10.5888C32.6545 10.2432 32.5971 10.0129 32.3673 9.72493C32.1375 9.49457 31.8503 9.37939 31.5057 9.37939C31.1611 9.37939 30.8739 9.49457 30.6441 9.72493C30.4143 9.95529 30.2995 10.2432 30.2995 10.5888C30.242 11.1071 30.3569 11.5678 30.4718 12.0861C30.5867 12.6044 30.8164 13.0651 31.0462 13.5258C31.2759 13.9865 31.4483 14.3897 31.678 14.7928Z" fill="#FFD34E"/>
<path d="M41.4419 4.36901C41.5568 4.77213 41.6716 5.17526 41.7865 5.57838C41.9014 6.0391 42.0163 6.5574 42.1312 7.01811C42.3035 7.76677 42.5332 8.51543 42.7056 9.32168C43.3948 11.9132 44.0841 14.5047 44.716 17.0962C45.0032 18.1904 46.2094 18.8815 47.3008 18.536C48.3921 18.248 49.0814 17.0386 48.7368 15.9444C48.0475 13.4105 47.4156 10.8766 46.7264 8.40026C46.554 7.76677 46.3817 7.0757 46.2094 6.44222C46.152 6.21186 46.0945 5.98151 46.0371 5.75115C46.6115 5.17526 46.8412 4.19624 46.3817 3.44758C45.8648 2.64133 45.2904 1.83508 44.6585 1.14401C44.3139 0.740883 43.7969 0.568115 43.28 0.568115C43.1076 0.568115 42.9353 0.568115 42.763 0.625705C42.4184 0.740883 42.1312 0.913651 41.9014 1.14401C41.6716 1.37436 41.4993 1.66231 41.3844 2.00785C41.327 2.41097 41.2121 2.75651 41.2696 3.15963C41.2696 3.56276 41.327 3.96588 41.4419 4.36901Z" fill="#FFD34E"/>
</g>
<defs>
<clipPath id="clip0_1650_1658">
<rect width="117" height="123" fill="white"/>
</clipPath>
</defs>
</svg>
