<svg width="200" height="300" viewBox="0 0 200 300" fill="none" xmlns="http://www.w3.org/2000/svg">
<g clip-path="url(#clip0_252_5652)">
<rect width="200" height="300" rx="4" fill="#EEFDFE"/>
<path d="M201.111 -1.11115H-0.000244141V300H201.111V-1.11115Z" fill="#58D7DE"/>
<path d="M201.251 256.933C167.019 261.48 137.189 278.716 114.703 301.93C141.391 303.76 175.332 303.495 201.993 301.161C201.688 286.79 201.224 271.304 201.251 256.933Z" fill="#F76F63"/>
<path d="M163.784 263.191C159.7 252.399 150.261 245.969 142.704 248.819C135.147 251.683 132.336 262.753 136.42 273.545C140.503 284.337 149.943 290.767 157.5 287.916C165.057 285.053 167.867 273.982 163.784 263.191Z" fill="#FCCBB3"/>
<g style="mix-blend-mode:multiply" opacity="0.5">
<path d="M163.784 263.191C159.7 252.399 150.261 245.969 142.704 248.819C135.147 251.683 132.336 262.753 136.42 273.545C140.503 284.337 149.943 290.767 157.5 287.916C165.057 285.053 167.867 273.982 163.784 263.191Z" fill="#FCCBB3"/>
</g>
<path d="M153.841 278.225C173.383 270.827 183.233 248.991 175.835 229.449L167.748 208.091C160.35 188.549 138.515 178.698 118.972 186.096C99.4303 193.494 89.5797 215.33 96.9776 234.872L105.065 256.23C112.463 275.772 134.299 285.623 153.841 278.225Z" fill="#FCCBB3"/>
<path d="M192.805 231.743C192.103 233.241 191.069 234.54 189.425 235.893C187.993 237.073 185.659 238.518 183.671 239.127C182.08 239.764 180.515 240.148 178.964 240.241C177.413 240.52 175.995 240.52 174.695 240.268C173.33 240.082 172.256 239.671 171.474 239.008C170.439 238.478 169.777 237.749 169.485 236.794C169.392 236.144 169.313 235.495 169.22 234.845C169.339 233.493 169.962 232.127 171.089 230.749C171.739 230.099 172.388 229.449 173.051 228.8C174.642 227.5 176.485 226.453 178.58 225.658C178.633 225.644 178.686 225.631 178.739 225.604C176.896 226.652 175.053 227.699 173.21 228.747L173.343 228.654C172.256 229.98 171.169 231.319 170.081 232.644C170.095 232.605 170.121 232.578 170.135 232.538C170.572 231.478 171.328 230.47 172.415 229.516C173.316 228.495 174.483 227.593 175.915 226.811C177.36 225.949 178.885 225.313 180.515 224.928C182.08 224.385 183.618 224.106 185.142 224.093C187.98 224.08 190.684 224.623 192.01 226.082C193.362 227.58 193.84 229.516 192.792 231.703L192.805 231.743Z" fill="#FCCBB3"/>
<path d="M188.444 228.548C187.184 226.36 183.803 226.997 181.868 227.699C180.728 228.11 179.667 228.667 178.726 229.436C177.983 230.046 177.227 231 177.333 232.021C177.426 232.896 178.275 233.519 179.11 233.042C179.892 232.605 180.913 232.446 181.642 232.658C182.04 232.777 181.642 232.697 181.642 232.631C181.642 232.631 181.735 232.684 181.748 232.684C182.027 232.857 181.589 232.499 181.762 232.684C181.788 232.724 181.828 232.75 181.868 232.79C182.053 232.963 181.788 232.711 181.815 232.711C181.841 232.711 181.974 232.989 181.987 233.002C182.04 233.069 181.907 232.697 181.947 232.923C181.947 232.963 181.974 233.042 181.987 233.082C182.027 233.148 181.987 232.764 181.987 233.002C181.987 233.055 181.987 233.135 181.987 233.188C182 233.268 182.067 232.896 181.987 233.122C181.96 233.188 181.947 233.254 181.934 233.321C181.881 233.559 182 233.241 181.934 233.321C181.881 233.374 181.854 233.466 181.815 233.533C181.801 233.559 181.629 233.798 181.735 233.665C181.841 233.533 181.629 233.771 181.616 233.798C181.47 233.957 181.298 234.116 181.125 234.249C181.085 234.275 181.085 234.288 180.953 234.368C180.834 234.447 180.714 234.527 180.595 234.593C180.303 234.779 179.998 234.938 179.68 235.097C179.11 235.376 178.951 236.184 179.256 236.715C179.601 237.298 180.303 237.43 180.873 237.139C182.782 236.184 185.209 234.222 184.015 231.809C182.915 229.608 179.693 229.993 177.917 231L179.693 232.021C179.693 232.021 179.667 231.889 179.693 231.849C179.64 231.995 179.654 231.982 179.707 231.849C179.614 232.008 179.773 231.69 179.707 231.849C179.746 231.783 179.773 231.73 179.813 231.663C179.919 231.504 179.64 231.836 179.879 231.584C179.932 231.517 179.998 231.464 180.051 231.398C180.171 231.279 180.303 231.16 180.449 231.04C180.993 230.616 181.788 230.205 182.491 229.953C183.286 229.661 184.135 229.423 184.97 229.396C185.394 229.383 185.633 229.409 186.017 229.502C186.163 229.529 186.097 229.516 186.296 229.622C186.561 229.754 186.256 229.569 186.362 229.675C186.481 229.807 186.243 229.463 186.389 229.714C187.144 231.04 189.186 229.847 188.43 228.521L188.444 228.548Z" fill="#1D1D1B"/>
<path d="M114.359 257.596C114.359 257.596 114.385 257.675 114.412 257.702C114.823 258.603 114.809 259.598 114.385 260.672C114.226 261.679 113.696 262.713 112.794 263.747C111.985 264.808 110.912 265.736 109.573 266.558C108.34 267.499 106.921 268.268 105.303 268.838L102.122 269.766C100.027 270.191 98.1045 270.27 96.3279 269.979C95.5457 269.753 94.7767 269.528 93.9945 269.302C92.5494 268.653 91.5816 267.725 91.1176 266.505C91.1043 266.465 91.0911 266.425 91.0645 266.399C90.6535 265.497 90.6668 264.503 91.0911 263.429C91.2502 262.422 91.7805 261.387 92.682 260.353C93.4907 259.293 94.5646 258.365 95.9037 257.543C97.1366 256.601 98.5552 255.832 100.173 255.262C101.233 254.957 102.294 254.639 103.355 254.334C105.449 253.91 107.372 253.83 109.148 254.122C109.93 254.348 110.699 254.573 111.482 254.798C112.927 255.448 113.895 256.376 114.359 257.596Z" fill="#FCCBB3"/>
<path d="M97.8392 263.164C97.7995 263.031 97.7995 263.018 97.826 263.124C97.826 262.978 97.826 262.965 97.826 263.071C97.8923 262.952 97.8923 262.872 97.9851 262.7C98.1972 262.368 98.4889 262.09 98.7938 261.851C99.4037 261.374 100.146 260.99 100.862 260.711C101.538 260.446 102.32 260.221 103.01 260.154C103.195 260.141 103.394 260.128 103.58 260.128C103.673 260.128 103.752 260.128 103.845 260.141C103.739 260.128 103.765 260.128 103.898 260.141C103.978 260.154 104.044 260.181 104.123 260.194C104.256 260.247 104.269 260.247 104.137 260.194C104.256 260.274 104.256 260.261 104.137 260.181C104.19 260.221 104.23 260.274 104.269 260.314L104.786 258.338C102.798 258.842 100.199 260.817 101.087 263.151C102.029 265.617 105.118 265.325 107.173 264.702C108.631 264.264 108.008 261.984 106.55 262.422C106.059 262.567 105.409 262.74 104.998 262.766C104.773 262.793 104.548 262.793 104.322 262.793C104.23 262.793 104.137 262.793 104.044 262.779C104.309 262.806 104.017 262.78 103.964 262.753C103.872 262.726 103.792 262.713 103.699 262.687C103.659 262.687 103.434 262.581 103.606 262.66C103.739 262.726 103.434 262.541 103.355 262.501C103.487 262.581 103.447 262.647 103.408 262.528C103.408 262.501 103.195 262.302 103.355 262.475C103.487 262.62 103.301 262.342 103.248 262.289C103.288 262.355 103.328 262.567 103.288 262.382C103.288 262.342 103.262 262.289 103.248 262.249C103.169 262.024 103.248 262.514 103.248 262.196C103.248 262.156 103.248 262.117 103.248 262.077C103.222 261.865 103.262 262.236 103.222 262.223C103.222 262.223 103.248 262.103 103.248 262.09C103.315 261.904 103.156 262.156 103.182 262.223C103.076 262.05 103.805 261.401 103.925 261.308C104.349 260.963 104.853 260.751 105.37 260.618C106.284 260.393 106.444 259.293 105.887 258.643C105.237 257.887 104.11 257.702 103.156 257.755C102.015 257.808 100.902 258.099 99.8412 258.537C97.9055 259.346 94.7236 261.189 95.4793 263.774C95.9036 265.232 98.1839 264.609 97.7597 263.151L97.8392 263.164Z" fill="#1D1D1B"/>
<path d="M93.6896 194.329C93.5305 191.068 94.2862 187.78 95.7843 184.89C97.3753 186.414 98.6215 188.27 99.4833 190.299C100.637 187.594 102.665 185.128 104.773 183.007C108.923 178.831 113.643 175.158 119.025 172.772C123.705 170.69 128.916 169.643 133.993 170.134C131.992 171.154 130.175 172.586 128.664 174.244C127.789 175.211 127.007 176.245 126.291 177.333C129.048 177.094 131.713 178.658 134.245 179.905C140.331 182.888 147.357 184.121 154 182.782C159.568 181.655 164.792 178.619 168.345 174.23C169.246 176.709 169.75 179.335 169.829 181.973C170.294 181.747 170.744 181.509 171.182 181.257C174.125 179.56 176.816 177.412 179.163 174.933C179.654 176.908 179.786 179.016 179.892 181.058C180.237 187.78 180.462 194.793 177.705 200.945C174.35 208.409 167.032 213.381 159.422 216.39C156.532 217.53 153.522 218.458 150.42 218.803C145.395 219.36 140.331 218.392 135.465 217.08C131.872 216.112 128.346 214.958 124.872 213.633C118.296 211.1 111.203 207.879 104.495 210.04L100.345 207.614C96.4207 204.365 93.9415 199.433 93.6896 194.342V194.329Z" fill="#F7C42B"/>
<path d="M91.2236 228.044C89.8183 219.851 90.9452 211.485 95.0551 206.699C96.4737 205.042 98.29 203.822 100.425 203.888L105.887 204.856C110.726 210.517 111.216 219.188 108.883 226.002C107.133 231.12 104.097 235.429 100.769 239.459C102.784 246.128 104.813 252.796 106.828 259.478C104.72 256.827 102.692 254.082 100.809 251.179C96.3146 244.232 92.6157 236.237 91.2103 228.044H91.2236Z" fill="#F7C42B"/>
<path d="M167.059 199.341C162.684 192.274 156.307 186.746 150.062 185.884C147.901 185.592 145.727 185.884 144.176 187.329L140.729 191.678C140.848 199.128 146.231 205.943 152.475 209.509C157.168 212.187 162.299 213.394 167.47 214.216C170.373 220.553 173.277 226.89 176.18 233.228C176.008 229.847 175.703 226.453 175.199 223.032C173.966 214.852 171.447 206.407 167.072 199.341H167.059Z" fill="#F7C42B"/>
<path d="M125.058 242.694C123.056 240.771 120.47 239.857 118.217 240.281C115.963 240.705 114.093 242.455 113.232 244.921" stroke="#F7C42B" stroke-width="4.48" stroke-linecap="round" stroke-linejoin="round"/>
<path d="M162.418 226.904C159.435 225.3 156.094 225.326 153.602 226.983C153.257 227.209 152.912 227.474 152.634 227.819C151.918 228.694 151.64 229.98 151.375 231.213" stroke="#F7C42B" stroke-width="4.48" stroke-linecap="round" stroke-linejoin="round"/>
<path d="M160.151 240.771C161.808 240.135 162.471 237.815 161.623 235.561C160.774 233.321 158.733 232.008 157.075 232.631C155.405 233.268 154.755 235.588 155.604 237.841C156.452 240.082 158.494 241.395 160.151 240.771Z" fill="#1D1D1B"/>
<path d="M124.328 254.334C122.658 254.971 120.629 253.658 119.781 251.404C118.932 249.164 119.595 246.83 121.253 246.194C122.923 245.558 124.952 246.87 125.8 249.124C126.649 251.378 125.986 253.698 124.328 254.334Z" fill="#1D1D1B"/>
<path d="M133.41 263.588C141.047 263.045 148.63 261.984 156.121 260.393C156.293 263.084 155.816 265.802 154.53 268.162C152.793 271.344 149.505 273.744 145.886 273.982C142.227 274.221 138.634 272.246 136.34 269.382C134.975 267.672 134.033 265.683 133.41 263.588Z" fill="#EEFDFE"/>
<path d="M140.781 243.092C141.471 244.378 142.16 245.677 142.863 246.963C143.327 247.838 143.818 248.726 144.56 249.389C145.21 249.959 146.005 250.317 146.721 250.768C147.437 251.232 148.126 251.868 148.325 252.69C148.59 253.844 147.795 255.05 146.708 255.514C145.621 255.978 144.348 255.779 143.274 255.276" stroke="#1D1D1B" stroke-width="1.5" stroke-linecap="round" stroke-linejoin="round"/>
<path d="M171.5 232.883C174.045 239.592 171.407 247.095 164.699 249.641C157.99 252.187 149.664 248.832 147.132 242.111C144.586 235.402 148.882 228.097 155.59 225.551C162.299 223.006 168.968 226.175 171.513 232.883H171.5Z" stroke="#F76F63" stroke-width="2.12" stroke-miterlimit="10"/>
<path d="M137.189 245.876C139.734 252.584 135.346 259.664 128.637 262.196C121.929 264.742 113.921 262.355 111.375 255.647C108.83 248.938 113.245 241.819 119.953 239.273C126.662 236.728 134.643 239.167 137.175 245.876H137.189Z" stroke="#F76F63" stroke-width="2.12" stroke-miterlimit="10"/>
<path d="M171.765 231.822C173.687 230.603 175.61 229.383 177.532 228.15C178.169 227.739 178.487 226.837 178.049 226.161C177.638 225.525 176.75 225.207 176.061 225.644C174.138 226.864 172.216 228.084 170.293 229.317C169.657 229.728 169.339 230.629 169.776 231.305C170.187 231.942 171.076 232.26 171.765 231.822Z" fill="#F76F63"/>
<path d="M110.143 252.253C107.769 252.147 105.357 252.452 103.089 253.128C102.36 253.34 101.83 254.162 102.082 254.918C102.334 255.673 103.089 256.164 103.872 255.925C104.402 255.766 104.932 255.634 105.476 255.514C105.741 255.461 106.019 255.408 106.285 255.355C106.43 255.329 106.576 255.302 106.722 255.289C107.04 255.236 106.483 255.315 106.841 255.276C107.942 255.156 109.042 255.103 110.143 255.156C110.898 255.183 111.627 254.467 111.588 253.711C111.548 252.902 110.951 252.293 110.143 252.266V252.253Z" fill="#F76F63"/>
<path d="M139.27 248.209C139.403 248.527 139.191 247.97 139.164 247.891C139.111 247.732 139.058 247.573 139.018 247.4C138.978 247.228 138.939 247.082 138.912 246.923C138.912 246.857 138.886 246.777 138.872 246.711C138.952 247.109 138.872 246.724 138.872 246.631C138.846 246.313 138.846 245.995 138.872 245.677C138.872 245.505 138.939 245.266 138.872 245.584C138.899 245.412 138.939 245.239 138.978 245.08C139.045 244.789 139.151 244.523 139.244 244.245C139.124 244.563 139.23 244.285 139.31 244.139C139.389 243.993 139.469 243.847 139.548 243.715C139.615 243.609 139.681 243.516 139.747 243.423C139.973 243.092 139.575 243.595 139.84 243.304C140.039 243.092 140.238 242.866 140.45 242.681C140.503 242.641 140.835 242.376 140.636 242.521C140.437 242.667 140.781 242.415 140.848 242.389C141.086 242.23 141.338 242.097 141.603 241.965C141.961 241.779 141.352 242.044 141.736 241.912C141.842 241.872 141.948 241.832 142.054 241.806C142.28 241.739 142.638 241.593 142.876 241.62C142.558 241.58 142.624 241.646 142.783 241.633C142.85 241.633 142.929 241.633 142.996 241.62C143.128 241.62 143.247 241.62 143.38 241.62C143.513 241.62 143.632 241.633 143.765 241.646C144.016 241.646 143.632 241.633 143.632 241.633C143.698 241.607 143.857 241.673 143.924 241.686C144.175 241.739 144.414 241.832 144.666 241.912C144.852 241.965 144.335 241.739 144.6 241.885C144.653 241.912 144.706 241.938 144.759 241.965C144.905 242.044 145.051 242.124 145.183 242.217C145.249 242.256 145.302 242.309 145.369 242.349C145.143 242.137 145.634 242.522 145.369 242.349C145.488 242.455 145.607 242.561 145.727 242.667C145.873 242.813 145.992 242.959 146.124 243.118C146.177 243.171 146.257 243.33 146.085 243.065C146.138 243.158 146.204 243.237 146.27 243.33C146.509 243.688 146.694 244.059 146.88 244.444C146.907 244.497 146.973 244.696 146.88 244.444C146.92 244.563 146.973 244.683 147.013 244.802C147.105 245.054 147.185 245.319 147.251 245.571C147.463 246.327 148.285 246.791 149.041 246.578C149.797 246.366 150.261 245.558 150.049 244.789C149.558 243.039 148.71 241.315 147.265 240.175C146.058 239.207 144.56 238.663 142.996 238.743C139.92 238.889 137.215 241.037 136.287 243.953C135.664 245.889 135.982 247.878 136.764 249.707C137.069 250.423 138.13 250.582 138.753 250.224C139.495 249.787 139.588 248.965 139.27 248.236V248.209Z" fill="#F76F63"/>
<path d="M200.054 21.6139C198.27 60.777 176.114 98.4418 142.762 119.03C124.781 130.136 103.61 136.427 82.4958 135.432C58.3392 134.299 34.7772 123.388 18.2839 105.705C1.79054 88.0219 -7.46266 63.7623 -6.91365 39.5827L-6.93652 -38.9837H200.065V21.6025L200.054 21.6139Z" fill="#EEFDFE"/>
<path d="M200.054 26.5207C208.095 26.5207 214.614 20.0018 214.614 11.9604C214.614 3.91892 208.095 -2.59998 200.054 -2.59998C192.013 -2.59998 185.494 3.91892 185.494 11.9604C185.494 20.0018 192.013 26.5207 200.054 26.5207Z" fill="#EEFDFE"/>
<path d="M208.224 -7.43601C212.736 -11.9474 212.736 -19.2619 208.224 -23.7733C203.713 -28.2847 196.399 -28.2847 191.887 -23.7733C187.376 -19.2619 187.376 -11.9474 191.887 -7.436C196.399 -2.92459 203.713 -2.92459 208.224 -7.43601Z" fill="#EEFDFE"/>
<path d="M3.52503 16.7197C9.30054 10.9442 9.30053 1.58023 3.52503 -4.19527C-2.25048 -9.97078 -11.6144 -9.97078 -17.3899 -4.19527C-23.1654 1.58023 -23.1654 10.9442 -17.3899 16.7197C-11.6144 22.4952 -2.25048 22.4952 3.52503 16.7197Z" fill="#EEFDFE"/>
<path d="M-6.92512 48.733C1.30585 48.733 7.97837 42.0605 7.97837 33.8295C7.97837 25.5985 1.30585 18.926 -6.92512 18.926C-15.1561 18.926 -21.8286 25.5985 -21.8286 33.8295C-21.8286 42.0605 -15.1561 48.733 -6.92512 48.733Z" fill="#EEFDFE"/>
<path d="M17.5843 64.8604C19.5681 52.6391 11.269 41.1237 -0.952203 39.1399C-13.1734 37.1561 -24.6889 45.4552 -26.6727 57.6764C-28.6565 69.8977 -20.3574 81.4131 -8.13613 83.3969C4.08511 85.3807 15.6006 77.0816 17.5843 64.8604Z" fill="#EEFDFE"/>
<path d="M17.2142 99.2604C23.9813 92.4933 23.9813 81.5216 17.2142 74.7545C10.4471 67.9874 -0.524586 67.9874 -7.29171 74.7545C-14.0588 81.5216 -14.0588 92.4933 -7.29172 99.2604C-0.52459 106.028 10.4471 106.028 17.2142 99.2604Z" fill="#EEFDFE"/>
<path d="M21.8297 119.293C27.7171 119.293 32.4898 114.52 32.4898 108.633C32.4898 102.745 27.7171 97.9728 21.8297 97.9728C15.9423 97.9728 11.1697 102.745 11.1697 108.633C11.1697 114.52 15.9423 119.293 21.8297 119.293Z" fill="#EEFDFE"/>
<path d="M62.3103 129.592C65.1763 119.597 59.3972 109.171 49.4023 106.305C39.4074 103.439 28.9816 109.219 26.1156 119.213C23.2496 129.208 29.0287 139.634 39.0236 142.5C49.0185 145.366 59.4443 139.587 62.3103 129.592Z" fill="#EEFDFE"/>
<path d="M70.0973 152.051C80.5077 152.051 88.9469 143.612 88.9469 133.201C88.9469 122.791 80.5077 114.352 70.0973 114.352C59.687 114.352 51.2478 122.791 51.2478 133.201C51.2478 143.612 59.687 152.051 70.0973 152.051Z" fill="#EEFDFE"/>
<path d="M109.296 135.652C110.367 129.055 105.887 122.839 99.29 121.768C92.693 120.698 86.4771 125.177 85.4062 131.774C84.3354 138.371 88.8152 144.587 95.4122 145.658C102.009 146.729 108.225 142.249 109.296 135.652Z" fill="#EEFDFE"/>
<path d="M137.218 140.695C144.588 133.325 144.588 121.376 137.218 114.006C129.847 106.636 117.898 106.636 110.528 114.006C103.158 121.376 103.158 133.325 110.528 140.695C117.898 148.066 129.847 148.066 137.218 140.695Z" fill="#EEFDFE"/>
<path d="M164.173 118.505C166.287 109.651 160.823 100.76 151.97 98.6458C143.116 96.5316 134.224 101.995 132.11 110.849C129.996 119.703 135.46 128.594 144.313 130.708C153.167 132.822 162.059 127.359 164.173 118.505Z" fill="#EEFDFE"/>
<path d="M185.345 100.586C187.6 91.3899 181.973 82.1061 172.777 79.8507C163.58 77.5952 154.297 83.222 152.041 92.4186C149.786 101.615 155.413 110.899 164.609 113.154C173.806 115.41 183.089 109.783 185.345 100.586Z" fill="#EEFDFE"/>
<path d="M184.647 97.5382C197.578 97.5382 208.06 87.0557 208.06 74.125C208.06 61.1942 197.578 50.7117 184.647 50.7117C171.716 50.7117 161.234 61.1942 161.234 74.125C161.234 87.0557 171.716 97.5382 184.647 97.5382Z" fill="#EEFDFE"/>
<path d="M195.342 58.7067C200.831 58.7067 205.281 54.2566 205.281 48.7672C205.281 43.2778 200.831 38.8278 195.342 38.8278C189.852 38.8278 185.402 43.2778 185.402 48.7672C185.402 54.2566 189.852 58.7067 195.342 58.7067Z" fill="#EEFDFE"/>
<path d="M200.054 42.6709C211.683 42.6709 221.111 33.2433 221.111 21.6139C221.111 9.98438 211.683 0.556824 200.054 0.556824C188.424 0.556824 178.997 9.98438 178.997 21.6139C178.997 33.2433 188.424 42.6709 200.054 42.6709Z" fill="#EEFDFE"/>
<path d="M36.1047 187.769C38.0104 187.845 39.8018 187.438 41.4534 186.574C43.1685 186.015 44.6676 185.063 45.9254 183.703C47.2848 182.445 48.2377 180.959 48.7967 179.231C49.6606 177.58 50.0671 175.801 49.9909 173.882L49.4954 170.198C48.8348 167.848 47.6405 165.802 45.9254 164.074L43.1177 161.902C40.9579 160.644 38.6202 160.009 36.1174 160.009C34.2117 159.933 32.4203 160.339 30.7687 161.203C29.0536 161.762 27.5545 162.715 26.2967 164.074C24.9373 165.332 23.9844 166.819 23.4254 168.547C22.5615 170.198 22.155 171.977 22.2312 173.895L22.7267 177.58C23.3873 179.93 24.5816 181.975 26.2967 183.703L29.1044 185.876C31.2642 187.133 33.6019 187.769 36.1047 187.769Z" fill="#EEFDFE"/>
<path d="M49.4488 208.889C62.023 208.889 62.0475 188.889 49.4488 188.889C36.8501 188.889 36.8501 208.889 49.4488 208.889Z" fill="#EEFDFE"/>
<path d="M66.1111 218.889C71.2962 218.889 71.2962 210 66.1111 210C60.9259 210 60.9259 218.889 66.1111 218.889Z" fill="#EEFDFE"/>
<path d="M46.8909 113.101L46.5242 112.829C45.8414 112.429 45.1207 112.222 44.3367 112.222C43.5528 112.222 42.8194 112.429 42.1493 112.829C40.8216 113.618 39.9998 115.103 39.9998 116.667C39.9998 118.23 40.8343 119.716 42.1493 120.504C42.8321 120.904 43.5528 121.111 44.3367 121.111C45.1207 121.111 45.854 120.904 46.5242 120.504L46.8909 120.232C47.4978 119.871 47.9783 119.38 48.3323 118.76C48.699 118.114 48.876 117.429 48.8886 116.68C48.8886 115.93 48.699 115.245 48.3323 114.599C47.9783 113.979 47.4978 113.488 46.8909 113.127V113.101Z" fill="#F76F63"/>
<path d="M7.22427 241.111C15.3631 241.111 15.3755 227.778 7.22427 227.778C-0.92697 227.778 -0.92697 241.111 7.22427 241.111Z" fill="#F76F63"/>
<path d="M158.891 23.3334C163.327 23.3334 163.338 16.6667 158.891 16.6667C154.444 16.6667 154.444 23.3334 158.891 23.3334Z" fill="#F76F63"/>
<path d="M177.222 38.8889C180.926 38.8889 180.926 34.4445 177.222 34.4445C173.518 34.4445 173.518 38.8889 177.222 38.8889Z" fill="#F7C42B"/>
<path d="M46.6542 284.57C46.6542 284.57 46.6542 284.459 46.6666 284.398C46.6666 283.204 46.3558 282.096 45.759 281.061L44.7148 279.72C43.8818 278.907 42.8997 278.341 41.7684 278.021C40.8857 277.75 39.9906 277.701 39.1079 277.898C38.2252 277.934 37.3923 278.193 36.634 278.685C35.8632 279.104 35.2291 279.67 34.7691 280.384C34.1848 281.025 33.787 281.776 33.5757 282.625C33.2524 283.795 33.2524 284.964 33.5757 286.134C33.5881 286.183 33.613 286.244 33.6254 286.294C33.8367 287.143 34.2221 287.894 34.8189 288.522C35.2913 289.236 35.9129 289.802 36.6837 290.209L38.2625 290.873C39.1452 291.144 40.0279 291.181 40.9106 290.997C41.5073 290.997 42.0667 290.849 42.5889 290.553C43.4094 290.282 44.118 289.839 44.7272 289.199L45.759 287.869C46.3558 286.848 46.6666 285.74 46.6666 284.558L46.6542 284.57Z" fill="#F7C42B"/>
<path d="M57.2248 256.667C59.436 256.667 59.4508 253.333 57.2248 253.333C54.9989 253.333 54.9989 256.667 57.2248 256.667Z" fill="#F7C42B"/>
<path d="M24.4469 262.222C27.3999 262.222 27.4131 257.778 24.4469 257.778C21.4806 257.778 21.4806 262.222 24.4469 262.222Z" fill="#F7C42B"/>
<path d="M182.78 156.667C187.955 156.667 187.969 148.889 182.78 148.889C177.592 148.889 177.592 156.667 182.78 156.667Z" fill="#F7C42B"/>
<path d="M25.6474 91.0632L25.692 91.2079C25.692 91.2079 25.7031 91.2524 25.7143 91.2746C25.7477 91.397 25.8035 91.5083 25.8592 91.6196C25.8926 91.7531 25.9372 91.8755 26.0153 91.9757C26.2605 92.3874 26.5838 92.7101 26.9963 92.9549C27.4199 93.1997 27.8881 93.3221 28.3787 93.3333L29.1033 93.2331C29.5715 93.0996 29.9728 92.8659 30.3073 92.5321C30.5748 92.2873 30.7643 91.9868 30.8758 91.653C31.043 91.3303 31.1211 90.9742 31.1099 90.5958C31.1099 90.1062 30.9873 89.6388 30.7309 89.216C30.4856 88.8043 30.1623 88.4815 29.7499 88.2367L29.7164 88.2145L29.0698 87.9363C29.0698 87.9363 29.0141 87.914 28.9918 87.914L28.8469 87.8695C28.3898 87.7471 27.9216 87.7471 27.4645 87.8695C27.0186 87.9919 26.6396 88.2145 26.3163 88.5372C25.993 88.8599 25.77 89.2494 25.6474 89.6834C25.5248 90.1396 25.5248 90.607 25.6474 91.0632Z" fill="#F7C42B"/>
<path d="M26.6665 176.211C27.028 180.167 29.1473 183.465 32.8374 184.87C36.5275 186.274 41.0029 185.591 43.1721 182.177C43.7081 181.339 42.8105 180.103 41.888 180.437C39.4197 181.326 37.2131 182.563 34.4954 182.035C31.491 181.442 29.0476 178.879 27.9505 176.018C27.7012 175.374 26.6042 175.374 26.679 176.199L26.6665 176.211Z" fill="#1D1D1B"/>
<path d="M45.5554 204.164C45.6321 206.141 47.4474 207.498 49.0197 207.735C49.8762 207.853 50.7583 207.735 51.5381 207.307C52.4713 206.805 52.8548 206.126 53.251 205.064C53.5706 204.208 52.9059 203.353 52.1517 203.795C51.2568 204.312 52.6502 203.677 51.6403 203.913C51.3719 203.972 51.129 204.061 50.8733 204.12C50.362 204.253 49.8634 204.326 49.3393 204.312C48.2527 204.282 47.4602 203.766 46.463 203.367C46.0412 203.205 45.5426 203.648 45.5682 204.149L45.5554 204.164Z" fill="#1D1D1B"/>
<path d="M29.9998 125.07C30.6168 133.028 36.9633 140.746 44.7313 139.942C45.6017 139.846 45.9433 138.382 44.9516 138.154C38.3847 136.677 32.6993 132.356 31.1677 124.902C31.0245 124.206 29.9447 124.338 30.0108 125.07H29.9998Z" fill="#1D1D1B"/>
<path d="M148.695 127.778C159.248 126.608 167.934 117.611 166.514 107.196C166.443 106.667 165.539 106.397 165.422 107.05C163.873 115.867 157.604 123.583 148.436 125.99C147.45 126.248 147.603 127.89 148.683 127.767L148.695 127.778Z" fill="#1D1D1B"/>
<path d="M168.259 84.2757C175.23 85.5644 180.635 79.2387 182.19 73.1922C182.433 72.2686 181.23 71.882 180.69 72.58C177.348 76.9511 175.241 83.2554 168.424 83.0084C167.696 82.9869 167.509 84.136 168.248 84.2757H168.259Z" fill="#1D1D1B"/>
<path d="M24.1091 72.6975C21.0537 69.719 18.0456 67.0534 15.8397 63.3447C13.6337 59.636 12.513 55.7998 11.5929 51.6739C11.3923 50.7815 10.0593 51.0249 10.0239 51.8825C9.59927 60.4589 14.8016 70.5187 22.835 74.3317C23.8731 74.83 25.0174 73.5668 24.1208 72.6975H24.1091Z" fill="#1D1D1B"/>
<path d="M127.578 73.9222C125.845 73.9222 124.689 72.9 124.689 71.2556V50.6778H119.622C118.556 57.0778 113.889 60.9 107.978 60.9C105.845 60.9 103.889 60.4111 102.067 59.3889C98.3336 57.3889 96.0669 53.3 96.0669 47.9222C96.0669 45.1222 96.6002 42.7667 97.7113 40.8556C99.8447 36.9889 103.667 34.9445 107.978 34.9445C109.889 34.9445 111.622 35.3445 113.267 36.1445C116.689 37.7889 119 41.0333 119.667 45.3445H124.689V34.0111C124.689 32.3667 125.845 31.3445 127.578 31.3445H127.8C129.534 31.3445 130.689 32.3667 130.689 34.0111V71.2556C130.689 72.9 129.534 73.9222 127.8 73.9222H127.578ZM101.845 47.9222C101.845 52.5 104.511 55.5667 107.978 55.5667C111.222 55.5667 114.067 52.7222 114.067 47.9222C114.067 43.1667 111.222 40.2778 107.978 40.2778C104.511 40.2778 101.845 43.4333 101.845 47.9222Z" fill="#333333"/>
<path d="M76.6585 74.9445C69.8585 74.9445 65.4585 70.5889 65.4585 64.5889C65.4585 58.7222 69.9474 54.2333 76.6585 54.2333C83.2807 54.2333 87.8585 58.5889 87.8585 64.5889C87.8585 70.6333 83.2807 74.9445 76.6585 74.9445ZM55.5029 42.7667C55.5029 36.7222 60.0807 32.4111 66.614 32.4111C73.3696 32.4111 77.6363 36.7667 77.6363 42.6333C77.6363 48.9445 72.8363 53.0778 66.614 53.0778C59.7696 53.0778 55.5029 48.7222 55.5029 42.7667ZM61.2363 42.7667C61.2363 45.7889 63.414 47.7889 66.614 47.7889C69.6807 47.7889 71.9029 45.7889 71.9029 42.7667C71.9029 39.7445 69.6807 37.7 66.614 37.7C63.5474 37.7 61.2363 39.7889 61.2363 42.7667ZM71.2363 64.5889C71.2363 67.5667 73.4585 69.6111 76.6585 69.6111C79.8585 69.6111 82.0807 67.5667 82.0807 64.5889C82.0807 61.7 79.8585 59.5667 76.6585 59.5667C73.4585 59.5667 71.2363 61.7 71.2363 64.5889ZM77.7252 47.3445C77.7252 45.7 78.7474 44.6778 80.4807 44.6778H83.3696V40.4111H80.4807C78.7474 40.4111 77.7252 39.3889 77.7252 37.7445C77.7252 36.1 78.7474 35.0778 80.4807 35.0778H83.3696V34.0111C83.3696 32.3667 84.5252 31.3445 86.2585 31.3445H86.4807C88.214 31.3445 89.3696 32.3667 89.3696 34.0111V52.2778C89.3696 53.9222 88.214 54.9445 86.4807 54.9445H86.2585C84.5252 54.9445 83.3696 53.9222 83.3696 52.2778V50.0111H80.4807C78.7474 50.0111 77.7252 48.9889 77.7252 47.3445Z" fill="#333333"/>
</g>
<rect x="0.5" y="0.5" width="199" height="299" rx="3.5" stroke="#DDDDDD"/>
<defs>
<clipPath id="clip0_252_5652">
<rect width="200" height="300" rx="4" fill="white"/>
</clipPath>
</defs>
</svg>
