<svg width="1920" height="1394" viewBox="0 0 1920 1394" fill="none" xmlns="http://www.w3.org/2000/svg">
<g opacity="0.1" clip-path="url(#clip0_1793_236)">
<path d="M711.786 146.698C574.573 146.698 462.754 35.2553 462.754 -102H524.193C524.193 1.24879 608.159 85.2409 711.376 85.2409C814.594 85.2409 898.56 1.24879 898.56 -102H959.999C960.408 35.2553 848.59 146.698 711.786 146.698Z" fill="#FE4646"/>
<path d="M1487.81 1457L1692.89 1343.8L1690.83 1457H1752.48L1756.28 1272.68C1756.6 1257.28 1740.12 1247.31 1726.63 1254.75L1360 1457H1487.81Z" fill="#FEB50C"/>
<path d="M-20 245.303V338.42L79.1475 408.946L-20 549.448V680.583L173.882 407.09C180.273 398.075 178.142 385.585 169.123 379.2L-20 245.303Z" fill="#49AB6C"/>
<path d="M2109.74 573.667C2030.06 505.311 1960.09 405.811 1915.19 334.22C1911.15 328.153 1899.42 308.738 1877.98 323.299C1678.17 463.246 1678.17 463.246 1690.31 485.088C1693.14 489.537 1696.78 495.604 1701.23 502.48L1712.15 493.986C1711.34 491.964 1711.34 489.537 1712.15 487.11C1713.77 480.639 1720.64 476.998 1727.11 478.616C1733.59 480.234 1737.23 487.11 1735.61 493.582C1733.99 500.053 1727.11 503.693 1720.64 502.075C1719.43 501.671 1718.62 501.267 1717.81 500.862L1706.08 509.76C1712.55 519.872 1720.64 532.006 1729.54 545.354L1741.68 535.647C1740.87 533.624 1740.87 531.197 1741.68 528.771C1743.29 522.299 1750.17 518.659 1756.64 520.277C1763.11 521.895 1766.75 528.771 1765.14 535.242C1763.52 541.714 1756.64 545.354 1750.17 543.736C1748.96 543.331 1748.15 542.927 1747.34 542.523L1734.4 552.23C1742.08 563.555 1750.98 575.689 1760.28 588.228L1772.82 578.52C1772.01 576.498 1772.01 574.071 1772.82 571.644C1774.44 565.173 1781.31 561.533 1787.79 563.151C1794.26 564.768 1797.9 571.644 1796.28 578.116C1794.66 584.588 1787.79 588.228 1781.31 586.61C1780.1 586.205 1779.29 585.801 1778.48 585.396L1765.54 595.508C1774.44 607.238 1783.74 619.372 1793.85 631.506L1806.39 621.799C1805.58 619.776 1805.58 617.35 1806.39 614.923C1808.01 608.451 1814.89 604.811 1821.36 606.429C1827.83 608.047 1831.47 614.923 1829.85 621.394C1828.23 627.866 1821.36 631.506 1814.89 629.888C1813.67 629.484 1812.86 629.079 1812.05 628.675L1799.11 637.169C1809.22 649.303 1819.33 661.033 1830.26 672.762L1841.98 663.459C1841.18 661.437 1841.18 659.01 1841.98 656.583C1843.6 650.112 1850.48 646.472 1856.95 648.089C1863.42 649.707 1867.06 656.583 1865.44 663.055C1863.83 669.526 1856.95 673.167 1850.48 671.549C1849.27 671.144 1848.46 670.74 1847.65 670.335L1836.32 679.234C1839.15 682.065 1841.58 684.896 1844.41 687.728C1854.93 698.648 1863.42 707.142 1870.3 714.018L1881.22 705.524C1880.41 703.502 1880.41 701.075 1881.22 698.648C1882.84 692.177 1889.71 688.537 1896.18 690.154C1902.66 691.772 1906.3 698.648 1904.68 705.12C1903.06 711.591 1896.18 715.232 1889.71 713.614C1888.5 713.209 1887.69 712.805 1886.88 712.4L1876.77 720.085C1896.59 737.882 1904.27 737.073 1922.47 724.939C2120.26 585.396 2120.26 585.396 2109.74 573.667Z" fill="#73ABFF"/>
<path d="M2066.22 566.839L1917.38 675.75L1919.29 678.361L2068.14 569.45L2066.22 566.839Z" fill="white"/>
<path d="M2038.41 539.008L1889.19 648.084L1891.1 650.696L2040.32 541.62L2038.41 539.008Z" fill="white"/>
<path d="M2013.08 510.624L1863.15 620.103L1865.06 622.716L2014.99 513.237L2013.08 510.624Z" fill="white"/>
<path d="M1988.55 482.801L1838.21 592.426L1840.12 595.04L1990.45 485.416L1988.55 482.801Z" fill="white"/>
<path d="M1964.94 453.944L1814.48 563.556L1816.5 566.387L1966.97 456.371L1964.94 453.944Z" fill="white"/>
<path d="M1942.03 423.249L1790.93 533.201L1792.83 535.817L1943.93 425.865L1942.03 423.249Z" fill="white"/>
<path d="M1919.43 390.661L1767.95 500.757L1769.85 503.374L1921.33 393.278L1919.43 390.661Z" fill="white"/>
<path d="M1896.03 355.522L1744.17 465.78L1746.07 468.399L1897.93 358.14L1896.03 355.522Z" fill="white"/>
</g>
<defs>
<clipPath id="clip0_1793_236">
<rect width="1920" height="1433" fill="white"/>
</clipPath>
</defs>
</svg>
