<svg width="1921" height="260" viewBox="0 0 1921 260" fill="none" xmlns="http://www.w3.org/2000/svg">
<path d="M113.572 183.52C109.037 186.206 102.607 184.75 99.5923 180.35C98.4627 178.706 97.7874 176.604 98.3013 174.663C98.8151 172.723 100.781 171.144 102.692 171.58C101.83 169.958 101.41 167.934 102.174 166.26C102.939 164.585 105.202 163.626 106.659 164.712C106.361 163.146 107.058 161.428 108.349 160.538C109.64 159.649 111.449 159.636 112.753 160.508C113.228 160.826 113.662 161.262 114.214 161.397C114.706 161.515 115.22 161.376 115.725 161.328C118.405 161.079 120.851 164.066 120.155 166.735C121.798 165.414 124.435 166.761 125.14 168.776C125.845 170.795 125.178 173.036 124.312 174.986C126.457 175.151 128.168 177.336 128.126 179.547C128.083 181.758 126.491 183.764 124.478 184.545C122.465 185.325 120.138 184.976 118.252 183.912C117.624 183.559 116.944 183.114 116.252 183.293C115.823 183.402 115.488 183.734 115.105 183.969C114.158 184.558 112.867 184.492 111.98 183.816" fill="#B3C77D"/>
<path d="M110.995 205.712C112.32 205.708 113.649 205.703 114.974 205.699C114.787 200.645 114.604 195.595 114.418 190.541C114.362 189.006 114.307 187.436 114.757 185.971C115.598 183.223 118.019 181.357 120.295 179.678C118.983 180.393 117.67 181.104 116.362 181.819C115.887 182.081 115.063 182.861 114.536 182.752C113.551 182.547 113.551 180.751 113.462 179.722C113.25 177.266 113.042 174.811 112.829 172.361C112.557 175.531 112.044 178.679 111.3 181.767C111.22 182.103 111.084 182.495 110.757 182.587C110.477 182.661 110.201 182.473 109.971 182.295C108.009 180.768 106.052 179.242 104.09 177.716C105.771 180.62 108.022 183.175 110.668 185.181C110.668 185.181 111.224 198.757 110.995 205.721V205.712Z" fill="#BF8348"/>
<path d="M465.207 193.694C461.262 193.212 458.584 190.162 458.149 187.154C457.714 184.146 459.007 181.166 460.281 178.296C461.536 175.468 462.517 174.466 463.58 172.907C464.395 171.716 466.136 171.848 466.801 173.135C468.025 175.507 469.386 176.961 470.42 180.587C471.053 182.812 471.693 185.094 471.293 187.349C470.805 190.108 468.697 192.681 465.648 194.237" fill="#B3C77D"/>
<path d="M464.068 193.706C463.975 192.174 463.315 190.686 462.249 189.61C462.792 190.192 463.332 190.776 463.875 191.358C464.013 191.505 464.182 191.664 464.378 191.634C464.652 191.592 464.74 191.238 464.766 190.956C464.865 189.865 464.965 188.776 465.067 187.685C464.953 188.581 464.865 189.58 465.397 190.299C465.928 191.019 467.315 190.986 467.467 190.099C465.925 194.699 465.73 199.764 466.909 204.475C465.914 204.373 464.915 204.268 463.919 204.163C464.778 200.15 464.743 195.943 463.823 191.946" fill="#BF8348"/>
<path d="M450.71 188.813C445.88 188.222 442.601 184.489 442.069 180.806C441.536 177.124 443.12 173.475 444.679 169.961C446.216 166.499 447.417 165.273 448.718 163.364C449.716 161.907 451.847 162.068 452.662 163.643C454.16 166.547 455.826 168.328 457.091 172.766C457.867 175.49 458.65 178.284 458.16 181.045C457.563 184.422 454.982 187.572 451.25 189.478" fill="#B3C77D"/>
<path d="M449.316 188.828C449.201 186.952 448.393 185.131 447.088 183.813C447.753 184.525 448.415 185.241 449.08 185.953C449.248 186.133 449.455 186.328 449.695 186.291C450.031 186.24 450.138 185.807 450.17 185.461C450.292 184.125 450.413 182.792 450.538 181.456C450.399 182.554 450.292 183.776 450.942 184.657C451.593 185.539 453.291 185.498 453.477 184.411C451.589 190.043 451.35 196.244 452.794 202.011C451.575 201.887 450.352 201.758 449.133 201.63C450.184 196.718 450.142 191.567 449.015 186.673" fill="#BF8348"/>
<path d="M217.886 170.432C218.092 168.501 217.748 166.561 217.064 164.743C216.448 163.093 215.618 161.443 214.217 160.381C211.701 158.467 208.145 158.975 205.096 159.81C203.1 160.36 201.037 161.07 199.641 162.606C196.886 165.642 197.913 169.869 199.724 173.551C202.371 178.925 217.048 178.19 217.878 170.436L217.886 170.432Z" fill="#B3C77D"/>
<path d="M206.87 177.892C207.583 184.835 207.05 188.761 207.273 194.176C207.302 194.865 206.811 196.225 208.476 196.355C210.46 196.511 210.393 195.205 209.994 193.668C208.849 189.281 209.172 184.483 209.223 179.953C209.239 178.635 209.281 177.274 209.814 176.07C210.925 173.559 214.087 171.615 213.399 168.958C212.07 170.331 210.741 171.703 209.407 173.076C209.185 173.303 208.933 173.546 208.615 173.555C208.296 173.563 208.023 173.332 207.793 173.114C206.321 171.72 204.954 170.213 203.708 168.609C205.1 171.053 206.749 176.804 206.862 177.892H206.87Z" fill="#BF8348"/>
<path d="M1374.11 183.964C1368.72 187.154 1361.08 185.424 1357.5 180.198C1356.16 178.245 1355.36 175.749 1355.97 173.444C1356.58 171.139 1358.91 169.264 1361.18 169.782C1360.16 167.855 1359.66 165.452 1360.57 163.463C1361.48 161.474 1364.17 160.335 1365.9 161.624C1365.54 159.765 1366.37 157.724 1367.9 156.668C1369.44 155.611 1371.58 155.595 1373.13 156.631C1373.7 157.009 1374.21 157.527 1374.87 157.688C1375.45 157.828 1376.06 157.662 1376.66 157.605C1379.85 157.31 1382.75 160.858 1381.92 164.028C1383.88 162.458 1387.01 164.059 1387.85 166.452C1388.68 168.85 1387.89 171.512 1386.86 173.827C1389.41 174.024 1391.44 176.619 1391.39 179.245C1391.34 181.871 1389.45 184.254 1387.06 185.181C1384.67 186.108 1381.9 185.693 1379.67 184.43C1378.92 184.01 1378.11 183.482 1377.29 183.694C1376.78 183.824 1376.38 184.217 1375.93 184.497C1374.8 185.196 1373.27 185.119 1372.22 184.316" fill="#B3C77D"/>
<path d="M1371.05 210.322C1372.62 210.317 1374.2 210.311 1375.77 210.306C1375.55 204.303 1375.33 198.305 1375.11 192.302C1375.04 190.479 1374.98 188.614 1375.51 186.874C1376.51 183.611 1379.39 181.394 1382.09 179.4C1380.53 180.25 1378.97 181.094 1377.42 181.943C1376.86 182.254 1375.88 183.181 1375.25 183.052C1374.08 182.808 1374.08 180.674 1373.98 179.452C1373.72 176.536 1373.48 173.62 1373.22 170.709C1372.9 174.474 1372.29 178.214 1371.41 181.881C1371.31 182.28 1371.15 182.746 1370.76 182.855C1370.43 182.943 1370.1 182.72 1369.83 182.508C1367.5 180.695 1365.17 178.882 1362.84 177.069C1364.84 180.519 1367.51 183.554 1370.66 185.937C1370.66 185.937 1371.32 202.06 1371.05 210.332V210.322Z" fill="#BF8348"/>
<path d="M1832.81 260.345C1827.33 259.674 1823.61 255.439 1823.01 251.262C1822.41 247.085 1824.2 242.946 1825.97 238.96C1827.71 235.033 1829.08 233.642 1830.55 231.477C1831.68 229.824 1834.1 230.007 1835.03 231.793C1836.73 235.087 1838.61 237.107 1840.05 242.142C1840.93 245.232 1841.82 248.401 1841.26 251.533C1840.59 255.364 1837.66 258.937 1833.42 261.099" fill="#B7D16F"/>
<path d="M1831.23 260.361C1831.1 258.233 1830.18 256.167 1828.7 254.672C1829.46 255.48 1830.21 256.292 1830.96 257.1C1831.15 257.304 1831.39 257.525 1831.66 257.483C1832.04 257.425 1832.16 256.934 1832.2 256.542C1832.34 255.026 1832.48 253.515 1832.62 251.999C1832.46 253.244 1832.34 254.631 1833.08 255.63C1833.81 256.63 1835.74 256.584 1835.95 255.351C1833.81 261.739 1833.54 268.773 1835.18 275.316C1833.79 275.174 1832.41 275.028 1831.02 274.882C1832.22 269.31 1832.17 263.468 1830.89 257.916" fill="#BF8348"/>
<path d="M1707.74 173.028C1703.36 175.623 1697.15 174.216 1694.24 169.966C1693.15 168.377 1692.5 166.347 1692.99 164.472C1693.49 162.598 1695.39 161.073 1697.23 161.494C1696.4 159.927 1695.99 157.972 1696.73 156.355C1697.47 154.737 1699.66 153.81 1701.06 154.859C1700.78 153.347 1701.45 151.687 1702.7 150.828C1703.94 149.969 1705.69 149.956 1706.95 150.798C1707.41 151.106 1707.83 151.527 1708.36 151.658C1708.84 151.772 1709.34 151.637 1709.82 151.59C1712.41 151.35 1714.77 154.236 1714.1 156.814C1715.69 155.538 1718.24 156.839 1718.92 158.785C1719.6 160.736 1718.95 162.901 1718.12 164.784C1720.19 164.944 1721.84 167.055 1721.8 169.19C1721.76 171.326 1720.22 173.264 1718.28 174.018C1716.33 174.772 1714.09 174.435 1712.26 173.407C1711.66 173.066 1711 172.636 1710.33 172.809C1709.92 172.914 1709.59 173.235 1709.22 173.462C1708.31 174.031 1707.06 173.967 1706.21 173.315" fill="#CAE387"/>
<path d="M1705.25 194.466C1706.53 194.461 1707.82 194.457 1709.1 194.453C1708.92 189.571 1708.74 184.693 1708.56 179.81C1708.51 178.327 1708.45 176.811 1708.89 175.396C1709.7 172.742 1712.04 170.939 1714.24 169.317C1712.97 170.008 1711.7 170.694 1710.44 171.385C1709.98 171.638 1709.18 172.392 1708.67 172.287C1707.72 172.089 1707.72 170.353 1707.64 169.359C1707.43 166.987 1707.23 164.616 1707.03 162.248C1706.76 165.311 1706.27 168.352 1705.55 171.335C1705.47 171.659 1705.34 172.038 1705.02 172.127C1704.75 172.198 1704.49 172.017 1704.26 171.844C1702.37 170.37 1700.48 168.896 1698.58 167.421C1700.21 170.227 1702.38 172.695 1704.94 174.633C1704.94 174.633 1705.47 187.747 1705.25 194.474V194.466Z" fill="#BF8348"/>
<path d="M1690.19 178.027C1684.48 177.329 1680.61 172.917 1679.98 168.565C1679.35 164.214 1681.22 159.902 1683.06 155.75C1684.88 151.659 1686.3 150.21 1687.84 147.954C1689.02 146.232 1691.53 146.423 1692.5 148.284C1694.27 151.715 1696.24 153.819 1697.73 159.064C1698.65 162.284 1699.57 165.585 1698.99 168.847C1698.29 172.839 1695.24 176.561 1690.83 178.813" fill="#B3C77D"/>
<path d="M1688.54 178.044C1688.41 175.827 1687.45 173.676 1685.91 172.118C1686.7 172.96 1687.48 173.806 1688.26 174.647C1688.46 174.86 1688.71 175.09 1688.99 175.047C1689.39 174.986 1689.51 174.474 1689.55 174.066C1689.7 172.487 1689.84 170.912 1689.99 169.333C1689.82 170.63 1689.7 172.075 1690.46 173.116C1691.23 174.157 1693.24 174.11 1693.46 172.825C1691.23 179.48 1690.95 186.808 1692.65 193.623C1691.21 193.476 1689.77 193.324 1688.33 193.172C1689.57 187.367 1689.52 181.281 1688.19 175.498" fill="#BF8348"/>
<path d="M1787.84 167.189C1788.18 164.021 1787.62 160.838 1786.5 157.856C1785.48 155.148 1784.12 152.441 1781.82 150.699C1777.7 147.557 1771.86 148.391 1766.86 149.762C1763.58 150.664 1760.2 151.828 1757.91 154.349C1753.39 159.33 1755.07 166.266 1758.04 172.307C1762.39 181.125 1786.47 179.919 1787.83 167.196L1787.84 167.189Z" fill="#CAE386"/>
<path d="M1769.77 179.43C1770.94 190.823 1770.06 197.264 1770.43 206.15C1770.48 207.28 1769.67 209.512 1772.4 209.725C1775.66 209.98 1775.55 207.838 1774.9 205.317C1773.02 198.118 1773.55 190.245 1773.63 182.812C1773.66 180.649 1773.73 178.417 1774.6 176.44C1776.42 172.321 1781.61 169.132 1780.48 164.771C1778.3 167.024 1776.12 169.276 1773.93 171.529C1773.57 171.901 1773.15 172.3 1772.63 172.314C1772.11 172.328 1771.66 171.949 1771.28 171.591C1768.87 169.304 1766.62 166.831 1764.58 164.2C1766.87 168.209 1769.57 177.646 1769.76 179.43H1769.77Z" fill="#BF8348"/>
<path d="M1440.17 220.529H1434.12L1435.93 167.636H1438.37L1440.17 220.529Z" fill="#CEDED3"/>
<path d="M1437.18 167.623C1435.91 167.648 1434.83 166.609 1434.82 165.32C1434.82 165.32 1435.48 139.324 1436.76 139.299C1438.03 139.274 1439.47 165.245 1439.47 165.245C1439.5 166.522 1438.46 167.598 1437.17 167.611L1437.18 167.623Z" fill="#CEDED3"/>
<path d="M1435.98 164.845C1436.52 163.681 1437.91 163.167 1439.07 163.706C1439.07 163.706 1462.2 175.583 1461.66 176.747C1461.12 177.911 1437.11 167.936 1437.11 167.936C1435.94 167.398 1435.43 166.009 1435.97 164.845H1435.98Z" fill="#CEDED3"/>
<path d="M1438.32 164.97C1438.86 166.134 1438.35 167.523 1437.18 168.061C1437.18 168.061 1413.17 178.037 1412.63 176.873C1412.09 175.709 1435.22 163.831 1435.22 163.831C1436.38 163.293 1437.77 163.806 1438.31 164.97H1438.32Z" fill="#CEDED3"/>
<path d="M1440.49 165.721C1440.49 167.561 1439 169.062 1437.15 169.062C1435.29 169.062 1433.8 167.573 1433.8 165.721C1433.8 163.868 1435.29 162.379 1437.15 162.379C1439 162.379 1440.49 163.868 1440.49 165.721Z" fill="#BDCEBF"/>
<path d="M1324.8 223.091H1318.73L1320.54 170.21H1322.98L1324.8 223.091Z" fill="#CEDED3"/>
<path d="M1324.09 167.594C1324.36 168.845 1323.56 170.097 1322.29 170.36C1322.29 170.36 1296.67 174.728 1296.4 173.464C1296.14 172.212 1321.33 165.792 1321.33 165.792C1322.58 165.529 1323.83 166.33 1324.09 167.594Z" fill="#CEDED3"/>
<path d="M1321.6 169.309C1320.35 169.008 1319.59 167.731 1319.89 166.492C1319.89 166.492 1327.09 141.51 1328.34 141.81C1329.59 142.111 1324.42 167.606 1324.42 167.606C1324.12 168.858 1322.84 169.621 1321.6 169.321V169.309Z" fill="#CEDED3"/>
<path d="M1321.27 166.98C1322.31 166.23 1323.77 166.455 1324.52 167.494C1324.52 167.494 1338.94 189.134 1337.9 189.885C1336.86 190.636 1320.75 170.235 1320.75 170.235C1320 169.196 1320.23 167.731 1321.27 166.98Z" fill="#CEDED3"/>
<path d="M1325.1 168.282C1325.1 170.122 1323.61 171.624 1321.75 171.624C1319.9 171.624 1318.41 170.135 1318.41 168.282C1318.41 166.43 1319.9 164.94 1321.75 164.94C1323.61 164.94 1325.1 166.43 1325.1 168.282Z" fill="#BDCEBF"/>
<path fill-rule="evenodd" clip-rule="evenodd" d="M1024.66 362.936C1024.82 362.999 1024.91 363.031 1024.91 363.031V362.936H1980.49V216.534C1546.39 154.517 1379.3 206.736 1123.66 286.632C1078.37 300.786 1030.3 315.808 977.481 331.217C973.203 332.475 966.452 334.81 958.578 337.667C950.704 334.81 943.954 332.475 939.675 331.217C886.853 315.808 838.787 300.786 793.5 286.632C537.853 206.736 370.768 154.517 -63.3323 216.534V362.936H892.251V363.031C892.251 363.031 892.333 362.999 892.492 362.936H1024.66Z" fill="#74A667"/>
<path d="M1705.53 188.697C1712.11 181.758 1722.98 179.27 1731.86 182.747C1733.17 183.254 1734.54 183.896 1735.93 183.942C1737.38 183.991 1738.72 183.505 1740.12 183.287C1744.44 182.569 1748.88 184.506 1752.15 187.465C1755.43 190.424 1756.87 194.912 1758.99 198.76L1609.82 193.795C1610.69 189.582 1612.75 185.343 1615.83 182.33C1618.9 179.384 1623.52 177.815 1627.58 179.209C1629.67 179.941 1631.41 181.391 1633.08 182.838C1634.68 180.439 1637.64 179.146 1640.48 179.241C1643.32 179.335 1646.06 180.553 1648.39 182.155C1650.14 179.165 1653.66 176.697 1656.88 175.479C1660.16 174.262 1663.68 173.982 1667.17 174.297C1672.26 174.665 1677.3 176.159 1681.58 178.886C1685.85 181.613 1689.42 185.642 1691.32 190.41C1691.82 189.102 1693.11 188.283 1694.38 187.795C1695.65 187.307 1697.05 187.155 1698.44 187.135C1700.62 187.075 1703 187.287 1704.74 188.604" fill="#B3CC79"/>
<path d="M514.451 199.506C510.661 194.503 503.712 192.088 497.627 193.723C496.724 193.997 495.82 194.272 494.889 194.216C493.958 194.16 493.06 193.703 492.178 193.444C489.402 192.677 486.373 193.659 483.997 195.319C481.691 197.039 480.404 199.871 478.745 202.202L576.7 209.695C576.464 206.857 575.364 203.957 573.595 201.778C571.826 199.598 568.869 198.248 566.142 198.873C564.712 199.191 563.458 200.026 562.27 200.856C561.404 199.2 559.526 198.093 557.664 197.981C555.797 197.804 553.929 198.424 552.281 199.292C551.312 197.179 549.236 195.291 547.166 194.266C545.096 193.241 542.812 192.833 540.556 192.754C537.172 192.636 533.782 193.249 530.797 194.76C527.813 196.27 525.162 198.617 523.623 201.603C523.421 200.755 522.638 200.089 521.811 199.693C520.984 199.296 520.108 199.103 519.237 198.976C517.829 198.76 516.241 198.759 515.047 199.523" fill="#5D9667"/>
<path d="M448.758 200.723L374.665 196.709C374.988 192.996 376.4 189.066 378.827 186.216C379.696 185.231 380.834 184.26 382.129 184.406C383.553 184.526 384.492 185.892 385.214 187.166C385.793 188.064 386.309 188.974 386.888 189.871C387.637 187.289 388.99 185.059 390.881 183.194C392.058 182.081 393.593 181.098 395.209 181.18C397.016 181.223 398.623 182.59 399.896 183.957C402.197 186.468 404.154 189.252 405.701 192.32C405.709 190.697 406.807 189.193 408.266 188.496C409.739 187.863 411.56 187.972 413.036 188.69C412.815 187.585 413.953 186.615 415.081 186.591C416.209 186.568 417.173 187.389 417.829 188.338C419.454 187.135 420.615 185.281 422.214 183.948C425.258 181.514 429.871 180.928 432.993 183.208C436.191 185.54 437.075 189.957 437.663 193.892C439.031 192.403 441.247 191.824 443.197 192.244C445.146 192.665 446.843 194.149 447.54 195.968C448.21 197.32 448.729 199.243 448.758 200.723Z" fill="#74A667"/>
<path d="M1642.56 194.92L1570.83 193.158C1571.06 189.579 1572.33 185.809 1574.58 183.049C1575.38 182.091 1576.46 181.104 1577.71 181.213C1579.1 181.34 1579.99 182.603 1580.77 183.715C1581.31 184.594 1581.86 185.407 1582.41 186.286C1583.09 183.774 1584.33 181.607 1586.12 179.784C1587.28 178.676 1588.69 177.669 1590.29 177.693C1592.1 177.678 1593.59 178.957 1594.88 180.209C1597.16 182.535 1599.13 185.152 1600.73 187.986C1600.76 186.384 1601.7 184.91 1603.13 184.241C1604.56 183.572 1606.28 183.68 1607.73 184.284C1607.47 183.245 1608.55 182.259 1609.62 182.209C1610.7 182.159 1611.66 182.896 1612.34 183.793C1613.91 182.609 1614.97 180.751 1616.48 179.491C1619.36 177.085 1623.8 176.37 1626.91 178.478C1630.08 180.595 1631.03 184.808 1631.7 188.581C1632.97 187.153 1635.13 186.52 1637.02 186.852C1638.91 187.183 1640.58 188.556 1641.34 190.333C1641.96 191.624 1642.56 193.515 1642.56 194.92Z" fill="#5D9667"/>
<path d="M1322.24 209.34L1266.23 212.123C1266.23 209.332 1266.98 206.277 1268.59 203.995C1269.16 203.173 1269.98 202.376 1270.95 202.379C1272.03 202.392 1272.81 203.305 1273.51 204.16C1273.98 204.796 1274.45 205.433 1274.97 206.074C1275.37 204.108 1276.19 202.332 1277.52 200.805C1278.35 199.862 1279.41 199.042 1280.65 198.925C1282.03 198.822 1283.3 199.689 1284.33 200.627C1286.26 202.295 1287.92 204.229 1289.31 206.38C1289.19 205.144 1289.9 203.944 1290.99 203.322C1292.08 202.701 1293.4 202.69 1294.58 203.106C1294.32 202.296 1295.09 201.494 1295.93 201.385C1296.77 201.324 1297.6 201.802 1298.12 202.443C1299.3 201.439 1299.99 199.944 1301.13 198.838C1303.25 196.804 1306.66 195.981 1309.19 197.467C1311.78 198.958 1312.77 202.144 1313.49 205.059C1314.4 203.879 1316.07 203.269 1317.52 203.419C1319.02 203.574 1320.39 204.547 1321.08 205.843C1321.56 206.872 1322.15 208.254 1322.24 209.34Z" fill="#74A667"/>
<path d="M1921.9 211.371L1827.3 201.048C1828.02 196.328 1830.14 191.496 1833.44 188.058C1834.64 186.856 1836.16 185.69 1837.79 186.001C1839.56 186.26 1840.69 188.05 1841.58 189.679C1842.25 190.885 1842.86 192.017 1843.52 193.223C1844.67 190.017 1846.57 187.226 1849.2 185.048C1850.82 183.691 1852.8 182.575 1854.91 182.739C1857.28 182.931 1859.15 184.734 1860.68 186.566C1863.44 189.867 1865.77 193.585 1867.53 197.509C1867.7 195.395 1869.15 193.622 1871.17 192.842C1873.11 192.121 1875.4 192.438 1877.22 193.436C1877.05 192.017 1878.5 190.844 1879.96 190.936C1881.41 191.028 1882.63 192.093 1883.36 193.306C1885.57 191.948 1887.22 189.596 1889.32 188.092C1893.41 185.275 1899.32 184.787 1903.17 187.938C1907.15 191.105 1907.86 196.779 1908.37 201.833C1910.22 200.102 1913.15 199.489 1915.6 200.157C1918.06 200.824 1920.11 202.78 1920.91 205.2C1921.51 206.998 1922.03 209.52 1921.9 211.371Z" fill="#74A667"/>
<path d="M269.051 184.396C273.449 179.37 280.963 177.328 287.259 179.505C288.184 179.822 289.157 180.232 290.127 180.225C291.143 180.218 292.064 179.842 293.032 179.65C296.03 179.028 299.178 180.255 301.547 182.227C303.916 184.2 305.046 187.292 306.635 189.917L202.409 190.643C202.897 187.679 204.215 184.663 206.278 182.474C208.341 180.332 211.519 179.107 214.388 179.966C215.869 180.418 217.123 181.381 218.33 182.344C219.38 180.625 221.406 179.639 223.391 179.626C225.377 179.612 227.322 180.385 228.992 181.437C230.131 179.301 232.52 177.48 234.73 176.54C236.987 175.599 239.432 175.304 241.881 175.426C245.437 175.54 248.999 176.441 252.06 178.223C255.12 180.006 257.725 182.717 259.18 185.992C259.496 185.064 260.37 184.457 261.244 184.081C262.119 183.705 263.088 183.559 264.057 183.506C265.581 183.403 267.244 183.484 268.497 184.354" fill="#B3CC79"/>
<path d="M208.815 191.994L144.405 197.924C144.25 194.705 144.972 191.16 146.758 188.47C147.365 187.525 148.232 186.525 149.372 186.481C150.578 186.424 151.619 187.487 152.36 188.411C152.916 189.104 153.537 189.783 154.106 190.541C154.42 188.236 155.321 186.144 156.758 184.342C157.661 183.198 158.864 182.193 160.249 182.029C161.842 181.888 163.322 182.787 164.622 183.794C166.908 185.604 168.941 187.807 170.664 190.146C170.499 188.758 171.203 187.318 172.462 186.572C173.657 185.839 175.25 185.698 176.567 186.158C176.228 185.215 177.108 184.279 178.092 184.134C179.075 183.99 180.005 184.534 180.704 185.264C181.994 184.036 182.757 182.245 183.969 180.966C186.278 178.502 190.178 177.455 193.212 178.968C196.259 180.545 197.523 184.202 198.575 187.499C199.551 186.068 201.42 185.325 203.133 185.429C204.847 185.533 206.498 186.599 207.352 188.041C207.927 189.136 208.678 190.736 208.815 191.994Z" fill="#74A667"/>
<path d="M92.8993 208.894L-27.3053 218.908C-27.5485 212.882 -26.1061 206.334 -22.8278 201.312C-21.63 199.563 -20.0413 197.72 -17.8553 197.692C-15.5422 197.589 -13.7384 199.582 -12.2837 201.335C-11.1927 202.65 -10.1016 203.964 -9.01062 205.279C-8.33158 200.979 -6.69047 197.139 -3.95539 193.75C-2.24936 191.699 -0.0671478 189.812 2.63193 189.548C5.59481 189.264 8.37819 191.052 10.7048 192.94C14.938 196.415 18.7484 200.453 21.8624 204.94C21.5366 202.307 22.9352 199.681 25.2222 198.318C27.5091 196.954 30.3449 196.746 32.9237 197.553C32.3312 195.804 33.9247 194.026 35.7616 193.759C37.5985 193.491 39.3345 194.559 40.5622 195.93C42.984 193.694 44.4661 190.397 46.7414 187.972C51.1185 183.466 58.3982 181.471 63.9873 184.448C69.6472 187.487 72.0027 194.288 73.7821 200.467C75.6423 197.806 79.1872 196.417 82.3867 196.647C85.5862 196.878 88.6479 198.845 90.1802 201.655C91.3148 203.564 92.6637 206.586 92.8993 208.894Z" fill="#74A667"/>
<path d="M920.251 225C793.051 225 463.918 201.667 315.251 190V290H1602.25V190C1427.92 201.667 1047.45 225 920.251 225Z" fill="#74A667"/>
<path d="M1568.35 195.871H1567.15V214.358H1568.35V195.871Z" fill="#AC7B40"/>
<path d="M1564.67 209.29H1563.47V217.767H1564.67V209.29Z" fill="#AC7B40"/>
<path d="M1564.35 213.157L1563.6 212.207L1567.62 208.958L1568.36 209.897L1564.35 213.157Z" fill="#AC7B40"/>
<path d="M1600.07 213.157L1600.82 212.207L1596.81 208.958L1596.06 209.897L1600.07 213.157Z" fill="#AC7B40"/>
<path d="M1595.91 214.358H1597.1V195.871H1595.91V214.358Z" fill="#AC7B40"/>
<path d="M1599.59 217.756H1600.79V209.279H1599.59V217.756Z" fill="#AC7B40"/>
<path d="M1602.58 209.119H1561.72V210.469H1602.58V209.119Z" fill="#E59C45"/>
<g style="mix-blend-mode:multiply" opacity="0.3">
<path d="M1602.58 209.119H1561.72V210.469H1602.58V209.119Z" fill="#E59C45"/>
</g>
<path d="M1602.57 209.119H1561.72L1564.16 206.979H1600.29L1602.57 209.119Z" fill="#E59C45"/>
<path d="M1600.3 201.145H1564.17V204.52H1600.3V201.145Z" fill="#E59C45"/>
<path d="M1600.3 197.004H1564.17V200.378H1600.3V197.004Z" fill="#E59C45"/>
<path d="M1795.07 205.784H1793.91V223.794H1795.07V205.784Z" fill="#AC7B40"/>
<path d="M1791.48 218.85H1790.33V227.104H1791.48V218.85Z" fill="#AC7B40"/>
<path d="M1791.18 222.615L1790.45 221.704L1794.36 218.528L1795.08 219.439L1791.18 222.615Z" fill="#AC7B40"/>
<path d="M1825.97 222.615L1826.7 221.704L1822.78 218.528L1822.06 219.439L1825.97 222.615Z" fill="#AC7B40"/>
<path d="M1821.92 223.794H1823.08V205.784H1821.92V223.794Z" fill="#AC7B40"/>
<path d="M1825.5 227.104H1826.66V218.85H1825.5V227.104Z" fill="#AC7B40"/>
<path d="M1828.4 218.689H1788.61V220.002H1828.4V218.689Z" fill="#E59C45"/>
<g style="mix-blend-mode:multiply" opacity="0.3">
<path d="M1828.4 218.689H1788.61V220.002H1828.4V218.689Z" fill="#E59C45"/>
</g>
<path d="M1828.4 218.689H1788.61L1790.99 216.612H1826.18L1828.4 218.689Z" fill="#E59C45"/>
<path d="M1826.18 210.93H1790.99V214.213H1826.18V210.93Z" fill="#E59C45"/>
<path d="M1826.18 206.883H1790.99V210.166H1826.18V206.883Z" fill="#E59C45"/>
<path d="M1628.24 221.037C1623.05 221.037 1618.82 216.78 1618.82 211.554C1618.82 206.328 1623.05 202.071 1628.24 202.071C1633.43 202.071 1637.66 206.328 1637.66 211.554C1637.66 216.78 1633.43 221.037 1628.24 221.037ZM1628.24 202.745C1623.42 202.745 1619.51 206.689 1619.51 211.537C1619.51 216.386 1623.42 220.33 1628.24 220.33C1633.06 220.33 1636.98 216.386 1636.98 211.537C1636.98 206.689 1633.06 202.745 1628.24 202.745Z" stroke="#4D4D4D" stroke-width="0.5" stroke-miterlimit="10"/>
<path d="M1628.24 220.346C1623.42 220.346 1619.5 216.402 1619.5 211.554C1619.5 206.706 1623.42 202.761 1628.24 202.761C1633.06 202.761 1636.98 206.706 1636.98 211.554C1636.98 216.402 1633.06 220.346 1628.24 220.346ZM1628.24 203.156C1623.64 203.156 1619.9 206.919 1619.9 211.554C1619.9 216.188 1623.64 219.952 1628.24 219.952C1632.85 219.952 1636.58 216.188 1636.58 211.554C1636.58 206.919 1632.85 203.156 1628.24 203.156Z" fill="#666666"/>
<path d="M1627.83 203.081L1627.42 203.11L1628.03 211.651L1628.44 211.622L1627.83 203.081Z" fill="#666666"/>
<path d="M1628.29 211.8L1628.19 211.422L1636.44 209.138L1636.55 209.532L1628.29 211.8Z" fill="#666666"/>
<path d="M1620.26 208.486L1620.13 208.856L1628.18 211.823L1628.31 211.452L1620.26 208.486Z" fill="#666666"/>
<path d="M1622.1 217.536L1621.84 217.24L1628.11 211.455L1628.39 211.768L1622.1 217.536Z" fill="#666666"/>
<path d="M1628.43 211.536L1628.06 211.718L1631.84 219.389L1632.21 219.206L1628.43 211.536Z" fill="#666666"/>
<path d="M1629.29 211.685C1629.29 212.261 1628.81 212.737 1628.24 212.737C1627.67 212.737 1627.2 212.261 1627.2 211.685C1627.2 211.11 1627.67 210.634 1628.24 210.634C1628.81 210.634 1629.29 211.11 1629.29 211.685Z" fill="#6A9844"/>
<path d="M1656.93 221.037C1651.74 221.037 1647.51 216.78 1647.51 211.554C1647.51 206.328 1651.74 202.071 1656.93 202.071C1662.12 202.071 1666.35 206.328 1666.35 211.554C1666.35 216.78 1662.12 221.037 1656.93 221.037ZM1656.93 202.745C1652.11 202.745 1648.19 206.689 1648.19 211.537C1648.19 216.386 1652.11 220.33 1656.93 220.33C1661.75 220.33 1665.67 216.386 1665.67 211.537C1665.67 206.689 1661.75 202.745 1656.93 202.745Z" stroke="#4D4D4D" stroke-width="0.5" stroke-miterlimit="10"/>
<path d="M1656.93 220.346C1652.11 220.346 1648.19 216.402 1648.19 211.554C1648.19 206.706 1652.11 202.761 1656.93 202.761C1661.75 202.761 1665.67 206.706 1665.67 211.554C1665.67 216.402 1661.75 220.346 1656.93 220.346ZM1656.93 203.156C1652.32 203.156 1648.59 206.919 1648.59 211.554C1648.59 216.188 1652.32 219.952 1656.93 219.952C1661.53 219.952 1665.27 216.188 1665.27 211.554C1665.27 206.919 1661.53 203.156 1656.93 203.156Z" fill="#666666"/>
<path d="M1656.55 203.073L1656.14 203.102L1656.74 211.643L1657.15 211.614L1656.55 203.073Z" fill="#666666"/>
<path d="M1665.13 209.132L1656.88 211.419L1656.98 211.799L1665.23 209.512L1665.13 209.132Z" fill="#666666"/>
<path d="M1648.96 208.472L1648.82 208.843L1656.87 211.809L1657.01 211.439L1648.96 208.472Z" fill="#666666"/>
<path d="M1650.79 217.536L1650.53 217.24L1656.82 211.455L1657.08 211.768L1650.79 217.536Z" fill="#666666"/>
<path d="M1657.13 211.517L1656.77 211.7L1660.55 219.371L1660.91 219.188L1657.13 211.517Z" fill="#666666"/>
<path d="M1637.06 202.564C1636.91 202.564 1636.78 202.449 1636.78 202.285C1636.78 202.12 1636.9 201.989 1637.06 201.989L1651.04 197.749C1651.18 197.716 1651.35 197.798 1651.38 197.946C1651.41 198.094 1651.33 198.258 1651.18 198.291L1637.07 202.548L1637.06 202.564Z" fill="#F9F569"/>
<path d="M1639.96 214.233L1635.69 200.855L1636.78 200.51L1640.42 211.899L1649.04 201.545C1649.3 201.233 1649.65 200.97 1650.02 200.806L1652.34 199.77L1652.8 200.822L1650.48 201.857C1650.27 201.956 1650.07 202.104 1649.92 202.285L1639.98 214.233H1639.96Z" fill="#F9F569"/>
<path d="M1651.62 197.095L1650.53 197.449L1652.38 203.204L1653.47 202.851L1651.62 197.095Z" fill="#F9F569"/>
<path d="M1650.74 197.371L1650.25 195.842C1650.06 195.251 1650.2 194.593 1650.61 194.133L1652.16 192.654L1652.64 193.147L1651.1 194.61C1650.87 194.873 1650.79 195.267 1650.9 195.629L1651.39 197.157L1650.74 197.371Z" fill="#666666"/>
<path d="M1636.38 199.289L1635.3 199.643L1635.68 200.847L1636.77 200.494L1636.38 199.289Z" fill="#666666"/>
<path d="M1653.42 202.696L1657.06 211.439C1657.14 211.636 1656.86 211.768 1656.75 211.587L1652.37 203.123L1653.42 202.696Z" fill="#F9F569"/>
<path d="M1640.52 213.674L1627.78 212.441C1627.57 212.425 1627.59 212.113 1627.78 212.096L1640.68 212.606L1640.5 213.674H1640.52Z" fill="#F9F569"/>
<path d="M1637.62 204.168L1627.49 211.99L1627.84 212.447L1637.97 204.625L1637.62 204.168Z" fill="#F9F569"/>
<path d="M1640.27 213.625L1643.51 216.205L1644.72 216.254L1640.78 212.984C1640.59 212.819 1640.27 212.869 1640.16 213.099C1640.06 213.28 1640.1 213.51 1640.26 213.625H1640.27Z" fill="#4D4D4D"/>
<path d="M1643.51 216.172L1643.62 216.731C1643.65 216.895 1643.8 217.01 1643.98 216.994L1646.25 216.731C1646.38 216.731 1646.48 216.583 1646.45 216.451L1646.35 216.073C1646.32 215.958 1646.22 215.893 1646.1 215.893L1643.52 216.189L1643.51 216.172Z" fill="#4D4D4D"/>
<path d="M1635.69 198.14L1635.15 198.324L1635.7 199.976L1636.24 199.792L1635.69 198.14Z" fill="#666666"/>
<path d="M1631.91 196.878C1631.67 196.73 1631.82 196.335 1632.09 196.401C1633.01 196.582 1634.2 196.713 1635.44 196.631C1637.94 196.45 1638.74 195.596 1639.9 196.845C1639.98 196.944 1639.95 197.091 1639.83 197.141L1636.57 198.275C1635.59 198.62 1634.51 198.488 1633.61 197.946L1631.9 196.894L1631.91 196.878Z" fill="#4D4D4D"/>
<path d="M1652.78 192.539C1652.85 192.736 1652.82 192.966 1652.67 193.098L1652.62 193.147C1652.62 193.147 1652.29 193.361 1652.19 193.311C1652.11 193.262 1652.06 193.164 1652.05 193.065C1652 192.835 1652 192.539 1652.1 192.325C1652.19 192.128 1652.65 192.145 1652.78 192.523V192.539Z" fill="#666666"/>
<path d="M1652.33 192.506C1652.28 192.851 1652 193.098 1651.7 193.065C1651.41 193.032 1651.2 192.72 1651.25 192.375C1651.3 192.03 1651.57 191.783 1651.87 191.816C1652.16 191.849 1652.37 192.161 1652.33 192.506Z" fill="#4D4D4D"/>
<path d="M1649.58 192.49V192.375C1649.58 192.21 1649.71 192.079 1649.86 192.095H1651.67C1651.8 192.095 1651.92 192.21 1651.92 192.342V192.555C1651.92 192.687 1651.82 192.802 1651.69 192.802H1649.86C1649.71 192.802 1649.58 192.67 1649.58 192.506V192.49Z" fill="#4D4D4D"/>
<path d="M1657.34 211.587C1657.34 211.8 1657.16 211.981 1656.95 211.981C1656.73 211.981 1656.55 211.8 1656.55 211.587C1656.55 211.373 1656.73 211.192 1656.95 211.192C1657.16 211.192 1657.34 211.373 1657.34 211.587Z" fill="#F9F569"/>
<path d="M1630.02 211.653L1629.78 211.85L1629.96 212.113L1629.68 212.228L1629.79 212.524L1629.48 212.573L1629.51 212.885L1629.2 212.852L1629.16 213.165L1628.86 213.066L1628.73 213.345L1628.49 213.165L1628.29 213.411L1628.08 213.165L1627.83 213.345L1627.7 213.066L1627.41 213.165L1627.36 212.852L1627.05 212.885L1627.08 212.573L1626.77 212.524L1626.89 212.228L1626.61 212.113L1626.79 211.85L1626.54 211.653L1626.79 211.455L1626.61 211.192L1626.89 211.077L1626.77 210.782L1627.08 210.732L1627.05 210.42L1627.36 210.453L1627.41 210.141L1627.7 210.256L1627.83 209.96L1628.08 210.141L1628.29 209.91L1628.49 210.141L1628.73 209.96L1628.86 210.256L1629.16 210.141L1629.2 210.453L1629.51 210.42L1629.48 210.732L1629.79 210.782L1629.68 211.077L1629.96 211.192L1629.78 211.455L1630.02 211.653Z" fill="#666666"/>
<path d="M1640.57 211.028C1641.78 211.028 1642.76 212.014 1642.76 213.23C1642.76 214.446 1641.78 215.433 1640.57 215.433C1639.36 215.433 1638.38 214.446 1638.38 213.23C1638.38 212.014 1639.36 211.028 1640.57 211.028ZM1640.57 210.634C1639.13 210.634 1637.99 211.8 1637.99 213.23C1637.99 214.66 1639.15 215.827 1640.57 215.827C1641.99 215.827 1643.15 214.66 1643.15 213.23C1643.15 211.8 1641.99 210.634 1640.57 210.634Z" fill="#666666"/>
<path d="M1641.87 213.23C1641.87 213.953 1641.29 214.545 1640.57 214.545C1639.85 214.545 1639.26 213.953 1639.26 213.23C1639.26 212.507 1639.85 211.915 1640.57 211.915C1641.29 211.915 1641.87 212.507 1641.87 213.23Z" fill="#4D4D4D"/>
<g clip-path="url(#clip0_299_3567)">
<path d="M1432.21 217.727C1432.25 217.949 1432.06 218.174 1431.78 218.231L1429.91 218.6C1429.63 218.656 1429.36 218.522 1429.32 218.3C1429.27 218.077 1429.47 217.852 1429.75 217.796L1431.62 217.427C1431.9 217.37 1432.17 217.508 1432.21 217.727Z" fill="#EEC7BB"/>
<path d="M1432.43 218.863C1432.48 219.085 1432.28 219.31 1432 219.366L1430.13 219.736C1429.85 219.792 1429.58 219.657 1429.54 219.435C1429.5 219.213 1429.69 218.988 1429.97 218.932L1431.84 218.562C1432.12 218.506 1432.39 218.641 1432.43 218.863Z" fill="#EEC7BB"/>
<path d="M1432.66 219.998C1432.7 220.22 1432.51 220.446 1432.22 220.502L1430.36 220.871C1430.08 220.928 1429.81 220.79 1429.77 220.568C1429.72 220.346 1429.92 220.12 1430.2 220.064L1432.07 219.695C1432.35 219.639 1432.61 219.773 1432.66 219.995V219.998Z" fill="#EEC7BB"/>
<path d="M1466.04 190.071C1466.76 174.113 1452.59 173.212 1452.59 173.212C1452.59 173.212 1452.47 173.616 1452.26 174.338C1452.05 173.616 1451.92 173.212 1451.92 173.212C1451.92 173.212 1437.75 174.11 1438.47 190.071C1439.2 206.03 1428.71 211.264 1447.64 215.831C1449.48 216.275 1451.01 216.222 1452.26 215.775C1453.51 216.222 1455.03 216.275 1456.88 215.831C1475.8 211.267 1465.32 206.033 1466.04 190.071H1466.04Z" fill="#EAE967" stroke="#EAE967" stroke-width="1.13" stroke-miterlimit="10"/>
<path d="M1440.59 190.369C1440.59 191.382 1439.76 192.205 1438.75 192.205C1437.74 192.205 1436.91 191.382 1436.91 190.369C1436.91 189.355 1437.74 188.532 1438.75 188.532C1439.76 188.532 1440.59 189.355 1440.59 190.369Z" fill="#EEC7BB"/>
<path d="M1467.9 190.369C1467.9 191.382 1467.07 192.205 1466.06 192.205C1465.05 192.205 1464.22 191.382 1464.22 190.369C1464.22 189.355 1465.05 188.532 1466.06 188.532C1467.07 188.532 1467.9 189.355 1467.9 190.369Z" fill="#EEC7BB"/>
<path d="M1448.77 232.863C1448.01 232.863 1447.4 232.249 1447.4 231.495V240.459C1447.4 241.216 1448.01 241.826 1448.77 241.826C1449.52 241.826 1450.14 241.213 1450.14 240.459V231.495C1450.14 232.249 1449.52 232.863 1448.77 232.863Z" fill="#EEC7BB"/>
<path d="M1455.84 232.863C1455.08 232.863 1454.47 232.249 1454.47 231.495V240.459C1454.47 241.216 1455.08 241.826 1455.84 241.826C1456.59 241.826 1457.2 241.213 1457.2 240.459V231.495C1457.2 232.249 1456.59 232.863 1455.84 232.863Z" fill="#EEC7BB"/>
<path d="M1448.77 217.245C1448.01 217.245 1447.4 217.858 1447.4 218.612V231.111C1447.4 230.357 1448.01 229.744 1448.77 229.744C1449.52 229.744 1450.14 230.357 1450.14 231.111V218.612C1450.14 217.858 1449.52 217.245 1448.77 217.245Z" fill="#EEC7BB"/>
<path d="M1448.77 229.744C1448.01 229.744 1447.4 230.357 1447.4 231.111V231.492C1447.4 232.246 1448.01 232.859 1448.77 232.859C1449.52 232.859 1450.14 232.246 1450.14 231.492V231.111C1450.14 230.357 1449.52 229.744 1448.77 229.744Z" fill="#EEC7BB"/>
<path d="M1448.77 229.744C1448.01 229.744 1447.4 230.357 1447.4 231.111V231.492C1447.4 232.246 1448.01 232.859 1448.77 232.859C1449.52 232.859 1450.14 232.246 1450.14 231.492V231.111C1450.14 230.357 1449.52 229.744 1448.77 229.744Z" fill="#DFB1A5"/>
<path d="M1455.84 217.245C1455.08 217.245 1454.47 217.858 1454.47 218.612V231.111C1454.47 230.357 1455.08 229.744 1455.84 229.744C1456.59 229.744 1457.2 230.357 1457.2 231.111V218.612C1457.2 217.858 1456.59 217.245 1455.84 217.245Z" fill="#EEC7BB"/>
<path d="M1455.84 229.744C1455.08 229.744 1454.47 230.357 1454.47 231.111V231.492C1454.47 232.246 1455.08 232.859 1455.84 232.859C1456.59 232.859 1457.2 232.246 1457.2 231.492V231.111C1457.2 230.357 1456.59 229.744 1455.84 229.744Z" fill="#EEC7BB"/>
<path d="M1455.84 229.744C1455.08 229.744 1454.47 230.357 1454.47 231.111V231.492C1454.47 232.246 1455.08 232.859 1455.84 232.859C1456.59 232.859 1457.2 232.246 1457.2 231.492V231.111C1457.2 230.357 1456.59 229.744 1455.84 229.744Z" fill="#DFB1A5"/>
<path d="M1451.67 224.807C1451.67 225.917 1450.96 226.822 1450.09 226.822H1447.29C1446.42 226.822 1445.71 225.921 1445.71 224.807V216.926C1445.71 215.816 1446.42 214.911 1447.29 214.911H1450.09C1450.96 214.911 1451.67 215.812 1451.67 216.926V224.807Z" fill="#C49BC7"/>
<path d="M1458.81 224.807C1458.81 225.917 1458.11 226.822 1457.23 226.822H1454.43C1453.56 226.822 1452.86 225.921 1452.86 224.807V216.926C1452.86 215.816 1453.56 214.911 1454.43 214.911H1457.23C1458.1 214.911 1458.81 215.812 1458.81 216.926V224.807Z" fill="#C49BC7"/>
<path d="M1448.41 202.235H1456.12C1458.46 202.235 1460.36 204.134 1460.36 206.477V214.183C1460.36 216.523 1458.46 218.422 1456.12 218.422H1448.41C1446.07 218.422 1444.18 216.523 1444.18 214.183V206.477C1444.18 204.137 1446.07 202.235 1448.42 202.235H1448.41Z" fill="#EB633E" stroke="#EB633E" stroke-width="2.26" stroke-miterlimit="10"/>
<path d="M1451.67 242.398C1451.67 243.468 1450.8 244.338 1449.73 244.338H1447.66C1446.59 244.338 1445.72 243.471 1445.72 242.398C1445.72 241.328 1446.59 240.462 1447.66 240.462H1449.73C1450.8 240.462 1451.67 241.328 1451.67 242.398Z" fill="#3A53A3" stroke="#3A53A3" stroke-width="1.13" stroke-miterlimit="10"/>
<path d="M1458.81 242.398C1458.81 243.468 1457.94 244.338 1456.87 244.338H1454.8C1453.73 244.338 1452.86 243.471 1452.86 242.398C1452.86 241.328 1453.73 240.462 1454.8 240.462H1456.87C1457.94 240.462 1458.81 241.328 1458.81 242.398Z" fill="#3A53A3" stroke="#3A53A3" stroke-width="1.13" stroke-miterlimit="10"/>
<path d="M1441.07 215.134C1440.74 215.812 1439.92 216.097 1439.24 215.769C1438.56 215.44 1438.28 214.621 1438.61 213.942L1442.67 205.526C1443 204.847 1443.82 204.562 1444.5 204.891C1445.18 205.219 1445.46 206.036 1445.14 206.718L1441.07 215.134H1441.07Z" fill="#EEC7BB"/>
<path d="M1436.77 218.957C1436.42 219.263 1435.74 219.054 1435.24 218.487C1434.74 217.921 1434.62 217.211 1434.97 216.904L1439.3 213.097C1439.65 212.79 1440.34 213 1440.83 213.566C1441.34 214.132 1441.45 214.843 1441.1 215.149L1436.77 218.957Z" fill="#EEC7BB"/>
<path d="M1435.59 219.007C1435.71 219.604 1435.32 220.183 1434.73 220.299L1433.22 220.596C1432.62 220.715 1432.04 220.324 1431.93 219.729L1431.63 218.221C1431.51 217.624 1431.9 217.045 1432.5 216.929L1434.01 216.632C1434.6 216.513 1435.18 216.901 1435.3 217.499L1435.59 219.007Z" fill="#EEC7BB"/>
<path d="M1434.58 216.82C1434.52 217.036 1434.24 217.145 1433.96 217.061L1432.14 216.504C1431.87 216.419 1431.7 216.175 1431.77 215.959C1431.83 215.744 1432.11 215.634 1432.38 215.719L1434.21 216.275C1434.48 216.36 1434.65 216.604 1434.58 216.82Z" fill="#EEC7BB"/>
<path d="M1452.19 203.577C1452.19 205.132 1450.93 206.393 1449.38 206.393C1447.82 206.393 1446.56 205.132 1446.56 203.577C1446.56 202.022 1447.82 200.758 1449.38 200.758C1450.94 200.758 1452.19 202.019 1452.19 203.577Z" fill="#70C8C1"/>
<path d="M1457.33 203.577C1457.33 205.132 1456.07 206.393 1454.52 206.393C1452.96 206.393 1451.7 205.132 1451.7 203.577C1451.7 202.022 1452.96 200.758 1454.52 200.758C1456.07 200.758 1457.33 202.019 1457.33 203.577Z" fill="#70C8C1"/>
<path d="M1455.46 201.131C1455.46 202.326 1454.49 203.295 1453.29 203.295H1451.24C1450.04 203.295 1449.07 202.326 1449.07 201.131C1449.07 199.935 1450.04 198.966 1451.24 198.966H1453.29C1454.49 198.966 1455.46 199.935 1455.46 201.131Z" fill="#E4BAB0"/>
<path d="M1452.26 176.278C1452.26 183.896 1446.09 190.071 1438.47 190.071C1438.47 197.689 1444.64 200.786 1452.26 200.786C1459.88 200.786 1466.06 197.689 1466.06 190.071C1458.44 190.071 1452.26 183.896 1452.26 176.278Z" fill="#EEC7BB"/>
<path d="M1452.61 173.212C1452.49 173.209 1452.38 173.2 1452.26 173.2C1452.14 173.2 1452.03 173.209 1451.92 173.212C1444.46 173.487 1438.47 182.569 1438.47 190.071C1446.08 190.071 1452.26 183.896 1452.26 176.278C1452.26 183.896 1458.44 190.071 1466.05 190.071C1466.05 182.569 1460.06 173.487 1452.6 173.212H1452.61Z" fill="#EAE967" stroke="#EAE967" stroke-width="1.13" stroke-miterlimit="10"/>
<path opacity="0.4" d="M1453.64 192.205C1453.64 193.294 1452.76 194.173 1451.67 194.173C1450.58 194.173 1449.7 193.291 1449.7 192.205C1449.7 191.116 1450.59 190.237 1451.67 190.237C1452.76 190.237 1453.64 191.119 1453.64 192.205Z" fill="#D68470"/>
<path d="M1448.17 193.469C1448.17 194.73 1449.19 195.75 1450.45 195.75" stroke="#D68470" stroke-width="1.13" stroke-miterlimit="10"/>
<path d="M1447.4 190.913C1447.4 191.379 1447.03 191.755 1446.56 191.755C1446.09 191.755 1445.72 191.379 1445.72 190.913C1445.72 190.447 1446.09 190.071 1446.56 190.071C1447.03 190.071 1447.4 190.447 1447.4 190.913Z" fill="#231F20" stroke="#231F20" stroke-width="1.13" stroke-miterlimit="10"/>
<path d="M1456.67 190.913C1456.67 191.379 1456.3 191.755 1455.83 191.755C1455.37 191.755 1454.99 191.379 1454.99 190.913C1454.99 190.447 1455.37 190.071 1455.83 190.071C1456.3 190.071 1456.67 190.447 1456.67 190.913Z" fill="#231F20" stroke="#231F20" stroke-width="1.13" stroke-miterlimit="10"/>
<path d="M1446.99 206.03C1446.99 207.541 1445.77 208.767 1444.26 208.767C1442.75 208.767 1441.52 207.541 1441.52 206.03C1441.52 204.519 1442.75 203.292 1444.26 203.292C1445.77 203.292 1446.99 204.519 1446.99 206.03Z" fill="#EB633E" stroke="#EB633E" stroke-width="2.26" stroke-miterlimit="10"/>
<path d="M1450.09 219.754C1450.09 225.032 1445.82 229.309 1440.54 229.309C1435.26 229.309 1430.99 225.032 1430.99 219.754C1430.99 214.477 1435.26 210.2 1440.54 210.2C1445.82 210.2 1450.09 214.477 1450.09 219.754Z" fill="#70C8C1" stroke="#8BCB9A" stroke-width="1.13" stroke-miterlimit="10"/>
<path d="M1449.62 222.72C1449.93 221.788 1450.09 220.79 1450.09 219.754C1450.09 219.11 1450.03 218.481 1449.91 217.871C1447.57 219.711 1444.04 220.881 1440.1 220.881C1436.57 220.881 1433.39 219.948 1431.08 218.44C1431.02 218.869 1430.98 219.307 1430.98 219.754C1430.98 221.09 1431.26 222.363 1431.75 223.518C1434.15 224.497 1436.91 225.054 1439.83 225.054C1443.48 225.054 1446.86 224.187 1449.62 222.72H1449.62Z" fill="#70C8C1" stroke="#8BD2D3" stroke-width="1.13" stroke-miterlimit="10"/>
<path d="M1449.91 217.874C1449.54 216.047 1448.66 214.411 1447.41 213.122C1446.93 215.312 1443.79 217.001 1439.98 217.001C1436.71 217.001 1433.93 215.753 1432.91 214.014C1431.95 215.281 1431.31 216.795 1431.08 218.44C1433.39 219.948 1436.58 220.881 1440.1 220.881C1444.04 220.881 1447.57 219.711 1449.91 217.871L1449.91 217.874Z" fill="#839ED1" stroke="#839ED1" stroke-width="1.13" stroke-miterlimit="10"/>
<path d="M1439.98 217.001C1443.79 217.001 1446.93 215.309 1447.41 213.122C1445.67 211.323 1443.24 210.203 1440.54 210.203C1437.42 210.203 1434.65 211.699 1432.9 214.014C1433.93 215.753 1436.7 217.001 1439.98 217.001H1439.98ZM1439.98 210.482C1441.56 210.482 1442.84 211.245 1442.84 212.183C1442.84 213.122 1441.56 213.885 1439.98 213.885C1438.4 213.885 1437.12 213.122 1437.12 212.183C1437.12 211.245 1438.4 210.482 1439.98 210.482Z" fill="#CC6AA8" stroke="#CC6AA8" stroke-width="1.13" stroke-miterlimit="10"/>
<path d="M1439.98 213.885C1441.56 213.885 1442.84 213.122 1442.84 212.183C1442.84 211.245 1441.56 210.482 1439.98 210.482C1438.4 210.482 1437.12 211.245 1437.12 212.183C1437.12 213.122 1438.4 213.885 1439.98 213.885Z" fill="#EC8E7A" stroke="#EC8E7A" stroke-width="1.13" stroke-miterlimit="10"/>
<path d="M1456.87 215.102L1456.24 215.659C1456.5 215.55 1456.72 215.359 1456.87 215.102Z" fill="#EEC7BB"/>
<path d="M1460.37 204.763C1459.69 204.434 1458.87 204.719 1458.54 205.398L1454.67 213.394L1455.16 212.966C1455.51 212.659 1456.2 212.869 1456.7 213.435C1457.01 213.785 1457.17 214.192 1457.17 214.52L1461 206.583C1461.33 205.905 1461.05 205.085 1460.37 204.756V204.763Z" fill="#EEC7BB"/>
<path d="M1455.11 215.64C1454.43 215.312 1454.15 214.492 1454.47 213.813L1454.68 213.394L1450.84 216.773C1450.49 217.079 1450.61 217.79 1451.11 218.359C1451.6 218.925 1452.29 219.138 1452.64 218.828L1456.24 215.662C1455.89 215.812 1455.48 215.822 1455.11 215.644V215.64Z" fill="#EEC7BB"/>
<path d="M1456.87 215.102L1456.97 215.021C1457.1 214.905 1457.17 214.727 1457.17 214.524L1456.94 215.005C1456.92 215.043 1456.9 215.071 1456.87 215.105V215.102Z" fill="#EEC7BB"/>
<path d="M1455.16 212.966L1454.67 213.394L1454.47 213.813C1454.14 214.492 1454.43 215.312 1455.11 215.64C1455.48 215.819 1455.89 215.809 1456.24 215.659L1456.87 215.102C1456.89 215.068 1456.91 215.04 1456.93 215.002L1457.17 214.52C1457.17 214.189 1457.01 213.785 1456.7 213.435C1456.2 212.869 1455.51 212.656 1455.16 212.966H1455.16Z" fill="#DFB1A5"/>
<path d="M1451.46 218.878C1451.58 219.476 1451.19 220.055 1450.6 220.17L1449.09 220.468C1448.49 220.583 1447.91 220.195 1447.8 219.601L1447.5 218.093C1447.38 217.496 1447.77 216.92 1448.36 216.801L1449.87 216.504C1450.47 216.388 1451.05 216.773 1451.16 217.37L1451.46 218.878Z" fill="#EEC7BB"/>
<path d="M1448.07 217.599C1448.12 217.821 1447.92 218.046 1447.64 218.102L1445.77 218.472C1445.49 218.528 1445.23 218.393 1445.18 218.168C1445.14 217.946 1445.33 217.721 1445.61 217.665L1447.48 217.295C1447.76 217.239 1448.03 217.374 1448.07 217.596V217.599Z" fill="#EEC7BB"/>
<path d="M1450.45 216.692C1450.39 216.907 1450.11 217.017 1449.83 216.932L1448.01 216.376C1447.74 216.291 1447.57 216.047 1447.63 215.831C1447.7 215.615 1447.98 215.506 1448.25 215.59L1450.07 216.147C1450.35 216.232 1450.52 216.476 1450.45 216.692Z" fill="#EEC7BB"/>
<path d="M1448.3 218.734C1448.34 218.957 1448.15 219.182 1447.87 219.238L1446 219.607C1445.72 219.664 1445.45 219.526 1445.41 219.307C1445.36 219.085 1445.56 218.86 1445.84 218.803L1447.71 218.434C1447.99 218.378 1448.26 218.512 1448.3 218.734Z" fill="#EEC7BB"/>
<path d="M1448.52 219.87C1448.56 220.092 1448.37 220.317 1448.09 220.374L1446.22 220.743C1445.94 220.799 1445.67 220.665 1445.63 220.443C1445.59 220.22 1445.78 219.995 1446.06 219.939L1447.93 219.57C1448.21 219.513 1448.48 219.651 1448.52 219.873V219.87Z" fill="#EEC7BB"/>
<path d="M1463.09 206.03C1463.09 207.541 1461.87 208.767 1460.36 208.767C1458.85 208.767 1457.62 207.541 1457.62 206.03C1457.62 204.519 1458.85 203.292 1460.36 203.292C1461.87 203.292 1463.09 204.519 1463.09 206.03Z" fill="#EB633E" stroke="#EB633E" stroke-width="2.26" stroke-miterlimit="10"/>
<path d="M1337.83 181.284C1337.83 181.284 1336.22 173.938 1329.75 176.294C1323.29 178.649 1329.05 184.349 1325.81 184.681C1325.81 184.681 1329.05 187.437 1331.82 184.694C1331.82 184.694 1338.25 187.687 1337.83 181.284Z" fill="#231F20" stroke="#231F20" stroke-width="1.17" stroke-miterlimit="10"/>
<path d="M1358.57 181.284C1358.57 181.284 1360.18 173.938 1366.65 176.294C1373.12 178.649 1367.36 184.349 1370.59 184.681C1370.59 184.681 1367.35 187.437 1364.58 184.694C1364.58 184.694 1358.16 187.687 1358.57 181.284Z" fill="#231F20" stroke="#231F20" stroke-width="1.17" stroke-miterlimit="10"/>
<path d="M1336.88 190.372C1336.88 191.385 1336.06 192.208 1335.04 192.208C1334.03 192.208 1333.21 191.385 1333.21 190.372C1333.21 189.358 1334.03 188.535 1335.04 188.535C1336.06 188.535 1336.88 189.358 1336.88 190.372Z" fill="#EEC7BB"/>
<path d="M1364.19 190.372C1364.19 191.385 1363.36 192.208 1362.35 192.208C1361.34 192.208 1360.51 191.385 1360.51 190.372C1360.51 189.358 1361.34 188.535 1362.35 188.535C1363.36 188.535 1364.19 189.358 1364.19 190.372Z" fill="#EEC7BB"/>
<path d="M1355.1 214.852C1355.1 217.195 1354.75 218.425 1352.41 218.425H1344.7C1342.36 218.425 1342.01 216.526 1342.01 214.186L1341.74 206.396C1341.74 204.056 1342.36 202.238 1344.7 202.238H1352.4C1354.75 202.238 1355.76 204.056 1355.76 206.396L1355.1 214.852H1355.1Z" fill="#70C8C1"/>
<path d="M1348.82 203.608C1348.82 205.163 1347.56 206.424 1346 206.424C1344.45 206.424 1343.19 205.163 1343.19 203.608C1343.19 202.053 1344.45 200.79 1346 200.79C1347.56 200.79 1348.82 202.05 1348.82 203.608Z" fill="#C49BC7"/>
<path d="M1353.96 203.608C1353.96 205.163 1352.7 206.424 1351.14 206.424C1349.59 206.424 1348.33 205.163 1348.33 203.608C1348.33 202.053 1349.59 200.79 1351.14 200.79C1352.7 200.79 1353.96 202.05 1353.96 203.608Z" fill="#C49BC7"/>
<path d="M1350.64 201.131C1350.64 202.326 1349.94 203.295 1349.09 203.295H1347.62C1346.76 203.295 1346.07 202.326 1346.07 201.131C1346.07 199.935 1346.77 198.966 1347.62 198.966H1349.09C1349.94 198.966 1350.64 199.935 1350.64 201.131Z" fill="#E4BAB0"/>
<path d="M1348.9 173.212C1348.79 173.209 1348.68 173.2 1348.56 173.2C1348.44 173.2 1348.33 173.209 1348.21 173.212C1340.75 173.487 1334.76 182.569 1334.76 190.071C1334.76 197.573 1340.94 200.786 1348.55 200.786C1356.17 200.786 1362.35 197.689 1362.35 190.071C1362.35 182.454 1356.36 173.487 1348.9 173.212H1348.9Z" fill="#EEC7BB"/>
<path opacity="0.4" d="M1349.93 192.208C1349.93 193.297 1349.05 194.176 1347.96 194.176C1346.87 194.176 1345.99 193.294 1345.99 192.208C1345.99 191.119 1346.88 190.24 1347.96 190.24C1349.05 190.24 1349.93 191.123 1349.93 192.208Z" fill="#D68470"/>
<path d="M1344.47 193.469C1344.47 194.73 1345.49 195.75 1346.75 195.75" stroke="#D68470" stroke-width="1.13" stroke-miterlimit="10"/>
<path d="M1343.69 190.913C1343.69 191.376 1343.32 191.755 1342.85 191.755C1342.38 191.755 1342.01 191.379 1342.01 190.913C1342.01 190.447 1342.38 190.071 1342.85 190.071C1343.32 190.071 1343.69 190.447 1343.69 190.913Z" fill="#231F20" stroke="#231F20" stroke-width="1.13" stroke-miterlimit="10"/>
<path d="M1352.97 190.913C1352.97 191.376 1352.59 191.755 1352.13 191.755C1351.66 191.755 1351.28 191.379 1351.28 190.913C1351.28 190.447 1351.66 190.071 1352.13 190.071C1352.59 190.071 1352.97 190.447 1352.97 190.913Z" fill="#231F20" stroke="#231F20" stroke-width="1.13" stroke-miterlimit="10"/>
<path d="M1326.27 195.484C1325.67 195.571 1325.11 195.152 1325.02 194.551L1324.8 193.031C1324.71 192.43 1325.13 191.87 1325.73 191.786L1327.26 191.567C1327.86 191.479 1328.42 191.898 1328.5 192.499L1328.72 194.02C1328.81 194.62 1328.39 195.18 1327.79 195.265L1326.27 195.484Z" fill="#EEC7BB"/>
<path d="M1327.72 192.167C1327.49 192.199 1327.28 191.995 1327.24 191.711L1326.97 189.827C1326.93 189.543 1327.07 189.286 1327.3 189.252C1327.52 189.22 1327.74 189.424 1327.78 189.708L1328.05 191.592C1328.09 191.877 1327.94 192.133 1327.72 192.167H1327.72Z" fill="#EEC7BB"/>
<path d="M1328.5 194.586C1328.29 194.508 1328.2 194.226 1328.3 193.957L1328.95 192.167C1329.04 191.895 1329.3 191.739 1329.51 191.817C1329.72 191.895 1329.82 192.177 1329.72 192.446L1329.07 194.235C1328.97 194.508 1328.72 194.664 1328.51 194.586H1328.5Z" fill="#EEC7BB"/>
<path d="M1326.57 192.333C1326.35 192.365 1326.14 192.161 1326.09 191.877L1325.82 189.993C1325.78 189.708 1325.93 189.452 1326.15 189.418C1326.38 189.386 1326.59 189.59 1326.63 189.874L1326.9 191.758C1326.95 192.042 1326.8 192.299 1326.57 192.333Z" fill="#EEC7BB"/>
<path d="M1325.43 192.496C1325.2 192.527 1324.99 192.324 1324.95 192.039L1324.67 190.156C1324.63 189.871 1324.78 189.615 1325.01 189.58C1325.23 189.549 1325.44 189.752 1325.49 190.037L1325.76 191.92C1325.8 192.205 1325.65 192.462 1325.43 192.496Z" fill="#EEC7BB"/>
<path d="M1326.27 195.484C1325.67 195.571 1325.11 195.152 1325.02 194.551L1324.8 193.031C1324.71 192.43 1325.13 191.87 1325.73 191.786L1327.26 191.567C1327.86 191.479 1328.42 191.898 1328.5 192.499L1328.72 194.02C1328.81 194.62 1328.39 195.18 1327.79 195.265L1326.27 195.484Z" fill="#EEC7BB"/>
<path d="M1327.72 192.167C1327.49 192.199 1327.28 191.995 1327.24 191.711L1326.97 189.827C1326.93 189.543 1327.07 189.286 1327.3 189.252C1327.52 189.22 1327.74 189.424 1327.78 189.708L1328.05 191.592C1328.09 191.877 1327.94 192.133 1327.72 192.167H1327.72Z" fill="#EEC7BB"/>
<path d="M1328.5 194.586C1328.29 194.508 1328.2 194.226 1328.3 193.957L1328.95 192.167C1329.04 191.895 1329.3 191.739 1329.51 191.817C1329.72 191.895 1329.82 192.177 1329.72 192.446L1329.07 194.235C1328.97 194.508 1328.72 194.664 1328.51 194.586H1328.5Z" fill="#EEC7BB"/>
<path d="M1326.57 192.333C1326.35 192.365 1326.14 192.161 1326.09 191.877L1325.82 189.993C1325.78 189.708 1325.93 189.452 1326.15 189.418C1326.38 189.386 1326.59 189.59 1326.63 189.874L1326.9 191.758C1326.95 192.042 1326.8 192.299 1326.57 192.333Z" fill="#EEC7BB"/>
<path d="M1325.43 192.496C1325.2 192.527 1324.99 192.324 1324.95 192.039L1324.67 190.156C1324.63 189.871 1324.78 189.615 1325.01 189.58C1325.23 189.549 1325.44 189.752 1325.49 190.037L1325.76 191.92C1325.8 192.205 1325.65 192.462 1325.43 192.496Z" fill="#EEC7BB"/>
<path d="M1339.37 203.245L1331.58 198.975L1331.98 199.485C1332.27 199.851 1332.03 200.527 1331.43 200.996C1331.07 201.287 1330.66 201.428 1330.32 201.409L1338.05 205.648C1338.71 206.011 1339.55 205.77 1339.91 205.107C1340.27 204.444 1340.03 203.611 1339.37 203.249L1339.37 203.245Z" fill="#EEC7BB"/>
<path d="M1329.76 201.084L1329.24 200.424C1329.33 200.686 1329.51 200.921 1329.76 201.084Z" fill="#EEC7BB"/>
<path d="M1329.31 199.294C1329.68 198.631 1330.51 198.39 1331.17 198.753L1331.58 198.975L1328.4 194.964C1328.11 194.598 1327.4 194.683 1326.8 195.152C1326.21 195.621 1325.97 196.297 1326.26 196.663L1329.24 200.424C1329.1 200.064 1329.12 199.654 1329.31 199.294Z" fill="#EEC7BB"/>
<path d="M1329.76 201.084L1329.84 201.181C1329.95 201.321 1330.12 201.393 1330.32 201.406L1329.85 201.149C1329.82 201.131 1329.79 201.106 1329.76 201.084Z" fill="#EEC7BB"/>
<path d="M1331.98 199.485L1331.58 198.975L1331.17 198.753C1330.51 198.39 1329.68 198.631 1329.31 199.294C1329.12 199.657 1329.1 200.067 1329.24 200.424L1329.76 201.084C1329.79 201.106 1329.82 201.131 1329.85 201.149L1330.32 201.406C1330.65 201.425 1331.07 201.284 1331.43 200.993C1332.02 200.524 1332.27 199.848 1331.98 199.482L1331.98 199.485Z" fill="#DFB1A5"/>
<path d="M1365 202.194C1364.52 201.606 1364.43 200.89 1364.8 200.599L1365.3 200.192L1356.76 202.626C1356.03 202.832 1355.61 203.59 1355.82 204.315C1356.03 205.041 1356.78 205.463 1357.51 205.257L1365.99 202.842C1365.66 202.789 1365.29 202.557 1365 202.194Z" fill="#EEC7BB"/>
<path d="M1367.27 202.125L1366.61 202.654C1366.89 202.548 1367.11 202.36 1367.27 202.125Z" fill="#EEC7BB"/>
<path d="M1365.99 202.842C1366.19 202.876 1366.37 202.842 1366.51 202.732L1366.61 202.654C1366.57 202.667 1366.54 202.685 1366.5 202.698L1365.99 202.845L1365.99 202.842Z" fill="#EEC7BB"/>
<path d="M1370.81 197.527C1370.34 196.938 1369.66 196.698 1369.3 196.988L1365.31 200.195L1365.75 200.067C1366.48 199.86 1367.24 200.28 1367.44 201.009C1367.56 201.406 1367.48 201.806 1367.27 202.129L1371.01 199.125C1371.37 198.834 1371.28 198.121 1370.81 197.53L1370.81 197.527Z" fill="#EEC7BB"/>
<path d="M1367.44 201.009C1367.24 200.283 1366.48 199.86 1365.75 200.067L1365.31 200.195L1364.8 200.602C1364.44 200.893 1364.52 201.609 1365 202.197C1365.29 202.56 1365.66 202.792 1365.99 202.845L1366.5 202.698C1366.54 202.685 1366.58 202.67 1366.61 202.654L1367.27 202.125C1367.48 201.806 1367.56 201.403 1367.45 201.005L1367.44 201.009Z" fill="#DFB1A5"/>
<path d="M1369.19 195.997L1369.74 194.563C1369.96 193.997 1370.6 193.713 1371.17 193.931L1372.6 194.483C1373.17 194.701 1373.45 195.34 1373.23 195.906L1372.68 197.34C1372.46 197.906 1371.82 198.19 1371.26 197.972L1369.82 197.42C1369.26 197.202 1368.97 196.563 1369.19 195.997Z" fill="#EEC7BB"/>
<path d="M1370.58 194.414C1370.79 194.495 1371.05 194.342 1371.15 194.076L1371.83 192.299C1371.94 192.03 1371.85 191.745 1371.64 191.664C1371.42 191.582 1371.17 191.736 1371.07 192.002L1370.38 193.779C1370.28 194.048 1370.37 194.332 1370.58 194.414Z" fill="#EEC7BB"/>
<path d="M1369.28 196.597C1369.51 196.569 1369.66 196.316 1369.62 196.028L1369.39 194.138C1369.35 193.854 1369.14 193.644 1368.91 193.672C1368.69 193.7 1368.54 193.954 1368.57 194.242L1368.8 196.131C1368.84 196.419 1369.05 196.626 1369.28 196.597H1369.28Z" fill="#EEC7BB"/>
<path d="M1371.66 194.83C1371.87 194.911 1372.13 194.758 1372.23 194.492L1372.92 192.715C1373.02 192.446 1372.93 192.161 1372.72 192.08C1372.51 191.999 1372.25 192.152 1372.15 192.418L1371.47 194.195C1371.36 194.464 1371.45 194.748 1371.66 194.83Z" fill="#EEC7BB"/>
<path d="M1372.74 195.243C1372.95 195.324 1373.21 195.171 1373.31 194.905L1373.99 193.128C1374.09 192.859 1374.01 192.574 1373.79 192.493C1373.58 192.411 1373.33 192.565 1373.22 192.831L1372.54 194.608C1372.44 194.877 1372.53 195.161 1372.74 195.243Z" fill="#EEC7BB"/>
<path d="M1369.19 195.997L1369.74 194.563C1369.96 193.997 1370.6 193.713 1371.17 193.931L1372.6 194.483C1373.17 194.701 1373.45 195.34 1373.23 195.906L1372.68 197.34C1372.46 197.906 1371.82 198.19 1371.26 197.972L1369.82 197.42C1369.26 197.202 1368.97 196.563 1369.19 195.997Z" fill="#EEC7BB"/>
<path d="M1370.58 194.414C1370.79 194.495 1371.05 194.342 1371.15 194.076L1371.83 192.299C1371.94 192.03 1371.85 191.745 1371.64 191.664C1371.42 191.582 1371.17 191.736 1371.07 192.002L1370.38 193.779C1370.28 194.048 1370.37 194.332 1370.58 194.414Z" fill="#EEC7BB"/>
<path d="M1369.28 196.597C1369.51 196.569 1369.66 196.316 1369.62 196.028L1369.39 194.138C1369.35 193.854 1369.14 193.644 1368.91 193.672C1368.69 193.7 1368.54 193.954 1368.57 194.242L1368.8 196.131C1368.84 196.419 1369.05 196.626 1369.28 196.597H1369.28Z" fill="#EEC7BB"/>
<path d="M1371.66 194.83C1371.87 194.911 1372.13 194.758 1372.23 194.492L1372.92 192.715C1373.02 192.446 1372.93 192.161 1372.72 192.08C1372.51 191.999 1372.25 192.152 1372.15 192.418L1371.47 194.195C1371.36 194.464 1371.45 194.748 1371.66 194.83Z" fill="#EEC7BB"/>
<path d="M1372.74 195.243C1372.95 195.324 1373.21 195.171 1373.31 194.905L1373.99 193.128C1374.09 192.859 1374.01 192.574 1373.79 192.493C1373.58 192.411 1373.33 192.565 1373.22 192.831L1372.54 194.608C1372.44 194.877 1372.53 195.161 1372.74 195.243Z" fill="#EEC7BB"/>
<path d="M1356.6 207.222C1358.09 207.481 1359.51 206.486 1359.77 204.997C1360.03 203.508 1359.03 202.091 1357.55 201.831C1356.06 201.572 1354.64 202.57 1354.38 204.056C1354.12 205.545 1355.11 206.962 1356.6 207.222Z" fill="#70C8C1"/>
<path d="M1361.55 184.24C1359.32 178.371 1354.34 173.2 1348.56 173.2C1342.77 173.2 1337.76 178.402 1335.54 184.287C1335.54 184.287 1334.46 187.45 1334.61 188.761C1334.61 188.761 1336.54 188.373 1337.76 184.287H1353.15V181.218L1355.27 184.287H1359.68C1360.9 188.373 1362.83 188.761 1362.83 188.761C1362.98 187.45 1361.55 184.24 1361.55 184.24H1361.55Z" fill="#231F20" stroke="#231F20" stroke-width="1.17" stroke-miterlimit="10"/>
<path d="M1345.07 230.078C1345.79 230.078 1346.38 230.638 1346.43 231.345V218.612C1346.43 217.858 1345.82 217.245 1345.06 217.245C1344.31 217.245 1343.7 217.858 1343.7 218.612V231.495C1343.7 231.53 1343.7 231.564 1343.7 231.599V231.449C1343.7 230.695 1344.32 230.081 1345.07 230.081V230.078Z" fill="#EEC7BB"/>
<path d="M1352.13 217.245C1351.37 217.245 1350.76 217.858 1350.76 218.612V231.445C1350.76 230.691 1351.37 230.078 1352.13 230.078C1352.88 230.078 1353.49 230.691 1353.49 231.445V218.612C1353.49 217.858 1352.88 217.245 1352.13 217.245Z" fill="#EEC7BB"/>
<path d="M1346.43 231.495C1346.43 232.253 1345.82 232.863 1345.06 232.863C1344.31 232.863 1343.76 232.303 1343.7 231.596V240.793C1343.7 241.55 1344.32 242.16 1345.07 242.16C1345.83 242.16 1346.44 241.547 1346.44 240.793V231.445C1346.44 231.411 1346.43 231.377 1346.43 231.345V231.495Z" fill="#EEC7BB"/>
<path d="M1345.06 232.863C1345.82 232.863 1346.43 232.249 1346.43 231.495V231.345C1346.38 230.638 1345.79 230.078 1345.07 230.078C1344.35 230.078 1343.7 230.691 1343.7 231.445V231.596C1343.76 232.303 1344.34 232.863 1345.06 232.863Z" fill="#DFB1A5"/>
<path d="M1352.13 232.863C1351.37 232.863 1350.76 232.249 1350.76 231.495V240.793C1350.76 241.55 1351.37 242.16 1352.13 242.16C1352.88 242.16 1353.49 241.547 1353.49 240.793V231.495C1353.49 232.253 1352.88 232.863 1352.13 232.863Z" fill="#EEC7BB"/>
<path d="M1352.13 230.078C1351.37 230.078 1350.76 230.691 1350.76 231.445V231.495C1350.76 232.253 1351.37 232.863 1352.13 232.863C1352.88 232.863 1353.49 232.249 1353.49 231.495V231.445C1353.49 230.691 1352.88 230.078 1352.13 230.078Z" fill="#DFB1A5"/>
<path d="M1347.96 242.398C1347.96 243.468 1347.1 244.338 1346.03 244.338H1343.95C1342.88 244.338 1342.02 243.471 1342.02 242.398C1342.02 241.328 1342.88 240.462 1343.95 240.462H1346.03C1347.1 240.462 1347.96 241.328 1347.96 242.398Z" fill="#C49BC7"/>
<path d="M1355.1 242.398C1355.1 243.468 1354.23 244.338 1353.16 244.338H1351.09C1350.02 244.338 1349.15 243.471 1349.15 242.398C1349.15 241.328 1350.02 240.462 1351.09 240.462H1353.16C1354.23 240.462 1355.1 241.328 1355.1 242.398Z" fill="#C49BC7"/>
<path d="M1353.53 214.911H1350.73C1350.14 214.911 1349.62 215.331 1349.35 215.95C1347.5 215.331 1346.98 214.911 1346.39 214.911H1343.59C1342.72 214.911 1342.01 215.812 1342.01 216.926L1339.72 225.583C1339.72 226.696 1342.72 226.822 1343.59 226.822H1353.53C1353.56 226.822 1353.58 226.822 1353.59 226.818C1354.43 226.775 1357.08 226.668 1357.08 225.583L1355.1 216.926C1355.1 215.816 1354.4 214.911 1353.53 214.911Z" fill="#70C8C1"/>
<path d="M1355.58 212.787C1362.09 213.238 1366.67 214.308 1366.67 215.553C1366.67 217.208 1358.61 218.547 1348.67 218.547C1338.73 218.547 1330.66 217.205 1330.66 215.553C1330.66 214.311 1335.2 213.247 1341.66 212.793" stroke="#DDE11E" stroke-width="6.78" stroke-miterlimit="10"/>
<path d="M1342.45 204.619C1342.48 203.109 1341.28 201.86 1339.77 201.83C1338.26 201.799 1337.01 202.998 1336.98 204.507C1336.95 206.017 1338.15 207.266 1339.66 207.297C1341.17 207.328 1342.42 206.129 1342.45 204.619Z" fill="#70C8C1"/>
<path d="M1390.29 189.605C1390.29 190.619 1389.47 191.442 1388.45 191.442C1387.44 191.442 1386.62 190.619 1386.62 189.605C1386.62 188.592 1387.44 187.769 1388.45 187.769C1389.47 187.769 1390.29 188.592 1390.29 189.605Z" fill="#EEC7BB"/>
<path d="M1417.6 189.605C1417.6 190.619 1416.78 191.442 1415.76 191.442C1414.75 191.442 1413.93 190.619 1413.93 189.605C1413.93 188.592 1414.75 187.769 1415.76 187.769C1416.78 187.769 1417.6 188.592 1417.6 189.605Z" fill="#EEC7BB"/>
<path d="M1398.85 231.733C1398.1 231.733 1397.49 231.12 1397.49 230.366V239.329C1397.49 240.086 1398.1 240.696 1398.85 240.696C1399.61 240.696 1400.22 240.083 1400.22 239.329V230.366C1400.22 231.123 1399.61 231.733 1398.85 231.733Z" fill="#EEC7BB"/>
<path d="M1405.92 231.733C1405.16 231.733 1404.55 231.12 1404.55 230.366V239.329C1404.55 240.086 1405.17 240.696 1405.92 240.696C1406.67 240.696 1407.29 240.083 1407.29 239.329V230.366C1407.29 231.123 1406.67 231.733 1405.92 231.733Z" fill="#EEC7BB"/>
<path d="M1398.85 216.116C1398.1 216.116 1397.49 216.729 1397.49 217.483V229.981C1397.49 229.227 1398.1 228.614 1398.85 228.614C1399.61 228.614 1400.22 229.227 1400.22 229.981V217.483C1400.22 216.729 1399.61 216.116 1398.85 216.116Z" fill="#EEC7BB"/>
<path d="M1398.85 228.614C1398.1 228.614 1397.49 229.227 1397.49 229.981V230.363C1397.49 231.12 1398.1 231.73 1398.85 231.73C1399.61 231.73 1400.22 231.117 1400.22 230.363V229.981C1400.22 229.227 1399.61 228.614 1398.85 228.614Z" fill="#DFB1A5"/>
<path d="M1398.85 228.614C1398.1 228.614 1397.49 229.227 1397.49 229.981V230.363C1397.49 231.12 1398.1 231.73 1398.85 231.73C1399.61 231.73 1400.22 231.117 1400.22 230.363V229.981C1400.22 229.227 1399.61 228.614 1398.85 228.614Z" fill="#DFB1A5"/>
<path d="M1405.92 216.116C1405.16 216.116 1404.55 216.729 1404.55 217.483V229.981C1404.55 229.227 1405.17 228.614 1405.92 228.614C1406.67 228.614 1407.29 229.227 1407.29 229.981V217.483C1407.29 216.729 1406.67 216.116 1405.92 216.116Z" fill="#EEC7BB"/>
<path d="M1405.92 228.614C1405.16 228.614 1404.55 229.227 1404.55 229.981V230.363C1404.55 231.12 1405.17 231.73 1405.92 231.73C1406.67 231.73 1407.29 231.117 1407.29 230.363V229.981C1407.29 229.227 1406.67 228.614 1405.92 228.614Z" fill="#DFB1A5"/>
<path d="M1405.92 228.614C1405.16 228.614 1404.55 229.227 1404.55 229.981V230.363C1404.55 231.12 1405.17 231.73 1405.92 231.73C1406.67 231.73 1407.29 231.117 1407.29 230.363V229.981C1407.29 229.227 1406.67 228.614 1405.92 228.614Z" fill="#DFB1A5"/>
<path d="M1401.76 223.677C1401.76 224.791 1401.05 225.692 1400.18 225.692H1397.38C1396.51 225.692 1395.8 224.791 1395.8 223.677V215.797C1395.8 214.683 1396.51 213.782 1397.38 213.782H1400.18C1401.05 213.782 1401.76 214.683 1401.76 215.797V223.677Z" fill="#3A53A3" stroke="#3A53A3" stroke-width="1.13" stroke-miterlimit="10"/>
<path d="M1408.9 223.677C1408.9 224.791 1408.19 225.692 1407.32 225.692H1404.52C1403.65 225.692 1402.95 224.791 1402.95 223.677V215.797C1402.95 214.683 1403.65 213.782 1404.52 213.782H1407.32C1408.19 213.782 1408.9 214.683 1408.9 215.797V223.677Z" fill="#3A53A3" stroke="#3A53A3" stroke-width="1.13" stroke-miterlimit="10"/>
<path d="M1406.2 201.109H1398.5C1396.15 201.109 1394.25 203.008 1394.25 205.351V213.053C1394.25 215.396 1396.15 217.295 1398.5 217.295H1406.2C1408.54 217.295 1410.44 215.396 1410.44 213.053V205.351C1410.44 203.008 1408.54 201.109 1406.2 201.109Z" fill="#DDE11E" stroke="#DDE11E" stroke-width="1.13" stroke-miterlimit="10"/>
<path d="M1405.54 200.001C1405.54 201.196 1404.57 202.166 1403.38 202.166H1401.33C1400.13 202.166 1399.16 201.196 1399.16 200.001C1399.16 198.803 1400.13 197.833 1401.33 197.833H1403.38C1404.57 197.833 1405.54 198.803 1405.54 200.001Z" fill="#E4BAB0"/>
<path d="M1402.69 172.086C1402.58 172.083 1402.47 172.073 1402.35 172.073C1402.23 172.073 1402.46 175.186 1402.35 175.189C1394.89 175.465 1388.55 181.443 1388.55 188.945C1388.55 196.447 1394.73 199.66 1402.35 199.66C1409.97 199.66 1416.14 196.563 1416.14 188.945C1416.14 181.327 1410.15 172.361 1402.69 172.086H1402.69Z" fill="#EEC7BB"/>
<path d="M1401.76 241.269C1401.76 242.339 1400.89 243.208 1399.82 243.208H1397.74C1396.67 243.208 1395.81 242.342 1395.81 241.269C1395.81 240.199 1396.67 239.332 1397.74 239.332H1399.82C1400.89 239.332 1401.76 240.199 1401.76 241.269Z" fill="#231F20" stroke="#231F20" stroke-width="1.17" stroke-miterlimit="10"/>
<path d="M1408.9 242.339C1408.9 243.409 1408.03 243.205 1406.96 243.205H1404.88C1403.81 243.205 1402.95 242.339 1402.95 241.266C1402.95 240.196 1403.81 239.329 1404.88 239.329H1406.96C1408.03 239.329 1408.9 240.196 1408.9 241.266V242.336V242.339Z" fill="#231F20" stroke="#231F20" stroke-width="1.17" stroke-miterlimit="10"/>
<path d="M1395.22 205.589C1395.55 204.91 1395.27 204.09 1394.59 203.762C1393.91 203.433 1393.09 203.718 1392.76 204.397L1392.42 205.107C1393.19 205.582 1393.99 206.033 1394.79 206.493L1395.22 205.589Z" fill="#DDE11E" stroke="#DDE11E" stroke-width="1.13" stroke-miterlimit="10"/>
<path d="M1382.58 215.807L1384.08 215.511C1384.68 215.393 1385.26 215.783 1385.38 216.378L1385.67 217.886C1385.79 218.481 1385.4 219.061 1384.81 219.179L1383.3 219.476C1382.7 219.593 1382.12 219.203 1382.01 218.608L1381.71 217.101C1381.59 216.505 1381.98 215.925 1382.58 215.807Z" fill="#EEC7BB"/>
<path d="M1382.29 216.598C1382.34 216.82 1382.14 217.045 1381.86 217.101L1379.99 217.471C1379.71 217.527 1379.45 217.392 1379.4 217.167C1379.36 216.945 1379.55 216.72 1379.84 216.663L1381.7 216.294C1381.98 216.238 1382.25 216.372 1382.29 216.595V216.598Z" fill="#EEC7BB"/>
<path d="M1384.67 215.694C1384.6 215.909 1384.32 216.019 1384.05 215.934L1382.23 215.378C1381.95 215.293 1381.78 215.049 1381.85 214.833C1381.92 214.617 1382.19 214.508 1382.47 214.592L1384.29 215.149C1384.57 215.234 1384.73 215.478 1384.67 215.694Z" fill="#EEC7BB"/>
<path d="M1382.52 217.733C1382.56 217.955 1382.37 218.181 1382.08 218.237L1380.22 218.606C1379.94 218.663 1379.67 218.528 1379.63 218.306C1379.58 218.084 1379.78 217.858 1380.06 217.802L1381.93 217.433C1382.21 217.377 1382.47 217.511 1382.52 217.733Z" fill="#EEC7BB"/>
<path d="M1382.74 218.872C1382.79 219.094 1382.59 219.319 1382.31 219.376L1380.44 219.745C1380.16 219.801 1379.89 219.667 1379.85 219.445C1379.81 219.222 1380 218.997 1380.28 218.941L1382.15 218.572C1382.43 218.515 1382.7 218.653 1382.74 218.875V218.872Z" fill="#EEC7BB"/>
<path d="M1408.32 201.603C1407.69 202.019 1407.52 202.87 1407.93 203.499C1408.35 204.131 1409.2 204.3 1409.83 203.884L1411.77 202.598C1411.21 201.878 1410.62 201.177 1409.98 200.499L1408.32 201.6V201.603Z" fill="#DDE11E" stroke="#DDE11E" stroke-width="1.13" stroke-miterlimit="10"/>
<path d="M1391.09 214.104L1390.46 214.661C1390.72 214.552 1390.94 214.361 1391.09 214.104Z" fill="#EEC7BB"/>
<path d="M1392.42 205.107L1388.9 212.396L1389.38 211.968C1389.73 211.661 1390.42 211.871 1390.92 212.437C1391.23 212.787 1391.39 213.194 1391.39 213.526L1394.79 206.493C1393.99 206.036 1393.2 205.582 1392.42 205.107H1392.42Z" fill="#EEC7BB"/>
<path d="M1391.09 214.104L1391.19 214.023C1391.32 213.907 1391.39 213.729 1391.39 213.526L1391.16 214.004C1391.14 214.042 1391.12 214.07 1391.09 214.104Z" fill="#EEC7BB"/>
<path d="M1389.33 214.642C1388.65 214.314 1388.36 213.494 1388.69 212.815L1388.9 212.396L1385.05 215.775C1384.7 216.081 1384.83 216.792 1385.32 217.358C1385.82 217.924 1386.51 218.137 1386.86 217.827L1390.46 214.658C1390.11 214.808 1389.7 214.818 1389.33 214.639V214.642Z" fill="#EEC7BB"/>
<path d="M1389.38 211.968L1388.9 212.396L1388.69 212.815C1388.36 213.494 1388.65 214.314 1389.33 214.642C1389.7 214.821 1390.11 214.814 1390.46 214.661L1391.09 214.104C1391.11 214.07 1391.14 214.042 1391.15 214.004L1391.39 213.526C1391.39 213.194 1391.23 212.79 1390.92 212.437C1390.42 211.871 1389.73 211.658 1389.38 211.968H1389.38Z" fill="#DFB1A5"/>
<path d="M1418.18 197.939L1417.71 198.643C1417.95 198.459 1418.1 198.212 1418.18 197.939Z" fill="#EEC7BB"/>
<path d="M1416.04 198.693C1415.41 198.274 1415.1 197.62 1415.36 197.232L1415.72 196.691L1409.98 200.495C1410.62 201.174 1411.21 201.875 1411.77 202.595L1417.18 199.009C1416.85 199.056 1416.43 198.95 1416.04 198.69L1416.04 198.693Z" fill="#EEC7BB"/>
<path d="M1420.16 192.487C1419.53 192.067 1418.81 192.045 1418.55 192.433L1415.72 196.694L1416.11 196.438C1416.74 196.022 1417.59 196.191 1418.01 196.823C1418.23 197.167 1418.28 197.573 1418.18 197.943L1420.83 193.948C1421.09 193.56 1420.79 192.906 1420.16 192.49V192.487Z" fill="#EEC7BB"/>
<path d="M1417.18 199.013C1417.38 198.984 1417.54 198.897 1417.64 198.75L1417.71 198.647C1417.68 198.672 1417.66 198.697 1417.62 198.722L1417.18 199.016V199.013Z" fill="#EEC7BB"/>
<path d="M1418.01 196.823C1417.59 196.194 1416.74 196.022 1416.11 196.438L1415.72 196.694L1415.36 197.236C1415.11 197.624 1415.41 198.277 1416.03 198.697C1416.42 198.956 1416.85 199.063 1417.17 199.016L1417.62 198.722C1417.65 198.7 1417.68 198.672 1417.71 198.647L1418.17 197.943C1418.28 197.573 1418.23 197.167 1418 196.823H1418.01Z" fill="#DFB1A5"/>
<path d="M1418.16 191.518L1418.25 189.985C1418.29 189.379 1418.81 188.915 1419.42 188.951L1420.95 189.042C1421.56 189.078 1422.02 189.6 1421.99 190.206L1421.89 191.74C1421.86 192.346 1421.34 192.81 1420.73 192.774L1419.2 192.683C1418.59 192.647 1418.13 192.124 1418.16 191.518Z" fill="#E4BAB0"/>
<path d="M1418.42 192.061C1418.63 191.967 1418.69 191.676 1418.58 191.417L1417.78 189.687C1417.66 189.427 1417.39 189.289 1417.19 189.386C1416.98 189.48 1416.91 189.771 1417.03 190.031L1417.83 191.761C1417.95 192.024 1418.22 192.158 1418.42 192.061H1418.42Z" fill="#E4BAB0"/>
<path d="M1422.02 189.186C1421.84 189.061 1421.55 189.155 1421.39 189.396L1420.35 190.985C1420.19 191.226 1420.21 191.523 1420.4 191.645C1420.59 191.77 1420.87 191.676 1421.03 191.435L1422.08 189.846C1422.24 189.605 1422.21 189.308 1422.02 189.186Z" fill="#EEC7BB"/>
<path opacity="0.4" d="M1403.72 191.079C1403.72 192.167 1402.84 193.047 1401.76 193.047C1400.67 193.047 1399.79 192.164 1399.79 191.079C1399.79 189.99 1400.67 189.111 1401.76 189.111C1402.84 189.111 1403.72 189.993 1403.72 191.079Z" fill="#D68470"/>
<path d="M1400.54 194.62C1399.28 194.62 1398.26 193.6 1398.26 192.34C1398.26 192.34 1397.16 193.187 1397.7 194.62" stroke="#D68470" stroke-width="1.13" stroke-miterlimit="10"/>
<path d="M1395.8 189.784C1395.8 189.317 1396.18 188.942 1396.64 188.942C1397.11 188.942 1397.49 189.317 1397.49 189.784" stroke="#231F20" stroke-width="1.13" stroke-miterlimit="10"/>
<path d="M1405.08 189.784C1405.08 189.317 1405.45 188.942 1405.92 188.942C1406.39 188.942 1406.76 189.317 1406.76 189.784" stroke="#231F20" stroke-width="1.13" stroke-miterlimit="10"/>
<path d="M1417.83 191.761C1417.83 191.761 1419.27 185.995 1416.97 175.152C1414.67 164.308 1415.27 149.677 1415.27 149.677" stroke="#231F20" stroke-width="0.56" stroke-linecap="round" stroke-linejoin="round"/>
<path d="M1419.19 192.681C1419.19 192.681 1417.8 188.298 1421.98 178.643C1426.38 168.469 1424.32 165.382 1424.32 165.382" stroke="#231F20" stroke-width="0.56" stroke-linecap="round" stroke-linejoin="round"/>
<path d="M1402.6 172.367C1398.46 172.743 1394.41 175.634 1391.73 178.765C1389.57 181.293 1389.17 184.615 1388.45 187.766C1392.58 186.568 1394.87 183.204 1396.85 179.472C1399.49 184.465 1404.74 187.869 1410.78 187.869C1413.23 187.869 1415.54 187.312 1417.61 186.317C1418.37 185.948 1414.17 179.059 1413.7 178.452C1411.91 176.134 1409.62 174.079 1406.88 172.974C1405.48 172.408 1404.03 172.239 1402.6 172.367Z" fill="#EB633E" stroke="#EB633E" stroke-width="2.26" stroke-miterlimit="10"/>
<path d="M1421.05 188.548C1420.87 188.423 1420.58 188.517 1420.42 188.757L1419.38 190.347C1419.22 190.588 1419.24 190.882 1419.44 191.007C1419.63 191.132 1419.91 191.038 1420.06 190.797L1421.11 189.208C1421.27 188.967 1421.24 188.673 1421.05 188.548Z" fill="#EEC7BB"/>
<path d="M1420.09 187.913C1419.9 187.788 1419.62 187.881 1419.46 188.122L1418.41 189.712C1418.25 189.953 1418.28 190.25 1418.47 190.375C1418.66 190.5 1418.94 190.406 1419.1 190.165L1420.15 188.576C1420.3 188.335 1420.28 188.041 1420.09 187.916L1420.09 187.913Z" fill="#EEC7BB"/>
<path d="M1426.43 140.776C1426.43 147.502 1421.75 152.958 1415.99 152.958C1410.22 152.958 1405.54 147.505 1405.54 140.776C1405.54 134.047 1410.22 128.597 1415.99 128.597C1421.76 128.597 1426.43 134.05 1426.43 140.776H1426.43Z" fill="#745297" stroke="#745297" stroke-width="0.41" stroke-miterlimit="10"/>
<path d="M1415.2 152.602C1415.2 152.602 1413.43 154.269 1414.32 154.87C1415.2 155.471 1415.27 154.476 1415.27 154.476C1415.27 154.476 1415.8 155.602 1416.38 154.742C1416.97 153.881 1415.2 152.602 1415.2 152.602Z" fill="#745297" stroke="#745297" stroke-width="0.41" stroke-miterlimit="10"/>
<path d="M1435.91 157.047C1435.58 163.767 1430.64 168.979 1424.88 168.695C1419.11 168.407 1414.71 162.729 1415.05 156.009C1415.38 149.289 1420.33 144.077 1426.09 144.361C1431.85 144.649 1436.25 150.327 1435.92 157.047H1435.91Z" fill="#70C8C1"/>
<path d="M1424.11 168.3C1424.11 168.3 1422.26 169.877 1423.12 170.522C1423.98 171.166 1424.09 170.174 1424.09 170.174C1424.09 170.174 1424.56 171.326 1425.19 170.497C1425.81 169.668 1424.11 168.3 1424.11 168.3Z" fill="#70C8C1"/>
<path d="M1532.62 223.542C1532.62 232.095 1524.11 239.015 1513.62 239.015C1503.13 239.015 1494.62 232.095 1494.62 223.542V218.643C1494.62 210.09 1503.13 203.17 1513.62 203.17C1524.11 203.17 1532.62 210.09 1532.62 218.643V223.542Z" fill="url(#paint0_radial_299_3567)"/>
<path d="M1505.28 212.367C1505.28 212.367 1512.63 210.39 1523.03 212.367L1524.02 215.805C1524.02 215.805 1514.18 214.731 1504.38 215.805L1505.28 212.367Z" fill="url(#paint1_linear_299_3567)"/>
<path d="M1501.89 212.152L1500.86 215.849C1500.86 215.849 1500 215.849 1498.15 216.45C1498.1 216.45 1497.85 213.872 1501.89 212.152Z" fill="url(#paint2_linear_299_3567)"/>
<path d="M1539.58 190.619C1539.58 202.438 1529.99 212.023 1518.18 212.023H1507.9C1496.08 212.023 1486.5 202.438 1486.5 190.619C1486.5 178.799 1496.08 169.215 1507.9 169.215H1518.18C1529.99 169.258 1539.58 178.842 1539.58 190.619Z" fill="url(#paint3_radial_299_3567)"/>
<path d="M1495.18 175.361L1495.44 177.467C1495.44 177.467 1493.46 178.069 1492.13 179.573C1492.17 179.573 1491.96 177.081 1495.18 175.361Z" fill="url(#paint4_linear_299_3567)"/>
<path d="M1501.89 172.696C1501.89 172.696 1503.99 171.278 1507.22 171.579H1518.35C1518.35 171.579 1521.79 172.009 1522.56 173.298L1501.89 172.696Z" fill="url(#paint5_linear_299_3567)"/>
<path d="M1531.46 189.759C1531.46 193.155 1528.71 195.906 1525.31 195.906H1500.77C1497.37 195.906 1494.62 193.155 1494.62 189.759C1494.62 186.364 1497.37 183.613 1500.77 183.613H1525.31C1528.71 183.613 1531.46 186.364 1531.46 189.759Z" fill="url(#paint6_radial_299_3567)"/>
<path d="M1507.3 189.932C1507.3 191.265 1506.23 192.296 1504.94 192.296C1503.61 192.296 1502.57 191.222 1502.57 189.932C1502.57 188.6 1503.65 187.568 1504.94 187.568C1506.23 187.568 1507.3 188.643 1507.3 189.932Z" fill="#27A3FF"/>
<path d="M1522.77 189.932C1522.77 191.265 1521.7 192.296 1520.41 192.296C1519.08 192.296 1518.05 191.222 1518.05 189.932C1518.05 188.6 1519.12 187.568 1520.41 187.568C1521.7 187.568 1522.77 188.643 1522.77 189.932Z" fill="#27A3FF"/>
<path d="M1513.62 163.67H1512.54V169.214H1513.62V163.67Z" fill="url(#paint7_linear_299_3567)"/>
<path d="M1514.95 162.167C1514.95 163.241 1514.09 164.058 1513.06 164.058C1511.99 164.058 1511.17 163.198 1511.17 162.167C1511.17 161.092 1512.03 160.275 1513.06 160.275C1514.14 160.275 1514.95 161.092 1514.95 162.167Z" fill="#27A3FF"/>
<path d="M1539.11 181.938H1540.65C1540.65 181.938 1542.63 184.86 1542.37 191.049C1542.37 191.049 1542.46 196.594 1540.74 199.344H1539.15L1539.11 181.938Z" fill="url(#paint8_linear_299_3567)"/>
<path d="M1537.73 181.937H1539.28C1539.28 181.937 1541.26 184.86 1541 191.049C1541 191.049 1541.08 196.593 1539.36 199.344H1537.77L1537.73 181.937Z" fill="url(#paint9_linear_299_3567)"/>
<path d="M1487.19 181.937H1485.64C1485.64 181.937 1483.66 184.86 1483.92 191.049C1483.92 191.049 1483.83 196.593 1485.55 199.344H1487.14L1487.19 181.937Z" fill="url(#paint10_linear_299_3567)"/>
<path d="M1488.52 181.938H1486.97C1486.97 181.938 1484.99 184.86 1485.25 191.049C1485.25 191.049 1485.17 196.594 1486.89 199.344H1488.48L1488.52 181.938Z" fill="url(#paint11_linear_299_3567)"/>
<path d="M1496.77 210.992C1495.18 209.53 1490.24 212.324 1485.68 217.224C1481.13 222.123 1478.72 227.281 1480.31 228.742C1481.9 230.204 1486.84 227.41 1491.4 222.51C1495.91 217.61 1498.32 212.453 1496.77 210.992Z" fill="url(#paint12_linear_299_3567)"/>
<path d="M1551.23 200.29C1550.02 198.527 1544.57 200.118 1539.02 203.9C1533.48 207.639 1530 212.152 1531.2 213.914C1532.4 215.676 1537.86 214.086 1543.4 210.304C1548.91 206.565 1552.43 202.052 1551.23 200.29Z" fill="url(#paint13_linear_299_3567)"/>
<path d="M1552.47 202.912C1552.22 202.912 1551.91 202.869 1551.66 202.826C1550.58 202.611 1549.72 202.009 1549.16 201.106C1548.65 200.204 1548.52 199.129 1548.82 198.098C1549.12 197.109 1549.81 196.25 1550.71 195.691C1551.61 195.132 1552.65 194.96 1553.68 195.132L1553.25 197.41C1552.82 197.324 1552.3 197.41 1551.91 197.668C1551.48 197.926 1551.18 198.313 1551.05 198.742C1550.93 199.129 1550.97 199.559 1551.18 199.903C1551.4 200.247 1551.74 200.462 1552.13 200.548C1552.6 200.634 1553.08 200.548 1553.5 200.29C1554.06 199.946 1554.41 199.387 1554.45 198.785L1556.77 198.871C1556.73 200.247 1555.95 201.536 1554.71 202.267C1553.98 202.697 1553.2 202.912 1552.47 202.912Z" fill="url(#paint14_linear_299_3567)"/>
</g>
<g clip-path="url(#clip1_299_3567)">
<path d="M376.281 158.181H344.017V160.123H376.281V158.181Z" fill="#FFC545"/>
<path d="M343.599 156.163H343.637C344.777 156.163 345.708 157.095 345.708 158.238V178.971C345.708 180.113 344.777 181.046 343.637 181.046H343.599C342.459 181.046 341.528 180.113 341.528 178.971V158.238C341.528 157.095 342.459 156.163 343.599 156.163Z" fill="#9BD2CD"/>
<path d="M349.812 156.163H349.85C350.99 156.163 351.921 157.095 351.921 158.238V178.971C351.921 180.113 350.99 181.046 349.85 181.046H349.812C348.672 181.046 347.741 180.113 347.741 178.971V158.238C347.741 157.095 348.672 156.163 349.812 156.163Z" fill="#9BD2CD"/>
<path d="M356.026 156.163H356.064C357.204 156.163 358.135 157.095 358.135 158.238V178.971C358.135 180.113 357.204 181.046 356.064 181.046H356.026C354.886 181.046 353.955 180.113 353.955 178.971V158.238C353.955 157.095 354.886 156.163 356.026 156.163Z" fill="#9BD2CD"/>
<path d="M362.239 156.163H362.277C363.417 156.163 364.348 157.095 364.348 158.238V178.971C364.348 180.113 363.417 181.046 362.277 181.046H362.239C361.099 181.046 360.168 180.113 360.168 178.971V158.238C360.168 157.095 361.099 156.163 362.239 156.163Z" fill="#9BD2CD"/>
<path d="M368.453 156.163H368.491C369.631 156.163 370.562 157.095 370.562 158.238V178.971C370.562 180.113 369.631 181.046 368.491 181.046H368.453C367.313 181.046 366.382 180.113 366.382 178.971V158.238C366.382 157.095 367.313 156.163 368.453 156.163Z" fill="#9BD2CD"/>
<path d="M382.437 173.659H342.478V176.344H382.437V173.659Z" fill="#FCD746"/>
<path d="M343.029 139.332H339.837V222.531H343.029V139.332Z" fill="#72A2ED"/>
<path d="M345.442 219.161H337.385V222.531H345.442V219.161Z" fill="#C8DE86"/>
<path d="M344.473 139.332H341.281V222.531H344.473V139.332Z" fill="#FFA912"/>
<path d="M343.143 219.161H338.849V222.531H343.143V219.161Z" fill="#C8DE86"/>
<path d="M345.1 139.332H341.908V222.531H345.1V139.332Z" fill="#ED6E50"/>
<path d="M347.532 219.161H339.476V222.531H347.532V219.161Z" fill="#C8DE86"/>
<path d="M378.029 139.332H374.837V222.531H378.029V139.332Z" fill="#72A2ED"/>
<path d="M380.461 219.161H372.405V222.531H380.461V219.161Z" fill="#C8DE86"/>
<path d="M379.492 139.332H376.3V222.531H379.492V139.332Z" fill="#FFA912"/>
<path d="M381.924 219.161H373.868V222.531H381.924V219.161Z" fill="#C8DE86"/>
<path d="M379.853 139.332H376.661V222.531H379.853V139.332Z" fill="#ED6E50"/>
<path d="M382.286 219.161H374.229V222.531H382.286V219.161Z" fill="#C8DE86"/>
<path d="M346.563 139.332H343.371V222.531H346.563V139.332Z" fill="#FFA912"/>
<path d="M348.995 219.161H340.939V222.531H348.995V219.161Z" fill="#C8DE86"/>
<path d="M381.316 139.332H378.124V222.531H381.316V139.332Z" fill="#FFA912"/>
<path d="M383.749 219.161H375.692V222.531H383.749V219.161Z" fill="#C8DE86"/>
<path d="M382.114 176.344H342.155V179.028H382.114V176.344Z" fill="#FFC545"/>
<path d="M382.114 158.181H342.155V160.123H382.114V158.181Z" fill="#FFC545"/>
<path d="M349.432 156.163H349.47C350.61 156.163 351.541 157.095 351.541 158.238V178.971C351.541 180.113 350.61 181.046 349.47 181.046H349.432C348.292 181.046 347.361 180.113 347.361 178.971V158.238C347.361 157.095 348.292 156.163 349.432 156.163Z" fill="#89D6F4"/>
<path d="M355.646 156.163H355.684C356.824 156.163 357.755 157.095 357.755 158.238V178.971C357.755 180.113 356.824 181.046 355.684 181.046H355.646C354.506 181.046 353.574 180.113 353.574 178.971V158.238C353.574 157.095 354.506 156.163 355.646 156.163Z" fill="#9BD2CD"/>
<path d="M361.859 156.163H361.897C363.037 156.163 363.968 157.095 363.968 158.238V178.971C363.968 180.113 363.037 181.046 361.897 181.046H361.859C360.719 181.046 359.788 180.113 359.788 178.971V158.238C359.788 157.095 360.719 156.163 361.859 156.163Z" fill="#89D6F4"/>
<path d="M368.072 156.163H368.11C369.25 156.163 370.182 157.095 370.182 158.238V178.971C370.182 180.113 369.25 181.046 368.11 181.046H368.072C366.932 181.046 366.001 180.113 366.001 178.971V158.238C366.001 157.095 366.932 156.163 368.072 156.163Z" fill="#9BD2CD"/>
<path d="M374.286 156.163H374.324C375.464 156.163 376.395 157.095 376.395 158.238V178.971C376.395 180.113 375.464 181.046 374.324 181.046H374.286C373.146 181.046 372.215 180.113 372.215 178.971V158.238C372.215 157.095 373.146 156.163 374.286 156.163Z" fill="#89D6F4"/>
<path d="M376.604 176.591H376.718C383.616 176.42 390.323 178.857 395.549 183.369L430.587 216.896C434.748 220.513 440.088 222.512 445.617 222.512H459.317L459.279 222.455C456.885 218.666 452.761 216.325 448.277 216.268H448.125C442.767 216.172 437.617 214.211 433.551 210.727L398.114 177.181C393.078 172.84 386.656 170.461 380.024 170.461H376.623V176.61L376.604 176.591Z" fill="#9BD2CD"/>
<path d="M380.974 176.591H381.088C387.986 176.42 394.693 178.857 399.919 183.369L434.957 216.896C439.118 220.513 444.458 222.512 449.987 222.512H463.687L463.649 222.455C461.255 218.666 457.131 216.325 452.647 216.268H452.495C447.137 216.172 441.987 214.211 437.921 210.727L402.484 177.181C397.448 172.84 391.026 170.461 384.395 170.461H380.993V176.61L380.974 176.591Z" fill="#9BD2CD"/>
<path d="M362.106 121.531L364.576 136.895L339.096 136.477L359.94 121.531H362.106Z" fill="#72A2ED"/>
<path d="M381.032 136.477H339.096V139.37H381.032V136.477Z" fill="#72A2ED"/>
<path d="M382.856 136.477H341.186L362.106 121.531L382.856 136.477Z" fill="#72A2ED"/>
<path d="M382.875 136.477H340.939V139.37H382.875V136.477Z" fill="#72A2ED"/>
<path d="M307.231 215.163H301.815V216.934H307.231V215.163Z" fill="#F4C67B"/>
<path d="M312.19 209.699H306.774V211.47H312.19V209.699Z" fill="#F4C67B"/>
<path d="M317.567 203.474H312.152V205.244H317.567V203.474Z" fill="#F4C67B"/>
<path d="M322.944 197.248H317.529V199.019H322.944V197.248Z" fill="#F4C67B"/>
<path d="M307.592 198.923H305.9V216.458H307.592V198.923Z" fill="#9BD2CD"/>
<path d="M312.874 192.812H311.183V210.347H312.874V192.812Z" fill="#9BD2CD"/>
<path d="M318.175 204.235H316.484V186.681L318.175 185.672V204.235Z" fill="#9BD2CD"/>
<path d="M323.476 198.105L321.766 199.114V180.57H323.476V198.105Z" fill="#9BD2CD"/>
<path d="M328.759 191.993L327.049 193.002V174.459H328.759V191.993Z" fill="#9BD2CD"/>
<path d="M334.041 185.863L332.35 186.872V168.328H334.041V185.863Z" fill="#9BD2CD"/>
<path d="M339.343 179.751L337.633 180.76V162.217H339.343V179.751Z" fill="#9BD2CD"/>
<path d="M302.309 222.531H300.048L341.357 176.344H343.618L302.309 222.531Z" fill="#F4C67B"/>
<path d="M302.309 204.292H300.048L341.357 158.124H343.618L302.309 204.292Z" fill="#F4C67B"/>
<path d="M302.309 201.208H299.668V222.531H302.309V201.208Z" fill="#C8DE86"/>
<path d="M329.5 192.812L324.123 192.793V191.022H331.552L329.5 192.812Z" fill="#F4AD7B"/>
<path d="M335.01 186.567H329.5V184.797H336.93L335.01 186.567Z" fill="#F4AD7B"/>
<path d="M339.191 180.76H333.68V178.99H341.11L339.191 180.76Z" fill="#F4AD7B"/>
<path d="M308.447 215.163H303.031V216.934H308.447V215.163Z" fill="#F4AD7B"/>
<path d="M313.425 209.699H308.01V211.47H313.425V209.699Z" fill="#F4AD7B"/>
<path d="M318.783 203.474H313.368V205.244H318.783V203.474Z" fill="#F4AD7B"/>
<path d="M324.16 197.248H318.745V199.019H324.16V197.248Z" fill="#F4AD7B"/>
<path d="M308.808 198.923H307.116V216.458H308.808V198.923Z" fill="#9BD2CD"/>
<path d="M314.09 192.812H312.399V210.347H314.09V192.812Z" fill="#89D6F4"/>
<path d="M319.391 204.235H317.7V186.681L319.391 185.672V204.235Z" fill="#9BD2CD"/>
<path d="M324.693 198.105L322.982 199.114V180.57H324.693V198.105Z" fill="#89D6F4"/>
<path d="M329.975 191.993L328.284 193.002V174.459H329.975V191.993Z" fill="#9BD2CD"/>
<path d="M335.257 185.863L333.566 186.872V168.328H335.257V185.863Z" fill="#89D6F4"/>
<path d="M340.559 179.751L338.849 180.76V162.217H340.559V179.751Z" fill="#9BD2CD"/>
<path d="M303.525 222.531H301.264L342.573 176.344H344.834L303.525 222.531Z" fill="#F4AD7B"/>
<path d="M303.525 204.292H301.264L342.573 158.124H344.834L303.525 204.292Z" fill="#F4AD7B"/>
<path d="M303.525 201.208H300.884V222.531H303.525V201.208Z" fill="#C8DE86"/>
<path d="M343.124 157.705H340.483V179.028H343.124V157.705Z" fill="#C8DE86"/>
<path d="M381.564 157.705H378.922V179.028H381.564V157.705Z" fill="#C8DE86"/>
<path d="M344.587 157.705H341.946V179.028H344.587V157.705Z" fill="#C8DE86"/>
<path d="M383.027 157.705H380.385V179.028H383.027V157.705Z" fill="#C8DE86"/>
</g>
<g clip-path="url(#clip2_299_3567)">
<path d="M261.306 221.008C265.031 221.008 268.051 220.365 268.051 219.571C268.051 218.777 265.031 218.133 261.306 218.133C257.58 218.133 254.56 218.777 254.56 219.571C254.56 220.365 257.58 221.008 261.306 221.008Z" fill="#49B3E1"/>
<path d="M267.92 216.525H254.701V219.43H267.92V216.525Z" fill="#49B3E1"/>
<path d="M268.061 216.525C268.061 217.319 265.035 217.962 261.316 217.962C257.596 217.962 254.57 217.319 254.57 216.525C254.57 215.731 257.596 215.087 261.316 215.087C265.035 215.087 268.061 215.731 268.061 216.525Z" fill="#49B3E1"/>
<path d="M258.31 216.434C258.31 216.434 258.37 216.364 258.37 216.274H257.526C257.526 215.52 258.672 215.349 261.265 215.027C262.11 214.926 263.276 214.776 263.909 214.615C263.276 214.454 262.11 214.303 261.265 214.203C258.672 213.881 257.526 213.71 257.526 212.956C257.526 212.202 258.672 212.031 261.265 211.71C262.11 211.609 263.276 211.458 263.909 211.297C263.276 211.137 262.11 210.986 261.265 210.885C258.672 210.564 257.526 210.393 257.526 209.639C257.526 208.885 258.672 208.714 261.255 208.392C262.1 208.292 263.266 208.141 263.899 207.98C263.266 207.819 262.1 207.668 261.255 207.568C258.662 207.246 257.516 207.075 257.516 206.321C257.516 205.567 258.662 205.396 261.255 205.075C262.1 204.974 263.266 204.823 263.899 204.662C263.266 204.502 262.1 204.351 261.255 204.25C258.662 203.929 257.516 203.758 257.516 203.004C257.516 202.25 258.662 202.079 261.245 201.757C262.361 201.616 264.04 201.415 264.301 201.184C264.281 201.194 264.241 201.255 264.241 201.345H265.085C265.085 202.099 263.939 202.27 261.346 202.592C260.501 202.692 259.335 202.843 258.702 203.004C259.335 203.165 260.501 203.315 261.346 203.416C263.939 203.738 265.085 203.908 265.085 204.662C265.085 205.416 263.939 205.587 261.356 205.909C260.511 206.01 259.345 206.16 258.712 206.321C259.345 206.482 260.511 206.633 261.356 206.733C263.949 207.055 265.096 207.226 265.096 207.98C265.096 208.734 263.949 208.905 261.356 209.226C260.511 209.327 259.345 209.478 258.712 209.639C259.345 209.8 260.511 209.95 261.356 210.051C263.949 210.373 265.367 210.594 265.085 211.297C264.714 212.252 263.578 212.423 261.346 212.544C260.501 212.594 259.335 212.795 258.702 212.956C259.335 213.117 260.501 213.268 261.346 213.368C263.939 213.69 265.085 213.861 265.085 214.615C265.085 215.369 263.939 215.54 261.346 215.861C260.23 216.002 258.551 216.203 258.29 216.434H258.31Z" fill="#49B3E1"/>
<path d="M274.887 166.351C274.887 166.351 278.084 167.658 279.29 168.834C280.959 170.483 281.904 171.769 282.537 172.875C282.749 173.247 282.708 173.71 282.427 174.031L281.794 174.755C281.502 175.087 281.04 175.197 280.637 175.016C278.848 174.232 274.847 173.106 274.043 174.474C273.058 176.152 270.745 182.747 272.887 186.115C274.435 188.548 276.837 193.474 278.054 196.017C278.496 196.942 278.215 198.048 277.38 198.651L276.536 199.264C275.651 199.907 274.415 199.777 273.691 198.952C271.469 196.429 266.573 191.574 261.698 191.574C256.822 191.574 251.745 196.821 249.745 199.254C249.152 199.978 248.167 200.219 247.302 199.877L245.995 199.355C245.07 198.983 244.527 198.017 244.688 197.032C245.322 193.112 247.312 183.582 251.735 181.47C257.345 178.806 261.828 180.767 263.517 179.369C265.196 177.962 264.985 176.122 267.317 171.93C270.243 166.733 276.425 164.531 276.425 164.531L274.887 166.351Z" fill="#FED05E"/>
<path d="M262.552 180.666H255.264V179.138H262.552C262.964 179.138 263.306 179.48 263.306 179.892V179.912C263.306 180.324 262.964 180.666 262.552 180.666Z" fill="#E0836E"/>
<path d="M255.766 180.666H254.279L252.188 174.675C252.037 174.222 252.369 173.76 252.851 173.76H252.861C253.163 173.76 253.424 173.951 253.525 174.232L255.756 180.666H255.766Z" fill="#E0836E"/>
<path d="M274.887 167.195C274.887 167.195 278.084 168.502 279.29 169.678C280.959 171.327 281.904 172.614 282.537 173.72C282.749 174.092 282.708 174.554 282.427 174.876L281.794 175.6C281.502 175.931 281.04 176.042 280.637 175.861C278.848 175.077 274.847 173.951 274.043 175.318C273.058 176.997 270.745 183.592 272.887 186.959C274.435 189.392 276.837 194.318 278.054 196.861C278.496 197.786 278.215 198.892 277.38 199.495L276.536 200.109C275.651 200.752 274.415 200.621 273.691 199.797C271.469 197.274 266.573 192.418 261.698 192.418C256.822 192.418 251.745 197.666 249.745 200.098C249.152 200.812 248.167 201.064 247.302 200.722L245.995 200.199C245.07 199.827 244.527 198.862 244.688 197.877C245.322 193.956 247.312 184.426 251.735 182.315C257.345 179.651 261.828 181.611 263.517 180.214C265.196 178.806 264.985 176.967 267.317 172.775C270.243 167.577 276.425 164.531 276.425 164.531L274.887 167.195Z" fill="#F4AE7B"/>
<path d="M263.326 201.637H259.285C257.345 201.637 255.766 199.033 255.766 195.816V189.282C255.766 187.884 256.902 186.748 258.3 186.748H264.301C265.699 186.748 266.835 187.884 266.835 189.282V195.816C266.835 199.033 265.256 201.637 263.316 201.637H263.326Z" fill="#A8BB6F"/>
<path d="M271.751 190.86H268.735C268.242 190.86 267.85 190.548 267.85 190.156C267.85 189.754 268.242 189.442 268.735 189.442H271.751C272.243 189.442 272.635 189.754 272.635 190.146C272.635 190.548 272.243 190.86 271.751 190.86Z" fill="#49B3E1"/>
<path d="M253.293 190.86H250.277C249.785 190.86 249.393 190.548 249.393 190.156C249.393 189.754 249.785 189.442 250.277 189.442H253.293C253.786 189.442 254.178 189.754 254.178 190.146C254.178 190.548 253.786 190.86 253.293 190.86Z" fill="#49B3E1"/>
<path d="M263.326 202.471H259.285C257.345 202.471 255.766 199.867 255.766 196.65V190.116C255.766 188.719 256.902 187.583 258.3 187.583H264.301C265.699 187.583 266.835 188.719 266.835 190.116V196.65C266.835 199.867 265.256 202.471 263.316 202.471H263.326Z" fill="#C8DE86"/>
<path d="M259.285 190.347C259.285 190.991 258.762 191.523 258.129 191.503C257.264 191.473 256.621 190.93 256.973 190.347C257.295 189.794 257.496 189.191 258.129 189.191C258.762 189.191 259.285 189.714 259.285 190.347Z" fill="#49B3E1"/>
<path d="M264.593 191.503C265.231 191.503 265.749 190.986 265.749 190.347C265.749 189.709 265.231 189.191 264.593 189.191C263.954 189.191 263.437 189.709 263.437 190.347C263.437 190.986 263.954 191.503 264.593 191.503Z" fill="#49B3E1"/>
<path d="M271.751 191.141H268.735C268.242 191.141 267.85 190.83 267.85 190.438C267.85 190.035 268.242 189.724 268.735 189.724H271.751C272.243 189.724 272.635 190.035 272.635 190.428C272.635 190.83 272.243 191.141 271.751 191.141Z" fill="#49B3E1"/>
<path d="M253.293 191.141H250.277C249.785 191.141 249.393 190.83 249.393 190.438C249.393 190.035 249.785 189.724 250.277 189.724H253.293C253.786 189.724 254.178 190.035 254.178 190.428C254.178 190.83 253.786 191.141 253.293 191.141Z" fill="#49B3E1"/>
<path d="M262.552 181.511H255.264V179.983H262.552C262.964 179.983 263.306 180.324 263.306 180.737V180.757C263.306 181.169 262.964 181.511 262.552 181.511Z" fill="#E0836E"/>
<path d="M255.766 181.511H254.279L252.067 174.906C251.916 174.453 252.248 173.991 252.73 173.991H252.741C253.042 173.991 253.304 174.182 253.404 174.464L255.766 181.511Z" fill="#E0836E"/>
<path d="M275.43 169.99C275.43 170.392 275.098 170.724 274.696 170.724C274.294 170.724 273.962 170.392 273.962 169.99C273.962 169.588 274.294 169.256 274.696 169.256C275.098 169.256 275.43 169.588 275.43 169.99Z" fill="#CC2742"/>
<path d="M274.696 170.533C274.996 170.533 275.239 170.29 275.239 169.99C275.239 169.69 274.996 169.447 274.696 169.447C274.396 169.447 274.153 169.69 274.153 169.99C274.153 170.29 274.396 170.533 274.696 170.533Z" fill="#511D0C"/>
<path d="M274.696 169.729C274.696 169.859 274.585 169.97 274.455 169.97C274.324 169.97 274.213 169.859 274.213 169.729C274.213 169.598 274.324 169.487 274.455 169.487C274.585 169.487 274.696 169.598 274.696 169.729Z" fill="#46A3CB"/>
</g>
<defs>
<radialGradient id="paint0_radial_299_3567" cx="0" cy="0" r="1" gradientUnits="userSpaceOnUse" gradientTransform="translate(1513.6 221.077) scale(20.5552 16.7463)">
<stop stop-color="#F1F1F5"/>
<stop offset="0.551" stop-color="#E4E2EC"/>
<stop offset="1" stop-color="#CFCFDE"/>
</radialGradient>
<linearGradient id="paint1_linear_299_3567" x1="1504.41" y1="213.676" x2="1524.06" y2="213.676" gradientUnits="userSpaceOnUse">
<stop stop-color="white"/>
<stop offset="1"/>
</linearGradient>
<linearGradient id="paint2_linear_299_3567" x1="1498.1" y1="214.295" x2="1503.3" y2="214.295" gradientUnits="userSpaceOnUse">
<stop stop-color="white"/>
<stop offset="1"/>
</linearGradient>
<radialGradient id="paint3_radial_299_3567" cx="0" cy="0" r="1" gradientUnits="userSpaceOnUse" gradientTransform="translate(1513.06 190.635) scale(24.0908 24.0908)">
<stop stop-color="#F1F1F5"/>
<stop offset="0.551" stop-color="#E4E2EC"/>
<stop offset="1" stop-color="#CFCFDE"/>
</radialGradient>
<linearGradient id="paint4_linear_299_3567" x1="1492.17" y1="177.478" x2="1496.72" y2="177.478" gradientUnits="userSpaceOnUse">
<stop stop-color="white"/>
<stop offset="1"/>
</linearGradient>
<linearGradient id="paint5_linear_299_3567" x1="1501.88" y1="172.428" x2="1530.35" y2="172.428" gradientUnits="userSpaceOnUse">
<stop stop-color="white"/>
<stop offset="1"/>
</linearGradient>
<radialGradient id="paint6_radial_299_3567" cx="0" cy="0" r="1" gradientUnits="userSpaceOnUse" gradientTransform="translate(1513.06 189.76) scale(13.7092 12.7386)">
<stop stop-color="#3E3C44"/>
<stop offset="0.551" stop-color="#242327"/>
<stop offset="1" stop-color="#040100"/>
</radialGradient>
<linearGradient id="paint7_linear_299_3567" x1="1512.53" y1="166.468" x2="1513.6" y2="166.468" gradientUnits="userSpaceOnUse">
<stop stop-color="#F1F1F5"/>
<stop offset="0.551" stop-color="#E4E2EC"/>
<stop offset="1" stop-color="#CFCFDE"/>
</linearGradient>
<linearGradient id="paint8_linear_299_3567" x1="1540.74" y1="182.296" x2="1540.74" y2="198.687" gradientUnits="userSpaceOnUse">
<stop stop-color="#F1F1F5"/>
<stop offset="0.5153" stop-color="#D5CFD9"/>
<stop offset="1" stop-color="#BBBBCA"/>
</linearGradient>
<linearGradient id="paint9_linear_299_3567" x1="1539.39" y1="182.012" x2="1539.39" y2="199.78" gradientUnits="userSpaceOnUse">
<stop stop-color="#9DA1AF"/>
<stop offset="0.1378" stop-color="#ACB1C5"/>
<stop offset="0.2347" stop-color="#D7DBE7"/>
<stop offset="0.4133" stop-color="#9399B0"/>
<stop offset="0.6318" stop-color="#686D84"/>
<stop offset="1" stop-color="#41434F"/>
</linearGradient>
<linearGradient id="paint10_linear_299_3567" x1="1485.53" y1="182.296" x2="1485.53" y2="198.687" gradientUnits="userSpaceOnUse">
<stop stop-color="#F1F1F5"/>
<stop offset="0.5153" stop-color="#D5CFD9"/>
<stop offset="1" stop-color="#BBBBCA"/>
</linearGradient>
<linearGradient id="paint11_linear_299_3567" x1="1486.88" y1="182.012" x2="1486.88" y2="199.78" gradientUnits="userSpaceOnUse">
<stop stop-color="#9DA1AF"/>
<stop offset="0.1378" stop-color="#ACB1C5"/>
<stop offset="0.2347" stop-color="#D7DBE7"/>
<stop offset="0.4133" stop-color="#9399B0"/>
<stop offset="0.6318" stop-color="#686D84"/>
<stop offset="1" stop-color="#41434F"/>
</linearGradient>
<linearGradient id="paint12_linear_299_3567" x1="1485.84" y1="217.634" x2="1491.37" y2="222.233" gradientUnits="userSpaceOnUse">
<stop stop-color="#F1F1F5"/>
<stop offset="0.551" stop-color="#E4E2EC"/>
<stop offset="1" stop-color="#CFCFDE"/>
</linearGradient>
<linearGradient id="paint13_linear_299_3567" x1="1539.1" y1="204.329" x2="1543.45" y2="210.045" gradientUnits="userSpaceOnUse">
<stop stop-color="#F1F1F5"/>
<stop offset="0.551" stop-color="#E4E2EC"/>
<stop offset="1" stop-color="#CFCFDE"/>
</linearGradient>
<linearGradient id="paint14_linear_299_3567" x1="1552.73" y1="198.892" x2="1554.53" y2="192.659" gradientUnits="userSpaceOnUse">
<stop stop-color="#9DA1AF"/>
<stop offset="0.2347" stop-color="#CFD1E3"/>
<stop offset="0.6318" stop-color="#686D84"/>
<stop offset="1" stop-color="#41434F"/>
</linearGradient>
<clipPath id="clip0_299_3567">
<rect width="233" height="116" fill="white" transform="translate(1324.67 128.531)"/>
</clipPath>
<clipPath id="clip1_299_3567">
<rect width="164" height="101" fill="white" transform="translate(299.668 121.531)"/>
</clipPath>
<clipPath id="clip2_299_3567">
<rect width="38" height="56.4772" fill="white" transform="translate(244.668 164.531)"/>
</clipPath>
</defs>
</svg>
