<svg width="1920" height="1080" viewBox="0 0 1920 1080" fill="none" xmlns="http://www.w3.org/2000/svg">
<rect width="1920" height="1080" fill="#F3E6F5"/>
<path d="M145.419 1027.62C200.422 1031.09 228.37 1018.41 254.632 1013.65C260.182 1012.66 269.597 1011.07 280.697 1009.29C290.211 984.216 293.976 958.845 292.787 936.646C292.093 923.762 290.409 911.077 288.03 898.689C246.407 902.059 245.613 920.888 208.152 937.934C166.825 956.764 123.419 940.115 126.293 912.167C129.167 884.121 126.886 873.616 91.9026 797.702C80.3074 772.529 78.0285 753.303 80.0105 738.636C34.819 735.96 -2.64207 737.149 -2.64207 737.149C-2.64207 737.149 -73.4029 745.672 -117.009 797.702C-115.027 798.098 -79.6469 804.837 -55.4654 845.668C-30.6894 887.689 -90.7465 914.744 -55.4654 937.934C-20.1843 961.125 -16.6161 1031.09 -16.6161 1062.61C-16.6161 1081.54 -23.0582 1105.12 -38.023 1120.98C-18.995 1127.82 2.80823 1132.97 27.8816 1136.04C37.6929 1137.23 47.0086 1137.93 56.2253 1138.42C56.919 1124.05 59.1983 1106.21 64.7481 1087.09C77.929 1041.6 90.5154 1024.06 145.419 1027.62Z" fill="#F1D1ED"/>
<path d="M91.9018 797.607C126.886 873.62 129.166 884.125 126.292 912.073C123.418 940.119 166.824 956.67 208.151 937.84C245.612 920.794 246.505 901.964 288.03 898.594C274.155 826.744 233.126 765.894 172.97 751.028C144.527 743.992 110.534 740.325 80.109 738.541C78.1269 753.208 80.4058 772.435 92.001 797.607H91.9018Z" fill="#E8C6E3"/>
<path d="M280.697 1009.29C269.597 1011.07 260.182 1012.66 254.633 1013.65C228.37 1018.51 200.422 1031.19 145.419 1027.62C90.4166 1024.06 77.9293 1041.6 64.7484 1087.09C59.1986 1106.21 57.0184 1124.15 56.2256 1138.42C184.962 1144.77 254.633 1078.07 280.796 1009.19L280.697 1009.29Z" fill="#E8C6E3"/>
<path d="M1750.8 255.147C1744.39 253.549 1749.22 234.667 1742.61 232.767C1733.32 230.108 1683.32 210.768 1675.1 162.18C1666.87 113.592 1687.06 72.4884 1735.38 60.8429C1783.76 49.1826 1824.59 70.3274 1838.7 120.355C1852.64 169.721 1820.39 207.311 1821.53 215.766C1822.67 224.222 1829.69 232.113 1827.43 235.147C1822.23 242.045 1761.9 257.914 1750.75 255.162L1750.8 255.147Z" fill="#EDCAE9"/>
<path d="M1811.48 266.957C1799.54 269.918 1782.07 273.928 1756.52 279.625C1751.2 280.808 1746.25 278.255 1745.39 273.935C1744.53 269.615 1748.14 265.153 1753.46 264.014C1786.67 256.84 1825.76 248.184 1827.21 246.265C1830.55 244.364 1834.89 244.207 1838.09 245.983C1842.29 248.402 1842.98 253.391 1839.61 257.169C1837.69 259.31 1836.32 260.827 1811.54 266.942L1811.48 266.957Z" fill="#EDCAE9"/>
<path d="M1812.7 289.41C1804.09 291.522 1791.58 294.336 1773.21 298.234C1769.41 299.059 1765.55 296.139 1764.67 291.783C1763.74 287.396 1766.1 283.198 1769.91 282.374C1792.71 277.534 1818.29 271.606 1822.84 269.802C1825.18 268.149 1828.34 268.23 1830.79 270.308C1834.06 272.996 1834.88 278.049 1832.7 281.612C1831.41 283.665 1830.54 285.069 1812.77 289.441L1812.7 289.41Z" fill="#EDCAE9"/>
<path d="M1796.83 130.872C1791.49 129.048 1786.65 133.304 1784.53 137.778C1782 143.133 1780.69 149.286 1779.7 155.114C1779.48 156.477 1779.27 157.895 1779.05 159.314C1776.24 160.068 1773.28 160.09 1770.27 159.239C1769.44 158.99 1768.58 158.685 1767.77 158.31C1771.63 151.948 1773.72 144.285 1771.93 137.366C1770.76 133.003 1767.79 129.419 1763.11 128.956C1757.33 128.374 1753.22 134.269 1752.11 139.183C1750.37 147.049 1754.26 154.945 1760.28 159.962C1757.32 163.48 1753.46 166.291 1749.18 167.791C1747.1 163.79 1744.89 159.944 1742.47 156.212C1739.56 151.781 1736.03 147.637 1731.32 145.109C1726.55 142.54 1719.98 142.11 1718.51 148.542C1716.17 158.818 1724.67 168.204 1733.38 172.024C1737.94 174 1742.72 174.377 1747.27 173.455C1748.56 176.068 1749.81 178.752 1750.99 181.395C1758.27 197.737 1762.29 214.951 1764.82 232.566C1765.07 234.156 1767.71 233.862 1767.65 232.282C1766.9 218.688 1763.87 205.174 1759.52 192.251C1757.23 185.465 1754.59 178.713 1751.49 172.205C1755.42 170.738 1759.11 168.387 1762.15 165.382C1763 164.563 1763.83 163.689 1764.63 162.705C1769.05 165.071 1773.88 165.614 1778.47 164.858C1777.69 173.886 1778 182.98 1778.92 191.966C1780.18 203.943 1782.57 215.734 1785.35 227.421C1786.21 231.096 1791.87 229.697 1791.02 226.077C1786.09 205.674 1782.12 184.242 1784.29 163.178C1787.27 161.908 1790.04 160.1 1792.47 157.909C1798.18 152.709 1808.8 134.887 1796.8 130.761L1796.83 130.872ZM1740.6 168.907C1735.63 168.463 1730.94 165.754 1727.49 162.178C1724.6 159.106 1721.48 153.014 1723.41 148.71C1724.58 146.027 1730.7 150.071 1732.09 151.06C1734.88 153.094 1737.04 156.067 1738.99 158.919C1741.14 162.073 1743.09 165.397 1744.9 168.82C1743.53 169.01 1742.06 169.049 1740.6 168.907ZM1757.99 138.377C1758.75 136.339 1760.8 133.836 1763.24 134.308C1765.05 134.652 1766.13 136.493 1766.69 138.12C1768.29 142.781 1766.9 147.77 1765.12 152.155C1764.65 153.286 1764.08 154.447 1763.48 155.553C1758.57 151.364 1755.77 144.656 1758.05 138.362L1757.99 138.377ZM1796.53 137.937C1796.83 140.581 1795.59 143.695 1794.49 146.002C1792.48 150.211 1789.19 154.053 1785.19 156.603C1785.41 155.184 1785.69 153.806 1786.01 152.358C1786.66 149.463 1787.43 146.592 1788.27 143.763C1789.03 141.309 1789.92 138.228 1792.22 136.664C1793.73 135.668 1796.31 135.569 1796.57 137.867L1796.53 137.937Z" fill="white"/>
<path d="M1732.69 -4.439C1730.94 -10.0687 1721.22 -9.8913 1721.73 -3.33932C1722.33 4.19599 1724.74 11.6592 1726.48 19.009C1728.14 26.0826 1728.89 34.6417 1733.74 40.3855C1734.88 41.7396 1736.99 40.9967 1737.47 39.5044C1739.67 32.8792 1737.4 25.0807 1736.36 18.3157C1735.25 10.8584 1734.9 2.72236 1732.69 -4.439Z" fill="#EDCAE9"/>
<path d="M1808.76 -6.82827C1805.83 -3.85234 1804.28 0.293242 1802.36 3.94569C1800.11 8.15839 1797.86 12.3711 1795.62 16.5838C1791.56 24.4193 1787.46 32.3249 1784.41 40.6013C1782.92 44.732 1789 47.1262 1791.21 43.6355C1795.75 36.4992 1799.71 28.9842 1804.04 21.7266C1806.2 18.0702 1808.44 14.5095 1810.72 10.8787C1813.22 6.95298 1816.67 3.24711 1818.15 -1.17462C1819.96 -6.57282 1812.69 -10.9583 1808.75 -6.8835L1808.76 -6.82827Z" fill="#EDCAE9"/>
<path d="M1684.16 64.327C1671.05 55.8232 1657.36 47.8285 1643.83 39.9698C1637.95 36.5735 1632.38 45.8215 1638.36 48.9525C1652.31 56.1661 1666.4 63.4606 1680.7 69.9887C1684.49 71.7558 1687.87 66.7057 1684.16 64.327Z" fill="#EDCAE9"/>
<path d="M1645.07 117.955C1638.35 118.928 1631.75 119.927 1624.92 119.861C1621.37 119.866 1617.86 119.564 1614.37 119.137C1610.88 118.711 1607.4 117.216 1603.9 117.386C1599.99 117.604 1597.16 123.394 1601.49 125.429C1607.67 128.39 1616.42 127.466 1623.15 127.381C1632.65 127.263 1641.59 126.169 1646.27 123.081C1649.08 121.203 1648.43 117.468 1645.02 117.97L1645.07 117.955Z" fill="#EDCAE9"/>
<path d="M1871.29 58.4057C1866.48 57.6822 1860.8 61.4533 1856.36 63.234C1850.81 65.4911 1845.48 67.689 1840.34 70.605C1837.27 72.3767 1839.26 76.518 1842.48 76.1311C1847.91 75.4432 1853.03 74.1921 1858.38 72.7566C1863.52 71.3802 1870.79 70.9111 1874.67 67.0316C1877.98 63.7164 1875.53 58.9863 1871.35 58.3909L1871.29 58.4057Z" fill="#EDCAE9"/>
</svg>
