<svg width="1920" height="1080" viewBox="0 0 1920 1080" fill="none" xmlns="http://www.w3.org/2000/svg">
<rect width="1920" height="1080" fill="#F7F2DC"/>
<path d="M97.6788 800.632C-151.205 837.155 -47.5036 1135 104.592 1135C256.688 1135 282.456 1016.62 277.428 956.167C272.4 895.716 251.66 777.963 97.6788 800.632Z" fill="#F2F0C3"/>
<path d="M221.802 887.513C221.143 886.061 219.298 885.599 217.717 885.4C204.54 883.882 190.902 886.721 179.306 893.257C175.485 895.436 174.431 897.813 177.988 900.718C181.085 903.293 184.05 906 187.015 908.707C179.701 917.224 140.368 970.769 137.272 972.023C133.385 973.608 132.199 971.627 99.7837 948.321C92.1411 942.841 85.8821 940.662 72.9028 953.933C24.7413 1003.38 23.5554 1003.58 21.3812 1009.92C19.0753 1016.92 27.772 1021.94 32.911 1017.05C90.9552 961.988 88.5175 963.242 92.8659 962.846C95.633 962.648 98.2684 964.166 100.64 965.685C110.062 971.693 120.998 979.748 130.42 987.539C134.768 991.104 141.027 990.51 144.783 986.35C164.021 964.893 180.756 941.454 197.49 918.742C203.815 925.213 205.067 926.665 207.505 927.854C209.811 928.976 212.841 929.108 214.818 927.457C216.597 926.005 217.19 923.562 217.585 921.317C218.507 916.894 222.988 890.286 221.802 887.513Z" fill="#E6E3AE"/>
<path d="M1791.3 170.92C1719.56 201.724 1774.56 282.332 1820.04 270.145C1865.53 257.957 1863.89 220.689 1857.54 203C1851.18 185.311 1835.47 151.814 1791.3 170.92Z" fill="#F2F0C3"/>
<path d="M1860.94 -7.45365C1783.2 -3.05377 1806.95 91.5846 1853.84 95.718C1900.74 99.8514 1911.94 64.2605 1912 45.3907C1912.38 26.7049 1908.98 -10.0919 1860.94 -7.45365Z" fill="#F2F0C3"/>
<path d="M1657.38 61.0962C1585.64 91.8997 1640.64 172.508 1686.12 160.32C1731.6 148.133 1729.97 110.865 1723.61 93.1757C1717.25 75.4868 1701.55 41.9893 1657.38 61.0962Z" fill="#F2F0C3"/>
<path d="M1872.26 38.8025C1873.81 33.5386 1872.19 27.5076 1867.08 23.4918C1859.85 17.6183 1850.13 21.5681 1847.29 29.0624C1845.9 28.8965 1844.53 29.8031 1844.68 31.3782C1846.2 43.0903 1847.89 57.45 1853.87 67.6988C1855.5 70.7636 1860.85 69.6009 1860.66 65.8808C1860.29 55.4745 1855.62 44.0677 1851.1 34.2361C1852.51 31.4358 1854.36 29.3221 1857.56 28.1955C1864.46 25.8075 1867.84 35.4059 1862.92 39.1488C1861.92 39.4182 1860.98 39.9388 1860.04 40.4595C1855.23 43.6325 1859.4 51.1351 1864.59 48.3974C1872.96 43.4604 1879.75 52.6861 1873.87 59.9158C1871.4 62.7342 1866.81 63.6949 1863.4 64.0676C1860.07 64.6917 1860.16 70.0542 1863.26 70.57C1874.84 72.5839 1884.28 63.5902 1883.33 51.9947C1882.4 45.5104 1877.59 40.606 1872.26 38.8025Z" fill="white"/>
<path d="M1824.12 227.038C1817.85 229.793 1809.52 229.87 1805.19 223.759C1799.12 215.152 1809.08 207.097 1814.8 202.33C1815.92 201.491 1815.2 199.8 1813.99 199.315C1799.07 193.886 1789.62 216.89 1795.04 228.095C1800.87 240.807 1820.54 246.85 1830.56 235.007C1834.21 230.528 1829.44 224.802 1824.12 227.038Z" fill="white"/>
<path d="M1753.6 168.903C1751.56 164.331 1746.42 162.209 1742.53 159.75C1738 156.923 1733.54 154.348 1729.01 151.521C1726.14 149.865 1722.93 153.958 1725.43 156.251C1729.34 159.782 1733.25 163.314 1737.16 166.845C1741.06 170.376 1744.54 174.293 1750.17 175.208C1753.45 175.406 1754.52 171.349 1753.6 168.903Z" fill="#E5E3AE"/>
<path d="M1796.28 57.8129C1778.39 59.376 1761.4 66.351 1746.03 75.3182C1742.78 77.2661 1744.83 82.9111 1748.78 81.5825C1765.42 76.3173 1782.26 71.806 1798.49 65.033C1801.87 63.5878 1800 57.6241 1796.28 57.8129Z" fill="#E5E3AE"/>
<path d="M1853.85 118.877C1849.2 123.625 1845.97 130.684 1843.23 136.536C1840.31 142.707 1836.01 149.784 1837.64 156.887C1838.27 160.221 1842.51 160.97 1844.87 158.722C1849.4 154.544 1850.3 147.84 1852.61 142.374C1855.15 135.768 1859.46 129.763 1861.43 123.041C1862.5 118.984 1856.83 115.924 1853.85 118.877Z" fill="#E5E3AE"/>
<path d="M1701.09 119.68C1697.44 113.116 1690.68 109.001 1684.93 104.617C1678.41 99.3632 1671.45 94.4949 1664.37 90.1965C1661.11 88.1057 1656.74 90.8927 1656.68 94.6801C1656.56 106.294 1655.39 123.036 1661.5 133.788C1662.48 135.412 1665.38 135.174 1665.91 133.146C1666.38 130.866 1666.53 128.403 1666.42 126.006C1668.8 124.83 1670.98 122.901 1672.97 121.289C1675.65 119.225 1678.08 117.228 1680.37 114.728C1685.48 118.744 1689.98 123.464 1696.02 125.887C1700.21 127.457 1702.72 122.745 1701.09 119.68ZM1668.71 115.429C1667.83 116.201 1667.15 116.654 1666.28 117.426C1666.21 117.175 1666.33 116.605 1666.26 116.354C1666.26 112.315 1666.25 108.276 1666.5 104.17C1669.5 106.328 1672.25 108.554 1675.25 110.712C1672.94 112.139 1670.95 113.751 1668.71 115.429Z" fill="white"/>
</svg>
