<svg width="1920" height="1080" viewBox="0 0 1920 1080" fill="none" xmlns="http://www.w3.org/2000/svg">
<rect width="1920" height="1080" fill="#DCEBFE"/>
<path d="M41.9591 1036.33C41.9591 1036.33 -37.0864 1020.53 -55.3986 952.48C-73.6449 884.436 -31.8825 801.24 74.8287 793.665C181.606 786.09 243.986 827.457 279.885 891.879C315.785 956.301 218.164 1018.15 162.042 1036.4L149.461 1082.77L132.466 1044.17C132.466 1044.17 102.692 1046.54 41.9591 1036.4V1036.33Z" fill="#D4E3F6"/>
<path d="M132.203 860.064C132.203 860.064 132.203 854.991 123.31 854.991C114.417 854.991 103.088 854.992 103.022 860.064C103.022 860.064 102.034 902.616 103.022 912.036C103.022 912.168 103.022 912.234 103.022 912.365C93.4048 912.497 78.2541 912.365 66.4632 912.299C66.2655 903.604 66.1339 896.886 66.1998 894.185C66.595 882.394 69.164 854.794 65.8046 854.069C62.4452 853.345 37.7437 850.578 37.612 854.069C37.612 854.069 35.8993 910.323 37.612 937.791C39.3246 965.26 35.5037 992.596 40.1147 993.848C44.7257 995.099 62.8404 995.56 66.1998 993.848C68.2418 992.794 67.6489 960.319 66.9243 932.522C78.7152 932.522 93.8659 932.39 103.878 932.258C103.944 942.007 103.681 952.217 102.561 957.289C100.519 966.511 102.561 989.237 102.561 989.237C102.561 989.237 102.561 992.596 109.411 992.596H125.747C125.747 992.596 130.688 995.56 129.7 983.769C128.712 971.979 127.987 921.126 129.832 908.479C131.676 895.897 132.203 860.129 132.203 860.129V860.064Z" fill="#DCEBFE"/>
<path d="M167.444 890.363C167.444 890.363 161.779 890.758 161.318 895.435C160.857 900.112 159.934 921.915 161.318 942.072C162.701 962.228 160.593 986.205 160.593 986.205C160.593 986.205 158.222 989.565 164.019 989.96C169.815 990.355 182.923 993.319 183.384 985.744C183.845 978.169 185.295 910.453 183.384 903.339C181.474 896.159 187.139 890.297 177.258 890.297H167.378L167.444 890.363Z" fill="#DCEBFE"/>
<path d="M166.39 859.471C166.39 859.471 159.078 866.255 162.701 872.513C166.39 878.837 173.174 883.184 180.552 877.322C187.864 871.525 183.714 860.854 176.863 859.405C170.078 857.956 166.39 859.405 166.39 859.405V859.471Z" fill="#DCEBFE"/>
<path d="M1852.81 152.651C1845.69 146.467 1837.63 141.595 1829.76 136.536C1822.89 132.101 1816.84 126.917 1809.65 122.608C1793.35 112.739 1777.05 102.183 1761.31 91.8775C1760.25 91.1904 1759.12 90.6283 1758 90.1911C1760.25 91.003 1765.62 56.338 1765.74 53.215C1766.24 40.7856 1764.74 28.2936 1761.37 16.3014C1757.87 4.05933 1752.31 -7.62062 1745.07 -18.1138C1741.45 -23.3604 1737.14 -27.7326 1732.95 -32.4171C1728.39 -37.4763 1725.02 -43.1601 1718.84 -46.4705C1697.6 -57.9006 1676.86 -67.0821 1652.32 -67.5818C1628.71 -68.0815 1605.04 -61.3983 1585.36 -48.2818C1567.5 -36.352 1556.44 -21.0494 1546.2 -2.62386C1545.26 -0.937447 1544.32 0.811424 1543.33 2.49783C1532.21 22.5474 1531.58 50.7166 1536.39 72.8273C1541.45 96.2496 1553.82 117.861 1571.56 133.975C1581.11 142.72 1591.67 152.9 1604.79 155.774C1617.28 158.459 1628.58 163.144 1641.64 164.081C1666.75 165.83 1692.17 159.271 1713.28 145.53C1719.96 141.221 1726.14 136.161 1731.77 130.54C1732.64 131.414 1733.58 132.226 1734.64 132.913C1738.14 133.288 1745.19 139.472 1748.26 141.533C1753.44 145.031 1758.25 149.153 1763.31 152.776C1775.92 161.77 1789.6 168.765 1802.41 177.135C1808.28 181.007 1814.15 184.817 1820.08 188.69C1821.77 189.752 1823.52 190.813 1825.08 191.938C1831.14 196.372 1837.95 197.622 1845.44 198.496C1847.88 198.808 1850.44 198.933 1852.75 198.121C1854.87 197.372 1856.62 195.81 1858.31 194.311C1862.24 190.751 1866.18 186.754 1867.62 181.632C1869.18 176.073 1867.43 170.014 1864.24 165.205C1861.12 160.458 1857.25 156.336 1853 152.588L1852.81 152.651ZM1727.64 99.1228C1698.85 143.219 1639.76 155.586 1595.67 126.792C1551.57 97.9985 1539.2 38.9118 1568 -5.1847C1596.79 -49.2812 1655.88 -61.6482 1699.97 -32.8543C1744.07 -4.06042 1756.44 55.0263 1727.64 99.1228Z" fill="#D4E3F7"/>
<path opacity="0.18" d="M1731.95 91.6992C1756.65 45.1774 1738.96 -12.5632 1692.44 -37.2681C1645.92 -61.973 1588.18 -44.2869 1563.48 2.23495C1538.77 48.7568 1556.46 106.497 1602.98 131.202C1649.5 155.907 1707.24 138.221 1731.95 91.6992Z" fill="#D4E3F7"/>
<g opacity="0.9">
<path d="M1679.74 108.241C1678.92 109.053 1678.05 109.865 1677.11 110.615C1676.68 110.99 1676.24 111.302 1675.74 111.614C1675.43 111.802 1675.11 111.989 1674.87 112.176C1673.87 112.801 1672.8 113.301 1671.74 113.8C1671.18 114.05 1670.68 114.3 1670.12 114.487C1669.87 114.612 1669.56 114.675 1669.31 114.8C1669.31 114.8 1669.18 114.8 1669.12 114.862C1668.99 114.862 1668.93 114.987 1668.81 114.987C1667.87 115.424 1666.62 115.549 1665.68 115.799C1664.37 116.111 1663.06 116.361 1661.75 116.611C1661.19 116.673 1660.56 116.798 1659.94 116.861C1659.62 116.861 1658.44 116.861 1658.19 117.048C1657.94 117.048 1657.75 117.048 1657.5 117.048C1656.81 117.048 1656.13 117.048 1655.5 117.111C1653.07 117.111 1650.63 117.111 1648.19 116.861C1647.07 116.736 1646.01 116.611 1644.88 116.486C1644.32 116.424 1643.82 116.299 1643.26 116.236C1643.14 116.236 1642.89 116.236 1642.76 116.236C1642.82 116.236 1642.89 116.236 1643.01 116.236C1644.01 116.236 1642.64 116.174 1642.39 116.111C1637.89 115.237 1633.45 113.863 1629.14 112.176C1628.15 111.739 1627.08 111.302 1626.08 110.865C1625.9 110.802 1625.71 110.677 1625.58 110.615C1625.02 110.303 1624.46 110.053 1623.9 109.803C1621.84 108.741 1619.78 107.554 1617.78 106.305C1615.84 105.056 1613.97 103.807 1612.16 102.433C1611.22 101.746 1610.28 100.996 1609.41 100.247C1609.28 100.184 1609.16 100.059 1609.1 99.9342L1608.78 99.6844C1608.78 99.6844 1608.53 99.4346 1608.53 99.3721C1608.22 99.1223 1607.91 98.9349 1607.72 98.7475C1604.29 95.6245 1601.1 92.2517 1598.29 88.5666C1597.6 87.6922 1596.98 86.8177 1596.29 85.9433C1595.98 85.5061 1595.67 85.0689 1595.42 84.6941C1595.23 84.4443 1595.04 84.1944 1594.92 83.8821C1593.67 81.8834 1592.48 79.8847 1591.42 77.8236C1590.23 75.5125 1589.11 73.1391 1588.17 70.7032C1587.92 70.141 1587.73 69.5164 1587.55 68.9543C1587.48 68.7045 1587.23 67.83 1587.48 68.7669C1587.73 69.7038 1587.42 68.5795 1587.36 68.3297C1586.92 67.018 1586.55 65.7064 1586.17 64.3323C1585.49 61.709 1584.92 58.9608 1584.61 56.275C1584.61 56.275 1584.61 56.1501 1584.61 56.0876C1584.61 55.9002 1584.61 55.3381 1584.55 55.2132C1584.55 54.4012 1584.55 53.6517 1584.55 52.8397C1584.55 52.6523 1584.55 51.8404 1584.61 51.2158C1584.61 51.2158 1584.61 51.0284 1584.74 50.7161C1584.86 50.2789 1584.99 49.7792 1585.11 49.342C1586.05 46.219 1584.36 42.3465 1581.05 41.4721C1577.87 40.5976 1574.18 42.1591 1573.18 45.532C1571.37 51.7779 1571.99 58.2737 1573.37 64.5197C1574.49 69.6413 1576.24 74.763 1578.37 79.5724C1582.55 88.8789 1588.61 97.5608 1595.85 104.744C1610.72 119.422 1630.77 129.165 1651.82 129.852C1664.68 130.227 1678.68 127.229 1688.04 117.798C1690.36 115.487 1691.04 111.489 1688.61 108.928C1686.36 106.617 1682.24 105.868 1679.74 108.366V108.241ZM1584.74 50.4662C1584.74 50.4662 1584.61 51.0284 1584.55 51.1533C1584.55 50.7785 1584.61 50.4662 1584.74 50.4662Z" fill="#D4E3F7"/>
</g>
<path d="M1609.16 99.9359C1608.85 99.4362 1608.6 99.3113 1608.6 99.3737C1608.78 99.5611 1609.03 99.7485 1609.16 99.9359Z" fill="#D4E3F7"/>
<g opacity="0.9">
<path d="M1701.16 98.5595C1698.22 96.8106 1694.41 97.4352 1692.48 100.371C1690.67 103.119 1691.35 107.304 1694.29 109.053C1697.23 110.802 1701.04 110.177 1702.97 107.241C1704.78 104.493 1704.1 100.308 1701.16 98.5595Z" fill="#D4E3F7"/>
</g>
<path d="M1754.56 -34.2915C1750.07 -36.4776 1746.69 -29.4822 1751.19 -27.2961C1771.99 -17.1776 1784.86 6.43209 1781.8 29.4172C1781.11 34.3515 1788.73 35.8506 1789.42 30.8538C1792.91 4.37093 1778.61 -22.6116 1754.56 -34.354V-34.2915Z" fill="#D4E3F7"/>
<path d="M1770.24 -51.7802C1765.99 -54.4035 1762.68 -47.408 1766.87 -44.7847C1792.23 -28.9824 1807.03 1.81015 1803.78 31.4785C1803.22 36.4128 1810.84 37.9118 1811.4 32.915C1815.09 -0.500854 1798.72 -33.9792 1770.24 -51.7802Z" fill="#D4E3F7"/>
<path d="M1498.67 38.9115C1493.61 55.9629 1499.23 75.0131 1512.41 86.8804C1516.09 90.2532 1521.21 84.382 1517.53 81.0717C1506.22 70.8908 1501.98 54.9011 1506.29 40.4105C1507.72 35.6011 1500.1 34.1645 1498.67 38.9739V38.9115Z" fill="#D4E3F7"/>
<path d="M1477.37 49.0934C1475.31 63.1468 1479.68 76.9504 1489.24 87.3811C1492.61 91.0662 1497.67 85.195 1494.36 81.5724C1486.74 73.2653 1483.3 61.7102 1484.99 50.5924C1485.74 45.6581 1478.12 44.1591 1477.37 49.1558V49.0934Z" fill="#D4E3F7"/>
<path d="M1793.66 112.177C1793.66 112.177 1793.16 112.177 1792.91 112.177C1786.98 112.864 1783.67 125.606 1780.92 129.853C1776.05 137.348 1771.05 144.719 1766.06 152.089C1763.62 155.649 1765.68 156.086 1768.49 157.835C1770.62 159.147 1772.8 160.521 1774.93 161.833C1781.17 165.705 1787.42 169.64 1793.6 173.513C1807.84 182.382 1822.08 191.314 1836.32 200.183C1843.51 204.68 1850.81 210.551 1858.56 214.049C1864.3 216.672 1871.86 215.298 1877.61 212.487C1888.66 207.053 1895.72 189.752 1888.79 178.697C1886.35 174.824 1882.67 172.014 1879.05 169.265C1860.06 155.025 1840.45 141.471 1820.4 128.729C1815.52 125.606 1810.59 122.546 1805.66 119.547C1803.09 117.986 1797.16 112.614 1793.66 112.177Z" fill="#D4E3F7"/>
</svg>
