<svg width="61" height="44" viewBox="0 0 61 44" fill="none" xmlns="http://www.w3.org/2000/svg">
<path fill-rule="evenodd" clip-rule="evenodd" d="M8.69031 29.5699L0.570312 31.6099L7.60031 34.7299" fill="#FF5E0D"/>
<path fill-rule="evenodd" clip-rule="evenodd" d="M22.8699 25.93L46.1599 0C46.1599 0 51.1499 20.03 43.0399 31.16L45.4199 31.32L55.3899 24.08L60.3199 30.02L47.7999 34.14C42.2499 38.31 35.4699 41.69 28.6899 43.19C23.6599 44.3 18.2199 44.33 13.6299 41.72C8.23991 38.65 3.24991 31.47 9.46991 26.45C13.2399 23.41 18.6899 24.47 22.8699 25.91V25.93Z" fill="#FFFF94"/>
<path fill-rule="evenodd" clip-rule="evenodd" d="M12.2904 30.01C12.6604 30.65 12.4804 31.45 11.8804 31.79C11.2804 32.13 10.5004 31.89 10.1304 31.24C9.76043 30.6 9.94043 29.8 10.5404 29.45C11.1304 29.11 11.9104 29.36 12.2804 30L12.2904 30.01Z" fill="black"/>
<path d="M29.8701 26.63L43.0901 12.25" stroke="#D3AA00" stroke-width="1.86" stroke-linecap="round" stroke-linejoin="round"/>
<path d="M32.75 28.5499L42.48 21.1899" stroke="#D3AA00" stroke-width="1.86" stroke-linecap="round" stroke-linejoin="round"/>
</svg>
