<svg width="15" height="18" viewBox="0 0 15 18" fill="none" xmlns="http://www.w3.org/2000/svg">
<path d="M7.386 14.3858L5.86133 14.0194L9.44034 0.083252L9.93973 0.109692L7.386 14.3858Z" fill="#415BA3"/>
<path d="M5.86204 14.0195C5.86204 14.0195 0.799968 12.5086 0.496042 15.3163C0.192117 18.1239 4.4206 17.93 5.84564 17.4365C7.27069 16.9417 7.38671 14.3859 7.38671 14.3859L6.62375 14.2033L5.86078 14.0207L5.86204 14.0195Z" fill="#415BA3"/>
<path d="M13.4732 5.78292C9.40489 4.80717 9.06691 2.96773 9.13879 1.34233L9.94085 0.109741C9.93581 0.262084 9.66973 5.28812 14.4115 5.96044C14.0823 5.91386 13.7696 5.85468 13.4745 5.78292H13.4732Z" fill="#415BA3"/>
</svg>
