<svg width="22" height="22" viewBox="0 0 22 22" fill="none" xmlns="http://www.w3.org/2000/svg">
<path d="M19.7931 13.3757C20.9115 8.61855 17.9617 3.85551 13.2046 2.73711C8.44749 1.61871 3.68445 4.56847 2.56605 9.32558C1.44766 14.0827 4.39741 18.8457 9.15452 19.9641C13.9116 21.0825 18.6747 18.1328 19.7931 13.3757Z" fill="#FBC11A"/>
<path d="M3.74219 6.56354C3.74219 6.56354 5.5553 5.10928 8.26552 5.51534C10.9663 5.9214 12.9305 8.75438 12.9305 8.75438C12.9305 8.75438 13.9787 6.61076 13.4121 4.77876C12.685 2.41794 11.1835 2.49349 11.1835 2.49349C11.1835 2.49349 9.23817 2.26685 6.82069 3.64557C4.43154 5.0054 3.74219 6.5541 3.74219 6.5541V6.56354Z" fill="#1875D3"/>
<path d="M12.3727 10.5203C12.3727 10.5203 9.46412 10.5203 7.13163 11.984C4.4403 13.6744 3.86426 16.3279 3.86426 16.3279C3.86426 16.3279 4.79914 17.7633 6.35728 18.7643C7.91542 19.7653 9.19026 19.9636 9.19026 19.9636C9.19026 19.9636 9.03918 17.65 9.51134 15.6763C10.0968 13.2116 12.3727 10.5109 12.3727 10.5109V10.5203Z" fill="#1875D3"/>
<path d="M16.0839 3.97607C16.0839 3.97607 16.7166 5.00539 16.0839 6.86572C15.64 8.15945 14.5352 9.25486 14.5352 9.25486C14.5352 9.25486 16.3671 9.29264 17.3587 9.066C18.728 8.74493 19.3135 7.82893 19.3135 7.82893C19.3135 7.82893 18.6996 6.49743 17.9347 5.6192C16.9243 4.45768 16.0933 3.97607 16.0933 3.97607H16.0839Z" fill="#1875D3"/>
<path d="M14.2051 10.5203C14.2051 10.5203 15.4799 11.9462 15.0266 14.9775C14.5734 18.0088 15.5838 19.0286 15.5838 19.0286C15.5838 19.0286 16.7075 18.462 17.8785 17.14C19.0495 15.8179 19.3706 14.7225 19.3706 14.7225C19.3706 14.7225 19.2761 12.6639 18.2751 11.7101C17.2741 10.7563 15.716 10.2747 14.2145 10.5203H14.2051Z" fill="#1875D3"/>
<path opacity="0.3" d="M18.7278 10.5203C18.7278 14.2504 15.6966 17.2817 11.9665 17.2817C8.23637 17.2817 5.20508 14.2504 5.20508 10.5203C5.20508 6.7902 8.23637 3.75891 11.9665 3.75891C15.6966 3.75891 18.7278 6.7902 18.7278 10.5203Z" fill="white"/>
<path opacity="0.3" d="M13.2604 13.6271C15.4457 13.6271 17.2172 11.8556 17.2172 9.67036C17.2172 7.48511 15.4457 5.71362 13.2604 5.71362C11.0752 5.71362 9.30371 7.48511 9.30371 9.67036C9.30371 11.8556 11.0752 13.6271 13.2604 13.6271Z" fill="white"/>
</svg>
