<svg width="47" height="40" viewBox="0 0 47 40" fill="none" xmlns="http://www.w3.org/2000/svg">
<path fill-rule="evenodd" clip-rule="evenodd" d="M6.03 30.3199L0 33.4099L6.11 34.5899" fill="#FFD833"/>
<path fill-rule="evenodd" clip-rule="evenodd" d="M16.5404 24.88L30.1704 0.22998C30.1704 0.22998 37.7404 15.1 33.3704 25.34L35.2704 25.04L41.8004 17.53L46.7704 21.32L37.6604 26.84C34.0404 31.13 29.3204 35.03 24.2504 37.45C20.4904 39.24 16.2104 40.25 12.1304 39.03C7.32042 37.59 2.09042 32.84 6.08042 27.76C8.50042 24.68 12.9804 24.52 16.5304 24.9L16.5404 24.88Z" fill="#F76670"/>
<path fill-rule="evenodd" clip-rule="evenodd" d="M8.93961 30.0199C9.34961 30.4599 9.34961 31.1199 8.93961 31.4999C8.52961 31.8799 7.86961 31.8199 7.46961 31.3799C7.05961 30.9399 7.05961 30.2799 7.46961 29.8999C7.86961 29.5299 8.52961 29.5799 8.93961 30.0199Z" fill="black"/>
<path d="M22.1699 24.1599L29.9799 10.4399" stroke="#FFABB3" stroke-miterlimit="10"/>
<path d="M24.7998 25.1499L31.1198 17.58" stroke="#FFABB3" stroke-miterlimit="10"/>
</svg>
