<svg width="88" height="100" viewBox="0 0 88 100" fill="none" xmlns="http://www.w3.org/2000/svg">
<g clip-path="url(#clip0_364_14860)">
<path d="M80.6594 13.0847L52.3787 13.0827L61.172 7.364L45.0854 0L30.7267 3.05333L20.5454 13.0807H12.1947L11.8607 13.1867C4.99536 15.378 4.33403 24.3913 4.11603 27.3533C2.4767 49.6807 11.9467 64.268 0.0646973 100H65.3507C71.1067 93.418 72.0274 83.4333 73.1214 71.8467C74.41 58.1987 74.7667 43.008 74.6807 34.146C74.6747 33.5433 74.678 32.9507 74.69 32.37H81.0107C84.8934 32.37 87.9354 28.1347 87.9354 22.7273C87.9354 17.9973 85.3587 12.9127 80.6594 13.0847Z" fill="white"/>
<path d="M81.0106 15.3374H25.2273V30.1174H81.0106V15.3374Z" fill="#6882C5"/>
<path d="M81.0106 15.3374C81.0106 15.3374 72.238 14.5247 72.4286 34.1681C72.6193 53.8114 70.712 93.2434 64.6093 97.748H3.19995C3.19995 97.748 9.30262 79.632 8.34928 61.4774C7.39595 43.3227 2.24662 18.6207 12.5446 15.3334L81.01 15.3381L81.0106 15.3374Z" fill="#E7ECF9"/>
<path d="M81.0106 30.1174C83.5912 30.1174 85.6832 26.8088 85.6832 22.7274C85.6832 18.646 83.5912 15.3374 81.0106 15.3374C78.4299 15.3374 76.3379 18.646 76.3379 22.7274C76.3379 26.8088 78.4299 30.1174 81.0106 30.1174Z" fill="#82A2F4"/>
<path d="M48.1473 73.7748L34.864 87.0581H40.6627L40.326 92.5194L53.6087 79.2368L48.1473 73.7748Z" fill="#76A0EE"/>
<path d="M52.6014 73.7748L65.8841 87.0581H60.0854L60.4227 92.5194L47.1394 79.2368L52.6014 73.7748Z" fill="#76A0EE"/>
<path d="M50.374 84.7607C55.5308 84.7607 59.7113 80.5803 59.7113 75.4234C59.7113 70.2665 55.5308 66.0861 50.374 66.0861C45.2171 66.0861 41.0366 70.2665 41.0366 75.4234C41.0366 80.5803 45.2171 84.7607 50.374 84.7607Z" fill="#FFC269"/>
<path d="M50.3739 81.5607C53.7635 81.5607 56.5112 78.8129 56.5112 75.4233C56.5112 72.0338 53.7635 69.286 50.3739 69.286C46.9843 69.286 44.2366 72.0338 44.2366 75.4233C44.2366 78.8129 46.9843 81.5607 50.3739 81.5607Z" fill="#FFB020"/>
<path d="M64.4185 25.5121H13.4985C13.2225 25.5121 12.9985 25.2881 12.9985 25.0121C12.9985 24.7361 13.2225 24.5121 13.4985 24.5121H64.4185C64.6945 24.5121 64.9185 24.7361 64.9185 25.0121C64.9185 25.2881 64.6945 25.5121 64.4185 25.5121Z" fill="#A3A6B2"/>
<path d="M64.9906 37.2827H14.0706C13.7946 37.2827 13.5706 37.0587 13.5706 36.7827C13.5706 36.5067 13.7946 36.2827 14.0706 36.2827H64.9906C65.2666 36.2827 65.4906 36.5067 65.4906 36.7827C65.4906 37.0587 65.2666 37.2827 64.9906 37.2827Z" fill="#A3A6B2"/>
<path d="M65.7059 48.6021H14.7859C14.5099 48.6021 14.2859 48.3781 14.2859 48.1021C14.2859 47.8261 14.5099 47.6021 14.7859 47.6021H65.7059C65.9819 47.6021 66.2059 47.8261 66.2059 48.1021C66.2059 48.3781 65.9819 48.6021 65.7059 48.6021Z" fill="#A3A6B2"/>
<path d="M31.374 12.8866C31.374 12.8866 32.64 20.8206 32.9694 21.16C39.2487 22.9013 46.4274 20.83 50.8134 16.0106L48.2907 7.91931L31.374 12.8866Z" fill="#C95754"/>
<path d="M41.8461 17.2467L56.5121 7.70803L44.8254 2.35803L31.8387 5.12003L22.9214 13.902L41.8461 17.2467Z" fill="#F48682"/>
<path d="M39.9786 9.39666C39.8806 9.13866 39.592 9.008 39.3333 9.10666C31.1753 12.204 28.8133 18.5293 26.9353 24.7233C26.0533 27.632 24.9673 31.944 22.462 32.858C21.6373 32.1247 20.5246 32.41 19.524 32.826C18.636 33.1953 17.778 33.6353 16.96 34.1407C17.0513 34.8793 18.1853 37.7107 18.3433 37.672C19.5233 37.386 20.4053 37.11 21.3333 36.4407C22.1646 35.8413 23.06 34.818 22.9193 33.7533C25.8193 32.586 26.9166 28.2307 27.892 25.0133C29.734 18.938 31.934 12.986 39.688 10.0413C39.946 9.94333 40.076 9.65466 39.978 9.39666H39.9786Z" fill="#1D1D3D"/>
</g>
<defs>
<clipPath id="clip0_364_14860">
<rect width="87.8707" height="100" fill="white" transform="translate(0.0646973)"/>
</clipPath>
</defs>
</svg>
