<svg width="114" height="100" viewBox="0 0 114 100" fill="none" xmlns="http://www.w3.org/2000/svg">
<path d="M111.835 20.9388C111.458 16.1995 107.585 12.4397 102.831 12.1911C100.819 12.0856 98.7697 11.9876 96.6374 11.8897C95.8463 5.19892 90.135 0 83.2408 0C76.6103 0 71.0798 4.80711 69.9572 11.1287C51.0226 10.88 31.1386 11.2266 10.4484 12.2061C5.49817 12.4473 1.61029 16.3577 1.39932 21.308C0.389672 43.1209 0.0430777 68.49 1.3089 90.9885C1.58768 96.0443 5.76188 100 10.8176 100H103.532C108.685 100 112.875 95.9614 113.055 90.8077C113.862 67.6386 113.666 44.0476 111.835 20.9388Z" fill="white"/>
<path d="M109.1 90.6645C108.994 93.6633 106.53 96.0443 103.532 96.0443H10.8101C7.84899 96.0443 5.40776 93.7236 5.24954 90.77C4.00632 68.5653 4.33784 43.2715 5.34749 21.4888C5.46804 18.6106 7.76611 16.2974 10.6368 16.1618C42.0639 14.6699 72.7601 14.5871 102.62 16.1467C105.415 16.2899 107.668 18.4749 107.894 21.2628C109.718 44.2736 109.914 67.405 109.1 90.6645Z" fill="#76A0EE"/>
<path d="M28.2679 60.2697C24.056 60.0286 19.8215 60.1492 15.6323 60.6314C11.33 61.1287 10.7724 62.6733 10.584 65.22C10.0717 72.2348 10.034 79.2797 10.4635 86.2944C10.5238 87.3267 10.6142 88.4117 11.1567 89.2932C12.3246 91.1844 14.9542 91.3653 17.1769 91.3276C24.8773 91.2146 32.5777 91.1015 40.2781 90.9885C42.6968 90.9508 43.6235 90.5138 44.3619 87.9747C46.547 80.44 46.1476 72.4382 45.673 64.6097C45.4997 61.7164 44.7688 60.5937 41.2501 60.2999C36.7293 59.9231 32.1784 59.9231 28.2679 60.2697Z" fill="#7FD4E7"/>
<path d="M80.7318 60.1718C72.9862 59.554 65.1953 59.5013 57.4422 59.9985C53.3282 60.2623 51.4521 61.3397 51.0528 67.4051C50.6308 73.8246 50.2089 80.2442 49.7869 86.6637C49.7267 87.6206 49.6739 88.6303 50.1335 89.4741C51 91.0489 53.1474 91.2372 54.9406 91.2372C68.94 91.192 82.947 90.7927 96.9313 90.0468C100.269 89.8659 101.972 89.1652 102.786 84.132C103.78 77.9762 104.202 71.73 104.044 65.4913C103.961 62.3268 103.072 61.5205 100.465 61.0308C93.6537 59.765 86.6691 59.4711 80.7318 60.1718Z" fill="#E7CF7F"/>
<path d="M93.6688 69.1757C88.8767 68.7086 84.047 68.5956 79.2399 68.8517C76.1281 69.0175 76.0377 71.0518 77.5069 71.8505C78.0343 72.1368 78.6446 72.2122 79.2474 72.28C84.3635 72.8828 89.5322 73.478 94.6407 72.8451C95.5826 72.7245 96.6977 72.4232 96.984 71.519C97.2326 70.7279 96.6525 69.8689 95.899 69.5148C95.1456 69.1606 94.2791 69.236 93.6688 69.1757Z" fill="white"/>
<path d="M78.0118 76.7329C81.6736 76.3637 85.3656 76.3336 89.0274 76.6425C90.4439 76.763 90.3385 77.8782 88.9521 78.0213C85.4409 78.3981 81.8921 78.4282 78.381 78.1042C78.1022 78.0816 77.8008 78.0439 77.5747 77.8857C77.3412 77.7275 77.2056 77.3884 77.3562 77.1473C77.7028 76.9137 78.1399 76.8158 78.0118 76.7329Z" fill="#ADF1F7"/>
<path d="M85.8553 83.2127C83.5648 83.0696 81.2667 83.0846 78.9762 83.2504C78.6672 83.273 78.3432 83.3031 78.0795 83.4538C77.8158 83.6045 77.6124 83.9285 77.6953 84.2299C77.8158 84.6443 78.3432 84.7498 78.7727 84.7799C81.3119 84.9457 83.8511 84.9532 86.3903 84.7875C86.7896 84.7649 87.1965 84.7272 87.5581 84.5614C87.9198 84.3957 88.2363 84.0641 88.2664 83.6723C87.3246 83.273 86.2622 83.1374 85.8553 83.2127Z" fill="#ADF1F7"/>
<path d="M11.8574 54.3098C11.3752 54.3098 11.1115 53.7371 11.4355 53.3755C15.3912 48.8471 19.49 44.1681 24.7718 40.9508C30.679 37.3568 37.3472 36.4376 42.5988 38.487C48.3628 40.7399 53.3357 47.069 59.6121 45.871C65.15 44.8161 68.4653 37.839 74.4855 37.0931C78.5015 36.5958 82.0578 39.0898 85.8251 39.6699C91.1145 40.4837 96.11 37.5602 101.181 34.2299C101.444 34.0566 101.791 34.132 101.964 34.3957C102.138 34.6594 102.062 35.006 101.799 35.1793C96.5319 38.6377 91.333 41.6591 85.6519 40.7926C81.7866 40.1974 78.2754 37.7712 74.6211 38.2233C66.5892 39.2179 63.6356 52.7727 50.3294 44.4695C47.632 42.7817 45.0928 40.6796 42.1844 39.5494C37.2567 37.628 30.9653 38.5096 25.3595 41.9228C20.2209 45.0421 16.1898 49.6609 12.2869 54.1214C12.1663 54.2495 12.0081 54.3098 11.8574 54.3098Z" fill="white"/>
<path d="M32.8565 54.8448C32.5325 54.8448 32.2763 54.566 32.2914 54.2496C32.525 50.2713 32.849 46.2402 33.2558 42.277C33.286 41.9681 33.5648 41.7345 33.8737 41.7722C34.1826 41.8023 34.4086 42.0811 34.3785 42.39C33.9716 46.3382 33.6476 50.3466 33.4141 54.3099C33.399 54.6113 33.1504 54.8448 32.8565 54.8448Z" fill="#0071FF"/>
<path d="M58.4744 56.5854C58.1202 56.5854 57.8565 56.2689 57.9168 55.9223C58.286 53.8277 58.4216 51.6954 58.3237 49.5706C58.3086 49.2617 58.5497 48.9979 58.8662 48.9829C59.1676 48.9603 59.4388 49.2089 59.4539 49.5254C59.5518 51.733 59.4087 53.9482 59.0319 56.1257C58.9867 56.3894 58.7456 56.5854 58.4744 56.5854Z" fill="#0071FF"/>
<path d="M76.0753 56.8641C75.7363 56.8641 75.4801 56.5703 75.5102 56.2387C76.015 51.5447 76.3842 46.7827 76.6103 42.0736C76.6254 41.7647 76.8891 41.5236 77.2055 41.5386C77.5144 41.5537 77.7556 41.8174 77.7405 42.1339C77.5144 46.8656 77.1377 51.6501 76.6329 56.3668C76.6027 56.6531 76.3541 56.8641 76.0753 56.8641Z" fill="#0071FF"/>
<path d="M97.3381 57.2558C97.0141 57.2558 96.758 56.977 96.773 56.6606C97.0895 51.0247 97.5717 45.3284 98.2122 39.7151C98.2498 39.4062 98.5286 39.1802 98.8375 39.2179C99.1465 39.2555 99.3725 39.5343 99.3348 39.8432C98.7019 45.4339 98.2197 51.1151 97.9032 56.7284C97.8806 57.0222 97.632 57.2558 97.3381 57.2558Z" fill="#0071FF"/>
<path d="M35.6737 38.5152C35.9371 37.483 35.3139 36.4327 34.2818 36.1693C33.2496 35.9059 32.1993 36.529 31.9359 37.5612C31.6724 38.5933 32.2956 39.6436 33.3278 39.9071C34.3599 40.1705 35.4102 39.5474 35.6737 38.5152Z" fill="#FFB020"/>
<path d="M60.0987 47.6915C60.9393 47.037 61.09 45.8251 60.4355 44.9846C59.781 44.144 58.5691 43.9933 57.7285 44.6478C56.888 45.3023 56.7372 46.5142 57.3918 47.3548C58.0463 48.1953 59.2582 48.3461 60.0987 47.6915Z" fill="#FFB020"/>
<path d="M78.648 39.3915C79.4013 38.6382 79.4013 37.417 78.648 36.6637C77.8947 35.9104 76.6734 35.9104 75.9202 36.6637C75.1669 37.4169 75.1669 38.6382 75.9202 39.3915C76.6735 40.1448 77.8947 40.1448 78.648 39.3915Z" fill="#FFB020"/>
<path d="M100.627 36.8203C101.38 36.0671 101.38 34.8458 100.626 34.0925C99.8732 33.3392 98.652 33.3393 97.8987 34.0925C97.1454 34.8458 97.1454 36.0671 97.8987 36.8203C98.652 37.5736 99.8732 37.5736 100.627 36.8203Z" fill="#FFB020"/>
<path d="M20.4922 68.7236H15.3535V85.9253H20.4922V68.7236Z" fill="#A369F7"/>
<path d="M30.6715 70.9163H25.5328V85.978H30.6715V70.9163Z" fill="#FFB020"/>
<path d="M67.6892 85.2848C64.8864 87.1609 60.8628 87.3116 58.3011 85.1567C56.6962 83.808 55.7996 81.7284 55.5434 79.6338C54.8879 74.3444 58.1504 69.4545 61.4279 68.2489C64.1178 67.2619 67.094 68.4749 69.6935 69.6504C71.1251 70.2983 72.1347 71.8505 72.6245 73.4026C73.4834 76.1151 71.9463 82.4216 67.6892 85.2848Z" fill="white"/>
<path d="M72.6923 76.8535C71.4792 83.9285 66.4084 87.3643 61.6691 86.641C62.3246 84.9532 62.9274 83.2504 63.5 81.5325C64.5774 78.2926 64.3439 78.5412 63.1082 67.8948C65.3158 67.7516 67.6139 68.701 69.6935 69.6503C71.1251 70.2983 72.1347 71.8505 72.6245 73.4026C72.9711 74.5027 72.8882 75.7007 72.6923 76.8535Z" fill="#F48682"/>
<path d="M69.912 83.243C67.6818 85.9856 64.5925 87.0781 61.6766 86.6336C62.415 84.7198 64.1631 80.2291 64.2007 78.2852C66.1522 79.8825 68.051 81.5326 69.912 83.243Z" fill="#A369F7"/>
<path d="M40.8809 75.4446H35.7423V85.978H40.8809V75.4446Z" fill="white"/>
<path d="M108.007 22.7547C79.0515 21.3834 17.6365 23.38 5.242 23.8095C5.27214 23.041 5.30228 22.2649 5.33996 21.4964C5.46051 18.6181 7.75858 16.305 10.6293 16.1694C42.0564 14.6775 72.7526 14.5946 102.612 16.1543C105.408 16.2975 107.661 18.4825 107.887 21.2703C107.932 21.7526 107.97 22.2498 108.007 22.7547Z" fill="#DFEAFF"/>
<path d="M10.471 21.6545C11.3449 21.6545 12.0533 20.9461 12.0533 20.0723C12.0533 19.1984 11.3449 18.49 10.471 18.49C9.59714 18.49 8.88873 19.1984 8.88873 20.0723C8.88873 20.9461 9.59714 21.6545 10.471 21.6545Z" fill="#C72F55"/>
<path d="M15.0145 21.6545C15.8883 21.6545 16.5967 20.9461 16.5967 20.0723C16.5967 19.1984 15.8883 18.49 15.0145 18.49C14.1406 18.49 13.4322 19.1984 13.4322 20.0723C13.4322 20.9461 14.1406 21.6545 15.0145 21.6545Z" fill="#FFB020"/>
<path d="M19.5654 21.6545C20.4392 21.6545 21.1477 20.9461 21.1477 20.0723C21.1477 19.1984 20.4392 18.49 19.5654 18.49C18.6915 18.49 17.9831 19.1984 17.9831 20.0723C17.9831 20.9461 18.6915 21.6545 19.5654 21.6545Z" fill="#7AD001"/>
<path d="M78.6817 29.2867C81.4358 26.5326 81.4358 22.0673 78.6817 19.3132C75.9275 16.559 71.4622 16.559 68.7081 19.3131C65.954 22.0673 65.954 26.5326 68.7081 29.2867C71.4622 32.0408 75.9275 32.0408 78.6817 29.2867Z" fill="#68D1DA"/>
<path d="M73.6944 25.1356C74.7971 25.1356 75.6911 24.0696 75.6911 22.7546C75.6911 21.4397 74.7971 20.3737 73.6944 20.3737C72.5916 20.3737 71.6977 21.4397 71.6977 22.7546C71.6977 24.0696 72.5916 25.1356 73.6944 25.1356Z" fill="#ADF1F7"/>
<path d="M78.931 29.0235C76.1431 32.1127 71.321 32.1278 68.5181 29.0762C69.3017 27.6296 70.8387 25.6706 73.3855 25.8589C76.0979 26.0624 77.9891 27.8782 78.931 29.0235Z" fill="#ADF1F7"/>
<path d="M97.1942 29.2872C99.9484 26.5331 99.9484 22.0678 97.1942 19.3136C94.4401 16.5595 89.9748 16.5595 87.2207 19.3136C84.4666 22.0678 84.4666 26.5331 87.2207 29.2872C89.9748 32.0413 94.4401 32.0413 97.1942 29.2872Z" fill="#68D1DA"/>
<path d="M92.2071 25.1357C93.3098 25.1357 94.2038 24.0697 94.2038 22.7547C94.2038 21.4398 93.3098 20.3738 92.2071 20.3738C91.1043 20.3738 90.2104 21.4398 90.2104 22.7547C90.2104 24.0697 91.1043 25.1357 92.2071 25.1357Z" fill="#ADF1F7"/>
<path d="M97.4436 29.0236C94.6558 32.1128 89.8336 32.1279 87.0307 29.0764C87.8143 27.6297 89.3514 25.6707 91.8981 25.8591C94.6106 26.0625 96.5018 27.8784 97.4436 29.0236Z" fill="#ADF1F7"/>
<path d="M83.2333 23.0334C88.5015 23.0334 92.7722 18.7627 92.7722 13.4946C92.7722 8.22638 88.5015 3.95569 83.2333 3.95569C77.9651 3.95569 73.6944 8.22638 73.6944 13.4946C73.6944 18.7627 77.9651 23.0334 83.2333 23.0334Z" fill="#E7CF7F"/>
<path d="M83.2333 14.6248C84.7272 14.6248 85.9382 13.1843 85.9382 11.4075C85.9382 9.63062 84.7272 8.19019 83.2333 8.19019C81.7394 8.19019 80.5283 9.63062 80.5283 11.4075C80.5283 13.1843 81.7394 14.6248 83.2333 14.6248Z" fill="#F8EECE"/>
<path d="M90.3083 19.8916C86.541 24.0658 80.0159 24.0884 76.226 19.9669C77.2809 18.0154 79.3604 15.3632 82.8113 15.6194C86.4807 15.8831 89.0425 18.3394 90.3083 19.8916Z" fill="#F8EECE"/>
</svg>
