<svg width="382" height="460" viewBox="0 0 382 460" fill="none" xmlns="http://www.w3.org/2000/svg">
<path d="M252.766 344.715C252.766 344.715 174.598 389.085 252.766 460C252.766 460 335.992 397.933 252.766 344.715Z" fill="url(#paint0_linear_1585_576)"/>
<path d="M253.145 354.828C253.145 354.828 206.093 381.5 253.145 424.226C253.145 424.226 303.233 386.936 253.145 354.828Z" fill="url(#paint1_linear_1585_576)"/>
<path d="M339.534 253.07C339.534 315.01 300.197 383.65 253.904 383.65C207.737 383.65 168.274 315.136 168.274 253.07C168.274 191.13 207.611 159.022 253.904 159.022C300.071 159.022 339.534 191.003 339.534 253.07Z" fill="url(#paint2_linear_1585_576)"/>
<path d="M114.319 192.072C109.543 199 113.332 209.903 122.785 216.431L150.095 235.287C159.548 241.814 171.09 241.502 175.879 234.574C180.656 227.647 176.867 216.743 167.414 210.203L140.104 191.347C130.65 184.82 119.109 185.132 114.319 192.06V192.072Z" fill="white"/>
<path d="M103.478 197.424C103.478 208.653 112.581 217.756 123.81 217.756C135.039 217.756 144.143 208.653 144.143 197.424C144.143 186.195 135.039 177.092 123.81 177.092C112.581 177.092 103.478 186.195 103.478 197.424Z" fill="#8080A2"/>
<path d="M91.9619 156.885C85.6596 161.061 84.1966 169.927 88.6732 176.692L101.628 196.224C106.105 202.988 114.858 205.089 121.147 200.913C127.45 196.736 128.913 187.871 124.436 181.106L111.494 161.574C107.005 154.809 98.2642 152.708 91.9619 156.885Z" fill="white"/>
<path d="M76.7057 158.035C76.7057 168.201 84.9462 176.442 95.1124 176.442C105.279 176.442 113.519 168.201 113.519 158.035C113.519 147.869 105.279 139.629 95.1124 139.629C84.9462 139.629 76.7057 147.869 76.7057 158.035Z" fill="#8080A2"/>
<path d="M99.3767 112.845C96.7258 112.532 94.2499 114.845 93.8622 117.984L93.4871 120.96L84.909 104.904C83.7961 102.816 81.2202 102.028 79.1444 103.141C77.0687 104.254 76.2934 106.842 77.3938 108.918L81.6828 116.959C81.2452 116.959 80.82 116.959 80.3824 116.984L73.0797 103.304C71.9668 101.216 69.3909 100.428 67.3151 101.541C65.2394 102.654 64.4516 105.229 65.5645 107.318L72.1169 119.597C72.0168 119.659 71.8918 119.722 71.7917 119.797L65.0018 107.093C63.8889 105.004 61.3255 104.217 59.2372 105.329C57.1615 106.43 56.3737 109.018 57.4866 111.106L65.7521 126.599C65.6771 126.749 65.6145 126.887 65.5395 127.037L61.6381 119.722C60.5252 117.621 58.2619 116.683 56.5488 117.584C54.8606 118.497 54.373 120.91 55.4859 122.986L65.2019 141.192C65.2894 141.367 65.4145 141.53 65.5145 141.692C65.652 141.992 65.7771 142.292 65.9396 142.58L70.4413 151.033C73.0422 155.91 77.6314 159.011 82.6582 159.948C84.1462 160.186 94.3624 161.462 99.7769 153.309V153.284C103.703 148.032 104.516 140.779 101.215 134.615L101.002 134.215C101.415 133.489 101.715 132.676 101.828 131.776L103.416 119.184C103.816 116.021 101.99 113.182 99.3642 112.832L99.3767 112.845Z" fill="white"/>
<path d="M151.396 230.336C151.396 243.378 161.974 253.956 175.017 253.956C188.059 253.956 198.638 243.378 198.638 230.336C198.638 217.293 188.059 206.715 175.017 206.715C161.974 206.715 151.396 217.293 151.396 230.336Z" fill="#8080A2"/>
<path d="M321.193 181.522C321.193 204.655 290.963 223.49 253.777 223.49C216.59 223.49 186.361 204.781 186.361 181.522C186.361 158.39 216.59 139.555 253.777 139.555C291.09 139.555 321.193 158.39 321.193 181.522Z" fill="#DCDCEA"/>
<path d="M362.301 133.866C362.301 151.437 348.009 165.721 330.427 165.721H174.219C156.638 165.721 142.345 151.437 142.345 133.866C142.345 116.296 156.638 102.011 174.219 102.011H330.427C348.009 102.011 362.301 116.296 362.301 133.866Z" fill="#A0A0C1"/>
<path d="M362.301 139.555C362.301 157.126 348.009 171.41 330.427 171.41H174.219C156.638 171.41 142.345 157.126 142.345 139.555C142.345 121.984 156.638 107.7 174.219 107.7H330.427C348.009 107.7 362.301 121.984 362.301 139.555Z" fill="#8080A2"/>
<path d="M257.572 7.33167H246.947V61.1816H257.572V7.33167Z" fill="#8080A2"/>
<path d="M268.323 16.0539C268.323 24.9024 261.113 32.1077 252.26 32.1077C243.406 32.1077 236.196 24.9024 236.196 16.0539C236.196 7.20528 243.406 0 252.26 0C261.113 0 268.323 7.20528 268.323 16.0539Z" fill="white"/>
<path d="M337.257 137.785C337.257 167.87 312.846 192.267 282.743 192.267H221.777C191.674 192.267 167.262 167.87 167.262 137.785V109.596C167.262 79.5109 191.674 55.1141 221.777 55.1141H282.616C312.719 55.1141 337.131 79.5109 337.131 109.596V137.785H337.257Z" fill="#F4F4F4"/>
<path d="M337.257 148.656C337.257 178.741 312.846 203.138 282.743 203.138H221.777C191.674 203.138 167.262 178.741 167.262 148.656V120.594C167.262 90.5084 191.674 66.1116 221.777 66.1116H282.616C312.719 66.1116 337.131 90.5084 337.131 120.594V148.656H337.257Z" fill="white"/>
<path d="M319.929 147.898C319.929 172.295 299.438 192.014 274.142 192.014H230.251C204.955 192.014 184.464 172.295 184.464 147.898C184.464 123.501 204.955 103.781 230.251 103.781H274.142C299.438 103.781 319.929 123.627 319.929 147.898Z" fill="#343E49"/>
<path d="M319.55 142.841C319.55 167.238 299.059 186.958 273.762 186.958H229.872C204.575 186.958 184.085 167.238 184.085 142.841C184.085 118.445 204.575 98.725 229.872 98.725H273.762C299.186 98.725 319.55 118.571 319.55 142.841Z" fill="#5D5D77"/>
<path d="M324.861 140.819C324.608 114.02 301.715 92.2781 273.762 92.2781H229.871C201.665 92.2781 178.645 114.273 178.645 141.198C178.645 142.968 178.772 144.738 179.025 146.634C179.278 173.432 202.171 195.175 230.251 195.175H274.141C302.347 195.175 325.367 173.179 325.367 146.254C325.241 144.485 325.114 142.589 324.861 140.819ZM274.014 189.739H230.124C204.954 189.739 184.464 170.272 184.337 146.254C184.084 144.611 183.958 142.841 183.958 141.198C183.958 117.181 204.448 97.7136 229.745 97.7136H273.635C298.805 97.7136 319.296 117.181 319.422 141.198C319.675 142.841 319.802 144.611 319.802 146.254C319.802 170.272 299.311 189.739 274.014 189.739Z" fill="#7171C9"/>
<path d="M324.862 142.589C324.609 115.79 301.716 94.0477 273.636 94.0477H229.746C201.54 94.0477 178.52 116.043 178.52 142.968C178.52 144.737 178.646 146.507 178.899 148.403C179.152 175.202 202.046 196.944 230.125 196.944H274.015C302.221 196.944 325.242 174.949 325.242 148.024C325.242 146.254 325.115 144.358 324.862 142.589ZM274.015 191.509H230.125C204.955 191.509 184.465 172.042 184.338 148.024C184.085 146.381 183.959 144.611 183.959 142.968C183.959 118.95 204.449 99.4833 229.746 99.4833H273.636C298.806 99.4833 319.297 118.95 319.423 142.968C319.676 144.611 319.803 146.381 319.803 148.024C319.803 172.042 299.312 191.509 274.015 191.509Z" fill="#9D9AFF"/>
<path d="M177.76 307.804C177.76 307.804 197.112 301.105 201.919 273.168C201.919 273.168 245.556 283.787 310.695 273.168C310.695 273.168 313.098 300.978 330.047 307.804C330.047 307.804 313.225 303.633 309.43 275.444C309.43 275.444 256.56 288.211 203.816 275.697C203.689 275.823 199.895 300.346 177.76 307.804Z" fill="#8080A2"/>
<path d="M208.749 270.008C208.749 270.767 208.117 271.399 207.358 271.399C206.599 271.399 205.967 270.767 205.967 270.008C205.967 269.25 206.599 268.618 207.358 268.618C208.117 268.618 208.749 269.25 208.749 270.008Z" fill="#8080A2"/>
<path d="M208.749 282.017C208.749 282.775 208.117 283.407 207.358 283.407C206.599 283.407 205.967 282.775 205.967 282.017C205.967 281.259 206.599 280.626 207.358 280.626C208.117 280.753 208.749 281.259 208.749 282.017Z" fill="#8080A2"/>
<path d="M307.154 270.008C307.154 270.767 306.521 271.399 305.762 271.399C305.003 271.399 304.371 270.767 304.371 270.008C304.371 269.25 305.003 268.618 305.762 268.618C306.521 268.618 307.154 269.25 307.154 270.008Z" fill="#8080A2"/>
<path d="M307.154 282.017C307.154 282.775 306.521 283.407 305.762 283.407C305.003 283.407 304.371 282.775 304.371 282.017C304.371 281.259 305.003 280.626 305.762 280.626C306.521 280.753 307.154 281.259 307.154 282.017Z" fill="#8080A2"/>
<path d="M273.265 246.74C273.265 255.993 265.779 263.479 256.525 263.479C247.272 263.479 239.81 255.968 239.81 246.74C239.81 237.486 247.296 230 256.55 230C265.803 230 273.265 237.486 273.265 246.74Z" fill="#ACACD9"/>
<path d="M256.304 244.948C255.396 244.948 254.708 244.211 254.708 243.279V239.327C254.708 238.419 255.396 237.658 256.304 237.658C257.212 237.658 257.899 238.394 257.899 239.327V243.303C257.899 244.211 257.212 244.948 256.304 244.948Z" fill="#D3DCF3"/>
<path d="M256.549 255.551C251.64 255.551 247.639 251.55 247.639 246.641C247.639 244.629 248.351 242.665 249.603 241.07C250.168 240.358 251.223 240.235 251.935 240.824C252.647 241.389 252.769 242.444 252.18 243.156C251.37 244.187 250.928 245.39 250.928 246.666C250.928 249.759 253.432 252.262 256.525 252.262C259.617 252.238 262.145 249.709 262.145 246.641C262.145 245.365 261.728 244.138 260.918 243.131C260.354 242.42 260.452 241.364 261.164 240.8C261.875 240.235 262.931 240.333 263.495 241.045C264.772 242.616 265.459 244.604 265.459 246.617C265.459 251.55 261.458 255.551 256.549 255.551Z" fill="#D3DCF3"/>
<path d="M338.089 252.765C325.077 254.467 312.935 245.317 311.27 232.191C309.562 219.183 318.712 207.051 331.843 205.392C344.856 203.69 356.998 212.84 358.663 225.966C360.327 239.092 351.221 251.106 338.089 252.765Z" fill="#8080A2"/>
<path d="M356.49 284.045C348.602 287.175 339.465 282.809 336.132 274.32L326.464 249.705C323.13 241.217 326.797 231.754 334.685 228.624C342.573 225.493 351.709 229.86 355.043 238.348L364.711 262.964C368.148 271.524 364.481 280.987 356.49 284.045Z" fill="white"/>
<g filter="url(#filter0_d_1585_576)">
<mask id="mask0_1585_576" style="mask-type:alpha" maskUnits="userSpaceOnUse" x="55" y="109" width="59" height="57">
<path d="M111.814 109.25L102.368 136.768L113.457 151.143L108.118 165.518L67.8679 163.875L55.1357 141.696L58.8322 138L61.7072 134.714L68.6893 132.661L93 124.5L95 112L111.814 109.25Z" fill="#D9D9D9"/>
</mask>
<g mask="url(#mask0_1585_576)">
<path d="M99.3765 112.845C96.7255 112.532 94.2496 114.845 93.862 117.984L93.4868 120.96L84.9087 104.904C83.7958 102.816 81.2199 102.028 79.1442 103.141C77.0684 104.254 76.2931 106.842 77.3935 108.918L81.6826 116.958C81.2449 116.958 80.8198 116.958 80.3821 116.983L73.0795 103.304C71.9666 101.215 69.3906 100.428 67.3149 101.541C65.2391 102.653 64.4514 105.229 65.5643 107.318L72.1166 119.597C72.0166 119.659 71.8915 119.722 71.7915 119.797L65.0016 107.093C63.8886 105.004 61.3252 104.217 59.237 105.329C57.1612 106.43 56.3734 109.018 57.4864 111.106L65.7518 126.599C65.6768 126.749 65.6143 126.887 65.5392 127.037L61.6378 119.722C60.5249 117.621 58.2616 116.683 56.5485 117.584C54.8604 118.496 54.3727 120.91 55.4856 122.986L65.2016 141.192C65.2892 141.367 65.4142 141.529 65.5142 141.692C65.6518 141.992 65.7768 142.292 65.9394 142.58L70.441 151.033C73.042 155.91 77.6311 159.011 82.6579 159.948C84.146 160.186 94.3622 161.461 99.7766 153.309V153.284C103.703 148.032 104.516 140.779 101.215 134.615L101.002 134.214C101.415 133.489 101.715 132.676 101.827 131.776L103.415 119.184C103.816 116.021 101.99 113.182 99.364 112.832L99.3765 112.845Z" fill="white"/>
</g>
</g>
<path d="M89.9742 49.1801C96.1335 47.4032 102.305 45.6684 108.496 43.9967C110.193 43.5405 111.979 43.0803 113.701 43.7155C116.885 44.8797 118.362 49.0214 119.352 52.5977C122.261 63.0468 125.155 73.5232 128.064 83.9723C129.481 89.0706 130.926 94.1836 132.322 99.2881C133.081 102.086 135.156 107.241 133.424 109.745C132.782 110.668 131.691 111.082 130.678 111.451C121.542 114.773 112.925 118.536 103.592 121.504C92.9185 124.891 82.2696 128.363 71.5436 131.652C55.8831 136.446 40.1347 140.557 24.1674 144.16C22.6416 144.497 21.1225 143.619 20.6591 142.131C17.0247 130.545 2.87856 84.1345 1.93596 79.7887C1.59891 78.2629 2.42272 76.7142 3.90489 76.2298C32.4747 66.8595 61.0718 57.504 89.9468 49.1653L89.9742 49.1801Z" fill="#69A5FF"/>
<path d="M83.7548 59.266C88.3081 57.9415 96.0462 55.7204 100.624 54.48C101.873 54.1336 103.196 53.8104 104.479 54.2778C106.84 55.1362 107.93 58.202 108.673 60.8669C110.827 68.609 113.447 77.9267 115.607 85.6899C117.125 91.0524 118.198 94.833 119.229 98.6261C119.797 100.702 121.341 104.526 120.056 106.372C119.574 107.064 118.771 107.37 118.026 107.636C111.267 110.094 101.727 113.81 94.824 116.013C86.9165 118.536 79.0214 121.102 71.089 123.541C59.4788 127.091 44.6856 131.079 32.8559 133.733C31.7426 133.994 30.6054 133.323 30.2604 132.234C27.5589 123.647 16.1612 86.137 15.4583 82.9108C15.1913 81.7764 15.8139 80.6307 16.9234 80.2794C38.0823 73.3312 62.4051 65.4924 83.8093 59.2957L83.7548 59.266Z" fill="white"/>
<g opacity="0.3">
<path d="M123.104 85.0045C123.036 84.1547 122.762 83.2284 122.479 82.3505C121.866 80.3569 121.253 78.3632 120.619 76.3758C120.283 75.239 119.7 73.8092 119.096 73.7817C118.791 73.7574 118.611 74.1541 118.54 74.6101C118.203 76.5645 120.745 86.5496 122.507 86.6235C122.972 86.6462 123.172 85.8542 123.098 84.9834L123.104 85.0045Z" fill="#5E625E"/>
<path d="M119.248 72.5923C119.531 72.2338 119.447 71.6405 119.139 71.2966C118.831 70.9527 118.35 70.7974 117.904 70.8378C117.591 70.8618 117.275 70.9552 117.066 71.1774C116.627 71.6278 116.813 72.4886 117.335 72.8606C117.857 73.2327 118.583 73.1323 119.062 72.7388L119.269 72.5861L119.248 72.5923Z" fill="#5E625E"/>
</g>
<path opacity="0.3" d="M18.0752 115.216C19.2844 115.202 20.1868 113.996 20.3322 112.786C20.4566 111.581 20.0173 110.406 19.5905 109.273C18.997 107.732 18.3972 106.169 17.8037 104.628C17.4205 103.642 17.0038 102.621 16.1924 101.968C15.3811 101.315 14.0168 101.192 13.343 102.01C13.1602 105.338 14.132 108.622 15.1 111.816C15.5609 113.373 16.4623 115.259 18.0752 115.216Z" fill="#5E625E"/>
<path d="M74.7055 99.9546C67.2195 107.848 59.6119 115.639 51.9583 123.353C49.3832 125.947 46.7473 128.49 44.1574 131.111C54.388 128.701 64.5167 126.025 74.5901 122.929C82.5287 120.511 90.4175 117.925 98.325 115.402C105.228 113.199 111.616 110.415 118.376 107.957C119.121 107.691 119.923 107.385 120.405 106.693C121.691 104.847 120.147 101.023 119.578 98.9471C118.548 95.1541 117.475 91.3735 116.423 87.5866C114.269 79.8445 112.115 72.1025 109.955 64.3393C109.406 62.327 108.634 60.1056 107.297 58.7611C96.1943 72.3035 86.7538 87.2085 74.6782 99.9398L74.7055 99.9546Z" fill="#F4F4F4"/>
<path d="M41.5382 86.511L41.0649 109.042L34.9879 110.841L36.8762 82.6299L40.718 81.493L41.5382 86.511ZM53.0792 105.487L40.4032 86.8469L38.2907 82.2113L42.1849 81.0589L59.1562 103.689L53.0792 105.487ZM49.999 96.1051L51.3012 100.506L38.047 104.428L36.7448 100.027L49.999 96.1051Z" fill="#5D5D77"/>
<path d="M61.7915 75.2568L69.3156 100.682L63.6402 102.362L56.1162 76.9363L61.7915 75.2568Z" fill="#5D5D77"/>
<path d="M85.8633 69.4984C81.8102 70.2766 77.8432 71.4265 74.0017 72.9258C71.9632 73.7212 71.2185 74.7019 72.1875 78.6785C73.2133 82.8872 74.2392 87.0959 75.265 91.3045C75.4192 91.9315 75.5875 92.5913 75.9839 93.0663C76.7282 93.9513 77.8552 93.7466 78.766 93.4741C85.8671 91.3174 92.9038 88.931 99.8619 86.3243C101.522 85.7003 102.252 84.9891 101.693 81.616C101.009 77.4906 100.016 73.3938 98.7306 69.39C98.0772 67.3595 97.4699 66.9742 96.0513 67.0541C92.3474 67.272 88.7434 68.1437 85.8633 69.4984Z" fill="#D9EFFF"/>
<path d="M94.9229 71.4729C92.7099 71.9222 90.5243 72.5247 88.395 73.2785C87.0167 73.7665 87.2306 74.6294 87.9912 74.7658C88.2641 74.8146 88.548 74.764 88.8275 74.7113C91.2031 74.2751 93.6015 73.8287 95.8191 72.8767C96.2275 72.6996 96.6911 72.4235 96.7067 72.0069C96.7195 71.6425 96.3512 71.3614 95.9681 71.3146C95.585 71.2679 95.2048 71.416 94.9229 71.4729Z" fill="#C7DDED"/>
<path d="M89.654 78.4789C91.9468 77.5332 94.3246 76.8005 96.7484 76.2925C97.6862 76.0967 97.8336 76.837 96.9661 77.1973C94.7721 78.1188 92.4867 78.8238 90.1573 79.2929C89.9729 79.3322 89.7711 79.3661 89.5946 79.3076C89.4132 79.2506 89.2602 79.0579 89.3109 78.8731C89.4895 78.6553 89.7527 78.5077 89.654 78.4789Z" fill="#C7DDED"/>
<path d="M95.9699 81.1471C94.4634 81.4971 92.9827 81.9508 91.5359 82.5003C91.3408 82.5746 91.1375 82.6566 90.9963 82.8049C90.8552 82.9531 90.7864 83.2016 90.8982 83.3801C91.056 83.6244 91.4169 83.5906 91.7 83.5271C93.3714 83.1436 95.0122 82.6579 96.6195 82.0604C96.8729 81.9687 97.1283 81.8657 97.3298 81.6889C97.5313 81.512 97.6716 81.2368 97.6153 80.978C96.9301 80.9021 96.218 81.0198 95.9699 81.1471Z" fill="#C7DDED"/>
<path d="M85.6024 85.9943C84.1552 87.747 81.5867 88.6216 79.5165 87.7252C78.2198 87.1645 77.2392 85.9951 76.6691 84.6923C75.2241 81.404 76.3858 77.6167 78.2689 76.2053C79.8149 75.0484 81.9707 75.2566 83.876 75.5133C84.9254 75.6551 85.8771 76.4621 86.4932 77.3696C87.5717 78.9549 87.7977 83.3234 85.6024 85.9943Z" fill="white"/>
<path d="M87.2032 79.5845C87.7868 84.3866 85.1767 87.5843 81.9772 88.0329C82.0744 86.8166 82.1346 85.6008 82.1724 84.3811C82.2422 82.0812 82.1394 82.2869 79.2849 75.6521C80.6826 75.1332 82.3496 75.3021 83.8756 75.5133C84.9251 75.6551 85.8767 76.4622 86.4928 77.3696C86.9291 78.0129 87.107 78.8024 87.2032 79.5845Z" fill="#F48682"/>
<path d="M86.6423 84.2465C85.7323 86.448 83.9489 87.7501 81.9804 88.0264C82.0874 86.6482 82.3485 83.4113 81.9973 82.149C83.5658 82.8033 85.1104 83.5018 86.6423 84.2465Z" fill="#A369F7"/>
<path d="M43.0515 124.284C42.7277 124.389 42.4497 124.133 42.6034 123.865C44.4603 120.531 46.3868 117.084 49.3651 114.181C52.6968 110.936 57.011 108.99 60.8979 108.976C65.1646 108.961 69.619 111.349 73.6211 109.335C77.1527 107.56 78.1478 103.025 82.0576 101.314C84.6659 100.173 87.4931 100.768 90.1244 100.271C93.8186 99.5716 96.6565 96.8912 99.4733 93.9718C99.6198 93.8199 99.8657 93.7862 100.029 93.893C100.191 93.9998 100.202 94.2057 100.055 94.3576C97.1298 97.3895 94.1726 100.167 90.206 100.923C87.5063 101.433 84.7214 100.865 82.348 101.903C77.1315 104.185 77.5392 112.241 67.1424 110.577C65.034 110.237 62.9587 109.636 60.807 109.647C57.1603 109.661 53.0923 111.505 49.931 114.585C47.0315 117.404 45.14 120.803 43.3066 124.088C43.2482 124.185 43.1526 124.252 43.0515 124.284Z" fill="#BAC8E2"/>
<path d="M57.2425 120.034C57.025 120.104 56.8038 120.007 56.7582 119.831C56.2134 117.603 55.72 115.327 55.2942 113.071C55.26 112.895 55.4059 112.707 55.62 112.661C55.8326 112.611 56.0336 112.714 56.0678 112.89C56.4909 115.138 56.9803 117.402 57.5224 119.621C57.5655 119.789 57.4397 119.97 57.2425 120.034Z" fill="#0071FF"/>
<path d="M74.7467 115.444C74.5089 115.521 74.2761 115.404 74.2554 115.202C74.1339 113.976 73.8489 112.78 73.4084 111.638C73.3438 111.472 73.4592 111.276 73.669 111.199C73.8673 111.122 74.0933 111.199 74.1592 111.369C74.6142 112.556 74.9088 113.799 75.0399 115.072C75.0561 115.226 74.9287 115.385 74.7467 115.444Z" fill="#0071FF"/>
<path d="M86.6116 111.789C86.384 111.862 86.1602 111.757 86.1219 111.569C85.633 108.891 85.0411 106.205 84.3624 103.58C84.318 103.407 84.4525 103.218 84.6676 103.158C84.8777 103.1 85.086 103.192 85.1317 103.368C85.8144 106.006 86.4053 108.706 86.8982 111.396C86.9284 111.559 86.7987 111.728 86.6116 111.789Z" fill="#0071FF"/>
<path d="M100.954 107.403C100.737 107.473 100.516 107.376 100.47 107.199C99.6885 104.047 99.0077 100.826 98.4477 97.6156C98.4186 97.4384 98.5658 97.2544 98.7799 97.2082C98.9939 97.1619 99.1948 97.2656 99.224 97.4428C99.785 100.639 100.463 103.852 101.241 106.992C101.277 107.157 101.152 107.339 100.954 107.403Z" fill="#0071FF"/>
<path d="M56.254 110.489C56.2488 109.868 55.6453 109.428 54.9059 109.507C54.1666 109.586 53.5714 110.154 53.5766 110.776C53.5817 111.398 54.1853 111.838 54.9246 111.759C55.664 111.679 56.2592 111.111 56.254 110.489Z" fill="#FFB020"/>
<path d="M74.2691 110.226C74.718 109.686 74.6054 108.99 74.0178 108.672C73.4302 108.354 72.5901 108.533 72.1413 109.073C71.6924 109.613 71.805 110.309 72.3925 110.627C72.9801 110.946 73.8203 110.766 74.2691 110.226Z" fill="#FFB020"/>
<path d="M85.2576 101.671C85.6304 101.096 85.415 100.428 84.7765 100.179C84.138 99.9294 83.3182 100.194 82.9453 100.769C82.5725 101.344 82.7879 102.012 83.4264 102.261C84.0649 102.511 84.8847 102.246 85.2576 101.671Z" fill="#FFB020"/>
<path d="M99.5579 95.5092C99.9307 94.9341 99.7153 94.2658 99.0768 94.0166C98.4383 93.7674 97.6185 94.0317 97.2456 94.6068C96.8728 95.182 97.0882 95.8502 97.7267 96.0994C98.3652 96.3486 99.185 96.0844 99.5579 95.5092Z" fill="#FFB020"/>
<path d="M75.4791 136.501C75.173 136.592 74.8274 136.452 74.6559 136.15C74.4514 135.787 74.5599 135.331 74.8925 135.13C78.5949 132.888 82.6016 131.269 86.8082 130.321C87.191 130.238 87.5778 130.491 87.6755 130.894C87.7665 131.298 87.5302 131.698 87.1564 131.786C83.0901 132.708 79.2151 134.272 75.6381 136.437C75.588 136.468 75.5357 136.492 75.4813 136.508L75.4791 136.501Z" fill="#E3E3E3"/>
<path d="M95.1184 147C94.7577 147 94.4235 146.802 94.2915 146.485C92.9896 143.348 91.6642 137.942 92.3503 134.647C92.4383 134.219 92.8957 133.934 93.3795 134.013C93.8545 134.092 94.1712 134.504 94.0832 134.94C93.4586 137.95 94.7577 143.063 95.9453 145.931C96.1124 146.343 95.8837 146.794 95.4263 146.952C95.3295 146.984 95.2239 147 95.1184 147Z" fill="#E3E3E3"/>
<defs>
<filter id="filter0_d_1585_576" x="49.1357" y="107.25" width="54.3347" height="54.9125" filterUnits="userSpaceOnUse" color-interpolation-filters="sRGB">
<feFlood flood-opacity="0" result="BackgroundImageFix"/>
<feColorMatrix in="SourceAlpha" type="matrix" values="0 0 0 0 0 0 0 0 0 0 0 0 0 0 0 0 0 0 127 0" result="hardAlpha"/>
<feOffset dx="-4"/>
<feGaussianBlur stdDeviation="1"/>
<feComposite in2="hardAlpha" operator="out"/>
<feColorMatrix type="matrix" values="0 0 0 0 0 0 0 0 0 0 0 0 0 0 0 0 0 0 0.16 0"/>
<feBlend mode="normal" in2="BackgroundImageFix" result="effect1_dropShadow_1585_576"/>
<feBlend mode="normal" in="SourceGraphic" in2="effect1_dropShadow_1585_576" result="shape"/>
</filter>
<linearGradient id="paint0_linear_1585_576" x1="253.852" y1="460.023" x2="253.852" y2="344.727" gradientUnits="userSpaceOnUse">
<stop stop-color="#FFBFD3"/>
<stop offset="1" stop-color="#FF6666"/>
</linearGradient>
<linearGradient id="paint1_linear_1585_576" x1="253.852" y1="424.256" x2="253.852" y2="354.877" gradientUnits="userSpaceOnUse">
<stop stop-color="white"/>
<stop offset="1" stop-color="#FFFF66"/>
</linearGradient>
<linearGradient id="paint2_linear_1585_576" x1="253.904" y1="159.022" x2="253.904" y2="383.65" gradientUnits="userSpaceOnUse">
<stop stop-color="white"/>
<stop offset="1" stop-color="#E9E9E9"/>
</linearGradient>
</defs>
</svg>
