<svg width="200" height="300" viewBox="0 0 200 300" fill="none" xmlns="http://www.w3.org/2000/svg">
<g clip-path="url(#clip0_252_5788)">
<rect width="200" height="300" rx="4" fill="white"/>
<g clip-path="url(#clip1_252_5788)">
<path d="M199.614 275.314H-1.83569V328.213H199.614V275.314Z" fill="#F6F6F6"/>
<path d="M199.614 275.314V328.213H164.59C160.121 320.483 153.237 314.324 145.024 310.701C140.435 308.647 136.208 305.87 132.464 302.126C128.72 298.382 125.821 294.155 123.889 289.565C121.474 284.13 118.092 279.3 113.744 275.314H199.614Z" fill="#FFFDFF"/>
<path d="M57.3431 328.213H-1.83569V275.314H0.458993C4.4445 279.662 9.27542 283.044 14.7102 285.459C19.2996 287.391 23.5266 290.29 27.2706 294.034C31.0145 297.778 33.9131 302.005 35.8455 306.594C40.0725 316.256 47.6812 323.986 57.3431 328.213Z" fill="#ECECEC"/>
<path d="M199.614 -30H-1.83569V226.401H199.614V-30Z" fill="#55C8F0"/>
<path d="M199.613 -30V97.8986C197.802 96.5701 195.99 95 194.299 93.3092C189.952 88.9614 186.691 84.1304 184.396 78.8164C179.444 67.5845 170.507 58.6474 159.396 53.8164C154.203 51.5218 149.251 48.2609 144.903 43.913C140.555 39.5652 137.295 34.7343 135 29.4203C130.048 18.1884 121.232 9.25121 110 4.42029C104.686 2.12561 99.855 -1.13526 95.5072 -5.48309C88.6231 -12.3671 84.2753 -21.0628 82.5845 -30H199.613Z" fill="#6EE0FF"/>
<path d="M75.3382 226.401H-1.83569V155.507C0.33822 156.957 2.75368 158.285 5.16914 159.251C10.3624 161.546 15.3141 164.807 19.6619 169.155C24.0097 173.502 27.2706 178.333 29.5653 183.647C34.3962 194.879 43.3334 203.816 54.5653 208.647C60.4831 211.184 65.9179 215.048 70.5073 220.121C72.3189 222.174 73.8889 224.227 75.3382 226.401Z" fill="#39BFE2"/>
<path d="M199.614 226.401H-1.83569V234.01H199.614V226.401Z" fill="#F26F51"/>
<path d="M199.614 234.01H-1.83569V275.314H199.614V234.01Z" fill="#DE5728"/>
<path d="M199.614 234.01H-1.83569V241.618H199.614V234.01Z" fill="#C9431F"/>
<mask id="mask0_252_5788" style="mask-type:luminance" maskUnits="userSpaceOnUse" x="-2" y="-30" width="202" height="306">
<path d="M199.614 -30H-1.83569V275.314H199.614V-30Z" fill="white"/>
</mask>
<g mask="url(#mask0_252_5788)">
<path d="M53.3576 158.164V198.019C53.3576 199.71 52.0291 201.039 50.3383 201.039H10.4832C8.79237 201.039 7.46387 199.71 7.46387 198.019V158.164C7.46387 156.473 8.79237 155.145 10.4832 155.145H50.3383C52.0291 155.145 53.3576 156.473 53.3576 158.164Z" fill="#4030BF"/>
<path d="M53.3575 158.164V189.324C50.7005 188.599 48.1643 187.271 46.1112 185.217C44.6619 183.768 43.5749 182.077 42.7295 180.386C41.0387 176.643 38.1401 173.623 34.2754 171.932C32.4638 171.208 30.8938 170 29.4445 168.551C27.9952 167.101 26.7875 165.29 26.0628 163.478C24.4928 159.734 21.5942 156.836 17.9711 155.266C17.7295 155.145 17.6087 155.145 17.3672 155.024H50.3382C52.029 155.145 53.3575 156.473 53.3575 158.164Z" fill="#4A42E1"/>
<path d="M35.7247 201.039H10.3623C8.67152 201.039 7.34302 199.71 7.34302 198.019V170.604C8.3092 171.208 9.27539 171.812 10.2416 172.657C11.9324 174.227 13.2609 176.039 14.1063 177.971C15.7971 181.715 18.6957 184.734 22.5604 186.425C24.372 187.15 25.9421 188.357 27.3913 189.807C28.8406 191.256 29.9276 192.947 30.6522 194.638C31.8599 197.174 33.5507 199.469 35.7247 201.039Z" fill="#2923AC"/>
<path d="M30.8938 164.807H30.0484C28.9614 164.807 27.9952 164.928 27.0291 165.169C22.1981 166.498 18.575 170.966 18.575 176.159V186.425C18.575 187.271 19.1788 187.874 20.0242 187.874H21.1112C21.4735 187.874 21.8358 188.116 21.8358 188.599V189.928C21.8358 190.773 22.5605 191.377 23.2851 191.377C24.1305 191.377 24.7344 190.652 24.7344 189.928V188.599C24.7344 188.357 24.8551 188.116 25.0967 187.995C25.2175 187.995 25.2175 187.995 25.3382 187.995H35.3624C35.7247 187.995 36.087 188.237 36.087 188.72V190.048C36.087 190.894 36.8117 191.498 37.5363 191.498H37.6571C38.5025 191.498 39.1063 190.773 39.1063 190.048V188.599C39.1063 188.237 39.3479 187.874 39.831 187.874H40.9179C41.7634 187.874 42.3672 187.271 42.3672 186.425V176.159C42.2464 169.879 37.174 164.807 30.8938 164.807ZM21.715 183.768C21.715 182.923 22.4397 182.198 23.2851 182.198C24.1305 182.198 24.8551 182.923 24.8551 183.768C24.8551 184.614 24.1305 185.338 23.2851 185.338C22.4397 185.338 21.715 184.614 21.715 183.768ZM37.5363 185.338C36.6909 185.338 35.9663 184.614 35.9663 183.768C35.9663 182.923 36.6909 182.198 37.5363 182.198C38.3817 182.198 39.1063 182.923 39.1063 183.768C39.1063 184.614 38.3817 185.338 37.5363 185.338ZM39.1063 178.454C39.1063 179.058 38.6233 179.541 38.0194 179.541H22.802C22.1981 179.541 21.715 179.058 21.715 178.454V176.28C21.715 172.053 24.8551 168.551 29.0822 167.947C29.4445 167.947 29.8068 167.826 30.1692 167.826H30.773C34.8793 167.826 38.3817 170.845 38.9856 174.831C39.1064 175.314 39.1063 175.797 39.1063 176.28V178.454Z" fill="#F6F6F6"/>
<path d="M42.2464 176.159V179.179C41.401 177.609 40.3141 176.159 38.9856 174.952C38.2609 170.966 34.8793 167.947 30.773 167.947H30.1692C29.8068 167.947 29.4445 167.947 29.0822 168.068C28.2368 167.222 27.6329 166.256 27.0291 165.29C27.9952 165.048 28.9614 164.928 30.0484 164.928H30.8938C37.174 164.807 42.2464 169.879 42.2464 176.159Z" fill="#FFFDFF"/>
<path d="M25.2175 187.995C24.9759 188.116 24.8551 188.358 24.8551 188.599V189.928C24.8551 190.773 24.1305 191.377 23.4059 191.377H23.2851C22.4397 191.377 21.8358 190.652 21.8358 189.928V188.599C21.8358 188.237 21.5943 187.874 21.1112 187.874H20.0242C19.1788 187.874 18.575 187.271 18.575 186.425V183.889C19.7827 184.855 21.1112 185.7 22.5605 186.425C23.5266 186.908 24.3721 187.391 25.2175 187.995Z" fill="#ECECEC"/>
<path d="M31.9806 201.039H28.7197V275.314H31.9806V201.039Z" fill="#F6F6F6"/>
<path d="M31.9806 201.039H28.7197V204.3H31.9806V201.039Z" fill="#ECECEC"/>
</g>
<mask id="mask1_252_5788" style="mask-type:luminance" maskUnits="userSpaceOnUse" x="-2" y="-8" width="202" height="306">
<path d="M199.614 -7.77777H-1.83569V297.536H199.614V-7.77777Z" fill="white"/>
</mask>
<g mask="url(#mask1_252_5788)">
<path d="M187.295 35.2174C187.295 35.3382 187.174 35.4589 187.053 35.4589C186.932 35.4589 186.932 35.4589 186.812 35.4589C184.396 35.4589 182.222 36.5459 180.773 38.2367C178.841 40.2899 178.116 43.43 179.203 46.3285V46.4493C179.203 46.6908 178.961 46.8116 178.72 46.6908C177.271 45.4831 175.459 45 173.768 45C172.681 45 171.474 45.2415 170.387 45.7246C168.333 46.6908 166.643 48.3816 165.918 50.9179C165.918 51.0387 165.797 51.1594 165.676 51.1594C165.556 51.1594 165.435 51.0387 165.435 50.9179C164.348 47.2947 161.087 45.1208 157.585 45.1208C155.894 45.1208 154.203 45.6039 152.633 46.8116L152.512 46.9324C152.271 46.9324 152.15 46.6908 152.271 46.5701C152.633 45.6039 152.754 44.7585 152.754 43.7923C152.754 39.4444 149.131 35.5797 144.42 35.7005C144.179 35.7005 144.058 35.3382 144.3 35.2174C146.715 33.6473 147.802 30.9903 147.802 28.4541C147.802 25.9179 146.594 23.3816 144.3 21.6908C144.179 21.57 144.179 21.5701 144.179 21.4493C144.179 21.3285 144.3 21.2077 144.42 21.2077C144.541 21.2077 144.541 21.2077 144.662 21.2077C145.507 21.2077 146.232 21.087 146.957 20.8454C151.304 19.5169 153.841 14.8068 152.271 10.3382V10.2174C152.271 9.97585 152.512 9.85507 152.633 9.97585H152.754C154.203 11.1836 156.015 11.6667 157.705 11.6667C161.087 11.6667 164.469 9.49276 165.556 5.86957C165.556 5.74879 165.676 5.62802 165.797 5.62802C165.918 5.62802 166.039 5.74879 166.039 5.86957C167.609 11.3043 174.251 13.4783 178.841 9.97585L178.961 9.85507C179.203 9.85507 179.324 10.0966 179.203 10.2174C178.841 11.1836 178.72 12.029 178.72 12.9952C178.72 17.343 182.343 21.2077 187.053 21.087C187.295 21.087 187.416 21.4493 187.174 21.57C184.759 23.1401 183.672 25.7971 183.672 28.3333C183.672 30.8696 184.879 33.4058 187.174 35.0966C187.295 34.9758 187.295 35.0966 187.295 35.2174Z" fill="#D39424"/>
<path d="M187.295 35.2174C187.295 35.3382 187.174 35.4589 187.053 35.4589C186.933 35.4589 186.933 35.4589 186.812 35.4589C184.396 35.4589 182.222 36.5459 180.773 38.2367C180.29 37.9952 179.807 37.6328 179.324 37.2705C177.512 35.942 176.305 34.1304 175.701 32.3188C174.855 29.7826 172.923 27.8502 170.387 27.0048C168.937 26.5217 167.488 25.6763 166.28 24.4686C165.073 23.2609 164.227 21.9324 163.744 20.3623C162.899 17.9469 160.966 15.8937 158.43 15.0483C156.981 14.5652 155.532 13.7198 154.324 12.5121C153.478 11.6667 152.754 10.5797 152.271 9.49275H152.392C153.841 10.7005 155.652 11.1836 157.343 11.1836C160.725 11.1836 164.106 9.00966 165.193 5.38647C165.193 5.2657 165.314 5.14493 165.435 5.14493C165.556 5.14493 165.677 5.2657 165.677 5.38647C167.247 10.8213 173.889 12.9952 178.478 9.49275L178.599 9.37198C178.841 9.37198 178.962 9.61353 178.841 9.7343C178.478 10.7005 178.358 11.5459 178.358 12.5121C178.358 16.8599 181.981 20.7246 186.691 20.6039C186.933 20.6039 187.053 20.9662 186.812 21.087C184.396 22.657 183.309 25.314 183.309 27.8502C183.309 30.3865 184.517 32.9227 186.812 34.6135C187.295 34.9758 187.295 35.0966 187.295 35.2174Z" fill="#E7AB36"/>
<path d="M170.387 45.7246C168.333 46.6908 166.643 48.3816 165.918 50.9179C165.918 51.0386 165.797 51.1594 165.676 51.1594C165.556 51.1594 165.435 51.0386 165.435 50.9179C164.348 47.2947 161.087 45.1208 157.585 45.1208C155.894 45.1208 154.203 45.6039 152.633 46.8116L152.512 46.9324C152.271 46.9324 152.15 46.6908 152.271 46.57C152.633 45.6039 152.754 44.7584 152.754 43.7923C152.754 39.4444 149.131 35.5797 144.42 35.7005C144.179 35.7005 144.058 35.3381 144.3 35.2174C146.715 33.6473 147.802 30.9903 147.802 28.4541C147.802 25.9179 146.594 23.3816 144.3 21.6908C144.179 21.57 144.179 21.57 144.179 21.4493C144.179 21.3285 144.3 21.2077 144.42 21.2077C144.541 21.2077 144.541 21.2077 144.662 21.2077C145.507 21.2077 146.232 21.0869 146.957 20.8454C147.923 22.7778 149.614 24.227 151.667 24.9517C153.116 25.4348 154.565 26.2802 155.773 27.4879C156.981 28.6956 157.826 30.0241 158.309 31.5942C159.155 34.0096 161.087 36.0628 163.623 36.9082C165.073 37.3913 166.522 38.2367 167.73 39.4444C169.3 40.8937 170.266 43.3092 170.387 45.7246Z" fill="#C9861B"/>
<path d="M180.29 28.2126C180.29 31.1111 179.445 33.8889 177.995 36.1836C176.063 39.2029 173.164 41.3768 169.662 42.343C168.333 42.7053 167.005 42.9469 165.676 42.9469C157.585 42.9469 150.942 36.4251 150.942 28.2126C150.942 27.0048 151.063 25.7971 151.425 24.5894C152.391 20.4831 155.169 17.1015 158.792 15.1691C160.846 14.0821 163.14 13.4783 165.676 13.4783C173.768 13.599 180.29 20.1208 180.29 28.2126Z" fill="#E7AB36"/>
<path d="M180.29 28.2126C180.29 31.1111 179.445 33.8889 177.995 36.1836C176.908 35.0966 176.184 33.7681 175.701 32.3189C174.855 29.7826 172.923 27.8503 170.387 27.0048C168.937 26.5217 167.488 25.6763 166.28 24.4686C165.073 23.2609 164.227 21.9324 163.744 20.3623C162.899 17.9469 160.966 16.0145 158.551 15.1691C160.604 14.0821 162.899 13.4783 165.435 13.4783C173.768 13.599 180.29 20.1208 180.29 28.2126Z" fill="#FFB93E"/>
<path d="M169.662 42.343C168.333 42.7053 167.005 42.9469 165.676 42.9469C157.585 42.9469 150.942 36.4251 150.942 28.2126C150.942 27.0048 151.063 25.7971 151.425 24.5894H151.546C152.995 25.0725 154.445 25.9179 155.652 27.1256C156.86 28.3333 157.705 29.6618 158.189 31.2319C159.034 33.6474 160.966 35.7005 163.503 36.5459C164.952 37.029 166.401 37.8744 167.609 39.0821C168.454 40.0483 169.179 41.1353 169.662 42.343Z" fill="#D39424"/>
</g>
<mask id="mask2_252_5788" style="mask-type:luminance" maskUnits="userSpaceOnUse" x="-2" y="-30" width="202" height="306">
<path d="M199.614 -30H-1.83569V275.314H199.614V-30Z" fill="white"/>
</mask>
<g mask="url(#mask2_252_5788)">
<path d="M212.416 275.314H-14.6375C-16.9322 272.536 -18.1399 268.792 -17.6569 264.807C-17.6569 264.324 -17.5361 263.841 -17.4153 263.358C-16.2076 257.56 -11.2559 253.092 -5.33801 252.488C-0.507097 251.884 3.84073 253.816 6.73928 256.957C7.34314 257.56 8.30933 257.56 8.79242 256.957C11.3286 254.179 15.0726 252.367 19.1789 252.367C23.2852 252.367 27.0291 254.179 29.5654 256.957C30.1692 257.56 31.1354 257.56 31.6185 256.957C34.1547 254.179 37.8987 252.367 42.005 252.367C46.1113 252.367 49.8552 254.179 52.3914 256.957C52.9953 257.56 53.8407 257.56 54.4446 256.957C56.9808 254.179 60.7248 252.367 64.8311 252.367C68.9373 252.367 72.6813 254.179 75.2175 256.957C75.8214 257.56 76.7876 257.56 77.2707 256.957C79.8069 254.179 83.5509 252.367 87.6572 252.367C91.7634 252.367 95.5074 254.179 98.0436 256.957C98.6475 257.56 99.6137 257.56 100.097 256.957C102.633 254.179 106.377 252.367 110.483 252.367C114.59 252.367 118.333 254.179 120.87 256.957C121.474 257.56 122.319 257.56 122.923 256.957C125.459 254.179 129.203 252.367 133.309 252.367C137.416 252.367 141.16 254.179 143.696 256.957C144.3 257.56 145.266 257.56 145.749 256.957C148.285 254.179 152.029 252.367 156.135 252.367C160.242 252.367 163.986 254.179 166.522 256.957C167.126 257.56 168.092 257.56 168.575 256.957C171.111 254.179 174.855 252.367 178.961 252.367C183.068 252.367 186.812 254.179 189.348 256.957C189.952 257.56 190.918 257.56 191.401 256.957C194.3 253.816 198.647 251.884 203.478 252.488C209.396 253.213 214.227 257.681 215.556 263.358C215.676 263.841 215.797 264.324 215.797 264.807C215.918 268.792 214.71 272.536 212.416 275.314Z" fill="#31BC87"/>
<path d="M215.193 263.478C212.295 265.411 208.792 266.618 205.048 266.618C202.754 266.618 200.58 266.135 198.527 265.411C194.179 263.72 189.469 263.72 185.121 265.411C183.068 266.256 180.894 266.618 178.599 266.618C176.305 266.618 174.131 266.135 172.077 265.411C167.73 263.72 163.019 263.72 158.672 265.411C156.619 266.256 154.445 266.618 152.15 266.618H152.029C149.734 266.618 147.561 266.135 145.507 265.411C141.16 263.72 136.449 263.72 132.102 265.411C130.048 266.256 127.875 266.618 125.58 266.618C123.285 266.618 121.111 266.135 119.058 265.411C114.71 263.72 110 263.72 105.652 265.411C103.599 266.256 101.425 266.618 99.1306 266.618H99.0098C96.7151 266.618 94.5412 266.135 92.4881 265.411C88.1403 263.72 83.4301 263.72 79.0823 265.411C77.0291 266.256 74.8552 266.618 72.5606 266.618C70.2659 266.618 68.0919 266.135 66.0388 265.411C61.691 263.72 56.9808 263.72 52.633 265.411C50.5799 266.256 48.406 266.618 46.1113 266.618H45.9905C43.6958 266.618 41.5219 266.135 39.4688 265.411C35.1209 263.72 30.4108 263.72 26.063 265.411C24.0098 266.256 21.8359 266.618 19.5412 266.618C17.2465 266.618 15.0726 266.135 13.0195 265.411C8.67166 263.72 3.96151 263.72 -0.386312 265.411C-2.43945 266.256 -4.61337 266.618 -6.90805 266.618C-10.652 266.618 -14.1544 265.531 -17.053 263.478C-15.8452 257.681 -10.8936 253.213 -4.97568 252.609C-0.144766 252.005 4.20306 253.937 7.10161 257.077C7.70547 257.681 8.67166 257.681 9.15475 257.077C11.691 254.3 15.4349 252.488 19.5412 252.488C23.6475 252.488 27.3915 254.3 29.9277 257.077C30.5316 257.681 31.4977 257.681 31.9808 257.077C34.5171 254.3 38.261 252.488 42.3673 252.488C46.4736 252.488 50.2176 254.3 52.7538 257.077C53.3577 257.681 54.2031 257.681 54.8069 257.077C57.3432 254.3 61.0871 252.488 65.1934 252.488C69.2997 252.488 73.0436 254.3 75.5799 257.077C76.1837 257.681 77.1499 257.681 77.633 257.077C80.1692 254.3 83.9132 252.488 88.0195 252.488C92.1258 252.488 95.8697 254.3 98.406 257.077C99.0098 257.681 99.976 257.681 100.459 257.077C102.995 254.3 106.739 252.488 110.846 252.488C114.952 252.488 118.696 254.3 121.232 257.077C121.836 257.681 122.681 257.681 123.285 257.077C125.821 254.3 129.565 252.488 133.672 252.488C137.778 252.488 141.522 254.3 144.058 257.077C144.662 257.681 145.628 257.681 146.111 257.077C148.647 254.3 152.391 252.488 156.498 252.488C160.604 252.488 164.348 254.3 166.884 257.077C167.488 257.681 168.454 257.681 168.937 257.077C171.474 254.3 175.218 252.488 179.324 252.488C183.43 252.488 187.174 254.3 189.71 257.077C190.314 257.681 191.28 257.681 191.763 257.077C194.662 253.937 199.01 252.005 203.841 252.609C209.155 253.213 213.986 257.681 215.193 263.478Z" fill="#3DD396"/>
</g>
<mask id="mask3_252_5788" style="mask-type:luminance" maskUnits="userSpaceOnUse" x="-2" y="-8" width="202" height="306">
<path d="M199.614 -7.77777H-1.83569V297.536H199.614V-7.77777Z" fill="white"/>
</mask>
<g mask="url(#mask3_252_5788)">
<path d="M37.174 57.6812C37.174 57.8019 37.0533 58.0435 36.9325 58.0435H-11.4975C-11.739 58.0435 -11.8598 57.8019 -11.739 57.6812C-10.652 54.4203 -7.63272 52.1256 -4.00953 52.1256C-3.52644 52.1256 -3.04334 52.1256 -2.56025 52.2464C-2.43948 52.2464 -2.19794 52.1256 -2.19794 52.0048C-2.07716 51.401 -1.95639 50.7971 -1.83562 50.1932C-0.869432 46.9324 1.6668 44.3961 4.92767 43.5507C5.77308 43.3092 6.73926 43.1884 7.58467 43.1884C12.0533 43.1884 15.7972 46.2077 17.005 50.1932C17.1257 50.4348 17.3673 50.4348 17.4881 50.314C18.6958 49.2271 20.2658 48.5024 22.0774 48.5024C24.7344 48.5024 27.0291 50.0725 28.1161 52.3672C28.2368 52.4879 28.3576 52.6087 28.4784 52.4879C29.203 52.2464 30.0484 52.0048 30.7731 52.0048C34.1547 52.1256 36.8117 54.5411 37.174 57.6812Z" fill="#F6F6F6"/>
<path d="M5.89385 58.0435H-11.4975C-11.739 58.0435 -11.8598 57.8019 -11.739 57.6812C-10.652 54.4203 -7.63272 52.1256 -4.00953 52.1256C-3.52644 52.1256 -3.04334 52.1256 -2.56025 52.2464C-2.43948 52.2464 -2.19793 52.1256 -2.19793 52.0048C-2.07716 51.401 -1.95639 50.7971 -1.83562 50.1932C-1.11098 51.0386 -0.265567 51.7633 0.82139 52.1256C1.78757 52.4879 2.75376 52.971 3.59917 53.8164C4.44458 54.6618 4.92767 55.5072 5.28999 56.5942C5.41076 57.0773 5.65231 57.5604 5.89385 58.0435Z" fill="#ECECEC"/>
<path d="M37.1741 57.6812C37.1741 57.8019 37.0533 58.0435 36.9326 58.0435H21.2321C20.3867 56.8358 19.2997 55.9903 17.9712 55.5073C16.7635 55.1449 15.6765 54.4203 14.8311 53.5749C13.8649 52.6087 13.2611 51.5217 12.8987 50.4348C12.2949 48.5024 10.7248 46.9324 8.79247 46.3285C7.58474 45.9662 6.49778 45.2416 5.65237 44.3961C5.41083 44.1546 5.16928 43.7923 4.92773 43.5507C5.77314 43.3092 6.73933 43.1884 7.58474 43.1884C12.0533 43.1884 15.7973 46.2077 17.005 50.1932C17.1258 50.4348 17.3673 50.4348 17.4881 50.314C18.6959 49.2271 20.2659 48.5024 22.0775 48.5024C24.7345 48.5024 27.0292 50.0725 28.1161 52.3672C28.2369 52.4879 28.3577 52.6087 28.4785 52.4879C29.2031 52.2464 30.0485 52.0048 30.7731 52.0048C34.1548 52.1256 36.8118 54.5411 37.1741 57.6812Z" fill="#FFFDFF"/>
<path d="M82.5847 28.0918C82.5847 28.2126 82.5847 28.2126 82.5847 28.0918L82.464 28.2126H17.4881C17.3674 28.2126 17.2466 28.0918 17.2466 27.971C17.3674 25.5556 19.2997 23.744 21.7152 23.744C22.319 23.744 22.9229 23.8647 23.406 24.1063C23.5268 24.1063 23.6475 24.1063 23.6475 23.8647C23.406 21.4493 24.2514 19.2754 25.8215 17.5845C27.15 16.256 28.8408 15.2898 30.7732 15.0483C32.7055 14.8068 34.5171 15.2898 35.9664 16.256C36.0872 16.3768 36.2079 16.256 36.3287 16.1353C38.1403 11.4251 42.6089 8.16425 47.9229 8.16425H48.0437C53.8408 8.16425 58.6717 12.029 60.121 17.4638C60.121 17.5845 60.2417 17.5845 60.3625 17.5845C64.4688 16.256 67.8504 19.3961 67.8504 22.0531C67.8504 22.1739 67.9712 22.2947 68.092 22.2947C69.2997 21.8116 70.749 21.57 72.0775 21.57C76.6669 21.57 80.5316 24.2271 82.464 27.971C82.7055 28.0918 82.7055 28.0918 82.5847 28.0918Z" fill="#F6F6F6"/>
<path d="M82.7055 27.971C82.7055 28.0918 82.7055 28.0918 82.7055 28.2126L82.5847 28.3333H65.9181C65.0727 27.2464 63.9857 26.401 62.778 26.0386C61.5702 25.6763 60.4833 24.9517 59.6379 24.1063C58.6717 23.1401 58.0678 22.0531 57.7055 20.9662C57.1016 19.0338 55.5316 17.4638 53.5992 16.8599C52.3915 16.4976 51.3045 15.7729 50.4591 14.9275C48.6475 13.1159 47.9229 10.7005 48.1644 8.40579H48.2852C54.0823 8.40579 58.9132 12.2705 60.3625 17.7053C60.3625 17.8261 60.4833 17.8261 60.6041 17.8261C64.7103 16.4976 68.092 19.6377 68.092 22.2947C68.092 22.4155 68.2128 22.5362 68.3335 22.5362C69.5413 22.0531 70.9905 21.8116 72.319 21.8116C76.7876 21.57 80.7731 24.1063 82.7055 27.971Z" fill="#FFFDFF"/>
<path d="M35.7248 28.2126H17.4881C17.3674 28.2126 17.2466 28.0918 17.2466 27.971C17.3674 25.5555 19.2997 23.744 21.7152 23.744C22.319 23.744 22.9229 23.8647 23.406 24.1063C23.5268 24.1063 23.6475 24.1063 23.6475 23.8647C23.406 21.4493 24.2514 19.2754 25.8215 17.5845C25.9422 17.9469 26.1838 18.3092 26.3046 18.6715C26.9084 20.6039 28.4785 22.1739 30.4108 22.7778C31.6186 23.1401 32.7055 23.8647 33.5509 24.7101C34.5171 25.6763 35.121 26.7633 35.4833 27.8502C35.6041 27.971 35.7248 28.0918 35.7248 28.2126Z" fill="#ECECEC"/>
<path d="M184.396 135.7C184.396 135.821 184.396 135.942 184.396 136.063C184.396 136.184 184.276 136.304 184.155 136.304H165.677H158.793C158.672 136.304 158.43 136.184 158.551 135.942C158.672 134.855 159.517 131.232 162.657 131.232C163.382 131.232 163.986 131.353 164.59 131.594H164.71C164.831 131.594 164.952 131.473 164.952 131.353C165.435 129.179 166.884 127.488 168.937 126.522C169.783 126.159 170.749 125.918 171.836 125.918C175.218 125.918 177.995 128.333 178.72 131.473C178.72 131.594 178.962 131.715 179.082 131.715C179.807 131.473 180.532 131.473 181.256 131.594C183.068 131.957 184.396 133.768 184.396 135.7Z" fill="#F6F6F6"/>
<path d="M169.42 136.304H165.556H158.672C158.551 136.304 158.309 136.184 158.43 135.942C158.551 134.855 159.396 131.232 162.536 131.232C163.261 131.232 163.865 131.353 164.469 131.594H164.59C164.952 131.957 165.435 132.198 165.918 132.319C166.643 132.56 167.247 132.923 167.85 133.527C168.454 134.13 168.817 134.734 169.058 135.459C169.058 135.821 169.179 136.063 169.42 136.304Z" fill="#ECECEC"/>
<path d="M184.396 135.7C184.396 135.821 184.396 135.942 184.396 136.063C184.396 136.184 184.276 136.304 184.155 136.304H179.445C178.962 135.58 178.237 134.976 177.392 134.734C176.667 134.493 176.063 134.13 175.459 133.527C174.855 132.923 174.493 132.319 174.252 131.594C173.889 130.386 172.923 129.541 171.715 129.058C170.991 128.816 170.387 128.454 169.783 127.85C169.421 127.488 169.058 127.005 168.938 126.643C169.783 126.28 170.749 126.039 171.836 126.039C175.218 126.039 177.995 128.454 178.72 131.594C178.72 131.715 178.962 131.836 179.082 131.836C179.807 131.594 180.532 131.594 181.256 131.715C183.068 131.957 184.396 133.768 184.396 135.7Z" fill="#FFFDFF"/>
<path d="M50.0966 126.522C50.0966 126.643 50.0966 126.884 50.0966 127.005C50.0966 127.126 49.9758 127.246 49.8551 127.246H34.1546C34.0338 127.246 33.7923 127.126 33.913 126.884C34.0338 125.072 35.6039 123.623 37.4155 123.623C38.0193 123.623 38.5024 123.744 38.9855 123.986C39.1063 124.106 39.2271 123.986 39.3478 123.865C40.0725 122.295 41.6425 121.087 43.3333 120.725C43.6957 120.604 44.058 120.604 44.4203 120.604C47.5604 120.845 50.0966 123.382 50.0966 126.522Z" fill="#F6F6F6"/>
<path d="M50.0967 126.522C50.0967 126.643 50.0967 126.884 50.0967 127.005C50.0967 127.126 49.9759 127.246 49.8552 127.246H49.6136C49.2513 126.401 48.5267 125.797 47.5605 125.435C46.9566 125.193 46.3527 124.952 45.8697 124.469C45.3866 123.986 45.0242 123.382 44.7827 122.778C44.5411 121.932 43.9373 121.329 43.2126 120.845C43.575 120.725 43.9373 120.725 44.2996 120.725C47.5605 120.845 50.0967 123.382 50.0967 126.522Z" fill="#FFFDFF"/>
<path d="M42.6088 127.367H33.9131C33.7924 127.367 33.5508 127.246 33.6716 127.005C33.7924 125.193 35.3624 123.744 37.174 123.744C37.7779 123.744 38.261 123.865 38.7441 124.106C38.8648 124.227 38.9856 124.106 39.1064 123.985C39.2271 124.106 39.2271 124.348 39.3479 124.469C39.7102 125.435 40.4349 126.28 41.5218 126.643C42.0049 126.884 42.3672 127.126 42.6088 127.367Z" fill="#ECECEC"/>
<path d="M188.14 66.8599C188.14 66.9807 188.14 67.2222 188.14 67.343C188.14 67.4638 188.019 67.5845 187.899 67.5845H172.198C172.077 67.5845 171.836 67.4638 171.957 67.2222C172.077 65.4106 173.647 63.9613 175.459 63.9613C176.063 63.9613 176.546 64.0821 177.029 64.3237C177.15 64.4444 177.271 64.3237 177.391 64.2029C178.116 62.6328 179.686 61.4251 181.377 61.0628C181.739 60.942 182.101 60.942 182.464 60.942C185.483 61.1836 188.14 63.7198 188.14 66.8599Z" fill="#F6F6F6"/>
<path d="M188.14 66.8599C188.14 66.9806 188.14 67.2222 188.14 67.343C188.14 67.4637 188.019 67.5845 187.899 67.5845H187.536C187.174 66.7391 186.449 66.1352 185.483 65.7729C184.879 65.5314 184.275 65.2898 183.792 64.8067C183.309 64.3236 182.947 63.7198 182.705 63.1159C182.464 62.2705 181.86 61.6666 181.135 61.1835C181.498 61.0628 181.86 61.0628 182.222 61.0628C185.483 61.1835 188.14 63.7198 188.14 66.8599Z" fill="#FFFDFF"/>
<path d="M180.652 67.5845H171.957C171.836 67.5845 171.594 67.4637 171.715 67.2222C171.836 65.4106 173.406 63.9613 175.217 63.9613C175.821 63.9613 176.304 64.0821 176.788 64.3237C176.908 64.4444 177.029 64.3236 177.15 64.2029C177.271 64.3236 177.271 64.5652 177.391 64.686C177.754 65.6522 178.478 66.4976 179.565 66.8599C179.928 67.2222 180.411 67.343 180.652 67.5845Z" fill="#ECECEC"/>
<path d="M209.759 51.5217H150.097C149.976 51.5217 149.734 51.401 149.855 51.1594C149.976 47.5362 152.995 44.5169 156.739 44.5169C157.464 44.5169 158.189 44.6377 158.913 44.8792C159.034 44.8792 159.275 44.8792 159.275 44.6377C159.517 43.3092 160.121 42.1014 160.846 41.0145C162.657 38.3575 165.676 36.5459 169.179 36.5459C169.903 36.5459 170.628 36.6667 171.353 36.7874C171.474 36.7874 171.594 36.7874 171.715 36.6667C172.681 34.372 174.493 32.4396 176.667 31.1111C178.478 30.0242 180.773 29.4203 183.068 29.5411C189.348 29.7826 194.3 35.0966 194.3 41.256C194.3 42.2222 194.179 43.0676 193.937 44.0338C193.937 44.2754 194.058 44.3961 194.3 44.3961C197.077 44.3961 199.493 45.7246 201.063 47.657C201.184 47.7778 201.304 47.7778 201.425 47.7778C202.271 47.2947 203.358 46.9324 204.445 46.9324C207.102 46.9324 209.275 48.6232 210.121 50.9179C210.121 51.2802 210 51.5217 209.759 51.5217Z" fill="#F6F6F6"/>
<path d="M209.758 51.5217H195.024C194.3 50.0725 192.971 48.8647 191.28 48.3817C190.072 48.0193 188.986 47.2947 188.14 46.4493C187.174 45.4831 186.57 44.3961 186.208 43.3092C185.604 41.3768 184.034 39.8068 182.101 39.2029C180.894 38.8406 179.807 38.116 178.961 37.2705C177.391 35.7005 176.546 33.5266 176.546 31.4734C178.357 30.3865 180.652 29.7826 182.947 29.9034C189.227 30.1449 194.179 35.4589 194.179 41.6184C194.179 42.5846 194.058 43.43 193.816 44.3961C193.816 44.6377 193.937 44.7585 194.179 44.7585C196.957 44.7585 199.372 46.087 200.942 48.0193C201.063 48.1401 201.184 48.1401 201.304 48.1401C202.15 47.657 203.237 47.2947 204.324 47.2947C206.981 47.2947 209.155 48.9855 210 51.2802C210.121 51.2802 210 51.5217 209.758 51.5217Z" fill="#FFFDFF"/>
<path d="M170.87 51.5217H150.097C149.976 51.5217 149.734 51.401 149.855 51.1594C149.976 47.5362 152.995 44.5169 156.739 44.5169C157.464 44.5169 158.189 44.6377 158.913 44.8792C159.034 44.8792 159.275 44.8792 159.275 44.6377C159.517 43.3092 160.121 42.1015 160.846 41.0145C161.57 41.8599 162.053 42.7053 162.295 43.6715C162.899 45.6039 164.469 47.1739 166.401 47.7778C167.609 48.1401 168.696 48.8647 169.541 49.7101C170.024 50.4348 170.507 50.9179 170.87 51.5217Z" fill="#ECECEC"/>
<path d="M33.9132 143.551H-9.9274C-10.0482 143.551 -10.1689 143.43 -10.1689 143.309C-10.0482 140.652 -7.87426 138.478 -5.09648 138.478C-4.49262 138.478 -4.00953 138.599 -3.52643 138.72C-3.40566 138.72 -3.28489 138.72 -3.28489 138.599C-3.04334 137.633 -2.68102 136.787 -2.19793 135.942C-0.86943 134.01 1.42526 132.681 3.96149 132.681C4.56535 132.681 5.04844 132.802 5.53154 132.923C5.65231 132.923 5.77308 132.923 5.77308 132.802C6.49772 131.111 7.82623 129.662 9.39627 128.696C10.7248 127.85 12.4156 127.488 14.1064 127.488C18.6958 127.729 22.319 131.594 22.319 136.063C22.319 136.787 22.1982 137.391 22.0774 138.116C22.0774 138.237 22.1982 138.357 22.319 138.357C24.3721 138.357 26.1837 139.324 27.2707 140.773C27.3914 140.894 27.5122 140.894 27.5122 140.773C28.1161 140.411 28.9615 140.169 29.6861 140.169C31.6185 140.169 33.1885 141.377 33.9132 143.068C34.1547 143.309 34.034 143.551 33.9132 143.551Z" fill="#F6F6F6"/>
<path d="M33.9133 143.551H23.0437C22.4398 142.464 21.4736 141.618 20.2659 141.256C19.4205 141.014 18.5751 140.531 17.9712 139.807C17.2466 139.082 16.7635 138.357 16.522 137.512C16.0389 136.063 14.9519 134.976 13.5026 134.493C12.6572 134.251 11.8118 133.768 11.2079 133.043C10.0002 131.836 9.39635 130.266 9.51712 128.696C10.8456 127.85 12.5364 127.488 14.2273 127.488C18.8166 127.729 22.4398 131.594 22.4398 136.063C22.4398 136.787 22.3191 137.391 22.1983 138.116C22.1983 138.237 22.3191 138.357 22.4398 138.357C24.493 138.357 26.3046 139.324 27.3915 140.773C27.5123 140.894 27.6331 140.894 27.6331 140.773C28.2369 140.411 29.0823 140.169 29.807 140.169C31.7393 140.169 33.3094 141.377 34.034 143.068C34.1548 143.309 34.034 143.551 33.9133 143.551Z" fill="#FFFDFF"/>
<path d="M5.28999 143.551H-9.9274C-10.0482 143.551 -10.1689 143.43 -10.1689 143.309C-10.0482 140.652 -7.87426 138.478 -5.09648 138.478C-4.49262 138.478 -4.00953 138.599 -3.52643 138.72C-3.40566 138.72 -3.28489 138.72 -3.28489 138.599C-3.04334 137.633 -2.68102 136.787 -2.19793 135.942C-1.71484 136.546 -1.35252 137.15 -1.11097 137.874C-0.627883 139.324 0.459073 140.411 1.90835 140.894C2.75376 141.135 3.59917 141.618 4.20304 142.343C4.8069 142.705 5.04845 143.068 5.28999 143.551Z" fill="#ECECEC"/>
</g>
<path d="M183.913 141.015C183.43 125.435 176.183 108.406 159.034 105.749C151.425 104.541 143.092 106.836 137.657 112.271C135 114.928 132.343 117.947 130.29 121.208C129.082 123.14 128.116 125.072 127.512 127.246C127.029 128.696 125.58 129.42 124.251 128.937C115.555 126.401 107.464 127.246 107.464 127.246C106.256 127.246 105.048 127.367 103.84 127.488C103.599 127.488 103.237 127.609 102.995 127.609C102.874 127.609 102.633 127.609 102.512 127.729C102.27 127.729 102.029 127.85 101.908 127.85C101.667 127.85 101.425 127.971 101.304 127.971C99.9757 128.213 98.768 128.575 97.5603 129.058C97.198 129.179 96.8357 129.3 96.3526 129.541C94.9033 130.145 93.5748 130.87 92.3671 131.594C92.2463 131.715 92.0047 131.836 91.884 131.957C91.4009 132.319 90.797 132.681 90.3139 133.043C89.9516 133.285 89.5893 133.527 89.3477 133.768C89.227 133.889 88.9854 134.01 88.8646 134.13C88.7439 134.251 88.5023 134.372 88.3815 134.493C88.0192 134.734 87.7777 135.097 87.5361 135.338C87.4154 135.459 87.2946 135.58 87.0531 135.821C86.9323 135.942 86.8115 136.063 86.57 136.304C86.3284 136.667 85.9661 136.908 85.7245 137.271C85.6038 137.391 85.483 137.633 85.3622 137.754C85.1207 138.116 84.8791 138.357 84.6376 138.72C84.5168 138.841 84.396 139.082 84.2753 139.203C84.0337 139.565 83.7922 139.928 83.5506 140.29C83.4299 140.411 83.3091 140.652 83.1883 140.773C82.9468 141.256 82.7052 141.618 82.4637 142.101C82.3429 142.343 82.2221 142.585 82.1014 142.826C81.9806 143.068 81.8598 143.43 81.739 143.672C81.6183 143.913 81.4975 144.155 81.3767 144.517C81.2559 144.758 81.1352 145.121 81.0144 145.362C80.8936 145.604 80.7729 145.845 80.7729 146.208C80.6521 146.449 80.6521 146.691 80.5313 146.932C80.4105 147.295 80.2898 147.536 80.2898 147.899C80.169 148.14 80.169 148.502 80.0482 148.744C80.0482 148.986 79.9274 149.106 79.9274 149.348C79.9274 149.589 79.8067 149.831 79.8067 150.072C79.8067 150.193 79.6859 150.435 79.6859 150.556C79.6859 150.676 79.5651 150.918 79.5651 151.039C79.5651 151.28 79.4444 151.401 79.4444 151.643C79.4444 151.763 79.4444 152.005 79.3236 152.126C79.3236 152.246 79.3236 152.246 79.3236 152.246C79.3236 152.367 79.3236 152.488 79.3236 152.729C79.3236 152.85 79.3236 153.092 79.3236 153.213C79.3236 153.454 79.3236 153.575 79.3236 153.816C79.3236 153.937 79.3236 154.058 79.3236 154.179C79.3236 154.42 79.3236 154.541 79.3236 154.783C79.3236 155.024 79.3236 155.386 79.3236 155.628V159.01C79.3236 164.203 75.4588 168.792 70.2656 169.396C65.4347 170 60.9661 167.101 59.396 162.512L53.9613 147.536C53.7197 146.691 52.8743 146.087 52.0289 146.087H44.6617C43.454 146.087 42.4878 147.174 42.6086 148.382L45.1448 168.309C46.8357 181.715 58.5506 191.498 72.0772 190.894H77.9951C80.5313 190.894 82.7052 192.826 83.0675 195.242C83.0675 195.483 83.0675 195.725 83.0675 195.966V292.947H104.203C105.894 292.947 107.343 291.498 107.343 289.807V277.367C107.343 276.28 108.188 275.314 109.396 275.314H132.584C133.671 275.314 134.638 276.159 134.638 277.367V292.947H155.773C157.464 292.947 158.913 291.498 158.913 289.807V186.787C165.435 185.217 170.99 181.473 174.976 175.797C176.787 173.261 178.237 170.604 179.444 167.705C183.068 159.493 184.275 149.831 183.913 141.015Z" fill="#8D89DB"/>
<path d="M179.444 167.947C176.787 162.874 172.44 158.889 167.126 156.594C164.348 155.386 161.812 153.696 159.517 151.401C157.222 149.106 155.531 146.57 154.324 143.792C151.787 137.874 147.077 133.164 141.159 130.628C138.382 129.42 135.845 127.729 133.551 125.435C132.222 124.106 131.135 122.778 130.29 121.329C132.343 117.947 135 114.928 137.657 112.391C143.092 106.957 151.546 104.662 159.034 105.87C176.184 108.527 183.43 125.556 183.913 141.135C184.275 149.831 183.068 159.493 179.444 167.947Z" fill="#9797F2"/>
<path d="M142.609 182.198C142.126 181.715 141.28 181.715 140.797 182.198C140.314 182.681 140.314 183.527 140.797 184.01C145.628 188.72 152.391 189.444 156.377 189.444C157.464 189.444 158.309 189.444 158.913 189.324V186.787C156.981 187.029 148.164 187.633 142.609 182.198Z" fill="#7A7ACE"/>
<path d="M129.928 263.599C124.01 261.063 119.42 256.353 116.763 250.435C115.556 247.657 113.865 245.121 111.57 242.826C109.275 240.531 106.739 238.841 103.961 237.633C98.0435 235.097 93.3333 230.386 90.7971 224.469C89.4686 221.328 87.4155 218.551 84.7585 216.135C84.1546 215.652 83.5507 215.169 83.0676 214.686V293.068H104.203C105.894 293.068 107.343 291.618 107.343 289.928V277.488C107.343 276.401 108.188 275.435 109.396 275.435H132.585C133.671 275.435 134.638 276.28 134.638 277.488V293.068H143.816C143.937 292.464 144.058 291.86 144.179 291.377C145.628 283.889 143.696 275.676 138.14 269.638C135.845 266.981 132.947 264.928 129.928 263.599Z" fill="#7A7ACE"/>
<path d="M103.841 127.488C103.841 120 98.4058 108.043 85.7246 105.99C71.9565 103.816 62.8986 112.633 57.1015 122.053C52.7536 129.179 51.6667 137.633 51.5459 146.087H52.1498C52.9952 146.087 53.8406 146.691 54.0821 147.536L59.2754 162.754C60.8454 167.222 65.314 170.242 70.1449 169.638C75.3382 169.034 79.2029 164.444 79.2029 159.251V155.87C78.9614 141.256 89.8309 129.299 103.841 127.488Z" fill="#7A7ACE"/>
<path d="M158.913 207.681V256.715H151.183C150.338 256.715 149.734 256.111 149.613 255.266L147.319 220.242C146.956 213.478 152.27 207.802 158.913 207.681Z" fill="#7A7ACE"/>
<path d="M83.0675 214.565V242.464C83.0675 242.464 80.8936 242.464 77.5119 241.86C75.5796 241.498 73.2849 241.014 70.8694 240.169C59.0337 236.425 42.8501 226.401 42.4878 199.952C42.4878 198.744 43.454 197.778 44.6617 197.778H56.3767C57.3429 197.778 58.1883 198.382 58.4298 199.348C59.396 202.609 62.6569 210.338 72.4395 213.357C72.4395 213.357 72.4395 213.357 72.5603 213.357C74.1303 213.841 75.7003 214.203 77.6327 214.444C79.2028 214.565 81.1351 214.565 83.0675 214.565Z" fill="#8D89DB"/>
<path d="M83.0674 214.565V242.464C83.0674 242.464 80.8935 242.464 77.5118 241.86C75.5795 241.498 73.2848 241.014 70.8693 240.169C69.0577 236.667 68.0916 232.44 68.0916 228.092C68.0916 225.797 68.3331 223.623 68.8162 221.57C69.5408 218.551 70.7486 215.773 72.3186 213.357C72.3186 213.357 72.3186 213.357 72.4394 213.357C74.0094 213.841 75.5795 214.203 77.5118 214.444C79.2027 214.565 81.135 214.565 83.0674 214.565Z" fill="#7A7ACE"/>
<path d="M47.6811 197.657C47.6811 198.865 46.7149 199.831 45.5072 199.831C44.4202 199.831 43.5748 199.106 43.3333 198.14C43.6956 197.899 44.1787 197.657 44.6618 197.657H47.6811Z" fill="#9797F2"/>
<path d="M52.029 197.657C52.029 198.865 51.0628 199.831 49.8551 199.831C48.6473 199.831 47.6812 198.865 47.6812 197.657H52.029Z" fill="#9797F2"/>
<path d="M56.3766 197.657C56.3766 198.865 55.4105 199.831 54.2027 199.831C52.995 199.831 52.0288 198.865 52.0288 197.657H56.3766Z" fill="#9797F2"/>
<path d="M159.034 204.299C152.15 204.299 146.836 210.097 147.198 216.86L149.493 251.884C149.493 252.729 150.217 253.333 151.063 253.333H167.005C167.85 253.333 168.454 252.729 168.575 251.884L170.869 216.86C171.232 210.097 165.797 204.299 159.034 204.299Z" fill="#8D89DB"/>
<path d="M156.739 253.454C156.739 252.246 157.705 251.28 158.913 251.28C160.121 251.28 161.087 252.246 161.087 253.454H156.739Z" fill="#9797F2"/>
<path d="M152.391 253.454C152.391 252.246 153.357 251.28 154.565 251.28C155.773 251.28 156.739 252.246 156.739 253.454H152.391Z" fill="#9797F2"/>
<path d="M161.087 253.454C161.087 252.246 162.053 251.28 163.261 251.28C164.468 251.28 165.434 252.246 165.434 253.454H161.087Z" fill="#9797F2"/>
<path d="M101.908 183.164C101.546 188.357 99.734 192.222 96.4732 194.758C92.9708 197.415 88.6229 198.019 85.4828 198.019C84.5167 198.019 83.792 198.019 83.0674 197.899V196.087C83.0674 195.845 83.0674 195.604 83.0674 195.362C85.3621 195.604 90.9176 195.845 94.9031 192.705C97.5601 190.652 99.1302 187.391 99.3717 182.923C99.3717 182.198 99.9756 181.715 100.7 181.715C101.425 181.957 101.908 182.56 101.908 183.164Z" fill="#4030BF"/>
<path d="M95.2654 161.667C95.2654 163.841 93.4539 165.652 91.2799 165.652C89.106 165.652 87.2944 163.841 87.2944 161.667C87.2944 159.493 89.106 157.681 91.2799 157.681C93.4539 157.802 95.2654 159.493 95.2654 161.667Z" fill="#4030BF"/>
<path d="M119.541 161.667C119.541 163.841 117.729 165.652 115.555 165.652C113.381 165.652 111.57 163.841 111.57 161.667C111.57 159.493 113.381 157.681 115.555 157.681C117.729 157.802 119.541 159.493 119.541 161.667Z" fill="#4030BF"/>
<path d="M133.188 183.164C133.188 186.908 130.169 190.048 126.304 190.048C122.439 190.048 119.42 187.029 119.42 183.164C119.42 179.3 122.439 176.28 126.304 176.28C130.169 176.28 133.188 179.42 133.188 183.164Z" fill="#9797F2"/>
<path d="M100.7 164.686C101.183 164.686 101.546 165.048 101.546 165.531C101.546 166.015 101.183 166.377 100.7 166.377C100.217 166.377 99.8547 166.015 99.8547 165.531C99.8547 165.048 100.217 164.686 100.7 164.686Z" fill="#7777C9"/>
<path d="M105.773 164.686C106.256 164.686 106.618 165.048 106.618 165.531C106.618 166.015 106.256 166.377 105.773 166.377C105.29 166.377 104.927 166.015 104.927 165.531C104.927 165.048 105.29 164.686 105.773 164.686Z" fill="#7777C9"/>
<path d="M97.3186 164.686C97.8017 164.686 98.164 165.048 98.164 165.531C98.164 166.015 97.8017 166.377 97.3186 166.377C96.8355 166.377 96.4731 166.015 96.4731 165.531C96.4731 165.048 96.9562 164.686 97.3186 164.686Z" fill="#7777C9"/>
<path d="M107.343 162.512C107.343 162.995 106.98 163.358 106.497 163.358C106.014 163.358 105.652 162.995 105.652 162.512C105.652 162.029 106.014 161.667 106.497 161.667C106.98 161.667 107.343 162.029 107.343 162.512Z" fill="#7777C9"/>
<path d="M110.121 165.411C110.121 165.894 109.758 166.256 109.275 166.256C108.792 166.256 108.43 165.894 108.43 165.411C108.43 164.928 108.792 164.565 109.275 164.565C109.758 164.565 110.121 164.928 110.121 165.411Z" fill="#7777C9"/>
<path d="M107.343 168.792C107.343 169.275 106.98 169.638 106.497 169.638C106.014 169.638 105.652 169.275 105.652 168.792C105.652 168.309 106.014 167.947 106.497 167.947C106.98 167.947 107.343 168.309 107.343 168.792Z" fill="#7777C9"/>
<path d="M100.7 162.512C100.7 162.995 100.338 163.358 99.8547 163.358C99.3716 163.358 99.0093 162.995 99.0093 162.512C99.0093 162.029 99.3716 161.667 99.8547 161.667C100.338 161.667 100.7 162.029 100.7 162.512Z" fill="#7777C9"/>
<path d="M100.7 168.792C100.7 169.275 100.338 169.638 99.8547 169.638C99.3716 169.638 99.0093 169.275 99.0093 168.792C99.0093 168.309 99.3716 167.947 99.8547 167.947C100.338 167.947 100.7 168.309 100.7 168.792Z" fill="#7777C9"/>
<path d="M103.237 162.512C103.72 162.512 104.082 162.874 104.082 163.358C104.082 163.841 103.72 164.203 103.237 164.203C102.753 164.203 102.391 163.841 102.391 163.358C102.391 162.874 102.753 162.512 103.237 162.512Z" fill="#7777C9"/>
<path d="M103.237 166.86C103.72 166.86 104.082 167.222 104.082 167.705C104.082 168.188 103.72 168.551 103.237 168.551C102.753 168.551 102.391 168.188 102.391 167.705C102.391 167.343 102.874 166.86 103.237 166.86Z" fill="#7777C9"/>
<path d="M87.4153 293.068C87.4153 291.86 88.3815 290.894 89.5892 290.894C90.7969 290.894 91.7631 291.86 91.7631 293.068H87.4153Z" fill="#8D89DB"/>
<path d="M91.7629 293.068C91.7629 291.86 92.7291 290.894 93.9369 290.894C95.1446 290.894 96.1108 291.86 96.1108 293.068H91.7629Z" fill="#8D89DB"/>
<path d="M83.0674 293.068C83.0674 291.86 84.0336 290.894 85.2413 290.894C86.449 290.894 87.4152 291.86 87.4152 293.068H83.0674Z" fill="#8D89DB"/>
<path d="M147.802 293.068H143.333C143.333 292.343 143.695 291.739 144.178 291.377C144.541 291.135 145.024 290.894 145.507 290.894C147.56 290.894 147.802 292.947 147.802 293.068Z" fill="#9797F2"/>
<path d="M138.985 293.068C138.985 291.86 139.952 290.894 141.159 290.894C142.367 290.894 143.333 291.86 143.333 293.068H138.985Z" fill="#8D89DB"/>
<path d="M134.637 293.068C134.637 291.86 135.604 290.894 136.811 290.894C138.019 290.894 138.985 291.86 138.985 293.068H134.637Z" fill="#8D89DB"/>
<path d="M181.498 211.063V235.821C181.498 242.705 175.942 248.14 169.179 248.14H168.937L170.99 216.86C170.99 216.618 170.99 216.256 170.99 216.014C170.99 209.734 165.918 204.541 159.638 204.3C159.517 204.3 159.396 204.3 159.155 204.3C158.913 204.3 158.671 204.3 158.43 204.3C158.43 204.3 158.43 204.3 158.309 204.3C158.188 204.3 157.947 204.3 157.826 204.3C157.705 204.3 157.585 204.3 157.343 204.3C157.101 204.3 156.981 204.3 156.739 204.42C156.498 204.42 156.256 204.541 156.014 204.541C155.773 204.541 155.531 204.662 155.29 204.783H155.169C155.048 204.783 154.928 204.903 154.686 204.903C154.565 204.903 154.565 204.903 154.444 205.024C154.203 205.145 154.082 205.145 153.841 205.266C153.357 205.507 152.995 205.749 152.633 205.99C152.512 206.111 152.271 206.232 152.15 206.353L152.029 206.473C151.908 206.594 151.667 206.715 151.546 206.836C151.184 207.077 150.821 207.44 150.459 207.802C150.338 207.923 150.217 208.164 149.976 208.285L149.855 208.406C149.734 208.527 149.614 208.647 149.493 208.889C149.372 209.13 149.13 209.372 149.01 209.493C147.56 211.546 146.836 214.082 147.077 216.86L147.923 229.058L149.13 247.295L149.251 248.14C148.285 247.415 146.353 245.604 145.99 245.242C144.903 244.034 143.937 242.705 142.971 241.256C141.159 238.237 139.831 234.976 139.106 231.473C138.382 227.971 138.019 223.865 138.382 220C139.106 211.063 142.971 202.367 152.029 199.589L152.391 199.469C155.411 198.623 158.672 198.744 161.691 198.744H169.058C175.942 198.744 181.498 204.3 181.498 211.063Z" fill="#E7AB36"/>
<path d="M149.251 248.14C148.285 247.415 146.353 245.604 145.99 245.241C144.903 244.034 143.937 242.705 142.971 241.256C141.159 238.237 139.831 234.976 139.106 231.473C138.382 227.971 138.019 223.865 138.382 220C138.623 220.362 138.744 220.725 138.986 221.087C140.193 223.865 142.488 226.159 145.266 227.367C146.232 227.729 147.077 228.333 147.923 229.058L149.13 247.295L149.251 248.14Z" fill="#D39424"/>
<path d="M181.497 211.063V227.609C180.29 227.005 179.203 226.28 178.237 225.314C177.15 224.227 176.304 223.019 175.7 221.691C174.734 219.396 173.043 217.464 170.869 216.135C170.869 209.855 165.797 204.662 159.517 204.42C158.671 203.816 157.826 203.333 156.981 202.85C155.652 202.246 154.444 201.401 153.357 200.314C153.116 200.072 152.754 199.71 152.512 199.348C155.531 198.502 158.792 198.623 161.811 198.623H169.179C175.942 198.744 181.497 204.299 181.497 211.063Z" fill="#FFB93E"/>
<path d="M83.0675 207.802V248.14C77.3912 243.913 73.6472 236.546 73.6472 227.971C73.6472 225.676 73.8888 223.502 74.3719 221.449C75.8211 215.773 78.8405 210.942 83.0675 207.802Z" fill="#E7AB36"/>
<path d="M83.0675 232.198V248.14C77.3912 243.913 73.6472 236.546 73.6472 227.971C73.6472 225.676 73.8888 223.502 74.3719 221.449C74.4926 221.57 74.7342 221.812 74.8549 221.932C75.8211 223.019 76.5458 224.227 77.0289 225.556C78.1158 228.333 80.0482 230.628 82.5844 231.836C82.7052 231.956 82.9467 232.077 83.0675 232.198Z" fill="#D39424"/>
</g>
<path d="M109.089 56.9889C103.711 56.9889 99.7115 53.5222 99.7115 48.1889C99.7115 46.8111 100.023 45.4778 100.645 44.2333H99.2226C97.5782 44.2333 96.467 43.2111 96.467 41.5667C96.467 39.9222 97.4893 38.9 99.2226 38.9H118.778C120.511 38.9 121.534 39.9222 121.534 41.5667C121.534 43.2111 120.423 44.2333 118.778 44.2333H117.489C118.156 45.5222 118.511 46.8555 118.511 48.1889C118.511 53.4333 114.378 56.9889 109.089 56.9889ZM99.9337 33.7444C99.9337 33.1667 100.067 32.6778 100.334 32.2333C100.823 31.3889 101.667 30.9444 102.556 30.9444C103.045 30.9444 103.445 31.0333 103.845 31.2555L104.467 31.5667C104.823 31.7 105.311 31.8333 105.889 31.8778C106.289 31.9222 107.223 31.9222 108.689 31.9222H115.089C116.734 31.9222 117.8 32.9889 117.8 34.5889C117.8 36.2333 116.689 37.2555 115.045 37.2555H107.845C104.867 37.2555 103.089 37.0333 101.623 36.1444L101.089 35.8333C100.334 35.3889 99.9337 34.6778 99.9337 33.7444ZM102.689 62.3222C102.689 60.6778 103.711 59.6555 105.445 59.6555H125.178C127.311 59.6555 128.823 61.2111 128.823 63.3889V71.0778C128.823 72.8555 127.667 73.9222 125.756 73.9222C123.978 73.9222 122.823 72.8555 122.823 71.0778V65.7444C122.823 65.2555 122.511 64.9889 122.111 64.9889H105.445C103.711 64.9889 102.689 63.9667 102.689 62.3222ZM105.489 48.1444C105.489 50.2333 107 51.7444 109.134 51.7444C111.134 51.7444 112.734 50.2333 112.734 48.1444C112.734 46.0111 111.267 44.4555 109.134 44.4555C106.867 44.4555 105.489 45.9667 105.489 48.1444ZM122.823 55.8778V34.0111C122.823 32.3666 123.978 31.3444 125.711 31.3444H125.934C127.667 31.3444 128.823 32.3666 128.823 34.0111V41.7889H132.245C133.978 41.7889 135 42.8111 135 44.4555C135 46.1 133.978 47.1222 132.245 47.1222H128.823V55.8778C128.823 57.5222 127.667 58.5444 125.934 58.5444H125.711C123.978 58.5444 122.823 57.5222 122.823 55.8778Z" fill="#333333"/>
<path d="M73.1475 74.2778C71.3697 74.2778 70.2142 73.2111 70.2142 71.4333V62.3222H56.792C55.0142 62.3222 53.9031 61.2555 53.9031 59.6555C53.9031 58.0555 55.0142 56.9889 56.792 56.9889H89.6809C91.4586 56.9889 92.5697 58.0555 92.5697 59.6555C92.5697 61.2555 91.4586 62.3222 89.6809 62.3222H76.2142V71.4333C76.2142 73.2111 75.1031 74.2778 73.3253 74.2778H73.1475ZM59.0586 50.5444C59.0586 49.6111 59.6364 48.7222 60.5697 48.1444C66.392 44.7666 70.6142 40.1889 70.6142 36.1V35.0333C70.6142 33.5666 71.8586 32.3666 73.6364 32.3666C75.3697 32.3666 76.6142 33.5666 76.6142 35.0333V36.1C76.6142 37.4777 76.3475 38.9 75.8142 40.2778C79.992 42.8111 83.5475 45.4777 86.4809 48.1889C87.192 48.8555 87.5475 49.6111 87.5475 50.5444C87.5475 51.3 87.3253 51.9222 86.8364 52.5C86.3031 53.1666 85.5031 53.5222 84.6142 53.5222C83.9031 53.5222 83.2809 53.2555 82.7031 52.7666C80.2142 50.5 76.9253 48.0555 72.792 45.4333C70.3475 48.4555 67.0142 51.2111 63.7697 52.8111C63.0586 53.1222 62.4364 53.3 61.8586 53.3C60.8364 53.3 60.0809 52.9 59.592 52.1444C59.2364 51.6111 59.0586 51.0778 59.0586 50.5444Z" fill="#333333"/>
</g>
<rect x="0.5" y="0.5" width="199" height="299" rx="3.5" stroke="#DDDDDD"/>
<defs>
<clipPath id="clip0_252_5788">
<rect width="200" height="300" rx="4" fill="white"/>
</clipPath>
<clipPath id="clip1_252_5788">
<rect width="233.333" height="358.213" fill="white" transform="translate(-17.7778 -30)"/>
</clipPath>
</defs>
</svg>
