<svg width="128" height="100" viewBox="0 0 128 100" fill="none" xmlns="http://www.w3.org/2000/svg">
<g clip-path="url(#clip0_364_7017)">
<path d="M118.657 0L9.41519 0.396035C4.82421 0.409488 1.07828 4.15794 1.06483 8.75396C1.06146 10.5096 0.937021 72.6669 0.937021 72.7182C0.930294 77.3503 4.67623 81.1089 9.31261 81.1089L50.5969 80.8583L49.952 90.6003H40.8171V99.5888H87.1086V90.6003L87.4895 94.1167C87.5408 97.39 90.2802 100.078 93.6142 99.9983L113.571 99.5039C116.818 99.4232 119.433 96.7157 119.399 93.4684L119.267 80.4186C123.569 80.078 126.977 76.4591 126.983 72.0791C126.983 72.0295 127.062 8.42015 127.062 8.39156C127.069 3.81236 123.382 0.000840838 118.656 0.000840838L118.657 0Z" fill="white"/>
<path d="M54.1341 74.1189L52.793 94.3638L75.1315 94.4033L72.4719 74.9471L54.1341 74.1189Z" fill="#E1F1FF"/>
<path d="M84.0243 93.6836H43.9004V96.5046H84.0243V93.6836Z" fill="#C1C5D3"/>
<path d="M123.979 8.38647L123.904 67.5478L123.9 72.0766C123.896 74.9825 121.543 77.3436 118.637 77.3612L9.34519 78.0255C6.40814 78.0432 4.0168 75.6644 4.021 72.7232L4.02941 67.8472L4.14797 8.76064C4.15638 5.84966 6.51325 3.48943 9.42423 3.48018L63.9996 3.28258L118.668 3.08498C121.6 3.07657 123.983 5.45446 123.979 8.38731V8.38647Z" fill="#E1F1FF"/>
<path d="M123.904 67.5479L123.9 72.0766C123.896 74.9825 121.543 77.3436 118.637 77.3613L9.34519 78.0255C6.40814 78.0432 4.0168 75.6645 4.021 72.7232L4.02941 67.8472L123.904 67.5479Z" fill="#C1C5D3"/>
<path d="M120.239 20.4281C120.244 17.7963 117.474 16.0818 114.699 16.0818H114.682L63.9971 16.2205C63.6086 16.2693 63.3682 16.4568 63.3682 16.8512V61.8704C63.3682 62.2101 63.6566 62.5011 63.9988 62.5011H119.539C119.895 62.5011 120.169 62.1942 120.169 61.8713L120.238 20.4272L120.239 20.4281ZM118.978 20.4256L118.911 60.5495L92.763 39.3545L118.232 18.6985C118.721 19.2122 118.979 19.8075 118.979 20.4264L118.978 20.4256ZM64.6303 18.1738L90.7601 39.3545L64.6303 60.547V18.1746V18.1738ZM91.7616 40.1659L117.759 61.2398H65.778L91.7616 40.1659ZM114.685 17.3422C115.585 17.338 116.456 17.5507 117.18 17.9257L91.7607 38.5422L65.7721 17.4767L114.684 17.343L114.685 17.3422Z" fill="#00ABFE"/>
<path d="M12.6564 32.7515L12.6211 43.8472L47.5007 43.6193L47.5991 33.0365L12.6564 32.7515Z" fill="#FFB020"/>
<path d="M12.6211 48.7878V55.9375L32.1504 55.9039L32.3976 48.9325L12.6211 48.7878Z" fill="#A369F7"/>
<path d="M57.6893 11.9844C57.6834 12.9169 58.4419 13.6745 59.3744 13.6686L69.6292 13.598C71.2983 13.5862 71.3126 11.7885 71.2949 11.8297C71.321 10.8745 70.5432 10.0909 69.5872 10.1102L59.3281 10.3213C58.4217 10.3398 57.6944 11.0772 57.6885 11.9844H57.6893Z" fill="#FF605B"/>
<path d="M76.1203 11.9222C76.106 12.8547 76.8569 13.619 77.7902 13.6215L88.0459 13.6442C88.9481 13.6459 89.6889 12.9329 89.7226 12.0315C89.7125 12.0063 89.7974 10.1362 88.0358 10.1564L77.7751 10.2741C76.8678 10.2842 76.1346 11.0157 76.1212 11.9222H76.1203Z" fill="#FF605B"/>
<path d="M94.5875 12.0828C94.595 13.0152 95.3644 13.7619 96.2969 13.7417L106.55 13.5231C107.452 13.5038 108.176 12.7731 108.188 11.8717C108.178 11.8465 108.218 9.97562 106.458 10.037L96.2027 10.396C95.2963 10.428 94.5799 11.1755 94.5875 12.0828Z" fill="#FF605B"/>
<path d="M27.7368 16.7057L27.646 8.69256C27.641 8.33941 27.3357 8.05689 26.9885 8.0695L12.1679 8.70013C11.8509 8.71358 11.5776 8.97256 11.5641 9.31142C11.4885 11.8053 11.5297 14.3337 11.6861 16.826C11.7205 17.3919 12.3613 17.4373 12.3159 17.4171C28.4347 17.3372 26.8497 17.3456 27.1037 17.3439C27.1037 17.3439 27.1037 17.3439 27.1045 17.3439H27.107C27.4619 17.3423 27.7402 17.0396 27.7343 16.7066L27.7368 16.7057ZM12.8044 10.3356L18.0302 12.9228L12.8927 15.7489C12.8027 13.9486 12.7733 12.1358 12.8052 10.3347L12.8044 10.3356ZM14.6769 9.85544L24.3533 9.44343L19.3755 12.182L14.6769 9.85544ZM19.4066 13.6047L24.4374 16.0953L14.793 16.1432L19.4075 13.6047H19.4066ZM20.7528 12.864L26.3957 9.75958L26.463 15.6917L20.7528 12.864Z" fill="#00ABFE"/>
<path d="M89.9056 51.8115L90.5724 94.0678C90.5977 95.6755 91.9295 96.9544 93.5372 96.9149L113.495 96.4205C115.075 96.381 116.332 95.0802 116.316 93.4986L115.893 51.5568C115.877 49.96 114.57 48.6786 112.973 48.6929L92.7729 48.8728C91.1669 48.8871 89.8804 50.2064 89.9056 51.8115Z" fill="#FF605B"/>
<path d="M114.829 92.1616C114.843 93.6323 113.728 94.8414 112.323 94.875L94.6158 95.3358C93.1906 95.3728 92.0076 94.1838 91.9849 92.6905L91.3929 53.4335C91.3702 51.9427 92.5137 50.7167 93.939 50.7024L95.3045 50.6907L95.3104 51.0665C95.3247 52.0276 96.0839 52.7928 97.003 52.7675L108.406 52.4749C109.311 52.4497 110.028 51.6728 110.019 50.7252L110.017 50.5519L111.863 50.5351C113.28 50.5233 114.438 51.7131 114.451 53.1972L114.83 92.1608L114.829 92.1616Z" fill="#EAE5DB"/>
<path d="M93.8473 81.1593L93.8423 82.8183C93.8398 83.6179 94.4897 84.2662 95.2902 84.2611L106.747 84.1863C107.532 84.1812 108.168 83.5473 108.175 82.7619L108.189 81.2711C108.196 80.4765 107.557 79.8257 106.763 79.8198L95.2969 79.7265C94.4998 79.7198 93.8499 80.363 93.8473 81.1601V81.1593Z" fill="#FFB020"/>
<path d="M93.8382 86.9703V87.0174C93.8382 87.8129 94.484 88.4569 95.2786 88.4553L100.472 88.4469C101.246 88.4452 101.88 87.833 101.907 87.0595C101.936 86.2497 101.291 85.5762 100.48 85.5703L95.2862 85.5325C94.4882 85.5266 93.8374 86.1724 93.8374 86.9703H93.8382Z" fill="#A369F7"/>
<path d="M112.612 58.2565C112.605 57.9017 112.303 57.636 111.982 57.636H94.1165C93.7717 57.636 93.4858 57.9278 93.4858 58.2666C93.4858 58.307 93.4867 77.3696 93.4867 77.3957C93.4934 77.7438 93.7801 78.0162 94.1165 78.0162H111.983C112.334 78.0162 112.613 77.716 112.613 77.3856C112.613 77.3452 112.612 58.2826 112.612 58.2565H112.612ZM102.186 67.8261L94.7471 75.7871V59.865L102.186 67.8261ZM95.5686 58.8972H110.53L103.05 66.9029L95.5694 58.8972H95.5686ZM103.049 68.7493L110.529 76.755H95.5677L103.048 68.7493H103.049ZM103.911 67.8261L111.35 59.865V75.7871L103.911 67.8261Z" fill="#00ABFE"/>
<path d="M98.5041 94.0527C98.1703 94.0527 97.892 93.7912 97.8744 93.454C97.8567 93.1059 98.1241 92.81 98.4722 92.7923L108.71 92.2701C109.055 92.2508 109.354 92.5199 109.372 92.868C109.39 93.2161 109.122 93.5121 108.774 93.5297L98.5361 94.0519C98.5252 94.0519 98.5142 94.0527 98.5033 94.0527H98.5041Z" fill="white"/>
</g>
<defs>
<clipPath id="clip0_364_7017">
<rect width="126.126" height="100" fill="white" transform="translate(0.937012)"/>
</clipPath>
</defs>
</svg>
