<svg width="1916" height="1080" viewBox="0 0 1916 1080" fill="none" xmlns="http://www.w3.org/2000/svg">
<rect width="1916" height="1080" fill="#D8F6F8"/>
<path d="M108.676 764.309C108.676 760.867 105.903 757.998 102.365 757.902C101.122 757.902 99.8799 757.902 98.6369 757.902C-28.53 757.902 -126.439 882.583 -79.6839 1016.35C-64.0031 1061.1 -14.3793 1110.72 30.3682 1126.4C164.132 1173.15 288.813 1075.25 288.813 948.079C288.813 944.541 285.945 941.673 282.503 941.673H115.082C111.545 941.673 108.676 938.805 108.676 935.267V764.309Z" fill="#C5E8EB"/>
<path d="M127.799 756.47V911.843C127.799 919.301 133.823 925.325 141.281 925.325H293.499C301.53 925.325 307.745 918.345 306.884 910.409C297.227 823.687 229.246 754.557 143.097 743.179C135.066 742.128 127.895 748.438 127.895 756.47H127.799Z" fill="#CCEEF0"/>
<path d="M1884.49 82.6832C1883.96 82.6922 1883.41 82.8408 1882.7 83.162C1881.26 83.9442 1878.35 95.5426 1876.78 97.8112C1873.99 101.925 1869.88 105.334 1865.05 106.298C1861.48 106.993 1857.74 106.346 1854.22 105.308C1843.34 102.155 1832.04 91.0617 1827.47 80.6731C1820.83 65.4963 1827.59 47.3234 1838.68 34.9822C1843.62 29.5022 1847.81 26.4004 1854.78 25.0599C1867.64 22.5366 1864.11 22.1642 1860.2 10.543C1854.68 -6.12165 1853.04 -19.8688 1847.3 -36.607C1847 -37.5139 1846.63 -38.4043 1845.89 -38.9328C1844.92 -39.5965 1843.55 -39.2948 1842.44 -38.9976C1832.49 -36.1994 1822.82 -32.3547 1813.34 -28.2968C1805.35 -24.8364 1791.59 -19.2366 1783.01 -18.719C1773.78 -18.1594 1775.18 -26.2535 1773.94 -33.8388C1772.47 -43.0126 1769.37 -52.3442 1763.13 -59.3801C1758.6 -64.6984 1752.49 -69.0002 1744.91 -71.6536C1718.59 -80.8976 1689.29 -72.9144 1678.35 -44.9763C1674 -33.848 1673.43 -21.6864 1677.44 -10.4225C1681.22 0.242353 1688.19 2.33411 1694.82 10.5848C1687.5 17.0331 1655.16 23.785 1645.88 26.6028C1639.95 28.3892 1628.77 29.0748 1624.36 33.8191C1617.66 41.0917 1622.95 54.189 1626.19 61.8329C1631.26 73.8671 1635.41 84.8968 1639.33 97.569C1640 99.8302 1645.91 114.478 1649.39 104.045C1651.29 98.3232 1654.52 93.63 1658.64 90.0192C1671.35 78.7636 1695.54 76.1087 1705.04 92.1023C1713.86 107.025 1723.51 126.541 1718.65 144.141C1714.8 158.106 1697.87 174.319 1682.04 172.162C1679.37 171.821 1661.7 169.232 1664.61 176.634C1671.44 193.74 1673.86 203.516 1678.68 221.491C1680.39 227.893 1682.16 234.48 1686.31 239.635C1687.42 241.054 1688.82 242.328 1690.56 242.654C1692.08 242.907 1693.65 242.354 1695.15 241.818C1723.89 231.479 1753.83 223.918 1783.49 215.774C1823.73 204.991 1864.67 195.078 1904.4 182.649C1914.02 179.609 1914.76 178.159 1912.67 168.887C1910.47 159.185 1906.84 149.6 1903.94 140.018C1899.13 124.021 1895.31 111.981 1890.49 95.9846C1889.33 92.1394 1888.46 82.7389 1884.47 82.6216L1884.49 82.6832Z" fill="#C5E8EB"/>
</svg>
