<svg width="106" height="100" viewBox="0 0 106 100" fill="none" xmlns="http://www.w3.org/2000/svg">
<g clip-path="url(#clip0_364_5945)">
<path d="M90.9001 56.7812C91.6438 56.5867 92.4694 56.3398 93.2572 55.9466L93.8519 56.5007C94.4654 57.0723 95.4617 56.8554 95.7822 56.0802L96.4944 54.3549C99.032 48.2107 100.268 42.8451 100.383 37.4705C100.516 31.2381 98.687 28.5151 93.6049 25.6977C91.9614 24.7861 90.4467 24.0438 89.002 23.4428L88.9516 22.2296C89.0257 22.1561 89.0964 22.0827 89.1629 22.0099C90.3642 21.8098 91.4311 21.106 92.2182 19.9768C93.1886 18.5873 93.4069 17.2957 93.2215 16.2372C94.4668 13.9151 95.3169 10.5876 94.4941 8.07381C94.0575 6.7396 93.1809 5.69085 92.0146 5.07097C90.509 2.59285 87.7468 0.971787 84.8097 0.910919C83.3566 0.19239 81.7754 -0.160227 80.1956 0.0699536C78.3367 0.341413 76.7856 1.43285 75.9908 2.91538C74.4712 3.63461 73.3196 5.0031 72.9593 6.55C71.921 7.98216 71.6803 9.80962 72.8172 11.8987C72.4247 16.0308 72.8991 19.2575 74.2053 21.4642C71.6537 21.8651 69.1931 22.7907 67.2691 24.5132C65.2422 26.3281 63.9864 28.7131 58.4739 38.2415C58.185 38.8117 58.227 39.5002 58.1066 40.1235C52.7047 37.502 47.7282 35.1267 43.8683 33.2986C43.9264 32.9124 43.8837 33.251 44.4427 24.8001C44.584 22.6382 43.3408 20.5127 41.1348 19.6794L62.4199 20.0362L64.1039 21.6713C66.3862 23.887 70.2139 22.3856 70.4098 19.2323L71.1927 6.62277C71.3746 3.68848 69.0504 1.18238 66.0608 1.18238L35.9288 1.29292C32.9784 1.30412 30.643 3.80602 30.8354 6.7508L31.363 14.8127C31.5008 16.9158 32.9308 18.674 34.843 19.3268L9.19842 19.233C6.24804 19.233 3.90215 21.728 4.08546 24.6734L4.86836 37.283C5.01108 39.5855 7.21634 41.2178 9.46568 40.6707L0.5271 45.9165L0.808354 53.7441L7.26462 58.0875C4.04068 58.9494 2.6484 60.949 2.20973 61.3086C2.50568 96.6179 1.67521 39.5694 2.96744 97.3714C4.48146 97.4211 15.852 98.12 31.4161 97.8787C32.0703 98.3558 32.8812 98.5531 33.6732 98.4461C39.7782 101.564 43.841 100.653 53.9746 89.511L69.5156 99.9657L105.134 73.8552L105.474 65.5904C104.714 65.0985 101.968 62.8149 90.9008 56.7812H90.9001Z" fill="white"/>
<path d="M62.8404 36.8024L61.3494 38.8075C60.6638 39.7297 60.3657 40.8827 60.5189 42.021L61.5607 49.7723L67.607 52.6044L66.7751 42.629L67.607 39.2742L62.841 36.8024H62.8404Z" fill="#FFCFCA"/>
<path d="M66.0692 3.67946L35.9379 3.79C34.4232 3.7956 33.2275 5.07734 33.3261 6.58856L33.8537 14.6505C33.9432 16.0148 35.064 17.0824 36.4311 17.1055L63.4491 17.5582L65.8425 19.8817C66.5932 20.6107 67.8533 20.1231 67.9176 19.0785L68.7005 6.46892C68.795 4.9528 67.5874 3.67386 66.0692 3.67946Z" fill="#FFCF77"/>
<path d="M63.8639 6.92297H38.162C38.0267 6.92297 37.9171 7.03261 37.9171 7.16785V9.27866C37.9171 9.4139 38.0267 9.52353 38.162 9.52353H63.8639C63.9991 9.52353 64.1088 9.4139 64.1088 9.27866V7.16785C64.1088 7.03261 63.9991 6.92297 63.8639 6.92297Z" fill="white"/>
<path d="M63.8639 11.845H38.162C38.0267 11.845 37.9171 11.9546 37.9171 12.0898V14.2007C37.9171 14.3359 38.0267 14.4455 38.162 14.4455H63.8639C63.9991 14.4455 64.1088 14.3359 64.1088 14.2007V12.0898C64.1088 11.9546 63.9991 11.845 63.8639 11.845Z" fill="white"/>
<path d="M86.4763 59.3189C86.7862 55.4184 87.2452 51.5298 87.8518 47.6643C90.1298 49.7108 92.03 51.3941 94.187 53.4021C96.3314 48.21 97.7684 42.9642 97.8867 37.4174C97.9993 32.1289 96.6672 30.2503 92.3945 27.8814C88.4947 25.7195 84.2381 23.9109 79.7793 23.8745C77.7322 23.6415 75.8404 23.673 73.9947 24.0368C72.1498 24.4007 70.3349 25.1192 68.9335 26.3736C67.8239 27.3671 67.02 28.6496 66.2322 29.9131C64.8938 32.0589 63.0846 35.315 61.8049 37.4202C64.1088 39.0091 66.2308 39.615 67.607 41.9C68.2528 40.7855 68.2038 40.9954 68.8132 39.7983C68.427 43.1629 68.0408 46.5267 68.1744 49.8353C71.9714 52.4184 75.7676 55.0014 79.5645 57.5845C80.5734 58.2708 81.5984 58.9656 82.7528 59.3616C83.9072 59.7576 85.2274 59.8268 86.477 59.3182L86.4763 59.3189Z" fill="#76A0EE"/>
<path d="M86.1978 19.3709C86.3035 21.4272 86.4084 23.4841 86.5763 25.618C85.3541 27.011 83.7113 28.0311 81.9202 28.5082C81.4298 28.639 81.0107 27.9849 80.5126 27.8855C79.9067 27.7652 79.2896 28.1192 78.8635 27.6721C77.9953 26.7626 77.4251 25.5739 77.402 24.3978C77.7679 23.0566 78.2289 21.7406 78.8124 20.5274C81.2829 20.2399 83.7267 19.7229 86.1985 19.3702L86.1978 19.3709Z" fill="#FFCFCA"/>
<path d="M86.1978 19.371L86.2965 21.2663C86.2965 21.2663 82.0637 23.7241 79.878 23.4275C77.693 23.1315 78.2674 21.7735 78.2674 21.7735L78.811 20.5282L86.1971 19.371H86.1978Z" fill="#F48682"/>
<path d="M89.6372 17.0761C92.1685 14.1467 93.8694 7.96823 90.2319 7.03981C89.2378 4.76948 86.7722 3.23028 84.2101 3.42128C83.1068 2.77901 81.8202 2.35573 80.5566 2.53973C79.2931 2.72444 78.0855 3.62697 77.9309 4.90661C76.4959 5.1137 75.2961 6.41363 75.3373 7.6345C73.6736 8.9925 75.1575 11.7952 76.5148 12.1017C83.4133 12.2878 83.8456 12.2101 84.7006 12.653C85.6115 13.1253 86.1488 14.1418 86.2657 15.1612C86.3335 15.7552 86.2797 16.3625 86.3972 16.9481C86.668 18.2998 87.7958 18.7608 88.7998 17.9717C89.1832 17.6701 89.4714 17.2678 89.6379 17.0747L89.6372 17.0761Z" fill="#1D1D3D"/>
<path d="M75.7025 9.33117C75.7025 9.33117 72.9949 22.0926 79.9885 22.3242C86.9814 22.5557 87.8643 19.4703 87.8643 19.4703C87.8643 19.4703 89.1426 20.0223 90.1725 18.5468C91.2023 17.0713 90.9127 15.8259 89.5708 15.5824L87.7909 17.7212L87.7426 13.254L86.6337 11.689L86.3811 9.55855C86.3811 9.55855 83.3426 11.1656 82.2491 9.16956C82.2491 9.16956 79.5897 10.8984 78.818 9.72367C78.818 9.72367 75.7025 12.1444 75.7025 9.33047V9.33117Z" fill="#FFCFCA"/>
<path d="M78.9111 18.3691C78.9111 18.3691 81.3312 18.7616 82.6388 18.2291C82.6388 18.2291 82.3408 20.5225 80.6966 20.3938C79.0525 20.2651 78.9111 18.3691 78.9111 18.3691Z" fill="white"/>
<path d="M76.0383 56.6631C75.727 56.6631 75.4849 56.3951 75.5157 56.0873C76.4539 46.5512 77.891 36.9529 79.787 27.5581C79.8444 27.2741 80.1214 27.0901 80.4055 27.1474C80.6895 27.2048 80.8735 27.4819 80.8162 27.7659C78.9264 37.1257 77.495 46.689 76.5603 56.1901C76.5337 56.4609 76.3056 56.6638 76.0383 56.6638V56.6631Z" fill="#76A0EE"/>
<path d="M86.5176 23.7618C84.7496 25.3227 82.7276 26.5954 80.5126 27.4972C81.4179 28.59 82.0924 29.8739 82.4793 31.2396C84.0744 29.2547 85.6696 27.2705 87.2809 25.2961C86.8821 24.8638 86.5435 24.3754 86.5183 23.7618H86.5176Z" fill="#76A0EE"/>
<path d="M77.6937 23.1315C78.5318 24.649 79.4673 26.1133 80.5188 27.4545C79.5659 28.4046 78.6137 29.3548 77.6608 30.3049C77.1578 28.1892 76.7121 26.0595 76.3252 23.9235C76.7646 23.6905 77.2039 23.4582 77.6937 23.1322V23.1315Z" fill="#76A0EE"/>
<path d="M68.8139 40.3237C68.7922 40.3237 68.7705 40.3223 68.7488 40.3195C68.4612 40.2838 68.2569 40.0221 68.2926 39.7346L69.3582 31.1311C69.3938 30.8436 69.6562 30.6379 69.9438 30.675C70.2313 30.7107 70.4356 30.9723 70.3999 31.2599L69.3344 39.8633C69.3015 40.1292 69.0755 40.3237 68.8139 40.3237Z" fill="#76A0EE"/>
<path d="M87.7636 48.3625C87.4313 48.3625 87.1836 48.0589 87.2487 47.7349L89.1629 38.1765C89.2196 37.8924 89.4959 37.7077 89.7807 37.7651C90.0647 37.8218 90.2488 38.0988 90.1921 38.3829L88.2779 47.9413C88.2282 48.1911 88.0092 48.3632 87.7643 48.3632L87.7636 48.3625Z" fill="#76A0EE"/>
<path d="M102.923 66.8462L102.689 72.5525L69.4534 96.916L3.2571 52.3826L3.0752 47.3151L31.8562 30.4224C31.8562 30.4224 88.1848 56.4433 102.923 66.8455L102.923 66.8462Z" fill="#DBDFEA"/>
<path d="M102.923 66.8462L102.689 72.5525L69.4534 96.916L3.2571 52.3826L3.0752 47.3158L69.7248 91.3363L102.923 66.8462Z" fill="#A3A9B2"/>
<path d="M9.20818 21.7294L39.3395 21.8399C40.8542 21.8455 42.0499 23.1273 41.9513 24.6385L41.4237 32.7004C41.3342 34.0647 40.2134 35.1324 38.8463 35.1554L11.8283 35.6081L9.43486 37.9316C8.68415 38.6606 7.4241 38.173 7.35974 37.1284L6.57684 24.5188C6.48239 23.0027 7.68997 21.7238 9.20818 21.7294Z" fill="#76A0EE"/>
<path d="M37.1154 24.9729H11.4135C11.2782 24.9729 11.1686 25.0825 11.1686 25.2178V27.3286C11.1686 27.4638 11.2782 27.5735 11.4135 27.5735H37.1154C37.2506 27.5735 37.3602 27.4638 37.3602 27.3286V25.2178C37.3602 25.0825 37.2506 24.9729 37.1154 24.9729Z" fill="white"/>
<path d="M37.1154 29.8949H11.4135C11.2782 29.8949 11.1686 30.0045 11.1686 30.1398V32.2506C11.1686 32.3858 11.2782 32.4955 11.4135 32.4955H37.1154C37.2506 32.4955 37.3602 32.3858 37.3602 32.2506V30.1398C37.3602 30.0045 37.2506 29.8949 37.1154 29.8949Z" fill="white"/>
<path d="M49.1996 80.5521C50.9704 79.0556 52.7412 77.5591 54.514 76.0073C55.6181 74.1484 56.8256 72.1943 58.5978 71.0273C59.0428 70.7341 59.6179 71.1126 59.5479 71.6409C59.4584 72.3188 59.2135 72.9989 58.8112 73.6537C61.0836 72.9128 63.1574 71.6772 65.1989 70.434C65.4081 70.3066 65.6628 70.1751 65.8853 70.2787C66.0924 70.3745 66.1679 70.646 66.1126 70.8671C66.0574 71.0881 65.9027 71.27 65.7502 71.4394C64.9086 72.3699 63.9578 73.2017 62.8544 74.0546C64.2789 73.2773 65.7027 72.5007 67.1271 71.7234C67.4014 71.5737 67.7351 71.4226 68.0108 71.5695C68.2773 71.7115 68.3445 72.0851 68.2353 72.3664C68.1255 72.6476 67.8862 72.8554 67.6504 73.0436C66.4981 73.9602 65.1989 74.6927 63.815 75.428C65.1304 75.2608 66.4163 74.8627 67.5945 74.2547C67.9744 74.0588 68.6978 73.9056 68.8125 74.3058C68.956 74.8074 68.4375 75.2349 67.9758 75.4791C66.7584 76.1234 65.4501 76.5971 63.9417 77.1533C64.8554 77.0735 65.7691 76.9938 66.6828 76.914C66.8941 76.8958 67.1355 76.8867 67.2873 77.0358C67.4469 77.1925 67.4294 77.4681 67.3034 77.6528C67.1768 77.8376 66.9697 77.9481 66.7647 78.0369C65.5082 78.5813 64.0872 78.5477 62.6075 78.5267C60.9892 79.374 59.3066 80.2401 57.2314 80.4948C55.7349 82.148 54.2377 83.8006 52.5068 85.3964C51.6763 83.6942 50.566 82.1284 49.201 80.5514L49.1996 80.5521Z" fill="#FFCFCA"/>
<path d="M61.8287 77.4997C61.6699 76.3187 61.3208 75.1783 60.7912 74.1106C60.6624 73.851 60.7681 73.5362 61.0276 73.4075C61.2872 73.2787 61.602 73.3851 61.7308 73.6446C62.3115 74.8151 62.6942 76.0654 62.8684 77.3597C62.9069 77.6473 62.7054 77.911 62.4185 77.9495C62.131 77.988 61.8672 77.7865 61.8287 77.4997Z" fill="#F48682"/>
<path d="M33.7502 49.8241C35.7176 48.8607 37.368 47.2634 38.3951 45.3282C36.7677 45.6976 35.1754 44.553 34.1294 43.2531C31.6849 40.2138 31.6247 38.3423 25.5057 38.0079C22.3209 37.8337 19.4755 38.2052 18.419 41.3745C17.0092 40.768 13.9315 41.5474 14.238 46.8639C14.4647 50.791 16.0486 54.3116 17.5067 57.97C18.2525 58.9019 18.6618 60.0136 19.6623 60.665C20.7054 61.3443 22.0872 61.8418 23.4564 61.4395C23.9853 61.0806 24.2379 60.3291 24.8578 60.1731C25.0565 60.1228 25.265 60.1451 25.4693 60.157C27.9285 60.3033 30.4059 58.8193 31.4372 56.5819C32.4776 54.3242 31.7079 50.8239 33.7509 49.8241H33.7502Z" fill="#1D1D3D"/>
<path d="M25.5532 67.8482C25.6043 65.6282 25.6547 63.4083 25.5742 60.9231C25.1705 60.4348 25.1859 59.6855 24.7472 59.2279C24.2218 58.6794 23.3389 58.8046 22.5798 58.8438C20.8496 58.9334 19.1613 58.3576 17.506 57.97C16.4621 59.174 15.47 60.4215 14.6144 61.6864C15.8443 63.3768 17.3409 64.9013 19.1417 65.964C20.9426 67.0261 23.0646 67.6054 25.5532 67.8489V67.8482Z" fill="#FFCFCA"/>
<path d="M33.2422 95.3523C23.9447 95.5384 14.6416 95.4152 5.35252 94.9836C4.84389 84.3645 4.70536 73.3473 4.70606 62.3301C6.87494 60.1241 10.1604 59.8212 12.8582 60.6208C15.556 61.4205 17.89 63.1004 20.3745 64.4206C24.2218 66.4642 28.5889 67.7334 31.7611 70.7194C35.9519 74.6654 37.4002 80.974 40.5373 87.5751C43.3597 84.7668 46.3031 82.0808 49.5417 79.6776C51.8337 80.8537 53.5268 83.1338 53.9571 85.7435C42.0716 99.9454 38.6112 98.5454 33.2422 95.3537V95.3523Z" fill="#F48682"/>
<path d="M32.8099 95.6357L26.7454 86.0779C26.5901 85.8331 26.6629 85.5091 26.907 85.3538C27.1519 85.1985 27.4758 85.2713 27.6312 85.5154L33.6956 95.0732C33.8509 95.3181 33.7782 95.642 33.534 95.7973C33.2884 95.9526 32.9645 95.8799 32.8099 95.6357Z" fill="#F48682"/>
<path d="M40.8388 89.3235L40.1504 87.6898C40.0377 87.4226 40.163 87.1154 40.4302 87.0028C40.6968 86.8902 41.0046 87.0154 41.1173 87.2827L41.805 88.9163C41.9177 89.1836 41.7924 89.4914 41.5252 89.6034C41.2586 89.716 40.9501 89.5908 40.8381 89.3235H40.8388Z" fill="#F48682"/>
<path d="M25.0011 61.5507C26.6467 62.1852 28.5875 62.5504 30.1106 61.6612C31.5637 60.8125 32.2109 59.0809 32.6874 57.4669C33.5626 54.5018 34.2203 52.5757 34.3903 49.4812C33.3107 49.9779 32.5971 50.4243 31.4511 51.5976C31.1572 53.551 30.7319 55.4855 30.1805 57.3822C30.0042 56.6434 29.9902 54.7033 28.6658 54.5011C27.8969 54.3843 27.212 55.1602 27.1798 55.9375C27.1476 56.7148 27.5905 57.4333 28.125 57.9797C27.2938 58.9403 26.1842 59.6567 24.957 60.001C24.9326 60.4816 24.9081 60.9623 25.0011 61.5507Z" fill="#FFCFCA"/>
<path d="M14.0763 61.0469L16.1927 59.5476C16.1927 59.5476 20.9509 62.3476 22.8049 63.0759C24.659 63.8042 27.4394 65.9227 27.4394 65.9227L27.8193 67.9748L25.3866 66.7504C25.3866 66.7504 15.7414 64.3471 14.0756 61.0462L14.0763 61.0469Z" fill="#F48682"/>
<path d="M93.4251 52.6975C92.6037 53.7931 91.0113 54.1828 89.6834 54.5144C85.4177 55.58 81.1541 56.6462 76.8877 57.7146C75.3709 59.7057 73.2923 59.775 71.4537 60.5656C70.9716 60.7727 70.5049 61.0301 69.9886 61.1099C69.4723 61.1925 68.8776 61.0553 68.5879 60.6181C67.7358 60.6495 67.43 61.254 66.8227 60.2011C66.538 60.348 66.2588 60.4459 65.9916 60.4131C65.6921 60.3795 65.4284 60.178 65.3248 59.9765C65.1737 59.7267 65.2744 59.5602 65.4571 59.3825C65.7313 59.1152 66.0336 58.8732 66.3554 58.6661C65.951 58.8011 65.527 58.7962 65.3997 58.4912C65.3969 58.4884 65.3969 58.4835 65.3969 58.4814C65.2793 58.1721 65.5893 57.8699 65.8684 57.6873C67.2985 56.7659 68.8965 56.1474 70.4812 55.5331C70.0768 55.4904 69.9096 54.8992 70.2139 54.6669C70.3139 54.5893 70.4364 54.5571 70.5581 54.527C71.9987 54.1828 73.5533 54.3276 74.9064 54.9342C79.4043 52.7527 83.7729 50.2865 87.7615 47.8378C90.0752 48.7263 92.2175 50.4684 93.423 52.6982L93.4251 52.6975Z" fill="#FFCFCA"/>
<path d="M72.3589 59.4909C71.4438 58.7773 70.6987 57.8454 70.2041 56.7959C70.0809 56.5336 70.1929 56.2208 70.4552 56.0977C70.7183 55.9738 71.0303 56.0865 71.1535 56.3489C71.5782 57.2507 72.2183 58.0511 73.004 58.6633C73.2328 58.8417 73.2734 59.1712 73.095 59.3993C72.9166 59.6281 72.587 59.6686 72.3582 59.4909H72.3589Z" fill="#F48682"/>
<path d="M70.8548 59.0929L68.5879 60.6181C68.0555 60.6377 67.663 60.9427 67.302 60.7552L70.8541 59.0929H70.8548Z" fill="#F48682"/>
<path d="M69.9732 58.3191C69.771 58.4415 68.2136 59.3797 67.5343 59.6792C66.8381 59.9884 66.8228 60.1857 66.8228 60.2011C66.538 60.348 66.2588 60.446 65.9916 60.4131C65.6921 60.3795 65.4284 60.178 65.3248 59.9765C65.5221 59.9716 65.8615 60.2137 66.0664 60.2011C66.3358 60.1808 69.6612 58.4786 69.9732 58.3191Z" fill="#F48682"/>
<path d="M69.4114 56.8981L68.0086 57.6096L66.3561 58.6654C65.9517 58.8004 65.5277 58.7955 65.4004 58.4904C65.3976 58.4877 65.3976 58.4828 65.3976 58.4807C65.8677 58.4807 65.6334 58.8263 67.2824 57.7789C67.9716 57.3444 69.3295 56.9226 69.4114 56.8981Z" fill="#F48682"/>
</g>
<defs>
<clipPath id="clip0_364_5945">
<rect width="104.946" height="100" fill="white" transform="translate(0.5271)"/>
</clipPath>
</defs>
</svg>
