<svg width="200" height="300" viewBox="0 0 200 300" fill="none" xmlns="http://www.w3.org/2000/svg">
<g clip-path="url(#clip0_181_25403)">
<rect width="200" height="300" rx="4" fill="white"/>
<g clip-path="url(#clip1_181_25403)">
<path d="M199.88 -26.6667H-0.195801V222.708H199.88V-26.6667Z" fill="#F6F6F6"/>
<path d="M200 -26.6667V100.36C198.081 99.0404 196.401 97.4811 194.722 95.8018C190.404 91.4836 187.165 86.6856 184.886 81.4078C179.968 70.2525 171.092 61.3763 160.057 56.5783C154.779 54.2993 149.981 51.0606 145.663 46.7424C141.345 42.4243 138.106 37.6263 135.827 32.3485C130.909 21.1932 122.033 12.3169 110.997 7.51895C105.72 5.23991 100.922 2.00127 96.6035 -2.31691C89.6464 -9.15403 85.3282 -17.7904 83.6489 -26.6667H200Z" fill="#FFFDFF"/>
<path d="M52.1022 222.708H-0.195801V170.53C3.16279 172.689 6.64132 174.609 10.2398 176.168C18.0365 179.647 25.4734 184.564 31.8307 190.922C36.6287 195.72 40.587 201.117 43.7057 206.755C43.9456 207.115 44.1855 207.595 44.3055 207.955C45.1451 209.514 45.8648 210.953 46.4646 212.513C48.2638 216.231 50.063 219.59 52.1022 222.708Z" fill="#ECECEC"/>
<path d="M199.88 276.566H-0.195801V329.104H199.88V276.566Z" fill="#E7AB36"/>
<path d="M200 276.566V329.104H165.215C160.776 321.427 153.939 315.309 145.783 311.711C141.225 309.672 137.026 306.913 133.308 303.194C129.59 299.476 126.711 295.278 124.792 290.72C122.393 285.322 119.034 280.524 114.716 276.566H200Z" fill="#FFB93E"/>
<path d="M58.5794 329.104H-0.195801V276.566H2.08324C6.04157 280.884 10.8396 284.242 16.2373 286.641C20.7954 288.561 24.9936 291.439 28.712 295.158C32.4305 298.876 35.3092 303.075 37.2284 307.633C41.4267 317.229 49.1034 324.905 58.5794 329.104Z" fill="#D39424"/>
<path d="M199.88 237.102H-0.195801V240.701H199.88V237.102Z" fill="#7A7ACE"/>
<path d="M199.88 222.708H-0.195801V237.102H199.88V222.708Z" fill="#8D89DB"/>
<path d="M200 222.708C200 225.467 200 228.346 200 231.105C191.843 228.586 183.327 226.067 175.05 227.266C169.293 228.106 163.775 230.745 157.898 230.625C150.101 230.505 142.784 225.707 134.987 226.307C128.99 226.787 123.592 230.265 117.595 230.745C109.678 231.225 102.241 226.307 94.4444 226.307C86.6477 226.307 79.2109 231.105 71.4141 230.505C65.4167 230.025 60.0189 226.547 54.0215 226.067C46.2247 225.467 38.9078 229.905 31.1111 230.145C25.8333 230.265 20.6755 228.346 15.6376 227.027C10.4798 225.707 4.72222 225.107 0.0441895 227.626V222.828H200V222.708Z" fill="#9797F2"/>
<path d="M199.88 255.095H-0.195801V258.693H199.88V255.095Z" fill="#7A7ACE"/>
<path d="M199.88 240.701H-0.195801V255.095H199.88V240.701Z" fill="#8D89DB"/>
<path d="M200 240.701C200 243.46 200 246.218 200 249.097C191.843 246.578 183.327 244.059 175.05 245.259C169.293 246.099 163.775 248.737 157.898 248.617C150.101 248.498 142.784 243.7 134.987 244.299C128.99 244.779 123.592 248.258 117.595 248.737C109.678 249.337 102.241 244.299 94.4444 244.299C86.6477 244.299 79.2109 249.097 71.4141 248.498C65.4167 248.018 60.0189 244.539 54.0215 244.059C46.2247 243.46 38.9078 247.898 31.1111 248.138C25.8333 248.258 20.6755 246.338 15.6376 245.019C10.4798 243.7 4.72222 243.1 0.0441895 245.619V240.821H200V240.701Z" fill="#9797F2"/>
<path d="M199.88 272.967H-0.195801V276.566H199.88V272.967Z" fill="#7A7ACE"/>
<path d="M199.88 258.573H-0.195801V272.967H199.88V258.573Z" fill="#8D89DB"/>
<path d="M200 258.573C200 261.332 200 264.091 200 266.85C191.843 264.331 183.327 261.812 175.05 263.011C169.293 263.851 163.775 266.49 157.898 266.37C150.101 266.25 142.784 261.452 134.987 262.052C128.99 262.532 123.592 266.01 117.595 266.49C109.678 266.97 102.241 262.052 94.4444 262.052C86.6477 262.052 79.2109 266.85 71.4141 266.25C65.4167 265.77 60.0189 262.292 54.0215 261.812C46.2247 261.212 38.9078 265.65 31.1111 265.89C25.8333 266.01 20.6755 264.091 15.6376 262.772C10.4798 261.452 4.72222 260.852 0.0441895 263.371V258.573H200Z" fill="#9797F2"/>
<mask id="mask0_181_25403" style="mask-type:luminance" maskUnits="userSpaceOnUse" x="7" y="-10" width="186" height="281">
<path d="M192.222 -9.93665H7.46216V270.084H192.222V-9.93665Z" fill="white"/>
</mask>
<g mask="url(#mask0_181_25403)">
<path d="M59.6336 158.651H55.0922H6.79756H2.25609C-0.402327 158.651 -2.61768 160.867 -2.61768 163.525V202.072C-2.61768 204.731 -0.402327 206.946 2.25609 206.946H6.79756H55.0922H59.6336C62.2921 206.946 64.5074 204.731 64.5074 202.072V163.525C64.5074 160.867 62.4028 158.651 59.6336 158.651ZM63.3997 201.962C63.3997 204.066 61.7382 205.728 59.6336 205.728H55.0922H6.79756H2.25609C0.151511 205.728 -1.51 204.066 -1.51 201.962V163.414C-1.51 161.31 0.151511 159.648 2.25609 159.648H6.79756H55.0922H59.6336C61.7382 159.648 63.3997 161.31 63.3997 163.414V201.962Z" fill="#101089"/>
<path d="M32.7172 206.835H29.1726V270.083H32.7172V206.835Z" fill="#DE5728"/>
<path d="M32.7172 206.835H29.1726V214.367H32.7172V206.835Z" fill="#C9431F"/>
<path d="M19.3142 189.556L19.425 192.325L20.3111 208.275C20.3111 208.386 20.3111 208.497 20.4219 208.497C20.5327 208.94 20.9757 209.272 21.5296 209.272H40.36C40.8031 209.272 41.2462 208.94 41.4677 208.497C41.4677 208.386 41.5785 208.275 41.5785 208.164L42.4646 192.214L42.5754 189.445H19.3142V189.556ZM41.9108 190.22L41.8 191.882L40.1385 190.22H41.9108ZM38.3662 190.22L36.9262 191.66C36.7047 191.882 36.3724 191.882 36.1509 191.66L34.7109 190.22H38.3662ZM25.7387 193.1L27.511 194.872C27.6218 194.983 27.6218 195.315 27.511 195.426L25.7387 197.198C25.5172 197.42 25.2957 197.42 25.1849 197.198L23.4126 195.426C23.3018 195.315 23.3018 194.983 23.4126 194.872L25.1849 193.1C25.2957 192.989 25.5172 192.989 25.7387 193.1ZM31.3879 193.211L32.9386 194.762C33.1601 194.983 33.1601 195.315 32.9386 195.537L31.3879 197.088C31.1663 197.309 30.834 197.309 30.6125 197.088L29.0617 195.537C28.8402 195.315 28.8402 194.983 29.0617 194.762L30.6125 193.211C30.7233 192.989 31.1663 192.989 31.3879 193.211ZM33.2709 195.98C33.4924 195.759 33.8247 195.759 34.0463 195.98L35.597 197.531C35.8186 197.752 35.8186 198.085 35.597 198.306L34.0463 199.857C33.8247 200.078 33.4924 200.078 33.2709 199.857L31.7202 198.306C31.4986 198.085 31.4986 197.752 31.7202 197.531L33.2709 195.98ZM30.1694 197.531C30.391 197.752 30.391 198.085 30.1694 198.306L28.6187 199.857C28.3971 200.078 28.0648 200.078 27.8433 199.857L26.1818 198.195C25.9603 198.085 25.9603 197.752 26.1818 197.642L27.9541 195.869C28.1756 195.648 28.3971 195.648 28.5079 195.869L30.1694 197.531ZM25.7387 198.638L27.4002 200.3C27.6218 200.522 27.6218 200.854 27.4002 201.075L25.4064 203.069L23.3018 200.965C23.1911 200.743 23.1911 200.522 23.3018 200.411L25.0741 198.638C25.2957 198.528 25.5172 198.528 25.7387 198.638ZM27.7325 201.518C27.9541 201.297 28.2864 201.297 28.5079 201.518L30.0587 203.069C30.2802 203.291 30.2802 203.623 30.0587 203.845L28.3971 205.506C28.2864 205.617 27.9541 205.617 27.8433 205.506L25.7387 203.401L27.7325 201.518ZM28.951 201.186C28.7294 200.965 28.7294 200.632 28.951 200.411L30.5017 198.86C30.7233 198.638 31.0556 198.638 31.2771 198.86L32.8278 200.411C33.0494 200.632 33.0494 200.965 32.8278 201.186L31.2771 202.737C31.0556 202.958 30.7233 202.958 30.5017 202.737L28.951 201.186ZM31.7202 203.069L33.2709 201.518C33.4924 201.297 33.8247 201.297 34.0463 201.518L35.597 203.069C35.8186 203.291 35.8186 203.623 35.597 203.845L33.9355 205.506C33.8247 205.617 33.4924 205.617 33.3817 205.506L31.7202 203.845C31.4986 203.734 31.4986 203.401 31.7202 203.069ZM34.4894 201.186C34.2678 200.965 34.2678 200.632 34.4894 200.411L36.0401 198.86C36.2616 198.638 36.5939 198.638 36.8155 198.86L38.3662 200.411C38.5877 200.632 38.5877 200.965 38.3662 201.186L36.8155 202.737C36.5939 202.958 36.2616 202.958 36.0401 202.737L34.4894 201.186ZM36.1509 197.198L34.6001 195.648C34.3786 195.426 34.3786 195.094 34.6001 194.872L36.1509 193.322C36.3724 193.1 36.7047 193.1 36.9262 193.322L38.477 194.872C38.6985 195.094 38.6985 195.426 38.477 195.648L36.9262 197.198C36.7047 197.42 36.3724 197.42 36.1509 197.198ZM33.8247 190.22L35.7078 192.103C35.8186 192.214 35.8186 192.325 35.8186 192.435C35.8186 192.546 35.8186 192.768 35.7078 192.879L34.1571 194.429C33.9355 194.651 33.6032 194.651 33.3817 194.429L31.8309 192.879C31.7202 192.768 31.6094 192.546 31.7202 192.435C31.7202 192.325 31.8309 192.214 31.8309 192.103L33.714 190.22H33.8247ZM32.8278 190.22L31.3879 191.66C31.1663 191.882 30.834 191.882 30.6125 191.66L29.1725 190.22H32.8278ZM28.2864 190.22L30.1694 192.103C30.2802 192.214 30.2802 192.325 30.2802 192.435C30.2802 192.546 30.2802 192.768 30.1694 192.879L28.5079 194.54C28.3971 194.651 28.0648 194.651 27.9541 194.54L26.1818 192.768C26.071 192.657 26.071 192.546 26.071 192.435C26.071 192.325 26.071 192.214 26.1818 192.214L28.1756 190.22H28.2864ZM27.2895 190.22L25.4064 192.103L23.5234 190.22H27.2895ZM21.7511 190.22L20.0896 191.882L19.9788 190.22H21.7511ZM22.5265 190.22H22.748L24.631 192.103C24.7418 192.214 24.7418 192.325 24.7418 192.435C24.7418 192.546 24.7418 192.768 24.631 192.879L22.8588 194.651C22.748 194.762 22.4157 194.762 22.3049 194.651L20.2003 192.546L20.3111 192.435L22.5265 190.22ZM20.0896 193.1L21.7511 194.762C21.9726 194.983 21.9726 195.315 21.7511 195.537L20.3111 196.977L20.0896 193.1ZM20.4219 198.195V197.863L22.3049 195.98C22.4157 195.759 22.748 195.759 22.8588 195.98L24.631 197.752C24.7418 197.974 24.7418 198.195 24.631 198.306L22.8588 200.078C22.748 200.189 22.4157 200.189 22.3049 200.078L20.4219 198.195ZM20.5327 198.971L21.9726 200.411C22.1942 200.522 22.1942 200.854 21.9726 200.965L20.7542 202.294L20.5327 198.971ZM20.7542 203.069L22.4157 201.408C22.5265 201.297 22.8588 201.297 22.9695 201.408L25.0741 203.512L22.9695 205.617C22.8588 205.728 22.5265 205.728 22.4157 205.617L20.865 204.066L20.7542 203.069ZM20.865 204.841L21.9726 205.949C22.1942 206.06 22.1942 206.392 21.9726 206.503L20.9757 207.5L20.865 204.841ZM21.5296 208.829C21.308 208.829 21.0865 208.718 20.9757 208.386V208.275L22.3049 206.946C22.4157 206.835 22.748 206.835 22.8588 206.946L24.7418 208.829H21.5296ZM23.3018 206.614C23.1911 206.503 23.1911 206.171 23.3018 206.06L25.4064 203.955L27.511 206.06C27.6218 206.171 27.6218 206.503 27.511 206.614L25.4064 208.718L23.3018 206.614ZM26.071 208.829L27.9541 206.946C28.1756 206.724 28.3971 206.724 28.5079 206.946L30.391 208.829H26.071ZM28.8402 206.614C28.7294 206.503 28.7294 206.171 28.8402 206.06L30.5017 204.398C30.7233 204.177 31.0556 204.177 31.2771 204.398L32.9386 206.06C33.0494 206.171 33.0494 206.503 32.9386 206.614L30.834 208.718L28.8402 206.614ZM31.6094 208.829L33.4924 206.946C33.714 206.835 33.9355 206.835 34.0463 206.946L35.9293 208.829H31.6094ZM34.3786 206.614C34.2678 206.503 34.2678 206.171 34.3786 206.06L36.0401 204.398C36.2616 204.177 36.5939 204.177 36.8155 204.398L38.477 206.06C38.6985 206.171 38.6985 206.503 38.477 206.614L36.3724 208.718L34.3786 206.614ZM40.9139 208.275V208.386C40.8031 208.608 40.6923 208.718 40.36 208.718H37.1478L39.0308 206.835C39.1416 206.724 39.4739 206.724 39.5847 206.835L40.9139 208.275ZM40.9139 207.611L39.917 206.614C39.8062 206.503 39.8062 206.171 39.917 206.06L41.0246 204.952L40.9139 207.611ZM41.1354 204.066L39.5847 205.617C39.4739 205.728 39.1416 205.728 39.0308 205.617L37.3693 203.955C37.1478 203.734 37.1478 203.401 37.3693 203.18L38.92 201.629C39.1416 201.408 39.4739 201.408 39.6954 201.629L41.2462 203.18L41.1354 204.066ZM41.2462 202.294L40.0277 201.075C39.8062 200.854 39.8062 200.522 40.0277 200.3L41.3569 198.971L41.2462 202.294ZM41.4677 198.195L39.6954 199.968C39.4739 200.189 39.1416 200.189 38.92 199.968L37.3693 198.417C37.1478 198.195 37.1478 197.863 37.3693 197.642L38.92 196.091C39.1416 195.869 39.4739 195.869 39.6954 196.091L41.4677 197.863V198.195ZM41.5785 197.088L40.1385 195.648C39.917 195.426 39.917 195.094 40.1385 194.872L41.8 193.211L41.5785 197.088ZM41.6892 192.435L39.6954 194.429C39.4739 194.651 39.1416 194.651 38.92 194.429L37.3693 192.879C37.2585 192.768 37.1478 192.546 37.2585 192.435C37.2585 192.325 37.3693 192.214 37.3693 192.103L39.2524 190.22H39.4739L41.6892 192.435Z" fill="#8D89DB"/>
<path d="M19.3142 189.556L19.425 192.325H20.2004L22.4157 190.109H22.6372L24.5203 191.992C24.631 192.103 24.631 192.214 24.631 192.325H25.8495C25.8495 192.214 25.8495 192.103 25.9603 192.103L27.9541 190.109H28.1756L30.0587 191.992C30.1694 192.103 30.1694 192.214 30.1694 192.325H31.4986C31.4986 192.214 31.6094 192.103 31.6094 191.992L33.4924 190.109H33.714L35.597 191.992C35.7078 192.103 35.7078 192.214 35.7078 192.325H36.9262C36.9262 192.214 37.037 192.103 37.037 191.992L38.9201 190.109H39.1416L41.3569 192.325H42.1323L42.2431 189.556H19.3142ZM20.0896 191.882L19.9788 190.22H21.7511L20.0896 191.882ZM25.4064 191.992L23.5234 190.109H27.2895L25.4064 191.992ZM31.3879 191.66C31.1663 191.882 30.834 191.882 30.6125 191.66L29.1725 190.22H32.8278L31.3879 191.66ZM36.9262 191.66C36.7047 191.882 36.3724 191.882 36.1509 191.66L34.7109 190.22H38.3662L36.9262 191.66ZM41.8 191.882L40.1385 190.22H41.9108L41.8 191.882Z" fill="#7A7ACE"/>
<path d="M44.6799 187.783C44.6799 189.112 43.5722 190.22 42.243 190.22H19.6464C18.9818 190.22 18.428 189.999 17.9849 189.556C17.5418 189.112 17.3203 188.559 17.3203 187.894C17.3203 187.673 17.3203 187.451 17.4311 187.119C17.7634 186.122 18.6495 185.457 19.7572 185.457H42.3538C43.0184 185.457 43.5722 185.679 44.0153 186.122C44.3476 186.565 44.6799 187.119 44.6799 187.783Z" fill="#E7AB36"/>
<path d="M44.68 187.783C44.4584 187.673 44.2369 187.673 43.9046 187.562C42.0215 186.786 40.0277 186.786 38.1447 187.562C37.5908 187.783 36.9262 187.894 36.3724 188.005C35.1539 188.226 33.8247 188.005 32.7171 187.562C30.834 186.786 28.8402 186.786 26.9572 187.562C26.071 187.894 25.1849 188.116 24.188 188.116C23.1911 188.116 22.3049 187.894 21.4188 187.562C20.0896 187.008 18.7604 186.897 17.4312 187.119C17.7635 186.122 18.6496 185.457 19.7573 185.457H42.3538C43.0184 185.457 43.5723 185.679 44.0153 186.122C44.3476 186.565 44.68 187.119 44.68 187.783Z" fill="#FFB93E"/>
</g>
<mask id="mask1_181_25403" style="mask-type:luminance" maskUnits="userSpaceOnUse" x="7" y="-10" width="186" height="281">
<path d="M192.222 -9.93665H7.46216V270.084H192.222V-9.93665Z" fill="white"/>
</mask>
<g mask="url(#mask1_181_25403)">
<path d="M168.186 91.3048V119.218C168.186 119.772 167.743 120.326 167.189 120.437L150.463 122.763H150.352C135.62 124.867 120.777 125.975 106.045 126.197C87.2149 126.529 68.2736 125.31 49.6647 122.652L32.9388 120.326C32.385 120.215 31.9419 119.772 31.9419 119.107V91.3048C31.9419 90.5294 32.6065 89.9756 33.2711 90.0864L49.4432 92.4125C51.437 92.7448 53.5416 92.9663 55.5354 93.1878C72.1505 95.2924 88.7656 96.1786 105.491 95.8463C120.445 95.6247 135.399 94.4063 150.352 92.3017L166.746 89.9756C167.521 89.9756 168.186 90.5294 168.186 91.3048Z" fill="#DE5728"/>
<path d="M168.186 91.3048V119.218C168.186 119.772 167.743 120.326 167.189 120.437L150.463 122.763H150.352C149.909 122.32 149.577 121.877 149.134 121.323C146.365 117.667 142.266 115.231 137.725 114.455C135.62 114.123 133.516 113.348 131.522 112.129C129.528 110.911 127.977 109.471 126.648 107.809C123.879 104.154 119.781 101.717 115.239 100.942C113.134 100.609 111.03 99.8339 109.036 98.6155C107.707 97.8401 106.599 96.9539 105.602 95.8463C120.556 95.6247 135.51 94.4063 150.463 92.3017L166.857 89.9756C167.521 89.9756 168.186 90.5294 168.186 91.3048Z" fill="#F26F51"/>
<path d="M105.934 126.197C87.104 126.529 68.1628 125.31 49.5538 122.652L32.828 120.326C32.2741 120.215 31.8311 119.772 31.8311 119.107V91.3048C31.8311 90.5294 32.4957 89.9756 33.1603 90.0864L49.4431 92.4125C51.4369 92.7448 53.5415 92.9663 55.5353 93.1879C57.086 94.2955 58.4152 95.514 59.5229 96.954C62.2921 100.609 66.3905 103.046 70.932 103.822C73.0366 104.154 75.1411 104.929 77.135 106.148C79.1288 107.366 80.6795 108.806 82.0087 110.468C84.7779 114.123 88.8763 116.56 93.4178 117.335C95.7439 117.778 98.07 118.664 100.285 120.104C102.611 121.655 104.605 123.76 105.934 126.197Z" fill="#C9431F"/>
<path d="M37.5909 94.5171C37.5909 95.2924 36.9263 95.957 36.1509 95.957C35.3755 95.957 34.7109 95.2924 34.7109 94.5171C34.7109 93.7417 35.3755 93.0771 36.1509 93.0771C36.9263 93.0771 37.5909 93.7417 37.5909 94.5171Z" fill="#FFB93E"/>
<path d="M165.86 94.5171C165.86 95.2924 165.195 95.957 164.42 95.957C163.644 95.957 162.98 95.2924 162.98 94.5171C162.98 93.7417 163.644 93.0771 164.42 93.0771C165.195 93.0771 165.86 93.7417 165.86 94.5171Z" fill="#FFB93E"/>
</g>
<mask id="mask2_181_25403" style="mask-type:luminance" maskUnits="userSpaceOnUse" x="7" y="-10" width="186" height="281">
<path d="M192.222 -9.93665H7.46216V270.084H192.222V-9.93665Z" fill="white"/>
</mask>
<g mask="url(#mask2_181_25403)">
<path d="M58.1937 151.673C58.1937 152.005 58.1937 152.448 58.0829 152.781C57.7506 156.879 56.0891 160.867 53.0984 163.968C52.9876 164.079 52.8769 164.19 52.7661 164.411C52.6553 164.522 52.5446 164.633 52.4338 164.744L52.323 164.854C50.9938 166.073 49.5538 167.181 48.0031 167.956C46.7847 168.621 45.4554 169.064 44.1262 169.396C44.0155 169.396 43.7939 169.507 43.6832 169.507C43.5724 169.507 43.4616 169.507 43.3509 169.617C42.9078 169.728 42.4647 169.839 41.9109 169.839C41.6893 169.839 41.357 169.95 41.1355 169.95C40.914 169.95 40.8032 169.95 40.5817 169.95C40.3601 169.95 40.2494 169.95 40.0278 169.95C39.2525 169.95 38.4771 169.95 37.7017 169.839C37.3694 169.839 37.1479 169.728 36.8156 169.728C36.594 169.728 36.2617 169.617 36.0402 169.617C35.8187 169.617 35.7079 169.507 35.4864 169.507C34.8218 169.396 34.1572 169.174 33.4926 168.953C33.1603 168.842 32.9387 168.731 32.6064 168.621C32.2741 168.51 32.0526 168.399 31.831 168.288C31.6095 168.177 31.388 168.067 31.1664 167.956C31.1664 167.956 31.0557 167.956 30.9449 167.845C30.7234 167.734 30.5018 167.624 30.2803 167.513C29.7265 167.181 29.1726 166.848 28.6188 166.405C28.3973 166.294 28.2865 166.184 28.1757 166.073C27.8434 165.851 27.5111 165.519 27.1788 165.298C26.9573 165.187 26.8465 164.965 26.625 164.854C26.5142 164.744 26.2927 164.633 26.1819 164.411C26.0711 164.19 25.9604 164.19 25.8496 163.968C25.6281 163.747 25.4065 163.525 25.185 163.304C24.9635 163.082 24.7419 162.861 24.6312 162.639C24.4096 162.418 24.1881 162.085 24.0773 161.864C23.9666 161.642 23.745 161.421 23.6343 161.199C23.5235 160.978 23.3019 160.645 23.1912 160.424C23.0804 160.202 22.9696 159.981 22.8589 159.759C22.6373 159.205 22.4158 158.762 22.1943 158.208C22.0835 157.987 22.0835 157.765 21.9727 157.544C21.6404 156.658 21.4189 155.661 21.1974 154.664C21.1974 154.442 21.0866 154.221 21.0866 153.999C21.0866 153.667 20.9758 153.335 20.9758 153.002C20.9758 152.781 20.9758 152.67 20.9758 152.449C20.9758 152.449 20.9758 152.449 20.9758 152.338C20.9758 152.227 20.9758 152.005 20.9758 151.895C20.9758 151.452 20.9758 151.119 20.9758 150.676V150.455C20.9758 150.344 20.9758 150.233 20.9758 150.233C20.9758 150.012 20.9758 149.79 20.9758 149.569C21.3081 145.47 22.9696 141.483 25.9604 138.381C26.0711 138.27 26.1819 138.16 26.2927 137.938C26.4034 137.716 26.5142 137.716 26.7357 137.495C29.0619 135.28 31.831 133.84 34.711 133.064C35.0433 132.953 35.3756 132.843 35.7079 132.843C35.8187 132.843 35.9294 132.843 36.0402 132.732C36.3725 132.621 36.8156 132.621 37.1479 132.51C37.3694 132.51 37.7017 132.4 37.9233 132.4C38.2556 132.289 38.6986 132.289 39.0309 132.289C39.8063 132.289 40.5817 132.289 41.357 132.4C41.6893 132.4 41.9109 132.51 42.2432 132.51C42.5755 132.51 42.797 132.621 43.1293 132.621C43.4616 132.621 43.6832 132.732 44.0155 132.843C44.237 132.953 44.5693 132.953 44.7908 133.064C45.4554 133.286 46.12 133.507 46.7847 133.729C47.0062 133.84 47.3385 133.95 47.56 134.061C47.8923 134.172 48.1139 134.283 48.4462 134.504C48.6677 134.615 48.8892 134.726 49.1108 134.947C49.6646 135.28 50.1077 135.612 50.5507 135.944C50.6615 136.055 50.7723 136.166 50.883 136.276C51.1046 136.387 51.2153 136.609 51.4369 136.72C51.6584 136.83 51.88 137.052 51.9907 137.273C52.1015 137.384 52.323 137.495 52.4338 137.606C52.5446 137.716 52.6553 137.827 52.8769 138.049C52.9876 138.16 53.0984 138.27 53.2092 138.492C53.5415 138.824 53.763 139.156 54.0953 139.489C54.3168 139.821 54.6491 140.153 54.8707 140.486C55.0922 140.818 55.3137 141.15 55.5353 141.483C55.646 141.593 55.646 141.704 55.7568 141.815C55.8676 142.036 56.0891 142.369 56.1999 142.59C56.4214 142.923 56.5322 143.255 56.643 143.587C56.8645 144.03 57.086 144.584 57.1968 145.027C57.3076 145.359 57.4183 145.802 57.5291 146.135C57.6399 146.578 57.7506 146.91 57.8614 147.353C58.0829 148.682 58.1937 150.233 58.1937 151.673Z" fill="#E7AB36"/>
<path d="M57.7507 147.242C55.4246 145.249 52.6554 144.03 49.6646 143.476C49.1108 143.366 48.6677 143.255 48.1139 143.144C47.6708 143.033 47.3385 142.922 46.8955 142.812C45.8986 142.479 44.9016 141.926 43.9047 141.372C42.1325 140.264 40.5817 138.935 39.3633 137.273C39.2525 137.163 39.2525 137.163 39.1417 137.052C38.6987 136.498 38.2556 136.055 37.8125 135.612C36.8156 134.615 35.7079 133.729 34.4895 133.064C34.8218 132.953 35.1541 132.843 35.4864 132.843C35.5972 132.843 35.7079 132.843 35.8187 132.732C36.151 132.621 36.5941 132.621 36.9264 132.51C37.1479 132.51 37.4802 132.4 37.7018 132.4C38.0341 132.289 38.4771 132.289 38.8094 132.289C39.5848 132.289 40.3602 132.289 41.1355 132.4C41.4679 132.4 41.6894 132.51 42.0217 132.51C42.354 132.51 42.5755 132.621 42.9078 132.621C43.2401 132.621 43.4617 132.732 43.794 132.843C44.0155 132.953 44.3478 132.953 44.5693 133.064C45.2339 133.286 45.8986 133.507 46.5632 133.729C46.7847 133.84 47.117 133.95 47.3385 134.061C47.6708 134.172 47.8924 134.283 48.2247 134.504C48.4462 134.615 48.6677 134.726 48.8893 134.947C49.4431 135.28 49.8862 135.612 50.3292 135.944C50.44 136.055 50.5508 136.166 50.6615 136.276C50.8831 136.387 50.9939 136.609 51.2154 136.72C51.4369 136.83 51.6585 137.052 51.7692 137.273C51.88 137.384 52.1015 137.495 52.2123 137.606C52.3231 137.716 52.4338 137.827 52.6554 138.049C52.7661 138.16 52.8769 138.27 52.9877 138.492C53.32 138.824 53.5415 139.156 53.8738 139.489C54.0953 139.821 54.4276 140.153 54.6492 140.486C54.8707 140.818 55.0922 141.15 55.3138 141.483C55.4246 141.593 55.4246 141.704 55.5353 141.815C55.6461 142.036 55.8676 142.369 55.9784 142.59C56.1999 142.923 56.3107 143.255 56.4215 143.587C56.643 144.03 56.8645 144.584 56.9753 145.027C57.0861 145.359 57.1968 145.802 57.3076 146.135C57.5291 146.467 57.6399 146.799 57.7507 147.242Z" fill="#FFB93E"/>
<path d="M47.8923 167.845C46.6738 168.51 45.3446 168.953 44.0154 169.285C43.9046 169.285 43.6831 169.396 43.5723 169.396C43.4616 169.396 43.3508 169.396 43.24 169.507C42.797 169.617 42.3539 169.728 41.8 169.728C41.5785 169.728 41.2462 169.839 41.0247 169.839C40.8031 169.839 40.6924 169.839 40.4708 169.839C40.2493 169.839 40.1385 169.839 39.917 169.839C39.1416 169.839 38.3662 169.839 37.5909 169.728C37.2586 169.728 37.037 169.617 36.7047 169.617C36.4832 169.617 36.1509 169.507 35.9294 169.507C35.7078 169.507 35.5971 169.396 35.3755 169.396C34.7109 169.285 34.0463 169.064 33.3817 168.842C33.0494 168.731 32.8279 168.621 32.4956 168.51C32.1633 168.399 31.9417 168.288 31.7202 168.178C31.4987 168.067 31.2771 167.956 31.0556 167.845C31.0556 167.845 30.9448 167.845 30.8341 167.734C30.6125 167.624 30.391 167.513 30.1695 167.402C29.6156 167.07 29.0618 166.738 28.5079 166.294C28.2864 166.184 28.1756 166.073 28.0649 165.962C27.7326 165.741 27.4003 165.408 27.068 165.187C26.8464 165.076 26.7357 164.854 26.5141 164.744C26.4034 164.633 26.1818 164.522 26.0711 164.301C25.9603 164.079 25.8495 164.079 25.7388 163.858C25.5172 163.636 25.2957 163.415 25.0742 163.193C24.8526 162.971 24.6311 162.75 24.5203 162.528C24.2988 162.307 24.0772 161.975 23.9665 161.753C23.8557 161.531 23.6342 161.31 23.5234 161.088C23.4126 160.867 23.1911 160.535 23.0803 160.313C22.9696 160.091 22.8588 159.87 22.748 159.648C22.5265 159.095 22.305 158.651 22.0834 158.098C21.9727 157.876 21.9727 157.655 21.8619 157.433C21.5296 156.547 21.3081 155.55 21.0865 154.553C21.0865 154.332 20.9758 154.11 20.9758 153.888C20.9758 153.556 20.865 153.224 20.865 152.892C20.865 152.67 20.865 152.559 20.865 152.338C20.865 152.338 20.865 152.338 20.865 152.227C20.865 152.116 20.865 151.895 20.865 151.784C20.865 151.341 20.865 151.009 20.865 150.565V150.344C20.9758 150.455 21.0865 150.455 21.1973 150.565C21.7511 150.787 22.305 151.119 22.8588 151.452C24.6311 152.559 26.1818 153.888 27.4003 155.55C28.3972 156.879 29.6156 158.098 30.9448 158.984C31.2771 159.205 31.6094 159.427 31.9417 159.648C33.8248 160.756 35.8186 161.531 37.9232 161.975C38.2555 162.085 38.477 162.085 38.8093 162.196C39.2524 162.307 39.6955 162.418 40.1385 162.528C41.5785 162.971 43.0185 163.636 44.3477 164.522C45.5661 165.298 46.8953 166.516 47.8923 167.845Z" fill="#D39424"/>
<path d="M58.1936 151.673C58.1936 152.005 58.1936 152.448 58.0829 152.781C57.7506 152.781 57.4183 152.781 57.0859 152.781C52.4337 152.781 48.003 151.119 44.4585 148.018C44.1262 147.686 43.5723 147.686 43.24 148.018L40.9139 150.344C40.5816 150.676 40.5816 151.23 40.9139 151.673L53.0983 163.858C52.9876 163.968 52.8768 164.079 52.766 164.301C52.6553 164.411 52.5445 164.522 52.4337 164.633L52.3229 164.744L40.1385 152.559C39.8062 152.227 39.2524 152.227 38.9201 152.559L36.594 154.885C36.2617 155.218 36.2617 155.772 36.594 156.104C38.1447 157.987 39.3632 160.091 40.2493 162.307C41.1354 164.633 41.4677 167.181 41.357 169.728C41.1354 169.728 41.0247 169.728 40.8031 169.728C40.5816 169.728 40.4708 169.728 40.2493 169.728C40.3601 167.07 39.917 164.301 38.9201 161.864C38.1447 160.091 37.1478 158.319 35.9294 156.879C35.5971 156.547 35.0432 156.436 34.6002 156.879L31.7202 159.538L26.5141 164.744C26.4034 164.633 26.1818 164.522 26.0711 164.301C25.9603 164.079 25.8495 164.079 25.7388 163.858L30.8341 158.762L33.6032 155.993C33.9356 155.661 33.9356 154.996 33.6032 154.664C30.1695 151.784 25.7388 150.233 21.1973 150.344C21.0865 150.344 20.9758 150.344 20.865 150.344V150.122C20.865 150.012 20.865 149.901 20.865 149.901C20.865 149.679 20.865 149.458 20.865 149.236C25.8495 149.015 30.7233 150.676 34.4894 153.888C34.8217 154.221 35.3755 154.221 35.7078 153.888L38.0339 151.562C38.3662 151.23 38.3662 150.676 38.0339 150.233L25.8495 138.049L26.2926 137.716L26.7357 137.273L38.9201 149.569C39.2524 149.901 39.8062 149.901 40.1385 149.569L42.4646 147.242C42.7969 146.91 42.7969 146.356 42.4646 146.024C39.917 143.033 38.2555 139.378 37.8124 135.501C37.7016 134.504 37.7016 133.396 37.7016 132.4C38.0339 132.289 38.477 132.289 38.8093 132.289C38.6986 133.84 38.9201 135.501 39.1416 136.941C39.6955 139.932 41.1354 142.701 43.1292 145.138C43.4615 145.581 44.1262 145.581 44.4585 145.138L52.3229 137.273L52.766 137.716L53.0983 138.049L48.2246 142.923L45.3446 145.802C45.0123 146.135 45.0123 146.799 45.3446 147.132C48.7784 150.344 53.5414 151.895 58.1936 151.673Z" fill="#101089"/>
</g>
<path d="M174.056 247.155H166.081C165.417 247.155 164.863 246.712 164.641 246.158L163.201 242.281C161.983 239.179 159.989 236.632 157.331 234.749C154.672 232.976 151.571 231.869 148.248 231.869C147.361 231.869 146.697 232.533 146.697 233.419V251.807C146.697 253.358 147.029 254.798 147.583 256.127C148.137 257.456 149.023 258.785 150.131 259.782C155.78 265.431 161.429 260.225 163.977 257.124C164.641 256.348 165.638 256.127 166.414 256.57C166.635 256.681 166.857 256.791 167.078 257.013L171.73 261.665C171.841 261.776 172.063 261.997 172.173 262.219C172.616 262.994 172.616 263.991 172.063 264.877L167.078 272.52C165.306 275.29 162.869 277.505 159.989 278.945C151.571 283.043 144.26 278.502 140.494 275.29C138.832 273.85 137.835 272.631 137.725 272.52H88.7655C80.901 272.52 80.5687 280.163 80.901 284.151C81.0118 285.148 80.4579 285.923 79.5718 286.366C79.3503 286.477 79.018 286.477 78.7964 286.477H72.2612C72.0396 286.477 71.8181 286.477 71.5966 286.366C70.7104 286.145 70.0458 285.369 69.8243 284.483L67.9412 275.511C67.2766 272.299 67.3874 268.976 68.4951 265.985C71.8181 256.459 81.2333 254.908 86.1071 254.687C87.6578 254.687 88.8763 253.358 88.8763 251.807V233.53C88.8763 232.755 88.2117 232.09 87.4363 232.09C74.5873 232.09 63.5105 223.007 61.0736 210.38L59.8552 203.845C59.6337 202.848 60.409 201.962 61.4059 201.962H69.3812C70.0458 201.962 70.5996 202.405 70.8212 202.958L72.2612 206.835C73.4796 209.937 75.4734 212.484 78.1318 214.367C80.7903 216.14 83.8917 217.247 87.2148 217.247C88.1009 217.247 88.7655 216.583 88.7655 215.697V187.783H85.5533C81.0118 187.783 77.0242 186.011 74.0334 183.02C71.0427 180.03 69.2704 176.042 69.2704 171.5C69.2704 166.959 71.1535 162.971 74.0334 159.981C77.0242 157.101 81.0118 155.218 85.5533 155.218C87.3255 155.218 88.7655 153.778 88.7655 152.005V151.673C88.7655 140.486 95.0793 130.516 104.384 125.532C108.261 123.538 112.581 122.32 117.233 122.209C132.297 121.987 144.703 133.175 146.475 147.685C146.586 148.793 146.697 149.901 146.697 151.119V215.697C146.697 216.472 147.362 217.137 148.137 217.137C160.986 217.137 172.063 226.22 174.5 238.847L175.718 245.382C175.829 246.158 175.053 247.155 174.056 247.155Z" fill="#4030BF"/>
<path d="M146.365 147.575C143.485 145.359 140.162 143.809 136.506 143.255C133.959 142.812 131.411 141.926 129.085 140.486C126.759 139.046 124.765 137.273 123.214 135.169C119.78 130.738 114.907 127.858 109.479 126.861C107.818 126.529 106.045 126.086 104.384 125.31C108.261 123.317 112.581 122.098 117.233 121.987C132.297 121.766 144.703 133.064 146.365 147.575Z" fill="#4A42E1"/>
<path d="M140.383 275.179C138.722 273.739 137.725 272.52 137.614 272.41H88.7656C80.9011 272.41 80.5688 280.053 80.9011 284.04C81.0118 285.037 80.458 285.812 79.5718 286.256C79.3503 286.366 79.018 286.366 78.7965 286.366H72.2612C72.0397 286.366 71.8181 286.366 71.5966 286.256C70.7105 286.034 70.0459 285.259 69.8243 284.372L67.9413 275.4C67.2767 272.188 67.3874 268.865 68.4951 265.874C71.8181 256.348 81.2334 254.798 86.1071 254.576C87.6579 254.576 88.8763 253.247 88.8763 251.696V245.493C91.9778 248.484 95.9654 250.478 100.285 251.253C102.833 251.696 105.381 252.582 107.707 254.022C110.033 255.462 112.027 257.234 113.688 259.339C117.011 263.659 121.996 266.65 127.423 267.647C130.303 268.09 133.073 269.197 135.731 270.97C137.392 271.967 139.054 273.517 140.383 275.179Z" fill="#2923AC"/>
<path d="M134.291 229.321V272.299H94.5254V229.321C94.5254 218.355 103.387 209.494 114.353 209.494C125.319 209.494 134.291 218.355 134.291 229.321Z" fill="#4A42E1"/>
<path d="M134.291 269.973V272.41H94.5254V249.37C96.2977 250.256 98.1807 250.81 100.175 251.142C102.722 251.585 105.27 252.472 107.596 253.912C109.922 255.351 111.916 257.124 113.577 259.228C116.9 263.548 121.885 266.539 127.313 267.536C129.639 267.868 132.076 268.644 134.291 269.973Z" fill="#4030BF"/>
<path d="M65.2828 201.851C65.2828 202.958 64.3967 203.845 63.289 203.845C62.1813 203.845 61.2952 202.958 61.2952 201.851H65.2828Z" fill="#4A42E1"/>
<path d="M69.2703 201.851C69.2703 202.958 68.3842 203.845 67.2765 203.845C66.1689 203.845 65.2827 202.958 65.2827 201.851H69.2703Z" fill="#4A42E1"/>
<path d="M79.5716 286.255C79.3501 286.366 79.0178 286.366 78.7962 286.366H75.584C75.584 285.259 76.4701 284.372 77.5778 284.372C78.5747 284.372 79.4608 285.148 79.5716 286.255Z" fill="#4030BF"/>
<path d="M75.5841 286.366H72.261C72.0395 286.366 71.818 286.366 71.5964 286.255C71.5964 285.148 72.4826 284.372 73.5903 284.372C74.6979 284.372 75.5841 285.259 75.5841 286.366Z" fill="#4030BF"/>
<path d="M170.179 247.155C170.179 246.047 171.066 245.161 172.173 245.161C173.281 245.161 174.167 246.047 174.167 247.155H170.179Z" fill="#4A42E1"/>
<path d="M166.192 247.155C166.192 246.047 167.078 245.161 168.186 245.161C169.293 245.161 170.18 246.047 170.18 247.155H166.192Z" fill="#4A42E1"/>
<path d="M166.413 256.57C166.635 256.681 166.857 256.791 167.078 257.013L169.293 259.228C168.518 260.004 167.189 260.004 166.413 259.228C165.749 258.564 165.749 257.345 166.413 256.57Z" fill="#4A42E1"/>
<path d="M169.293 259.339L171.62 261.665C171.73 261.776 171.952 261.997 172.063 262.219C171.287 262.994 170.069 262.884 169.293 262.219C168.518 261.333 168.518 260.114 169.293 259.339Z" fill="#4A42E1"/>
<path d="M118.119 122.098H117.676C115.35 122.098 113.023 122.43 110.808 122.874C109.922 122.098 109.036 121.212 108.26 120.215C104.937 116.117 102.944 110.8 102.944 105.705C102.944 105.151 102.944 104.597 103.054 103.932C103.387 102.049 104.273 100.055 106.156 99.9447C108.814 99.7231 110.254 102.382 111.362 104.929C111.694 105.594 111.916 106.258 112.137 106.923C112.248 107.145 112.248 107.255 112.359 107.477C113.91 111.243 115.128 115.12 116.568 118.886C116.679 119.218 116.9 119.661 117.011 119.994C117.343 120.437 117.786 121.212 118.119 122.098Z" fill="#4030BF"/>
<path d="M130.746 125.089C128.42 123.87 125.873 123.095 123.214 122.541C122.328 121.434 121.663 120.104 120.999 118.775C119.559 115.784 118.894 112.351 118.783 109.028C118.783 107.366 118.894 105.594 119.227 104.043C119.67 102.049 121.11 98.7262 123.657 99.0585C126.316 99.3909 127.202 102.382 127.645 105.04C127.756 106.037 127.866 106.923 128.088 107.698C128.088 108.031 128.199 108.252 128.199 108.585C128.753 111.908 129.639 117.667 130.192 121.434C130.525 123.317 130.746 124.757 130.746 125.089Z" fill="#4030BF"/>
<path d="M117.011 119.883C117.233 120.437 117.676 121.323 118.119 122.098H117.676C115.35 122.098 113.024 122.43 110.808 122.874C109.922 122.098 109.036 121.212 108.26 120.215C110.808 119.329 113.577 118.775 116.457 118.664C116.679 119.107 116.9 119.44 117.011 119.883Z" fill="#2923AC"/>
<path d="M130.746 125.089C128.42 123.87 125.873 123.095 123.214 122.541C122.328 121.434 121.663 120.104 120.999 118.775C124.211 119.107 127.423 120.104 130.192 121.434C130.525 123.317 130.746 124.757 130.746 125.089Z" fill="#2923AC"/>
<path d="M111.362 104.818C111.694 105.483 111.916 106.148 112.137 106.812C112.027 106.812 111.916 106.701 111.916 106.701C109.257 105.151 106.267 104.265 103.165 103.932C103.498 102.049 104.384 100.055 106.267 99.9447C108.814 99.7231 110.365 102.382 111.362 104.818Z" fill="#4A42E1"/>
<path d="M128.199 108.695C127.866 108.806 127.534 108.806 127.313 108.917C124.765 109.471 122.107 109.692 119.337 109.249C119.227 109.249 119.005 109.249 118.894 109.138C118.894 107.477 119.005 105.705 119.337 104.154C119.78 102.16 121.22 98.837 123.768 99.1693C126.426 99.5016 127.313 102.492 127.756 105.151C127.866 106.148 127.977 107.034 128.199 107.809C128.088 108.031 128.199 108.363 128.199 108.695Z" fill="#4A42E1"/>
<path d="M147.583 135.39V138.159C147.583 138.381 147.583 138.492 147.583 138.713C147.362 140.818 145.479 142.479 143.374 142.479H91.8671C89.5409 142.479 87.5471 140.596 87.5471 138.159V135.39C87.5471 133.064 89.4302 131.07 91.8671 131.07H143.374C145.7 131.181 147.583 133.064 147.583 135.39Z" fill="#D465BA"/>
<path d="M147.583 135.39V138.159C147.583 138.381 147.583 138.492 147.583 138.713C147.029 138.713 146.475 138.824 145.922 138.824C143.152 138.824 140.494 138.27 138.168 137.384C133.073 135.39 127.313 135.28 122.107 137.273C119.67 138.159 117.011 138.713 114.242 138.713C111.473 138.713 108.814 138.16 106.488 137.163C101.393 135.169 95.6331 135.058 90.4271 137.163C89.4302 137.495 88.544 137.827 87.5471 138.049V135.501C87.5471 133.175 89.4302 131.181 91.8671 131.181H143.374C145.7 131.181 147.583 133.064 147.583 135.39Z" fill="#EA78CA"/>
<path d="M100.175 155.439C102.193 155.439 103.83 153.803 103.83 151.784C103.83 149.765 102.193 148.129 100.175 148.129C98.1558 148.129 96.5193 149.765 96.5193 151.784C96.5193 153.803 98.1558 155.439 100.175 155.439Z" fill="#101089"/>
<path d="M121.774 155.439C123.793 155.439 125.43 153.803 125.43 151.784C125.43 149.765 123.793 148.129 121.774 148.129C119.755 148.129 118.119 149.765 118.119 151.784C118.119 153.803 119.755 155.439 121.774 155.439Z" fill="#101089"/>
<path d="M82.4518 168.399C82.4518 170.614 81.1226 172.387 79.5718 172.387C78.5749 172.387 77.7996 171.722 77.2457 170.725C76.9134 170.061 76.6919 169.285 76.6919 168.399C76.6919 166.184 78.0211 164.411 79.5718 164.411C79.9041 164.411 80.1257 164.411 80.3472 164.522C81.5657 165.076 82.4518 166.627 82.4518 168.399Z" fill="#101089"/>
<path d="M91.6454 168.399C91.6454 170.614 90.3162 172.387 88.7655 172.387C87.7685 172.387 86.9932 171.722 86.4393 170.725C86.107 170.061 85.8855 169.285 85.8855 168.399C85.8855 166.184 87.2147 164.411 88.7655 164.411C89.0978 164.411 89.3193 164.411 89.6516 164.522C90.7593 165.076 91.6454 166.627 91.6454 168.399Z" fill="#101089"/>
<path d="M118.562 178.7C118.562 178.811 118.562 179.033 118.562 179.143C118.34 185.014 113.467 189.666 107.596 189.666C105.602 189.666 103.719 189.113 102.168 188.226C101.725 187.894 101.061 187.894 100.618 188.116C100.285 188.226 100.064 188.337 99.8422 188.448C95.9653 189.777 92.31 189.888 90.3162 189.888C89.6516 189.888 89.0978 189.888 88.8762 189.888V187.673C89.4301 187.673 93.9715 188.005 99.1776 186.343C106.156 184.128 111.584 178.59 114.242 171.722C114.464 171.279 114.907 170.947 115.46 171.057C115.793 171.168 115.903 171.39 116.125 171.611C116.236 171.722 116.347 171.944 116.457 172.054C116.568 172.165 116.679 172.387 116.79 172.497C117.233 173.051 117.565 173.716 117.897 174.38C118.23 175.71 118.562 177.15 118.562 178.7Z" fill="#101089"/>
<path d="M118.562 179.143C118.34 185.014 113.467 189.666 107.596 189.666C107.596 189.113 107.707 188.448 107.817 187.894C107.928 187.119 108.261 186.343 108.593 185.568C109.701 183.02 111.805 180.916 114.464 179.919C115.239 179.587 116.014 179.365 116.79 179.254C117.343 179.254 117.897 179.143 118.562 179.143Z" fill="#D465BA"/>
<path d="M114.353 180.03C113.134 182.577 111.03 184.682 108.482 185.679C109.701 183.131 111.805 181.027 114.353 180.03Z" fill="#EA78CA"/>
<path d="M118.562 179.143C118.34 185.014 113.467 189.666 107.596 189.666C107.596 189.113 107.707 188.448 107.817 187.894C112.359 187.119 115.904 183.685 116.79 179.254C117.343 179.254 117.897 179.143 118.562 179.143Z" fill="#C64BAF"/>
</g>
<path d="M124.511 74.0555C122.778 74.0555 121.711 73.0333 121.711 71.3889V66.3666C121.711 66.0111 121.4 65.7 121.045 65.7H104.111C102.334 65.7 101.222 64.5889 101.222 62.9889C101.222 61.3889 102.289 60.3666 104.111 60.3666H105.489V56.6333H98.1113C96.3335 56.6333 95.2224 55.5222 95.2224 53.9222C95.2224 52.3222 96.2891 51.3 98.1113 51.3H131C132.822 51.3 133.889 52.3222 133.889 53.9222C133.889 55.5222 132.778 56.6333 131 56.6333H123.578V60.3666H123.711C126.245 60.3666 127.489 61.6111 127.489 64.1444V71.3889C127.489 73.1222 126.467 74.0555 124.734 74.0555H124.511ZM102.022 40.5C102.022 35.1666 107 31.3444 114.556 31.3444C122.111 31.3444 127.089 35.1666 127.089 40.5C127.089 45.8333 122.111 49.6555 114.556 49.6555C107 49.6555 102.022 45.8333 102.022 40.5ZM108.022 40.5C108.022 42.7666 110.6 44.3222 114.556 44.3222C118.6 44.3222 121.089 42.8111 121.089 40.5C121.089 38.1889 118.6 36.6778 114.556 36.6778C110.511 36.6778 108.022 38.1889 108.022 40.5ZM111.489 60.3666H117.578V56.6333H111.489V60.3666Z" fill="#333333"/>
<path d="M57.014 64.5889C56.3474 64.5889 55.7696 64.3222 55.2363 63.7889C54.7474 63.3 54.4807 62.6778 54.4807 62.0111C54.4807 61.2555 54.7918 60.5889 55.414 60.0111C59.6807 56.1 61.4585 52.7666 61.4585 47.0333V45.1222H57.7696C55.9918 45.1222 54.8807 44.0555 54.8807 42.4555C54.8807 40.8555 55.9918 39.7889 57.7696 39.7889H70.5252C72.3029 39.7889 73.414 40.8555 73.414 42.4555C73.414 44.0555 72.3029 45.1222 70.5252 45.1222H67.0585V47.9222C67.0585 49.4778 66.8807 50.9 66.5252 52.2333C68.9696 54.3222 71.1029 56.6333 72.8807 59.0778C73.6363 60.1 74.0363 61.0333 74.0363 61.8778C74.0363 62.5444 73.7696 63.1222 73.1918 63.5666C72.6585 64.0111 72.0807 64.2333 71.4585 64.2333C70.5252 64.2333 69.7252 63.7444 69.014 62.7222C67.4585 60.5444 65.9474 58.8111 64.3918 57.4333C63.1474 59.7 60.8807 62.4111 59.2363 63.6555C58.4807 64.2778 57.7696 64.5889 57.014 64.5889ZM57.1918 33.6555C57.1918 33.0778 57.3252 32.6333 57.6363 32.2333C58.1252 31.4778 58.8363 31.0778 59.7696 31.0778C60.2585 31.0778 60.6585 31.1666 61.0585 31.3889L61.1474 31.4333C62.3918 32.1 63.3696 32.2778 65.1918 32.2778H68.4807C70.2585 32.2778 71.3696 33.3444 71.3696 34.9444C71.3696 36.5444 70.2585 37.6111 68.4807 37.6111H64.2585C61.7696 37.6111 60.0363 37.2555 58.6585 36.2333L58.3029 35.9666C57.6363 35.4778 57.1918 34.5889 57.1918 33.6555ZM70.2585 50.6333C70.2585 48.8555 71.2363 47.9666 73.1474 47.9666H75.9029V34.5889C75.9029 32.8555 76.9696 31.7889 78.7029 31.7889C80.4363 31.7889 81.5029 32.8555 81.5029 34.5889V70.5444C81.5029 72.2778 80.4363 73.3444 78.7029 73.3444C76.9696 73.3444 75.9029 72.2778 75.9029 70.5444V53.3H73.1474C71.2363 53.3 70.2585 52.4111 70.2585 50.6333ZM84.8363 71.6555V34.1444C84.8363 32.4111 85.9029 31.3444 87.6363 31.3444C89.3696 31.3444 90.4363 32.4111 90.4363 34.1444V71.6555C90.4363 73.3889 89.3696 74.4555 87.6363 74.4555C85.9029 74.4555 84.8363 73.3889 84.8363 71.6555Z" fill="#333333"/>
</g>
<rect x="0.5" y="0.5" width="199" height="299" rx="3.5" stroke="#DDDDDD"/>
<defs>
<clipPath id="clip0_181_25403">
<rect width="200" height="300" rx="4" fill="white"/>
</clipPath>
<clipPath id="clip1_181_25403">
<rect width="211.111" height="355.77" fill="white" transform="translate(-11.1111 -26.6667)"/>
</clipPath>
</defs>
</svg>
