<svg width="131" height="130" viewBox="0 0 131 130" fill="none" xmlns="http://www.w3.org/2000/svg">
<rect x="0.964844" width="130" height="130" rx="65" fill="#EDEEFE"/>
<rect x="0.964844" width="130" height="130" rx="65" fill="white"/>
<g clip-path="url(#clip0_1856_395)">
<path d="M83.8302 97.1456H47.1702V76.6298C47.1702 74.5956 48.7716 72.9941 50.8059 72.9941H80.0502C82.0845 72.9941 83.6859 74.5956 83.6859 76.6298C83.8302 79.0969 83.8302 95.0969 83.8302 97.1456Z" fill="#D0DCE7"/>
<path d="M90.3801 91.3311C91.9816 91.3311 93.2945 92.6439 93.2945 94.2454C93.2945 95.8468 91.9816 97.1597 90.3801 97.1597H83.8301V91.3455H90.3801V91.3311Z" fill="#40B8E7"/>
<path d="M47.1699 91.3313V97.1456H40.6199C39.0185 97.1456 37.7056 95.8327 37.7056 94.2312C37.7056 92.6298 39.0185 91.3169 40.6199 91.3169H47.1699V91.3313Z" fill="#40B8E7"/>
<path d="M88.7787 84.4928C90.3801 87.4071 90.3801 90.1628 90.3801 91.3314H83.8301V79.6885C84.6957 80.1213 87.033 81.5785 88.7787 84.4928Z" fill="#95E6F9"/>
<path d="M47.1699 79.5439V91.1869H40.6199C40.6199 90.0182 40.6199 87.2626 42.2213 84.3483C43.967 81.5782 46.2898 80.1355 47.1699 79.5439Z" fill="#95E6F9"/>
<path d="M65.507 52.6367C71.177 52.6367 75.6928 57.1525 75.6928 62.8225C75.6928 68.4924 71.1914 73.0082 65.507 73.0082C59.8226 73.0082 55.3213 68.4924 55.3213 62.8225C55.3213 57.1525 59.8226 52.6367 65.507 52.6367Z" fill="#FFE2B6"/>
<path d="M65.5072 80.2651C67.9743 80.2651 69.8787 82.1551 69.8787 84.6222C69.8787 87.0893 67.9887 88.9793 65.5072 88.9793C63.0257 88.9793 61.1501 87.0893 61.1501 84.6222C61.1501 82.2994 63.0401 80.2651 65.5072 80.2651Z" fill="white"/>
<path d="M95.9449 34.4846C100.749 34.4846 104.529 38.4089 104.529 43.069C104.529 45.3918 103.505 47.5847 102.062 49.1717C100.461 50.7732 98.2821 51.6388 95.9593 51.6388H74.5779V43.0545C74.5779 38.2502 78.5021 34.4702 83.1622 34.4702H95.9593L95.9449 34.4846Z" fill="#FF5987"/>
<path d="M90.1303 41.7706H80.9689C80.5361 41.7706 80.0889 41.3378 80.0889 40.905C80.0889 40.4722 80.5217 40.0249 80.9689 40.0249H90.1303C90.5632 40.0249 90.996 40.4577 90.996 40.905C90.996 41.3522 90.5632 41.7706 90.1303 41.7706Z" fill="white"/>
<path d="M96.3918 46.2716H80.9689C80.5361 46.2716 80.0889 45.8388 80.0889 45.406C80.0889 44.9731 80.5217 44.5259 80.9689 44.5259H96.3918C96.8247 44.5259 97.2719 44.9587 97.2719 45.406C97.4162 45.8388 96.9834 46.2716 96.3918 46.2716Z" fill="white"/>
<path d="M59.194 37.5843V46.1686H37.8126C35.4898 46.1686 33.3112 45.1443 31.7098 43.7015C30.1084 42.1001 29.2427 39.9215 29.2427 37.5987C29.2283 32.78 33.1525 29 37.8126 29H50.6097C55.2698 29 59.194 32.9243 59.194 37.5843Z" fill="#51C193"/>
<path d="M52.788 36.2713H43.6266C43.1938 36.2713 42.761 35.8385 42.761 35.4057C42.761 34.9729 43.1938 34.54 43.6266 34.54H52.788C53.2209 34.54 53.6681 34.9729 53.6681 35.4057C53.6681 35.8385 53.2353 36.2713 52.788 36.2713Z" fill="white"/>
<path d="M52.7881 40.7874H37.3796C36.9468 40.7874 36.4995 40.3546 36.4995 39.9218C36.4995 39.489 36.9323 39.0562 37.3796 39.0562H52.8025C53.2353 39.0562 53.6826 39.489 53.6826 39.9218C53.6826 40.3546 53.2497 40.7874 52.8025 40.7874H52.7881Z" fill="white"/>
<path d="M103.177 97.001C104.49 97.001 105.5 98.0253 105.5 99.3238C105.5 100.622 104.476 101.647 103.177 101.647H27.8228C26.5099 101.647 25.5 100.622 25.5 99.3238C25.5 98.0253 26.5243 97.001 27.8228 97.001H103.177Z" fill="#C86D36"/>
</g>
<defs>
<clipPath id="clip0_1856_395">
<rect width="80" height="80" fill="white" transform="translate(25.9648 25)"/>
</clipPath>
</defs>
</svg>
