<svg width="200" height="300" viewBox="0 0 200 300" fill="none" xmlns="http://www.w3.org/2000/svg">
<g clip-path="url(#clip0_252_9663)">
<rect width="200" height="300" rx="4" fill="white"/>
<g clip-path="url(#clip1_252_9663)">
<path d="M200 -26.6667H0V276.451H200V-26.6667Z" fill="#8D89DB"/>
<path d="M200 -26.6667V100.312C198.082 98.9928 196.403 97.4341 194.724 95.7554C190.408 91.4389 187.17 86.6427 184.892 81.3669C179.976 70.2158 171.103 61.3429 160.072 56.5468C154.796 54.2686 150 51.0312 145.683 46.7146C141.367 42.3981 138.13 37.6019 135.851 32.3261C130.935 21.1751 122.062 12.3022 111.031 7.506C105.755 5.22783 100.959 1.99042 96.6427 -2.32613C89.8082 -9.16066 85.4916 -17.7938 83.813 -26.6667H200Z" fill="#9797F2"/>
<path d="M115.348 276.451H0V170.456C3.35731 172.614 6.83453 174.532 10.4317 176.091C18.2254 179.568 25.6595 184.484 32.0144 190.839C38.3693 197.314 43.4053 204.628 46.7626 212.422C54.0767 229.089 67.3861 242.518 84.1727 249.832C92.9257 253.669 101.079 259.305 108.034 266.978C110.791 269.976 113.189 273.213 115.348 276.451Z" fill="#7A7ACE"/>
<path d="M200 276.451H0V328.969H200V276.451Z" fill="#F6F6F6"/>
<path d="M200 276.451V328.969H165.228C160.791 321.295 153.957 315.18 145.803 311.583C141.247 309.544 137.05 306.787 133.333 303.07C129.616 299.353 126.739 295.156 124.82 290.6C122.422 285.204 119.065 280.408 114.748 276.451H200Z" fill="#FFFDFF"/>
<path d="M58.753 328.969H0V276.451H2.39808C6.35492 280.767 11.1511 284.125 16.5468 286.523C21.1031 288.441 25.2998 291.319 29.0168 295.036C32.7338 298.753 35.6115 302.95 37.53 307.506C41.6067 317.098 49.1607 324.772 58.753 328.969Z" fill="#ECECEC"/>
<path d="M25.6755 94.8981L35.2354 104.351L35.128 175.889L25.6755 185.341V94.8981Z" fill="#D39424"/>
<path d="M174.444 94.8981L164.885 104.351V175.889L174.444 185.341V94.8981Z" fill="#D39424"/>
<path d="M174.445 94.8981L164.885 104.351H35.2354L25.6755 94.8981H174.445Z" fill="#E7AB36"/>
<path d="M25.6755 185.341L35.128 175.889H164.885L174.445 185.341H25.6755Z" fill="#E7AB36"/>
<path d="M164.885 104.351H35.2354V175.889H164.885V104.351Z" fill="#4030BF"/>
<path d="M93.9911 175.889H35.1279L35.2353 125.189C37.1688 126.693 38.6726 128.411 39.9616 130.345C42.9692 134.856 47.4806 138.186 52.7439 139.475C55.2144 140.12 57.5776 141.194 59.8333 142.698C62.089 144.309 63.8076 146.135 65.204 148.283C68.2116 152.795 72.723 156.124 77.9863 157.413C80.7791 158.058 83.4644 159.347 85.8276 161.28C90.6612 164.825 93.454 170.303 93.9911 175.889Z" fill="#2923AC"/>
<path d="M164.885 104.351V154.943C163.918 154.406 162.844 153.869 161.984 153.224C159.729 151.613 158.01 149.787 156.614 147.639C153.606 143.127 149.095 139.797 143.831 138.508C141.361 137.864 138.998 136.79 136.742 135.286C134.486 133.675 132.768 131.849 131.371 129.7C128.364 125.189 123.852 121.859 118.482 120.57C116.011 119.926 113.648 118.852 111.392 117.348C106.881 114.125 104.088 109.506 103.014 104.565H164.885V104.351Z" fill="#4A42E1"/>
<path d="M167.785 208.865H32.2278C30.2943 208.865 28.6831 207.254 28.6831 205.32V203.602C28.6831 201.668 30.2943 200.057 32.2278 200.057H167.785C169.718 200.057 171.33 201.668 171.33 203.602V205.32C171.222 207.361 169.718 208.865 167.785 208.865Z" fill="#FFB93E"/>
<path d="M153.176 208.865H46.8362V263.002H153.176V208.865Z" fill="#FFB93E"/>
<path d="M153.178 226.01V208.931L46.8374 208.931V226.01L153.178 226.01Z" fill="#E7AB36"/>
<path d="M46.8363 208.865V270.413C46.8363 272.239 45.3324 273.743 43.5064 273.743H37.0615C35.2355 273.743 33.7317 272.239 33.7317 270.413V208.865H46.8363Z" fill="#E7AB36"/>
<path d="M166.281 208.865V270.413C166.281 272.239 164.777 273.743 162.951 273.743H156.506C154.68 273.743 153.177 272.239 153.177 270.413V208.865H166.281Z" fill="#E7AB36"/>
<path d="M46.9437 208.865H33.8391V225.944H46.9437V208.865Z" fill="#D39424"/>
<path d="M166.281 208.865H153.177V225.944H166.281V208.865Z" fill="#D39424"/>
<path d="M114.185 222.829C114.185 237.437 109.673 251.831 101.08 263.968C98.6098 267.406 93.4539 266.976 91.6278 263.324L89.8018 259.672C89.587 259.135 89.1573 258.813 88.7276 258.49C88.298 258.168 87.7609 258.061 87.2238 258.061H67.1373C66.0632 258.061 65.2039 258.598 64.6668 259.457L61.4444 264.613C59.4035 267.943 54.5698 268.158 52.3141 265.043L28.683 233.463C27.2866 231.637 26.6421 229.488 26.6421 227.34C26.6421 225.944 26.9643 224.547 27.5014 223.258C27.8236 222.506 28.1459 221.862 28.683 221.218C29.1126 220.68 29.6497 220.036 30.1868 219.606C30.6164 219.284 31.0461 218.962 31.4757 218.64C32.0128 218.317 32.5499 217.995 33.087 217.78C33.8389 217.458 34.5908 217.243 35.3427 217.136C39.1022 216.491 43.0765 217.995 45.4396 221.325L46.9434 223.473L48.5546 225.729L48.9843 224.01C48.9843 223.903 48.9843 223.903 48.9843 223.903C48.9843 223.795 48.9843 223.795 48.9843 223.688L55.5366 197.694C55.8588 196.62 55.8588 195.438 55.7514 194.364L53.1735 166.544C52.0993 154.728 59.6183 143.879 71.2191 140.871L88.4054 136.36L90.6611 135.716C92.2723 135.393 93.8835 135.179 95.2799 134.964L97.5356 144.094L105.162 175.674L105.592 177.715L112.359 206.394C113.54 211.98 114.185 217.351 114.185 222.829Z" fill="#DE5728"/>
<path d="M97.4283 144.201C96.569 143.879 95.8171 143.449 95.0652 143.02C92.2724 141.301 89.9093 139.045 88.2981 136.467L90.5538 135.823C92.165 135.501 93.7762 135.286 95.1726 135.071L97.4283 144.201Z" fill="#F26F51"/>
<path d="M80.2419 246.89C77.7714 245.278 74.9786 244.204 72.1858 243.667C66.9225 242.808 62.1963 239.908 58.8664 235.718C57.3626 233.678 55.4292 231.959 53.066 230.563C50.7029 229.166 48.3398 228.307 45.8693 227.877C44.9025 227.77 44.0432 227.555 43.1839 227.233C41.7875 226.803 40.3911 226.266 39.1022 225.514C36.5242 224.118 34.3759 222.184 32.5499 219.821C32.1202 219.284 31.6906 218.854 31.2609 218.317C30.8312 218.64 30.4016 218.962 29.9719 219.284C29.4349 219.821 28.8978 220.358 28.4681 220.895C28.0385 221.54 27.6088 222.184 27.2866 222.936C26.7495 224.225 26.4272 225.622 26.4272 227.018C26.4272 229.166 27.0717 231.314 28.4681 233.141L52.0993 264.72C54.4624 267.835 59.1887 267.621 61.2295 264.291L64.452 259.135C64.989 258.276 65.9558 257.738 66.9225 257.738H86.9016C87.4387 257.738 87.9757 257.846 88.4054 258.168C87.3312 253.872 84.4311 249.682 80.2419 246.89Z" fill="#C9431F"/>
<path d="M105.592 177.929C104.732 178.037 103.443 178.252 102.047 178.252C97.8579 178.252 92.1649 177.07 88.6202 171.27C88.298 170.733 88.5128 170.088 88.9425 169.766C89.4796 169.444 90.124 169.659 90.4463 170.088C94.4206 176.748 102.047 176.318 105.055 175.781L105.592 177.929Z" fill="#4030BF"/>
<path d="M130.297 224.87L124.497 234.215L114.507 250.327L107.096 262.143C106.021 263.861 103.766 264.398 102.047 263.324L101.617 263.109L110.318 249.253L121.382 231.529L128.686 219.821L129.116 220.036C130.834 221.003 131.371 223.258 130.297 224.87Z" fill="#199962"/>
<path d="M128.793 219.714L118.052 204.568C117.515 203.816 116.548 203.924 116.011 204.676L113.003 209.832L128.793 219.714Z" fill="#31BC87"/>
<path d="M128.793 219.714L121.489 231.422L110.318 249.145L101.617 263.002L77.6639 247.964C75.8379 246.782 75.1934 244.312 76.3749 242.486L83.142 231.637L93.6687 214.773L99.2542 205.75C100.436 203.924 102.906 203.279 104.732 204.461L128.793 219.714Z" fill="#31BC87"/>
<path d="M128.793 219.714L121.489 231.422C121.489 231.422 121.489 231.315 121.382 231.315C119.126 228.414 115.903 226.481 112.251 225.836C110.533 225.514 108.922 224.977 107.31 224.01C105.699 223.044 104.41 221.862 103.336 220.466C101.08 217.566 97.8579 215.632 94.2058 214.988C93.9909 214.988 93.7761 214.88 93.5613 214.88L99.1468 205.857C100.328 204.031 102.799 203.387 104.625 204.568L128.793 219.714Z" fill="#3DD396"/>
<path d="M110.318 249.145L101.617 263.002L77.6639 247.964C75.8379 246.782 75.1934 244.312 76.3749 242.486L83.142 231.637C83.5717 232.066 84.0014 232.496 84.3236 232.926C86.5793 235.826 89.8017 237.759 93.3464 238.404C95.065 238.726 96.6763 239.263 98.2875 240.23C99.7913 241.197 101.188 242.378 102.262 243.775C104.303 246.567 107.203 248.393 110.318 249.145Z" fill="#21A56F"/>
<path d="M80.8865 156.232C80.8865 158.165 79.2753 159.776 77.3418 159.776C75.4083 159.776 73.7971 158.165 73.7971 156.232C73.7971 154.298 75.4083 152.687 77.3418 152.687C79.2753 152.58 80.8865 154.191 80.8865 156.232Z" fill="#4030BF"/>
<path d="M89.3722 149.68C88.9426 148.928 88.5129 148.176 87.9758 147.531C87.1165 146.457 86.0424 145.49 84.8608 144.738C84.1089 144.309 83.357 143.879 82.6051 143.557C80.9939 142.912 79.1679 142.483 77.3418 142.483C74.9787 142.483 72.723 143.127 70.7895 144.201C66.6004 146.565 63.7002 150.969 63.5928 156.124V156.339C63.5928 163.966 69.7154 170.088 77.3418 170.088C79.7049 170.088 81.9606 169.444 83.8941 168.37C88.0833 166.007 90.9835 161.603 91.0909 156.447V156.339C90.9835 153.869 90.4464 151.613 89.3722 149.68ZM80.9939 166.329C79.8124 166.758 78.6308 166.973 77.3418 166.973C71.9711 166.973 67.4597 162.999 66.7078 157.736C66.6004 157.199 66.6004 156.769 66.6004 156.232C66.6004 151.613 69.608 147.639 73.6897 146.135C74.8713 145.705 76.0528 145.49 77.3418 145.49C82.7125 145.49 87.2239 149.465 87.9758 154.728C88.0833 155.265 88.0833 155.695 88.0833 156.232C87.9759 160.851 85.0757 164.825 80.9939 166.329Z" fill="#4030BF"/>
<path d="M71.7563 144.631C72.5082 145.061 73.1527 145.598 73.6897 146.135C69.608 147.639 66.6004 151.613 66.6004 156.232C66.6004 156.769 66.6004 157.199 66.7078 157.736C66.0633 157.628 65.3114 157.306 64.6669 156.876C64.2373 156.662 63.915 156.339 63.4854 156.017C63.5928 150.861 66.3855 146.457 70.6821 144.094C71.0044 144.201 71.434 144.416 71.7563 144.631Z" fill="#4A42E1"/>
<path d="M90.9834 156.339C90.9834 161.495 88.0832 165.899 83.7867 168.262C83.357 168.155 82.9273 167.94 82.4977 167.618C81.8532 167.188 81.3161 166.758 80.8865 166.221C84.9682 164.718 87.9758 160.743 87.9758 156.124C87.9758 155.587 87.9758 155.158 87.8684 154.621C88.6203 154.835 89.3722 155.158 90.1241 155.587C90.4464 155.91 90.7686 156.124 90.9834 156.339Z" fill="#4A42E1"/>
<path opacity="0.25" d="M87.9758 156.232C87.9758 160.851 85.0756 164.825 80.8865 166.329C80.7791 166.221 80.6716 166.114 80.5642 166.007C79.4901 164.61 77.8789 163.536 76.0528 163.321C75.1935 163.214 74.3342 162.892 73.5823 162.354C72.8304 161.925 72.1859 161.28 71.6488 160.636C70.5747 159.239 68.9635 158.165 67.1374 157.95C67.03 157.95 66.8152 157.843 66.7078 157.843C66.6003 157.306 66.6003 156.876 66.6003 156.339C66.6003 151.72 69.6079 147.746 73.6897 146.242C73.7971 146.35 73.9045 146.457 74.0119 146.565C75.0861 148.068 76.8047 149.035 78.5234 149.25C79.3827 149.357 80.242 149.68 80.9939 150.109C81.7458 150.539 82.3903 151.183 82.9273 151.828C84.0015 153.224 85.6127 154.298 87.4387 154.513C87.5462 154.513 87.761 154.621 87.8684 154.621C87.9758 155.158 87.9758 155.695 87.9758 156.232Z" fill="#FFFDFF"/>
<path d="M97.321 134.856C95.7098 133.138 93.4541 132.171 90.9835 132.171C86.1499 132.171 82.283 136.038 82.1755 140.872V141.086C82.1755 141.946 82.2829 142.805 82.4978 143.557C83.3571 143.879 84.109 144.309 84.7535 144.738C84.109 143.772 83.7867 142.59 83.6793 141.409C83.6793 141.301 83.6793 141.086 83.6793 140.979C83.6793 137.005 86.9018 133.782 90.8761 133.782C92.4873 133.782 93.8837 134.319 95.0653 135.179V135.071C95.9246 134.964 96.6765 134.964 97.321 134.856Z" fill="#4A42E1"/>
<path d="M83.8942 141.409C83.8942 141.409 83.7868 141.409 83.7868 141.301C83.3571 141.086 82.82 140.872 82.283 140.764V140.979C82.283 141.838 82.3904 142.698 82.6052 143.45C83.4645 143.772 84.2164 144.201 84.8609 144.631C84.3238 143.772 83.8942 142.59 83.8942 141.409Z" fill="#4030BF"/>
<path d="M60.4777 278.255L63.915 279.866C64.2372 280.081 64.452 280.403 64.452 280.833C64.452 280.94 64.452 281.047 64.3446 281.262C64.1298 281.799 63.4853 282.014 62.9482 281.799L59.2961 279.973C59.0813 279.866 58.8665 280.188 58.9739 280.403L61.6593 283.625C61.7667 283.84 61.8741 284.055 61.8741 284.27C61.8741 284.592 61.7667 284.807 61.5518 285.022C61.1222 285.451 60.4777 285.344 60.048 284.914L56.3959 280.188C55.8589 279.544 55.644 278.684 55.644 277.932V267.084C56.5034 267.191 57.2553 267.191 58.1146 266.976V275.032C58.1146 275.569 58.5442 276.106 59.1887 276.106H64.1298C64.6669 276.106 65.0965 276.536 65.0965 277.073C65.0965 277.61 64.6669 278.147 64.0224 278.147L60.3703 278.04C60.3703 277.932 60.2629 278.255 60.4777 278.255Z" fill="#E7AB36"/>
<path d="M58.1146 266.976V270.736H55.644V267.084C56.5034 267.191 57.2553 267.191 58.1146 266.976Z" fill="#D39424"/>
<path d="M100.006 278.255L103.444 279.866C103.766 280.081 103.981 280.403 103.981 280.833C103.981 280.94 103.981 281.047 103.873 281.262C103.658 281.799 103.014 282.014 102.477 281.799L98.8247 279.973C98.6099 279.866 98.395 280.188 98.5025 280.403L101.188 283.625C101.295 283.84 101.403 284.055 101.403 284.27C101.403 284.592 101.295 284.807 101.08 285.022C100.651 285.451 100.006 285.344 99.5766 284.914L95.9245 280.188C95.3874 279.544 95.1726 278.684 95.1726 277.932V266.117C96.0319 266.332 96.7838 266.332 97.6431 266.224V275.032C97.6431 275.569 98.0728 276.106 98.7173 276.106H103.766C104.303 276.106 104.732 276.536 104.732 277.073C104.732 277.61 104.303 278.147 103.658 278.147L100.006 278.04C99.8988 277.932 99.8988 278.255 100.006 278.255Z" fill="#E7AB36"/>
<path d="M97.6431 266.117V270.736H95.1726V266.117C96.0319 266.332 96.8912 266.332 97.6431 266.117Z" fill="#D39424"/>
<path d="M36.6317 233.141C36.4169 233.248 36.202 233.355 35.9872 233.355C35.665 233.355 35.3427 233.248 35.1279 232.926L27.394 223.044C27.7163 222.292 28.0385 221.647 28.5756 221.003L36.8465 231.529C37.2762 232.067 37.1688 232.818 36.6317 233.141Z" fill="#BA3015"/>
<path d="M43.0765 228.844C42.8616 228.951 42.6468 229.059 42.432 229.059C42.1097 229.059 41.7875 228.951 41.5726 228.629L39.2095 225.622L32.9795 217.673C33.7314 217.351 34.4833 217.136 35.2352 217.028L43.2913 227.34C43.6135 227.77 43.5061 228.414 43.0765 228.844Z" fill="#C9431F"/>
<path d="M43.0764 228.844C42.8616 228.951 42.6467 229.059 42.4319 229.059C42.1097 229.059 41.7874 228.951 41.5726 228.629L39.2095 225.622C40.4984 226.374 41.8948 226.911 43.2912 227.34C43.6135 227.77 43.5061 228.414 43.0764 228.844Z" fill="#BA3015"/>
<path d="M47.0509 244.741C47.1583 245.278 46.8361 245.923 46.1916 246.03C46.0842 246.03 46.0842 246.03 45.9768 246.03C45.4397 246.03 45.01 245.708 44.9026 245.171C43.0766 236.148 46.299 224.762 46.7287 223.366L48.3399 225.622C47.4806 229.274 45.6545 237.867 47.0509 244.741Z" fill="#C9431F"/>
<path d="M47.0508 244.741C47.1582 245.278 46.836 245.923 46.1915 246.03C46.0841 246.03 46.0841 246.03 45.9767 246.03C45.4396 246.03 45.0099 245.708 44.9025 245.171C43.721 239.263 44.6877 232.389 45.6544 227.877C45.7618 227.877 45.8693 227.877 45.8693 227.985C46.5137 228.092 47.1582 228.2 47.6953 228.414C46.9434 232.604 45.9767 239.263 47.0508 244.741Z" fill="#BA3015"/>
<path d="M123.208 236.256C123.422 236.256 123.53 236.041 123.315 235.933C122.348 235.181 121.381 234.322 121.167 233.141C121.059 232.603 121.059 232.066 121.381 231.529C121.596 230.992 122.133 230.67 122.563 230.455C123.208 230.24 123.959 230.133 124.604 230.24C127.934 230.777 129.867 234 128.686 237.115C128.149 238.511 127.289 239.585 126.323 240.767C125.034 242.163 123.959 243.775 122.563 245.064C120.844 246.567 118.589 247.427 116.226 246.89C114.722 246.567 113.003 245.278 114.185 243.667C115.259 242.271 117.192 241.949 118.804 241.734C118.911 241.734 119.018 241.519 118.804 241.411C117.407 240.767 116.226 240.123 116.44 238.296C116.655 236.9 117.407 236.041 118.804 235.933C120.307 235.933 121.811 236.041 123.208 236.256Z" fill="#DE5728"/>
<path d="M93.6687 214.988L92.702 216.599C90.0167 213.484 87.0091 210.798 83.7866 208.328L93.6687 214.988Z" fill="#C9431F"/>
<path d="M78.738 238.834L76.3749 242.593L61.0146 221.003C65.5261 226.051 70.4671 230.563 75.0859 235.396C76.3749 236.578 77.5565 237.759 78.738 238.834Z" fill="#C9431F"/>
<path d="M61.0146 221.003C65.5261 226.051 70.4671 230.563 75.0859 235.396C76.8046 237.222 78.6306 238.834 80.5641 240.337C82.3901 241.734 84.3236 243.238 86.6867 243.56C87.4386 243.667 88.2979 243.56 88.835 242.915C89.9091 241.734 88.9424 240.23 87.9757 239.263C86.0422 237.33 86.0422 237.33 81.8531 233.785C90.3388 239.585 93.4538 242.7 96.1392 240.445C98.6097 238.404 94.0983 234.107 91.3055 231.637C91.1981 231.529 91.3055 231.529 91.4129 231.529C93.4538 232.926 95.6021 234.215 98.0726 234.537C105.592 235.504 98.3949 224.547 96.9985 222.507C93.4538 217.028 88.835 212.195 83.5717 208.328L61.0146 221.003Z" fill="#DE5728"/>
<path d="M132.016 168.692C132.123 169.444 131.586 170.088 130.834 170.303L105.055 175.889L97.4283 144.201L95.1726 135.071C119.878 132.278 128.149 150.861 130.834 162.032C131.586 164.932 131.908 167.295 132.016 168.692Z" fill="#E7AB36"/>
<path d="M130.834 162.032C130.082 161.817 129.33 161.603 128.579 161.495C126.108 161.065 123.637 160.206 121.382 158.81C119.126 157.413 117.193 155.695 115.581 153.654C112.252 149.465 107.525 146.565 102.262 145.598C100.651 145.276 99.0395 144.846 97.4283 144.094L95.1726 134.964C119.878 132.278 128.149 150.861 130.834 162.032Z" fill="#FFB93E"/>
<path d="M112.681 160.528C112.466 160.528 112.144 160.421 112.037 160.206L109.136 156.876C108.707 156.447 108.814 155.802 109.244 155.373C109.673 154.943 110.318 155.05 110.748 155.48L113.648 158.81C114.077 159.239 113.97 159.884 113.54 160.314C113.218 160.421 112.896 160.528 112.681 160.528Z" fill="#D39424"/>
<path d="M137.064 191.679C137.709 194.579 139.32 197.479 141.039 199.09C141.79 199.735 142.435 200.057 143.187 200.164C143.724 200.164 144.154 200.057 144.583 199.949C146.517 199.198 148.665 199.198 150.598 199.949C151.78 200.487 153.069 200.272 154.251 199.198C156.506 197.049 158.332 193.075 158.547 189.315C158.762 186.308 157.795 183.408 155.11 181.904C154.573 181.582 153.713 181.367 152.747 181.259C151.673 181.152 150.384 181.259 149.202 181.474C148.128 181.689 147.054 181.689 146.087 181.474C143.939 180.937 141.361 181.152 140.179 181.796C136.742 183.73 136.097 187.812 137.064 191.679Z" fill="#DE5728"/>
<path d="M137.064 191.679C137.601 191.571 138.138 191.356 138.568 191.142C139.105 190.819 139.535 190.39 139.857 189.96C140.609 188.993 141.683 188.349 142.865 188.134C143.402 188.027 144.046 187.812 144.476 187.489C145.013 187.167 145.443 186.738 145.765 186.308C146.517 185.341 147.591 184.697 148.772 184.482C149.31 184.374 149.954 184.16 150.384 183.837C151.458 183.193 152.21 182.226 152.532 181.152C151.458 181.045 150.169 181.152 148.987 181.367C147.913 181.582 146.839 181.582 145.872 181.367C143.724 180.83 141.146 181.045 139.964 181.689C136.742 183.73 136.098 187.812 137.064 191.679Z" fill="#F26F51"/>
<path d="M143.187 200.164C143.724 200.164 144.154 200.057 144.583 199.95C146.517 199.198 148.665 199.198 150.599 199.95C151.78 200.487 153.069 200.272 154.251 199.198C156.506 197.049 158.332 193.075 158.547 189.315C158.225 189.423 157.903 189.53 157.581 189.745C156.936 190.067 156.506 190.497 156.077 191.034C155.325 192.001 154.251 192.645 153.069 192.86C152.532 192.968 151.888 193.182 151.458 193.505C150.921 193.827 150.491 194.257 150.169 194.686C149.417 195.653 148.343 196.297 147.161 196.512C146.517 196.62 145.872 196.835 145.335 197.264C144.154 197.801 143.402 198.875 143.187 200.164Z" fill="#C9431F"/>
<path d="M147.698 181.582C148.235 181.582 148.772 181.474 149.202 181.367C151.135 180.937 153.391 181.045 154.68 181.474C155.11 181.152 155.539 180.83 155.862 180.507C156.506 179.863 157.043 179.111 157.366 178.252C157.688 177.5 157.903 176.641 158.01 175.781C158.117 174.6 158.117 173.526 157.903 172.344C157.903 172.237 157.795 172.129 157.58 172.129C155.754 172.237 153.821 172.559 152.21 173.526C151.78 173.848 151.243 174.17 150.813 174.6C149.202 175.996 148.02 177.93 147.591 179.863C147.591 180.078 147.591 180.185 147.483 180.4C147.806 180.507 147.698 181.045 147.698 181.582Z" fill="#31BC87"/>
<path d="M147.698 181.582C148.235 181.582 148.772 181.474 149.202 181.367C151.135 180.937 153.391 181.045 154.68 181.474C155.11 181.152 155.539 180.83 155.862 180.507C155.647 180.293 155.325 180.185 155.11 179.97C154.573 179.648 153.713 179.433 152.747 179.326C151.673 179.218 150.384 179.326 149.202 179.541C148.772 179.648 148.235 179.756 147.806 179.756C147.806 179.97 147.806 180.078 147.698 180.293C147.806 180.507 147.698 181.045 147.698 181.582Z" fill="#21A56F"/>
<path d="M151.028 174.6C152.21 174.385 153.391 174.277 154.465 174.385C155.432 174.492 156.291 174.707 156.828 175.029C157.258 175.244 157.688 175.566 158.117 175.889C158.225 174.707 158.225 173.633 158.01 172.451C158.01 172.344 157.903 172.237 157.688 172.237C155.862 172.344 153.928 172.666 152.317 173.633C151.887 173.848 151.458 174.17 151.028 174.6Z" fill="#3DD396"/>
<path d="M146.731 175.137C146.731 175.244 146.731 175.459 146.731 175.566C146.839 176.963 147.054 178.467 147.161 179.863C147.161 180.4 147.161 180.937 147.161 181.582C147.483 181.582 147.806 181.582 148.128 181.582C148.343 181.044 148.45 180.507 148.45 179.863C148.665 178.359 148.45 176.748 148.235 175.244C148.235 175.137 148.235 175.029 148.235 175.029C148.128 174.6 147.698 174.277 147.269 174.385C146.946 174.492 146.731 174.814 146.731 175.137Z" fill="#4030BF"/>
<path d="M147.161 181.582C147.483 181.582 147.806 181.582 148.128 181.582C148.343 181.045 148.45 180.507 148.45 179.863C148.02 179.97 147.591 179.97 147.161 179.863C147.161 180.507 147.161 181.045 147.161 181.582Z" fill="#2923AC"/>
<path d="M146.731 175.137C146.731 175.244 146.731 175.459 146.731 175.566C147.161 175.459 147.483 175.352 147.913 175.244C148.02 175.244 148.128 175.137 148.343 175.137C148.343 175.029 148.343 174.922 148.343 174.922C148.235 174.492 147.806 174.17 147.376 174.277C146.946 174.492 146.731 174.814 146.731 175.137Z" fill="#4A42E1"/>
</g>
<path d="M108.2 54.1C101.267 54.1 96.8225 49.3 96.8225 43.1667C96.8225 37.0778 101.223 32.1889 108.2 32.1889C115.134 32.1889 119.534 37.0778 119.534 43.1667C119.534 49.4778 114.823 54.1 108.2 54.1ZM102.6 43.1667C102.6 46.5445 104.956 48.7667 108.2 48.7667C111.4 48.7667 113.756 46.5445 113.756 43.1667C113.756 39.8333 111.4 37.5222 108.2 37.5222C104.956 37.5222 102.6 39.8333 102.6 43.1667ZM102.689 60.6778C102.689 59.0333 103.711 58.0111 105.445 58.0111H125.178C127.311 58.0111 128.823 59.5667 128.823 61.7445V71.0778C128.823 72.8556 127.667 73.9222 125.756 73.9222C123.978 73.9222 122.823 72.8556 122.823 71.0778V64.1C122.823 63.6111 122.511 63.3445 122.111 63.3445H105.445C103.711 63.3445 102.689 62.3222 102.689 60.6778ZM122.823 53.3445V34.0111C122.823 32.3667 123.978 31.3445 125.711 31.3445H125.934C127.667 31.3445 128.823 32.3667 128.823 34.0111V40.0111H132.245C133.978 40.0111 135 41.0333 135 42.6778C135 44.3222 133.978 45.3445 132.245 45.3445H128.823V53.3445C128.823 54.9889 127.667 56.0111 125.934 56.0111H125.711C123.978 56.0111 122.823 54.9889 122.823 53.3445Z" fill="white"/>
<path d="M73.2364 49.1667C65.9031 49.1667 61.0586 45.5222 61.0586 40.2333C61.0586 35.1667 65.6364 31.3445 73.2364 31.3445C80.8364 31.3445 85.4142 35.1667 85.4142 40.2333C85.4142 45.5222 80.5697 49.1667 73.2364 49.1667ZM53.9031 53.7889C53.9031 52.1889 54.9697 51.1667 56.792 51.1667H89.6809C91.5031 51.1667 92.5697 52.1889 92.5697 53.7889C92.5697 55.3889 91.4586 56.5 89.6809 56.5H56.792C55.0142 56.5 53.9031 55.3889 53.9031 53.7889ZM60.3475 67.5667V62.4556C60.3475 60.1445 61.592 58.9 63.9031 58.9H82.5697C84.8809 58.9 86.1253 60.1445 86.1253 62.4556V67.5667C86.1253 71.8333 84.1697 73.9222 80.0809 73.9222H66.8364C62.6142 73.9222 60.3475 71.7 60.3475 67.5667ZM66.1253 66.8556C66.1253 68.0556 66.6586 68.5889 67.8586 68.5889H78.6142C79.8142 68.5889 80.3475 68.0556 80.3475 66.8556V64.9C80.3475 64.5445 80.0364 64.2333 79.6809 64.2333H66.792C66.4364 64.2333 66.1253 64.5445 66.1253 64.9V66.8556ZM66.8364 40.2333C66.8364 42.3667 69.192 43.8333 73.2364 43.8333C77.2809 43.8333 79.6364 42.3667 79.6364 40.2333C79.6364 38.1 77.2809 36.6778 73.2364 36.6778C69.192 36.6778 66.8364 38.1 66.8364 40.2333Z" fill="white"/>
</g>
<rect x="0.5" y="0.5" width="199" height="299" rx="3.5" stroke="#DDDDDD"/>
<defs>
<clipPath id="clip0_252_9663">
<rect width="200" height="300" rx="4" fill="white"/>
</clipPath>
<clipPath id="clip1_252_9663">
<rect width="200" height="355.635" fill="white" transform="translate(0 -26.6667)"/>
</clipPath>
</defs>
</svg>
