<svg width="1920" height="1485" viewBox="0 0 1920 1485" fill="none" xmlns="http://www.w3.org/2000/svg">
<path d="M0 0H1920V650H0V0Z" fill="#D1F1FB"/>
<path d="M1920 0H0V650H1920V0Z" fill="url(#paint0_linear_1648_202)" fill-opacity="0.5"/>
<path opacity="0.15" d="M-110.746 82.5199C-121.635 -34.9078 235.861 -11.2946 207.733 150.807C248.564 117.621 289.685 123.569 314.801 144.425C334.472 160.762 341.44 183.559 370.149 182.716C407.858 181.619 423.791 159.563 469.957 166.71C513.256 173.399 531.911 195.94 536.012 225.22C563.632 194.178 625.114 187.184 676.942 220.957C712.437 244.085 723.943 295.651 785.715 286.819C833.514 279.977 840.555 234.487 887.338 221.033C933.577 207.734 1001.3 215.468 1028.16 245.719C1021.63 142.536 1242.11 112.541 1290.75 227.722C1305.63 209.546 1348.56 196.169 1384.57 206.942C1422.82 218.404 1427.07 247.429 1482.56 245.923C1529.74 244.647 1523.9 214.754 1533.3 184.656C1543.21 152.849 1586 135.516 1627.3 140.825C1611.44 97.8621 1645.63 54.9244 1706.71 46.8066C1754.8 40.4246 1799.26 53.8267 1817.3 86.7575C1839.18 43.6156 1928.87 52.1418 1957.14 76.8017C1998.33 112.745 1944.36 166.685 1961.68 199.973L1921.75 662.025L-27.2339 646.709L-110.746 82.5199Z" fill="white"/>
<path d="M1920 650H0V1485H1920V650Z" fill="#C3F1D3"/>
<path d="M1920 650H0V1485H1920V650Z" fill="white" fill-opacity="0.1"/>
<path d="M306.859 1224.34L298.596 1237.11L290.37 1224.34L282.144 1237.11L273.918 1224.34L264.069 1239.62H316.708L306.859 1224.34Z" fill="#6DB573"/>
<path d="M585.471 1212.05L577.246 1224.82L569.02 1212.05L560.794 1224.82L552.568 1212.05L542.719 1227.33H595.32L585.471 1212.05Z" fill="#6DB573"/>
<path d="M669.944 1365.06L661.718 1377.83L653.492 1365.06L645.266 1377.83L637.004 1365.06L627.191 1380.34H679.793L669.944 1365.06Z" fill="#6DB573"/>
<path d="M758.473 1055.05L750.248 1067.82L742.022 1055.05L733.796 1067.82L725.533 1055.05L715.721 1070.33H768.322L758.473 1055.05Z" fill="#6DB573"/>
<path d="M1165.82 1374.43L1157.6 1387.2L1149.37 1374.43L1141.15 1387.2L1132.92 1374.43L1123.07 1389.71H1175.67L1165.82 1374.43Z" fill="#6DB573"/>
<path d="M1672.44 1172.67L1664.21 1185.44L1655.99 1172.67L1647.76 1185.44L1639.5 1172.67L1629.65 1187.95H1682.29L1672.44 1172.67Z" fill="#6DB573"/>
<path d="M1309.69 1001.69L1301.46 1014.46L1293.23 1001.69L1285.01 1014.46L1276.78 1001.69L1266.93 1016.97H1319.53L1309.69 1001.69Z" fill="#6DB573"/>
<path d="M1074.08 1160.38L1065.86 1173.15L1057.63 1160.38L1049.41 1173.15L1041.18 1160.38L1031.33 1175.66H1083.93L1074.08 1160.38Z" fill="#6DB573"/>
<path d="M1843.38 1394.1L1835.16 1406.87L1826.93 1394.1L1818.71 1406.87L1810.48 1394.1L1800.63 1409.38H1853.23L1843.38 1394.1Z" fill="#A1DBB5"/>
<path d="M58.0242 993.05L49.7983 1005.82L41.5723 993.05L33.3464 1005.82L25.1205 993.05L15.2715 1008.33H67.8732L58.0242 993.05Z" fill="#A1DBB5"/>
<path d="M1880.27 983.233L1872.05 996.003L1863.82 983.233L1855.59 996.003L1847.37 983.233L1837.52 998.512H1890.12L1880.27 983.233Z" fill="#A1DBB5"/>
<path d="M181.007 729.804L172.745 742.573L164.519 729.804L156.293 742.573L148.067 729.804L138.218 745.083H190.819L181.007 729.804Z" fill="#A1DBB5"/>
<path d="M1586.79 1360.11L1578.57 1372.92L1570.34 1360.11L1562.08 1372.92L1553.85 1360.11L1544 1375.43H1596.64L1586.79 1360.11Z" fill="#A1DBB5"/>
<path d="M1663.89 737.185L1655.66 749.954L1647.4 737.185L1639.17 749.954L1630.95 737.185L1621.1 752.464H1673.7L1663.89 737.185Z" fill="#A1DBB5"/>
<path d="M114.61 1401.48L106.384 1414.25L98.1212 1401.48L89.8952 1414.25L81.6693 1401.48L71.8203 1416.76H124.459L114.61 1401.48Z" fill="#A1DBB5"/>
<path d="M408.936 1349.82L400.71 1362.58L392.484 1349.82L384.259 1362.58L376.033 1349.82L366.184 1365.09H418.785L408.936 1349.82Z" fill="#A1DBB5"/>
<g opacity="0.4">
<path d="M1778.68 578.799L1961.35 650H1481L1682.77 568.657L1704.97 559.687C1710.31 557.518 1719.63 557.43 1725.3 559.482L1778.68 578.799Z" fill="#83C073"/>
<path d="M1743.93 566.738C1740.44 568.587 1735.1 570.671 1728.29 570.965C1715.58 571.552 1712.42 569.204 1712.42 569.204C1712.42 569.204 1703.75 573.518 1694.6 572.139C1690.55 571.552 1686.33 570.319 1682.85 569.174L1704.96 560.193C1710.31 558.022 1719.63 557.934 1725.3 559.988L1743.93 566.738Z" fill="#83C073"/>
<path d="M366.458 650.285L-59 651L-39.8255 641.415L103.152 575.794L130.741 563.084C136.893 560.243 147.611 560.128 154.136 562.816L179.022 573.068L366.458 650.285Z" fill="#74A667"/>
<path opacity="0.5" d="M179.115 572.232C164.109 576.149 155.907 572.386 155.907 572.386C155.907 572.386 151.153 577.109 138.943 576.801C127.199 576.494 123.098 573.691 123.098 573.691C116.574 575.458 109.024 575.381 103.152 574.92L130.741 562.21C136.893 559.369 147.611 559.254 154.136 561.942L179.115 572.232Z" fill="#74A667"/>
<path d="M771 649.556L519 650L530.357 644.045L615.043 603.271L631.384 595.373C635.028 593.608 641.376 593.536 645.241 595.206L659.981 601.577L771 649.556Z" fill="#5B9661"/>
<path d="M1573 650.152L1118 651L1138.51 639.621L1291.41 561.713L1320.92 546.624C1327.49 543.251 1338.96 543.114 1345.93 546.305L1372.55 558.477L1573 650.152Z" fill="#74A667"/>
<path opacity="0.5" d="M1372.65 558.582C1356.6 563.251 1347.83 558.765 1347.83 558.765C1347.83 558.765 1342.75 564.395 1329.69 564.029C1317.13 563.663 1312.74 560.321 1312.74 560.321C1305.77 562.427 1297.69 562.335 1291.41 561.786L1320.92 546.635C1327.5 543.248 1338.96 543.11 1345.94 546.315L1372.65 558.582Z" fill="#74A667"/>
<path d="M463.251 599.695L581 650H271.377L401.434 592.529L415.74 586.192C419.186 584.66 425.19 584.598 428.845 586.047L463.251 599.695Z" fill="#83C073"/>
<path d="M440.852 590.811C438.607 592.115 435.161 593.586 430.776 593.793C422.578 594.207 420.542 592.55 420.542 592.55C420.542 592.55 414.956 595.595 409.056 594.621C406.445 594.207 403.73 593.337 401.485 592.529L415.739 586.192C419.185 584.66 425.189 584.598 428.844 586.047L440.852 590.811Z" fill="#83C073"/>
</g>
<g clip-path="url(#clip0_1648_202)">
<path d="M1455.45 616.38L1443 635.38L1464.25 656.38L1486 635.38L1473.97 616.38H1455.45Z" fill="#FFFFE1"/>
<path d="M1486 689.25C1486 689.25 1482 693.42 1464 693.42C1446 693.42 1443 689.25 1443 689.25V635.25L1454.83 640.5L1464.66 635.25L1474.66 640.5L1485.99 635.25V689.25H1486Z" fill="#FFD900"/>
<path d="M1464.88 602L1455.46 616.38C1455.46 616.38 1457.96 617.8 1464.84 617.8C1471.72 617.8 1473.98 616.38 1473.98 616.38L1464.88 602Z" fill="black"/>
<path d="M1455.17 640.5V693.25" stroke="#FFB000" stroke-miterlimit="10"/>
<path d="M1474.75 640.5V693.25" stroke="#FFB000" stroke-miterlimit="10"/>
</g>
<g clip-path="url(#clip1_1648_202)">
<path d="M594.16 711.45L575.16 699L554.16 720.25L575.16 742L594.16 729.97V711.45Z" fill="#FFFFE1"/>
<path d="M521.29 742C521.29 742 512 738.37 512 720.37C512 704.37 521.29 699 521.29 699H575.29L570.04 710.83L575.29 720.66L570.04 730.66L575.29 741.99H521.29V742Z" fill="#FE535B"/>
<path d="M608.54 720.88L594.16 711.46C594.16 711.46 592.74 713.96 592.74 720.84C592.74 727.72 594.16 729.98 594.16 729.98L608.54 720.88Z" fill="black"/>
<path d="M570.04 711.17H513.23" stroke="#D63A46" stroke-miterlimit="10"/>
<path d="M570.04 730.75H513.23" stroke="#D63A46" stroke-miterlimit="10"/>
<path d="M535.02 725.25H526.65V720.63C526.65 720.63 527.21 717.07 530.9 717.13C534.65 717.19 535.02 720.63 535.02 720.63V725.25Z" fill="white"/>
<path d="M530.83 717.12V724.94" stroke="#88BDE2" stroke-width="0.75" stroke-miterlimit="10"/>
<path d="M535.141 721.59H526.521" stroke="#88BDE2" stroke-width="0.75" stroke-miterlimit="10"/>
<path d="M536.05 724.87H525.61V726.93H536.05V724.87Z" fill="#B12621"/>
<path d="M557.27 725.25H548.9V720.63C548.9 720.63 549.46 717.07 553.15 717.13C556.9 717.19 557.27 720.63 557.27 720.63V725.25Z" fill="white"/>
<path d="M553.08 717.12V724.94" stroke="#88BDE2" stroke-width="0.75" stroke-miterlimit="10"/>
<path d="M557.391 721.59H548.771" stroke="#88BDE2" stroke-width="0.75" stroke-miterlimit="10"/>
<path d="M558.3 724.87H547.86V726.93H558.3V724.87Z" fill="#B12621"/>
</g>
<g clip-path="url(#clip2_1648_202)">
<path d="M1295.55 707.558L1358.77 684.005L1328.06 728.595L1263.75 758.853L1264.06 756.881L1295.55 707.558Z" fill="#4A5F95"/>
<path d="M1358.22 685.293L1295.58 708.408L1269.83 756.793L1328.72 762.149L1358.22 685.293Z" fill="white"/>
<path d="M1300.44 708.478L1365.6 680.245L1392 734.134L1327.69 764.401L1300.44 708.478Z" fill="#3C9CC6"/>
<path d="M1365.65 680.28L1358.88 679L1293.73 707.356L1300.51 708.627L1365.65 680.28Z" fill="#4AC0F1"/>
<path d="M1296.86 709.837L1297.15 759.212" stroke="#E2E2E2" stroke-width="0.75" stroke-linecap="round" stroke-linejoin="round"/>
<path d="M1296.57 709.469L1292.77 758.853" stroke="#E2E2E2" stroke-width="0.75" stroke-linecap="round" stroke-linejoin="round"/>
<path d="M1296.4 709.398L1288.24 758.485" stroke="#E2E2E2" stroke-width="0.75" stroke-linecap="round" stroke-linejoin="round"/>
<path d="M1274.22 757.31L1295.41 709.232" stroke="#E2E2E2" stroke-width="0.75" stroke-linecap="round" stroke-linejoin="round"/>
<path d="M1278.67 757.898L1295.83 709.618" stroke="#E2E2E2" stroke-width="0.75" stroke-linecap="round" stroke-linejoin="round"/>
<path d="M1283.42 758.336L1295.97 709.784" stroke="#E2E2E2" stroke-width="0.75" stroke-linecap="round" stroke-linejoin="round"/>
<path d="M1320.53 761.404L1298.54 710.126" stroke="#E2E2E2" stroke-width="0.75" stroke-linecap="round" stroke-linejoin="round"/>
<path d="M1315.78 760.825L1297.89 709.986" stroke="#E2E2E2" stroke-width="0.75" stroke-linecap="round" stroke-linejoin="round"/>
<path d="M1311.47 760.527L1297.37 709.767" stroke="#E2E2E2" stroke-width="0.75" stroke-linecap="round" stroke-linejoin="round"/>
<path d="M1301.75 759.58L1297.01 710.126" stroke="#E2E2E2" stroke-width="0.75" stroke-linecap="round" stroke-linejoin="round"/>
<path d="M1306.57 760.089L1297.23 710.205" stroke="#E2E2E2" stroke-width="0.75" stroke-linecap="round" stroke-linejoin="round"/>
<path d="M1262 758.599L1263.74 758.888L1294.85 709.758L1299.09 710.591L1325.64 764.182L1327.69 764.402L1300.59 708.592L1293.77 707.277L1262 758.599Z" fill="#7FE3EF"/>
<path d="M1298.46 759.8L1292.48 759.361V749.938L1298.46 750.377V759.8Z" fill="#344C54"/>
<path d="M1330.76 719.917L1324.49 722.74L1321.5 716.525L1327.77 713.711L1330.76 719.917Z" fill="white"/>
<path d="M1347.64 712.659L1341.37 715.473L1338.38 709.267L1344.65 706.445L1347.64 712.659Z" fill="white"/>
<path d="M1322.9 719.557L1329.28 716.796" stroke="#88BDE2" stroke-width="0.75" stroke-miterlimit="10"/>
<path d="M1324.54 715.087L1327.37 720.934" stroke="#88BDE2" stroke-width="0.75" stroke-miterlimit="10"/>
<path d="M1339.79 712.308L1346.16 709.547" stroke="#88BDE2" stroke-width="0.75" stroke-miterlimit="10"/>
<path d="M1341.42 707.838L1344.26 713.685" stroke="#88BDE2" stroke-width="0.75" stroke-miterlimit="10"/>
<path d="M1364.52 705.401L1358.25 708.215L1355.26 702.009L1361.53 699.187L1364.52 705.401Z" fill="white"/>
<path d="M1331.88 720.864L1324.55 724.168L1323.7 722.433L1331.03 719.137L1331.88 720.864Z" fill="#7FE3EF"/>
<path d="M1356.71 705.06L1363.09 702.299" stroke="#88BDE2" stroke-width="0.75" stroke-miterlimit="10"/>
<path d="M1358.35 700.581L1361.18 706.436" stroke="#88BDE2" stroke-width="0.75" stroke-miterlimit="10"/>
<path d="M1348.71 713.632L1341.37 716.937L1340.52 715.21L1347.85 711.906L1348.71 713.632Z" fill="#7FE3EF"/>
<path d="M1365.63 706.357L1358.31 709.661L1357.46 707.935L1364.78 704.63L1365.63 706.357Z" fill="#7FE3EF"/>
<path d="M1338.98 737.956L1332.71 740.779L1329.71 734.564L1335.99 731.75L1338.98 737.956Z" fill="white"/>
<path d="M1355.86 730.699L1349.59 733.521L1346.6 727.306L1352.87 724.493L1355.86 730.699Z" fill="white"/>
<path d="M1331.12 737.597L1337.5 734.844" stroke="#88BDE2" stroke-width="0.75" stroke-miterlimit="10"/>
<path d="M1332.75 733.126L1335.59 738.982" stroke="#88BDE2" stroke-width="0.75" stroke-miterlimit="10"/>
<path d="M1348 730.348L1354.38 727.587" stroke="#88BDE2" stroke-width="0.75" stroke-miterlimit="10"/>
<path d="M1349.64 725.878L1352.47 731.724" stroke="#88BDE2" stroke-width="0.75" stroke-miterlimit="10"/>
<path d="M1372.74 723.441L1366.48 726.254L1363.49 720.049L1369.75 717.235L1372.74 723.441Z" fill="white"/>
<path d="M1340.1 738.903L1332.76 742.208L1331.91 740.481L1339.24 737.176L1340.1 738.903Z" fill="#7FE3EF"/>
<path d="M1364.93 723.099L1371.31 720.338" stroke="#88BDE2" stroke-width="0.75" stroke-miterlimit="10"/>
<path d="M1366.56 718.629L1369.4 724.475" stroke="#88BDE2" stroke-width="0.75" stroke-miterlimit="10"/>
<path d="M1356.92 731.68L1349.59 734.985L1348.74 733.249L1356.07 729.954L1356.92 731.68Z" fill="#7FE3EF"/>
<path d="M1373.86 724.405L1366.52 727.701L1365.67 725.974L1373 722.669L1373.86 724.405Z" fill="#7FE3EF"/>
</g>
<g clip-path="url(#clip3_1648_202)">
<path d="M1354.38 503.12C1354.38 503.12 1364.62 495.38 1369.88 481C1369.88 481 1375.63 493.75 1365.63 502.75L1354.38 503.13V503.12Z" fill="#93A6B0"/>
<path d="M1350.22 498.46C1352.07 497.78 1353.58 498.54 1355.29 499.57C1357.04 500.62 1358.93 500.5 1360.92 500.09C1364.54 499.34 1381.92 489.59 1381.92 489.59C1381.92 489.59 1380.8 495.71 1379.42 498.34C1378.49 500.12 1376.52 503.04 1372.54 504.75C1373.46 505.09 1374.67 505.59 1376.04 505.89C1376.04 505.89 1380.54 506.64 1385.08 505.1L1383.91 512.1C1383.91 512.1 1378.87 508.22 1373.41 508.6C1369.91 508.84 1364.48 509.27 1360.24 507.81C1358.34 507.16 1356.54 506.05 1354.28 505.14C1352.72 504.52 1350.95 504.43 1349.82 503.47C1348.07 501.98 1348.35 500.25 1349.15 499.23C1349.43 498.87 1349.8 498.62 1350.21 498.47L1350.22 498.46Z" fill="white"/>
<path d="M1349.04 499.52L1345 499.12L1348.73 502.05C1348.73 502.05 1349.93 502.28 1350.38 501.5C1350.67 500.99 1350.45 500.45 1350.2 500.15C1349.77 499.63 1349.04 499.53 1349.04 499.53V499.52Z" fill="#FFED72"/>
<path d="M1351.41 500.1C1351.33 500.35 1351.41 500.59 1351.59 500.65C1351.77 500.71 1351.97 500.55 1352.05 500.3C1352.13 500.05 1352.05 499.81 1351.87 499.75C1351.7 499.7 1351.49 499.85 1351.41 500.1Z" fill="#2F4345"/>
<path d="M1349.56 499.2C1349.48 499.45 1349.56 499.69 1349.74 499.75C1349.92 499.81 1350.12 499.65 1350.2 499.4C1350.28 499.15 1350.2 498.91 1350.02 498.85C1349.84 498.79 1349.64 498.95 1349.56 499.2Z" fill="#2F4345"/>
</g>
<g clip-path="url(#clip4_1648_202)">
<path d="M1296 587.34L1293.25 578.645C1288.94 582.447 1283.84 582.929 1283.84 582.929C1282.14 583.156 1278.82 582.801 1277.33 582.376C1274.44 581.553 1272.13 581.227 1270.3 581.142C1272.17 577.837 1273.29 573.653 1273.23 569C1273.12 558.489 1265.79 550.986 1265.79 550.986C1265.32 554.972 1262.74 570.787 1259.99 579.057C1259.39 580.844 1258.87 582.135 1258.45 583.043C1258.35 583.028 1258.27 583.014 1258.16 583C1255.66 582.433 1253.5 582.106 1251.5 583.709C1251.06 584.064 1250.71 584.518 1250.51 585.071C1249.96 586.645 1250.31 588.872 1253.05 589.979C1254.64 590.631 1256.6 590.192 1258.54 590.192C1259.42 590.702 1260.74 591.567 1262.55 592.972C1269.46 598.319 1280.34 609.979 1282.94 613C1282.94 613 1285.13 602.943 1279.46 594.234C1278.34 592.518 1277.06 590.986 1275.7 589.681C1277.8 588.972 1279.76 588.106 1281.7 587.312C1288.23 584.631 1295.97 587.34 1295.97 587.34H1296Z" fill="white"/>
<path d="M1250.34 586.376L1246 589.326L1251.76 589.383C1251.76 589.383 1252.44 589.27 1252.54 588.121C1252.61 587.369 1252.06 586.844 1251.6 586.631C1250.82 586.248 1250.34 586.39 1250.34 586.39V586.376Z" fill="#FFED72"/>
<path d="M1251.82 585.411C1251.57 585.638 1251.5 585.965 1251.66 586.135C1251.82 586.305 1252.16 586.262 1252.4 586.035C1252.64 585.808 1252.71 585.482 1252.55 585.312C1252.4 585.142 1252.07 585.184 1251.82 585.411Z" fill="#2F4345"/>
<path d="M1253.6 587.355C1253.36 587.582 1253.29 587.908 1253.45 588.078C1253.6 588.248 1253.94 588.206 1254.18 587.993C1254.43 587.766 1254.5 587.44 1254.34 587.27C1254.18 587.099 1253.86 587.142 1253.6 587.355Z" fill="#2F4345"/>
</g>
<g clip-path="url(#clip5_1648_202)">
<path d="M655.763 545.724C655.763 545.724 661.454 536.718 661.454 525C661.454 525 657.678 529.436 653.377 534.052C649.075 538.667 641.189 546.609 642.869 550.015C644.549 553.42 651.315 549.78 652.481 549.085C653.646 548.391 655.752 545.724 655.752 545.724H655.763Z" fill="#93A6B0"/>
<path d="M657.052 544.929C654.979 544.167 653.288 545.019 651.372 546.172C649.412 547.349 647.294 547.214 645.065 546.755C641.01 545.915 621.54 534.992 621.54 534.992C621.54 534.992 622.795 541.848 624.341 544.795C625.382 546.789 627.589 550.06 632.048 551.975C631.017 552.356 629.662 552.916 628.127 553.252C628.127 553.252 623.086 554.093 618 552.367L619.311 560.209C619.311 560.209 624.957 555.862 631.073 556.288C634.994 556.557 641.077 557.039 645.827 555.403C647.955 554.675 649.972 553.432 652.503 552.412C654.251 551.718 656.234 551.617 657.5 550.541C659.46 548.872 659.146 546.934 658.25 545.792C657.937 545.388 657.522 545.108 657.063 544.94L657.052 544.929Z" fill="white"/>
<path d="M658.373 546.116L662.989 546.889L658.721 548.951C658.721 548.951 657.376 549.208 656.872 548.335C656.547 547.763 656.794 547.158 657.074 546.822C657.555 546.24 658.373 546.128 658.373 546.128V546.116Z" fill="#FFED72"/>
<path d="M655.718 546.766C655.808 547.046 655.718 547.315 655.517 547.382C655.315 547.45 655.091 547.27 655.002 546.99C654.912 546.71 655.002 546.441 655.203 546.374C655.394 546.318 655.629 546.486 655.718 546.766Z" fill="#2F4345"/>
<path d="M657.802 545.769C657.892 546.049 657.802 546.318 657.601 546.385C657.399 546.453 657.175 546.273 657.086 545.993C656.996 545.713 657.086 545.444 657.287 545.377C657.489 545.31 657.713 545.489 657.802 545.769Z" fill="#2F4345"/>
</g>
<defs>
<linearGradient id="paint0_linear_1648_202" x1="960" y1="-105.811" x2="960" y2="467.58" gradientUnits="userSpaceOnUse">
<stop offset="0.016129" stop-color="#4EB4CD"/>
<stop offset="0.4409" stop-color="#86D6E9"/>
<stop offset="0.7477" stop-color="#A4E0E7"/>
<stop offset="1" stop-color="#B9E6E5"/>
</linearGradient>
<clipPath id="clip0_1648_202">
<rect width="43" height="91.42" fill="white" transform="translate(1443 602)"/>
</clipPath>
<clipPath id="clip1_1648_202">
<rect width="96.54" height="43" fill="white" transform="translate(512 699)"/>
</clipPath>
<clipPath id="clip2_1648_202">
<rect width="130" height="85.4015" fill="white" transform="translate(1262 679)"/>
</clipPath>
<clipPath id="clip3_1648_202">
<rect width="40.08" height="31.08" fill="white" transform="translate(1345 481)"/>
</clipPath>
<clipPath id="clip4_1648_202">
<rect width="50" height="62.0142" fill="white" transform="translate(1246 551)"/>
</clipPath>
<clipPath id="clip5_1648_202">
<rect width="45" height="35.1979" fill="white" transform="translate(618 525)"/>
</clipPath>
</defs>
</svg>
