<svg width="92" height="92" viewBox="0 0 92 92" fill="none" xmlns="http://www.w3.org/2000/svg">
<path d="M26.9586 2.96462C21.9561 16.4884 21.7153 16.6904 21.8784 18.1973C22.0182 19.4946 22.8261 20.6131 23.1912 21.8715C23.867 24.1708 23.0048 26.6099 22.1581 28.847C15.5243 46.3402 15.4 47.2801 13.5824 49.0978C12.7823 49.8901 11.7181 50.4805 10.6073 50.7523C8.83623 51.1951 7.43802 52.5622 6.81659 54.2867L1.58107 68.9524C1.0917 70.3117 0.61009 71.8187 1.13053 73.1703C1.75973 74.8016 3.60071 75.5628 5.25526 76.1376C19.6257 81.1945 33.9962 86.2513 48.3667 91.3082C49.2833 91.6267 50.2466 91.9607 51.202 91.782C53.0663 91.4325 54.0295 89.4128 54.7053 87.6418C63.0246 65.9307 71.344 44.2118 79.6633 22.5007C80.1061 21.3433 80.5566 20.1005 80.3081 18.8887C79.8498 16.6826 77.4029 15.6029 75.2745 14.8727C62.0148 10.2897 48.7629 5.70668 35.5032 1.13142C33.8953 0.579906 32.2252 0.0128427 30.5396 0.207039C28.8539 0.401234 27.4557 1.62855 26.9586 2.96462Z" fill="#76A0EE"/>
<path d="M69.2936 23.1145C33.515 9.27998 35.5191 9.9247 34.7966 10.0101C33.6703 10.1422 33.1654 11.455 32.8935 12.558C32.3498 14.7408 31.806 16.9235 31.2623 19.1063C30.936 20.4113 31.0914 21.0405 32.7848 21.6464C43.5199 25.5147 54.2551 29.3831 65.1378 32.7932C66.5982 33.2515 67.274 33.1816 68.2527 31.7834C69.5266 29.9657 70.451 27.8995 70.9637 25.7323C71.1035 25.1497 71.2045 24.5205 70.987 23.9612C70.7695 23.4019 70.117 22.9747 69.2936 23.1145Z" fill="#97C5FF"/>
<path d="M43.1076 78.6699C42.9444 78.6699 44.9097 79.4 15.3997 68.0668C15.0968 67.9502 14.9492 67.6162 15.0657 67.3133C15.1822 67.0103 15.5162 66.8627 15.8192 66.9793L43.3173 77.5435C43.9154 77.7765 43.7523 78.6699 43.1076 78.6699Z" fill="#4D97F5"/>
<path d="M39.5113 72.6268C39.3715 72.6268 39.6667 72.7123 35.6197 71.3141C35.3633 71.2286 35.208 70.9801 35.2313 70.7082C33.5845 70.8713 31.8756 70.7936 30.2832 70.1567C29.9103 70.0091 29.7938 69.543 30.0579 69.2401C30.8813 68.2768 31.9377 67.4923 33.1029 66.9796C31.9921 66.5058 30.1899 67.2282 29.0947 67.7331C28.0849 68.3934 27.0595 69.0226 26.0186 69.6207C25.3972 69.978 24.8068 69.1002 25.3661 68.6575C27.7664 66.7699 27.479 67.6865 31.7824 64.4085C30.6638 63.8492 28.1159 64.4395 26.9197 64.859C25.436 65.9077 23.8825 66.8631 22.2823 67.7176C21.6919 68.0361 21.1171 67.2515 21.5987 66.7854C22.9503 65.4804 24.5893 64.4629 26.3682 63.8181C27.4091 63.0802 28.4111 62.3034 29.3821 61.48C29.5297 61.3557 29.8093 61.1149 29.8326 60.9285C29.8559 60.7421 29.5841 60.4857 29.219 60.3381C27.6809 59.74 25.8943 60.4857 24.5039 61.2081C22.4765 62.2646 20.5501 63.5229 18.7712 64.9522C18.5227 65.1542 18.1576 65.1154 17.9556 64.8668C17.7536 64.6182 17.7925 64.2531 18.041 64.0512C19.882 62.5675 21.8706 61.2703 23.9679 60.175C25.5758 59.3361 27.6732 58.4816 29.6462 59.2506C30.3298 59.5147 31.091 60.1439 30.99 61.045C30.9046 61.8218 30.2521 62.2879 29.2345 63.1035C30.6793 62.917 32.3494 62.8938 33.165 64.1055C33.3359 64.3619 33.2815 64.7036 33.0407 64.8901C32.7067 65.1542 32.3649 65.4105 32.0232 65.6669C33.1107 65.628 34.1671 65.9465 34.672 66.9408C34.8351 67.2593 34.672 67.6554 34.3224 67.7642C33.3048 68.0749 32.3416 68.6342 31.5493 69.3566C33.4214 69.846 35.4488 69.6051 37.6471 69.1235C38.2452 68.906 38.8589 68.7585 39.4958 68.6886C40.2105 68.5953 40.4124 69.6518 39.7055 69.8304C37.818 70.3043 37.9267 70.2111 37.1422 70.615L39.6978 71.5005C40.3192 71.7102 40.1638 72.6268 39.5113 72.6268Z" fill="white"/>
<path d="M64.5005 29.329C64.3374 29.329 66.3492 30.0669 35.2934 18.3064C34.9905 18.1899 34.8429 17.8559 34.9516 17.5529C35.0682 17.25 35.4022 17.1024 35.7051 17.2112L64.7025 28.1949C65.3083 28.4279 65.1452 29.329 64.5005 29.329Z" fill="white"/>
<path d="M63.4515 41.291C63.1641 41.291 46.0282 35.4496 27.1757 27.7206C26.8805 27.5963 26.7329 27.2546 26.8572 26.9594C26.9815 26.6642 27.3233 26.5166 27.6185 26.6409C39.4333 31.488 51.5512 36.0322 63.6379 40.1569C64.2671 40.3667 64.1117 41.291 63.4515 41.291Z" fill="white"/>
<path d="M61.5564 47.4592C61.238 47.4592 41.7329 40.4914 24.1077 33.6946C23.8048 33.578 23.6572 33.244 23.7737 32.9411C23.8902 32.6381 24.2242 32.4906 24.5272 32.6071C36.8081 37.3454 49.3299 41.9595 61.7506 46.3251C62.3643 46.5426 62.2089 47.4592 61.5564 47.4592Z" fill="white"/>
<path d="M56.9269 56.8502C56.3909 56.8502 42.8593 51.2807 40.529 50.3019C40.2338 50.1776 40.094 49.8359 40.2182 49.5407C40.3425 49.2455 40.6843 49.1057 40.9795 49.23C46.3082 51.4749 51.7379 53.6576 57.1288 55.7239C57.7347 55.9569 57.5716 56.8502 56.9269 56.8502Z" fill="white"/>
<g clip-path="url(#clip0_364_7756)">
<path d="M75.2371 30.0694L50.2466 33.2574L51.9338 46.483L76.9243 43.295L75.2371 30.0694Z" fill="#EDD45B"/>
<path d="M83.8637 39.9316L44.382 44.9683C41.7658 45.3021 39.9156 47.6935 40.2493 50.3096L42.1043 64.8508C42.4381 67.4669 44.8295 69.3172 47.4457 68.9835L86.9273 63.9468C89.5435 63.613 91.3938 61.2216 91.06 58.6055L89.205 44.0643C88.8713 41.4481 86.4799 39.5979 83.8637 39.9316Z" fill="#63DCD5"/>
<path d="M79.4159 44.4169C79.5168 45.1986 78.9621 45.9146 78.1805 46.0104C77.3989 46.1062 76.6828 45.5566 76.587 44.775C76.4912 43.9934 77.0409 43.2773 77.8225 43.1815C78.6041 43.0857 79.3201 43.6353 79.4159 44.4169Z" fill="#F62D3F"/>
<path d="M83.7929 43.8572C83.8937 44.6388 83.3391 45.3548 82.5574 45.4506C81.7758 45.5515 81.0598 44.9968 80.964 44.2152C80.8682 43.4336 81.4178 42.7175 82.1994 42.6217C82.981 42.5208 83.6971 43.0755 83.7929 43.8572Z" fill="#51B57F"/>
<path d="M78.5653 56.1225L53.5747 59.3105L55.6231 75.3673L80.6136 72.1793L78.5653 56.1225Z" fill="#EDD45B"/>
<path d="M76.4456 57.8987L56.062 60.499L56.1877 61.4844L76.5713 58.8841L76.4456 57.8987Z" fill="white"/>
<path d="M76.7191 60.0355L56.3354 62.6359L56.4612 63.6213L76.8448 61.0209L76.7191 60.0355Z" fill="white"/>
<path d="M76.9974 62.1767L56.6138 64.7771L56.7395 65.7625L77.1231 63.1622L76.9974 62.1767Z" fill="white"/>
<path d="M77.2708 64.3136L56.8872 66.9139L57.0129 67.8994L77.3965 65.299L77.2708 64.3136Z" fill="white"/>
<path d="M77.5443 66.4506L57.1606 69.0509L57.2864 70.0363L77.67 67.436L77.5443 66.4506Z" fill="white"/>
<path d="M77.8128 68.5874L57.4292 71.1877L57.5549 72.1732L77.9385 69.5728L77.8128 68.5874Z" fill="white"/>
<path d="M51.9336 57.9867L53.2447 68.2485L54.6869 68.0669L53.5725 59.3179L78.5689 56.131L79.6833 64.88L81.1255 64.6984L79.8195 54.4366L51.9437 57.9917L51.9336 57.9867Z" fill="#51B9B3"/>
</g>
<defs>
<clipPath id="clip0_364_7756">
<rect width="50.8854" height="45.2981" fill="white" transform="translate(40.2095 30.0706)"/>
</clipPath>
</defs>
</svg>
