<svg width="110" height="100" viewBox="0 0 110 100" fill="none" xmlns="http://www.w3.org/2000/svg">
<g clip-path="url(#clip0_364_6984)">
<path d="M100.655 63.3173V35.8744H65.7873L65.6546 9.85365C65.5849 7.19215 63.4444 5.10677 60.7822 5.10677L50.1681 5.26132V3.59752H39.1027C37.8249 1.37138 35.7054 0 33.1695 0C30.2097 0 28.3428 2.04692 27.3755 3.92622L16.4204 4.23605L16.4756 5.7511L5.38407 5.91291C4.05694 5.9325 2.82343 6.4738 1.91207 7.43885C1.0058 8.39737 0.534883 9.6483 0.583499 10.9645L2.32566 94.9716C2.43523 97.5678 4.55688 99.6183 7.15526 99.6401C29.4776 99.7671 22.583 100.126 109.42 99.9528V63.3166H100.655V63.3173Z" fill="white"/>
<path d="M2.82881 10.8977L4.57025 94.8765C4.62902 96.2755 5.77402 97.3827 7.17443 97.3943L61.1932 97.8478C62.6806 97.8602 63.8815 96.6375 63.8431 95.1508L63.4099 9.91165C63.3721 8.47206 62.1836 7.33142 60.744 7.35246L5.41702 8.1586C3.9368 8.18037 2.76713 9.41897 2.82953 10.8977H2.82881Z" fill="#F48682"/>
<path d="M6.58838 12.9665L8.28193 93.6184H60.0288L59.2655 12.119L6.58838 12.9665Z" fill="#ECF3FB"/>
<path d="M19.0351 14.3219L47.922 13.5317V5.84253H37.646C37.646 5.84253 36.6534 2.39303 33.3411 2.24936C30.0287 2.10569 28.9011 6.12987 28.9011 6.12987L18.7471 6.41721L19.0344 14.3219H19.0351Z" fill="#FABC4C"/>
<path d="M15.9856 20.8646L16.4369 25.3126C16.5037 25.9714 17.0617 26.4706 17.7242 26.4648L52.5145 26.1397C53.2176 26.1332 53.7843 25.5614 53.7843 24.8583V19.6674C53.7843 18.9447 53.1864 18.3649 52.4637 18.3867L17.222 19.4548C16.479 19.4773 15.9109 20.1252 15.9856 20.8646Z" fill="#8574EE"/>
<path d="M18.6818 34.011H13.0113C12.4538 34.011 12.002 34.4629 12.002 35.0203V40.1155C12.002 40.6729 12.4538 41.1248 13.0113 41.1248H18.6818C19.2393 41.1248 19.6911 40.6729 19.6911 40.1155V35.0203C19.6911 34.4629 19.2393 34.011 18.6818 34.011Z" fill="#76A0EE"/>
<path d="M53.7835 36.3163H24.1355C23.8351 36.3163 23.5913 36.0725 23.5913 35.7721C23.5913 35.4717 23.8351 35.2279 24.1355 35.2279H53.7835C54.0839 35.2279 54.3277 35.4717 54.3277 35.7721C54.3277 36.0725 54.0839 36.3163 53.7835 36.3163Z" fill="#1D1D3D"/>
<path d="M19.9064 50.3588H14.2359C13.6784 50.3588 13.2266 50.8106 13.2266 51.3681V56.4632C13.2266 57.0207 13.6784 57.4725 14.2359 57.4725H19.9064C20.4639 57.4725 20.9157 57.0207 20.9157 56.4632V51.3681C20.9157 50.8106 20.4639 50.3588 19.9064 50.3588Z" fill="#76A0EE"/>
<path d="M53.7833 52.6641H25.3601C25.0597 52.6641 24.8159 52.4203 24.8159 52.1199C24.8159 51.8195 25.0597 51.5757 25.3601 51.5757H53.7833C54.0837 51.5757 54.3275 51.8195 54.3275 52.1199C54.3275 52.4203 54.0837 52.6641 53.7833 52.6641Z" fill="#1D1D3D"/>
<path d="M21.1315 66.7065H15.461C14.9035 66.7065 14.4517 67.1584 14.4517 67.7159V72.811C14.4517 73.3684 14.9035 73.8203 15.461 73.8203H21.1315C21.689 73.8203 22.1408 73.3684 22.1408 72.811V67.7159C22.1408 67.1584 21.689 66.7065 21.1315 66.7065Z" fill="#76A0EE"/>
<path d="M53.7831 69.0117H26.5847C26.2843 69.0117 26.0405 68.7679 26.0405 68.4675C26.0405 68.1671 26.2843 67.9233 26.5847 67.9233H53.7831C54.0835 67.9233 54.3273 68.1671 54.3273 68.4675C54.3273 68.7679 54.0835 69.0117 53.7831 69.0117Z" fill="#1D1D3D"/>
<path d="M15.1161 39.9044L12.8725 37.9816C12.6447 37.7857 12.6178 37.4424 12.8138 37.2139C13.0097 36.9853 13.3529 36.9592 13.5814 37.1551L15.3628 38.6818L19.9849 31.8756C20.1539 31.6268 20.4928 31.5629 20.7409 31.7312C20.9898 31.9003 21.0544 32.2384 20.8853 32.4873L15.9208 39.797C15.7379 40.0662 15.3628 40.1156 15.1161 39.9044Z" fill="#1D1D3D"/>
<path d="M16.5809 56.1875L14.3374 54.2647C14.1095 54.0688 14.0827 53.7256 14.2786 53.497C14.4745 53.2684 14.8177 53.2423 15.0463 53.4382L16.8276 54.9649L21.4497 48.1588C21.6188 47.9106 21.9576 47.846 22.2058 48.0144C22.4547 48.1834 22.5192 48.5216 22.3502 48.7705L17.3856 56.0801C17.2028 56.3493 16.8276 56.3987 16.5809 56.1875Z" fill="#1D1D3D"/>
<path d="M67.0974 70.2634H42.2188V97.7063H67.0974V70.2634Z" fill="#FFC966"/>
<path d="M67.0175 97.707H94.4604V70.2641H67.0175V97.707Z" fill="#EF9C4B"/>
<path d="M57.222 70.2634H51.1748V87.4427H57.222V70.2634Z" fill="#76A0EE"/>
<path d="M63.1656 91.2493L61.0679 93.5407H62.1171V95.9882H63.9616V93.6184H64.894L63.1656 91.2493Z" fill="white"/>
<path d="M78.9672 38.1201H55.981V70.2635H78.9672V38.1201Z" fill="#76A0EE"/>
<path d="M78.873 70.2642H101.409V38.1208H78.873V70.2642Z" fill="#A369F7"/>
<path d="M70.9415 38.1201H63.8589V48.1806H70.9415V38.1201Z" fill="#7FD4E7"/>
<path d="M74.7217 61.9677L72.624 64.2598H73.6732V66.7065H75.5184V64.3375H76.4501L74.7217 61.9677Z" fill="white"/>
</g>
<defs>
<clipPath id="clip0_364_6984">
<rect width="108.84" height="100" fill="white" transform="translate(0.580078)"/>
</clipPath>
</defs>
</svg>
