<svg width="116" height="284" viewBox="0 0 116 284" fill="none" xmlns="http://www.w3.org/2000/svg">
<path d="M62.9102 170.152C53.0419 123.181 31.4258 78.6762 0.528809 41.8041C5.58041 61.297 3.70073 82.6688 12.6291 100.753C19.0905 114.022 30.8384 124.121 43.7611 131.284C45.7582 132.34 47.8728 133.515 49.1651 135.394C50.1049 136.685 50.5749 138.329 50.9273 139.856C53.8643 151.011 56.2139 162.284 57.976 173.557L62.9102 170.152Z" fill="#B3C77D"/>
<path d="M59.1507 177.198C53.5117 122.829 75.1279 66.2289 115.541 29.3568C115.188 43.9177 114.366 58.4787 111.077 72.6874C107.67 86.7787 101.561 100.635 91.4575 111.086C84.5262 118.367 76.0677 123.886 67.2568 128.583C65.7296 129.405 64.0848 130.227 63.2625 131.753C62.6751 132.81 62.5576 133.867 62.4401 135.041C61.0304 149.132 61.2654 163.459 63.2625 177.432L59.1507 177.198Z" fill="#B3C77D"/>
<path d="M59.2685 163.459C57.2713 157.705 56.0965 151.716 54.9217 145.727C45.4059 97.6994 38.2397 48.7323 43.0563 0C46.5807 9.98131 50.105 19.9626 53.6294 30.0614C58.681 44.1526 63.7326 58.5962 64.7899 73.5094C65.8472 88.4227 62.6753 104.393 52.6896 115.666C53.3945 135.394 57.8587 149.955 64.4375 166.629L59.2685 163.459Z" fill="#B3C77D"/>
<path d="M79.1672 176.769L78.881 179.125L75.4464 207.768C75.2042 209.706 73.575 211.181 71.6155 211.181H49.4447C47.4852 211.181 45.834 209.728 45.6139 207.768L42.1792 179.125L41.8931 176.769H79.1672Z" fill="#B5D7FF"/>
<path d="M80.2018 176.725H40.858C40.5058 176.725 40.1975 176.505 40.0875 176.153L39.2288 173.445C39.0527 172.916 39.449 172.388 39.9994 172.388H81.0604C81.6108 172.388 82.0071 172.916 81.831 173.445L80.9724 176.153C80.8623 176.505 80.5541 176.725 80.2018 176.725Z" fill="#B5D7FF"/>
<path d="M79.1672 176.769L78.881 179.103H42.1792L41.8931 176.769H79.1672Z" fill="#B5D7FF"/>
<path d="M85.9042 282.603L75.0059 199.16H46.0761L35.1779 282.603L33.4385 282.383L44.5349 197.399H76.5471L87.6435 282.383L85.9042 282.603Z" fill="#BAC8E2"/>
<path d="M84.2974 258.561H37.314V260.322H84.2974V258.561Z" fill="#BAC8E2"/>
<path d="M61.4215 198.279H59.6602V283.352H61.4215V198.279Z" fill="#BAC8E2"/>
</svg>
