<svg width="90" height="100" viewBox="0 0 90 100" fill="none" xmlns="http://www.w3.org/2000/svg">
<path d="M22.3687 41.8365C20.1152 44.3003 14.5109 50.9559 13.3611 53.8467C12.8815 55.0425 12.6975 56.3302 12.5267 57.5983C10.2534 74.4243 11.6332 73.222 9.17595 76.9604C6.38365 81.2112 3.59135 85.4687 0.79248 89.7195C4.41918 94.1675 9.2088 97.6628 14.5437 99.7652C15.8249 100.271 16.2125 99.9032 16.5476 99.2002C22.579 86.4213 25.956 79.733 28.0453 72.5058C29.3199 68.0907 28.7549 67.0724 27.7037 62.8543C26.0874 56.3499 26.4882 48.6695 22.3687 41.8365Z" fill="#FFCFCA"/>
<path d="M28.9519 82.2821L13.7486 11.8242C13.6566 11.384 13.9326 10.9503 14.3728 10.8584L64.6079 0.0176665C65.0481 -0.074315 65.4817 0.20163 65.5737 0.641827L80.7769 71.0997C80.8689 71.5399 80.5929 71.9735 80.1527 72.0655L29.9177 82.9062C29.4775 82.9982 29.0504 82.7222 28.9519 82.2821Z" fill="#8574EE"/>
<path d="M31.2119 78.8722L17.1256 13.5981C17.0336 13.1579 17.3095 12.7243 17.7497 12.6323L62.2491 3.02682C62.6893 2.93484 63.1229 3.21078 63.2149 3.65098L77.3012 68.9251C77.3932 69.3652 77.1173 69.7989 76.6771 69.8909L32.1777 79.4964C31.7375 79.5883 31.3039 79.3124 31.2119 78.8722Z" fill="#8574EE"/>
<path d="M17.9667 63.4129C21.3898 60.2395 23.1374 55.6076 23.8404 50.9953C24.0047 49.931 24.123 48.8338 24.596 47.868C25.0625 46.8956 25.2136 44.4252 26.2911 44.3792C27.638 44.3267 29.655 45.6078 29.8718 48.4856C29.9704 49.8324 29.9835 51.1662 29.8258 52.513C28.9717 59.6219 30.6734 62.3945 31.153 66.33C31.8166 71.8029 29.5104 77.5452 25.2399 81.0339C24.7274 81.4544 24.3858 81.4412 23.9324 80.7514C22.0008 77.8211 20.3057 74.7332 18.8537 71.5401C17.6908 68.9909 15.8249 65.397 17.9667 63.4129Z" fill="#FFCFCA"/>
<path d="M18.8272 63.0776C18.3607 63.0776 18.1176 62.5126 18.4461 62.1709C21.8626 58.6559 23.3605 50.6141 23.3737 50.5287C23.4263 50.2396 23.7022 50.0491 23.9913 50.1016C24.2804 50.1542 24.4709 50.4301 24.4183 50.7192C24.3592 51.0608 22.8481 59.1618 19.2082 62.9133C19.1031 63.025 18.9651 63.0776 18.8272 63.0776Z" fill="#F3C3BE"/>
<path d="M22.9534 81.8355C22.4015 81.8355 22.2504 80.9156 19.1427 79.076C18.8865 78.9249 18.8077 78.5964 18.9588 78.3467C19.1099 78.0905 19.4384 78.0116 19.6881 78.1628C22.0533 79.5688 23.295 80.8894 23.341 80.9419C23.6564 81.2836 23.4133 81.8355 22.9534 81.8355Z" fill="#F3C3BE"/>
<path d="M77.0186 54.819C65.6391 58.3734 54.2597 61.9213 42.8803 65.4757C38.0512 66.9868 37.6307 68.7673 38.3403 71.9013C39.5426 77.1639 41.2246 82.3215 43.3467 87.2819C45.1404 91.4605 46.7895 91.9861 50.2388 91.3422C62.0716 89.1347 73.2604 84.3779 84.2128 79.3846C85.8816 78.6225 87.6621 77.7552 88.5622 76.1587C89.7186 74.1154 89.0944 71.5728 88.444 69.3192C85.9276 60.6401 85.3757 57.7361 83.1485 55.5811C81.3745 53.8532 78.2209 53.275 77.0186 54.819Z" fill="#EDD45B"/>
<path d="M42.9987 74.0037C42.7096 73.9446 42.5256 73.6621 42.5848 73.373C42.6439 73.0839 42.9264 72.9 43.2155 72.9591C53.4123 75.055 56.8682 77.1902 57.9654 76.9669C58.2939 76.9012 58.6093 76.6646 58.9378 76.4084C63.9245 72.4992 64.4501 70.2194 66.7825 69.3915C68.0702 68.9316 68.3462 69.0827 82.1566 69.7923C82.4522 69.8054 82.6756 70.0551 82.6625 70.3508C82.6493 70.6464 82.3997 70.8632 82.104 70.8567C67.8469 70.1274 68.1491 70.0354 67.1438 70.3967C65.2122 71.08 64.5355 73.3862 59.6014 77.2494C56.8748 79.3781 57.1901 76.9209 42.9987 74.0037Z" fill="white"/>
<path d="M59.0561 81.06C56.3229 81.8024 53.6226 82.6894 50.9748 83.7143C50.331 83.964 49.6477 84.2596 49.2797 84.8444C48.9118 85.4291 49.0958 86.3884 49.7659 86.5526C50.009 86.6117 50.2652 86.5592 50.5083 86.5066C55.8761 85.3174 61.1256 83.5764 66.1452 81.3294C66.5591 81.1454 66.9862 80.9417 67.2687 80.587C67.5512 80.2322 67.6301 79.6737 67.3278 79.3386C66.9928 78.9707 66.4014 79.0364 65.9153 79.135C63.3266 79.6803 60.8366 80.5804 59.0561 81.06Z" fill="#F78E75"/>
<path d="M79.4237 60.0291C77.9323 60.3445 69.1809 62.1381 68.0771 63.1959C67.7157 63.5441 67.5252 64.1157 67.7617 64.5559C68.0968 65.1801 68.9838 65.1669 69.6868 65.0553C73.4646 64.4508 77.1833 63.485 80.7706 62.171C83.2015 61.284 82.1568 59.6415 80.7443 59.6546C80.0413 59.6678 79.3777 59.9766 79.4237 60.0291Z" fill="white"/>
<path d="M26.0479 29.5241C25.6209 29.5241 25.3646 29.0379 25.6143 28.6831C27.1846 26.4624 30.8638 21.1012 33.505 20.569C36.4484 19.9711 38.4654 23.2496 40.5613 24.0972C41.8885 24.6294 43.5638 24.4585 45.1669 23.6307C47.0066 22.678 47.6767 21.8765 56.507 13.3945C56.7172 13.1908 57.0589 13.1974 57.2625 13.4076C57.4662 13.6178 57.4596 13.9595 57.2494 14.1632C48.498 22.5729 47.6964 23.5256 45.6597 24.5768C43.7807 25.5492 41.7833 25.7331 40.1671 25.0827C37.8281 24.1432 36.0674 21.1406 33.7153 21.6137C31.5077 22.0604 27.789 27.4479 26.4881 29.2941C26.3764 29.4452 26.2122 29.5241 26.0479 29.5241Z" fill="white"/>
<path d="M34.3327 19.6757C33.0581 19.1107 31.2776 20.451 32.1777 22.1986C32.7427 23.3024 33.9976 23.5784 34.7269 22.9345C35.2263 22.4943 35.3182 21.765 35.3314 21.1014C35.3379 20.7729 35.3314 20.4247 35.1803 20.1291C35.0226 19.84 34.6809 19.6166 34.3327 19.6757Z" fill="#EDD45B"/>
<path d="M44.5363 23.1707C44.1092 22.6977 43.577 22.1786 42.9463 22.2509C42.2499 22.3298 41.8425 23.105 41.7505 23.8015C41.4746 25.8513 43.058 26.8171 44.0829 26.2653C45.2261 25.6542 44.9173 23.5978 44.5363 23.1707Z" fill="#EDD45B"/>
<path d="M58.1691 12.9873C58.2874 11.7981 56.8616 10.8914 55.7382 11.8244C54.8052 12.5996 54.7789 14.1042 55.6199 14.8926C56.1915 15.4248 57.131 15.5365 57.7749 15.0963C58.4188 14.6626 58.6487 13.6837 58.1691 12.9873Z" fill="#EDD45B"/>
<path d="M27.5923 35.9891C28.4267 39.1493 28.3939 39.1625 28.5581 39.2873C28.7815 39.4515 28.1639 39.5238 38.8075 37.0994C38.6498 36.0942 38.3016 35.1218 37.7825 34.2414C37.7037 34.11 37.6117 33.9721 37.4672 33.9261C37.0335 33.7815 32.8681 35.3321 27.5923 35.9891Z" fill="#63DCD5"/>
<path d="M29.1426 42.487C29.6748 43.8799 30.2069 45.2793 30.7391 46.6722C37.2435 45.2859 43.6822 43.604 50.0355 41.6461C48.7478 38.0851 48.8004 38.0982 48.5441 37.934C48.3273 37.796 48.0448 37.842 47.7951 37.8945C41.4615 39.1757 35.1805 40.6868 29.1426 42.487Z" fill="#EDD45B"/>
<path d="M32.3418 50.4305C32.8411 51.8496 33.347 53.2688 33.8464 54.6879C43.9381 52.0927 54.0232 49.4909 64.1149 46.8958C63.7864 45.3124 63.2607 43.7618 62.5512 42.3098C52.3018 44.7539 42.1378 47.5462 32.3418 50.4305Z" fill="#F48682"/>
<path d="M65.3175 16.6927C61.5396 17.9542 60.968 19.3799 61.5068 22.8029C62.2098 27.264 62.9785 31.7186 63.8063 36.1534C64.01 37.2572 64.286 38.4661 65.1861 39.1428C66.3227 39.9969 67.9192 39.629 69.2858 39.2216C74.4959 37.6711 79.706 36.1206 84.9095 34.57C87.7478 33.7225 88.5625 32.8881 88.5559 29.9841C88.5494 25.3916 87.8201 20.7991 86.4075 16.4299C85.8491 14.7086 85.1986 13.5654 82.3472 13.2303C78.3723 12.7704 69.1084 15.4247 65.3175 16.6927Z" fill="#63DCD5"/>
<path d="M83.2605 24.8004C82.2421 31.0289 76.4801 34.4979 71.5985 32.6451C67.9455 31.2588 65.554 26.87 68.2609 22.4286C71.7365 16.706 80.9872 16.4695 83.0765 22.0081C83.4379 22.8885 83.4116 23.8543 83.2605 24.8004Z" fill="#F48682"/>
<path d="M83.0769 22.008C80.9087 23.841 78.4121 25.3324 75.8563 26.4691C75.7052 25.8121 74.8117 22.7307 74.2598 18.2367C77.7879 17.4286 81.7825 18.5915 83.0769 22.008Z" fill="#EDD45B"/>
<path d="M83.3328 23.0458C83.2999 23.059 75.8166 26.4294 75.7969 26.436C77.2883 24.6621 78.7534 22.9473 81.3092 19.5834C82.5641 20.6215 83.2408 22.0209 83.3328 23.0458Z" fill="white"/>
<path d="M33.6364 60.1932C33.0122 60.1932 32.9005 59.2996 33.505 59.142L69.3844 49.8255C69.6669 49.7533 69.9625 49.9241 70.0348 50.2066C70.1071 50.4891 69.9363 50.7848 69.6538 50.857C32.1121 60.6071 33.7415 60.1932 33.6364 60.1932Z" fill="#C72F55"/>
</svg>
