<svg width="1920" height="1000" viewBox="0 0 1920 1000" fill="none" xmlns="http://www.w3.org/2000/svg">
<g clip-path="url(#clip0_1395_7270)">
<rect width="1920" height="1000" fill="#53508E"/>
<g style="mix-blend-mode:soft-light" opacity="0.8">
<g filter="url(#filter0_f_1395_7270)">
<path d="M530.363 612.323C530.247 611.975 529.949 611.743 529.601 611.693L500.948 607.733C500.766 607.699 500.617 607.583 500.551 607.401C499.192 602.993 497.849 598.568 496.507 594.144L496.441 593.928C494.817 588.592 493.16 583.09 490.939 577.87C490.806 577.555 490.508 577.323 490.16 577.29C489.713 577.29 489.365 577.505 489.199 577.853C484.923 586.935 480.847 596.281 477.068 605.628C477.002 605.81 476.82 605.926 476.637 605.943C475.991 605.943 475.345 605.959 474.715 605.976C466.943 606.142 459.055 606.49 451.299 607.02C450.901 607.053 450.553 607.335 450.437 607.716C450.321 608.114 450.437 608.545 450.769 608.793L469.777 623.94C469.942 624.072 470.009 624.304 469.926 624.503C466.595 633.833 463.479 643.362 460.679 652.841C460.563 653.222 460.679 653.637 460.994 653.885C461.292 654.134 461.723 654.167 462.054 653.968L481.742 642.534C483.813 641.324 485.951 640.081 488.089 638.888C488.254 638.788 488.453 638.805 488.602 638.937L510.908 656.719C512.101 657.664 513.46 658.757 515.134 659.205C515.465 659.288 515.83 659.188 516.079 658.923C516.327 658.658 516.41 658.277 516.294 657.945C513.311 648.549 510.328 639.053 507.428 629.723C507.362 629.491 507.461 629.226 507.676 629.127C515.614 625.216 523.834 620.592 530.148 613.35C530.38 613.085 530.463 612.688 530.33 612.356L530.363 612.323Z" fill="#D6E249"/>
</g>
<path d="M1382.2 1037.84C1403.47 1050.7 1426.33 1051.81 1433.25 1040.36C1440.17 1028.91 1428.54 1009.22 1407.27 996.354C1386 983.513 1363.14 982.38 1356.22 993.83C1349.31 1005.28 1360.93 1024.98 1382.2 1037.82V1037.84Z" fill="#36D3E6"/>
<path d="M1154.68 901.061C1175.95 913.902 1198.81 915.035 1205.73 903.586C1212.65 892.136 1201 872.438 1179.73 859.597C1158.46 846.756 1135.6 845.623 1128.68 857.072C1121.77 868.522 1133.39 888.22 1154.66 901.061H1154.68Z" fill="#69F3F8"/>
<path d="M400.282 298.45C398.649 297.544 401.35 289.911 399.684 288.908C397.339 287.502 385.097 278.559 386.407 264.684C387.717 250.809 396.24 241.058 410.292 241.413C424.361 241.769 433.967 250.534 434.161 265.234C434.355 279.739 422.793 287.647 422.502 290.04C422.211 292.434 423.537 297.932 422.696 298.595C420.771 300.099 403.128 300.018 400.282 298.45Z" fill="#FCE321"/>
<path d="M416.049 307.44C412.572 307.359 407.511 307.133 400.121 306.744C398.584 306.664 397.42 305.354 397.501 303.817C397.582 302.281 398.892 301.101 400.428 301.198C410.017 301.78 421.321 302.394 421.855 301.877C422.906 301.537 424.103 301.877 424.846 302.766C425.817 303.963 425.639 305.71 424.442 306.68C423.763 307.23 423.278 307.618 416.065 307.44H416.049Z" fill="#4E4E4E"/>
<path d="M414.546 315.074C412.039 315.009 408.417 314.831 403.112 314.491C402.013 314.427 401.172 313.117 401.253 311.597C401.317 310.06 402.271 308.88 403.371 308.945C409.953 309.365 417.375 309.672 418.75 309.478C419.51 309.139 420.367 309.446 420.885 310.352C421.564 311.532 421.434 313.279 420.577 314.265C420.076 314.831 419.737 315.219 414.562 315.09L414.546 315.074Z" fill="#4E4E4E"/>
<path d="M421.952 267.886C420.626 266.997 418.992 267.805 418.087 268.872C417.003 270.15 416.195 271.735 415.499 273.255C415.338 273.611 415.176 273.983 415.014 274.354C414.19 274.354 413.381 274.144 412.621 273.691C412.411 273.562 412.201 273.417 412.006 273.255C413.527 271.799 414.659 269.859 414.675 267.837C414.675 266.56 414.125 265.363 412.88 264.894C411.343 264.312 409.791 265.622 409.128 266.883C408.077 268.905 408.562 271.347 409.839 273.158C408.772 273.902 407.511 274.387 406.233 274.484C405.958 273.239 405.635 272.026 405.247 270.829C404.778 269.406 404.115 268.015 403.015 266.98C401.899 265.929 400.137 265.331 399.263 266.98C397.873 269.616 399.506 272.802 401.608 274.484C402.708 275.357 403.985 275.81 405.295 275.891C405.457 276.699 405.603 277.524 405.732 278.333C406.524 283.33 406.363 288.326 405.764 293.323C405.716 293.776 406.46 293.889 406.557 293.453C407.349 289.685 407.511 285.771 407.268 281.923C407.139 279.901 406.913 277.864 406.541 275.858C407.721 275.745 408.902 275.373 409.953 274.775C410.244 274.613 410.535 274.435 410.826 274.225C411.861 275.195 413.138 275.697 414.448 275.826C413.575 278.236 412.993 280.742 412.589 283.265C412.055 286.628 411.845 290.024 411.748 293.42C411.715 294.488 413.365 294.52 413.397 293.469C413.543 287.534 414.028 281.389 416.162 275.794C417.068 275.664 417.957 275.373 418.782 274.953C420.723 273.95 424.927 269.859 421.952 267.854V267.886ZM403.808 274.16C402.482 273.675 401.398 272.592 400.719 271.363C400.153 270.312 399.749 268.42 400.59 267.385C401.107 266.738 402.482 268.29 402.789 268.662C403.403 269.422 403.775 270.393 404.099 271.314C404.454 272.333 404.746 273.384 404.988 274.451C404.6 274.403 404.196 274.306 403.808 274.16ZM410.794 267.094C411.149 266.592 411.893 266.059 412.524 266.366C412.993 266.592 413.155 267.174 413.187 267.66C413.284 269.05 412.54 270.312 411.732 271.379C411.521 271.654 411.279 271.929 411.036 272.188C410.001 270.684 409.726 268.646 410.81 267.094H410.794ZM421.353 269.81C421.24 270.554 420.674 271.314 420.205 271.864C419.348 272.867 418.168 273.675 416.89 274.08C417.052 273.708 417.23 273.352 417.424 272.98C417.812 272.236 418.232 271.508 418.669 270.797C419.057 270.182 419.526 269.406 420.27 269.147C420.755 268.986 421.467 269.147 421.37 269.794L421.353 269.81Z" fill="white"/>
<path d="M414.335 223.399C414.271 221.733 411.602 221.07 411.263 222.898C410.875 225 410.988 227.215 410.923 229.35C410.858 231.404 410.438 233.797 411.344 235.721C411.554 236.174 412.184 236.126 412.427 235.754C413.511 234.104 413.462 231.808 413.672 229.884C413.915 227.765 414.416 225.517 414.335 223.399Z" fill="#FCE321"/>
<path d="M435.293 228.315C434.274 228.914 433.547 229.932 432.754 230.789C431.833 231.776 430.911 232.762 429.989 233.749C428.307 235.592 426.609 237.452 425.17 239.49C424.459 240.508 425.93 241.608 426.803 240.816C428.566 239.198 430.199 237.436 431.913 235.77C432.771 234.929 433.644 234.121 434.533 233.296C435.503 232.407 436.716 231.647 437.444 230.547C438.333 229.205 436.668 227.474 435.293 228.299V228.315Z" fill="#FCE321"/>
<path d="M396.046 238.632C393.086 235.35 389.933 232.164 386.812 229.027C385.453 227.668 383.254 229.787 384.661 231.08C387.944 234.072 391.259 237.096 394.687 239.926C395.593 240.686 396.887 239.554 396.046 238.632Z" fill="#FCE321"/>
<path d="M381.443 250.404C379.535 250.178 377.659 249.968 375.799 249.45C374.829 249.192 373.891 248.852 372.969 248.48C372.047 248.108 371.207 247.445 370.236 247.235C369.153 247.008 367.956 248.383 368.991 249.256C370.463 250.518 372.921 250.906 374.764 251.375C377.368 252.038 379.891 252.394 381.394 251.892C382.3 251.585 382.397 250.518 381.427 250.404H381.443Z" fill="#FCE321"/>
<path d="M447.6 250.711C446.338 250.162 444.511 250.776 443.169 250.938C441.487 251.148 439.87 251.358 438.253 251.779C437.282 252.037 437.525 253.315 438.431 253.444C439.967 253.655 441.455 253.687 443.023 253.687C444.527 253.687 446.548 254.091 447.875 253.315C449.023 252.652 448.699 251.18 447.6 250.711Z" fill="#FCE321"/>
<path d="M1789.73 304.724C1786.3 301.742 1782.41 299.392 1778.61 296.952C1775.3 294.813 1772.38 292.313 1768.91 290.234C1761.05 285.474 1753.19 280.383 1745.6 275.413C1745.09 275.081 1744.54 274.81 1744 274.599C1745.09 274.991 1747.68 258.272 1747.74 256.766C1747.98 250.771 1747.25 244.746 1745.63 238.962C1743.94 233.058 1741.26 227.424 1737.77 222.363C1736.02 219.833 1733.94 217.724 1731.92 215.465C1729.72 213.025 1728.1 210.283 1725.11 208.687C1714.87 203.174 1704.87 198.746 1693.03 198.505C1681.64 198.264 1670.23 201.487 1660.74 207.813C1652.12 213.567 1646.79 220.948 1641.85 229.834C1641.4 230.648 1640.94 231.491 1640.46 232.305C1635.1 241.975 1634.8 255.561 1637.12 266.225C1639.56 277.522 1645.52 287.945 1654.08 295.717C1658.69 299.934 1663.78 304.845 1670.11 306.23C1676.13 307.526 1681.58 309.785 1687.88 310.237C1699.99 311.08 1712.25 307.917 1722.43 301.29C1725.66 299.211 1728.64 296.771 1731.35 294.06C1731.77 294.482 1732.22 294.873 1732.73 295.205C1734.42 295.385 1737.83 298.368 1739.3 299.362C1741.8 301.049 1744.12 303.037 1746.56 304.784C1752.65 309.122 1759.24 312.496 1765.42 316.533C1768.25 318.401 1771.08 320.238 1773.94 322.106C1774.76 322.618 1775.6 323.13 1776.35 323.672C1779.28 325.811 1782.56 326.414 1786.18 326.836C1787.35 326.986 1788.59 327.046 1789.7 326.655C1790.72 326.293 1791.57 325.54 1792.38 324.817C1794.28 323.1 1796.18 321.172 1796.87 318.702C1797.62 316.021 1796.78 313.099 1795.24 310.779C1793.74 308.49 1791.87 306.501 1789.82 304.694L1789.73 304.724ZM1729.36 278.907C1715.47 300.175 1686.98 306.14 1665.71 292.253C1644.44 278.365 1638.47 249.867 1652.36 228.599C1666.25 207.331 1694.75 201.367 1716.02 215.254C1737.28 229.141 1743.25 257.639 1729.36 278.907Z" fill="#456184"/>
<path opacity="0.18" d="M1731.44 275.327C1743.35 252.889 1734.82 225.04 1712.38 213.125C1689.95 201.21 1662.1 209.74 1650.18 232.178C1638.27 254.615 1646.8 282.464 1669.23 294.379C1691.67 306.295 1719.52 297.764 1731.44 275.327Z" fill="#B4FFFF"/>
<g opacity="0.9">
<path d="M1706.25 283.305C1705.86 283.696 1705.44 284.088 1704.99 284.45C1704.78 284.63 1704.57 284.781 1704.33 284.932C1704.18 285.022 1704.03 285.112 1703.91 285.203C1703.42 285.504 1702.91 285.745 1702.4 285.986C1702.13 286.106 1701.89 286.227 1701.62 286.317C1701.5 286.378 1701.34 286.408 1701.22 286.468C1701.22 286.468 1701.16 286.468 1701.13 286.498C1701.07 286.498 1701.04 286.558 1700.98 286.558C1700.53 286.769 1699.93 286.829 1699.48 286.95C1698.84 287.101 1698.21 287.221 1697.58 287.342C1697.31 287.372 1697.01 287.432 1696.71 287.462C1696.55 287.462 1695.98 287.462 1695.86 287.552C1695.74 287.552 1695.65 287.552 1695.53 287.552C1695.2 287.552 1694.87 287.552 1694.57 287.583C1693.39 287.583 1692.22 287.583 1691.04 287.462C1690.5 287.402 1689.99 287.342 1689.45 287.281C1689.17 287.251 1688.93 287.191 1688.66 287.161C1688.6 287.161 1688.48 287.161 1688.42 287.161C1688.45 287.161 1688.48 287.161 1688.54 287.161C1689.02 287.161 1688.36 287.131 1688.24 287.101C1686.07 286.679 1683.93 286.016 1681.85 285.203C1681.37 284.992 1680.86 284.781 1680.38 284.57C1680.29 284.54 1680.2 284.48 1680.14 284.45C1679.87 284.299 1679.59 284.178 1679.32 284.058C1678.33 283.546 1677.34 282.973 1676.37 282.371C1675.44 281.769 1674.53 281.166 1673.66 280.503C1673.21 280.172 1672.76 279.81 1672.33 279.449C1672.27 279.419 1672.21 279.359 1672.18 279.298L1672.03 279.178C1672.03 279.178 1671.91 279.057 1671.91 279.027C1671.76 278.907 1671.61 278.816 1671.52 278.726C1669.86 277.22 1668.33 275.593 1666.97 273.816C1666.64 273.394 1666.34 272.972 1666.01 272.55C1665.86 272.34 1665.71 272.129 1665.59 271.948C1665.5 271.827 1665.41 271.707 1665.35 271.556C1664.74 270.592 1664.17 269.628 1663.66 268.634C1663.09 267.52 1662.54 266.375 1662.09 265.2C1661.97 264.929 1661.88 264.628 1661.79 264.357C1661.76 264.236 1661.64 263.814 1661.76 264.266C1661.88 264.718 1661.73 264.176 1661.7 264.055C1661.49 263.423 1661.31 262.79 1661.13 262.127C1660.8 260.862 1660.53 259.537 1660.38 258.241C1660.38 258.241 1660.38 258.181 1660.38 258.151C1660.38 258.06 1660.38 257.789 1660.35 257.729C1660.35 257.337 1660.35 256.976 1660.35 256.584C1660.35 256.494 1660.35 256.102 1660.38 255.801C1660.38 255.801 1660.38 255.711 1660.44 255.56C1660.5 255.349 1660.56 255.108 1660.62 254.897C1661.07 253.391 1660.25 251.523 1658.66 251.102C1657.12 250.68 1655.34 251.433 1654.86 253.06C1653.99 256.072 1654.29 259.205 1654.95 262.218C1655.49 264.688 1656.34 267.158 1657.36 269.478C1659.38 273.966 1662.3 278.154 1665.8 281.618C1672.97 288.697 1682.64 293.397 1692.79 293.728C1698.99 293.909 1705.74 292.463 1710.26 287.914C1711.38 286.799 1711.71 284.871 1710.53 283.636C1709.45 282.522 1707.46 282.16 1706.25 283.365V283.305ZM1660.44 255.44C1660.44 255.44 1660.38 255.711 1660.35 255.771C1660.35 255.59 1660.38 255.44 1660.44 255.44Z" fill="white"/>
</g>
<path d="M1672.21 279.299C1672.06 279.058 1671.94 278.998 1671.94 279.028C1672.03 279.118 1672.15 279.208 1672.21 279.299Z" fill="#456184"/>
<g opacity="0.9">
<path d="M1716.59 278.636C1715.17 277.792 1713.33 278.093 1712.4 279.509C1711.53 280.835 1711.86 282.853 1713.27 283.697C1714.69 284.54 1716.53 284.239 1717.46 282.823C1718.33 281.497 1718 279.479 1716.59 278.636Z" fill="white"/>
</g>
<path d="M1742.34 214.561C1740.17 213.507 1738.55 216.881 1740.72 217.935C1750.75 222.815 1756.95 234.202 1755.48 245.288C1755.15 247.668 1758.82 248.391 1759.15 245.981C1760.84 233.208 1753.94 220.194 1742.34 214.531V214.561Z" fill="#456184"/>
<path d="M1749.91 206.126C1747.86 204.861 1746.26 208.235 1748.28 209.5C1760.51 217.121 1767.65 231.973 1766.08 246.282C1765.81 248.662 1769.49 249.385 1769.76 246.975C1771.53 230.858 1763.64 214.711 1749.91 206.126Z" fill="#456184"/>
<path d="M1618.92 249.867C1616.48 258.091 1619.19 267.279 1625.55 273.003C1627.33 274.63 1629.8 271.798 1628.02 270.201C1622.57 265.291 1620.52 257.579 1622.6 250.59C1623.29 248.271 1619.62 247.578 1618.92 249.897V249.867Z" fill="#456184"/>
<path d="M1608.65 254.778C1607.66 261.556 1609.77 268.213 1614.37 273.244C1616 275.021 1618.44 272.19 1616.84 270.442C1613.17 266.436 1611.51 260.863 1612.33 255.501C1612.69 253.121 1609.01 252.398 1608.65 254.808V254.778Z" fill="#456184"/>
<path d="M1761.2 285.203C1761.2 285.203 1760.96 285.203 1760.84 285.203C1757.98 285.534 1756.38 291.68 1755.06 293.728C1752.71 297.343 1750.3 300.898 1747.89 304.453C1746.71 306.17 1747.71 306.381 1749.06 307.224C1750.09 307.857 1751.14 308.52 1752.17 309.152C1755.18 311.02 1758.19 312.918 1761.17 314.785C1768.04 319.063 1774.91 323.371 1781.78 327.649C1785.24 329.818 1788.77 332.649 1792.5 334.336C1795.27 335.602 1798.92 334.939 1801.69 333.583C1807.02 330.962 1810.43 322.618 1807.08 317.286C1805.91 315.418 1804.13 314.062 1802.38 312.737C1793.22 305.869 1783.77 299.332 1774.1 293.186C1771.75 291.68 1769.37 290.204 1766.99 288.758C1765.75 288.005 1762.89 285.414 1761.2 285.203Z" fill="#2F4156"/>
<path d="M135.929 672.639C136.247 672.931 136.618 673.275 136.75 673.699C136.856 674.017 136.75 674.255 136.697 674.494C135.399 678.309 134.207 688.059 132.643 691.636C132.087 692.881 131.504 694.153 130.55 694.947C130.127 695.318 129.279 694.947 128.749 694.179C127.928 692.987 127.742 690.894 127.159 689.596C126.364 687.794 125.225 685.78 123.715 684.853C123 684.429 122.337 684.323 121.675 684.27C118.231 683.926 117.436 684.217 113.568 683.475C110.203 682.839 106.626 679.978 106.52 676.216C106.52 676.189 106.52 676.163 106.52 676.11C106.414 671.871 107.924 668.692 108.587 664.929C108.64 664.664 108.666 664.4 108.587 664.082C108.507 663.737 108.348 663.393 108.11 663.075C107.156 661.618 105.699 660.849 104.401 660.187C102.943 659.472 101.513 658.73 100.056 658.014C98.9428 657.458 98.3334 655.762 99.0753 655.338C99.9496 654.835 101.831 654.438 102.837 654.226C106.997 653.351 109.17 653.59 112.561 653.192C115.396 652.874 116.641 653.14 118.496 654.093C119.873 654.809 121.066 656.981 121.993 658.359C125.649 663.711 123.794 661.194 127.954 666.148C130.233 668.877 133.385 670.334 135.929 672.666V672.639Z" fill="#FCDD9F"/>
<path d="M156.674 603.833C173.18 589.155 183.671 583.38 200.31 576.253C203.436 574.928 207.304 573.206 210.59 572.914C213.875 572.623 221.611 572.782 224.446 576.253C227.148 579.564 226.089 587.115 223.227 591.937C221.585 594.719 219.995 598.163 218.114 600.866C205.741 618.723 201.396 625.479 186.824 640.448C179.697 647.787 162.82 660.372 152.196 666.227C148.672 668.161 142.261 671.738 137.015 669.38C133.438 667.79 131.743 665.22 129.12 662.677C126.205 659.842 129.252 662.942 126.338 660.107C123.688 657.511 119.131 652.715 120.112 648.211C120.907 644.528 128.934 632.791 131.266 630.009C141.678 617.584 146.42 612.921 156.674 603.807V603.833Z" fill="#AA6A64"/>
<path d="M208.364 608.549C208.867 609.026 209.45 609.609 209.45 610.218C209.45 610.854 208.788 611.119 208.152 610.933C207.543 610.748 206.96 610.245 206.456 609.768C203.648 607.118 201.052 604.177 198.482 601.263C196.574 599.117 194.693 596.945 192.785 594.798C190.613 592.335 188.387 589.791 187.169 586.85C186.506 585.261 188.811 585.181 189.739 586.188C191.249 587.857 192.494 590.056 193.845 591.858C196.68 595.699 199.674 599.435 202.906 602.985C204.655 604.919 206.483 606.774 208.39 608.522L208.364 608.549Z" fill="white"/>
<path d="M176.014 643.522C176.491 643.946 176.995 644.396 177.631 644.502C178.267 644.608 179.008 644.211 179.035 643.575C170.901 635.839 163.509 627.413 156.144 618.962C155.322 618.008 152.037 613.08 150.58 613.822C149.335 614.458 151.507 616.63 152.011 617.266C155.455 621.691 159.005 626.009 162.794 630.169C167.006 634.805 171.431 639.256 176.041 643.495L176.014 643.522Z" fill="white"/>
<path d="M182.532 603.092C181.26 603.172 180.015 603.516 178.902 604.125C175.564 605.954 173.948 610.272 174.822 613.981C175.723 617.69 178.849 620.658 182.479 621.824C183.221 622.062 183.989 622.221 184.758 622.168C185.473 622.115 186.162 621.85 186.798 621.506C188.652 620.472 190.003 618.697 191.063 616.843C191.752 615.677 192.335 614.432 192.6 613.081C193.686 607.384 187.857 602.721 182.506 603.092H182.532Z" fill="white"/>
<path d="M185.314 608.337C184.042 607.702 182.479 607.516 181.26 608.205C180.386 608.682 179.777 609.583 179.538 610.537C179.3 611.49 179.406 612.524 179.724 613.477C180.042 614.405 180.598 615.305 181.446 615.809C181.976 616.127 182.558 616.286 183.168 616.392C184.652 616.604 186.268 616.312 187.433 615.332C190.189 612.974 187.884 609.609 185.314 608.337Z" fill="#537082"/>
<path d="M117.277 645.005C116.853 645.562 116.429 646.118 115.846 646.489C114.839 647.125 113.568 647.098 112.349 647.098C107.633 647.019 102.89 647.39 98.2273 648.211C97.1411 648.397 96.0018 648.635 94.9155 648.397C93.8293 648.158 92.743 647.416 92.5576 646.33C92.3721 645.323 92.9285 644.343 93.5113 643.495C94.4651 642.118 95.5514 640.872 96.6642 639.6C102.095 633.295 107.58 626.963 114.203 621.955C118.389 618.803 122.973 616.233 127.715 613.981C131.319 612.258 135.081 610.695 139.002 609.874C141.598 609.318 145.811 608.417 143.718 612.285C141.863 615.703 138.684 618.617 136.194 621.584C133.173 625.161 130.206 628.791 127.239 632.421C123.874 636.58 120.562 640.793 117.303 645.005H117.277Z" fill="#537082"/>
<path d="M178.717 650.383C179.273 650.012 179.962 649.641 180.598 649.827C181.525 650.118 181.737 651.31 181.764 652.264C181.817 653.748 181.87 655.284 181.393 656.689C180.836 658.358 179.565 659.656 178.478 661.034C176.624 663.392 175.193 666.094 173.445 668.532C171.457 671.261 169.046 673.645 166.662 676.029C161.072 681.567 155.455 687.104 149.043 691.635C147.374 692.8 145.573 693.94 143.533 694.098C141.492 694.257 139.214 693.092 138.817 691.105C138.658 690.31 138.79 689.462 138.923 688.667C139.558 685.037 140.168 681.408 141.228 677.884C141.598 676.692 141.863 675.102 142.632 674.069C143.533 672.85 145.175 671.976 146.473 671.287C153.733 667.551 160.224 663.604 167.589 658.331C171.351 655.629 174.796 652.926 178.717 650.409V650.383Z" fill="#537082"/>
<path d="M223.969 580.651C223.969 580.651 224.313 580.89 224.419 580.784C224.472 580.731 224.499 580.625 224.499 580.545C224.525 579.088 224.048 577.605 223.095 576.465C222.618 575.882 222.008 575.432 221.32 575.114C220.843 574.876 219.703 574.399 219.147 574.637C218.511 574.929 219.73 576.041 219.995 576.412C220.578 577.128 221.187 577.843 221.796 578.532C222.485 579.274 223.201 580.016 223.942 580.704L223.969 580.651Z" fill="#537082"/>
<path d="M229.586 569.338C229.506 568.676 229.745 567.987 230.222 567.537C230.593 567.192 231.096 566.98 231.599 566.875C231.97 566.795 232.394 566.795 232.739 566.954C233.11 567.086 233.401 567.378 233.666 567.696C234.116 568.226 234.461 568.888 234.514 569.577C234.567 570.266 234.249 571.034 233.639 571.378C233.401 571.511 233.11 571.59 232.818 571.617C231.52 571.749 229.771 570.69 229.586 569.312V569.338Z" fill="#537082"/>
<path d="M223.863 575.114L225.055 576.385C226.857 574.743 228.632 573.1 230.407 571.457C230.407 571.457 229.798 570.716 229.745 570.636C229.427 570.265 229.48 570.292 229.082 570.557C228.447 570.98 227.864 571.537 227.307 572.014C226.142 572.994 225.002 574.027 223.89 575.114H223.863Z" fill="#537082"/>
<path d="M240.316 561.205C238.62 562.609 237.137 564.119 235.785 565.841C235.653 566.027 235.918 566.265 236.077 566.106C237.72 564.728 239.389 563.404 241.111 562.159C241.747 561.682 240.952 560.675 240.316 561.205Z" fill="#666666"/>
<path d="M244.158 568.146C243.018 568.411 241.879 568.517 240.687 568.57C239.548 568.623 238.435 568.702 237.375 569.152C237.057 569.285 237.216 569.709 237.534 569.709C239.813 569.576 242.277 570 244.476 569.285C245.112 569.073 244.794 567.987 244.131 568.146H244.158Z" fill="#666666"/>
<path d="M233.692 563.509C233.772 562.503 233.692 561.469 233.613 560.462C233.56 559.403 233.48 558.343 233.348 557.283C233.242 556.488 232.076 556.7 232.129 557.469C232.209 558.528 232.341 559.588 232.5 560.648C232.633 561.655 232.765 562.661 233.056 563.615C233.162 563.96 233.666 563.827 233.692 563.509Z" fill="#666666"/>
<path d="M228.924 564.967C228.5 564.172 228.023 563.483 227.493 562.767C226.963 562.052 226.433 561.257 225.771 560.674C225.161 560.145 224.526 561.072 224.896 561.628C225.373 562.344 226.089 562.979 226.698 563.589C227.281 564.198 227.837 564.781 228.5 565.337C228.712 565.523 229.083 565.231 228.95 564.967H228.924Z" fill="#666666"/>
<path d="M239.495 577.709C238.223 576.014 236.792 574.503 235.15 573.179C234.858 572.94 234.461 573.391 234.726 573.656C236.156 575.139 237.481 576.729 238.647 578.425C239.044 579.008 239.945 578.292 239.495 577.709Z" fill="#666666"/>
<path d="M101.301 683.714C90.8355 690.444 80.4497 697.306 70.1435 704.274C69.799 704.512 70.117 705.042 70.4614 704.83C81.1916 698.551 91.8158 692.139 102.413 685.595C103.606 684.853 102.493 682.972 101.327 683.714H101.301Z" fill="#EBEFEB"/>
<path d="M97.459 675.156C86.7288 679.342 75.9722 683.422 65.1625 687.343C64.5796 687.555 64.7916 688.482 65.4275 688.297C76.4756 685.197 87.3647 681.515 98.0419 677.275C99.3401 676.746 98.7837 674.626 97.459 675.129V675.156Z" fill="#EBEFEB"/>
<path d="M109.435 689.41C104.719 698.603 97.7241 706.207 89.6433 712.592C89.3784 712.804 89.7228 713.202 89.9878 713.043C99.0488 707.797 106.149 699.531 110.998 690.337C111.554 689.304 109.964 688.377 109.435 689.41Z" fill="#EBEFEB"/>
<path d="M277.287 176.049C266.964 176.253 243.297 176.729 243.263 174.963C243.263 174.25 242.177 174.25 242.177 174.963C242.041 175.574 241.905 176.185 241.769 176.796C241.362 177.577 241.871 178.426 242.72 178.46C254.163 179.139 265.776 178.868 277.253 178.698C277.864 181.856 280.716 184.572 284.078 184.402C284.384 184.402 284.655 184.402 284.927 184.369C288.696 184.199 291.854 181.346 291.854 177.442C291.854 173.537 288.696 170.684 284.927 170.515C284.621 170.515 284.35 170.515 284.078 170.481C280.784 170.345 277.966 172.926 277.287 176.015V176.049Z" fill="#65A8DF"/>
<path d="M289.579 199.751C279.256 199.955 255.589 200.43 255.555 198.664C255.555 197.951 254.469 197.951 254.469 198.664C254.333 199.275 254.197 199.887 254.061 200.498C253.654 201.279 254.163 202.128 255.012 202.162C266.455 202.841 278.068 202.569 289.545 202.399C290.156 205.557 293.008 208.274 296.404 208.104C296.676 208.104 296.981 208.104 297.253 208.07C301.022 207.9 304.18 205.048 304.18 201.143C304.18 197.238 301.022 194.386 297.253 194.216C296.947 194.216 296.676 194.216 296.404 194.182C293.11 194.046 290.292 196.627 289.613 199.717L289.579 199.751Z" fill="#65A8DF"/>
<path d="M305.572 157.815C293.314 158.053 265.233 158.63 265.199 156.525C265.199 155.71 263.942 155.71 263.908 156.525C263.739 157.238 263.569 157.985 263.433 158.698C262.958 159.615 263.535 160.599 264.554 160.667C278.102 161.448 291.888 161.143 305.538 160.973C306.251 164.742 309.68 167.934 313.653 167.764C313.993 167.764 314.332 167.764 314.672 167.73C319.154 167.526 322.889 164.131 322.889 159.513C322.889 154.895 319.12 151.499 314.672 151.296C314.332 151.296 313.993 151.296 313.653 151.262C309.748 151.092 306.387 154.182 305.606 157.849L305.572 157.815Z" fill="#65A8DF"/>
<path d="M291.548 136.865C279.29 137.102 251.209 137.68 251.175 135.574C251.175 134.76 249.919 134.76 249.885 135.574C249.715 136.288 249.545 137.035 249.409 137.748C248.934 138.664 249.511 139.649 250.53 139.717C264.078 140.498 277.864 140.192 291.514 140.023C292.227 143.792 295.657 146.984 299.63 146.814C299.969 146.814 300.309 146.814 300.648 146.78C305.13 146.576 308.865 143.181 308.865 138.563C308.865 133.945 305.096 130.549 300.648 130.345C300.309 130.345 299.969 130.345 299.63 130.311C295.725 130.142 292.363 133.232 291.582 136.899L291.548 136.865Z" fill="#65A8DF"/>
<path d="M188.867 241.957C188.629 230.073 188.12 202.942 190.157 202.908C190.972 202.908 190.972 201.686 190.157 201.652C189.444 201.482 188.765 201.346 188.052 201.177C187.169 200.735 186.184 201.279 186.15 202.263C185.369 215.404 185.675 228.715 185.811 241.889C182.178 242.602 179.054 245.862 179.223 249.733C179.223 250.073 179.223 250.378 179.257 250.718C179.461 255.03 182.721 258.663 187.203 258.663C191.685 258.663 194.945 255.03 195.149 250.718C195.149 250.378 195.148 250.039 195.182 249.733C195.352 245.964 192.364 242.704 188.833 241.923L188.867 241.957Z" fill="#65A8DF"/>
<path d="M207.644 221.075C207.44 210.549 206.999 186.508 208.765 186.474C209.478 186.474 209.478 185.388 208.765 185.388C208.153 185.252 207.508 185.116 206.897 184.98C206.116 184.573 205.267 185.082 205.199 185.965C204.52 197.578 204.758 209.394 204.894 221.075C201.668 221.686 198.918 224.606 199.087 228.036C199.087 228.342 199.087 228.613 199.121 228.919C199.291 232.756 202.177 235.948 206.15 235.948C210.123 235.948 213.009 232.756 213.179 228.919C213.179 228.613 213.179 228.342 213.213 228.036C213.383 224.674 210.734 221.822 207.576 221.109L207.644 221.075Z" fill="#65A8DF"/>
<path d="M228.595 254.08C228.357 242.196 227.848 215.065 229.885 215.031C230.7 215.031 230.7 213.809 229.885 213.775C229.172 213.605 228.493 213.469 227.78 213.3C226.897 212.858 225.912 213.402 225.878 214.386C225.097 227.527 225.403 240.838 225.539 254.012C221.905 254.725 218.781 257.985 218.951 261.856C218.951 262.196 218.951 262.501 218.985 262.841C219.189 267.153 222.449 270.786 226.931 270.786C231.413 270.786 234.673 267.153 234.876 262.841C234.876 262.501 234.876 262.162 234.91 261.856C235.08 258.087 232.092 254.827 228.561 254.046L228.595 254.08Z" fill="#65A8DF"/>
<path d="M190.53 96.9327C190.293 109.904 189.715 139.581 191.923 139.615C192.805 139.615 192.805 140.973 191.923 140.973C191.142 141.143 190.395 141.313 189.614 141.482C188.663 141.992 187.576 141.347 187.508 140.294C186.66 125.965 186.965 111.398 187.135 96.9666C183.162 96.1856 179.767 92.6203 179.936 88.3759C179.936 88.0024 179.936 87.6628 179.97 87.2893C180.174 82.5695 183.773 78.5967 188.663 78.5967C193.552 78.5967 197.152 82.5695 197.355 87.2893C197.355 87.6628 197.355 88.0024 197.389 88.3759C197.593 92.5184 194.299 96.0498 190.429 96.8987L190.53 96.9327Z" fill="#65A8DF"/>
<path d="M212.33 109.464C212.092 122.197 211.549 151.331 213.688 151.365C214.537 151.365 214.537 152.689 213.688 152.689C212.941 152.859 212.194 153.029 211.447 153.198C210.496 153.674 209.444 153.097 209.41 152.01C208.561 137.918 208.9 123.623 209.07 109.498C205.165 108.751 201.838 105.219 202.007 101.077C202.007 100.737 202.007 100.364 202.041 100.024C202.245 95.3722 205.776 91.5012 210.564 91.5012C215.352 91.5012 218.883 95.3722 219.087 100.024C219.087 100.364 219.087 100.737 219.121 101.077C219.291 105.151 216.099 108.615 212.296 109.464H212.33Z" fill="#65A8DF"/>
<path d="M227.236 79.4463C226.999 92.4174 226.422 122.094 228.629 122.128C229.511 122.128 229.511 123.487 228.629 123.487C227.848 123.656 227.101 123.826 226.32 123.996C225.369 124.505 224.282 123.86 224.214 122.808C223.366 108.478 223.671 93.9114 223.841 79.4803C219.868 78.6993 216.473 75.134 216.642 70.8895C216.642 70.516 216.642 70.1765 216.676 69.803C216.88 65.0831 220.479 61.1104 225.369 61.1104C230.259 61.1104 233.858 65.0831 234.062 69.803C234.062 70.1765 234.062 70.516 234.096 70.8895C234.299 75.0321 231.006 78.5635 227.135 79.4124L227.236 79.4463Z" fill="#65A8DF"/>
<path d="M251.345 108.716C251.175 118.258 250.768 140.125 252.363 140.159C253.009 140.159 253.009 141.144 252.363 141.144C251.786 141.28 251.243 141.416 250.666 141.517C249.953 141.891 249.172 141.416 249.138 140.635C248.493 130.074 248.73 119.345 248.866 108.716C245.946 108.139 243.433 105.525 243.569 102.401C243.569 102.129 243.569 101.857 243.603 101.586C243.773 98.0884 246.387 95.2021 249.987 95.2021C253.586 95.2021 256.234 98.1223 256.37 101.586C256.37 101.857 256.37 102.129 256.404 102.401C256.54 105.457 254.129 108.037 251.277 108.682L251.345 108.716Z" fill="#65A8DF"/>
<path d="M158.646 134.081C167.373 133.708 187.339 132.825 187.407 134.319C187.407 134.896 188.323 134.896 188.323 134.319C188.425 133.81 188.527 133.3 188.629 132.757C188.935 132.112 188.527 131.399 187.78 131.365C178.103 131.025 168.324 131.501 158.612 131.84C158.035 129.192 155.556 126.951 152.704 127.154C152.466 127.154 152.229 127.188 151.991 127.222C148.799 127.46 146.219 129.905 146.286 133.233C146.354 136.526 149.105 138.869 152.297 138.937C152.534 138.937 152.772 138.937 153.044 138.937C155.828 139.005 158.171 136.73 158.68 134.115L158.646 134.081Z" fill="#65A8DF"/>
<path d="M250.564 233.977C250.292 225.896 249.613 207.458 251.005 207.39C251.549 207.39 251.549 206.541 251.005 206.541C250.53 206.439 250.055 206.338 249.579 206.236C248.968 205.93 248.323 206.338 248.289 207.017C247.915 215.947 248.255 225.013 248.493 233.977C246.014 234.487 243.943 236.762 244.112 239.376C244.112 239.614 244.112 239.818 244.146 240.055C244.316 243.01 246.591 245.42 249.647 245.386C252.703 245.352 254.876 242.84 254.978 239.886C254.978 239.648 254.978 239.444 254.978 239.207C255.046 236.626 252.975 234.453 250.564 233.977Z" fill="#65A8DF"/>
<path d="M142.857 202.229C151.583 201.855 171.549 200.973 171.617 202.467C171.617 203.044 172.534 203.044 172.534 202.467C172.636 201.957 172.738 201.414 172.84 200.905C173.145 200.259 172.738 199.546 171.991 199.512C162.314 199.173 152.534 199.648 142.823 199.988C142.246 197.339 139.767 195.098 136.915 195.302C136.677 195.302 136.439 195.302 136.202 195.37C133.01 195.608 130.429 198.052 130.497 201.38C130.565 204.674 133.315 207.017 136.507 207.085C136.745 207.085 136.983 207.085 137.254 207.085C140.039 207.152 142.382 204.877 142.891 202.263L142.857 202.229Z" fill="#65A8DF"/>
<path d="M141.499 154.352C154.673 153.775 184.792 152.451 184.894 154.692C184.928 155.575 186.286 155.541 186.286 154.658C186.456 153.877 186.592 153.096 186.761 152.315C187.237 151.33 186.592 150.278 185.505 150.21C170.904 149.7 156.133 150.379 141.499 150.923C140.616 146.916 136.881 143.554 132.602 143.826C132.229 143.826 131.855 143.894 131.516 143.894C126.728 144.234 122.789 147.969 122.891 152.926C123.027 157.918 127.135 161.449 131.923 161.551C132.297 161.551 132.67 161.551 133.044 161.551C137.254 161.653 140.752 158.223 141.533 154.284L141.499 154.352Z" fill="#65A8DF"/>
<path d="M160.548 178.97C172.772 178.426 200.717 177.204 200.785 179.309C200.819 180.124 202.075 180.09 202.075 179.309C202.211 178.596 202.381 177.849 202.517 177.136C202.958 176.219 202.347 175.234 201.328 175.2C187.78 174.725 174.096 175.37 160.514 175.88C159.699 172.144 156.236 169.021 152.263 169.326C151.923 169.326 151.584 169.36 151.244 169.394C146.796 169.7 143.163 173.163 143.265 177.781C143.366 182.399 147.203 185.659 151.651 185.761C151.991 185.761 152.331 185.761 152.67 185.761C156.575 185.829 159.835 182.671 160.548 179.003V178.97Z" fill="#65A8DF"/>
<path d="M174.911 212.96C176.167 214.964 178.918 215.371 181.295 215.507C205.607 217.103 230.089 216.254 254.231 212.96C255.657 212.756 257.151 212.519 258.272 211.636C259.834 210.38 260.275 208.172 260.547 206.169C263.976 182.095 265.063 157.715 263.773 133.436C263.705 132.452 263.671 131.433 263.195 130.55C262.482 129.158 260.954 128.445 259.528 127.868C244.724 121.925 228.289 122.231 212.33 122.604C202.143 122.842 191.991 123.114 181.804 123.352C180.548 123.352 179.257 123.419 178.171 123.997C175.692 125.253 175.115 128.513 174.877 131.297C172.636 157.239 172.398 183.351 174.096 209.327C174.164 210.549 174.266 211.84 174.945 212.892L174.911 212.96Z" fill="#65A8DF"/>
<path opacity="0.42" d="M255.589 136.967C255.589 136.152 254.978 135.643 254.197 135.575C231.073 133.707 207.916 132.281 184.724 131.297C183.162 131.229 182.925 133.266 184.011 133.945C183.943 134.047 183.875 134.115 183.875 134.217C182.11 158.393 181.906 182.739 180.989 206.95C180.989 207.459 181.43 207.832 181.906 207.866C204.316 208.919 226.727 208.579 249.104 207.255C249.613 207.255 250.224 206.882 250.326 206.338C254.605 183.452 256.133 160.193 255.555 136.933L255.589 136.967ZM245.81 205.014C234.639 205.761 223.399 206.067 212.194 206.27C206.591 206.372 200.989 206.338 195.386 206.27C189.58 206.202 182.823 208.138 183.06 200.362C183.773 178.359 185.132 156.254 185.064 134.251C207.033 135.1 228.968 136.39 250.903 138.088C255.555 138.461 252.669 204.539 245.81 205.014Z" fill="#F1F1F2"/>
<path d="M214.266 149.327C213.892 147.392 211.142 147.663 210.598 149.327C206.32 162.774 202.585 176.356 199.529 190.142C199.257 191.432 201.125 191.941 201.498 190.685C203.128 185.354 204.792 180.023 206.456 174.692C209.104 175.201 211.753 175.779 214.435 176.22C215.013 180.804 215.556 185.354 216.167 189.938C216.473 192.383 220.242 192.519 220.106 189.938C219.359 176.322 216.914 162.672 214.3 149.293L214.266 149.327ZM207.203 172.315C208.731 167.425 210.293 162.57 211.855 157.68C212.602 162.332 213.213 166.984 213.824 171.636C211.617 171.84 209.41 172.077 207.203 172.281V172.315Z" fill="#F1F1F2"/>
<path d="M233.349 188.307C233.077 180.192 233.111 172.077 232.805 163.961C232.703 160.973 233.484 155.54 232.228 151.975C233.994 151.364 233.926 148.579 232.058 148.138C231.108 147.9 230.089 148.07 229.104 148.104C227.814 148.138 226.829 149.326 227.169 150.651C227.406 151.534 228.289 152.111 229.172 152.111C229.24 152.111 229.342 152.111 229.41 152.111C230.055 163.859 230.225 175.914 229.681 187.662C227.271 187.662 227.271 191.805 229.885 191.771H231.888C233.858 191.737 234.367 189.428 233.349 188.307Z" fill="#F1F1F2"/>
</g>
</g>
<defs>
<filter id="filter0_f_1395_7270" x="440.394" y="567.29" width="100" height="101.943" filterUnits="userSpaceOnUse" color-interpolation-filters="sRGB">
<feFlood flood-opacity="0" result="BackgroundImageFix"/>
<feBlend mode="normal" in="SourceGraphic" in2="BackgroundImageFix" result="shape"/>
<feGaussianBlur stdDeviation="5" result="effect1_foregroundBlur_1395_7270"/>
</filter>
<clipPath id="clip0_1395_7270">
<rect width="1920" height="1000" fill="white"/>
</clipPath>
</defs>
</svg>
