<svg width="9" height="20" viewBox="0 0 9 20" fill="none" xmlns="http://www.w3.org/2000/svg">
<path d="M6.74407 13.9716L5.2257 14.3607L1.85352 0.372855L2.30751 0.162598L6.74407 13.9716Z" fill="#415BA3"/>
<path d="M5.22499 14.3606C5.22499 14.3606 0.0431361 15.3917 1.09111 18.0143C2.13909 20.6368 5.78493 18.4902 6.81273 17.3873C7.84053 16.2844 6.74336 13.9716 6.74336 13.9716L5.98418 14.1667L5.22499 14.3619V14.3606Z" fill="#415BA3"/>
<path d="M8.08783 3.5242C4.03591 4.5629 2.87317 3.09487 2.17578 1.62685L2.30566 0.162598C2.3725 0.299832 4.49368 4.86507 8.9996 3.24344C8.68685 3.35675 8.38293 3.44992 8.08783 3.52546V3.5242Z" fill="#415BA3"/>
</svg>
