<svg width="97" height="90" viewBox="0 0 97 90" fill="none" xmlns="http://www.w3.org/2000/svg">
<path d="M4.82681 45.543C4.50853 45.543 4.19842 45.659 3.95246 45.8694C3.73755 46.0541 3.5684 46.3483 3.4495 46.7446C3.33183 47.1315 3.29424 47.5323 3.27299 47.8739C3.24971 48.278 3.26278 48.6992 3.27463 49.0702C3.28198 49.306 3.28811 49.5082 3.28975 49.7105C2.74184 49.9433 2.20824 50.1852 1.73348 50.5456C1.39395 50.8034 1.16842 51.0461 1.02337 51.3088C0.841965 51.6279 0.792936 52.0042 0.885683 52.3686C0.957184 52.6469 1.14554 52.9259 1.41479 53.1543C1.7347 53.4248 2.10855 53.5993 2.39864 53.7206C2.97637 53.9637 3.55982 54.1035 4.26298 54.2612C4.30424 54.3654 4.32998 54.4761 4.3549 54.5831C4.44969 54.9938 4.5355 55.31 4.6356 55.6197C4.73039 55.9126 4.86562 56.2926 5.074 56.635C5.16675 56.7911 5.26644 56.9255 5.37103 57.0346C5.49361 57.1645 5.6411 57.2695 5.82292 57.3545C5.95857 57.4195 6.10729 57.4522 6.26377 57.4522C6.44314 57.4522 6.63231 57.4084 6.81004 57.3255C6.94078 57.2646 7.07357 57.1706 7.21576 57.0374C7.36325 56.8989 7.4895 56.7302 7.59369 56.5839C7.82249 56.2571 7.9945 55.8812 8.14609 55.5241C8.26621 55.2438 8.37979 54.9308 8.4946 54.5684L8.79245 54.6546L8.8946 54.6824L9.07274 54.7294C9.41022 54.8201 9.77467 54.9145 10.1546 54.9864C10.4431 55.0411 10.7834 55.0975 11.123 55.0975C11.1732 55.0975 11.2218 55.0959 11.2725 55.093C11.4858 55.082 11.6427 55.0599 11.7796 55.0219C11.9716 54.9696 12.1416 54.8887 12.2993 54.7748C12.4153 54.6914 12.5211 54.5774 12.6139 54.4364C12.7123 54.2828 12.7757 54.0982 12.8063 53.8718C12.8263 53.7227 12.8108 53.5478 12.7605 53.3378C12.7213 53.1625 12.6486 52.9742 12.5322 52.7437C12.3393 52.3564 12.0672 51.9993 11.8045 51.6679C11.6096 51.424 11.4045 51.1895 11.1973 50.9554L11.076 50.8156C11.458 50.2547 11.7677 49.7795 11.9924 49.2512C12.1824 48.8063 12.2666 48.4516 12.2649 48.1027C12.2617 47.7137 12.1113 47.3448 11.8519 47.0919C11.6259 46.8704 11.2938 46.7466 10.8652 46.7238C10.8374 46.7221 10.8104 46.7221 10.781 46.7221C10.6274 46.7221 10.4692 46.7421 10.3209 46.7634C10.1367 46.7916 9.95118 46.8304 9.75465 46.8823C9.41635 46.9709 9.0948 47.0853 8.71687 47.2288L8.34833 47.366L8.24986 47.4036L7.88909 47.536C7.69175 47.3227 7.4654 47.098 7.22025 46.8688C6.83782 46.5142 6.50974 46.2498 6.1886 46.0394C6.0219 45.9283 5.84294 45.8302 5.62517 45.7305C5.44703 45.6476 5.24683 45.5908 5.01271 45.5569C4.9502 45.5475 4.88769 45.543 4.82681 45.543Z" fill="#FBDC86"/>
<path d="M16.0649 61.4004C16.3011 61.3723 16.5421 61.4311 16.7427 61.5663C16.9188 61.6844 17.0704 61.8879 17.193 62.1714C17.3143 62.4489 17.3777 62.7434 17.423 62.9951C17.4757 63.293 17.5023 63.6064 17.5268 63.8834C17.5419 64.0591 17.555 64.2098 17.5717 64.3606C17.9991 64.4852 18.4163 64.618 18.8003 64.8443C19.0749 65.0061 19.2633 65.1663 19.3944 65.3489C19.557 65.5696 19.6265 65.8449 19.5893 66.124C19.5603 66.3369 19.4451 66.5608 19.2653 66.7536C19.0516 66.9828 18.7889 67.1446 18.5846 67.2603C18.1768 67.4915 17.7556 67.6464 17.2477 67.8245C17.2261 67.9058 17.2167 67.9904 17.2077 68.0717C17.173 68.3847 17.1366 68.6273 17.0896 68.866C17.0451 69.0915 16.9777 69.3857 16.8526 69.6586C16.7979 69.782 16.735 69.8907 16.6667 69.981C16.5875 70.0884 16.487 70.1791 16.3599 70.2584C16.2643 70.3185 16.1568 70.3556 16.0404 70.3695C15.9072 70.3855 15.763 70.3695 15.6237 70.3238C15.5215 70.2898 15.4145 70.2318 15.2972 70.1448C15.1754 70.0553 15.0672 69.9409 14.9769 69.8412C14.7783 69.619 14.6173 69.355 14.4739 69.1029C14.3607 68.9056 14.2484 68.6833 14.1311 68.4239L13.9178 68.5142L13.8443 68.5436L13.7164 68.5943C13.4737 68.6911 13.2114 68.7928 12.9352 68.8798C12.726 68.946 12.478 69.0175 12.2263 69.0474C12.1888 69.0515 12.1524 69.0547 12.1148 69.0568C11.955 69.0678 11.837 69.0649 11.7316 69.0482C11.5849 69.0265 11.4513 68.9812 11.3238 68.9105C11.2302 68.8582 11.142 68.783 11.0611 68.6866C10.9745 68.5816 10.9111 68.4496 10.8686 68.2842C10.8409 68.1751 10.8368 68.0439 10.8564 67.8837C10.8699 67.7501 10.9075 67.6039 10.9736 67.4225C11.0827 67.1181 11.2539 66.8292 11.4198 66.56C11.5432 66.3618 11.6752 66.1702 11.808 65.9777L11.8864 65.8633C11.5534 65.4801 11.2821 65.1545 11.0688 64.7822C10.8887 64.468 10.7951 64.2123 10.7657 63.9532C10.7338 63.6644 10.8135 63.3767 10.9843 63.1659C11.1322 62.9825 11.3683 62.8615 11.6846 62.8064C11.705 62.8031 11.7254 62.8011 11.7471 62.7982C11.8615 62.7851 11.9808 62.7859 12.0923 62.7884C12.2317 62.7929 12.3726 62.8055 12.5234 62.8268C12.7824 62.8636 13.0308 62.92 13.3246 62.9935L13.6098 63.0634L13.687 63.0826L13.9661 63.1496C14.0944 62.9735 14.2423 62.7872 14.4036 62.596C14.6566 62.2989 14.8772 62.0746 15.0974 61.8899C15.211 61.7927 15.3352 61.7036 15.4884 61.6109C15.6134 61.5337 15.7573 61.474 15.928 61.4282C15.9734 61.4148 16.0196 61.4062 16.0649 61.4004Z" fill="#FBDC86"/>
<path d="M50.4732 0.181195L45.7999 2.11049L6.12265 18.4903C4.93982 18.9786 4.3531 20.3906 4.84135 21.573L30.0268 82.5808L30.2973 83.237C30.7855 84.4198 32.1972 85.0061 33.3804 84.5183L77.731 66.2096C78.9138 65.7213 79.5005 64.3093 79.0123 63.1265L54.2158 3.06165L53.5559 1.46248C53.0681 0.279656 51.6556 -0.307054 50.4732 0.181195Z" fill="#002448"/>
<path d="M45.7965 2.10244L10.2549 16.7748C10.5491 17.8228 10.8391 18.8725 11.1333 19.9205C11.7229 22.0246 12.3276 24.128 13.0169 26.2019C13.3707 27.2679 13.7441 28.3273 14.1486 29.3741C14.547 30.4021 14.9707 31.4211 15.4279 32.4245C15.8777 33.4141 16.3521 34.3922 16.8538 35.3561C17.3286 36.268 17.825 37.1697 18.3398 38.0608C18.3361 38.0559 18.3341 38.051 18.3312 38.0478C19.295 39.7107 20.3206 41.3364 21.3959 42.9282C22.4832 44.5376 23.6121 46.1176 24.7716 47.6742C25.3277 48.4236 25.8866 49.1725 26.4635 49.9059C26.9665 50.5461 27.4788 51.1774 28.0059 51.7968C28.5595 52.4476 29.1254 53.0879 29.706 53.7138C30.2584 54.3087 30.823 54.8942 31.3983 55.467C31.3926 55.4609 31.3869 55.4547 31.3815 55.4494C32.8504 56.9027 34.396 58.2788 36.0295 59.5434C36.861 60.1869 37.7092 60.8051 38.5823 61.3906C39.4162 61.9487 40.2656 62.4786 41.133 62.9799C41.1339 62.9799 41.1343 62.9807 41.1343 62.9807C41.1339 62.9803 41.1334 62.9803 41.133 62.9799H41.1322C41.133 62.9803 41.1339 62.9803 41.1343 62.9807C41.1363 62.9815 41.1363 62.9815 41.1379 62.9824C41.1383 62.9828 41.1388 62.9828 41.1388 62.9832C41.1433 62.9852 41.1473 62.9881 41.1518 62.9905C41.149 62.9893 41.1469 62.9881 41.1449 62.9869C41.1473 62.9885 41.1498 62.9905 41.1522 62.9918L41.1518 62.9901C42.5863 63.8105 44.0666 64.5529 45.5939 65.1932C46.3837 65.5241 47.1853 65.8326 47.9967 66.1092C48.7763 66.376 49.5632 66.6183 50.3591 66.8381C50.3587 66.8381 50.3583 66.8381 50.3583 66.8381L50.3501 66.8356C50.3534 66.8361 50.3558 66.836 50.3583 66.8381C50.3587 66.8381 50.3595 66.8381 50.3603 66.8381C50.3644 66.8381 50.3677 66.8393 50.3722 66.8405L50.3709 66.841C50.3677 66.8393 50.3644 66.8381 50.3603 66.8381C50.364 66.8389 50.3673 66.8401 50.3709 66.841C50.3709 66.841 50.3722 66.8405 50.373 66.8418L50.3722 66.8405C52.0555 67.2981 53.7699 67.6495 55.4994 67.8812C56.337 67.9919 57.1786 68.0814 58.0224 68.139C58.8632 68.1966 59.7049 68.2309 60.5461 68.2391H60.5233C62.522 68.2538 64.5224 68.1333 66.5056 67.8726C67.4981 67.7402 68.4864 67.5805 69.4678 67.3856C70.4537 67.1903 71.4318 66.9639 72.4022 66.7086C72.4022 66.7086 72.401 66.709 72.3993 66.7098C74.6563 66.1104 76.8741 65.3607 79.0318 64.4655C79.073 64.4483 79.1139 64.4312 79.1551 64.414C79.2295 63.9887 79.1911 63.5413 79.0179 63.1221L54.2218 3.05729L53.5615 1.45853C53.072 0.272024 51.6543 -0.317148 50.4682 0.173144L45.7965 2.10244Z" fill="#002B57"/>
<path d="M48.8482 4.49351L44.787 6.1699L10.308 20.4035C9.27637 20.8292 8.74482 22.0129 9.14767 22.9885L29.8417 73.1168L30.0643 73.6557C30.4668 74.6314 31.6786 75.0955 32.7103 74.6694L71.2505 58.7594C72.2821 58.3333 72.8137 57.1496 72.4108 56.1739L52.0363 6.82117L51.4938 5.5076C51.0913 4.53192 49.8799 4.06737 48.8482 4.49351Z" fill="#CAF2FB"/>
<path d="M10.3033 20.3975C9.78608 20.6107 9.39344 21.0152 9.18262 21.4871C17.4498 25.8765 25.7197 30.265 33.9885 34.6539C42.4297 39.134 50.8725 43.6148 59.3158 48.0961C63.4857 50.3089 67.654 52.5201 71.8231 54.7338L67.1866 43.5021C64.2362 41.9364 61.2859 40.3707 58.3352 38.8046C49.8494 34.3013 41.3629 29.7968 32.8772 25.2938C27.8558 22.6287 22.8336 19.9636 17.8117 17.2988L10.3033 20.3975Z" fill="#FEFEFE"/>
<path d="M16.2084 40.1142C21.6723 43.0142 27.1358 45.9135 32.5985 48.8136C39.7665 52.619 46.9354 56.4233 54.1043 60.2271C56.09 61.28 58.0744 62.3338 60.0589 63.3875L66.791 60.6079C60.7923 57.4247 54.7931 54.2411 48.7944 51.0583C41.159 47.004 33.5231 42.9517 25.8868 38.8991C21.5416 36.593 17.1964 34.2875 12.8516 31.9814L16.2084 40.1142Z" fill="#FEFEFE"/>
<path d="M52.2963 68.4872C52.2097 68.5232 52.123 68.5649 52.0381 68.6086C51.3635 68.9702 50.8699 69.572 50.6489 70.3025C50.4262 71.0343 50.5018 71.8081 50.8609 72.4815C51.5576 73.7852 53.1114 74.3438 54.4756 73.7807C54.5622 73.7448 54.6493 73.7031 54.7338 73.659C55.4084 73.2978 55.902 72.696 56.123 71.9654C56.3457 71.2337 56.2705 70.4594 55.9109 69.7865C55.2147 68.4835 53.6609 67.9254 52.2963 68.4872Z" fill="#0A4F70"/>
<path d="M41.1393 62.9835L41.1388 62.9827L41.1348 62.9814L41.1393 62.9835Z" fill="#002B57"/>
<path d="M36.6558 56.1748C36.6538 56.1748 36.6415 56.1871 36.6415 56.1891C36.4074 56.5139 36.1426 56.8265 35.8546 57.1158C35.0738 57.9015 34.159 58.5417 33.1359 59.0181C32.5704 59.2812 32.0111 59.4802 31.4738 59.6109C31.1016 59.702 30.7617 59.7621 30.4336 59.7952L32.1316 62.8346L46.5017 88.1525L46.5368 88.215L46.5899 88.3085C47.1795 89.352 48.3562 90.0004 49.6604 90.0004C50.3537 90.0004 51.0148 89.8166 51.5729 89.4689C52.3827 88.9655 52.9694 88.1447 53.1827 87.2184C53.3972 86.3073 53.2456 85.3884 52.7304 84.4863L42.9319 67.2203L36.6689 56.185L36.6558 56.1748Z" fill="#DEDEDE"/>
<path d="M36.6326 56.1891C36.3956 56.5164 36.1305 56.8265 35.8494 57.1097C35.0718 57.8945 34.1579 58.5336 33.1323 59.0124C32.6988 59.2142 32.2661 59.3793 31.8408 59.5056C32.061 59.9056 32.2813 60.3068 32.5011 60.7072C34.9623 65.1946 37.3872 69.7008 39.8988 74.1612C40.5267 75.2762 41.1596 76.3867 41.7986 77.494C42.4266 78.5832 43.0534 79.6725 43.6957 80.7528C44.3375 81.8343 44.9917 82.9068 45.6748 83.9625C45.9453 84.3793 46.2178 84.796 46.4977 85.2066C46.7534 85.5809 47.0194 85.9474 47.3099 86.2943C47.4774 86.4892 47.6474 86.6775 47.8333 86.8512C48.0143 87.0228 48.2043 87.1825 48.407 87.3259C48.5193 87.4019 48.6354 87.4763 48.7551 87.54C48.8785 87.6038 49.0047 87.6634 49.1338 87.7137L49.1109 87.7043C49.24 87.7529 49.3724 87.7958 49.5097 87.8232C49.6311 87.8489 49.7549 87.8657 49.8795 87.8775C49.8701 87.8775 49.8627 87.8763 49.8533 87.8763C50.1303 87.902 50.4086 87.9065 50.684 87.8624L50.6827 87.8636C50.829 87.8379 50.9695 87.7954 51.1052 87.7349C51.1036 87.7366 51.1019 87.7366 51.1011 87.7382C51.1983 87.6912 51.2882 87.6348 51.372 87.5666C51.448 87.5012 51.515 87.4264 51.573 87.346C51.6298 87.2597 51.6772 87.167 51.7176 87.0689C51.7181 87.0677 51.7185 87.0669 51.7193 87.0661C51.7201 87.0632 51.7213 87.0612 51.7221 87.0583C51.7802 86.8941 51.812 86.7253 51.8304 86.5533C51.8304 86.5627 51.8288 86.5701 51.8288 86.5795C51.8582 86.2395 51.8312 85.8988 51.7765 85.5633C51.7753 85.5584 51.774 85.5539 51.7736 85.5478C51.6788 85.0015 51.5195 84.4671 51.3324 83.9446C51.1301 83.3832 50.896 82.8324 50.6451 82.291C50.6468 82.2927 50.6468 82.2943 50.6484 82.2955C50.3256 81.6018 49.9759 80.9215 49.6106 80.2494C49.4876 80.0226 49.363 79.7975 49.2396 79.5707C49.1318 79.3734 49.0255 79.1756 48.9189 78.9759C48.7195 78.6077 48.5222 78.24 48.3228 77.8715C46.4654 74.4264 44.6096 70.9661 43.0321 67.3817L42.939 67.217L36.6759 56.1818L36.6559 56.165C36.6526 56.165 36.6326 56.1875 36.6326 56.1891ZM47.3136 86.2963C47.3152 86.2996 47.3185 86.3025 47.3214 86.3053C47.3181 86.3025 47.3152 86.3008 47.3136 86.2963Z" fill="#FEFEFE"/>
<path d="M51.7744 85.5475C51.7748 85.5504 51.7756 85.5532 51.776 85.5557C51.7752 85.5528 51.7748 85.5496 51.7744 85.5459V85.5475Z" fill="#FEFEFE"/>
<path d="M51.7756 85.563L51.776 85.5642C51.7756 85.5614 51.7752 85.5589 51.7744 85.5557C51.7748 85.5585 51.7752 85.5606 51.7756 85.563Z" fill="#FEFEFE"/>
<path d="M51.7184 87.0663C51.718 87.0676 51.7176 87.0684 51.7172 87.0696L51.7168 87.0712C51.7168 87.0696 51.7184 87.0663 51.7201 87.0635L51.7184 87.0663Z" fill="#FEFEFE"/>
<path d="M51.3799 87.5606C51.3815 87.5589 51.3844 87.5573 51.386 87.5557C51.3832 87.5573 51.3815 87.5589 51.3799 87.5606Z" fill="#FEFEFE"/>
<path d="M52.2305 83.6413C52.2342 83.636 52.2379 83.6299 52.242 83.6237L51.4248 82.1855L52.2305 83.6413Z" fill="#73BCFE"/>
<path d="M51.123 81.6465C51.1205 81.6465 51.116 81.6514 51.116 81.6538C51.0466 81.767 50.9706 81.8798 50.8901 81.9872C50.6662 82.2888 50.4214 82.565 50.1632 82.8081C49.5896 83.3519 48.9289 83.8185 48.1984 84.1968C47.8217 84.3905 47.4503 84.5523 47.0948 84.6785C46.6871 84.8219 46.3136 84.922 45.9528 84.9841C45.6137 85.0438 45.3106 85.072 45.027 85.072H45.0262C44.9747 85.072 44.9249 85.072 44.8734 85.0687C44.8321 85.0671 44.7913 85.0638 44.75 85.0614L45.8846 87.083C46.066 87.0756 46.2397 87.0589 46.4129 87.0377C47.2333 86.9298 48.0407 86.7165 48.8129 86.4027C49.1884 86.2466 49.5316 86.0783 49.84 85.8989C50.1587 85.7143 50.457 85.5161 50.7271 85.3086C50.9669 85.1218 51.1757 84.938 51.3649 84.7472C51.5695 84.5392 51.7473 84.3357 51.9087 84.1261C52.0353 83.9549 52.1379 83.8034 52.2327 83.6481L51.1283 81.6514L51.123 81.6465Z" fill="#0A4F70"/>
<path d="M30.7839 52.9571C30.786 52.9579 30.7876 52.9587 30.7884 52.9587C30.7516 53.3207 30.7659 53.7268 30.8313 54.2016C30.9359 54.9199 31.1324 55.6132 31.4107 56.2596C31.6141 56.7254 31.8487 57.1254 32.1057 57.4494C32.2748 57.6561 32.4464 57.8269 32.6156 57.9544C32.7614 58.0582 32.9028 58.137 33.0442 58.1946C33.1614 58.2375 33.2771 58.2649 33.3972 58.2784C33.4474 58.2833 33.496 58.2861 33.543 58.2861C33.6117 58.2861 33.6787 58.2816 33.7224 58.2751C33.8683 58.2543 34.01 58.2142 34.1682 58.1489C34.343 58.0684 34.5163 57.9617 34.6989 57.82C35.0029 57.5736 35.2799 57.2786 35.5704 56.8909C35.82 56.5436 36.0088 56.2098 36.171 55.8396C34.1771 53.8645 32.5355 52.8271 31.4009 52.8271C31.1745 52.828 30.967 52.8713 30.7839 52.9571Z" fill="#ECF0F1"/>
<path d="M30.7808 52.9496C30.7808 52.9517 30.7804 52.9537 30.7804 52.9557C30.7832 52.9574 30.7873 52.9586 30.7885 52.9586C30.7518 53.3206 30.7657 53.7271 30.831 54.2019C30.9356 54.9202 31.1321 55.6135 31.4104 56.2599C31.6143 56.7253 31.8484 57.1257 32.1054 57.4497C32.2745 57.6564 32.4461 57.8268 32.6153 57.9547C32.7611 58.058 32.9025 58.1369 33.0439 58.1949C33.1611 58.2374 33.2768 58.2648 33.3973 58.2787C33.4475 58.2828 33.4962 58.286 33.5432 58.286C33.6118 58.286 33.6784 58.2815 33.7225 58.2754C33.8684 58.2542 34.0098 58.2145 34.1679 58.1491C34.3427 58.0687 34.5164 57.962 34.699 57.8202C35.003 57.5739 35.28 57.2785 35.5705 56.8907C35.8022 56.5676 35.9824 56.2554 36.1368 55.9159C36.1433 55.9008 36.1499 55.8856 36.1564 55.8697L36.1699 55.8329C34.1785 53.8571 32.5389 52.8164 31.4006 52.8164C31.1746 52.8172 30.9663 52.8609 30.7808 52.9496Z" fill="#FEFEFE"/>
<path d="M30.7779 52.9512C30.7456 52.9651 30.7154 52.9818 30.6864 52.999C29.5023 53.6768 29.4807 56.2145 30.6247 60.1442C30.7105 60.1642 30.7836 60.1683 30.8568 60.1699H30.9556C31.0835 60.1699 31.2098 60.1654 31.336 60.158C31.5599 60.1364 31.7842 60.1008 32.0028 60.0526C32.2091 60.0032 32.4016 59.9489 32.5908 59.8855C32.896 59.7789 33.1758 59.6588 33.4447 59.5166C33.7066 59.3834 33.9534 59.2383 34.1977 59.0725C34.804 58.6602 35.356 58.1707 35.8385 57.6187C36.183 57.2126 36.4726 56.7934 36.6998 56.3738C36.5217 56.1806 36.3464 56.0028 36.174 55.832C36.0114 56.2051 35.8214 56.5413 35.5705 56.8898C35.2796 57.278 35.0034 57.5738 34.6998 57.8202C34.5168 57.9611 34.3427 58.0686 34.1683 58.1483C34.0101 58.214 33.8684 58.2541 33.7221 58.2757C33.678 58.2819 33.6114 58.2864 33.5431 58.2864C33.4962 58.2864 33.4475 58.2831 33.3977 58.279C33.2768 58.2647 33.1611 58.2365 33.0443 58.194C32.9021 58.1368 32.7624 58.058 32.6161 57.9542C32.4469 57.8267 32.2749 57.6567 32.1054 57.45C31.848 57.1256 31.6143 56.7248 31.4108 56.2594C31.1317 55.6126 30.9364 54.9201 30.8302 54.201C30.7661 53.7271 30.7518 53.3209 30.7873 52.9589C30.7857 52.9589 30.7804 52.9553 30.7771 52.954H30.7791L30.7779 52.9512Z" fill="#DEDEDE"/>
<path d="M46.2382 47.542C45.9657 47.542 45.7165 47.7422 45.6581 48.0074C45.589 48.3228 45.7912 48.6386 46.1083 48.7117C46.6877 48.8486 47.2609 48.999 47.8345 49.1497C48.4866 49.3213 49.075 49.475 49.6723 49.6118C49.7115 49.6225 49.7544 49.6274 49.7998 49.6274C50.0711 49.6274 50.3199 49.428 50.3783 49.1636C50.449 48.8462 50.2468 48.5295 49.9281 48.4576C49.3377 48.3207 48.7404 48.1643 48.1622 48.0127L48.083 47.9914C47.5109 47.8411 46.9389 47.6903 46.3641 47.5563C46.3228 47.5469 46.2815 47.542 46.2382 47.542Z" fill="#002448"/>
<path d="M64.988 13.9707C64.9076 13.9707 64.8209 14.0071 64.7678 14.063C64.6796 14.1554 64.664 14.2869 64.7257 14.4156C64.9549 14.8929 65.1543 15.3333 65.3374 15.7619L65.3345 15.7541C65.5278 16.2154 65.7656 16.8107 65.9486 17.4334C66.0855 17.9016 66.2023 18.3735 66.2988 18.7731C66.4303 19.3177 66.5492 19.8665 66.6681 20.4139C66.7384 20.7379 66.8082 21.062 66.8814 21.3851C67.2291 22.921 67.6781 24.6901 68.6007 26.248C69.0297 26.9724 69.5629 27.6278 70.1847 28.1961C70.8568 28.8078 71.6442 29.3189 72.5242 29.7152C73.4734 30.1417 74.4319 30.4143 75.3728 30.525C75.6552 30.5585 75.9293 30.5753 76.1883 30.5753C76.4 30.5753 76.6088 30.5638 76.8082 30.5417C76.907 30.5295 77.0043 30.5156 77.1019 30.4988C77.1951 30.5802 77.3127 30.6243 77.4394 30.6243C77.584 30.6243 77.7213 30.5675 77.8263 30.4645C77.9052 30.3865 77.98 30.3044 78.0486 30.2194L78.1091 30.1928L78.1704 30.1654C78.2709 30.1197 78.3011 29.9926 78.2729 29.8962C78.3996 29.6939 78.5172 29.4549 78.6214 29.1881C78.8041 28.7162 78.9475 28.2182 79.0476 27.707C79.1481 27.1951 79.1951 26.6619 79.1873 26.1226C79.182 25.6466 79.1219 25.1469 79.0051 24.5945C78.9103 24.1479 78.7656 23.6936 78.5618 23.2066C78.3534 22.7118 78.123 22.2668 77.8574 21.8464C77.6135 21.4607 77.3205 21.0677 76.9352 20.6072C76.6329 20.246 76.2835 19.8828 75.8974 19.5269C75.408 19.0746 74.8682 18.6583 74.2934 18.2898C73.7659 17.9523 73.1706 17.6364 72.4736 17.3251C71.616 16.9402 70.7191 16.6093 69.8513 16.2898C69.4395 16.1378 69.0276 15.9862 68.6182 15.8281L68.6951 15.8645C67.9903 15.5821 67.4117 15.3309 66.8773 15.0677C66.2693 14.7678 65.6773 14.4124 65.1176 14.0112C65.0828 13.9842 65.0379 13.9707 64.988 13.9707Z" fill="#00A08E"/>
<path d="M64.9688 13.9618C65.3871 14.356 65.7683 14.7908 66.1254 15.2402C66.688 15.9478 67.1996 16.6915 67.7258 17.4248C67.9845 17.7824 68.2459 18.1366 68.5185 18.4818C68.7804 18.8107 69.0435 19.1376 69.3123 19.4587C69.8557 20.11 70.4167 20.7458 70.9965 21.3635L70.9781 21.3451C72.0702 22.5088 73.2277 23.6132 74.4583 24.6309C75.6616 25.6274 76.9306 26.5451 78.2618 27.3631L78.2389 27.3496C78.5016 27.5102 78.7672 27.667 79.0344 27.8203C79.0422 27.7823 79.0499 27.7447 79.0573 27.7071C79.159 27.196 79.2064 26.6619 79.197 26.1222C79.1921 25.6581 79.1316 25.1576 79.0144 24.5917C78.9171 24.1398 78.7725 23.6851 78.569 23.2029C78.3623 22.7081 78.1327 22.264 77.8646 21.8428C77.6305 21.4702 77.3384 21.0763 76.9429 20.6015C76.6389 20.2395 76.29 19.8759 75.9055 19.5213C75.4083 19.0637 74.8681 18.6481 74.299 18.2833C73.7715 17.9458 73.1762 17.6291 72.478 17.3186C71.5959 16.9235 70.6737 16.5836 69.8602 16.2845L69.7446 16.242C69.3703 16.1035 68.9961 15.9634 68.6235 15.8216L68.6933 15.8702C67.9285 15.5478 67.3683 15.3003 66.8817 15.0608C66.2688 14.7564 65.6768 14.4006 65.1236 14.0034C65.0856 13.9761 65.0398 13.9609 64.9896 13.9609C64.9822 13.9609 64.9757 13.9609 64.9688 13.9618Z" fill="#00C4AE"/>
<path d="M65.5273 14.5464C65.4877 14.5861 65.4938 14.6437 65.5289 14.6837C65.7132 14.8872 65.8864 15.1005 66.0568 15.315L66.0384 15.2921C66.3886 15.7407 66.7203 16.2048 67.0366 16.678C67.3528 17.154 67.6527 17.6406 67.9583 18.1247C68.2623 18.6069 68.5671 19.0922 68.8878 19.5654C69.2057 20.034 69.5481 20.4904 69.904 20.9329C70.0715 21.1417 70.239 21.35 70.4122 21.5523C70.6022 21.7758 70.7983 21.9952 70.9965 22.2113C71.3842 22.6358 71.7891 23.0432 72.2071 23.4371C73.059 24.2448 73.9689 24.9884 74.9225 25.6748C76.0024 26.4519 77.148 27.1383 78.3709 27.6691C78.4591 27.7087 78.5429 27.7287 78.6405 27.7026C78.7333 27.6785 78.8138 27.6147 78.8612 27.531C78.9543 27.3651 78.898 27.1294 78.7215 27.0411C77.3903 26.3657 76.1233 25.5686 74.9246 24.6787C74.9429 24.6922 74.9609 24.7057 74.9789 24.7192C73.9464 23.9486 72.9662 23.1118 72.0355 22.2232C71.8042 22.0025 71.5742 21.7803 71.3495 21.5535C71.1277 21.3333 70.9115 21.1033 70.6942 20.8781C70.4813 20.6563 70.277 20.425 70.0735 20.1966C69.868 19.9658 69.6703 19.7292 69.4803 19.4869C69.1628 19.0804 68.847 18.6739 68.5459 18.2567C68.2353 17.8281 67.9265 17.3987 67.6147 16.9726C67.3042 16.5468 66.9896 16.1239 66.664 15.71C66.3473 15.3068 66.0098 14.9223 65.6646 14.5432C65.6478 14.5248 65.6241 14.5166 65.6 14.5166C65.5731 14.517 65.5457 14.5268 65.5273 14.5464Z" fill="#00E9CF"/>
<path d="M66.1874 16.9482C66.1674 16.9984 66.1936 17.0532 66.2422 17.0744C66.3255 17.1112 66.4109 17.1443 66.4975 17.1749C66.5919 17.2068 66.6892 17.2313 66.7864 17.2542C66.9858 17.3012 67.1925 17.3179 67.3976 17.3179C67.4238 17.3179 67.4463 17.3147 67.4679 17.2979C67.4892 17.2828 67.5031 17.2587 67.5059 17.2325C67.5092 17.2084 67.5014 17.1827 67.4859 17.1627C67.4724 17.1427 67.4446 17.1247 67.4205 17.1247C67.3049 17.1247 67.1925 17.1185 67.0781 17.1063C66.9641 17.094 66.853 17.0711 66.7419 17.0442C66.7509 17.0475 66.7586 17.0487 66.7676 17.052C66.7006 17.0336 66.6352 17.0152 66.5699 16.9939C66.4833 16.9666 66.3983 16.9302 66.3145 16.8951C66.3027 16.8902 66.2904 16.8877 66.2781 16.8877C66.2406 16.8873 66.2026 16.911 66.1874 16.9482Z" fill="#00E9CF"/>
<path d="M67.3372 20.0798C67.3143 20.0982 67.2976 20.1251 67.2947 20.1558C67.2914 20.1836 67.2988 20.2138 67.3172 20.2363C67.3372 20.2624 67.3613 20.273 67.3919 20.2792C67.5725 20.32 67.7552 20.3535 67.9394 20.3797C68.1249 20.407 68.3137 20.4222 68.5008 20.4311C68.86 20.4495 69.2207 20.4205 69.5733 20.3629C69.633 20.3535 69.6738 20.2988 69.6661 20.2412C69.6571 20.1852 69.6007 20.1366 69.5431 20.1484C69.4307 20.1742 69.3163 20.1925 69.2007 20.206C69.0851 20.2195 68.9678 20.2244 68.8526 20.2277H68.8783C68.6426 20.231 68.4085 20.2171 68.174 20.1893C67.9198 20.1607 67.6677 20.1133 67.4181 20.0569C67.4132 20.0561 67.4087 20.0557 67.4034 20.0557C67.3801 20.0557 67.3548 20.0663 67.3372 20.0798Z" fill="#00E9CF"/>
<path d="M72.6413 23.3285C72.4677 23.3996 72.292 23.4629 72.1114 23.5152C71.6738 23.6292 71.2252 23.6795 70.775 23.6901H70.8052C70.1069 23.6979 69.4075 23.6202 68.7198 23.503C68.6679 23.4952 68.6177 23.5381 68.612 23.5896C68.6058 23.6443 68.6455 23.6884 68.6969 23.6978C69.0271 23.7538 69.3572 23.809 69.6873 23.8527C70.0493 23.8997 70.4134 23.9242 70.7782 23.9291C71.4507 23.9397 72.1339 23.8637 72.7668 23.6259C72.8501 23.5957 72.8869 23.4936 72.8534 23.4143C72.8285 23.3526 72.7668 23.3154 72.7034 23.3154C72.6826 23.3158 72.6618 23.3199 72.6413 23.3285ZM72.1106 23.5156C72.1053 23.5173 72.1 23.5189 72.0947 23.5201C72.1004 23.5189 72.1053 23.5173 72.1106 23.5156Z" fill="#00E9CF"/>
<path d="M76.0662 26.2242C75.895 26.3655 75.7193 26.5003 75.5302 26.6143C75.3716 26.7026 75.2102 26.7798 75.0423 26.8497C74.8764 26.9175 74.7048 26.9727 74.5328 27.0225C74.5365 27.0213 74.5398 27.0205 74.5434 27.0196C74.5377 27.0213 74.5312 27.0229 74.5246 27.0245L74.5054 27.0303C74.5083 27.029 74.5112 27.0282 74.514 27.027C73.6466 27.2623 72.7412 27.3269 71.8448 27.3404C71.8538 27.3404 71.8611 27.3387 71.8705 27.3387C71.8187 27.3404 71.7684 27.3404 71.7169 27.3404C71.6638 27.342 71.6152 27.3694 71.609 27.427C71.6029 27.474 71.6409 27.5353 71.6944 27.5353C72.4899 27.532 73.2871 27.5291 74.0764 27.418C74.4875 27.36 74.892 27.2689 75.2858 27.1381C75.4795 27.0744 75.6634 26.9935 75.8444 26.904C76.0225 26.8158 76.1929 26.712 76.3449 26.5874C76.4421 26.5081 76.465 26.3667 76.3878 26.2666C76.3432 26.2086 76.2725 26.1768 76.2019 26.1768C76.1536 26.1772 76.1054 26.1919 76.0662 26.2242ZM75.5212 26.6205C75.5138 26.6246 75.5065 26.6295 75.4991 26.6335C75.5061 26.629 75.5134 26.6246 75.5212 26.6205ZM74.5144 27.0274C74.5177 27.0266 74.5218 27.0254 74.5251 27.0245C74.5279 27.0237 74.5308 27.0229 74.5332 27.0221C74.5271 27.0241 74.521 27.0258 74.5144 27.0274Z" fill="#00E9CF"/>
<path d="M67.6271 15.9902C67.5752 15.9919 67.5266 16.0389 67.5328 16.0924C67.5495 16.2427 67.563 16.3935 67.572 16.5455C67.581 16.6893 67.5781 16.8327 67.5687 16.9765C67.5687 16.9745 67.5687 16.9729 67.5687 16.9716C67.5613 17.0476 67.5507 17.122 67.5385 17.1968C67.5295 17.2482 67.5569 17.3014 67.61 17.3136C67.6602 17.3247 67.7178 17.2928 67.7272 17.2409C67.7423 17.1571 67.7546 17.0734 67.7624 16.9896C67.7697 16.8895 67.773 16.789 67.773 16.6885C67.7714 16.4858 67.7485 16.284 67.7272 16.083C67.7211 16.0323 67.6827 15.9902 67.6296 15.9902H67.6271ZM67.5691 16.9806C67.5687 16.9863 67.5687 16.9921 67.5683 16.9974C67.5683 16.9917 67.5687 16.9863 67.5691 16.9806Z" fill="#00E9CF"/>
<path d="M69.4532 17.5416C69.3997 17.5584 69.3788 17.6131 69.3911 17.6646C69.4254 17.8109 69.4569 17.9588 69.4855 18.1067C69.5664 18.5917 69.6077 19.0823 69.5684 19.5735C69.5533 19.7197 69.5312 19.864 69.499 20.0078C69.4822 20.0809 69.528 20.1569 69.6027 20.1737C69.6395 20.1826 69.6771 20.1753 69.709 20.1553C69.7368 20.1385 69.7654 20.1034 69.7686 20.0699C69.7895 19.8827 69.8034 19.6956 69.8079 19.5085C69.814 19.2801 69.8034 19.0538 69.7854 18.827C69.7519 18.4147 69.6738 18.0053 69.5766 17.6054C69.5668 17.5633 69.5235 17.5371 69.4814 17.5371C69.4716 17.5375 69.4622 17.5388 69.4532 17.5416Z" fill="#00E9CF"/>
<path d="M72.479 19.0284C72.4243 19.0452 72.4002 19.1011 72.4137 19.153C72.4639 19.3446 72.5048 19.5383 72.5399 19.7328C72.5383 19.7234 72.5358 19.7128 72.5342 19.7038C72.5644 19.8807 72.5902 20.0584 72.6102 20.2366C72.6314 20.4188 72.6404 20.5998 72.651 20.7824C72.6731 21.1595 72.6711 21.5362 72.6392 21.9121C72.6171 22.1324 72.5938 22.3526 72.5534 22.57C72.5142 22.7857 72.459 22.9985 72.4104 23.2135C72.3802 23.3507 72.4651 23.4905 72.6036 23.5223C72.7393 23.5542 72.8807 23.4664 72.9125 23.3307C72.9902 22.9851 73.0069 22.6308 73.0237 22.2782C73.0404 21.9146 73.0208 21.5465 72.9934 21.1828C72.9403 20.4756 72.79 19.7773 72.6041 19.0926C72.593 19.0509 72.5514 19.0235 72.5089 19.0235C72.4986 19.0231 72.4888 19.0247 72.479 19.0284Z" fill="#00E9CF"/>
<path d="M75.8293 21.8266C75.7758 21.8434 75.7517 21.8981 75.7656 21.9496C75.8122 22.1245 75.8542 22.301 75.8886 22.4795C75.8882 22.4779 75.8877 22.4758 75.8869 22.4746C75.9617 22.8975 76.012 23.3236 76.0393 23.7522C76.0683 24.187 76.0446 24.6229 76.0058 25.056V25.0544C75.9772 25.3375 75.9282 25.617 75.8918 25.8985C75.8812 25.9745 75.8845 26.0431 75.9286 26.1101C75.9666 26.1694 76.0275 26.2139 76.0973 26.2302C76.2375 26.2621 76.4034 26.1722 76.4291 26.0231C76.4855 25.695 76.4945 25.3616 76.4916 25.0298C76.4884 24.6674 76.443 24.3116 76.4005 23.9541C76.3576 23.6072 76.2984 23.2619 76.2211 22.9196C76.1435 22.5743 76.0479 22.2303 75.9515 21.8895C75.9405 21.8474 75.8992 21.8213 75.8579 21.8213C75.8473 21.8221 75.8379 21.8233 75.8293 21.8266Z" fill="#00E9CF"/>
<path d="M79.8672 17.874C79.6825 17.874 79.4921 17.9018 79.3001 17.9566C79.0876 18.0182 78.8715 18.1347 78.675 18.2932C78.4519 18.4759 78.2644 18.6985 78.0854 18.9943C77.8922 19.3102 77.7773 19.6603 77.6911 19.9614C77.5669 20.3978 77.5167 20.8489 77.4795 21.237C77.3647 22.4452 77.3536 23.6774 77.3434 24.8688C77.3369 25.601 77.3308 26.3581 77.2997 27.1013C77.2221 28.7197 77.0207 30.003 76.6668 31.1393C76.3812 32.0112 75.9894 32.832 75.502 33.5801L75.5159 33.5646C75.4485 33.6577 75.3831 33.7525 75.3165 33.8461C75.2425 33.9503 75.2148 34.0377 75.2246 34.1362C75.234 34.2387 75.283 34.3347 75.3598 34.4005C75.4297 34.4598 75.5273 34.4937 75.6278 34.4937C75.7153 34.4937 75.7974 34.4667 75.8574 34.4185C75.9138 34.4549 75.9841 34.4732 76.0556 34.4732C76.1361 34.4732 76.2145 34.45 76.2815 34.405C77.8464 33.3664 79.2658 31.9262 80.3869 30.2404C81.5514 28.4868 82.3236 26.6245 82.6819 24.7046C82.8625 23.7293 82.9213 22.7475 82.8568 21.7861C82.829 21.3641 82.7579 20.9461 82.6451 20.5437C82.552 20.2082 82.4114 19.8724 82.2161 19.5161C81.8966 18.9351 81.4451 18.4665 80.9095 18.1604C80.6733 18.026 80.4073 17.9337 80.1401 17.894C80.0486 17.8801 79.9571 17.874 79.8672 17.874Z" fill="#745A33"/>
<path d="M81.0187 19.0629C81.1919 19.5512 81.3108 20.0594 81.3962 20.5706C81.4857 21.1074 81.5454 21.6508 81.565 22.1938C81.5727 22.3948 81.5772 22.5971 81.5682 22.7993C81.5625 22.9133 81.5515 23.0277 81.5392 23.1401C81.5135 23.3591 81.4845 23.5781 81.4481 23.7938C81.2929 24.7188 81.0432 25.6259 80.7147 26.5031C80.3723 27.4175 79.9539 28.3033 79.4702 29.1503C78.9681 30.025 78.4038 30.865 77.7775 31.6544C77.1613 32.4303 76.4921 33.1682 75.7664 33.8448C75.603 33.998 75.4371 34.1476 75.2676 34.295C75.2909 34.3371 75.3207 34.3743 75.3554 34.4049C75.4269 34.4658 75.527 34.5006 75.6292 34.5006C75.7191 34.5006 75.8024 34.4728 75.8653 34.4225C75.9111 34.4593 75.9805 34.4805 76.0569 34.4805C76.1391 34.4805 76.2196 34.456 76.2866 34.409C77.8518 33.3717 79.2729 31.931 80.394 30.244C81.5576 28.4933 82.3302 26.6297 82.691 24.7049C82.872 23.7313 82.9296 22.7487 82.8659 21.784C82.8385 21.3644 82.767 20.9444 82.653 20.5399C82.5603 20.2024 82.4189 19.8674 82.2228 19.5115C81.9045 18.9289 81.4514 18.459 80.9129 18.153C80.7678 18.0684 80.6089 18.0002 80.4418 17.9512C80.7029 18.2797 80.8786 18.669 81.0187 19.0629Z" fill="#664F2D"/>
<path d="M61.2635 28.6232C59.1503 29.0216 57.0968 29.9147 55.3244 31.2063C53.6325 32.4402 52.169 34.0295 50.9784 35.9314C49.8389 37.7476 48.9948 39.8015 48.4698 42.0303C48.0318 43.8921 47.8217 45.9444 47.8262 48.3023C47.8324 50.6116 48.0636 52.8964 48.511 55.0965C48.9964 57.4818 49.7343 59.6113 50.7063 61.4233C51.894 63.6321 53.4838 65.313 55.3081 66.2883C56.3075 66.8239 57.4621 67.1888 58.8345 67.4049C59.849 67.563 60.8897 67.6333 61.8968 67.7003L62.5113 67.7428C63.3967 67.8049 64.0753 67.8752 64.7099 67.9712L64.7523 67.9757C65.8718 68.1583 66.8455 68.4321 67.7337 68.8108C67.9499 68.9068 68.1627 69.0102 68.3776 69.1123L68.653 69.2431C68.9844 69.4012 69.3178 69.5561 69.6524 69.7085C70.3139 70.0124 70.912 70.2686 71.4791 70.4937C72.7118 70.9849 73.8219 71.3015 74.8748 71.4641C75.424 71.5479 75.9735 71.592 76.5091 71.592C77.0885 71.5904 77.6634 71.5372 78.2946 71.4322C79.4795 71.2329 80.7077 70.8218 82.1569 70.1391C86.5201 68.0868 90.3231 64.4268 92.8636 59.8356C93.4479 58.7815 93.9786 57.6403 94.4424 56.4416C94.8563 55.3723 95.1941 54.292 95.4462 53.2302C95.9455 51.1505 96.178 49.0222 96.1404 46.9062C96.0991 44.5606 95.7143 42.4356 94.9948 40.5904C94.598 39.5682 94.1049 38.6477 93.5312 37.8501C93.2195 37.4199 92.8832 37.0166 92.5302 36.653C92.1895 36.3032 91.8017 35.9658 91.3404 35.6185C90.4567 34.9537 89.4177 34.4246 88.2573 34.0471C87.3062 33.7366 86.2447 33.5388 84.9164 33.4216C83.9914 33.3411 83.0472 33.317 82.1328 33.2937C82.0323 33.2904 81.9301 33.2888 81.83 33.2863C81.8174 33.292 81.8039 33.2953 81.7904 33.2953C81.5653 33.2953 81.3385 33.2969 81.1134 33.2986C80.6006 33.3018 80.0878 33.3059 79.5755 33.2786C79.2237 33.2618 78.874 33.2344 78.5255 33.1813C78.1847 33.1294 77.8456 33.0612 77.515 32.9595C77.3018 32.8933 77.0918 32.8181 76.8871 32.7307C76.7853 32.6947 76.6852 32.6559 76.5859 32.6138C76.4609 32.5603 76.3383 32.5039 76.2178 32.4422C76.2141 32.4406 76.2105 32.4389 76.2068 32.4377C75.3929 32.0741 74.6248 31.5981 73.8824 31.1368C73.5845 30.9513 73.2863 30.767 72.9852 30.5893C72.3747 30.2285 71.7725 29.9229 71.1441 29.6537C70.5415 29.3934 69.8722 29.1638 69.156 28.9689C67.8473 28.6081 66.434 28.4014 64.9587 28.3495C64.7564 28.3417 64.5542 28.3389 64.3536 28.3389C63.3052 28.3393 62.2661 28.4349 61.2635 28.6232Z" fill="#F24C64"/>
<path d="M84.6832 33.3842C84.6824 33.3842 84.6767 33.3879 84.6759 33.3883C84.9243 33.4867 85.1862 33.5922 85.4591 33.7127C86.3625 34.118 87.1719 34.6087 87.8636 35.1713C88.5226 35.7045 89.1052 36.3145 89.5955 36.9854C90.1316 37.7192 90.5798 38.5376 90.9279 39.4197C91.265 40.2785 91.5224 41.2056 91.6927 42.1759C91.8562 43.0956 91.9571 44.0705 91.9926 45.0732C92.0262 46.0296 92.0102 47.0347 91.9453 48.0607C91.9195 48.4746 91.8897 48.917 91.8329 49.3714C91.7781 49.8171 91.7095 50.2474 91.629 50.649C91.4586 51.5229 91.2233 52.4177 90.9295 53.3092C90.313 55.1719 89.4901 56.9754 88.4834 58.6689C87.949 59.5658 87.3868 60.4038 86.8119 61.1588C86.1623 62.0148 85.5232 62.7563 84.8573 63.4264C84.1549 64.1377 83.4273 64.7739 82.6947 65.3169C81.9 65.904 81.0967 66.3931 80.3086 66.7694C79.4469 67.1779 78.5971 67.4742 77.7824 67.6498C77.4629 67.7197 77.2063 67.763 76.975 67.7871C76.7254 67.8133 76.4904 67.8259 76.2571 67.8259L76.1342 67.8247C75.5973 67.8157 75.0408 67.7495 74.4798 67.629C73.9716 67.5183 73.4466 67.372 72.8284 67.1677C72.4754 67.0488 72.1256 66.9259 71.7759 66.8012L71.1916 66.5957C70.6964 66.4237 70.1187 66.2268 69.5348 66.0756C69.2055 65.9898 68.9167 65.9248 68.6519 65.8766C68.3622 65.8247 68.0901 65.7876 67.8192 65.7626C67.5492 65.7394 67.2382 65.7271 66.92 65.7271C65.7604 65.7271 64.5817 65.8942 63.568 66.0515L63.1484 66.1185L63.0401 66.1353C62.5106 66.2182 61.9631 66.3036 61.423 66.3694C60.6847 66.4625 60.0775 66.5091 59.5129 66.5148L59.3592 66.5165C58.3382 66.5165 57.327 66.4151 56.3554 66.2158C55.6486 66.0719 54.954 65.8828 54.29 65.6527C54.6046 65.8946 54.9462 66.1103 55.3013 66.3003C56.2949 66.8347 57.4504 67.2016 58.8334 67.4219C59.8851 67.5816 60.9073 67.6507 61.8961 67.7173L62.5106 67.7602C63.414 67.8223 64.0918 67.8925 64.7083 67.9882L64.7512 67.9927C65.8626 68.172 66.8362 68.4437 67.7273 68.8229C67.9005 68.9005 68.0713 68.981 68.2429 69.0631L68.3708 69.124L68.6462 69.2547C68.9779 69.4133 69.3109 69.5681 69.646 69.7205C70.2862 70.0151 70.884 70.2721 71.4731 70.5054C72.6952 70.9936 73.8073 71.3132 74.8737 71.4811C75.4535 71.5661 76.0034 71.609 76.508 71.609C77.0629 71.6073 77.6312 71.5571 78.2964 71.4492C79.4886 71.2453 80.7172 70.8331 82.1627 70.1512C86.5312 68.0981 90.3355 64.4364 92.876 59.842C93.4643 58.7817 93.9963 57.6397 94.4564 56.4471C94.8735 55.3713 95.2114 54.2906 95.4606 53.2353C95.9607 51.1515 96.1957 49.022 96.1573 46.906C96.1164 44.5579 95.7299 42.4305 95.0084 40.5833C94.6182 39.5729 94.125 38.6499 93.5428 37.8413C93.2249 37.4017 92.8887 36.9976 92.5414 36.6405C92.2084 36.2982 91.8194 35.9599 91.3516 35.6056C90.4584 34.936 89.419 34.4073 88.2623 34.0334C87.3259 33.7258 86.2624 33.5256 84.9161 33.4038C84.8385 33.396 84.7617 33.3903 84.684 33.3838L84.6832 33.3842Z" fill="#F23B53"/>
<path d="M59.6251 30.6868C59.3738 30.7125 59.1336 30.7946 58.8966 30.8751C58.6604 30.9544 58.437 31.061 58.2241 31.1885C57.9352 31.3634 57.6615 31.5595 57.418 31.7956C57.4172 31.7964 57.4163 31.7977 57.4155 31.7981C57.1422 32.0044 56.8905 32.2373 56.6646 32.4967C56.3544 32.8543 56.1138 33.3241 56.1113 33.8054C56.1097 34.2316 56.2985 34.6785 56.6662 34.9098C57.0221 35.1349 57.4633 35.1317 57.8605 35.0422C58.3136 34.9388 58.7442 34.7288 59.1381 34.4898C59.5475 34.2434 59.9319 33.957 60.2817 33.633C60.4353 33.4933 60.5767 33.3392 60.714 33.1828C60.8676 33.0063 60.9709 32.8069 61.0715 32.5968C61.181 32.3717 61.2541 32.1102 61.2598 31.8606C61.2659 31.5775 61.1822 31.3221 61.0106 31.097C60.8749 30.9217 60.6514 30.7971 60.4431 30.7362C60.2743 30.6864 60.1084 30.668 59.9405 30.668C59.8367 30.6688 59.7317 30.6757 59.6251 30.6868Z" fill="#FEFEFE"/>
<path d="M60.7664 35.0083C60.578 35.0435 60.3876 35.1297 60.2221 35.2228C60.0317 35.3323 59.8495 35.4586 59.682 35.6012C59.3445 35.8921 59.0397 36.2815 58.909 36.7117C58.8559 36.8898 58.8559 37.0675 58.9368 37.2383C59.0389 37.4524 59.2653 37.6216 59.5088 37.6289C59.5141 37.6293 59.5202 37.6293 59.5259 37.6293C59.7216 37.7503 59.9684 37.7777 60.2025 37.7094C60.7533 37.5513 61.1472 37.0753 61.4801 36.6385C61.6174 36.4604 61.7355 36.2524 61.8135 36.0408C61.8863 35.8402 61.8953 35.6106 61.8074 35.4128C61.6673 35.0974 61.3494 34.9834 61.0311 34.9834C60.9412 34.9834 60.8522 34.9924 60.7664 35.0083Z" fill="#FEFEFE"/>
<path d="M56.6463 37.2542C56.4821 37.2603 56.4318 37.2726 56.2766 37.3245C56.2112 37.3453 56.1515 37.3747 56.0907 37.4111C55.9052 37.5194 55.7466 37.653 55.5991 37.8115C55.4394 37.9802 55.2964 38.1555 55.175 38.3529C55.0668 38.5294 54.965 38.7255 54.918 38.9281C54.8751 39.0495 54.8645 39.1745 54.8886 39.3008C54.9131 39.4221 54.965 39.5304 55.0439 39.6264C55.1967 39.8078 55.4149 39.8863 55.6425 39.8744C55.7793 39.9149 55.926 39.9279 56.0706 39.9185C56.4408 39.8924 56.7415 39.6656 56.9716 39.3907C57.0994 39.237 57.1844 39.0409 57.2514 38.855C57.3 38.7198 57.3291 38.5739 57.356 38.4321C57.376 38.3304 57.3912 38.2283 57.394 38.1249C57.4014 37.9165 57.356 37.6779 57.213 37.5182C57.0761 37.3649 56.8825 37.2542 56.6741 37.2542C56.6655 37.2538 56.6557 37.2538 56.6463 37.2542Z" fill="#FEFEFE"/>
<path d="M52.8121 40.6058C52.7332 40.6437 52.663 40.685 52.5886 40.7336C52.4942 40.7961 52.4211 40.875 52.3483 40.962C52.2327 41.0977 52.1551 41.2435 52.0758 41.4017C51.9271 41.6999 51.9054 42.1015 52.0623 42.3994C52.2147 42.6887 52.56 42.8284 52.864 42.6825C53.0719 42.5837 53.19 42.381 53.2015 42.1702C53.2525 42.0938 53.2979 42.0129 53.3375 41.9283C53.409 41.7747 53.447 41.6206 53.4805 41.4552C53.5124 41.2877 53.4956 41.1144 53.4838 40.9453C53.476 40.8296 53.38 40.7079 53.2889 40.6442C53.2088 40.5886 53.1124 40.5596 53.016 40.5596C52.9457 40.5592 52.8758 40.5739 52.8121 40.6058Z" fill="#FEFEFE"/>
<path d="M57.9861 41.6722C57.4913 41.9006 57.0945 42.3219 56.7705 42.7464C56.632 42.9274 56.5103 43.1206 56.404 43.3212C56.2868 43.5411 56.1765 43.7621 56.1005 43.9991C55.8933 44.3782 55.7307 44.8089 55.745 45.2428C55.7544 45.463 55.8014 45.6746 55.9031 45.8708C56.0188 46.0992 56.2063 46.2846 56.4159 46.426C57.2314 46.9719 58.2034 46.3439 58.7811 45.7445C59.1554 45.3551 59.4594 44.9249 59.7062 44.4452C59.9129 44.0391 60.071 43.5946 60.1078 43.137C60.1229 42.9421 60.1111 42.7325 60.0518 42.545C60.0122 42.4171 59.9738 42.3092 59.9043 42.1968C59.8557 42.1188 59.8087 42.0461 59.7536 41.9746C59.6898 41.8925 59.6061 41.8271 59.5284 41.7588C59.4341 41.6751 59.2988 41.6154 59.186 41.5668C59.0688 41.517 58.9335 41.4969 58.8057 41.4892C58.7795 41.4871 58.7534 41.4863 58.7272 41.4863C58.471 41.4867 58.2181 41.5656 57.9861 41.6722Z" fill="#FEFEFE"/>
<path d="M53.1915 45.4627C53.0158 45.4656 52.8319 45.5166 52.6832 45.5922C52.2816 45.7949 52.0458 46.1933 51.9012 46.6027C51.8297 46.8078 51.7888 47.0239 51.7476 47.2355C51.7145 47.4071 51.6932 47.582 51.6838 47.7573C51.6687 48.011 51.681 48.2762 51.7284 48.5254C51.7557 48.6656 51.8011 48.8036 51.8575 48.9332C51.9425 49.1281 52.0659 49.2466 52.2191 49.3834C52.3731 49.5207 52.5615 49.5526 52.7547 49.5906C52.9374 49.6269 53.1592 49.5493 53.3239 49.4856C53.464 49.432 53.5948 49.3307 53.7075 49.2302C53.8505 49.1023 53.9796 48.943 54.0891 48.7816C54.2031 48.6141 54.302 48.4314 54.378 48.2447C54.4511 48.0666 54.4846 47.8672 54.5226 47.6801C54.5896 47.3365 54.5925 46.9941 54.5533 46.6455C54.5333 46.469 54.4752 46.2897 54.4009 46.1299C54.3138 45.9428 54.1529 45.7312 53.9674 45.6311C53.777 45.5273 53.6842 45.4774 53.4652 45.4546C53.4297 45.4509 53.3941 45.4492 53.359 45.4492C53.3026 45.4488 53.2462 45.4533 53.1915 45.4627Z" fill="#FEFEFE"/>
<path d="M52.2533 52.3914C52.1663 52.5177 52.0784 52.6578 52.0298 52.8049C51.9701 52.9859 51.9428 53.1718 51.9277 53.3601C51.9125 53.5505 51.9354 53.7389 51.9644 53.926C51.9918 54.1042 52.0588 54.2729 52.136 54.4327C52.1957 54.5573 52.3489 54.632 52.4813 54.632C52.6259 54.632 52.7505 54.5528 52.8269 54.4327C52.9058 54.308 52.9622 54.1708 53.0075 54.031C53.0259 53.9763 53.0353 53.9187 53.0443 53.8606C53.0451 53.857 53.0455 53.8529 53.0463 53.8488C53.0627 53.8108 53.077 53.7712 53.0901 53.7311C53.1219 53.64 53.1358 53.5428 53.1481 53.4468C53.1722 53.2641 53.1448 53.0709 53.0872 52.8976C53.0525 52.7935 53.0047 52.6958 52.9471 52.6043C52.9209 52.5238 52.869 52.4568 52.8024 52.4094C52.7795 52.382 52.7558 52.3559 52.7313 52.3301C52.6766 52.2721 52.5944 52.2402 52.5168 52.2402C52.4024 52.2406 52.3154 52.3019 52.2533 52.3914Z" fill="#FEFEFE"/>
<path d="M53.9115 41.4141C53.4829 41.4141 53.0364 41.4496 52.5845 41.5191C51.7134 41.6564 50.8533 41.9489 50.0288 42.3893L49.9786 42.4151L49.9267 42.4445C49.5389 42.6565 49.1631 42.9001 48.8096 43.1689C48.6388 43.2996 48.4701 43.4349 48.3071 43.5783C47.5794 44.2128 46.9461 44.9736 46.4231 45.8398C46.4048 45.8675 46.399 45.8778 46.3929 45.89C46.3855 45.9006 46.3778 45.9129 46.3717 45.9252C46.3467 45.9656 46.3382 45.9799 46.3308 45.9954C46.3116 46.0269 46.3108 46.0269 46.2895 46.0637L46.2544 46.1278C46.2368 46.1585 46.2266 46.176 46.218 46.1932L46.1935 46.243L46.1494 46.3194C45.9214 46.7456 45.7257 47.1807 45.5664 47.6126C45.1402 48.7623 44.92 50.0416 44.929 51.3122C44.9306 51.3339 44.9306 51.3547 44.9306 51.3743C44.9306 51.416 44.9306 51.4295 44.9322 51.4434V51.4871L44.9335 51.5275L44.9355 51.5741L44.9412 51.6211L44.9384 51.6665C44.9396 51.691 44.9412 51.7151 44.9412 51.7396L44.9453 51.8046L44.9506 51.8981L44.9551 51.95C44.9563 51.9909 44.958 52.006 44.9592 52.0211C44.9796 52.2883 45.007 52.5363 45.0462 52.8015C45.1484 53.474 45.3204 54.1359 45.5578 54.768C45.5958 54.873 45.6366 54.9763 45.6791 55.0797C45.6836 55.0948 45.6901 55.1091 45.6979 55.121C46.0334 55.9283 46.475 56.6809 47.0111 57.3592C48.0113 58.6229 49.3114 59.5659 50.772 60.0868C51.6276 60.3937 52.5289 60.5493 53.4507 60.5493C54.1048 60.5493 54.7614 60.4692 55.4016 60.3103C56.886 59.9438 58.2812 59.1475 59.4363 58.0076C60.5762 56.8807 61.4395 55.4507 61.9339 53.8744C62.1942 53.0434 62.3494 52.1747 62.3952 51.2934C62.6665 51.2007 62.9415 51.1337 63.2332 51.0916C63.3831 51.0761 63.5339 51.0704 63.6826 51.0704C63.8787 51.0704 64.0761 51.0826 64.2681 51.1071C64.6162 51.1643 64.959 51.2579 65.2863 51.3854C65.5882 51.5214 65.8738 51.6881 66.1357 51.8806C66.2587 51.9827 66.3743 52.0902 66.4851 52.2042C66.3355 52.5849 66.2101 52.9866 66.1116 53.3935C65.8003 54.6622 65.7476 56.0354 65.9592 57.3653L65.9698 57.4303L65.9776 57.4756L65.9899 57.5496L66.0017 57.6072L66.0078 57.6468L66.023 57.7261C66.0332 57.7743 66.0368 57.7947 66.043 57.8143C66.0475 57.8474 66.0536 57.8719 66.0597 57.896L66.0703 57.9463L66.0871 58.0047H66.0863C66.0826 58.0047 66.083 58.0088 66.0949 58.0586L66.11 58.106C66.1721 58.3847 66.2456 58.6494 66.3306 58.9138C66.5512 59.5986 66.8528 60.267 67.227 60.9015C67.2879 61.0065 67.3504 61.1099 67.4158 61.2137L67.4432 61.2549C67.9625 62.0566 68.5904 62.7826 69.3104 63.4143C70.6595 64.5942 72.3069 65.3979 74.0752 65.7382C74.6917 65.8567 75.3291 65.9164 75.9697 65.9164C77.1624 65.9164 78.3313 65.7125 79.4443 65.3092C81.0998 64.7119 82.5826 63.6762 83.7327 62.3144C84.4383 61.4776 85.003 60.5354 85.4111 59.5144C85.7478 59.579 86.055 59.6304 86.3635 59.6823L86.4154 59.6913C87.3968 59.8539 88.4117 60.0227 89.3968 60.2543C90.3345 60.484 91.5553 60.8247 92.6817 61.4237C93.0952 61.6562 93.4405 61.8993 93.7367 62.1657C93.9263 62.352 94.0864 62.5424 94.2262 62.7475C94.3238 62.915 94.4035 63.0858 94.4689 63.2696C94.4934 63.3603 94.5118 63.4502 94.5281 63.543C94.5804 63.8241 94.8329 64.0361 95.116 64.0361C95.1463 64.0361 95.179 64.0329 95.2108 64.0284C95.3669 64.0006 95.5079 63.9103 95.5986 63.7808C95.6889 63.6508 95.7244 63.496 95.6979 63.3452C95.4033 61.6921 93.9798 60.4619 91.3473 59.5835C90.4513 59.2844 89.465 59.0392 88.1506 58.788C87.6125 58.6862 87.0708 58.598 86.529 58.5093L86.2773 58.4689C86.1102 58.4419 85.9431 58.4145 85.776 58.3863C85.8471 58.1543 85.9084 57.894 85.9598 57.6178C86.2892 55.8319 86.1343 53.9876 85.5112 52.2838C84.9086 50.6307 83.8712 49.1509 82.5102 48.0048C81.2714 46.9625 79.7854 46.2242 78.2112 45.868L78.1707 45.8614L78.1716 45.8577C78.1119 45.8443 78.0514 45.832 77.9906 45.821C77.937 45.8087 77.8807 45.7985 77.8259 45.7891C77.41 45.7131 76.9769 45.6612 76.5389 45.6359C76.3379 45.6249 76.1385 45.6191 75.9375 45.6191C75.8921 45.6191 75.8464 45.6191 75.8006 45.6208C74.9638 45.6343 74.1017 45.7605 73.2396 45.9967C72.257 46.2639 71.3124 46.6933 70.4319 47.273L70.38 47.3127L70.324 47.3458C69.924 47.6138 69.5298 47.9231 69.1502 48.2667C68.9737 48.4269 68.8021 48.5944 68.6362 48.7676C67.9882 49.443 67.4338 50.2172 66.988 51.0683C66.3988 50.5584 65.6491 50.1927 64.8258 50.0089C64.4532 49.9259 64.0745 49.8843 63.7006 49.8843C63.5821 49.8843 63.462 49.8892 63.3427 49.8977C63.1118 49.9141 62.8683 49.9484 62.6199 49.9999C62.539 50.0183 62.4585 50.0379 62.3776 50.062C62.3621 49.6669 62.3123 49.2514 62.235 48.8314C61.9319 47.2126 61.2365 45.7066 60.2244 44.4772C59.2994 43.356 58.1276 42.4927 56.8353 41.9795L56.6543 41.9097L56.5187 41.861C56.1767 41.7409 55.8139 41.6421 55.4396 41.5677C55.2709 41.5326 55.1005 41.5048 54.9297 41.4807L54.8766 41.4745L54.8133 41.4655C54.513 41.4308 54.2094 41.4141 53.9115 41.4141ZM48.5163 44.8359C48.94 44.4155 49.4074 44.0351 49.905 43.7062C50.3365 43.4382 50.7912 43.2085 51.2566 43.023C51.418 42.9597 51.5822 42.9001 51.7477 42.8469C52.4031 42.6549 53.0797 42.547 53.7579 42.527C53.9021 42.527 54.0447 42.5315 54.1877 42.5397C54.7225 42.5667 55.2619 42.6521 55.7902 42.7934C56.4394 42.9887 57.0629 43.2682 57.6435 43.6237C58.2261 44.002 58.7675 44.4612 59.2524 44.9907C59.7023 45.5051 60.0949 46.0767 60.4201 46.6892C60.7356 47.3213 60.9815 47.9889 61.1515 48.6732C61.3112 49.3887 61.3921 50.1355 61.3921 50.8935C61.3721 51.6546 61.2696 52.4129 61.0861 53.1467C60.8839 53.8679 60.6073 54.56 60.2637 55.2027C59.9192 55.8115 59.509 56.3831 59.0445 56.9024L59.0939 56.8734L59.0371 56.9101L59.0093 56.9408C58.5211 57.4536 57.9785 57.9054 57.3975 58.2834C56.8185 58.6405 56.1959 58.9265 55.5471 59.132C54.8913 59.3199 54.2225 59.4225 53.5597 59.4376C52.8701 59.436 52.1853 59.3444 51.5254 59.1655C50.8729 58.9661 50.2429 58.6797 49.6525 58.314C49.0911 57.9442 48.5698 57.5009 48.1044 56.9943C47.6534 56.4811 47.2542 55.9034 46.9187 55.2779C46.6041 54.6474 46.3574 53.9749 46.1841 53.2779C46.1596 53.1672 46.1371 53.0573 46.1171 52.9465L46.1093 52.9057C46.0558 52.6164 46.0166 52.328 45.9925 52.0497C45.9623 51.7331 45.9463 51.4087 45.9463 51.0855C45.959 50.6087 46.0031 50.1327 46.0787 49.6681L46.082 49.6224L46.0971 49.559C46.1494 49.2718 46.2001 49.0324 46.2568 48.8073C46.3038 48.6344 46.3574 48.4624 46.4137 48.2937L46.4268 48.2557C46.6037 47.74 46.8207 47.2396 47.0715 46.7689C47.1643 46.6063 47.2599 46.4465 47.3588 46.2912C47.6472 45.8451 47.9729 45.4197 48.3271 45.0279L48.4807 44.8714L48.5126 44.8334C48.515 44.8334 48.5155 44.8359 48.5163 44.8359ZM75.9726 64.7315C75.5767 64.7315 75.1804 64.7078 74.7955 64.6617C74.0143 64.5477 73.2433 64.3381 72.5042 64.0382C71.7953 63.7285 71.1257 63.3375 70.5124 62.8766C69.9036 62.3953 69.3524 61.8453 68.8744 61.2423C68.4111 60.6241 68.0201 59.9536 67.7116 59.2505C67.6658 59.1381 67.6233 59.0253 67.5809 58.9114L67.5625 58.8717C67.4648 58.5882 67.3745 58.2911 67.2965 57.9884C67.2103 57.6529 67.142 57.3159 67.0938 56.9849C67.0317 56.4901 67.0072 55.9831 67.0227 55.4777L67.0256 55.4037L67.0272 55.3531C67.0379 55.0936 67.0595 54.8301 67.0942 54.5473C67.1216 54.359 67.1551 54.1719 67.1947 53.9876C67.1952 53.9835 67.2017 53.9508 67.2033 53.9484C67.3263 53.376 67.4975 52.8195 67.712 52.294C67.7925 52.1098 67.8775 51.9288 67.9686 51.7511C68.2329 51.2362 68.5414 50.7427 68.8858 50.2847L68.9602 50.1919L69.0366 50.0992L69.0713 50.0583C69.4991 49.5521 69.978 49.0863 70.4965 48.6745C70.9508 48.3292 71.4382 48.0224 71.9457 47.7621C72.1222 47.6722 72.3015 47.5873 72.4838 47.5068C73.2188 47.2097 73.9816 47.0001 74.751 46.8849C74.9164 46.8637 75.0823 46.8469 75.2498 46.8346C75.5052 46.8154 75.7528 46.8056 75.9853 46.8056C76.3702 46.8056 76.7583 46.8285 77.1395 46.8743C77.9093 46.9834 78.6713 47.186 79.4038 47.4773C80.136 47.7928 80.8322 48.1972 81.4733 48.6802C82.0694 49.1537 82.6128 49.698 83.0884 50.2977C83.5501 50.9143 83.939 51.5786 84.2438 52.2732C84.5409 53.0025 84.7513 53.7743 84.8689 54.5674C84.9674 55.3698 84.9678 56.1808 84.8706 56.978C84.7537 57.7604 84.5441 58.5248 84.2487 59.2513C83.9345 59.9655 83.5394 60.6396 83.0745 61.2554C82.5977 61.8584 82.0436 62.4096 81.4275 62.8946C80.8134 63.3538 80.1413 63.7432 79.4296 64.0521C78.7117 64.3393 77.9575 64.5428 77.1869 64.6572C76.7889 64.7066 76.3808 64.7315 75.9726 64.7315Z" fill="#002448"/>
<path d="M71.3891 57.8946C70.6124 57.6903 70.2701 56.4327 70.6239 55.0873C70.9781 53.743 71.8962 52.8168 72.6725 53.0215C73.4488 53.2258 73.7916 54.4834 73.4377 55.8284C73.0831 57.1735 72.1654 58.0993 71.3891 57.8946Z" fill="#002448"/>
<path d="M55.5131 54.0264C54.7368 53.8221 54.394 52.5645 54.7478 51.2191C55.1021 49.8749 56.0201 48.9486 56.7964 49.1533C57.5727 49.358 57.9155 50.6152 57.5617 51.9603C57.2075 53.3053 56.2898 54.2311 55.5131 54.0264Z" fill="#002448"/>
<path d="M62.842 53.2374C62.9343 53.2815 62.9858 53.4069 62.9347 53.5013C62.9335 53.5038 62.9323 53.5054 62.931 53.5078C62.8975 53.5675 62.8697 53.6304 62.8469 53.695C62.8203 53.7877 62.8036 53.8805 62.7962 53.9761C62.7958 54.0635 62.8036 54.1489 62.8195 54.2339C62.8416 54.3197 62.8702 54.4022 62.9082 54.4815C62.9519 54.5612 63.0021 54.6347 63.0606 54.7038C63.1255 54.7708 63.1958 54.8292 63.273 54.8827C63.3482 54.926 63.4246 54.9624 63.5059 54.9918C63.5942 55.0171 63.6832 55.0327 63.7756 55.0404C63.8667 55.0412 63.9553 55.0335 64.0452 55.0167C64.129 54.9951 64.2091 54.9661 64.2871 54.9293C64.3619 54.888 64.4321 54.841 64.4979 54.7863C64.5698 54.7197 64.6315 54.647 64.6859 54.5673C64.7304 54.4925 64.7668 54.4145 64.7966 54.3324C64.826 54.2294 64.8428 54.1256 64.8481 54.0182C64.8505 53.9687 64.8914 53.9177 64.9306 53.8911C64.9731 53.8613 65.027 53.8494 65.0781 53.8592C65.13 53.869 65.1762 53.898 65.2052 53.9418C65.2379 53.9892 65.2403 54.0345 65.2379 54.0897C65.226 54.3177 65.1606 54.542 65.0426 54.7393C64.9306 54.9293 64.7766 55.085 64.5927 55.2084C64.4084 55.3326 64.1886 55.4024 63.9692 55.4294C63.7233 55.4592 63.472 55.4098 63.2452 55.315C63.0176 55.2198 62.8228 55.0502 62.6749 54.8553C62.5323 54.6674 62.4501 54.4382 62.4146 54.2077C62.3876 54.0382 62.4007 53.8584 62.4399 53.6913C62.4661 53.5757 62.509 53.4605 62.5649 53.355C62.5666 53.3514 62.5682 53.3481 62.5703 53.3448C62.5711 53.3432 62.5727 53.3403 62.5743 53.3379C62.5764 53.3338 62.5792 53.3293 62.5817 53.3252C62.5825 53.324 62.5829 53.3232 62.5837 53.3224C62.6369 53.2325 62.7435 53.19 62.842 53.2374Z" fill="#002448"/>
<path d="M73.6058 41.6801L73.6331 41.6777C74.1238 41.6368 74.7465 41.7827 75.3426 42.0764C75.8709 42.3342 76.3191 42.6783 76.6047 43.0464C76.8944 43.4162 76.9826 43.7647 76.8527 44.0266C76.7297 44.2554 76.485 44.3886 76.1238 44.4233C75.6111 44.4658 74.9949 44.326 74.387 44.0298C73.8595 43.7704 73.4113 43.4255 73.1249 43.0591C72.8364 42.6877 72.7486 42.3391 72.8769 42.0785C73.0015 41.8472 73.247 41.7132 73.6058 41.6801Z" fill="#B0152C"/>
<path d="M57.6109 38.857L57.6775 38.8513C57.7457 38.8456 57.8143 38.8415 57.8842 38.8387C58.4566 38.8186 59 38.9097 59.4139 39.0952C59.8302 39.2795 60.0648 39.5377 60.0746 39.8221C60.0783 39.9238 60.0541 40.0227 60.0023 40.1155C59.7779 40.5326 59.0813 40.8546 58.2274 40.9367C58.1028 40.9469 58.0317 40.953 57.9569 40.9559C57.3788 40.9735 56.8366 40.8819 56.4305 40.6989C56.0137 40.5159 55.7784 40.2568 55.7682 39.9704C55.7633 39.8736 55.7886 39.7739 55.8434 39.6738C56.066 39.2595 56.7602 38.9384 57.6109 38.857Z" fill="#B0152C"/>
</svg>
