<svg width="10" height="6" viewBox="0 0 10 6" fill="none" xmlns="http://www.w3.org/2000/svg">
<path d="M4.90056 4.83476C2.37784 5.49408 0.44632 3.23421 0.221301 2.29467C0.191765 2.16233 0.184322 2.06674 0.221279 1.99621C0.489534 1.41224 1.40535 1.83639 3.43782 1.63573C5.47029 1.43507 8.19982 -0.137053 8.54356 0.291173C8.57351 0.326646 8.59816 0.379113 8.62153 0.42372C9.12632 1.44694 7.63039 4.10957 4.90715 4.82562L4.90056 4.83476Z" fill="white"/>
<path d="M4.90119 4.83456C2.37847 5.49388 0.44695 3.23402 0.221931 2.29447C1.05361 2.79681 2.48432 3.11322 4.18456 2.85353C5.93981 2.58491 7.7003 1.40392 8.62216 0.423522C9.12695 1.44674 7.63102 4.10937 4.90778 4.82542L4.90119 4.83456Z" fill="#D8424D"/>
</svg>
