<svg width="89" height="90" viewBox="0 0 89 90" fill="none" xmlns="http://www.w3.org/2000/svg">
<path d="M45.2703 1.79563C45.2515 1.58105 45.0948 1.31243 44.8002 0.98932C44.5056 0.666206 44.0071 0.568892 43.3033 0.69745L2.19375 9.27835C1.78161 9.31482 1.39022 9.49877 1.0205 9.83056C0.632732 10.1473 0.516461 10.7145 0.671691 11.5321L12.889 70.1503C13.1246 71.1269 13.5016 71.6339 14.0201 71.6715C14.5221 71.7106 14.855 71.7143 15.0185 71.6836L56.6438 63.0069C57.3701 62.76 57.7317 62.4292 57.7283 62.0136C57.7234 61.5819 57.6714 61.1793 57.5722 60.8053L45.2703 1.79563Z" fill="#76BEAD"/>
<path d="M46.387 2.75118C46.3682 2.5366 46.2115 2.26797 45.9169 1.94486C45.6223 1.62174 45.1237 1.52443 44.4199 1.65299L3.30999 10.2344C2.8974 10.2709 2.50646 10.4548 2.13674 10.7866C1.74897 11.1033 1.6327 11.6705 1.7879 12.4877L14.0052 71.1059C14.2408 72.0824 14.6178 72.5895 15.1364 72.6271C15.6383 72.6662 15.9713 72.6699 16.1347 72.6391L57.76 63.9625C58.4863 63.7156 58.848 63.3848 58.8446 62.9696C58.8396 62.5379 58.7876 62.1353 58.6884 61.7613L46.387 2.75118Z" fill="white"/>
<path d="M3.56635 11.5411C3.1644 11.8576 3.04982 12.4231 3.22215 13.2381L15.4432 71.8521C15.671 72.8362 16.041 73.3477 16.5539 73.3869C17.0667 73.4262 17.3993 73.4267 17.5518 73.3892L59.1829 64.7127C59.911 64.4739 60.2783 64.1412 60.2853 63.7148C60.2751 63.2888 60.2234 62.8892 60.1291 62.5159L47.8221 3.51973C47.8 3.29843 47.6401 3.02907 47.3426 2.71213C47.0617 2.37764 46.565 2.27832 45.8517 2.41461L4.73061 11.0024C4.32173 11.0287 3.93364 11.2085 3.56635 11.5411Z" fill="#FFBA7B"/>
<path d="M12.1521 67.5125C12.1949 67.2427 12.2881 67.0767 12.4324 67.0139L12.1902 65.9631C11.7036 66.2885 11.3931 66.6318 11.2585 66.9925C11.136 67.3025 11.0897 67.6224 11.1186 67.9523C11.1825 68.6783 11.5926 69.1823 12.349 69.4648C12.9525 69.711 13.6309 69.7675 14.3839 69.6348C15.3841 69.4804 16.0892 69.0856 16.4987 68.4514C16.7936 68.0264 16.918 67.55 16.8714 67.0225C16.8293 66.5442 16.5698 66.2426 16.0938 66.1187C16.0126 66.1423 15.9114 66.2177 15.7897 66.3451C15.6499 66.4571 15.5729 66.6216 15.559 66.8392C15.7326 66.9238 15.764 67.187 15.6535 67.6288C15.5251 68.0557 15.0154 68.3084 14.1245 68.3869C13.216 68.4505 12.6529 68.3834 12.4361 68.1865C12.2011 67.9738 12.1066 67.7492 12.1521 67.5125ZM10.2195 62.2721C10.097 62.5821 10.0507 62.9021 10.0796 63.232C10.1435 63.9579 10.5536 64.462 11.31 64.7445C11.9135 64.9906 12.5919 65.0471 13.3444 64.9145C14.3446 64.7601 15.0497 64.3653 15.4593 63.7311C15.7542 63.3061 15.8786 62.8297 15.8319 62.3017C15.7898 61.8234 15.5308 61.5218 15.0544 61.3979C14.9732 61.4216 14.8719 61.4969 14.7502 61.6243C14.6104 61.7363 14.5334 61.9009 14.5195 62.1184C14.6931 62.203 14.7245 62.4662 14.6141 62.9081C14.4852 63.3349 13.9755 63.5876 13.085 63.6662C12.1765 63.7297 11.6134 63.6626 11.3966 63.4658C11.1617 63.2539 11.0672 63.0293 11.1131 62.7926C11.1559 62.5228 11.2491 62.3568 11.3934 62.294L11.1512 61.2432C10.6646 61.5677 10.354 61.911 10.2195 62.2721ZM14.0899 56.6701C14.0087 56.6937 13.9075 56.769 13.7858 56.8965C13.646 57.0084 13.569 57.1734 13.5551 57.3906C13.7287 57.4751 13.7601 57.7384 13.6497 58.1802C13.5212 58.607 13.0115 58.8597 12.1206 58.9383C11.2121 59.0019 10.649 58.9348 10.4322 58.7379C10.1973 58.526 10.1028 58.3015 10.1487 58.0648C10.1915 57.795 10.2847 57.6289 10.429 57.5661L10.1868 56.5154C9.70021 56.8408 9.38968 57.184 9.25514 57.5447C9.13262 57.8547 9.08627 58.1746 9.11519 58.5046C9.17909 59.2305 9.58923 59.7345 10.3456 60.0171C10.9491 60.2632 11.6275 60.3197 12.3801 60.1871C13.3803 60.0327 14.0853 59.6379 14.4949 59.0037C14.7898 58.5787 14.9142 58.1022 14.8676 57.5748C14.8259 57.0955 14.5664 56.7944 14.0899 56.6701ZM13.8289 52.8531C13.7869 52.3747 13.5273 52.0732 13.0514 51.9492C12.9702 51.9729 12.8689 52.0482 12.7472 52.1756C12.6074 52.2876 12.5304 52.4522 12.5165 52.6698C12.6901 52.7543 12.7215 53.0175 12.6111 53.4594C12.4826 53.8862 11.9729 54.1389 11.082 54.2175C10.1735 54.281 9.61038 54.2139 9.39358 54.0171C9.15873 53.8052 9.06423 53.5807 9.1101 53.3439C9.15294 53.0741 9.24608 52.9081 9.39039 52.8453L9.1482 51.7946C8.66163 52.1199 8.35109 52.4632 8.21656 52.8239C8.09404 53.1339 8.04769 53.4538 8.07661 53.7837C8.14051 54.5097 8.55064 55.0137 9.30704 55.2963C9.91049 55.5424 10.5889 55.5989 11.3419 55.4662C12.3421 55.3118 13.0472 54.917 13.4568 54.2828C13.7512 53.8574 13.8751 53.381 13.8289 52.8531ZM8.47879 48.1626L8.2366 47.1118C7.75003 47.4372 7.43949 47.7805 7.30496 48.1412C7.18244 48.4512 7.13609 48.7711 7.16501 49.101C7.22891 49.827 7.63905 50.331 8.39544 50.6136C8.99889 50.8597 9.67732 50.9162 10.4303 50.7835C11.4305 50.6291 12.1356 50.2343 12.5452 49.6001C12.8401 49.1751 12.9645 48.6987 12.9178 48.1708C12.8757 47.6924 12.6167 47.3909 12.1402 47.2669C12.059 47.2906 11.9578 47.3659 11.8361 47.4934C11.6963 47.6053 11.6193 47.7699 11.6054 47.9875C11.779 48.072 11.8104 48.3352 11.7 48.7771C11.5715 49.2039 11.0618 49.4566 10.1709 49.5352C9.26238 49.5987 8.69925 49.5316 8.48246 49.3348C8.24761 49.1229 8.15311 48.8984 8.19898 48.6616C8.24132 48.391 8.33446 48.2249 8.47879 48.1626ZM11.8788 43.4495C11.8367 42.9712 11.5772 42.6697 11.1012 42.5457C11.02 42.5694 10.9187 42.6447 10.797 42.7721C10.6572 42.8841 10.5802 43.0491 10.5664 43.2662C10.7399 43.3508 10.7713 43.614 10.6609 44.0558C10.5324 44.4827 10.0227 44.7354 9.13183 44.814C8.22332 44.8775 7.66019 44.8104 7.4434 44.6135C7.20855 44.4017 7.11405 44.1771 7.15992 43.9404C7.20276 43.6706 7.2959 43.5046 7.4402 43.4417L7.19801 42.391C6.71144 42.7164 6.40091 43.0597 6.2664 43.4208C6.14389 43.7308 6.09753 44.0507 6.12645 44.3806C6.19035 45.1066 6.60049 45.6106 7.35689 45.8932C7.96033 46.1393 8.63877 46.1958 9.39177 46.0631C10.392 45.9087 11.097 45.514 11.5066 44.8797C11.801 44.4539 11.9254 43.9774 11.8788 43.4495ZM6.23271 37.6632C5.74614 37.9886 5.4356 38.3319 5.30107 38.6925C5.17855 39.0026 5.1322 39.3225 5.16112 39.6524C5.22502 40.3783 5.63515 40.8824 6.39155 41.1649C6.995 41.411 7.67343 41.4675 8.42643 41.3349C9.42663 41.1805 10.1317 40.7857 10.5413 40.1515C10.8362 39.7265 10.9606 39.2501 10.9139 38.7221C10.8718 38.2438 10.6128 37.9422 10.1363 37.8183C10.0551 37.842 9.95391 37.9173 9.83221 38.0447C9.69242 38.1567 9.61537 38.3212 9.60153 38.5388C9.77512 38.6234 9.80648 38.8866 9.69606 39.3285C9.56759 39.7553 9.0579 40.008 8.167 40.0866C7.25849 40.1501 6.69536 40.083 6.47857 39.8862C6.24372 39.6743 6.14922 39.4498 6.19509 39.213C6.23793 38.9432 6.33107 38.7772 6.47537 38.7144L6.23271 37.6632ZM4.26204 33.9718C4.13952 34.2818 4.09317 34.6017 4.12208 34.9316C4.18599 35.6576 4.59612 36.1616 5.35252 36.4441C5.95597 36.6902 6.6344 36.7467 7.38695 36.6141C8.38715 36.4597 9.09222 36.0649 9.50178 35.4307C9.79671 35.0058 9.92108 34.5293 9.87444 34.0014C9.83236 33.5231 9.57332 33.2219 9.09686 33.0975C9.01567 33.1212 8.91443 33.1965 8.79272 33.324C8.65294 33.4359 8.57589 33.6005 8.56205 33.8181C8.73564 33.9026 8.767 34.1658 8.65658 34.6077C8.52811 35.0345 8.01797 35.2872 7.12752 35.3658C6.21901 35.4293 5.65588 35.3623 5.43909 35.1654C5.20424 34.9535 5.10974 34.729 5.15561 34.4922C5.19845 34.2224 5.29159 34.0564 5.43589 33.9936L5.1937 32.9429C4.70711 33.2678 4.39657 33.6111 4.26204 33.9718ZM8.95967 29.2694C8.91758 28.7911 8.65807 28.4895 8.18209 28.3656C8.10089 28.3892 7.99966 28.4646 7.87795 28.592C7.73817 28.704 7.66114 28.869 7.64727 29.0861C7.82086 29.1707 7.85222 29.4339 7.7418 29.8757C7.61333 30.3026 7.10365 30.5553 6.21274 30.6338C5.30424 30.6974 4.74111 30.6303 4.52431 30.4334C4.28946 30.2216 4.19496 29.997 4.24084 29.7603C4.28368 29.4905 4.37682 29.3244 4.52112 29.2616L4.27893 28.2109C3.79236 28.5363 3.48182 28.8796 3.34729 29.2402C3.22477 29.5502 3.17842 29.8702 3.20734 30.2001C3.27124 30.926 3.68138 31.4301 4.43777 31.7126C5.04122 31.9587 5.71965 32.0152 6.47265 31.8826C7.47285 31.7282 8.17793 31.3334 8.58748 30.6992C8.88193 30.2738 9.0063 29.7973 8.95967 29.2694ZM1.34295 19.7916C1.22043 20.1017 1.17408 20.4216 1.203 20.7515C1.2669 21.4774 1.67704 21.9815 2.43344 22.264C3.03688 22.5101 3.71531 22.5666 4.46831 22.434C5.46852 22.2796 6.17359 21.8848 6.58314 21.2506C6.87807 20.8256 7.00244 20.3491 6.95584 19.8217C6.91375 19.3434 6.65469 19.0418 6.17825 18.9179C6.09706 18.9415 5.99582 19.0168 5.87412 19.1443C5.73433 19.2562 5.65731 19.4212 5.64344 19.6384C5.81703 19.7229 5.84839 19.9862 5.73797 20.428C5.6095 20.8548 5.09981 21.1075 4.20891 21.1861C3.3004 21.2497 2.73727 21.1826 2.52048 20.9857C2.28563 20.7738 2.19113 20.5493 2.237 20.3126C2.27984 20.0428 2.37298 19.8767 2.51729 19.8139L2.27509 18.7632C1.78799 19.0873 1.47746 19.4305 1.34295 19.7916ZM2.30778 24.519C2.18526 24.829 2.13891 25.149 2.16783 25.4789C2.23173 26.2048 2.64187 26.7089 3.39827 26.9914C4.00171 27.2375 4.68014 27.294 5.43314 27.1614C6.43334 27.007 7.13842 26.6122 7.54798 25.978C7.8429 25.553 7.96727 25.0765 7.92064 24.5486C7.87855 24.0703 7.61949 23.7687 7.14305 23.6448C7.06186 23.6685 6.96062 23.7438 6.83892 23.8712C6.69913 23.9832 6.62208 24.1477 6.60824 24.3653C6.78183 24.4499 6.81319 24.7131 6.70277 25.1549C6.57386 25.5818 6.06462 25.8345 5.17371 25.913C4.2652 25.9766 3.70208 25.9095 3.48528 25.7126C3.25043 25.5008 3.15593 25.2762 3.2018 25.0395C3.24464 24.7697 3.33778 24.6036 3.48212 24.5413L3.23992 23.4906C2.75285 23.8151 2.44229 24.1579 2.30778 24.519ZM1.23553 14.0411C0.74896 14.3665 0.438424 14.7097 0.303918 15.0709C0.181401 15.3809 0.135049 15.7008 0.163968 16.0307C0.22787 16.7567 0.638005 17.2607 1.3944 17.5432C1.99785 17.7893 2.67628 17.8458 3.42928 17.7132C4.42948 17.5588 5.13456 17.164 5.54411 16.5298C5.83904 16.1048 5.96341 15.6284 5.91678 15.1004C5.87469 14.6221 5.61518 14.3206 5.13919 14.1966C5.058 14.2203 4.95676 14.2956 4.83506 14.423C4.69527 14.535 4.61825 14.7 4.60438 14.9171C4.77797 15.0017 4.80933 15.2649 4.69891 15.7068C4.57044 16.1336 4.06075 16.3863 3.16985 16.4649C2.26131 16.528 1.69821 16.4613 1.48142 16.2645C1.24657 16.0526 1.15207 15.828 1.19794 15.5913C1.24078 15.3215 1.33392 15.1555 1.47823 15.0927L1.23553 14.0411Z" fill="#3D6D56"/>
<path d="M66.6625 17.9541L64.0986 18.31L63.8685 15.4346L20.1712 18.9342L24.9851 79.0441L71.258 75.3384L66.6625 17.9541ZM24.4434 21.094C24.4724 21.4533 24.3665 21.7631 24.1258 22.0235C23.9068 22.3022 23.6176 22.4561 23.2583 22.4846C22.899 22.5136 22.5789 22.4083 22.2985 22.1698C22.0398 21.9496 21.8957 21.6593 21.8672 21.3C21.8382 20.9408 21.9332 20.6218 22.1522 20.343C22.3924 20.0827 22.6925 19.938 23.0518 19.9095C23.411 19.8805 23.7203 19.9766 23.979 20.1968C24.2599 20.4358 24.4144 20.7347 24.4434 21.094ZM24.7817 25.3172C24.8108 25.6765 24.7049 25.9863 24.4642 26.2467C24.2451 26.5255 23.956 26.6793 23.5967 26.7078C23.2374 26.7368 22.9173 26.6315 22.6369 26.393C22.3782 26.1728 22.234 25.8826 22.2056 25.5233C22.1766 25.164 22.2716 24.845 22.4906 24.5663C22.7308 24.3059 23.0308 24.1612 23.3901 24.1327C23.7494 24.1037 24.0587 24.1998 24.3174 24.42C24.5983 24.6585 24.7527 24.958 24.7817 25.3172ZM22.5439 29.7465C22.5149 29.3872 22.6099 29.0683 22.829 28.7895C23.0692 28.5292 23.3692 28.3845 23.7285 28.356C24.0877 28.327 24.397 28.4231 24.6557 28.6432C24.9361 28.8823 25.0905 29.1812 25.1196 29.5405C25.1486 29.8998 25.0427 30.2096 24.802 30.47C24.5829 30.7487 24.2943 30.9026 23.9345 30.9311C23.5752 30.9601 23.2551 30.8548 22.9747 30.6163C22.7165 30.3955 22.5729 30.1058 22.5439 29.7465ZM25.4579 33.7632C25.4869 34.1225 25.381 34.4323 25.1403 34.6927C24.9213 34.9714 24.6321 35.1253 24.2728 35.1538C23.9135 35.1828 23.5934 35.0775 23.313 34.839C23.0543 34.6188 22.9102 34.3286 22.8817 33.9693C22.8527 33.61 22.9477 33.291 23.1668 33.0123C23.407 32.7519 23.707 32.6072 24.0663 32.5787C24.4255 32.5497 24.7348 32.6458 24.9935 32.866C25.275 33.1045 25.4294 33.4039 25.4579 33.7632ZM23.6519 39.0622C23.3932 38.8415 23.2491 38.5518 23.2206 38.1925C23.1916 37.8332 23.2866 37.5142 23.5057 37.2355C23.7458 36.9751 24.0459 36.8304 24.4052 36.8019C24.7644 36.7729 25.0737 36.869 25.3324 37.0892C25.6128 37.3283 25.7672 37.6272 25.7962 37.9865C25.8253 38.3457 25.7194 38.6556 25.4787 38.916C25.2596 39.1947 24.971 39.3485 24.6112 39.377C24.2519 39.406 23.9323 39.3007 23.6519 39.0622ZM24.7435 41.0241C25.1027 40.9951 25.412 41.0912 25.6707 41.3114C25.9511 41.5499 26.1055 41.8494 26.1345 42.2086C26.1636 42.5679 26.0577 42.8777 25.817 43.1381C25.5979 43.4168 25.3088 43.5707 24.9495 43.5992C24.5902 43.6282 24.2701 43.5229 23.9897 43.2844C23.731 43.0642 23.5868 42.774 23.5584 42.4147C23.5293 42.0554 23.6244 41.7364 23.8434 41.4577C24.0842 41.1978 24.3842 41.0531 24.7435 41.0241ZM25.0818 45.2473C25.4411 45.2183 25.7504 45.3144 26.0091 45.5346C26.2895 45.7737 26.4439 46.0726 26.4729 46.4319C26.5019 46.7911 26.3961 47.101 26.1553 47.3614C25.9363 47.6401 25.6477 47.7939 25.2878 47.8224C24.9285 47.8515 24.6084 47.7462 24.328 47.5077C24.0694 47.2875 23.9252 46.9972 23.8967 46.6379C23.8677 46.2786 23.9627 45.9597 24.1818 45.6809C24.4225 45.4205 24.722 45.2764 25.0818 45.2473ZM25.4196 49.4701C25.7789 49.4411 26.0882 49.5372 26.3468 49.7573C26.6272 49.9959 26.7817 50.2953 26.8107 50.6546C26.8397 51.0139 26.7338 51.3237 26.4931 51.5841C26.2741 51.8628 25.9849 52.0167 25.6256 52.0452C25.2663 52.0742 24.9462 51.9689 24.6658 51.7304C24.4071 51.5102 24.263 51.22 24.2345 50.8606C24.2055 50.5014 24.3005 50.1824 24.5196 49.9037C24.7603 49.6438 25.0603 49.4991 25.4196 49.4701ZM27.149 54.8778C27.1781 55.2371 27.0722 55.5469 26.8315 55.8073C26.6124 56.0861 26.3238 56.2399 25.964 56.2684C25.6047 56.2974 25.2846 56.1922 25.0042 55.9536C24.7455 55.7329 24.6013 55.4432 24.5729 55.0839C24.5439 54.7246 24.6389 54.4056 24.8579 54.1269C25.0981 53.8665 25.3981 53.7218 25.7574 53.6934C26.1167 53.6643 26.426 53.7605 26.6847 53.9806C26.9656 54.2197 27.12 54.5186 27.149 54.8778ZM24.9118 59.3071C24.8828 58.9478 24.9778 58.6289 25.1968 58.3501C25.437 58.0898 25.737 57.9451 26.0963 57.9166C26.4556 57.8876 26.7649 57.9837 27.0236 58.2038C27.3039 58.4424 27.4584 58.7418 27.4874 59.1011C27.5164 59.4604 27.4106 59.7702 27.1698 60.0306C26.9508 60.3093 26.6616 60.4632 26.3023 60.4917C25.943 60.5207 25.6229 60.4154 25.3425 60.1769C25.0839 59.9567 24.9402 59.6664 24.9118 59.3071ZM27.8252 63.3238C27.8542 63.6831 27.7483 63.9929 27.5076 64.2533C27.2886 64.5321 26.9999 64.6859 26.6401 64.7144C26.2808 64.7434 25.9607 64.6381 25.6803 64.3996C25.4216 64.1789 25.2775 63.8892 25.249 63.5299C25.22 63.1706 25.315 62.8516 25.5341 62.5729C25.7743 62.3125 26.0743 62.1678 26.4336 62.1393C26.7928 62.1103 27.1021 62.2064 27.3608 62.4266C27.6423 62.6656 27.7967 62.9645 27.8252 63.3238ZM26.0192 68.6228C25.7605 68.4027 25.6164 68.1124 25.5879 67.7531C25.5589 67.3938 25.6539 67.0748 25.873 66.7961C26.1132 66.5357 26.4132 66.391 26.7725 66.3626C27.1317 66.3335 27.441 66.4297 27.6997 66.6498C27.9801 66.8884 28.1345 67.1878 28.1635 67.5471C28.1926 67.9063 28.0867 68.2162 27.846 68.4766C27.6269 68.7553 27.3378 68.9092 26.9785 68.9377C26.6197 68.9666 26.2996 68.8619 26.0192 68.6228ZM27.1108 70.5853C27.4701 70.5562 27.7793 70.6524 28.038 70.8725C28.3184 71.1116 28.4729 71.4105 28.5019 71.7698C28.5309 72.1291 28.425 72.4389 28.1843 72.6993C27.9652 72.978 27.6766 73.1318 27.3168 73.1604C26.9575 73.1894 26.6374 73.0841 26.357 72.8456C26.0983 72.6254 25.9542 72.3351 25.9257 71.9758C25.8967 71.6166 25.9917 71.2976 26.2107 71.0188C26.4515 70.7585 26.7515 70.6137 27.1108 70.5853ZM26.2691 76.2591C26.2401 75.8999 26.3351 75.5809 26.5541 75.3021C26.7943 75.0418 27.0943 74.8971 27.4536 74.8686C27.8129 74.8396 28.1222 74.9357 28.3809 75.1559C28.6613 75.3949 28.8157 75.6938 28.8447 76.0531C28.8737 76.4124 28.7679 76.7222 28.5271 76.9826C28.3081 77.2613 28.0189 77.4152 27.6596 77.4437C27.3004 77.4727 26.9802 77.3674 26.6999 77.1289C26.4417 76.9082 26.2981 76.6184 26.2691 76.2591Z" fill="#49A886"/>
<path d="M64.0992 18.31L66.6631 17.954L63.8691 15.4346L64.0992 18.31Z" fill="#94CABD"/>
<path d="M65.967 79.7536C65.8261 76.5987 64.6619 76.1595 62.4732 78.4368L64.0106 84.8312L67.9879 86.3301L73.5121 82.5968C73.3441 79.352 72.0804 78.8757 69.7209 81.1677C69.0704 78.9567 67.8196 78.4847 65.967 79.7536Z" fill="#F7CAA4"/>
<path d="M78.2034 49.0915L77.6084 48.8674L65.9667 79.754C67.8193 78.4851 69.071 78.9567 69.7204 81.1687L81.362 50.2821L78.2034 49.0915Z" fill="#5BC0A8"/>
<path d="M85.155 51.7121L81.3638 50.283L69.7221 81.1696C72.0815 78.8776 73.3453 79.3539 73.5133 82.5987L85.155 51.7121ZM77.6101 48.8683L74.1163 47.5515L62.4746 78.4381C64.6634 76.1607 65.8276 76.6 65.9684 79.7548L77.6101 48.8683Z" fill="#34876E"/>
<path d="M81.3622 50.2847L85.1534 51.7138L86.2604 48.7775L75.2218 44.6169L74.1147 47.5533L77.6085 48.87L78.2035 49.0941L81.3622 50.2847Z" fill="#95DBC2"/>
<path d="M64.5648 87.0795C64.8342 87.8855 65.33 88.0718 66.0515 87.6398L67.9878 86.3321L64.0105 84.8332L64.5648 87.0795Z" fill="#2C5B5B"/>
<path d="M86.2609 48.776L86.8211 47.2893C87.4819 44.9349 86.1152 43.1178 82.7206 41.8388C79.1515 40.4901 76.8386 40.92 75.7824 43.1287L75.2222 44.6155L86.2609 48.776Z" fill="#DC763D"/>
<path d="M62.8604 6.34573C62.9952 6.08869 63.012 5.90499 62.9108 5.79461C62.8092 5.6701 62.632 5.63191 62.3792 5.68003L59.2997 6.04821L57.3836 3.70282C56.9219 3.26246 56.6213 3.36825 56.4815 4.0202L55.914 6.88882L53.0213 8.01396C52.2364 8.21562 52.2074 8.49137 52.935 8.84083L55.6779 10.3632L55.851 13.2356C55.8972 14.0102 56.0725 14.2668 56.3765 14.006C56.6805 13.7451 56.8466 13.6072 56.8745 13.5923L58.9232 11.6617L61.8601 12.4389C62.3421 12.5547 62.5805 12.4924 62.5751 12.2529C62.5552 12.0135 62.4865 11.7755 62.3681 11.5387L61.1452 8.98672L62.8604 6.34573Z" fill="#F7ED55"/>
<path d="M23.0346 76.0674C23.1193 75.9059 23.1301 75.7905 23.0662 75.7211C23.0024 75.6429 22.8911 75.6189 22.7324 75.6491L20.7976 75.8805L19.5937 74.4071C19.3035 74.1304 19.1147 74.1969 19.0268 74.6065L18.6703 76.4089L16.8527 77.1158C16.3596 77.2425 16.3414 77.4158 16.7985 77.6354L18.522 78.5916L18.6307 80.3964C18.6597 80.8831 18.7698 81.0443 18.9609 80.8804C19.1519 80.7165 19.2563 80.6299 19.2738 80.6206L20.561 79.4075L22.4063 79.8958C22.7092 79.9686 22.8589 79.9294 22.8555 79.779C22.8431 79.6288 22.7999 79.479 22.7255 79.3302L21.9571 77.7268L23.0346 76.0674Z" fill="#F7ED55"/>
<path d="M32.7822 30.0267C34.5914 28.9886 36.4815 28.366 38.583 28.8012C39.2981 28.9488 40.042 29.1129 40.6793 29.4475C41.7311 30.0007 42.6566 30.043 43.7031 29.411C46.2464 27.8764 48.7963 28.0676 51.2595 29.6285C51.5256 29.7973 51.6032 30.2628 51.7687 30.59C51.4413 30.6702 51.0891 30.8682 50.792 30.8048C50.236 30.687 49.6898 30.4621 49.1789 30.2041C47.6146 29.414 46.0873 29.6701 44.7121 30.5335C43.1783 31.4959 41.7355 31.4951 40.1613 30.7213C37.5222 29.4232 35.1049 30.1996 32.833 31.6864C32.3503 32.0025 31.9254 32.4389 31.5217 31.8413C31.3926 31.6511 31.8069 31.0372 32.052 30.6704C32.2261 30.4097 32.5339 30.2384 32.7822 30.0267Z" fill="#79D9CB"/>
<path d="M33.3085 41.2392C33.718 40.9665 34.1093 40.6605 34.5389 40.4264C36.3747 39.4231 38.18 39.079 39.8664 40.7424C40.5576 41.4238 41.2716 41.3586 42.1211 40.9364C43.7816 40.1123 45.4594 39.292 47.4344 39.9187C48.4799 40.2503 49.5768 40.423 50.6483 40.6756C51.0088 40.76 51.4004 40.804 51.7092 40.9856C51.9466 41.125 52.0747 41.4504 52.2512 41.6933C51.9591 41.8716 51.6373 42.2388 51.3805 42.1971C50.0111 41.9777 48.6191 41.7746 47.3104 41.3387C45.8106 40.838 44.5197 41.2833 43.3054 41.9705C41.7569 42.8464 40.3059 42.8962 38.9311 41.7853C37.6942 40.7858 36.51 40.9741 35.2703 41.6856C34.8758 41.9123 34.5052 42.2448 34.0809 42.3403C33.5941 42.4495 33.0599 42.349 32.5461 42.3392C32.7161 41.9496 32.8858 41.5591 33.0566 41.169C33.1392 41.1918 33.2235 41.2157 33.3085 41.2392Z" fill="#79D9CB"/>
<path d="M32.6426 35.4787C34.7526 34.2903 36.9006 33.6577 39.1395 35.1409C40.9832 36.3612 42.5742 35.2205 44.1191 34.5197C46.2628 33.5468 48.3049 33.9052 50.3625 34.5952C50.6779 34.7014 50.8475 35.243 51.0846 35.5834C50.7226 35.6888 50.2865 35.9801 50.0102 35.8695C47.4999 34.8686 45.2286 35.3504 42.9263 36.6219C41.618 37.3442 40.1046 37.1952 38.7888 36.379C37.042 35.2949 35.3826 35.4629 33.7167 36.5422C33.3778 36.7613 32.9824 36.9715 32.5934 37.0135C32.2107 37.0551 31.8034 36.8803 31.4075 36.7992C31.6399 36.4622 31.8519 36.1081 32.1148 35.7962C32.2406 35.6478 32.4632 35.5822 32.6426 35.4787Z" fill="#79D9CB"/>
<path d="M49.9912 63.628C49.8288 63.5846 49.6378 63.549 49.424 63.5215C48.9391 63.465 48.4298 63.5282 47.9916 63.6994C47.7558 63.7888 47.552 63.8972 47.3682 64.0303C47.2661 64.1102 47.1713 64.1865 47.0789 64.2762C46.9739 64.3799 46.8819 64.4923 46.7823 64.6405C46.6458 64.8294 46.5577 65.0594 46.5328 65.2874C46.5126 65.4923 46.5553 65.7006 46.661 65.9064C46.7438 66.0648 46.8806 66.2122 47.0792 66.3575C47.3018 66.5223 47.5604 66.6226 47.6846 66.6705C47.7916 66.7127 47.9001 66.7472 48.0106 66.7763C48.3411 66.8629 48.7011 66.9044 49.0822 66.8996C49.6892 66.8966 50.3272 66.7403 50.9779 66.4353C51.2828 66.2896 51.5754 66.1022 51.8979 65.8455C51.9742 65.788 52.0111 65.6715 52.0128 65.5813C52.0156 65.4797 51.9762 65.3808 51.904 65.3083C51.8986 65.1996 51.8857 65.1084 51.8419 65.0277C51.6193 64.6105 51.2811 64.2605 50.8374 63.986C50.5914 63.8314 50.3065 63.7105 49.9912 63.628Z" fill="#FF92A9"/>
<path d="M52.2967 59.9685C52.2584 59.9579 52.2171 59.9498 52.176 59.9412C52.0594 59.9185 51.9319 59.9069 51.7619 59.9023C51.3691 59.8875 50.9476 60.0229 50.4723 60.3169C50.3231 60.4069 50.179 60.5059 50.0346 60.6056C49.8171 60.7573 49.5919 60.914 49.3559 61.032C49.2335 61.0347 49.1459 61.015 49.0599 60.9919C48.9684 60.968 48.8773 60.94 48.7875 60.9088C48.5978 60.8353 48.4271 60.7607 48.2564 60.6861C47.9584 60.5576 47.6753 60.4361 47.3856 60.3483L47.307 60.3259C47.1059 60.2726 46.8918 60.248 46.6713 60.2523C46.4227 60.2547 46.1686 60.3259 45.8732 60.4745C45.6759 60.5763 45.4761 60.7349 45.2789 60.9449C45.1157 61.1172 44.9756 61.3334 44.8745 61.5694C44.6977 61.9856 44.6386 62.4776 44.7034 62.9929C44.7589 63.4499 44.9056 63.9191 45.1655 64.4696C45.3727 64.9007 45.6501 65.315 46.0149 65.7386C46.3195 66.0967 46.659 66.385 47.0243 66.5964C47.3791 66.802 47.7712 66.9659 48.19 67.0848L48.2689 67.1051C48.9284 67.2794 49.6328 67.2755 50.3047 67.0944C50.8928 66.9354 51.4663 66.6094 52.0085 66.1257C52.4623 65.7193 52.8542 65.2065 53.1725 64.6025C53.465 64.0504 53.6665 63.4514 53.7553 62.8706C53.8516 62.2374 53.8926 61.0702 53.0841 60.3692C52.9245 60.2309 52.7405 60.1202 52.5508 60.0495C52.4665 60.0192 52.3833 59.9919 52.2967 59.9685ZM48.4136 66.3584C48.2965 66.3279 48.1806 66.2912 48.0657 66.2509C47.7341 66.1267 47.4513 65.9847 47.2006 65.8171C47.026 65.686 46.858 65.536 46.7014 65.3701C46.7667 65.2573 46.8426 65.1345 46.9236 65.0128C47.0555 64.8431 47.1994 64.6886 47.3523 64.5542C47.5016 64.4376 47.668 64.3316 47.846 64.2399C48.053 64.1456 48.2775 64.0739 48.5134 64.0262C48.7509 63.9856 49.0081 63.9725 49.2787 63.9893C49.4484 64.005 49.627 64.0379 49.8098 64.0864C49.9014 64.1107 49.9903 64.138 50.0778 64.1691C50.3162 64.2609 50.5393 64.379 50.7603 64.5311C50.94 64.6632 51.1088 64.8181 51.262 64.9905C51.3666 65.1208 51.4644 65.2639 51.5616 65.4282C51.5732 65.4473 51.5888 65.4674 51.6061 65.4854L51.5516 65.5228L51.3762 65.6809C51.1318 65.8796 50.8676 66.0493 50.5929 66.1852C50.339 66.3 50.0777 66.3842 49.8155 66.4365C49.5516 66.4762 49.2864 66.4882 49.0287 66.4716C48.8311 66.4521 48.624 66.4141 48.4136 66.3584Z" fill="#002448"/>
<path d="M37.5671 66.1158C38.5017 66.0364 39.149 64.6568 39.0106 63.0377C38.8727 61.4189 38.0015 60.1686 37.0665 60.2486C36.1318 60.3281 35.4849 61.7071 35.6235 63.3266C35.7613 64.9454 36.632 66.1955 37.5671 66.1158Z" fill="#002448"/>
<path d="M61.0478 64.5188C60.1105 64.5574 59.2954 63.2701 59.228 61.6467C59.161 60.0231 59.8682 58.6735 60.806 58.6347C61.7427 58.5957 62.5584 59.8833 62.6252 61.5065C62.6919 63.1306 61.985 64.4797 61.0478 64.5188Z" fill="#002448"/>
<path d="M34.0899 54.3883C34.0456 54.4277 34.0037 54.4673 33.9637 54.5071C33.5762 54.896 33.4255 55.2878 33.5382 55.6106C33.6489 55.8929 33.9149 56.0826 34.3294 56.1745C34.8955 56.2994 35.6495 56.2215 36.3982 55.9614C36.9813 55.7586 37.4887 55.4737 37.8667 55.1383C37.914 55.0964 37.9573 55.0554 37.9993 55.0135C38.3866 54.6227 38.5374 54.231 38.4239 53.9112C38.3129 53.6267 38.0474 53.4359 37.6338 53.3465C37.0673 53.2217 36.3128 53.2998 35.5649 53.562C34.9877 53.7627 34.4638 54.0559 34.0899 54.3883Z" fill="#0A4F70"/>
<path d="M58.9019 52.1229C58.7814 52.2297 58.7033 52.3532 58.6688 52.4897C58.5916 52.8454 58.7829 53.2148 59.2212 53.5582C59.6501 53.8912 60.2564 54.1546 60.9286 54.2992C61.7073 54.4629 62.4659 54.4445 63.0092 54.2488C63.201 54.1812 63.3572 54.0935 63.4747 53.9901C63.6012 53.8774 63.6841 53.7436 63.722 53.5911C63.7956 53.2572 63.597 52.8875 63.1639 52.5494C62.7318 52.2142 62.1259 51.9517 61.4558 51.8105C60.6783 51.6473 59.9196 51.6653 59.3745 51.8602C59.1784 51.9303 59.019 52.0187 58.9019 52.1229Z" fill="#0A4F70"/>
</svg>
