<svg width="69" height="23" viewBox="0 0 69 23" fill="none" xmlns="http://www.w3.org/2000/svg">
<path d="M51.9145 9.04583C54.1384 8.0109 54.8037 7.3764 58.3027 6.84661C61.8018 6.31683 67.6109 10.8878 68.1099 12.126C68.6089 13.3642 67.1736 13.6044 66.459 13.241C65.7444 12.8775 63.7485 11.9843 63.7485 11.9843C63.7485 11.9843 68.4488 14.3991 68.6767 15.6066C68.9046 16.814 66.7793 16.8386 66.7793 16.8386C66.7793 16.8386 67.1736 18.4341 66.1941 18.7298C65.2146 19.0255 61.888 17.9721 61.888 17.9721C61.888 17.9721 63.5205 19.0132 63.3542 20.0912C63.1879 21.1693 60.3233 20.5225 58.9927 20.0481C57.6621 19.5738 54.7975 18.2124 53.8735 18.4095C52.9494 18.6066 48.4216 19.4875 48.4216 19.4875L47.0972 11.7748C47.0972 11.7748 50.356 9.77275 51.9084 9.04583H51.9145Z" fill="#FFD5D9"/>
<path d="M47.1035 11.7687L40.0562 11.399L40.6598 21.0276L48.428 19.4875L51.4342 13.6537L47.1035 11.7687Z" fill="#FFD5D9"/>
<path d="M63.5391 12.1814C63.496 12.1814 63.4467 12.1691 63.4036 12.1506L61.3091 11.128C61.1551 11.054 61.0935 10.8692 61.1674 10.7152C61.2413 10.5612 61.4261 10.4996 61.5801 10.5735L63.6747 11.5961C63.8287 11.6701 63.8903 11.8549 63.8163 12.0089C63.7609 12.1198 63.6562 12.1814 63.5391 12.1814Z" fill="#EFBABF"/>
<path d="M66.1883 16.7646C66.1513 16.7646 66.1082 16.7585 66.0713 16.74L60.6748 14.4976C60.5147 14.4299 60.4408 14.2512 60.5085 14.0972C60.5763 13.9432 60.7549 13.8693 60.9089 13.9309L66.3053 16.1732C66.4655 16.241 66.5395 16.4196 66.4717 16.5736C66.4224 16.6907 66.3053 16.7646 66.1883 16.7646Z" fill="#EFBABF"/>
<path d="M61.6603 18.2493C61.6234 18.2493 61.5803 18.2431 61.5433 18.2247L59.6028 17.4361C59.4426 17.3745 59.3687 17.1959 59.4303 17.0357C59.4919 16.8756 59.6767 16.8016 59.8307 16.8632L61.7712 17.6517C61.9314 17.7134 62.0053 17.892 61.9437 18.0522C61.8944 18.1692 61.7774 18.2431 61.6603 18.2431V18.2493Z" fill="#EFBABF"/>
<path d="M2.5 0C2.5 0 1.29875 1.58519 0.5 3.5C-0.498438 5.89352 0.504821 9.67036 3.50006 13.5C7.59088 17.4693 10.9221 18.1907 22.5002 21.6782C32.029 21.7667 43.8442 22.6986 44.767 21.6782C45.6897 20.6579 43.5736 8.7382 43.5736 8.7382C43.5736 8.7382 20.0867 6.66803 19.8898 5.87771L17.0669 5.26574L2.5 0Z" fill="#8F7870"/>
</svg>
