<svg width="480" height="320" viewBox="0 0 480 320" fill="none" xmlns="http://www.w3.org/2000/svg">
<g clip-path="url(#clip0_364_5410)">
<path d="M224.343 306.761H97.7472C96.3052 306.761 95.1636 305.368 95.1636 303.608C95.1636 301.847 96.3052 300.454 97.7472 300.454H224.343C225.785 300.454 226.926 301.847 226.926 303.608C226.987 305.294 225.785 306.761 224.343 306.761Z" fill="#CFDEE2"/>
<path d="M313.026 311.942H237.201C235.759 311.942 234.617 310.548 234.617 308.788C234.617 307.028 235.759 305.634 237.201 305.634H313.026C314.468 305.634 315.609 307.028 315.609 308.788C315.609 310.475 314.468 311.942 313.026 311.942Z" fill="#CFDEE2"/>
<path d="M477.474 312.096H350.398C348.956 312.096 347.814 310.702 347.814 308.942C347.814 307.182 348.956 305.788 350.398 305.788H477.414C478.856 305.788 479.998 307.182 479.998 308.942C480.058 310.702 478.916 312.096 477.474 312.096Z" fill="#CFDEE2"/>
<path opacity="0.3" d="M480.415 3.92383H361.789V80.1118H480.415V3.92383Z" fill="#81ACEC"/>
<path opacity="0.3" d="M480.415 3.92383H361.789V13.1797H480.415V3.92383Z" fill="#81ACEC"/>
<path d="M476.7 6.06464H470.97V10.4723H476.7V6.06464Z" fill="#81ACEC"/>
<path d="M468.641 6.06464H462.911V10.4723H468.641V6.06464Z" fill="#81ACEC"/>
<path d="M460.644 6.06464H454.914V10.4723H460.644V6.06464Z" fill="#81ACEC"/>
<path opacity="0.3" d="M428.784 18.7206H370.604V47.8106H428.784V18.7206Z" fill="#81ACEC"/>
<g opacity="0.3">
<path d="M470.971 54.5479H370.604V55.1145H470.971V54.5479Z" fill="#81ACEC"/>
<path d="M470.971 61.4111H370.604V61.9778H470.971V61.4111Z" fill="#81ACEC"/>
<path d="M470.971 68.2114H370.604V68.7781H470.971V68.2114Z" fill="#81ACEC"/>
<path d="M470.971 33.7064H432.688V34.273H470.971V33.7064Z" fill="#81ACEC"/>
<path d="M470.971 40.5696H432.688V41.1363H470.971V40.5696Z" fill="#81ACEC"/>
<path d="M470.971 47.3698H432.688V47.9365H470.971V47.3698Z" fill="#81ACEC"/>
<path d="M470.971 19.7281H432.688V20.2948H470.971V19.7281Z" fill="#81ACEC"/>
<path d="M470.971 26.5283H432.688V27.095H470.971V26.5283Z" fill="#81ACEC"/>
</g>
<path d="M365.444 247.778H350.101C348.131 247.778 346.49 246.137 346.49 244.167V134.795C346.49 132.826 348.131 131.185 350.101 131.185H365.444C367.413 131.185 369.054 132.826 369.054 134.795V244.167C369.054 246.219 367.413 247.778 365.444 247.778Z" fill="#E7CF7F"/>
<path d="M392.931 247.778H377.587C375.618 247.778 373.977 246.137 373.977 244.167V153.584C373.977 151.615 375.618 149.974 377.587 149.974H392.931C394.9 149.974 396.541 151.615 396.541 153.584V244.167C396.541 246.219 394.9 247.778 392.931 247.778Z" fill="#FF8F79"/>
<path d="M420.417 247.778H405.074C403.105 247.778 401.464 246.137 401.464 244.167V205.112C401.464 203.143 403.105 201.502 405.074 201.502H420.417C422.386 201.502 424.027 203.143 424.027 205.112V244.167C424.027 246.219 422.386 247.778 420.417 247.778Z" fill="#E7CF7F"/>
<path d="M447.904 247.778H432.561C430.591 247.778 428.95 246.137 428.95 244.167V162.774C428.95 160.805 430.591 159.164 432.561 159.164H447.904C449.873 159.164 451.514 160.805 451.514 162.774V244.167C451.514 246.219 449.955 247.778 447.904 247.778Z" fill="#FF8F79"/>
<path d="M333.527 100.012C333.527 111.088 329.835 121.387 323.713 129.646C314.677 141.694 300.298 149.564 284.072 149.564C274.647 149.564 265.806 146.941 258.324 142.374C251.134 138.002 245.11 131.783 241.03 124.496C236.949 117.307 234.617 108.951 234.617 100.109C234.617 96.8057 234.909 93.5022 235.589 90.3931C236.56 85.6322 238.115 81.1628 240.35 76.9849C248.608 61.342 265.125 50.6544 284.072 50.6544C311.374 50.5572 333.527 72.7098 333.527 100.012Z" fill="#FF8F79"/>
<path d="M284.072 50.5575V100.012L240.35 76.888C248.608 61.2452 265.029 50.5575 284.072 50.5575Z" fill="#E7CF7F"/>
<path d="M284.072 100.012L258.324 142.277C251.134 137.905 245.11 131.687 241.03 124.399C236.949 117.21 234.617 108.854 234.617 100.012C234.617 96.7087 234.909 93.4053 235.589 90.2961C236.56 85.5352 238.115 81.0658 240.35 76.8879L284.072 100.012Z" fill="#5484CD"/>
<path d="M382.346 270.752H321.793V304.556H382.346V270.752Z" fill="#444C72"/>
<path opacity="0.3" d="M382.428 304.474H321.793V270.669C321.793 270.751 332.378 298.977 382.428 304.474Z" fill="#666666"/>
<path d="M429.771 280.68H387.023V304.474H429.771V280.68Z" fill="#444C72"/>
<path d="M318.348 285.11H283.476V304.557H318.348V285.11Z" fill="#444C72"/>
<path d="M463.657 305.294H461.77C461.36 305.294 460.95 304.966 460.95 304.474C460.95 304.064 461.278 303.653 461.77 303.653H463.657C464.068 303.653 464.478 303.982 464.478 304.474C464.478 304.966 464.15 305.294 463.657 305.294Z" fill="#222850"/>
<path d="M457.668 305.294H273.958C273.548 305.294 273.138 304.966 273.138 304.474C273.138 304.064 273.466 303.653 273.958 303.653H457.668C458.078 303.653 458.488 303.982 458.488 304.474C458.488 304.966 458.078 305.294 457.668 305.294Z" fill="#222850"/>
<path d="M351.086 260.823C351.086 260.823 352.07 265.172 352.07 266.403C352.07 267.634 351.906 269.439 351.578 270.177C351.25 270.834 339.106 270.834 337.055 270.67C335.003 270.506 334.429 270.341 334.265 269.029C334.183 267.634 336.398 266.321 337.547 265.829C338.696 265.336 341.321 263.449 342.142 262.793C343.044 262.136 343.127 260.577 343.127 260.577C343.127 260.577 347.065 258.608 351.086 260.823Z" fill="#222850"/>
<path d="M373.649 257.541C373.649 257.541 375.783 265.172 375.783 266.403C375.783 267.634 375.619 269.439 375.29 270.177C374.962 270.834 362.819 270.834 360.767 270.67C358.716 270.588 358.142 270.342 357.977 269.029C357.895 267.634 360.111 266.321 361.26 265.829C362.408 265.336 364.295 263.449 365.116 262.793C366.019 262.136 364.952 259.429 364.952 259.429C364.952 259.429 369.629 255.408 373.649 257.541Z" fill="#222850"/>
<path d="M374.633 256.557C374.633 256.557 371.516 260.741 364.213 259.182C364.213 259.182 358.962 242.444 356.008 232.188C354.86 228.414 354.039 225.46 353.957 224.64C353.875 223.983 353.875 222.178 353.875 219.717C354.121 210.199 355.27 190.753 355.27 190.753L370.777 188.702C370.777 188.702 371.926 198.302 370.777 203.799C369.628 209.296 368.398 225.132 368.398 225.132L374.633 256.557Z" fill="#444C72"/>
<path d="M359.536 204.619L356.008 232.271C354.86 228.496 354.039 225.543 353.957 224.722C353.875 224.066 353.875 222.26 353.875 219.799L359.536 204.619Z" fill="#222850"/>
<path d="M359.618 189.85C359.618 189.85 360.849 194.035 360.521 200.025C360.193 206.014 351.906 224.393 351.906 224.393V260.495C351.906 260.495 347.065 263.039 342.388 260.167L337.629 220.783L338.778 189.522L359.618 189.85Z" fill="#444C72"/>
<path d="M311.537 141.688L308.173 145.626L308.091 145.708C306.45 144.724 303.743 141.441 302.922 140.621C302.101 139.8 300.953 137.175 300.953 135.78C300.953 134.467 301.773 131.021 302.676 130.775C303.66 130.446 305.63 132.908 306.04 133.482C306.45 134.139 308.666 135.944 308.666 135.944C308.337 134.139 308.994 132.662 309.486 132.58C310.061 132.416 310.471 135.37 310.799 136.518C310.963 137.175 311.209 138.734 311.291 140.047C311.455 140.867 311.537 141.688 311.537 141.688Z" fill="#FFCFCA"/>
<path d="M311.537 141.687L308.173 145.626C307.353 145.051 306.696 144.641 306.696 144.641C306.696 144.641 307.271 141.359 311.373 139.964C311.455 140.867 311.537 141.687 311.537 141.687Z" fill="#FFCFCA"/>
<path d="M339.27 121.421C339.27 121.421 338.614 131.76 340.911 134.303C343.126 136.847 346.573 135.452 346.573 135.452V139.391H354.614V133.647C354.614 133.647 358.306 120.683 356.665 118.795C355.024 116.99 350.921 115.431 347.475 115.513C343.947 115.678 340.091 117.565 339.27 121.421Z" fill="#FFCFCA"/>
<path d="M366.839 140.703C366.839 140.703 358.798 136.108 350.921 136.764C343.044 137.421 337.547 142.098 337.547 142.098L335.578 188.866C335.578 188.866 354.367 193.379 372.09 188.292L366.839 140.703Z" fill="#5484CD"/>
<path d="M376.111 163.759C376.193 166.467 375.126 169.667 373.895 172.457C372.5 175.657 371.023 178.2 371.023 178.2L369.136 161.298L366.839 140.785C366.921 140.703 375.947 157.934 376.111 163.759Z" fill="#5484CD"/>
<path d="M337.63 142.098L337.138 153.749L336.891 160.067C335.25 160.97 333.117 161.626 331.066 162.118C326.471 163.267 321.958 163.677 321.958 163.677C315.64 157.77 306.286 145.133 306.286 145.133C309.076 141.523 311.62 140.703 311.62 140.703L326.717 151.451L337.63 142.098Z" fill="#5484CD"/>
<path d="M337.055 118.139C337.055 118.139 336.809 120.519 339.27 121.421C341.732 122.324 343.044 121.421 343.044 121.421C343.044 121.421 343.619 122.57 344.521 123.062C345.424 123.555 346.08 125.934 346.08 125.934C346.08 125.934 347.393 123.883 348.296 124.867C349.198 125.852 348.624 128.396 347.229 128.888L348.788 133.811H354.614C354.614 133.811 357.814 133.155 358.142 131.35C358.47 129.462 357.65 128.396 357.65 128.396C357.65 128.396 359.865 127.411 360.357 125.36C360.85 123.308 358.881 120.683 358.881 120.683C358.881 120.683 360.686 117.401 358.963 115.514C357.239 113.626 353.301 114.119 353.301 114.119C353.301 114.119 351.414 111.411 348.214 111.411C345.014 111.411 343.947 112.724 343.947 112.724C343.947 112.724 337.465 112.396 337.055 118.139Z" fill="#222850"/>
<path d="M373.895 172.374C372.5 175.574 371.023 178.118 371.023 178.118L369.136 161.215L373.895 172.374Z" fill="#0A5B5B"/>
<path d="M337.137 153.749L336.891 160.067C335.25 160.969 333.116 161.626 331.065 162.118L337.137 153.749Z" fill="#0A5B5B"/>
<path d="M346.49 135.452C346.49 135.452 347.967 134.303 348.46 133.154C348.46 133.154 349.608 136.108 346.49 137.585V135.452Z" fill="#FFCFCA"/>
<path d="M60.5138 34.9855L57.561 34.0302C57.8215 31.5985 57.6479 29.2536 56.9531 26.9956L59.7322 25.606C60.6007 25.1718 60.8612 24.1296 60.427 23.348L58.8637 20.3084C58.4295 19.4399 57.3873 19.1793 56.6057 19.6136L53.8266 21.0031C52.3502 19.1793 50.5264 17.6161 48.4421 16.4871L49.3974 13.5343C49.6579 12.6658 49.2237 11.7105 48.2684 11.3631L45.055 10.3209C44.1865 10.0604 43.2312 10.4946 42.8838 11.4499L41.9285 14.4027C39.4968 14.1422 37.1519 14.3159 34.8939 15.0107L33.5043 12.1447C33.0701 11.2762 32.0279 11.0157 31.2463 11.4499L28.2067 13.0132C27.3382 13.4474 27.0777 14.4896 27.5119 15.2712L28.9014 18.0503C27.0777 19.5267 25.5144 21.3505 24.3854 23.4348L21.4326 22.5664C20.5641 22.3058 19.6088 22.7401 19.2614 23.6954L18.2192 26.9087C17.9587 27.7772 18.3929 28.7325 19.3483 29.0799L22.3011 30.0352C22.0405 32.467 22.2142 34.8118 22.909 37.0699L20.1299 38.4594C19.2614 38.8936 19.0009 39.9358 19.4351 40.7174L20.9983 43.7571C21.4326 44.6256 22.4748 44.8861 23.2564 44.4519L26.0355 43.0623C27.5119 44.8861 29.3357 46.4493 31.42 47.5784L30.4647 50.5312C30.2042 51.3996 30.6384 52.355 31.5937 52.7023L34.8939 53.7445C35.7624 54.0051 36.7177 53.5708 37.0651 52.6155L38.0204 49.6627C40.4521 49.9232 42.797 49.7495 45.055 49.0548L46.4446 51.8339C46.8788 52.7023 47.921 52.9629 48.7026 52.5286L51.7422 50.9654C52.6107 50.5312 52.8713 49.489 52.437 48.7074L51.0475 45.9283C52.8713 44.4519 54.4345 42.6281 55.5635 40.5437L58.5163 41.4991C59.3848 41.7596 60.3401 41.3254 60.6875 40.37L61.7297 37.0699C61.9034 36.2014 61.4691 35.2461 60.5138 34.9855Z" fill="#AAB5C1"/>
<path d="M48.2508 47.6803C56.8959 43.097 60.1886 32.3733 55.6053 23.7283C51.022 15.0832 40.2983 11.7905 31.6532 16.3738C23.0082 20.9571 19.7155 31.6808 24.2988 40.3259C28.8821 48.9709 39.6058 52.2636 48.2508 47.6803Z" fill="#E3E9F2"/>
<path d="M45.0371 41.7197C50.3893 38.9125 52.4525 32.2978 49.6452 26.9455C46.8379 21.5933 40.2232 19.5301 34.871 22.3374C29.5187 25.1447 27.4556 31.7594 30.2629 37.1116C33.0701 42.4639 39.6848 44.527 45.0371 41.7197Z" fill="#AAB5C1"/>
<path d="M39.9316 47.0582C38.4552 47.0582 36.8919 46.7977 35.3286 46.3634C27.4253 43.8448 22.996 35.3335 25.5146 27.4302C28.0332 19.5269 36.5445 15.0976 44.4478 17.6162C52.3511 20.1349 56.7804 28.6461 54.2618 36.5494C52.2643 42.9763 46.3585 47.0582 39.9316 47.0582ZM39.9316 17.5294C33.8522 17.5294 28.1201 21.4376 26.1226 27.6039C23.6908 35.1598 27.9464 43.3237 35.5023 45.7555C43.0582 48.1873 51.2221 43.9316 53.6539 36.3757C56.0856 28.8198 51.83 20.656 44.2741 18.2242C42.8845 17.7899 41.4081 17.5294 39.9316 17.5294Z" fill="#AAB5C1"/>
<path d="M45.1422 33.683C44.1868 36.549 41.1471 38.1991 38.2811 37.2438C35.415 36.2884 33.7649 33.2487 34.7202 30.3827C35.6756 27.5166 38.7153 25.8665 41.5813 26.8218C44.4474 27.6903 46.0975 30.7301 45.1422 33.683Z" fill="#E3E9F2"/>
<path d="M146.666 50.8785H140.066C139.11 45.8414 137.113 41.1516 134.334 37.0698L139.024 32.3801C140.413 30.9905 140.413 28.6456 139.024 27.2561L133.9 22.1321C132.51 20.7426 130.165 20.7426 128.776 22.1321L124.086 26.8219C120.004 24.0427 115.314 22.0453 110.277 21.0899V14.4896C110.277 12.4921 108.627 10.842 106.63 10.842H99.3344C97.3369 10.842 95.6868 12.4921 95.6868 14.4896V21.0899C90.6497 22.0453 85.9599 24.0427 81.8781 26.8219L77.1884 22.1321C75.7988 20.7426 73.4539 20.7426 72.0644 22.1321L66.9404 27.2561C65.5508 28.6456 65.5508 30.9905 66.9404 32.3801L71.6301 37.0698C68.851 41.1516 66.8536 45.8414 65.8982 50.8785H59.2979C57.3004 50.8785 55.6503 52.5286 55.6503 54.5261V61.8213C55.6503 63.8187 57.3004 65.4688 59.2979 65.4688H65.8982C66.8536 70.506 68.851 75.1957 71.6301 79.2775L66.9404 83.9673C65.5508 85.3568 65.5508 87.7017 66.9404 89.0913L72.0644 94.2153C73.4539 95.6048 75.7988 95.6048 77.1884 94.2153L81.8781 89.5255C85.9599 92.3046 90.6497 94.3021 95.6868 95.2574V101.858C95.6868 103.855 97.3369 105.505 99.3344 105.505H106.63C108.627 105.505 110.277 103.855 110.277 101.858V95.2574C115.314 94.3021 120.004 92.3046 124.086 89.5255L128.776 94.2153C130.165 95.6048 132.51 95.6048 133.9 94.2153L139.024 89.0913C140.413 87.7017 140.413 85.3568 139.024 83.9673L134.334 79.2775C137.113 75.1957 139.11 70.506 140.066 65.4688H146.666C148.664 65.4688 150.314 63.8187 150.314 61.8213V54.5261C150.227 52.5286 148.664 50.8785 146.666 50.8785Z" fill="#AAB5C1"/>
<path d="M102.895 95.9524C123.76 95.9524 140.674 79.0384 140.674 58.1739C140.674 37.3094 123.76 20.3954 102.895 20.3954C82.0308 20.3954 65.1168 37.3094 65.1168 58.1739C65.1168 79.0384 82.0308 95.9524 102.895 95.9524Z" fill="#E3E9F2"/>
<path d="M102.895 81.4487C115.749 81.4487 126.17 71.0281 126.17 58.1737C126.17 45.3192 115.749 34.8986 102.895 34.8986C90.0406 34.8986 79.62 45.3192 79.62 58.1737C79.62 71.0281 90.0406 81.4487 102.895 81.4487Z" fill="#AAB5C1"/>
<path d="M102.895 89.1781C85.7862 89.1781 71.8906 75.2826 71.8906 58.1737C71.8906 41.0648 85.7862 27.1693 102.895 27.1693C120.004 27.1693 133.899 41.0648 133.899 58.1737C133.899 75.2826 120.004 89.1781 102.895 89.1781ZM102.895 27.864C86.2204 27.864 72.5854 41.499 72.5854 58.1737C72.5854 74.8483 86.2204 88.4834 102.895 88.4834C119.57 88.4834 133.205 74.8483 133.205 58.1737C133.205 41.4122 119.657 27.864 102.895 27.864Z" fill="#AAB5C1"/>
<path d="M102.895 72.5911C110.858 72.5911 117.312 66.1363 117.312 58.174C117.312 50.2117 110.858 43.757 102.895 43.757C94.9331 43.757 88.4784 50.2117 88.4784 58.174C88.4784 66.1363 94.9331 72.5911 102.895 72.5911Z" fill="#E3E9F2"/>
<path d="M129.044 149.512C129.044 149.512 128.678 139.097 116.649 133.67C116.649 133.67 118.629 129.562 123.397 130.296C123.397 130.296 130.878 139.831 129.851 149.512C129.851 149.512 129.704 149.879 129.044 149.512Z" fill="#444C72"/>
<path d="M161.022 182.077C160.729 183.103 160.362 184.13 159.995 185.084C154.201 199.459 142.246 201.586 137.992 201.586C133.445 201.586 131.611 200.413 128.457 200.119C125.23 199.752 123.617 202.319 116.575 201.586C109.608 200.853 96.4059 183.177 97.066 170.048C97.066 169.315 97.1393 168.581 97.2127 167.848C98.4595 156.113 104.474 149.512 111.808 147.605C119.656 145.625 125.083 148.705 128.971 148.705C137.699 148.632 140.339 145.478 149.067 148.045C157.795 150.612 166.229 164.914 161.022 182.077Z" fill="#FF8F79"/>
<path opacity="0.3" d="M159.995 185.01C154.201 199.386 142.246 201.513 137.992 201.513C133.445 201.513 131.611 200.339 128.457 200.046C125.23 199.679 123.617 202.246 116.575 201.513C109.608 200.779 96.4059 183.103 97.066 169.975C97.066 169.241 97.1393 168.508 97.2127 167.774C100.586 174.669 109.828 188.604 130.731 189.558C146.647 190.218 155.374 187.504 159.995 185.01Z" fill="#666666"/>
<path d="M129.777 144.818C129.777 144.818 126.11 137.337 131.464 130.149C136.819 122.961 144.52 118.047 153.542 120.321C153.542 120.321 155.449 127.435 148.407 135.724C141.366 144.012 135.132 144.305 129.777 144.818Z" fill="#5484CD"/>
<path d="M147.527 126.629C146.867 126.555 146.134 126.482 145.473 126.409L145.547 126.335C147.454 124.722 149.361 123.255 151.341 121.788C150.314 122.448 149.214 123.108 148.187 123.768C147.16 124.502 146.134 125.162 145.18 125.968C145.107 126.042 145.033 126.042 145.033 126.115C145.107 124.722 145.107 123.255 145.033 121.861C144.667 123.475 144.447 125.088 144.3 126.702C142.686 128.022 141.073 129.416 139.606 130.883C139.312 131.176 139.092 131.469 138.799 131.689C138.506 129.709 138.139 127.802 137.699 125.895C137.772 128.022 137.919 130.223 138.212 132.35C136.965 133.67 135.792 135.063 134.692 136.457C134.471 136.75 134.251 137.117 133.958 137.41C133.518 135.65 133.005 133.963 132.344 132.276C132.564 134.257 133.005 136.164 133.445 138.144C132.418 139.611 131.464 141.151 130.731 142.691C131.391 141.664 132.051 140.638 132.858 139.611C133.151 139.171 133.518 138.731 133.811 138.291C134.838 138.511 135.792 138.731 136.819 138.877C137.332 138.951 137.845 139.024 138.359 139.097C138.872 139.171 139.386 139.244 139.899 139.244C139.386 139.024 138.872 138.877 138.432 138.731C137.919 138.584 137.405 138.437 136.892 138.291C136.012 138.071 135.132 137.851 134.251 137.63C134.545 137.264 134.765 136.97 135.058 136.604C136.232 135.21 137.405 133.89 138.652 132.643C139.826 132.863 140.999 133.083 142.246 133.23C142.906 133.303 143.493 133.376 144.153 133.45C144.813 133.523 145.4 133.596 146.06 133.596C145.473 133.376 144.813 133.23 144.227 133.083C143.64 132.936 142.98 132.79 142.393 132.643C141.366 132.423 140.339 132.203 139.312 131.983C139.606 131.689 139.826 131.396 140.119 131.103C140.999 130.223 141.879 129.342 142.76 128.609L144.153 127.362L144.74 126.849C145.62 126.922 146.574 126.995 147.454 127.069C147.894 127.069 148.407 127.069 148.847 127.069C149.287 127.069 149.801 127.069 150.241 126.995C149.801 126.849 149.287 126.775 148.847 126.702C148.481 126.775 148.04 126.702 147.527 126.629Z" fill="#444C72"/>
<path d="M180.238 209.727V221.682C180.238 224.396 182.438 226.67 185.225 226.67H185.812V229.897H75.0627C74.256 229.897 73.4492 229.823 72.6424 229.677C65.9681 228.503 60.9073 222.709 60.9073 215.741C60.9073 211.854 62.5209 208.26 65.088 205.693C66.3348 204.446 67.8017 203.42 69.4886 202.686C70.5888 202.246 71.6889 201.879 72.8624 201.659C73.5959 201.513 74.3293 201.513 75.1361 201.513H185.886V204.74H185.299C182.438 204.74 180.238 206.94 180.238 209.727Z" fill="#E7CF7F"/>
<path d="M185.225 226.596H145.253C139.239 226.596 134.325 221.682 134.325 215.668C134.325 212.661 135.572 209.947 137.552 207.967C139.532 205.987 142.246 204.74 145.253 204.74H185.225C182.512 204.74 180.238 206.94 180.238 209.727V221.682C180.238 224.396 182.438 226.596 185.225 226.596Z" fill="#EFEECA"/>
<path d="M190.14 239.505V253.514C190.14 256.741 192.78 259.381 196.007 259.381H196.667V263.195H64.9413C55.6266 263.195 48.0721 255.714 48.0721 246.546C48.0721 241.925 49.9791 237.818 52.9862 234.738C56.0666 231.73 60.2473 229.897 64.9413 229.897H196.74V233.711H196.08C192.78 233.637 190.14 236.278 190.14 239.505Z" fill="#FF8F79"/>
<path d="M196.08 259.381H148.48C141.292 259.381 135.498 253.587 135.498 246.546C135.498 243.025 136.965 239.798 139.312 237.451C141.659 235.104 144.886 233.711 148.48 233.711H196.08C192.853 233.711 190.213 236.351 190.213 239.505V253.514C190.139 256.741 192.78 259.381 196.08 259.381Z" fill="#EFEECA"/>
<path d="M190.14 272.803V286.812C190.14 290.039 192.78 292.606 196.007 292.606H196.667V296.42H64.9413C55.6266 296.42 48.0721 288.939 48.0721 279.771C48.0721 275.15 49.9791 270.97 52.9862 267.962C56.0666 264.955 60.2473 263.122 64.9413 263.122H196.74V266.936H196.08C192.78 266.936 190.14 269.576 190.14 272.803Z" fill="#5484CD"/>
<path d="M196.08 292.679H148.48C141.292 292.679 135.498 286.885 135.498 279.844C135.498 276.324 136.965 273.097 139.312 270.749C141.659 268.402 144.886 267.009 148.48 267.009H196.08C192.853 267.009 190.213 269.576 190.213 272.803V286.812C190.139 290.039 192.78 292.679 196.08 292.679Z" fill="#EFEECA"/>
<path opacity="0.3" d="M121.71 263.122L117.749 229.823L114.375 201.513H110.855L112.542 215.595H74.6227C74.5493 215.595 74.476 215.595 74.4027 215.595L72.7157 201.659C71.5422 201.879 70.3687 202.173 69.3419 202.686L72.5691 229.677L76.603 263.195L80.5636 296.493H84.0841L82.6172 284.098H120.683L122.15 296.493H125.67L121.71 263.122ZM76.1629 229.823L74.8427 219.115H112.688C112.762 219.115 112.835 219.115 112.908 219.115L114.228 229.897L116.502 248.6H78.5833C78.5099 248.6 78.4366 248.6 78.3632 248.6L76.1629 229.823ZM82.1771 280.578L80.1235 263.195L78.8033 252.047H116.575C116.649 252.047 116.796 252.047 116.869 252.047L118.189 263.195L120.243 280.578H82.3972C82.3238 280.578 82.2505 280.578 82.1771 280.578Z" fill="#666666"/>
<path d="M24.8955 297.153H22.3284C21.9617 297.153 21.595 296.86 21.595 296.42C21.595 296.053 21.8884 295.686 22.3284 295.686H24.8955C25.2623 295.686 25.629 295.98 25.629 296.42C25.629 296.86 25.2623 297.153 24.8955 297.153Z" fill="#222850"/>
<path d="M204.662 297.153H29.663C29.2963 297.153 28.9296 296.86 28.9296 296.42C28.9296 296.053 29.2229 295.686 29.663 295.686H204.662C205.029 295.686 205.395 295.98 205.395 296.42C205.395 296.86 205.029 297.153 204.662 297.153Z" fill="#222850"/>
<path d="M48.4388 315.343C47.4854 315.196 46.8253 314.389 46.8986 313.436L67.9484 137.337C68.095 136.383 68.9018 135.723 69.8553 135.796C70.8088 135.943 71.4689 136.75 71.3955 137.703L50.3458 313.802C50.2724 314.756 49.3923 315.416 48.4388 315.343Z" fill="#AAB5C1"/>
<path d="M97.9461 235.398H59.9539C59.0004 235.398 58.1936 234.591 58.1936 233.637C58.1936 232.684 59.0004 231.877 59.9539 231.877H98.0194C98.9729 231.877 99.7797 232.684 99.7797 233.637C99.7063 234.591 98.9729 235.398 97.9461 235.398Z" fill="#818F99"/>
<path d="M94.2056 267.449H56.14C55.1865 267.449 54.3798 266.642 54.3798 265.689C54.3798 264.735 55.1865 263.928 56.14 263.928H94.2056C95.159 263.928 95.9658 264.735 95.9658 265.689C95.9658 266.642 95.159 267.449 94.2056 267.449Z" fill="#818F99"/>
<path d="M90.3916 299.427H52.2527C51.2992 299.427 50.4924 298.62 50.4924 297.667C50.4924 296.713 51.2992 295.906 52.2527 295.906H90.3182C91.2717 295.906 92.0785 296.713 92.0785 297.667C92.0785 298.62 91.3451 299.427 90.3916 299.427Z" fill="#818F99"/>
<path d="M106.381 170.488H67.7283C66.7748 170.488 65.968 169.681 65.968 168.728C65.968 167.774 66.7748 166.968 67.7283 166.968H106.381C107.334 166.968 108.141 167.774 108.141 168.728C108.141 169.681 107.334 170.488 106.381 170.488Z" fill="#818F99"/>
<path d="M101.833 202.466H63.9144C62.961 202.466 62.1542 201.659 62.1542 200.706C62.1542 199.752 62.961 198.946 63.9144 198.946H101.907C102.86 198.946 103.667 199.752 103.667 200.706C103.594 201.659 102.86 202.466 101.833 202.466Z" fill="#818F99"/>
<path d="M90.0249 315.343C89.0714 315.196 88.4113 314.389 88.4847 313.436L109.534 137.337C109.681 136.383 110.488 135.723 111.441 135.796C112.395 135.943 113.055 136.75 112.982 137.703L91.9319 313.802C91.8585 314.756 90.9784 315.416 90.0249 315.343Z" fill="#AAB5C1"/>
<path d="M86.2111 192.125C86.2111 192.125 85.3309 195.939 85.3309 196.965C85.3309 197.992 85.4776 199.606 85.771 200.193C86.0644 200.779 96.5529 200.706 98.3865 200.633C100.147 200.559 100.66 200.413 100.807 199.166C100.88 197.992 98.9733 196.819 97.9465 196.379C96.9196 195.939 94.7192 194.325 93.9858 193.738C93.2523 193.151 93.1056 191.758 93.1056 191.758C93.1056 191.758 89.6584 190.291 86.2111 192.125Z" fill="#222850"/>
<path d="M66.8483 188.898C66.8483 188.898 64.8679 195.865 64.8679 196.966C64.8679 197.992 65.0146 199.606 65.308 200.193C65.6014 200.78 76.0899 200.706 77.9235 200.633C79.6838 200.56 80.1972 200.413 80.3439 199.166C80.4173 197.992 78.5103 196.819 77.4834 196.379C76.4566 195.939 75.2097 194.105 74.4763 193.518C73.7428 192.932 73.5961 189.851 73.5961 189.851C73.5961 189.851 70.2955 187.064 66.8483 188.898Z" fill="#222850"/>
<path d="M83.7906 160.88C83.6439 161.54 83.0572 163.667 82.2504 166.601C79.6833 175.402 74.916 190.804 74.916 190.804C68.6084 192.125 65.8947 188.531 65.8947 188.531L71.2488 161.32C71.2488 161.32 70.222 147.605 69.1951 142.837C68.1683 138.07 69.1951 129.709 69.1951 129.709L82.6171 131.469C82.6171 131.469 82.9105 136.677 83.2772 142.764C83.6439 150.465 84.0106 159.413 83.7906 160.88Z" fill="#444C72"/>
<path d="M83.7909 160.881C83.6442 161.541 83.0574 163.668 82.2506 166.602L78.2899 141.077L83.2041 142.838C83.6442 150.465 84.0109 159.414 83.7909 160.881Z" fill="#222850"/>
<path d="M78.8766 130.736C78.8766 130.736 77.8498 134.33 78.1432 139.537C78.4365 144.744 85.6243 160.66 85.6243 160.66V191.905C85.6243 191.905 89.8782 194.105 93.8388 191.611L97.9461 157.506L96.9926 130.442L78.8766 130.736Z" fill="#444C72"/>
<path d="M121.123 79.3951C120.83 79.9818 120.169 81.6688 119.436 83.1357C119.069 83.8692 118.629 84.6026 118.262 85.0427L114.302 82.6956C114.302 82.6956 114.228 82.4756 114.155 82.1822C113.935 81.1554 113.422 79.0283 113.422 78.2215C113.348 77.1947 112.908 74.6276 113.422 74.6276C113.935 74.5542 114.889 75.5811 115.035 77.1947C115.035 77.1947 116.355 75.0677 116.502 74.4075C116.649 73.8208 117.602 71.2537 118.483 71.2537C119.363 71.2537 120.976 73.8208 121.343 74.921C121.783 75.9478 121.563 78.4416 121.123 79.3951Z" fill="#FFCFCA"/>
<path d="M119.436 83.1354C119.069 83.8689 118.629 84.6024 118.262 85.0424L114.302 82.6954C114.302 82.6954 114.228 82.4753 114.155 82.1819C114.228 82.1086 116.135 81.8152 119.436 83.1354Z" fill="#FFCFCA"/>
<path d="M96.4795 71.5472C96.4795 71.5472 96.993 80.4954 95.086 82.6958C93.1056 84.8962 90.1718 83.7226 90.1718 83.7226V87.0966H83.2039V82.1824C83.2039 82.1824 79.9767 70.9604 81.4436 69.3468C82.9105 67.7332 86.3578 66.413 89.365 66.4863C92.3722 66.5597 95.6727 68.1733 96.4795 71.5472Z" fill="#FFCFCA"/>
<path d="M88.3382 74.9946H87.4581C87.4581 74.9946 86.7246 73.4543 85.9178 73.601C85.111 73.7477 84.4509 75.9481 85.4777 77.2683C86.5046 78.5885 87.3847 78.4418 87.3847 78.4418L86.9447 82.1825H83.2774C83.2774 82.1825 81.1503 80.5689 80.4902 79.102C79.8301 77.635 77.7031 72.7942 78.2165 69.0536C78.7299 65.3129 82.3972 64.5794 83.204 65.2396C83.204 65.2396 84.4509 62.7458 86.4312 62.7458C88.4116 62.7458 90.4653 63.5526 92.5923 63.4059C94.7193 63.2592 97.2131 62.4524 98.7534 64.1394C100.294 65.8263 99.7802 70.0071 96.4797 71.6207C93.1791 73.2343 90.4653 72.5008 90.4653 72.5008C90.4653 72.5008 88.4116 73.0142 88.3382 74.9946Z" fill="#222850"/>
<path d="M82.9105 64.5794C82.9105 64.5794 80.4168 62.8925 81.517 62.159C82.6172 61.4256 83.2039 62.8925 82.9105 64.5794Z" fill="#222850"/>
<path d="M72.5691 88.1961C72.5691 88.1961 79.5367 84.2356 86.3577 84.8223C93.1787 85.4091 97.9461 89.443 97.9461 89.443L99.633 129.929C99.633 129.929 83.424 133.816 68.0217 129.415L72.5691 88.1961Z" fill="#5484CD"/>
<path d="M72.5692 88.1962L71.1023 101.105L68.9019 120.542C68.9019 120.542 68.0951 119.148 67.1416 117.241C65.8948 114.674 64.4278 111.007 64.5012 108.146C64.6479 103.085 72.5692 88.1962 72.5692 88.1962Z" fill="#5484CD"/>
<path d="M119.143 85.4092C119.143 85.4092 116.943 103.012 111.442 108.146C111.442 108.146 106.748 107.706 102.493 106.459C101.027 106.019 99.633 105.579 98.5328 104.993V104.479L97.946 89.4432L107.408 97.5113L113.642 82.1819C113.569 82.1086 116.723 82.3286 119.143 85.4092Z" fill="#5484CD"/>
<path d="M90.1717 83.6489C90.1717 83.6489 88.338 82.622 87.4579 81.3018C87.4579 81.3018 87.6779 84.3824 90.1717 85.4825V83.6489Z" fill="#FFCFCA"/>
<path d="M71.1023 101.105L68.9019 120.541C68.9019 120.541 68.0951 119.148 67.1416 117.241L71.1023 101.105Z" fill="#0A5B5B"/>
<path d="M102.494 106.459C101.027 106.019 99.633 105.579 98.5328 104.992V104.479V99.3444L102.494 106.459Z" fill="#0A5B5B"/>
<path d="M120.536 316.076H117.749C117.382 316.076 117.016 315.783 117.016 315.343C117.016 314.976 117.309 314.609 117.749 314.609H120.536C120.903 314.609 121.27 314.903 121.27 315.343C121.27 315.709 120.903 316.076 120.536 316.076Z" fill="#222850"/>
<path d="M112.542 316.076H38.7575C38.3908 316.076 38.024 315.783 38.024 315.343C38.024 314.976 38.3174 314.609 38.7575 314.609H112.542C112.908 314.609 113.275 314.903 113.275 315.343C113.275 315.709 112.908 316.076 112.542 316.076Z" fill="#222850"/>
</g>
<defs>
<clipPath id="clip0_364_5410">
<rect width="480" height="320" fill="white"/>
</clipPath>
</defs>
</svg>
