<svg width="8" height="7" viewBox="0 0 8 7" fill="none" xmlns="http://www.w3.org/2000/svg">
<path d="M0.880396 3.19512C0.797176 2.98947 0.904 2.75616 1.11405 2.68479L5.83243 1.08171C6.01101 1.02103 6.20605 1.10924 6.27842 1.28342L6.55527 1.94968C7.16425 3.41529 6.46524 5.09665 4.9967 5.69854V5.69854C3.52857 6.30026 1.85105 5.59369 1.25585 4.12291L0.880396 3.19512Z" fill="white"/>
<path d="M4.40012 5.8529C2.45418 6.42624 1.5044 4.92106 1.09174 3.63286C1.68808 4.0718 2.67207 4.34958 3.79284 4.12569C4.94982 3.89409 6.04058 2.86742 6.58407 2.01434C7.00093 2.90676 6.82214 5.47179 4.4469 5.85328L4.40012 5.8529Z" fill="#D8424D"/>
</svg>
