<svg width="102" height="100" viewBox="0 0 102 100" fill="none" xmlns="http://www.w3.org/2000/svg">
<g clip-path="url(#clip0_364_7041)">
<path d="M82.6228 57.232L84.2815 52.8867C85.0561 50.8567 85.3095 48.6607 84.9895 46.512C83.6541 37.542 77.6215 30.206 69.6068 26.8713C69.3688 25.7693 68.7695 24.7753 67.8795 24.0413L38.7435 0L0.125488 45.9693V55.584L30.6175 80.9593C32.8268 82.7987 36.1322 82.36 37.7915 80.024L44.5635 70.4867C47.5062 72.726 50.8995 74.2947 54.5128 75.0793C54.4795 78.176 58.3715 79.5773 60.3195 77.17L64.1675 72.4153L64.0595 72.2567C64.4262 72.324 64.7895 72.3747 65.1495 72.4093L83.2095 99.9987C101.989 93.702 101.377 81.9653 101.875 81.1593L82.6235 57.2307L82.6228 57.232Z" fill="white"/>
<path d="M3.54541 47.2149V53.9816L32.8047 78.3316C33.4814 78.8943 34.4934 78.7623 35.0027 78.0449L65.7901 34.6856C66.2827 33.9923 66.1714 33.0383 65.5321 32.4769L60.7821 28.3036L3.54541 47.2149Z" fill="#76A0EE"/>
<path d="M4.49023 53.5181V46.9234L34.7996 71.4927L66.4449 27.8L65.5156 33.7887L34.9222 76.6214C34.4549 77.2754 33.5316 77.3974 32.9102 76.8867L4.49023 53.5181Z" fill="#EAE5DB"/>
<path d="M39.1814 4.79443L65.7027 26.6784C66.3741 27.2324 66.5034 28.2104 66.0001 28.9198L35.7667 71.5338C35.2601 72.2478 34.2541 72.3831 33.5767 71.8278L3.54541 47.2151L39.1814 4.79443Z" fill="#76A0EE"/>
<path d="M34.0581 22.764L38.4661 17.46L55.3508 31.356L51.0921 36.9593L34.0581 22.764Z" fill="#C0D5FC"/>
<path d="M37.6409 47.905C40.6466 48.0945 42.1738 47.4013 43.6089 47.1414C43.9122 47.0872 44.4267 47.0006 45.0333 46.9031C45.5532 45.5329 45.7589 44.1465 45.6939 42.9334C45.656 42.2294 45.564 41.5362 45.434 40.8592C43.1594 41.0433 43.1161 42.0723 41.069 43.0038C38.8106 44.0328 36.4387 43.123 36.5957 41.5957C36.7528 40.0631 36.6282 39.4891 34.7164 35.3407C34.0828 33.9651 33.9583 32.9145 34.0666 32.113C31.5971 31.9667 29.55 32.0317 29.55 32.0317C29.55 32.0317 25.6832 32.4975 23.3003 35.3407C23.4086 35.3623 25.342 35.7306 26.6634 37.9619C28.0173 40.2581 24.7354 41.7366 26.6634 43.0038C28.5914 44.2711 28.7863 48.0945 28.7863 49.8167C28.7863 50.8511 28.4343 52.14 27.6165 53.0065C28.6563 53.3802 29.8478 53.6618 31.218 53.8297C31.7541 53.8947 32.2632 53.9326 32.7668 53.9597C32.8047 53.1744 32.9293 52.1996 33.2326 51.1544C33.9528 48.6686 34.6406 47.71 37.6409 47.905Z" fill="#4D97F5"/>
<path d="M26.6632 43.0041C24.7352 41.7368 28.0171 40.2529 26.6632 37.9621C25.3472 35.7309 23.4138 35.3626 23.3001 35.3409C22.5961 36.1804 22.0112 37.2256 21.7079 38.5362C20.5381 43.5456 20.4569 50.4506 27.6164 53.0122C28.4341 52.1403 28.7862 50.8568 28.7862 49.8224C28.7862 48.1002 28.5966 44.2768 26.6632 43.0095V43.0041Z" fill="#AAD66D"/>
<path d="M34.7164 35.3351C36.6281 39.4889 36.7527 40.063 36.5957 41.5902C36.4386 43.1228 38.8106 44.0272 41.069 42.9983C43.1161 42.0668 43.1648 41.0378 45.434 40.8537C44.6758 36.9273 42.4337 33.6021 39.1464 32.7898C37.5922 32.4053 35.7346 32.2049 34.072 32.1074C33.9637 32.9089 34.0882 33.9596 34.7218 35.3351H34.7164Z" fill="#AAD66D"/>
<path d="M45.033 46.9034C44.4265 47.0008 43.912 47.0875 43.6087 47.1417C42.1736 47.407 40.6464 48.1002 37.6407 47.9053C34.635 47.7103 33.9526 48.6689 33.2323 51.1546C32.9291 52.1999 32.8099 53.1801 32.7666 53.9599C39.8015 54.3065 43.6087 50.6618 45.0385 46.8979L45.033 46.9034Z" fill="#AAD66D"/>
<path d="M84.6351 95.9351C84.6351 95.9351 96.2071 92.1478 98.2097 82.0605L79.6857 59.0365L71.6611 48.6871L53.5117 61.8118C53.5117 61.8118 60.6224 69.6251 67.0111 69.0118L84.6351 95.9358V95.9351Z" fill="#FFCFCA"/>
<path d="M53.9103 34.1761C52.0696 34.1761 50.5723 32.6788 50.5723 30.8381C50.5723 28.9975 52.0696 27.5001 53.9103 27.5001C55.7509 27.5001 57.2483 28.9975 57.2483 30.8381C57.2483 32.6788 55.7509 34.1761 53.9103 34.1761ZM53.9103 28.5175C52.6309 28.5175 51.5896 29.5581 51.5896 30.8381C51.5896 32.1181 52.6303 33.1588 53.9103 33.1588C55.1903 33.1588 56.2309 32.1181 56.2309 30.8381C56.2309 29.5581 55.1903 28.5175 53.9103 28.5175Z" fill="white"/>
<path d="M56.4213 39.9294C57.5243 39.6245 57.9387 37.6418 57.347 35.5007C56.7552 33.3597 55.3814 31.8712 54.2784 32.1761C53.1754 32.4809 52.761 34.4637 53.3527 36.6047C53.9444 38.7457 55.3183 40.2342 56.4213 39.9294Z" fill="#F29B98"/>
<path d="M59.908 65.5586C68.3341 65.5586 75.1647 58.728 75.1647 50.302C75.1647 41.8759 68.3341 35.0453 59.908 35.0453C51.482 35.0453 44.6514 41.8759 44.6514 50.302C44.6514 58.728 51.482 65.5586 59.908 65.5586Z" fill="#F29B98"/>
<path d="M72.2158 50.3011C72.2158 57.0991 66.7065 62.6118 59.9085 62.6118C58.8212 62.6118 57.7678 62.4718 56.7658 62.2084C55.1792 61.7878 53.7152 61.0631 52.4465 60.0951C49.4985 57.8451 47.5972 54.2951 47.5972 50.3011C47.5972 43.5031 53.1098 37.9938 59.9078 37.9938C63.9018 37.9938 67.4518 39.8951 69.6985 42.8431C70.6665 44.1118 71.3945 45.5751 71.8118 47.1624C72.0752 48.1644 72.2152 49.2178 72.2152 50.3018L72.2158 50.3011Z" fill="#8574EE"/>
<path d="M59.9079 50.3021C59.9079 50.3021 58.8519 47.9834 58.6892 44.6847C58.5265 41.3861 58.5279 40.5061 59.0152 40.1127C59.5025 39.7194 59.9899 42.5541 60.0705 44.9967C60.1519 47.4394 59.9079 50.3014 59.9079 50.3014V50.3021Z" fill="#1D1D3D"/>
<path d="M71.8128 47.1622L56.7661 62.2088C55.1794 61.7882 53.7154 61.0635 52.4468 60.0955L69.6988 42.8435C70.6668 44.1122 71.3948 45.5755 71.8121 47.1628L71.8128 47.1622Z" fill="white"/>
<path d="M59.9079 50.3019C59.9079 50.3019 61.6166 50.5853 63.1432 51.8926C64.6699 53.1999 65.0472 53.5793 64.8872 54.0766C64.7272 54.5739 63.1806 53.6853 62.0766 52.6906C60.9726 51.6959 59.9072 50.3013 59.9072 50.3013L59.9079 50.3019Z" fill="#1D1D3D"/>
<path d="M59.908 51.4454C60.5394 51.4454 61.0513 50.9335 61.0513 50.302C61.0513 49.6706 60.5394 49.1587 59.908 49.1587C59.2765 49.1587 58.7646 49.6706 58.7646 50.302C58.7646 50.9335 59.2765 51.4454 59.908 51.4454Z" fill="white"/>
<path d="M61.0754 27.8833L62.5614 26.3406C62.756 26.1386 62.75 25.816 62.548 25.6213C62.3454 25.4266 62.0234 25.4326 61.8287 25.6346L59.6027 27.946C59.5287 28 59.4767 28.0733 59.444 28.1553C59.442 28.1593 59.4407 28.1626 59.4387 28.1666C59.4354 28.1753 59.4334 28.1833 59.4307 28.192C59.3914 28.3033 59.3914 28.4246 59.432 28.536C59.438 28.5553 59.4467 28.5733 59.4554 28.592C59.4567 28.5946 59.4574 28.5966 59.4587 28.5993C59.482 28.6486 59.5134 28.6933 59.552 28.732L61.7954 31.584C61.9687 31.804 62.2887 31.8433 62.51 31.6693C62.7307 31.4953 62.7694 31.176 62.5954 30.9546L60.9774 28.8973C72.3007 29.456 81.3407 38.8433 81.3407 50.302C81.3407 50.5833 81.5687 50.8106 81.8494 50.8106C82.13 50.8106 82.358 50.5826 82.358 50.302C82.358 38.3153 72.914 28.4926 61.076 27.8833H61.0754Z" fill="#FFB020"/>
<path d="M60.3826 72.4255C60.4266 72.3115 60.4266 72.1848 60.3853 72.0695C60.382 72.0588 60.378 72.0488 60.374 72.0382C60.3713 72.0322 60.3686 72.0262 60.3653 72.0195C60.3446 71.9722 60.3186 71.9282 60.284 71.8895L58.414 69.1502C58.256 68.9182 57.9393 68.8582 57.7073 69.0168C57.4753 69.1755 57.4153 69.4915 57.574 69.7235L58.93 71.7102C47.5653 71.1968 38.4773 61.7908 38.4773 50.3015C38.4773 50.0202 38.2493 49.7928 37.9686 49.7928C37.688 49.7928 37.46 50.0208 37.46 50.3015C37.46 62.3295 46.9686 72.1775 58.8633 72.7255L57.542 74.3575C57.3653 74.5762 57.3993 74.8962 57.6173 75.0728C57.836 75.2495 58.156 75.2155 58.3326 74.9975L60.2593 72.6168C60.316 72.5628 60.358 72.4968 60.3833 72.4242L60.3826 72.4255Z" fill="#FFB020"/>
<path d="M78.8568 62.4752L79.5901 51.1345C79.6261 50.5825 79.5455 50.0285 79.3541 49.5098L77.4788 44.4245C77.1468 43.5245 76.3075 42.9098 75.3488 42.8732C74.0761 42.8252 72.2581 42.6872 70.7921 42.3052C69.8241 42.0532 68.9635 42.9618 69.2801 43.9105C69.7128 45.2058 70.8001 46.5952 73.4515 46.7798L73.9241 49.1418C73.9241 49.1418 67.4668 56.9198 70.3548 63.1045C73.2428 69.2892 78.8581 62.4745 78.8581 62.4745L78.8568 62.4752Z" fill="#FFCFCA"/>
<path d="M57.7511 35.4699C57.4758 34.2065 57.5778 33.2972 59.2465 32.8012C60.6525 32.3839 61.2325 32.9772 61.5165 34.3579C61.7658 35.5685 62.2185 38.0112 62.1931 39.2472C62.1558 41.0912 60.9838 41.5885 59.8898 41.0012C58.6798 40.3512 58.4485 38.6732 57.7511 35.4699Z" fill="#FFCFCA"/>
<path d="M50.2166 36.3624C50.6039 36.1004 51.1019 35.9611 51.5459 36.1064C51.9679 36.2451 52.2706 36.6091 52.5393 36.9631C53.7099 38.5038 54.7059 40.1771 55.5019 41.9404C55.9413 42.9138 55.8666 43.2718 55.2792 44.0984C54.4386 45.2818 53.7552 45.5398 52.5659 44.5144C51.4366 43.5411 50.4426 42.4211 49.4952 41.2698C49.0152 40.6864 48.5319 40.0644 48.3766 39.3244C48.1733 38.3578 49.6859 36.7204 50.2166 36.3611V36.3624Z" fill="#FFCFCA"/>
<path d="M43.7208 45.0906C43.8394 44.5053 43.9674 43.8993 44.3241 43.4199C44.6808 42.9406 45.3354 42.6279 45.8888 42.8539C46.1961 42.9793 46.4248 43.2486 46.5841 43.5399C46.8934 44.1059 46.9774 44.7912 46.8148 45.4153C46.6521 46.0392 46.2441 46.5959 45.6981 46.9393C45.3748 47.1426 44.9834 47.2733 44.6114 47.1886C44.1841 47.0906 43.8561 46.7146 43.7321 46.2939C43.6081 45.8732 43.6541 45.4166 43.7201 45.0906H43.7208Z" fill="#FFCFCA"/>
<path d="M43.4559 51.9199C43.3446 51.1719 43.3759 50.4033 43.5473 49.6673C43.8006 48.5773 44.4406 48.3933 44.7846 48.5799C44.9506 48.6699 45.0379 48.8566 45.0959 49.0359C45.2119 49.3966 45.2526 49.7779 45.2699 50.1566C45.3499 51.9679 44.3019 52.3726 43.4566 51.9199H43.4559Z" fill="#FFCFCA"/>
<path d="M69.88 63.2921C67.0573 56.1367 73.278 49.0987 73.5447 48.8027C73.7327 48.5934 74.054 48.5767 74.2627 48.7641C74.4713 48.9514 74.4887 49.2734 74.3013 49.482C74.24 49.55 68.2367 56.3527 70.8267 62.9181C70.93 63.1794 70.8013 63.4747 70.54 63.5781C70.2793 63.6814 69.9833 63.5534 69.88 63.2914V63.2921Z" fill="#ED6C4D"/>
</g>
<defs>
<clipPath id="clip0_364_7041">
<rect width="101.749" height="100" fill="white" transform="translate(0.125488)"/>
</clipPath>
</defs>
</svg>
