<svg width="47" height="36" viewBox="0 0 47 36" fill="none" xmlns="http://www.w3.org/2000/svg">
<path fill-rule="evenodd" clip-rule="evenodd" d="M13.4266 11.8508L5.43778 28.6182C5.43778 28.6182 16.3165 26.972 20.131 20.6995L15.41 14.453L13.4335 11.8378L13.4266 11.8508Z" fill="#CB4F57"/>
<path fill-rule="evenodd" clip-rule="evenodd" d="M6.03 13.3201L0 16.4101L6.11 17.5901" fill="#FFD833"/>
<path fill-rule="evenodd" clip-rule="evenodd" d="M16.5404 7.88004C25 8.04004 26.5 8.34003 33.3704 8.34003L35.2704 8.04003L41.8004 0.530029L46.7704 4.32004L37.6604 9.84003C34.0404 14.13 29.3204 18.03 24.2504 20.45C20.4904 22.24 16.2104 23.25 12.1304 22.03C7.32042 20.59 2.09042 15.84 6.08042 10.76C8.50042 7.68003 12.9804 7.52002 16.5304 7.90002L16.5404 7.88004Z" fill="#F76670"/>
<path fill-rule="evenodd" clip-rule="evenodd" d="M8.93961 13.0201C9.34961 13.4601 9.34961 14.12 8.93961 14.5C8.52961 14.88 7.86961 14.8201 7.46961 14.3801C7.05961 13.9401 7.05961 13.28 7.46961 12.9C7.86961 12.53 8.52961 12.5801 8.93961 13.0201Z" fill="black"/>
<path fill-rule="evenodd" clip-rule="evenodd" d="M17.4996 12.5001C17.9988 13.5001 28.0542 35.3491 28.0542 35.3491C28.0542 35.3491 32.1818 30.4999 33 21.5C33.8182 12.5001 29.6372 9.00003 25 9C17.9997 8.99995 17.0003 11.5 17.4996 12.5001Z" fill="#CB4F57"/>
</svg>
