<svg width="9" height="18" viewBox="0 0 9 18" fill="none" xmlns="http://www.w3.org/2000/svg">
<path d="M5.78241 13.0108L4.36115 13.1971L2.84277 0.141011L3.27785 0L5.78241 13.0108Z" fill="#FB7369"/>
<path d="M4.36155 13.1971C4.36155 13.1971 -0.452085 13.5635 0.209994 16.0576C0.872072 18.5517 4.4145 17.0044 5.46878 16.1168C6.5218 15.2291 5.78281 13.0107 5.78281 13.0107L5.07281 13.1039L4.36281 13.1971H4.36155Z" fill="#FB7369"/>
<path d="M8.15217 3.68391C4.36256 4.18123 3.4697 2.72328 2.99805 1.31442L3.27676 0C3.32216 0.132198 4.74342 4.5048 9.00846 3.52779C8.7121 3.59578 8.42583 3.6474 8.15091 3.68266L8.15217 3.68391Z" fill="#FB7369"/>
</svg>
