<svg width="131" height="131" viewBox="0 0 131 131" fill="none" xmlns="http://www.w3.org/2000/svg">
<rect x="0.5" y="0.301758" width="130" height="130" rx="65" fill="#F8F8E1"/>
<rect x="0.5" y="0.301758" width="130" height="130" rx="65" fill="#F8F7E2"/>
<rect x="0.5" y="0.301758" width="130" height="130" rx="65" fill="#F7F2DC"/>
<rect x="0.5" y="0.301758" width="130" height="130" rx="65" fill="white"/>
<g clip-path="url(#clip0_1856_340)">
<path d="M92.0088 29H30.289C27.8856 29 26 30.8723 26 33.289V79.0743C26 81.491 27.8723 83.3633 30.289 83.3633H92.0088C94.4123 83.3633 96.2979 81.491 96.2979 79.0743V33.289C96.4306 31.0184 94.4256 29 92.0088 29Z" fill="#7D89AA"/>
<path d="M91.4777 34.0857V73.444H31.0991V34.0857H91.4777Z" fill="white"/>
<path d="M82.0124 60.8557H70.2341V66.7515H82.0124V60.8557Z" fill="#FF5987"/>
<path d="M82.0124 50.8169H70.2341V56.7127H82.0124V50.8169Z" fill="#FFCC66"/>
<path d="M82.0124 40.7783H70.2341V46.6741H82.0124V40.7783Z" fill="#59D9A4"/>
<path d="M78.6238 84.4255C79.2878 85.0894 79.5666 85.8994 79.5666 86.8289C79.5666 88.7012 78.0927 90.1752 76.2204 90.1752H46.2369C45.2941 90.1752 44.4974 89.7768 43.8334 89.2457C43.1695 88.7145 42.8906 87.7717 42.8906 86.8289C42.8906 84.9566 44.3646 83.4827 46.2369 83.4827H76.3531C77.1632 83.4827 78.0927 83.7482 78.6238 84.4255Z" fill="#5C6887"/>
<path d="M53.9916 53.7649L47.2991 57.5095V49.8875L53.9916 53.7649Z" fill="white"/>
<path d="M49.5697 42.7834C55.5983 42.7834 60.4185 47.6036 60.4185 53.6322C60.4185 59.6608 55.5983 64.481 49.5697 64.481C43.5411 64.481 38.7209 59.6608 38.7209 53.6322C38.7209 47.6036 43.5411 42.7834 49.5697 42.7834ZM47.299 57.5096L53.8588 53.6322L47.299 49.7548V57.5229V57.5096Z" fill="#FF5987"/>
<path d="M105.943 55.8708C105.943 53.3866 103.899 51.4309 101.503 51.4309H81.6027C79.1185 51.4309 77.1628 53.4747 77.1628 55.8708V97.9704C77.1628 100.455 79.2066 102.41 81.6027 102.41H101.494C103.978 102.41 105.934 100.366 105.934 97.9704C106.022 65.1998 106.022 76.2995 105.934 55.8708H105.943Z" fill="#7D89AA"/>
<path d="M102.657 94.156V96.8164C102.657 98.1466 101.591 99.2125 100.261 99.2125H82.7653C81.4351 99.2125 80.3691 98.1466 80.3691 96.8164V94.156H102.665H102.657Z" fill="#40B8E7"/>
<path d="M102.657 90.7732H80.4485V94.1472H102.657V90.7732Z" fill="#95E6F9"/>
<path d="M102.657 90.7732H80.4485V57.0248C80.4485 55.6946 81.5144 54.6287 82.8446 54.6287H87.1083V54.8048C87.1083 55.6065 87.7338 56.2231 88.5266 56.2231H94.4729C95.2745 56.2231 95.8912 55.5977 95.8912 54.8048V54.6287H100.155C101.485 54.6287 102.551 55.6946 102.551 57.0248C102.639 60.4868 102.639 87.3992 102.639 90.7732H102.657Z" fill="white"/>
<path d="M91.8656 65C93.9677 65 95.7043 66.7366 95.7043 68.8387C95.7043 70.9408 93.9677 72.6774 91.8656 72.6774C89.7634 72.6774 88.0269 70.9408 88.0269 68.8387C87.9355 66.7366 89.672 65 91.8656 65Z" fill="#FFE2B6"/>
<path d="M83.5486 81.3602L84.3712 77.0645C84.8282 74.5968 87.0217 72.7688 89.6722 72.7688C91.226 72.7688 92.5969 72.7688 94.1507 72.7688C96.7098 72.7688 98.812 74.5054 99.3604 77.0645L100.183 81.3602C97.898 81.3602 85.9249 81.3602 83.5486 81.3602Z" fill="#95E6F9"/>
<path d="M90.7688 81.9999H83.5484C83.2742 81.9999 83 81.7257 83 81.4515C83 81.1773 83.2742 80.9031 83.5484 80.9031H90.7688C91.2258 80.9031 91.5914 80.5376 91.5914 80.0806C91.5914 79.8064 91.5 79.6236 91.3172 79.4408C91.1344 79.258 90.9516 79.1666 90.6774 79.1666H86.8387C86.5645 79.1666 86.2903 78.8924 86.2903 78.6182C86.2903 78.344 86.5645 78.0698 86.8387 78.0698H90.586C91.1344 78.0698 91.5914 78.2526 91.957 78.6182C92.3226 78.9838 92.5054 79.5322 92.5054 79.9892C92.7795 80.9945 91.8656 81.9999 90.7688 81.9999Z" fill="#40B8E7"/>
<path d="M90.7687 79.0752C90.5859 79.0752 90.4945 78.9838 90.3117 78.8924L88.301 76.6074C88.1182 76.3333 88.1182 75.9677 88.3924 75.7849C88.6666 75.6021 89.0322 75.6021 89.215 75.8763L91.2257 78.1612C91.4085 78.4354 91.4085 78.801 91.1343 78.9838C91.0429 78.9838 90.9515 79.0752 90.7687 79.0752Z" fill="#40B8E7"/>
</g>
<defs>
<clipPath id="clip0_1856_340">
<rect width="80" height="80" fill="white" transform="translate(25.5 25.3018)"/>
</clipPath>
</defs>
</svg>
