<svg width="39" height="83" viewBox="0 0 39 83" fill="none" xmlns="http://www.w3.org/2000/svg">
<path d="M19.1002 71.3773C19.3354 69.7826 19.4673 68.1364 20.4884 66.7195C21.6069 65.165 23.2245 64.2186 24.7274 63.1402C25.7025 58.4481 25.1002 53.1651 24.584 48.5647L24.0448 49.1785L15.6815 19.6088L6.81348 21.9262C6.81348 21.9262 10.7771 52.775 12.911 60.6278C14.5286 66.5819 16.5075 69.9834 19.106 71.3773H19.1002Z" fill="#FFD5D9"/>
<path d="M23.8384 11.6987C22.5019 11.3259 21.2514 11.8937 20.2303 12.737C19.3011 13.5056 18.5382 15.0142 17.4082 15.4501C16.8346 15.6681 16.1635 15.5534 15.6644 15.2035C14.7753 14.584 14.6721 13.4712 14.3795 12.519C13.9321 11.062 13.3356 9.66813 12.825 8.2341C12.2916 6.73124 11.6549 5.25131 11.196 3.72551C10.9092 2.77905 10.8059 1.43681 9.77342 0.977922C9.46941 0.840255 9.10805 0.828767 8.85566 1.08689C8.09849 1.87848 8.47133 2.89952 8.6721 3.8976C9.1482 6.25514 9.95124 10.8268 9.95124 10.8268C9.95124 10.8268 7.94934 6.01996 7.10613 4.09263C6.75623 3.28384 5.77535 0.174855 4.07172 0.949231C3.28014 1.31061 3.84229 3.10601 3.95701 3.80008C4.14057 4.91289 4.64535 5.93965 5.0182 6.9951C5.45414 8.22836 6.63004 11.4865 6.63004 11.4865C6.63004 11.4865 4.33559 7.17866 3.97422 6.54768C3.32604 5.41193 2.52297 3.42723 1.04306 3.47886C0.526805 3.49607 0.262954 4.45399 0.37194 4.95877C0.47519 5.44634 0.675949 5.91671 0.922602 6.38707C1.13484 7.07541 1.53063 7.74079 1.85759 8.40618C1.88627 8.46928 1.9723 8.65857 2.08129 8.90522C1.4159 10.9186 1.70272 14.171 2.58035 16.018C2.93025 16.758 3.42355 17.4406 3.93406 18.1002C4.15203 18.6222 4.40442 19.1327 4.7027 19.6146C4.9092 20.062 5.12145 20.5094 5.32221 20.9568C6.0507 22.5514 6.85949 24.2493 8.08128 25.5227C8.28778 25.7407 8.55164 25.7235 8.74667 25.5916C8.79256 25.6547 8.82698 25.712 8.87287 25.7751C9.26292 26.3029 10.0029 26.2455 10.2495 25.712C10.2667 25.6948 10.2839 25.6719 10.3012 25.6547C10.4101 26.1652 11.0641 26.4463 11.5229 26.2398C11.718 26.4118 11.9818 26.4921 12.2629 26.3832C12.4751 26.3029 12.6587 26.1824 12.8193 26.0447C13.2094 26.2627 13.7371 26.2111 14.0182 25.7465C14.0354 25.7178 14.0468 25.6891 14.064 25.6604C14.3738 25.6662 14.695 25.5399 14.8843 25.2704C14.9531 25.1786 15.194 25.2073 15.2916 25.1442C16.0143 24.6795 16.238 23.8249 16.4962 23.0562C16.8231 22.0696 17.3623 21.5419 17.9359 20.7102C18.4349 19.9817 18.8824 19.2245 19.3814 18.5017C20.3164 17.1423 21.3604 16.0811 22.6166 15.0257C23.3164 14.4406 23.9359 13.8096 24.2915 12.9492C24.4866 12.4731 24.4177 11.8708 23.8499 11.7159L23.8384 11.6987Z" fill="#FFD5D9"/>
<path d="M4.05428 14.4578C3.93382 14.4578 3.82484 14.3833 3.78468 14.2685C3.14797 12.5018 2.17284 9.81158 2.0868 9.62802C2.00076 9.49609 2.04665 9.32974 2.17858 9.24369C2.31051 9.15765 2.49407 9.20928 2.58011 9.34122C2.60306 9.37563 2.66614 9.47889 4.32388 14.0793C4.3755 14.2284 4.30094 14.3947 4.1518 14.4464C4.11739 14.4578 4.0887 14.4636 4.05428 14.4636V14.4578Z" fill="#EFBABF"/>
<path d="M31 60L28.0141 54.4213C26.8554 55.6833 26.8612 43.5858 24.779 42.3009C22.691 41.016 8.16145 46.0122 7.42723 48.1001C6.69301 50.1881 7.11174 51.1001 8.24749 52.6661C9.37751 54.232 10.5133 62.9165 12.6758 69.45C14.431 74.7501 20.8612 83.3543 27.6069 82.3734C33.5 82 39 76 39 76L31 60Z" fill="white"/>
</svg>
