<svg width="214" height="190" viewBox="0 0 214 190" fill="none" xmlns="http://www.w3.org/2000/svg">
<path d="M78.9484 38.064C77.5444 38.064 76.6084 37.236 76.6084 35.904V24.708L76.5364 24.6L68.5444 11.964C68.2564 11.496 68.1124 11.028 68.1124 10.632C68.1124 9.876 68.5444 9.228 69.3724 8.688C69.8764 8.4 70.3804 8.256 70.8484 8.256C71.6764 8.256 72.2884 8.616 72.7204 9.336L79.0204 20.028L85.3204 9.336C85.7524 8.616 86.3644 8.256 87.1924 8.256C87.6604 8.256 88.1644 8.4 88.6684 8.688C89.4964 9.228 89.9284 9.876 89.9284 10.632C89.9284 11.028 89.7844 11.496 89.4964 11.964L81.5044 24.6L81.4684 24.672V35.904C81.4684 37.236 80.5324 38.064 79.1284 38.064H78.9484ZM98.7197 37.92C94.5437 37.92 92.8157 36.12 92.8157 31.8V11.64C92.8157 9.3 93.6077 8.4 96.0197 8.4H103.472C109.124 8.4 113.012 11.676 113.012 16.428C113.012 18.984 111.644 21.18 109.484 22.224C112.94 23.52 114.776 26.256 114.776 29.748C114.776 34.572 110.78 37.92 104.876 37.92H98.7197ZM97.6757 31.656C97.6757 32.988 98.3237 33.6 99.7277 33.6H105.236C108.08 33.6 109.916 31.908 109.916 29.352C109.916 26.796 107.9 25.068 104.876 25.068H97.6757V31.656ZM97.6757 20.82H103.832C106.532 20.82 108.152 19.236 108.152 16.752C108.152 14.268 106.46 12.72 103.832 12.72H98.5757C97.9637 12.72 97.6757 12.936 97.6757 13.62V20.82ZM120.354 38.064C118.95 38.064 118.014 37.236 118.014 35.904V10.56C118.014 9.228 118.95 8.256 120.354 8.256C121.686 8.256 122.586 8.868 123.09 10.128C126.798 19.092 129.498 26.004 131.154 30.864H131.298C132.414 27.84 135.15 20.928 139.506 10.128C139.974 8.868 140.766 8.256 142.17 8.256C143.574 8.256 144.51 9.228 144.51 10.56V35.904C144.51 37.236 143.574 38.064 142.17 38.064H141.99C140.586 38.064 139.65 37.236 139.65 35.904V25.536L140.046 20.316C138.606 24.24 136.554 29.424 133.89 35.832C133.278 37.416 132.558 38.064 131.262 38.064C129.966 38.064 129.246 37.416 128.634 35.832C125.862 29.244 123.81 23.988 122.478 20.064L122.874 25.536V35.904C122.874 37.236 121.938 38.064 120.534 38.064H120.354ZM2.95762 80.168C2.73362 80.168 2.44562 80.104 2.09362 80.008C1.16562 79.656 0.685624 79.048 0.685624 78.184C0.685624 77.96 0.749624 77.672 0.845624 77.288L8.65362 55.656C9.16562 54.216 9.93362 53.672 10.9896 53.672C12.0456 53.672 12.8136 54.216 13.3256 55.656L21.1336 77.288C21.2296 77.576 21.2936 77.864 21.2936 78.184C21.2936 79.048 20.8136 79.688 19.9176 79.976C19.5976 80.104 19.3096 80.168 19.0216 80.168C18.1576 80.168 17.5176 79.624 17.1656 78.728L15.3096 73.416H6.66962L4.81362 78.728C4.52562 79.624 3.85362 80.168 2.95762 80.168ZM8.01362 69.576H13.9656L11.9496 63.816L11.0216 60.872H10.8936L10.0296 63.816L8.01362 69.576ZM25.7286 80.168C24.4806 80.168 23.6486 79.432 23.6486 78.248V55.592C23.6486 54.408 24.4806 53.672 25.7286 53.672H25.8886C27.1366 53.672 27.9686 54.408 27.9686 55.592V78.248C27.9686 79.432 27.1366 80.168 25.8886 80.168H25.7286ZM48.2864 75.784C42.6544 75.784 39.6144 73.288 39.6144 68.712V56.84C39.6144 55.272 40.7024 54.152 42.2384 54.152H52.9584C54.2064 54.152 54.9424 54.888 54.9424 56.072C54.9424 57.256 54.2064 57.992 52.9584 57.992H44.5424C44.1584 57.992 43.9344 58.248 43.9344 58.6V68.584C43.9344 70.76 45.4704 71.944 48.1904 71.944C50.0144 71.944 51.8384 71.688 53.6624 71.176C53.8864 71.112 54.1104 71.08 54.3024 71.08C55.3584 71.08 56.1264 71.912 56.1264 73.096C56.1264 74.024 55.6144 74.632 54.5584 74.92C52.5424 75.496 50.4624 75.784 48.2864 75.784ZM59.2624 81.128V54.312C59.2624 53.128 60.0944 52.392 61.3424 52.392H61.5024C62.7504 52.392 63.5824 53.128 63.5824 54.312V81.128C63.5824 82.312 62.7504 83.048 61.5024 83.048H61.3424C60.0944 83.048 59.2624 82.312 59.2624 81.128ZM70.4524 76.328C69.9724 76.328 69.5244 76.168 69.1084 75.848C68.6284 75.464 68.3084 74.824 68.3084 74.184C68.3084 73.64 68.5004 73.192 68.8844 72.84C73.0124 68.936 75.0924 64.712 75.0924 60.136V57.992H70.9004C69.6524 57.992 68.9164 57.256 68.9164 56.072C68.9164 54.888 69.6524 54.152 70.9004 54.152H83.3804C84.6284 54.152 85.3644 54.888 85.3644 56.072C85.3644 57.256 84.6284 57.992 83.3804 57.992H79.4124V60.136C79.4124 61.256 79.3164 62.44 79.0924 63.624C82.0364 66.696 84.7244 70.088 85.9724 72.52C86.1644 72.872 86.2604 73.224 86.2604 73.608C86.2604 74.408 85.8444 75.112 85.2044 75.464C84.7884 75.688 84.4044 75.784 84.0524 75.784C83.2844 75.784 82.6764 75.432 82.2604 74.728C81.0764 72.648 79.5084 70.504 77.5564 68.328C76.2764 71.016 74.4844 73.448 72.2124 75.592C71.7324 76.072 71.1244 76.328 70.4524 76.328ZM88.6924 81.128V54.312C88.6924 53.128 89.5244 52.392 90.7724 52.392H90.9324C92.1804 52.392 93.0124 53.128 93.0124 54.312V81.128C93.0124 82.312 92.1804 83.048 90.9324 83.048H90.7724C89.5244 83.048 88.6924 82.312 88.6924 81.128ZM112.97 83.336C110.698 83.336 108.842 83.208 107.466 82.92C104.522 82.376 103.05 80.904 103.05 78.536V77.064C103.05 75.528 104.138 74.44 105.674 74.44H117.77C117.93 74.44 118.026 74.344 118.026 74.152V73.192C118.026 73.032 117.962 72.968 117.834 72.968H104.906C103.658 72.968 102.922 72.232 102.922 71.048C102.922 69.864 103.658 69.128 104.906 69.128H119.562C121.098 69.128 122.186 70.248 122.186 71.816V75.464C122.186 76.904 121.194 77.896 119.786 77.896H107.562C107.338 77.896 107.21 77.992 107.21 78.216V78.536C107.21 78.92 107.626 79.176 108.49 79.304C109.354 79.432 110.794 79.496 112.778 79.496C115.498 79.496 118.442 79.272 120.33 78.856C120.554 78.824 120.746 78.792 120.938 78.792C121.834 78.792 122.506 79.368 122.666 80.296C122.698 80.36 122.698 80.488 122.698 80.712C122.698 81.608 122.058 82.312 121.034 82.536C118.986 83.016 115.306 83.336 112.97 83.336ZM98.4104 61.8V55.848C98.4104 54.28 99.4984 53.16 101.034 53.16H111.306C112.554 53.16 113.29 53.896 113.29 55.08C113.29 56.264 112.554 57 111.306 57H102.986C102.73 57 102.57 57.16 102.57 57.384V58.44H110.986C112.17 58.44 112.97 59.176 112.97 60.296C112.97 61.448 112.234 62.088 110.986 62.088H102.57C102.57 62.728 102.89 63.176 103.53 63.4C104.202 63.624 105.258 63.752 106.762 63.752C108.65 63.752 110.538 63.528 112.426 63.112L113.002 63.048C113.93 63.048 114.57 63.624 114.794 64.616C114.826 64.68 114.826 64.776 114.826 64.936C114.826 65.864 114.218 66.6 113.194 66.856C111.114 67.464 109.418 67.592 106.858 67.592C101.098 67.592 98.4104 65.864 98.4104 61.8ZM113.706 60.2C113.706 59.016 114.442 58.28 115.69 58.28H118.09V54.312C118.09 53.128 118.922 52.392 120.17 52.392H120.33C121.578 52.392 122.41 53.128 122.41 54.312V66.312C122.41 67.496 121.578 68.232 120.33 68.232H120.17C118.922 68.232 118.09 67.496 118.09 66.312V62.12H115.69C114.442 62.12 113.706 61.384 113.706 60.2ZM128.288 79.816C127.04 79.816 126.304 79.08 126.304 77.896C126.304 76.712 127.04 75.976 128.288 75.976H132.416V65.736C132.416 64.456 133.28 63.688 134.56 63.688C135.936 63.688 136.736 64.456 136.736 65.736V75.976H139.264V65.736C139.264 64.456 140.128 63.688 141.408 63.688C142.784 63.688 143.584 64.456 143.584 65.736V75.976H152.16C153.408 75.976 154.144 76.712 154.144 77.896C154.144 79.08 153.408 79.816 152.16 79.816H128.288ZM130.432 55.624C130.432 54.44 131.168 53.704 132.416 53.704H147.36C148.896 53.704 149.984 54.792 149.984 56.424C149.984 62.92 149.696 66.216 148.768 69.288C148.48 70.152 147.808 70.632 146.944 70.632C146.56 70.632 146.208 70.568 145.92 70.408C145.152 70.088 144.768 69.448 144.768 68.52C144.768 68.264 144.8 68.008 144.864 67.752C145.472 65.16 145.632 62.44 145.632 57.864C145.632 57.64 145.536 57.544 145.312 57.544H132.416C131.168 57.544 130.432 56.808 130.432 55.624ZM157.59 78.216C156.342 78.216 155.606 77.544 155.574 76.36C155.574 75.176 156.374 74.376 157.558 74.376H160.694V65.256C160.694 63.976 161.526 63.208 162.806 63.208C164.182 63.208 165.014 63.976 165.014 65.256V74.28C167.83 74.088 170.07 73.8 171.734 73.448C171.99 73.384 172.214 73.352 172.438 73.352C173.59 73.352 174.23 74.12 174.23 75.272C174.23 76.2 173.718 76.936 172.726 77.16C170.006 77.768 165.366 78.216 162.294 78.216H157.59ZM156.918 55.656C156.918 54.472 157.654 53.736 158.902 53.736H170.006C171.542 53.736 172.63 54.824 172.63 56.456C172.63 62.12 172.438 64.744 171.638 67.688C171.382 68.552 170.646 69.064 169.75 69.064C169.558 69.064 169.27 69 168.918 68.904C168.118 68.616 167.702 68.008 167.702 67.08L167.766 66.408C168.31 63.624 168.438 61.928 168.438 57.928C168.438 57.672 168.31 57.544 168.054 57.544H158.902C157.654 57.544 156.918 56.84 156.918 55.656ZM175.67 81.128V54.312C175.67 53.128 176.502 52.392 177.75 52.392H177.91C179.158 52.392 179.99 53.128 179.99 54.312V62.792H182.39C183.638 62.792 184.374 63.528 184.374 64.712C184.374 65.896 183.638 66.632 182.39 66.632H179.99V81.128C179.99 82.312 179.158 83.048 177.91 83.048H177.75C176.502 83.048 175.67 82.312 175.67 81.128ZM188.204 76.36C187.692 76.36 187.244 76.2 186.828 75.848C186.316 75.464 185.996 74.76 185.996 74.12C185.996 73.64 186.188 73.192 186.572 72.808C190.764 68.84 192.908 64.424 192.908 59.016V55.688C192.908 54.44 193.804 53.64 195.084 53.64C196.364 53.64 197.228 54.408 197.228 55.688V59.016C197.228 60.264 197.1 61.608 196.876 63.016C199.692 66.056 202.444 69.736 203.756 72.552C203.916 72.84 203.98 73.192 203.98 73.576C203.98 74.312 203.66 74.92 203.02 75.336C202.636 75.592 202.22 75.72 201.772 75.72C201.036 75.72 200.46 75.368 200.044 74.664C198.508 71.912 196.972 69.64 195.404 67.848C194.092 70.856 192.236 73.448 189.836 75.656C189.356 76.136 188.812 76.36 188.204 76.36ZM200.62 63.112C200.62 61.928 201.356 61.192 202.604 61.192H206.38V54.312C206.38 53.128 207.212 52.392 208.46 52.392H208.62C209.868 52.392 210.7 53.128 210.7 54.312V81.128C210.7 82.312 209.868 83.048 208.62 83.048H208.46C207.212 83.048 206.38 82.312 206.38 81.128V65.032H202.604C201.356 65.032 200.62 64.296 200.62 63.112Z" fill="#000543"/>
<path d="M71.9233 173.784C71.9233 173.784 89.9155 178.253 128.171 174.929V153.202L70.722 154.389C70.722 154.389 66.8184 171.094 71.9246 173.784H71.9233Z" fill="#53508E"/>
<path d="M71.4496 172.169C90.8607 175.373 106.494 175.047 126.8 173.148C125.754 169.23 126.054 163.735 127.211 158.912C113.378 160.121 98.4565 157.336 84.6626 158.84C80.3051 159.316 75.7325 160.314 72.6981 163.12C69.6625 165.925 69.2161 169.469 71.4496 172.168V172.169Z" fill="#EEEEEE"/>
<path d="M76.5614 162.862C91.5764 161.132 106.774 160.637 121.893 161.385C123.586 161.468 125.447 161.524 126.788 160.606C128.349 159.537 128.608 157.576 128.728 155.833C129.654 142.541 129.936 128.482 130.404 111.305C130.625 103.184 127.486 101.915 122.9 101.577C107.218 100.42 91.3862 100.874 75.14 104.124C67.6735 107.867 67.099 116.347 67.0231 122.965C66.8441 138.68 67.7046 154.404 69.5998 170.03C69.7826 171.542 70.2689 173.375 71.9253 173.785C70.3124 169.822 71.5535 163.441 76.5627 162.863L76.5614 162.862Z" fill="#6762D3"/>
<path d="M67.0231 122.965C67.099 116.347 67.6735 107.867 75.14 104.124L76.5627 162.863C71.5535 163.441 70.3124 169.823 71.9253 173.785C70.2689 173.376 69.7826 171.542 69.5998 170.031C67.7046 154.405 66.8441 138.681 67.0231 122.965Z" fill="#53508E"/>
<path d="M95.1322 116.395L90.28 131.61H85.7891L92.7448 112.82H95.5839L95.1322 116.395ZM99.1585 131.61L94.2934 116.395L93.7901 112.82H96.6679L103.649 131.61H99.1585ZM98.952 124.615V127.867H89.1572V124.615H98.952Z" fill="white"/>
<path d="M111.157 112.82V131.61H106.963V112.82H111.157Z" fill="white"/>
<g filter="url(#filter0_d_1856_149)">
<path d="M141.891 165.012C141.891 175.784 135.05 187.722 126.999 187.722C118.97 187.722 112.107 175.806 112.107 165.012C112.107 154.24 118.948 148.656 126.999 148.656C135.028 148.656 141.891 154.218 141.891 165.012Z" fill="url(#paint0_linear_1856_149)"/>
<path d="M102.724 154.404C101.893 155.609 102.552 157.505 104.196 158.64L108.945 161.92C110.589 163.055 112.597 163 113.43 161.796C114.26 160.591 113.601 158.694 111.957 157.557L107.208 154.278C105.564 153.143 103.556 153.197 102.724 154.402V154.404Z" fill="white"/>
<path d="M100.838 155.335C100.838 157.287 102.421 158.871 104.374 158.871C106.327 158.871 107.91 157.287 107.91 155.335C107.91 153.382 106.327 151.799 104.374 151.799C102.421 151.799 100.838 153.382 100.838 155.335Z" fill="#8080A2"/>
<path d="M98.8352 148.284C97.7392 149.01 97.4848 150.552 98.2633 151.729L100.516 155.126C101.295 156.302 102.817 156.668 103.911 155.941C105.007 155.215 105.261 153.673 104.483 152.496L102.232 149.1C101.451 147.923 99.9313 147.558 98.8352 148.284Z" fill="white"/>
<path d="M96.1817 148.484C96.1817 150.252 97.6148 151.685 99.3828 151.685C101.151 151.685 102.584 150.252 102.584 148.484C102.584 146.716 101.151 145.283 99.3828 145.283C97.6148 145.283 96.1817 146.716 96.1817 148.484Z" fill="#8080A2"/>
<path d="M100.125 140.625C99.6636 140.571 99.233 140.973 99.1656 141.519L99.1004 142.036L97.6085 139.244C97.415 138.881 96.967 138.744 96.606 138.937C96.245 139.131 96.1102 139.581 96.3016 139.942L97.0475 141.34C96.9714 141.34 96.8974 141.34 96.8213 141.345L95.5513 138.966C95.3577 138.603 94.9097 138.466 94.5487 138.659C94.1877 138.853 94.0507 139.301 94.2443 139.664L95.3838 141.799C95.3664 141.81 95.3447 141.821 95.3273 141.834L94.1464 139.625C93.9529 139.261 93.5071 139.124 93.1439 139.318C92.7829 139.509 92.6459 139.96 92.8394 140.323L94.2769 143.017C94.2639 143.043 94.253 143.067 94.2399 143.093L93.5614 141.821C93.3679 141.456 92.9743 141.293 92.6763 141.449C92.3827 141.608 92.2979 142.028 92.4915 142.389L94.1812 145.555C94.1964 145.585 94.2182 145.614 94.2356 145.642C94.2595 145.694 94.2813 145.746 94.3095 145.796L95.0924 147.266C95.5448 148.115 96.3429 148.654 97.2171 148.817C97.4759 148.858 99.2526 149.08 100.194 147.662V147.658C100.877 146.745 101.018 145.483 100.444 144.411L100.407 144.342C100.479 144.215 100.531 144.074 100.551 143.917L100.827 141.728C100.897 141.177 100.579 140.684 100.122 140.623L100.125 140.625Z" fill="white"/>
<path d="M109.171 161.058C109.171 163.326 111.011 165.166 113.279 165.166C115.548 165.166 117.387 163.326 117.387 161.058C117.387 158.79 115.548 156.95 113.279 156.95C111.011 156.95 109.171 158.79 109.171 161.058Z" fill="#8080A2"/>
<path d="M138.702 152.569C138.702 156.592 133.444 159.868 126.977 159.868C120.51 159.868 115.252 156.614 115.252 152.569C115.252 148.546 120.51 145.271 126.977 145.271C133.466 145.271 138.702 148.546 138.702 152.569Z" fill="#DCDCEA"/>
<path d="M145.851 144.281C145.851 147.337 143.365 149.821 140.307 149.821H113.141C110.083 149.821 107.597 147.337 107.597 144.281C107.597 141.225 110.083 138.741 113.141 138.741H140.307C143.365 138.741 145.851 141.225 145.851 144.281Z" fill="#A0A0C1"/>
<path d="M145.851 145.27C145.851 148.326 143.365 150.81 140.307 150.81H113.141C110.083 150.81 107.597 148.326 107.597 145.27C107.597 142.215 110.083 139.73 113.141 139.73H140.307C143.365 139.73 145.851 142.215 145.851 145.27Z" fill="#8080A2"/>
<path d="M127.637 122.275H125.789V131.64H127.637V122.275Z" fill="#8080A2"/>
<path d="M129.507 123.792C129.507 125.331 128.253 126.584 126.713 126.584C125.174 126.584 123.92 125.331 123.92 123.792C123.92 122.253 125.174 121 126.713 121C128.253 121 129.507 122.253 129.507 123.792Z" fill="white"/>
<path d="M141.495 144.963C141.495 150.195 137.25 154.438 132.014 154.438H121.412C116.176 154.438 111.931 150.195 111.931 144.963V140.06C111.931 134.828 116.176 130.585 121.412 130.585H131.992C137.228 130.585 141.473 134.828 141.473 140.06V144.963H141.495Z" fill="#F4F4F4"/>
<path d="M141.495 146.853C141.495 152.085 137.25 156.328 132.014 156.328H121.412C116.176 156.328 111.931 152.085 111.931 146.853V141.973C111.931 136.74 116.176 132.498 121.412 132.498H131.992C137.228 132.498 141.473 136.74 141.473 141.973V146.853H141.495Z" fill="white"/>
<path d="M138.482 146.721C138.482 150.964 134.918 154.394 130.519 154.394H122.886C118.486 154.394 114.923 150.964 114.923 146.721C114.923 142.478 118.486 139.049 122.886 139.049H130.519C134.918 139.049 138.482 142.5 138.482 146.721Z" fill="#343E49"/>
<path d="M138.416 145.842C138.416 150.085 134.852 153.515 130.453 153.515H122.82C118.42 153.515 114.857 150.085 114.857 145.842C114.857 141.599 118.42 138.17 122.82 138.17H130.453C134.874 138.17 138.416 141.621 138.416 145.842Z" fill="#5D5D77"/>
<path d="M139.339 145.49C139.295 140.83 135.314 137.048 130.452 137.048H122.819C117.914 137.048 113.91 140.874 113.91 145.556C113.91 145.864 113.932 146.172 113.976 146.501C114.02 151.162 118.002 154.943 122.885 154.943H130.518C135.424 154.943 139.427 151.118 139.427 146.436C139.405 146.128 139.383 145.798 139.339 145.49ZM130.496 153.998H122.863C118.486 153.998 114.922 150.613 114.9 146.436C114.856 146.15 114.834 145.842 114.834 145.556C114.834 141.379 118.398 137.994 122.797 137.994H130.43C134.808 137.994 138.371 141.379 138.393 145.556C138.437 145.842 138.459 146.15 138.459 146.436C138.459 150.613 134.896 153.998 130.496 153.998Z" fill="#7171C9"/>
<path d="M139.34 145.798C139.296 141.137 135.314 137.356 130.431 137.356H122.798C117.892 137.356 113.889 141.181 113.889 145.864C113.889 146.172 113.911 146.48 113.955 146.809C113.999 151.47 117.98 155.251 122.864 155.251H130.497C135.402 155.251 139.406 151.426 139.406 146.743C139.406 146.436 139.384 146.106 139.34 145.798ZM130.497 154.306H122.864C118.486 154.306 114.923 150.92 114.901 146.743C114.857 146.458 114.835 146.15 114.835 145.864C114.835 141.687 118.398 138.302 122.798 138.302H130.431C134.808 138.302 138.372 141.687 138.394 145.864C138.438 146.15 138.46 146.458 138.46 146.743C138.46 150.92 134.896 154.306 130.497 154.306Z" fill="#9D9AFF"/>
<path d="M113.756 174.531C113.756 174.531 117.122 173.366 117.958 168.508C117.958 168.508 125.547 170.354 136.875 168.508C136.875 168.508 137.293 173.344 140.241 174.531C140.241 174.531 137.315 173.806 136.656 168.903C136.656 168.903 127.461 171.124 118.288 168.947C118.266 168.969 117.606 173.234 113.756 174.531Z" fill="#8080A2"/>
<path d="M119.146 167.958C119.146 168.09 119.036 168.2 118.904 168.2C118.772 168.2 118.662 168.09 118.662 167.958C118.662 167.826 118.772 167.716 118.904 167.716C119.036 167.716 119.146 167.826 119.146 167.958Z" fill="#8080A2"/>
<path d="M119.146 170.047C119.146 170.179 119.036 170.289 118.904 170.289C118.772 170.289 118.662 170.179 118.662 170.047C118.662 169.915 118.772 169.805 118.904 169.805C119.036 169.827 119.146 169.915 119.146 170.047Z" fill="#8080A2"/>
<path d="M136.26 167.958C136.26 168.09 136.15 168.2 136.018 168.2C135.886 168.2 135.776 168.09 135.776 167.958C135.776 167.826 135.886 167.716 136.018 167.716C136.15 167.716 136.26 167.826 136.26 167.958Z" fill="#8080A2"/>
<path d="M136.26 170.047C136.26 170.179 136.15 170.289 136.018 170.289C135.886 170.289 135.776 170.179 135.776 170.047C135.776 169.915 135.886 169.805 136.018 169.805C136.15 169.827 136.26 169.915 136.26 170.047Z" fill="#8080A2"/>
<path d="M130.366 163.911C130.366 165.521 129.064 166.822 127.455 166.822C125.846 166.822 124.548 165.516 124.548 163.911C124.548 162.302 125.85 161 127.459 161C129.069 161 130.366 162.302 130.366 163.911Z" fill="#ACACD9"/>
<path d="M127.416 163.6C127.258 163.6 127.139 163.472 127.139 163.309V162.622C127.139 162.464 127.258 162.332 127.416 162.332C127.574 162.332 127.694 162.46 127.694 162.622V163.314C127.694 163.472 127.574 163.6 127.416 163.6Z" fill="#D3DCF3"/>
<path d="M127.459 165.444C126.605 165.444 125.91 164.748 125.91 163.894C125.91 163.544 126.033 163.203 126.251 162.925C126.349 162.802 126.533 162.78 126.657 162.883C126.78 162.981 126.802 163.164 126.699 163.288C126.559 163.467 126.482 163.677 126.482 163.899C126.482 164.436 126.917 164.872 127.455 164.872C127.993 164.868 128.432 164.428 128.432 163.894C128.432 163.672 128.36 163.459 128.219 163.284C128.121 163.16 128.138 162.977 128.262 162.878C128.385 162.78 128.569 162.797 128.667 162.921C128.889 163.194 129.009 163.54 129.009 163.89C129.009 164.748 128.313 165.444 127.459 165.444Z" fill="#D3DCF3"/>
<path d="M141.64 164.959C139.377 165.255 137.265 163.664 136.976 161.381C136.679 159.119 138.27 157.009 140.554 156.72C142.817 156.424 144.928 158.016 145.218 160.299C145.507 162.581 143.924 164.671 141.64 164.959Z" fill="#8080A2"/>
<path d="M144.84 170.399C143.468 170.943 141.879 170.184 141.299 168.708L139.618 164.427C139.038 162.951 139.676 161.305 141.048 160.761C142.419 160.216 144.008 160.976 144.588 162.452L146.27 166.733C146.867 168.221 146.23 169.867 144.84 170.399Z" fill="white"/>
<path d="M144.498 172.407C142.511 172.411 140.915 170.809 140.93 168.832C140.925 166.846 142.527 165.251 144.504 165.267C146.491 165.263 148.086 166.865 148.072 168.842C148.087 170.809 146.485 172.403 144.498 172.407Z" fill="#8080A2"/>
<path d="M152.109 164.752C152.855 165.861 152.512 167.394 151.33 168.196L147.925 170.54C146.744 171.343 145.187 171.108 144.431 170.028C143.665 168.927 144.027 167.386 145.209 166.583L148.614 164.239C149.815 163.427 151.372 163.662 152.109 164.752Z" fill="white"/>
<path d="M154.875 165.257C154.32 166.959 152.494 167.885 150.801 167.35C149.099 166.796 148.173 164.971 148.709 163.278C149.265 161.577 151.091 160.651 152.783 161.185C154.485 161.74 155.431 163.556 154.875 165.257Z" fill="#8080A2"/>
<path d="M152.887 156.657C153.337 156.742 153.642 157.255 153.533 157.812L153.435 158.34L155.733 156.112C156.038 155.828 156.501 155.835 156.805 156.132C157.089 156.438 157.081 156.9 156.784 157.204L155.621 158.312C155.699 158.325 155.766 158.367 155.845 158.379L157.806 156.474C158.112 156.19 158.574 156.197 158.878 156.494C159.162 156.799 159.154 157.262 158.858 157.565L157.091 159.262C157.1 159.282 157.13 159.293 157.139 159.313L158.967 157.54C159.273 157.256 159.735 157.263 160.039 157.56C160.323 157.866 160.315 158.328 160.019 158.632L157.803 160.774C157.812 160.794 157.81 160.843 157.819 160.863L158.831 159.847C159.137 159.563 159.552 159.52 159.809 159.765C160.045 160.02 159.991 160.431 159.694 160.735L157.07 163.256C157.059 163.285 157.019 163.303 156.979 163.321C156.948 163.359 156.897 163.407 156.866 163.445L155.661 164.621C154.956 165.303 154.031 165.554 153.139 165.452C152.875 165.403 151.106 165.072 150.646 163.422C150.273 162.336 150.527 161.086 151.415 160.223L151.466 160.176C151.432 160.047 151.428 159.879 151.454 159.723L151.86 157.534C151.981 156.948 152.438 156.571 152.887 156.657Z" fill="white"/>
<path d="M155.819 161.569C155.868 161.601 155.935 161.594 155.98 161.55C156.034 161.497 156.038 161.412 155.991 161.361C155.46 160.783 154.844 160.298 154.16 159.919C154.098 159.885 154.018 159.91 153.98 159.975C153.944 160.041 153.965 160.122 154.025 160.157C154.686 160.523 155.282 160.992 155.794 161.55C155.802 161.558 155.81 161.565 155.818 161.57L155.819 161.569Z" fill="#E3E3E3"/>
<path d="M151.868 162.4C151.931 162.418 151.999 162.401 152.038 162.352C152.424 161.873 152.929 160.999 152.977 160.391C152.983 160.312 152.918 160.239 152.83 160.228C152.743 160.218 152.667 160.274 152.66 160.354C152.616 160.909 152.131 161.733 151.779 162.172C151.729 162.235 151.746 162.325 151.817 162.376C151.832 162.387 151.85 162.395 151.868 162.4Z" fill="#E3E3E3"/>
<path d="M123.677 148.898C123.677 148.898 126.779 151.8 130.321 148.898" stroke="#B3B3FF" stroke-miterlimit="10" stroke-linecap="round" stroke-linejoin="round"/>
<path d="M122.468 146.238C122.468 146.941 121.962 147.513 121.324 147.513C120.686 147.513 120.18 146.941 120.18 146.238C120.18 145.534 120.686 144.963 121.324 144.963C121.94 144.963 122.468 145.534 122.468 146.238Z" fill="#B3B3FF"/>
<path d="M133.818 146.238C133.818 146.941 133.313 147.513 132.675 147.513C132.037 147.513 131.531 146.941 131.531 146.238C131.531 145.534 132.037 144.963 132.675 144.963C133.313 144.963 133.818 145.534 133.818 146.238Z" fill="#B3B3FF"/>
</g>
<defs>
<filter id="filter0_d_1856_149" x="90.3875" y="119" width="71.8591" height="70.7217" filterUnits="userSpaceOnUse" color-interpolation-filters="sRGB">
<feFlood flood-opacity="0" result="BackgroundImageFix"/>
<feColorMatrix in="SourceAlpha" type="matrix" values="0 0 0 0 0 0 0 0 0 0 0 0 0 0 0 0 0 0 127 0" result="hardAlpha"/>
<feOffset/>
<feGaussianBlur stdDeviation="1"/>
<feComposite in2="hardAlpha" operator="out"/>
<feColorMatrix type="matrix" values="0 0 0 0 0 0 0 0 0 0 0 0 0 0 0 0 0 0 0.2 0"/>
<feBlend mode="normal" in2="BackgroundImageFix" result="effect1_dropShadow_1856_149"/>
<feBlend mode="normal" in="SourceGraphic" in2="effect1_dropShadow_1856_149" result="shape"/>
</filter>
<linearGradient id="paint0_linear_1856_149" x1="126.999" y1="148.656" x2="126.999" y2="187.722" gradientUnits="userSpaceOnUse">
<stop stop-color="white"/>
<stop offset="1" stop-color="#E9E9E9"/>
</linearGradient>
</defs>
</svg>
