<svg width="110" height="124" viewBox="0 0 110 124" fill="none" xmlns="http://www.w3.org/2000/svg">
<path d="M85.7147 99.4197C85.7147 99.4197 88.5731 41.6361 86.2876 38.9195C84.0022 36.2028 54.445 34.2253 47.3545 34.8352C40.264 35.445 28.233 37.2007 27.4506 38.864C26.6621 40.5273 26.9209 55.6385 27.0934 76.4973C27.2227 91.9226 28.424 98.8776 28.424 98.8776C28.424 98.8776 63.4329 101.644 67.6589 101.878C71.8849 102.112 85.7147 99.4197 85.7147 99.4197Z" fill="#A5C4EF"/>
<path d="M31.1034 43.8662C31.1034 43.8662 42.6663 37.6258 56.2128 37.6443C69.7654 37.6627 81.6425 40.7983 87.2668 43.7122C89.885 45.0736 87.1005 61.2136 85.2955 67.5648C83.4906 73.9161 81.7102 77.6492 80.5028 86.1566C79.6958 91.8241 79.9546 101.467 79.9546 101.467L28.4668 101.806C28.4668 101.806 30.3457 80.7479 32.2184 67.0658C34.0911 53.3777 31.1034 43.8662 31.1034 43.8662Z" fill="#8F7870"/>
<path d="M52.5662 42.8682C52.5662 42.8682 52.1781 57.9363 51.79 67.2568C51.4019 76.5774 50.4409 93.4135 50.4409 93.4135H63.4022C63.4022 93.4135 66.6733 73.183 67.2339 66.2281C67.7945 59.2731 67.7329 44.0448 67.7329 44.0448L52.5724 42.8682H52.5662Z" fill="white"/>
<path d="M49.5599 84.8445C49.4121 84.8445 49.2827 84.7398 49.2581 84.5858C49.2211 84.3702 45.6543 63.0802 45.6543 56.8213C45.6543 50.5625 50.2745 40.977 50.4717 40.5766C50.5456 40.4226 50.7304 40.361 50.8844 40.4349C51.0384 40.5089 51.1 40.6937 51.0261 40.8477C50.9768 40.9462 46.2765 50.661 46.2765 56.8213C46.2765 62.9816 49.8372 84.2716 49.8741 84.4872C49.9049 84.6535 49.7879 84.8137 49.6215 84.8445C49.603 84.8445 49.5846 84.8445 49.5723 84.8445H49.5599Z" fill="#130806" fill-opacity="0.1"/>
<path d="M68.0346 77.1503C68.0038 77.1503 67.973 77.1503 67.9361 77.1318C67.7759 77.0764 67.6897 76.9039 67.7389 76.7437C67.7882 76.5897 72.852 61.1705 72.6672 55.7864C72.4824 50.4146 69.0018 43.2871 68.971 43.2132C68.8971 43.0592 68.9587 42.8744 69.1127 42.8005C69.2667 42.7265 69.4515 42.7881 69.5254 42.9422C69.6732 43.2378 73.0922 50.2606 73.2832 55.7617C73.4742 61.2567 68.5398 76.294 68.3242 76.9347C68.281 77.064 68.164 77.1441 68.0346 77.1441V77.1503Z" fill="#130806" fill-opacity="0.1"/>
<path d="M82.4435 67.6018C82.4435 67.6018 82.3881 67.6018 82.3634 67.6018L73.4865 66.5792C73.2955 66.5545 73.1292 66.4621 73.0121 66.3143C72.8951 66.1664 72.8458 65.9755 72.8704 65.7907L73.0306 64.6079C73.0799 64.2259 73.431 63.961 73.813 64.0042L82.7084 65.1377C82.8994 65.1623 83.0657 65.2609 83.1828 65.4149C83.2998 65.5689 83.3429 65.7599 83.3121 65.9508L83.1335 67.0227C83.078 67.3677 82.7824 67.6079 82.4435 67.6079V67.6018ZM73.7267 64.6079C73.6836 64.6079 73.6466 64.6387 73.6405 64.6818L73.4803 65.8646C73.4803 65.8954 73.4865 65.92 73.4988 65.9323C73.5111 65.9447 73.5296 65.9631 73.5542 65.9631L82.4312 66.9857C82.4743 66.9919 82.5175 66.9611 82.5236 66.9118L82.7023 65.8399C82.7023 65.8399 82.7023 65.7907 82.6838 65.7722C82.6715 65.7598 82.653 65.7414 82.6222 65.7352L73.7267 64.6017C73.7267 64.6017 73.7206 64.6017 73.7144 64.6017L73.7267 64.6079Z" fill="#130806"/>
<path d="M78.1249 113.009C75.3528 114.328 72.5807 115.646 69.8085 116.977C67.3259 118.166 65.3978 118.892 62.9337 120.125C61.295 120.944 58.412 122.219 56.6686 122.786C55.5721 123.137 53.4283 124.283 52.9047 122.533C52.8308 122.293 52.8431 122.059 52.9047 121.843C52.3872 122.034 51.8759 122.225 51.3584 122.416C50.6192 122.693 49.7383 123.199 48.9251 123.112C48.574 123.075 48.2229 122.866 48.1243 122.527C47.9087 121.794 48.6911 120.882 49.2208 120.488C48.5062 121.012 47.3727 121.357 46.4857 121.283C45.9312 121.233 45.2105 120.235 45.6725 119.576C46.1961 118.825 47.6685 117.962 48.882 117.272C48.2968 117.562 47.1387 118.012 46.6828 117.525C46.4364 117.266 46.3008 117.069 46.3563 116.718C46.5411 115.578 48.2352 114.851 49.264 114.377C52.1039 113.059 55.0485 111.999 58.104 111.321C56.9027 110.859 55.6152 110.656 54.3462 110.73C53.7117 110.767 52.8677 110.73 52.6953 110.102C52.6337 109.886 52.6891 109.652 52.7753 109.443C53.2558 108.371 54.5926 108.118 55.7446 107.995C58.2457 107.73 60.8884 107.484 63.2108 108.543C64.061 108.931 64.5723 109.646 64.5723 109.646L75.4329 104.126L78.1249 113.003V113.009Z" fill="#FFD5D9"/>
<path d="M49.5596 117.235C49.4426 117.235 49.3317 117.168 49.2824 117.057C49.2085 116.903 49.2824 116.718 49.4303 116.644L53.8903 114.549C54.0444 114.476 54.2291 114.549 54.2969 114.697C54.3708 114.851 54.2969 115.036 54.1491 115.104L49.689 117.198C49.6459 117.217 49.6028 117.229 49.5596 117.229V117.235Z" fill="#EFBABF"/>
<path d="M49.6397 120.506C49.5227 120.506 49.4118 120.439 49.3625 120.328C49.2886 120.174 49.3625 119.989 49.5103 119.915L55.184 117.266C55.338 117.192 55.5228 117.266 55.5905 117.414C55.6583 117.562 55.5906 117.753 55.4427 117.827L49.7691 120.476C49.726 120.494 49.6828 120.506 49.6397 120.506Z" fill="#EFBABF"/>
<path d="M53.6624 121.831C53.5515 121.831 53.4406 121.769 53.3852 121.658C53.3113 121.504 53.3729 121.32 53.5269 121.246L56.952 119.545C57.106 119.472 57.2908 119.533 57.3647 119.687C57.4386 119.841 57.377 120.026 57.223 120.1L53.7979 121.8C53.7548 121.825 53.7055 121.831 53.6624 121.831Z" fill="#EFBABF"/>
<path d="M87.267 43.7183C87.267 43.7183 90.1377 44.4452 93.4704 49.9772C96.8093 55.5091 107.775 84.6227 109.019 88.6885C110.442 93.3457 111.298 97.5408 102.193 104.841C97.5177 108.592 73.8498 118.917 72.4946 117.771C71.1393 116.632 67.6156 106.467 67.628 105.543C67.6403 104.619 89.1335 90.5427 89.0103 88.0848C88.8871 85.6268 80.6385 72.2959 80.6385 72.2959C80.6385 72.2959 78.199 57.7946 80.3305 55.4537C82.462 53.1128 87.2731 43.7122 87.2731 43.7122L87.267 43.7183Z" fill="#8F7870"/>
<path d="M31.1034 43.8662C31.1034 43.8662 24.0006 45.8437 12.7519 62.9878C7.16679 71.5 2.99986 83 2.99986 83C2.99986 83 -0.5 93 1.00018 99C3.16982 107.677 50.5002 101.5 50.5002 101.5C50.5002 101.5 17.5003 97.5 18.5002 95C23.4826 82.5431 37.4916 65.8585 37.4916 65.8585L31.0973 43.8662H31.1034Z" fill="#8F7870"/>
<path d="M50.9535 6.94914L68.1668 5.02106L70.815 14.9867C71.5584 17.8207 72.6502 20.5154 73.8581 23.1868C74.9499 25.5795 75.3448 29.0175 71.8836 32.5949C70.6292 33.8958 68.4223 35.5451 68.4223 35.5451C68.4223 35.5451 68.1436 41.1667 68.0042 43.0483C67.8648 44.9067 67.0053 47.16 63.1259 47.6943C53.2997 49.0184 51.0232 39.8194 50.7212 38.9831L42.0332 15.3816L50.9535 6.94914Z" fill="#FFD5D9"/>
<path d="M66.843 18.564C67.0057 19.168 67.5632 19.5164 68.0975 19.3771C68.6317 19.2377 68.9105 18.6337 68.7479 18.0297C68.5853 17.4257 68.0278 17.0773 67.4935 17.2167C66.9592 17.3561 66.6804 17.96 66.843 18.564Z" fill="black"/>
<path d="M57.9919 20.8174C58.1545 21.4213 58.712 21.7698 59.2463 21.6304C59.7806 21.491 60.0594 20.8871 59.8968 20.2831C59.7342 19.6791 59.1766 19.3307 58.6424 19.47C58.1313 19.6094 57.8293 20.2134 57.9919 20.8174Z" fill="black"/>
<path d="M64.4031 23.93C64.3334 23.93 64.2637 23.9068 64.2172 23.8371C64.1476 23.7442 64.1708 23.6048 64.2637 23.5351L65.0071 23.0241C65.7736 22.4666 65.9595 21.4212 65.4252 20.6314C64.2405 18.9356 63.0558 16.0087 62.9861 15.8925C62.9396 15.7764 62.9861 15.6602 63.1022 15.6138C63.2184 15.5673 63.3345 15.6138 63.381 15.7299C63.4042 15.7531 64.6122 18.7266 65.7736 20.3759C66.4705 21.3515 66.2382 22.6756 65.2626 23.3725L64.5192 23.8836C64.496 23.9068 64.4495 23.93 64.4031 23.93Z" fill="#EFBABF"/>
<path d="M65.3093 14.615C65.286 14.615 65.2628 14.615 65.2396 14.5917C65.1699 14.5453 65.1467 14.4756 65.1931 14.4059C65.5416 13.8251 66.0062 13.4767 66.5172 13.3373C67.3535 13.1282 68.0968 13.5928 68.1433 13.6161C68.213 13.6625 68.213 13.7322 68.1898 13.8019C68.1433 13.8716 68.0736 13.8948 68.0039 13.8484C68.0039 13.8484 67.3303 13.4302 66.5869 13.6161C66.1223 13.7322 65.7274 14.0342 65.4254 14.5453C65.4022 14.5917 65.3557 14.615 65.3093 14.615Z" fill="black"/>
<path d="M56.7141 16.9845C56.6908 16.9845 56.6676 16.9845 56.6444 16.9612C56.5747 16.9148 56.5514 16.8451 56.5979 16.7754C56.9463 16.1947 57.4109 15.8462 57.922 15.7068C58.7583 15.4978 59.5016 15.9624 59.5481 15.9856C59.6178 16.032 59.6178 16.1017 59.5946 16.1714C59.5481 16.2411 59.4784 16.2411 59.4087 16.2179C59.4087 16.2179 58.735 15.7997 57.9917 15.9856C57.5271 16.1017 57.1322 16.4037 56.8302 16.9148C56.7837 16.9612 56.7373 16.9845 56.7141 16.9845Z" fill="black"/>
<path d="M55.9017 4.06856C56.3198 2.58184 64.0786 3.88272 66.7268 4.67253C69.375 5.46235 71.1869 7.32074 70.7688 8.80745C70.3506 10.2942 67.865 10.8749 65.2168 10.0851C62.5686 9.29527 55.5067 5.5785 55.9017 4.06856Z" fill="#5E4444"/>
<path d="M48.5378 6.11281C48.9559 4.62609 56.7147 5.92697 59.3629 6.71678C62.0111 7.5066 63.823 9.36499 63.4049 10.8517C62.9867 12.3384 60.5011 12.9192 57.8529 12.1293C55.2047 11.3163 48.1196 7.59952 48.5378 6.11281Z" fill="#5E4444"/>
<path d="M52.324 8.90042C52.324 8.90042 56.5286 18.0994 48.4446 24.4644L47.5619 25.9511L48.3749 32.7575C48.3749 32.7575 27.1428 19.3074 41.7776 5.97345C49.7919 -1.32072 67.6325 -3.17911 70.6291 7.52985L57.8062 8.31967L52.324 8.90042Z" fill="#5E4444"/>
<path d="M43.2412 26.95C43.7755 28.7852 45.9824 29.9699 48.0963 29.5982C50.2102 29.2265 51.2091 27.5075 50.8839 25.6259C50.5586 23.7443 47.7014 22.2111 45.5875 22.5828C43.4735 22.9545 42.5443 24.5341 43.2412 26.95Z" fill="#FFD5D9"/>
<path d="M67.1903 6.71683C67.0741 6.71683 66.9812 6.62391 66.9812 6.50776C66.958 6.18254 66.6095 5.90378 66.2843 5.71795C64.9137 4.9049 63.4735 4.208 61.9635 3.67372C61.8474 3.62726 61.8009 3.51111 61.8242 3.39496C61.8706 3.27881 61.9868 3.20912 62.1029 3.25558C63.6361 3.78987 65.1228 4.50999 66.5166 5.34627C66.9347 5.6018 67.3993 5.95024 67.4226 6.48453C67.4226 6.62391 67.3296 6.71683 67.1903 6.71683Z" fill="#452B2B"/>
<path d="M63.7765 7.27425C63.7533 7.27425 63.7533 7.27425 63.73 7.27425C61.7323 6.83288 59.2699 6.27536 57.6438 4.57958C57.5509 4.48666 57.5741 4.34728 57.6438 4.27759C57.7367 4.18468 57.8761 4.20791 57.9458 4.27759C59.479 5.90369 61.8716 6.43797 63.7997 6.85611C63.9159 6.87934 63.9856 6.99549 63.9623 7.11164C63.9623 7.20456 63.8694 7.27425 63.7765 7.27425Z" fill="#452B2B"/>
<path d="M59.6409 9.34167C58.851 9.29521 58.1541 8.94676 57.4573 8.59832C57.3179 8.52863 57.1785 8.45894 57.0391 8.38925C54.6929 7.22776 51.9053 6.92577 49.3733 7.55297C49.2571 7.5762 49.141 7.50651 49.1177 7.39036C49.0945 7.27421 49.1642 7.15807 49.2803 7.13484C51.9053 6.4844 54.8323 6.80962 57.2482 8.01757C57.3876 8.08726 57.5269 8.15695 57.6663 8.22664C58.2935 8.55186 58.9672 8.90031 59.6409 8.92353C59.757 8.92353 59.8499 9.03968 59.8499 9.15583C59.8499 9.24875 59.757 9.34167 59.6409 9.34167Z" fill="#452B2B"/>
<path d="M44.8435 7.13492C44.7738 7.13492 44.7041 7.11169 44.6809 7.042C44.6112 6.94908 44.6112 6.8097 44.7273 6.74001C47.5846 4.46349 51.0226 3.02323 54.6465 2.55864C54.7626 2.53541 54.8788 2.62833 54.902 2.74448C54.9252 2.86063 54.8323 2.97677 54.7162 3C51.1155 3.44137 47.7704 4.85839 44.9828 7.08846C44.9364 7.11169 44.8899 7.13492 44.8435 7.13492Z" fill="#452B2B"/>
<path d="M50.976 15.4977C50.9527 15.4977 50.9527 15.4977 50.9295 15.4977C50.8133 15.4744 50.7437 15.3583 50.7669 15.2421C51.2547 12.6636 50.0003 9.7599 47.7702 8.36611C47.6773 8.29642 47.6309 8.15704 47.7005 8.06412C47.7702 7.9712 47.9096 7.92474 48.0025 7.99443C50.4184 9.50437 51.7425 12.5243 51.185 15.3351C51.1618 15.428 51.0689 15.4977 50.976 15.4977Z" fill="#452B2B"/>
<path d="M40.8481 15.9158C40.8249 15.9158 40.8017 15.9158 40.7784 15.8925C40.6623 15.8461 40.5926 15.7299 40.6391 15.6138L42.5671 9.99214C42.6136 9.85276 42.7298 9.52754 43.0317 9.43462C43.1247 9.41139 43.2176 9.45785 43.264 9.52754C43.6357 10.1315 43.868 10.8284 44.1003 11.4788C44.3558 12.2687 44.6114 13.0352 45.0992 13.6392C45.3083 13.2908 45.3315 12.8262 45.3547 12.408C45.3547 11.2698 45.2153 10.1315 44.8901 9.03971C44.8669 8.94679 44.9134 8.83065 45.0063 8.78419C45.0992 8.73773 45.2153 8.76096 45.285 8.85388C45.7729 9.55077 46.0516 10.3638 46.3536 11.1536C46.6324 11.9434 46.9111 12.6868 47.3525 13.314C47.5383 12.8262 47.5151 12.2222 47.4454 11.6415C47.3757 10.991 47.2596 10.4567 47.0273 9.99214C46.7485 9.45785 46.3304 9.08617 45.8658 8.94679C45.7496 8.92356 45.6799 8.80742 45.7032 8.66804C45.7264 8.55189 45.8426 8.4822 45.9819 8.50543C46.5859 8.64481 47.097 9.1094 47.4222 9.75984C47.7009 10.3174 47.8171 10.9678 47.8868 11.5718C47.9797 12.3616 48.0029 13.1746 47.5848 13.8483C47.5383 13.918 47.4919 13.9412 47.399 13.9412C47.3293 13.9412 47.2596 13.918 47.2131 13.8483C46.6091 13.0817 46.2839 12.1757 45.9587 11.2698C45.8658 11.0375 45.7961 10.8284 45.7032 10.5961C45.7961 11.1769 45.8193 11.7808 45.8193 12.3848C45.8193 12.9656 45.7496 13.6392 45.3083 14.1271C45.2618 14.1735 45.2153 14.1967 45.1457 14.1967C45.076 14.1967 45.0295 14.1735 44.983 14.1271C44.3094 13.4302 44.0074 12.501 43.7054 11.6182C43.5196 11.0607 43.3337 10.5032 43.055 9.99214C43.0317 10.0386 43.0317 10.0618 43.0085 10.1315L41.0804 15.7531C41.0107 15.8461 40.9411 15.9158 40.8481 15.9158Z" fill="#452B2B"/>
<path d="M49.3964 20.5617C49.35 20.5617 49.2803 20.5385 49.257 20.492C48.0026 19.3306 47.4451 17.5186 47.84 15.8461C47.8633 15.7299 47.9794 15.6602 48.0956 15.6835C48.2117 15.7067 48.2814 15.8228 48.2582 15.939C47.9329 17.3096 48.3511 18.8427 49.2803 19.8881C49.4429 19.9578 49.5823 20.0971 49.6055 20.283C49.6287 20.3759 49.5823 20.4688 49.5126 20.5153C49.4661 20.5617 49.4429 20.5617 49.3964 20.5617Z" fill="#452B2B"/>
<path d="M45.9118 21.491C45.8421 21.491 45.7724 21.4678 45.7027 21.4213C44.8432 20.7012 44.1695 19.7023 43.7049 18.4943C43.3332 17.5187 43.1242 16.3804 43.0312 15.0331C43.0312 14.9169 43.1242 14.8008 43.2403 14.8008C43.3565 14.8008 43.4726 14.8937 43.4726 15.0098C43.5655 16.3107 43.7746 17.4025 44.1231 18.3317C44.518 19.4235 45.1452 20.3295 45.8885 21.0032C45.9582 20.9799 46.0279 20.9799 46.0976 21.0264C46.1673 21.0728 46.2137 21.1658 46.2137 21.2587C46.2137 21.3516 46.1441 21.4213 46.0511 21.4678C46.0047 21.4678 45.9582 21.491 45.9118 21.491Z" fill="#452B2B"/>
<path d="M41.4053 20.4456C41.3588 20.4456 41.3356 20.4456 41.2891 20.4224C40.7781 20.1204 40.3135 19.6326 39.8953 18.9357C38.5712 16.7521 38.4551 13.8483 39.5701 11.5486C39.6166 11.4324 39.7559 11.386 39.8721 11.4557C39.9882 11.5021 40.0347 11.6415 39.965 11.7576C38.8964 13.918 39.0126 16.6591 40.267 18.7266C40.6387 19.3538 41.0568 19.7952 41.5214 20.0507C41.6376 20.1204 41.6608 20.2365 41.6143 20.3527C41.5446 20.3992 41.4749 20.4456 41.4053 20.4456Z" fill="#452B2B"/>
<path d="M44.0075 21.6768C43.9611 21.6768 43.9378 21.6768 43.8914 21.6535C42.6834 20.9334 41.8471 19.6558 41.6613 18.262C41.6381 18.1458 41.731 18.0297 41.8471 18.0065C41.9633 17.9832 42.0794 18.0761 42.1027 18.1923C42.2885 19.4467 43.0319 20.6082 44.1237 21.2586C44.2166 21.3283 44.263 21.4677 44.1934 21.5606C44.1469 21.6303 44.0772 21.6768 44.0075 21.6768Z" fill="#452B2B"/>
<path d="M41.8468 23.4654C41.8235 23.4654 41.8003 23.4654 41.7539 23.4422C40.0581 22.7685 38.7107 21.3283 38.1532 19.586C38.1068 19.4699 38.1765 19.3537 38.2926 19.3073C38.4088 19.2608 38.5249 19.3305 38.5714 19.4467C39.0824 21.0727 40.3368 22.4201 41.9397 23.0473C42.0558 23.0937 42.1023 23.2099 42.0558 23.326C42.0094 23.419 41.9165 23.4654 41.8468 23.4654Z" fill="#452B2B"/>
</svg>
