<svg width="131" height="131" viewBox="0 0 131 131" fill="none" xmlns="http://www.w3.org/2000/svg">
<rect x="0.5" y="0.382568" width="130" height="130" rx="65" fill="#DCEBFE"/>
<rect x="0.5" y="0.382568" width="130" height="130" rx="65" fill="white"/>
<g clip-path="url(#clip0_1856_316)">
<path d="M71.7427 99.1706C71.319 99.1706 70.8953 98.7461 70.8953 98.3217C70.8953 97.8972 71.1777 97.4727 71.6015 97.4727C84.7936 94.9117 95.2879 84.3988 97.7031 71.0419C97.8444 70.6174 98.2681 70.1929 98.6919 70.3344C99.1156 70.4759 99.5393 70.9004 99.3981 71.3248C98.1269 78.1448 94.8642 84.5403 89.8924 89.5067C84.9348 94.4731 78.6919 97.7415 71.7427 99.0291V99.1706Z" fill="#F2F2F2"/>
<path d="M59.2572 99.1705H59.1159C52.308 97.897 45.9238 94.6286 40.9662 89.648C36.0086 84.6816 32.7459 78.4276 31.4606 71.4662C31.3193 71.0417 31.7431 70.4758 32.1668 70.4758C32.5905 70.3343 33.1555 70.7587 33.1555 71.1832C35.712 84.3986 46.2063 94.9115 59.5396 97.3311C59.9634 97.4726 60.3871 97.897 60.2459 98.3215C60.1046 98.8875 59.6809 99.1705 59.2572 99.1705Z" fill="#F2F2F2"/>
<path d="M32.4491 59.8072H32.3079C31.8842 59.6657 31.4604 59.2412 31.6017 58.8167C32.8729 51.9968 36.1356 45.6013 41.1073 40.6349C46.0649 35.6685 52.3079 32.4001 59.257 31.1125C59.6807 30.971 60.2457 31.3955 60.2457 31.8199C60.387 32.2444 59.9632 32.8104 59.5395 32.8104C46.2062 35.2299 35.7118 45.7428 33.2966 59.0997C33.1554 59.5242 32.7316 59.8072 32.4491 59.8072Z" fill="#F2F2F2"/>
<path d="M98.5506 59.807C98.1269 59.807 97.7032 59.524 97.7032 59.0996C95.2879 45.7427 84.7936 35.2297 71.6015 32.8102C71.1777 32.8102 70.8953 32.3857 70.8953 31.9613C70.8953 31.5368 71.319 31.1123 71.7427 31.1123H71.884C78.6919 32.3857 85.076 35.6542 90.0337 40.6348C94.9913 45.6012 98.254 51.8551 99.5393 58.8166C99.6805 59.2411 99.2568 59.807 98.8331 59.807H98.5506Z" fill="#F2F2F2"/>
<path d="M99.2569 58.8169C102.661 58.8169 105.5 61.6609 105.5 65.0709C105.5 68.4808 102.661 71.3249 99.2569 71.3249H98.6919C95.5704 71.0419 93.0139 68.3394 93.0139 65.0709C93.0139 61.8024 95.4292 59.0999 98.6919 58.8169H99.2569Z" fill="#51C193"/>
<path d="M62.2371 71.3247H59.3981C59.1156 70.6172 58.9744 69.7683 58.9744 68.7637C58.9744 65.0707 61.9546 62.0852 65.641 62.0852C69.3275 62.0852 72.3077 65.0707 72.3077 68.7637C72.3077 69.6126 72.1664 70.4757 71.884 71.3247H62.2371Z" fill="#4A7AFF"/>
<path d="M71.7427 31.82C71.4602 34.9469 68.7625 37.508 65.4998 37.508C62.2371 37.508 59.5393 35.0884 59.2568 31.82V31.254C59.2568 27.844 62.0958 25 65.4998 25C68.9037 25 71.7427 27.844 71.7427 31.254V31.82Z" fill="#F5EA0A"/>
<path d="M71.7427 98.18V98.7459C71.7427 102.156 68.9037 105 65.4998 105C62.0958 105 59.2568 102.156 59.2568 98.7459V98.18C59.5393 95.053 62.2371 92.4919 65.4998 92.4919C68.7625 92.4919 71.4602 95.053 71.7427 98.18Z" fill="#F5EA0A"/>
<path d="M65.4998 55.5483C67.3358 55.5483 68.7622 56.9633 68.7622 58.8168C68.7622 60.6704 67.3499 62.0853 65.4998 62.0853C63.6496 62.0853 62.2373 60.6704 62.2373 58.8168C62.2373 56.9633 63.6496 55.5483 65.4998 55.5483Z" fill="#FFD5AB"/>
<path d="M65.4998 45.6016C54.723 45.6016 45.9236 54.4166 45.9236 65.2125C45.9236 76.0084 54.723 84.6819 65.4998 84.6819C76.2767 84.6819 85.0761 75.8669 85.0761 65.071C85.0761 54.2751 76.2767 45.6016 65.4998 45.6016ZM65.4998 79.2768C57.7032 79.2768 51.3191 72.8814 51.3191 65.071C51.3191 57.2606 57.7032 50.8651 65.4998 50.8651C73.2964 50.8651 79.6806 57.2606 79.6806 65.071C79.6806 72.8814 73.2964 79.2768 65.4998 79.2768Z" fill="#FF7058"/>
<path d="M32.3079 58.8169C35.4294 59.0999 37.9859 61.8024 37.9859 65.0709C37.9859 68.3394 35.5706 71.0419 32.3079 71.3249H31.7429C28.339 71.3249 25.5 68.4808 25.5 65.0709C25.5 61.6609 28.339 58.8169 31.7429 58.8169H32.3079Z" fill="#51C193"/>
<path d="M65.4997 51.714C65.076 51.714 64.6523 51.2895 64.6523 50.865V41.9085C64.6523 41.484 65.076 41.0596 65.4997 41.0596C65.9234 41.0596 66.3471 41.484 66.3471 41.9085V50.865C66.3471 51.2895 65.9234 51.714 65.4997 51.714Z" fill="#333940"/>
<path d="M65.4997 89.0821C65.076 89.0821 64.6523 88.6577 64.6523 88.2332V79.2767C64.6523 78.8522 65.076 78.4277 65.4997 78.4277C65.9234 78.4277 66.3471 78.8522 66.3471 79.2767V88.2332C66.3471 88.6577 65.9234 89.0821 65.4997 89.0821Z" fill="#333940"/>
<path d="M88.6208 65.9196H79.6809C79.2572 65.9196 78.8335 65.4951 78.8335 65.0706C78.8335 64.6462 79.2572 64.2217 79.6809 64.2217H88.6208C89.0445 64.2217 89.4682 64.6462 89.4682 65.0706C89.4682 65.4951 89.0445 65.9196 88.6208 65.9196Z" fill="#333940"/>
<path d="M51.3186 65.9196H42.3786C41.9549 65.9196 41.5312 65.4951 41.5312 65.0706C41.5312 64.6462 41.9549 64.2217 42.3786 64.2217H51.3186C51.7423 64.2217 52.166 64.6462 52.166 65.0706C52.166 65.4951 51.7423 65.9196 51.3186 65.9196Z" fill="#333940"/>
<path d="M63.0848 68.7635C63.0848 68.339 62.6611 67.9146 62.2374 67.9146C61.8137 67.9146 61.2488 68.339 61.2488 68.7635V71.3245H63.0848V68.7635Z" fill="#2C62C4"/>
<path d="M69.7517 68.7635C69.7517 68.339 69.328 67.9146 68.9043 67.9146C68.4806 67.9146 68.0569 68.339 68.0569 68.7635V71.3245H69.7517V68.7635Z" fill="#2C62C4"/>
</g>
<defs>
<clipPath id="clip0_1856_316">
<rect width="80" height="80" fill="white" transform="translate(25.5 25.3826)"/>
</clipPath>
</defs>
</svg>
