<svg width="440" height="320" viewBox="0 0 440 320" fill="none" xmlns="http://www.w3.org/2000/svg">
<g clip-path="url(#clip0_364_7542)">
<path d="M175.278 212.8C177.257 212.8 178.861 211.195 178.861 209.216C178.861 207.237 177.257 205.633 175.278 205.633C173.299 205.633 171.694 207.237 171.694 209.216C171.694 211.195 173.299 212.8 175.278 212.8Z" fill="#CED8D6"/>
<path d="M412.705 133.81C414.684 133.81 416.288 132.205 416.288 130.226C416.288 128.247 414.684 126.643 412.705 126.643C410.725 126.643 409.121 128.247 409.121 130.226C409.121 132.205 410.725 133.81 412.705 133.81Z" fill="#CED8D6"/>
<path d="M394.558 56.4213H303.141V132.819H394.558V56.4213Z" fill="white"/>
<path d="M328.683 62.5208H310.231V85.928H328.683V62.5208Z" fill="#E7CF7F"/>
<path d="M319.457 68.3917C320.636 68.3917 321.592 67.4359 321.592 66.2568C321.592 65.0778 320.636 64.1219 319.457 64.1219C318.278 64.1219 317.322 65.0778 317.322 66.2568C317.322 67.4359 318.278 68.3917 319.457 68.3917Z" fill="#5484CD"/>
<path d="M387.696 92.7138H373.515V110.631H387.696V92.7138Z" fill="#FF8F79"/>
<path d="M382.207 95.6112C382.207 96.5261 381.52 97.2123 380.606 97.2123C379.691 97.2123 379.004 96.5261 379.004 95.6112C379.004 94.6962 379.691 94.01 380.606 94.01C381.52 94.01 382.207 94.6962 382.207 95.6112Z" fill="#E7CF7F"/>
<path d="M337.069 99.3472H318.618V122.678H337.069V99.3472Z" fill="#FF8F79"/>
<path d="M327.844 105.294C329.023 105.294 329.979 104.338 329.979 103.159C329.979 101.98 329.023 101.025 327.844 101.025C326.665 101.025 325.709 101.98 325.709 103.159C325.709 104.338 326.665 105.294 327.844 105.294Z" fill="#E7CF7F"/>
<path opacity="0.3" d="M285.452 42.1635H110.927V155.463H285.452V42.1635Z" fill="#CED8D6"/>
<path d="M274.854 64.5032H208.749C207.758 64.5032 206.919 63.6645 206.919 62.6733V62.2921C206.919 61.3009 207.758 60.4622 208.749 60.4622H274.854C275.845 60.4622 276.684 61.3009 276.684 62.2921V62.6733C276.684 63.6645 275.845 64.5032 274.854 64.5032Z" fill="#CED8D6"/>
<path d="M274.854 78.2273H208.749C207.758 78.2273 206.919 77.3886 206.919 76.3974V76.0162C206.919 75.025 207.758 74.1863 208.749 74.1863H274.854C275.845 74.1863 276.684 75.025 276.684 76.0162V76.3974C276.684 77.3886 275.845 78.2273 274.854 78.2273Z" fill="#CED8D6"/>
<path d="M274.854 91.9514H208.749C207.758 91.9514 206.919 91.1127 206.919 90.1215V89.7403C206.919 88.7491 207.758 87.9104 208.749 87.9104H274.854C275.845 87.9104 276.684 88.7491 276.684 89.7403V90.1215C276.684 91.1127 275.845 91.9514 274.854 91.9514Z" fill="#CED8D6"/>
<path d="M274.854 105.599H208.749C207.758 105.599 206.919 104.761 206.919 103.769V103.388C206.919 102.397 207.758 101.558 208.749 101.558H274.854C275.845 101.558 276.684 102.397 276.684 103.388V103.769C276.684 104.837 275.845 105.599 274.854 105.599Z" fill="#CED8D6"/>
<path d="M274.854 119.323H208.749C207.758 119.323 206.919 118.485 206.919 117.493V117.112C206.919 116.121 207.758 115.282 208.749 115.282H274.854C275.845 115.282 276.684 116.121 276.684 117.112V117.493C276.684 118.561 275.845 119.323 274.854 119.323Z" fill="#CED8D6"/>
<path d="M274.854 133.047H208.749C207.758 133.047 206.919 132.209 206.919 131.218V130.836C206.919 129.845 207.758 129.006 208.749 129.006H274.854C275.845 129.006 276.684 129.845 276.684 130.836V131.218C276.684 132.209 275.845 133.047 274.854 133.047Z" fill="#CED8D6"/>
<path d="M194.263 97.1361C194.263 116.502 178.557 132.209 159.19 132.209C139.824 132.209 124.118 116.502 124.118 97.1361C124.118 77.7698 139.824 62.0634 159.19 62.0634C178.557 61.9871 194.263 77.6936 194.263 97.1361Z" fill="#F4F4F4"/>
<path d="M189.383 97.1361C189.383 113.834 175.812 127.405 159.114 127.405C142.416 127.405 128.845 113.834 128.845 97.1361C128.845 80.4384 142.416 66.8668 159.114 66.8668C175.812 66.8668 189.383 80.4384 189.383 97.1361Z" fill="#5484CD"/>
<path d="M189.383 97.1361H159.114V66.8668C175.812 66.8668 189.383 80.4384 189.383 97.1361Z" fill="#FF8F79"/>
<path d="M151.947 38.6562L161.859 53.4477L173.677 38.1987L151.947 38.6562Z" fill="#E7CF7F"/>
<path d="M187.934 136.021L171.465 160.267L195.482 163.698L187.934 136.021Z" fill="white"/>
<path d="M170.017 148.068L177.794 137.698H167.501L170.017 148.068Z" fill="#E7CF7F"/>
<path d="M267.382 152.795L259.224 162.859L269.517 163.24L267.382 152.795Z" fill="#E7CF7F"/>
<path d="M277.293 34.5389L274.854 50.1692L290.255 43.7646L277.293 34.5389Z" fill="white"/>
<path d="M245.271 25.9995L259.986 47.0431L270.813 22.111L245.271 25.9995Z" fill="#CED8D6"/>
<path d="M109.783 48.4155L120.61 53.219L109.097 61.2247L109.783 48.4155Z" fill="#CED8D6"/>
<path d="M280.42 135.64L291.17 140.443L279.733 148.449L280.42 135.64Z" fill="#CED8D6"/>
<path d="M147.525 201.897H46.1189C41.468 201.897 37.6558 198.084 37.6558 193.433V136.021H39.1807V193.433C39.1807 197.246 42.3067 200.372 46.1189 200.372H147.525C151.337 200.372 154.463 197.246 154.463 193.433V160.191H155.988V193.433C155.912 198.161 152.176 201.897 147.525 201.897Z" fill="#CED8D6"/>
<path d="M60.0718 112.385C60.0718 116.502 59.0806 120.162 57.4794 123.288C54.7346 128.854 50.4649 132.742 47.5676 134.649C43.0692 137.622 44.6703 143.722 44.6703 143.722H32.0899C32.0899 143.722 33.691 137.622 29.1926 134.649C26.3715 132.819 22.3305 129.083 19.5857 123.898C17.9083 120.62 16.7646 116.807 16.7646 112.385C16.7646 100.948 24.6941 91.6464 38.4182 91.6464C52.1423 91.6464 60.0718 100.948 60.0718 112.385Z" fill="#E7CF7F"/>
<path d="M47.3387 149.516H29.4973C28.7349 149.516 28.2012 148.906 28.2012 148.22V145.018C28.2012 144.255 28.8111 143.722 29.4973 143.722H47.3387C48.1011 143.722 48.6348 144.332 48.6348 145.018V148.22C48.6348 148.906 48.1011 149.516 47.3387 149.516Z" fill="#444C72"/>
<path d="M46.7288 149.516V160.191C46.7288 161.716 45.5089 163.012 43.9078 163.012H32.9285C31.4036 163.012 30.1074 161.792 30.1074 160.191V149.516H46.7288Z" fill="#5484CD"/>
<path d="M40.5532 166.443H36.2835C34.3774 166.443 32.9287 164.918 32.9287 163.088H43.9842C43.908 164.918 42.3831 166.443 40.5532 166.443Z" fill="#444C72"/>
<path d="M42.6116 124.356C40.858 124.356 39.4856 125.804 39.4856 127.482V130.15H39.2568H37.5795H37.3507V127.482C37.3507 125.728 35.9021 124.356 34.2247 124.356C32.5473 124.356 31.0986 125.804 31.0986 127.482V128.778C31.0986 130.531 32.5473 131.904 34.2247 131.904H35.6733V143.722H37.3507V131.904H37.5795H39.2568H39.4093V143.722H41.0867V131.904H42.5354C44.289 131.904 45.6614 130.455 45.6614 128.778V127.482C45.7377 125.728 44.289 124.356 42.6116 124.356ZM35.6733 130.15H34.2247C33.4622 130.15 32.776 129.464 32.776 128.701V127.405C32.776 126.643 33.4622 125.957 34.2247 125.957C34.9871 125.957 35.6733 126.643 35.6733 127.405V130.15ZM44.0603 128.701C44.0603 129.464 43.3741 130.15 42.6116 130.15H41.163V127.482C41.163 126.719 41.8492 126.033 42.6116 126.033C43.3741 126.033 44.0603 126.719 44.0603 127.482V128.701Z" fill="white"/>
<path d="M155.149 164.765C157.129 164.765 158.733 163.161 158.733 161.182C158.733 159.203 157.129 157.598 155.149 157.598C153.17 157.598 151.566 159.203 151.566 161.182C151.566 163.161 153.17 164.765 155.149 164.765Z" fill="#CED8D6"/>
<path d="M405.004 209.979H174.896V208.454H405.08C408.892 208.454 412.018 205.328 412.018 201.515V130.836H413.543V201.515C413.467 206.166 409.655 209.979 405.004 209.979Z" fill="#CED8D6"/>
<path d="M139.824 320H109.555C108.335 315.959 109.555 310.241 109.555 310.241L109.098 304.904L108.564 298.956L120.153 297.584L121.068 301.396L122.517 307.42C124.042 308.792 134.106 311.003 136.698 313.519C139.062 315.883 139.824 320 139.824 320Z" fill="#FFCFCA"/>
<path d="M120.915 301.32C117.408 303.836 111.842 304.599 108.945 304.904L108.411 298.956L120 297.584L120.915 301.32Z" fill="#FFCFCA"/>
<path d="M139.748 320H109.479C108.259 315.959 109.479 310.241 109.479 310.241C109.479 310.241 118.781 311.994 122.364 307.343C123.889 308.716 133.953 310.927 136.546 313.443C139.062 315.883 139.748 320 139.748 320Z" fill="#444C72"/>
<path d="M95.3735 320H65.028C63.8081 315.959 65.028 310.241 65.028 310.241L65.4855 306.2L65.943 301.93L78.1422 299.948L77.9897 304.217L77.8372 307.267C79.3621 308.639 89.4264 310.851 92.0187 313.367C94.6111 315.883 95.3735 320 95.3735 320Z" fill="#FFCFCA"/>
<path d="M65.9428 301.854L78.142 299.871L77.9895 304.141C73.1098 305.742 68.2302 306.047 65.4854 306.047L65.9428 301.854Z" fill="#FFCFCA"/>
<path d="M67.3915 206.776L66.0954 253.514L63.8843 302.082C63.8843 302.082 72.5 304.675 79.667 301.396L85.9953 254.353L91.2562 224.846L98.347 254.048L106.658 300.253C106.658 300.253 115.35 301.93 121.602 298.041L116.493 248.94L111.232 204.108L67.3915 206.776Z" fill="#444C72"/>
<path d="M98.3469 105.675C98.3469 105.675 101.473 103.769 101.168 100.338C100.863 96.9073 96.822 96.5261 95.3733 94.8487C94.0009 93.0951 92.0186 89.7403 86.7577 89.7403C81.4968 89.7403 77.9132 93.1713 78.2945 96.1449C78.2945 96.1449 73.796 95.2299 71.8899 98.5847C69.9838 101.939 71.7374 105.218 70.975 106.819C70.2125 108.42 70.2125 112.385 72.3474 114.749C74.4822 117.036 73.1098 118.942 75.4734 121.839C77.837 124.737 81.268 124.127 81.268 124.127L98.3469 105.675Z" fill="#222850"/>
<path d="M155.073 126.414C154.844 127.329 152.023 129.006 149.66 130.303C147.754 131.294 146.152 132.056 146.152 132.056L140.968 128.092L142.111 126.185L142.569 125.423C142.569 125.423 143.713 116.121 144.856 115.282C146 114.444 146.839 115.511 147.067 116.579C147.296 117.646 147.296 120.238 147.296 120.238C147.296 120.238 149.278 117.265 149.278 117.188C149.278 117.112 151.185 111.546 152.252 111.47C153.319 111.394 153.548 112.08 153.624 112.766C153.701 113.452 152.938 116.731 152.938 116.731C152.938 116.731 154.692 118.18 154.768 118.866C154.768 119.4 155.454 124.737 155.073 126.414Z" fill="#FFCFCA"/>
<path d="M149.584 130.303C147.677 131.294 146.076 132.056 146.076 132.056L140.892 128.091L142.035 126.185C143.941 126.567 147.525 127.634 149.584 130.303Z" fill="#FFCFCA"/>
<path d="M103.303 131.065L121.373 147.381L139.901 127.329C139.901 127.329 145.009 127.177 147.373 132.819C147.373 132.819 130.37 155.311 122.593 160.267L107.649 155.54C107.649 155.54 102.922 144.103 103.303 131.065Z" fill="#FF8F79"/>
<path d="M98.8809 120.924C98.6522 121.229 98.4235 121.534 98.1185 121.763C96.2123 123.364 93.1625 123.212 93.1625 123.212L93.3913 126.033L93.7725 130.303C93.7725 130.303 92.7813 133.2 88.2829 133.124C83.7844 133.047 81.1158 130.074 81.1158 130.074L81.4971 116.655C81.4971 116.655 79.6672 116.045 79.3622 114.672C79.0572 113.3 78.2948 110.555 79.3622 110.25C80.4296 109.945 82.107 110.326 82.4883 111.546L82.8695 113.529L84.3181 113.452C84.3181 113.452 84.0132 110.25 85.0043 109.03C85.9955 107.81 89.6553 106.743 89.6553 103.769C89.6553 103.769 93.1625 107.81 98.271 105.752C98.3472 105.675 100.482 118.332 98.8809 120.924Z" fill="#FFCFCA"/>
<path d="M112.147 189.392C111.842 191.604 111.385 193.662 111.08 195.492C110.47 198.466 109.936 200.524 109.936 200.524C109.936 200.524 93.8487 205.404 74.4062 202.202C72.8051 201.973 71.2039 201.592 69.5265 201.287C69.5265 201.287 68.5354 199.685 67.4679 197.703C66.0955 195.263 64.4944 192.213 64.3419 191.299C64.1894 190.155 66.7817 164.689 68.5354 147.763C69.374 139.3 70.0603 132.971 70.0603 132.971C70.0603 132.971 73.1863 129.693 79.1334 127.787C79.7434 127.558 80.4296 127.405 81.192 127.177C81.192 127.177 84.2418 131.98 89.1977 131.065C94.1537 130.226 93.6199 128.32 93.6199 128.32L93.4675 126.795C93.4675 126.795 94.2299 127.024 95.4498 127.482C97.8897 128.396 101.854 129.921 103.379 131.141C103.303 131.065 113.062 183.445 112.147 189.392Z" fill="#FF8F79"/>
<path d="M74.1012 175.973L71.4326 191.985L74.1012 198.999L74.4061 202.202L75.0161 208.606C72.1188 208.225 69.6027 207.615 67.4679 206.853C67.4679 206.853 64.4943 202.049 67.5441 197.703C66.1717 195.263 64.5705 192.213 64.4181 191.299C64.2656 190.155 66.8579 164.689 68.6115 147.763L71.5088 146.238V159.199H92.7812V164.308L74.1012 175.973Z" fill="#D64F38"/>
<path d="M111.232 204.108C111.232 204.108 106.81 207.462 93.7723 208.682C85.6903 209.445 79.7432 209.216 74.9398 208.53C72.0425 208.149 69.5264 207.539 67.3916 206.776C67.3916 206.776 64.418 201.973 67.4678 197.627C67.4678 197.627 69.5264 198.389 74.1011 198.923C77.7609 199.381 83.0218 199.685 90.1126 199.304C105.895 198.466 111.08 195.416 111.08 195.416C111.08 195.416 113.444 199.381 111.232 204.108Z" fill="#FF8F79"/>
<path d="M74.9398 208.53C71.9663 208.149 69.5264 207.539 67.3916 206.776C67.3916 206.776 64.418 201.973 67.4678 197.627C67.4678 197.627 69.5264 198.389 74.1011 198.923L74.4061 202.125L74.9398 208.53Z" fill="#D64F38"/>
<path d="M99.7958 153.557C99.4908 154.167 99.1858 156.15 98.7283 157.293C98.3471 158.361 96.0598 160.267 94.9161 160.877C93.8487 161.487 90.2651 162.097 88.4353 162.097C88.359 162.097 88.2828 162.097 88.2065 162.097C86.4529 162.097 84.0893 162.097 84.0893 162.097L82.1069 154.549C82.1069 154.549 84.6993 152.566 85.6904 151.804C86.6816 151.041 88.969 149.135 90.2651 148.983C91.4851 148.83 92.8575 148.983 93.0862 148.983L92.4762 150.66C92.4762 150.889 92.3238 152.185 92.5525 152.337C92.8575 152.566 95.1448 152.642 96.0598 152.261C97.0509 151.88 99.567 150.355 100.177 150.965C100.787 151.651 100.101 152.947 99.7958 153.557Z" fill="#FFCFCA"/>
<path d="M118.018 143.798L107.191 169.721L86.4526 167.663L88.435 162.097C90.2649 162.097 93.8484 161.487 94.9158 160.877C96.0595 160.267 98.3469 158.361 98.7281 157.293C99.1093 156.15 99.4905 154.167 99.7955 153.557C100.1 152.947 100.787 151.651 100.177 150.965C99.643 150.355 97.0507 151.88 96.0595 152.261C95.0683 152.642 92.781 152.566 92.5522 152.337C92.3235 152.109 92.476 150.812 92.476 150.66L93.0859 148.983L96.822 138.537L118.018 143.798Z" fill="#F4F4F4"/>
<path d="M70.0601 132.819C70.0601 132.819 56.7935 155.54 56.7173 168.273C56.7173 168.273 57.4035 171.322 62.6644 171.704C67.9253 172.085 84.9279 163.012 84.9279 163.012C84.9279 163.012 85.7666 156.073 82.5643 153.634L69.5264 157.446C69.5264 157.446 74.0249 139.528 70.0601 132.819Z" fill="#FF8F79"/>
<path d="M89.1214 133.734C83.2505 134.344 79.1333 127.71 79.1333 127.71C79.7433 127.482 80.4295 127.329 81.1919 127.1C81.1919 127.1 84.2417 131.904 89.1976 130.989C94.1536 130.15 93.6198 128.244 93.6198 128.244L93.4674 126.719C93.4674 126.719 94.2298 126.948 95.4497 127.405C96.3647 129.693 94.9922 133.047 89.1214 133.734Z" fill="#D64F38"/>
<path d="M85.843 130.76L81.8783 136.555C81.8783 136.555 77.9898 132.59 77.4561 128.244L81.1921 126.033L85.843 130.76Z" fill="#F4F4F4"/>
<path d="M92.0947 130.15L93.3909 126.262L97.1269 128.015C97.1269 128.015 97.5081 130.455 96.5169 133.734L92.0947 130.15Z" fill="#F4F4F4"/>
<path d="M95.3735 320H65.028C63.8081 315.959 65.028 310.241 65.028 310.241C65.028 310.241 74.3299 311.994 77.9134 307.343C79.4383 308.716 89.5027 310.927 92.095 313.443C94.6111 315.883 95.3735 320 95.3735 320Z" fill="#444C72"/>
<path d="M91.2563 224.846L97.2035 218.213L93.6199 234.606L91.2563 224.846Z" fill="#222850"/>
<path d="M69.5267 157.446L66.1719 162.173L74.1013 156.073L69.5267 157.446Z" fill="#D64F38"/>
<path d="M93.0861 123.212L93.3148 126.033C84.2417 125.88 84.6992 116.502 84.6992 116.502C90.1888 124.203 97.6608 121.916 98.042 121.763C96.2121 123.364 93.0861 123.212 93.0861 123.212Z" fill="#FFCFCA"/>
<path d="M102.235 39.0374H21.1108V71.8227H102.235V39.0374Z" fill="#5484CD"/>
<path d="M86.5288 71.7465V83.2594L92.0947 71.7465H86.5288Z" fill="#5484CD"/>
<path d="M95.9834 49.178H27.363C26.9817 49.178 26.6768 48.873 26.6768 48.4918C26.6768 48.1106 26.9817 47.8056 27.363 47.8056H95.9834C96.3646 47.8056 96.6696 48.1106 96.6696 48.4918C96.6696 48.873 96.3646 49.178 95.9834 49.178Z" fill="white"/>
<path d="M95.9834 56.04H27.363C26.9817 56.04 26.6768 55.735 26.6768 55.3538C26.6768 54.9726 26.9817 54.6676 27.363 54.6676H95.9834C96.3646 54.6676 96.6696 54.9726 96.6696 55.3538C96.6696 55.735 96.3646 56.04 95.9834 56.04Z" fill="white"/>
<path d="M95.9834 62.9783H27.363C26.9817 62.9783 26.6768 62.6733 26.6768 62.2921C26.6768 61.9109 26.9817 61.6059 27.363 61.6059H95.9834C96.3646 61.6059 96.6696 61.9109 96.6696 62.2921C96.6696 62.6733 96.3646 62.9783 95.9834 62.9783Z" fill="white"/>
<path d="M356.893 101.711C356.893 101.711 351.861 97.8985 354.072 93.5525C356.283 89.2065 360.858 89.664 362.917 91.1889C364.975 92.7138 365.738 96.2973 369.626 97.5172C373.438 98.6609 377.708 101.101 378.013 105.752C378.318 110.403 377.174 116.121 372.905 118.637H364.823L356.893 101.711Z" fill="#222850"/>
<path d="M345.457 304.141L344.923 310.164C344.923 310.164 346.143 315.883 344.923 319.924H314.654C314.654 319.924 315.416 315.883 317.932 313.29C320.448 310.774 330.513 308.563 332.114 307.191L334.096 298.804L334.325 297.736L334.401 297.431H334.477L345.914 298.88L345.457 304.141Z" fill="#FFCFCA"/>
<path d="M314.578 320H344.847C346.067 315.959 344.847 310.241 344.847 310.241C344.847 310.241 335.545 311.994 331.961 307.343C330.437 308.716 320.372 310.927 317.78 313.443C315.34 315.883 314.578 320 314.578 320Z" fill="#444C72"/>
<path d="M389.374 320H359.104C359.104 320 359.867 315.959 362.383 313.367C364.899 310.851 374.963 308.639 376.565 307.267L376.412 303.15L376.26 299.871L388.459 301.854L388.916 306.2L389.374 310.164C389.374 310.241 390.594 315.883 389.374 320Z" fill="#FFCFCA"/>
<path d="M345.914 298.88L345.457 304.217C337.985 303.76 334.63 299.719 334.02 298.88C333.944 298.804 333.868 298.728 333.868 298.728L334.249 297.813L334.401 297.508L345.914 298.88Z" fill="#FFCFCA"/>
<path d="M388.916 306.276C382.512 306.81 376.489 303.302 376.336 303.226L376.184 299.948L388.383 301.93L388.916 306.276Z" fill="#FFCFCA"/>
<path d="M387.01 206.776L388.306 253.514L390.517 302.082C390.517 302.082 381.902 304.675 374.735 301.396L368.406 254.353L363.145 224.846L356.055 254.048L347.744 300.253C347.744 300.253 339.052 301.93 332.8 298.041L337.908 248.94L343.169 204.108L387.01 206.776Z" fill="#444C72"/>
<path d="M313.434 128.091L308.249 132.056C308.249 132.056 306.8 131.37 305.047 130.455C302.607 129.159 299.481 127.329 299.252 126.414C298.871 124.737 299.557 119.4 299.633 118.79C299.71 118.18 301.463 116.655 301.463 116.655C301.463 116.655 300.701 113.376 300.777 112.69C300.853 112.004 301.082 111.318 302.15 111.394C303.217 111.47 305.047 117.036 305.123 117.112C305.123 117.188 307.105 120.162 307.105 120.162C307.105 120.162 307.105 117.57 307.334 116.502C307.563 115.435 308.402 114.367 309.545 115.206C310.689 116.045 311.833 125.347 311.833 125.347L312.595 126.643L313.434 128.091Z" fill="#FFCFCA"/>
<path d="M313.434 128.091L308.249 132.056C308.249 132.056 306.801 131.37 305.047 130.455C306.267 129.311 309.164 127.1 312.595 126.719L313.434 128.091Z" fill="#FFCFCA"/>
<path d="M351.099 131.065L333.029 147.381L314.501 127.329C314.501 127.329 309.393 127.177 307.029 132.819C307.029 132.819 324.032 155.311 331.809 160.267L346.753 155.54C346.753 155.54 351.404 144.103 351.099 131.065Z" fill="#5484CD"/>
<path d="M355.521 120.924C355.75 121.229 355.978 121.534 356.283 121.763C358.19 123.364 361.239 123.212 361.239 123.212L361.011 126.033L360.629 130.303C360.629 130.303 361.621 133.2 366.119 133.124C370.617 133.047 373.286 130.074 373.286 130.074L372.905 116.655C372.905 116.655 374.735 116.045 375.04 114.672C375.345 113.3 376.107 110.555 375.04 110.25C373.972 109.945 372.295 110.326 371.914 111.546L371.532 113.529L370.084 113.452C370.084 113.452 372.371 102.778 356.97 101.711C356.893 101.711 353.844 118.332 355.521 120.924Z" fill="#FFCFCA"/>
<path d="M359.028 320H389.374C390.594 315.959 389.374 310.241 389.374 310.241C389.374 310.241 380.072 311.994 376.488 307.343C374.964 308.716 364.899 310.927 362.307 313.443C359.791 315.883 359.028 320 359.028 320Z" fill="#444C72"/>
<path d="M363.069 224.846L357.122 218.213L360.782 234.606L363.069 224.846Z" fill="#222850"/>
<path d="M361.316 123.212L361.087 126.033C370.16 125.88 369.703 116.502 369.703 116.502C364.213 124.203 356.741 121.916 356.36 121.763C358.19 123.364 361.316 123.212 361.316 123.212Z" fill="#FFCFCA"/>
<path d="M389.298 206.929C385.943 207.844 381.368 208.149 376.412 208.225C375.65 208.225 374.811 208.225 374.049 208.225C358.647 208.072 340.501 205.175 340.501 205.175L346.829 155.54L351.175 131.141L360.858 128.396C360.858 128.396 361.163 131.141 364.899 131.522C369.703 131.98 373.286 129.006 373.286 129.006L373.21 127.405L382.664 132.132L384.571 153.405L389.298 206.929Z" fill="#5484CD"/>
<path d="M376.412 208.149L384.494 179.557L375.573 150.965L384.57 153.329L389.297 206.929C385.943 207.767 381.368 208.149 376.412 208.149Z" fill="#0A5B5B"/>
<path d="M388.688 208.225C388.611 209.216 388.306 210.283 387.849 211.351C386.858 214.019 385.409 216.536 385.409 216.536C380.758 216.307 376.87 211.427 376.87 211.427C376.87 211.427 377.403 209.75 378.166 208.911C379.004 208.072 381.444 206.242 381.444 206.242L388.688 208.225Z" fill="#FFCFCA"/>
<path d="M388.688 208.225C388.611 209.216 388.306 210.283 387.849 211.351C382.74 210.131 381.444 206.242 381.444 206.242L388.688 208.225Z" fill="#FFCFCA"/>
<path d="M382.664 132.056C382.664 132.056 393.72 153.939 396.617 168.273C396.617 168.273 394.558 198.542 389.221 208.759C389.221 208.759 385.028 209.902 380.987 205.861C380.987 205.861 384.951 179.633 384.951 171.246L375.573 150.965C375.573 150.965 374.277 138.461 382.664 132.056Z" fill="#5484CD"/>
<path d="M346.753 155.54L349.193 142.044L339.814 157.751L346.753 155.54Z" fill="#0A5B5B"/>
<path d="M389.602 43.9171H326.548V76.7024H389.602V43.9171Z" fill="#5484CD"/>
<path d="M375.955 76.7024V90.1215L381.52 76.7024H375.955Z" fill="#5484CD"/>
<path d="M381.521 52.9902H334.554C334.249 52.9902 334.02 52.7615 334.02 52.4565V52.2277C334.02 51.9228 334.249 51.694 334.554 51.694H381.521C381.826 51.694 382.054 51.9228 382.054 52.2277V52.4565C382.131 52.6852 381.826 52.9902 381.521 52.9902Z" fill="white"/>
<path d="M381.521 59.8523H334.554C334.249 59.8523 334.02 59.6235 334.02 59.3185V59.0898C334.02 58.7848 334.249 58.5561 334.554 58.5561H381.521C381.826 58.5561 382.054 58.7848 382.054 59.0898V59.3185C382.131 59.6235 381.826 59.8523 381.521 59.8523Z" fill="white"/>
<path d="M376.031 66.7905H340.12C339.815 66.7905 339.662 66.5618 339.662 66.3331V65.9519C339.662 65.6469 339.891 65.4944 340.12 65.4944H376.031C376.336 65.4944 376.488 65.7231 376.488 65.9519V66.3331C376.488 66.5618 376.26 66.7905 376.031 66.7905Z" fill="white"/>
<path d="M185.723 225.075H182.902L220.339 320H223.388L185.723 225.075Z" fill="#CED8D6"/>
<path d="M220.567 225.075H223.388L186.028 320H182.979L220.567 225.075Z" fill="#CED8D6"/>
<path d="M290.102 262.359H286.062V304.217H290.102V262.359Z" fill="#222850"/>
<path d="M269.211 311.384C270.222 311.384 271.041 310.565 271.041 309.554C271.041 308.544 270.222 307.725 269.211 307.725C268.201 307.725 267.381 308.544 267.381 309.554C267.381 310.565 268.201 311.384 269.211 311.384Z" fill="#222850"/>
<path d="M306.952 311.384C307.963 311.384 308.782 310.565 308.782 309.554C308.782 308.544 307.963 307.725 306.952 307.725C305.942 307.725 305.123 308.544 305.123 309.554C305.123 310.565 305.942 311.384 306.952 311.384Z" fill="#222850"/>
<path d="M285.756 312.833C285.756 314.205 286.9 315.349 288.272 315.349C289.645 315.349 290.789 314.205 290.789 312.833C290.789 311.461 289.645 310.317 288.272 310.317C286.9 310.317 285.756 311.461 285.756 312.833Z" fill="#222850"/>
<path d="M308.401 304.904L288.044 300.558L284.842 301.32L267.763 304.904V306.2H285.757L286.29 309.021H288.044H289.874L290.407 306.2H308.401V304.904Z" fill="#222850"/>
<path d="M266.695 262.359H311.375C313.357 262.359 314.958 260.758 314.958 258.775V252.447C314.958 250.465 313.357 248.863 311.375 248.863H266.695C264.713 248.863 263.112 250.465 263.112 252.447V258.775C263.036 260.681 264.713 262.359 266.695 262.359Z" fill="#222850"/>
<path d="M310.155 233.919C303.903 233.919 298.871 228.887 298.871 222.635V189.697C298.871 183.445 303.903 178.413 310.155 178.413C316.407 178.413 321.439 183.445 321.439 189.697V222.635C321.439 228.887 316.407 233.919 310.155 233.919Z" fill="#222850"/>
<path d="M286.138 175.516C282.859 171.17 282.783 161.792 285.451 157.751C287.739 154.396 290.789 151.422 293.762 147.458C297.651 142.273 303.445 139.833 311.756 145.17C320.067 150.584 318.16 156.988 317.703 163.24C317.246 169.492 326.395 176.507 321.21 183.75C317.322 189.24 298.718 192.137 286.138 175.516Z" fill="#222850"/>
<path d="M270.355 310.393C267.61 313.595 259.071 316.798 251.828 318.246C244.508 319.619 242.068 317.56 242.068 317.56C241.382 315.425 242.373 312.833 246.567 311.232C250.76 309.631 258.842 302.769 258.842 302.769L258.69 301.015L258.232 295.449L266.848 294.915L267.839 300.1L268.22 301.93L270.355 310.393Z" fill="#FFCFCA"/>
<path d="M267.915 300.1C264.637 301.93 260.901 301.472 258.689 300.939L258.232 295.373L266.848 294.839L267.915 300.1Z" fill="#FFCFCA"/>
<path d="M268.297 301.93L270.355 310.393C267.61 313.595 259.071 316.798 251.751 318.246C244.432 319.619 241.992 317.56 241.992 317.56C241.306 315.425 242.297 312.833 246.49 311.232C250.684 309.631 258.766 302.769 258.766 302.769C258.766 302.769 260.367 305.59 263.646 304.446C267 303.302 268.297 301.93 268.297 301.93Z" fill="#444C72"/>
<path d="M231.089 284.165L229.107 287.52L227.429 290.341L223.388 298.041C219.195 298.651 210.655 295.449 204.251 291.637C197.846 287.825 197.389 284.622 197.389 284.622C198.304 282.564 200.743 281.268 204.937 282.869C209.13 284.47 219.805 284.622 219.805 284.622L222.931 280.429L224.227 278.751L231.089 284.165Z" fill="#FFCFCA"/>
<path d="M231.089 284.165L229.106 287.52C224.684 285.385 223.388 282.259 223.007 280.505L224.303 278.828L231.089 284.165Z" fill="#FFCFCA"/>
<path d="M264.637 258.928L267.992 296.135C262.349 300.329 257.165 299.261 257.165 299.261C257.165 299.261 248.473 250.236 249.235 245.966C249.998 241.696 273.481 230.793 273.481 230.793L287.815 234.377L289.645 248.406L290.103 252.142L264.637 258.928Z" fill="#444C72"/>
<path d="M290.102 252.142L264.636 258.928L254.725 256.335L258.918 250.998L279.962 246.5L289.645 248.406L290.102 252.142Z" fill="#222850"/>
<path d="M305.809 235.521C305.809 235.521 305.58 246.652 303.293 249.778C300.929 252.904 271.651 252.904 258.842 250.998L232.69 284.775C232.69 284.775 227.658 283.784 223.388 277.76C223.388 277.76 250.913 235.292 253.734 234.301C256.555 233.309 282.554 233.386 282.554 233.386C282.554 233.386 295.745 231.861 305.809 235.521Z" fill="#444C72"/>
<path d="M285.451 182.912L283.621 201.363L283.012 207.539C283.012 207.539 277.446 211.351 272.718 213.486C269.821 214.858 267.229 215.544 266.466 214.401C264.408 211.427 257.241 185.351 257.241 185.351L262.425 182.912L271.88 202.43L285.451 182.912Z" fill="#E7CF7F"/>
<path d="M283.622 201.363L283.012 207.539C283.012 207.539 277.446 211.351 272.719 213.486L282.326 195.568L283.622 201.363Z" fill="#E59A38"/>
<path d="M262.349 182.912L257.165 185.351C257.165 185.351 256.402 184.055 255.487 182.607C254.572 181.158 253.886 179.023 253.81 177.879C253.734 176.736 253.81 174.067 254.42 172.923C255.03 171.78 255.564 171.551 256.021 171.475C256.555 171.322 258.461 175.44 258.461 175.44L260.138 177.193C260.138 177.193 259.986 176.659 259.833 175.668C259.605 174.677 259.833 173.915 260.215 173.762C260.596 173.533 260.977 175.592 261.435 176.355C261.892 177.041 262.349 182.912 262.349 182.912Z" fill="#FFCFCA"/>
<path d="M311.756 187.486L309.621 207.767L306.724 235.521C306.724 235.521 288.196 236.436 273.481 230.793L276.455 218.823L285.451 182.912L291.856 181.387L305.656 181.005L311.756 187.486Z" fill="#E7CF7F"/>
<path d="M309.621 207.767L306.724 235.521C306.724 235.521 288.196 236.436 273.481 230.793L276.455 218.823L302.302 214.934L301.539 198.923L309.621 207.767Z" fill="#E59A38"/>
<path d="M306.343 167.281C305.352 167.968 303.827 167.968 303.827 167.968L303.751 177.879L305.657 181.005L302.454 184.437L291.018 196.712L291.856 181.387L293.991 179.938L294.906 175.135L295.44 172.237C295.44 172.237 292.924 171.551 290.026 167.968C289.874 167.739 289.721 167.51 289.645 167.281C287.815 163.012 292.848 151.575 292.848 151.575C295.974 155.387 301.539 155.768 303.064 157.751C304.513 159.809 303.293 163.012 303.293 163.012L304.589 163.469C304.589 163.469 307.029 161.334 308.249 162.478C309.393 163.698 307.334 166.595 306.343 167.281Z" fill="#FFCFCA"/>
<path d="M227.429 290.417L223.388 298.118C219.195 298.728 210.655 295.525 204.251 291.713C197.846 287.901 197.389 284.699 197.389 284.699C198.304 282.64 200.743 281.344 204.937 282.945C209.13 284.546 219.805 284.699 219.805 284.699C219.805 284.699 219.118 287.901 222.321 289.197C225.599 290.569 227.429 290.417 227.429 290.417Z" fill="#444C72"/>
<path d="M311.756 187.486C311.756 187.486 314.73 209.369 314.958 222.635C314.958 222.635 297.498 232.7 281.029 233.996L279.047 228.659L305.809 215.011L301.539 198.999C301.539 198.923 303.522 191.603 311.756 187.486Z" fill="#E7CF7F"/>
<path d="M279.047 228.582C279.047 228.582 276.15 228.735 273.481 229.802C270.736 230.87 265.247 233.996 265.78 234.606C266.238 235.216 269.516 236.969 274.396 236.207C279.352 235.444 281.029 233.843 281.029 233.843L279.047 228.582Z" fill="#FFCFCA"/>
<path d="M330.284 218.518H175.278V225.075H330.284V218.518Z" fill="#CED8D6"/>
<path d="M330.284 218.518H270.355V225.075H330.284V218.518Z" fill="white"/>
<path d="M215.688 218.518L205.318 182.912H248.244L258.69 218.518H215.688Z" fill="#FF8F79"/>
<path d="M258.69 218.518H254.802L244.356 182.912H248.244L258.69 218.518Z" fill="#444C72"/>
<path d="M258.69 218.518H285.452V215.011H257.699L258.69 218.518Z" fill="#444C72"/>
<path d="M232.919 197.322C233.605 199.99 231.928 202.202 229.259 202.202C226.591 202.202 223.846 199.99 223.16 197.322C222.474 194.653 224.151 192.442 226.82 192.442C229.488 192.442 232.233 194.653 232.919 197.322Z" fill="#F4F4F4"/>
<path d="M276.76 225.075H273.1L321.973 320H326.014L276.76 225.075Z" fill="#CED8D6"/>
<path d="M322.354 225.075H326.014L277.065 320H273.1L322.354 225.075Z" fill="#CED8D6"/>
<path d="M280.42 139.376C282.173 137.088 283.241 134.267 283.241 131.141C283.241 123.669 277.141 117.57 269.669 117.57C262.197 117.57 256.098 123.669 256.098 131.141C256.098 138.613 262.197 144.713 269.669 144.713C271.728 144.713 273.71 144.255 275.464 143.417L282.25 146.39L280.42 139.376Z" fill="#5484CD"/>
<path d="M264.408 131.446C264.408 132.056 263.875 132.59 263.265 132.59C262.655 132.59 262.121 132.056 262.121 131.446C262.121 130.836 262.655 130.303 263.265 130.303C263.875 130.303 264.408 130.836 264.408 131.446Z" fill="white"/>
<path d="M270.813 131.446C270.813 132.056 270.279 132.59 269.669 132.59C269.059 132.59 268.525 132.056 268.525 131.446C268.525 130.836 269.059 130.303 269.669 130.303C270.279 130.303 270.813 130.836 270.813 131.446Z" fill="white"/>
<path d="M277.218 131.446C277.218 132.056 276.684 132.59 276.074 132.59C275.464 132.59 274.93 132.056 274.93 131.446C274.93 130.836 275.464 130.303 276.074 130.303C276.684 130.303 277.218 130.836 277.218 131.446Z" fill="white"/>
</g>
<defs>
<clipPath id="clip0_364_7542">
<rect width="439.476" height="320" fill="white" transform="translate(0.524414)"/>
</clipPath>
</defs>
</svg>
