<svg width="65" height="50" viewBox="0 0 65 50" fill="none" xmlns="http://www.w3.org/2000/svg">
<path d="M64.6127 1.9403V46.4925C64.6127 47.5373 63.7172 48.4328 62.6724 48.4328H2.3739C1.32912 48.4328 0.433594 47.5373 0.433594 46.4925V1.9403C0.433594 0.895522 1.32912 0 2.3739 0H62.6724C63.7172 0 64.6127 0.895522 64.6127 1.9403Z" fill="#506EFF"/>
<path d="M64.6125 6.41797V47.612C64.6125 48.9553 63.5678 50.0001 62.2245 50.0001H2.89611C1.55283 50.0001 0.508057 48.9553 0.508057 47.612V6.41797H64.6125Z" fill="#F8F8F8"/>
<path d="M48.4187 3.28355C48.4187 4.10445 47.747 4.77609 46.9261 4.77609C46.1052 4.77609 45.4336 4.10445 45.4336 3.28355C45.4336 2.46266 46.1052 1.79102 46.9261 1.79102C47.747 1.79102 48.4187 2.46266 48.4187 3.28355Z" fill="white"/>
<path d="M54.3886 3.28355C54.3886 4.10445 53.717 4.77609 52.8961 4.77609C52.0752 4.77609 51.4036 4.10445 51.4036 3.28355C51.4036 2.46266 52.0752 1.79102 52.8961 1.79102C53.717 1.79102 54.3886 2.46266 54.3886 3.28355Z" fill="white"/>
<path d="M60.4336 3.28355C60.4336 4.10445 59.7619 4.77609 58.941 4.77609C58.1201 4.77609 57.4485 4.10445 57.4485 3.28355C57.4485 2.46266 58.1201 1.79102 58.941 1.79102C59.7619 1.79102 60.4336 2.46266 60.4336 3.28355Z" fill="white"/>
<path d="M60.2845 16.7162H22.8218C22.2248 16.7162 21.7024 16.1938 21.7024 15.5968V15.2237C21.7024 14.6266 22.2248 14.1042 22.8218 14.1042H60.2845C60.8815 14.1042 61.4039 14.6266 61.4039 15.2237V15.5968C61.4039 16.1938 60.8815 16.7162 60.2845 16.7162Z" fill="#FFCF64"/>
<path d="M60.2845 22.1639H22.8218C22.2248 22.1639 21.7024 21.6416 21.7024 21.0445V20.6714C21.7024 20.0744 22.2248 19.552 22.8218 19.552H60.2845C60.8815 19.552 61.4039 20.0744 61.4039 20.6714V21.0445C61.4039 21.6416 60.8815 22.1639 60.2845 22.1639Z" fill="#A9BEFF"/>
<path d="M60.2845 35.2985H22.8218C22.2248 35.2985 21.7024 34.7761 21.7024 34.1791V33.8059C21.7024 33.2089 22.2248 32.6865 22.8218 32.6865H60.2845C60.8815 32.6865 61.4039 33.2089 61.4039 33.8059V34.1791C61.4039 34.8507 60.8815 35.2985 60.2845 35.2985Z" fill="#F48B22"/>
<path d="M60.2845 40.7462H22.8218C22.2248 40.7462 21.7024 40.2238 21.7024 39.6268V39.2537C21.7024 38.6567 22.2248 38.1343 22.8218 38.1343H60.2845C60.8815 38.1343 61.4039 38.6567 61.4039 39.2537V39.6268C61.4039 40.2985 60.8815 40.7462 60.2845 40.7462Z" fill="#B5A9FF"/>
<path d="M15.6573 43.7312H6.70203C5.13487 43.7312 3.86621 42.4626 3.86621 40.8954V31.9402C3.86621 30.373 5.13487 29.1044 6.70203 29.1044H15.6573C17.2244 29.1044 18.4931 30.373 18.4931 31.9402V40.8954C18.4931 42.388 17.2244 43.7312 15.6573 43.7312Z" fill="#7186FF"/>
<path d="M8.26953 35.6715L10.8069 40.4476L14.4636 32.2386" stroke="white" stroke-width="1.6823" stroke-miterlimit="10" stroke-linecap="round" stroke-linejoin="round"/>
<path d="M16.6261 26.4869H5.95131C4.59382 26.4869 3.48315 25.3762 3.48315 24.0187V13.4057C3.48315 12.0482 4.59382 10.9375 5.95131 10.9375H16.6261C17.9836 10.9375 19.0942 12.0482 19.0942 13.4057V24.0804C19.0942 25.4379 17.9836 26.4869 16.6261 26.4869Z" fill="#5493F7"/>
<path d="M9.28536 14.3982L12.7943 22.6065H11.3659C11.1899 22.6065 11.0864 22.5858 11.0347 22.5547C10.9829 22.5133 10.9415 22.4512 10.9001 22.3684L10.0099 20.2568H7.25659L6.2629 22.6065H5.6936L9.06799 14.3982H9.28536ZM7.46361 19.7496H9.81326L8.64361 16.9549L7.46361 19.7496Z" fill="white"/>
<path d="M15.3305 22.6066H14.0263C13.8504 22.6066 13.7365 22.5652 13.6641 22.4928C13.602 22.4203 13.5605 22.3064 13.5605 22.1408V14.6675H15.3202V22.6066H15.3305Z" fill="white"/>
</svg>
