<svg width="550" height="433" viewBox="0 0 550 433" fill="none" xmlns="http://www.w3.org/2000/svg">
<path d="M9.23242 382.345L68.4384 360.802C68.4384 360.802 48.8007 392.017 48.5076 393.043C48.2145 394.069 41.6198 399.492 41.6198 399.492L9.23242 382.345Z" fill="#334B67"/>
<path d="M550 382.345L490.794 360.802C490.794 360.802 510.432 392.018 510.725 393.043C511.018 394.069 517.613 399.492 517.613 399.492L550 382.345Z" fill="#334B67"/>
<path fill-rule="evenodd" clip-rule="evenodd" d="M9.23242 382.345V391.285C9.23242 399.052 14.5082 405.647 21.9822 407.552L248.107 418.024V418.068C248.107 425.396 254.116 431.404 261.443 431.404H297.788C305.262 431.404 311.27 425.396 311.27 418.068V395.939H248.107V396.031L9.23242 382.345ZM549.999 382.345V391.285C549.999 399.052 544.723 405.647 537.249 407.552L311.27 418.068V396.086L549.999 382.345Z" fill="#4C6B8F"/>
<path d="M311.271 395.793H248.108L9.23242 382.345V387.621L248.108 401.215H311.271L550 387.621V382.345L311.271 395.793Z" fill="#334B67"/>
<path d="M543.698 331.651L477.579 249.188C477.579 249.188 328.124 248.226 279.616 292.631V383.043L411.657 350.747L543.698 331.651Z" fill="#8CE5BB"/>
<path d="M279.399 293.7C279.399 293.7 295.209 293.957 298.607 296.919C302.005 299.752 282.207 315.846 283.832 319.838C285.457 323.829 298.755 317.391 304.517 319.451C310.132 321.64 287.821 334.387 287.082 345.847C286.344 357.306 314.416 337.477 323.429 334.902C343.819 329.108 286.639 367.735 279.547 382.8V293.7H279.399Z" fill="#78D6A7"/>
<path d="M381.634 304.291C407.891 301.174 382.332 318.524 404.468 314.295C426.604 310.065 404.144 329.826 428.634 324.033C453.126 318.093 483.196 306.993 511.137 302.591C539.078 298.189 469.39 301.282 449.199 299.689C428.839 298.239 481.167 292.467 499.819 280.396C500.322 280.113 500.66 279.827 501.166 279.398L476.772 247.971C476.772 247.971 464.267 248.723 416.028 254.403C414.162 254.622 413.541 254.719 411.675 254.942C393.644 257.099 376.86 260.359 376.86 260.359C376.86 260.359 355.543 307.413 381.634 304.291Z" fill="#78D6A7"/>
<path d="M279.617 369.843V292.631C231.256 248.08 82.754 248.088 82.754 248.088L15.4004 329.45C261.25 342.65 279.617 369.843 279.617 369.843Z" fill="#78D6A7"/>
<path d="M543.698 329.451C276.615 346.598 279.762 371.089 279.762 371.089C279.762 371.089 282.91 346.598 15.8271 329.451C15.8271 329.451 27.1114 345.628 25.3529 383.731L248.108 395.939L251.185 395.708H279.616H308.047L311.124 395.939L533.879 383.731C532.414 345.482 543.698 329.451 543.698 329.451Z" fill="#E6E7E8"/>
<path d="M543.698 329.451C276.615 346.598 279.762 371.089 279.762 371.089C279.762 371.089 282.91 346.598 15.8271 329.451C15.8271 329.451 27.1114 345.628 25.3529 383.731L248.108 395.939L251.185 395.708H279.616H308.047L311.124 395.939L533.879 383.731C532.414 345.482 543.698 329.451 543.698 329.451Z" fill="#EEF7FF"/>
<g clip-path="url(#clip0_1650_1230)">
<path d="M267.82 373.687C267.82 373.687 224.762 349.195 30.6882 338.427" stroke="#E3E6EB" stroke-miterlimit="10"/>
<path d="M267.82 384.687C267.82 384.687 224.762 360.195 30.6882 349.427" stroke="#E3E6EB" stroke-miterlimit="10"/>
<path d="M267.82 395.687C267.82 395.687 224.762 371.195 30.6882 360.427" stroke="#E3E6EB" stroke-miterlimit="10"/>
<path d="M267.82 406.687C267.82 406.687 224.762 382.195 30.6882 371.427" stroke="#E3E6EB" stroke-miterlimit="10"/>
<path d="M292.764 373.687C292.764 373.687 335.822 349.195 529.893 338.427" stroke="#E3E6EB" stroke-miterlimit="10"/>
<path d="M292.764 384.687C292.764 384.687 335.822 360.195 529.893 349.427" stroke="#E3E6EB" stroke-miterlimit="10"/>
<path d="M292.764 395.687C292.764 395.687 335.822 371.195 529.893 360.427" stroke="#E3E6EB" stroke-miterlimit="10"/>
<path d="M292.764 406.687C292.764 406.687 335.822 382.195 529.893 371.427" stroke="#E3E6EB" stroke-miterlimit="10"/>
</g>
<path d="M48.95 288.75L15.4005 329.45C268.95 344.85 279.552 370.15 279.552 370.15L279.552 337.15C279.009 326.787 272.295 325.081 262.033 319.735C229.293 302.796 155.65 297 84.7001 288.2C69.8506 287.65 61.5999 286.55 48.95 288.75Z" fill="#A7A9AC"/>
<path d="M50.5421 304.573C48.5976 304.461 46.4915 304.353 44.547 304.241L44.8449 303.256C46.7893 303.368 48.8955 303.476 50.84 303.588L50.5421 304.573Z" fill="white"/>
<path d="M256.126 339.51C252.863 338.456 249.276 337.409 245.851 336.359L246.961 335.516C250.548 336.562 253.973 337.612 257.239 338.749L256.126 339.51ZM235.254 333.297C231.669 332.332 228.085 331.367 224.662 330.398L225.608 329.478C229.193 330.443 232.778 331.408 236.363 332.373L235.254 333.297ZM213.752 327.752C210.17 326.868 206.425 325.989 202.845 325.187L203.792 324.266C207.534 325.064 211.278 325.944 214.861 326.827L213.752 327.752ZM191.778 322.707C188.036 321.909 184.296 321.193 180.554 320.395L181.339 319.479C185.079 320.195 188.983 320.989 192.563 321.791L191.778 322.707ZM169.174 318.33C165.434 317.614 161.534 316.983 157.635 316.352L158.256 315.359C162.156 315.99 166.057 316.702 169.795 317.337L169.174 318.33ZM146.098 314.455C142.2 313.905 138.301 313.274 134.403 312.724L135.025 311.731C138.922 312.281 142.981 312.826 146.719 313.461L146.098 314.455ZM122.551 311.161C118.656 310.693 114.597 310.147 110.704 309.76L111.163 308.771C115.22 309.235 119.116 309.704 123.013 310.253L122.551 311.161ZM98.8582 308.441C94.965 308.054 90.9101 307.672 86.8552 307.289L87.3147 306.3C91.3696 306.682 95.4245 307.065 99.3177 307.452L98.8582 308.441ZM74.6926 306.222C70.8015 305.917 66.7487 305.615 62.5343 305.318L62.8322 304.333C66.8849 304.635 70.9377 304.936 74.9905 305.237L74.6926 306.222Z" fill="white"/>
<path d="M271.144 344.574C269.513 344.047 268.04 343.434 266.245 342.829L267.355 341.986C268.989 342.595 270.621 343.122 272.255 343.731L271.144 344.574Z" fill="white"/>
<path d="M376.616 268.467L321.563 282.974C321.563 282.974 302.173 200.894 327.826 195.481C353.478 190.069 376.616 268.467 376.616 268.467Z" fill="#6ED3A5"/>
<path d="M415.286 258.273L360.233 272.779C360.233 272.779 351.315 218.958 376.967 213.546C402.581 208.274 415.286 258.273 415.286 258.273Z" fill="#35A577"/>
<path d="M332.866 280.001L277.813 294.508C277.813 294.508 271.402 253.686 297.055 248.274C322.81 243.041 332.866 280.001 332.866 280.001Z" fill="#50BC8E"/>
<path d="M366.85 270.6L333.556 306.039C332.969 306.625 333.409 307.504 334.142 307.651C344.4 308.53 392.7 332.75 411.887 337.86C414.7 338.609 417.749 340.644 417.749 343.868L416.649 413.05L366.822 415.8V347.447L311.134 319.375C309.815 318.935 309.375 317.323 310.401 316.297L347.05 276.1L366.85 270.6Z" fill="#3BC3F2"/>
<path d="M422.969 276.795L425.403 276.464L427.693 276.108L424.806 256.297L420.082 256.983L422.969 276.795Z" fill="#A97C50"/>
<path d="M422.463 256.594L420.143 256.93L423.022 276.8L425.343 276.463L422.463 256.594Z" fill="#C49A6C"/>
<path d="M402.812 246.625C402.812 246.625 397.829 254.105 388.776 261.043C388.776 261.043 398.452 264.466 423.132 260.918L420.696 243.709L402.812 246.625Z" fill="#1F9367"/>
<path d="M438.458 241.516C438.458 241.516 445.357 247.292 455.971 251.32C455.971 251.32 447.668 257.345 422.987 260.893L420.552 243.685L438.458 241.516Z" fill="#1F9367"/>
<path d="M404.912 235.982C404.912 235.982 401.016 242.308 393.797 248.071C393.797 248.071 401.475 251.006 421.117 248.24L418.988 233.61L404.912 235.982Z" fill="#35A577"/>
<path d="M433.4 231.89C433.4 231.89 438.953 236.843 447.424 240.359C447.424 240.359 440.905 245.498 421.262 248.265L419.133 233.635L433.4 231.89Z" fill="#35A577"/>
<path d="M408.271 223.174C408.271 223.174 405.58 229.406 398.577 235.652C398.577 235.652 404.91 236.873 419.226 234.839L417.261 221.872L408.271 223.174Z" fill="#50BC8E"/>
<path d="M426.564 220.476C426.564 220.476 430.887 225.667 439.429 229.641C439.429 229.641 433.711 232.686 419.395 234.719L417.429 221.752L426.564 220.476Z" fill="#50BC8E"/>
<path d="M415.844 210.93L417.596 222.524C417.596 222.524 408.148 223.896 402.199 223.037C402.199 223.037 407.415 218.569 411.046 212.05L415.844 210.93Z" fill="#6ED3A5"/>
<path d="M415.844 210.93L417.596 222.524C417.596 222.524 427.044 221.151 432.52 218.66C432.52 218.66 426.312 215.825 420.953 210.607L415.844 210.93Z" fill="#6ED3A5"/>
<path d="M415.986 211.846L414.023 197.988C414.023 197.988 411.712 206.366 407.841 212.547C407.697 212.523 410.804 212.603 415.986 211.846Z" fill="#85E5B7"/>
<path d="M415.986 211.846L414.023 197.988C414.023 197.988 418.726 205.324 424.158 210.109C423.989 210.229 421.144 211.234 415.986 211.846Z" fill="#85E5B7"/>
<path d="M476.007 284.375L477.988 284.153L479.825 283.903L477.722 267.399L473.904 267.871L476.007 284.375Z" fill="#A97C50"/>
<path d="M475.768 267.586L473.878 267.823L475.962 284.399L477.852 284.162L475.768 267.586Z" fill="#C49A6C"/>
<path d="M459.611 259.056C459.611 259.056 455.336 265.109 447.722 270.681C447.722 270.681 455.658 273.671 476.268 271.15L474.504 256.798L459.611 259.056Z" fill="#1F9367"/>
<path d="M489.405 255.287C489.405 255.287 495.061 260.084 503.78 263.67C503.78 263.67 496.878 268.63 476.268 271.15L474.504 256.798L489.405 255.287Z" fill="#1F9367"/>
<path d="M461.586 250.182C461.586 250.182 458.221 255.363 452.121 260.028C452.121 260.028 458.473 262.719 474.833 260.589L473.238 248.505L461.586 250.182Z" fill="#35A577"/>
<path d="M485.266 247.198C485.266 247.198 489.852 251.345 496.725 254.433C496.725 254.433 491.165 258.603 474.832 260.589L473.237 248.505L485.266 247.198Z" fill="#35A577"/>
<path d="M464.633 239.573C464.633 239.573 462.331 244.656 456.437 249.807C456.437 249.807 461.594 250.93 473.65 249.478L472.269 238.628L464.633 239.573Z" fill="#50BC8E"/>
<path d="M479.761 237.657C479.761 237.657 483.257 242.046 490.22 245.449C490.22 245.449 485.446 247.829 473.534 249.307L472.153 238.457L479.761 237.657Z" fill="#50BC8E"/>
<path d="M470.993 229.588L472.16 239.204C472.16 239.204 464.381 240.121 459.286 239.457C459.286 239.457 463.702 235.817 466.806 230.438L470.993 229.588Z" fill="#6ED3A5"/>
<path d="M470.993 229.588L472.16 239.205C472.16 239.205 479.939 238.288 484.632 236.34C484.632 236.34 479.432 233.867 475.188 229.486L470.993 229.588Z" fill="#6ED3A5"/>
<path d="M471.145 230.363L469.729 218.91C469.729 218.91 467.676 225.83 464.339 230.867C464.339 230.867 466.841 231.041 471.145 230.363Z" fill="#85E5B7"/>
<path d="M471.146 230.363L469.729 218.91C469.729 218.91 473.475 225.135 477.944 229.111C477.944 229.111 475.423 229.828 471.146 230.363Z" fill="#85E5B7"/>
<path d="M315.424 342.398L317.112 342.094L318.775 341.935L316.827 328.215L313.475 328.679L315.424 342.398Z" fill="#A97C50"/>
<path d="M315.192 328.446L313.596 328.672L315.553 342.456L317.149 342.229L315.192 328.446Z" fill="#C49A6C"/>
<path d="M301.613 321.578C301.613 321.578 298.212 326.643 291.873 331.499C291.873 331.499 298.437 333.969 315.508 331.557L313.839 319.67L301.613 321.578Z" fill="#1F9367"/>
<path d="M326.159 318.075C326.159 318.075 330.98 322.029 338.216 324.911C338.216 324.911 332.435 329.12 315.508 331.557L313.839 319.67L326.159 318.075Z" fill="#1F9367"/>
<path d="M303.051 314.093C303.051 314.093 300.378 318.391 295.368 322.435C295.368 322.435 300.657 324.537 314.232 322.563L312.842 312.509L303.051 314.093Z" fill="#35A577"/>
<path d="M322.702 311.382C322.702 311.382 326.587 314.729 332.403 317.218C332.403 317.218 327.927 320.759 314.377 322.588L312.986 312.534L322.702 311.382Z" fill="#35A577"/>
<path d="M305.46 305.289C305.46 305.289 303.533 309.567 298.788 313.805C298.788 313.805 303.096 314.696 313.006 313.281L311.73 304.287L305.46 305.289Z" fill="#50BC8E"/>
<path d="M317.95 303.574C317.95 303.574 320.893 307.204 326.829 309.863C326.829 309.863 322.915 311.865 313.005 313.281L311.73 304.287L317.95 303.574Z" fill="#50BC8E"/>
<path d="M310.639 296.812L311.775 304.89C311.775 304.89 305.216 305.842 301.148 305.289C301.148 305.289 304.658 302.176 307.212 297.709L310.639 296.812Z" fill="#6ED3A5"/>
<path d="M310.639 296.812L311.775 304.89C311.775 304.89 318.333 303.938 322.028 302.344C322.028 302.344 317.75 300.417 314.06 296.807L310.639 296.812Z" fill="#6ED3A5"/>
<path d="M310.804 297.584L309.483 287.988C309.483 287.988 307.885 293.81 305.236 297.963C305.092 297.938 307.163 297.998 310.804 297.584Z" fill="#67F7B2"/>
<path d="M310.803 297.584L309.482 287.988C309.482 287.988 312.755 293.162 316.375 296.314C316.351 296.458 314.324 297.001 310.803 297.584Z" fill="#67F7B2"/>
<path d="M98.6094 250.659L103.885 256.814L104.764 255.495L99.4887 249.78L98.6094 250.659Z" fill="#A97C50"/>
<path d="M102.273 267.219H106.523C106.523 267.219 106.523 262.383 106.523 261.064C106.523 259.745 110.041 253.004 110.041 253.004L109.308 252.418L106.67 257.547L106.23 251.392L104.032 251.099L102.273 267.219Z" fill="#A97C50"/>
<path d="M120.299 240.694C120.299 240.694 118.98 234.978 113.411 234.685C112.092 232.78 109.747 230.728 105.791 230.875C96.4114 231.168 96.2649 238.642 96.2649 238.642C96.2649 238.642 91.4287 242.599 94.0666 247.728C96.7045 253.004 103.006 251.978 103.006 251.978C103.006 251.978 106.67 254.176 110.92 252.857C112.532 253.59 116.635 254.762 120.592 250.952C125.428 246.116 120.299 240.694 120.299 240.694Z" fill="#35A577"/>
<path d="M74.8691 256.961L80.7311 263.995L81.9035 262.383L75.895 256.081L74.8691 256.961Z" fill="#A97C50"/>
<path d="M78.9727 275.719H83.8088C83.8088 275.719 83.8088 270.15 83.8088 268.685C83.8088 267.219 87.7656 259.452 87.7656 259.452L86.8863 258.866L83.8088 264.728L83.3691 257.84L80.8778 257.547L78.9727 275.719Z" fill="#A97C50"/>
<path d="M99.3433 245.676C99.3433 245.676 97.8778 239.228 91.4296 238.789C89.9641 236.59 87.3262 234.245 82.7832 234.539C72.2316 234.978 71.9385 243.332 71.9385 243.332C71.9385 243.332 66.5162 247.728 69.4472 253.59C72.3782 259.452 79.5591 258.426 79.5591 258.426C79.5591 258.426 83.6625 260.917 88.4986 259.305C90.2572 260.038 95.0933 261.504 99.3433 257.254C105.059 251.831 99.3433 245.676 99.3433 245.676Z" fill="#50BC8E"/>
<path d="M251.84 283.837L255.504 293.07L257.116 291.751L253.305 283.251L251.84 283.837Z" fill="#A97C50"/>
<path d="M249.348 304.501L254.184 306.26C254.184 306.26 256.089 300.691 256.675 299.079C257.261 297.613 263.856 291.165 263.856 291.165L263.123 290.286L257.994 295.268L260.046 288.087L257.554 286.915L249.348 304.501Z" fill="#A97C50"/>
<path d="M280.856 281.053C280.856 281.053 281.589 273.872 275.287 271.381C274.555 268.596 272.649 265.372 268.106 263.907C257.115 260.536 254.038 269.036 254.038 269.036C254.038 269.036 246.857 271.527 247.883 278.708C248.762 285.743 256.382 287.208 256.382 287.208C256.382 287.208 259.753 291.165 265.175 291.311C266.787 292.777 271.037 295.854 277.046 293.07C284.52 289.406 280.856 281.053 280.856 281.053Z" fill="#35A577"/>
<path d="M232.817 265.454L225.224 296.517L196.696 290.351L201.996 255.523L232.817 265.454Z" fill="#F3F3F3"/>
<path d="M204.522 245.791L233.249 251.929L234.496 266.53L200.532 259.708L204.522 245.791Z" fill="#EB645B"/>
<path d="M212.751 250.302L217.18 251.164" stroke="#AC5247" stroke-width="0.6417" stroke-miterlimit="10"/>
<path d="M223.788 252.482L228.144 253.395" stroke="#AC5247" stroke-width="0.6417" stroke-miterlimit="10"/>
<path d="M211.188 258.273L215.606 259.197" stroke="#AC5247" stroke-width="0.6417" stroke-miterlimit="10"/>
<path d="M222.15 260.504L226.58 261.366" stroke="#AC5247" stroke-width="0.6417" stroke-miterlimit="10"/>
<path d="M217.764 255.46L222.193 256.321" stroke="#AC5247" stroke-width="0.6417" stroke-miterlimit="10"/>
<path d="M207.978 253.505L212.407 254.367" stroke="#AC5247" stroke-width="0.6417" stroke-miterlimit="10"/>
<path d="M128.325 245.809L124.411 277.599L153.254 282.016L160.743 247.582L128.325 245.809Z" fill="#F3F3F3"/>
<path d="M161.78 237.518L132.738 233.128L126.365 246.294L160.593 252.004L161.78 237.518Z" fill="#EB645B"/>
<path d="M131.91 256.383L138.25 257.395L139.356 250.889L133.017 249.877L131.91 256.383Z" fill="white" stroke="#A4A4A5" stroke-width="0.8116" stroke-miterlimit="10"/>
<path d="M138.93 253.972L132.591 252.96" stroke="#A4A4A5" stroke-width="0.8116" stroke-miterlimit="10"/>
<path d="M135.956 250.406L134.923 256.861" stroke="#A4A4A5" stroke-width="0.8116" stroke-miterlimit="10"/>
<path d="M144.441 258.51L150.718 259.51L151.825 253.004L145.485 251.992L144.441 258.51Z" fill="white" stroke="#A4A4A5" stroke-width="0.8116" stroke-miterlimit="10"/>
<path d="M151.411 256.024L145.134 255.024" stroke="#A4A4A5" stroke-width="0.8116" stroke-miterlimit="10"/>
<path d="M148.487 252.533L147.392 258.976" stroke="#A4A4A5" stroke-width="0.8116" stroke-miterlimit="10"/>
<path d="M205.079 273.55L211.419 274.562L212.525 268.056L206.186 267.044L205.079 273.55Z" fill="white" stroke="#A4A4A5" stroke-width="0.8116" stroke-miterlimit="10"/>
<path d="M212.099 271.138L205.76 270.126" stroke="#A4A4A5" stroke-width="0.8116" stroke-miterlimit="10"/>
<path d="M209.113 267.635L208.081 274.09" stroke="#A4A4A5" stroke-width="0.8116" stroke-miterlimit="10"/>
<path d="M217.087 275.711L223.364 276.712L224.47 270.206L218.131 269.194L217.087 275.711Z" fill="white" stroke="#A4A4A5" stroke-width="0.8116" stroke-miterlimit="10"/>
<path d="M224.044 273.289L217.768 272.288" stroke="#A4A4A5" stroke-width="0.8116" stroke-miterlimit="10"/>
<path d="M221.121 269.797L220.026 276.24" stroke="#A4A4A5" stroke-width="0.8116" stroke-miterlimit="10"/>
<path d="M202.979 284.132L209.319 285.144L210.363 278.627L204.086 277.626L202.979 284.132Z" fill="white" stroke="#A4A4A5" stroke-width="0.8116" stroke-miterlimit="10"/>
<path d="M210.011 281.658L203.672 280.646" stroke="#A4A4A5" stroke-width="0.8116" stroke-miterlimit="10"/>
<path d="M207.025 278.155L205.93 284.599" stroke="#A4A4A5" stroke-width="0.8116" stroke-miterlimit="10"/>
<path d="M214.437 286.13L220.777 287.143L221.821 280.625L215.544 279.624L214.437 286.13Z" fill="white" stroke="#A4A4A5" stroke-width="0.8116" stroke-miterlimit="10"/>
<path d="M221.458 283.719L215.118 282.707" stroke="#A4A4A5" stroke-width="0.8116" stroke-miterlimit="10"/>
<path d="M218.473 280.216L217.377 286.66" stroke="#A4A4A5" stroke-width="0.8116" stroke-miterlimit="10"/>
<path d="M129.943 267.312L136.282 268.324L137.4 261.755L131.061 260.743L129.943 267.312Z" fill="white" stroke="#A4A4A5" stroke-width="0.8116" stroke-miterlimit="10"/>
<path d="M136.974 264.838L130.635 263.826" stroke="#A4A4A5" stroke-width="0.8116" stroke-miterlimit="10"/>
<path d="M133.988 261.335L132.956 267.79" stroke="#A4A4A5" stroke-width="0.8116" stroke-miterlimit="10"/>
<path d="M143.043 269.154L149.382 270.166L150.489 263.66L144.149 262.648L143.043 269.154Z" fill="white" stroke="#A4A4A5" stroke-width="0.8116" stroke-miterlimit="10"/>
<path d="M150.063 266.742L143.735 265.668" stroke="#A4A4A5" stroke-width="0.8116" stroke-miterlimit="10"/>
<path d="M147.089 263.177L146.056 269.632" stroke="#A4A4A5" stroke-width="0.8116" stroke-miterlimit="10"/>
<path d="M152.433 238.865L148.043 238.14" stroke="#AC5247" stroke-width="0.6417" stroke-miterlimit="10"/>
<path d="M141.403 237.009L136.962 236.209" stroke="#AC5247" stroke-width="0.6417" stroke-miterlimit="10"/>
<path d="M151.119 246.881L146.667 246.144" stroke="#AC5247" stroke-width="0.6417" stroke-miterlimit="10"/>
<path d="M140.027 245.013L135.637 244.288" stroke="#AC5247" stroke-width="0.6417" stroke-miterlimit="10"/>
<path d="M145.948 241.889L141.559 241.163" stroke="#AC5247" stroke-width="0.6417" stroke-miterlimit="10"/>
<path d="M155.79 243.531L151.401 242.806" stroke="#AC5247" stroke-width="0.6417" stroke-miterlimit="10"/>
<path d="M194.281 176.767L210.755 186.051L192.109 187.401L194.281 176.767Z" fill="#8FCEC0"/>
<path d="M189.282 200.238L194.282 176.767" stroke="#A4A4A5" stroke-width="1.0544" stroke-miterlimit="10"/>
<path d="M152.077 281.74L161.912 223.873L188.788 200.471L209.281 229.756L198.259 290.633L152.077 281.74Z" fill="white"/>
<path d="M158.879 222.424L161.929 226.648L188.299 202.833L208.895 232.974L213.273 230.538L189.877 196.218L158.879 222.424Z" fill="#EB5F48"/>
<path d="M185.784 288.194L190.744 256.334L170.543 253.408L165.69 284.319" stroke="#B39A82" stroke-width="0.6178" stroke-miterlimit="10"/>
<path d="M168.709 251.401L168.326 256.039L192.64 260.866L193.169 255.417L168.709 251.401Z" fill="#EE7E63"/>
<path d="M179.801 258.297L174.441 286.281" stroke="#B39A82" stroke-width="0.6178" stroke-miterlimit="10"/>
<path d="M174.697 265.209L173.187 272.802L174.558 273.074L176.068 265.482L174.697 265.209Z" fill="#A5937A"/>
<path d="M180.124 266.265L178.614 273.857L180.048 274.142L181.558 266.55L180.124 266.265Z" fill="#A5937A"/>
<path d="M191.396 222.217C190.738 225.515 187.514 227.643 184.21 226.984C180.907 226.325 178.774 223.104 179.433 219.806C180.091 216.507 183.315 214.38 186.619 215.039C189.86 215.686 192.054 218.918 191.396 222.217Z" fill="#D3EDFB" stroke="#988CC2" stroke-width="1.5608" stroke-miterlimit="10"/>
<path d="M185.175 220.904L181.692 218.729" stroke="#F19CC1" stroke-width="0.6417" stroke-miterlimit="10"/>
<path d="M185.363 220.937L186.376 216.026" stroke="#F19CC1" stroke-width="0.6417" stroke-miterlimit="10"/>
<path d="M186.165 221.146C186.086 221.583 185.643 221.891 185.205 221.812C184.768 221.733 184.46 221.291 184.538 220.854C184.617 220.416 185.06 220.109 185.498 220.188C185.987 220.341 186.243 220.709 186.165 221.146Z" fill="#988CC2"/>
<path d="M169.032 237.404L175.372 238.416L176.416 231.899L170.139 230.898L169.032 237.404Z" fill="white" stroke="#A4A4A5" stroke-width="0.8116" stroke-miterlimit="10"/>
<path d="M176.052 234.993L169.713 233.981" stroke="#A4A4A5" stroke-width="0.8116" stroke-miterlimit="10"/>
<path d="M173.078 231.427L171.983 237.871" stroke="#A4A4A5" stroke-width="0.8116" stroke-miterlimit="10"/>
<path d="M180.563 239.351L186.84 240.351L187.958 233.783L181.618 232.771L180.563 239.351Z" fill="white" stroke="#A4A4A5" stroke-width="0.8116" stroke-miterlimit="10"/>
<path d="M187.532 236.866L181.192 235.853" stroke="#A4A4A5" stroke-width="0.8116" stroke-miterlimit="10"/>
<path d="M184.608 233.374L183.513 239.817" stroke="#A4A4A5" stroke-width="0.8116" stroke-miterlimit="10"/>
<path d="M191.839 241.638L198.116 242.639L199.222 236.133L192.945 235.132L191.839 241.638Z" fill="white" stroke="#A4A4A5" stroke-width="0.8116" stroke-miterlimit="10"/>
<path d="M198.796 239.216L192.52 238.215" stroke="#A4A4A5" stroke-width="0.8116" stroke-miterlimit="10"/>
<path d="M195.873 235.724L194.778 242.167" stroke="#A4A4A5" stroke-width="0.8116" stroke-miterlimit="10"/>
<path d="M167.723 247.549L174.062 248.561L175.106 242.043L168.84 240.98L167.723 247.549Z" fill="white" stroke="#A4A4A5" stroke-width="0.8116" stroke-miterlimit="10"/>
<path d="M174.754 245.075L168.415 244.063" stroke="#A4A4A5" stroke-width="0.8116" stroke-miterlimit="10"/>
<path d="M171.769 241.572L170.673 248.015" stroke="#A4A4A5" stroke-width="0.8116" stroke-miterlimit="10"/>
<path d="M179.265 249.433L185.542 250.434L186.648 243.928L180.309 242.915L179.265 249.433Z" fill="white" stroke="#A4A4A5" stroke-width="0.8116" stroke-miterlimit="10"/>
<path d="M186.222 247.01L179.883 245.998" stroke="#A4A4A5" stroke-width="0.8116" stroke-miterlimit="10"/>
<path d="M183.299 243.518L182.204 249.962" stroke="#A4A4A5" stroke-width="0.8116" stroke-miterlimit="10"/>
<path d="M190.529 251.783L196.806 252.783L197.913 246.277L191.636 245.277L190.529 251.783Z" fill="white" stroke="#A4A4A5" stroke-width="0.8116" stroke-miterlimit="10"/>
<path d="M197.487 249.36L191.221 248.297" stroke="#A4A4A5" stroke-width="0.8116" stroke-miterlimit="10"/>
<path d="M194.575 245.806L193.48 252.249" stroke="#A4A4A5" stroke-width="0.8116" stroke-miterlimit="10"/>
<path d="M250.244 339.657C249.816 341.447 247.989 342.543 246.197 342.115L244.095 341.608C242.302 341.18 241.204 339.355 241.632 337.565L245.304 322.749C245.732 320.96 247.559 319.864 249.352 320.292L251.454 320.799C253.246 321.227 254.345 323.052 253.917 324.842L250.244 339.657Z" fill="#F1C57F"/>
<path d="M202.127 328.902L201.075 333.141L245.692 344.197L246.744 339.958L202.127 328.902Z" fill="#F5A54C"/>
<path d="M207.405 307.596L206.37 311.767L250.987 322.823L252.022 318.652L207.405 307.596Z" fill="#EC739F"/>
<path d="M204.265 320.433L202.151 328.946L246.768 340.007L248.881 331.494L204.265 320.433Z" fill="#EF804C"/>
<path d="M206.367 311.785L204.229 320.401L248.847 331.457L250.984 322.841L206.367 311.785Z" fill="#E9597D"/>
<path d="M207.204 321.127L205.302 316.131L205.307 316.096L209.326 312.568L207.454 307.612L207.419 307.607L185.101 315.657L201.073 333.145L201.108 333.15L205.083 329.686L203.18 324.691L203.185 324.656L207.204 321.127Z" fill="#F6E38A"/>
<path d="M193.227 324.545L196.466 311.554L185.1 315.657L193.227 324.545Z" fill="black"/>
<path d="M218.178 339.551C217.485 342.726 214.324 344.703 211.179 344.015C207.998 343.321 206.017 340.164 206.74 337.028C207.433 333.853 210.594 331.876 213.74 332.565C216.885 333.253 218.866 336.41 218.178 339.551Z" fill="#555555"/>
<path d="M214.344 338.695C214.123 339.767 213.073 340.402 212 340.181C210.926 339.96 210.289 338.911 210.51 337.839C210.731 336.768 211.782 336.132 212.855 336.353C213.923 336.609 214.595 337.663 214.344 338.695Z" fill="#777777"/>
<path d="M242.496 344.975C241.803 348.15 238.642 350.127 235.497 349.438C232.316 348.745 230.335 345.588 231.023 342.447C231.716 339.272 234.877 337.295 238.023 337.984C241.238 338.682 243.219 341.839 242.496 344.975Z" fill="#555555"/>
<path d="M238.696 344.124C238.475 345.196 237.425 345.831 236.351 345.61C235.278 345.389 234.641 344.34 234.862 343.268C235.083 342.197 236.133 341.561 237.206 341.782C238.275 342.038 238.912 343.087 238.696 344.124Z" fill="#777777"/>
<path d="M80.6353 290.078C80.4162 291.545 81.4503 292.915 82.9173 293.134L84.6392 293.387C86.1061 293.606 87.4756 292.571 87.6947 291.103L89.4126 278.914C89.6317 277.446 88.5976 276.076 87.1306 275.857L85.4088 275.604C83.9418 275.385 82.5723 276.42 82.3532 277.888L80.6353 290.078Z" fill="#80B1FA"/>
<path d="M119.794 296.505L119.304 299.993L82.667 294.844L83.1577 291.355L119.794 296.505Z" fill="#F5C64C"/>
<path d="M122.267 278.977L121.784 282.409L85.1474 277.259L85.6302 273.827L122.267 278.977Z" fill="#57E3EC"/>
<path d="M120.747 289.527L119.763 296.531L83.1251 291.385L84.1097 284.38L120.747 289.527Z" fill="#44BAC1"/>
<path d="M121.78 282.423L120.783 289.512L84.1465 284.363L85.1437 277.274L121.78 282.423Z" fill="#6777C8"/>
<path d="M118.345 289.161L121.269 285.996L121.276 285.968L119.337 282.119L122.227 278.974L122.254 278.981L136.493 291.718L119.304 299.997L119.277 299.99L117.352 296.203L120.276 293.038L120.283 293.01L118.345 289.161Z" fill="#BBDCFA"/>
<path d="M127.751 295.923L129.243 285.229L136.493 291.718L127.751 295.923Z" fill="black"/>
<path d="M104.609 299.645C104.17 302.229 105.935 304.659 108.49 305.09C111.073 305.528 113.502 303.762 113.907 301.198C114.345 298.614 112.58 296.184 110.025 295.753C107.47 295.322 105.04 297.088 104.609 299.645Z" fill="#555555"/>
<path d="M107.729 300.158C107.571 301.026 108.164 301.818 109.032 301.975C109.9 302.133 110.691 301.539 110.849 300.671C111.006 299.803 110.414 299.011 109.546 298.854C108.671 298.724 107.852 299.31 107.729 300.158Z" fill="#777777"/>
<path d="M84.8203 296.387C84.3818 298.971 86.1469 301.401 88.7021 301.832C91.2849 302.27 93.7143 300.504 94.1459 297.947C94.5844 295.363 92.8193 292.933 90.2641 292.502C87.6538 292.057 85.2244 293.823 84.8203 296.387Z" fill="#555555"/>
<path d="M87.9134 296.893C87.7558 297.761 88.3487 298.553 89.2165 298.71C90.0843 298.868 90.8757 298.275 91.0334 297.406C91.191 296.538 90.5981 295.746 89.7303 295.589C88.8556 295.459 88.0642 296.052 87.9134 296.893Z" fill="#777777"/>
<path d="M112.153 89.4437L111.43 89.5615L118.971 135.848L119.694 135.73L112.153 89.4437Z" fill="#A97C50"/>
<path d="M136.984 89.3762L129.476 135.667L130.199 135.784L137.707 89.4935L136.984 89.3762Z" fill="#A97C50"/>
<path d="M90.9297 85.2567L90.2656 85.5664L114.177 136.834L114.841 136.524L90.9297 85.2567Z" fill="#A97C50"/>
<path d="M158.235 85.0804L134.442 136.405L135.107 136.713L158.9 85.3885L158.235 85.0804Z" fill="#A97C50"/>
<path d="M79.4296 29.1085C69.0246 37.1687 67.2661 50.2116 68.7315 59.7373C71.6625 78.4956 86.7571 91.6851 124.567 119.236V37.3153C113.869 20.0224 91.1536 20.0224 79.4296 29.1085Z" fill="#F469A8"/>
<path d="M180.402 59.7373C181.867 50.2116 180.109 37.1687 169.704 29.1085C157.98 20.169 135.265 20.0225 124.566 37.4618V119.236C162.376 91.6851 177.617 78.4956 180.402 59.7373Z" fill="#F469A8"/>
<path d="M133.506 155.581H115.774C114.015 155.581 112.55 154.115 112.55 152.357V136.676H136.73V152.357C136.73 154.262 135.265 155.581 133.506 155.581Z" fill="#A97C50"/>
<path d="M137.317 137.409H111.817C111.084 137.409 110.352 136.822 110.352 135.943C110.352 135.21 110.938 134.478 111.817 134.478H137.317C138.049 134.478 138.782 135.064 138.782 135.943C138.782 136.822 138.196 137.409 137.317 137.409Z" fill="#C49A6C"/>
<path d="M31.5727 137.428L30.9941 137.522L36.4141 170.79L36.9927 170.696L31.5727 137.428Z" fill="#A97C50"/>
<path d="M49.2761 137.497L43.8662 170.765L44.4448 170.859L49.8547 137.591L49.2761 137.497Z" fill="#A97C50"/>
<path d="M32.9734 171.555L15.8271 134.624L16.2668 134.478L33.4131 171.261L32.9734 171.555Z" fill="#A97C50"/>
<path d="M64.5004 134.496L47.3818 171.303L47.9133 171.55L65.0319 134.743L64.5004 134.496Z" fill="#A97C50"/>
<path d="M8.06038 94.1764C0.586369 99.8919 -0.732576 109.418 0.439819 116.159C2.34496 129.641 13.1896 139.167 40.4478 158.951V100.038C32.6807 87.5817 16.4137 87.7283 8.06038 94.1764Z" fill="#7681E8"/>
<path d="M80.6028 116.159C81.6286 109.271 80.4562 99.8919 72.9822 94.1764C64.4823 87.7283 48.0688 87.5817 40.4482 100.038V158.805C67.5599 139.167 78.5511 129.641 80.6028 116.159Z" fill="#7681E8"/>
<path d="M46.7499 185.037H34.0001C32.6811 185.037 31.6553 184.011 31.6553 182.692V171.408H48.9481V182.692C49.0946 184.011 48.0688 185.037 46.7499 185.037Z" fill="#A97C50"/>
<path d="M49.6805 171.994H31.2153C30.6291 171.994 30.1895 171.554 30.1895 170.968C30.1895 170.382 30.6291 169.942 31.2153 169.942H49.534C50.1202 169.942 50.5598 170.382 50.5598 170.968C50.7064 171.554 50.2667 171.994 49.6805 171.994Z" fill="#C49A6C"/>
<path d="M363.313 55.7453C363.02 55.5988 362.874 55.4522 362.727 55.1591C362.581 54.866 362.581 54.5729 362.727 54.2798C362.874 53.9867 363.02 53.8402 363.313 53.6936L366.83 52.5212L365.658 49.0041C365.512 48.711 365.512 48.4179 365.658 48.1248C365.805 47.8317 365.951 47.6851 366.244 47.5386C366.83 47.392 367.417 47.6851 367.71 48.2713L368.882 51.7885L372.399 50.6161C372.986 50.4696 373.572 50.7626 373.865 51.3488C374.011 51.6419 374.011 51.935 373.865 52.2281C373.718 52.5212 373.572 52.6678 373.279 52.8143L370.348 53.8402L369.761 53.9867L370.934 57.5039C371.08 57.797 370.934 58.0901 370.934 58.3832C370.641 58.9694 370.055 59.116 369.468 58.9694C369.175 58.8229 369.029 58.6763 368.882 58.3832L367.71 54.866L364.193 56.0384C363.753 55.8919 363.46 55.8919 363.313 55.7453Z" fill="white"/>
<path d="M378.701 29.2199C378.555 29.2199 378.555 29.0734 378.408 28.9268C378.408 28.7803 378.408 28.6337 378.408 28.6337C378.408 28.4872 378.555 28.4872 378.701 28.3406L380.167 27.7544L379.581 26.289C379.581 26.1424 379.581 25.9959 379.581 25.9959C379.581 25.8493 379.727 25.8493 379.874 25.7028C380.167 25.5562 380.46 25.7028 380.46 25.9959L381.046 27.4613L382.512 26.8751C382.805 26.7286 383.098 26.8752 383.098 27.1682C383.098 27.3148 383.098 27.4613 383.098 27.4613C383.098 27.6079 382.951 27.6079 382.805 27.7544L381.486 28.1941L381.193 28.3406L381.779 29.8061C381.779 29.9527 381.779 30.0992 381.779 30.0992C381.632 30.3923 381.339 30.3923 381.193 30.2458C381.046 30.2458 381.046 30.0992 380.9 29.9527L380.313 28.4872L378.848 29.0734C378.994 29.3665 378.848 29.3665 378.701 29.2199Z" fill="white"/>
<path d="M490.812 27.4613C490.665 27.4613 490.519 27.3147 490.519 27.1682C490.519 27.0216 490.519 26.8751 490.519 26.7285C490.519 26.582 490.665 26.4354 490.812 26.4354L492.717 25.7027L492.131 23.7976C492.131 23.651 492.131 23.5045 492.131 23.3579C492.131 23.2114 492.277 23.0648 492.424 23.0648C492.717 22.9183 493.01 23.0648 493.156 23.3579L493.743 25.2631L495.648 24.5303C495.941 24.3838 496.234 24.5303 496.381 24.8234C496.381 24.97 496.381 25.1165 496.381 25.2631C496.381 25.4096 496.234 25.5562 496.087 25.5562L494.475 26.1423L494.182 26.2889L494.915 28.194C494.915 28.3406 494.915 28.4871 494.915 28.6337C494.768 28.9268 494.475 29.0733 494.182 28.9268C494.036 28.9268 493.889 28.7802 493.889 28.6337L493.156 26.7285L491.251 27.4613C491.105 27.4613 490.958 27.4613 490.812 27.4613Z" fill="white"/>
<path d="M509.569 20.4271C509.423 20.2805 509.13 20.134 509.13 19.9874C508.983 19.6943 509.13 19.5478 509.13 19.2547C509.276 19.1082 509.423 18.8151 509.569 18.8151L512.5 17.7892L511.474 14.8582C511.328 14.5651 511.328 14.4186 511.474 14.1255C511.621 13.9789 511.767 13.6858 511.914 13.6858C512.354 13.5393 512.94 13.8324 513.086 14.272L514.112 17.203L517.043 16.1772C517.483 16.0306 518.069 16.3237 518.216 16.7634C518.362 17.0565 518.216 17.203 518.216 17.4961C518.069 17.7892 517.923 17.9358 517.629 17.9358L515.138 18.8151L514.698 18.9616L515.724 21.8926C515.724 22.0391 515.724 22.3322 515.724 22.6253C515.578 23.065 514.992 23.2115 514.552 23.065C514.405 22.9184 514.112 22.7719 514.112 22.6253L513.086 19.6943L510.155 20.7202C510.009 20.5736 509.716 20.5736 509.569 20.4271Z" fill="white"/>
<path d="M491.544 92.8223C491.397 92.8223 491.251 92.6757 491.251 92.5292C491.251 92.3826 491.251 92.2361 491.251 92.0895C491.251 91.943 491.397 91.7964 491.544 91.7964L493.449 91.0637L492.716 89.1586C492.716 89.012 492.716 88.8655 492.716 88.7189C492.716 88.5724 492.863 88.4258 493.01 88.4258C493.303 88.2793 493.596 88.4258 493.742 88.8655L494.475 90.7706L496.38 90.0378C496.673 89.8913 497.113 90.0379 497.113 90.331C497.113 90.4775 497.113 90.624 497.113 90.7706C497.113 90.9171 496.966 91.0637 496.82 91.0637L495.208 91.6499L494.915 91.7964L495.647 93.7016C495.647 93.8481 495.647 93.9947 495.647 94.1412C495.501 94.4343 495.208 94.5809 494.915 94.4343C494.768 94.2878 494.622 94.2878 494.622 94.1412L493.889 92.2361L491.984 92.9688C491.837 92.9688 491.691 92.9688 491.544 92.8223Z" fill="white"/>
<path d="M376.503 84.1761C377.089 85.7881 378.701 86.5209 380.313 85.9347C381.925 85.3485 382.658 83.7364 382.072 82.1244C381.485 80.5124 379.873 79.7796 378.261 80.3658C376.796 80.952 376.063 82.7106 376.503 84.1761ZM377.089 84.0295C376.649 82.7106 377.382 81.3916 378.554 80.952C379.873 80.5123 381.192 81.2451 381.632 82.4175C382.072 83.7364 381.339 85.0554 380.166 85.495C378.847 85.9347 377.529 85.3485 377.089 84.0295Z" fill="white"/>
<path d="M473.811 106.598C474.251 107.771 475.423 108.357 476.595 107.917C477.768 107.477 478.354 106.305 477.914 105.133C477.475 103.96 476.302 103.374 475.13 103.814C473.958 104.253 473.371 105.426 473.811 106.598ZM474.251 106.452C473.958 105.572 474.397 104.546 475.276 104.253C476.156 103.96 477.182 104.4 477.475 105.279C477.768 106.158 477.328 107.184 476.449 107.477C475.423 107.771 474.544 107.331 474.251 106.452Z" fill="white"/>
<path d="M509.57 37.5734C510.156 39.332 512.061 40.2113 513.819 39.6251C515.578 39.0389 516.457 37.1337 515.871 35.3751C515.285 33.6165 513.38 32.7372 511.621 33.3234C509.863 33.9096 508.983 35.8148 509.57 37.5734ZM510.302 37.2803C509.863 35.9613 510.595 34.4958 511.914 33.9096C513.233 33.47 514.699 34.2027 515.285 35.5217C515.725 36.8406 514.992 38.3061 513.673 38.8923C512.207 39.4785 510.742 38.7458 510.302 37.2803Z" fill="white"/>
<path d="M363.313 23.9441C364.339 26.7286 367.27 28.1941 370.054 27.1682C372.839 26.1424 374.304 23.2114 373.279 20.4269C372.253 17.6425 369.322 16.177 366.537 17.2029C363.753 18.2287 362.287 21.1597 363.313 23.9441ZM364.339 23.651C363.606 21.4528 364.779 19.108 366.977 18.3753C369.175 17.6425 371.52 18.8149 372.253 21.0131C372.985 23.2114 371.813 25.5562 369.615 26.2889C367.563 26.8751 365.072 25.7027 364.339 23.651Z" fill="white"/>
<path d="M532.724 22.0391C534.189 26.4356 539.026 28.7804 543.569 27.1684C547.965 25.7029 550.31 20.8668 548.844 16.4703C547.379 12.0738 542.543 9.729 538.146 11.341C533.457 12.8065 531.112 17.6427 532.724 22.0391ZM533.75 21.746C532.431 17.9358 534.482 13.6858 538.293 12.3669C542.103 11.0479 546.353 13.0996 547.672 16.9099C548.991 20.7202 546.939 24.9701 543.129 26.2891C539.319 27.608 535.069 25.5563 533.75 21.746Z" fill="white"/>
<path d="M460.622 8.84962C461.795 12.0737 465.312 13.8323 468.536 12.6599C471.76 11.4875 473.519 7.97032 472.346 4.74624C471.174 1.52215 467.657 -0.23644 464.433 0.935955C461.208 2.10835 459.45 5.62553 460.622 8.84962ZM462.381 8.26342C461.648 6.06518 462.82 3.57384 465.019 2.8411C467.217 2.10835 469.708 3.28074 470.441 5.47898C471.174 7.67722 470.001 10.1686 467.803 10.9013C465.605 11.6341 463.26 10.4617 462.381 8.26342Z" fill="white"/>
<g clip-path="url(#clip1_1650_1230)">
<path d="M471.32 89.1891C471.493 87.6342 471.55 86.0793 471.493 84.5244C471.435 83.1423 471.263 81.7601 471.033 80.4356C471.091 79.9173 471.091 79.3414 471.091 78.8231C471.148 75.7708 470.746 72.661 469.884 69.6664C469.482 68.1691 468.908 66.7293 468.276 65.3472C467.702 64.0226 467.012 62.6981 466.208 61.4887C464.657 58.9548 462.647 56.7088 460.349 54.8083C459.201 53.8293 457.994 52.9655 456.673 52.1592C455.352 51.353 453.974 50.7195 452.48 50.1436C450.01 49.1646 447.368 48.7615 444.668 48.7615C444.266 48.7615 443.922 48.7615 443.519 48.7615C442.026 48.8191 440.59 48.9918 439.154 49.3374C437.144 49.1646 435.076 49.2222 433.123 49.4525C431.572 49.6253 430.021 49.9133 428.47 50.374C426.919 50.7771 425.426 51.353 423.932 51.9865C421.175 53.1383 418.533 54.6356 416.063 56.3633C413.593 58.0909 411.238 60.1066 409.17 62.3525C409.055 62.4677 408.941 62.6405 408.768 62.7557C408.596 62.9284 408.481 63.0436 408.309 63.2164C407.217 64.3106 406.241 65.52 405.322 66.7293C404.46 67.8811 403.656 69.0905 402.909 70.3575C401.359 73.0066 400.095 75.8284 399.176 78.7655C398.199 81.7025 397.625 84.6972 397.395 87.807C397.223 90.1106 397.338 92.4141 397.567 94.6601C397.338 96.215 397.223 97.7699 397.28 99.3248C397.338 100.822 397.51 102.262 397.797 103.702C398.084 105.084 398.487 106.466 399.003 107.733C399.52 109.057 400.21 110.382 401.071 111.534C401.933 112.743 402.967 113.895 404.058 114.932C405.15 115.968 406.356 116.89 407.619 117.638C408.883 118.444 410.262 119.02 411.64 119.481C411.87 119.539 412.1 119.654 412.33 119.711C413.019 120.23 413.766 120.69 414.512 121.094C415.776 121.842 417.155 122.418 418.533 122.936C421.233 123.973 424.047 124.664 426.862 125.067C429.906 125.528 433.008 125.528 436.11 125.24C437.661 125.067 439.211 124.837 440.705 124.491C441.624 124.261 442.486 124.031 443.405 123.743C443.807 123.685 444.266 123.628 444.668 123.57C446.104 123.34 447.54 122.936 448.919 122.361C450.355 121.785 451.733 121.094 453.055 120.287C454.376 119.481 455.582 118.502 456.731 117.523C459.028 115.565 461.039 113.261 462.762 110.785C464.543 108.309 466.036 105.66 467.3 102.953C468.621 100.074 469.77 97.0789 470.459 93.9691C470.918 92.4141 471.148 90.8016 471.32 89.1891ZM402.278 94.4874C402.163 93.6235 402.105 92.7597 402.048 91.8382C402.048 91.6655 402.105 91.4351 402.105 91.2624C402.105 91.0896 402.163 90.9744 402.163 90.8016C402.22 91.4351 402.278 92.1262 402.392 92.7597C402.392 92.9324 402.45 93.1052 402.507 93.278C402.392 93.6811 402.335 94.0842 402.278 94.4874ZM406.069 83.5454C405.667 84.2365 405.264 84.9275 404.92 85.6762C405.035 84.9851 405.15 84.3516 405.264 83.6606C405.379 83.4878 405.494 83.315 405.609 83.1423C405.839 82.9119 406.069 82.6816 406.241 82.3936C406.183 82.8543 406.126 83.1999 406.069 83.5454ZM432.376 54.9235C432.606 54.9235 432.836 54.8659 433.008 54.8659C432.376 55.0963 431.802 55.3267 431.17 55.557C431.629 55.3267 432.031 55.0963 432.376 54.9235ZM415.431 99.8432L415.489 99.9007C415.604 100.361 415.719 100.765 415.833 101.225C415.891 101.513 416.006 101.801 416.121 102.032C416.178 102.204 416.235 102.435 416.293 102.607C415.719 101.686 415.259 100.707 414.799 99.728C414.627 99.3249 414.455 98.9217 414.34 98.5186C414.685 98.9793 415.029 99.44 415.431 99.8432ZM411.755 64.7713C411.468 64.9441 411.181 65.1168 410.951 65.2896C411.123 65.1168 411.238 64.9441 411.411 64.7713C411.985 64.1954 412.617 63.6195 413.249 63.0436C412.732 63.6195 412.272 64.1954 411.755 64.7713ZM417.097 117.465C417.04 117.465 416.925 117.465 416.867 117.408C415.661 116.832 414.57 116.141 413.536 115.392C413.076 115.047 412.617 114.644 412.215 114.24C412.444 114.24 412.732 114.298 412.961 114.298C413.306 114.298 413.708 114.356 414.053 114.356C414.11 114.413 414.168 114.471 414.168 114.528C414.397 114.816 414.627 115.047 414.857 115.277C415.374 115.795 416.063 116.199 416.752 116.486C417.212 116.659 417.671 116.832 418.131 116.947C418.188 117.005 418.303 117.062 418.361 117.12C418.648 117.293 418.935 117.465 419.222 117.581C418.533 117.638 417.786 117.523 417.097 117.465ZM422.669 58.4941C422.554 58.4941 422.496 58.4941 422.382 58.4941C422.209 58.4941 421.979 58.4941 421.807 58.4941C421.807 58.3789 421.807 58.3213 421.865 58.2061C421.865 58.0909 421.865 57.9182 421.807 57.803C421.922 57.7454 422.094 57.6878 422.209 57.6302C423.071 57.2847 423.99 56.9391 424.851 56.6512C424.105 57.1695 423.358 57.803 422.669 58.4941ZM429.447 112.686C429.332 112.743 429.217 112.801 429.159 112.801C428.987 112.858 428.815 112.916 428.643 112.974C428.011 112.858 427.436 112.686 426.804 112.57C426.517 112.398 426.173 112.225 425.885 112.052C426 111.937 426.173 111.764 426.287 111.649C426.46 111.476 426.632 111.246 426.804 111.073C427.264 111.303 427.781 111.476 428.298 111.591C428.757 111.937 429.217 112.282 429.676 112.57C429.562 112.628 429.504 112.686 429.447 112.686ZM430.366 122.936C431.342 122.821 432.376 122.649 433.353 122.418C433.87 122.591 434.387 122.706 434.903 122.879C433.353 122.994 431.859 122.994 430.366 122.936ZM437.029 57.1695C436.971 57.1695 436.914 57.2271 436.914 57.2271C436.856 57.2271 436.742 57.2271 436.684 57.1695C436.627 57.1695 436.569 57.1695 436.512 57.1695C436.799 57.0543 437.086 56.9967 437.431 56.8816C437.259 56.9967 437.144 57.1119 437.029 57.1695ZM440.647 84.4092C440.762 84.4092 440.82 84.4092 440.935 84.3516L440.992 84.4092C440.647 84.4092 440.245 84.4668 439.901 84.4668C440.188 84.5244 440.418 84.4668 440.647 84.4092ZM440.762 108.078C440.82 108.021 440.877 107.963 440.935 107.906C440.992 107.963 441.107 107.963 441.164 108.021C441.222 108.021 441.279 108.078 441.337 108.078C441.164 108.078 440.935 108.078 440.762 108.078ZM445.472 60.8552C445.53 60.8552 445.53 60.8552 445.472 60.8552C445.472 60.9128 445.53 60.8552 445.472 60.8552C445.472 60.9128 445.472 60.9128 445.472 60.8552ZM445.76 67.8811C445.358 67.8235 444.898 67.8235 444.496 67.8235C444.955 67.7659 445.415 67.7659 445.875 67.7659C445.875 67.7659 445.875 67.8235 445.932 67.8235C445.875 67.8235 445.817 67.8235 445.76 67.8811ZM449.378 52.2168C449.206 52.1017 448.976 51.9865 448.804 51.9289C449.263 52.0441 449.723 52.1592 450.183 52.2744C449.895 52.2744 449.666 52.2744 449.378 52.2168ZM461.211 71.1061C461.096 70.9333 460.981 70.7606 460.866 70.5302C460.809 70.1847 460.751 69.8391 460.694 69.4936C460.866 69.724 461.039 70.0119 461.211 70.2423C461.211 70.5878 461.211 70.8182 461.211 71.1061ZM463.451 74.4463C463.451 74.3311 463.451 74.2159 463.509 74.1583C463.738 74.5615 463.911 74.9646 464.083 75.3677C463.911 75.0222 463.681 74.7342 463.451 74.4463ZM464.543 64.3682C464.485 64.3106 464.198 63.9075 464.255 64.0226C464.198 63.965 464.198 63.9075 464.14 63.8499C463.796 63.4467 463.451 63.0436 463.107 62.6405C463.049 62.5253 463.049 62.4101 462.992 62.295C462.762 61.5463 462.36 60.8552 461.785 60.3369C461.326 59.8762 460.637 59.5883 459.947 59.4155C459.545 59.0124 459.086 58.6092 458.569 58.3213C458.282 58.1485 457.994 57.9758 457.65 57.8606C457.363 57.2271 457.018 56.6512 456.616 56.1329C456.271 55.6146 455.869 55.1539 455.41 54.7508C456.099 55.1539 456.731 55.6146 457.363 56.1329C459.143 57.5726 460.809 59.1851 462.245 61.028C463.107 62.1222 463.853 63.3316 464.485 64.5409C464.6 64.4833 464.543 64.4258 464.543 64.3682Z" fill="#FFD34E"/>
<path d="M437.144 28.7768C436.971 28.7192 436.856 28.7192 436.684 28.7192C436.397 28.7192 436.11 28.7768 435.823 28.9496C435.478 29.18 435.133 29.5255 435.018 29.9862C434.674 31.5411 434.674 33.2112 434.616 34.8237C434.559 36.4938 434.501 38.1063 434.444 39.7764C434.387 40.7554 435.306 41.5616 436.225 41.5616C437.201 41.5616 438.005 40.7554 438.005 39.7764C438.063 38.1639 438.12 36.4938 438.178 34.8813C438.178 34.1902 438.235 33.4991 438.235 32.8657C438.292 32.0594 438.292 31.2532 438.407 30.5045C438.407 30.2166 438.35 29.9286 438.178 29.6407C437.948 29.18 437.546 28.892 437.144 28.7768Z" fill="#FFD34E"/>
<path d="M452.537 35.8612C452.652 35.6884 452.71 35.5156 452.824 35.3429C452.882 35.2853 452.882 35.2853 452.939 35.2277C453.169 34.9397 453.341 34.6518 453.341 34.3062C453.341 33.9607 453.227 33.6152 452.939 33.3848C452.71 33.1545 452.365 32.9817 452.02 32.9817C451.676 32.9817 451.331 33.0969 451.101 33.3848C450.642 33.9031 450.24 34.4214 450.01 35.0549C449.78 35.6308 449.723 36.1491 449.608 36.7826C449.493 37.4161 449.436 38.1071 449.378 38.7406C449.321 39.3741 449.378 40.0076 449.378 40.6411C449.378 40.9866 449.493 41.3321 449.78 41.5625C450.01 41.7928 450.355 41.9656 450.699 41.9656C451.388 41.9656 452.02 41.3897 452.02 40.6411C451.963 39.7196 451.963 38.8558 452.078 37.9344C452.193 37.1857 452.308 36.4946 452.537 35.8612Z" fill="#FFD34E"/>
<path d="M467.587 39.95C467.473 39.95 467.3 39.95 467.185 40.0075C466.611 40.1803 466.094 40.4107 465.635 40.7562C465.118 41.1593 464.601 41.5625 464.141 42.0232C463.682 42.4263 463.279 42.8294 462.877 43.2901C462.475 43.7508 462.073 44.2691 461.671 44.7874C461.441 45.133 461.384 45.7089 461.499 46.0544C461.614 46.4575 461.901 46.8031 462.246 47.0334C462.648 47.2638 463.107 47.3214 463.509 47.2062C463.624 47.1486 463.796 47.091 463.911 47.0334C464.141 46.8607 464.371 46.6879 464.486 46.4575C464.945 45.8241 465.462 45.2482 466.037 44.7299C466.324 44.4419 466.611 44.154 466.956 43.866C467.185 43.6357 467.415 43.4053 467.702 43.1749C467.875 43.0598 467.99 43.0022 468.162 42.887C468.219 42.8294 468.334 42.8294 468.392 42.7718C468.621 42.6566 468.794 42.4263 468.966 42.1959C469.196 41.8504 469.253 41.3897 469.138 40.9866C468.851 40.4107 468.219 39.95 467.587 39.95Z" fill="#FFD34E"/>
<path d="M475.342 57.8025C475.629 57.457 475.974 57.1115 476.318 56.8235C477.008 56.3052 477.754 55.9597 478.501 55.6142C478.846 55.4414 479.248 55.3262 479.593 55.211C480.224 54.9807 480.856 54.8079 481.546 54.6927C481.718 54.6927 481.89 54.6351 482.062 54.6351C482.809 54.6351 483.441 54.0017 483.441 53.253C483.441 52.5043 482.809 51.8708 482.062 51.8708C482.005 51.8708 482.005 51.8708 481.948 51.8708C481.431 51.8708 480.914 51.9284 480.397 51.986C479.65 52.1012 478.961 52.3316 478.214 52.6195C477.467 52.9075 476.663 53.1954 475.974 53.5985C475.514 53.8289 475.055 54.1168 474.653 54.4624C474.136 54.8655 473.734 55.2686 473.274 55.7293C472.987 56.0173 472.872 56.3628 472.872 56.7659C472.872 57.1691 473.044 57.5146 473.274 57.8025C473.791 58.3208 474.768 58.3784 475.342 57.8025Z" fill="#FFD34E"/>
<path d="M477.869 65.8066C477.295 65.9218 477.008 66.5553 477.123 67.0736C477.295 67.6495 477.869 67.9374 478.386 67.8222C480.397 67.3039 482.407 66.8432 484.475 66.3249C485.279 66.0946 486.141 65.9218 486.945 65.6914C487.921 65.4611 488.84 65.2307 489.817 65.0004C490.219 64.9428 490.506 64.4821 490.506 64.1365C490.506 63.9062 490.391 63.6758 490.219 63.503C490.104 63.3879 489.817 63.2151 489.645 63.2151H489.587C488.553 63.3303 487.519 63.5606 486.543 63.791C485.681 63.9637 484.82 64.1941 483.958 64.3669C481.948 64.77 479.88 65.2883 477.869 65.8066Z" fill="#FFD34E"/>
<path d="M491.425 78.8807C491.195 78.7655 490.965 78.6503 490.735 78.5927C490.563 78.5352 490.333 78.5352 490.161 78.5352C490.046 78.5352 489.931 78.5352 489.874 78.5352C489.816 78.5352 489.759 78.5352 489.759 78.5352C489.299 78.5352 488.84 78.5927 488.438 78.5927C488.093 78.5927 487.691 78.6503 487.346 78.7079C486.715 78.7655 486.083 78.8231 485.451 78.8807C483.555 79.0535 481.717 79.2262 479.822 79.399C479.65 79.399 479.535 79.4566 479.362 79.4566C479.075 79.5142 478.845 79.6869 478.616 79.9173C478.328 80.2052 478.099 80.666 478.099 81.1267C478.099 81.5874 478.271 81.9905 478.616 82.336C478.903 82.624 479.362 82.8544 479.822 82.8544C481.66 82.6816 483.498 82.5088 485.336 82.336C485.853 82.2785 486.427 82.2209 486.944 82.1633C487.289 82.1057 487.634 82.1057 487.978 82.0481C488.323 81.9905 488.61 81.9905 488.955 81.9329C489.357 81.8753 489.759 81.8177 490.104 81.8177C490.161 81.8177 490.161 81.8177 490.218 81.8753C490.908 82.0481 491.597 81.7602 491.942 81.1843C492.171 80.8387 492.229 80.378 492.114 79.9749C491.999 79.4566 491.769 79.0535 491.425 78.8807Z" fill="#FFD34E"/>
<path d="M486.83 100.822C486.6 100.649 486.313 100.476 486.026 100.304C485.738 100.131 485.451 99.9582 485.164 99.7854C484.59 99.4399 483.958 99.1519 483.383 98.864C482.464 98.4033 481.545 97.9425 480.569 97.5394C480.397 97.4818 480.224 97.4242 480.109 97.3091C479.937 97.2515 479.765 97.2515 479.592 97.2515C479.42 97.2515 479.248 97.2515 479.075 97.3091C478.558 97.4242 478.156 97.7698 477.869 98.2305C477.582 98.6912 477.525 99.2671 477.639 99.7854C477.754 100.246 478.099 100.764 478.558 100.995C480.109 101.743 481.603 102.434 483.154 103.241C483.671 103.529 484.245 103.817 484.762 104.047C485.451 104.393 486.198 104.796 486.887 105.199C487.577 105.602 488.438 105.487 489.013 104.911C489.644 104.277 489.702 103.068 489.013 102.435C488.266 101.859 487.577 101.34 486.83 100.822Z" fill="#FFD34E"/>
<path d="M483.039 115.967C482.522 115.449 481.948 114.931 481.373 114.412C480.109 113.261 478.788 112.109 477.467 110.957C477.237 110.727 476.95 110.612 476.606 110.612C476.261 110.612 475.974 110.727 475.744 110.957C475.514 111.187 475.399 111.533 475.399 111.821C475.399 112.109 475.514 112.512 475.744 112.685C477.008 113.837 478.329 114.931 479.593 116.025C480.167 116.543 480.741 117.004 481.316 117.522C481.833 117.983 482.35 118.386 482.867 118.904C483.211 119.25 483.786 119.308 484.188 119.077C484.417 118.962 484.59 118.674 484.705 118.444C484.762 118.156 484.762 117.81 484.59 117.58C484.13 117.004 483.613 116.486 483.039 115.967Z" fill="#FFD34E"/>
<path d="M475.227 128.867C474.825 128.119 474.365 127.428 473.963 126.679C472.986 125.009 472.01 123.396 471.034 121.784C470.746 121.323 470.287 121.093 469.827 121.093C469.598 121.093 469.368 121.15 469.138 121.266C468.506 121.669 468.276 122.533 468.621 123.166C469.598 124.778 470.574 126.391 471.55 128.003C472.412 129.443 473.331 130.825 474.193 132.208C474.537 132.783 475.342 133.014 475.916 132.668C476.203 132.495 476.433 132.208 476.49 131.92C476.605 131.574 476.49 131.228 476.375 130.941C476.031 130.249 475.629 129.558 475.227 128.867Z" fill="#FFD34E"/>
<path d="M462.877 137.909C462.532 137.161 462.188 136.412 461.843 135.663C461.556 134.972 461.269 134.281 461.096 133.533C461.096 133.302 461.096 133.129 461.096 132.899C461.096 132.784 461.154 132.726 461.154 132.611C461.326 132.15 461.211 131.575 460.981 131.171C460.752 130.768 460.35 130.423 459.89 130.308C459.718 130.25 459.545 130.25 459.431 130.25C459.086 130.25 458.799 130.308 458.512 130.48C458.052 130.711 457.822 131.114 457.65 131.575C457.535 131.92 457.478 132.266 457.478 132.669C457.42 133.014 457.42 133.36 457.478 133.705C457.535 134.108 457.593 134.512 457.707 134.857C457.822 135.203 457.937 135.548 458.052 135.836C458.454 136.873 458.856 137.852 459.316 138.831C459.775 139.81 460.235 140.731 460.867 141.595C460.981 141.71 461.039 141.825 461.154 141.941C461.384 142.171 461.613 142.286 461.958 142.401C462.417 142.517 462.934 142.459 463.337 142.229C463.739 141.998 464.026 141.595 464.141 141.192C464.256 140.731 464.198 140.213 463.968 139.81C463.509 139.234 463.222 138.6 462.877 137.909Z" fill="#FFD34E"/>
<path d="M443.463 140.56C442.946 138.602 442.429 136.586 441.912 134.628C441.683 133.822 440.936 133.246 440.074 133.246C439.902 133.246 439.73 133.246 439.615 133.304C438.638 133.592 438.064 134.628 438.294 135.607C438.811 137.565 439.328 139.523 439.845 141.481C440.304 143.209 440.821 144.994 441.223 146.722C441.453 147.701 442.544 148.277 443.463 147.989C443.923 147.874 444.325 147.586 444.555 147.125C444.784 146.664 444.842 146.204 444.727 145.743C444.44 144.073 443.923 142.288 443.463 140.56Z" fill="#FFD34E"/>
<path d="M430.021 134.224C429.906 134.167 429.734 134.167 429.619 134.167C429.332 134.167 429.045 134.224 428.815 134.397C428.528 134.57 428.126 134.973 428.068 135.318C427.551 139.062 427.034 142.805 426.517 146.548V146.491C426.517 146.548 426.517 146.606 426.517 146.663C426.517 146.663 426.517 146.663 426.517 146.606V146.663C426.517 146.663 426.517 146.663 426.517 146.606C426.517 146.663 426.517 146.721 426.517 146.779C426.517 146.836 426.517 146.894 426.517 146.951C426.517 147.009 426.517 147.066 426.517 147.124C426.517 147.239 426.46 147.354 426.46 147.527C426.46 147.815 426.517 148.046 426.632 148.276C426.805 148.621 427.149 148.852 427.494 148.967C428.241 149.197 429.045 148.737 429.275 147.93C429.389 147.47 429.447 147.009 429.562 146.548C429.619 146.145 429.734 145.684 429.791 145.281C429.964 144.36 430.079 143.438 430.251 142.517C430.596 140.386 430.883 138.255 431.17 136.125C431.17 136.009 431.227 135.837 431.227 135.721C431.227 135.433 431.17 135.146 430.998 134.915C430.768 134.627 430.423 134.339 430.021 134.224ZM426.46 146.951V146.894V146.836C426.517 146.836 426.46 146.894 426.46 146.951Z" fill="#FFD34E"/>
<path d="M419.97 133.359C419.74 133.244 419.51 133.187 419.281 133.187C419.166 133.187 419.051 133.187 418.936 133.244C418.821 133.302 418.706 133.359 418.591 133.359C418.362 133.474 418.189 133.647 418.074 133.878C417.73 134.338 417.5 134.914 417.27 135.49C417.04 136.008 416.868 136.527 416.753 137.045C416.523 137.909 416.351 138.83 416.236 139.694C416.064 140.616 415.892 141.537 415.719 142.458C415.604 143.207 415.432 143.956 415.317 144.704C415.145 145.741 414.973 146.72 414.915 147.757C414.858 148.102 415.087 148.505 415.317 148.736C415.604 149.024 415.949 149.139 416.294 149.139C416.638 149.139 417.04 148.966 417.27 148.736C417.328 148.62 417.443 148.563 417.5 148.448C417.615 148.217 417.672 147.987 417.672 147.757C417.672 147.699 417.672 147.699 417.672 147.641C417.902 146.202 418.132 144.704 418.362 143.265C418.476 142.458 418.649 141.652 418.764 140.846C419.051 139.291 419.281 137.794 419.855 136.296C420.027 135.951 420.2 135.548 420.429 135.26C420.659 134.972 420.659 134.511 420.544 134.166C420.544 133.878 420.315 133.532 419.97 133.359Z" fill="#FFD34E"/>
<path d="M409.516 127.6H409.458C409.171 127.658 408.884 127.658 408.597 127.83C408.424 127.946 408.252 128.061 408.022 128.176C407.563 128.522 407.161 128.867 406.816 129.27C406.127 130.076 405.667 130.94 405.208 131.862C404.748 132.783 404.231 133.762 403.829 134.741C403.599 135.317 403.369 135.893 403.14 136.469C402.853 137.218 402.565 137.966 402.278 138.772C401.991 139.521 401.761 140.27 401.589 141.018C401.417 141.652 401.761 142.343 402.45 142.516C403.082 142.688 403.772 142.285 403.944 141.652C404.231 140.73 404.576 139.809 404.92 138.888C405.208 138.139 405.552 137.333 405.839 136.584C406.241 135.605 406.701 134.684 407.161 133.762C407.62 132.898 408.022 131.977 408.654 131.171C408.941 130.825 409.228 130.537 409.516 130.249C409.63 130.192 409.688 130.134 409.803 130.076C409.86 130.076 409.86 130.076 409.918 130.076C410.147 130.019 410.32 129.904 410.492 129.731C410.722 129.501 410.837 129.155 410.837 128.867C410.837 128.522 410.722 128.234 410.492 128.003C410.147 127.773 409.803 127.6 409.516 127.6ZM409.63 130.076C409.573 130.076 409.458 130.076 409.401 130.134H409.458C409.516 130.076 409.573 130.076 409.63 130.076Z" fill="#FFD34E"/>
<path d="M396.074 114.874C395.902 114.874 395.787 114.816 395.615 114.816C395.328 114.816 394.983 114.874 394.753 115.047C393.49 115.623 392.226 116.256 391.02 116.832C390.216 117.235 389.411 117.638 388.607 118.041C386.942 118.905 385.218 119.827 383.667 120.921C383.323 121.151 383.036 121.439 382.921 121.9C382.806 122.303 382.863 122.764 383.093 123.167C383.553 123.973 384.529 124.203 385.333 123.743C386.195 123.224 387.114 122.764 388.033 122.303C388.837 121.9 389.641 121.439 390.388 121.036C391.192 120.633 391.996 120.23 392.8 119.827C394.064 119.251 395.27 118.617 396.534 118.041C396.936 117.869 397.223 117.408 397.338 117.005C397.453 116.544 397.396 116.083 397.166 115.68C396.936 115.277 396.534 114.989 396.074 114.874Z" fill="#FFD34E"/>
<path d="M387.803 109.863C388.435 109.805 389.067 109.805 389.698 109.863C390.043 109.921 390.33 110.036 390.617 110.151C390.675 110.209 390.732 110.209 390.79 110.266C391.077 110.439 391.422 110.496 391.766 110.381C392.053 110.266 392.341 110.093 392.513 109.805C392.685 109.517 392.743 109.172 392.628 108.826C392.57 108.538 392.341 108.193 392.053 108.078C391.594 107.847 391.077 107.617 390.56 107.444C390.215 107.329 389.871 107.329 389.526 107.271C389.239 107.271 389.009 107.214 388.722 107.214C388.664 107.214 388.607 107.214 388.55 107.214C387.228 107.214 385.907 107.387 384.586 107.559C383.725 107.675 382.806 107.79 381.944 107.963C380.968 108.135 380.048 108.308 379.072 108.538C378.383 108.711 377.981 109.402 378.21 110.093C378.383 110.784 379.072 111.13 379.761 110.957C380.738 110.727 381.714 110.554 382.691 110.381C383.782 110.209 384.873 110.036 385.965 109.863C386.654 109.921 387.228 109.863 387.803 109.863Z" fill="#FFD34E"/>
<path d="M381.197 93.1619C381.944 93.3923 382.691 93.6226 383.438 93.9106C384.069 94.1985 384.701 94.4865 385.276 94.8896C385.391 94.9472 385.448 95.0624 385.505 95.12C385.62 95.2927 385.735 95.4655 385.793 95.6383C385.85 95.811 385.908 95.9838 385.965 96.1566C386.137 96.8476 386.884 97.2508 387.516 97.078C388.205 96.9052 388.607 96.1566 388.435 95.5231C388.32 95.1776 388.205 94.8896 388.09 94.5441C387.975 94.2561 387.803 93.9682 387.631 93.6802C387.171 93.0468 386.482 92.586 385.793 92.1829C385.103 91.8374 384.414 91.4918 383.667 91.2615C383.093 91.0311 382.461 90.8584 381.887 90.6856C381.542 90.5704 381.197 90.4552 380.853 90.3976C380.623 90.3401 380.451 90.2825 380.221 90.2249C379.876 90.1673 379.589 90.0521 379.245 89.9945C379.015 89.9369 378.842 89.9369 378.613 89.8793C378.268 89.8218 377.981 89.7642 377.636 89.7642C377.579 89.7642 377.464 89.7642 377.406 89.7642C377.062 89.7642 376.775 89.8793 376.545 90.1097C376.315 90.3401 376.2 90.6856 376.2 90.9735C376.2 91.6646 376.775 92.2405 377.406 92.1829C377.521 92.1829 377.636 92.1829 377.751 92.1829C378.498 92.2981 379.245 92.5284 379.934 92.7588C380.393 92.9316 380.795 93.0467 381.197 93.1619Z" fill="#FFD34E"/>
<path d="M387.63 78.9363C386.941 78.13 386.252 77.2662 385.563 76.4599C385.448 76.3447 385.333 76.172 385.218 76.0568C384.816 75.6537 384.471 75.2505 384.069 74.8474C383.552 74.2715 382.978 73.6956 382.461 73.1197C381.714 72.3135 380.967 71.5648 380.221 70.7586C379.876 70.3555 379.531 70.0099 379.187 69.6068C378.842 69.2037 378.44 68.8006 378.095 68.3974C378.095 68.3398 378.038 68.3398 378.038 68.2822C377.981 68.2247 377.923 68.1671 377.923 68.1095C377.808 67.9943 377.693 67.9367 377.578 67.8791C377.521 67.8791 377.406 67.8215 377.349 67.8215C377.176 67.8215 377.062 67.8791 376.947 67.9367C376.774 68.0519 376.602 68.2247 376.545 68.455C376.487 68.6278 376.487 68.9157 376.602 69.0885C376.889 69.4916 377.234 69.8947 377.636 70.2979C377.923 70.5858 378.21 70.8738 378.498 71.1617C379.072 71.9104 379.646 72.4863 380.278 73.1197C381.599 74.4443 382.92 75.8264 384.184 77.2086C384.356 77.3814 384.471 77.5541 384.644 77.7269C385.103 78.2452 385.563 78.7635 386.022 79.3394C386.482 79.8577 386.884 80.376 387.343 80.8943C387.86 81.5278 388.377 82.1613 388.894 82.7947C389.009 82.9675 389.239 83.0251 389.411 83.0251C389.583 83.0251 389.813 82.9675 389.928 82.7947C390.043 82.6796 390.158 82.4492 390.158 82.2764C390.158 82.0461 390.043 81.9309 389.928 81.7581C389.469 81.1822 389.009 80.6063 388.55 80.0305C388.262 79.6849 387.918 79.2818 387.63 78.9363Z" fill="#FFD34E"/>
<path d="M396.189 66.3266C396.706 65.8083 396.764 64.8869 396.189 64.311C395.155 63.3319 394.121 62.3529 393.03 61.3739C392.398 60.798 391.766 60.2221 391.077 59.6462C390.273 58.9552 389.526 58.3217 388.78 57.6306C388.377 57.2851 387.918 56.8819 387.516 56.5364C387.286 56.3636 387.114 56.1333 386.884 55.9605C386.539 55.6726 386.252 55.327 385.965 54.9815C385.793 54.8087 385.62 54.6935 385.391 54.636C385.276 54.5784 385.161 54.5784 385.046 54.5784C384.816 54.5784 384.586 54.636 384.357 54.7511C384.069 54.9239 383.84 55.2119 383.725 55.5574C383.61 55.9029 383.667 56.306 383.84 56.594C384.644 57.6882 385.678 58.6096 386.654 59.4735C387.458 60.1645 388.263 60.8556 389.067 61.5467C390.847 63.044 392.571 64.6565 394.236 66.269C394.753 66.9025 395.672 66.9025 396.189 66.3266Z" fill="#FFD34E"/>
<path d="M399.579 50.6623C400.21 51.3534 400.842 51.9869 401.474 52.6204C402.508 53.657 403.542 54.7512 404.576 55.7878C405.093 56.3061 405.954 56.3061 406.471 55.7878C406.988 55.2695 406.988 54.4056 406.471 53.8873C405.437 52.8507 404.461 51.8141 403.427 50.7775C402.795 50.144 402.106 49.4529 401.474 48.8195C400.785 48.1284 400.095 47.3797 399.406 46.6887C398.717 45.94 397.97 45.1913 397.281 44.3851C397.109 44.2123 396.936 44.1547 396.764 44.0971C396.649 44.0971 396.534 44.0396 396.419 44.0396C396.19 44.0396 396.017 44.0971 395.787 44.2123C395.213 44.5579 394.983 45.3065 395.328 45.8824C395.902 46.8038 396.707 47.6677 397.396 48.5315C398.257 49.2226 398.947 49.9137 399.579 50.6623Z" fill="#FFD34E"/>
<path d="M407.678 41.7928C407.965 42.3687 408.31 43.0022 408.597 43.5781C409.574 45.4209 410.607 47.2062 411.584 49.049C411.929 49.6825 412.848 49.9129 413.479 49.5673C414.169 49.1642 414.341 48.358 413.996 47.6669C413.02 45.9392 412.101 44.2115 411.124 42.4839C410.895 42.0231 410.665 41.62 410.378 41.1593C409.918 40.2955 409.401 39.4316 408.999 38.5678C408.884 38.2798 408.769 37.9343 408.712 37.5888C408.654 37.2432 408.597 37.0129 408.367 36.7249C408.138 36.4946 407.85 36.3794 407.506 36.3794C407.161 36.3794 406.874 36.4946 406.644 36.7249C406.414 36.9553 406.299 37.2432 406.299 37.5888C406.242 38.1071 406.357 38.5678 406.472 39.0861C406.587 39.6044 406.816 40.0651 407.046 40.5258C407.276 40.9865 407.448 41.3897 407.678 41.7928Z" fill="#FFD34E"/>
<path d="M417.442 31.369C417.557 31.7721 417.672 32.1753 417.787 32.5784C417.901 33.0391 418.016 33.5574 418.131 34.0181C418.303 34.7668 418.533 35.5154 418.706 36.3217C419.395 38.9132 420.084 41.5047 420.716 44.0962C421.003 45.1904 422.209 45.8815 423.301 45.536C424.392 45.248 425.081 44.0386 424.737 42.9444C424.047 40.4105 423.416 37.8766 422.726 35.4003C422.554 34.7668 422.382 34.0757 422.209 33.4422C422.152 33.2119 422.095 32.9815 422.037 32.7511C422.611 32.1753 422.841 31.1962 422.382 30.4476C421.865 29.6413 421.29 28.8351 420.659 28.144C420.314 27.7409 419.797 27.5681 419.28 27.5681C419.108 27.5681 418.935 27.5681 418.763 27.6257C418.418 27.7409 418.131 27.9137 417.901 28.144C417.672 28.3744 417.499 28.6623 417.384 29.0078C417.327 29.411 417.212 29.7565 417.27 30.1596C417.27 30.5628 417.327 30.9659 417.442 31.369Z" fill="#FFD34E"/>
</g>
<path d="M265.847 124.959C265.934 125.6 267.069 125.454 266.991 124.804C266.894 124.028 266.73 123.291 266.526 122.583C268.33 120.837 270.464 119.44 273.025 119.304C277.129 119.091 280.417 122.69 279.515 126.55C279.263 126.657 279.001 126.754 278.749 126.851C278.331 127.016 278.496 127.685 278.943 127.54C279.04 127.511 279.146 127.482 279.243 127.443C279.059 127.967 279.854 128.229 280.136 127.802C280.301 127.55 280.427 127.297 280.543 127.035C283.579 126.075 286.751 125.144 289.943 125.406C294.716 125.794 300.255 129.819 298.091 135.223C295.889 140.733 285.791 143.614 280.116 142.139C280.087 141.402 279.913 140.636 279.534 139.83C279.292 139.316 278.467 139.675 278.622 140.218C278.778 140.762 278.865 141.266 278.904 141.732C278.904 141.732 278.875 141.722 278.855 141.722C278.118 141.392 277.478 142.488 278.215 142.818C278.428 142.905 278.642 142.993 278.865 143.07C278.089 147.862 270.542 148.27 266.468 147.688C263.208 147.222 260.259 146.107 257.466 144.516C257.534 143.449 257.388 142.333 256.971 141.179C256.728 140.5 255.71 140.762 255.884 141.479C256.059 142.246 256.127 142.983 256.108 143.691C255.826 143.517 255.555 143.352 255.283 143.167C255.021 142.993 254.691 143.41 254.943 143.604C255.302 143.895 255.671 144.167 256.049 144.438C255.186 151.064 246.223 155.681 240.422 157.194C233.534 158.999 224.688 156.108 224.028 148.241C224.028 148.173 224.008 148.105 224.008 148.037C224.416 147.804 224.823 147.571 225.221 147.309C225.774 146.951 225.289 146.126 224.697 146.427C221.351 148.115 218.14 149.366 214.356 149.599C210.893 149.803 202.755 149.414 204.617 143.778C206.635 137.687 212.717 135.669 217.102 131.857C217.218 131.76 217.16 131.585 217.034 131.527V131.498C217.567 131.75 218.198 131.886 218.916 131.866C219.313 131.857 219.41 131.265 219.013 131.158C216.403 130.498 215.055 127.734 216.364 125.26C217.257 123.582 219.129 122.573 220.866 122.04C224.397 120.963 228.025 121.652 231.332 123.068C231.75 123.242 232.118 122.69 231.701 122.447C231.555 122.36 231.4 122.282 231.255 122.205C236.367 117.461 242.527 114.153 249.618 113.746C256.302 113.367 263.131 116.21 265.275 122.593C264.557 123.436 263.916 124.329 263.412 125.221C263.237 125.512 263.674 125.871 263.887 125.59C264.411 124.921 264.974 124.232 265.575 123.572C265.682 124.019 265.779 124.474 265.847 124.959Z" fill="white"/>
<path d="M490.726 141.825C490.931 141.015 489.78 140.719 489.495 141.483C489.415 141.7 489.324 141.893 489.244 142.087C489.152 141.893 489.038 141.711 488.97 141.494C488.833 141.05 488.183 141.232 488.286 141.677C488.4 142.19 488.582 142.646 488.81 143.079C485.64 149.704 479.209 153.011 471.752 152.897C468.536 152.84 465.275 152.03 462.242 150.981C457.43 149.317 449.562 144.71 453.884 138.518C454.032 138.313 453.884 138.073 453.69 137.971C453.747 137.914 453.793 137.857 453.838 137.8C454.351 137.138 453.473 136.203 452.903 136.865C448.274 142.178 441.968 146.01 434.739 146.147C433.348 146.181 431.535 146.261 430.246 145.759C422.937 142.897 425.993 137.743 428.741 134.584C431.58 131.312 435.856 129.875 439.904 128.849C439.95 128.837 439.984 128.803 440.007 128.769C440.212 128.769 440.417 128.78 440.623 128.78C441.17 128.769 441.329 127.879 440.759 127.788C438.433 127.389 436.073 127.241 433.929 126.237C432.333 125.496 429.972 123.946 429.87 121.904C429.756 119.692 431.808 117.127 433.758 116.386C438.604 114.55 443.838 115.302 448.456 117.355C448.456 117.537 448.422 117.708 448.422 117.891C448.422 118.484 449.254 118.449 449.323 117.891C449.323 117.856 449.323 117.822 449.346 117.777C449.574 117.891 449.802 118.005 450.018 118.119C450.497 118.37 450.896 117.685 450.44 117.389C450.167 117.207 449.859 117.024 449.539 116.853C451.181 110.137 459.722 108.746 463.086 114.481C463.12 114.812 463.166 115.131 463.223 115.462C463.268 115.701 463.496 115.804 463.713 115.781C463.781 115.975 463.873 116.146 463.941 116.351C464.181 117.115 465.378 116.796 465.161 116.009C464.899 115.063 464.511 114.23 464.044 113.501C464.42 103.934 476.552 98.0158 485.116 97.9017C493.964 97.7763 502.015 104.093 502.254 112.896C501.604 113.592 501.137 114.424 501.023 115.473C500.966 115.998 501.809 116.1 501.935 115.599C501.992 115.371 502.072 115.154 502.174 114.949C502.174 115.063 502.174 115.154 502.152 115.268C502.038 116.214 503.531 116.214 503.657 115.268C503.748 114.55 503.794 113.843 503.794 113.159C505.424 111.973 507.716 111.243 509.164 110.867C511.604 110.251 514.216 110.023 516.644 110.832C521.217 112.338 523.965 118.427 520.544 122.315C519.951 122.999 520.92 123.98 521.548 123.318L521.582 123.284L521.616 123.318C521.251 123.752 521.833 124.367 522.232 123.946C526.656 119.327 533.087 115.884 539.655 117.64C544.821 119.008 549.199 123.957 549.154 129.442C549.085 140.274 531.799 146.774 523.566 141.38C523.6 141.323 523.634 141.266 523.657 141.198C524.09 140.32 522.768 139.544 522.346 140.434C517.922 149.602 506.85 149.761 501.353 142.68C502.129 141.677 502.767 140.548 503.246 139.43C503.588 138.644 502.425 137.948 502.083 138.746C501.661 139.715 501.16 140.673 500.555 141.551C500.065 140.776 499.643 139.932 499.29 139.02C499.107 138.541 498.377 138.712 498.514 139.225C498.822 140.434 499.255 141.54 499.791 142.521C498.936 143.513 497.91 144.334 496.644 144.801C494.386 145.656 491.798 145.177 490.202 143.547C490.407 142.988 490.589 142.429 490.726 141.825Z" fill="white"/>
<path d="M333.497 95.825C334.086 95.9805 334.652 96.1138 335.152 96.1915C335.929 96.3137 336.285 95.1919 335.485 94.9808C333.408 94.4588 331.22 94.0811 329.332 92.9926C328.087 92.2706 325.522 89.7825 325.966 87.872C326.432 85.8282 329.609 83.6955 331.509 83.1845C336.74 81.7628 341.861 82.3626 346.97 83.9065C347.404 84.0398 347.715 83.3512 347.281 83.1623C347.148 83.1068 347.004 83.0513 346.859 82.9957C346.071 71.5216 358.389 65.0125 368.464 64.9903C378.372 64.9681 387.135 70.9329 389.457 80.4854C389.257 80.6298 389.046 80.7631 388.857 80.9075C388.346 81.2963 388.824 82.1626 389.368 81.785L389.668 81.5851C389.724 81.8961 389.801 82.2071 389.846 82.5181C389.957 83.2956 391.323 83.1179 391.223 82.3404C391.145 81.8072 391.034 81.2963 390.934 80.7853C395.722 77.9973 401.486 77.0643 406.818 79.0747C408.184 79.5857 409.162 80.0855 410.295 81.0186C411.372 81.7295 412.205 82.6736 412.805 83.8399L412.605 89.6047C410.239 93.8589 404.141 93.8812 399.976 94.0145C399.098 94.0367 399.087 95.3918 399.976 95.3918C400.442 95.3918 400.898 95.3918 401.375 95.3807C407.018 96.3026 412.072 100.146 411.528 106.622C411.006 112.831 405.063 115.53 399.698 116.696C390.423 118.729 380.937 117.085 372.662 112.553C372.04 112.22 371.474 112.753 371.452 113.286C371.352 113.331 371.252 113.386 371.163 113.486C368.119 117.14 363.909 120.251 358.889 119.973C353.291 119.662 349.014 114.608 349.958 109.11C350.225 108.721 350.48 108.332 350.714 107.943C351.18 107.155 349.958 106.444 349.481 107.233C344.816 115.041 336.14 120.262 326.877 119.617C316.591 118.918 317.024 109.487 322.956 103.9C326.144 100.901 330.054 98.5353 333.497 95.825Z" fill="white"/>
<path d="M21.6571 54.8427C22.0371 54.6069 21.9846 53.8732 21.4737 53.6897C14.9489 51.41 16.7177 43.9288 21.8143 41.2953C26.0201 39.1073 31.025 39.972 35.4796 41.1381C35.4403 41.2822 35.401 41.4132 35.3617 41.5442C35.2176 42.2779 36.2134 42.54 36.4754 41.8456C36.5147 41.7146 36.5933 41.5966 36.6457 41.4525C36.803 41.5049 36.9602 41.5442 37.1174 41.5835C37.6022 41.7277 37.7987 40.9809 37.327 40.8367C37.2091 40.7974 37.0912 40.7581 36.9733 40.7319C40.4191 33.6307 49.7608 32.6873 53.8486 39.0811C53.639 39.5003 53.4424 39.9327 53.2721 40.3651C53.0232 41.0202 54.0975 41.4787 54.412 40.8498L54.6084 40.4961C54.7919 40.9022 54.9622 41.3084 55.1063 41.767C55.3946 42.6579 56.7834 42.291 56.5214 41.3739C56.2724 40.4961 55.9056 39.71 55.4863 38.9632C63.6488 26.2805 82.4108 31.7309 82.7252 46.9422C82.5549 47.0733 82.3715 47.1912 82.2142 47.3222C81.8081 47.6497 82.2667 48.2786 82.7121 48.1214C82.699 48.3048 82.7121 48.4752 82.699 48.6586C82.6335 49.484 84.0223 49.6805 84.1533 48.8551C84.245 48.3179 84.3105 47.7677 84.3367 47.2305C89.2762 44.5708 94.6611 43.2606 100.321 44.4398C108.864 46.2085 116.279 53.8076 110.121 62.3763C103.754 71.2463 84.1926 73.1985 76.4101 65.3504C75.6109 64.5381 74.3662 65.7959 75.1654 66.6082C75.4929 66.9358 75.8467 67.2633 76.2266 67.5647C72.4664 76.6705 64.5529 81.9899 54.3988 81.3479C45.673 80.7976 32.6627 76.4609 30.9595 66.6213C31.6277 66.1366 32.2696 65.6387 32.8985 65.1015C33.5667 64.5381 32.6758 63.3459 31.9552 63.883C31.5753 64.1713 31.1691 64.4464 30.7499 64.7347C30.6713 64.2106 29.9113 64.263 29.8458 64.8133L29.8065 65.3636C23.1769 69.7134 13.7959 73.4737 6.17062 70.814C-1.92638 67.997 4.65076 61.8784 9.0006 59.1401C13.1539 56.5328 17.4644 55.8515 22.2598 55.6157C22.6266 55.6026 22.7445 55.0261 22.3515 54.9475C22.1156 54.8951 21.8799 54.882 21.6571 54.8427Z" fill="white"/>
<defs>
<clipPath id="clip0_1650_1230">
<rect width="518.1" height="58.3" fill="white" transform="translate(29.7002 336.6)"/>
</clipPath>
<clipPath id="clip1_1650_1230">
<rect width="117" height="123" fill="white" transform="translate(376 27)"/>
</clipPath>
</defs>
</svg>
