<svg width="130" height="130" viewBox="0 0 130 130" fill="none" xmlns="http://www.w3.org/2000/svg">
<path d="M65 130C100.899 130 130 100.899 130 65C130 29.1015 100.899 0 65 0C29.1015 0 0 29.1015 0 65C0 100.899 29.1015 130 65 130Z" fill="#C4CEFF"/>
<mask id="mask0_1793_267" style="mask-type:alpha" maskUnits="userSpaceOnUse" x="0" y="0" width="129" height="129">
<path d="M64.2124 128.425C99.6759 128.425 128.425 99.6759 128.425 64.2124C128.425 28.7489 99.6759 0 64.2124 0C28.7489 0 0 28.7489 0 64.2124C0 99.6759 28.7489 128.425 64.2124 128.425Z" fill="#C4CEFF"/>
</mask>
<g mask="url(#mask0_1793_267)">
<path d="M47.397 120.391C47.397 120.391 24.179 133.57 47.397 154.634C47.397 154.634 72.1178 136.198 47.397 120.391Z" fill="url(#paint0_linear_1793_267)"/>
<path d="M47.5096 123.395C47.5096 123.395 33.5337 131.317 47.5096 144.008C47.5096 144.008 62.3872 132.932 47.5096 123.395Z" fill="url(#paint1_linear_1793_267)"/>
<path d="M73.1703 93.1693C73.1703 111.567 61.4862 131.955 47.7357 131.955C34.0228 131.955 22.301 111.605 22.301 93.1693C22.301 74.7712 33.9852 65.2343 47.7357 65.2343C61.4486 65.2343 73.1703 74.7337 73.1703 93.1693Z" fill="url(#paint2_linear_1793_267)"/>
<path d="M25.1182 109.427C25.1182 109.427 30.8663 107.437 32.294 99.1393C32.294 99.1393 45.2555 102.293 64.6039 99.1393C64.6039 99.1393 65.3177 107.4 70.352 109.427C70.352 109.427 65.3553 108.188 64.2282 99.8151C64.2282 99.8151 48.5241 103.607 32.8575 99.8902C32.8199 99.9278 31.6929 107.212 25.1182 109.427Z" fill="#8080A2"/>
<path d="M26.9003 93.6176C23.351 95.2294 19.1083 93.6825 17.4973 90.0977C15.8843 86.5503 17.4319 82.3101 21.0186 80.7002C24.5678 79.0883 28.8106 80.6353 30.4215 84.2201C32.0325 87.8049 30.487 92.0077 26.9003 93.6176Z" fill="#8080A2"/>
<path d="M37.8294 99.5146C36.3271 101.539 33.337 101.865 31.1677 100.243L24.8769 95.5384C22.7076 93.9162 22.1539 90.953 23.6562 88.9289C25.1585 86.9048 28.1486 86.5786 30.3179 88.2008L36.6087 92.9051C38.8155 94.5293 39.3691 97.4926 37.8294 99.5146Z" fill="white"/>
<path d="M37.356 102.685C34.2692 104.096 30.6561 102.734 29.2812 99.6508C27.8688 96.5657 29.2316 92.9546 32.3164 91.5807C35.4032 90.1692 39.0163 91.5315 40.3912 94.6147C41.8057 97.6623 40.4428 101.273 37.356 102.685Z" fill="#8080A2"/>
<path d="M49.6682 95.608C49.9209 97.878 48.1915 99.9273 45.7682 100.209L38.7608 101.069C36.3374 101.351 34.1661 99.7659 33.8738 97.5314C33.5836 95.2594 35.3504 93.2121 37.7738 92.9303L44.7812 92.0706C47.2421 91.7908 49.4134 93.3755 49.6682 95.608Z" fill="white"/>
<path d="M74.0285 92.7453C70.572 94.5475 66.2515 93.2334 64.4481 89.7415C62.6447 86.2872 63.9597 81.9692 67.4537 80.167C70.9101 78.3647 75.2307 79.6789 77.0341 83.1708C78.8374 86.6626 77.5225 90.943 74.0285 92.7453Z" fill="#8080A2"/>
<path d="M85.2621 98.0395C83.872 100.142 80.904 100.63 78.6498 99.1284L72.1126 94.7729C69.8584 93.2711 69.1445 90.3424 70.5346 88.2397C71.9247 86.1371 74.8928 85.649 77.147 87.1509L83.6841 91.5063C85.9759 93.0082 86.6897 95.9369 85.2621 98.0395Z" fill="white"/>
<path d="M84.9612 101.231C81.9556 102.808 78.2737 101.644 76.7334 98.64C75.1554 95.6363 76.3201 91.9567 79.3257 90.4172C82.3313 88.8403 86.0132 90.0042 87.5535 93.008C89.1315 95.9742 87.9668 99.6538 84.9612 101.231Z" fill="#8080A2"/>
<path d="M96.8711 93.4962C97.2468 95.7491 95.6313 97.8892 93.2268 98.3023L86.2763 99.5413C83.8718 99.9543 81.6176 98.49 81.2044 96.2747C80.7911 94.0219 82.4442 91.8817 84.8487 91.4687L91.7991 90.2296C94.2412 89.8166 96.4954 91.281 96.8711 93.4962Z" fill="white"/>
<path d="M100.816 96.237C98.7498 98.4898 95.2558 98.64 93.0016 96.6125C90.7474 94.5474 90.5971 91.0555 92.6259 88.8027C94.6922 86.5499 98.1862 86.3997 100.44 88.4272C102.695 90.4923 102.882 93.9842 100.816 96.237Z" fill="#8080A2"/>
<path d="M104.047 80.918C104.686 81.3686 104.799 82.3823 104.235 83.1708L103.709 83.9218L108.856 82.0819C109.533 81.8567 110.246 82.1946 110.509 82.8704C110.735 83.5463 110.397 84.2597 109.72 84.5225L107.128 85.4236C107.241 85.4987 107.316 85.6114 107.429 85.6865L111.824 84.1095C112.501 83.8842 113.214 84.2221 113.477 84.898C113.703 85.5738 113.365 86.2872 112.688 86.5501L108.744 87.9393C108.744 87.9768 108.781 88.0144 108.781 88.0519L112.876 86.5876C113.553 86.3623 114.266 86.7002 114.529 87.3761C114.755 88.0519 114.417 88.7653 113.74 89.0282L108.781 90.7929C108.781 90.8304 108.744 90.9055 108.744 90.9431L111.035 90.0795C111.712 89.8542 112.388 90.0795 112.613 90.6427C112.801 91.2059 112.425 91.8066 111.749 92.0695L105.888 94.1346C105.851 94.1721 105.776 94.1721 105.7 94.1721C105.625 94.2097 105.513 94.2472 105.437 94.2847L102.732 95.261C101.154 95.8242 99.5389 95.5613 98.2239 94.7729C97.8482 94.51 95.331 92.7453 95.7819 89.8542C95.9697 87.9017 97.2471 86.137 99.2383 85.4236L99.351 85.3861C99.3886 85.1608 99.5013 84.898 99.6516 84.6727L101.831 81.5563C102.432 80.7303 103.409 80.4674 104.047 80.918Z" fill="white"/>
<path d="M67.7221 71.9175C67.7221 78.7886 58.7429 84.3832 47.6975 84.3832C36.652 84.3832 27.6729 78.8262 27.6729 71.9175C27.6729 65.0464 36.652 59.4519 47.6975 59.4519C58.7805 59.4519 67.7221 65.0464 67.7221 71.9175Z" fill="#DCDCEA"/>
<path d="M79.9325 57.7624C79.9325 62.9814 75.6871 67.2243 70.4649 67.2243H24.0664C18.8442 67.2243 14.5989 62.9814 14.5989 57.7624C14.5989 52.5434 18.8442 48.3005 24.0664 48.3005H70.4649C75.6871 48.3005 79.9325 52.5434 79.9325 57.7624Z" fill="#A0A0C1"/>
<path d="M79.9325 59.4521C79.9325 64.6711 75.6871 68.914 70.4649 68.914H24.0664C18.8442 68.914 14.5989 64.6711 14.5989 59.4521C14.5989 54.2331 18.8442 49.9902 24.0664 49.9902H70.4649C75.6871 49.9902 79.9325 54.2331 79.9325 59.4521Z" fill="#8080A2"/>
<path d="M48.8248 20.1779H45.6689V36.1729H48.8248V20.1779Z" fill="#8080A2"/>
<path d="M52.0183 22.7685C52.0183 25.3968 49.8768 27.537 47.2469 27.537C44.6171 27.537 42.4756 25.3968 42.4756 22.7685C42.4756 20.1402 44.6171 18 47.2469 18C49.8768 18 52.0183 20.1402 52.0183 22.7685Z" fill="white"/>
<path d="M72.4938 58.9263C72.4938 67.8625 65.2429 75.1091 56.3013 75.1091H38.1928C29.2512 75.1091 22.0002 67.8625 22.0002 58.9263V50.5533C22.0002 41.6171 29.2512 34.3705 38.1928 34.3705H56.2638C65.2053 34.3705 72.4563 41.6171 72.4563 50.5533V58.9263H72.4938Z" fill="#F4F4F4"/>
<path d="M72.4938 62.1554C72.4938 71.0917 65.2429 78.3382 56.3013 78.3382H38.1928C29.2512 78.3382 22.0002 71.0917 22.0002 62.1554V53.82C22.0002 44.8838 29.2512 37.6372 38.1928 37.6372H56.2638C65.2053 37.6372 72.4563 44.8838 72.4563 53.82V62.1554H72.4938Z" fill="white"/>
<path d="M67.3465 61.9301C67.3465 69.1767 61.2602 75.034 53.7462 75.034H40.7096C33.1957 75.034 27.1094 69.1767 27.1094 61.9301C27.1094 54.6835 33.1957 48.8262 40.7096 48.8262H53.7462C61.2602 48.8262 67.3465 54.7211 67.3465 61.9301Z" fill="#343E49"/>
<path d="M67.2339 60.4281C67.2339 67.6747 61.1476 73.5321 53.6337 73.5321H40.597C33.0831 73.5321 26.9968 67.6747 26.9968 60.4281C26.9968 53.1816 33.0831 47.3242 40.597 47.3242H53.6337C61.1852 47.3242 67.2339 53.2191 67.2339 60.4281Z" fill="#5D5D77"/>
<path d="M39.9961 61.1041C39.9961 62.3056 39.132 63.2819 38.0425 63.2819C36.953 63.2819 36.0889 62.3056 36.0889 61.1041C36.0889 59.9026 36.953 58.9264 38.0425 58.9264C39.0944 58.9264 39.9961 59.9026 39.9961 61.1041Z" fill="#B3B3FF"/>
<path d="M59.3818 61.1041C59.3818 62.3056 58.5177 63.2819 57.4282 63.2819C56.3387 63.2819 55.4746 62.3056 55.4746 61.1041C55.4746 59.9026 56.3387 58.9264 57.4282 58.9264C58.5177 58.9264 59.3818 59.9026 59.3818 61.1041Z" fill="#B3B3FF"/>
<path d="M42.0625 65.6472C42.0625 65.6472 47.3598 70.6034 53.4085 65.6472" stroke="#B3B3FF" stroke-miterlimit="10" stroke-linecap="round" stroke-linejoin="round"/>
<path d="M63.5521 98.2005C63.5521 98.4258 63.3643 98.6135 63.1388 98.6135C62.9134 98.6135 62.7256 98.4258 62.7256 98.2005C62.7256 97.9752 62.9134 97.7875 63.1388 97.7875C63.3643 97.7875 63.5521 97.9752 63.5521 98.2005Z" fill="#8080A2"/>
<path d="M63.5521 101.767C63.5521 101.993 63.3643 102.18 63.1388 102.18C62.9134 102.18 62.7256 101.993 62.7256 101.767C62.7256 101.542 62.9134 101.354 63.1388 101.354C63.3643 101.392 63.5521 101.542 63.5521 101.767Z" fill="#8080A2"/>
<path d="M68.8119 59.8275C68.7367 51.8675 61.9366 45.4094 53.6337 45.4094H40.5971C32.219 45.4094 25.3813 51.9426 25.3813 59.9401C25.3813 60.4658 25.4189 60.9915 25.4941 61.5547C25.5692 69.5146 32.3693 75.9727 40.7098 75.9727H53.7464C62.1245 75.9727 68.9621 69.4396 68.9621 61.442C68.9246 60.9164 68.887 60.3532 68.8119 59.8275ZM53.7089 74.3582H40.6722C33.1958 74.3582 27.1096 68.576 27.072 61.442C26.9968 60.9539 26.9593 60.4283 26.9593 59.9401C26.9593 52.8062 33.0456 47.0239 40.5595 47.0239H53.5962C61.0725 47.0239 67.1588 52.8062 67.1964 59.9401C67.2715 60.4283 67.3091 60.9539 67.3091 61.442C67.3091 68.576 61.2228 74.3582 53.7089 74.3582Z" fill="#7171C9"/>
<path d="M68.8121 60.3529C68.7369 52.3929 61.9368 45.9348 53.5964 45.9348H40.5597C32.1817 45.9348 25.344 52.468 25.344 60.4655C25.344 60.9912 25.3816 61.5169 25.4567 62.0801C25.5318 70.04 32.3319 76.4981 40.6724 76.4981H53.7091C62.0871 76.4981 68.9248 69.9649 68.9248 61.9674C68.9248 61.4418 68.8872 60.8786 68.8121 60.3529ZM53.7091 74.8836H40.6724C33.1961 74.8836 27.1098 69.1014 27.0722 61.9674C26.9971 61.4793 26.9595 60.9536 26.9595 60.4655C26.9595 53.3316 33.0458 47.5493 40.5597 47.5493H53.5964C61.0727 47.5493 67.159 53.3316 67.1966 60.4655C67.2717 60.9536 67.3093 61.4793 67.3093 61.9674C67.3093 69.1014 61.223 74.8836 53.7091 74.8836Z" fill="#9D9AFF"/>
<path d="M53.4863 91.289C53.4863 94.0376 51.2627 96.2612 48.5142 96.2612C45.7656 96.2612 43.5493 94.0303 43.5493 91.289C43.5493 88.5405 45.7729 86.3169 48.5215 86.3169C51.27 86.3169 53.4863 88.5405 53.4863 91.289Z" fill="#ACACD9"/>
<path d="M48.4482 90.7568C48.1785 90.7568 47.9744 90.5381 47.9744 90.2611V89.0873C47.9744 88.8176 48.1785 88.5916 48.4482 88.5916C48.718 88.5916 48.9221 88.8103 48.9221 89.0873V90.2684C48.9221 90.5381 48.718 90.7568 48.4482 90.7568Z" fill="#D3DCF3"/>
<path d="M48.5215 93.9064C47.0634 93.9064 45.875 92.718 45.875 91.2599C45.875 90.6621 46.0864 90.0789 46.4582 89.605C46.6259 89.3936 46.9394 89.3571 47.1508 89.5321C47.3623 89.6998 47.3987 90.0133 47.2237 90.2247C46.9832 90.5309 46.8519 90.8881 46.8519 91.2672C46.8519 92.1858 47.5956 92.9295 48.5142 92.9295C49.4328 92.9222 50.1837 92.1713 50.1837 91.2599C50.1837 90.8808 50.0598 90.5163 49.8192 90.2174C49.6515 90.006 49.6807 89.6925 49.8921 89.5248C50.1035 89.3571 50.417 89.3863 50.5847 89.5977C50.9638 90.0643 51.1679 90.6548 51.1679 91.2526C51.1679 92.718 49.9796 93.9064 48.5215 93.9064Z" fill="#D3DCF3"/>
<g filter="url(#filter0_d_1793_267)">
<path d="M51.7983 97.6835C51.8632 98.9179 51.5384 100.087 50.8888 101.127C49.8495 102.881 47.9006 104.115 45.692 104.18C43.8731 104.245 42.2491 103.531 41.0798 102.361C39.9754 101.257 39.2609 99.7625 39.1959 98.0733C39.1309 95.2797 40.8199 92.8758 43.2884 91.9663C43.8731 91.7714 44.5876 91.5765 45.2373 91.5765C46.9262 91.5115 48.5503 92.1612 49.7195 93.2007C50.9538 94.3701 51.7333 95.9293 51.7983 97.6835Z" fill="#8080A2"/>
<path d="M54.9137 102.655C54.2222 102.655 53.5308 102.378 53.116 101.756L51.18 99.1978C51.18 99.1978 51.18 99.1978 51.1109 99.1978L46.3957 99.4744C45.2203 99.5435 44.1832 98.5755 44.1141 97.4001C44.0449 96.2247 45.0129 95.1876 46.1883 95.1185L50.9035 94.8419C52.3554 94.7728 53.7382 95.4642 54.5679 96.6396L56.5039 99.1978C57.1953 100.166 56.9879 101.549 56.0891 102.24C55.7434 102.517 55.3285 102.655 54.9137 102.655Z" fill="white"/>
<path d="M60.3758 102.171C59.6844 102.171 58.993 101.894 58.5781 101.272L56.6422 98.7138C56.6422 98.7138 56.6422 98.7138 56.573 98.7138L47.6538 98.9904C46.4784 99.0595 45.4413 98.0915 45.3721 96.9161C45.303 95.7407 46.271 94.7036 47.4464 94.6345L56.3656 94.3579C57.8176 94.2887 59.2004 94.9802 60.0301 96.1556L61.9661 98.7138C62.6575 99.6818 62.4501 101.065 61.5512 101.756C61.2055 102.033 60.7907 102.171 60.3758 102.171Z" fill="white"/>
<path d="M63.8329 101.894C63.1414 101.894 62.45 101.618 62.0352 100.995L60.0992 98.4372C60.0992 98.4372 60.0992 98.4372 60.0301 98.4372L51.1108 98.7137C49.9354 98.7829 48.8983 97.8149 48.8292 96.6395C48.76 95.4641 49.728 94.427 50.9034 94.3578L59.8227 94.0813C61.2746 94.0121 62.6575 94.7036 63.4872 95.879L65.4231 98.4372C66.1145 99.4052 65.9071 100.788 65.0083 101.479C64.6626 101.756 64.2477 101.894 63.8329 101.894Z" fill="white"/>
<path d="M66.599 101.825C65.9076 101.825 65.2161 101.548 64.8013 100.926L62.8653 98.368C62.8653 98.368 62.8653 98.368 62.7962 98.368L53.8769 98.6445C52.7015 98.7137 51.6644 97.7457 51.5953 96.5703C51.5261 95.3949 52.4941 94.3578 53.6695 94.2886L62.5888 94.0121C64.0407 93.9429 65.4236 94.6343 66.2533 95.8097L68.1892 98.368C68.8806 99.336 68.6732 100.719 67.7744 101.41C67.4287 101.687 67.0138 101.825 66.599 101.825Z" fill="white"/>
</g>
</g>
<path d="M114 108C102.142 121.2 85.3088 129.581 66.5674 130C66.0222 130 65.5452 130 65 130C45.6453 130 28.1989 121.549 16 108H114Z" fill="#CCD0DE"/>
<path d="M113.702 107.887H70.9094L80.0531 81.8141C80.3666 80.8736 81.2548 80.2466 82.2476 80.2466H122.009C122.689 80.2466 123.159 80.9258 122.95 81.5528L113.702 107.887Z" fill="#2E57EF"/>
<path d="M110.933 104.752H51.316C50.5845 104.752 50.0098 105.326 50.0098 106.058V107.887H110.933V104.752Z" fill="#2E57EF"/>
<defs>
<filter id="filter0_d_1793_267" x="35.1941" y="87.572" width="37.4067" height="20.6123" filterUnits="userSpaceOnUse" color-interpolation-filters="sRGB">
<feFlood flood-opacity="0" result="BackgroundImageFix"/>
<feColorMatrix in="SourceAlpha" type="matrix" values="0 0 0 0 0 0 0 0 0 0 0 0 0 0 0 0 0 0 127 0" result="hardAlpha"/>
<feOffset/>
<feGaussianBlur stdDeviation="2"/>
<feComposite in2="hardAlpha" operator="out"/>
<feColorMatrix type="matrix" values="0 0 0 0 0 0 0 0 0 0 0 0 0 0 0 0 0 0 0.12 0"/>
<feBlend mode="normal" in2="BackgroundImageFix" result="effect1_dropShadow_1793_267"/>
<feBlend mode="normal" in="SourceGraphic" in2="effect1_dropShadow_1793_267" result="shape"/>
</filter>
<linearGradient id="paint0_linear_1793_267" x1="47.7197" y1="154.641" x2="47.7197" y2="120.394" gradientUnits="userSpaceOnUse">
<stop stop-color="#FFBFD3"/>
<stop offset="1" stop-color="#FF6666"/>
</linearGradient>
<linearGradient id="paint1_linear_1793_267" x1="47.7195" y1="144.017" x2="47.7195" y2="123.409" gradientUnits="userSpaceOnUse">
<stop stop-color="white"/>
<stop offset="1" stop-color="#FFFF66"/>
</linearGradient>
<linearGradient id="paint2_linear_1793_267" x1="47.7357" y1="65.2343" x2="47.7357" y2="131.955" gradientUnits="userSpaceOnUse">
<stop stop-color="white"/>
<stop offset="1" stop-color="#E9E9E9"/>
</linearGradient>
</defs>
</svg>
