<svg width="131" height="131" viewBox="0 0 131 131" fill="none" xmlns="http://www.w3.org/2000/svg">
<rect x="0.5" y="0.382568" width="130" height="130" rx="65" fill="#FFE3E1"/>
<rect x="0.5" y="0.382568" width="130" height="130" rx="65" fill="white"/>
<path d="M25.8687 73.4658L32.3789 59.9484C32.3034 59.0518 32.3789 57.4409 32.3789 56.5291C32.3789 38.3691 47.6424 23.788 65.9722 25.0797C81.349 26.1586 93.8105 38.6275 94.9736 54.0901C95.4267 60.1687 94.1655 65.913 91.6279 70.8899C89.483 75.0994 88.267 79.7268 88.267 84.4605V105.546H53.5258V100.098C53.5258 98.487 52.2267 97.1877 50.6332 97.1877H41.9101C37.4768 97.1877 33.8894 93.5709 33.8894 89.1183V78.9517H29.3277C26.5258 78.9517 24.6754 76.0264 25.8687 73.4734V73.4658Z" fill="#BCE4FF"/>
<path d="M99.3552 91.4473L98.1635 90.2664C96.2583 93.2719 93.859 95.7404 90.8379 97.5256L92.0296 98.7065C93.301 99.9664 95.3655 99.9664 96.6409 98.7065L99.3591 96.0129C100.631 94.753 100.631 92.7072 99.3591 91.4433L99.3552 91.4473Z" fill="#E23B3B"/>
<path d="M99.3552 91.4473L98.1635 90.2664C96.2583 93.2719 93.859 95.7404 90.8379 97.5256L92.0296 98.7065C93.301 99.9664 95.3655 99.9664 96.6409 98.7065L99.3591 96.0129C100.631 94.753 100.631 92.7072 99.3591 91.4433L99.3552 91.4473Z" fill="white"/>
<path d="M103.827 100.223L98.965 95.4048L95.0193 99.3148L99.8817 104.133C100.779 105.022 102.229 105.022 103.126 104.133L103.827 103.438C104.724 102.549 104.724 101.112 103.827 100.223Z" fill="#E23B3B"/>
<path d="M103.827 100.223L98.965 95.4048L95.0193 99.3148L99.8817 104.133C100.779 105.022 102.229 105.022 103.126 104.133L103.827 103.438C104.724 102.549 104.724 101.112 103.827 100.223Z" fill="#5C6887"/>
<path d="M97.0067 89.4641L95.7147 90.7444C93.9581 93.2037 91.9001 95.3341 89.5 97.09L90.935 98.512C92.1401 99.7062 93.8968 100.015 95.3879 99.4482L98.2782 96.584C99.9073 94.9698 99.9073 92.3485 98.2782 90.7292L97.0067 89.4692V89.4641Z" fill="#4A7AFF"/>
<path d="M81.7428 99.7215C91.8683 99.7215 100.077 91.5875 100.077 81.5537C100.077 71.52 91.8683 63.386 81.7428 63.386C71.6173 63.386 63.4089 71.52 63.4089 81.5537C63.4089 91.5875 71.6173 99.7215 81.7428 99.7215Z" fill="#D5E1EF"/>
<path d="M81.7428 99.7215C91.8683 99.7215 100.077 91.5875 100.077 81.5537C100.077 71.52 91.8683 63.386 81.7428 63.386C71.6173 63.386 63.4089 71.52 63.4089 81.5537C63.4089 91.5875 71.6173 99.7215 81.7428 99.7215Z" fill="#7D89AA"/>
<path d="M81.7205 95.9366C89.5239 95.9366 95.8499 89.6106 95.8499 81.8071C95.8499 74.0037 89.5239 67.6777 81.7205 67.6777C73.917 67.6777 67.5911 74.0037 67.5911 81.8071C67.5911 89.6106 73.917 95.9366 81.7205 95.9366Z" fill="#4F88FF"/>
<path d="M81.7205 95.9366C89.5239 95.9366 95.8499 89.6106 95.8499 81.8071C95.8499 74.0037 89.5239 67.6777 81.7205 67.6777C73.917 67.6777 67.5911 74.0037 67.5911 81.8071C67.5911 89.6106 73.917 95.9366 81.7205 95.9366Z" fill="white"/>
<path d="M64.5781 39.2783C64.0004 37.8325 62.7643 36.7838 61.3511 36.6995C60.1305 36.6222 59.0302 37.1998 58.2996 38.1402C57.5689 37.1998 56.4686 36.6222 55.248 36.6995C53.8314 36.7838 52.5987 37.8325 52.0211 39.2783C50.3724 43.4233 55.3133 47.637 57.5861 50.1092C57.7838 50.3259 58.0451 50.4325 58.2996 50.4325C58.554 50.4325 58.8153 50.3259 59.013 50.1092C61.2875 47.637 66.2285 43.4233 64.5781 39.2783Z" fill="#FF5987"/>
<path d="M59.5265 72.8333L54.521 59.4243H51.3339L49.7454 55.6085L48.1584 59.4243H41.4214V56.9166H46.7347L49.7454 49.6881L52.7548 56.9166H56.0055L59.5814 66.4981L68.4431 44.0178L73.6133 57.1363H81.4214V59.6426H72.1607L68.4431 50.2114L59.5265 72.8333Z" fill="#3256C1"/>
<path d="M77.9374 81.6931C77.8659 75.4156 79.4314 70.4797 81.5014 70.4561C83.5709 70.4326 85.2482 75.3317 85.3197 81.6096C85.3908 87.8875 83.8252 92.8235 81.7557 92.8466C79.6862 92.8702 78.0089 87.9711 77.9374 81.6931ZM84.9052 81.6143C84.832 75.1651 83.0887 70.8522 81.5057 70.8702C79.9234 70.8882 78.2778 75.2396 78.3515 81.6888C78.4247 88.1381 80.1684 92.4509 81.751 92.4325C83.3337 92.4145 84.9788 88.0631 84.9056 81.6143H84.9052Z" fill="#59D9A4" stroke="#59D9A4" stroke-width="0.2"/>
<path d="M83.5764 84.7863C78.2443 88.0997 73.2112 89.3184 72.1188 87.5606C71.0261 85.8024 74.3472 81.83 79.6801 78.5161C85.0126 75.2026 90.0453 73.9839 91.1376 75.7421C92.23 77.5004 88.9088 81.4728 83.5764 84.7863ZM79.8985 78.8676C74.4209 82.2719 71.635 85.9977 72.4704 87.3418C73.3058 88.6864 77.8804 87.8385 83.358 84.4347C88.8356 81.0305 91.6215 77.3047 90.7861 75.9605C89.9511 74.616 85.3765 75.4638 79.8985 78.8676Z" fill="#59D9A4" stroke="#59D9A4" stroke-width="0.2"/>
<path d="M83.2888 78.3543C88.8961 81.1779 92.559 84.8377 91.6285 86.6863C90.6976 88.5353 85.5758 87.7714 79.9685 84.9478C74.3615 82.1242 70.6978 78.4643 71.6287 76.6158C72.5601 74.7672 77.6814 75.5307 83.2888 78.3543ZM80.1543 84.5782C85.915 87.4789 90.5469 87.914 91.2585 86.5005C91.9698 85.087 88.8627 81.6249 83.1021 78.7242C77.3418 75.8236 72.7099 75.3885 71.9983 76.802C71.2862 78.2155 74.3936 81.6776 80.1539 84.5782H80.1543Z" fill="#59D9A4" stroke="#59D9A4" stroke-width="0.2"/>
<path d="M75.1228 84.0913C75.1228 84.7817 74.5632 85.3413 73.8728 85.3413C73.1824 85.3413 72.6228 84.7817 72.6228 84.0913C72.6228 83.4009 73.1819 82.8413 73.8728 82.8413C74.5637 82.8413 75.1228 83.4009 75.1228 84.0913Z" fill="#59D9A4"/>
<path d="M88.147 87.5444C88.147 88.2343 87.5874 88.7944 86.897 88.7944C86.2066 88.7944 85.647 88.2349 85.647 87.5444C85.647 86.854 86.2066 86.2944 86.897 86.2944C87.5874 86.2944 88.147 86.854 88.147 87.5444Z" fill="#59D9A4"/>
<path d="M81.0537 72.8987C81.0537 73.5891 80.4941 74.1487 79.8037 74.1487C79.1133 74.1487 78.5537 73.5891 78.5537 72.8987C78.5537 72.2083 79.1138 71.6487 79.8037 71.6487C80.4936 71.6487 81.0537 72.2083 81.0537 72.8987Z" fill="#59D9A4"/>
</svg>
