<svg width="112" height="100" viewBox="0 0 112 100" fill="none" xmlns="http://www.w3.org/2000/svg">
<g clip-path="url(#clip0_364_5920)">
<path d="M54.3511 43.617C12.2234 49.7872 29.7766 100 55.5213 100C81.266 100 85.6277 80.1063 84.7766 69.8936C83.9255 59.6808 80.4149 39.7872 54.3511 43.617Z" fill="#F48682"/>
<path d="M48.8192 37.4468C51.6915 38.7234 58.1809 38.2979 60.8404 37.4468C63.5 36.5957 59.9894 19.8936 59.3511 18.7234C58.8192 17.5532 68.3936 19.0426 69.5638 17.234C70.734 15.5319 54.1383 0 52.3298 0C50.6277 0 39.1383 16.0638 39.4575 17.5532C39.7766 19.0426 48.8192 17.8723 49.6702 18.7234C50.6277 19.5745 46.7979 36.5957 48.8192 37.4468Z" fill="#E7CF7F"/>
<path d="M81.1595 43.5106C82.4361 46.383 87.4361 50.5319 89.8829 51.7021C92.4361 52.8723 101.266 38.2979 101.585 37.0213C102.011 35.7447 107.968 43.4043 110.096 42.9787C112.117 42.4468 110.628 19.7872 109.351 18.617C108.074 17.4468 88.7127 21.383 87.968 22.6596C87.117 23.8298 94.5638 29.1489 94.5638 30.4255C94.6702 31.7021 80.2021 41.4894 81.1595 43.5106Z" fill="#E7CF7F"/>
<path d="M30.9468 45.8511C29.6702 48.7234 24.6702 52.8724 22.2234 54.0426C19.6702 55.2128 10.7341 40.6383 10.4149 39.3617C9.98937 38.0851 4.03192 45.7447 1.90427 45.3192C-0.223395 44.8936 1.47873 22.1277 2.75533 20.9575C4.03192 19.7873 23.3936 23.7234 24.1383 25C24.883 26.2766 17.5426 31.5958 17.4362 32.8724C17.4362 34.0426 31.7979 43.8298 30.9468 45.8511Z" fill="#E7CF7F"/>
<path d="M65.415 47.234C63.5001 46.2766 62.0107 48.9361 63.7128 50.1063C67.0107 52.3404 69.6703 55.1063 71.7979 58.5106C73.8192 61.7021 74.3511 65.3191 75.6277 68.7234C76.3724 70.851 79.2448 70.4255 79.4575 68.1915C80.3086 59.3617 72.649 50.9574 65.415 47.234Z" fill="#F48782"/>
<path d="M77.1171 74.3617C76.7979 76.5957 76.4788 78.617 76.9043 80.851C77.2235 82.5532 79.4575 82.1276 79.9894 80.851C80.7341 78.9361 80.8405 76.9149 80.9469 74.8936C81.0532 72.7659 77.4362 72.234 77.1171 74.3617Z" fill="#F48782"/>
<path d="M39.3511 37.4468C38.9256 35.8511 38.0745 34.4681 37.3298 32.9787C36.5852 31.4894 34.2447 32.766 34.9894 34.3617C35.6277 35.7447 36.266 37.1277 37.2234 38.4043C38.0745 39.2553 39.7766 38.7234 39.3511 37.4468Z" fill="#E7CF7F"/>
<path d="M73.1809 31.2766C71.4787 31.4893 70.6277 33.5106 69.883 34.8936C69.1383 36.1702 70.734 38.1914 72.117 37.1276C73.5 36.0638 75.4149 35 75.5213 33.0851C75.6277 31.7021 74.3511 31.0638 73.1809 31.2766Z" fill="#E7CF7F"/>
<path d="M20.2021 62.5532C18.8191 62.9787 17.2234 62.8723 15.8404 62.5532C14.2446 62.1277 13.7127 64.3617 15.2021 64.8936C17.2234 65.6383 19.1383 65.3191 20.9468 64.2553C21.7978 63.7234 21.2659 62.3404 20.2021 62.5532Z" fill="#E7CF7F"/>
<path d="M97.0107 56.9149C95.2022 57.5532 93.2873 58.0851 91.6916 59.2554C90.2022 60.3192 91.1596 62.4468 92.8618 62.1277C94.7767 61.8086 96.4788 60.8511 98.2873 60C99.9894 59.2554 98.7128 56.2766 97.0107 56.9149Z" fill="#E7CF7F"/>
<g clip-path="url(#clip1_364_5920)">
<path d="M46.9295 67.7755C46.9295 67.7755 46.3987 77.1736 46.6908 77.6452C53.4443 81.2058 62.1801 80.6255 68.4034 76.2029L67.5342 66.3104L46.9289 67.7755H46.9295Z" fill="#E7CF7F"/>
<path d="M57.8298 75.3799L77 68.1203L64.9561 59.0794L49.3998 59L37 66.8289L57.8298 75.3799Z" fill="#76A0EE"/>
<path d="M57.5546 65.9421C57.5149 65.6754 57.2677 65.4926 56.9997 65.5316C52.0814 66.2661 47.3661 68.8196 44.0632 72.5369C40.8637 76.1371 40.8357 79.7029 40.3979 84.5964C38.9595 85.1013 38.4397 86.5885 38.1255 88.0496C37.8288 89.4282 37.6421 90.8301 37.5686 92.2386C38.5353 92.7461 39.547 93.167 40.5879 93.4962C41.1526 93.6751 41.4134 93.6679 41.9124 93.2756C43.2318 92.2393 44.0261 90.5654 43.9949 88.8876C43.9598 87.0081 43.2149 84.7773 41.3874 84.4923C41.8012 79.8031 41.8454 76.5008 44.7925 73.1842C47.9464 69.6347 52.4483 67.1971 57.1441 66.4958C57.4108 66.4561 57.5943 66.2076 57.5546 65.9408V65.9421Z" fill="#1D1D3D"/>
</g>
</g>
<defs>
<clipPath id="clip0_364_5920">
<rect width="110.106" height="100" fill="white" transform="translate(0.946777)"/>
</clipPath>
<clipPath id="clip1_364_5920">
<rect width="40" height="34.6088" fill="white" transform="translate(37 59)"/>
</clipPath>
</defs>
</svg>
