<svg width="84" height="33" viewBox="0 0 84 33" fill="none" xmlns="http://www.w3.org/2000/svg">
<path d="M20.8049 23.4124C20.8049 23.4124 38.6392 40.0983 59.0032 23.4124" stroke="#B3B3FF" stroke-width="3" stroke-miterlimit="10" stroke-linecap="round" stroke-linejoin="round"/>
<path d="M13.8485 8.11679C13.8485 12.1619 10.9393 15.4485 7.27129 15.4485C3.60325 15.4485 0.694092 12.1619 0.694092 8.11679C0.694092 4.07172 3.60325 0.785095 7.27129 0.785095C10.8129 0.785095 13.8485 4.07172 13.8485 8.11679Z" fill="#B3B3FF"/>
<path d="M79.1146 8.11666C79.1146 12.1617 76.2054 15.4483 72.5374 15.4483C68.8693 15.4483 65.9602 12.1617 65.9602 8.11666C65.9602 4.07159 68.8693 0.784973 72.5374 0.784973C76.2054 0.784973 79.1146 4.07159 79.1146 8.11666Z" fill="#B3B3FF"/>
</svg>
