<svg width="527" height="320" viewBox="0 0 527 320" fill="none" xmlns="http://www.w3.org/2000/svg">
<g clip-path="url(#clip0_364_6142)">
<path d="M367.588 45.4224H149.899V190.824H367.588V45.4224Z" fill="#78B3A5"/>
<path d="M371.577 194.004H145.91V42.2427H371.577V194.004ZM149.899 190.824H367.588V45.4224H149.899V190.824Z" fill="#97B8E6"/>
<path d="M373.022 193.889H144.792C143.598 193.889 142.615 192.906 142.615 191.711V191.595C142.615 190.4 143.598 189.418 144.792 189.418H373.022C374.217 189.418 375.2 190.4 375.2 191.595V191.711C375.2 192.906 374.217 193.889 373.022 193.889Z" fill="#D39E7A"/>
<path d="M324.382 189.398H317.752C316.962 189.398 316.307 188.743 316.307 187.953V187.876C316.307 187.086 316.962 186.431 317.752 186.431H324.382C325.172 186.431 325.827 187.086 325.827 187.876V187.953C325.808 188.762 325.172 189.398 324.382 189.398Z" fill="white"/>
<path d="M280.674 189.398H277.36C276.762 189.398 276.261 188.897 276.261 188.3V187.529C276.261 186.932 276.762 186.431 277.36 186.431H280.674C281.272 186.431 281.773 186.932 281.773 187.529V188.3C281.773 188.917 281.272 189.398 280.674 189.398Z" fill="white"/>
<path d="M273.178 189.398H266.452C265.662 189.398 265.007 188.743 265.007 187.953V187.876C265.007 187.086 265.662 186.431 266.452 186.431H273.178C273.968 186.431 274.623 187.086 274.623 187.876V187.953C274.623 188.762 273.987 189.398 273.178 189.398Z" fill="white"/>
<path d="M433.766 104.296H403.182C401.775 104.296 400.638 103.14 400.638 101.752V72.2096C400.638 70.8028 401.794 69.6658 403.182 69.6658H433.766C435.172 69.6658 436.309 70.8221 436.309 72.2096V101.733C436.329 103.14 435.172 104.296 433.766 104.296Z" fill="#97B8E6"/>
<path d="M432.436 102.793H404.492C403.201 102.793 402.161 101.753 402.161 100.461V73.5008C402.161 72.2096 403.201 71.1689 404.492 71.1689H432.436C433.727 71.1689 434.768 72.2096 434.768 73.5008V100.461C434.768 101.753 433.727 102.793 432.436 102.793Z" fill="#DEEFFF"/>
<path d="M417.732 74.3294C417.732 73.9247 418.06 73.5971 418.464 73.5971C418.869 73.5971 419.197 73.9247 419.197 74.3294C419.197 74.7341 418.869 75.0617 418.464 75.0617C418.06 75.0617 417.732 74.7341 417.732 74.3294Z" fill="#97B8E6"/>
<path d="M423.706 75.3701C423.899 75.0039 424.361 74.8883 424.708 75.081C425.074 75.2737 425.19 75.7362 424.997 76.0831C424.804 76.4493 424.342 76.5649 423.995 76.3722C423.629 76.1795 423.494 75.717 423.706 75.3701Z" fill="#97B8E6"/>
<path d="M428.813 79.4363C429.16 79.2243 429.622 79.3207 429.834 79.6483C430.046 79.9952 429.95 80.4577 429.622 80.6697C429.275 80.8817 428.813 80.7853 428.601 80.4577C428.37 80.1108 428.466 79.6483 428.813 79.4363Z" fill="#97B8E6"/>
<path d="M431.338 85.7188C431.742 85.7188 432.07 86.0464 432.07 86.4511C432.07 86.8558 431.742 87.1834 431.338 87.1834C430.933 87.1834 430.605 86.8558 430.605 86.4511C430.605 86.0464 430.933 85.7188 431.338 85.7188Z" fill="#97B8E6"/>
<path d="M430.046 93.0033C430.335 93.2924 430.335 93.7549 430.046 94.044C429.757 94.333 429.295 94.333 429.006 94.044C428.717 93.7549 428.717 93.2924 429.006 93.0033C429.295 92.7142 429.757 92.7142 430.046 93.0033Z" fill="#97B8E6"/>
<path d="M425.402 97.6669C425.691 97.956 425.691 98.4185 425.402 98.7076C425.113 98.9967 424.65 98.9967 424.361 98.7076C424.072 98.4185 424.072 97.956 424.361 97.6669C424.65 97.3779 425.113 97.3779 425.402 97.6669Z" fill="#97B8E6"/>
<path d="M417.732 100.057C417.732 99.6519 418.06 99.3243 418.464 99.3243C418.869 99.3243 419.197 99.6519 419.197 100.057C419.197 100.461 418.869 100.789 418.464 100.789C418.06 100.789 417.732 100.481 417.732 100.057Z" fill="#97B8E6"/>
<path d="M413.222 75.3701C413.03 75.0039 412.567 74.8883 412.22 75.081C411.854 75.2737 411.738 75.7362 411.931 76.0831C412.124 76.4493 412.586 76.5649 412.933 76.3722C413.299 76.1795 413.415 75.717 413.222 75.3701Z" fill="#97B8E6"/>
<path d="M408.115 79.4363C407.769 79.2243 407.306 79.3207 407.094 79.6483C406.882 79.9952 406.978 80.4577 407.306 80.6697C407.653 80.8817 408.115 80.7853 408.327 80.4577C408.559 80.1108 408.443 79.6483 408.115 79.4363Z" fill="#97B8E6"/>
<path d="M405.572 85.7188C405.167 85.7188 404.839 86.0464 404.839 86.4511C404.839 86.8558 405.167 87.1834 405.572 87.1834C405.976 87.1834 406.304 86.8558 406.304 86.4511C406.323 86.0464 405.976 85.7188 405.572 85.7188Z" fill="#97B8E6"/>
<path d="M406.863 93.0033C406.574 93.2924 406.574 93.7549 406.863 94.044C407.152 94.333 407.614 94.333 407.903 94.044C408.192 93.7549 408.192 93.2924 407.903 93.0033C407.634 92.7142 407.152 92.7142 406.863 93.0033Z" fill="#97B8E6"/>
<path d="M411.507 97.667C411.218 97.9561 411.218 98.4186 411.507 98.7077C411.796 98.9967 412.259 98.9967 412.548 98.7077C412.837 98.4186 412.837 97.9561 412.548 97.667C412.278 97.3779 411.796 97.3779 411.507 97.667Z" fill="#97B8E6"/>
<path d="M418.271 86.4511C418.271 86.0464 418.599 85.7188 419.004 85.7188C419.409 85.7188 419.736 86.0464 419.736 86.4511C419.736 86.8558 419.409 87.1834 419.004 87.1834C418.599 87.1834 418.271 86.8558 418.271 86.4511Z" fill="#97B8E6"/>
<path d="M419.1 77.2202H418.907V86.4511H419.1V77.2202Z" fill="#97B8E6"/>
<path d="M423.609 82.3655L418.713 86.2086L419.082 86.6785L423.978 82.8354L423.609 82.3655Z" fill="#97B8E6"/>
<path d="M128.585 237.191V239.253C128.585 239.966 128.354 240.564 128.065 240.564H53.0225C52.7335 240.564 52.5022 239.966 52.5022 239.253V237.191C52.5022 236.478 52.7335 235.881 53.0225 235.881H128.084C128.354 235.881 128.585 236.478 128.585 237.191Z" fill="#7A9ED3"/>
<path d="M128.585 237.191V239.253C128.585 239.966 128.373 240.564 128.103 240.564H68.5357C68.2659 240.564 68.054 239.966 68.054 239.253V237.191C68.054 236.478 68.2659 235.881 68.5357 235.881H128.123C128.373 235.881 128.585 236.478 128.585 237.191Z" fill="#ABCEEF"/>
<path d="M109.603 240.564H56.3179V318.227H109.603V240.564Z" fill="#97B8E6"/>
<path d="M124.538 240.564H71.2532V318.227H124.538V240.564Z" fill="#BFDDF9"/>
<path d="M121.667 313.93H74.1052V242.741H121.667V313.93ZM74.6256 313.428H121.146V243.281H74.6256V313.428Z" fill="#97B8E6"/>
<path d="M121.416 266.291H74.375V266.811H121.416V266.291Z" fill="#97B8E6"/>
<path d="M121.416 290.303H74.375V290.823H121.416V290.303Z" fill="#97B8E6"/>
<path d="M102.704 247.347H93.974C93.55 247.347 93.2031 247 93.2031 246.576C93.2031 246.152 93.55 245.805 93.974 245.805H102.704C103.128 245.805 103.475 246.152 103.475 246.576C103.475 247 103.128 247.347 102.704 247.347Z" fill="#97B8E6"/>
<path d="M102.704 270.82H93.974C93.55 270.82 93.2031 270.473 93.2031 270.049C93.2031 269.625 93.55 269.278 93.974 269.278H102.704C103.128 269.278 103.475 269.625 103.475 270.049C103.475 270.473 103.128 270.82 102.704 270.82Z" fill="#97B8E6"/>
<path d="M102.704 295.294H93.974C93.55 295.294 93.2031 294.947 93.2031 294.523C93.2031 294.099 93.55 293.753 93.974 293.753H102.704C103.128 293.753 103.475 294.099 103.475 294.523C103.475 294.947 103.128 295.294 102.704 295.294Z" fill="#97B8E6"/>
<path d="M420.006 317.34H420.102C420.642 317.34 421.085 316.897 421.066 316.338L419.601 252.57L415.265 252.069L418.965 316.338C418.984 316.897 419.447 317.34 420.006 317.34Z" fill="#97B8E6"/>
<path d="M445.251 317.34H445.348C445.887 317.34 446.33 316.897 446.311 316.338L444.847 252.57L440.51 252.069L444.211 316.338C444.249 316.897 444.712 317.34 445.251 317.34Z" fill="#97B8E6"/>
<path d="M375.585 317.34H375.489C374.949 317.34 374.506 316.897 374.526 316.338L375.99 252.57L380.326 252.069L376.626 316.338C376.588 316.897 376.125 317.34 375.585 317.34Z" fill="#97B8E6"/>
<path d="M448.123 248.619V204.931C448.123 197.242 441.898 191.017 434.209 191.017H402.739C395.05 191.017 388.825 197.242 388.825 204.931V250.296L448.123 248.619Z" fill="#ABD7EF"/>
<path d="M383.178 255.518H443.96C446.273 255.518 448.142 253.649 448.142 251.336V248.619H383.178V255.518Z" fill="#97B8E6"/>
<path d="M375.894 255.518H421.875C423.59 255.518 424.959 254.131 424.959 252.435V251.722C424.959 250.007 423.571 248.638 421.875 248.638H375.894C374.179 248.638 372.811 250.026 372.811 251.722V252.435C372.791 254.131 374.179 255.518 375.894 255.518Z" fill="#BFE1F9"/>
<path d="M478.456 318.67H478.571C479.284 318.67 479.862 318.034 479.862 317.283L477.916 227.999L472.192 227.286L477.087 317.283C477.107 318.054 477.704 318.67 478.456 318.67Z" fill="#7AA8D3"/>
<path d="M338.681 318.67H338.565C337.852 318.67 337.274 318.034 337.274 317.283L339.221 227.999L344.944 227.286L340.049 317.283C340.03 318.054 339.413 318.67 338.681 318.67Z" fill="#7AA8D3"/>
<path d="M489.248 229.637H331.339C330.105 229.637 329.122 228.635 329.122 227.421V225.628C329.122 224.395 330.124 223.412 331.339 223.412H489.248C490.481 223.412 491.464 224.414 491.464 225.628V227.421C491.464 228.654 490.462 229.637 489.248 229.637Z" fill="#7AA8D3"/>
<path d="M357.663 219.5H343.422V214.47H357.702C358.819 214.47 359.706 215.376 359.706 216.475V217.438C359.706 218.575 358.8 219.5 357.663 219.5Z" fill="#FCECDB"/>
<path d="M371.866 216.552V217.303C371.866 217.708 371.751 218.093 371.558 218.421C371.172 219.076 370.459 219.519 369.65 219.519H342.959C342.786 219.519 342.632 219.385 342.632 219.192V219.076C342.632 218.903 342.766 218.749 342.959 218.749H359.224C359.321 218.633 359.378 218.537 359.455 218.402C359.61 218.113 359.687 217.785 359.687 217.438V216.475C359.687 216.301 359.667 216.128 359.629 215.954C359.552 215.684 359.417 215.415 359.243 215.203H342.959C342.786 215.203 342.632 215.068 342.632 214.875V214.759C342.632 214.586 342.766 214.432 342.959 214.432H369.785C370.729 214.432 371.519 215.068 371.77 215.935C371.847 216.147 371.866 216.34 371.866 216.552Z" fill="#699DEE"/>
<path d="M371.789 215.973H359.648C359.571 215.704 359.436 215.434 359.263 215.222H342.978C342.805 215.222 342.651 215.087 342.651 214.894V214.779C342.651 214.605 342.786 214.451 342.978 214.451H369.804C370.748 214.47 371.539 215.106 371.789 215.973Z" fill="#548EE2"/>
<path d="M343.422 216.995L345.387 217.072L343.422 217.13V216.995Z" fill="#F4D2B8"/>
<path d="M343.422 217.785L348.124 217.862L343.422 217.92V217.785Z" fill="#F4D2B8"/>
<path d="M346.813 223.412H361.98V219.5H346.698C345.657 219.5 344.809 220.348 344.809 221.389C344.79 222.506 345.696 223.412 346.813 223.412Z" fill="#B5453C"/>
<path d="M361.093 223.412H378.341V219.5H361.055C359.995 219.5 359.128 220.367 359.128 221.427V221.447C359.128 222.526 360.014 223.412 361.093 223.412Z" fill="#FCECDB"/>
<path d="M357.971 223.412H378.939C379.093 223.412 379.228 223.277 379.228 223.123C379.228 222.969 379.093 222.834 378.939 222.834H357.971C357.817 222.834 357.682 222.969 357.682 223.123C357.682 223.277 357.817 223.412 357.971 223.412Z" fill="#B5453C"/>
<path d="M357.971 220.078H378.939C379.093 220.078 379.228 219.943 379.228 219.789C379.228 219.635 379.093 219.5 378.939 219.5H357.971C357.817 219.5 357.682 219.635 357.682 219.789C357.682 219.943 357.817 220.078 357.971 220.078Z" fill="#B5453C"/>
<path d="M378.36 221.447L376.029 221.524L378.36 221.562V221.447Z" fill="#F4D2B8"/>
<path d="M378.36 220.541L372.81 220.618L378.36 220.656V220.541Z" fill="#F4D2B8"/>
<path d="M372.868 220.599C372.868 220.599 373.099 220.772 373.177 221.042C373.196 221.1 373.196 221.138 373.196 221.196C373.215 221.562 373.196 222.391 373.196 222.391L373.89 221.967L374.583 222.391V221.273C374.583 221.061 374.525 220.849 374.41 220.714C374.352 220.656 374.294 220.599 374.217 220.599H372.868Z" fill="#699DEE"/>
<path d="M372.868 220.599C372.868 220.599 373.099 220.772 373.177 221.042L374.583 221.061C374.583 221.061 374.526 220.656 374.236 220.599H372.868Z" fill="#568CDB"/>
<path d="M373.003 214.47H364.871V210.712H373.08C373.678 210.712 374.159 211.194 374.159 211.792V213.314C374.14 213.95 373.639 214.47 373.003 214.47Z" fill="#F99746"/>
<path d="M367.048 214.47H341.552V210.712H367.087C368.07 210.712 368.879 211.522 368.879 212.505V212.64C368.898 213.661 368.07 214.47 367.048 214.47Z" fill="#FCECDB"/>
<path d="M370.671 214.47H340.57C340.415 214.47 340.3 214.355 340.3 214.201V214.181C340.3 214.027 340.415 213.911 340.57 213.911H370.671C370.826 213.911 370.941 214.027 370.941 214.181V214.201C370.941 214.355 370.826 214.47 370.671 214.47Z" fill="#F99746"/>
<path d="M370.671 211.271H340.57C340.415 211.271 340.3 211.156 340.3 211.001V210.982C340.3 210.828 340.415 210.712 340.57 210.712H370.671C370.826 210.712 370.941 210.828 370.941 210.982V211.001C370.941 211.156 370.826 211.271 370.671 211.271Z" fill="#F99746"/>
<path d="M472.713 220.849H471.634V202.329L482.637 174.232L462.981 159.007L463.655 158.16L483.948 173.885L472.713 202.541V220.849Z" fill="#97B8E6"/>
<path d="M460.765 160.954C460.264 160.607 460.148 159.913 460.495 159.431L462.133 157.119C462.48 156.618 463.174 156.502 463.655 156.849C464.156 157.196 464.272 157.89 463.925 158.372L462.287 160.684C461.94 161.185 461.266 161.301 460.765 160.954Z" fill="#97B8E6"/>
<path d="M483.042 175.35C483.83 175.35 484.468 174.711 484.468 173.923C484.468 173.136 483.83 172.497 483.042 172.497C482.255 172.497 481.616 173.136 481.616 173.923C481.616 174.711 482.255 175.35 483.042 175.35Z" fill="#97B8E6"/>
<path d="M463.212 176.93C463.154 176.988 463.116 177.045 463.058 177.103L463.039 177.123C462.981 177.18 462.942 177.238 462.884 177.277C461.42 178.549 456.544 176.275 451.823 172.054C447.101 167.834 444.288 163.247 445.405 161.648C445.444 161.59 445.502 161.532 445.54 161.474L445.56 161.455C445.598 161.397 445.656 161.339 445.714 161.282C450.03 156.444 457.45 156.04 462.287 160.357C467.105 164.673 467.529 172.093 463.212 176.93Z" fill="#F99746"/>
<path d="M463.058 177.103C463.039 177.142 463.019 177.161 463 177.18C462.962 177.219 462.942 177.257 462.904 177.277C461.439 178.549 456.563 176.275 451.842 172.054C447.121 167.834 444.307 163.247 445.425 161.648C445.463 161.609 445.482 161.571 445.521 161.532C445.54 161.513 445.56 161.494 445.579 161.474L445.598 161.455C446.6 160.511 449.317 161.359 452.497 163.401C453.846 164.269 455.272 165.367 456.698 166.639C457.816 167.641 458.818 168.662 459.705 169.645C462.518 172.902 463.964 175.908 463.058 177.103Z" fill="#F9DDBF"/>
<path d="M459.647 169.665C458.818 170.358 457.739 170.763 456.583 170.763C453.904 170.763 451.746 168.605 451.746 165.926C451.746 165.001 451.996 164.153 452.439 163.421C453.788 164.288 455.214 165.386 456.64 166.658C457.778 167.641 458.78 168.662 459.647 169.665Z" fill="#FFF0E3"/>
<path d="M477.396 223.412H466.565V222.314C466.565 221.215 467.452 220.329 468.55 220.329H475.314C476.451 220.329 477.376 221.254 477.376 222.391V223.412H477.396Z" fill="#97B8E6"/>
<path d="M473.31 203.64H471.036V220.849H473.31V203.64Z" fill="#97B8E6"/>
<path d="M240.686 239.369L250.052 201.713L316.172 218.151L240.686 239.369ZM253.058 206.723L246.41 233.472L300.061 218.402L253.058 206.723Z" fill="#BFD6F9"/>
<path d="M275.697 210.236L272.648 209.479L267.723 229.285L270.772 230.043L275.697 210.236Z" fill="#97B8E6"/>
<path d="M222.09 232.836C217.561 261.068 213.822 291.498 215.441 307.512C216.771 312.002 220.895 313.486 224.537 314.064L222.032 316.801L214.978 317.206L205.574 313.506C205.574 313.506 206.114 311.656 206.557 308.399C207.058 304.641 205.304 296.026 205.304 296.026C205.304 296.026 200.718 266.291 203.319 259.623C204.052 257.734 204.553 255.557 204.842 253.206C205.613 247.193 205.189 239.986 204.668 232.971C204.129 225.339 203.473 217.958 204.206 212.64C207.501 188.319 207.54 167.275 207.54 167.275H226.002C226.002 167.275 231.224 182.133 228.796 194.871C226.734 205.683 224.325 218.98 222.09 232.836Z" fill="#FFCFCA"/>
<path d="M204.861 253.186C205.632 247.174 205.208 239.966 204.688 232.951L218.312 227.44L222.089 232.836C221.511 233.549 211.375 245.497 204.861 253.186Z" fill="#F0C2BD"/>
<path d="M257.896 148.582C257.896 148.582 259.996 146.365 261.48 145.286C262.964 144.207 267.184 143.109 267.608 144.939C267.801 145.749 266.317 147.56 265.257 148.196C264.197 148.832 264.024 149.661 262.906 150.817C261.769 151.973 259.013 152.031 259.013 152.031L257.896 148.582Z" fill="#FFCFCA"/>
<path d="M196.478 130.313C195.591 128.617 215.672 122.508 215.981 139.254C215.981 139.254 253.579 138.329 235.618 117.381C229.413 110.135 230.049 104.123 230.222 98.5534C230.415 92.9647 226.348 76.7383 212.435 78.3763C212.435 78.3763 208.792 76.8925 204.244 79.2436C193.915 84.6203 170.751 136.499 196.478 130.313Z" fill="#233862"/>
<path d="M222.533 150.239C222.533 150.239 223.862 152.879 226.271 155.905C229.181 159.547 233.672 163.748 239.299 164.577C241.997 164.982 244.618 164.403 247.027 163.324C253.868 160.299 259.013 153.303 259.013 153.303C260.227 150.008 258.242 147.792 258.242 147.792C258.242 147.792 244.444 150.894 243.114 150.239C241.804 149.584 234.134 127.48 232.303 124.705C230.473 121.929 224.248 120.484 224.248 120.484L222.533 150.239Z" fill="#ADC8FE"/>
<path d="M226.291 155.905C229.201 159.547 233.691 163.748 239.318 164.577C242.016 164.982 244.637 164.403 247.046 163.324C246.776 163.363 239.954 164.211 237.237 159.335C234.462 154.363 231.455 146.481 227.331 149.102C225.539 150.239 225.616 153.072 226.291 155.905Z" fill="#8EB3EF"/>
<path d="M183.624 318.478C183.624 318.478 179.115 318.478 177.265 318.478C175.414 318.478 173.314 317.071 172.794 313.718C172.273 310.384 168.477 308.553 167.648 305.836C167.089 303.966 168.419 302.617 169.672 301.596C170.25 301.114 170.809 300.709 171.175 300.343C172.466 299.033 173.68 293.406 173.68 293.406L180.386 296.932C180.386 296.932 177.226 302.309 179.057 308.341C179.905 311.174 180.676 313.775 182.564 315.394C183.007 315.78 183.508 316.107 184.106 316.377C187.035 317.687 183.624 318.478 183.624 318.478Z" fill="#FFCFCA"/>
<path d="M188.48 139.254C188.48 139.254 188.133 144.226 188.48 150.201C188.712 154.151 192.72 159.451 193.279 160.761C194.705 164.057 196.304 164.577 196.304 164.577L208.734 167.622L213.109 168.682L226.888 164.558C226.888 164.558 233.17 147.04 230.646 137.173C228.121 127.306 224.267 120.465 224.267 120.465C224.267 120.465 208.426 116.341 196.15 119.925L188.48 139.254Z" fill="#ADC8FE"/>
<path d="M197.114 166.6C197.114 166.6 186.707 180.572 185.744 190.015C184.78 199.458 193.973 225.59 191.911 234.782C190.369 241.604 182.198 247.039 179.943 264.248C179.153 270.222 176.32 282.19 173.719 293.386L179.481 299.052C193.221 267.755 207.424 248.041 208.253 241.123C208.85 236.228 211.625 210.462 222.899 191.422C225.597 186.855 221.242 168.701 221.242 168.701L197.114 166.6Z" fill="#FFCFCA"/>
<path d="M229.451 198.764C227.929 217.419 226.117 233.125 226.117 233.125C226.117 233.125 217.426 238.983 205.112 239.735C199.484 240.082 193.125 239.35 186.476 236.517C186.476 236.517 183.952 191.48 185.551 184.311C187.17 177.142 194.3 167.275 194.3 167.275L226.406 168.508C226.426 168.489 230.993 180.11 229.451 198.764Z" fill="#F99746"/>
<path d="M227.1 163.96C227.1 163.96 224.364 166.119 218.91 166.234C212.415 166.369 196.304 164.577 196.304 164.577C196.304 164.577 195.591 166.581 195.611 168.682C195.611 168.682 215.287 173.634 226.676 169.414C226.695 169.414 228.179 166.658 227.1 163.96Z" fill="#ED7D2B"/>
<path d="M217.522 168.489C217.522 166.639 218.852 165.136 220.49 165.136C222.128 165.136 223.458 166.639 223.458 168.489C223.458 170.339 222.128 171.842 220.49 171.842C218.852 171.842 217.522 170.339 217.522 168.489ZM218.505 168.489C218.505 169.799 219.392 170.859 220.49 170.859C221.588 170.859 222.475 169.799 222.475 168.489C222.475 167.178 221.588 166.119 220.49 166.119C219.392 166.099 218.505 167.178 218.505 168.489Z" fill="white"/>
<path d="M175.127 167.787L195.287 185.341L219.307 157.754L199.147 140.201L175.127 167.787Z" fill="#233862"/>
<path d="M200.872 167.872C200.872 167.872 208.253 168.739 208.234 170.493C208.214 172.247 206.403 175.851 205.478 176.005C204.572 176.159 199.465 171.129 199.465 171.129L200.872 167.872Z" fill="#FFCFCA"/>
<path d="M198.405 119.559C198.405 119.559 188.538 120.253 184.761 129.445C180.984 138.638 173.815 154.055 173.815 156.656C173.815 159.258 177.823 167.256 199.33 171.842C199.33 171.842 201.546 169.51 201.411 167.66C201.411 167.66 187.979 156.136 188.018 154.787C188.095 152.243 190.215 148.871 202.009 137.077C205.227 133.858 198.405 119.559 198.405 119.559Z" fill="#ADC8FE"/>
<path d="M256.469 174.906L286.012 88.0698C286.147 87.6651 286.321 87.299 285.935 87.1448L285.569 87.0099C285.164 86.8557 285.049 87.1255 284.895 87.5302L253.405 173.114C253.116 173.923 253.502 174.849 254.292 175.195L255.024 175.523C255.602 175.774 256.277 175.484 256.469 174.906Z" fill="#F9DDBF"/>
<path d="M260.478 148.158C260.478 148.158 261.827 148.119 263.234 147.734C264.352 147.445 265.778 146.924 265.778 146.924C266.626 147.541 263.696 149.218 262.945 150.355C262.328 151.28 261.634 151.549 259.958 151.916L260.478 148.158Z" fill="#FFCFCA"/>
<path d="M213.263 318.227C217.368 317.726 216.289 318.767 222.051 318.805C227.813 318.844 229.779 316.917 230.049 316.088C230.299 315.356 227.505 314.758 224.537 314.064L224.421 314.141C224.421 314.141 220.798 316.146 216.058 315.702C212.184 315.336 208.234 313.756 205.574 313.506C205.42 314.373 205.247 315.278 205.324 316.184C205.536 318.747 209.159 318.728 213.263 318.227Z" fill="#233862"/>
<path d="M183.624 318.478C183.624 318.478 179.115 318.478 177.265 318.478C175.414 318.478 173.314 317.071 172.794 313.718C172.273 310.384 168.477 308.553 167.648 305.836C167.089 303.966 168.419 302.617 169.672 301.596C170.365 302.637 171.888 305.257 173.352 310.075C175.087 315.702 179.23 315.876 182.545 315.394C182.988 315.78 183.489 316.107 184.087 316.377C187.035 317.687 183.624 318.478 183.624 318.478Z" fill="#233862"/>
<path d="M199.947 119.077C201.951 118.634 203.589 117.227 204.283 115.3C205.111 112.988 205.767 109.557 205.747 105.26L206.364 105.375L216.848 107.457C216.848 107.457 216.616 110.752 216.597 113.874C216.597 113.893 216.597 113.932 216.597 113.951C216.578 116.649 218.351 119.039 220.952 119.79C222.282 120.176 214.631 130.235 213.764 130.043C211.972 129.619 199.311 119.232 199.947 119.077Z" fill="#FFCFCA"/>
<path d="M216.867 107.476C216.867 107.476 216.636 110.771 216.617 113.893C210.739 113.72 207.636 108.382 206.364 105.414L216.867 107.476Z" fill="#EEBEB9"/>
<path d="M218.833 110.405C218.833 110.405 204.938 110.637 204.938 101.984C204.938 93.3309 203.127 87.5302 211.991 87.0292C220.856 86.5088 222.591 89.8235 223.284 92.6949C223.997 95.5856 222.436 110.135 218.833 110.405Z" fill="#FFCFCA"/>
<path d="M218.312 86.8172C218.312 86.8172 214.516 96.9731 208.677 98.4763C202.838 99.9795 200.313 98.4185 200.313 98.4185C200.313 98.4185 204.784 94.8533 205.709 88.6479C205.709 88.6479 215.441 81.9801 218.312 86.8172Z" fill="#233862"/>
<path d="M217.368 87.6458C217.368 87.6458 220.182 88.7058 221.357 90.7485C222.494 92.7527 223.458 95.4314 223.227 98.6883C223.227 98.6883 226.098 91.7892 222.88 87.8964C219.469 83.753 217.368 87.6458 217.368 87.6458Z" fill="#233862"/>
<path d="M216.115 105.279C216.115 105.279 216.347 106.3 218.891 106.146C218.891 106.146 221.01 106.011 220.953 104.894C220.953 104.894 218.891 104.084 216.115 105.279Z" fill="white"/>
<path d="M213.784 130.043C213.784 130.043 204.399 120.002 204.032 115.898C204.032 115.898 201.643 116.572 198.829 119.309C198.829 119.309 201.084 124.955 203.782 126.824C203.782 126.824 205.748 126.555 207.289 125.919C207.289 125.919 206.306 127.537 205.536 128.52C205.536 128.52 209.794 130.929 213.784 130.043Z" fill="#D7E6FF"/>
<path d="M217.079 116.283C217.079 116.283 220.779 123.047 213.784 130.043C213.784 130.043 218.178 129.195 220.432 126.111C220.432 126.111 219.739 124.454 219.141 124.069C219.141 124.069 220.452 123.548 221.28 124.319C221.28 124.319 221.781 120.696 221.28 119.578C220.779 118.461 218.158 116.244 217.079 116.283Z" fill="#D7E6FF"/>
<path d="M213.09 130.043C213.09 129.657 213.398 129.349 213.784 129.349C214.169 129.349 214.477 129.657 214.477 130.043C214.477 130.428 214.169 130.736 213.784 130.736C213.398 130.736 213.09 130.428 213.09 130.043Z" fill="#233862"/>
<path d="M216.828 139.948C216.828 139.563 217.137 139.254 217.522 139.254C217.908 139.254 218.216 139.563 218.216 139.948C218.216 140.334 217.908 140.642 217.522 140.642C217.137 140.642 216.828 140.353 216.828 139.948Z" fill="#233862"/>
<path d="M217.522 151.588C217.522 151.203 217.831 150.894 218.216 150.894C218.601 150.894 218.91 151.203 218.91 151.588C218.91 151.973 218.601 152.282 218.216 152.282C217.831 152.282 217.522 151.973 217.522 151.588Z" fill="#233862"/>
<path d="M229.451 198.764C227.929 217.419 226.117 233.125 226.117 233.125C226.117 233.125 217.426 238.983 205.112 239.735C205.324 239.658 212.319 236.96 217.503 230.889C222.783 224.723 229.451 198.764 229.451 198.764Z" fill="#ED7D2B"/>
<g opacity="0.6">
<path d="M308.926 60.4926H310.063L313.146 67.5459H311.855L311.142 65.85H307.827L307.114 67.5459H305.862L308.926 60.4926ZM310.68 64.7516L309.466 61.9572L308.271 64.7516H310.68Z" fill="white"/>
<path d="M320.489 60.5311H323.63C324.439 60.5311 325.056 60.7431 325.461 61.1478C325.769 61.4561 325.923 61.8416 325.923 62.3234C325.923 63.1713 325.441 63.6145 324.921 63.8843C325.75 64.1734 326.309 64.6359 326.309 65.5995C326.309 66.8521 325.287 67.5266 323.726 67.5266H320.489V60.5311ZM323.379 63.4796C324.17 63.4796 324.709 63.1713 324.709 62.5161C324.709 61.9572 324.266 61.6296 323.476 61.6296H321.703V63.4989H323.379V63.4796ZM323.746 66.4474C324.594 66.4474 325.095 66.1198 325.095 65.4646C325.095 64.8672 324.632 64.5203 323.649 64.5203H321.703V66.4474H323.746Z" fill="white"/>
<path d="M333.555 64.0385C333.555 62.0536 335.039 60.4155 337.158 60.4155C338.45 60.4155 339.22 60.8588 339.895 61.514L339.105 62.4197C338.546 61.8994 337.949 61.5525 337.139 61.5525C335.79 61.5525 334.827 62.651 334.827 64.0385C334.827 65.4068 335.79 66.5245 337.139 66.5245C338.006 66.5245 338.546 66.1776 339.143 65.6188L339.934 66.4282C339.201 67.1798 338.411 67.6615 337.101 67.6615C335.077 67.6615 333.555 66.062 333.555 64.0385Z" fill="white"/>
<path d="M300.157 76.2565H302.759C304.956 76.2565 306.478 77.7597 306.478 79.7639C306.478 81.7296 304.956 83.2713 302.759 83.2713H300.157V76.2565ZM302.759 82.1343C304.224 82.1343 305.187 81.1514 305.187 79.7446C305.187 78.3764 304.224 77.355 302.759 77.355H301.372V82.115H302.759V82.1343Z" fill="white"/>
<path d="M314.129 76.2565H319.313V77.355H315.343V79.1665H318.851V80.265H315.343V82.1535H319.352V83.252H314.11V76.2565H314.129Z" fill="white"/>
<path d="M326.983 76.2565H332.186V77.3743H328.197V79.2821H331.724V80.3999H328.197V83.252H326.964V76.2565H326.983Z" fill="white"/>
<path d="M339.394 79.7639C339.394 77.7983 340.897 76.1409 342.998 76.1409C344.212 76.1409 344.963 76.4878 345.696 77.0852L344.925 78.0102C344.385 77.5477 343.845 77.2587 342.959 77.2587C341.668 77.2587 340.685 78.3957 340.685 79.7447C340.685 81.19 341.629 82.2499 343.075 82.2499C343.73 82.2499 344.327 82.0379 344.77 81.7103V80.3999H342.978V79.3207H345.965V82.2885C345.272 82.8859 344.289 83.3869 343.036 83.3869C340.82 83.3869 339.394 81.826 339.394 79.7639Z" fill="white"/>
<path d="M296.631 91.9819H297.864V94.8919H301.198V91.9819H302.432V98.9774H301.198V96.0289H297.864V98.9774H296.631V91.9819Z" fill="white"/>
<path d="M310.468 91.9819H311.701V98.9774H310.468V91.9819Z" fill="white"/>
<path d="M319.024 97.9561L319.834 97.1274C320.238 97.6477 320.662 97.9561 321.24 97.9561C321.896 97.9561 322.358 97.5128 322.358 96.5878V92.0012H323.611V96.6263C323.611 97.455 323.379 98.0717 322.955 98.4957C322.551 98.9003 321.953 99.1123 321.26 99.1123C320.18 99.0738 319.487 98.5727 319.024 97.9561Z" fill="white"/>
<path d="M331.454 91.9819H332.687V95.5086L336.021 91.9819H337.525L334.615 94.9883L337.659 98.9774H336.176L333.786 95.8169L332.687 96.9347V98.9581H331.454V91.9819Z" fill="white"/>
<path d="M344.867 91.9819H346.1V97.8597H349.781V98.9774H344.867V91.9819Z" fill="white"/>
<path d="M298.731 107.688H300.042L302.181 111.003L304.32 107.688H305.631V114.684H304.397V109.654L302.181 112.949H302.142L299.946 109.673V114.684H298.731V107.688Z" fill="white"/>
<path d="M313.57 107.688H314.707L318.465 112.525V107.688H319.679V114.684H318.658L314.804 109.692V114.684H313.59V107.688H313.57Z" fill="white"/>
<path d="M327.311 111.195C327.311 109.23 328.833 107.572 330.992 107.572C333.15 107.572 334.634 109.21 334.634 111.195C334.634 113.161 333.111 114.818 330.953 114.818C328.814 114.818 327.311 113.18 327.311 111.195ZM333.343 111.195C333.343 109.827 332.36 108.709 330.953 108.709C329.566 108.709 328.583 109.827 328.583 111.195C328.583 112.564 329.566 113.681 330.972 113.681C332.379 113.681 333.343 112.583 333.343 111.195Z" fill="white"/>
<path d="M342.285 107.688H345.04C346.679 107.688 347.7 108.613 347.7 110.058C347.7 111.619 346.447 112.448 344.906 112.448H343.518V114.703H342.285V107.688ZM344.944 111.33C345.869 111.33 346.447 110.81 346.447 110.058C346.447 109.23 345.85 108.806 344.944 108.806H343.518V111.33H344.944Z" fill="white"/>
<path d="M305.785 129.869C305.187 130.293 304.474 130.525 303.646 130.525C301.487 130.525 300.003 128.886 300.003 126.902C300.003 124.936 301.526 123.279 303.684 123.279C305.843 123.279 307.327 124.917 307.327 126.902C307.327 127.692 307.076 128.443 306.613 129.06L307.423 129.734L306.633 130.621L305.785 129.869ZM304.86 129.06L303.665 128.039L304.455 127.133L305.669 128.231C305.9 127.865 306.035 127.403 306.035 126.902C306.035 125.533 305.053 124.416 303.646 124.416C302.258 124.416 301.275 125.533 301.275 126.902C301.275 128.27 302.258 129.388 303.665 129.388C304.127 129.407 304.532 129.272 304.86 129.06Z" fill="white"/>
<path d="M314.958 123.413H318.08C319.718 123.413 320.681 124.3 320.681 125.649C320.681 126.805 319.988 127.499 319.005 127.769L320.893 130.428H319.448L317.714 127.981H316.191V130.428H314.958V123.413ZM317.983 126.882C318.87 126.882 319.429 126.42 319.429 125.687C319.429 124.936 318.889 124.531 317.983 124.531H316.191V126.882H317.983Z" fill="white"/>
<path d="M327.87 129.388L328.602 128.501C329.276 129.079 329.951 129.407 330.818 129.407C331.57 129.407 332.052 129.06 332.052 128.501C332.052 128 331.762 127.73 330.471 127.422C328.987 127.075 328.139 126.632 328.139 125.321C328.139 124.126 329.142 123.298 330.529 123.298C331.55 123.298 332.36 123.606 333.073 124.184L332.418 125.109C331.782 124.647 331.165 124.396 330.51 124.396C329.797 124.396 329.373 124.762 329.373 125.244C329.373 125.784 329.7 126.015 331.03 126.343C332.514 126.709 333.285 127.229 333.285 128.405C333.285 129.715 332.264 130.486 330.78 130.486C329.72 130.525 328.718 130.139 327.87 129.388Z" fill="white"/>
<path d="M342.631 124.55H340.415V123.413H346.1V124.55H343.884V130.409H342.651V124.55H342.631Z" fill="white"/>
<path d="M304.455 143.167V139.139H305.688V143.128C305.688 144.419 306.363 145.132 307.461 145.132C308.56 145.132 309.215 144.477 309.215 143.186V139.139H310.448V143.109C310.448 145.19 309.273 146.25 307.442 146.25C305.631 146.25 304.455 145.19 304.455 143.167Z" fill="white"/>
<path d="M317.694 139.139H319.063L321.182 144.515L323.283 139.139H324.613L321.703 146.192H320.624L317.694 139.139Z" fill="white"/>
<path d="M331.416 139.139H332.745L334.422 144.323L336.137 139.12H337.178L338.893 144.323L340.569 139.139H341.861L339.413 146.192H338.353L336.638 141.162L334.923 146.192H333.863L331.416 139.139Z" fill="white"/>
<path d="M308.984 158.294L306.536 154.845H307.982L309.716 157.35L311.47 154.845H312.877L310.429 158.275L312.973 161.86H311.528L309.678 159.2L307.827 161.86H306.421L308.984 158.294Z" fill="white"/>
<path d="M322.455 159.085L319.679 154.845H321.125L323.09 157.948L325.075 154.845H326.482L323.707 159.065V161.86H322.474V159.085H322.455Z" fill="white"/>
<path d="M333.458 160.935L337.582 155.924H333.574V154.826H339.182V155.731L335.058 160.742H339.182V161.84H333.458V160.935Z" fill="white"/>
</g>
<path d="M1.51024 320H526.383C526.73 320 527 319.73 527 319.383V319.114C527 318.767 526.73 318.497 526.383 318.497H1.51024C1.16335 318.497 0.893555 318.767 0.893555 319.114V319.383C0.893555 319.73 1.16335 320 1.51024 320Z" fill="#2E3552"/>
<path d="M443.899 202.916L442.663 203.115L445.018 217.765L446.254 217.566L443.899 202.916Z" fill="#B5453C"/>
<path d="M442.881 200.441L442.669 203.12L443.922 202.927L442.881 200.441Z" fill="#F9DDBF"/>
<path d="M457.403 204.373L456.171 204.144L453.462 218.734L454.693 218.962L457.403 204.373Z" fill="#B5453C"/>
<path d="M457.257 201.713L456.159 204.16L457.392 204.391L457.257 201.713Z" fill="#EFCBAB"/>
<path d="M455.822 200.093L454.59 199.864L451.881 214.453L453.112 214.682L455.822 200.093Z" fill="#B5453C"/>
<path d="M455.677 197.415L454.579 199.882L455.812 200.113L455.677 197.415Z" fill="#EFCBAB"/>
<path d="M457.257 209.113H447.333V223.412H457.257V209.113Z" fill="#ED7D2B"/>
<path d="M452.305 209.113H442.38V223.412H452.305V209.113Z" fill="#F99746"/>
<path d="M86.8436 205.394C86.8436 205.394 91.7385 199.689 87.1519 196.066C87.1519 196.066 83.7987 194.043 81.0622 194.197C81.0622 194.197 84.9357 200.691 83.6831 201.347C82.4305 202.002 79.8866 193.792 79.8866 193.792C79.8866 193.792 72.2552 193.06 69.8077 194.236C69.8077 194.236 76.3214 199.574 74.9532 199.882C73.5849 200.19 66.5316 194.968 66.5316 194.968C66.5316 194.968 59.4398 196.182 59.8059 200.499C60.1914 204.835 62.6388 206.164 63.6987 206.049C64.7779 205.933 71.0604 203.524 71.1953 204.411C71.3302 205.297 67.553 208.169 64.8936 208.304C64.8936 208.304 69.9041 213.815 73.2188 212.235C76.5527 210.635 76.8225 208.111 78.9038 207.167C80.9851 206.222 82.7388 206.222 81.8909 207.186C81.0429 208.149 77.285 209.094 76.0902 211.194C74.8954 213.295 73.8354 214.702 77.285 214.181C80.7346 213.661 86.3233 211.136 86.5738 208.265C86.8436 205.394 86.8436 205.394 86.8436 205.394Z" fill="#82B378"/>
<path d="M63.2939 200.634C63.2939 200.634 82.5845 199.882 86.8435 205.413C86.8435 205.413 87.7878 208.226 90.6785 210.809L91.1217 212.042C91.1217 212.042 87.7878 208.516 86.593 208.304C86.593 208.284 88.4623 201.443 63.2939 200.634Z" fill="#82B378"/>
<path d="M90.6783 210.79C90.6783 210.79 94.8217 213.854 95.1107 219.327L94.3592 219.385C94.3592 219.385 93.0295 213.738 90.6398 211.522C88.2502 209.306 90.6783 210.79 90.6783 210.79Z" fill="#82B378"/>
<path d="M103.937 198.225C103.937 198.225 96.1517 193.869 99.794 187.953C99.794 187.953 102.704 184.33 105.807 183.386C105.807 183.386 104.149 192.212 105.807 192.405C107.464 192.617 106.944 182.441 106.944 182.441C106.944 182.441 115.134 178.491 118.352 178.818C118.352 178.818 113.265 187.433 114.922 187.221C116.579 187.009 122.284 178.298 122.284 178.298C122.284 178.298 130.686 176.737 132.035 181.728C133.384 186.7 131.206 189.206 129.954 189.514C128.701 189.822 120.723 189.726 120.935 190.767C121.147 191.807 126.543 193.465 129.549 192.54C129.549 192.54 126.234 200.73 121.879 200.325C117.524 199.901 116.175 197.203 113.477 197.011C110.779 196.799 108.813 197.531 110.162 198.263C111.511 198.995 116.078 198.494 118.256 200.344C120.434 202.194 122.207 203.332 118.16 204.16C114.113 204.989 106.847 204.469 105.402 201.366C103.937 198.225 103.937 198.225 103.937 198.225Z" fill="#A8D29F"/>
<path d="M128.219 183.289C128.219 183.289 106.443 190.343 103.937 198.225C103.937 198.225 104.034 201.751 101.856 205.798V207.359C101.856 207.359 104.13 202.06 105.383 201.347C105.383 201.327 100.507 194.486 128.219 183.289Z" fill="#82B378"/>
<path d="M101.856 205.798C101.856 205.798 98.5029 210.905 100.411 217.11L101.278 216.879C101.278 216.879 100.43 210.038 102.203 206.608C103.957 203.158 101.856 205.798 101.856 205.798Z" fill="#82B378"/>
<path d="M91.5651 192.212C91.5651 192.212 101.817 186.469 97.0382 178.664C97.0382 178.664 93.2032 173.885 89.0984 172.652C89.0984 172.652 91.2953 184.272 89.0984 184.542C86.9015 184.812 87.5952 171.418 87.5952 171.418C87.5952 171.418 76.784 166.215 72.5443 166.639C72.5443 166.639 79.2508 177.99 77.0538 177.72C74.8569 177.45 67.3411 165.964 67.3411 165.964C67.3411 165.964 56.2601 163.922 54.4871 170.474C52.7142 177.045 55.5856 180.322 57.2237 180.726C58.8617 181.131 69.4031 180.996 69.114 182.364C68.8442 183.733 61.7331 185.93 57.7633 184.696C57.7633 184.696 62.1378 195.507 67.8807 194.948C73.6235 194.409 75.3965 190.844 78.9617 190.574C82.5076 190.304 85.1092 191.248 83.3363 192.212C81.5633 193.176 75.5507 192.52 72.66 194.968C69.7885 197.415 67.4567 198.918 72.7949 200.017C78.133 201.115 87.6916 200.422 89.6187 196.317C91.5651 192.212 91.5651 192.212 91.5651 192.212Z" fill="#A8D29F"/>
<path d="M59.5554 172.517C59.5554 172.517 88.2697 181.825 91.5651 192.212C91.5651 192.212 91.4302 196.856 94.3016 202.195V204.237C94.3016 204.237 91.2953 197.261 89.6572 196.298C89.6379 196.317 96.0745 187.298 59.5554 172.517Z" fill="#82B378"/>
<path d="M94.3015 202.195C94.3015 202.195 98.7339 208.92 96.2094 217.111L95.0724 216.802C95.0724 216.802 96.1708 207.783 93.8583 203.254C91.5264 198.706 94.3015 202.195 94.3015 202.195Z" fill="#82B378"/>
<path d="M71.812 214.779C71.812 225.879 80.8117 234.879 91.912 234.879C94.2245 234.879 96.46 234.493 98.522 233.761C106.365 231.024 111.993 223.566 111.993 214.779H71.812Z" fill="#ED7D2B"/>
<path d="M85.0322 214.779C85.0322 222.314 86.8437 229.964 92.972 233.414C93.9934 233.992 97.4044 233.375 98.5221 233.761C106.366 231.024 111.993 223.566 111.993 214.779H85.0322Z" fill="#F99746"/>
<path d="M71.5422 235.881H112.282C112.282 235.187 112.012 234.57 111.549 234.127C111.106 233.684 110.49 233.395 109.796 233.395H74.009C72.6407 233.414 71.5422 234.513 71.5422 235.881Z" fill="#ED7D2B"/>
<path d="M90.6208 235.881H112.282C112.282 235.187 112.012 234.57 111.549 234.127C111.106 233.684 110.49 233.395 109.796 233.395H93.1068C91.7386 233.414 90.6208 234.513 90.6208 235.881Z" fill="#F99746"/>
<path d="M71.3693 215.38H112.668V214.763H71.3693V215.38Z" fill="#B5453C"/>
</g>
<defs>
<clipPath id="clip0_364_6142">
<rect width="526.107" height="320" fill="white" transform="translate(0.893555)"/>
</clipPath>
</defs>
</svg>
