<svg width="186" height="320" viewBox="0 0 186 320" fill="none" xmlns="http://www.w3.org/2000/svg">
<path d="M45.2331 224.71C45.6152 224.71 45.9539 224.437 46.023 224.047C47.4197 216.162 49.4442 203.613 51.4028 191.475C53.3856 179.184 55.4374 166.473 56.8695 158.393C56.9465 157.956 56.6559 157.541 56.2192 157.464C55.7825 157.386 55.3667 157.677 55.2881 158.114C53.8544 166.205 51.8026 178.922 49.8183 191.22C47.8612 203.351 45.8367 215.896 44.4416 223.768C44.3645 224.204 44.6551 224.62 45.0918 224.697C45.1383 224.705 45.1865 224.71 45.2331 224.71Z" fill="#4C351B"/>
<path d="M96.2315 293.254C107.902 293.471 118.098 294.644 129.039 296.015C134.342 296.68 141.628 298.25 144.643 299.674C151.996 303.143 152.938 304.996 151.092 308.318C149.831 310.585 146.632 312.19 140.878 313.778C134.793 315.456 125.316 317.027 117.496 317.928C103.066 319.588 84.0091 320.462 62.8379 319.752C51.3026 319.365 44.2948 318.715 35.4792 317.43C25.9716 316.047 16.7194 314.168 13.25 311.262C11.7954 310.044 11.1612 308.753 11.0585 307.464C10.8241 304.524 13.441 301.824 22.7928 298.969C28.8294 297.126 35.9881 295.633 44.139 294.742C59.163 293.103 70.3225 292.777 96.2315 293.255V293.254Z" fill="#E9BD0C"/>
<path d="M134.775 79.0215C139.028 85.4306 141.485 92.7964 145.179 99.5233C148.875 106.25 152.993 112.144 159.702 115.539C163.285 117.352 169.089 119.11 172.42 121.388C181.995 127.935 187.22 136.245 185.757 146.066C184.821 152.349 179.948 160.643 171.136 166.815C161.275 173.72 141.326 171.642 128.952 166.815C118.096 162.579 104.171 151.508 95.5765 141.328C88.3471 132.764 83.1245 123.628 83.9369 103.845C85.4203 67.7239 127.716 68.3838 134.775 79.0232V79.0215Z" fill="#8A541E"/>
<path d="M24.8672 151.554C20.4682 150.544 9.30702 149.498 5.97889 152.577C3.4551 154.913 1.09347 158.23 0.536371 164.459C0.11895 169.113 3.45029 174.983 7.7449 177.454C10.6877 179.146 16.4 179.672 22.1026 180.414C25.2027 180.817 28.3462 170.407 28.7203 166.697C29.1441 162.496 27.8758 152.243 24.8688 151.553L24.8672 151.554Z" fill="#FFE0D3"/>
<path d="M16.8872 179.803C16.2787 179.697 19.7674 150.797 19.7674 150.797L39.5226 153.517L53.1353 141.561C57.6997 137.552 63.717 135.601 69.7647 136.173L83.5557 137.473L76.2845 167.032C75.1623 178.658 64.5293 186.973 52.9748 185.262C38.1227 183.061 20.3502 180.407 16.8872 179.805V179.803Z" fill="#76B072"/>
<path d="M122.63 214.978L48.6648 207.743C48.8736 207.927 55.7739 174.212 58.5722 157.244C59.1582 153.691 60.4313 148.804 61.6434 144.543C63.1702 139.175 68.3189 135.667 73.8722 136.224L96.7372 138.518C103.042 138.839 112.93 142.651 119.289 149.012C120.426 150.148 121.423 152.463 122.341 155.093C124.905 162.436 126.095 173.103 126.095 184.041L122.629 214.98L122.63 214.978Z" fill="#76B072"/>
<path d="M47.6175 206.855L100.399 300.748L129.92 301.186L95.5229 207.271L47.6175 206.855Z" fill="#F8D8B5"/>
<path d="M115.709 262.185L78.5779 262.131L95.5123 292.615L127.705 293.126L115.709 262.185Z" fill="white"/>
<path d="M95.4006 292.617C95.4006 292.617 87.2015 297.156 83.2762 300.067C82.7897 300.428 81.5487 301.381 81.4139 302.709C81.2935 303.896 82.0063 305.57 83.997 305.777C89.3577 306.331 100.071 306.241 105.815 306.313C112.651 306.398 121.473 306.724 128.3 306.344C129.075 306.301 129.925 306.227 130.478 305.681C131.044 305.124 131.121 304.255 131.166 303.464C131.296 301.165 127.659 292.993 127.659 292.993L95.4023 292.617H95.4006Z" fill="#608F5D"/>
<path d="M122.832 280.571L123.768 282.985L90.0208 282.74L88.677 280.32L122.832 280.571Z" fill="#76B072"/>
<path d="M83.2892 270.615L119.001 270.683L119.936 273.092L84.6282 273.027L83.2892 270.615Z" fill="#76B072"/>
<path d="M90.1202 202.945C65.1392 232.901 24.1309 282.728 24.1309 282.728L46.7615 301.691C46.7615 301.691 86.3442 256.423 115.618 224.208L90.1202 202.943V202.945Z" fill="#FFE0D3"/>
<path d="M72.5752 272.479L48.4387 252.719L29.0816 276.406L52.067 295.614L72.5752 272.479Z" fill="white"/>
<path d="M29.1481 276.327C29.1481 276.327 17.8858 273.021 13.0052 272.804C12.4 272.777 10.8346 272.735 9.89222 273.681C9.05096 274.525 8.54684 276.274 9.96125 277.69C13.771 281.501 20.4193 286.788 24.8311 290.468C30.0809 294.846 35.9746 300.055 41.5102 304.066C42.1395 304.522 42.8459 305 43.6182 304.925C44.4065 304.849 45.0165 304.223 45.5495 303.637C47.1004 301.935 50.0465 298.06 52.1641 295.52C45.2012 289.888 29.1465 276.325 29.1465 276.325L29.1481 276.327Z" fill="#76B072"/>
<path d="M36.8995 266.834L60.4131 286.194L58.8157 287.997L35.3759 268.7L36.8995 266.834Z" fill="#76B072"/>
<path d="M42.732 259.701L66.3066 279.551L64.7092 281.354L41.2084 261.567L42.732 259.701Z" fill="#76B072"/>
<path d="M147.018 244.775C147.018 244.775 117.896 255.941 79.1386 253.621C39.7052 251.261 20.8507 235.433 20.8507 235.433L51.2694 198.952C51.2694 198.952 59.9951 203.311 82.4266 205.647C108.785 208.391 123.962 203.924 123.962 203.924L147.018 244.777V244.775Z" fill="#85B1DF"/>
<path d="M43.0527 233.023C43.316 233.023 43.5745 232.893 43.7286 232.656L56.5707 212.727C56.8115 212.355 56.7039 211.859 56.3315 211.618C55.959 211.377 55.4613 211.485 55.2221 211.857L42.38 231.786C42.1392 232.158 42.2467 232.654 42.6192 232.895C42.7541 232.982 42.905 233.023 43.0527 233.023Z" fill="#598ABC"/>
<path d="M66.7249 242.057C67.0701 242.057 67.388 241.833 67.4923 241.487L75.4458 215.212C75.5742 214.788 75.335 214.34 74.9096 214.211C74.4857 214.083 74.0378 214.322 73.9094 214.748L65.9559 241.023C65.8275 241.447 66.0667 241.894 66.4921 242.023C66.5692 242.047 66.6479 242.058 66.7249 242.058V242.057Z" fill="#598ABC"/>
<path d="M124.204 236.233C124.324 236.233 124.448 236.205 124.563 236.147C124.96 235.948 125.12 235.467 124.921 235.07L113.966 213.215C113.767 212.818 113.285 212.658 112.888 212.857C112.492 213.056 112.331 213.538 112.53 213.934L123.486 235.789C123.627 236.07 123.91 236.233 124.204 236.233Z" fill="#598ABC"/>
<path d="M98.7781 243.664C98.8392 243.664 98.9018 243.657 98.9644 243.641C99.3963 243.539 99.6628 243.107 99.56 242.675L93.1494 215.631C93.0467 215.199 92.6148 214.934 92.1829 215.035C91.751 215.138 91.4845 215.57 91.5873 216.002L97.9979 243.046C98.0846 243.415 98.4153 243.664 98.7781 243.664Z" fill="#598ABC"/>
<path d="M73.9283 129.47L99.0586 130.792L98.6203 131.098L98.3121 140.468C98.3121 143.632 94.6548 146.686 91.7553 148.213C87.4367 150.486 81.7244 150.226 78.1394 147.652C75.6012 145.828 73.437 142.778 73.3712 138.777L73.9283 129.469V129.47Z" fill="#FFE0D3"/>
<path d="M67.487 82.2289C64.7384 84.6612 62.7204 87.9187 61.8197 92.186C61.4456 93.9568 60.2335 97.7248 59.7759 99.4796C58.4787 104.448 58.8464 109.271 60.6975 114.239C60.8147 114.553 60.8066 114.918 60.6975 115.237C60.5835 115.578 60.3041 115.83 60.0553 116.088C58.2154 117.992 58.0693 121.086 58.5975 123.682C59.1257 126.276 61.0956 129.113 62.9531 131.001C67.8354 135.969 75.0648 139.897 81.8591 141.429C89.5348 143.158 102.804 141.66 109.513 138.401C116.324 135.094 118.505 132.496 122.288 125.938C126.069 119.379 127.425 111.525 126.448 104.02C125.589 97.4214 122.782 90.8278 117.574 86.6873C115.042 84.674 109.126 80.1386 106.073 79.0774C95.1652 75.2901 76.9785 73.8339 67.4886 82.2305L67.487 82.2289Z" fill="#FFE0D3"/>
<path d="M114.198 115.759C118.255 118.752 119.641 119.11 118.864 124.633C118.864 124.633 118.534 133.549 109.292 138.504C109.273 138.513 111.53 138.945 113.752 138.2C120.297 136.004 124.093 133.288 128.565 129.963C131.415 127.844 134.194 124.021 135.901 120.906C142.204 109.413 142.716 101.687 140.717 92.3483C138.144 80.3266 130.561 68.732 119.051 64.4085C112.867 62.0854 105.273 61.4737 98.2479 63.7036C95.13 60.0785 85.6402 58.8568 79.1027 60.2134C72.5653 61.57 64.7868 67.0944 60.0571 71.8065C54.1281 77.713 51.0023 87.1274 50.8562 92.6919C50.7454 96.9159 51.3298 102.185 53.4073 106.746C54.9694 110.175 59.37 115.976 60.7651 115.175C61.6593 114.661 60.9128 111.736 60.7812 109.564C60.7812 109.564 59.9158 103.413 60.5163 101.336C60.7362 100.575 62.7157 100.047 65.2636 99.6821C73.8063 98.4571 79.952 95.1755 84.7684 86.7035C84.7684 86.7035 89.8063 99.3915 103.66 102.193L112.276 103.347C112.276 103.347 114.046 103.874 114.197 107.896C114.391 113.056 113.686 115.764 114.197 115.759H114.198Z" fill="#8A541E"/>
<path d="M109.52 122.542C108.751 125.476 111.164 128.616 114.128 129.26C117.09 129.905 120.224 128.484 122.3 126.272C125.427 122.934 126.321 117.312 123.464 113.735C120.606 110.163 113.913 110.371 112.041 114.546L109.518 122.544L109.52 122.542Z" fill="#FFE0D3"/>
<path d="M120.876 121.557C120.597 121.464 120.313 121.389 120.025 121.331C119.944 121.315 119.86 121.3 119.778 121.286C119.745 121.281 119.534 121.238 119.743 121.279C119.602 121.252 119.449 121.247 119.305 121.238C119.011 121.218 118.717 121.217 118.423 121.233C118.275 121.241 118.131 121.257 117.983 121.27C117.815 121.286 118.131 121.246 117.916 121.278C117.844 121.289 117.771 121.3 117.699 121.315C117.41 121.368 117.124 121.437 116.842 121.523C116.701 121.567 116.562 121.613 116.424 121.665C116.365 121.687 116.307 121.71 116.248 121.732C116.164 121.766 116.171 121.764 116.265 121.724C116.227 121.74 116.188 121.758 116.15 121.775C115.882 121.896 115.622 122.034 115.371 122.186C115.081 122.363 114.821 122.596 114.503 122.715C114.212 122.824 113.854 122.662 113.679 122.434C113.499 122.201 113.44 121.82 113.618 121.564C113.844 121.236 114.223 121.006 114.562 120.801C114.83 120.637 115.11 120.491 115.399 120.364C116.012 120.093 116.643 119.879 117.304 119.762C118.637 119.526 120.016 119.582 121.305 120.009C121.703 120.141 122.003 120.57 121.865 120.997C121.737 121.393 121.305 121.698 120.878 121.557H120.876Z" fill="#F57F6D"/>
<path d="M88.6165 121.255C87.5665 122.851 85.9338 123.999 84.0345 124.31C82.1112 124.626 79.9968 124.275 78.364 123.174C77.5147 122.6 76.7714 121.833 76.3572 120.886C76.1902 120.505 76.232 120.012 76.643 119.796C76.9882 119.614 77.5549 119.674 77.7331 120.081C77.8086 120.253 77.8936 120.42 77.99 120.581C78.0365 120.658 78.0847 120.732 78.136 120.805C78.1617 120.842 78.189 120.878 78.2147 120.915C78.3079 121.045 78.1104 120.788 78.2404 120.945C78.3624 121.093 78.4941 121.233 78.6322 121.364C78.6996 121.428 78.767 121.489 78.8377 121.549C78.8666 121.573 78.8938 121.597 78.9227 121.619C78.9516 121.644 78.9805 121.666 79.0094 121.688C78.9292 121.627 78.9131 121.615 78.9597 121.648C79.3016 121.886 79.6468 122.101 80.0241 122.276C80.0594 122.292 80.0963 122.308 80.1316 122.324C80.3163 122.408 79.9711 122.263 80.1606 122.335C80.2537 122.371 80.3468 122.408 80.4399 122.44C80.6502 122.514 80.8637 122.578 81.0789 122.631C81.278 122.681 81.4802 122.722 81.6841 122.756C81.7355 122.764 81.7869 122.772 81.8383 122.78C81.9651 122.801 81.6392 122.761 81.8431 122.78C81.9667 122.791 82.0903 122.806 82.2155 122.814C82.6346 122.841 83.0568 122.835 83.4742 122.788C83.4871 122.788 83.6781 122.758 83.5433 122.78C83.4084 122.803 83.5978 122.771 83.6107 122.769C83.7054 122.753 83.8001 122.735 83.8949 122.716C84.1004 122.673 84.3026 122.62 84.5033 122.555C84.5932 122.526 84.6831 122.496 84.7714 122.462C84.8244 122.443 84.8774 122.422 84.9304 122.401C84.9834 122.38 85.0508 122.382 84.8967 122.416C85.0813 122.376 85.2868 122.231 85.4505 122.138C85.6464 122.026 85.8359 121.904 86.0189 121.769C86.0285 121.762 86.1714 121.645 86.0735 121.729C85.9787 121.809 86.1537 121.661 86.1698 121.647C86.2581 121.573 86.3432 121.496 86.4267 121.417C86.5952 121.257 86.7558 121.086 86.9051 120.908C86.9308 120.878 86.9549 120.847 86.9806 120.817C87.0351 120.748 87.0303 120.756 86.9661 120.838C86.9902 120.805 87.0143 120.773 87.0384 120.741C87.1106 120.643 87.178 120.544 87.2439 120.443C87.4718 120.094 87.9583 119.916 88.334 120.157C88.6807 120.38 88.8638 120.874 88.6197 121.247L88.6165 121.255Z" fill="#4C351B"/>
<path d="M97.7852 119.145C100.587 119.205 103.645 120.478 104.824 122.34C105.471 123.364 105.605 124.777 104.901 125.761C104.396 126.465 103.562 126.852 102.735 127.107C100.336 127.852 97.6808 127.743 95.3513 126.805C94.563 126.487 93.7988 126.068 93.2144 125.452C92.63 124.835 92.2399 123.999 92.2945 123.151C92.4855 120.219 95.0093 119.086 97.7852 119.144V119.145Z" fill="#FF9788"/>
<path d="M65.2508 116.217C68.0523 116.185 71.1525 117.357 72.3903 119.181C73.071 120.183 73.2524 121.591 72.5797 122.599C72.0997 123.318 71.2777 123.733 70.4589 124.015C68.086 124.839 65.429 124.816 63.069 123.954C62.2711 123.662 61.494 123.269 60.8887 122.671C60.2835 122.074 59.8677 121.252 59.895 120.401C59.9897 117.465 62.4749 116.25 65.2508 116.216V116.217Z" fill="#FF9788"/>
<path d="M99.2783 114.027C99.1435 114.992 98.3696 116.201 96.7738 116.613C95.0688 117.053 93.9899 116.307 93.4906 115.335C92.6092 114.138 92.7056 112.569 93.7989 111.11C94.1954 110.582 94.8424 110.002 95.7319 109.838C96.6823 109.663 97.4144 110.047 97.8784 110.46C98.9717 111.431 99.4662 112.69 99.2799 114.027H99.2783Z" fill="#4C351B"/>
<path d="M74.8994 111.464C74.7646 112.428 73.9907 113.637 72.3949 114.05C70.6899 114.49 69.611 113.743 69.1117 112.772C68.2303 111.574 68.3267 110.006 69.42 108.546C69.8165 108.018 70.4635 107.439 71.353 107.275C72.3034 107.1 73.0355 107.484 73.4995 107.896C74.5928 108.867 75.0873 110.126 74.901 111.464H74.8994Z" fill="#4C351B"/>
<path d="M99.6989 105.967C98.946 106.249 98.1529 105.763 97.4144 105.601C96.5185 105.405 95.6901 105.471 94.7814 105.482C94.4394 105.487 93.9947 105.313 93.8454 105.004C93.7619 104.832 93.7025 104.692 93.6897 104.503C93.6592 104.055 94.0284 103.666 94.4619 103.528C95.5568 103.181 96.8829 103.255 97.9843 103.557C98.9476 103.822 100.131 104.271 100.221 105.305C100.248 105.622 99.9831 105.856 99.6973 105.965L99.6989 105.967Z" fill="#4C351B"/>
<path d="M75.2171 103.005C74.4609 103.36 73.7673 102.912 73.0015 102.771C72.1298 102.612 71.3046 102.724 70.4312 102.779C70.1037 102.8 69.7296 102.529 69.5963 102.241C69.5161 102.069 69.5 101.918 69.4856 101.732C69.4615 101.419 69.736 101.011 70.0234 100.897C71.0509 100.491 72.1587 100.469 73.2391 100.687C74.0965 100.86 75.4306 101.249 75.5655 102.259C75.604 102.549 75.5012 102.871 75.2171 103.004V103.005Z" fill="#4C351B"/>
<path d="M81.0223 115.24C79.3478 115.372 79.1631 113.055 80.8409 112.923C82.5154 112.792 82.7 115.107 81.0223 115.24Z" fill="#4C351B"/>
<path d="M111.505 104.477C111.771 104.477 112.039 104.472 112.307 104.464C112.751 104.449 113.099 104.08 113.085 103.637C113.07 103.194 112.699 102.841 112.258 102.86C102.753 103.157 94.0421 97.8091 91.1523 94.0989C87.426 89.3146 85.7034 85.7071 85.2057 81.6453C85.1511 81.2054 84.7513 80.8907 84.3114 80.9469C83.8715 81.0015 83.5585 81.4013 83.6131 81.8412C84.2793 87.2692 87.1579 91.5831 89.8872 95.0862C92.8958 98.949 101.755 104.478 111.506 104.478L111.505 104.477Z" fill="#6B3F06"/>
<path d="M112.283 97.7108C112.697 97.7108 113.047 97.3929 113.082 96.9739C113.119 96.5324 112.79 96.1438 112.347 96.1085C104.466 95.4631 97.6681 91.1139 93.6978 84.1751C93.4778 83.7898 92.9866 83.6566 92.6029 83.8765C92.2176 84.0965 92.0843 84.5877 92.3042 84.9715C96.5411 92.3758 103.799 97.0188 112.215 97.7076C112.238 97.7092 112.26 97.7108 112.281 97.7108H112.283Z" fill="#6B3F06"/>
<path d="M57.7066 95.7194C57.7211 95.7194 57.7355 95.7194 57.7484 95.7194C59.8001 95.6119 61.8824 95.2426 63.9358 94.6197C69.6609 92.8826 74.7614 89.2671 78.2951 84.4395C78.5568 84.0814 78.4797 83.5789 78.1217 83.3172C77.7637 83.0556 77.2612 83.1326 76.9995 83.4906C73.6697 88.0389 68.8646 91.4457 63.4702 93.0817C61.5405 93.6677 59.5882 94.0144 57.6649 94.114C57.2218 94.1365 56.8814 94.5153 56.9055 94.9568C56.928 95.3855 57.2828 95.7178 57.7066 95.7178V95.7194Z" fill="#6B3F06"/>
<path d="M53.357 90.901C53.4261 90.901 53.4951 90.8913 53.5657 90.8737C59.7692 89.2104 65.3964 85.8807 69.8419 81.2457C70.1485 80.9262 70.1389 80.4173 69.8178 80.1106C69.4983 79.804 68.9894 79.8152 68.6828 80.1347C64.4411 84.5578 59.0693 87.735 53.1499 89.3228C52.7213 89.4368 52.4676 89.8783 52.5832 90.3053C52.6795 90.6634 53.0038 90.901 53.3586 90.901H53.357Z" fill="#6B3F06"/>
<path d="M163.229 157.356C163.611 157.356 163.95 157.083 164.019 156.693C164.886 151.799 161.907 146.445 156.935 143.963C154.805 142.899 152.44 142.354 150.155 141.828C148.948 141.55 147.701 141.263 146.519 140.903C142.64 139.725 139.144 137.686 136.406 135.005C136.09 134.695 135.581 134.7 135.271 135.016C134.961 135.332 134.966 135.841 135.282 136.151C138.203 139.012 141.927 141.186 146.052 142.438C147.285 142.812 148.561 143.106 149.794 143.39C152.09 143.918 154.257 144.419 156.218 145.397C160.567 147.569 163.184 152.201 162.437 156.41C162.36 156.847 162.651 157.263 163.087 157.341C163.134 157.349 163.182 157.354 163.229 157.354V157.356Z" fill="#6B3F06"/>
<path d="M148.3 125.469C148.695 125.469 149.039 125.178 149.095 124.777C149.156 124.337 148.849 123.932 148.411 123.871C137.544 122.361 135.31 111.15 133.976 104.452C133.899 104.068 133.827 103.699 133.755 103.347C132.544 97.4309 129.709 83.5742 121.71 82.232C121.272 82.1582 120.86 82.4536 120.786 82.8902C120.712 83.3269 121.007 83.7411 121.444 83.815C128.355 84.9741 131.135 98.5548 132.181 103.668C132.252 104.018 132.326 104.384 132.401 104.765C133.088 108.218 134.031 112.948 136.269 117.011C138.956 121.892 142.967 124.735 148.191 125.461C148.228 125.466 148.266 125.469 148.302 125.469H148.3Z" fill="#6B3F06"/>
<path d="M102.216 16.0654L118.399 73.2504C118.399 73.2504 107.415 77.1164 94.7574 75.3022C82.6169 73.5635 72.7609 67.0228 72.7609 67.0228L102.216 16.0654Z" fill="#FF9637"/>
<path d="M98.1996 23.0131L103.875 21.9326L104.65 24.6748L96.3309 26.2449L98.1996 23.0131Z" fill="white"/>
<path d="M90.4173 36.474L107.188 33.6436L107.997 36.5013L88.5132 39.7684L90.4173 36.474Z" fill="white"/>
<path d="M82.0336 50.9931L110.736 46.1494L111.547 49.0119L80.1344 54.2779L82.0336 50.9931Z" fill="white"/>
<path d="M72.7547 67.0241L73.331 66.0255L114.299 58.7881L115.108 61.6474L75.4551 68.6183C73.734 67.6743 72.7531 67.0241 72.7531 67.0241H72.7547Z" fill="white"/>
<path d="M96.9713 75.5656L118.003 71.8506L118.399 73.2522C118.399 73.2522 108.669 76.675 96.9713 75.5673V75.5656Z" fill="white"/>
<path d="M101.394 0L107.658 18.625L104.964 19.6573L99.3676 0.971273L101.394 0Z" fill="#FF9637"/>
<path d="M92.6173 12.0518L112.886 5.51758L113.872 7.91934L93.5678 13.8483L92.6173 12.0518Z" fill="#FF9637"/>
<path d="M97.107 19.3141L107.626 0.00683594L109.376 0.657056L98.5584 19.64L97.107 19.3141Z" fill="#FF9637"/>
<path d="M113.165 15.0732L92.5267 6.53376L93.3374 4.89941L113.602 13.7311L113.165 15.0732Z" fill="#FF9637"/>
<path d="M56.3906 128.728L11.3574 123.488L7.92813 183.842L44.104 198.072L56.3906 128.728Z" fill="#FF6F5A"/>
<path d="M56.3851 128.729L101.47 141.269L81.6711 197.227L44.0985 198.072L56.3851 128.729Z" fill="#FF6F5A"/>
<path d="M89.9698 151.216C89.806 149.169 90.2202 147.57 92.2784 146.011C94.6995 144.779 97.2778 144.942 99.4436 146.743C99.4661 146.762 99.4869 146.781 99.5078 146.801L96.2536 156C95.5311 156.059 94.7894 156 94.046 155.867C92.5594 155.602 90.1672 153.693 89.9682 151.214L89.9698 151.216Z" fill="white"/>
<path d="M78.0534 139.332C76.5683 139.067 74.1746 137.158 73.9755 134.68C73.9466 134.309 73.9353 133.954 73.9498 133.61L84.541 136.556C84.3548 137.022 84.1172 137.423 83.841 137.719C82.1569 139.523 80.11 139.698 78.0517 139.331L78.0534 139.332Z" fill="white"/>
<path d="M82.5686 175.205C82.4048 173.158 82.819 171.559 84.8772 170C87.0077 168.916 89.2601 168.915 91.2461 170.156L87.7655 179.996C87.3946 179.971 87.0205 179.923 86.6464 179.856C85.1598 179.591 82.7676 177.682 82.5702 175.203L82.5686 175.205Z" fill="white"/>
<path d="M45.301 191.26C46.9787 191.045 48.6452 191.509 50.119 192.735C51.5495 193.925 51.8786 196.107 51.5479 197.902L44.0937 198.069L45.301 191.26Z" fill="white"/>
<path d="M76.186 193.776C78.3983 192.651 80.7407 192.694 82.7812 194.085L81.6687 197.228L73.895 197.403C74.062 196.069 74.6881 194.911 76.1844 193.778L76.186 193.776Z" fill="white"/>
<path d="M70.5173 166.718C69.0306 166.453 66.6385 164.544 66.4394 162.065C66.2757 160.018 66.6899 158.419 68.7481 156.86C71.1691 155.629 73.7475 155.792 75.9133 157.592C78.1127 159.421 77.7098 163.598 76.3066 165.104C74.6225 166.909 72.5755 167.084 70.5173 166.716V166.718Z" fill="white"/>
<path d="M63.9099 191.367C62.4232 191.103 60.0311 189.194 59.832 186.715C59.6682 184.668 60.0825 183.069 62.1407 181.51C64.5617 180.279 67.1401 180.441 69.3058 182.242C71.5053 184.071 71.1024 188.248 69.6992 189.754C68.0151 191.559 65.9681 191.734 63.9099 191.366V191.367Z" fill="white"/>
<path d="M61.6037 138.876C63.8032 140.705 63.4002 144.882 61.997 146.388C60.3129 148.193 58.2659 148.368 56.2077 148C55.344 147.846 54.1736 147.135 53.3051 146.08L54.7355 138.003C57.0683 136.932 59.5262 137.147 61.6037 138.875V138.876Z" fill="white"/>
<path d="M56.1291 164.368C58.3286 166.197 57.9256 170.374 56.5224 171.88C54.8383 173.685 52.7913 173.86 50.7331 173.492C50.1198 173.383 49.3524 172.993 48.6476 172.399L50.2948 163.105C52.3081 162.517 54.3567 162.893 56.1291 164.367V164.368Z" fill="white"/>
<path d="M21.4194 141.834C22.9061 142.095 25.8087 141.126 26.8458 138.865C27.7032 137 27.8621 135.356 26.4654 133.183C24.6143 131.196 22.1386 130.462 19.4848 131.409C16.7908 132.371 15.7328 136.433 16.534 138.329C17.4956 140.604 19.3564 141.469 21.4178 141.832L21.4194 141.834Z" fill="white"/>
<path d="M33.1196 159.302C34.6062 159.563 37.5089 158.594 38.546 156.333C39.4034 154.467 39.5623 152.823 38.1655 150.651C36.3144 148.664 33.8388 147.93 31.185 148.877C28.491 149.839 27.433 153.901 28.2342 155.797C29.1958 158.072 31.0566 158.937 33.118 159.3L33.1196 159.302Z" fill="white"/>
<path d="M48.3555 130.116C47.3184 132.375 44.4141 133.347 42.9275 133.085C40.8676 132.722 39.0053 131.857 38.0436 129.582C37.7209 128.819 37.7001 127.707 37.965 126.586L48.9961 127.87C48.9399 128.617 48.7087 129.349 48.3539 130.118L48.3555 130.116Z" fill="white"/>
<path d="M12.2266 178.972C14.8805 178.025 17.3561 178.758 19.2072 180.746C20.6039 182.917 20.4434 184.562 19.5877 186.428C19.3083 187.035 18.8941 187.547 18.4109 187.969L9.01891 184.275C9.06065 182.266 10.1636 179.709 12.2282 178.972H12.2266Z" fill="white"/>
<path d="M15.5715 154.088C16.9682 156.258 16.8077 157.904 15.9519 159.77C14.9132 162.028 12.0105 163 10.5239 162.738C10.0503 162.655 9.5863 162.542 9.14159 162.394L9.73238 152.012C11.9495 151.611 13.9901 152.389 15.5715 154.089V154.088Z" fill="white"/>
<path d="M31.2133 185.574C32.7 185.836 35.6027 184.866 36.6398 182.605C37.4971 180.74 37.656 179.096 36.2593 176.924C34.4082 174.936 31.9326 174.202 29.2787 175.15C26.5848 176.111 25.5268 180.173 26.3279 182.069C27.2896 184.344 29.1503 185.21 31.2117 185.572L31.2133 185.574Z" fill="white"/>
<path d="M87.2588 137.323L69.9374 197.534L63.27 197.685L78.9248 135.003L87.2588 137.323Z" fill="#FFBE44"/>
<path d="M26.7162 125.279L22.3606 189.517L28.5706 191.949L35.4805 126.272L26.7162 125.279Z" fill="#FFBE44"/>
<path d="M7.61065 184.506C8.03449 184.506 8.38929 184.173 8.41177 183.745L11.5312 123.758C11.5537 123.315 11.2133 122.938 10.7718 122.915C10.3287 122.891 9.9514 123.233 9.92893 123.675L6.80952 183.661C6.78705 184.104 7.1274 184.482 7.5689 184.504C7.58335 184.504 7.5978 184.504 7.61065 184.504V184.506Z" fill="#E75137"/>
<path d="M45.8223 191.196C46.206 191.196 46.5463 190.918 46.6121 190.527L56.6302 131.299C56.7041 130.863 56.4103 130.448 55.972 130.375C55.5337 130.301 55.1211 130.595 55.0473 131.033L45.0292 190.26C44.9553 190.697 45.2491 191.111 45.6874 191.185C45.7324 191.193 45.7773 191.196 45.8223 191.196Z" fill="#E75137"/>
<path d="M59.2846 180.478C59.2846 180.478 43.5815 179.788 39.9195 183.015C36.3762 186.137 35.7533 191.153 35.9299 195.545C36.1916 202.052 37.9448 205.201 42.477 207.203C45.5819 208.574 59.0646 209.124 59.0646 209.124C59.0646 209.124 59.4307 198.019 59.4307 193.383C59.4307 188.746 59.283 180.476 59.283 180.476L59.2846 180.478Z" fill="#FFE0D3"/>
<path d="M52.5641 180.214L51.8545 209.127L96.4222 210.946C96.6277 210.954 96.8315 210.961 97.0338 210.965C110.101 211.285 118.696 201.821 124.903 190.133L127.348 182.027C131.506 168.236 127.608 153.642 115.204 145.572C115.004 145.44 91.8851 178.848 91.8851 178.848C91.8851 178.848 63.8923 180.043 52.5641 180.213V180.214Z" fill="#76B072"/>
<path d="M64.7113 180.898C64.7306 180.898 64.7482 180.898 64.7675 180.896C73.8448 180.262 88.31 179.345 91.0874 179.408L91.423 180.581L92.3847 179.122C92.4312 179.051 97.0951 171.978 99.126 169.12C99.3829 168.759 99.2978 168.258 98.9366 168.001C98.5753 167.744 98.0744 167.829 97.8176 168.19C96.0612 170.66 92.3734 176.226 91.3267 177.81C91.0923 177.801 90.8209 177.804 90.5079 177.806C89.7902 177.812 88.7467 177.846 87.4045 177.905C85.1553 178.003 82.0294 178.175 78.1137 178.414C71.4526 178.822 64.7209 179.291 64.6551 179.295C64.2136 179.326 63.8797 179.71 63.9102 180.153C63.9391 180.577 64.2923 180.899 64.7097 180.899L64.7113 180.898Z" fill="#519A4C"/>
</svg>
