<svg width="221" height="175" viewBox="0 0 221 175" fill="none" xmlns="http://www.w3.org/2000/svg">
<path d="M66.6462 60.2624C76.4086 68.1656 86.2949 75.9223 95.8982 84.0141C104.454 91.2244 112.634 98.8792 121.101 106.194C125.964 110.394 131.132 114.236 136.052 118.371C142.024 123.387 147.87 128.553 153.792 133.631C155.786 135.34 157.69 137.219 159.901 138.589C162.157 139.988 162.757 141.788 162.447 144.175C160.145 144.166 158.301 144.853 157.529 147.294C157.383 147.756 157.053 148.192 156.723 148.56C154.633 150.885 152.446 153.128 150.438 155.519C149.12 157.084 147.162 158.373 147.493 160.873C143.565 161.147 141.115 158.42 138.474 156.26C132.175 151.11 125.965 145.849 119.778 140.565C115.139 136.603 110.616 132.507 105.998 128.522C102.02 125.089 97.9504 121.762 93.9713 118.331C87.1037 112.408 80.2562 106.462 73.4397 100.48C68.0874 95.7834 62.7804 91.0335 57.4813 86.2753C54.8013 83.8688 52.1834 81.3903 49.5382 78.9458C55.2401 72.7168 60.9426 66.4904 66.6462 60.2624ZM116.409 114.449C115.044 113.317 113.682 112.184 112.317 111.052C112.159 109.625 111.928 108.203 111.857 106.771C111.649 102.53 110.281 100.967 106.234 100.398C103.973 100.08 101.722 99.6934 99.4669 99.3377C97.8663 98.0145 96.2673 96.6923 94.6677 95.3675C94.8728 93.2677 94.9382 91.142 95.3269 89.0772C95.6438 87.3989 94.8953 86.3111 93.5296 86.4624C92.606 86.5658 91.6186 87.8373 91.0458 88.8148C90.5718 89.6221 90.6667 90.7608 90.5074 91.753C87.6316 89.1439 84.8396 86.4342 81.8521 83.9637C80.0488 82.4719 78.0595 80.7089 75.924 80.3136C74.7237 80.0914 73.0537 82.4053 71.5951 83.5753C71.5294 83.6289 71.4517 83.6698 71.3912 83.7291C69.0918 85.96 68.9804 87.8703 71.3254 89.9803C74.0283 92.4136 76.8924 94.6688 79.7059 96.9787C83.1111 99.7718 86.5578 102.513 89.9476 105.326C94.5695 109.16 99.1398 113.058 103.759 116.898C108.185 120.577 112.611 124.256 117.094 127.864C123.552 133.065 130.019 138.26 136.573 143.337C139.007 145.222 140.639 144.973 142.083 143.014C144.575 139.633 144.602 137.514 142.183 135.463C140.569 134.095 138.956 132.726 137.343 131.357C138.098 131 138.972 130.782 139.575 130.252C140.35 129.573 140.907 128.646 141.558 127.826C140.732 127.315 139.898 126.361 139.084 126.379C136.555 126.435 134.025 126.784 131.518 127.172C130.065 127.396 129.212 127.09 129 125.531C128.739 123.613 128.346 121.711 128.143 119.789C127.735 115.923 125.605 114.069 121.693 114.266C119.934 114.352 118.172 114.388 116.409 114.449ZM66.4214 71.6135C66.3719 71.5687 66.324 71.525 66.2745 71.4802C66.7516 70.7729 67.4331 70.1237 67.653 69.3454C67.9199 68.3961 67.7973 67.339 67.8441 66.3278C66.7722 66.479 65.4361 66.2859 64.6911 66.8604C63.4767 67.7967 62.6778 69.2614 61.651 70.4563C59.5531 72.8982 57.3373 75.2447 55.3624 77.781C54.9228 78.3451 55.2792 79.5281 55.2686 80.4249C56.3511 80.3558 57.8522 80.7195 58.4464 80.1458C61.2399 77.4422 63.7862 74.4807 66.4214 71.6135Z" fill="#C7F0F1"/>
<path d="M66.6444 60.2625C60.9409 66.4905 55.24 72.7179 49.5364 78.9459C46.2258 76.492 42.7893 74.1876 39.6309 71.5518C33.3731 66.3314 27.2713 60.927 21.1042 55.5991C20.7186 55.2662 20.3187 54.9509 19.941 54.6097C17.1074 52.0426 17.0045 51.8913 19.3848 48.8316C22.9872 44.2032 26.6521 39.617 30.4566 35.1546C33.7217 31.3232 35.0513 31.2524 38.9214 34.514C46.3312 40.7574 53.6493 47.1097 61.0459 53.3693C62.4014 54.5158 63.9318 55.4638 65.4254 56.4394C66.9028 57.4018 67.6558 58.5335 66.6444 60.2625Z" fill="#60BCBC"/>
<path d="M147.492 160.871C147.162 158.372 149.12 157.083 150.436 155.516C152.447 153.125 154.632 150.883 156.721 148.558C157.052 148.189 157.381 147.755 157.527 147.292C158.3 144.851 160.143 144.163 162.446 144.173C165.164 146.147 167.963 148.024 170.573 150.132C171.823 151.142 171.491 152.491 170.535 153.77C167.319 158.079 164.166 162.436 161.006 166.787C159.283 169.159 157.076 169.626 154.669 167.877C151.946 165.902 148.9 164.214 147.492 160.871Z" fill="#60BCBC"/>
<path d="M137.347 131.353C138.96 132.721 140.573 134.091 142.186 135.46C144.605 137.51 144.578 139.63 142.086 143.011C140.643 144.968 139.01 145.218 136.577 143.334C130.022 138.257 123.557 133.063 117.098 127.861C112.615 124.252 108.187 120.573 103.762 116.894C99.1435 113.055 94.5732 109.157 89.9512 105.322C86.5614 102.51 83.1136 99.77 79.7096 96.9753C76.895 94.667 74.0319 92.4102 71.329 89.9769C68.9856 87.868 69.0954 85.9567 71.3948 83.7258C71.4553 83.6664 71.533 83.6255 71.5987 83.5719C73.0573 82.4019 74.7273 80.088 75.9276 80.3102C78.0631 80.7055 80.054 82.4695 81.8557 83.9604C84.8448 86.4319 87.6368 89.1416 90.5094 91.7487C90.5212 92.5649 90.5786 93.3845 90.5423 94.1979C90.3183 99.2221 91.4242 102.855 97.6179 103.57C98.8851 103.716 100.147 103.887 101.412 104.055C107.549 104.867 107.417 104.883 108.006 110.987C108.197 112.969 108.84 115.21 110.041 116.726C112.239 119.5 115.699 118.91 118.75 118.654C122.524 118.338 123.769 119.128 124.187 122.772C124.322 123.952 124.595 125.118 124.784 126.292C125.473 130.6 127.434 132.037 131.839 131.59C133.665 131.411 135.511 131.429 137.347 131.353Z" fill="#60BCBC"/>
<path d="M137.345 131.352C135.509 131.427 133.662 131.411 131.835 131.595C127.43 132.041 125.469 130.605 124.78 126.296C124.591 125.122 124.32 123.957 124.183 122.777C123.765 119.132 122.52 118.342 118.746 118.659C115.695 118.914 112.235 119.504 110.037 116.73C108.835 115.214 108.193 112.973 108.002 110.991C107.414 104.886 107.544 104.871 101.408 104.059C100.143 103.891 98.8794 103.719 97.6138 103.574C91.4185 102.858 90.3152 99.2247 90.5381 94.2021C90.5745 93.3887 90.5172 92.5691 90.5053 91.7528C90.6646 90.7606 90.5724 89.6214 91.0453 88.8156C91.617 87.8397 92.6055 86.5666 93.5291 86.4632C94.8948 86.312 95.6428 87.3971 95.3264 89.078C94.9362 91.1418 94.8723 93.2686 94.6672 95.3684C94.1509 98.6858 95.8974 100.13 99.4664 99.3386C101.722 99.6942 103.973 100.081 106.233 100.399C110.28 100.968 111.648 102.53 111.857 106.772C111.927 108.203 112.159 109.625 112.316 111.052C111.987 114.539 113.325 115.651 116.406 114.451C118.169 114.39 119.932 114.352 121.692 114.264C125.605 114.066 127.735 115.92 128.142 119.787C128.344 121.711 128.738 123.611 128.999 125.529C129.211 127.088 130.063 127.396 131.517 127.171C134.024 126.783 136.554 126.434 139.083 126.377C139.897 126.359 140.733 127.314 141.557 127.824C140.906 128.644 140.348 129.573 139.574 130.251C138.973 130.777 138.099 130.996 137.345 131.352Z" fill="#E3A791"/>
<path d="M66.4226 71.609C63.7863 74.4778 61.2411 77.4377 58.4449 80.1418C57.8508 80.7155 56.3512 80.353 55.2671 80.4209C55.2778 79.5242 54.9224 78.3396 55.361 77.7771C57.3359 75.2408 59.55 72.8932 61.6495 70.4523C62.6763 69.2574 63.4753 67.7927 64.6897 66.8564C65.4347 66.2819 66.7723 66.4761 67.8427 66.3238C67.7959 67.335 67.9184 68.3921 67.6515 69.3414C67.4316 70.1198 66.7501 70.7689 66.273 71.4762C66.3252 71.5205 66.3731 71.5642 66.4226 71.609Z" fill="#E3A791"/>
<path d="M99.4667 99.3371C95.8977 100.129 94.1512 98.6843 94.6675 95.3669C96.2666 96.689 97.8661 98.0138 99.4667 99.3371Z" fill="#87ADAA"/>
<path d="M116.41 114.446C113.329 115.646 111.991 114.534 112.321 111.048C113.683 112.181 115.045 113.314 116.41 114.446Z" fill="#87ADAA"/>
<path d="M96.0934 34.6579C105.856 42.5611 115.742 50.3178 125.345 58.4096C133.902 65.6199 142.081 73.2747 150.549 80.5892C155.411 84.7891 160.579 88.632 165.5 92.7662C171.472 97.7825 177.318 102.948 183.239 108.026C185.233 109.735 187.137 111.614 189.348 112.985C191.604 114.383 192.204 116.184 191.894 118.57C189.592 118.561 187.748 119.248 186.976 121.69C186.831 122.152 186.501 122.587 186.17 122.956C184.08 125.281 181.893 127.524 179.885 129.914C178.567 131.48 176.609 132.769 176.94 135.269C173.012 135.543 170.562 132.815 167.921 130.656C161.622 125.506 155.412 120.245 149.225 114.96C144.587 110.998 140.063 106.902 135.445 102.917C131.467 99.4849 127.398 96.1572 123.419 92.7265C116.551 86.8033 109.703 80.8572 102.887 74.8751C97.5347 70.1789 92.2277 65.429 86.9286 60.6708C84.2486 58.2643 81.6307 55.7858 78.9854 53.3413C84.6874 47.1123 90.3899 40.8859 96.0934 34.6579ZM145.857 88.845C144.492 87.7125 143.129 86.5796 141.764 85.4471C141.606 84.0202 141.375 82.5981 141.305 81.1664C141.096 76.9252 139.728 75.3623 135.681 74.7934C133.42 74.4754 131.17 74.0889 128.914 73.7332C127.314 72.41 125.715 71.0878 124.115 69.763C124.32 67.6632 124.385 65.5375 124.774 63.4727C125.091 61.7944 124.343 60.7066 122.977 60.8579C122.053 60.9613 121.066 62.2328 120.493 63.2103C120.019 64.0176 120.114 65.1563 119.955 66.1485C117.079 63.5394 114.287 60.8297 111.299 58.3592C109.496 56.8674 107.507 55.1044 105.371 54.7091C104.171 54.4869 102.501 56.8008 101.042 57.9708C100.977 58.0244 100.899 58.0653 100.838 58.1247C98.5391 60.3555 98.4277 62.2658 100.773 64.3758C103.476 66.8091 106.34 69.0643 109.153 71.3742C112.558 74.1673 116.005 76.9088 119.395 79.7212C124.017 83.5559 128.587 87.4537 133.206 91.2932C137.632 94.9729 142.059 98.6511 146.542 102.26C152.999 107.461 159.466 112.655 166.021 117.733C168.454 119.617 170.086 119.368 171.53 117.409C174.022 114.029 174.049 111.909 171.63 109.859C170.016 108.49 168.403 107.122 166.791 105.752C167.545 105.396 168.419 105.177 169.022 104.648C169.797 103.968 170.354 103.042 171.005 102.222C170.179 101.71 169.345 100.756 168.532 100.774C166.003 100.831 163.472 101.18 160.965 101.568C159.512 101.792 158.66 101.486 158.448 99.9266C158.186 98.0085 157.794 96.1065 157.59 94.184C157.183 90.3187 155.052 88.4649 151.14 88.661C149.381 88.7473 147.619 88.7838 145.857 88.845ZM95.8687 46.009C95.8192 45.9642 95.7712 45.9205 95.7217 45.8757C96.1988 45.1684 96.8803 44.5192 97.1002 43.7409C97.3671 42.7916 97.2446 41.7345 97.2914 40.7233C96.2194 40.8745 94.8834 40.6814 94.1384 41.2559C92.924 42.1922 92.125 43.6569 91.0982 44.8518C89.0003 47.2937 86.7846 49.6402 84.8097 52.1765C84.37 52.7406 84.7265 53.9236 84.7158 54.8204C85.7984 54.7514 87.2995 55.115 87.8936 54.5413C90.6872 51.8377 93.2334 48.8762 95.8687 46.009Z" fill="#E8DCCC"/>
<path d="M96.0917 34.66C90.3882 40.8879 84.6872 47.1154 78.9837 53.3433C75.6731 50.8895 72.2365 48.5851 69.0782 45.9493C62.8204 40.7288 56.7186 35.3244 50.5515 29.9966C50.1658 29.6636 49.766 29.3484 49.3883 29.0071C46.5547 26.4401 46.4518 26.2888 48.8321 23.2291C52.4344 18.6007 56.0994 14.0144 59.9039 9.55203C63.169 5.72069 64.4986 5.64986 68.3687 8.91145C75.7784 15.1548 83.0965 21.5072 90.4931 27.7667C91.8486 28.9133 93.379 29.8613 94.8726 30.8369C96.3501 31.7992 97.1031 32.931 96.0917 34.66Z" fill="#EBBC75"/>
<path d="M176.939 135.267C176.61 132.768 178.567 131.479 179.884 129.913C181.895 127.522 184.079 125.279 186.168 122.955C186.499 122.586 186.828 122.152 186.975 121.688C187.747 119.247 189.59 118.56 191.893 118.569C194.611 120.544 197.41 122.42 200.02 124.529C201.27 125.538 200.938 126.888 199.982 128.167C196.766 132.475 193.613 136.833 190.453 141.183C188.73 143.555 186.523 144.022 184.116 142.274C181.394 140.298 178.348 138.61 176.939 135.267Z" fill="#EBBC75"/>
<path d="M166.79 105.751C168.404 107.119 170.016 108.489 171.63 109.858C174.049 111.908 174.022 114.028 171.53 117.409C170.087 119.366 168.453 119.616 166.02 117.732C159.465 112.655 153.001 107.461 146.541 102.259C142.058 98.6502 137.63 94.9709 133.206 91.2922C128.587 87.4528 124.017 83.555 119.395 79.7203C116.005 76.9079 112.557 74.1679 109.153 71.3732C106.338 69.0649 103.475 66.8082 100.772 64.3749C98.4289 62.266 98.5388 60.3546 100.838 58.1237C100.899 58.0644 100.976 58.0234 101.042 57.9699C102.501 56.7998 104.171 54.486 105.371 54.7081C107.506 55.1034 109.497 56.8675 111.299 58.3583C114.288 60.8298 117.08 63.5396 119.953 66.1466C119.965 66.9628 120.022 67.7825 119.986 68.5958C119.762 73.62 120.868 77.253 127.061 77.9676C128.328 78.1143 129.591 78.285 130.855 78.4525C136.992 79.2653 136.86 79.2813 137.45 85.3846C137.641 87.3667 138.283 89.6078 139.485 91.1241C141.683 93.8976 145.143 93.308 148.193 93.0523C151.967 92.7361 153.213 93.526 153.63 97.1704C153.766 98.3502 154.038 99.5155 154.227 100.69C154.917 104.998 156.878 106.435 161.282 105.988C163.109 105.809 164.954 105.827 166.79 105.751Z" fill="#EBBC75"/>
<path d="M166.79 105.749C164.954 105.824 163.107 105.808 161.28 105.992C156.876 106.439 154.914 105.002 154.225 100.694C154.036 99.5192 153.765 98.3549 153.628 97.1741C153.211 93.5297 151.965 92.7397 148.191 93.056C145.141 93.3117 141.68 93.9013 139.482 91.1278C138.281 89.6115 137.639 87.3704 137.448 85.3883C136.859 79.2834 136.99 79.2689 130.853 78.4562C129.589 78.2886 128.325 78.1169 127.059 77.9713C120.864 77.2556 119.76 73.6222 119.983 68.5996C120.02 67.7862 119.962 66.9665 119.951 66.1503C120.11 65.158 120.018 64.0188 120.491 63.2131C121.062 62.2372 122.051 60.9641 122.974 60.8607C124.34 60.7095 125.088 61.7946 124.772 63.4755C124.381 65.5392 124.318 67.666 124.113 69.7658C123.596 73.0833 125.343 74.5277 128.912 73.7361C131.167 74.0917 133.418 74.4782 135.678 74.7961C139.725 75.3651 141.094 76.9279 141.302 81.1691C141.372 82.6008 141.604 84.0229 141.762 85.4499C141.432 88.9364 142.77 90.0483 145.852 88.8483C147.614 88.7871 149.377 88.749 151.137 88.6612C155.05 88.4635 157.181 90.3173 157.587 94.1842C157.79 96.1082 158.183 98.0087 158.445 99.9268C158.657 101.486 159.508 101.794 160.962 101.568C163.469 101.18 166 100.831 168.529 100.775C169.342 100.756 170.178 101.712 171.002 102.222C170.351 103.042 169.793 103.97 169.019 104.648C168.418 105.174 167.545 105.393 166.79 105.749Z" fill="#4EC1C1"/>
<path d="M95.8679 46.0074C93.2316 48.8762 90.6864 51.8361 87.8902 54.5402C87.2961 55.1139 85.7965 54.7514 84.7125 54.8194C84.7231 53.9226 84.3677 52.738 84.8064 52.1755C86.7812 49.6392 88.9953 47.2916 91.0948 44.8508C92.1216 43.6559 92.9206 42.1912 94.1351 41.2549C94.88 40.6804 96.2176 40.8745 97.288 40.7222C97.2412 41.7334 97.3637 42.7906 97.0968 43.7399C96.8769 44.5182 96.1954 45.1673 95.7183 45.8747C95.7705 45.9189 95.8184 45.9627 95.8679 46.0074Z" fill="#67B1B1"/>
<path d="M128.913 73.734C125.344 74.5257 123.597 73.0813 124.114 69.7638C125.713 71.086 127.312 72.4108 128.913 73.734Z" fill="#87ADAA"/>
<path d="M145.857 88.8445C142.775 90.0445 141.437 88.9326 141.767 85.4461C143.129 86.5791 144.492 87.7121 145.857 88.8445Z" fill="#87ADAA"/>
</svg>
