<svg width="46" height="32" viewBox="0 0 46 32" fill="none" xmlns="http://www.w3.org/2000/svg">
<path fill-rule="evenodd" clip-rule="evenodd" d="M6.71973 3.29002L0.719727 0.140015L3.27972 5.81001" fill="#FF5E0D"/>
<path fill-rule="evenodd" clip-rule="evenodd" d="M17.2199 8.73998L45.2199 5.66998C45.2199 5.66998 37.4299 20.42 26.5399 22.76L27.8899 24.14L37.7899 25.15L37.5598 31.39L27.7998 27.13C22.2098 26.64 16.2999 25.03 11.4099 22.28C7.78986 20.24 4.48986 17.33 3.12986 13.28C1.53986 8.51998 2.39984 1.50997 8.85984 1.83997C12.7698 2.03997 15.4799 5.60998 17.2199 8.73998Z" fill="#00BCB7"/>
<path fill-rule="evenodd" clip-rule="evenodd" d="M8.64009 5.49999C8.51009 6.08999 7.97007 6.46998 7.43007 6.34998C6.89007 6.22998 6.55007 5.66999 6.68007 5.07999C6.80007 4.48999 7.35009 4.10999 7.89009 4.21999C8.43009 4.33999 8.77009 4.90998 8.64009 5.48998V5.49999Z" fill="black"/>
<path d="M21.0596 12.93L36.7696 11.4" stroke="#51E5DE" stroke-miterlimit="10"/>
<path d="M21.7598 15.64L31.5898 16.45" stroke="#51E5DE" stroke-miterlimit="10"/>
</svg>
