<svg width="68" height="50" viewBox="0 0 68 50" fill="none" xmlns="http://www.w3.org/2000/svg">
<path d="M67.1306 2.01656V47.9813C67.1306 49.0531 66.2478 49.9989 65.1129 49.9989H2.94392C1.87204 49.9989 0.92627 49.1162 0.92627 47.9813V2.01656C0.92627 0.944677 1.80899 -0.00109863 2.94392 -0.00109863H65.1129C66.2478 0.0619531 67.1306 0.944677 67.1306 2.01656Z" fill="#3E5FFF"/>
<path d="M67.1305 4.09729H0.989258V45.9636H67.1305V4.09729Z" fill="#F8F8F8"/>
<path d="M63.032 13.9333H30.182C29.8668 13.9333 29.5515 13.6811 29.5515 13.3028C29.5515 12.9875 29.8037 12.6722 30.182 12.6722H63.032C63.3472 12.6722 63.6625 12.9244 63.6625 13.3028C63.6625 13.618 63.4103 13.9333 63.032 13.9333Z" fill="#97C6FF"/>
<path d="M63.032 17.8426H30.182C29.8668 17.8426 29.5515 17.5904 29.5515 17.2121C29.5515 16.8968 29.8037 16.5815 30.182 16.5815H63.032C63.3472 16.5815 63.6625 16.8337 63.6625 17.2121C63.6625 17.5904 63.4103 17.8426 63.032 17.8426Z" fill="#FFE094"/>
<path d="M48.9084 21.815H30.182C29.8668 21.815 29.5515 21.5628 29.5515 21.1845C29.5515 20.8692 29.8037 20.554 30.182 20.554H48.9084C49.2237 20.554 49.5389 20.8062 49.5389 21.1845C49.5389 21.5628 49.2867 21.815 48.9084 21.815Z" fill="#FFB2B0"/>
<path d="M48.9084 25.787H30.182C29.8668 25.787 29.5515 25.5348 29.5515 25.1565C29.5515 24.8413 29.8037 24.526 30.182 24.526H48.9084C49.2237 24.526 49.5389 24.7782 49.5389 25.1565C49.5389 25.4718 49.2867 25.787 48.9084 25.787Z" fill="#C5DDFF"/>
<path d="M58.7445 29.6963H30.182C29.8668 29.6963 29.5515 29.4441 29.5515 29.0658C29.5515 28.7506 29.8037 28.4353 30.182 28.4353H58.7445C59.0597 28.4353 59.375 28.6875 59.375 29.0658C59.375 29.4441 59.0597 29.6963 58.7445 29.6963Z" fill="#B3B3FF"/>
<path d="M20.1253 25.9985H5.96116C4.43752 25.9985 3.19604 24.451 3.19604 22.5519V9.75059C3.19604 7.85149 4.43752 6.30408 5.96116 6.30408H20.1253C21.649 6.30408 22.8904 7.85149 22.8904 9.75059V22.5519C22.8904 24.451 21.649 25.9985 20.1253 25.9985Z" fill="#8EC1FF"/>
<path d="M11.061 9.09082V13.7194" stroke="white" stroke-miterlimit="10"/>
<path d="M11.4963 17.4766H14.328V20.0904H16.1249" stroke="white" stroke-miterlimit="10"/>
<path d="M14.8726 13.4471H18.4121" stroke="white" stroke-miterlimit="10"/>
<path d="M14.8726 15.952H18.4121" stroke="white" stroke-miterlimit="10"/>
<path d="M7.41235 13.4471H10.9519" stroke="white" stroke-miterlimit="10"/>
<path d="M7.41235 15.952H10.9519" stroke="white" stroke-width="1.6672" stroke-miterlimit="10"/>
<path d="M11.4963 17.2043V20.3082" stroke="white" stroke-miterlimit="10"/>
<path d="M14.0559 11.7591V8.98193" stroke="white" stroke-miterlimit="10"/>
<path d="M8.22933 15.9519C8.22933 16.3876 7.84815 16.7688 7.41252 16.7688C6.97688 16.7688 6.5957 16.3876 6.5957 15.9519C6.5957 15.5163 6.97688 15.1351 7.41252 15.1351C7.84815 15.1351 8.22933 15.4619 8.22933 15.9519Z" fill="#5493F7" stroke="white" stroke-width="0.4" stroke-miterlimit="10"/>
<path d="M11.8775 9.19963C11.8775 9.63526 11.4963 10.0164 11.0607 10.0164C10.6251 10.0164 10.2439 9.63526 10.2439 9.19963C10.2439 8.76399 10.6251 8.38281 11.0607 8.38281C11.4963 8.38281 11.8775 8.76399 11.8775 9.19963Z" fill="#5493F7" stroke="white" stroke-width="0.4" stroke-miterlimit="10"/>
<path d="M17.1051 20.0904C17.1051 20.526 16.7239 20.9072 16.2882 20.9072C15.8526 20.9072 15.4714 20.526 15.4714 20.0904C15.4714 19.6547 15.8526 19.2736 16.2882 19.2736C16.7239 19.2736 17.1051 19.6547 17.1051 20.0904Z" fill="#5493F7" stroke="white" stroke-width="0.4" stroke-miterlimit="10"/>
<path d="M14.3826 18.13H10.952C9.97183 18.13 9.20947 17.3677 9.20947 16.3875V12.9569C9.20947 11.9767 9.97183 11.2144 10.952 11.2144H14.3826C15.3628 11.2144 16.1252 11.9767 16.1252 12.9569V16.3875C16.1252 17.3677 15.3083 18.13 14.3826 18.13Z" fill="#5493F7" stroke="white" stroke-width="0.4" stroke-miterlimit="10"/>
<path d="M10.9519 17.5311C10.3529 17.5311 9.86279 17.0411 9.86279 16.4421V13.0114C9.86279 12.4125 10.3529 11.9224 10.9519 11.9224H14.3825C14.9815 11.9224 15.4716 12.4125 15.4716 13.0114V16.4421C15.4716 17.0411 14.9815 17.5311 14.3825 17.5311H10.9519Z" stroke="white" stroke-width="0.4" stroke-miterlimit="10"/>
<path d="M23.8138 36.3798H12.9059C11.5187 36.3798 10.3838 35.2448 10.3838 33.8577V23.0128C10.3838 21.6257 11.5187 20.4907 12.9059 20.4907H23.8138C25.2009 20.4907 26.3359 21.6257 26.3359 23.0128V33.9207C26.3359 35.3079 25.2009 36.3798 23.8138 36.3798Z" fill="#5493F7"/>
<path d="M16.3128 24.0272L19.8984 32.4148H18.4388C18.259 32.4148 18.1532 32.3936 18.1003 32.3619C18.0474 32.3196 18.0051 32.2561 17.9628 32.1715L17.0532 30.0138H14.2397L13.2243 32.4148H12.6426L16.0907 24.0272H16.3128ZM14.4512 29.4955H16.8522L15.657 26.6397L14.4512 29.4955Z" fill="white"/>
<path d="M22.4898 32.4147H21.1571C20.9773 32.4147 20.861 32.3724 20.7869 32.2983C20.7235 32.2243 20.6812 32.108 20.6812 31.9387V24.3021H22.4792V32.4147H22.4898Z" fill="white"/>
</svg>
