<svg width="81" height="61" viewBox="0 0 81 61" fill="none" xmlns="http://www.w3.org/2000/svg">
<path d="M4.54506 60.881H75.7287C78.2686 60.881 80.2738 58.809 80.2738 56.336V5.40456C80.2738 2.86467 78.2018 0.859497 75.7287 0.859497H4.54506C2.00517 0.859497 0 2.93151 0 5.40456V56.336C0 58.809 2.07201 60.881 4.54506 60.881Z" fill="#4E77EA" fill-opacity="0.6"/>
<path d="M25.3583 52.9712H9.18321C7.58786 52.9712 6.27441 51.6578 6.27441 50.0624V33.8205C6.27441 32.2252 7.58786 30.9117 9.18321 30.9117H25.4251C27.0205 30.9117 28.3339 32.2252 28.3339 33.8205V50.0624C28.3339 51.6515 27.0268 52.9712 25.3583 52.9712Z" fill="white" stroke="white"/>
<path d="M14.179 35.8823L18.827 46.7549H16.9349C16.7018 46.7549 16.5647 46.7275 16.4961 46.6864C16.4276 46.6315 16.3727 46.5493 16.3179 46.4396L15.1388 43.6426H11.4917L10.1755 46.7549H9.42139L13.8911 35.8823H14.179ZM11.7659 42.9708H14.8783L13.3289 39.2689L11.7659 42.9708Z" fill="#5493F7"/>
<path d="M22.1863 46.7552H20.4588C20.2257 46.7552 20.0749 46.7003 19.9789 46.6043C19.8966 46.5084 19.8418 46.3575 19.8418 46.1382V36.239H22.1726V46.7552H22.1863Z" fill="#5493F7"/>
<path d="M6.64771 8.81323H34.6533" stroke="white" stroke-width="2" stroke-miterlimit="10" stroke-linecap="round"/>
<path d="M6.64771 20.0823H34.6533" stroke="white" stroke-width="2" stroke-miterlimit="10" stroke-linecap="round"/>
</svg>
