<svg width="86" height="101" viewBox="0 0 86 101" fill="none" xmlns="http://www.w3.org/2000/svg">
<g clip-path="url(#clip0_364_7193)">
<path d="M69.5898 17.4587L70.4192 15.3207C67.3905 15.1213 62.2952 14.7653 58.8992 14.7547C57.4465 12.5773 55.1165 11.3453 52.5505 12.1847C51.1778 9.926 49.9192 8.628 49.4505 8.04467L44.1452 8.57067C44.0545 8.49867 43.9632 8.428 43.8711 8.35733L43.1578 3.138C42.5078 2.844 40.6612 1.77333 37.7725 0.957333C34.9145 0.15 32.8285 0.0926667 32.1105 0L28.7785 4.06667C28.6498 4.07933 28.5212 4.09333 28.3925 4.10867L24.1385 0.878C22.4752 1.75467 23.3291 0.0213333 14.1631 6.23667L14.6731 11.36C14.4531 11.6133 14.2405 11.8707 14.0351 12.1307L8.75248 12.848C8.44582 13.5113 7.29648 15.42 6.42782 18.4947C5.75982 20.858 5.64648 22.518 5.52048 23.32L9.46448 26.5447C9.49648 27.1493 9.55515 27.7553 9.63982 28.358L6.47248 32.53L6.85182 33.6427C8.49582 38.4633 11.0898 41.2707 11.4851 41.864L15.0558 41.5087C14.4905 42.514 13.9731 43.584 13.5645 44.7367C11.8138 49.6673 12.5378 54.3987 11.7605 59.9647L8.00648 72.4533C4.97582 78.826 1.52915 82.1727 0.0771484 84.0867C0.0771484 84.0867 3.92315 84.8207 4.26848 84.8867L2.90648 89.4173L56.9858 100.001L82.9225 18.6787L69.5892 17.4593L69.5898 17.4587Z" fill="white"/>
<path d="M80.4305 11.6453L55.4107 90.092L4.60596 80.1494L26.6762 6.72852L80.4305 11.6453Z" fill="#76A0EE"/>
<path d="M77.6523 13.9081C77.6523 13.9081 28.2492 9.04909 27.6536 9.8149C26.203 16.4145 23.5318 22.7438 19.8171 28.3876C17.9765 31.184 15.8567 33.8619 14.7369 37.0164C13.3735 40.8577 13.6117 45.0495 13.3217 49.1155C12.6526 58.5107 8.991 67.6705 3 74.9385C3 74.9385 45.3795 83.0254 45.3236 83.5993C51.3691 79.3414 55.4902 72.4519 56.3826 65.111C56.838 61.3623 56.4956 57.5108 57.3975 53.8438C58.7011 48.5457 62.4246 44.2477 65.5941 39.8067C71.1821 31.977 75.3202 23.1155 77.6523 13.9067V13.9081Z" fill="#DBE2F3"/>
<path d="M39.2361 25.3687C38.1456 28.8683 33.45 30.7947 30.284 29.5061C28.8674 28.9261 27.6993 27.598 27.5557 26.0453C27.4577 24.9235 27.896 23.8044 28.5516 22.8827C30.2806 20.4389 33.629 19.2708 36.5044 20.1122C39.0292 20.8487 39.8569 23.366 39.2361 25.3687Z" fill="#FFF8EC"/>
<path d="M36.5466 28.6967C33.8598 30.3889 30.0165 30.4938 28.2119 27.8308C29.25 27.2835 30.3861 26.9363 31.5536 26.8737C33.3772 26.7682 35.2669 27.4135 36.5466 28.6974V28.6967Z" fill="#FFB020"/>
<path d="M35.4648 21.8017C34.908 21.5171 34.1959 21.5641 33.6806 21.9188C32.746 22.5627 32.7018 23.9446 33.4356 24.4837C34.0333 24.9234 34.9175 24.6178 35.4342 24.0855C35.959 23.5443 36.4403 22.3 35.4641 21.8017H35.4648Z" fill="#FFB020"/>
<path d="M31.1292 39.1008C30.9332 40.2757 30.2245 41.2927 29.537 42.2675C28.874 43.2075 28.2008 44.1571 27.4193 45.0026C26.3172 46.1898 24.8666 47.3082 23.2608 47.3238C21.4467 47.3388 19.5686 45.8971 19.1649 43.3369C18.299 37.7094 24.2621 33.1962 29.586 35.6468C30.9992 36.2989 31.3287 37.9258 31.1285 39.1008H31.1292Z" fill="#968ADC"/>
<path d="M27.4189 45.0019C26.3169 46.1891 24.8662 47.3075 23.2604 47.3232C21.4463 47.3381 19.5682 45.8964 19.1646 43.3362C20.2374 42.8175 21.3633 42.4247 22.5484 42.3961C24.4701 42.3539 26.3638 43.3988 27.4189 45.0012V45.0019Z" fill="#FFFBFB"/>
<path d="M26.8635 37.3315C26.3707 36.9803 25.6825 36.9632 25.1345 37.2212C24.5865 37.4792 24.1774 37.983 23.9576 38.5466C23.3218 40.1749 24.9745 41.1299 26.5293 39.7801C27.2046 39.194 27.8172 38.0109 26.8629 37.3315H26.8635Z" fill="#FFFBFB"/>
<path d="M25.9853 64.2813C25.6068 65.0947 25.1439 65.8803 24.5755 66.5712C24.1827 67.0484 23.741 67.4827 23.2427 67.8475C19.7697 70.3825 15.735 68.0763 16.3034 64.8742C16.3981 64.2962 16.4961 64.0539 17.7166 60.4808C19.0522 56.5619 20.7465 55.2985 25.4244 57.2338C27.0179 59.2303 27.4407 61.1819 25.9853 64.2819V64.2813Z" fill="#FFEDED"/>
<path d="M24.5755 66.5712C24.1827 67.0484 23.741 67.4827 23.2427 67.8476C19.7697 70.3826 15.735 68.0763 16.3034 64.8742C17.8425 64.2289 19.5682 64.0253 21.1774 64.429C22.4993 64.7585 23.7199 65.5229 24.5755 66.5712Z" fill="#FF9191"/>
<path d="M21.1483 58.9484C20.5091 59.4127 20.2314 60.3181 20.501 61.0614C20.6113 61.3664 20.8073 61.6434 21.0748 61.8272C21.8645 62.3691 23.0264 61.8994 23.539 61.09C24.7167 59.2303 22.52 57.9526 21.1483 58.9491V58.9484Z" fill="#FF9191"/>
<path d="M43.5846 21.6165L42.5186 25.2801L57.1662 26.8621L57.9164 23.1556L43.5846 21.6165Z" fill="#B2ACA3"/>
<path d="M35.1688 37.6957L33.8359 41.153L48.7505 43.0284L50.2174 39.6119L35.1688 37.6957Z" fill="#B2ACA3"/>
<path d="M31.7529 58.6101L30.8359 62.0593L46.8342 64.2206L47.8341 60.9429L31.7529 58.6101Z" fill="#B2ACA3"/>
<path d="M49.6679 68.6194C49.6433 68.6194 49.6188 68.6174 49.5937 68.614L29.5962 65.6978C29.3171 65.6569 29.1238 65.3982 29.1646 65.1191C29.2055 64.8401 29.4635 64.6467 29.7432 64.6876L49.7407 67.6038C50.0198 67.6446 50.2131 67.9033 50.1723 68.1824C50.1355 68.4363 49.917 68.6194 49.6679 68.6194Z" fill="white"/>
<path d="M53.8863 47.8343C53.8638 47.8343 53.8407 47.8329 53.8182 47.8295L32.3116 44.9508C32.0318 44.9133 31.8358 44.6567 31.8732 44.3769C31.9107 44.0978 32.168 43.9004 32.4471 43.9386L53.9537 46.8173C54.2335 46.8547 54.4295 47.1114 54.3921 47.3912C54.3574 47.6478 54.1382 47.8343 53.8863 47.8343Z" fill="white"/>
<path d="M62.3558 31.0369L41.1086 28.5373C40.8288 28.5047 40.628 28.2508 40.6613 27.971C40.694 27.6912 40.9479 27.4911 41.2277 27.5238L62.4749 30.0234C62.7547 30.056 62.9555 30.3099 62.9222 30.5897C62.8888 30.8715 62.6336 31.0703 62.3558 31.0369Z" fill="white"/>
<path d="M39.7011 7.01647L38.4697 13.3635L64.823 15.0517L67.4513 8.27512C67.4513 8.27512 60.0294 7.78432 57.5761 7.93272C57.0064 6.54609 55.8301 5.20168 54.342 5.01584C52.854 4.83 50.8091 6.31669 49.916 7.52088L39.7011 7.01715V7.01647Z" fill="#FFB020"/>
<g clip-path="url(#clip1_364_7193)">
<path fill-rule="evenodd" clip-rule="evenodd" d="M36.0641 59.0765C36.0586 58.3319 36.0641 57.0219 36.1246 56.3262C36.1851 55.625 36.2951 55.5326 36.4656 55.4565C36.6361 55.3859 36.8616 55.3315 38.1431 55.3098C39.4246 55.2826 41.762 55.2826 42.972 55.3913C44.182 55.5 44.2645 55.7174 44.292 55.9838C44.3195 56.2501 44.2975 56.5599 44.2645 57.1252C44.2315 57.6905 44.1875 58.5004 44.138 58.9678C44.0885 59.4352 44.028 59.5603 43.7695 59.6581C43.511 59.7559 43.0545 59.8266 41.7455 59.9136C40.4365 59.9951 38.2751 60.0929 37.1861 60.0494C36.0971 60.006 36.0751 59.8266 36.0641 59.0819V59.0765Z" fill="#F48682"/>
<path fill-rule="evenodd" clip-rule="evenodd" d="M52.4535 58.8211C52.822 57.609 53.6085 55.4131 54.087 54.2608C54.5654 53.1139 54.7359 53.0161 54.9339 52.94C55.1374 52.8639 55.3739 52.8041 57.8049 52.6954C60.2358 52.5867 64.8667 52.4291 67.3802 52.3747C69.8936 52.3204 70.2896 52.3747 70.5426 52.4834C70.7956 52.5976 70.9056 52.7715 71.2906 53.5922C71.6756 54.413 72.3355 55.8805 72.748 56.7665C73.1605 57.6525 73.32 57.9569 73.408 58.2884C73.4905 58.62 73.5015 58.9733 73.463 59.169C73.4245 59.3592 73.3475 59.3918 69.9816 59.5494C66.6157 59.7071 59.9608 59.9897 56.4519 60.1636C52.9375 60.3376 52.5635 60.4028 52.349 60.3267C52.1345 60.2506 52.085 60.0332 52.4535 58.8211Z" fill="#F48682"/>
<path fill-rule="evenodd" clip-rule="evenodd" d="M58.1407 54.9892C57.8657 55.4132 57.5852 56.2665 57.5468 56.7013C57.5083 57.1416 57.7172 57.1688 58.7017 57.1688C59.6917 57.1688 61.4627 57.1307 63.2061 57.109C64.9496 57.0873 66.671 57.0818 67.5785 57.022C68.486 56.9622 68.5795 56.8535 68.6565 56.7448C68.728 56.6307 68.783 56.5165 68.64 56.1306C68.497 55.7447 68.156 55.0925 67.9085 54.75C67.661 54.4076 67.496 54.3804 67.3145 54.3587C67.133 54.3424 66.924 54.3315 65.6811 54.3424C64.4326 54.3533 62.1501 54.3804 60.8577 54.4239C59.5652 54.462 59.2627 54.5163 58.9767 54.5381C58.6907 54.5652 58.4157 54.5652 58.1407 54.9892Z" fill="#333333"/>
<path fill-rule="evenodd" clip-rule="evenodd" d="M32.9071 58.8809C35.6186 58.7668 40.9094 58.6907 46.8933 58.5928C52.8772 58.4896 59.5485 58.3591 65.5214 58.2721C71.4888 58.1852 76.7521 58.1417 79.5186 58.1145C82.2795 58.0873 82.549 58.071 82.7305 58.4189C82.912 58.7668 83.0165 59.4788 83.0055 60.3648C82.989 61.2507 82.857 62.3106 82.4995 62.8216C82.1365 63.3325 81.5535 63.289 74.7502 63.2781C67.9523 63.2727 54.9396 63.2999 46.4808 63.5336C38.022 63.7619 34.1171 64.1967 32.1536 64.0826C30.1902 63.9684 30.1737 63.2999 30.1297 62.4139C30.0857 61.5279 30.0087 60.4246 30.0417 59.794C30.0692 59.1635 30.2012 59.0005 32.9126 58.8863L32.9071 58.8809Z" fill="#DD7774"/>
<path fill-rule="evenodd" clip-rule="evenodd" d="M37.7633 62.8433C45.2157 62.8161 60.1203 62.8324 68.7936 62.8596C77.4669 62.8868 79.9034 62.9357 81.1794 63.0118C82.4553 63.0879 82.5653 63.1966 82.6258 63.4412C82.6863 63.6858 82.6918 64.0608 82.6918 67.7134C82.6918 71.366 82.6753 78.2961 82.4828 81.8291C82.2903 85.3567 81.9218 85.4872 81.7898 85.5143C81.6578 85.5361 81.7623 85.4491 76.8125 85.71C71.8681 85.9709 61.8693 86.5797 53.68 86.9547C45.4907 87.3243 39.1108 87.4548 35.5469 87.4765C31.983 87.4982 31.2295 87.4113 30.7785 87.3026C30.322 87.1939 30.1625 87.0634 30.102 86.7373C30.0415 86.4112 30.0855 85.8894 30.1955 84.15C30.3055 82.4162 30.4815 79.4647 30.6135 76.6601C30.7455 73.8554 30.8335 71.1975 30.773 68.9473C30.7125 66.697 30.5035 64.8598 30.4045 63.9032C30.3055 62.9466 30.311 62.8759 37.7633 62.8487V62.8433Z" fill="#F48682"/>
<path fill-rule="evenodd" clip-rule="evenodd" d="M30.2399 87.5418C30.1849 88.1396 30.1464 89.2539 30.1409 89.9605C30.1354 90.6617 30.1574 90.9552 30.2784 91.1291C30.3994 91.303 30.6194 91.3628 31.3894 91.3683C32.1594 91.3737 33.4738 91.3302 40.8437 91.0748C48.2135 90.8193 61.6442 90.3464 69.3275 90.1507C77.0109 89.9605 78.9523 90.0475 80.2173 90.0094C81.4823 89.9714 82.0707 89.8137 82.3952 89.4224C82.7197 89.0311 82.7747 88.406 82.7747 87.6559C82.7747 86.9058 82.7142 86.0253 82.6592 85.5633C82.6042 85.1013 82.5547 85.0578 82.3787 85.0306C82.2082 85.0034 81.9112 84.9871 79.8928 85.0632C77.8688 85.1393 74.1234 85.3078 67.1331 85.6448C60.1427 85.9818 49.913 86.4927 43.8576 86.7536C37.8022 87.02 35.9323 87.0417 34.4583 87.0254C32.9898 87.0091 31.9229 86.9602 31.3179 86.9112C30.7129 86.8623 30.5754 86.8188 30.4709 86.8406C30.3664 86.8623 30.2949 86.9439 30.2399 87.5418Z" fill="#DD7774"/>
<path fill-rule="evenodd" clip-rule="evenodd" d="M53.2015 67.8548C54.406 64.9033 56.6114 63.0444 59.0534 61.9247C61.4953 60.8051 64.1682 60.43 66.7587 60.8812C69.3436 61.3323 71.8461 62.6096 73.6225 64.6153C75.399 66.6209 76.4605 69.3495 76.8565 72.2303C77.2525 75.1056 76.9885 78.1277 75.6355 80.5844C74.2825 83.0412 71.8406 84.9273 68.7551 85.7426C65.6697 86.5579 61.9353 86.297 58.9654 84.9708C55.9954 83.65 53.79 81.2639 52.789 78.057C51.788 74.8447 51.997 70.8062 53.2015 67.8602V67.8548Z" fill="white"/>
<path fill-rule="evenodd" clip-rule="evenodd" d="M57.5188 71.1975C57.8818 69.6212 58.4648 67.833 59.9938 66.7677C61.5173 65.6969 63.9812 65.349 66.2251 65.7893C68.4691 66.2296 70.4876 67.4525 71.329 69.7028C72.1705 71.953 71.835 75.2306 70.9385 77.4917C70.0421 79.7528 68.5901 80.9975 66.6156 81.3128C64.6412 81.628 62.1387 81.0138 60.4283 79.8941C58.7178 78.7744 57.7938 77.1438 57.4033 75.6437C57.0129 74.1435 57.1558 72.7792 57.5188 71.2029V71.1975Z" fill="#4D4D4D"/>
<path fill-rule="evenodd" clip-rule="evenodd" d="M34.7494 68.5668C34.5899 71.1921 34.4909 76.5079 34.4469 79.5952C34.4029 82.6825 34.4194 83.5413 34.5184 84.0685C34.6229 84.6012 34.8099 84.8023 35.5633 84.8621C36.3113 84.9219 37.6203 84.8349 38.3628 84.6664C39.1053 84.4979 39.2813 84.2533 39.3748 83.9761C39.4683 83.6989 39.4848 83.3945 39.5122 80.4431C39.5397 77.4917 39.5837 71.8987 39.5837 69.0723C39.5837 66.2459 39.5397 66.1861 39.2978 66.1209C39.0558 66.0556 38.6158 65.985 38.1593 65.9632C37.7028 65.9469 37.2408 65.9795 36.7623 66.0067C36.2893 66.0339 35.8053 66.0502 35.4588 66.0285C35.1123 66.0013 34.8979 65.9361 34.7384 68.5559L34.7494 68.5668Z" fill="#7FD4E7"/>
<path fill-rule="evenodd" clip-rule="evenodd" d="M67.3695 69.4691C67.0175 69.5669 66.4565 69.6974 66.0826 70.0289C65.7031 70.3605 65.5106 70.8986 65.7031 71.3443C65.8956 71.79 66.484 72.1487 67.144 72.0292C67.804 71.9041 68.541 71.3008 68.7005 70.7573C68.86 70.2137 68.442 69.73 68.1615 69.5234C67.8755 69.3115 67.727 69.3767 67.375 69.4691H67.3695Z" fill="#EFFAF6"/>
<path fill-rule="evenodd" clip-rule="evenodd" d="M64.5645 73.5401C64.2346 73.6651 63.8936 74.1108 63.9156 74.5184C63.9376 74.9261 64.3171 75.2957 64.6525 75.3501C64.9825 75.4044 65.2685 75.1544 65.4115 74.8446C65.5545 74.5402 65.5545 74.176 65.3895 73.8988C65.2245 73.6162 64.9 73.4151 64.5645 73.5401Z" fill="#EFFAF6"/>
</g>
</g>
<defs>
<clipPath id="clip0_364_7193">
<rect width="85" height="100" fill="white" transform="translate(0.5 0.5)"/>
</clipPath>
<clipPath id="clip1_364_7193">
<rect width="56.1592" height="42.8852" fill="white" transform="translate(26.8408 52.3584)"/>
</clipPath>
</defs>
</svg>
