<svg width="130" height="130" viewBox="0 0 130 130" fill="none" xmlns="http://www.w3.org/2000/svg">
<path d="M65 130C100.899 130 130 100.899 130 65C130 29.1015 100.899 0 65 0C29.1015 0 0 29.1015 0 65C0 100.899 29.1015 130 65 130Z" fill="#C4CEFF"/>
<mask id="mask0_1793_269" style="mask-type:alpha" maskUnits="userSpaceOnUse" x="0" y="0" width="129" height="129">
<path d="M64.2124 128.425C99.6759 128.425 128.425 99.6759 128.425 64.2124C128.425 28.7489 99.6759 0 64.2124 0C28.7489 0 0 28.7489 0 64.2124C0 99.6759 28.7489 128.425 64.2124 128.425Z" fill="#C4CEFF"/>
</mask>
<g mask="url(#mask0_1793_269)">
<path d="M64.6956 122.054C64.6956 122.054 40.4201 135.833 64.6956 157.857C64.6956 157.857 90.5423 138.581 64.6956 122.054Z" fill="url(#paint0_linear_1793_269)"/>
<path d="M64.813 125.195C64.813 125.195 50.2006 133.478 64.813 146.747C64.813 146.747 80.3682 135.166 64.813 125.195Z" fill="url(#paint1_linear_1793_269)"/>
<path d="M91.6426 93.5927C91.6426 112.829 79.4263 134.145 65.0496 134.145C50.7121 134.145 38.4565 112.868 38.4565 93.5927C38.4565 74.3567 50.6728 64.3854 65.0496 64.3854C79.387 64.3854 91.6426 74.3174 91.6426 93.5927Z" fill="url(#paint2_linear_1793_269)"/>
<path d="M85.9462 71.3732C85.9462 78.5573 76.5581 84.4066 65.0096 84.4066C53.4611 84.4066 44.073 78.5965 44.073 71.3732C44.073 64.1892 53.4611 58.3398 65.0096 58.3398C76.5974 58.3398 85.9462 64.1892 85.9462 71.3732Z" fill="#DCDCEA"/>
<path d="M98.7127 56.5733C98.7127 62.0301 94.274 66.4661 88.814 66.4661H40.3023C34.8423 66.4661 30.4036 62.0301 30.4036 56.5733C30.4036 51.1166 34.8423 46.6805 40.3023 46.6805H88.814C94.274 46.6805 98.7127 51.1166 98.7127 56.5733Z" fill="#A0A0C1"/>
<path d="M98.7127 58.3399C98.7127 63.7967 94.274 68.2327 88.814 68.2327H40.3023C34.8423 68.2327 30.4036 63.7967 30.4036 58.3399C30.4036 52.8832 34.8423 48.4471 40.3023 48.4471H88.814C94.274 48.4471 98.7127 52.8832 98.7127 58.3399Z" fill="#8080A2"/>
<path d="M66.1883 17.2771H62.8887V34.0006H66.1883V17.2771Z" fill="#8080A2"/>
<path d="M69.5271 19.9857C69.5271 22.7337 67.2881 24.9713 64.5385 24.9713C61.7888 24.9713 59.5498 22.7337 59.5498 19.9857C59.5498 17.2377 61.7888 15 64.5385 15C67.2881 15 69.5271 17.2377 69.5271 19.9857Z" fill="white"/>
<path d="M90.9351 57.7902C90.9351 67.1334 83.3539 74.7101 74.0051 74.7101H55.0718C45.723 74.7101 38.1418 67.1334 38.1418 57.7902V49.0359C38.1418 39.6927 45.723 32.1161 55.0718 32.1161H73.9659C83.3147 32.1161 90.8958 39.6927 90.8958 49.0359V57.7902H90.9351Z" fill="#F4F4F4"/>
<path d="M90.9351 61.1665C90.9351 70.5097 83.3539 78.0863 74.0051 78.0863H55.0718C45.723 78.0863 38.1418 70.5097 38.1418 61.1665V52.4514C38.1418 43.1082 45.723 35.5316 55.0718 35.5316H73.9659C83.3147 35.5316 90.8958 43.1082 90.8958 52.4514V61.1665H90.9351Z" fill="white"/>
<path d="M85.5535 60.9308C85.5535 68.5075 79.19 74.6316 71.3339 74.6316H57.7035C49.8474 74.6316 43.4839 68.5075 43.4839 60.9308C43.4839 53.3542 49.8474 47.2301 57.7035 47.2301H71.3339C79.19 47.2301 85.5535 53.3935 85.5535 60.9308Z" fill="#343E49"/>
<path d="M85.4358 59.3605C85.4358 66.9371 79.0724 73.0612 71.2162 73.0612H57.5858C49.7297 73.0612 43.3662 66.9371 43.3662 59.3605C43.3662 51.7839 49.7297 45.6598 57.5858 45.6598H71.2162C79.1116 45.6598 85.4358 51.8232 85.4358 59.3605Z" fill="#5D5D77"/>
<path d="M56.9573 60.0672C56.9573 61.3234 56.0538 62.3441 54.9147 62.3441C53.7755 62.3441 52.8721 61.3234 52.8721 60.0672C52.8721 58.811 53.7755 57.7903 54.9147 57.7903C56.0145 57.7903 56.9573 58.811 56.9573 60.0672Z" fill="#B3B3FF"/>
<path d="M77.2261 60.0672C77.2261 61.3234 76.3226 62.3441 75.1835 62.3441C74.0443 62.3441 73.1409 61.3234 73.1409 60.0672C73.1409 58.811 74.0443 57.7903 75.1835 57.7903C76.3226 57.7903 77.2261 58.811 77.2261 60.0672Z" fill="#B3B3FF"/>
<path d="M32.0844 87.1093C30.4263 91.3417 32.5133 96.1171 36.7457 97.7752C40.9782 99.4334 45.7536 97.3464 47.4117 93.114C49.0698 88.8816 46.9828 84.1062 42.7504 82.4481C38.5179 80.7899 33.7425 82.8769 32.0844 87.1093Z" fill="#8080A2"/>
<path d="M30.9105 70.6239C27.9863 71.5273 26.407 74.804 27.3743 77.9421L31.8554 94.4573C32.8227 97.5954 35.983 99.4097 38.9024 98.5048C41.8266 97.6013 43.4059 94.3246 42.4386 91.1865L37.9623 74.6728C36.9902 71.5332 33.8348 69.7204 30.9105 70.6239Z" fill="white"/>
<path d="M23.9215 69.5403C22.7621 73.489 25.0231 77.6295 28.9718 78.7889C32.9205 79.9483 37.061 77.6874 38.2204 73.7387C39.3798 69.7901 37.1188 65.6496 33.1701 64.4902C29.2214 63.3307 25.0809 65.5916 23.9215 69.5403Z" fill="#8080A2"/>
<path d="M41.9891 56.4196C41.3063 55.1341 39.7022 54.5845 38.3666 55.274L36.1696 56.3854L34.2281 52.5656L33.8242 49.5594L33.05 43.7975C32.8817 42.5449 31.745 41.6775 30.4924 41.8458C29.2399 42.0141 28.3724 43.1508 28.5407 44.4033L29.6784 52.8708C29.2267 52.1664 28.3577 51.7731 27.506 51.8875C26.7043 51.9952 26.0134 52.5471 25.7501 53.2456C25.2618 52.6481 24.4998 52.2914 23.6981 52.3991C22.8965 52.5068 22.2055 53.0588 21.9423 53.7572C21.4539 53.1597 20.6919 52.803 19.8903 52.9108C18.6377 53.079 17.7702 54.2158 17.9385 55.4683L18.329 58.3743C18.3963 58.8754 18.6072 59.3061 18.9617 59.6665L19.3117 62.2719C19.9513 67.0317 24.3276 70.3714 29.0874 69.7318C32.9955 69.2068 35.9956 66.1002 36.513 62.3581L40.9003 60.0854C42.129 59.3592 42.6786 57.7552 41.9891 56.4196Z" fill="#F7F7F7"/>
<path d="M59.1179 64.8173C59.1179 64.8173 64.6565 69.9992 70.9807 64.8173" stroke="#B3B3FF" stroke-miterlimit="10" stroke-linecap="round" stroke-linejoin="round"/>
<path d="M41.4019 110.591C41.4019 110.591 47.4118 108.511 48.9045 99.8347C48.9045 99.8347 62.4563 103.132 82.6859 99.8347C82.6859 99.8347 83.4322 108.471 88.6958 110.591C88.6958 110.591 83.4715 109.296 82.2931 100.541C82.2931 100.541 65.8737 104.506 49.4937 100.62C49.4544 100.659 48.276 108.275 41.4019 110.591Z" fill="#8080A2"/>
<path d="M51.0258 98.8531C51.0258 99.0886 50.8294 99.2849 50.5937 99.2849C50.358 99.2849 50.1616 99.0886 50.1616 98.8531C50.1616 98.6176 50.358 98.4213 50.5937 98.4213C50.8294 98.4213 51.0258 98.6176 51.0258 98.8531Z" fill="#8080A2"/>
<path d="M51.026 102.582C51.026 102.818 50.8296 103.014 50.594 103.014C50.3583 103.014 50.1619 102.818 50.1619 102.582C50.1619 102.347 50.3583 102.151 50.594 102.151C50.8296 102.19 51.026 102.347 51.026 102.582Z" fill="#8080A2"/>
<path d="M81.5861 98.8531C81.5861 99.0886 81.3897 99.2849 81.154 99.2849C80.9183 99.2849 80.7219 99.0886 80.7219 98.8531C80.7219 98.6176 80.9183 98.4213 81.154 98.4213C81.3897 98.4213 81.5861 98.6176 81.5861 98.8531Z" fill="#8080A2"/>
<path d="M81.5861 102.582C81.5861 102.818 81.3897 103.014 81.154 103.014C80.9183 103.014 80.7219 102.818 80.7219 102.582C80.7219 102.347 80.9183 102.151 81.154 102.151C81.3897 102.19 81.5861 102.347 81.5861 102.582Z" fill="#8080A2"/>
<path d="M87.0857 58.7324C87.0072 50.4099 79.8974 43.6577 71.2163 43.6577H57.5859C48.8263 43.6577 41.6772 50.4885 41.6772 58.8502C41.6772 59.3998 41.7165 59.9494 41.7951 60.5383C41.8736 68.8608 48.9835 75.613 57.7038 75.613H71.3342C80.0938 75.613 87.2429 68.7823 87.2429 60.4205C87.2036 59.8709 87.1643 59.282 87.0857 58.7324ZM71.2949 73.925H57.6645C49.8476 73.925 43.4842 67.8794 43.4449 60.4205C43.3663 59.9102 43.327 59.3606 43.327 58.8502C43.327 51.3914 49.6905 45.3458 57.5466 45.3458H71.1771C78.9939 45.3458 85.3574 51.3914 85.3967 58.8502C85.4752 59.3606 85.5145 59.9102 85.5145 60.4205C85.5145 67.8794 79.151 73.925 71.2949 73.925Z" fill="#7171C9"/>
<path d="M87.0857 59.2818C87.0071 50.9593 79.8973 44.207 71.177 44.207H57.5466C48.787 44.207 41.6379 51.0378 41.6379 59.3995C41.6379 59.9491 41.6772 60.4987 41.7558 61.0876C41.8343 69.4101 48.9441 76.1623 57.6645 76.1623H71.2949C80.0545 76.1623 87.2036 69.3316 87.2036 60.9698C87.2036 60.4202 87.1643 59.8314 87.0857 59.2818ZM71.2949 74.4743H57.6645C49.8476 74.4743 43.4841 68.4287 43.4449 60.9698C43.3663 60.4595 43.327 59.9099 43.327 59.3995C43.327 51.9407 49.6905 45.8951 57.5466 45.8951H71.177C78.9939 45.8951 85.3574 51.9407 85.3966 59.3995C85.4752 59.9099 85.5145 60.4595 85.5145 60.9698C85.5145 68.4287 79.151 74.4743 71.2949 74.4743Z" fill="#9D9AFF"/>
<path d="M71.0622 91.6268C71.0622 94.5005 68.7373 96.8254 65.8636 96.8254C62.9899 96.8254 60.6726 94.4929 60.6726 91.6268C60.6726 88.7531 62.9975 86.4282 65.8712 86.4282C68.7449 86.4282 71.0622 88.7531 71.0622 91.6268Z" fill="#ACACD9"/>
<path d="M65.7948 91.0704C65.5127 91.0704 65.2993 90.8417 65.2993 90.5521V89.3249C65.2993 89.0428 65.5127 88.8065 65.7948 88.8065C66.0768 88.8065 66.2903 89.0352 66.2903 89.3249V90.5597C66.2903 90.8417 66.0768 91.0704 65.7948 91.0704Z" fill="#D3DCF3"/>
<path d="M65.8712 94.3633C64.3467 94.3633 63.1042 93.1209 63.1042 91.5963C63.1042 90.9713 63.3253 90.3615 63.7141 89.866C63.8894 89.645 64.2171 89.6068 64.4382 89.7898C64.6593 89.9651 64.6974 90.2929 64.5144 90.5139C64.2629 90.8341 64.1257 91.2076 64.1257 91.604C64.1257 92.5644 64.9032 93.3419 65.8636 93.3419C66.8241 93.3343 67.6092 92.5492 67.6092 91.5963C67.6092 91.2 67.4796 90.8188 67.2281 90.5063C67.0527 90.2853 67.0832 89.9575 67.3043 89.7822C67.5253 89.6068 67.8531 89.6373 68.0284 89.8584C68.4248 90.3462 68.6382 90.9637 68.6382 91.5887C68.6382 93.1209 67.3958 94.3633 65.8712 94.3633Z" fill="#D3DCF3"/>
<path d="M88.9728 95.0217C92.9287 96.003 96.9962 93.6048 97.97 89.6126C98.953 85.6586 96.5546 81.594 92.5605 80.6219C88.6046 79.6406 84.5371 82.0388 83.5633 86.031C82.5896 90.0231 84.9787 94.0496 88.9728 95.0217Z" fill="#8080A2"/>
<path d="M78.8593 103.165C80.7891 104.96 83.9255 104.726 85.8469 102.645L91.4189 96.611C93.3403 94.5303 93.3454 91.3785 91.4156 89.5836C89.4857 87.7887 86.3494 88.0227 84.428 90.1035L78.8559 96.1376C76.8963 98.2276 76.8913 101.379 78.8593 103.165Z" fill="white"/>
<path d="M79.9494 106.334C83.3917 107.197 86.8471 105.109 87.6736 101.677C88.5384 98.2368 86.4497 94.7839 83.0166 93.9587C79.5743 93.0954 76.119 95.1839 75.2924 98.6154C74.4184 102.018 76.5071 105.471 79.9494 106.334Z" fill="#8080A2"/>
<path d="M65.9436 101.403C66.1159 103.785 68.2841 105.562 70.8292 105.391L78.1974 104.94C80.7425 104.769 82.6731 102.726 82.5482 100.373C82.4141 97.9821 80.2077 96.2137 77.6626 96.3854L70.2945 96.8359C67.7112 97.0168 65.7805 99.0594 65.9436 101.403Z" fill="white"/>
<path d="M62.6087 105.159C65.2627 106.94 68.8505 106.234 70.6426 103.619C72.4255 100.966 71.7193 97.38 69.1034 95.5896C66.4494 93.8084 62.8617 94.5152 61.0696 97.1302C59.2867 99.7832 59.9547 103.378 62.6087 105.159Z" fill="#8080A2"/>
<path d="M55.5577 90.3859C55.0195 91.0008 55.1543 92.0588 55.9209 92.7215L56.6402 93.3552L50.9569 92.7516C50.2143 92.689 49.572 93.208 49.4709 93.9595C49.4081 94.7018 49.9272 95.3436 50.6791 95.4443L53.5352 95.7225C53.4391 95.8265 53.3905 95.9594 53.2944 96.0635L48.4394 95.5421C47.6967 95.4795 47.0544 95.9985 46.9534 96.75C46.8906 97.4923 47.4097 98.1341 48.1616 98.2348L52.5122 98.6763C52.5214 98.7145 52.4925 98.7619 52.5017 98.8001L47.9799 98.3192C47.2372 98.2566 46.5949 98.7756 46.4939 99.5271C46.431 100.269 46.9501 100.911 47.702 101.012L53.1759 101.585C53.1851 101.624 53.2418 101.691 53.251 101.729L50.7096 101.415C49.967 101.352 49.3351 101.748 49.2446 102.375C49.1922 102.994 49.7218 103.512 50.4737 103.613L56.9377 104.27C56.9852 104.299 57.0615 104.28 57.1379 104.262C57.2235 104.282 57.3473 104.292 57.4328 104.312L60.422 104.638C62.1641 104.823 63.7412 104.158 64.8835 103.033C65.2007 102.674 67.3247 100.261 66.1554 97.4342C65.4843 95.4962 63.7521 94.017 61.5531 93.7818L61.4293 93.7714C61.3357 93.5517 61.1565 93.3123 60.9484 93.1203L57.9674 90.4893C57.1533 89.7977 56.096 89.7709 55.5577 90.3859Z" fill="white"/>
</g>
<path d="M114 108C102.142 121.2 85.3088 129.581 66.5675 130C66.0223 130 65.5452 130 65 130C45.6453 130 28.1989 121.549 16 108H114Z" fill="#CCD0DE"/>
<path d="M97.1226 34.9688C102.585 34.0765 106.291 28.9246 105.398 23.4618C104.506 17.999 99.3542 14.2938 93.8913 15.1861C88.4285 16.0784 84.7233 21.2303 85.6156 26.6931C86.5079 32.1559 91.6598 35.8611 97.1226 34.9688Z" fill="#7186FF"/>
<path d="M101.11 25.4221L103.665 24.98L103.222 22.376L100.668 22.8182C100.52 22.4252 100.275 22.0321 100.029 21.6882L101.699 19.723L99.685 18.0526L98.0146 20.0178C97.6215 19.8212 97.2285 19.6739 96.8355 19.5756V16.9717H94.1824V19.6247C93.7402 19.723 93.3472 19.8704 93.0033 20.0669L91.3328 18.1017L89.3185 19.7721L90.9889 21.7373C90.7433 22.0813 90.4976 22.4252 90.3502 22.8673L87.7954 22.4252L87.3533 25.0291L89.9081 25.4713C89.9572 25.9134 90.0063 26.3065 90.1046 26.7486L87.8446 28.026L89.1711 30.286L91.4311 29.0087C91.7259 29.3034 92.0698 29.5982 92.4137 29.8439L91.5294 32.2513L93.9859 33.1356L94.8702 30.7282C95.0668 30.7282 95.3124 30.7774 95.5089 30.7774C95.7055 30.7774 95.9511 30.7773 96.1476 30.7282L97.032 33.1356L99.4885 32.2513L98.6042 29.8439C98.9481 29.5982 99.292 29.3526 99.5868 29.0087L101.847 30.286L103.173 28.026L100.913 26.7486C101.012 26.3065 101.11 25.8643 101.11 25.4221Z" fill="white"/>
<path d="M95.5086 21.9338C97.2282 21.9338 98.653 23.3586 98.653 25.0782C98.653 26.7978 97.2282 28.2225 95.5086 28.2225C93.789 28.2225 92.3643 26.7978 92.3643 25.0782C92.3643 23.3586 93.789 21.9338 95.5086 21.9338ZM95.5086 20.9021C93.1995 20.9021 91.3325 22.7691 91.3325 25.0782C91.3325 27.3873 93.1995 29.2543 95.5086 29.2543C97.8177 29.2543 99.6847 27.3873 99.6847 25.0782C99.6847 22.7691 97.8177 20.9021 95.5086 20.9021Z" fill="#8FA2FF"/>
<defs>
<linearGradient id="paint0_linear_1793_269" x1="65.033" y1="157.864" x2="65.033" y2="122.058" gradientUnits="userSpaceOnUse">
<stop stop-color="#FFBFD3"/>
<stop offset="1" stop-color="#FF6666"/>
</linearGradient>
<linearGradient id="paint1_linear_1793_269" x1="65.0325" y1="146.756" x2="65.0325" y2="125.21" gradientUnits="userSpaceOnUse">
<stop stop-color="white"/>
<stop offset="1" stop-color="#FFFF66"/>
</linearGradient>
<linearGradient id="paint2_linear_1793_269" x1="65.0496" y1="64.3854" x2="65.0496" y2="134.145" gradientUnits="userSpaceOnUse">
<stop stop-color="white"/>
<stop offset="1" stop-color="#E9E9E9"/>
</linearGradient>
</defs>
</svg>
