<svg width="106" height="100" viewBox="0 0 106 100" fill="none" xmlns="http://www.w3.org/2000/svg">
<g clip-path="url(#clip0_364_7845)">
<path d="M97.6415 0.457381L96.609 0C95.936 0.305155 84.276 6.58586 66.6524 12.1491C61.5211 12.9328 56.5597 13.8039 51.7597 14.6475C48.0436 15.3 45.6622 16.095 43.2816 19.3559L32.5941 16.1098L19.5492 48.4633C9.27544 62.702 2.08562 62.8098 0.144043 63.9121C2.24912 66.4266 4.27597 69.0905 9.4474 73.5178L8.61792 75.5742L9.84065 78.6145L53.9465 99.9993L81.154 33.7137L79.8452 30.4599L75.8444 29.2449L105.198 18.9316L105.55 17.7779C107.053 12.8644 102.798 2.74146 97.6422 0.456676L97.6415 0.457381Z" fill="white"/>
<path d="M73.8911 27.402C71.7409 29.555 69.2186 31.3352 66.4694 32.6389C57.8081 33.1767 49.0276 31.0695 41.4629 26.7881C45.3284 21.7147 44.3953 18.3643 52.1736 16.9978C57.0998 16.1324 62.026 15.2676 67.1953 14.4804C77.4931 11.2393 87.5512 7.23916 96.6756 2.63928C100.65 4.39974 104.43 13.2824 103.268 17.0802L73.8918 27.4013L73.8911 27.402Z" fill="#FFCFCA"/>
<path d="M34.511 20.3214L11.1909 75.5764L11.711 76.8696L52.7026 96.7448L78.5767 33.706L78.0573 32.4127L34.511 20.3214Z" fill="#EDD45B"/>
<path d="M33.9909 19.0282L11.1909 75.5764L52.1825 95.4516L78.0573 32.4127L33.9909 19.0282Z" fill="#EDD45B"/>
<path d="M4.14502 64.9811C4.14502 64.9811 18.7079 82.4356 38.9588 85.6641C38.9588 85.6641 56.3555 77.0809 72.831 32.4726L36.1229 21.8619C36.1229 21.8619 23.1464 57.9767 4.14502 64.9811Z" fill="#E9F0FF"/>
<path d="M60.9929 39.3897C53.1477 37.3163 45.3814 34.6595 37.9111 31.4916C37.6419 31.3775 37.5164 31.0674 37.6306 30.7982C37.7447 30.5289 38.0548 30.4035 38.324 30.5177C45.7486 33.6651 53.4669 36.3065 61.2635 38.3664C61.5462 38.4411 61.7146 38.7308 61.6399 39.0127C61.5652 39.296 61.2741 39.463 60.9936 39.389L60.9929 39.3897Z" fill="#A3A6B2"/>
<path d="M62.0743 47.051C52.05 44.3223 42.3188 40.4603 33.1522 35.5728C32.8943 35.4354 32.797 35.1147 32.9344 34.8575C33.0719 34.5996 33.3932 34.5023 33.6497 34.6397C42.7473 39.4905 52.4038 43.3229 62.352 46.0313C62.6339 46.1081 62.8002 46.3984 62.7234 46.6803C62.6458 46.9644 62.3534 47.1279 62.0743 47.0517V47.051Z" fill="#A3A6B2"/>
<path d="M33.9401 41.5061C35.6477 42.4596 37.3786 43.3716 39.1306 44.2419C40.6754 45.0094 41.1793 46.9658 40.1785 48.3703L33.5433 57.6843C32.6927 58.8781 31.0647 59.2107 29.8138 58.4475L25.1921 55.625C23.858 54.8103 23.4521 53.0583 24.2928 51.7404L30.224 42.4392C31.0196 41.1918 32.6483 40.7852 33.9401 41.5061Z" fill="#76A0EE"/>
<path d="M46.6685 72.7165C37.177 68.5366 28.1915 63.2193 19.96 56.9118C19.7282 56.7342 19.6845 56.4023 19.8621 56.1704C20.0397 55.9386 20.3723 55.8942 20.6035 56.0725C28.7672 62.3285 37.6809 67.6028 47.0949 71.7481C47.362 71.8658 47.4832 72.178 47.3655 72.4451C47.2485 72.7115 46.937 72.8341 46.6685 72.7165Z" fill="#A3A6B2"/>
<path d="M42.3634 77.6779C32.3279 73.8828 23.1464 68.3745 15.075 61.3059C14.8551 61.1135 14.8332 60.7795 15.0256 60.5596C15.218 60.3397 15.5521 60.3178 15.7719 60.5102C23.7483 67.495 32.8212 72.9384 42.7377 76.6884C43.0111 76.792 43.1485 77.0972 43.0449 77.3699C42.9413 77.6433 42.6362 77.7808 42.3634 77.6779Z" fill="#A3A6B2"/>
<path d="M57.3646 54.4959C52.5519 53.3634 47.9182 51.5761 43.5918 49.1835C43.3359 49.0419 43.2436 48.7205 43.3853 48.4647C43.5269 48.2089 43.8483 48.1165 44.1041 48.2582C48.3453 50.6043 52.8888 52.3563 57.6071 53.467C57.8918 53.5339 58.068 53.8186 58.001 54.1034C57.9334 54.3902 57.6465 54.5636 57.3653 54.4973L57.3646 54.4959Z" fill="#A3A6B2"/>
<path d="M54.4027 59.4898C49.4103 58.2015 44.5088 56.4445 39.8349 54.2676C39.5699 54.1443 39.455 53.8299 39.5783 53.565C39.7017 53.3 40.016 53.1851 40.281 53.3091C44.8964 55.4586 49.7359 57.1937 54.6663 58.4658C54.9489 58.5391 55.1194 58.8273 55.0461 59.1099C54.9735 59.3904 54.6881 59.5631 54.402 59.4898H54.4027Z" fill="#A3A6B2"/>
<path d="M51.5498 64.3039C46.2353 63.2694 41.0998 61.4856 36.2885 59.0028C36.0291 58.8689 35.927 58.5497 36.0609 58.2903C36.1948 58.031 36.514 57.9288 36.7734 58.0627C41.4959 60.4997 46.5355 62.2503 51.752 63.2658C52.0389 63.3215 52.2263 63.5992 52.1699 63.886C52.1143 64.1721 51.8373 64.3596 51.5498 64.3039Z" fill="#A3A6B2"/>
<path d="M68.5569 26.8572C64.1381 28.2836 61.6179 27.1877 59.9364 27.3942C58.5516 27.5641 53.7304 29.6691 52.5218 30.2153C50.0404 32.8116 47.1594 33.3571 45.1572 32.6396C43.9845 32.2196 43.8907 31.2612 44.4581 30.4909C45.3538 29.2752 50.5964 27.3667 54.5402 21.4144C57.6488 21.5413 60.8857 21.0409 63.7879 22.1622C65.666 22.8881 67.2764 24.287 68.5576 26.8565L68.5569 26.8572Z" fill="#FFCFCA"/>
<path d="M44.9787 33.1371C43.4149 32.5769 43.293 31.1801 44.0315 30.1772C45.088 28.7431 50.1234 27.1228 54.0989 21.1226C54.2609 20.8788 54.5886 20.8125 54.8318 20.9739C55.0756 21.1353 55.1419 21.4637 54.9805 21.7069C51.0402 27.6549 45.637 29.7811 44.8836 30.8044C44.4424 31.4035 44.5932 31.8749 45.3353 32.1413C47.7061 32.9899 50.3482 31.7241 52.1397 29.8495C52.1869 29.8009 52.2425 29.7607 52.3039 29.7332C53.5442 29.1722 58.4091 27.0488 59.8721 26.8691C61.8208 26.6302 63.9526 27.7874 68.3946 26.3533C68.6716 26.2638 68.9704 26.416 69.0606 26.6944C69.1508 26.972 68.9979 27.2708 68.7195 27.3603C64.2035 28.8185 61.5459 27.7303 60.0011 27.9192C58.7311 28.075 53.9981 30.13 52.8324 30.6557C50.2382 33.3225 47.1782 33.9258 44.9787 33.1379V33.1371Z" fill="#E8B9B4"/>
</g>
<defs>
<clipPath id="clip0_364_7845">
<rect width="105.712" height="100" fill="white" transform="translate(0.144043)"/>
</clipPath>
</defs>
</svg>
