<svg width="131" height="131" viewBox="0 0 131 131" fill="none" xmlns="http://www.w3.org/2000/svg">
<rect x="0.5" y="0.301758" width="130" height="130" rx="65" fill="#D8F6F8"/>
<rect x="0.5" y="0.301758" width="130" height="130" rx="65" fill="white"/>
<path d="M71.801 71.3423H35.4588C33.198 71.3423 31.3745 69.5188 31.3745 67.2581C31.3745 64.9973 33.198 63.1738 35.4588 63.1738H71.801V71.3423Z" fill="#FFEC6C"/>
<path d="M71.801 90.1531H35.4588C33.198 90.1531 31.3745 88.3296 31.3745 86.0689C31.3745 83.8081 33.198 81.9846 35.4588 81.9846H71.801V90.1531Z" fill="#F06000"/>
<path d="M74.4884 90.1532V95.5277H35.4588C32.8782 95.5277 30.5108 94.4507 28.7939 92.7338C27.077 91.0169 26 88.6496 26 86.0689C26 80.9076 30.1909 76.6101 35.4588 76.6101H74.4884V81.9847H35.4588C34.3818 81.9847 33.3047 82.4112 32.5582 83.1684C31.8011 83.9255 31.3745 84.8852 31.3745 86.0689C31.3745 88.3296 33.1981 90.1532 35.4588 90.1532H74.4884Z" fill="#F88F19"/>
<path d="M74.4884 71.3421V76.7167H35.4588C32.8782 76.7167 30.5108 75.6396 28.7939 73.9228C27.077 72.2059 26 69.8385 26 67.2579C26 62.0966 30.1909 57.7991 35.4588 57.7991H74.3817V63.1736H35.4588C34.3818 63.1736 33.3047 63.6002 32.5582 64.3573C31.8011 65.1145 31.3745 66.0742 31.3745 67.2579C31.3745 69.5186 33.1981 71.3421 35.4588 71.3421H74.4884Z" fill="#FFD400"/>
<path d="M61.0412 84.7786C60.2841 84.7786 59.6443 85.4184 59.6443 86.1755C59.6443 86.9327 60.2841 87.5725 61.0412 87.5725H71.7904V84.8852H61.0412V84.7786Z" fill="#C95302"/>
<path d="M48.895 65.9675C48.1485 65.9675 47.498 66.618 47.498 67.3645C47.498 68.111 48.1485 68.7615 48.895 68.7615H71.8009V66.0742H48.895V65.9675Z" fill="#FFD80C"/>
<path d="M94.3577 90.0468V95.4213H56.7251V41.665H62.1103V90.0468H94.3577Z" fill="#94D4FF"/>
<path d="M102.313 90.1533H61.9929V35H94.251V43.0618H102.313V90.1533Z" fill="#BCE4FF"/>
<path d="M78.1271 42.3745H67.3779V53.1236H78.1271V42.3745Z" fill="#51C193"/>
<path d="M94.251 35C96.725 37.474 99.8388 40.5878 102.313 43.0618H94.251V35Z" fill="#94D4FF"/>
<path d="M105 75.3199C105 78.0072 104.03 80.5879 102.313 82.4114C100.383 84.6721 97.4716 86.0691 94.2511 86.0691C88.3433 86.0691 83.502 81.2277 83.502 75.3199C83.502 69.4122 88.3433 64.5708 94.2511 64.5708C97.4822 64.5708 100.383 65.9678 102.313 68.2285C103.923 70.1586 105 72.6326 105 75.3199Z" fill="#757D8C"/>
<path d="M89.5 75L92.8586 78.3586C92.9367 78.4367 93.0633 78.4367 93.1414 78.3586L99 72.5" stroke="white" stroke-width="2.2" stroke-linecap="round"/>
<path d="M94.2511 52.5207H82.105C81.3478 52.5207 80.708 51.8809 80.708 51.1238C80.708 50.3666 81.3478 49.7268 82.105 49.7268H94.2511C95.0082 49.7268 95.648 50.3666 95.648 51.1238C95.5414 51.8809 94.8909 52.5207 94.2511 52.5207Z" fill="#3256C1"/>
<path d="M87.4795 45.4365H82.105C81.3478 45.4365 80.708 44.7967 80.708 44.0395C80.708 43.2824 81.3478 42.6426 82.105 42.6426H87.4795C88.2366 42.6426 88.8765 43.2931 88.8765 44.0395C88.8765 44.786 88.2366 45.4365 87.4795 45.4365Z" fill="#3256C1"/>
<path d="M88.8764 61.8835H67.3782C66.621 61.8835 65.9812 61.2437 65.9812 60.4866C65.9812 59.7294 66.621 59.0896 67.3782 59.0896H88.8764C89.6335 59.0896 90.2734 59.7294 90.2734 60.4866C90.1668 61.3503 89.5162 61.8835 88.8764 61.8835Z" fill="#3256C1"/>
<path d="M80.8145 68.9453H67.3782C66.621 68.9453 65.9812 68.2948 65.9812 67.5483C65.9812 66.8019 66.621 66.1514 67.3782 66.1514H80.8145C81.5717 66.1514 82.2115 66.8019 82.2115 67.5483C82.2115 68.2948 81.4544 68.9453 80.8145 68.9453Z" fill="#3256C1"/>
<path d="M78.1273 76.0073H67.3782C66.621 76.0073 65.9812 75.3568 65.9812 74.6103C65.9812 73.8639 66.621 73.2134 67.3782 73.2134H78.1273C78.8844 73.2134 79.5243 73.8639 79.5243 74.6103C79.5243 75.3568 78.7671 76.0073 78.1273 76.0073Z" fill="#3256C1"/>
<path d="M79.4176 83.0915H67.3782C66.621 83.0915 65.9812 82.4517 65.9812 81.6946C65.9812 80.9374 66.621 80.2976 67.3782 80.2976H79.5243C80.2814 80.2976 80.9212 80.9374 80.9212 81.6946C80.8146 82.4517 80.1641 83.0915 79.4176 83.0915Z" fill="#3256C1"/>
</svg>
