<svg width="18" height="17" viewBox="0 0 18 17" fill="none" xmlns="http://www.w3.org/2000/svg">
<path d="M9.45002 16.9409C14.1233 16.9409 17.9117 13.1486 17.9117 8.47047C17.9117 3.79236 14.1233 0 9.45002 0C4.77673 0 0.988281 3.79236 0.988281 8.47047C0.988281 13.1486 4.77673 16.9409 9.45002 16.9409Z" fill="#F04E2E"/>
<path d="M13.3482 13.3724C14.9888 13.3724 16.2346 13.0391 16.9007 12.4958C16.9747 12.3476 17.0487 12.1994 17.1104 12.0512L16.9993 11.9772C16.4443 12.8045 14.6434 13.249 12.1517 13.0267C12.6451 11.6808 13.7676 10.6313 14.8654 9.80398C16.8637 8.27288 17.1104 6.68003 17.1227 4.91432C17.0733 4.81554 17.024 4.70441 16.9747 4.60563H16.8267C16.8267 6.075 16.8513 7.91479 14.6804 9.56938C13.5332 10.4461 12.3491 11.5573 11.8434 13.002C11.3623 12.9526 10.8566 12.8785 10.3385 12.7674C13.7923 4.70441 12.3861 1.1236 12.016 0.407441C11.9544 0.382746 11.8804 0.370398 11.8064 0.345703L11.683 0.419789C12.5094 1.71629 12.9658 5.77866 10.0178 12.6933C9.53673 12.5945 9.04334 12.4711 8.53761 12.3229C9.10501 10.8288 8.72263 8.81617 7.87152 7.45793C6.26798 4.91432 5.54023 3.08687 6.25565 0.716132L6.11997 0.679089C6.11997 0.679089 6.00895 0.740827 5.94728 0.765522C5.26886 3.17331 6.00895 5.05015 7.62482 7.61845C8.41425 8.89026 8.79664 10.8412 8.2539 12.2488C7.90853 12.15 7.56315 12.0389 7.20544 11.9154C2.25915 10.1868 1.46971 6.14908 1.45738 6.09969L1.3217 6.12439C1.29703 6.22317 1.27236 6.3343 1.23535 6.43308C1.34637 6.8282 1.61773 7.6061 2.19747 8.49513C2.96223 9.66816 4.43009 11.2487 7.10676 12.1871C7.45213 12.3105 7.78518 12.397 8.13056 12.4958C8.05655 12.6439 7.98253 12.7798 7.89619 12.9156C7.02041 14.0763 5.2812 14.3232 2.88823 13.6194L2.85122 13.7552C2.90056 13.817 2.9499 13.8787 3.01157 13.9528C3.89969 14.1997 4.66445 14.3109 5.29353 14.3109C6.83539 14.3109 7.6865 13.7058 8.14289 13.1008C8.2539 12.9403 8.35258 12.7674 8.43893 12.5945C8.94466 12.7427 9.43805 12.8662 9.91911 12.965C9.40105 14.1627 8.7843 15.4468 8.04421 16.8174C8.14289 16.8298 8.2539 16.8545 8.35258 16.8668C9.09267 15.4962 9.70942 14.2121 10.2275 13.0391C10.7579 13.1502 11.276 13.2243 11.757 13.2737C11.498 14.2121 11.5226 15.2987 12.0407 16.5458C12.1271 16.5211 12.2134 16.484 12.2997 16.447H12.3121C11.8187 15.2493 11.794 14.2121 12.0654 13.3107C12.5218 13.3477 12.9535 13.3724 13.3605 13.3724H13.3482Z" fill="#9E291D"/>
<g style="mix-blend-mode:multiply" opacity="0.2">
<path d="M17.9119 8.47042C17.9119 5.46995 16.3454 2.83991 13.9894 1.3335C14.6432 2.29661 15.1242 3.39555 15.3339 4.61796C15.5559 5.90212 15.4819 7.17392 15.1612 8.35929C15.1612 8.35929 15.1612 8.38399 15.1489 8.39634C14.2978 11.5079 11.7321 14.0145 8.35235 14.6072C7.95764 14.6813 7.55059 14.706 7.15587 14.7183C7.15587 14.7183 7.15587 14.7183 7.15587 14.7307H7.10653C5.55233 14.7677 4.07215 14.3602 2.76465 13.6564C4.31884 15.6444 6.72415 16.9285 9.43782 16.9285C14.1127 16.9285 17.8996 13.1378 17.8996 8.45807L17.9119 8.47042Z" fill="#9E291D"/>
</g>
</svg>
