<svg width="130" height="114" viewBox="0 0 130 114" fill="none" xmlns="http://www.w3.org/2000/svg">
<path d="M28.523 106.589C17.0959 106.611 7.92195 97.3999 8.00588 86.0353C7.97769 74.6123 17.1875 65.4461 28.556 65.5357C39.9831 65.5133 49.157 74.7244 49.0731 86.089C49.1598 97.4 39.95 106.566 28.523 106.589Z" fill="#8080A2"/>
<path d="M72.2846 62.5722C76.574 68.9539 74.6034 77.7638 67.8088 82.3788L48.2314 95.8576C41.4369 100.473 32.4881 99.1241 28.1358 92.9099C23.7312 86.5806 25.817 77.7183 32.6115 73.1033L52.189 59.6246C59.0987 54.9572 68.0475 56.3057 72.2846 62.5722Z" fill="white"/>
<path d="M88.193 65.4782C84.9974 75.2613 74.4974 80.5883 64.7641 77.5136C54.9786 74.3239 49.6543 63.8305 52.7346 54.0998C55.9302 44.3167 66.4302 38.9897 76.1635 42.0643C85.949 45.2541 91.3885 55.6951 88.193 65.4782Z" fill="#8080A2"/>
<path d="M76.759 16.0246C79.3442 16.516 81.1017 19.4662 80.4727 22.6679L79.9065 25.7022L93.1198 12.8939C94.8788 11.2615 97.5374 11.303 99.2848 13.0081C100.917 14.7657 100.874 17.4232 99.1677 19.1707L92.4773 25.5435C92.9274 25.6166 93.3146 25.8572 93.7646 25.9304L105.041 14.9743C106.8 13.3419 109.459 13.3834 111.206 15.0885C112.838 16.8461 112.796 19.5036 111.089 21.2511L100.933 31.0038C100.985 31.1189 101.153 31.1816 101.205 31.2967L111.717 21.1045C113.476 19.4721 116.135 19.5136 117.882 21.2188C119.514 22.9763 119.471 25.6338 117.765 27.3813L105.023 39.6977C105.075 39.8128 105.064 40.0953 105.117 40.2104L110.938 34.3714C112.697 32.739 115.084 32.4875 116.559 33.8998C117.919 35.3644 117.605 37.729 115.898 39.4765L100.81 53.9695C100.748 54.1369 100.517 54.2416 100.287 54.3462C100.109 54.566 99.8157 54.838 99.6377 55.0578L92.7064 61.8177C88.6545 65.7418 83.3368 67.1864 78.2082 66.6012C76.6906 66.3189 66.5173 64.4161 63.8722 54.9268C61.7285 48.6809 63.1857 41.4928 68.2952 36.5327L68.5883 36.2606C68.3897 35.5178 68.3691 34.5553 68.5159 33.6554L70.8541 21.0684C71.5459 17.6994 74.1738 15.5332 76.759 16.0246Z" fill="white"/>
<path d="M93.6192 44.2738C93.8989 44.4544 94.2857 44.415 94.5454 44.1629C94.8558 43.8597 94.8803 43.3717 94.606 43.0734C91.5542 39.7502 88.0161 36.9618 84.0824 34.7856C83.7235 34.5911 83.2625 34.7319 83.0473 35.106C82.8383 35.484 82.9582 35.9532 83.3067 36.1503C87.1074 38.2594 90.5298 40.9543 93.4784 44.1643C93.5197 44.2095 93.5652 44.2482 93.6149 44.2804L93.6192 44.2738Z" fill="#E3E3E3"/>
<path d="M70.9013 49.0504C71.2622 49.1556 71.6545 49.055 71.879 48.7764C74.0968 46.0176 76.9999 40.995 77.2741 37.4978C77.3108 37.0441 76.9362 36.6254 76.4288 36.5635C75.9303 36.5042 75.4933 36.8239 75.4543 37.2855C75.2016 40.4795 72.4103 45.2165 70.3855 47.7392C70.0981 48.1026 70.1954 48.6211 70.607 48.913C70.6946 48.973 70.7956 49.0196 70.9013 49.0504Z" fill="#E3E3E3"/>
</svg>
