<svg width="110" height="100" viewBox="0 0 110 100" fill="none" xmlns="http://www.w3.org/2000/svg">
<g clip-path="url(#clip0_364_7904)">
<path d="M108.013 62.7518C105.497 59.8622 100.955 59.9734 98.5914 63.0164L87.5228 77.2661L84.3911 74.1773C93.1647 56.6869 98.0745 38.3786 98.9912 19.7258L98.9941 19.664V19.6022C99.0006 11.062 88.409 6.26195 88.3915 6.24014C85.6371 6.32083 82.7431 6.34846 80.0294 6.34846C38.1898 6.34846 28.8965 0.224628 27.4077 0C27.4549 3.39122 27.5174 4.52817 27.3539 8.03425C27.3408 8.04734 21.5841 14.0003 21.5841 14.0003L14.4948 6.71629C12.9145 5.09229 10.3592 4.63722 8.25979 5.82941C5.54827 7.36837 4.81695 10.9471 6.70194 13.4268L12.8781 21.5519L7.39472 28.0617C5.46249 30.3553 5.52791 33.7574 7.54593 35.976C9.75585 38.4048 13.5374 38.6229 16.0084 36.4006L21.7673 31.2211L23.9081 33.5698C16.5645 66.9536 1.63655 81.9789 0.478516 83.8603C20.2828 93.6261 44.0672 101.097 67.6189 99.867C71.5866 95.3991 75.3369 89.9594 78.4003 84.9616L84.4856 90.264C87.6697 93.038 92.4588 92.3765 94.8425 89.0718L108.361 70.3295C110.028 68.0171 109.886 64.9007 108.013 62.7511V62.7518Z" fill="white"/>
<path d="M30.0224 3.67395C30.0224 3.67395 30.721 49.7968 4.44824 82.974C4.44824 82.974 37.1886 99.2795 66.4062 97.3778C66.4062 97.3778 94.1343 66.3465 96.4322 19.6L87.8142 8.82148C87.8142 8.82148 47.5048 10.0195 30.0231 3.67468L30.0224 3.67395Z" fill="#E9F0FF"/>
<path d="M59.7873 15.6926L59.2617 20.2441C59.2617 20.2441 80.81 21.8056 86.912 20.6664L86.8691 16.3818C86.8691 16.3818 66.9318 16.8972 59.7873 15.6926Z" fill="#EDD45B"/>
<path d="M58.167 25.1859L57.9736 28.1148C57.9736 28.1148 80.1471 31.5758 87.6797 30.2019L88.1704 27.0534C88.1704 27.0534 70.1428 27.7615 58.167 25.1859Z" fill="#76A0EE"/>
<path d="M56.3618 32.7091L56.1685 35.638C56.1685 35.638 78.3419 39.099 85.8745 37.7251L86.3652 34.5766C86.3652 34.5766 68.3376 35.2847 56.3618 32.7091Z" fill="#F48682"/>
<path d="M83.417 20.1212L96.4323 19.6C96.4323 19.6 96.4381 13.2065 87.8143 8.82153L83.4177 20.1212H83.417Z" fill="#76A0EE"/>
<path d="M52.0155 44.5074C52.0002 44.5074 51.985 44.5074 51.9697 44.506C45.9687 44.0102 39.9481 43.0833 34.0758 41.7501C33.7821 41.6832 33.5982 41.391 33.6651 41.098C33.732 40.8044 34.0242 40.6204 34.3172 40.6873C40.14 42.0089 46.1098 42.9285 52.0598 43.4199C52.3601 43.4446 52.5833 43.7078 52.5585 44.008C52.5353 44.293 52.2968 44.5082 52.0155 44.5082V44.5074Z" fill="#A3A8B2"/>
<path d="M81.3662 54.0109H81.3618C64.7183 53.8887 48.1976 51.3967 32.2592 46.6032C31.9706 46.5167 31.8078 46.2121 31.8943 45.9243C31.9808 45.6357 32.2847 45.4728 32.5733 45.5593C48.4121 50.323 64.8302 52.7998 81.3698 52.9204C81.6708 52.9226 81.9136 53.1683 81.9114 53.47C81.9092 53.7695 81.6657 54.0109 81.3662 54.0109Z" fill="#A3A8B2"/>
<path d="M47.4309 63.02C47.4011 63.02 47.3713 63.0178 47.3407 63.0127C40.7284 61.9106 34.1262 60.3506 27.7189 58.3762C27.431 58.2875 27.2696 57.9822 27.3583 57.6943C27.447 57.4064 27.7523 57.2458 28.0402 57.3338C34.4017 59.2936 40.9559 60.8427 47.5203 61.9368C47.8176 61.9862 48.0182 62.2668 47.9681 62.5642C47.9237 62.831 47.6926 63.02 47.4309 63.02Z" fill="#A3A8B2"/>
<path d="M76.045 71.6801H76.0378C58.7349 71.4642 41.6516 68.5404 25.2617 62.9902C24.9768 62.8935 24.8234 62.5838 24.9201 62.2988C25.0168 62.0139 25.3264 61.8605 25.6114 61.9572C41.8922 67.4711 58.8628 70.3753 76.0508 70.589C76.3518 70.5926 76.5931 70.8398 76.5895 71.1407C76.5859 71.4395 76.3424 71.6794 76.0443 71.6794L76.045 71.6801Z" fill="#A3A8B2"/>
<path d="M40.6633 77.985C40.651 77.985 40.6393 77.985 40.627 77.9836C33.4592 77.5089 26.5176 75.7438 19.9939 72.7372C19.7206 72.6114 19.6007 72.2872 19.7272 72.0138C19.8529 71.7405 20.1771 71.6206 20.4505 71.747C26.852 74.6977 33.665 76.4301 40.6989 76.8953C40.9992 76.9149 41.2267 77.1752 41.2071 77.4754C41.1882 77.764 40.9483 77.9843 40.6633 77.9843V77.985Z" fill="#A3A8B2"/>
<path d="M66.0782 88.1769C66.0702 88.1769 66.0629 88.1769 66.0549 88.1769C49.1424 87.4732 32.4756 84.255 16.5169 78.6109C16.2327 78.5106 16.0844 78.1988 16.1847 77.9153C16.285 77.631 16.5969 77.482 16.8804 77.583C32.7359 83.1907 49.2958 86.3886 66.1 87.0872C66.4009 87.0995 66.6343 87.354 66.6219 87.6549C66.6096 87.9479 66.3682 88.1776 66.0775 88.1776L66.0782 88.1769Z" fill="#A3A8B2"/>
<path d="M56.1698 14.8799L52.1862 31.8869L51.1125 36.474L31.5415 33.3488L32.102 29.4996L34.7641 11.187L56.1698 14.8799Z" fill="#76A0EE"/>
<path d="M73.3827 74.8104L79.7769 81.1159L92.6148 64.588C93.9822 62.8273 96.6167 62.7532 98.0808 64.4346C99.161 65.6755 99.2446 67.4965 98.2822 68.8312L84.7638 87.5735C83.2168 89.718 80.1622 90.0691 78.1689 88.3324L68.5862 79.9834C67.2261 78.7984 66.979 76.779 68.0127 75.3003C69.2645 73.5099 71.827 73.2758 73.3827 74.8104Z" fill="#63DCD5"/>
</g>
<defs>
<clipPath id="clip0_364_7904">
<rect width="109.043" height="100" fill="white" transform="translate(0.478516)"/>
</clipPath>
</defs>
</svg>
