<svg width="90" height="100" viewBox="0 0 90 100" fill="none" xmlns="http://www.w3.org/2000/svg">
<path d="M22.3685 41.8365C20.115 44.3003 14.5107 50.9559 13.3609 53.8467C12.8813 55.0425 12.6973 56.3302 12.5265 57.5983C10.2532 74.4243 11.633 73.222 9.17574 76.9604C6.38344 81.2112 3.59113 85.4687 0.792267 89.7195C4.41897 94.1675 9.20858 97.6628 14.5435 99.7652C15.8247 100.271 16.2123 99.9032 16.5474 99.2002C22.5788 86.4213 25.9558 79.733 28.0451 72.5058C29.3197 68.0907 28.7547 67.0724 27.7035 62.8543C26.0872 56.3499 26.488 48.6695 22.3685 41.8365Z" fill="#FFCFCA"/>
<path d="M28.9518 82.2821L13.7486 11.8242C13.6566 11.384 13.9325 10.9503 14.3727 10.8584L64.6078 0.0176665C65.048 -0.074315 65.4816 0.20163 65.5736 0.641827L80.7768 71.0997C80.8688 71.5399 80.5929 71.9735 80.1527 72.0655L29.9176 82.9062C29.4774 82.9982 29.0504 82.7222 28.9518 82.2821Z" fill="#8574EE"/>
<path d="M31.2119 78.8722L17.1256 13.5981C17.0336 13.1579 17.3095 12.7243 17.7497 12.6323L62.2491 3.02682C62.6893 2.93484 63.1229 3.21078 63.2149 3.65098L77.3012 68.9251C77.3932 69.3652 77.1173 69.7989 76.6771 69.8909L32.1777 79.4964C31.7375 79.5883 31.3039 79.3124 31.2119 78.8722Z" fill="#8574EE"/>
<path d="M17.9665 63.4129C21.3895 60.2395 23.1372 55.6076 23.8402 50.9953C24.0044 49.931 24.1227 48.8338 24.5958 47.868C25.0622 46.8956 25.2134 44.4252 26.2908 44.3792C27.6377 44.3267 29.6547 45.6078 29.8716 48.4856C29.9701 49.8324 29.9832 51.1662 29.8256 52.513C28.9714 59.6219 30.6731 62.3945 31.1527 66.33C31.8163 71.8029 29.5102 77.5452 25.2396 81.0339C24.7272 81.4544 24.3855 81.4412 23.9322 80.7514C22.0006 77.8211 20.3055 74.7332 18.8535 71.5401C17.6906 68.9909 15.8246 65.397 17.9665 63.4129Z" fill="#FFCFCA"/>
<path d="M18.8272 63.0776C18.3608 63.0776 18.1177 62.5126 18.4462 62.1709C21.8626 58.6559 23.3606 50.6141 23.3738 50.5287C23.4263 50.2396 23.7023 50.0491 23.9914 50.1016C24.2804 50.1542 24.471 50.4301 24.4184 50.7192C24.3593 51.0608 22.8481 59.1618 19.2083 62.9133C19.1032 63.025 18.9652 63.0776 18.8272 63.0776Z" fill="#F3C3BE"/>
<path d="M22.9532 81.8355C22.4013 81.8355 22.2502 80.9156 19.1426 79.076C18.8863 78.9249 18.8075 78.5964 18.9586 78.3467C19.1097 78.0905 19.4382 78.0116 19.6879 78.1628C22.0531 79.5688 23.2949 80.8894 23.3409 80.9419C23.6562 81.2836 23.4131 81.8355 22.9532 81.8355Z" fill="#F3C3BE"/>
<path d="M77.0187 54.819C65.6392 58.3734 54.2598 61.9213 42.8804 65.4757C38.0513 66.9868 37.6309 68.7673 38.3404 71.9013C39.5428 77.1639 41.2247 82.3215 43.3468 87.2819C45.1405 91.4605 46.7896 91.9861 50.2389 91.3422C62.0717 89.1347 73.2606 84.3779 84.213 79.3846C85.8818 78.6225 87.6623 77.7552 88.5624 76.1587C89.7187 74.1154 89.0946 71.5728 88.4441 69.3192C85.9278 60.6401 85.3759 57.7361 83.1486 55.5811C81.3747 53.8532 78.221 53.275 77.0187 54.819Z" fill="#EDD45B"/>
<path d="M42.9987 74.0037C42.7096 73.9446 42.5256 73.6621 42.5847 73.373C42.6439 73.0839 42.9264 72.9 43.2155 72.9591C53.4123 75.055 56.8682 77.1902 57.9654 76.9669C58.2939 76.9012 58.6092 76.6646 58.9378 76.4084C63.9245 72.4992 64.4501 70.2194 66.7825 69.3915C68.0702 68.9316 68.3462 69.0827 82.1565 69.7923C82.4522 69.8054 82.6756 70.0551 82.6624 70.3508C82.6493 70.6464 82.3996 70.8632 82.104 70.8567C67.8468 70.1274 68.149 70.0354 67.1438 70.3967C65.2122 71.08 64.5355 73.3862 59.6013 77.2494C56.8747 79.3781 57.1901 76.9209 42.9987 74.0037Z" fill="white"/>
<path d="M59.056 81.06C56.3229 81.8024 53.6226 82.6894 50.9748 83.7143C50.3309 83.964 49.6476 84.2596 49.2797 84.8444C48.9118 85.4291 49.0957 86.3884 49.7659 86.5526C50.009 86.6117 50.2652 86.5592 50.5083 86.5066C55.8761 85.3174 61.1256 83.5764 66.1452 81.3294C66.5591 81.1454 66.9862 80.9417 67.2687 80.587C67.5512 80.2322 67.63 79.6737 67.3278 79.3386C66.9927 78.9707 66.4014 79.0364 65.9152 79.135C63.3266 79.6803 60.8365 80.5804 59.056 81.06Z" fill="#F78E75"/>
<path d="M79.4234 60.0291C77.932 60.3445 69.1806 62.1381 68.0768 63.1959C67.7154 63.5441 67.5249 64.1157 67.7614 64.5559C68.0965 65.1801 68.9835 65.1669 69.6865 65.0553C73.4643 64.4508 77.183 63.485 80.7703 62.171C83.2012 61.284 82.1565 59.6415 80.744 59.6546C80.041 59.6678 79.3774 59.9766 79.4234 60.0291Z" fill="white"/>
<path d="M26.0478 29.5241C25.6207 29.5241 25.3645 29.0379 25.6141 28.6831C27.1844 26.4624 30.8637 21.1012 33.5048 20.569C36.4483 19.9711 38.4653 23.2496 40.5612 24.0972C41.8883 24.6294 43.5637 24.4585 45.1668 23.6307C47.0064 22.678 47.6766 21.8765 56.5068 13.3945C56.7171 13.1908 57.0587 13.1974 57.2624 13.4076C57.4661 13.6178 57.4595 13.9595 57.2492 14.1632C48.4979 22.5729 47.6963 23.5256 45.6596 24.5768C43.7805 25.5492 41.7832 25.7331 40.1669 25.0827C37.828 24.1432 36.0672 21.1406 33.7151 21.6137C31.5075 22.0604 27.7889 27.4479 26.488 29.2941C26.3763 29.4452 26.212 29.5241 26.0478 29.5241Z" fill="white"/>
<path d="M34.3327 19.6757C33.0581 19.1107 31.2775 20.451 32.1777 22.1986C32.7427 23.3024 33.9976 23.5784 34.7269 22.9345C35.2262 22.4943 35.3182 21.765 35.3313 21.1014C35.3379 20.7729 35.3313 20.4247 35.1802 20.1291C35.0225 19.84 34.6809 19.6166 34.3327 19.6757Z" fill="#EDD45B"/>
<path d="M44.5361 23.1707C44.109 22.6977 43.5769 22.1786 42.9461 22.2509C42.2497 22.3298 41.8423 23.105 41.7503 23.8015C41.4744 25.8513 43.0578 26.8171 44.0827 26.2653C45.2259 25.6542 44.9172 23.5978 44.5361 23.1707Z" fill="#EDD45B"/>
<path d="M58.169 12.9873C58.2873 11.7981 56.8616 10.8914 55.7381 11.8244C54.8051 12.5996 54.7789 14.1042 55.6198 14.8926C56.1914 15.4248 57.131 15.5365 57.7748 15.0963C58.4187 14.6626 58.6487 13.6837 58.169 12.9873Z" fill="#EDD45B"/>
<path d="M27.5917 35.9891C28.4261 39.1493 28.3933 39.1625 28.5576 39.2873C28.7809 39.4515 28.1633 39.5238 38.8069 37.0994C38.6492 36.0942 38.301 35.1218 37.782 34.2414C37.7031 34.11 37.6112 33.9721 37.4666 33.9261C37.033 33.7815 32.8675 35.3321 27.5917 35.9891Z" fill="#7FD4E7"/>
<path d="M29.1423 42.487C29.6745 43.8799 30.2066 45.2793 30.7388 46.6722C37.2432 45.2859 43.6819 43.604 50.0352 41.6461C48.7475 38.0851 48.8001 38.0982 48.5438 37.934C48.327 37.796 48.0445 37.842 47.7948 37.8945C41.4612 39.1757 35.1802 40.6868 29.1423 42.487Z" fill="#EDD45B"/>
<path d="M32.3419 50.4305C32.8412 51.8496 33.3472 53.2688 33.8465 54.6879C43.9382 52.0927 54.0233 49.4909 64.115 46.8958C63.7865 45.3124 63.2609 43.7618 62.5513 42.3098C52.3019 44.7539 42.138 47.5462 32.3419 50.4305Z" fill="#F48682"/>
<path d="M65.3174 16.6927C61.5396 17.9542 60.968 19.3799 61.5067 22.8029C62.2097 27.264 62.9784 31.7186 63.8062 36.1534C64.0099 37.2572 64.2859 38.4661 65.186 39.1428C66.3226 39.9969 67.9191 39.629 69.2857 39.2216C74.4958 37.6711 79.7059 36.1206 84.9094 34.57C87.7477 33.7225 88.5624 32.8881 88.5559 29.9841C88.5493 25.3916 87.82 20.7991 86.4074 16.4299C85.849 14.7086 85.1985 13.5654 82.3471 13.2303C78.3722 12.7704 69.1083 15.4247 65.3174 16.6927Z" fill="#7FD4E7"/>
<path d="M83.2603 24.8004C82.242 31.0289 76.48 34.4979 71.5984 32.6451C67.9454 31.2588 65.5539 26.87 68.2608 22.4286C71.7364 16.706 80.9871 16.4695 83.0764 22.0081C83.4377 22.8885 83.4115 23.8543 83.2603 24.8004Z" fill="#F48682"/>
<path d="M83.0764 22.008C80.9083 23.841 78.4116 25.3324 75.8558 26.4691C75.7047 25.8121 74.8112 22.7307 74.2593 18.2367C77.7875 17.4286 81.7821 18.5915 83.0764 22.008Z" fill="#EDD45B"/>
<path d="M83.3326 23.0458C83.2997 23.059 75.8164 26.4294 75.7967 26.436C77.2881 24.6621 78.7532 22.9473 81.309 19.5834C82.5639 20.6215 83.2406 22.0209 83.3326 23.0458Z" fill="white"/>
<path d="M33.6362 60.1932C33.0121 60.1932 32.9004 59.2996 33.5048 59.142L69.3842 49.8255C69.6667 49.7533 69.9624 49.9241 70.0347 50.2066C70.1069 50.4891 69.9361 50.7848 69.6536 50.857C32.112 60.6071 33.7414 60.1932 33.6362 60.1932Z" fill="#C72F55"/>
</svg>
