<svg width="383" height="235" viewBox="0 0 383 235" fill="none" xmlns="http://www.w3.org/2000/svg">
<path d="M127.855 218.046H122.636L102.377 115.313L82.1183 218.046H76.8789L97.898 100.458H106.836L127.855 218.046Z" fill="#BAC8E2"/>
<path d="M365.729 218.046H360.51L340.251 115.313L319.992 218.046H314.753L335.772 100.458H344.71L365.729 218.046Z" fill="#BAC8E2"/>
<path d="M80.9881 107.772H361V103.992V100.211H80.9881L80.9878 103.992L80.9881 107.772Z" fill="#133671"/>
<path d="M123 71L81.5 100H353L314 71H123Z" fill="#C3D4E8"/>
<path d="M285.982 88.6087H238.109L225.575 51.7277C225.226 50.7003 226.007 49.6525 227.116 49.6525H271.579C272.278 49.6525 272.894 50.0839 273.12 50.7414L285.982 88.6087Z" fill="#3D4773"/>
<path d="M283.373 86.7596H239.485L227.794 52.3441C227.651 51.9126 227.979 51.4811 228.431 51.4811H270.922C271.209 51.4811 271.456 51.666 271.559 51.9332L283.373 86.7596Z" fill="#B5D7FF"/>
<path d="M319.74 91.4852H239.054C238.54 91.4852 238.109 90.9305 238.109 90.2524V89.0197H319.74C320.254 89.0197 320.686 89.5744 320.686 90.2524C320.686 90.9305 320.254 91.4852 319.74 91.4852Z" fill="#8DADD3"/>
<path d="M254.792 89.8416H252.758C252.594 89.8416 252.45 89.6977 252.45 89.5334C252.45 89.369 252.594 89.2252 252.758 89.2252H254.792C254.957 89.2252 255.101 89.369 255.101 89.5334C255.101 89.6977 254.957 89.8416 254.792 89.8416Z" fill="#54879C"/>
<path d="M248.731 89.5333C248.731 88.9375 249.656 88.9375 249.656 89.5333C249.656 90.1292 248.731 90.1292 248.731 89.5333Z" fill="#54879C"/>
<path d="M260.155 89.8416H258.121C257.957 89.8416 257.813 89.6977 257.813 89.5334C257.813 89.369 257.957 89.2252 258.121 89.2252H260.155C260.32 89.2252 260.463 89.369 260.463 89.5334C260.463 89.6977 260.34 89.8416 260.155 89.8416Z" fill="#54879C"/>
<path d="M269.956 89.8416H263.504C263.34 89.8416 263.196 89.6977 263.196 89.5334C263.196 89.369 263.34 89.2252 263.504 89.2252H269.956C270.12 89.2252 270.264 89.369 270.264 89.5334C270.264 89.6977 270.12 89.8416 269.956 89.8416Z" fill="#54879C"/>
<g opacity="0.81">
<path d="M273.654 86.7595H247.95L238.047 56.9465H263.751L273.654 86.7595Z" fill="white"/>
<path d="M261.45 60.4188L261.943 61.8982H242.793L242.3 60.4188H261.45Z" fill="#B5D7FF"/>
<path d="M262.353 63.1721L262.805 64.4871H243.656L243.225 63.1721H262.353Z" fill="#B5D7FF"/>
<path d="M263.258 65.8226L263.689 67.1581H244.54L244.108 65.8226H263.258Z" fill="#B5D7FF"/>
<path d="M264.121 68.4525L264.594 69.8908H245.444L244.972 68.4525H264.121Z" fill="#B5D7FF"/>
<path d="M265.004 71.1237L265.477 72.5414H246.348L245.855 71.1237H265.004Z" fill="#B5D7FF"/>
<path d="M265.888 73.7946L266.36 75.2123H247.231L246.759 73.7946H265.888Z" fill="#B5D7FF"/>
<path d="M266.771 76.4452L267.264 77.8834H248.115L247.642 76.4452H266.771Z" fill="#B5D7FF"/>
<path d="M267.675 79.1162L268.148 80.5545H248.998L248.526 79.1162H267.675Z" fill="#B5D7FF"/>
<path d="M268.559 81.7872L269.031 83.2255H249.882L249.409 81.7872H268.559Z" fill="#B5D7FF"/>
</g>
<path d="M130.664 57.5439C130.567 57.2101 130.65 56.5963 130.65 56.5963H163.855C166.258 56.5963 168.207 58.2944 168.207 60.3886V60.5165C168.207 62.6107 166.258 64.3088 163.855 64.3088H130.284C130.284 64.3088 130.263 63.6742 130.38 63.3612L130.664 57.5439Z" fill="#F7C883"/>
<path d="M154.965 60.3885V60.5165C154.965 62.0849 153.501 63.3611 151.703 63.3611H124.898C126.076 60.219 125.504 59.6916 124.879 57.5438H151.705C153.505 57.5438 154.967 58.82 154.967 60.3885H154.965Z" fill="white"/>
<path d="M141.556 61.2947H146.627" stroke="#7F8ED0" stroke-linecap="round" stroke-linejoin="round"/>
<path d="M154.085 58.0178C154.085 58.0178 152.379 59.7436 154.002 63.0223L155.716 60.4197L154.9 58.3515L154.084 58.0178H154.085Z" fill="#7F8ED0"/>
<path d="M151.702 63.1813C153.501 63.1813 154.964 62.0867 154.964 60.5165V60.3886C154.964 58.8201 153.5 57.7255 151.702 57.7255H124.38C124.283 57.3917 124.366 56.5963 124.366 56.5963H151.702C154.105 56.5963 156.053 58.2944 156.053 60.3886V60.5165C156.053 62.6107 154.105 64.3088 151.702 64.3088H124.001C124.001 64.3088 123.981 63.4926 124.098 63.1796H151.703L151.702 63.1813Z" fill="#F6B36B"/>
<path d="M131.423 82.1429C131.333 81.7832 131.409 81.1209 131.409 81.1209H166.158C168.367 81.1209 170.158 82.9505 170.158 85.2089V86.2897C170.158 88.5464 168.367 90.376 166.158 90.376H131.074C131.074 90.376 131.055 89.6929 131.162 89.354L131.423 82.1412V82.1429Z" fill="#C5C5FC"/>
<path d="M155.426 85.2089V86.2897C155.426 87.9792 154.079 89.3557 152.426 89.3557H126.121C127.203 85.968 126.956 84.4567 126.382 82.1429H152.426C154.081 82.1429 155.426 83.5194 155.426 85.2089Z" fill="white"/>
<path d="M155.14 82.468C155.14 82.468 152.677 84.9253 155.014 88.8006L156.117 86.1859L155.367 83.0127L155.14 82.4662V82.468Z" fill="#7F8ED0"/>
<path d="M152.424 89.1623C154.078 89.1623 155.423 87.9812 155.423 86.2917V85.2109C155.423 83.5196 154.077 82.3403 152.424 82.3403H125.645C125.555 81.9806 125.631 81.1229 125.631 81.1229H152.424C154.633 81.1229 156.424 82.9524 156.424 85.2109V86.2917C156.424 88.5484 154.633 90.378 152.424 90.378H125.296C125.296 90.378 125.277 89.4995 125.384 89.1623H152.424Z" fill="#ADADF7"/>
<path d="M154.015 85.387H148.233" stroke="#7F8ED0" stroke-linecap="round" stroke-linejoin="round"/>
<path d="M152.073 87.4453H144.149" stroke="#7F8ED0" stroke-linecap="round" stroke-linejoin="round"/>
<path d="M167.773 80.2614C167.863 80.6211 167.785 81.2834 167.785 81.2834H132.668C130.422 81.2834 128.604 79.4538 128.604 77.1971V76.1163C128.604 73.8596 130.424 72.0283 132.668 72.0283H168.128C168.128 72.0283 168.148 72.7131 168.038 73.0503L167.773 80.2631V80.2614Z" fill="#91DAC5"/>
<path d="M132.636 76.5832C132.636 75.3969 133.533 74.4354 134.638 74.4354C135.743 74.4354 136.64 75.3969 136.64 76.5832C136.64 77.7695 135.743 78.731 134.638 78.731C133.533 78.731 132.636 77.7695 132.636 76.5832Z" fill="white"/>
<path d="M140.975 77.1971V76.1163C140.975 74.4251 142.343 73.0503 144.025 73.0503H173.162C172.062 76.4379 172.856 77.9511 173.113 80.2631H144.025C142.343 80.2631 140.975 78.8883 140.975 77.1971Z" fill="white"/>
<path d="M141.704 79.7512C141.704 79.7512 143.923 77.2006 141.548 73.3253L140.179 76.2183L140.941 79.3898L141.704 79.7512Z" fill="#7F8ED0"/>
<path d="M144.025 73.244C142.343 73.244 140.975 74.4251 140.975 76.1146V77.1954C140.975 78.8849 142.343 80.066 144.025 80.066H173.644C173.734 80.4257 173.658 81.2834 173.658 81.2834H144.025C141.779 81.2834 139.958 79.4538 139.958 77.1971V76.1163C139.958 73.8596 141.779 72.0283 144.025 72.0283H173.999C173.999 72.0283 174.018 72.9068 173.909 73.2457H144.025V73.244Z" fill="#3ECEA8"/>
<path d="M148.524 76.6749H156.515" stroke="#7F8ED0" stroke-linecap="round" stroke-linejoin="round"/>
<path d="M159.903 75.0925H165.932" stroke="#7F8ED0" stroke-linecap="round" stroke-linejoin="round"/>
<path d="M160.56 79.6147L162.052 78.4872L163.542 79.6147V75.0995H160.56V79.6147Z" fill="#7F8ED0"/>
<path d="M162.753 71.1221C162.841 71.4611 162.767 72.0853 162.767 72.0853H128.761C126.595 72.0853 124.838 70.3612 124.838 68.2342V68.1028C124.838 65.9758 126.595 64.2517 128.761 64.2517H163.095C163.095 64.2517 163.114 64.8967 163.009 65.2149L162.753 71.1221Z" fill="#4D5AE1"/>
<path d="M136.776 68.2343V68.1029C136.776 66.5103 138.097 65.215 139.719 65.215H167.953C166.893 68.4055 167.407 68.9416 167.97 71.1222H139.717C138.095 71.1222 136.774 69.827 136.774 68.2343H136.776Z" fill="white"/>
<path d="M137.567 70.6414C137.567 70.6414 139.013 68.5403 137.548 65.2115L136.096 68.2014L136.831 70.3025L137.566 70.6414H137.567Z" fill="#7F8ED0"/>
<path d="M139.716 65.3983C138.095 65.3983 136.774 66.5102 136.774 68.1029V68.2343C136.774 69.827 138.095 70.9389 139.716 70.9389H168.418C168.506 71.2778 168.43 72.0854 168.43 72.0854H139.716C137.55 72.0854 135.793 70.3613 135.793 68.2343V68.1029C135.793 65.9759 137.55 64.2518 139.716 64.2518H168.76C168.76 64.2518 168.779 65.0801 168.673 65.3983H139.718H139.716Z" fill="#414EC7"/>
<path d="M146.139 67.0999H152.934" stroke="#7F8ED0" stroke-linecap="round" stroke-linejoin="round"/>
<path d="M143.031 73.7852L144.523 72.637L146.013 73.7852V68.4435H143.031V73.7852Z" fill="#7F8ED0"/>
<path d="M141.539 68.4435H147.42" stroke="#7F8ED0" stroke-linecap="round" stroke-linejoin="round"/>
<g clip-path="url(#clip0_1494_7726)">
<path d="M196.34 46.4946H188.373V87H196.34V46.4946Z" fill="#62819E"/>
<path d="M204.483 40H196.34V87H204.483V40Z" fill="#7CB0ED"/>
<path d="M188.373 55.2109H182V87H188.373V55.2109Z" fill="#A5C3F0"/>
<path d="M196.34 49.4H188.373V50.5964H196.34V49.4Z" fill="#A5C3F0"/>
<path d="M188.373 57.0909H182V58.4582H188.373V57.0909Z" fill="#D2E6F9"/>
<path d="M188.373 82.8982H182V84.4364H188.373V82.8982Z" fill="#D2E6F9"/>
<path d="M192.268 54.5272C192.952 54.5272 193.507 53.9916 193.507 53.3309C193.507 52.6702 192.952 52.1345 192.268 52.1345C191.584 52.1345 191.029 52.6702 191.029 53.3309C191.029 53.9916 191.584 54.5272 192.268 54.5272Z" fill="#C9DCF8"/>
<path d="M186.426 61.1927H184.125V81.0182H186.426V61.1927Z" fill="#7CB0ED"/>
<path d="M200.412 46.4946C201.487 46.4946 202.359 45.6529 202.359 44.6146C202.359 43.5763 201.487 42.7346 200.412 42.7346C199.336 42.7346 198.464 43.5763 198.464 44.6146C198.464 45.6529 199.336 46.4946 200.412 46.4946Z" fill="#4490D7"/>
<path d="M202.359 48.7164H198.464V79.48H202.359V48.7164Z" fill="#C9DCF8"/>
<path d="M212.627 40H204.483V87H212.627V40Z" fill="#ECF4FF"/>
<path d="M208.555 46.4946C209.63 46.4946 210.502 45.6529 210.502 44.6146C210.502 43.5763 209.63 42.7346 208.555 42.7346C207.479 42.7346 206.607 43.5763 206.607 44.6146C206.607 45.6529 207.479 46.4946 208.555 46.4946Z" fill="#C9DCF8"/>
<path d="M210.502 48.7164H206.607V79.48H210.502V48.7164Z" fill="#4C9CE5"/>
<path d="M219 40H212.627V87H219V40Z" fill="#7CB0ED"/>
<path d="M215.814 46.4946C216.889 46.4946 217.761 45.6529 217.761 44.6146C217.761 43.5763 216.889 42.7346 215.814 42.7346C214.738 42.7346 213.866 43.5763 213.866 44.6146C213.866 45.6529 214.738 46.4946 215.814 46.4946Z" fill="#A5C3F0"/>
<path d="M217.761 48.7164H213.866V79.48H217.761V48.7164Z" fill="#4490D7"/>
</g>
<g clip-path="url(#clip1_1494_7726)">
<path d="M307.889 202.884L303.778 186.326L317.704 187.623L319.148 202.884L323.074 211.441L298.963 211.478L307.889 202.884Z" fill="#FDD3D7"/>
<path d="M319.556 203.514C319.556 203.514 323.074 208.922 323.926 211.552C324.741 214.182 324.185 216.738 323.444 216.849C322.704 216.961 284.222 216.886 284.222 216.886C284.222 216.886 283.741 213.441 290.074 210.96C296.407 208.478 301.852 206.848 303.444 205.699C305.037 204.551 304.074 199.921 304.074 199.921C304.074 199.921 305.482 199.217 306.407 200.81C307.37 202.403 308.593 205.329 308 206.811C307.963 206.774 319.815 208.292 319.556 203.514Z" fill="#1C255D"/>
<path d="M297.63 124.205C297.63 124.205 289.482 128.391 288.889 136.466C288.296 144.505 303.852 196.179 303.852 196.179H320.334L313.741 145.801L317.556 140.763L297.63 124.205Z" fill="#3D4773"/>
<path d="M279.963 77.8643L274.185 73.3821C274.185 73.3821 272.334 71.4929 271.593 69.5666C270.852 67.6404 269.482 64.5658 268.704 63.862C268.074 63.3064 264.593 61.4172 263.297 60.7134C263 60.5652 262.63 60.7134 262.556 61.0468C262.482 61.4172 262.482 61.9358 262.815 62.5285C263.445 63.6768 265.519 64.9733 265.519 64.9733C265.519 64.9733 266.704 67.8627 265.778 68.1961C264.852 68.5665 256.519 65.4919 256.519 65.4919C256.519 65.4919 253.482 64.6029 252.63 64.7881C251.778 64.9733 251.852 65.4919 251.852 65.4919C251.852 65.4919 250.185 64.5288 249.297 65.0844C248.408 65.6031 248.482 66.2328 248.667 66.6403C248.889 67.0477 254.371 70.3445 254.371 70.3445C254.371 70.3445 254.741 71.4188 255.704 72.2708C256.667 73.1228 259.26 75.3453 259.26 75.3453C259.26 75.3453 263.371 77.3086 266.889 77.7161C270.408 78.1236 277.445 85.3469 277.445 85.3469L279.963 77.8643Z" fill="#FDD3D7"/>
<path d="M302.815 1.14834C302.815 1.14834 296.63 0.407479 293.593 3.66726C290.555 6.92704 285 12.7428 290.555 18.3363C296.111 23.9298 302.815 19.818 302.815 19.818V1.14834Z" fill="#2C3A64"/>
<path d="M293.445 28.3008C295.815 30.9309 295.222 36.5985 298 37.932C298.926 38.3765 300.148 38.0802 301.482 37.4504C302.222 37.1171 303 36.6355 303.778 36.1169C304.519 35.6353 305.519 35.8205 306.037 36.5614C306.037 36.5614 306.037 36.5614 306.037 36.5985C308.408 40.0805 307.556 49.8228 307.556 49.8228L310.926 48.6374L326 43.3032C326 43.3032 322.704 36.7466 321.889 34.5981C321.334 33.1905 319.408 24.7817 319.148 22.2628C321.815 17.7436 321.185 10.4091 317.741 5.88985C312.556 -0.963101 300.148 3.74135 296.371 5.77872C292.556 7.81608 291.741 14.2616 292.185 16.8916C292.63 19.5217 293 20.5589 291.852 23.5223C290.667 26.4857 291.074 25.6708 293.445 28.3008Z" fill="#FDD3D7"/>
<path d="M295.518 32.82C296.11 32.5967 296.812 32.2721 297.509 31.817C299.179 30.7158 299.285 29.2353 298.91 29.0772C298.533 28.9134 298.046 29.6219 296.939 30.0341C296.176 30.3241 295.526 30.5002 294.929 30.617L295.52 32.8257L295.518 32.82Z" fill="#D7777E"/>
<path d="M295 20.2255C295.111 21.0404 295.556 21.6331 296.037 21.5961C296.519 21.559 296.815 20.8182 296.704 20.0032C296.593 19.1883 296.148 18.5956 295.667 18.6326C295.222 18.7067 294.889 19.4105 295 20.2255Z" fill="#1C255D"/>
<path d="M301.519 37.4504C302.259 37.117 303.037 36.6355 303.815 36.1169C304.556 35.6353 305.556 35.8205 306.074 36.5614C306.074 36.5614 306.074 36.5614 306.074 36.5984C308.444 40.0805 307.593 49.8228 307.593 49.8228L310.963 48.6374C310.37 47.5632 307.63 34.487 305.889 34.4499C304.037 34.3759 301.63 37.2652 301.519 37.4504Z" fill="#EDC5C9"/>
<path d="M297.815 16.4471C297.815 16.4471 296.444 15.7062 294.481 16.1878" stroke="#1C255D" stroke-width="2" stroke-miterlimit="10" stroke-linecap="round" stroke-linejoin="round"/>
<path d="M300.037 1.77807C302.111 1.48172 304.111 0.629735 306.185 0.296349C307.63 0.0740913 309.148 -0.111123 310.593 0.111134C311.963 0.296349 313.259 0.777907 314.518 1.33355C318.63 3.22274 322.518 6.40844 323.63 10.7795C324.37 13.78 323.741 16.9657 322.852 19.9291C322.444 21.2997 321.963 22.6703 321.556 24.0409C321.37 24.7077 321.148 25.4115 321 26.1153C320.852 26.745 320.074 27.3747 319.518 27.634C317.815 28.3379 315 28.8565 313.667 28.1897C311.259 26.9673 309.852 24.4113 308.778 21.8924C308.185 20.4848 307.407 18.8549 305.926 18.4844C305.481 18.3733 305 18.4104 304.518 18.2992C303.037 17.9658 302.111 16.5212 301.556 15.1135C301 13.7059 300.593 12.1501 299.481 11.1129" fill="#2C3A64"/>
<path d="M308.705 16.7752L308.705 16.7753L308.713 16.7772C309.731 16.9998 311.316 18.5481 311.035 21.0814C310.889 22.3989 310.608 23.5627 310.089 24.4443C309.577 25.3126 308.833 25.9118 307.723 26.1166C307.498 26.1582 307.333 26.1124 307.199 26.0148C307.054 25.9098 306.921 25.727 306.807 25.4576C306.577 24.9156 306.468 24.1271 306.434 23.2878C306.4 22.4565 306.439 21.6079 306.488 20.9647C306.513 20.6437 306.539 20.3752 306.559 20.1873C306.569 20.0933 306.578 20.0196 306.584 19.9696L306.59 19.9257L306.593 19.9169C306.602 19.8911 306.616 19.853 306.635 19.8043C306.672 19.7069 306.726 19.5676 306.794 19.4012C306.932 19.0674 307.127 18.6283 307.357 18.2003C307.588 17.7686 307.847 17.3659 308.107 17.0929C308.382 16.8047 308.577 16.7433 308.705 16.7752Z" fill="#FDD3D7" stroke="#EDC5C9" stroke-width="0.6"/>
<path d="M306.371 19.6698C306.371 19.6698 307.63 15.7803 309.185 16.6323C310.778 17.4842 312.259 19.7439 311.037 22.9296C309.815 26.1153 308.074 27.1525 307 26.5227" stroke="#EDC5C9" stroke-width="0.6" stroke-miterlimit="10" stroke-linecap="round" stroke-linejoin="round"/>
<path d="M309.593 22.0035C309.593 22.0035 309.926 18.114 308.889 18.7808C307.852 19.4476 307.148 20.707 307.518 21.3738C307.889 22.0406 308.555 22.9296 307.778 23.7075" stroke="#EDC5C9" stroke-width="0.6" stroke-miterlimit="10" stroke-linecap="round" stroke-linejoin="round"/>
<path d="M258.074 204.625L262.185 189.882H275.815L271 205.292L272.889 213.849L249.148 213.182L258.074 204.625Z" fill="#FDD3D7"/>
<path d="M271.222 206.218C271.222 206.218 273.148 208.663 274 211.293C274.815 213.923 274.926 219.146 274.185 219.257C273.445 219.368 234.037 219.257 234.037 219.257C234.037 219.257 233.556 215.812 239.889 213.33C246.259 210.848 252 208.552 253.593 207.403C255.185 206.255 254.222 201.625 254.222 201.625C254.222 201.625 255.63 200.921 256.556 202.514C257.482 204.107 258.741 207.033 258.148 208.515C258.148 208.515 271.482 210.997 271.222 206.218Z" fill="#1C255D"/>
<path d="M268.259 133.688C269.963 129.761 273.334 126.798 277.445 125.687C281.593 124.538 286.741 123.168 290.074 122.575C296.371 121.39 321.667 114.648 321.667 114.648C321.667 114.648 334.185 125.242 353.667 124.538C353.667 124.538 354.704 138.763 345.593 144.023C336.704 149.135 290.259 148.172 287.889 148.098C288.889 155.914 287.556 160.248 285.704 166.656C283.741 173.509 274.408 198.143 274.408 198.143H257.593L268.259 133.688Z" fill="#3D4773"/>
<path d="M355.778 118.056C355.778 118.056 355.518 139.096 346.407 144.356C337.296 149.616 288.592 148.431 288.592 148.431L271.704 127.872C271.704 127.872 284.593 124.057 290.852 122.871C297.148 121.686 322.444 114.944 322.444 114.944C322.444 114.944 336.296 118.723 355.778 118.056Z" fill="#3D4773"/>
<path d="M316.518 115.87C319.296 117.241 328.111 119.13 332.593 122.501C337.074 125.835 352.259 122.242 356.185 118.797C360.148 115.389 356.555 115.907 355.185 111.536C353.815 107.202 351.074 83.5689 349 69.4926C346.926 55.4162 331.185 36.6725 325.111 34.9315C319.037 33.1905 308.518 39.5248 308.518 39.5248C297.481 52.7121 301.518 67.8997 303.259 73.345C303.407 73.8266 303.555 74.2341 303.63 74.5304C304.185 76.2714 305.333 78.8644 306.593 82.0501C308.296 86.273 310.259 91.4961 311.518 97.0525C313.741 106.869 313.741 114.5 316.518 115.87Z" fill="#F6B100"/>
<path d="M299.519 82.4576C299.519 82.4576 298.556 81.2352 296.852 82.9021C296.852 82.9021 296.778 81.6056 295.222 82.6799C295.222 82.6799 279.556 77.7161 275.111 73.6784C270.667 69.6407 269.482 70.6409 269.482 70.6409C269.482 70.6409 264.741 73.7525 266.222 77.3457C266.222 77.3457 269.333 79.1608 270.815 81.0129C272.296 82.8651 282.037 93.0889 292 95.4226L297.778 89.7551L299.519 82.4576Z" fill="#FDD3D7"/>
<path d="M301.519 2.29669C301.519 2.29669 293.815 4.59335 294.37 9.81641C294.926 15.0395 304.37 18.0399 304.37 18.0399L301.519 2.29669Z" fill="#2C3A64"/>
<path d="M289.111 80.9388C287.852 82.4576 292.037 95.4226 292.037 95.4226C292.037 95.4226 297.296 92.4222 300.519 88.5326C301.889 86.9028 311.296 69.6407 313.445 65.8253C308.519 63.6027 304.222 60.2318 301.482 57.824C299.37 62.4174 289.778 80.1609 289.111 80.9388Z" fill="#FDD3D7"/>
<path d="M327.874 36.6955C331.19 35.7593 326.492 15.2412 322.692 9L318.892 18.3619L310.255 24.9932L309.564 24.6031V25.3833C309.219 28.5039 309.219 28.8939 308.182 32.0146C306.369 37.4731 304.036 35.5253 305.418 36.6955C311.637 41.3764 324.557 37.6317 327.874 36.6955Z" fill="#2C3A64"/>
<path d="M315.815 39.5989C315.815 39.5989 306.63 39.3026 303.296 46.3778C301.667 49.7857 294.852 60.5282 292.259 66.2328C295.852 69.4185 304.111 73.0117 310.556 75.9381C314.444 69.011 319.037 60.5282 324.519 59.6762C324.519 59.6762 330.333 45.7481 315.815 39.5989Z" fill="#F6B100"/>
<path d="M304.296 225.999H299.556L322.296 147.209H330.519L304.296 225.999Z" fill="#E1E4EE"/>
<path d="M357.334 225.999H362.074L339.371 147.209H331.111L357.334 225.999Z" fill="#E1E4EE"/>
<path d="M332.741 232H328.926L326.741 147.209H334.889L332.741 232Z" fill="#E1E4EE"/>
<path d="M288.407 143.727H297.185C297.185 143.727 305.778 140.541 307.481 139.948L320.296 135.985C326.963 133.762 332.333 124.316 334.407 114.796L343.037 75.7899C343.852 72.0856 346.185 69.6037 348.852 69.6037H345.666C342.37 69.6037 339.444 72.1226 338.444 75.7899L327.704 114.796C325.074 124.353 318.407 131.54 310.111 133.762L294.148 138.281C292.037 138.874 290.185 140.43 289 142.578L288.407 143.727Z" fill="#D5D9E4"/>
<path d="M307.481 139.948L320.296 135.985C326.963 133.762 332.333 124.316 334.407 114.796L343.037 75.7899C343.852 72.0856 346.185 69.6037 348.852 69.6037H372.741H375.407C380.148 69.6037 383.741 74.6415 382.889 80.1609L373.222 143.727H370.963H297.185C297.185 143.727 305.778 140.541 307.481 139.948Z" fill="#BEC2DC"/>
<path d="M292.963 150.765H368.666C371.185 150.765 373.222 148.727 373.222 146.209V143.727H288.407V146.209C288.407 148.727 290.444 150.765 292.963 150.765Z" fill="#D5D9E4"/>
</g>
<g clip-path="url(#clip2_1494_7726)">
<path d="M104.248 198.74L100.567 188.665L88.7075 191.639L92.9087 201.268L92.5369 209.113L113.431 204.986L104.248 198.74Z" fill="#FDD3D7"/>
<path d="M92.8716 202.086C92.8716 202.086 91.5332 204.54 91.1986 206.994C90.864 209.448 91.5704 214.058 92.2396 214.058C92.9088 214.058 127.708 208.035 127.708 208.035C127.708 208.035 127.633 204.912 121.648 203.685C115.662 202.458 110.234 201.268 108.635 200.488C107.037 199.707 107.222 195.469 107.222 195.469C107.222 195.469 105.884 195.06 105.289 196.621C104.694 198.183 104.025 200.934 104.769 202.161C104.769 202.198 93.355 206.399 92.8716 202.086Z" fill="#1C255D"/>
<path d="M87.295 122.934C89.4513 124.569 91.0128 127.06 91.3474 130.072C91.6448 132.526 103.17 192.457 103.17 192.457L89.6372 196.249L79.4875 172.158L75.8069 159.815C75.8069 159.815 75.1748 157.695 74.2825 154.275C72.9441 149.07 71.0852 140.891 70.1929 132.526C69.9699 130.555 70.3416 128.622 71.1224 126.912C71.6057 125.834 72.3121 124.867 73.13 124.012C74.0967 123.008 75.2492 122.19 76.5876 121.632C80.3426 119.997 84.3951 120.74 87.295 122.934Z" fill="#77CAAD"/>
<path d="M114.249 200.897L115.848 191.602L103.839 189.26L102.687 201.603L101.014 209.262L122.317 208.518L114.249 200.897Z" fill="#FDD3D7"/>
<path d="M102.501 202.384C102.501 202.384 100.791 204.577 100.047 206.957C99.3407 209.299 99.2664 214.021 99.9356 214.095C100.605 214.206 135.924 213.835 135.924 213.835C135.924 213.835 136.333 210.749 130.608 208.555C124.882 206.399 119.714 204.354 118.265 203.35C116.815 202.347 117.67 198.183 117.67 198.183C117.67 198.183 116.406 197.551 115.588 199.001C114.733 200.45 113.654 203.053 114.175 204.391C114.212 204.391 102.278 206.696 102.501 202.384Z" fill="#1C255D"/>
<path d="M121.127 124.681C122.726 126.874 123.506 129.7 122.986 132.674C122.54 135.128 116.48 195.803 116.48 195.803L102.426 195.58L99.6008 169.592V156.692C99.6008 156.692 99.5636 154.461 99.7124 150.966C99.9354 145.612 100.493 137.21 102.017 128.956C102.389 126.986 103.281 125.239 104.508 123.826C105.289 122.934 106.219 122.19 107.26 121.595C108.449 120.926 109.825 120.48 111.238 120.294C115.29 119.885 118.971 121.707 121.127 124.681Z" fill="#77CAAD"/>
<path d="M107.483 118.881C97.8162 116.353 78.6322 118.323 67.0325 114.234L65.8428 107.207L31.6387 115.015L29.7426 123.268C29.6311 124.681 29.7055 126.131 29.9285 127.507C29.9285 127.507 30.5606 141.374 38.7026 143.791C46.8447 146.244 97.779 143.27 100.53 142.452C107.185 140.519 118.71 142.675 121.424 132.674C124.51 121.186 107.483 118.881 107.483 118.881Z" fill="#77CAAD"/>
<path d="M82.2755 31.5863C80.1191 34.5606 81.346 40.3604 78.5948 42.0334C77.7025 42.5911 76.4013 42.4424 74.9142 41.9219C74.0962 41.6617 73.2411 41.2527 72.386 40.8066C71.5681 40.3604 70.5271 40.695 70.1182 41.5129V41.5501C68.0362 45.3795 68.8169 47.4615 68.8169 47.4615L65.2106 46.6064L49.0752 42.7026C49.0752 42.7026 53.2764 38.39 54.2802 36.2336C54.9494 34.8208 55.0609 30.8056 55.0237 28.1659C51.7892 23.816 51.6405 16.1573 54.6891 11.101C59.2992 3.4423 72.6091 6.93707 76.7731 8.64727C80.9371 10.3575 82.4985 16.9009 82.3127 19.6521C82.1268 22.4033 81.8665 23.5186 83.3908 26.4557C84.9151 29.3928 84.4318 28.612 82.2755 31.5863Z" fill="#FDD3D7"/>
<path d="M79.785 23.4443C79.7478 24.2994 79.3388 24.9686 78.8555 24.9686C78.3722 24.9686 77.9632 24.2622 78.0004 23.4071C78.0376 22.552 78.4465 21.8828 78.9299 21.8828C79.4132 21.8828 79.785 22.5892 79.785 23.4443Z" fill="#1C255D"/>
<path d="M74.9516 41.922C74.1337 41.6617 73.2786 41.2527 72.4235 40.8066C71.6055 40.3605 70.5646 40.6951 70.1556 41.513V41.5502C68.0736 45.3795 68.8543 47.4615 68.8543 47.4615L65.248 46.6064C65.7685 45.4167 68.3339 39.5797 70.1184 39.3195C72.0145 39.022 74.7657 41.7732 74.9516 41.922Z" fill="#EDC5C9"/>
<path d="M76.4761 19.838C76.4761 19.838 77.8145 18.9085 79.8965 19.2059" stroke="#1C255D" stroke-width="2" stroke-miterlimit="10" stroke-linecap="round" stroke-linejoin="round"/>
<path d="M74.1334 14.4843C72.9809 15.5625 72.8322 17.3099 72.4232 18.8342C72.0143 20.3585 71.1964 21.9572 69.7092 22.4777C69.2259 22.6264 68.7426 22.6636 68.2964 22.8123C66.8093 23.3699 66.1773 25.1173 65.7311 26.6416C64.9132 29.3185 63.7607 32.144 61.3813 33.6683C60.0429 34.5234 55.284 36.1221 54.2058 34.5606C53.8341 34.0401 53.7597 32.9991 53.5738 32.3671C53.3507 31.6607 53.0533 30.9915 52.7931 30.2851C52.2354 28.9095 51.6034 27.5711 51.0085 26.1955C49.7816 23.2212 48.7406 20.0239 49.2239 16.8265C49.8932 12.1793 53.5738 8.46142 57.6263 6.04483C58.8531 5.30126 60.1544 4.66923 61.53 4.33462C63.0171 3.96284 64.5786 3.96284 66.1029 4.07437C68.2964 4.18591 70.4156 4.8923 72.6091 4.96665C72.6091 4.96665 73.9847 4.78076 74.4681 6.41661C74.9514 8.05246 76.4013 12.4395 74.1334 14.4843Z" fill="#2C3A64"/>
<path d="M68.0734 24.2622C68.0734 24.2622 66.326 20.6187 65.1363 21.0648C63.9466 21.4738 62.4223 23.4071 62.98 26.1583C63.5748 28.8723 64.6902 31.0286 67.2555 31.2145C69.8208 31.4004 68.0734 24.2622 68.0734 24.2622Z" fill="#FDD3D7"/>
<path d="M67.9994 24.0763C67.9994 24.0763 66.2892 20.1726 64.7649 21.2507C63.2034 22.3289 61.9393 24.7827 63.538 27.9428C65.1739 31.103 67.0328 31.9953 68.1109 31.2145" stroke="#EDC5C9" stroke-width="0.6" stroke-miterlimit="10" stroke-linecap="round" stroke-linejoin="round"/>
<path d="M64.9132 26.8647C64.9132 26.8647 64.1325 22.8866 65.285 23.4815C66.4375 24.0763 67.2555 25.266 66.958 26.0096C66.6606 26.7532 66.0286 27.7198 66.958 28.4634" stroke="#EDC5C9" stroke-width="0.6" stroke-miterlimit="10" stroke-linecap="round" stroke-linejoin="round"/>
<path d="M65.1363 44.7847C65.1363 44.7847 78.1859 48.8371 78.1115 67.9096C78 87.0193 72.2374 93.3024 73.5386 101.147C74.8398 108.992 77.591 114.643 76.2898 116.911C74.4681 120.034 72.5348 120.443 72.5348 120.443C72.5348 120.443 68.1106 121.93 55.4699 120.48C42.8293 119.067 29.7797 116.056 29.7797 116.056C29.7797 116.056 27.9951 110.888 27.9951 109.512C28.0323 108.137 31.1181 102.709 31.2668 98.1356C31.4155 93.5627 31.4899 65.9392 31.7873 60.697C32.0847 55.4549 40.0781 43.3719 47.1048 41.4386C54.1687 39.5425 65.1363 44.7847 65.1363 44.7847Z" fill="#2B4CAD"/>
<path d="M100.851 71.7223L106.47 64.5244C106.47 64.5244 108.128 61.681 108.419 59.1567C108.71 56.6324 110.629 53.2489 111.354 52.161C111.945 51.2969 115.589 47.9214 116.945 46.6641C117.259 46.3918 117.758 46.4464 117.954 46.8172C118.162 47.2319 118.326 47.8464 118.108 48.6576C117.705 50.2238 115.589 52.4374 115.589 52.4374C115.589 52.4374 115.062 56.2481 116.296 56.3407C117.542 56.4772 126.724 50.1126 126.724 50.1126C126.724 50.1126 130.143 48.0673 131.24 48.0085C132.337 47.9498 132.412 48.5884 132.412 48.5884C132.412 48.5884 134.137 46.9029 135.397 47.271C136.645 47.5952 136.755 48.3655 136.659 48.9088C136.517 49.4642 130.883 55.1608 130.883 55.1608C130.883 55.1608 130.772 56.5547 129.869 57.8787C128.966 59.2027 126.511 62.683 126.511 62.683C126.511 62.683 122.383 67.3178 118.223 68.9498C114.064 70.5818 107.78 81.439 107.78 81.439L100.851 71.7223Z" fill="#FDD3D7"/>
<path d="M77.331 97.9869C84.3949 108.806 91.3844 99.5484 95.0279 95.087C95.883 94.046 96.4035 93.1537 96.4778 92.5589C96.4778 92.373 96.4778 92.2243 96.4035 92.1127C95.0651 89.5474 84.9154 68.9506 82.8334 60.4739C80.7514 51.9973 70.9363 48.5397 69.3376 49.5063C63.3147 53.1498 61.6417 56.7933 61.8276 61.6265C61.9391 64.8238 62.8686 68.5416 63.9096 73.1146C65.88 82.1861 74.4682 93.637 77.331 97.9869Z" fill="#2B4CAD"/>
<path d="M89.7856 106.129C96.5149 105.051 115.699 71.9249 115.699 71.9249C116.108 67.8724 112.464 65.3443 110.271 64.1918C109.379 63.7084 107.557 63.1136 107.557 63.1136C107.557 63.1136 106.962 63.2995 100.902 69.3967C94.1726 76.1632 81.9781 89.2872 81.9781 89.2872C79.5243 88.3205 79.5243 90.923 79.5243 90.923C77.8513 89.9192 76.959 91.2948 76.5501 92.7076C76.2155 93.7857 76.1411 94.8267 76.1411 94.8267L76.6988 95.5331L81.4204 102.151C81.3833 102.188 85.7331 106.389 89.7856 106.129Z" fill="#2B4CAD"/>
<path d="M80.514 36.5942C79.9094 36.4085 79.1889 36.1285 78.4644 35.718C76.7282 34.7236 76.5304 33.2526 76.8948 33.0714C77.26 32.8843 77.7906 33.5609 78.9216 33.9029C79.7011 34.1445 80.3607 34.2795 80.9637 34.3587L80.5132 36.6L80.514 36.5942Z" fill="#D7777E"/>
<path d="M74.4313 8.94472C74.4313 8.94472 76.03 12.4395 78.2607 12.7741C80.4914 13.1087 81.867 13.3318 81.458 11.8075C81.049 10.2831 79.8222 4.44613 72.8326 4.96663C65.8803 5.44995 74.4313 8.94472 74.4313 8.94472Z" fill="#2C3A64"/>
<path d="M94.9905 148.438H86.1792C86.1792 148.438 77.5539 145.241 75.8437 144.646L62.9799 140.668C56.2878 138.437 50.897 128.956 48.815 119.402L40.1524 80.2528C39.3345 76.535 36.9923 74.044 34.3154 74.044H37.5128C40.8216 74.044 43.7587 76.5721 44.7625 80.2528L55.5443 119.402C58.1839 128.994 64.876 136.206 73.204 138.437L89.2279 142.973C91.347 143.568 93.2059 145.129 94.3957 147.285L94.9905 148.438Z" fill="#D5D9E4"/>
<path d="M75.8069 144.646L62.9432 140.668C56.2511 138.437 50.8602 128.956 48.7782 119.402L40.1157 80.2528C39.2978 76.535 36.9555 74.044 34.2787 74.044H10.3358H7.65898C2.90015 74.044 -0.706152 79.1003 0.14895 84.6398L9.8525 148.438H12.1204H86.2168C86.1425 148.438 77.5171 145.241 75.8069 144.646Z" fill="#BEC2DC"/>
<path d="M90.3805 155.502H14.3879C11.8598 155.502 9.81494 153.457 9.81494 150.929V148.438H94.9906V150.929C94.9906 153.457 92.9086 155.502 90.3805 155.502Z" fill="#E1E4EE"/>
<path d="M79.0039 228.52H83.7999L60.9724 151.933H52.6816L79.0039 228.52Z" fill="#E1E4EE"/>
<path d="M25.7647 228.52H21.0059L43.8334 151.933H52.087L25.7647 228.52Z" fill="#E1E4EE"/>
<path d="M50.4884 234.357H54.3178L56.4742 151.933H48.2949L50.4884 234.357Z" fill="#E1E4EE"/>
</g>
<defs>
<clipPath id="clip0_1494_7726">
<rect width="37" height="47" fill="white" transform="translate(182 40)"/>
</clipPath>
<clipPath id="clip1_1494_7726">
<rect width="149" height="232" fill="white" transform="translate(234)"/>
</clipPath>
<clipPath id="clip2_1494_7726">
<rect width="136" height="231" fill="white" transform="translate(0 4)"/>
</clipPath>
</defs>
</svg>
