<svg width="932" height="384" viewBox="0 0 932 384" fill="none" xmlns="http://www.w3.org/2000/svg">
<g clip-path="url(#clip0_252_3605)">
<path d="M741.317 80.2691V307.027H734.08H724.028H716.791V80.2691H714.479H707.544V64.3157H714.68V70.9379H715.685H723.827H724.832V64.3157H725.033H733.175H733.376V70.9379H734.381H742.523H743.528V64.3157H750.665V80.2691H743.729H741.317Z" fill="#F4AD7B"/>
<path d="M860.227 146.391L922.245 208.298H811.979C811.979 205.388 811.979 146.09 811.979 146.09L860.227 146.391Z" fill="#9BD2CD"/>
<path d="M920.335 208.197H811.979V272.613H920.335V208.197Z" fill="#F8A998"/>
<path d="M853.95 209.451L840.944 222.435L853.95 235.418L866.957 222.435L853.95 209.451Z" fill="#9BD2CD"/>
<path d="M881.685 209.432L868.678 222.415L881.685 235.398L894.691 222.415L881.685 209.432Z" fill="#9BD2CD"/>
<path d="M907.925 209.447L894.918 222.43L907.925 235.414L920.932 222.43L907.925 209.447Z" fill="#9BD2CD"/>
<path d="M854.039 235.33L841.033 248.314L854.039 261.297L867.046 248.314L854.039 235.33Z" fill="#9BD2CD"/>
<path d="M881.774 235.311L868.767 248.294L881.774 261.277L894.78 248.294L881.774 235.311Z" fill="#9BD2CD"/>
<path d="M908.014 235.324L895.007 248.308L908.014 261.291L921.02 248.308L908.014 235.324Z" fill="#9BD2CD"/>
<path d="M717.171 272.211H682.896V116.892H717.171V272.211Z" fill="#C8DE86"/>
<path d="M692.244 130.036V125.621C692.244 124.216 691.138 123.113 689.731 123.113C688.323 123.113 687.218 124.216 687.218 125.621V130.036H692.244Z" fill="white"/>
<path d="M713.553 130.036V125.621C713.553 124.216 712.447 123.113 711.04 123.113C709.633 123.113 708.527 124.216 708.527 125.621V130.036H713.553Z" fill="white"/>
<path d="M703.3 130.036V125.621C703.3 124.216 702.195 123.113 700.787 123.113C699.38 123.113 698.274 124.216 698.274 125.621V130.036H703.3Z" fill="white"/>
<path d="M677.267 120.705L697.571 74.751L722.8 120.705H677.267Z" fill="#FDC500"/>
<path d="M693.249 120.705L697.571 74.751L677.267 120.705H693.249Z" fill="#D19F00"/>
<path d="M722.8 120.705L697.571 74.751L711.643 120.705H722.8Z" fill="#FFD243"/>
<path d="M843.441 77.0587H804.34V131.641H843.441V77.0587Z" fill="#5B80D2"/>
<path d="M832.585 77.0587H815.297V131.641H832.585V77.0587Z" fill="#95AED0"/>
<path d="M827.962 90.303V83.1792C827.962 80.9718 826.152 79.0654 823.941 79.0654C821.73 79.0654 819.92 80.8715 819.92 83.1792V90.303H827.962Z" fill="white"/>
<path d="M828.062 109.969V102.845C828.062 100.638 826.253 98.7312 823.941 98.7312C821.729 98.7312 819.82 100.537 819.82 102.845V109.969H828.062Z" fill="white"/>
<path d="M801.224 77.0587L821.528 31.0047L846.657 77.0587H801.224Z" fill="#EBA471"/>
<path d="M817.206 77.0587L821.528 31.0047L801.224 77.0587H817.206Z" fill="#F4C67B"/>
<path d="M846.657 77.0587L821.528 31.0047L835.5 77.0587H846.657Z" fill="#E28D51"/>
<path d="M857.01 113.079V119.701H847.864V113.079H847.662H838.516H838.415V119.701H829.268V113.079H829.067H819.92H819.719V119.701H810.572V113.079H810.472H801.325H801.124V119.701H791.977V113.079H784.84V129.033H791.776H794.088V355.791H801.325H847.662H854.9V129.033H857.211H864.147V113.079H857.01Z" fill="#F4C67B"/>
<path d="M847.16 124.417H846.255V337.53H847.16V124.417Z" fill="white"/>
<path d="M838.114 124.417H837.209V337.53H838.114V124.417Z" fill="white"/>
<path d="M828.967 124.417H828.062V337.53H828.967V124.417Z" fill="white"/>
<path d="M819.92 124.417H819.016V337.53H819.92V124.417Z" fill="white"/>
<path d="M810.874 124.417H809.969V337.53H810.874V124.417Z" fill="white"/>
<path d="M801.827 124.417H800.923V337.53H801.827V124.417Z" fill="white"/>
<path d="M764.536 70.4358L719.907 147.694H809.265L764.536 70.4358Z" fill="#F5B5C7"/>
<path d="M801.224 147.795H727.948V297.997H801.224V147.795Z" fill="#E9E5D9"/>
<path d="M695.346 164.802V157.076H690.722H657.753H653.833V164.802H657.954L664.086 174.234L658.055 243.967C663.282 248.081 685.395 248.081 690.622 243.967L684.591 174.234L690.722 164.802H695.346Z" fill="#E0836E"/>
<path d="M671.524 90.2528L659.864 95.6709L671.524 100.387V90.2528Z" fill="#395EB2"/>
<path d="M672.228 114.634C671.725 114.634 671.323 114.233 671.323 113.731V90.5538C671.323 90.0522 671.725 89.6508 672.228 89.6508C672.73 89.6508 673.132 90.0522 673.132 90.5538V113.731C673.132 114.233 672.73 114.634 672.228 114.634Z" fill="white"/>
<path d="M677.957 170.421V166.006C677.957 164.601 676.851 163.498 675.444 163.498C674.037 163.498 672.931 164.601 672.931 166.006V170.421H677.957Z" fill="white"/>
<path d="M677.957 182.762V178.347C677.957 176.943 676.851 175.839 675.444 175.839C674.037 175.839 672.931 176.943 672.931 178.347V182.762H677.957Z" fill="white"/>
<path d="M651.823 157.478L672.127 111.424L697.357 157.478H651.823Z" fill="#6377B8"/>
<path d="M667.905 157.478L672.127 111.424L651.823 157.478H667.905Z" fill="#5B80D2"/>
<path d="M697.356 157.478L672.127 111.424L686.199 157.478H697.356Z" fill="#72A2ED"/>
<path d="M943.856 191.742V197.562V199.267L934.307 208.799L943.554 278.533C935.613 282.646 901.84 282.646 893.9 278.533L903.147 208.799L893.598 199.267V197.562V191.742H943.856Z" fill="#FED05E"/>
<path d="M919.632 128.43L940.438 135.153L936.116 137.16L940.438 139.668L919.632 142.176V128.43Z" fill="#F4AD7B"/>
<path d="M919.632 151.608C919.129 151.608 918.727 151.207 918.727 150.705V128.43C918.727 127.929 919.129 127.527 919.632 127.527C920.134 127.527 920.536 127.929 920.536 128.43V150.705C920.536 151.207 920.134 151.608 919.632 151.608Z" fill="#302723"/>
<path d="M941.343 191.742L919.531 149.601L895.91 191.742H941.343Z" fill="#E0836E"/>
<path d="M921.742 221.943V214.819C921.742 212.612 923.552 210.706 925.864 210.706C928.075 210.706 929.985 212.512 929.985 214.819V221.943H921.742Z" fill="white"/>
<path d="M929.583 241.609V234.485C929.583 232.278 927.773 230.371 925.461 230.371C923.25 230.371 921.34 232.177 921.34 234.485V241.609H929.583Z" fill="white"/>
<path d="M913.098 191.742L919.632 149.601L896.01 191.742H913.098Z" fill="#C67462"/>
<path d="M941.443 191.742L919.632 149.601L928.779 191.742H941.443Z" fill="#F8A998"/>
<path d="M808.763 199.869V192.144H813.387H846.356H850.276V199.869H846.155L840.023 209.301L846.054 279.034C840.827 283.148 818.714 283.148 813.487 279.034L819.518 209.301L813.387 199.869H808.763Z" fill="#ED6E50"/>
<path d="M828.665 128.33L840.325 133.748L828.665 138.464V128.33Z" fill="#395EB2"/>
<path d="M827.861 152.712C827.358 152.712 826.956 152.31 826.956 151.809V128.631C826.956 128.13 827.358 127.728 827.861 127.728C828.364 127.728 828.766 128.13 828.766 128.631V151.809C828.766 152.31 828.364 152.712 827.861 152.712Z" fill="#302723"/>
<path d="M825.549 205.388V200.973C825.549 199.568 826.655 198.465 828.062 198.465C829.469 198.465 830.575 199.568 830.575 200.973V205.388H825.549Z" fill="white"/>
<path d="M825.549 217.83V213.415C825.549 212.01 826.655 210.906 828.062 210.906C829.469 210.906 830.575 212.01 830.575 213.415V217.83H825.549Z" fill="white"/>
<path d="M806.853 192.645L827.157 146.591L852.286 192.645H806.853Z" fill="#299880"/>
<path d="M822.835 192.645L827.157 146.591L806.853 192.645H822.835Z" fill="#3B8273"/>
<path d="M852.286 192.645L827.157 146.591L841.129 192.645H852.286Z" fill="#0CC189"/>
<path d="M650.453 113.707L635.535 118.527L638.634 119.965L635.535 121.836L650.453 123.562V113.707Z" fill="#DDD9C8"/>
<path d="M650.453 130.324C650.092 130.324 649.804 130.037 649.804 129.677V113.707C649.804 113.347 650.092 113.059 650.453 113.059C650.813 113.059 651.101 113.347 651.101 113.707V129.677C651.101 130.037 650.813 130.324 650.453 130.324Z" fill="#DDD9C8"/>
<path d="M634.598 166.868V171.041V172.264L641.444 179.098L634.814 229.094C640.507 232.043 664.722 232.043 670.415 229.094L663.785 179.098L670.631 172.264V171.041V166.868H634.598Z" fill="#9BD2CD"/>
<path d="M650.092 188.521V183.414C650.092 181.831 648.795 180.464 647.21 180.464C645.624 180.464 644.327 181.759 644.327 183.414V188.521H650.092Z" fill="white"/>
<path d="M650.092 202.621V197.513C650.092 195.931 648.795 194.564 647.137 194.564C645.552 194.564 644.183 195.859 644.183 197.513V202.621H650.092Z" fill="white"/>
<path d="M633.517 167.156L650.597 128.454L671.784 167.156H633.517Z" fill="#E0836E"/>
<path d="M646.993 167.156L650.597 128.454L633.517 167.156H646.993Z" fill="#C67462"/>
<path d="M671.784 167.156L650.597 128.454L662.416 167.156H671.784Z" fill="#F8A998"/>
<path d="M773.784 168.265V163.85C773.784 162.445 772.678 161.341 771.271 161.341C769.863 161.341 768.758 162.445 768.758 163.85V168.265H773.784Z" fill="#9DBF9F"/>
<path d="M795.093 168.265V163.85C795.093 162.445 793.987 161.341 792.58 161.341C791.173 161.341 790.067 162.445 790.067 163.85V168.265H795.093Z" fill="#9DBF9F"/>
<path d="M784.84 168.265V163.85C784.84 162.445 783.735 161.341 782.327 161.341C780.92 161.341 779.814 162.445 779.814 163.85V168.265H784.84Z" fill="#9DBF9F"/>
<path d="M739.307 168.265V163.85C739.307 162.445 738.201 161.341 736.794 161.341C735.387 161.341 734.281 162.445 734.281 163.85V168.265H739.307Z" fill="#9DBF9F"/>
<path d="M760.616 168.265V163.85C760.616 162.445 759.51 161.341 758.103 161.341C756.696 161.341 755.59 162.445 755.59 163.85V168.265H760.616Z" fill="#9DBF9F"/>
<path d="M750.363 168.265V163.85C750.363 162.445 749.258 161.341 747.851 161.341C746.443 161.341 745.338 162.445 745.338 163.85V168.265H750.363Z" fill="#9DBF9F"/>
<path d="M773.784 178.198V173.783C773.784 172.378 772.678 171.275 771.271 171.275C769.863 171.275 768.758 172.378 768.758 173.783V178.198H773.784Z" fill="#9DBF9F"/>
<path d="M795.093 178.198V173.783C795.093 172.378 793.987 171.275 792.58 171.275C791.173 171.275 790.067 172.378 790.067 173.783V178.198H795.093Z" fill="#9DBF9F"/>
<path d="M784.84 178.198V173.783C784.84 172.378 783.735 171.275 782.327 171.275C780.92 171.275 779.814 172.378 779.814 173.783V178.198H784.84Z" fill="#9DBF9F"/>
<path d="M739.307 178.198V173.783C739.307 172.378 738.201 171.275 736.794 171.275C735.387 171.275 734.281 172.378 734.281 173.783V178.198H739.307Z" fill="#9DBF9F"/>
<path d="M760.616 178.198V173.783C760.616 172.378 759.51 171.275 758.103 171.275C756.696 171.275 755.59 172.378 755.59 173.783V178.198H760.616Z" fill="#9DBF9F"/>
<path d="M750.363 178.198V173.783C750.363 172.378 749.258 171.275 747.851 171.275C746.443 171.275 745.338 172.378 745.338 173.783V178.198H750.363Z" fill="#9DBF9F"/>
<path d="M773.784 194.552V190.137C773.784 188.732 772.678 187.629 771.271 187.629C769.863 187.629 768.758 188.732 768.758 190.137V194.552H773.784Z" fill="#9DBF9F"/>
<path d="M795.093 194.552V190.137C795.093 188.732 793.987 187.629 792.58 187.629C791.173 187.629 790.067 188.732 790.067 190.137V194.552H795.093Z" fill="#9DBF9F"/>
<path d="M784.84 194.552V190.137C784.84 188.732 783.735 187.629 782.327 187.629C780.92 187.629 779.814 188.732 779.814 190.137V194.552H784.84Z" fill="#9DBF9F"/>
<path d="M739.307 194.552V190.137C739.307 188.732 738.201 187.629 736.794 187.629C735.387 187.629 734.281 188.732 734.281 190.137V194.552H739.307Z" fill="#9DBF9F"/>
<path d="M760.616 194.552V190.137C760.616 188.732 759.51 187.629 758.103 187.629C756.696 187.629 755.59 188.732 755.59 190.137V194.552H760.616Z" fill="#9DBF9F"/>
<path d="M750.363 194.552V190.137C750.363 188.732 749.258 187.629 747.851 187.629C746.443 187.629 745.338 188.732 745.338 190.137V194.552H750.363Z" fill="#9DBF9F"/>
<path d="M773.784 204.485V200.07C773.784 198.665 772.678 197.562 771.271 197.562C769.863 197.562 768.758 198.665 768.758 200.07V204.485H773.784Z" fill="#9DBF9F"/>
<path d="M795.093 204.485V200.07C795.093 198.665 793.987 197.562 792.58 197.562C791.173 197.562 790.067 198.665 790.067 200.07V204.485H795.093Z" fill="#9DBF9F"/>
<path d="M784.84 204.485V200.07C784.84 198.665 783.735 197.562 782.327 197.562C780.92 197.562 779.814 198.665 779.814 200.07V204.485H784.84Z" fill="#9DBF9F"/>
<path d="M739.307 204.485V200.07C739.307 198.665 738.201 197.562 736.794 197.562C735.387 197.562 734.281 198.665 734.281 200.07V204.485H739.307Z" fill="#9DBF9F"/>
<path d="M760.616 204.485V200.07C760.616 198.665 759.51 197.562 758.103 197.562C756.696 197.562 755.59 198.665 755.59 200.07V204.485H760.616Z" fill="#9DBF9F"/>
<path d="M750.363 204.485V200.07C750.363 198.665 749.258 197.562 747.851 197.562C746.443 197.562 745.338 198.665 745.338 200.07V204.485H750.363Z" fill="#9DBF9F"/>
</g>
<path d="M546.506 218.998H540.449L542.264 166.104H544.704L546.506 218.998Z" fill="#CEDED3"/>
<path d="M543.515 166.092C542.239 166.117 541.162 165.078 541.15 163.789C541.15 163.789 541.813 137.793 543.089 137.768C544.366 137.743 545.805 163.714 545.805 163.714C545.83 164.99 544.791 166.067 543.502 166.079L543.515 166.092Z" fill="#CEDED3"/>
<path d="M542.314 163.313C542.852 162.149 544.241 161.636 545.404 162.174C545.404 162.174 568.529 174.052 567.991 175.216C567.453 176.38 543.44 166.405 543.44 166.405C542.276 165.867 541.763 164.477 542.301 163.313H542.314Z" fill="#CEDED3"/>
<path d="M544.654 163.438C545.192 164.602 544.679 165.992 543.515 166.53C543.515 166.53 519.502 176.505 518.964 175.341C518.426 174.177 541.55 162.299 541.55 162.299C542.714 161.761 544.103 162.274 544.641 163.438H544.654Z" fill="#CEDED3"/>
<path d="M546.818 164.189C546.818 166.029 545.329 167.531 543.477 167.531C541.625 167.531 540.136 166.042 540.136 164.189C540.136 162.337 541.625 160.848 543.477 160.848C545.329 160.848 546.818 162.337 546.818 164.189Z" fill="#BDCEBF"/>
<path d="M496.127 237.56H490.058L491.873 184.678H494.313L496.127 237.56Z" fill="#CEDED3"/>
<path d="M495.426 182.063C495.689 183.314 494.888 184.566 493.624 184.829C493.624 184.829 467.997 189.197 467.734 187.933C467.472 186.681 492.661 180.26 492.661 180.26C493.912 179.997 495.164 180.798 495.426 182.063Z" fill="#CEDED3"/>
<path d="M492.936 183.777C491.685 183.477 490.922 182.2 491.222 180.961C491.222 180.961 498.417 155.979 499.668 156.279C500.92 156.58 495.752 182.075 495.752 182.075C495.451 183.327 494.175 184.09 492.936 183.79V183.777Z" fill="#CEDED3"/>
<path d="M492.598 181.449C493.637 180.698 495.101 180.924 495.852 181.962C495.852 181.962 510.267 203.603 509.229 204.354C508.19 205.105 492.085 184.704 492.085 184.704C491.335 183.665 491.56 182.2 492.598 181.449Z" fill="#CEDED3"/>
<path d="M496.427 182.751C496.427 184.591 494.938 186.093 493.086 186.093C491.234 186.093 489.745 184.603 489.745 182.751C489.745 180.899 491.234 179.409 493.086 179.409C494.938 179.409 496.427 180.899 496.427 182.751Z" fill="#BDCEBF"/>
<path d="M346.312 263.7C308.887 273.273 278.093 299.106 243.737 316.735C173.125 352.945 90.2573 353.365 10.8966 353V507.283H342.531L346.33 263.7H346.312Z" fill="#5D9767"/>
<path d="M932 274.839V380.088H345.863L345.918 327.527L345.973 272.939V264.097C430.411 229.02 521.991 211.628 613.425 212.395C613.443 212.413 613.461 212.395 613.461 212.395C640.292 212.614 667.087 214.423 693.699 217.784C726.466 221.932 758.922 228.454 790.74 237.387C837.68 250.578 883.562 268.902 931.982 274.839H932Z" fill="#5D9767"/>
<g opacity="0.4">
<path d="M206.959 369.711C202.849 370.606 201.699 365.363 197.589 366.258C193.479 367.153 194.63 372.397 190.502 373.292C186.374 374.187 185.242 368.944 181.132 369.839C177.023 370.734 178.155 375.977 174.046 376.891C169.936 377.804 168.785 372.543 164.658 373.438C160.53 374.333 161.68 379.576 157.571 380.49" fill="#A8F5F5"/>
<path d="M206.959 369.711C202.849 370.606 201.699 365.363 197.589 366.258C193.479 367.153 194.63 372.397 190.502 373.292C186.374 374.187 185.242 368.944 181.132 369.839C177.023 370.734 178.155 375.977 174.046 376.891C169.936 377.804 168.785 372.543 164.658 373.438C160.53 374.333 161.68 379.576 157.571 380.49" stroke="#82CBEE" stroke-width="0.73" stroke-miterlimit="10"/>
<g style="mix-blend-mode:multiply" opacity="0.5">
<path d="M206.959 369.711C202.849 370.606 201.699 365.363 197.589 366.258C193.479 367.153 194.63 372.397 190.502 373.292C186.374 374.187 185.242 368.944 181.132 369.839C177.023 370.734 178.155 375.977 174.046 376.891C169.936 377.804 168.785 372.543 164.658 373.438C160.53 374.333 161.68 379.576 157.571 380.49" stroke="#B9DADB" stroke-width="0.73" stroke-miterlimit="10"/>
</g>
</g>
<g opacity="0.4">
<path d="M533.132 246.248C529.005 247.033 528 241.754 523.854 242.539C519.708 243.325 520.731 248.605 516.584 249.39C512.438 250.176 511.452 244.896 507.306 245.681C503.16 246.467 504.164 251.747 500.037 252.532C495.909 253.318 494.886 248.038 490.758 248.824C486.63 249.609 487.616 254.889 483.47 255.675" fill="#A8F5F5"/>
<path d="M533.132 246.248C529.005 247.033 528 241.754 523.854 242.539C519.708 243.325 520.731 248.605 516.584 249.39C512.438 250.176 511.452 244.896 507.306 245.681C503.16 246.467 504.164 251.747 500.037 252.532C495.909 253.318 494.886 248.038 490.758 248.824C486.63 249.609 487.616 254.889 483.47 255.675" stroke="#82CBEE" stroke-width="0.73" stroke-miterlimit="10"/>
<g style="mix-blend-mode:multiply" opacity="0.5">
<path d="M533.132 246.248C529.005 247.033 528 241.754 523.854 242.539C519.708 243.325 520.731 248.605 516.584 249.39C512.438 250.176 511.452 244.896 507.306 245.681C503.16 246.467 504.164 251.747 500.037 252.532C495.909 253.318 494.886 248.038 490.758 248.824C486.63 249.609 487.616 254.889 483.47 255.675" stroke="#B9DADB" stroke-width="0.73" stroke-miterlimit="10"/>
</g>
</g>
<g opacity="0.4">
<path d="M348.42 300.617C344.676 302.517 342.228 297.73 338.484 299.649C334.74 301.567 337.169 306.335 333.406 308.253C329.644 310.172 327.215 305.367 323.47 307.285C319.726 309.203 322.137 313.99 318.393 315.89C314.648 317.79 312.201 313.003 308.438 314.922C304.676 316.84 307.105 321.626 303.361 323.526" fill="#A8F5F5"/>
<path d="M348.42 300.617C344.676 302.517 342.228 297.73 338.484 299.649C334.74 301.567 337.169 306.335 333.406 308.253C329.644 310.172 327.215 305.367 323.47 307.285C319.726 309.203 322.137 313.99 318.393 315.89C314.648 317.79 312.201 313.003 308.438 314.922C304.676 316.84 307.105 321.626 303.361 323.526" stroke="#82CBEE" stroke-width="0.73" stroke-miterlimit="10"/>
<g style="mix-blend-mode:multiply" opacity="0.5">
<path d="M348.42 300.617C344.676 302.517 342.228 297.73 338.484 299.649C334.74 301.567 337.169 306.335 333.406 308.253C329.644 310.172 327.215 305.367 323.47 307.285C319.726 309.203 322.137 313.99 318.393 315.89C314.648 317.79 312.201 313.003 308.438 314.922C304.676 316.84 307.105 321.626 303.361 323.526" stroke="#B9DADB" stroke-width="0.73" stroke-miterlimit="10"/>
</g>
</g>
<path d="M421.036 239.58H419.576V262.086H421.036V239.58Z" fill="#AC7B40"/>
<path d="M416.53 255.916H415.07V266.236H416.53V255.916Z" fill="#AC7B40"/>
<path d="M416.141 260.624L415.223 259.468L420.146 255.513L421.05 256.655L416.141 260.624Z" fill="#AC7B40"/>
<path d="M459.854 260.624L460.772 259.468L455.863 255.513L454.945 256.655L459.854 260.624Z" fill="#AC7B40"/>
<path d="M454.764 262.086H456.224V239.58H454.764V262.086Z" fill="#AC7B40"/>
<path d="M459.27 266.222H460.73V255.902H459.27V266.222Z" fill="#AC7B40"/>
<path d="M462.928 255.707H412.928V257.351H462.928V255.707Z" fill="#E59C45"/>
<g style="mix-blend-mode:multiply" opacity="0.3">
<path d="M462.928 255.707H412.928V257.351H462.928V255.707Z" fill="#E59C45"/>
</g>
<path d="M462.914 255.707H412.928L415.918 253.103H460.118L462.914 255.707Z" fill="#E59C45"/>
<path d="M460.132 246H415.918V250.109H460.132V246Z" fill="#E59C45"/>
<path d="M460.132 240.959H415.918V245.067H460.132V240.959Z" fill="#E59C45"/>
<path d="M713.168 220.253H712.004V238.263H713.168V220.253Z" fill="#AC7B40"/>
<path d="M709.568 233.318H708.404V241.573H709.568V233.318Z" fill="#AC7B40"/>
<path d="M709.261 237.084L708.525 236.173L712.459 232.997L713.182 233.908L709.261 237.084Z" fill="#AC7B40"/>
<path d="M744.229 237.084L744.965 236.173L741.031 232.997L740.308 233.908L744.229 237.084Z" fill="#AC7B40"/>
<path d="M740.161 238.263H741.325V220.253H740.161V238.263Z" fill="#AC7B40"/>
<path d="M743.761 241.573H744.925V233.318H743.761V241.573Z" fill="#AC7B40"/>
<path d="M746.678 233.158H706.678V234.471H746.678V233.158Z" fill="#E59C45"/>
<g style="mix-blend-mode:multiply" opacity="0.3">
<path d="M746.678 233.158H706.678V234.471H746.678V233.158Z" fill="#E59C45"/>
</g>
<path d="M746.678 233.158H706.678L709.073 231.081H744.443L746.678 233.158Z" fill="#E59C45"/>
<path d="M744.443 225.399H709.073V228.682H744.443V225.399Z" fill="#E59C45"/>
<path d="M744.443 221.352H709.073V224.635H744.443V221.352Z" fill="#E59C45"/>
<path d="M518.792 222.506C513.572 222.506 509.321 218.249 509.321 213.023C509.321 207.796 513.572 203.54 518.792 203.54C524.011 203.54 528.262 207.796 528.262 213.023C528.262 218.249 524.011 222.506 518.792 222.506ZM518.792 204.214C513.95 204.214 510.011 208.158 510.011 213.006C510.011 217.855 513.95 221.799 518.792 221.799C523.633 221.799 527.572 217.855 527.572 213.006C527.572 208.158 523.633 204.214 518.792 204.214Z" stroke="#4D4D4D" stroke-width="0.5" stroke-miterlimit="10"/>
<path d="M518.792 221.815C513.95 221.815 510.011 217.871 510.011 213.023C510.011 208.174 513.95 204.23 518.792 204.23C523.633 204.23 527.572 208.174 527.572 213.023C527.572 217.871 523.633 221.815 518.792 221.815ZM518.792 204.625C514.163 204.625 510.405 208.388 510.405 213.023C510.405 217.657 514.163 221.421 518.792 221.421C523.42 221.421 527.179 217.657 527.179 213.023C527.179 208.388 523.42 204.625 518.792 204.625Z" fill="#666666"/>
<path d="M518.38 204.55L517.97 204.579L518.576 213.12L518.985 213.09L518.38 204.55Z" fill="#666666"/>
<path d="M518.841 213.269L518.742 212.891L527.031 210.607L527.146 211.001L518.841 213.269Z" fill="#666666"/>
<path d="M510.773 209.955L510.637 210.325L518.729 213.292L518.864 212.921L510.773 209.955Z" fill="#666666"/>
<path d="M512.62 219.005L512.358 218.709L518.66 212.924L518.939 213.236L512.62 219.005Z" fill="#666666"/>
<path d="M518.979 213.004L518.611 213.187L522.411 220.858L522.778 220.675L518.979 213.004Z" fill="#666666"/>
<path d="M519.842 213.154C519.842 213.729 519.366 214.206 518.792 214.206C518.217 214.206 517.741 213.729 517.741 213.154C517.741 212.579 518.217 212.102 518.792 212.102C519.366 212.102 519.842 212.579 519.842 213.154Z" fill="#6A9844"/>
<path d="M547.629 222.506C542.41 222.506 538.159 218.249 538.159 213.023C538.159 207.796 542.41 203.54 547.629 203.54C552.848 203.54 557.099 207.796 557.099 213.023C557.099 218.249 552.848 222.506 547.629 222.506ZM547.629 204.214C542.787 204.214 538.848 208.158 538.848 213.006C538.848 217.855 542.787 221.799 547.629 221.799C552.471 221.799 556.41 217.855 556.41 213.006C556.41 208.158 552.471 204.214 547.629 204.214Z" stroke="#4D4D4D" stroke-width="0.5" stroke-miterlimit="10"/>
<path d="M547.629 221.815C542.787 221.815 538.848 217.871 538.848 213.023C538.848 208.174 542.787 204.23 547.629 204.23C552.471 204.23 556.41 208.174 556.41 213.023C556.41 217.871 552.471 221.815 547.629 221.815ZM547.629 204.625C543 204.625 539.242 208.388 539.242 213.023C539.242 217.657 543 221.421 547.629 221.421C552.257 221.421 556.016 217.657 556.016 213.023C556.016 208.388 552.257 204.625 547.629 204.625Z" fill="#666666"/>
<path d="M547.243 204.542L546.833 204.571L547.439 213.112L547.848 213.083L547.243 204.542Z" fill="#666666"/>
<path d="M555.87 210.6L547.578 212.887L547.683 213.268L555.974 210.981L555.87 210.6Z" fill="#666666"/>
<path d="M539.617 209.941L539.482 210.312L547.573 213.278L547.709 212.908L539.617 209.941Z" fill="#666666"/>
<path d="M541.458 219.005L541.195 218.709L547.514 212.924L547.777 213.236L541.458 219.005Z" fill="#666666"/>
<path d="M547.831 212.986L547.464 213.169L551.263 220.839L551.631 220.657L547.831 212.986Z" fill="#666666"/>
<path d="M527.655 204.033C527.507 204.033 527.375 203.918 527.375 203.754C527.375 203.589 527.49 203.458 527.655 203.458L541.704 199.218C541.852 199.185 542.016 199.267 542.049 199.415C542.081 199.563 541.999 199.727 541.852 199.76L527.671 204.017L527.655 204.033Z" fill="#F9F569"/>
<path d="M530.576 215.702L526.276 202.324L527.376 201.979L531.036 213.368L539.702 203.014C539.964 202.702 540.309 202.439 540.686 202.274L543.017 201.239L543.477 202.291L541.146 203.326C540.933 203.425 540.736 203.573 540.588 203.754L530.592 215.702H530.576Z" fill="#F9F569"/>
<path d="M542.291 198.564L541.198 198.917L543.053 204.673L544.147 204.32L542.291 198.564Z" fill="#F9F569"/>
<path d="M541.409 198.84L540.916 197.311C540.719 196.72 540.867 196.062 541.277 195.602L542.836 194.123L543.312 194.616L541.77 196.079C541.54 196.342 541.458 196.736 541.573 197.098L542.065 198.626L541.409 198.84Z" fill="#666666"/>
<path d="M526.977 200.758L525.884 201.112L526.272 202.316L527.366 201.962L526.977 200.758Z" fill="#666666"/>
<path d="M544.1 204.164L547.76 212.908C547.842 213.105 547.563 213.236 547.448 213.056L543.05 204.592L544.1 204.164Z" fill="#F9F569"/>
<path d="M531.134 215.143L518.332 213.91C518.119 213.894 518.135 213.581 518.332 213.565L531.298 214.075L531.118 215.143H531.134Z" fill="#F9F569"/>
<path d="M528.22 205.637L518.036 213.459L518.386 213.916L528.57 206.094L528.22 205.637Z" fill="#F9F569"/>
<path d="M530.888 215.093L534.138 217.674L535.352 217.723L531.397 214.453C531.2 214.288 530.888 214.338 530.773 214.568C530.674 214.748 530.707 214.978 530.871 215.093H530.888Z" fill="#4D4D4D"/>
<path d="M534.138 217.641L534.252 218.2C534.285 218.364 534.433 218.479 534.614 218.463L536.895 218.2C537.026 218.2 537.125 218.052 537.092 217.92L536.993 217.542C536.961 217.427 536.862 217.362 536.747 217.362L534.154 217.657L534.138 217.641Z" fill="#4D4D4D"/>
<path d="M526.279 199.609L525.734 199.792L526.287 201.444L526.832 201.261L526.279 199.609Z" fill="#666666"/>
<path d="M522.485 198.347C522.238 198.199 522.386 197.804 522.665 197.87C523.584 198.051 524.782 198.182 526.03 198.1C528.541 197.919 529.345 197.065 530.51 198.314C530.592 198.412 530.56 198.56 530.445 198.609L527.162 199.743C526.177 200.089 525.094 199.957 524.191 199.415L522.468 198.363L522.485 198.347Z" fill="#4D4D4D"/>
<path d="M543.46 194.008C543.526 194.205 543.493 194.435 543.345 194.567L543.296 194.616C543.296 194.616 542.968 194.83 542.869 194.78C542.787 194.731 542.738 194.632 542.722 194.534C542.672 194.304 542.672 194.008 542.771 193.794C542.869 193.597 543.329 193.613 543.46 193.991V194.008Z" fill="#666666"/>
<path d="M543 193.975C542.951 194.32 542.672 194.567 542.377 194.534C542.081 194.501 541.868 194.189 541.917 193.843C541.966 193.498 542.246 193.252 542.541 193.285C542.836 193.318 543.05 193.63 543 193.975Z" fill="#4D4D4D"/>
<path d="M540.243 193.959V193.843C540.243 193.679 540.374 193.548 540.522 193.564H542.344C542.475 193.564 542.59 193.679 542.59 193.811V194.024C542.59 194.156 542.492 194.271 542.36 194.271H540.522C540.374 194.271 540.243 194.139 540.243 193.975V193.959Z" fill="#4D4D4D"/>
<path d="M548.039 213.056C548.039 213.269 547.859 213.45 547.645 213.45C547.432 213.45 547.251 213.269 547.251 213.056C547.251 212.842 547.432 212.661 547.645 212.661C547.859 212.661 548.039 212.842 548.039 213.056Z" fill="#F9F569"/>
<path d="M520.581 213.121L520.334 213.319L520.515 213.581L520.236 213.697L520.351 213.992L520.039 214.042L520.072 214.354L519.76 214.321L519.711 214.633L519.415 214.535L519.284 214.814L519.038 214.633L518.841 214.88L518.628 214.633L518.381 214.814L518.25 214.535L517.955 214.633L517.905 214.321L517.594 214.354L517.626 214.042L517.314 213.992L517.429 213.697L517.15 213.581L517.331 213.319L517.085 213.121L517.331 212.924L517.15 212.661L517.429 212.546L517.314 212.25L517.626 212.201L517.594 211.889L517.905 211.922L517.955 211.609L518.25 211.724L518.381 211.429L518.628 211.609L518.841 211.379L519.038 211.609L519.284 211.429L519.415 211.724L519.711 211.609L519.76 211.922L520.072 211.889L520.039 212.201L520.351 212.25L520.236 212.546L520.515 212.661L520.334 212.924L520.581 213.121Z" fill="#666666"/>
<path d="M531.183 212.497C532.398 212.497 533.383 213.483 533.383 214.699C533.383 215.915 532.398 216.901 531.183 216.901C529.969 216.901 528.984 215.915 528.984 214.699C528.984 213.483 529.969 212.497 531.183 212.497ZM531.183 212.102C529.739 212.102 528.59 213.269 528.59 214.699C528.59 216.129 529.755 217.296 531.183 217.296C532.611 217.296 533.777 216.129 533.777 214.699C533.777 213.269 532.611 212.102 531.183 212.102Z" fill="#666666"/>
<path d="M532.496 214.699C532.496 215.422 531.905 216.014 531.183 216.014C530.461 216.014 529.87 215.422 529.87 214.699C529.87 213.976 530.461 213.384 531.183 213.384C531.905 213.384 532.496 213.976 532.496 214.699Z" fill="#4D4D4D"/>
<g clip-path="url(#clip1_252_3605)">
<path d="M588.541 268.196C588.585 268.418 588.391 268.643 588.109 268.7L586.242 269.069C585.96 269.125 585.694 268.99 585.65 268.768C585.607 268.546 585.801 268.321 586.082 268.265L587.95 267.896C588.231 267.839 588.497 267.977 588.541 268.196Z" fill="#EEC7BB"/>
<path d="M588.763 269.332C588.807 269.554 588.613 269.779 588.332 269.835L586.464 270.204C586.182 270.261 585.916 270.126 585.873 269.904C585.829 269.682 586.023 269.457 586.304 269.4L588.172 269.031C588.454 268.975 588.72 269.109 588.763 269.332Z" fill="#EEC7BB"/>
<path d="M588.989 270.467C589.032 270.689 588.838 270.915 588.557 270.971L586.689 271.34C586.408 271.396 586.142 271.259 586.098 271.037C586.054 270.814 586.248 270.589 586.53 270.533L588.397 270.164C588.679 270.107 588.945 270.242 588.989 270.464V270.467Z" fill="#EEC7BB"/>
<path d="M622.369 240.54C623.092 224.582 608.923 223.681 608.923 223.681C608.923 223.681 608.798 224.084 608.588 224.807C608.379 224.084 608.254 223.681 608.254 223.681C608.254 223.681 594.085 224.579 594.804 240.54C595.527 256.499 585.047 261.732 603.968 266.3C605.813 266.744 607.337 266.691 608.588 266.244C609.84 266.691 611.363 266.744 613.209 266.3C632.127 261.736 621.65 256.502 622.372 240.54H622.369Z" fill="#EAE967" stroke="#EAE967" stroke-width="1.13" stroke-miterlimit="10"/>
<path d="M596.919 240.837C596.919 241.851 596.096 242.674 595.083 242.674C594.069 242.674 593.246 241.851 593.246 240.837C593.246 239.824 594.069 239.001 595.083 239.001C596.096 239.001 596.919 239.824 596.919 240.837Z" fill="#EEC7BB"/>
<path d="M624.228 240.837C624.228 241.851 623.405 242.674 622.391 242.674C621.378 242.674 620.555 241.851 620.555 240.837C620.555 239.824 621.378 239.001 622.391 239.001C623.405 239.001 624.228 239.824 624.228 240.837Z" fill="#EEC7BB"/>
<path d="M605.1 283.331C604.343 283.331 603.733 282.718 603.733 281.964V290.927C603.733 291.684 604.346 292.294 605.1 292.294C605.854 292.294 606.467 291.681 606.467 290.927V281.964C606.467 282.718 605.854 283.331 605.1 283.331Z" fill="#EEC7BB"/>
<path d="M612.167 283.331C611.41 283.331 610.8 282.718 610.8 281.964V290.927C610.8 291.684 611.413 292.294 612.167 292.294C612.921 292.294 613.535 291.681 613.535 290.927V281.964C613.535 282.718 612.921 283.331 612.167 283.331Z" fill="#EEC7BB"/>
<path d="M605.1 267.714C604.343 267.714 603.733 268.327 603.733 269.081V281.579C603.733 280.825 604.346 280.212 605.1 280.212C605.854 280.212 606.467 280.825 606.467 281.579V269.081C606.467 268.327 605.854 267.714 605.1 267.714Z" fill="#EEC7BB"/>
<path d="M605.1 280.212C604.343 280.212 603.733 280.825 603.733 281.579V281.961C603.733 282.715 604.346 283.328 605.1 283.328C605.854 283.328 606.467 282.715 606.467 281.961V281.579C606.467 280.825 605.854 280.212 605.1 280.212Z" fill="#EEC7BB"/>
<path d="M605.1 280.212C604.343 280.212 603.733 280.825 603.733 281.579V281.961C603.733 282.715 604.346 283.328 605.1 283.328C605.854 283.328 606.467 282.715 606.467 281.961V281.579C606.467 280.825 605.854 280.212 605.1 280.212Z" fill="#DFB1A5"/>
<path d="M612.167 267.714C611.41 267.714 610.8 268.327 610.8 269.081V281.579C610.8 280.825 611.413 280.212 612.167 280.212C612.921 280.212 613.535 280.825 613.535 281.579V269.081C613.535 268.327 612.921 267.714 612.167 267.714Z" fill="#EEC7BB"/>
<path d="M612.167 280.212C611.41 280.212 610.8 280.825 610.8 281.579V281.961C610.8 282.715 611.413 283.328 612.167 283.328C612.921 283.328 613.535 282.715 613.535 281.961V281.579C613.535 280.825 612.921 280.212 612.167 280.212Z" fill="#EEC7BB"/>
<path d="M612.167 280.212C611.41 280.212 610.8 280.825 610.8 281.579V281.961C610.8 282.715 611.413 283.328 612.167 283.328C612.921 283.328 613.535 282.715 613.535 281.961V281.579C613.535 280.825 612.921 280.212 612.167 280.212Z" fill="#DFB1A5"/>
<path d="M608 275.276C608 276.386 607.296 277.29 606.423 277.29H603.623C602.754 277.29 602.047 276.389 602.047 275.276V267.395C602.047 266.284 602.751 265.38 603.623 265.38H606.423C607.293 265.38 608 266.281 608 267.395V275.276Z" fill="#C49BC7"/>
<path d="M615.143 275.276C615.143 276.386 614.439 277.29 613.566 277.29H610.766C609.896 277.29 609.189 276.389 609.189 275.276V267.395C609.189 266.284 609.893 265.38 610.766 265.38H613.566C614.436 265.38 615.143 266.281 615.143 267.395V275.276Z" fill="#C49BC7"/>
<path d="M604.744 252.704H612.449C614.789 252.704 616.691 254.603 616.691 256.946V264.651C616.691 266.991 614.792 268.89 612.452 268.89H604.747C602.407 268.89 600.508 266.991 600.508 264.651V256.946C600.508 254.606 602.407 252.704 604.75 252.704H604.744Z" fill="#EB633E" stroke="#EB633E" stroke-width="2.26" stroke-miterlimit="10"/>
<path d="M608 292.867C608 293.937 607.134 294.807 606.064 294.807H603.99C602.92 294.807 602.053 293.94 602.053 292.867C602.053 291.797 602.92 290.93 603.99 290.93H606.064C607.134 290.93 608 291.797 608 292.867Z" fill="#3A53A3" stroke="#3A53A3" stroke-width="1.13" stroke-miterlimit="10"/>
<path d="M615.143 292.867C615.143 293.937 614.276 294.807 613.206 294.807H611.132C610.062 294.807 609.195 293.94 609.195 292.867C609.195 291.797 610.062 290.93 611.132 290.93H613.206C614.276 290.93 615.143 291.797 615.143 292.867Z" fill="#3A53A3" stroke="#3A53A3" stroke-width="1.13" stroke-miterlimit="10"/>
<path d="M597.401 265.602C597.073 266.281 596.256 266.566 595.574 266.237C594.895 265.909 594.61 265.089 594.939 264.41L599.006 255.995C599.334 255.316 600.154 255.031 600.833 255.36C601.512 255.688 601.797 256.505 601.468 257.187L597.398 265.602H597.401Z" fill="#EEC7BB"/>
<path d="M593.106 269.425C592.755 269.732 592.067 269.522 591.57 268.956C591.072 268.39 590.95 267.68 591.301 267.373L595.63 263.566C595.981 263.259 596.669 263.469 597.166 264.035C597.667 264.601 597.786 265.311 597.435 265.618L593.106 269.425Z" fill="#EEC7BB"/>
<path d="M591.926 269.475C592.042 270.073 591.654 270.652 591.06 270.767L589.552 271.065C588.954 271.184 588.375 270.792 588.26 270.198L587.962 268.69C587.844 268.093 588.235 267.514 588.829 267.398L590.337 267.101C590.935 266.982 591.513 267.37 591.629 267.967L591.926 269.475Z" fill="#EEC7BB"/>
<path d="M590.916 267.289C590.85 267.504 590.572 267.614 590.296 267.529L588.475 266.973C588.2 266.888 588.031 266.644 588.097 266.428C588.163 266.212 588.441 266.103 588.716 266.187L590.537 266.744C590.812 266.829 590.981 267.073 590.916 267.289Z" fill="#EEC7BB"/>
<path d="M608.526 254.046C608.526 255.601 607.265 256.861 605.71 256.861C604.155 256.861 602.891 255.601 602.891 254.046C602.891 252.491 604.152 251.227 605.71 251.227C607.268 251.227 608.526 252.488 608.526 254.046Z" fill="#70C8C1"/>
<path d="M613.666 254.046C613.666 255.601 612.405 256.861 610.847 256.861C609.289 256.861 608.031 255.601 608.031 254.046C608.031 252.491 609.292 251.227 610.847 251.227C612.402 251.227 613.666 252.488 613.666 254.046Z" fill="#70C8C1"/>
<path d="M611.789 251.599C611.789 252.794 610.819 253.764 609.624 253.764H607.572C606.377 253.764 605.407 252.794 605.407 251.599C605.407 250.404 606.377 249.434 607.572 249.434H609.624C610.822 249.434 611.789 250.404 611.789 251.599Z" fill="#E4BAB0"/>
<path d="M608.595 226.747C608.595 234.365 602.419 240.54 594.801 240.54C594.801 248.158 600.977 251.255 608.595 251.255C616.213 251.255 622.388 248.158 622.388 240.54C614.77 240.54 608.595 234.365 608.595 226.747Z" fill="#EEC7BB"/>
<path d="M608.942 223.681C608.826 223.678 608.714 223.668 608.595 223.668C608.476 223.668 608.363 223.678 608.247 223.681C600.789 223.956 594.798 233.038 594.798 240.54C602.416 240.54 608.592 234.365 608.592 226.747C608.592 234.365 614.767 240.54 622.385 240.54C622.385 233.038 616.394 223.956 608.936 223.681H608.942Z" fill="#EAE967" stroke="#EAE967" stroke-width="1.13" stroke-miterlimit="10"/>
<path opacity="0.4" d="M609.971 242.674C609.971 243.763 609.089 244.642 608.003 244.642C606.915 244.642 606.036 243.759 606.036 242.674C606.036 241.585 606.918 240.706 608.003 240.706C609.092 240.706 609.971 241.588 609.971 242.674Z" fill="#D68470"/>
<path d="M604.506 243.938C604.506 245.198 605.526 246.218 606.786 246.218" stroke="#D68470" stroke-width="1.13" stroke-miterlimit="10"/>
<path d="M603.733 241.382C603.733 241.848 603.358 242.223 602.891 242.223C602.425 242.223 602.05 241.848 602.05 241.382C602.05 240.916 602.425 240.54 602.891 240.54C603.358 240.54 603.733 240.916 603.733 241.382Z" fill="#231F20" stroke="#231F20" stroke-width="1.13" stroke-miterlimit="10"/>
<path d="M613.006 241.382C613.006 241.848 612.63 242.223 612.164 242.223C611.698 242.223 611.323 241.848 611.323 241.382C611.323 240.916 611.698 240.54 612.164 240.54C612.63 240.54 613.006 240.916 613.006 241.382Z" fill="#231F20" stroke="#231F20" stroke-width="1.13" stroke-miterlimit="10"/>
<path d="M603.323 256.499C603.323 258.01 602.1 259.236 600.589 259.236C599.078 259.236 597.852 258.01 597.852 256.499C597.852 254.987 599.078 253.761 600.589 253.761C602.1 253.761 603.323 254.987 603.323 256.499Z" fill="#EB633E" stroke="#EB633E" stroke-width="2.26" stroke-miterlimit="10"/>
<path d="M606.427 270.223C606.427 275.501 602.15 279.777 596.872 279.777C591.595 279.777 587.318 275.501 587.318 270.223C587.318 264.945 591.595 260.669 596.872 260.669C602.15 260.669 606.427 264.945 606.427 270.223Z" fill="#70C8C1" stroke="#8BCB9A" stroke-width="1.13" stroke-miterlimit="10"/>
<path d="M605.954 273.189C606.258 272.257 606.427 271.259 606.427 270.223C606.427 269.579 606.361 268.95 606.239 268.34C603.899 270.179 600.373 271.349 596.428 271.349C592.905 271.349 589.717 270.417 587.409 268.909C587.349 269.338 587.315 269.776 587.315 270.223C587.315 271.559 587.59 272.832 588.084 273.987C590.484 274.966 593.237 275.523 596.165 275.523C599.813 275.523 603.189 274.656 605.948 273.189H605.954Z" fill="#70C8C1" stroke="#8BD2D3" stroke-width="1.13" stroke-miterlimit="10"/>
<path d="M606.239 268.343C605.873 266.516 604.988 264.88 603.742 263.591C603.261 265.781 600.12 267.47 596.312 267.47C593.04 267.47 590.262 266.222 589.239 264.482C588.285 265.749 587.64 267.264 587.412 268.909C589.721 270.417 592.909 271.349 596.431 271.349C600.376 271.349 603.899 270.179 606.242 268.34L606.239 268.343Z" fill="#839ED1" stroke="#839ED1" stroke-width="1.13" stroke-miterlimit="10"/>
<path d="M596.312 267.47C600.123 267.47 603.261 265.778 603.742 263.591C602.006 261.792 599.569 260.672 596.872 260.672C593.75 260.672 590.981 262.167 589.236 264.482C590.262 266.222 593.037 267.47 596.309 267.47H596.312ZM596.312 260.95C597.892 260.95 599.172 261.714 599.172 262.652C599.172 263.591 597.892 264.354 596.312 264.354C594.732 264.354 593.453 263.591 593.453 262.652C593.453 261.714 594.732 260.95 596.312 260.95Z" fill="#CC6AA8" stroke="#CC6AA8" stroke-width="1.13" stroke-miterlimit="10"/>
<path d="M596.312 264.354C597.892 264.354 599.172 263.591 599.172 262.652C599.172 261.714 597.892 260.95 596.312 260.95C594.732 260.95 593.453 261.714 593.453 262.652C593.453 263.591 594.732 264.354 596.312 264.354Z" fill="#EC8E7A" stroke="#EC8E7A" stroke-width="1.13" stroke-miterlimit="10"/>
<path d="M613.206 265.571L612.574 266.128C612.834 266.018 613.056 265.828 613.206 265.571Z" fill="#EEC7BB"/>
<path d="M616.701 255.231C616.019 254.903 615.202 255.188 614.874 255.867L611.007 263.863L611.495 263.434C611.845 263.128 612.533 263.337 613.031 263.904C613.341 264.254 613.503 264.661 613.5 264.989L617.336 257.052C617.664 256.373 617.379 255.554 616.701 255.225V255.231Z" fill="#EEC7BB"/>
<path d="M611.442 266.109C610.763 265.781 610.478 264.961 610.806 264.282L611.01 263.863L607.168 267.242C606.818 267.548 606.94 268.258 607.437 268.828C607.935 269.394 608.623 269.607 608.973 269.297L612.574 266.131C612.224 266.281 611.814 266.291 611.442 266.112V266.109Z" fill="#EEC7BB"/>
<path d="M613.206 265.571L613.3 265.49C613.434 265.374 613.497 265.196 613.5 264.992L613.269 265.474C613.25 265.512 613.228 265.54 613.206 265.574V265.571Z" fill="#EEC7BB"/>
<path d="M611.495 263.434L611.007 263.863L610.803 264.282C610.475 264.961 610.76 265.781 611.438 266.109C611.811 266.287 612.221 266.278 612.571 266.128L613.203 265.571C613.222 265.537 613.247 265.508 613.266 265.471L613.497 264.989C613.497 264.658 613.337 264.254 613.028 263.904C612.53 263.337 611.842 263.125 611.492 263.434H611.495Z" fill="#DFB1A5"/>
<path d="M607.794 269.347C607.91 269.945 607.522 270.523 606.927 270.639L605.419 270.936C604.822 271.052 604.243 270.664 604.127 270.07L603.83 268.562C603.714 267.964 604.102 267.389 604.697 267.27L606.205 266.973C606.802 266.857 607.381 267.242 607.497 267.839L607.794 269.347Z" fill="#EEC7BB"/>
<path d="M604.406 268.068C604.449 268.29 604.255 268.515 603.974 268.571L602.106 268.94C601.825 268.997 601.559 268.862 601.515 268.637C601.471 268.415 601.665 268.19 601.947 268.133L603.814 267.764C604.096 267.708 604.362 267.842 604.406 268.064V268.068Z" fill="#EEC7BB"/>
<path d="M606.783 267.16C606.718 267.376 606.439 267.486 606.164 267.401L604.343 266.844C604.068 266.76 603.899 266.516 603.964 266.3C604.03 266.084 604.309 265.975 604.584 266.059L606.405 266.616C606.68 266.7 606.849 266.944 606.783 267.16Z" fill="#EEC7BB"/>
<path d="M604.631 269.203C604.675 269.425 604.481 269.651 604.199 269.707L602.331 270.076C602.05 270.132 601.784 269.995 601.74 269.776C601.696 269.554 601.89 269.328 602.172 269.272L604.04 268.903C604.321 268.847 604.587 268.981 604.631 269.203Z" fill="#EEC7BB"/>
<path d="M604.853 270.339C604.897 270.561 604.703 270.786 604.421 270.843L602.554 271.212C602.272 271.268 602.006 271.133 601.962 270.911C601.919 270.689 602.113 270.464 602.394 270.408L604.262 270.038C604.543 269.982 604.809 270.12 604.853 270.342V270.339Z" fill="#EEC7BB"/>
<path d="M619.425 256.499C619.425 258.01 618.202 259.236 616.691 259.236C615.18 259.236 613.954 258.01 613.954 256.499C613.954 254.987 615.18 253.761 616.691 253.761C618.202 253.761 619.425 254.987 619.425 256.499Z" fill="#EB633E" stroke="#EB633E" stroke-width="2.26" stroke-miterlimit="10"/>
<path d="M494.165 231.752C494.165 231.752 492.557 224.407 486.087 226.762C479.617 229.118 485.383 234.818 482.145 235.15C482.145 235.15 485.386 237.906 488.155 235.162C488.155 235.162 494.578 238.156 494.165 231.752Z" fill="#231F20" stroke="#231F20" stroke-width="1.17" stroke-miterlimit="10"/>
<path d="M514.906 231.752C514.906 231.752 516.514 224.407 522.984 226.762C529.454 229.118 523.688 234.818 526.926 235.15C526.926 235.15 523.685 237.906 520.916 235.162C520.916 235.162 514.493 238.156 514.906 231.752Z" fill="#231F20" stroke="#231F20" stroke-width="1.17" stroke-miterlimit="10"/>
<path d="M493.21 240.841C493.21 241.854 492.388 242.677 491.374 242.677C490.36 242.677 489.538 241.854 489.538 240.841C489.538 239.827 490.36 239.004 491.374 239.004C492.388 239.004 493.21 239.827 493.21 240.841Z" fill="#EEC7BB"/>
<path d="M520.519 240.841C520.519 241.854 519.696 242.677 518.682 242.677C517.669 242.677 516.846 241.854 516.846 240.841C516.846 239.827 517.669 239.004 518.682 239.004C519.696 239.004 520.519 239.827 520.519 240.841Z" fill="#EEC7BB"/>
<path d="M511.434 265.321C511.434 267.664 511.083 268.893 508.74 268.893H501.035C498.692 268.893 498.341 266.995 498.341 264.654L498.075 256.865C498.075 254.524 498.692 252.707 501.032 252.707H508.737C511.08 252.707 512.097 254.524 512.097 256.865L511.431 265.321H511.434Z" fill="#70C8C1"/>
<path d="M505.155 254.077C505.155 255.632 503.894 256.893 502.336 256.893C500.778 256.893 499.517 255.632 499.517 254.077C499.517 252.522 500.778 251.258 502.336 251.258C503.894 251.258 505.155 252.519 505.155 254.077Z" fill="#C49BC7"/>
<path d="M510.295 254.077C510.295 255.632 509.034 256.893 507.476 256.893C505.918 256.893 504.658 255.632 504.658 254.077C504.658 252.522 505.918 251.258 507.476 251.258C509.034 251.258 510.295 252.519 510.295 254.077Z" fill="#C49BC7"/>
<path d="M506.969 251.599C506.969 252.794 506.275 253.764 505.421 253.764H503.954C503.096 253.764 502.405 252.794 502.405 251.599C502.405 250.404 503.1 249.434 503.954 249.434H505.421C506.275 249.434 506.969 250.404 506.969 251.599Z" fill="#E4BAB0"/>
<path d="M505.236 223.681C505.121 223.678 505.008 223.668 504.889 223.668C504.77 223.668 504.658 223.678 504.542 223.681C497.084 223.956 491.093 233.038 491.093 240.54C491.093 248.042 497.268 251.255 504.886 251.255C512.504 251.255 518.679 248.158 518.679 240.54C518.679 232.922 512.688 223.956 505.23 223.681H505.236Z" fill="#EEC7BB"/>
<path opacity="0.4" d="M506.262 242.677C506.262 243.766 505.38 244.645 504.295 244.645C503.206 244.645 502.327 243.762 502.327 242.677C502.327 241.588 503.209 240.709 504.295 240.709C505.383 240.709 506.262 241.591 506.262 242.677Z" fill="#D68470"/>
<path d="M500.8 243.938C500.8 245.198 501.82 246.218 503.081 246.218" stroke="#D68470" stroke-width="1.13" stroke-miterlimit="10"/>
<path d="M500.024 241.382C500.024 241.845 499.649 242.223 499.183 242.223C498.717 242.223 498.341 241.848 498.341 241.382C498.341 240.916 498.717 240.54 499.183 240.54C499.649 240.54 500.024 240.916 500.024 241.382Z" fill="#231F20" stroke="#231F20" stroke-width="1.13" stroke-miterlimit="10"/>
<path d="M509.3 241.382C509.3 241.845 508.925 242.223 508.459 242.223C507.992 242.223 507.617 241.848 507.617 241.382C507.617 240.916 507.992 240.54 508.459 240.54C508.925 240.54 509.3 240.916 509.3 241.382Z" fill="#231F20" stroke="#231F20" stroke-width="1.13" stroke-miterlimit="10"/>
<path d="M482.599 245.952C481.998 246.04 481.438 245.621 481.353 245.02L481.134 243.5C481.047 242.899 481.466 242.339 482.067 242.255L483.587 242.036C484.188 241.948 484.748 242.367 484.832 242.968L485.051 244.488C485.139 245.089 484.72 245.649 484.119 245.733L482.599 245.952Z" fill="#EEC7BB"/>
<path d="M484.05 242.636C483.825 242.668 483.612 242.464 483.572 242.179L483.299 240.296C483.259 240.011 483.406 239.755 483.631 239.721C483.856 239.689 484.069 239.893 484.113 240.177L484.385 242.061C484.426 242.345 484.276 242.602 484.053 242.636H484.05Z" fill="#EEC7BB"/>
<path d="M484.835 245.055C484.623 244.976 484.529 244.695 484.629 244.426L485.28 242.636C485.377 242.364 485.63 242.208 485.843 242.286C486.056 242.364 486.149 242.646 486.052 242.915L485.402 244.704C485.305 244.976 485.051 245.133 484.839 245.055H484.835Z" fill="#EEC7BB"/>
<path d="M482.905 242.802C482.68 242.833 482.467 242.63 482.423 242.345L482.151 240.462C482.111 240.177 482.258 239.921 482.483 239.886C482.708 239.855 482.924 240.058 482.965 240.343L483.237 242.226C483.278 242.511 483.13 242.768 482.905 242.802Z" fill="#EEC7BB"/>
<path d="M481.76 242.965C481.535 242.996 481.319 242.793 481.278 242.508L481.006 240.625C480.966 240.34 481.116 240.083 481.338 240.049C481.563 240.018 481.776 240.221 481.82 240.506L482.092 242.389C482.133 242.674 481.985 242.93 481.76 242.965Z" fill="#EEC7BB"/>
<path d="M482.599 245.952C481.998 246.04 481.438 245.621 481.353 245.02L481.134 243.5C481.047 242.899 481.466 242.339 482.067 242.255L483.587 242.036C484.188 241.948 484.748 242.367 484.832 242.968L485.051 244.488C485.139 245.089 484.72 245.649 484.119 245.733L482.599 245.952Z" fill="#EEC7BB"/>
<path d="M484.05 242.636C483.825 242.668 483.612 242.464 483.572 242.179L483.299 240.296C483.259 240.011 483.406 239.755 483.631 239.721C483.856 239.689 484.069 239.893 484.113 240.177L484.385 242.061C484.426 242.345 484.276 242.602 484.053 242.636H484.05Z" fill="#EEC7BB"/>
<path d="M484.835 245.055C484.623 244.976 484.529 244.695 484.629 244.426L485.28 242.636C485.377 242.364 485.63 242.208 485.843 242.286C486.056 242.364 486.149 242.646 486.052 242.915L485.402 244.704C485.305 244.976 485.051 245.133 484.839 245.055H484.835Z" fill="#EEC7BB"/>
<path d="M482.905 242.802C482.68 242.833 482.467 242.63 482.423 242.345L482.151 240.462C482.111 240.177 482.258 239.921 482.483 239.886C482.708 239.855 482.924 240.058 482.965 240.343L483.237 242.226C483.278 242.511 483.13 242.768 482.905 242.802Z" fill="#EEC7BB"/>
<path d="M481.76 242.965C481.535 242.996 481.319 242.793 481.278 242.508L481.006 240.625C480.966 240.34 481.116 240.083 481.338 240.049C481.563 240.018 481.776 240.221 481.82 240.506L482.092 242.389C482.133 242.674 481.985 242.93 481.76 242.965Z" fill="#EEC7BB"/>
<path d="M495.698 253.714L487.911 249.444L488.314 249.954C488.602 250.32 488.358 250.996 487.767 251.465C487.401 251.756 486.988 251.897 486.656 251.878L494.384 256.117C495.047 256.48 495.879 256.239 496.242 255.576C496.605 254.912 496.364 254.08 495.701 253.717L495.698 253.714Z" fill="#EEC7BB"/>
<path d="M486.09 251.552L485.568 250.892C485.665 251.155 485.843 251.39 486.09 251.552Z" fill="#EEC7BB"/>
<path d="M485.646 249.763C486.009 249.1 486.841 248.859 487.504 249.222L487.911 249.444L484.732 245.433C484.441 245.067 483.728 245.152 483.137 245.621C482.545 246.09 482.298 246.766 482.589 247.132L485.568 250.892C485.436 250.533 485.449 250.123 485.646 249.763Z" fill="#EEC7BB"/>
<path d="M486.09 251.552L486.168 251.649C486.278 251.79 486.45 251.862 486.653 251.875L486.187 251.618C486.153 251.599 486.125 251.574 486.09 251.552Z" fill="#EEC7BB"/>
<path d="M488.314 249.954L487.911 249.444L487.504 249.222C486.841 248.859 486.009 249.1 485.646 249.763C485.449 250.126 485.436 250.536 485.568 250.892L486.09 251.552C486.121 251.574 486.153 251.599 486.187 251.618L486.653 251.875C486.985 251.893 487.398 251.753 487.764 251.462C488.355 250.992 488.602 250.317 488.311 249.951L488.314 249.954Z" fill="#DFB1A5"/>
<path d="M521.329 252.663C520.857 252.075 520.766 251.358 521.129 251.067L521.636 250.661L513.092 253.095C512.366 253.301 511.944 254.058 512.153 254.784C512.36 255.51 513.117 255.932 513.843 255.726L522.321 253.311C521.996 253.257 521.623 253.026 521.329 252.663Z" fill="#EEC7BB"/>
<path d="M523.6 252.594L522.943 253.123C523.222 253.017 523.447 252.829 523.6 252.594Z" fill="#EEC7BB"/>
<path d="M522.321 253.311C522.521 253.345 522.706 253.311 522.843 253.201L522.94 253.123C522.903 253.135 522.871 253.154 522.831 253.167L522.318 253.314L522.321 253.311Z" fill="#EEC7BB"/>
<path d="M527.142 247.995C526.67 247.407 525.991 247.166 525.628 247.457L521.639 250.664L522.086 250.536C522.812 250.329 523.569 250.748 523.776 251.477C523.888 251.875 523.81 252.275 523.6 252.597L527.339 249.594C527.702 249.303 527.614 248.59 527.139 247.998L527.142 247.995Z" fill="#EEC7BB"/>
<path d="M523.776 251.477C523.569 250.752 522.812 250.329 522.086 250.536L521.639 250.664L521.132 251.071C520.769 251.362 520.857 252.078 521.332 252.666C521.626 253.029 521.996 253.261 522.324 253.314L522.837 253.167C522.875 253.154 522.909 253.139 522.947 253.123L523.604 252.594C523.813 252.275 523.891 251.872 523.779 251.474L523.776 251.477Z" fill="#DFB1A5"/>
<path d="M525.522 246.466L526.074 245.032C526.292 244.466 526.931 244.182 527.497 244.4L528.931 244.952C529.497 245.17 529.781 245.808 529.563 246.375L529.011 247.808C528.793 248.375 528.155 248.659 527.588 248.441L526.155 247.889C525.588 247.671 525.304 247.032 525.522 246.466Z" fill="#EEC7BB"/>
<path d="M526.913 244.882C527.126 244.964 527.379 244.811 527.483 244.545L528.165 242.768C528.268 242.499 528.18 242.214 527.968 242.133C527.755 242.051 527.502 242.205 527.398 242.47L526.716 244.247C526.613 244.516 526.701 244.801 526.913 244.882Z" fill="#EEC7BB"/>
<path d="M525.612 247.066C525.837 247.038 525.991 246.785 525.953 246.497L525.718 244.607C525.684 244.322 525.471 244.113 525.246 244.141C525.021 244.169 524.867 244.423 524.902 244.71L525.136 246.6C525.171 246.888 525.384 247.094 525.609 247.066H525.612Z" fill="#EEC7BB"/>
<path d="M527.993 245.299C528.205 245.38 528.459 245.227 528.562 244.961L529.247 243.184C529.35 242.915 529.263 242.63 529.05 242.549C528.837 242.467 528.584 242.621 528.481 242.887L527.799 244.663C527.695 244.933 527.783 245.217 527.993 245.299Z" fill="#EEC7BB"/>
<path d="M529.072 245.712C529.285 245.793 529.538 245.64 529.641 245.374L530.323 243.597C530.427 243.328 530.339 243.043 530.126 242.962C529.914 242.88 529.66 243.034 529.557 243.299L528.875 245.076C528.772 245.345 528.859 245.63 529.072 245.712Z" fill="#EEC7BB"/>
<path d="M525.522 246.466L526.074 245.032C526.292 244.466 526.931 244.182 527.497 244.4L528.931 244.952C529.497 245.17 529.781 245.808 529.563 246.375L529.011 247.808C528.793 248.375 528.155 248.659 527.588 248.441L526.155 247.889C525.588 247.671 525.304 247.032 525.522 246.466Z" fill="#EEC7BB"/>
<path d="M526.913 244.882C527.126 244.964 527.379 244.811 527.483 244.545L528.165 242.768C528.268 242.499 528.18 242.214 527.968 242.133C527.755 242.051 527.502 242.205 527.398 242.47L526.716 244.247C526.613 244.516 526.701 244.801 526.913 244.882Z" fill="#EEC7BB"/>
<path d="M525.612 247.066C525.837 247.038 525.991 246.785 525.953 246.497L525.718 244.607C525.684 244.322 525.471 244.113 525.246 244.141C525.021 244.169 524.867 244.423 524.902 244.71L525.136 246.6C525.171 246.888 525.384 247.094 525.609 247.066H525.612Z" fill="#EEC7BB"/>
<path d="M527.993 245.299C528.205 245.38 528.459 245.227 528.562 244.961L529.247 243.184C529.35 242.915 529.263 242.63 529.05 242.549C528.837 242.467 528.584 242.621 528.481 242.887L527.799 244.663C527.695 244.933 527.783 245.217 527.993 245.299Z" fill="#EEC7BB"/>
<path d="M529.072 245.712C529.285 245.793 529.538 245.64 529.641 245.374L530.323 243.597C530.427 243.328 530.339 243.043 530.126 242.962C529.914 242.88 529.66 243.034 529.557 243.299L528.875 245.076C528.772 245.345 528.859 245.63 529.072 245.712Z" fill="#EEC7BB"/>
<path d="M512.935 257.69C514.425 257.95 515.842 256.955 516.101 255.466C516.361 253.977 515.366 252.56 513.877 252.3C512.388 252.04 510.971 253.038 510.711 254.524C510.451 256.014 511.446 257.431 512.935 257.69Z" fill="#70C8C1"/>
<path d="M517.885 234.709C515.654 228.84 510.677 223.668 504.889 223.668C499.101 223.668 494.096 228.871 491.875 234.756C491.875 234.756 490.789 237.919 490.942 239.229C490.942 239.229 492.869 238.841 494.093 234.756H509.482V231.687L511.6 234.756H516.011C517.234 238.841 519.161 239.229 519.161 239.229C519.314 237.919 517.882 234.709 517.882 234.709H517.885Z" fill="#231F20" stroke="#231F20" stroke-width="1.17" stroke-miterlimit="10"/>
<path d="M501.404 280.547C502.123 280.547 502.708 281.107 502.762 281.814V269.081C502.762 268.327 502.148 267.714 501.394 267.714C500.641 267.714 500.027 268.327 500.027 269.081V281.964C500.027 281.999 500.034 282.033 500.037 282.067V281.917C500.037 281.163 500.65 280.55 501.404 280.55V280.547Z" fill="#EEC7BB"/>
<path d="M508.459 267.714C507.705 267.714 507.091 268.327 507.091 269.081V281.914C507.091 281.16 507.705 280.547 508.459 280.547C509.213 280.547 509.826 281.16 509.826 281.914V269.081C509.826 268.327 509.213 267.714 508.459 267.714Z" fill="#EEC7BB"/>
<path d="M502.762 281.964C502.762 282.721 502.148 283.331 501.395 283.331C500.641 283.331 500.09 282.771 500.037 282.064V291.262C500.037 292.019 500.65 292.629 501.404 292.629C502.158 292.629 502.771 292.016 502.771 291.262V281.914C502.771 281.88 502.765 281.845 502.762 281.814V281.964Z" fill="#EEC7BB"/>
<path d="M501.395 283.331C502.148 283.331 502.762 282.718 502.762 281.964V281.814C502.708 281.107 502.123 280.547 501.404 280.547C500.684 280.547 500.037 281.16 500.037 281.914V282.064C500.09 282.771 500.675 283.331 501.395 283.331Z" fill="#DFB1A5"/>
<path d="M508.459 283.331C507.705 283.331 507.091 282.718 507.091 281.964V291.262C507.091 292.019 507.705 292.629 508.459 292.629C509.213 292.629 509.826 292.016 509.826 291.262V281.964C509.826 282.721 509.213 283.331 508.459 283.331Z" fill="#EEC7BB"/>
<path d="M508.459 280.547C507.705 280.547 507.091 281.16 507.091 281.914V281.964C507.091 282.721 507.705 283.331 508.459 283.331C509.213 283.331 509.826 282.718 509.826 281.964V281.914C509.826 281.16 509.213 280.547 508.459 280.547Z" fill="#DFB1A5"/>
<path d="M504.295 292.867C504.295 293.937 503.428 294.807 502.358 294.807H500.284C499.214 294.807 498.347 293.94 498.347 292.867C498.347 291.797 499.214 290.93 500.284 290.93H502.358C503.428 290.93 504.295 291.797 504.295 292.867Z" fill="#C49BC7"/>
<path d="M511.434 292.867C511.434 293.937 510.567 294.807 509.497 294.807H507.423C506.353 294.807 505.487 293.94 505.487 292.867C505.487 291.797 506.353 290.93 507.423 290.93H509.497C510.567 290.93 511.434 291.797 511.434 292.867Z" fill="#C49BC7"/>
<path d="M509.86 265.38H507.06C506.469 265.38 505.953 265.799 505.684 266.419C503.832 265.799 503.312 265.38 502.721 265.38H499.921C499.051 265.38 498.344 266.281 498.344 267.395L496.048 276.051C496.048 277.165 499.051 277.29 499.921 277.29H509.86C509.891 277.29 509.913 277.29 509.926 277.287C510.764 277.243 513.408 277.137 513.408 276.051L511.437 267.395C511.437 266.284 510.733 265.38 509.86 265.38Z" fill="#70C8C1"/>
<path d="M511.912 263.256C518.426 263.706 523.006 264.776 523.006 266.022C523.006 267.677 514.944 269.015 505.002 269.015C495.059 269.015 486.994 267.673 486.994 266.022C486.994 264.78 491.53 263.716 497.991 263.262" stroke="#DDE11E" stroke-width="6.78" stroke-miterlimit="10"/>
<path d="M498.779 255.088C498.81 253.578 497.611 252.329 496.101 252.298C494.591 252.267 493.342 253.466 493.312 254.976C493.281 256.486 494.48 257.735 495.989 257.766C497.499 257.797 498.748 256.598 498.779 255.088Z" fill="#70C8C1"/>
<path d="M546.623 240.074C546.623 241.088 545.8 241.91 544.786 241.91C543.773 241.91 542.95 241.088 542.95 240.074C542.95 239.06 543.773 238.238 544.786 238.238C545.8 238.238 546.623 239.06 546.623 240.074Z" fill="#EEC7BB"/>
<path d="M573.931 240.074C573.931 241.088 573.108 241.91 572.095 241.91C571.081 241.91 570.258 241.088 570.258 240.074C570.258 239.06 571.081 238.238 572.095 238.238C573.108 238.238 573.931 239.06 573.931 240.074Z" fill="#EEC7BB"/>
<path d="M555.185 282.202C554.428 282.202 553.818 281.589 553.818 280.835V289.798C553.818 290.555 554.431 291.165 555.185 291.165C555.939 291.165 556.553 290.552 556.553 289.798V280.835C556.553 281.592 555.939 282.202 555.185 282.202Z" fill="#EEC7BB"/>
<path d="M562.253 282.202C561.496 282.202 560.885 281.589 560.885 280.835V289.798C560.885 290.555 561.499 291.165 562.253 291.165C563.007 291.165 563.62 290.552 563.62 289.798V280.835C563.62 281.592 563.007 282.202 562.253 282.202Z" fill="#EEC7BB"/>
<path d="M555.185 266.585C554.428 266.585 553.818 267.198 553.818 267.952V280.45C553.818 279.696 554.431 279.083 555.185 279.083C555.939 279.083 556.553 279.696 556.553 280.45V267.952C556.553 267.198 555.939 266.585 555.185 266.585Z" fill="#EEC7BB"/>
<path d="M555.185 279.083C554.428 279.083 553.818 279.696 553.818 280.45V280.832C553.818 281.589 554.431 282.199 555.185 282.199C555.939 282.199 556.553 281.586 556.553 280.832V280.45C556.553 279.696 555.939 279.083 555.185 279.083Z" fill="#DFB1A5"/>
<path d="M555.185 279.083C554.428 279.083 553.818 279.696 553.818 280.45V280.832C553.818 281.589 554.431 282.199 555.185 282.199C555.939 282.199 556.553 281.586 556.553 280.832V280.45C556.553 279.696 555.939 279.083 555.185 279.083Z" fill="#DFB1A5"/>
<path d="M562.253 266.585C561.496 266.585 560.885 267.198 560.885 267.952V280.45C560.885 279.696 561.499 279.083 562.253 279.083C563.007 279.083 563.62 279.696 563.62 280.45V267.952C563.62 267.198 563.007 266.585 562.253 266.585Z" fill="#EEC7BB"/>
<path d="M562.253 279.083C561.496 279.083 560.885 279.696 560.885 280.45V280.832C560.885 281.589 561.499 282.199 562.253 282.199C563.007 282.199 563.62 281.586 563.62 280.832V280.45C563.62 279.696 563.007 279.083 562.253 279.083Z" fill="#DFB1A5"/>
<path d="M562.253 279.083C561.496 279.083 560.885 279.696 560.885 280.45V280.832C560.885 281.589 561.499 282.199 562.253 282.199C563.007 282.199 563.62 281.586 563.62 280.832V280.45C563.62 279.696 563.007 279.083 562.253 279.083Z" fill="#DFB1A5"/>
<path d="M558.089 274.146C558.089 275.26 557.385 276.161 556.512 276.161H553.712C552.842 276.161 552.135 275.26 552.135 274.146V266.266C552.135 265.152 552.839 264.251 553.712 264.251H556.512C557.382 264.251 558.089 265.152 558.089 266.266V274.146Z" fill="#3A53A3" stroke="#3A53A3" stroke-width="1.13" stroke-miterlimit="10"/>
<path d="M565.228 274.146C565.228 275.26 564.524 276.161 563.651 276.161H560.851C559.981 276.161 559.277 275.26 559.277 274.146V266.266C559.277 265.152 559.981 264.251 560.851 264.251H563.651C564.521 264.251 565.228 265.152 565.228 266.266V274.146Z" fill="#3A53A3" stroke="#3A53A3" stroke-width="1.13" stroke-miterlimit="10"/>
<path d="M562.531 251.577H554.829C552.486 251.577 550.587 253.477 550.587 255.82V263.522C550.587 265.865 552.486 267.764 554.829 267.764H562.531C564.874 267.764 566.773 265.865 566.773 263.522V255.82C566.773 253.477 564.874 251.577 562.531 251.577Z" fill="#DDE11E" stroke="#DDE11E" stroke-width="1.13" stroke-miterlimit="10"/>
<path d="M561.874 250.47C561.874 251.665 560.904 252.635 559.709 252.635H557.657C556.462 252.635 555.492 251.665 555.492 250.47C555.492 249.272 556.462 248.302 557.657 248.302H559.709C560.904 248.302 561.874 249.272 561.874 250.47Z" fill="#E4BAB0"/>
<path d="M559.027 222.555C558.911 222.551 558.799 222.542 558.68 222.542C558.561 222.542 558.796 225.655 558.68 225.658C551.222 225.933 544.886 231.912 544.886 239.414C544.886 246.916 551.062 250.129 558.68 250.129C566.298 250.129 572.473 247.032 572.473 239.414C572.473 231.796 566.482 222.83 559.024 222.555H559.027Z" fill="#EEC7BB"/>
<path d="M558.089 291.738C558.089 292.807 557.222 293.677 556.149 293.677H554.075C553.005 293.677 552.138 292.811 552.138 291.738C552.138 290.668 553.005 289.801 554.075 289.801H556.149C557.219 289.801 558.089 290.668 558.089 291.738Z" fill="#231F20" stroke="#231F20" stroke-width="1.17" stroke-miterlimit="10"/>
<path d="M565.228 292.807C565.228 293.877 564.361 293.674 563.288 293.674H561.214C560.144 293.674 559.277 292.808 559.277 291.734C559.277 290.664 560.144 289.798 561.214 289.798H563.288C564.358 289.798 565.228 290.664 565.228 291.734V292.804V292.807Z" fill="#231F20" stroke="#231F20" stroke-width="1.17" stroke-miterlimit="10"/>
<path d="M551.556 256.057C551.885 255.378 551.6 254.559 550.921 254.23C550.242 253.902 549.423 254.186 549.094 254.865L548.75 255.576C549.526 256.051 550.321 256.502 551.118 256.961L551.556 256.057Z" fill="#DDE11E" stroke="#DDE11E" stroke-width="1.13" stroke-miterlimit="10"/>
<path d="M538.909 266.276L540.416 265.979C541.012 265.862 541.592 266.252 541.71 266.847L542.006 268.354C542.124 268.95 541.734 269.53 541.139 269.647L539.632 269.944C539.036 270.062 538.456 269.672 538.338 269.077L538.042 267.569C537.924 266.974 538.314 266.393 538.909 266.276Z" fill="#EEC7BB"/>
<path d="M538.626 267.066C538.67 267.289 538.476 267.514 538.195 267.57L536.327 267.939C536.045 267.996 535.779 267.861 535.736 267.636C535.692 267.414 535.886 267.188 536.167 267.132L538.035 266.763C538.317 266.707 538.583 266.841 538.626 267.063V267.066Z" fill="#EEC7BB"/>
<path d="M541.001 266.162C540.935 266.378 540.657 266.488 540.381 266.403L538.561 265.846C538.285 265.762 538.116 265.518 538.182 265.302C538.248 265.086 538.526 264.977 538.802 265.061L540.622 265.618C540.898 265.702 541.067 265.946 541.001 266.162Z" fill="#EEC7BB"/>
<path d="M538.849 268.202C538.892 268.424 538.698 268.649 538.417 268.706L536.549 269.075C536.268 269.131 536.002 268.997 535.958 268.775C535.914 268.552 536.108 268.327 536.39 268.271L538.257 267.902C538.539 267.845 538.805 267.98 538.849 268.202Z" fill="#EEC7BB"/>
<path d="M539.074 269.341C539.118 269.563 538.924 269.788 538.642 269.845L536.774 270.214C536.493 270.27 536.227 270.135 536.183 269.913C536.139 269.691 536.333 269.466 536.615 269.41L538.482 269.041C538.764 268.984 539.03 269.122 539.074 269.344V269.341Z" fill="#EEC7BB"/>
<path d="M564.649 252.072C564.02 252.488 563.848 253.339 564.264 253.967C564.68 254.599 565.531 254.768 566.16 254.352L568.1 253.066C567.543 252.347 566.952 251.646 566.313 250.967L564.649 252.069V252.072Z" fill="#DDE11E" stroke="#DDE11E" stroke-width="1.13" stroke-miterlimit="10"/>
<path d="M547.427 264.573L546.795 265.13C547.054 265.02 547.277 264.83 547.427 264.573Z" fill="#EEC7BB"/>
<path d="M548.75 255.576L545.227 262.865L545.715 262.436C546.066 262.13 546.754 262.339 547.252 262.906C547.561 263.256 547.724 263.663 547.721 263.994L551.121 256.961C550.324 256.505 549.529 256.051 548.753 255.576H548.75Z" fill="#EEC7BB"/>
<path d="M547.427 264.573L547.521 264.492C547.655 264.376 547.718 264.198 547.721 263.994L547.489 264.473C547.471 264.51 547.449 264.539 547.427 264.573Z" fill="#EEC7BB"/>
<path d="M545.659 265.111C544.98 264.783 544.696 263.963 545.024 263.284L545.227 262.865L541.386 266.244C541.035 266.55 541.157 267.26 541.655 267.827C542.155 268.393 542.84 268.606 543.191 268.296L546.792 265.127C546.441 265.277 546.031 265.286 545.659 265.108V265.111Z" fill="#EEC7BB"/>
<path d="M545.715 262.436L545.227 262.865L545.024 263.284C544.696 263.963 544.98 264.783 545.659 265.111C546.031 265.289 546.441 265.283 546.792 265.13L547.424 264.573C547.442 264.539 547.467 264.51 547.486 264.473L547.718 263.994C547.718 263.663 547.558 263.259 547.248 262.906C546.748 262.339 546.063 262.127 545.712 262.436H545.715Z" fill="#DFB1A5"/>
<path d="M574.51 248.408L574.044 249.112C574.278 248.928 574.435 248.68 574.51 248.408Z" fill="#EEC7BB"/>
<path d="M572.367 249.162C571.738 248.743 571.435 248.089 571.694 247.701L572.054 247.16L566.313 250.964C566.952 251.643 567.543 252.344 568.1 253.063L573.509 249.478C573.18 249.525 572.758 249.419 572.37 249.159L572.367 249.162Z" fill="#EEC7BB"/>
<path d="M576.49 242.955C575.861 242.536 575.142 242.514 574.885 242.902L572.054 247.163L572.442 246.907C573.071 246.49 573.922 246.659 574.338 247.291C574.566 247.635 574.613 248.042 574.51 248.411L577.163 244.416C577.419 244.028 577.119 243.375 576.49 242.958V242.955Z" fill="#EEC7BB"/>
<path d="M573.509 249.481C573.709 249.453 573.875 249.366 573.975 249.218L574.044 249.115C574.012 249.14 573.987 249.165 573.953 249.19L573.509 249.484V249.481Z" fill="#EEC7BB"/>
<path d="M574.338 247.291C573.919 246.663 573.071 246.49 572.442 246.907L572.054 247.163L571.694 247.704C571.438 248.092 571.738 248.746 572.367 249.165C572.755 249.425 573.18 249.531 573.506 249.484L573.95 249.19C573.984 249.168 574.009 249.14 574.041 249.115L574.507 248.411C574.61 248.042 574.563 247.635 574.335 247.291H574.338Z" fill="#DFB1A5"/>
<path d="M574.494 241.987L574.585 240.453C574.621 239.847 575.144 239.383 575.75 239.419L577.283 239.51C577.889 239.546 578.353 240.069 578.317 240.675L578.226 242.208C578.19 242.814 577.667 243.278 577.061 243.242L575.528 243.151C574.922 243.115 574.458 242.593 574.494 241.987Z" fill="#E4BAB0"/>
<path d="M574.751 242.53C574.957 242.436 575.026 242.145 574.907 241.885L574.11 240.155C573.988 239.896 573.725 239.758 573.518 239.855C573.312 239.949 573.243 240.24 573.365 240.499L574.163 242.23C574.285 242.492 574.547 242.627 574.754 242.53H574.751Z" fill="#E4BAB0"/>
<path d="M578.355 239.655C578.167 239.53 577.886 239.623 577.726 239.864L576.678 241.454C576.518 241.695 576.547 241.992 576.734 242.114C576.922 242.239 577.207 242.145 577.363 241.904L578.411 240.315C578.568 240.074 578.543 239.777 578.355 239.655Z" fill="#EEC7BB"/>
<path opacity="0.4" d="M560.056 241.548C560.056 242.636 559.174 243.515 558.089 243.515C557 243.515 556.121 242.633 556.121 241.548C556.121 240.459 557.003 239.58 558.089 239.58C559.174 239.58 560.056 240.462 560.056 241.548Z" fill="#D68470"/>
<path d="M556.872 245.089C555.611 245.089 554.591 244.069 554.591 242.808C554.591 242.808 553.496 243.656 554.034 245.089" stroke="#D68470" stroke-width="1.13" stroke-miterlimit="10"/>
<path d="M552.135 240.252C552.135 239.786 552.511 239.411 552.977 239.411C553.443 239.411 553.818 239.786 553.818 240.252" stroke="#231F20" stroke-width="1.13" stroke-miterlimit="10"/>
<path d="M561.411 240.252C561.411 239.786 561.786 239.411 562.253 239.411C562.719 239.411 563.094 239.786 563.094 240.252" stroke="#231F20" stroke-width="1.13" stroke-miterlimit="10"/>
<path d="M574.159 242.23C574.159 242.23 575.602 236.464 573.302 225.62C571.003 214.777 571.6 200.145 571.6 200.145" stroke="#231F20" stroke-width="0.56" stroke-linecap="round" stroke-linejoin="round"/>
<path d="M575.52 243.149C575.52 243.149 574.135 238.766 578.311 229.112C582.713 218.938 580.654 215.85 580.654 215.85" stroke="#231F20" stroke-width="0.56" stroke-linecap="round" stroke-linejoin="round"/>
<path d="M558.93 222.836C554.788 223.212 550.74 226.102 548.062 229.234C545.9 231.762 545.506 235.084 544.786 238.234C548.916 237.036 551.206 233.673 553.183 229.941C555.824 234.934 561.07 238.338 567.111 238.338C569.558 238.338 571.876 237.781 573.941 236.786C574.704 236.417 570.499 229.528 570.03 228.921C568.247 226.603 565.954 224.547 563.213 223.443C561.808 222.877 560.363 222.708 558.93 222.836Z" fill="#EB633E" stroke="#EB633E" stroke-width="2.26" stroke-miterlimit="10"/>
<path d="M577.385 239.017C577.197 238.891 576.916 238.985 576.756 239.226L575.711 240.815C575.552 241.056 575.577 241.35 575.768 241.476C575.958 241.601 576.24 241.507 576.396 241.266L577.441 239.677C577.598 239.436 577.576 239.142 577.385 239.017Z" fill="#EEC7BB"/>
<path d="M576.418 238.381C576.228 238.256 575.949 238.35 575.79 238.591L574.745 240.18C574.585 240.421 574.613 240.718 574.801 240.844C574.992 240.969 575.273 240.875 575.43 240.634L576.478 239.045C576.634 238.804 576.609 238.51 576.421 238.385L576.418 238.381Z" fill="#EEC7BB"/>
<path d="M582.763 191.245C582.763 197.971 578.086 203.427 572.317 203.427C566.548 203.427 561.871 197.974 561.871 191.245C561.871 184.515 566.551 179.066 572.32 179.066C578.089 179.066 582.766 184.519 582.766 191.245H582.763Z" fill="#745297" stroke="#745297" stroke-width="0.41" stroke-miterlimit="10"/>
<path d="M571.532 203.07C571.532 203.07 569.764 204.738 570.649 205.339C571.535 205.939 571.6 204.944 571.6 204.944C571.6 204.944 572.129 206.071 572.714 205.21C573.299 204.35 571.532 203.07 571.532 203.07Z" fill="#745297" stroke="#745297" stroke-width="0.41" stroke-miterlimit="10"/>
<path d="M592.245 207.516C591.91 214.236 586.967 219.448 581.208 219.163C575.445 218.875 571.047 213.197 571.381 206.477C571.716 199.757 576.659 194.545 582.422 194.83C588.184 195.118 592.583 200.796 592.248 207.516H592.245Z" fill="#70C8C1"/>
<path d="M580.442 218.769C580.442 218.769 578.593 220.346 579.45 220.99C580.307 221.635 580.42 220.643 580.42 220.643C580.42 220.643 580.889 221.794 581.518 220.965C582.147 220.136 580.442 218.769 580.442 218.769Z" fill="#70C8C1"/>
</g>
<path d="M688.949 274.011C688.949 282.564 680.439 289.484 669.952 289.484C659.465 289.484 650.955 282.564 650.955 274.011V269.111C650.955 260.558 659.465 253.639 669.952 253.639C680.439 253.639 688.949 260.558 688.949 269.111V274.011Z" fill="url(#paint0_radial_252_3605)"/>
<path d="M661.614 262.836C661.614 262.836 668.964 260.859 679.365 262.836L680.354 266.274C680.354 266.274 670.511 265.2 660.712 266.274L661.614 262.836Z" fill="url(#paint1_linear_252_3605)"/>
<path d="M658.219 262.621L657.187 266.317C657.187 266.317 656.328 266.317 654.48 266.919C654.437 266.919 654.179 264.34 658.219 262.621Z" fill="url(#paint2_linear_252_3605)"/>
<path d="M695.911 241.088C695.911 252.907 686.327 262.492 674.507 262.492H664.235C652.416 262.492 642.831 252.907 642.831 241.088C642.831 229.268 652.416 219.684 664.235 219.684H674.507C686.327 219.727 695.911 229.311 695.911 241.088Z" fill="url(#paint3_radial_252_3605)"/>
<path d="M651.513 225.83L651.771 227.936C651.771 227.936 649.794 228.538 648.462 230.042C648.505 230.042 648.29 227.549 651.513 225.83Z" fill="url(#paint4_linear_252_3605)"/>
<path d="M658.219 223.165C658.219 223.165 660.325 221.747 663.548 222.048H674.68C674.68 222.048 678.118 222.478 678.892 223.767L658.219 223.165Z" fill="url(#paint5_linear_252_3605)"/>
<path d="M687.789 240.228C687.789 243.624 685.038 246.374 681.643 246.374H657.101C653.706 246.374 650.955 243.624 650.955 240.228C650.955 236.833 653.706 234.082 657.101 234.082H681.643C685.038 234.082 687.789 236.833 687.789 240.228Z" fill="url(#paint6_radial_252_3605)"/>
<path d="M663.634 240.401C663.634 241.733 662.56 242.765 661.27 242.765C659.938 242.765 658.906 241.69 658.906 240.401C658.906 239.069 659.981 238.037 661.27 238.037C662.56 238.037 663.634 239.112 663.634 240.401Z" fill="#27A3FF"/>
<path d="M679.107 240.401C679.107 241.733 678.032 242.765 676.743 242.765C675.41 242.765 674.379 241.69 674.379 240.401C674.379 239.069 675.453 238.037 676.743 238.037C678.032 238.037 679.107 239.112 679.107 240.401Z" fill="#27A3FF"/>
<path d="M669.951 214.139H668.877V219.683H669.951V214.139Z" fill="url(#paint7_linear_252_3605)"/>
<path d="M671.284 212.635C671.284 213.71 670.425 214.526 669.393 214.526C668.319 214.526 667.502 213.667 667.502 212.635C667.502 211.561 668.362 210.744 669.393 210.744C670.468 210.744 671.284 211.561 671.284 212.635Z" fill="#27A3FF"/>
<path d="M695.438 232.406H696.986C696.986 232.406 698.963 235.329 698.705 241.518C698.705 241.518 698.791 247.062 697.072 249.813H695.481L695.438 232.406Z" fill="url(#paint8_linear_252_3605)"/>
<path d="M694.064 232.406H695.611C695.611 232.406 697.588 235.329 697.33 241.518C697.33 241.518 697.416 247.062 695.697 249.813H694.107L694.064 232.406Z" fill="url(#paint9_linear_252_3605)"/>
<path d="M643.519 232.406H641.972C641.972 232.406 639.995 235.329 640.253 241.518C640.253 241.518 640.167 247.062 641.886 249.813H643.476L643.519 232.406Z" fill="url(#paint10_linear_252_3605)"/>
<path d="M644.851 232.406H643.304C643.304 232.406 641.327 235.329 641.585 241.518C641.585 241.518 641.499 247.062 643.218 249.813H644.808L644.851 232.406Z" fill="url(#paint11_linear_252_3605)"/>
<path d="M653.104 261.46C651.514 259.999 646.571 262.793 642.015 267.692C637.459 272.592 635.052 277.75 636.643 279.211C638.233 280.672 643.175 277.879 647.731 272.979C652.244 268.079 654.651 262.922 653.104 261.46Z" fill="url(#paint12_linear_252_3605)"/>
<path d="M707.559 250.758C706.356 248.996 700.897 250.586 695.353 254.369C689.809 258.108 686.327 262.621 687.531 264.383C688.734 266.145 694.193 264.555 699.737 260.773C705.238 257.033 708.763 252.521 707.559 250.758Z" fill="url(#paint13_linear_252_3605)"/>
<path d="M708.805 253.38C708.547 253.38 708.247 253.337 707.989 253.294C706.914 253.079 706.055 252.478 705.496 251.575C704.98 250.673 704.851 249.598 705.152 248.567C705.453 247.578 706.141 246.718 707.043 246.16C707.946 245.601 708.977 245.429 710.009 245.601L709.579 247.879C709.149 247.793 708.633 247.879 708.247 248.137C707.817 248.395 707.516 248.781 707.387 249.211C707.258 249.598 707.301 250.028 707.516 250.372C707.731 250.716 708.075 250.93 708.461 251.016C708.934 251.102 709.407 251.016 709.837 250.759C710.396 250.415 710.739 249.856 710.782 249.254L713.103 249.34C713.06 250.716 712.287 252.005 711.04 252.736C710.31 253.165 709.536 253.38 708.805 253.38Z" fill="url(#paint14_linear_252_3605)"/>
<path d="M388.627 233.638C381.824 237.667 372.18 235.482 367.657 228.882C365.963 226.416 364.95 223.263 365.721 220.353C366.491 217.442 369.441 215.074 372.307 215.728C371.014 213.295 370.384 210.259 371.53 207.748C372.677 205.236 376.072 203.797 378.257 205.425C377.811 203.077 378.856 200.5 380.792 199.165C382.729 197.831 385.442 197.811 387.398 199.12C388.111 199.597 388.761 200.251 389.589 200.454C390.328 200.631 391.099 200.421 391.857 200.349C395.876 199.977 399.545 204.457 398.501 208.461C400.966 206.479 404.922 208.5 405.979 211.522C407.037 214.55 406.037 217.913 404.737 220.837C407.954 221.085 410.521 224.362 410.457 227.679C410.394 230.995 408.005 234.004 404.985 235.175C401.966 236.346 398.475 235.823 395.647 234.227C394.704 233.697 393.685 233.029 392.647 233.298C392.003 233.461 391.5 233.958 390.927 234.312C389.506 235.195 387.57 235.096 386.239 234.083" fill="#B3C77D"/>
<path d="M384.761 266.926C386.748 266.919 388.742 266.913 390.729 266.906C390.449 259.325 390.175 251.75 389.895 244.169C389.812 241.866 389.729 239.512 390.405 237.314C391.666 233.193 395.297 230.393 398.711 227.875C396.743 228.947 394.774 230.014 392.812 231.086C392.099 231.479 390.863 232.65 390.073 232.486C388.595 232.179 388.595 229.484 388.462 227.94C388.143 224.257 387.831 220.575 387.513 216.898C387.105 221.654 386.334 226.377 385.219 231.008C385.098 231.512 384.894 232.1 384.404 232.238C383.984 232.349 383.57 232.068 383.226 231.799C380.283 229.51 377.346 227.221 374.403 224.931C376.926 229.288 380.302 233.121 384.27 236.13C384.27 236.13 385.105 256.493 384.761 266.939V266.926Z" fill="#BF8348"/>
<path d="M351.995 248.849C346.086 248.126 342.076 243.559 341.424 239.054C340.773 234.55 342.71 230.085 344.617 225.787C346.497 221.552 347.967 220.052 349.559 217.717C350.779 215.934 353.386 216.132 354.383 218.058C356.215 221.611 358.253 223.789 359.802 229.219C360.751 232.551 361.708 235.969 361.109 239.346C360.379 243.478 357.221 247.331 352.655 249.662" fill="#B3C77D"/>
<path d="M350.289 248.867C350.149 246.572 349.161 244.344 347.565 242.732C348.378 243.603 349.187 244.479 350.001 245.35C350.206 245.57 350.46 245.808 350.753 245.763C351.164 245.7 351.295 245.171 351.335 244.748C351.483 243.114 351.632 241.483 351.785 239.849C351.615 241.191 351.483 242.687 352.279 243.765C353.075 244.843 355.153 244.793 355.38 243.464C353.071 250.353 352.778 257.939 354.545 264.994C353.053 264.841 351.558 264.684 350.066 264.527C351.352 258.518 351.3 252.217 349.922 246.23" fill="#BF8348"/>
<path d="M624.16 197.439C617.37 196.608 612.761 191.359 612.013 186.182C611.264 181.006 613.49 175.876 615.682 170.936C617.843 166.07 619.531 164.346 621.361 161.662C622.763 159.613 625.759 159.84 626.905 162.054C629.011 166.137 631.353 168.64 633.132 174.88C634.222 178.709 635.323 182.637 634.635 186.518C633.795 191.266 630.166 195.694 624.919 198.373" fill="#B7D16F"/>
<path d="M622.2 197.459C622.04 194.821 620.904 192.261 619.069 190.409C620.004 191.41 620.934 192.416 621.869 193.418C622.105 193.67 622.396 193.944 622.733 193.892C623.206 193.82 623.356 193.211 623.402 192.726C623.573 190.847 623.743 188.974 623.919 187.095C623.723 188.638 623.573 190.357 624.487 191.596C625.402 192.834 627.789 192.778 628.051 191.25C625.397 199.167 625.06 207.884 627.091 215.992C625.377 215.817 623.658 215.636 621.944 215.456C623.422 208.55 623.361 201.309 621.778 194.429" fill="#BF8348"/>
<path d="M456.904 207.991C452.369 210.677 445.939 209.22 442.924 204.82C441.795 203.176 441.119 201.074 441.633 199.134C442.147 197.193 444.113 195.615 446.024 196.051C445.162 194.428 444.742 192.405 445.506 190.73C446.271 189.056 448.534 188.097 449.991 189.182C449.694 187.617 450.39 185.899 451.681 185.009C452.972 184.119 454.781 184.106 456.085 184.979C456.56 185.297 456.994 185.733 457.546 185.868C458.038 185.986 458.552 185.846 459.057 185.798C461.737 185.55 464.183 188.537 463.487 191.206C465.13 189.884 467.767 191.232 468.472 193.247C469.177 195.266 468.511 197.507 467.644 199.456C469.789 199.622 471.5 201.807 471.458 204.018C471.415 206.229 469.823 208.235 467.81 209.015C465.797 209.796 463.47 209.447 461.584 208.383C460.956 208.03 460.276 207.585 459.584 207.764C459.155 207.873 458.82 208.204 458.437 208.44C457.49 209.029 456.199 208.963 455.312 208.287" fill="#CAE387"/>
<path d="M454.327 230.183C455.652 230.179 456.981 230.174 458.306 230.17C458.119 225.116 457.936 220.066 457.75 215.012C457.694 213.477 457.639 211.907 458.089 210.441C458.93 207.694 461.351 205.828 463.627 204.149C462.315 204.864 461.002 205.575 459.695 206.29C459.219 206.552 458.395 207.332 457.868 207.223C456.883 207.018 456.883 205.221 456.794 204.192C456.582 201.737 456.374 199.282 456.161 196.831C455.89 200.002 455.376 203.15 454.632 206.238C454.552 206.573 454.416 206.966 454.089 207.057C453.809 207.132 453.533 206.944 453.303 206.765C451.341 205.239 449.384 203.713 447.422 202.186C449.103 205.091 451.354 207.646 454 209.652C454 209.652 454.556 223.227 454.327 230.192V230.183Z" fill="#BF8348"/>
<defs>
<radialGradient id="paint0_radial_252_3605" cx="0" cy="0" r="1" gradientUnits="userSpaceOnUse" gradientTransform="translate(669.934 271.546) scale(20.5552 16.7463)">
<stop stop-color="#F1F1F5"/>
<stop offset="0.551" stop-color="#E4E2EC"/>
<stop offset="1" stop-color="#CFCFDE"/>
</radialGradient>
<linearGradient id="paint1_linear_252_3605" x1="660.744" y1="264.144" x2="680.394" y2="264.144" gradientUnits="userSpaceOnUse">
<stop stop-color="white"/>
<stop offset="1"/>
</linearGradient>
<linearGradient id="paint2_linear_252_3605" x1="654.434" y1="264.764" x2="659.635" y2="264.764" gradientUnits="userSpaceOnUse">
<stop stop-color="white"/>
<stop offset="1"/>
</linearGradient>
<radialGradient id="paint3_radial_252_3605" cx="0" cy="0" r="1" gradientUnits="userSpaceOnUse" gradientTransform="translate(669.396 241.104) scale(24.0908 24.0908)">
<stop stop-color="#F1F1F5"/>
<stop offset="0.551" stop-color="#E4E2EC"/>
<stop offset="1" stop-color="#CFCFDE"/>
</radialGradient>
<linearGradient id="paint4_linear_252_3605" x1="648.506" y1="227.947" x2="653.053" y2="227.947" gradientUnits="userSpaceOnUse">
<stop stop-color="white"/>
<stop offset="1"/>
</linearGradient>
<linearGradient id="paint5_linear_252_3605" x1="658.211" y1="222.897" x2="686.681" y2="222.897" gradientUnits="userSpaceOnUse">
<stop stop-color="white"/>
<stop offset="1"/>
</linearGradient>
<radialGradient id="paint6_radial_252_3605" cx="0" cy="0" r="1" gradientUnits="userSpaceOnUse" gradientTransform="translate(669.397 240.229) scale(13.7092 12.7386)">
<stop stop-color="#3E3C44"/>
<stop offset="0.551" stop-color="#242327"/>
<stop offset="1" stop-color="#040100"/>
</radialGradient>
<linearGradient id="paint7_linear_252_3605" x1="668.858" y1="216.937" x2="669.933" y2="216.937" gradientUnits="userSpaceOnUse">
<stop stop-color="#F1F1F5"/>
<stop offset="0.551" stop-color="#E4E2EC"/>
<stop offset="1" stop-color="#CFCFDE"/>
</linearGradient>
<linearGradient id="paint8_linear_252_3605" x1="697.073" y1="232.765" x2="697.073" y2="249.156" gradientUnits="userSpaceOnUse">
<stop stop-color="#F1F1F5"/>
<stop offset="0.5153" stop-color="#D5CFD9"/>
<stop offset="1" stop-color="#BBBBCA"/>
</linearGradient>
<linearGradient id="paint9_linear_252_3605" x1="695.723" y1="232.48" x2="695.723" y2="250.249" gradientUnits="userSpaceOnUse">
<stop stop-color="#9DA1AF"/>
<stop offset="0.1378" stop-color="#ACB1C5"/>
<stop offset="0.2347" stop-color="#D7DBE7"/>
<stop offset="0.4133" stop-color="#9399B0"/>
<stop offset="0.6318" stop-color="#686D84"/>
<stop offset="1" stop-color="#41434F"/>
</linearGradient>
<linearGradient id="paint10_linear_252_3605" x1="641.859" y1="232.765" x2="641.859" y2="249.156" gradientUnits="userSpaceOnUse">
<stop stop-color="#F1F1F5"/>
<stop offset="0.5153" stop-color="#D5CFD9"/>
<stop offset="1" stop-color="#BBBBCA"/>
</linearGradient>
<linearGradient id="paint11_linear_252_3605" x1="643.209" y1="232.481" x2="643.209" y2="250.249" gradientUnits="userSpaceOnUse">
<stop stop-color="#9DA1AF"/>
<stop offset="0.1378" stop-color="#ACB1C5"/>
<stop offset="0.2347" stop-color="#D7DBE7"/>
<stop offset="0.4133" stop-color="#9399B0"/>
<stop offset="0.6318" stop-color="#686D84"/>
<stop offset="1" stop-color="#41434F"/>
</linearGradient>
<linearGradient id="paint12_linear_252_3605" x1="642.175" y1="268.103" x2="647.698" y2="272.702" gradientUnits="userSpaceOnUse">
<stop stop-color="#F1F1F5"/>
<stop offset="0.551" stop-color="#E4E2EC"/>
<stop offset="1" stop-color="#CFCFDE"/>
</linearGradient>
<linearGradient id="paint13_linear_252_3605" x1="695.431" y1="254.797" x2="699.787" y2="260.513" gradientUnits="userSpaceOnUse">
<stop stop-color="#F1F1F5"/>
<stop offset="0.551" stop-color="#E4E2EC"/>
<stop offset="1" stop-color="#CFCFDE"/>
</linearGradient>
<linearGradient id="paint14_linear_252_3605" x1="709.058" y1="249.361" x2="710.86" y2="243.128" gradientUnits="userSpaceOnUse">
<stop stop-color="#9DA1AF"/>
<stop offset="0.2347" stop-color="#CFD1E3"/>
<stop offset="0.6318" stop-color="#686D84"/>
<stop offset="1" stop-color="#41434F"/>
</linearGradient>
<clipPath id="clip0_252_3605">
<rect width="390" height="299" fill="white" transform="translate(582)"/>
</clipPath>
<clipPath id="clip1_252_3605">
<rect width="200" height="115.982" fill="white" transform="translate(481 179)"/>
</clipPath>
</defs>
</svg>
