<svg width="60" height="56" viewBox="0 0 60 56" fill="none" xmlns="http://www.w3.org/2000/svg">
<path d="M54.784 17.4648C54.7239 15.6423 54.7765 13.7591 54.443 11.962C53.9562 9.33276 52.5059 6.98326 50.3 5.44897C47.2864 3.34598 42.7838 2.77231 39.2378 2.47565C35.3797 2.15447 32.0203 2.74615 32.0203 2.74615C32.0203 2.74615 27.4547 4.89372 27.8525 4.97065C29.8294 5.35031 31.7455 5.20737 33.6114 6.16291C35.7507 7.25698 37.3749 9.0905 38.7041 11.0564C40.9818 14.4123 42.697 18.1715 44.7446 21.6669C45.912 23.6619 47.4915 27.7353 50.3809 27.6925C52.5683 27.6589 54.5216 25.4172 54.9112 23.4162C55.2572 21.6232 54.8383 19.2877 54.784 17.4648Z" fill="#0F1F38"/>
<path d="M54.941 29.0758C54.9007 29.7403 54.94 31.5175 54.9584 32.1836C55.0512 35.5261 55.0057 37.5084 53.9768 39.0867C52.4413 41.4391 50.6542 41.5845 47.3493 42.0376C42.8497 42.6523 41.1439 44.1796 40.931 44.9677C40.5878 46.2277 38.5 50 38.5 50L21.1418 53.7375C21.1418 53.7375 23.3368 33.5971 23.2476 25.2308C23.1642 16.864 34.3344 4.98109 34.3344 4.98109C34.3344 4.98109 43.7399 5.58455 47.0061 8.1086C50.2781 10.6322 52.0106 16.5156 52.3224 18.0097C52.6343 19.5039 52.8101 21.2244 53.8388 22.6731C54.8622 24.1281 57.078 25.2284 57.3514 25.7768C57.788 26.6413 54.9692 28.5703 54.9406 29.07L54.941 29.0758Z" fill="#FFD5D9"/>
<path d="M50.3609 21.5227C50.2826 21.4112 50.1923 21.2947 50.0662 21.251C49.2598 20.9457 49.0015 21.9185 49.1102 22.8651C49.1415 23.1381 49.2834 23.4031 49.4952 23.5812C49.707 23.7592 50.022 23.8245 50.2708 23.7013C50.525 23.5719 50.6444 23.2765 50.6885 22.9923C50.7554 22.5366 50.6688 22.0627 50.447 21.6629C50.4204 21.6179 50.3937 21.573 50.3613 21.5285L50.3609 21.5227Z" fill="#130806"/>
<path d="M54.9896 33.6803C54.3597 33.6317 53.5961 33.5165 52.8001 33.2749C50.8902 32.6855 50.3749 31.2937 50.6902 31.037C51.0052 30.7744 51.6706 31.3181 52.8477 31.4037C53.6604 31.4685 54.3328 31.4555 54.9378 31.4006L54.99 33.6861L54.9896 33.6803Z" fill="#D8424D"/>
<path d="M50.4902 17.2801C49.6883 16.875 48.5005 17.5396 47.8368 17.9208C47.3979 18.1689 46.9785 18.4448 46.5787 18.7486C46.3956 18.8905 46.2071 19.0387 46.099 19.2455C45.9966 19.4519 45.9992 19.7327 46.1627 19.8908C46.3958 20.1201 46.7856 20.0043 47.0806 19.872C48.1653 19.4021 49.2563 18.9376 50.341 18.4677C50.5623 18.3699 50.8115 18.2525 50.8889 18.0245C50.9617 17.8144 50.868 17.5693 50.6995 17.4233C50.6308 17.3638 50.5572 17.3163 50.4839 17.2747L50.4902 17.2801Z" fill="#0F1F38"/>
<path d="M38.3331 38.8535C35.4321 39.061 32.8982 36.871 32.6903 33.9642C32.4823 31.0574 34.6785 28.529 37.5795 28.3214C40.4805 28.1138 43.0148 30.3097 43.2223 33.2107C43.4299 36.1116 41.234 38.6459 38.3331 38.8535ZM37.6212 28.9039C35.0406 29.0886 33.0881 31.3419 33.2728 33.9225C33.4574 36.5031 35.7108 38.4556 38.2914 38.2709C40.872 38.0863 42.8244 35.8329 42.6398 33.2523C42.4552 30.6718 40.2018 28.7193 37.6212 28.9039Z" fill="white"/>
<path d="M25.7068 4.69667C25.7068 4.69667 12.7955 9.02225 12.6213 23.69C12.5039 33.5056 3.94553 49.7334 4.12042 50.7865C4.25366 51.585 5.98219 52.1757 6.58597 52.4311C8.28954 53.164 10.1117 53.6719 11.9417 53.9625C14.0322 54.293 16.0286 54.0448 18.1232 54.0237C20.7329 54.001 23.3468 54.1184 25.9603 54.0661C28.4448 54.0113 30.9471 53.7971 33.3488 53.1569C35.5606 52.5653 37.7766 51.5402 40.0763 51.3581C42.9815 51.1268 36.4344 27.9525 36.4344 27.9525L25.7077 4.70831L25.7068 4.69667Z" fill="#0F1F38"/>
<path d="M36.2513 26.941C36.0169 25.7926 36.1665 24.6109 36.5089 23.5032C37.1777 21.3124 38.3542 19.4249 39.9784 17.8215C41.586 16.231 42.8615 14.3363 44.2261 12.5407C46.2276 9.90912 47.8753 6.58849 44.3957 4.51884C42.0596 3.12854 39.0458 2.98702 36.4048 2.73684C27.4254 1.8687 19.3534 7.05418 15.9683 15.3881C13.898 20.4955 13.3169 25.549 14.9841 31.9933C16.166 36.5635 18.631 41.2293 22.905 43.7632C25.785 45.4717 29.4505 46.4566 32.6732 47.1452C34.011 47.4301 35.2289 47.7587 36.3641 48.1576C36.9321 48.4038 38.034 48.9105 38.6119 49.1326C40.5752 50.0578 36.4886 28.1302 36.2455 26.9414L36.2513 26.941Z" fill="#0F1F38"/>
</svg>
