<svg width="1920" height="470" viewBox="0 0 1920 470" fill="none" xmlns="http://www.w3.org/2000/svg">
<path opacity="0.7" d="M621.178 129.823C621.313 130.816 623.074 130.59 622.954 129.582C622.803 128.378 622.547 127.234 622.231 126.136C625.03 123.427 628.341 121.26 632.314 121.049C638.679 120.718 643.781 126.301 642.381 132.291C641.99 132.456 641.584 132.607 641.192 132.757C640.545 133.013 640.801 134.051 641.493 133.826C641.644 133.781 641.809 133.735 641.96 133.675C641.674 134.488 642.908 134.894 643.344 134.232C643.6 133.841 643.796 133.449 643.976 133.043C648.687 131.553 653.608 130.109 658.558 130.515C665.962 131.117 674.555 137.362 671.199 145.744C667.783 154.292 652.118 158.761 643.314 156.474C643.269 155.33 642.998 154.141 642.411 152.892C642.035 152.095 640.756 152.651 640.997 153.494C641.238 154.337 641.373 155.119 641.433 155.842C641.433 155.842 641.388 155.827 641.358 155.827C640.214 155.315 639.221 157.015 640.365 157.527C640.696 157.663 641.027 157.798 641.373 157.918C640.169 165.352 628.461 165.984 622.141 165.081C617.085 164.359 612.51 162.629 608.176 160.161C608.281 158.505 608.056 156.775 607.408 154.984C607.032 153.931 605.452 154.337 605.723 155.45C605.994 156.639 606.099 157.783 606.069 158.881C605.633 158.611 605.211 158.355 604.79 158.069C604.384 157.798 603.872 158.445 604.263 158.746C604.82 159.198 605.392 159.619 605.979 160.04C604.64 170.318 590.735 177.481 581.736 179.829C571.051 182.628 557.327 178.144 556.304 165.939C556.304 165.834 556.273 165.729 556.273 165.623C556.906 165.262 557.538 164.901 558.155 164.495C559.012 163.938 558.26 162.659 557.342 163.125C552.15 165.744 547.169 167.685 541.3 168.046C535.928 168.362 523.302 167.76 526.191 159.017C529.322 149.566 538.757 146.436 545.559 140.522C545.74 140.372 545.649 140.101 545.454 140.011V139.965C546.281 140.357 547.259 140.567 548.373 140.537C548.99 140.522 549.14 139.604 548.524 139.439C544.475 138.415 542.384 134.127 544.415 130.289C545.8 127.686 548.704 126.121 551.398 125.293C556.875 123.623 562.504 124.691 567.635 126.888C568.282 127.159 568.854 126.301 568.207 125.925C567.981 125.79 567.74 125.669 567.515 125.549C575.445 118.19 585.001 113.059 596.002 112.427C606.37 111.84 616.964 116.249 620.29 126.151C619.176 127.46 618.183 128.845 617.401 130.229C617.13 130.681 617.807 131.237 618.138 130.801C618.951 129.763 619.824 128.694 620.757 127.671C620.922 128.363 621.073 129.07 621.178 129.823Z" fill="#CAEBEA"/>
<path d="M1600.06 211.125C1600.45 209.593 1598.27 209.032 1597.73 210.478C1597.58 210.888 1597.4 211.255 1597.25 211.622C1597.08 211.255 1596.86 210.91 1596.73 210.5C1596.48 209.658 1595.25 210.003 1595.44 210.845C1595.66 211.816 1596 212.679 1596.43 213.499C1590.43 226.036 1578.26 232.294 1564.15 232.078C1558.06 231.971 1551.89 230.438 1546.15 228.453C1537.05 225.303 1522.16 216.585 1530.34 204.867C1530.62 204.479 1530.34 204.026 1529.97 203.832C1530.08 203.724 1530.16 203.616 1530.25 203.508C1531.22 202.256 1529.56 200.487 1528.48 201.739C1519.72 211.794 1507.79 219.045 1494.1 219.304C1491.47 219.368 1488.04 219.52 1485.6 218.57C1471.77 213.154 1477.55 203.4 1482.75 197.423C1488.13 191.23 1496.22 188.511 1503.88 186.569C1503.97 186.547 1504.03 186.482 1504.07 186.418C1504.46 186.418 1504.85 186.439 1505.24 186.439C1506.28 186.418 1506.58 184.734 1505.5 184.562C1501.1 183.806 1496.63 183.526 1492.57 181.627C1489.55 180.224 1485.08 177.29 1484.89 173.427C1484.67 169.241 1488.56 164.385 1492.25 162.983C1501.42 159.509 1511.32 160.933 1520.06 164.817C1520.06 165.162 1520 165.486 1520 165.831C1520 166.953 1521.57 166.889 1521.7 165.831C1521.7 165.767 1521.7 165.702 1521.75 165.615C1522.18 165.831 1522.61 166.047 1523.02 166.263C1523.93 166.738 1524.68 165.443 1523.82 164.882C1523.3 164.537 1522.72 164.191 1522.11 163.868C1525.22 151.158 1541.38 148.525 1547.75 159.379C1547.81 160.005 1547.9 160.609 1548.01 161.235C1548.1 161.688 1548.53 161.882 1548.94 161.839C1549.07 162.206 1549.24 162.53 1549.37 162.918C1549.82 164.364 1552.09 163.76 1551.68 162.271C1551.18 160.48 1550.45 158.904 1549.56 157.523C1550.27 139.419 1573.23 128.219 1589.44 128.003C1606.19 127.766 1621.42 139.721 1621.87 156.38C1620.64 157.696 1619.76 159.271 1619.54 161.257C1619.44 162.249 1621.03 162.443 1621.27 161.494C1621.38 161.062 1621.53 160.652 1621.72 160.264C1621.72 160.48 1621.72 160.652 1621.68 160.868C1621.46 162.659 1624.29 162.659 1624.53 160.868C1624.7 159.509 1624.79 158.171 1624.79 156.876C1627.87 154.632 1632.21 153.251 1634.95 152.539C1639.57 151.373 1644.51 150.942 1649.11 152.474C1657.76 155.322 1662.96 166.845 1656.49 174.204C1655.36 175.499 1657.2 177.354 1658.38 176.103L1658.45 176.038L1658.51 176.103C1657.82 176.923 1658.92 178.088 1659.68 177.29C1668.05 168.55 1680.22 162.033 1692.65 165.357C1702.43 167.946 1710.71 177.311 1710.63 187.691C1710.5 208.191 1677.78 220.491 1662.2 210.284C1662.27 210.176 1662.33 210.068 1662.38 209.938C1663.2 208.277 1660.69 206.81 1659.9 208.493C1651.52 225.842 1630.57 226.144 1620.17 212.744C1621.64 210.845 1622.84 208.709 1623.75 206.594C1624.4 205.105 1622.2 203.789 1621.55 205.299C1620.75 207.133 1619.8 208.946 1618.66 210.607C1617.73 209.14 1616.93 207.543 1616.26 205.817C1615.92 204.911 1614.54 205.234 1614.8 206.205C1615.38 208.493 1616.2 210.586 1617.21 212.442C1615.59 214.319 1613.65 215.873 1611.26 216.757C1606.98 218.376 1602.09 217.47 1599.06 214.384C1599.45 213.326 1599.8 212.269 1600.06 211.125Z" fill="#D9F7F6"/>
<path d="M1287.02 84.1494C1287.71 84.3312 1288.37 84.4872 1288.95 84.5781C1289.86 84.721 1290.28 83.4088 1289.34 83.1619C1286.91 82.5513 1284.35 82.1095 1282.15 80.8363C1280.69 79.9917 1277.69 77.0814 1278.21 74.8467C1278.75 72.4561 1282.47 69.9615 1284.69 69.3639C1290.81 67.7008 1296.8 68.4024 1302.78 70.2084C1303.28 70.3643 1303.65 69.5587 1303.14 69.3379C1302.99 69.2729 1302.82 69.2079 1302.65 69.143C1301.73 55.7217 1316.13 48.1081 1327.92 48.0821C1339.51 48.0561 1349.76 55.0331 1352.47 66.2067C1352.24 66.3756 1351.99 66.5315 1351.77 66.7004C1351.17 67.1551 1351.73 68.1685 1352.37 67.7268L1352.72 67.4929C1352.79 67.8567 1352.88 68.2205 1352.93 68.5843C1353.06 69.4938 1354.66 69.2859 1354.54 68.3764C1354.45 67.7528 1354.32 67.1551 1354.2 66.5575C1359.8 63.2964 1366.55 62.205 1372.78 64.5566C1374.38 65.1543 1375.52 65.7389 1376.85 66.8303C1378.11 67.6618 1379.08 68.7662 1379.78 70.1304L1379.55 76.8735C1376.78 81.8497 1369.65 81.8757 1364.78 82.0316C1363.75 82.0576 1363.74 83.6426 1364.78 83.6426C1365.32 83.6426 1365.86 83.6426 1366.42 83.6297C1373.02 84.708 1378.93 89.2034 1378.29 96.7781C1377.68 104.041 1370.73 107.198 1364.45 108.562C1353.6 110.94 1342.51 109.017 1332.83 103.716C1332.1 103.326 1331.44 103.95 1331.41 104.574C1331.3 104.626 1331.18 104.691 1331.08 104.807C1327.52 109.082 1322.59 112.72 1316.72 112.395C1310.17 112.031 1305.17 106.12 1306.27 99.6884C1306.58 99.2337 1306.88 98.7789 1307.16 98.3242C1307.7 97.4017 1306.27 96.5702 1305.71 97.4927C1300.26 106.626 1290.11 112.733 1279.27 111.979C1267.24 111.161 1267.75 100.13 1274.69 93.5949C1278.42 90.0869 1282.99 87.3195 1287.02 84.1494Z" fill="#D9F7F6"/>
<path opacity="0.8" d="M258.529 241.225C258.943 240.968 258.886 240.168 258.329 239.968C251.214 237.482 253.143 229.325 258.7 226.453C263.286 224.067 268.743 225.01 273.6 226.282C273.558 226.439 273.515 226.582 273.472 226.725C273.315 227.525 274.4 227.81 274.686 227.053C274.729 226.91 274.815 226.782 274.872 226.625C275.043 226.682 275.215 226.725 275.386 226.767C275.915 226.925 276.129 226.11 275.615 225.953C275.486 225.91 275.358 225.867 275.229 225.839C278.986 218.096 289.172 217.067 293.629 224.039C293.401 224.496 293.186 224.967 293.001 225.439C292.729 226.153 293.901 226.653 294.244 225.967L294.458 225.582C294.658 226.025 294.844 226.467 295.001 226.967C295.315 227.939 296.829 227.539 296.544 226.539C296.272 225.582 295.872 224.725 295.415 223.91C304.315 210.081 324.772 216.024 325.115 232.61C324.93 232.753 324.73 232.882 324.558 233.025C324.115 233.382 324.615 234.068 325.101 233.896C325.087 234.096 325.101 234.282 325.087 234.482C325.015 235.382 326.53 235.596 326.672 234.696C326.772 234.11 326.844 233.51 326.872 232.925C332.258 230.025 338.13 228.596 344.301 229.882C353.616 231.81 361.701 240.096 354.987 249.439C348.044 259.111 326.715 261.239 318.23 252.682C317.358 251.796 316.001 253.168 316.872 254.053C317.23 254.411 317.615 254.768 318.03 255.096C313.929 265.025 305.301 270.825 294.229 270.125C284.715 269.525 270.529 264.796 268.672 254.068C269.4 253.539 270.1 252.996 270.786 252.411C271.515 251.796 270.543 250.496 269.758 251.082C269.343 251.396 268.9 251.696 268.443 252.011C268.358 251.439 267.529 251.496 267.457 252.096L267.415 252.696C260.186 257.439 249.957 261.539 241.643 258.639C232.814 255.568 239.986 248.896 244.729 245.911C249.257 243.068 253.957 242.325 259.186 242.068C259.586 242.053 259.714 241.425 259.286 241.339C259.029 241.282 258.772 241.268 258.529 241.225Z" fill="#CAEBEA"/>
</svg>
