<svg width="110" height="100" viewBox="0 0 110 100" fill="none" xmlns="http://www.w3.org/2000/svg">
<g clip-path="url(#clip0_364_7116)">
<path d="M109.286 6.64065C109.257 3.35482 106.559 0.657725 103.271 0.629855L29.6116 0C26.2652 0 23.543 2.72426 23.543 6.07769L23.5744 26.9082C22.0157 26.6832 21.0417 26.5779 20.9783 26.5717L18.8435 26.3445L11.0323 45.2848L0.296875 64.6737L15.1333 69.1002L11.4733 73.8937C7.29984 79.3597 15.4963 85.9321 19.8726 80.4564L26.2903 72.4292L28.5993 73.1183C29.9774 74.4435 31.8099 75.1381 33.9558 75.1381C34.7947 75.1381 35.5702 75.0273 36.1993 74.8943L32.1582 79.6774L32.2223 80.1923L22.578 87.8314L22.1196 100.001L69.5085 99.4726L93.0417 73.9404L91.8245 62.2031L84.7755 62.0805L85.0647 57.0897L103.422 57.1329C103.493 57.135 103.565 57.1364 103.636 57.1364C107.004 57.1364 109.73 54.3954 109.703 51.012C109.702 50.8295 109.735 54.4003 109.286 6.64065H109.286Z" fill="white"/>
<path d="M99.1447 60.1136L99.9998 68.3551L77.3061 92.9759L32.4331 93.4759L32.7404 85.32L65.3055 59.5259L99.1447 60.1136Z" fill="#7FD4E7"/>
<path d="M91.6534 54.7435L91.1048 64.1959L74.9219 81.7014L43.633 82.1768L42.8975 76.2813L61.885 53.8064L91.6534 54.7435Z" fill="#8574EE"/>
<path d="M77.3061 92.9758L76.3763 85.5787L32.7404 85.3199L32.4331 93.4759L77.3061 92.9758Z" fill="#7FD4E7"/>
<path d="M99.1449 60.1136L76.3765 85.5787L77.3063 92.9759L100 68.3551L99.1449 60.1136Z" fill="#68AFBF"/>
<path d="M91.6537 54.7434L74.2598 75.2652L74.9222 81.7014L91.1051 64.1959L91.6537 54.7434Z" fill="#8574EE"/>
<path d="M42.8975 76.2813L74.2595 75.2653L74.9219 81.7015L43.633 82.1769L42.8975 76.2813Z" fill="#0038A6"/>
<path d="M54.5178 37.8319L90.2732 39.5067L73.1177 72.2211L43.4623 69.2186C43.4623 69.2186 39.0271 70.9724 36.6724 67.9888L10 60.0307L27.6758 28.1055L54.5178 37.8319Z" fill="#E7CF7F"/>
<path d="M54.3213 35.0344C54.3213 35.0344 63.6107 28.7809 86.2994 35.3337L88.4648 41.1873L71.8717 70.4694C71.8717 70.4694 47.4756 65.3652 40.6633 66.8929C40.6633 66.8929 19.8465 58.6863 12.7842 59.1283L26.7929 25.1624C26.7929 25.1624 49.8933 27.6199 54.3227 35.0352L54.3213 35.0344Z" fill="#E8F1FF"/>
<path d="M80.7757 40.0611C76.5977 39.1284 72.2769 38.1631 67.9475 37.8797C63.1325 37.5645 58.89 38.1602 55.336 39.6509C55.0461 39.7727 54.7127 39.6364 54.591 39.3465C54.4692 39.0567 54.6055 38.7233 54.8953 38.6015C58.6139 37.0419 63.0303 36.4165 68.0214 36.7441C72.4385 37.0332 76.8028 38.008 81.0228 38.9508C81.3294 39.019 81.5228 39.3234 81.454 39.6299C81.3852 39.9379 81.08 40.1292 80.7749 40.0611H80.7757Z" fill="#76A0EE"/>
<path d="M77.4653 46.0421C69.0021 44.7152 59.4083 43.2107 50.4914 45.2218C50.1841 45.2906 49.8804 45.0986 49.8109 44.792C49.742 44.4855 49.9341 44.1811 50.2406 44.1115C59.3699 42.0533 69.0767 43.5752 77.6414 44.9181C77.9516 44.9667 78.1639 45.258 78.1154 45.5682C78.0675 45.8747 77.7798 46.0914 77.4653 46.0421Z" fill="#76A0EE"/>
<path d="M72.3384 53.0393C63.9629 51.653 55.4395 51.4312 47.0038 52.3791C46.6908 52.4139 46.4103 52.1892 46.3748 51.8769C46.3393 51.5645 46.5647 51.2834 46.877 51.2478C55.4163 50.2876 64.0455 50.5123 72.5247 51.916C72.8349 51.9675 73.0443 52.2603 72.9936 52.5704C72.9421 52.8814 72.6479 53.0901 72.3392 53.0386L72.3384 53.0393Z" fill="#76A0EE"/>
<path d="M67.5005 59.8893C59.7917 58.7022 51.8206 57.4752 44.0248 58.8884C43.7161 58.9442 43.4197 58.7391 43.3632 58.4297C43.3074 58.1202 43.5124 57.8246 43.8219 57.768C51.8054 56.3208 59.8722 57.5629 67.6738 58.7638C67.9839 58.8116 68.197 59.1022 68.1492 59.4124C68.1013 59.724 67.8093 59.9364 67.4998 59.8878L67.5005 59.8893Z" fill="#76A0EE"/>
<path d="M41.3019 61.725C34.3729 58.1275 27.0178 55.3475 19.4409 53.4632C19.1358 53.3871 18.9502 53.0784 19.0263 52.7733C19.1024 52.4682 19.4112 52.2834 19.7163 52.3587C27.3794 54.2647 34.8179 57.0759 41.8266 60.7147C42.1056 60.8597 42.2144 61.2032 42.0694 61.4822C41.9252 61.7605 41.5817 61.8699 41.3019 61.725Z" fill="#76A0EE"/>
<path d="M41.5534 55.6809C35.3433 51.5573 28.5034 48.6526 21.2236 47.0495C20.9163 46.9821 20.7229 46.6785 20.7902 46.3712C20.8576 46.0639 21.1613 45.8697 21.4686 45.9378C28.8868 47.572 35.8556 50.5311 42.1831 54.733C42.4448 54.9069 42.5165 55.2598 42.3426 55.5215C42.1679 55.7838 41.815 55.8541 41.5541 55.6809H41.5534Z" fill="#76A0EE"/>
<path d="M42.677 50.8354C37.2511 46.6313 31.1809 43.452 24.6345 41.3872C24.3345 41.293 24.1685 40.9727 24.2627 40.6734C24.3569 40.3741 24.6773 40.2067 24.9766 40.3016C31.6512 42.4069 37.841 45.6486 43.3735 49.9353C43.6221 50.128 43.667 50.4853 43.4749 50.7332C43.2822 50.9818 42.9242 51.0267 42.677 50.8346V50.8354Z" fill="#76A0EE"/>
<path d="M43.4578 45.9834C38.6196 41.4025 32.7299 37.842 26.4256 35.6867C26.1284 35.5852 25.9697 35.2613 26.0712 34.9641C26.1726 34.667 26.4959 34.5083 26.7937 34.6097C33.2517 36.8172 39.2842 40.4647 44.2398 45.1565C44.4681 45.3725 44.4775 45.7327 44.2615 45.961C44.0456 46.1893 43.6854 46.1987 43.4571 45.9827L43.4578 45.9834Z" fill="#76A0EE"/>
<path d="M44.9322 64.0265C53.6536 64.0265 60.7237 56.9564 60.7237 48.2349C60.7237 39.5135 53.6536 32.4434 44.9322 32.4434C36.2107 32.4434 29.1406 39.5135 29.1406 48.2349C29.1406 56.9564 36.2107 64.0265 44.9322 64.0265Z" fill="#E7CF7F"/>
<path d="M58.278 48.2335C58.278 55.6038 52.302 61.5798 44.9316 61.5798C41.6508 61.5798 38.6454 60.3949 36.3256 58.4346C34.6718 57.0366 33.363 55.2429 32.5455 53.2058C31.9295 51.6679 31.5889 49.9909 31.5889 48.2328C31.5889 40.8624 37.5613 34.89 44.9316 34.89C48.6653 34.89 52.0425 36.4235 54.4667 38.8948C56.0589 40.5174 57.2395 42.551 57.8359 44.8208C58.1222 45.9093 58.2773 47.0558 58.2773 48.2328L58.278 48.2335Z" fill="#CAEAED"/>
<path d="M20.0932 79.955C21.2006 80.7833 22.7653 80.5833 23.6284 79.5035L36.4696 63.4409C38.6235 60.7471 34.1991 57.2163 32.0858 59.9847L19.5917 76.3495C18.7271 77.4815 18.9525 79.102 20.0932 79.955Z" fill="#8574EE"/>
<path d="M57.8356 44.8215L36.3246 58.4353C34.6708 57.0373 33.3619 55.2437 32.5444 53.2065L54.4656 38.8955C56.0578 40.5181 57.2384 42.5517 57.8348 44.8215H57.8356Z" fill="white"/>
<g clip-path="url(#clip1_364_7116)">
<path d="M66.2311 42.9698L93.7059 7.99963L62.2803 20.713L66.2311 42.9698Z" fill="#CDB76C"/>
<path d="M54.1743 16.7425L62.9919 24.6428L91.777 8.99815L72.7411 29.6144L83.4312 41.3567L95.7803 6L54.1743 16.7425Z" fill="#E7CF7F"/>
</g>
</g>
<defs>
<clipPath id="clip0_364_7116">
<rect width="109.406" height="100" fill="white" transform="translate(0.296875)"/>
</clipPath>
<clipPath id="clip1_364_7116">
<rect width="41.6059" height="36.9698" fill="white" transform="translate(54.1743 6)"/>
</clipPath>
</defs>
</svg>
