<svg width="99" height="100" viewBox="0 0 99 100" fill="none" xmlns="http://www.w3.org/2000/svg">
<g clip-path="url(#clip0_364_6488)">
<path d="M66.0885 56.7887C66.6925 56.678 84.2512 57.1253 98.9539 45.094C97.0245 41.83 94.9125 38.1713 92.9019 34.2393C90.8312 30.19 92.4925 22.9247 89.8759 13.3673C87.9879 6.47067 82.9112 1.68467 77.1772 0C77.1565 0.00666667 61.6932 2.608 49.8765 8.678L46.8625 10.2307C50.8332 13.0493 54.4619 15.5347 56.7752 21.5833C48.2032 18.004 38.3085 22.2313 35.0686 31.03L13.5185 27.9853L13.2872 30.09C9.75388 62.192 0.559883 70.862 0.379883 71.4353C14.7932 78.4433 26.0199 77.9067 39.5059 75.414C40.5319 72.7813 41.5765 69.7333 42.7205 64.5513C43.0719 65.4953 43.6945 66.1973 44.2765 66.766C44.1359 67.4313 44.0685 68.11 44.0759 68.7953C44.0905 70.102 44.4485 71.1173 45.3985 72.0373C45.3485 74.4793 46.2212 76.108 47.4752 77.068C47.3872 80.1887 49.2405 81.4347 51.5985 81.92C52.0339 82.1807 52.4812 82.4267 52.9372 82.6553C54.2045 84.734 56.8272 85.6147 59.1099 84.6333C61.5599 85.0187 63.9525 84.956 66.1879 84.5247C75.9959 92.1313 83.8199 99.1447 84.8205 99.9993C86.0439 98.0833 92.2539 92.534 91.3379 81.11C90.6832 80.7267 82.2305 76.526 72.2472 68.9027L72.1199 68.7793C67.7939 64.592 64.9399 59.4287 58.3439 58.2187L57.8099 55.176C57.6105 54.04 56.8819 53.114 55.9039 52.6347L55.8472 52.2307C57.9199 51.5113 59.8139 50.3907 61.4305 48.9353C62.9179 52.9893 64.5359 55.1353 66.0879 56.7887H66.0885Z" fill="white"/>
<g filter="url(#filter0_d_364_6488)">
<path d="M16.9184 23.8308C16.9184 23.8308 12.5726 63.379 0.485107 79.8355C0.485107 79.8355 21.8655 90.3661 48.3587 83.9861C48.3587 83.9861 57.4666 60.8657 55.0893 29.2238L16.9184 23.8308Z" fill="#E7EBF7"/>
</g>
<path d="M37.4799 32.8287L36.8379 37.0506L50.288 39.2152L50.9346 35.2523L37.4799 32.8287Z" fill="#00ABFE"/>
<path d="M36.1388 40.4363L35.5144 42.8035L48.711 45.2335L49.4409 43.1429L36.1388 40.4363Z" fill="#BAC4CE"/>
<path d="M31.3158 49.0779L18.4384 46.6191C18.0619 46.547 17.8149 46.1834 17.887 45.8079C17.9592 45.4314 18.3237 45.1844 18.6983 45.2565L31.5758 47.7153C31.9523 47.7874 32.1993 48.151 32.1271 48.5266C32.0549 48.903 31.6914 49.15 31.3158 49.0779Z" fill="white"/>
<path d="M47.1443 57.6104C37.3056 55.9315 27.3669 54.0268 17.6031 51.9501C17.2285 51.8706 16.9889 51.5024 17.0685 51.1268C17.148 50.7522 17.5171 50.5126 17.8918 50.5922C27.6371 52.6652 37.5572 54.5661 47.3774 56.2423C47.7548 56.3071 48.0092 56.665 47.9444 57.0425C47.8797 57.4217 47.5199 57.6743 47.1443 57.6095V57.6104Z" fill="#BAC4CE"/>
<path d="M25.6914 61.5928L15.6473 59.4985C15.2726 59.4198 15.0312 59.0526 15.1098 58.678C15.1875 58.3024 15.5538 58.0619 15.9303 58.1405L25.9744 60.2348C26.3491 60.3134 26.5905 60.6807 26.5119 61.0553C26.4332 61.4327 26.0641 61.6714 25.6914 61.5928Z" fill="white"/>
<path d="M13.96 64.0636C13.5909 63.96 13.3763 63.577 13.4799 63.2079C13.5835 62.8388 13.9665 62.6242 14.3356 62.7278C20.9154 64.577 38.7575 69.5537 45.5603 68.5389C45.9405 68.4825 46.292 68.7443 46.3484 69.1226C46.4049 69.501 46.144 69.8543 45.7647 69.9108C38.6521 70.9718 20.9552 66.0284 13.9609 64.0627L13.96 64.0636Z" fill="#BAC4CE"/>
<path d="M21.8825 73.8071C18.4414 73.0504 14.9947 72.1217 11.6386 71.0486C11.2742 70.9321 11.0725 70.5417 11.189 70.1763C11.3056 69.8109 11.696 69.6102 12.0614 69.7267C15.3758 70.7868 18.7808 71.7045 22.1804 72.4519C22.5541 72.5342 22.7909 72.9042 22.7086 73.2789C22.6272 73.6508 22.259 73.8903 21.8816 73.8071H21.8825Z" fill="white"/>
<path d="M10.4447 75.8005C10.0757 75.6969 9.86012 75.3149 9.96373 74.9458C10.0664 74.5767 10.4503 74.3621 10.8185 74.4647C21.3473 77.4091 32.2183 78.5571 43.1292 77.8735C43.5149 77.8504 43.8405 78.1399 43.8646 78.5229C43.8886 78.9049 43.5982 79.2343 43.2152 79.2583C32.1554 79.9502 21.1299 78.7893 10.4438 75.8005H10.4447Z" fill="#BAC4CE"/>
<path d="M33.4868 32.9962C34.6181 35.8573 33.9281 38.9877 31.9735 41.1042C31.2057 41.9348 30.2473 42.6083 29.1299 43.0504C24.8432 44.7451 20.1061 42.316 18.874 38.0913C17.7103 34.2718 19.6575 30.1378 23.4344 28.6439C27.413 27.0713 31.9152 29.0222 33.4868 32.9962Z" fill="#F48682"/>
<path d="M31.9735 41.1042C31.2057 41.9349 30.2474 42.6083 29.1299 43.0505C24.8433 44.7452 20.1062 42.316 18.874 38.0914C20.1811 37.3578 21.5576 36.7612 23.0404 36.6409C26.0449 36.3948 30.2206 38.2338 31.9735 41.1051V41.1042Z" fill="#FFC5D3"/>
<path d="M27.8237 30.347C27.227 29.8872 24.8895 30.2341 24.5148 33.0407C24.2049 35.3653 25.9699 36.726 27.8524 35.0702C28.5757 34.4338 29.14 33.5522 29.1761 32.5893C29.2122 31.6263 28.6793 30.7188 27.8228 30.347H27.8237Z" fill="#FFC5D3"/>
<path d="M95.6967 78.6974C77.1299 68.7401 68.972 60.3715 66.3405 59.2438C65.3909 58.8366 64.2666 58.714 63.3346 59.1624C60.945 57.578 58.1205 56.442 55.186 55.8089C53.7493 55.499 52.2086 55.3177 50.8434 55.8601C49.4177 56.4268 48.3765 57.7308 47.8308 59.1649C47.285 60.599 47.1784 62.1607 47.1817 63.6956C47.1901 67.6116 47.8694 71.4916 48.5461 75.3489C53.8073 78.762 60.5739 80.0626 66.9182 78.4975C74.511 84.3523 81.9032 90.4674 89.4045 97.0266C93.6942 91.5413 96.664 83.1021 95.6967 78.6974Z" fill="#FFCFCA"/>
<path d="M50.217 37.4536L51.1859 44.3705L47.4336 45.0213L47.2564 43.9239L46.363 38.3906L50.217 37.4536Z" fill="#B2ACA3"/>
<path d="M46.4802 39.1698C56.4682 39.1698 64.5651 31.073 64.5651 21.0849C64.5651 11.0969 56.4682 3 46.4802 3C36.4922 3 28.3953 11.0969 28.3953 21.0849C28.3953 31.073 36.4922 39.1698 46.4802 39.1698Z" fill="#FFB020"/>
<path d="M61.2124 24.3402C60.7581 26.3981 59.9034 28.2646 58.7489 29.8725C56.4886 33.0279 53.078 35.2017 49.2601 35.9179C43.1484 37.0741 36.7957 34.3226 33.5077 28.7894C31.6194 25.6072 30.8881 21.7331 31.7487 17.8347C33.5455 9.69776 41.5959 4.55919 49.7328 6.35601C57.8698 8.15283 63.0083 16.2033 61.2115 24.3402H61.2124Z" fill="white"/>
<path d="M39.0621 21.9549L42.895 27.9113C43.7296 29.2077 45.6205 29.2203 46.4727 27.9348L54.0471 16.5006C54.5483 15.7433 54.351 14.7248 53.6029 14.2101C52.8556 13.6962 51.8338 13.8751 51.3056 14.6131L44.5407 24.0683L41.8623 20.1077C41.3316 19.3226 40.2569 19.1329 39.4894 19.6887C38.7682 20.211 38.581 21.2059 39.0629 21.9549H39.0621Z" fill="#7FD4E7"/>
<path d="M47.1983 43.8861L51.1135 43.2757C52.0967 43.122 53.022 43.7845 53.1941 44.7652L58.509 75.0668C58.8549 77.0383 57.5443 78.9191 55.5753 79.2776C53.603 79.637 51.7105 78.3338 51.3427 76.3632L45.6827 46.0263C45.4938 45.0137 46.1789 44.0448 47.1974 43.8861H47.1983Z" fill="#A369F7"/>
<path d="M61.4349 67.7141C55.869 65.2893 51.1502 60.9651 48.2493 55.6318C45.8235 54.5553 43.5968 52.9575 42.2299 50.7291C41.4566 49.4688 40.9956 47.9894 40.9898 46.5326C40.9839 45.1758 42.5884 44.4864 43.6178 45.3714C45.6246 47.0968 50.6372 49.499 52.675 50.0566C54.2778 50.4949 55.958 50.6015 57.5558 51.0566C60.5927 51.9214 63.1436 53.9877 65.3585 56.2371C67.5743 58.4874 69.5567 60.9769 71.9656 63.3085C72.6063 64.5411 73.2536 65.7905 73.5727 67.1423C74.2234 69.8972 73.2864 72.2431 70.6037 73.3875C67.4333 74.7402 65.3703 72.7964 63.2813 70.0584C62.5928 69.1558 62.0898 67.9988 61.4349 67.7133V67.7141Z" fill="#FFCFCA"/>
<path d="M45.5406 70.1557C45.3954 70.9668 45.2493 71.7905 45.3299 72.6108C45.4105 73.4311 45.7497 74.2615 46.4088 74.7569C46.9302 75.149 47.591 75.2934 48.23 75.4261C51.6515 76.139 53.099 76.1549 55.4861 74.7888C56.4794 74.2204 56.5734 73.4706 56.0965 72.7233C55.2468 71.3916 50.5255 69.2036 45.5406 70.1557Z" fill="#FFCFCA"/>
<path d="M42.8227 63.8224C42.7236 64.8358 42.6245 65.8593 42.7555 66.8686C42.8865 67.8778 43.2702 68.8871 44.0066 69.5899C45.9696 71.4614 53.277 71.903 54.1754 71.5269C54.9462 71.2045 55.0125 70.1146 54.7279 69.3287C53.9512 67.1818 51.685 65.9433 49.4785 65.3606C47.2711 64.7771 44.9343 64.6444 42.8227 63.8232V63.8224Z" fill="#FFCFCA"/>
<path d="M41.8078 57.6469C41.1587 59.1187 40.7523 61.5083 41.2301 62.7216C41.5072 63.4261 42.1218 63.9399 42.754 64.3572C45.1865 65.9618 48.1386 66.5579 51.032 66.9038C51.9934 67.0189 52.6853 66.9257 53.0757 65.9735C53.4544 65.0491 53.1462 63.9542 52.5358 63.1633C51.9245 62.3732 51.0538 61.8308 50.1865 61.3345C47.5492 59.8282 44.7582 58.5906 41.8078 57.6469Z" fill="#FFCFCA"/>
<path d="M42.6387 50.0004C40.1795 50.1901 39.6857 50.8568 39.281 52.2422C38.611 54.5378 38.983 55.5949 40.5523 57.1138C42.6077 59.1029 47.9394 62.9476 50.4474 61.6067C51.6506 60.9627 52.0528 59.3396 51.6791 58.0264C51.3063 56.7133 50.3399 55.6595 49.3416 54.7284C47.3315 52.8518 45.0619 51.2539 42.6379 50.0012L42.6387 50.0004Z" fill="#FFCFCA"/>
<path d="M61.6865 67.1365C56.2247 64.757 51.6495 60.5638 48.8023 55.3304C48.7359 55.2086 48.631 55.1121 48.5042 55.0558C45.9131 53.9055 43.929 52.2959 42.7661 50.4C42.0314 49.2027 41.6242 47.8282 41.6183 46.5302C41.6167 46.1834 41.3354 45.903 40.9886 45.903H40.9861C40.6385 45.9046 40.3572 46.1876 40.3589 46.5352C40.3656 48.0608 40.8392 49.667 41.6922 51.0583C42.9592 53.1238 45.0676 54.8703 47.7981 56.1188C49.1155 58.4975 50.7763 60.6663 52.7057 62.5597C52.5202 62.5076 52.3136 62.5387 52.1499 62.6655C51.8745 62.8779 51.8241 63.2734 52.0366 63.5488C52.5731 64.2431 52.7519 65.1012 52.4925 65.7343C52.228 66.3783 51.8065 66.3624 51.1062 66.2784C48.5101 65.9677 45.5285 65.4337 43.1003 63.8317C42.8098 63.6403 42.4194 63.72 42.2279 64.0106C42.0365 64.3011 42.1163 64.6915 42.4068 64.8829C45.0541 66.6294 48.2145 67.2012 50.9568 67.5295C52.2263 67.6814 53.1617 67.4237 53.6587 66.2121C54.0559 65.2431 53.888 64.0592 53.228 63.0525C55.5563 65.2255 58.2457 67.0106 61.1836 68.2902C61.5026 68.4287 61.8737 68.2835 62.0123 67.9644C62.1508 67.6453 62.0056 67.2742 61.6865 67.1357V67.1365Z" fill="#EFBFBA"/>
<path d="M69.9454 69.2818C69.6204 69.1592 69.2569 69.3229 69.1335 69.6479C68.4676 71.4086 68.0335 73.2507 67.8446 75.124C67.8068 75.4951 68.0982 75.8167 68.4718 75.8167C68.7909 75.8167 69.0646 75.5749 69.0974 75.2499C69.2754 73.4858 69.6834 71.7511 70.3115 70.0929C70.434 69.7679 70.2703 69.4044 69.9454 69.2809V69.2818Z" fill="#EFBFBA"/>
<path d="M55.3125 71.2146C55.5896 70.5907 55.5644 69.7922 55.3192 69.1146C55.2008 68.7872 54.8398 68.6184 54.5132 68.7368C54.1866 68.8552 54.017 69.2162 54.1354 69.5428C54.331 70.0844 54.2957 70.7939 53.9322 70.9459C53.2101 71.2481 46.1857 70.7981 44.4409 69.1339C44.189 68.8938 43.7902 68.903 43.5509 69.1549C43.3108 69.4068 43.32 69.8057 43.5719 70.045C44.4216 70.8552 45.5257 71.2154 46.5921 71.4841C49.6668 72.2591 53.5123 72.4597 54.3839 72.1188C54.5518 72.2666 55.2294 72.5345 55.5661 73.0609C56.0128 73.7612 55.5375 74.0332 55.174 74.2415C53.0615 75.4497 51.8927 75.5446 48.3587 74.8082C48.0178 74.736 47.6844 74.956 47.6139 75.296C47.5425 75.6361 47.7617 75.9703 48.1017 76.0408C51.4057 76.7293 53.153 76.8477 55.7995 75.3338C57.1051 74.5865 57.2764 73.3985 56.6282 72.3825C56.2924 71.856 55.7928 71.495 55.3134 71.2137L55.3125 71.2146Z" fill="#EFBFBA"/>
<path d="M50.7444 62.1616C51.0509 61.9979 51.1668 61.6158 51.003 61.3094C50.8393 61.0029 50.4573 60.887 50.1508 61.0508C48.0366 62.1809 42.9333 58.5419 40.9904 56.6612C40.7402 56.4193 40.3422 56.4261 40.0995 56.6754C39.8577 56.9256 39.8644 57.3236 40.1138 57.5663C42.4245 59.8031 47.9056 63.6797 50.7436 62.1616H50.7444Z" fill="#EFBFBA"/>
</g>
<defs>
<filter id="filter0_d_364_6488" x="0.485107" y="23.8308" width="57" height="64.2079" filterUnits="userSpaceOnUse" color-interpolation-filters="sRGB">
<feFlood flood-opacity="0" result="BackgroundImageFix"/>
<feColorMatrix in="SourceAlpha" type="matrix" values="0 0 0 0 0 0 0 0 0 0 0 0 0 0 0 0 0 0 127 0" result="hardAlpha"/>
<feOffset dx="2" dy="2"/>
<feComposite in2="hardAlpha" operator="out"/>
<feColorMatrix type="matrix" values="0 0 0 0 0 0 0 0 0 0 0 0 0 0 0 0 0 0 0.25 0"/>
<feBlend mode="normal" in2="BackgroundImageFix" result="effect1_dropShadow_364_6488"/>
<feBlend mode="normal" in="SourceGraphic" in2="effect1_dropShadow_364_6488" result="shape"/>
</filter>
<clipPath id="clip0_364_6488">
<rect width="98.574" height="100" fill="white" transform="translate(0.379883)"/>
</clipPath>
</defs>
</svg>
