<svg width="133" height="100" viewBox="0 0 133 100" fill="none" xmlns="http://www.w3.org/2000/svg">
<g clip-path="url(#clip0_364_14844)">
<path d="M127.144 21.6752C127.569 20.4875 127.806 19.8149 128.017 19.2229L127.73 18.3073C127.065 16.1802 127.886 16.3286 91.6592 8.61458C91.6592 1.58629 82.57 -1.21601 78.6286 4.54766L76.7648 1.64727C69.9822 24.854 82.6036 -18.8437 66.9917 35.4278L65.3736 31.7665L67.5255 23.6114L56.7387 4.06957L53.2639 4.37092L51.332 0L0.0537109 23.7528L35.4629 100L69.5077 86.0848L100.218 94.6163L132.613 23.075L127.144 21.6734V21.6752Z" fill="white"/>
<path d="M128.577 25.013L98.6141 91.1848L58.4019 80.0136L80.2061 12.6161L128.577 25.013Z" fill="#A3A3B2"/>
<path d="M59.5657 72.1865L96.7273 82.7249C107.777 62.3143 117.234 41.0421 124.985 19.1654C124.722 18.325 77.4939 8.68089 77.7678 8.52271C71.5835 29.8506 65.3992 51.1776 59.5666 72.1865H59.5657Z" fill="#DBDFEA"/>
<path d="M82.1928 13.6483L82.9068 9.70951C82.9722 9.34895 83.3186 9.11123 83.6774 9.17574C84.038 9.24113 84.2766 9.58579 84.2112 9.94635L83.4972 13.8851C83.2241 15.3883 85.4361 15.9009 85.8541 14.433L87.2919 9.38695C88.2931 5.87325 83.1083 4.13319 81.8181 7.58856L80.253 11.7801C80.1249 12.123 79.7431 12.2962 79.4002 12.1689C79.0573 12.0408 78.8832 11.659 79.0114 11.3161L80.5764 7.12372C82.4605 2.07764 90.0279 4.621 88.5671 9.74839L87.1293 14.7954C86.2668 17.8221 81.6175 16.8209 82.1928 13.6474V13.6483Z" fill="#FFC55A"/>
<path d="M111.852 35.8157L78.8054 27.149C78.4511 27.0562 78.2399 26.6939 78.3326 26.3395C78.4254 25.9851 78.7886 25.7739 79.1421 25.8667L112.188 34.5334C112.543 34.6262 112.754 34.9885 112.661 35.3429C112.569 35.6946 112.209 35.9094 111.852 35.8157Z" fill="#1D1D3D"/>
<path d="M108.629 44.7793L75.5833 36.1126C75.2289 36.0198 75.0177 35.6575 75.1105 35.3031C75.2033 34.9487 75.5665 34.7375 75.92 34.8303L108.966 43.497C109.32 43.5898 109.532 43.9522 109.439 44.3065C109.347 44.6583 108.986 44.873 108.629 44.7793Z" fill="#1D1D3D"/>
<path d="M105.407 53.743L72.3621 45.0754C72.0077 44.9826 71.7965 44.6203 71.8893 44.2659C71.9821 43.9115 72.3453 43.7003 72.6988 43.7931L105.744 52.4607C106.098 52.5535 106.31 52.9158 106.217 53.2702C106.125 53.6219 105.764 53.8367 105.407 53.743Z" fill="#1D1D3D"/>
<path d="M36.9158 96.2981L81.0217 78.2718L49.8191 7.57446L3.87671 25.1536L36.9158 96.2981Z" fill="#F48682"/>
<path d="M48.2178 7.69634L55.1232 7.09717L64.4492 23.9914L61.4984 35.1741L48.2178 7.69634Z" fill="#F48682"/>
<path d="M3.87671 25.1535L49.8845 3.84155L80.8706 73.9433L36.9158 96.2981L3.87671 25.1535Z" fill="#76A0EE"/>
<path d="M17.2412 35.738L21.9232 47.0461L53.0348 31.2972L48.2176 21.0619L17.2412 35.738Z" fill="#CEDFFF"/>
<path d="M35.4805 75.6842C35.3064 75.3625 35.4266 74.9604 35.7482 74.7863L60.4095 61.4633C60.7312 61.2892 61.1333 61.4093 61.3074 61.731C61.4815 62.0527 61.3613 62.4548 61.0396 62.6289L36.3783 75.952C36.0593 76.1243 35.6554 76.0085 35.4805 75.6842Z" fill="#1D1D3D"/>
</g>
<defs>
<clipPath id="clip0_364_14844">
<rect width="132.559" height="100" fill="white" transform="translate(0.0537109)"/>
</clipPath>
</defs>
</svg>
