<svg width="130" height="130" viewBox="0 0 130 130" fill="none" xmlns="http://www.w3.org/2000/svg">
<path d="M65 130C100.899 130 130 100.899 130 65C130 29.1015 100.899 0 65 0C29.1015 0 0 29.1015 0 65C0 100.899 29.1015 130 65 130Z" fill="#C4CEFF"/>
<mask id="mask0_1793_268" style="mask-type:alpha" maskUnits="userSpaceOnUse" x="0" y="0" width="130" height="130">
<path d="M65 130C100.899 130 130 100.899 130 65C130 29.1015 100.899 0 65 0C29.1015 0 0 29.1015 0 65C0 100.899 29.1015 130 65 130Z" fill="#C4CEFF"/>
</mask>
<g mask="url(#mask0_1793_268)">
</g>
<g clip-path="url(#clip0_1793_268)">
<path d="M73.1372 87.1789C73.1372 106.069 61.1407 127.002 47.0226 127.002C32.9431 127.002 20.908 106.107 20.908 87.1789C20.908 68.289 32.9045 58.4971 47.0226 58.4971C61.1021 58.4971 73.1372 68.2504 73.1372 87.1789Z" fill="url(#paint0_linear_1793_268)"/>
<path d="M74.0183 86.7435C70.4695 88.5939 66.0334 87.2446 64.1819 83.6594C62.3303 80.1127 63.6804 75.6794 67.2678 73.8289C70.8167 71.9785 75.2527 73.3278 77.1043 76.913C78.9559 80.4982 77.6058 84.893 74.0183 86.7435Z" fill="#8080A2"/>
<path d="M85.5525 92.1793C84.1252 94.3381 81.0778 94.8393 78.7634 93.2972L72.0514 88.8253C69.7369 87.2833 69.004 84.2763 70.4313 82.1175C71.8585 79.9586 74.9059 79.4575 77.2204 80.9995L83.9323 85.4714C86.2854 87.0134 87.0183 90.0204 85.5525 92.1793Z" fill="white"/>
<path d="M85.2434 95.4559C82.1575 97.0751 78.3772 95.88 76.7956 92.7959C75.1755 89.7119 76.3713 85.9339 79.4573 84.3533C82.5432 82.7341 86.3235 83.9292 87.9051 87.0133C89.5252 90.0588 88.3294 93.8368 85.2434 95.4559Z" fill="#8080A2"/>
<path d="M97.4717 87.5144C97.8574 89.8274 96.1987 92.0248 93.73 92.4489L86.5937 93.7211C84.1249 94.1451 81.8104 92.6417 81.3861 90.3672C80.9618 88.0541 82.6591 85.8567 85.1278 85.4326L92.2641 84.1605C94.7715 83.7364 97.0859 85.2399 97.4717 87.5144Z" fill="white"/>
<path d="M101.522 90.3287C99.4007 92.6418 95.8133 92.796 93.4988 90.7142C91.1843 88.5939 91.03 85.0087 93.113 82.6956C95.2346 80.3826 98.8221 80.2284 101.137 82.3101C103.451 84.4304 103.644 88.0157 101.522 90.3287Z" fill="#8080A2"/>
<path d="M67.5435 65.359C67.5435 72.4138 58.3243 78.1578 46.9836 78.1578C35.6428 78.1578 26.4236 72.4523 26.4236 65.359C26.4236 58.3041 35.6428 52.5601 46.9836 52.5601C58.3629 52.5601 67.5435 58.3041 67.5435 65.359Z" fill="#DCDCEA"/>
<path d="M80.0803 50.8254C80.0803 56.184 75.7214 60.5402 70.3596 60.5402H22.7207C17.3589 60.5402 13 56.184 13 50.8254C13 45.4668 17.3589 41.1106 22.7207 41.1106H70.3596C75.7214 41.1106 80.0803 45.4668 80.0803 50.8254Z" fill="#A0A0C1"/>
<path d="M80.0803 52.5603C80.0803 57.9189 75.7214 62.2751 70.3596 62.2751H22.7207C17.3589 62.2751 13 57.9189 13 52.5603C13 47.2017 17.3589 42.8455 22.7207 42.8455H70.3596C75.7214 42.8455 80.0803 47.2017 80.0803 52.5603Z" fill="#8080A2"/>
<path d="M48.1409 12.2361H44.9006V28.6588H48.1409V12.2361Z" fill="#8080A2"/>
<path d="M51.4196 14.896C51.4196 17.5945 49.2209 19.7919 46.5207 19.7919C43.8206 19.7919 41.6218 17.5945 41.6218 14.896C41.6218 12.1974 43.8206 10 46.5207 10C49.2209 10 51.4196 12.1974 51.4196 14.896Z" fill="white"/>
<path d="M72.4427 52.0204C72.4427 61.1955 64.9979 68.6358 55.8172 68.6358H37.2245C28.0439 68.6358 20.5991 61.1955 20.5991 52.0204V43.4235C20.5991 34.2484 28.0439 26.8081 37.2245 26.8081H55.7787C64.9593 26.8081 72.4041 34.2484 72.4041 43.4235V52.0204H72.4427Z" fill="#F4F4F4"/>
<path d="M72.4427 55.336C72.4427 64.5111 64.9979 71.9514 55.8172 71.9514H37.2245C28.0439 71.9514 20.5991 64.5111 20.5991 55.336V46.7777C20.5991 37.6026 28.0439 30.1622 37.2245 30.1622H55.7787C64.9593 30.1622 72.4041 37.6026 72.4041 46.7777V55.336H72.4427Z" fill="white"/>
<path d="M67.1578 55.1045C67.1578 62.5448 60.9088 68.5588 53.194 68.5588H39.8088C32.094 68.5588 25.845 62.5448 25.845 55.1045C25.845 47.6642 32.094 41.6503 39.8088 41.6503H53.194C60.9088 41.6503 67.1578 47.7028 67.1578 55.1045Z" fill="#343E49"/>
<path d="M67.0421 53.5625C67.0421 61.0029 60.7931 67.0168 53.0783 67.0168H39.6931C31.9782 67.0168 25.7292 61.0029 25.7292 53.5625C25.7292 46.1222 31.9782 40.1083 39.6931 40.1083H53.0783C60.8316 40.1083 67.0421 46.1608 67.0421 53.5625Z" fill="#5D5D77"/>
<path d="M39.0762 54.2565C39.0762 55.4901 38.189 56.4924 37.0703 56.4924C35.9517 56.4924 35.0645 55.4901 35.0645 54.2565C35.0645 53.0228 35.9517 52.0205 37.0703 52.0205C38.1504 52.0205 39.0762 53.0228 39.0762 54.2565Z" fill="#B3B3FF"/>
<path d="M58.9802 54.2565C58.9802 55.4901 58.093 56.4924 56.9744 56.4924C55.8557 56.4924 54.9685 55.4901 54.9685 54.2565C54.9685 53.0228 55.8557 52.0205 56.9744 52.0205C58.093 52.0205 58.9802 53.0228 58.9802 54.2565Z" fill="#B3B3FF"/>
<path d="M41.1978 58.921C41.1978 58.921 46.6367 64.0097 52.8471 58.921" stroke="#B3B3FF" stroke-miterlimit="10" stroke-linecap="round" stroke-linejoin="round"/>
<path d="M23.8005 103.871C23.8005 103.871 29.7024 101.828 31.1682 93.3085C31.1682 93.3085 44.4762 96.5467 64.3419 93.3085C64.3419 93.3085 65.0748 101.79 70.2437 103.871C70.2437 103.871 65.1134 102.599 63.9561 94.0024C63.9561 94.0024 47.8322 97.896 31.7468 94.0795C31.7082 94.118 30.551 101.597 23.8005 103.871Z" fill="#8080A2"/>
<path d="M33.2512 92.3447C33.2512 92.576 33.0583 92.7688 32.8269 92.7688C32.5955 92.7688 32.4026 92.576 32.4026 92.3447C32.4026 92.1134 32.5955 91.9207 32.8269 91.9207C33.0583 91.9207 33.2512 92.1134 33.2512 92.3447Z" fill="#8080A2"/>
<path d="M33.2517 96.0069C33.2517 96.2383 33.0588 96.431 32.8274 96.431C32.5959 96.431 32.4031 96.2383 32.4031 96.0069C32.4031 95.7756 32.5959 95.5829 32.8274 95.5829C33.0588 95.6214 33.2517 95.7756 33.2517 96.0069Z" fill="#8080A2"/>
<path d="M63.262 92.3447C63.262 92.576 63.0691 92.7688 62.8376 92.7688C62.6062 92.7688 62.4133 92.576 62.4133 92.3447C62.4133 92.1134 62.6062 91.9207 62.8376 91.9207C63.0691 91.9207 63.262 92.1134 63.262 92.3447Z" fill="#8080A2"/>
<path d="M63.262 96.0069C63.262 96.2383 63.0691 96.431 62.8376 96.431C62.6062 96.431 62.4133 96.2383 62.4133 96.0069C62.4133 95.7756 62.6062 95.5829 62.8376 95.5829C63.0691 95.6214 63.262 95.7756 63.262 96.0069Z" fill="#8080A2"/>
<path d="M68.6624 52.9458C68.5853 44.773 61.6034 38.1422 53.0785 38.1422H39.6933C31.0913 38.1422 24.0708 44.8501 24.0708 53.0614C24.0708 53.6011 24.1094 54.1408 24.1865 54.7191C24.2637 62.8919 31.2456 69.5226 39.809 69.5226H53.1942C61.7962 69.5226 68.8167 62.8148 68.8167 54.6034C68.7781 54.0637 68.7396 53.4855 68.6624 52.9458ZM53.1556 67.865H39.7704C32.0942 67.865 25.8452 61.9281 25.8066 54.6034C25.7295 54.1023 25.6909 53.5626 25.6909 53.0614C25.6909 45.7367 31.9399 39.7999 39.6547 39.7999H53.0399C60.7162 39.7999 66.9652 45.7367 67.0037 53.0614C67.0809 53.5626 67.1195 54.1023 67.1195 54.6034C67.1195 61.9281 60.8705 67.865 53.1556 67.865Z" fill="#7171C9"/>
<path d="M68.6624 53.4852C68.5853 45.3124 61.6034 38.6816 53.0399 38.6816H39.6547C31.0527 38.6816 24.0322 45.3895 24.0322 53.6008C24.0322 54.1405 24.0708 54.6803 24.1479 55.2585C24.2251 63.4313 31.207 70.0621 39.7704 70.0621H53.1556C61.7577 70.0621 68.7781 63.3542 68.7781 55.1429C68.7781 54.6032 68.7396 54.0249 68.6624 53.4852ZM53.1556 68.4044H39.7704C32.0942 68.4044 25.8452 62.4675 25.8066 55.1429C25.7295 54.6417 25.6909 54.102 25.6909 53.6008C25.6909 46.2762 31.9399 40.3393 39.6547 40.3393H53.0399C60.7162 40.3393 66.9651 46.2762 67.0037 53.6008C67.0809 54.102 67.1194 54.6417 67.1194 55.1429C67.1194 62.4675 60.8705 68.4044 53.1556 68.4044Z" fill="#9D9AFF"/>
<path d="M52.9273 85.2484C52.9273 88.0704 50.6442 90.3535 47.8222 90.3535C45.0002 90.3535 42.7246 88.0629 42.7246 85.2484C42.7246 82.4264 45.0077 80.1433 47.8297 80.1433C50.6517 80.1433 52.9273 82.4264 52.9273 85.2484Z" fill="#ACACD9"/>
<path d="M47.7544 84.7019C47.4774 84.7019 47.2678 84.4774 47.2678 84.1929V82.9878C47.2678 82.7108 47.4774 82.4788 47.7544 82.4788C48.0313 82.4788 48.2409 82.7033 48.2409 82.9878V84.2004C48.2409 84.4774 48.0313 84.7019 47.7544 84.7019Z" fill="#D3DCF3"/>
<path d="M47.8295 87.9357C46.3324 87.9357 45.1123 86.7156 45.1123 85.2185C45.1123 84.6047 45.3294 84.0059 45.7111 83.5193C45.8833 83.3022 46.2052 83.2648 46.4223 83.4445C46.6393 83.6166 46.6768 83.9385 46.4971 84.1556C46.2501 84.47 46.1154 84.8368 46.1154 85.226C46.1154 86.1692 46.8789 86.9327 47.822 86.9327C48.7652 86.9252 49.5362 86.1542 49.5362 85.2185C49.5362 84.8293 49.409 84.455 49.1619 84.1481C48.9898 83.931 49.0197 83.6092 49.2368 83.437C49.4539 83.2648 49.7757 83.2948 49.9479 83.5118C50.3371 83.9909 50.5467 84.5972 50.5467 85.211C50.5467 86.7156 49.3266 87.9357 47.8295 87.9357Z" fill="#D3DCF3"/>
<path d="M28.8233 85.5943C25.8094 88.2277 21.1804 87.9598 18.5374 84.9106C15.9034 81.8989 16.1727 77.2722 19.2241 74.6297C22.2379 71.9962 26.8669 72.2642 29.5099 75.3133C32.153 78.3625 31.8747 82.9518 28.8233 85.5943Z" fill="#8080A2"/>
<path d="M41.3122 88.1647C40.4329 90.5988 37.589 91.8028 34.9767 90.8484L27.4011 88.0808C24.7889 87.1264 23.3691 84.3761 24.2485 81.942C25.1278 79.5079 27.9717 78.3039 30.584 79.2583L38.1595 82.0259C40.8093 82.9712 42.229 85.7215 41.3122 88.1647Z" fill="white"/>
<path d="M41.7829 91.4218C39.1645 93.7215 35.2092 93.4492 32.9465 90.8236C30.6463 88.2071 30.9198 84.2537 33.5473 81.9915C36.1657 79.6918 40.121 79.9641 42.3837 82.5896C44.6748 85.1687 44.4013 89.1221 41.7829 91.4218Z" fill="#8080A2"/>
<path d="M51.7994 80.826C52.7184 82.9835 51.6232 85.5095 49.3236 86.5024L42.6869 89.4177C40.3872 90.4107 37.784 89.4938 36.8365 87.3828C35.88 85.2344 37.0126 82.6993 39.3123 81.7064L45.949 78.7911C48.2862 77.7891 50.8894 78.706 51.7994 80.826Z" fill="white"/>
<path d="M56.3985 82.6088C54.8806 85.3561 51.4302 86.3499 48.6909 84.8709C45.9426 83.3545 44.9492 79.9061 46.4296 77.1678C47.9475 74.4205 51.3979 73.4267 54.1372 74.9057C56.8855 76.4221 57.9164 79.8615 56.3985 82.6088Z" fill="#8080A2"/>
<path d="M55.9221 66.5408C56.6683 66.8362 57.0257 67.8207 56.6538 68.7437L56.3103 69.6201L61.0022 66.5409C61.6226 66.1527 62.4166 66.3175 62.8423 66.9285C63.2305 67.5485 63.0654 68.3421 62.454 68.7677L60.0848 70.2932C60.2154 70.3409 60.3176 70.4351 60.4482 70.4829L64.4538 67.8474C65.0742 67.4592 65.8682 67.6241 66.2939 68.235C66.6821 68.855 66.5169 69.6486 65.9056 70.0743L62.3045 72.4135C62.3136 72.4509 62.3602 72.4793 62.3692 72.5168L66.1021 70.0664C66.7225 69.6782 67.5165 69.843 67.9422 70.454C68.3304 71.074 68.1653 71.8676 67.5539 72.2932L63.0313 75.2522C63.0404 75.2896 63.021 75.3736 63.0301 75.4111L65.1085 73.9958C65.7289 73.6076 66.4582 73.6691 66.8191 74.1767C67.1426 74.6934 66.9128 75.3836 66.3015 75.8093L60.9516 79.2858C60.9232 79.3323 60.8482 79.3504 60.7732 79.3686C60.7073 79.4242 60.6039 79.4889 60.538 79.5445L58.0744 81.1721C56.6358 82.1153 54.9602 82.2432 53.4575 81.7739C53.0191 81.6024 50.0809 80.4492 49.8325 77.4551C49.5483 75.4613 50.3968 73.3916 52.2115 72.1988L52.3149 72.1341C52.298 71.9002 52.347 71.6107 52.4426 71.3495L53.8643 67.7132C54.2647 66.7436 55.176 66.2454 55.9221 66.5408Z" fill="white"/>
</g>
<path d="M114 108C102.142 121.2 85.3088 129.581 66.5675 130C66.0223 130 65.5452 130 65 130C45.6453 130 28.1989 121.549 16 108H114Z" fill="#CCD0DE"/>
<path d="M93.6253 111.191C94.5011 111.326 95.3768 110.989 95.9831 110.248L122.929 77.3068C123.737 76.3637 123.131 74.8816 121.919 74.6795L91.4023 70.3682C90.5265 70.2335 89.6508 70.5703 89.0445 71.3113L62.3006 103.983C61.4248 105.061 62.0311 106.678 63.4458 106.88L93.6253 111.191Z" fill="#2E57EF"/>
<path d="M105.455 99.161C104.931 99.8601 103.941 100.035 103.183 99.5105L99.5712 97.0636C98.8721 96.5393 98.6973 95.5489 99.2216 94.7915C99.746 94.0924 100.736 93.9176 101.494 94.442L105.106 96.8888C105.805 97.4132 105.98 98.4618 105.455 99.161Z" fill="white"/>
<path d="M105.98 95.0247C105.455 95.7238 104.465 95.8986 103.708 95.3743L100.096 92.9274C99.3965 92.4031 99.2217 91.4126 99.746 90.6553C100.27 89.9562 101.261 89.7814 102.018 90.3057L105.63 92.7526C106.329 93.2769 106.446 94.2674 105.98 95.0247Z" fill="white"/>
<path d="M109.184 92.7525C108.66 93.4516 107.669 93.6263 106.912 93.102L100.97 88.9656C100.271 88.4413 100.096 87.4509 100.62 86.6935C101.144 85.9944 102.135 85.8196 102.892 86.3439L108.835 90.4803C109.534 91.0629 109.709 92.0533 109.184 92.7525Z" fill="white"/>
<path d="M110.233 89.0239C109.708 89.723 108.718 89.8978 107.961 89.3734L104.349 86.9265C103.649 86.4022 103.475 85.4118 103.999 84.6544C104.523 83.9553 105.514 83.7805 106.271 84.3049L109.883 86.7518C110.582 87.2761 110.757 88.2665 110.233 89.0239Z" fill="white"/>
<path d="M113.029 93.6846L109.534 98.5784C108.194 100.443 105.63 100.85 103.766 99.5105L101.028 97.8792L109.359 86.2856L112.097 87.9169C113.903 89.2569 114.311 91.8785 113.029 93.6846Z" fill="white"/>
<defs>
<linearGradient id="paint0_linear_1793_268" x1="47.0226" y1="58.4971" x2="47.0226" y2="127.002" gradientUnits="userSpaceOnUse">
<stop stop-color="white"/>
<stop offset="1" stop-color="#E9E9E9"/>
</linearGradient>
<clipPath id="clip0_1793_268">
<rect width="90" height="98" fill="white" transform="translate(13 10)"/>
</clipPath>
</defs>
</svg>
