<svg width="104" height="100" viewBox="0 0 104 100" fill="none" xmlns="http://www.w3.org/2000/svg">
<path d="M103.742 30.5068C103.244 28.0926 101.639 26.5846 100.158 25.6508C100.124 20.7878 99.4597 16.5266 98.1385 12.6944C96.1048 6.79376 89.4432 7.3195 87.9629 12.8396C87.2504 15.4821 87.4648 18.0692 87.6655 20.9746L79.7519 18.2422C79.738 12.5837 79.6135 8.44704 80.3122 4.40033C80.7134 2.07606 78.8941 -0.0476099 76.5283 0.000812356C76.5007 0.000812356 32.1528 0.879327 32.1874 0.879327C30.9699 0.900079 29.9876 1.88927 29.9669 3.10675C28.4035 3.08599 27.4766 4.2758 27.5527 5.5002C27.7879 9.4224 27.8156 9.4985 27.442 12.4592C14.5617 18.9201 2.72591 24.5509 2.74667 24.5371C1.81973 24.9798 1.31475 25.9897 1.50152 26.9997C3.12713 35.5427 3.44533 33.7857 2.91269 34.8717L1.56378 35.3906C0.429317 35.8264 -0.15175 37.0853 0.242545 38.2336C0.948126 40.3019 1.54303 42.1212 3.00953 44.743C4.04715 46.6038 5.93562 47.3093 7.71341 46.8805C11.1583 54.7594 15.4886 62.3272 19.6875 69.6804C28.7217 85.4868 25.4014 80.2157 26.6327 82.1388C29.6487 87.8595 31.2466 91.5949 31.212 91.5189C32.2081 93.7809 35.0858 94.4795 37.0089 92.93C38.8766 91.4289 40.8826 89.8171 41.6297 89.2153C72.9105 100.221 71.7138 99.9997 73.6438 99.9997C74.045 99.9997 74.4462 99.9651 74.8336 99.889C78.7488 99.1557 80.2223 95.3027 80.7826 93.85L103.008 35.8402C103.444 34.6642 104.191 32.6997 103.742 30.5068Z" fill="white"/>
<path d="M38.7589 10.9374C27.7187 16.6028 16.5816 22.0676 5.40985 27.4217C9.72635 50.1248 25.3045 68.8435 34.6431 89.9763C46.3059 80.6031 57.9618 71.23 69.7907 61.4141C60.8326 43.6985 50.4218 26.7092 38.7589 10.9374Z" fill="#F48682"/>
<path d="M12.3412 34.4362C9.76788 35.9718 7.06315 37.2861 4.26849 38.3722C4.80114 39.9355 5.47905 41.4505 6.28839 42.8962C6.48208 43.2352 6.63427 43.3113 7.04931 43.1245C9.08997 42.2045 11.096 41.2291 13.0813 40.2053C14.5409 39.4513 14.1674 39.479 15.8207 35.8335C14.6516 35.1348 13.4272 34.5192 12.3412 34.4362Z" fill="#7FD4E7"/>
<path d="M17.647 47.4618C17.2803 47.4618 17.0313 47.0882 17.1627 46.7493L21.8251 35.1003C21.9012 34.9066 22.0603 34.5054 22.4754 34.3463C23.0357 34.1387 23.1048 34.3048 27.3453 36.4423C27.6219 36.5806 27.6081 36.6083 27.8848 36.3247C30.4719 33.6822 32.8861 30.8253 35.0651 27.8369C35.2312 27.6086 35.5563 27.5533 35.7915 27.7263C36.0198 27.8923 36.0751 28.2174 35.9022 28.4526C33.6955 31.4824 31.2467 34.3739 28.625 37.051C28.0093 37.6805 27.5528 37.7151 26.8749 37.3692C22.7382 35.287 22.9181 35.37 22.842 35.3424C22.8005 35.4185 23.0426 34.8236 18.1174 47.1297C18.0482 47.3373 17.8545 47.4618 17.647 47.4618Z" fill="white"/>
<path d="M23.3815 33.2048C22.9664 33.2463 22.5375 33.2878 22.1501 33.4469C20.2824 34.2079 21.5691 36.5806 22.7935 36.4699C23.4991 36.4076 23.9487 35.6467 24.0317 34.948C24.1147 34.2425 23.8588 33.3916 23.3815 33.2048Z" fill="#76A0EE"/>
<path d="M37.1057 44.5979C19.8674 52.4631 20.822 51.9512 20.6767 52.2279C20.5107 52.5461 20.6698 52.7536 21.659 54.9533C26.8955 52.47 32.2289 50.201 37.6453 48.1396C37.6868 47.1297 37.5346 46.1059 37.1057 44.5979Z" fill="#DB6460"/>
<path d="M36.241 53.6113C32.222 56.0809 28.0715 58.329 23.8173 60.3489C24.1839 61.1237 24.592 61.8846 25.0209 62.6248C25.2146 62.9499 25.3529 62.9637 25.6089 62.8323C37.6591 56.5858 36.8913 57.0493 36.995 56.8003C37.1195 56.4682 36.5385 54.8426 36.241 53.6113Z" fill="#DB6460"/>
<path d="M76.6045 3.7572C62.2577 4.05465 47.9039 4.34519 33.7024 4.60805C33.3634 26.5226 33.5848 48.444 34.3734 70.3447C47.6272 68.0688 60.888 65.7861 74.2733 63.9115C77.2616 37.1893 75.0342 12.8883 76.6045 3.7572Z" fill="#8574EE"/>
<path d="M31.3988 6.88379C39.8382 7.0083 39.3124 6.9668 39.4784 7.05673C39.6445 7.14665 39.6168 7.15357 41.0902 9.54701C40.7305 9.94823 38.9666 11.8436 38.3855 12.065C37.9428 12.231 37.9497 12.1756 31.3435 11.5323C31.5441 9.98281 31.4957 8.39871 31.3988 6.88379Z" fill="#FFC55A"/>
<path d="M52.9882 36.6153C49.654 35.135 45.5174 35.6745 42.6743 37.9504C39.8312 40.2262 38.3993 44.1484 39.1118 47.7247C40.8619 56.4961 52.3311 54.4693 55.2156 47.1437C56.6199 43.5881 56.4815 38.1648 52.9882 36.6153Z" fill="#FFC55A"/>
<path d="M55.4508 23.6033C53.2442 28.1066 46.3336 31.6483 42.2869 28.1827C39.9142 26.1697 38.7936 22.0676 39.2709 19.2315C39.8727 15.6897 43.117 12.8536 46.7072 12.4662C50.3803 12.0719 54.095 14.161 55.8866 17.0317C57.0903 18.9063 56.44 21.5834 55.4508 23.6033Z" fill="white"/>
<path d="M55.8175 16.942C53.002 18.5122 50.0068 19.7574 46.9078 20.6428C45.2752 18.5745 43.9402 16.271 42.9579 13.8291C47.4266 10.903 53.1058 12.8606 55.8175 16.942Z" fill="#F48682"/>
<path d="M51.2935 27.9892C48.4574 29.7393 44.8603 30.3895 42.287 28.1828C43.9403 25.7548 45.5313 23.2715 47.0531 20.6843C48.3605 23.1815 49.7786 25.6165 51.2935 27.9892Z" fill="#7FD4E7"/>
<path d="M52.5386 17.1009C48.0837 29.1442 47.8693 29.324 48.0145 30.666C48.1391 31.8212 48.8585 32.8173 49.1836 33.938C49.7854 35.9855 49.0176 38.1576 48.2636 40.1498C42.3561 55.728 42.2454 56.565 40.6267 58.1837C39.9142 58.8893 38.9665 59.415 37.9773 59.6571C36.4001 60.0514 35.155 61.2689 34.6016 62.8045L29.9392 75.8647C29.5034 77.0753 29.0745 78.4173 29.538 79.6209C30.0983 81.0736 31.7378 81.7515 33.2112 82.2634C46.0085 86.7666 58.8058 91.2699 71.6031 95.7732C72.4194 96.0568 73.2771 96.3542 74.128 96.1951C75.7882 95.8839 76.6459 94.0853 77.2477 92.5081C84.6563 73.1738 92.065 53.8326 99.4736 34.4983C99.8679 33.4676 100.269 32.3608 100.048 31.2817C99.6396 29.3171 97.4606 28.3556 95.5652 27.7053C83.7571 23.624 71.9559 19.5427 60.1478 15.4683C58.7159 14.9772 57.2286 14.4722 55.7275 14.6452C54.2264 14.8181 52.9813 15.9111 52.5386 17.1009Z" fill="#76A0EE"/>
<path d="M90.2388 35.0449C58.3769 22.7249 60.1616 23.299 59.5183 23.3751C58.5153 23.4927 58.0656 24.6618 57.8235 25.6441C57.3393 27.5879 56.8551 29.5317 56.3709 31.4755C56.0803 32.6376 56.2187 33.1979 57.7267 33.7375C67.2866 37.1824 76.8466 40.6273 86.5379 43.6641C87.8384 44.0722 88.4402 44.0099 89.3118 42.7648C90.4463 41.1461 91.2695 39.3061 91.726 37.3761C91.8505 36.8573 91.9405 36.297 91.7468 35.7989C91.5531 35.3009 90.972 34.9204 90.2388 35.0449Z" fill="#4D97F5"/>
<path d="M66.92 84.5185C66.7747 84.5185 68.5248 85.1687 42.2454 75.0762C41.9756 74.9724 41.8442 74.675 41.9479 74.4052C42.0517 74.1354 42.3491 74.004 42.6189 74.1077L67.1067 83.5155C67.6394 83.723 67.4941 84.5185 66.92 84.5185Z" fill="#4D97F5"/>
<path d="M63.7172 79.137C63.5927 79.137 63.8555 79.2131 60.2515 77.9679C60.0232 77.8918 59.8849 77.6705 59.9056 77.4284C58.4391 77.5736 56.9173 77.5044 55.4992 76.9372C55.1672 76.8058 55.0634 76.3907 55.2986 76.1209C56.0319 75.2632 56.9726 74.5645 58.0103 74.108C57.0211 73.686 55.4162 74.3293 54.4408 74.779C53.5416 75.367 52.6285 75.9273 51.7015 76.4599C51.1481 76.7781 50.6224 75.9964 51.1205 75.6021C53.258 73.9212 53.002 74.7375 56.8343 71.8183C55.8382 71.3202 53.5692 71.846 52.504 72.2195C51.1827 73.1534 49.7992 74.0042 48.3742 74.7651C47.8485 75.0487 47.3366 74.3501 47.7655 73.935C48.9691 72.7729 50.4287 71.8667 52.0128 71.2926C52.9398 70.6354 53.8321 69.9437 54.6968 69.2104C54.8282 69.0997 55.0773 68.8853 55.098 68.7193C55.1188 68.5532 54.8767 68.325 54.5515 68.1935C53.1819 67.6609 51.5909 68.325 50.3526 68.9683C48.5472 69.9091 46.8316 71.0297 45.2475 72.3025C45.0262 72.4824 44.7011 72.4478 44.5212 72.2264C44.3414 72.0051 44.3759 71.6799 44.5973 71.5001C46.2367 70.1789 48.0076 69.0236 49.8753 68.0483C51.3072 67.3012 53.175 66.5403 54.932 67.2251C55.5407 67.4603 56.2186 68.0206 56.1287 68.823C56.0526 69.5148 55.4716 69.9298 54.5654 70.6562C55.852 70.4901 57.3393 70.4694 58.0656 71.5485C58.2178 71.7768 58.1694 72.0811 57.9549 72.2472C57.6575 72.4824 57.3531 72.7106 57.0487 72.9389C58.0172 72.9043 58.958 73.188 59.4076 74.0734C59.5529 74.357 59.4076 74.7098 59.0963 74.8066C58.1901 75.0833 57.3324 75.5814 56.6268 76.2247C58.2939 76.6605 60.0993 76.4461 62.057 76.0172C62.5896 75.8235 63.1361 75.6921 63.7033 75.6298C64.3397 75.5468 64.5196 76.4876 63.8901 76.6467C62.2092 77.0686 62.306 76.9856 61.6073 77.3454L63.8832 78.1339C64.4366 78.3207 64.2982 79.137 63.7172 79.137Z" fill="white"/>
<path d="M85.9706 40.5791C85.8254 40.5791 87.617 41.2362 59.961 30.7632C59.6912 30.6594 59.5598 30.362 59.6566 30.0922C59.7604 29.8224 60.0578 29.691 60.3276 29.7878L86.1505 39.5691C86.6901 39.7766 86.5448 40.5791 85.9706 40.5791Z" fill="white"/>
<path d="M85.0369 51.2316C84.7809 51.2316 69.521 46.0297 52.7323 39.1468C52.4694 39.0361 52.338 38.7317 52.4487 38.4689C52.5594 38.206 52.8637 38.0746 53.1266 38.1853C63.6481 42.5018 74.4393 46.5485 85.2029 50.2216C85.7632 50.4084 85.6248 51.2316 85.0369 51.2316Z" fill="white"/>
<path d="M83.349 56.7245C83.0654 56.7245 65.6956 50.5196 49.9999 44.4668C49.7301 44.363 49.5987 44.0656 49.7024 43.7958C49.8062 43.526 50.1037 43.3946 50.3734 43.4983C61.3099 47.718 72.4609 51.827 83.5219 55.7146C84.0684 55.9083 83.9301 56.7245 83.349 56.7245Z" fill="white"/>
<path d="M79.2262 65.0874C78.7489 65.0874 66.6986 60.1276 64.6234 59.256C64.3605 59.1453 64.236 58.841 64.3467 58.5781C64.4574 58.3152 64.7617 58.1907 65.0246 58.3014C69.77 60.3006 74.6053 62.2444 79.406 64.0844C79.9456 64.2919 79.8003 65.0874 79.2262 65.0874Z" fill="white"/>
<path d="M93.2963 33.4055C91.8851 33.4055 90.6192 32.3541 90.0243 31.1781C89.3464 29.8361 89.3049 28.3212 89.2634 26.9792C89.2565 26.6956 89.4778 26.4535 89.7684 26.4466C90.052 26.4397 90.2941 26.661 90.301 26.9516C90.3356 28.1829 90.3771 29.5802 90.9513 30.7146C91.4355 31.6762 92.5492 32.5685 93.6629 32.3333C94.3754 32.1811 95.0395 31.5586 95.3992 30.6939C95.7451 29.8569 95.8004 28.9161 95.835 27.9407C96.0218 22.5797 95.4476 18.0488 94.0849 14.092C93.4623 12.2934 92.5008 12.4249 92.0926 13.9536C91.6568 15.5654 91.7191 17.2463 91.8298 19.1141C92.0096 22.1093 92.2725 25.1392 92.6115 28.1137C92.653 28.508 92.9297 29.4626 93.3101 29.3588C93.4969 29.3104 93.6422 28.9784 93.7183 28.4595C94.2509 24.5788 93.822 20.5806 92.4869 16.9005C92.3901 16.6307 92.5285 16.3332 92.7982 16.2364C93.068 16.1395 93.3655 16.2779 93.4623 16.5477C94.8527 20.3869 95.2954 24.5581 94.742 28.6048C94.6037 29.6009 94.2163 30.1958 93.5799 30.3688C92.4385 30.6801 91.7191 29.4418 91.5808 28.2382C91.2349 25.2429 90.972 22.1923 90.7922 19.1832C90.6469 16.769 90.4878 11.9337 92.8951 11.7539C93.8289 11.6847 94.5968 12.3972 95.0672 13.7669C96.4714 17.8482 97.0663 22.4967 96.8726 27.9892C96.838 29.013 96.7689 30.099 96.3538 31.102C95.8212 32.4025 94.6867 33.4055 93.2963 33.4055Z" fill="#EAE5DB"/>
</svg>
