<svg width="161" height="231" viewBox="0 0 161 231" fill="none" xmlns="http://www.w3.org/2000/svg">
<path d="M65.6511 195.207C65.6511 195.207 54.3166 214.469 53.9093 214.887C53.4963 215.306 48.0298 213.184 48.0298 213.184L55.1655 190.503L65.6569 195.207H65.6511Z" fill="#FFD5D9"/>
<path d="M55.8019 213.878C55.561 212.685 53.4042 214.434 50.8631 213.769C48.322 213.103 48.9415 211.474 47.7828 211.652C46.6241 211.83 35.6624 209.799 34.6701 209.731C33.672 209.656 32.1921 210.666 33.5401 212.558C34.8823 214.451 39.5687 216.952 42.6834 218.891C46.1939 221.071 51.2532 223.595 52.1996 222.551C53.1404 221.507 56.0543 215.077 55.8134 213.878H55.8019Z" fill="#4E6482"/>
<path d="M66.5975 138.815C66.5975 138.815 44.4274 205.767 46.3834 207.098C48.3395 208.429 58.1826 212.404 59.9321 210.471C61.6817 208.538 88.4636 154.618 88.4636 154.618L66.5918 138.815H66.5975Z" fill="#E87800"/>
<path d="M33.2131 194.639C33.2131 194.639 21.8786 213.901 21.4713 214.319C21.0583 214.738 15.5918 212.616 15.5918 212.616L22.7275 189.935L33.2189 194.639H33.2131Z" fill="#FFD5D9"/>
<path d="M23.4848 213.201C23.2438 212.008 20.783 213.792 18.2362 213.121C15.6894 212.449 16.0278 210.614 14.8691 210.792C13.7104 210.97 3.22481 209.237 2.22672 209.163C1.22864 209.088 -0.25128 210.098 1.09671 211.991C2.43896 213.883 7.12535 216.384 10.2401 218.323C13.7506 220.503 18.4829 222.987 19.4236 221.943C20.3643 220.899 23.7257 214.4 23.4905 213.201H23.4848Z" fill="#4E6482"/>
<path d="M81.6601 137.903C80.0081 139.331 40.8305 134.811 36.1326 141.666C31.4405 148.521 12.408 204.316 13.538 205.876C14.668 207.442 25.4978 211.704 27.8095 210.471C30.1154 209.237 54.8381 161.645 55.6985 161.656C56.5589 161.662 84.075 165.367 84.6487 164.513C85.2223 163.658 89.5989 153.086 95.1171 147.115C100.635 141.144 111.247 135.89 104.828 135.064C98.4096 134.238 81.6601 137.903 81.6601 137.903Z" fill="#E87800"/>
<path d="M98.8 32.2667C98.8745 32.9149 98.9262 34.6644 98.9434 35.3183C99.0237 38.6051 99.1728 40.5439 100.263 42.041C101.892 44.2723 103.647 44.3182 106.911 44.5936C111.356 44.9664 111.643 46.3201 111.637 47.1232C111.632 47.9205 111.637 56.7082 111.637 56.7082L130.928 54.6949C130.928 54.6949 130.033 35.0716 129.689 26.8632C129.339 18.6549 117.769 7.57843 117.769 7.57843C117.769 7.57843 108.574 8.65681 105.5 11.3012C102.419 13.9455 101.026 19.8078 100.796 21.2877C100.567 22.7734 99.8095 24.0124 98.8745 25.4923C97.9453 26.9722 95.1461 29.0258 95.6394 29.9779C96.0753 30.8212 98.7369 31.7791 98.7942 32.2724L98.8 32.2667Z" fill="#FFD5D9"/>
<path d="M102.907 24.6204C102.982 24.5057 103.062 24.391 103.182 24.3336C103.957 23.9894 104.261 24.9359 104.203 25.8651C104.186 26.1347 104.06 26.4043 103.859 26.5879C103.658 26.7714 103.354 26.8575 103.108 26.7428C102.855 26.628 102.718 26.3412 102.66 26.0716C102.569 25.63 102.632 25.1596 102.832 24.7581C102.855 24.7122 102.884 24.6663 102.913 24.6204H102.907Z" fill="#130806"/>
<path d="M107.232 22.1138C107.823 22.1941 108.397 22.3432 108.976 22.4751C110.215 21.6205 108.454 20.4216 107.703 20.2094C106.515 19.8709 105.27 19.7734 104.037 19.6702C103.538 19.63 102.97 19.6186 102.626 19.9799C102.219 20.4101 102.402 21.173 102.861 21.5459C103.32 21.9187 106.355 21.9187 107.215 22.1195C107.221 22.1195 107.226 22.1195 107.232 22.1195V22.1138Z" fill="#452B2B"/>
<path d="M100.01 37.194C99.9006 37.194 99.7973 37.2054 99.6883 37.194C99.4933 37.2054 99.304 37.194 99.1205 37.194C99.0574 36.4827 99.0172 35.7886 99 35.1634C99.1262 35.1404 99.2581 35.1462 99.3901 35.1863C99.4646 35.2035 99.5392 35.2207 99.6138 35.238C99.8662 35.3011 100.13 35.3584 100.417 35.4043C101.558 35.6051 102.321 35.2494 102.562 35.5764C102.803 35.9033 101.971 37.1022 100.01 37.1997V37.194Z" fill="#C43737"/>
<path d="M136.934 23.1864C137.278 22.2227 137.829 21.3049 138.024 20.2954C138.316 18.8155 137.823 17.2782 137.06 15.9818C136.509 15.0411 135.798 14.1692 135.517 13.1138C135.333 12.4312 135.339 11.7084 135.259 11.0086C134.978 8.4962 133.572 6.15588 131.57 4.60713C129.569 3.05838 127.016 2.28973 124.486 2.31841C123.379 2.32988 122.249 2.49049 121.194 2.1578C120.104 1.81936 119.226 0.993372 118.182 0.534483C115.509 -0.652893 112.331 0.752457 110.221 2.77731C108.356 4.56124 106.98 6.76963 105.242 8.66829C103.825 10.217 103.148 12.6492 104.657 14.4101C105.689 15.6205 107.358 16.0507 108.678 16.9455C110.146 17.9436 111.173 19.5726 111.431 21.3279C111.66 22.8537 111.368 24.5401 112.205 25.8307C111.46 26.3011 111.087 27.2934 111.345 28.1367C111.936 26.9837 113.697 26.6625 114.66 27.5286C115.578 28.3546 115.601 29.7485 115.727 30.976C115.911 32.7714 116.45 34.5496 117.448 36.0582C118.825 38.1462 121.102 39.6662 123.591 39.9473C126.081 40.2227 128.714 39.1844 130.199 37.171C131.249 35.7485 131.754 33.8842 133.154 32.8116C134.312 31.9282 135.987 31.6701 136.773 30.4426C137.903 28.6873 136.429 26.3929 136.653 24.3164C136.693 23.9263 136.796 23.5535 136.928 23.1864H136.934Z" fill="#5E4444"/>
<path d="M119.668 33.6549C119.611 33.6549 119.553 33.6377 119.502 33.6032C119.438 33.5631 117.987 32.5248 117.012 30.282C116.605 29.3413 116.467 28.3719 116.335 27.4427C116.157 26.1922 115.991 25.0163 115.159 24.1559C113.633 22.5842 111.901 20.2438 111.884 20.2209C111.792 20.0947 111.815 19.9111 111.941 19.8194C112.067 19.7276 112.251 19.7505 112.343 19.8824C112.36 19.9054 114.069 22.2113 115.567 23.7601C116.53 24.7524 116.708 26.0201 116.897 27.3681C117.024 28.2629 117.155 29.1864 117.534 30.0583C118.44 32.1463 119.811 33.1329 119.828 33.1386C119.96 33.2304 119.989 33.4082 119.897 33.5402C119.84 33.6205 119.754 33.6606 119.662 33.6606L119.668 33.6549Z" fill="#452B2B"/>
<path d="M125.553 32.6567C124.658 32.6567 123.592 32.4502 122.444 31.802C121.171 31.085 119.467 29.5936 118.578 26.565C118.561 26.5076 118.549 26.4674 118.544 26.4502C118.486 26.3011 118.561 26.1347 118.71 26.0774C118.859 26.02 119.02 26.0889 119.077 26.238C119.089 26.2667 119.106 26.324 119.129 26.4043C119.966 29.2495 121.544 30.6376 122.725 31.303C125.502 32.8689 127.744 31.6013 127.842 31.5439C127.98 31.4636 128.152 31.5095 128.232 31.6471C128.312 31.7848 128.266 31.9569 128.129 32.0372C128.066 32.0773 127.05 32.6567 125.553 32.6567Z" fill="#452B2B"/>
<path d="M133.389 10.9972C133.245 10.9972 133.119 10.8882 133.102 10.739C133.102 10.7218 132.896 8.80596 131.312 7.13675C129.723 5.46181 125.02 4.69891 124.974 4.68744C124.819 4.66449 124.71 4.51535 124.733 4.36048C124.756 4.2056 124.905 4.09662 125.06 4.11957C125.261 4.15398 130.005 4.92263 131.725 6.74098C133.446 8.55933 133.658 10.6014 133.664 10.6874C133.681 10.848 133.567 10.9857 133.406 10.9972C133.395 10.9972 133.389 10.9972 133.377 10.9972H133.389Z" fill="#452B2B"/>
<path d="M135.539 28.4006C135.419 28.4006 135.31 28.326 135.27 28.2055C135.247 28.1367 134.685 26.4388 134.541 24.9876C134.495 24.5115 134.49 23.9895 134.478 23.4331C134.461 22.2858 134.45 21.0985 134.077 20.152C133.79 19.4121 133.245 18.7983 132.671 18.1444C132.161 17.565 131.639 16.9627 131.266 16.2457C131.019 15.7696 130.853 15.2534 130.675 14.7027C130.297 13.5383 129.872 12.219 128.501 10.9169C126.551 9.05265 122.88 8.89776 122.845 8.89776C122.685 8.89203 122.564 8.7601 122.57 8.59949C122.57 8.43888 122.708 8.31268 122.868 8.32415C123.029 8.32989 126.792 8.49051 128.897 10.5039C130.371 11.9092 130.819 13.3031 131.22 14.5306C131.392 15.0526 131.553 15.5459 131.776 15.9876C132.115 16.6473 132.62 17.2151 133.102 17.7715C133.681 18.4312 134.283 19.1195 134.604 19.9513C135.012 20.9952 135.029 22.2916 135.04 23.4331C135.046 23.9723 135.052 24.4828 135.098 24.9359C135.235 26.3184 135.798 28.0105 135.803 28.0277C135.855 28.1768 135.775 28.3375 135.62 28.3891C135.591 28.4006 135.557 28.4063 135.528 28.4063L135.539 28.4006Z" fill="#452B2B"/>
<path d="M106.354 10.6874C106.309 10.6874 106.263 10.676 106.217 10.653C106.079 10.5784 106.027 10.4006 106.102 10.263C106.194 10.0966 108.351 6.20178 110.301 4.69892C112.263 3.18458 114.976 2.84042 115.091 2.82321C115.251 2.79453 115.389 2.91499 115.412 3.06986C115.429 3.22474 115.32 3.36814 115.165 3.39108C115.136 3.39108 112.492 3.73526 110.657 5.15208C108.798 6.58037 106.636 10.4981 106.613 10.5383C106.561 10.6301 106.463 10.6874 106.36 10.6874H106.354Z" fill="#452B2B"/>
<path d="M112.113 7.84232C112.027 7.84232 111.947 7.8079 111.89 7.73334C111.792 7.61288 111.809 7.42933 111.93 7.33182C112.004 7.27446 113.771 5.85189 115.635 5.4561C117.465 5.07178 119.404 5.15783 119.484 5.16357C119.645 5.1693 119.765 5.30696 119.76 5.46184C119.754 5.62245 119.616 5.74865 119.461 5.73144C119.444 5.73144 117.517 5.64539 115.756 6.0125C114.029 6.37388 112.308 7.75628 112.291 7.76775C112.24 7.81364 112.177 7.83086 112.113 7.83086V7.84232Z" fill="#452B2B"/>
<path d="M116.272 15.4427C116.18 15.4427 116.094 15.4025 116.037 15.3222C116.037 15.3222 115.739 15.0641 114.551 14.8633C113.198 14.6396 111.064 15.2305 111.041 15.2362C110.892 15.2821 110.731 15.1903 110.685 15.0354C110.639 14.8806 110.731 14.7257 110.886 14.6798C110.978 14.6569 113.163 14.0431 114.643 14.2897C116.083 14.5306 116.433 14.8806 116.502 14.9781C116.593 15.1043 116.565 15.2878 116.433 15.3796C116.381 15.414 116.324 15.4312 116.266 15.4312L116.272 15.4427Z" fill="#452B2B"/>
<path d="M144.184 54.9301C144.184 54.9301 136.297 53.324 134.175 51.8842C131.622 49.0735 134.312 47.3814 129.626 47.3355C124.94 47.2896 110.565 51.1672 109.98 52.5037C109.395 53.8402 110.163 53.5592 108.333 54.5917C106.509 55.6242 97.8765 58.2226 96.3163 61.6471C94.7561 65.0716 93.7752 67.6471 91.1825 78.712C88.5897 89.777 81.9187 128.513 81.2074 132.815C80.4961 137.117 74.7428 139.073 85.5324 140.8C96.322 142.526 132.058 143.628 136.974 139.756C141.89 135.884 144.184 54.9244 144.184 54.9244V54.9301Z" fill="white"/>
<path d="M141.953 54.4368C141.953 54.4368 153.178 55.8364 154.842 60.1958C158.106 68.7369 162.425 102.959 159.689 106.056C153.97 112.538 133.578 115.389 133.578 115.389C133.578 115.389 136.274 73.0218 136.722 71.1174C137.169 69.2073 141.953 54.4425 141.953 54.4425V54.4368Z" fill="white"/>
<path d="M104.679 56.1519C104.679 56.1519 91.7904 60.3163 87.5858 64.5782C83.387 68.8401 73.1587 90.7323 72 92L82 113.5C87.5 109.5 92.7082 99.9012 92.7082 99.9012C92.7082 99.9012 108.563 69.6489 108.959 68.9319C109.354 68.2206 104.679 56.1461 104.679 56.1461V56.1519Z" fill="white"/>
<path d="M102.837 167.457L98.7354 167.418L98.2038 223.819L102.305 223.858L102.837 167.457Z" fill="#133671"/>
<path d="M98.2207 222.453C98.2207 222.453 84.0755 225.115 84.064 226.36C84.0525 227.604 89.4502 230.73 99.3507 230.903C111.098 231.109 116.743 227.822 116.146 226.469C115.55 225.115 102.316 222.585 102.316 222.585L98.2207 222.453Z" fill="#133671"/>
<path d="M100.222 90.9357C103.022 88.3716 147.23 85.9682 149.622 89.6164C152.014 93.2645 146.542 163.371 136.205 171.74C125.134 180.7 82.4749 176.398 81.3965 171.855C80.3181 167.306 97.4232 93.4997 100.222 90.9357Z" fill="#A5C4EF"/>
<path d="M85.4633 157.647C85.0331 157.658 54.9529 156.591 52.2569 159.155C49.5667 161.725 48.5973 167.209 51.6432 169.153C54.6891 171.098 69.8095 173.346 87.0866 175.538C104.358 177.729 129.081 174.603 129.081 174.603C129.081 174.603 109.893 159.488 108.391 159.528C106.888 159.568 85.4576 157.647 85.4576 157.647H85.4633Z" fill="#A5C4EF"/>
</svg>
