<svg width="200" height="300" viewBox="0 0 200 300" fill="none" xmlns="http://www.w3.org/2000/svg">
<g clip-path="url(#clip0_181_25622)">
<rect width="200" height="300" rx="4" fill="white"/>
<g clip-path="url(#clip1_181_25622)">
<path d="M204.444 -34.4445H-1.11108V277.093H204.444V-34.4445Z" fill="#31BC87"/>
<path d="M204.445 -34.4445V96.0611C202.473 94.7056 200.747 93.1035 199.022 91.3782C194.586 86.9418 191.258 82.0124 188.917 76.59C183.864 65.1292 174.745 56.0098 163.407 51.0805C157.985 48.739 153.056 45.4117 148.619 40.9752C144.183 36.5388 140.855 31.6094 138.514 26.187C133.461 14.7262 124.465 5.60683 113.004 0.677444C107.705 -1.66401 102.653 -4.99135 98.2161 -9.4278C91.1918 -16.4522 86.7553 -25.3251 85.03 -34.4445H204.445Z" fill="#3DD396"/>
<path d="M117.441 277.093H-1.11108V168.154C2.33949 170.372 5.9133 172.344 9.61034 173.946C17.6206 177.519 25.2612 182.572 31.7926 189.103C38.324 195.758 43.4999 203.275 46.9505 211.286C54.4678 228.415 68.1468 242.218 85.3997 249.735C94.3958 253.678 102.776 259.47 109.923 267.357C112.758 270.438 115.223 273.766 117.441 277.093Z" fill="#21A56F"/>
<path d="M204.444 222.007H-1.11108V277.093H204.444V222.007Z" fill="#DE5728"/>
<path d="M204.444 206.972H-1.11108V222.13H204.444V206.972Z" fill="#F26F51"/>
<path d="M204.444 222.007H-1.11108V232.728H204.444V222.007Z" fill="#C9431F"/>
<path d="M204.444 277.093H-1.11108V331.07H204.444V277.093Z" fill="#8D89DB"/>
<path d="M204.444 277.093V331.07H168.706C164.147 323.183 157.122 316.898 148.742 313.201C144.059 311.106 139.746 308.271 135.926 304.451C132.106 300.631 129.148 296.318 127.176 291.635C124.711 286.089 121.138 281.16 116.824 277.093H204.444Z" fill="#9797F2"/>
<path d="M59.2739 331.07H-1.11108V277.093H1.35361C5.42036 281.529 10.3497 284.98 15.8953 287.445C20.5782 289.417 24.8914 292.374 28.7117 296.194C32.532 300.015 35.4896 304.328 37.4614 309.011C41.6514 318.87 49.4152 326.757 59.2739 331.07Z" fill="#7A7ACE"/>
<path d="M70.7556 155.168L65.2566 149.779V99.4079L70.7556 94.0189V155.168Z" fill="#D39424"/>
<path d="M26.5435 155.168L32.0425 149.779V99.4079L26.5435 94.0189V155.168Z" fill="#D39424"/>
<path d="M26.5435 155.168H70.7556L65.2565 149.779H32.0425L26.5435 155.168Z" fill="#E7AB36"/>
<path d="M70.7556 94.0189H26.5435L32.0425 99.4079H65.2565L70.7556 94.0189Z" fill="#E7AB36"/>
<path d="M65.2568 99.4079H32.0427V149.779H65.2568V99.4079Z" fill="#8D89DB"/>
<path d="M65.2567 99.4079V133.832C63.057 132.952 61.0774 131.632 59.3177 129.982C57.778 128.443 56.5682 126.573 55.6884 124.593C53.9287 120.414 50.6293 117.115 46.45 115.355C44.4704 114.475 42.7107 113.265 41.061 111.726C39.5213 110.186 38.2015 108.316 37.4316 106.337C36.2218 103.587 34.3522 101.168 31.9326 99.4079H65.2567Z" fill="#9797F2"/>
<path d="M60.1977 149.779H32.0427V125.033C33.5824 126.573 35.4521 127.893 37.5417 128.773C39.5214 129.653 41.2811 130.862 42.9308 132.402C44.4705 133.942 45.6803 135.811 46.5601 137.791C48.3198 141.86 51.6192 145.27 55.7985 147.029C57.3382 147.689 58.8779 148.569 60.1977 149.779Z" fill="#7A7ACE"/>
<path d="M121.787 155.168L116.288 149.779V99.4079L121.787 94.0189V155.168Z" fill="#D39424"/>
<path d="M77.5745 155.168L83.0735 149.779V99.4079L77.5745 94.0189V155.168Z" fill="#D39424"/>
<path d="M77.5745 155.168H121.787L116.288 149.779H83.0735L77.5745 155.168Z" fill="#E7AB36"/>
<path d="M121.787 94.0189H77.5745L83.0735 99.4079H116.288L121.787 94.0189Z" fill="#E7AB36"/>
<path d="M116.288 99.4079H83.0737V149.779H116.288V99.4079Z" fill="#8D89DB"/>
<path d="M116.288 99.4079V133.832C114.088 132.952 112.108 131.632 110.349 129.982C108.809 128.443 107.599 126.573 106.719 124.593C104.96 120.414 101.66 117.115 97.481 115.355C95.5014 114.475 93.7417 113.265 92.092 111.726C90.5523 110.186 89.2325 108.316 88.4626 106.337C87.2529 103.587 85.3832 101.168 82.9636 99.4079H116.288Z" fill="#9797F2"/>
<path d="M111.229 149.779H83.0737V125.033C84.6135 126.573 86.4831 127.893 88.5727 128.773C90.5524 129.653 92.3121 130.862 93.9618 132.402C95.5015 133.942 96.7113 135.811 97.5911 137.791C99.3508 141.86 102.65 145.27 106.829 147.029C108.369 147.689 109.909 148.569 111.229 149.779Z" fill="#7A7ACE"/>
<path d="M172.817 155.168L167.318 149.779V99.4079L172.817 94.0189V155.168Z" fill="#D39424"/>
<path d="M128.605 155.168L134.104 149.779V99.4079L128.605 94.0189V155.168Z" fill="#D39424"/>
<path d="M128.605 155.168H172.817L167.318 149.779H134.104L128.605 155.168Z" fill="#E7AB36"/>
<path d="M172.817 94.0189H128.605L134.104 99.4079H167.318L172.817 94.0189Z" fill="#E7AB36"/>
<path d="M167.319 99.4079H134.104V149.779H167.319V99.4079Z" fill="#8D89DB"/>
<path d="M167.318 99.4079V133.832C165.119 132.952 163.139 131.632 161.379 129.982C159.84 128.443 158.63 126.573 157.75 124.593C155.99 120.414 152.691 117.115 148.512 115.355C146.532 114.475 144.772 113.265 143.123 111.726C141.583 110.186 140.263 108.316 139.493 106.337C138.284 103.587 136.414 101.168 133.994 99.4079H167.318Z" fill="#9797F2"/>
<path d="M162.259 149.779H134.104V125.033C135.644 126.573 137.514 127.893 139.604 128.773C141.583 129.653 143.343 130.862 144.993 132.402C146.532 133.942 147.742 135.811 148.622 137.791C150.382 141.86 153.681 145.27 157.86 147.029C159.4 147.689 160.94 148.569 162.259 149.779Z" fill="#7A7ACE"/>
<path d="M94.8413 250.521C94.8413 249.201 95.3912 247.991 96.2711 247.222C97.1509 246.342 98.2507 245.792 99.5705 245.792H158.08C160.72 245.792 162.809 247.881 162.809 250.521C162.809 251.401 162.589 252.281 162.039 253.051C161.819 253.38 161.599 253.6 161.379 253.93C160.5 254.81 159.4 255.36 158.08 255.36H99.5705C97.0409 255.36 94.9513 253.38 94.8413 250.851C94.8413 250.741 94.8413 250.631 94.8413 250.521Z" fill="#D39424"/>
<path d="M94.8413 250.851C98.2507 251.841 101.66 253.16 105.179 252.941C109.249 252.611 112.878 250.301 116.947 249.971C122.336 249.641 127.286 252.941 132.565 252.941C137.844 252.941 142.793 249.751 148.072 250.081C152.141 250.411 155.77 252.721 159.73 253.051C160.5 253.161 161.159 253.051 161.929 253.051C161.709 253.38 161.489 253.6 161.269 253.93C160.39 254.81 159.29 255.36 157.97 255.36H99.5705C97.0409 255.25 94.9513 253.27 94.8413 250.851Z" fill="#E7AB36"/>
<path d="M176.667 187.612V213.348C176.667 216.427 174.137 218.957 171.058 218.957H162.039L160.39 182.003H171.058C174.137 182.003 176.667 184.533 176.667 187.612Z" fill="#E7AB36"/>
<path d="M166.988 218.957H162.039L160.39 182.003H165.339L166.988 218.957Z" fill="#D39424"/>
<path d="M170.068 218.957V248.981C170.068 249.861 169.738 250.631 169.188 251.181C168.638 251.731 167.868 252.061 166.988 252.061H162.809V248.871H166.328C166.768 248.871 167.098 248.541 167.098 248.101V218.847H170.068V218.957Z" fill="#4030BF"/>
<path d="M170.178 218.957H166.988V226.655H170.178V218.957Z" fill="#2923AC"/>
<path d="M107.929 255.25V287.364C107.929 288.244 107.159 288.904 106.389 288.904C105.509 288.904 104.85 288.244 104.85 287.364V255.25H107.929Z" fill="#4030BF"/>
<path d="M107.929 255.25H104.74V262.949H107.929V255.25Z" fill="#2923AC"/>
<path d="M118.267 255.25V287.364C118.267 288.244 117.497 288.904 116.727 288.904C115.848 288.904 115.188 288.244 115.188 287.364V255.25H118.267Z" fill="#4030BF"/>
<path d="M118.267 255.25H115.078V262.949H118.267V255.25Z" fill="#2923AC"/>
<path d="M142.463 255.25V287.364C142.463 288.244 141.693 288.904 140.923 288.904C140.043 288.904 139.384 288.244 139.384 287.364V255.25H142.463Z" fill="#4030BF"/>
<path d="M142.463 255.25H139.273V262.949H142.463V255.25Z" fill="#2923AC"/>
<path d="M152.801 255.25V287.364C152.801 288.244 152.031 288.904 151.261 288.904C150.382 288.904 149.722 288.244 149.722 287.364V255.25H152.801Z" fill="#4030BF"/>
<path d="M152.801 255.25H149.612V262.949H152.801V255.25Z" fill="#2923AC"/>
<path d="M121.786 114.805C121.786 115.135 121.786 115.465 121.566 115.795C121.237 116.345 120.577 116.455 120.027 116.455C118.377 116.455 116.287 117.005 114.748 116.455C113.318 116.015 112.218 115.025 111.558 113.815C111.448 113.595 111.228 113.375 111.228 113.155C109.359 109.086 111.118 102.487 116.617 103.367C120.797 104.027 121.676 108.536 121.786 112.386C121.786 113.155 121.786 114.035 121.786 114.805Z" fill="#F6F6F6"/>
<path d="M121.786 112.276C121.786 113.155 121.786 114.035 121.786 114.695C121.786 115.025 121.786 115.355 121.566 115.685C121.236 116.235 120.576 116.345 120.027 116.345C118.377 116.345 116.287 116.895 114.748 116.345C113.318 115.905 112.218 114.915 111.558 113.705C111.558 113.705 111.668 113.595 111.778 113.595C113.758 112.715 115.847 112.276 118.157 112.276H121.786Z" fill="#ECECEC"/>
<path d="M147.412 114.805C147.412 115.135 147.412 115.465 147.302 115.795C146.972 116.345 146.312 116.455 145.652 116.455C144.002 116.455 141.913 117.005 140.373 116.455C138.723 115.905 137.514 114.585 136.744 113.045C136.634 112.825 136.524 112.606 136.414 112.276C134.984 108.206 136.854 102.377 142.133 103.257C146.312 103.917 147.192 108.426 147.302 112.276C147.412 113.155 147.412 114.035 147.412 114.805Z" fill="#F6F6F6"/>
<path d="M147.412 114.805C147.412 115.135 147.412 115.465 147.302 115.795C146.972 116.345 146.312 116.455 145.652 116.455C144.002 116.455 141.913 117.005 140.373 116.455C138.723 115.905 137.514 114.585 136.744 113.045C136.634 112.825 136.524 112.606 136.414 112.276H146.752C146.972 112.276 147.082 112.276 147.302 112.276C147.412 113.155 147.412 114.035 147.412 114.805Z" fill="#ECECEC"/>
<path d="M162.699 235.234C162.699 241.063 157.97 245.902 152.031 245.902H123.106C120.467 245.902 118.267 248.101 118.267 250.741V270.757C118.267 273.507 116.727 275.816 114.418 276.916H114.308H114.198C114.088 277.026 113.868 277.026 113.758 277.136C113.538 277.246 113.318 277.246 112.988 277.356C112.438 277.466 111.888 277.576 111.338 277.576C110.898 277.576 110.348 277.466 109.909 277.356C109.469 277.246 108.919 277.026 108.479 276.806C106.169 275.706 104.629 273.177 104.629 270.537V245.902H95.7211C92.6416 245.902 90.222 248.321 90.222 251.401V270.757C90.222 273.507 88.6823 275.816 86.3727 276.916H86.2627H86.1528C86.0428 277.026 85.8228 277.026 85.7128 277.136C85.4929 277.246 85.2729 277.246 84.943 277.356C84.3931 277.466 83.8432 277.576 83.2933 277.576C82.7434 277.576 82.3035 277.466 81.8635 277.356C81.4236 277.246 80.8737 277.026 80.4338 276.806C78.1242 275.596 76.5845 273.177 76.5845 270.537V245.792C76.5845 240.183 79.334 235.234 83.5132 232.154C86.2627 230.175 89.6721 228.965 93.4115 228.965H103.09C105.619 228.965 107.709 226.875 107.709 224.346V210.268H84.833C81.5336 210.268 78.8941 207.629 78.8941 204.329C78.8941 201.03 81.5336 198.39 84.833 198.39H106.389C106.829 198.39 107.269 198.39 107.709 198.39V178.704C107.709 176.394 105.839 174.414 103.42 174.414H102.87C95.831 174.414 90.1121 168.695 90.1121 161.657V161.547C90.1121 155.828 93.8514 150.989 99.1304 149.339C101.33 148.679 102.98 146.699 102.98 144.28V130.862C102.98 126.463 104.739 122.504 107.599 119.644C109.029 118.215 110.568 117.115 112.438 116.345C114.418 115.465 116.507 115.025 118.817 115.025H147.412C153.241 115.025 157.97 119.754 157.97 125.583V125.693L158.74 142.3L162.699 233.254V235.234Z" fill="#F6F6F6"/>
<path d="M158.63 142.19C155.44 138.451 151.041 135.921 146.202 135.151C143.782 134.712 141.363 133.832 139.053 132.512C136.854 131.192 134.874 129.432 133.334 127.453C130.145 123.274 125.416 120.414 120.137 119.534C117.717 119.094 115.297 118.214 112.988 116.895C112.658 116.675 112.438 116.565 112.218 116.345C114.198 115.465 116.287 115.025 118.597 115.025H147.412C153.241 115.025 157.97 119.754 157.97 125.583V125.693L158.63 142.19Z" fill="#FFFDFF"/>
<path d="M162.699 235.234C162.699 241.063 157.97 245.902 152.031 245.902H123.106C120.467 245.902 118.267 248.101 118.267 250.741V250.961C116.397 250.081 114.418 249.421 112.328 249.091C109.689 248.651 107.159 247.661 104.739 246.232V245.902H104.19C103.64 245.572 103.09 245.132 102.54 244.692C101.11 243.592 99.7903 242.272 98.6905 240.843C97.8107 239.633 96.8208 238.643 95.721 237.653C92.6416 234.904 88.7923 233.144 84.723 232.374C84.3931 232.264 83.9531 232.264 83.5132 232.154C86.2627 230.174 89.6721 228.965 93.4114 228.965H103.09C105.619 228.965 107.709 226.875 107.709 224.345V210.268H84.833C81.5336 210.268 78.894 207.628 78.894 204.329C78.894 201.03 81.5336 198.39 84.833 198.39H106.389C106.719 198.72 107.049 199.16 107.379 199.49C110.678 202.899 114.968 205.209 119.697 205.979C122.116 206.419 124.536 207.189 126.845 208.508C126.955 208.618 127.175 208.618 127.285 208.728C127.945 209.168 128.605 209.608 129.265 210.048C130.805 211.258 132.235 212.578 133.334 214.117C136.744 218.627 141.803 221.596 147.302 222.586C150.271 223.136 153.131 224.236 155.77 225.995C158.63 227.975 160.939 230.394 162.589 233.254L162.699 235.234Z" fill="#ECECEC"/>
<path d="M109.909 271.967V277.246C109.469 277.136 108.919 276.916 108.479 276.696V271.967C108.479 271.637 108.809 271.307 109.139 271.307C109.579 271.307 109.909 271.637 109.909 271.967Z" fill="#C6C6C6"/>
<path d="M114.418 271.967V276.806C113.978 277.026 113.538 277.136 112.988 277.246V271.967C112.988 271.637 113.318 271.307 113.648 271.307C114.088 271.307 114.418 271.637 114.418 271.967Z" fill="#C6C6C6"/>
<path d="M81.7535 271.967V277.246C81.3136 277.136 80.7637 276.916 80.3237 276.696V271.967C80.3237 271.637 80.6537 271.307 80.9836 271.307C81.4235 271.307 81.7535 271.637 81.7535 271.967Z" fill="#C6C6C6"/>
<path d="M86.2628 271.967V276.806C85.8228 277.026 85.3829 277.136 84.833 277.246V271.967C84.833 271.637 85.1629 271.307 85.4929 271.307C85.9328 271.307 86.2628 271.637 86.2628 271.967Z" fill="#C6C6C6"/>
<path d="M107.709 198.28H112.878C117.937 198.28 122.886 197.51 127.725 195.861C127.945 195.751 127.945 195.421 127.615 195.421H107.709V198.28Z" fill="#ECECEC"/>
<path d="M129.595 229.954H120.576C111.778 229.954 104.739 237.103 104.739 245.792H95.7209V229.185L96.2708 228.965H103.2C105.729 228.965 107.819 226.875 107.819 224.345V223.686L129.815 229.624C129.815 229.734 129.815 229.954 129.595 229.954Z" fill="#D6D6D6"/>
<path d="M97.0407 210.268C96.7107 210.378 96.3808 210.378 96.0509 210.378C92.6415 210.378 90.002 207.628 90.002 204.329C90.002 201.03 92.7515 198.28 96.0509 198.28C96.3808 198.28 96.7107 198.28 97.0407 198.39C94.1812 198.83 91.8716 201.36 91.8716 204.329C91.8716 207.298 94.0712 209.828 97.0407 210.268Z" fill="#D6D6D6"/>
<path d="M131.025 207.738C124.426 211.038 117.167 212.797 109.688 212.797H107.599V210.378H114.198C118.377 210.378 122.556 209.828 126.625 208.728L130.915 207.518C131.135 207.518 131.135 207.628 131.025 207.738Z" fill="#D6D6D6"/>
<path d="M117.277 143.84C117.277 145.49 115.958 146.919 114.198 146.919C112.548 146.919 111.118 145.6 111.118 143.84C111.118 142.19 112.438 140.76 114.198 140.76C115.848 140.76 117.277 142.08 117.277 143.84Z" fill="#4030BF"/>
<path d="M137.404 143.84C137.404 145.49 136.084 146.919 134.324 146.919C132.675 146.919 131.245 145.6 131.245 143.84C131.245 142.19 132.565 140.76 134.324 140.76C136.084 140.76 137.404 142.08 137.404 143.84Z" fill="#4030BF"/>
<path d="M112.108 160.557C111.778 160.447 111.558 160.667 111.448 160.997C111.228 162.207 110.348 162.976 109.798 163.306C108.699 163.966 107.379 164.076 106.059 163.636C105.069 163.306 104.079 162.537 103.53 161.547C103.2 160.997 103.09 160.447 103.2 159.787C103.31 159.017 103.969 158.357 104.299 157.697C104.739 156.928 105.179 156.048 105.729 155.168C106.279 154.178 105.619 152.968 104.519 152.968H102.54H100.56C99.4603 152.968 98.8004 154.178 99.3503 155.168L100.34 156.928C100.67 157.477 100.89 157.917 101.22 158.467C101.77 159.237 101.88 160.227 101.66 161.217C101.33 162.097 100.89 162.976 100.12 163.416C99.0204 164.186 97.4806 164.186 96.1609 163.416C94.9511 162.757 94.2912 161.767 94.2912 160.557C94.2912 160.227 94.0712 160.007 93.7413 160.007C93.4114 160.007 93.1914 160.227 93.1914 160.557C93.1914 162.097 94.0713 163.526 95.611 164.296C96.3808 164.736 97.2607 164.956 98.1405 164.956C99.0204 164.956 99.9002 164.736 100.67 164.186C101.44 163.746 101.99 162.976 102.32 162.207C102.43 161.987 102.65 161.987 102.76 162.207C103.53 163.416 104.629 164.076 105.729 164.516C107.269 165.066 109.029 164.846 110.348 164.076C111.558 163.416 112.328 162.317 112.548 160.997C112.548 160.997 112.328 160.667 112.108 160.557Z" fill="#4030BF"/>
<path d="M149.392 159.127C149.392 162.427 146.752 165.176 143.343 165.176C139.933 165.176 137.294 162.537 137.294 159.127C137.294 155.828 139.933 153.078 143.343 153.078C146.752 153.078 149.392 155.828 149.392 159.127Z" fill="#F1E5E8"/>
<path d="M101.11 210.268H30.2829C28.3033 210.268 26.6536 211.918 26.6536 213.897C26.6536 215.877 28.3033 217.527 30.2829 217.527H101.11C103.09 217.527 104.74 215.877 104.74 213.897C104.74 211.918 103.09 210.268 101.11 210.268Z" fill="#FFB93E"/>
<path d="M101 217.417V236.993C101 240.073 98.5806 242.492 95.5012 242.492H35.8918C32.9224 242.492 30.3928 240.073 30.3928 236.993V217.417H101Z" fill="#E7AB36"/>
<path d="M101 217.417H30.3928V223.686H101V217.417Z" fill="#D39424"/>
<path d="M44.4703 242.602V287.474C44.4703 288.354 43.8104 289.014 42.9306 289.014C42.0508 289.014 41.3909 288.354 41.3909 287.474V242.602H44.4703Z" fill="#4030BF"/>
<path d="M44.4704 242.602H41.281V263.059H44.4704V242.602Z" fill="#2923AC"/>
<path d="M55.0287 242.602V287.474C55.0287 288.354 54.3688 289.014 53.4889 289.014C52.6091 289.014 51.9492 288.354 51.9492 287.474V242.602H55.0287Z" fill="#4030BF"/>
<path d="M55.0285 242.602H51.8391V263.059H55.0285V242.602Z" fill="#2923AC"/>
<path d="M79.7741 276.476V287.474C79.7741 288.354 79.1142 289.014 78.2344 289.014C77.3545 289.014 76.6947 288.354 76.6947 287.474V270.537C76.5847 272.957 77.7945 275.157 79.7741 276.476Z" fill="#4030BF"/>
<path d="M90.1122 271.197V287.364C90.1122 288.244 89.3423 288.904 88.5724 288.904C87.6926 288.904 87.0327 288.244 87.0327 287.364V276.366C88.7924 275.377 90.0022 273.397 90.1122 271.197Z" fill="#4030BF"/>
<path d="M169.298 251.291V283.185C169.298 286.375 166.658 289.014 163.469 289.014H137.844C134.654 289.014 132.015 286.375 132.015 283.185V251.291C132.015 249.861 132.455 248.651 133.334 247.661C134.434 246.342 135.974 245.572 137.844 245.572H163.469C166.768 245.572 169.298 248.101 169.298 251.291Z" fill="#D465BA"/>
<path d="M169.298 251.291V269.108C168.308 268.338 167.318 267.348 166.548 266.358C164.129 263.279 160.609 261.189 156.76 260.529C155 260.199 153.131 259.539 151.481 258.549C149.831 257.56 148.402 256.24 147.302 254.81C144.882 251.731 141.473 249.641 137.514 248.981C136.084 248.761 134.764 248.321 133.444 247.661C134.544 246.342 136.084 245.572 137.954 245.572H163.579C166.768 245.572 169.298 248.101 169.298 251.291Z" fill="#EA78CA"/>
<path d="M159.62 289.014H137.954C134.764 289.014 132.125 286.375 132.125 283.185V266.028C132.455 266.248 132.785 266.358 133.115 266.578C134.764 267.568 136.194 268.888 137.294 270.317C139.713 273.397 143.123 275.486 147.082 276.146C149.062 276.476 151.151 277.246 152.911 278.456C156.76 280.985 158.96 284.835 159.62 289.014Z" fill="#C64BAF"/>
<path d="M164.899 273.287V280.655C164.899 282.855 163.029 284.725 160.83 284.725H140.703C138.504 284.725 136.634 282.855 136.634 280.655V273.287C136.634 271.087 138.504 269.218 140.703 269.218H160.83C163.029 269.218 164.899 270.977 164.899 273.287Z" fill="#4030BF"/>
<path d="M164.899 273.287V275.156H136.634V273.287C136.634 271.087 138.504 269.218 140.703 269.218H160.83C163.029 269.218 164.899 270.977 164.899 273.287Z" fill="#4030BF"/>
<path d="M164.899 275.156H136.634V276.366H164.899V275.156Z" fill="#2923AC"/>
<path d="M156.43 243.152H144.992C144.992 242.162 145.762 241.393 146.752 241.393H154.671C155.661 241.393 156.43 242.162 156.43 243.152Z" fill="#4030BF"/>
<path d="M146.752 241.393V245.572H144.992V243.152C144.992 242.162 145.872 241.393 146.752 241.393Z" fill="#4030BF"/>
<path d="M154.781 241.393C155.77 241.393 156.54 242.162 156.54 243.152V245.572H154.781V241.393Z" fill="#4030BF"/>
<path d="M148.512 241.393H146.752V243.152H148.512V241.393Z" fill="#2923AC"/>
<path d="M154.78 241.393H153.021V243.152H154.78V241.393Z" fill="#2923AC"/>
<path d="M132.125 266.138V281.865H129.485C129.155 281.865 128.825 281.865 128.495 281.755C126.406 281.315 124.866 279.446 124.866 277.246V270.757C124.866 268.558 126.406 266.688 128.495 266.248C128.825 266.138 129.155 266.138 129.485 266.138H132.125Z" fill="#4030BF"/>
<path d="M132.125 266.138V281.865H129.485C129.155 281.865 128.825 281.865 128.495 281.755V266.248C128.825 266.138 129.155 266.138 129.485 266.138H132.125Z" fill="#2923AC"/>
<path d="M176.557 270.757V277.246C176.557 279.446 175.017 281.315 172.927 281.755C172.597 281.865 172.267 281.865 171.937 281.865H169.298V266.138H171.937C172.267 266.138 172.597 266.138 172.927 266.248C175.017 266.688 176.557 268.558 176.557 270.757Z" fill="#4030BF"/>
<path d="M172.927 266.248V281.755C172.597 281.865 172.267 281.865 171.937 281.865H169.298V266.138H171.937C172.267 266.138 172.597 266.138 172.927 266.248Z" fill="#2923AC"/>
<path d="M156.43 257.56C156.43 258.549 156.21 259.539 155.771 260.309C154.781 262.069 152.911 263.279 150.711 263.279C147.522 263.279 144.992 260.749 144.992 257.56C144.992 256.13 145.542 254.81 146.422 253.82C147.522 252.611 148.952 251.841 150.711 251.841C153.901 251.841 156.43 254.48 156.43 257.56Z" fill="#E7AB36"/>
<path d="M156.43 257.56C156.43 258.549 156.21 259.539 155.77 260.309C154.341 259.979 152.911 259.429 151.591 258.549C149.941 257.56 148.512 256.24 147.412 254.81C147.082 254.48 146.862 254.15 146.532 253.82C147.632 252.611 149.062 251.841 150.821 251.841C153.901 251.841 156.43 254.48 156.43 257.56Z" fill="#FFB93E"/>
<path d="M150.711 262.289C150.491 262.289 150.382 262.289 150.162 262.289C150.052 262.289 149.942 262.179 149.942 261.959C149.942 261.849 150.052 261.739 150.272 261.739C150.601 261.739 150.931 261.739 151.261 261.739C151.371 261.739 151.591 261.849 151.591 261.959C151.591 262.069 151.481 262.289 151.371 262.289C151.151 262.289 150.931 262.289 150.711 262.289ZM149.172 262.069C148.732 261.959 148.402 261.739 148.072 261.519C147.962 261.409 147.962 261.299 147.962 261.189C148.072 261.079 148.182 261.079 148.292 261.079C148.622 261.299 148.842 261.409 149.172 261.519C149.282 261.519 149.392 261.739 149.282 261.849C149.392 261.959 149.282 262.069 149.172 262.069ZM152.361 262.069C152.251 262.069 152.141 261.959 152.141 261.849C152.141 261.739 152.141 261.519 152.251 261.519C152.581 261.409 152.911 261.189 153.131 261.079C153.241 260.969 153.461 260.969 153.461 261.189C153.571 261.299 153.571 261.519 153.351 261.519C153.131 261.739 152.801 261.849 152.361 262.069ZM147.412 260.859C147.302 260.859 147.302 260.859 147.192 260.749C146.972 260.419 146.752 260.199 146.532 259.869C146.422 259.759 146.532 259.539 146.642 259.539C146.752 259.429 146.972 259.539 146.972 259.649C147.082 259.979 147.302 260.199 147.522 260.529C147.632 260.639 147.632 260.859 147.522 260.969C147.522 260.859 147.522 260.859 147.412 260.859ZM154.121 260.859C154.011 260.859 154.011 260.859 153.901 260.749C153.791 260.639 153.791 260.419 153.901 260.309C154.121 260.089 154.341 259.759 154.451 259.429C154.561 259.319 154.671 259.209 154.781 259.319C154.891 259.429 155.001 259.539 154.891 259.649C154.671 259.979 154.451 260.309 154.231 260.639C154.231 260.859 154.231 260.859 154.121 260.859ZM146.422 258.989C146.312 258.989 146.202 258.879 146.202 258.769C146.092 258.439 146.092 258 146.092 257.67C146.092 257.56 146.202 257.34 146.312 257.34C146.422 257.34 146.532 257.45 146.642 257.56C146.642 257.89 146.642 258.22 146.752 258.549C146.752 258.769 146.642 258.879 146.422 258.989ZM155.111 258.989C154.891 258.989 154.781 258.769 154.891 258.659C155.001 258.33 155.001 258 155.001 257.67C155.001 257.56 155.111 257.34 155.331 257.34C155.441 257.34 155.551 257.45 155.551 257.56C155.551 258 155.551 258.33 155.441 258.659C155.331 258.879 155.221 258.989 155.111 258.989ZM146.422 256.9C146.202 256.9 146.092 256.68 146.202 256.57C146.312 256.24 146.422 255.8 146.642 255.47C146.752 255.36 146.862 255.25 146.972 255.36C147.082 255.47 147.192 255.58 147.082 255.69C146.972 256.02 146.862 256.35 146.752 256.68C146.642 256.79 146.532 256.9 146.422 256.9ZM155.111 256.79C155.001 256.79 154.891 256.68 154.891 256.57C154.781 256.24 154.671 255.91 154.561 255.58C154.451 255.47 154.561 255.25 154.671 255.25C154.781 255.14 155.001 255.25 155.001 255.36C155.221 255.69 155.331 256.02 155.441 256.46C155.331 256.57 155.331 256.68 155.111 256.79ZM147.412 254.92C147.302 254.92 147.302 254.92 147.192 254.81C147.082 254.7 147.082 254.59 147.192 254.37C147.412 254.04 147.742 253.82 148.072 253.6C148.182 253.49 148.402 253.49 148.402 253.71C148.512 253.82 148.512 254.04 148.292 254.04C148.072 254.26 147.742 254.48 147.522 254.7C147.522 254.92 147.522 254.92 147.412 254.92ZM154.121 254.92C154.011 254.92 154.011 254.92 153.901 254.81C153.681 254.59 153.461 254.37 153.131 254.15C153.021 254.04 153.021 253.93 153.021 253.82C153.131 253.71 153.241 253.71 153.351 253.71C153.681 253.93 153.901 254.15 154.231 254.48C154.341 254.59 154.341 254.81 154.231 254.92H154.121ZM149.172 253.71C149.062 253.71 148.952 253.6 148.952 253.49C148.952 253.38 148.952 253.16 149.062 253.16C149.392 253.05 149.832 252.94 150.162 252.831C150.272 252.831 150.491 252.94 150.491 253.05C150.491 253.16 150.382 253.38 150.272 253.38C149.942 253.49 149.612 253.6 149.172 253.71ZM152.251 253.71C151.811 253.6 151.481 253.49 151.151 253.49C151.041 253.49 150.931 253.38 150.931 253.16C150.931 253.05 151.041 252.83 151.261 252.94C151.591 252.94 152.031 253.05 152.361 253.16C152.471 253.16 152.581 253.38 152.471 253.49C152.471 253.6 152.361 253.71 152.251 253.71Z" fill="#D39424"/>
</g>
<path d="M115.4 74.8111C110.689 74.8111 107.178 74.3222 104.867 73.3889C102.6 72.4556 101.489 70.8111 101.489 68.4111V66.2334C101.489 64.1 102.956 62.8556 105.134 62.8556H121.311C121.622 62.8556 121.8 62.6778 121.8 62.2778V61.6111C121.8 61.3 121.622 61.1222 121.311 61.1222H104.067C102.334 61.1222 101.311 60.2334 101.311 58.6334C101.311 57.0334 102.334 56.1445 104.067 56.1445H111.489V53.6111H98.1113C96.3335 53.6111 95.2224 52.5 95.2224 50.9C95.2224 49.3 96.2891 48.2778 98.1113 48.2778H131C132.822 48.2778 133.889 49.3 133.889 50.9C133.889 52.5 132.778 53.6111 131 53.6111H117.489V56.1445H123.845C126.156 56.1445 127.489 57.5667 127.489 59.8778V64.3222C127.489 66.4556 126.334 67.6556 124.2 67.6556H107.578C107.311 67.6556 107.178 67.7889 107.178 68.1V68.4556C107.178 69.0778 107.8 69.4778 109 69.6111C110.2 69.7445 112.289 69.8334 115.178 69.8334C118.422 69.8334 122.2 69.4778 124.911 68.8111C125.222 68.7667 125.489 68.7222 125.8 68.7222C127 68.7222 127.845 69.4778 128.156 70.7667C128.2 70.8556 128.2 70.9889 128.2 71.2111C128.2 72.4111 127.445 73.2111 125.889 73.6111C123 74.3222 118.6 74.8111 115.4 74.8111ZM100.2 44.0556C100.2 42.9 100.778 42.1 101.889 41.7C105.222 40.5 107.711 39.3889 109.356 38.2778C110.956 37.1667 111.756 35.9222 111.756 34.4556C111.756 32.8556 112.911 31.9222 114.734 31.9222C116.645 31.9222 117.756 32.8111 117.756 34.4556V35.4778C117.756 35.9667 117.667 36.5889 117.445 37.3C121.445 38.5889 124.778 40.0111 127.445 41.6556C128.378 42.2334 128.822 42.9889 128.822 43.9222C128.822 44.4556 128.645 44.9889 128.289 45.5222C127.756 46.2778 127.045 46.6778 126.2 46.6778C125.711 46.6778 125.134 46.5 124.556 46.1889C121.711 44.5445 117.134 42.5889 113.889 41.6556C111.222 43.7445 107.356 45.5222 103.4 46.5889C103.089 46.6778 102.822 46.7222 102.556 46.7222C101.489 46.7222 100.689 46.1445 100.378 45.1222C100.245 44.8556 100.2 44.5 100.2 44.0556Z" fill="white"/>
<path d="M62.6141 63.8333C58.3919 63.8333 56.1252 61.6111 56.1252 57.4778V37.3445C56.1252 35.0333 57.3697 33.7889 59.6808 33.7889H73.903C76.2141 33.7889 77.4586 35.0333 77.4586 37.3445V57.4778C77.4586 61.7445 75.503 63.8333 71.4141 63.8333H62.6141ZM62.1252 56.7667C62.1252 57.9667 62.6586 58.5 63.8586 58.5H69.7252C70.9252 58.5 71.4586 57.9667 71.4586 56.7667V39.7889C71.4586 39.4333 71.1475 39.1222 70.7919 39.1222H62.7919C62.4364 39.1222 62.1252 39.4333 62.1252 39.7889V56.7667ZM83.4141 71.2556V34.0111C83.4141 32.3667 84.5697 31.3445 86.303 31.3445H86.5252C88.2586 31.3445 89.4141 32.3667 89.4141 34.0111V71.2556C89.4141 72.9 88.2586 73.9222 86.5252 73.9222H86.303C84.5697 73.9222 83.4141 72.9 83.4141 71.2556Z" fill="white"/>
</g>
<rect x="0.5" y="0.5" width="199" height="299" rx="3.5" stroke="#DDDDDD"/>
<defs>
<clipPath id="clip0_181_25622">
<rect width="200" height="300" rx="4" fill="white"/>
</clipPath>
<clipPath id="clip1_181_25622">
<rect width="205.556" height="365.514" fill="white" transform="translate(-1.11108 -34.4445)"/>
</clipPath>
</defs>
</svg>
