<svg width="512" height="320" viewBox="0 0 512 320" fill="none" xmlns="http://www.w3.org/2000/svg">
<g clip-path="url(#clip0_364_6665)">
<path d="M471.215 284.978C471.215 284.978 436.341 227.125 502.247 200.822C502.173 200.896 538.525 259.709 471.215 284.978Z" fill="#5484CD"/>
<path d="M508.232 223.653L493.159 227.495L499.957 208.654C500.178 208.137 499.883 207.546 499.365 207.398C498.848 207.176 498.257 207.472 498.109 207.989L491.46 226.386L485.032 213.309C484.81 212.791 484.219 212.644 483.702 212.865C483.184 213.087 483.037 213.678 483.258 214.195L490.499 228.973L483.776 247.518L470.328 230.524C469.959 230.081 469.368 230.007 468.924 230.376C468.481 230.746 468.407 231.337 468.777 231.78L482.963 249.808L477.274 265.546L466.708 254.168C466.338 253.798 465.674 253.724 465.304 254.094C464.935 254.463 464.861 255.128 465.23 255.498L476.535 267.615L472.397 279.141C472.175 279.658 472.471 280.249 472.988 280.397C473.21 280.471 473.358 280.471 473.579 280.397C473.875 280.323 474.17 280.102 474.244 279.806L478.382 268.354L495.08 267.467C495.154 267.467 495.228 267.467 495.302 267.467C495.745 267.319 496.041 266.95 496.041 266.433C496.041 265.915 495.523 265.472 495.006 265.472L479.121 266.359L484.81 250.547L507.789 246.631H507.862C508.38 246.483 508.675 246.04 508.601 245.523C508.527 245.006 508.01 244.636 507.419 244.71L485.549 248.405L492.346 229.785L508.749 225.574C509.266 225.426 509.636 224.909 509.488 224.392C509.266 223.801 508.749 223.505 508.232 223.653Z" fill="#444C72"/>
<path d="M68.9802 260.152C68.9802 260.152 89.89 190.478 14.083 180.651C14.083 180.651 -8.08279 251.803 68.9802 260.152Z" fill="#5484CD"/>
<path d="M13.9354 206.068H30.7075L18.5903 188.261C18.2208 187.744 18.3686 187.079 18.8858 186.784C19.403 186.414 20.068 186.562 20.3635 187.079L32.1853 204.516L35.3624 189.148C35.5101 188.557 36.0273 188.187 36.6184 188.335C37.2095 188.483 37.5789 189 37.4312 189.591L33.8846 206.881L45.8542 224.465L55.3116 203.112C55.5332 202.595 56.1982 202.3 56.7154 202.595C57.2326 202.817 57.5281 203.482 57.2326 203.999L47.1841 226.608L57.3065 241.533L65.2862 226.83C65.5817 226.313 66.2467 226.091 66.7639 226.387C67.2811 226.682 67.5027 227.347 67.2072 227.864L58.6364 243.528L66.025 254.389C66.3945 254.906 66.2467 255.571 65.7295 255.867C65.5817 256.015 65.3601 256.089 65.1384 256.089C64.769 256.089 64.4734 255.941 64.2518 255.645L56.8632 244.784L39.1305 248.331C39.0567 248.331 38.9828 248.331 38.9089 248.331C38.3917 248.331 37.9484 247.961 37.8745 247.444C37.7267 246.853 38.17 246.336 38.6872 246.188L55.5332 242.863L45.337 227.864L20.2896 229.933H20.2157C19.6985 229.933 19.1813 229.49 19.1813 228.973C19.1075 228.381 19.5508 227.864 20.1419 227.79L44.007 225.795L32.0375 208.211H13.9354C13.3444 208.211 12.8271 207.767 12.8271 207.102C12.8271 206.511 13.3444 206.068 13.9354 206.068Z" fill="#444C72"/>
<path d="M68.8323 272.344C68.8323 272.344 32.2587 235.474 0.266113 279.658C0.266113 279.658 37.3569 317.783 68.8323 272.344Z" fill="#5484CD"/>
<path d="M16.1515 288.451L21.8408 277.959L6.54638 279.511C6.10306 279.584 5.73363 279.215 5.73363 278.846C5.65974 278.402 6.02917 278.033 6.3986 278.033L21.3974 276.555L12.8267 269.166C12.5311 268.871 12.4573 268.428 12.7528 268.058C13.0483 267.763 13.4917 267.689 13.8611 267.984L23.5401 276.186L38.6868 274.708L28.4905 261.482C28.2688 261.113 28.2688 260.67 28.6383 260.374C29.0077 260.152 29.451 260.152 29.7466 260.522L40.5339 274.486L53.3162 273.23L46.8142 263.182C46.5926 262.812 46.6664 262.369 47.0359 262.147C47.4053 261.926 47.8486 262 48.0703 262.369L55.0155 273.082L64.3991 272.122C64.8424 272.048 65.2118 272.417 65.2118 272.787C65.2118 272.935 65.2118 273.082 65.1379 273.23C64.9902 273.452 64.7685 273.6 64.5468 273.6L55.2372 274.56L51.2474 286.899C51.2474 286.973 51.2474 286.973 51.1735 287.047C51.0257 287.342 50.6563 287.49 50.2868 287.416C49.9174 287.269 49.6219 286.899 49.7696 286.456L53.3901 274.782L40.46 276.038L33.2192 292.441V292.514C32.9975 292.884 32.6281 293.032 32.2587 292.884C31.8892 292.736 31.6676 292.293 31.8892 291.849L38.7606 276.186L23.6879 277.663L17.4815 289.116C17.2598 289.485 16.8165 289.633 16.4471 289.411C16.0777 289.263 15.9299 288.82 16.1515 288.451Z" fill="#444C72"/>
<path opacity="0.3" d="M214.536 131.812V303.967H150.55V131.812C150.55 128.562 153.21 125.902 156.461 125.902H208.625C211.876 125.902 214.536 128.562 214.536 131.812Z" fill="#5484CD"/>
<path opacity="0.3" d="M330.684 303.893H278.595V167.352C278.595 164.101 281.255 161.441 284.506 161.441H324.773C328.024 161.441 330.684 164.101 330.684 167.352V303.893Z" fill="#5484CD"/>
<path opacity="0.3" d="M267.881 303.893H224.51V220.845C224.51 217.594 227.17 214.934 230.421 214.934H261.232C264.926 214.934 267.881 217.89 267.881 221.584V303.893Z" fill="#CED8D6"/>
<path opacity="0.3" d="M384.695 303.893H341.324V204.516C341.324 201.265 343.984 198.605 347.235 198.605H378.858C382.109 198.605 384.769 201.265 384.769 204.516V303.893H384.695Z" fill="#CED8D6"/>
<path d="M214.536 131.812V303.967H150.55V131.812C150.55 128.562 153.21 125.902 156.461 125.902H208.625C211.876 125.902 214.536 128.562 214.536 131.812Z" fill="#5484CD"/>
<path d="M330.684 303.893H278.595V167.352C278.595 164.101 281.255 161.441 284.506 161.441H324.773C328.024 161.441 330.684 164.101 330.684 167.352V303.893Z" fill="#5484CD"/>
<path opacity="0.3" d="M292.559 303.893H278.595V167.352C278.595 164.101 281.255 161.441 284.506 161.441H292.559V303.893Z" fill="#666666"/>
<path d="M267.881 303.893H224.51V220.845C224.51 217.594 227.17 214.934 230.421 214.934H261.232C264.926 214.934 267.881 217.89 267.881 221.584V303.893Z" fill="#FF8F79"/>
<path opacity="0.3" d="M238.475 303.893H224.51V220.845C224.51 217.594 227.17 214.934 230.421 214.934H238.475V303.893Z" fill="#666666"/>
<path d="M384.695 303.893H341.324V204.516C341.324 201.265 343.984 198.605 347.235 198.605H378.858C382.109 198.605 384.769 201.265 384.769 204.516V303.893H384.695Z" fill="#FF8F79"/>
<path opacity="0.3" d="M355.214 303.893H341.25V204.516C341.25 201.265 343.91 198.605 347.161 198.605H355.214V303.893Z" fill="#666666"/>
<path d="M394.152 305.001H124.616C124.025 305.001 123.508 304.484 123.508 303.893C123.508 303.302 124.025 302.785 124.616 302.785H394.152C394.743 302.785 395.26 303.302 395.26 303.893C395.26 304.558 394.743 305.001 394.152 305.001Z" fill="#222850"/>
<path d="M117.819 305.001H113.016C112.425 305.001 111.908 304.484 111.908 303.893C111.908 303.302 112.425 302.785 113.016 302.785H117.819C118.41 302.785 118.927 303.302 118.927 303.893C118.927 304.558 118.41 305.001 117.819 305.001Z" fill="#222850"/>
<path opacity="0.3" d="M207.369 128.266C206.63 128.118 205.891 128.857 205.817 129.818L204.487 144.299C204.413 144.299 204.413 144.299 204.339 144.299H174.415L175.745 130.261C175.819 129.3 175.302 128.414 174.563 128.34C174.489 128.34 174.489 128.34 174.415 128.34C173.75 128.34 173.159 129.005 173.012 129.891L169.391 168.238L164.515 220.032V125.902H156.461C153.21 125.902 150.55 128.562 150.55 131.812V303.967H156.609H159.417H164.515V277.811H191.926L189.488 303.967H192.296L208.625 130.335C208.625 129.3 208.107 128.414 207.369 128.266ZM192.222 274.265C192.148 274.265 192.148 274.265 192.074 274.265H164.441V249.734L164.81 245.523C164.884 245.523 164.958 245.523 165.032 245.523H194.882L192.222 274.265ZM195.251 241.976C195.177 241.976 195.177 241.976 195.104 241.976H165.18L167.987 212.274C168.061 212.274 168.135 212.274 168.209 212.274H198.133L195.251 241.976ZM198.355 208.802C198.281 208.802 198.281 208.802 198.207 208.802H168.283L169.317 197.867L171.017 180.06C171.091 180.06 171.091 180.06 171.164 180.06H201.088L198.355 208.802ZM201.384 176.587C201.31 176.587 201.31 176.587 201.236 176.587H171.312L173.972 147.846C174.046 147.846 174.046 147.846 174.12 147.846H204.044L201.384 176.587Z" fill="#666666"/>
<path d="M455.551 156.121H332.753C327.359 156.121 323 151.762 323 146.368V52.1635C323 46.7698 327.359 42.4105 332.753 42.4105H455.551C460.945 42.4105 465.304 46.7698 465.304 52.1635V146.442C465.304 151.762 460.945 156.121 455.551 156.121Z" fill="#444C72"/>
<path d="M455.551 148.88H332.753C327.359 148.88 323 144.521 323 139.127V44.9226C323 39.5289 327.359 35.1697 332.753 35.1697H455.551C460.945 35.1697 465.304 39.5289 465.304 44.9226V139.201C465.304 144.521 460.945 148.88 455.551 148.88Z" fill="#5484CD"/>
<path opacity="0.3" d="M380.705 124.498C381.591 124.719 382.478 124.719 383.217 124.498C384.99 123.907 387.65 122.725 390.606 122.06C392.453 121.69 394.152 123.02 394.152 124.867V137.649C394.152 140.531 391.788 142.821 388.98 142.821H337.038C334.157 142.821 331.866 140.457 331.866 137.649V99.2288C331.866 96.3472 334.231 94.0568 337.038 94.0568H356.027C358.17 94.0568 359.721 92.0619 359.204 89.9192C358.539 87.1854 357.431 84.821 356.914 83.1217C356.692 82.3089 356.692 81.4962 356.914 80.6095C358.465 74.477 367.479 74.477 368.957 80.6095C369.179 81.4962 369.179 82.3828 368.957 83.1217C368.44 84.821 367.331 87.2593 366.666 89.9192C366.149 91.988 367.701 94.0568 369.844 94.0568H388.832C391.714 94.0568 394.004 96.4211 394.004 99.2288V112.011C394.004 113.858 392.305 115.262 390.458 114.893C387.502 114.228 384.842 113.045 383.069 112.454C382.33 112.233 381.444 112.233 380.557 112.454C374.646 114.006 374.646 123.02 380.705 124.498Z" fill="#666666"/>
<path opacity="0.3" d="M407.6 75.6592C406.713 75.8808 405.826 75.8808 405.088 75.6592C403.388 75.142 400.95 74.0337 398.29 73.3687C396.221 72.8515 394.152 74.4031 394.152 76.5458V88.8109C394.152 91.6924 391.788 93.9829 388.98 93.9829H369.474C367.627 93.9829 366.223 92.2835 366.593 90.4364C367.258 87.4809 368.44 84.821 369.031 83.0478C369.253 82.235 369.253 81.4223 369.031 80.5357C367.48 74.4031 358.465 74.4031 356.988 80.5357C356.766 81.4223 356.692 82.3089 356.988 83.0478C357.579 84.821 358.761 87.4809 359.426 90.4364C359.795 92.2835 358.465 93.9829 356.618 93.9829H337.112C334.231 93.9829 331.94 91.6185 331.94 88.8109V50.3902C331.94 47.5086 334.305 45.1443 337.186 45.1443H389.128C392.01 45.1443 394.3 47.5086 394.3 50.3163V62.5814C394.3 64.7241 396.295 66.2757 398.438 65.7585C401.172 65.0935 403.536 63.9852 405.235 63.468C406.048 63.2463 406.861 63.2463 407.747 63.468C413.732 65.1674 413.732 74.1076 407.6 75.6592Z" fill="#666666"/>
<path opacity="0.3" d="M456.512 50.3902V88.8109C456.512 91.6924 454.148 93.9829 451.34 93.9829H432.351C430.209 93.9829 428.657 95.9778 429.174 98.1205C429.839 100.854 430.948 103.219 431.465 104.918C431.686 105.657 431.686 106.543 431.465 107.43C429.913 113.489 420.899 113.489 419.421 107.43C419.2 106.543 419.2 105.657 419.421 104.918C419.939 103.219 421.047 100.78 421.712 98.1205C422.229 96.0517 420.677 93.9829 418.535 93.9829H399.546C396.664 93.9829 394.374 91.6185 394.374 88.8109V76.1025C394.374 74.2553 396.073 72.8515 397.921 73.2209C400.876 73.8859 403.536 75.0681 405.309 75.6592C406.122 75.8808 406.935 75.8808 407.821 75.6592C413.954 74.1076 413.954 65.1674 407.821 63.6158C406.935 63.3941 406.048 63.3202 405.309 63.6158C403.536 64.2069 400.876 65.389 397.921 66.054C396.073 66.4234 394.374 65.0935 394.374 63.2463V50.3902C394.374 47.5086 396.738 45.1443 399.546 45.1443H451.488C454.148 45.2182 456.512 47.5086 456.512 50.3902Z" fill="#666666"/>
<path d="M380.705 122.503C381.591 122.725 382.478 122.798 383.217 122.503C384.99 121.912 387.65 120.73 390.606 120.065C392.453 119.695 394.152 121.025 394.152 122.872V135.655C394.152 138.536 391.788 140.827 388.98 140.827H337.038C334.157 140.827 331.866 138.462 331.866 135.655V97.2339C331.866 94.3523 334.231 91.988 337.038 91.988H356.027C358.17 91.988 359.721 89.9931 359.204 87.8504C358.539 85.1166 357.431 82.7522 356.914 81.0529C356.692 80.2401 356.692 79.4274 356.914 78.5407C358.465 72.4082 367.479 72.4082 368.957 78.5407C369.179 79.4274 369.179 80.314 368.957 81.0529C368.44 82.7522 367.331 85.1905 366.666 87.8504C366.149 89.9192 367.701 91.988 369.844 91.988H388.832C391.714 91.988 394.004 94.3523 394.004 97.16V109.942C394.004 111.789 392.305 113.193 390.458 112.824C387.502 112.159 384.842 110.977 383.069 110.386C382.33 110.164 381.444 110.164 380.557 110.386C374.646 112.011 374.646 120.951 380.705 122.503Z" fill="#FF8F79"/>
<path d="M407.6 73.6642C406.713 73.8859 405.826 73.8859 405.088 73.6642C403.388 73.147 400.95 72.0388 398.29 71.3738C396.221 70.8566 394.152 72.4082 394.152 74.5509V86.8159C394.152 89.6975 391.788 91.988 388.98 91.988H369.474C367.627 91.988 366.223 90.2886 366.593 88.4414C367.258 85.486 368.44 82.8261 369.031 81.0528C369.253 80.2401 369.253 79.4273 369.031 78.5407C367.48 72.4082 358.465 72.4082 356.988 78.5407C356.766 79.4273 356.692 80.314 356.988 81.0528C357.579 82.8261 358.761 85.486 359.426 88.4414C359.795 90.2886 358.465 91.988 356.618 91.988H337.112C334.231 91.988 331.94 89.6236 331.94 86.8159V48.3953C331.94 45.5137 334.305 43.1494 337.186 43.1494H389.128C392.01 43.1494 394.3 45.5137 394.3 48.3214V60.5864C394.3 62.7291 396.295 64.2807 398.438 63.7635C401.172 63.0986 403.536 61.9903 405.235 61.4731C406.048 61.2514 406.861 61.2514 407.747 61.4731C413.732 63.0986 413.732 72.1126 407.6 73.6642Z" fill="#E7CF7F"/>
<path d="M456.512 48.3953V86.8159C456.512 89.6975 454.148 91.988 451.34 91.988H432.351C430.209 91.988 428.657 93.9829 429.174 96.1256C429.839 98.8594 430.948 101.224 431.465 102.923C431.686 103.662 431.686 104.549 431.465 105.435C429.913 111.494 420.899 111.494 419.421 105.435C419.2 104.549 419.2 103.662 419.421 102.923C419.939 101.224 421.047 98.7855 421.712 96.1256C422.229 94.0568 420.677 91.988 418.535 91.988H399.546C396.664 91.988 394.374 89.6236 394.374 86.8159V74.1076C394.374 72.2604 396.073 70.8566 397.921 71.226C400.876 71.891 403.536 73.0732 405.309 73.6642C406.122 73.8859 406.935 73.8859 407.821 73.6642C413.954 72.1126 413.954 63.1724 407.821 61.6208C406.935 61.3992 406.048 61.3253 405.309 61.6208C403.536 62.2119 400.876 63.3941 397.921 64.0591C396.073 64.4285 394.374 63.0986 394.374 61.2514V48.3953C394.374 45.5137 396.738 43.1494 399.546 43.1494H451.488C454.148 43.1494 456.512 45.5137 456.512 48.3953Z" fill="#FF8F79"/>
<path d="M230.199 287.342H102.302C91.6629 287.342 82.9443 278.624 82.9443 267.984V254.389H89.5941V267.984C89.5941 275.003 95.2833 280.693 102.302 280.693H230.199C237.218 280.693 242.907 275.003 242.907 267.984V108.095C242.907 97.4555 251.626 88.737 262.266 88.737H315.759V95.3867H262.266C255.246 95.3867 249.557 101.076 249.557 108.095V267.984C249.557 278.698 240.839 287.342 230.199 287.342Z" fill="#E7CF7F"/>
<path d="M314.725 127.01C312.36 127.01 310.513 125.089 310.513 122.798V61.3253C310.513 58.961 312.434 57.1138 314.725 57.1138C317.089 57.1138 318.936 59.0349 318.936 61.3253V122.798C319.01 125.089 317.089 127.01 314.725 127.01Z" fill="#444C72"/>
<path d="M138.802 129.005C138.802 138.979 136.29 147.846 132.596 155.456C126.02 168.977 115.602 178.435 108.583 183.089C97.6477 190.256 101.564 205.033 101.564 205.033H70.9748C70.9748 205.033 74.9647 190.256 63.9557 183.089C57.1582 178.656 47.2575 169.642 40.6816 156.934C36.6179 149.028 33.7363 139.644 33.7363 129.079C33.7363 101.371 53.0206 78.7624 86.2692 78.7624C119.518 78.7624 138.802 101.371 138.802 129.005Z" fill="#E7CF7F"/>
<path d="M107.918 219.146H64.6206C62.8473 219.146 61.3696 217.742 61.3696 215.895V208.211C61.3696 206.437 62.7735 204.96 64.6206 204.96H107.992C109.765 204.96 111.243 206.363 111.243 208.211V215.895C111.169 217.742 109.691 219.146 107.918 219.146Z" fill="#444C72"/>
<path d="M106.44 219.146V245.08C106.44 248.848 103.411 251.877 99.6424 251.877H72.8957C69.1275 251.877 66.0981 248.848 66.0981 245.08V219.146H106.44Z" fill="#FF8F79"/>
<path opacity="0.3" d="M106.44 243.159V245.08C106.44 248.848 103.411 251.877 99.6424 251.877H72.8957C69.1275 251.877 66.0981 248.848 66.0981 245.08V219.146H76.8116V230.45C76.8116 230.45 76.8116 230.746 76.8855 231.189C78.0677 238.134 84.1263 243.233 91.2194 243.233H106.44V243.159Z" fill="#8E8E8E"/>
<path d="M91.441 260.152H81.0231C76.4422 260.152 72.8218 256.458 72.8218 251.951H99.6424C99.7163 256.458 96.022 260.152 91.441 260.152Z" fill="#444C72"/>
<path d="M96.4655 157.968C92.254 157.968 88.8553 161.367 88.8553 165.578V172.154H88.338H84.3482H83.7571V165.578C83.7571 161.367 80.3584 157.968 76.1469 157.968C71.9354 157.968 68.5366 161.367 68.5366 165.578V168.608C68.5366 172.819 71.9354 176.218 76.1469 176.218H79.6195V204.886H83.7571V176.218H84.2743H88.2642H88.7814V204.886H92.919V176.218H96.3916C100.603 176.218 104.002 172.819 104.002 168.608V165.578C104.076 161.441 100.677 157.968 96.4655 157.968ZM79.6195 172.228H76.1469C74.2258 172.228 72.6742 170.677 72.6742 168.755V165.726C72.6742 163.805 74.2258 162.254 76.1469 162.254C78.0679 162.254 79.6195 163.805 79.6195 165.726V172.228ZM99.9381 168.682C99.9381 170.603 98.3865 172.154 96.4655 172.154H92.9929V165.578C92.9929 163.657 94.5445 162.106 96.4655 162.106C98.3865 162.106 99.9381 163.657 99.9381 165.578V168.682Z" fill="white"/>
<path opacity="0.3" d="M132.596 155.456C126.02 168.977 115.602 178.435 108.583 183.089C97.6477 190.256 101.564 205.033 101.564 205.033H70.9749C70.9749 205.033 74.9647 190.256 63.9557 183.089C57.1582 178.656 47.2575 169.642 40.6816 156.934C48.9569 162.327 63.5124 167.721 87.6731 165.357C112.055 162.918 125.503 158.781 132.596 155.456Z" fill="#E7CF7F"/>
<path d="M481.559 299.903H404.053C401.023 299.903 398.585 297.465 398.585 294.435V278.107C398.585 275.077 401.023 272.639 404.053 272.639H481.559C484.588 272.639 487.026 275.077 487.026 278.107V294.435C486.953 297.465 484.514 299.903 481.559 299.903Z" fill="#CED8D6"/>
<path d="M196.507 68.1967V63.0986C196.507 61.6209 195.325 60.4387 193.847 60.4387H191.631C190.375 60.4387 189.34 59.626 189.045 58.3699C189.045 58.3699 189.045 58.3699 189.045 58.296C188.749 57.1138 189.192 55.8578 190.301 55.1928L192.222 54.0845C193.478 53.3457 193.921 51.7202 193.182 50.3902L190.596 45.9571C189.857 44.701 188.232 44.2577 186.902 44.9966L184.981 46.1048C183.947 46.6959 182.543 46.5482 181.73 45.6615C180.843 44.7749 180.622 43.4449 181.287 42.4105L182.395 40.4895C183.134 39.2334 182.69 37.5341 181.434 36.7952L177.001 34.2092C175.745 33.4703 174.046 33.9137 173.307 35.1697L172.199 37.0908C171.608 38.1252 170.352 38.6424 169.095 38.3468C169.095 38.3468 169.095 38.3468 169.022 38.3468C167.839 38.0513 166.953 36.943 166.953 35.7608V33.5442C166.953 32.0665 165.771 30.8843 164.293 30.8843H159.195C157.717 30.8843 156.535 32.0665 156.535 33.5442V35.7608C156.535 37.0169 155.722 38.0513 154.466 38.3468C154.466 38.3468 154.466 38.3468 154.392 38.3468C153.21 38.6424 151.954 38.199 151.289 37.0908L150.181 35.1697C149.442 33.9137 147.816 33.4703 146.486 34.2092L142.053 36.7952C140.797 37.5341 140.354 39.1596 141.093 40.4895L142.201 42.4105C142.792 43.4449 142.644 44.8488 141.758 45.6615C140.871 46.5482 139.541 46.7698 138.507 46.1048L136.586 44.9966C135.33 44.2577 133.63 44.701 132.891 45.9571L130.305 50.3902C129.566 51.6463 130.01 53.3457 131.266 54.0845L133.187 55.1928C134.221 55.7839 134.738 57.04 134.443 58.296C134.443 58.296 134.443 58.296 134.443 58.3699C134.147 59.5521 133.039 60.4387 131.857 60.4387H129.64C128.163 60.4387 126.98 61.6209 126.98 63.0986V68.1967C126.98 69.6745 128.163 70.8566 129.64 70.8566H131.857C133.113 70.8566 134.147 71.6694 134.443 72.9254C134.443 72.9254 134.443 72.9254 134.443 72.9993C134.738 74.1815 134.295 75.4376 133.187 76.1025L131.266 77.2108C130.01 77.9497 129.566 79.5752 130.305 80.9051L132.891 85.3383C133.63 86.5943 135.256 87.0377 136.586 86.2988L138.507 85.1905C139.541 84.5994 140.945 84.7472 141.758 85.6338C142.644 86.5205 142.866 87.8504 142.201 88.8848L141.093 90.8058C140.354 92.0619 140.797 93.7613 142.053 94.5001L146.486 97.0861C147.742 97.825 149.442 97.3817 150.181 96.1256L151.289 94.2046C151.88 93.1702 153.136 92.653 154.392 92.9485C154.392 92.9485 154.392 92.9485 154.466 92.9485C155.648 93.2441 156.535 94.3524 156.535 95.5345V97.7511C156.535 99.2288 157.717 100.411 159.195 100.411H164.293C165.771 100.411 166.953 99.2288 166.953 97.7511V95.5345C166.953 94.2785 167.765 93.2441 169.022 92.9485C169.022 92.9485 169.022 92.9485 169.095 92.9485C170.278 92.653 171.534 93.0963 172.199 94.2046L173.307 96.1256C174.046 97.3817 175.671 97.825 177.001 97.0861L181.434 94.5001C182.69 93.7613 183.134 92.1358 182.395 90.8058L181.287 88.8848C180.696 87.8504 180.843 86.4466 181.73 85.6338C182.617 84.7472 183.947 84.5255 184.981 85.1905L186.902 86.2988C188.158 87.0377 189.857 86.5943 190.596 85.3383L193.182 80.9051C193.921 79.6491 193.478 77.9497 192.222 77.2108L190.301 76.1025C189.266 75.5114 188.749 74.2554 189.045 72.9993C189.045 72.9993 189.045 72.9993 189.045 72.9254C189.34 71.7433 190.448 70.8566 191.631 70.8566H193.847C195.325 70.8566 196.507 69.6745 196.507 68.1967Z" fill="#AAB3C1"/>
<path d="M166.772 93.3839C182.116 90.6296 192.321 75.9586 189.566 60.6154C186.812 45.2722 172.141 35.067 156.798 37.8213C141.455 40.5757 131.249 55.2467 134.004 70.5899C136.758 85.9331 151.429 96.1383 166.772 93.3839Z" fill="#CED3D8"/>
<path d="M181.832 66.0101C182.066 54.913 173.26 45.7274 162.163 45.4933C151.066 45.2592 141.881 54.0654 141.646 65.1624C141.412 76.2594 150.219 85.4451 161.316 85.6792C172.413 85.9133 181.598 77.1071 181.832 66.0101Z" fill="#AAB3C1"/>
<path d="M161.707 89.4759C157.569 89.4759 153.506 88.3676 149.811 86.2988C138.433 79.7229 134.517 65.0935 141.093 53.7151C147.669 42.3367 162.298 38.4207 173.676 44.9965C185.055 51.5724 188.971 66.2018 182.395 77.5802C179.218 83.1217 174.046 87.0376 167.913 88.737C165.844 89.2542 163.776 89.4759 161.707 89.4759ZM161.781 42.4844C153.801 42.4844 145.969 46.622 141.758 54.0106C135.403 65.0196 139.172 79.2057 150.181 85.5599C155.5 88.6631 161.781 89.4759 167.692 87.8504C173.676 86.2249 178.627 82.4567 181.73 77.063C188.084 66.054 184.316 51.8679 173.307 45.5137C169.687 43.5188 165.697 42.4844 161.781 42.4844Z" fill="white"/>
<path d="M161.707 79.5752C159.342 79.5752 156.978 78.9841 154.762 77.728C151.511 75.8809 149.22 72.8516 148.26 69.305C147.299 65.6846 147.816 61.9903 149.663 58.7393C151.511 55.4884 154.54 53.1979 158.086 52.2374C161.707 51.2769 165.401 51.7941 168.652 53.6412C175.302 57.4833 177.592 66.054 173.75 72.7038C171.238 77.063 166.509 79.5752 161.707 79.5752ZM161.781 52.459C157.2 52.459 152.767 54.8234 150.328 59.0349C146.708 65.3152 148.851 73.3687 155.131 76.9892C161.411 80.6096 169.465 78.4669 173.085 72.1866C176.706 65.9063 174.563 57.8527 168.283 54.2323C166.288 53.0501 163.997 52.459 161.781 52.459Z" fill="white"/>
<path d="M161.781 72.9254C165.82 72.9254 169.095 69.6505 169.095 65.6107C169.095 61.5709 165.82 58.296 161.781 58.296C157.741 58.296 154.466 61.5709 154.466 65.6107C154.466 69.6505 157.741 72.9254 161.781 72.9254Z" fill="#CED3D8"/>
<path d="M127.572 38.864V36.4258C127.572 35.6869 126.981 35.1697 126.316 35.1697H125.281C124.69 35.1697 124.173 34.8003 124.025 34.2092C123.877 33.6181 124.099 33.027 124.616 32.7315L125.503 32.2143C126.094 31.8448 126.316 31.106 125.946 30.441L124.764 28.3722C124.395 27.7811 123.656 27.5595 122.991 27.9289L122.104 28.4461C121.587 28.7416 120.996 28.6677 120.552 28.2244C120.109 27.7811 120.035 27.19 120.331 26.6728L120.848 25.7862C121.217 25.1951 120.996 24.3824 120.405 24.0129L118.336 22.8308C117.745 22.4613 116.932 22.683 116.563 23.2741L116.045 24.1607C115.75 24.6779 115.159 24.8996 114.568 24.7518C113.977 24.604 113.607 24.0868 113.607 23.4957V22.4613C113.607 21.7225 113.016 21.2053 112.351 21.2053H109.913C109.174 21.2053 108.657 21.7963 108.657 22.4613V23.4957C108.657 24.0868 108.287 24.604 107.696 24.7518C107.105 24.8996 106.514 24.6779 106.219 24.1607L105.701 23.2741C105.332 22.683 104.593 22.4613 103.928 22.8308L101.859 24.0129C101.268 24.3824 101.047 25.1212 101.416 25.7862L101.933 26.6728C102.229 27.19 102.155 27.7811 101.712 28.2244C101.268 28.6677 100.677 28.7416 100.16 28.4461L99.2733 27.9289C98.6822 27.5595 97.8695 27.7811 97.5001 28.3722L96.3179 30.441C95.9484 31.0321 96.1701 31.8448 96.7612 32.2143L97.6478 32.7315C98.165 33.027 98.3867 33.6181 98.2389 34.2092C98.0911 34.8003 97.5739 35.1697 96.9828 35.1697H95.9484C95.2096 35.1697 94.6924 35.7608 94.6924 36.4258V38.864C94.6924 39.6029 95.2835 40.1201 95.9484 40.1201H96.9828C97.5739 40.1201 98.0911 40.4895 98.2389 41.0806C98.3867 41.6717 98.165 42.2628 97.6478 42.5583L96.7612 43.0755C96.1701 43.4449 95.9484 44.1838 96.3179 44.8488L97.5001 46.9176C97.8695 47.5087 98.6083 47.7303 99.2733 47.3609L100.16 46.8437C100.677 46.5481 101.268 46.622 101.712 47.0653C102.155 47.5087 102.229 48.0997 101.933 48.6169L101.416 49.5036C101.047 50.0947 101.268 50.9074 101.859 51.2768L103.928 52.459C104.519 52.8284 105.332 52.6068 105.701 52.0157L106.219 51.1291C106.514 50.6119 107.105 50.3902 107.696 50.538C108.287 50.6858 108.657 51.2029 108.657 51.794V52.8284C108.657 53.5673 109.248 54.0845 109.913 54.0845H112.351C113.09 54.0845 113.607 53.4934 113.607 52.8284V51.794C113.607 51.2029 113.977 50.6858 114.568 50.538C115.159 50.3902 115.75 50.6119 116.045 51.1291L116.563 52.0157C116.932 52.6068 117.671 52.8284 118.336 52.459L120.405 51.2768C120.996 50.9074 121.217 50.1685 120.848 49.5036L120.331 48.6169C120.035 48.0997 120.109 47.5087 120.552 47.0653C120.996 46.622 121.587 46.5481 122.104 46.8437L122.991 47.3609C123.582 47.7303 124.395 47.5087 124.764 46.9176L125.946 44.8488C126.316 44.2577 126.094 43.4449 125.503 43.0755L124.616 42.5583C124.099 42.2628 123.877 41.6717 124.025 41.0806C124.173 40.4895 124.69 40.1201 125.281 40.1201H126.316C127.054 40.1939 127.572 39.6029 127.572 38.864Z" fill="#AAB3C1"/>
<path d="M122.695 44.4055C119.001 50.8335 110.8 52.9762 104.372 49.2819C97.9435 45.5876 95.8009 37.3863 99.4952 30.9582C103.189 24.5302 111.391 22.3875 117.819 26.0818C124.173 29.7761 126.39 37.9774 122.695 44.4055Z" fill="#CED3D8"/>
<path d="M116.656 45.4423C120.934 42.375 121.916 36.4204 118.848 32.1423C115.781 27.8643 109.826 26.8828 105.548 29.9502C101.27 33.0175 100.289 38.9721 103.356 43.2501C106.423 47.5281 112.378 48.5096 116.656 45.4423Z" fill="#AAB3C1"/>
<path d="M114.738 42.3561C117.311 40.3471 117.768 36.6326 115.759 34.0596C113.75 31.4865 110.036 31.0292 107.463 33.0382C104.89 35.0471 104.432 38.7616 106.441 41.3347C108.45 43.9077 112.165 44.365 114.738 42.3561Z" fill="#CED3D8"/>
<path d="M174.563 128.34C173.603 128.488 172.938 129.3 173.011 130.261L194.217 307.661C194.364 308.622 195.177 309.286 196.138 309.213C197.098 309.065 197.763 308.252 197.689 307.292L176.484 129.891C176.41 128.857 175.524 128.192 174.563 128.34Z" fill="#AAB3C1"/>
<path d="M224.51 208.802H186.163C185.202 208.802 184.39 209.614 184.39 210.575C184.39 211.535 185.202 212.348 186.163 212.348H224.51C225.47 212.348 226.283 211.535 226.283 210.575C226.209 209.614 225.47 208.802 224.51 208.802Z" fill="#818899"/>
<path d="M220.668 176.587H182.321C181.361 176.587 180.548 177.4 180.548 178.361C180.548 179.321 181.361 180.134 182.321 180.134H220.668C221.628 180.134 222.441 179.321 222.441 178.361C222.441 177.326 221.628 176.587 220.668 176.587Z" fill="#818899"/>
<path d="M216.826 144.299H178.479C177.518 144.299 176.706 145.112 176.706 146.072C176.706 147.033 177.518 147.846 178.479 147.846H216.826C217.786 147.846 218.599 147.033 218.599 146.072C218.599 145.112 217.786 144.299 216.826 144.299Z" fill="#818899"/>
<path d="M232.933 274.265H193.995C193.034 274.265 192.222 275.077 192.222 276.038C192.222 276.998 193.034 277.811 193.995 277.811H232.933C233.893 277.811 234.706 276.998 234.706 276.038C234.706 275.003 233.893 274.265 232.933 274.265Z" fill="#818899"/>
<path d="M228.426 241.976H190.153C189.193 241.976 188.38 242.789 188.38 243.75C188.38 244.71 189.193 245.523 190.153 245.523H228.426C229.387 245.523 230.199 244.71 230.199 243.75C230.125 242.789 229.387 241.976 228.426 241.976Z" fill="#818899"/>
<path d="M216.457 128.34C215.496 128.488 214.831 129.3 214.905 130.261L236.11 307.661C236.258 308.622 237.071 309.286 238.031 309.213C238.992 309.065 239.657 308.252 239.583 307.292L218.378 129.891C218.304 128.857 217.417 128.192 216.457 128.34Z" fill="#AAB3C1"/>
<path d="M210.472 199.566C210.472 199.566 209.511 202.669 207.959 203.704C206.408 204.738 203.6 206.068 203.6 207.176C203.526 208.284 204.339 209.245 207.959 208.876C211.654 208.506 218.451 206.363 219.19 205.181C219.929 203.925 218.156 198.679 218.156 198.679L210.472 199.566Z" fill="#222850"/>
<path d="M197.394 201.487C197.394 201.487 196.433 204.59 194.882 205.625C193.33 206.659 190.523 207.989 190.523 209.097C190.449 210.206 191.261 211.166 194.882 210.797C198.502 210.427 205.374 208.284 206.112 207.102C206.851 205.846 205.078 200.6 205.078 200.6L197.394 201.487Z" fill="#222850"/>
<path d="M218.008 139.94C218.008 139.94 217.713 147.402 216.604 151.614C215.57 155.825 213.871 168.682 213.871 168.682C213.871 168.682 217.417 189.665 219.043 198.753C219.043 198.753 215.496 200.009 210.176 199.492C210.176 199.492 204.709 171.785 204.561 169.79C204.487 167.795 206.186 140.605 206.186 140.605L218.008 139.94Z" fill="#444C72"/>
<path d="M205.152 159.889L210.25 147.92L204.635 169.79L205.152 159.889Z" fill="#222850"/>
<path d="M194.955 140.162C194.955 140.162 190.375 161.81 190.227 166.391C190.079 170.972 196.212 201.265 196.212 201.265C196.212 201.265 199.98 202.669 205.817 200.379L201.384 168.903L210.25 147.994L212.097 140.383L194.955 140.162Z" fill="#444C72"/>
<path d="M222.884 113.489C222.884 115.41 221.924 118.144 220.889 120.582C219.633 123.463 218.303 125.902 218.303 125.902L214.535 97.0861C214.609 97.0861 222.884 109.351 222.884 113.489Z" fill="#5484CD"/>
<path d="M217.639 112.011L218.304 125.902C218.304 125.902 219.634 123.463 220.89 120.582L217.639 112.011Z" fill="#0A215B"/>
<path d="M173.233 94.4262C173.233 95.1651 173.085 96.3473 172.938 97.0861C172.864 97.6033 172.79 97.9728 172.79 97.9728L169.169 100.337C169.169 100.337 168.504 99.6721 167.839 98.7855C167.544 98.4161 167.322 98.0466 167.027 97.6772C166.14 96.3473 165.475 93.6874 165.475 93.6874C165.475 90.4364 167.396 87.481 168.061 87.481C168.726 87.481 169.613 90.067 169.908 90.5103C170.204 90.8797 171.238 93.0963 171.238 93.0963C171.386 91.5447 172.199 90.067 172.716 90.2147C173.381 90.3625 173.159 93.0963 173.233 94.4262Z" fill="#FFCFCA"/>
<path d="M172.937 97.0861C172.864 97.6033 172.79 97.9728 172.79 97.9728L169.169 100.337C169.169 100.337 168.504 99.6721 167.839 98.7855C168.652 98.1205 170.425 97.16 172.937 97.0861Z" fill="#EDBBB6"/>
<path d="M200.94 93.3918L201.162 90.9536C201.162 90.9536 198.428 90.8058 197.246 89.4758C197.172 89.402 197.098 89.2542 197.024 89.1803C195.99 87.4809 197.689 79.8707 197.689 79.8707L206.777 80.7573L206.999 95.6823H200.792L200.94 93.3918Z" fill="#FFCFCA"/>
<path d="M203.6 87.407C203.6 87.407 203.526 91.8402 200.94 93.4657L201.162 91.0275C201.162 91.0275 198.428 90.8797 197.246 89.5497C197.246 89.4758 201.384 90.2886 203.6 87.407Z" fill="#EDBBB6"/>
<path d="M195.769 77.4325C196.286 78.9841 197.098 80.6834 199.832 81.0529C202.566 81.4223 203.009 82.8261 202.714 83.9344L203.674 84.1561C203.674 84.1561 203.97 82.9 204.635 83.1217C205.3 83.3433 205.595 84.7472 205.004 85.5599C204.413 86.4465 204.192 86.6682 203.6 86.4465L204.044 90.7319L207.073 91.1752C207.073 91.1752 209.807 90.3625 210.472 88.737C211.137 87.1115 215.201 82.6784 213.132 79.5013C213.132 79.5013 213.871 77.8019 212.984 75.6592C212.171 73.5165 208.846 69.7483 205.078 70.3394C201.31 70.8566 201.088 70.1916 198.428 70.8566C195.695 71.4477 194.734 74.3292 195.769 77.4325Z" fill="#222850"/>
<path d="M195.916 96.495C195.916 96.495 198.059 94.1307 204.265 93.9829C210.471 93.8351 214.609 97.0861 214.609 97.0861C214.609 97.0861 217.269 102.923 218.008 115.558C218.747 128.192 218.451 139.866 218.451 139.866C218.451 139.866 208.92 142.452 193.182 139.866L195.916 96.495Z" fill="#5484CD"/>
<path d="M195.916 96.4951C195.916 96.4951 187.937 104.623 185.203 107.947C185.203 107.947 175.967 98.6377 173.677 97.6033C173.677 97.6033 170.721 97.6772 168.431 101.15C168.431 101.15 177.001 112.085 183.356 117.479C183.356 117.479 192.37 113.637 197.616 109.573C197.616 109.573 199.758 105.952 199.315 102.11C198.946 98.1944 195.916 96.4951 195.916 96.4951Z" fill="#5484CD"/>
<path d="M194.956 111.494L197.616 109.647L194.66 115.853L194.956 111.494Z" fill="#0A215B"/>
<path d="M485.327 122.133L482.076 160.48C481.855 163.362 479.342 165.431 476.461 165.209L424.667 160.85C421.785 160.628 419.717 158.116 419.938 155.234L420.973 143.043C421.12 140.9 419.273 139.127 417.131 139.497C414.397 139.94 411.885 140.827 410.185 141.196C409.372 141.344 408.56 141.27 407.673 140.974C401.762 138.906 402.501 129.965 408.708 128.931C409.594 128.783 410.481 128.857 411.22 129.153C412.845 129.818 415.209 131.074 417.795 131.96C419.864 132.625 422.007 131.221 422.155 129.079L423.189 116.888C423.411 114.006 425.923 111.863 428.804 112.159L448.236 113.784C450.084 113.932 451.34 115.779 450.749 117.553C449.862 120.434 448.458 122.946 447.719 124.719C447.424 125.458 447.35 126.345 447.498 127.232C448.532 133.438 457.472 134.177 459.541 128.266C459.837 127.379 459.91 126.567 459.763 125.754C459.319 123.907 458.359 121.173 457.989 118.144C457.768 116.296 459.246 114.745 461.093 114.893L480.525 116.518C483.48 116.814 485.549 119.326 485.327 122.133Z" fill="#E7CF7F"/>
<path d="M426.071 294.731C426.071 294.731 424.815 299.238 423.189 300.272C421.564 301.381 418.608 302.785 418.534 303.967C418.46 305.149 419.273 306.183 423.189 305.814C427.105 305.444 434.346 303.154 435.159 301.824C435.971 300.494 434.05 294.879 434.05 294.879L426.071 294.731Z" fill="#222850"/>
<path d="M450.01 292.736C450.01 292.736 448.754 297.243 447.128 298.278C445.503 299.386 442.547 300.79 442.473 301.972C442.399 303.154 443.212 304.188 447.128 303.819C451.044 303.45 458.285 301.159 459.098 299.829C459.91 298.499 457.989 292.884 457.989 292.884L450.01 292.736Z" fill="#222850"/>
<path d="M431.612 231.928C431.612 231.928 427.548 253.503 426.957 259.561C426.366 265.62 424.593 294.953 424.593 294.953C424.593 294.953 429.986 297.908 434.863 295.174L436.045 265.694L442.695 243.602L445.133 266.359L448.827 294.066C448.827 294.066 453.852 296.8 458.506 292.588L454.369 262.221L455.551 234.957L431.612 231.928Z" fill="#444C72"/>
<path d="M479.859 167.499C479.638 167.943 479.416 168.46 479.121 168.903L473.579 167.499C473.579 167.499 473.431 167.204 473.21 166.761C472.619 165.504 471.658 162.918 472.028 161.958C472.619 160.628 474.392 163.214 474.392 163.214C474.392 163.214 475.352 162.475 475.648 161.293C475.87 160.111 476.165 157.303 476.904 157.155C477.643 157.008 479.933 158.042 480.82 159.815C481.559 161.293 481.337 164.396 479.859 167.499Z" fill="#FFCFCA"/>
<path d="M479.86 167.499C479.638 167.943 479.416 168.46 479.121 168.903L473.579 167.499C473.579 167.499 473.432 167.204 473.21 166.761C474.466 166.317 478.086 165.431 479.86 167.499Z" fill="#FFCFCA"/>
<path d="M428.435 165.8C428.361 165.874 428.361 165.948 428.361 165.948L422.82 167.352C422.376 166.613 421.933 165.8 421.638 165.061C420.529 162.254 420.455 159.594 421.12 158.19C422.007 156.417 424.297 155.382 425.036 155.53C425.775 155.678 426.071 158.485 426.292 159.668C426.588 160.85 427.548 161.589 427.548 161.589C427.548 161.589 429.322 159.003 429.913 160.332C430.356 161.515 428.804 165.061 428.435 165.8Z" fill="#FFCFCA"/>
<path d="M428.435 165.8C428.361 165.874 428.361 165.948 428.361 165.948L422.82 167.352C422.377 166.613 421.933 165.8 421.638 165.061C423.854 164.618 427.031 164.322 428.435 165.8Z" fill="#FFCFCA"/>
<path d="M434.863 204.221C434.863 204.221 425.627 190.182 424.297 187.005C422.967 183.828 421.711 166.169 421.711 166.169C421.711 166.169 425.258 163.731 428.731 166.169L432.129 184.641L440.331 192.473C440.331 192.473 440.183 199.123 434.863 204.221Z" fill="#FF8F79"/>
<path d="M457.103 193.581L467.151 184.641L473.062 167.573C473.062 167.573 477.2 166.317 479.416 169.125C479.416 169.125 476.978 185.232 474.761 189.665C472.545 194.098 458.433 206.068 458.433 206.068C458.433 206.068 455.255 198.384 457.103 193.581Z" fill="#FF8F79"/>
<path d="M454.369 179.617L452.596 194.246L445.059 193.581L445.503 191.956L446.094 189.665C446.094 189.665 444.986 189.296 444.099 188.04C443.803 187.596 443.508 187.005 443.286 186.266C442.621 183.68 445.503 177.031 445.503 177.031L454.369 179.617Z" fill="#FFCFCA"/>
<path d="M445.577 191.956L446.168 189.665C446.168 189.665 445.059 189.296 444.173 188.04C445.281 187.966 446.981 187.67 448.31 186.266C448.31 186.266 448.606 190.552 445.577 191.956Z" fill="#FFCFCA"/>
<path d="M444.468 175.11C444.616 177.326 447.719 179.1 447.941 180.282C448.163 181.538 447.941 182.942 447.941 182.942C447.941 182.942 449.123 180.873 450.084 181.316C451.118 181.833 451.118 185.01 450.084 185.601C449.049 186.193 448.31 186.193 448.31 186.193L448.089 189.887L452.965 191.365C452.965 191.365 455.773 189.665 456.216 187.892C456.659 186.119 459.763 183.015 459.91 180.208C460.058 177.4 458.063 176.957 458.063 176.957C458.063 176.957 457.177 171.489 454.369 170.307C451.561 169.125 444.099 169.642 444.468 175.11Z" fill="#222850"/>
<path d="M440.33 192.473C440.33 192.473 445.133 192.177 449.936 192.473C454.738 192.768 457.102 193.581 457.102 193.581C457.102 193.581 460.353 209.836 457.102 234.44C457.102 234.44 447.202 238.947 429.986 231.263L433.237 211.092C434.346 204.442 436.71 198.162 440.33 192.473Z" fill="#FF8F79"/>
<path d="M442.695 243.528L445.724 241.164L443.581 252.025L442.695 243.528Z" fill="#222850"/>
<path d="M247.636 310.321H182.469C181.878 310.321 181.36 309.804 181.36 309.213C181.36 308.622 181.878 308.104 182.469 308.104H247.636C248.227 308.104 248.744 308.622 248.744 309.213C248.744 309.878 248.301 310.321 247.636 310.321Z" fill="#222850"/>
<path d="M259.384 310.321H254.951C254.36 310.321 253.843 309.804 253.843 309.213C253.843 308.622 254.36 308.104 254.951 308.104H259.384C259.975 308.104 260.493 308.622 260.493 309.213C260.493 309.878 260.049 310.321 259.384 310.321Z" fill="#222850"/>
<path opacity="0.3" d="M170.573 314.089H63.4387C61.961 314.089 60.7788 312.907 60.7788 311.429V310.838C60.7788 309.36 61.961 308.178 63.4387 308.178H170.573C172.051 308.178 173.233 309.36 173.233 310.838V311.429C173.233 312.833 171.977 314.089 170.573 314.089Z" fill="#CED8D6"/>
<path opacity="0.3" d="M483.998 314.089H321.744C320.119 314.089 318.789 312.759 318.789 311.134C318.789 309.508 320.119 308.178 321.744 308.178H483.998C485.623 308.178 486.953 309.508 486.953 311.134C486.953 312.759 485.623 314.089 483.998 314.089Z" fill="#CED8D6"/>
<path opacity="0.3" d="M291.968 320H200.792C199.167 320 197.837 318.67 197.837 317.045C197.837 315.419 199.167 314.089 200.792 314.089H291.968C293.593 314.089 294.923 315.419 294.923 317.045C294.923 318.67 293.593 320 291.968 320Z" fill="#CED8D6"/>
<path d="M386.099 174.888C386.246 175.036 386.468 175.11 386.616 175.257C388.093 176.07 389.941 175.701 391.049 174.371C392.157 173.041 392.083 171.12 390.975 169.864C390.827 169.716 390.679 169.568 390.532 169.42C390.384 169.273 390.162 169.199 390.014 169.051C388.537 168.238 386.69 168.608 385.581 169.938C384.473 171.268 384.547 173.189 385.655 174.445C385.729 174.592 385.877 174.74 386.099 174.888Z" fill="#CED8D6"/>
<g opacity="0.4">
<path d="M386.099 174.888C386.246 175.036 386.468 175.11 386.616 175.257L390.975 169.864C390.827 169.716 390.68 169.568 390.532 169.42C390.384 169.273 390.162 169.199 390.015 169.051L385.655 174.445C385.729 174.592 385.877 174.74 386.099 174.888Z" fill="#CED8D6"/>
</g>
<path d="M259.68 111.346C259.827 111.494 260.049 111.568 260.197 111.716C261.674 112.528 263.522 112.159 264.63 110.829C265.738 109.499 265.664 107.578 264.556 106.322C264.408 106.174 264.261 106.026 264.113 105.879C263.965 105.731 263.743 105.657 263.596 105.509C262.118 104.696 260.271 105.066 259.162 106.396C258.054 107.726 258.128 109.647 259.236 110.903C259.31 111.051 259.458 111.198 259.68 111.346Z" fill="#CED8D6"/>
<g opacity="0.4">
<path d="M259.68 111.346C259.827 111.494 260.049 111.568 260.197 111.716L264.556 106.322C264.408 106.174 264.261 106.026 264.113 105.879C263.965 105.731 263.743 105.657 263.596 105.509L259.236 110.903C259.31 111.051 259.458 111.198 259.68 111.346Z" fill="#CED8D6"/>
</g>
</g>
<defs>
<clipPath id="clip0_364_6665">
<rect width="511.734" height="320" fill="white" transform="translate(0.266113)"/>
</clipPath>
</defs>
</svg>
