<svg width="165" height="208" viewBox="0 0 165 208" fill="none" xmlns="http://www.w3.org/2000/svg">
<path d="M63.05 166.737C63.05 166.737 59.6951 184.987 59.7297 185.471C59.7643 185.954 64.3494 187.6 64.3494 187.6L72.199 169.484L63.0558 166.737L63.05 166.737Z" fill="#FFD5D9"/>
<path d="M70.8597 198.223C70.6945 198.206 70.5172 198.183 70.3333 198.15C68.4309 197.829 64.499 196.067 61.7377 194.789C58.6251 193.349 55.6748 191.148 55.9751 190.026C55.9738 190.008 55.9838 189.984 55.9942 189.966C56.0279 189.864 56.0832 189.737 56.1543 189.585C56.1643 189.561 56.1747 189.543 56.1847 189.519C56.2155 189.458 56.2463 189.397 56.2771 189.336C56.4988 188.917 56.8237 188.384 57.1798 187.796C57.2056 187.748 57.2318 187.705 57.2588 187.674C57.2896 187.613 57.3108 187.582 57.3108 187.582C58.6463 185.461 60.2599 182.154 60.2599 182.154C60.2599 182.154 62.0643 183.805 63.9152 184.961C64.7982 185.518 66.9893 181.526 65.1353 185.728C64.5304 187.095 67.0969 190.805 69.3146 193.404C69.3146 193.404 69.5768 193.713 69.9725 194.171C70.1381 194.358 70.4315 194.694 70.7757 195.085C71.2846 195.652 71.6463 196.042 71.7432 196.169C71.7566 196.192 71.769 196.203 71.7824 196.225C71.8152 196.275 71.8423 196.326 71.8697 196.383C72.1844 197.016 72.0755 198.031 70.8539 198.224L70.8597 198.223Z" fill="#FFD5D9"/>
<path d="M70.8593 198.223C70.6941 198.206 70.5169 198.183 70.333 198.15C68.4306 197.829 64.4629 196.14 61.7373 194.789C57.3548 192.62 55.6744 191.148 55.9747 190.025C55.9735 190.008 55.9834 189.984 55.9938 189.966C56.0433 189.839 56.0987 189.712 56.154 189.585C56.164 189.561 56.1744 189.543 56.1844 189.519C56.2151 189.458 56.2459 189.397 56.2767 189.336C56.5945 188.705 56.9727 188.098 57.1794 187.796C57.2052 187.748 57.2314 187.705 57.2585 187.674C57.2893 187.613 57.3105 187.582 57.3105 187.582C57.3105 187.582 60.3201 190.774 65.8403 193.377C67.8276 194.312 69.3142 193.404 69.3142 193.404C69.3142 193.404 69.5764 193.713 69.9722 194.171C70.1378 194.358 70.4312 194.694 70.7753 195.085C71.0941 195.449 71.4507 195.851 71.7878 196.225C72.2527 196.748 72.6613 197.222 72.8423 197.461C73.2606 197.987 72.666 198.434 70.8593 198.223Z" fill="#0F1F38"/>
<path d="M109.63 4.66745C109.587 4.39533 109.367 4.18856 109.115 4.10121C107.156 3.39242 105.106 5.99825 103.981 7.22045C102.716 8.60494 101.477 10.0227 100.224 11.4239C99.9859 11.6927 98.3064 13.9148 97.9814 13.9556C97.7959 13.9806 97.604 13.9182 97.4147 13.8088C97.3539 13.6141 97.2927 13.4136 97.2436 13.218C96.9439 12.0567 96.4196 8.65729 94.4178 9.0757C92.243 9.52992 94.2789 12.8622 94.5012 13.8416C94.5528 14.0721 94.5878 14.3156 94.6228 14.559C94.4407 15.7781 94.6955 17.212 94.9624 18.2409C95.3104 19.5861 96.027 20.6824 96.9113 21.6672C96.2203 22.7296 95.5601 23.8132 94.8504 24.8593C94.0928 25.9733 87.2265 33.4438 87.2265 33.4438L96.6929 38.8265C96.6929 38.8265 102.211 28.2263 103.165 26.9987C103.653 26.3666 104.357 25.9825 104.921 25.4327C105.573 24.8006 106.143 24.0923 106.719 23.3953C107.555 22.387 108.328 21.3305 109.028 20.2265C109.638 19.2636 110.577 18.0722 109.667 16.9663C109.436 16.6843 109.059 16.4009 108.654 16.2366C108.924 15.503 108.914 14.6255 108.588 13.9989C108.289 13.4231 107.717 13.1244 107.077 13.1702C107.03 13.1736 106.978 13.1773 106.925 13.1811C106.948 12.6056 106.856 12.0559 106.43 11.5771C106.105 11.2139 105.697 10.9855 105.257 10.8998C106.064 10.0692 106.914 9.25895 107.608 8.4013C108.502 7.30687 109.885 6.17744 109.63 4.66164L109.63 4.66745Z" fill="#FFD5D9"/>
<path d="M100.956 21.3955C100.956 21.3955 100.909 21.3988 100.885 21.3946C100.726 21.3709 100.621 21.2203 100.645 21.0605C100.644 21.0489 100.841 19.7993 100.47 18.2977C100.1 16.8077 98.5977 15.1997 98.5848 15.1831C98.477 15.0678 98.4812 14.8801 98.5964 14.7724C98.7112 14.6588 98.8993 14.6687 99.0071 14.784C99.0708 14.8555 100.63 16.5181 101.034 18.1578C101.437 19.7801 101.227 21.095 101.219 21.1541C101.2 21.2902 101.084 21.3863 100.95 21.3959L100.956 21.3955Z" fill="#EFBABF"/>
<path d="M103.03 16.3521C102.943 16.3584 102.861 16.3526 102.789 16.3285C102.393 16.2045 102.134 16.0123 101.998 15.7469C101.78 15.3233 101.917 14.7865 102.091 14.2705C102.43 13.2802 104.395 11.2836 104.619 11.0626C104.734 10.949 104.915 10.9477 105.035 11.0621C105.148 11.1769 105.15 11.3583 105.035 11.4778C104.457 12.0637 102.896 13.7328 102.644 14.4652C102.465 14.9932 102.423 15.3066 102.518 15.493C102.579 15.6116 102.727 15.7064 102.96 15.7833C103.284 15.8832 104.629 14.8794 105.834 13.6339C105.948 13.5144 106.129 13.5132 106.249 13.6276C106.363 13.7424 106.37 13.9234 106.255 14.0428C105.716 14.6026 103.999 16.3004 103.032 16.3696L103.03 16.3521Z" fill="#EFBABF"/>
<path d="M104.901 18.2676C104.72 18.2806 104.555 18.2689 104.412 18.2265C104.166 18.1504 103.985 17.9935 103.893 17.7718C103.346 16.5053 104.856 14.6172 105.029 14.4059C105.131 14.2814 105.317 14.2623 105.441 14.3646C105.566 14.467 105.585 14.6529 105.483 14.7774C105.073 15.2751 104.089 16.739 104.433 17.5399C104.454 17.5853 104.487 17.6356 104.589 17.6693C105.217 17.8644 106.94 16.9742 107.874 16.3686C108.008 16.2829 108.193 16.3224 108.278 16.4568C108.364 16.5912 108.325 16.7755 108.19 16.8613C107.955 17.0128 106.107 18.1872 104.907 18.273L104.901 18.2676Z" fill="#EFBABF"/>
<path d="M107.085 20.4826C106.508 20.5239 106.062 20.345 105.769 19.9385C104.884 18.6962 106.356 17.3379 106.422 17.2804C106.543 17.1722 106.726 17.1826 106.834 17.2978C106.942 17.4189 106.931 17.6012 106.816 17.709C106.805 17.7214 105.663 18.7751 106.248 19.5939C106.762 20.3125 108.184 19.5666 108.612 19.3252L108.685 19.2849C108.833 19.2216 109.002 19.2915 109.066 19.445C109.129 19.5927 109.053 19.7621 108.906 19.8254C108.22 20.2257 107.603 20.4397 107.084 20.4768L107.085 20.4826Z" fill="#EFBABF"/>
<path d="M63.9379 65.3222C64.4098 65.6163 80.6762 72.8311 85.6448 66.0877C90.6134 59.3444 100.16 41.5469 99.7106 40.2558C99.2611 38.9647 87.7848 31.3487 86.547 32.216C85.3313 33.0641 78.8439 39.4478 78.8439 39.4478L63.9325 65.3285L63.9379 65.3222Z" fill="#273A57"/>
<path d="M55.5787 102.087C55.5787 102.087 81.8297 99.7521 90.2887 105.295C102.802 113.492 77.0545 171.555 73.9338 171.556C70.8131 171.557 62.6886 169.134 61.339 167.949C59.9837 166.763 67.1729 134.918 67.1729 134.918L55.5791 102.093L55.5787 102.087Z" fill="#1C468A"/>
<path d="M82.2233 173.088C82.2233 173.088 78.8685 191.338 78.9031 191.822C78.9377 192.305 83.5228 193.951 83.5228 193.951L91.3723 175.835L82.2292 173.088L82.2233 173.088Z" fill="#FFD5D9"/>
<path d="M93.4899 201.259C93.3281 201.288 93.1483 201.313 92.9623 201.332C91.0454 201.545 86.7791 200.919 83.7765 200.443C80.3891 199.907 76.952 198.595 76.9331 197.432C76.9319 197.414 76.9302 197.391 76.9343 197.367C76.9385 197.261 76.958 197.125 76.9871 196.959L76.9996 196.888C77.0125 196.823 77.025 196.752 77.0379 196.686C77.1393 196.222 77.3011 195.619 77.4879 194.956C77.5016 194.902 77.5157 194.855 77.5307 194.818C77.5436 194.753 77.5586 194.717 77.5586 194.717C78.2648 192.313 79.3059 189.27 79.3059 189.27C79.3059 189.27 81.0994 189.785 83.1978 190.39C84.2027 190.687 86.1904 187.782 84.7836 191.032C84.1908 192.404 87.8532 195.145 90.6941 197.044C90.6941 197.044 91.0324 197.272 91.5363 197.605C91.7452 197.742 92.1197 197.984 92.5554 198.263C93.1992 198.668 93.6523 198.946 93.7822 199.042C93.8009 199.059 93.8192 199.069 93.8379 199.085C93.8816 199.123 93.9257 199.167 93.964 199.211C94.4405 199.733 94.6121 200.739 93.4899 201.259Z" fill="#FFD5D9"/>
<path d="M59.7585 101.829C59.7585 101.829 101.257 112.514 107.464 117.105C113.671 121.696 112.578 132.443 107.556 144.746C102.535 157.056 95.1421 176.971 94.1681 177.761C93.1941 178.551 80.6709 174.798 79.8702 173.672C79.0699 172.553 87.7656 131.729 87.7656 131.729C87.7656 131.729 54.2938 131.671 48.6022 129.537C42.9106 127.403 41.5723 122.364 41.5723 122.364L59.7527 101.829L59.7585 101.829Z" fill="#405F92"/>
<path d="M75.5225 53.9777C75.5225 53.9777 72.2501 73.1354 67.8415 97.0351C66.8623 102.334 59.7591 101.829 59.7591 101.829L57.8052 61.0184L75.5225 53.9777Z" fill="white"/>
<path d="M48.1712 15.0838C48.1712 15.0838 65.0861 20.9699 67.4355 22.3007C70.5476 24.0629 72.9068 27.0851 72.9068 27.0851C72.9068 27.0851 73.223 33.6319 72.4778 37.3739C71.5808 41.8587 59.1708 93.6155 59.8798 103.77C60.0765 106.52 63.0547 118.438 60.6477 119.577C58.2349 120.715 39.523 125.555 33.4206 118.825C27.3124 112.096 20.2516 83.5423 24.3218 69.2341C31.6344 43.534 35.4341 36.0019 40.394 22.5902C43.4018 14.4648 48.177 15.0834 48.177 15.0834L48.1712 15.0838Z" fill="#1877E1"/>
<path d="M155.217 75.9407C154.5 76.3082 153.425 76.4203 152.644 76.2361C153.026 76.5015 154.016 76.6591 154.249 77.0581C154.482 77.4571 154.511 78.0171 154.189 78.3505C153.867 78.678 153.295 78.8653 152.839 78.8745C149.847 78.9481 146.934 78.8286 144.158 78.6583C145.475 78.892 146.797 79.1194 148.068 79.5379C148.494 79.6772 148.94 79.8561 149.211 80.2114C149.488 80.5663 149.513 81.1559 149.151 81.4218C148.951 81.565 148.688 81.5837 148.443 81.5954C147.059 81.6476 145.658 81.5371 144.295 81.3067C142.001 80.9205 139.589 80.7593 137.267 80.6268C136.038 80.5508 134.071 79.8192 132.816 79.3L132.321 79.0954C131.898 78.909 131.632 78.7876 131.632 78.7876C131.632 78.7876 133.32 75.2942 134.017 73.9152C133.971 74.0064 133.334 73.1971 133.451 72.8784C133.666 72.2834 134.215 72.5837 134.694 72.6548C134.836 72.6739 134.965 72.6706 135.097 72.6377C135.328 72.5919 135.543 72.4829 135.743 72.3339C136.104 72.0679 136.423 71.6997 136.728 71.3734C138.301 69.7151 140.599 69.0062 142.789 68.3577C143.792 68.0634 145.004 67.8069 145.78 68.5125C145.93 68.6423 146.053 68.815 146.079 69.0122C146.156 69.5864 145.464 69.9052 144.921 70.0905C143.836 70.4726 142.826 71.0835 141.986 71.8696C144.784 71.365 147.618 71.209 150.459 71.2985C151.485 71.3305 153.16 71.3336 153.714 72.1957C153.891 72.4582 153.841 72.6667 153.728 72.9617C153.515 73.5155 152.387 73.5436 151.794 73.5157C153.051 73.6542 154.587 73.8487 155.291 74.2784C155.909 74.6499 155.663 75.7098 155.217 75.9407Z" fill="#FFD5D9"/>
<path d="M151.126 73.7626C151.126 73.7626 151.103 73.7643 151.097 73.7647L146.624 73.6046C146.466 73.5984 146.339 73.4611 146.345 73.3026C146.351 73.144 146.482 73.0117 146.647 73.0233L151.12 73.1834C151.279 73.1896 151.406 73.3269 151.399 73.4855C151.393 73.6382 151.278 73.7576 151.127 73.7684L151.126 73.7626Z" fill="#EFBABF"/>
<path d="M152.208 76.4372C152.208 76.4372 152.185 76.4389 152.179 76.4393L146.497 76.2427C146.339 76.2365 146.212 76.0992 146.218 75.9407C146.224 75.7821 146.356 75.6556 146.52 75.6614L152.202 75.858C152.36 75.8642 152.487 76.0015 152.481 76.16C152.474 76.3127 152.36 76.4322 152.209 76.443L152.208 76.4372Z" fill="#EFBABF"/>
<path d="M135.743 72.334L135.473 79.7717L132.868 79.2086L132.321 79.0955L130.876 78.7832L112.186 74.7572L115.75 62.792L132.996 71.0199L134.779 71.876L135.743 72.334Z" fill="#FFD5D9"/>
<path d="M71.4494 25.4621C71.4494 25.4621 106.359 54.0431 108.507 55.4293C110.656 56.8154 116.477 61.9027 117.196 62.466C117.916 63.0293 116.101 70.1501 115.131 71.736C114.161 73.3218 112.97 76.2351 111.659 76.3172C110.342 76.3997 104.911 76.0388 95.9059 72.1044C86.9003 68.1701 67.7406 58.4046 67.7406 58.4046L68.6978 42.4865L71.4548 25.4559L71.4494 25.4621Z" fill="#1877E1"/>
<path d="M135.16 72.8558C135.194 73.2457 135.092 73.6218 134.876 73.9535C134.591 74.3896 134.132 74.522 133.77 74.864C132.914 75.6747 133.211 76.4673 133.288 77.4572C133.337 78.0568 133.175 78.6655 132.869 79.2086C132.859 79.2385 132.838 79.2693 132.817 79.3001L132.322 79.0955L130.877 78.7832C131.379 78.4427 131.506 78.0824 131.266 77.1861C131 76.1746 130.849 75.4536 131.527 74.5269C131.862 74.0637 132.387 73.7861 132.831 73.4382C132.991 73.3096 133.138 73.1469 133.176 72.9451C133.227 72.6721 133.052 72.4387 133.004 72.1787C132.924 71.716 132.897 71.3432 132.997 71.0199L134.78 71.876C134.88 72.1381 135.024 72.4206 135.098 72.6378C135.133 72.7231 135.156 72.7976 135.16 72.8558Z" fill="white"/>
<path d="M56.8317 139.455L52.6641 139.714L56.2223 197.03L60.39 196.771L56.8317 139.455Z" fill="#133671"/>
<path d="M3.83793 53.8078C4.47893 48.6095 10.3993 46.5757 16.7703 48.7137C23.1472 50.8512 44.2673 120.913 48.5843 124.456C52.9013 128 92.1852 126.15 95.5978 127.691C99.0104 129.233 98.4999 133.555 96.0918 135.66C93.6891 137.758 53.3917 143.774 42.9157 143.838C32.4339 143.903 24.2502 140.899 17.8964 129.591C11.5367 118.283 3.41393 57.2926 3.84417 53.8132L3.83793 53.8078Z" fill="#A5C4EF"/>
<path d="M56.1375 195.652C56.1375 195.652 41.9658 199.383 42.0446 200.648C42.1234 201.913 47.8321 204.695 57.899 204.151C69.8441 203.507 75.3373 199.759 74.6332 198.427C73.929 197.096 60.3063 195.489 60.3063 195.489L56.1375 195.652Z" fill="#133671"/>
<path d="M93.4901 201.259C93.3282 201.288 93.1485 201.312 92.9625 201.332C91.0456 201.545 86.7672 200.996 83.7767 200.443C78.9645 199.552 76.9522 198.595 76.9333 197.431C76.932 197.414 76.9304 197.391 76.9345 197.367C76.9482 197.231 76.9678 197.095 76.9873 196.959L76.9998 196.888C77.0127 196.823 77.0252 196.751 77.0381 196.686C77.1699 195.992 77.3724 195.304 77.4881 194.956C77.5018 194.902 77.5159 194.854 77.5309 194.818C77.5438 194.753 77.5588 194.717 77.5588 194.717C77.5588 194.717 81.3263 196.965 87.3465 197.963C89.5152 198.323 90.6943 197.044 90.6943 197.044C90.6943 197.044 91.0326 197.272 91.5365 197.604C91.7454 197.742 92.1199 197.984 92.5556 198.263C92.9609 198.527 93.4149 198.817 93.8381 199.085C94.4273 199.464 94.9496 199.808 95.1905 199.984C95.7398 200.378 95.2843 200.966 93.4901 201.259Z" fill="#0F1F38"/>
</svg>
