<svg width="102" height="132" viewBox="0 0 102 132" fill="none" xmlns="http://www.w3.org/2000/svg">
<path d="M1.25882 63.0549C3.11456 53.3665 8.68177 44.7802 14.9697 37.1627C20.1657 30.9103 25.8843 25.1837 32.1289 19.9793C38.3736 14.7749 45.0363 10.1756 52.1241 6.18858C56.1491 3.94115 59.493 1.59649 64.0477 0.969799C69.8455 0.181039 75.6181 2.75621 80.4214 6.13455C81.8592 7.16462 83.2356 8.26312 84.5581 9.43726C85.8805 10.6114 87.1345 11.8468 88.3272 13.1505C89.5199 14.4543 90.6406 15.8158 91.6892 17.2348C92.7378 18.6539 93.7107 20.1269 94.6079 21.6468C95.5051 23.1667 96.3195 24.7334 97.051 26.3398C97.7825 27.9461 98.4311 29.5848 98.9932 31.2596C99.5553 32.9344 100.027 34.6308 100.413 36.3559C100.799 38.0775 101.09 39.8171 101.296 41.5711C101.48 43.3287 101.573 45.0899 101.573 46.8547C101.573 48.6195 101.487 50.3808 101.31 52.1384C101.134 53.896 100.863 55.6391 100.51 57.3679C100.154 59.0967 99.7103 60.8039 99.177 62.4895C98.6473 64.175 98.0311 65.8282 97.3285 67.4489C96.6294 69.0697 95.8475 70.6508 94.9827 72.1923C94.1215 73.7338 93.181 75.2285 92.1648 76.6728C91.1487 78.117 90.0641 79.5073 88.9038 80.8435C85.8913 84.3803 82.3636 87.294 78.317 89.581C77.0991 90.2149 75.8451 90.7732 74.5587 91.2558C73.2723 91.7384 71.9607 92.1418 70.6238 92.466C69.287 92.7901 67.9357 93.0314 66.57 93.1899C65.2044 93.3484 63.8351 93.4276 62.4586 93.4204C61.0821 93.4132 59.7128 93.3231 58.3507 93.1503C56.985 92.9774 55.6374 92.7217 54.3041 92.3867C52.9709 92.0518 51.6629 91.634 50.3801 91.1405C49.0973 90.6471 47.8505 90.0745 46.6361 89.4298C44.2471 88.1512 42.0238 86.6313 39.9699 84.8665C37.9124 83.1017 36.0746 81.1388 34.4459 78.9706C32.8208 76.806 31.4479 74.4901 30.3273 72.023C29.2066 69.5559 28.367 67.0023 27.8085 64.3515L28.2049 63.7104C28.3418 63.4907 26.8392 63.1918 27.0194 62.9757C27.1094 64.9674 27.304 66.9483 27.6031 68.9184C27.9022 70.8885 28.3022 72.8406 28.8066 74.7675C29.3111 76.6979 29.9165 78.5924 30.6227 80.4581C31.329 82.3237 32.129 84.1462 33.0262 85.9254C33.9234 87.7046 34.9108 89.4334 35.9918 91.1117C37.0728 92.7865 38.2367 94.4036 39.4871 95.9559C40.7374 97.5082 42.0671 98.9921 43.4724 100.408C44.8813 101.819 46.3587 103.156 47.9045 104.416C53.3637 108.749 59.7741 112.415 62.6243 118.711C60.5632 123.714 57.9868 129.246 52.8952 131.101C48.9675 132.462 44.5858 131.306 40.7266 129.739C38.1142 128.63 35.581 127.355 33.1307 125.922C30.6804 124.488 28.3346 122.9 26.0897 121.164C23.8448 119.428 21.7188 117.555 19.7153 115.545C17.7119 113.536 15.8417 111.407 14.1121 109.156C12.3824 106.905 10.8006 104.557 9.37363 102.104C7.94669 99.6512 6.6819 97.1193 5.57927 94.5045C4.47663 91.8897 3.54697 89.2173 2.79026 86.4836C2.03355 83.75 1.4534 80.9803 1.04982 78.171C0.311126 73.1215 0.379596 68.0828 1.25522 63.0585L1.25882 63.0549Z" fill="#F8CDA2"/>
<path d="M46.2427 59.8279C44.2644 57.7426 41.1115 60.9048 43.0897 62.9758C55.0566 75.4879 72.0537 85.7093 89.93 80.5986C92.6578 79.8099 91.5119 75.5167 88.7553 76.3055C72.3816 80.966 57.0889 71.1659 46.2427 59.8279ZM59.7626 46.473C70.5547 53.806 84.8925 63.1955 98.1962 56.2983C100.747 54.9369 102.999 58.8195 100.448 60.1413C85.4402 67.91 69.8736 58.7114 57.5104 50.316C55.1502 48.7205 57.3735 44.8631 59.7626 46.473Z" fill="#B44C2C"/>
</svg>
