<svg width="249" height="197" viewBox="0 0 249 197" fill="none" xmlns="http://www.w3.org/2000/svg">
<g clip-path="url(#clip0_476_789)">
<path d="M133.131 75.1433C122.22 71.0635 60.3058 47.4401 54.7891 53.5365C52.152 56.4426 48.0513 55.6025 46.7043 59.2936C37.1023 85.3662 41.1689 89.184 61.3455 96.431C203.764 147.694 192.806 143.48 196.634 141.771C206.221 137.495 211.789 123.776 210.96 113.715C210.206 104.528 211.081 104.307 133.116 75.1469L133.131 75.1433Z" fill="#DF98D4"/>
<path d="M62.7816 52.8645C-14.9998 45.3092 -18.3122 44.1545 47.8915 90.1728C51.3268 90.3251 55.2551 84.1142 46.8879 76.4523C51.0187 77.8371 56.072 75.6628 57.716 71.6425C59.36 67.6222 57.1278 62.4009 53.0124 61.0124C58.7737 63.5243 64.8288 56.8798 62.7816 52.8645Z" fill="#F5BDA6"/>
<path d="M17.3881 48.9965C17.3722 54.5501 15.5665 60.1012 12.2943 64.6005C-4.00107 51.7054 -2.50742 48.2233 17.3881 48.9965Z" fill="#333333"/>
<path d="M47.2354 76.5491C66.7759 84.2049 86.782 92.8063 106.326 100.477C116.051 104.284 125.763 108.109 135.576 111.667C158.429 119.991 181.975 127.178 205.266 134.182" stroke="#F3CAED" stroke-linecap="round" stroke-linejoin="round"/>
<path d="M53.0278 61.0088C105.462 79.925 158.319 99.1155 211.013 117.338" stroke="#F3CAED" stroke-linecap="round" stroke-linejoin="round"/>
<path d="M200.27 101.551C232.046 111.58 248.048 114.759 242.195 133.51C233.641 160.928 216.521 152.429 188.831 141.441C205.657 116.694 202.33 109.993 200.266 101.535L200.27 101.551Z" fill="#EED374"/>
<path d="M242.196 133.51C235.847 153.822 224.81 154.413 208.245 148.9C212.617 144.516 215.78 138.647 218.089 132.815C221.138 125.074 223.161 116.421 221.766 108.391C238.895 114.291 246.525 119.643 242.196 133.51Z" fill="#8574EE"/>
<path d="M194.932 141.52C204.17 133.254 207.833 119.527 205.711 106.587" stroke="#CCB460" stroke-linecap="round" stroke-linejoin="round"/>
<path d="M205.637 145.275C214.311 135.924 218.271 122.419 216.031 109.881" stroke="#CCB460" stroke-linecap="round" stroke-linejoin="round"/>
</g>
<defs>
<clipPath id="clip0_476_789">
<rect width="219.355" height="150" fill="white" transform="matrix(-0.973616 0.228195 0.228195 0.973616 214.189 0.419434)"/>
</clipPath>
</defs>
</svg>
