<svg width="131" height="127" viewBox="0 0 131 127" fill="none" xmlns="http://www.w3.org/2000/svg">
<path d="M61.9511 20.3728C58.2336 24.4314 54.3278 28.3244 50.6744 32.4426C48.5209 34.8677 46.0023 37.6498 45.2428 40.9062C44.5293 43.9583 45.8718 46.6754 48.0042 48.8113C49.0143 49.8223 50.1136 50.7902 51.4857 51.253C52.5727 51.6193 53.7888 51.5719 54.8872 51.2823C57.6407 50.559 59.995 48.5073 62.0315 46.6128C65.172 43.6976 67.9909 40.4414 70.8022 37.2113C74.6519 32.7861 78.4399 28.3102 82.3146 23.907C84.055 21.9287 85.7587 20.0465 86.6146 17.5083C87.2361 15.6714 87.3125 13.6636 86.8703 11.7805C86.0015 8.07233 83.1051 5.10913 79.6057 3.74751C75.8551 2.29002 71.7482 3.12165 68.6878 5.65533C67.4699 6.6633 66.5348 7.97467 65.5043 9.16281C64.4739 10.351 63.4472 11.4997 62.3982 12.6544C59.7116 15.6159 56.9886 18.5488 54.2838 21.496C48.6478 27.6383 42.9572 33.8096 38.008 40.5263C36.3036 42.8359 34.5008 45.3158 33.6093 48.0795C32.5017 51.506 33.4292 55.3616 35.3962 58.2954C37.3631 61.2293 40.6614 63.8112 44.3308 64.5176C48.6783 65.3544 52.8413 63.7109 55.9468 60.6467C57.4724 59.1387 58.913 57.5286 60.3859 55.9675C62.0943 54.1562 63.7969 52.3415 65.4914 50.5146C69.2629 46.4608 73.0069 42.3759 76.6893 38.2403C78.3429 36.386 79.984 34.5206 81.6011 32.6377C82.1725 31.9757 82.2436 30.9871 81.5906 30.3412C80.997 29.7562 79.8689 29.6841 79.2941 30.3517C72.6335 38.0982 65.6877 45.6043 58.6788 53.0361C57.2745 54.5308 55.8394 56.0002 54.4419 57.5026C54.0619 57.9117 53.6863 58.3195 53.2788 58.6975C53.0861 58.874 52.8889 59.0516 52.6893 59.2203C52.7093 59.2053 52.3187 59.5212 52.4962 59.3776C52.6117 59.2891 52.2318 59.5733 52.1841 59.6101C51.7974 59.8865 51.3912 60.1441 50.9733 60.3761C50.7728 60.4874 50.571 60.5943 50.3668 60.6922C50.2686 60.7377 50.159 60.7767 50.0632 60.8312C49.9516 60.8803 49.9817 60.8674 50.1594 60.7958C50.0767 60.8276 49.9996 60.8626 49.9158 60.8899C49.5145 61.0406 49.1073 61.1689 48.6929 61.2704C48.4913 61.3244 48.2862 61.3649 48.0843 61.3998C47.9834 61.4172 47.8801 61.4257 47.7815 61.4521C47.657 61.4711 47.6985 61.4648 47.9117 61.4365C47.8332 61.4479 47.749 61.4561 47.6693 61.463C47.2718 61.5023 46.8671 61.5148 46.4711 61.5057C46.273 61.5011 46.0738 61.4921 45.8767 61.4729C45.7787 61.4656 45.6795 61.4538 45.5816 61.4464C45.158 61.4063 45.7961 61.4945 45.4722 61.4325C44.6576 61.2764 43.8835 61.0566 43.1093 60.7648C43.5156 60.9199 42.9449 60.6889 42.8508 60.6421C42.675 60.5596 42.5014 60.4669 42.329 60.3787C41.9476 60.1737 41.5806 59.9504 41.2234 59.7101C41.0596 59.6004 40.9036 59.4838 40.743 59.3684C41.0981 59.6188 40.6016 59.2527 40.5206 59.1832C40.1876 58.9076 39.8688 58.6138 39.5668 58.3107C39.2911 58.0342 39.0264 57.7451 38.7773 57.4422C38.7279 57.3835 38.6774 57.3202 38.628 57.2614C38.372 56.9508 38.8354 57.5515 38.5993 57.2259C38.4623 57.037 38.3253 56.8481 38.1972 56.6568C37.7484 55.9851 37.3665 55.2762 37.0424 54.5326C37.2167 54.9323 37.0151 54.4487 36.9609 54.3C36.8995 54.1245 36.8368 53.9445 36.7832 53.7621C36.6677 53.385 36.5759 53.0064 36.5007 52.6185C36.4773 52.4952 36.3997 51.8295 36.4442 52.336C36.4288 52.153 36.4089 51.9711 36.3934 51.788C36.3723 51.4049 36.3692 51.0169 36.3965 50.6352C36.4006 50.5429 36.4103 50.4539 36.4189 50.3604C36.4206 50.3311 36.4617 49.9649 36.4259 50.2433C36.3901 50.5217 36.4413 50.1575 36.4476 50.1271C36.4672 50.021 36.4855 49.9105 36.5096 49.8032C36.5898 49.4217 36.696 49.0477 36.8281 48.6811C36.8755 48.5532 36.9318 48.4229 36.9791 48.295C37.0491 48.1082 36.7947 48.6996 36.9187 48.4456C36.947 48.39 36.9696 48.3311 36.9934 48.2768C37.115 48.0138 37.241 47.7496 37.3739 47.4932C37.6516 46.9532 37.9553 46.4206 38.276 45.8978C39.0597 44.6126 39.9273 43.3721 40.8213 42.1581C41.061 41.8347 41.3053 41.5101 41.5462 41.1911C41.2942 41.5226 41.72 40.9621 41.7883 40.8766C41.9303 40.6898 42.0734 40.5074 42.2166 40.325C42.7891 39.5956 43.3686 38.8739 43.9537 38.1555C46.5346 34.9967 49.2273 31.9327 51.952 28.8986C57.0017 23.2734 62.2455 17.817 67.2312 12.1322C68.1251 11.1151 68.9538 10.0338 69.8671 9.03543C70.1908 8.68471 70.5282 8.3495 70.8919 8.04084C70.9629 7.98341 71.0339 7.92598 71.1037 7.86407C70.8086 8.10635 71.1515 7.82728 71.2004 7.79496C71.4138 7.64179 71.634 7.49637 71.8567 7.35991C72.2151 7.13907 72.5933 6.95613 72.9784 6.78095C72.5978 6.95493 73.1282 6.73119 73.2602 6.68623C73.4895 6.61039 73.7155 6.54023 73.9496 6.48231C74.1377 6.43191 74.3338 6.39375 74.5255 6.35678C74.6029 6.34086 74.6814 6.32941 74.7555 6.31917C75.1535 6.24612 74.3837 6.34679 74.788 6.31525C75.2127 6.28786 75.6329 6.26167 76.0549 6.27819C76.244 6.28513 76.4367 6.30551 76.6281 6.32141C76.7025 6.33028 76.7814 6.33795 76.8557 6.34682C76.4151 6.29687 76.8061 6.34091 76.8919 6.35634C77.2835 6.4386 77.6707 6.52206 78.0529 6.64047C78.2518 6.70236 78.4487 6.7744 78.6457 6.84644C78.7147 6.87115 78.7861 6.90481 78.8596 6.92832C78.4565 6.76752 78.8223 6.91433 78.8937 6.94799C79.2532 7.12527 79.6082 7.30374 79.9513 7.50942C80.1127 7.61017 80.2741 7.71093 80.4278 7.81856C80.5052 7.87462 80.5826 7.93068 80.6588 7.98226C80.982 8.20288 80.3951 7.75051 80.6896 8.00761C80.9841 8.26471 81.2977 8.52148 81.5803 8.80578C81.7119 8.93853 81.8459 9.08023 81.9697 9.21986C82.0316 9.28968 82.3839 9.70888 82.2416 9.53583C82.0693 9.32278 82.3026 9.62028 82.3175 9.64027C82.3717 9.71696 82.4303 9.79245 82.48 9.87035C82.6068 10.0572 82.7304 10.2497 82.8495 10.4433C83.0429 10.7708 83.1893 11.1203 83.3704 11.4558C83.4854 11.6698 83.2323 11.0656 83.3563 11.4212C83.3848 11.5095 83.4235 11.6 83.4564 11.6872C83.5283 11.8839 83.5913 12.083 83.6453 12.2846C83.6993 12.4861 83.7545 12.6921 83.7906 12.8985C83.8113 12.9937 83.8264 13.0857 83.8426 13.1821C83.8498 13.209 83.8989 13.5895 83.8628 13.3111C83.8266 13.0328 83.8713 13.4145 83.874 13.4425C83.8813 13.5414 83.8873 13.6358 83.8946 13.7346C83.905 13.9526 83.9098 14.1674 83.9011 14.3857C83.8965 14.5837 83.883 14.7841 83.8651 14.9858C83.8562 15.0601 83.7978 15.4694 83.8639 15.0533C83.8476 15.1536 83.8325 15.2585 83.8118 15.3601C83.7325 15.7989 83.6172 16.2282 83.4758 16.6501C83.4437 16.7451 83.2096 17.3407 83.3514 17.0099C83.2594 17.2217 83.1616 17.4303 83.0571 17.6311C82.8142 18.1042 82.5385 18.5621 82.2332 18.9991C82.1464 19.1232 82.0552 19.2484 81.9627 19.3692C82.1145 19.1653 81.9505 19.3773 81.9251 19.4081C81.7355 19.6317 81.5502 19.8541 81.3549 20.0745C80.8031 20.7024 80.2456 21.3269 79.6983 21.9536C77.7307 24.1945 75.778 26.4553 73.8298 28.715C70.6242 32.4444 67.4461 36.2049 64.1161 39.8284C62.8338 41.2232 61.5231 42.6017 60.1505 43.9103C59.5694 44.4644 58.9745 45.003 58.3646 45.5217C58.0985 45.7466 57.8254 45.9637 57.5581 46.1842C57.9609 45.8602 57.5014 46.2234 57.4181 46.2889C57.266 46.4016 57.1093 46.5156 56.9559 46.6239C56.459 46.9731 55.9472 47.3022 55.41 47.5902C55.1792 47.7144 54.9425 47.8162 54.7094 47.9315C54.4763 48.0468 54.9058 47.8405 54.9082 47.8494C54.9094 47.8539 54.7216 47.9234 54.7037 47.9282C54.5718 47.9732 54.4365 48.0238 54.3034 48.0643C54.0908 48.1309 53.8746 48.184 53.6561 48.2281C53.6157 48.2389 53.5686 48.242 53.5283 48.2528C53.3097 48.297 53.3717 48.1699 53.7101 48.2329C53.6041 48.2133 53.4473 48.2553 53.3383 48.2605C53.1337 48.2673 52.9354 48.2436 52.7374 48.2391C52.5247 48.2337 52.982 48.2743 52.9763 48.2711C52.9321 48.2493 52.8512 48.2518 52.8004 48.2414C52.683 48.2153 52.57 48.1879 52.4547 48.1516C52.3609 48.124 52.268 48.0817 52.1741 48.054C51.9707 47.9933 52.3905 48.1448 52.3905 48.1448C52.3618 48.1093 52.2647 48.0873 52.2261 48.0689C52.0184 47.9565 51.8286 47.8394 51.632 47.7145C51.3193 47.515 51.9378 47.9781 51.6445 47.7255C51.4882 47.5898 51.3285 47.4598 51.1721 47.3241C50.8537 47.0494 50.5464 46.7621 50.25 46.4623C50.0063 46.2156 49.7692 45.9575 49.5454 45.6959C49.4605 45.5938 49.1392 45.1471 49.4411 45.575C49.334 45.4261 49.2224 45.2784 49.1186 45.1238C48.9582 44.8836 48.81 44.6353 48.6786 44.3777C48.6274 44.2762 48.5836 44.0768 48.5026 44.0073C48.5151 44.0183 48.6569 44.4219 48.5786 44.1837C48.5502 44.0953 48.5127 44.0093 48.4842 43.921C48.4 43.6603 48.345 43.4015 48.2889 43.1381C48.2024 42.7437 48.2977 43.5293 48.2841 43.1202C48.2806 42.9819 48.267 42.8415 48.268 42.7021C48.267 42.5727 48.2716 42.4467 48.2807 42.3195C48.283 42.2564 48.2943 42.191 48.2966 42.128C48.3124 41.8645 48.4133 42.0439 48.2782 42.2385C48.3924 42.0735 48.405 41.6189 48.4612 41.4167C48.5409 41.1409 48.6592 40.8836 48.7401 40.6123C48.8008 40.4089 48.5587 40.9921 48.7035 40.7085C48.7384 40.6416 48.7675 40.5714 48.7967 40.5011C48.876 40.3311 48.9609 40.1644 49.0503 39.9964C49.3817 39.37 49.7641 38.7731 50.1649 38.1905C50.2823 38.0198 50.4043 37.8479 50.5319 37.6793C50.588 37.6019 50.6485 37.5233 50.709 37.4447C50.5537 37.6351 50.9422 37.1326 50.709 37.4447C50.9867 37.1015 51.253 36.7517 51.5363 36.4118C52.159 35.6545 52.8113 34.9181 53.4648 34.1862C55.0558 32.4207 56.7015 30.6981 58.3427 28.9767C60.3275 26.8896 62.3055 24.7947 64.2503 22.6656C64.84 22.018 64.8803 21.004 64.2398 20.3692C63.6324 19.7687 62.5375 19.7309 61.9433 20.3797L61.9511 20.3728Z" fill="#333333"/>
<path d="M84.5709 54.8699C83.3808 60.2434 81.9448 65.5678 80.8399 70.961C80.1875 74.1379 79.3974 77.8066 80.3678 81.0065C81.276 84.0064 83.7972 85.6883 86.7118 86.4718C88.0921 86.8423 89.5281 87.1308 90.9477 86.8456C92.0723 86.6194 93.1017 85.9702 93.9083 85.1703C95.9311 83.1671 96.9442 80.2131 97.7605 77.5542C99.0228 73.4593 99.8359 69.2299 100.656 65.0268C101.777 59.2697 102.819 53.4994 103.973 47.7489C104.491 45.1654 105.026 42.6835 104.498 40.0574C104.118 38.1558 103.18 36.3789 101.855 34.9691C99.249 32.1921 95.259 31.0742 91.5477 31.6446C87.5708 32.2577 84.43 35.0314 83.0464 38.7558C82.4956 40.2377 82.3415 41.8409 82.0432 43.3851C81.7448 44.9293 81.4301 46.4374 81.099 47.962C80.2531 51.87 79.3613 55.7715 78.4925 59.6762C76.6827 67.8136 74.8402 76.0034 73.9124 84.2949C73.5911 87.1472 73.2698 90.1963 73.8796 93.0355C74.6336 96.5567 77.3647 99.432 80.535 100.989C83.7054 102.547 87.8528 103.133 91.3838 101.911C95.5672 100.461 98.3507 96.9567 99.508 92.7503C100.075 90.6815 100.518 88.5668 101.013 86.4784C101.587 84.0556 102.154 81.6327 102.708 79.2033C103.947 73.8068 105.147 68.3972 106.268 62.9745C106.773 60.5418 107.262 58.1058 107.721 55.6666C107.885 54.8076 107.452 53.9158 106.563 53.683C105.757 53.4732 104.744 53.9748 104.58 54.8404C102.685 64.8793 100.423 74.8527 98.0687 84.7932C97.5999 86.7899 97.0917 88.7799 96.6327 90.7799C96.5081 91.3241 96.3868 91.8651 96.2229 92.3962C96.1442 92.6454 96.0623 92.8978 95.9737 93.1437C95.9836 93.1208 95.8033 93.5896 95.8852 93.3765C95.941 93.2421 95.7541 93.6781 95.7311 93.7338C95.5344 94.1666 95.3115 94.5928 95.0656 95.0026C94.9476 95.1994 94.8262 95.3928 94.6984 95.5797C94.6361 95.6682 94.5607 95.7567 94.5049 95.8518C94.4328 95.9501 94.4525 95.9239 94.5705 95.7731C94.5148 95.8419 94.4656 95.9108 94.4066 95.9764C94.1345 96.3075 93.846 96.6222 93.5378 96.9173C93.3902 97.0648 93.2329 97.2025 93.0755 97.3337C92.9968 97.3993 92.9116 97.4583 92.8394 97.5304C92.7411 97.6091 92.7739 97.5829 92.9444 97.4517C92.8821 97.5009 92.8132 97.5501 92.7476 97.596C92.4231 97.8288 92.0788 98.0419 91.7313 98.232C91.5575 98.3271 91.3805 98.4189 91.2002 98.5009C91.1116 98.5435 91.0198 98.5828 90.9313 98.6254C90.5445 98.8025 91.1412 98.5599 90.8297 98.6681C90.0461 98.9402 89.2658 99.1369 88.4495 99.2713C88.879 99.2025 88.2691 99.2877 88.1642 99.2943C87.9708 99.3107 87.7741 99.3172 87.5806 99.327C87.1479 99.3402 86.7184 99.3303 86.2889 99.3008C86.0922 99.2877 85.8987 99.2648 85.702 99.2451C86.1348 99.2844 85.5217 99.2156 85.4168 99.1959C84.9906 99.1238 84.5677 99.0287 84.1546 98.9172C83.7775 98.8156 83.4038 98.6976 83.0366 98.5599C82.9644 98.5336 82.889 98.5041 82.8169 98.4779C82.4399 98.3369 83.1415 98.6254 82.7743 98.4615C82.5612 98.3664 82.3481 98.2714 82.1415 98.1697C81.417 97.8124 80.7318 97.3894 80.0793 96.9075C80.4301 97.1665 80.0137 96.8485 79.8924 96.7468C79.7515 96.6255 79.6072 96.5009 79.4695 96.3698C79.181 96.101 78.9122 95.819 78.6531 95.5207C78.5712 95.4256 78.1712 94.8879 78.463 95.3043C78.3581 95.1535 78.2499 95.0059 78.145 94.8551C77.9351 94.5338 77.7384 94.1994 77.5712 93.8551C77.5286 93.7732 77.4925 93.6912 77.4532 93.606C77.4401 93.5797 77.2926 93.2421 77.4007 93.5011C77.5089 93.7601 77.3712 93.4191 77.3614 93.3896C77.3253 93.288 77.286 93.183 77.2532 93.0781C77.1319 92.7077 77.0368 92.3306 76.968 91.947C76.945 91.8126 76.9286 91.6716 76.9057 91.5372C76.8729 91.3405 76.9483 91.9798 76.9286 91.6979C76.9254 91.6356 76.9155 91.5733 76.909 91.5143C76.8827 91.2257 76.8598 90.934 76.8467 90.6454C76.8172 90.0389 76.8139 89.4258 76.8303 88.8127C76.8663 87.3079 76.9975 85.7997 77.1647 84.3014C77.2106 83.9015 77.2598 83.4982 77.3089 83.1015C77.2565 83.5146 77.345 82.8163 77.3614 82.7081C77.3909 82.4753 77.4237 82.2458 77.4565 82.0163C77.5876 81.0983 77.7286 80.1836 77.8761 79.2689C78.5318 75.2428 79.3318 71.243 80.1744 67.253C81.735 59.8566 83.548 52.5093 85.0234 45.0932C85.2889 43.7654 85.466 42.4147 85.7578 41.0934C85.8627 40.6279 85.9873 40.1689 86.1479 39.7197C86.1807 39.6345 86.2135 39.5492 86.243 39.4607C86.1086 39.8181 86.2659 39.405 86.2922 39.3525C86.4004 39.1132 86.5184 38.8771 86.643 38.6476C86.843 38.2771 87.079 37.9296 87.3249 37.5854C87.0823 37.9263 87.4298 37.4673 87.5216 37.3624C87.6823 37.1821 87.8429 37.0083 88.0167 36.8411C88.1544 36.7034 88.3052 36.5723 88.4527 36.4444C88.5118 36.392 88.574 36.3428 88.6331 36.2969C88.9412 36.0346 88.3249 36.5067 88.6593 36.2772C89.0134 36.0412 89.3642 35.8084 89.7379 35.6117C89.9051 35.5231 90.0822 35.4445 90.2559 35.3625C90.3248 35.333 90.3969 35.3002 90.4658 35.2707C90.0592 35.4477 90.4199 35.2904 90.5018 35.2609C90.8821 35.1363 91.2592 35.015 91.6493 34.9265C91.8526 34.8806 92.0592 34.8445 92.2657 34.8084C92.3378 34.7953 92.4165 34.7888 92.4919 34.7724C92.0624 34.8347 92.4526 34.7789 92.5313 34.7724C92.9312 34.7461 93.328 34.7232 93.7279 34.7297C93.9181 34.7363 94.1082 34.7429 94.2951 34.7592C94.3902 34.7691 94.4853 34.7789 94.5771 34.7855C94.9672 34.815 94.2328 34.7166 94.6164 34.792C95 34.8674 95.4 34.933 95.7869 35.0379C95.9672 35.0871 96.1541 35.1428 96.3311 35.2019C96.4196 35.2314 96.9344 35.4182 96.7245 35.3396C96.4688 35.2412 96.8196 35.3822 96.8426 35.392C96.9278 35.4314 97.0163 35.4674 97.0983 35.51C97.3016 35.6084 97.5048 35.7133 97.7048 35.8215C98.036 36.0084 98.3376 36.2379 98.6622 36.4379C98.8687 36.5657 98.3474 36.169 98.6326 36.4149C98.7015 36.4772 98.7802 36.5362 98.8523 36.5952C99.013 36.7297 99.1671 36.8706 99.3146 37.0182C99.4621 37.1657 99.6129 37.3165 99.7474 37.4772C99.8129 37.5493 99.8719 37.6214 99.9342 37.6968C99.9539 37.7165 100.187 38.0214 100.016 37.7985C99.8457 37.5755 100.075 37.8837 100.092 37.9067C100.147 37.9886 100.2 38.0673 100.256 38.1493C100.374 38.3329 100.485 38.5165 100.587 38.7099C100.682 38.8837 100.77 39.064 100.856 39.2476C100.885 39.3164 101.039 39.7 100.888 39.3066C100.924 39.4017 100.964 39.5 100.996 39.5984C101.147 40.018 101.262 40.4475 101.351 40.8836C101.37 40.9819 101.465 41.6147 101.423 41.2573C101.449 41.4868 101.469 41.7163 101.478 41.9426C101.505 42.4737 101.495 43.0081 101.449 43.5392C101.436 43.69 101.419 43.8441 101.4 43.9949C101.429 43.7425 101.393 44.008 101.387 44.0474C101.334 44.3359 101.285 44.6211 101.226 44.9096C101.062 45.7293 100.892 46.5489 100.731 47.3653C100.147 50.2897 99.5867 53.224 99.0293 56.1551C98.1179 60.9877 97.2458 65.8334 96.1737 70.6364C95.7606 72.4855 95.3147 74.3346 94.7803 76.1542C94.5541 76.9247 94.3082 77.6886 94.0394 78.4427C93.9214 78.7705 93.7935 79.0951 93.6722 79.4197C93.8591 78.9377 93.6427 79.482 93.6033 79.5803C93.5279 79.7541 93.4493 79.9311 93.3706 80.1016C93.1148 80.6524 92.8362 81.1934 92.5149 81.7114C92.3772 81.9343 92.2231 82.1409 92.0788 82.3573C91.9346 82.5736 92.2034 82.1802 92.21 82.1868C92.2132 82.1901 92.0854 82.3441 92.0723 82.3573C91.9805 82.4622 91.8887 82.5736 91.7936 82.6753C91.6428 82.8392 91.4821 82.9933 91.3149 83.1408C91.2854 83.1703 91.2461 83.1966 91.2166 83.2261C91.0494 83.3736 91.0395 83.2326 91.3641 83.1179C91.2625 83.154 91.1477 83.2687 91.0559 83.3277C90.8821 83.4359 90.6985 83.5146 90.5248 83.6097C90.3379 83.7113 90.7543 83.5179 90.7477 83.5179C90.6985 83.5212 90.6297 83.5638 90.5805 83.5802C90.4658 83.6162 90.3543 83.649 90.2363 83.6752C90.1412 83.6982 90.0396 83.708 89.9445 83.731C89.7379 83.7802 90.1773 83.7015 90.1773 83.7015C90.1346 83.6851 90.0396 83.7146 89.9969 83.7179C89.7609 83.7244 89.5379 83.7179 89.3052 83.708C88.9347 83.6916 89.7019 83.7834 89.3216 83.7113C89.1183 83.672 88.915 83.6392 88.7117 83.5998C88.2986 83.5211 87.8888 83.4261 87.4823 83.3146C87.1479 83.2228 86.8135 83.1179 86.4889 83.0031C86.3643 82.9572 85.8627 82.731 86.3381 82.9507C86.1709 82.8753 86.0004 82.8031 85.8332 82.7212C85.5742 82.5933 85.3217 82.4523 85.0791 82.295C84.984 82.2327 84.8463 82.0819 84.7414 82.0622C84.7578 82.0655 85.0824 82.3441 84.8955 82.1769C84.8267 82.1147 84.7513 82.0589 84.6824 81.9966C84.4791 81.813 84.3021 81.6163 84.1218 81.4163C83.8497 81.118 84.325 81.7507 84.1087 81.4032C84.0365 81.2852 83.9546 81.1704 83.8857 81.0491C83.8201 80.9376 83.7611 80.8262 83.7054 80.7114C83.6759 80.6557 83.6529 80.5934 83.6234 80.5377C83.5054 80.3016 83.6824 80.4065 83.6628 80.6426C83.6792 80.4426 83.4628 80.0426 83.4103 79.8393C83.3415 79.5607 83.3152 79.2787 83.2497 79.0033C83.2005 78.7968 83.2825 79.423 83.2661 79.1049C83.2628 79.0295 83.253 78.9541 83.2431 78.8787C83.2267 78.6918 83.2169 78.505 83.2103 78.3148C83.1841 77.6066 83.2169 76.8985 83.2726 76.1936C83.289 75.987 83.3087 75.7772 83.3349 75.5674C83.3448 75.4723 83.3579 75.3739 83.371 75.2756C83.3316 75.5182 83.4169 74.8887 83.371 75.2756C83.4398 74.8395 83.4956 74.4035 83.571 73.9674C83.7316 73.0003 83.9283 72.0364 84.1283 71.0758C84.6234 68.7513 85.1873 66.4366 85.7479 64.1252C86.4233 61.3254 87.0889 58.5222 87.7085 55.7059C87.8954 54.8502 87.4233 53.9519 86.5512 53.7224C85.725 53.506 84.7578 54.0207 84.5677 54.8797L84.5709 54.8699Z" fill="#FFD89F"/>
<path d="M20.8196 88.2823C24.8781 91.9998 28.7712 95.9056 32.8894 99.559C35.3145 101.713 38.0966 104.231 41.353 104.991C44.405 105.704 47.1222 104.362 49.2581 102.229C50.2691 101.219 51.237 100.12 51.6997 98.7477C52.0661 97.6607 52.0187 96.4446 51.7291 95.3462C51.0057 92.5927 48.9541 90.2384 47.0596 88.2019C44.1444 85.0613 40.8882 82.2425 37.658 79.4312C33.2328 75.5815 28.7569 71.7935 24.3538 67.9188C22.3755 66.1784 20.4933 64.4747 17.9551 63.6188C16.1181 62.9973 14.1104 62.9209 12.2272 63.3631C8.51911 64.2319 5.55591 67.1283 4.19428 70.6276C2.73679 74.3783 3.56842 78.4852 6.1021 81.5456C7.11007 82.7635 8.42145 83.6986 9.60959 84.7291C10.7977 85.7595 11.9464 86.7862 13.1012 87.8352C16.0627 90.5218 18.9956 93.2448 21.9428 95.9496C28.0851 101.586 34.2564 107.276 40.9731 112.225C43.2826 113.93 45.7625 115.733 48.5263 116.624C51.9527 117.732 55.8083 116.804 58.7422 114.837C61.676 112.87 64.258 109.572 64.9644 105.903C65.8011 101.555 64.1577 97.3921 61.0935 94.2866C59.5855 92.761 57.9754 91.3204 56.4143 89.8475C54.6029 88.1391 52.7883 86.4365 50.9614 84.742C46.9075 80.9705 42.8227 77.2265 38.6871 73.5441C36.8328 71.8905 34.9674 70.2494 33.0844 68.6323C32.4225 68.0609 31.4338 67.9898 30.788 68.6428C30.203 69.2364 30.1309 70.3645 30.7985 70.9393C38.545 77.5999 46.0511 84.5457 53.4828 91.5546C54.9776 92.9589 56.4469 94.394 57.9494 95.7915C58.3585 96.1715 58.7663 96.547 59.1443 96.9546C59.3207 97.1473 59.4984 97.3445 59.6671 97.5441C59.6521 97.5241 59.968 97.9147 59.8244 97.7372C59.7359 97.6217 60.02 98.0016 60.0568 98.0493C60.3333 98.436 60.5909 98.8422 60.8229 99.2601C60.9342 99.4606 61.0411 99.6624 61.139 99.8666C61.1845 99.9648 61.2235 100.074 61.2779 100.17C61.3271 100.282 61.3142 100.252 61.2426 100.074C61.2743 100.157 61.3094 100.234 61.3367 100.318C61.4874 100.719 61.6157 101.126 61.7171 101.541C61.7711 101.742 61.8117 101.947 61.8466 102.149C61.864 102.25 61.8725 102.353 61.8989 102.452C61.9179 102.576 61.9116 102.535 61.8832 102.322C61.8947 102.4 61.9028 102.484 61.9098 102.564C61.9491 102.962 61.9615 103.366 61.9525 103.762C61.9479 103.96 61.9389 104.16 61.9197 104.357C61.9124 104.455 61.9005 104.554 61.8932 104.652C61.8531 105.075 61.9413 104.437 61.8793 104.761C61.7232 105.576 61.5034 106.35 61.2116 107.124C61.3667 106.718 61.1356 107.288 61.0889 107.383C61.0063 107.558 60.9137 107.732 60.8255 107.904C60.6204 108.286 60.3972 108.653 60.1569 109.01C60.0472 109.174 59.9306 109.33 59.8152 109.49C60.0656 109.135 59.6995 109.632 59.63 109.713C59.3544 110.046 59.0606 110.365 58.7575 110.667C58.481 110.942 58.1919 111.207 57.889 111.456C57.8302 111.505 57.767 111.556 57.7082 111.605C57.3976 111.861 57.9983 111.398 57.6727 111.634C57.4838 111.771 57.2949 111.908 57.1036 112.036C56.4319 112.485 55.723 112.867 54.9794 113.191C55.3791 113.017 54.8955 113.218 54.7468 113.272C54.5713 113.334 54.3913 113.397 54.2088 113.45C53.8318 113.566 53.4532 113.658 53.0653 113.733C52.942 113.756 52.2763 113.834 52.7828 113.789C52.5997 113.805 52.4179 113.825 52.2348 113.84C51.8516 113.861 51.4637 113.864 51.0819 113.837C50.9896 113.833 50.9006 113.823 50.8071 113.815C50.7779 113.813 50.4117 113.772 50.6901 113.807C50.9685 113.843 50.6043 113.792 50.5738 113.786C50.4678 113.766 50.3573 113.748 50.25 113.724C49.8685 113.644 49.4945 113.537 49.1278 113.405C48.9999 113.358 48.8697 113.302 48.7418 113.254C48.555 113.184 49.1464 113.439 48.8924 113.315C48.8368 113.286 48.7779 113.264 48.7235 113.24C48.4606 113.118 48.1964 112.992 47.94 112.86C47.4 112.582 46.8674 112.278 46.3446 111.957C45.0594 111.174 43.8189 110.306 42.6049 109.412C42.2815 109.172 41.9568 108.928 41.6379 108.687C41.9694 108.939 41.4089 108.513 41.3234 108.445C41.1365 108.303 40.9542 108.16 40.7718 108.017C40.0424 107.444 39.3207 106.865 38.6023 106.28C35.4435 103.699 32.3795 101.006 29.3454 98.2814C23.7202 93.2317 18.2638 87.9879 12.579 83.0022C11.5618 82.1083 10.4806 81.2796 9.48221 80.3663C9.13149 80.0426 8.79628 79.7052 8.48762 79.3415C8.43019 79.2705 8.37276 79.1995 8.31085 79.1297C8.55312 79.4248 8.27405 79.0819 8.24174 79.033C8.08857 78.8196 7.94315 78.5994 7.80669 78.3767C7.58585 78.0183 7.40291 77.6401 7.22773 77.255C7.40171 77.6356 7.17797 77.1052 7.13301 76.9732C7.05717 76.7439 6.98701 76.5179 6.92909 76.2838C6.87869 76.0957 6.84052 75.8996 6.80356 75.7079C6.78763 75.6305 6.77619 75.552 6.76595 75.4779C6.6929 75.0799 6.79357 75.8497 6.76203 75.4454C6.73464 75.0207 6.70845 74.6005 6.72497 74.1785C6.73191 73.9894 6.75229 73.7967 6.76819 73.6053C6.77706 73.5309 6.78473 73.452 6.7936 73.3777C6.74365 73.8183 6.78769 73.4272 6.80311 73.3415C6.88538 72.9499 6.96884 72.5627 7.08725 72.1805C7.14913 71.9816 7.22118 71.7846 7.29322 71.5877C7.31793 71.5187 7.35159 71.4473 7.3751 71.3738C7.2143 71.7769 7.3611 71.4111 7.39477 71.3397C7.57204 70.9802 7.75052 70.6252 7.95619 70.2821C8.05695 70.1207 8.15771 69.9593 8.26534 69.8056C8.3214 69.7282 8.37746 69.6508 8.42903 69.5746C8.64966 69.2514 8.19728 69.8383 8.45438 69.5438C8.71148 69.2493 8.96826 68.9357 9.25255 68.6531C9.3853 68.5215 9.52701 68.3875 9.66664 68.2637C9.73645 68.2018 10.1557 67.8495 9.9826 67.9918C9.76956 68.1641 10.0671 67.9308 10.087 67.9159C10.1637 67.8617 10.2392 67.8031 10.3171 67.7534C10.5039 67.6265 10.6964 67.503 10.8901 67.3839C11.2175 67.1905 11.5671 67.0441 11.9026 66.863C12.1166 66.748 11.5124 67.0011 11.868 66.8771C11.9563 66.8486 12.0468 66.8099 12.1339 66.777C12.3307 66.7051 12.5298 66.6421 12.7314 66.5881C12.9329 66.5341 13.1389 66.4789 13.3452 66.4428C13.4405 66.4221 13.5325 66.407 13.6289 66.3908C13.6558 66.3836 14.0362 66.3345 13.7579 66.3706C13.4796 66.4068 13.8612 66.3621 13.8893 66.3594C13.9882 66.3521 14.0825 66.3461 14.1814 66.3388C14.3994 66.3284 14.6141 66.3236 14.8325 66.3323C15.0305 66.3369 15.2309 66.3504 15.4325 66.3683C15.5069 66.3772 15.9162 66.4356 15.5 66.3694C15.6004 66.3858 15.7053 66.4009 15.8068 66.4216C16.2457 66.5009 16.675 66.6162 17.0969 66.7576C17.1919 66.7897 17.7874 67.0238 17.4566 66.882C17.6685 66.974 17.8771 67.0718 18.0779 67.1763C18.551 67.4192 19.0089 67.6949 19.4459 68.0002C19.57 68.087 19.6952 68.1782 19.816 68.2707C19.6121 68.1189 19.8241 68.2829 19.8549 68.3083C20.0785 68.4979 20.3009 68.6832 20.5213 68.8785C21.1491 69.4303 21.7737 69.9878 22.4004 70.5351C24.6413 72.5027 26.9021 74.4554 29.1618 76.4036C32.8912 79.6092 36.6517 82.7873 40.2752 86.1173C41.67 87.3996 43.0485 88.7103 44.3571 90.0829C44.9112 90.664 45.4498 91.2589 45.9684 91.8688C46.1933 92.1349 46.4105 92.408 46.6309 92.6753C46.307 92.2725 46.6701 92.732 46.7356 92.8153C46.8484 92.9674 46.9624 93.1241 47.0707 93.2775C47.4199 93.7744 47.749 94.2862 48.037 94.8234C48.1612 95.0542 48.263 95.2909 48.3783 95.524C48.4935 95.7571 48.2872 95.3276 48.2962 95.3252C48.3007 95.324 48.3702 95.5118 48.375 95.5297C48.42 95.6616 48.4706 95.7969 48.5111 95.93C48.5776 96.1426 48.6308 96.3588 48.6749 96.5773C48.6857 96.6177 48.6888 96.6648 48.6996 96.7051C48.7437 96.9237 48.6167 96.8617 48.6796 96.5233C48.6601 96.6293 48.7021 96.7861 48.7073 96.8951C48.7141 97.0997 48.6904 97.298 48.6859 97.496C48.6805 97.7087 48.7211 97.2514 48.7178 97.2571C48.6961 97.3013 48.6986 97.3822 48.6882 97.433C48.662 97.5504 48.6347 97.6634 48.5984 97.7787C48.5707 97.8725 48.5284 97.9654 48.5008 98.0592C48.4401 98.2627 48.5916 97.8429 48.5916 97.8429C48.5561 97.8716 48.5341 97.9687 48.5157 98.0073C48.4033 98.215 48.2862 98.4048 48.1612 98.6014C47.9618 98.9141 48.4249 98.2956 48.1723 98.5889C48.0366 98.7452 47.9065 98.9049 47.7708 99.0613C47.4961 99.3797 47.2089 99.687 46.9091 99.9834C46.6624 100.227 46.4043 100.464 46.1427 100.688C46.0406 100.773 45.5939 101.094 46.0218 100.792C45.8729 100.899 45.7252 101.011 45.5706 101.115C45.3304 101.275 45.0821 101.423 44.8245 101.555C44.723 101.606 44.5235 101.65 44.454 101.731C44.4651 101.718 44.8687 101.577 44.6305 101.655C44.5421 101.683 44.4561 101.721 44.3678 101.749C44.1071 101.833 43.8482 101.888 43.5849 101.945C43.1904 102.031 43.9761 101.936 43.567 101.949C43.4287 101.953 43.2883 101.966 43.1488 101.965C43.0195 101.966 42.8935 101.962 42.7662 101.953C42.7032 101.95 42.6378 101.939 42.5748 101.937C42.3113 101.921 42.4907 101.82 42.6853 101.955C42.5203 101.841 42.0657 101.828 41.8634 101.772C41.5877 101.692 41.3304 101.574 41.0591 101.493C40.8556 101.433 41.4389 101.675 41.1553 101.53C41.0884 101.495 41.0181 101.466 40.9479 101.437C40.7779 101.357 40.6111 101.273 40.4432 101.183C39.8168 100.852 39.2199 100.469 38.6373 100.069C38.4666 99.9511 38.2947 99.8291 38.1261 99.7015C38.0487 99.6454 37.9701 99.5849 37.8915 99.5244C38.0819 99.6797 37.5794 99.2912 37.8915 99.5244C37.5483 99.2467 37.1985 98.9804 36.8586 98.6971C36.1013 98.0744 35.3649 97.4221 34.633 96.7686C32.8674 95.1776 31.1448 93.5319 29.4234 91.8907C27.3364 89.9059 25.2415 87.9279 23.1124 85.9831C22.4648 85.3934 21.4507 85.3531 20.8159 85.9936C20.2154 86.601 20.1776 87.6959 20.8264 88.2901L20.8196 88.2823Z" fill="#FDFF9F"/>
</svg>
