<svg width="80" height="80" viewBox="0 0 80 80" fill="none" xmlns="http://www.w3.org/2000/svg">
<circle cx="40" cy="40" r="40" fill="#B5F2FF"/>
<path d="M59.7661 28.1374L59.7085 27.9713C59.1573 26.3811 57.4044 25.5295 55.8128 26.0812L49.6963 28.2014C49.6818 28.2065 49.6703 28.2153 49.6544 28.2208L43.4325 30.3776C43.2315 25.6116 41.5918 21.4413 41.5918 21.4413C38.555 13.1381 34.3258 15.5457 34.3258 15.5457C30.6553 17.1804 33.3378 26.053 33.3378 26.053C32.7253 30.4232 29.3476 39.1283 29.3476 39.1283L28.411 40.6129L34.0974 57.0171C36.8613 58.5731 40.1757 57.8109 40.1757 57.8109L59.0843 51.2563L59.0823 51.2506L61.4524 50.429C63.0425 49.8778 63.8942 48.1249 63.3425 46.5333L63.2849 46.3672C62.7847 44.9244 61.2962 44.1024 59.838 44.3717L60.3897 44.1804C61.9799 43.6292 62.8315 41.8763 62.2798 40.2847L62.2222 40.1186C61.7857 38.8592 60.5939 38.0768 59.3278 38.074C60.8853 37.5033 61.7131 35.7749 61.1679 34.2021L61.1103 34.036C60.6422 32.6856 59.3075 31.8782 57.9404 31.9994C59.4857 31.4217 60.3088 29.703 59.7651 28.1345L59.7661 28.1374Z" fill="white"/>
<path d="M26.7464 39.3763L21.5166 41.1891C20.4414 41.5619 19.8719 42.7357 20.2446 43.8109L25.8173 59.8872C26.1901 60.9625 27.3639 61.532 28.4391 61.1593L33.6689 59.3464C34.7441 58.9737 35.3136 57.7999 34.9409 56.7246L29.3681 40.6483C28.9954 39.573 27.8216 39.0035 26.7464 39.3763Z" fill="#319FE8"/>
</svg>
