<svg width="81" height="80" viewBox="0 0 81 80" fill="none" xmlns="http://www.w3.org/2000/svg">
<circle cx="40.5" cy="40" r="40" fill="#AAD6FF"/>
<g clip-path="url(#clip0_85_51168)">
<path d="M26.7273 60.4861L26.6399 59.9712C26.4506 58.8558 27.1986 57.8019 28.357 57.6053L60.9629 52.0713L60.5988 49.9261L27.9929 55.4602C25.6762 55.8534 24.1518 58.0542 24.5377 60.328L24.6251 60.8429C25.0183 63.1596 27.2191 64.684 29.4929 64.2981L62.0989 58.7641L61.7348 56.6189L29.1288 62.153C28.0134 62.3423 26.9166 61.6015 26.7273 60.4861Z" fill="#1BA2C3"/>
<path d="M28.3497 57.5625C27.2342 57.7518 26.4433 58.813 26.6326 59.9285L26.72 60.4433C26.9093 61.5588 27.9632 62.3068 29.1215 62.1102L61.7275 56.5761L60.9483 51.9856L28.3424 57.5196L28.3497 57.5625Z" fill="#EEEEEE"/>
<path d="M22.1094 20.7947C19.7926 21.1879 18.2682 23.3887 18.6541 25.6625L24.5304 60.2849C24.1372 57.9681 25.7118 55.8029 27.9857 55.417L28.8008 55.2787L22.9245 20.6563L22.1094 20.7947Z" fill="#1BA2C4"/>
<path d="M54.6724 15.2678L22.9245 20.6562L28.8008 55.2786L60.5487 49.8902L54.6724 15.2678Z" fill="#1FB9DF"/>
<path d="M30.4088 59.552L58.2955 54.8189" stroke="#8EBAEF" stroke-width="1.5"/>
<path d="M35.6746 38.0458L33.7869 38.3662" stroke="#255599" stroke-width="1.5"/>
<path d="M32.2851 38.6208L30.3974 38.9412" stroke="#255599" stroke-width="1.5"/>
<path d="M32.5633 35.8369L32.8837 37.7246" stroke="#255599" stroke-width="1.5"/>
<path d="M33.1385 39.2263L33.4589 41.114" stroke="#255599" stroke-width="1.5"/>
<path d="M32.5233 48.8645L32.7708 50.3232" stroke="#255599" stroke-width="1.5"/>
<path d="M37.1138 48.0854L37.3614 49.5441" stroke="#255599" stroke-width="1.5"/>
<path d="M41.7047 47.3066L41.9522 48.7653" stroke="#255599" stroke-width="1.5"/>
<path d="M46.295 46.5271L46.5426 47.9858" stroke="#255599" stroke-width="1.5"/>
<path d="M50.9286 45.741L51.1762 47.1997" stroke="#255599" stroke-width="1.5"/>
<path d="M55.519 44.9614L55.7666 46.4201" stroke="#255599" stroke-width="1.5"/>
<path d="M38.5482 32.3973C38.3579 32.4312 38.1943 32.4061 38.0575 32.3221C37.9206 32.2382 37.8359 32.1043 37.8031 31.9205L37.5508 30.5028C37.5438 30.4634 37.5215 30.4335 37.484 30.4131C37.4519 30.3849 37.4162 30.3744 37.3768 30.3814L33.675 31.0404C33.4781 31.0754 33.3112 31.0509 33.1744 30.967C33.0429 30.8752 32.9614 30.7408 32.9299 30.5636C32.8984 30.3863 32.929 30.2353 33.0219 30.1104C33.1202 29.9778 33.2678 29.894 33.4647 29.8589L35.1187 29.5645L34.9031 28.3535L31.92 28.8846C31.7231 28.9196 31.5562 28.8952 31.4194 28.8112C31.288 28.7195 31.2065 28.585 31.1749 28.4078C31.1434 28.2306 31.174 28.0795 31.2669 27.9546C31.3652 27.822 31.5128 27.7382 31.7097 27.7031L38.9952 26.4062C39.1921 26.3712 39.3562 26.3995 39.4877 26.4912C39.6245 26.5752 39.7087 26.7058 39.7403 26.883C39.7718 27.0602 39.7384 27.2152 39.6402 27.3478C39.5473 27.4726 39.4024 27.5526 39.2055 27.5877L36.2322 28.1169L36.4478 29.3279L37.8064 29.086C38.3643 28.9867 38.6929 29.216 38.7922 29.7739L39.1322 31.6839C39.1661 31.8742 39.1328 32.0291 39.0321 32.1486C38.9393 32.2735 38.7944 32.3535 38.5975 32.3885L38.5482 32.3973ZM31.8512 24.7324C31.8197 24.5551 31.8504 24.4041 31.9432 24.2792C32.0415 24.1466 32.1891 24.0628 32.386 24.0277L36.8262 23.2373C37.3841 23.138 37.7127 23.3673 37.812 23.9252C37.8845 24.3321 37.9234 24.6841 37.9289 24.981C37.9332 25.2715 37.9048 25.5304 37.8437 25.758C37.7623 26.023 37.587 26.1795 37.3179 26.2274C37.2129 26.2461 37.1285 26.2476 37.0647 26.2319C36.8067 26.1898 36.6561 26.0473 36.6128 25.8044C36.5965 25.7126 36.5944 25.6249 36.6066 25.5415C36.6476 25.2769 36.6388 24.9805 36.5804 24.6523C36.5722 24.6063 36.5494 24.5732 36.5119 24.5528C36.481 24.5312 36.4458 24.5239 36.4064 24.5309L32.5963 25.2092C32.3994 25.2442 32.2326 25.2197 32.0957 25.1358C31.9643 25.044 31.8828 24.9096 31.8512 24.7324ZM48.3064 30.6297C48.116 30.6636 47.9524 30.6386 47.8156 30.5546C47.6788 30.4706 47.594 30.3367 47.5613 30.1529L46.7498 25.5946L45.6275 25.7944C45.6317 26.2744 45.5427 26.7067 45.3606 27.0912C45.1785 27.4758 44.9201 27.7926 44.5852 28.0418C44.2558 28.2833 43.8777 28.442 43.4511 28.518C42.9785 28.6021 42.5222 28.5682 42.0821 28.4163C41.6289 28.2668 41.2456 27.9964 40.9322 27.6053C40.6176 27.2076 40.4072 26.7101 40.3008 26.1129C40.191 25.4959 40.2195 24.9525 40.3864 24.4826C40.5468 24.0139 40.8073 23.6324 41.1679 23.3379C41.5286 23.0435 41.9485 22.8537 42.4276 22.7684C42.8477 22.6936 43.254 22.7127 43.6465 22.8256C44.0599 22.9416 44.419 23.152 44.7238 23.4566C45.0351 23.7601 45.2695 24.1449 45.427 24.6112L46.5395 24.4132L46.0926 21.9026C46.0599 21.7189 46.0933 21.564 46.1927 21.4379C46.2922 21.3119 46.437 21.2319 46.6274 21.198L46.6766 21.1893C46.867 21.1554 47.0305 21.1804 47.1674 21.2644C47.3042 21.3484 47.389 21.4823 47.4217 21.666L48.8904 29.9163C48.9231 30.1001 48.8897 30.255 48.7903 30.3811C48.6908 30.5071 48.5459 30.5871 48.3556 30.621L48.3064 30.6297ZM41.5807 25.885C41.6415 26.2263 41.7537 26.5145 41.9174 26.7494C42.0877 26.9832 42.2868 27.1509 42.5148 27.2525C42.7494 27.3529 42.9914 27.3809 43.2408 27.3366C43.4836 27.2933 43.6945 27.1847 43.8735 27.0106C44.059 26.8354 44.188 26.6093 44.2606 26.3323C44.3397 26.0541 44.3489 25.7444 44.2882 25.4031C44.2286 25.0683 44.1136 24.7841 43.9434 24.5503C43.7785 24.3088 43.5788 24.1378 43.3442 24.0374C43.1162 23.9358 42.8808 23.9066 42.6379 23.9498C42.3885 23.9942 42.1716 24.1073 41.9873 24.2891C41.8084 24.4631 41.6793 24.6892 41.6002 24.9674C41.5276 25.2444 41.5211 25.5503 41.5807 25.885Z" fill="white"/>
</g>
<defs>
<clipPath id="clip0_85_51168">
<rect width="40" height="46" fill="white" transform="translate(16.6316 20.396) rotate(-9.63275)"/>
</clipPath>
</defs>
</svg>
