<svg width="80" height="80" viewBox="0 0 80 80" fill="none" xmlns="http://www.w3.org/2000/svg">
<g clip-path="url(#clip0_85_50272)">
<rect width="80" height="80" rx="40" fill="#BBF7EB"/>
<g clip-path="url(#clip1_85_50272)">
<path d="M53.5007 47.6203C52.3249 53.8393 51.0697 60.0265 50.2593 66.309C49.4967 72.2582 48.7658 78.2234 47.8283 84.1409C42.9503 84.252 38.0724 84.0457 33.1944 83.665C28.3482 83.2842 23.5497 82.6179 18.9895 80.8411C16.5744 79.905 14.2387 78.7469 12.0142 77.4143C14.191 74.2572 15.5257 70.6083 16.9875 67.0863C18.5447 63.3105 19.8793 59.4395 21.0075 55.5051C23.4385 46.9223 24.4077 38.3236 24.9797 29.4711C25.3134 24.4261 26.7593 19.1273 30.1596 15.2563C33.5758 11.3694 39.2958 9.14835 44.3168 11.0363C47.4152 12.2102 49.9416 14.6375 51.6417 17.4932C52.452 18.8417 53.0717 20.3013 53.5484 21.7925C53.6755 22.1892 53.8026 22.6016 53.8979 22.9983C54.2475 24.2674 54.5017 25.5683 54.6765 26.8692C54.9625 28.8999 55.0896 30.9306 55.1055 32.9613C55.1055 37.8794 54.4064 42.7974 53.5007 47.6203Z" fill="#345668"/>
<path d="M49.4173 48.6357C48.7499 49.1592 47.876 49.3655 47.0498 49.54C46.0488 49.7621 45.0478 49.9842 44.015 50.0635C42.013 50.2063 40.138 49.7145 38.1678 49.2862C38.0725 48.1439 37.9771 46.9858 37.8659 45.8435C37.7388 44.3998 37.6117 42.972 37.3574 41.5442C37.278 41.1158 37.1827 40.6716 37.0714 40.2433C36.8172 39.1803 36.4994 38.1174 36.1816 37.0703C35.9274 36.1978 35.6573 35.3411 35.4031 34.4685C35.9751 34.8969 36.4835 35.1031 37.1509 35.3887C39.9633 36.5468 42.8074 37.5939 45.6674 38.6092C46.5255 38.9106 47.3994 39.2121 48.305 39.3231L48.8929 44.3364L49.4173 48.6357Z" fill="#FFCFCA"/>
<path d="M48.9088 44.3522C45.7787 43.9239 42.6962 43.0355 39.8361 41.6711C38.9305 41.2427 37.9771 40.7827 37.0714 40.2591C36.8172 39.1962 36.4994 38.1333 36.1816 37.0862C35.9274 36.2136 35.6573 35.3569 35.4031 34.4844C35.9751 34.9127 36.4835 35.119 37.1509 35.4045C39.9633 36.5627 42.8074 37.6097 45.6674 38.6251C46.5255 38.9265 47.3994 39.2279 48.305 39.339L48.9088 44.3522Z" fill="#F9BFBB"/>
<path d="M53.7073 36.2769C53.2147 37.9903 52.452 39.5768 51.0379 40.719C49.7827 41.7185 48.1937 42.3214 46.5889 42.4324C44.8094 42.5593 43.0457 42.131 41.4409 41.3536C40.6464 40.9729 39.8837 40.4969 39.1687 39.9575C37.9453 39.0215 36.8648 37.8951 35.9115 36.6735C34.3702 34.6904 33.0355 32.3901 32.2411 29.9469C31.3195 27.1864 31.0812 24.2515 31.9233 21.4117C32.257 20.2535 32.7972 19.1589 33.5122 18.1753C36.4835 14.0187 42.2353 12.7178 46.7161 15.1768C49.0518 16.4619 50.9267 18.5719 52.0548 20.9516C52.4203 21.7131 52.738 22.4905 53.024 23.2837C54.5176 27.4244 54.899 32.0569 53.7073 36.2769Z" fill="#FFCFCA"/>
<path d="M53.5326 21.7928C52.1184 19.7145 50.7202 17.5569 48.8612 15.907C47.1928 14.4474 45.1431 13.4321 42.9186 13.2417C38.708 12.8609 33.7824 14.4474 31.113 17.8583C29.7465 19.5558 29.1428 21.7134 29.0474 23.8393C28.9521 25.9811 29.397 27.869 29.9372 29.9472C34.0048 29.5665 37.564 26.9805 39.6614 23.7441C41.2344 21.3327 42.0765 18.5881 42.5214 15.7642C43.7766 17.3982 45.1749 18.9213 46.8115 20.1587C48.8612 21.7134 51.3081 22.824 53.8821 22.9985C53.7709 22.6019 53.6597 22.2053 53.5326 21.7928Z" fill="#345668"/>
<path d="M69.2786 94.9608C67.9598 93.0887 65.0998 89.4557 65.0998 89.4557C65.0998 89.4557 66.8794 65.7221 61.9855 55.6004C58.8712 52.3957 55.8523 49.5083 51.4033 48.6675C48.1461 54.1249 47.1609 59.043 46.6207 65.3572C45.9057 73.7496 45.6991 82.6021 49.4966 90.122C50.5453 92.2003 51.88 94.1358 53.2306 96.0237C56.8056 101.037 60.8256 105.86 65.3063 110.175C66.5139 111.333 68.3253 111.603 69.8029 110.81L74.1089 108.509C75.523 107.764 76.0474 106.003 75.2847 104.607C73.3939 101.148 71.4872 98.102 69.2786 94.9608Z" fill="#BADDD4"/>
<path d="M57.9974 78.7471C56.7103 83.8396 55.4392 88.9322 54.1522 94.0089C53.6914 95.8492 52.9923 97.6737 51.9277 99.2602C48.6387 100.276 45.2861 101.291 41.8381 101.307C40.0268 101.323 38.2313 101.053 36.4358 100.783C33.5599 100.355 30.6522 99.6885 28.1735 98.1814C28.0305 97.0867 27.9828 95.8017 27.8875 94.707C27.5379 90.5504 27.2042 86.378 26.8547 82.2214C27.5379 82.5546 28.4754 82.6022 29.2222 82.5229C30.6204 82.3642 32.0186 82.2056 33.4169 82.0628C38.5173 81.4917 43.6177 80.9205 48.7022 80.3494C50.6407 80.1273 52.5633 79.9211 54.5017 79.699C55.9159 79.5562 56.758 79.3658 57.9974 78.7471Z" fill="#FFCFCA"/>
<path d="M56.3131 51.5708C56.0748 50.9362 54.1522 49.5718 54.1522 49.5718C54.1522 49.5718 42.6167 47.2556 37.1508 47.9377C34.4179 48.2868 31.7168 48.8896 29.095 49.7622C26.2191 50.7141 23.7086 51.8563 21.3412 53.7601C18.926 55.7115 16.781 57.9801 14.7631 60.3281C13.7779 61.4545 12.8246 62.6126 11.8871 63.7707C9.17009 67.1023 6.31005 70.4339 4.02201 74.0987C0.717077 79.3658 -1.66629 86.1241 1.51153 92.0417C3.41823 95.5795 6.5325 98.3082 9.61499 100.815C13.2695 103.782 17.2894 106.463 21.5795 108.446C22.7871 109.001 24.233 108.589 24.9162 107.446C25.8378 105.939 26.6005 104.337 27.2996 102.719C27.7286 101.735 27.6491 100.609 27.1089 99.6726C24.2012 94.58 20.5785 89.8048 16.1136 85.1564C19.4027 82.031 22.66 78.7312 25.3134 75.0823C25.5677 78.2235 25.663 81.3806 25.5041 84.5218C25.4564 85.4261 25.4088 86.3938 25.8378 87.1871C26.3939 88.2024 27.5697 88.6625 28.666 89.0115C36.6583 91.5499 45.3496 91.8513 53.5166 89.9793C55.1691 89.5985 56.901 89.0591 57.9338 87.6313C58.8713 86.3304 59.0937 84.6487 59.3638 83.1098C59.8087 80.4763 60.0788 77.8269 60.1742 75.1616C60.4443 67.1499 59.1414 59.0748 56.3131 51.5708Z" fill="#BADDD4"/>
<path d="M51.6418 47.5253C51.5782 47.2873 51.4988 47.0334 51.4511 46.7955C51.2604 45.8277 51.4352 44.6061 50.3706 43.9398C49.8463 43.6067 49.2107 43.6701 48.5911 43.6543C47.876 43.6384 47.161 43.6543 46.4619 43.6384C44.9683 43.6067 43.4748 43.448 41.9971 43.1942C41.2503 43.0514 40.5035 42.8928 39.7726 42.6865C39.1053 42.512 38.4379 42.2106 37.7547 42.1471C37.2621 42.0995 36.7219 42.2264 36.4359 42.5596C36.2452 42.7817 36.1975 43.0514 36.1499 43.337C35.8956 44.7013 35.6573 46.0974 35.8639 47.4777C35.9274 47.906 36.0545 48.3502 36.4041 48.6675C37.1827 49.3973 38.8987 49.6194 39.9474 49.8415C43.4271 50.5871 47.1451 50.6823 50.4183 49.4766C50.8155 49.3338 51.2128 49.1593 51.4829 48.8738C51.8801 48.493 51.7689 48.0171 51.6418 47.5253Z" fill="#97C6B7"/>
<path d="M37.4846 48.9216C37.421 48.9216 37.3893 48.874 37.3734 48.8264C37.0079 46.7957 36.9761 44.7333 37.278 42.7185C37.2939 42.655 37.3575 42.6233 37.421 42.6233C37.4846 42.6392 37.5482 42.6868 37.5323 42.7502C37.2304 44.7492 37.2463 46.7799 37.6276 48.7947C37.6435 48.8581 37.5958 48.9057 37.5164 48.9216C37.5005 48.9216 37.4846 48.9216 37.4846 48.9216Z" fill="#83B2A3"/>
<path d="M38.5651 49.3023C38.4856 49.2865 38.438 49.2389 38.4538 49.1754C38.5968 48.2553 38.581 47.2875 38.5492 46.3674L38.4856 43.2896C38.4856 43.1944 38.4697 43.1786 38.4538 43.1627C38.3903 43.131 38.3744 43.0516 38.4221 43.004C38.4538 42.9565 38.5333 42.9406 38.5968 42.9723C38.7398 43.0516 38.7398 43.2103 38.7398 43.2737L38.8034 46.3515C38.8193 47.2875 38.8511 48.2553 38.7081 49.1913C38.7081 49.2706 38.6445 49.3023 38.5651 49.3023Z" fill="#83B2A3"/>
<path d="M39.9156 49.5721C39.8521 49.5563 39.8044 49.5087 39.8044 49.4611C39.7885 47.4621 39.8521 45.4473 39.9792 43.4642C39.9792 43.4008 40.0427 43.3532 40.1222 43.369C40.1857 43.369 40.2493 43.4325 40.2493 43.496C40.1222 45.479 40.0586 47.4939 40.0745 49.4928C40.0586 49.5246 39.9951 49.5721 39.9156 49.5721Z" fill="#83B2A3"/>
<path d="M40.9961 49.7942C40.9326 49.7783 40.8849 49.7307 40.8849 49.6673C41.0438 47.7 41.0756 45.7011 40.9802 43.718C40.9802 43.6545 41.0279 43.6069 41.1073 43.6069C41.1709 43.6069 41.2344 43.6545 41.2344 43.718C41.3298 45.7011 41.298 47.7159 41.1391 49.6831C41.1391 49.7624 41.0756 49.81 40.9961 49.7942Z" fill="#83B2A3"/>
<path d="M42.2195 50.1431C42.156 50.1272 42.0924 50.0796 42.1083 50.0161C42.2195 49.1277 42.2513 48.1441 42.2036 46.8591V46.7321C42.1878 46.2879 42.156 45.8437 42.2195 45.3995C42.2354 45.2409 42.2672 45.0981 42.299 44.9394C42.3625 44.6539 42.4261 44.3683 42.4102 44.0986C42.4102 44.0351 42.4579 43.9875 42.5373 43.9875C42.6009 43.9875 42.6644 44.0351 42.6644 44.0986C42.6803 44.4 42.6168 44.7015 42.5532 44.987C42.5214 45.1298 42.4896 45.2885 42.4738 45.4312C42.4102 45.8596 42.4261 46.3038 42.4579 46.7321V46.8591C42.5214 48.16 42.4896 49.1436 42.3625 50.0479C42.3466 50.1113 42.2831 50.1431 42.2195 50.1431Z" fill="#83B2A3"/>
<path d="M43.2683 50.0479C43.1888 50.0321 43.1411 49.9845 43.157 49.921C43.4748 48.049 43.586 46.1452 43.4748 44.2414C43.4748 44.178 43.5225 44.1304 43.6019 44.1304C43.6814 44.1304 43.729 44.178 43.729 44.2414C43.8403 46.1611 43.7449 48.0807 43.4113 49.9527C43.3954 50.0162 43.3318 50.0479 43.2683 50.0479Z" fill="#83B2A3"/>
<path d="M44.6664 50.0003C44.587 49.9844 44.5393 49.9368 44.5552 49.8733C44.6346 49.445 44.587 48.9849 44.5393 48.5566C44.5234 48.3503 44.4916 48.1441 44.4916 47.922C44.4757 47.4619 44.5234 46.986 44.5552 46.5259C44.6187 45.7644 44.6982 44.987 44.4757 44.2414C44.4598 44.1779 44.5075 44.1303 44.5711 44.1144C44.6346 44.0986 44.7141 44.1462 44.73 44.1938C44.9524 44.9711 44.8889 45.7802 44.8094 46.5576C44.7617 47.0018 44.73 47.4778 44.7459 47.922C44.7617 48.1282 44.7776 48.3345 44.7935 48.5407C44.8412 48.9849 44.8889 49.4609 44.7935 49.9051C44.8094 49.9685 44.7459 50.0161 44.6664 50.0003Z" fill="#83B2A3"/>
<path d="M45.7787 49.921C45.7151 49.9051 45.6675 49.8575 45.6675 49.7941C45.8423 47.9538 45.8899 46.0817 45.8264 44.2256C45.8264 44.1621 45.874 44.1145 45.9535 44.1145C46.017 44.1145 46.0806 44.1621 46.0806 44.2256C46.1442 46.0817 46.0965 47.9696 45.9217 49.8099C45.9217 49.8734 45.8582 49.921 45.7787 49.921Z" fill="#83B2A3"/>
<path d="M47.034 49.6355C46.9704 49.6196 46.9069 49.572 46.9228 49.5086C47.0975 47.8269 47.2882 46.0976 46.9545 44.4001C46.9386 44.3367 46.9863 44.2891 47.0658 44.2732C47.1293 44.2732 47.2088 44.3049 47.2088 44.3684C47.5424 46.0976 47.3676 47.8428 47.177 49.5403C47.1611 49.6037 47.1134 49.6513 47.034 49.6355Z" fill="#83B2A3"/>
<path d="M48.1144 49.8259C48.0508 49.81 48.0032 49.7624 48.0032 49.7148L48.0191 44.416C48.0191 44.3525 48.0826 44.3049 48.1462 44.3049C48.2097 44.3049 48.2733 44.3525 48.2733 44.416L48.2574 49.7148C48.2574 49.7783 48.2097 49.8259 48.1144 49.8259Z" fill="#83B2A3"/>
<path d="M49.4014 49.4927C49.3379 49.4768 49.2902 49.4292 49.2902 49.3816C49.3538 47.7317 49.3061 46.0659 49.1631 44.416C49.1631 44.3525 49.2108 44.3049 49.2743 44.3049C49.3379 44.3049 49.4014 44.3525 49.4173 44.416C49.5762 46.0818 49.6239 47.7476 49.5444 49.4134C49.5444 49.4451 49.4809 49.4927 49.4014 49.4927C49.4173 49.4927 49.4173 49.4927 49.4014 49.4927Z" fill="#83B2A3"/>
<path d="M50.6567 49.001C50.6408 49.001 50.6408 49.001 50.6249 49.001C50.5614 48.9851 50.5137 48.9217 50.5455 48.8582C50.7044 48.4616 50.6249 48.0332 50.5614 47.5732C50.5296 47.3669 50.4978 47.1448 50.4819 46.9386C50.466 46.7641 50.4819 46.6054 50.4819 46.4309C50.4819 46.2723 50.4978 46.0977 50.4819 45.9232C50.4501 45.3838 50.2436 44.8444 50.037 44.3209C50.0211 44.2574 50.0529 44.194 50.1165 44.1781C50.18 44.1623 50.2595 44.194 50.2753 44.2574C50.4819 44.7968 50.6885 45.3521 50.7202 45.9232C50.7361 46.0977 50.7202 46.2723 50.7202 46.4468C50.7202 46.6054 50.7044 46.7799 50.7202 46.9386C50.7361 47.1448 50.7679 47.3511 50.7997 47.5573C50.8791 48.0174 50.9586 48.4933 50.7838 48.9375C50.7679 48.9851 50.7202 49.0169 50.6567 49.001Z" fill="#83B2A3"/>
<path d="M37.1191 35.8646C35.832 36.991 33.9412 37.3717 32.3205 36.8165C30.9541 36.3405 29.8418 35.2141 29.3811 33.8498C29.3016 33.5959 29.2381 33.358 29.1904 33.0883C29.1109 32.6282 29.1109 32.1681 29.2222 31.7239C29.4923 30.6134 30.4774 29.7567 31.6055 29.5504C32.7337 29.3442 33.9253 29.7884 34.7039 30.6134L35.6414 32.6282L37.1191 35.8646Z" fill="#FFCFCA"/>
<path d="M55.5346 89.3921C56.1702 89.0272 56.8216 88.7099 57.4095 88.3451C57.9974 87.9802 58.5377 87.536 58.8713 86.9648C59.0461 86.6793 59.1573 86.362 59.2527 86.0288C59.3321 85.6956 59.3798 85.3784 59.3321 85.0452C59.3003 84.712 59.2368 84.3471 59.1891 83.9823C59.1414 83.6174 59.0938 83.2683 59.062 82.9035C58.9984 82.1895 58.9508 81.4598 58.9349 80.7459C58.9031 80.0319 58.9031 79.3022 58.919 78.5883C58.9508 77.1446 59.0302 75.7167 59.1097 74.273C59.2686 71.4015 59.491 68.53 59.4274 65.6585C59.3798 62.787 59.1414 59.9155 58.7124 57.0757C59.1891 59.9155 59.4592 62.787 59.5704 65.6585C59.6817 68.53 59.5069 71.4174 59.3957 74.2889C59.3321 75.7167 59.2844 77.1604 59.2844 78.5883C59.2844 79.3022 59.2844 80.0161 59.3321 80.73C59.3639 81.4439 59.4116 82.1578 59.5069 82.8717C59.5546 83.2208 59.6022 83.5856 59.6499 83.9347C59.6976 84.2837 59.777 84.6327 59.8247 85.0135C59.8723 85.3942 59.8406 85.7908 59.7452 86.1557C59.6658 86.5206 59.5228 86.8855 59.3321 87.2187C59.1414 87.5518 58.9031 87.8691 58.6171 88.123C58.3311 88.3927 58.0292 88.6148 57.7273 88.8051C57.1076 89.2018 56.4562 89.519 55.8524 89.8839L55.5346 89.3921Z" fill="#97C6B7"/>
<path d="M25.2657 52.8875C25.9648 53.3951 26.5527 54.0614 27.0294 54.7912C27.5061 55.5369 27.8397 56.346 28.1098 57.1868C28.38 58.0276 28.5388 58.8843 28.6501 59.7569C28.7613 60.6136 28.809 61.4861 28.8249 62.3587C28.8407 63.2312 28.7931 64.1038 28.7295 64.9605C28.6501 65.8331 28.5388 66.6898 28.3641 67.5306C28.0463 69.2281 27.5219 70.9098 26.7116 72.4328C27.2995 70.8146 27.6967 69.1488 27.9351 67.4513C28.0463 66.6104 28.1416 65.7537 28.2052 64.897C28.2687 64.0403 28.3005 63.1995 28.2687 62.3428C28.2687 61.4861 28.2211 60.6453 28.1257 59.7886C28.0781 59.3603 28.0304 58.9478 27.9509 58.5194C27.8715 58.1069 27.7921 57.6945 27.6967 57.282C27.5855 56.8695 27.4743 56.4729 27.3154 56.0763C27.2518 55.87 27.1565 55.6796 27.077 55.4893C26.9817 55.2989 26.9023 55.1085 26.8069 54.9181C26.3938 54.1725 25.8854 53.4903 25.2657 52.8875Z" fill="#97C6B7"/>
<path d="M35.7367 49.7937C35.6731 49.7937 35.6254 49.7619 35.6095 49.6985C35.5778 49.6192 35.6254 49.5398 35.689 49.524C35.8638 49.4605 36.0544 49.397 36.2292 49.3336C36.3087 49.3019 36.3881 49.3495 36.404 49.4129C36.4358 49.4922 36.3881 49.5716 36.3246 49.5874C36.1498 49.6509 35.9591 49.7143 35.7843 49.7778C35.7684 49.7937 35.7367 49.7937 35.7367 49.7937Z" fill="#97C6B7"/>
<path d="M23.2638 105.479C23.232 105.479 23.2161 105.479 23.1843 105.463C22.8665 105.257 22.5488 105.05 22.2151 104.844C22.1515 104.797 22.1356 104.717 22.1674 104.654C22.2151 104.59 22.2945 104.574 22.3581 104.606C22.6759 104.812 22.9937 105.019 23.3273 105.225C23.3909 105.273 23.4068 105.352 23.375 105.415C23.3591 105.463 23.3114 105.479 23.2638 105.479ZM21.3412 104.241C21.3094 104.241 21.2935 104.241 21.2617 104.225C20.944 104.019 20.6262 103.797 20.3084 103.591C20.2448 103.543 20.2289 103.464 20.2766 103.4C20.3243 103.337 20.4037 103.321 20.4673 103.369C20.7851 103.575 21.1028 103.797 21.4206 104.003C21.4842 104.051 21.5001 104.13 21.4683 104.194C21.4206 104.21 21.3889 104.241 21.3412 104.241ZM19.4345 102.956C19.4027 102.956 19.3709 102.94 19.355 102.925C19.0373 102.702 18.7195 102.496 18.4176 102.274C18.354 102.227 18.3381 102.147 18.3858 102.084C18.4335 102.02 18.5129 102.004 18.5765 102.052C18.8943 102.274 19.1962 102.48 19.5139 102.702C19.5775 102.75 19.5934 102.829 19.5457 102.893C19.5298 102.94 19.4822 102.956 19.4345 102.956ZM17.5596 101.64C17.5278 101.64 17.496 101.624 17.4801 101.608C17.1623 101.386 16.8605 101.164 16.5586 100.926C16.495 100.878 16.4791 100.783 16.5268 100.719C16.5744 100.656 16.6698 100.64 16.7333 100.688C17.0352 100.91 17.353 101.148 17.6549 101.37C17.7185 101.417 17.7344 101.513 17.6867 101.576C17.639 101.624 17.6072 101.64 17.5596 101.64ZM15.7164 100.275C15.6847 100.275 15.6529 100.259 15.637 100.243C15.3351 100.005 15.0332 99.7675 14.7313 99.5295C14.6678 99.4819 14.6678 99.3867 14.7154 99.3232C14.7631 99.2598 14.8584 99.2598 14.922 99.3074C15.208 99.5454 15.5099 99.7833 15.8118 100.021C15.8753 100.069 15.8912 100.164 15.8435 100.228C15.8118 100.259 15.7641 100.275 15.7164 100.275ZM13.9369 98.8314C13.9051 98.8314 13.8733 98.8156 13.8415 98.7997C13.5396 98.5459 13.2536 98.292 12.9676 98.0541C12.9041 98.0065 12.9041 97.9113 12.9517 97.8478C12.9994 97.7844 13.0947 97.7844 13.1583 97.832C13.4443 98.0858 13.7303 98.3238 14.0163 98.5776C14.0799 98.6252 14.0799 98.7204 14.0322 98.7839C14.0163 98.8156 13.9845 98.8314 13.9369 98.8314ZM12.2208 97.3084C12.1891 97.3084 12.1573 97.2926 12.1255 97.2767C11.8395 97.0229 11.5694 96.769 11.2834 96.4993C11.2198 96.4517 11.2198 96.3566 11.2834 96.2931C11.331 96.2296 11.4264 96.2296 11.4899 96.2931C11.7759 96.5469 12.046 96.8166 12.3321 97.0705C12.3956 97.1181 12.3956 97.2132 12.3479 97.2767C12.3003 97.2926 12.2685 97.3084 12.2208 97.3084ZM10.5525 95.7537C10.5207 95.7537 10.4889 95.7378 10.4571 95.7061C10.1711 95.4364 9.90102 95.1508 9.6309 94.897C9.58323 94.8335 9.58323 94.7542 9.6309 94.6908C9.69446 94.6432 9.7739 94.6432 9.83746 94.6908C10.0917 94.9446 10.3618 95.2143 10.6478 95.4999C10.7114 95.5475 10.7114 95.6426 10.6478 95.7061C10.616 95.7378 10.5842 95.7537 10.5525 95.7537ZM8.93178 94.1196C8.9 94.1196 8.85233 94.1038 8.82056 94.072C8.55044 93.7865 8.29621 93.5009 8.05788 93.2153C8.01021 93.1519 8.01021 93.0726 8.07377 93.0091C8.13732 92.9615 8.21677 92.9615 8.28033 93.025C8.51866 93.2947 8.77289 93.5802 9.043 93.8817C9.09067 93.9451 9.09067 94.0244 9.043 94.0879C9.01123 94.1196 8.97945 94.1196 8.93178 94.1196ZM7.45409 92.3904C7.40642 92.3904 7.37465 92.3745 7.34287 92.3428C7.10453 92.0255 6.86619 91.724 6.65964 91.4226C6.61197 91.3592 6.62786 91.264 6.69141 91.2322C6.75497 91.1846 6.85031 91.2005 6.88208 91.264C7.08864 91.5654 7.31109 91.8668 7.54943 92.1841C7.59709 92.2476 7.5812 92.3428 7.51765 92.3904C7.51765 92.3745 7.48587 92.3904 7.45409 92.3904ZM6.15118 90.5025C6.10352 90.5025 6.05585 90.4707 6.02407 90.439C5.81751 90.1058 5.64273 89.7568 5.46795 89.4237C5.43617 89.3602 5.46795 89.265 5.53151 89.2333C5.59506 89.2016 5.6904 89.2333 5.72218 89.2967C5.88107 89.6299 6.07174 89.9631 6.26241 90.2962C6.31007 90.3597 6.2783 90.4549 6.21474 90.4866C6.19885 90.5025 6.18296 90.5025 6.15118 90.5025ZM5.15017 88.4559C5.08661 88.4559 5.03895 88.4242 5.02306 88.3607C4.88005 87.9958 4.76883 87.6309 4.6735 87.2661C4.65761 87.1867 4.70527 87.1074 4.76883 87.0915C4.84828 87.0757 4.92772 87.1233 4.94361 87.1867C5.03895 87.5358 5.15017 87.9007 5.29317 88.2655C5.32495 88.3449 5.27728 88.4242 5.21373 88.4559C5.18195 88.44 5.16606 88.4559 5.15017 88.4559ZM4.57816 86.2348C4.5146 86.2348 4.45105 86.1873 4.43516 86.1079C4.43516 86.0603 4.41927 86.0127 4.41927 85.9652C4.3716 85.632 4.35571 85.2988 4.35571 84.9498C4.35571 84.8705 4.41927 84.807 4.49872 84.807C4.57816 84.807 4.64172 84.8705 4.64172 84.9498C4.64172 85.283 4.6735 85.6003 4.70527 85.9334C4.70527 85.981 4.72116 86.0286 4.72116 86.0762C4.73705 86.1555 4.6735 86.219 4.59405 86.2348H4.57816ZM4.54638 83.9662C4.53049 83.9662 4.53049 83.9662 4.54638 83.9662C4.45105 83.9503 4.40338 83.8869 4.40338 83.8075C4.43516 83.4268 4.49872 83.046 4.57816 82.6653C4.59405 82.586 4.6735 82.5384 4.75294 82.5542C4.83239 82.5701 4.88005 82.6494 4.86416 82.7287C4.78472 83.1095 4.72116 83.4744 4.68938 83.8393C4.6735 83.9027 4.60994 83.9662 4.54638 83.9662ZM5.00717 81.7293C4.99128 81.7293 4.97539 81.7293 4.9595 81.7293C4.88005 81.7134 4.84828 81.6341 4.86416 81.5548C4.97539 81.2057 5.1025 80.825 5.2455 80.4601C5.27728 80.3808 5.35673 80.349 5.43617 80.3808C5.51562 80.4125 5.5474 80.4918 5.51562 80.5711C5.37262 80.936 5.2455 81.3009 5.15017 81.6499C5.11839 81.6817 5.07072 81.7293 5.00717 81.7293ZM5.8334 79.5875C5.81751 79.5875 5.78573 79.5875 5.76985 79.5717C5.6904 79.5399 5.67451 79.4606 5.70629 79.3813C5.86518 79.0481 6.02407 78.6991 6.21474 78.3501C6.24652 78.2866 6.34185 78.2549 6.40541 78.2866C6.46897 78.3184 6.50074 78.4135 6.46897 78.477C6.29419 78.826 6.11941 79.175 5.9764 79.4923C5.92874 79.5558 5.88107 79.5875 5.8334 79.5875ZM6.88208 77.5568C6.86619 77.5568 6.83442 77.5568 6.81853 77.541C6.75497 77.5093 6.72319 77.4141 6.77086 77.3506C6.94564 77.0333 7.13631 76.716 7.35876 76.367C7.40642 76.3035 7.48587 76.2718 7.54943 76.3194C7.61298 76.367 7.64476 76.4463 7.59709 76.5098C7.39054 76.8588 7.19987 77.1761 7.02509 77.4934C6.97742 77.5251 6.92975 77.5568 6.88208 77.5568ZM8.05788 75.5896C8.0261 75.5896 8.01021 75.5896 7.97843 75.5738C7.91488 75.5262 7.89899 75.4468 7.93077 75.3834C8.13732 75.0661 8.34388 74.7329 8.55044 74.4156C8.59811 74.3522 8.67755 74.3363 8.74111 74.368C8.80467 74.4156 8.82056 74.495 8.78878 74.5584C8.58222 74.8757 8.37566 75.193 8.1691 75.5262C8.15321 75.5738 8.10555 75.5896 8.05788 75.5896ZM9.29723 73.67C9.26545 73.67 9.24956 73.67 9.21778 73.6541C9.15423 73.6065 9.13834 73.5272 9.17012 73.4637C9.37668 73.1465 9.59912 72.8292 9.80568 72.5119C9.85335 72.4484 9.93279 72.4325 9.99635 72.4801C10.0599 72.5277 10.0758 72.607 10.0281 72.6705C9.82157 72.9878 9.59912 73.3051 9.39256 73.6224C9.37668 73.6383 9.3449 73.67 9.29723 73.67ZM10.5842 71.7662C10.5525 71.7662 10.5207 71.7504 10.5048 71.7345C10.4412 71.6869 10.4254 71.6076 10.473 71.5441C10.6955 71.2268 10.9179 70.9254 11.1404 70.6081C11.188 70.5446 11.2675 70.5288 11.3469 70.5764C11.4105 70.624 11.4264 70.7033 11.3787 70.7826C11.1563 71.0999 10.9338 71.4013 10.7273 71.7186C10.6637 71.7504 10.6319 71.7662 10.5842 71.7662ZM11.903 69.91C11.8713 69.91 11.8395 69.8942 11.8236 69.8783C11.76 69.8307 11.7442 69.7355 11.7918 69.6721C12.0143 69.3706 12.2367 69.0534 12.4751 68.7519C12.5227 68.6885 12.6181 68.6726 12.6816 68.7202C12.7452 68.7678 12.7611 68.863 12.7134 68.9264C12.4909 69.2279 12.2685 69.5452 12.0302 69.8466C11.9984 69.8942 11.9507 69.91 11.903 69.91ZM13.2695 68.0697C13.2377 68.0697 13.206 68.0539 13.1901 68.038C13.1265 67.9904 13.1106 67.8952 13.1583 67.8318C13.3807 67.5303 13.6191 67.2289 13.8574 66.9116C13.9051 66.8482 14.0004 66.8323 14.064 66.8799C14.1275 66.9275 14.1434 67.0227 14.0957 67.0861C13.8574 67.3876 13.635 67.689 13.3966 67.9904C13.3648 68.0539 13.3172 68.0697 13.2695 68.0697ZM14.6678 66.2453C14.636 66.2453 14.6042 66.2294 14.5883 66.2136C14.5247 66.166 14.5089 66.0708 14.5565 66.0073C14.7949 65.7059 15.0332 65.4045 15.2557 65.103C15.3033 65.0396 15.3987 65.0237 15.4622 65.0713C15.5258 65.1189 15.5417 65.2141 15.494 65.2775C15.2557 65.579 15.0173 65.8804 14.7949 66.1818C14.7472 66.2294 14.6995 66.2453 14.6678 66.2453ZM16.0819 64.4526C16.0501 64.4526 16.0183 64.4367 15.9865 64.4208C15.923 64.3733 15.9071 64.2781 15.9707 64.2146C16.209 63.9132 16.4473 63.6117 16.6857 63.3262C16.7333 63.2627 16.8287 63.2627 16.8922 63.3103C16.9558 63.3579 16.9558 63.4531 16.9081 63.5166C16.6698 63.818 16.4314 64.1194 16.1931 64.405C16.1613 64.4367 16.1137 64.4526 16.0819 64.4526ZM17.5119 62.6599C17.4801 62.6599 17.4483 62.644 17.4166 62.6281C17.353 62.5805 17.353 62.4854 17.4007 62.4219C17.639 62.1205 17.8774 61.8349 18.1157 61.5335C18.1634 61.47 18.2587 61.47 18.3222 61.5176C18.3858 61.5652 18.3858 61.6604 18.3381 61.7238C18.0998 62.0253 17.8615 62.3108 17.6231 62.6123C17.5914 62.644 17.5437 62.6599 17.5119 62.6599ZM18.9578 60.883C18.926 60.883 18.8943 60.8672 18.8625 60.8513C18.7989 60.8037 18.7989 60.7085 18.8466 60.645C19.0849 60.3436 19.3233 60.0581 19.5775 59.7566C19.6252 59.6932 19.7205 59.6932 19.7841 59.7408C19.8476 59.7884 19.8476 59.8835 19.7999 59.947C19.5616 60.2484 19.3233 60.534 19.069 60.8354C19.0373 60.8672 18.9896 60.883 18.9578 60.883ZM20.4037 59.122C20.3719 59.122 20.3402 59.1062 20.3084 59.0903C20.2448 59.0427 20.2448 58.9475 20.2925 58.8841L21.0234 57.9956C21.0711 57.9322 21.1664 57.9322 21.23 57.9798C21.2935 58.0274 21.2935 58.1226 21.2458 58.186L20.5149 59.0586C20.4832 59.0903 20.4514 59.122 20.4037 59.122ZM21.8655 57.3452C21.8337 57.3452 21.802 57.3293 21.7702 57.3135C21.7066 57.2659 21.7066 57.1707 21.7543 57.1072C22.0244 56.7899 22.2786 56.5044 22.517 56.2505C22.5646 56.1871 22.66 56.1871 22.7235 56.2347C22.7871 56.2822 22.7871 56.3774 22.7394 56.4409C22.5011 56.6947 22.2628 56.9803 21.9926 57.2976C21.945 57.3293 21.9132 57.3452 21.8655 57.3452ZM23.4227 55.6794C23.3909 55.6794 23.3432 55.6635 23.3273 55.6318C23.2797 55.5683 23.2797 55.489 23.3273 55.4256C23.6133 55.14 23.8993 54.8862 24.1853 54.6482C24.2489 54.6006 24.3283 54.6006 24.3919 54.664C24.4396 54.7275 24.4396 54.8068 24.376 54.8703C24.1059 55.0924 23.8199 55.3621 23.5339 55.6318C23.4862 55.6635 23.4544 55.6794 23.4227 55.6794ZM25.1863 54.2198C25.1387 54.2198 25.091 54.204 25.0751 54.1564C25.0275 54.0929 25.0433 53.9977 25.1069 53.966C25.4088 53.7598 25.7425 53.5535 26.092 53.3631C26.1556 53.3314 26.2509 53.3473 26.2827 53.4107C26.3145 53.4742 26.2986 53.5694 26.235 53.6011C25.9014 53.7915 25.5677 53.9977 25.2658 54.204C25.2499 54.204 25.2181 54.2198 25.1863 54.2198ZM27.1725 53.0934C27.1248 53.0934 27.0613 53.0617 27.0454 53.0141C27.0136 52.9507 27.0454 52.8555 27.1089 52.8237C27.4267 52.6651 27.7763 52.5064 28.1576 52.3478C28.2371 52.3161 28.3165 52.3478 28.3483 52.4271C28.3801 52.5064 28.3483 52.5858 28.2688 52.6175C27.8875 52.7761 27.5538 52.9348 27.236 53.0934C27.2202 53.0776 27.2043 53.0934 27.1725 53.0934ZM29.2857 52.1891C29.2222 52.1891 29.1745 52.1574 29.1586 52.094C29.1269 52.0146 29.1586 51.9353 29.2381 51.9036C29.4923 51.8084 29.7306 51.7132 29.9849 51.618L30.3185 51.4911C30.398 51.4594 30.4774 51.507 30.5092 51.5704C30.541 51.6497 30.4933 51.7291 30.4298 51.7608L30.0961 51.8877C29.8419 51.9829 29.6035 52.0781 29.3493 52.1733C29.3175 52.1891 29.3016 52.1891 29.2857 52.1891ZM31.4308 51.3642C31.3672 51.3642 31.3196 51.3325 31.3037 51.269C31.2719 51.1897 31.3196 51.1103 31.3831 51.0786C31.7486 50.9517 32.0981 50.8089 32.4636 50.682C32.543 50.6503 32.6225 50.6979 32.6542 50.7613C32.686 50.8406 32.6383 50.92 32.5748 50.9517C32.2093 51.0786 31.8598 51.2214 31.4943 51.3483C31.4626 51.3642 31.4467 51.3642 31.4308 51.3642ZM33.5758 50.5709C33.5123 50.5709 33.4646 50.5392 33.4487 50.4758C33.4169 50.3964 33.4646 50.3171 33.5281 50.2854C33.8936 50.1585 34.2431 50.0315 34.6086 49.8888C34.688 49.857 34.7675 49.9046 34.7834 49.9681C34.8152 50.0474 34.7675 50.1267 34.7039 50.1426C34.3385 50.2695 33.9889 50.3964 33.6235 50.5392C33.6076 50.5709 33.5917 50.5709 33.5758 50.5709Z" fill="#97C6B7"/>
<path d="M44.1103 29.4236C43.9832 28.6304 43.4429 28.0434 42.9186 28.1385C42.3943 28.2337 42.0765 28.9476 42.2195 29.7409C42.3466 30.5341 42.8868 31.1211 43.4112 31.0259C43.9355 30.9466 44.2533 30.2327 44.1103 29.4236Z" fill="#1F3C49"/>
<path d="M51.3557 28.7254C51.2286 27.948 50.7043 27.3769 50.1958 27.472C49.6874 27.5514 49.3855 28.2653 49.5126 29.0427C49.6397 29.82 50.164 30.3912 50.6725 30.296C51.181 30.2008 51.4828 29.5027 51.3557 28.7254Z" fill="#1F3C49"/>
<path d="M41.2184 26.3458C41.139 26.3458 41.0595 26.314 40.996 26.2347C40.9006 26.1078 40.9165 25.9333 41.0436 25.8381C41.8222 25.2194 42.9345 25.0766 43.8401 25.4732C43.9831 25.5367 44.0467 25.7112 43.9831 25.854C43.9196 25.9967 43.7448 26.0602 43.6018 25.9967C42.8868 25.6794 41.997 25.7905 41.3932 26.2823C41.3455 26.3299 41.282 26.3458 41.2184 26.3458Z" fill="#1F3C49"/>
<path d="M48.6705 25.6793C48.591 25.6793 48.4957 25.6317 48.448 25.5682C48.3527 25.4413 48.3845 25.2668 48.5116 25.1716C49.2425 24.6322 50.2753 24.537 51.1015 24.9178C51.2445 24.9812 51.3081 25.1558 51.2286 25.2985C51.165 25.4413 50.9903 25.5048 50.8473 25.4255C50.2117 25.124 49.4014 25.2033 48.8452 25.6158C48.7976 25.6634 48.734 25.6793 48.6705 25.6793Z" fill="#1F3C49"/>
<path d="M46.9544 31.3589C47.1451 31.1527 47.4629 31.0575 47.7648 31.1051C48.0666 31.1527 48.3527 31.3748 48.5115 31.6603C48.6704 31.93 48.6863 32.2949 48.5433 32.5805C48.4162 32.8661 48.162 33.0723 47.876 33.1199C48.0666 32.9295 48.1779 32.7074 48.2255 32.4853C48.2732 32.2632 48.2255 32.057 48.1302 31.8666C48.0349 31.6762 47.876 31.5334 47.6853 31.4382C47.4629 31.343 47.2245 31.2954 46.9544 31.3589Z" fill="#1F3C49"/>
<path d="M51.2127 34.1353V34.1511C51.3557 35.0237 51.1651 35.8962 50.7043 36.5943C50.164 37.4351 49.2901 38.0538 48.2097 38.2284C47.0498 38.4187 45.9375 38.0538 45.159 37.3399C44.6029 36.8323 44.1897 36.1342 44.0626 35.341V35.3251L51.2127 34.1353Z" fill="#EA5353"/>
<path d="M50.7202 36.6101C50.1799 37.451 49.306 38.0697 48.2256 38.2442C47.0657 38.4346 45.9534 38.0697 45.1749 37.3558C45.445 37.1971 45.731 37.0544 46.017 36.9274C47.1292 36.4515 48.3527 36.1659 49.5444 36.3246C49.9575 36.3722 50.3388 36.4674 50.7202 36.6101Z" fill="#FF948F"/>
<path d="M50.5454 34.2463C50.4659 34.3415 50.3706 34.4208 50.2912 34.5002C48.9565 35.7376 46.3348 36.4991 44.8412 35.1982L50.5454 34.2463Z" fill="#E3D9FE"/>
<path d="M43.3794 28.9951C42.9345 28.9951 42.9345 29.6773 43.3794 29.6773C43.8243 29.6773 43.8243 28.9951 43.3794 28.9951Z" fill="#E3D9FE"/>
<path d="M50.6565 28.2334C50.2117 28.2334 50.2117 28.9156 50.6565 28.9156C51.1014 28.9156 51.1014 28.2334 50.6565 28.2334Z" fill="#E3D9FE"/>
</g>
</g>
<defs>
<clipPath id="clip0_85_50272">
<rect width="80" height="80" rx="40" fill="white"/>
</clipPath>
<clipPath id="clip1_85_50272">
<rect width="89" height="228" fill="white" transform="translate(0 10)"/>
</clipPath>
</defs>
</svg>
