<svg width="266" height="273" viewBox="0 0 266 273" fill="none" xmlns="http://www.w3.org/2000/svg">
<path d="M191.591 131.016C181.074 134.224 156.963 141.587 156.415 139.788C156.208 139.057 155.094 139.373 155.301 140.104C155.34 140.769 155.378 141.435 155.417 142.101C155.226 143.019 155.995 143.741 156.874 143.529C168.796 140.901 180.616 137.248 192.326 133.74C193.869 136.798 197.581 138.752 200.976 137.602C201.289 137.513 201.567 137.434 201.836 137.32C205.648 136.051 208.055 132.211 206.921 128.21C205.786 124.209 201.722 122.204 197.811 123.125C197.498 123.214 197.219 123.293 196.931 123.337C193.517 124.155 191.379 127.618 191.581 130.981L191.591 131.016Z" fill="#6A6EC7"/>
<path d="M211.072 151.729C200.554 154.937 176.443 162.3 175.895 160.501C175.688 159.77 174.575 160.086 174.782 160.817C174.82 161.482 174.859 162.148 174.897 162.814C174.707 163.732 175.475 164.454 176.355 164.242C188.277 161.613 200.096 157.961 211.806 154.453C213.35 157.511 217.062 159.465 220.491 158.305C220.77 158.226 221.083 158.137 221.351 158.023C225.164 156.754 227.571 152.914 226.436 148.913C225.302 144.912 221.237 142.907 217.326 143.828C217.013 143.917 216.735 143.996 216.447 144.04C213.032 144.858 210.894 148.321 211.096 151.684L211.072 151.729Z" fill="#6A6EC7"/>
<path d="M215.274 104.115C202.783 107.92 174.179 116.671 173.533 114.523C173.296 113.688 172.009 114.053 172.211 114.898C172.244 115.678 172.287 116.493 172.355 117.263C172.134 118.34 173.012 119.182 174.075 118.955C188.184 115.819 202.22 111.501 216.157 107.361C217.982 111.015 222.424 113.289 226.445 111.961C226.793 111.862 227.14 111.764 227.479 111.63C232.012 110.119 234.852 105.555 233.511 100.823C232.169 96.0919 227.32 93.7079 222.704 94.7915C222.356 94.8902 222.008 94.9889 221.65 95.0527C217.6 96.0133 215.053 100.156 215.319 104.14L215.274 104.115Z" fill="#6A6EC7"/>
<path d="M194.818 86.7243C182.328 90.5292 153.724 99.2795 153.077 97.1323C152.84 96.2973 151.553 96.6623 151.755 97.5072C151.788 98.2871 151.831 99.1019 151.899 99.8719C151.679 100.949 152.556 101.791 153.62 101.564C167.728 98.4281 181.764 94.1096 195.701 89.9697C197.527 93.6243 201.968 95.8982 205.989 94.57C206.337 94.4714 206.685 94.3727 207.023 94.2393C211.556 92.7283 214.397 88.164 213.055 83.4324C211.713 78.7008 206.865 76.3168 202.248 77.4005C201.9 77.4991 201.552 77.5977 201.195 77.6616C197.144 78.6222 194.598 82.7649 194.863 86.7492L194.818 86.7243Z" fill="#6A6EC7"/>
<path d="M120.144 224.235C116.448 212.128 108.044 184.478 110.121 183.851C110.956 183.614 110.601 182.362 109.756 182.564C108.976 182.597 108.241 182.655 107.461 182.688C106.428 182.492 105.577 183.335 105.828 184.354C108.846 198.045 113.027 211.594 116.993 225.054C113.478 226.84 111.224 231.087 112.523 235.004C112.622 235.352 112.71 235.665 112.844 236.003C114.305 240.363 118.701 243.138 123.293 241.836C127.886 240.534 130.17 235.864 129.126 231.386C129.027 231.038 128.929 230.691 128.875 230.368C127.954 226.456 123.945 223.985 120.1 224.21L120.144 224.235Z" fill="#6A6EC7"/>
<path d="M133.317 197.384C130.05 186.658 122.612 162.154 124.412 161.606C125.142 161.399 124.827 160.286 124.096 160.493C123.43 160.531 122.73 160.579 122.064 160.618C121.146 160.427 120.424 161.196 120.611 162.12C123.289 174.216 126.966 186.254 130.499 198.183C127.371 199.746 125.401 203.537 126.572 207.002C126.66 207.315 126.739 207.593 126.863 207.897C128.152 211.779 132.036 214.21 136.107 213.056C140.177 211.902 142.207 207.793 141.267 203.812C141.178 203.499 141.099 203.221 141.045 202.898C140.242 199.404 136.7 197.251 133.257 197.438L133.317 197.384Z" fill="#6A6EC7"/>
<path d="M164.372 225.114C160.675 213.006 152.271 185.356 154.349 184.729C155.184 184.493 154.829 183.24 153.984 183.442C153.204 183.475 152.468 183.533 151.689 183.567C150.656 183.371 149.805 184.214 150.056 185.232C153.074 198.923 157.254 212.473 161.221 225.932C157.706 227.718 155.452 231.966 156.751 235.883C156.849 236.231 156.938 236.544 157.071 236.882C158.533 241.241 162.929 244.017 167.521 242.714C172.113 241.412 174.398 236.742 173.354 232.265C173.255 231.917 173.156 231.569 173.102 231.246C172.181 227.335 168.173 224.863 164.327 225.089L164.372 225.114Z" fill="#6A6EC7"/>
<path d="M79.7134 75.1594C83.2385 88.5186 91.2695 119.094 93.5407 118.487C94.4453 118.231 94.8399 119.622 93.9354 119.879C93.1845 120.28 92.4685 120.671 91.7176 121.071C90.8914 121.87 89.5907 121.524 89.2153 120.465C84.1823 106.03 80.263 91.0162 76.2441 76.1808C71.9467 76.5348 67.4317 73.8683 66.3725 69.4702C66.264 69.0875 66.1654 68.7395 66.0916 68.347C64.9291 63.4518 67.4626 58.3356 72.4725 56.9149C77.4824 55.4943 82.3245 58.5191 83.9046 63.2958C84.0131 63.6785 84.1117 64.0265 84.255 64.3993C85.6673 68.5846 83.3187 73.1598 79.5991 75.1542L79.7134 75.1594Z" fill="#6A6EC7"/>
<path d="M105.69 81.6647C109.146 94.7804 117.054 124.789 119.256 124.202C120.125 123.955 120.51 125.312 119.64 125.559C118.924 125.95 118.208 126.341 117.492 126.732C116.656 127.495 115.41 127.21 115.059 126.106C110.095 111.915 106.29 97.169 102.36 82.6466C98.1418 83.0157 93.7063 80.3643 92.6767 76.0705C92.578 75.7226 92.4695 75.3399 92.4057 74.9821C91.2628 70.1565 93.7564 65.1644 98.6619 63.7733C103.567 62.3823 108.31 65.3224 109.871 70.0296C109.969 70.3775 110.078 70.7602 110.211 71.0982C111.569 75.2238 109.305 79.6999 105.655 81.6746L105.69 81.6647Z" fill="#6A6EC7"/>
<path d="M112.242 46.5784C115.767 59.9376 123.798 90.5126 126.069 89.9061C126.974 89.6496 127.368 91.0412 126.464 91.2977C125.713 91.6986 124.997 92.0896 124.246 92.4904C123.42 93.2885 122.119 92.9432 121.744 91.8844C116.711 77.4493 112.791 62.4352 108.773 47.5997C104.475 47.9538 99.9602 45.2873 98.901 40.8891C98.7924 40.5064 98.6938 40.1585 98.6201 39.7659C97.4575 34.8708 99.9911 29.7545 105.001 28.3339C110.011 26.9132 114.853 29.938 116.433 34.7148C116.542 35.0975 116.64 35.4454 116.784 35.8182C118.196 40.0035 115.847 44.5787 112.128 46.5732L112.242 46.5784Z" fill="#6A6EC7"/>
<path d="M145.448 69.5641C148.046 79.3896 153.982 101.913 155.627 101.485C156.288 101.297 156.574 102.306 155.913 102.493C155.361 102.8 154.844 103.097 154.282 103.369C153.66 103.959 152.721 103.699 152.46 102.909C148.731 92.2763 145.857 81.2133 142.908 70.2843C139.748 70.5412 136.414 68.5924 135.645 65.3522C135.567 65.0738 135.488 64.7955 135.444 64.5073C134.601 60.8745 136.442 57.1576 140.13 56.1119C143.817 55.0662 147.379 57.2887 148.525 60.7979C148.604 61.0762 148.683 61.3545 148.796 61.623C149.823 64.7147 148.103 68.0593 145.368 69.549L145.448 69.5641Z" fill="#6A6EC7"/>
<path d="M57.838 122.486C66.6707 119.568 86.8713 112.862 87.375 114.373C87.5427 114.965 88.482 114.698 88.3143 114.107C88.2707 113.556 88.2271 113.004 88.1736 112.418C88.2993 111.668 87.6746 111.056 86.8993 111.238C76.8853 113.702 67.0036 117.03 57.152 120.2C55.7911 117.654 52.6003 116.078 49.737 117.115C49.4935 117.184 49.2597 117.288 49.0261 117.392C45.8248 118.563 43.891 121.817 44.9274 125.207C45.9539 128.562 49.4527 130.164 52.7428 129.306C52.9863 129.237 53.2298 129.168 53.5082 129.089C56.3808 128.349 58.1204 125.338 57.8826 122.511L57.838 122.486Z" fill="#6A6EC7"/>
<path d="M181.041 198.133C178.415 189.932 172.362 171.238 173.769 170.764C174.325 170.606 174.079 169.736 173.522 169.894C173.005 169.928 172.489 169.962 171.972 169.995C171.257 169.86 170.714 170.465 170.877 171.17C173.089 180.429 176.071 189.62 178.919 198.735C176.527 199.977 175.066 202.91 175.999 205.54C176.068 205.783 176.128 205.992 176.232 206.226C177.264 209.203 180.295 211.012 183.417 210.09C186.538 209.167 188.034 205.961 187.281 202.905C187.211 202.661 187.152 202.452 187.083 202.209C186.403 199.545 183.649 197.92 181.041 198.133Z" fill="#6A6EC7"/>
<path d="M61.4598 196.898C70.2926 193.979 90.4931 187.274 90.9968 188.785C91.1645 189.376 92.1039 189.11 91.9362 188.519C91.8926 187.967 91.8391 187.381 91.7955 186.829C91.9212 186.08 91.2965 185.467 90.5212 185.65C80.5072 188.113 70.6255 191.442 60.774 194.611C59.413 192.065 56.2221 190.489 53.3588 191.527C53.1153 191.596 52.8718 191.665 52.648 191.803C49.4467 192.974 47.5129 196.229 48.5493 199.619C49.5759 202.974 53.0746 204.575 56.3647 203.718C56.6082 203.648 56.8518 203.579 57.1301 203.5C60.0027 202.761 61.7423 199.749 61.5045 196.922L61.4598 196.898Z" fill="#6A6EC7"/>
<path d="M46.158 148.237C59.4892 143.818 89.964 133.711 90.7194 135.977C91.0107 136.872 92.3925 136.442 92.136 135.538C92.0831 134.688 91.9954 133.849 91.9424 132.999C92.1434 131.852 91.1764 130.961 90.0434 131.207C74.9353 134.927 59.9986 139.915 45.1616 144.723C43.0929 140.875 38.2892 138.516 33.9845 140.037C33.6018 140.145 33.2388 140.324 32.8909 140.422C28.084 142.161 25.1335 147.133 26.6783 152.182C28.2677 157.257 33.5033 159.682 38.4384 158.395C38.8211 158.287 39.2039 158.178 39.5866 158.07C43.9303 156.951 46.5173 152.421 46.1731 148.158L46.158 148.237Z" fill="#6A6EC7"/>
<path d="M72.8283 167.926C85.1952 163.818 113.473 154.446 114.154 156.583C114.426 157.408 115.703 157.009 115.476 156.208C115.408 155.438 115.365 154.624 115.297 153.854C115.483 152.786 114.571 151.955 113.517 152.216C99.4973 155.665 85.6641 160.302 71.8957 164.77C69.9755 161.18 65.5192 158.985 61.5375 160.453C61.1896 160.551 60.8515 160.685 60.5134 160.818C56.0446 162.424 53.3283 167.028 54.7744 171.73C56.2205 176.432 61.0989 178.657 65.6861 177.469C66.034 177.37 66.382 177.272 66.7299 177.173C70.7506 176.108 73.173 171.925 72.8381 167.961L72.8283 167.926Z" fill="#6A6EC7"/>
<path d="M97.4204 198.579C99.2897 200.267 102.226 199.885 104.701 199.334C130.075 193.905 154.913 185.923 178.692 175.534C180.094 174.91 181.556 174.233 182.447 173.003C183.683 171.262 183.494 168.872 183.19 166.74C179.709 141.077 173.739 115.782 165.363 91.281C165.008 90.2918 164.677 89.2579 163.933 88.4915C162.798 87.2722 161.025 86.9856 159.396 86.8085C142.501 85.0214 125.751 90.1094 109.508 95.1289C99.1397 98.3321 88.8161 101.56 78.4479 104.763C77.1606 105.128 75.8584 105.573 74.9128 106.48C72.7381 108.487 73.0937 111.995 73.6591 114.917C78.9002 142.148 86.2432 168.972 95.5299 195.094C95.9546 196.326 96.4339 197.619 97.4355 198.5L97.4204 198.579Z" fill="#6A6EC7"/>
<path opacity="0.42" d="M158.005 97.2764C157.768 96.4414 156.994 96.0972 156.174 96.2545C131.938 101.059 107.797 106.326 83.7483 112.056C82.1282 112.44 82.4766 114.596 83.7873 114.977C83.7473 115.101 83.6974 115.19 83.727 115.294C88.9421 140.578 95.8069 165.583 101.902 190.655C102.05 191.177 102.61 191.431 103.107 191.328C126.375 185.895 149.239 179.036 171.781 171.178C172.303 171.03 172.821 170.47 172.767 169.883C170.502 145.191 165.309 120.916 157.96 97.2515L158.005 97.2764ZM167.755 169.839C156.526 173.85 145.099 177.428 133.677 180.893C127.966 182.625 122.216 184.218 116.456 185.776C110.487 187.394 104.126 191.34 102.11 183.304C96.4477 160.552 91.417 137.509 84.9546 114.984C107.711 109.471 130.561 104.42 153.529 99.786C158.404 98.8171 174.645 167.359 167.755 169.839Z" fill="#F1F1F2"/>
<path d="M119.255 121.947C118.31 120.072 115.571 121.149 115.498 123.012C115.021 138.032 115.14 153.034 116.014 168.047C116.111 169.448 118.172 169.427 118.19 168.031C118.311 162.096 118.467 156.15 118.623 150.204C121.484 149.957 124.366 149.779 127.243 149.452C129.166 153.981 131.044 158.485 133.002 163.004C134.026 165.42 137.927 164.464 137.038 161.86C132.317 148.126 125.846 134.85 119.28 121.902L119.255 121.947ZM118.697 147.552C118.842 142.098 119.032 136.669 119.212 131.206C121.329 135.755 123.307 140.344 125.284 144.932C123.082 145.782 120.89 146.667 118.688 147.517L118.697 147.552Z" fill="#F1F1F2"/>
<path d="M150.133 156.342C147.497 148.105 145.174 139.781 142.503 131.554C141.53 128.522 140.752 122.729 138.429 119.441C140.06 118.302 139.182 115.468 137.14 115.559C136.097 115.591 135.102 116.061 134.103 116.382C132.791 116.792 132.127 118.296 132.86 119.554C133.36 120.389 134.432 120.724 135.337 120.468C135.407 120.448 135.511 120.419 135.581 120.399C139.655 132.249 143.331 144.551 146.188 156.746C143.718 157.446 144.921 161.691 147.59 160.897L149.643 160.314C151.651 159.707 151.502 157.194 150.133 156.342Z" fill="#F1F1F2"/>
</svg>
