<svg width="1920" height="105" viewBox="0 0 1920 105" fill="none" xmlns="http://www.w3.org/2000/svg">
<path d="M393.671 13.8912C317.098 22.8564 69.1293 31.5015 0 34.7034V105H1920V53.9144C1900.95 59.2508 1762.7 71.2044 1724.41 76.3274C1676.55 82.7311 1620.72 89.1348 1558.23 89.1348C1495.75 89.1348 1279.06 57.1162 1200.62 44.3088C1122.19 31.5014 807.118 13.8912 718.047 4.28568C628.977 -5.31986 489.389 2.68475 393.671 13.8912Z" fill="#E1F3F8"/>
<path d="M393.671 13.8912C317.098 22.8564 69.1293 31.5015 0 34.7034V105H1920V53.9144C1900.95 59.2508 1762.7 71.2044 1724.41 76.3274C1676.55 82.7311 1620.72 89.1348 1558.23 89.1348C1495.75 89.1348 1279.06 57.1162 1200.62 44.3088C1122.19 31.5014 807.118 13.8912 718.047 4.28568C628.977 -5.31986 489.389 2.68475 393.671 13.8912Z" fill="#F8F8E1"/>
</svg>
