<svg width="212" height="229" viewBox="0 0 212 229" fill="none" xmlns="http://www.w3.org/2000/svg">
<g clip-path="url(#clip0_148_20219)">
<path d="M12.1958 160.72C12.1958 160.72 40.7287 189.662 117.03 223.81L143.514 177.419L33.5679 118.014C33.5679 118.014 5.83281 149.474 12.1982 160.722L12.1958 160.72Z" fill="#1C8DD9"/>
<path d="M13.2692 156.762C46.0238 184.532 75.9458 200.692 116.613 218.53C119.413 209.036 126.677 197.628 134.74 188.576C107.143 176.243 82.3558 154.208 54.4702 142.549C45.6613 138.865 35.8078 136.068 26.6567 138.788C17.5045 141.504 12.3413 148.59 13.2706 156.759L13.2692 156.762Z" fill="#EAE5DB"/>
<path d="M34.2667 142.401C64.7336 154.896 94.04 170.225 121.681 188.122C124.778 190.126 128.223 192.252 131.877 191.738C136.128 191.137 139.007 187.229 141.359 183.638C159.308 156.255 176.979 126.538 198.8 90.3656C209.117 73.2641 204.735 67.1719 196.486 61.5037C168.28 42.1255 137.827 26.0234 103.182 15.4476C84.5155 15.3886 73.0943 32.8751 64.8858 46.9265C45.3916 80.2888 27.8502 114.791 12.3823 150.199C10.8853 153.624 9.56849 158.063 12.1981 160.723C13.9815 150.524 24.1047 138.235 34.2691 142.403L34.2667 142.401Z" fill="#319FE8"/>
<path d="M42.1576 138.102L42.1529 138.099C41.1618 137.534 40.8232 136.272 41.3913 135.282L105.034 24.4111C105.598 23.4224 106.86 23.0837 107.846 23.6468L107.851 23.6495C108.842 24.2153 109.181 25.4768 108.612 26.4666L44.97 137.338C44.4055 138.327 43.1441 138.665 42.1576 138.102Z" fill="#1C8DD9"/>
</g>
<defs>
<clipPath id="clip0_148_20219">
<rect width="137.91" height="184.791" fill="white" transform="translate(91.6152) rotate(29.721)"/>
</clipPath>
</defs>
</svg>
