<svg width="204" height="242" viewBox="0 0 204 242" fill="none" xmlns="http://www.w3.org/2000/svg">
<g clip-path="url(#clip0_148_20211)">
<path d="M63.0597 232.221C63.0597 232.221 108.999 233.154 197.736 200.623L182.592 142.158L46.6816 180.772C46.6816 180.772 49.0345 228.131 63.0627 232.22L63.0597 232.221Z" fill="#31B098"/>
<path d="M60.8064 228.168C109.242 224.822 146.224 214.308 193.233 196.676C188.013 186.777 184.896 171.808 184.287 158.115C152.206 169.897 114.748 171.602 82.9655 184.156C72.925 188.121 62.7375 193.628 57.4712 203.049C52.2011 212.469 53.6088 222.281 60.8057 228.165L60.8064 228.168Z" fill="#EAE5DB"/>
<path d="M66.485 199.973C101.017 186.06 136.846 175.357 173.351 168.049C177.441 167.23 181.908 166.234 184.462 162.935C187.431 159.096 186.68 153.659 185.752 148.896C178.689 112.557 169.561 74.5493 158.701 28.0386C153.567 6.04883 145.212 4.57122 134.06 6.48722C95.9283 13.0417 58.5612 24.0223 22.1582 42.7854C6.99287 57.4622 11.536 80.6347 15.9718 98.4906C26.4997 140.89 39.5083 182.672 54.9112 223.552C56.3998 227.506 58.8353 232.141 63.0632 232.221C56.4624 222.553 54.9679 204.614 66.488 199.972L66.485 199.973Z" fill="#3AC3A9"/>
<path d="M69.4851 190.266L69.4792 190.268C68.2301 190.592 66.9608 189.837 66.6402 188.587L30.7288 48.5847C30.406 47.3386 31.1606 46.0692 32.4037 45.7472L32.4097 45.7457C33.6588 45.4221 34.9281 46.1767 35.2487 47.4266L71.1601 187.429C71.4829 188.675 70.7283 189.944 69.4851 190.266Z" fill="#31B098"/>
</g>
<defs>
<clipPath id="clip0_148_20211">
<rect width="155.921" height="208.925" fill="white" transform="translate(0.604431 39.3981) rotate(-14.5223)"/>
</clipPath>
</defs>
</svg>
