<svg width="112" height="119" viewBox="0 0 112 119" fill="none" xmlns="http://www.w3.org/2000/svg">
<g clip-path="url(#clip0_148_20203)">
<path d="M7.07265 80.1843C7.07265 80.1843 20.8713 95.8017 58.9824 115.423L73.8415 92.4117L19.2115 58.9163C19.2115 58.9163 4.12967 74.2477 7.07382 80.185L7.07265 80.1843Z" fill="#E67072"/>
<path d="M7.73306 78.1875C23.7261 93.3235 38.594 102.436 58.9164 112.708C60.6163 107.925 64.6547 102.287 69.0369 97.8785C55.2519 90.7912 43.1778 78.8148 29.2266 72.0642C24.8194 69.9315 19.8527 68.2232 15.091 69.3595C10.3289 70.4939 7.48682 73.9775 7.73381 78.1863L7.73306 78.1875Z" fill="#EAE5DB"/>
<path d="M18.8862 71.4226C34.1357 78.6731 48.7117 87.3425 62.363 97.2802C63.8926 98.3933 65.597 99.5781 67.4822 99.4171C69.6755 99.2288 71.2591 97.3081 72.5638 95.5357C82.5211 82.0176 92.4012 67.2974 104.587 49.3876C110.348 40.9203 108.275 37.6783 104.21 34.5451C90.3112 23.8332 75.1697 14.7359 57.7272 8.35068C48.1714 7.79772 41.8338 16.4311 37.2374 23.3958C26.3218 39.9318 16.3741 57.106 7.46265 74.8024C6.60027 76.5137 5.80173 78.7499 7.07366 80.1853C8.27238 75.0133 13.7998 69.0048 18.8873 71.4233L18.8862 71.4226Z" fill="#FF827E"/>
<path d="M23.0469 69.4425L23.0446 69.441C22.5529 69.1235 22.4149 68.4681 22.7335 67.9773L58.4243 12.9921C58.741 12.5016 59.3964 12.3635 59.8857 12.6795L59.888 12.681C60.3797 12.9985 60.5177 13.6538 60.1991 14.1447L24.5083 69.1299C24.1916 69.6204 23.5362 69.7584 23.0469 69.4425Z" fill="#E67072"/>
</g>
<defs>
<clipPath id="clip0_148_20203">
<rect width="70.7173" height="94.757" fill="white" transform="translate(52.2375 0.117512) rotate(32.8518)"/>
</clipPath>
</defs>
</svg>
