<svg width="140" height="79" viewBox="0 0 140 79" fill="none" xmlns="http://www.w3.org/2000/svg">
<path d="M79.3015 60.1823C85.86 60.7874 92.6722 61.3535 98.8793 59.1478C105.086 56.9422 110.552 51.1449 110.103 44.567C109.81 40.1556 106.726 36.0566 102.568 34.5536C98.4108 33.0506 93.4139 34.2413 90.3689 37.4424C91.4034 32.9725 89.4515 27.9756 85.6648 25.3796C81.878 22.7835 76.5102 22.7835 72.7235 25.3601C73.2896 17.5914 69.4443 9.99843 63.5885 4.86487C57.3228 -0.620028 45.826 3.43997 42.3126 7.24622C38.7991 11.0525 36.6129 15.8542 34.4853 20.5778C34.4853 20.5778 27.5756 9.2567 18.2844 15.62C8.99327 22.0028 16.0787 31.86 16.0787 31.86C16.0787 31.86 4.28911 27.6633 2.22008 40.0971C1.49786 44.4303 4.3867 51.4768 8.19295 53.6825C11.9992 55.8881 19.4555 56.5518 23.8083 57.2545C43.6203 60.4947 61.5195 59.7529 81.5657 60.807" fill="#9AC9F0"/>
<path d="M79.3015 62.3878C86.6212 63.0515 94.4289 63.6565 101.3 60.5335C106.531 58.1521 111.157 53.409 112.113 47.5922C113.07 41.7755 110.142 35.9002 104.95 33.2261C99.7576 30.5519 93.043 31.7231 88.8073 35.9002L92.477 38.0278C93.5115 32.7381 91.7157 27.1751 87.3239 23.8959C82.932 20.6167 76.3736 20.4605 71.6109 23.4665L74.9097 25.3598C75.4952 14.5852 67.9608 0.258118 55.937 0.00436786C51.2719 -0.0932283 46.2164 1.44878 42.4687 4.22051C37.5889 7.81205 34.9733 14.1558 32.5725 19.4845H36.3592C32.592 13.3945 25.2137 9.31503 18.3625 13.0042C10.828 17.0642 9.3836 26.1992 14.1853 32.9723L16.6642 29.7517C13.6388 28.6976 9.93013 28.6781 6.98273 29.9078C0.91225 32.4258 -1.05919 39.8431 0.521871 45.7769C1.43927 49.2318 3.29361 52.8039 6.20197 54.99C9.11034 57.1762 13.1508 57.8593 16.6642 58.4254C26.3458 60.026 36.0469 61.2362 45.8455 61.7632C57.7522 62.4268 69.6785 62.4073 81.5657 63.0319C84.3959 63.1686 84.3764 58.7767 81.5657 58.6401C63.4518 57.7032 45.2014 58.2302 27.2047 55.5951C23.5936 55.0681 19.963 54.5996 16.3715 53.936C13.307 53.3699 9.6959 52.8039 7.58782 50.3054C4.17196 46.2844 2.43477 38.223 7.43169 34.6119C9.69592 32.9723 12.9947 33.1285 15.4931 34.0068C17.2304 34.6119 19.0651 32.3282 17.9721 30.7862C14.5757 25.9844 14.9856 19.7773 20.5876 16.8104C25.2722 14.3315 30.1325 17.7473 32.5919 21.7097C33.3922 22.998 35.676 23.2908 36.3787 21.7097C38.4477 17.1422 40.5753 11.6183 44.4597 8.24147C47.1728 5.87964 51.1938 4.61089 54.7267 4.4157C64.9938 3.84964 71.0253 16.4981 70.5568 25.3598C70.4593 26.9994 72.4893 28.112 73.8556 27.2532C80.824 22.8614 89.9199 28.5415 88.2803 36.8567C87.8704 38.9452 90.3103 40.6043 91.9499 38.9842C95.1315 35.8416 100.207 35.0414 103.954 37.696C107.702 40.3506 108.971 45.5622 106.843 49.7589C101.729 59.7917 88.7487 58.8353 79.321 57.9765C76.5102 57.7227 76.5297 62.1145 79.321 62.3683L79.3015 62.3878Z" fill="#9AC9F0"/>
<path d="M53.0089 75.7396C45.8063 76.4032 38.3304 77.0278 31.4987 74.6074C24.667 72.1871 18.6941 65.8043 19.1625 58.5822C19.4749 53.7414 22.8712 49.2325 27.4387 47.5733C32.0062 45.9337 37.4911 47.222 40.8289 50.755C39.6968 45.8556 41.8244 40.3512 45.982 37.5014C50.1396 34.6516 56.0344 34.6321 60.2115 37.4624C59.5869 28.9325 63.4907 20.1879 70.2639 14.9567C72.6843 13.0829 75.4756 11.6384 78.501 11.209C84.1421 10.4282 89.7636 13.3952 93.6284 17.5723C97.4932 21.7494 99.8941 27.0391 102.236 32.2117C106.453 28.7178 109.302 22.9986 116.973 27.2733C124.644 31.548 121.443 43.5328 122.439 44.6064C123.883 46.1679 135.712 43.5719 137.664 53.6633C139.616 63.7548 120.994 68.537 116.212 69.3177C94.4482 72.8702 52.9894 75.72 52.9894 75.72L53.0089 75.7396Z" fill="#E8E8E8"/>
<path d="M53.0091 73.5531C42.5468 74.5095 28.2586 75.505 22.5786 64.3986C20.2558 59.8506 21.3684 54.3852 25.4089 51.184C29.4493 47.9829 35.6174 48.6661 39.2871 52.3162C40.9267 53.9363 43.3665 52.2576 42.9566 50.1886C41.1023 40.8974 51.3109 34.4366 59.1185 39.3944C60.4849 40.2533 62.5149 39.1407 62.4173 37.5011C61.8512 27.722 67.7851 15.542 78.2669 13.512C89.9589 11.2477 96.4784 24.8331 100.343 33.363C100.968 34.7489 102.822 34.6318 103.798 33.812C105.789 32.1138 107.487 29.6739 109.869 28.5222C112.523 27.2144 116.017 28.6589 117.832 30.806C120.897 34.417 119.804 39.3554 120.038 43.6496C120.253 47.5925 123.961 47.3192 126.987 47.6901C131.242 48.2171 136.102 50.4423 135.614 55.6149C135.185 60.0458 129.661 62.7004 126.109 64.1839C122.556 65.6673 118.555 66.7799 114.612 67.4045C102.393 69.3369 90.0175 70.4886 77.7009 71.5816C69.4833 72.3234 61.2462 72.987 53.0091 73.5531C50.1983 73.7483 50.1788 78.1401 53.0091 77.9449C60.9339 77.3984 68.8587 76.7542 76.7639 76.0515C90.1151 74.8804 103.583 73.7483 116.817 71.4645C121.326 70.6837 125.777 69.2393 129.895 67.2484C134.307 65.1208 139.147 61.7049 139.889 56.4738C140.709 50.8522 136.883 45.9139 131.711 44.1962C129.583 43.4935 127.358 43.3373 125.152 43.0836C124.879 43.0445 124.528 42.9665 124.254 42.986C123.708 43.0055 123.805 42.7322 123.786 42.9079C123.727 43.3373 124.547 43.6106 124.41 43.6691C124.547 43.5911 124.196 44.3718 124.41 43.6106C124.508 43.2788 124.41 42.7517 124.41 42.4004C124.527 36.369 124.332 29.5958 118.808 25.8481C115.763 23.7791 111.82 22.8226 108.346 24.3451C105.262 25.7115 103.173 28.5222 100.655 30.6694L104.11 31.1183C99.2891 20.4608 91.0911 6.3484 77.0763 9.23724C64.7987 11.7747 57.3228 25.731 58.006 37.462L61.3047 35.5687C56.1712 32.309 49.2614 32.3285 44.323 35.9981C39.3846 39.6677 37.5693 45.6015 38.7015 51.3207L42.3711 49.1931C37.8621 44.7037 30.7962 43.2983 25.038 46.2067C19.2798 49.115 16.0006 55.8491 17.2108 62.2319C18.421 68.6147 23.5936 73.6116 29.3127 76.0711C36.7691 79.2917 45.1038 78.6281 52.97 77.9059C55.7612 77.6521 55.7808 73.2603 52.97 73.514L53.0091 73.5531Z" fill="white"/>
</svg>
