<svg width="462" height="136" viewBox="0 0 462 136" fill="none" xmlns="http://www.w3.org/2000/svg">
<path d="M6.53399 15.3871L454.442 17.7158L450.416 119.218L5.33186 117.426L6.53399 15.3871Z" fill="#000543"/>
<g filter="url(#filter0_d_146_2927)">
<rect x="10.9075" y="19.5444" width="446.597" height="91.708" fill="#3AC3A9"/>
</g>
<path d="M53.9926 76.8866C50.2673 76.8866 47.3486 76.036 45.2366 74.3346C43.1246 72.6333 42.0686 70.2426 42.0686 67.1626V49.7386C42.0686 48.8586 42.3473 48.1693 42.9046 47.6706C43.462 47.172 44.21 46.9226 45.1486 46.9226C46.0286 46.9226 46.718 47.172 47.2166 47.6706C47.7446 48.1693 48.0086 48.8586 48.0086 49.7386V66.9426C48.0086 68.5266 48.478 69.7 49.4166 70.4626C50.3846 71.2253 51.8366 71.6066 53.7726 71.6066C55.0046 71.6066 56.134 71.5333 57.1606 71.3866C58.2166 71.2106 59.4193 70.932 60.7686 70.5506C61.0913 70.4626 61.3993 70.4186 61.6926 70.4186C62.3966 70.4186 62.9833 70.668 63.4526 71.1666C63.922 71.636 64.1566 72.2666 64.1566 73.0586C64.1566 73.704 63.9513 74.2613 63.5406 74.7306C63.1593 75.2 62.6166 75.5373 61.9126 75.7426C60.446 76.1826 59.1113 76.4906 57.9086 76.6666C56.7353 76.8133 55.43 76.8866 53.9926 76.8866ZM67.2366 47.3186C67.2366 46.4973 67.5006 45.852 68.0286 45.3826C68.5566 44.9133 69.246 44.6786 70.0966 44.6786H70.3166C71.1673 44.6786 71.8566 44.9133 72.3846 45.3826C72.9126 45.852 73.1766 46.4973 73.1766 47.3186V58.5386H76.4766C77.3273 58.5386 77.9873 58.7733 78.4566 59.2426C78.9553 59.712 79.2046 60.3573 79.2046 61.1786C79.2046 62 78.9553 62.6453 78.4566 63.1146C77.9873 63.584 77.3273 63.8186 76.4766 63.8186H73.1766V84.1906C73.1766 85.012 72.9126 85.6573 72.3846 86.1266C71.8566 86.596 71.1673 86.8306 70.3166 86.8306H70.0966C69.246 86.8306 68.5566 86.596 68.0286 86.1266C67.5006 85.6573 67.2366 85.012 67.2366 84.1906V47.3186ZM88.4749 66.6786C86.3922 66.6786 84.7936 66.1506 83.6789 65.0946C82.5936 64.0093 82.0509 62.44 82.0509 60.3866V49.6946C82.0509 48.5506 82.3442 47.6853 82.9309 47.0986C83.5469 46.4826 84.4269 46.1746 85.5709 46.1746H98.9909C100.135 46.1746 101 46.4826 101.587 47.0986C102.203 47.6853 102.511 48.5506 102.511 49.6946V60.3866C102.511 62.4986 102.012 64.0826 101.015 65.1386C100.047 66.1653 98.5509 66.6786 96.5269 66.6786H88.4749ZM87.4629 74.0266C87.4629 73.2053 87.7269 72.56 88.2549 72.0906C88.7829 71.6213 89.4722 71.3866 90.3229 71.3866H90.5429C91.3936 71.3866 92.0829 71.6213 92.6109 72.0906C93.1389 72.56 93.4029 73.2053 93.4029 74.0266V75.6106C93.4029 77.6053 94.0629 79.1013 95.3829 80.0986C96.7029 81.0666 98.7416 81.5506 101.499 81.5506C102.966 81.5506 104.33 81.448 105.591 81.2426C106.882 81.008 108.231 80.656 109.639 80.1866C110.138 80.0106 110.578 79.9226 110.959 79.9226C111.692 79.9226 112.294 80.172 112.763 80.6706C113.262 81.14 113.511 81.8 113.511 82.6506C113.511 83.824 112.748 84.6893 111.223 85.2466C108.378 86.3026 104.858 86.8306 100.663 86.8306C96.4389 86.8306 93.1829 85.848 90.8949 83.8826C88.6069 81.888 87.4629 79.1893 87.4629 75.7866V74.0266ZM87.7709 59.6826C87.7709 60.2693 87.9029 60.7093 88.1669 61.0026C88.4602 61.2666 88.9002 61.3986 89.4869 61.3986H95.0749C95.6616 61.3986 96.0869 61.2666 96.3509 61.0026C96.6442 60.7093 96.7909 60.2693 96.7909 59.6826V52.1146C96.7909 51.9386 96.7176 51.792 96.5709 51.6746C96.4536 51.528 96.3069 51.4546 96.1309 51.4546H88.4309C88.2549 51.4546 88.0936 51.528 87.9469 51.6746C87.8296 51.792 87.7709 51.9386 87.7709 52.1146V59.6826ZM107.175 47.3186C107.175 46.4973 107.439 45.852 107.967 45.3826C108.495 44.9133 109.184 44.6786 110.035 44.6786H110.255C111.106 44.6786 111.795 44.9133 112.323 45.3826C112.851 45.852 113.115 46.4973 113.115 47.3186V53.6986H116.503C117.354 53.6986 118.014 53.9333 118.483 54.4026C118.982 54.872 119.231 55.5173 119.231 56.3386C119.231 57.16 118.982 57.8053 118.483 58.2746C118.014 58.744 117.354 58.9786 116.503 58.9786H113.115V70.8146C113.115 71.636 112.851 72.2813 112.323 72.7506C111.795 73.22 111.106 73.4546 110.255 73.4546H110.035C109.184 73.4546 108.495 73.22 107.967 72.7506C107.439 72.2813 107.175 71.636 107.175 70.8146V47.3186ZM132.593 67.5586C130.422 67.5586 128.486 67.104 126.785 66.1946C125.084 65.256 123.749 63.9653 122.781 62.3226C121.842 60.68 121.373 58.8026 121.373 56.6906C121.373 54.5493 121.857 52.6426 122.825 50.9706C123.822 49.2986 125.172 48.008 126.873 47.0986C128.604 46.16 130.51 45.6906 132.593 45.6906C134.734 45.6906 136.656 46.1746 138.357 47.1426C140.058 48.0813 141.393 49.3866 142.361 51.0586C143.358 52.7306 143.857 54.608 143.857 56.6906C143.857 58.8026 143.373 60.68 142.405 62.3226C141.437 63.9653 140.102 65.256 138.401 66.1946C136.7 67.104 134.764 67.5586 132.593 67.5586ZM119.877 76.7546C119.877 75.9333 120.126 75.2733 120.625 74.7746C121.124 74.276 121.784 74.0266 122.605 74.0266H129.953C132.3 74.0266 134.793 73.924 137.433 73.7186C140.073 73.484 142.258 73.1613 143.989 72.7506C144.341 72.6626 144.664 72.6186 144.957 72.6186C145.72 72.6186 146.321 72.8533 146.761 73.3226C147.23 73.792 147.465 74.4226 147.465 75.2146C147.465 75.86 147.274 76.4173 146.893 76.8866C146.541 77.3266 146.042 77.6346 145.397 77.8106C143.461 78.3093 141.085 78.6906 138.269 78.9546C135.482 79.1893 132.725 79.3066 129.997 79.3066H122.649C121.798 79.3066 121.124 79.0866 120.625 78.6466C120.156 78.2066 119.906 77.576 119.877 76.7546ZM127.049 56.6466C127.049 58.26 127.577 59.6093 128.633 60.6946C129.689 61.7506 131.038 62.2786 132.681 62.2786C134.265 62.2786 135.57 61.7506 136.597 60.6946C137.624 59.6093 138.137 58.26 138.137 56.6466C138.137 54.9746 137.624 53.6106 136.597 52.5546C135.6 51.4986 134.294 50.9706 132.681 50.9706C131.009 50.9706 129.645 51.4986 128.589 52.5546C127.562 53.6106 127.049 54.9746 127.049 56.6466ZM149.489 47.3186C149.489 46.4973 149.753 45.852 150.281 45.3826C150.809 44.9133 151.498 44.6786 152.349 44.6786H152.569C153.42 44.6786 154.109 44.9133 154.637 45.3826C155.165 45.852 155.429 46.4973 155.429 47.3186V84.1906C155.429 85.012 155.165 85.6573 154.637 86.1266C154.109 86.596 153.42 86.8306 152.569 86.8306H152.349C151.498 86.8306 150.809 86.596 150.281 86.1266C149.753 85.6573 149.489 85.012 149.489 84.1906V47.3186ZM188.646 87.1826C187.766 87.1826 187.062 86.9333 186.534 86.4346C186.006 85.936 185.742 85.2466 185.742 84.3666V75.3466H172.454C171.574 75.3466 170.87 75.112 170.342 74.6426C169.843 74.144 169.594 73.4986 169.594 72.7066C169.594 71.9146 169.843 71.284 170.342 70.8146C170.87 70.316 171.574 70.0666 172.454 70.0666H205.014C205.894 70.0666 206.583 70.316 207.082 70.8146C207.61 71.284 207.874 71.9146 207.874 72.7066C207.874 73.4986 207.61 74.144 207.082 74.6426C206.583 75.112 205.894 75.3466 205.014 75.3466H191.682V84.3666C191.682 85.2466 191.418 85.936 190.89 86.4346C190.391 86.9333 189.702 87.1826 188.822 87.1826H188.646ZM174.698 63.6866C174.698 63.2173 174.83 62.7773 175.094 62.3666C175.358 61.956 175.724 61.604 176.194 61.3106C179.068 59.6386 181.444 57.7466 183.322 55.6346C185.199 53.4933 186.138 51.4106 186.138 49.3866V48.3306C186.138 47.5973 186.416 46.9813 186.974 46.4826C187.531 45.9546 188.25 45.6906 189.13 45.6906C189.98 45.6906 190.684 45.9546 191.242 46.4826C191.799 46.9813 192.078 47.5973 192.078 48.3306V49.3866C192.078 50.7653 191.814 52.144 191.286 53.5226C195.422 56.0453 198.942 58.656 201.846 61.3546C202.55 62 202.902 62.7773 202.902 63.6866C202.902 64.42 202.667 65.0653 202.198 65.6226C201.934 65.9453 201.611 66.1946 201.23 66.3706C200.848 66.5466 200.438 66.6346 199.998 66.6346C199.294 66.6346 198.663 66.3853 198.106 65.8866C195.642 63.6573 192.371 61.2373 188.294 58.6266C187.091 60.1226 185.698 61.516 184.114 62.8066C182.559 64.0973 180.975 65.1386 179.362 65.9306C178.658 66.2533 178.027 66.4146 177.47 66.4146C176.472 66.4146 175.724 66.0333 175.226 65.2706C174.874 64.7426 174.698 64.2146 174.698 63.6866ZM241.652 67.0746C240.801 67.0746 240.112 66.84 239.584 66.3706C239.056 65.9013 238.792 65.256 238.792 64.4346V58.0986H233.512C233.043 60.68 231.796 62.748 229.772 64.3026C227.748 65.8573 225.313 66.6346 222.468 66.6346C220.268 66.6346 218.317 66.1946 216.616 65.3146C214.915 64.4053 213.58 63.144 212.612 61.5306C211.673 59.9173 211.204 58.0986 211.204 56.0746C211.204 54.08 211.673 52.276 212.612 50.6626C213.58 49.0493 214.915 47.788 216.616 46.8786C218.317 45.9693 220.268 45.5146 222.468 45.5146C225.02 45.5146 227.279 46.1746 229.244 47.4946C231.209 48.8146 232.529 50.5893 233.204 52.8186H238.792V47.3186C238.792 46.4973 239.056 45.852 239.584 45.3826C240.112 44.9133 240.801 44.6786 241.652 44.6786H241.872C242.723 44.6786 243.412 44.9133 243.94 45.3826C244.468 45.852 244.732 46.4973 244.732 47.3186V64.4346C244.732 65.256 244.468 65.9013 243.94 66.3706C243.412 66.84 242.723 67.0746 241.872 67.0746H241.652ZM216.924 56.0746C216.924 57.6586 217.423 58.9346 218.42 59.9026C219.447 60.8706 220.796 61.3546 222.468 61.3546C224.081 61.3546 225.401 60.8706 226.428 59.9026C227.455 58.9346 227.968 57.6586 227.968 56.0746C227.968 54.4906 227.455 53.2146 226.428 52.2466C225.401 51.2786 224.081 50.7946 222.468 50.7946C220.855 50.7946 219.52 51.2786 218.464 52.2466C217.437 53.2146 216.924 54.4906 216.924 56.0746ZM217.892 71.3866C217.892 70.5066 218.141 69.8173 218.64 69.3186C219.168 68.82 219.857 68.5706 220.708 68.5706C221.647 68.5706 222.365 68.82 222.864 69.3186C223.363 69.8173 223.612 70.5066 223.612 71.3866V73.1026H238.924V71.3866C238.924 70.5066 239.173 69.8173 239.672 69.3186C240.2 68.82 240.889 68.5706 241.74 68.5706C242.679 68.5706 243.397 68.82 243.896 69.3186C244.395 69.8173 244.644 70.5066 244.644 71.3866V80.3626C244.644 82.416 244.116 84 243.06 85.1146C242.004 86.2586 240.508 86.8306 238.572 86.8306H224.404C222.38 86.8306 220.781 86.2586 219.608 85.1146C218.464 83.9706 217.892 82.3866 217.892 80.3626V71.3866ZM223.612 80.1866C223.612 81.096 224.096 81.5506 225.064 81.5506H237.472C238.44 81.5506 238.924 81.096 238.924 80.1866V78.1626H223.612V80.1866ZM262.494 67.2066C260.294 67.2066 258.344 66.752 256.642 65.8426C254.941 64.904 253.606 63.6133 252.638 61.9706C251.7 60.2986 251.23 58.436 251.23 56.3826C251.23 54.3293 251.7 52.4813 252.638 50.8386C253.606 49.1666 254.941 47.8613 256.642 46.9226C258.344 45.984 260.294 45.5146 262.494 45.5146C264.665 45.5146 266.601 45.984 268.302 46.9226C270.004 47.8613 271.324 49.1666 272.262 50.8386C273.23 52.4813 273.714 54.3293 273.714 56.3826C273.714 58.436 273.23 60.284 272.262 61.9266C271.324 63.5693 270.004 64.86 268.302 65.7986C266.601 66.7373 264.665 67.2066 262.494 67.2066ZM256.95 56.3826C256.95 58.0546 257.464 59.404 258.49 60.4306C259.546 61.428 260.881 61.9266 262.494 61.9266C264.078 61.9266 265.384 61.428 266.41 60.4306C267.466 59.404 267.994 58.0546 267.994 56.3826C267.994 54.74 267.466 53.4053 266.41 52.3786C265.384 51.3226 264.078 50.7946 262.494 50.7946C260.881 50.7946 259.546 51.3226 258.49 52.3786C257.464 53.4053 256.95 54.74 256.95 56.3826ZM257.258 74.0266C257.258 73.2053 257.522 72.56 258.05 72.0906C258.578 71.6213 259.268 71.3866 260.118 71.3866H260.338C261.189 71.3866 261.878 71.6213 262.406 72.0906C262.934 72.56 263.198 73.2053 263.198 74.0266V75.6106C263.198 77.6053 263.858 79.1013 265.178 80.0986C266.498 81.0666 268.537 81.5506 271.294 81.5506C272.761 81.5506 274.125 81.448 275.386 81.2426C276.677 81.008 278.026 80.656 279.434 80.1866C279.933 80.0106 280.373 79.9226 280.754 79.9226C281.488 79.9226 282.089 80.172 282.558 80.6706C283.057 81.14 283.306 81.8 283.306 82.6506C283.306 83.824 282.544 84.6893 281.018 85.2466C278.173 86.3026 274.653 86.8306 270.458 86.8306C266.117 86.8306 262.832 85.8773 260.602 83.9706C258.373 82.064 257.258 79.336 257.258 75.7866V74.0266ZM276.97 47.3186C276.97 46.4973 277.234 45.852 277.762 45.3826C278.29 44.9133 278.98 44.6786 279.83 44.6786H280.05C280.901 44.6786 281.59 44.9133 282.118 45.3826C282.646 45.852 282.91 46.4973 282.91 47.3186V53.6986H286.298C287.149 53.6986 287.809 53.9333 288.278 54.4026C288.777 54.872 289.026 55.5173 289.026 56.3386C289.026 57.16 288.777 57.8053 288.278 58.2746C287.809 58.744 287.149 58.9786 286.298 58.9786H282.91V70.8146C282.91 71.636 282.646 72.2813 282.118 72.7506C281.59 73.22 280.901 73.4546 280.05 73.4546H279.83C278.98 73.4546 278.29 73.22 277.762 72.7506C277.234 72.2813 276.97 71.636 276.97 70.8146V47.3186Z" fill="#000543"/>
<path d="M307.987 66.6786C305.904 66.6786 304.305 66.1506 303.191 65.0946C302.105 64.0093 301.563 62.44 301.563 60.3866V49.6946C301.563 48.5506 301.856 47.6853 302.443 47.0986C303.059 46.4826 303.939 46.1746 305.083 46.1746H318.503C319.647 46.1746 320.512 46.4826 321.099 47.0986C321.715 47.6853 322.023 48.5506 322.023 49.6946V60.3866C322.023 62.4986 321.524 64.0826 320.527 65.1386C319.559 66.1653 318.063 66.6786 316.039 66.6786H307.987ZM306.975 74.0266C306.975 73.2053 307.239 72.56 307.767 72.0906C308.295 71.6213 308.984 71.3866 309.835 71.3866H310.055C310.905 71.3866 311.595 71.6213 312.123 72.0906C312.651 72.56 312.915 73.2053 312.915 74.0266V75.6106C312.915 77.6053 313.575 79.1013 314.895 80.0986C316.215 81.0666 318.253 81.5506 321.011 81.5506C322.477 81.5506 323.841 81.448 325.103 81.2426C326.393 81.008 327.743 80.656 329.151 80.1866C329.649 80.0106 330.089 79.9226 330.471 79.9226C331.204 79.9226 331.805 80.172 332.275 80.6706C332.773 81.14 333.023 81.8 333.023 82.6506C333.023 83.824 332.26 84.6893 330.735 85.2466C327.889 86.3026 324.369 86.8306 320.175 86.8306C315.951 86.8306 312.695 85.848 310.407 83.8826C308.119 81.888 306.975 79.1893 306.975 75.7866V74.0266ZM307.283 59.6826C307.283 60.2693 307.415 60.7093 307.679 61.0026C307.972 61.2666 308.412 61.3986 308.999 61.3986H314.587C315.173 61.3986 315.599 61.2666 315.863 61.0026C316.156 60.7093 316.303 60.2693 316.303 59.6826V52.1146C316.303 51.9386 316.229 51.792 316.083 51.6746C315.965 51.528 315.819 51.4546 315.643 51.4546H307.943C307.767 51.4546 307.605 51.528 307.459 51.6746C307.341 51.792 307.283 51.9386 307.283 52.1146V59.6826ZM326.687 47.3186C326.687 46.4973 326.951 45.852 327.479 45.3826C328.007 44.9133 328.696 44.6786 329.547 44.6786H329.767C330.617 44.6786 331.307 44.9133 331.835 45.3826C332.363 45.852 332.627 46.4973 332.627 47.3186V53.6986H336.015C336.865 53.6986 337.525 53.9333 337.995 54.4026C338.493 54.872 338.743 55.5173 338.743 56.3386C338.743 57.16 338.493 57.8053 337.995 58.2746C337.525 58.744 336.865 58.9786 336.015 58.9786H332.627V70.8146C332.627 71.636 332.363 72.2813 331.835 72.7506C331.307 73.22 330.617 73.4546 329.767 73.4546H329.547C328.696 73.4546 328.007 73.22 327.479 72.7506C326.951 72.2813 326.687 71.636 326.687 70.8146V47.3186ZM359.365 87.7106C354.701 87.7106 351.225 87.2413 348.937 86.3026C346.708 85.3933 345.593 83.7506 345.593 81.3746V79.3066C345.593 78.2506 345.916 77.4293 346.561 76.8426C347.236 76.256 348.116 75.9626 349.201 75.9626H365.217C365.54 75.9626 365.701 75.772 365.701 75.3906V74.6426C365.701 74.32 365.54 74.1586 365.217 74.1586H348.145C347.294 74.1586 346.62 73.9533 346.121 73.5426C345.652 73.1026 345.417 72.4866 345.417 71.6946C345.417 70.9026 345.652 70.3013 346.121 69.8906C346.62 69.4506 347.294 69.2306 348.145 69.2306H367.725C368.869 69.2306 369.749 69.568 370.365 70.2426C371.01 70.888 371.333 71.7826 371.333 72.9266V77.2386C371.333 78.2946 371.054 79.116 370.497 79.7026C369.94 80.26 369.133 80.5386 368.077 80.5386H351.621C351.357 80.5386 351.225 80.6853 351.225 80.9786V81.3306C351.225 81.8 351.548 82.152 352.193 82.3866C352.838 82.592 353.63 82.7093 354.569 82.7386C355.537 82.768 357.062 82.7826 359.145 82.7826C360.758 82.7826 362.43 82.6946 364.161 82.5186C365.892 82.3426 367.432 82.0933 368.781 81.7706C369.074 81.712 369.368 81.6826 369.661 81.6826C370.248 81.6826 370.746 81.8586 371.157 82.2106C371.568 82.5626 371.846 83.0613 371.993 83.7066C372.022 83.7946 372.037 83.9413 372.037 84.1466C372.037 85.3493 371.274 86.1413 369.749 86.5226C368.312 86.8746 366.61 87.1533 364.645 87.3586C362.709 87.5933 360.949 87.7106 359.365 87.7106ZM339.389 64.1266C339.389 63.3346 339.638 62.704 340.137 62.2346C340.636 61.7653 341.34 61.5306 342.249 61.5306H374.809C375.718 61.5306 376.422 61.7653 376.921 62.2346C377.42 62.704 377.669 63.3346 377.669 64.1266C377.669 64.9186 377.405 65.564 376.877 66.0626C376.378 66.5613 375.689 66.8106 374.809 66.8106H342.249C341.369 66.8106 340.665 66.5613 340.137 66.0626C339.638 65.564 339.389 64.9186 339.389 64.1266ZM345.681 49.4306C345.681 48.3453 346.018 47.4653 346.693 46.7906C347.368 46.0866 348.233 45.7346 349.289 45.7346H368.693C369.544 45.7346 370.204 45.9693 370.673 46.4386C371.172 46.908 371.421 47.5533 371.421 48.3746C371.421 49.2253 371.186 49.8706 370.717 50.3106C370.248 50.7213 369.573 50.9266 368.693 50.9266H352.193C352.017 50.9266 351.87 50.9853 351.753 51.1026C351.665 51.1906 351.621 51.308 351.621 51.4546V52.0706C351.621 52.7746 351.9 53.288 352.457 53.6106C353.014 53.9333 353.806 54.1533 354.833 54.2706C355.889 54.3586 357.4 54.4026 359.365 54.4026C360.92 54.4026 362.518 54.3293 364.161 54.1826C365.804 54.0066 367.285 53.772 368.605 53.4786L369.441 53.3906C370.086 53.3906 370.6 53.5666 370.981 53.9186C371.392 54.2413 371.656 54.74 371.773 55.4146C371.802 55.5026 371.817 55.6933 371.817 55.9866C371.817 56.632 371.612 57.1893 371.201 57.6586C370.82 58.0986 370.277 58.392 369.573 58.5386C368.165 58.8613 366.552 59.1253 364.733 59.3306C362.944 59.5066 361.154 59.5946 359.365 59.5946C356.05 59.5946 353.396 59.3746 351.401 58.9346C349.436 58.4946 347.984 57.7466 347.045 56.6906C346.136 55.6346 345.681 54.1826 345.681 52.3346V49.4306ZM383.683 77.4586C382.745 77.4586 381.967 77.0626 381.351 76.2706C380.97 75.772 380.779 75.2146 380.779 74.5986C380.779 74.1293 380.911 73.6746 381.175 73.2346C381.439 72.7946 381.821 72.4426 382.319 72.1786C385.018 70.6826 387.453 68.8493 389.623 66.6786C391.794 64.4786 393.481 62.2346 394.683 59.9466C395.915 57.6586 396.531 55.6346 396.531 53.8746V53.3466C396.531 52.7306 396.297 52.408 395.827 52.3786H384.563C383.713 52.3786 383.038 52.144 382.539 51.6746C382.07 51.2053 381.835 50.56 381.835 49.7386C381.835 48.9173 382.07 48.272 382.539 47.8026C383.038 47.3333 383.713 47.0986 384.563 47.0986H398.775C399.831 47.0986 400.697 47.4506 401.371 48.1546C402.046 48.8293 402.383 49.724 402.383 50.8386V51.9826C402.383 55.8546 401.445 59.4773 399.567 62.8506C397.807 66.1066 395.607 68.9813 392.967 71.4746C390.327 73.968 387.717 75.8453 385.135 77.1066C384.578 77.3413 384.094 77.4586 383.683 77.4586ZM408.631 47.3186C408.631 46.4973 408.895 45.852 409.423 45.3826C409.951 44.9133 410.641 44.6786 411.491 44.6786H411.711C412.562 44.6786 413.251 44.9133 413.779 45.3826C414.307 45.852 414.571 46.4973 414.571 47.3186V84.1906C414.571 85.012 414.307 85.6573 413.779 86.1266C413.251 86.596 412.562 86.8306 411.711 86.8306H411.491C410.641 86.8306 409.951 86.596 409.423 86.1266C408.895 85.6573 408.631 85.012 408.631 84.1906V47.3186Z" fill="white"/>
<defs>
<filter id="filter0_d_146_2927" x="10.9075" y="19.5444" width="450.597" height="95.708" filterUnits="userSpaceOnUse" color-interpolation-filters="sRGB">
<feFlood flood-opacity="0" result="BackgroundImageFix"/>
<feColorMatrix in="SourceAlpha" type="matrix" values="0 0 0 0 0 0 0 0 0 0 0 0 0 0 0 0 0 0 127 0" result="hardAlpha"/>
<feOffset dx="4" dy="4"/>
<feComposite in2="hardAlpha" operator="out"/>
<feColorMatrix type="matrix" values="0 0 0 0 1 0 0 0 0 1 0 0 0 0 1 0 0 0 1 0"/>
<feBlend mode="normal" in2="BackgroundImageFix" result="effect1_dropShadow_146_2927"/>
<feBlend mode="normal" in="SourceGraphic" in2="effect1_dropShadow_146_2927" result="shape"/>
</filter>
</defs>
</svg>
