<svg width="462" height="136" viewBox="0 0 462 136" fill="none" xmlns="http://www.w3.org/2000/svg">
<path d="M6.53408 15.3871L454.443 17.7158L450.416 119.218L5.33195 117.426L6.53408 15.3871Z" fill="#000543"/>
<g filter="url(#filter0_d_142_2652)">
<rect x="10.9077" y="19.5444" width="446.597" height="91.708" fill="#FF887D"/>
</g>
<path d="M60.3729 86.8306C55.9142 86.8306 52.4236 85.9213 49.9009 84.1026C47.4076 82.3133 46.1609 79.8053 46.1609 76.5786V76.1386C46.1609 75.2586 46.4102 74.5693 46.9089 74.0706C47.4369 73.572 48.1262 73.3226 48.9769 73.3226H49.1529C50.0036 73.3226 50.6636 73.572 51.1329 74.0706C51.6316 74.5693 51.8809 75.2586 51.8809 76.1386V76.4026C51.8809 79.7466 54.7116 81.4186 60.3729 81.4186C64.5676 81.4186 68.3956 80.8026 71.8569 79.5706C72.1209 79.4533 72.4582 79.3946 72.8689 79.3946C73.4556 79.3946 73.9689 79.5706 74.4089 79.9226C74.8489 80.2453 75.1569 80.7146 75.3329 81.3306C75.4209 81.624 75.4649 81.9173 75.4649 82.2106C75.4649 83.3546 74.8049 84.1906 73.4849 84.7186C71.4902 85.452 69.4809 85.98 67.4569 86.3026C65.4622 86.6546 63.1009 86.8306 60.3729 86.8306ZM39.8249 66.8986C39.8249 66.0773 40.0596 65.432 40.5289 64.9626C41.0276 64.4933 41.7022 64.2586 42.5529 64.2586H51.2209C56.4129 64.2586 60.5636 63.9506 63.6729 63.3346C63.9662 63.276 64.2742 63.2466 64.5969 63.2466C65.3889 63.2466 66.0049 63.4813 66.4449 63.9506C66.9142 64.42 67.1489 65.0506 67.1489 65.8426C67.1489 66.4586 66.9436 67.016 66.5329 67.5146C66.1516 67.984 65.6529 68.292 65.0369 68.4386C62.6316 68.9666 59.8596 69.2893 56.7209 69.4066V72.0466C56.7209 72.9266 56.4716 73.616 55.9729 74.1146C55.5036 74.584 54.8436 74.8186 53.9929 74.8186H53.8169C52.9369 74.8186 52.2476 74.584 51.7489 74.1146C51.2502 73.616 51.0009 72.9266 51.0009 72.0466V69.5386H42.5969C41.7462 69.5386 41.0716 69.304 40.5729 68.8346C40.1036 68.3653 39.8542 67.72 39.8249 66.8986ZM42.6849 53.3026C42.6849 50.692 43.6236 48.6093 45.5009 47.0546C47.3782 45.4706 49.9156 44.6786 53.1129 44.6786C55.1956 44.6786 57.0142 45.0453 58.5689 45.7786C60.1529 46.4826 61.3702 47.4946 62.2209 48.8146C63.0716 50.1053 63.4969 51.6013 63.4969 53.3026C63.4969 55.9133 62.5582 57.996 60.6809 59.5506C58.8036 61.1053 56.2809 61.8826 53.1129 61.8826C49.8862 61.8826 47.3342 61.12 45.4569 59.5946C43.6089 58.04 42.6849 55.9426 42.6849 53.3026ZM48.4049 53.3026C48.4049 54.3586 48.8009 55.1946 49.5929 55.8106C50.4142 56.4266 51.5876 56.7346 53.1129 56.7346C54.6089 56.7346 55.7529 56.4266 56.5449 55.8106C57.3662 55.1946 57.7769 54.3586 57.7769 53.3026C57.7769 52.2466 57.3662 51.4106 56.5449 50.7946C55.7529 50.1493 54.6089 49.8266 53.1129 49.8266C51.6169 49.8266 50.4582 50.1493 49.6369 50.7946C48.8156 51.4106 48.4049 52.2466 48.4049 53.3026ZM64.5969 54.2266C64.5969 53.464 64.7729 52.8333 65.1249 52.3346C65.5062 51.836 66.0196 51.5866 66.6649 51.5866H69.3489V47.4946C69.3489 46.6146 69.5982 45.9253 70.0969 45.4266C70.6249 44.928 71.3289 44.6786 72.2089 44.6786H72.3849C73.2649 44.6786 73.9689 44.928 74.4969 45.4266C75.0249 45.9253 75.2889 46.6146 75.2889 47.4946V72.9266C75.2889 73.8066 75.0249 74.496 74.4969 74.9946C73.9689 75.4933 73.2649 75.7426 72.3849 75.7426H72.2089C71.3289 75.7426 70.6249 75.4933 70.0969 74.9946C69.5982 74.496 69.3489 73.8066 69.3489 72.9266V56.8666H66.6649C66.0196 56.8666 65.5062 56.6173 65.1249 56.1186C64.7729 55.62 64.5969 54.9893 64.5969 54.2266ZM99.8272 87.7106C95.1632 87.7106 91.6872 87.2413 89.3992 86.3026C87.1698 85.3933 86.0552 83.7506 86.0552 81.3746V79.2186C86.0552 78.1626 86.3778 77.3413 87.0232 76.7546C87.6978 76.168 88.5778 75.8746 89.6632 75.8746H105.679C106.002 75.8746 106.163 75.684 106.163 75.3026V74.6426C106.163 74.32 106.002 74.1586 105.679 74.1586H88.6072C87.7565 74.1586 87.0818 73.9533 86.5832 73.5426C86.1138 73.1026 85.8792 72.4866 85.8792 71.6946C85.8792 70.9026 86.1138 70.3013 86.5832 69.8906C87.0818 69.4506 87.7565 69.2306 88.6072 69.2306H108.187C109.331 69.2306 110.211 69.568 110.827 70.2426C111.472 70.888 111.795 71.7826 111.795 72.9266V77.3266C111.795 78.3826 111.516 79.204 110.959 79.7906C110.402 80.348 109.595 80.6266 108.539 80.6266H92.0832C91.8192 80.6266 91.6872 80.7733 91.6872 81.0666V81.4186C91.6872 82.0346 92.2885 82.416 93.4912 82.5626C94.6938 82.7093 96.7325 82.7826 99.6072 82.7826C101.22 82.7826 102.892 82.6946 104.623 82.5186C106.354 82.3426 107.894 82.0933 109.243 81.7706C109.536 81.712 109.83 81.6826 110.123 81.6826C110.71 81.6826 111.208 81.8586 111.619 82.2106C112.03 82.5626 112.308 83.0613 112.455 83.7066C112.484 83.7946 112.499 83.9413 112.499 84.1466C112.499 85.3493 111.736 86.1413 110.211 86.5226C108.774 86.8746 107.072 87.1533 105.107 87.3586C103.171 87.5933 101.411 87.7106 99.8272 87.7106ZM79.8512 64.1266C79.8512 63.3346 80.1005 62.704 80.5992 62.2346C81.0978 61.7653 81.8018 61.5306 82.7112 61.5306H115.271C116.18 61.5306 116.884 61.7653 117.383 62.2346C117.882 62.704 118.131 63.3346 118.131 64.1266C118.131 64.9186 117.867 65.564 117.339 66.0626C116.84 66.5613 116.151 66.8106 115.271 66.8106H82.7112C81.8312 66.8106 81.1272 66.5613 80.5992 66.0626C80.1005 65.564 79.8512 64.9186 79.8512 64.1266ZM85.4832 55.2826C85.4832 54.52 85.7178 53.9186 86.1872 53.4786C86.6858 53.0386 87.3605 52.8186 88.2112 52.8186H106.163L106.251 51.1026C106.251 50.956 106.192 50.8386 106.075 50.7506C105.987 50.6333 105.855 50.5746 105.679 50.5746H88.5192C87.6685 50.5746 86.9938 50.3546 86.4952 49.9146C86.0258 49.4746 85.7912 48.8586 85.7912 48.0666C85.7912 47.304 86.0405 46.688 86.5392 46.2186C87.0378 45.7493 87.6978 45.5146 88.5192 45.5146H108.363C109.419 45.5146 110.284 45.852 110.959 46.5266C111.663 47.2013 112.015 48.0813 112.015 49.1666C112.015 53.3613 111.56 56.632 110.651 58.9786C110.475 59.5066 110.167 59.9173 109.727 60.2106C109.287 60.504 108.788 60.6506 108.231 60.6506C107.762 60.6506 107.351 60.5773 106.999 60.4306C105.796 59.932 105.268 59.0373 105.415 57.7466C100.663 57.8053 94.9285 57.8346 88.2112 57.8346C87.3605 57.8346 86.6858 57.6146 86.1872 57.1746C85.7178 56.7053 85.4832 56.0746 85.4832 55.2826ZM134.309 68.3506C133.459 68.3506 132.593 68.336 131.713 68.3066C130.833 68.2773 130.027 68.1893 129.293 68.0426C126.917 67.6613 125.099 66.8986 123.837 65.7546C122.605 64.6106 121.989 62.9386 121.989 60.7386V58.0986C121.989 57.0133 122.327 56.1333 123.001 55.4586C123.676 54.784 124.541 54.4466 125.597 54.4466H136.949C137.096 54.4466 137.228 54.4026 137.345 54.3146C137.463 54.1973 137.521 54.08 137.521 53.9626V51.9826C137.521 51.836 137.463 51.7186 137.345 51.6306C137.228 51.5133 137.096 51.4546 136.949 51.4546H124.497C123.647 51.4546 122.972 51.22 122.473 50.7506C122.004 50.2813 121.769 49.636 121.769 48.8146C121.769 47.9933 122.004 47.348 122.473 46.8786C122.972 46.4093 123.647 46.1746 124.497 46.1746H139.633C140.689 46.1746 141.555 46.5266 142.229 47.2306C142.904 47.9053 143.241 48.7853 143.241 49.8706V55.8106C143.241 56.896 142.904 57.776 142.229 58.4506C141.555 59.096 140.689 59.4186 139.633 59.4186H131.889L128.281 59.4626C128.135 59.4626 128.003 59.5213 127.885 59.6386C127.768 59.756 127.709 59.888 127.709 60.0346V60.8266C127.709 61.9706 128.472 62.6306 129.997 62.8066C131.405 62.9826 132.828 63.0706 134.265 63.0706C136.817 63.0706 139.428 62.704 142.097 61.9706C142.361 61.8826 142.625 61.8386 142.889 61.8386C143.593 61.8386 144.165 62.1026 144.605 62.6306C145.045 63.1586 145.265 63.8186 145.265 64.6106C145.265 65.9306 144.517 66.796 143.021 67.2066C140.205 67.9693 137.301 68.3506 134.309 68.3506ZM128.061 74.3786C128.061 73.5573 128.296 72.912 128.765 72.4426C129.264 71.9733 129.939 71.7386 130.789 71.7386H151.293C152.349 71.7386 153.215 72.0906 153.889 72.7946C154.564 73.4693 154.901 74.3493 154.901 75.4346V84.1466C154.901 85.0266 154.637 85.716 154.109 86.2146C153.581 86.7133 152.848 86.9626 151.909 86.9626C151.029 86.9626 150.311 86.7133 149.753 86.2146C149.225 85.716 148.961 85.0266 148.961 84.1466V77.7666C148.961 77.532 148.888 77.356 148.741 77.2386C148.624 77.092 148.463 77.0186 148.257 77.0186H130.789C129.939 77.0186 129.264 76.784 128.765 76.3146C128.296 75.8453 128.061 75.2 128.061 74.3786ZM149.049 47.3186C149.049 46.4973 149.313 45.852 149.841 45.3826C150.369 44.9133 151.059 44.6786 151.909 44.6786H152.129C152.98 44.6786 153.669 44.9133 154.197 45.3826C154.725 45.852 154.989 46.4973 154.989 47.3186V67.1186C154.989 67.94 154.725 68.5853 154.197 69.0546C153.669 69.524 152.98 69.7586 152.129 69.7586H151.909C151.059 69.7586 150.369 69.524 149.841 69.0546C149.313 68.5853 149.049 67.94 149.049 67.1186V47.3186Z" fill="#000543"/>
<path d="M173.29 77.5906C172.645 77.5906 172.029 77.3706 171.442 76.9306C171.119 76.6666 170.855 76.3293 170.65 75.9186C170.445 75.508 170.342 75.0826 170.342 74.6426C170.342 73.88 170.606 73.264 171.134 72.7946C173.891 70.2133 176.003 67.4853 177.47 64.6106C178.937 61.7066 179.67 58.7586 179.67 55.7666V52.3786H173.906C173.055 52.3786 172.381 52.144 171.882 51.6746C171.413 51.2053 171.178 50.56 171.178 49.7386C171.178 48.9173 171.413 48.272 171.882 47.8026C172.381 47.3333 173.055 47.0986 173.906 47.0986H191.066C191.917 47.0986 192.577 47.3333 193.046 47.8026C193.545 48.272 193.794 48.9173 193.794 49.7386C193.794 50.56 193.545 51.2053 193.046 51.6746C192.577 52.144 191.917 52.3786 191.066 52.3786H185.61V55.7666C185.61 57.3213 185.478 58.8026 185.214 60.2106C187.179 62.2053 189.027 64.3026 190.758 66.5026C192.489 68.7026 193.779 70.6533 194.63 72.3546C194.894 72.824 195.026 73.3226 195.026 73.8506C195.026 74.408 194.894 74.9213 194.63 75.3906C194.366 75.8306 194.014 76.168 193.574 76.4026C193.017 76.696 192.489 76.8426 191.99 76.8426C190.934 76.8426 190.113 76.3586 189.526 75.3906C187.854 72.428 185.727 69.524 183.146 66.6786C181.474 70.228 178.995 73.528 175.71 76.5786C175.035 77.2533 174.229 77.5906 173.29 77.5906ZM197.006 47.3186C197.006 46.4973 197.27 45.852 197.798 45.3826C198.326 44.9133 199.015 44.6786 199.866 44.6786H200.086C200.937 44.6786 201.626 44.9133 202.154 45.3826C202.682 45.852 202.946 46.4973 202.946 47.3186V58.5386H206.246C207.097 58.5386 207.757 58.7733 208.226 59.2426C208.725 59.712 208.974 60.3573 208.974 61.1786C208.974 62 208.725 62.6453 208.226 63.1146C207.757 63.584 207.097 63.8186 206.246 63.8186H202.946V84.1906C202.946 85.012 202.682 85.6573 202.154 86.1266C201.626 86.596 200.937 86.8306 200.086 86.8306H199.866C199.015 86.8306 198.326 86.596 197.798 86.1266C197.27 85.6573 197.006 85.012 197.006 84.1906V47.3186ZM212.48 67.5586C211.6 67.5586 210.896 67.324 210.368 66.8546C209.87 66.356 209.62 65.7106 209.62 64.9186C209.62 64.1266 209.87 63.496 210.368 63.0266C210.896 62.528 211.6 62.2786 212.48 62.2786H225.724V59.6386C223.348 59.4626 221.442 59.1253 220.004 58.6266C218.596 58.0986 217.555 57.3506 216.88 56.3826C216.235 55.3853 215.912 54.0946 215.912 52.5106V49.4306C215.912 48.3453 216.25 47.4653 216.924 46.7906C217.599 46.0866 218.464 45.7346 219.52 45.7346H238.924C239.775 45.7346 240.435 45.9693 240.904 46.4386C241.403 46.908 241.652 47.5533 241.652 48.3746C241.652 49.2253 241.418 49.8706 240.948 50.3106C240.479 50.7213 239.804 50.9266 238.924 50.9266L222.424 50.9266C222.248 50.9266 222.102 50.9853 221.984 51.1026C221.896 51.1906 221.852 51.308 221.852 51.4546V52.2466C221.852 52.9506 222.131 53.464 222.688 53.7866C223.275 54.1093 224.096 54.3293 225.152 54.4466C226.208 54.5346 227.719 54.5786 229.684 54.5786C233.146 54.5786 236.196 54.2706 238.836 53.6546C239.159 53.5666 239.452 53.5226 239.716 53.5226C240.332 53.5226 240.831 53.6986 241.212 54.0506C241.623 54.4026 241.887 54.916 242.004 55.5906C242.034 55.6786 242.048 55.8693 242.048 56.1626C242.048 56.808 241.843 57.3653 241.432 57.8346C241.051 58.2746 240.508 58.568 239.804 58.7146C237.399 59.272 234.686 59.6093 231.664 59.7266V62.2786H245.04C245.92 62.2786 246.61 62.528 247.108 63.0266C247.636 63.496 247.9 64.1266 247.9 64.9186C247.9 65.7106 247.636 66.356 247.108 66.8546C246.61 67.324 245.92 67.5586 245.04 67.5586H212.48ZM217.76 78.5586C217.76 76.828 218.215 75.2586 219.124 73.8506C220.034 72.4133 221.324 71.2986 222.996 70.5066C224.668 69.6853 226.59 69.2746 228.76 69.2746C230.931 69.2746 232.852 69.6853 234.524 70.5066C236.196 71.2986 237.487 72.4133 238.396 73.8506C239.306 75.2586 239.76 76.828 239.76 78.5586C239.76 80.3186 239.306 81.9026 238.396 83.3106C237.487 84.7186 236.196 85.8186 234.524 86.6106C232.882 87.432 230.96 87.8426 228.76 87.8426C226.56 87.8426 224.624 87.432 222.952 86.6106C221.31 85.8186 220.034 84.7186 219.124 83.3106C218.215 81.9026 217.76 80.3186 217.76 78.5586ZM223.7 78.5586C223.7 79.732 224.17 80.7 225.108 81.4626C226.047 82.2253 227.264 82.6066 228.76 82.6066C230.256 82.6066 231.474 82.2253 232.412 81.4626C233.351 80.7 233.82 79.732 233.82 78.5586C233.82 77.3853 233.351 76.4173 232.412 75.6546C231.474 74.892 230.256 74.5106 228.76 74.5106C227.264 74.5106 226.047 74.892 225.108 75.6546C224.17 76.4173 223.7 77.3853 223.7 78.5586ZM278.389 87.1826C277.509 87.1826 276.805 86.9333 276.277 86.4346C275.749 85.936 275.485 85.2466 275.485 84.3666V75.3466H262.197C261.317 75.3466 260.613 75.112 260.085 74.6426C259.586 74.144 259.337 73.4986 259.337 72.7066C259.337 71.9146 259.586 71.284 260.085 70.8146C260.613 70.316 261.317 70.0666 262.197 70.0666H294.757C295.637 70.0666 296.326 70.316 296.825 70.8146C297.353 71.284 297.617 71.9146 297.617 72.7066C297.617 73.4986 297.353 74.144 296.825 74.6426C296.326 75.112 295.637 75.3466 294.757 75.3466H281.425V84.3666C281.425 85.2466 281.161 85.936 280.633 86.4346C280.134 86.9333 279.445 87.1826 278.565 87.1826H278.389ZM264.441 63.6866C264.441 63.2173 264.573 62.7773 264.837 62.3666C265.101 61.956 265.467 61.604 265.937 61.3106C268.811 59.6386 271.187 57.7466 273.065 55.6346C274.942 53.4933 275.881 51.4106 275.881 49.3866V48.3306C275.881 47.5973 276.159 46.9813 276.717 46.4826C277.274 45.9546 277.993 45.6906 278.873 45.6906C279.723 45.6906 280.427 45.9546 280.985 46.4826C281.542 46.9813 281.821 47.5973 281.821 48.3306V49.3866C281.821 50.7653 281.557 52.144 281.029 53.5226C285.165 56.0453 288.685 58.656 291.589 61.3546C292.293 62 292.645 62.7773 292.645 63.6866C292.645 64.42 292.41 65.0653 291.941 65.6226C291.677 65.9453 291.354 66.1946 290.973 66.3706C290.591 66.5466 290.181 66.6346 289.741 66.6346C289.037 66.6346 288.406 66.3853 287.849 65.8866C285.385 63.6573 282.114 61.2373 278.037 58.6266C276.834 60.1226 275.441 61.516 273.857 62.8066C272.302 64.0973 270.718 65.1386 269.105 65.9306C268.401 66.2533 267.77 66.4146 267.213 66.4146C266.215 66.4146 265.467 66.0333 264.969 65.2706C264.617 64.7426 264.441 64.2146 264.441 63.6866ZM331.395 67.0746C330.544 67.0746 329.855 66.84 329.327 66.3706C328.799 65.9013 328.535 65.256 328.535 64.4346V58.0986H323.255C322.786 60.68 321.539 62.748 319.515 64.3026C317.491 65.8573 315.056 66.6346 312.211 66.6346C310.011 66.6346 308.06 66.1946 306.359 65.3146C304.658 64.4053 303.323 63.144 302.355 61.5306C301.416 59.9173 300.947 58.0986 300.947 56.0746C300.947 54.08 301.416 52.276 302.355 50.6626C303.323 49.0493 304.658 47.788 306.359 46.8786C308.06 45.9693 310.011 45.5146 312.211 45.5146C314.763 45.5146 317.022 46.1746 318.987 47.4946C320.952 48.8146 322.272 50.5893 322.947 52.8186H328.535V47.3186C328.535 46.4973 328.799 45.852 329.327 45.3826C329.855 44.9133 330.544 44.6786 331.395 44.6786H331.615C332.466 44.6786 333.155 44.9133 333.683 45.3826C334.211 45.852 334.475 46.4973 334.475 47.3186V64.4346C334.475 65.256 334.211 65.9013 333.683 66.3706C333.155 66.84 332.466 67.0746 331.615 67.0746H331.395ZM306.667 56.0746C306.667 57.6586 307.166 58.9346 308.163 59.9026C309.19 60.8706 310.539 61.3546 312.211 61.3546C313.824 61.3546 315.144 60.8706 316.171 59.9026C317.198 58.9346 317.711 57.6586 317.711 56.0746C317.711 54.4906 317.198 53.2146 316.171 52.2466C315.144 51.2786 313.824 50.7946 312.211 50.7946C310.598 50.7946 309.263 51.2786 308.207 52.2466C307.18 53.2146 306.667 54.4906 306.667 56.0746ZM307.635 71.3866C307.635 70.5066 307.884 69.8173 308.383 69.3186C308.911 68.82 309.6 68.5706 310.451 68.5706C311.39 68.5706 312.108 68.82 312.607 69.3186C313.106 69.8173 313.355 70.5066 313.355 71.3866V73.1026H328.667V71.3866C328.667 70.5066 328.916 69.8173 329.415 69.3186C329.943 68.82 330.632 68.5706 331.483 68.5706C332.422 68.5706 333.14 68.82 333.639 69.3186C334.138 69.8173 334.387 70.5066 334.387 71.3866V80.3626C334.387 82.416 333.859 84 332.803 85.1146C331.747 86.2586 330.251 86.8306 328.315 86.8306H314.147C312.123 86.8306 310.524 86.2586 309.351 85.1146C308.207 83.9706 307.635 82.3866 307.635 80.3626V71.3866ZM313.355 80.1866C313.355 81.096 313.839 81.5506 314.807 81.5506H327.215C328.183 81.5506 328.667 81.096 328.667 80.1866V78.1626H313.355V80.1866ZM371.212 87.2266C368.073 87.2266 365.55 87.036 363.644 86.6546C359.596 85.892 357.572 83.8826 357.572 80.6266V78.3826C357.572 77.3266 357.909 76.4613 358.584 75.7866C359.258 75.112 360.124 74.7746 361.18 74.7746H377.812C378.046 74.7746 378.164 74.6426 378.164 74.3786V72.8386C378.164 72.6333 378.076 72.5306 377.9 72.5306H360.124C359.273 72.5306 358.598 72.296 358.1 71.8266C357.63 71.3573 357.396 70.712 357.396 69.8906C357.396 69.0693 357.63 68.424 358.1 67.9546C358.598 67.4853 359.273 67.2506 360.124 67.2506H380.276C381.332 67.2506 382.197 67.6026 382.872 68.3066C383.546 68.9813 383.884 69.8613 383.884 70.9466V76.1826C383.884 77.18 383.576 77.9866 382.96 78.6026C382.344 79.2186 381.552 79.5266 380.584 79.5266H363.776C363.453 79.5266 363.292 79.6733 363.292 79.9666V80.5826C363.292 81.1693 363.864 81.536 365.008 81.6826C366.122 81.8586 368.102 81.9466 370.948 81.9466C372.825 81.9466 374.702 81.8733 376.58 81.7266C378.457 81.58 380.041 81.36 381.332 81.0666C381.625 81.008 381.904 80.9786 382.168 80.9786C382.784 80.9786 383.297 81.1693 383.708 81.5506C384.148 81.9026 384.426 82.4013 384.544 83.0466C384.573 83.1346 384.588 83.3253 384.588 83.6186C384.588 84.2346 384.382 84.7626 383.972 85.2026C383.561 85.672 383.004 85.98 382.3 86.1266C380.892 86.4493 379.088 86.7133 376.888 86.9186C374.717 87.124 372.825 87.2266 371.212 87.2266ZM350.224 63.2906C350.224 62.44 350.59 61.7506 351.324 61.2226C352.996 60.02 354.418 58.9053 355.592 57.8786C356.824 56.7346 357.806 55.4586 358.54 54.0506C359.302 52.6133 359.684 51.0586 359.684 49.3866V48.4626C359.684 47.5826 359.918 46.908 360.388 46.4386C360.886 45.9693 361.605 45.7346 362.544 45.7346C363.394 45.7346 364.084 45.984 364.612 46.4826C365.14 46.9813 365.404 47.6413 365.404 48.4626V49.3866C365.404 50.5893 365.242 51.8653 364.92 53.2146C368.733 55.5613 371.71 57.9373 373.852 60.3426C374.409 60.988 374.688 61.6773 374.688 62.4106C374.688 63.232 374.365 63.9213 373.72 64.4786C373.192 64.9186 372.605 65.1386 371.96 65.1386C371.08 65.1386 370.302 64.8013 369.628 64.1266C367.369 61.868 365.008 59.9613 362.544 58.4066C360.637 61.2226 358.1 63.5986 354.932 65.5346C354.257 65.9453 353.612 66.1506 352.996 66.1506C352.204 66.1506 351.529 65.828 350.972 65.1826C350.473 64.596 350.224 63.9653 350.224 63.2906ZM370.2 53.6986C370.2 52.8773 370.434 52.232 370.904 51.7626C371.402 51.2933 372.077 51.0586 372.928 51.0586H378.252V47.3186C378.252 46.4973 378.516 45.852 379.044 45.3826C379.572 44.9133 380.261 44.6786 381.112 44.6786H381.332C382.182 44.6786 382.872 44.9133 383.4 45.3826C383.928 45.852 384.192 46.4973 384.192 47.3186V63.3786C384.192 64.2 383.928 64.8453 383.4 65.3146C382.872 65.784 382.182 66.0186 381.332 66.0186H381.112C380.261 66.0186 379.572 65.784 379.044 65.3146C378.516 64.8453 378.252 64.2 378.252 63.3786V56.3386H372.928C372.077 56.3386 371.402 56.104 370.904 55.6346C370.434 55.1653 370.2 54.52 370.2 53.6986ZM413.658 86.2586C412.807 86.2586 412.133 86.0093 411.634 85.5106C411.135 85.012 410.886 84.3373 410.886 83.4866V70.1546H405.386C404.594 70.1546 403.949 69.9346 403.45 69.4946C402.951 69.0546 402.687 68.468 402.658 67.7346C401.455 69.7 400.106 71.4746 398.61 73.0586C397.143 74.6426 395.677 75.904 394.21 76.8426C393.623 77.224 393.007 77.4146 392.362 77.4146C391.511 77.4146 390.822 77.092 390.294 76.4466C389.854 75.9186 389.634 75.3173 389.634 74.6426C389.634 73.7626 390.03 73.044 390.822 72.4866C392.905 70.9026 394.767 69.0253 396.41 66.8546C398.053 64.684 399.329 62.4546 400.238 60.1666C401.147 57.8786 401.602 55.7813 401.602 53.8746V53.3466C401.602 52.76 401.353 52.4373 400.854 52.3786H393.374C392.523 52.3786 391.849 52.144 391.35 51.6746C390.881 51.2053 390.646 50.56 390.646 49.7386C390.646 48.9173 390.881 48.272 391.35 47.8026C391.849 47.3333 392.523 47.0986 393.374 47.0986H403.582C404.638 47.0986 405.503 47.4506 406.178 48.1546C406.853 48.8293 407.19 49.724 407.19 50.8386V52.6426H410.886V47.8906C410.886 47.04 411.135 46.3653 411.634 45.8666C412.133 45.368 412.807 45.1186 413.658 45.1186C414.509 45.1186 415.183 45.368 415.682 45.8666C416.181 46.3653 416.43 47.04 416.43 47.8906V83.4866C416.43 84.3373 416.181 85.012 415.682 85.5106C415.183 86.0093 414.509 86.2586 413.658 86.2586ZM404.11 65.1386C404.462 64.9626 404.887 64.8746 405.386 64.8746H410.886V57.9226H406.574C406.105 60.24 405.283 62.6453 404.11 65.1386ZM419.73 47.4506C419.73 46.6 419.979 45.9253 420.478 45.4266C420.977 44.928 421.651 44.6786 422.502 44.6786C423.353 44.6786 424.027 44.928 424.526 45.4266C425.025 45.9253 425.274 46.6 425.274 47.4506V84.0586C425.274 84.9093 425.025 85.584 424.526 86.0826C424.027 86.5813 423.353 86.8306 422.502 86.8306C421.651 86.8306 420.977 86.5813 420.478 86.0826C419.979 85.584 419.73 84.9093 419.73 84.0586V47.4506Z" fill="white"/>
<defs>
<filter id="filter0_d_142_2652" x="10.9077" y="19.5444" width="450.597" height="95.708" filterUnits="userSpaceOnUse" color-interpolation-filters="sRGB">
<feFlood flood-opacity="0" result="BackgroundImageFix"/>
<feColorMatrix in="SourceAlpha" type="matrix" values="0 0 0 0 0 0 0 0 0 0 0 0 0 0 0 0 0 0 127 0" result="hardAlpha"/>
<feOffset dx="4" dy="4"/>
<feComposite in2="hardAlpha" operator="out"/>
<feColorMatrix type="matrix" values="0 0 0 0 1 0 0 0 0 1 0 0 0 0 1 0 0 0 1 0"/>
<feBlend mode="normal" in2="BackgroundImageFix" result="effect1_dropShadow_142_2652"/>
<feBlend mode="normal" in="SourceGraphic" in2="effect1_dropShadow_142_2652" result="shape"/>
</filter>
</defs>
</svg>
