<svg width="119" height="119" viewBox="0 0 119 119" fill="none" xmlns="http://www.w3.org/2000/svg">
<path d="M59.497 0L48.4454 7.85316L35.1667 5.19982L28.2421 16.8954L15.0392 19.9001L13.4448 33.4125L2.59978 41.5678L6.61064 54.568L0 66.4454L8.91843 76.6804L7.68818 90.237L19.9797 95.938L24.3351 108.826L37.8728 109.008L47.0649 119L59.497 113.627L71.9363 118.996L81.1284 109.005L94.6637 108.823L99.0239 95.938L111.317 90.2358L110.082 76.6816L119 66.4466L112.397 54.568L116.404 41.5678L105.555 33.4211L103.967 19.9001L90.7616 16.8966L83.8382 5.19982L70.5595 7.85316L59.497 0Z" fill="#89D6CC"/>
<path d="M62.7041 106.66H63.1512L62.9171 106.279L60.211 101.877V98.8187V98.5687H59.961H59.0417H58.7917V98.8187V101.877L56.0856 106.279L55.8515 106.66H56.2986H57.3513H57.4936L57.5663 106.538L59.5013 103.281L61.4364 106.538L61.5091 106.66H61.6513H62.7041Z" fill="#319387" stroke="#319387" stroke-width="0.5"/>
<path d="M45.1866 101.478L44.8986 101.401L44.8728 101.698C44.8363 102.12 44.8699 102.519 44.9771 102.892C45.0825 103.264 45.2483 103.601 45.4747 103.902C45.6996 104.204 45.9737 104.46 46.2956 104.671C46.6154 104.881 46.9731 105.038 47.3667 105.144C48.0334 105.322 48.6786 105.32 49.2963 105.13C49.9133 104.94 50.4512 104.581 50.909 104.061C51.3698 103.537 51.7041 102.87 51.919 102.067C52.134 101.265 52.1785 100.52 52.041 99.836C51.9044 99.157 51.6183 98.5768 51.1789 98.1038C50.739 97.6303 50.1814 97.3057 49.5147 97.1271C49.1212 97.0217 48.733 96.9789 48.351 97.0009C47.9673 97.0222 47.6021 97.1059 47.257 97.2525L47.257 97.2525L47.2557 97.253C46.9088 97.4027 46.5964 97.613 46.3193 97.8822C46.0396 98.154 45.8111 98.4824 45.6324 98.8637L45.5057 99.134L45.794 99.2113L46.682 99.4492L46.8785 99.5019L46.97 99.3202C47.0772 99.1073 47.2101 98.9341 47.3673 98.7967L47.3678 98.7963C47.5261 98.6571 47.7015 98.5516 47.8948 98.4786C48.0869 98.4067 48.2901 98.3673 48.5057 98.3614C48.7229 98.3554 48.9416 98.3815 49.1627 98.4407C49.5637 98.5482 49.8943 98.7446 50.1611 99.0297C50.4224 99.3107 50.6005 99.6728 50.6883 100.127C50.7725 100.574 50.74 101.098 50.5767 101.708C50.4135 102.317 50.1792 102.788 49.8831 103.132C49.5798 103.482 49.2445 103.706 48.8778 103.819C48.5041 103.933 48.1196 103.937 47.7187 103.83C47.4976 103.771 47.2951 103.684 47.11 103.57C46.9269 103.458 46.7713 103.321 46.6417 103.161L46.6417 103.161L46.6394 103.158C46.5085 103.001 46.4094 102.824 46.342 102.625L46.342 102.625L46.3413 102.623C46.2739 102.429 46.2452 102.213 46.2594 101.972L46.2715 101.769L46.0746 101.716L45.1866 101.478Z" fill="#319387" stroke="#319387" stroke-width="0.5"/>
<path d="M42.1424 94.7185L42.2674 94.502L42.0509 94.377L38.1985 92.1528L37.982 92.0278L37.857 92.2443L37.4493 92.9506L37.3243 93.1671L37.5408 93.2921L40.3804 94.9316L37.1174 100.583L36.9924 100.8L37.2089 100.925L38.005 101.385L38.2215 101.51L38.3465 101.293L42.1424 94.7185Z" fill="#319387" stroke="#319387" stroke-width="0.5"/>
<path d="M27.0634 91.1106L27.0633 91.1098C26.9759 90.7342 27.0027 90.3319 27.1553 89.8967L27.1557 89.8956C27.3044 89.4654 27.5938 89.0265 28.0398 88.5806C28.4857 88.1346 28.9246 87.8451 29.3548 87.6965L29.3559 87.6961C29.7912 87.5435 30.1934 87.5167 30.5691 87.6041L30.5698 87.6042C30.948 87.691 31.2824 87.8781 31.576 88.1717C31.8695 88.4652 32.0576 88.8006 32.1462 89.181C32.2319 89.5549 32.2051 89.9575 32.054 90.395C31.9036 90.8237 31.6131 91.2619 31.1671 91.7079C30.7211 92.1539 30.2829 92.4444 29.8542 92.5948C29.4167 92.7459 29.0141 92.7727 28.6401 92.687C28.2598 92.5984 27.9244 92.4103 27.6309 92.1168C27.3373 91.8232 27.1502 91.4888 27.0634 91.1106ZM28.9286 86.3766C28.2678 86.5994 27.6444 87.0107 27.0571 87.5979C26.4699 88.1852 26.0586 88.8086 25.8358 89.4694C25.6146 90.1257 25.5723 90.7712 25.7163 91.4005C25.8605 92.0305 26.1812 92.5904 26.6692 93.0785C27.1572 93.5665 27.7172 93.8871 28.3472 94.0314C28.9765 94.1754 29.622 94.1331 30.2783 93.9119C30.9391 93.6891 31.5625 93.2778 32.1498 92.6906C32.737 92.1033 33.1483 91.4799 33.3711 90.8191C33.5923 90.1628 33.6346 89.5173 33.4906 88.888C33.3464 88.258 33.0257 87.698 32.5377 87.21C32.0497 86.722 31.4897 86.4013 30.8597 86.2571C30.2304 86.1131 29.5849 86.1554 28.9286 86.3766Z" fill="#319387" stroke="#319387" stroke-width="0.5"/>
<path d="M18.4399 81.6587L18.5649 81.8752L18.7814 81.7502L23.0703 79.274C23.3585 79.1076 23.6432 79.0273 23.9272 79.0245L23.928 79.0245C24.2066 79.0209 24.4724 79.0948 24.7296 79.2517C24.9805 79.4074 25.2059 79.6474 25.401 79.9853C25.5959 80.3231 25.6912 80.6381 25.7006 80.933C25.7068 81.2321 25.6379 81.4999 25.496 81.7424C25.3515 81.9868 25.1397 82.1931 24.8517 82.3594L20.5627 84.8356L20.3462 84.9606L20.4712 85.1771L20.9309 85.9733L21.0559 86.1898L21.2724 86.0648L25.6255 83.5515C26.1101 83.2717 26.4847 82.9041 26.7408 82.4477L26.7408 82.4477L26.7416 82.4461C26.9934 81.9896 27.1081 81.4869 27.0888 80.9439L27.0887 80.9428C27.0668 80.3961 26.8929 79.8495 26.5787 79.3053C26.2646 78.7612 25.8782 78.3373 25.4156 78.0449L25.4147 78.0443C24.954 77.756 24.4615 77.6049 23.9411 77.5971C23.4163 77.5883 22.9097 77.7278 22.4248 78.0078L18.0717 80.521L17.8552 80.646L17.9802 80.8625L18.4399 81.6587Z" fill="#319387" stroke="#319387" stroke-width="0.5"/>
<path d="M23.327 73.4271L23.5685 73.3624L23.5038 73.1209L22.8974 70.858C22.6895 70.0818 22.3553 69.4471 21.8856 68.968L21.885 68.9674C21.4137 68.49 20.8398 68.1834 20.1703 68.0488L20.1699 68.0487C19.4999 67.9152 18.7662 67.9606 17.974 68.1729C17.1869 68.3838 16.5342 68.7085 16.027 69.1551C15.5174 69.6023 15.1747 70.1446 15.0057 70.7784C14.8341 71.4139 14.8551 72.1075 15.0546 72.852L15.6878 75.2152L15.7525 75.4567L15.994 75.392L23.327 73.4271ZM16.9759 70.167L16.9763 70.1667C17.3181 69.8865 17.7673 69.6669 18.3337 69.5152C18.9047 69.3622 19.4086 69.3276 19.8502 69.4004C20.2852 69.4722 20.6503 69.657 20.9533 69.9557C21.2539 70.2521 21.4877 70.6794 21.6421 71.2558L21.9305 72.3319L16.6559 73.7453L16.3406 72.5688C16.1957 72.0279 16.189 71.566 16.302 71.1739L16.302 71.1739L16.3023 71.1728C16.4137 70.7791 16.6355 70.4449 16.9759 70.167Z" fill="#319387" stroke="#319387" stroke-width="0.5"/>
<path d="M13.3834 63.748V64.1951L13.7643 63.9609L18.1672 61.2549H21.2251H21.4751V61.0049V60.0855V59.8355H21.2251H18.1672L13.7643 57.1295L13.3834 56.8954V57.3425V58.3952V58.5375L13.5057 58.6101L16.7626 60.5452L13.5057 62.4803L13.3834 62.5529V62.6952V63.748Z" fill="#319387" stroke="#319387" stroke-width="0.5"/>
<path d="M18.5656 46.2305L18.6428 45.9425L18.3457 45.9167C17.9239 45.8802 17.525 45.9138 17.1515 46.021C16.7799 46.1264 16.4427 46.2922 16.1419 46.5186C15.8399 46.7435 15.5835 47.0176 15.373 47.3395C15.1629 47.6593 15.0057 48.017 14.9003 48.4106C14.7216 49.0773 14.7239 49.7225 14.914 50.3402C15.1039 50.9572 15.4633 51.4951 15.9831 51.9529C16.5064 52.4138 17.1743 52.748 17.9765 52.9629C18.7787 53.1779 19.5242 53.2224 20.2079 53.0849C20.8869 52.9483 21.4671 52.6622 21.9401 52.2228C22.4135 51.7829 22.7381 51.2253 22.9168 50.5586C23.0222 50.1652 23.065 49.7769 23.043 49.3949C23.0216 49.0112 22.938 48.646 22.7914 48.301L22.7914 48.301L22.7908 48.2997C22.6411 47.9527 22.4308 47.6403 22.1616 47.3632C21.8898 47.0835 21.5615 46.855 21.1801 46.6763L20.9098 46.5496L20.8325 46.8379L20.5946 47.7259L20.542 47.9224L20.7237 48.0139C20.9366 48.1211 21.1098 48.254 21.2471 48.4112L21.2476 48.4117C21.3867 48.5701 21.4922 48.7454 21.5652 48.9387C21.6372 49.1308 21.6765 49.334 21.6825 49.5496C21.6885 49.7668 21.6624 49.9856 21.6031 50.2066C21.4957 50.6076 21.2993 50.9382 21.0141 51.205C20.7331 51.4663 20.3711 51.6444 19.9167 51.7322C19.4701 51.8164 18.9454 51.7839 18.3362 51.6206C17.7269 51.4574 17.2563 51.2232 16.9116 50.927C16.562 50.6237 16.3375 50.2884 16.2248 49.9217C16.1113 49.548 16.1065 49.1635 16.2139 48.7626C16.2732 48.5415 16.3599 48.339 16.4737 48.1539C16.5863 47.9708 16.7226 47.8153 16.8828 47.6856L16.8828 47.6857L16.8856 47.6833C17.0427 47.5524 17.22 47.4534 17.4193 47.3859L17.4193 47.3859L17.4213 47.3853C17.6153 47.3178 17.831 47.2891 18.0715 47.3034L18.2749 47.3154L18.3277 47.1185L18.5656 46.2305Z" fill="#319387" stroke="#319387" stroke-width="0.5"/>
<path d="M25.3253 43.1863L25.5418 43.3113L25.6668 43.0948L27.891 39.2425L28.016 39.026L27.7995 38.901L27.0932 38.4932L26.8767 38.3682L26.7517 38.5847L25.1122 41.4244L19.4604 38.1613L19.2439 38.0363L19.1189 38.2528L18.6592 39.0489L18.5342 39.2654L18.7507 39.3904L25.3253 43.1863Z" fill="#319387" stroke="#319387" stroke-width="0.5"/>
<path d="M28.9333 28.1073L28.934 28.1071C29.3096 28.0197 29.7119 28.0465 30.1471 28.1991L30.1482 28.1995C30.5784 28.3482 31.0173 28.6377 31.4633 29.0836C31.9092 29.5295 32.1987 29.9684 32.3474 30.3987L32.3477 30.3997C32.5003 30.835 32.5272 31.2373 32.4398 31.6129L32.4396 31.6136C32.3528 31.9918 32.1657 32.3263 31.8722 32.6199C31.5787 32.9134 31.2432 33.1014 30.8629 33.19C30.4889 33.2757 30.0863 33.2489 29.6489 33.0979C29.2201 32.9474 28.7819 32.6569 28.3359 32.2109C27.8899 31.7649 27.5994 31.3268 27.449 30.898C27.2979 30.4605 27.2711 30.0579 27.3569 29.6839C27.4454 29.3036 27.6335 28.9682 27.927 28.6747C28.2206 28.3811 28.555 28.1941 28.9333 28.1073ZM33.6672 29.9724C33.4444 29.3116 33.0332 28.6882 32.4459 28.101C31.8586 27.5137 31.2352 27.1024 30.5744 26.8797C29.9181 26.6584 29.2726 26.6161 28.6433 26.7602C28.0133 26.9044 27.4534 27.225 26.9653 27.713C26.4773 28.2011 26.1567 28.761 26.0125 29.391C25.8684 30.0203 25.9107 30.6658 26.132 31.3221C26.3547 31.9829 26.766 32.6063 27.3533 33.1936C27.9405 33.7808 28.5639 34.1921 29.2247 34.4149C29.881 34.6361 30.5266 34.6784 31.1559 34.5344C31.7858 34.3902 32.3458 34.0695 32.8338 33.5815C33.3219 33.0935 33.6425 32.5335 33.7867 31.9036C33.9308 31.2743 33.8884 30.6287 33.6672 29.9724Z" fill="#319387" stroke="#319387" stroke-width="0.5"/>
<path d="M38.3852 19.4837L38.1687 19.6087L38.2937 19.8252L40.7699 24.1141C40.9363 24.4023 41.0166 24.687 41.0194 24.9711L41.0195 24.9718C41.023 25.2505 40.9492 25.5162 40.7922 25.7735C40.6366 26.0243 40.3965 26.2497 40.0586 26.4448C39.7209 26.6398 39.4058 26.735 39.1109 26.7444C38.8118 26.7506 38.544 26.6818 38.3015 26.5398C38.0571 26.3953 37.8508 26.1835 37.6845 25.8955L35.2083 21.6066L35.0833 21.3901L34.8668 21.5151L34.0706 21.9747L33.8541 22.0997L33.9791 22.3162L36.4924 26.6693C36.7722 27.1539 37.1398 27.5285 37.5962 27.7846L37.5962 27.7846L37.5978 27.7854C38.0543 28.0372 38.557 28.152 39.1 28.1326L39.1011 28.1325C39.6479 28.1106 40.1944 27.9367 40.7386 27.6226C41.2827 27.3084 41.7066 26.922 41.999 26.4594L41.9996 26.4585C42.2879 25.9978 42.439 25.5054 42.4468 24.9849C42.4556 24.4602 42.3161 23.9535 42.0362 23.4687L39.5229 19.1155L39.3979 18.899L39.1814 19.024L38.3852 19.4837Z" fill="#319387" stroke="#319387" stroke-width="0.5"/>
<path d="M46.6167 24.3709L46.6814 24.6124L46.9229 24.5477L49.1858 23.9413C49.962 23.7333 50.5967 23.3992 51.0758 22.9294L51.0765 22.9288C51.5538 22.4575 51.8604 21.8837 51.995 21.2141L51.9951 21.2137C52.1286 20.5438 52.0832 19.81 51.871 19.0179C51.66 18.2307 51.3353 17.5781 50.8887 17.0709C50.4415 16.5613 49.8993 16.2186 49.2654 16.0496C48.6299 15.878 47.9364 15.8989 47.1918 16.0985L44.8286 16.7317L44.5871 16.7964L44.6518 17.0378L46.6167 24.3709ZM49.8768 18.0198L49.8771 18.0202C50.1573 18.3619 50.3769 18.8112 50.5287 19.3776C50.6817 19.9485 50.7163 20.4525 50.6434 20.894C50.5716 21.329 50.3868 21.6942 50.0881 21.9971C49.7917 22.2978 49.3644 22.5315 48.7881 22.686L47.7119 22.9743L46.2986 17.6997L47.475 17.3845C48.0159 17.2395 48.4778 17.2329 48.87 17.3458L48.87 17.3458L48.8711 17.3461C49.2648 17.4576 49.5989 17.6794 49.8768 18.0198Z" fill="#319387" stroke="#319387" stroke-width="0.5"/>
<path d="M56.2959 14.4273H55.8488L56.0829 14.8082L58.789 19.2111V22.269V22.519H59.039H59.9583H60.2083V22.269V19.2111L62.9144 14.8082L63.1485 14.4273H62.7014H61.6487H61.5064L61.4337 14.5496L59.4987 17.8066L57.5636 14.5496L57.4909 14.4273H57.3487H56.2959Z" fill="#319387" stroke="#319387" stroke-width="0.5"/>
<path d="M73.8134 19.6094L74.1014 19.6866L74.1272 19.3895C74.1637 18.9677 74.1301 18.5688 74.0229 18.1953C73.9175 17.8238 73.7517 17.4866 73.5253 17.1857C73.3004 16.8837 73.0263 16.6273 72.7044 16.4168C72.3846 16.2067 72.0269 16.0496 71.6333 15.9441C70.9666 15.7655 70.3214 15.7678 69.7037 15.9579C69.0867 16.1478 68.5488 16.5072 68.091 17.0269C67.6302 17.5502 67.2959 18.2181 67.081 19.0203C66.866 19.8225 66.8215 20.5681 66.959 21.2517C67.0956 21.9307 67.3817 22.5109 67.8211 22.9839C68.261 23.4573 68.8186 23.782 69.4853 23.9606C69.8788 24.066 70.267 24.1088 70.649 24.0868C71.0327 24.0654 71.3979 23.9818 71.743 23.8352L71.743 23.8352L71.7443 23.8346C72.0912 23.6849 72.4036 23.4746 72.6807 23.2054C72.9604 22.9336 73.1889 22.6053 73.3676 22.2239L73.4943 21.9536L73.206 21.8764L72.318 21.6384L72.1215 21.5858L72.03 21.7675C71.9228 21.9804 71.7899 22.1536 71.6327 22.2909L71.6322 22.2914C71.4739 22.4306 71.2985 22.5361 71.1052 22.6091C70.9131 22.681 70.7099 22.7203 70.4943 22.7263C70.2771 22.7323 70.0584 22.7062 69.8373 22.6469C69.4363 22.5395 69.1057 22.3431 68.8389 22.0579C68.5776 21.7769 68.3995 21.4149 68.3117 20.9605C68.2275 20.514 68.26 19.9892 68.4233 19.38C68.5865 18.7707 68.8208 18.3001 69.1169 17.9554C69.4202 17.6059 69.7555 17.3813 70.1222 17.2686C70.4959 17.1551 70.8804 17.1503 71.2813 17.2578C71.5024 17.317 71.7049 17.4037 71.89 17.5175C72.0731 17.6301 72.2287 17.7664 72.3583 17.9266L72.3583 17.9267L72.3606 17.9295C72.4915 18.0865 72.5906 18.2638 72.658 18.4631L72.658 18.4631L72.6587 18.4651C72.7261 18.6592 72.7548 18.8749 72.7406 19.1153L72.7285 19.3188L72.9254 19.3715L73.8134 19.6094Z" fill="#319387" stroke="#319387" stroke-width="0.5"/>
<path d="M76.8576 26.3693L76.7326 26.5858L76.9491 26.7108L80.8015 28.9349L81.018 29.0599L81.143 28.8434L81.5507 28.1371L81.6757 27.9206L81.4592 27.7956L78.6196 26.1561L81.8826 20.5043L82.0076 20.2878L81.7911 20.1628L80.995 19.7031L80.7785 19.5781L80.6535 19.7946L76.8576 26.3693Z" fill="#319387" stroke="#319387" stroke-width="0.5"/>
<path d="M91.9366 29.9772L91.9367 29.9779C92.0241 30.3535 91.9973 30.7558 91.8447 31.1911L91.8443 31.1921C91.6956 31.6224 91.4062 32.0612 90.9602 32.5072C90.5143 32.9531 90.0754 33.2426 89.6452 33.3913L89.6441 33.3916C89.2088 33.5442 88.8066 33.5711 88.4309 33.4837L88.4302 33.4835C88.052 33.3967 87.7176 33.2097 87.424 32.9161C87.1305 32.6226 86.9424 32.2872 86.8538 31.9068C86.7681 31.5328 86.7949 31.1302 86.946 30.6928C87.0964 30.264 87.3869 29.8258 87.8329 29.3798C88.2789 28.9338 88.7171 28.6433 89.1458 28.4929C89.5833 28.3418 89.9859 28.315 90.3599 28.4008C90.7402 28.4893 91.0756 28.6774 91.3691 28.9709C91.6627 29.2645 91.8498 29.5989 91.9366 29.9772ZM90.0714 34.7111C90.7322 34.4884 91.3556 34.0771 91.9429 33.4898C92.5301 32.9025 92.9414 32.2792 93.1642 31.6184C93.3854 30.962 93.4277 30.3165 93.2837 29.6872C93.1395 29.0572 92.8188 28.4973 92.3308 28.0093C91.8428 27.5212 91.2828 27.2006 90.6528 27.0564C90.0235 26.9123 89.378 26.9546 88.7217 27.1759C88.0609 27.3986 87.4375 27.8099 86.8502 28.3972C86.263 28.9845 85.8517 29.6078 85.6289 30.2686C85.4077 30.925 85.3654 31.5705 85.5094 32.1998C85.6536 32.8298 85.9743 33.3897 86.4623 33.8777C86.9503 34.3658 87.5103 34.6864 88.1403 34.8306C88.7696 34.9747 89.4151 34.9324 90.0714 34.7111Z" fill="#319387" stroke="#319387" stroke-width="0.5"/>
<path d="M100.56 39.4291L100.435 39.2126L100.219 39.3376L95.9297 41.8138C95.6415 41.9801 95.3568 42.0604 95.0728 42.0633L95.072 42.0633C94.7934 42.0669 94.5276 41.993 94.2704 41.836C94.0195 41.6804 93.7941 41.4403 93.599 41.1024C93.4041 40.7647 93.3088 40.4496 93.2994 40.1547C93.2932 39.8556 93.3621 39.5878 93.504 39.3453C93.6485 39.1009 93.8603 38.8946 94.1483 38.7283L98.4373 36.2521L98.6538 36.1271L98.5288 35.9106L98.0691 35.1145L97.9441 34.898L97.7276 35.023L93.3745 37.5362C92.8899 37.816 92.5153 38.1836 92.2592 38.6401L92.2592 38.6401L92.2584 38.6416C92.0066 39.0981 91.8919 39.6008 91.9112 40.1438L91.9113 40.1449C91.9332 40.6917 92.1071 41.2383 92.4213 41.7824C92.7354 42.3266 93.1218 42.7505 93.5844 43.0428L93.5853 43.0434C94.046 43.3318 94.5385 43.4828 95.0589 43.4907C95.5837 43.4994 96.0903 43.3599 96.5752 43.08L100.928 40.5667L101.145 40.4417L101.02 40.2252L100.56 39.4291Z" fill="#319387" stroke="#319387" stroke-width="0.5"/>
<path d="M95.673 47.6605L95.4315 47.7252L95.4962 47.9667L96.1026 50.2296C96.3105 51.0059 96.6447 51.6405 97.1144 52.1197L97.115 52.1203C97.5863 52.5977 98.1602 52.9043 98.8297 53.0389L98.8301 53.0389C99.5001 53.1724 100.234 53.127 101.026 52.9148C101.813 52.7039 102.466 52.3791 102.973 51.9326C103.483 51.4853 103.825 50.9431 103.994 50.3092C104.166 49.6738 104.145 48.9802 103.945 48.2356L103.312 45.8724L103.247 45.6309L103.006 45.6957L95.673 47.6605ZM102.024 50.9206L102.024 50.9209C101.682 51.2012 101.233 51.4207 100.666 51.5725C100.095 51.7255 99.5914 51.7601 99.1498 51.6872C98.7148 51.6154 98.3497 51.4307 98.0467 51.132C97.7461 50.8355 97.5123 50.4083 97.3579 49.8319L97.0695 48.7557L102.344 47.3424L102.659 48.5188C102.804 49.0598 102.811 49.5217 102.698 49.9138L102.698 49.9138L102.698 49.9149C102.586 50.3086 102.364 50.6427 102.024 50.9206Z" fill="#319387" stroke="#319387" stroke-width="0.5"/>
<path d="M105.617 57.3397V56.8926L105.236 57.1267L100.833 59.8328H97.7749H97.5249V60.0828V61.0021V61.2521H97.7749H100.833L105.236 63.9582L105.617 64.1923V63.7452V62.6924V62.5502L105.494 62.4775L102.237 60.5424L105.494 58.6074L105.617 58.5347V58.3924V57.3397Z" fill="#319387" stroke="#319387" stroke-width="0.5"/>
<path d="M100.434 74.8572L100.357 75.1453L100.654 75.171C101.076 75.2075 101.475 75.174 101.848 75.0667C102.22 74.9613 102.557 74.7956 102.858 74.5691C103.16 74.3442 103.416 74.0701 103.627 73.7483C103.837 73.4284 103.994 73.0707 104.1 72.6771C104.278 72.0105 104.276 71.3652 104.086 70.7475C103.896 70.1305 103.537 69.5926 103.017 69.1349C102.494 68.674 101.826 68.3397 101.023 68.1248C100.221 67.9098 99.4758 67.8654 98.7921 68.0028C98.1131 68.1394 97.5329 68.4255 97.0599 68.8649C96.5865 69.3048 96.2619 69.8624 96.0832 70.5291C95.9778 70.9226 95.935 71.3108 95.957 71.6928C95.9784 72.0766 96.062 72.4417 96.2086 72.7868L96.2086 72.7868L96.2092 72.7881C96.3589 73.135 96.5692 73.4474 96.8384 73.7245C97.1102 74.0043 97.4385 74.2327 97.8199 74.4115L98.0902 74.5382L98.1675 74.2498L98.4054 73.3618L98.458 73.1653L98.2763 73.0738C98.0634 72.9666 97.8902 72.8337 97.7529 72.6765L97.7524 72.676C97.6133 72.5177 97.5078 72.3423 97.4348 72.149C97.3628 71.9569 97.3235 71.7537 97.3175 71.5381C97.3115 71.321 97.3376 71.1022 97.3969 70.8811C97.5043 70.4802 97.7007 70.1496 97.9859 69.8827C98.2669 69.6215 98.6289 69.4434 99.0833 69.3555C99.5299 69.2714 100.055 69.3039 100.664 69.4671C101.273 69.6303 101.744 69.8646 102.088 70.1607C102.438 70.464 102.662 70.7993 102.775 71.166C102.889 71.5397 102.893 71.9242 102.786 72.3251C102.727 72.5462 102.64 72.7487 102.526 72.9338C102.414 73.1169 102.277 73.2725 102.117 73.4021L102.117 73.4021L102.114 73.4044C101.957 73.5353 101.78 73.6344 101.581 73.7018L101.581 73.7018L101.579 73.7025C101.385 73.77 101.169 73.7986 100.929 73.7844L100.725 73.7724L100.672 73.9692L100.434 74.8572Z" fill="#319387" stroke="#319387" stroke-width="0.5"/>
<path d="M93.6747 77.9015L93.4582 77.7765L93.3332 77.993L91.109 81.8453L90.984 82.0618L91.2005 82.1868L91.9068 82.5945L92.1233 82.7195L92.2483 82.503L93.8878 79.6634L99.5396 82.9265L99.7561 83.0515L99.8811 82.835L100.341 82.0388L100.466 81.8223L100.249 81.6973L93.6747 77.9015Z" fill="#319387" stroke="#319387" stroke-width="0.5"/>
<path d="M90.0667 92.9805L90.066 92.9806C89.6904 93.068 89.2881 93.0412 88.8529 92.8886L88.8518 92.8883C88.4216 92.7396 87.9827 92.4501 87.5367 92.0041C87.0908 91.5582 86.8013 91.1193 86.6526 90.6891L86.6523 90.688C86.4997 90.2528 86.4728 89.8505 86.5602 89.4749L86.5604 89.4741C86.6472 89.0959 86.8343 88.7615 87.1278 88.4679C87.4213 88.1744 87.7568 87.9863 88.1371 87.8977C88.5111 87.812 88.9137 87.8388 89.3511 87.9899C89.7799 88.1403 90.2181 88.4308 90.6641 88.8768C91.1101 89.3228 91.4006 89.761 91.551 90.1898C91.7021 90.6272 91.7289 91.0298 91.6431 91.4038C91.5546 91.7842 91.3665 92.1196 91.073 92.413C90.7794 92.7066 90.445 92.8937 90.0667 92.9805ZM85.3328 91.1153C85.5556 91.7761 85.9668 92.3995 86.5541 92.9868C87.1414 93.574 87.7648 93.9853 88.4256 94.2081C89.0819 94.4293 89.7274 94.4716 90.3567 94.3276C90.9867 94.1834 91.5466 93.8627 92.0347 93.3747C92.5227 92.8867 92.8433 92.3267 92.9875 91.6967C93.1316 91.0674 93.0893 90.4219 92.868 89.7656C92.6453 89.1048 92.234 88.4814 91.6467 87.8942C91.0595 87.3069 90.4361 86.8956 89.7753 86.6729C89.119 86.4516 88.4734 86.4093 87.8441 86.5534C87.2142 86.6976 86.6542 87.0182 86.1662 87.5062C85.6781 87.9943 85.3575 88.5542 85.2133 89.1842C85.0692 89.8135 85.1116 90.459 85.3328 91.1153Z" fill="#319387" stroke="#319387" stroke-width="0.5"/>
<path d="M80.6148 101.604L80.8313 101.479L80.7063 101.263L78.2301 96.9736C78.0637 96.6854 77.9834 96.4007 77.9806 96.1167L77.9805 96.116C77.977 95.8373 78.0508 95.5715 78.2078 95.3143C78.3634 95.0634 78.6035 94.8381 78.9414 94.643C79.2791 94.448 79.5942 94.3528 79.8891 94.3433C80.1882 94.3371 80.456 94.406 80.6985 94.5479C80.9429 94.6924 81.1492 94.9042 81.3155 95.1923L83.7917 99.4812L83.9167 99.6977L84.1332 99.5727L84.9294 99.113L85.1459 98.988L85.0209 98.7715L82.5076 94.4184C82.2278 93.9338 81.8602 93.5592 81.4038 93.3032L81.4038 93.3032L81.4022 93.3023C80.9457 93.0505 80.443 92.9358 79.9 92.9552L79.8989 92.9552C79.3521 92.9771 78.8056 93.151 78.2614 93.4652C77.7173 93.7793 77.2934 94.1657 77.001 94.6283L77.0004 94.6292C76.7121 95.0899 76.561 95.5824 76.5532 96.1028C76.5444 96.6276 76.6839 97.1342 76.9638 97.6191L79.4771 101.972L79.6021 102.189L79.8186 102.064L80.6148 101.604Z" fill="#319387" stroke="#319387" stroke-width="0.5"/>
<path d="M72.3833 96.7168L72.3186 96.4753L72.0771 96.54L69.8142 97.1464C69.038 97.3544 68.4033 97.6885 67.9242 98.1582L67.9235 98.1588C67.4462 98.6301 67.1396 99.204 67.005 99.8735L67.0049 99.874C66.8714 100.544 66.9168 101.278 67.129 102.07C67.34 102.857 67.6647 103.51 68.1113 104.017C68.5585 104.526 69.1007 104.869 69.7346 105.038C70.3701 105.21 71.0636 105.189 71.8082 104.989L74.1714 104.356L74.4129 104.291L74.3482 104.05L72.3833 96.7168ZM69.1232 103.068L69.1229 103.068C68.8427 102.726 68.6231 102.276 68.4713 101.71C68.3183 101.139 68.2837 100.635 68.3566 100.194C68.4284 99.7586 68.6132 99.3935 68.9119 99.0906C69.2083 98.7899 69.6356 98.5562 70.2119 98.4017L71.2881 98.1134L72.7014 103.388L71.525 103.703C70.9841 103.848 70.5222 103.855 70.13 103.742L70.13 103.742L70.1289 103.742C69.7352 103.63 69.4011 103.408 69.1232 103.068Z" fill="#319387" stroke="#319387" stroke-width="0.5"/>
</svg>
