<svg width="204" height="222" viewBox="0 0 204 222" fill="none" xmlns="http://www.w3.org/2000/svg">
<path d="M61.5318 61.5957C60.9949 62.2125 60.0583 62.2696 59.453 61.7327C58.8476 61.1959 58.7791 60.2593 59.3159 59.6539" stroke="#3C3C49" stroke-miterlimit="10"/>
<path d="M61.5317 61.6071C62.0686 60.9903 63.0052 60.9332 63.6106 61.47C64.2159 62.0069 64.2844 62.9435 63.7476 63.5489" stroke="#3C3C49" stroke-miterlimit="10"/>
<path d="M65.9634 65.4906C65.4266 66.1074 64.49 66.1645 63.8846 65.6276C63.2792 65.0908 63.2107 64.1542 63.7475 63.5488" stroke="#3C3C49" stroke-miterlimit="10"/>
<path d="M65.9634 65.502C66.5002 64.8852 67.4368 64.8281 68.0422 65.3649C68.6476 65.9018 68.7161 66.8384 68.1793 67.4438" stroke="#3C3C49" stroke-miterlimit="10"/>
<path d="M70.3955 69.3855C69.8587 70.0023 68.9221 70.0594 68.3167 69.5225C67.7114 68.9857 67.6428 68.0491 68.1797 67.4437" stroke="#3C3C49" stroke-miterlimit="10"/>
<path d="M70.3955 69.3854C70.9323 68.7686 71.869 68.7115 72.4743 69.2484C73.0797 69.7852 73.1482 70.7218 72.6114 71.3272" stroke="#3C3C49" stroke-miterlimit="10"/>
<path d="M74.8272 73.269C74.2903 73.8858 73.3537 73.9429 72.7484 73.4061C72.143 72.8692 72.0745 71.9326 72.6113 71.3273" stroke="#3C3C49" stroke-miterlimit="10"/>
<path d="M74.8271 73.2805C75.364 72.6637 76.3006 72.6065 76.906 73.1434C77.5113 73.6802 77.5799 74.6168 77.043 75.2222" stroke="#3C3C49" stroke-miterlimit="10"/>
<path d="M79.2588 77.1639C78.722 77.7807 77.7854 77.8378 77.18 77.301C76.5746 76.7641 76.5061 75.8275 77.0429 75.2222" stroke="#3C3C49" stroke-miterlimit="10"/>
<path d="M79.2588 77.1753C79.7956 76.5586 80.7322 76.5014 81.3376 77.0383C81.943 77.5751 82.0115 78.5117 81.4747 79.1171" stroke="#3C3C49" stroke-miterlimit="10"/>
<path d="M83.6904 81.0589C83.1536 81.6757 82.217 81.7328 81.6116 81.196C80.9948 80.6592 80.9377 79.7226 81.4746 79.1172" stroke="#3C3C49" stroke-miterlimit="10"/>
<path d="M83.6904 81.0589C84.2273 80.4421 85.1639 80.385 85.7692 80.9218C86.3746 81.4587 86.4431 82.3953 85.9063 83.0006" stroke="#3C3C49" stroke-miterlimit="10"/>
<path d="M45.5583 105.959C48.1244 105.959 50.2045 103.749 50.2045 101.022C50.2045 98.296 48.1244 96.0858 45.5583 96.0858C42.9923 96.0858 40.9121 98.296 40.9121 101.022C40.9121 103.749 42.9923 105.959 45.5583 105.959Z" stroke="#22BD68" stroke-width="3" stroke-miterlimit="10"/>
<path d="M6.9366 96.0857C9.66301 96.0857 11.8732 93.8755 11.8732 91.1491C11.8732 88.4227 9.66301 86.2125 6.9366 86.2125C4.21019 86.2125 2 88.4227 2 91.1491C2 93.8755 4.21019 96.0857 6.9366 96.0857Z" stroke="#FF762D" stroke-width="3" stroke-miterlimit="10"/>
<path d="M47.0103 11.2924C49.7367 11.2924 51.9469 9.21224 51.9469 6.64621C51.9469 4.08018 49.7367 2 47.0103 2C44.2839 2 42.0737 4.08018 42.0737 6.64621C42.0737 9.21224 44.2839 11.2924 47.0103 11.2924Z" stroke="#3C3C49" stroke-width="3" stroke-miterlimit="10"/>
<path d="M92.0205 64.7238L58.3354 21.7463" stroke="#FEC000" stroke-width="3" stroke-miterlimit="10"/>
<path d="M204 137.158V136.471C204 129.893 198.617 124.505 192.034 124.505H166.734C166.674 124.505 166.621 124.523 166.555 124.523H140.819C146.177 106.666 145.461 89.1685 145.461 89.1685C144.875 54.6207 126.176 58.0976 126.176 58.0976C110.531 59.4358 109.079 95.6324 109.079 95.6324C101.223 110.986 77.6077 138.807 77.6077 138.807L72.249 143.09V210.943C80.4633 220.226 93.6778 221.654 93.6778 221.654H171.89V221.63H181.693C188.27 221.63 193.659 216.248 193.659 209.664V208.977C193.659 203.009 189.214 198.069 183.485 197.197H185.767C192.345 197.197 197.733 191.814 197.733 185.231V184.544C197.733 179.334 194.334 174.92 189.662 173.289C196.144 173.175 201.413 167.852 201.413 161.347V160.66C201.413 155.074 197.518 150.384 192.315 149.082C198.761 148.927 204 143.634 204 137.146V137.158Z" fill="white"/>
<path d="M67.6849 136.393H46.053C41.6054 136.393 38 139.998 38 144.446V210.943C38 215.39 41.6054 218.996 46.053 218.996H67.6849C72.1324 218.996 75.7379 215.39 75.7379 210.943V144.446C75.7379 139.998 72.1324 136.393 67.6849 136.393Z" fill="#319FE8"/>
</svg>
