<svg width="144" height="144" viewBox="0 0 144 144" fill="none" xmlns="http://www.w3.org/2000/svg">
<path d="M71.9963 0L58.623 9.50298L42.5547 6.29221L34.1753 20.4449L18.1987 24.0808L16.2694 40.4319L3.14596 50.3006L7.99942 66.0318L0 80.4045L10.7921 92.7897L9.30334 109.194L24.1772 116.093L29.4475 131.689L45.8293 131.909L56.9525 144L71.9963 137.498L87.049 143.996L98.1722 131.905L114.551 131.685L119.827 116.093L134.703 109.193L133.208 92.7912L144 80.406L136.009 66.0318L140.858 50.3006L127.731 40.4423L125.809 24.0808L109.829 20.4464L101.451 6.29221L85.3829 9.50298L71.9963 0Z" fill="#000543"/>
<path d="M75.8773 129.016H76.3244L76.0903 128.635L72.8079 123.294V119.579V119.329H72.5579H71.4455H71.1955V119.579V123.294L67.9131 128.635L67.679 129.016H68.1261H69.4H69.5423L69.615 128.893L72.0017 124.876L74.3885 128.893L74.4611 129.016H74.6034H75.8773Z" fill="white" stroke="white" stroke-width="0.5"/>
<path d="M54.666 122.848L54.378 122.771L54.3522 123.068C54.3085 123.573 54.3488 124.049 54.4766 124.494C54.6025 124.938 54.8003 125.34 55.0704 125.699C55.3387 126.059 55.6659 126.365 56.0504 126.616C56.4324 126.867 56.86 127.055 57.3313 127.182C58.1294 127.396 58.9001 127.392 59.6372 127.166C60.3738 126.939 61.0166 126.51 61.5647 125.887C62.116 125.261 62.5172 124.461 62.7757 123.496C63.0342 122.532 63.0869 121.638 62.9225 120.82C62.759 120.007 62.4168 119.314 61.8923 118.749C61.3673 118.184 60.7015 117.796 59.9034 117.583C59.4322 117.456 58.968 117.405 58.5117 117.432C58.0532 117.457 57.6173 117.557 57.2056 117.732L57.2043 117.732C56.7905 117.911 56.4178 118.162 56.0869 118.483C55.7534 118.807 55.4804 119.199 55.2666 119.656L55.1399 119.926L55.4282 120.003L56.5028 120.291L56.6993 120.344L56.7908 120.162C56.9232 119.899 57.0881 119.684 57.2839 119.513L57.2844 119.512C57.4807 119.34 57.6983 119.209 57.9383 119.118C58.1764 119.029 58.428 118.98 58.6945 118.973C58.9626 118.965 59.2324 118.998 59.5046 119.071C59.9989 119.203 60.4076 119.446 60.7376 119.798C61.0614 120.147 61.2809 120.594 61.3888 121.152C61.4924 121.702 61.4518 122.346 61.2529 123.088C61.0539 123.831 60.7674 124.408 60.4025 124.833C60.03 125.262 59.6162 125.54 59.1616 125.68C58.6996 125.82 58.2243 125.826 57.7301 125.694C57.4578 125.621 57.208 125.514 56.9796 125.373C56.7531 125.234 56.5603 125.065 56.3996 124.866L56.3996 124.866L56.3973 124.864C56.2347 124.669 56.1116 124.448 56.028 124.201L56.028 124.201L56.0273 124.199C55.9432 123.957 55.9079 123.689 55.9254 123.392L55.9374 123.188L55.7406 123.136L54.666 122.848Z" fill="white" stroke="white" stroke-width="0.5"/>
<path d="M50.9503 114.591L51.0753 114.375L50.8588 114.25L46.1972 111.558L45.9807 111.433L45.8557 111.65L45.3623 112.504L45.2373 112.721L45.4538 112.846L48.9355 114.856L44.9606 121.741L44.8356 121.957L45.0521 122.082L46.0155 122.638L46.232 122.763L46.357 122.547L50.9503 114.591Z" fill="white" stroke="white" stroke-width="0.5"/>
<path d="M32.698 110.263L32.6978 110.262C32.5895 109.797 32.6233 109.3 32.8108 108.765L32.8112 108.764C32.9944 108.234 33.3499 107.696 33.8935 107.153C34.4371 106.609 34.9747 106.254 35.5048 106.07L35.5059 106.07C36.0406 105.883 36.5376 105.849 37.0032 105.957L37.0039 105.957C37.4717 106.065 37.8851 106.296 38.247 106.658C38.6087 107.02 38.8414 107.434 38.9509 107.905C39.0572 108.368 39.0234 108.865 38.8378 109.403C38.6525 109.931 38.2958 110.468 37.7521 111.011C37.2085 111.555 36.6717 111.912 36.1434 112.097C35.6061 112.283 35.1088 112.316 34.6453 112.21C34.175 112.101 33.7605 111.868 33.3987 111.506C33.0368 111.144 32.8054 110.731 32.698 110.263ZM35.023 104.573C34.2326 104.839 33.4849 105.332 32.7787 106.038C32.0725 106.744 31.5799 107.492 31.3135 108.282C31.0485 109.068 30.9983 109.839 31.1703 110.591C31.3424 111.342 31.7251 112.011 32.3093 112.596C32.8935 113.18 33.5625 113.562 34.3143 113.735C35.0655 113.907 35.8368 113.856 36.6227 113.591C37.4131 113.325 38.1607 112.832 38.8669 112.126C39.5731 111.42 40.0657 110.672 40.3322 109.882C40.5971 109.096 40.6473 108.325 40.4754 107.574C40.3033 106.822 39.9206 106.153 39.3364 105.568C38.7522 104.984 38.0832 104.602 37.3313 104.429C36.5801 104.258 35.8089 104.308 35.023 104.573Z" fill="white" stroke="white" stroke-width="0.5"/>
<path d="M22.3593 98.7878L22.4843 99.0043L22.7009 98.8793L27.8908 95.8829C28.2464 95.6775 28.5997 95.5774 28.9535 95.5739L28.9542 95.5739C29.3019 95.5694 29.6333 95.6618 29.9525 95.8567C30.265 96.0505 30.5434 96.3481 30.7828 96.7629C31.0222 97.1775 31.1408 97.5672 31.1524 97.9346C31.1602 98.3059 31.0746 98.6397 30.8976 98.942C30.7177 99.2465 30.4544 99.5022 30.0989 99.7075L24.909 102.704L24.6925 102.829L24.8175 103.045L25.3737 104.009L25.4987 104.225L25.7152 104.1L30.9828 101.059C31.5618 100.725 32.008 100.286 32.3128 99.7431L32.3128 99.7431L32.3137 99.7415C32.6135 99.198 32.7504 98.5991 32.7273 97.951L32.7272 97.9499C32.7011 97.2983 32.4938 96.645 32.1171 95.9925C31.7404 95.34 31.2783 94.8339 30.727 94.4855L30.7261 94.4849C30.1763 94.1408 29.5898 93.9611 28.9703 93.9517C28.3455 93.9412 27.7417 94.1071 27.1623 94.4416L21.8946 97.4829L21.6781 97.6079L21.8031 97.8244L22.3593 98.7878Z" fill="white" stroke="white" stroke-width="0.5"/>
<path d="M28.214 88.8028L28.4555 88.7381L28.3908 88.4966L27.6571 85.7583C27.4072 84.8256 27.0066 84.0663 26.4459 83.4944L26.4453 83.4937C25.8825 82.9237 25.1976 82.5576 24.3974 82.3968L24.3969 82.3967C23.5958 82.2371 22.7163 82.2909 21.7637 82.5461C20.817 82.7998 20.0351 83.1896 19.4288 83.7234C18.8195 84.2581 18.4106 84.9054 18.2089 85.662C18.0041 86.4203 18.0285 87.25 18.268 88.144L19.0343 91.0037L19.099 91.2452L19.3405 91.1804L28.214 88.8028ZM26.8435 87.5007L26.602 87.5654L26.6667 87.8069L26.9082 87.7422L26.8435 87.5007ZM20.1825 89.5443L20.1178 89.3028L19.8763 89.3675L19.9411 89.609L20.1825 89.5443Z" fill="white" stroke="white" stroke-width="0.5"/>
<path d="M16.2477 77.1406V77.5877L16.6286 77.3536L21.9691 74.0712H25.6843H25.9343V73.8212V72.7088V72.4588H25.6843H21.9691L16.6286 69.1764L16.2477 68.9423V69.3894V70.6634V70.8056L16.37 70.8783L20.3871 73.265L16.37 75.6518L16.2477 75.7244V75.8667V77.1406Z" fill="white" stroke="white" stroke-width="0.5"/>
<path d="M22.4151 55.9293L22.4923 55.6413L22.1952 55.6156C21.6904 55.5718 21.2142 55.6121 20.7691 55.7399C20.3254 55.8658 19.9232 56.0636 19.5644 56.3337C19.204 56.602 18.8979 56.9292 18.6464 57.3137C18.3955 57.6957 18.2075 58.1233 18.0812 58.5946C17.8674 59.3927 17.8705 60.1634 18.0974 60.9005C18.324 61.6371 18.7531 62.2799 19.3755 62.828C20.0015 63.3793 20.8019 63.7805 21.7666 64.039C22.7313 64.2975 23.6251 64.3503 24.4428 64.1858C25.2559 64.0223 25.9489 63.6801 26.5135 63.1556C27.0785 62.6307 27.4666 61.9648 27.6804 61.1667C27.8067 60.6955 27.8577 60.2313 27.8314 59.775C27.8059 59.3166 27.706 58.8807 27.5311 58.4689L27.5305 58.4676C27.3519 58.0538 27.1011 57.6811 26.7797 57.3502C26.4556 57.0167 26.0637 56.7438 25.6074 56.5299L25.337 56.4032L25.2598 56.6915L24.9719 57.7661L24.9192 57.9626L25.1009 58.0541C25.364 58.1866 25.5792 58.3514 25.7503 58.5472L25.7507 58.5477C25.9232 58.744 26.0542 58.9617 26.1448 59.2016C26.234 59.4397 26.2827 59.6914 26.29 59.9578C26.2975 60.2259 26.2652 60.4957 26.1922 60.768C26.0598 61.2622 25.8172 61.6709 25.4646 62.0009C25.1163 62.3247 24.6687 62.5442 24.1106 62.6521C23.5605 62.7557 22.9173 62.7151 22.1746 62.5162C21.432 62.3172 20.8547 62.0307 20.43 61.6658C20.0007 61.2933 19.7228 60.8795 19.5831 60.4249C19.4427 59.9629 19.437 59.4876 19.5694 58.9934C19.6423 58.7211 19.7493 58.4713 19.8898 58.2429C20.029 58.0164 20.1979 57.8236 20.3965 57.6629L20.3965 57.6629L20.3993 57.6606C20.5944 57.498 20.8147 57.375 21.0619 57.2913L21.0619 57.2913L21.0639 57.2906C21.3059 57.2065 21.574 57.1712 21.871 57.1887L22.0745 57.2007L22.1272 57.0039L22.4151 55.9293Z" fill="white" stroke="white" stroke-width="0.5"/>
<path d="M30.6719 52.2131L30.8884 52.3381L31.0134 52.1216L33.7048 47.46L33.8298 47.2435L33.6133 47.1185L32.7587 46.6251L32.5421 46.5001L32.4171 46.7166L30.407 50.1983L23.5223 46.2234L23.3058 46.0984L23.1808 46.3149L22.6246 47.2783L22.4996 47.4948L22.7161 47.6198L30.6719 52.2131Z" fill="white" stroke="white" stroke-width="0.5"/>
<path d="M34.9999 33.9608L35.0007 33.9607C35.4662 33.8523 35.9632 33.8862 36.498 34.0736L36.499 34.074C37.0291 34.2572 37.5668 34.6127 38.1103 35.1563C38.6539 35.6999 39.0095 36.2375 39.1927 36.7677L39.1931 36.7687C39.3805 37.3035 39.4143 37.8005 39.306 38.266L39.3058 38.2667C39.1985 38.7345 38.967 39.1479 38.6052 39.5098C38.2434 39.8716 37.8288 40.1043 37.3585 40.2137C36.895 40.32 36.3977 40.2863 35.8604 40.1006C35.3321 39.9153 34.7954 39.5586 34.2517 39.015C33.708 38.4713 33.3513 37.9345 33.166 37.4063C32.9804 36.869 32.9466 36.3716 33.053 35.9081C33.1624 35.4378 33.3951 35.0233 33.7569 34.6615C34.1188 34.2996 34.5321 34.0682 34.9999 33.9608ZM40.6904 36.2858C40.4239 35.4954 39.9313 34.7477 39.2251 34.0415C38.5189 33.3353 37.7713 32.8427 36.9809 32.5763C36.195 32.3113 35.4237 32.2611 34.6725 32.4331C33.9207 32.6052 33.2517 32.9879 32.6675 33.5721C32.0833 34.1563 31.7006 34.8253 31.5285 35.5772C31.3565 36.3283 31.4067 37.0996 31.6717 37.8855C31.9381 38.6759 32.4307 39.4235 33.1369 40.1298C33.8431 40.836 34.5908 41.3286 35.3812 41.595C36.1671 41.8599 36.9383 41.9101 37.6895 41.7382C38.4414 41.5661 39.1104 41.1834 39.6946 40.5992C40.2788 40.015 40.6615 39.346 40.8336 38.5941C41.0055 37.8429 40.9553 37.0717 40.6904 36.2858Z" fill="white" stroke="white" stroke-width="0.5"/>
<path d="M46.4757 23.6222L46.2591 23.7472L46.3841 23.9637L49.3806 29.1536C49.5859 29.5092 49.686 29.8625 49.6895 30.2163L49.6895 30.2171C49.694 30.5648 49.6016 30.8961 49.4067 31.2154C49.2129 31.5278 48.9154 31.8062 48.5006 32.0457C48.0859 32.285 47.6962 32.4036 47.3289 32.4153C46.9575 32.423 46.6237 32.3374 46.3214 32.1604C46.017 31.9805 45.7612 31.7172 45.556 31.3617L42.5595 26.1718L42.4345 25.9553L42.218 26.0803L41.2546 26.6365L41.0381 26.7615L41.1631 26.978L44.2044 32.2457C44.5387 32.8246 44.977 33.2708 45.5203 33.5756L45.5203 33.5757L45.5219 33.5765C46.0655 33.8764 46.6643 34.0132 47.3124 33.9901L47.3135 33.99C47.9652 33.9639 48.6184 33.7567 49.2709 33.3799C49.9234 33.0032 50.4295 32.5411 50.778 31.9898L50.7785 31.9889C51.1227 31.4391 51.3024 30.8526 51.3118 30.2331C51.3223 29.6083 51.1563 29.0045 50.8218 28.4251L47.7806 23.1575L47.6556 22.9409L47.4391 23.0659L46.4757 23.6222Z" fill="white" stroke="white" stroke-width="0.5"/>
<path d="M56.4608 29.4773L56.5255 29.7188L56.767 29.6541L59.5053 28.9204C60.438 28.6705 61.1972 28.2699 61.7692 27.7092L61.7698 27.7086C62.3399 27.1458 62.7059 26.4609 62.8668 25.6607L62.8669 25.6602C63.0265 24.8591 62.9727 23.9796 62.7174 23.027C62.4638 22.0803 62.074 21.2984 61.5402 20.6921C61.0055 20.0828 60.3581 19.6739 59.6016 19.4722C58.8433 19.2674 58.0136 19.2918 57.1195 19.5313L54.2599 20.2976L54.0184 20.3623L54.0831 20.6038L56.4608 29.4773ZM57.7629 28.1068L57.6982 27.8653L57.4567 27.93L57.5214 28.1715L57.7629 28.1068ZM55.7192 21.4458L55.9607 21.3811L55.896 21.1397L55.6545 21.2044L55.7192 21.4458Z" fill="white" stroke="white" stroke-width="0.5"/>
<path d="M68.1227 17.5107H67.6756L67.9097 17.8916L71.1921 23.2321V26.9473V27.1973H71.4421H72.5545H72.8045V26.9473V23.2321L76.0869 17.8916L76.321 17.5107H75.8739L74.6 17.5107H74.4577L74.385 17.633L71.9983 21.6502L69.6115 17.633L69.5389 17.5107H69.3966H68.1227Z" fill="white" stroke="white" stroke-width="0.5"/>
<path d="M89.334 23.6786L89.622 23.7558L89.6478 23.4587C89.6915 22.9539 89.6512 22.4777 89.5234 22.0325C89.3975 21.5888 89.1997 21.1866 88.9296 20.8278C88.6613 20.4674 88.3341 20.1614 87.9496 19.9099C87.5676 19.6589 87.14 19.4709 86.6687 19.3447C85.8706 19.1308 85.0999 19.1339 84.3628 19.3608C83.6262 19.5875 82.9834 20.0166 82.4353 20.639C81.884 21.2649 81.4828 22.0653 81.2243 23.03C80.9658 23.9947 80.9131 24.8885 81.0775 25.7062C81.241 26.5193 81.5832 27.2123 82.1077 27.7769C82.6327 28.342 83.2985 28.73 84.0966 28.9438C84.5678 29.0701 85.032 29.1211 85.4883 29.0948C85.9468 29.0693 86.3827 28.9694 86.7944 28.7945L86.7957 28.7939C87.2095 28.6154 87.5822 28.3645 87.9131 28.0431C88.2466 27.719 88.5196 27.3271 88.7334 26.8708L88.8601 26.6005L88.5718 26.5232L87.4972 26.2353L87.3007 26.1826L87.2092 26.3643C87.0768 26.6274 86.9119 26.8426 86.7161 27.0137L86.7156 27.0141C86.5193 27.1867 86.3017 27.3177 86.0617 27.4083C85.8236 27.4974 85.572 27.5461 85.3055 27.5535C85.0374 27.5609 84.7676 27.5286 84.4954 27.4557C84.0011 27.3232 83.5924 27.0806 83.2624 26.728C82.9386 26.3797 82.7191 25.9322 82.6112 25.374C82.5076 24.8239 82.5482 24.1807 82.7471 23.4381C82.9461 22.6954 83.2326 22.1181 83.5975 21.6935C83.97 21.2641 84.3838 20.9862 84.8384 20.8465C85.3004 20.7061 85.7757 20.7004 86.2699 20.8328C86.5422 20.9058 86.792 21.0127 87.0204 21.1532C87.2469 21.2924 87.4397 21.4613 87.6004 21.6599L87.6004 21.66L87.6027 21.6628C87.7653 21.8579 87.8884 22.0781 87.972 22.3253L87.972 22.3253L87.9727 22.3273C88.0568 22.5694 88.0921 22.8374 88.0746 23.1344L88.0626 23.3379L88.2594 23.3907L89.334 23.6786Z" fill="white" stroke="white" stroke-width="0.5"/>
<path d="M93.0497 31.9353L92.9247 32.1518L93.1412 32.2768L97.8028 34.9682L98.0193 35.0932L98.1443 34.8767L98.6377 34.0221L98.7627 33.8056L98.5462 33.6806L95.0645 31.6704L99.0394 24.7857L99.1644 24.5692L98.9479 24.4442L97.9845 23.888L97.768 23.763L97.643 23.9795L93.0497 31.9353Z" fill="white" stroke="white" stroke-width="0.5"/>
<path d="M111.302 36.2628L111.302 36.2635C111.411 36.729 111.377 37.226 111.189 37.7608L111.189 37.7618C111.006 38.2919 110.65 38.8296 110.107 39.3732C109.563 39.9168 109.025 40.2723 108.495 40.4555L108.494 40.4559C107.959 40.6433 107.462 40.6771 106.997 40.5688L106.996 40.5687C106.528 40.4613 106.115 40.2298 105.753 39.868C105.391 39.5062 105.159 39.0917 105.049 38.6213C104.943 38.1578 104.977 37.6605 105.162 37.1232C105.348 36.5949 105.704 36.0582 106.248 35.5145C106.792 34.9709 107.328 34.6141 107.857 34.4288C108.394 34.2432 108.891 34.2095 109.355 34.3158C109.825 34.4253 110.24 34.6579 110.601 35.0197C110.963 35.3816 111.195 35.7949 111.302 36.2628ZM108.977 41.9532C109.768 41.6868 110.515 41.1942 111.221 40.488C111.928 39.7818 112.42 39.0341 112.687 38.2437C112.952 37.4578 113.002 36.6865 112.83 35.9354C112.658 35.1835 112.275 34.5145 111.691 33.9303C111.107 33.3461 110.438 32.9634 109.686 32.7913C108.935 32.6193 108.163 32.6695 107.377 32.9345C106.587 33.2009 105.839 33.6935 105.133 34.3997C104.427 35.1059 103.934 35.8536 103.668 36.644C103.403 37.4299 103.353 38.2012 103.525 38.9523C103.697 39.7042 104.08 40.3732 104.664 40.9574C105.248 41.5416 105.917 41.9243 106.669 42.0964C107.42 42.2683 108.191 42.2181 108.977 41.9532Z" fill="white" stroke="white" stroke-width="0.5"/>
<path d="M121.641 47.7386L121.516 47.5221L121.299 47.6471L116.109 50.6435C115.754 50.8488 115.4 50.9489 115.046 50.9525L115.046 50.9525C114.698 50.9569 114.367 50.8646 114.047 50.6697C113.735 50.4759 113.457 50.1783 113.217 49.7635C112.978 49.3489 112.859 48.9592 112.848 48.5918C112.84 48.2205 112.925 47.8867 113.102 47.5844C113.282 47.2799 113.546 47.0241 113.901 46.8189L119.091 43.8225L119.308 43.6975L119.183 43.481L118.626 42.5176L118.501 42.3011L118.285 42.4261L113.017 45.4673C112.438 45.8016 111.992 46.2399 111.687 46.7833L111.687 46.7833L111.686 46.7848C111.386 47.3284 111.25 47.9272 111.273 48.5754L111.273 48.5764C111.299 49.2281 111.506 49.8813 111.883 50.5338C112.26 51.1863 112.722 51.6925 113.273 52.0409L113.274 52.0415C113.824 52.3856 114.41 52.5653 115.03 52.5747C115.654 52.5852 116.258 52.4193 116.838 52.0848L122.105 49.0435L122.322 48.9185L122.197 48.702L121.641 47.7386Z" fill="white" stroke="white" stroke-width="0.5"/>
<path d="M115.786 57.7241L115.544 57.7888L115.609 58.0303L116.343 60.7686C116.593 61.7013 116.993 62.4606 117.554 63.0325L117.555 63.0331C118.117 63.6032 118.802 63.9692 119.603 64.1301L119.603 64.1302C120.404 64.2898 121.284 64.236 122.236 63.9807C123.183 63.7271 123.965 63.3373 124.571 62.8035C125.18 62.2688 125.589 61.6214 125.791 60.8649C125.996 60.1066 125.971 59.2769 125.732 58.3828L124.966 55.5232L124.901 55.2817L124.659 55.3464L115.786 57.7241ZM117.156 59.0262L117.398 58.9615L117.333 58.72L117.092 58.7847L117.156 59.0262ZM123.817 56.9825L123.882 57.224L124.124 57.1593L124.059 56.9178L123.817 56.9825Z" fill="white" stroke="white" stroke-width="0.5"/>
<path d="M127.752 69.3857V68.9386L127.371 69.1728L122.031 72.4551H118.316H118.066V72.7051V73.8176V74.0676H118.316H122.031L127.371 77.3499L127.752 77.584V77.1369V75.863V75.7208L127.63 75.6481L123.613 73.2613L127.63 70.8746L127.752 70.8019V70.6597V69.3857Z" fill="white" stroke="white" stroke-width="0.5"/>
<path d="M121.585 90.597L121.508 90.8851L121.805 90.9108C122.31 90.9545 122.786 90.9143 123.231 90.7864C123.675 90.6606 124.077 90.4628 124.436 90.1927C124.796 89.9244 125.102 89.5972 125.354 89.2127C125.605 88.8307 125.792 88.403 125.919 87.9318C126.133 87.1337 126.13 86.363 125.903 85.6258C125.676 84.8893 125.247 84.2465 124.624 83.6983C123.999 83.1471 123.198 82.7459 122.233 82.4874C121.269 82.2289 120.375 82.1761 119.557 82.3406C118.744 82.5041 118.051 82.8462 117.487 83.3707C116.921 83.8957 116.533 84.5616 116.32 85.3597C116.193 85.8309 116.142 86.2951 116.169 86.7513C116.194 87.2098 116.294 87.6457 116.469 88.0575L116.47 88.0588C116.648 88.4726 116.899 88.8453 117.22 89.1761C117.544 89.5097 117.936 89.7826 118.393 89.9965L118.663 90.1232L118.74 89.8348L119.028 88.7603L119.081 88.5638L118.899 88.4723C118.636 88.3398 118.421 88.175 118.25 87.9792L118.249 87.9787C118.077 87.7824 117.946 87.5647 117.855 87.3247C117.766 87.0866 117.717 86.835 117.71 86.5685C117.703 86.3004 117.735 86.0306 117.808 85.7584C117.94 85.2642 118.183 84.8554 118.535 84.5254C118.884 84.2016 119.331 83.9822 119.889 83.8743C120.44 83.7706 121.083 83.8112 121.825 84.0102C122.568 84.2092 123.145 84.4957 123.57 84.8605C123.999 85.2331 124.277 85.6469 124.417 86.1015C124.557 86.5635 124.563 87.0388 124.431 87.533C124.358 87.8052 124.251 88.055 124.11 88.2835C123.971 88.5099 123.802 88.7027 123.603 88.8635L123.603 88.8634L123.601 88.8658C123.406 89.0284 123.185 89.1514 122.938 89.235L122.938 89.235L122.936 89.2357C122.694 89.3199 122.426 89.3552 122.129 89.3376L121.926 89.3256L121.873 89.5225L121.585 90.597Z" fill="white" stroke="white" stroke-width="0.5"/>
<path d="M113.328 94.3128L113.112 94.1878L112.987 94.4043L110.295 99.0659L110.17 99.2824L110.387 99.4074L111.241 99.9008L111.458 100.026L111.583 99.8093L113.593 96.3276L120.478 100.302L120.694 100.427L120.819 100.211L121.375 99.2476L121.5 99.0311L121.284 98.9061L113.328 94.3128Z" fill="white" stroke="white" stroke-width="0.5"/>
<path d="M109 112.566L108.999 112.566C108.534 112.674 108.037 112.64 107.502 112.453L107.501 112.452C106.971 112.269 106.433 111.914 105.89 111.37C105.346 110.826 104.991 110.289 104.807 109.759L104.807 109.758C104.619 109.223 104.586 108.726 104.694 108.26L104.694 108.26C104.802 107.792 105.033 107.378 105.395 107.017C105.757 106.655 106.171 106.422 106.641 106.313C107.105 106.206 107.602 106.24 108.14 106.426C108.668 106.611 109.205 106.968 109.748 107.511C110.292 108.055 110.649 108.592 110.834 109.12C111.02 109.657 111.053 110.155 110.947 110.618C110.838 111.089 110.605 111.503 110.243 111.865C109.881 112.227 109.468 112.458 109 112.566ZM103.31 110.241C103.576 111.031 104.069 111.779 104.775 112.485C105.481 113.191 106.229 113.684 107.019 113.95C107.805 114.215 108.576 114.265 109.327 114.093C110.079 113.921 110.748 113.538 111.333 112.954C111.917 112.37 112.299 111.701 112.472 110.949C112.643 110.198 112.593 109.427 112.328 108.641C112.062 107.85 111.569 107.103 110.863 106.397C110.157 105.69 109.409 105.198 108.619 104.931C107.833 104.666 107.062 104.616 106.31 104.788C105.559 104.96 104.89 105.343 104.305 105.927C103.721 106.511 103.339 107.18 103.166 107.932C102.994 108.683 103.045 109.455 103.31 110.241Z" fill="white" stroke="white" stroke-width="0.5"/>
<path d="M97.5243 122.904L97.7409 122.779L97.6159 122.562L94.6194 117.372C94.4141 117.017 94.314 116.663 94.3105 116.31L94.3105 116.309C94.306 115.961 94.3984 115.63 94.5933 115.311C94.7871 114.998 95.0846 114.72 95.4994 114.48C95.9141 114.241 96.3038 114.122 96.6711 114.111C97.0425 114.103 97.3763 114.188 97.6786 114.365C97.983 114.545 98.2388 114.809 98.444 115.164L101.44 120.354L101.565 120.571L101.782 120.446L102.745 119.889L102.962 119.764L102.837 119.548L99.7956 114.28C99.4613 113.701 99.023 113.255 98.4797 112.95L98.4797 112.95L98.4781 112.949C97.9345 112.65 97.3357 112.513 96.6876 112.536L96.6865 112.536C96.0348 112.562 95.3816 112.769 94.7291 113.146C94.0766 113.523 93.5705 113.985 93.222 114.536L93.2215 114.537C92.8773 115.087 92.6976 115.673 92.6882 116.293C92.6777 116.918 92.8437 117.521 93.1782 118.101L96.2194 123.368L96.3444 123.585L96.5609 123.46L97.5243 122.904Z" fill="white" stroke="white" stroke-width="0.5"/>
<path d="M87.5392 117.049L87.4745 116.808L87.233 116.872L84.4947 117.606C83.562 117.856 82.8028 118.256 82.2308 118.817L82.2302 118.818C81.6601 119.381 81.2941 120.065 81.1332 120.866L81.1331 120.866C80.9735 121.667 81.0273 122.547 81.2826 123.499C81.5362 124.446 81.926 125.228 82.4598 125.834C82.9945 126.444 83.6419 126.852 84.3984 127.054C85.1567 127.259 85.9864 127.235 86.8805 126.995L89.7401 126.229L89.9816 126.164L89.9169 125.923L87.5392 117.049ZM86.2371 118.42L86.3018 118.661L86.5433 118.596L86.4786 118.355L86.2371 118.42ZM88.2808 125.081L88.0393 125.145L88.104 125.387L88.3455 125.322L88.2808 125.081Z" fill="white" stroke="white" stroke-width="0.5"/>
</svg>
