<svg width="147" height="129" viewBox="0 0 147 129" fill="none" xmlns="http://www.w3.org/2000/svg">
<path d="M57 0C52.5817 0 49 3.58172 49 8V90.0078C49 94.4261 52.5817 98.0078 57 98.0078H125.76V85.9141C125.76 83.705 127.551 81.9141 129.76 81.9141H147V8.00001C147 3.58173 143.418 0 139 0H57Z" fill="#F1CC6C"/>
<path d="M125.76 98.0083L147 81.9146H129.76C127.551 81.9146 125.76 83.7054 125.76 85.9146V98.0083Z" fill="#3C3C49"/>
<path d="M8 30.1372C3.58172 30.1372 0 33.7189 0 38.1372V120.145C0 124.563 3.58172 128.145 8 128.145H76.7596V120.066C76.7596 115.648 80.3413 112.066 84.7596 112.066H97.9998V38.1372C97.9998 33.7189 94.418 30.1372 89.9998 30.1372H8Z" fill="#FBF36F"/>
<path d="M76.7598 128.145L98 112.066H80.7598C78.5506 112.066 76.7598 113.857 76.7598 116.066V128.145Z" fill="#3C3C49"/>
</svg>
