<svg width="634" height="432" viewBox="0 0 634 432" fill="none" xmlns="http://www.w3.org/2000/svg">
<path d="M493.011 38.1718C509.883 49.6362 524.515 64.8229 535.33 82.082C545.934 99.0014 552.472 119.637 553.772 140.255C554.349 144.266 557.387 157.704 573.138 181.476C580.912 191.688 586.496 199.739 591.203 207.552C604.648 229.858 613.387 253.13 617.937 278.682C627.66 333.306 608.976 383.245 569.178 408.989C559.767 415.075 548.381 421.812 535.236 425.59C515.379 431.305 498.179 432.848 473.907 431.109C469.981 430.826 465.967 430.346 461.894 429.664C442.681 426.442 423.407 423.86 404.064 422.508C379.983 420.814 352.494 415.92 326.65 403.356C315.218 397.802 306.416 392.808 298.125 387.175C290.283 381.846 282.6 375.757 272.436 366.808C262.896 358.418 256.392 349.529 249.522 340.127L247.653 337.58C236.344 322.174 228.114 303.777 224.509 285.789C218.907 257.889 218.978 236.38 224.731 216.042C229.775 198.211 237.555 183.379 247.853 171.944C260.519 157.887 274.024 146.503 290.308 136.165C299.691 128.493 312.182 115.909 319.596 98.8362C321.092 93.6036 322.495 89.3721 323.994 85.5633C337.976 49.9579 358.89 28.4965 387.91 19.9667C413.114 12.5561 440.939 13.9756 466.239 23.9563C475.497 27.6158 484.507 32.4018 493.019 38.1855L493.011 38.1718Z" fill="#24BC9F"/>
<path d="M138.486 146.093C140.39 146.093 141.939 144.543 141.939 142.606C141.939 141.508 141.423 140.571 140.648 139.926L176.088 111.832C176.733 112.64 177.669 113.156 178.767 113.156C179.606 113.156 180.381 112.833 180.962 112.317L200.263 131.627C200.166 131.95 200.069 132.305 200.069 132.692C200.069 134.565 201.586 136.115 203.491 136.115C205.395 136.115 206.912 134.565 206.912 132.692C206.912 132.079 206.751 131.53 206.46 131.046L235.477 106.924C235.993 107.215 236.574 107.408 237.187 107.408C239.059 107.408 240.609 105.891 240.609 103.986C240.609 102.08 239.092 100.563 237.187 100.563C235.283 100.563 233.766 102.113 233.766 103.986C233.766 104.825 234.089 105.6 234.605 106.214L205.782 130.174C205.169 129.625 204.362 129.27 203.491 129.27C202.393 129.27 201.425 129.786 200.812 130.626L181.704 111.509C181.995 110.993 182.188 110.411 182.188 109.766C182.188 107.893 180.639 106.343 178.767 106.343C176.895 106.343 175.346 107.86 175.346 109.766C175.346 110.153 175.442 110.541 175.572 110.928L139.616 139.377C139.26 139.248 138.873 139.151 138.454 139.151C136.549 139.151 135 140.701 135 142.606C135 144.511 136.549 146.093 138.454 146.093H138.486Z" fill="#24BC9F"/>
<path d="M162.932 325.025C188.688 325.897 231.067 326.511 256.533 321.925C272.994 322.151 281.225 319.988 312.372 287.115L382.218 217.108C382.218 217.108 406.587 194.439 388.35 172.998C370.114 151.557 322.668 127.564 286.034 181.491C256.307 225.278 240.298 241.585 229.066 264.931C203.213 263.704 165.256 271.454 156.96 272.1" fill="white"/>
<path d="M59.7437 321.732C59.3241 319.826 59.9051 318.341 59.8728 316.468C55.5478 316.371 52.772 310.591 52.2556 310.494C52.2556 310.494 45.8971 309.106 52.0619 304.165C61.9708 296.222 81.0785 284.435 93.6663 280.27C117.26 272.423 136.465 267.902 155.573 273.359C159.672 279.01 157.09 316.726 161.382 322.216C118.939 322.797 48.7375 341.429 59.776 321.732H59.7437Z" fill="#F4C1BD"/>
<path d="M52.2233 312.658L82.1436 300.839" stroke="#964D4D" stroke-miterlimit="10"/>
<path d="M60.6475 323.572L90.4386 316.048" stroke="#964D4D" stroke-miterlimit="10"/>
<path d="M56.6775 318.212L84.6935 307.911" stroke="#964D4D" stroke-miterlimit="10"/>
<path d="M102.801 289.343C97.4427 293.574 94.9574 299.741 96.2807 307.394C108.772 308.88 114.323 292.637 121.198 282.433" stroke="#964D4D" stroke-miterlimit="10"/>
<mask id="mask0_84_49667" style="mask-type:alpha" maskUnits="userSpaceOnUse" x="220" y="15" width="401" height="417">
<path d="M493.011 38.1718C509.883 49.6362 524.515 64.8229 535.33 82.082C545.934 99.0014 552.472 119.637 553.772 140.255C554.349 144.266 557.387 157.704 573.138 181.476C580.912 191.688 586.496 199.739 591.203 207.552C604.648 229.858 613.387 253.13 617.937 278.682C627.66 333.306 608.976 383.245 569.178 408.989C559.767 415.075 548.381 421.812 535.236 425.59C515.379 431.305 498.179 432.848 473.907 431.109C469.981 430.826 465.967 430.346 461.894 429.664C442.681 426.442 423.407 423.86 404.064 422.508C379.983 420.814 352.494 415.92 326.65 403.356C315.218 397.802 306.416 392.808 298.125 387.175C290.283 381.846 282.6 375.757 272.436 366.808C262.896 358.418 256.392 349.529 249.522 340.127L247.653 337.58C236.344 322.174 228.114 303.777 224.509 285.789C218.907 257.889 218.978 236.38 224.731 216.042C229.775 198.211 237.555 183.379 247.853 171.944C260.519 157.887 274.024 146.503 290.308 136.165C299.691 128.493 312.182 115.909 319.596 98.8362C321.092 93.6036 322.495 89.3721 323.994 85.5633C337.976 49.9579 358.89 28.4965 387.91 19.9667C413.114 12.5561 440.939 13.9756 466.239 23.9563C475.497 27.6158 484.507 32.4018 493.019 38.1855L493.011 38.1718Z" fill="#E7FAFF"/>
</mask>
<g mask="url(#mask0_84_49667)">
<path d="M444.705 146.907C419.465 133.28 390.674 135.895 360.141 137.122C350.748 137.51 346.778 136.735 337.902 139.77C335.675 140.513 319.601 147.908 310.435 151.976C306.755 165.087 306.271 179.456 305.755 192.857C305.335 204.127 302.915 215.17 302.075 226.408C299.719 257.311 295.588 288.052 293.845 319.051C293.458 326.155 284.097 427.647 282.387 427.518L474.787 430.585C473.915 393.999 487.794 272.81 490.409 229.249C492.668 191.888 469.138 160.017 444.705 146.842V146.907Z" fill="#FF7B6E"/>
<path d="M291.876 420.833V398.294" stroke="#111010" stroke-width="0.75" stroke-linecap="round" stroke-linejoin="round"/>
<path d="M303.689 420.833V398.294" stroke="#111010" stroke-width="0.75" stroke-linecap="round" stroke-linejoin="round"/>
<path d="M315.502 420.833V398.294" stroke="#111010" stroke-width="0.75" stroke-linecap="round" stroke-linejoin="round"/>
<path d="M327.316 420.833V398.294" stroke="#111010" stroke-width="0.75" stroke-linecap="round" stroke-linejoin="round"/>
<path d="M339.097 420.833V398.294" stroke="#111010" stroke-width="0.75" stroke-linecap="round" stroke-linejoin="round"/>
<path d="M350.91 420.833V398.294" stroke="#111010" stroke-width="0.75" stroke-linecap="round" stroke-linejoin="round"/>
<path d="M362.723 420.833V398.294" stroke="#111010" stroke-width="0.75" stroke-linecap="round" stroke-linejoin="round"/>
<path d="M374.536 420.833V398.294" stroke="#111010" stroke-width="0.75" stroke-linecap="round" stroke-linejoin="round"/>
<path d="M386.317 420.833V398.294" stroke="#111010" stroke-width="0.75" stroke-linecap="round" stroke-linejoin="round"/>
<path d="M398.13 420.833V398.294" stroke="#111010" stroke-width="0.75" stroke-linecap="round" stroke-linejoin="round"/>
<path d="M409.943 420.833V398.294" stroke="#111010" stroke-width="0.75" stroke-linecap="round" stroke-linejoin="round"/>
<path d="M421.724 420.833V398.294" stroke="#111010" stroke-width="0.75" stroke-linecap="round" stroke-linejoin="round"/>
<path d="M433.538 420.833V398.294" stroke="#111010" stroke-width="0.75" stroke-linecap="round" stroke-linejoin="round"/>
<path d="M445.351 420.833V398.294" stroke="#111010" stroke-width="0.75" stroke-linecap="round" stroke-linejoin="round"/>
<path d="M457.164 420.833V398.294" stroke="#111010" stroke-width="0.75" stroke-linecap="round" stroke-linejoin="round"/>
<path d="M468.977 420.833V398.294" stroke="#111010" stroke-width="0.75" stroke-linecap="round" stroke-linejoin="round"/>
</g>
<path d="M390.836 237.839C397.485 217.883 404.521 197.507 409.459 177.164C413.817 159.307 428.535 146.971 448.126 152.525C472.011 159.307 484.05 183.267 490.376 205.257C497.219 229.088 484.825 254.921 476.207 276.653C469.074 294.639 455.324 318.987 439.993 331.354C421.305 346.402 394.031 358.447 378.474 329.772C367.532 309.59 375.278 285.081 381.766 264.77C384.703 255.599 387.866 246.719 390.803 237.871L390.836 237.839Z" fill="white"/>
<path d="M409.75 30.5614L404.037 35.6311" stroke="#0C0C0C" stroke-miterlimit="10"/>
<path d="M396.968 44.8018C396.968 46.8361 398.55 48.5153 400.583 48.5476C402.584 48.5799 404.295 46.9653 404.295 44.931C404.327 42.9289 402.713 41.2175 400.712 41.1852C398.647 41.1529 397 42.7674 396.936 44.8018H396.968Z" fill="white"/>
<path d="M341.743 94.7886C341.743 94.7886 346.617 122.042 350.458 142.644C350.458 142.644 360.334 158.047 406.07 141.74C406.07 141.74 401.519 116.456 398.517 87.2324" fill="#FFCFCA"/>
<g style="mix-blend-mode:multiply" opacity="0.4">
<path d="M340.484 91.4304C340.484 91.4304 348.392 98.7928 359.979 91.8179L346.649 126.563L340.484 91.4304Z" fill="#BFA7A5"/>
</g>
<path d="M371.341 109.546C361.948 111.709 348.069 114.551 340.258 109.191C321.441 96.2417 327.574 61.8192 328.026 51.1308C328.413 42.5091 329.414 30.7551 335.352 23.8124C340.226 18.1615 348.489 18.6781 355.235 17.774C363.659 16.6438 372.309 15.6105 380.701 17.5479C389.448 19.55 399.131 24.7812 405.909 30.6905C405.909 30.6905 397.969 66.114 399.002 102.732C399.002 102.732 375.02 108.642 373.084 109.094C372.503 109.255 371.922 109.384 371.308 109.546H371.341Z" fill="#FFCFCA"/>
<path d="M416.754 72.2493C417.302 70.5056 417.754 68.7942 418.109 67.0827C419.304 61.3349 418.69 55.9423 418.755 50.1944C418.852 43.1872 418.69 36.9227 415.527 30.3999C409.556 18.0969 396.678 11.4126 383.896 8.34497C371.631 5.40647 347.327 -2.34343 335.03 1.9513C321.474 6.66583 316.083 20.6802 316.374 33.8873C316.503 40.055 315.857 43.7685 320.215 48.9351C321.28 50.1621 327.574 57.2662 327.671 55.3287C328.381 42.7674 333.029 40.6362 340.452 30.8197C346.875 39.7321 357.042 46.5455 367.468 51.6798C380.217 57.9766 387.64 53.5527 389.061 73.7025C390.513 71.4098 392.32 65.9526 393.741 64.4349C397.904 71.9264 396.71 83.3252 400.228 91.7856C408.297 83.8742 413.203 83.5836 416.786 72.1848L416.754 72.2493Z" fill="#000543"/>
<path d="M391.191 60.1725C391.191 60.1725 398.066 47.5466 407.458 54.3278C416.883 61.1089 413.429 77.4806 390.061 79.7733" fill="#FFCFCA"/>
<path d="M401.842 61.9808L396.161 67.0506" stroke="#48424C" stroke-linecap="round" stroke-linejoin="round"/>
<path d="M347.069 143.839L341.969 235.449L414.204 136.703L347.069 143.839Z" fill="white"/>
<path d="M363.659 141.944L403.004 120.244L415.204 140.588L379.926 165L365.015 143.3L354.17 159.575L339.258 141.944L346.036 127.026L366.37 144.657L363.659 141.944Z" fill="white"/>
<path d="M354.17 159.436V170.318L341.969 186.593L340.614 238.129L374.536 194.73L366.37 172.998L375.859 159.436L363.659 141.805L354.17 159.436Z" fill="#FF7B6E"/>
<path d="M367.306 68.7297C367.306 74.5744 363.272 79.3212 358.301 79.3212C353.33 79.3212 349.296 74.5744 349.296 68.7297C349.296 62.885 353.33 58.1382 358.301 58.1382C363.272 58.1382 367.306 62.885 367.306 68.7297Z" stroke="#48424C" stroke-width="0.75" stroke-linecap="round" stroke-linejoin="round"/>
<path d="M338.29 67.7933C338.29 73.5411 334.19 78.2234 329.155 78.2234C324.12 78.2234 320.021 73.5411 320.021 67.7933C320.021 62.0455 324.12 57.3955 329.155 57.3955C334.19 57.3955 338.29 62.0455 338.29 67.7933Z" stroke="#48424C" stroke-width="0.75" stroke-linecap="round" stroke-linejoin="round"/>
<path d="M334.578 87.9753C340 96.6617 352.782 95.0148 356.3 87.9753" stroke="#48424C" stroke-width="0.75" stroke-linecap="round" stroke-linejoin="round"/>
<path d="M338.709 67.5673C341.679 63.8215 345.132 65.5652 348.102 67.3089" stroke="#48424C" stroke-width="0.75" stroke-linecap="round" stroke-linejoin="round"/>
<path d="M343.647 56.6205C349.845 65.21 331.705 76.0921 346.165 79.7733" stroke="#48424C" stroke-width="0.8" stroke-linecap="round" stroke-linejoin="round"/>
<path d="M329.801 66.663C329.543 67.7609 330.22 68.8588 331.35 69.1172C332.448 69.3755 333.545 68.6974 333.803 67.5995C334.061 66.5016 333.384 65.4037 332.254 65.1453C331.156 64.887 330.059 65.5651 329.801 66.663Z" fill="#48424C" stroke="#48424C" stroke-width="0.5" stroke-linecap="round" stroke-linejoin="round"/>
<path d="M356.074 66.9537C355.816 68.0516 356.494 69.1495 357.591 69.4078C358.688 69.6661 359.786 68.988 360.044 67.8901C360.334 66.7922 359.624 65.6943 358.527 65.436C357.43 65.1777 356.3 65.8558 356.074 66.9537Z" fill="#48424C" stroke="#48424C" stroke-width="0.5" stroke-linecap="round" stroke-linejoin="round"/>
<path d="M427.211 298.417C408.846 260.507 389.448 223.114 371.341 185.107C331.35 101.15 335.062 132.085 300.107 147.649C304.754 159.985 307.595 171.19 313.34 183.525C314.502 186.011 315.696 188.369 316.923 190.661C325.573 219.336 337.031 247.397 348.618 274.909C358.301 297.868 369.436 350.955 398.873 353.022C432.117 355.347 439.121 323.056 427.211 298.45V298.417Z" fill="#FFCFCA"/>
<path d="M339.387 120.363C338.742 119.588 338.096 118.813 337.547 118.038C334.707 114.163 325.895 106.704 320.796 110.644C313.985 115.875 316.309 117.651 316.309 117.651C316.309 117.651 304.077 118.587 305.077 125.627C305.077 125.627 297.008 128.049 297.105 135.443C295.265 137.93 285.421 136.218 289.843 149.006C294.297 161.825 322.991 182.007 322.991 182.007L357.204 163.214C357.526 163.375 356.139 164.473 355.977 164.538C353.492 161.664 354.105 155.399 354.041 151.686C353.944 145.809 353.201 139.221 350.361 133.861C347.811 129.082 343.099 124.69 339.419 120.331L339.387 120.363Z" fill="#FFCFCA"/>
<path d="M342.421 126.078C341.743 127.725 341.065 123.753 341.614 122.59" stroke="#0C0C0C" stroke-opacity="0.3" stroke-width="0.75" stroke-miterlimit="10"/>
<path d="M316.373 117.714C316.373 117.714 318.342 121.363 320.44 123.172" stroke="#0C0C0C" stroke-opacity="0.3" stroke-width="0.75" stroke-miterlimit="10"/>
<path d="M305.174 125.917C305.174 125.917 307.111 129.566 309.209 131.375" stroke="#0C0C0C" stroke-opacity="0.3" stroke-width="0.75" stroke-miterlimit="10"/>
<path d="M296.363 135.669C296.363 135.669 298.299 139.318 300.397 141.127" stroke="#0C0C0C" stroke-opacity="0.3" stroke-width="0.75" stroke-miterlimit="10"/>
<path d="M337.128 121.493C337.128 121.493 321.7 89.396 317.923 86.4898C314.147 83.5836 304.399 87.071 325.831 130.89" fill="#FFCFCA"/>
<path d="M354.622 153.042C354.622 153.042 363.949 115.843 364.208 111.063C364.498 106.284 356.074 100.214 332.028 142.644" fill="#FFCFCA"/>
<path d="M418.206 92.1085C433.537 82.0982 433.182 65.113 430.988 48.9674" stroke="white" stroke-miterlimit="10"/>
<path d="M430.988 93.723C440.8 88.5241 441.703 73.0566 443.769 63.3693" stroke="white" stroke-miterlimit="10"/>
<path d="M345 121.46C349.357 118.845 364.204 94.5939 363.494 115.293C363.172 124.722 356.975 133.602 355.748 142.998" stroke="#0C0C0C" stroke-opacity="0.1" stroke-width="0.75" stroke-miterlimit="10"/>
<path d="M332.383 321.441H213.606V330.289H332.383V321.441Z" fill="#B7B7B7"/>
<path d="M59.3887 330.289L0 199.994H171.323L233.036 330.289H59.3887Z" fill="#B7B7B7"/>
<path d="M83.2087 270.485C86.6945 284.435 100.832 295.77 114.807 295.77C128.783 295.77 137.239 284.435 133.754 270.485C130.268 256.536 116.131 245.201 102.155 245.201C88.1793 245.201 79.7228 256.536 83.2087 270.485Z" fill="white"/>
<path d="M485.761 72.1525V25.2979C485.761 13.2855 495.508 3.53357 507.515 3.53357H612.091C624.098 3.53357 633.845 13.2855 633.845 25.2979V72.1525C633.845 84.1648 624.098 93.9168 612.091 93.9168H518.844L519.361 94.1105L491.441 109.836L499.51 92.3668C491.506 89.1377 485.825 81.3232 485.825 72.1525H485.761Z" fill="white"/>
<path d="M516.23 30.5936C516.23 32.9509 514.325 34.8561 511.969 34.8561H503.932C501.576 34.8561 499.672 32.9509 499.672 30.5936C499.672 28.2364 501.576 26.3312 503.932 26.3312H511.969C514.325 26.3312 516.23 28.2364 516.23 30.5936Z" fill="#3C3C49"/>
<path d="M576.845 30.5936C576.845 32.9509 574.941 34.8561 572.584 34.8561H524.041C521.684 34.8561 519.78 32.9509 519.78 30.5936C519.78 28.2364 521.684 26.3312 524.041 26.3312H572.584C574.941 26.3312 576.845 28.2364 576.845 30.5936Z" fill="#3C3C49"/>
<path d="M584.398 50.033C584.398 52.3902 582.493 54.2954 580.137 54.2954H503.9C501.544 54.2954 499.64 52.3902 499.64 50.033C499.64 47.6757 501.544 45.7705 503.9 45.7705H580.137C582.493 45.7705 584.398 47.6757 584.398 50.033Z" fill="#3C3C49"/>
<path d="M612.833 50.033C612.833 52.3902 610.929 54.2954 608.573 54.2954H592.951C590.595 54.2954 588.69 52.3902 588.69 50.033C588.69 47.6757 590.595 45.7705 592.951 45.7705H608.573C610.929 45.7705 612.833 47.6757 612.833 50.033Z" fill="#3C3C49"/>
<path d="M580.621 69.4399C580.621 71.7972 578.717 73.7024 576.361 73.7024H503.9C501.544 73.7024 499.64 71.7972 499.64 69.4399C499.64 67.0827 501.544 65.1775 503.9 65.1775H576.361C578.717 65.1775 580.621 67.0827 580.621 69.4399Z" fill="#3C3C49"/>
</svg>
