<svg width="468" height="440" viewBox="0 0 468 440" fill="none" xmlns="http://www.w3.org/2000/svg">
<path d="M340.011 35.1721C356.883 46.6365 371.515 61.8233 382.33 79.0824C392.934 96.0018 399.472 116.638 400.772 137.256C401.349 141.266 404.386 154.704 420.138 178.476C427.912 188.688 433.496 196.739 438.203 204.552C451.648 226.859 460.386 250.13 464.937 275.682C474.66 330.306 455.976 380.246 416.178 405.989C406.767 412.075 395.381 418.812 382.236 422.591C362.379 428.305 345.179 429.848 320.907 428.11C316.981 427.826 312.967 427.346 308.894 426.665C289.681 423.443 220.407 420.861 201.064 419.508C176.983 417.815 149.494 412.92 123.65 400.357C112.217 394.802 103.416 389.809 95.1252 384.175C87.2831 378.847 79.6001 372.758 69.4359 363.808C59.8954 355.418 53.3917 346.529 46.5217 337.127L44.6527 334.58C33.3441 319.174 25.1143 300.777 21.5084 282.789C15.9067 254.889 15.9781 233.381 21.7305 213.042C26.775 195.211 34.5551 180.38 44.8527 168.945C57.519 154.888 71.0242 143.504 87.3082 133.165C96.6911 125.493 109.182 112.909 116.596 95.8364C118.092 90.6039 119.495 86.3724 120.994 82.5636C134.976 46.9582 155.89 25.4968 184.91 16.9669C210.114 9.55638 287.938 10.976 313.239 20.9566C322.496 24.6161 331.507 29.4022 340.019 35.1858L340.011 35.1721Z" fill="#FFB5B0"/>
<path d="M130.255 149.5V226.719H226.54V283.408" stroke="white" stroke-linecap="round" stroke-linejoin="round" stroke-dasharray="3.5 3.5"/>
<path d="M150.225 208.266V243.909C150.225 248.327 153.806 251.909 158.225 251.909H190.195C194.614 251.909 198.195 248.327 198.195 243.909V202.319C198.195 197.901 194.614 194.319 190.195 194.319H165.599L150.225 208.266Z" fill="white"/>
<path d="M165.599 194.319V208.266H150.225L165.599 194.319Z" fill="white" stroke="black" stroke-opacity="0.4" stroke-width="0.25" stroke-linecap="round" stroke-linejoin="round"/>
<path d="M166.451 222.298C170.215 225.635 173.763 223.213 175 222.19C174.892 222.083 174.677 221.921 174.623 221.867C173.602 220.737 170.752 217.238 170.752 217.238C170.161 216.485 169.247 216 168.226 216C166.451 216 165 217.507 165 219.337C165 220.145 165.269 220.898 165.752 221.49C165.914 221.652 166.505 222.352 166.451 222.298Z" fill="#0055A7"/>
<path d="M184.045 216.972C182.716 215.676 180.613 215.676 179.285 216.972L175.244 221.722C175.244 221.722 170.76 226.365 166 222.262C166.941 223.396 169.155 226.095 170.926 227.823C171.203 228.093 171.369 228.471 171.369 228.902V233.653C171.369 235.489 172.864 237 174.746 237C176.628 237 178.122 235.489 178.122 233.653V229.01C178.122 227.823 178.786 228.255 184.045 221.722C185.318 220.373 185.318 218.267 184.045 216.972Z" fill="#05B9DF"/>
<g opacity="0.7">
<mask id="mask0_84_49801" style="mask-type:luminance" maskUnits="userSpaceOnUse" x="164" y="215" width="11" height="9">
<path d="M174.631 215.692H164.523V223.778H174.631V215.692Z" fill="white"/>
</mask>
<g mask="url(#mask0_84_49801)">
<mask id="mask1_84_49801" style="mask-type:luminance" maskUnits="userSpaceOnUse" x="164" y="215" width="11" height="9">
<path d="M174.631 215.692H164.523V223.778H174.631V215.692Z" fill="white"/>
</mask>
<g mask="url(#mask1_84_49801)">
<path d="M165.998 222.084C169.823 225.472 173.429 223.013 174.685 221.975C174.576 221.866 174.357 221.702 174.303 221.647C173.265 220.5 170.369 216.949 170.369 216.949C169.768 216.184 168.839 215.692 167.801 215.692C165.998 215.692 164.523 217.222 164.523 219.079C164.523 219.899 164.796 220.664 165.288 221.265C165.452 221.429 166.053 222.139 165.998 222.084Z" fill="url(#paint0_linear_84_49801)" fill-opacity="0.7"/>
</g>
</g>
</g>
<path d="M213.188 48.3326C207.66 47.9746 202.337 48.5372 197.27 49.8158C193.533 50.7876 189.797 48.6394 188.824 44.957C182.119 19.1284 158.728 0 130.782 0C102.835 0 79.2906 19.1796 72.6367 45.1104C71.6642 48.8952 67.8254 51.0433 64.0378 50.0204C58.9194 48.5883 53.4939 47.9234 47.8125 48.2303C21.7598 49.6624 0.467278 71.7061 0.00662226 97.7903C-0.454034 126.074 22.3228 149.141 50.5252 149.141H209.81C238.268 149.141 261.199 125.665 260.328 97.0743C259.561 71.4504 238.729 49.8669 213.086 48.2814L213.188 48.3326Z" fill="white"/>
<path d="M99.065 87.2905C97.2509 87.2905 96.3739 89.5116 97.6987 90.751L128.664 119.721C129.434 120.44 130.629 120.44 131.398 119.719L162.309 90.7498C163.632 89.5098 162.754 87.2905 160.941 87.2905H150.08C148.975 87.2905 148.08 86.395 148.08 85.2905V51C148.08 49.8954 147.184 49 146.08 49H113.984C112.879 49 111.984 49.8954 111.984 51V85.2905C111.984 86.3951 111.088 87.2905 109.984 87.2905H99.065Z" fill="#FA7CA2"/>
<path d="M327.935 147.157C327.935 147.157 310.07 126.73 282.026 134.712C253.939 142.737 230.705 196.851 264.375 272.98H364.224C364.224 272.98 365.813 146.298 327.935 147.114V147.157Z" fill="#000543"/>
<path d="M316.812 228.821C311.959 234.1 299.247 246.073 283.744 245.73V251.008V269.117C287.996 291.347 323.168 272.98 323.168 272.98V226.719C322.696 226.719 322.266 226.719 321.837 226.719C319.904 226.59 318.058 227.405 316.812 228.821Z" fill="#FFCFCA"/>
<path d="M339.058 212.901C341.678 195.649 321.966 191.83 316.941 204.618C318.573 200.327 333.304 158.615 280.824 151.405C280.824 151.405 259.394 158.4 257.289 182.689C256.903 187.281 255.786 191.701 254.584 196.121C251.406 207.493 248.614 229.036 267.897 240.923C273.351 244.313 278.719 245.687 283.787 245.772C299.29 246.116 312.002 234.143 316.855 228.864C318.144 227.405 319.947 226.633 321.88 226.762C322.309 226.762 322.739 226.762 323.211 226.762C328.537 226.762 337.255 224.873 339.101 212.901H339.058Z" fill="#FFCFCA"/>
<path d="M316.812 204.919C316.812 204.919 316.898 204.704 316.941 204.575C318.573 200.284 333.304 158.572 280.824 151.362C280.824 151.362 259.394 158.357 257.289 182.646C256.903 187.238 255.786 191.658 254.584 196.078C251.406 207.451 248.614 228.993 267.897 240.88C273.351 244.271 278.719 245.644 283.787 245.73C299.29 246.073 312.002 234.1 316.855 228.822C318.144 227.363 319.947 226.59 321.88 226.719C322.309 226.719 322.739 226.719 323.211 226.719C328.537 226.719 337.255 224.831 339.101 212.858C341.721 195.606 322.009 191.787 316.984 204.575" stroke="black" stroke-opacity="0.4" stroke-width="0.25" stroke-linecap="round" stroke-linejoin="round"/>
<path d="M283.744 245.773V251.051V269.16C287.996 291.39 323.168 273.023 323.168 273.023V226.762" stroke="black" stroke-width="0.25" stroke-linecap="round" stroke-linejoin="round"/>
<path d="M332.316 211.313C332.316 211.313 325.015 208.652 320.42 215.432" stroke="black" stroke-width="0.25" stroke-linecap="round" stroke-linejoin="round"/>
<path d="M258.921 180.072C258.921 180.072 265.062 175.566 269.829 181.574" stroke="black" stroke-width="0.25" stroke-linecap="round" stroke-linejoin="round"/>
<path d="M284.56 183.977C284.56 183.977 294.18 177.411 302.296 188.998" stroke="black" stroke-width="0.25" stroke-linecap="round" stroke-linejoin="round"/>
<path d="M272.492 185.393C272.492 185.393 275.369 195.349 267.768 202.301C265.492 204.361 266.737 208.266 269.829 208.395C269.872 208.395 269.915 208.395 269.958 208.395" stroke="black" stroke-width="0.25" stroke-linecap="round" stroke-linejoin="round"/>
<path d="M266.909 218.394C266.909 218.394 275.241 224.23 284.131 217.707" stroke="black" stroke-width="0.25" stroke-linecap="round" stroke-linejoin="round"/>
<path d="M293.529 197.902C293.981 195.793 293.145 193.826 291.661 193.508C290.176 193.19 288.606 194.641 288.154 196.75C287.701 198.859 288.538 200.826 290.022 201.144C291.506 201.462 293.076 200.011 293.529 197.902Z" fill="#48424C"/>
<path d="M268.449 193.894C268.862 191.971 268.106 190.178 266.761 189.89C265.416 189.602 263.991 190.927 263.578 192.851C263.166 194.774 263.921 196.567 265.267 196.855C266.612 197.143 268.037 195.818 268.449 193.894Z" fill="#48424C"/>
<path d="M259.823 171.789C259.823 171.789 283.83 177.969 303.499 161.147C303.499 161.147 301.094 185.35 317.929 201.829L334.764 180.029L307.106 142.78H275.584C275.584 142.78 252.007 153.25 259.866 171.832L259.823 171.789Z" fill="#000543"/>
<path d="M174.189 352.799C171.655 349.109 169.808 345.032 168.735 340.655L162.636 316.022L158.9 301.045L157.998 297.355C157.998 297.355 157.912 297.054 157.869 296.883C157.268 295.295 156.023 294.008 154.476 293.407C154.004 293.192 153.532 293.106 153.016 293.063C152.802 293.063 152.63 293.063 152.415 293.063C152.2 293.063 151.986 293.064 151.771 293.106C151.599 293.106 151.427 293.149 151.256 293.192H151.17C150.955 293.192 150.74 293.321 150.525 293.407C150.397 293.407 150.268 293.536 150.096 293.578C149.924 293.664 149.752 293.75 149.581 293.879C149.366 294.008 149.151 294.136 148.979 294.308C148.808 294.437 148.679 294.565 148.55 294.694C148.421 294.823 148.292 294.995 148.163 295.123C147.82 295.552 147.519 296.067 147.304 296.582C147.004 297.312 146.875 298.127 146.918 298.943L147.906 309.714L149.022 321.944L143.268 313.405L136.826 303.835L128.108 290.875C126.519 288.386 123.384 287.399 120.678 288.515C120.42 288.643 120.12 288.772 119.905 288.901C118.702 289.587 117.801 290.66 117.328 291.905C116.727 293.493 116.77 295.338 117.629 296.969L129.138 317.739L115.009 297.012C113.205 294.308 109.598 293.493 106.764 295.166C105.518 295.896 104.659 296.969 104.187 298.213C103.543 299.887 103.628 301.775 104.53 303.449L117.5 324.734L104.53 310.1C102.898 308.083 99.9351 307.783 97.8737 309.371C97.1866 309.929 96.6712 310.658 96.3706 311.431C95.8123 312.89 95.9411 314.563 96.9289 315.937L111.96 337.308L102.297 329.712C99.8922 328.081 96.6712 328.725 95.0822 331.128C94.8675 331.428 94.6957 331.772 94.5669 332.115C93.7938 334.089 94.3521 336.406 95.9841 337.865L123.255 362.026L129.954 367.948L131.372 369.192C134.292 371.81 136.826 374.857 138.801 378.247" fill="#FFCFCA"/>
<path d="M171.655 348.465C171.097 350.568 170.581 352.714 170.109 354.945L126.776 369.364C122.911 370.651 120.549 374.557 121.236 378.548C124.028 394.426 133.734 431.718 163.152 431.718C200.558 431.718 214.386 408.201 214.386 408.201L218 421.5L295.5 428L374.36 431.718C374.36 431.718 398.968 449.012 426.668 431.718C440.54 423.049 444.319 408.802 444.662 396.7C444.963 385.757 442.257 374.986 437.447 365.116C424.521 338.595 384.839 265.642 337.641 263.539C316.984 262.638 299.033 262.38 284.517 262.423C231.822 262.595 184.796 297.484 171.569 348.422L171.655 348.465Z" fill="#FA7CA2"/>
<path d="M350.77 277.443H172.998C168.58 277.443 164.998 281.025 164.998 285.443V404.621C164.998 409.039 168.58 412.621 172.998 412.621H350.77C355.189 412.621 358.77 409.039 358.77 404.621V285.443C358.77 281.025 355.189 277.443 350.77 277.443Z" fill="white"/>
<path d="M350.77 277.443H172.998C168.58 277.443 164.998 281.025 164.998 285.443V289.416H358.77V285.443C358.77 281.025 355.189 277.443 350.77 277.443Z" fill="#3C3C49"/>
<path d="M351.169 286.669C352.972 286.669 354.433 285.209 354.433 283.408C354.433 281.607 352.972 280.146 351.169 280.146C349.367 280.146 347.905 281.607 347.905 283.408C347.905 285.209 349.367 286.669 351.169 286.669Z" fill="#ED7971"/>
<path d="M340.433 286.669C342.235 286.669 343.696 285.209 343.696 283.408C343.696 281.607 342.235 280.146 340.433 280.146C338.63 280.146 337.169 281.607 337.169 283.408C337.169 285.209 338.63 286.669 340.433 286.669Z" fill="#05B9DF"/>
<path d="M329.61 286.669C331.413 286.669 332.874 285.209 332.874 283.408C332.874 281.607 331.413 280.146 329.61 280.146C327.807 280.146 326.346 281.607 326.346 283.408C326.346 285.209 327.807 286.669 329.61 286.669Z" fill="#45B035"/>
<path d="M381.145 362.498C376.55 356.19 374.532 348.293 375.906 340.44C376.55 336.578 375.434 332.587 372.943 329.583L357.869 311.731L355.721 305.551C355.592 305.208 355.464 304.865 355.292 304.564C354.905 303.878 354.433 303.277 353.832 302.805C352.157 301.303 349.709 300.788 347.433 301.56C344.298 302.676 342.494 305.895 343.181 309.113L344.813 316.409L349.752 338.595L340.733 321.086L333.948 307.869C333.561 307.01 333.003 306.281 332.316 305.723C330.126 303.792 326.733 303.492 324.156 305.466C321.837 307.225 321.064 310.315 322.138 313.018L331.156 331.943L338.199 346.834L329.911 333.317L321.837 320.185C321.45 319.584 321.021 319.069 320.549 318.64C318.358 316.709 315.137 316.366 312.561 317.911C309.511 319.756 308.438 323.618 310.027 326.794L320.806 343.659L328.451 355.632L319.861 344.732L310.972 333.488C310.757 333.188 310.456 332.93 310.156 332.673C307.837 330.656 304.272 330.527 301.824 332.587C301.609 332.802 301.352 333.016 301.137 333.231C299.29 335.334 298.99 338.423 300.536 340.869C303.327 345.289 306.505 350.611 309.898 355.975C314.622 363.356 319.69 370.78 324.972 375.758L339.874 389.92C341.979 391.851 343.696 394.082 345.114 396.528C345.844 397.859 346.66 399.189 347.476 400.605" fill="#FFCFCA"/>
<path d="M374.403 431.761L349.838 410.561C346.359 407.557 346.016 402.322 349.022 398.846L383.121 360.18C385.998 356.876 390.98 356.447 394.416 359.151L429.116 386.358" fill="#FA7CA2"/>
<path d="M374.403 431.761L349.838 410.561C346.359 407.557 346.016 402.322 349.022 398.846L383.121 360.18C385.998 356.876 390.98 356.447 394.416 359.151L429.116 386.358" stroke="black" stroke-opacity="0.3" stroke-width="0.25" stroke-linecap="round" stroke-linejoin="round"/>
<path d="M347.347 400.734C346.531 399.318 345.715 397.987 344.985 396.657C343.568 394.211 341.807 391.979 339.745 390.048L324.843 375.887C319.561 370.909 314.493 363.485 309.769 356.104C306.376 350.739 303.198 345.375 300.407 340.998C298.861 338.552 299.161 335.462 301.008 333.359C301.223 333.145 301.481 332.887 301.695 332.716C304.143 330.613 307.708 330.785 310.027 332.801C310.327 333.059 310.585 333.316 310.843 333.617L319.733 344.86L328.322 355.76L320.677 343.787L309.898 326.922C308.309 323.747 309.383 319.884 312.432 318.039C315.009 316.537 318.229 316.88 320.42 318.769C320.892 319.198 321.365 319.713 321.708 320.314L329.782 333.445L338.071 346.963L331.027 332.072L322.009 313.147C320.892 310.486 321.708 307.397 324.027 305.594C326.604 303.663 329.997 303.921 332.187 305.852C332.874 306.452 333.432 307.182 333.819 307.997L340.604 321.215L349.623 338.724L344.684 316.58L343.052 309.242C342.322 305.98 344.169 302.762 347.304 301.689C349.623 300.874 352.028 301.432 353.703 302.934C354.261 303.448 354.776 304.049 355.163 304.693C355.335 304.993 355.464 305.337 355.592 305.68L357.74 311.86L372.814 329.712C375.348 332.716 376.421 336.707 375.777 340.569C374.446 348.422 376.421 356.318 381.016 362.627L347.304 400.82L347.347 400.734Z" fill="#FFCFCA"/>
<path d="M355.592 305.594L357.783 311.774L366.629 337.05" stroke="black" stroke-opacity="0.4" stroke-width="0.25" stroke-linecap="round" stroke-linejoin="round"/>
<defs>
<linearGradient id="paint0_linear_84_49801" x1="169.604" y1="219.752" x2="169.604" y2="223.812" gradientUnits="userSpaceOnUse">
<stop stop-opacity="0"/>
<stop offset="1" stop-opacity="0.7"/>
</linearGradient>
</defs>
</svg>
