<svg width="574" height="457" viewBox="0 0 574 457" fill="none" xmlns="http://www.w3.org/2000/svg">
<path d="M256.937 86.7817C272.783 97.5487 286.524 111.812 296.682 128.021C306.641 143.911 312.781 163.292 314.002 182.655C314.543 186.422 317.396 199.043 332.189 221.368C339.491 230.959 344.735 238.521 349.156 245.858C361.783 266.808 369.99 288.664 374.264 312.661C383.395 363.963 365.847 410.865 328.471 435.042C319.632 440.758 308.939 447.085 296.593 450.634C277.944 456.001 261.79 457.45 238.995 455.817C235.308 455.55 231.538 455.1 227.713 454.46C209.668 451.434 191.567 449.009 173.4 447.739C150.784 446.148 124.967 441.551 100.696 429.752C89.9585 424.535 81.692 419.846 73.9059 414.555C66.5408 409.551 59.3252 403.832 49.7793 395.427C40.8192 387.547 34.7111 379.199 28.259 370.369L26.5037 367.977C15.8829 353.508 8.1538 336.23 4.76722 319.336C-0.493677 293.133 -0.42669 272.933 4.9758 253.832C9.71339 237.086 17.0203 223.156 26.6915 212.417C38.5873 199.215 51.271 188.524 66.5644 178.814C75.3766 171.608 87.1077 159.79 94.0705 143.756C95.4756 138.842 96.7933 134.868 98.201 131.29C111.332 97.8509 130.974 77.695 158.229 69.684C181.9 62.7242 208.032 64.0574 231.794 73.4309C240.488 76.8678 248.95 81.3628 256.944 86.7946L256.937 86.7817Z" fill="#6A6EC7"/>
<path d="M150.713 115.365H471.533C476.342 115.365 480.247 119.262 480.247 124.063V363.146C480.247 367.947 476.342 371.844 471.533 371.844H150.713C145.904 371.844 141.999 367.947 141.999 363.146V124.063C141.999 119.262 145.904 115.365 150.713 115.365Z" fill="white"/>
<path d="M471.533 373.819H150.711C144.817 373.819 140.021 369.031 140.021 363.149V124.066C140.021 118.183 144.817 113.395 150.711 113.395H471.531C477.424 113.395 482.221 118.183 482.221 124.066V363.149C482.221 369.031 477.424 373.819 471.531 373.819H471.533ZM150.711 117.338C146.996 117.338 143.973 120.355 143.973 124.063V363.146C143.973 366.854 146.996 369.874 150.711 369.874H471.531C475.246 369.874 478.268 366.857 478.268 363.146V124.063C478.268 120.355 475.246 117.338 471.531 117.338H150.711Z" fill="#B0CAFF"/>
<mask id="mask0_84_50197" style="mask-type:luminance" maskUnits="userSpaceOnUse" x="141" y="115" width="340" height="257">
<path d="M150.713 115.365H471.533C476.342 115.365 480.247 119.262 480.247 124.063V363.146C480.247 367.947 476.342 371.844 471.533 371.844H150.713C145.904 371.844 141.999 367.947 141.999 363.146V124.063C141.999 119.262 145.904 115.365 150.713 115.365Z" fill="white"/>
</mask>
<g mask="url(#mask0_84_50197)">
<path d="M181.981 376.186C181.327 376.186 180.796 375.656 180.796 375.003V109.979C180.796 109.326 181.327 108.796 181.981 108.796C182.636 108.796 183.166 109.326 183.166 109.979V375.003C183.166 375.656 182.636 376.186 181.981 376.186Z" fill="#B0CAFF"/>
<path d="M224.729 376.186C224.075 376.186 223.544 375.656 223.544 375.003V109.979C223.544 109.326 224.075 108.796 224.729 108.796C225.384 108.796 225.914 109.326 225.914 109.979V375.003C225.914 375.656 225.384 376.186 224.729 376.186Z" fill="#B0CAFF"/>
<path d="M267.762 376.186C267.108 376.186 266.577 375.656 266.577 375.003V109.979C266.577 109.326 267.108 108.796 267.762 108.796C268.417 108.796 268.948 109.326 268.948 109.979V375.003C268.948 375.656 268.417 376.186 267.762 376.186Z" fill="#B0CAFF"/>
<path d="M310.509 376.186C309.855 376.186 309.324 375.656 309.324 375.003V109.979C309.324 109.326 309.855 108.796 310.509 108.796C311.164 108.796 311.695 109.326 311.695 109.979V375.003C311.695 375.656 311.164 376.186 310.509 376.186Z" fill="#B0CAFF"/>
<path d="M350.907 376.186C350.252 376.186 349.722 375.656 349.722 375.003V109.979C349.722 109.326 350.252 108.796 350.907 108.796C351.561 108.796 352.092 109.326 352.092 109.979V375.003C352.092 375.656 351.561 376.186 350.907 376.186Z" fill="#B0CAFF"/>
<path d="M393.655 376.186C393 376.186 392.47 375.656 392.47 375.003V109.979C392.47 109.326 393 108.796 393.655 108.796C394.31 108.796 394.84 109.326 394.84 109.979V375.003C394.84 375.656 394.31 376.186 393.655 376.186Z" fill="#B0CAFF"/>
<path d="M436.687 376.186C436.033 376.186 435.502 375.656 435.502 375.003V109.979C435.502 109.326 436.033 108.796 436.687 108.796C437.342 108.796 437.872 109.326 437.872 109.979V375.003C437.872 375.656 437.342 376.186 436.687 376.186Z" fill="#B0CAFF"/>
<path d="M480.246 159.221H143.477C142.823 159.221 142.292 158.692 142.292 158.038C142.292 157.385 142.823 156.855 143.477 156.855H480.246C480.901 156.855 481.432 157.385 481.432 158.038C481.432 158.692 480.901 159.221 480.246 159.221Z" fill="#B0CAFF"/>
<path d="M480.246 202.175H143.477C142.823 202.175 142.292 201.645 142.292 200.992C142.292 200.338 142.823 199.809 143.477 199.809H480.246C480.901 199.809 481.432 200.338 481.432 200.992C481.432 201.645 480.901 202.175 480.246 202.175Z" fill="#B0CAFF"/>
<path d="M480.246 244.848H143.477C142.823 244.848 142.292 244.319 142.292 243.665C142.292 243.012 142.823 242.482 143.477 242.482H480.246C480.901 242.482 481.432 243.012 481.432 243.665C481.432 244.319 480.901 244.848 480.246 244.848Z" fill="#B0CAFF"/>
<path d="M480.246 285.173H143.477C142.823 285.173 142.292 284.643 142.292 283.99C142.292 283.337 142.823 282.807 143.477 282.807H480.246C480.901 282.807 481.432 283.337 481.432 283.99C481.432 284.643 480.901 285.173 480.246 285.173Z" fill="#B0CAFF"/>
<path d="M480.246 327.844H143.477C142.823 327.844 142.292 327.314 142.292 326.661C142.292 326.008 142.823 325.478 143.477 325.478H480.246C480.901 325.478 481.432 326.008 481.432 326.661C481.432 327.314 480.901 327.844 480.246 327.844Z" fill="#B0CAFF"/>
</g>
<path d="M167.195 202.596C167.195 204.38 166.095 205.901 164.556 206.479V215.732C164.556 226.231 156.795 234.616 146.3 233.955C145.534 233.907 144.576 233.837 143.48 233.751V249.457H123.944C127.801 248.645 131.256 245.804 133.262 242.326C135.815 237.883 136.408 232.591 136.398 227.47C136.391 222.349 136.376 217.482 136.376 212.117C128.574 211.171 124.513 201.088 130.874 195.157C134.169 192.079 141.518 192.553 141.203 198.439C141.162 199.662 141.187 200.979 142.016 201.94C142.555 202.571 143.424 202.894 144.197 202.579C145.115 202.2 145.327 201.173 145.446 200.26C145.754 197.743 145.84 195.195 145.691 192.664C158.16 182.776 157.672 170.339 157.672 170.339C161.22 174.363 163.371 179.64 163.371 185.414V194.63C163.371 196.388 165.069 198.542 166.209 199.877C166.826 200.611 167.197 201.557 167.197 202.599L167.195 202.596Z" fill="#FFCFCA"/>
<path d="M145.691 192.664C145.84 195.197 145.754 197.745 145.445 200.26C145.327 201.176 145.114 202.2 144.197 202.578C143.424 202.894 142.554 202.571 142.016 201.94C141.187 200.977 141.162 199.66 141.202 198.439C141.518 192.553 134.169 192.079 130.874 195.157C124.513 201.09 128.574 211.171 136.375 212.117C136.375 217.48 136.391 222.349 136.398 227.47C136.406 232.591 135.814 237.883 133.262 242.326C131.255 245.804 127.801 248.645 123.944 249.457C122.885 249.679 121.786 249.75 120.689 249.639L90.3652 251.69L93.1704 186.812C93.9842 172.312 105.761 160.833 120.302 160.377L141.695 160.914C148.817 160.685 155.446 164.489 158.86 170.727V170.735L159.097 171.176C157.879 179.569 152.8 187.332 145.693 192.664H145.691Z" fill="#000543"/>
<path d="M144.532 300.952C143.887 300.952 143.243 300.73 142.72 300.276C141.565 299.277 141.441 297.534 142.444 296.381L172.573 261.722C176.357 257.371 180.542 253.077 186.42 252.55C193.122 251.945 197.84 256.321 202.394 260.552C205.601 263.531 208.631 266.346 212.159 267.32C218.589 269.096 225.705 264.694 233.926 253.864L263.034 215.517C266.527 210.916 270.485 205.704 275.792 202.097C282.046 197.848 289.287 196.696 295.16 199.016C300.06 200.954 303.313 204.851 306.459 208.62C309.012 211.678 311.42 214.564 314.521 216.211C320.571 219.422 328.37 217.114 333.414 213.403C339.186 209.158 343.328 202.737 347.332 196.529L347.455 196.34C357.37 180.974 367.499 166.424 382.353 157.284C390.226 152.44 399.511 149.683 408.497 149.524C418.422 149.345 427.209 152.297 433.868 158.051C435.023 159.05 435.147 160.793 434.148 161.946C433.148 163.099 431.401 163.222 430.246 162.226C417.861 151.517 398.239 154 385.257 161.986C371.388 170.518 361.663 184.519 352.108 199.329L351.987 199.518C347.711 206.148 343.288 213.002 336.7 217.848C328.838 223.63 319.115 224.902 311.926 221.085C307.867 218.93 304.991 215.484 302.211 212.152C299.386 208.767 296.714 205.568 293.126 204.148C288.223 202.21 282.567 204.173 278.908 206.658C274.351 209.753 270.841 214.377 267.447 218.847L238.339 257.194C235.152 261.392 226.173 273.218 214.96 273.221C213.567 273.221 212.144 273.039 210.689 272.638C205.857 271.303 202.182 267.89 198.629 264.588C194.628 260.872 191.189 257.656 186.92 258.044C183.089 258.39 179.925 261.69 176.756 265.337L146.627 299.996C146.081 300.624 145.31 300.947 144.537 300.947L144.532 300.952Z" fill="#FF476F"/>
<path d="M232.119 334.875L356.715 210.502L385.252 238.988L260.656 363.361C254.659 369.347 244.934 369.347 238.935 363.361L232.119 356.557C226.122 350.571 226.122 340.863 232.119 334.875Z" fill="#B0CAFF"/>
<path d="M99.2589 249.003H148.822C170.923 249.003 191.464 260.363 203.185 279.063L246.789 348.641L298.266 298.193L332.501 334.322L255.629 409.858C244.204 421.067 225.384 419.132 216.485 405.835L193.746 375.008L193 449.5C157.449 446.905 136.518 446.609 102.5 430.5L83.0001 420.5L56.9713 432.393C30.3069 444.729 1.69649 419.487 10.6857 391.556L43.5014 289.588C51.2826 265.408 73.8151 249.008 99.2589 249.008V249.003Z" fill="#61C8E1"/>
<path d="M301.309 301.399C301.309 301.399 307.126 295.165 308.627 293.49C311.107 286.28 314.374 279.338 318.504 272.562C324.041 266.768 330.675 262.022 339.29 257.424C342.873 254.326 346.659 251.465 350.619 248.862C352.083 247.901 353.786 246.932 355.489 247.338C356.894 247.671 357.953 248.912 358.393 250.285C358.833 251.657 358.739 253.143 358.497 254.563C357.559 260.037 354.354 265.09 349.8 268.294C347.364 271.235 344.931 274.179 342.714 277.398C355.638 267.27 365.745 256.778 378.439 245.794C381.069 251.528 380.956 256.937 377.663 263.115C379.915 267.963 378.823 274.159 375.396 278.132C370.589 299.199 353.086 316.845 332.032 321.853L326.3 327.771L301.311 301.399H301.309Z" fill="#FFCFCA"/>
<path d="M413.242 232.026C399.563 245.681 378.686 244.379 365.008 230.724C351.331 217.069 349.587 195.777 363.704 182.576C373.603 173.321 386.219 170.995 396.106 169.87C405.759 168.77 419.222 165.851 432.356 160.516L396.48 196.327C392.643 193.858 387.468 194.302 384.111 197.652C380.242 201.514 380.242 207.78 384.111 211.64C387.981 215.502 394.258 215.502 398.125 211.64C401.38 208.391 401.895 203.439 399.669 199.647L435.439 163.941C430.142 176.027 427.114 188.653 425.707 199.481C424.547 208.426 423.073 222.207 413.24 232.023L413.242 232.026Z" fill="#B0CAFF"/>
<path d="M436.688 167.67C441.272 167.67 444.987 163.961 444.987 159.385C444.987 154.81 441.272 151.101 436.688 151.101C432.104 151.101 428.389 154.81 428.389 159.385C428.389 163.961 432.104 167.67 436.688 167.67Z" fill="#FF476F"/>
<path d="M462.384 186.739C462.081 186.739 461.778 186.623 461.545 186.393L408.795 133.735C408.333 133.273 408.333 132.524 408.795 132.06C409.26 131.598 410.008 131.598 410.473 132.06L463.223 184.718C463.686 185.18 463.686 185.929 463.223 186.393C462.991 186.623 462.688 186.739 462.384 186.739Z" fill="#FF476F"/>
<path d="M413.817 133.586C414.191 131.288 412.627 129.123 410.325 128.75C408.023 128.377 405.854 129.937 405.48 132.235C405.107 134.533 406.67 136.699 408.972 137.072C411.274 137.445 413.443 135.884 413.817 133.586Z" fill="white"/>
<path d="M409.632 138.298C406.65 138.298 404.224 135.877 404.224 132.9C404.224 129.923 406.65 127.501 409.632 127.501C412.614 127.501 415.04 129.923 415.04 132.9C415.04 135.877 412.614 138.298 409.632 138.298ZM409.632 129.868C407.956 129.868 406.594 131.227 406.594 132.9C406.594 134.572 407.956 135.932 409.632 135.932C411.307 135.932 412.67 134.572 412.67 132.9C412.67 131.227 411.307 129.868 409.632 129.868Z" fill="#FF476F"/>
<path d="M466.477 186.509C467.013 184.243 465.607 181.973 463.337 181.438C461.067 180.903 458.793 182.307 458.257 184.572C457.721 186.838 459.127 189.109 461.397 189.643C463.667 190.178 465.941 188.775 466.477 186.509Z" fill="white"/>
<path d="M462.385 190.954C459.403 190.954 456.977 188.532 456.977 185.555C456.977 182.579 459.403 180.157 462.385 180.157C465.367 180.157 467.793 182.579 467.793 185.555C467.793 188.532 465.367 190.954 462.385 190.954ZM462.385 182.523C460.709 182.523 459.347 183.883 459.347 185.555C459.347 187.228 460.709 188.588 462.385 188.588C464.06 188.588 465.422 187.228 465.422 185.555C465.422 183.883 464.06 182.523 462.385 182.523Z" fill="#FF476F"/>
<path d="M193.562 378.015C193.043 378.015 192.536 377.76 192.232 377.293L157.766 324.042C157.291 323.311 157.504 322.334 158.236 321.86C158.969 321.388 159.947 321.598 160.422 322.329L194.888 375.58C195.363 376.312 195.151 377.288 194.418 377.762C194.153 377.934 193.857 378.015 193.562 378.015Z" fill="black" fill-opacity="0.05"/>
<path d="M262.518 372.79C262.005 372.79 261.5 372.541 261.197 372.081L246.845 350.346C246.365 349.62 246.567 348.641 247.295 348.161C248.025 347.68 249.003 347.884 249.486 348.611L263.838 370.346C264.318 371.072 264.116 372.051 263.388 372.53C263.12 372.707 262.817 372.79 262.518 372.79Z" fill="black" fill-opacity="0.05"/>
<path d="M83.6406 420.638C82.9229 420.638 82.2734 420.148 82.1041 419.419L58.677 319.862C58.4773 319.015 59.0055 318.164 59.8546 317.965C60.7088 317.766 61.5554 318.291 61.7551 319.141L85.1822 418.698C85.3818 419.545 84.8537 420.395 84.0045 420.595C83.8832 420.622 83.7619 420.638 83.6406 420.638Z" fill="black" fill-opacity="0.05"/>
<path d="M60.2193 418.503C60.0828 418.503 59.9413 418.486 59.8023 418.448C58.9607 418.218 58.4629 417.351 58.6928 416.51L71.0079 371.433C71.2378 370.593 72.1021 370.096 72.9487 370.326C73.7903 370.555 74.2882 371.423 74.0582 372.263L61.7432 417.34C61.5511 418.042 60.9142 418.503 60.2193 418.503Z" fill="black" fill-opacity="0.05"/>
<path d="M335.718 280.994C335.32 281.089 334.908 281.07 334.644 280.923C334.253 280.702 334.351 280.276 334.863 279.971L341.359 276.104C341.868 275.8 342.598 275.733 342.989 275.955C343.379 276.176 343.281 276.602 342.77 276.906L336.274 280.774C336.105 280.874 335.913 280.948 335.719 280.995L335.718 280.994Z" fill="#B79592" fill-opacity="0.5"/>
<path d="M363.369 275.171C363.024 275.287 362.659 275.336 362.397 275.286C361.961 275.202 361.972 274.876 362.419 274.556C367.354 271.051 371.772 267.438 375.554 263.818C375.899 263.488 376.602 263.231 377.126 263.243C377.65 263.256 377.793 263.534 377.448 263.864C373.576 267.571 369.05 271.271 364 274.86C363.819 274.987 363.597 275.095 363.367 275.172L363.369 275.171Z" fill="#B79592" fill-opacity="0.5"/>
<path d="M365.306 285.049C365.087 285.07 364.864 285.033 364.713 284.934C364.462 284.771 364.505 284.503 364.808 284.334C368.146 282.493 371.187 280.451 373.85 278.265C374.093 278.066 374.541 278.004 374.852 278.128C375.164 278.251 375.219 278.512 374.976 278.711C372.249 280.949 369.134 283.04 365.718 284.927C365.595 284.993 365.451 285.035 365.305 285.049L365.306 285.049Z" fill="#B79592" fill-opacity="0.5"/>
<path d="M363.43 295.026C363.298 295 363.179 294.915 363.117 294.787C363.014 294.575 363.108 294.327 363.326 294.23C365.726 293.179 368.007 291.871 370.106 290.343C370.297 290.204 370.572 290.241 370.72 290.428C370.869 290.614 370.833 290.878 370.642 291.017C368.493 292.582 366.157 293.921 363.7 294.998C363.612 295.036 363.518 295.044 363.429 295.026L363.43 295.026Z" fill="#B79592" fill-opacity="0.5"/>
<path d="M382.957 241.508C382.561 241.508 382.161 241.359 381.853 241.059L354.741 214.665C354.117 214.057 354.104 213.058 354.713 212.434C355.322 211.811 356.323 211.796 356.95 212.407L384.062 238.801C384.686 239.409 384.699 240.408 384.089 241.031C383.779 241.349 383.369 241.508 382.957 241.508Z" fill="#EDEEFE"/>
<path d="M375.082 248.963C374.686 248.963 374.286 248.814 373.978 248.514L346.866 222.119C346.242 221.511 346.229 220.512 346.838 219.889C347.447 219.266 348.448 219.253 349.075 219.861L376.187 246.256C376.811 246.864 376.824 247.863 376.214 248.486C375.904 248.804 375.494 248.963 375.082 248.963Z" fill="#EDEEFE"/>
<path d="M382.34 142.425C421.74 142.425 453.68 110.542 453.68 71.2123C453.68 31.8828 421.74 0 382.34 0C342.94 0 311 31.8828 311 71.2123C311 110.542 342.94 142.425 382.34 142.425Z" fill="#61C8E1"/>
<path d="M345.226 66.8208L345.225 66.8193C344.196 65.7061 344.272 63.9755 345.392 62.9563L345.397 62.9522C346.509 61.9482 348.234 62.0162 349.258 63.1223C349.258 63.1224 349.258 63.1225 349.258 63.1226C349.259 63.123 349.259 63.1234 349.259 63.1237L378.318 94.4647L416.53 41.638C416.531 41.6372 416.532 41.6364 416.532 41.6356C417.413 40.4159 419.118 40.1356 420.346 41.0051C421.58 41.8778 421.876 43.5879 420.983 44.8215L380.806 100.365L380.803 100.368C380.32 101.032 379.565 101.444 378.749 101.495L378.702 101.498H378.671L378.642 101.499C378.626 101.5 378.605 101.5 378.581 101.5L345.226 66.8208ZM345.226 66.8208L376.565 100.621M345.226 66.8208L376.565 100.621M376.565 100.621C377.088 101.185 377.819 101.499 378.579 101.5L376.565 100.621Z" fill="white" stroke="white" stroke-width="3"/>
<path d="M513.968 205.721C547.087 205.721 573.936 178.92 573.936 145.86C573.936 112.8 547.087 86 513.968 86C480.848 86 454 112.8 454 145.86C454 178.92 480.848 205.721 513.968 205.721Z" fill="#FF7B6E"/>
<path d="M492.63 125.63L492.63 125.63L492.629 125.631C491.791 126.472 491.789 127.834 492.63 128.675L531.327 167.37C531.747 167.79 532.3 168 532.848 168C533.397 168 533.95 167.79 534.37 167.37L534.371 167.369C535.209 166.528 535.211 165.166 534.37 164.325L495.673 125.63L494.966 126.337L495.673 125.63C494.833 124.79 493.47 124.79 492.63 125.63Z" fill="white" stroke="white" stroke-width="2"/>
<path d="M492.63 164.325L492.629 164.327C491.791 165.167 491.789 166.529 492.63 167.37C493.05 167.79 493.603 168 494.152 168C494.7 168 495.253 167.79 495.673 167.37L534.37 128.675L534.371 128.673C535.209 127.833 535.211 126.471 534.37 125.63C533.53 124.79 532.167 124.79 531.327 125.63L532.034 126.337L531.327 125.63L492.63 164.325Z" fill="white" stroke="white" stroke-width="2"/>
<path d="M133.213 202.355C133.213 202.355 133.184 206.212 136.657 207.58" stroke="black" stroke-width="0.25" stroke-linecap="round" stroke-linejoin="round"/>
<path d="M156.238 195.362C156.248 194.196 156.922 193.257 157.743 193.264C158.563 193.272 159.22 194.223 159.21 195.389C159.2 196.556 158.526 197.495 157.705 197.487C156.885 197.48 156.228 196.528 156.238 195.362Z" fill="#48424C"/>
<path d="M160.828 190.078C160.828 190.078 155.947 186.258 151.828 193" stroke="black" stroke-width="0.25" stroke-linecap="round" stroke-linejoin="round"/>
<path d="M155.652 215.377C155.652 215.377 156.529 220.381 161.838 218.717" stroke="black" stroke-width="0.25" stroke-linecap="round" stroke-linejoin="round"/>
</svg>
