<svg width="531" height="420" viewBox="0 0 531 420" fill="none" xmlns="http://www.w3.org/2000/svg">
<path d="M458.387 405.041C439.92 413.704 419.393 418.541 399.032 419.039C379.07 419.528 357.986 414.624 339.59 405.224C335.846 403.674 322.738 399.431 294.257 400.852C281.507 402.329 271.734 403.024 262.613 403.087C236.569 403.271 212.095 398.915 187.797 389.795C135.856 370.291 102.434 328.744 100.595 281.382C100.162 270.183 100.176 256.953 103.632 243.719C108.846 223.726 116.294 208.145 130.171 188.156C132.418 184.924 134.878 181.716 137.542 178.561C150.115 163.679 162.168 148.419 173.199 132.472C186.941 112.624 205.174 91.4785 229.163 75.6595C239.773 68.6601 248.558 63.637 257.632 59.3803C266.216 55.3537 275.372 51.8519 288.255 47.6755C300.338 43.7498 311.301 42.6906 322.892 41.578L326.037 41.2699C345.056 39.4028 365.078 41.7094 382.388 47.7843C409.243 57.1994 427.705 68.2331 442.264 83.5562C455.027 96.9913 463.814 111.249 468.396 125.939C474.025 144.005 476.926 161.428 477.512 180.708C479.323 192.692 483.775 209.855 494.677 224.941C498.414 228.897 501.338 232.262 503.849 235.494C527.34 265.684 535.13 294.62 527.662 323.931C521.178 349.389 505.762 372.597 484.271 389.266C476.401 395.362 467.688 400.67 458.371 405.04L458.387 405.041Z" fill="#F4D6A9"/>
<path d="M235.96 8.77039H0V268.655C0 290.747 17.9086 308.655 40 308.655H195.96C218.052 308.655 235.96 290.747 235.96 268.655V8.77039Z" fill="white"/>
<path d="M8.30461 0.000244141H227.649C232.233 0.000244141 235.957 3.72155 235.957 8.30872V34.5839H0V8.30872C0 3.72474 3.72099 0.000244141 8.30779 0.000244141H8.30461Z" fill="#FFAF38"/>
<path d="M118.949 79.9663H48.0913C43.673 79.9663 40.0913 83.548 40.0913 87.9663V121.89C40.0913 126.309 43.673 129.89 48.0913 129.89H110.949C115.367 129.89 118.949 126.309 118.949 121.89V79.9663Z" fill="#FFAF38"/>
<path d="M118.949 89.042H84.686L89.0157 75.0223C89.2745 74.1841 90.0494 73.6124 90.9266 73.6124H116.949C118.053 73.6124 118.949 74.5079 118.949 75.6124V89.042Z" fill="#FFAF38"/>
<path d="M104.163 110.139C102.893 109.102 100.983 109.951 100.901 111.589L99.3501 142.741C99.2775 144.201 100.744 145.243 102.099 144.694L128.635 133.944C130.043 133.373 130.326 131.502 129.149 130.541L104.163 110.139Z" fill="#000543"/>
<path d="M126.791 153.095L112.635 121.972L103.352 126.195L117.508 157.318C117.965 158.323 119.151 158.768 120.156 158.31L125.798 155.743C126.804 155.286 127.248 154.1 126.791 153.095Z" fill="#000543"/>
<path d="M200.702 174.922H141.068C137.691 174.922 134.953 177.66 134.953 181.037V213.682C134.953 217.059 137.691 219.797 141.068 219.797H200.702C204.08 219.797 206.817 217.059 206.817 213.682V181.037C206.817 177.66 204.08 174.922 200.702 174.922Z" stroke="#3C3C49" stroke-width="4" stroke-miterlimit="10"/>
<path d="M137.464 176.278L171.873 195.811L205.69 177.507" stroke="#3C3C49" stroke-width="4" stroke-miterlimit="10"/>
<path d="M136.376 218.619L165.787 192.354" stroke="#3C3C49" stroke-width="4" stroke-miterlimit="10"/>
<path d="M178.259 192.354L204.312 218.619" stroke="#3C3C49" stroke-width="4" stroke-miterlimit="10"/>
<path d="M139.893 84.9547H199.988" stroke="#3C3C49" stroke-width="4" stroke-miterlimit="10" stroke-linecap="round"/>
<path d="M139.893 94.9547H199.988" stroke="#3C3C49" stroke-width="4" stroke-miterlimit="10" stroke-linecap="round"/>
<path d="M139.893 104.955H199.988" stroke="#3C3C49" stroke-width="4" stroke-miterlimit="10" stroke-linecap="round"/>
<path d="M139.893 114.955H199.988" stroke="#3C3C49" stroke-width="4" stroke-miterlimit="10" stroke-linecap="round"/>
<path d="M139.893 124.955H199.988" stroke="#3C3C49" stroke-width="4" stroke-miterlimit="10" stroke-linecap="round"/>
<path d="M43.7251 179.775H103.82" stroke="#3C3C49" stroke-width="4" stroke-miterlimit="10" stroke-linecap="round"/>
<path d="M43.7251 189.775H103.82" stroke="#3C3C49" stroke-width="4" stroke-miterlimit="10" stroke-linecap="round"/>
<path d="M43.7251 199.775H103.82" stroke="#3C3C49" stroke-width="4" stroke-miterlimit="10" stroke-linecap="round"/>
<path d="M43.7251 209.775H103.82" stroke="#3C3C49" stroke-width="4" stroke-miterlimit="10" stroke-linecap="round"/>
<path d="M43.7251 219.775H103.82" stroke="#3C3C49" stroke-width="4" stroke-miterlimit="10" stroke-linecap="round"/>
<path d="M90.4883 17.292H144.037" stroke="white" stroke-width="4" stroke-miterlimit="10"/>
<path d="M408.077 115.54L413.341 120.754L427.538 159.781C433.934 176.555 421.859 194.619 403.917 195.13L348.939 196.69C336.349 197.049 326.404 186.087 327.978 173.587L332.635 136.687L408.077 115.54Z" fill="#000543"/>
<path d="M336.708 147.935C318.218 112.121 358.221 91.0567 380.148 96.0822C400.755 100.809 409.816 108.895 413.838 122.319C417.86 135.753 417.262 152.762 412.577 165.98C410.267 172.496 406.931 164.452 400.111 165.588" fill="#000543"/>
<path d="M415.011 207.965C415.011 207.965 402.099 207.965 399.738 170.517L399.361 123.184C399.255 119.595 396.416 116.686 392.831 116.488L355.718 109.051C343.919 108.393 336.837 123.24 336.68 135.058C336.597 141.257 336.625 148.1 336.892 154.622C337.61 154.387 338.373 154.253 339.174 154.253C343.219 154.253 336.884 150.393 336.884 154.439C336.884 158.484 340.937 154.622 336.892 154.622C336.496 154.622 338.387 168.865 338.01 168.805C338.254 170.642 338.535 172.358 338.861 173.905C342.957 193.386 358.134 195.134 358.134 195.134C358.134 195.033 358.456 201.605 359.62 219.102C360.315 229.572 361.005 235.394 372.924 235.049C384.732 234.708 400.507 227.681 400.106 216.659L400.088 214.427L415.011 207.961V207.965Z" fill="#FFCFCA"/>
<path d="M339.32 144.674C339.32 144.674 344.582 139.395 350.101 144.473" stroke="black" stroke-width="0.25" stroke-linecap="round" stroke-linejoin="round"/>
<path d="M363.988 144.384C363.988 144.384 372.675 135.649 382.941 147.062" stroke="black" stroke-width="0.25" stroke-linecap="round" stroke-linejoin="round"/>
<path d="M353.087 147.096C353.087 147.096 357.317 156.462 351.252 164.413C349.433 166.772 351.202 170.429 354.124 170.102C354.164 170.096 354.204 170.089 354.244 170.083" stroke="black" stroke-width="0.25" stroke-linecap="round" stroke-linejoin="round"/>
<path d="M352.612 180.292C352.612 180.292 361.527 184.736 369.092 177.029" stroke="black" stroke-width="0.25" stroke-linecap="round" stroke-linejoin="round"/>
<path d="M375.269 156.606C375.387 154.511 374.287 152.746 372.812 152.663C371.338 152.58 370.046 154.212 369.928 156.307C369.81 158.403 370.91 160.168 372.385 160.251C373.86 160.333 375.151 158.702 375.269 156.606Z" fill="#48424C"/>
<path d="M350.556 156.523C350.664 154.612 349.668 153.002 348.331 152.927C346.995 152.852 345.824 154.341 345.717 156.252C345.609 158.163 346.605 159.773 347.942 159.848C349.278 159.923 350.449 158.434 350.556 156.523Z" fill="#48424C"/>
<path d="M358.133 195.139C358.133 195.139 371.386 195.332 384.078 186.814C384.078 186.814 378.372 200.62 358.63 199.764L358.133 195.139Z" fill="#D79870"/>
<path d="M397.962 143.098C398.243 142.946 408.238 137.911 408.946 149.665C409.65 161.414 397.709 159.702 397.672 159.366C397.631 159.03 397.962 143.102 397.962 143.102V143.098Z" fill="#FFCFCA"/>
<g style="mix-blend-mode:multiply">
<path d="M430.138 388.015L348.958 377.807H304.196L302.567 370.937L353.38 370.518L369.937 373.132L432.07 380.721L430.138 388.015Z" fill="#E38EA9"/>
</g>
<path d="M293.506 332.734L313.063 409.935L326.533 414.425L341.927 416.991C341.927 416.991 349.738 417.862 354.756 418.274C361.758 418.848 372.716 419.3 372.716 419.3L402.222 415.708L428.521 408.011L431.228 382.594L435.802 383.256L465.428 386.413C478.682 387.826 491.709 382.207 499.781 371.604C506.541 362.722 508.989 351.446 506.766 340.756C506.766 340.756 495.151 281.903 465.866 236.489C464.181 233.452 462.074 230.262 459.441 227.156C459.441 227.156 459.437 227.147 459.432 227.142C451.002 217.188 437.238 208.126 415.011 207.965L340.435 211.389C340.435 211.389 316 213.143 302.075 229.848L242.67 298.209M438.577 326.153L438.71 325.122C439.046 325.702 439.23 326.01 439.23 326.01L438.577 326.153Z" fill="#FF7B6E"/>
<g style="mix-blend-mode:multiply">
<path d="M421.569 259.974L441.361 310.878C444.835 319.811 439.198 329.678 429.737 331.215L371.12 340.756L404.473 318.992C413.879 313.285 419.802 303.248 420.253 292.254L421.573 259.974H421.569Z" fill="#E38EA9" fill-opacity="0.3"/>
</g>
<path d="M342.934 211.279C342.934 211.279 335.175 235.408 375.059 236.282C375.059 236.282 410.35 232.149 415.016 207.965L342.934 211.274V211.279Z" fill="#FFCFCA"/>
<path d="M159.277 255.422L157.634 254.355L134.303 239.232L121.29 228.472C119.817 227.253 117.963 226.585 116.048 226.585H114.787L111.865 224.694C108.441 222.476 103.881 223.258 101.396 226.498L101.244 226.696C98.2854 224.533 94.1483 226.898 94.5395 230.543C94.903 233.917 97.2959 237.156 99.3069 240.58C105.708 251.488 117.383 258.741 117.383 258.741C112.072 257.001 107.47 258.336 108.529 263.821C108.791 265.179 109.33 266.32 110.19 266.96C118.271 272.984 137.396 283.427 140.806 282.819C146.429 281.82 145.016 279.837 145.016 279.837L160.598 289.603L175.241 263.398L159.277 255.422Z" fill="#FFCFCA"/>
<path d="M105.712 223.815L132.306 244.193" stroke="#3C3C49" stroke-opacity="0.1" stroke-miterlimit="10"/>
<path d="M114.884 226.59L134.736 241.8" stroke="#3C3C49" stroke-opacity="0.1" stroke-miterlimit="10"/>
<path d="M101.106 226.59L127.704 246.968" stroke="#3C3C49" stroke-opacity="0.1" stroke-miterlimit="10"/>
<path d="M117.079 258.911L130.728 266.96" stroke="#3C3C49" stroke-opacity="0.1" stroke-miterlimit="10"/>
<path d="M296.976 288.94C296.976 288.94 308.835 268.819 280.658 254.502L242.67 298.213L161.919 256.518L136.968 282.294L241.451 353.273C241.451 353.273 266.254 369.068 283.203 349.49L293.502 332.734C293.502 332.734 289.227 302.967 296.971 288.94H296.976Z" fill="#FFCFCA"/>
<g style="mix-blend-mode:multiply">
<g style="mix-blend-mode:multiply">
<path d="M299.088 344.911C298.628 344.911 298.186 344.649 297.975 344.203C287.855 322.586 291.532 301.555 296.396 287.716C301.651 272.768 309.175 263.058 309.493 262.648C309.912 262.114 310.68 262.022 311.214 262.436C311.748 262.855 311.844 263.624 311.426 264.157C311.352 264.254 303.8 274.015 298.688 288.599C293.994 301.987 290.446 322.319 300.197 343.158C300.483 343.77 300.22 344.502 299.604 344.792C299.433 344.87 299.258 344.907 299.084 344.907L299.088 344.911Z" fill="#E38EA9"/>
</g>
</g>
<path d="M488.816 281.649C488.816 281.649 446.481 268.82 442.397 314.864C442.397 314.864 443.823 326.42 432.006 330.668L375.004 341.395L374.235 373.661L453.593 385.157C453.593 385.157 487.743 395.231 502.312 367.821C502.312 367.821 513.968 353.738 503.287 326.157C503.287 326.157 496.508 299.609 488.811 281.649H488.816Z" fill="#FFCFCA"/>
<path d="M196.703 298.296C192.484 298.508 190.555 303.653 193.597 306.589L217.996 330.111L268.786 379.073C269.743 379.998 271.045 380.486 272.375 380.417L350.228 376.533C354.268 376.33 356.279 371.544 353.601 368.516L288.974 295.503C288.003 294.407 286.585 293.809 285.122 293.883L196.708 298.296H196.703Z" fill="#FFAF38"/>
<path d="M195.12 301.9C190.901 302.111 188.972 307.256 192.014 310.193L216.413 333.714L267.203 382.676C268.16 383.601 269.462 384.089 270.792 384.02L348.645 380.136C352.685 379.934 354.696 375.147 352.018 372.119L287.391 299.106C286.42 298.011 285.002 297.412 283.539 297.486L195.125 301.9H195.12Z" fill="#000543"/>
<path d="M375.519 341.289L355.851 342.159C355.851 342.159 350.646 336.25 346.376 332.458C343.785 330.157 330.5 330.852 320.459 331.758C316.257 332.136 314.725 337.493 318.089 340.042L319.018 340.746C319.018 340.746 303.243 344.331 295.108 349.909C291.836 352.155 289.121 355.068 287.045 357.756C284.804 360.655 287.096 364.834 290.745 364.539L315.903 362.51C315.903 362.51 292.485 368.309 291.081 369.197C288.196 371.019 291.518 371.976 291.518 371.976L355.22 370.426L375.284 373.799" fill="#FFCFCA"/>
<path d="M319.023 340.746H339.225" stroke="#D79870" stroke-miterlimit="10"/>
<path d="M289.318 355.045C289.318 355.045 309.189 349.932 320.56 351.985" stroke="#D79870" stroke-miterlimit="10"/>
<path d="M286.488 361.921C286.488 361.921 301.458 359.426 320.56 357.383" stroke="#D79870" stroke-miterlimit="10"/>
<path d="M314.868 362.593L321.287 361.323" stroke="#D79870" stroke-miterlimit="10"/>
<path d="M390.365 98.9908C376.826 93.5235 362.841 94.3611 356.684 103.464C356.652 102.557 356.578 102.056 356.578 102.056C326.441 107.012 335.102 138.993 335.102 138.993C341.843 134.469 346.5 129.637 349.708 125.011C349.979 129.908 350.863 134.842 353.196 136.351H360.136C360.136 136.351 356.85 131.307 356.348 123.994C359.349 129.788 364.728 134.998 371.81 138.275C386.131 144.902 404.313 145.813 409.536 134.519C414.759 123.226 405.891 105.264 390.36 98.9908H390.365Z" fill="#000543"/>
</svg>
