<svg width="202" height="232" viewBox="0 0 202 232" fill="none" xmlns="http://www.w3.org/2000/svg">
<path d="M29.0874 230.788C55.6571 170.941 89.8453 114.637 115.554 54.4015L115.755 53.954C115.384 53.813 115.026 53.6353 114.681 53.4209C113.408 52.6005 112.576 51.282 111.768 50.0127C103.049 36.3591 92.2481 24.0252 79.8758 13.5344C60.7127 85.4165 43.7723 157.883 29.0874 230.788Z" fill="#F9DE7F"/>
<path d="M153.617 110.726C149.268 105.821 144.918 100.898 140.57 95.9928C106.777 143.483 70.2594 188.536 29.9344 230.689C83.37 203.348 137.027 175.958 193.653 155.937C180.295 140.863 166.957 125.803 153.617 110.726Z" fill="#F9DE7F"/>
<path d="M181.865 63.2684C166.463 73.5115 153.084 84.2963 140.586 95.9907C144.935 100.896 149.285 105.818 153.633 110.724C163.129 94.9692 172.61 79.2344 182.088 63.4823L181.868 63.2855L181.865 63.2684Z" fill="#FE9518"/>
<path d="M115.554 54.4011C89.8455 114.637 55.6573 170.94 29.0876 230.788C29.0698 230.913 29.0347 231.04 29.0169 231.165C29.33 231.017 29.6407 230.851 29.9341 230.688C70.2419 188.538 106.774 143.465 140.569 95.9918C153.067 84.2975 166.446 73.5127 181.848 63.2695C161.136 59.6321 140.286 56.7656 119.365 54.6605C118.135 54.5334 116.889 54.4086 115.758 53.9708L115.556 54.4183L115.554 54.4011Z" fill="#F9C048"/>
</svg>
