<svg width="277" height="276" viewBox="0 0 277 276" fill="none" xmlns="http://www.w3.org/2000/svg">
<g clip-path="url(#clip0_84_50157)">
<path d="M85.9635 51.4501C85.9635 51.4501 190.187 60.548 198.248 64.694C206.31 68.8399 207.346 219.359 198.248 218.553C189.15 217.517 78.8233 222.584 78.9385 210.492C79.0537 198.399 69.7254 53.4079 85.9635 51.4501Z" fill="white"/>
<path d="M97.71 46.1525L95.9825 66.5365C95.9825 66.5365 102.777 68.264 105.311 67.3426C107.844 66.4213 109.917 44.7705 107.844 44.3098C105.771 43.8492 97.3645 40.7398 97.71 46.1525Z" fill="#6A6EC7"/>
<path d="M121.779 48.8016L120.052 69.1857C120.052 69.1857 126.847 70.9131 129.38 69.9918C131.914 69.0705 134.102 47.5348 132.029 47.0742C129.956 46.6135 121.319 43.2738 121.779 48.8016Z" fill="#6A6EC7"/>
<path d="M148.843 51.4501L147.115 71.8341C147.115 71.8341 153.91 73.5616 156.444 72.6403C158.977 71.7189 161.281 50.0681 159.092 49.7226C157.019 49.262 148.497 45.807 148.843 51.4501Z" fill="#6A6EC7"/>
<path d="M174.87 55.1352L173.142 75.5192C173.142 75.5192 179.937 77.2467 182.471 76.3254C185.004 75.4041 187.192 53.8684 185.119 53.4077C182.816 52.9471 174.409 49.6073 174.87 55.1352Z" fill="#6A6EC7"/>
<path d="M164.39 98.7834C164.39 98.7834 168.19 109.494 170.148 108.918C171.99 108.227 191.568 86.8064 192.49 88.4187C193.411 90.031 196.29 96.5953 196.29 96.5953C196.29 96.5953 168.881 122.162 167.844 119.283C166.923 116.519 157.71 105.463 158.631 103.16C159.668 100.972 164.39 98.7834 164.39 98.7834Z" fill="#61C8E1"/>
<path d="M165.541 139.09C165.541 139.09 169.342 149.8 171.3 149.225C173.142 148.534 192.72 127.113 193.641 128.725C194.563 130.338 197.442 136.902 197.442 136.902C197.442 136.902 170.033 162.468 168.996 159.589C168.075 156.825 158.862 145.77 159.783 143.466C160.82 141.278 165.541 139.09 165.541 139.09Z" fill="#61C8E1"/>
<path d="M164.044 180.665C164.044 180.665 167.845 191.375 169.802 190.799C171.645 190.108 191.223 168.688 192.144 170.3C193.066 171.912 195.945 178.477 195.945 178.477C195.945 178.477 168.536 204.043 167.499 201.164C166.578 198.4 157.365 187.344 158.286 185.041C159.323 182.853 164.044 180.665 164.044 180.665Z" fill="#61C8E1"/>
<path d="M88.1513 97.1712C88.1513 97.1712 143.43 102.008 146.655 103.16L88.1513 97.1712Z" fill="white"/>
<path d="M87.5757 97.7463C87.4605 97.6311 87.3453 97.2856 87.3453 97.0553C87.3453 96.5946 87.6908 96.2491 88.2667 96.3643C90.5699 96.5946 143.545 101.201 147 102.353C147.346 102.468 147.576 102.929 147.576 103.389C147.576 103.85 147 103.965 146.54 103.965C143.661 102.929 103.238 99.3586 88.0363 97.9766C87.806 97.9766 87.6908 97.8614 87.5757 97.7463Z" fill="#CACACA"/>
<path d="M88.4964 107.881C88.4964 107.881 126.616 109.839 128.919 110.53L88.4964 107.881Z" fill="white"/>
<path d="M87.9208 108.457C87.8056 108.342 87.6905 107.996 87.6905 107.766C87.6905 107.305 88.0359 106.96 88.4966 106.96C92.4122 107.19 126.846 108.918 129.149 109.609C129.495 109.724 129.725 110.185 129.725 110.645C129.61 110.991 129.149 111.221 128.689 111.221C127.077 110.76 103.813 109.378 88.4966 108.572C88.1511 108.687 88.0359 108.572 87.9208 108.457Z" fill="#CACACA"/>
<path d="M91.3759 140.472C91.3759 140.472 146.655 145.309 149.879 146.461L91.3759 140.472Z" fill="white"/>
<path d="M90.8003 141.048C90.6851 140.932 90.57 140.587 90.57 140.357C90.57 139.896 90.9154 139.55 91.4913 139.666C93.7945 139.896 146.77 144.502 150.225 145.654C150.57 145.769 150.801 146.23 150.801 146.691C150.686 147.036 150.225 147.266 149.764 147.266C147.115 146.46 106.693 142.66 91.3761 141.393C91.1458 141.393 90.9154 141.163 90.8003 141.048Z" fill="#CACACA"/>
<path d="M91.8363 151.298C91.8363 151.298 129.956 153.255 132.259 153.946L91.8363 151.298Z" fill="white"/>
<path d="M91.2606 151.873C91.1455 151.758 91.0303 151.413 91.0303 151.182C91.0303 150.722 91.3758 150.376 91.8364 150.376C95.752 150.607 130.186 152.334 132.489 153.025C132.835 153.14 133.065 153.601 133.065 154.061C132.95 154.407 132.489 154.637 132.029 154.637C130.416 154.177 107.153 152.795 91.8364 151.989C91.491 152.104 91.3758 151.989 91.2606 151.873Z" fill="#CACACA"/>
<path d="M92.1816 179.053C92.1816 179.053 147.46 183.89 150.685 185.042L92.1816 179.053Z" fill="white"/>
<path d="M91.6059 179.628C91.4908 179.513 91.3756 179.168 91.3756 178.937C91.3756 178.477 91.7211 178.131 92.2969 178.246C94.485 178.361 147.576 183.083 150.915 184.12C151.261 184.235 151.491 184.695 151.491 185.156C151.376 185.502 150.915 185.732 150.455 185.732C147.806 184.926 107.383 181.125 92.0666 179.859C91.8363 179.859 91.7211 179.743 91.6059 179.628Z" fill="#CACACA"/>
<path d="M92.5267 189.763C92.5267 189.763 130.646 191.721 132.949 192.412L92.5267 189.763Z" fill="white"/>
<path d="M91.9511 190.339C91.8359 190.224 91.7207 189.878 91.7207 189.648C91.7207 189.187 92.0662 188.842 92.5269 188.842C96.4425 189.072 130.876 190.799 133.18 191.49C133.525 191.606 133.756 192.066 133.756 192.527C133.64 192.872 133.18 193.103 132.719 193.103C131.107 192.642 107.844 191.26 92.5269 190.454C92.1814 190.569 92.0662 190.454 91.9511 190.339Z" fill="#CACACA"/>
</g>
<defs>
<clipPath id="clip0_84_50157">
<rect width="200" height="189.739" fill="white" transform="translate(135.138 0.202393) rotate(45)"/>
</clipPath>
</defs>
</svg>
