<svg width="563" height="431" viewBox="0 0 563 431" fill="none" xmlns="http://www.w3.org/2000/svg">
<path d="M434.992 37.1718C451.864 48.6362 466.496 63.8229 477.312 81.082C487.915 98.0014 494.453 118.637 495.753 139.255C496.33 143.266 499.368 156.704 515.119 180.476C522.894 190.688 528.477 198.739 533.185 206.552C546.629 228.858 555.368 252.13 559.919 277.682C569.641 332.306 550.957 382.245 511.16 407.989C501.748 414.075 490.362 420.812 477.217 424.59C457.36 430.305 440.16 431.848 415.888 430.109C411.962 429.826 407.948 429.346 403.875 428.664C384.662 425.442 365.388 422.86 346.045 421.508C321.964 419.814 294.475 414.92 268.632 402.356C257.199 396.802 248.397 391.808 240.106 386.175C232.264 380.846 224.581 374.757 214.417 365.808C204.877 357.418 198.373 348.529 191.503 339.127L189.634 336.58C178.325 321.174 170.096 302.777 166.49 284.789C160.888 256.889 160.959 235.38 166.712 215.042C171.756 197.211 179.536 182.379 189.834 170.944C202.5 156.887 216.005 145.503 232.289 135.165C241.672 127.493 254.163 114.909 261.577 97.8362C263.073 92.6036 264.476 88.3721 265.975 84.5633C279.957 48.9579 300.871 27.4965 329.891 18.9667C355.095 11.5561 382.92 12.9756 408.221 22.9563C417.478 26.6158 426.488 31.4018 435 37.1855L434.992 37.1718Z" fill="#319FE8"/>
<path d="M438.553 6H294.183C290.117 6 286.82 9.2985 286.82 13.3674V116.288C286.82 120.357 290.117 123.655 294.183 123.655H438.553C442.619 123.655 445.916 120.357 445.916 116.288V13.3674C445.916 9.2985 442.619 6 438.553 6Z" fill="#FF7B6E"/>
<path d="M432.866 26.3636H412.168C411.411 26.3636 410.789 25.748 410.789 24.9835C410.789 24.219 411.404 23.6034 412.168 23.6034H432.866C433.63 23.6034 434.245 24.219 434.245 24.9835C434.245 25.748 433.63 26.3636 432.866 26.3636Z" fill="white"/>
<path d="M407.185 26.3636H390.091C389.327 26.3636 388.712 25.748 388.712 24.9835C388.712 24.219 389.327 23.6034 390.091 23.6034H407.185C407.949 23.6034 408.564 24.219 408.564 24.9835C408.564 25.748 407.949 26.3636 407.185 26.3636Z" fill="white"/>
<path d="M432.514 40.2257H416.908C416.151 40.2257 415.529 39.6101 415.529 38.8456C415.529 38.0811 416.144 37.4655 416.908 37.4655H432.514C433.272 37.4655 433.894 38.0811 433.894 38.8456C433.894 39.6101 433.278 40.2257 432.514 40.2257Z" fill="white"/>
<path d="M410.978 40.2257H389.997C389.239 40.2257 388.617 39.6101 388.617 38.8456C388.617 38.0811 389.232 37.4655 389.997 37.4655H410.978C411.742 37.4655 412.358 38.0811 412.358 38.8456C412.358 39.6101 411.742 40.2257 410.978 40.2257Z" fill="white"/>
<path d="M432.575 54.0947H425.232C424.475 54.0947 423.853 53.4791 423.853 52.7146C423.853 51.9501 424.468 51.3345 425.232 51.3345H432.575C433.332 51.3345 433.955 51.9501 433.955 52.7146C433.955 53.4791 433.339 54.0947 432.575 54.0947Z" fill="white"/>
<path d="M418.828 54.0947H401.89C401.133 54.0947 400.511 53.4791 400.511 52.7146C400.511 51.9501 401.126 51.3345 401.89 51.3345H418.828C419.592 51.3345 420.208 51.9501 420.208 52.7146C420.208 53.4791 419.592 54.0947 418.828 54.0947Z" fill="white"/>
<path d="M397.617 54.0947H390.524C389.767 54.0947 389.145 53.4791 389.145 52.7146C389.145 51.9501 389.76 51.3345 390.524 51.3345H397.617C398.381 51.3345 398.996 51.9501 398.996 52.7146C398.996 53.4791 398.381 54.0947 397.617 54.0947Z" fill="white"/>
<path d="M432.636 67.9567H414.731C413.967 67.9567 413.352 67.341 413.352 66.5765C413.352 65.8121 413.967 65.1964 414.731 65.1964H432.636C433.393 65.1964 434.015 65.8121 434.015 66.5765C434.015 67.341 433.4 67.9567 432.636 67.9567Z" fill="white"/>
<path d="M407.252 67.9567C400.68 67.8619 396.974 67.8552 390.686 67.9093C389.915 67.9228 389.307 67.3072 389.3 66.5427C389.293 65.785 389.902 65.1626 390.666 65.1558C396.968 65.1017 400.7 65.1085 407.272 65.2032C408.03 65.2167 408.638 65.8391 408.632 66.5968C408.618 67.3545 408.009 67.9567 407.252 67.9567Z" fill="white"/>
<path d="M432.386 81.8256H411.113C410.356 81.8256 409.734 81.2099 409.734 80.4454C409.734 79.681 410.349 79.0653 411.113 79.0653H432.386C433.143 79.0653 433.765 79.681 433.765 80.4454C433.765 81.2099 433.15 81.8256 432.386 81.8256Z" fill="white"/>
<path d="M404.46 81.8255C398.753 81.5685 394.425 81.5008 390.355 81.6158C389.658 81.6293 388.962 81.0408 388.941 80.2763C388.921 79.5186 389.516 78.8826 390.28 78.8623C394.412 78.7473 398.807 78.815 404.527 79.0721C405.284 79.1059 405.873 79.7486 405.839 80.5131C405.805 81.2505 405.197 81.8255 404.466 81.8255H404.46Z" fill="white"/>
<path d="M433.082 95.6877H404.446C403.682 95.6877 403.067 95.0721 403.067 94.3076C403.067 93.5431 403.682 92.9275 404.446 92.9275H433.082C433.846 92.9275 434.461 93.5431 434.461 94.3076C434.461 95.0721 433.846 95.6877 433.082 95.6877Z" fill="white"/>
<path d="M397.144 95.6877H390.625C389.868 95.6877 389.246 95.0721 389.246 94.3076C389.246 93.5431 389.861 92.9275 390.625 92.9275H397.144C397.908 92.9275 398.523 93.5431 398.523 94.3076C398.523 95.0721 397.908 95.6877 397.144 95.6877Z" fill="white"/>
<path d="M433.562 109.557H419.938C419.173 109.557 418.558 108.941 418.558 108.177C418.558 107.412 419.173 106.796 419.938 106.796H433.562C434.326 106.796 434.942 107.412 434.942 108.177C434.942 108.941 434.326 109.557 433.562 109.557Z" fill="white"/>
<path d="M400.896 109.672C397.441 109.672 393.979 109.651 390.544 109.611C389.787 109.604 389.178 108.975 389.185 108.217C389.192 107.459 389.807 106.857 390.565 106.857C398.753 106.959 407.029 106.938 415.177 106.796C415.948 106.796 416.563 107.398 416.577 108.149C416.59 108.907 415.982 109.536 415.224 109.55C410.484 109.631 405.69 109.672 400.903 109.672H400.896Z" fill="white"/>
<path d="M376.264 48.3982C376.264 40.6722 370.009 34.4143 362.287 34.4143H88.391C80.6691 34.4143 74.4146 40.6722 74.4146 48.3982V54.5546L376.264 54.8726V48.3982Z" fill="#000543"/>
<path d="M376.953 55.5625H376.264L73.7314 55.2378V48.3981C73.7314 40.3068 80.3106 33.7241 88.3976 33.7241H362.287C370.374 33.7241 376.953 40.3068 376.953 48.3981V55.5625ZM75.1041 53.8644L375.574 54.1824V48.3981C375.574 41.0645 369.61 35.1042 362.287 35.1042H88.3908C81.0611 35.1042 75.1041 41.0712 75.1041 48.3981V53.8644Z" fill="#000543"/>
<path d="M74.4146 54.5477V204.812C74.4146 212.538 80.6759 218.796 88.391 218.796H362.287C370.009 218.796 376.264 212.538 376.264 204.812V54.8725L74.4146 54.5545V54.5477Z" fill="white"/>
<path d="M362.287 219.493H88.3908C80.3038 219.493 73.7246 212.91 73.7246 204.819V53.8578H74.4143L376.947 54.1825V204.812C376.947 212.903 370.367 219.486 362.28 219.486L362.287 219.493ZM75.104 55.2379V204.812C75.104 212.146 81.0678 218.106 88.3908 218.106H362.28C369.61 218.106 375.567 212.139 375.567 204.812V55.5559L75.0972 55.2379H75.104Z" fill="white"/>
<path d="M190.654 63.9447H168.131C166.675 63.9447 165.494 65.126 165.494 66.5832V72.4284C165.494 73.8856 166.675 75.0669 168.131 75.0669H190.654C192.111 75.0669 193.292 73.8856 193.292 72.4284V66.5832C193.292 65.126 192.111 63.9447 190.654 63.9447Z" fill="#95BAEF"/>
<g filter="url(#filter0_d_207_71)">
<path d="M151.139 6.92688H14.9854C12.0166 6.92688 9.60986 9.33488 9.60986 12.3053V151.305C9.60986 154.276 12.0166 156.684 14.9854 156.684H151.139C154.108 156.684 156.515 154.276 156.515 151.305V12.3053C156.515 9.33488 154.108 6.92688 151.139 6.92688Z" fill="white"/>
</g>
<path d="M364.904 209.778L370.09 197.025C370.861 195.138 372.328 193.629 374.194 192.81L389.084 186.275L391.876 199.677L379.577 217.639L367.723 222.077L364.904 209.771V209.778Z" fill="#FFCFCA"/>
<path d="M399.105 195.428L386.616 150.527C385.98 148.058 382.187 148.065 379.841 149.891C378.204 151.163 376.392 154.884 377.035 157.353L386.684 201.727C387.319 204.196 393.574 202.627 396.468 201.95C399.362 201.274 399.74 197.898 399.105 195.428Z" fill="#FFCFCA"/>
<path d="M391.985 278.107C393.168 273.175 394.088 264.549 396.028 256.391C398.375 246.547 401.039 237.096 403.29 222.977C404.21 217.192 400.085 193.088 396.069 188.305C386.961 177.439 388.374 197.282 378.509 209.825C372.957 216.881 354.248 217.903 356.283 227.618C357.885 235.262 365.006 257.926 365.688 260.632C367.129 266.308 369.245 275.597 371.537 284.237C373.106 290.136 381.673 289.507 382.376 283.445L383.174 276.585C387.272 277.958 391.065 281.977 391.992 278.114L391.985 278.107Z" fill="#FFCFCA"/>
<path d="M390.984 297.585L397.746 246.297L359.954 242.143L352.557 290.224C351.394 297.767 356.553 307.198 364.16 307.78L380.037 308.862C386.318 309.728 390.497 301.576 390.984 297.591V297.585Z" fill="#FFCFCA"/>
<path d="M371.774 221.718L358.785 189.015C356.425 182.818 353.064 181.188 348.642 182.405C345.87 183.17 345.856 186.187 346.505 188.832L358.71 236.771L371.781 221.718H371.774Z" fill="#FFCFCA"/>
<path d="M372.092 215.359C371.456 215.535 370.773 215.521 370.131 215.319C369.184 215.021 368.407 214.324 368.001 213.417L360.556 196.748C360.313 196.207 360.556 195.577 361.097 195.334C361.638 195.09 362.267 195.334 362.511 195.875L369.955 212.545C370.117 212.903 370.408 213.16 370.78 213.282C371.145 213.397 371.531 213.357 371.855 213.16C376.697 210.285 384.689 203.804 383.783 192.743C383.242 186.194 379.733 172.609 377.4 163.625C376.994 162.049 376.615 160.594 376.284 159.302C375.615 156.684 375.858 153.978 376.967 151.691C377.907 149.749 379.239 148.525 380.916 148.051C381.491 147.895 382.072 148.227 382.234 148.789C382.397 149.357 382.065 149.945 381.497 150.108C380.436 150.405 379.557 151.251 378.894 152.624C378.008 154.458 377.812 156.643 378.36 158.774C378.685 160.06 379.063 161.514 379.469 163.084C381.957 172.684 385.358 185.835 385.913 192.567C386.954 205.245 377.19 212.477 372.951 214.994C372.68 215.156 372.396 215.271 372.099 215.352L372.092 215.359Z" fill="#FF7664" fill-opacity="0.2"/>
<path d="M366.736 207.329C366.52 207.39 366.283 207.383 366.053 207.288C365.506 207.065 365.242 206.442 365.458 205.894L368.995 197.106C370.11 194.333 372.342 192.093 375.114 190.97L383.526 187.554C384.08 187.33 384.695 187.594 384.919 188.142C385.142 188.69 384.878 189.313 384.33 189.536L375.919 192.952C373.681 193.859 371.882 195.665 370.983 197.905L367.446 206.693C367.318 207.018 367.047 207.241 366.736 207.322V207.329Z" fill="#FF7664" fill-opacity="0.2"/>
<path d="M350.934 255.044C346.113 287.673 339.642 319.667 336.39 351.274C334.916 365.589 347.33 392.204 359.291 395.567C376.128 400.296 395.71 397.982 399.618 345.977C400.964 328.049 403.216 276.355 404 266.559L350.927 255.044H350.934Z" fill="#E4E8FA"/>
<path d="M335.821 329.057C335.619 329.179 335.375 329.226 335.132 329.185C334.584 329.084 334.226 328.563 334.32 328.015L340.73 292.409C340.825 291.861 341.352 291.496 341.9 291.597C342.448 291.699 342.806 292.22 342.712 292.768L336.302 328.373C336.247 328.671 336.072 328.915 335.828 329.057H335.821Z" fill="#B5C3EB"/>
<path d="M247.811 100.883C248.116 101.871 248.224 102.913 248.156 103.989C247.669 102.649 247.034 101.377 246.324 100.16C246.953 100.423 247.453 100.674 247.818 100.883H247.811Z" fill="#000543"/>
<path d="M254.715 91.987C254.323 90.6474 246.344 93.5092 245.769 92.2914C243.396 91.0669 233.72 86.9671 223.841 87.921C215.727 88.699 207.458 93.1235 205.071 95.0043C204.449 95.4982 203.928 96.3506 203.489 97.4533C199.445 103.698 200.811 127.884 202.38 134.081L196.45 134.128L195.55 188.873H234.126L234.802 155.953C246.689 153.991 254.053 138.674 254.053 125.766L254.587 98.7793L254.722 91.987H254.715Z" fill="#FD9783"/>
<path d="M244.14 121.856C245.492 130.495 242.267 137.051 236.925 136.496C231.59 135.941 226.16 128.493 224.808 119.853C223.456 111.214 226.681 104.658 232.023 105.213C237.358 105.768 242.787 113.217 244.14 121.856Z" fill="#FD9783"/>
<path d="M235.099 122.674C234.775 122.674 234.457 122.519 234.261 122.228C233.95 121.768 234.078 121.139 234.538 120.834C234.816 120.645 235.012 120.307 235.059 119.921C235.106 119.535 235.005 119.177 234.788 118.926C234.417 118.514 234.45 117.878 234.856 117.506C235.269 117.134 235.904 117.161 236.276 117.573C236.891 118.25 237.175 119.197 237.054 120.158C236.932 121.132 236.425 121.984 235.654 122.498C235.485 122.613 235.289 122.668 235.093 122.668L235.099 122.674Z" fill="#FF7664"/>
<path d="M235.153 135.562C234.836 135.562 234.511 135.535 234.193 135.481C231.516 135.035 228.946 132.694 226.972 128.892C226.796 128.553 226.924 128.141 227.262 127.965C227.594 127.789 228.013 127.918 228.189 128.256C229.933 131.618 232.205 133.756 234.416 134.121C236.039 134.392 237.675 133.749 239.285 132.214C239.562 131.95 239.995 131.956 240.258 132.234C240.522 132.511 240.509 132.944 240.238 133.208C238.602 134.771 236.898 135.562 235.16 135.562H235.153Z" fill="#FF7664"/>
<path d="M235.37 155.608C234.552 155.608 233.713 155.236 233.051 154.559C232.395 153.883 232.009 153.037 231.725 152.3C231.59 151.948 231.766 151.549 232.117 151.407C232.476 151.278 232.868 151.447 233.01 151.799C233.247 152.408 233.551 153.098 234.031 153.592C234.477 154.045 235.059 154.289 235.552 154.207C235.924 154.153 236.283 154.41 236.337 154.783C236.398 155.161 236.134 155.513 235.762 155.567C235.634 155.588 235.498 155.594 235.363 155.594L235.37 155.608Z" fill="#FF7664"/>
<path d="M250.963 103.928C250.584 104.171 250.469 104.679 250.706 105.058C250.861 105.308 251.125 105.45 251.402 105.45C251.551 105.45 251.693 105.409 251.828 105.328C251.896 105.288 252.896 104.692 254.492 104.652V103.008C252.389 103.055 251.044 103.874 250.963 103.928Z" fill="#000543"/>
<path d="M236.79 171.107C236.83 171.215 236.79 171.155 236.763 171.087L236.79 171.107Z" fill="white"/>
<path d="M273.722 209.92C289.396 200.259 312.893 218.762 321.007 232.577C332.366 251.919 388.766 338.521 392.809 344.509C400.761 356.294 391.011 377.476 380.314 389.464C363.119 408.738 342.759 385.554 331.981 373.566C311.243 350.489 276.704 302.956 255.567 272.709C245.918 258.901 257.23 220.081 273.722 209.913V209.92Z" fill="#E4E8FA"/>
<path d="M192.764 215.21C184.204 198.913 155.947 202.363 142.714 209.832C124.194 220.284 36.6366 264.232 30.4632 267.202C18.3192 273.033 10.0023 297.605 13.3223 313.294C18.6573 338.508 53.0473 327.873 67.6391 323.326C95.7339 314.579 146.778 292.314 178.558 277.715C193.062 271.051 201.771 232.36 192.764 215.21Z" fill="#E4E8FA"/>
<path d="M376.27 319.971C375.817 319.971 375.378 319.748 375.114 319.342L328.939 248.13C328.526 247.494 328.709 246.642 329.344 246.229C329.98 245.816 330.832 245.992 331.244 246.635L377.42 317.847C377.832 318.483 377.65 319.335 377.014 319.748C376.784 319.897 376.521 319.971 376.264 319.971H376.27Z" fill="#C1CCF4"/>
<path d="M237.013 200.915C241.78 199.583 247.683 194.346 246.905 186.492C220.771 174.422 197.207 176.391 178.903 183.197C196.098 196.024 216.058 209.575 237.013 200.915Z" fill="#FD9783"/>
<path d="M292.756 210.326C292.756 210.326 259.036 191.647 246.953 186.491C247.575 194.346 240.955 199.582 235.688 200.915C213.611 206.997 199.445 196.017 180.952 183.197C157.069 191.214 133.248 205.921 130.191 212.22C130.448 212.24 147.116 283.445 143.221 344.536L308.457 344.184C304.021 313.503 295.61 270.077 292.743 210.319L292.756 210.326Z" fill="#E4E8FA"/>
<path d="M142.815 366.449C142.815 366.53 142.809 366.597 142.802 366.679H142.924C142.045 382.902 142.626 392.914 139.124 410.092L321.791 409.699C321.791 409.699 317.382 397.779 312.095 366.834L142.815 366.449Z" fill="#E4E8FA"/>
<path d="M308.471 344.184L143.235 344.536C143.235 344.59 143.235 344.644 143.228 344.698C143.221 344.779 143.221 344.854 143.214 344.928C143.201 345.111 143.194 345.3 143.181 345.483C142.788 352.553 143.431 358.682 142.822 366.435L312.102 366.8C310.925 360.184 309.708 352.675 308.477 344.171L308.471 344.184Z" fill="#E4E8FA"/>
<path d="M138.995 409.821C139.022 416.701 142.085 422.323 145.838 422.323H316.76C320.513 422.323 323.759 416.898 321.859 409.699L138.995 409.821Z" fill="#CBD5F7"/>
<path d="M144.479 359.731C144.479 359.731 144.418 359.731 144.391 359.731C143.634 359.683 143.059 359.027 143.106 358.27C144.202 340.91 142.951 323.482 139.387 306.461C139.232 305.717 139.705 304.986 140.449 304.83C141.193 304.675 141.923 305.148 142.079 305.893C145.696 323.151 146.967 340.835 145.852 358.445C145.804 359.176 145.203 359.738 144.479 359.738V359.731Z" fill="#C1CCF4"/>
<path d="M271.376 182.784C274.189 189.049 275.974 201.456 275.48 213.647C274.858 228.991 261.416 241.791 261.977 257.135C262.248 264.421 265.98 271.18 266.737 278.439C268.117 291.665 259.428 303.93 249.333 312.583C240.928 319.782 229.852 325.722 219.162 322.873C211.095 320.722 204.482 313.835 196.138 313.51C187.585 313.179 180.573 319.775 172.838 323.442C156.42 331.228 134.025 323.482 127.061 306.691C124.525 300.582 123.923 293.769 121.023 287.822C119.623 284.954 117.365 282.275 114.694 280.502C111.583 278.439 111.705 273.777 114.917 271.876C128.379 263.927 144.587 260.612 160.065 262.933C167.374 264.029 174.825 266.302 182 264.55C190.29 262.527 196.382 255.559 201.149 248.482C206.024 241.243 210.27 232.827 209.202 224.154C208.242 216.387 203.198 209.798 200.594 202.417C197.707 194.245 197.944 185.01 201.25 176.993C204.043 170.214 209.824 163.909 217.14 163.53C219.892 163.388 222.644 164.098 225.396 163.929C231.029 163.591 235.931 159.559 238.724 154.654C241.516 149.749 242.53 144.053 243.261 138.451C243.721 134.947 244.309 131.03 247.135 128.912C250.049 126.734 254.363 127.309 257.569 127.552C261.504 127.843 265.311 129.298 268.232 131.95C278.178 141.002 265.392 150.791 263.404 159.87C260.902 171.337 266.697 172.332 271.376 182.771V182.784Z" fill="#000543"/>
<path d="M320.939 70.4869C320.188 70.4869 319.573 69.878 319.56 69.1203C319.553 68.3626 320.161 67.7402 320.926 67.7266C328.472 67.6522 334.347 67.5778 340.21 67.4966C346.167 67.4154 352.104 67.341 359.771 67.2666C360.536 67.2666 361.151 67.8755 361.164 68.6332C361.171 69.3909 360.563 70.0133 359.799 70.0268C352.138 70.1013 346.194 70.1825 340.244 70.2569C334.381 70.3313 328.505 70.4057 320.953 70.4869H320.939Z" fill="#727BB7"/>
<path d="M271.944 70.9807C271.193 70.9807 270.578 70.3718 270.565 69.6141C270.558 68.8564 271.166 68.234 271.93 68.2205L309.127 67.8484C309.897 67.8484 310.506 68.4573 310.519 69.215C310.526 69.9727 309.918 70.5951 309.154 70.6086L271.957 70.9807H271.944Z" fill="#727BB7"/>
<path d="M272.005 87.6775C271.248 87.6775 270.639 87.0686 270.626 86.3109C270.619 85.5532 271.227 84.9308 271.991 84.9172L318.37 84.4504C319.141 84.4504 319.749 85.0593 319.763 85.817C319.77 86.5747 319.161 87.1972 318.397 87.2107L272.018 87.6775H272.005Z" fill="#727BB7"/>
<path d="M297.104 104.131C296.347 104.131 295.738 103.522 295.725 102.764C295.718 102.006 296.326 101.384 297.091 101.371L343.929 100.897C344.7 100.897 345.308 101.506 345.322 102.264C345.329 103.021 344.72 103.644 343.956 103.657L297.118 104.131H297.104Z" fill="#727BB7"/>
<path d="M271.971 104.381C271.214 104.381 270.605 103.772 270.592 103.015C270.585 102.257 271.194 101.634 271.958 101.621L286.942 101.472C287.706 101.472 288.321 102.081 288.335 102.839C288.341 103.596 287.733 104.219 286.969 104.232L271.985 104.381H271.971Z" fill="#727BB7"/>
<path d="M327.782 120.523C327.032 120.523 326.416 119.914 326.403 119.156C326.396 118.399 327.005 117.776 327.769 117.763L350.238 117.54C351.002 117.54 351.617 118.148 351.631 118.906C351.638 119.664 351.029 120.286 350.265 120.3L327.796 120.523H327.782Z" fill="#727BB7"/>
<path d="M272.187 121.078C271.43 121.078 270.821 120.469 270.808 119.711C270.801 118.953 271.409 118.331 272.174 118.318L316.334 117.878C317.098 117.878 317.714 118.487 317.727 119.244C317.734 120.002 317.125 120.625 316.361 120.638L272.201 121.078H272.187Z" fill="#727BB7"/>
<path d="M271.944 137.788C271.187 137.788 270.578 137.179 270.565 136.421C270.558 135.664 271.166 135.041 271.93 135.028L303.677 134.71C304.447 134.71 305.056 135.319 305.069 136.076C305.076 136.834 304.468 137.457 303.704 137.47L271.957 137.788H271.944Z" fill="#727BB7"/>
<path d="M297.861 154.228C297.111 154.228 296.496 153.626 296.482 152.868C296.475 152.104 297.077 151.481 297.841 151.474L346.241 150.832C347.012 150.832 347.628 151.434 347.634 152.191C347.641 152.949 347.039 153.578 346.275 153.585L297.875 154.228H297.855H297.861Z" fill="#727BB7"/>
<path d="M272.329 154.485C271.572 154.485 270.963 153.876 270.95 153.118C270.943 152.361 271.552 151.738 272.316 151.725L286.596 151.583C287.327 151.603 287.976 152.185 287.989 152.949C287.996 153.707 287.387 154.329 286.623 154.343L272.343 154.485H272.329Z" fill="#727BB7"/>
<path d="M272.127 171.087C271.376 171.087 270.768 170.492 270.747 169.741C270.734 168.983 271.336 168.354 272.093 168.333C290.917 167.941 310.276 167.772 329.649 167.853C330.406 167.853 331.021 168.476 331.021 169.233C331.021 169.991 330.406 170.607 329.642 170.607C310.29 170.532 290.951 170.695 272.147 171.087H272.12H272.127Z" fill="#727BB7"/>
<path d="M303.156 187.574C302.405 187.574 301.79 186.972 301.777 186.221C301.763 185.463 302.365 184.834 303.129 184.821L331.981 184.306C332.752 184.306 333.367 184.909 333.381 185.659C333.394 186.417 332.793 187.046 332.028 187.06L303.183 187.574H303.156Z" fill="#727BB7"/>
<path d="M272.167 187.885C271.416 187.885 270.801 187.276 270.788 186.519C270.781 185.761 271.389 185.138 272.154 185.125L292.08 184.922C292.885 184.969 293.466 185.524 293.473 186.289C293.48 187.046 292.871 187.669 292.107 187.682L272.181 187.885H272.167Z" fill="#727BB7"/>
<path d="M280.687 204.589C279.93 204.589 279.321 203.98 279.308 203.222C279.301 202.464 279.909 201.842 280.674 201.829C288.936 201.747 295.137 201.659 301.324 201.578C307.585 201.497 313.84 201.409 322.211 201.328C322.982 201.328 323.59 201.937 323.604 202.694C323.61 203.452 323.002 204.075 322.238 204.088C313.874 204.169 307.626 204.257 301.364 204.338C295.177 204.42 288.97 204.508 280.707 204.589H280.694H280.687Z" fill="#727BB7"/>
<path d="M104.199 155.987L85.4558 143.924C78.5048 139.452 71.6484 141.644 67.4156 148.802L44.9126 183.075L76.2396 203.236L104.199 155.987Z" fill="#FFCFCA"/>
<path d="M81.9802 134.676C86.3009 132.477 86.8824 134.676 90.7772 135.089C93.7997 135.407 100.142 133.019 102.279 134.73C107.763 139.141 112.503 144.411 116.391 150.405C119.954 155.906 122.699 163.429 118.338 171.479C114.119 179.259 106.403 184.503 98.7019 186.945C84.1034 191.572 78.8563 193.095 66.834 189.644C51.7757 185.321 45.8254 174.578 59.6869 157.678C66.8205 148.985 72.5747 139.452 81.9802 134.676Z" fill="#FFCFCA"/>
<path d="M110.67 164.031L129.15 125.265C130.401 122.641 133.518 121.484 136.067 122.701C138.623 123.919 139.684 127.058 138.434 129.69L119.954 168.455C118.703 171.08 115.586 172.237 113.037 171.019C110.481 169.801 109.419 166.656 110.67 164.031Z" fill="#FFCFCA"/>
<path d="M104.132 151.901L123.152 113.419C124.444 110.815 127.574 109.705 130.11 110.957C132.646 112.208 133.667 115.368 132.382 117.979L113.361 156.46C112.07 159.072 108.946 160.174 106.41 158.923C103.875 157.671 102.854 154.512 104.138 151.901H104.132Z" fill="#FFCFCA"/>
<path d="M89.0531 147.929L112.422 112.148C114.004 109.726 117.243 109.015 119.623 110.571C121.996 112.134 122.645 115.388 121.063 117.817L97.6945 153.599C96.1123 156.021 92.8734 156.731 90.4933 155.168C88.1199 153.612 87.4708 150.351 89.0531 147.929Z" fill="#FFCFCA"/>
<path d="M69.1665 146.13L98.0187 114.969C99.9729 112.858 103.286 112.723 105.382 114.671C107.478 116.619 107.593 119.934 105.639 122.045L76.787 153.206C74.8328 155.317 71.5196 155.452 69.4235 153.504C67.3273 151.555 67.2124 148.24 69.1665 146.13Z" fill="#FFCFCA"/>
<path d="M108.303 137.592C108.303 137.592 107.1 142.091 110.345 139.425L109.953 143.119L107.134 142.152L105.788 139.358L108.303 137.592Z" fill="#FF7664" fill-opacity="0.2"/>
<path d="M131.699 116.592C131.334 116.647 131.003 116.877 130.834 117.242L114.565 152.537C114.301 153.105 114.552 153.781 115.119 154.045C115.687 154.302 116.364 154.059 116.627 153.49L132.896 118.196C133.16 117.628 132.91 116.951 132.342 116.687C132.132 116.592 131.909 116.565 131.699 116.592Z" fill="#FF7664" fill-opacity="0.2"/>
<path d="M121.57 114.996C121.252 115.043 120.955 115.226 120.772 115.517L107.343 136.99C107.012 137.524 107.174 138.221 107.702 138.552C108.236 138.884 108.932 138.722 109.264 138.194L122.692 116.721C123.024 116.186 122.862 115.49 122.334 115.158C122.097 115.009 121.82 114.955 121.563 114.996H121.57Z" fill="#FF7664" fill-opacity="0.2"/>
<path d="M105.47 120.929C105.227 120.963 104.99 121.085 104.808 121.281L91.6766 135.508C91.2506 135.968 91.2776 136.685 91.7374 137.112C92.1972 137.538 92.914 137.511 93.34 137.051L106.471 122.823C106.897 122.363 106.87 121.646 106.41 121.22C106.147 120.976 105.802 120.882 105.47 120.929Z" fill="#FF7664" fill-opacity="0.2"/>
<path d="M59.0853 296.651C54.3048 307.408 37.6169 333.535 25.1754 327.947C9.89392 321.08 -7.78118 303.842 3.65963 273.29C12.815 248.854 29.2797 210.109 43.1074 178.786L85.8414 196.951C76.7469 225.588 63.6292 286.415 59.0786 296.651H59.0853Z" fill="#E4E8FA"/>
<path d="M51.6879 260.937C51.2011 260.937 50.7278 260.673 50.4776 260.213C50.1125 259.543 50.3627 258.711 51.0321 258.346L101.251 231.129C101.921 230.764 102.752 231.014 103.117 231.684C103.483 232.354 103.232 233.186 102.563 233.551L52.3438 260.768C52.1342 260.883 51.9111 260.937 51.6879 260.937Z" fill="#C1CCF4"/>
<path d="M45.9742 129.216C45.9742 133.945 42.1403 137.781 37.4138 137.781C32.6874 137.781 28.8535 133.945 28.8535 129.216C28.8535 124.488 32.6874 120.652 37.4138 120.652C42.1403 120.652 45.9742 124.488 45.9742 129.216Z" fill="white"/>
<path d="M37.4141 138.471C32.3158 138.471 28.1641 134.318 28.1641 129.216C28.1641 124.115 32.3158 119.962 37.4141 119.962C42.5124 119.962 46.6641 124.109 46.6641 129.216C46.6641 134.324 42.5124 138.471 37.4141 138.471ZM37.4141 121.342C33.0731 121.342 29.5435 124.873 29.5435 129.216C29.5435 133.56 33.0731 137.091 37.4141 137.091C41.7551 137.091 45.2847 133.56 45.2847 129.216C45.2847 124.873 41.7551 121.342 37.4141 121.342Z" fill="#000543"/>
<path d="M143.14 32.1546C143.14 36.8835 139.306 40.7195 134.58 40.7195C129.853 40.7195 126.02 36.8835 126.02 32.1546C126.02 27.4256 129.853 23.5897 134.58 23.5897C139.306 23.5897 143.14 27.4256 143.14 32.1546Z" fill="white"/>
<path d="M134.58 41.4028C129.481 41.4028 125.33 37.2489 125.33 32.1479C125.33 27.0468 129.481 22.8929 134.58 22.8929C139.678 22.8929 143.83 27.0468 143.83 32.1479C143.83 37.2489 139.678 41.4028 134.58 41.4028ZM134.58 24.2731C130.239 24.2731 126.709 27.8046 126.709 32.1479C126.709 36.4912 130.239 40.0227 134.58 40.0227C138.921 40.0227 142.45 36.4912 142.45 32.1479C142.45 27.8046 138.921 24.2731 134.58 24.2731Z" fill="#000543"/>
<path d="M38.0091 121.078C37.9415 121.078 37.8739 121.071 37.8062 121.051C37.4411 120.943 37.2383 120.557 37.3464 120.192C38.0158 117.986 38.8205 115.787 39.7401 113.656C39.8888 113.311 40.2945 113.142 40.6462 113.298C40.9978 113.447 41.1533 113.852 41.0045 114.204C40.1052 116.288 39.3141 118.439 38.665 120.591C38.5771 120.888 38.2998 121.078 38.0091 121.078ZM43.4455 108.461C43.3306 108.461 43.2156 108.433 43.1074 108.373C42.7761 108.183 42.6611 107.764 42.8505 107.432C43.9864 105.43 45.2441 103.461 46.5965 101.573C46.8196 101.262 47.2456 101.195 47.5566 101.418C47.8677 101.641 47.9353 102.067 47.7121 102.379C46.3868 104.225 45.1562 106.154 44.0473 108.116C43.9188 108.339 43.6889 108.467 43.4455 108.467V108.461ZM51.4446 97.2843C51.2823 97.2843 51.12 97.2301 50.9916 97.1084C50.7076 96.858 50.6805 96.4183 50.9307 96.1342C52.4656 94.4022 54.102 92.738 55.8059 91.1752C56.0831 90.9181 56.5226 90.9384 56.7796 91.2158C57.0365 91.4932 57.0163 91.9329 56.739 92.19C55.0756 93.7189 53.4664 95.3562 51.9653 97.0475C51.83 97.2031 51.6407 97.2775 51.4514 97.2775L51.4446 97.2843ZM61.5669 87.9887C61.3573 87.9887 61.1476 87.894 61.0124 87.7114C60.7825 87.4069 60.8501 86.9739 61.1544 86.7507C63.0206 85.3638 64.968 84.0716 66.9424 82.9012C67.2738 82.7118 67.693 82.8133 67.8823 83.1448C68.0784 83.4695 67.9702 83.8957 67.6389 84.0852C65.705 85.2285 63.7982 86.5004 61.9726 87.8534C61.8509 87.9481 61.7021 87.9887 61.5601 87.9887H61.5669ZM73.3999 81.0002C73.1362 81.0002 72.886 80.8513 72.771 80.5943C72.6155 80.2492 72.771 79.8433 73.1159 79.6809C75.2323 78.7203 77.4163 77.8746 79.6003 77.1642C79.9587 77.0492 80.3509 77.2454 80.4658 77.604C80.5808 77.9626 80.3847 78.3549 80.0263 78.47C77.8896 79.16 75.7529 79.9921 73.6839 80.9258C73.5892 80.9664 73.4945 80.9866 73.3999 80.9866V81.0002ZM86.4432 76.6839C86.1322 76.6839 85.8549 76.4742 85.7738 76.1562C85.6859 75.7909 85.909 75.412 86.2809 75.3241C87.2411 75.0873 88.1945 74.864 89.1546 74.634C90.4258 74.3296 91.697 74.0319 92.9682 73.7139C93.3401 73.6192 93.712 73.8425 93.7999 74.2146C93.8946 74.5799 93.6715 74.9588 93.2996 75.0467C92.0284 75.3647 90.7504 75.6691 89.4724 75.9736C88.519 76.1968 87.5589 76.4268 86.6055 76.6569C86.5514 76.6704 86.4973 76.6771 86.4432 76.6771V76.6839ZM99.7435 73.166C99.4595 73.166 99.189 72.9833 99.0943 72.6991C98.9726 72.3406 99.162 71.9482 99.5203 71.8264C99.8449 71.7182 100.169 71.5964 100.494 71.4814C102.313 70.8184 104.098 70.0674 105.809 69.2488C106.154 69.0865 106.559 69.2285 106.728 69.5736C106.891 69.9186 106.749 70.3313 106.404 70.4937C104.652 71.3258 102.827 72.097 100.967 72.7736C100.636 72.8953 100.298 73.0104 99.9666 73.1254C99.8922 73.1524 99.8178 73.166 99.7435 73.166ZM112.131 67.226C111.901 67.226 111.678 67.111 111.549 66.908C111.347 66.5901 111.441 66.1639 111.759 65.9541C113.693 64.7229 115.532 63.3698 117.229 61.9356C117.52 61.692 117.953 61.7258 118.196 62.0167C118.44 62.3076 118.406 62.7406 118.115 62.9842C116.377 64.459 114.484 65.8459 112.496 67.111C112.381 67.1854 112.253 67.2192 112.124 67.2192L112.131 67.226ZM122.591 58.3432C122.429 58.3432 122.267 58.2891 122.138 58.174C121.854 57.9237 121.827 57.484 122.077 57.1998C123.578 55.5017 124.944 53.6819 126.148 51.7944C126.351 51.4764 126.777 51.3817 127.101 51.5846C127.419 51.7876 127.514 52.2138 127.311 52.5385C126.074 54.487 124.66 56.3609 123.112 58.1199C122.977 58.2755 122.787 58.3499 122.598 58.3499L122.591 58.3432ZM129.941 46.7745C129.847 46.7745 129.759 46.7542 129.671 46.7204C129.319 46.5715 129.164 46.1656 129.312 45.8138C130.009 44.2037 130.611 42.5191 131.104 40.8143C131.212 40.4489 131.591 40.2392 131.956 40.3475C132.321 40.4557 132.531 40.8346 132.423 41.1999C131.909 42.9589 131.287 44.6908 130.57 46.3618C130.455 46.6189 130.205 46.7745 129.941 46.7745Z" fill="#000543"/>
<path d="M35.3855 21.8376H25.7297C24.5385 21.8376 23.5728 22.8039 23.5728 23.9958V33.6566C23.5728 34.8485 24.5385 35.8148 25.7297 35.8148H35.3855C36.5767 35.8148 37.5424 34.8485 37.5424 33.6566V23.9958C37.5424 22.8039 36.5767 21.8376 35.3855 21.8376Z" fill="#F9CFA2"/>
<path d="M64.4539 56.9834H74.1096C75.2996 56.9834 76.2666 57.9508 76.2666 59.1415V68.8024C76.2666 69.9931 75.2996 70.9605 74.1096 70.9605H64.4539C63.2638 70.9605 62.2969 69.9931 62.2969 68.8024V59.1415C62.2969 57.9508 63.2638 56.9834 64.4539 56.9834Z" fill="#F9CFA2"/>
<path d="M98.7835 22.2367H108.439C109.629 22.2367 110.596 23.2041 110.596 24.3948V34.0557C110.596 35.2464 109.629 36.2138 108.439 36.2138H98.7835C97.5934 36.2138 96.6265 35.2464 96.6265 34.0557V24.3948C96.6265 23.2041 97.5934 22.2367 98.7835 22.2367Z" fill="#F9CFA2"/>
<path d="M62.2094 58.059C62.0471 58.059 61.8781 57.9981 61.7496 57.8831L56.658 53.2488C56.374 52.9918 56.3537 52.5588 56.6107 52.2746C56.8676 51.9905 57.3004 51.9702 57.5844 52.2273L62.6759 56.8615C62.9599 57.1186 62.9802 57.5516 62.7233 57.8357C62.588 57.9846 62.3987 58.059 62.2161 58.059H62.2094ZM52.0263 48.7973C51.864 48.7973 51.6949 48.7364 51.5665 48.6214L46.4749 43.9871C46.1909 43.7301 46.1706 43.2971 46.4276 43.0129C46.6845 42.7288 47.1173 42.7085 47.4012 42.9656L52.4928 47.5998C52.7768 47.8569 52.7971 48.2899 52.5401 48.574C52.4049 48.7228 52.2156 48.7973 52.033 48.7973H52.0263ZM41.8431 39.5356C41.6808 39.5356 41.5118 39.4747 41.3833 39.3597L36.2918 34.7254C36.0078 34.4684 35.9875 34.0354 36.2444 33.7512C36.5014 33.4671 36.9341 33.4468 37.2181 33.7039L42.3097 38.3381C42.5937 38.5952 42.614 39.0282 42.357 39.3123C42.2218 39.4612 42.0324 39.5356 41.8499 39.5356H41.8431Z" fill="#000543"/>
<path d="M75.4692 58.4716C75.2866 58.4716 75.1108 58.404 74.9756 58.2619C74.7118 57.9845 74.7186 57.5515 74.9958 57.2877L79.9454 52.5046C80.2226 52.2408 80.6554 52.2475 80.9191 52.5182C81.1828 52.7955 81.176 53.2285 80.8988 53.4924L75.9492 58.2754C75.814 58.404 75.645 58.4716 75.4692 58.4716ZM85.375 48.9122C85.1925 48.9122 85.0167 48.8446 84.8814 48.7025C84.6177 48.4251 84.6245 47.9922 84.9017 47.7283L89.8513 42.9453C90.1285 42.6814 90.5613 42.6882 90.825 42.9588C91.0887 43.2362 91.0819 43.6691 90.8047 43.933L85.8551 48.7161C85.7199 48.8446 85.5509 48.9122 85.375 48.9122ZM95.281 39.3529C95.0984 39.3529 94.9226 39.2852 94.7874 39.1432C94.5236 38.8658 94.5304 38.4328 94.8076 38.1689L97.7557 35.3275C98.033 35.0637 98.4657 35.0704 98.7294 35.341C98.9931 35.6184 98.9864 36.0514 98.7091 36.3153L95.761 39.1567C95.6258 39.2852 95.4568 39.3529 95.281 39.3529Z" fill="#000543"/>
<path d="M292.317 26.2958H285.434C285.055 26.2958 284.744 25.9846 284.744 25.6057C284.744 25.2269 285.055 24.9156 285.434 24.9156H292.317C292.696 24.9156 293.007 25.2269 293.007 25.6057C293.007 25.9846 292.696 26.2958 292.317 26.2958ZM278.557 26.2958H271.674C271.295 26.2958 270.984 25.9846 270.984 25.6057C270.984 25.2269 271.295 24.9156 271.674 24.9156H278.557C278.936 24.9156 279.247 25.2269 279.247 25.6057C279.247 25.9846 278.936 26.2958 278.557 26.2958ZM264.797 26.2958H257.913C257.535 26.2958 257.224 25.9846 257.224 25.6057C257.224 25.2269 257.535 24.9156 257.913 24.9156H264.797C265.176 24.9156 265.487 25.2269 265.487 25.6057C265.487 25.9846 265.176 26.2958 264.797 26.2958ZM251.037 26.2958H244.153C243.775 26.2958 243.464 25.9846 243.464 25.6057C243.464 25.2269 243.775 24.9156 244.153 24.9156H251.037C251.415 24.9156 251.726 25.2269 251.726 25.6057C251.726 25.9846 251.415 26.2958 251.037 26.2958ZM237.277 26.2958H230.393C230.015 26.2958 229.704 25.9846 229.704 25.6057C229.704 25.2269 230.015 24.9156 230.393 24.9156H237.277C237.655 24.9156 237.966 25.2269 237.966 25.6057C237.966 25.9846 237.655 26.2958 237.277 26.2958ZM223.517 26.2958H216.633C216.255 26.2958 215.944 25.9846 215.944 25.6057C215.944 25.2269 216.255 24.9156 216.633 24.9156H223.517C223.895 24.9156 224.206 25.2269 224.206 25.6057C224.206 25.9846 223.895 26.2958 223.517 26.2958ZM209.75 26.2958H202.866C202.488 26.2958 202.177 25.9846 202.177 25.6057C202.177 25.2269 202.488 24.9156 202.866 24.9156H209.75C210.128 24.9156 210.44 25.2269 210.44 25.6057C210.44 25.9846 210.128 26.2958 209.75 26.2958ZM195.99 26.2958H189.106C188.728 26.2958 188.417 25.9846 188.417 25.6057C188.417 25.2269 188.728 24.9156 189.106 24.9156H195.99C196.368 24.9156 196.679 25.2269 196.679 25.6057C196.679 25.9846 196.368 26.2958 195.99 26.2958ZM182.23 26.2958H175.346C174.968 26.2958 174.657 25.9846 174.657 25.6057C174.657 25.2269 174.968 24.9156 175.346 24.9156H182.23C182.608 24.9156 182.919 25.2269 182.919 25.6057C182.919 25.9846 182.608 26.2958 182.23 26.2958ZM168.47 26.2958H161.586C161.208 26.2958 160.896 25.9846 160.896 25.6057C160.896 25.2269 161.208 24.9156 161.586 24.9156H168.47C168.848 24.9156 169.159 25.2269 169.159 25.6057C169.159 25.9846 168.848 26.2958 168.47 26.2958Z" fill="#3C3C49"/>
<path d="M283.56 126.016C282.343 119.217 278.28 113.074 273.749 107.96C270.152 103.901 267.082 100.694 264.979 95.6131C264.973 95.5928 264.959 95.5658 264.952 95.5455C264.35 94.0774 263.573 92.6973 262.728 91.3577C260.489 87.8195 259.739 83.8618 256.73 79.762C251.875 73.1388 242.3 67.7198 231.732 67.0771C201.575 65.2504 184.238 86.5611 187.078 107.277C188.471 117.458 189.228 121.998 178.653 129.034C173.71 132.322 166.799 133.891 161.978 137.267C148.739 146.556 156.907 164.572 143.309 173.597C138.535 176.763 131.807 178.197 127.128 181.431C115.363 189.563 121.895 204.047 115.032 214.5C114.552 216.259 113.977 217.991 113.24 219.675C110.481 225.967 105.606 230.567 100.616 235.1C95.6797 239.579 91.1967 244.287 89.3575 250.877C87.8428 256.289 86.9571 263.366 89.655 268.582C93.0426 275.124 101.441 276.443 107.878 278.148C115.207 280.089 122.578 282.708 127.365 288.945C132.085 295.088 133.342 303.639 137.311 309.972C144.06 313.693 150.767 317.447 158.307 318.726C167.908 318.178 177.814 314.119 185.076 308.849C190.154 305.168 193.609 300.27 196.963 295.068C199.485 291.157 202.136 287.193 206.105 284.615C211.001 281.429 216.762 281.057 222.421 281.645C228.439 282.275 234.849 284.067 240.583 281.233C253.363 274.914 252.916 260.301 251.638 248.299C251.469 246.709 251.327 245.133 251.226 243.577C247.899 223.423 254.641 212.626 262.051 206.138C276.041 193.879 271.937 181.417 269.753 172.487C267.299 162.434 269.611 155.709 275.954 147.726C281.113 141.225 285.116 134.676 283.56 125.996V126.016Z" fill="#000543"/>
<path d="M326.402 49.8222C328.647 47.5765 328.647 43.9355 326.402 41.6898C324.158 39.444 320.519 39.444 318.274 41.6898C316.03 43.9355 316.03 47.5765 318.274 49.8222C320.519 52.0679 324.158 52.0679 326.402 49.8222Z" fill="white"/>
<path d="M347.002 47.0732C347.731 43.9822 345.818 40.8851 342.728 40.1556C339.639 39.426 336.544 41.3404 335.814 44.4313C335.085 47.5223 336.999 50.6195 340.088 51.349C343.177 52.0786 346.273 50.1642 347.002 47.0732Z" fill="white"/>
<path d="M365.629 47.071C366.358 43.9801 364.445 40.8829 361.356 40.1534C358.266 39.4238 355.171 41.3382 354.442 44.4291C353.713 47.5201 355.626 50.6173 358.715 51.3468C361.805 52.0764 364.9 50.162 365.629 47.071Z" fill="white"/>
<path d="M445.7 404.348H438.816C438.437 404.348 438.126 404.037 438.126 403.658C438.126 403.279 438.437 402.968 438.816 402.968H445.7C446.078 402.968 446.389 403.279 446.389 403.658C446.389 404.037 446.078 404.348 445.7 404.348ZM431.939 404.348H427.247C426.868 404.348 426.557 404.037 426.557 403.658C426.557 403.279 426.868 402.968 427.247 402.968H431.939C432.318 402.968 432.629 403.279 432.629 403.658C432.629 404.037 432.318 404.348 431.939 404.348ZM452.583 404.287C452.231 404.287 451.927 404.016 451.9 403.658C451.866 403.279 452.15 402.947 452.529 402.914C454.747 402.731 456.877 402.136 458.858 401.141C459.196 400.972 459.608 401.107 459.784 401.452C459.953 401.791 459.818 402.203 459.473 402.379C457.33 403.455 455.031 404.098 452.637 404.294C452.617 404.294 452.596 404.294 452.576 404.294L452.583 404.287ZM464.598 398.279C464.436 398.279 464.274 398.218 464.139 398.103C463.855 397.853 463.828 397.413 464.085 397.129C465.565 395.465 466.701 393.564 467.452 391.473C467.58 391.115 467.979 390.932 468.331 391.061C468.689 391.189 468.872 391.582 468.743 391.94C467.932 394.193 466.708 396.243 465.106 398.043C464.97 398.198 464.781 398.273 464.592 398.273L464.598 398.279ZM469.176 385.642C468.798 385.642 468.486 385.331 468.486 384.952V378.065C468.486 377.686 468.798 377.375 469.176 377.375C469.555 377.375 469.866 377.686 469.866 378.065V384.952C469.866 385.331 469.555 385.642 469.176 385.642ZM469.176 371.874C468.798 371.874 468.486 371.563 468.486 371.184V364.297C468.486 363.918 468.798 363.607 469.176 363.607C469.555 363.607 469.866 363.918 469.866 364.297V371.184C469.866 371.563 469.555 371.874 469.176 371.874ZM469.176 358.107C468.798 358.107 468.486 357.796 468.486 357.417V350.53C468.486 350.151 468.798 349.84 469.176 349.84C469.555 349.84 469.866 350.151 469.866 350.53V357.417C469.866 357.796 469.555 358.107 469.176 358.107ZM469.176 344.34C468.798 344.34 468.486 344.028 468.486 343.65V336.762C468.486 336.384 468.798 336.072 469.176 336.072C469.555 336.072 469.866 336.384 469.866 336.762V343.65C469.866 344.028 469.555 344.34 469.176 344.34ZM469.176 330.572C468.798 330.572 468.486 330.261 468.486 329.882V322.995C468.486 322.616 468.798 322.305 469.176 322.305C469.555 322.305 469.866 322.616 469.866 322.995V329.882C469.866 330.261 469.555 330.572 469.176 330.572ZM469.176 316.805C468.798 316.805 468.486 316.494 468.486 316.115V309.228C468.486 308.849 468.798 308.538 469.176 308.538C469.555 308.538 469.866 308.849 469.866 309.228V316.115C469.866 316.494 469.555 316.805 469.176 316.805ZM469.176 303.037C468.798 303.037 468.486 302.726 468.486 302.347V295.46C468.486 295.081 468.798 294.77 469.176 294.77C469.555 294.77 469.866 295.081 469.866 295.46V302.347C469.866 302.726 469.555 303.037 469.176 303.037ZM469.176 289.27C468.798 289.27 468.486 288.959 468.486 288.58V281.693C468.486 281.314 468.798 281.003 469.176 281.003C469.555 281.003 469.866 281.314 469.866 281.693V288.58C469.866 288.959 469.555 289.27 469.176 289.27ZM469.176 275.503C468.798 275.503 468.486 275.191 468.486 274.813V267.925C468.486 267.547 468.798 267.235 469.176 267.235C469.555 267.235 469.866 267.547 469.866 267.925V274.813C469.866 275.191 469.555 275.503 469.176 275.503ZM469.176 261.735C468.798 261.735 468.486 261.424 468.486 261.045V254.158C468.486 253.779 468.798 253.468 469.176 253.468C469.555 253.468 469.866 253.779 469.866 254.158V261.045C469.866 261.424 469.555 261.735 469.176 261.735ZM469.176 247.968C468.798 247.968 468.486 247.657 468.486 247.278V240.391C468.486 240.012 468.798 239.701 469.176 239.701C469.555 239.701 469.866 240.012 469.866 240.391V247.278C469.866 247.657 469.555 247.968 469.176 247.968ZM469.176 234.2C468.798 234.2 468.486 233.889 468.486 233.51V226.623C468.486 226.244 468.798 225.933 469.176 225.933C469.555 225.933 469.866 226.244 469.866 226.623V233.51C469.866 233.889 469.555 234.2 469.176 234.2ZM469.176 220.433C468.798 220.433 468.486 220.122 468.486 219.743V212.856C468.486 212.477 468.798 212.166 469.176 212.166C469.555 212.166 469.866 212.477 469.866 212.856V219.743C469.866 220.122 469.555 220.433 469.176 220.433ZM469.176 206.666C468.798 206.666 468.486 206.354 468.486 205.976V199.089C468.486 198.71 468.798 198.398 469.176 198.398C469.555 198.398 469.866 198.71 469.866 199.089V205.976C469.866 206.354 469.555 206.666 469.176 206.666ZM469.176 192.898C468.798 192.898 468.486 192.587 468.486 192.208V185.321C468.486 184.942 468.798 184.631 469.176 184.631C469.555 184.631 469.866 184.942 469.866 185.321V192.208C469.866 192.587 469.555 192.898 469.176 192.898ZM469.176 179.131C468.798 179.131 468.486 178.82 468.486 178.441V171.554C468.486 171.175 468.798 170.864 469.176 170.864C469.555 170.864 469.866 171.175 469.866 171.554V178.441C469.866 178.82 469.555 179.131 469.176 179.131ZM469.176 165.363C468.798 165.363 468.486 165.052 468.486 164.673V157.786C468.486 157.408 468.798 157.096 469.176 157.096C469.555 157.096 469.866 157.408 469.866 157.786V164.673C469.866 165.052 469.555 165.363 469.176 165.363ZM469.176 151.596C468.798 151.596 468.486 151.285 468.486 150.906V144.019C468.486 143.64 468.798 143.329 469.176 143.329C469.555 143.329 469.866 143.64 469.866 144.019V150.906C469.866 151.285 469.555 151.596 469.176 151.596ZM469.176 137.829C468.798 137.829 468.486 137.518 468.486 137.139V130.252C468.486 129.873 468.798 129.562 469.176 129.562C469.555 129.562 469.866 129.873 469.866 130.252V137.139C469.866 137.518 469.555 137.829 469.176 137.829ZM469.176 124.061C468.798 124.061 468.486 123.75 468.486 123.371V116.484C468.486 116.105 468.798 115.794 469.176 115.794C469.555 115.794 469.866 116.105 469.866 116.484V123.371C469.866 123.75 469.555 124.061 469.176 124.061ZM469.176 110.294C468.798 110.294 468.486 109.983 468.486 109.604V102.717C468.486 102.338 468.798 102.027 469.176 102.027C469.555 102.027 469.866 102.338 469.866 102.717V109.604C469.866 109.983 469.555 110.294 469.176 110.294ZM469.176 96.5265C468.798 96.5265 468.486 96.2153 468.486 95.8365V88.9494C468.486 88.5705 468.798 88.2593 469.176 88.2593C469.555 88.2593 469.866 88.5705 469.866 88.9494V95.8365C469.866 96.2153 469.555 96.5265 469.176 96.5265ZM469.176 82.7591C468.798 82.7591 468.486 82.4479 468.486 82.0691V75.182C468.486 74.8031 468.798 74.4919 469.176 74.4919C469.555 74.4919 469.866 74.8031 469.866 75.182V82.0691C469.866 82.4479 469.555 82.7591 469.176 82.7591ZM469.176 68.9917C468.798 68.9917 468.486 68.6805 468.486 68.3017V61.4146C468.486 61.0358 468.798 60.7245 469.176 60.7245C469.555 60.7245 469.866 61.0358 469.866 61.4146V68.3017C469.866 68.6805 469.555 68.9917 469.176 68.9917ZM465.052 59.3512H458.168C457.789 59.3512 457.478 59.04 457.478 58.6611C457.478 58.2823 457.789 57.9711 458.168 57.9711H465.052C465.43 57.9711 465.741 58.2823 465.741 58.6611C465.741 59.04 465.43 59.3512 465.052 59.3512ZM451.291 59.3512H444.408C444.029 59.3512 443.718 59.04 443.718 58.6611C443.718 58.2823 444.029 57.9711 444.408 57.9711H451.291C451.67 57.9711 451.981 58.2823 451.981 58.6611C451.981 59.04 451.67 59.3512 451.291 59.3512Z" fill="#3C3C49"/>
<defs>
<filter id="filter0_d_207_71" x="3.60986" y="0.92688" width="166.905" height="169.757" filterUnits="userSpaceOnUse" color-interpolation-filters="sRGB">
<feFlood flood-opacity="0" result="BackgroundImageFix"/>
<feColorMatrix in="SourceAlpha" type="matrix" values="0 0 0 0 0 0 0 0 0 0 0 0 0 0 0 0 0 0 127 0" result="hardAlpha"/>
<feOffset dx="4" dy="4"/>
<feGaussianBlur stdDeviation="5"/>
<feComposite in2="hardAlpha" operator="out"/>
<feColorMatrix type="matrix" values="0 0 0 0 0 0 0 0 0 0 0 0 0 0 0 0 0 0 0.08 0"/>
<feBlend mode="normal" in2="BackgroundImageFix" result="effect1_dropShadow_207_71"/>
<feBlend mode="normal" in="SourceGraphic" in2="effect1_dropShadow_207_71" result="shape"/>
</filter>
</defs>
</svg>
