<svg width="449" height="89" viewBox="0 0 449 89" fill="none" xmlns="http://www.w3.org/2000/svg">
<g filter="url(#filter0_d_65_46959)">
<rect x="9.81519" y="5.66254" width="430" height="70" rx="35" fill="#C2EEBB" shape-rendering="crispEdges"/>
<rect x="7.31519" y="3.16254" width="435" height="75" rx="37.5" stroke="white" stroke-width="5" shape-rendering="crispEdges"/>
<path d="M62.8181 32.9125C62.8181 34.3969 62.7986 35.6762 62.7595 36.7504C62.7302 37.8246 62.6472 39.06 62.5105 40.4565C62.3738 41.8432 62.1541 43.3422 61.8513 44.9536L58.658 44.6313C59.0583 42.4731 59.3074 40.5297 59.405 38.8012C59.5125 37.0727 59.5662 35.1098 59.5662 32.9125V32.8246H43.5408V30.2172H62.8181V32.9125ZM65.2498 50.8422H41.1091V48.1762H46.5291V39.7387H49.781V48.1762H53.1501V39.7387H56.3435V48.1762H65.2498V50.8422ZM81.8318 32.4145C81.8318 34.1528 81.7878 35.7983 81.7 37.351C81.6218 38.894 81.4216 40.6664 81.0994 42.6684L77.8767 42.4047C78.1599 40.6078 78.3455 38.9868 78.4333 37.5414C78.531 36.0961 78.5847 34.6313 78.5945 33.1469H68.2087V30.5395H81.8318V32.4145ZM75.1521 45.9203C78.1599 45.8032 80.8259 45.5981 83.1501 45.3051L83.3259 47.7368C79.2439 48.3813 74.2439 48.7036 68.3259 48.7036H67.1248L66.8025 46.0961C69.0876 46.0766 70.7966 46.0522 71.9294 46.0229V38.0981H75.1521V45.9203ZM87.8083 38.5668H91.6462V41.3207H87.8083V54.27H84.5271V27.7856H87.8083V38.5668ZM102.75 34.143C102.75 35.8032 103.004 37.4096 103.511 38.9623C104.029 40.5053 104.781 41.8725 105.767 43.0639C106.763 44.2553 107.945 45.1489 109.312 45.7446L107.349 48.352C105.885 47.6391 104.62 46.6137 103.555 45.2758C102.501 43.9379 101.685 42.3852 101.109 40.6176C100.513 42.4926 99.6736 44.143 98.5896 45.5688C97.5154 46.9946 96.2361 48.0883 94.7517 48.85L92.7009 46.2133C94.0974 45.559 95.2986 44.602 96.3044 43.3422C97.3201 42.0825 98.0916 40.6518 98.6189 39.0502C99.156 37.4487 99.4294 35.8129 99.4392 34.143V29.9243H102.75V34.143ZM115.172 54.2993H111.949V38.977H106.383V36.3403H111.949V27.7856H115.172V54.2993ZM135.504 35.3149C135.504 36.7016 135.767 38.0981 136.295 39.5043C136.832 40.9106 137.598 42.1899 138.594 43.3422C139.6 44.4946 140.777 45.3832 142.125 46.0082L140.308 48.5864C138.853 47.9028 137.579 46.9018 136.485 45.5834C135.391 44.2553 134.537 42.7368 133.922 41.0278C133.306 42.893 132.432 44.5483 131.3 45.9936C130.167 47.4389 128.853 48.518 127.359 49.2309L125.455 46.6821C126.812 46.0375 128.004 45.1049 129.029 43.8842C130.064 42.6635 130.855 41.3012 131.402 39.7973C131.959 38.2934 132.242 36.7993 132.252 35.3149V33.0883H126.48V30.393H141.041V33.0883H135.504V35.3149ZM146.754 38.0981H150.826V40.8227H146.754V54.27H143.502V27.7856H146.754V38.0981ZM176.138 51.1938H151.939V48.4985H158.355V44.1332H154.81V35.4907H170.045V32.2387H154.752V29.602H173.267V38.0981H158.062V41.4965H173.883V44.1332H170.015V48.4985H176.138V51.1938ZM166.822 48.4985V44.1332H161.519V48.4985H166.822ZM180.592 54.8559H177.31L184.166 29.4555H187.418L180.592 54.8559ZM203.414 32.268H201.07V39.7827C202.144 39.7045 203.092 39.6118 203.912 39.5043V37.1313H207.545V34.8461H203.912V32.2387H207.545V27.7856H210.797V44.0161H207.545V39.7387H203.985L204.117 41.9067C201.861 42.2778 199.449 42.5268 196.881 42.6537C194.322 42.7807 191.695 42.8442 189 42.8442L188.648 40.1489L191.636 40.1342V32.268H189.322V29.6313H203.414V32.268ZM201.832 44.4848C203.717 44.4848 205.333 44.6752 206.68 45.0561C208.038 45.437 209.078 45.9936 209.801 46.726C210.523 47.4584 210.885 48.3422 210.885 49.3774C210.885 50.3832 210.523 51.2524 209.801 51.9848C209.078 52.7172 208.038 53.2739 206.68 53.6547C205.323 54.0453 203.707 54.2407 201.832 54.2407C199.967 54.2407 198.355 54.0453 196.998 53.6547C195.65 53.2739 194.615 52.7172 193.892 51.9848C193.179 51.2524 192.828 50.3832 192.838 49.3774C192.828 48.3422 193.179 47.4584 193.892 46.726C194.605 45.9936 195.635 45.437 196.983 45.0561C198.341 44.6752 199.957 44.4848 201.832 44.4848ZM201.832 46.975C199.976 46.975 198.551 47.1801 197.554 47.5903C196.558 48.0004 196.06 48.5961 196.06 49.3774C196.06 50.1391 196.558 50.7202 197.554 51.1205C198.551 51.5209 199.976 51.7211 201.832 51.7211C203.697 51.7211 205.128 51.5209 206.124 51.1205C207.13 50.7202 207.633 50.1391 207.633 49.3774C207.633 48.5961 207.135 48.0004 206.138 47.5903C205.142 47.1801 203.707 46.975 201.832 46.975ZM194.801 40.0903C195.484 40.0707 196.529 40.0317 197.935 39.9731V32.268H194.801V40.0903ZM235.289 38.1274H239.215V40.852H235.289V54.2114H232.037V27.7856H235.289V38.1274ZM228.287 30.5395C228.287 39.2309 224.273 45.5493 216.246 49.4946L214.4 46.975C217.623 45.3735 220.108 43.435 221.856 41.1596C223.614 38.8842 224.659 36.2426 224.991 33.2348H215.836V30.5395H228.287ZM257.086 35.3149C257.086 36.7016 257.349 38.0981 257.877 39.5043C258.414 40.9106 259.18 42.1899 260.177 43.3422C261.182 44.4946 262.359 45.3832 263.707 46.0082L261.89 48.5864C260.435 47.9028 259.161 46.9018 258.067 45.5834C256.973 44.2553 256.119 42.7368 255.504 41.0278C254.888 42.893 254.014 44.5483 252.882 45.9936C251.749 47.4389 250.435 48.518 248.941 49.2309L247.037 46.6821C248.394 46.0375 249.586 45.1049 250.611 43.8842C251.646 42.6635 252.437 41.3012 252.984 39.7973C253.541 38.2934 253.824 36.7993 253.834 35.3149V33.0883H248.062V30.393H262.623V33.0883H257.086V35.3149ZM268.336 38.0981H272.408V40.8227H268.336V54.27H265.084V27.7856H268.336V38.0981ZM297.72 51.1938H273.521V48.4985H279.937V44.1332H276.392V35.4907H291.627V32.2387H276.334V29.602H294.849V38.0981H279.644V41.4965H295.465V44.1332H291.597V48.4985H297.72V51.1938ZM288.404 48.4985V44.1332H283.101V48.4985H288.404ZM327.31 37.8344H331.383V40.5004H327.31V54.2993H324.058V27.7856H327.31V37.8344ZM320.045 32.9418H310.904V45.1C313.043 45.1 314.971 45.0366 316.69 44.9096C318.409 44.7827 320.152 44.5629 321.92 44.2504L322.301 47.0043C320.386 47.3364 318.492 47.5561 316.617 47.6635C314.752 47.7709 312.496 47.8246 309.849 47.8246H307.652V30.3051H320.045V32.9418ZM356.666 43.4887H346.441V48.352H343.131V43.4887H332.467V40.8813H356.666V43.4887ZM354 53.7426H335.426V45.8911H338.707V51.0766H354V53.7426ZM344.537 28.3715C346.431 28.3715 348.092 28.5912 349.517 29.0307C350.953 29.4702 352.061 30.1 352.843 30.9203C353.634 31.7309 354.029 32.6879 354.029 33.7914C354.029 34.895 353.634 35.852 352.843 36.6625C352.061 37.4731 350.953 38.0981 349.517 38.5375C348.092 38.9672 346.431 39.1821 344.537 39.1821C342.642 39.1821 340.977 38.9672 339.542 38.5375C338.116 38.0981 337.008 37.4731 336.217 36.6625C335.435 35.852 335.045 34.895 335.045 33.7914C335.045 32.6879 335.435 31.7309 336.217 30.9203C337.008 30.1 338.116 29.4702 339.542 29.0307C340.977 28.5912 342.642 28.3715 344.537 28.3715ZM344.537 30.9496C343.326 30.9496 342.266 31.062 341.358 31.2866C340.46 31.5112 339.766 31.8383 339.278 32.268C338.79 32.6879 338.551 33.1957 338.56 33.7914C338.551 34.3676 338.79 34.8657 339.278 35.2856C339.766 35.7055 340.46 36.0278 341.358 36.2524C342.266 36.4672 343.326 36.5746 344.537 36.5746C345.758 36.5746 346.817 36.4672 347.716 36.2524C348.624 36.0278 349.322 35.7055 349.81 35.2856C350.299 34.8657 350.543 34.3676 350.543 33.7914C350.543 33.1957 350.299 32.6879 349.81 32.268C349.322 31.8383 348.624 31.5112 347.716 31.2866C346.817 31.062 345.758 30.9496 344.537 30.9496ZM382.623 51.1938H358.424V48.4985H368.853V44.1918H361.295V35.52H376.529V32.2387H361.236V29.602H379.752V38.0981H364.547V41.5258H380.367V44.1918H372.076V48.4985H382.623V51.1938ZM405.855 42.8149H387.281V30.1H405.65V32.7368H390.504V40.2075H405.855V42.8149ZM408.551 50.9008H384.351V48.2055H408.551V50.9008Z" fill="#000543"/>
</g>
<defs>
<filter id="filter0_d_65_46959" x="0.815186" y="0.662537" width="448" height="88" filterUnits="userSpaceOnUse" color-interpolation-filters="sRGB">
<feFlood flood-opacity="0" result="BackgroundImageFix"/>
<feColorMatrix in="SourceAlpha" type="matrix" values="0 0 0 0 0 0 0 0 0 0 0 0 0 0 0 0 0 0 127 0" result="hardAlpha"/>
<feOffset dy="4"/>
<feGaussianBlur stdDeviation="2"/>
<feComposite in2="hardAlpha" operator="out"/>
<feColorMatrix type="matrix" values="0 0 0 0 0 0 0 0 0 0 0 0 0 0 0 0 0 0 0.05 0"/>
<feBlend mode="normal" in2="BackgroundImageFix" result="effect1_dropShadow_65_46959"/>
<feBlend mode="normal" in="SourceGraphic" in2="effect1_dropShadow_65_46959" result="shape"/>
</filter>
</defs>
</svg>
