<svg width="470" height="433" viewBox="0 0 470 433" fill="none" xmlns="http://www.w3.org/2000/svg">
<path d="M295.93 421.748C289.716 381.112 276.999 341.528 272.792 300.606C271.549 288.081 270.689 274.409 262.466 264.847C252.522 253.183 235.408 251.462 220.11 250.601C214.182 250.314 207.871 250.028 202.517 252.609C194.294 256.625 190.661 266.282 188.94 275.174C187.028 285.691 186.837 296.495 185.88 307.204C182.821 342.867 171.06 377.097 164.654 412.282C159.874 438.576 195.633 431.596 212.078 431.883C236.746 432.265 261.414 431.978 286.082 431.022C289.811 430.926 294.209 430.257 295.644 426.815C296.313 425.189 296.121 423.373 295.835 421.652L295.93 421.748Z" fill="#000543"/>
<path d="M1.34867 329.864C1.73112 336.748 2.1135 343.919 5.45994 349.847C12.344 361.99 27.7374 363.615 40.8363 363.711C139.604 364.476 240.475 368.97 339.051 363.711C368.978 362.086 403.781 362.181 432.369 352.525C441.548 349.369 450.727 345.258 457.228 337.609C468.224 324.606 469.658 294.583 469.371 276.799C467.746 193.234 473.483 118.465 466.216 35.1871C465.738 29.2591 465.164 23.1396 462.296 18.0721C455.125 5.35565 425.581 3.73024 411.908 3.73024C304.344 3.44341 240.188 -3.24939 148.113 2.00929C125.262 3.34786 102.507 -2.19773 79.9421 1.33993C64.2616 3.82586 27.1639 4.68641 15.308 16.9248C5.65115 26.8685 -0.276877 67.2168 0.00995965 81.3675C0.583634 106.8 1.25284 132.234 2.01774 157.667C3.83437 215.034 -1.5197 272.401 1.34867 329.769V329.864Z" fill="#000543"/>
<path d="M21.5962 312.817C21.883 318.84 22.2654 325.185 25.229 330.348C31.3474 340.996 48.7468 337.876 60.6013 337.876C149.988 337.876 241.381 341.318 330.672 336.155C357.727 334.542 385.929 338.844 411.741 330.132C420.059 327.336 428.376 323.572 434.303 316.904C444.341 305.395 445.775 278.937 445.584 263.449C444.628 189.991 450.172 125.782 444.15 52.5382C443.767 47.3756 443.194 41.9977 440.708 37.4805C434.303 26.295 407.535 25.1124 395.107 25.2199C297.69 25.6501 239.661 18.7661 156.202 23.9287C135.552 25.2193 114.902 20.4875 94.4438 23.8217C80.1994 26.0803 46.6436 27.0482 35.8408 37.9111C27.0456 46.7304 21.4051 82.2226 21.6919 94.6988C22.0743 117.07 22.5522 139.441 23.1258 161.812C24.4642 212.254 19.3018 262.697 21.5962 313.139V312.817Z" fill="white"/>
<path d="M376.34 419.262C263.805 421.27 178.04 416.776 76.7866 420.6C76.7866 424.425 76.6911 428.345 76.5955 432.169L74.2052 432.456C174.789 432.743 275.469 432.456 376.053 431.405C377.105 427.389 377.201 423.277 376.34 419.166V419.262Z" fill="#000543"/>
<path d="M324.4 140.791C324.4 142.962 322.74 144.622 320.569 144.622C318.399 144.622 316.739 142.962 316.739 140.791C316.739 138.62 318.399 136.961 320.569 136.961C322.74 136.961 324.4 138.62 324.4 140.791Z" fill="#05B9DF"/>
<path d="M324.4 128.15C324.4 130.321 322.74 131.981 320.569 131.981C318.399 131.981 316.739 130.321 316.739 128.15C316.739 125.98 318.399 124.32 320.569 124.32C322.74 124.32 324.4 126.107 324.4 128.15Z" fill="#ED7971"/>
<path d="M324.4 153.432C324.4 155.602 322.74 157.262 320.569 157.262C318.399 157.262 316.739 155.602 316.739 153.432C316.739 151.261 318.399 149.601 320.569 149.601C322.74 149.601 324.4 151.261 324.4 153.432Z" fill="#45B035"/>
<path d="M208.59 173.478H188.161C186.501 173.478 185.224 173.095 184.33 172.329C183.309 171.435 182.798 170.158 182.798 168.371V164.285C182.798 162.753 183.309 161.476 184.203 160.71C185.096 159.944 186.373 159.561 188.033 159.561H204.249V156.369H185.735C185.096 156.369 184.203 156.241 183.564 155.602C183.309 155.347 182.926 154.709 182.926 153.815C182.926 153.176 183.181 152.666 183.564 152.155C184.075 151.644 184.713 151.389 185.735 151.389H204.887C206.675 151.389 207.952 151.9 208.718 152.793C209.484 153.687 209.867 154.709 209.867 155.985V159.561C209.867 161.093 209.484 162.242 208.59 163.136C207.697 163.902 206.42 164.413 204.76 164.413H188.544V168.243H208.59C209.612 168.243 210.25 168.499 210.761 169.009C211.272 169.52 211.527 170.158 211.527 170.797C211.527 171.435 211.272 172.074 210.761 172.584C210.25 173.223 209.484 173.478 208.59 173.478Z" fill="#0055A7"/>
<path d="M232.978 154.326H219.699C218.039 154.326 216.762 153.943 215.868 153.177C214.847 152.283 214.336 151.006 214.336 149.218V142.323C214.336 140.919 214.847 139.77 215.741 138.876C216.634 138.11 217.911 137.727 219.571 137.727H227.488V130.832H218.294C217.911 130.832 216.762 130.832 215.996 130.066C215.613 129.555 215.358 129.044 215.358 128.406C215.358 127.767 215.613 127.257 215.996 126.746C216.507 126.235 217.145 125.98 218.167 125.98H228.254C229.914 125.98 231.19 126.49 231.957 127.384C232.723 128.278 233.106 129.3 233.106 130.576V137.854C233.106 139.387 232.723 140.536 231.829 141.43C230.935 142.323 229.658 142.706 227.998 142.706H219.954V149.474H232.978C233.361 149.474 234.51 149.474 235.276 150.24C235.659 150.75 235.915 151.261 235.915 151.9C235.915 152.538 235.659 153.177 235.276 153.56C234.51 154.326 233.361 154.326 232.978 154.326Z" fill="#0055A7"/>
<path d="M270.39 131.342C270.39 132.875 269.879 134.151 268.73 135.173C267.58 136.194 266.431 136.705 264.899 136.705C263.367 136.705 262.218 136.194 261.196 135.173C260.175 134.151 259.664 132.875 259.664 131.342C259.664 129.938 260.175 128.661 261.196 127.64C262.218 126.618 263.495 125.98 264.899 125.98C266.304 125.98 267.58 126.49 268.602 127.64C269.879 128.661 270.39 129.81 270.39 131.342ZM275.752 131.342C275.752 128.533 274.603 126.107 272.56 124.064C270.389 122.021 267.963 121 265.027 121C262.09 121 259.536 122.021 257.493 124.064C255.45 126.107 254.301 128.533 254.301 131.342C254.301 134.151 255.323 136.705 257.493 138.748C259.536 140.791 262.09 141.813 265.027 141.813C267.836 141.813 270.389 140.791 272.56 138.748C274.603 136.705 275.752 134.151 275.752 131.342Z" fill="#0055A7"/>
<path d="M308.056 155.858H282.647C282.264 155.858 281.115 155.858 280.349 155.092C279.966 154.581 279.71 154.07 279.71 153.432C279.71 152.793 279.966 152.283 280.349 151.772C281.115 151.006 282.264 151.006 282.647 151.006H308.056C309.078 151.006 309.716 151.261 310.227 151.772C310.61 152.283 310.865 152.793 310.865 153.432C310.865 154.07 310.61 154.709 310.227 155.092C309.589 155.858 308.439 155.858 308.056 155.858Z" fill="#0055A7"/>
<path d="M304.098 144.622H288.138C286.733 144.622 285.456 144.239 284.435 143.6C283.286 142.834 282.647 141.43 282.647 139.642V130.704C282.647 129.044 283.158 127.767 284.179 126.874C285.073 126.107 286.35 125.724 288.01 125.724H303.204C303.587 125.724 304.737 125.724 305.503 126.49C305.886 127.001 306.141 127.512 306.141 128.15C306.141 128.789 305.886 129.3 305.503 129.81C304.737 130.576 303.587 130.576 303.204 130.576H288.393V139.514H304.226C304.609 139.514 305.758 139.514 306.524 140.28C306.907 140.791 307.163 141.302 307.163 141.94C307.163 142.579 306.907 143.217 306.524 143.6C305.63 144.622 304.481 144.622 304.098 144.622Z" fill="#0055A7"/>
<path d="M250.854 128.15C250.854 127.512 250.598 126.874 250.088 126.363C249.577 125.98 248.939 125.724 248.045 125.724H241.278C240.639 125.724 240.001 125.98 239.362 126.49C238.724 127.001 238.341 127.895 238.341 128.916V152.155C238.341 153.176 238.596 154.07 239.235 154.581C239.745 155.092 240.511 155.347 241.278 155.347C241.916 155.347 242.682 155.092 243.193 154.581C243.831 154.07 244.087 153.176 244.087 152.155V130.832V130.704H244.214H248.045C248.939 130.704 249.577 130.449 250.088 130.066C250.471 129.81 250.854 129.172 250.854 128.15Z" fill="#0055A7"/>
<path d="M278.817 145.643C278.306 145.132 277.668 144.877 276.646 144.877H250.471C250.088 144.877 248.939 144.877 248.172 145.643C247.789 146.154 247.534 146.665 247.534 147.303C247.534 147.941 247.789 148.58 248.172 148.963C248.939 149.729 250.088 149.729 250.471 149.729H263.367C263.367 152.793 263.367 157.262 263.367 157.262C263.367 158.284 263.622 159.178 264.261 159.688C264.771 160.199 265.41 160.455 266.176 160.455C266.942 160.455 267.58 160.199 268.091 159.688C268.73 159.178 268.985 158.284 268.985 157.262C268.985 157.262 268.985 152.666 268.985 149.729H276.518C276.901 149.729 278.051 149.729 278.817 148.963C279.2 148.452 279.455 147.941 279.455 147.303C279.455 146.665 279.2 146.026 278.817 145.643Z" fill="#0055A7"/>
<path d="M209.739 144.111V131.853C209.739 129.427 209.229 127.767 208.207 126.873C207.186 125.98 205.526 125.469 203.1 125.469H185.607C185.224 125.469 183.82 125.469 183.053 126.363C182.67 126.873 182.415 127.384 182.415 128.023C182.415 128.661 182.67 129.299 183.181 129.81C183.692 130.321 184.458 130.576 185.607 130.576H203.994C203.994 130.576 203.994 130.704 203.994 130.959V134.151H186.756C185.735 134.151 184.969 134.407 184.458 134.918C183.947 135.428 183.692 136.067 183.692 136.705C183.692 137.344 183.947 137.982 184.33 138.365C184.969 139.131 185.99 139.131 186.629 139.131H203.866V143.345H178.457C177.818 143.345 176.925 143.472 176.286 144.111C175.775 144.622 175.52 145.132 175.52 145.898C175.52 146.792 175.903 147.431 176.286 147.686C176.797 148.069 177.435 148.324 178.457 148.324H206.93C207.569 148.324 208.335 148.324 208.973 147.686C209.356 147.431 209.739 146.792 209.739 145.898V144.111Z" fill="#0055A7"/>
<path d="M130.447 139.387C139.385 147.303 147.813 141.557 150.749 139.131C150.494 138.876 149.983 138.493 149.855 138.365C147.429 135.684 140.662 127.384 140.662 127.384C139.258 125.597 137.087 124.448 134.661 124.448C130.447 124.448 127 128.023 127 132.364C127 134.279 127.638 136.067 128.788 137.471C129.171 137.854 130.575 139.514 130.447 139.387Z" fill="#0055A7"/>
<path d="M172.073 126.873C169.008 123.809 164.156 123.809 161.092 126.873L151.771 138.11C151.771 138.11 141.428 149.091 130.448 139.387C132.618 142.068 137.726 148.452 141.811 152.538C142.45 153.176 142.833 154.07 142.833 155.092V166.328C142.833 170.669 146.28 174.244 150.622 174.244C154.963 174.244 158.41 170.669 158.41 166.328V155.347C158.41 152.538 159.943 153.559 172.073 138.11C175.009 134.918 175.009 129.938 172.073 126.873Z" fill="#05B9DF"/>
<g opacity="0.7">
<mask id="mask0_35_64823" style="mask-type:luminance" maskUnits="userSpaceOnUse" x="127" y="124" width="24" height="20">
<path d="M150.622 124.448H127V143.345H150.622V124.448Z" fill="white"/>
</mask>
<g mask="url(#mask0_35_64823)">
<mask id="mask1_35_64823" style="mask-type:luminance" maskUnits="userSpaceOnUse" x="127" y="124" width="24" height="20">
<path d="M150.622 124.448H127V143.345H150.622V124.448Z" fill="white"/>
</mask>
<g mask="url(#mask1_35_64823)">
<path d="M130.447 139.387C139.385 147.303 147.813 141.557 150.749 139.131C150.494 138.876 149.983 138.493 149.855 138.365C147.429 135.684 140.662 127.384 140.662 127.384C139.258 125.597 137.087 124.448 134.661 124.448C130.447 124.448 127 128.023 127 132.364C127 134.279 127.638 136.067 128.788 137.471C129.171 137.854 130.575 139.514 130.447 139.387Z" fill="url(#paint0_linear_35_64823)" fill-opacity="0.7"/>
</g>
</g>
</g>
<g filter="url(#filter0_d_35_64823)">
<path d="M131.011 206.859L134.682 213.266H134.839L138.53 206.859H140.971L135.835 215.453V221H133.686V215.453L128.569 206.859H131.011ZM155.132 207.328C155.132 208.259 155.11 209.086 155.064 209.809C155.025 210.525 154.918 211.319 154.742 212.191H157.086V213.695H141.168V212.191H152.886C153.03 211.495 153.13 210.834 153.189 210.209L142.945 210.629L142.711 209.184L153.277 208.891C153.29 208.546 153.296 208.057 153.296 207.426H143.16V205.941H155.132V207.328ZM155.25 219.398H144.879V220.98H155.875V222.445H143.023V218.012H153.414V216.586H142.984V215.16H155.25V219.398ZM171.266 211.996H174.079V213.559H171.266V222.699H169.43V205.16H171.266V211.996ZM166.325 213.168H160.192V216.957C161.813 216.951 163.213 216.908 164.391 216.83C165.576 216.745 166.774 216.592 167.985 216.371L168.161 217.875C166.865 218.116 165.586 218.282 164.323 218.373C163.066 218.458 161.552 218.507 159.782 218.52H158.356V211.664H164.489V208.246H158.317V206.742H166.325V213.168ZM190.114 216.645H182.966V222.66H181.15V216.645H174.099V215.102H190.114V216.645ZM182.068 205.824C183.292 205.824 184.372 205.984 185.31 206.303C186.254 206.615 186.986 207.068 187.507 207.66C188.034 208.246 188.298 208.93 188.298 209.711C188.298 210.486 188.034 211.166 187.507 211.752C186.986 212.331 186.254 212.777 185.31 213.09C184.372 213.402 183.292 213.559 182.068 213.559C180.837 213.559 179.75 213.402 178.806 213.09C177.868 212.777 177.139 212.331 176.618 211.752C176.098 211.166 175.837 210.486 175.837 209.711C175.837 208.93 176.098 208.246 176.618 207.66C177.139 207.068 177.868 206.615 178.806 206.303C179.75 205.984 180.837 205.824 182.068 205.824ZM182.068 207.309C181.202 207.315 180.443 207.416 179.792 207.611C179.141 207.807 178.637 208.083 178.279 208.441C177.92 208.799 177.745 209.223 177.751 209.711C177.745 210.193 177.92 210.613 178.279 210.971C178.637 211.322 179.141 211.596 179.792 211.791C180.443 211.98 181.202 212.074 182.068 212.074C182.933 212.074 183.692 211.98 184.343 211.791C184.994 211.596 185.499 211.322 185.857 210.971C186.221 210.613 186.404 210.193 186.404 209.711C186.404 209.223 186.224 208.799 185.866 208.441C185.508 208.083 185.001 207.807 184.343 207.611C183.692 207.416 182.933 207.315 182.068 207.309ZM204.783 214.984H192.596V206.723H204.627V208.246H194.432V213.461H204.783V214.984ZM206.619 220.355H190.604V218.812H206.619V220.355ZM221.249 211.762H209.198V205.785H211.034V210.277H221.249V211.762ZM223.085 215.453H207.069V213.969H223.085V215.453ZM221.366 222.25H209.061V217.113H210.917V220.727H221.366V222.25ZM229.805 206.859L233.477 213.266H233.633L237.325 206.859H239.766L234.629 215.453V221H232.481V215.453L227.364 206.859H229.805ZM240.743 206.859H245.919C246.889 206.859 247.71 207.022 248.38 207.348C249.051 207.667 249.552 208.106 249.884 208.666C250.223 209.226 250.392 209.861 250.392 210.57C250.392 211.397 250.174 212.058 249.737 212.553C249.301 213.041 248.725 213.376 248.009 213.559V213.695C248.497 213.721 248.966 213.878 249.415 214.164C249.864 214.451 250.229 214.854 250.509 215.375C250.795 215.889 250.939 216.495 250.939 217.191C250.939 217.934 250.766 218.591 250.421 219.164C250.076 219.737 249.545 220.186 248.829 220.512C248.113 220.837 247.221 221 246.154 221H240.743V206.859ZM245.958 219.164C246.928 219.164 247.644 218.975 248.107 218.598C248.575 218.22 248.81 217.719 248.81 217.094C248.81 216.645 248.696 216.234 248.468 215.863C248.24 215.492 247.915 215.199 247.491 214.984C247.075 214.763 246.59 214.652 246.036 214.652H242.892V219.164H245.958ZM245.743 212.973C246.219 212.973 246.648 212.882 247.032 212.699C247.423 212.51 247.729 212.247 247.95 211.908C248.172 211.57 248.282 211.182 248.282 210.746C248.282 210.134 248.071 209.639 247.648 209.262C247.224 208.884 246.603 208.695 245.782 208.695H242.892V212.973H245.743ZM255.061 206.859L259.533 217.816H259.709L264.182 206.859H266.799V221H264.748V210.785H264.611L260.471 220.98H258.771L254.611 210.766H254.494V221H252.443V206.859H255.061ZM282.307 208.715V208.93C282.294 210.382 282.249 211.658 282.171 212.758C282.099 213.858 281.93 215.128 281.663 216.566L279.846 216.371C280.035 215.388 280.172 214.46 280.257 213.588C280.348 212.709 280.403 211.921 280.423 211.225C280.442 210.521 280.452 209.685 280.452 208.715V208.344H269.729V206.84H282.307V208.715ZM284.046 220.297H268.089V218.754H271.858V213.09H273.714V218.754H276.233V213.09H278.05V218.754H284.046V220.297ZM294.32 208.109C294.32 209.216 294.291 210.294 294.232 211.342C294.173 212.39 294.033 213.598 293.812 214.965L291.976 214.828C292.171 213.578 292.302 212.462 292.367 211.479C292.432 210.489 292.468 209.509 292.474 208.539H285.375V207.035H294.32V208.109ZM289.828 217.279C291.918 217.201 293.754 217.061 295.336 216.859L295.433 218.246C292.712 218.676 289.379 218.891 285.433 218.891H284.613L284.398 217.387C285.993 217.374 287.191 217.357 287.992 217.338V212.035H289.828V217.279ZM298.207 212.387H300.882V213.969H298.207V222.66H296.332V205.16H298.207V212.387ZM307.368 209.613C307.368 210.674 307.553 211.713 307.924 212.729C308.302 213.744 308.829 214.646 309.506 215.434C310.183 216.221 310.961 216.814 311.84 217.211L310.707 218.695C309.724 218.207 308.865 217.494 308.129 216.557C307.4 215.619 306.84 214.542 306.45 213.324C306.059 214.607 305.489 215.749 304.741 216.752C303.992 217.748 303.123 218.507 302.133 219.027L300.961 217.523C301.847 217.1 302.631 216.475 303.315 215.648C304.005 214.815 304.539 213.871 304.916 212.816C305.301 211.755 305.493 210.688 305.493 209.613V206.625H307.368V209.613ZM315.649 222.699H313.813V212.484H309.907V210.98H313.813V205.16H315.649V222.699ZM152.955 232.715V232.93C152.942 234.382 152.896 235.658 152.818 236.758C152.746 237.858 152.577 239.128 152.31 240.566L150.494 240.371C150.683 239.388 150.819 238.46 150.904 237.588C150.995 236.709 151.05 235.921 151.07 235.225C151.089 234.521 151.099 233.685 151.099 232.715V232.344H140.377V230.84H152.955V232.715ZM154.693 244.297H138.736V242.754H142.505V237.09H144.361V242.754H146.88V237.09H148.697V242.754H154.693V244.297ZM161.295 233.613C161.289 234.642 161.471 235.658 161.842 236.66C162.213 237.656 162.731 238.551 163.395 239.346C164.065 240.133 164.83 240.736 165.69 241.152L164.538 242.637C163.6 242.148 162.77 241.442 162.047 240.518C161.331 239.593 160.778 238.538 160.387 237.354C159.99 238.617 159.417 239.743 158.668 240.732C157.926 241.715 157.064 242.461 156.08 242.969L154.928 241.465C155.807 241.042 156.588 240.417 157.272 239.59C157.962 238.763 158.496 237.826 158.873 236.777C159.251 235.729 159.44 234.674 159.44 233.613V230.625H161.295V233.613ZM168.854 236.133H171.666V237.715H168.854V246.66H166.998V229.16H168.854V236.133ZM182.234 234.316C182.234 235.286 182.43 236.247 182.82 237.197C183.217 238.148 183.764 238.997 184.461 239.746C185.164 240.488 185.958 241.048 186.844 241.426L185.828 242.871C184.806 242.422 183.901 241.745 183.113 240.84C182.326 239.928 181.727 238.883 181.316 237.705C180.906 238.962 180.304 240.088 179.51 241.084C178.722 242.08 177.827 242.826 176.824 243.32L175.75 241.855C176.609 241.452 177.391 240.85 178.094 240.049C178.797 239.242 179.347 238.333 179.744 237.324C180.148 236.309 180.353 235.306 180.359 234.316V232.461H176.355V230.918H186.219V232.461H182.234V234.316ZM190.281 246.66H188.426V229.16H190.281V246.66ZM206.825 242.441H204.97V240.762H201.454V239.453H204.97V229.18H206.825V242.441ZM207.255 246.289H194.618V241.152H196.454V244.785H207.255V246.289ZM192.196 237.168C194.475 237.155 196.519 237.116 198.329 237.051C200.145 236.986 201.877 236.849 203.524 236.641L203.641 237.969C202.203 238.203 200.666 238.372 199.032 238.477V241.895H197.177V238.584C195.92 238.63 194.638 238.652 193.329 238.652H192.43L192.196 237.168ZM197.919 229.844C198.765 229.844 199.517 229.974 200.175 230.234C200.832 230.488 201.343 230.85 201.708 231.318C202.072 231.781 202.255 232.318 202.255 232.93C202.255 233.542 202.072 234.079 201.708 234.541C201.343 234.997 200.832 235.352 200.175 235.605C199.517 235.853 198.765 235.977 197.919 235.977C197.059 235.977 196.301 235.853 195.643 235.605C194.986 235.352 194.475 234.997 194.11 234.541C193.746 234.079 193.563 233.542 193.563 232.93C193.563 232.318 193.746 231.781 194.11 231.318C194.475 230.85 194.986 230.488 195.643 230.234C196.301 229.974 197.059 229.844 197.919 229.844ZM197.919 231.23C197.404 231.224 196.949 231.289 196.552 231.426C196.154 231.562 195.848 231.761 195.634 232.021C195.419 232.282 195.315 232.585 195.321 232.93C195.315 233.268 195.419 233.564 195.634 233.818C195.848 234.072 196.151 234.268 196.542 234.404C196.939 234.541 197.398 234.609 197.919 234.609C198.42 234.609 198.863 234.541 199.247 234.404C199.638 234.268 199.94 234.072 200.155 233.818C200.376 233.564 200.49 233.268 200.497 232.93C200.49 232.585 200.376 232.282 200.155 232.021C199.94 231.761 199.638 231.562 199.247 231.426C198.863 231.289 198.42 231.224 197.919 231.23ZM218.916 233.613C218.91 234.642 219.092 235.658 219.463 236.66C219.834 237.656 220.352 238.551 221.016 239.346C221.687 240.133 222.452 240.736 223.311 241.152L222.159 242.637C221.221 242.148 220.391 241.442 219.668 240.518C218.952 239.593 218.399 238.538 218.008 237.354C217.611 238.617 217.038 239.743 216.289 240.732C215.547 241.715 214.685 242.461 213.702 242.969L212.549 241.465C213.428 241.042 214.209 240.417 214.893 239.59C215.583 238.763 216.117 237.826 216.495 236.777C216.872 235.729 217.061 234.674 217.061 233.613V230.625H218.916V233.613ZM226.475 236.133H229.287V237.715H226.475V246.66H224.62V229.16H226.475V236.133ZM243.82 246.699H241.964V229.16H243.82V246.699ZM234.464 230.469C235.33 230.469 236.105 230.723 236.788 231.23C237.472 231.732 238.006 232.448 238.39 233.379C238.78 234.303 238.976 235.378 238.976 236.602C238.976 237.832 238.78 238.913 238.39 239.844C238.006 240.775 237.472 241.494 236.788 242.002C236.105 242.503 235.33 242.754 234.464 242.754C233.585 242.754 232.804 242.503 232.12 242.002C231.437 241.494 230.9 240.778 230.509 239.854C230.125 238.923 229.933 237.839 229.933 236.602C229.933 235.371 230.125 234.294 230.509 233.369C230.9 232.438 231.437 231.722 232.12 231.221C232.804 230.719 233.585 230.469 234.464 230.469ZM234.464 232.129C233.924 232.129 233.445 232.311 233.029 232.676C232.618 233.04 232.299 233.561 232.071 234.238C231.844 234.909 231.73 235.697 231.73 236.602C231.73 237.513 231.844 238.307 232.071 238.984C232.299 239.661 232.618 240.182 233.029 240.547C233.445 240.911 233.924 241.094 234.464 241.094C234.998 241.094 235.47 240.911 235.88 240.547C236.29 240.182 236.609 239.661 236.837 238.984C237.065 238.307 237.179 237.513 237.179 236.602C237.179 235.697 237.065 234.909 236.837 234.238C236.609 233.561 236.29 233.04 235.88 232.676C235.47 232.311 234.998 232.129 234.464 232.129ZM260.012 239.961H247.824V230.605H259.836V232.109H249.699V234.473H259.465V235.938H249.699V238.477H260.012V239.961ZM261.828 244.453H245.812V242.93H261.828V244.453ZM276.809 238.555H274.954V229.16H276.809V238.555ZM267.18 241.367H274.973V239.395H276.809V246.445H265.364V239.395H267.18V241.367ZM274.973 244.922V242.832H267.18V244.922H274.973ZM267.317 229.961C268.203 229.961 268.997 230.133 269.7 230.479C270.41 230.824 270.963 231.305 271.36 231.924C271.764 232.536 271.966 233.236 271.966 234.023C271.966 234.811 271.764 235.514 271.36 236.133C270.963 236.745 270.41 237.223 269.7 237.568C268.997 237.907 268.203 238.073 267.317 238.066C266.432 238.073 265.634 237.907 264.925 237.568C264.215 237.223 263.658 236.745 263.255 236.133C262.851 235.514 262.649 234.811 262.649 234.023C262.649 233.236 262.851 232.536 263.255 231.924C263.658 231.305 264.215 230.824 264.925 230.479C265.634 230.133 266.432 229.961 267.317 229.961ZM267.317 231.523C266.77 231.517 266.279 231.621 265.843 231.836C265.413 232.044 265.074 232.34 264.827 232.725C264.586 233.102 264.466 233.535 264.466 234.023C264.466 234.518 264.586 234.958 264.827 235.342C265.074 235.719 265.413 236.016 265.843 236.23C266.279 236.439 266.77 236.543 267.317 236.543C267.858 236.543 268.343 236.439 268.772 236.23C269.202 236.016 269.537 235.719 269.778 235.342C270.026 234.958 270.149 234.518 270.149 234.023C270.149 233.535 270.026 233.102 269.778 232.725C269.537 232.34 269.202 232.044 268.772 231.836C268.343 231.621 267.858 231.517 267.317 231.523ZM293.314 246.66H291.459V229.16H293.314V246.66ZM281.693 240.605C284.558 240.586 287.24 240.319 289.74 239.805L289.994 241.367C288.509 241.667 287.058 241.882 285.638 242.012C284.219 242.142 282.78 242.207 281.322 242.207H279.857V230.859H281.693V240.605ZM308.901 235.938H311.713V237.461H308.901V246.699H307.045V229.16H308.901V235.938ZM304.194 232.344H297.866V240.801C299.415 240.794 300.776 240.749 301.948 240.664C303.126 240.579 304.311 240.43 305.502 240.215L305.737 241.777C304.532 241.992 303.347 242.142 302.182 242.227C301.023 242.305 299.682 242.344 298.159 242.344H297.416H296.01V230.84H304.194V232.344Z" fill="#3C3C49"/>
</g>
<defs>
<filter id="filter0_d_35_64823" x="112.569" y="193.16" width="219.08" height="73.5391" filterUnits="userSpaceOnUse" color-interpolation-filters="sRGB">
<feFlood flood-opacity="0" result="BackgroundImageFix"/>
<feColorMatrix in="SourceAlpha" type="matrix" values="0 0 0 0 0 0 0 0 0 0 0 0 0 0 0 0 0 0 127 0" result="hardAlpha"/>
<feOffset dy="4"/>
<feGaussianBlur stdDeviation="8"/>
<feComposite in2="hardAlpha" operator="out"/>
<feColorMatrix type="matrix" values="0 0 0 0 0 0 0 0 0 0 0 0 0 0 0 0 0 0 0.12 0"/>
<feBlend mode="normal" in2="BackgroundImageFix" result="effect1_dropShadow_35_64823"/>
<feBlend mode="normal" in="SourceGraphic" in2="effect1_dropShadow_35_64823" result="shape"/>
</filter>
<linearGradient id="paint0_linear_35_64823" x1="138.875" y1="133.936" x2="138.875" y2="143.425" gradientUnits="userSpaceOnUse">
<stop stop-opacity="0"/>
<stop offset="1" stop-opacity="0.7"/>
</linearGradient>
</defs>
</svg>
