<svg width="299" height="382" viewBox="0 0 299 382" fill="none" xmlns="http://www.w3.org/2000/svg">
<path d="M268.662 382C249.072 382 229.252 377.839 211.345 369.975C193.79 362.267 177.458 349.419 165.297 333.759C162.674 330.888 153.008 321.863 127.665 311.493C115.977 307.582 107.196 304.204 99.2398 300.543C76.52 290.092 57.0179 276.338 39.6113 258.517C2.41192 220.417 -9.69494 170.717 8.02258 128.833C12.2137 118.93 17.6215 107.445 26.024 97.3594C38.7122 82.1192 51.5424 71.6212 71.7611 59.914C75.0328 58.0225 78.4803 56.2391 82.0833 54.584C99.0843 46.7814 115.788 38.4385 131.883 29.0822C151.926 17.4426 176.403 6.50549 203.713 2.54005C215.793 0.783631 225.48 0 235.106 0C244.211 0 253.601 0.689055 266.505 2.31036C278.612 3.82358 288.576 7.37019 299.108 11.1262L301.967 12.1395C319.266 18.2667 335.733 28.4269 348.306 40.7556C367.815 59.8735 379.367 76.9783 385.776 96.2178C391.393 113.086 393.218 129.049 391.211 143.675C388.736 161.658 384.153 177.972 376.799 194.955C373.486 206.102 370.356 222.822 373.682 240.365C375.318 245.324 376.488 249.438 377.353 253.268C385.465 289.059 380.435 317.364 361.988 339.779C345.967 359.248 323.098 373.123 297.614 378.845C288.285 380.933 278.544 381.993 268.662 381.993V382Z" fill="#C9F3F5"/>
</svg>
