<svg width="86" height="112" viewBox="0 0 86 112" fill="none" xmlns="http://www.w3.org/2000/svg">
<g clip-path="url(#clip0_35_64838)">
<path d="M42.9214 7.19314C43.6045 7.19314 44.1583 5.5892 44.1583 3.61065C44.1583 1.6321 43.6045 0.0281677 42.9214 0.0281677C42.2383 0.0281677 41.6845 1.6321 41.6845 3.61065C41.6845 5.5892 42.2383 7.19314 42.9214 7.19314Z" fill="#F17FB2"/>
<path d="M24.0989 7.88527C23.2273 6.37922 22.0481 5.43713 21.4585 5.7768C20.8689 6.11646 20.7407 7.00087 21.1765 7.7571C21.6123 8.51333 24.0156 11.5703 24.6052 11.2306C25.1948 10.891 24.9705 9.39133 24.0989 7.88527Z" fill="#73D7EF"/>
<path d="M12.1979 25.2158C12.5394 24.6242 11.3726 23.3111 9.5917 22.2829C7.81079 21.2547 6.09019 20.9007 5.74863 21.4923C5.40707 22.0839 6.5739 23.397 8.35481 24.4252C10.1357 25.4534 11.8563 25.8074 12.1979 25.2158Z" fill="#F17FB2"/>
<path d="M3.34103 44.1908C5.18862 44.1908 6.68639 43.637 6.68639 42.9539C6.68639 42.2708 5.18862 41.717 3.34103 41.717C1.49344 41.717 -0.0043335 42.2708 -0.0043335 42.9539C-0.0043335 43.637 1.49344 44.1908 3.34103 44.1908Z" fill="#73D7EF"/>
<path d="M9.26119 63.818C10.8613 62.8942 11.8815 61.6657 11.5399 61.0741C11.1984 60.4825 9.62436 60.7518 8.0243 61.6756C6.42424 62.5994 5.40402 63.8279 5.74558 64.4195C6.08714 65.0111 7.66113 64.7418 9.26119 63.818Z" fill="#F17FB2"/>
<path d="M61.7438 7.88527C62.6154 6.37922 63.7946 5.43713 64.3842 5.7768C64.9738 6.11646 65.102 7.00087 64.6662 7.7571C64.2304 8.51333 61.8271 11.5703 61.2375 11.2306C60.6479 10.891 60.8722 9.39133 61.7438 7.88527Z" fill="#73D7EF"/>
<path d="M77.4867 24.4261C79.2676 23.3979 80.4345 22.0847 80.0929 21.4931C79.7513 20.9016 78.0307 21.2555 76.2498 22.2837C74.4689 23.3119 73.3021 24.625 73.6437 25.2166C73.9852 25.8082 75.7058 25.4543 77.4867 24.4261Z" fill="#F17FB2"/>
<path d="M82.5081 44.1908C84.3557 44.1908 85.8535 43.637 85.8535 42.9539C85.8535 42.2708 84.3557 41.717 82.5081 41.717C80.6606 41.717 79.1628 42.2708 79.1628 42.9539C79.1628 43.637 80.6606 44.1908 82.5081 44.1908Z" fill="#73D7EF"/>
<path d="M80.0952 64.4167C80.4368 63.8251 79.4165 62.5966 77.8165 61.6728C76.2164 60.7491 74.6424 60.4797 74.3009 61.0713C73.9593 61.6629 74.9795 62.8914 76.5796 63.8152C78.1797 64.739 79.7537 65.0083 80.0952 64.4167Z" fill="#F17FB2"/>
<path d="M76.7339 42.7168C76.7339 64.609 58.5138 70.8832 57.8217 85.149C57.8089 85.4246 57.8025 85.713 57.8025 85.995C57.8025 100.87 53.7457 106.958 42.9278 106.958C32.1098 106.958 28.0531 100.87 28.0531 85.995C28.0531 85.713 28.0467 85.4246 28.0339 85.149C27.3353 70.8832 9.1217 64.6026 9.1217 42.7168C9.1217 20.8309 27.3674 8.90427 42.9214 8.90427C58.4754 8.90427 76.7339 20.4015 76.7339 42.7168Z" fill="#FFBB36"/>
<path opacity="0.1" d="M65.0251 47.9847C65.0251 62.2955 53.1177 66.397 52.6626 75.7218C52.6562 75.9012 52.6498 76.0871 52.6498 76.2729C52.6498 86.0014 49.9966 89.9748 42.9214 89.9748C35.8461 89.9748 33.1929 85.995 33.1929 76.2729C33.1929 76.0871 33.1929 75.9012 33.1801 75.7218C32.7251 66.397 20.8176 62.289 20.8176 47.9847C20.8176 33.6804 32.7507 25.881 42.9214 25.881C53.092 25.881 65.0251 33.3985 65.0251 47.9847Z" fill="white"/>
<path opacity="0.15" d="M35.2437 13.384C30.2833 14.4606 25.6242 18.3507 22.4647 22.1832C19.5166 25.7592 17.9978 31.8475 22.2147 35.1416C23.9515 36.5003 27.5852 36.5195 29.636 35.9812C32.661 35.1865 35.2885 33.0203 37.5316 30.9311C41.2679 27.4447 45.1644 20.927 42.5689 15.7039C41.2999 13.1533 39.0633 13.243 35.2437 13.384Z" fill="white"/>
<path d="M21.9135 47.2798C21.0548 46.1134 20.3178 44.7932 19.9076 43.2295C19.7025 42.4412 19.6128 41.4799 19.882 40.5122C20.023 40.0571 20.1896 39.5637 20.5933 39.0702C20.7664 38.8267 21.0419 38.6024 21.3239 38.4037C21.6251 38.2371 21.9648 38.0833 22.2981 38.0448C22.971 37.923 23.567 38.0448 24.0412 38.2178C24.5411 38.3845 24.9385 38.6344 25.3038 38.9036C26.0151 39.4483 26.6239 40.1148 27.0277 40.8903C27.7263 42.2361 28.2838 43.6909 28.3223 45.2931C28.3287 45.6712 28.0275 45.9852 27.6493 45.9916C27.3674 45.9916 27.1238 45.8314 27.0085 45.5879L26.9892 45.543C26.4573 44.3638 25.7267 43.2423 24.9449 42.1913C24.6116 41.7555 24.2014 41.403 23.7657 41.121C23.3427 40.8582 22.8556 40.7301 22.8107 40.7941C22.7851 40.8134 22.8108 40.7685 22.7467 40.8454C22.6826 40.8903 22.5929 41.0761 22.5224 41.294C22.3621 41.685 22.3429 42.1848 22.3878 42.7809C22.5159 44.0049 22.862 45.3251 23.1504 46.7415C23.2273 47.1132 22.9838 47.4785 22.6121 47.5554C22.3429 47.613 22.0737 47.4977 21.9199 47.2862L21.9135 47.2798Z" fill="black"/>
<path d="M55.7901 44.6009C55.9119 43.1397 56.117 41.6657 56.9117 40.1597C57.2962 39.4227 57.9755 38.6152 58.9689 38.2114C59.206 38.0961 59.4752 38.0448 59.7059 37.9935C59.9302 37.9615 60.1353 37.9166 60.3724 37.9038C60.8274 37.8654 61.3337 37.8974 61.8528 38.032C62.3783 38.1794 62.8974 38.4934 63.2884 38.8972C63.6793 39.3073 63.9421 39.7752 64.1023 40.2302C64.3971 41.1402 64.4419 41.9798 64.3907 42.768C64.2881 44.3382 63.8523 45.7994 63.2756 47.1196V47.1388C63.1153 47.4849 62.7116 47.6451 62.3655 47.4913C62.0899 47.3695 61.9361 47.0939 61.9554 46.8055C62.0771 45.37 62.2181 44.0177 62.154 42.7424C62.1092 42.1143 62.0323 41.5119 61.8336 41.0825C61.6349 40.6467 61.4619 40.4993 61.1543 40.4032C60.9876 40.3584 60.7761 40.3263 60.5198 40.3455C60.398 40.3455 60.257 40.3776 60.1225 40.384C60.0071 40.4096 59.9238 40.416 59.8341 40.4545C59.4816 40.5506 59.1355 40.8582 58.7958 41.3261C58.1229 42.2746 57.6423 43.6076 57.0975 44.9021V44.9214C56.9437 45.2674 56.5464 45.4341 56.1939 45.2867C55.9119 45.1713 55.7517 44.8893 55.7773 44.6009H55.7901Z" fill="black"/>
<path d="M24.6629 55.5663C31.7595 55.5663 37.5124 49.8134 37.5124 42.7168C37.5124 35.6202 31.7595 29.8672 24.6629 29.8672C17.5663 29.8672 11.8134 35.6202 11.8134 42.7168C11.8134 49.8134 17.5663 55.5663 24.6629 55.5663Z" stroke="#73D7EF" stroke-width="4.22" stroke-miterlimit="10"/>
<path d="M61.1799 55.5663C68.2765 55.5663 74.0294 49.8134 74.0294 42.7168C74.0294 35.6202 68.2765 29.8672 61.1799 29.8672C54.0833 29.8672 48.3304 35.6202 48.3304 42.7168C48.3304 49.8134 54.0833 55.5663 61.1799 55.5663Z" stroke="#73D7EF" stroke-width="4.22" stroke-miterlimit="10"/>
<path d="M36.5511 41.7426C37.7239 34.9878 47.4011 34.3982 49.2724 40.98L47.3883 41.7362C46.7987 41.121 46.036 40.4481 45.2477 40.1084C42.5368 38.9164 40.0695 40.0187 38.4737 42.3835L36.5447 41.7426H36.5511Z" fill="#73D7EF"/>
<path d="M42.9214 111.015C45.1618 111.015 46.9781 109.198 46.9781 106.958C46.9781 104.717 45.1618 102.901 42.9214 102.901C40.6809 102.901 38.8646 104.717 38.8646 106.958C38.8646 109.198 40.6809 111.015 42.9214 111.015Z" fill="#A5A5A5"/>
<path d="M57.8217 85.149C57.8089 85.4246 57.8025 85.713 57.8025 85.995C57.8025 87.8855 57.732 89.6415 57.5974 91.2565C57.3923 93.6855 57.0206 95.7939 56.4758 97.6204C54.5276 104.132 50.2978 106.958 42.9214 106.958C35.5449 106.958 31.3151 104.132 29.3669 97.6204C28.8222 95.7939 28.444 93.6855 28.2454 91.2565C28.1108 89.6415 28.0403 87.892 28.0403 85.995C28.0403 85.713 28.0339 85.4246 28.0211 85.149C28.0211 85.149 31.4241 88.0201 42.9214 88.0201C54.4186 88.0201 57.8217 85.149 57.8217 85.149Z" fill="#C9C9C9"/>
<path d="M57.5974 91.2565C57.3923 93.6854 57.0206 95.7939 56.4758 97.6204C53.6304 98.2549 49.2917 98.8445 42.9214 98.8445C36.5511 98.8445 32.2188 98.2549 29.3669 97.6204C28.8221 95.7939 28.444 93.6854 28.2454 91.2565C31.0268 91.9935 35.6475 92.7562 42.9214 92.7562C50.1953 92.7562 54.816 91.9935 57.5974 91.2565Z" fill="#A5A5A5"/>
<path opacity="0.4" d="M25.0346 64.3527C27.8555 64.3527 30.1423 62.7631 30.1423 60.8022C30.1423 58.8414 27.8555 57.2518 25.0346 57.2518C22.2136 57.2518 19.9268 58.8414 19.9268 60.8022C19.9268 62.7631 22.2136 64.3527 25.0346 64.3527Z" fill="#F17FB2"/>
<path opacity="0.4" d="M62.2245 65.032C65.0454 65.032 67.3322 63.4424 67.3322 61.4815C67.3322 59.5207 65.0454 57.9311 62.2245 57.9311C59.4035 57.9311 57.1167 59.5207 57.1167 61.4815C57.1167 63.4424 59.4035 65.032 62.2245 65.032Z" fill="#F17FB2"/>
<path d="M43.7481 43.6076C43.4917 43.0372 42.6778 43.0564 42.4343 43.6332C42.0626 44.5112 41.6396 45.3764 41.3512 46.2864C41.1141 47.017 40.9795 47.8309 40.8321 48.5807C40.7296 49.0934 40.5694 49.6574 40.7232 50.1701C40.9475 50.9071 41.5563 50.811 42.2036 50.8687C42.9278 50.9328 43.7289 51.0673 44.4531 50.9328C46.004 50.6444 44.9722 47.5938 44.6709 46.6197C44.5812 46.3377 44.2416 44.7099 43.7481 43.6076Z" fill="#F17FB2"/>
<path d="M46.7089 54.2717C47.0358 55.7009 47.2793 57.1685 46.9781 58.8412C46.8307 59.6615 46.4333 60.6292 45.6066 61.3213C45.4208 61.5008 45.1772 61.6354 44.9722 61.7571C44.7671 61.8533 44.5876 61.9622 44.3633 62.0391C43.9468 62.2122 43.4469 62.3339 42.915 62.366C42.3702 62.3852 41.7742 62.2442 41.2871 61.9686C40.7937 61.6995 40.4027 61.3277 40.1079 60.9432C39.5504 60.1614 39.2556 59.3795 39.0697 58.6104C38.6916 57.0788 38.6724 55.5599 38.8198 54.1243V54.1051C38.8582 53.727 39.1979 53.4578 39.5696 53.4963C39.8708 53.5283 40.1015 53.7462 40.1656 54.0282C40.4796 55.4317 40.7552 56.7647 41.2038 57.9632C41.4345 58.5464 41.6909 59.0975 42.0049 59.45C42.3254 59.8025 42.5368 59.8986 42.8573 59.8922C43.0303 59.8794 43.2418 59.8537 43.4789 59.7576C43.5943 59.7256 43.7225 59.6487 43.8442 59.5974C43.9404 59.5333 44.0237 59.5077 44.0942 59.4436C44.4018 59.2449 44.6389 58.8476 44.8248 58.2964C45.1836 57.1941 45.2413 55.7714 45.3631 54.3743V54.355C45.4015 53.9769 45.7284 53.7014 46.1065 53.7334C46.4077 53.759 46.6448 53.9833 46.7089 54.2653V54.2717Z" fill="black"/>
</g>
<defs>
<clipPath id="clip0_35_64838">
<rect width="85.8514" height="110.986" fill="white" transform="translate(-0.0043335 0.0281677)"/>
</clipPath>
</defs>
</svg>
