<svg width="419" height="89" viewBox="0 0 419 89" fill="none" xmlns="http://www.w3.org/2000/svg">
<g filter="url(#filter0_d_65_46951)">
<rect x="9.77466" y="5.11298" width="400" height="70" rx="35" fill="#61C8E1" shape-rendering="crispEdges"/>
<rect x="7.27466" y="2.61298" width="405" height="75" rx="37.5" stroke="white" stroke-width="5" shape-rendering="crispEdges"/>
<path d="M56.5813 32.363H40.8782V29.7849H47.1184V27.1188H50.3704V29.7849H56.5813V32.363ZM48.7297 33.3884C49.9993 33.3884 51.1223 33.5886 52.0989 33.989C53.0754 34.3893 53.8323 34.9557 54.3694 35.6882C54.9163 36.4206 55.1946 37.2653 55.2043 38.2224C55.1946 39.1794 54.9163 40.0241 54.3694 40.7565C53.8323 41.489 53.0754 42.0554 52.0989 42.4557C51.1223 42.8561 49.9993 43.0563 48.7297 43.0563C47.4602 43.0563 46.3323 42.8561 45.3459 42.4557C44.3596 42.0554 43.593 41.489 43.0461 40.7565C42.4993 40.0241 42.2258 39.1794 42.2258 38.2224C42.2258 37.2653 42.4993 36.4206 43.0461 35.6882C43.593 34.9557 44.3596 34.3893 45.3459 33.989C46.3323 33.5886 47.4602 33.3884 48.7297 33.3884ZM48.7297 35.8493C47.7043 35.8493 46.8889 36.0593 46.2834 36.4792C45.6877 36.8991 45.3899 37.4802 45.3899 38.2224C45.3899 38.9645 45.6877 39.5407 46.2834 39.9509C46.8889 40.361 47.7043 40.5563 48.7297 40.5368C49.7551 40.5563 50.5706 40.361 51.176 39.9509C51.7913 39.5407 52.0989 38.9645 52.0989 38.2224C52.0989 37.4802 51.7913 36.8991 51.176 36.4792C50.5706 36.0593 49.7551 35.8493 48.7297 35.8493ZM61.7375 34.2673H65.429V36.9333H61.7375V43.8181H58.4856V27.236H61.7375V34.2673ZM61.7375 53.7204H58.4856V47.6559H44.1008V45.0485H61.7375V53.7204ZM75.0383 32.1579C75.0383 33.1345 75.2288 34.0817 75.6096 34.9997C75.9905 35.9177 76.5667 36.7429 77.3381 37.4753C78.1194 38.2077 79.0715 38.7888 80.1946 39.2184L78.4661 41.7087C77.3137 41.2692 76.3225 40.6491 75.4924 39.8483C74.6624 39.0475 74.0032 38.1149 73.5149 37.0505C73.0071 38.2809 72.3137 39.3698 71.4348 40.3171C70.5657 41.2643 69.5208 41.9919 68.3 42.4997L66.5422 40.0095C67.7043 39.4919 68.6858 38.8083 69.4866 37.9587C70.2874 37.1091 70.8879 36.1862 71.2883 35.1901C71.6887 34.1843 71.8938 33.1735 71.9036 32.1579V28.8766H75.0383V32.1579ZM89.4231 43.4958H86.3176V36.611H83.6809V42.6755H80.634V27.7634H83.6809V33.945H86.3176V27.2653H89.4231V43.4958ZM80.4875 43.9352C82.3235 43.9352 83.9202 44.1306 85.2776 44.5212C86.6448 44.902 87.6995 45.4587 88.4417 46.1911C89.1838 46.9235 89.5598 47.7927 89.5696 48.7985C89.5598 49.8044 89.1838 50.6735 88.4417 51.4059C87.6995 52.1481 86.6448 52.7145 85.2776 53.1052C83.9202 53.4958 82.3235 53.6911 80.4875 53.6911C78.6321 53.6911 77.0208 53.4958 75.6536 53.1052C74.2864 52.7145 73.2366 52.1481 72.5042 51.4059C71.7717 50.6735 71.4055 49.8044 71.4055 48.7985C71.4055 47.7927 71.7717 46.9235 72.5042 46.1911C73.2366 45.4587 74.2864 44.902 75.6536 44.5212C77.0208 44.1306 78.6321 43.9352 80.4875 43.9352ZM80.4875 46.3962C78.6418 46.3962 77.2063 46.6061 76.1809 47.0261C75.1653 47.4362 74.6575 48.027 74.6575 48.7985C74.6575 49.5798 75.1653 50.1755 76.1809 50.5856C77.1965 50.9958 78.6321 51.2009 80.4875 51.2009C82.3235 51.2009 83.7493 50.9958 84.7649 50.5856C85.7805 50.1755 86.2883 49.5798 86.2883 48.7985C86.2883 48.027 85.7756 47.4362 84.7502 47.0261C83.7346 46.6061 82.3137 46.3962 80.4875 46.3962ZM109.345 32.6852C109.345 33.6618 109.584 34.5993 110.063 35.4977C110.541 36.3962 111.254 37.197 112.201 37.9001C113.149 38.6032 114.296 39.1403 115.644 39.5114L114.15 42.0309C112.656 41.6306 111.366 41.0104 110.282 40.1706C109.198 39.321 108.354 38.3151 107.748 37.153C107.153 38.4323 106.303 39.5358 105.199 40.4636C104.096 41.3815 102.773 42.0602 101.23 42.4997L99.677 39.9802C101.034 39.5993 102.197 39.0427 103.163 38.3102C104.13 37.5681 104.858 36.7136 105.346 35.7468C105.844 34.7702 106.093 33.7497 106.093 32.6852V32.6266H100.556V30.0485H106.093V27.1188H109.374V30.0485H114.882V32.6266H109.345V32.6852ZM120.712 33.6227H124.404V36.3181H120.712V42.822H117.46V27.236H120.712V33.6227ZM120.712 53.3981H103.603V43.9352H120.712V53.3981ZM106.825 50.7614H117.49V46.5134H106.825V50.7614ZM132.988 29.1696C134.179 29.1696 135.253 29.487 136.21 30.1218C137.177 30.7565 137.958 31.6599 138.554 32.8317H144.736V27.236H147.958V53.7497H144.736V43.7302H138.788C138.212 45.0485 137.421 46.0739 136.415 46.8063C135.409 47.529 134.267 47.8903 132.988 47.8903C131.659 47.8903 130.483 47.5095 129.457 46.7477C128.432 45.986 127.631 44.8972 127.055 43.4811C126.479 42.0651 126.191 40.4099 126.191 38.5153C126.191 36.6403 126.479 34.9997 127.055 33.5934C127.631 32.1774 128.432 31.0886 129.457 30.3268C130.492 29.5554 131.669 29.1696 132.988 29.1696ZM132.988 32.0993C132.255 32.0993 131.611 32.3581 131.054 32.8757C130.497 33.3835 130.068 34.1208 129.765 35.0876C129.462 36.0446 129.316 37.1872 129.325 38.5153C129.316 39.8532 129.462 41.0056 129.765 41.9724C130.068 42.9391 130.497 43.6813 131.054 44.1989C131.611 44.7067 132.255 44.9606 132.988 44.9606C133.72 44.9606 134.36 44.7067 134.906 44.1989C135.463 43.6813 135.893 42.9391 136.196 41.9724C136.508 41.0056 136.669 39.8532 136.679 38.5153C136.669 37.1872 136.508 36.0397 136.196 35.0729C135.893 34.1061 135.463 33.3688 134.906 32.861C134.36 32.3532 133.72 32.0993 132.988 32.0993ZM139.462 35.4977C139.657 36.445 139.755 37.4509 139.755 38.5153C139.755 39.3942 139.687 40.2536 139.55 41.0934H144.736V35.4977H139.462ZM166.532 32.4509H151.738V29.8727H157.656V27.0016H160.907V29.8727H166.532V32.4509ZM159.238 33.5056C160.429 33.5056 161.493 33.7155 162.431 34.1354C163.368 34.5456 164.101 35.1266 164.628 35.8786C165.165 36.6208 165.439 37.4802 165.448 38.4567C165.439 39.4235 165.165 40.278 164.628 41.0202C164.101 41.7526 163.368 42.3239 162.431 42.7341C161.493 43.1442 160.429 43.3493 159.238 43.3493C158.046 43.3493 156.982 43.1442 156.044 42.7341C155.116 42.3239 154.394 41.7526 153.876 41.0202C153.359 40.278 153.105 39.4235 153.115 38.4567C153.105 37.4802 153.359 36.6208 153.876 35.8786C154.394 35.1266 155.116 34.5456 156.044 34.1354C156.982 33.7155 158.046 33.5056 159.238 33.5056ZM159.238 35.9372C158.29 35.9372 157.538 36.1618 156.982 36.611C156.425 37.0602 156.152 37.6755 156.161 38.4567C156.152 39.2282 156.425 39.8337 156.982 40.2731C157.538 40.7028 158.29 40.9177 159.238 40.9177C160.195 40.9177 160.961 40.6979 161.537 40.2585C162.114 39.819 162.402 39.2184 162.402 38.4567C162.402 37.6755 162.109 37.0602 161.523 36.611C160.947 36.1618 160.185 35.9372 159.238 35.9372ZM173.857 44.1989H170.605V41.0934H166.679V38.486H170.605V35.8786H166.708V33.2419H170.605V27.236H173.857V44.1989ZM164.95 44.4919C166.806 44.4919 168.412 44.6774 169.77 45.0485C171.137 45.4099 172.182 45.9372 172.905 46.6306C173.637 47.3141 174.003 48.1345 174.003 49.0915C174.003 50.0388 173.637 50.8591 172.905 51.5524C172.182 52.2458 171.137 52.7731 169.77 53.1345C168.412 53.5056 166.806 53.6911 164.95 53.6911C163.095 53.6911 161.484 53.5056 160.116 53.1345C158.759 52.7731 157.714 52.2458 156.982 51.5524C156.259 50.8591 155.898 50.0388 155.898 49.0915C155.898 48.1345 156.259 47.3141 156.982 46.6306C157.714 45.9372 158.759 45.4099 160.116 45.0485C161.484 44.6774 163.095 44.4919 164.95 44.4919ZM164.95 46.9821C163.144 46.9821 161.752 47.1628 160.776 47.5241C159.809 47.8757 159.325 48.3981 159.325 49.0915C159.325 49.7751 159.814 50.2975 160.79 50.6589C161.767 51.0202 163.154 51.2009 164.95 51.2009C166.738 51.2009 168.11 51.0202 169.067 50.6589C170.033 50.2975 170.517 49.7751 170.517 49.0915C170.517 48.3981 170.038 47.8757 169.081 47.5241C168.124 47.1628 166.747 46.9821 164.95 46.9821ZM206.318 33.7692H209.247V36.4938H206.318V43.1735H203.066V27.236H206.318V33.7692ZM191.376 30.6931C191.357 32.0212 191.498 33.32 191.801 34.5895C192.114 35.8493 192.66 36.9577 193.442 37.9147C194.799 36.2253 195.478 33.8181 195.478 30.6931V28.8181H198.525V30.6931C198.525 32.4899 198.837 34.1354 199.462 35.6296C200.087 37.1237 201.122 38.3005 202.568 39.1599L200.722 41.445C199.003 40.4587 197.773 38.8327 197.031 36.5671C196.308 38.9792 195.107 40.7028 193.427 41.738C191.728 40.6638 190.517 38.9011 189.794 36.4499C189.042 38.7546 187.812 40.4196 186.103 41.445L184.316 39.1599C185.712 38.3102 186.718 37.1188 187.333 35.5856C187.958 34.0524 188.281 32.4216 188.3 30.6931V28.8181H191.376V30.6931ZM197.411 43.4372C199.277 43.447 200.898 43.6569 202.275 44.0671C203.652 44.4772 204.706 45.0681 205.439 45.8395C206.181 46.6013 206.552 47.5095 206.552 48.5641C206.552 49.6286 206.181 50.5417 205.439 51.3034C204.706 52.0749 203.652 52.6608 202.275 53.0612C200.907 53.4616 199.286 53.6618 197.411 53.6618C195.556 53.6618 193.945 53.4616 192.577 53.0612C191.22 52.6608 190.17 52.0749 189.428 51.3034C188.696 50.5417 188.329 49.6286 188.329 48.5641C188.329 47.5095 188.696 46.6013 189.428 45.8395C190.17 45.0681 191.225 44.4772 192.592 44.0671C193.959 43.6569 195.566 43.447 197.411 43.4372ZM197.411 46.0446C195.546 46.0446 194.111 46.2595 193.105 46.6891C192.109 47.1188 191.611 47.7438 191.611 48.5641C191.611 49.3845 192.109 50.0143 193.105 50.4538C194.111 50.8932 195.546 51.113 197.411 51.113C199.277 51.113 200.712 50.8932 201.718 50.4538C202.724 50.0143 203.232 49.3845 203.241 48.5641C203.232 47.7438 202.724 47.1188 201.718 46.6891C200.712 46.2595 199.277 46.0446 197.411 46.0446ZM222.929 43.5837C224.745 43.5837 226.318 43.7839 227.646 44.1843C228.984 44.5749 230.009 45.1511 230.722 45.9128C231.435 46.6647 231.796 47.5681 231.806 48.6227C231.796 49.6872 231.435 50.6003 230.722 51.362C230.009 52.1335 228.984 52.7194 227.646 53.1198C226.318 53.5202 224.745 53.7204 222.929 53.7204C221.093 53.7204 219.501 53.5202 218.154 53.1198C216.806 52.7194 215.771 52.1335 215.048 51.362C214.325 50.6003 213.964 49.6872 213.964 48.6227C213.964 47.5681 214.325 46.6647 215.048 45.9128C215.771 45.1511 216.801 44.5749 218.139 44.1843C219.487 43.7839 221.083 43.5837 222.929 43.5837ZM222.929 46.1325C221.093 46.1325 219.682 46.3474 218.696 46.777C217.709 47.197 217.216 47.8122 217.216 48.6227C217.216 49.4431 217.709 50.0681 218.696 50.4977C219.692 50.9274 221.103 51.1423 222.929 51.1423C224.755 51.1423 226.152 50.9274 227.118 50.4977C228.095 50.0681 228.583 49.4431 228.583 48.6227C228.583 47.8122 228.095 47.197 227.118 46.777C226.152 46.3474 224.755 46.1325 222.929 46.1325ZM231.542 33.5641H235.234V36.2888H231.542V42.9391H228.29V27.236H231.542V33.5641ZM214.784 32.4802H220.966V28.9059H224.189V41.2692H211.562V28.9059H214.784V32.4802ZM220.966 38.6911V35.029H214.784V38.6911H220.966ZM261.073 34.0329H257.47V37.0505H261.073V39.7165H257.47V44.1403H254.218V27.236H257.47V31.3669H261.073V34.0329ZM248.915 44.3747C250.712 44.3747 252.275 44.5602 253.603 44.9313C254.941 45.3024 255.966 45.8395 256.679 46.5427C257.402 47.236 257.763 48.0661 257.763 49.0329C257.763 49.9899 257.402 50.8151 256.679 51.5085C255.966 52.2116 254.941 52.7487 253.603 53.1198C252.275 53.5007 250.712 53.6911 248.915 53.6911C247.089 53.6911 245.507 53.5056 244.169 53.1345C242.841 52.7634 241.821 52.2263 241.108 51.5231C240.405 50.82 240.058 49.9899 240.068 49.0329C240.058 48.0661 240.405 47.236 241.108 46.5427C241.821 45.8395 242.841 45.3024 244.169 44.9313C245.507 44.5602 247.089 44.3747 248.915 44.3747ZM248.915 46.8649C247.07 46.8649 245.668 47.0456 244.711 47.4069C243.754 47.7682 243.281 48.3102 243.29 49.0329C243.271 49.736 243.749 50.278 244.726 50.6589C245.702 51.0397 247.099 51.2302 248.915 51.2302C250.702 51.2302 252.079 51.0397 253.046 50.6589C254.023 50.278 254.511 49.736 254.511 49.0329C254.511 48.3102 254.032 47.7682 253.075 47.4069C252.118 47.0456 250.732 46.8649 248.915 46.8649ZM252.314 32.4802H236.611V29.9313H242.851V27.0602H246.103V29.9313H252.314V32.4802ZM244.462 33.5349C245.732 33.5349 246.855 33.735 247.831 34.1354C248.808 34.5261 249.565 35.0827 250.102 35.8054C250.649 36.5182 250.927 37.3434 250.937 38.2809C250.927 39.2184 250.649 40.0436 250.102 40.7565C249.565 41.4694 248.808 42.0212 247.831 42.4118C246.855 42.8024 245.732 42.9977 244.462 42.9977C243.183 42.9977 242.05 42.8024 241.064 42.4118C240.087 42.0212 239.325 41.4694 238.779 40.7565C238.232 40.0436 237.958 39.2184 237.958 38.2809C237.958 37.3434 238.232 36.5182 238.779 35.8054C239.325 35.0827 240.087 34.5261 241.064 34.1354C242.05 33.735 243.183 33.5349 244.462 33.5349ZM244.462 35.9372C243.447 35.9372 242.636 36.1472 242.031 36.5671C241.425 36.987 241.122 37.5583 241.122 38.2809C241.122 38.9938 241.42 39.5505 242.016 39.9509C242.621 40.3415 243.437 40.5368 244.462 40.5368C245.488 40.5368 246.303 40.3366 246.908 39.9362C247.524 39.5358 247.831 38.9841 247.831 38.2809C247.831 37.5583 247.524 36.987 246.908 36.5671C246.303 36.1472 245.488 35.9372 244.462 35.9372ZM283.427 29.4333C283.427 30.5466 283.818 31.6306 284.599 32.6852C285.39 33.7399 286.493 34.6432 287.909 35.3952C289.335 36.1472 290.966 36.6403 292.802 36.8747L291.513 39.5114C289.286 39.1794 287.314 38.4958 285.595 37.4606C283.876 36.4157 282.582 35.1413 281.713 33.6374C280.844 35.1413 279.555 36.4157 277.846 37.4606C276.137 38.4958 274.179 39.1794 271.972 39.5114L270.683 36.8747C272.499 36.6403 274.115 36.1472 275.531 35.3952C276.948 34.6432 278.046 33.7399 278.827 32.6852C279.609 31.6306 279.999 30.5466 279.999 29.4333V28.0856H283.427V29.4333ZM293.769 44.4919H283.251V53.7204H280.029V44.4919H269.628V41.7966H293.769V44.4919ZM302.909 28.4079C304.042 28.3981 305.082 28.5983 306.03 29.0085C306.977 29.4089 307.768 29.9802 308.403 30.7224C309.047 31.4548 309.477 32.3044 309.692 33.2712H314.482V27.236H317.734V41.445H314.482V35.9079H309.721C309.506 36.8942 309.076 37.7634 308.432 38.5153C307.797 39.2673 307.001 39.8532 306.044 40.2731C305.087 40.6833 304.042 40.8884 302.909 40.8884C301.572 40.8884 300.37 40.6198 299.306 40.0827C298.241 39.5456 297.406 38.8034 296.801 37.8561C296.205 36.8991 295.907 35.82 295.907 34.6188C295.907 33.4274 296.205 32.3581 296.801 31.4108C297.406 30.4636 298.241 29.7263 299.306 29.1989C300.37 28.6618 301.572 28.3981 302.909 28.4079ZM302.909 31.1325C302.148 31.1325 301.474 31.2741 300.888 31.5573C300.302 31.8405 299.843 32.2458 299.511 32.7731C299.179 33.3005 299.013 33.9157 299.013 34.6188C299.013 35.3122 299.179 35.9274 299.511 36.4645C299.843 36.9919 300.302 37.402 300.888 37.695C301.484 37.988 302.157 38.1345 302.909 38.1345C303.642 38.1345 304.296 37.988 304.872 37.695C305.458 37.402 305.912 36.9919 306.235 36.4645C306.567 35.9274 306.738 35.3122 306.747 34.6188C306.738 33.9157 306.567 33.3005 306.235 32.7731C305.912 32.2458 305.463 31.8405 304.887 31.5573C304.311 31.2741 303.652 31.1325 302.909 31.1325ZM303.495 45.488H314.482V42.6755H317.734V53.3981H300.273V42.6755H303.495V45.488ZM314.482 50.7614V48.0075H303.495V50.7614H314.482ZM338.095 34.7653C338.095 36.152 338.359 37.5485 338.886 38.9548C339.423 40.361 340.19 41.6403 341.186 42.7927C342.192 43.945 343.368 44.8337 344.716 45.4587L342.9 48.0368C341.445 47.3532 340.17 46.3522 339.076 45.0339C337.983 43.7057 337.128 42.1872 336.513 40.4782C335.898 42.3434 335.024 43.9987 333.891 45.444C332.758 46.8893 331.445 47.9684 329.95 48.6813L328.046 46.1325C329.404 45.488 330.595 44.5554 331.62 43.3347C332.656 42.114 333.447 40.7516 333.993 39.2477C334.55 37.7438 334.833 36.2497 334.843 34.7653V32.5388H329.072V29.8434H343.632V32.5388H338.095V34.7653ZM349.345 37.5485H353.417V40.2731H349.345V53.7204H346.093V27.236H349.345V37.5485ZM378.73 50.6442H354.531V47.9489H360.947V43.5837H357.402V34.9411H372.636V31.6891H357.343V29.0524H375.859V37.5485H360.654V40.947H376.474V43.5837H372.607V47.9489H378.73V50.6442ZM369.413 47.9489V43.5837H364.111V47.9489H369.413Z" fill="#000543"/>
</g>
<defs>
<filter id="filter0_d_65_46951" x="0.774658" y="0.112976" width="418" height="88" filterUnits="userSpaceOnUse" color-interpolation-filters="sRGB">
<feFlood flood-opacity="0" result="BackgroundImageFix"/>
<feColorMatrix in="SourceAlpha" type="matrix" values="0 0 0 0 0 0 0 0 0 0 0 0 0 0 0 0 0 0 127 0" result="hardAlpha"/>
<feOffset dy="4"/>
<feGaussianBlur stdDeviation="2"/>
<feComposite in2="hardAlpha" operator="out"/>
<feColorMatrix type="matrix" values="0 0 0 0 0 0 0 0 0 0 0 0 0 0 0 0 0 0 0.05 0"/>
<feBlend mode="normal" in2="BackgroundImageFix" result="effect1_dropShadow_65_46951"/>
<feBlend mode="normal" in="SourceGraphic" in2="effect1_dropShadow_65_46951" result="shape"/>
</filter>
</defs>
</svg>
