<svg width="268" height="88" viewBox="0 0 268 88" fill="none" xmlns="http://www.w3.org/2000/svg">
<g filter="url(#filter0_d_65_46953)">
<rect x="9.67603" y="4.99307" width="249" height="70" rx="35" fill="#FFB5B0" shape-rendering="crispEdges"/>
<rect x="7.17603" y="2.49307" width="254" height="75" rx="37.5" stroke="white" stroke-width="5" shape-rendering="crispEdges"/>
<path d="M64.9182 44.7528H54.3713V53.5712H51.1487V44.7528H40.719V42.1161H64.9182V44.7528ZM61.9592 39.0106H43.678V28.4638H61.9592V39.0106ZM46.8713 36.4618H58.7073V31.0712H46.8713V36.4618ZM90.8752 50.5243H66.676V47.829H73.092V43.4638H69.5471V34.8212H84.7815V31.5692H69.4885V28.9325H88.0041V37.4286H72.7991V40.8271H88.6194V43.4638H84.7522V47.829H90.8752V50.5243ZM81.5588 47.829V43.4638H76.2561V47.829H81.5588ZM114.781 42.8485H111.53V36.3739H107.018V33.7079H111.53V27.1161H114.781V42.8485ZM105.817 43.5224C107.682 43.5224 109.293 43.7226 110.651 44.123C112.018 44.5136 113.063 45.0898 113.785 45.8515C114.508 46.6034 114.869 47.5067 114.869 48.5614C114.869 49.6161 114.508 50.5194 113.785 51.2714C113.063 52.0331 112.018 52.6093 110.651 52.9999C109.293 53.4003 107.682 53.6005 105.817 53.6005C103.961 53.6005 102.355 53.4003 100.997 52.9999C99.6399 52.6093 98.5999 52.0331 97.8772 51.2714C97.1643 50.5194 96.8127 49.6161 96.8225 48.5614C96.8127 47.5067 97.1643 46.6034 97.8772 45.8515C98.5999 45.0898 99.6399 44.5136 100.997 44.123C102.355 43.7226 103.961 43.5224 105.817 43.5224ZM105.817 46.0126C103.961 46.0126 102.535 46.2323 101.539 46.6718C100.543 47.1015 100.045 47.7314 100.045 48.5614C100.045 49.3817 100.543 50.0067 101.539 50.4364C102.535 50.8661 103.961 51.081 105.817 51.081C107.672 51.081 109.103 50.8661 110.109 50.4364C111.114 50.0067 111.617 49.3817 111.617 48.5614C111.617 47.7314 111.114 47.1015 110.109 46.6718C109.103 46.2323 107.672 46.0126 105.817 46.0126ZM102.33 31.6571C102.33 32.7509 102.57 33.8153 103.048 34.8505C103.527 35.8759 104.235 36.7987 105.172 37.619C106.11 38.4296 107.242 39.0595 108.571 39.5087L106.93 42.0868C105.494 41.5985 104.249 40.8808 103.195 39.9335C102.15 38.9765 101.329 37.8632 100.734 36.5937C100.138 38.0292 99.2883 39.2841 98.1848 40.3583C97.0813 41.4228 95.7581 42.2333 94.2151 42.7899L92.5159 40.2118C93.8928 39.7431 95.0696 39.0644 96.0461 38.1757C97.0227 37.2773 97.76 36.2665 98.2581 35.1435C98.7659 34.0204 99.0198 32.8681 99.0198 31.6864V31.4814H93.512V28.8446H107.809V31.4814H102.33V31.6571ZM140.651 53.6005H137.369V27.1161H140.651V53.6005ZM132.74 29.9286C132.74 34.1376 131.788 37.8339 129.884 41.0175C127.98 44.1913 124.821 46.8231 120.406 48.913L118.707 46.3056C122.115 44.6845 124.679 42.746 126.398 40.4901C128.126 38.2245 129.137 35.5634 129.43 32.5067H120.055V29.9286H132.74ZM172.467 34.7333H176.158V37.4579H172.467V46.2177H169.156V27.1161H172.467V34.7333ZM165.26 29.1376C165.26 31.4618 164.772 33.5663 163.795 35.4511C162.819 37.3261 161.403 38.9423 159.547 40.2997C157.701 41.6474 155.465 42.7021 152.838 43.4638L151.49 40.8856C153.492 40.3095 155.221 39.5722 156.676 38.6737C158.141 37.7655 159.298 36.7304 160.148 35.5683C160.997 34.4062 161.515 33.1513 161.7 31.8036H152.604V29.1376H165.26ZM173.463 53.0731H155.446V44.2548H158.756V50.4364H173.463V53.0731ZM200.153 43.7567H197.047V36.5497H194.469V42.8778H191.422V27.6435H194.469V33.913H197.047V27.1161H200.153V43.7567ZM190.543 32.536H177.36V29.9872H182.369V27.3505H185.592V29.9872H190.543V32.536ZM183.981 33.62C185.094 33.62 186.085 33.8105 186.954 34.1913C187.823 34.5722 188.502 35.1093 188.99 35.8026C189.489 36.4862 189.742 37.2821 189.752 38.1903C189.742 39.0985 189.489 39.8993 188.99 40.5927C188.502 41.2763 187.823 41.8085 186.954 42.1894C186.085 42.5702 185.094 42.7606 183.981 42.7606C182.887 42.7606 181.906 42.5702 181.036 42.1894C180.167 41.8085 179.489 41.2714 179 40.578C178.522 39.8847 178.287 39.0888 178.297 38.1903C178.287 37.2919 178.522 36.496 179 35.8026C179.489 35.1093 180.167 34.5722 181.036 34.1913C181.906 33.8105 182.887 33.62 183.981 33.62ZM183.981 35.9638C183.151 35.9638 182.477 36.164 181.959 36.5644C181.451 36.9648 181.198 37.5067 181.198 38.1903C181.198 38.8739 181.451 39.4159 181.959 39.8163C182.467 40.2167 183.141 40.4169 183.981 40.4169C184.821 40.4169 185.499 40.2167 186.017 39.8163C186.534 39.4159 186.793 38.8739 186.793 38.1903C186.793 37.5067 186.534 36.9648 186.017 36.5644C185.499 36.164 184.821 35.9638 183.981 35.9638ZM191.217 44.079C193.102 44.079 194.723 44.2646 196.08 44.6356C197.438 45.0067 198.478 45.5536 199.2 46.2763C199.923 46.9892 200.289 47.8485 200.299 48.8544C200.289 49.8407 199.918 50.6855 199.186 51.3886C198.463 52.1015 197.423 52.6435 196.066 53.0146C194.708 53.3856 193.092 53.5712 191.217 53.5712C189.342 53.5712 187.721 53.3856 186.354 53.0146C184.996 52.6435 183.951 52.1015 183.219 51.3886C182.496 50.6855 182.135 49.8407 182.135 48.8544C182.135 47.8485 182.496 46.9892 183.219 46.2763C183.951 45.5536 184.996 45.0067 186.354 44.6356C187.711 44.2646 189.332 44.079 191.217 44.079ZM191.217 46.5692C189.313 46.5497 187.863 46.7353 186.866 47.1259C185.88 47.5067 185.387 48.0829 185.387 48.8544C185.387 49.5868 185.885 50.1435 186.881 50.5243C187.877 50.8954 189.323 51.081 191.217 51.081C193.102 51.081 194.537 50.8954 195.524 50.5243C196.52 50.1435 197.018 49.5868 197.018 48.8544C197.018 48.0829 196.52 47.5067 195.524 47.1259C194.537 46.7353 193.102 46.5497 191.217 46.5692ZM227.574 40.4462H217.086V42.4384H224.557V48.9423H209.498V50.8759H225.289V53.3661H206.305V46.5985H221.364V44.8993H206.276V42.4384H213.834V40.4462H203.434V37.8681H227.574V40.4462ZM224.469 36.1981H206.481V27.9364H224.469V36.1981ZM209.674 33.6493H221.217V30.4853H209.674V33.6493Z" fill="#000543"/>
</g>
<defs>
<filter id="filter0_d_65_46953" x="0.676025" y="-0.00692749" width="267" height="88" filterUnits="userSpaceOnUse" color-interpolation-filters="sRGB">
<feFlood flood-opacity="0" result="BackgroundImageFix"/>
<feColorMatrix in="SourceAlpha" type="matrix" values="0 0 0 0 0 0 0 0 0 0 0 0 0 0 0 0 0 0 127 0" result="hardAlpha"/>
<feOffset dy="4"/>
<feGaussianBlur stdDeviation="2"/>
<feComposite in2="hardAlpha" operator="out"/>
<feColorMatrix type="matrix" values="0 0 0 0 0 0 0 0 0 0 0 0 0 0 0 0 0 0 0.05 0"/>
<feBlend mode="normal" in2="BackgroundImageFix" result="effect1_dropShadow_65_46953"/>
<feBlend mode="normal" in="SourceGraphic" in2="effect1_dropShadow_65_46953" result="shape"/>
</filter>
</defs>
</svg>
