<svg width="294" height="89" viewBox="0 0 294 89" fill="none" xmlns="http://www.w3.org/2000/svg">
<g filter="url(#filter0_d_65_46949)">
<rect x="9.07849" y="5.06088" width="275" height="70" rx="35" fill="#FFEE57" shape-rendering="crispEdges"/>
<rect x="6.57849" y="2.56088" width="280" height="75" rx="37.5" stroke="white" stroke-width="5" shape-rendering="crispEdges"/>
<path d="M61.8959 32.3109C61.8959 33.7953 61.8763 35.0746 61.8373 36.1488C61.808 37.223 61.725 38.4583 61.5883 39.8548C61.4515 41.2415 61.2318 42.7406 60.9291 44.3519L57.7357 44.0296C58.1361 41.8714 58.3851 39.9281 58.4828 38.1996C58.5902 36.471 58.6439 34.5081 58.6439 32.3109V32.223H42.6185V29.6156H61.8959V32.3109ZM64.3275 50.2406H40.1869V47.5746H45.6068V39.1371H48.8588V47.5746H52.2279V39.1371H55.4213V47.5746H64.3275V50.2406ZM80.9095 31.8128C80.9095 33.5511 80.8656 35.1966 80.7777 36.7494C80.6996 38.2923 80.4994 40.0648 80.1771 42.0667L76.9545 41.8031C77.2377 40.0062 77.4232 38.3851 77.5111 36.9398C77.6088 35.4945 77.6625 34.0296 77.6722 32.5453H67.2865V29.9378H80.9095V31.8128ZM74.2299 45.3187C77.2377 45.2015 79.9037 44.9964 82.2279 44.7035L82.4037 47.1351C78.3217 47.7796 73.3217 48.1019 67.4037 48.1019H66.2025L65.8802 45.4945C68.1654 45.4749 69.8744 45.4505 71.0072 45.4212V37.4964H74.2299V45.3187ZM86.8861 37.9652H90.724V40.7191H86.8861V53.6683H83.6049V27.1839H86.8861V37.9652ZM101.828 33.5414C101.828 35.2015 102.081 36.808 102.589 38.3607C103.107 39.9037 103.859 41.2708 104.845 42.4622C105.841 43.6537 107.023 44.5472 108.39 45.1429L106.427 47.7503C104.962 47.0374 103.698 46.0121 102.633 44.6742C101.578 43.3363 100.763 41.7835 100.187 40.016C99.5912 41.891 98.7513 43.5414 97.6674 44.9671C96.5931 46.3929 95.3138 47.4867 93.8295 48.2484L91.7787 45.6117C93.1752 44.9574 94.3763 44.0003 95.3822 42.7406C96.3978 41.4808 97.1693 40.0501 97.6967 38.4486C98.2338 36.847 98.5072 35.2113 98.517 33.5414V29.3226H101.828V33.5414ZM114.249 53.6976H111.027V38.3753H105.46V35.7386H111.027V27.1839H114.249V53.6976ZM147.267 46.5492H144.015V36.8519H139.328V34.2152H144.015V27.2132H147.267V46.5492ZM147.941 53.141H129.894V44.8499H133.146V50.5042H147.941V53.141ZM134.816 32.4867C134.816 33.5706 135.055 34.6302 135.534 35.6654C136.012 36.6908 136.72 37.6136 137.658 38.4339C138.595 39.2445 139.728 39.8695 141.056 40.3089L139.415 42.9164C137.97 42.4183 136.72 41.6956 135.665 40.7484C134.62 39.7914 133.8 38.6732 133.204 37.3939C132.609 38.8197 131.759 40.0599 130.656 41.1146C129.552 42.1595 128.234 42.9456 126.701 43.473L125.031 40.8363C126.398 40.3871 127.565 39.7328 128.532 38.8734C129.508 38.0042 130.245 37.0179 130.744 35.9144C131.251 34.8011 131.505 33.6488 131.505 32.4574V31.7542H125.997V29.1175H140.294V31.7542H134.816V32.4867ZM160.509 34.7132C160.509 36.0999 160.773 37.4964 161.3 38.9027C161.837 40.3089 162.604 41.5882 163.6 42.7406C164.606 43.8929 165.783 44.7816 167.13 45.4066L165.314 47.9847C163.859 47.3011 162.584 46.3001 161.491 44.9818C160.397 43.6537 159.542 42.1351 158.927 40.4261C158.312 42.2914 157.438 43.9466 156.305 45.3919C155.172 46.8372 153.859 47.9163 152.365 48.6292L150.46 46.0804C151.818 45.4359 153.009 44.5033 154.035 43.2826C155.07 42.0619 155.861 40.6996 156.408 39.1956C156.964 37.6917 157.247 36.1976 157.257 34.7132V32.4867H151.486V29.7914H166.046V32.4867H160.509V34.7132ZM171.759 37.4964H175.831V40.221H171.759V53.6683H168.507V27.1839H171.759V37.4964ZM199.152 53.6976H195.9V39.2249H190.802V36.5589H195.9V27.1839H199.152V53.6976ZM186.671 34.2152C186.671 35.7581 186.94 37.2816 187.477 38.7855C188.014 40.2894 188.79 41.6371 189.806 42.8285C190.822 44.0101 192.023 44.8988 193.41 45.4945L191.476 48.1019C189.972 47.389 188.673 46.3441 187.579 44.9671C186.486 43.5902 185.641 41.9984 185.045 40.1917C184.44 42.1058 183.58 43.8001 182.467 45.2747C181.364 46.7494 180.06 47.8675 178.556 48.6292L176.593 46.0804C177.97 45.4359 179.166 44.4935 180.182 43.2533C181.207 42.0033 181.989 40.5921 182.526 39.0199C183.073 37.4476 183.351 35.846 183.361 34.2152V32.4574H177.677V29.7914H192.355V32.4574H186.671V34.2152ZM212.365 31.7835C212.365 32.8871 212.599 33.9564 213.068 34.9915C213.546 36.0169 214.254 36.9349 215.192 37.7455C216.139 38.556 217.286 39.1859 218.634 39.6351L216.994 42.1546C215.548 41.6761 214.298 40.9681 213.244 40.0306C212.189 39.0833 211.364 37.9749 210.768 36.7054C210.172 38.0921 209.323 39.2982 208.219 40.3236C207.125 41.3392 205.822 42.1058 204.308 42.6234L202.579 40.1039C203.966 39.6449 205.148 38.9906 206.124 38.141C207.101 37.2816 207.838 36.305 208.336 35.2113C208.834 34.1078 209.083 32.9652 209.083 31.7835V31.4613H203.488V28.8539H217.872V31.4613H212.365V31.7835ZM223.761 33.805H227.453V36.5296H223.761V43.1507H220.509V27.1839H223.761V33.805ZM223.761 53.6683H220.509V46.9886H206.124V44.3812H223.761V53.6683ZM252.941 40.514H242.453V42.5062H249.923V49.0101H234.865V50.9437H250.656V53.4339H231.671V46.6664H246.73V44.9671H231.642V42.5062H239.201V40.514H228.8V37.9359H252.941V40.514ZM249.835 36.266H231.847V28.0042H249.835V36.266ZM235.04 33.7171H246.583V30.5531H235.04V33.7171Z" fill="#000543"/>
</g>
<defs>
<filter id="filter0_d_65_46949" x="0.0784912" y="0.0608826" width="293" height="88" filterUnits="userSpaceOnUse" color-interpolation-filters="sRGB">
<feFlood flood-opacity="0" result="BackgroundImageFix"/>
<feColorMatrix in="SourceAlpha" type="matrix" values="0 0 0 0 0 0 0 0 0 0 0 0 0 0 0 0 0 0 127 0" result="hardAlpha"/>
<feOffset dy="4"/>
<feGaussianBlur stdDeviation="2"/>
<feComposite in2="hardAlpha" operator="out"/>
<feColorMatrix type="matrix" values="0 0 0 0 0 0 0 0 0 0 0 0 0 0 0 0 0 0 0.05 0"/>
<feBlend mode="normal" in2="BackgroundImageFix" result="effect1_dropShadow_65_46949"/>
<feBlend mode="normal" in="SourceGraphic" in2="effect1_dropShadow_65_46949" result="shape"/>
</filter>
</defs>
</svg>
