<svg width="268" height="89" viewBox="0 0 268 89" fill="none" xmlns="http://www.w3.org/2000/svg">
<g filter="url(#filter0_d_65_46955)">
<rect x="9.39966" y="5.36169" width="249" height="70" rx="35" fill="#CEBDFF" shape-rendering="crispEdges"/>
<rect x="6.89966" y="2.86169" width="254" height="75" rx="37.5" stroke="white" stroke-width="5" shape-rendering="crispEdges"/>
<path d="M64.6418 45.0922H54.095V53.9691H50.8723V45.0922H40.4426V42.3969H64.6418V45.0922ZM52.4836 28.4222C54.3489 28.432 56.0042 28.681 57.4495 29.1693C58.8948 29.6576 60.0178 30.351 60.8186 31.2494C61.6292 32.1381 62.0344 33.1781 62.0344 34.3695C62.0344 35.5511 61.6292 36.5863 60.8186 37.475C60.0178 38.3539 58.8948 39.0326 57.4495 39.5111C56.0042 39.9896 54.3489 40.2289 52.4836 40.2289C50.6086 40.2289 48.9485 39.9896 47.5032 39.5111C46.0676 39.0326 44.9543 38.3539 44.1633 37.475C43.3723 36.5863 42.9817 35.5511 42.9915 34.3695C42.9817 33.1781 43.3723 32.1381 44.1633 31.2494C44.9543 30.351 46.0676 29.6576 47.5032 29.1693C48.9485 28.681 50.6086 28.432 52.4836 28.4222ZM52.4836 31.059C51.2336 31.059 50.1448 31.1908 49.217 31.4545C48.2893 31.7181 47.5715 32.099 47.0637 32.597C46.5657 33.0951 46.3215 33.6859 46.3313 34.3695C46.3215 35.0433 46.5657 35.6293 47.0637 36.1273C47.5715 36.6156 48.2893 36.9916 49.217 37.2552C50.1448 37.5189 51.2336 37.6508 52.4836 37.6508C53.7336 37.6508 54.8225 37.5189 55.7502 37.2552C56.678 36.9916 57.3958 36.6156 57.9036 36.1273C58.4114 35.6293 58.6653 35.0433 58.6653 34.3695C58.6653 33.6859 58.4114 33.0951 57.9036 32.597C57.3958 32.099 56.678 31.7181 55.7502 31.4545C54.8225 31.1908 53.7336 31.059 52.4836 31.059ZM88.4602 53.9984H85.2375V27.4847H88.4602V53.9984ZM80.3157 39.7308H71.2043V45.0629C73.4407 45.0433 75.4915 44.9652 77.3567 44.8285C79.2317 44.6918 81.1458 44.4574 83.0989 44.1254L83.3918 46.7914C81.2922 47.1625 79.2268 47.4115 77.1956 47.5385C75.1643 47.6654 72.8254 47.7289 70.179 47.7289H67.8645V37.1527H77.0051V32.4359H67.8352V29.7992H80.3157V39.7308ZM113.216 35.1605H116.907V37.8558H113.216V46.9965H109.964V27.514H113.216V35.1605ZM114.271 53.4418H96.2532V45.0336H99.5051V50.8051H114.271V53.4418ZM96.4583 33.432H102.64V29.389H105.863V42.6898H93.2356V29.389H96.4583V33.432ZM102.64 40.1117V35.9515H96.4583V40.1117H102.64ZM139.173 29.682C139.173 30.7953 139.564 31.8793 140.345 32.934C141.136 33.9886 142.24 34.892 143.656 35.6439C145.081 36.3959 146.712 36.889 148.548 37.1234L147.259 39.7601C145.032 39.4281 143.06 38.7445 141.341 37.7094C139.622 36.6644 138.328 35.39 137.459 33.8861C136.59 35.39 135.301 36.6644 133.592 37.7094C131.883 38.7445 129.925 39.4281 127.718 39.7601L126.429 37.1234C128.245 36.889 129.862 36.3959 131.278 35.6439C132.694 34.892 133.792 33.9886 134.573 32.934C135.355 31.8793 135.745 30.7953 135.745 29.682V28.3344H139.173V29.682ZM149.515 44.7406H138.997V53.9691H135.775V44.7406H125.374V42.0453H149.515V44.7406ZM158.656 28.6566C159.788 28.6469 160.828 28.847 161.776 29.2572C162.723 29.6576 163.514 30.2289 164.149 30.9711C164.793 31.7035 165.223 32.5531 165.438 33.5199H170.228V27.4847H173.48V41.6937H170.228V36.1566H165.467C165.252 37.1429 164.823 38.0121 164.178 38.764C163.543 39.516 162.747 40.1019 161.79 40.5219C160.833 40.932 159.788 41.1371 158.656 41.1371C157.318 41.1371 156.116 40.8685 155.052 40.3314C153.988 39.7943 153.153 39.0521 152.547 38.1049C151.951 37.1478 151.654 36.0687 151.654 34.8676C151.654 33.6761 151.951 32.6068 152.547 31.6595C153.153 30.7123 153.988 29.975 155.052 29.4476C156.116 28.9105 157.318 28.6469 158.656 28.6566ZM158.656 31.3812C157.894 31.3812 157.22 31.5228 156.634 31.806C156.048 32.0892 155.589 32.4945 155.257 33.0219C154.925 33.5492 154.759 34.1644 154.759 34.8676C154.759 35.5609 154.925 36.1761 155.257 36.7133C155.589 37.2406 156.048 37.6508 156.634 37.9437C157.23 38.2367 157.904 38.3832 158.656 38.3832C159.388 38.3832 160.042 38.2367 160.618 37.9437C161.204 37.6508 161.658 37.2406 161.981 36.7133C162.313 36.1761 162.484 35.5609 162.493 34.8676C162.484 34.1644 162.313 33.5492 161.981 33.0219C161.658 32.4945 161.209 32.0892 160.633 31.806C160.057 31.5228 159.398 31.3812 158.656 31.3812ZM159.241 45.7367H170.228V42.9242H173.48V53.6469H156.019V42.9242H159.241V45.7367ZM170.228 51.0101V48.2562H159.241V51.0101H170.228ZM192.025 31.0297V31.3812C192.005 32.7289 191.956 33.9594 191.878 35.0726C191.8 36.1859 191.634 37.4359 191.38 38.8226L188.157 38.5297C188.392 37.2992 188.553 36.1859 188.641 35.1898C188.729 34.184 188.787 33.1683 188.817 32.1429H178.519V29.4476H192.025V31.0297ZM185.345 40.7709C188.48 40.6342 191.185 40.4047 193.46 40.0824L193.636 42.4261C191.195 42.8656 188.646 43.1586 185.99 43.3051C183.343 43.4418 180.423 43.5199 177.23 43.5394L176.937 40.932H177.464L182.122 40.8734V35.4828H185.345V40.7709ZM198.353 35.7465H201.781V38.4711H198.353V47.3187H195.013V27.4847H198.353V35.7465ZM199.202 53.4418H180.892V45.5609H184.173V50.8051H199.202V53.4418ZM225.218 53.9984H221.995V27.4847H225.218V53.9984ZM217.073 39.7308H207.962V45.0629C210.198 45.0433 212.249 44.9652 214.115 44.8285C215.99 44.6918 217.904 44.4574 219.857 44.1254L220.15 46.7914C218.05 47.1625 215.985 47.4115 213.953 47.5385C211.922 47.6654 209.583 47.7289 206.937 47.7289H204.622V37.1527H213.763V32.4359H204.593V29.7992H217.073V39.7308Z" fill="#000543"/>
</g>
<defs>
<filter id="filter0_d_65_46955" x="0.399658" y="0.361694" width="267" height="88" filterUnits="userSpaceOnUse" color-interpolation-filters="sRGB">
<feFlood flood-opacity="0" result="BackgroundImageFix"/>
<feColorMatrix in="SourceAlpha" type="matrix" values="0 0 0 0 0 0 0 0 0 0 0 0 0 0 0 0 0 0 127 0" result="hardAlpha"/>
<feOffset dy="4"/>
<feGaussianBlur stdDeviation="2"/>
<feComposite in2="hardAlpha" operator="out"/>
<feColorMatrix type="matrix" values="0 0 0 0 0 0 0 0 0 0 0 0 0 0 0 0 0 0 0.05 0"/>
<feBlend mode="normal" in2="BackgroundImageFix" result="effect1_dropShadow_65_46955"/>
<feBlend mode="normal" in="SourceGraphic" in2="effect1_dropShadow_65_46955" result="shape"/>
</filter>
</defs>
</svg>
