<svg width="307" height="66" viewBox="0 0 307 66" fill="none" xmlns="http://www.w3.org/2000/svg">
<rect width="306" height="65" transform="translate(0.512939 0.229309)" fill="#1FB9DF" fill-opacity="0.2"/>
<path d="M57.5729 21.3193C57.7229 21.5593 57.8879 21.9343 58.0679 22.4443C58.2479 22.9543 58.3079 23.4043 58.2479 23.7943C58.0979 25.0243 57.6479 25.7593 56.8979 25.9993C56.0879 26.2993 55.4279 26.1343 54.9179 25.5043C54.4079 24.8443 54.1979 23.9743 54.2879 22.8943C54.3479 22.0843 54.5429 21.2293 54.8729 20.3293C55.2329 19.4293 55.6529 18.5593 56.1329 17.7193C56.6129 16.8493 57.1229 16.0543 57.6629 15.3343C58.2029 14.5843 58.7129 13.9843 59.1929 13.5343C59.4329 13.3243 59.6729 13.2043 59.9129 13.1743C60.1529 13.1443 60.3479 13.1893 60.4979 13.3093C60.6479 13.3993 60.7379 13.5493 60.7679 13.7593C60.7979 13.9693 60.7229 14.1943 60.5429 14.4343C59.7929 15.4843 59.1479 16.4893 58.6079 17.4493C58.0979 18.4093 57.7229 19.3543 57.4829 20.2843C57.4529 20.3443 57.4379 20.5093 57.4379 20.7793C57.4379 21.0193 57.4829 21.1993 57.5729 21.3193ZM63.3779 21.4993C63.5579 21.7393 63.7379 22.1143 63.9179 22.6243C64.0979 23.1343 64.1729 23.5843 64.1429 23.9743C64.0529 25.1743 63.6179 25.9243 62.8379 26.2243C62.4479 26.3743 62.0879 26.4043 61.7579 26.3143C61.4279 26.1943 61.1279 25.9843 60.8579 25.6843C60.6179 25.3843 60.4229 25.0243 60.2729 24.6043C60.1529 24.1543 60.1079 23.6593 60.1379 23.1193C60.1679 22.3093 60.3329 21.4543 60.6329 20.5543C60.9329 19.6543 61.3079 18.7843 61.7579 17.9443C62.2079 17.0743 62.6879 16.2643 63.1979 15.5143C63.7379 14.7643 64.2329 14.1643 64.6829 13.7143C64.9229 13.4743 65.1479 13.3393 65.3579 13.3093C65.5979 13.2793 65.7929 13.3243 65.9429 13.4443C66.1229 13.5343 66.2279 13.6843 66.2579 13.8943C66.2879 14.1043 66.2279 14.3293 66.0779 14.5693C65.3879 15.6193 64.7879 16.6393 64.2779 17.6293C63.7679 18.5893 63.4229 19.5343 63.2429 20.4643C63.2129 20.5243 63.1979 20.6893 63.1979 20.9593C63.2279 21.1993 63.2879 21.3793 63.3779 21.4993ZM82.3271 37.8343C82.6271 37.7743 82.9421 37.7443 83.2721 37.7443C83.6321 37.7143 83.9471 37.7293 84.2171 37.7893C84.5171 37.8493 84.7571 37.9543 84.9371 38.1043C85.1471 38.2543 85.2671 38.4493 85.2971 38.6893C85.3271 39.1393 85.0571 39.5293 84.4871 39.8593C83.9471 40.1893 83.3321 40.4593 82.6421 40.6693C80.4521 41.2693 78.4271 41.7493 76.5671 42.1093C74.7071 42.4393 72.8171 42.7093 70.8971 42.9193C70.1771 43.0093 69.5621 42.9643 69.0521 42.7843C68.5721 42.5743 68.2871 42.2893 68.1971 41.9293C68.1371 41.5993 68.1671 41.3143 68.2871 41.0743C68.4071 40.8343 68.5721 40.6393 68.7821 40.4893C68.9921 40.3393 69.2171 40.2343 69.4571 40.1743C69.6971 40.0843 69.9071 40.0393 70.0871 40.0393C70.5671 39.9793 71.0321 39.9193 71.4821 39.8593C71.9621 39.7993 72.4421 39.7393 72.9221 39.6793C73.0421 39.1393 73.1471 38.4793 73.2371 37.6993C73.3271 36.9193 73.4021 36.1093 73.4621 35.2693C73.5221 34.3993 73.5671 33.5443 73.5971 32.7043C73.6271 31.8643 73.6421 31.1143 73.6421 30.4543C73.4021 30.5143 73.2521 30.5443 73.1921 30.5443C72.1721 30.7543 71.2571 30.6793 70.4471 30.3193C69.6671 29.9593 69.1871 29.2843 69.0071 28.2943C68.9171 27.7843 68.9321 27.2593 69.0521 26.7193C69.1721 26.1493 69.3821 25.5943 69.6821 25.0543C70.0121 24.5143 70.4021 24.0043 70.8521 23.5243C71.3321 23.0143 71.8571 22.5643 72.4271 22.1743C73.0271 21.7843 73.5821 21.6343 74.0921 21.7243C74.6021 21.8443 74.8871 22.1293 74.9471 22.5793C75.0971 22.5793 75.2321 22.5943 75.3521 22.6243C75.5021 22.6243 75.6521 22.6243 75.8021 22.6243C76.6721 22.7143 77.4071 22.9843 78.0071 23.4343C78.6371 23.8843 78.9521 24.4993 78.9521 25.2793C78.9521 25.8793 78.7271 26.5393 78.2771 27.2593C77.8571 27.9793 77.2421 28.6243 76.4321 29.1943C76.4621 29.8543 76.4771 30.6343 76.4771 31.5343C76.4771 32.4043 76.4471 33.3043 76.3871 34.2343C76.3571 35.1343 76.3121 36.0193 76.2521 36.8893C76.1921 37.7593 76.1021 38.5243 75.9821 39.1843C78.2321 38.7943 80.3471 38.3443 82.3271 37.8343ZM72.1571 27.3943C72.2771 27.7543 72.5621 27.8893 73.0121 27.7993C73.4621 27.7093 73.9421 27.5293 74.4521 27.2593C74.9921 26.9893 75.4571 26.6743 75.8471 26.3143C76.2671 25.9543 76.4921 25.6693 76.5221 25.4593C76.5521 25.2793 76.4921 25.1443 76.3421 25.0543C76.1921 24.9343 76.0121 24.8443 75.8021 24.7843C75.6221 24.6943 75.4121 24.6343 75.1721 24.6043C74.9621 24.5743 74.7821 24.5443 74.6321 24.5143C74.3321 24.4843 74.1371 24.3343 74.0471 24.0643C73.8071 24.3043 73.5521 24.5743 73.2821 24.8743C73.0121 25.1443 72.7721 25.4293 72.5621 25.7293C72.3821 25.9993 72.2471 26.2843 72.1571 26.5843C72.0671 26.8843 72.0671 27.1543 72.1571 27.3943ZM91.6597 16.0993C91.5097 16.7893 91.3447 17.5843 91.1647 18.4843C90.9847 19.3543 90.8647 20.1493 90.8047 20.8693C91.3147 20.7493 91.8847 20.5993 92.5147 20.4193C93.1747 20.2393 93.8347 20.0443 94.4947 19.8343C95.1547 19.6243 95.7997 19.4143 96.4297 19.2043C97.0897 18.9643 97.6897 18.7543 98.2297 18.5743C98.7697 18.4243 99.2647 18.3643 99.7147 18.3943C100.165 18.4243 100.465 18.6793 100.615 19.1593C100.705 19.4893 100.63 19.7743 100.39 20.0143C100.15 20.2543 99.7297 20.5393 99.1297 20.8693C97.5697 21.5593 96.1297 22.1443 94.8097 22.6243C93.5197 23.1043 92.1397 23.5243 90.6697 23.8843C90.1897 24.0043 89.7697 24.0193 89.4097 23.9293C89.0797 23.8393 88.7947 23.6893 88.5547 23.4793C88.3447 23.2393 88.1797 22.9543 88.0597 22.6243C87.9697 22.2943 87.9397 21.9493 87.9697 21.5893C88.0897 20.3893 88.2397 19.2043 88.4197 18.0343C88.6297 16.8643 88.8697 15.6943 89.1397 14.5243C89.1697 14.4343 89.2747 14.2993 89.4547 14.1193C89.6347 13.9393 89.9797 13.8943 90.4897 13.9843C90.8497 14.0443 91.1647 14.2843 91.4347 14.7043C91.7347 15.0943 91.8097 15.5593 91.6597 16.0993ZM102.595 27.7993C101.725 27.9793 100.675 28.1893 99.4447 28.4293C98.2147 28.6393 96.9247 28.8643 95.5747 29.1043C94.2547 29.3143 92.9197 29.5243 91.5697 29.7343C90.2197 29.9443 88.9747 30.1093 87.8347 30.2293C87.5647 30.2593 87.2647 30.1543 86.9347 29.9143C86.6347 29.6743 86.4547 29.3893 86.3947 29.0593C86.3347 28.7893 86.3797 28.5343 86.5297 28.2943C86.7097 28.0543 86.9347 27.9043 87.2047 27.8443C89.8447 27.2443 92.4397 26.7493 94.9897 26.3593C97.5397 25.9693 100.135 25.6993 102.775 25.5493C103.015 25.5793 103.24 25.6393 103.45 25.7293C103.69 25.7893 103.81 26.0293 103.81 26.4493C103.81 26.8393 103.66 27.1543 103.36 27.3943C103.09 27.6043 102.835 27.7393 102.595 27.7993ZM100.57 35.4043C100.3 35.6143 99.9847 35.9293 99.6247 36.3493C99.2947 36.7393 98.9347 37.1593 98.5447 37.6093C98.1847 38.0593 97.8247 38.4943 97.4647 38.9143C97.1347 39.3343 96.8347 39.6793 96.5647 39.9493C97.4047 39.8893 98.2597 39.9193 99.1297 40.0393C100.03 40.1293 100.66 40.2793 101.02 40.4893C101.56 40.8193 101.845 41.2543 101.875 41.7943C101.935 42.3343 101.755 42.9493 101.335 43.6393C101.035 44.2093 100.705 44.7193 100.345 45.1693C99.9847 45.6193 99.6097 46.0693 99.2197 46.5193C98.8597 46.9393 98.4997 47.3893 98.1397 47.8693C97.7797 48.3193 97.4497 48.8443 97.1497 49.4443C98.3497 49.2043 99.6397 48.8893 101.02 48.4993C102.43 48.1393 103.63 47.7793 104.62 47.4193C105.04 47.2693 105.4 47.2393 105.7 47.3293C106.03 47.3893 106.285 47.5093 106.465 47.6893C106.705 47.9293 106.81 48.2593 106.78 48.6793C106.78 49.0993 106.57 49.4143 106.15 49.6243C104.86 50.3143 103.36 50.9143 101.65 51.4243C99.9397 51.9643 98.2597 52.3843 96.6097 52.6843C95.3497 52.9243 94.4047 52.7143 93.7747 52.0543C93.1747 51.4243 93.1297 50.5693 93.6397 49.4893C94.0297 48.7393 94.4197 48.0943 94.8097 47.5543C95.1997 46.9843 95.5897 46.4593 95.9797 45.9793C96.3997 45.4693 96.8197 44.9743 97.2397 44.4943C97.6597 43.9843 98.1247 43.3843 98.6347 42.6943C98.2447 42.6643 97.8097 42.6493 97.3297 42.6493C96.8797 42.6493 96.4297 42.6643 95.9797 42.6943C95.5297 42.7243 95.1097 42.7693 94.7197 42.8293C94.3297 42.8593 94.0297 42.8743 93.8197 42.8743C93.5497 42.8743 93.3097 42.7993 93.0997 42.6493C92.8897 42.4993 92.7247 42.3043 92.6047 42.0643C92.5147 41.7943 92.4847 41.4943 92.5147 41.1643C92.5447 40.8343 92.6797 40.5043 92.9197 40.1743C93.1297 39.9043 93.4297 39.5593 93.8197 39.1393C94.2097 38.6893 94.6147 38.2393 95.0347 37.7893C95.4547 37.3093 95.8747 36.8443 96.2947 36.3943C96.7147 35.9443 97.0747 35.5393 97.3747 35.1793C96.6847 35.2093 95.8897 35.3293 94.9897 35.5393C94.1197 35.7493 93.3847 35.9293 92.7847 36.0793C92.1247 36.2593 91.6447 36.1693 91.3447 35.8093C91.0447 35.4493 90.8797 35.1043 90.8497 34.7743C90.8197 34.4443 90.9397 34.1743 91.2097 33.9643C91.4797 33.7243 91.7947 33.5443 92.1547 33.4243C94.3147 32.7043 96.4147 32.3743 98.4547 32.4343C99.1447 32.4943 99.6697 32.6293 100.03 32.8393C100.42 33.0493 100.69 33.3043 100.84 33.6043C101.02 33.9343 101.08 34.2793 101.02 34.6393C100.96 34.9693 100.81 35.2243 100.57 35.4043ZM129.536 48.9943C128.936 48.9943 128.561 48.8143 128.411 48.4543C128.261 48.1243 128.156 47.7493 128.096 47.3293C128.006 46.6693 127.931 45.9043 127.871 45.0343C127.811 44.1343 127.766 43.2343 127.736 42.3343C127.706 41.4043 127.691 40.5043 127.691 39.6343C127.691 38.7343 127.691 37.9693 127.691 37.3393C126.701 37.4893 125.741 37.6393 124.811 37.7893C123.911 37.9393 123.116 38.0893 122.426 38.2393C121.736 38.3893 121.061 38.4343 120.401 38.3743C119.741 38.3143 119.351 38.0593 119.231 37.6093C119.171 37.1893 119.351 36.8293 119.771 36.5293C120.191 36.1993 120.671 35.9593 121.211 35.8093C122.171 35.5693 123.311 35.3143 124.631 35.0443C125.981 34.7743 127.346 34.5193 128.726 34.2793C130.136 34.0393 131.501 33.8293 132.821 33.6493C134.141 33.4393 135.281 33.2893 136.241 33.1993C136.571 33.1693 136.931 33.1843 137.321 33.2443C137.711 33.3043 137.906 33.6193 137.906 34.1893C137.906 34.5793 137.741 34.9393 137.411 35.2693C137.081 35.5993 136.691 35.8093 136.241 35.8993C135.371 36.0493 134.426 36.2143 133.406 36.3943C132.416 36.5743 131.396 36.7393 130.346 36.8893C130.406 37.0393 130.451 37.1743 130.481 37.2943C130.511 37.4143 130.541 37.5343 130.571 37.6543C130.541 38.4043 130.526 39.2293 130.526 40.1293C130.526 41.0293 130.541 41.9443 130.571 42.8743C130.601 43.7743 130.616 44.6443 130.616 45.4843C130.646 46.2943 130.676 47.0143 130.706 47.6443C130.736 48.0043 130.601 48.3193 130.301 48.5893C130.031 48.8593 129.776 48.9943 129.536 48.9943ZM121.346 30.0943C121.256 30.2743 121.136 30.4993 120.986 30.7693C120.836 31.0393 120.671 31.2943 120.491 31.5343C120.311 31.7743 120.116 31.9693 119.906 32.1193C119.696 32.2693 119.486 32.3143 119.276 32.2543C119.066 32.1943 118.916 32.0443 118.826 31.8043C118.736 31.5643 118.676 31.2943 118.646 30.9943C118.616 30.6943 118.616 30.3943 118.646 30.0943C118.676 29.7943 118.721 29.5543 118.781 29.3743C118.931 28.7743 119.246 27.9943 119.726 27.0343C120.206 26.0743 120.746 25.0693 121.346 24.0193C121.976 22.9693 122.621 21.9493 123.281 20.9593C123.941 19.9693 124.526 19.1443 125.036 18.4843C125.126 18.3643 125.366 18.1843 125.756 17.9443C126.176 17.7043 126.551 17.6443 126.881 17.7643C127.331 17.9443 127.601 18.2893 127.691 18.7993C127.811 19.2793 127.751 19.7143 127.511 20.1043C127.181 20.5843 126.821 21.1093 126.431 21.6793C126.071 22.2493 125.681 22.8343 125.261 23.4343C125.711 23.4343 126.266 23.4643 126.926 23.5243C127.586 23.5543 128.276 23.6293 128.996 23.7493C129.716 23.8393 130.436 23.9743 131.156 24.1543C131.876 24.3343 132.521 24.5593 133.091 24.8293C133.511 25.0693 133.796 25.3243 133.946 25.5943C134.096 25.8643 134.111 26.1193 133.991 26.3593C133.871 26.5993 133.571 26.7643 133.091 26.8543C132.611 26.9443 132.206 26.9593 131.876 26.8993C130.646 26.7193 129.326 26.5543 127.916 26.4043C126.506 26.2243 125.081 26.0893 123.641 25.9993C123.131 26.7793 122.681 27.5293 122.291 28.2493C121.901 28.9393 121.586 29.5543 121.346 30.0943ZM166.3 18.5293C166.33 20.1493 166.375 21.7993 166.435 23.4793C166.495 25.1593 166.495 26.8543 166.435 28.5643C166.375 29.0143 166.24 29.4493 166.03 29.8693C165.82 30.2593 165.475 30.4543 164.995 30.4543C164.605 30.4543 164.32 30.2293 164.14 29.7793C163.96 29.2993 163.825 28.8643 163.735 28.4743C163.645 27.8743 163.555 27.1993 163.465 26.4493C163.375 25.6693 163.3 24.8743 163.24 24.0643C163.21 23.2543 163.18 22.4593 163.15 21.6793C163.12 20.8693 163.105 20.1343 163.105 19.4743C162.055 19.7143 160.915 20.0293 159.685 20.4193C158.485 20.7793 157.225 21.1843 155.905 21.6343C154.615 22.0843 153.295 22.5643 151.945 23.0743C150.625 23.5543 149.335 24.0343 148.075 24.5143C148.435 25.4743 148.66 26.4793 148.75 27.5293C148.84 28.5793 148.75 29.5693 148.48 30.4993C148.24 31.4293 147.805 32.2243 147.175 32.8843C146.545 33.5143 145.705 33.8743 144.655 33.9643C144.055 34.0243 143.515 33.9643 143.035 33.7843C142.585 33.6043 142.18 33.3643 141.82 33.0643C141.49 32.7343 141.205 32.3593 140.965 31.9393C140.755 31.4893 140.605 31.0393 140.515 30.5893C140.335 29.7793 140.245 28.9393 140.245 28.0693C140.245 27.1993 140.305 26.3593 140.425 25.5493C140.545 24.7393 140.71 23.9743 140.92 23.2543C141.13 22.5043 141.355 21.8293 141.595 21.2293C141.835 20.6293 142.15 20.1793 142.54 19.8793C142.96 19.5793 143.455 19.5043 144.025 19.6543C144.415 19.7743 144.685 19.9543 144.835 20.1943C145.015 20.4043 145.12 20.6593 145.15 20.9593C145.18 21.2293 145.15 21.5143 145.06 21.8143C145 22.1143 144.925 22.3843 144.835 22.6243C144.325 23.8843 143.98 25.2043 143.8 26.5843C143.62 27.9343 143.695 29.2093 144.025 30.4093C144.115 30.7393 144.295 30.9043 144.565 30.9043C144.895 30.9043 145.15 30.7393 145.33 30.4093C146.14 28.7893 146.335 26.9743 145.915 24.9643C145.855 24.7243 145.765 24.4843 145.645 24.2443C145.555 23.9743 145.495 23.7193 145.465 23.4793C145.435 23.2393 145.45 23.0143 145.51 22.8043C145.6 22.5943 145.795 22.4293 146.095 22.3093C146.125 22.3093 146.14 22.3093 146.14 22.3093C146.14 22.2793 146.155 22.2643 146.185 22.2643C148.975 21.1243 151.855 20.0293 154.825 18.9793C157.795 17.8993 160.57 16.9693 163.15 16.1893C164.08 15.9193 164.83 15.9493 165.4 16.2793C165.97 16.6093 166.27 17.3593 166.3 18.5293ZM163.465 33.6493C163.435 33.1393 163.57 32.6743 163.87 32.2543C164.17 31.8343 164.53 31.6243 164.95 31.6243C165.4 31.6243 165.715 31.7743 165.895 32.0743C166.105 32.3743 166.24 32.7193 166.3 33.1093C166.39 33.8293 166.465 34.7443 166.525 35.8543C166.585 36.9643 166.615 38.1493 166.615 39.4093C166.645 40.6393 166.63 41.8993 166.57 43.1893C166.54 44.4493 166.45 45.5893 166.3 46.6093C166.21 47.5993 165.895 48.4993 165.355 49.3093C164.845 50.1193 164.185 50.5243 163.375 50.5243C162.955 50.5243 162.535 50.3593 162.115 50.0293C161.725 49.6993 161.365 49.2643 161.035 48.7243C160.705 48.1843 160.42 47.5843 160.18 46.9243C159.97 46.2643 159.835 45.5893 159.775 44.8993C159.715 44.2693 159.745 43.6693 159.865 43.0993C159.985 42.4993 160.195 41.9743 160.495 41.5243C160.825 41.0743 161.245 40.6993 161.755 40.3993C162.265 40.0993 162.91 39.9043 163.69 39.8143C163.66 38.8243 163.63 37.8193 163.6 36.7993C163.57 35.7793 163.525 34.7293 163.465 33.6493ZM157.3 34.7293C157.27 35.1793 157.24 35.8993 157.21 36.8893C157.18 37.8793 157.15 38.9443 157.12 40.0843C157.12 41.2243 157.12 42.3793 157.12 43.5493C157.15 44.7193 157.195 45.7093 157.255 46.5193C157.255 47.2093 157.12 47.6893 156.85 47.9593C156.61 48.2293 156.4 48.3643 156.22 48.3643C155.62 48.3643 155.185 48.1543 154.915 47.7343C154.645 47.2843 154.48 46.7893 154.42 46.2493C154.27 44.6593 154.15 42.7993 154.06 40.6693C154 38.5093 154.12 36.3493 154.42 34.1893C154.48 33.8293 154.57 33.4393 154.69 33.0193C154.84 32.5993 155.125 32.4043 155.545 32.4343C156.055 32.4643 156.475 32.6893 156.805 33.1093C157.135 33.5293 157.3 34.0693 157.3 34.7293ZM162.025 44.6743C162.025 45.5443 162.13 46.2343 162.34 46.7443C162.58 47.2543 162.79 47.5093 162.97 47.5093C163.27 47.5093 163.435 47.2543 163.465 46.7443C163.525 46.0543 163.57 45.3793 163.6 44.7193C163.63 44.0593 163.66 43.3993 163.69 42.7393C163.03 42.8893 162.58 43.1593 162.34 43.5493C162.13 43.9093 162.025 44.2843 162.025 44.6743ZM187.081 19.8343C187.771 19.5043 188.551 19.2343 189.421 19.0243C190.291 18.7843 191.161 18.7393 192.031 18.8893C192.871 19.0093 193.501 19.3693 193.921 19.9693C194.341 20.5393 194.506 21.2443 194.416 22.0843C194.326 23.0443 194.086 23.9143 193.696 24.6943C193.336 25.4743 192.856 26.4193 192.256 27.5293C192.766 27.2893 193.411 27.0343 194.191 26.7643C194.971 26.4943 195.811 26.3293 196.711 26.2693C196.981 26.2393 197.266 26.2393 197.566 26.2693C197.896 26.2693 198.196 26.3143 198.466 26.4043C198.736 26.4643 198.946 26.5843 199.096 26.7643C199.276 26.9143 199.351 27.1243 199.321 27.3943C199.291 27.5743 199.066 27.7543 198.646 27.9343C198.256 28.1143 197.881 28.2493 197.521 28.3393C196.801 28.5193 196.066 28.7593 195.316 29.0593C194.566 29.3293 193.831 29.6293 193.111 29.9593C192.421 30.2893 191.761 30.6193 191.131 30.9493C190.531 31.2493 190.006 31.5043 189.556 31.7143C189.316 31.8343 189.001 31.8643 188.611 31.8043C188.251 31.7443 187.951 31.5193 187.711 31.1293C187.561 30.8593 187.531 30.5443 187.621 30.1843C187.741 29.7943 187.906 29.4343 188.116 29.1043C188.446 28.5643 188.806 27.9943 189.196 27.3943C189.586 26.7943 189.946 26.1943 190.276 25.5943C190.636 24.9643 190.936 24.3493 191.176 23.7493C191.416 23.1493 191.551 22.5793 191.581 22.0393C191.551 21.7993 191.416 21.6643 191.176 21.6343C190.936 21.5743 190.636 21.5743 190.276 21.6343C189.916 21.6943 189.526 21.7843 189.106 21.9043C188.716 22.0243 188.356 22.1293 188.026 22.2193C187.546 22.3993 187.111 22.3093 186.721 21.9493C186.661 22.7293 186.601 23.5393 186.541 24.3793C186.511 25.2193 186.466 26.0593 186.406 26.8993C186.376 27.7393 186.346 28.5643 186.316 29.3743C186.286 30.1543 186.271 30.8593 186.271 31.4893C186.271 31.7893 186.181 32.0143 186.001 32.1643C185.851 32.2843 185.671 32.3743 185.461 32.4343C185.251 32.4943 185.056 32.4943 184.876 32.4343C184.726 32.3443 184.591 32.2243 184.471 32.0743C184.351 31.9243 184.246 31.7743 184.156 31.6243C184.066 31.4443 184.006 31.2793 183.976 31.1293C183.796 30.4093 183.676 29.5243 183.616 28.4743C183.586 27.3943 183.586 26.2693 183.616 25.0993C183.646 23.9293 183.706 22.7593 183.796 21.5893C183.916 20.4193 184.036 19.3843 184.156 18.4843C184.216 18.1543 184.426 17.8543 184.786 17.5843C185.176 17.2843 185.581 17.1193 186.001 17.0893C186.421 17.0893 186.706 17.2843 186.856 17.6743C187.036 18.0643 187.096 18.4543 187.036 18.8443C187.006 18.9943 186.976 19.1743 186.946 19.3843C186.946 19.5643 186.931 19.7593 186.901 19.9693C186.931 19.9393 186.961 19.9243 186.991 19.9243C187.021 19.8943 187.051 19.8643 187.081 19.8343ZM193.741 39.2293C193.861 39.7693 193.951 40.4143 194.011 41.1643C194.101 41.8843 194.146 42.6193 194.146 43.3693C194.176 44.1193 194.191 44.8393 194.191 45.5293C194.191 46.1893 194.176 46.7443 194.146 47.1943C194.116 47.4943 193.996 47.7193 193.786 47.8693C193.576 48.0193 193.396 48.0943 193.246 48.0943C192.706 48.0943 192.226 47.8993 191.806 47.5093C191.386 47.1193 191.176 46.7143 191.176 46.2943C191.176 45.7543 191.161 45.1093 191.131 44.3593C191.101 43.5793 191.056 42.7843 190.996 41.9743C190.936 41.1343 190.846 40.3243 190.726 39.5443C190.636 38.7643 190.531 38.0893 190.411 37.5193C189.121 37.9693 187.726 38.4343 186.226 38.9143C185.806 39.0643 185.341 39.0193 184.831 38.7793C184.321 38.5093 183.976 38.0893 183.796 37.5193C183.646 37.0393 183.976 36.6343 184.786 36.3043C185.686 36.0043 186.646 35.6893 187.666 35.3593C188.716 34.9993 189.796 34.6693 190.906 34.3693C192.046 34.0693 193.201 33.8293 194.371 33.6493C195.541 33.4393 196.726 33.3343 197.926 33.3343C198.106 33.3343 198.361 33.4693 198.691 33.7393C199.051 34.0093 199.201 34.3393 199.141 34.7293C199.081 34.9993 198.946 35.2093 198.736 35.3593C198.556 35.4793 198.361 35.5543 198.151 35.5843C197.011 35.7643 195.976 35.9743 195.046 36.2143C194.116 36.4243 193.201 36.6643 192.301 36.9343C192.601 37.1443 192.871 37.4293 193.111 37.7893C193.381 38.1493 193.591 38.6293 193.741 39.2293ZM204.001 28.2043C203.941 27.1843 204.301 26.6443 205.081 26.5843C205.321 26.5843 205.651 26.7043 206.071 26.9443C206.521 27.1543 206.776 27.5743 206.836 28.2043C207.166 31.1443 207.346 33.9193 207.376 36.5293C207.436 39.1093 207.421 41.4343 207.331 43.5043C207.301 43.8043 207.151 44.0893 206.881 44.3593C206.611 44.6293 206.311 44.7643 205.981 44.7643C205.741 44.7643 205.531 44.6893 205.351 44.5393C205.201 44.3893 205.066 44.2093 204.946 43.9993C204.856 43.7593 204.781 43.5193 204.721 43.2793C204.691 43.0393 204.676 42.8293 204.676 42.6493C204.676 42.0493 204.661 41.4643 204.631 40.8943C204.631 40.2943 204.616 39.6943 204.586 39.0943C203.626 39.3943 202.726 39.7243 201.886 40.0843C201.076 40.4143 200.131 40.8643 199.051 41.4343C198.841 41.5543 198.616 41.6443 198.376 41.7043C198.136 41.7343 197.911 41.7493 197.701 41.7493C197.491 41.7193 197.311 41.6443 197.161 41.5243C197.011 41.3743 196.921 41.1793 196.891 40.9393C196.831 40.6693 196.951 40.2943 197.251 39.8143C197.581 39.3343 198.046 38.9293 198.646 38.5993C199.666 38.0293 200.596 37.5793 201.436 37.2493C202.306 36.9193 203.326 36.5893 204.496 36.2593C204.436 34.9393 204.361 33.6193 204.271 32.2993C204.181 30.9793 204.091 29.6143 204.001 28.2043ZM220.561 29.1043C220.291 29.9743 220.006 30.8593 219.706 31.7593C219.436 32.6293 219.166 33.4993 218.896 34.3693C219.826 34.3993 220.621 34.6393 221.281 35.0893C221.971 35.5393 222.406 36.0643 222.586 36.6643C222.766 37.1743 222.811 37.7143 222.721 38.2843C222.661 38.8243 222.496 39.3643 222.226 39.9043C221.986 40.4443 221.671 40.9693 221.281 41.4793C220.891 41.9593 220.456 42.3793 219.976 42.7393C219.676 42.9793 219.196 43.2343 218.536 43.5043C217.906 43.7443 217.321 43.8193 216.781 43.7293C215.911 43.5793 215.326 43.0843 215.026 42.2443C214.726 41.3743 214.651 40.4593 214.801 39.4993C214.951 38.4793 215.116 37.5793 215.296 36.7993C215.506 35.9893 215.716 35.2093 215.926 34.4593C216.166 33.7093 216.421 32.9443 216.691 32.1643C216.961 31.3843 217.261 30.4843 217.591 29.4643C216.691 29.5843 215.821 29.8093 214.981 30.1393C214.141 30.4693 213.421 30.8143 212.821 31.1743C212.431 31.4143 211.996 31.4593 211.516 31.3093C211.066 31.1593 210.841 30.7843 210.841 30.1843C210.781 29.7043 211.036 29.2393 211.606 28.7893C212.176 28.3393 212.881 27.9643 213.721 27.6643C214.561 27.3343 215.431 27.0943 216.331 26.9443C217.231 26.7643 217.981 26.7043 218.581 26.7643C219.421 26.8543 219.976 27.1393 220.246 27.6193C220.546 28.0693 220.651 28.5643 220.561 29.1043ZM231.136 29.0593C232.486 28.3693 233.791 27.9943 235.051 27.9343C236.341 27.8743 237.496 28.0093 238.516 28.3393C238.786 28.4293 238.966 28.5493 239.056 28.6993C239.176 28.8493 239.236 28.9993 239.236 29.1493C239.266 29.2693 239.266 29.3893 239.236 29.5093C239.206 29.5993 239.191 29.6593 239.191 29.6893C238.861 30.2293 238.471 30.4993 238.021 30.4993C237.391 30.4993 236.836 30.5143 236.356 30.5443C235.906 30.5443 235.486 30.5743 235.096 30.6343C234.736 30.6643 234.376 30.7243 234.016 30.8143C233.686 30.9043 233.311 31.0093 232.891 31.1293C232.621 31.2193 232.396 31.2493 232.216 31.2193C232.066 31.1593 231.931 31.0993 231.811 31.0393C231.691 30.9493 231.586 30.8743 231.496 30.8143C231.436 30.7543 231.361 30.7393 231.271 30.7693C231.211 30.7993 231.181 30.9643 231.181 31.2643C231.181 32.6743 231.226 33.9793 231.316 35.1793C231.436 36.3793 231.541 37.5493 231.631 38.6893C231.661 39.0793 231.556 39.4843 231.316 39.9043C231.106 40.3243 230.791 40.5043 230.371 40.4443C230.071 40.3843 229.756 40.1743 229.426 39.8143C229.096 39.4543 228.901 39.0793 228.841 38.6893C228.391 35.8093 228.181 32.8993 228.211 29.9593C228.271 27.0193 228.466 24.2743 228.796 21.7243C228.826 21.4243 228.931 21.2143 229.111 21.0943C229.321 20.9443 229.531 20.8693 229.741 20.8693C229.981 20.8393 230.221 20.8693 230.461 20.9593C230.701 21.0193 230.896 21.1093 231.046 21.2293C231.166 21.3193 231.316 21.4993 231.496 21.7693C231.676 22.0093 231.736 22.2493 231.676 22.4893C231.496 23.5093 231.361 24.6043 231.271 25.7743C231.181 26.9143 231.136 28.0093 231.136 29.0593ZM220.741 23.2543C220.831 23.4943 220.906 23.8093 220.966 24.1993C221.056 24.5593 221.086 24.9043 221.056 25.2343C221.056 25.5343 220.966 25.7893 220.786 25.9993C220.606 26.1793 220.291 26.2093 219.841 26.0893C219.571 25.9993 219.376 25.8493 219.256 25.6393C219.136 25.3993 219.001 25.1593 218.851 24.9193C218.251 23.7493 217.546 22.6093 216.736 21.4993C215.926 20.3593 215.086 19.3393 214.216 18.4393C213.736 18.0193 213.436 17.5993 213.316 17.1793C213.196 16.7293 213.346 16.3393 213.766 16.0093C214.156 15.7693 214.546 15.7243 214.936 15.8743C215.356 15.9943 215.731 16.2043 216.061 16.5043C216.601 17.0143 217.126 17.5693 217.636 18.1693C218.146 18.7693 218.596 19.3843 218.986 20.0143C219.406 20.6143 219.766 21.1993 220.066 21.7693C220.366 22.3093 220.591 22.8043 220.741 23.2543ZM217.501 40.8493C217.831 40.6693 218.161 40.4593 218.491 40.2193C218.851 39.9793 219.166 39.7093 219.436 39.4093C219.706 39.1093 219.901 38.7943 220.021 38.4643C220.141 38.1043 220.141 37.7443 220.021 37.3843C219.901 37.0243 219.691 36.7543 219.391 36.5743C219.121 36.3943 218.806 36.2443 218.446 36.1243C218.236 36.9043 218.041 37.6993 217.861 38.5093C217.711 39.2893 217.591 40.0693 217.501 40.8493ZM259.594 24.1093C259.714 23.4193 259.864 22.8493 260.044 22.3993C260.254 21.9193 260.614 21.6793 261.124 21.6793C261.664 21.6793 262.054 21.8293 262.294 22.1293C262.534 22.4293 262.624 22.8193 262.564 23.2993C262.294 25.9093 262.054 28.3693 261.844 30.6793C261.634 32.9893 261.559 35.3293 261.619 37.6993C261.649 38.5093 261.529 39.0343 261.259 39.2743C260.989 39.5143 260.644 39.6343 260.224 39.6343C259.984 39.6343 259.774 39.5143 259.594 39.2743C259.444 39.0343 259.309 38.7343 259.189 38.3743C259.099 38.0143 259.024 37.6393 258.964 37.2493C258.904 36.8293 258.874 36.4543 258.874 36.1243C258.814 33.9643 258.829 31.9093 258.919 29.9593C259.039 27.9793 259.264 26.0293 259.594 24.1093ZM252.349 24.0643C252.439 24.4843 252.394 24.9493 252.214 25.4593C252.034 25.9393 251.689 26.5093 251.179 27.1693C250.309 28.2493 249.409 29.5843 248.479 31.1743C247.549 32.7643 246.799 34.4143 246.229 36.1243C245.899 37.1143 245.344 37.4893 244.564 37.2493C244.114 37.0993 243.874 36.8143 243.844 36.3943C243.814 35.9443 243.814 35.5993 243.844 35.3593C243.904 34.6993 244.099 33.9343 244.429 33.0643C244.789 32.1943 245.209 31.3093 245.689 30.4093C246.199 29.5093 246.754 28.6243 247.354 27.7543C247.954 26.8843 248.524 26.1043 249.064 25.4143C248.374 25.5643 247.699 25.7743 247.039 26.0443C246.409 26.3143 245.809 26.6293 245.239 26.9893C244.699 27.3193 244.189 27.6643 243.709 28.0243C243.229 28.3543 242.809 28.6693 242.449 28.9693C242.299 29.0893 242.029 29.1493 241.639 29.1493C241.249 29.1493 240.964 29.0593 240.784 28.8793C240.634 28.7293 240.499 28.4743 240.379 28.1143C240.259 27.7243 240.364 27.3493 240.694 26.9893C241.624 25.9393 242.854 25.0093 244.384 24.1993C245.944 23.3893 247.729 22.8643 249.739 22.6243C250.279 22.5643 250.804 22.6393 251.314 22.8493C251.854 23.0593 252.199 23.4643 252.349 24.0643ZM254.374 40.4893C254.524 40.8493 254.569 41.2093 254.509 41.5693C254.479 41.8993 254.344 42.1093 254.104 42.1993C253.774 42.3193 253.429 42.2893 253.069 42.1093C252.739 41.9293 252.469 41.7193 252.259 41.4793C251.899 40.9693 251.554 40.3543 251.224 39.6343C250.924 38.9143 250.654 38.1793 250.414 37.4293C250.174 36.6493 249.964 35.8843 249.784 35.1343C249.634 34.3543 249.529 33.6493 249.469 33.0193C249.409 32.5993 249.424 32.2093 249.514 31.8493C249.634 31.4893 249.784 31.2643 249.964 31.1743C250.444 30.9643 250.879 31.0243 251.269 31.3543C251.659 31.6843 251.884 32.0443 251.944 32.4343C252.124 33.9043 252.439 35.2993 252.889 36.6193C253.339 37.9393 253.834 39.2293 254.374 40.4893ZM276.663 30.4993C276.273 30.9793 275.853 31.4293 275.403 31.8493C274.953 32.2693 274.533 32.7043 274.143 33.1543C273.783 33.6043 273.498 34.0843 273.288 34.5943C273.078 35.1043 273.033 35.6893 273.153 36.3493C273.363 36.7693 273.453 37.0993 273.423 37.3393C273.393 37.5493 273.273 37.7293 273.063 37.8793C272.523 38.1793 271.983 38.0443 271.443 37.4743C271.083 37.0843 270.828 36.6193 270.678 36.0793C270.558 35.5093 270.528 34.9543 270.588 34.4143C270.678 33.8443 270.843 33.2893 271.083 32.7493C271.353 32.2093 271.698 31.7293 272.118 31.3093C272.538 30.8893 272.973 30.4543 273.423 30.0043C273.873 29.5243 274.278 29.0293 274.638 28.5193C274.998 28.0093 275.268 27.4993 275.448 26.9893C275.628 26.4493 275.673 25.8943 275.583 25.3243C275.553 25.1143 275.433 24.9343 275.223 24.7843C275.013 24.6043 274.743 24.4693 274.413 24.3793C274.083 24.2593 273.708 24.1993 273.288 24.1993C272.898 24.1693 272.493 24.2143 272.073 24.3343C271.383 24.5443 270.783 24.9193 270.273 25.4593C269.763 25.9693 269.493 26.5243 269.463 27.1243C269.673 27.6043 269.658 27.9343 269.418 28.1143C269.208 28.2643 268.983 28.3393 268.743 28.3393C268.533 28.3393 268.338 28.2793 268.158 28.1593C267.438 27.4393 267.123 26.6593 267.213 25.8193C267.333 24.9793 267.663 24.2143 268.203 23.5243C268.713 22.8343 269.358 22.2943 270.138 21.9043C270.948 21.4843 271.818 21.2443 272.748 21.1843C273.918 21.0943 275.013 21.3043 276.033 21.8143C277.083 22.2943 277.803 23.1193 278.193 24.2893C278.583 25.6093 278.583 26.7793 278.193 27.7993C277.803 28.8193 277.293 29.7193 276.663 30.4993ZM275.088 44.4493C275.178 44.8693 275.118 45.2443 274.908 45.5743C274.698 45.9043 274.413 46.1593 274.053 46.3393C273.723 46.5193 273.363 46.5943 272.973 46.5643C272.613 46.5343 272.298 46.3543 272.028 46.0243C271.848 45.8143 271.743 45.5743 271.713 45.3043C271.683 45.0343 271.683 44.7493 271.713 44.4493C271.773 44.1493 271.833 43.8643 271.893 43.5943C271.983 43.3243 272.028 43.0843 272.028 42.8743C272.028 42.7843 272.058 42.6793 272.118 42.5593C272.178 42.4393 272.253 42.3493 272.343 42.2893C272.463 42.1993 272.583 42.1543 272.703 42.1543C272.823 42.1543 272.958 42.2443 273.108 42.4243C273.528 42.7543 273.963 43.0993 274.413 43.4593C274.863 43.7893 275.088 44.1193 275.088 44.4493ZM283.756 18.3493C283.546 18.1093 283.321 17.7643 283.081 17.3143C282.871 16.8343 282.751 16.3993 282.721 16.0093C282.691 15.4093 282.766 14.8993 282.946 14.4793C283.156 14.0593 283.426 13.7743 283.756 13.6243C284.536 13.2043 285.211 13.2793 285.781 13.8493C286.381 14.4193 286.711 15.2443 286.771 16.3243C286.801 17.1343 286.711 18.0193 286.501 18.9793C286.291 19.9093 286.006 20.8393 285.646 21.7693C285.316 22.6693 284.926 23.5243 284.476 24.3343C284.026 25.1443 283.606 25.8043 283.216 26.3143C283.006 26.5543 282.781 26.7043 282.541 26.7643C282.331 26.8243 282.136 26.8093 281.956 26.7193C281.806 26.6293 281.701 26.4943 281.641 26.3143C281.581 26.1043 281.626 25.8643 281.776 25.5943C282.376 24.4543 282.871 23.3743 283.261 22.3543C283.651 21.3343 283.891 20.3443 283.981 19.3843C283.981 19.3243 283.966 19.1743 283.936 18.9343C283.906 18.6643 283.846 18.4693 283.756 18.3493ZM290.596 18.3043C290.356 18.0643 290.101 17.7193 289.831 17.2693C289.591 16.8193 289.441 16.3993 289.381 16.0093C289.321 15.4093 289.366 14.8993 289.516 14.4793C289.666 14.0593 289.906 13.7443 290.236 13.5343C290.926 13.1443 291.601 13.2043 292.261 13.7143C292.921 14.2243 293.326 15.0193 293.476 16.0993C293.596 16.8793 293.581 17.7643 293.431 18.7543C293.311 19.7443 293.101 20.7193 292.801 21.6793C292.501 22.6393 292.156 23.5543 291.766 24.4243C291.406 25.2643 291.046 25.9543 290.686 26.4943C290.506 26.7643 290.296 26.9443 290.056 27.0343C289.846 27.1243 289.651 27.1393 289.471 27.0793C289.291 26.9893 289.156 26.8393 289.066 26.6293C289.006 26.4193 289.036 26.1793 289.156 25.9093C289.636 24.7393 290.056 23.5843 290.416 22.4443C290.776 21.2743 290.956 20.2243 290.956 19.2943C290.956 19.2343 290.926 19.0843 290.866 18.8443C290.806 18.6043 290.716 18.4243 290.596 18.3043Z" fill="#000543"/>
</svg>
