<svg width="565" height="174" viewBox="0 0 565 174" fill="none" xmlns="http://www.w3.org/2000/svg">
<path d="M387.228 173.164C358.994 173.164 330.428 167.159 304.62 155.814C279.318 144.693 255.78 126.154 238.253 103.56C234.472 99.4178 220.54 86.3959 184.015 71.4342C167.17 65.7907 154.514 60.9172 143.047 55.6343C110.302 40.5557 82.1945 20.7108 57.1072 -5.00177C3.48351 -59.9749 -13.9754 -131.684 11.5602 -192.115C17.6006 -206.404 25.3948 -222.974 37.5049 -237.526C55.7919 -259.515 74.2835 -274.662 103.424 -291.554C108.139 -294.283 113.108 -296.856 118.301 -299.244C142.804 -310.502 166.878 -322.54 190.075 -336.039C218.962 -352.833 254.24 -368.614 293.601 -374.335C311.011 -376.869 324.972 -378 338.846 -378C351.969 -378 365.502 -377.006 384.1 -374.667C401.549 -372.483 415.91 -367.366 431.089 -361.947L435.21 -360.485C460.142 -351.644 483.875 -336.985 501.996 -319.196C530.114 -291.612 546.764 -266.933 556 -239.173C564.096 -214.835 566.727 -191.803 563.833 -170.701C560.267 -144.754 553.662 -121.215 543.062 -96.7113C538.288 -80.6288 533.777 -56.5049 538.57 -31.192C540.928 -24.0377 542.614 -18.1017 543.861 -12.5752C555.552 39.0644 548.303 79.9044 521.716 112.245C498.625 140.336 465.666 160.356 428.936 168.612C415.491 171.624 401.452 173.154 387.208 173.154L387.228 173.164Z" fill="#FFEAB5"/>
</svg>
