<svg width="253" height="89" viewBox="0 0 253 89" fill="none" xmlns="http://www.w3.org/2000/svg">
<g filter="url(#filter0_d_65_46957)">
<rect x="9.34439" y="5.79736" width="234" height="70" rx="35" fill="#A3F9FF" shape-rendering="crispEdges"/>
<rect x="6.84439" y="3.29736" width="239" height="75" rx="37.5" stroke="white" stroke-width="5" shape-rendering="crispEdges"/>
<path d="M61.3932 35.3618H65.1139V38.0571H61.3932V47.0806H58.1413V27.9204H61.3932V35.3618ZM53.4831 32.7251H44.8405V39.9321H45.3971C47.7799 39.9321 49.7282 39.8735 51.2419 39.7563C52.7653 39.6392 54.2643 39.4243 55.7389 39.1118L56.0905 41.7485C54.401 42.0806 52.6628 42.3052 50.8756 42.4224C49.0885 42.5396 46.7155 42.5981 43.7565 42.5981H41.6178V30.1177H53.4831V32.7251ZM62.4479 53.8774H44.4303V45.0591H47.6823V51.2407H62.4479V53.8774ZM88.6393 47.9888H85.3581V45.6743H80.1725V43.3892H85.3581V27.9497H88.6393V47.9888ZM89.2545 53.8774H69.8307V46.0552H73.0827V51.2407H89.2545V53.8774ZM66.3151 39.8442C69.7526 39.8247 72.8385 39.7661 75.5729 39.6685C78.3073 39.5708 80.9147 39.3657 83.3952 39.0532L83.571 41.397C81.4518 41.7485 79.2253 42.0024 76.8913 42.1587V47.2563H73.6393V42.3345C71.7545 42.4126 69.4499 42.4517 66.7253 42.4517L66.3151 39.8442ZM74.9577 28.9165C76.237 28.9165 77.3698 29.1167 78.3561 29.5171C79.3522 29.9077 80.1286 30.4595 80.6852 31.1724C81.2516 31.8755 81.5397 32.686 81.5495 33.604C81.5397 34.5415 81.2565 35.3618 80.6999 36.0649C80.1432 36.7681 79.3669 37.3101 78.3708 37.6909C77.3747 38.0718 76.237 38.2622 74.9577 38.2622C73.6588 38.2622 72.5065 38.0718 71.5006 37.6909C70.5045 37.3101 69.7282 36.7681 69.1715 36.0649C68.6149 35.3618 68.3366 34.5415 68.3366 33.604C68.3366 32.686 68.6149 31.8755 69.1715 31.1724C69.7282 30.4595 70.5045 29.9077 71.5006 29.5171C72.5065 29.1167 73.6588 28.9165 74.9577 28.9165ZM74.9577 31.3188C73.8932 31.3188 73.0338 31.5239 72.3795 31.9341C71.735 32.3345 71.4128 32.8911 71.4128 33.604C71.4128 34.3169 71.735 34.8784 72.3795 35.2886C73.0338 35.689 73.8932 35.8892 74.9577 35.8892C75.9831 35.8892 76.818 35.6841 77.4626 35.2739C78.1071 34.8638 78.4342 34.3071 78.444 33.604C78.4342 32.9009 78.1071 32.3442 77.4626 31.9341C76.818 31.5239 75.9831 31.3188 74.9577 31.3188ZM95.0846 54.9907H91.8034L98.6588 29.5903H101.911L95.0846 54.9907ZM112.428 36.3286C112.428 37.6567 112.673 38.98 113.161 40.2983C113.659 41.6167 114.382 42.8179 115.329 43.9019C116.276 44.9858 117.409 45.8403 118.727 46.4653L116.911 48.9263C115.514 48.272 114.298 47.3296 113.263 46.0991C112.238 44.8687 111.437 43.4575 110.861 41.8657C110.265 43.5845 109.421 45.103 108.327 46.4214C107.243 47.7397 105.964 48.731 104.489 49.395L102.702 46.8755C104.049 46.27 105.212 45.4058 106.188 44.2827C107.174 43.1597 107.922 41.9048 108.429 40.5181C108.947 39.1313 109.206 37.7349 109.206 36.3286V34.9517H103.551V32.3442H109.206V28.4771H112.458V32.3442H118.024V34.9517H112.428V36.3286ZM123.854 38.4087H127.926V41.1333H123.854V54.4048H120.602V27.9204H123.854V38.4087ZM139.059 34.2778C139.049 35.9087 139.318 37.4956 139.865 39.0386C140.412 40.5815 141.203 41.9536 142.238 43.1548C143.273 44.356 144.489 45.2544 145.885 45.8501L143.952 48.4575C142.458 47.7642 141.154 46.7534 140.041 45.4253C138.937 44.0972 138.073 42.5493 137.448 40.7817C136.823 42.6958 135.939 44.3755 134.797 45.8208C133.664 47.2563 132.311 48.3403 130.739 49.0728L128.747 46.3481C130.182 45.7329 131.427 44.8052 132.482 43.5649C133.547 42.3149 134.357 40.8843 134.914 39.2729C135.47 37.6519 135.749 35.9868 135.749 34.2778V30.0591H139.059V34.2778ZM151.071 54.4341H147.79V27.9204H151.071V54.4341ZM171.579 35.4497C171.579 36.8364 171.842 38.2329 172.37 39.6392C172.907 41.0454 173.673 42.3247 174.67 43.4771C175.675 44.6294 176.852 45.5181 178.2 46.1431L176.383 48.7212C174.928 48.0376 173.654 47.0366 172.56 45.7183C171.466 44.3901 170.612 42.8716 169.997 41.1626C169.382 43.0278 168.507 44.6831 167.375 46.1284C166.242 47.5737 164.928 48.6528 163.434 49.3657L161.53 46.8169C162.887 46.1724 164.079 45.2397 165.104 44.019C166.139 42.7983 166.93 41.436 167.477 39.9321C168.034 38.4282 168.317 36.9341 168.327 35.4497V33.2231H162.555V30.5278H177.116V33.2231H171.579V35.4497ZM182.829 38.2329H186.901V40.9575H182.829V54.4048H179.577V27.9204H182.829V38.2329ZM212.214 51.3286H188.014V48.6333H194.43V44.2681H190.885V35.6255H206.12V32.3735H190.827V29.7368H209.342V38.2329H194.137V41.6313H209.958V44.2681H206.09V48.6333H212.214V51.3286ZM202.897 48.6333V44.2681H197.594V48.6333H202.897Z" fill="#000543"/>
</g>
<defs>
<filter id="filter0_d_65_46957" x="0.344391" y="0.797363" width="252" height="88" filterUnits="userSpaceOnUse" color-interpolation-filters="sRGB">
<feFlood flood-opacity="0" result="BackgroundImageFix"/>
<feColorMatrix in="SourceAlpha" type="matrix" values="0 0 0 0 0 0 0 0 0 0 0 0 0 0 0 0 0 0 127 0" result="hardAlpha"/>
<feOffset dy="4"/>
<feGaussianBlur stdDeviation="2"/>
<feComposite in2="hardAlpha" operator="out"/>
<feColorMatrix type="matrix" values="0 0 0 0 0 0 0 0 0 0 0 0 0 0 0 0 0 0 0.05 0"/>
<feBlend mode="normal" in2="BackgroundImageFix" result="effect1_dropShadow_65_46957"/>
<feBlend mode="normal" in="SourceGraphic" in2="effect1_dropShadow_65_46957" result="shape"/>
</filter>
</defs>
</svg>
