<svg width="22" height="22" viewBox="0 0 22 22" fill="none" xmlns="http://www.w3.org/2000/svg">
<path d="M15.9715 14.0887H14.984L14.634 13.7512C16.134 12.0012 16.909 9.61367 16.484 7.07617C15.8965 3.60117 12.9965 0.826173 9.49648 0.401173C4.20898 -0.248827 -0.241015 4.20117 0.408985 9.48867C0.833985 12.9887 3.60899 15.8887 7.08399 16.4762C9.62149 16.9012 12.009 16.1262 13.759 14.6262L14.0965 14.9762V15.9637L19.409 21.2762C19.9215 21.7887 20.759 21.7887 21.2715 21.2762C21.784 20.7637 21.784 19.9262 21.2715 19.4137L15.9715 14.0887ZM8.47149 14.0887C5.35898 14.0887 2.84649 11.5762 2.84649 8.46367C2.84649 5.35117 5.35898 2.83867 8.47149 2.83867C11.584 2.83867 14.0965 5.35117 14.0965 8.46367C14.0965 11.5762 11.584 14.0887 8.47149 14.0887Z" fill="#3AC3A9"/>
</svg>
