<svg width="36" height="36" viewBox="0 0 36 36" fill="none" xmlns="http://www.w3.org/2000/svg">
<mask id="mask0_1631_2255" style="mask-type:alpha" maskUnits="userSpaceOnUse" x="0" y="0" width="36" height="36">
<rect width="36" height="36" fill="#D9D9D9"/>
</mask>
<g mask="url(#mask0_1631_2255)">
<path d="M15.285 24.5482C17.8643 24.5482 20.0529 23.6454 21.8509 21.8399C23.6491 20.0344 24.5483 17.8421 24.5483 15.2628C24.5483 12.6838 23.6475 10.4904 21.846 8.68269C20.0445 6.87494 17.857 5.97107 15.2835 5.97107C12.71 5.97107 10.5194 6.87382 8.71163 8.67932C6.90388 10.4848 6 12.6771 6 15.2561C6 17.8353 6.90275 20.0288 8.70825 21.8366C10.5135 23.6443 12.7057 24.5482 15.285 24.5482ZM15.2884 26.0482C12.3039 26.0482 9.75962 24.9962 7.65562 22.8922C5.55187 20.7884 4.5 18.2442 4.5 15.2594C4.5 12.2749 5.55187 9.7307 7.65562 7.6267C9.75962 5.52295 12.3039 4.47107 15.2884 4.47107C18.2731 4.47107 20.8126 5.52295 22.9069 7.6267C25.0011 9.7307 26.0483 12.2749 26.0483 15.2594C26.0483 16.6179 25.815 17.8974 25.3485 19.0979C24.8823 20.2987 24.2395 21.3731 23.4202 22.3211L30.9983 29.8991C31.1443 30.0401 31.2173 30.2076 31.2173 30.4016C31.2173 30.5953 31.1421 30.7749 30.9919 30.9404C30.8419 31.1057 30.6635 31.1883 30.4568 31.1883C30.2503 31.1883 30.0644 31.1057 29.8991 30.9404L22.35 23.3913C21.402 24.2298 20.3276 24.8822 19.1269 25.3484C17.9261 25.8149 16.6466 26.0482 15.2884 26.0482Z" fill="#FF914D"/>
</g>
</svg>
