<svg width="204" height="242" viewBox="0 0 204 242" fill="none" xmlns="http://www.w3.org/2000/svg">
<path d="M202.917 143.111C202.917 197.173 159.09 241 105.028 241C50.9649 241 7.13843 197.173 7.13843 143.111C7.13843 89.0481 50.9649 45.2217 105.028 45.2217C159.09 45.2217 202.917 89.0481 202.917 143.111Z" fill="white" stroke="#000543" stroke-width="2"/>
<circle cx="100.208" cy="135.162" r="98.2076" fill="white" stroke="#000543" stroke-width="4"/>
<circle cx="101.959" cy="136.832" r="64.469" fill="#FFE1DF" stroke="#000543" stroke-width="2" stroke-dasharray="2 2"/>
<path d="M136.653 160.832C135.103 160.832 133.94 159.747 133.901 158.08L133.436 139.398C133.397 137.576 134.832 136.22 136.653 136.22C138.475 136.22 139.948 137.576 139.831 139.398L139.366 158.08C139.405 159.747 138.204 160.832 136.653 160.832ZM132.894 166.723C132.894 164.746 134.521 163.157 136.653 163.157C138.824 163.157 140.452 164.746 140.452 166.723C140.452 168.7 138.785 170.25 136.653 170.25C134.521 170.25 132.894 168.7 132.894 166.723Z" fill="#000543"/>
<path d="M110.048 172.615C105.242 172.615 103.226 170.677 103.226 166.142V158.39C103.226 156.53 104.428 155.483 106.327 155.483H106.521C108.381 155.483 109.621 156.491 109.621 158.002V158.623H121.637V158.002C121.637 156.491 122.877 155.483 124.738 155.483H124.931C126.831 155.483 128.032 156.53 128.032 158.39V166.142C128.032 170.793 126.365 172.615 121.598 172.615H110.048ZM98.9626 145.251V140.057C98.9626 137.538 100.358 136.259 103.149 136.259H114.466C116.637 136.259 117.761 137.344 117.761 139.088C117.761 140.832 116.637 141.917 114.466 141.917H106.249C105.59 141.917 105.358 142.15 105.358 142.809V145.444C105.358 147.421 106.366 148.003 108.963 148.003C111.366 148.003 113.536 147.731 115.513 147.15C115.978 147.034 116.366 146.956 116.676 146.956C117.916 146.956 118.769 147.615 119.195 148.817C119.311 149.243 119.389 149.63 119.389 149.941C119.389 151.142 118.691 151.995 117.257 152.499C114.97 153.274 112.063 153.661 108.536 153.661C102.025 153.661 98.9626 151.258 98.9626 145.251ZM109.621 165.367C109.621 166.452 110.319 166.878 111.714 166.878H119.544C120.939 166.878 121.637 166.452 121.637 165.367V164.049H109.621V165.367ZM121.637 151.336V137.886C121.637 136.026 122.838 134.979 124.738 134.979H124.931C126.831 134.979 128.032 136.026 128.032 137.886V141.452H130.009C131.869 141.452 132.916 142.538 132.916 144.359C132.916 146.181 131.869 147.266 130.009 147.266H128.032V151.336C128.032 153.196 126.831 154.243 124.931 154.243H124.738C122.838 154.243 121.637 153.196 121.637 151.336Z" fill="#000543"/>
<path d="M65.807 168.738C63.6365 168.738 62.5125 167.692 62.5125 165.831C62.5125 163.971 63.6365 162.924 65.807 162.924H76.6596V156.956C71.0395 155.909 67.4349 151.994 67.4349 146.684C67.4349 140.638 72.2022 136.181 79.7603 136.181C87.3183 136.181 92.0857 140.638 92.0857 146.684C92.0857 151.917 88.5974 155.832 83.0548 156.917V162.924H93.7136C95.8841 162.924 97.0081 163.971 97.0081 165.831C97.0081 167.692 95.8841 168.738 93.7136 168.738H65.807ZM73.8301 146.684C73.8301 149.514 76.2332 151.491 79.7603 151.491C83.2874 151.491 85.6904 149.514 85.6904 146.684C85.6904 143.855 83.2874 141.917 79.7603 141.917C76.2332 141.917 73.8301 143.855 73.8301 146.684Z" fill="#000543"/>
<path d="M50.6006 185.741L45.5268 190.402L47.2921 192.324L45.2934 194.159L43.5281 192.238L36.3326 198.847L34.0589 196.371L48.3269 183.266L50.6006 185.741ZM45.5256 182.778L43.5422 184.599L39.6586 180.371L34.062 185.512C35.7162 187.266 37.292 188.781 39.1363 190.234L37.3469 192.359C34.9725 190.515 33.1046 188.574 30.9169 186.161L29.7871 184.931L39.3965 176.105L45.5256 182.778Z" fill="#000543"/>
<path d="M56.1626 195.258C54.1285 198.192 53.0364 201.745 55.1681 204.951L52.0446 206.076C50.8098 204.092 50.6019 201.938 51.0983 199.735C49.0737 201.195 46.8123 201.911 44.3256 201.423L44.2406 198C48.1269 198.864 51.191 196.459 53.3549 193.335L54.7584 191.286L57.5662 193.208L56.1626 195.258ZM65.2521 196.801L54.3066 212.786L51.5161 210.875L62.4615 194.89L65.2521 196.801Z" fill="#000543"/>
<path d="M82.7491 212.784L81.9475 215.29L76.8374 213.655L75.756 217.035L82.596 219.223L81.769 221.808L64.9672 216.433L65.7942 213.848L72.5944 216.024L73.6759 212.643L68.7447 211.066L71.7219 201.76L84.8054 205.946L84.0038 208.451L74.1216 205.29L72.7475 209.585L82.7491 212.784Z" fill="#000543"/>
<path d="M103.182 207.023L102.054 221.007L98.7241 220.738L99.253 214.183L96.6518 213.974L96.8667 211.31L99.4678 211.52L99.8523 206.755L103.182 207.023ZM102.285 223.329L102.07 225.993L88.6276 224.909L89.1228 218.77L92.4523 219.038L92.1719 222.514L102.285 223.329ZM97.868 207.726L97.6548 210.368L94.1381 210.085C94.0039 212.137 94.8606 214.499 97.9134 215.73L96.0979 218.243C94.0795 217.431 92.8068 216.072 92.1124 214.424C91.1182 216.103 89.5708 217.371 87.3105 217.87L85.8207 215.048C89.2082 214.337 90.473 212.03 90.7254 209.809L87.1879 209.524L87.4011 206.881L97.868 207.726Z" fill="#000543"/>
<path d="M113.861 208.786L114.248 211.388L105.224 212.729L104.837 210.127L107.769 209.691L107.447 207.523L110.689 207.041L111.011 209.209L113.861 208.786ZM109.873 212.629C112.354 212.281 114.395 213.941 114.797 216.646C115.205 219.392 113.738 221.594 111.26 221.962C108.803 222.328 106.697 220.657 106.289 217.91C105.887 215.205 107.419 213.015 109.873 212.629ZM110.281 215.375C109.452 215.477 109.01 216.197 109.201 217.477C109.394 218.778 110.02 219.297 110.846 219.175C111.651 219.055 112.099 218.376 111.906 217.075C111.716 215.795 111.084 215.235 110.281 215.375ZM121.123 204.963L123.962 224.064L120.823 224.53L119.503 215.651L118.595 215.786L119.804 223.922L116.706 224.382L114.027 206.355L117.125 205.895L118.208 213.184L119.117 213.049L117.984 205.429L121.123 204.963Z" fill="#000543"/>
<path d="M143.576 212.255L144.568 214.759L128.168 221.256L127.176 218.753L133.814 216.123L132.637 213.153L127.61 215.145L123.858 205.673L126.983 204.435L127.975 206.939L134.826 204.225L133.834 201.721L136.94 200.491L140.692 209.962L135.723 211.931L136.9 214.9L143.576 212.255ZM129.759 211.442L136.61 208.728L135.795 206.67L128.944 209.385L129.759 211.442Z" fill="#000543"/>
<path d="M146.13 199.111C147.938 201.719 150.112 204.048 153.377 203.994L153.365 207.127C151.627 207.24 150.064 206.634 148.634 205.58C149.17 207.508 149.213 209.383 148.462 211.085L145.383 210.197C146.754 206.935 145.393 203.763 143.549 201.104L141.801 198.582L144.477 196.726L146.13 199.111ZM152.111 189.528L163.114 205.397L160.49 207.217L149.487 191.348L152.111 189.528ZM148.897 192.036L159.293 207.031L156.737 208.803L151.313 200.98L149.666 202.122L148.131 199.908L149.778 198.766L146.341 193.808L148.897 192.036Z" fill="#000543"/>
<path d="M175.503 186.09L177.513 187.914L165.655 200.975L163.646 199.151L166.101 196.446L162.809 193.457C161.188 193.86 159.63 193.574 158.4 192.443C156.021 190.312 156.564 186.546 159.428 183.423C162.233 180.302 165.957 179.368 168.321 181.515C169.543 182.624 169.978 184.133 169.738 185.762L173.062 188.78L175.503 186.09ZM161.36 185.177C159.661 187.018 159.318 188.793 160.631 189.986C161.914 191.15 163.695 190.68 165.379 188.825C167.035 187.001 167.359 185.153 166.09 183.973C164.762 182.796 163 183.339 161.36 185.177ZM168.333 193.988L170.802 191.268L168.407 189.093C168.083 189.589 167.708 190.08 167.28 190.551C166.852 191.023 166.399 191.444 165.937 191.813L168.333 193.988Z" fill="#000543"/>
<g filter="url(#filter0_dd_3078_1784)">
<path d="M139.369 101.476C139.369 114.153 122.802 124.475 102.424 124.475C82.0451 124.475 65.4788 114.223 65.4788 101.476C65.4788 88.7993 82.0451 78.4775 102.424 78.4775C122.872 78.4775 139.369 88.7993 139.369 101.476Z" fill="#DCDCEA"/>
<path d="M161.896 75.3612C161.896 84.9902 154.064 92.8181 144.429 92.8181H58.8248C49.19 92.8181 41.3574 84.9902 41.3574 75.3612C41.3574 65.7322 49.19 57.9043 58.8248 57.9043H144.429C154.064 57.9043 161.896 65.7322 161.896 75.3612Z" fill="#A0A0C1"/>
<path d="M161.896 78.4774C161.896 88.1065 154.064 95.9344 144.429 95.9344H58.8248C49.19 95.9344 41.3574 88.1065 41.3574 78.4774C41.3574 68.8484 49.19 61.0205 58.8248 61.0205H144.429C154.064 61.0205 161.896 68.8484 161.896 78.4774Z" fill="#8080A2"/>
<path d="M104.503 6.01855H98.6809V35.5291H104.503V6.01855Z" fill="#8080A2"/>
<path d="M110.395 10.7977C110.395 15.6469 106.444 19.5955 101.592 19.5955C96.7398 19.5955 92.7888 15.6469 92.7888 10.7977C92.7888 5.94859 96.7398 2 101.592 2C106.444 2 110.395 5.94859 110.395 10.7977Z" fill="white"/>
<path d="M148.172 77.507C148.172 93.9941 134.794 107.364 118.297 107.364H84.8873C68.3903 107.364 55.0125 93.9941 55.0125 77.507V62.059C55.0125 45.5719 68.3903 32.2021 84.8873 32.2021H118.228C134.725 32.2021 148.103 45.5719 148.103 62.059V77.507H148.172Z" fill="#F4F4F4"/>
<path d="M148.172 83.4651C148.172 99.9522 134.794 113.322 118.297 113.322H84.8873C68.3903 113.322 55.0125 99.9522 55.0125 83.4651V68.0864C55.0125 51.5993 68.3903 38.2295 84.8873 38.2295H118.228C134.725 38.2295 148.103 51.5993 148.103 68.0864V83.4651H148.172Z" fill="white"/>
<path d="M138.676 83.0495C138.676 96.4193 127.447 107.226 113.584 107.226H89.5318C75.6687 107.226 64.4397 96.4193 64.4397 83.0495C64.4397 69.6797 75.6687 58.873 89.5318 58.873H113.584C127.447 58.873 138.676 69.749 138.676 83.0495Z" fill="#343E49"/>
<path d="M138.468 80.278C138.468 93.6478 127.239 104.454 113.376 104.454H89.3235C75.4605 104.454 64.2314 93.6478 64.2314 80.278C64.2314 66.9082 75.4605 56.1016 89.3235 56.1016H113.376C127.308 56.1016 138.468 66.9775 138.468 80.278Z" fill="#5D5D77"/>
<path d="M141.379 79.1704C141.24 64.4844 128.694 52.5693 113.376 52.5693H89.3234C73.8661 52.5693 61.2507 64.6229 61.2507 79.3782C61.2507 80.348 61.32 81.3178 61.4587 82.3569C61.5973 97.0429 74.1433 108.958 89.5313 108.958H113.584C129.041 108.958 141.656 96.9044 141.656 82.1491C141.587 81.1793 141.518 80.1402 141.379 79.1704ZM113.514 105.979H89.462C75.6683 105.979 64.4392 95.3111 64.3699 82.1491C64.2313 81.2486 64.162 80.2787 64.162 79.3782C64.162 66.2162 75.391 55.5481 89.2541 55.5481H113.306C127.1 55.5481 138.329 66.2162 138.398 79.3782C138.537 80.2787 138.606 81.2486 138.606 82.1491C138.606 95.3111 127.377 105.979 113.514 105.979Z" fill="#7171C9"/>
<path d="M141.379 80.1401C141.241 65.4541 128.695 53.5391 113.307 53.5391H89.2545C73.7972 53.5391 61.1819 65.5927 61.1819 80.3479C61.1819 81.3177 61.2512 82.2876 61.3898 83.3267C61.5285 98.0127 74.0745 109.928 89.4625 109.928H113.515C128.972 109.928 141.587 97.8741 141.587 83.1188C141.587 82.149 141.518 81.1099 141.379 80.1401ZM113.515 106.949H89.4625C75.6687 106.949 64.4397 96.2808 64.3704 83.1188C64.2317 82.2183 64.1624 81.2485 64.1624 80.3479C64.1624 67.1859 75.3915 56.5178 89.2545 56.5178H113.307C127.101 56.5178 138.33 67.1859 138.399 80.3479C138.538 81.2485 138.607 82.2183 138.607 83.1188C138.607 96.2808 127.378 106.949 113.515 106.949Z" fill="#9D9AFF"/>
<path d="M141.379 80.1401C141.241 65.4541 128.695 53.5391 113.307 53.5391H89.2545C73.7972 53.5391 61.1819 65.5927 61.1819 80.3479C61.1819 81.3177 61.2512 82.2876 61.3898 83.3267C61.5285 98.0127 74.0745 109.928 89.4625 109.928H113.515C128.972 109.928 141.587 97.8741 141.587 83.1188C141.587 82.149 141.518 81.1099 141.379 80.1401ZM113.515 106.949H89.4625C75.6687 106.949 64.4397 96.2808 64.3704 83.1188C64.2317 82.2183 64.1624 81.2485 64.1624 80.3479C64.1624 67.1859 75.3915 56.5178 89.2545 56.5178H113.307C127.101 56.5178 138.33 67.1859 138.399 80.3479C138.538 81.2485 138.607 82.2183 138.607 83.1188C138.607 96.2808 127.378 106.949 113.515 106.949Z" fill="#FF52AF"/>
<path d="M92.0264 92.1348C100.201 92.1348 112.96 92.1348 112.96 92.1348" stroke="#FF52AF" stroke-width="3" stroke-miterlimit="10" stroke-linecap="round" stroke-linejoin="round"/>
<path d="M83.5528 83.5208L83.5528 83.5209L83.5557 83.5166L86.4038 79.3009L89.2274 83.5093C89.5578 84.031 90.0821 84.2754 90.7046 84.2754H93.6083C93.8874 84.2754 94.2954 84.227 94.5265 83.9016C94.648 83.7475 94.7003 83.559 94.6794 83.3654C94.6596 83.1815 94.5776 83.0236 94.4924 82.9003L94.4916 82.8992L89.7136 76.0225L94.4699 69.0625C94.4701 69.0622 94.4704 69.0618 94.4707 69.0614C94.5555 68.9383 94.6371 68.7808 94.6569 68.5974C94.6778 68.4038 94.6255 68.2154 94.5041 68.0613C94.2729 67.7359 93.865 67.6875 93.5858 67.6875H90.6821C90.0589 67.6875 89.534 67.9325 89.2038 68.4555L86.4038 72.7031L83.5805 68.4497L83.5805 68.4496L83.5753 68.442C83.417 68.2129 83.2198 68.0246 82.981 67.8905C82.7196 67.7438 82.4182 67.6875 82.1059 67.6875H79.2022C78.8998 67.6875 78.5076 67.7451 78.2672 68.0545L78.2615 68.0617L78.2561 68.0692C77.9867 68.4436 78.1659 68.8422 78.3181 69.0625L78.3181 69.0625L78.3191 69.0639L83.1609 76.0225L78.2988 82.8958L78.2988 82.8957L78.2956 82.9003C78.1434 83.1207 77.9642 83.5192 78.2336 83.8936L78.239 83.9011L78.2447 83.9084C78.4851 84.2178 78.8773 84.2754 79.1797 84.2754H82.0834C82.3956 84.2754 82.6971 84.2191 82.9585 84.0723L82.7137 83.6363L82.9585 84.0723C83.1973 83.9382 83.3945 83.7499 83.5528 83.5208Z" fill="#FF52AF" stroke="#000543"/>
<path d="M113.615 83.5208L113.615 83.5209L113.618 83.5166L116.466 79.3009L119.29 83.5093C119.62 84.031 120.144 84.2754 120.767 84.2754H123.671C123.95 84.2754 124.358 84.227 124.589 83.9016C124.71 83.7475 124.763 83.559 124.742 83.3654C124.722 83.1815 124.64 83.0236 124.555 82.9003L124.554 82.8992L119.776 76.0225L124.532 69.0625C124.532 69.0622 124.533 69.0618 124.533 69.0614C124.618 68.9383 124.699 68.7808 124.719 68.5974C124.74 68.4038 124.688 68.2154 124.566 68.0613C124.335 67.7359 123.927 67.6875 123.648 67.6875H120.744C120.121 67.6875 119.596 67.9325 119.266 68.4555L116.466 72.7031L113.643 68.4497L113.643 68.4496L113.638 68.442C113.479 68.2129 113.282 68.0246 113.043 67.8905C112.782 67.7438 112.48 67.6875 112.168 67.6875H109.264C108.962 67.6875 108.57 67.7451 108.329 68.0545L108.324 68.0617L108.318 68.0692C108.049 68.4436 108.228 68.8422 108.38 69.0625L108.38 69.0625L108.381 69.0639L113.223 76.0225L108.361 82.8958L108.361 82.8957L108.358 82.9003C108.206 83.1207 108.026 83.5192 108.296 83.8936L108.301 83.9011L108.307 83.9084C108.547 84.2178 108.94 84.2754 109.242 84.2754H112.146C112.458 84.2754 112.759 84.2191 113.021 84.0723L112.776 83.6363L113.021 84.0723C113.26 83.9382 113.457 83.7499 113.615 83.5208Z" fill="#FF52AF" stroke="#000543"/>
</g>
<defs>
<filter id="filter0_dd_3078_1784" x="39.3574" y="0" width="124.539" height="126.476" filterUnits="userSpaceOnUse" color-interpolation-filters="sRGB">
<feFlood flood-opacity="0" result="BackgroundImageFix"/>
<feColorMatrix in="SourceAlpha" type="matrix" values="0 0 0 0 0 0 0 0 0 0 0 0 0 0 0 0 0 0 127 0" result="hardAlpha"/>
<feOffset/>
<feGaussianBlur stdDeviation="1"/>
<feComposite in2="hardAlpha" operator="out"/>
<feColorMatrix type="matrix" values="0 0 0 0 0 0 0 0 0 0 0 0 0 0 0 0 0 0 1 0"/>
<feBlend mode="normal" in2="BackgroundImageFix" result="effect1_dropShadow_3078_1784"/>
<feColorMatrix in="SourceAlpha" type="matrix" values="0 0 0 0 0 0 0 0 0 0 0 0 0 0 0 0 0 0 127 0" result="hardAlpha"/>
<feOffset/>
<feGaussianBlur stdDeviation="1"/>
<feComposite in2="hardAlpha" operator="out"/>
<feColorMatrix type="matrix" values="0 0 0 0 0 0 0 0 0 0 0 0 0 0 0 0 0 0 1 0"/>
<feBlend mode="normal" in2="effect1_dropShadow_3078_1784" result="effect2_dropShadow_3078_1784"/>
<feBlend mode="normal" in="SourceGraphic" in2="effect2_dropShadow_3078_1784" result="shape"/>
</filter>
</defs>
</svg>
