<svg width="68" height="74" viewBox="0 0 68 74" fill="none" xmlns="http://www.w3.org/2000/svg">
<path d="M45.6099 59.6581L28.4978 23.8506V72.364L45.6099 59.6581Z" fill="white"/>
<path d="M45.6099 59.6581L28.4978 23.8506L66.9999 56.1928L45.6099 59.6581Z" fill="#E5E2F3"/>
<path d="M28.4978 23.8506V72.364L45.6099 59.6581L66.9999 56.1928L28.4978 23.8506Z" stroke="#000543" stroke-width="0.8379" stroke-miterlimit="10"/>
<path d="M13.8304 25.7751H4.45951C3.23722 25.7751 2.42236 25.005 2.42236 23.8499C2.42236 22.6949 3.23722 21.9248 4.45951 21.9248H13.8304C15.0527 21.9248 15.8675 22.6949 15.8675 23.8499C15.8675 24.8125 15.0527 25.7751 13.8304 25.7751Z" fill="#DAF143"/>
<path d="M52.5362 25.7751H43.1653C41.943 25.7751 41.1282 25.005 41.1282 23.8499C41.1282 22.6949 41.943 21.9248 43.1653 21.9248H52.5362C53.7585 21.9248 54.5733 22.6949 54.5733 23.8499C54.5733 24.8125 53.7585 25.7751 52.5362 25.7751Z" fill="#DAF143"/>
<path d="M16.4787 45.4122C16.0712 45.4122 15.8675 45.4122 15.4601 45.2197C14.4415 44.6422 14.2378 43.4871 14.6452 42.5245L19.3307 35.0165C19.9418 34.054 21.1641 33.8614 22.1827 34.2465C23.2013 34.824 23.405 35.9791 22.9975 36.9417L18.3121 44.4497C17.9046 45.0272 17.2935 45.4122 16.4787 45.4122Z" fill="#DAF143"/>
<path d="M36.0353 13.6476C35.6279 13.6476 35.4242 13.6476 35.0167 13.4551C33.9982 12.8775 33.7944 11.7225 34.2019 10.7599L38.8873 3.25187C39.4984 2.2893 40.7207 2.09679 41.7393 2.48182C42.7579 3.05936 42.9616 4.21444 42.5542 5.177L37.8687 12.685C37.2576 13.2626 36.6465 13.6476 36.0353 13.6476Z" fill="#DAF143"/>
<path d="M21.1642 13.6471C20.553 13.6471 19.7382 13.2621 19.3307 12.6845L14.6453 5.1765C14.0342 4.21394 14.4416 3.05886 15.4602 2.48132C16.4787 1.90378 17.701 2.2888 18.3122 3.25137L22.9976 10.7594C23.6087 11.722 23.2013 12.877 22.1828 13.4546C21.979 13.6471 21.5716 13.6471 21.1642 13.6471Z" fill="#DAF143"/>
<path d="M13.8303 21.9261C15.0526 21.9261 15.8675 22.6962 15.8675 23.8512C15.8675 25.0063 15.0526 25.7764 13.8303 25.7764H4.45945C3.23716 25.7764 2.4223 25.0063 2.4223 23.8512C2.4223 22.6962 3.23716 21.9261 4.45945 21.9261H13.8303ZM13.8303 20.001H4.45945C2.21859 20.001 0.588867 21.7336 0.588867 23.6587C0.588867 25.5839 2.4223 27.3165 4.45945 27.3165H13.8303C16.0712 27.3165 17.7009 25.5839 17.7009 23.6587C17.7009 21.7336 16.0712 20.001 13.8303 20.001Z" fill="#000543"/>
<path d="M52.5361 21.9261C53.7584 21.9261 54.5733 22.6962 54.5733 23.8512C54.5733 25.0063 53.7584 25.7764 52.5361 25.7764H43.1653C41.943 25.7764 41.1281 25.0063 41.1281 23.8512C41.1281 22.6962 41.943 21.9261 43.1653 21.9261H52.5361ZM52.5361 20.001H43.1653C40.9244 20.001 39.2947 21.7336 39.2947 23.6587C39.2947 25.5839 41.1281 27.3165 43.1653 27.3165H52.5361C54.777 27.3165 56.4067 25.5839 56.4067 23.6587C56.4067 21.7336 54.777 20.001 52.5361 20.001Z" fill="#000543"/>
<path d="M21.1639 33.8606C21.5714 33.8606 21.7751 33.8605 22.1825 34.0531C23.2011 34.6306 23.4048 35.7857 22.9974 36.7483L18.3119 44.2563C17.9045 44.8338 17.2933 45.2188 16.4785 45.2188C16.0711 45.2188 15.8673 45.2188 15.4599 45.0263C14.4413 44.4488 14.2376 43.2937 14.645 42.3311L19.3305 34.8231C19.7379 34.2456 20.5528 33.8606 21.1639 33.8606ZM21.1639 32.1279C19.7379 32.1279 18.5156 32.898 17.7008 34.0531L13.0153 41.5611C11.9968 43.2937 12.6079 45.6039 14.4413 46.7589C15.0525 47.144 15.6636 47.3365 16.4785 47.3365C17.9045 47.3365 19.1268 46.5664 19.9416 45.4114L24.6271 37.9033C25.6456 36.1707 25.0345 33.8606 23.2011 32.7055C22.5899 32.3204 21.9788 32.1279 21.1639 32.1279Z" fill="#000543"/>
<path d="M40.517 2.28939C40.9244 2.28939 41.1281 2.28939 41.5355 2.4819C42.5541 3.05944 42.7578 4.21452 42.3504 5.17709L37.6649 12.6851C37.2575 13.2627 36.6464 13.6477 35.8315 13.6477C35.4241 13.6477 35.2204 13.6477 34.8129 13.4552C33.7944 12.8776 33.5907 11.7225 33.9981 10.76L38.6835 3.25196C39.2947 2.4819 39.9058 2.28939 40.517 2.28939ZM40.517 0.364258C39.091 0.364258 37.8687 1.13431 37.0538 2.28939L32.3684 9.79741C31.3498 11.53 31.9609 13.8402 33.7944 14.9953C34.4055 15.3803 35.0167 15.5728 35.8315 15.5728C37.2575 15.5728 38.4798 14.8028 39.2947 13.6477L43.9801 6.13966C44.9987 4.40704 44.3875 2.09688 42.5541 0.941797C41.943 0.556771 41.3318 0.364258 40.517 0.364258Z" fill="#000543"/>
<path d="M16.4785 2.28939C17.0896 2.28939 17.9045 2.67442 18.3119 3.25196L22.9974 10.76C23.6085 11.7225 23.2011 12.8776 22.1825 13.4552C21.7751 13.6477 21.5714 13.6477 21.1639 13.6477C20.5528 13.6477 19.7379 13.2627 19.3305 12.6851L14.645 5.17709C14.0339 4.21452 14.4413 3.05944 15.4599 2.4819C15.8673 2.28939 16.2748 2.28939 16.4785 2.28939ZM16.4785 0.364258C15.8673 0.364258 15.0525 0.556771 14.4413 0.941797C12.6079 1.90436 11.9968 4.21452 13.0153 6.13966L17.7008 13.6477C18.3119 14.8028 19.7379 15.5728 21.1639 15.5728C21.7751 15.5728 22.5899 15.3803 23.2011 14.9953C25.0345 14.0327 25.6456 11.7225 24.6271 9.79741L19.9416 2.28939C19.3305 1.13431 17.9045 0.364258 16.4785 0.364258Z" fill="#000543"/>
</svg>
