<svg width="132" height="100" viewBox="0 0 132 100" fill="none" xmlns="http://www.w3.org/2000/svg">
<path d="M50.5652 100C78.1794 100 100.565 77.6142 100.565 50C100.565 22.3858 78.1794 0 50.5652 0C22.951 0 0.565186 22.3858 0.565186 50C0.565186 77.6142 22.951 100 50.5652 100Z" fill="#C4CEFF"/>
<mask id="mask0_3064_62" style="mask-type:alpha" maskUnits="userSpaceOnUse" x="0" y="0" width="100" height="99">
<path d="M49.9593 98.7883C77.239 98.7883 99.3535 76.6738 99.3535 49.3942C99.3535 22.1145 77.239 0 49.9593 0C22.6797 0 0.565186 22.1145 0.565186 49.3942C0.565186 76.6738 22.6797 98.7883 49.9593 98.7883Z" fill="#C4CEFF"/>
</mask>
<g mask="url(#mask0_3064_62)">
<path d="M37.0245 92.6084C37.0245 92.6084 19.1644 102.746 37.0245 118.949C37.0245 118.949 56.0405 104.768 37.0245 92.6084Z" fill="url(#paint0_linear_3064_62)"/>
<path d="M37.1111 94.918C37.1111 94.918 26.3604 101.012 37.1111 110.774C37.1111 110.774 48.5554 102.254 37.1111 94.918Z" fill="url(#paint1_linear_3064_62)"/>
<path d="M56.85 71.6691C56.85 85.8215 47.8621 101.505 37.2848 101.505C26.7364 101.505 17.7197 85.8504 17.7197 71.6691C17.7197 57.5168 26.7075 50.1807 37.2848 50.1807C47.8332 50.1807 56.85 57.4879 56.85 71.6691Z" fill="url(#paint2_linear_3064_62)"/>
<path d="M19.887 84.1755C19.887 84.1755 24.3086 82.6447 25.4068 76.2617C25.4068 76.2617 35.3772 78.6878 50.2606 76.2617C50.2606 76.2617 50.8097 82.6158 54.6822 84.1755C54.6822 84.1755 50.8386 83.2224 49.9716 76.7816C49.9716 76.7816 37.8915 79.6987 25.8403 76.8394C25.8114 76.8682 24.9444 82.4714 19.887 84.1755Z" fill="#8080A2"/>
<path d="M21.2576 72.0121C18.5275 73.2521 15.2638 72.0621 14.0246 69.3045C12.7838 66.5758 13.9743 63.3141 16.7333 62.0757C19.4635 60.8358 22.7271 62.0258 23.9663 64.7833C25.2055 67.5409 24.0167 70.7738 21.2576 72.0121Z" fill="#8080A2"/>
<path d="M29.6646 76.5493C28.5091 78.1063 26.2089 78.3572 24.5403 77.1094L19.7012 73.4907C18.0325 72.2429 17.6066 69.9635 18.7622 68.4065C19.9178 66.8495 22.2179 66.5986 23.8865 67.8464L28.7257 71.4651C30.4232 72.7145 30.8491 74.9939 29.6646 76.5493Z" fill="white"/>
<path d="M29.3005 78.9872C26.9261 80.0729 24.1467 79.025 23.0891 76.6534C22.0026 74.2801 23.051 71.5024 25.4239 70.4455C27.7983 69.3598 30.5777 70.4077 31.6353 72.7794C32.7233 75.1237 31.675 77.9015 29.3005 78.9872Z" fill="#8080A2"/>
<path d="M38.7714 73.5438C38.9659 75.29 37.6356 76.8664 35.7715 77.0832L30.3811 77.7445C28.517 77.9613 26.8468 76.7423 26.6219 75.0234C26.3987 73.2757 27.7578 71.7008 29.6219 71.484L35.0123 70.8227C36.9052 70.6075 38.5754 71.8265 38.7714 73.5438Z" fill="white"/>
<path d="M57.51 71.3425C54.8512 72.7288 51.5277 71.718 50.1405 69.0319C48.7533 66.3747 49.7648 63.0532 52.4525 61.6669C55.1113 60.2805 58.4348 61.2914 59.822 63.9775C61.2092 66.6635 60.1977 69.9561 57.51 71.3425Z" fill="#8080A2"/>
<path d="M66.1515 75.4154C65.0822 77.0328 62.7991 77.4083 61.0651 76.253L56.0364 72.9026C54.3024 71.7473 53.7533 69.4945 54.8226 67.8771C55.8919 66.2597 58.1751 65.8842 59.9091 67.0395L64.9377 70.3898C66.7006 71.5451 67.2497 73.798 66.1515 75.4154Z" fill="white"/>
<path d="M65.92 77.8701C63.608 79.0832 60.7758 78.1878 59.5909 75.8772C58.3771 73.5666 59.273 70.7362 61.585 69.552C63.897 68.3389 66.7292 69.2343 67.9141 71.5449C69.1279 73.8266 68.232 76.657 65.92 77.8701Z" fill="#8080A2"/>
<path d="M75.0813 71.9189C75.3703 73.6519 74.1276 75.2982 72.278 75.6159L66.9315 76.569C65.0819 76.8867 63.3479 75.7603 63.03 74.0562C62.7121 72.3233 63.9837 70.677 65.8333 70.3593L71.1798 69.4062C73.0583 69.0885 74.7923 70.2149 75.0813 71.9189Z" fill="white"/>
<path d="M78.1159 74.0283C76.5264 75.7612 73.8387 75.8767 72.1047 74.3171C70.3707 72.7286 70.2551 70.0425 71.8157 68.3096C73.4052 66.5766 76.0929 66.4611 77.8269 68.0207C79.5609 69.6093 79.7054 72.2953 78.1159 74.0283Z" fill="#8080A2"/>
<path d="M80.6015 62.2452C81.0928 62.5917 81.1795 63.3716 80.746 63.9781L80.3414 64.5557L84.3007 63.1405C84.8209 62.9672 85.37 63.2272 85.5723 63.747C85.7457 64.2669 85.4856 64.8157 84.9654 65.0179L82.9713 65.711C83.058 65.7688 83.1158 65.8554 83.2025 65.9132L86.5838 64.7002C87.104 64.5269 87.6531 64.7868 87.8554 65.3067C88.0288 65.8266 87.7687 66.3753 87.2485 66.5775L84.214 67.6462C84.214 67.675 84.2429 67.7039 84.2429 67.7328L87.393 66.6064C87.9132 66.4331 88.4623 66.693 88.6646 67.2129C88.838 67.7328 88.5779 68.2816 88.0577 68.4837L84.2429 69.8412C84.2429 69.8701 84.214 69.9279 84.214 69.9567L85.9769 69.2924C86.4971 69.1192 87.0173 69.2924 87.1907 69.7257C87.3352 70.1589 87.0462 70.621 86.526 70.8232L82.0176 72.4117C81.9887 72.4406 81.9309 72.4406 81.8731 72.4406C81.8153 72.4695 81.7286 72.4984 81.6708 72.5273L79.59 73.2782C78.3762 73.7115 77.1335 73.5093 76.122 72.9027C75.833 72.7006 73.8967 71.3431 74.2435 69.1192C74.388 67.6173 75.3706 66.2598 76.9023 65.711L76.989 65.6822C77.0179 65.5089 77.1046 65.3067 77.2202 65.1334L78.8964 62.7362C79.3588 62.1007 80.1102 61.8986 80.6015 62.2452Z" fill="white"/>
<path d="M52.6592 55.3214C52.6592 60.6068 45.7521 64.9103 37.2556 64.9103C28.7591 64.9103 21.8521 60.6357 21.8521 55.3214C21.8521 50.0359 28.7591 45.7324 37.2556 45.7324C45.781 45.7324 52.6592 50.0359 52.6592 55.3214Z" fill="#DCDCEA"/>
<path d="M62.0517 44.4317C62.0517 48.4463 58.786 51.71 54.7689 51.71H19.0778C15.0607 51.71 11.795 48.4463 11.795 44.4317C11.795 40.417 15.0607 37.1533 19.0778 37.1533H54.7689C58.786 37.1533 62.0517 40.417 62.0517 44.4317Z" fill="#A0A0C1"/>
<path d="M62.0517 45.7315C62.0517 49.7461 58.786 53.0098 54.7689 53.0098H19.0778C15.0607 53.0098 11.795 49.7461 11.795 45.7315C11.795 41.7168 15.0607 38.4531 19.0778 38.4531H54.7689C58.786 38.4531 62.0517 41.7168 62.0517 45.7315Z" fill="#8080A2"/>
<path d="M38.1228 15.5225H35.6952V27.8263H38.1228V15.5225Z" fill="#8080A2"/>
<path d="M40.5793 17.5138C40.5793 19.5355 38.932 21.1818 36.909 21.1818C34.8861 21.1818 33.2388 19.5355 33.2388 17.5138C33.2388 15.492 34.8861 13.8457 36.909 13.8457C38.932 13.8457 40.5793 15.492 40.5793 17.5138Z" fill="white"/>
<path d="M56.3296 45.3285C56.3296 52.2025 50.752 57.7768 43.8739 57.7768H29.9442C23.0661 57.7768 17.4884 52.2025 17.4884 45.3285V38.8878C17.4884 32.0137 23.0661 26.4395 29.9442 26.4395H43.845C50.7231 26.4395 56.3007 32.0137 56.3007 38.8878V45.3285H56.3296Z" fill="#F4F4F4"/>
<path d="M56.3296 47.8114C56.3296 54.6854 50.752 60.2597 43.8739 60.2597H29.9442C23.0661 60.2597 17.4884 54.6854 17.4884 47.8114V41.3995C17.4884 34.5255 23.0661 28.9512 29.9442 28.9512H43.845C50.7231 28.9512 56.3007 34.5255 56.3007 41.3995V47.8114H56.3296Z" fill="white"/>
<path d="M52.3702 47.6385C52.3702 53.2128 47.6884 57.7185 41.9085 57.7185H31.8803C26.1003 57.7185 21.4186 53.2128 21.4186 47.6385C21.4186 42.0642 26.1003 37.5586 31.8803 37.5586H41.9085C47.6884 37.5586 52.3702 42.0931 52.3702 47.6385Z" fill="#343E49"/>
<path d="M52.2835 46.4823C52.2835 52.0566 47.6018 56.5622 41.8218 56.5622H31.7936C26.0137 56.5622 21.3319 52.0566 21.3319 46.4823C21.3319 40.908 26.0137 36.4023 31.7936 36.4023H41.8218C47.6307 36.4023 52.2835 40.9369 52.2835 46.4823Z" fill="#5D5D77"/>
<path d="M31.3315 47.0053C31.3315 47.9295 30.6668 48.6804 29.8287 48.6804C28.9906 48.6804 28.3259 47.9295 28.3259 47.0053C28.3259 46.081 28.9906 45.3301 29.8287 45.3301C30.6379 45.3301 31.3315 46.081 31.3315 47.0053Z" fill="#B3B3FF"/>
<path d="M46.2436 47.0053C46.2436 47.9295 45.5789 48.6804 44.7408 48.6804C43.9027 48.6804 43.238 47.9295 43.238 47.0053C43.238 46.081 43.9027 45.3301 44.7408 45.3301C45.5789 45.3301 46.2436 46.081 46.2436 47.0053Z" fill="#B3B3FF"/>
<path d="M32.9208 50.498C32.9208 50.498 36.9956 54.3105 41.6485 50.498" stroke="#B3B3FF" stroke-miterlimit="10" stroke-linecap="round" stroke-linejoin="round"/>
<path d="M49.4515 75.5404C49.4515 75.7137 49.307 75.8581 49.1336 75.8581C48.9602 75.8581 48.8157 75.7137 48.8157 75.5404C48.8157 75.3671 48.9602 75.2227 49.1336 75.2227C49.307 75.2227 49.4515 75.3671 49.4515 75.5404Z" fill="#8080A2"/>
<path d="M49.4515 78.2835C49.4515 78.4568 49.307 78.6012 49.1336 78.6012C48.9602 78.6012 48.8157 78.4568 48.8157 78.2835C48.8157 78.1102 48.9602 77.9658 49.1336 77.9658C49.307 77.9947 49.4515 78.1102 49.4515 78.2835Z" fill="#8080A2"/>
<path d="M53.4976 46.0205C53.4398 39.8975 48.2089 34.9297 41.8221 34.9297H31.7939C25.3492 34.9297 20.0895 39.9552 20.0895 46.1072C20.0895 46.5115 20.1184 46.9159 20.1762 47.3491C20.234 53.4722 25.4648 58.4399 31.8806 58.4399H41.9088C48.3534 58.4399 53.6132 53.4144 53.6132 47.2625C53.5843 46.8581 53.5554 46.4249 53.4976 46.0205ZM41.8799 57.198H31.8517C26.1006 57.198 21.4189 52.7501 21.39 47.2625C21.3322 46.887 21.3033 46.4826 21.3033 46.1072C21.3033 40.6195 25.985 36.1716 31.765 36.1716H41.7932C47.5442 36.1716 52.226 40.6195 52.2549 46.1072C52.3127 46.4826 52.3416 46.887 52.3416 47.2625C52.3416 52.7501 47.6598 57.198 41.8799 57.198Z" fill="#7171C9"/>
<path d="M53.4974 46.4258C53.4396 40.3027 48.2088 35.335 41.793 35.335H31.7648C25.3202 35.335 20.0604 40.3605 20.0604 46.5124C20.0604 46.9168 20.0893 47.3211 20.1471 47.7544C20.2049 53.8774 25.4358 58.8452 31.8515 58.8452H41.8797C48.3244 58.8452 53.5841 53.8197 53.5841 47.6677C53.5841 47.2634 53.5552 46.8301 53.4974 46.4258ZM41.8797 57.6033H31.8515C26.1005 57.6033 21.4187 53.1554 21.3898 47.6677C21.332 47.2923 21.3031 46.8879 21.3031 46.5124C21.3031 41.0248 25.9849 36.5769 31.7648 36.5769H41.793C47.5441 36.5769 52.2258 41.0248 52.2547 46.5124C52.3125 46.8879 52.3414 47.2923 52.3414 47.6677C52.3414 53.1554 47.6597 57.6033 41.8797 57.6033Z" fill="#9D9AFF"/>
<path d="M41.7085 70.2232C41.7085 72.3374 39.9981 74.0479 37.8838 74.0479C35.7696 74.0479 34.0647 72.3318 34.0647 70.2232C34.0647 68.1089 35.7752 66.3984 37.8894 66.3984C40.0037 66.3984 41.7085 68.1089 41.7085 70.2232Z" fill="#ACACD9"/>
<path d="M37.8332 69.8121C37.6257 69.8121 37.4686 69.6438 37.4686 69.4307V68.5278C37.4686 68.3203 37.6257 68.1465 37.8332 68.1465C38.0407 68.1465 38.1977 68.3147 38.1977 68.5278V69.4363C38.1977 69.6438 38.0407 69.8121 37.8332 69.8121Z" fill="#D3DCF3"/>
<path d="M37.8894 72.235C36.7678 72.235 35.8536 71.3209 35.8536 70.1993C35.8536 69.7394 36.0163 69.2908 36.3023 68.9262C36.4313 68.7636 36.6724 68.7356 36.8351 68.8702C36.9977 68.9991 37.0257 69.2403 36.8911 69.4029C36.7061 69.6385 36.6051 69.9133 36.6051 70.2049C36.6051 70.9115 37.1772 71.4835 37.8838 71.4835C38.5904 71.4779 39.168 70.9003 39.168 70.1993C39.168 69.9077 39.0727 69.6272 38.8876 69.3973C38.7586 69.2347 38.7811 68.9935 38.9437 68.8645C39.1063 68.7356 39.3475 68.758 39.4765 68.9206C39.7681 69.2795 39.9251 69.7338 39.9251 70.1937C39.9251 71.3209 39.011 72.235 37.8894 72.235Z" fill="#D3DCF3"/>
<g filter="url(#filter0_d_3064_62)">
<path d="M40.4101 75.1416C40.4601 76.0911 40.2103 76.9906 39.7106 77.7903C38.911 79.1396 37.4119 80.0891 35.713 80.1391C34.3138 80.1891 33.0646 79.6393 32.1651 78.7398C31.3156 77.8902 30.766 76.7408 30.716 75.4414C30.666 73.2925 31.9652 71.4434 33.8641 70.7437C34.3138 70.5938 34.8635 70.4439 35.3632 70.4439C36.6624 70.3939 37.9116 70.8936 38.8111 71.6932C39.7605 72.5928 40.3602 73.7922 40.4101 75.1416Z" fill="#8080A2"/>
<path d="M42.8064 78.9648C42.2745 78.9648 41.7427 78.7521 41.4236 78.2734L39.9344 76.3055C39.9344 76.3055 39.9344 76.3055 39.8812 76.3055L36.2541 76.5183C35.35 76.5714 34.5522 75.8268 34.499 74.9227C34.4458 74.0185 35.1904 73.2207 36.0946 73.1676L39.7216 72.9548C40.8385 72.9016 41.9022 73.4335 42.5405 74.3376L44.0297 76.3055C44.5615 77.0501 44.402 78.1138 43.7105 78.6457C43.4446 78.8584 43.1255 78.9648 42.8064 78.9648Z" fill="white"/>
<path d="M47.0082 78.5937C46.4764 78.5937 45.9445 78.381 45.6254 77.9023L44.1362 75.9344C44.1362 75.9344 44.1362 75.9344 44.083 75.9344L37.222 76.1472C36.3179 76.2004 35.5201 75.4558 35.4669 74.5516C35.4137 73.6474 36.1583 72.8497 37.0625 72.7965L43.9234 72.5837C45.0403 72.5305 46.1041 73.0624 46.7423 73.9666L48.2315 75.9344C48.7633 76.679 48.6038 77.7427 47.9124 78.2746C47.6464 78.4873 47.3273 78.5937 47.0082 78.5937Z" fill="white"/>
<path d="M49.6675 78.3789C49.1357 78.3789 48.6038 78.1661 48.2847 77.6874L46.7955 75.7196C46.7955 75.7196 46.7955 75.7196 46.7423 75.7196L39.8813 75.9323C38.9772 75.9855 38.1794 75.2409 38.1262 74.3367C38.073 73.4326 38.8176 72.6348 39.7218 72.5816L46.5827 72.3689C47.6996 72.3157 48.7634 72.8476 49.4016 73.7517L50.8908 75.7196C51.4226 76.4642 51.2631 77.5279 50.5717 78.0597C50.3057 78.2725 49.9866 78.3789 49.6675 78.3789Z" fill="white"/>
<path d="M51.795 78.3271C51.2631 78.3271 50.7312 78.1144 50.4121 77.6357L48.9229 75.6678C48.9229 75.6678 48.9229 75.6678 48.8697 75.6678L42.0088 75.8806C41.1046 75.9338 40.3068 75.1892 40.2537 74.285C40.2005 73.3808 40.9451 72.5831 41.8492 72.5299L48.7102 72.3171C49.8271 72.2639 50.8908 72.7958 51.529 73.7L53.0182 75.6678C53.5501 76.4124 53.3905 77.4761 52.6991 78.008C52.4332 78.2207 52.1141 78.3271 51.795 78.3271Z" fill="white"/>
</g>
</g>
<path d="M88.2575 83.0771C79.1359 93.231 66.1873 99.6779 51.771 100C51.3516 100 50.9846 100 50.5652 100C35.677 100 22.2567 93.4996 12.8729 83.0771H88.2575Z" fill="#CCD0DE"/>
<path d="M88.0279 82.9891H55.1107L62.1443 62.9333C62.3855 62.2098 63.0687 61.7275 63.8324 61.7275H94.4184C94.9409 61.7275 95.3027 62.25 95.1419 62.7323L88.0279 82.9891Z" fill="#2E57EF"/>
<path d="M85.898 80.5781H40.039C39.4763 80.5781 39.0342 81.0202 39.0342 81.5829V82.9896H85.898V80.5781Z" fill="#2E57EF"/>
<path d="M131.435 13.0882V48.4456C131.435 49.2701 130.756 49.9977 129.883 49.9977H82.0607C81.2362 49.9977 80.5087 49.3186 80.5087 48.4456V13.0882C80.5087 12.2637 81.1877 11.5361 82.0607 11.5361H129.883C130.756 11.5846 131.435 12.2637 131.435 13.0882Z" fill="#3E5FFF"/>
<path d="M131.435 14.6885H80.557V46.8933H131.435V14.6885Z" fill="#F8F8F8"/>
<path d="M128.282 22.2562H103.013C102.77 22.2562 102.528 22.0622 102.528 21.7711C102.528 21.5286 102.722 21.2861 103.013 21.2861H128.282C128.525 21.2861 128.767 21.4801 128.767 21.7711C128.767 22.0137 128.573 22.2562 128.282 22.2562Z" fill="#97C6FF"/>
<path d="M128.282 25.263H103.013C102.77 25.263 102.528 25.069 102.528 24.778C102.528 24.5355 102.722 24.293 103.013 24.293H128.282C128.525 24.293 128.767 24.487 128.767 24.778C128.767 25.069 128.573 25.263 128.282 25.263Z" fill="#FFE094"/>
<path d="M117.418 28.3187H103.013C102.77 28.3187 102.528 28.1247 102.528 27.8336C102.528 27.5911 102.722 27.3486 103.013 27.3486H117.418C117.66 27.3486 117.903 27.5426 117.903 27.8336C117.903 28.1247 117.709 28.3187 117.418 28.3187Z" fill="#FFB2B0"/>
<path d="M117.418 31.3743H103.013C102.77 31.3743 102.528 31.1803 102.528 30.8893C102.528 30.6468 102.722 30.4043 103.013 30.4043H117.418C117.66 30.4043 117.903 30.5983 117.903 30.8893C117.903 31.1318 117.709 31.3743 117.418 31.3743Z" fill="#C5DDFF"/>
<path d="M124.984 34.3812H103.013C102.77 34.3812 102.528 34.1872 102.528 33.8961C102.528 33.6536 102.722 33.4111 103.013 33.4111H124.984C125.227 33.4111 125.469 33.6051 125.469 33.8961C125.469 34.1872 125.227 34.3812 124.984 34.3812Z" fill="#B3B3FF"/>
<path d="M95.2769 31.5382H84.3814C83.2094 31.5382 82.2544 30.3479 82.2544 28.887V19.0398C82.2544 17.579 83.2094 16.3887 84.3814 16.3887H95.2769C96.4489 16.3887 97.4039 17.579 97.4039 19.0398V28.887C97.4039 30.3479 96.4489 31.5382 95.2769 31.5382Z" fill="#8EC1FF"/>
<path d="M88.3043 18.5312V22.0917" stroke="white" stroke-miterlimit="10"/>
<path d="M88.6394 24.9834H90.8176V26.994H92.1999" stroke="white" stroke-miterlimit="10"/>
<path d="M91.2362 21.8828H93.9589" stroke="white" stroke-miterlimit="10"/>
<path d="M91.2362 23.8105H93.9589" stroke="white" stroke-miterlimit="10"/>
<path d="M85.4974 21.8828H88.2201" stroke="white" stroke-miterlimit="10"/>
<path d="M85.4974 23.8105H88.2201" stroke="white" stroke-width="1.6672" stroke-miterlimit="10"/>
<path d="M88.6394 24.7725V27.1601" stroke="white" stroke-miterlimit="10"/>
<path d="M90.6082 20.5845V18.4482" stroke="white" stroke-miterlimit="10"/>
<path d="M86.126 23.809C86.126 24.1441 85.8328 24.4373 85.4977 24.4373C85.1626 24.4373 84.8694 24.1441 84.8694 23.809C84.8694 23.4739 85.1626 23.1807 85.4977 23.1807C85.8328 23.1807 86.126 23.432 86.126 23.809Z" fill="#5493F7" stroke="white" stroke-width="0.4" stroke-miterlimit="10"/>
<path d="M88.9324 18.6156C88.9324 18.9507 88.6392 19.2439 88.3041 19.2439C87.969 19.2439 87.6758 18.9507 87.6758 18.6156C87.6758 18.2805 87.969 17.9873 88.3041 17.9873C88.6392 17.9873 88.9324 18.2805 88.9324 18.6156Z" fill="#5493F7" stroke="white" stroke-width="0.4" stroke-miterlimit="10"/>
<path d="M92.9537 26.9926C92.9537 27.3277 92.6604 27.6209 92.3253 27.6209C91.9902 27.6209 91.697 27.3277 91.697 26.9926C91.697 26.6575 91.9902 26.3643 92.3253 26.3643C92.6604 26.3643 92.9537 26.6575 92.9537 26.9926Z" fill="#5493F7" stroke="white" stroke-width="0.4" stroke-miterlimit="10"/>
<path d="M90.8593 25.4848H88.2204C87.4664 25.4848 86.88 24.8984 86.88 24.1444V21.5055C86.88 20.7515 87.4664 20.165 88.2204 20.165H90.8593C91.6133 20.165 92.1998 20.7515 92.1998 21.5055V24.1444C92.1998 24.8984 91.5714 25.4848 90.8593 25.4848Z" fill="#5493F7" stroke="white" stroke-width="0.4" stroke-miterlimit="10"/>
<path d="M88.2202 25.0234C87.7594 25.0234 87.3824 24.6464 87.3824 24.1857V21.5467C87.3824 21.086 87.7594 20.709 88.2202 20.709H90.8591C91.3199 20.709 91.6969 21.086 91.6969 21.5467V24.1857C91.6969 24.6464 91.3199 25.0234 90.8591 25.0234H88.2202Z" stroke="white" stroke-width="0.4" stroke-miterlimit="10"/>
<path d="M98.1143 39.5241H89.7236C88.6566 39.5241 87.7836 38.6511 87.7836 37.584V29.2418C87.7836 28.1748 88.6566 27.3018 89.7236 27.3018H98.1143C99.1814 27.3018 100.054 28.1748 100.054 29.2418V37.6325C100.054 38.6996 99.1814 39.5241 98.1143 39.5241Z" fill="#5493F7"/>
<path d="M92.3445 30.0215L95.1026 36.4735H93.9799C93.8415 36.4735 93.7602 36.4572 93.7195 36.4328C93.6788 36.4002 93.6463 36.3514 93.6137 36.2863L92.914 34.6265H90.7498L89.9687 36.4735H89.5212L92.1736 30.0215H92.3445ZM90.9125 34.2279H92.7594L91.84 32.0311L90.9125 34.2279Z" fill="white"/>
<path d="M97.0962 36.4729H96.0711C95.9328 36.4729 95.8433 36.4403 95.7863 36.3834C95.7375 36.3264 95.705 36.2369 95.705 36.1067V30.2324H97.0881V36.4729H97.0962Z" fill="white"/>
<defs>
<filter id="filter0_d_3064_62" x="26.7146" y="66.4404" width="30.6202" height="17.7021" filterUnits="userSpaceOnUse" color-interpolation-filters="sRGB">
<feFlood flood-opacity="0" result="BackgroundImageFix"/>
<feColorMatrix in="SourceAlpha" type="matrix" values="0 0 0 0 0 0 0 0 0 0 0 0 0 0 0 0 0 0 127 0" result="hardAlpha"/>
<feOffset/>
<feGaussianBlur stdDeviation="2"/>
<feComposite in2="hardAlpha" operator="out"/>
<feColorMatrix type="matrix" values="0 0 0 0 0 0 0 0 0 0 0 0 0 0 0 0 0 0 0.12 0"/>
<feBlend mode="normal" in2="BackgroundImageFix" result="effect1_dropShadow_3064_62"/>
<feBlend mode="normal" in="SourceGraphic" in2="effect1_dropShadow_3064_62" result="shape"/>
</filter>
<linearGradient id="paint0_linear_3064_62" x1="37.2727" y1="118.954" x2="37.2727" y2="92.6111" gradientUnits="userSpaceOnUse">
<stop stop-color="#FFBFD3"/>
<stop offset="1" stop-color="#FF6666"/>
</linearGradient>
<linearGradient id="paint1_linear_3064_62" x1="37.2726" y1="110.781" x2="37.2726" y2="94.9292" gradientUnits="userSpaceOnUse">
<stop stop-color="white"/>
<stop offset="1" stop-color="#FFFF66"/>
</linearGradient>
<linearGradient id="paint2_linear_3064_62" x1="37.2848" y1="50.1807" x2="37.2848" y2="101.505" gradientUnits="userSpaceOnUse">
<stop stop-color="white"/>
<stop offset="1" stop-color="#E9E9E9"/>
</linearGradient>
</defs>
</svg>
