<svg width="56" height="57" viewBox="0 0 56 57" fill="none" xmlns="http://www.w3.org/2000/svg">
<circle cx="28" cy="28.8967" r="28" fill="#333333"/>
<rect x="14" y="13.8799" width="28.875" height="28.875" fill="white"/>
<path d="M10.3892 10.548C10.972 10.513 11.5564 10.513 12.1392 10.548H45.1179C45.2869 10.5256 45.4589 10.5415 45.6209 10.5945C45.783 10.6475 45.931 10.7363 46.0542 10.8543C46.4917 11.3005 46.3342 11.9655 46.3604 12.5255C46.3604 23.7489 46.3604 34.978 46.3604 46.213C46.3569 46.3671 46.3209 46.5187 46.2547 46.6579C46.1885 46.7971 46.0937 46.9207 45.9763 47.0206C45.859 47.1206 45.7219 47.1947 45.574 47.238C45.426 47.2813 45.2706 47.2928 45.1179 47.2718H10.6954C10.5543 47.2779 10.4135 47.2547 10.2818 47.2038C10.1501 47.1529 10.0304 47.0752 9.93012 46.9758C9.82986 46.8763 9.75126 46.7572 9.69925 46.626C9.64724 46.4947 9.62296 46.3542 9.62792 46.213V11.6155C9.60985 11.3766 9.67613 11.1389 9.81523 10.9439C9.95433 10.7488 10.1574 10.6088 10.3892 10.548ZM17.9229 19.683C17.9229 25.808 17.9229 31.933 17.9229 38.058H24.8179C24.8179 35.0217 24.7742 31.9329 24.8179 28.9404C25.5704 29.9904 26.2617 31.093 27.0317 32.1342C28.3179 34.1292 29.7704 36.0105 31.0042 38.0405C33.3142 38.1017 35.6242 38.0405 37.9429 38.0405C37.9429 37.7517 37.9867 37.463 37.9867 37.1655C37.9867 31.3205 37.9867 25.4667 37.9867 19.6655C35.6942 19.6655 33.4104 19.6655 31.1267 19.6655C31.1267 22.7192 31.1267 25.7904 31.1267 28.8267C29.0004 25.8079 26.9967 22.7018 24.8179 19.7093C22.5254 19.613 20.1979 19.683 17.9229 19.683Z" fill="#333333"/>
<path d="M14.0407 12.2717H41.9672C42.6721 12.2717 43.3481 12.5518 43.8465 13.0502C44.345 13.5486 44.625 14.2246 44.625 14.9295V42.856C44.625 43.2061 44.556 43.5527 44.4221 43.8761C44.2881 44.1996 44.0918 44.4934 43.8442 44.741C43.5967 44.9885 43.3028 45.1848 42.9794 45.3188C42.656 45.4528 42.3094 45.5217 41.9593 45.5217H14.0407C13.6906 45.5217 13.344 45.4528 13.0206 45.3188C12.6972 45.1848 12.4033 44.9885 12.1558 44.741C11.9082 44.4934 11.7119 44.1996 11.5779 43.8761C11.4439 43.5527 11.375 43.2061 11.375 42.856V14.9295C11.3771 14.2239 11.6589 13.5479 12.1585 13.0497C12.6582 12.5515 13.3351 12.2717 14.0407 12.2717Z" fill="#333333"/>
<path d="M28.0809 14.4104C19.3695 14.4104 12.3442 20.0306 12.3442 26.8536C12.3442 31.2823 15.2668 35.1603 19.6506 37.3747L18.1668 42.9163C18.1388 42.9993 18.1345 43.0885 18.1544 43.1738C18.1742 43.2592 18.2175 43.3374 18.2792 43.3995C18.3693 43.479 18.4851 43.5229 18.6052 43.5232C18.7047 43.5152 18.7992 43.4759 18.875 43.4108L25.2596 39.1057C26.202 39.2358 27.152 39.3033 28.1034 39.308C36.8036 39.308 43.8401 33.6878 43.8401 26.8536C43.8401 20.0193 36.7811 14.4104 28.0809 14.4104Z" fill="white"/>
<path d="M17.8517 24.8864H16.1319C15.9187 24.8926 15.7082 24.838 15.5249 24.729C15.4435 24.678 15.3735 24.6107 15.3194 24.5314C15.2652 24.4521 15.228 24.3625 15.2102 24.2681C15.2047 24.2083 15.2047 24.1482 15.2102 24.0884C15.2048 23.9764 15.2265 23.8648 15.2735 23.763C15.3205 23.6613 15.3913 23.5724 15.4799 23.5038C15.6759 23.3619 15.9124 23.2869 16.1543 23.2902H21.3362C21.5511 23.2826 21.763 23.3415 21.9432 23.4588C22.0265 23.5076 22.098 23.5742 22.1524 23.6539C22.2068 23.7336 22.2429 23.8244 22.2579 23.9197C22.2634 23.9758 22.2634 24.0323 22.2579 24.0884C22.2632 24.2019 22.2416 24.3151 22.1947 24.4186C22.1478 24.5222 22.077 24.6131 21.9882 24.684C21.797 24.8258 21.5627 24.8973 21.325 24.8864H19.6614V30.7989C19.6681 30.9249 19.6486 31.0508 19.6041 31.1688C19.5596 31.2869 19.4911 31.3944 19.4029 31.4846C19.3182 31.5708 19.2165 31.6383 19.1042 31.6828C18.992 31.7274 18.8716 31.7479 18.7509 31.7431C18.5398 31.7491 18.3332 31.6816 18.1664 31.5521C18.0076 31.4255 17.8999 31.2458 17.8629 31.0462C17.8518 30.9641 17.8518 30.881 17.8629 30.7989L17.8517 24.8864Z" fill="#333333"/>
<path d="M22.754 23.7286C22.8035 23.5437 22.9196 23.3835 23.08 23.279C23.2509 23.1821 23.4457 23.1354 23.642 23.1441H24.0692C24.2774 23.1366 24.4837 23.1872 24.6649 23.2902C24.8569 23.4194 24.9933 23.616 25.0471 23.841L27.2952 30.1919C27.3535 30.3576 27.4023 30.5266 27.4413 30.6978C27.4452 30.769 27.4452 30.8402 27.4413 30.9113C27.4451 31.0209 27.4249 31.1299 27.3822 31.2309C27.3395 31.3319 27.2753 31.4223 27.194 31.4959C27.1153 31.5766 27.0207 31.6402 26.9163 31.6827C26.8119 31.7253 26.6998 31.7458 26.587 31.7431C26.4137 31.7604 26.2395 31.7188 26.0927 31.625C25.9459 31.5312 25.8349 31.3907 25.7777 31.2261L25.3056 29.8435H22.3494L21.8773 31.2261C21.8214 31.3939 21.7091 31.5371 21.5595 31.6314C21.4099 31.7257 21.2322 31.7652 21.0567 31.7431C20.8666 31.7481 20.6804 31.6887 20.5284 31.5745C20.3803 31.4567 20.2803 31.2888 20.2474 31.1025C20.2414 31.0389 20.2414 30.9749 20.2474 30.9113C20.2281 30.7998 20.2281 30.6858 20.2474 30.5742C20.2474 30.4505 20.3261 30.3156 20.371 30.1919L22.754 23.7286ZM23.8781 25.2012L22.8102 28.5734H24.9347L23.8781 25.2012Z" fill="#333333"/>
<path d="M27.6987 24.0885C27.6873 23.8363 27.7762 23.5898 27.946 23.4029C28.0323 23.3158 28.136 23.2478 28.2502 23.2032C28.3644 23.1587 28.4867 23.1386 28.6092 23.1442C28.8198 23.1418 29.0253 23.209 29.1937 23.3354C29.3498 23.4672 29.4535 23.6506 29.486 23.8524C29.497 23.9307 29.497 24.0103 29.486 24.0885V30.0011H32.5771C32.7914 29.9983 33.002 30.0566 33.1841 30.1696C33.2659 30.22 33.3362 30.2872 33.3905 30.3666C33.4447 30.446 33.4816 30.5359 33.4988 30.6305C33.4988 30.6305 33.4988 30.7429 33.4988 30.7991C33.5042 30.911 33.4824 31.0225 33.4355 31.1243C33.3885 31.226 33.3177 31.3151 33.2291 31.3836C33.0331 31.5255 32.7966 31.6004 32.5546 31.5971H28.7553C28.5134 31.6127 28.2728 31.5497 28.0697 31.4174C27.8879 31.2815 27.7668 31.0797 27.7325 30.8554C27.7242 30.7318 27.7242 30.6078 27.7325 30.4843L27.6987 24.0885Z" fill="#333333"/>
<path d="M33.7013 24.0885C33.6945 23.837 33.7828 23.5922 33.9486 23.4028C34.117 23.2497 34.3331 23.1593 34.5604 23.1471C34.7877 23.1348 35.0123 23.2013 35.1962 23.3353C35.3558 23.466 35.4634 23.6493 35.4997 23.8523C35.5053 23.9309 35.5053 24.0099 35.4997 24.0885V26.8423L38.3436 23.5601C38.4532 23.4481 38.5695 23.3431 38.692 23.2454C38.8075 23.1767 38.9399 23.1415 39.0742 23.1442C39.2707 23.1431 39.4628 23.2019 39.625 23.3128C39.7014 23.3643 39.7667 23.4307 39.8169 23.5079C39.8671 23.5852 39.9012 23.6717 39.9173 23.7625C39.9218 23.7847 39.9218 23.8077 39.9173 23.83C39.9118 23.8559 39.9118 23.8827 39.9173 23.9086C39.9169 24.0269 39.8859 24.1431 39.8273 24.2459C39.7677 24.3547 39.696 24.4564 39.6138 24.5492L37.7478 26.5951L39.9959 30.0796V30.192C40.1127 30.3531 40.2037 30.5314 40.2657 30.7204V30.7765C40.2787 30.9068 40.2599 31.0382 40.211 31.1596C40.162 31.281 40.0844 31.3886 39.9847 31.4734C39.7972 31.6152 39.5678 31.6904 39.3328 31.6871C39.1766 31.6935 39.0215 31.6585 38.8831 31.5858C38.7334 31.4854 38.6101 31.3505 38.5234 31.1924L36.4327 27.8203L35.4323 28.8657V30.7428C35.439 30.9943 35.3507 31.2391 35.185 31.4284C35.0962 31.5152 34.9905 31.5831 34.8745 31.6275C34.7585 31.672 34.6347 31.6923 34.5106 31.6871C34.3032 31.6914 34.1006 31.6238 33.9373 31.4959C33.7785 31.3694 33.6708 31.1898 33.6338 30.9902C33.6227 30.9081 33.6227 30.8248 33.6338 30.7428L33.7013 24.0885Z" fill="#333333"/>
</svg>
