<svg width="205" height="242" viewBox="0 0 205 242" fill="none" xmlns="http://www.w3.org/2000/svg">
<circle cx="104.088" cy="141.715" r="99.2848" fill="white" stroke="#000543" stroke-width="2"/>
<circle cx="100.285" cy="135.03" r="98.2848" fill="white" stroke="#000543" stroke-width="4"/>
<circle cx="101.622" cy="135.03" r="64.5194" fill="#D1E9FF" stroke="#000543" stroke-width="2" stroke-dasharray="2 2"/>
<path d="M138.49 161.356C136.947 161.356 135.79 160.276 135.751 158.617L135.288 140.023C135.25 138.21 136.677 136.859 138.49 136.859C140.303 136.859 141.769 138.21 141.653 140.023L141.19 158.617C141.229 160.276 140.033 161.356 138.49 161.356ZM134.748 167.22C134.748 165.252 136.368 163.671 138.49 163.671C140.65 163.671 142.271 165.252 142.271 167.22C142.271 169.187 140.612 170.73 138.49 170.73C136.368 170.73 134.748 169.187 134.748 167.22Z" fill="#000543"/>
<path d="M110.467 173.083C105.683 173.083 103.677 171.154 103.677 166.64V158.925C103.677 157.073 104.873 156.031 106.763 156.031H106.956C108.808 156.031 110.042 157.034 110.042 158.539V159.156H122.001V158.539C122.001 157.034 123.236 156.031 125.088 156.031H125.28C127.171 156.031 128.367 157.073 128.367 158.925V166.64C128.367 171.27 126.708 173.083 121.963 173.083H110.467ZM99.4336 145.847V140.678C99.4336 138.17 100.822 136.897 103.6 136.897H114.865C117.025 136.897 118.144 137.977 118.144 139.713C118.144 141.449 117.025 142.529 114.865 142.529H106.686C106.03 142.529 105.799 142.761 105.799 143.417V146.04C105.799 148.007 106.802 148.586 109.387 148.586C111.778 148.586 113.939 148.316 115.906 147.737C116.369 147.622 116.755 147.544 117.063 147.544C118.298 147.544 119.147 148.2 119.571 149.396C119.687 149.82 119.764 150.206 119.764 150.515C119.764 151.711 119.069 152.559 117.642 153.061C115.366 153.833 112.473 154.218 108.962 154.218C102.481 154.218 99.4336 151.827 99.4336 145.847ZM110.042 165.869C110.042 166.949 110.737 167.373 112.126 167.373H119.918C121.307 167.373 122.001 166.949 122.001 165.869V164.557H110.042V165.869ZM122.001 151.904V138.517C122.001 136.666 123.197 135.624 125.088 135.624H125.28C127.171 135.624 128.367 136.666 128.367 138.517V142.066H130.334C132.186 142.066 133.227 143.147 133.227 144.96C133.227 146.773 132.186 147.853 130.334 147.853H128.367V151.904C128.367 153.755 127.171 154.797 125.28 154.797H125.088C123.197 154.797 122.001 153.755 122.001 151.904Z" fill="#000543"/>
<path d="M81.7872 173.931C75.3447 173.931 70.9469 170.074 70.9469 164.673C70.9469 159.195 75.3833 155.298 81.7872 155.298C88.2682 155.298 92.666 159.195 92.666 164.673C92.666 170.112 88.2296 173.931 81.7872 173.931ZM63.2314 152.598C63.2314 151.634 63.8101 150.669 64.8903 150.052C68.9409 147.622 70.5226 145.963 70.5226 143.494V142.529H66.6263C64.736 142.529 63.5401 141.449 63.5401 139.713C63.5401 137.862 64.8903 136.897 66.6263 136.897H80.6684C82.4044 136.897 83.7546 137.862 83.7546 139.713C83.7546 141.565 82.4044 142.529 80.6684 142.529H76.8493V143.494C76.8493 144.15 76.7721 144.805 76.6564 145.538C79.6654 146.966 81.9029 148.277 83.3303 149.473C84.0632 150.052 84.449 150.824 84.449 151.711C84.449 152.521 84.1404 153.254 83.5231 153.833C82.9831 154.373 82.2887 154.643 81.4785 154.643C80.7456 154.643 80.0898 154.411 79.4339 153.987C78.0066 152.945 76.1934 151.827 73.956 150.592C72.49 152.251 70.4068 153.794 67.7064 155.26C67.2821 155.491 66.8191 155.607 66.3176 155.607C65.3532 155.607 64.3888 155.144 63.7715 154.218C63.4243 153.717 63.2314 153.177 63.2314 152.598ZM77.3122 164.634C77.3122 166.756 79.1253 168.299 81.8643 168.299C84.5262 168.299 86.3007 166.756 86.3007 164.634C86.3007 162.435 84.5262 160.854 81.8643 160.854C79.1253 160.854 77.3122 162.435 77.3122 164.634ZM81.44 145.461C81.44 143.648 82.4816 142.645 84.6419 142.645H86.8794V138.517C86.8794 136.666 88.0753 135.624 89.9656 135.624H90.1585C92.0487 135.624 93.2446 136.666 93.2446 138.517V152.675C93.2446 154.527 92.0487 155.569 90.1585 155.569H89.9656C88.0753 155.569 86.8794 154.527 86.8794 152.675V148.277H84.6419C82.4816 148.277 81.44 147.274 81.44 145.461Z" fill="#000543"/>
<path d="M59.2491 195.514L57.8503 197.719L54.8157 195.794C54.0719 197.24 54.1127 199.282 56.2745 201.569L53.6278 202.933C52.0792 201.357 51.4437 199.667 51.4588 198.044C49.9186 198.873 48.0634 199.107 45.891 198.397L45.9442 195.388C48.9518 196.38 50.9037 195.428 51.9751 193.993L48.9581 192.079L50.3569 189.874L53.3915 191.798L54.3427 190.299L57.1833 192.1L56.2321 193.6L59.2491 195.514ZM63.8894 196.428L61.573 200.08L63.602 201.367L62.1585 203.643L60.1295 202.356L57.8579 205.938L55.0173 204.136L61.0488 194.626L63.8894 196.428ZM57.4662 206.555L53.628 212.607L42.7421 205.702L46.5804 199.651L57.4662 206.555ZM47.9468 203.66L46.9621 205.212L52.2727 208.58L53.2574 207.028L47.9468 203.66Z" fill="#000543"/>
<path d="M83.748 204.936L83.1765 207.462L79.8141 206.702C79.7843 208.302 80.5969 210.06 83.1028 211.387L81.0279 213.552C79.0692 212.553 77.9189 211.104 77.4083 209.478C76.1939 210.917 74.459 211.863 72.0759 211.935L71.0626 209.028C74.0577 208.902 75.6153 207.509 76.3091 205.909L72.8448 205.126L73.4163 202.599L83.748 204.936ZM88.284 205.147L87.4959 208.632L89.8393 209.162L89.2494 211.77L86.9059 211.24L86.104 214.786L82.8231 214.044L85.0031 204.405L88.284 205.147ZM85.9611 215.418L84.7674 220.696L75.2101 218.534L75.058 219.207L85.0636 221.47L84.5105 223.915L71.2649 220.919L72.4816 215.539L82.0185 217.696L82.1522 217.106L72.6153 214.949L73.1637 212.524L85.9611 215.418Z" fill="#000543"/>
<path d="M108.973 206.023L109.339 217.863L106.165 217.961L106.027 213.513L105.171 213.54L105.303 217.821L102.192 217.917L101.838 206.473L104.95 206.377L105.089 210.867L105.945 210.84L105.799 206.121L108.973 206.023ZM101.422 207.865L101.502 210.476L92.2929 210.76L92.2123 208.15L95.1567 208.059L95.1103 206.555L98.4306 206.453L98.4771 207.956L101.422 207.865ZM96.9398 210.972C99.4046 210.917 101.244 212.261 101.327 214.265C101.367 216.249 99.6149 217.725 97.1514 217.822C94.7493 217.875 92.9095 216.51 92.8482 214.527C92.7863 212.522 94.539 211.067 96.9398 210.972ZM97.0134 213.353C96.2818 213.354 95.7903 213.683 95.8136 214.435C95.8355 215.145 96.3476 215.484 97.0779 215.441C97.8303 215.439 98.2996 215.069 98.2986 214.358C98.2545 213.607 97.7645 213.309 97.0134 213.353ZM100.406 218.975C100.424 220.229 100.944 221.498 102.308 222.365C103.595 221.385 104.077 220.064 104.061 218.862L104.054 218.654L107.395 218.55L107.402 218.759C107.455 220.492 108.34 222.054 110.947 222.558L109.499 225.07C107.667 224.625 106.487 223.647 105.778 222.342C105.182 223.708 104.12 224.86 102.426 225.497C100.675 224.976 99.5455 223.935 98.8679 222.639C98.2175 223.913 97.0993 224.93 95.3822 225.506L93.7607 223.089C96.2878 222.342 97.1367 220.728 97.0857 219.078L97.0793 218.869L100.4 218.766L100.406 218.975Z" fill="#000543"/>
<path d="M117.389 206.091C119.859 205.345 122.329 206.788 123.729 209.894L126.355 209.124L124.463 202.668L127.651 201.734L133.103 220.34L129.916 221.274L127.107 211.69L124.521 212.448C125.205 216.047 123.886 218.752 121.32 219.504C118.453 220.344 115.63 218.363 114.414 214.213C113.215 210.122 114.516 206.911 117.389 206.091ZM118.241 208.998C117.133 209.301 116.729 210.747 117.501 213.308C118.245 215.92 119.353 216.88 120.456 216.557C121.579 216.228 121.954 214.833 121.19 212.227C120.438 209.66 119.358 208.649 118.241 208.998Z" fill="#000543"/>
<path d="M153.282 204.692L154.679 207.021L139.537 216.099L138.141 213.77L141.277 211.89L138.988 208.073C137.319 207.99 135.909 207.264 135.059 205.825C133.397 203.094 135.007 199.644 138.655 197.481C142.246 195.304 146.083 195.488 147.727 198.229C148.576 199.645 148.556 201.216 147.855 202.708L150.164 206.561L153.282 204.692ZM139.998 199.721C137.837 200.992 136.994 202.594 137.908 204.117C138.799 205.604 140.641 205.669 142.791 204.38C144.906 203.112 145.752 201.436 144.878 199.938C143.947 198.425 142.102 198.435 139.998 199.721ZM144.126 210.181L147.28 208.291L145.614 205.513C145.161 205.895 144.659 206.256 144.113 206.584C143.566 206.912 143.011 207.184 142.461 207.404L144.126 210.181Z" fill="#000543"/>
<path d="M153.686 188.409L160.231 196.532L157.748 198.676L150.65 191.031L153.686 188.409ZM162.204 201.343C161.35 202.08 160.067 202.001 159.346 201.134C158.606 200.309 158.715 199.028 159.569 198.291C160.375 197.595 161.69 197.647 162.414 198.485C163.151 199.339 163.011 200.647 162.204 201.343Z" fill="#000543"/>
<g filter="url(#filter0_dd_3078_760)">
<path d="M140.043 102.881C140.043 115.737 123.243 126.204 102.577 126.204C81.9107 126.204 65.1106 115.807 65.1106 102.881C65.1106 90.0251 81.9107 79.5576 102.577 79.5576C123.314 79.5576 140.043 90.0251 140.043 102.881Z" fill="#DCDCEA"/>
<path d="M162.889 76.3967C162.889 86.1616 154.946 94.1 145.175 94.1H58.3626C48.5918 94.1 40.6487 86.1616 40.6487 76.3967C40.6487 66.6317 48.5918 58.6934 58.3626 58.6934H145.175C154.946 58.6934 162.889 66.6317 162.889 76.3967Z" fill="#A0A0C1"/>
<path d="M162.889 79.5568C162.889 89.3217 154.946 97.2601 145.175 97.2601H58.3626C48.5918 97.2601 40.6487 89.3217 40.6487 79.5568C40.6487 69.7919 48.5918 61.8535 58.3626 61.8535H145.175C154.946 61.8535 162.889 69.7919 162.889 79.5568Z" fill="#8080A2"/>
<path d="M104.686 6.0752H98.7815V36.0022H104.686V6.0752Z" fill="#8080A2"/>
<path d="M110.661 10.9219C110.661 15.8395 106.654 19.8438 101.733 19.8438C96.8129 19.8438 92.8062 15.8395 92.8062 10.9219C92.8062 6.00432 96.8129 2 101.733 2C106.654 2 110.661 6.00432 110.661 10.9219Z" fill="white"/>
<path d="M148.971 78.5732C148.971 95.293 135.404 108.851 118.674 108.851H84.793C68.0632 108.851 54.4966 95.293 54.4966 78.5732V62.9072C54.4966 46.1874 68.0632 32.6289 84.793 32.6289H118.604C135.334 32.6289 148.901 46.1874 148.901 62.9072V78.5732H148.971Z" fill="#F4F4F4"/>
<path d="M148.971 84.6152C148.971 101.335 135.404 114.893 118.674 114.893H84.793C68.0632 114.893 54.4966 101.335 54.4966 84.6152V69.0195C54.4966 52.2997 68.0632 38.7412 84.793 38.7412H118.604C135.334 38.7412 148.901 52.2997 148.901 69.0195V84.6152H148.971Z" fill="white"/>
<path d="M139.341 84.1934C139.341 97.7519 127.953 108.711 113.895 108.711H89.5028C75.4442 108.711 64.0566 97.7519 64.0566 84.1934C64.0566 70.635 75.4442 59.6758 89.5028 59.6758H113.895C127.953 59.6758 139.341 70.7052 139.341 84.1934Z" fill="#343E49"/>
<path d="M139.13 81.3829C139.13 94.9414 127.742 105.901 113.684 105.901H89.2919C75.2332 105.901 63.8457 94.9414 63.8457 81.3829C63.8457 67.8244 75.2332 56.8652 89.2919 56.8652H113.684C127.813 56.8652 139.13 67.8947 139.13 81.3829Z" fill="#5D5D77"/>
<path d="M142.082 80.2597C141.942 65.3664 129.218 53.2832 113.684 53.2832H89.2918C73.6164 53.2832 60.823 65.5069 60.823 80.4704C60.823 81.4539 60.8933 82.4375 61.0339 83.4912C61.1745 98.3845 73.8976 110.468 89.5027 110.468H113.895C129.57 110.468 142.363 98.244 142.363 83.2805C142.293 82.2969 142.223 81.2432 142.082 80.2597ZM113.824 107.447H89.4324C75.444 107.447 64.0565 96.6282 63.9862 83.2805C63.8456 82.3672 63.7753 81.3837 63.7753 80.4704C63.7753 67.1227 75.1629 56.304 89.2215 56.304H113.613C127.602 56.304 138.989 67.1227 139.06 80.4704C139.2 81.3837 139.27 82.3672 139.27 83.2805C139.27 96.6282 127.883 107.447 113.824 107.447Z" fill="#7171C9"/>
<path d="M142.083 81.2431C141.942 66.3498 129.219 54.2666 113.614 54.2666H89.222C73.5466 54.2666 60.7532 66.4903 60.7532 81.4538C60.7532 82.4373 60.8235 83.4209 60.9641 84.4746C61.1046 99.3679 73.8278 111.451 89.4329 111.451H113.825C129.5 111.451 142.294 99.2274 142.294 84.2639C142.294 83.2803 142.223 82.2266 142.083 81.2431ZM113.825 108.43H89.4329C75.4445 108.43 64.057 97.6116 63.9867 84.2639C63.8461 83.3506 63.7758 82.3671 63.7758 81.4538C63.7758 68.1061 75.1633 57.2874 89.222 57.2874H113.614C127.602 57.2874 138.99 68.1061 139.06 81.4538C139.201 82.3671 139.271 83.3506 139.271 84.2639C139.271 97.6116 127.883 108.43 113.825 108.43Z" fill="#9D9AFF"/>
<path d="M142.083 81.2431C141.942 66.3498 129.219 54.2666 113.614 54.2666H89.222C73.5466 54.2666 60.7532 66.4903 60.7532 81.4538C60.7532 82.4373 60.8235 83.4209 60.9641 84.4746C61.1046 99.3679 73.8278 111.451 89.4329 111.451H113.825C129.5 111.451 142.294 99.2274 142.294 84.2639C142.294 83.2803 142.223 82.2266 142.083 81.2431ZM113.825 108.43H89.4329C75.4445 108.43 64.057 97.6116 63.9867 84.2639C63.8461 83.3506 63.7758 82.3671 63.7758 81.4538C63.7758 68.1061 75.1633 57.2874 89.222 57.2874H113.614C127.602 57.2874 138.99 68.1061 139.06 81.4538C139.201 82.3671 139.271 83.3506 139.271 84.2639C139.271 97.6116 127.883 108.43 113.825 108.43Z" fill="#04CEFF"/>
<path d="M92.033 91.1494C92.033 91.1494 101.944 100.423 113.262 91.1494" stroke="#04CEFF" stroke-width="3" stroke-miterlimit="10" stroke-linecap="round" stroke-linejoin="round"/>
<path d="M85.8248 86.1877C90.7579 86.1877 94.6804 82.2048 94.6804 77.3321C94.6804 72.4103 90.6129 68.4766 85.8248 68.4766C80.8918 68.4766 76.9692 72.4595 76.9692 77.3321C76.9692 82.2048 80.8918 86.1877 85.8248 86.1877ZM90.293 77.3321C90.293 79.799 88.3175 81.8003 85.8248 81.8003C83.3322 81.8003 81.3566 79.799 81.3566 77.3321C81.3566 74.8653 83.3322 72.864 85.8248 72.864C88.2282 72.864 90.293 74.8715 90.293 77.3321Z" fill="#04CEFF" stroke="#000543"/>
<path d="M119.725 86.1877C124.658 86.1877 128.58 82.2048 128.58 77.3321C128.58 72.4595 124.658 68.4766 119.725 68.4766C114.792 68.4766 110.869 72.4595 110.869 77.3321C110.869 82.2048 114.792 86.1877 119.725 86.1877ZM124.193 77.3321C124.193 79.799 122.217 81.8003 119.725 81.8003C117.232 81.8003 115.257 79.799 115.257 77.3321C115.257 74.8653 117.232 72.864 119.725 72.864C122.217 72.864 124.193 74.8653 124.193 77.3321Z" fill="#04CEFF" stroke="#000543"/>
</g>
<defs>
<filter id="filter0_dd_3078_760" x="38.6487" y="0" width="126.24" height="128.204" filterUnits="userSpaceOnUse" color-interpolation-filters="sRGB">
<feFlood flood-opacity="0" result="BackgroundImageFix"/>
<feColorMatrix in="SourceAlpha" type="matrix" values="0 0 0 0 0 0 0 0 0 0 0 0 0 0 0 0 0 0 127 0" result="hardAlpha"/>
<feOffset/>
<feGaussianBlur stdDeviation="1"/>
<feComposite in2="hardAlpha" operator="out"/>
<feColorMatrix type="matrix" values="0 0 0 0 0 0 0 0 0 0 0 0 0 0 0 0 0 0 1 0"/>
<feBlend mode="normal" in2="BackgroundImageFix" result="effect1_dropShadow_3078_760"/>
<feColorMatrix in="SourceAlpha" type="matrix" values="0 0 0 0 0 0 0 0 0 0 0 0 0 0 0 0 0 0 127 0" result="hardAlpha"/>
<feOffset/>
<feGaussianBlur stdDeviation="1"/>
<feComposite in2="hardAlpha" operator="out"/>
<feColorMatrix type="matrix" values="0 0 0 0 0 0 0 0 0 0 0 0 0 0 0 0 0 0 1 0"/>
<feBlend mode="normal" in2="effect1_dropShadow_3078_760" result="effect2_dropShadow_3078_760"/>
<feBlend mode="normal" in="SourceGraphic" in2="effect2_dropShadow_3078_760" result="shape"/>
</filter>
</defs>
</svg>
