<svg width="377" height="57" viewBox="0 0 377 57" fill="none" xmlns="http://www.w3.org/2000/svg">
<g filter="url(#filter0_d_3018_34)">
<rect width="377" height="53" rx="16" fill="white" fill-opacity="0.8" shape-rendering="crispEdges"/>
<rect x="0.5" y="0.5" width="376" height="52" rx="15.5" stroke="#000543" shape-rendering="crispEdges"/>
<path d="M60.9688 18.0312H64.9297L68.8438 25.3438H69.0078L72.8984 18.0312H76.8594L70.6719 28.9531V35H67.1562V28.9531L60.9688 18.0312ZM78.6875 35V18.0312H85.4375C89.1875 18.0312 91.0625 19.8359 91.0625 22.3906C91.0625 24.3828 89.7734 25.625 88.0156 26.0234V26.1875C89.9375 26.2812 91.7422 27.8047 91.7422 30.3125C91.7422 33.0078 89.7266 35 85.8828 35H78.6875ZM85.1797 32.0938C87.2188 32.0938 88.0859 31.25 88.0859 29.9844C88.0859 28.5547 87.0078 27.5469 85.2734 27.5469H82.2031V32.0938H85.1797ZM84.9219 25.1328C86.3984 25.1328 87.5 24.3125 87.5 22.9531C87.5 21.7344 86.6094 20.8906 84.9922 20.8906H82.2031V25.1328H84.9219ZM93.9688 18.0312H98.3281L103.039 29.5391H103.227L107.938 18.0312H112.297V35H108.875V23.8906H108.734L104.305 34.9297H101.961L97.5312 23.8438H97.3906V35H93.9688V18.0312ZM137.586 17.6797V19.7656C137.562 22.3672 137.562 25.2969 136.789 29.5859L133.859 29.3281C134.562 25.4258 134.586 22.5195 134.586 20.0469H121.812V17.6797H137.586ZM139.344 32.1172V34.5547H119.891V32.1172H124.039V25.4141H127.016V32.1172H129.359V25.4141H132.312V32.1172H139.344ZM152.633 17.9609V19.6719C152.609 21.6875 152.609 24.3125 152.047 27.8516L149.094 27.6172C149.574 24.5234 149.621 22.2383 149.656 20.3516H141.57V17.9609H152.633ZM147.312 24.0781V30.2656C149.41 30.1836 151.543 30.0312 153.5 29.7734L153.688 32C149.305 32.75 144.453 32.8203 140.727 32.7969L140.445 30.4062C141.641 30.3945 142.977 30.3945 144.359 30.3594V24.0781H147.312ZM157.531 15.8281V24.4062H160.438V26.8906H157.531V37.1562H154.508V15.8281H157.531ZM169.438 20.6562C169.438 24.6641 171.055 28.5547 174.617 30.1016L172.789 32.4922C170.422 31.332 168.84 29.2109 167.961 26.5859C167.023 29.375 165.383 31.6602 162.945 32.8672L161.07 30.4297C164.727 28.7891 166.391 24.6641 166.414 20.6562V17.4688H169.438V20.6562ZM179.375 15.8281V37.2031H176.422V24.9453H172.227V22.5312H176.422V15.8281H179.375ZM197.352 30.5C202.086 30.5234 204.758 31.6953 204.781 33.8516C204.758 36.0312 202.086 37.1562 197.352 37.1562C192.57 37.1562 189.875 36.0312 189.875 33.8516C189.875 31.6953 192.57 30.5234 197.352 30.5ZM197.352 32.6797C194.328 32.6797 192.945 33.0547 192.945 33.8516C192.945 34.6719 194.328 35 197.352 34.9766C200.352 35 201.734 34.6719 201.758 33.8516C201.734 33.0547 200.352 32.6797 197.352 32.6797ZM206.094 17.3516V19.6016H188.586V17.3516H195.875V15.6641H198.875V17.3516H206.094ZM197.375 20.1875C201.992 20.1875 204.547 21.2188 204.547 23.2578C204.547 25.0273 202.543 26.0469 198.875 26.2578V27.3594H207.102V29.6797H187.648V27.3594H195.875V26.2578C192.219 26.0469 190.18 25.0273 190.203 23.2578C190.18 21.2188 192.781 20.1875 197.375 20.1875ZM197.375 22.2031C194.68 22.2031 193.391 22.5078 193.391 23.2578C193.391 23.9375 194.68 24.2656 197.375 24.2656C200.094 24.2656 201.336 23.9375 201.336 23.2578C201.336 22.5078 200.094 22.2031 197.375 22.2031ZM227.914 32.2344V34.6719H208.391V32.2344H216.617V28.2969H210.453V17.1875H213.453V20.4922H222.758V17.1875H225.734V28.2969H219.594V32.2344H227.914ZM213.453 25.9062H222.758V22.8828H213.453V25.9062ZM241.086 17.375V18.7109C241.086 20.1875 241.086 22.3203 240.594 24.9688L237.664 24.6875C238.039 22.6367 238.133 21.0898 238.156 19.8125H230.117V17.375H241.086ZM235.789 22.2969V26.375C237.91 26.293 240.09 26.1289 242.094 25.8359L242.258 27.9922C237.828 28.8125 232.812 28.8828 229.109 28.9062L228.852 26.5156C230.047 26.5156 231.395 26.5156 232.812 26.4688V22.2969H235.789ZM246.312 15.8281V22.3203H248.891V24.8281H246.312V31.7891H243.242V15.8281H246.312ZM246.969 34.3906V36.7812H231.992V30.3594H234.992V34.3906H246.969ZM273.266 15.8281V37.2031H270.242V15.8281H273.266ZM261.688 17.3281C264.898 17.3281 267.289 20.2812 267.289 24.9219C267.289 29.6094 264.898 32.5391 261.688 32.5391C258.406 32.5391 256.016 29.6094 256.039 24.9219C256.016 20.2812 258.406 17.3281 261.688 17.3281ZM261.688 20.0234C260.023 20.0234 258.922 21.7578 258.922 24.9219C258.922 28.1094 260.023 29.8203 261.688 29.8203C263.305 29.8203 264.406 28.1094 264.406 24.9219C264.406 21.7578 263.305 20.0234 261.688 20.0234ZM294.477 15.8281V31.9531H291.641V15.8281H294.477ZM290.141 16.1562V31.2734H287.328V24.125H285.406V28.25H276.898V17.4688H279.734V20.7266H282.641V17.4688H285.406V21.7344H287.328V16.1562H290.141ZM279.734 25.8359H282.641V23H279.734V25.8359ZM295.016 34.3906V36.7812H280.016V29.8203H283.016V34.3906H295.016ZM314.281 26.8438V29.2109H299.188V17.3984H314.117V19.8125H302.234V22.0625H313.625V24.4062H302.234V26.8438H314.281ZM316.414 32.2344V34.6719H296.891V32.2344H316.414Z" fill="#000543"/>
</g>
<defs>
<filter id="filter0_d_3018_34" x="0" y="0" width="377" height="57" filterUnits="userSpaceOnUse" color-interpolation-filters="sRGB">
<feFlood flood-opacity="0" result="BackgroundImageFix"/>
<feColorMatrix in="SourceAlpha" type="matrix" values="0 0 0 0 0 0 0 0 0 0 0 0 0 0 0 0 0 0 127 0" result="hardAlpha"/>
<feOffset dy="4"/>
<feComposite in2="hardAlpha" operator="out"/>
<feColorMatrix type="matrix" values="0 0 0 0 0 0 0 0 0 0.0196078 0 0 0 0 0.262745 0 0 0 1 0"/>
<feBlend mode="normal" in2="BackgroundImageFix" result="effect1_dropShadow_3018_34"/>
<feBlend mode="normal" in="SourceGraphic" in2="effect1_dropShadow_3018_34" result="shape"/>
</filter>
</defs>
</svg>
