<svg width="1920" height="1020" viewBox="0 0 1920 1020" fill="none" xmlns="http://www.w3.org/2000/svg">
<g clip-path="url(#clip0_3020_19882)">
<rect width="1920" height="1020" fill="#752ACB"/>
<rect width="1920" height="1020" fill="#67DA74"/>
<g clip-path="url(#clip1_3020_19882)">
<path d="M304.319 847.339L61.5636 707.184C48.5231 699.655 32.0565 704.083 24.514 717.147L-54.7409 854.421C-62.2835 867.485 -57.885 883.959 -44.8444 891.488L-23.7789 903.65L-58.4853 938.281C-63.0227 942.897 -58.6068 950.538 -52.4742 948.719L20.9604 929.481L197.911 1031.64C210.952 1039.17 227.418 1034.74 234.961 1021.68L314.216 884.407C321.758 871.343 317.36 854.868 304.319 847.339Z" fill="white"/>
<path d="M102.969 787.902C74.8813 771.686 39.0983 781.308 22.8528 809.446C6.60728 837.584 16.1654 873.385 44.2528 889.601C72.3403 905.817 108.123 896.195 124.369 868.056L73.6108 838.751L102.969 787.902Z" fill="#32E6E1"/>
<path d="M102.969 787.901L73.6108 838.751L124.369 868.056C140.614 839.918 131.056 804.118 102.969 787.901Z" fill="#FEC000"/>
<path d="M250.787 897.898L172.543 852.724C168.731 850.524 167.462 845.771 169.667 841.953C171.872 838.134 176.622 836.857 180.434 839.057L258.677 884.231C262.489 886.432 263.758 891.184 261.553 895.003C259.148 898.706 254.398 899.983 250.787 897.898Z" fill="#DDD7DA"/>
<path d="M235.701 924.027L180.329 892.057C176.517 889.857 175.248 885.104 177.453 881.286C179.658 877.467 184.408 876.19 188.22 878.39L243.592 910.36C247.404 912.56 248.673 917.313 246.468 921.131C244.063 924.834 239.313 926.112 235.701 924.027Z" fill="#DDD7DA"/>
<path d="M161.069 880.937L157.458 878.852C153.646 876.652 152.377 871.899 154.582 868.081C156.787 864.262 161.537 862.985 165.349 865.185L168.96 867.27C172.772 869.471 174.04 874.223 171.836 878.042C169.631 881.861 164.881 883.138 161.069 880.937Z" fill="#DDD7DA"/>
<path d="M159.858 914.54L142.605 904.579C138.793 902.378 137.524 897.626 139.729 893.807C141.934 889.988 146.684 888.711 150.495 890.912L167.749 900.873C171.561 903.074 172.83 907.826 170.625 911.645C168.22 915.348 163.47 916.625 159.858 914.54Z" fill="#DDD7DA"/>
<path d="M220.616 950.155L178.084 925.598C174.272 923.398 173.003 918.645 175.208 914.827C177.413 911.008 182.163 909.731 185.975 911.931L228.507 936.487C232.319 938.688 233.588 943.441 231.383 947.259C228.977 950.962 224.228 952.24 220.616 950.155Z" fill="#DDD7DA"/>
<path d="M196.052 952.855L213.306 962.817C217.118 965.017 218.386 969.77 216.182 973.588C213.977 977.407 209.227 978.685 205.415 976.484L188.161 966.522C184.35 964.322 183.081 959.569 185.285 955.751C187.691 952.048 192.441 950.77 196.052 952.855Z" fill="#DDD7DA"/>
<path d="M135.294 917.241L177.827 941.797C181.639 943.998 182.907 948.75 180.703 952.569C178.498 956.388 173.748 957.665 169.936 955.464L127.404 930.908C123.592 928.707 122.323 923.955 124.528 920.136C126.733 916.318 131.683 915.156 135.294 917.241Z" fill="#DDD7DA"/>
</g>
<path d="M123.897 478.934L70.9521 506.05C65.4534 508.867 58.8014 506.721 55.9851 501.222L28.9491 448.434C26.1328 442.935 28.2788 436.283 33.7776 433.467L86.7226 406.35C92.2214 403.534 98.8734 405.68 101.69 411.179L128.806 464.124C131.542 469.466 129.396 476.118 123.897 478.934Z" fill="#46B4A0"/>
<path d="M134.504 481.832L85.6434 506.856C80.616 509.431 74.4391 507.438 71.8643 502.411L46.8398 453.551C44.265 448.523 46.2577 442.346 51.2851 439.772L100.145 414.747C105.173 412.172 111.35 414.165 113.925 419.192L138.949 468.053C141.524 473.08 139.531 479.257 134.504 481.832Z" fill="#52D2B4"/>
<path d="M146.459 485.426L100.741 508.841C96.0274 511.255 90.3257 509.415 87.9118 504.702L64.5771 459.141C62.1632 454.428 64.0026 448.726 68.7158 446.312L114.434 422.897C119.147 420.483 124.849 422.323 127.263 427.036L150.678 472.754C153.011 477.31 151.172 483.012 146.459 485.426Z" fill="#7AE898"/>
<path d="M136.542 480.39L102.607 497.77C99.1504 499.541 94.8741 498.161 93.1039 494.705L75.7236 460.77C73.9534 457.313 75.3329 453.037 78.7893 451.267L112.724 433.886C116.181 432.116 120.457 433.496 122.227 436.952L139.608 470.887C141.378 474.344 139.998 478.62 136.542 480.39Z" fill="#91F3AD"/>
<path d="M101.447 451.364C93.7489 455.307 90.6832 464.81 94.626 472.508C98.5687 480.206 108.072 483.272 115.77 479.329C123.468 475.386 126.534 465.883 122.591 458.185C118.648 450.487 109.145 447.421 101.447 451.364ZM119.292 459.875C122.349 465.845 119.893 473.053 114.08 476.03C108.11 479.088 100.902 476.631 97.9252 470.818C94.8676 464.848 97.324 457.64 103.137 454.663C109.107 451.606 116.234 453.905 119.292 459.875Z" fill="white"/>
<path d="M110.042 458.464L107.359 466.779L103.558 465.553C102.608 465.246 101.508 465.81 101.202 466.76C101.048 467.235 101.133 467.787 101.293 468.101C101.535 468.572 101.853 468.806 102.328 468.959L107.792 470.722C108.267 470.875 108.819 470.791 109.133 470.63C109.605 470.389 109.838 470.071 109.992 469.596L113.211 459.618C113.364 459.143 113.28 458.591 113.119 458.277C112.877 457.805 112.559 457.571 112.084 457.418C111.448 456.951 110.348 457.514 110.042 458.464Z" fill="white"/>
<path d="M43.991 534.338L29.266 505.587C25.8061 498.832 28.4885 490.517 35.2441 487.057L60.6955 474.022" stroke="#2CC19E" stroke-width="1.5" stroke-miterlimit="10" stroke-linecap="round" stroke-linejoin="round"/>
<path d="M59.0651 542.086L41.312 551.179C38.9554 552.386 35.9475 551.547 34.6601 549.033L25.5676 531.28C24.3606 528.923 25.1999 525.915 27.7136 524.628L45.3096 515.616C47.6662 514.409 50.6741 515.248 51.9615 517.762L61.054 535.515C62.4181 537.791 61.4217 540.88 59.0651 542.086Z" fill="#37C7A4"/>
<path d="M14.3765 451.733L2.12221 458.009C0.39403 458.894 -1.58701 458.124 -2.39165 456.553L-8.74834 444.141C-9.63345 442.413 -8.8632 440.432 -7.29213 439.627L4.96221 433.351C6.69039 432.466 8.67143 433.236 9.47607 434.807L15.7523 447.062C16.875 448.867 16.1047 450.848 14.3765 451.733Z" fill="#46B4A0"/>
<path d="M4.62866 447.802L10.4221 459.113C13.5602 465.241 21.082 467.536 27.0521 464.478L42.4486 456.593" stroke="#46B4A0" stroke-width="1.5" stroke-miterlimit="10" stroke-linecap="round" stroke-linejoin="round"/>
<path d="M1621.42 368.216L1513.54 396.079C1493.24 401.32 1481.03 422.033 1486.27 442.339L1502.1 503.616C1507.34 523.922 1528.05 536.129 1548.35 530.888L1572.87 524.557L1583.55 565.919L1621.89 511.894L1656.24 503.022C1676.54 497.781 1688.75 477.068 1683.51 456.761L1667.68 395.485C1662.43 375.176 1641.72 362.972 1621.42 368.216Z" fill="#ECF4FF"/>
<mask id="mask0_3020_19882" style="mask-type:luminance" maskUnits="userSpaceOnUse" x="1544" y="420" width="93" height="65">
<path d="M1547.33 481.042C1547.73 483.315 1550.08 484.756 1552.3 484.16L1633.44 462.42C1635.76 461.798 1636.98 459.401 1636.17 457.134C1632.26 446.794 1621.1 421.002 1607.86 425.688C1595.57 430.019 1601.16 450.883 1593.53 452.927C1582.03 456.007 1578.04 417.942 1559.2 421.025C1558.59 421.083 1558.21 421.187 1557.72 421.316C1538.89 426.363 1544.87 467.621 1547.33 481.042Z" fill="white"/>
</mask>
<g mask="url(#mask0_3020_19882)">
<path d="M1622.15 404.053L1532.9 427.968L1548.25 485.247L1637.5 461.332L1622.15 404.053Z" fill="#67DA74"/>
</g>
<path d="M1863.71 850.462C1853.3 807.94 1810.39 781.91 1767.87 792.327C1725.35 802.736 1699.32 845.655 1709.74 888.175C1715.36 911.131 1730.5 929.215 1749.88 939.413C1768.65 954.718 1779.87 980.801 1779.87 980.801L1812.09 972.911L1844.32 965.019C1844.32 965.019 1842.21 936.712 1851.78 914.459C1864.27 896.45 1869.34 873.422 1863.71 850.462Z" fill="#FFCB77"/>
<path d="M1863.29 969.634C1864.38 974.061 1861.63 978.58 1857.2 979.663L1775.22 999.743C1770.79 1000.83 1766.27 998.089 1765.19 993.658L1764.58 991.19C1763.5 986.762 1766.24 982.244 1770.67 981.162L1852.66 961.083C1857.08 959.998 1861.6 962.733 1862.68 967.165L1863.29 969.634Z" fill="#84DCF4"/>
<path d="M1867.84 988.214C1868.92 992.642 1866.19 997.16 1861.75 998.242L1779.77 1018.32C1775.34 1019.41 1770.82 1016.67 1769.74 1012.24L1769.13 1009.77C1768.05 1005.34 1770.79 1000.83 1775.22 999.743L1857.2 979.663C1861.63 978.577 1866.15 981.315 1867.23 985.745L1867.84 988.214Z" fill="#84DCF4"/>
<path d="M1872.39 1006.8C1873.48 1011.23 1870.74 1015.74 1866.31 1016.82L1784.32 1036.91C1779.89 1037.99 1775.37 1035.25 1774.29 1030.82L1773.68 1028.36C1772.6 1023.93 1775.34 1019.41 1779.77 1018.33L1861.75 998.244C1866.19 997.16 1870.7 999.899 1871.79 1004.33L1872.39 1006.8Z" fill="#84DCF4"/>
<path d="M1766.26 878.639C1773.34 894.772 1780.6 910.832 1788.01 926.821C1792.85 937.282 1797.76 947.736 1803.14 957.932C1804.42 960.364 1806.75 966.809 1810.18 967.103C1815.52 967.567 1806.62 878.974 1805.59 869.002C1805.36 866.716 1801.74 866.589 1801.98 868.898C1803.42 882.861 1804.73 896.837 1805.96 910.822C1807.4 927.211 1812.14 947.827 1808.84 964.176C1809.31 961.87 1811.19 964.464 1809.27 961.455C1808.5 960.237 1807.82 958.961 1807.12 957.702C1805.13 954.118 1803.32 950.438 1801.5 946.766C1796.67 937.03 1792.12 927.155 1787.57 917.279C1781.4 903.867 1775.35 890.392 1769.41 876.878C1768.48 874.747 1765.33 876.522 1766.26 878.639Z" fill="#DD690A"/>
<path d="M1762.51 899.099C1782.05 894.31 1801.6 889.524 1821.14 884.736C1823.41 884.183 1822.55 880.671 1820.28 881.228C1800.73 886.016 1781.19 890.8 1761.64 895.586C1759.38 896.144 1760.24 899.653 1762.51 899.099Z" fill="#DD690A"/>
<g clip-path="url(#clip2_3020_19882)">
<path d="M1954.73 682.433L1910.93 518.957C1909.21 512.55 1902.54 508.698 1896.14 510.415L1680.18 568.279C1673.78 569.995 1669.93 576.667 1671.64 583.074L1715.46 746.586L1954.74 682.468L1954.73 682.433Z" fill="#4D4D4D"/>
<path d="M1970.09 678.317L1926.29 514.842C1924.57 508.435 1917.9 504.583 1911.49 506.3L1695.51 564.173C1689.1 565.89 1685.25 572.562 1686.96 578.969L1730.78 742.48L1970.06 678.363L1970.09 678.317Z" fill="#3F3F3F"/>
<path d="M1942.85 685.617L1715.45 746.55L1720.27 764.555L1947.68 703.622L1942.85 685.617Z" fill="#666666"/>
<path d="M2021.46 664.554L1794.05 725.487L1798.88 743.492L2026.28 682.559L2021.46 664.554Z" fill="#4D4D4D"/>
<path d="M1778.66 715.993L1755.82 722.112L1759.22 734.819L1782.06 728.7L1778.66 715.993Z" fill="#777777"/>
<path d="M1912.4 524.433L1704.39 580.168L1739.48 711.106L1947.48 655.371L1912.4 524.433Z" fill="#FEC000"/>
<path d="M1885.17 609.802L1872.68 613.149L1872.77 623.521L1863.39 626.034L1865.28 581.83L1876.27 578.886L1900.01 616.222L1890.27 618.831L1885.17 609.802ZM1881.38 603.106L1879.37 599.616C1877.17 595.833 1874.81 591.324 1872.52 587.371L1872.27 587.438C1872.5 592.019 1872.62 597.051 1872.61 601.429L1872.61 605.456L1881.38 603.106Z" fill="white"/>
<path d="M1893.34 574.311L1902.62 571.826L1913.54 612.597L1904.27 615.081L1893.34 574.311Z" fill="white"/>
<path d="M1829.57 546.627L1826.46 547.462L1861.54 678.4L1864.65 677.565L1829.57 546.627Z" fill="white"/>
<path d="M1820.84 548.968L1817.72 549.803L1852.81 680.741L1855.92 679.906L1820.84 548.968Z" fill="white"/>
<path d="M1787.23 579.035L1762.27 564.623L1757.86 565.803L1786.76 582.459L1825.35 572.119L1824.53 569.041L1787.23 579.035Z" fill="white"/>
<path d="M1786.4 592.686L1745.05 569.236L1740.61 570.426L1785.98 596.135L1828.72 584.683L1827.88 581.569L1786.4 592.686Z" fill="white"/>
<path d="M1832.35 598.25L1784.89 610.968L1764.3 599.295L1765.89 596.491L1785.31 607.518L1831.52 595.135L1832.35 598.25Z" fill="white"/>
<path d="M1762.17 603.628C1757.58 604.856 1752.9 602.121 1751.68 597.575C1750.46 593.029 1753.19 588.309 1757.74 587.091C1762.28 585.873 1767 588.598 1768.22 593.144C1769.44 597.69 1766.71 602.41 1762.17 603.628ZM1758.56 590.169C1755.7 590.937 1753.99 593.887 1754.76 596.75C1755.53 599.614 1758.48 601.317 1761.34 600.55C1764.21 599.783 1765.91 596.833 1765.14 593.969C1764.37 591.105 1761.42 589.402 1758.56 590.169Z" fill="white"/>
<path d="M1809.79 668.403L1793.61 696.487L1797.98 695.317L1811.92 671.172L1849.21 661.178L1848.38 658.063L1809.79 668.403Z" fill="white"/>
<path d="M1802.28 656.987L1776.35 701.11L1780.79 699.921L1804.37 659.766L1845.86 648.649L1845.02 645.535L1802.28 656.987Z" fill="white"/>
<path d="M1784.71 666.721L1781.93 665.087L1793.92 644.687L1841.39 631.969L1842.22 635.083L1796.01 647.465L1784.71 666.721Z" fill="white"/>
<path d="M1782.36 678.977C1777.77 680.205 1773.09 677.47 1771.87 672.924C1770.65 668.378 1773.38 663.658 1777.92 662.44C1782.47 661.222 1787.19 663.947 1788.41 668.493C1789.63 673.039 1786.9 677.759 1782.36 678.977ZM1778.75 665.518C1775.89 666.285 1774.18 669.235 1774.95 672.099C1775.72 674.963 1778.67 676.666 1781.53 675.899C1784.39 675.131 1786.1 672.181 1785.33 669.318C1784.56 666.454 1781.61 664.751 1778.75 665.518Z" fill="white"/>
<path d="M1755.01 676.291L1752.2 674.666L1774.58 635.942L1837.91 618.975L1838.73 622.053L1776.7 638.675L1755.01 676.291Z" fill="white"/>
<path d="M1835.43 609.74L1772.11 626.707L1733.35 604.329L1734.98 601.551L1772.57 623.283L1834.61 606.662L1835.43 609.74Z" fill="white"/>
<path d="M1752.7 689.723C1748.12 690.951 1743.44 688.216 1742.22 683.67C1741 679.124 1743.72 674.404 1748.27 673.186C1752.82 671.968 1757.54 674.693 1758.76 679.239C1759.97 683.785 1757.25 688.505 1752.7 689.723ZM1749.1 676.264C1746.23 677.031 1744.53 679.982 1745.3 682.845C1746.06 685.709 1749.01 687.412 1751.88 686.645C1754.74 685.877 1756.44 682.927 1755.68 680.064C1754.91 677.2 1751.96 675.497 1749.1 676.264Z" fill="white"/>
<path d="M1730.67 607.502C1726.09 608.73 1721.4 605.995 1720.19 601.449C1718.97 596.903 1721.69 592.183 1726.24 590.965C1730.79 589.747 1735.51 592.472 1736.72 597.018C1737.94 601.564 1735.22 606.284 1730.67 607.502ZM1727.06 594.043C1724.2 594.811 1722.5 597.761 1723.27 600.624C1724.03 603.488 1726.98 605.191 1729.85 604.424C1732.71 603.657 1734.41 600.707 1733.65 597.843C1732.88 594.979 1729.93 593.276 1727.06 594.043Z" fill="white"/>
</g>
<g clip-path="url(#clip3_3020_19882)">
<path d="M139.911 262.504C177.129 198.041 154.963 115.315 90.4993 78.097C26.0361 40.8791 -56.6932 63.0322 -93.9159 127.504L-75.4548 138.162C-44.1121 83.8753 25.5586 65.2071 79.8456 96.5498C134.133 127.892 152.801 197.563 121.458 251.85C90.1156 306.137 20.4498 324.797 -33.8373 293.454L-44.4958 311.916C19.9674 349.133 102.693 326.967 139.911 262.504Z" fill="#9B7CE4"/>
<path d="M106.37 243.139C132.91 197.17 117.108 138.17 71.139 111.63C25.1704 85.0898 -33.8297 100.892 -60.3746 146.869L-49.8302 152.957C-26.6481 112.804 24.8855 98.9957 65.038 122.178C105.19 145.36 118.999 196.893 95.8168 237.046C84.2016 257.164 65.363 271.259 42.7777 276.731L45.6519 288.567C71.5057 282.304 93.0647 266.164 106.361 243.134L106.37 243.139Z" fill="#ECF4FF"/>
<path d="M82.6949 229.47C101.698 196.557 90.3793 154.316 57.4656 135.313C24.5519 116.311 -17.6971 127.624 -36.6998 160.538L-15.6026 172.718C-3.31582 151.437 24.0002 144.11 45.2899 156.402C66.5796 168.694 73.8893 196 61.5977 217.29C49.3061 238.579 21.9948 245.898 0.713514 233.611C-7.84756 228.668 -14.3684 221.254 -18.143 212.157L-40.6366 221.509C-34.7843 235.589 -24.6977 247.069 -11.467 254.708C21.4467 273.711 63.6873 262.392 82.6901 229.479L82.6949 229.47Z" fill="#FEC000"/>
</g>
<path d="M1936.85 168.676C1938.14 182.955 1927.6 195.582 1913.32 196.847C1907.1 197.415 1901.21 195.711 1896.41 192.483C1893.52 190.521 1891.04 187.965 1889.13 184.995C1886.93 181.587 1885.51 177.636 1885.13 173.324C1883.84 159.044 1894.37 146.418 1908.68 145.152C1912.42 144.817 1916.04 145.282 1919.37 146.444C1922.72 147.58 1925.77 149.387 1928.38 151.737C1933.08 155.972 1936.25 161.911 1936.87 168.702L1936.85 168.676Z" fill="#9B7CE4"/>
<path d="M2021 178.488L2017.9 143.991L1984.77 139.394L1982.58 139.085C1981.23 136.063 1979.69 133.12 1977.98 130.305L1994.07 98.493L1979.56 86.3568L1971.63 79.7207L1967.52 76.2864L1939.07 97.7958C1936.25 96.7113 1933.36 95.7817 1930.39 95.0329C1930.13 94.9554 1929.88 94.9038 1929.62 94.8263L1918.49 61L1884.02 64.0986L1879.11 99.3967C1876.06 100.765 1873.15 102.289 1870.33 103.993L1838.52 87.9061L1816.31 114.502L1837.8 142.932C1836.63 146.005 1835.63 149.155 1834.85 152.383L1801 163.486L1804.1 197.984L1839.4 202.89C1840.15 204.62 1840.97 206.298 1841.88 207.951C1842.52 209.216 1843.24 210.455 1843.97 211.669L1827.88 243.481L1837.18 251.228L1845.13 257.864L1854.48 265.662L1882.91 244.178C1885.98 245.366 1889.13 246.347 1892.36 247.148L1894.71 254.3L1903.49 281L1937.96 277.901L1942.86 242.603C1945.91 241.235 1948.83 239.711 1951.64 238.007L1983.46 254.094L2005.64 227.523L1984.15 199.094C1985.31 196.021 1986.32 192.871 1987.1 189.643L2020.97 178.514L2021 178.488ZM1920.86 220.939C1919.13 221.275 1917.35 221.533 1915.57 221.688C1902.76 222.85 1890.65 219.157 1881.02 212.108C1878.23 210.094 1875.62 207.744 1873.3 205.162C1867.7 198.991 1863.57 191.373 1861.53 182.904C1860.96 180.502 1860.54 178.049 1860.31 175.545C1857.81 147.554 1878.46 122.817 1906.46 120.286C1907.9 120.157 1909.32 120.08 1910.77 120.08C1919.55 120.028 1927.91 122.223 1935.22 126.2C1938.27 127.852 1941.16 129.815 1943.79 132.061C1953.73 140.401 1960.47 152.512 1961.71 166.43C1961.79 167.178 1961.84 167.901 1961.87 168.65C1963.03 193.955 1945.42 216.136 1920.89 220.939H1920.86Z" fill="#9B7CE4"/>
<g clip-path="url(#clip4_3020_19882)">
<path d="M428.399 660.133L410.926 694.255C407.892 700.181 381.914 693.068 352.939 678.23C323.963 663.393 303.008 646.473 306.042 640.547L323.515 606.425L428.399 660.133Z" fill="#5549FF"/>
<path d="M323.515 606.425C320.48 612.35 341.436 629.271 370.412 644.108C399.387 658.946 425.365 666.058 428.399 660.133C431.433 654.207 410.478 637.287 381.502 622.45C352.526 607.612 326.549 600.5 323.515 606.425Z" fill="#7D7DFF"/>
<path d="M416.488 600.905L399.014 635.028C395.98 640.953 370.003 633.841 341.027 619.003C312.051 604.165 291.096 587.245 294.13 581.32L311.603 547.197L416.488 600.905Z" fill="#7369FF"/>
<path d="M313.272 544.442C310.761 549.345 332.135 565.448 361.111 580.286C390.086 595.123 415.645 603.053 418.156 598.149C420.668 593.246 399.294 577.143 370.318 562.305C341.342 547.468 315.783 539.538 313.272 544.442Z" fill="#9B9BFF"/>
<path d="M471.506 575.951L454.033 610.073C450.999 615.999 425.021 608.886 396.046 594.049C367.07 579.211 346.115 562.291 349.149 556.366L366.622 522.243L471.506 575.951Z" fill="#6E87FA"/>
<path d="M366.622 522.243C363.588 528.169 384.543 545.089 413.519 559.927C442.494 574.764 468.472 581.877 471.506 575.951C474.54 570.026 453.585 553.106 424.609 538.268C395.633 523.43 369.656 516.318 366.622 522.243Z" fill="#A0A5FF"/>
<path d="M419.064 549.097L467.836 533.323L515.789 557.878" stroke="#A0A5FF" stroke-width="1.5" stroke-miterlimit="10" stroke-linecap="round" stroke-linejoin="round"/>
<path d="M527.012 563.625C523.873 569.755 516.156 572.251 510.034 569.116C503.913 565.982 501.427 558.261 504.566 552.131C507.705 546.002 515.422 543.506 521.543 546.641C527.665 549.775 530.151 557.496 527.012 563.625Z" fill="#A0A5FF"/>
<path d="M267.038 663.903C263.9 670.033 266.385 677.753 272.507 680.888C278.628 684.023 286.346 681.527 289.484 675.397C292.623 669.267 290.138 661.547 284.016 658.412C277.894 655.277 270.177 657.773 267.038 663.903Z" fill="#5549FF"/>
<path d="M364.684 662.839L343.967 703.296L279.282 670.172" stroke="#5549FF" stroke-width="1.5" stroke-miterlimit="10" stroke-linecap="round" stroke-linejoin="round"/>
<path d="M315.602 577.615L269.486 554.001L255.268 509.84" stroke="#7369FF" stroke-width="1.5" stroke-miterlimit="10" stroke-linecap="round" stroke-linejoin="round"/>
<path d="M266.491 515.586C263.352 521.716 255.635 524.212 249.513 521.077C243.392 517.943 240.906 510.222 244.045 504.092C247.184 497.963 254.901 495.467 261.023 498.601C267.144 501.736 269.735 509.252 266.491 515.586Z" fill="#7369FF"/>
</g>
</g>
<defs>
<clipPath id="clip0_3020_19882">
<rect width="1920" height="1020" fill="white"/>
</clipPath>
<clipPath id="clip1_3020_19882">
<rect width="334.519" height="268.051" fill="white" transform="translate(38.0906 693.632) rotate(30)"/>
</clipPath>
<clipPath id="clip2_3020_19882">
<rect width="316.806" height="200" fill="white" transform="translate(1668.52 571.405) rotate(-15)"/>
</clipPath>
<clipPath id="clip3_3020_19882">
<rect width="270" height="270" fill="white" transform="translate(-161.413 244.413) rotate(-60)"/>
</clipPath>
<clipPath id="clip4_3020_19882">
<rect width="279" height="233" fill="white" transform="translate(284.432 425.223) rotate(27.1156)"/>
</clipPath>
</defs>
</svg>
