<svg width="1920" height="1002" viewBox="0 0 1920 1002" fill="none" xmlns="http://www.w3.org/2000/svg">
<g clip-path="url(#clip0_3012_38)">
<rect width="1920" height="1158" fill="#6B3ED7"/>
<g style="mix-blend-mode:luminosity" opacity="0.3">
<path d="M310.635 249.062L224.655 335.042L252.382 362.769L338.363 276.789L310.635 249.062Z" fill="#3777FD"/>
<path d="M252.637 249.059L224.909 276.786L310.889 362.766L338.617 335.039L252.637 249.059Z" fill="#3777FD"/>
<path d="M1499.12 28.2375L1437.31 90.0518L1457.15 109.893L1518.97 48.0792L1499.12 28.2375Z" fill="#FCCA46"/>
<path d="M1457.13 28.421L1437.29 48.2627L1499.1 110.077L1518.94 90.2353L1457.13 28.421Z" fill="#FCCA46"/>
<path d="M23.2573 181.649L-38.5569 243.463L-18.7153 263.305L43.0989 201.49L23.2573 181.649Z" fill="#F6A091"/>
<path d="M-18.9575 181.704L-38.802 201.543L23.0035 263.366L42.848 243.527L-18.9575 181.704Z" fill="#F6A091"/>
<path d="M439.834 1004.38C439.834 1024.88 423.286 1041.79 402.42 1041.79C381.915 1041.79 365.006 1025.24 365.006 1004.38C365.006 983.512 381.555 966.963 402.42 966.963C423.286 966.963 439.834 983.871 439.834 1004.38Z" fill="#FCCA46"/>
<path d="M1833.51 356.467C1854.17 356.467 1870.92 339.716 1870.92 319.053C1870.92 298.39 1854.17 281.639 1833.51 281.639C1812.85 281.639 1796.09 298.39 1796.09 319.053C1796.09 339.716 1812.85 356.467 1833.51 356.467Z" fill="#FCCA46"/>
<path d="M642.014 126.225C657.909 126.225 670.794 113.34 670.794 97.4451C670.794 81.5503 657.909 68.665 642.014 68.665C626.119 68.665 613.234 81.5503 613.234 97.4451C613.234 113.34 626.119 126.225 642.014 126.225Z" fill="#FCCA46"/>
<path d="M1179.84 90.61C1179.84 99.6038 1172.29 107.159 1163.29 107.159C1154.3 107.159 1146.74 99.6038 1146.74 90.61C1146.74 81.6163 1154.3 74.0615 1163.29 74.0615C1172.29 74.0615 1179.84 81.2565 1179.84 90.61Z" fill="#FCCA46"/>
<path d="M1394.25 845.37C1394.25 854.364 1386.7 861.918 1377.7 861.918C1368.71 861.918 1361.16 854.364 1361.16 845.37C1361.16 836.376 1368.71 828.821 1377.7 828.821C1386.7 828.821 1394.25 836.016 1394.25 845.37Z" fill="#FCCA46"/>
<path d="M908.949 947.899C908.949 956.893 901.394 964.448 892.401 964.448C883.407 964.448 875.852 956.893 875.852 947.899C875.852 938.905 883.407 931.351 892.401 931.351C901.394 931.351 908.949 938.905 908.949 947.899Z" fill="#FCCA46"/>
<path d="M180.454 566.922C180.454 575.915 172.899 583.47 163.906 583.47C154.912 583.47 147.357 575.915 147.357 566.922C147.357 557.928 154.912 550.373 163.906 550.373C173.259 550.373 180.454 557.928 180.454 566.922Z" fill="#FCCA46"/>
<path d="M1796.09 639.591C1796.09 652.902 1785.3 663.335 1772.35 663.335C1759.04 663.335 1748.61 652.542 1748.61 639.591C1748.61 626.28 1759.4 615.848 1772.35 615.848C1785.3 615.848 1796.09 626.28 1796.09 639.591Z" fill="#FCCA46"/>
<path d="M1829.19 477.346C1829.19 486.34 1821.64 493.895 1812.64 493.895C1803.65 493.895 1796.09 486.34 1796.09 477.346C1796.09 468.353 1803.65 460.798 1812.64 460.798C1821.64 461.158 1829.19 468.353 1829.19 477.346Z" fill="#F6A091"/>
<path d="M462.139 76.944C462.139 85.9378 454.584 93.4925 445.59 93.4925C436.596 93.4925 429.042 85.9378 429.042 76.944C429.042 67.9502 436.596 60.3955 445.59 60.3955C454.584 60.3955 462.139 67.5905 462.139 76.944Z" fill="#F6A091"/>
<path d="M1107.17 812.631C1107.17 825.942 1096.38 836.375 1083.43 836.375C1070.12 836.375 1059.68 825.582 1059.68 812.631C1059.68 799.32 1070.48 788.888 1083.43 788.888C1096.38 788.888 1107.17 799.32 1107.17 812.631Z" fill="#F6A091"/>
<path d="M239.453 699.31C239.453 712.621 228.661 723.054 215.709 723.054C202.399 723.054 191.966 712.261 191.966 699.31C191.966 685.999 202.758 675.566 215.709 675.566C228.661 675.566 239.453 685.999 239.453 699.31Z" fill="#F6A091"/>
<path opacity="0.4" d="M1796.09 1556.23C1972.92 1556.23 2116.27 1412.88 2116.27 1236.05C2116.27 1059.23 1972.92 915.877 1796.09 915.877C1619.26 915.877 1475.92 1059.23 1475.92 1236.05C1475.92 1412.88 1619.26 1556.23 1796.09 1556.23Z" fill="#273F95"/>
<path opacity="0.4" d="M239.813 50.3199L1848.26 -216.615L1716.59 -345.046L239.813 -315.906V50.3199Z" fill="#273F95"/>
<path opacity="0.4" d="M1078.39 -535.353L1923.81 333.085L1964.46 -491.823L1078.39 -535.353Z" fill="#273F95"/>
<path d="M101.67 899.245L78.0131 922.905L151.539 996.421L175.197 972.76L101.67 899.245Z" fill="#3777FD"/>
<path d="M151.533 899.25L78.0069 972.766L101.664 996.426L175.19 922.911L151.533 899.25Z" fill="#3777FD"/>
<path d="M198.875 996.791L175.218 1020.45L248.733 1093.96L272.391 1070.31L198.875 996.791Z" fill="#3777FD"/>
<path d="M248.702 996.835L175.186 1070.35L198.844 1094.01L272.359 1020.49L248.702 996.835Z" fill="#3777FD"/>
<path d="M1855.81 1469.18C2032.64 1469.18 2175.99 1325.83 2175.99 1149C2175.99 972.169 2032.64 828.82 1855.81 828.82C1678.98 828.82 1535.63 972.169 1535.63 1149C1535.63 1325.83 1678.98 1469.18 1855.81 1469.18Z" fill="#3777FD"/>
<path d="M1855.81 1385.71C1986.55 1385.71 2092.53 1279.73 2092.53 1149C2092.53 1018.26 1986.55 912.279 1855.81 912.279C1725.08 912.279 1619.1 1018.26 1619.1 1149C1619.1 1279.73 1725.08 1385.71 1855.81 1385.71Z" fill="#273F95"/>
<path d="M2213.2 1245.68C2266.66 1048.35 2150.03 845.04 1952.7 791.577C1755.37 738.114 1552.06 854.743 1498.59 1052.08C1445.13 1249.41 1561.76 1452.72 1759.09 1506.18C1956.42 1559.64 2159.73 1443.01 2213.2 1245.68Z" stroke="#FCCA46" stroke-width="5" stroke-miterlimit="10" stroke-linecap="round" stroke-dasharray="12 12"/>
<path d="M1007.52 -670.979L1853.29 197.459L1893.95 -627.089L1007.52 -670.979Z" fill="#3777FD"/>
<path d="M1079.47 -616.66L1966.62 208.967V-616.66H1079.47Z" fill="#B0C5F4"/>
</g>
<g opacity="0.4" clip-path="url(#clip1_3012_38)">
<path d="M1581 255.7H1683.84V350.93C1683.84 355.13 1680.43 358.55 1676.22 358.55H1588.62C1584.42 358.55 1581 355.14 1581 350.93V255.7Z" fill="url(#paint0_linear_3012_38)"/>
<path d="M1656.3 283.24H1608.54V331H1656.3V283.24Z" fill="url(#paint1_linear_3012_38)"/>
<path d="M1646.75 292.8H1618.09V321.46H1646.75V292.8Z" fill="white"/>
<path d="M1643.31 296.24H1621.53V318.02H1643.31V296.24Z" fill="url(#paint2_linear_3012_38)"/>
<path d="M1631.27 308.271H1623.76V315.781H1631.27V308.271Z" fill="white"/>
<path d="M1644.46 271.53H1639.87V288.09H1644.46V271.53Z" fill="url(#paint3_linear_3012_38)"/>
<path d="M1634.72 271.53H1630.13V288.09H1634.72V271.53Z" fill="url(#paint4_linear_3012_38)"/>
<path d="M1624.98 271.53H1620.39V288.09H1624.98V271.53Z" fill="url(#paint5_linear_3012_38)"/>
<path d="M1668.02 319.17V314.58H1651.46V319.17H1668.02Z" fill="url(#paint6_linear_3012_38)"/>
<path d="M1668.02 309.42V304.83H1651.46V309.42H1668.02Z" fill="url(#paint7_linear_3012_38)"/>
<path d="M1668.03 299.68V295.09H1651.47V299.68H1668.03Z" fill="url(#paint8_linear_3012_38)"/>
<path d="M1620.38 342.72H1624.97V326.16H1620.38V342.72Z" fill="url(#paint9_linear_3012_38)"/>
<path d="M1630.12 342.72H1634.71V326.16H1630.12V342.72Z" fill="url(#paint10_linear_3012_38)"/>
<path d="M1639.87 342.72H1644.46V326.16H1639.87V342.72Z" fill="url(#paint11_linear_3012_38)"/>
<path d="M1596.82 295.08V299.67H1613.38V295.08H1596.82Z" fill="url(#paint12_linear_3012_38)"/>
<path d="M1596.83 304.83V309.42H1613.39V304.83H1596.83Z" fill="url(#paint13_linear_3012_38)"/>
<path d="M1596.82 314.57V319.16H1613.38V314.57H1596.82Z" fill="url(#paint14_linear_3012_38)"/>
<path d="M1678.67 243H1586.17C1583.32 243 1581 245.32 1581 248.17V255.7H1683.84V248.17C1683.84 245.31 1681.52 243 1678.67 243Z" fill="url(#paint15_linear_3012_38)"/>
</g>
<g opacity="0.4" clip-path="url(#clip2_3012_38)">
<path d="M1544.71 281.12H1538.5V303.12H1544.71V281.12Z" stroke="white" stroke-miterlimit="10"/>
<path d="M1554.57 272.32H1548.36V303.11H1554.57V272.32Z" stroke="white" stroke-miterlimit="10"/>
<path d="M1564.98 267.5H1558.77V303.11H1564.98V267.5Z" stroke="white" stroke-miterlimit="10"/>
</g>
<g opacity="0.5">
<path d="M288.163 449.21H227.136C217.284 449.21 209.297 457.197 209.297 467.049V528.076C209.297 537.928 217.284 545.915 227.136 545.915H288.163C298.015 545.915 306.002 537.928 306.002 528.076V467.049C306.002 457.197 298.015 449.21 288.163 449.21Z" fill="#7077D4"/>
<path d="M229.506 465.227H285.793C288.109 465.227 289.987 467.104 289.987 469.42V525.707C289.987 528.023 288.109 529.901 285.793 529.901H229.493C227.176 529.901 225.299 528.023 225.299 525.707V469.42C225.299 467.104 227.176 465.227 229.493 465.227H229.506Z" fill="#48C8FF"/>
<path d="M274.81 477.475H240.489C238.871 477.475 237.56 478.786 237.56 480.403V514.724C237.56 516.342 238.871 517.653 240.489 517.653H274.81C276.427 517.653 277.739 516.342 277.739 514.724V480.403C277.739 478.786 276.427 477.475 274.81 477.475Z" fill="#1BAAFA"/>
<path d="M272.16 488.896H283.317" stroke="#1D254F" stroke-width="1.28" stroke-miterlimit="10"/>
<path d="M272.16 494.673H283.317" stroke="#1D254F" stroke-width="1.28" stroke-miterlimit="10"/>
<path d="M272.16 500.451H283.317" stroke="#1D254F" stroke-width="1.28" stroke-miterlimit="10"/>
<path d="M272.16 506.229H283.317" stroke="#1D254F" stroke-width="1.28" stroke-miterlimit="10"/>
<path d="M231.996 488.896H243.139" stroke="#1D254F" stroke-width="1.28" stroke-miterlimit="10"/>
<path d="M231.996 494.673H243.139" stroke="#1D254F" stroke-width="1.28" stroke-miterlimit="10"/>
<path d="M231.996 500.451H243.139" stroke="#1D254F" stroke-width="1.28" stroke-miterlimit="10"/>
<path d="M231.996 506.229H243.139" stroke="#1D254F" stroke-width="1.28" stroke-miterlimit="10"/>
<path d="M266.316 512.073V523.216" stroke="#1D254F" stroke-width="1.28" stroke-miterlimit="10"/>
<path d="M260.538 512.073V523.216" stroke="#1D254F" stroke-width="1.28" stroke-miterlimit="10"/>
<path d="M254.76 512.073V523.216" stroke="#1D254F" stroke-width="1.28" stroke-miterlimit="10"/>
<path d="M248.996 512.073V523.216" stroke="#1D254F" stroke-width="1.28" stroke-miterlimit="10"/>
<path d="M266.316 471.909V483.052" stroke="#1D254F" stroke-width="1.28" stroke-miterlimit="10"/>
<path d="M260.538 471.909V483.052" stroke="#1D254F" stroke-width="1.28" stroke-miterlimit="10"/>
<path d="M254.76 471.909V483.052" stroke="#1D254F" stroke-width="1.28" stroke-miterlimit="10"/>
<path d="M248.996 471.909V483.052" stroke="#1D254F" stroke-width="1.28" stroke-miterlimit="10"/>
<path d="M320.792 476.037H300.464V479.365H320.792V476.037Z" fill="white"/>
<path d="M327.648 477.714C327.648 480.67 325.252 483.053 322.31 483.053C319.368 483.053 316.971 480.657 316.971 477.714C316.971 474.772 319.368 472.376 322.31 472.376C325.252 472.376 327.648 474.772 327.648 477.714Z" fill="white"/>
<path d="M320.792 494.675H300.464V498.003H320.792V494.675Z" fill="white"/>
<path d="M327.648 496.339C327.648 499.295 325.252 501.678 322.31 501.678C319.368 501.678 316.971 499.282 316.971 496.339C316.971 493.397 319.368 491.001 322.31 491.001C325.252 491.001 327.648 493.397 327.648 496.339Z" fill="white"/>
<path d="M320.792 513.313H300.464V516.642H320.792V513.313Z" fill="white"/>
<path d="M327.649 514.977C327.649 517.933 325.252 520.316 322.31 520.316C319.368 520.316 316.972 517.919 316.972 514.977C316.972 512.035 319.368 509.639 322.31 509.639C325.252 509.639 327.649 512.035 327.649 514.977Z" fill="white"/>
<path d="M214.835 476.037H194.506V479.365H214.835V476.037Z" fill="white"/>
<path d="M187.65 477.714C187.65 480.67 190.046 483.053 192.988 483.053C195.931 483.053 198.327 480.657 198.327 477.714C198.327 474.772 195.931 472.376 192.988 472.376C190.046 472.376 187.65 474.772 187.65 477.714Z" fill="white"/>
<path d="M214.835 494.675H194.506V498.003H214.835V494.675Z" fill="white"/>
<path d="M187.65 496.339C187.65 499.295 190.046 501.678 192.988 501.678C195.931 501.678 198.327 499.282 198.327 496.339C198.327 493.397 195.931 491.001 192.988 491.001C190.046 491.001 187.65 493.397 187.65 496.339Z" fill="white"/>
<path d="M214.835 513.313H194.506V516.642H214.835V513.313Z" fill="white"/>
<path d="M187.65 514.977C187.65 517.933 190.046 520.316 192.988 520.316C195.931 520.316 198.327 517.919 198.327 514.977C198.327 512.035 195.931 509.639 192.988 509.639C190.046 509.639 187.65 512.035 187.65 514.977Z" fill="white"/>
<path d="M240.675 433.196H237.347V453.525H240.675V433.196Z" fill="white"/>
<path d="M239.011 426.34C241.967 426.34 244.35 428.736 244.35 431.678C244.35 434.62 241.953 437.017 239.011 437.017C236.069 437.017 233.673 434.62 233.673 431.678C233.673 428.736 236.069 426.34 239.011 426.34Z" fill="white"/>
<path d="M259.313 433.196H255.985V453.525H259.313V433.196Z" fill="white"/>
<path d="M257.649 426.34C260.605 426.34 262.988 428.736 262.988 431.678C262.988 434.62 260.591 437.017 257.649 437.017C254.707 437.017 252.311 434.62 252.311 431.678C252.311 428.736 254.707 426.34 257.649 426.34Z" fill="white"/>
<path d="M277.951 433.196H274.623V453.525H277.951V433.196Z" fill="white"/>
<path d="M276.287 426.34C279.243 426.34 281.626 428.736 281.626 431.678C281.626 434.62 279.229 437.017 276.287 437.017C273.345 437.017 270.949 434.62 270.949 431.678C270.949 428.736 273.345 426.34 276.287 426.34Z" fill="white"/>
<path d="M240.675 539.154H237.347V559.483H240.675V539.154Z" fill="white"/>
<path d="M239.011 566.339C241.966 566.339 244.349 563.943 244.349 561.001C244.349 558.058 241.953 555.662 239.011 555.662C236.069 555.662 233.672 558.058 233.672 561.001C233.672 563.943 236.069 566.339 239.011 566.339Z" fill="white"/>
<path d="M259.313 539.154H255.985V559.483H259.313V539.154Z" fill="white"/>
<path d="M257.649 566.339C260.605 566.339 262.988 563.943 262.988 561.001C262.988 558.058 260.591 555.662 257.649 555.662C254.707 555.662 252.311 558.058 252.311 561.001C252.311 563.943 254.707 566.339 257.649 566.339Z" fill="white"/>
<path d="M277.951 539.154H274.623V559.483H277.951V539.154Z" fill="white"/>
<path d="M276.287 566.339C279.243 566.339 281.626 563.943 281.626 561.001C281.626 558.058 279.229 555.662 276.287 555.662C273.345 555.662 270.949 558.058 270.949 561.001C270.949 563.943 273.345 566.339 276.287 566.339Z" fill="white"/>
</g>
</g>
<defs>
<linearGradient id="paint0_linear_3012_38" x1="1593.43" y1="261.16" x2="1709.22" y2="390.66" gradientUnits="userSpaceOnUse">
<stop stop-color="#EDE8FF"/>
<stop offset="0.26" stop-color="#DBD2FF"/>
<stop offset="1" stop-color="#A793FF"/>
</linearGradient>
<linearGradient id="paint1_linear_3012_38" x1="1563.66" y1="200.33" x2="1721.94" y2="446.17" gradientUnits="userSpaceOnUse">
<stop stop-color="#DBCCFF"/>
<stop offset="0.5" stop-color="#6744FF"/>
<stop offset="1" stop-color="#240068"/>
</linearGradient>
<linearGradient id="paint2_linear_3012_38" x1="1606.97" y1="274.18" x2="1670.25" y2="356.09" gradientUnits="userSpaceOnUse">
<stop stop-color="#FF7D71"/>
<stop offset="0.53" stop-color="#BD1F00"/>
<stop offset="1" stop-color="#741000"/>
</linearGradient>
<linearGradient id="paint3_linear_3012_38" x1="1642.17" y1="292.29" x2="1642.17" y2="265.41" gradientUnits="userSpaceOnUse">
<stop stop-color="#F4DC73"/>
<stop offset="1" stop-color="#E57300"/>
</linearGradient>
<linearGradient id="paint4_linear_3012_38" x1="1632.42" y1="243" x2="1632.42" y2="243" gradientUnits="userSpaceOnUse">
<stop stop-color="#F4DC73"/>
<stop offset="1" stop-color="#E57300"/>
</linearGradient>
<linearGradient id="paint5_linear_3012_38" x1="1622.68" y1="243" x2="1622.68" y2="243" gradientUnits="userSpaceOnUse">
<stop stop-color="#F4DC73"/>
<stop offset="1" stop-color="#E57300"/>
</linearGradient>
<linearGradient id="paint6_linear_3012_38" x1="1645.41" y1="316.87" x2="1673.56" y2="316.87" gradientUnits="userSpaceOnUse">
<stop stop-color="#F4DC73"/>
<stop offset="1" stop-color="#E57300"/>
</linearGradient>
<linearGradient id="paint7_linear_3012_38" x1="1645.41" y1="307.13" x2="1673.56" y2="307.13" gradientUnits="userSpaceOnUse">
<stop stop-color="#F4DC73"/>
<stop offset="1" stop-color="#E57300"/>
</linearGradient>
<linearGradient id="paint8_linear_3012_38" x1="1645.41" y1="297.38" x2="1673.56" y2="297.38" gradientUnits="userSpaceOnUse">
<stop stop-color="#F4DC73"/>
<stop offset="1" stop-color="#E57300"/>
</linearGradient>
<linearGradient id="paint9_linear_3012_38" x1="1622.68" y1="322.73" x2="1622.68" y2="345.81" gradientUnits="userSpaceOnUse">
<stop stop-color="#F4DC73"/>
<stop offset="1" stop-color="#E57300"/>
</linearGradient>
<linearGradient id="paint10_linear_3012_38" x1="1632.42" y1="322.73" x2="1632.42" y2="345.81" gradientUnits="userSpaceOnUse">
<stop stop-color="#F4DC73"/>
<stop offset="1" stop-color="#E57300"/>
</linearGradient>
<linearGradient id="paint11_linear_3012_38" x1="1581" y1="322.73" x2="1582" y2="345.81" gradientUnits="userSpaceOnUse">
<stop stop-color="#F4DC73"/>
<stop offset="1" stop-color="#E57300"/>
</linearGradient>
<linearGradient id="paint12_linear_3012_38" x1="1616.76" y1="297.38" x2="1594.59" y2="297.38" gradientUnits="userSpaceOnUse">
<stop stop-color="#F4DC73"/>
<stop offset="1" stop-color="#E57300"/>
</linearGradient>
<linearGradient id="paint13_linear_3012_38" x1="1616.76" y1="307.13" x2="1594.59" y2="307.13" gradientUnits="userSpaceOnUse">
<stop stop-color="#F4DC73"/>
<stop offset="1" stop-color="#E57300"/>
</linearGradient>
<linearGradient id="paint14_linear_3012_38" x1="1616.76" y1="316.87" x2="1594.59" y2="316.87" gradientUnits="userSpaceOnUse">
<stop stop-color="#F4DC73"/>
<stop offset="1" stop-color="#E57300"/>
</linearGradient>
<linearGradient id="paint15_linear_3012_38" x1="1630.68" y1="219.89" x2="1635.24" y2="303.64" gradientUnits="userSpaceOnUse">
<stop stop-color="#F4DC73"/>
<stop offset="1" stop-color="#E57300"/>
</linearGradient>
<clipPath id="clip0_3012_38">
<rect width="1920" height="1002" fill="white"/>
</clipPath>
<clipPath id="clip1_3012_38">
<rect width="102.84" height="115.55" fill="white" transform="translate(1581 243)"/>
</clipPath>
<clipPath id="clip2_3012_38">
<rect width="27.48" height="36.61" fill="white" transform="translate(1538 267)"/>
</clipPath>
</defs>
</svg>
