<svg width="36" height="36" viewBox="0 0 36 36" fill="none" xmlns="http://www.w3.org/2000/svg">
<mask id="mask0_1631_2259" style="mask-type:alpha" maskUnits="userSpaceOnUse" x="0" y="0" width="36" height="36">
<rect width="36" height="36" fill="#D9D9D9"/>
</mask>
<g mask="url(#mask0_1631_2259)">
<path d="M15.285 24.5478C17.8643 24.5478 20.0529 23.6451 21.8509 21.8396C23.6491 20.0341 24.5483 17.8417 24.5483 15.2625C24.5483 12.6835 23.6475 10.4901 21.846 8.68233C20.0445 6.87458 17.857 5.9707 15.2835 5.9707C12.71 5.9707 10.5194 6.87345 8.71163 8.67895C6.90388 10.4845 6 12.6767 6 15.2557C6 17.835 6.90275 20.0285 8.70825 21.8362C10.5135 23.644 12.7057 24.5478 15.285 24.5478ZM15.2884 26.0478C12.3039 26.0478 9.75962 24.9958 7.65562 22.8918C5.55187 20.7881 4.5 18.2438 4.5 15.2591C4.5 12.2746 5.55187 9.73033 7.65562 7.62633C9.75962 5.52258 12.3039 4.4707 15.2884 4.4707C18.2731 4.4707 20.8126 5.52258 22.9069 7.62633C25.0011 9.73033 26.0483 12.2746 26.0483 15.2591C26.0483 16.6176 25.815 17.8971 25.3485 19.0976C24.8823 20.2983 24.2395 21.3727 23.4202 22.3207L30.9983 29.8987C31.1443 30.0397 31.2173 30.2072 31.2173 30.4012C31.2173 30.595 31.1421 30.7746 30.9919 30.9401C30.8419 31.1053 30.6635 31.188 30.4568 31.188C30.2503 31.188 30.0644 31.1053 29.8991 30.9401L22.35 23.391C21.402 24.2295 20.3276 24.8818 19.1269 25.3481C17.9261 25.8146 16.6466 26.0478 15.2884 26.0478Z" fill="#319FE8"/>
</g>
</svg>
