<svg width="20" height="30" viewBox="0 0 20 30" fill="none" xmlns="http://www.w3.org/2000/svg">
<g clip-path="url(#clip0_1007_5559)">
<mask id="path-1-outside-1_1007_5559" maskUnits="userSpaceOnUse" x="0.294922" y="-0.5" width="19" height="25" fill="black">
<rect fill="white" x="0.294922" y="-0.5" width="19" height="25"/>
<path fill-rule="evenodd" clip-rule="evenodd" d="M7.4043 1.5H12.1836C12.7358 1.5 13.1836 1.94772 13.1836 2.5V13.3753H16.2589C17.1379 13.3753 17.5893 14.4279 16.9833 15.0646L14.1848 18.0055L10.5017 21.8748C10.1076 22.2889 9.44709 22.2888 9.05299 21.8747L5.37109 18.0055L2.57249 15.0646C1.96654 14.4279 2.41791 13.3753 3.29691 13.3753H6.4043V2.5C6.4043 1.94772 6.85201 1.5 7.4043 1.5Z"/>
</mask>
<path d="M13.1836 13.3753H11.6836V14.8753H13.1836V13.3753ZM16.9833 15.0646L18.07 16.0987L16.9833 15.0646ZM14.1848 18.0055L15.2712 19.0397L15.2714 19.0396L14.1848 18.0055ZM10.5017 21.8748L11.5882 22.909L11.5882 22.909L10.5017 21.8748ZM9.05299 21.8747L10.1396 20.8406H10.1396L9.05299 21.8747ZM5.37109 18.0055L6.45772 16.9715L6.45772 16.9715L5.37109 18.0055ZM2.57249 15.0646L1.48587 16.0987H1.48587L2.57249 15.0646ZM6.4043 13.3753V14.8753H7.9043V13.3753H6.4043ZM12.1836 0H7.4043V3H12.1836V0ZM14.6836 2.5C14.6836 1.11929 13.5643 0 12.1836 0V3C11.9074 3 11.6836 2.77614 11.6836 2.5H14.6836ZM14.6836 13.3753V2.5H11.6836V13.3753H14.6836ZM13.1836 14.8753H16.2589V11.8753H13.1836V14.8753ZM16.2589 14.8753C15.8194 14.8753 15.5937 14.349 15.8967 14.0306L18.07 16.0987C19.5849 14.5068 18.4564 11.8753 16.2589 11.8753V14.8753ZM15.8967 14.0306L13.0981 16.9715L15.2714 19.0396L18.07 16.0987L15.8967 14.0306ZM13.0983 16.9713L9.41524 20.8406L11.5882 22.909L15.2712 19.0397L13.0983 16.9713ZM9.41524 20.8406C9.61232 20.6335 9.94256 20.6336 10.1396 20.8406L7.96636 22.9087C8.95162 23.9441 10.6028 23.9442 11.5882 22.909L9.41524 20.8406ZM10.1396 20.8406L6.45772 16.9715L4.28447 19.0396L7.96636 22.9087L10.1396 20.8406ZM6.45772 16.9715L3.65912 14.0306L1.48587 16.0987L4.28447 19.0396L6.45772 16.9715ZM3.65912 14.0306C3.9621 14.349 3.73641 14.8753 3.29691 14.8753V11.8753C1.09941 11.8753 -0.0290074 14.5068 1.48587 16.0987L3.65912 14.0306ZM3.29691 14.8753H6.4043V11.8753H3.29691V14.8753ZM4.9043 2.5V13.3753H7.9043V2.5H4.9043ZM7.4043 0C6.02359 0 4.9043 1.11929 4.9043 2.5H7.9043C7.9043 2.77614 7.68044 3 7.4043 3V0Z" fill="#319FE8" mask="url(#path-1-outside-1_1007_5559)"/>
<rect y="26" width="20" height="3.50002" rx="1.75001" stroke="#319FE8" stroke-width="1.5"/>
</g>
<defs>
<clipPath id="clip0_1007_5559">
<rect width="20" height="30" fill="white"/>
</clipPath>
</defs>
</svg>
