<svg width="61" height="61" viewBox="0 0 61 61" fill="none" xmlns="http://www.w3.org/2000/svg">
<path d="M7.85889 26.5936C7.86817 28.6695 8.26553 30.6655 9.09923 32.5725C9.31833 33.072 9.69341 33.408 10.2319 33.4935C11.2958 33.6624 12.3653 33.8147 13.4349 33.9428C16.1904 34.2733 18.9514 34.5537 21.7014 34.9139C24.5441 35.2853 27.3776 35.7272 30.2148 36.1394C30.9928 36.2527 31.7689 36.3808 32.5488 36.4755C32.6918 36.4922 32.9239 36.4161 32.9814 36.3102C33.0371 36.2062 32.9294 36.0076 32.8793 35.8572C32.8607 35.8033 32.8013 35.7643 32.7586 35.7179C31.8488 34.7041 31.0726 33.5937 30.4376 32.3887C28.3171 28.378 27.5429 24.0943 27.9198 19.5971C28.0888 17.5677 28.6198 15.6236 29.5965 13.8169C29.706 13.6127 29.9586 13.401 29.7339 13.1559C29.5352 12.9386 29.2938 13.128 29.0933 13.2116C27.8715 13.7241 26.646 14.2347 25.4372 14.775C22.9881 15.8705 20.5353 16.9549 18.1103 18.0968C15.6575 19.2518 13.2362 20.4717 10.8001 21.66C10.2876 21.9107 9.76397 22.1391 9.25149 22.3879C8.67774 22.6664 8.31566 23.1139 8.1764 23.749C7.97029 24.6866 7.82361 25.6262 7.86074 26.5917L7.85889 26.5936Z" fill="#CEA5EF"/>
<path d="M19.2651 50.743C19.2651 50.743 19.2651 50.73 19.2651 50.7244C19.4954 50.7449 19.7256 50.7783 19.9559 50.7857C20.3476 50.8006 20.6819 50.5722 20.7951 50.1971C20.8527 50.0096 20.8806 49.8053 20.8787 49.6085C20.8731 48.6838 20.8323 47.7591 20.8416 46.8344C20.8768 43.4736 20.9418 40.1147 21.3373 36.7706C21.4097 36.1652 21.1814 35.7178 20.4553 35.6361C18.7099 35.4411 16.9683 35.2183 15.2266 35.0085C14.4467 34.9138 13.6687 34.8023 12.887 34.7374C12.3485 34.6928 12.1461 34.9509 12.2743 35.4745C12.4247 36.0873 12.5881 36.6981 12.7645 37.3053C13.7281 40.603 14.6881 43.9025 15.6759 47.1928C15.9229 48.0154 16.2441 48.8212 16.5821 49.6122C16.8513 50.2435 17.3786 50.5722 18.0675 50.6316C18.4667 50.665 18.8659 50.704 19.2651 50.7411V50.743Z" fill="#45B5ED"/>
<path d="M41.7193 27.0801C41.6915 26.5119 41.6896 25.8472 41.6153 25.1899C41.5318 24.4564 41.3981 23.7286 41.2588 23.0025C40.6275 19.716 39.376 16.6987 37.2704 14.0732C36.459 13.0612 35.4452 12.2869 34.2011 11.8506C33.7648 11.6965 33.334 11.6983 32.8865 11.819C32.0379 12.0474 31.4141 12.5729 30.9127 13.2636C29.4291 15.2987 28.7885 17.6345 28.6307 20.0985C28.549 21.3853 28.6363 22.6869 28.7143 23.9774C28.7811 25.097 28.9519 26.2092 29.2657 27.2936C29.9899 29.7966 30.961 32.1807 32.5653 34.2696C33.2207 35.1219 33.9542 35.885 34.9178 36.3808C35.9911 36.9323 37.0624 36.9397 38.0447 36.1803C38.5033 35.8256 38.936 35.4171 39.3092 34.9715C40.3694 33.7033 40.919 32.1826 41.3647 30.6154C41.6859 29.4865 41.6135 28.3223 41.7193 27.0801Z" fill="#CEA5EF"/>
<path d="M7.43156 33.2112C8.32839 33.2428 8.41566 33.0813 8.21884 32.4722C7.92732 31.5642 7.62652 30.6544 7.42784 29.7242C7.09362 28.1514 6.98592 26.5527 7.18832 24.9485C7.23474 24.5827 7.32386 24.2224 7.37028 23.8567C7.41485 23.5002 7.25145 23.372 6.90608 23.4686C6.83181 23.489 6.76311 23.5243 6.69441 23.5577C6.19493 23.7972 5.70287 24.0516 5.19411 24.2726C4.40311 24.6161 3.9909 25.2437 3.79965 26.0514C3.55827 27.0708 3.5824 28.0957 3.73466 29.1263C3.87207 30.0602 4.07631 30.9719 4.57208 31.7945C4.87845 32.3014 5.27024 32.7118 5.84956 32.8659C6.45674 33.0274 7.07877 33.1351 7.4297 33.2094L7.43156 33.2112Z" fill="#45B5ED"/>
<path d="M21.7456 44.6212C21.7456 46.348 21.7456 48.0749 21.7456 49.8035C21.7456 49.9428 21.74 50.0839 21.766 50.2176C21.8403 50.5834 22.1151 50.7059 22.4104 50.485C22.7112 50.2622 22.9247 49.9929 22.9563 49.5714C23.1698 46.6804 23.3982 43.7894 23.6414 40.8983C23.7491 39.6227 23.8995 38.3508 24.0295 37.077C24.0926 36.4513 23.8401 36.156 23.2088 36.1152C23.1011 36.1078 22.9934 36.104 22.8857 36.1096C22.3844 36.1356 22.169 36.3603 22.156 36.8598C22.1523 36.999 22.1393 37.1364 22.1281 37.2738C21.9053 39.7174 21.7419 42.1628 21.7456 44.6193V44.6212Z" fill="#45B5ED"/>
<path d="M2.80629 27.8101C2.77844 27.6857 2.62618 27.6393 2.53334 27.7265C1.9893 28.2446 1.80176 29.0059 2.04686 29.6223C2.24368 30.1144 2.60018 30.4746 2.95483 30.5544C3.0681 30.5804 3.17022 30.482 3.1498 30.3669C3.07738 29.9361 3.00868 29.5072 2.92698 29.0783C2.849 28.6716 2.90099 28.2464 2.80443 27.8101H2.80629Z" fill="#CEA5EF"/>
<path d="M42.1855 30.8121C41.8457 32.474 41.0287 34.0226 39.9759 35.3799C39.2425 36.325 38.3308 37.0473 37.2241 37.4948C36.8788 37.634 36.4795 37.6897 36.1045 37.6972C34.7416 37.7232 33.4028 37.4855 32.0604 37.2812C30.1701 36.9916 28.2818 36.6964 26.3897 36.4253C26.0796 36.3807 25.7454 36.4215 25.4334 36.4772C25.114 36.5348 24.9451 36.7669 24.9079 37.0974C24.7854 38.2004 24.6331 39.2996 24.5403 40.4044C24.2785 43.4941 24.0352 46.5857 23.7994 49.6773C23.7586 50.2176 23.4429 50.5982 23.1013 50.9417C22.6334 51.4134 22.0596 51.7067 21.3614 51.6696C20.3142 51.6121 19.267 51.5601 18.2216 51.5006C17.0388 51.4319 16.2162 50.8043 15.752 49.7571C15.3658 48.8863 15.0409 47.982 14.7661 47.0685C13.9212 44.2461 13.108 41.4163 12.2965 38.5847C12.0032 37.5616 11.7321 36.5311 11.4851 35.4969C11.3644 34.9899 11.0896 34.6576 10.5957 34.5462C9.95325 34.4013 9.30151 34.2955 8.65348 34.1841C7.81792 34.0411 6.97865 33.9297 6.1468 33.77C5.1237 33.5732 4.33642 33.018 3.80537 32.1138C3.64568 31.8427 3.46372 31.6328 3.12392 31.5474C2.07669 31.2838 1.38967 30.6116 1.15757 29.5532C0.929181 28.5097 1.28197 27.5924 2.10082 26.9574C2.65786 26.5248 3.01066 26.0847 3.12392 25.3736C3.24461 24.616 3.77195 24.0924 4.44968 23.7563C5.83114 23.073 7.22003 22.4064 8.60892 21.7398C10.7907 20.6926 12.9798 19.6639 15.1542 18.6074C18.0099 17.2203 20.8415 15.7795 23.7809 14.5688C26.3191 13.5234 28.8462 12.4576 31.3845 11.4123C31.9972 11.1597 32.6415 11.0372 33.3063 10.9889C34.0973 10.9313 34.7954 11.1932 35.4639 11.5571C36.6077 12.1791 37.5268 13.063 38.3011 14.1009C39.9202 16.2715 40.9489 18.7188 41.6545 21.309C42.1354 23.0804 42.49 24.8797 42.4696 26.7327C42.4696 26.8869 42.4269 29.6238 42.1855 30.8121ZM7.85877 26.5935C7.86805 28.6694 8.26541 30.6655 9.09912 32.5724C9.31822 33.0719 9.69329 33.4079 10.2318 33.4934C11.2957 33.6623 12.3652 33.8146 13.4348 33.9427C16.1902 34.2732 18.9513 34.5536 21.7012 34.9138C24.544 35.2852 27.3775 35.7271 30.2147 36.1393C30.9927 36.2526 31.7688 36.3807 32.5487 36.4754C32.6917 36.4921 32.9238 36.416 32.9813 36.3101C33.037 36.2062 32.9293 36.0075 32.8792 35.8571C32.8606 35.8032 32.8012 35.7642 32.7585 35.7178C31.8487 34.704 31.0725 33.5936 30.4375 32.3886C28.317 28.3779 27.5427 24.0942 27.9197 19.597C28.0886 17.5676 28.6197 15.6235 29.5964 13.8168C29.7059 13.6126 29.9584 13.4009 29.7338 13.1558C29.5351 12.9385 29.2937 13.1279 29.0932 13.2115C27.8714 13.724 26.6459 14.2346 25.4371 14.7749C22.988 15.8704 20.5352 16.9548 18.1102 18.0967C15.6573 19.2517 13.2361 20.4716 10.7999 21.66C10.2875 21.9106 9.76385 22.139 9.25137 22.3878C8.67762 22.6663 8.31554 23.1138 8.17628 23.7489C7.97018 24.6865 7.82349 25.6261 7.86063 26.5916L7.85877 26.5935ZM19.2651 50.7431C19.2651 50.7431 19.2651 50.7301 19.2651 50.7245C19.4954 50.7449 19.7256 50.7783 19.9558 50.7858C20.3476 50.8006 20.6819 50.5722 20.7951 50.1972C20.8527 50.0096 20.8805 49.8054 20.8787 49.6086C20.8731 48.6839 20.8323 47.7592 20.8415 46.8345C20.8768 43.4737 20.9418 40.1147 21.3373 36.7706C21.4097 36.1653 21.1813 35.7178 20.4553 35.6361C18.7099 35.4412 16.9682 35.2183 15.2266 35.0085C14.4467 34.9138 13.6687 34.8024 12.887 34.7374C12.3485 34.6929 12.1461 34.951 12.2743 35.4746C12.4247 36.0873 12.588 36.6982 12.7644 37.3054C13.7281 40.6031 14.6881 43.9026 15.6759 47.1929C15.9229 48.0154 16.2441 48.8213 16.582 49.6123C16.8513 50.2436 17.3786 50.5722 18.0675 50.6317C18.4667 50.6651 18.8659 50.7041 19.2651 50.7412V50.7431ZM41.7194 27.08C41.6916 26.5118 41.6897 25.847 41.6155 25.1897C41.5319 24.4563 41.3982 23.7284 41.259 23.0024C40.6276 19.7159 39.3762 16.6986 37.2705 14.0731C36.4591 13.0611 35.4453 12.2868 34.2012 11.8505C33.7649 11.6963 33.3341 11.6982 32.8866 11.8189C32.0381 12.0473 31.4142 12.5728 30.9128 13.2635C29.4293 15.2985 28.7887 17.6344 28.6308 20.0984C28.5491 21.3851 28.6364 22.6868 28.7144 23.9772C28.7812 25.0969 28.9521 26.2091 29.2659 27.2935C29.99 29.7965 30.9611 32.1806 32.5654 34.2695C33.2209 35.1218 33.9543 35.8849 34.918 36.3807C35.9912 36.9322 37.0626 36.9396 38.0448 36.1802C38.5035 35.8255 38.9361 35.417 39.3093 34.9714C40.3695 33.7032 40.9192 32.1825 41.3648 30.6153C41.686 29.4864 41.6136 28.3222 41.7194 27.08ZM7.43171 33.2111C8.32854 33.2427 8.41581 33.0812 8.21899 32.4721C7.92747 31.5641 7.62667 30.6543 7.42799 29.7241C7.09377 28.1513 6.98607 26.5526 7.18846 24.9484C7.23488 24.5826 7.32401 24.2223 7.37043 23.8566C7.415 23.5 7.2516 23.3719 6.90623 23.4685C6.83196 23.4889 6.76326 23.5242 6.69456 23.5576C6.19508 23.7971 5.70302 24.0515 5.19426 24.2725C4.40326 24.616 3.99105 25.2436 3.7998 26.0513C3.55841 27.0707 3.58255 28.0956 3.73481 29.1262C3.87221 30.0601 4.07646 30.9718 4.57223 31.7944C4.8786 32.3013 5.27039 32.7116 5.84971 32.8658C6.45688 33.0273 7.07891 33.135 7.42985 33.2093L7.43171 33.2111ZM21.7458 44.6212C21.7458 46.348 21.7458 48.0748 21.7458 49.8035C21.7458 49.9428 21.7402 50.0839 21.7662 50.2176C21.8405 50.5834 22.1153 50.7059 22.4105 50.485C22.7113 50.2622 22.9249 49.9929 22.9564 49.5714C23.17 46.6804 23.3984 43.7893 23.6416 40.8983C23.7493 39.6227 23.8997 38.3508 24.0297 37.077C24.0928 36.4513 23.8403 36.156 23.209 36.1152C23.1013 36.1077 22.9936 36.104 22.8859 36.1096C22.3845 36.1356 22.1692 36.3603 22.1562 36.8597C22.1524 36.999 22.1394 37.1364 22.1283 37.2738C21.9055 39.7174 21.7421 42.1628 21.7458 44.6193V44.6212ZM2.80641 27.8097C2.77856 27.6853 2.6263 27.6389 2.53346 27.7261C1.98942 28.2442 1.80188 29.0055 2.04698 29.6219C2.2438 30.114 2.6003 30.4742 2.95495 30.554C3.06822 30.58 3.17034 30.4816 3.14992 30.3665C3.0775 29.9357 3.0088 29.5068 2.9271 29.0779C2.84912 28.6712 2.90111 28.246 2.80455 27.8097H2.80641Z" fill="#393939"/>
<path d="M19.5288 27.6626C18.762 28.786 17.4009 28.968 16.5895 27.8743C16.0845 27.1929 15.9415 26.3889 15.9118 25.5607C15.9099 25.5013 15.9248 25.4382 15.9396 25.3788C15.9935 25.1671 16.1012 25.0056 16.3481 25.0204C16.5691 25.0353 16.6638 25.1838 16.6972 25.3862C16.7492 25.7056 16.7808 26.0305 16.868 26.3387C16.959 26.6618 17.0593 26.9979 17.2394 27.2764C17.6813 27.9634 18.4686 27.9226 18.7991 27.178C18.9959 26.7361 19.0739 26.2385 19.176 25.7594C19.2299 25.505 19.2113 25.2377 19.2485 24.9777C19.2782 24.7753 19.3561 24.5692 19.605 24.5599C19.8668 24.5506 19.9875 24.7252 20.0172 24.9684C20.0339 25.1058 20.0172 26.9422 19.527 27.6608L19.5288 27.6626Z" fill="#393939"/>
<path d="M22.2732 24.6844C22.2546 24.7847 22.249 24.9091 22.2082 25.0224C22.1283 25.2452 21.9612 25.3696 21.718 25.3566C21.4933 25.3436 21.3262 25.2118 21.3002 24.9982C21.2742 24.7791 21.2946 24.5433 21.3522 24.3316C21.4116 24.1107 21.5936 23.9714 21.8405 24.003C22.0819 24.0327 22.2082 24.2017 22.2453 24.4356C22.2564 24.5117 22.2639 24.5879 22.275 24.6844H22.2732Z" fill="#393939"/>
<path d="M14.3762 26.0756C14.3688 26.4302 14.2128 26.6456 13.9566 26.6753C13.6985 26.7051 13.4794 26.5379 13.4107 26.2223C13.3513 25.9512 13.2974 25.6448 13.5537 25.4554C13.6781 25.3644 13.9213 25.3273 14.0606 25.3867C14.3521 25.5111 14.3502 25.8268 14.3762 26.0756Z" fill="#393939"/>
<path d="M40.3637 26.1036C40.308 26.7943 40.2542 27.4851 40.1985 28.1758C40.1651 28.5899 40.1261 29.0039 40.0964 29.418C39.9887 30.9053 39.5505 32.2905 38.7725 33.5605C38.4215 34.1343 37.9536 34.5966 37.3576 34.9253C36.7281 35.2725 36.0912 35.2929 35.4544 34.9736C34.7469 34.6171 34.11 34.1603 33.6087 33.5345C32.4129 32.0454 31.6368 30.339 31.0872 28.5286C30.6044 26.9392 30.22 25.3256 30.0529 23.6675C29.9675 22.8263 29.8282 21.9852 29.8301 21.1441C29.8301 20.3215 29.9582 19.4971 30.0641 18.6764C30.2293 17.4008 30.6489 16.1976 31.2803 15.0816C31.5105 14.6731 31.802 14.2628 32.1585 13.9675C33.0127 13.262 34.0042 13.2211 34.9437 13.8413C35.4395 14.1681 35.9056 14.5691 36.3066 15.0092C37.7271 16.5689 38.6945 18.396 39.3648 20.3921C39.9868 22.247 40.3118 24.1484 40.3619 26.1055L40.3637 26.1036ZM39.634 26.0052C39.5839 25.4834 39.5208 24.5922 39.4131 23.7065C39.1383 21.4282 38.4122 19.2966 37.2257 17.3321C36.626 16.3387 35.9148 15.427 35.0069 14.6861C34.6411 14.3872 34.2289 14.1848 33.761 14.1161C33.6013 14.0938 33.4082 14.0975 33.2726 14.1681C32.7638 14.4392 32.3145 14.7827 32.0564 15.3249C31.7853 15.8949 31.4752 16.4482 31.2394 17.0313C31.0853 17.4119 30.998 17.8278 30.946 18.2363C30.8551 18.9382 31.0407 19.174 31.7333 19.3448C31.9097 19.3894 32.0935 19.4135 32.2755 19.434C34.2771 19.6624 35.757 20.6595 36.5666 22.5107C37.4541 24.5365 36.7894 27.175 35.0589 28.5583C34.4628 29.0336 33.7609 29.3753 33.0999 29.7671C32.6524 30.0326 32.5707 30.2406 32.7843 30.7178C33.1835 31.609 33.6607 32.4594 34.3236 33.178C34.6745 33.5568 35.0978 33.8818 35.5286 34.1677C35.9835 34.4704 36.4923 34.4388 36.9881 34.216C37.4578 34.0043 37.7828 33.6367 38.0576 33.2226C38.5682 32.4576 38.882 31.5997 39.1327 30.7252C39.5393 29.3047 39.5746 27.8379 39.6322 26.0015L39.634 26.0052ZM30.6527 22.0094C30.6527 23.2905 30.8662 24.5439 31.167 25.7824C31.3582 26.5734 31.5402 27.3718 31.7946 28.1442C32.0193 28.8294 32.4705 28.9965 33.1445 28.7477C35.3634 27.9326 36.6223 25.3312 35.8926 23.0714C35.3467 21.3818 33.4026 20.0931 31.6461 20.2565C31.1484 20.303 30.6824 20.7931 30.6545 21.3131C30.6415 21.5433 30.6527 21.7754 30.6527 22.0075V22.0094Z" fill="#393939"/>
<path d="M39.6341 26.0052C39.5839 25.4835 39.5208 24.5922 39.4131 23.7065C39.1383 21.4282 38.4123 19.2966 37.2258 17.3321C36.626 16.3387 35.9149 15.427 35.0069 14.6861C34.6411 14.3872 34.2289 14.1848 33.761 14.1161C33.6013 14.0938 33.4082 14.0975 33.2726 14.1681C32.7639 14.4392 32.3145 14.7827 32.0564 15.3249C31.7853 15.8949 31.4753 16.4483 31.2394 17.0313C31.0853 17.4119 30.9981 17.8279 30.9461 18.2364C30.8551 18.9382 31.0408 19.174 31.7334 19.3449C31.9097 19.3894 32.0936 19.4136 32.2755 19.434C34.2772 19.6624 35.757 20.6595 36.5666 22.5107C37.4542 24.5365 36.7894 27.175 35.0589 28.5583C34.4629 29.0337 33.761 29.3753 33.1 29.7671C32.6525 30.0326 32.5708 30.2406 32.7843 30.7178C33.1835 31.6091 33.6607 32.4595 34.3236 33.1781C34.6745 33.5568 35.0979 33.8818 35.5287 34.1677C35.9836 34.4704 36.4923 34.4388 36.9881 34.216C37.4579 34.0043 37.7828 33.6367 38.0576 33.2226C38.5682 32.4576 38.882 31.5998 39.1327 30.7252C39.5394 29.3048 39.5746 27.8379 39.6322 26.0015L39.6341 26.0052Z" fill="#F6F4E8"/>
<path d="M30.6526 22.0095C30.6526 23.2907 30.8662 24.544 31.167 25.7825C31.3582 26.5735 31.5402 27.3719 31.7946 28.1444C32.0192 28.8295 32.4704 28.9966 33.1445 28.7478C35.3633 27.9327 36.6223 25.3313 35.8925 23.0716C35.3466 21.3819 33.4026 20.0933 31.646 20.2567C31.1484 20.3031 30.6823 20.7933 30.6545 21.3132C30.6415 21.5434 30.6526 21.7755 30.6526 22.0076V22.0095Z" fill="#45B5ED"/>
<path d="M57.6953 19.0551C58.1409 19.0551 58.5903 19.0198 59.0322 19.0644C59.5447 19.1164 59.6579 19.2408 59.7563 19.7514C59.955 20.7745 59.9513 21.805 59.8046 22.8337C59.7545 23.1883 59.541 23.3722 59.1622 23.3573C58.3767 23.3276 57.5913 23.2868 56.8096 23.2143C55.1069 23.0528 53.4061 22.8764 51.7071 22.6907C50.7434 22.5849 49.7816 22.4549 48.8198 22.3212C48.3593 22.2562 48.2033 22.1133 48.1309 21.6435C48.0641 21.2183 48.0436 20.7856 48.0251 20.3549C48.0121 20.0782 48.1977 19.9315 48.4484 19.8869C48.8123 19.822 49.1781 19.7625 49.5439 19.7291C51.7832 19.5249 54.0225 19.328 56.2637 19.1312C56.739 19.0904 57.2162 19.0607 57.6934 19.0254C57.6934 19.0347 57.6934 19.0458 57.6934 19.0551H57.6953ZM59.1547 21.3594C59.1547 21.3594 59.164 21.3594 59.1677 21.3594C59.1473 21.0827 59.138 20.8042 59.1046 20.5294C59.0043 19.7106 58.9653 19.6957 58.1558 19.7663C56.3584 19.9204 54.5591 20.0485 52.7636 20.2082C51.5975 20.3122 50.4333 20.4458 49.271 20.5814C49.167 20.5944 49.0314 20.7114 48.9869 20.8135C48.8216 21.2034 48.9999 21.5098 49.4307 21.5711C50.1177 21.6695 50.8047 21.753 51.4936 21.8273C52.8267 21.9721 54.1618 22.1058 55.495 22.2432C56.5218 22.3472 57.5505 22.453 58.5773 22.5477C58.9431 22.5812 59.1195 22.4289 59.151 22.052C59.1696 21.8217 59.1547 21.5896 59.1547 21.3575V21.3594Z" fill="#393939"/>
<path d="M59.1548 21.3599C59.1548 21.3599 59.1641 21.3599 59.1678 21.3599C59.1474 21.0832 59.1381 20.8047 59.1047 20.5299C59.0044 19.7111 58.9654 19.6962 58.1559 19.7668C56.3585 19.9209 54.5592 20.049 52.7637 20.2087C51.5976 20.3127 50.4334 20.4463 49.2711 20.5819C49.1671 20.5949 49.0315 20.7119 48.987 20.814C48.8217 21.2039 49 21.5103 49.4308 21.5716C50.1178 21.67 50.8048 21.7535 51.4937 21.8278C52.8269 21.9726 54.1619 22.1063 55.4951 22.2437C56.5219 22.3477 57.5506 22.4536 58.5774 22.5483C58.9432 22.5817 59.1196 22.4294 59.1511 22.0525C59.1697 21.8222 59.1548 21.5901 59.1548 21.358V21.3599Z" fill="#45B5ED"/>
<path d="M48.6712 27.8359C48.7734 27.8712 48.9702 27.9158 49.1466 28.0012C50.2829 28.5545 51.4323 29.0819 52.5427 29.6835C53.991 30.467 55.4059 31.3119 56.8337 32.1326C56.9526 32.2013 57.0677 32.283 57.168 32.3777C57.4855 32.6803 57.5412 32.8363 57.3351 33.2355C56.9526 33.9727 56.5441 34.6987 56.117 35.4098C55.8905 35.7868 55.7104 35.8202 55.2963 35.6512C55.1571 35.5937 55.0271 35.5045 54.9045 35.4117C52.578 33.6607 50.2551 31.9061 47.9285 30.1569C47.2898 29.676 47.1524 29.327 47.7168 28.4654C48.0232 27.9975 48.272 27.8434 48.6731 27.8378L48.6712 27.8359ZM48.22 28.9444C48.1402 29.093 48.1699 29.2805 48.298 29.3901C48.3147 29.4049 48.3314 29.4179 48.3482 29.4309C50.6376 31.1745 52.9289 32.918 55.2202 34.6615C55.4579 34.8435 55.5693 34.8342 55.7382 34.565C55.9833 34.1732 56.208 33.7684 56.4234 33.3599C56.6202 32.9867 56.5924 32.9087 56.234 32.6989C53.8016 31.2766 51.3358 29.9193 48.7919 28.7031C48.558 28.5917 48.4113 28.6344 48.2869 28.8312C48.2627 28.8683 48.2423 28.9073 48.22 28.9463V28.9444Z" fill="#393939"/>
<path d="M48.22 28.9444C48.1401 29.0929 48.1698 29.2804 48.298 29.39C48.3147 29.4049 48.3314 29.4178 48.3481 29.4308C50.6375 31.1744 52.9288 32.9179 55.2201 34.6615C55.4578 34.8434 55.5692 34.8341 55.7382 34.5649C55.9833 34.1731 56.2079 33.7683 56.4233 33.3598C56.6202 32.9866 56.5923 32.9086 56.2339 32.6988C53.8015 31.2765 51.3357 29.9192 48.7919 28.703C48.5579 28.5916 48.4112 28.6343 48.2868 28.8311C48.2627 28.8682 48.2423 28.9072 48.22 28.9462V28.9444Z" fill="#45B5ED"/>
<path d="M45.6598 14.7358C45.6245 14.6095 45.6449 14.4758 45.7081 14.3607C45.8083 14.1806 45.916 13.9726 46.0831 13.8334C46.8741 13.1686 47.6763 12.5151 48.5155 11.9153C49.6928 11.0723 50.8978 10.2646 52.1122 9.47361C52.9217 8.94627 53.0183 8.99084 53.5252 9.79483C53.8241 10.2702 54.1249 10.7437 54.4239 11.2209C54.4517 11.2654 54.4777 11.3118 54.4982 11.3601C54.734 11.9004 54.6746 12.1066 54.1621 12.3814C51.8671 13.6106 49.5683 14.8323 47.2696 16.0541C47.1359 16.1247 46.9874 16.1971 46.8388 16.2101C46.7163 16.2212 46.525 16.1841 46.4693 16.1005C46.189 15.679 45.9401 15.2353 45.6858 14.7971C45.6765 14.7804 45.6691 14.7618 45.6635 14.7376L45.6598 14.7358ZM52.6989 10.0474C52.4353 10.1959 52.2161 10.3017 52.0175 10.4373C51.3175 10.9163 50.6174 11.3954 49.9304 11.8912C48.8553 12.6673 47.7895 13.4546 46.7219 14.2437C46.4303 14.4591 46.4118 14.5965 46.5882 14.9085C46.7961 15.278 46.9373 15.3225 47.3328 15.1127C49.2824 14.0859 51.2283 13.0554 53.1761 12.0249C53.527 11.8392 53.6069 11.6813 53.4305 11.3211C53.2244 10.8959 52.9626 10.4986 52.6989 10.0474Z" fill="#393939"/>
<path d="M52.6989 10.0474C52.4352 10.1959 52.2161 10.3017 52.0175 10.4373C51.3174 10.9163 50.6174 11.3954 49.9304 11.8912C48.8553 12.6673 47.7895 13.4546 46.7219 14.2437C46.4303 14.4591 46.4118 14.5965 46.5882 14.9085C46.7961 15.278 46.9372 15.3225 47.3327 15.1127C49.2824 14.0859 51.2283 13.0554 53.1761 12.0249C53.527 11.8392 53.6069 11.6814 53.4305 11.3211C53.2244 10.8959 52.9626 10.4986 52.6989 10.0474Z" fill="#45B5ED"/>
</svg>
