<svg width="184" height="187" viewBox="0 0 184 187" fill="none" xmlns="http://www.w3.org/2000/svg">
<circle cx="95.1849" cy="97.7369" r="87.8158" fill="white" stroke="#000543" stroke-width="2"/>
<circle cx="90.8555" cy="90.5974" r="88" fill="white" stroke="#000543" stroke-width="4"/>
<circle cx="92.4279" cy="92.0974" r="57.8" fill="#FFE1DF" stroke="#000543" stroke-width="2" stroke-dasharray="2 2"/>
<path d="M107.005 104.962C105.757 104.962 104.821 104.088 104.79 102.746L104.415 87.7081C104.384 86.2417 105.539 85.1497 107.005 85.1497C108.471 85.1497 109.657 86.2417 109.563 87.7081L109.189 102.746C109.22 104.088 108.253 104.962 107.005 104.962ZM103.979 109.704C103.979 108.113 105.289 106.834 107.005 106.834C108.752 106.834 110.063 108.113 110.063 109.704C110.063 111.295 108.721 112.543 107.005 112.543C105.289 112.543 103.979 111.295 103.979 109.704Z" fill="#000543"/>
<path d="M80.2218 114.883C79.9722 114.946 79.7226 114.977 79.5042 114.977C78.5058 114.977 77.7882 114.446 77.445 113.354C77.3514 113.105 77.3202 112.824 77.3202 112.543C77.3202 111.67 77.8194 110.952 78.8178 110.609C83.3106 109.111 86.181 106.99 86.181 104.369V103.339C86.181 101.842 87.273 100.999 88.677 100.999H88.8018C90.2058 100.999 91.2978 101.842 91.2978 103.339V104.462C91.2978 105.149 91.2354 105.742 91.0794 106.272C93.669 107.302 96.7578 109.018 98.8794 110.89C99.441 111.389 99.7218 111.95 99.7218 112.574C99.7218 113.23 99.4098 113.822 98.817 114.353C98.4426 114.696 97.9746 114.883 97.4442 114.883C96.7578 114.883 96.0714 114.602 95.385 114.041C93.6066 112.543 91.017 111.108 88.9266 110.203C86.8986 112.418 83.685 114.041 80.2218 114.883ZM74.793 92.3256C74.793 90.9216 75.1362 89.6424 75.8538 88.488C77.2578 86.2416 79.9098 84.8688 82.9986 84.8688C87.4914 84.8688 91.173 87.8328 91.173 92.3256C91.173 96.6624 87.741 99.8136 82.9986 99.8136C78.2562 99.8136 74.793 96.6624 74.793 92.3256ZM79.8474 92.3256C79.8474 93.9792 81.1578 95.2584 82.9986 95.2584C84.777 95.2584 86.1186 93.9792 86.1186 92.3256C86.1186 90.672 84.777 89.424 82.9986 89.424C81.2202 89.424 79.8474 90.672 79.8474 92.3256ZM93.669 101.186V86.4912C93.669 84.9936 94.6362 84.1512 96.165 84.1512H96.321C97.8498 84.1512 98.817 84.9936 98.817 86.4912V89.6736H100.408C101.906 89.6736 102.748 90.5472 102.748 92.0136C102.748 93.48 101.906 94.3536 100.408 94.3536H98.817V101.186C98.817 102.684 97.8498 103.526 96.321 103.526H96.165C94.6362 103.526 93.669 102.684 93.669 101.186Z" fill="#000543"/>
<path d="M85.0286 15.2674L85.8179 15.8594C85.9165 15.7607 86.0152 15.662 86.2125 15.662C86.2125 15.8594 86.1138 15.958 86.1138 16.0567L88.1857 17.6352C88.383 17.8326 88.4817 18.0299 88.383 18.3259L86.9031 23.1602C86.7058 23.7522 87.3964 24.1468 87.8897 23.8508L92.1321 20.9897C92.3294 20.891 92.6254 20.891 92.8227 20.9897L96.2758 23.2589C96.0785 22.7656 96.0785 22.4696 96.4732 22.0749C96.4732 22.5682 96.4732 22.8642 96.3745 23.3575L97.0651 23.8508C97.1638 23.8508 97.1638 23.9495 97.2624 23.9495C97.2624 23.8508 97.3611 23.8508 97.3611 23.7522C97.3611 23.8508 97.4598 23.9495 97.4598 23.9495C97.8544 23.9495 98.1504 23.5548 98.0517 23.1602L97.4598 21.3843C97.4598 21.5816 97.4598 21.6803 97.4598 21.8776C97.3611 21.8776 97.3611 21.8776 97.2624 21.8776C97.2624 21.6803 97.1638 21.483 97.2624 21.3843C97.2624 21.2857 97.3611 21.0883 97.3611 20.9897L96.5718 18.3259C96.4732 18.0299 96.5718 17.8326 96.7691 17.6352L100.716 14.4781C101.209 14.0835 100.913 13.3928 100.321 13.3928H98.3477C98.3477 13.5902 98.249 13.7875 98.1504 13.9848C98.0517 13.9848 97.9531 13.8861 97.8544 13.8861C97.8544 13.6888 97.9531 13.5902 98.0517 13.3928H96.0785C96.0785 13.6888 96.0785 13.9848 96.0785 14.3794C95.6839 13.8861 95.7825 13.5902 95.8812 13.3928H95.0919C94.7959 13.3928 94.5986 13.1955 94.5 12.9982L94.1053 11.5183C94.1053 11.617 94.0067 11.7156 94.0067 11.9129C93.908 11.9129 93.908 11.8143 93.8093 11.8143C93.908 11.5183 93.908 11.321 94.0067 11.1237L93.0201 8.26251C92.9214 8.26251 92.9214 8.36117 92.9214 8.45983C92.8227 8.45983 92.8227 8.36117 92.7241 8.36117C92.7241 8.26251 92.8227 8.06519 92.8227 7.96653C92.5268 7.47323 91.8361 7.57189 91.7375 8.06519L91.0468 10.2357C91.0468 10.5317 91.0468 10.729 90.8495 10.9263L90.1589 12.9982C90.0602 13.2942 89.8629 13.3928 89.5669 13.3928H88.8763H85.0286C85.0286 13.4915 85.0286 13.4915 85.0286 13.5902C84.9299 13.5902 84.9299 13.4915 84.8313 13.4915V13.3928H84.6339C84.042 13.3928 83.746 14.1821 84.2393 14.4781L85.0286 15.0701C85.0286 15.0701 85.0286 15.0701 85.1272 14.9714C84.9299 15.0701 84.9299 15.1687 85.0286 15.2674ZM98.1504 15.662C98.1504 15.7607 98.249 15.7607 98.3477 16.0567C98.249 16.0567 98.249 16.1553 98.1504 16.1553L98.0517 15.958C98.0517 15.8594 98.1504 15.7607 98.1504 15.662ZM97.3611 14.0835C97.4598 14.1821 97.4598 14.1821 97.5584 14.2808C97.4598 14.4781 97.3611 14.6754 97.2624 14.8727C97.2624 14.7741 97.1638 14.7741 97.0651 14.6754C97.0651 14.4781 97.2624 14.2808 97.3611 14.0835ZM95.9799 15.5634C96.0785 15.5634 96.0785 15.5634 96.1772 15.5634C96.1772 15.7607 96.1772 16.0567 96.2758 16.254C96.1772 16.254 96.0785 16.254 95.9799 16.254C95.9799 16.0567 95.9799 15.7607 95.9799 15.5634ZM96.0785 17.8326C96.1772 17.8326 96.1772 17.8326 96.2758 17.9312C96.2758 18.2272 96.2758 18.4245 96.1772 18.7205C96.0785 18.7205 95.9799 18.7205 95.8812 18.6218C95.9799 18.3259 95.9799 18.0299 96.0785 17.8326ZM95.0919 21.9763C94.9933 21.9763 94.9933 21.8776 94.8946 21.8776C94.9933 21.6803 94.9933 21.483 95.0919 21.2857C95.1906 21.2857 95.1906 21.3843 95.2892 21.3843C95.1906 21.5816 95.1906 21.779 95.0919 21.9763ZM94.9933 14.2808C95.0919 14.2808 95.0919 14.2808 95.1906 14.3794C95.1906 14.6754 95.0919 14.8727 95.0919 15.1687C94.9933 15.1687 94.9933 15.1687 94.8946 15.0701C94.8946 14.7741 94.9933 14.4781 94.9933 14.2808ZM94.9933 18.8192C95.0919 18.9178 95.1906 18.9178 95.1906 19.0165C95.1906 19.4111 95.3879 19.9044 94.6973 19.9044C94.7959 19.4111 94.8946 19.1151 94.9933 18.8192ZM94.1053 21.187C93.908 20.4964 93.908 20.4964 94.3026 20.1017C94.204 20.3977 94.1053 20.6937 94.1053 21.187ZM94.204 15.5634C94.1053 15.8594 94.1053 16.1553 94.0067 16.55C93.7107 15.958 93.7107 15.662 94.204 15.5634ZM94.0067 13.1955C94.1053 13.1955 94.1053 13.2942 94.204 13.2942C94.1053 13.5902 94.0067 13.8861 93.908 14.0835C93.8093 14.0835 93.8093 13.9848 93.7107 13.9848C93.8093 13.7875 93.908 13.4915 94.0067 13.1955ZM92.9214 14.8727C92.9214 14.9714 93.0201 14.9714 93.0201 15.0701L92.9214 15.1687L92.8227 15.0701C92.8227 14.9714 92.9214 14.9714 92.9214 14.8727ZM90.9482 19.9044C90.8495 19.9044 90.6522 19.8058 90.6522 19.8058C90.6522 19.6084 90.6522 19.4111 90.7509 19.2138C90.8495 19.2138 90.9482 19.2138 90.9482 19.2138C90.9482 19.4111 90.9482 19.7071 90.9482 19.9044ZM91.8361 15.8594C91.8361 15.2674 92.0335 14.5768 91.6388 14.0835C91.5401 13.9848 91.7375 13.5902 91.9348 13.3928C91.9348 14.1821 92.3294 15.0701 91.8361 15.8594ZM91.6388 11.2223C91.8361 10.8277 91.8361 10.433 91.7375 9.93974C91.6388 9.64376 91.7375 9.24912 91.8361 8.85448C92.2308 12.1103 92.3294 11.7156 91.5401 12.2089C91.6388 11.7156 91.5401 11.4196 91.6388 11.2223ZM90.8495 16.9446C90.9482 16.9446 90.9482 17.0433 91.0468 17.0433C91.0468 17.3393 90.9482 17.6352 90.9482 17.9312C90.8495 17.9312 90.7509 17.8326 90.6522 17.8326C90.6522 17.4379 90.7509 17.2406 90.8495 16.9446ZM89.7643 15.4647C89.8629 15.4647 89.8629 15.4647 89.9616 15.4647C89.9616 15.7607 89.9616 16.0567 89.9616 16.3527C89.8629 16.3527 89.7643 16.3527 89.6656 16.3527C89.7643 16.1553 89.7643 15.8594 89.7643 15.4647ZM89.8629 20.2004H89.9616C89.9616 20.4964 89.9616 20.7924 89.9616 21.187C89.8629 21.187 89.7643 21.187 89.6656 21.187C89.7643 20.7924 89.7643 20.4964 89.8629 20.2004ZM87.7911 15.7607C87.8897 15.7607 87.8897 15.7607 87.9884 15.8594C87.9884 16.1553 87.8897 16.4513 87.8897 16.7473C87.7911 16.7473 87.6924 16.6486 87.5937 16.6486C87.6924 16.3527 87.6924 16.0567 87.7911 15.7607Z" fill="#B5B5B5"/>
<path d="M61.6457 22.8641L66.5787 24.344C66.8747 24.4427 66.9733 24.64 67.072 24.936L67.4666 29.9677C67.4666 30.5596 68.2559 30.757 68.6505 30.2637L69.7358 28.6851C69.5385 28.1918 69.7358 27.8958 70.1305 27.7972C70.0318 27.9945 70.0318 28.1918 69.9331 28.3891L70.7224 27.2052C70.7224 27.2052 70.6238 27.2052 70.6238 27.1065C70.7224 26.9092 70.8211 26.6132 70.8211 26.4159C70.8211 26.4159 70.9197 26.4159 70.9197 26.5146C70.9197 26.6132 70.8211 26.8106 70.8211 26.9092L71.413 26.0213C71.413 25.9226 71.5117 25.9226 71.6104 25.824C71.6104 25.6266 71.6104 25.4293 71.6104 25.232C71.709 25.232 71.8077 25.232 71.9063 25.3306C71.9063 25.4293 71.9063 25.6266 71.8077 25.7253C71.9063 25.7253 71.9063 25.7253 72.005 25.7253L76.938 26.8106C77.53 26.9092 77.9246 26.3173 77.53 25.824L76.7407 24.8373H76.642V24.7387L74.5702 22.1735V22.2722C74.4715 22.2722 74.4715 22.1735 74.3728 22.1735C74.3728 22.0749 74.3728 22.0749 74.4715 21.9762L74.3728 21.8775C74.1755 21.6802 74.1755 21.3842 74.3728 21.1869L77.1353 16.7472C77.4313 16.2539 76.938 15.6619 76.346 15.8593L73.6822 16.8459C73.6822 16.9445 73.5836 16.9445 73.5836 17.0432C73.5836 16.9445 73.4849 16.9445 73.3862 16.8459L71.5117 17.5365C71.413 17.5365 71.3144 17.5365 71.1171 17.5365C71.8077 18.0298 71.9063 18.2271 71.5117 19.411C71.3144 19.3124 71.1171 19.2137 70.9197 19.1151C70.6238 19.3124 70.8211 20.299 70.1305 20.2003C70.3278 19.3124 70.4264 18.5231 70.1305 17.7338C70.0318 17.5365 70.2291 17.2405 70.3278 16.7472L67.368 13.2941C66.9733 12.8008 66.2827 13.0968 66.2827 13.6887L66.48 18.8191C66.48 19.1151 66.3814 19.3124 66.0854 19.411L61.3497 21.2856C61.0537 21.8775 61.0537 22.6668 61.6457 22.8641ZM75.7541 25.4293C75.8527 25.4293 75.9514 25.528 75.9514 25.528C75.9514 25.7253 75.8527 25.824 75.8527 26.0213C75.7541 26.0213 75.7541 25.9226 75.6554 25.9226C75.7541 25.7253 75.7541 25.528 75.7541 25.4293ZM74.8661 17.3392C74.9648 17.3392 74.9648 17.4378 75.0635 17.4378C74.9648 17.6352 74.9648 17.9311 74.8661 18.1285C74.7675 18.1285 74.7675 18.0298 74.6688 18.0298C74.6688 17.7338 74.7675 17.5365 74.8661 17.3392ZM74.7675 19.5097C74.8661 19.5097 74.8661 19.5097 74.9648 19.6084C74.9648 19.9043 74.8661 20.1017 74.8661 20.3976C74.7675 20.3976 74.7675 20.3976 74.6688 20.299C74.6688 20.003 74.7675 19.8057 74.7675 19.5097ZM73.8795 26.0213H73.7809C73.7809 25.9226 73.6822 25.7253 73.6822 25.6266C73.6822 25.528 73.7809 25.3306 73.8795 25.232C73.8795 25.232 73.9782 25.232 73.9782 25.3306C73.9782 25.528 73.8795 25.824 73.8795 26.0213ZM73.6822 23.2588C73.7809 23.3574 73.7809 23.3574 73.8795 23.4561C73.7809 23.5548 73.7809 23.6534 73.6822 23.7521C73.6822 23.6534 73.5836 23.6534 73.4849 23.5548C73.5836 23.4561 73.5836 23.3574 73.6822 23.2588ZM72.6956 25.0347C72.3996 24.4427 72.597 24.1467 72.8929 23.7521C73.0903 24.2454 72.9916 24.64 72.6956 25.0347ZM72.7943 19.707C72.8929 19.707 72.8929 19.8057 72.9916 19.8057C72.8929 20.003 72.8929 20.2003 72.7943 20.299C72.7943 20.299 72.6956 20.2003 72.597 20.2003C72.6956 20.1017 72.6956 19.9043 72.7943 19.707ZM72.8929 21.3842C72.9916 22.1735 72.9916 22.1735 72.6956 23.0615C72.301 22.2722 72.4983 21.8775 72.8929 21.3842ZM71.709 23.4561C71.709 23.5548 71.8077 23.6534 71.8077 23.7521C71.709 23.7521 71.709 23.8507 71.709 23.8507C71.709 23.8507 71.709 23.7521 71.6104 23.6534C71.6104 23.5548 71.709 23.4561 71.709 23.4561ZM70.8211 24.8373H70.7224C70.7224 24.64 70.7224 24.4427 70.7224 24.344C70.8211 24.344 70.8211 24.344 70.9197 24.344C70.8211 24.5414 70.8211 24.7387 70.8211 24.8373ZM70.7224 21.5816H70.8211C70.8211 21.9762 70.7224 22.3708 70.7224 22.7655C70.6238 22.7655 70.5251 22.6668 70.4264 22.6668C70.6238 22.2722 70.7224 21.8775 70.7224 21.5816ZM68.4532 20.595C68.3546 20.4963 68.2559 20.4963 68.2559 20.3976C68.3546 20.1017 68.4532 19.8057 68.6505 19.411C68.7492 20.003 68.7492 20.3976 68.4532 20.595ZM69.8345 25.3306C69.8345 25.7253 69.8345 26.1199 69.8345 26.7119C69.6371 26.2186 69.3412 25.824 69.8345 25.3306ZM68.3546 18.4244C68.3546 17.9311 68.3546 17.5365 68.3546 16.8459C68.9465 17.4378 68.7492 17.9311 68.3546 18.4244ZM68.3546 14.8727C68.5519 15.366 68.5519 15.7606 68.1572 16.0566C68.2559 15.6619 68.2559 15.366 68.3546 14.8727ZM67.8613 26.2186C67.7626 26.2186 67.7626 26.2186 67.6639 26.2186C67.6639 25.9226 67.5653 25.7253 67.5653 25.4293C67.6639 25.4293 67.7626 25.4293 67.8613 25.4293C67.7626 25.6266 67.8613 25.9226 67.8613 26.2186ZM67.6639 23.5548C67.6639 23.5548 67.7626 23.6534 67.7626 23.7521C67.6639 23.8507 67.6639 23.8507 67.5653 23.9494C67.5653 23.9494 67.4666 23.8507 67.4666 23.7521C67.5653 23.6534 67.6639 23.5548 67.6639 23.5548ZM67.2693 14.478C67.368 14.478 67.368 14.5767 67.4666 14.5767C67.368 14.774 67.368 14.774 67.2693 14.8727C67.2693 14.774 67.1706 14.6753 67.1706 14.5767L67.2693 14.478Z" fill="#B5B5B5"/>
<path d="M57.5637 34.8509C57.6612 34.8509 57.6612 34.8509 57.7587 34.8509C57.7587 34.9484 57.7587 35.1434 57.7587 35.2409C58.2463 35.1434 58.4413 34.3633 57.9537 34.0708L53.6635 31.4381C53.4685 31.3406 53.371 31.0481 53.371 30.7556L54.346 25.7828C54.4435 25.1978 53.761 24.8077 53.371 25.1978L49.5682 28.6105C49.4707 28.708 49.4707 28.708 49.3732 28.8055C49.3732 28.903 49.3732 28.903 49.2757 29.0005C49.1782 28.903 49.0807 28.8055 49.0807 28.8055C48.9832 28.8055 48.8857 28.8055 48.7882 28.708L48.3007 28.4155C48.3982 28.8055 48.3007 28.903 48.0081 29.488C48.0081 29.0005 48.0081 28.6105 48.0081 28.318L47.1306 27.7329C47.1306 27.8304 47.1306 27.8304 47.0331 27.9279C47.0331 27.8304 46.9356 27.7329 46.9356 27.6354L44.4004 26.1728C43.9129 25.8803 43.3279 26.4653 43.5229 26.9529L44.7904 30.0731C44.7904 29.683 44.6929 29.3905 44.5954 29.0005C45.083 29.7805 45.083 29.7805 44.8879 30.3656L45.473 31.7307C45.5705 31.9257 45.473 32.2182 45.278 32.4132L44.0104 33.5833C44.0104 34.1683 43.9129 34.8509 44.2054 35.3384C44.0104 35.8259 44.0104 36.2159 44.0104 36.7035H44.1079C44.1079 36.606 44.1079 36.5085 44.2054 36.411C44.2054 36.3134 44.4004 36.3134 44.4979 36.3134C44.5954 36.411 44.5954 36.5085 44.5954 36.606H44.7904C44.7904 36.3134 44.7904 35.9234 44.6929 35.5334C44.8879 35.9234 44.9855 36.1184 44.9855 36.5085H45.7655C45.7655 35.0459 45.668 33.6808 45.668 32.1207C46.058 32.8032 46.253 33.0958 46.058 33.5833C45.9605 33.7783 45.9605 34.1683 46.058 34.3633C46.3505 35.0459 46.253 35.8259 46.1555 36.5085H46.253C46.3505 36.3134 46.448 36.1184 46.6431 36.0209C46.6431 36.1184 46.7406 36.1184 46.7406 36.1184C46.7406 36.0209 46.7406 36.0209 46.7406 35.9234C46.8381 35.9234 46.9356 35.8259 47.0331 35.8259C47.0331 36.0209 47.0331 36.2159 47.1306 36.411C47.4231 36.411 47.6181 36.5085 47.7156 36.801L47.8131 36.996C47.9106 37.191 48.0081 37.386 48.1056 37.6785L49.7632 41.3838C49.9583 41.7738 50.2508 41.8713 50.5433 41.7738C50.4458 41.5788 50.5433 41.4813 50.6408 41.1887C50.6408 41.3838 50.6408 41.5788 50.6408 41.6763C50.7383 41.5788 50.8358 41.4813 50.8358 41.2863L52.1034 36.411C52.2009 36.1184 52.3959 36.0209 52.5909 35.9234L53.176 35.8259C52.9809 35.3384 53.0784 35.0459 53.4685 34.8509C53.4685 35.1434 53.371 35.4359 53.2735 35.8259L57.3687 35.3384C57.5637 35.2409 57.5637 35.0459 57.5637 34.8509ZM45.083 27.6354C45.083 27.7329 44.8879 27.7329 44.7904 27.8304C44.6929 27.5379 44.5954 27.2454 44.4979 26.9529C44.5954 26.8554 44.5954 26.8554 44.6929 26.7579C44.9855 26.9529 45.1805 27.1479 45.083 27.6354ZM45.3755 31.3406C45.278 31.1456 45.278 31.0481 45.278 30.9506C45.278 30.8531 45.278 30.7556 45.278 30.6581H45.3755C45.3755 30.8531 45.3755 31.0481 45.3755 31.2431C45.473 31.2431 45.3755 31.3406 45.3755 31.3406ZM44.4979 35.0459C44.4004 34.9484 44.3029 34.9484 44.3029 34.8509C44.3029 34.7534 44.3029 34.6558 44.3029 34.4608C44.4004 34.5583 44.4979 34.5583 44.4979 34.6558C44.4979 34.7534 44.4979 34.9484 44.4979 35.0459ZM44.9855 34.5583C44.9855 34.1683 44.4979 33.7783 44.8879 32.9982C44.8879 33.6808 45.3755 33.9733 44.9855 34.5583ZM45.7655 31.6332C45.7655 31.2431 45.7655 30.9506 45.863 30.3656C46.253 31.1456 46.253 31.1456 45.7655 31.6332ZM45.9605 29.1955C45.863 28.903 45.863 28.513 45.7655 28.2205C45.863 28.2205 45.863 28.1229 45.9605 28.1229C46.058 28.4155 46.058 28.708 46.1555 29.0005C46.1555 29.098 46.058 29.098 45.9605 29.1955ZM46.3505 32.3157L46.253 32.2182C46.3505 32.1207 46.3505 32.0232 46.448 31.8282L46.5455 31.9257C46.5455 32.1207 46.448 32.2182 46.3505 32.3157ZM47.3256 30.1706C46.7406 30.9506 47.2281 31.6332 47.2281 32.3157C47.2281 32.9982 47.1306 33.7783 47.1306 34.4608C47.0331 34.4608 47.0331 34.4608 46.9356 34.4608C46.9356 32.8032 46.9356 31.0481 46.9356 29.3905C47.0331 29.3905 47.1306 29.293 47.2281 29.293C47.2281 29.5855 47.4231 30.0731 47.3256 30.1706ZM49.0807 30.3656C48.9832 30.0731 48.9832 29.7805 48.8857 29.293C49.3732 29.5855 49.4707 29.8781 49.0807 30.3656ZM48.7882 33.8758C48.6907 34.1683 48.5932 34.5583 48.5932 34.8509C48.4957 34.8509 48.3982 34.7534 48.3007 34.7534C48.3982 34.4608 48.4957 34.1683 48.5932 33.7783C48.6907 33.8758 48.7882 33.8758 48.7882 33.8758ZM48.5932 32.0232C48.5932 32.2182 48.4957 32.4132 48.4957 32.6082C48.3982 32.6082 48.3982 32.6082 48.3007 32.5107C48.3007 32.3157 48.3982 32.1207 48.3982 31.9257C48.4957 31.9257 48.5932 31.9257 48.5932 32.0232ZM48.2032 31.5357C48.1056 31.1456 48.0081 30.7556 47.9106 30.3656C48.4957 30.9506 48.4957 30.9506 48.2032 31.5357ZM48.0081 32.2182C48.1056 32.5107 48.3982 32.9007 48.2032 33.4858C47.8131 33.0958 47.8131 32.7057 48.0081 32.2182ZM47.8131 34.6558C47.8131 34.5583 47.9106 34.4608 47.9106 34.1683C48.1056 34.5583 48.2032 34.8509 48.3007 35.1434C48.2032 35.2409 48.2032 35.2409 48.1056 35.3384C48.1056 35.0459 47.9106 34.8509 47.8131 34.6558ZM48.6907 37.2885C48.1056 36.606 48.3007 36.2159 48.7882 35.7284C48.7882 36.3134 48.6907 36.7035 48.6907 37.2885ZM49.1782 39.2386C48.9832 38.7511 48.8857 38.4586 48.7882 38.1661C48.8857 38.0686 48.8857 38.0686 48.9832 37.971C49.1782 38.2636 49.3732 38.5561 49.1782 39.2386ZM49.0807 37.2885C48.9832 36.606 48.8857 36.1184 48.7882 35.7284C48.8857 35.7284 48.8857 35.7284 48.9832 35.6309C49.1782 36.0209 49.5682 36.411 49.0807 37.2885ZM49.0807 34.6558C48.9832 34.4608 48.9832 34.1683 48.8857 33.9733C48.9832 33.9733 49.0807 33.8758 49.1782 33.8758C49.1782 34.0708 49.2757 34.2658 49.2757 34.5583L49.0807 34.6558ZM49.2757 33.6808C49.2757 33.4858 49.3732 33.2908 49.3732 33.0958C49.4707 33.0958 49.4707 33.1933 49.5682 33.1933C49.5682 33.3883 49.4707 33.5833 49.4707 33.7783C49.3732 33.6808 49.2757 33.6808 49.2757 33.6808ZM49.5682 38.0686C49.4707 38.0686 49.4707 38.0686 49.3732 38.0686C49.3732 37.8735 49.3732 37.776 49.3732 37.581C49.3732 37.581 49.4707 37.581 49.5682 37.4835C49.5682 37.6785 49.5682 37.8735 49.5682 38.0686ZM49.3732 31.5357C48.9832 30.8531 49.0807 30.3656 49.5682 29.683C49.5682 30.4631 49.4707 30.9506 49.3732 31.5357ZM50.3483 29.3905C50.4458 29.3905 50.4458 29.488 50.5433 29.488C50.5433 29.683 50.4458 29.8781 50.4458 30.0731L50.2508 29.9756C50.2508 29.7805 50.3483 29.5855 50.3483 29.3905ZM50.2508 31.7307C50.3483 31.7307 50.3483 31.7307 50.4458 31.7307C50.4458 31.8282 50.5433 32.0232 50.5433 32.1207C50.5433 32.2182 50.4458 32.4132 50.4458 32.5107C50.3483 32.5107 50.3483 32.5107 50.2508 32.5107C50.2508 32.2182 50.2508 32.0232 50.2508 31.7307ZM50.5433 39.4336H50.3483C50.3483 39.2386 50.3483 38.9461 50.4458 38.7511C50.5433 38.7511 50.6408 38.7511 50.7383 38.8486C50.6408 38.9461 50.6408 39.2386 50.5433 39.4336ZM50.5433 37.386C50.1533 36.7035 50.2508 36.411 50.7383 35.9234C50.6408 36.606 50.5433 36.8985 50.5433 37.386ZM51.3233 27.9279C51.4208 27.9279 51.4208 28.0254 51.5184 28.0254C51.4208 28.318 51.4208 28.708 51.3233 29.0005C51.2258 29.0005 51.1283 28.903 51.0308 28.903C51.1283 28.513 51.2258 28.2205 51.3233 27.9279ZM51.3233 30.1706C51.4208 30.1706 51.5184 30.2681 51.6159 30.2681C51.5184 30.6581 51.5184 31.0481 51.4208 31.6332C50.9333 30.9506 50.9333 30.5606 51.3233 30.1706ZM51.5184 32.5107C51.5184 32.9007 51.4208 33.2908 51.4208 33.8758C51.0308 33.0957 51.4208 32.8032 51.5184 32.5107ZM51.4208 35.6309C51.3233 35.6309 51.3233 35.5334 51.2258 35.5334C51.3233 35.2409 51.4208 35.0459 51.4208 34.7534C51.5184 34.8509 51.6159 34.8509 51.6159 34.9484C51.6159 35.1434 51.5184 35.3384 51.4208 35.6309ZM52.2009 27.5379C52.2009 27.4404 52.1034 27.4404 52.1034 27.3429C52.2009 27.1479 52.2984 26.9529 52.3959 26.7579C52.4934 26.8554 52.4934 26.8554 52.5909 26.9529C52.3959 27.2454 52.2984 27.3429 52.2009 27.5379ZM52.4934 31.9257C52.4934 31.9257 52.3959 31.9257 52.2984 31.9257C52.2984 31.7307 52.3959 31.6332 52.3959 31.4381C52.3959 31.4381 52.4934 31.5357 52.5909 31.5357C52.4934 31.7307 52.4934 31.8282 52.4934 31.9257ZM53.2735 25.7828C53.371 25.7828 53.371 25.7828 53.4685 25.7828C53.4685 26.0753 53.371 26.3678 53.371 26.7579C53.2735 26.7579 53.176 26.7579 53.0784 26.6604C53.176 26.4653 53.176 26.1728 53.2735 25.7828ZM53.371 27.9279C53.4685 27.9279 53.4685 28.0254 53.566 28.0254C53.4685 28.318 53.371 28.6105 53.2735 28.903C53.176 28.8055 53.0784 28.8055 53.0784 28.708C53.0784 28.513 53.176 28.2205 53.371 27.9279ZM53.2735 30.4631C53.371 30.4631 53.371 30.4631 53.4685 30.4631C53.4685 30.7556 53.4685 31.0481 53.4685 31.3406C53.371 31.3406 53.2735 31.3406 53.176 31.3406C53.176 31.0481 53.2735 30.7556 53.2735 30.4631ZM53.371 33.7783C53.0784 33.2908 53.176 32.9007 53.4685 32.4132C53.6635 32.9982 53.761 33.3883 53.371 33.7783Z" fill="#B5B5B5"/>
<path d="M42.5179 35.0462L42.1279 35.3387C42.1279 35.4362 42.1279 35.5337 42.1279 35.5337C42.1279 35.5337 42.0304 35.4362 41.9328 35.4362L41.6403 35.7287C41.2503 36.0212 41.4453 36.6063 41.8353 36.7038C41.8353 36.6063 41.8353 36.6063 41.8353 36.5088C42.0304 36.5088 42.1279 36.6063 42.2254 36.8013H42.5179C42.5179 36.7038 42.4204 36.7038 42.4204 36.7038C42.4204 36.6063 42.5179 36.5088 42.6154 36.3137C42.7129 36.4113 42.8104 36.5088 42.7129 36.6063C42.7129 36.7038 42.7129 36.7038 42.6154 36.8013H42.9079C42.8104 36.5088 42.8104 36.1187 42.7129 35.7287C43.2979 35.9237 43.2979 36.3137 43.0054 36.8013L43.7855 36.7038C43.7855 35.7287 43.7855 34.8512 43.7855 33.8761L42.5179 35.0462Z" fill="#B5B5B5"/>
<path d="M107.72 26.8106L112.653 25.6267C112.949 25.528 113.146 25.6267 113.344 25.9227L116.205 30.0664C116.501 30.5597 117.29 30.3624 117.389 29.7704L117.783 24.7388C117.783 24.4428 117.981 24.2455 118.277 24.1468L120.941 23.3575C120.941 22.9629 120.941 22.6669 120.842 22.2722H120.941C120.941 22.6669 121.039 22.9629 121.039 23.3575L123.21 22.6669C123.802 22.4696 123.802 21.6803 123.308 21.483L118.573 19.6084C118.277 19.5098 118.178 19.3124 118.178 19.0165L118.375 13.8861C118.375 13.2942 117.685 12.9982 117.29 13.4915L113.936 17.4379C113.738 17.6352 113.442 17.7339 113.245 17.6352L108.509 15.8593C107.917 15.662 107.424 16.254 107.72 16.7473L110.384 21.187C110.483 21.3843 110.483 21.6803 110.384 21.8776L107.227 25.824C106.733 26.2187 107.227 26.9093 107.72 26.8106ZM123.012 21.483C123.012 21.7789 123.012 21.9763 123.012 22.2722C122.815 21.9763 122.815 21.9763 123.012 21.483ZM117.685 20.3977H117.783C117.783 20.6937 117.783 20.891 117.783 21.187C117.685 21.187 117.685 21.187 117.586 21.187C117.586 20.9897 117.586 20.6937 117.685 20.3977ZM117.586 22.5682C117.685 22.5682 117.783 22.6669 117.882 22.6669C117.882 22.8642 117.783 23.0615 117.783 23.3575C117.783 23.3575 117.586 23.3575 117.487 23.2589C117.487 23.0615 117.586 22.8642 117.586 22.5682ZM116.698 17.7339C116.797 17.7339 116.797 17.8325 116.896 17.8325C116.896 17.9312 116.895 18.0299 116.797 18.1285C116.698 18.0299 116.698 18.0299 116.6 17.9312C116.6 17.9312 116.6 17.8325 116.698 17.7339ZM115.81 25.0347C115.81 25.1334 115.81 25.3307 115.81 25.4294L115.712 25.528C115.712 25.4294 115.613 25.3307 115.613 25.1334C115.613 25.1334 115.712 25.1334 115.81 25.0347ZM114.626 17.4379C114.626 17.7339 114.626 18.0299 114.626 18.3258C114.528 18.3258 114.429 18.3258 114.429 18.3258C114.429 18.0299 114.33 17.7339 114.33 17.5366C114.429 17.4379 114.528 17.4379 114.626 17.4379ZM113.738 25.824C113.64 25.824 113.64 25.824 113.541 25.7254C113.541 25.528 113.64 25.3307 113.64 25.2321C113.738 25.2321 113.837 25.3307 113.837 25.3307C113.837 25.4294 113.738 25.6267 113.738 25.824ZM113.64 20.299C113.738 20.3977 113.738 20.3977 113.738 20.3977C113.738 20.4964 113.64 20.595 113.64 20.6937C113.541 20.595 113.541 20.595 113.442 20.4964C113.541 20.595 113.541 20.4964 113.64 20.299ZM112.456 22.0749C112.554 22.0749 112.554 22.0749 112.653 22.0749C112.653 22.2722 112.653 22.4696 112.653 22.6669C112.554 22.6669 112.456 22.6669 112.456 22.6669C112.456 22.3709 112.456 22.1736 112.456 22.0749ZM110.581 20.299C110.483 20.299 110.483 20.299 110.384 20.2004C110.483 20.0031 110.483 19.8057 110.581 19.6084C110.581 19.6084 110.68 19.6084 110.68 19.7071C110.68 19.9044 110.581 20.1017 110.581 20.299ZM110.285 17.9312C110.285 17.7339 110.384 17.5366 110.384 17.3392C110.483 17.3392 110.483 17.4379 110.581 17.4379C110.483 17.6352 110.483 17.8325 110.384 18.0299L110.285 17.9312ZM109.299 25.528C109.397 25.528 109.397 25.528 109.496 25.528C109.496 25.7254 109.496 25.9227 109.496 26.12H109.397C109.299 25.824 109.299 25.6267 109.299 25.528Z" fill="#B5B5B5"/>
<path d="M143.238 35.7565L140.574 33.3887C140.574 33.6847 140.476 33.9806 140.476 34.2766C140.377 34.2766 140.278 34.2766 140.18 34.2766C139.982 33.882 140.081 33.4873 140.278 33.1913L139.588 32.5007C139.588 32.5994 139.588 32.698 139.588 32.7967C139.489 32.7967 139.39 32.7967 139.292 32.698C139.292 32.5007 139.292 32.3034 139.39 32.2047C139.292 32.0074 139.292 31.8101 139.39 31.7114L140.278 29.4423C140.278 29.2449 140.278 29.0476 140.278 28.7516C140.377 28.7516 140.377 28.7516 140.476 28.7516C140.476 28.8503 140.476 28.949 140.574 29.0476L141.462 26.8771C141.66 26.2851 141.068 25.7918 140.574 26.0878L136.135 28.653C135.937 28.7516 135.641 28.7516 135.444 28.5543L131.596 25.1999C131.103 24.8052 130.412 25.1999 130.61 25.7918L131.498 30.2315L131.596 30.1329C131.695 30.3302 131.695 30.4289 131.695 30.5275C131.695 30.6262 131.596 30.6262 131.498 30.7248V30.9222C131.596 31.2181 131.399 31.4155 131.202 31.6128L126.959 34.2766C126.466 34.5726 126.663 35.3619 127.255 35.4605L132.287 36.0525C132.583 36.0525 132.78 36.2498 132.78 36.5458L134.063 41.4788C134.26 42.0708 134.951 42.0708 135.247 41.5775L137.319 36.9404C137.417 36.7431 137.713 36.5458 137.911 36.5458L143.041 36.8418C143.337 36.8418 143.633 36.1512 143.238 35.7565ZM133.57 37.1378C133.57 37.2364 133.668 37.2364 133.668 37.3351C133.668 37.4337 133.57 37.5324 133.57 37.7297C133.471 37.6311 133.372 37.5324 133.471 37.5324C133.471 37.3351 133.471 37.2364 133.57 37.1378ZM133.668 39.5056C133.57 39.5056 133.57 39.4069 133.471 39.4069C133.471 39.3083 133.57 39.2096 133.57 39.111C133.668 39.111 133.767 39.2096 133.767 39.2096C133.668 39.3083 133.668 39.4069 133.668 39.5056ZM139.193 27.5677C139.292 27.5677 139.292 27.5677 139.39 27.6664C139.39 27.8637 139.292 28.1597 139.292 28.357C139.193 28.357 139.193 28.357 139.094 28.2583C139.094 28.061 139.193 27.765 139.193 27.5677ZM137.615 34.8686C137.516 34.8686 137.417 34.7699 137.417 34.7699C137.516 34.6713 137.516 34.5726 137.615 34.4739C137.615 34.5726 137.713 34.5726 137.713 34.6713C137.615 34.6713 137.615 34.7699 137.615 34.8686ZM138.305 28.357C138.7 28.949 138.404 29.2449 138.108 29.3436C138.108 29.0476 138.207 28.7516 138.305 28.357ZM138.404 31.4155H138.305C138.305 31.2181 138.404 30.9222 138.404 30.7248C138.503 30.7248 138.503 30.7248 138.601 30.7248C138.404 30.9222 138.404 31.2181 138.404 31.4155ZM139.489 35.1646C139.489 35.2632 139.39 35.3619 139.292 35.5592C138.897 34.5726 138.897 34.5726 139.686 34.0793C139.588 34.5726 139.588 34.8686 139.489 35.1646ZM140.278 36.3485C140.18 36.2498 140.18 36.0525 140.081 35.9538C140.081 35.9538 140.18 35.8552 140.18 35.7565C140.278 35.7565 140.278 35.7565 140.377 35.7565C140.377 35.9538 140.377 36.1512 140.278 36.3485ZM142.449 35.9538C142.449 36.0525 142.252 36.0525 142.252 36.1512C142.252 36.1512 142.153 36.0525 142.153 35.9538C142.153 35.8552 142.252 35.6579 142.35 35.3619C142.35 35.7565 142.449 35.9538 142.449 35.9538Z" fill="#B5B5B5"/>
<path d="M81.3199 61.6673C81.3199 64.1729 80.1164 66.2031 78.6302 66.2031C77.144 66.2031 75.9404 64.1729 75.9404 61.6673C75.9404 59.1618 77.144 57.1316 78.6302 57.1316C80.1164 57.1316 81.3199 59.1618 81.3199 61.6673Z" fill="#303030"/>
<path d="M108.221 61.6673C108.221 64.1729 107.018 66.2031 105.532 66.2031C104.045 66.2031 102.842 64.1729 102.842 61.6673C102.842 59.1618 104.045 57.1316 105.532 57.1316C107.018 57.1316 108.221 59.1618 108.221 61.6673Z" fill="#303030"/>
<path d="M113.644 54.0177C113.25 53.9021 112.869 53.795 112.497 53.6922C111.674 53.4609 110.903 53.2468 110.154 52.9855C109.036 52.6086 108.029 52.1803 107.079 51.6792C106.076 51.1481 105.168 50.5613 104.299 49.876C103.348 49.1393 102.466 48.2742 101.652 47.4518C101.605 47.4047 101.536 47.3919 101.476 47.4176C101.416 47.4433 101.378 47.5032 101.382 47.5717C101.442 48.8181 101.935 50.1073 102.808 51.298C103.605 52.3773 104.676 53.2853 105.896 53.9235C107.049 54.5274 108.334 54.9 109.627 54.9942C109.678 54.9942 109.726 55.0028 109.777 55.0028C111.229 55.0799 112.535 54.8486 113.67 54.3132C113.73 54.2833 113.764 54.2233 113.76 54.1591C113.756 54.0948 113.709 54.0391 113.644 54.0177Z" fill="#414042"/>
<path d="M70.5183 54.0177C70.9124 53.9021 71.2936 53.795 71.6662 53.6922C72.4885 53.4609 73.2595 53.2468 74.009 52.9855C75.1269 52.6086 76.1334 52.1803 77.0842 51.6792C78.0865 51.1481 78.9945 50.5613 79.8639 49.876C80.8148 49.1393 81.6971 48.2742 82.5108 47.4518C82.558 47.4047 82.6265 47.3919 82.6865 47.4176C82.7464 47.4433 82.785 47.5032 82.7807 47.5717C82.7207 48.8181 82.2282 50.1073 81.3544 51.298C80.5578 52.3773 79.487 53.2853 78.2664 53.9235C77.1142 54.5274 75.8293 54.9 74.5358 54.9942C74.4844 54.9942 74.4373 55.0028 74.3859 55.0028C72.934 55.0799 71.6277 54.8486 70.4926 54.3132C70.4327 54.2833 70.3984 54.2233 70.4027 54.1591C70.407 54.0948 70.4541 54.0391 70.5183 54.0177Z" fill="#414042"/>
<path d="M99.7884 72.4625C97.7112 70.6637 94.8972 69.6486 92.079 69.7C89.3079 69.7085 86.5196 70.7236 84.4209 72.4754C83.363 73.3705 82.4764 74.4627 81.8597 75.6448C81.2086 76.9255 80.8703 78.2189 80.8574 79.4824C80.8574 79.7865 81.0459 80.0564 81.3286 80.1549C81.6155 80.2534 81.9325 80.1592 82.1166 79.9193C82.8747 78.9428 83.59 78.1633 84.3053 77.5465C85.0762 76.8912 85.8943 76.3473 86.738 75.9232C88.4213 75.0838 90.2758 74.634 92.109 74.6255C93.9892 74.6126 95.771 75.0324 97.4156 75.889C99.1074 76.7541 100.662 78.1119 102.033 79.915C102.17 80.0949 102.38 80.1934 102.594 80.1934C102.671 80.1934 102.748 80.1806 102.825 80.1549C103.112 80.0564 103.305 79.7823 103.301 79.4782C103.262 76.9297 101.947 74.3085 99.7842 72.4583L99.7884 72.4625Z" fill="#5E4939"/>
<path d="M63.6937 50.5544C56.301 59.01 57.1208 63.8585 57.1208 63.8585C57.1208 67.489 60.0632 70.4315 63.6937 70.4315C67.3243 70.4315 70.2667 67.489 70.2667 63.8585C70.2667 63.8585 71.0865 59.01 63.6937 50.5544Z" fill="#7CC4E8"/>
<path d="M58.8076 68.2532C60.011 69.5883 61.753 70.4315 63.6942 70.4315C67.3247 70.4315 70.2672 67.489 70.2672 63.8585C70.2672 63.8585 70.6097 61.8208 68.8384 58.0848C67.5296 66.6048 62.1805 68.1566 58.8076 68.2532Z" fill="#62BBE8"/>
<rect x="64.7285" y="121.5" width="55.4" height="18.2" rx="9.1" fill="white" stroke="#000543"/>
<path d="M98.6923 131.334C96.5179 131.334 95.0059 129.822 95.0059 127.749C95.0059 127.043 95.1643 126.41 95.4955 125.877C96.1435 124.797 97.3243 124.163 98.6923 124.163C99.3691 124.163 99.9883 124.307 100.55 124.61C101.687 125.229 102.364 126.366 102.364 127.749C102.364 129.808 100.838 131.334 98.6923 131.334ZM96.8779 127.749C96.8779 128.858 97.6123 129.606 98.6923 129.606C99.7435 129.606 100.492 128.843 100.492 127.749C100.492 126.654 99.7435 125.891 98.6923 125.891C97.6123 125.891 96.8779 126.654 96.8779 127.749ZM97.1659 133.998V133.422C97.1659 132.89 97.5403 132.558 98.1019 132.558H98.1739C98.7355 132.558 99.1099 132.89 99.1099 133.422V133.941C99.1099 135.237 100.003 135.885 101.774 135.885C102.854 135.885 103.847 135.698 104.755 135.338C104.899 135.28 105.043 135.251 105.172 135.251C105.647 135.251 105.993 135.64 105.993 136.144C105.993 136.518 105.748 136.806 105.273 136.994C104.207 137.411 103.041 137.613 101.774 137.613C98.7787 137.613 97.1659 136.317 97.1659 133.998ZM104.035 132.386V124.682C104.035 124.149 104.409 123.818 104.971 123.818H105.043C105.604 123.818 105.979 124.149 105.979 124.682V132.386C105.979 132.918 105.604 133.25 105.043 133.25H104.971C104.409 133.25 104.035 132.918 104.035 132.386Z" fill="#000543"/>
<path d="M81.9355 132.616C81.3739 132.616 81.0427 132.328 81.0283 131.795C81.0283 131.277 81.3595 130.96 81.9211 130.96H84.2971V130.096C83.0155 129.88 82.2523 129.174 82.2523 128.094C82.2523 127.85 82.3099 127.619 82.4395 127.403H82.0363C81.4603 127.403 81.1435 127.13 81.1435 126.611C81.1435 126.093 81.4603 125.805 82.0363 125.805H88.1707C88.7467 125.805 89.0635 126.093 89.0635 126.611C89.0635 127.13 88.7467 127.403 88.1707 127.403H87.8395C87.9691 127.619 88.0267 127.85 88.0267 128.094C88.0267 129.117 87.3211 129.822 86.1691 130.067V130.946C87.0475 130.888 87.7675 130.802 88.3003 130.672C88.4299 130.643 88.5451 130.629 88.6459 130.629C89.0491 130.629 89.3083 130.83 89.4091 131.219C89.4235 131.291 89.4379 131.378 89.4379 131.464C89.4379 131.867 89.1931 132.17 88.7467 132.27C87.6091 132.544 86.6299 132.616 85.1179 132.616H81.9355ZM82.2811 124.25C82.2811 124.034 82.3387 123.861 82.4539 123.717C82.6123 123.501 82.8139 123.4 83.0587 123.4C83.2171 123.4 83.3755 123.443 83.5339 123.53L83.7355 123.63C83.8651 123.702 84.1531 123.731 84.5995 123.731H86.9755C87.5371 123.731 87.8539 124.034 87.8539 124.552C87.8539 125.07 87.5371 125.33 86.9611 125.33H84.8299C83.6779 125.33 83.2747 125.301 82.8139 125.013L82.6411 124.912C82.3963 124.782 82.2811 124.566 82.2811 124.25ZM83.4187 134.2C83.4187 133.667 83.7499 133.336 84.3115 133.336H90.7771C91.4683 133.336 91.9579 133.84 91.9579 134.546V136.85C91.9579 137.426 91.6123 137.757 91.0507 137.757H90.9931C90.4315 137.757 90.0859 137.426 90.0859 136.85V135.237C90.0859 135.136 89.9995 135.064 89.8987 135.064H84.3115C83.7499 135.064 83.4187 134.733 83.4187 134.2ZM84.1243 128.008C84.1243 128.368 84.4987 128.598 85.1467 128.598C85.7659 128.598 86.1547 128.354 86.1547 128.008C86.1547 127.662 85.7659 127.418 85.1467 127.418C84.5131 127.418 84.1243 127.662 84.1243 128.008ZM90.0427 131.882V124.682C90.0427 124.149 90.4171 123.818 90.9787 123.818H91.0507C91.6123 123.818 91.9867 124.149 91.9867 124.682V126.856H93.0955C93.6571 126.856 93.9883 127.187 93.9883 127.72C93.9883 128.253 93.6571 128.584 93.0955 128.584H91.9867V131.882C91.9867 132.414 91.6123 132.746 91.0507 132.746H90.9787C90.4171 132.746 90.0427 132.414 90.0427 131.882Z" fill="#000543"/>
<path d="M46.3015 136.025L41.7445 140.21L43.33 141.936L41.5349 143.585L39.9494 141.859L33.4868 147.795L31.4447 145.572L44.2594 133.801L46.3015 136.025ZM41.7434 133.363L39.962 134.999L36.474 131.201L31.4476 135.818C32.9333 137.394 34.3485 138.755 36.0049 140.059L34.3978 141.968C32.2653 140.312 30.5877 138.569 28.6228 136.402L27.6081 135.297L36.2386 127.37L41.7434 133.363Z" fill="#000543"/>
<path d="M51.2974 144.572C49.4705 147.207 48.4896 150.398 50.4042 153.277L47.5989 154.288C46.4898 152.506 46.3032 150.571 46.749 148.593C44.9306 149.904 42.8996 150.547 40.6661 150.109L40.5898 147.034C44.0803 147.811 46.8322 145.65 48.7757 142.845L50.0363 141.004L52.558 142.731L51.2974 144.572ZM59.461 145.958L49.6305 160.314L47.1242 158.598L56.9547 144.241L59.461 145.958Z" fill="#000543"/>
<path d="M75.1754 160.313L74.4555 162.563L69.8659 161.095L68.8946 164.13L75.0379 166.096L74.2951 168.417L59.2049 163.59L59.9476 161.268L66.0552 163.222L67.0264 160.186L62.5976 158.769L65.2715 150.411L77.0222 154.171L76.3023 156.421L67.4268 153.581L66.1927 157.439L75.1754 160.313Z" fill="#000543"/>
<path d="M93.5263 155.138L92.5131 167.697L89.5228 167.456L89.9978 161.569L87.6616 161.38L87.8546 158.988L90.1908 159.176L90.5361 154.897L93.5263 155.138ZM92.721 169.783L92.528 172.175L80.4547 171.201L80.8996 165.688L83.8898 165.929L83.638 169.05L92.721 169.783ZM88.7539 155.769L88.5624 158.142L85.4039 157.887C85.2834 159.73 86.0528 161.852 88.7947 162.958L87.1641 165.215C85.3513 164.486 84.2082 163.265 83.5846 161.785C82.6917 163.293 81.3019 164.432 79.2718 164.879L77.9338 162.345C80.9762 161.706 82.1121 159.634 82.3389 157.64L79.1617 157.384L79.3532 155.01L88.7539 155.769Z" fill="#000543"/>
<path d="M103.118 156.722L103.466 159.059L95.3609 160.263L95.0136 157.926L97.6472 157.535L97.3578 155.588L100.27 155.155L100.559 157.102L103.118 156.722ZM99.5368 160.173C101.765 159.861 103.598 161.352 103.959 163.781C104.325 166.248 103.008 168.226 100.783 168.556C98.5755 168.884 96.6844 167.384 96.3178 164.917C95.9568 162.487 97.3325 160.52 99.5368 160.173ZM99.9033 162.64C99.1587 162.732 98.762 163.378 98.9328 164.528C99.1065 165.697 99.6686 166.163 100.41 166.053C101.134 165.945 101.536 165.336 101.362 164.167C101.192 163.017 100.624 162.514 99.9033 162.64ZM109.641 153.288L112.19 170.444L109.371 170.863L108.186 162.888L107.37 163.009L108.456 170.316L105.674 170.73L103.268 154.539L106.05 154.125L107.023 160.672L107.839 160.551L106.822 153.707L109.641 153.288Z" fill="#000543"/>
<path d="M129.807 159.838L130.698 162.086L115.968 167.922L115.077 165.673L121.039 163.311L119.982 160.644L115.467 162.433L112.097 153.926L114.904 152.814L115.795 155.063L121.948 152.625L121.057 150.376L123.846 149.272L127.216 157.778L122.754 159.546L123.81 162.213L129.807 159.838ZM117.397 159.107L123.55 156.669L122.818 154.822L116.665 157.259L117.397 159.107Z" fill="#000543"/>
<path d="M132.1 148.033C133.724 150.375 135.676 152.466 138.609 152.418L138.598 155.232C137.037 155.333 135.633 154.789 134.349 153.843C134.831 155.574 134.869 157.258 134.195 158.787L131.429 157.989C132.66 155.06 131.438 152.211 129.782 149.822L128.211 147.557L130.615 145.891L132.1 148.033ZM137.472 139.425L147.354 153.678L144.997 155.313L135.115 141.06L137.472 139.425ZM134.585 141.678L143.922 155.145L141.626 156.737L136.755 149.711L135.275 150.736L133.897 148.749L135.376 147.723L132.289 143.27L134.585 141.678Z" fill="#000543"/>
<path d="M158.481 136.337L160.286 137.976L149.636 149.706L147.831 148.068L150.037 145.638L147.08 142.954C145.624 143.316 144.225 143.059 143.12 142.043C140.984 140.129 141.471 136.747 144.043 133.942C146.563 131.139 149.907 130.3 152.031 132.229C153.128 133.224 153.518 134.579 153.304 136.043L156.288 138.753L158.481 136.337ZM145.779 135.517C144.252 137.17 143.944 138.765 145.124 139.836C146.277 140.882 147.876 140.46 149.388 138.794C150.875 137.156 151.167 135.496 150.027 134.436C148.835 133.379 147.252 133.866 145.779 135.517ZM152.041 143.431L154.259 140.988L152.107 139.034C151.817 139.48 151.48 139.921 151.096 140.344C150.711 140.768 150.305 141.146 149.889 141.478L152.041 143.431Z" fill="#000543"/>
</svg>
