<svg width="152" height="141" viewBox="0 0 152 141" fill="none" xmlns="http://www.w3.org/2000/svg">
<path d="M55.1299 85.267L54.6388 117.929C54.563 118.21 55.1835 122.407 51.1173 124.235L33.5388 132.004L31.5229 132.898C28.354 134.288 25.9036 132.371 25.0649 132.123L7.20962 124.008C6.49723 123.687 5.86769 123.227 5.35133 122.672C4.46918 121.733 3.91442 120.524 3.79519 119.213C3.73456 118.71 3.75275 120.764 4.11652 84.1009C4.14178 81.8071 5.49583 79.7406 7.58148 78.7958L27.5416 69.7863C29.1857 69.0365 31.0824 69.0931 32.683 69.9248L51.962 79.9488C53.9466 80.9825 55.1693 83.0358 55.1309 85.266L55.1299 85.267Z" fill="#FABC4C"/>
<path d="M53.4477 122.37C52.8556 123.164 52.0553 123.813 51.1165 124.235L33.5381 132.004L31.5222 132.898C28.3533 134.288 25.9029 132.371 25.0642 132.123L7.20887 124.008C6.49648 123.687 5.86694 123.227 5.35059 122.672C7.83941 114.999 17.6866 109.265 29.4497 109.265C41.2127 109.265 50.8023 114.847 53.4477 122.37Z" fill="#8574EE"/>
<path d="M39.039 92.7224C39.039 87.4254 34.7454 83.1318 29.4484 83.1318C24.1515 83.1318 19.8579 87.4254 19.8579 92.7224C19.8579 98.0193 24.1515 105.295 29.4484 105.295C34.7454 105.295 39.039 98.0193 39.039 92.7224Z" fill="#8574EE"/>
<path d="M148.232 85.2675C148.224 85.796 148.306 80.3879 147.722 118.943C147.688 121.26 146.298 123.3 144.219 124.235L126.64 132.003L124.624 132.898C121.455 134.287 119.005 132.37 118.166 132.123L100.311 124.007C98.3375 123.117 96.8643 121.114 96.8643 118.589L97.2169 84.1004C97.2422 81.8066 98.5962 79.7401 100.682 78.7953L120.642 69.7858C122.286 69.036 124.183 69.0926 125.783 69.9243L145.062 79.9483C147.047 80.982 148.27 83.0353 148.231 85.2655L148.232 85.2675Z" fill="#7986B5"/>
<path d="M146.55 122.371C145.958 123.165 145.157 123.814 144.219 124.236L126.64 132.005L124.624 132.899C121.455 134.288 119.005 132.371 118.166 132.124L100.311 124.009C99.5985 123.687 98.969 123.228 98.4526 122.673C100.941 114.999 110.789 109.266 122.552 109.266C134.315 109.266 143.904 114.848 146.55 122.371Z" fill="#8ABDF8"/>
<path d="M132.141 92.7228C132.141 87.4259 127.848 83.1323 122.551 83.1323C117.254 83.1323 112.96 87.4259 112.96 92.7228C112.96 98.0198 117.254 105.295 122.551 105.295C127.848 105.295 132.141 98.0198 132.141 92.7228Z" fill="#8ABDF8"/>
<path d="M106.649 39.076C106.589 43.0149 106.114 74.2975 106.012 80.9738C105.968 83.8284 104.261 86.4052 101.652 87.5581C98.2646 89.0557 79.2179 97.4791 77.2758 98.338C73.347 100.07 70.2771 97.6812 69.2363 97.374L47.0269 87.2802C44.5006 86.1333 42.7363 83.6102 42.7363 80.5383L43.1769 37.626C43.2082 34.7784 44.8907 32.2017 47.4866 31.0295L72.3163 19.8151C74.3635 18.8885 76.72 18.9583 78.7117 19.992L102.704 32.4664C105.167 33.7457 106.692 36.3032 106.648 39.076H106.649Z" fill="#F29B98"/>
<path d="M106.031 79.7139C105.951 80.0141 106.697 85.3282 101.653 87.5583C98.2657 89.0559 79.2191 97.4793 77.2769 98.3382C73.3482 100.07 70.2783 97.6814 69.2375 97.3742L47.028 87.2805C44.6271 86.1901 43.0144 83.9034 42.7749 81.3135C51.5702 75.0576 61.1789 70.8985 74.2515 69.4434C85.473 69.9284 96.5489 73.3681 106.031 79.7129V79.7139Z" fill="#76C8F0"/>
<path d="M78.4984 80.635L79.7838 97.2302L77.2758 98.3387C73.347 100.071 70.2771 97.6819 69.2363 97.3747L71.996 80.1115L69.8224 76.4758L71.0885 71.4224H79.512L81.0812 75.5805L78.4984 80.634V80.635Z" fill="#C72F55"/>
<path d="M65.4753 64.4624L62.9824 71.5681L68.8432 81.193L74.695 72.2108L65.4753 64.4624Z" fill="#A369F7"/>
<path d="M77.0693 69.627L81.6438 81.193L89.2366 71.9046L86.6962 65.6982L77.0693 69.627Z" fill="#A369F7"/>
<path d="M91.0709 42.1848C89.4238 38.5915 86.36 34.9316 76.2218 34.2212C65.251 34.8204 63.0198 38.5926 61.3727 42.1848C59.7257 45.7781 60.7523 51.64 61.9194 61.3194C63.4543 74.0455 76.2218 74.0455 76.2218 74.0455C76.2218 74.0455 88.9893 74.0455 90.5243 61.3194C91.6914 51.641 92.718 45.7781 91.0709 42.1848Z" fill="#EAE5DB"/>
<path d="M64.7535 14.9373C64.7535 14.9373 64.2978 23.0101 64.5484 23.4143C70.3496 26.472 77.8524 25.9738 83.1979 22.1754L82.4512 13.6782L64.7535 14.9363V14.9373Z" fill="#1D1D3D"/>
<path d="M74.1158 21.4684L90.5806 15.2327L80.2363 7.46813L66.8756 7.39941L56.2251 14.1232L74.1158 21.4684Z" fill="#1D1D3D"/>
<path d="M74.2135 13.3113C74.1519 12.897 73.7648 12.6131 73.3516 12.6737C69.0499 13.3163 64.9261 15.5495 62.0371 18.8013C59.1997 21.9944 59.1946 25.0693 58.7864 29.5498C57.783 30.1187 57.4324 31.2252 57.1908 32.3499C56.9362 33.5342 56.7755 34.7387 56.7129 35.9482C57.2303 36.22 59.33 37.2063 59.903 37.1163C60.6548 36.9991 62.2736 35.2449 62.2322 33.0703C62.2059 31.69 61.731 29.8843 60.3244 29.3861C60.6922 25.2451 60.7336 22.5502 63.1709 19.8067C65.8275 16.8167 69.6208 14.7634 73.5759 14.1722C73.9902 14.1106 74.2751 13.7246 74.2135 13.3103V13.3113Z" fill="#FFB020"/>
<path d="M102.495 41.9992C102.495 41.9992 102.063 36.6466 102.445 31.9064C102.644 29.4388 104.524 27.4381 106.97 27.0571C112.652 26.1719 123.962 25.0149 136.724 27.0268C139.209 27.4189 141.086 29.4803 141.257 31.9893C141.47 35.1178 141.55 39.5861 140.853 43.9827C140.466 46.421 138.503 48.3036 136.045 48.535C127.964 49.2979 109.528 50.6782 102.943 48.1369L98.4517 51.1309L102.494 41.9982L102.495 41.9992Z" fill="#4CDDC3"/>
<path d="M110.502 35.3467C110.095 35.3467 109.757 35.0234 109.745 34.6131C109.732 34.1948 110.06 33.8451 110.479 33.832L133.984 33.0832C134.394 33.065 134.752 33.3985 134.765 33.8168C134.778 34.2352 134.449 34.5848 134.031 34.5979L110.526 35.3467C110.518 35.3467 110.51 35.3467 110.502 35.3467Z" fill="white"/>
<path d="M110.502 42.6532C110.095 42.6532 109.757 42.3299 109.745 41.9196C109.732 41.5013 110.06 41.1516 110.479 41.1385L133.985 40.3897C134.389 40.3736 134.753 40.705 134.766 41.1233C134.779 41.5417 134.45 41.8923 134.032 41.9055L110.527 42.6542C110.519 42.6542 110.511 42.6542 110.503 42.6542L110.502 42.6532Z" fill="white"/>
</svg>
