<svg width="136" height="141" viewBox="0 0 136 141" fill="none" xmlns="http://www.w3.org/2000/svg">
<path d="M36.7433 60.1138C33.6309 63.5165 25.8907 72.7086 24.3028 76.7012C23.6404 78.3526 23.3863 80.1312 23.1504 81.8825C20.0108 105.121 21.9163 103.461 18.5226 108.624C14.6661 114.495 10.8096 120.375 6.94409 126.246C11.953 132.389 18.568 137.216 25.9361 140.12C27.7056 140.819 28.2409 140.31 28.7037 139.339C37.0337 121.69 41.6978 112.453 44.5833 102.472C46.3437 96.3737 45.5633 94.9673 44.1115 89.1417C41.8793 80.1584 42.4328 69.5508 36.7433 60.1138Z" fill="#FFCFCA"/>
<g clip-path="url(#clip0_900_35688)">
<path d="M46.0144 104.916C46.0144 104.916 66.6641 105.163 106.422 90.2109L99.3971 63.9924L38.461 81.8552C38.461 81.8552 39.6959 103.131 46.0158 104.916L46.0144 104.916Z" fill="#6E7AA2"/>
<path d="M44.9864 103.103C66.7416 101.418 83.3229 96.5542 104.384 88.4541C102 84.025 100.544 77.309 100.218 71.1577C85.8449 76.5726 69.017 77.4794 54.7802 83.2404C50.2827 85.0601 45.7249 87.5731 43.3934 91.8271C41.0602 96.0802 41.7296 100.485 44.9861 103.102L44.9864 103.103Z" fill="#EAE5DB"/>
<path d="M47.4329 90.4103C62.9003 84.0279 78.9622 79.0839 95.3411 75.6627C97.176 75.2791 99.1799 74.8147 100.315 73.3226C101.635 71.586 101.277 69.1453 100.843 67.0082C97.5323 50.7035 93.2874 33.6561 88.2323 12.794C85.8427 2.93057 82.0823 2.29781 77.0773 3.20069C59.9648 6.2893 43.2124 11.3642 26.9225 19.9332C20.1619 26.5861 22.2905 36.9832 24.3509 44.9914C29.2413 64.007 35.2441 82.7358 42.3197 101.051C43.0036 102.822 44.1155 104.896 46.0159 104.916C43.0131 100.596 42.2742 92.5394 47.4342 90.4099L47.4329 90.4103Z" fill="#7986B5"/>
<path d="M48.7449 86.0368L48.7422 86.0375C48.182 86.1876 47.6087 85.8532 47.46 85.2927L30.796 22.5074C30.6463 21.9486 30.9807 21.3753 31.5382 21.2259L31.5408 21.2252C32.101 21.0751 32.6743 21.4095 32.8231 21.97L49.487 84.7553C49.6367 85.3141 49.3024 85.8874 48.7449 86.0368Z" fill="#6E7AA2"/>
</g>
<path d="M75.5407 37.055C73.4939 37.647 68.8014 39.0059 68.7003 38.6557C68.6622 38.5136 68.4456 38.5716 68.4837 38.7137C68.4892 38.8428 68.4948 38.9719 68.5004 39.101C68.4609 39.2785 68.6078 39.4205 68.7788 39.3819C71.0962 38.9061 73.3966 38.2316 75.6754 37.5848C75.966 38.1816 76.6796 38.5708 77.3407 38.3574C77.4016 38.341 77.4557 38.3265 77.5081 38.3053C78.2504 38.0701 78.7275 37.3328 78.5189 36.5544C78.3104 35.776 77.5285 35.3761 76.7681 35.5436C76.7072 35.5599 76.653 35.5744 76.597 35.5821C75.9332 35.731 75.5092 36.396 75.5389 37.0482L75.5407 37.055Z" fill="#DFDCF0"/>
<path d="M79.2573 41.1233C77.2104 41.7153 72.5179 43.0742 72.4168 42.7241C72.3787 42.5819 72.1622 42.6399 72.2002 42.7821C72.2058 42.9112 72.2114 43.0403 72.2169 43.1694C72.1774 43.3468 72.3243 43.4888 72.4953 43.4503C74.8127 42.9744 77.1132 42.3 79.392 41.6531C79.6825 42.25 80.3962 42.6391 81.064 42.4239C81.1181 42.4094 81.1791 42.3931 81.2314 42.3718C81.9737 42.1366 82.4508 41.3994 82.2423 40.621C82.0337 39.8425 81.2518 39.4426 80.4914 39.6101C80.4305 39.6264 80.3763 39.6409 80.3204 39.6487C79.6565 39.7975 79.2326 40.4625 79.2622 41.1147L79.2573 41.1233Z" fill="#DFDCF0"/>
<path d="M80.2054 31.9087C77.7745 32.6109 72.2075 34.2259 72.0883 33.808C72.0447 33.6456 71.7943 33.7127 71.8311 33.8769C71.8353 34.0281 71.8414 34.1861 71.8524 34.3355C71.8066 34.5437 71.9742 34.7091 72.1809 34.6683C74.9234 34.1003 77.6553 33.303 80.3673 32.54C80.7107 33.2533 81.5649 33.7064 82.3478 33.4603C82.4155 33.4422 82.4832 33.4241 82.549 33.3992C83.4316 33.1191 83.9948 32.2427 83.7482 31.3222C83.5015 30.4016 82.5688 29.926 81.6712 30.123C81.6035 30.1412 81.5358 30.1593 81.4663 30.1707C80.6788 30.3454 80.1738 31.1409 80.214 31.9137L80.2054 31.9087Z" fill="#DFDCF0"/>
<path d="M76.2908 28.4815C73.86 29.1836 68.2929 30.7986 68.1737 30.3808C68.1302 30.2183 67.8797 30.2854 67.9165 30.4497C67.9208 30.6009 67.9268 30.7589 67.9378 30.9083C67.892 31.1164 68.0597 31.2819 68.2664 31.241C71.0089 30.673 73.7407 29.8758 76.4527 29.1128C76.7962 29.8261 77.6503 30.2791 78.4332 30.0331C78.5009 30.015 78.5686 29.9968 78.6345 29.9719C79.5171 29.6919 80.0803 28.8155 79.8336 27.8949C79.587 26.9744 78.6542 26.4988 77.7566 26.6958C77.6889 26.7139 77.6213 26.7321 77.5518 26.7434C76.7643 26.9182 76.2592 27.7137 76.2994 28.4864L76.2908 28.4815Z" fill="#DFDCF0"/>
<path d="M61.4352 54.9159C60.753 52.5595 59.2023 47.1784 59.6066 47.0628C59.7691 47.0192 59.7038 46.7756 59.5395 46.8123C59.3883 46.8166 59.2457 46.8258 59.0944 46.83C58.8949 46.7892 58.7276 46.9501 58.7734 47.1482C59.3197 49.8094 60.0916 52.4465 60.8224 55.0656C60.1362 55.4018 59.6876 56.2185 59.9282 56.9811C59.9463 57.0487 59.9626 57.1097 59.9875 57.1755C60.2585 58.0243 61.1023 58.5745 61.9958 58.335C62.8893 58.0956 63.3451 57.1972 63.1554 56.3267C63.1372 56.259 63.1191 56.1913 63.1095 56.1286C62.942 55.3682 62.1723 54.878 61.4266 54.9109L61.4352 54.9159Z" fill="#DFDCF0"/>
<path d="M64.0633 49.7501C63.4604 47.6627 62.0883 42.8939 62.4384 42.7928C62.5806 42.7547 62.5226 42.5381 62.3804 42.5762C62.2513 42.5818 62.1155 42.5892 61.9864 42.5947C61.8089 42.5552 61.6669 42.7021 61.7005 42.8817C62.1854 45.2329 62.864 47.5758 63.515 49.897C62.9046 50.1912 62.5123 50.9202 62.7293 51.5948C62.7456 51.6557 62.7601 51.7099 62.7832 51.769C63.022 52.5248 63.7679 53.0069 64.5598 52.7947C65.3518 52.5825 65.7567 51.7921 65.5855 51.0181C65.5692 50.9572 65.5547 50.903 65.5451 50.8403C65.3994 50.1611 64.7191 49.734 64.0515 49.7605L64.0633 49.7501Z" fill="#DFDCF0"/>
<path d="M70.0023 55.2098C69.3201 52.8534 67.7695 47.4723 68.1738 47.3567C68.3362 47.3132 68.2709 47.0695 68.1067 47.1063C67.9555 47.1105 67.8128 47.1197 67.6616 47.124C67.462 47.0831 67.2948 47.244 67.3406 47.4421C67.8868 50.1034 68.6587 52.7405 69.3895 55.3595C68.7033 55.6957 68.2547 56.5124 68.4953 57.275C68.5134 57.3427 68.5298 57.4036 68.5547 57.4695C68.8256 58.3182 69.6695 58.8684 70.563 58.629C71.4565 58.3896 71.9122 57.4912 71.7225 56.6207C71.7044 56.553 71.6862 56.4853 71.6767 56.4226C71.5092 55.6621 70.7394 55.1719 69.9938 55.2049L70.0023 55.2098Z" fill="#DFDCF0"/>
<path d="M54.0202 25.9181C54.6657 28.5165 56.1358 34.4633 56.5776 34.3522C56.7536 34.305 56.8261 34.5758 56.6501 34.6229C56.5035 34.6985 56.3637 34.7722 56.2171 34.8478C56.0548 35.0001 55.8037 34.9295 55.7339 34.7233C54.7993 31.9122 54.0821 28.9921 53.3452 26.1062C52.5115 26.1627 51.6442 25.6334 51.4513 24.7782C51.4313 24.7037 51.4132 24.6361 51.4 24.5598C51.1885 23.608 51.6938 22.6238 52.6686 22.3627C53.6433 22.1015 54.573 22.7012 54.8657 23.6312C54.8856 23.7056 54.9038 23.7733 54.9305 23.846C55.1924 24.6609 54.7244 25.5408 53.9981 25.9168L54.0202 25.9181Z" fill="#DFDCF0"/>
<path d="M59.0353 27.2512C59.668 29.8022 61.1159 35.6389 61.5442 35.5314C61.7134 35.4861 61.7841 35.7501 61.6149 35.7954C61.475 35.8692 61.3352 35.9429 61.1953 36.0167C61.0312 36.1622 60.7905 36.1034 60.7257 35.8886C59.8038 33.1248 59.1079 30.257 58.3873 27.4321C57.5689 27.4917 56.717 26.9655 56.5296 26.1307C56.5114 26.063 56.4915 25.9885 56.4801 25.919C56.2722 24.9808 56.7694 24.0205 57.7238 23.7648C58.6782 23.509 59.589 24.0921 59.8781 25.0085C59.8962 25.0762 59.9162 25.1507 59.9411 25.2165C60.1926 26.0197 59.7413 26.8807 59.0285 27.253L59.0353 27.2512Z" fill="#DFDCF0"/>
<path d="M60.4038 20.4708C61.0492 23.0692 62.5194 29.016 62.9611 28.9049C63.1371 28.8578 63.2097 29.1285 63.0337 29.1757C62.8871 29.2512 62.7472 29.325 62.6006 29.4005C62.4383 29.5529 62.1872 29.4823 62.1175 29.2761C61.1829 26.465 60.4657 23.5448 59.7287 20.659C58.895 20.7155 58.0277 20.1861 57.8348 19.3309C57.8149 19.2565 57.7968 19.1888 57.7836 19.1125C57.5721 18.1608 58.0774 17.1766 59.0521 16.9154C60.0268 16.6542 60.9565 17.2539 61.2492 18.1839C61.2692 18.2584 61.2873 18.326 61.3141 18.3987C61.5759 19.2136 61.108 20.0935 60.3817 20.4695L60.4038 20.4708Z" fill="#DFDCF0"/>
<path d="M66.7732 25.0176C67.249 26.9288 68.3358 31.3097 68.6558 31.2312C68.7844 31.1967 68.837 31.393 68.7084 31.4275C68.6006 31.4854 68.4995 31.5415 68.3899 31.5926C68.2677 31.7052 68.0866 31.6521 68.0381 31.4983C67.3455 29.4276 66.8197 27.276 66.2791 25.15C65.6661 25.191 65.0256 24.804 64.8858 24.174C64.8713 24.1198 64.8568 24.0657 64.849 24.0097C64.6961 23.3034 65.0631 22.5884 65.7806 22.3962C66.4981 22.2039 67.1821 22.6446 67.3941 23.3277C67.4087 23.3819 67.4232 23.4361 67.4444 23.4884C67.6347 24.0903 67.292 24.7335 66.7579 25.0145L66.7732 25.0176Z" fill="#DFDCF0"/>
<path d="M49.6488 35.0249C51.3684 34.4843 55.3014 33.2419 55.3947 33.5361C55.4255 33.6511 55.6083 33.6022 55.5775 33.4871C55.5706 33.3801 55.5637 33.2732 55.555 33.1594C55.5814 33.0145 55.4621 32.8941 55.3114 32.9272C53.3641 33.3765 51.4401 33.9936 49.5223 34.58C49.2658 34.0828 48.6519 33.7685 48.0942 33.9615C48.0469 33.9742 48.0013 33.9936 47.9557 34.0131C47.3321 34.231 46.9483 34.8562 47.1396 35.5159C47.329 36.1688 48.0025 36.489 48.6424 36.332C48.6897 36.3193 48.7371 36.3066 48.7913 36.2921C49.3499 36.1569 49.6955 35.5783 49.6574 35.0299L49.6488 35.0249Z" fill="#DFDCF0"/>
<path d="M73.3083 50.0293C72.8225 48.4328 71.7023 44.7936 71.9762 44.7057C72.0845 44.6767 72.0391 44.5075 71.9308 44.5365C71.8306 44.5416 71.7304 44.5467 71.6302 44.5517C71.492 44.5235 71.3852 44.6392 71.4147 44.7763C71.8172 46.5765 72.3692 48.3657 72.8954 50.1399C72.4285 50.3739 72.1371 50.938 72.3106 51.4502C72.3233 51.4975 72.3342 51.5382 72.3536 51.5837C72.5453 52.1635 73.1276 52.5226 73.7349 52.3526C74.3423 52.1826 74.6413 51.5656 74.5038 50.9713C74.4911 50.9239 74.4803 50.8833 74.4676 50.8359C74.3433 50.3179 73.8143 49.9953 73.3083 50.0293Z" fill="#DFDCF0"/>
<path d="M50.1417 49.4536C51.8613 48.913 55.7943 47.6706 55.8876 47.9648C55.9184 48.0799 56.1012 48.0309 56.0704 47.9158C56.0635 47.8088 56.0548 47.6951 56.0479 47.5881C56.0743 47.4432 55.955 47.3228 55.8043 47.3559C53.857 47.8052 51.933 48.4223 50.0152 49.0087C49.7587 48.5115 49.1448 48.1972 48.5871 48.3902C48.5398 48.4029 48.4924 48.4156 48.4486 48.4418C47.825 48.6597 47.4412 49.2849 47.6325 49.9446C47.822 50.5975 48.4954 50.9177 49.1353 50.7607C49.1827 50.748 49.23 50.7353 49.2842 50.7208C49.8429 50.5857 50.1884 50.007 50.1503 49.4586L50.1417 49.4536Z" fill="#DFDCF0"/>
<path d="M47.3136 39.9824C49.909 39.1636 55.8423 37.2909 55.9823 37.7322C56.0362 37.9063 56.3052 37.827 56.258 37.651C56.2501 37.4863 56.2355 37.3233 56.2276 37.1586C56.2698 36.9369 56.085 36.7615 55.8647 36.806C52.9269 37.4844 50.0187 38.4087 47.1304 39.2987C46.7404 38.5472 45.8162 38.0766 44.9779 38.3592C44.9034 38.3792 44.8326 38.4127 44.7649 38.4308C43.8286 38.7542 43.2429 39.7092 43.5281 40.692C43.8217 41.6798 44.8294 42.1643 45.7892 41.9289C45.8637 41.9089 45.9382 41.889 46.0126 41.869C46.8574 41.6644 47.3714 40.794 47.3167 39.9671L47.3136 39.9824Z" fill="#DFDCF0"/>
<path d="M52.4258 43.8728C54.8336 43.1116 60.3391 41.3752 60.4651 41.7913C60.5154 41.9519 60.764 41.878 60.7223 41.7223C60.7113 41.5729 60.7052 41.415 60.6942 41.2656C60.7332 41.0592 60.5588 40.8956 60.3539 40.9432C57.6277 41.5721 54.9344 42.4316 52.254 43.2587C51.892 42.5576 51.0348 42.1199 50.2591 42.393C50.1914 42.4111 50.1256 42.4361 50.0597 42.461C49.1893 42.7595 48.65 43.644 48.917 44.5591C49.184 45.4742 50.123 45.9191 51.0151 45.7018C51.0828 45.6837 51.1505 45.6655 51.2182 45.6474C52.0002 45.4523 52.4814 44.6487 52.4276 43.8796L52.4258 43.8728Z" fill="#DFDCF0"/>
<path d="M57.1042 49.8813C57.4617 50.2136 58.0317 50.1479 58.5128 50.048C63.4445 49.0675 68.2796 47.5906 72.9163 45.6445C73.1897 45.5277 73.4748 45.4005 73.6511 45.1647C73.8953 44.8308 73.8654 44.3672 73.8126 43.9534C73.2103 38.971 72.1247 34.053 70.5706 29.2821C70.5045 29.0895 70.4433 28.8882 70.3014 28.7376C70.0849 28.4982 69.7422 28.4377 69.4271 28.3988C66.1584 28.005 62.8986 28.9437 59.7372 29.8707C57.7193 30.4621 55.7099 31.0586 53.6919 31.6501C53.4415 31.7172 53.1879 31.7997 53.0021 31.9728C52.5751 32.3556 52.6341 33.0363 52.7355 33.604C53.6744 38.8951 55.0218 44.1131 56.7477 49.2006C56.8265 49.4406 56.9158 49.6924 57.1074 49.866L57.1042 49.8813Z" fill="#DFDCF0"/>
<path opacity="0.42" d="M69.1283 30.4229C69.0848 30.2604 68.9357 30.1915 68.7764 30.2197C64.067 31.0826 59.3745 32.0352 54.6988 33.0777C54.3838 33.1476 54.4452 33.5664 54.6981 33.6437C54.69 33.6677 54.6801 33.6848 54.6855 33.7051C55.6249 38.6189 56.8847 43.483 57.9951 48.3582C58.0223 48.4597 58.1303 48.5106 58.2269 48.492C62.7505 47.5048 67.1999 46.24 71.5898 44.7808C71.6913 44.7536 71.7932 44.6465 71.7845 44.5328C71.415 39.742 70.4772 35.0237 69.1197 30.4179L69.1283 30.4229ZM70.8135 44.51C68.6265 45.2556 66.4023 45.9169 64.1795 46.556C63.068 46.8756 61.9494 47.1681 60.8289 47.4538C59.6678 47.7504 58.4241 48.4972 58.0562 46.9344C57.023 42.5101 56.1131 38.031 54.9243 33.6484C59.3491 32.6442 63.7907 31.7297 68.254 30.8965C69.2013 30.7225 72.1554 44.0489 70.8135 44.51Z" fill="#7986B5"/>
<path d="M61.5506 35.0932C61.3728 34.7273 60.839 34.9283 60.8196 35.289C60.685 38.198 60.6659 41.1051 60.793 44.0165C60.8078 44.2882 61.2073 44.29 61.2147 44.0196C61.2548 42.8698 61.3017 41.7182 61.3487 40.5667C61.9038 40.5267 62.4626 40.5003 63.021 40.445C63.3809 41.328 63.7322 42.206 64.0989 43.0872C64.2904 43.5582 65.049 43.384 64.8841 42.8768C64.0079 40.2024 62.7914 37.6119 61.5556 35.0846L61.5506 35.0932ZM61.3706 40.0529C61.414 38.9966 61.466 37.9452 61.5162 36.8871C61.9136 37.7745 62.284 38.6692 62.6543 39.5639C62.2252 39.7224 61.7979 39.8877 61.3688 40.0462L61.3706 40.0529Z" fill="#7986B5"/>
<path d="M67.437 41.8447C66.9494 40.2414 66.5227 38.6218 66.0283 37.0204C65.8483 36.4302 65.7138 35.3055 65.2729 34.6618C65.5923 34.4457 65.43 33.8943 65.0342 33.906C64.8319 33.9094 64.6379 33.9977 64.4434 34.057C64.188 34.1327 64.0552 34.4222 64.1936 34.6681C64.2882 34.8314 64.495 34.8993 64.671 34.8521C64.6845 34.8485 64.7048 34.8431 64.7184 34.8394C65.4745 37.147 66.1522 39.5409 66.6715 41.9119C66.1909 42.0407 66.4122 42.8665 66.9316 42.7201L67.3309 42.6131C67.7217 42.5011 67.6999 42.0136 67.437 41.8447Z" fill="#7986B5"/>
<path d="M30.6636 89.9123C35.3912 85.5295 37.8049 79.1323 38.7759 72.7623C39.0027 71.2923 39.1661 69.7769 39.8194 68.443C40.4636 67.1001 40.6724 63.6882 42.1605 63.6247C44.0207 63.5521 46.8064 65.3216 47.1059 69.296C47.242 71.1562 47.2601 72.9982 47.0423 74.8584C45.8627 84.6765 48.2129 88.5058 48.8753 93.9412C49.7918 101.5 46.6068 109.431 40.7087 114.249C40.0009 114.83 39.529 114.812 38.9029 113.859C36.2351 109.812 33.894 105.547 31.8886 101.137C30.2825 97.6162 27.7055 92.6526 30.6636 89.9123Z" fill="#FFCFCA"/>
<path d="M31.8523 89.4494C31.208 89.4494 30.8723 88.6691 31.326 88.1972C36.0445 83.3426 38.1134 72.2359 38.1315 72.118C38.2041 71.7187 38.5853 71.4556 38.9845 71.5282C39.3838 71.6007 39.6469 71.9819 39.5743 72.3811C39.4927 72.853 37.4056 84.0413 32.3786 89.2226C32.2334 89.3768 32.0428 89.4494 31.8523 89.4494Z" fill="#DEB2AE"/>
<path d="M37.5509 115.356C36.7886 115.356 36.5799 114.085 32.2879 111.545C31.934 111.336 31.8251 110.882 32.0338 110.537C32.2425 110.184 32.6962 110.075 33.041 110.283C36.3077 112.225 38.0227 114.049 38.0862 114.122C38.5218 114.594 38.186 115.356 37.5509 115.356Z" fill="#DEB2AE"/>
<path d="M112.221 78.0437C96.505 82.9527 80.7887 87.8527 65.0725 92.7618C58.403 94.8488 57.8223 97.3079 58.8023 101.636C60.4628 108.905 62.7858 116.028 65.7167 122.879C68.1939 128.65 70.4715 129.376 75.2354 128.486C91.5778 125.437 107.031 118.868 122.157 111.972C124.462 110.919 126.921 109.721 128.164 107.516C129.761 104.694 128.899 101.183 128.001 98.0701C124.526 86.0833 123.764 82.0725 120.687 79.0963C118.237 76.7098 113.882 75.9113 112.221 78.0437Z" fill="#FABC4C"/>
<path d="M65.2358 104.54C64.8366 104.458 64.5825 104.068 64.6642 103.669C64.7459 103.269 65.136 103.015 65.5353 103.097C79.6182 105.992 84.3912 108.941 85.9066 108.632C86.3603 108.541 86.7958 108.215 87.2495 107.861C94.1367 102.462 94.8627 99.313 98.084 98.1697C99.8625 97.5345 100.244 97.7432 119.317 98.7232C119.726 98.7413 120.034 99.0861 120.016 99.4945C119.998 99.9028 119.653 100.202 119.245 100.193C99.554 99.186 99.9714 99.0589 98.583 99.558C95.9153 100.502 94.9806 103.687 88.166 109.022C84.4003 111.962 84.8358 108.569 65.2358 104.54Z" fill="white"/>
<path d="M87.4128 114.285C83.638 115.31 79.9086 116.535 76.2517 117.951C75.3625 118.295 74.4188 118.704 73.9106 119.511C73.4025 120.319 73.6565 121.644 74.5821 121.871C74.9178 121.952 75.2717 121.88 75.6075 121.807C83.021 120.165 90.2712 117.76 97.2037 114.657C97.7754 114.403 98.3652 114.121 98.7554 113.631C99.1456 113.141 99.2545 112.37 98.8371 111.907C98.3743 111.399 97.5576 111.49 96.8862 111.626C93.311 112.379 89.8719 113.622 87.4128 114.285Z" fill="#ED6C4D"/>
<path d="M115.543 85.24C113.483 85.6755 101.396 88.1528 99.8716 89.6137C99.3726 90.0946 99.1094 90.8841 99.4361 91.492C99.8989 92.3541 101.124 92.3359 102.095 92.1816C107.312 91.3468 112.448 90.0129 117.403 88.1981C120.76 86.9731 119.317 84.7046 117.366 84.7228C116.396 84.7409 115.479 85.1674 115.543 85.24Z" fill="white"/>
<path d="M96.0607 25.3864C90.8431 27.1286 90.0536 29.0977 90.7977 33.8252C91.7686 39.9865 92.8303 46.1387 93.9736 52.2637C94.2549 53.7882 94.636 55.4578 95.8792 56.3924C97.449 57.5721 99.654 57.0639 101.541 56.5013C108.737 54.3598 115.933 52.2184 123.12 50.0769C127.04 48.9063 128.165 47.7539 128.156 43.7432C128.147 37.4004 127.139 31.0577 125.188 25.0234C124.417 22.646 123.519 21.0671 119.581 20.6043C114.091 19.9691 101.296 23.6351 96.0607 25.3864Z" fill="#4CDDC3"/>
<path d="M120.842 36.5846C119.435 45.1868 111.478 49.9779 104.735 47.419C99.6903 45.5044 96.3873 39.4429 100.126 33.3088C104.926 25.4053 117.702 25.0787 120.588 32.7281C121.087 33.944 121.051 35.2779 120.842 36.5846Z" fill="#F29B98"/>
<path d="M120.588 32.7286C117.593 35.2603 114.145 37.3201 110.615 38.8899C110.407 37.9825 109.173 33.7268 108.41 27.5201C113.283 26.404 118.8 28.0101 120.588 32.7286Z" fill="#FABC4C"/>
<path d="M120.942 34.1624C120.896 34.1806 110.561 38.8356 110.534 38.8446C112.594 36.3946 114.617 34.0263 118.147 29.3804C119.88 30.8141 120.815 32.7469 120.942 34.1624Z" fill="white"/>
<defs>
<clipPath id="clip0_900_35688">
<rect width="70.0765" height="93.8984" fill="white" transform="translate(17.2231 18.4917) rotate(-15)"/>
</clipPath>
</defs>
</svg>
