<svg width="148" height="141" viewBox="0 0 148 141" fill="none" xmlns="http://www.w3.org/2000/svg">
<path d="M66.1306 58.061C68.953 64.3694 73.3901 69.9479 78.9023 74.1181C80.8278 75.575 81.3215 76.611 79.439 79.1142C78.2947 80.6365 76.9927 82.2642 75.1335 82.673C73.0083 83.1406 70.9195 81.8573 69.1929 80.5329C65.4978 77.6993 62.1658 74.3925 59.3042 70.7179C58.061 69.121 56.8822 67.4046 56.3997 65.439C56.2074 64.6559 56.3847 64.4021 56.9494 64.0362C59.8866 62.1369 62.8229 60.2366 66.1315 58.0601L66.1306 58.061Z" fill="#7986B5"/>
<path d="M98.0617 48.4455C85.5606 51.4611 73.5421 56.4749 62.5959 63.2332C61.4433 63.9481 60.2999 64.6836 59.1669 65.434C58.073 66.1583 56.9371 66.9264 55.6305 67.1019C54.699 67.2288 53.7554 67.0403 52.851 66.7743C46.2262 64.846 41.1069 58.56 40.5674 51.6813C40.3509 49.0531 40.9809 48.0208 42.7029 46.2484C45.3759 43.5007 48.2105 40.8696 51.073 38.2609C60.3317 29.8273 69.9198 21.6504 75.4246 10.5391C83.8591 23.0075 84.2465 22.4689 92.5522 38.0855L98.0626 48.4445L98.0617 48.4455Z" fill="#F29B98"/>
<path d="M62.5959 63.2335C61.4433 63.9484 60.2999 64.6839 59.1669 65.4343C58.073 66.1586 56.9371 66.9267 55.6305 67.1022C54.699 67.2291 53.7554 67.0406 52.851 66.7746C46.2262 64.8463 41.1069 58.5603 40.5674 51.6816C40.3509 49.0534 40.9809 48.0211 42.7029 46.2487C45.3759 43.501 48.2105 40.8699 51.073 38.2612C51.9111 47.5656 56.0589 56.5639 62.5969 63.2335H62.5959Z" fill="#7986B5"/>
<path d="M84.5983 4.44756C80.7044 4.41676 76.8927 6.80423 75.2211 10.3201C73.4459 14.0534 74.0637 18.4532 75.012 22.4768C76.748 29.8398 81.1907 42.8785 86.6936 48.0678C92.988 54.0038 101.08 52.307 104.074 45.1969C87.1369 35.1309 88.732 18.4186 84.5983 4.44756Z" fill="#3F94FF"/>
<path d="M106.559 39.5222C104.328 48.121 97.0685 52.4852 90.2767 46.7116C85.6632 42.7076 73.7333 21.5714 77.2212 11.0219C78.4663 7.28389 81.8468 4.04429 85.7883 4.00136C100.393 3.84456 110.346 24.936 106.559 39.5222Z" fill="#7986B5"/>
<path d="M97.414 30.3585C96.883 32.3838 91.8663 38.5401 90.2759 46.7114C85.6195 42.6701 78.9154 28.6701 77.1616 21.1204C81.1815 21.5646 85.2835 21.1969 89.1578 20.033C90.9255 19.4926 91.702 19.3713 93.1011 20.5912C96.6646 23.6609 97.9414 28.3266 97.4131 30.3585H97.414Z" fill="#CAEAED"/>
<path d="M96.1913 30.1337C96.714 30.2924 97.3486 30.1953 97.693 29.7707C98.3734 28.9297 97.8554 26.7756 97.5325 25.7359C96.8568 23.5612 95.7853 21.4108 93.9672 20.0407C93.171 19.4405 92.1565 18.9963 91.1896 19.2399C89.7429 23.6135 94.2966 29.5597 96.1913 30.1347V30.1337Z" fill="white"/>
<path d="M24.2727 72.6437C23.8732 72.6437 23.5465 72.3236 23.54 71.9222C23.3963 62.7476 27.8315 53.5813 35.1133 47.999C35.4344 47.7526 35.8945 47.8133 36.1409 48.1353C36.3873 48.4564 36.3267 48.9165 36.0047 49.1629C29.0831 54.468 24.8691 63.1806 25.0053 71.8998C25.0119 72.3049 24.6889 72.6372 24.2839 72.6437C24.2801 72.6437 24.2764 72.6437 24.2717 72.6437H24.2727Z" fill="#FABC4C"/>
<path d="M66.0466 136.215C52.628 133.907 40.8036 124.768 35.1859 112.365C35.0188 111.996 35.1822 111.562 35.5508 111.395C35.9195 111.228 36.3535 111.391 36.5206 111.76C41.9395 123.726 53.3486 132.544 66.2939 134.77C79.2392 136.997 92.9387 132.5 102.045 123.033C102.326 122.741 102.79 122.732 103.081 123.012C103.373 123.293 103.382 123.757 103.102 124.048C93.7694 133.751 79.6116 138.549 66.0456 136.215H66.0466Z" fill="#FABC4C"/>
<path d="M111.835 81.908L135.427 51.8804L108.444 62.7976L111.835 81.908Z" fill="#DFA234"/>
<path d="M101.482 59.3884L109.055 66.1719L133.769 52.7389L117.424 70.4406L126.604 80.523L137.207 50.1646L101.482 59.3884Z" fill="#FABC4C"/>
<path d="M70.6274 123.7C72.5585 120.398 74.4896 117.096 76.4206 113.794C73.5926 108.387 71.375 101.895 73.8269 96.3069C76.9004 89.3022 87.0504 85.861 93.5781 86.7365C99.922 87.5877 105.387 92.7434 106.867 98.9697C108.347 105.197 105.905 112.119 101.018 116.251C96.1298 120.384 89.0664 121.667 82.8522 119.915C78.9257 121.633 74.9217 123.176 70.6274 123.7Z" fill="#F29B98"/>
<path d="M90.8044 99.6114C89.4492 97.7279 86.8806 96.8123 84.6397 97.4134C82.3988 98.0154 80.6338 100.095 80.4052 102.404C79.9506 106.992 84.2682 109.929 87.6973 112.07C90.292 113.689 90.5449 114.219 91.8665 113.195C97.8062 108.593 99.5404 100.874 98.4754 98.4037C97.2873 95.6494 92.7261 95.1454 90.8044 99.6114Z" fill="white"/>
<path d="M24.9866 89.5178C27.1827 89.2555 28.0899 86.6142 28.5192 84.4442C29.7783 78.0704 29.8408 77.1754 30.6286 76.0946C31.9912 74.226 34.277 74.352 35.1132 77.7512C35.7722 80.4308 36.1604 83.1767 36.2687 85.9338C39.6828 84.7699 43.096 83.606 46.5102 82.4422C49.4352 81.4444 50.4992 82.3852 50.4936 85.0126C50.4852 89.094 50.3107 93.1755 49.9691 97.243C49.7498 99.8544 49.2112 100.545 47.0207 101.528C42.6583 103.485 38.1923 105.211 33.6479 106.696C30.7079 107.656 29.6122 106.938 28.7796 104.036C27.4114 99.2618 26.0422 94.4878 24.9866 89.5168V89.5178Z" fill="#FFCFCA"/>
<path d="M20.2377 91.0615C21.5649 95.8728 22.8921 100.684 24.2202 105.495C24.965 108.195 24.3966 109.041 22.6531 109.908C21.2261 110.619 19.7225 111.177 18.1778 111.57C17.1922 111.82 16.8207 111.65 16.3503 110.843C15.4562 109.312 14.8729 107.623 14.2951 105.945C13.1966 102.756 12.0971 99.5679 10.9986 96.3787C10.6047 95.2363 10.6897 94.6744 12.0449 93.9529C14.5695 92.6089 17.2342 91.5291 20.2395 91.0605L20.2377 91.0615Z" fill="#8574EE"/>
</svg>
