<svg width="523" height="93" viewBox="0 0 523 93" fill="none" xmlns="http://www.w3.org/2000/svg">
<path d="M425.153 40.5404C425.153 18.8782 404.022 1.39648 377.837 1.39648H144.933C118.748 1.39648 97.617 18.8782 97.617 40.5404H40.6542C19.0635 40.5404 1.60718 54.9819 1.60718 72.8437V91.3965H521.393V72.8437C521.393 54.9819 503.936 40.5404 482.345 40.5404H425.153Z" fill="#F8E7A2" stroke="#000543" stroke-width="2" stroke-miterlimit="10" stroke-linecap="round" stroke-linejoin="round"/>
<path d="M435.949 50.8617C449.271 50.6669 462.593 51.0564 475.915 51.6407C484.643 52.0302 494.29 53.0039 500.032 58.4568C505.085 63.1307 506.004 69.9469 506.463 76.3735" stroke="#000543" stroke-width="2" stroke-miterlimit="10" stroke-linecap="round" stroke-linejoin="round"/>
<path d="M211.986 51.7158H218.788L221.689 55.46C223.508 53.3242 224.536 50.1074 224.536 45.8623C224.536 37.6885 220.687 33.2588 214.781 33.2588C208.874 33.2588 204.972 37.6885 204.972 45.8623C204.972 54.0361 208.874 58.4658 214.781 58.4658C215.545 58.4658 216.283 58.3867 216.995 58.2549L211.986 51.7158ZM232.605 45.8623C232.605 52.665 230.284 57.9121 226.54 61.208L231.972 68.1162H224.536L221.478 64.2666C219.421 65.084 217.154 65.4795 214.781 65.4795C204.603 65.4795 196.904 58.2549 196.904 45.8623C196.904 33.417 204.603 26.2451 214.781 26.2451C224.853 26.2451 232.605 33.417 232.605 45.8623ZM264.138 26.7725H272.101V51.5576C272.101 59.9424 265.773 65.4795 256.28 65.4795C246.788 65.4795 240.513 59.9424 240.513 51.5576V26.7725H248.423V50.9248C248.423 55.3018 251.534 58.5186 256.28 58.5186C261.079 58.5186 264.138 55.3018 264.138 50.9248V26.7725ZM288.604 26.7725V64.9521H280.694V26.7725H288.604ZM296.723 64.9521V60.2061L315.866 33.3115H296.671V26.7725H325.78V31.5186L306.69 58.4131H325.833V64.9521H296.723Z" fill="#000543"/>
<path d="M181.059 46.3965C181.059 51.4491 176.989 55.3965 172.137 55.3965C167.128 55.3965 163.059 51.4491 163.059 46.3965C163.059 41.3439 167.128 37.3965 171.98 37.3965C176.989 37.3965 181.059 41.3439 181.059 46.3965Z" fill="#FFAE53" stroke="#000543" stroke-width="2" stroke-miterlimit="10"/>
<path d="M350.941 55.3965C355.912 55.3965 359.941 51.367 359.941 46.3965C359.941 41.4259 355.912 37.3965 350.941 37.3965C345.971 37.3965 341.941 41.4259 341.941 46.3965C341.941 51.367 345.971 55.3965 350.941 55.3965Z" fill="#FFAE53" stroke="#000543" stroke-width="2" stroke-miterlimit="10"/>
</svg>
