<svg width="67" height="66" viewBox="0 0 67 66" fill="none" xmlns="http://www.w3.org/2000/svg">
<path d="M65.1178 33.1097C65.1178 50.6228 50.9206 64.82 33.4075 64.82C15.8944 64.82 1.69727 50.6228 1.69727 33.1097C1.69727 15.5966 15.8944 1.39941 33.4075 1.39941C50.9206 1.39941 65.1178 15.5966 65.1178 33.1097Z" fill="#FA8CD4" stroke="#000543" stroke-width="2"/>
<path d="M26.8623 48.3378C26.6853 48.3378 26.6853 48.3378 26.8623 48.3378C25.9769 48.3378 25.0915 47.9836 24.7373 47.2753L11.456 31.5147C10.3935 30.2751 10.5705 28.5043 11.8101 27.4418C13.0497 26.3793 14.8206 26.5564 15.8831 27.796L27.2165 41.2544L51.123 18.5875C52.1855 17.525 54.1334 17.525 55.1959 18.7646C56.2584 19.8271 56.2584 21.7751 55.0188 22.8376L28.8103 47.6294C28.279 48.1607 27.5707 48.3378 26.8623 48.3378Z" fill="white"/>
<path d="M53.0709 17.8799C53.7793 17.8799 54.6647 18.2341 55.196 18.7653C56.2585 19.8278 56.2585 21.7758 55.0189 22.8383L28.8103 47.6301C28.2791 48.1614 27.5707 48.3385 26.8624 48.3385H26.6853C25.977 48.3385 25.0915 47.9843 24.7374 47.276L11.456 31.5154C10.3935 30.2758 10.5706 28.505 11.8102 27.4425C12.3414 26.9112 13.0498 26.7342 13.581 26.7342C14.4665 26.7342 15.1748 27.0883 15.706 27.7966L27.0395 41.2551L51.123 18.5882C51.6543 18.2341 52.3626 17.8799 53.0709 17.8799ZM53.0709 16.2861C52.0084 16.2861 50.7688 16.6403 50.0605 17.5257L27.2166 38.953L16.9456 26.7342C16.0602 25.6716 14.8206 25.1404 13.581 25.1404C12.5185 25.1404 11.456 25.4946 10.7477 26.2029C8.79974 27.7967 8.62265 30.63 10.2164 32.5779L23.4978 48.3385C24.2061 49.2239 25.4457 49.9323 26.6853 49.9323C26.8624 49.9323 26.8624 49.9323 27.0395 49.9323C28.2791 49.9323 29.3416 49.5781 30.0499 48.6927L56.2585 23.9008C57.1439 23.0154 57.6752 21.9528 57.6752 20.7133C57.6752 19.4737 57.321 18.4111 56.4356 17.5257C55.5501 16.8174 54.3105 16.2861 53.0709 16.2861Z" fill="#222221"/>
</svg>
