<svg width="1213" height="1235" viewBox="0 0 1213 1235" fill="none" xmlns="http://www.w3.org/2000/svg">
<path d="M86.6154 1232H1147.39C1182.52 1232 1211 1203.96 1211 1169.37V130.626C1211 96.0332 1182.52 67.9971 1147.39 67.9971H86.6154C51.4784 67.9971 23.0014 96.0332 23.0014 130.626V1169.37C22.7717 1203.96 51.4784 1232 86.6154 1232Z" fill="#9455AE" stroke="#362C3E" stroke-width="2.9335" stroke-miterlimit="10" stroke-linecap="round" stroke-linejoin="round"/>
<path d="M65.6142 1232H1126.39C1161.52 1232 1190 1203.53 1190 1168.39V131.6C1190 96.469 1161.52 67.9971 1126.39 67.9971H65.6142C30.4771 67.9971 2 96.469 2 131.6V1168.39C2 1203.53 30.4771 1232 65.6142 1232Z" fill="#B37BCC" stroke="#362C3E" stroke-width="2" stroke-miterlimit="10" stroke-linecap="round" stroke-linejoin="round"/>
<path d="M770.153 42.5404C770.153 20.8782 749.022 3.39648 722.837 3.39648H489.933C463.748 3.39648 442.617 20.8782 442.617 42.5404H385.654C364.064 42.5404 346.607 56.9819 346.607 74.8437V93.3965H866.393V74.8437C866.393 56.9819 848.936 42.5404 827.345 42.5404H770.153Z" fill="#F8E7A2" stroke="#000543" stroke-width="2" stroke-miterlimit="10" stroke-linecap="round" stroke-linejoin="round"/>
<path d="M780.949 52.8617C794.271 52.6669 807.593 53.0564 820.915 53.6407C829.643 54.0302 839.29 55.0039 845.032 60.4568C850.085 65.1307 851.004 71.9469 851.463 78.3735" stroke="#000543" stroke-width="2" stroke-miterlimit="10" stroke-linecap="round" stroke-linejoin="round"/>
<path d="M556.986 53.7158H563.788L566.689 57.46C568.508 55.3242 569.536 52.1074 569.536 47.8623C569.536 39.6885 565.687 35.2588 559.781 35.2588C553.874 35.2588 549.972 39.6885 549.972 47.8623C549.972 56.0361 553.874 60.4658 559.781 60.4658C560.545 60.4658 561.283 60.3867 561.995 60.2549L556.986 53.7158ZM577.605 47.8623C577.605 54.665 575.284 59.9121 571.54 63.208L576.972 70.1162H569.536L566.478 66.2666C564.421 67.084 562.154 67.4795 559.781 67.4795C549.603 67.4795 541.904 60.2549 541.904 47.8623C541.904 35.417 549.603 28.2451 559.781 28.2451C569.853 28.2451 577.605 35.417 577.605 47.8623ZM609.138 28.7725H617.101V53.5576C617.101 61.9424 610.773 67.4795 601.28 67.4795C591.788 67.4795 585.513 61.9424 585.513 53.5576V28.7725H593.423V52.9248C593.423 57.3018 596.534 60.5186 601.28 60.5186C606.079 60.5186 609.138 57.3018 609.138 52.9248V28.7725ZM633.604 28.7725V66.9521H625.694V28.7725H633.604ZM641.723 66.9521V62.2061L660.866 35.3115H641.671V28.7725H670.78V33.5186L651.69 60.4131H670.833V66.9521H641.723Z" fill="#000543"/>
<path d="M526.059 48.3965C526.059 53.4491 521.989 57.3965 517.137 57.3965C512.128 57.3965 508.059 53.4491 508.059 48.3965C508.059 43.3439 512.128 39.3965 516.98 39.3965C521.989 39.3965 526.059 43.3439 526.059 48.3965Z" fill="#FFAE53" stroke="#000543" stroke-width="2" stroke-miterlimit="10"/>
<path d="M695.941 57.3965C700.912 57.3965 704.941 53.367 704.941 48.3965C704.941 43.4259 700.912 39.3965 695.941 39.3965C690.971 39.3965 686.941 43.4259 686.941 48.3965C686.941 53.367 690.971 57.3965 695.941 57.3965Z" fill="#FFAE53" stroke="#000543" stroke-width="2" stroke-miterlimit="10"/>
<path d="M1167 133.997C1167 111.906 1149.09 93.9971 1127 93.9971H67C44.9086 93.9971 27 111.906 27 133.997V1166C27 1188.09 44.9086 1206 67 1206H1074.63H1127C1149.09 1206 1167 1188.09 1167 1166V133.997Z" fill="#FDFCFF" stroke="#362C3E" stroke-width="2" stroke-miterlimit="10" stroke-linecap="round" stroke-linejoin="round"/>
</svg>
