<svg width="1920" height="1211" viewBox="0 0 1920 1211" fill="none" xmlns="http://www.w3.org/2000/svg">
<rect width="1920" height="1210" transform="translate(0 0.399414)" fill="#B6F6E3"/>
<g opacity="0.06" clip-path="url(#clip0_900_12059)">
<path d="M1960 1960.4H-40V-39.6006H1960V1960.4ZM-36.6929 1957.09H1956.69V-36.2935H-36.6929V1957.09Z" fill="#203F82"/>
<path d="M1958.38 1189.13H-38.3164V1192.44H1958.38V1189.13Z" fill="#203F82"/>
<path d="M1958.38 1112.34H-38.3164V1115.65H1958.38V1112.34Z" fill="#203F82"/>
<path d="M1958.38 1035.56H-38.3164V1038.87H1958.38V1035.56Z" fill="#203F82"/>
<path d="M1958.38 958.716H-38.3164V962.023H1958.38V958.716Z" fill="#203F82"/>
<path d="M1958.38 881.932H-38.3164V885.239H1958.38V881.932Z" fill="#203F82"/>
<path d="M1958.38 805.147H-38.3164V808.454H1958.38V805.147Z" fill="#203F82"/>
<path d="M1958.38 728.363H-38.3164V731.67H1958.38V728.363Z" fill="#203F82"/>
<path d="M1958.38 651.579H-38.3164V654.886H1958.38V651.579Z" fill="#203F82"/>
<path d="M1958.38 574.794H-38.3164V578.102H1958.38V574.794Z" fill="#203F82"/>
<path d="M1958.38 497.95H-38.3164V501.257H1958.38V497.95Z" fill="#203F82"/>
<path d="M1958.38 421.166H-38.3164V424.473H1958.38V421.166Z" fill="#203F82"/>
<path d="M1958.38 344.381H-38.3164V347.688H1958.38V344.381Z" fill="#203F82"/>
<path d="M1958.38 267.597H-38.3164V270.904H1958.38V267.597Z" fill="#203F82"/>
<path d="M1958.38 190.812H-38.3164V194.12H1958.38V190.812Z" fill="#203F82"/>
<path d="M1958.38 113.968H-38.3164V117.275H1958.38V113.968Z" fill="#203F82"/>
<path d="M1958.38 37.1836H-38.3164V40.4907H1958.38V37.1836Z" fill="#203F82"/>
<path d="M1883.22 -37.917H1879.91V1958.78H1883.22V-37.917Z" fill="#203F82"/>
<path d="M1806.43 -37.917H1803.12V1958.78H1806.43V-37.917Z" fill="#203F82"/>
<path d="M1729.59 -37.917H1726.28V1958.78H1729.59V-37.917Z" fill="#203F82"/>
<path d="M1652.8 -37.917H1649.5V1958.78H1652.8V-37.917Z" fill="#203F82"/>
<path d="M1576.02 -37.917H1572.71V1958.78H1576.02V-37.917Z" fill="#203F82"/>
<path d="M1499.23 -37.917H1495.93V1958.78H1499.23V-37.917Z" fill="#203F82"/>
<path d="M1422.45 -37.917H1419.14V1958.78H1422.45V-37.917Z" fill="#203F82"/>
<path d="M1345.61 -37.917H1342.3V1958.78H1345.61V-37.917Z" fill="#203F82"/>
<path d="M1268.82 -37.917H1265.51V1958.78H1268.82V-37.917Z" fill="#203F82"/>
<path d="M1192.04 -37.917H1188.73V1958.78H1192.04V-37.917Z" fill="#203F82"/>
<path d="M1115.25 -37.917H1111.95V1958.78H1115.25V-37.917Z" fill="#203F82"/>
<path d="M1038.47 -37.917H1035.16V1958.78H1038.47V-37.917Z" fill="#203F82"/>
<path d="M961.624 -37.917H958.316V1958.78H961.624V-37.917Z" fill="#203F82"/>
<path d="M884.839 -37.917H881.532V1958.78H884.839V-37.917Z" fill="#203F82"/>
<path d="M808.055 -37.917H804.748V1958.78H808.055V-37.917Z" fill="#203F82"/>
<path d="M731.271 -37.917H727.964V1958.78H731.271V-37.917Z" fill="#203F82"/>
<path d="M654.486 -37.917H651.179V1958.78H654.486V-37.917Z" fill="#203F82"/>
<path d="M577.702 -37.917H574.395V1958.78H577.702V-37.917Z" fill="#203F82"/>
<path d="M500.857 -37.917H497.55V1958.78H500.857V-37.917Z" fill="#203F82"/>
<path d="M424.073 -37.917H420.766V1958.78H424.073V-37.917Z" fill="#203F82"/>
<path d="M347.289 -37.917H343.982V1958.78H347.289V-37.917Z" fill="#203F82"/>
<path d="M270.504 -37.917H267.197V1958.78H270.504V-37.917Z" fill="#203F82"/>
<path d="M193.72 -37.917H190.413V1958.78H193.72V-37.917Z" fill="#203F82"/>
<path d="M116.876 -37.917H113.569V1958.78H116.876V-37.917Z" fill="#203F82"/>
<path d="M40.0914 -37.917H36.7843V1958.78H40.0914V-37.917Z" fill="#203F82"/>
</g>
<g clip-path="url(#clip1_900_12059)">
<path d="M-254.521 512.191C-254.521 512.191 -22.0619 627.383 27.7735 360.65C79.6433 83.0203 412.297 268.617 412.667 -22.3347C413.037 -313.276 -304.335 -66.033 -304.335 -66.033L-254.521 512.201V512.191Z" fill="#DAC3F8" stroke="#000543" stroke-width="2" stroke-miterlimit="10"/>
<path d="M252.1 659.775L264.544 643.429L277.1 659.92L252.1 659.775Z" fill="#DAF143" stroke="black" stroke-width="2" stroke-linecap="round" stroke-linejoin="round"/>
<path d="M252.1 690.709L264.544 674.363L277.1 690.854L252.1 690.709Z" fill="#DAF143" stroke="black" stroke-width="2" stroke-linecap="round" stroke-linejoin="round"/>
<path d="M252.1 722.328L264.544 705.982L277.1 722.474L252.1 722.328Z" fill="#DAF143" stroke="black" stroke-width="2" stroke-linecap="round" stroke-linejoin="round"/>
<path d="M252.1 753.262L264.544 736.916L277.1 753.407L252.1 753.262Z" fill="#DAF143" stroke="black" stroke-width="2" stroke-linecap="round" stroke-linejoin="round"/>
<path d="M1577.86 255.392L1594.19 267.839L1577.72 280.392L1577.86 255.392Z" fill="#C161EE" stroke="black" stroke-width="2" stroke-miterlimit="10"/>
<path d="M1546.96 255.392L1563.29 267.839L1546.81 280.392L1546.96 255.392Z" fill="#C161EE" stroke="black" stroke-width="2" stroke-miterlimit="10"/>
<path d="M1515.37 255.392L1531.7 267.839L1515.23 280.392L1515.37 255.392Z" fill="#C161EE" stroke="black" stroke-width="2" stroke-miterlimit="10"/>
<path d="M1484.47 255.392L1500.8 267.839L1484.33 280.392L1484.47 255.392Z" fill="#C161EE" stroke="black" stroke-width="2" stroke-miterlimit="10"/>
<path d="M174.574 1033.61C161.965 982.619 123.076 943.061 68.718 929.366C59.315 926.998 49.5952 925.739 39.8381 925.637C-16.6637 925.05 -66.2506 953.326 -93.9563 999.26C-114.365 1033.08 -120.469 1072.43 -111.159 1110.04L-63.2964 1097.23C-71.9912 1062.07 -60.4355 1024.64 -30.6889 998.328C-27.8373 995.801 -24.762 993.498 -21.5375 991.457C12.0019 970.219 51.1421 969.52 82.5102 987.625C104.829 1000.52 120.532 1021.38 126.72 1046.4L174.592 1033.6L174.574 1033.61Z" fill="#F2CC77" stroke="#000543" stroke-width="2" stroke-miterlimit="10"/>
<path d="M-24.8252 267.242C-107.669 267.242 -174.825 334.398 -174.825 417.242C-174.825 500.086 -107.669 567.242 -24.8252 567.242C58.0187 567.242 125.175 500.086 125.175 417.242C125.175 334.398 58.0187 267.242 -24.8252 267.242ZM-24.8252 530.539C-87.3898 530.539 -138.112 479.816 -138.112 417.252C-138.112 354.687 -87.3898 303.964 -24.8252 303.964C37.7394 303.964 88.4622 354.687 88.4622 417.252C88.4622 479.816 37.7394 530.539 -24.8252 530.539Z" fill="#A4C6FC" stroke="#000543" stroke-width="2" stroke-linecap="round" stroke-linejoin="round"/>
<path d="M2130.56 823.398C2130.56 823.398 1849.3 727.477 1858.89 944.903C1868.48 1162.33 1488.85 1018.7 1488.5 1251.98C1488.14 1485.26 2178.5 1287.02 2178.5 1287.02L2130.56 823.398Z" fill="#A4C6FC" stroke="#000543" stroke-width="2" stroke-linecap="round" stroke-linejoin="round"/>
<path d="M1947.24 630.266C1858.87 630.266 1787.24 701.897 1787.24 790.266C1787.24 878.634 1858.87 950.266 1947.24 950.266C2035.6 950.266 2107.24 878.634 2107.24 790.266C2107.24 701.897 2035.6 630.266 1947.24 630.266ZM1947.24 911.108C1880.5 911.108 1826.39 857.001 1826.39 790.266C1826.39 723.53 1880.5 669.423 1947.24 669.423C2013.97 669.423 2068.08 723.53 2068.08 790.266C2068.08 857.001 2013.98 911.108 1947.24 911.108Z" fill="#F2CC77" stroke="#000543" stroke-width="2" stroke-miterlimit="10"/>
<path d="M1685.86 598.738L1672.17 604.227L1666.68 590.535L1660.78 592.889L1666.27 606.592L1652.58 612.071L1654.94 617.971L1668.63 612.482L1674.11 626.185L1680.01 623.82L1674.53 610.128L1688.22 604.639L1685.86 598.738Z" fill="black"/>
<path d="M400.762 268.518L390.61 264.561L394.576 254.405L390.209 252.698L386.243 262.844L376.101 258.887L374.395 263.255L384.537 267.223L380.571 277.369L384.948 279.076L388.904 268.93L399.046 272.887L400.762 268.518Z" fill="black"/>
<path d="M631.176 966.18H620.284V955.284H615.598V966.18H604.707V970.867H615.598V981.764H620.284V970.867H631.176V966.18Z" fill="black"/>
</g>
<defs>
<clipPath id="clip0_900_12059">
<rect width="2000" height="2000" fill="white" transform="translate(-40 -39.6006)"/>
</clipPath>
<clipPath id="clip1_900_12059">
<rect width="2493" height="1482" fill="white" transform="translate(-286 -135.601)"/>
</clipPath>
</defs>
</svg>
