<svg width="184" height="66" viewBox="0 0 184 66" fill="none" xmlns="http://www.w3.org/2000/svg">
<g clip-path="url(#clip0_900_35778)">
<path d="M158.482 64.5723H25.518L12 36.3663L25.518 8.29785H158.482L172 36.3663L158.482 64.5723Z" fill="#00AEA4"/>
<g opacity="0.15">
<mask id="mask0_900_35778" style="mask-type:luminance" maskUnits="userSpaceOnUse" x="12" y="8" width="160" height="57">
<path d="M158.482 64.5713H25.518L12 36.3653L25.518 8.29688H158.482L172 36.3653L158.482 64.5713Z" fill="white"/>
</mask>
<g mask="url(#mask0_900_35778)">
<path d="M-97.8064 20.9551H306.958" stroke="#00AEA4" stroke-width="2" stroke-miterlimit="10"/>
<path d="M-97.8064 52.1865H306.958" stroke="#00AEA4" stroke-width="2" stroke-miterlimit="10"/>
<path d="M154.936 -230.286V272.194" stroke="#00AEA4" stroke-width="2" stroke-miterlimit="10"/>
<path d="M129.784 -230.286V272.194" stroke="#00AEA4" stroke-width="2" stroke-miterlimit="10"/>
<path d="M104.521 -230.286V272.194" stroke="#00AEA4" stroke-width="2" stroke-miterlimit="10"/>
<path d="M79.3682 -230.286V272.194" stroke="#00AEA4" stroke-width="2" stroke-miterlimit="10"/>
<path d="M54.1052 -230.286V272.194" stroke="#00AEA4" stroke-width="2" stroke-miterlimit="10"/>
<path d="M28.9526 -230.286V272.194" stroke="#00AEA4" stroke-width="2" stroke-miterlimit="10"/>
</g>
</g>
<path d="M158.482 64.5723H25.518L12 36.3663L25.518 8.29785H158.482L172 36.3663L158.482 64.5723Z" stroke="#222221" stroke-width="2" stroke-miterlimit="10"/>
<path d="M157.374 57.5554H26.626L13.3296 29.8998L26.626 2.24414H157.374L170.67 29.8998L157.374 57.5554Z" fill="#47BEC6"/>
<path d="M157.374 57.5554H26.626L13.3296 29.8998L26.626 2.24414H157.374L170.67 29.8998L157.374 57.5554Z" stroke="#222221" stroke-width="2" stroke-miterlimit="10"/>
<path d="M80.9199 30.1328V33.4141H56.3398V30.1328H80.9199ZM77.9316 34.9082V43.1113H73.6836V38.2188H59.123V34.9082H77.9316ZM78.3711 25.5332V28.6973H59.3574V16.8027H78.1074V20.0254H63.5469V21.1973H77.5215V24.2734H63.5469V25.5332H78.3711ZM103.414 16.2461V32.125H99.1953V16.2461H103.414ZM94.2148 32.5938C99.9277 32.5645 103.473 34.5273 103.502 37.8672C103.473 41.2363 99.9277 43.1406 94.2148 43.1113C88.4727 43.1406 84.8984 41.2363 84.8984 37.8672C84.8984 34.5273 88.4727 32.5645 94.2148 32.5938ZM94.2148 35.8457C90.8164 35.8457 89.1465 36.4902 89.1465 37.8672C89.1465 39.2441 90.8164 39.918 94.2148 39.8887C97.584 39.918 99.3418 39.2441 99.3418 37.8672C99.3418 36.4902 97.584 35.8457 94.2148 35.8457ZM96.7051 17.9453V21.3145H91.5781C91.8418 24.0977 93.6436 26.8662 97.8184 28.1113L95.6504 31.3926C92.7207 30.5283 90.7139 28.7412 89.5273 26.5C88.2969 29.0488 86.1729 31.085 83.0234 32.0957L80.8262 28.7559C85.1328 27.3936 86.9932 24.3613 87.2422 21.3145H81.9688V17.9453H96.7051ZM111.312 40.2988V36.6953L119.047 29.8984C120.834 28.2578 121.859 27.1738 121.889 25.5625C121.859 23.8047 120.57 22.6914 118.783 22.6914C116.967 22.6914 115.766 23.834 115.766 25.7676H111.02C111.02 21.4902 114.154 18.7949 118.812 18.7949C123.588 18.7949 126.723 21.373 126.723 25.1816C126.723 27.6133 125.521 29.6348 120.922 33.6484L118.256 36.1094V36.2559H126.986V40.2988H111.312Z" fill="white"/>
</g>
<defs>
<clipPath id="clip0_900_35778">
<rect width="184" height="65" fill="white" transform="translate(0 0.798828)"/>
</clipPath>
</defs>
</svg>
