<svg width="148" height="41" viewBox="0 0 148 41" fill="none" xmlns="http://www.w3.org/2000/svg">
<g clip-path="url(#clip0_900_24073)">
<path d="M147.81 15.3044C147.81 16.9235 146.571 18.1616 144.952 18.1616C143.333 18.1616 142.095 16.9235 142.095 15.3044C142.095 13.6854 143.333 12.4473 144.952 12.4473C146.571 12.4473 147.81 13.6854 147.81 15.3044Z" fill="#05B9DF"/>
<path d="M147.81 5.8757C147.81 7.49475 146.571 8.73284 144.952 8.73284C143.333 8.73284 142.095 7.49475 142.095 5.8757C142.095 4.25665 143.333 3.01855 144.952 3.01855C146.571 3.01855 147.81 4.35189 147.81 5.8757Z" fill="#ED7971"/>
<path d="M147.81 24.7331C147.81 26.3522 146.571 27.5903 144.952 27.5903C143.333 27.5903 142.095 26.3522 142.095 24.7331C142.095 23.1141 143.333 21.876 144.952 21.876C146.571 21.876 147.81 23.1141 147.81 24.7331Z" fill="#45B035"/>
<path d="M61.4285 39.6852H46.1904C44.9523 39.6852 44 39.3995 43.3333 38.828C42.5714 38.1614 42.1904 37.209 42.1904 35.8757V32.828C42.1904 31.6852 42.5714 30.7328 43.238 30.1614C43.9047 29.5899 44.8571 29.3042 46.0952 29.3042H58.1904V26.9233H44.3809C43.9047 26.9233 43.238 26.828 42.7619 26.3518C42.5714 26.1614 42.2857 25.6852 42.2857 25.0185C42.2857 24.5423 42.4761 24.1614 42.7619 23.7804C43.1428 23.3995 43.619 23.209 44.3809 23.209H58.6666C60 23.209 60.9523 23.5899 61.5238 24.2566C62.0952 24.9233 62.3809 25.6852 62.3809 26.6376V29.3042C62.3809 30.4471 62.0952 31.3042 61.4285 31.9709C60.7619 32.5423 59.8095 32.9233 58.5714 32.9233H46.4761V35.7804H61.4285C62.1904 35.7804 62.6666 35.9709 63.0476 36.3518C63.4285 36.7328 63.619 37.209 63.619 37.6852C63.619 38.1614 63.4285 38.6376 63.0476 39.0185C62.6666 39.4947 62.0952 39.6852 61.4285 39.6852Z" fill="#0055A7"/>
<path d="M79.619 25.3997H69.7142C68.4761 25.3997 67.5238 25.114 66.8571 24.5426C66.0952 23.8759 65.7142 22.9235 65.7142 21.5902V16.4473C65.7142 15.3997 66.0952 14.5426 66.7619 13.8759C67.4285 13.3045 68.3809 13.0187 69.619 13.0187H75.5238V7.87588H68.6666C68.3809 7.87588 67.5238 7.87588 66.9523 7.30445C66.6666 6.9235 66.4761 6.54255 66.4761 6.06636C66.4761 5.59017 66.6666 5.20922 66.9523 4.82826C67.3333 4.44731 67.8095 4.25684 68.5714 4.25684H76.0952C77.3333 4.25684 78.2857 4.63779 78.8571 5.30445C79.4285 5.97112 79.7142 6.73303 79.7142 7.68541V13.114C79.7142 14.2568 79.4285 15.114 78.7618 15.7806C78.0952 16.4473 77.1428 16.733 75.9047 16.733H69.9047V21.7806H79.619C79.9047 21.7806 80.7619 21.7806 81.3333 22.3521C81.619 22.733 81.8095 23.114 81.8095 23.5902C81.8095 24.0664 81.619 24.5426 81.3333 24.8283C80.7619 25.3997 79.9047 25.3997 79.619 25.3997Z" fill="#0055A7"/>
<path d="M107.524 8.25677C107.524 9.39962 107.143 10.352 106.286 11.1139C105.429 11.8758 104.571 12.2568 103.429 12.2568C102.286 12.2568 101.429 11.8758 100.667 11.1139C99.9048 10.352 99.5238 9.39962 99.5238 8.25677C99.5238 7.20915 99.9048 6.25677 100.667 5.49486C101.429 4.73296 102.381 4.25677 103.429 4.25677C104.476 4.25677 105.429 4.63772 106.19 5.49486C107.143 6.25677 107.524 7.11391 107.524 8.25677ZM111.524 8.25677C111.524 6.16153 110.667 4.352 109.143 2.82819C107.524 1.30439 105.714 0.54248 103.524 0.54248C101.333 0.54248 99.4286 1.30439 97.9048 2.82819C96.3809 4.352 95.5238 6.16153 95.5238 8.25677C95.5238 10.352 96.2857 12.2568 97.9048 13.7806C99.4286 15.3044 101.333 16.0663 103.524 16.0663C105.619 16.0663 107.524 15.3044 109.143 13.7806C110.667 12.2568 111.524 10.352 111.524 8.25677Z" fill="#0055A7"/>
<path d="M135.619 26.5424H116.667C116.381 26.5424 115.524 26.5424 114.952 25.971C114.667 25.59 114.476 25.2091 114.476 24.7329C114.476 24.2567 114.667 23.8757 114.952 23.4948C115.524 22.9233 116.381 22.9233 116.667 22.9233H135.619C136.381 22.9233 136.857 23.1138 137.238 23.4948C137.524 23.8757 137.714 24.2567 137.714 24.7329C137.714 25.2091 137.524 25.6852 137.238 25.971C136.762 26.5424 135.905 26.5424 135.619 26.5424Z" fill="#0055A7"/>
<path d="M132.667 18.1616H120.762C119.714 18.1616 118.762 17.8759 118 17.3997C117.143 16.8283 116.667 15.7807 116.667 14.4474V7.78069C116.667 6.5426 117.048 5.59022 117.809 4.92355C118.476 4.35212 119.429 4.06641 120.667 4.06641H132C132.286 4.06641 133.143 4.06641 133.714 4.63783C134 5.01879 134.19 5.39974 134.19 5.87593C134.19 6.35212 134 6.73307 133.714 7.11403C133.143 7.68545 132.286 7.68545 132 7.68545H120.952V14.3521H132.762C133.048 14.3521 133.905 14.3521 134.476 14.9235C134.762 15.3045 134.952 15.6855 134.952 16.1616C134.952 16.6378 134.762 17.114 134.476 17.3997C133.809 18.1616 132.952 18.1616 132.667 18.1616Z" fill="#0055A7"/>
<path d="M92.9524 5.87593C92.9524 5.39974 92.7619 4.92355 92.3809 4.5426C92 4.25688 91.5238 4.06641 90.8571 4.06641H85.8095C85.3333 4.06641 84.8571 4.25688 84.3809 4.63783C83.9047 5.01879 83.619 5.68545 83.619 6.44736V23.7807C83.619 24.5426 83.8095 25.2093 84.2857 25.5902C84.6666 25.9712 85.2381 26.1616 85.8095 26.1616C86.2857 26.1616 86.8571 25.9712 87.2381 25.5902C87.7143 25.2093 87.9047 24.5426 87.9047 23.7807V7.87593V7.78069H88H90.8571C91.5238 7.78069 92 7.59022 92.3809 7.3045C92.6666 7.11403 92.9524 6.63783 92.9524 5.87593Z" fill="#0055A7"/>
<path d="M113.81 18.9235C113.429 18.5425 112.952 18.3521 112.19 18.3521H92.6667C92.381 18.3521 91.5238 18.352 90.9524 18.9235C90.6667 19.3044 90.4762 19.6854 90.4762 20.1616C90.4762 20.6378 90.6667 21.114 90.9524 21.3997C91.5238 21.9711 92.381 21.9711 92.6667 21.9711H102.286C102.286 24.2568 102.286 27.5901 102.286 27.5901C102.286 28.352 102.476 29.0187 102.952 29.3997C103.333 29.7806 103.81 29.9711 104.381 29.9711C104.952 29.9711 105.429 29.7806 105.81 29.3997C106.286 29.0187 106.476 28.352 106.476 27.5901C106.476 27.5901 106.476 24.1616 106.476 21.9711H112.095C112.381 21.9711 113.238 21.9711 113.81 21.3997C114.095 21.0187 114.286 20.6378 114.286 20.1616C114.286 19.6854 114.095 19.2092 113.81 18.9235Z" fill="#0055A7"/>
<path d="M62.2857 17.7807V8.63788C62.2857 6.82836 61.9047 5.59026 61.1428 4.9236C60.3809 4.25693 59.1428 3.87598 57.3333 3.87598H44.2857C43.9999 3.87598 42.9523 3.87598 42.3809 4.54264C42.0952 4.9236 41.9047 5.30455 41.9047 5.78074C41.9047 6.25693 42.0952 6.73312 42.4761 7.11407C42.8571 7.49502 43.4285 7.6855 44.2857 7.6855H57.9999C57.9999 7.6855 57.9999 7.78074 57.9999 7.97121V10.3522H45.1428C44.3809 10.3522 43.8095 10.5426 43.4285 10.9236C43.0476 11.3045 42.8571 11.7807 42.8571 12.2569C42.8571 12.7331 43.0476 13.2093 43.3333 13.495C43.8095 14.0665 44.5714 14.0665 45.0476 14.0665H57.9047V17.2093H38.9523C38.4761 17.2093 37.8095 17.3045 37.3333 17.7807C36.9523 18.1617 36.7618 18.5426 36.7618 19.1141C36.7618 19.7807 37.0476 20.2569 37.3333 20.4474C37.7142 20.7331 38.1904 20.9236 38.9523 20.9236H60.1904C60.6666 20.9236 61.238 20.9236 61.7142 20.4474C61.9999 20.2569 62.2857 19.7807 62.2857 19.1141V17.7807Z" fill="#0055A7"/>
<path d="M3.14284 14.2566C9.80951 20.1614 16.0952 15.8757 18.2857 14.0662C18.0952 13.8757 17.7143 13.59 17.619 13.4947C15.8095 11.4947 10.7619 5.30425 10.7619 5.30425C9.71427 3.97091 8.09522 3.11377 6.2857 3.11377C3.14284 3.11377 0.571411 5.78044 0.571411 9.01853C0.571411 10.4471 1.0476 11.7804 1.90474 12.8281C2.19046 13.1138 3.23808 14.3519 3.14284 14.2566Z" fill="#0055A7"/>
<path d="M34.1904 4.92327C31.9047 2.63756 28.2857 2.63756 26 4.92327L19.0476 13.3042C19.0476 13.3042 11.3333 21.4947 3.14282 14.2566C4.76187 16.2566 8.57139 21.0185 11.619 24.0661C12.0952 24.5423 12.3809 25.209 12.3809 25.9709V34.3518C12.3809 37.5899 14.9523 40.2566 18.1904 40.2566C21.4285 40.2566 24 37.5899 24 34.3518V26.1614C24 24.0661 25.1428 24.828 34.1904 13.3042C36.3809 10.9233 36.3809 7.20898 34.1904 4.92327Z" fill="#05B9DF"/>
<g opacity="0.7">
<mask id="mask0_900_24073" style="mask-type:luminance" maskUnits="userSpaceOnUse" x="0" y="3" width="19" height="15">
<path d="M18.1905 3.11377H0.571411V17.209H18.1905V3.11377Z" fill="white"/>
</mask>
<g mask="url(#mask0_900_24073)">
<mask id="mask1_900_24073" style="mask-type:luminance" maskUnits="userSpaceOnUse" x="0" y="3" width="19" height="15">
<path d="M18.1905 3.11377H0.571411V17.209H18.1905V3.11377Z" fill="white"/>
</mask>
<g mask="url(#mask1_900_24073)">
<path d="M3.14284 14.2566C9.80951 20.1614 16.0952 15.8757 18.2857 14.0662C18.0952 13.8757 17.7143 13.59 17.619 13.4947C15.8095 11.4947 10.7619 5.30425 10.7619 5.30425C9.71427 3.97091 8.09522 3.11377 6.2857 3.11377C3.14284 3.11377 0.571411 5.78044 0.571411 9.01853C0.571411 10.4471 1.0476 11.7804 1.90474 12.8281C2.19046 13.1138 3.23808 14.3519 3.14284 14.2566Z" fill="url(#paint0_linear_900_24073)" fill-opacity="0.7"/>
</g>
</g>
</g>
</g>
<defs>
<linearGradient id="paint0_linear_900_24073" x1="9.42855" y1="10.1912" x2="9.42855" y2="17.2686" gradientUnits="userSpaceOnUse">
<stop stop-opacity="0"/>
<stop offset="1" stop-opacity="0.7"/>
</linearGradient>
<clipPath id="clip0_900_24073">
<rect width="147.619" height="40" fill="white" transform="translate(0.380981 0.399414)"/>
</clipPath>
</defs>
</svg>
