<svg width="183" height="69" viewBox="0 0 183 69" fill="none" xmlns="http://www.w3.org/2000/svg">
<g clip-path="url(#clip0_900_35601)">
<path d="M157.482 67.4215H24.518L11 38.0064L24.518 8.73486H157.482L171 38.0064L157.482 67.4215Z" fill="#5D32FF"/>
<g opacity="0.15">
<mask id="mask0_900_35601" style="mask-type:luminance" maskUnits="userSpaceOnUse" x="11" y="8" width="160" height="60">
<path d="M157.482 67.421H24.518L11 38.0059L24.518 8.73438H157.482L171 38.0059L157.482 67.421Z" fill="white"/>
</mask>
<g mask="url(#mask0_900_35601)">
<path d="M-98.8066 21.9365H305.958" stroke="#5D32FF" stroke-width="2" stroke-miterlimit="10"/>
<path d="M-98.8066 54.5059H305.958" stroke="#5D32FF" stroke-width="2" stroke-miterlimit="10"/>
<path d="M153.936 -240.075V283.943" stroke="#5D32FF" stroke-width="2" stroke-miterlimit="10"/>
<path d="M128.784 -240.075V283.943" stroke="#5D32FF" stroke-width="2" stroke-miterlimit="10"/>
<path d="M103.521 -240.075V283.943" stroke="#5D32FF" stroke-width="2" stroke-miterlimit="10"/>
<path d="M78.3682 -240.075V283.943" stroke="#5D32FF" stroke-width="2" stroke-miterlimit="10"/>
<path d="M53.105 -240.075V283.943" stroke="#5D32FF" stroke-width="2" stroke-miterlimit="10"/>
<path d="M27.9526 -240.075V283.943" stroke="#5D32FF" stroke-width="2" stroke-miterlimit="10"/>
</g>
</g>
<path d="M157.482 67.4215H24.518L11 38.0064L24.518 8.73486H157.482L171 38.0064L157.482 67.4215Z" stroke="#222221" stroke-width="2" stroke-miterlimit="10"/>
<path d="M156.374 60.1041H25.6262L12.3298 31.263L25.6262 2.42188H156.374L169.671 31.263L156.374 60.1041Z" fill="#6A86E7"/>
<path d="M156.374 60.1041H25.6262L12.3298 31.263L25.6262 2.42188H156.374L169.671 31.263L156.374 60.1041Z" stroke="#222221" stroke-width="2" stroke-miterlimit="10"/>
<path d="M82.0146 30.1328V33.4141H57.4346V30.1328H82.0146ZM79.0264 34.9082V43.1113H74.7783V38.2188H60.2178V34.9082H79.0264ZM79.4658 25.5332V28.6973H60.4521V16.8027H79.2021V20.0254H64.6416V21.1973H78.6162V24.2734H64.6416V25.5332H79.4658ZM104.509 16.2461V32.125H100.29V16.2461H104.509ZM95.3096 32.5938C101.022 32.5645 104.567 34.5273 104.597 37.8672C104.567 41.2363 101.022 43.1406 95.3096 43.1113C89.5674 43.1406 85.9932 41.2363 85.9932 37.8672C85.9932 34.5273 89.5674 32.5645 95.3096 32.5938ZM95.3096 35.8457C91.9111 35.8457 90.2412 36.4902 90.2412 37.8672C90.2412 39.2441 91.9111 39.918 95.3096 39.8887C98.6787 39.918 100.437 39.2441 100.437 37.8672C100.437 36.4902 98.6787 35.8457 95.3096 35.8457ZM97.7998 17.9453V21.3145H92.6729C92.9365 24.0977 94.7383 26.8662 98.9131 28.1113L96.7451 31.3926C93.8154 30.5283 91.8086 28.7412 90.6221 26.5C89.3916 29.0488 87.2676 31.085 84.1182 32.0957L81.9209 28.7559C86.2275 27.3936 88.0879 24.3613 88.3369 21.3145H83.0635V17.9453H97.7998ZM122.104 19.0879V40.2988H117.095V23.7754H116.978L112.202 26.7051V22.3691L117.446 19.0879H122.104Z" fill="white"/>
</g>
<defs>
<clipPath id="clip0_900_35601">
<rect width="183" height="68" fill="white" transform="translate(0 0.801758)"/>
</clipPath>
</defs>
</svg>
