<svg width="159" height="31" viewBox="0 0 159 31" fill="none" xmlns="http://www.w3.org/2000/svg">
<g clip-path="url(#clip0_900_24099)">
<path d="M75.1 23.1994C76.9 23.0994 78.8 22.8994 80.5 22.6994L80.9 26.2994C77.2 26.7994 72.6 27.0994 69.3 27.0994H65.8L65.6 23.3994H69.7C70.1 23.3994 70.6 23.3994 71.1 23.3994V20.5994C68.3 19.9994 66.3 17.7994 66.3 13.9994V13.6994C66.3 8.99941 69.3 6.89941 73 6.89941C76.7 6.89941 79.7 8.99941 79.7 13.6994V13.9994C79.7 17.6994 77.8 19.7994 75.1 20.4994V23.1994ZM70.3 13.8994C70.3 16.0994 71.6 17.0994 73 17.0994C74.4 17.0994 75.7 16.1994 75.7 13.8994V13.5994C75.7 11.3994 74.4 10.3994 73 10.3994C71.6 10.3994 70.3 11.2994 70.3 13.5994V13.8994ZM89 14.6994V18.3994H86V30.4994H82V5.89941H86V14.6994H89Z" fill="#0055A7"/>
<path d="M90.2 18.9994V15.1994C90.2 9.09941 93.2 6.79941 97 6.79941C100.7 6.79941 103.7 9.09941 103.7 15.1994V18.9994C103.7 25.0994 100.7 27.3994 97 27.3994C93.2 27.3994 90.2 25.0994 90.2 18.9994ZM99.7 18.9994V15.1994C99.7 11.4994 98.4 10.4994 97 10.4994C95.6 10.4994 94.2 11.4994 94.2 15.1994V18.9994C94.2 22.6994 95.5 23.6994 97 23.6994C98.5 23.6994 99.7 22.6994 99.7 18.9994ZM106.7 5.89941H110.7V30.4994H106.7V5.89941Z" fill="#0055A7"/>
<path d="M122.7 13.2994V7.19941H126.6V26.6994H114V7.19941H117.9V13.2994H122.7ZM117.9 22.9994H122.7V16.9994H117.9V22.9994ZM130.2 5.89941H134.2V30.4994H130.2V5.89941Z" fill="#0055A7"/>
<path d="M147.4 14.1994C146.9 17.0994 144.8 18.5994 142.2 18.5994C139.1 18.5994 136.8 16.5994 136.8 12.4994V12.1994C136.8 8.09941 139.1 6.09941 142.2 6.09941C144.9 6.09941 146.9 7.59941 147.4 10.5994H149.2V6.09941H152.8V19.0994H149.2V14.1994H147.4ZM140.5 12.4994C140.5 14.1994 141.3 15.0994 142.2 15.0994C143.1 15.0994 143.9 14.1994 143.9 12.4994V12.2994C143.9 10.5994 143.1 9.69941 142.2 9.69941C141.3 9.69941 140.5 10.5994 140.5 12.2994V12.4994ZM141.1 20.2994H158.1V30.4994H141.1V20.2994ZM145.1 26.7994H154.1V23.7994H145.1V26.7994ZM154.4 5.89941H158.2V19.0994H154.4V5.89941Z" fill="#0055A7"/>
<path d="M48.2 5.69958V30.4996H42.3V0.599582C42.3 0.399582 42.7 0.299582 42.8 0.399582L48.2 5.69958Z" fill="#0055A7"/>
<path d="M0 9.69941V0.399414H5.9V14.6994C5.9 14.8994 5.6 14.9994 5.4 14.7994L0 9.69941Z" fill="#E83844"/>
<path d="M14.4 25.1994V0.399414H8.39999V30.1994C8.39999 30.3994 8.79999 30.4994 8.99999 30.3994L14.4 25.1994Z" fill="#E83844"/>
<path d="M22.8 0.399414H16.9V30.4994H22.8V0.399414Z" fill="#E83844"/>
<path d="M25.9 0.499642C25.7 0.299642 25.4 0.399642 25.4 0.599642V14.6996C25.4 14.8996 25.8 14.9996 25.9 14.7996L31.3 9.59964V5.59964L25.9 0.499642Z" fill="#E83844"/>
<path d="M25.9 15.9996C25.7 15.7996 25.4 15.8996 25.4 16.1996V30.2996C25.4 30.4996 25.8 30.5996 25.9 30.3996L31.3 25.1996V21.1996L25.9 15.9996Z" fill="#E83844"/>
<path d="M39.7 5.69958V30.4996H33.8V0.599582C33.8 0.399582 34.1 0.299582 34.3 0.399582L39.7 5.69958Z" fill="#0055A7"/>
<path d="M56.6 5.69958V30.4996H50.7V0.599582C50.7 0.399582 51.1 0.299582 51.2 0.399582L56.6 5.69958Z" fill="#0055A7"/>
</g>
<defs>
<clipPath id="clip0_900_24099">
<rect width="158.2" height="30.1" fill="white" transform="translate(0 0.399414)"/>
</clipPath>
</defs>
</svg>
