<svg width="551" height="138" viewBox="0 0 551 138" fill="none" xmlns="http://www.w3.org/2000/svg">
<path d="M10.7447 30.3076C9.81474 30.3076 9.27474 29.7676 9.27474 28.8076V19.0276L9.18474 18.9076L1.71474 7.89758C1.50474 7.56758 1.41474 7.29758 1.41474 7.02758C1.41474 6.51758 1.71474 6.03758 2.28474 5.79758C2.52474 5.70758 2.73474 5.64758 2.94474 5.64758C3.39474 5.64758 3.81474 5.91758 4.20474 6.48758L10.7147 16.4476L17.2247 6.48758C17.6147 5.91758 18.0647 5.61758 18.5147 5.61758C18.7247 5.61758 18.9347 5.67758 19.1747 5.79758C19.6847 6.06758 20.0147 6.51758 20.0147 6.99758C20.0147 7.32758 19.9247 7.62758 19.7147 7.89758L12.2447 18.9076L12.1847 18.9976V28.8076C12.1847 29.7676 11.6747 30.3076 10.7447 30.3076ZM25.8289 30.1576C23.3089 30.1576 21.7489 28.6876 21.7489 26.1676V7.89758C21.7489 6.60758 22.6189 5.79758 23.8489 5.79758H29.7889C34.7389 5.79758 37.8289 8.31758 37.8289 12.6076C37.8289 14.6776 36.5389 16.6876 34.9489 17.6176C37.2589 18.4876 38.8189 20.7076 38.8189 23.4376C38.8189 27.7276 35.8189 30.1576 30.7789 30.1576H25.8289ZM24.6589 26.1076C24.6589 26.9176 25.1989 27.4576 26.0089 27.4576H30.7789C33.8989 27.4576 35.8189 26.0476 35.8189 23.3776C35.8189 20.6176 34.1389 19.2376 30.7789 19.2376H24.6589V26.1076ZM24.6589 16.5376H29.7889C32.9089 16.5376 34.8289 15.1876 34.8289 12.5476C34.8289 9.84758 33.1489 8.49758 29.7889 8.49758H25.1089C24.8689 8.49758 24.6589 8.70758 24.6589 8.94758V16.5376ZM42.4681 30.3076C41.5381 30.3076 40.9981 29.7676 40.9981 28.8076V7.14758C40.9981 6.18758 41.5681 5.64758 42.5281 5.64758C43.3381 5.64758 43.7881 5.94758 44.0581 6.66758C45.8581 11.1076 48.4081 17.5576 51.6781 26.0176C54.9481 17.5576 57.4981 11.1076 59.2981 6.66758C59.5681 5.97758 60.1081 5.64758 60.9181 5.64758C61.8481 5.64758 62.4181 6.18758 62.4181 7.14758V28.8076C62.4181 29.7676 61.9081 30.3076 60.9781 30.3076C60.0481 30.3076 59.5081 29.7676 59.5081 28.8076L59.5681 18.3976L59.7181 12.4576C58.3681 16.3276 56.8681 20.0776 54.2581 26.1676L53.2081 28.6876C52.9081 29.3776 52.3981 29.7076 51.6781 29.7076C50.9581 29.7076 50.4481 29.3776 50.1481 28.6876L48.8281 25.5376C46.5181 20.1076 44.8081 15.7876 43.6981 12.5776L43.8481 18.4576L43.9081 28.8076C43.9081 29.7676 43.3981 30.3076 42.4681 30.3076ZM71.8606 29.7676C70.9006 29.7676 70.3606 29.2576 70.3606 28.3876C70.3606 27.5176 70.9006 27.0376 71.8606 27.0376H76.8706V17.0176C76.8706 16.0576 77.4106 15.5176 78.3706 15.5176H78.4906C79.4506 15.5176 79.9906 16.0576 79.9906 17.0176V27.0376H82.9306V17.0176C82.9306 16.0576 83.4706 15.5176 84.4306 15.5176H84.5506C85.5106 15.5176 86.0506 16.0576 86.0506 17.0176V27.0376H94.3606C95.3206 27.0376 95.8606 27.5176 95.8606 28.3876C95.8606 29.2576 95.3206 29.7676 94.3606 29.7676H71.8606ZM74.2906 7.62758C74.2906 6.75758 74.8306 6.24758 75.7906 6.24758H89.6206C90.9106 6.24758 91.7206 7.08758 91.7206 8.37758C91.7206 14.8876 91.5406 17.2576 90.7906 20.0476C90.6406 20.6476 90.0406 21.0976 89.4106 21.0976C89.2306 21.0976 89.0206 21.0376 88.7506 20.9476C88.2106 20.6776 87.9406 20.2576 87.9406 19.7476C87.9406 19.5376 87.9706 19.2976 88.0306 19.0576C88.5406 16.4176 88.6606 14.5276 88.6606 9.45758C88.6606 9.18758 88.4506 9.00758 88.2106 9.00758H75.7906C74.8306 9.00758 74.2906 8.49758 74.2906 7.62758ZM98.1383 27.7876C97.1783 27.7876 96.6383 27.3076 96.6083 26.4376C96.6083 25.5676 97.1483 25.0576 98.1083 25.0576H101.558V16.5376C101.558 15.5776 102.098 15.0376 103.058 15.0376H103.178C104.138 15.0376 104.678 15.5776 104.678 16.5376V25.0276C107.948 24.9376 110.498 24.5176 112.358 23.7676C112.598 23.6776 112.838 23.6176 113.078 23.6176C113.678 23.6176 114.068 23.9176 114.278 24.5476C114.338 24.6976 114.368 24.8476 114.368 24.9976C114.368 25.5676 113.978 26.0476 113.288 26.3176C111.008 27.3076 107.648 27.7876 103.208 27.7876H98.1383ZM97.9283 7.62758C97.9283 6.75758 98.4683 6.24758 99.4283 6.24758H109.838C111.128 6.24758 111.938 7.08758 111.938 8.37758C111.938 13.5676 111.758 15.9376 111.008 18.6676C110.858 19.2676 110.258 19.7176 109.628 19.7176C109.448 19.7176 109.238 19.6576 108.968 19.5676C108.428 19.2976 108.158 18.8776 108.158 18.3676C108.158 18.1576 108.188 17.9176 108.248 17.6776C108.728 15.0376 108.878 13.2076 108.878 9.45758C108.878 9.18758 108.668 9.00758 108.428 9.00758H99.4283C98.4683 9.00758 97.9283 8.49758 97.9283 7.62758ZM115.658 31.5976V6.09758C115.658 5.13758 116.198 4.59758 117.158 4.59758H117.278C118.238 4.59758 118.778 5.13758 118.778 6.09758V14.6176H121.658C122.618 14.6176 123.158 15.1276 123.158 15.9976C123.158 16.8676 122.618 17.3476 121.658 17.3476H118.778V31.5976C118.778 32.5576 118.238 33.0976 117.278 33.0976H117.158C116.198 33.0976 115.658 32.5576 115.658 31.5976ZM124.596 26.1076C124.206 25.7776 124.026 25.3876 124.026 24.9376C124.026 24.5476 124.176 24.1876 124.476 23.8876C128.106 20.1376 130.476 15.2176 130.476 10.8076V7.53758C130.476 6.57758 131.016 6.03758 131.976 6.03758H132.096C133.056 6.03758 133.596 6.57758 133.596 7.53758V10.8076C133.596 12.0376 133.446 13.2976 133.146 14.5276C135.576 17.1976 138.396 20.9776 139.836 23.6176C139.986 23.9476 140.076 24.2176 140.076 24.4876C140.076 24.9976 139.836 25.3876 139.326 25.7176C139.056 25.8676 138.786 25.9576 138.576 25.9576C138.066 25.9576 137.556 25.6276 137.226 25.0576C135.336 22.0276 133.626 19.5976 132.096 17.8276C130.806 20.7976 128.916 23.6176 126.756 25.8076C126.336 26.2276 125.916 26.4376 125.466 26.4376C125.166 26.4376 124.866 26.3176 124.596 26.1076ZM137.676 14.6176C137.676 13.7476 138.216 13.2376 139.176 13.2376H143.256V6.09758C143.256 5.13758 143.796 4.59758 144.756 4.59758H144.876C145.836 4.59758 146.376 5.13758 146.376 6.09758V31.5976C146.376 32.5576 145.836 33.0976 144.876 33.0976H144.756C143.796 33.0976 143.256 32.5576 143.256 31.5976V15.9676H139.176C138.216 15.9676 137.676 15.4876 137.676 14.6176ZM157.061 21.3376C156.101 21.3376 155.561 20.8576 155.561 19.9876C155.561 19.1476 156.101 18.6376 157.061 18.6376H166.751V17.0176C163.631 16.6576 161.681 15.1576 161.681 12.9976C161.681 12.2776 162.071 11.4676 162.761 11.0176H160.061C159.101 11.0176 158.561 10.5376 158.561 9.66758C158.561 8.82758 159.101 8.31758 160.061 8.31758H176.591C177.551 8.31758 178.091 8.82758 178.091 9.66758C178.091 10.5076 177.551 11.0176 176.591 11.0176H173.831C174.521 11.4676 174.911 12.2476 174.911 12.9976C174.911 15.1276 172.991 16.6276 169.871 17.0176V18.6376H179.561C180.521 18.6376 181.061 19.1476 181.061 19.9876C181.061 20.8276 180.521 21.3376 179.561 21.3376H157.061ZM160.991 28.2076C160.991 25.0876 163.811 22.5676 168.311 22.5676C172.811 22.5676 175.631 25.0876 175.631 28.2076C175.631 31.3276 172.811 33.8776 168.311 33.8776C163.811 33.8776 160.991 31.3276 160.991 28.2076ZM162.491 5.28758C162.491 5.01758 162.551 4.80758 162.671 4.59758C162.911 4.14758 163.301 3.93758 163.811 3.93758C164.021 3.93758 164.231 3.96758 164.441 4.02758C165.311 4.29758 166.721 4.44758 168.611 4.44758H172.721C173.711 4.44758 174.191 4.86758 174.191 5.73758C174.191 6.54758 173.681 6.96758 172.691 6.96758H168.041C165.911 6.96758 164.531 6.84758 163.211 6.36758C162.731 6.21758 162.491 5.79758 162.491 5.28758ZM163.991 28.2076C163.991 29.9776 165.761 31.2376 168.311 31.2376C170.861 31.2376 172.631 29.9776 172.631 28.2076C172.631 26.4376 170.861 25.2076 168.311 25.2076C165.761 25.2076 163.991 26.4376 163.991 28.2076ZM164.801 12.7576C164.801 13.8076 166.151 14.5576 168.281 14.5576C170.441 14.5576 171.791 13.8076 171.791 12.7576C171.791 11.6776 170.471 10.9576 168.281 10.9576C166.091 10.9576 164.801 11.6776 164.801 12.7576ZM190.388 20.6776C187.868 20.6776 186.308 19.2076 186.308 16.6876V7.29758C186.308 6.33758 186.848 5.79758 187.808 5.79758H187.928C188.888 5.79758 189.428 6.33758 189.428 7.29758V10.4476H199.988V7.29758C199.988 6.33758 200.528 5.79758 201.488 5.79758H201.608C202.568 5.79758 203.108 6.33758 203.108 7.29758V16.6876C203.108 19.2376 201.818 20.6776 199.328 20.6776H190.388ZM181.958 28.3876C181.958 27.5176 182.498 27.0376 183.458 27.0376H193.148V23.2576C193.148 22.2976 193.688 21.7576 194.648 21.7576H194.768C195.728 21.7576 196.268 22.2976 196.268 23.2576V27.0376H205.958C206.918 27.0376 207.458 27.5176 207.458 28.3876C207.458 29.2576 206.918 29.7676 205.958 29.7676H183.458C182.498 29.7676 181.958 29.2576 181.958 28.3876ZM189.428 16.5676C189.428 17.3776 189.968 17.9176 190.778 17.9176H198.638C199.448 17.9176 199.988 17.3776 199.988 16.5676V13.0276H189.428V16.5676ZM209.736 20.9476C208.776 20.9476 208.236 20.4676 208.206 19.5976C208.206 18.7276 208.746 18.2176 209.706 18.2176H213.156V13.2376C213.156 12.2776 213.696 11.7376 214.656 11.7376H214.776C215.736 11.7376 216.276 12.2776 216.276 13.2376V18.1876C219.366 18.1576 221.946 17.8276 224.046 17.1376C224.346 17.0476 224.556 16.9876 224.706 16.9876C225.426 16.9876 225.966 17.6776 225.966 18.4276C225.966 19.0276 225.546 19.5076 224.796 19.7476C222.066 20.6776 219.006 20.9476 214.806 20.9476H209.736ZM209.526 7.14758C209.526 6.27758 210.066 5.76758 211.026 5.76758H221.436C222.726 5.76758 223.536 6.60758 223.536 7.89758C223.536 11.2576 223.326 13.0876 222.696 14.5576C222.426 15.1876 221.886 15.6076 221.286 15.6076C221.136 15.6076 220.956 15.5476 220.686 15.4576C220.056 15.0976 219.786 14.7676 219.786 14.2876C219.786 14.1976 219.816 13.9876 219.906 13.6876C220.296 12.4576 220.476 11.1076 220.476 8.97758C220.476 8.70758 220.266 8.52758 220.026 8.52758H211.026C210.066 8.52758 209.526 8.01758 209.526 7.14758ZM213.306 25.7176V25.1476C213.306 24.1876 213.846 23.6476 214.806 23.6476H214.926C215.886 23.6476 216.426 24.1876 216.426 25.1476V25.5976C216.426 28.5676 218.256 30.0376 222.486 30.0376C224.616 30.0376 227.076 29.5576 228.846 28.7476C229.086 28.6576 229.296 28.5976 229.506 28.5976C230.226 28.5976 230.826 29.2276 230.826 30.0676C230.826 30.6376 230.466 31.0576 229.716 31.3876C227.496 32.3176 225.096 32.7976 222.486 32.7976C216.486 32.7976 213.306 30.1576 213.306 25.7176ZM227.256 22.8676V6.09758C227.256 5.13758 227.796 4.59758 228.756 4.59758H228.876C229.836 4.59758 230.376 5.13758 230.376 6.09758V11.4676H233.256C234.216 11.4676 234.756 11.9776 234.756 12.8476C234.756 13.7176 234.216 14.1976 233.256 14.1976H230.376V22.8676C230.376 23.8276 229.836 24.3676 228.876 24.3676H228.756C227.796 24.3676 227.256 23.8276 227.256 22.8676ZM251.434 32.6476C250.504 32.6476 249.964 32.1076 249.964 31.1476V17.0476H247.114C246.724 21.4576 244.414 24.0076 241.144 24.0076C237.604 24.0076 235.084 21.0976 235.084 15.6376C235.084 13.8676 235.354 12.3376 235.864 11.0776C236.914 8.58758 238.774 7.29758 241.144 7.29758C244.474 7.29758 246.754 9.87758 247.114 14.3176H249.964V6.39758C249.964 5.43758 250.474 4.89758 251.434 4.89758C252.364 4.89758 252.874 5.43758 252.874 6.39758V31.1476C252.874 32.1076 252.364 32.6476 251.434 32.6476ZM238.054 15.6376C238.054 19.2376 239.314 21.3676 241.144 21.3676C242.944 21.3676 244.204 19.2376 244.204 15.6376C244.204 12.0676 242.944 9.93758 241.144 9.93758C239.344 9.93758 238.054 12.0676 238.054 15.6376ZM255.844 31.8976V6.09758C255.844 5.13758 256.354 4.59758 257.314 4.59758C258.244 4.59758 258.754 5.13758 258.754 6.09758V31.8976C258.754 32.8576 258.244 33.3976 257.314 33.3976C256.384 33.3976 255.844 32.8576 255.844 31.8976ZM262.591 26.1076C262.201 25.7776 262.021 25.3876 262.021 24.9376C262.021 24.5476 262.171 24.1876 262.471 23.8876C266.101 20.1376 268.471 15.2176 268.471 10.8076V7.53758C268.471 6.57758 269.011 6.03758 269.971 6.03758H270.091C271.051 6.03758 271.591 6.57758 271.591 7.53758V10.8076C271.591 12.0376 271.441 13.2976 271.141 14.5276C273.571 17.1976 276.391 20.9776 277.831 23.6176C277.981 23.9476 278.071 24.2176 278.071 24.4876C278.071 24.9976 277.831 25.3876 277.321 25.7176C277.051 25.8676 276.781 25.9576 276.571 25.9576C276.061 25.9576 275.551 25.6276 275.221 25.0576C273.331 22.0276 271.621 19.5976 270.091 17.8276C268.801 20.7976 266.911 23.6176 264.751 25.8076C264.331 26.2276 263.911 26.4376 263.461 26.4376C263.161 26.4376 262.861 26.3176 262.591 26.1076ZM275.671 14.6176C275.671 13.7476 276.211 13.2376 277.171 13.2376H281.251V6.09758C281.251 5.13758 281.791 4.59758 282.751 4.59758H282.871C283.831 4.59758 284.371 5.13758 284.371 6.09758V31.5976C284.371 32.5576 283.831 33.0976 282.871 33.0976H282.751C281.791 33.0976 281.251 32.5576 281.251 31.5976V15.9676H277.171C276.211 15.9676 275.671 15.4876 275.671 14.6176ZM311.286 21.3376C310.776 21.0676 310.536 20.7076 310.536 20.1976C310.536 20.0476 310.596 19.7776 310.686 19.4176C311.526 16.6876 311.736 14.4676 311.736 9.45758C311.736 9.18758 311.526 9.00758 311.286 9.00758H298.986C298.026 9.00758 297.486 8.49758 297.486 7.62758C297.486 6.75758 298.026 6.24758 298.986 6.24758H312.696C313.986 6.24758 314.796 7.08758 314.796 8.37758C314.796 15.0676 314.556 17.5576 313.386 20.5876C313.146 21.1876 312.636 21.5476 312.066 21.5476C311.736 21.5476 311.496 21.4876 311.286 21.3376ZM293.556 27.9076C293.556 27.0376 294.096 26.5576 295.056 26.5576H317.556C318.516 26.5576 319.056 27.0376 319.056 27.9076C319.056 28.7776 318.516 29.2876 317.556 29.2876H295.056C294.096 29.2876 293.556 28.7776 293.556 27.9076ZM339.281 17.2876C337.031 17.2876 335.261 17.1676 334.031 16.8976C331.421 16.3876 330.311 15.1576 330.311 12.8776V7.56758C330.311 6.27758 331.181 5.46758 332.411 5.46758H345.641C346.601 5.46758 347.141 5.97758 347.141 6.84758C347.141 7.71758 346.631 8.16758 345.641 8.16758H333.881C333.641 8.16758 333.431 8.37758 333.431 8.61758V10.0276H345.461C346.451 10.0276 346.961 10.4476 346.961 11.2576C346.961 12.0676 346.451 12.4876 345.461 12.4876H333.431V12.7276C333.431 13.2376 333.641 13.6576 334.031 13.9276C334.421 14.1976 335.051 14.3776 335.861 14.4676C336.671 14.5576 337.811 14.5876 339.281 14.5876C341.831 14.5876 343.961 14.4076 345.731 14.0776L346.241 14.0176C346.991 14.0176 347.471 14.4376 347.471 15.3676C347.471 16.0576 347.021 16.5676 346.211 16.7176C344.441 17.1076 342.131 17.2876 339.281 17.2876ZM325.961 20.7676C325.961 19.8976 326.501 19.4176 327.461 19.4176H349.961C350.921 19.4176 351.461 19.8976 351.461 20.7676C351.461 21.6376 350.921 22.1476 349.961 22.1476H327.461C326.501 22.1476 325.961 21.6376 325.961 20.7676ZM330.011 26.1376C330.011 25.2676 330.551 24.7576 331.511 24.7576H344.921C346.211 24.7576 347.021 25.5676 347.021 26.8576V31.7176C347.021 32.6776 346.481 33.2176 345.521 33.2176H345.401C344.441 33.2176 343.901 32.6776 343.901 31.7176V27.9676C343.901 27.7276 343.691 27.5176 343.451 27.5176H331.511C330.551 27.5176 330.011 27.0076 330.011 26.1376ZM355.838 18.8476C355.448 19.0576 355.058 19.1776 354.698 19.1776C354.278 19.1776 353.948 19.0576 353.678 18.7876C353.408 18.5476 353.258 18.2176 353.258 17.7976C353.258 17.3476 353.468 16.9576 353.888 16.6576C355.418 15.6676 356.528 14.9176 357.158 14.4376C358.808 13.2076 359.888 11.4976 359.888 9.36758V8.64758H355.358C354.398 8.64758 353.858 8.13758 353.858 7.26758C353.858 6.39758 354.398 5.88758 355.358 5.88758H367.058C368.018 5.88758 368.558 6.39758 368.558 7.26758C368.558 8.13758 368.018 8.64758 367.058 8.64758H363.008V9.36758C363.008 10.2076 362.858 11.0776 362.588 11.9476C364.748 12.9376 367.418 14.5876 368.948 15.9376C369.308 16.2376 369.488 16.6276 369.488 17.1076C369.488 17.5276 369.338 17.8876 369.068 18.1576C368.798 18.4276 368.468 18.5476 368.078 18.5476C367.658 18.5476 367.268 18.3976 366.938 18.1276C365.168 16.6876 362.888 15.2476 361.238 14.4976C360.068 16.0276 358.268 17.4976 355.838 18.8476ZM360.158 27.0376C360.158 23.1076 363.278 20.3476 367.598 20.3476C371.918 20.3476 375.038 23.1076 375.038 27.0376C375.038 30.9076 371.978 33.7576 367.598 33.7576C363.218 33.7576 360.158 30.9076 360.158 27.0376ZM363.158 27.0376C363.158 29.4376 364.988 31.1176 367.598 31.1176C370.208 31.1176 372.038 29.4376 372.038 27.0376C372.038 24.6376 370.208 22.9876 367.598 22.9876C364.988 22.9876 363.158 24.6376 363.158 27.0376ZM372.458 18.6076V6.09758C372.458 5.13758 372.998 4.59758 373.958 4.59758H374.078C375.038 4.59758 375.578 5.13758 375.578 6.09758V18.6076C375.578 19.5676 375.038 20.1076 374.078 20.1076H373.958C372.998 20.1076 372.458 19.5676 372.458 18.6076ZM392.076 33.3676C385.896 33.3676 383.046 32.2276 383.046 28.9276V28.1476C383.046 26.8576 383.916 26.0476 385.146 26.0476H396.396C396.666 26.0476 396.756 25.9576 396.756 25.6876V24.6376C396.756 24.3676 396.636 24.2476 396.366 24.2476H384.426C383.466 24.2476 382.926 23.7676 382.926 22.8976C382.926 22.0276 383.466 21.5476 384.426 21.5476H397.776C399.066 21.5476 399.876 22.3576 399.876 23.6476V26.6176C399.876 27.7276 399.126 28.4776 398.016 28.4776H386.556C386.286 28.4776 386.166 28.5976 386.166 28.8676V29.0776C386.166 29.7076 386.616 30.1276 387.486 30.3376C388.416 30.5476 389.886 30.6676 391.926 30.6676C394.176 30.6676 396.696 30.4276 398.586 29.9476L399.066 29.8876C399.816 29.8876 400.356 30.4276 400.356 31.2676C400.356 31.8976 399.906 32.3776 399.066 32.5876C397.146 33.0676 394.326 33.3676 392.076 33.3676ZM378.756 18.3376C378.756 17.4976 379.296 16.9876 380.256 16.9876H402.756C403.716 16.9876 404.256 17.4976 404.256 18.3376C404.256 19.1776 403.716 19.6876 402.756 19.6876H380.256C379.296 19.6876 378.756 19.2076 378.756 18.3376ZM383.646 9.93758C383.646 6.69758 386.706 4.65758 391.506 4.65758C396.306 4.65758 399.366 6.69758 399.366 9.93758C399.366 13.2676 396.336 15.2476 391.506 15.2476C386.676 15.2476 383.646 13.2676 383.646 9.93758ZM386.646 9.93758C386.646 11.6176 388.506 12.6076 391.506 12.6076C394.506 12.6076 396.366 11.6176 396.366 9.93758C396.366 8.25758 394.506 7.29758 391.506 7.29758C388.506 7.29758 386.646 8.25758 386.646 9.93758ZM418.211 33.0076C417.761 33.1576 417.401 33.2176 417.101 33.2176C416.741 33.2176 416.411 33.0676 416.141 32.7676C415.931 32.4976 415.811 32.1676 415.811 31.8376C415.811 31.2676 416.111 30.7876 416.591 30.6376C418.301 30.0676 419.591 29.5876 420.461 29.1676C422.531 28.2376 423.551 26.9776 423.551 25.3876V25.0876H418.001C417.041 25.0876 416.501 24.5776 416.501 23.7076C416.501 22.8376 417.041 22.3276 418.001 22.3276H431.831C432.791 22.3276 433.331 22.8376 433.331 23.7076C433.331 24.5776 432.791 25.0876 431.831 25.0876H426.671V25.3876C426.671 26.1076 426.521 26.8276 426.251 27.5476C428.441 28.2376 431.141 29.4676 433.331 30.9076C433.721 31.1776 433.931 31.5376 433.931 31.9576C433.931 32.4076 433.781 32.7376 433.451 33.0076C433.181 33.2176 432.911 33.3376 432.641 33.3376C432.281 33.3376 431.831 33.1576 431.261 32.8276C429.131 31.5376 426.581 30.3376 424.751 29.7076C423.341 30.9976 421.181 32.1076 418.211 33.0076ZM412.181 18.5176C412.181 18.0376 412.451 17.6176 412.961 17.4076C416.651 15.9376 418.571 14.4376 418.571 12.2476V11.6176H414.251C413.291 11.6176 412.751 11.1376 412.751 10.2976C412.751 9.48758 413.291 8.97758 414.251 8.97758H425.951C426.911 8.97758 427.451 9.48758 427.451 10.2976C427.451 11.1076 426.911 11.6176 425.951 11.6176H421.691V12.2476C421.691 12.8476 421.601 13.4176 421.421 13.9576C424.121 15.1876 426.161 16.2676 427.541 17.2576C427.901 17.4976 428.081 17.8276 428.081 18.2476C428.081 18.6976 427.841 19.1176 427.451 19.3576C427.181 19.5376 426.911 19.6276 426.641 19.6276C426.341 19.6276 425.891 19.4476 425.321 19.0876C423.701 18.0976 421.901 17.1676 419.891 16.3276C418.961 17.3176 417.431 18.2776 415.301 19.2676C414.551 19.6276 413.951 19.8076 413.501 19.8076C413.171 19.8076 412.901 19.7176 412.661 19.5376C412.331 19.2676 412.181 18.9376 412.181 18.5176ZM414.101 5.46758C414.101 5.10758 414.221 4.80758 414.431 4.59758C414.701 4.26758 415.061 4.08758 415.511 4.08758C415.781 4.08758 416.081 4.17758 416.351 4.32758L416.621 4.47758C417.251 4.83758 417.761 4.89758 419.321 4.89758H424.271C425.201 4.89758 425.771 5.40758 425.771 6.15758C425.771 6.99758 425.201 7.47758 424.241 7.47758H418.691C416.921 7.47758 415.841 7.29758 414.971 6.69758L414.671 6.48758C414.281 6.18758 414.101 5.85758 414.101 5.46758ZM430.061 19.0876V6.09758C430.061 5.13758 430.601 4.59758 431.561 4.59758H431.681C432.641 4.59758 433.181 5.13758 433.181 6.09758V10.4176H436.061C437.021 10.4176 437.561 10.9276 437.561 11.7976C437.561 12.6676 437.021 13.1476 436.061 13.1476H433.181V19.0876C433.181 20.0476 432.641 20.5876 431.681 20.5876H431.561C430.601 20.5876 430.061 20.0476 430.061 19.0876ZM446.018 24.0076C444.668 24.0076 443.408 23.6776 442.238 23.0476C439.838 21.7276 438.398 19.1176 438.398 15.6376C438.398 13.8976 438.758 12.3976 439.448 11.1076C440.858 8.61758 443.228 7.29758 446.018 7.29758C447.368 7.29758 448.628 7.62758 449.798 8.25758C452.168 9.57758 453.608 12.2476 453.608 15.6376C453.608 17.4076 453.248 18.9076 452.558 20.1976C451.148 22.6876 448.778 24.0076 446.018 24.0076ZM441.368 15.6376C441.368 19.2676 443.468 21.3676 446.018 21.3676C448.508 21.3676 450.638 19.2676 450.638 15.6376C450.638 12.2176 448.598 9.93758 446.018 9.93758C443.468 9.93758 441.368 12.0676 441.368 15.6376ZM456.458 31.5976V6.09758C456.458 5.13758 456.998 4.59758 457.958 4.59758H458.078C459.038 4.59758 459.578 5.13758 459.578 6.09758V14.4076H462.458C463.418 14.4076 463.958 14.9176 463.958 15.7876C463.958 16.6576 463.418 17.1376 462.458 17.1376H459.578V31.5976C459.578 32.5576 459.038 33.0976 458.078 33.0976H457.958C456.998 33.0976 456.458 32.5576 456.458 31.5976ZM472.386 20.6776C469.866 20.6776 468.306 19.2076 468.306 16.6876V7.29758C468.306 6.33758 468.846 5.79758 469.806 5.79758H469.926C470.886 5.79758 471.426 6.33758 471.426 7.29758V10.4476H481.986V7.29758C481.986 6.33758 482.526 5.79758 483.486 5.79758H483.606C484.566 5.79758 485.106 6.33758 485.106 7.29758V16.6876C485.106 19.2376 483.816 20.6776 481.326 20.6776H472.386ZM463.956 28.3876C463.956 27.5176 464.496 27.0376 465.456 27.0376H475.146V23.2576C475.146 22.2976 475.686 21.7576 476.646 21.7576H476.766C477.726 21.7576 478.266 22.2976 478.266 23.2576V27.0376H487.956C488.916 27.0376 489.456 27.5176 489.456 28.3876C489.456 29.2576 488.916 29.7676 487.956 29.7676H465.456C464.496 29.7676 463.956 29.2576 463.956 28.3876ZM471.426 16.5676C471.426 17.3776 471.966 17.9176 472.776 17.9176H480.636C481.446 17.9176 481.986 17.3776 481.986 16.5676V13.0276H471.426V16.5676ZM502.924 25.9576C502.714 26.1076 502.504 26.1676 502.264 26.1676C501.754 26.1676 501.304 25.8376 500.884 25.1776C499.414 22.7776 498.154 20.8576 497.134 19.4176C496.174 21.7276 494.824 23.8876 493.054 25.8376C492.724 26.1976 492.394 26.3776 492.004 26.3776C491.674 26.3776 491.344 26.2276 491.014 25.9276C490.744 25.6576 490.594 25.3576 490.594 25.0576C490.594 24.6676 490.774 24.2776 491.104 23.8876C494.074 20.3176 495.724 15.9376 495.724 11.8276V7.68758C495.724 6.72758 496.234 6.18758 497.164 6.18758H497.194C498.124 6.18758 498.634 6.72758 498.634 7.68758V11.8276C498.634 13.2376 498.484 14.6476 498.184 16.0276C500.224 18.6976 502.264 21.8176 503.314 23.8576C503.524 24.2476 503.614 24.5776 503.614 24.8776C503.614 25.3576 503.374 25.7176 502.924 25.9576ZM501.094 15.0076C501.094 14.1376 501.634 13.6276 502.594 13.6276H505.264V6.39758C505.264 5.43758 505.804 4.89758 506.734 4.89758C507.664 4.89758 508.174 5.43758 508.174 6.39758V31.1476C508.174 32.1076 507.664 32.6476 506.734 32.6476C505.804 32.6476 505.264 32.1076 505.264 31.1476V16.3576H502.594C501.634 16.3576 501.094 15.8776 501.094 15.0076ZM511.444 31.8976V6.09758C511.444 5.13758 511.954 4.59758 512.914 4.59758C513.844 4.59758 514.354 5.13758 514.354 6.09758V31.8976C514.354 32.8576 513.844 33.3976 512.914 33.3976C511.984 33.3976 511.444 32.8576 511.444 31.8976ZM529.501 20.9476C524.011 20.9476 520.651 17.6176 520.651 13.0876C520.651 8.61758 524.011 5.25758 529.501 5.25758C534.991 5.25758 538.351 8.61758 538.351 13.0876C538.351 17.6176 534.991 20.9476 529.501 20.9476ZM516.751 28.3876C516.751 27.5176 517.291 27.0376 518.251 27.0376H523.441V22.9876C523.441 22.0276 523.981 21.4876 524.941 21.4876H525.061C526.021 21.4876 526.561 22.0276 526.561 22.9876V27.0376H532.441V22.9876C532.441 22.0276 532.981 21.4876 533.941 21.4876H534.061C535.021 21.4876 535.561 22.0276 535.561 22.9876V27.0376H540.751C541.711 27.0376 542.251 27.5176 542.251 28.3876C542.251 29.2576 541.711 29.7676 540.751 29.7676H518.251C517.291 29.7676 516.751 29.2576 516.751 28.3876ZM523.651 13.0876C523.651 16.1176 525.901 18.1876 529.501 18.1876C533.101 18.1876 535.351 16.1176 535.351 13.0876C535.351 10.2376 533.251 8.01758 529.501 8.01758C525.751 8.01758 523.651 10.2376 523.651 13.0876ZM545.819 24.2476C544.859 24.2476 544.349 23.7076 544.349 22.7476L544.139 7.11758C544.139 6.15758 544.829 5.52758 545.819 5.52758C546.809 5.52758 547.469 6.15758 547.469 7.11758L547.259 22.7476C547.259 23.7076 546.749 24.2476 545.819 24.2476ZM543.899 28.8676C543.899 27.8176 544.739 27.0076 545.819 27.0076C546.899 27.0076 547.739 27.8176 547.739 28.8676C547.739 29.9176 546.899 30.7576 545.819 30.7576C544.739 30.7576 543.899 29.9176 543.899 28.8676Z" fill="#000543"/>
<rect x="1.57251" y="52.2676" width="548" height="78" rx="39" fill="#FEC000"/>
<rect x="1.57251" y="52.2676" width="548" height="78" rx="39" fill="#DAF143"/>
<rect x="1.57251" y="52.2676" width="548" height="78" rx="39" stroke="#000543" stroke-width="2"/>
<path d="M90.0069 79.7285H95.6182L101.163 90.0879H101.396L106.907 79.7285H112.519L103.753 95.2012V103.768H98.7725V95.2012L90.0069 79.7285ZM113.748 103.768V79.7285H123.311C128.623 79.7285 131.28 82.2852 131.28 85.9043C131.28 88.7266 129.454 90.4863 126.963 91.0508V91.2832C129.686 91.416 132.243 93.5742 132.243 97.127C132.243 100.945 129.387 103.768 123.942 103.768H113.748ZM122.946 99.6504C125.834 99.6504 127.063 98.4551 127.063 96.6621C127.063 94.6367 125.536 93.209 123.079 93.209H118.729V99.6504H122.946ZM122.58 89.7891C124.672 89.7891 126.233 88.627 126.233 86.7012C126.233 84.9746 124.971 83.7793 122.68 83.7793H118.729V89.7891H122.58ZM134.037 79.7285H140.213L146.886 96.0312H147.152L153.826 79.7285H160.002V103.768H155.154V88.0293H154.955L148.679 103.668H145.359L139.084 87.9629H138.885V103.768H134.037V79.7285ZM193.108 79.2305V82.1855C193.075 85.8711 193.075 90.0215 191.979 96.0977L187.829 95.7324C188.825 90.2041 188.858 86.0869 188.858 82.584H170.762V79.2305H193.108ZM195.598 99.6836V103.137H168.04V99.6836H173.916V90.1875H178.133V99.6836H181.454V90.1875H185.637V99.6836H195.598ZM213.064 79.6289V82.0527C213.031 84.9082 213.031 88.627 212.234 93.6406L208.051 93.3086C208.731 88.9258 208.798 85.6885 208.848 83.0156H197.392V79.6289H213.064ZM205.527 88.2949V97.0605C208.499 96.9443 211.52 96.7285 214.293 96.3633L214.558 99.5176C208.349 100.58 201.476 100.68 196.197 100.646L195.799 97.2598C197.492 97.2432 199.385 97.2432 201.344 97.1934V88.2949H205.527ZM220.004 76.6074V88.7598H224.121V92.2793H220.004V106.822H215.721V76.6074H220.004ZM235.511 83.4473C235.511 89.125 237.802 94.6367 242.849 96.8281L240.259 100.215C236.905 98.5713 234.664 95.5664 233.419 91.8477C232.091 95.7988 229.767 99.0361 226.314 100.746L223.657 97.293C228.837 94.9688 231.195 89.125 231.228 83.4473V78.9316H235.511V83.4473ZM249.589 76.6074V106.889H245.405V89.5234H239.462V86.1035H245.405V76.6074H249.589ZM272.336 97.3926C279.043 97.4258 282.828 99.0859 282.861 102.141C282.828 105.229 279.043 106.822 272.336 106.822C265.562 106.822 261.744 105.229 261.744 102.141C261.744 99.0859 265.562 97.4258 272.336 97.3926ZM272.336 100.48C268.053 100.48 266.094 101.012 266.094 102.141C266.094 103.303 268.053 103.768 272.336 103.734C276.586 103.768 278.545 103.303 278.578 102.141C278.545 101.012 276.586 100.48 272.336 100.48ZM284.721 78.7656V81.9531H259.918V78.7656H270.244V76.375H274.494V78.7656H284.721ZM272.369 82.7832C278.91 82.7832 282.529 84.2441 282.529 87.1328C282.529 89.6396 279.69 91.084 274.494 91.3828V92.9434H286.148V96.2305H258.59V92.9434H270.244V91.3828C265.064 91.084 262.176 89.6396 262.209 87.1328C262.176 84.2441 265.861 82.7832 272.369 82.7832ZM272.369 85.6387C268.551 85.6387 266.725 86.0703 266.725 87.1328C266.725 88.0957 268.551 88.5605 272.369 88.5605C276.221 88.5605 277.98 88.0957 277.98 87.1328C277.98 86.0703 276.221 85.6387 272.369 85.6387ZM314.273 99.8496V103.303H286.615V99.8496H298.269V94.2715H289.536V78.5332H293.786V83.2148H306.968V78.5332H311.185V94.2715H302.486V99.8496H314.273ZM293.786 90.8848H306.968V86.6016H293.786V90.8848ZM331.573 78.7988V80.6914C331.573 82.7832 331.573 85.8047 330.876 89.5566L326.725 89.1582C327.256 86.2529 327.389 84.0615 327.423 82.252H316.034V78.7988H331.573ZM324.069 85.7715V91.5488C327.074 91.4326 330.162 91.2002 333.001 90.7852L333.233 93.8398C326.958 95.002 319.852 95.1016 314.606 95.1348L314.241 91.748C315.934 91.748 317.843 91.748 319.852 91.6816V85.7715H324.069ZM338.977 76.6074V85.8047H342.63V89.3574H338.977V99.2188H334.628V76.6074H338.977ZM339.907 102.904V106.291H318.69V97.1934H322.94V102.904H339.907ZM372.98 76.6074V87.8965H377.429V91.4492H372.98V106.822H368.73V76.6074H372.98ZM354.32 78.998V86.3691H360.595V78.998H364.812V99.8164H350.103V78.998H354.32ZM354.32 96.3965H360.595V89.6562H354.32V96.3965ZM404.823 99.9824V103.469H377.165V99.9824H388.819V95.4336H380.352V85.2734H397.452V81.9531H380.319V78.5664H401.635V88.5938H384.602V91.9805H402.333V95.4336H393.036V99.9824H404.823ZM429.029 76.6074V88.1953H433.313V91.6816H429.029V106.756H424.779V76.6074H429.029ZM420.961 79.6953C420.928 88.7266 417.408 96.5625 407.248 101.543L404.857 98.2891C412.013 94.7031 415.848 89.8887 416.645 83.1484H406.584V79.6953H420.961ZM458.615 76.6074V106.822H454.331V76.6074H458.615ZM449.55 79.7617C449.55 88.9258 446.33 96.5293 435.539 101.643L433.314 98.2559C441.117 94.5703 444.553 89.7891 445.234 83.082H434.941V79.7617H449.55Z" fill="#000543"/>
<path d="M516.379 124.189L500.208 88.3818V136.895L516.379 124.189Z" fill="white"/>
<path d="M516.379 124.189L500.208 88.3818L536.593 120.724L516.379 124.189Z" fill="#E5E2F3"/>
<path d="M500.208 88.3818V136.895L516.379 124.189L536.593 120.724L500.208 88.3818Z" stroke="#000543" stroke-width="0.8379" stroke-miterlimit="10"/>
<path d="M486.347 90.3058H477.491C476.336 90.3058 475.566 89.5358 475.566 88.3807C475.566 87.2256 476.336 86.4556 477.491 86.4556H486.347C487.502 86.4556 488.272 87.2256 488.272 88.3807C488.272 89.3433 487.502 90.3058 486.347 90.3058Z" fill="#DAF143"/>
<path d="M522.924 90.3058H514.069C512.914 90.3058 512.144 89.5358 512.144 88.3807C512.144 87.2256 512.914 86.4556 514.069 86.4556H522.924C524.079 86.4556 524.849 87.2256 524.849 88.3807C524.849 89.3433 524.079 90.3058 522.924 90.3058Z" fill="#DAF143"/>
<path d="M488.849 109.943C488.464 109.943 488.272 109.943 487.887 109.751C486.924 109.173 486.732 108.018 487.117 107.056L491.544 99.5478C492.122 98.5852 493.277 98.3927 494.24 98.7777C495.202 99.3553 495.395 100.51 495.01 101.473L490.582 108.981C490.197 109.558 489.619 109.943 488.849 109.943Z" fill="#DAF143"/>
<path d="M507.331 78.1784C506.946 78.1784 506.753 78.1784 506.368 77.9858C505.406 77.4083 505.213 76.2532 505.598 75.2907L510.026 67.7826C510.603 66.8201 511.758 66.6276 512.721 67.0126C513.684 67.5901 513.876 68.7452 513.491 69.7078L509.063 77.2158C508.486 77.7933 507.908 78.1784 507.331 78.1784Z" fill="#DAF143"/>
<path d="M493.277 78.1779C492.699 78.1779 491.929 77.7928 491.544 77.2153L487.117 69.7073C486.539 68.7447 486.924 67.5896 487.887 67.0121C488.849 66.4345 490.004 66.8196 490.582 67.7821L495.01 75.2902C495.587 76.2527 495.202 77.4078 494.24 77.9853C494.047 78.1779 493.662 78.1779 493.277 78.1779Z" fill="#DAF143"/>
<path d="M486.347 86.4564C487.502 86.4564 488.272 87.2264 488.272 88.3815C488.272 89.5366 487.502 90.3067 486.347 90.3067H477.491C476.336 90.3067 475.566 89.5366 475.566 88.3815C475.566 87.2264 476.336 86.4564 477.491 86.4564H486.347ZM486.347 84.5312H477.491C475.374 84.5312 473.833 86.2639 473.833 88.189C473.833 90.1141 475.566 91.8468 477.491 91.8468H486.347C488.465 91.8468 490.005 90.1141 490.005 88.189C490.005 86.2639 488.465 84.5312 486.347 84.5312Z" fill="#000543"/>
<path d="M522.925 86.4564C524.08 86.4564 524.85 87.2264 524.85 88.3815C524.85 89.5366 524.08 90.3067 522.925 90.3067H514.069C512.914 90.3067 512.144 89.5366 512.144 88.3815C512.144 87.2264 512.914 86.4564 514.069 86.4564H522.925ZM522.925 84.5312H514.069C511.951 84.5312 510.411 86.2639 510.411 88.189C510.411 90.1141 512.144 91.8468 514.069 91.8468H522.925C525.042 91.8468 526.582 90.1141 526.582 88.189C526.582 86.2639 525.042 84.5312 522.925 84.5312Z" fill="#000543"/>
<path d="M493.278 98.3918C493.663 98.3918 493.855 98.3918 494.24 98.5843C495.203 99.1619 495.395 100.317 495.01 101.28L490.582 108.788C490.197 109.365 489.62 109.75 488.85 109.75C488.465 109.75 488.272 109.75 487.887 109.558C486.925 108.98 486.732 107.825 487.117 106.862L491.545 99.3544C491.93 98.7768 492.7 98.3918 493.278 98.3918ZM493.278 96.6592C491.93 96.6592 490.775 97.4292 490.005 98.5843L485.577 106.092C484.614 107.825 485.192 110.135 486.925 111.29C487.502 111.675 488.08 111.868 488.85 111.868C490.197 111.868 491.352 111.098 492.122 109.943L496.55 102.435C497.513 100.702 496.935 98.3918 495.203 97.2367C494.625 96.8517 494.048 96.6592 493.278 96.6592Z" fill="#000543"/>
<path d="M511.566 66.8202C511.951 66.8202 512.144 66.8202 512.529 67.0127C513.491 67.5902 513.684 68.7453 513.299 69.7079L508.871 77.2159C508.486 77.7934 507.908 78.1784 507.138 78.1784C506.753 78.1784 506.561 78.1784 506.176 77.9859C505.213 77.4084 505.021 76.2533 505.406 75.2907L509.833 67.7827C510.411 67.0127 510.989 66.8202 511.566 66.8202ZM511.566 64.895C510.218 64.895 509.063 65.6651 508.293 66.8202L503.866 74.3282C502.903 76.0608 503.481 78.371 505.213 79.526C505.791 79.9111 506.368 80.1036 507.138 80.1036C508.486 80.1036 509.641 79.3335 510.411 78.1784L514.839 70.6704C515.801 68.9378 515.224 66.6276 513.491 65.4726C512.914 65.0875 512.336 64.895 511.566 64.895Z" fill="#000543"/>
<path d="M488.85 66.8202C489.427 66.8202 490.197 67.2052 490.582 67.7827L495.01 75.2907C495.588 76.2533 495.203 77.4084 494.24 77.9859C493.855 78.1784 493.663 78.1784 493.278 78.1784C492.7 78.1784 491.93 77.7934 491.545 77.2159L487.117 69.7079C486.54 68.7453 486.925 67.5902 487.887 67.0127C488.272 66.8202 488.657 66.8202 488.85 66.8202ZM488.85 64.895C488.272 64.895 487.502 65.0875 486.925 65.4726C485.192 66.4351 484.614 68.7453 485.577 70.6704L490.005 78.1784C490.582 79.3335 491.93 80.1036 493.278 80.1036C493.855 80.1036 494.625 79.9111 495.203 79.526C496.935 78.5635 497.513 76.2533 496.55 74.3282L492.122 66.8202C491.545 65.6651 490.197 64.895 488.85 64.895Z" fill="#000543"/>
</svg>
