<svg width="318" height="202" viewBox="0 0 318 202" fill="none" xmlns="http://www.w3.org/2000/svg">
<g filter="url(#filter0_di_900_13157)">
<rect x="1.06805" y="45.1523" width="269.604" height="152.247" rx="12" fill="#00C53A"/>
</g>
<path d="M185.311 110.174L178.903 128.666C177.54 132.409 175.7 134.914 172.021 134.914C171.133 134.914 170.435 134.788 169.832 134.566L170.53 131.711C170.847 131.806 171.355 131.965 171.799 131.965C173.702 131.965 174.812 130.569 175.446 128.698L175.795 127.492L168.881 110.174H172.623L175.859 119.151C176.366 120.705 176.905 122.449 177.444 124.067H177.603L178.967 119.151L181.758 110.174H185.311Z" fill="white"/>
<path d="M157.107 128.032C154.094 128.032 151.968 126.066 151.968 122.989C151.968 119.246 155.14 117.312 162.404 116.519C162.372 114.489 161.642 112.712 159.073 112.712C157.234 112.712 155.521 113.537 154.03 114.489L152.666 112.015C154.474 110.873 156.916 109.731 159.708 109.731C164.053 109.731 166.051 112.49 166.051 117.121V127.62H163.07L162.753 125.622H162.657C161.072 126.986 159.2 128.032 157.107 128.032ZM158.217 125.146C159.739 125.146 160.976 124.416 162.404 123.116V118.834C157.234 119.468 155.489 120.769 155.489 122.735C155.489 124.448 156.663 125.146 158.217 125.146Z" fill="white"/>
<path d="M134.189 127.619V104.275H141.262C146.464 104.275 150.175 106.051 150.175 111.316C150.175 116.423 146.464 118.77 141.389 118.77H137.868V127.619H134.189ZM137.868 115.82H141.04C144.783 115.82 146.559 114.393 146.559 111.316C146.559 108.24 144.624 107.225 140.913 107.225H137.868V115.82Z" fill="white"/>
<rect x="86.6672" y="97.9756" width="35.9472" height="35.9472" fill="white"/>
<g clip-path="url(#clip0_900_13157)">
<path d="M108.021 116.612L100.977 106.481H95.1254V125.417H101.261V115.286L108.305 125.417H114.156V106.481H108.021V116.612Z" fill="#03CF5D"/>
</g>
<path d="M245.062 171.831H249.004V159.641H252.012V175.546H249.004V173.882H245.062V171.831ZM241.029 162.535C239.616 162.535 238.637 163.082 238.637 164.107C238.637 165.132 239.616 165.657 241.029 165.657C242.419 165.657 243.399 165.132 243.399 164.107C243.399 163.082 242.419 162.535 241.029 162.535ZM241.029 167.844C237.953 167.844 235.788 166.34 235.788 164.107C235.788 161.874 237.953 160.347 241.029 160.347C244.082 160.347 246.247 161.874 246.247 164.107C246.247 166.34 244.082 167.844 241.029 167.844ZM239.913 177.87H252.468V180.262H236.905V174.019H239.822V171.216C237.976 171.307 236.221 171.33 234.649 171.33L234.262 168.938C238.09 168.915 243.194 168.869 247.614 168.3L247.819 170.442C246.179 170.738 244.493 170.92 242.806 171.034V174.999H239.913V177.87Z" fill="white"/>
<path d="M232.222 168.411V171.43C232.222 172.74 232.083 173.87 231.803 174.821C231.524 175.763 231.12 176.538 230.593 177.145C230.074 177.744 229.455 178.188 228.736 178.475C228.017 178.763 227.218 178.906 226.339 178.906C225.637 178.906 224.982 178.819 224.374 178.643C223.767 178.459 223.22 178.176 222.733 177.792C222.254 177.409 221.838 176.926 221.487 176.342C221.143 175.751 220.88 175.048 220.696 174.234C220.512 173.419 220.421 172.484 220.421 171.43V168.411C220.421 167.101 220.56 165.978 220.84 165.044C221.127 164.101 221.531 163.33 222.05 162.731C222.577 162.132 223.2 161.693 223.919 161.413C224.638 161.126 225.437 160.982 226.316 160.982C227.018 160.982 227.669 161.074 228.269 161.258C228.876 161.433 229.423 161.709 229.91 162.084C230.397 162.46 230.813 162.943 231.156 163.534C231.5 164.117 231.763 164.816 231.947 165.631C232.131 166.438 232.222 167.364 232.222 168.411ZM228.76 171.885V167.943C228.76 167.312 228.724 166.761 228.652 166.29C228.588 165.819 228.488 165.419 228.352 165.092C228.217 164.756 228.049 164.485 227.849 164.277C227.649 164.069 227.422 163.917 227.166 163.822C226.911 163.726 226.627 163.678 226.316 163.678C225.924 163.678 225.577 163.754 225.273 163.905C224.978 164.057 224.726 164.301 224.518 164.636C224.311 164.964 224.151 165.403 224.039 165.954C223.935 166.497 223.883 167.16 223.883 167.943V171.885C223.883 172.516 223.915 173.071 223.979 173.551C224.051 174.03 224.155 174.441 224.291 174.785C224.434 175.12 224.602 175.396 224.794 175.612C224.994 175.819 225.221 175.971 225.477 176.067C225.74 176.163 226.028 176.211 226.339 176.211C226.723 176.211 227.062 176.135 227.358 175.983C227.661 175.823 227.917 175.576 228.125 175.24C228.34 174.897 228.5 174.449 228.604 173.898C228.708 173.347 228.76 172.676 228.76 171.885Z" fill="white"/>
<path d="M218.133 168.411V171.43C218.133 172.74 217.993 173.87 217.713 174.821C217.434 175.763 217.03 176.538 216.503 177.145C215.984 177.744 215.365 178.188 214.646 178.475C213.927 178.763 213.128 178.906 212.25 178.906C211.547 178.906 210.892 178.819 210.285 178.643C209.678 178.459 209.13 178.176 208.643 177.792C208.164 177.409 207.749 176.926 207.397 176.342C207.054 175.751 206.79 175.048 206.606 174.234C206.423 173.419 206.331 172.484 206.331 171.43V168.411C206.331 167.101 206.47 165.978 206.75 165.044C207.038 164.101 207.441 163.33 207.96 162.731C208.487 162.132 209.11 161.693 209.829 161.413C210.548 161.126 211.347 160.982 212.226 160.982C212.929 160.982 213.58 161.074 214.179 161.258C214.786 161.433 215.333 161.709 215.82 162.084C216.307 162.46 216.723 162.943 217.066 163.534C217.41 164.117 217.673 164.816 217.857 165.631C218.041 166.438 218.133 167.364 218.133 168.411ZM214.67 171.885V167.943C214.67 167.312 214.634 166.761 214.562 166.29C214.498 165.819 214.398 165.419 214.263 165.092C214.127 164.756 213.959 164.485 213.759 164.277C213.56 164.069 213.332 163.917 213.076 163.822C212.821 163.726 212.537 163.678 212.226 163.678C211.834 163.678 211.487 163.754 211.183 163.905C210.888 164.057 210.636 164.301 210.428 164.636C210.221 164.964 210.061 165.403 209.949 165.954C209.845 166.497 209.793 167.16 209.793 167.943V171.885C209.793 172.516 209.825 173.071 209.889 173.551C209.961 174.03 210.065 174.441 210.201 174.785C210.345 175.12 210.512 175.396 210.704 175.612C210.904 175.819 211.131 175.971 211.387 176.067C211.651 176.163 211.938 176.211 212.25 176.211C212.633 176.211 212.973 176.135 213.268 175.983C213.572 175.823 213.827 175.576 214.035 175.24C214.251 174.897 214.41 174.449 214.514 173.898C214.618 173.347 214.67 172.676 214.67 171.885Z" fill="white"/>
<path d="M204.042 168.411V171.43C204.042 172.74 203.902 173.87 203.622 174.821C203.343 175.763 202.939 176.538 202.412 177.145C201.893 177.744 201.274 178.188 200.555 178.475C199.836 178.763 199.037 178.906 198.159 178.906C197.456 178.906 196.801 178.819 196.194 178.643C195.587 178.459 195.04 178.176 194.552 177.792C194.073 177.409 193.658 176.926 193.306 176.342C192.963 175.751 192.699 175.048 192.515 174.234C192.332 173.419 192.24 172.484 192.24 171.43V168.411C192.24 167.101 192.38 165.978 192.659 165.044C192.947 164.101 193.35 163.33 193.869 162.731C194.397 162.132 195.02 161.693 195.739 161.413C196.457 161.126 197.256 160.982 198.135 160.982C198.838 160.982 199.489 161.074 200.088 161.258C200.695 161.433 201.242 161.709 201.729 162.084C202.217 162.46 202.632 162.943 202.975 163.534C203.319 164.117 203.582 164.816 203.766 165.631C203.95 166.438 204.042 167.364 204.042 168.411ZM200.579 171.885V167.943C200.579 167.312 200.543 166.761 200.471 166.29C200.407 165.819 200.308 165.419 200.172 165.092C200.036 164.756 199.868 164.485 199.668 164.277C199.469 164.069 199.241 163.917 198.986 163.822C198.73 163.726 198.446 163.678 198.135 163.678C197.743 163.678 197.396 163.754 197.092 163.905C196.797 164.057 196.545 164.301 196.338 164.636C196.13 164.964 195.97 165.403 195.858 165.954C195.754 166.497 195.703 167.16 195.703 167.943V171.885C195.703 172.516 195.735 173.071 195.798 173.551C195.87 174.03 195.974 174.441 196.11 174.785C196.254 175.12 196.421 175.396 196.613 175.612C196.813 175.819 197.041 175.971 197.296 176.067C197.56 176.163 197.847 176.211 198.159 176.211C198.542 176.211 198.882 176.135 199.177 175.983C199.481 175.823 199.736 175.576 199.944 175.24C200.16 174.897 200.319 174.449 200.423 173.898C200.527 173.347 200.579 172.676 200.579 171.885Z" fill="white"/>
<path d="M189.677 175.755L189.665 178.068C189.665 178.954 189.441 179.849 188.994 180.752C188.554 181.654 187.995 182.393 187.316 182.968L185.519 182.046C185.719 181.678 185.914 181.311 186.106 180.943C186.298 180.576 186.457 180.173 186.585 179.733C186.713 179.294 186.777 178.795 186.777 178.236V175.755H189.677Z" fill="white"/>
<path d="M175.419 170.724L172.663 170.065L173.657 161.222H183.458V164.014H176.497L176.066 167.884C176.297 167.748 176.649 167.604 177.12 167.453C177.591 167.293 178.119 167.213 178.702 167.213C179.548 167.213 180.299 167.345 180.954 167.608C181.609 167.872 182.164 168.255 182.62 168.759C183.083 169.262 183.434 169.877 183.674 170.604C183.914 171.331 184.033 172.153 184.033 173.072C184.033 173.847 183.914 174.586 183.674 175.289C183.434 175.984 183.071 176.607 182.584 177.158C182.096 177.701 181.485 178.128 180.751 178.44C180.016 178.751 179.145 178.907 178.139 178.907C177.388 178.907 176.661 178.795 175.958 178.572C175.263 178.348 174.636 178.016 174.077 177.577C173.526 177.138 173.082 176.607 172.747 175.984C172.419 175.353 172.248 174.634 172.232 173.827H175.658C175.706 174.322 175.834 174.749 176.042 175.109C176.257 175.46 176.541 175.732 176.892 175.924C177.244 176.115 177.655 176.211 178.127 176.211C178.566 176.211 178.941 176.127 179.253 175.96C179.564 175.792 179.816 175.56 180.008 175.265C180.199 174.961 180.339 174.61 180.427 174.21C180.523 173.803 180.571 173.364 180.571 172.892C180.571 172.421 180.515 171.994 180.403 171.61C180.291 171.227 180.119 170.895 179.888 170.616C179.656 170.336 179.361 170.121 179.001 169.969C178.65 169.817 178.238 169.741 177.767 169.741C177.128 169.741 176.633 169.841 176.281 170.041C175.938 170.24 175.65 170.468 175.419 170.724Z" fill="white"/>
<path d="M64.807 172.742V173.902H63.4671V175.67H64.7394V176.785H61.6767V177.742H65.6403V178.868H56.2944V177.742H60.2354V176.785H57.1839V175.67H58.4451V173.902H57.1164V172.742H64.807ZM64.5818 181.289V182.437H57.4204V179.532H58.8617V181.289H64.5818ZM59.8863 175.67H62.0258V173.902H59.8863V175.67Z" fill="white"/>
<path d="M55.1004 172.944V173.868C55.0892 174.932 55.0892 176.114 54.7514 177.775H56.1364V178.935H52.1841V182.594H50.7428V178.935H46.7905V177.775H53.3438C53.4677 177.229 53.5522 176.728 53.6028 176.266L47.7251 176.559L47.5562 175.331L53.7042 175.163C53.7154 174.78 53.7211 174.425 53.7267 174.082H47.8827V172.944H55.1004Z" fill="white"/>
<path d="M43.4454 177.662V178.8H36.1939V173.125H43.3666V174.284H37.6578V175.365H43.1302V176.491H37.6578V177.662H43.4454ZM44.4701 180.252V181.423H35.0905V180.252H44.4701Z" fill="white"/>
<path d="M34.1666 172.382V179.746H32.7253V172.382H34.1666ZM34.4369 181.289V182.437H27.298V179.003H28.7505V181.289H34.4369ZM28.5478 173.035C30.1243 173.035 31.3516 174.116 31.3516 175.613C31.3516 177.145 30.1243 178.215 28.5478 178.215C26.9714 178.215 25.7441 177.145 25.7441 175.613C25.7441 174.116 26.9714 173.035 28.5478 173.035ZM28.5478 174.285C27.7484 174.274 27.1403 174.78 27.1516 175.613C27.1403 176.469 27.7484 176.965 28.5478 176.965C29.3248 176.965 29.9328 176.469 29.9328 175.613C29.9328 174.78 29.3248 174.274 28.5478 174.285Z" fill="white"/>
<path d="M25.4619 180.275V181.48H16.0823V180.275H20.0233V178.428H16.8592V177.302H18.233V174.375H16.8142V173.226H24.6737V174.375H23.2324V177.302H24.6287V178.428H21.4533V180.275H25.4619ZM19.6742 177.302H21.8137V174.375H19.6742V177.302Z" fill="white"/>
<path d="M64.5231 160.016V170.285H63.0706V160.016H64.5231ZM58.9607 160.737C60.5033 160.737 61.6518 162.156 61.6518 164.385C61.6518 166.637 60.5033 168.045 58.9607 168.045C57.3842 168.045 56.2357 166.637 56.247 164.385C56.2357 162.156 57.3842 160.737 58.9607 160.737ZM58.9607 162.032C58.1612 162.032 57.632 162.865 57.632 164.385C57.632 165.916 58.1612 166.738 58.9607 166.738C59.7376 166.738 60.2668 165.916 60.2668 164.385C60.2668 162.865 59.7376 162.032 58.9607 162.032Z" fill="white"/>
<path d="M54.9408 160.016V170.263H53.5558V160.016H54.9408ZM52.8689 160.219V169.779H51.5064V165.027H50.5155V163.743H51.5064V160.219H52.8689ZM50.752 161.176V162.336H50.0989V166.592C50.386 166.569 50.6619 166.541 50.9209 166.502L51.0222 167.538C49.4008 167.887 47.3064 167.921 46.0228 167.921L45.8651 166.738H46.7209V162.336H46.0565V161.176H50.752ZM47.9933 166.716L48.7927 166.682V162.336H47.9933V166.716Z" fill="white"/>
<path d="M44.6602 160.016V170.285H43.2414V164.79H41.3384V167.853H36.3953V160.804H37.8253V163.293H39.9309V160.804H41.3384V163.631H43.2414V160.016H44.6602ZM37.8253 166.705H39.9309V164.419H37.8253V166.705Z" fill="white"/>
<path d="M34.6278 160.016V170.285H33.1752V160.016H34.6278ZM29.0653 160.737C30.6079 160.737 31.7564 162.156 31.7564 164.385C31.7564 166.637 30.6079 168.045 29.0653 168.045C27.4889 168.045 26.3403 166.637 26.3516 164.385C26.3403 162.156 27.4889 160.737 29.0653 160.737ZM29.0653 162.032C28.2658 162.032 27.7366 162.865 27.7366 164.385C27.7366 165.916 28.2658 166.738 29.0653 166.738C29.8422 166.738 30.3714 165.916 30.3714 164.385C30.3714 162.865 29.8422 162.032 29.0653 162.032Z" fill="white"/>
<path d="M17.9177 160.996V166.581C18.858 166.564 19.725 166.496 20.6877 166.288L20.8791 167.493C19.618 167.763 18.5145 167.808 17.1971 167.808H16.4764V160.996H17.9177ZM24.9666 160.016V170.263H23.6153V160.016H24.9666ZM22.7708 160.208V169.812H21.4084V164.419H19.359V163.259H21.4084V160.208H22.7708Z" fill="white"/>
<g filter="url(#filter1_d_900_13157)">
<circle cx="260.747" cy="57.6528" r="46.2534" fill="#FEC000"/>
<circle cx="260.747" cy="57.6528" r="48.7534" stroke="white" stroke-width="5"/>
</g>
<path d="M290.837 60.8945V71.4982H288.311V69.1905H284.929V70.5035H276.334V62.2275H284.929V63.5405H288.311V60.8945H290.837ZM278.861 64.2368V68.4942H282.442V64.2368H278.861ZM284.65 71.9757C288.51 71.9757 290.877 73.2688 290.897 75.497C290.877 77.7251 288.51 78.9984 284.65 78.9984C280.791 78.9984 278.423 77.7251 278.423 75.497C278.423 73.2688 280.791 71.9757 284.65 71.9757ZM284.65 73.9054C282.243 73.9054 280.95 74.4227 280.95 75.497C280.95 76.5315 282.243 77.0686 284.65 77.0686C287.057 77.0686 288.37 76.5315 288.37 75.497C288.37 74.4227 287.057 73.9054 284.65 73.9054ZM284.929 67.1414H288.311V65.5498H284.929V67.1414Z" fill="#000543"/>
<path d="M266.917 78.1773C262.876 78.1773 260.421 75.1637 260.421 69.8731C260.421 64.5825 262.876 61.5688 266.917 61.5688C270.957 61.5688 273.413 64.6048 273.413 69.8731C273.413 75.186 270.957 78.1773 266.917 78.1773ZM266.917 75.4092C268.792 75.4092 269.998 73.601 269.975 69.8731C269.975 66.1897 268.792 64.3146 266.917 64.3146C265.042 64.3146 263.859 66.1897 263.859 69.8731C263.836 73.601 265.042 75.4092 266.917 75.4092Z" fill="#000543"/>
<path d="M251.826 78.1773C247.786 78.1773 245.33 75.1637 245.33 69.8731C245.33 64.5825 247.786 61.5688 251.826 61.5688C255.866 61.5688 258.322 64.6048 258.322 69.8731C258.322 75.186 255.866 78.1773 251.826 78.1773ZM251.826 75.4092C253.701 75.4092 254.907 73.601 254.884 69.8731C254.884 66.1897 253.701 64.3146 251.826 64.3146C249.951 64.3146 248.768 66.1897 248.768 69.8731C248.745 73.601 249.951 75.4092 251.826 75.4092Z" fill="#000543"/>
<path d="M237.114 78.1773C233.766 78.155 230.596 76.1682 230.596 70.2526C230.596 64.8057 233.208 61.5688 237.248 61.5688C240.508 61.5688 242.718 63.6226 243.052 66.279H239.749C239.481 65.1406 238.543 64.4485 237.248 64.4485C235.061 64.4485 233.9 66.4353 233.878 69.6052H234.034C234.771 68.1765 236.378 67.3282 238.164 67.3282C241.066 67.3282 243.231 69.5159 243.231 72.5519C243.231 75.8334 240.753 78.1996 237.114 78.1773ZM237.092 75.5208C238.744 75.5208 239.972 74.2707 239.972 72.6411C239.972 71.0339 238.789 69.7615 237.137 69.7615C235.485 69.7615 234.235 71.0562 234.212 72.6411C234.235 74.2261 235.44 75.5208 237.092 75.5208Z" fill="#000543"/>
<path d="M268.018 39.8462C268.018 41.5438 269.253 43.2057 271.865 43.8847L270.845 45.6538C268.967 45.1624 267.661 44.1259 266.909 42.7947C266.194 44.251 264.897 45.3857 262.974 45.9397L261.9 44.1706C264.53 43.4558 265.747 41.6689 265.747 39.8462V39.7926H262.473V38.0057H265.747V36.3081H268.054V38.0057H271.31V39.7926H268.018V39.8462ZM275.747 36.3796V45.9039H273.475V42.4909H270.899V40.6503H273.475V36.3796H275.747ZM275.747 46.6008V52.462H264.798V46.6008H275.747ZM267.088 48.4235V50.6393H273.51V48.4235H267.088Z" fill="#000543"/>
<path d="M260.746 46.6547V48.6327H254.367V53.6158H252.09V48.6327H245.746V46.6547H260.746ZM259.373 38.2861V40.1881H254.439C254.701 41.7096 256.554 43.4214 259.951 43.8208L259.12 45.7227C256.337 45.3899 254.322 44.1917 253.246 42.6035C252.18 44.2107 250.147 45.3899 247.337 45.7227L246.505 43.8208C249.903 43.4214 251.774 41.7191 252.054 40.1881H247.102V38.2861H252.09V36.3081H254.367V38.2861H259.373Z" fill="#000543"/>
<defs>
<filter id="filter0_di_900_13157" x="0.0680542" y="45.1523" width="271.604" height="156.247" filterUnits="userSpaceOnUse" color-interpolation-filters="sRGB">
<feFlood flood-opacity="0" result="BackgroundImageFix"/>
<feColorMatrix in="SourceAlpha" type="matrix" values="0 0 0 0 0 0 0 0 0 0 0 0 0 0 0 0 0 0 127 0" result="hardAlpha"/>
<feMorphology radius="1" operator="erode" in="SourceAlpha" result="effect1_dropShadow_900_13157"/>
<feOffset dy="3"/>
<feGaussianBlur stdDeviation="1"/>
<feComposite in2="hardAlpha" operator="out"/>
<feColorMatrix type="matrix" values="0 0 0 0 0 0 0 0 0 0.505882 0 0 0 0 0.0823529 0 0 0 1 0"/>
<feBlend mode="normal" in2="BackgroundImageFix" result="effect1_dropShadow_900_13157"/>
<feBlend mode="normal" in="SourceGraphic" in2="effect1_dropShadow_900_13157" result="shape"/>
<feColorMatrix in="SourceAlpha" type="matrix" values="0 0 0 0 0 0 0 0 0 0 0 0 0 0 0 0 0 0 127 0" result="hardAlpha"/>
<feOffset dy="1"/>
<feGaussianBlur stdDeviation="2"/>
<feComposite in2="hardAlpha" operator="arithmetic" k2="-1" k3="1"/>
<feColorMatrix type="matrix" values="0 0 0 0 1 0 0 0 0 1 0 0 0 0 1 0 0 0 0.6 0"/>
<feBlend mode="normal" in2="shape" result="effect2_innerShadow_900_13157"/>
</filter>
<filter id="filter1_d_900_13157" x="195.493" y="0.399414" width="122.507" height="122.507" filterUnits="userSpaceOnUse" color-interpolation-filters="sRGB">
<feFlood flood-opacity="0" result="BackgroundImageFix"/>
<feColorMatrix in="SourceAlpha" type="matrix" values="0 0 0 0 0 0 0 0 0 0 0 0 0 0 0 0 0 0 127 0" result="hardAlpha"/>
<feOffset dx="-4" dy="4"/>
<feGaussianBlur stdDeviation="5"/>
<feComposite in2="hardAlpha" operator="out"/>
<feColorMatrix type="matrix" values="0 0 0 0 0 0 0 0 0 0 0 0 0 0 0 0 0 0 0.15 0"/>
<feBlend mode="normal" in2="BackgroundImageFix" result="effect1_dropShadow_900_13157"/>
<feBlend mode="normal" in="SourceGraphic" in2="effect1_dropShadow_900_13157" result="shape"/>
</filter>
<clipPath id="clip0_900_13157">
<rect width="19.0309" height="18.9362" fill="white" transform="translate(95.1254 106.481)"/>
</clipPath>
</defs>
</svg>
