<svg width="184" height="66" viewBox="0 0 184 66" fill="none" xmlns="http://www.w3.org/2000/svg">
<g clip-path="url(#clip0_900_35889)">
<path d="M158.482 64.5723H25.518L12 36.3663L25.518 8.29785H158.482L172 36.3663L158.482 64.5723Z" fill="#C65C5E"/>
<g opacity="0.15">
<mask id="mask0_900_35889" style="mask-type:luminance" maskUnits="userSpaceOnUse" x="12" y="8" width="160" height="57">
<path d="M158.482 64.5713H25.518L12 36.3653L25.518 8.29688H158.482L172 36.3653L158.482 64.5713Z" fill="white"/>
</mask>
<g mask="url(#mask0_900_35889)">
<path d="M-97.8066 20.9551H306.958" stroke="#C65C5E" stroke-width="2" stroke-miterlimit="10"/>
<path d="M-97.8066 52.1865H306.958" stroke="#C65C5E" stroke-width="2" stroke-miterlimit="10"/>
<path d="M154.935 -230.286V272.194" stroke="#C65C5E" stroke-width="2" stroke-miterlimit="10"/>
<path d="M129.783 -230.286V272.194" stroke="#C65C5E" stroke-width="2" stroke-miterlimit="10"/>
<path d="M104.52 -230.286V272.194" stroke="#C65C5E" stroke-width="2" stroke-miterlimit="10"/>
<path d="M79.3677 -230.286V272.194" stroke="#C65C5E" stroke-width="2" stroke-miterlimit="10"/>
<path d="M54.1045 -230.286V272.194" stroke="#C65C5E" stroke-width="2" stroke-miterlimit="10"/>
<path d="M28.9521 -230.286V272.194" stroke="#C65C5E" stroke-width="2" stroke-miterlimit="10"/>
</g>
</g>
<path d="M158.482 64.5723H25.518L12 36.3663L25.518 8.29785H158.482L172 36.3663L158.482 64.5723Z" stroke="#222221" stroke-width="2" stroke-miterlimit="10"/>
<path d="M157.374 57.5554H26.6265L13.3301 29.8998L26.6265 2.24414H157.374L170.671 29.8998L157.374 57.5554Z" fill="#F1847D"/>
<path d="M157.374 57.5554H26.6265L13.3301 29.8998L26.6265 2.24414H157.374L170.671 29.8998L157.374 57.5554Z" stroke="#222221" stroke-width="2" stroke-miterlimit="10"/>
<path d="M80.4951 30.1328V33.4141H55.915V30.1328H80.4951ZM77.5068 34.9082V43.1113H73.2588V38.2188H58.6982V34.9082H77.5068ZM77.9463 25.5332V28.6973H58.9326V16.8027H77.6826V20.0254H63.1221V21.1973H77.0967V24.2734H63.1221V25.5332H77.9463ZM102.989 16.2461V32.125H98.7705V16.2461H102.989ZM93.79 32.5938C99.5029 32.5645 103.048 34.5273 103.077 37.8672C103.048 41.2363 99.5029 43.1406 93.79 43.1113C88.0479 43.1406 84.4736 41.2363 84.4736 37.8672C84.4736 34.5273 88.0479 32.5645 93.79 32.5938ZM93.79 35.8457C90.3916 35.8457 88.7217 36.4902 88.7217 37.8672C88.7217 39.2441 90.3916 39.918 93.79 39.8887C97.1592 39.918 98.917 39.2441 98.917 37.8672C98.917 36.4902 97.1592 35.8457 93.79 35.8457ZM96.2803 17.9453V21.3145H91.1533C91.417 24.0977 93.2188 26.8662 97.3936 28.1113L95.2256 31.3926C92.2959 30.5283 90.2891 28.7412 89.1025 26.5C87.8721 29.0488 85.748 31.085 82.5986 32.0957L80.4014 28.7559C84.708 27.3936 86.5684 24.3613 86.8174 21.3145H81.5439V17.9453H96.2803ZM118.944 40.5918C114.11 40.5918 110.683 37.9258 110.624 34.1172H115.663C115.692 35.5234 117.099 36.5195 118.974 36.5195C120.849 36.5195 122.196 35.4355 122.167 33.9121C122.196 32.3887 120.761 31.2754 118.534 31.2754H116.483V27.7012H118.534C120.468 27.7012 121.815 26.6758 121.815 25.1523C121.815 23.7168 120.673 22.6914 118.974 22.6914C117.245 22.6914 115.868 23.6875 115.839 25.1816H111.034C111.093 21.4316 114.433 18.7949 119.003 18.7949C123.544 18.7949 126.649 21.4023 126.62 24.8594C126.649 27.2324 124.892 28.9023 122.46 29.2539V29.4004C125.712 29.7812 127.44 31.6562 127.411 34.293C127.44 37.9551 123.896 40.5918 118.944 40.5918Z" fill="white"/>
</g>
<defs>
<clipPath id="clip0_900_35889">
<rect width="183" height="65" fill="white" transform="translate(0.5 0.798828)"/>
</clipPath>
</defs>
</svg>
