<svg width="46" height="47" viewBox="0 0 46 47" fill="none" xmlns="http://www.w3.org/2000/svg">
<g clip-path="url(#clip0_609_1622)">
<path d="M39.2649 39.4458C48.2475 30.4632 48.2475 15.8996 39.2649 6.91701C30.2823 -2.06558 15.7187 -2.06558 6.73609 6.91701C-2.2465 15.8996 -2.2465 30.4632 6.73609 39.4458C15.7187 48.4284 30.2823 48.4284 39.2649 39.4458Z" fill="#FFD05D"/>
<path d="M35.0332 3.5504C37.3242 7.12581 38.6518 11.3785 38.6518 15.9389C38.6518 28.6403 28.3546 38.9402 15.6504 38.9402C11.2385 38.9402 7.11802 37.6962 3.61816 35.5429C7.70627 41.9247 14.8598 46.1531 23.0009 46.1531C35.7024 46.1531 46.0023 35.8559 46.0023 23.1517C46.0023 14.8595 41.6146 7.59533 35.0359 3.5477L35.0332 3.5504Z" fill="#FDC453"/>
<path d="M3.12453 25.6073C3.12453 13.8125 12.6877 4.25198 24.4798 4.25198C31.3743 4.25198 37.5024 7.51976 41.407 12.5901C37.721 6.18675 30.8076 1.87737 22.8905 1.87737C11.0957 1.87737 1.53516 11.4379 1.53516 23.2327C1.53516 28.133 3.18659 32.6475 5.96327 36.2499C4.15802 33.117 3.12453 29.4822 3.12453 25.6073Z" fill="#FFD77F"/>
<path d="M13.5727 28.0089C12.9791 27.4341 12.0319 28.0709 12.3368 28.8373C14.0368 33.0846 18.187 36.0825 23.0415 36.0825C27.8959 36.0825 31.9085 33.1817 33.6571 29.0478C33.9755 28.2949 33.0202 27.6419 32.432 28.2113C29.067 31.4736 21.9189 36.1176 13.5727 28.0089Z" fill="#5E4939"/>
<path d="M39.2352 14.4547L29.896 15.2292C29.7854 15.2292 29.6774 15.2345 29.5641 15.2453C29.4804 15.2561 26.4717 15.615 23.1203 15.812C23.042 15.8174 22.9611 15.8174 22.8828 15.812C19.5314 15.615 16.5199 15.2561 16.4336 15.2453C16.3256 15.2345 16.2177 15.2292 16.1071 15.2292L6.76783 14.4547C4.9302 14.4196 3.91559 15.3236 4.01274 16.9211C4.01544 16.9831 4.67385 20.6179 4.67385 20.6179C4.88703 21.8673 5.11909 22.89 5.88274 24.0179C6.27941 24.6062 6.87037 25.046 7.5018 25.3698C7.82291 25.5344 8.16291 25.6613 8.51371 25.7449C8.80783 25.8151 9.13434 25.8124 9.45006 25.8286C9.728 25.8447 10.184 25.8663 10.462 25.8663H12.5964C13.1955 25.8663 13.4113 25.8663 13.4815 25.8663C14.4691 25.8663 15.4729 25.6343 16.3553 25.1944C17.7423 24.5036 18.5464 23.3568 19.1212 21.9644C19.6663 20.6503 20.7537 19.6546 21.9114 18.8963C22.5725 18.4619 23.4252 18.4619 24.0863 18.8963C24.7123 19.3065 25.2925 19.7895 25.7944 20.3427C26.1641 20.7501 26.4636 21.2628 26.7658 21.7323C27.1058 22.2639 27.3244 22.8954 27.6806 23.4351C28.0368 23.9801 28.4335 24.4254 28.9812 24.8032C29.8987 25.4319 31.0105 25.7773 32.1141 25.8528C32.249 25.8609 32.3839 25.8663 32.5189 25.8663H35.5384C35.8163 25.8663 36.2724 25.8447 36.5503 25.8286C36.866 25.8124 37.1898 25.8151 37.4867 25.7449C37.8375 25.6613 38.1775 25.5344 38.4986 25.3698C39.13 25.046 39.721 24.6035 40.1176 24.0179C40.8813 22.89 41.1133 21.8646 41.3265 20.6179C41.3265 20.6179 41.9822 16.9831 41.9876 16.9211C42.0821 15.3236 41.0702 14.4196 39.2325 14.4547H39.2352Z" fill="#2D292A"/>
<path d="M32.5215 25.869H35.541C35.819 25.869 36.275 25.8474 36.5529 25.8313C36.8687 25.8151 37.1925 25.8178 37.4893 25.7476C37.8401 25.664 38.1801 25.5371 38.5012 25.3725C39.1326 25.0487 39.7236 24.6062 40.1202 24.0206C40.8839 22.8927 41.116 21.8673 41.3291 20.6206C41.3291 20.6206 41.9849 16.9858 41.9903 16.9238C42.0037 16.6998 41.993 16.492 41.9633 16.2977C37.662 22.9574 32.4432 24.5684 29.0918 24.8814C29.9877 25.4643 31.0509 25.7881 32.114 25.8582C32.249 25.8663 32.3839 25.8717 32.5188 25.8717L32.5215 25.869Z" fill="#414042"/>
<path d="M7.50193 25.3725C7.82305 25.5371 8.16305 25.664 8.51384 25.7476C8.80797 25.8178 9.13448 25.8151 9.45019 25.8313C9.72813 25.8474 10.1842 25.869 10.4621 25.869H12.5966C13.1956 25.869 13.4115 25.869 13.4816 25.869C14.4693 25.869 15.4731 25.637 16.3555 25.1971C17.7424 24.5063 18.5466 23.3595 19.1213 21.9671C19.4101 21.2682 19.8553 20.6638 20.3815 20.1322C14.1616 24.2554 8.98337 24.903 6.84082 24.9732C7.0513 25.1216 7.27257 25.2538 7.50193 25.3725Z" fill="#414042"/>
</g>
<defs>
<clipPath id="clip0_609_1622">
<rect width="46" height="46" fill="white" transform="translate(0 0.180054)"/>
</clipPath>
</defs>
</svg>
