<svg width="181" height="184" viewBox="0 0 181 184" fill="none" xmlns="http://www.w3.org/2000/svg">
<circle cx="92.1844" cy="94.7369" r="87.8158" fill="white" stroke="#000543" stroke-width="2"/>
<circle cx="88.8158" cy="88.8159" r="86.8158" fill="white" stroke="#000543" stroke-width="4"/>
<path d="M147.951 85.8448C147.985 86.5009 148.007 87.1599 148.018 87.8217L147.018 87.8385C147.024 88.1637 147.026 88.4896 147.026 88.8162C147.026 89.1428 147.024 89.4688 147.018 89.794L148.018 89.8108C148.007 90.4725 147.985 91.1316 147.951 91.7877L146.953 91.7373C146.92 92.3891 146.876 93.038 146.821 93.6839L147.818 93.7681C147.762 94.4283 147.695 95.0855 147.618 95.7392L146.625 95.6212C146.548 96.2669 146.46 96.9093 146.362 97.5482L147.35 97.7C147.25 98.3555 147.138 99.0074 147.016 99.6554L146.033 99.4698C145.912 100.109 145.781 100.745 145.639 101.377L146.614 101.596C146.469 102.241 146.313 102.883 146.147 103.52L145.18 103.267C145.015 103.897 144.84 104.522 144.655 105.143L145.613 105.429C145.424 106.064 145.224 106.693 145.014 107.319L144.066 107C143.859 107.616 143.642 108.227 143.414 108.834L144.351 109.185C144.118 109.804 143.876 110.419 143.623 111.028L142.699 110.645C142.45 111.246 142.191 111.841 141.923 112.431L142.833 112.846C142.558 113.447 142.274 114.044 141.98 114.634L141.085 114.189C140.796 114.77 140.497 115.346 140.188 115.916L141.068 116.392C140.753 116.974 140.428 117.55 140.095 118.119L139.232 117.614C138.903 118.174 138.565 118.728 138.218 119.277L139.063 119.811C138.71 120.37 138.347 120.922 137.975 121.467L137.149 120.904C136.783 121.44 136.408 121.971 136.025 122.494L136.831 123.085C136.44 123.618 136.041 124.144 135.632 124.663L134.847 124.045C134.445 124.555 134.035 125.059 133.617 125.555L134.381 126.2C133.955 126.705 133.521 127.202 133.078 127.693L132.336 127.022C131.901 127.504 131.458 127.979 131.006 128.446L131.725 129.141C131.266 129.615 130.799 130.083 130.324 130.542L129.629 129.823C129.162 130.274 128.688 130.717 128.206 131.152L128.876 131.895C128.386 132.337 127.888 132.772 127.383 133.197L126.739 132.433C126.243 132.851 125.739 133.261 125.229 133.663L125.847 134.449C125.328 134.857 124.802 135.257 124.269 135.647L123.678 134.841C123.154 135.224 122.624 135.599 122.087 135.965L122.651 136.792C122.105 137.163 121.554 137.526 120.995 137.88L120.46 137.035C119.912 137.382 119.358 137.72 118.797 138.048L119.303 138.911C118.734 139.245 118.158 139.569 117.576 139.884L117.1 139.004C116.53 139.313 115.954 139.612 115.372 139.901L115.818 140.797C115.227 141.091 114.631 141.375 114.029 141.649L113.615 140.739C113.025 141.008 112.429 141.267 111.829 141.516L112.212 142.439C111.602 142.692 110.988 142.935 110.369 143.167L110.017 142.231C109.411 142.458 108.8 142.675 108.184 142.882L108.502 143.83C107.877 144.04 107.247 144.24 106.613 144.429L106.327 143.471C105.706 143.656 105.081 143.831 104.451 143.996L104.704 144.963C104.067 145.13 103.425 145.286 102.78 145.431L102.56 144.455C101.929 144.597 101.293 144.728 100.653 144.849L100.839 145.832C100.191 145.954 99.5392 146.066 98.8837 146.167L98.7319 145.178C98.093 145.277 97.4506 145.364 96.8049 145.441L96.923 146.434C96.2692 146.512 95.6121 146.578 94.9518 146.634L94.8676 145.638C94.2218 145.692 93.5729 145.736 92.921 145.769L92.9714 146.768C92.3153 146.801 91.6562 146.823 90.9945 146.834L90.9777 145.834C90.6525 145.84 90.3265 145.843 90 145.843C89.6734 145.843 89.3474 145.84 89.0222 145.834L89.0054 146.834C88.3437 146.823 87.6846 146.801 87.0285 146.768L87.0789 145.769C86.427 145.736 85.7781 145.692 85.1323 145.638L85.0481 146.634C84.3878 146.578 83.7307 146.512 83.0769 146.434L83.195 145.441C82.5493 145.364 81.9069 145.277 81.268 145.178L81.1162 146.167C80.4607 146.066 79.8088 145.954 79.1607 145.832L79.3464 144.849C78.7069 144.728 78.0712 144.597 77.4395 144.455L77.2202 145.431C76.5747 145.286 75.9333 145.13 75.2962 144.963L75.5489 143.996C74.9192 143.831 74.2938 143.656 73.6727 143.471L73.3869 144.429C72.7525 144.24 72.1227 144.04 71.4976 143.83L71.8163 142.882C71.2003 142.675 70.5889 142.458 69.9825 142.231L69.6314 143.167C69.0119 142.935 68.3974 142.692 67.7882 142.439L68.1712 141.516C67.5706 141.267 66.9752 141.008 66.3851 140.739L65.9705 141.649C65.3687 141.375 64.7725 141.091 64.1819 140.797L64.6275 139.901C64.0459 139.612 63.4699 139.313 62.8998 139.004L62.4239 139.884C61.8421 139.569 61.2664 139.245 60.6968 138.911L61.2026 138.048C60.6421 137.72 60.0877 137.382 59.5396 137.035L59.0048 137.88C58.4464 137.526 57.8944 137.163 57.3492 136.792L57.9125 135.965C57.3758 135.599 56.8456 135.224 56.3222 134.841L55.7311 135.647C55.198 135.257 54.6719 134.857 54.1529 134.449L54.7712 133.663C54.2608 133.261 53.7574 132.851 53.2612 132.433L52.6166 133.197C52.1115 132.772 51.6138 132.337 51.1237 131.895L51.7939 131.152C51.3119 130.717 50.8375 130.274 50.3707 129.823L49.6757 130.542C49.2007 130.083 48.7336 129.615 48.2745 129.141L48.9935 128.446C48.5423 127.979 48.099 127.504 47.6638 127.022L46.9216 127.693C46.479 127.202 46.0447 126.705 45.6188 126.2L46.3833 125.555C45.9649 125.059 45.5549 124.555 45.1534 124.045L44.3674 124.663C43.9592 124.144 43.5596 123.618 43.1689 123.085L43.9754 122.494C43.5917 121.971 43.2168 121.44 42.8508 120.904L42.0246 121.467C41.6528 120.922 41.29 120.37 40.9365 119.811L41.7815 119.277C41.4345 118.728 41.0966 118.174 40.7681 117.614L39.9054 118.119C39.5715 117.55 39.2471 116.974 38.9323 116.392L39.8118 115.916C39.5032 115.346 39.2042 114.77 38.9147 114.189L38.0195 114.634C37.7256 114.044 37.4415 113.447 37.1673 112.846L38.0774 112.431C37.8085 111.841 37.5495 111.246 37.3004 110.645L36.3767 111.028C36.1241 110.419 35.8815 109.804 35.6492 109.185L36.5856 108.834C36.3582 108.227 36.1409 107.616 35.9338 107L34.9859 107.319C34.7757 106.693 34.576 106.064 34.3867 105.429L35.345 105.143C35.1598 104.522 34.9848 103.897 34.8204 103.267L33.8528 103.52C33.6864 102.883 33.5306 102.241 33.3855 101.596L34.3612 101.377C34.2192 100.745 34.0877 100.109 33.9669 99.4698L32.9843 99.6554C32.8618 99.0074 32.7501 98.3555 32.6494 97.7L33.6378 97.5482C33.5397 96.9093 33.4521 96.2669 33.3753 95.6212L32.3823 95.7392C32.3046 95.0855 32.2378 94.4283 32.182 93.7681L33.1784 93.6839C33.1238 93.038 33.08 92.3891 33.0471 91.7373L32.0484 91.7877C32.0153 91.1315 31.9931 90.4725 31.982 89.8108L32.9818 89.794C32.9764 89.4687 32.9736 89.1428 32.9736 88.8162C32.9736 88.4896 32.9764 88.1637 32.9818 87.8385L31.982 87.8216C31.9931 87.1599 32.0153 86.5009 32.0484 85.8448L33.0471 85.8951C33.08 85.2433 33.1238 84.5944 33.1784 83.9486L32.182 83.8644C32.2378 83.2041 32.3046 82.547 32.3823 81.8932L33.3753 82.0113C33.4521 81.3656 33.5397 80.7232 33.6378 80.0843L32.6494 79.9324C32.7501 79.277 32.8618 78.6251 32.9843 77.977L33.9669 78.1627C34.0877 77.5232 34.2192 76.8875 34.3612 76.2557L33.3855 76.0364C33.5306 75.391 33.6864 74.7496 33.8528 74.1125L34.8204 74.3652C34.9848 73.7355 35.1598 73.11 35.345 72.489L34.3867 72.2032C34.576 71.5688 34.7757 70.939 34.9859 70.3139L35.9337 70.6326C36.1409 70.0165 36.3582 69.4052 36.5856 68.7987L35.6492 68.4477C35.8815 67.8282 36.1241 67.2137 36.3767 66.6045L37.3004 66.9875C37.5495 66.3869 37.8085 65.7914 38.0774 65.2014L37.1673 64.7868C37.4415 64.185 37.7256 63.5888 38.0195 62.9982L38.9147 63.4437C39.2042 62.8621 39.5032 62.2862 39.8117 61.7161L38.9323 61.2401C39.247 60.6584 39.5715 60.0827 39.9054 59.5131L40.7681 60.0189C41.0966 59.4584 41.4345 58.904 41.7815 58.3559L40.9365 57.821C41.29 57.2626 41.6528 56.7107 42.0246 56.1654L42.8508 56.7288C43.2168 56.1921 43.5917 55.6619 43.9754 55.1385L43.1688 54.5473C43.5596 54.0143 43.9591 53.4882 44.3674 52.9692L45.1534 53.5875C45.5549 53.0771 45.9649 52.5737 46.3833 52.0775L45.6188 51.4329C46.0447 50.9278 46.479 50.4301 46.9216 49.9399L47.6638 50.6101C48.099 50.1282 48.5423 49.6537 48.9935 49.187L48.2745 48.492C48.7336 48.017 49.2007 47.5499 49.6757 47.0908L50.3707 47.8098C50.8374 47.3586 51.3119 46.9153 51.7938 46.4801L51.1236 45.7379C51.6138 45.2953 52.1115 44.861 52.6166 44.4351L53.2612 45.1996C53.7574 44.7812 54.2608 44.3712 54.7712 43.9697L54.1529 43.1837C54.6719 42.7754 55.198 42.3758 55.731 41.9851L56.3222 42.7917C56.8456 42.408 57.3758 42.0331 57.9125 41.6671L57.3491 40.8409C57.8944 40.4691 58.4464 40.1063 59.0047 39.7528L59.5396 40.5977C60.0877 40.2508 60.6421 39.9129 61.2026 39.5843L60.6968 38.7217C61.2664 38.3878 61.8421 38.0633 62.4238 37.7486L62.8998 38.628C63.4699 38.3195 64.0458 38.0205 64.6274 37.731L64.1819 36.8358C64.7725 36.5419 65.3687 36.2578 65.9705 35.9836L66.3851 36.8936C66.9751 36.6248 67.5706 36.3658 68.1712 36.1167L67.7882 35.193C68.3974 34.9403 69.0119 34.6978 69.6314 34.4655L69.9824 35.4019C70.5889 35.1745 71.2002 34.9571 71.8163 34.75L71.4976 33.8022C72.1227 33.592 72.7525 33.3923 73.3869 33.203L73.6727 34.1613C74.2937 33.9761 74.9192 33.8011 75.5489 33.6367L75.2962 32.6691C75.9333 32.5027 76.5747 32.3469 77.2202 32.2018L77.4395 33.1775C78.0712 33.0355 78.7069 32.904 79.3464 32.7832L79.1607 31.8005C79.8088 31.6781 80.4607 31.5664 81.1162 31.4657L81.268 32.4541C81.9069 32.356 82.5493 32.2684 83.195 32.1916L83.0769 31.1986C83.7307 31.1209 84.3878 31.054 85.0481 30.9982L85.1323 31.9947C85.7781 31.9401 86.427 31.8963 87.0789 31.8634L87.0285 30.8647C87.6846 30.8316 88.3437 30.8094 89.0054 30.7983L89.0222 31.7981C89.3474 31.7927 89.6734 31.7899 90 31.7899C90.3265 31.7899 90.6525 31.7927 90.9777 31.7981L90.9945 30.7983C91.6562 30.8094 92.3153 30.8316 92.9714 30.8647L92.921 31.8634C93.5729 31.8963 94.2218 31.9401 94.8676 31.9947L94.9518 30.9982C95.6121 31.054 96.2692 31.1209 96.923 31.1986L96.8049 32.1916C97.4506 32.2684 98.093 32.356 98.7319 32.4541L98.8837 31.4657C99.5392 31.5664 100.191 31.6781 100.839 31.8005L100.653 32.7832C101.293 32.904 101.929 33.0355 102.56 33.1775L102.78 32.2018C103.425 32.3469 104.067 32.5027 104.704 32.6691L104.451 33.6367C105.081 33.8011 105.706 33.9761 106.327 34.1613L106.613 33.203C107.247 33.3922 107.877 33.592 108.502 33.8022L108.184 34.75C108.8 34.9571 109.411 35.1745 110.017 35.4019L110.369 34.4655C110.988 34.6978 111.602 34.9403 112.212 35.193L111.829 36.1167C112.429 36.3658 113.025 36.6248 113.615 36.8936L114.029 35.9836C114.631 36.2578 115.227 36.5419 115.818 36.8358L115.372 37.731C115.954 38.0205 116.53 38.3195 117.1 38.628L117.576 37.7485C118.158 38.0633 118.734 38.3878 119.303 38.7216L118.797 39.5843C119.358 39.9129 119.912 40.2508 120.46 40.5977L120.995 39.7528C121.554 40.1063 122.105 40.4691 122.651 40.8409L122.087 41.6671C122.624 42.0331 123.154 42.408 123.678 42.7917L124.269 41.9851C124.802 42.3758 125.328 42.7754 125.847 43.1837L125.229 43.9696C125.739 44.3712 126.242 44.7812 126.739 45.1995L127.383 44.435C127.888 44.8609 128.386 45.2953 128.876 45.7379L128.206 46.4801C128.688 46.9153 129.162 47.3586 129.629 47.8098L130.324 47.0908C130.799 47.5499 131.266 48.017 131.725 48.4919L131.006 49.1869C131.458 49.6537 131.901 50.1282 132.336 50.6101L133.078 49.9399C133.521 50.4301 133.955 50.9278 134.381 51.4329L133.617 52.0775C134.035 52.5737 134.445 53.0771 134.847 53.5875L135.632 52.9692C136.041 53.4882 136.44 54.0143 136.831 54.5473L136.025 55.1385C136.408 55.6619 136.783 56.1921 137.149 56.7288L137.975 56.1654C138.347 56.7107 138.71 57.2626 139.063 57.821L138.218 58.3559C138.565 58.904 138.903 59.4584 139.232 60.0188L140.095 59.5131C140.428 60.0827 140.753 60.6584 141.068 61.2401L140.188 61.716C140.497 62.2862 140.796 62.8621 141.085 63.4437L141.98 62.9982C142.274 63.5887 142.558 64.185 142.833 64.7868L141.923 65.2013C142.191 65.7914 142.45 66.3869 142.699 66.9875L143.623 66.6045C143.876 67.2137 144.118 67.8282 144.351 68.4477L143.414 68.7987C143.642 69.4052 143.859 70.0165 144.066 70.6326L145.014 70.3139C145.224 70.939 145.424 71.5688 145.613 72.2032L144.655 72.489C144.84 73.11 145.015 73.7355 145.18 74.3652L146.147 74.1125C146.313 74.7496 146.469 75.391 146.614 76.0364L145.639 76.2557C145.781 76.8875 145.912 77.5232 146.033 78.1627L147.016 77.977C147.138 78.6251 147.25 79.277 147.35 79.9324L146.362 80.0843C146.46 80.7232 146.548 81.3656 146.625 82.0113L147.618 81.8932C147.695 82.547 147.762 83.2041 147.818 83.8644L146.821 83.9486C146.876 84.5944 146.92 85.2433 146.953 85.8951L147.951 85.8448Z" fill="#D1E9FF" stroke="#000543" stroke-width="2" stroke-dasharray="2 2"/>
<path d="M118.915 100.161C117.666 100.161 116.73 99.2866 116.699 97.9445L116.324 82.9007C116.293 81.4338 117.448 80.3414 118.915 80.3414C120.382 80.3414 121.568 81.4338 121.474 82.9007L121.099 97.9445C121.131 99.2866 120.163 100.161 118.915 100.161ZM115.887 104.905C115.887 103.313 117.198 102.033 118.915 102.033C120.663 102.033 121.973 103.313 121.973 104.905C121.973 106.496 120.631 107.745 118.915 107.745C117.198 107.745 115.887 106.496 115.887 104.905Z" fill="#000543"/>
<path d="M96.2423 109.649C92.3721 109.649 90.7491 108.088 90.7491 104.436V98.1941C90.7491 96.696 91.7167 95.8533 93.246 95.8533H93.4021C94.9002 95.8533 95.899 96.6647 95.899 97.882V98.3814H105.574V97.882C105.574 96.6647 106.573 95.8533 108.071 95.8533H108.227C109.757 95.8533 110.724 96.696 110.724 98.1941V104.436C110.724 108.182 109.382 109.649 105.543 109.649H96.2423ZM87.3159 87.6135V83.4312C87.3159 81.4025 88.4395 80.3725 90.6867 80.3725H99.8004C101.548 80.3725 102.453 81.2464 102.453 82.6509C102.453 84.0554 101.548 84.9293 99.8004 84.9293H93.1836C92.653 84.9293 92.4658 85.1166 92.4658 85.6472V87.7696C92.4658 89.3613 93.2773 89.8295 95.3684 89.8295C97.3035 89.8295 99.0513 89.611 100.643 89.1428C101.018 89.0492 101.33 88.9868 101.579 88.9868C102.578 88.9868 103.265 89.5174 103.608 90.4849C103.702 90.8283 103.764 91.1404 103.764 91.3901C103.764 92.3576 103.202 93.0442 102.048 93.45C100.206 94.0742 97.8653 94.3863 95.0251 94.3863C89.7816 94.3863 87.3159 92.4512 87.3159 87.6135ZM95.899 103.812C95.899 104.686 96.4608 105.029 97.5844 105.029H103.889C105.013 105.029 105.574 104.686 105.574 103.812V102.751H95.899V103.812ZM105.574 92.5137V81.6834C105.574 80.1852 106.542 79.3425 108.071 79.3425H108.227C109.757 79.3425 110.724 80.1852 110.724 81.6834V84.5548H112.316C113.814 84.5548 114.657 85.4287 114.657 86.8956C114.657 88.3626 113.814 89.2365 112.316 89.2365H110.724V92.5137C110.724 94.0118 109.757 94.8545 108.227 94.8545H108.071C106.542 94.8545 105.574 94.0118 105.574 92.5137Z" fill="#000543"/>
<path d="M73.039 110.335C67.8267 110.335 64.2686 107.214 64.2686 102.845C64.2686 98.4126 67.8579 95.2602 73.039 95.2602C78.2824 95.2602 81.8405 98.4126 81.8405 102.845C81.8405 107.245 78.2512 110.335 73.039 110.335ZM58.0264 93.0755C58.0264 92.2952 58.4945 91.5149 59.3684 91.0155C62.6456 89.0492 63.9253 87.7071 63.9253 85.7096V84.9293H60.773C59.2436 84.9293 58.2761 84.0554 58.2761 82.6509C58.2761 81.1528 59.3684 80.3725 60.773 80.3725H72.1338C73.5383 80.3725 74.6307 81.1528 74.6307 82.6509C74.6307 84.1491 73.5383 84.9293 72.1338 84.9293H69.0439V85.7096C69.0439 86.2402 68.9815 86.7708 68.8879 87.3638C71.3223 88.5186 73.1326 89.5798 74.2874 90.5474C74.8804 91.0155 75.1925 91.6397 75.1925 92.3576C75.1925 93.013 74.9428 93.606 74.4435 94.0742C74.0065 94.5112 73.4447 94.7297 72.7893 94.7297C72.1963 94.7297 71.6657 94.5424 71.1351 94.1991C69.9803 93.3564 68.5133 92.4512 66.7031 91.4525C65.5171 92.7946 63.8317 94.043 61.6469 95.229C61.3035 95.4163 60.929 95.5099 60.5233 95.5099C59.743 95.5099 58.9627 95.1354 58.4633 94.3863C58.1824 93.9806 58.0264 93.5436 58.0264 93.0755ZM69.4185 102.813C69.4185 104.53 70.8854 105.778 73.1014 105.778C75.2549 105.778 76.6907 104.53 76.6907 102.813C76.6907 101.034 75.2549 99.7547 73.1014 99.7547C70.8854 99.7547 69.4185 101.034 69.4185 102.813ZM72.7581 87.3014C72.7581 85.8345 73.6008 85.023 75.3486 85.023H77.1588V81.6834C77.1588 80.1852 78.1264 79.3425 79.6557 79.3425H79.8118C81.3411 79.3425 82.3087 80.1852 82.3087 81.6834V93.1379C82.3087 94.636 81.3411 95.4787 79.8118 95.4787H79.6557C78.1264 95.4787 77.1588 94.636 77.1588 93.1379V89.5798H75.3486C73.6008 89.5798 72.7581 88.7683 72.7581 87.3014Z" fill="#000543"/>
<path d="M83.2903 15.0668L84.0692 15.6509C84.1665 15.5536 84.2639 15.4562 84.4586 15.4562C84.4586 15.6509 84.3613 15.7483 84.3613 15.8456L86.4058 17.4034C86.6006 17.5981 86.6979 17.7929 86.6006 18.0849L85.1402 22.8556C84.9454 23.4398 85.627 23.8292 86.1138 23.5372L90.3003 20.7137C90.495 20.6163 90.7871 20.6163 90.9818 20.7137L94.3894 22.953C94.1947 22.4662 94.1947 22.1741 94.5842 21.7847C94.5842 22.2715 94.5842 22.5636 94.4868 23.0504L95.1683 23.5372C95.2657 23.5372 95.2657 23.6345 95.3631 23.6345C95.3631 23.5372 95.4604 23.5372 95.4604 23.4398C95.4604 23.5372 95.5578 23.6345 95.5578 23.6345C95.9472 23.6345 96.2393 23.2451 96.1419 22.8556L95.5578 21.1031C95.5578 21.2979 95.5578 21.3952 95.5578 21.5899C95.4604 21.5899 95.4604 21.5899 95.3631 21.5899C95.3631 21.3952 95.2657 21.2005 95.3631 21.1031C95.3631 21.0058 95.4604 20.8111 95.4604 20.7137L94.6815 18.0849C94.5842 17.7929 94.6815 17.5981 94.8763 17.4034L98.7707 14.2879C99.2575 13.8984 98.9654 13.2169 98.3812 13.2169H96.434C96.434 13.4116 96.3367 13.6063 96.2393 13.8011C96.1419 13.8011 96.0446 13.7037 95.9472 13.7037C95.9472 13.509 96.0446 13.4116 96.1419 13.2169H94.1947C94.1947 13.509 94.1947 13.8011 94.1947 14.1905C93.8053 13.7037 93.9026 13.4116 94 13.2169H93.2211C92.929 13.2169 92.7343 13.0222 92.6369 12.8275L92.2475 11.367C92.2475 11.4644 92.1501 11.5618 92.1501 11.7565C92.0528 11.7565 92.0528 11.6591 91.9554 11.6591C92.0528 11.367 92.0528 11.1723 92.1501 10.9776L91.1765 8.15413C91.0792 8.15413 91.0792 8.25149 91.0792 8.34885C90.9818 8.34885 90.9818 8.25149 90.8844 8.25149C90.8844 8.15413 90.9818 7.9594 90.9818 7.86204C90.6897 7.37524 90.0082 7.4726 89.9108 7.9594L89.2293 10.1013C89.2293 10.3934 89.2293 10.5882 89.0346 10.7829L88.3531 12.8275C88.2557 13.1195 88.061 13.2169 87.7689 13.2169H87.0874H83.2903C83.2903 13.3143 83.2903 13.3143 83.2903 13.4116C83.1929 13.4116 83.1929 13.3143 83.0956 13.3143V13.2169H82.9008C82.3167 13.2169 82.0246 13.9958 82.5114 14.2879L83.2903 14.872C83.2903 14.872 83.2903 14.872 83.3877 14.7747C83.1929 14.872 83.1929 14.9694 83.2903 15.0668ZM96.2393 15.4562C96.2393 15.5536 96.3367 15.5536 96.434 15.8456C96.3367 15.8456 96.3367 15.943 96.2393 15.943L96.1419 15.7483C96.1419 15.6509 96.2393 15.5536 96.2393 15.4562ZM95.4604 13.8984C95.5578 13.9958 95.5578 13.9958 95.6551 14.0931C95.5578 14.2879 95.4604 14.4826 95.3631 14.6773C95.3631 14.58 95.2657 14.58 95.1683 14.4826C95.1683 14.2879 95.3631 14.0931 95.4604 13.8984ZM94.0974 15.3588C94.1947 15.3588 94.1947 15.3588 94.2921 15.3588C94.2921 15.5536 94.2921 15.8456 94.3894 16.0404C94.2921 16.0404 94.1947 16.0404 94.0974 16.0404C94.0974 15.8456 94.0974 15.5536 94.0974 15.3588ZM94.1947 17.5981C94.2921 17.5981 94.2921 17.5981 94.3894 17.6955C94.3894 17.9876 94.3894 18.1823 94.2921 18.4744C94.1947 18.4744 94.0974 18.4744 94 18.377C94.0974 18.0849 94.0974 17.7929 94.1947 17.5981ZM93.2211 21.6873C93.1238 21.6873 93.1238 21.5899 93.0264 21.5899C93.1238 21.3952 93.1238 21.2005 93.2211 21.0058C93.3185 21.0058 93.3185 21.1031 93.4158 21.1031C93.3185 21.2979 93.3185 21.4926 93.2211 21.6873ZM93.1238 14.0931C93.2211 14.0931 93.2211 14.0931 93.3185 14.1905C93.3185 14.4826 93.2211 14.6773 93.2211 14.9694C93.1238 14.9694 93.1238 14.9694 93.0264 14.872C93.0264 14.58 93.1238 14.2879 93.1238 14.0931ZM93.1238 18.5718C93.2211 18.6691 93.3185 18.6691 93.3185 18.7665C93.3185 19.1559 93.5132 19.6427 92.8317 19.6427C92.929 19.1559 93.0264 18.8638 93.1238 18.5718ZM92.2475 20.9084C92.0528 20.2269 92.0528 20.2269 92.4422 19.8374C92.3449 20.1295 92.2475 20.4216 92.2475 20.9084ZM92.3449 15.3588C92.2475 15.6509 92.2475 15.943 92.1501 16.3324C91.8581 15.7483 91.8581 15.4562 92.3449 15.3588ZM92.1501 13.0222C92.2475 13.0222 92.2475 13.1195 92.3449 13.1195C92.2475 13.4116 92.1501 13.7037 92.0528 13.8984C91.9554 13.8984 91.9554 13.8011 91.8581 13.8011C91.9554 13.6063 92.0528 13.3143 92.1501 13.0222ZM91.0792 14.6773C91.0792 14.7747 91.1765 14.7747 91.1765 14.872L91.0792 14.9694L90.9818 14.872C90.9818 14.7747 91.0792 14.7747 91.0792 14.6773ZM89.132 19.6427C89.0346 19.6427 88.8399 19.5454 88.8399 19.5454C88.8399 19.3506 88.8399 19.1559 88.9372 18.9612C89.0346 18.9612 89.132 18.9612 89.132 18.9612C89.132 19.1559 89.132 19.448 89.132 19.6427ZM90.0082 15.6509C90.0082 15.0668 90.2029 14.3852 89.8135 13.8984C89.7161 13.8011 89.9108 13.4116 90.1056 13.2169C90.1056 13.9958 90.495 14.872 90.0082 15.6509ZM89.8135 11.075C90.0082 10.6855 90.0082 10.2961 89.9108 9.80926C89.8135 9.51718 89.9108 9.12774 90.0082 8.73829C90.3976 11.9512 90.495 11.5618 89.7161 12.0486C89.8135 11.5618 89.7161 11.2697 89.8135 11.075ZM89.0346 16.7219C89.132 16.7219 89.1319 16.8193 89.2293 16.8193C89.2293 17.1113 89.132 17.4034 89.132 17.6955C89.0346 17.6955 88.9372 17.5981 88.8399 17.5981C88.8399 17.2087 88.9372 17.014 89.0346 16.7219ZM87.9636 15.2615C88.061 15.2615 88.061 15.2615 88.1583 15.2615C88.1583 15.5536 88.1583 15.8456 88.1583 16.1377C88.061 16.1377 87.9636 16.1377 87.8663 16.1377C87.9636 15.943 87.9636 15.6509 87.9636 15.2615ZM88.061 19.9348H88.1583C88.1583 20.2269 88.1583 20.519 88.1583 20.9084C88.061 20.9084 87.9636 20.9084 87.8663 20.9084C87.9636 20.519 87.9636 20.2269 88.061 19.9348ZM86.0164 15.5536C86.1138 15.5536 86.1138 15.5536 86.2111 15.6509C86.2111 15.943 86.1138 16.2351 86.1138 16.5272C86.0164 16.5272 85.919 16.4298 85.8217 16.4298C85.919 16.1377 85.919 15.8456 86.0164 15.5536Z" fill="#0055A7"/>
<path d="M60.2154 22.5635L65.0834 24.0239C65.3755 24.1212 65.4729 24.316 65.5702 24.608L65.9597 29.5734C65.9597 30.1576 66.7386 30.3523 67.128 29.8655L68.199 28.3078C68.0043 27.8209 68.199 27.5289 68.5884 27.4315C68.4911 27.6262 68.4911 27.8209 68.3937 28.0157L69.1726 26.8473C69.1726 26.8473 69.0752 26.8473 69.0752 26.75C69.1726 26.5553 69.27 26.2632 69.27 26.0684C69.27 26.0684 69.3673 26.0684 69.3673 26.1658C69.3673 26.2632 69.27 26.4579 69.27 26.5553L69.8541 25.679C69.8541 25.5816 69.9515 25.5816 70.0488 25.4843C70.0488 25.2896 70.0488 25.0948 70.0488 24.9001C70.1462 24.9001 70.2436 24.9001 70.3409 24.9975C70.3409 25.0948 70.3409 25.2896 70.2436 25.3869C70.3409 25.3869 70.3409 25.3869 70.4383 25.3869L75.3063 26.4579C75.8905 26.5553 76.28 25.9711 75.8905 25.4843L75.1116 24.5107H75.0143V24.4133L72.9697 21.8819V21.9793C72.8723 21.9793 72.8723 21.8819 72.775 21.8819C72.775 21.7846 72.775 21.7846 72.8723 21.6872L72.775 21.5898C72.5802 21.3951 72.5802 21.103 72.775 20.9083L75.5011 16.5271C75.7931 16.0403 75.3063 15.4561 74.7222 15.6508L72.0934 16.6244C72.0934 16.7218 71.9961 16.7218 71.9961 16.8192C71.9961 16.7218 71.8987 16.7218 71.8013 16.6244L69.9515 17.306C69.8541 17.306 69.7568 17.306 69.562 17.306C70.2436 17.7928 70.3409 17.9875 69.9515 19.1558C69.7568 19.0585 69.562 18.9611 69.3673 18.8637C69.0752 19.0585 69.27 20.0321 68.5884 19.9347C68.7832 19.0585 68.8805 18.2796 68.5884 17.5007C68.4911 17.306 68.6858 17.0139 68.7832 16.5271L65.8623 13.1194C65.4729 12.6326 64.7914 12.9247 64.7914 13.5089L64.9861 18.5717C64.9861 18.8637 64.8887 19.0585 64.5966 19.1558L59.9233 21.0057C59.6312 21.5898 59.6312 22.3687 60.2154 22.5635ZM74.138 25.0948C74.2354 25.0948 74.3327 25.1922 74.3327 25.1922C74.3327 25.3869 74.2354 25.4843 74.2354 25.679C74.138 25.679 74.138 25.5816 74.0407 25.5816C74.138 25.3869 74.138 25.1922 74.138 25.0948ZM73.2618 17.1112C73.3591 17.1112 73.3591 17.2086 73.4565 17.2086C73.3591 17.4033 73.3591 17.6954 73.2618 17.8901C73.1644 17.8901 73.1644 17.7928 73.067 17.7928C73.067 17.5007 73.1644 17.306 73.2618 17.1112ZM73.1644 19.2532C73.2618 19.2532 73.2618 19.2532 73.3591 19.3505C73.3591 19.6426 73.2618 19.8373 73.2618 20.1294C73.1644 20.1294 73.1644 20.1294 73.067 20.0321C73.067 19.74 73.1644 19.5453 73.1644 19.2532ZM72.2882 25.679H72.1908C72.1908 25.5816 72.0934 25.3869 72.0934 25.2896C72.0934 25.1922 72.1908 24.9975 72.2882 24.9001C72.2882 24.9001 72.3855 24.9001 72.3855 24.9975C72.3855 25.1922 72.2882 25.4843 72.2882 25.679ZM72.0934 22.9529C72.1908 23.0503 72.1908 23.0503 72.2882 23.1476C72.1908 23.245 72.1908 23.3423 72.0934 23.4397C72.0934 23.3423 71.9961 23.3423 71.8987 23.245C71.9961 23.1476 71.9961 23.0503 72.0934 22.9529ZM71.1198 24.7054C70.8277 24.1212 71.0225 23.8291 71.3145 23.4397C71.5093 23.9265 71.4119 24.316 71.1198 24.7054ZM71.2172 19.4479C71.3145 19.4479 71.3145 19.5453 71.4119 19.5453C71.3145 19.74 71.3145 19.9347 71.2172 20.0321C71.2172 20.0321 71.1198 19.9347 71.0225 19.9347C71.1198 19.8373 71.1198 19.6426 71.2172 19.4479ZM71.3145 21.103C71.4119 21.8819 71.4119 21.8819 71.1198 22.7582C70.7304 21.9793 70.9251 21.5898 71.3145 21.103ZM70.1462 23.1476C70.1462 23.245 70.2436 23.3423 70.2436 23.4397C70.1462 23.4397 70.1462 23.5371 70.1462 23.5371C70.1462 23.5371 70.1462 23.4397 70.0488 23.3423C70.0488 23.245 70.1462 23.1476 70.1462 23.1476ZM69.27 24.5107H69.1726C69.1726 24.316 69.1726 24.1212 69.1726 24.0239C69.27 24.0239 69.27 24.0239 69.3673 24.0239C69.27 24.2186 69.27 24.4133 69.27 24.5107ZM69.1726 21.2978H69.27C69.27 21.6872 69.1726 22.0766 69.1726 22.4661C69.0752 22.4661 68.9779 22.3687 68.8805 22.3687C69.0752 21.9793 69.1726 21.5898 69.1726 21.2978ZM66.9333 20.3241C66.8359 20.2268 66.7386 20.2268 66.7386 20.1294C66.8359 19.8373 66.9333 19.5453 67.128 19.1558C67.2254 19.74 67.2254 20.1294 66.9333 20.3241ZM68.2964 24.9975C68.2964 25.3869 68.2964 25.7764 68.2964 26.3605C68.1016 25.8737 67.8095 25.4843 68.2964 24.9975ZM66.8359 18.1822C66.8359 17.6954 66.8359 17.306 66.8359 16.6244C67.4201 17.2086 67.2254 17.6954 66.8359 18.1822ZM66.8359 14.6772C67.0307 15.164 67.0307 15.5535 66.6412 15.8455C66.7386 15.4561 66.7386 15.164 66.8359 14.6772ZM66.3491 25.8737C66.2518 25.8737 66.2518 25.8737 66.1544 25.8737C66.1544 25.5816 66.057 25.3869 66.057 25.0948C66.1544 25.0948 66.2518 25.0948 66.3491 25.0948C66.2518 25.2896 66.3491 25.5816 66.3491 25.8737ZM66.1544 23.245C66.1544 23.245 66.2518 23.3423 66.2518 23.4397C66.1544 23.5371 66.1544 23.5371 66.057 23.6344C66.057 23.6344 65.9597 23.5371 65.9597 23.4397C66.057 23.3423 66.1544 23.245 66.1544 23.245ZM65.765 14.2878C65.8623 14.2878 65.8623 14.3851 65.9597 14.3851C65.8623 14.5798 65.8623 14.5798 65.765 14.6772C65.765 14.5798 65.6676 14.4825 65.6676 14.3851L65.765 14.2878Z" fill="#0055A7"/>
<path d="M56.1854 34.3924C56.2817 34.3924 56.2817 34.3924 56.3779 34.3924C56.3779 34.4887 56.3779 34.6811 56.3779 34.7773C56.859 34.6811 57.0514 33.9113 56.5703 33.6227L52.3366 31.0247C52.1441 30.9285 52.0479 30.6398 52.0479 30.3511L53.0101 25.4438C53.1063 24.8665 52.4328 24.4816 52.0479 24.8665L48.2952 28.2342C48.199 28.3305 48.199 28.3305 48.1028 28.4267C48.1028 28.5229 48.1028 28.5229 48.0066 28.6191C47.9104 28.5229 47.8141 28.4267 47.8141 28.4267C47.7179 28.4267 47.6217 28.4267 47.5255 28.3305L47.0444 28.0418C47.1406 28.4267 47.0444 28.5229 46.7557 29.1002C46.7557 28.6191 46.7557 28.2342 46.7557 27.9456L45.8897 27.3682C45.8897 27.4645 45.8897 27.4645 45.7935 27.5607C45.7935 27.4645 45.6973 27.3682 45.6973 27.272L43.1955 25.8287C42.7144 25.54 42.137 26.1174 42.3295 26.5985L43.5804 29.6776C43.5804 29.2927 43.4842 29.004 43.3879 28.6191C43.869 29.3889 43.869 29.3889 43.6766 29.9662L44.2539 31.3133C44.3501 31.5058 44.2539 31.7945 44.0615 31.9869L42.8106 33.1416C42.8106 33.7189 42.7144 34.3924 43.003 34.8736C42.8106 35.3547 42.8106 35.7396 42.8106 36.2207H42.9068C42.9068 36.1244 42.9068 36.0282 43.003 35.932C43.003 35.8358 43.1955 35.8358 43.2917 35.8358C43.3879 35.932 43.3879 36.0282 43.3879 36.1244H43.5804C43.5804 35.8358 43.5804 35.4509 43.4842 35.066C43.6766 35.4509 43.7728 35.6433 43.7728 36.0282H44.5426C44.5426 34.5849 44.4464 33.2378 44.4464 31.6982C44.8313 32.3718 45.0237 32.6605 44.8313 33.1416C44.735 33.334 44.735 33.7189 44.8313 33.9113C45.1199 34.5849 45.0237 35.3547 44.9275 36.0282H45.0237C45.1199 35.8358 45.2161 35.6433 45.4086 35.5471C45.4086 35.6433 45.5048 35.6433 45.5048 35.6433C45.5048 35.5471 45.5048 35.5471 45.5048 35.4509C45.601 35.4509 45.6973 35.3547 45.7935 35.3547C45.7935 35.5471 45.7935 35.7396 45.8897 35.932C46.1784 35.932 46.3708 36.0282 46.467 36.3169L46.5633 36.5093C46.6595 36.7018 46.7557 36.8942 46.8519 37.1829L48.4877 40.8393C48.6801 41.2242 48.9688 41.3204 49.2575 41.2242C49.1612 41.0318 49.2575 40.9355 49.3537 40.6469C49.3537 40.8393 49.3537 41.0318 49.3537 41.128C49.4499 41.0318 49.5461 40.9355 49.5461 40.7431L50.797 35.932C50.8932 35.6433 51.0857 35.5471 51.2781 35.4509L51.8555 35.3547C51.663 34.8736 51.7592 34.5849 52.1441 34.3924C52.1441 34.6811 52.0479 34.9698 51.9517 35.3547L55.993 34.8736C56.1854 34.7773 56.1854 34.5849 56.1854 34.3924ZM43.869 27.272C43.869 27.3682 43.6766 27.3682 43.5804 27.4645C43.4842 27.1758 43.3879 26.8871 43.2917 26.5985C43.3879 26.5022 43.3879 26.5022 43.4842 26.406C43.7728 26.5985 43.9653 26.7909 43.869 27.272ZM44.1577 30.9285C44.0615 30.736 44.0615 30.6398 44.0615 30.5436C44.0615 30.4473 44.0615 30.3511 44.0615 30.2549H44.1577C44.1577 30.4473 44.1577 30.6398 44.1577 30.8322C44.2539 30.8322 44.1577 30.9285 44.1577 30.9285ZM43.2917 34.5849C43.1955 34.4887 43.0993 34.4887 43.0993 34.3924C43.0993 34.2962 43.0993 34.2 43.0993 34.0076C43.1955 34.1038 43.2917 34.1038 43.2917 34.2C43.2917 34.2962 43.2917 34.4887 43.2917 34.5849ZM43.7728 34.1038C43.7728 33.7189 43.2917 33.334 43.6766 32.5642C43.6766 33.2378 44.1577 33.5265 43.7728 34.1038ZM44.5426 31.2171C44.5426 30.8322 44.5426 30.5436 44.6388 29.9662C45.0237 30.736 45.0237 30.736 44.5426 31.2171ZM44.735 28.8116C44.6388 28.5229 44.6388 28.138 44.5426 27.8494C44.6388 27.8494 44.6388 27.7531 44.735 27.7531C44.8313 28.0418 44.8313 28.3305 44.9275 28.6191C44.9275 28.7154 44.8313 28.7154 44.735 28.8116ZM45.1199 31.8907L45.0237 31.7945C45.1199 31.6982 45.1199 31.602 45.2161 31.4096L45.3124 31.5058C45.3124 31.6982 45.2161 31.7945 45.1199 31.8907ZM46.0821 29.7738C45.5048 30.5436 45.9859 31.2171 45.9859 31.8907C45.9859 32.5642 45.8897 33.334 45.8897 34.0076C45.7935 34.0076 45.7935 34.0076 45.6973 34.0076C45.6973 32.3718 45.6973 30.6398 45.6973 29.004C45.7935 29.004 45.8897 28.9078 45.9859 28.9078C45.9859 29.1965 46.1784 29.6776 46.0821 29.7738ZM47.8141 29.9662C47.7179 29.6776 47.7179 29.3889 47.6217 28.9078C48.1028 29.1965 48.199 29.4851 47.8141 29.9662ZM47.5255 33.4302C47.4292 33.7189 47.333 34.1038 47.333 34.3924C47.2368 34.3924 47.1406 34.2962 47.0444 34.2962C47.1406 34.0076 47.2368 33.7189 47.333 33.334C47.4292 33.4302 47.5255 33.4302 47.5255 33.4302ZM47.333 31.602C47.333 31.7945 47.2368 31.9869 47.2368 32.1793C47.1406 32.1793 47.1406 32.1793 47.0444 32.0831C47.0444 31.8907 47.1406 31.6982 47.1406 31.5058C47.2368 31.5058 47.333 31.5058 47.333 31.602ZM46.9481 31.1209C46.8519 30.736 46.7557 30.3511 46.6595 29.9662C47.2368 30.5436 47.2368 30.5436 46.9481 31.1209ZM46.7557 31.7945C46.8519 32.0831 47.1406 32.468 46.9481 33.0453C46.5633 32.6605 46.5633 32.2756 46.7557 31.7945ZM46.5633 34.2C46.5633 34.1038 46.6595 34.0076 46.6595 33.7189C46.8519 34.1038 46.9481 34.3924 47.0444 34.6811C46.9481 34.7773 46.9481 34.7773 46.8519 34.8736C46.8519 34.5849 46.6595 34.3924 46.5633 34.2ZM47.4292 36.798C46.8519 36.1244 47.0444 35.7396 47.5255 35.2584C47.5255 35.8358 47.4292 36.2207 47.4292 36.798ZM47.9104 38.7224C47.7179 38.2413 47.6217 37.9527 47.5255 37.664C47.6217 37.5678 47.6217 37.5678 47.7179 37.4716C47.9104 37.7602 48.1028 38.0489 47.9104 38.7224ZM47.8141 36.798C47.7179 36.1244 47.6217 35.6433 47.5255 35.2584C47.6217 35.2584 47.6217 35.2584 47.7179 35.1622C47.9104 35.5471 48.2952 35.932 47.8141 36.798ZM47.8141 34.2C47.7179 34.0076 47.7179 33.7189 47.6217 33.5265C47.7179 33.5265 47.8141 33.4302 47.9104 33.4302C47.9104 33.6227 48.0066 33.8151 48.0066 34.1038L47.8141 34.2ZM48.0066 33.2378C48.0066 33.0453 48.1028 32.8529 48.1028 32.6605C48.199 32.6605 48.199 32.7567 48.2952 32.7567C48.2952 32.9491 48.199 33.1416 48.199 33.334C48.1028 33.2378 48.0066 33.2378 48.0066 33.2378ZM48.2952 37.5678C48.199 37.5678 48.199 37.5678 48.1028 37.5678C48.1028 37.3753 48.1028 37.2791 48.1028 37.0867C48.1028 37.0867 48.199 37.0867 48.2952 36.9904C48.2952 37.1829 48.2952 37.3753 48.2952 37.5678ZM48.1028 31.1209C47.7179 30.4473 47.8141 29.9662 48.2952 29.2927C48.2952 30.0625 48.199 30.5436 48.1028 31.1209ZM49.065 29.004C49.1612 29.004 49.1612 29.1002 49.2575 29.1002C49.2575 29.2927 49.1612 29.4851 49.1612 29.6776L48.9688 29.5814C48.9688 29.3889 49.065 29.1965 49.065 29.004ZM48.9688 31.3133C49.065 31.3133 49.065 31.3133 49.1612 31.3133C49.1612 31.4096 49.2575 31.602 49.2575 31.6982C49.2575 31.7945 49.1612 31.9869 49.1612 32.0831C49.065 32.0831 49.065 32.0831 48.9688 32.0831C48.9688 31.7945 48.9688 31.602 48.9688 31.3133ZM49.2575 38.9149H49.065C49.065 38.7224 49.065 38.4338 49.1612 38.2413C49.2575 38.2413 49.3537 38.2413 49.4499 38.3375C49.3537 38.4338 49.3537 38.7224 49.2575 38.9149ZM49.2575 36.8942C48.8726 36.2207 48.9688 35.932 49.4499 35.4509C49.3537 36.1244 49.2575 36.4131 49.2575 36.8942ZM50.0272 27.5607C50.1235 27.5607 50.1235 27.6569 50.2197 27.6569C50.1235 27.9456 50.1235 28.3305 50.0272 28.6191C49.931 28.6191 49.8348 28.5229 49.7386 28.5229C49.8348 28.138 49.931 27.8494 50.0272 27.5607ZM50.0272 29.7738C50.1235 29.7738 50.2197 29.87 50.3159 29.87C50.2197 30.2549 50.2197 30.6398 50.1235 31.2171C49.6424 30.5436 49.6424 30.1587 50.0272 29.7738ZM50.2197 32.0831C50.2197 32.468 50.1235 32.8529 50.1235 33.4302C49.7386 32.6605 50.1235 32.3718 50.2197 32.0831ZM50.1235 35.1622C50.0272 35.1622 50.0272 35.066 49.931 35.066C50.0272 34.7773 50.1235 34.5849 50.1235 34.2962C50.2197 34.3924 50.3159 34.3924 50.3159 34.4887C50.3159 34.6811 50.2197 34.8736 50.1235 35.1622ZM50.8932 27.1758C50.8932 27.0796 50.797 27.0796 50.797 26.9834C50.8932 26.7909 50.9895 26.5985 51.0857 26.406C51.1819 26.5022 51.1819 26.5022 51.2781 26.5985C51.0857 26.8871 50.9895 26.9834 50.8932 27.1758ZM51.1819 31.5058C51.1819 31.5058 51.0857 31.5058 50.9895 31.5058C50.9895 31.3133 51.0857 31.2171 51.0857 31.0247C51.0857 31.0247 51.1819 31.1209 51.2781 31.1209C51.1819 31.3133 51.1819 31.4096 51.1819 31.5058ZM51.9517 25.4438C52.0479 25.4438 52.0479 25.4438 52.1441 25.4438C52.1441 25.7325 52.0479 26.0211 52.0479 26.406C51.9517 26.406 51.8555 26.406 51.7592 26.3098C51.8555 26.1174 51.8555 25.8287 51.9517 25.4438ZM52.0479 27.5607C52.1441 27.5607 52.1441 27.6569 52.2403 27.6569C52.1441 27.9456 52.0479 28.2342 51.9517 28.5229C51.8555 28.4267 51.7592 28.4267 51.7592 28.3305C51.7592 28.138 51.8555 27.8494 52.0479 27.5607ZM51.9517 30.0625C52.0479 30.0625 52.0479 30.0625 52.1441 30.0625C52.1441 30.3511 52.1441 30.6398 52.1441 30.9285C52.0479 30.9285 51.9517 30.9285 51.8555 30.9285C51.8555 30.6398 51.9517 30.3511 51.9517 30.0625ZM52.0479 33.334C51.7592 32.8529 51.8555 32.468 52.1441 31.9869C52.3366 32.5642 52.4328 32.9491 52.0479 33.334Z" fill="#0055A7"/>
<path d="M41.339 34.5848L40.9541 34.8735C40.9541 34.9697 40.9541 35.0659 40.9541 35.0659C40.9541 35.0659 40.8579 34.9697 40.7616 34.9697L40.473 35.2584C40.0881 35.5471 40.2805 36.1244 40.6654 36.2206C40.6654 36.1244 40.6654 36.1244 40.6654 36.0282C40.8579 36.0282 40.9541 36.1244 41.0503 36.3168H41.339C41.339 36.2206 41.2428 36.2206 41.2428 36.2206C41.2428 36.1244 41.339 36.0282 41.4352 35.8357C41.5314 35.9319 41.6276 36.0282 41.5314 36.1244C41.5314 36.2206 41.5314 36.2206 41.4352 36.3168H41.7239C41.6276 36.0282 41.6276 35.6433 41.5314 35.2584C42.1088 35.4508 42.1088 35.8357 41.8201 36.3168L42.5899 36.2206C42.5899 35.2584 42.5899 34.3924 42.5899 33.4302L41.339 34.5848Z" fill="#0055A7"/>
<path d="M105.683 26.458L110.551 25.2897C110.843 25.1923 111.037 25.2897 111.232 25.5817L114.056 29.6709C114.348 30.1577 115.127 29.963 115.224 29.3788L115.613 24.4134C115.613 24.1213 115.808 23.9266 116.1 23.8292L118.729 23.0504C118.729 22.6609 118.729 22.3688 118.632 21.9794H118.729C118.729 22.3688 118.826 22.6609 118.826 23.0504L120.968 22.3688C121.552 22.1741 121.552 21.3952 121.066 21.2005L116.392 19.3506C116.1 19.2533 116.003 19.0586 116.003 18.7665L116.198 13.7037C116.198 13.1195 115.516 12.8275 115.127 13.3143L111.816 17.2087C111.622 17.4034 111.33 17.5008 111.135 17.4034L106.461 15.6509C105.877 15.4562 105.391 16.0404 105.683 16.5272L108.311 20.9084C108.409 21.1031 108.409 21.3952 108.311 21.5899L105.196 25.4844C104.709 25.8738 105.196 26.5554 105.683 26.458ZM120.774 21.2005C120.774 21.4926 120.774 21.6873 120.774 21.9794C120.579 21.6873 120.579 21.6873 120.774 21.2005ZM115.516 20.1295H115.613C115.613 20.4216 115.613 20.6163 115.613 20.9084C115.516 20.9084 115.516 20.9084 115.419 20.9084C115.419 20.7137 115.419 20.4216 115.516 20.1295ZM115.419 22.2715C115.516 22.2715 115.613 22.3688 115.711 22.3688C115.711 22.5636 115.613 22.7583 115.613 23.0504C115.613 23.0504 115.419 23.0504 115.321 22.953C115.321 22.7583 115.419 22.5636 115.419 22.2715ZM114.542 17.5008C114.64 17.5008 114.64 17.5981 114.737 17.5981C114.737 17.6955 114.737 17.7929 114.64 17.8902C114.542 17.7929 114.542 17.7929 114.445 17.6955C114.445 17.6955 114.445 17.5981 114.542 17.5008ZM113.666 24.7055C113.666 24.8029 113.666 24.9976 113.666 25.0949L113.569 25.1923C113.569 25.0949 113.471 24.9976 113.471 24.8029C113.471 24.8029 113.569 24.8029 113.666 24.7055ZM112.498 17.2087C112.498 17.5008 112.498 17.7929 112.498 18.0849C112.4 18.0849 112.303 18.0849 112.303 18.0849C112.303 17.7929 112.206 17.5008 112.206 17.3061C112.303 17.2087 112.4 17.2087 112.498 17.2087ZM111.622 25.4844C111.524 25.4844 111.524 25.4844 111.427 25.387C111.427 25.1923 111.524 24.9976 111.524 24.9002C111.622 24.9002 111.719 24.9976 111.719 24.9976C111.719 25.0949 111.622 25.2897 111.622 25.4844ZM111.524 20.0322C111.622 20.1295 111.622 20.1295 111.622 20.1295C111.622 20.2269 111.524 20.3243 111.524 20.4216C111.427 20.3243 111.427 20.3243 111.33 20.2269C111.427 20.3243 111.427 20.2269 111.524 20.0322ZM110.356 21.7847C110.453 21.7847 110.453 21.7847 110.551 21.7847C110.551 21.9794 110.551 22.1741 110.551 22.3688C110.453 22.3688 110.356 22.3688 110.356 22.3688C110.356 22.0767 110.356 21.882 110.356 21.7847ZM108.506 20.0322C108.409 20.0322 108.409 20.0322 108.311 19.9348C108.409 19.7401 108.409 19.5454 108.506 19.3506C108.506 19.3506 108.603 19.3506 108.603 19.448C108.603 19.6427 108.506 19.8374 108.506 20.0322ZM108.214 17.6955C108.214 17.5008 108.311 17.3061 108.311 17.1113C108.409 17.1113 108.409 17.2087 108.506 17.2087C108.409 17.4034 108.409 17.5981 108.311 17.7929L108.214 17.6955ZM107.24 25.1923C107.338 25.1923 107.338 25.1923 107.435 25.1923C107.435 25.387 107.435 25.5817 107.435 25.7765H107.338C107.24 25.4844 107.24 25.2897 107.24 25.1923Z" fill="#0055A7"/>
<path d="M140.733 35.2861L138.104 32.9494C138.104 33.2415 138.007 33.5336 138.007 33.8256C137.91 33.8256 137.812 33.8256 137.715 33.8256C137.52 33.4362 137.617 33.0468 137.812 32.7547L137.131 32.0731C137.131 32.1705 137.131 32.2679 137.131 32.3652C137.033 32.3652 136.936 32.3652 136.839 32.2679C136.839 32.0731 136.839 31.8784 136.936 31.7811C136.839 31.5863 136.839 31.3916 136.936 31.2943L137.812 29.055C137.812 28.8602 137.812 28.6655 137.812 28.3734C137.91 28.3734 137.91 28.3734 138.007 28.3734C138.007 28.4708 138.007 28.5682 138.104 28.6655L138.981 26.5236C139.175 25.9394 138.591 25.4526 138.104 25.7447L133.723 28.2761C133.528 28.3734 133.236 28.3734 133.042 28.1787L129.244 24.8684C128.758 24.479 128.076 24.8684 128.271 25.4526L129.147 29.8338L129.244 29.7365C129.342 29.9312 129.342 30.0286 129.342 30.1259C129.342 30.2233 129.244 30.2233 129.147 30.3206V30.5154C129.244 30.8075 129.05 31.0022 128.855 31.1969L124.668 33.8256C124.182 34.1177 124.376 34.8966 124.961 34.994L129.926 35.5781C130.218 35.5781 130.413 35.7729 130.413 36.0649L131.678 40.933C131.873 41.5172 132.555 41.5172 132.847 41.0304L134.891 36.4544C134.989 36.2597 135.281 36.0649 135.476 36.0649L140.538 36.357C140.83 36.357 141.122 35.6755 140.733 35.2861ZM131.192 36.6491C131.192 36.7465 131.289 36.7465 131.289 36.8438C131.289 36.9412 131.192 37.0386 131.192 37.2333C131.094 37.1359 130.997 37.0386 131.094 37.0386C131.094 36.8438 131.094 36.7465 131.192 36.6491ZM131.289 38.9858C131.192 38.9858 131.192 38.8884 131.094 38.8884C131.094 38.7911 131.192 38.6937 131.192 38.5963C131.289 38.5963 131.386 38.6937 131.386 38.6937C131.289 38.7911 131.289 38.8884 131.289 38.9858ZM136.741 27.2051C136.839 27.2051 136.839 27.2051 136.936 27.3025C136.936 27.4972 136.839 27.7893 136.839 27.984C136.741 27.984 136.741 27.984 136.644 27.8866C136.644 27.6919 136.741 27.3998 136.741 27.2051ZM135.183 34.4098C135.086 34.4098 134.989 34.3125 134.989 34.3125C135.086 34.2151 135.086 34.1177 135.183 34.0204C135.183 34.1177 135.281 34.1177 135.281 34.2151C135.183 34.2151 135.183 34.3125 135.183 34.4098ZM135.865 27.984C136.254 28.5682 135.962 28.8602 135.67 28.9576C135.67 28.6655 135.768 28.3734 135.865 27.984ZM135.962 31.0022H135.865C135.865 30.8075 135.962 30.5154 135.962 30.3206C136.06 30.3206 136.06 30.3206 136.157 30.3206C135.962 30.5154 135.962 30.8075 135.962 31.0022ZM137.033 34.7019C137.033 34.7993 136.936 34.8966 136.839 35.0913C136.449 34.1177 136.449 34.1177 137.228 33.6309C137.131 34.1177 137.131 34.4098 137.033 34.7019ZM137.812 35.8702C137.715 35.7729 137.715 35.5781 137.618 35.4808C137.618 35.4808 137.715 35.3834 137.715 35.2861C137.812 35.2861 137.812 35.2861 137.91 35.2861C137.91 35.4808 137.91 35.6755 137.812 35.8702ZM139.954 35.4808C139.954 35.5781 139.759 35.5781 139.759 35.6755C139.759 35.6755 139.662 35.5781 139.662 35.4808C139.662 35.3834 139.759 35.1887 139.857 34.8966C139.857 35.2861 139.954 35.4808 139.954 35.4808Z" fill="#0055A7"/>
<path d="M52.4728 142.383L51.234 144.337L48.5464 142.632C47.8877 143.912 47.9238 145.721 49.8384 147.746L47.4944 148.954C46.1229 147.559 45.56 146.062 45.5735 144.625C44.2094 145.359 42.5663 145.566 40.6424 144.937L40.6895 142.272C43.3532 143.151 45.0818 142.308 46.0307 141.036L43.3588 139.342L44.5976 137.389L47.2851 139.093L48.1275 137.765L50.6432 139.361L49.8008 140.689L52.4728 142.383ZM56.5824 143.193L54.531 146.428L56.3279 147.567L55.0495 149.583L53.2525 148.443L51.2407 151.615L48.725 150.02L54.0667 141.598L56.5824 143.193ZM50.8938 152.162L47.4946 157.522L37.8537 151.407L41.2529 146.048L50.8938 152.162ZM42.4631 149.598L41.591 150.973L46.2943 153.956L47.1664 152.581L42.4631 149.598Z" fill="#000543"/>
<path d="M74.1699 150.728L73.6638 152.966L70.686 152.292C70.6596 153.709 71.3792 155.266 73.5985 156.441L71.761 158.359C70.0262 157.474 69.0075 156.19 68.5553 154.751C67.4798 156.025 65.9433 156.863 63.8328 156.927L62.9353 154.352C65.5879 154.241 66.9674 153.007 67.5818 151.59L64.5137 150.896L65.0199 148.658L74.1699 150.728ZM78.1872 150.915L77.4892 154.002L79.5647 154.471L79.0422 156.781L76.9667 156.312L76.2565 159.452L73.3509 158.795L75.2816 150.258L78.1872 150.915ZM76.13 160.011L75.0728 164.686L66.6085 162.771L66.4738 163.367L75.3351 165.371L74.8453 167.537L63.1145 164.884L64.1921 160.119L72.6383 162.029L72.7566 161.506L64.3104 159.596L64.7962 157.448L76.13 160.011Z" fill="#000543"/>
<path d="M96.5101 151.69L96.8341 162.177L94.0229 162.264L93.9012 158.324L93.1429 158.348L93.2601 162.139L90.5044 162.224L90.1913 152.089L92.947 152.004L93.0698 155.98L93.8281 155.957L93.699 151.777L96.5101 151.69ZM89.8221 153.323L89.8935 155.634L81.7375 155.886L81.6661 153.574L84.2738 153.494L84.2326 152.162L87.1733 152.071L87.2144 153.403L89.8221 153.323ZM85.853 156.074C88.0359 156.025 89.6647 157.215 89.738 158.99C89.7738 160.747 88.2221 162.054 86.0404 162.14C83.9129 162.187 82.2835 160.979 82.2293 159.222C82.1744 157.446 83.7267 156.158 85.853 156.074ZM85.9181 158.182C85.2702 158.184 84.8349 158.475 84.8555 159.141C84.8749 159.769 85.3285 160.07 85.9752 160.032C86.6416 160.03 87.0573 159.702 87.0563 159.073C87.0173 158.407 86.5833 158.143 85.9181 158.182ZM88.9228 163.162C88.9386 164.272 89.3991 165.396 90.6076 166.164C91.747 165.296 92.1737 164.126 92.1593 163.062L92.1536 162.877L95.1127 162.785L95.1184 162.97C95.1659 164.505 95.9491 165.888 98.2584 166.335L96.9757 168.559C95.353 168.165 94.3081 167.299 93.6799 166.143C93.1527 167.354 92.2123 168.373 90.7118 168.938C89.161 168.477 88.1606 167.554 87.5606 166.406C86.9845 167.535 85.9942 168.436 84.4734 168.945L83.0374 166.805C85.2755 166.144 86.0273 164.714 85.9822 163.253L85.9765 163.068L88.9171 162.977L88.9228 163.162Z" fill="#000543"/>
<path d="M103.964 151.751C106.151 151.09 108.338 152.368 109.578 155.119L111.904 154.437L110.229 148.719L113.052 147.892L117.881 164.37L115.058 165.198L112.57 156.71L110.28 157.381C110.886 160.568 109.718 162.964 107.445 163.63C104.906 164.374 102.405 162.619 101.328 158.944C100.267 155.321 101.419 152.477 103.964 151.751ZM104.718 154.326C103.736 154.594 103.379 155.875 104.063 158.142C104.721 160.456 105.703 161.306 106.68 161.02C107.674 160.728 108.006 159.493 107.33 157.185C106.664 154.912 105.707 154.016 104.718 154.326Z" fill="#000543"/>
<path d="M135.752 150.511L136.989 152.575L123.579 160.614L122.342 158.551L125.119 156.886L123.093 153.506C121.614 153.432 120.366 152.789 119.612 151.515C118.141 149.097 119.567 146.041 122.798 144.126C125.978 142.197 129.376 142.36 130.832 144.788C131.584 146.042 131.566 147.434 130.945 148.755L132.991 152.167L135.752 150.511ZM123.987 146.109C122.073 147.235 121.327 148.653 122.136 150.002C122.925 151.319 124.556 151.377 126.461 150.235C128.333 149.113 129.083 147.628 128.309 146.301C127.484 144.962 125.85 144.971 123.987 146.109ZM127.643 155.373L130.436 153.699L128.961 151.239C128.559 151.577 128.115 151.897 127.631 152.187C127.147 152.478 126.655 152.719 126.168 152.914L127.643 155.373Z" fill="#000543"/>
<path d="M136.109 136.092L141.906 143.286L139.707 145.185L133.42 138.414L136.109 136.092ZM143.653 147.547C142.897 148.2 141.761 148.129 141.122 147.361C140.467 146.631 140.563 145.497 141.319 144.844C142.033 144.227 143.198 144.273 143.839 145.015C144.492 145.771 144.367 146.93 143.653 147.547Z" fill="#000543"/>
<path d="M77.7115 54.1805C79.3693 54.1805 80.7131 51.978 80.7131 49.2611C80.7131 46.5442 79.3693 44.3417 77.7115 44.3417C76.0538 44.3417 74.71 46.5442 74.71 49.2611C74.71 51.978 76.0538 54.1805 77.7115 54.1805Z" fill="#000543"/>
<path d="M101.461 54.1805C103.119 54.1805 104.463 51.978 104.463 49.2611C104.463 46.5442 103.119 44.3417 101.461 44.3417C99.8033 44.3417 98.4595 46.5442 98.4595 49.2611C98.4595 51.978 99.8033 54.1805 101.461 54.1805Z" fill="#000543"/>
<path d="M72.0493 62.2233C72.0493 62.2233 88.4365 59.9887 107.93 62.2233C107.93 62.2233 108.554 75.4406 89.9931 75.4406C71.4319 75.4406 72.0559 62.2233 72.0559 62.2233H72.0493Z" fill="#5B0600"/>
<mask id="mask0_609_1636" style="mask-type:luminance" maskUnits="userSpaceOnUse" x="72" y="61" width="36" height="15">
<path d="M72.0493 62.2233C72.0493 62.2233 88.4365 59.9887 107.93 62.2233C107.93 62.2233 108.554 75.4406 89.9931 75.4406C71.4319 75.4406 72.0559 62.2233 72.0559 62.2233H72.0493Z" fill="white"/>
</mask>
<g mask="url(#mask0_609_1636)">
<path d="M89.9937 81.9487C98.402 81.9487 105.218 79.0349 105.218 75.4406C105.218 71.8463 98.402 68.9325 89.9937 68.9325C81.5853 68.9325 74.769 71.8463 74.769 75.4406C74.769 79.0349 81.5853 81.9487 89.9937 81.9487Z" fill="#8E1112"/>
</g>
<g filter="url(#filter0_f_609_1636)">
<path d="M66.0751 62.2826C69.2124 62.2826 71.7556 59.7393 71.7556 56.6021C71.7556 53.4648 69.2124 50.9215 66.0751 50.9215C62.9378 50.9215 60.3945 53.4648 60.3945 56.6021C60.3945 59.7393 62.9378 62.2826 66.0751 62.2826Z" fill="#FDCCD0"/>
</g>
<g filter="url(#filter1_f_609_1636)">
<path d="M113.925 62.2826C117.062 62.2826 119.605 59.7393 119.605 56.6021C119.605 53.4648 117.062 50.9215 113.925 50.9215C110.787 50.9215 108.244 53.4648 108.244 56.6021C108.244 59.7393 110.787 62.2826 113.925 62.2826Z" fill="#FDCCD0"/>
</g>
<rect x="63.2632" y="118.5" width="54.6579" height="17.9474" rx="8.97368" fill="white" stroke="#000543"/>
<path d="M96.7741 128.198C94.6283 128.198 93.1362 126.706 93.1362 124.66C93.1362 123.964 93.2925 123.338 93.6194 122.813C94.2589 121.747 95.4241 121.122 96.7741 121.122C97.442 121.122 98.0531 121.264 98.6073 121.562C99.7299 122.173 100.398 123.296 100.398 124.66C100.398 126.692 98.8915 128.198 96.7741 128.198ZM94.9836 124.66C94.9836 125.754 95.7083 126.493 96.7741 126.493C97.8115 126.493 98.5504 125.74 98.5504 124.66C98.5504 123.58 97.8115 122.827 96.7741 122.827C95.7083 122.827 94.9836 123.58 94.9836 124.66ZM95.2678 130.827V130.259C95.2678 129.733 95.6373 129.406 96.1915 129.406H96.2625C96.8168 129.406 97.1862 129.733 97.1862 130.259V130.771C97.1862 132.049 98.0673 132.689 99.8152 132.689C100.881 132.689 101.861 132.504 102.757 132.149C102.899 132.092 103.041 132.064 103.169 132.064C103.638 132.064 103.979 132.447 103.979 132.945C103.979 133.314 103.737 133.598 103.268 133.783C102.217 134.195 101.066 134.394 99.8152 134.394C96.8594 134.394 95.2678 133.115 95.2678 130.827ZM102.046 129.236V121.633C102.046 121.107 102.416 120.781 102.97 120.781H103.041C103.595 120.781 103.965 121.107 103.965 121.633V129.236C103.965 129.762 103.595 130.088 103.041 130.088H102.97C102.416 130.088 102.046 129.762 102.046 129.236Z" fill="#000543"/>
<path d="M80.2375 129.463C79.6833 129.463 79.3565 129.179 79.3423 128.653C79.3423 128.142 79.6691 127.829 80.2233 127.829H82.5681V126.976C81.3033 126.763 80.5502 126.067 80.5502 125.001C80.5502 124.759 80.607 124.532 80.7349 124.319H80.337C79.7686 124.319 79.456 124.049 79.456 123.537C79.456 123.026 79.7686 122.742 80.337 122.742H86.3907C86.9591 122.742 87.2718 123.026 87.2718 123.537C87.2718 124.049 86.9591 124.319 86.3907 124.319H86.0639C86.1918 124.532 86.2486 124.759 86.2486 125.001C86.2486 126.01 85.5523 126.706 84.4154 126.948V127.815C85.2823 127.758 85.9928 127.673 86.5186 127.545C86.6465 127.516 86.7602 127.502 86.8597 127.502C87.2575 127.502 87.5133 127.701 87.6128 128.085C87.627 128.156 87.6412 128.241 87.6412 128.326C87.6412 128.724 87.3997 129.023 86.9591 129.122C85.8365 129.392 84.8702 129.463 83.3781 129.463H80.2375ZM80.5786 121.207C80.5786 120.994 80.6354 120.823 80.7491 120.681C80.9054 120.468 81.1044 120.368 81.346 120.368C81.5023 120.368 81.6586 120.411 81.8149 120.496L82.0139 120.596C82.1418 120.667 82.426 120.695 82.8665 120.695H85.2112C85.7654 120.695 86.0781 120.994 86.0781 121.505C86.0781 122.017 85.7654 122.273 85.197 122.273H83.0939C81.957 122.273 81.5591 122.244 81.1044 121.96L80.9339 121.861C80.6923 121.733 80.5786 121.519 80.5786 121.207ZM81.7012 131.026C81.7012 130.501 82.0281 130.174 82.5823 130.174H88.9628C89.6449 130.174 90.1281 130.671 90.1281 131.367V133.641C90.1281 134.209 89.787 134.536 89.2328 134.536H89.176C88.6218 134.536 88.2807 134.209 88.2807 133.641V132.049C88.2807 131.95 88.1954 131.879 88.096 131.879H82.5823C82.0281 131.879 81.7012 131.552 81.7012 131.026ZM82.3975 124.916C82.3975 125.271 82.767 125.498 83.4065 125.498C84.0175 125.498 84.4012 125.257 84.4012 124.916C84.4012 124.575 84.0175 124.333 83.4065 124.333C82.7812 124.333 82.3975 124.575 82.3975 124.916ZM88.2381 128.738V121.633C88.2381 121.107 88.6075 120.781 89.1618 120.781H89.2328C89.787 120.781 90.1565 121.107 90.1565 121.633V123.779H91.2507C91.8049 123.779 92.1318 124.106 92.1318 124.632C92.1318 125.157 91.8049 125.484 91.2507 125.484H90.1565V128.738C90.1565 129.264 89.787 129.591 89.2328 129.591H89.1618C88.6075 129.591 88.2381 129.264 88.2381 128.738Z" fill="#000543"/>
<defs>
<filter id="filter0_f_609_1636" x="56.3945" y="46.9215" width="19.3613" height="19.3611" filterUnits="userSpaceOnUse" color-interpolation-filters="sRGB">
<feFlood flood-opacity="0" result="BackgroundImageFix"/>
<feBlend mode="normal" in="SourceGraphic" in2="BackgroundImageFix" result="shape"/>
<feGaussianBlur stdDeviation="2" result="effect1_foregroundBlur_609_1636"/>
</filter>
<filter id="filter1_f_609_1636" x="104.244" y="46.9215" width="19.3613" height="19.3611" filterUnits="userSpaceOnUse" color-interpolation-filters="sRGB">
<feFlood flood-opacity="0" result="BackgroundImageFix"/>
<feBlend mode="normal" in="SourceGraphic" in2="BackgroundImageFix" result="shape"/>
<feGaussianBlur stdDeviation="2" result="effect1_foregroundBlur_609_1636"/>
</filter>
</defs>
</svg>
