<svg width="93" height="77" viewBox="0 0 93 77" fill="none" xmlns="http://www.w3.org/2000/svg">
<path d="M74.0496 62.4984C73.0315 60.9906 71.7733 59.6804 70.5593 58.3447C69.5005 57.1752 68.6303 55.9067 67.507 54.7449C64.9619 52.0919 62.4511 49.3109 60.0326 46.6045C59.8691 46.4234 59.6876 46.2626 59.4999 46.1249C59.8784 46.3885 62.6103 40.197 62.7895 39.6212C63.5032 37.33 63.8476 34.9273 63.8179 32.5241C63.7774 30.0682 63.3247 27.6141 62.4985 25.2969C62.0854 24.1383 61.5006 23.1084 60.9547 22.0265C60.3576 20.856 60.0129 19.6285 59.0259 18.7028C55.6393 15.5125 52.2335 12.7661 47.6842 11.4473C43.3096 10.1753 38.5646 10.2387 34.2433 11.7006C30.3188 13.0317 27.4945 15.3313 24.6657 18.2534C24.4069 18.5209 24.145 18.8 23.8745 19.0644C20.8016 22.2454 19.2787 27.4636 19.0709 31.824C18.8442 36.4413 20.0697 41.086 22.5706 44.9747C23.9148 47.0813 25.3734 49.5056 27.6742 50.6959C29.8679 51.8202 31.7407 53.2576 34.1266 54.084C38.7182 55.6636 43.7829 55.7108 48.403 54.2043C49.8636 53.7349 51.2685 53.1009 52.5968 52.334C52.716 52.5407 52.8501 52.7387 53.0136 52.9198C53.6467 53.1643 54.6532 54.669 55.1206 55.2059C55.912 56.1165 56.6024 57.1249 57.3643 58.0526C59.2664 60.3586 61.466 62.3452 63.4342 64.5442C64.3349 65.559 65.2388 66.5621 66.1511 67.5801C66.4124 67.8621 66.6852 68.1473 66.9201 68.4348C67.8277 69.5637 69.034 70.1364 70.387 70.6736C70.8254 70.8534 71.2963 71.0046 71.7675 70.9687C72.2007 70.935 72.6045 70.7314 72.9937 70.5363C73.9047 70.0693 74.8376 69.5209 75.361 68.6382C75.9296 67.6802 75.9062 66.4639 75.5527 65.4086C75.2078 64.3681 74.692 63.4066 74.0876 62.4961L74.0496 62.4984ZM53.3973 46.2737C45.8298 53.0532 34.2015 52.4075 27.422 44.84C20.6424 37.2725 21.2881 25.6442 28.8556 18.8646C36.4232 12.0851 48.0514 12.7308 54.831 20.2983C61.6106 27.8658 60.9648 39.4941 53.3973 46.2737Z" fill="#456184"/>
<path d="M54.57 45.1052C61.4966 37.6695 61.0839 26.0265 53.6482 19.0999C46.2125 12.1733 34.5695 12.5859 27.6429 20.0216C20.7162 27.4574 21.1289 39.1004 28.5646 46.027C36.0003 52.9536 47.6433 52.5409 54.57 45.1052Z" fill="white"/>
<path d="M44.0143 45.5809C43.8224 45.6917 43.619 45.7994 43.4069 45.8923C43.3068 45.9403 43.2097 45.9766 43.101 46.0099C43.0334 46.0292 42.9659 46.0485 42.91 46.071C42.6925 46.1375 42.4697 46.1776 42.2469 46.2176C42.1297 46.2361 42.0241 46.2577 41.91 46.2646C41.8572 46.2754 41.7959 46.2714 41.7431 46.2822C41.7431 46.2822 41.7198 46.276 41.705 46.2845C41.6818 46.2783 41.6639 46.2984 41.6406 46.2922C41.4442 46.3269 41.2052 46.2878 41.0181 46.2876C40.7581 46.2803 40.5012 46.2613 40.2443 46.2424C40.1364 46.226 40.0138 46.2181 39.8943 46.1985C39.8361 46.1829 39.6149 46.1237 39.559 46.1461C39.5125 46.1336 39.4775 46.1243 39.431 46.1118C39.303 46.0775 39.1749 46.0432 39.0554 46.0237C38.6015 45.902 38.1475 45.7804 37.7061 45.6122C37.5028 45.5328 37.3112 45.4565 37.1079 45.3771C37.0063 45.3374 36.9194 45.2891 36.8178 45.2494C36.7945 45.2432 36.7479 45.2307 36.7247 45.2245C36.7363 45.2276 36.7479 45.2307 36.7712 45.237C36.9574 45.2869 36.7045 45.2066 36.6611 45.1825C35.8667 44.795 35.1089 44.3175 34.39 43.788C34.2256 43.6567 34.0496 43.5222 33.8852 43.3908C33.8534 43.3698 33.8247 43.3372 33.8046 43.3193C33.7154 43.233 33.6231 43.1584 33.5308 43.0838C33.1998 42.783 32.8749 42.4589 32.5648 42.1264C32.2664 41.7969 31.9796 41.4705 31.7107 41.124C31.5704 40.9492 31.4332 40.7628 31.3077 40.5794C31.2875 40.5616 31.2705 40.532 31.2651 40.5056L31.2194 40.4435C31.2194 40.4435 31.1853 40.3845 31.1884 40.3728C31.1427 40.3107 31.0939 40.2602 31.0683 40.2159C30.5841 39.4624 30.1589 38.6748 29.8191 37.8478C29.7348 37.6505 29.662 37.4564 29.5776 37.2591C29.5413 37.162 29.5049 37.065 29.4771 36.9827C29.4546 36.9268 29.4322 36.8708 29.4245 36.8064C29.2915 36.3716 29.1702 35.9399 29.0752 35.5028C28.9695 35.0128 28.8785 34.5144 28.8255 34.0137C28.807 33.8965 28.8033 33.7707 28.7965 33.6566C28.7973 33.6069 28.7944 33.4315 28.7942 33.6186C28.7939 33.8056 28.7919 33.5805 28.7927 33.5309C28.7767 33.2646 28.7724 33.0015 28.7712 32.7267C28.7741 32.2036 28.8066 31.6634 28.8825 31.1473C28.8825 31.1473 28.8887 31.124 28.8919 31.1124C28.9012 31.0774 28.9293 30.9727 28.9239 30.9463C28.9644 30.795 29.0018 30.6553 29.0424 30.504C29.0517 30.4691 29.0923 30.3178 29.1351 30.2045C29.1351 30.2045 29.1445 30.1696 29.1833 30.1176C29.2284 30.0424 29.2767 29.9555 29.3218 29.8803C29.6523 29.3451 29.5314 28.5392 28.9582 28.211C28.4083 27.889 27.6436 27.996 27.2889 28.5746C26.6395 29.6481 26.4316 30.8897 26.3758 32.1223C26.3295 33.1328 26.3997 34.1746 26.5553 35.1768C26.8704 37.12 27.5659 39.0404 28.5574 40.7407C30.5947 44.2182 33.8444 47.035 37.7325 48.2141C40.1114 48.9264 42.8683 49.0663 45.0852 47.7765C45.6312 47.4613 45.9588 46.7507 45.6328 46.1518C45.3291 45.6089 44.5984 45.2634 44.0081 45.6042L44.0143 45.5809ZM29.1958 30.0711C29.1958 30.0711 29.1445 30.1696 29.1266 30.1897C29.1453 30.1199 29.1725 30.0648 29.1958 30.0711Z" fill="#456184"/>
<path d="M31.2766 40.5087C31.2434 40.4 31.2031 40.3643 31.1999 40.3759C31.2255 40.4202 31.2627 40.4676 31.2766 40.5087Z" fill="#456184"/>
<path d="M48.4901 44.8466C48.0304 44.3741 47.2892 44.3003 46.7818 44.7506C46.3071 45.1723 46.2261 45.9865 46.6859 46.4589C47.1456 46.9314 47.8868 47.0053 48.3942 46.5549C48.8689 46.1332 48.9499 45.3191 48.4901 44.8466Z" fill="#456184"/>
<path d="M65.0747 22.7564C64.3458 22.1245 63.368 23.2596 64.0969 23.8916C67.4675 26.8157 68.6863 31.8578 66.9683 35.9882C66.5939 36.8734 67.939 37.5332 68.3165 36.6364C70.2907 31.876 68.9726 26.1336 65.0778 22.7447L65.0747 22.7564Z" fill="#456184"/>
<path d="M68.87 20.2802C68.2095 19.5793 67.2433 20.7176 67.8922 21.4154C71.8286 25.6263 73.0496 32.1036 70.963 37.4701C70.6119 38.3615 71.957 39.0213 72.3112 38.1183C74.6665 32.0753 73.2886 25.0195 68.87 20.2802Z" fill="#456184"/>
<path d="M13.7337 23.6202C11.9395 26.5451 12.0358 30.3757 13.8991 33.2452C14.4174 34.0578 15.665 33.2194 15.1436 32.4185C13.5452 29.9568 13.5521 26.7651 15.0788 24.28C15.5866 23.4555 14.2384 22.8073 13.7305 23.6318L13.7337 23.6202Z" fill="#456184"/>
<path d="M9.25676 24.4539C8.17095 26.9699 8.29645 29.7604 9.55643 32.1814C10.0009 33.0365 11.2369 32.195 10.8009 31.3546C9.7957 29.4261 9.7325 27.1013 10.6019 25.1138C10.9879 24.2317 9.64281 23.5719 9.25364 24.4656L9.25676 24.4539Z" fill="#456184"/>
<path d="M65.0481 52.0027C65.0481 52.0027 64.9549 51.9778 64.9084 51.9653C63.7683 51.7971 62.5152 54.0062 61.791 54.6604C60.5089 55.8139 59.2098 56.9378 57.9106 58.0617C57.2789 58.6036 57.6412 58.7879 58.0776 59.2542C58.4079 59.6047 58.7466 59.9699 59.0769 60.3203C60.0475 61.3538 61.0149 62.399 61.9738 63.4294C64.1847 65.7932 66.3925 68.1687 68.6034 70.5325C69.7173 71.7292 70.786 73.1882 72.0546 74.2267C72.9944 75.0025 74.4714 75.1238 75.6825 74.8869C78.014 74.4263 80.1931 71.5547 79.4532 69.1484C79.1926 68.3051 78.6462 67.5973 78.1084 66.9043C75.2811 63.3025 72.3032 59.7975 69.2032 56.422C68.4513 55.5967 67.6846 54.78 66.9148 53.975C66.5155 53.5561 65.678 52.2589 65.0481 52.0027Z" fill="#2F4156"/>
</svg>
