<svg width="74" height="102" viewBox="0 0 74 102" fill="none" xmlns="http://www.w3.org/2000/svg">
<g clip-path="url(#clip0_609_1534)">
<path d="M6.31861 64.4247C4.64167 71.3191 2.9951 78.2273 1.38175 85.1387C1.30297 85.4751 1.22769 85.8409 1.37829 86.1479C1.71157 86.8331 2.72741 86.6457 3.43768 86.3479C9.14384 83.961 14.9522 81.5106 19.6828 77.5286C21.9867 75.5864 23.9913 73.32 25.9824 71.0613C40.3163 54.8119 54.6597 38.5479 67.8142 21.5909M6.31861 64.4247C8.95121 60.3232 17.45 50.291 23.6373 43.4587C29.1897 37.3229 34.5776 31.0574 39.9504 24.8096C44.5567 19.453 49.1519 14.1093 53.8301 8.87136M6.31861 64.4247L7.29028 64.6611C7.27692 64.716 7.26356 64.7709 7.25021 64.8258M6.31861 64.4247L7.16017 64.9649C7.18943 64.9193 7.21945 64.8729 7.25021 64.8258M53.8301 8.87136C57.0033 8.51846 60.6961 9.72362 63.3874 12.1019C66.0786 14.4802 67.7195 18.0015 67.8142 21.5909M53.8301 8.87136L54.576 9.5375C54.4884 9.63561 54.4008 9.73376 54.3132 9.83194M53.8301 8.87136L53.9407 9.86523C54.0639 9.85153 54.1881 9.84044 54.3132 9.83194M67.8142 21.5909L66.8145 21.6173C66.8115 21.5003 66.8066 21.3834 66.8 21.2666M67.8142 21.5909L67.0241 20.9779C66.9494 21.0742 66.8747 21.1704 66.8 21.2666M66.8 21.2666C53.7292 38.0906 39.4884 54.2387 25.2325 70.3998L25.2323 70.4001C23.2339 72.6669 21.2766 74.8771 19.0385 76.7638M66.8 21.2666C66.6187 18.0759 65.1205 14.968 62.7252 12.8512C60.3343 10.7384 57.1015 9.64244 54.3132 9.83194M19.0385 76.7638C14.4441 80.6311 8.78137 83.0286 3.05177 85.4254L3.05106 85.4257C2.77667 85.5407 2.50071 85.6097 2.30338 85.6161M19.0385 76.7638C19.0384 76.7639 19.0383 76.764 19.0383 76.764L19.6825 77.5283L19.0388 76.7636C19.0387 76.7637 19.0386 76.7637 19.0385 76.7638ZM54.3132 9.83194C49.7323 14.9682 45.2289 20.205 40.7079 25.4624C40.3249 25.9077 39.9418 26.3532 39.5585 26.7988C34.5665 32.6024 29.5446 38.4211 24.3788 44.1297L24.3785 44.13C18.2523 50.8948 9.9318 60.7188 7.25021 64.8258M7.25021 64.8258C5.58783 71.6625 3.95536 78.5127 2.35557 85.366L2.35541 85.3667C2.33019 85.4744 2.31341 85.5535 2.30338 85.6161M2.30338 85.6161C2.29752 85.6527 2.29396 85.6837 2.29237 85.7115C2.29063 85.7419 2.29232 85.7545 2.29235 85.7545C2.29238 85.7545 2.29014 85.7371 2.27754 85.7106C2.27734 85.7101 2.27714 85.7097 2.27694 85.7093C2.27667 85.7088 2.27639 85.7082 2.27611 85.7077C2.25526 85.667 2.21305 85.6277 2.17633 85.61C2.17164 85.6077 2.16913 85.6068 2.16915 85.6067C2.16921 85.6065 2.19845 85.6162 2.27066 85.6165C2.28131 85.6166 2.29222 85.6164 2.30338 85.6161ZM2.27613 85.7076L2.27683 85.7091L2.27613 85.7076Z" fill="#D2D9FF" stroke="#456184" stroke-width="2"/>
<path d="M1.38407 86.1494C1.23348 85.8423 1.31017 85.4712 1.38754 85.1401C1.68282 83.8685 1.99012 82.5945 2.28539 81.3229C3.19892 81.6869 3.99798 82.372 4.59019 83.172C5.08604 83.844 5.45955 84.5911 5.77932 85.3691C4.99799 85.6989 4.21666 86.0287 3.43675 86.3532C2.7332 86.6471 1.71594 86.8398 1.37736 86.1532L1.38407 86.1494Z" fill="#37384A"/>
<path d="M54.337 15.3532L54.3349 15.3517C53.2384 14.5737 52.1146 13.9144 50.9807 13.6008C47.5732 17.482 44.1872 21.4189 40.7913 25.3675C35.3882 31.6498 29.9599 37.9615 24.3799 44.1245C18.5081 50.612 10.6244 59.8984 7.61654 64.2764C12.535 67.1889 16.6984 71.3502 19.6367 76.2461C21.5728 74.5286 23.3121 72.5771 25.077 70.5759L25.0785 70.5705L25.2337 70.3945C38.2205 55.6714 51.19 40.9603 63.2774 25.7372C61.3753 21.6103 58.1358 18.0338 54.337 15.3532Z" fill="white" stroke="#456184" stroke-width="2"/>
<path d="M35.7199 50.578C38.842 46.812 42.0303 42.9048 43.4125 38.2128C43.6142 37.5235 43.7193 36.6436 43.1437 36.2056C42.9033 36.022 42.5941 35.9675 42.2923 35.9491C40.3406 35.8347 38.5848 37.0668 37.1102 38.3516C32.8499 42.0623 29.4071 46.7072 27.099 51.8661C26.6056 52.9654 26.1582 54.1054 26.0464 55.307C25.96 56.1805 26.2766 57.3096 27.1455 57.3949C27.5335 57.4307 27.8973 57.2388 28.2346 57.0397C31.3902 55.1838 34.0644 52.5804 35.7199 50.578Z" fill="#FBDC81"/>
<path d="M43.7226 20.4361C43.8542 20.284 43.9791 20.1359 44.1107 19.9839C47.4535 21.0328 50.5907 23.0822 53.2521 25.9746C55.162 28.0471 56.8445 30.5864 58.2686 33.5388C58.1422 33.6922 58.0159 33.8457 57.8882 34.0044C56.461 31 54.775 28.4314 52.8521 26.3442C50.1893 23.4571 47.057 21.4317 43.7226 20.4361ZM39.8878 24.8908C46.0313 27.6549 51.0631 32.851 53.7284 39.036C53.5953 39.1933 53.469 39.3468 53.336 39.5041C50.7327 33.2789 45.6881 28.0454 39.5174 25.3193C39.6408 25.1764 39.7643 25.0336 39.8878 24.8908ZM10.0151 59.4277C10.1266 59.2873 10.2381 59.1469 10.3509 59.0013C15.8591 62.8437 20.2953 68.1639 23.0977 74.2609C22.9636 74.4009 22.8296 74.5409 22.6955 74.6809C19.933 68.5833 15.5155 63.2567 10.0151 59.4277ZM13.7048 54.9001C13.8297 54.7519 13.956 54.5985 14.0809 54.4503C17.21 55.3853 20.2414 57.2361 22.8476 59.847C25.0284 62.0317 26.9207 64.6783 28.6656 68.0232C28.5354 68.1699 28.4119 68.3127 28.2817 68.4595C26.5361 65.0747 24.6481 62.4122 22.462 60.226C19.8544 57.6205 16.8241 55.7869 13.6995 54.8986L13.7048 54.9001Z" fill="#456184"/>
</g>
<defs>
<clipPath id="clip0_609_1534">
<rect width="51.4454" height="91.1116" fill="white" transform="matrix(0.965926 0.258819 0.258819 -0.965926 0 88.007)"/>
</clipPath>
</defs>
</svg>
