<svg width="56" height="57" viewBox="0 0 56 57" fill="none" xmlns="http://www.w3.org/2000/svg">
<rect y="0.896729" width="56" height="56" rx="28" fill="#333333"/>
<mask id="mask0_609_1091" style="mask-type:alpha" maskUnits="userSpaceOnUse" x="12" y="12" width="32" height="33">
<rect x="12" y="12.8967" width="32" height="32" fill="#D9D9D9"/>
</mask>
<g mask="url(#mask0_609_1091)">
<path d="M36 42.2301C34.8889 42.2301 33.9444 41.8413 33.1667 41.0635C32.3889 40.2857 32 39.3413 32 38.2301C32 38.0746 32.0111 37.9135 32.0333 37.7468C32.0556 37.5801 32.0889 37.4301 32.1333 37.2968L22.7333 31.8301C22.3556 32.1635 21.9333 32.4246 21.4667 32.6135C21 32.8024 20.5111 32.8968 20 32.8968C18.8889 32.8968 17.9444 32.5079 17.1667 31.7301C16.3889 30.9524 16 30.0079 16 28.8968C16 27.7857 16.3889 26.8413 17.1667 26.0635C17.9444 25.2857 18.8889 24.8968 20 24.8968C20.5111 24.8968 21 24.9913 21.4667 25.1801C21.9333 25.369 22.3556 25.6301 22.7333 25.9635L32.1333 20.4968C32.0889 20.3635 32.0556 20.2135 32.0333 20.0468C32.0111 19.8801 32 19.719 32 19.5635C32 18.4524 32.3889 17.5079 33.1667 16.7301C33.9444 15.9524 34.8889 15.5635 36 15.5635C37.1111 15.5635 38.0556 15.9524 38.8333 16.7301C39.6111 17.5079 40 18.4524 40 19.5635C40 20.6746 39.6111 21.619 38.8333 22.3968C38.0556 23.1746 37.1111 23.5635 36 23.5635C35.4889 23.5635 35 23.469 34.5333 23.2801C34.0667 23.0913 33.6444 22.8301 33.2667 22.4968L23.8667 27.9635C23.9111 28.0968 23.9444 28.2468 23.9667 28.4135C23.9889 28.5801 24 28.7413 24 28.8968C24 29.0524 23.9889 29.2135 23.9667 29.3801C23.9444 29.5468 23.9111 29.6968 23.8667 29.8301L33.2667 35.2968C33.6444 34.9635 34.0667 34.7024 34.5333 34.5135C35 34.3246 35.4889 34.2301 36 34.2301C37.1111 34.2301 38.0556 34.619 38.8333 35.3968C39.6111 36.1746 40 37.119 40 38.2301C40 39.3413 39.6111 40.2857 38.8333 41.0635C38.0556 41.8413 37.1111 42.2301 36 42.2301ZM36 20.8968C36.3778 20.8968 36.6944 20.769 36.95 20.5135C37.2056 20.2579 37.3333 19.9413 37.3333 19.5635C37.3333 19.1857 37.2056 18.869 36.95 18.6135C36.6944 18.3579 36.3778 18.2301 36 18.2301C35.6222 18.2301 35.3056 18.3579 35.05 18.6135C34.7944 18.869 34.6667 19.1857 34.6667 19.5635C34.6667 19.9413 34.7944 20.2579 35.05 20.5135C35.3056 20.769 35.6222 20.8968 36 20.8968ZM20 30.2301C20.3778 30.2301 20.6944 30.1024 20.95 29.8468C21.2056 29.5913 21.3333 29.2746 21.3333 28.8968C21.3333 28.519 21.2056 28.2024 20.95 27.9468C20.6944 27.6913 20.3778 27.5635 20 27.5635C19.6222 27.5635 19.3056 27.6913 19.05 27.9468C18.7944 28.2024 18.6667 28.519 18.6667 28.8968C18.6667 29.2746 18.7944 29.5913 19.05 29.8468C19.3056 30.1024 19.6222 30.2301 20 30.2301ZM36 39.5635C36.3778 39.5635 36.6944 39.4357 36.95 39.1801C37.2056 38.9246 37.3333 38.6079 37.3333 38.2301C37.3333 37.8524 37.2056 37.5357 36.95 37.2801C36.6944 37.0246 36.3778 36.8968 36 36.8968C35.6222 36.8968 35.3056 37.0246 35.05 37.2801C34.7944 37.5357 34.6667 37.8524 34.6667 38.2301C34.6667 38.6079 34.7944 38.9246 35.05 39.1801C35.3056 39.4357 35.6222 39.5635 36 39.5635Z" fill="white"/>
</g>
</svg>
