<svg width="206" height="40" viewBox="0 0 206 40" fill="none" xmlns="http://www.w3.org/2000/svg">
<g clip-path="url(#clip0_609_747)">
<path d="M97.8167 30.4382C100.149 30.3087 102.611 30.0495 104.814 29.7904L105.333 34.4548C100.538 35.1027 94.5772 35.4914 90.3009 35.4914H85.7655L85.5063 30.6974H90.8192C91.3376 30.6974 91.9855 30.6974 92.6334 30.6974V27.0695C89.0051 26.2921 86.4134 23.4416 86.4134 18.518V18.1293C86.4134 12.0396 90.3009 9.31863 95.0955 9.31863C99.89 9.31863 103.778 12.0396 103.778 18.1293V18.518C103.778 23.312 101.315 26.0329 97.8167 26.9399V30.4382ZM91.5967 18.3884C91.5967 21.2389 93.2813 22.5346 95.0955 22.5346C96.9096 22.5346 98.5942 21.3685 98.5942 18.3884V17.9997C98.5942 15.1492 96.9096 13.8535 95.0955 13.8535C93.2813 13.8535 91.5967 15.0196 91.5967 17.9997V18.3884ZM115.829 19.4249V24.219H111.941V39.8967H106.758V8.02295H111.941V19.4249H115.829Z" fill="#0055A7"/>
<path d="M117.384 24.9964V20.0728C117.384 12.1691 121.271 9.18906 126.195 9.18906C130.99 9.18906 134.877 12.1691 134.877 20.0728V24.9964C134.877 32.9 130.99 35.8801 126.195 35.8801C121.271 35.8801 117.384 32.9 117.384 24.9964ZM129.694 24.9964V20.0728C129.694 15.2788 128.01 13.9831 126.195 13.9831C124.381 13.9831 122.567 15.2788 122.567 20.0728V24.9964C122.567 29.7904 124.252 31.0861 126.195 31.0861C128.139 31.0861 129.694 29.7904 129.694 24.9964ZM138.765 8.02295H143.948V39.8967H138.765V8.02295Z" fill="#0055A7"/>
<path d="M159.498 17.611V9.70733H164.552V34.9731H148.225V9.70733H153.278V17.611H159.498ZM153.278 30.1791H159.498V22.405H153.278V30.1791ZM169.217 8.02295H174.4V39.8967H169.217V8.02295Z" fill="#0055A7"/>
<path d="M191.505 18.7771C190.857 22.5346 188.136 24.4781 184.767 24.4781C180.749 24.4781 177.769 21.8867 177.769 16.5744V16.1857C177.769 10.8734 180.749 8.28209 184.767 8.28209C188.265 8.28209 190.857 10.2256 191.505 14.1126H193.837V8.28209H198.502V25.1259H193.837V18.7771H191.505ZM182.564 16.5744C182.564 18.7771 183.6 19.9432 184.767 19.9432C185.933 19.9432 186.969 18.7771 186.969 16.5744V16.3153C186.969 14.1126 185.933 12.9465 184.767 12.9465C183.6 12.9465 182.564 14.1126 182.564 16.3153V16.5744ZM183.341 26.6808H205.37V39.8967H183.341V26.6808ZM188.524 35.1027H200.187V31.2156H188.524V35.1027ZM200.576 8.02295H205.5V25.1259H200.576V8.02295Z" fill="#0055A7"/>
<path d="M62.9589 7.76389V39.8968H55.3135V1.15591C55.3135 0.896777 55.8318 0.767209 55.9614 0.896777L62.9589 7.76389Z" fill="#0055A7"/>
<path d="M0.5 12.9466V0.896729H8.14539V19.425C8.14539 19.6841 7.75664 19.8137 7.49747 19.5545L0.5 12.9466Z" fill="#E83844"/>
<path d="M19.1597 33.0296V0.896729H11.3848V39.508C11.3848 39.7672 11.9031 39.8967 12.1623 39.7672L19.1597 33.0296Z" fill="#E83844"/>
<path d="M30.0448 0.896729H22.3994V39.8967H30.0448V0.896729Z" fill="#E83844"/>
<path d="M34.062 1.02626C33.8028 0.767125 33.4141 0.896693 33.4141 1.15583V19.4249C33.4141 19.6841 33.9324 19.8136 34.062 19.5545L41.0594 12.817V7.63423L34.062 1.02626Z" fill="#E83844"/>
<path d="M34.062 21.1093C33.8028 20.8502 33.4141 20.9797 33.4141 21.3684V39.6375C33.4141 39.8967 33.9324 40.0262 34.062 39.7671L41.0594 33.0296V27.8468L34.062 21.1093Z" fill="#E83844"/>
<path d="M51.9442 7.76389V39.8968H44.2988V1.15591C44.2988 0.896777 44.6876 0.767209 44.9467 0.896777L51.9442 7.76389Z" fill="#0055A7"/>
<path d="M73.8436 7.76389V39.8968H66.1982V1.15591C66.1982 0.896777 66.7166 0.767209 66.8462 0.896777L73.8436 7.76389Z" fill="#0055A7"/>
</g>
<defs>
<clipPath id="clip0_609_747">
<rect width="205" height="39" fill="white" transform="translate(0.5 0.896729)"/>
</clipPath>
</defs>
</svg>
