<svg width="159" height="31" viewBox="0 0 159 31" fill="none" xmlns="http://www.w3.org/2000/svg">
<g clip-path="url(#clip0_609_95)">
<path d="M75.1001 22.8C76.9001 22.7 78.8001 22.5 80.5001 22.3L80.9001 25.9C77.2001 26.4 72.6001 26.7 69.3001 26.7H65.8001L65.6001 23H69.7001C70.1001 23 70.6001 23 71.1001 23V20.2C68.3001 19.6 66.3001 17.4 66.3001 13.6V13.3C66.3001 8.6 69.3001 6.5 73.0001 6.5C76.7001 6.5 79.7001 8.6 79.7001 13.3V13.6C79.7001 17.3 77.8001 19.4 75.1001 20.1V22.8ZM70.3001 13.5C70.3001 15.7 71.6001 16.7 73.0001 16.7C74.4001 16.7 75.7001 15.8 75.7001 13.5V13.2C75.7001 11 74.4001 10 73.0001 10C71.6001 10 70.3001 10.9 70.3001 13.2V13.5ZM89.0001 14.3V18H86.0001V30.1H82.0001V5.5H86.0001V14.3H89.0001Z" fill="white"/>
<path d="M90.2002 18.6V14.8C90.2002 8.7 93.2002 6.4 97.0002 6.4C100.7 6.4 103.7 8.7 103.7 14.8V18.6C103.7 24.7 100.7 27 97.0002 27C93.2002 27 90.2002 24.7 90.2002 18.6ZM99.7002 18.6V14.8C99.7002 11.1 98.4002 10.1 97.0002 10.1C95.6002 10.1 94.2002 11.1 94.2002 14.8V18.6C94.2002 22.3 95.5002 23.3 97.0002 23.3C98.5002 23.3 99.7002 22.3 99.7002 18.6ZM106.7 5.5H110.7V30.1H106.7V5.5Z" fill="white"/>
<path d="M122.7 12.9V6.8H126.6V26.3H114V6.8H117.9V12.9H122.7ZM117.9 22.6H122.7V16.6H117.9V22.6ZM130.2 5.5H134.2V30.1H130.2V5.5Z" fill="white"/>
<path d="M147.4 13.8C146.9 16.7 144.8 18.2 142.2 18.2C139.1 18.2 136.8 16.2 136.8 12.1V11.8C136.8 7.7 139.1 5.7 142.2 5.7C144.9 5.7 146.9 7.2 147.4 10.2H149.2V5.7H152.8V18.7H149.2V13.8H147.4ZM140.5 12.1C140.5 13.8 141.3 14.7 142.2 14.7C143.1 14.7 143.9 13.8 143.9 12.1V11.9C143.9 10.2 143.1 9.3 142.2 9.3C141.3 9.3 140.5 10.2 140.5 11.9V12.1ZM141.1 19.9H158.1V30.1H141.1V19.9ZM145.1 26.4H154.1V23.4H145.1V26.4ZM154.4 5.5H158.2V18.7H154.4V5.5Z" fill="white"/>
<path d="M48.1998 5.3V30.1H42.2998V0.2C42.2998 1.3411e-07 42.6998 -0.0999999 42.7998 1.37836e-07L48.1998 5.3Z" fill="white"/>
<path d="M0 9.3V0H5.9V14.3C5.9 14.5 5.6 14.6 5.4 14.4L0 9.3Z" fill="white"/>
<path d="M14.3999 24.8V0H8.3999V29.8C8.3999 30 8.7999 30.1 8.9999 30L14.3999 24.8Z" fill="white"/>
<path d="M22.7999 0H16.8999V30.1H22.7999V0Z" fill="white"/>
<path d="M25.8999 0.0999991C25.6999 -0.100001 25.3999 -9.53674e-07 25.3999 0.199999V14.3C25.3999 14.5 25.7999 14.6 25.8999 14.4L31.2999 9.2V5.2L25.8999 0.0999991Z" fill="white"/>
<path d="M25.8999 15.6C25.6999 15.4 25.3999 15.5 25.3999 15.8V29.9C25.3999 30.1 25.7999 30.2 25.8999 30L31.2999 24.8V20.8L25.8999 15.6Z" fill="white"/>
<path d="M39.6998 5.3V30.1H33.7998V0.2C33.7998 1.3411e-07 34.0998 -0.0999999 34.2998 1.37836e-07L39.6998 5.3Z" fill="white"/>
<path d="M56.6002 5.3V30.1H50.7002V0.2C50.7002 1.3411e-07 51.1002 -0.0999999 51.2002 1.37836e-07L56.6002 5.3Z" fill="white"/>
</g>
<defs>
<clipPath id="clip0_609_95">
<rect width="158.2" height="30.1" fill="white"/>
</clipPath>
</defs>
</svg>
