<svg width="2361" height="1258" viewBox="0 0 2361 1258" fill="none" xmlns="http://www.w3.org/2000/svg">
<g opacity="0.2">
<path d="M192.066 1100C187.448 1100 183.753 1096.31 183.753 1091.69C183.753 1087.07 187.448 1083.38 192.066 1083.38C196.684 1083.38 200.379 1087.07 200.379 1091.69C200.687 1096.31 196.684 1100 192.066 1100Z" fill="#FDF9FD"/>
<path d="M192.066 1129.87C196.657 1129.87 200.379 1126.15 200.379 1121.56C200.379 1116.97 196.657 1113.24 192.066 1113.24C187.475 1113.24 183.753 1116.97 183.753 1121.56C183.753 1126.15 187.475 1129.87 192.066 1129.87Z" fill="#FDF9FD"/>
<path d="M192.066 1160.04C196.657 1160.04 200.379 1156.32 200.379 1151.73C200.379 1147.14 196.657 1143.42 192.066 1143.42C187.475 1143.42 183.753 1147.14 183.753 1151.73C183.753 1156.32 187.475 1160.04 192.066 1160.04Z" fill="#FDF9FD"/>
<path d="M162.201 1100C157.583 1100 153.888 1096.31 153.888 1091.69C153.888 1087.07 157.583 1083.38 162.201 1083.38C166.82 1083.38 170.514 1087.07 170.514 1091.69C170.514 1096.31 166.82 1100 162.201 1100Z" fill="#FDF9FD"/>
<path d="M162.201 1130.18C157.583 1130.18 153.888 1126.48 153.888 1121.86C153.888 1117.25 157.583 1113.55 162.201 1113.55C166.82 1113.55 170.514 1117.25 170.514 1121.86C170.514 1126.48 166.82 1130.18 162.201 1130.18Z" fill="#FDF9FD"/>
<path d="M162.201 1160.04C157.583 1160.04 153.888 1156.35 153.888 1151.73C153.888 1147.11 157.583 1143.42 162.201 1143.42C166.82 1143.42 170.514 1147.11 170.514 1151.73C170.514 1156.35 166.82 1160.04 162.201 1160.04Z" fill="#FDF9FD"/>
</g>
<path d="M1704.14 671.409C1704.14 675.719 1700.44 679.414 1696.13 679.414C1691.82 679.414 1688.13 675.719 1688.13 671.409C1688.13 667.099 1691.82 663.404 1696.13 663.404C1700.44 663.404 1704.14 667.099 1704.14 671.409Z" fill="#25C7E4"/>
<path d="M432.073 864.449C432.073 868.76 435.768 872.455 440.078 872.455C444.389 872.455 448.084 868.76 448.084 864.449C448.084 860.139 444.389 856.444 440.078 856.444C435.768 856.444 432.073 859.831 432.073 864.449Z" fill="#25C7E4"/>
<path d="M1915.31 958.067C1911.93 960.222 1907.61 959.299 1905.46 955.912C1903.3 952.525 1904.23 948.215 1907.61 946.06C1911 943.904 1915.31 944.828 1917.47 948.215C1919.62 951.294 1918.7 955.912 1915.31 958.067Z" fill="#96C3F9"/>
<g opacity="0.3">
<path d="M1649.06 1055.24C1646.29 1055.24 1644.14 1053.08 1644.14 1050.31V1039.54C1644.14 1036.76 1646.29 1034.61 1649.06 1034.61C1651.84 1034.61 1653.99 1036.76 1653.99 1039.54V1050C1654.3 1052.78 1652.14 1055.24 1649.06 1055.24Z" fill="#FDF9FD"/>
<path d="M1649.06 1098.34C1646.29 1098.34 1644.14 1100.5 1644.14 1103.27V1113.74C1644.14 1116.51 1646.29 1118.66 1649.06 1118.66C1651.84 1118.66 1653.99 1116.51 1653.99 1113.74V1103.27C1654.3 1100.81 1652.14 1098.34 1649.06 1098.34Z" fill="#FDF9FD"/>
<path d="M1670.92 1076.79C1670.92 1074.02 1673.08 1071.86 1675.85 1071.86H1686.32C1689.09 1071.86 1691.24 1074.02 1691.24 1076.79C1691.24 1079.56 1689.09 1081.72 1686.32 1081.72H1675.85C1673.08 1081.72 1670.92 1079.56 1670.92 1076.79Z" fill="#FDF9FD"/>
<path d="M1627.51 1076.79C1627.51 1074.02 1625.36 1071.86 1622.59 1071.86H1611.81C1609.04 1071.86 1606.88 1074.02 1606.88 1076.79C1606.88 1079.56 1609.04 1081.72 1611.81 1081.72H1622.28C1625.36 1081.72 1627.51 1079.56 1627.51 1076.79Z" fill="#FDF9FD"/>
<path d="M1664.46 1061.4C1662.61 1059.55 1662.61 1056.16 1664.46 1054.31L1671.85 1046.93C1673.7 1045.08 1677.08 1045.08 1678.93 1046.93C1680.78 1048.77 1680.78 1052.16 1678.93 1054.01L1671.54 1061.4C1669.69 1063.55 1666.61 1063.55 1664.46 1061.4Z" fill="#FDF9FD"/>
<path d="M1633.98 1092.19C1632.13 1090.34 1628.74 1090.34 1626.9 1092.19L1619.51 1099.57C1617.66 1101.42 1617.66 1104.81 1619.51 1106.66C1621.35 1108.5 1624.74 1108.5 1626.59 1106.66L1633.98 1099.27C1635.82 1097.42 1635.82 1094.03 1633.98 1092.19Z" fill="#FDF9FD"/>
<path d="M1664.46 1092.19C1666.31 1090.34 1669.69 1090.34 1671.54 1092.19L1678.93 1099.57C1680.78 1101.42 1680.78 1104.81 1678.93 1106.66C1677.08 1108.5 1673.7 1108.5 1671.85 1106.66L1664.46 1099.27C1662.61 1097.42 1662.61 1094.03 1664.46 1092.19Z" fill="#FDF9FD"/>
<path d="M1633.98 1061.4C1635.82 1059.55 1635.82 1056.16 1633.98 1054.31L1626.59 1046.93C1624.74 1045.08 1621.35 1045.08 1619.51 1046.93C1617.66 1048.77 1617.66 1052.16 1619.51 1054.01L1626.9 1061.4C1628.74 1063.55 1631.82 1063.55 1633.98 1061.4Z" fill="#FDF9FD"/>
<path d="M1654.3 1076.79C1654.3 1079.56 1652.14 1081.72 1649.37 1081.72C1646.6 1081.72 1644.45 1079.56 1644.45 1076.79C1644.45 1074.02 1646.6 1071.86 1649.37 1071.86C1652.14 1071.56 1654.3 1074.02 1654.3 1076.79Z" fill="#FDF9FD"/>
</g>
<g opacity="0.2">
<path d="M2234.15 155.405L1723.67 665.886C1694.73 694.828 1694.73 741.627 1723.67 770.261C1752.61 799.203 1799.41 799.203 1828.05 770.261L2338.53 259.78C2367.47 230.838 2367.47 184.039 2338.53 155.405C2309.89 126.771 2263.09 126.771 2234.15 155.405Z" stroke="#E17A66" stroke-width="1.1603" stroke-miterlimit="10"/>
<path d="M368.648 473.455L174.37 667.734C154.665 687.438 154.665 718.843 174.37 738.548C194.074 758.253 225.479 758.253 245.184 738.548L439.463 543.962C459.168 524.257 459.168 492.852 439.463 473.147C420.066 453.75 388.353 453.75 368.648 473.455Z" stroke="#E17A66" stroke-width="1.1603" stroke-miterlimit="10"/>
<path d="M518.36 978.773L272.773 1224.36C265.076 1232.06 265.076 1244.37 272.773 1252.07C280.47 1259.77 292.786 1259.77 300.483 1252.07L546.07 1006.48C553.767 998.786 553.767 986.47 546.07 978.773C538.373 971.076 526.057 971.076 518.36 978.773Z" fill="url(#paint0_linear_620_3671)"/>
<path d="M769.212 5.77083L453.625 321.358C445.928 329.055 445.928 341.371 453.625 349.068C461.323 356.765 473.638 356.765 481.336 349.068L796.922 33.7888C804.62 26.0916 804.62 13.776 796.922 6.07874C789.225 -1.6185 776.91 -1.61852 769.212 5.77083Z" fill="white"/>
<path d="M2008.06 700.396L1764.63 943.826C1750.94 957.511 1750.94 979.947 1764.63 993.633C1778.31 1007.32 1800.75 1007.32 1814.44 993.633L2057.86 750.204C2071.55 736.518 2071.55 714.082 2057.86 700.396C2044.18 686.71 2021.74 686.71 2008.06 700.396Z" fill="url(#paint1_linear_620_3671)"/>
</g>
<path d="M1814.83 1123.6C1821.03 1114.2 1831.83 1115.4 1841.73 1114.2C1852.63 1112.9 1860.43 1106.4 1862.43 1095.4C1862.93 1092.9 1859.53 1087.2 1858.63 1084.9C1857.73 1082.5 1854.23 1076.9 1854.63 1074.4C1852.63 1085.4 1844.83 1091.8 1833.93 1093.2C1824.03 1094.5 1813.33 1093.2 1807.03 1102.6C1806.33 1103.7 1810.33 1111.8 1810.83 1113.1C1811.43 1114.5 1815.63 1122.5 1814.83 1123.6Z" fill="#9AA5F0"/>
<path d="M1742.64 812.211C1742.64 812.211 1735.98 806.425 1736.05 795.786C1736.11 783.406 1732.81 776.064 1728.77 774.136L1748.12 770.838C1748.12 770.838 1754.15 771.274 1756.33 782.41C1758.51 793.547 1753.34 806.114 1763.73 809.785L1742.64 812.211Z" fill="#F19774"/>
<path d="M1689.45 803.812C1689.45 803.812 1701.02 808.665 1708.61 796.035C1716.2 783.406 1715.7 768.35 1748.18 770.776C1748.18 770.776 1739.97 771.523 1734.86 784.028C1730.26 795.289 1723.91 809.971 1707.12 808.603C1692.06 807.358 1689.45 803.812 1689.45 803.812Z" fill="#F3CDB7"/>
<path d="M238.94 970.611C238.94 970.611 226.604 971.452 216.043 960.797C203.8 948.368 193.146 944.442 187.258 946.405L203.239 923.882C203.239 923.882 209.688 918.368 222.959 927.246C236.23 936.125 243.613 953.882 257.632 947.153L238.94 970.611Z" fill="#8E9BF0"/>
<path d="M177.632 1015.28C177.632 1015.28 193.987 1008.55 188.94 988.461C183.894 968.368 168.379 953.788 203.239 923.882C203.239 923.882 195.856 932.76 203.146 950.33C209.781 966.125 218.099 987.059 200.062 1002.39C183.707 1016.22 177.632 1015.28 177.632 1015.28Z" fill="#D3BDFD"/>
<path d="M575.156 426C573.333 426 572.725 429.495 572.725 436.028C572.725 449.4 575.308 489.818 575.308 489.818C575.308 489.818 577.891 449.4 577.739 435.877C577.739 429.343 577.132 426 575.156 426Z" fill="#68D8DD"/>
<path d="M575.308 586C577.131 586 577.891 582.505 577.891 575.972C577.891 562.6 575.308 522.182 575.308 522.182C575.308 522.182 572.573 562.6 572.725 576.123C572.725 582.505 573.333 586 575.308 586Z" fill="#68D8DD"/>
<path d="M655.232 505.924C655.232 504.101 651.737 503.341 645.204 503.341C631.832 503.341 591.415 505.924 591.415 505.924C591.415 505.924 631.832 508.507 645.356 508.355C651.737 508.507 655.232 507.899 655.232 505.924Z" fill="#68D8DD"/>
<path d="M495.232 506.076C495.232 507.899 498.727 508.659 505.26 508.659C518.784 508.659 559.05 506.076 559.05 506.076C559.05 506.076 518.48 503.341 505.108 503.493C498.575 503.493 495.232 504.101 495.232 506.076Z" fill="#68D8DD"/>
<path d="M631.832 449.4C630.465 448.032 627.578 450.008 623.019 454.718C613.447 464.139 586.856 494.68 586.856 494.68C586.856 494.68 617.245 467.937 626.818 458.365C631.072 453.654 633.048 450.767 631.832 449.4Z" fill="#68D8DD"/>
<path d="M518.632 562.6C519.999 563.968 522.886 561.992 527.445 557.282C537.017 547.861 563.608 517.32 563.608 517.32C563.608 517.32 533.219 544.215 523.798 553.787C519.24 558.346 517.416 561.233 518.632 562.6Z" fill="#68D8DD"/>
<path d="M631.832 562.6C633.2 561.233 631.225 558.346 626.514 553.787C617.094 544.215 586.552 517.624 586.552 517.624C586.552 517.624 613.295 548.013 622.868 557.586C627.578 561.84 630.465 563.816 631.832 562.6Z" fill="#68D8DD"/>
<path d="M518.631 449.4C517.264 450.767 519.239 453.654 523.95 458.213C533.37 467.785 563.912 494.376 563.912 494.376C563.912 494.376 537.017 463.987 527.444 454.566C522.886 450.008 519.999 448.184 518.631 449.4Z" fill="#68D8DD"/>
<path d="M597.796 448.184C596.429 447.728 595.061 450.008 593.086 454.718C589.287 464.443 579.714 494.376 579.714 494.376C579.714 494.376 593.086 465.81 596.732 456.085C598.708 451.375 599.164 448.64 597.796 448.184Z" fill="#68D8DD"/>
<path d="M552.516 563.816C553.883 564.272 555.251 561.992 557.226 557.282C561.025 547.557 570.597 517.624 570.597 517.624C570.597 517.624 557.226 546.19 553.579 555.915C551.756 560.625 551.3 563.36 552.516 563.816Z" fill="#68D8DD"/>
<path d="M633.048 528.564C633.504 527.197 631.224 525.829 626.514 523.854C616.789 520.055 586.856 510.482 586.856 510.482C586.856 510.482 615.422 523.854 625.147 527.5C629.857 529.476 632.592 529.932 633.048 528.564Z" fill="#68D8DD"/>
<path d="M517.416 483.284C516.96 484.651 519.239 486.019 523.95 487.994C533.674 491.793 563.608 501.366 563.608 501.366C563.608 501.366 535.042 487.994 525.317 484.348C520.607 482.524 517.872 482.068 517.416 483.284Z" fill="#68D8DD"/>
<path d="M632.136 481.005C631.528 479.637 628.945 480.245 624.235 482.372C614.662 486.475 586.704 500.91 586.704 500.91C586.704 500.91 616.334 490.122 625.906 485.867C630.465 483.892 632.744 482.372 632.136 481.005Z" fill="#68D8DD"/>
<path d="M518.328 530.843C518.935 532.211 521.519 531.603 526.229 529.476C535.802 525.373 563.608 510.938 563.608 510.938C563.608 510.938 534.13 521.726 524.557 525.981C519.999 528.108 517.72 529.628 518.328 530.843Z" fill="#68D8DD"/>
<path d="M600.075 562.904C601.443 562.296 600.835 559.713 598.708 555.003C594.605 545.43 580.17 517.472 580.17 517.472C580.17 517.472 590.959 547.102 595.213 556.674C597.34 561.233 598.86 563.512 600.075 562.904Z" fill="#68D8DD"/>
<path d="M550.237 449.096C548.869 449.704 549.477 452.287 551.604 456.997C555.707 466.57 570.294 494.376 570.294 494.376C570.294 494.376 559.505 464.746 555.251 455.174C553.124 450.767 551.604 448.488 550.237 449.096Z" fill="#68D8DD"/>
<path d="M1515.51 539.324C1514.49 539.324 1514.15 541.29 1514.15 544.965C1514.15 552.572 1515.6 575.221 1515.6 575.221C1515.6 575.221 1517.05 552.486 1516.97 544.879C1516.97 541.204 1516.62 539.324 1515.51 539.324Z" fill="#F2A64C"/>
<path d="M1515.6 629.324C1516.62 629.324 1517.05 627.358 1517.05 623.683C1517.05 616.161 1515.6 593.426 1515.6 593.426C1515.6 593.426 1514.06 616.161 1514.15 623.768C1514.15 627.358 1514.49 629.324 1515.6 629.324Z" fill="#F2A64C"/>
<path d="M1560.56 584.281C1560.56 583.255 1558.59 582.828 1554.91 582.828C1547.39 582.828 1524.66 584.281 1524.66 584.281C1524.66 584.281 1547.39 585.734 1555 585.649C1558.59 585.734 1560.56 585.392 1560.56 584.281Z" fill="#F2A64C"/>
<path d="M1470.56 584.367C1470.56 585.392 1472.52 585.82 1476.2 585.82C1483.72 585.82 1506.45 584.367 1506.45 584.367C1506.45 584.367 1483.63 582.828 1476.11 582.914C1472.44 582.914 1470.56 583.255 1470.56 584.367Z" fill="#F2A64C"/>
<path d="M1547.39 552.486C1546.62 551.717 1545 552.828 1542.44 555.478C1537.05 560.777 1522.09 577.956 1522.09 577.956C1522.09 577.956 1539.19 562.914 1544.57 557.529C1546.97 554.879 1548.08 553.255 1547.39 552.486Z" fill="#F2A64C"/>
<path d="M1483.72 616.161C1484.49 616.931 1486.11 615.82 1488.68 613.17C1494.06 607.871 1509.02 590.691 1509.02 590.691C1509.02 590.691 1491.92 605.82 1486.62 611.204C1484.06 613.768 1483.03 615.392 1483.72 616.161Z" fill="#F2A64C"/>
<path d="M1547.39 616.161C1548.16 615.392 1547.05 613.768 1544.4 611.204C1539.1 605.82 1521.92 590.862 1521.92 590.862C1521.92 590.862 1536.97 607.956 1542.35 613.341C1545 615.734 1546.62 616.845 1547.39 616.161Z" fill="#F2A64C"/>
<path d="M1483.72 552.486C1482.95 553.255 1484.06 554.879 1486.71 557.443C1492.01 562.828 1509.19 577.785 1509.19 577.785C1509.19 577.785 1494.06 560.691 1488.68 555.392C1486.11 552.828 1484.49 551.802 1483.72 552.486Z" fill="#F2A64C"/>
<path d="M1528.25 551.802C1527.48 551.546 1526.71 552.828 1525.6 555.478C1523.46 560.948 1518.08 577.785 1518.08 577.785C1518.08 577.785 1525.6 561.717 1527.65 556.247C1528.76 553.597 1529.02 552.059 1528.25 551.802Z" fill="#F2A64C"/>
<path d="M1502.78 616.845C1503.55 617.102 1504.32 615.82 1505.43 613.17C1507.56 607.7 1512.95 590.862 1512.95 590.862C1512.95 590.862 1505.43 606.931 1503.38 612.401C1502.35 615.05 1502.09 616.589 1502.78 616.845Z" fill="#F2A64C"/>
<path d="M1548.08 597.016C1548.33 596.247 1547.05 595.478 1544.4 594.367C1538.93 592.23 1522.09 586.845 1522.09 586.845C1522.09 586.845 1538.16 594.367 1543.63 596.418C1546.28 597.529 1547.82 597.785 1548.08 597.016Z" fill="#F2A64C"/>
<path d="M1483.03 571.546C1482.78 572.315 1484.06 573.085 1486.71 574.196C1492.18 576.332 1509.02 581.717 1509.02 581.717C1509.02 581.717 1492.95 574.196 1487.48 572.144C1484.83 571.119 1483.29 570.862 1483.03 571.546Z" fill="#F2A64C"/>
<path d="M1547.56 570.264C1547.22 569.495 1545.77 569.837 1543.12 571.033C1537.74 573.341 1522.01 581.461 1522.01 581.461C1522.01 581.461 1538.68 575.392 1544.06 572.999C1546.62 571.888 1547.91 571.033 1547.56 570.264Z" fill="#F2A64C"/>
<path d="M1483.55 598.298C1483.89 599.067 1485.34 598.726 1487.99 597.529C1493.38 595.221 1509.02 587.102 1509.02 587.102C1509.02 587.102 1492.44 593.17 1487.05 595.563C1484.49 596.76 1483.21 597.614 1483.55 598.298Z" fill="#F2A64C"/>
<path d="M1529.53 616.332C1530.3 615.991 1529.96 614.538 1528.76 611.888C1526.45 606.503 1518.33 590.777 1518.33 590.777C1518.33 590.777 1524.4 607.444 1526.8 612.828C1527.99 615.392 1528.85 616.674 1529.53 616.332Z" fill="#F2A64C"/>
<path d="M1501.5 552.315C1500.73 552.657 1501.07 554.11 1502.27 556.76C1504.57 562.144 1512.78 577.785 1512.78 577.785C1512.78 577.785 1506.71 561.119 1504.32 555.734C1503.12 553.255 1502.27 551.973 1501.5 552.315Z" fill="#F2A64C"/>
<path d="M1614.49 428.675C1617.29 424.93 1629.28 424.186 1634.41 414.542C1639.54 404.898 1640.18 400.41 1642.78 401.692C1645.34 402.975 1653.07 415.184 1652.43 417.748C1651.78 420.313 1640.21 433.163 1634.44 434.446C1628.66 435.728 1612.59 431.24 1614.52 428.675H1614.49Z" fill="#FFC801"/>
<path d="M272.951 1065.17C272.951 1065.17 280.009 1080.25 279.676 1081.2C279.342 1082.14 263.301 1083.76 262.993 1082.48C262.686 1081.2 258.836 1068.37 257.861 1067.4C256.885 1066.42 272.951 1065.14 272.951 1065.14V1065.17Z" fill="#8E0EC7"/>
<path d="M581.795 1187.4C581.795 1187.4 581.795 1208.22 583.463 1207.81C585.131 1207.4 603.456 1199.89 602.635 1198.66C601.813 1197.4 595.141 1186.99 593.472 1186.58C591.804 1186.17 581.795 1187.4 581.795 1187.4Z" fill="#FFC801"/>
<path d="M1535.16 1143.52C1535.16 1143.52 1541.08 1134.78 1542.44 1135.85C1543.8 1136.93 1550.86 1144.65 1554.79 1145.86C1558.72 1147.09 1568.24 1145.45 1565.95 1147.7C1563.67 1149.96 1550.96 1155.65 1544.93 1152.6C1538.9 1149.55 1534.39 1144.27 1535.16 1143.5V1143.52Z" fill="#BC7B8D"/>
<path d="M1497.36 987.489C1491.25 994.414 1485.71 1001.85 1479.57 1008.78C1478.14 1010.42 1487.73 1018.93 1489.17 1017.29C1495.28 1010.37 1500.82 1002.93 1506.96 996.004C1508.39 994.363 1498.8 985.847 1497.36 987.489Z" fill="#A1AFFE"/>
<path d="M116.603 1143.65C118.15 1146.13 104.934 1154.43 103.375 1151.95C105.917 1147.85 105.206 1142.99 103.826 1137.98C107.813 1141.12 112.035 1143.18 116.591 1143.66L116.603 1143.65Z" fill="url(#paint2_radial_620_3671)"/>
<path d="M111.542 1150.18C113.882 1148.71 115.9 1146.67 117.761 1143.96C117.962 1143.67 117.884 1143.26 117.594 1143.06C117.305 1142.86 116.892 1142.93 116.692 1143.22C113.214 1148.31 109.08 1150.9 103.286 1151.64C102.93 1151.69 102.673 1152.01 102.718 1152.36C102.762 1152.72 103.085 1152.98 103.442 1152.93C106.539 1152.53 109.191 1151.64 111.542 1150.18Z" fill="url(#paint3_radial_620_3671)"/>
<path d="M105.906 1057.61C123.966 1086.41 120.695 1133.36 106.654 1142.17C92.6137 1150.98 48.948 1133.46 30.8994 1104.66C12.8397 1075.86 20.5586 1050.86 41.2744 1037.87C61.9902 1024.88 87.8355 1028.82 105.895 1057.62L105.906 1057.61Z" fill="url(#paint4_radial_620_3671)"/>
<g style="mix-blend-mode:screen" opacity="0.29">
<path d="M79.0041 1049.43C85.2405 1056.09 86.7746 1064.78 82.4282 1068.84C78.0928 1072.91 69.5263 1070.78 63.301 1064.13C57.0646 1057.47 55.5305 1048.78 59.8769 1044.73C64.2123 1040.66 72.7788 1042.78 79.0152 1049.44L79.0041 1049.43Z" fill="white"/>
</g>
<g style="mix-blend-mode:screen" opacity="0.29">
<path d="M100.635 1062.48C103.129 1065.15 103.752 1068.63 102.013 1070.26C100.275 1071.88 96.8438 1071.04 94.3492 1068.37C91.8547 1065.69 91.2321 1062.22 92.9707 1060.59C94.7093 1058.96 98.1403 1059.81 100.635 1062.48Z" fill="white"/>
</g>
<path d="M307.54 822.077C308.383 825.288 325.5 820.801 324.657 817.59C319.289 816.508 315.836 812.147 312.759 807.125C312.258 812.841 310.685 817.932 307.54 822.077Z" fill="url(#paint5_radial_620_3671)"/>
<path d="M316.873 822.965C313.842 823.762 310.583 823.842 306.925 823.284C306.526 823.227 306.252 822.84 306.309 822.441C306.366 822.043 306.754 821.769 307.153 821.826C314.036 822.897 319.392 821.496 324.509 817.283C324.816 817.021 325.284 817.066 325.546 817.385C325.808 817.704 325.762 818.159 325.443 818.421C322.708 820.676 319.916 822.168 316.885 822.965H316.873Z" fill="url(#paint6_radial_620_3671)"/>
<path d="M244.805 746.498C254.583 783.746 295.871 817.488 314.036 812.728C332.19 807.968 351.609 758.329 341.842 721.081C332.076 683.832 305.432 670.805 278.64 677.82C251.848 684.846 235.038 709.249 244.805 746.498Z" fill="url(#paint7_radial_620_3671)"/>
<g style="mix-blend-mode:screen" opacity="0.29">
<path d="M272.302 735.819C279.016 735.387 283.921 726.678 283.258 716.366C282.594 706.055 276.613 698.045 269.898 698.477C263.184 698.908 258.279 707.617 258.943 717.929C259.607 728.241 265.588 736.25 272.302 735.819Z" fill="white"/>
</g>
<g style="mix-blend-mode:screen" opacity="0.29">
<path d="M252.919 745.917C253.181 750.051 255.586 753.25 258.275 753.08C260.965 752.909 262.936 749.413 262.663 745.291C262.401 741.157 259.996 737.957 257.307 738.128C254.617 738.299 252.657 741.783 252.919 745.917Z" fill="white"/>
</g>
<path d="M340.617 473.348C339.634 475.267 329.399 470.018 330.382 468.099C333.94 468.167 336.742 465.875 339.408 463.121C338.922 466.824 339.205 470.267 340.628 473.348H340.617Z" fill="url(#paint8_radial_620_3671)"/>
<path d="M334.573 472.603C336.381 473.529 338.437 474.048 340.843 474.195C341.103 474.206 341.34 474.014 341.351 473.743C341.363 473.484 341.171 473.258 340.9 473.235C336.381 472.942 333.172 471.305 330.518 467.919C330.36 467.715 330.055 467.67 329.851 467.84C329.648 467.998 329.603 468.302 329.772 468.517C331.195 470.334 332.754 471.678 334.573 472.603Z" fill="url(#paint9_radial_620_3671)"/>
<path d="M391.069 434.166C379.625 456.45 348.672 472.073 337.816 466.508C326.959 460.942 321.605 426.705 333.037 404.421C344.469 382.138 363.211 377.6 379.241 385.818C395.272 394.036 402.513 411.883 391.069 434.166Z" fill="url(#paint10_radial_620_3671)"/>
<g style="mix-blend-mode:screen" opacity="0.29">
<path d="M386.11 414.05C384.234 420.507 379.32 424.752 375.118 423.533C370.915 422.313 369.029 416.094 370.893 409.648C372.768 403.191 377.682 398.946 381.885 400.166C386.087 401.385 387.974 407.593 386.11 414.05Z" fill="white"/>
</g>
<g style="mix-blend-mode:screen" opacity="0.29">
<path d="M385.997 432.665C385.251 435.25 383.274 436.955 381.591 436.458C379.908 435.972 379.151 433.478 379.896 430.893C380.642 428.308 382.619 426.603 384.302 427.1C385.985 427.585 386.742 430.08 385.997 432.665Z" fill="white"/>
</g>
<path d="M1941.84 854.97C1943.51 857.652 1929.25 866.606 1927.56 863.936C1930.31 859.509 1929.54 854.265 1928.05 848.853C1932.35 852.243 1936.91 854.467 1941.83 854.982L1941.84 854.97Z" fill="url(#paint11_radial_620_3671)"/>
<path d="M1936.38 862.02C1938.91 860.432 1941.08 858.23 1943.09 855.306C1943.31 854.993 1943.23 854.548 1942.91 854.332C1942.6 854.116 1942.16 854.2 1941.94 854.513C1938.19 859.999 1933.72 862.803 1927.47 863.599C1927.08 863.648 1926.81 863.997 1926.85 864.382C1926.9 864.766 1927.25 865.043 1927.63 864.995C1930.98 864.56 1933.84 863.597 1936.38 862.02Z" fill="url(#paint12_radial_620_3671)"/>
<path d="M1930.3 762.081C1949.79 793.179 1946.26 843.866 1931.1 853.374C1915.94 862.882 1868.8 843.968 1849.32 812.882C1829.82 781.785 1838.15 754.791 1860.52 740.77C1882.88 726.749 1910.79 730.996 1930.28 762.093L1930.3 762.081Z" fill="url(#paint13_radial_620_3671)"/>
<g style="mix-blend-mode:screen" opacity="0.29">
<path d="M1901.25 753.252C1907.98 760.442 1909.64 769.823 1904.95 774.203C1900.27 778.595 1891.02 776.301 1884.3 769.123C1877.56 761.933 1875.91 752.551 1880.6 748.171C1885.28 743.779 1894.53 746.073 1901.26 753.264L1901.25 753.252Z" fill="white"/>
</g>
<g style="mix-blend-mode:screen" opacity="0.29">
<path d="M1924.6 767.34C1927.3 770.225 1927.97 773.978 1926.09 775.735C1924.22 777.492 1920.51 776.579 1917.82 773.693C1915.12 770.807 1914.45 767.055 1916.33 765.298C1918.21 763.541 1921.91 764.454 1924.6 767.34Z" fill="white"/>
</g>
<path d="M1526.81 367.699C1524.45 370.035 1536.89 382.616 1539.25 380.28C1537.51 375.09 1539.56 369.919 1542.37 364.743C1537.17 367.167 1531.97 368.351 1526.81 367.699Z" fill="url(#paint14_radial_620_3671)"/>
<path d="M1530.71 376.226C1528.5 374 1526.8 371.217 1525.46 367.77C1525.31 367.396 1525.5 366.965 1525.88 366.816C1526.25 366.666 1526.68 366.864 1526.83 367.238C1529.35 373.735 1533.24 377.673 1539.45 379.997C1539.83 380.133 1540.02 380.56 1539.87 380.947C1539.73 381.333 1539.31 381.522 1538.93 381.376C1535.61 380.135 1532.92 378.463 1530.71 376.236L1530.71 376.226Z" fill="url(#paint15_radial_620_3671)"/>
<path d="M1560.89 275.579C1533.52 302.671 1524.95 355.298 1538.15 368.65C1551.35 381.992 1604.05 373.99 1631.42 346.908C1658.8 319.825 1656.76 290.237 1637.29 270.542C1617.81 250.852 1588.27 248.497 1560.89 275.579Z" fill="url(#paint16_radial_620_3671)"/>
<g style="mix-blend-mode:screen" opacity="0.29">
<path d="M1583.89 294.053C1587.62 299.652 1597.62 299.545 1606.22 293.815C1614.81 288.084 1618.76 278.899 1615.03 273.3C1611.3 267.701 1601.3 267.808 1592.7 273.539C1584.11 279.269 1580.16 288.454 1583.89 294.053Z" fill="white"/>
</g>
<g style="mix-blend-mode:screen" opacity="0.29">
<path d="M1565.45 282.316C1562.01 284.61 1560.44 288.292 1561.93 290.536C1563.42 292.78 1567.44 292.739 1570.87 290.441C1574.32 288.147 1575.89 284.465 1574.39 282.221C1572.9 279.977 1568.9 280.022 1565.45 282.316Z" fill="white"/>
</g>
<path d="M2001 607.596C2002.47 610.486 2017.82 602.579 2016.35 599.689C2011.01 599.791 2006.81 596.339 2002.81 592.19C2003.54 597.767 2003.11 602.954 2000.98 607.596H2001Z" fill="url(#paint17_radial_620_3671)"/>
<path d="M2010.06 606.473C2007.35 607.868 2004.27 608.65 2000.66 608.871C2000.27 608.888 1999.91 608.599 1999.89 608.191C1999.88 607.8 2000.17 607.46 2000.57 607.426C2007.35 606.984 2012.16 604.518 2016.15 599.417C2016.38 599.111 2016.84 599.043 2017.15 599.298C2017.45 599.536 2017.52 599.995 2017.26 600.318C2015.13 603.056 2012.79 605.079 2010.06 606.473Z" fill="url(#paint18_radial_620_3671)"/>
<path d="M1925.32 548.575C1942.48 582.141 1988.91 605.674 2005.2 597.291C2021.48 588.908 2029.52 537.335 2012.37 503.77C1995.22 470.204 1967.11 463.368 1943.06 475.747C1919.01 488.126 1908.15 515.009 1925.32 548.575Z" fill="url(#paint19_radial_620_3671)"/>
<g style="mix-blend-mode:screen" opacity="0.29">
<path d="M1932.76 518.274C1935.57 528 1942.94 534.394 1949.24 532.557C1955.55 530.721 1958.38 521.352 1955.58 511.643C1952.77 501.916 1945.4 495.523 1939.09 497.359C1932.79 499.196 1929.96 508.548 1932.76 518.274Z" fill="white"/>
</g>
<g style="mix-blend-mode:screen" opacity="0.29">
<path d="M1932.93 546.314C1934.04 550.207 1937.01 552.775 1939.54 552.027C1942.06 551.296 1943.2 547.538 1942.08 543.644C1940.96 539.75 1937.99 537.182 1935.47 537.931C1932.94 538.662 1931.81 542.42 1932.93 546.314Z" fill="white"/>
</g>
<defs>
<linearGradient id="paint0_linear_620_3671" x1="444.543" y1="1257.73" x2="444.543" y2="902.992" gradientUnits="userSpaceOnUse">
<stop stop-color="#5233C3"/>
<stop offset="0.8967" stop-color="#2E1C6D" stop-opacity="0.1033"/>
<stop offset="1" stop-color="#291A64" stop-opacity="0"/>
</linearGradient>
<linearGradient id="paint1_linear_620_3671" x1="1911.2" y1="1004.04" x2="1911.2" y2="690.084" gradientUnits="userSpaceOnUse">
<stop stop-color="#5233C3"/>
<stop offset="0.8967" stop-color="#2E1C6D" stop-opacity="0.1033"/>
<stop offset="1" stop-color="#291A64" stop-opacity="0"/>
</linearGradient>
<radialGradient id="paint2_radial_620_3671" cx="0" cy="0" r="1" gradientUnits="userSpaceOnUse" gradientTransform="translate(110.179 1158.36) rotate(147.901) scale(16.4071 16.396)">
<stop offset="0.05" stop-color="#7BE5C5"/>
<stop offset="1" stop-color="#3ACE99"/>
</radialGradient>
<radialGradient id="paint3_radial_620_3671" cx="0" cy="0" r="1" gradientUnits="userSpaceOnUse" gradientTransform="translate(102.835 1142.31) rotate(147.901) scale(12.8294 12.8207)">
<stop offset="0.05" stop-color="#7BE5B8"/>
<stop offset="1" stop-color="#3ACE87"/>
</radialGradient>
<radialGradient id="paint4_radial_620_3671" cx="0" cy="0" r="1" gradientUnits="userSpaceOnUse" gradientTransform="translate(70.4854 1060.35) rotate(147.901) scale(79.1828 79.1293)">
<stop offset="0.09" stop-color="#ABFFF0"/>
<stop offset="1" stop-color="#3ACEC5"/>
</radialGradient>
<radialGradient id="paint5_radial_620_3671" cx="0" cy="0" r="1" gradientUnits="userSpaceOnUse" gradientTransform="translate(324.666 828.162) rotate(-14.6794) scale(18.5861 18.5739)">
<stop stop-color="#F9C273"/>
<stop offset="1" stop-color="#C66C3C"/>
</radialGradient>
<radialGradient id="paint6_radial_620_3671" cx="0" cy="0" r="1" gradientUnits="userSpaceOnUse" gradientTransform="translate(317.121 809.643) rotate(-14.6794) scale(14.5293 14.5198)">
<stop stop-color="#F9C273"/>
<stop offset="1" stop-color="#C66C3C"/>
</radialGradient>
<radialGradient id="paint7_radial_620_3671" cx="0" cy="0" r="1" gradientUnits="userSpaceOnUse" gradientTransform="translate(274.534 719.345) rotate(-14.6794) scale(89.7056 89.6469)">
<stop offset="0.24" stop-color="#F9C273"/>
<stop offset="1" stop-color="#C66C3C"/>
</radialGradient>
<radialGradient id="paint8_radial_620_3671" cx="0" cy="0" r="1" gradientUnits="userSpaceOnUse" gradientTransform="translate(328.86 474.799) rotate(-152.857) scale(12.0858 12.0805)">
<stop offset="0.05" stop-color="#8ECBFD"/>
<stop offset="1" stop-color="#4E4FFB"/>
</radialGradient>
<radialGradient id="paint9_radial_620_3671" cx="0" cy="0" r="1" gradientUnits="userSpaceOnUse" gradientTransform="translate(336.247 464.097) rotate(-152.857) scale(9.44272 9.43858)">
<stop offset="0.05" stop-color="#8ECBFD"/>
<stop offset="1" stop-color="#4E4FFB"/>
</radialGradient>
<radialGradient id="paint10_radial_620_3671" cx="0" cy="0" r="1" gradientUnits="userSpaceOnUse" gradientTransform="translate(375.987 412.736) rotate(-152.857) scale(58.3167 58.2911)">
<stop offset="0.05" stop-color="#8ECBFD"/>
<stop offset="1" stop-color="#4E4FFB"/>
</radialGradient>
<radialGradient id="paint11_radial_620_3671" cx="0" cy="0" r="1" gradientUnits="userSpaceOnUse" gradientTransform="translate(1934.91 870.856) rotate(147.901) scale(17.7137 17.7017)">
<stop offset="0.05" stop-color="#E3E57B"/>
<stop offset="1" stop-color="#CBCE3A"/>
</radialGradient>
<radialGradient id="paint12_radial_620_3671" cx="0" cy="0" r="1" gradientUnits="userSpaceOnUse" gradientTransform="translate(1926.98 853.529) rotate(147.901) scale(13.8511 13.8417)">
<stop offset="0.05" stop-color="#C9E57B"/>
<stop offset="1" stop-color="#CBCE3A"/>
</radialGradient>
<radialGradient id="paint13_radial_620_3671" cx="0" cy="0" r="1" gradientUnits="userSpaceOnUse" gradientTransform="translate(1892.05 765.035) rotate(147.901) scale(85.4886 85.4308)">
<stop offset="0.09" stop-color="#FDFFAB"/>
<stop offset="1" stop-color="#CEAD3A"/>
</radialGradient>
<radialGradient id="paint14_radial_620_3671" cx="0" cy="0" r="1" gradientUnits="userSpaceOnUse" gradientTransform="translate(1530.1 385.573) rotate(45.3206) scale(18.5861 18.5739)">
<stop stop-color="#F973F4"/>
<stop offset="1" stop-color="#BB3CC6"/>
</radialGradient>
<radialGradient id="paint15_radial_620_3671" cx="0" cy="0" r="1" gradientUnits="userSpaceOnUse" gradientTransform="translate(1542.37 369.78) rotate(45.3206) scale(14.5293 14.5198)">
<stop stop-color="#DE73F9"/>
<stop offset="1" stop-color="#B33CC6"/>
</radialGradient>
<radialGradient id="paint16_radial_620_3671" cx="0" cy="0" r="1" gradientUnits="userSpaceOnUse" gradientTransform="translate(1599.27 287.749) rotate(45.3206) scale(89.7056 89.6469)">
<stop offset="0.24" stop-color="#E673F9"/>
<stop offset="1" stop-color="#AA3CC6"/>
</radialGradient>
<radialGradient id="paint17_radial_620_3671" cx="0" cy="0" r="1" gradientUnits="userSpaceOnUse" gradientTransform="translate(2018.63 609.781) rotate(-27.2404) scale(18.1446 18.1811)">
<stop offset="0.05" stop-color="#8ECBFD"/>
<stop offset="1" stop-color="#4ED1FB"/>
</radialGradient>
<radialGradient id="paint18_radial_620_3671" cx="0" cy="0" r="1" gradientUnits="userSpaceOnUse" gradientTransform="translate(2007.55 593.661) rotate(-27.2404) scale(14.1765 14.205)">
<stop offset="0.05" stop-color="#8ECBFD"/>
<stop offset="1" stop-color="#4EBDFB"/>
</radialGradient>
<radialGradient id="paint19_radial_620_3671" cx="0" cy="0" r="1" gradientUnits="userSpaceOnUse" gradientTransform="translate(1947.94 516.295) rotate(-27.2404) scale(87.5518 87.7279)">
<stop offset="0.05" stop-color="#8ECEFD"/>
<stop offset="1" stop-color="#4EA8FB"/>
</radialGradient>
</defs>
</svg>
