<svg width="1750" height="1197" viewBox="0 0 1750 1197" fill="none" xmlns="http://www.w3.org/2000/svg">
<path d="M1658.96 78.0523C1663.55 78.0523 1667.27 74.3304 1667.27 69.7392C1667.27 65.1481 1663.55 61.4261 1658.96 61.4261C1654.36 61.4261 1650.64 65.1481 1650.64 69.7392C1650.64 74.3304 1654.36 78.0523 1658.96 78.0523Z" fill="#B5BDE7"/>
<path d="M1697.44 69.7394C1697.44 74.3577 1693.75 78.0525 1689.13 78.0525C1684.51 78.0525 1680.82 74.3577 1680.82 69.7394C1680.82 65.121 1684.51 61.4263 1689.13 61.4263C1693.75 61.1184 1697.44 65.121 1697.44 69.7394Z" fill="#B5BDE7"/>
<path d="M1718.99 78.0524C1723.59 78.0524 1727.31 74.3305 1727.31 69.7393C1727.31 65.1482 1723.59 61.4263 1718.99 61.4263C1714.4 61.4263 1710.68 65.1482 1710.68 69.7393C1710.68 74.3305 1714.4 78.0524 1718.99 78.0524Z" fill="#B5BDE7"/>
<path d="M1658.96 107.918C1663.55 107.918 1667.27 104.196 1667.27 99.6049C1667.27 95.0138 1663.55 91.2919 1658.96 91.2919C1654.36 91.2919 1650.64 95.0138 1650.64 99.6049C1650.64 104.196 1654.36 107.918 1658.96 107.918Z" fill="#B5BDE7"/>
<path d="M1697.44 99.6049C1697.44 104.223 1693.75 107.918 1689.13 107.918C1684.51 107.918 1680.82 104.223 1680.82 99.6049C1680.82 94.9866 1684.51 91.2919 1689.13 91.2919C1693.75 91.2919 1697.44 94.9866 1697.44 99.6049Z" fill="#B5BDE7"/>
<path d="M1718.99 107.918C1723.59 107.918 1727.31 104.196 1727.31 99.6049C1727.31 95.0138 1723.59 91.2919 1718.99 91.2919C1714.4 91.2919 1710.68 95.0138 1710.68 99.6049C1710.68 104.196 1714.4 107.918 1718.99 107.918Z" fill="#B5BDE7"/>
<path d="M91.1939 1107.8C95.7851 1107.8 99.5069 1104.07 99.5069 1099.48C99.5069 1094.89 95.7851 1091.17 91.1939 1091.17C86.6028 1091.17 82.8809 1094.89 82.8809 1099.48C82.8809 1104.07 86.6028 1107.8 91.1939 1107.8Z" fill="#B5BDE7"/>
<path d="M53.0156 1099.48C53.0156 1094.86 56.7103 1091.17 61.3286 1091.17C65.947 1091.17 69.6417 1094.86 69.6417 1099.48C69.6417 1104.1 65.947 1107.8 61.3286 1107.8C56.7103 1107.8 53.0156 1104.1 53.0156 1099.48Z" fill="#B5BDE7"/>
<path d="M31.1553 1107.8C35.7465 1107.8 39.4684 1104.07 39.4684 1099.48C39.4684 1094.89 35.7465 1091.17 31.1553 1091.17C26.5642 1091.17 22.8423 1094.89 22.8423 1099.48C22.8423 1104.07 26.5642 1107.8 31.1553 1107.8Z" fill="#B5BDE7"/>
<path d="M82.8809 1069.31C82.8809 1064.69 86.5756 1061 91.1939 1061C95.8123 1061 99.5069 1064.69 99.5069 1069.31C99.5069 1073.93 95.8123 1077.62 91.1939 1077.62C86.5756 1077.62 82.8809 1073.93 82.8809 1069.31Z" fill="#B5BDE7"/>
<path d="M53.0156 1069.31C53.0156 1064.69 56.7103 1061 61.3286 1061C65.947 1061 69.6417 1064.69 69.6417 1069.31C69.6417 1073.93 65.947 1077.62 61.3286 1077.62C56.7103 1077.62 53.0156 1073.93 53.0156 1069.31Z" fill="#B5BDE7"/>
<path d="M22.8423 1069.31C22.8423 1064.69 26.537 1061 31.1553 1061C35.7737 1061 39.4684 1064.69 39.4684 1069.31C39.4684 1073.93 35.7737 1077.62 31.1553 1077.62C26.537 1077.62 22.8423 1073.93 22.8423 1069.31Z" fill="#B5BDE7"/>
<path d="M1517.79 1196.19C1522.39 1196.19 1526.11 1192.46 1526.11 1187.87C1526.11 1183.28 1522.39 1179.56 1517.79 1179.56C1513.2 1179.56 1509.48 1183.28 1509.48 1187.87C1509.48 1192.46 1513.2 1196.19 1517.79 1196.19Z" fill="#B5BDE7"/>
<path d="M1487.62 1196.19C1492.21 1196.19 1495.94 1192.46 1495.94 1187.87C1495.94 1183.28 1492.21 1179.56 1487.62 1179.56C1483.03 1179.56 1479.31 1183.28 1479.31 1187.87C1479.31 1192.46 1483.03 1196.19 1487.62 1196.19Z" fill="#B5BDE7"/>
<path d="M1457.76 1196.19C1462.35 1196.19 1466.07 1192.46 1466.07 1187.87C1466.07 1183.28 1462.35 1179.56 1457.76 1179.56C1453.17 1179.56 1449.44 1183.28 1449.44 1187.87C1449.44 1192.46 1453.17 1196.19 1457.76 1196.19Z" fill="#B5BDE7"/>
<path d="M1517.79 1166.01C1522.39 1166.01 1526.11 1162.29 1526.11 1157.7C1526.11 1153.11 1522.39 1149.39 1517.79 1149.39C1513.2 1149.39 1509.48 1153.11 1509.48 1157.7C1509.48 1162.29 1513.2 1166.01 1517.79 1166.01Z" fill="#B5BDE7"/>
<path d="M1487.62 1166.01C1492.21 1166.01 1495.94 1162.29 1495.94 1157.7C1495.94 1153.11 1492.21 1149.39 1487.62 1149.39C1483.03 1149.39 1479.31 1153.11 1479.31 1157.7C1479.31 1162.29 1483.03 1166.01 1487.62 1166.01Z" fill="#B5BDE7"/>
<path d="M1457.76 1166.01C1462.35 1166.01 1466.07 1162.29 1466.07 1157.7C1466.07 1153.11 1462.35 1149.39 1457.76 1149.39C1453.17 1149.39 1449.44 1153.11 1449.44 1157.7C1449.44 1162.29 1453.17 1166.01 1457.76 1166.01Z" fill="#B5BDE7"/>
<path opacity="0.3" d="M1729.78 40.6502C1740.84 40.6502 1749.8 31.6901 1749.8 20.6373C1749.8 9.58456 1740.84 0.624512 1729.78 0.624512C1718.73 0.624512 1709.77 9.58456 1709.77 20.6373C1709.77 31.6901 1718.73 40.6502 1729.78 40.6502Z" fill="#25C7E4"/>
<path opacity="0.2" d="M81.4414 392.127C81.4414 401.82 73.6337 409.627 63.9414 409.627C54.2491 409.627 46.4414 401.82 46.4414 392.127C46.4414 382.435 54.2491 374.627 63.9414 374.627C73.6337 374.627 81.4414 382.435 81.4414 392.127Z" fill="#25C7E4"/>
<path opacity="0.2" d="M16.9925 1021.28C22.2266 1021.28 26.5371 1025.59 26.5371 1030.82C26.5371 1036.06 22.2266 1040.37 16.9925 1040.37C11.7584 1040.37 7.44788 1036.06 7.44788 1030.82C7.44788 1025.59 11.7584 1021.28 16.9925 1021.28ZM16.9925 1014.51C8.06368 1014.51 0.674316 1021.89 0.674316 1030.82C0.674316 1039.75 8.06368 1047.14 16.9925 1047.14C25.9213 1047.14 33.3106 1039.75 33.3106 1030.82C33.0028 1021.89 25.9213 1014.51 16.9925 1014.51Z" fill="#FE4396"/>
<path d="M1543.2 709.079L1548.44 722.934L1548.74 724.165L1549.97 724.473L1563.83 729.707L1549.97 734.941L1548.74 735.249L1548.44 736.481L1543.2 750.336L1537.97 736.481L1537.66 735.249L1536.43 734.941L1522.57 729.707L1536.43 724.473L1537.66 724.165L1537.97 722.934L1543.2 709.079ZM1543.2 700.766L1535.5 721.702L1514.57 729.399L1535.5 737.097L1543.2 758.033L1550.9 737.097L1571.83 729.399L1550.9 721.702L1543.2 700.766Z" fill="#FF93FF"/>
<path d="M32.9183 428.003L44.5547 423.725L32.9183 419.447L28.6403 407.811L24.3622 419.447L12.5547 423.725L24.3622 428.003L28.6403 439.811L32.9183 428.003Z" fill="#FDF9FD"/>
<path d="M1638.96 753.107C1638.96 757.417 1635.26 761.112 1630.95 761.112C1626.64 761.112 1622.95 757.417 1622.95 753.107C1622.95 748.796 1626.64 745.102 1630.95 745.102C1635.57 745.102 1638.96 748.796 1638.96 753.107Z" fill="#25C7E4"/>
<path d="M264.76 38.8028C261.065 38.8028 257.986 35.7239 257.986 32.0292V17.8663C257.986 14.1716 261.065 11.0928 264.76 11.0928C268.455 11.0928 271.533 14.1716 271.533 17.8663V32.0292C271.841 35.7239 268.763 38.8028 264.76 38.8028Z" fill="#FDF9FD"/>
<path d="M264.76 96.9935C261.065 96.9935 257.986 100.072 257.986 103.767V117.93C257.986 121.625 261.065 124.704 264.76 124.704C268.455 124.704 271.533 121.625 271.533 117.93V103.767C271.841 100.072 268.763 96.9935 264.76 96.9935Z" fill="#FDF9FD"/>
<path d="M294.009 68.0525C294.009 64.3579 297.088 61.2789 300.783 61.2789H314.946C318.64 61.2789 321.719 64.3579 321.719 68.0525C321.719 71.7472 318.64 74.8261 314.946 74.8261H300.783C297.088 74.8261 294.009 71.7472 294.009 68.0525Z" fill="#FDF9FD"/>
<path d="M235.818 68.0525C235.818 64.3579 232.74 61.2789 229.045 61.2789H214.882C211.187 61.2789 208.108 64.3579 208.108 68.0525C208.108 71.7472 211.187 74.8261 214.882 74.8261H229.045C232.74 74.8261 235.818 71.7472 235.818 68.0525Z" fill="#FDF9FD"/>
<path d="M285.389 47.1157C282.618 44.3447 282.618 40.0342 285.389 37.5711L295.549 27.4108C298.32 24.6398 302.631 24.6398 305.094 27.4108C307.865 30.1818 307.865 34.4923 305.094 36.9554L294.933 47.1157C292.47 49.8867 288.16 49.8867 285.389 47.1157Z" fill="#FDF9FD"/>
<path d="M244.132 88.681C241.361 85.91 237.05 85.91 234.587 88.681L224.427 98.8415C221.656 101.612 221.656 105.923 224.427 108.386C227.198 111.157 231.508 111.157 233.971 108.386L244.132 98.2256C246.903 95.4546 246.903 91.1442 244.132 88.681Z" fill="#FDF9FD"/>
<path d="M285.389 88.681C288.16 85.91 292.47 85.91 294.933 88.681L305.094 98.8415C307.865 101.612 307.865 105.923 305.094 108.386C302.323 111.157 298.012 111.157 295.549 108.386L285.389 98.2256C282.926 95.4546 282.926 91.1442 285.389 88.681Z" fill="#FDF9FD"/>
<path d="M244.132 47.1157C246.903 44.3447 246.903 40.0342 244.132 37.5711L233.971 27.4108C231.2 24.6398 226.89 24.6398 224.427 27.4108C221.656 30.1818 221.656 34.4923 224.427 36.9554L234.587 47.1157C237.358 49.8867 241.669 49.8867 244.132 47.1157Z" fill="#FDF9FD"/>
<path d="M271.842 68.0523C271.842 71.747 268.763 74.8258 265.068 74.8258C261.373 74.8258 258.294 71.747 258.294 68.0523C258.294 64.3576 261.373 61.2787 265.068 61.2787C268.763 60.9708 271.842 64.0497 271.842 68.0523Z" fill="#FDF9FD"/>
<path fill-rule="evenodd" clip-rule="evenodd" d="M178.633 732.974C178.609 732.854 178.609 732.735 178.609 732.616C178.609 731.588 179.445 730.752 180.472 730.752C181.499 730.752 182.335 731.588 182.335 732.616C182.335 732.735 182.335 732.854 182.311 732.974L180.567 742.122L188.736 737.632C188.832 737.584 188.951 737.536 189.047 737.488C190.026 737.178 191.077 737.703 191.388 738.683C191.698 739.662 191.173 740.713 190.193 741.023C190.074 741.071 189.978 741.095 189.859 741.095L180.615 742.265L187.399 748.643C187.494 748.715 187.566 748.81 187.637 748.906C188.235 749.742 188.044 750.888 187.231 751.485C186.395 752.082 185.249 751.891 184.652 751.079C184.58 750.984 184.532 750.888 184.485 750.769L180.52 742.337L176.483 750.793C176.435 750.888 176.363 751.008 176.316 751.103C175.718 751.939 174.548 752.106 173.736 751.509C172.9 750.912 172.733 749.742 173.33 748.93C173.402 748.834 173.473 748.738 173.569 748.667L180.352 742.289L171.109 741.119C170.989 741.095 170.87 741.071 170.774 741.047C169.795 740.737 169.269 739.686 169.58 738.706C169.89 737.727 170.941 737.202 171.921 737.512C172.04 737.536 172.136 737.584 172.231 737.655L180.4 742.146L178.633 732.974Z" fill="#FED80E"/>
<path fill-rule="evenodd" clip-rule="evenodd" d="M180.448 724.303C180.448 724.303 181.952 716.421 181.952 713.053C181.952 712.217 181.284 711.548 180.448 711.548C179.612 711.548 178.943 712.217 178.943 713.053C178.967 716.421 180.448 724.303 180.448 724.303Z" fill="#FED80E"/>
<path d="M180.448 708.443C181.279 708.443 181.952 707.769 181.952 706.938C181.952 706.107 181.279 705.433 180.448 705.433C179.617 705.433 178.943 706.107 178.943 706.938C178.943 707.769 179.617 708.443 180.448 708.443Z" fill="#FED80E"/>
<path fill-rule="evenodd" clip-rule="evenodd" d="M189.357 726.716C189.357 726.716 194.588 720.649 196.284 717.735C196.69 717.018 196.451 716.11 195.735 715.68C195.018 715.274 194.111 715.513 193.681 716.23C191.985 719.168 189.357 726.716 189.357 726.716Z" fill="#FED80E"/>
<path fill-rule="evenodd" clip-rule="evenodd" d="M198.792 710.402C199.509 710.808 199.747 711.739 199.341 712.456C198.935 713.173 198.004 713.411 197.287 713.005C196.571 712.599 196.332 711.668 196.738 710.951C197.144 710.235 198.075 709.972 198.792 710.402Z" fill="#FED80E"/>
<path fill-rule="evenodd" clip-rule="evenodd" d="M195.854 733.284C195.854 733.284 203.426 730.633 206.34 728.961C207.056 728.555 207.295 727.623 206.889 726.907C206.483 726.19 205.552 725.951 204.835 726.357C201.921 728.053 195.854 733.284 195.854 733.284Z" fill="#FED80E"/>
<path fill-rule="evenodd" clip-rule="evenodd" d="M212.168 723.849C212.574 724.566 212.335 725.474 211.619 725.904C210.902 726.31 209.994 726.071 209.565 725.354C209.158 724.638 209.397 723.73 210.114 723.3C210.854 722.894 211.762 723.133 212.168 723.849Z" fill="#FED80E"/>
<path fill-rule="evenodd" clip-rule="evenodd" d="M198.195 742.194C198.195 742.194 206.077 743.699 209.445 743.699C210.281 743.699 210.95 743.03 210.95 742.194C210.95 741.358 210.281 740.689 209.445 740.689C206.077 740.689 198.195 742.194 198.195 742.194Z" fill="#FED80E"/>
<path fill-rule="evenodd" clip-rule="evenodd" d="M217.065 742.194C217.065 743.03 216.396 743.699 215.56 743.699C214.724 743.699 214.055 743.03 214.055 742.194C214.055 741.358 214.724 740.689 215.56 740.689C216.372 740.689 217.065 741.358 217.065 742.194Z" fill="#FED80E"/>
<path fill-rule="evenodd" clip-rule="evenodd" d="M195.759 751.103C195.759 751.103 201.826 756.334 204.74 758.03C205.456 758.436 206.364 758.197 206.794 757.481C207.2 756.764 206.961 755.856 206.245 755.426C203.331 753.73 195.759 751.103 195.759 751.103Z" fill="#FED80E"/>
<path fill-rule="evenodd" clip-rule="evenodd" d="M212.096 760.514C211.69 761.231 210.759 761.469 210.042 761.063C209.326 760.657 209.087 759.726 209.493 759.009C209.899 758.293 210.83 758.054 211.547 758.46C212.263 758.89 212.502 759.797 212.096 760.514Z" fill="#FED80E"/>
<path fill-rule="evenodd" clip-rule="evenodd" d="M189.214 757.576C189.214 757.576 191.865 765.148 193.537 768.062C193.943 768.779 194.875 769.017 195.591 768.611C196.308 768.205 196.547 767.274 196.141 766.557C194.445 763.643 189.214 757.576 189.214 757.576Z" fill="#FED80E"/>
<path fill-rule="evenodd" clip-rule="evenodd" d="M198.649 773.914C197.932 774.32 197.025 774.081 196.595 773.365C196.189 772.648 196.428 771.74 197.144 771.31C197.861 770.904 198.768 771.143 199.198 771.86C199.604 772.576 199.366 773.508 198.649 773.914Z" fill="#FED80E"/>
<path fill-rule="evenodd" clip-rule="evenodd" d="M180.305 759.941C180.305 759.941 178.8 767.823 178.8 771.191C178.8 772.027 179.469 772.696 180.305 772.696C181.141 772.696 181.809 772.027 181.809 771.191C181.809 767.799 180.305 759.941 180.305 759.941Z" fill="#FED80E"/>
<path fill-rule="evenodd" clip-rule="evenodd" d="M180.305 778.787C179.469 778.787 178.8 778.118 178.8 777.282C178.8 776.446 179.469 775.777 180.305 775.777C181.141 775.777 181.809 776.446 181.809 777.282C181.809 778.118 181.117 778.787 180.305 778.787Z" fill="#FED80E"/>
<path fill-rule="evenodd" clip-rule="evenodd" d="M171.395 757.505C171.395 757.505 166.164 763.572 164.468 766.486C164.062 767.202 164.301 768.11 165.018 768.54C165.734 768.946 166.642 768.707 167.072 767.99C168.768 765.076 171.395 757.505 171.395 757.505Z" fill="#FED80E"/>
<path fill-rule="evenodd" clip-rule="evenodd" d="M161.984 773.842C161.267 773.436 161.029 772.505 161.435 771.788C161.841 771.072 162.772 770.833 163.489 771.239C164.205 771.645 164.444 772.576 164.038 773.293C163.608 774.01 162.701 774.248 161.984 773.842Z" fill="#FED80E"/>
<path fill-rule="evenodd" clip-rule="evenodd" d="M164.922 750.96C164.922 750.96 157.35 753.611 154.436 755.283C153.72 755.689 153.481 756.621 153.887 757.337C154.293 758.054 155.224 758.293 155.941 757.887C158.831 756.191 164.922 750.96 164.922 750.96Z" fill="#FED80E"/>
<path fill-rule="evenodd" clip-rule="evenodd" d="M148.584 760.395C148.178 759.678 148.417 758.77 149.133 758.341C149.85 757.934 150.758 758.173 151.188 758.89C151.594 759.606 151.355 760.514 150.638 760.944C149.898 761.35 148.99 761.111 148.584 760.395Z" fill="#FED80E"/>
<path fill-rule="evenodd" clip-rule="evenodd" d="M162.557 742.027C162.557 742.027 154.675 740.522 151.307 740.522C150.471 740.522 149.802 741.191 149.802 742.027C149.802 742.863 150.471 743.531 151.307 743.531C154.699 743.531 162.557 742.027 162.557 742.027Z" fill="#FED80E"/>
<path d="M145.192 743.531C146.023 743.531 146.697 742.858 146.697 742.027C146.697 741.195 146.023 740.522 145.192 740.522C144.361 740.522 143.688 741.195 143.688 742.027C143.688 742.858 144.361 743.531 145.192 743.531Z" fill="#FED80E"/>
<path fill-rule="evenodd" clip-rule="evenodd" d="M164.994 733.141C164.994 733.141 158.927 727.91 156.013 726.214C155.296 725.808 154.388 726.047 153.959 726.764C153.552 727.48 153.791 728.388 154.508 728.818C157.422 730.49 164.994 733.141 164.994 733.141Z" fill="#FED80E"/>
<path fill-rule="evenodd" clip-rule="evenodd" d="M148.656 723.706C149.062 722.99 149.993 722.751 150.71 723.157C151.427 723.563 151.665 724.494 151.259 725.211C150.853 725.928 149.922 726.166 149.205 725.76C148.489 725.354 148.25 724.423 148.656 723.706Z" fill="#FED80E"/>
<path fill-rule="evenodd" clip-rule="evenodd" d="M171.538 726.644C171.538 726.644 168.887 719.072 167.215 716.158C166.809 715.442 165.877 715.203 165.161 715.609C164.444 716.015 164.205 716.946 164.611 717.663C166.307 720.577 171.538 726.644 171.538 726.644Z" fill="#FED80E"/>
<path fill-rule="evenodd" clip-rule="evenodd" d="M162.104 710.306C162.82 709.9 163.728 710.139 164.158 710.856C164.564 711.572 164.325 712.48 163.608 712.91C162.892 713.316 161.984 713.077 161.554 712.36C161.148 711.644 161.387 710.736 162.104 710.306Z" fill="#FED80E"/>
<path fill-rule="evenodd" clip-rule="evenodd" d="M193.824 692.177C195.281 692.559 196.164 694.088 195.758 695.545C195.376 697.002 193.848 697.886 192.391 697.48C190.934 697.097 190.05 695.569 190.456 694.112C190.838 692.655 192.343 691.795 193.824 692.177Z" fill="#FEA8E3"/>
<path fill-rule="evenodd" clip-rule="evenodd" d="M216.945 705.577C218.02 706.652 218.02 708.395 216.945 709.47C215.87 710.545 214.127 710.545 213.052 709.47C211.977 708.395 211.977 706.652 213.052 705.577C214.127 704.502 215.87 704.502 216.945 705.577Z" fill="#FEA8E3"/>
<path fill-rule="evenodd" clip-rule="evenodd" d="M230.274 728.77C230.656 730.227 229.796 731.756 228.339 732.138C226.882 732.52 225.353 731.66 224.971 730.203C224.589 728.746 225.449 727.217 226.906 726.835C228.363 726.429 229.892 727.289 230.274 728.77Z" fill="#FEA8E3"/>
<path fill-rule="evenodd" clip-rule="evenodd" d="M230.226 755.498C229.844 756.955 228.315 757.839 226.858 757.433C225.401 757.051 224.517 755.522 224.923 754.065C225.305 752.608 226.834 751.724 228.291 752.13C229.748 752.512 230.608 754.017 230.226 755.498Z" fill="#FEA8E3"/>
<path fill-rule="evenodd" clip-rule="evenodd" d="M216.826 778.619C215.751 779.694 214.007 779.694 212.933 778.619C211.858 777.545 211.858 775.801 212.933 774.726C214.007 773.651 215.751 773.651 216.826 774.726C217.901 775.801 217.901 777.545 216.826 778.619Z" fill="#FEA8E3"/>
<path fill-rule="evenodd" clip-rule="evenodd" d="M193.633 791.948C192.176 792.33 190.647 791.47 190.265 790.013C189.883 788.556 190.743 787.027 192.2 786.645C193.657 786.263 195.185 787.123 195.568 788.58C195.974 790.037 195.114 791.566 193.633 791.948Z" fill="#FEA8E3"/>
<path fill-rule="evenodd" clip-rule="evenodd" d="M166.905 791.9C165.448 791.518 164.564 789.989 164.97 788.532C165.352 787.075 166.881 786.191 168.338 786.597C169.795 786.979 170.679 788.508 170.273 789.965C169.89 791.422 168.386 792.282 166.905 791.9Z" fill="#FEA8E3"/>
<path fill-rule="evenodd" clip-rule="evenodd" d="M143.783 778.5C142.708 777.425 142.708 775.682 143.783 774.607C144.858 773.532 146.602 773.532 147.677 774.607C148.751 775.682 148.751 777.425 147.677 778.5C146.602 779.575 144.858 779.575 143.783 778.5Z" fill="#FEA8E3"/>
<path fill-rule="evenodd" clip-rule="evenodd" d="M130.455 755.307C130.073 753.85 130.933 752.321 132.39 751.939C133.847 751.557 135.375 752.417 135.758 753.874C136.14 755.331 135.28 756.86 133.823 757.242C132.366 757.648 130.837 756.788 130.455 755.307Z" fill="#FEA8E3"/>
<path fill-rule="evenodd" clip-rule="evenodd" d="M130.503 728.579C130.885 727.122 132.414 726.238 133.871 726.644C135.328 727.026 136.212 728.555 135.805 730.012C135.423 731.469 133.895 732.353 132.438 731.947C130.981 731.565 130.121 730.06 130.503 728.579Z" fill="#FEA8E3"/>
<path d="M145.861 710.139C147.378 710.139 148.608 708.909 148.608 707.392C148.608 705.875 147.378 704.645 145.861 704.645C144.344 704.645 143.114 705.875 143.114 707.392C143.114 708.909 144.344 710.139 145.861 710.139Z" fill="#FEA8E3"/>
<path fill-rule="evenodd" clip-rule="evenodd" d="M167.096 692.129C168.553 691.747 170.082 692.607 170.464 694.064C170.846 695.521 169.986 697.05 168.529 697.432C167.072 697.814 165.543 696.954 165.161 695.497C164.755 694.04 165.615 692.511 167.096 692.129Z" fill="#FEA8E3"/>
<path fill-rule="evenodd" clip-rule="evenodd" d="M1595.53 375.53L1599.23 388.392L1612.21 385.148L1602.87 394.766L1612.21 404.384L1599.23 401.14L1595.53 414.002L1591.83 401.14L1578.86 404.384L1588.19 394.766L1578.86 385.148L1591.83 388.392L1595.53 375.53Z" fill="#FED80E"/>
<path fill-rule="evenodd" clip-rule="evenodd" d="M1616.08 359.538C1616.08 359.538 1628.09 345.652 1631.96 338.937C1632.92 337.286 1632.35 335.181 1630.7 334.27C1629.05 333.303 1626.95 333.872 1626.04 335.522C1622.11 342.181 1616.08 359.538 1616.08 359.538Z" fill="#C2A5FA"/>
<path fill-rule="evenodd" clip-rule="evenodd" d="M1636.34 394.937C1636.34 394.937 1654.38 398.351 1662.12 398.351C1664 398.351 1665.53 396.815 1665.53 394.937C1665.53 393.059 1664 391.522 1662.12 391.522C1654.38 391.522 1636.34 394.937 1636.34 394.937Z" fill="#C2A5FA"/>
<path fill-rule="evenodd" clip-rule="evenodd" d="M1615.79 430.221C1615.79 430.221 1621.83 447.579 1625.69 454.237C1626.66 455.888 1628.77 456.457 1630.36 455.489C1632.01 454.522 1632.58 452.416 1631.61 450.823C1627.74 444.107 1615.79 430.221 1615.79 430.221Z" fill="#C2A5FA"/>
<path fill-rule="evenodd" clip-rule="evenodd" d="M1574.99 429.994C1574.99 429.994 1562.98 443.88 1559.11 450.595C1558.14 452.246 1558.71 454.351 1560.36 455.262C1562.01 456.229 1564.12 455.66 1565.03 454.01C1568.9 447.351 1574.99 429.994 1574.99 429.994Z" fill="#C2A5FA"/>
<path fill-rule="evenodd" clip-rule="evenodd" d="M1554.73 394.595C1554.73 394.595 1536.69 391.181 1528.95 391.181C1527.07 391.181 1525.53 392.717 1525.53 394.595C1525.53 396.473 1527.07 398.01 1528.95 398.01C1536.69 398.01 1554.73 394.595 1554.73 394.595Z" fill="#C2A5FA"/>
<path fill-rule="evenodd" clip-rule="evenodd" d="M1575.27 359.311C1575.27 359.311 1569.24 341.953 1565.37 335.294C1564.4 333.644 1562.3 333.075 1560.7 334.042C1559.05 335.01 1558.48 337.116 1559.45 338.709C1563.32 345.424 1575.27 359.311 1575.27 359.311Z" fill="#C2A5FA"/>
<path d="M98.1319 129C97.1319 129 96.8319 130.9 96.7319 134.3C96.7319 141.5 98.1319 163.2 98.1319 163.2C98.1319 163.2 99.5319 141.5 99.4319 134.3C99.5319 130.8 99.1319 129 98.1319 129Z" fill="#FF7777"/>
<path d="M98.1318 214.9C99.1318 214.9 99.4318 213 99.5318 209.6C99.5318 202.4 98.1318 180.7 98.1318 180.7C98.1318 180.7 96.7318 202.4 96.8318 209.6C96.8318 213 97.1318 214.9 98.1318 214.9Z" fill="#FF7777"/>
<path d="M141.132 171.9C141.132 170.9 139.232 170.6 135.832 170.5C128.632 170.5 106.932 171.9 106.932 171.9C106.932 171.9 128.632 173.3 135.832 173.2C139.232 173.3 141.132 172.9 141.132 171.9Z" fill="#FF7777"/>
<path d="M55.2319 171.9C55.2319 172.9 57.1319 173.2 60.5319 173.3C67.7319 173.3 89.4319 171.9 89.4319 171.9C89.4319 171.9 67.7319 170.5 60.5319 170.6C57.0319 170.6 55.2319 170.9 55.2319 171.9Z" fill="#FF7777"/>
<path d="M128.532 141.6C127.832 140.9 126.232 142 123.832 144.4C118.732 149.5 104.432 165.8 104.432 165.8C104.432 165.8 120.732 151.4 125.832 146.3C128.232 143.8 129.232 142.3 128.532 141.6Z" fill="#FF7777"/>
<path d="M67.8321 202.3C68.5321 203 70.1321 201.9 72.5321 199.5C77.6321 194.4 91.9321 178.1 91.9321 178.1C91.9321 178.1 75.6321 192.5 70.5321 197.6C68.1321 200.1 67.1321 201.6 67.8321 202.3Z" fill="#FF7777"/>
<path d="M128.532 202.3C129.232 201.6 128.132 200 125.732 197.6C120.632 192.5 104.332 178.2 104.332 178.2C104.332 178.2 118.732 194.5 123.832 199.6C126.332 202 127.832 203 128.532 202.3Z" fill="#FF7777"/>
<path d="M67.832 141.6C67.132 142.3 68.232 143.9 70.632 146.3C75.732 151.4 92.032 165.7 92.032 165.7C92.032 165.7 77.632 149.4 72.532 144.3C70.032 141.9 68.532 140.9 67.832 141.6Z" fill="#FF7777"/>
<path d="M110.332 140.9C109.632 140.6 108.832 141.9 107.832 144.4C105.732 149.6 100.632 165.7 100.632 165.7C100.632 165.7 107.832 150.4 109.832 145.1C110.732 142.6 111.032 141.2 110.332 140.9Z" fill="#FF7777"/>
<path d="M86.0321 203C86.7321 203.3 87.5321 202 88.5321 199.5C90.6321 194.3 95.7321 178.2 95.7321 178.2C95.7321 178.2 88.5321 193.5 86.5321 198.8C85.5321 201.3 85.3321 202.7 86.0321 203Z" fill="#FF7777"/>
<path d="M129.232 184.1C129.532 183.4 128.232 182.6 125.732 181.6C120.532 179.5 104.432 174.4 104.432 174.4C104.432 174.4 119.732 181.6 125.032 183.6C127.532 184.5 128.932 184.8 129.232 184.1Z" fill="#FF7777"/>
<path d="M67.1319 159.8C66.8319 160.5 68.1319 161.3 70.6319 162.3C75.8319 164.4 91.9319 169.5 91.9319 169.5C91.9319 169.5 76.6319 162.3 71.3319 160.3C68.8319 159.3 67.4319 159.1 67.1319 159.8Z" fill="#FF7777"/>
<path d="M128.732 158.6C128.432 157.9 127.032 158.2 124.532 159.3C119.432 161.5 104.432 169.3 104.432 169.3C104.432 169.3 120.332 163.5 125.432 161.2C127.832 160.1 129.032 159.3 128.732 158.6Z" fill="#FF7777"/>
<path d="M67.6317 185.3C67.9317 186 69.3317 185.7 71.8317 184.6C76.9317 182.4 91.9317 174.6 91.9317 174.6C91.9317 174.6 76.0317 180.4 70.9317 182.7C68.5317 183.8 67.3317 184.6 67.6317 185.3Z" fill="#FF7777"/>
<path d="M111.532 202.5C112.232 202.2 111.932 200.8 110.832 198.3C108.632 193.2 100.832 178.2 100.832 178.2C100.832 178.2 106.632 194.1 108.932 199.2C110.032 201.6 110.832 202.8 111.532 202.5Z" fill="#FF7777"/>
<path d="M84.8321 141.4C84.1321 141.7 84.4321 143.1 85.5321 145.6C87.7321 150.7 95.5321 165.7 95.5321 165.7C95.5321 165.7 89.7321 149.8 87.4321 144.7C86.3321 142.3 85.5321 141.1 84.8321 141.4Z" fill="#FF7777"/>
</svg>
