<svg width="53" height="64" viewBox="0 0 53 64" fill="none" xmlns="http://www.w3.org/2000/svg">
<path d="M20.7627 5.14868C30.6064 5.08032 37.9893 11.5061 37.9893 20.3928C37.9893 29.3479 30.6064 35.7053 20.7627 35.7053C10.9189 35.7053 3.46777 29.3479 3.46777 20.3928C3.46777 11.5061 10.9189 5.08032 20.7627 5.14868ZM20.7627 12.6682C15.8408 12.6682 12.0811 15.5393 12.1494 20.3928C12.0811 25.3147 15.8408 28.1174 20.7627 28.1174C25.6846 28.1174 29.4443 25.3147 29.5127 20.3928C29.4443 15.5393 25.7529 12.6682 20.7627 12.6682ZM52.8916 0.97876V63.3225H44.21V0.97876H52.8916ZM0.870117 43.4983C11.9443 43.5667 27.3252 43.3616 40.6553 41.5159L41.3389 47.8049C27.5303 50.4709 12.7646 50.6077 1.89551 50.6077L0.870117 43.4983Z" fill="#000543"/>
</svg>
