<svg width="578" height="93" viewBox="0 0 578 93" fill="none" xmlns="http://www.w3.org/2000/svg">
<path d="M531.221 0.328979H46.7788C21.2663 0.328979 0.696777 20.8985 0.696777 46.2515C0.696777 71.7641 21.2663 92.3335 46.7788 92.3335H531.221C556.574 92.3335 577.303 71.7641 577.303 46.2515C577.303 20.8985 556.574 0.328979 531.221 0.328979Z" fill="url(#paint0_linear_609_619)"/>
<path d="M46.7788 88.8256C23.3392 88.8256 4.36426 69.8506 4.36426 46.411C4.36426 22.9713 23.3392 3.9964 46.7788 3.9964H531.221C554.66 3.9964 573.635 22.9713 573.635 46.411C573.635 69.8506 554.66 88.8256 531.221 88.8256H46.7788Z" fill="url(#paint1_linear_609_619)"/>
<path d="M46.7788 88.8256C23.3392 88.8256 4.36426 69.8506 4.36426 46.411C4.36426 22.9713 23.3392 3.9964 46.7788 3.9964H531.221C554.66 3.9964 573.635 22.9713 573.635 46.411C573.635 69.8506 554.66 88.8256 531.221 88.8256H46.7788Z" fill="url(#paint2_linear_609_619)"/>
<path d="M526.872 81.8894C546.51 81.8894 562.43 65.9695 562.43 46.3313C562.43 26.6931 546.51 10.7732 526.872 10.7732C507.233 10.7732 491.313 26.6931 491.313 46.3313C491.313 65.9695 507.233 81.8894 526.872 81.8894Z" fill="url(#paint3_linear_609_619)"/>
<path d="M526.871 77.2652C543.956 77.2652 557.805 63.4156 557.805 46.3313C557.805 29.2469 543.956 15.3973 526.871 15.3973C509.787 15.3973 495.938 29.2469 495.938 46.3313C495.938 63.4156 509.787 77.2652 526.871 77.2652Z" fill="url(#paint4_linear_609_619)"/>
<mask id="mask0_609_619" style="mask-type:alpha" maskUnits="userSpaceOnUse" x="505" y="26" width="41" height="41">
<rect x="505.893" y="26.9316" width="40" height="40" fill="#D9D9D9"/>
</mask>
<g mask="url(#mask0_609_619)">
<path d="M515.149 59.4316L513.393 57.6752L532.469 38.5983H520.893V36.0983H536.726V51.9316H534.226V40.3547L515.149 59.4316Z" fill="white"/>
</g>
<path d="M48.457 33.5372H54.0684L59.6133 43.8966H59.8457L65.3574 33.5372H70.9688L62.2031 49.0099V57.5763H57.2227V49.0099L48.457 33.5372ZM73.5586 57.5763V33.5372H83.1211C88.4336 33.5372 91.0898 36.0939 91.0898 39.713C91.0898 42.5353 89.2637 44.295 86.7734 44.8595V45.0919C89.4961 45.2247 92.0527 47.3829 92.0527 50.9357C92.0527 54.754 89.1973 57.5763 83.752 57.5763H73.5586ZM82.7559 53.4591C85.6445 53.4591 86.873 52.2638 86.873 50.4708C86.873 48.4454 85.3457 47.0177 82.8887 47.0177H78.5391V53.4591H82.7559ZM82.3906 43.5978C84.4824 43.5978 86.043 42.4357 86.043 40.5099C86.043 38.7833 84.7812 37.588 82.4902 37.588H78.5391V43.5978H82.3906ZM95.207 33.5372H101.383L108.057 49.84H108.322L114.996 33.5372H121.172V57.5763H116.324V41.838H116.125L109.85 57.4767H106.529L100.254 41.7716H100.055V57.5763H95.207V33.5372ZM156.998 33.0392V35.9943C156.965 39.6798 156.965 43.8302 155.869 49.9064L151.719 49.5411C152.715 44.0128 152.748 39.8956 152.748 36.3927H134.652V33.0392H156.998ZM159.488 53.4923V56.9454H131.93V53.4923H137.807V43.9962H142.023V53.4923H145.344V43.9962H149.527V53.4923H159.488ZM178.314 33.4376V35.8615C178.281 38.7169 178.281 42.4357 177.484 47.4493L173.301 47.1173C173.981 42.7345 174.048 39.4972 174.098 36.8243H162.643V33.4376H178.314ZM170.777 42.1036V50.8693C173.749 50.7531 176.771 50.5372 179.543 50.172L179.809 53.3263C173.6 54.3888 166.727 54.4884 161.447 54.4552L161.049 51.0685C162.742 51.0519 164.635 51.0519 166.594 51.0021V42.1036H170.777ZM185.254 30.4161V42.5685H189.371V46.088H185.254V60.631H180.971V30.4161H185.254ZM202.121 37.256C202.121 42.9337 204.412 48.4454 209.459 50.6368L206.869 54.0236C203.516 52.38 201.274 49.3751 200.029 45.6564C198.701 49.6075 196.377 52.8448 192.924 54.5548L190.268 51.1017C195.447 48.7775 197.805 42.9337 197.838 37.256V32.7404H202.121V37.256ZM216.199 30.4161V60.6974H212.016V43.3322H206.072V39.9122H212.016V30.4161H216.199ZM241.666 51.2013C248.373 51.2345 252.158 52.8947 252.191 55.9493C252.158 59.0372 248.373 60.631 241.666 60.631C234.893 60.631 231.074 59.0372 231.074 55.9493C231.074 52.8947 234.893 51.2345 241.666 51.2013ZM241.666 54.2892C237.383 54.2892 235.424 54.8204 235.424 55.9493C235.424 57.1115 237.383 57.5763 241.666 57.5431C245.916 57.5763 247.875 57.1115 247.908 55.9493C247.875 54.8204 245.916 54.2892 241.666 54.2892ZM254.051 32.5743V35.7618H229.248V32.5743H239.574V30.1837H243.824V32.5743H254.051ZM241.699 36.5919C248.24 36.5919 251.859 38.0529 251.859 40.9415C251.859 43.4484 249.021 44.8927 243.824 45.1915V46.7521H255.479V50.0392H227.92V46.7521H239.574V45.1915C234.395 44.8927 231.506 43.4484 231.539 40.9415C231.506 38.0529 235.191 36.5919 241.699 36.5919ZM241.699 39.4474C237.881 39.4474 236.055 39.879 236.055 40.9415C236.055 41.9044 237.881 42.3693 241.699 42.3693C245.551 42.3693 247.311 41.9044 247.311 40.9415C247.311 39.879 245.551 39.4474 241.699 39.4474ZM284.963 53.6583V57.1115H257.305V53.6583H268.959V48.0802H260.227V32.3419H264.477V37.0236H277.658V32.3419H281.875V48.0802H273.176V53.6583H284.963ZM264.477 44.6935H277.658V40.4103H264.477V44.6935ZM303.623 32.6075V34.5001C303.623 36.5919 303.623 39.6134 302.926 43.3654L298.775 42.9669C299.307 40.0616 299.439 37.8702 299.473 36.0607H288.084V32.6075H303.623ZM296.119 39.5802V45.3575C299.124 45.2413 302.212 45.0089 305.051 44.5939L305.283 47.6486C299.008 48.8107 291.902 48.9103 286.656 48.9435L286.291 45.5568C287.984 45.5568 289.894 45.5568 291.902 45.4904V39.5802H296.119ZM311.027 30.4161V39.6134H314.68V43.1661H311.027V53.0275H306.678V30.4161H311.027ZM311.957 56.713V60.0997H290.74V51.0021H294.99V56.713H311.957ZM347.75 30.4161V41.7052H352.199V45.2579H347.75V60.631H343.5V30.4161H347.75ZM329.09 32.8068V40.1779H335.365V32.8068H339.582V53.6251H324.873V32.8068H329.09ZM329.09 50.2052H335.365V43.465H329.09V50.2052ZM380.953 53.7911V57.2775H353.295V53.7911H364.949V49.2423H356.482V39.0822H373.582V35.7618H356.449V32.3751H377.766V42.4025H360.732V45.7892H378.463V49.2423H369.166V53.7911H380.953ZM414.355 30.4161V42.004H418.639V45.4904H414.355V60.5646H410.105V30.4161H414.355ZM406.287 33.504C406.254 42.5353 402.734 50.3712 392.574 55.3517L390.184 52.0978C397.339 48.5118 401.174 43.6974 401.971 36.9572H391.91V33.504H406.287ZM445.301 30.4161V60.631H441.018V30.4161H445.301ZM436.236 33.5704C436.236 42.7345 433.016 50.338 422.225 55.4513L420 52.0646C427.803 48.379 431.239 43.5978 431.92 36.8907H421.627V33.5704H436.236Z" fill="#000543"/>
<defs>
<linearGradient id="paint0_linear_609_619" x1="218.952" y1="92.349" x2="218.952" y2="0.286886" gradientUnits="userSpaceOnUse">
<stop stop-color="#C7C9D6"/>
<stop offset="1" stop-color="white"/>
</linearGradient>
<linearGradient id="paint1_linear_609_619" x1="218.952" y1="88.7753" x2="218.952" y2="3.86022" gradientUnits="userSpaceOnUse">
<stop stop-color="white"/>
<stop offset="1" stop-color="#C7C9D6"/>
</linearGradient>
<linearGradient id="paint2_linear_609_619" x1="214.277" y1="-23.81" x2="218.793" y2="43.9249" gradientUnits="userSpaceOnUse">
<stop stop-color="#C7C9D6"/>
<stop offset="1" stop-color="white" stop-opacity="0"/>
</linearGradient>
<linearGradient id="paint3_linear_609_619" x1="526.949" y1="81.838" x2="526.949" y2="10.8559" gradientUnits="userSpaceOnUse">
<stop offset="0.0714286" stop-color="#29CCDE"/>
<stop offset="0.8333" stop-color="#5785E7"/>
</linearGradient>
<linearGradient id="paint4_linear_609_619" x1="516.833" y1="-24.9243" x2="526.885" y2="45.9025" gradientUnits="userSpaceOnUse">
<stop stop-color="white"/>
<stop offset="0.1788" stop-color="#FAFDFD" stop-opacity="0.8212"/>
<stop offset="0.3824" stop-color="#EDF5F8" stop-opacity="0.6176"/>
<stop offset="0.5982" stop-color="#D6EAEF" stop-opacity="0.4018"/>
<stop offset="0.821" stop-color="#B6D9E2" stop-opacity="0.179"/>
<stop offset="1" stop-color="#97C9D6" stop-opacity="0"/>
</linearGradient>
</defs>
</svg>
