<svg width="90" height="303" viewBox="0 0 90 303" fill="none" xmlns="http://www.w3.org/2000/svg">
<path d="M89.7966 185.538C89.7966 191.498 85.0068 196.266 79.0196 196.266H12.7963C6.80903 196.266 12.7966 191.498 12.7966 185.538V109.084C12.7966 103.124 -3.96809 98.3555 2.01917 98.3555L79.0196 98.3555C85.0068 98.3555 89.7966 103.124 89.7966 109.084V185.538Z" fill="#FF5348"/>
<path d="M79.7967 292.037C79.7967 297.998 75.0069 302.766 69.0196 302.766H15.4999C9.51261 302.766 12.7967 297.998 12.7967 292.037V225.583C12.7967 219.623 9.51261 214.855 15.4999 214.855H69.0196C75.0069 214.855 79.7967 219.623 79.7967 225.583V292.037Z" fill="#FF57A8"/>
<path d="M79.7965 77.6866C79.7965 83.6467 75.0067 88.4148 69.0195 88.4148H12.7966C6.80936 88.4148 12.7965 83.6467 12.7965 77.6866V11.2319C12.7965 5.27184 -3.96746 0.503784 2.0198 0.503784H69.0195C75.0067 0.503784 79.7965 5.27184 79.7965 11.2319V77.6866Z" fill="#FFC800"/>
</svg>
