<svg width="221" height="200" viewBox="0 0 221 200" fill="none" xmlns="http://www.w3.org/2000/svg">
<path opacity="0.1" d="M213.943 20.4227H71.3188C67.7437 20.4227 64.9346 23.2331 64.9346 26.8099V50.5704L10.4131 62.0674C7.34866 62.7061 5.3057 65.7719 5.94412 68.8378L32.3749 194.538C33.0134 197.604 36.0778 199.648 39.1422 199.009L144.61 176.782H213.815C217.391 176.782 220.2 173.971 220.2 170.394V26.8099C220.327 23.3608 217.391 20.4227 213.943 20.4227Z" fill="black"/>
<path d="M162.869 158.897C163.507 161.963 161.592 165.029 158.4 165.668L33.524 191.983C30.4596 192.622 27.3952 190.706 26.7568 187.512L0.325937 61.8118C-0.312488 58.7459 1.60279 55.6801 4.79491 55.0413L129.671 28.726C132.735 28.0873 135.8 30.0035 136.438 33.1971L162.869 158.897Z" fill="#7AC3CA"/>
<path d="M214.582 163.368C214.582 166.945 211.773 169.756 208.197 169.756H65.5732C61.998 169.756 59.189 166.945 59.189 163.368V19.7838C59.189 16.207 61.998 13.3966 65.5732 13.3966H208.197C211.773 13.3966 214.582 16.207 214.582 19.7838V163.368Z" fill="#E8DB67"/>
<path d="M200.919 68.4546H80.2568V70.1153H200.919V68.4546Z" fill="#515151"/>
<path d="M123.67 45.0771H80.2568V46.7378H123.67V45.0771Z" fill="#515151"/>
<path d="M104.517 148.933H80.2568V150.594H104.517V148.933Z" fill="#515151"/>
<path d="M200.919 79.3127H80.2568V80.9734H200.919V79.3127Z" fill="#515151"/>
<path d="M200.919 91.4484H80.2568V93.109H200.919V91.4484Z" fill="#515151"/>
<path d="M200.919 103.84H80.2568V105.5H200.919V103.84Z" fill="#515151"/>
<path d="M194.918 44.0553C194.79 43.6721 184.065 0.111328 172.318 0.111328C172.19 0.111328 172.062 0.111328 171.935 0.111328C169.253 0.366817 167.466 1.51651 166.444 3.43268C164.912 6.37079 165.806 10.5864 166.955 13.9077H169.636C168.487 10.7141 167.466 6.88177 168.615 4.58238C169.253 3.43268 170.402 2.79396 172.062 2.66621C172.19 2.66621 172.19 2.66621 172.318 2.66621C179.468 2.66621 189.555 31.9196 192.364 44.6941C193.386 49.1651 190.96 52.9974 188.15 54.1471C184.831 55.4246 181 53.1252 178.063 48.0154C169.381 32.6861 164.784 15.1852 164.784 14.9297C164.656 14.2909 163.89 13.78 163.252 14.0354C162.613 14.1632 162.103 14.9297 162.358 15.5684C162.358 15.6961 167.082 33.5803 175.893 49.2929C179.468 55.6801 183.554 56.9575 186.235 56.9575C187.512 56.9575 188.534 56.702 189.044 56.4465C193.513 54.6581 196.067 49.4206 194.918 44.0553Z" fill="#515151"/>
<path d="M175.637 9.43665C175.382 8.92567 174.871 8.67018 174.36 8.92567C173.85 9.18116 173.594 9.69212 173.85 10.2031L175.382 13.9077H177.553L175.637 9.43665Z" fill="#515151"/>
</svg>
