<svg width="813" height="100" viewBox="0 0 813 100" fill="none" xmlns="http://www.w3.org/2000/svg">
<path d="M42.0156 78.1062C42.0156 89.5607 32.7884 99.1062 21.0156 99.1062C9.56108 99.1062 0.015625 89.5607 0.015625 78.1062C0.015625 66.6517 9.56108 57.1062 21.0156 57.1062C32.4702 57.1062 42.0156 66.6517 42.0156 78.1062Z" fill="url(#paint0_radial_609_690)"/>
<path d="M32.7881 79.379C32.7881 85.7426 27.6972 91.1517 21.0154 91.1517C14.6518 91.1517 9.24268 86.0608 9.24268 79.379V12.1062C9.24268 5.74259 14.3336 0.333496 21.0154 0.333496C27.379 0.333496 32.7881 5.42441 32.7881 12.1062V79.379Z" fill="url(#paint1_linear_609_690)"/>
<path d="M127.571 78.1062C127.571 89.5607 118.344 99.1062 106.571 99.1062C95.1167 99.1062 85.5713 89.5607 85.5713 78.1062C85.5713 66.6517 95.1167 57.1062 106.571 57.1062C118.026 57.1062 127.571 66.6517 127.571 78.1062Z" fill="url(#paint2_radial_609_690)"/>
<path d="M118.344 79.379C118.344 85.7426 113.253 91.1517 106.571 91.1517C100.207 91.1517 94.7983 86.0608 94.7983 79.379V12.1062C94.7983 5.74259 99.8892 0.333496 106.571 0.333496C112.935 0.333496 118.344 5.42441 118.344 12.1062V79.379Z" fill="url(#paint3_linear_609_690)"/>
<path d="M213.127 78.1062C213.127 89.5607 203.9 99.1062 192.127 99.1062C180.672 99.1062 171.127 89.5607 171.127 78.1062C171.127 66.6517 180.672 57.1062 192.127 57.1062C203.581 57.1062 213.127 66.6517 213.127 78.1062Z" fill="url(#paint4_radial_609_690)"/>
<path d="M203.899 79.379C203.899 85.7426 198.809 91.1517 192.127 91.1517C185.763 91.1517 180.354 86.0608 180.354 79.379V12.1062C180.354 5.74259 185.445 0.333496 192.127 0.333496C198.49 0.333496 203.899 5.42441 203.899 12.1062V79.379Z" fill="url(#paint5_linear_609_690)"/>
<path d="M298.683 78.1062C298.683 89.5607 289.455 99.1062 277.683 99.1062C266.228 99.1062 256.683 89.5607 256.683 78.1062C256.683 66.6517 266.228 57.1062 277.683 57.1062C289.137 57.1062 298.683 66.6517 298.683 78.1062Z" fill="url(#paint6_radial_609_690)"/>
<path d="M289.455 79.379C289.455 85.7426 284.364 91.1517 277.682 91.1517C271.319 91.1517 265.91 86.0608 265.91 79.379V12.1062C265.91 5.74259 271.001 0.333496 277.682 0.333496C284.046 0.333496 289.455 5.42441 289.455 12.1062V79.379Z" fill="url(#paint7_linear_609_690)"/>
<path d="M384.238 78.1062C384.238 89.5607 375.011 99.1062 363.238 99.1062C351.784 99.1062 342.238 89.5607 342.238 78.1062C342.238 66.6517 351.784 57.1062 363.238 57.1062C374.693 57.1062 384.238 66.6517 384.238 78.1062Z" fill="url(#paint8_radial_609_690)"/>
<path d="M375.011 79.379C375.011 85.7426 369.92 91.1517 363.238 91.1517C356.874 91.1517 351.465 86.0608 351.465 79.379V12.1062C351.465 5.74259 356.556 0.333496 363.238 0.333496C369.602 0.333496 375.011 5.42441 375.011 12.1062V79.379Z" fill="url(#paint9_linear_609_690)"/>
<path d="M469.794 78.1062C469.794 89.5607 460.567 99.1062 448.794 99.1062C437.339 99.1062 427.794 89.5607 427.794 78.1062C427.794 66.6517 437.339 57.1062 448.794 57.1062C460.248 57.1062 469.794 66.6517 469.794 78.1062Z" fill="url(#paint10_radial_609_690)"/>
<path d="M460.566 79.379C460.566 85.7426 455.476 91.1517 448.794 91.1517C442.43 91.1517 437.021 86.0608 437.021 79.379V12.1062C437.021 5.74259 442.112 0.333496 448.794 0.333496C455.157 0.333496 460.566 5.42441 460.566 12.1062V79.379Z" fill="url(#paint11_linear_609_690)"/>
<path d="M555.35 78.1062C555.35 89.5607 546.122 99.1062 534.35 99.1062C522.895 99.1062 513.35 89.5607 513.35 78.1062C513.35 66.6517 522.895 57.1062 534.35 57.1062C545.804 57.1062 555.35 66.6517 555.35 78.1062Z" fill="url(#paint12_radial_609_690)"/>
<path d="M546.122 79.379C546.122 85.7426 541.031 91.1517 534.349 91.1517C527.986 91.1517 522.577 86.0608 522.577 79.379V12.1062C522.577 5.74259 527.668 0.333496 534.349 0.333496C540.713 0.333496 546.122 5.42441 546.122 12.1062V79.379Z" fill="url(#paint13_linear_609_690)"/>
<path d="M640.905 78.1062C640.905 89.5607 631.678 99.1062 619.905 99.1062C608.451 99.1062 598.905 89.5607 598.905 78.1062C598.905 66.6517 608.451 57.1062 619.905 57.1062C631.36 57.1062 640.905 66.6517 640.905 78.1062Z" fill="url(#paint14_radial_609_690)"/>
<path d="M631.678 79.379C631.678 85.7426 626.587 91.1517 619.905 91.1517C613.541 91.1517 608.132 86.0608 608.132 79.379V12.1062C608.132 5.74259 613.223 0.333496 619.905 0.333496C626.269 0.333496 631.678 5.42441 631.678 12.1062V79.379Z" fill="url(#paint15_linear_609_690)"/>
<path d="M726.461 78.1062C726.461 89.5607 717.234 99.1062 705.461 99.1062C694.006 99.1062 684.461 89.5607 684.461 78.1062C684.461 66.6517 694.006 57.1062 705.461 57.1062C716.915 57.1062 726.461 66.6517 726.461 78.1062Z" fill="url(#paint16_radial_609_690)"/>
<path d="M717.233 79.379C717.233 85.7426 712.143 91.1517 705.461 91.1517C699.097 91.1517 693.688 86.0608 693.688 79.379V12.1062C693.688 5.74259 698.779 0.333496 705.461 0.333496C711.824 0.333496 717.233 5.42441 717.233 12.1062V79.379Z" fill="url(#paint17_linear_609_690)"/>
<path d="M812.017 78.1062C812.017 89.5607 802.789 99.1062 791.017 99.1062C779.562 99.1062 770.017 89.5607 770.017 78.1062C770.017 66.6517 779.562 57.1062 791.017 57.1062C802.471 57.1062 812.017 66.6517 812.017 78.1062Z" fill="url(#paint18_radial_609_690)"/>
<path d="M802.789 79.379C802.789 85.7426 797.698 91.1517 791.016 91.1517C784.653 91.1517 779.244 86.0608 779.244 79.379V12.1062C779.244 5.74259 784.335 0.333496 791.016 0.333496C797.38 0.333496 802.789 5.42441 802.789 12.1062V79.379Z" fill="url(#paint19_linear_609_690)"/>
<defs>
<radialGradient id="paint0_radial_609_690" cx="0" cy="0" r="1" gradientUnits="userSpaceOnUse" gradientTransform="translate(20.9739 78.0667) scale(20.9567)">
<stop offset="0.6538" stop-color="#F09C26"/>
<stop offset="0.7177" stop-color="#F09E27"/>
<stop offset="0.7408" stop-color="#F1A52B"/>
<stop offset="0.7572" stop-color="#F1B032"/>
<stop offset="0.7704" stop-color="#F3C13C"/>
<stop offset="0.7817" stop-color="#F4D748"/>
<stop offset="0.7857" stop-color="#F5E14E"/>
<stop offset="0.8626" stop-color="#F5E14E"/>
<stop offset="1" stop-color="#F0B326"/>
</radialGradient>
<linearGradient id="paint1_linear_609_690" x1="9.30918" y1="50.7324" x2="32.6446" y2="50.7324" gradientUnits="userSpaceOnUse">
<stop stop-color="#D6EBFF"/>
<stop offset="1" stop-color="#B8D0FF"/>
</linearGradient>
<radialGradient id="paint2_radial_609_690" cx="0" cy="0" r="1" gradientUnits="userSpaceOnUse" gradientTransform="translate(106.53 78.0667) scale(20.9567)">
<stop offset="0.6538" stop-color="#F09C26"/>
<stop offset="0.7177" stop-color="#F09E27"/>
<stop offset="0.7408" stop-color="#F1A52B"/>
<stop offset="0.7572" stop-color="#F1B032"/>
<stop offset="0.7704" stop-color="#F3C13C"/>
<stop offset="0.7817" stop-color="#F4D748"/>
<stop offset="0.7857" stop-color="#F5E14E"/>
<stop offset="0.8626" stop-color="#F5E14E"/>
<stop offset="1" stop-color="#F0B326"/>
</radialGradient>
<linearGradient id="paint3_linear_609_690" x1="94.8648" y1="50.7324" x2="118.2" y2="50.7324" gradientUnits="userSpaceOnUse">
<stop stop-color="#D6EBFF"/>
<stop offset="1" stop-color="#B8D0FF"/>
</linearGradient>
<radialGradient id="paint4_radial_609_690" cx="0" cy="0" r="1" gradientUnits="userSpaceOnUse" gradientTransform="translate(192.085 78.0667) scale(20.9567)">
<stop offset="0.6538" stop-color="#F09C26"/>
<stop offset="0.7177" stop-color="#F09E27"/>
<stop offset="0.7408" stop-color="#F1A52B"/>
<stop offset="0.7572" stop-color="#F1B032"/>
<stop offset="0.7704" stop-color="#F3C13C"/>
<stop offset="0.7817" stop-color="#F4D748"/>
<stop offset="0.7857" stop-color="#F5E14E"/>
<stop offset="0.8626" stop-color="#F5E14E"/>
<stop offset="1" stop-color="#F0B326"/>
</radialGradient>
<linearGradient id="paint5_linear_609_690" x1="180.421" y1="50.7324" x2="203.756" y2="50.7324" gradientUnits="userSpaceOnUse">
<stop stop-color="#D6EBFF"/>
<stop offset="1" stop-color="#B8D0FF"/>
</linearGradient>
<radialGradient id="paint6_radial_609_690" cx="0" cy="0" r="1" gradientUnits="userSpaceOnUse" gradientTransform="translate(277.641 78.0667) scale(20.9567)">
<stop offset="0.6538" stop-color="#F09C26"/>
<stop offset="0.7177" stop-color="#F09E27"/>
<stop offset="0.7408" stop-color="#F1A52B"/>
<stop offset="0.7572" stop-color="#F1B032"/>
<stop offset="0.7704" stop-color="#F3C13C"/>
<stop offset="0.7817" stop-color="#F4D748"/>
<stop offset="0.7857" stop-color="#F5E14E"/>
<stop offset="0.8626" stop-color="#F5E14E"/>
<stop offset="1" stop-color="#F0B326"/>
</radialGradient>
<linearGradient id="paint7_linear_609_690" x1="265.976" y1="50.7324" x2="289.312" y2="50.7324" gradientUnits="userSpaceOnUse">
<stop stop-color="#D6EBFF"/>
<stop offset="1" stop-color="#B8D0FF"/>
</linearGradient>
<radialGradient id="paint8_radial_609_690" cx="0" cy="0" r="1" gradientUnits="userSpaceOnUse" gradientTransform="translate(363.197 78.0667) scale(20.9567)">
<stop offset="0.6538" stop-color="#F09C26"/>
<stop offset="0.7177" stop-color="#F09E27"/>
<stop offset="0.7408" stop-color="#F1A52B"/>
<stop offset="0.7572" stop-color="#F1B032"/>
<stop offset="0.7704" stop-color="#F3C13C"/>
<stop offset="0.7817" stop-color="#F4D748"/>
<stop offset="0.7857" stop-color="#F5E14E"/>
<stop offset="0.8626" stop-color="#F5E14E"/>
<stop offset="1" stop-color="#F0B326"/>
</radialGradient>
<linearGradient id="paint9_linear_609_690" x1="351.532" y1="50.7324" x2="374.867" y2="50.7324" gradientUnits="userSpaceOnUse">
<stop stop-color="#D6EBFF"/>
<stop offset="1" stop-color="#B8D0FF"/>
</linearGradient>
<radialGradient id="paint10_radial_609_690" cx="0" cy="0" r="1" gradientUnits="userSpaceOnUse" gradientTransform="translate(448.752 78.0667) scale(20.9567)">
<stop offset="0.6538" stop-color="#F09C26"/>
<stop offset="0.7177" stop-color="#F09E27"/>
<stop offset="0.7408" stop-color="#F1A52B"/>
<stop offset="0.7572" stop-color="#F1B032"/>
<stop offset="0.7704" stop-color="#F3C13C"/>
<stop offset="0.7817" stop-color="#F4D748"/>
<stop offset="0.7857" stop-color="#F5E14E"/>
<stop offset="0.8626" stop-color="#F5E14E"/>
<stop offset="1" stop-color="#F0B326"/>
</radialGradient>
<linearGradient id="paint11_linear_609_690" x1="437.087" y1="50.7324" x2="460.423" y2="50.7324" gradientUnits="userSpaceOnUse">
<stop stop-color="#D6EBFF"/>
<stop offset="1" stop-color="#B8D0FF"/>
</linearGradient>
<radialGradient id="paint12_radial_609_690" cx="0" cy="0" r="1" gradientUnits="userSpaceOnUse" gradientTransform="translate(534.308 78.0667) scale(20.9567)">
<stop offset="0.6538" stop-color="#F09C26"/>
<stop offset="0.7177" stop-color="#F09E27"/>
<stop offset="0.7408" stop-color="#F1A52B"/>
<stop offset="0.7572" stop-color="#F1B032"/>
<stop offset="0.7704" stop-color="#F3C13C"/>
<stop offset="0.7817" stop-color="#F4D748"/>
<stop offset="0.7857" stop-color="#F5E14E"/>
<stop offset="0.8626" stop-color="#F5E14E"/>
<stop offset="1" stop-color="#F0B326"/>
</radialGradient>
<linearGradient id="paint13_linear_609_690" x1="522.643" y1="50.7324" x2="545.979" y2="50.7324" gradientUnits="userSpaceOnUse">
<stop stop-color="#D6EBFF"/>
<stop offset="1" stop-color="#B8D0FF"/>
</linearGradient>
<radialGradient id="paint14_radial_609_690" cx="0" cy="0" r="1" gradientUnits="userSpaceOnUse" gradientTransform="translate(619.864 78.0667) scale(20.9567)">
<stop offset="0.6538" stop-color="#F09C26"/>
<stop offset="0.7177" stop-color="#F09E27"/>
<stop offset="0.7408" stop-color="#F1A52B"/>
<stop offset="0.7572" stop-color="#F1B032"/>
<stop offset="0.7704" stop-color="#F3C13C"/>
<stop offset="0.7817" stop-color="#F4D748"/>
<stop offset="0.7857" stop-color="#F5E14E"/>
<stop offset="0.8626" stop-color="#F5E14E"/>
<stop offset="1" stop-color="#F0B326"/>
</radialGradient>
<linearGradient id="paint15_linear_609_690" x1="608.199" y1="50.7324" x2="631.534" y2="50.7324" gradientUnits="userSpaceOnUse">
<stop stop-color="#D6EBFF"/>
<stop offset="1" stop-color="#B8D0FF"/>
</linearGradient>
<radialGradient id="paint16_radial_609_690" cx="0" cy="0" r="1" gradientUnits="userSpaceOnUse" gradientTransform="translate(705.419 78.0667) scale(20.9567)">
<stop offset="0.6538" stop-color="#F09C26"/>
<stop offset="0.7177" stop-color="#F09E27"/>
<stop offset="0.7408" stop-color="#F1A52B"/>
<stop offset="0.7572" stop-color="#F1B032"/>
<stop offset="0.7704" stop-color="#F3C13C"/>
<stop offset="0.7817" stop-color="#F4D748"/>
<stop offset="0.7857" stop-color="#F5E14E"/>
<stop offset="0.8626" stop-color="#F5E14E"/>
<stop offset="1" stop-color="#F0B326"/>
</radialGradient>
<linearGradient id="paint17_linear_609_690" x1="693.754" y1="50.7324" x2="717.09" y2="50.7324" gradientUnits="userSpaceOnUse">
<stop stop-color="#D6EBFF"/>
<stop offset="1" stop-color="#B8D0FF"/>
</linearGradient>
<radialGradient id="paint18_radial_609_690" cx="0" cy="0" r="1" gradientUnits="userSpaceOnUse" gradientTransform="translate(790.975 78.0667) scale(20.9567)">
<stop offset="0.6538" stop-color="#F09C26"/>
<stop offset="0.7177" stop-color="#F09E27"/>
<stop offset="0.7408" stop-color="#F1A52B"/>
<stop offset="0.7572" stop-color="#F1B032"/>
<stop offset="0.7704" stop-color="#F3C13C"/>
<stop offset="0.7817" stop-color="#F4D748"/>
<stop offset="0.7857" stop-color="#F5E14E"/>
<stop offset="0.8626" stop-color="#F5E14E"/>
<stop offset="1" stop-color="#F0B326"/>
</radialGradient>
<linearGradient id="paint19_linear_609_690" x1="779.31" y1="50.7324" x2="802.646" y2="50.7324" gradientUnits="userSpaceOnUse">
<stop stop-color="#D6EBFF"/>
<stop offset="1" stop-color="#B8D0FF"/>
</linearGradient>
</defs>
</svg>
