<svg width="176" height="186" viewBox="0 0 176 186" fill="none" xmlns="http://www.w3.org/2000/svg">
<g filter="url(#filter0_d_609_1008)">
<path d="M119.244 115.642L111.517 108.373L144.573 73.7402L137.275 66.4715L144.573 58.7753L155.95 69.4645C157.023 70.5334 157.667 71.8161 157.667 73.0988C157.667 74.5953 157.238 75.878 156.164 76.9469L119.244 115.642Z" fill="url(#paint0_linear_609_1008)"/>
<path d="M22.0329 168.479C24.394 166.127 24.1794 162.279 21.8182 159.927C19.4571 157.576 15.5934 157.79 13.2322 160.141L2.49971 171.472C0.13856 173.823 0.353211 177.672 2.71436 180.023C5.07551 182.375 8.93922 182.161 11.3004 179.809L22.0329 168.479Z" fill="url(#paint1_linear_609_1008)"/>
<path d="M171.796 34.831C178.021 28.2037 175.874 16.018 167.074 7.68043C158.058 -0.657157 145.823 -1.93986 139.598 4.68745L136.164 8.32178C129.939 14.9491 132.086 27.1348 140.886 35.4724C149.902 43.81 162.137 45.0927 168.361 38.4654L171.796 34.831Z" fill="url(#paint2_linear_609_1008)"/>
<path d="M54.6595 158.217C61.5283 150.948 59.8111 138.335 50.7958 129.998C41.9952 121.874 29.1162 120.805 22.2474 128.074L18.3837 132.135C11.5148 139.404 3.35814 162.493 12.1588 170.83C21.1741 179.168 43.7124 169.548 50.5812 162.279L54.6595 158.217Z" fill="url(#paint3_radial_609_1008)"/>
<path d="M157.238 49.7962L125.04 19.6526L22.6768 127.432L55.0889 157.576L157.238 49.7962Z" fill="url(#paint4_linear_609_1008)"/>
<path d="M156.341 51.5062L123.929 21.3627L134.662 10.0321L167.074 40.1757L156.341 51.5062Z" fill="url(#paint5_linear_609_1008)"/>
</g>
<defs>
<filter id="filter0_d_609_1008" x="0.83252" y="0.457886" width="174.529" height="185.226" filterUnits="userSpaceOnUse" color-interpolation-filters="sRGB">
<feFlood flood-opacity="0" result="BackgroundImageFix"/>
<feColorMatrix in="SourceAlpha" type="matrix" values="0 0 0 0 0 0 0 0 0 0 0 0 0 0 0 0 0 0 127 0" result="hardAlpha"/>
<feOffset dy="4"/>
<feComposite in2="hardAlpha" operator="out"/>
<feColorMatrix type="matrix" values="0 0 0 0 0 0 0 0 0 0 0 0 0 0 0 0 0 0 0.12 0"/>
<feBlend mode="normal" in2="BackgroundImageFix" result="effect1_dropShadow_609_1008"/>
<feBlend mode="normal" in="SourceGraphic" in2="effect1_dropShadow_609_1008" result="shape"/>
</filter>
<linearGradient id="paint0_linear_609_1008" x1="111.646" y1="87.2498" x2="157.61" y2="87.2498" gradientUnits="userSpaceOnUse">
<stop stop-color="#919CFF"/>
<stop offset="0.3661" stop-color="#7583E7"/>
<stop offset="0.6309" stop-color="#6675DA"/>
<stop offset="1" stop-color="#7B88EC"/>
</linearGradient>
<linearGradient id="paint1_linear_609_1008" x1="8.06001" y1="165.902" x2="17.8596" y2="175.476" gradientUnits="userSpaceOnUse">
<stop stop-color="#919CFF"/>
<stop offset="0.3661" stop-color="#7583E7"/>
<stop offset="0.6309" stop-color="#6675DA"/>
<stop offset="1" stop-color="#7B88EC"/>
</linearGradient>
<linearGradient id="paint2_linear_609_1008" x1="138.637" y1="8.27774" x2="171.487" y2="37.0046" gradientUnits="userSpaceOnUse">
<stop stop-color="#F8ABD3"/>
<stop offset="1" stop-color="#F081A5"/>
</linearGradient>
<radialGradient id="paint3_radial_609_1008" cx="0" cy="0" r="1" gradientUnits="userSpaceOnUse" gradientTransform="translate(20.6785 151.58) scale(39.8829 39.722)">
<stop stop-color="#919CFF"/>
<stop offset="0.5802" stop-color="#7583E7"/>
<stop offset="1" stop-color="#6675DA"/>
</radialGradient>
<linearGradient id="paint4_linear_609_1008" x1="80.1619" y1="64.0118" x2="113.463" y2="98.8415" gradientUnits="userSpaceOnUse">
<stop stop-color="#B8DEFF"/>
<stop offset="0.147" stop-color="#B1D6FD"/>
<stop offset="1" stop-color="#8EAEF5"/>
</linearGradient>
<linearGradient id="paint5_linear_609_1008" x1="123.982" y1="30.7777" x2="166.992" y2="30.7777" gradientUnits="userSpaceOnUse">
<stop stop-color="#919CFF"/>
<stop offset="0.3661" stop-color="#7583E7"/>
<stop offset="0.6309" stop-color="#6675DA"/>
<stop offset="1" stop-color="#7B88EC"/>
</linearGradient>
</defs>
</svg>
