<svg width="1920" height="1076" viewBox="0 0 1920 1076" fill="none" xmlns="http://www.w3.org/2000/svg">
<g clip-path="url(#clip0_636_54)">
<path d="M0 -2V1023.51C18.9505 1023.51 27.8628 1032.22 40.1525 1044.32C54.506 1058.38 72.3307 1076 106.667 1076C141.003 1076 158.827 1058.47 173.181 1044.32C185.471 1032.22 194.383 1023.51 213.333 1023.51C232.284 1023.51 241.196 1032.22 253.486 1044.32C267.839 1058.38 285.664 1076 320 1076C354.336 1076 372.161 1058.47 386.514 1044.32C398.804 1032.22 407.716 1023.51 426.667 1023.51C445.617 1023.51 454.53 1032.22 466.819 1044.32C481.173 1058.38 498.997 1076 533.333 1076C567.669 1076 585.494 1058.47 599.848 1044.32C612.137 1032.22 621.05 1023.51 640 1023.51C658.951 1023.51 667.863 1032.22 680.152 1044.32C694.506 1058.38 712.331 1076 746.667 1076C781.003 1076 798.827 1058.47 813.181 1044.32C825.471 1032.22 834.383 1023.51 853.333 1023.51C872.284 1023.51 881.196 1032.22 893.486 1044.32C907.839 1058.38 925.664 1076 960 1076C994.336 1076 1012.16 1058.47 1026.51 1044.32C1038.8 1032.22 1047.72 1023.51 1066.67 1023.51C1085.62 1023.51 1094.53 1032.22 1106.82 1044.32C1121.17 1058.38 1139 1076 1173.33 1076C1207.67 1076 1225.49 1058.47 1239.85 1044.32C1252.14 1032.22 1261.05 1023.51 1280 1023.51C1298.95 1023.51 1307.86 1032.22 1320.15 1044.32C1334.51 1058.38 1352.33 1076 1386.67 1076C1421 1076 1438.83 1058.47 1453.18 1044.32C1465.47 1032.22 1474.38 1023.51 1493.33 1023.51C1512.28 1023.51 1521.2 1032.22 1533.49 1044.32C1547.84 1058.38 1565.66 1076 1600 1076C1634.34 1076 1652.16 1058.47 1666.51 1044.32C1678.8 1032.22 1687.72 1023.51 1706.67 1023.51C1725.62 1023.51 1734.53 1032.22 1746.82 1044.32C1761.17 1058.38 1779 1076 1813.33 1076C1847.67 1076 1865.49 1058.47 1879.85 1044.32C1892.14 1032.22 1901.05 1023.51 1920 1023.51V-2H0Z" fill="#6177F1"/>
<g opacity="0.2">
<path d="M114.066 796.004C109.448 796.004 105.753 792.31 105.753 787.691C105.753 783.073 109.448 779.378 114.066 779.378C118.684 779.378 122.379 783.073 122.379 787.691C122.687 792.31 118.684 796.004 114.066 796.004Z" fill="#FDF9FD"/>
<path d="M114.066 825.87C118.657 825.87 122.379 822.148 122.379 817.556C122.379 812.965 118.657 809.244 114.066 809.244C109.475 809.244 105.753 812.965 105.753 817.556C105.753 822.148 109.475 825.87 114.066 825.87Z" fill="#FDF9FD"/>
<path d="M114.066 856.043C118.657 856.043 122.379 852.321 122.379 847.73C122.379 843.139 118.657 839.417 114.066 839.417C109.475 839.417 105.753 843.139 105.753 847.73C105.753 852.321 109.475 856.043 114.066 856.043Z" fill="#FDF9FD"/>
<path d="M84.2012 796.004C79.5829 796.004 75.8882 792.31 75.8882 787.691C75.8882 783.073 79.5829 779.378 84.2012 779.378C88.8195 779.378 92.5142 783.073 92.5142 787.691C92.5142 792.31 88.8195 796.004 84.2012 796.004Z" fill="#FDF9FD"/>
<path d="M84.2012 826.178C79.5829 826.178 75.8882 822.483 75.8882 817.865C75.8882 813.246 79.5829 809.552 84.2012 809.552C88.8195 809.552 92.5142 813.246 92.5142 817.865C92.5142 822.483 88.8195 826.178 84.2012 826.178Z" fill="#FDF9FD"/>
<path d="M84.2012 856.043C79.5829 856.043 75.8882 852.348 75.8882 847.73C75.8882 843.112 79.5829 839.417 84.2012 839.417C88.8195 839.417 92.5142 843.112 92.5142 847.73C92.5142 852.348 88.8195 856.043 84.2012 856.043Z" fill="#FDF9FD"/>
</g>
<path d="M1626.14 367.409C1626.14 371.719 1622.44 375.414 1618.13 375.414C1613.82 375.414 1610.13 371.719 1610.13 367.409C1610.13 363.099 1613.82 359.404 1618.13 359.404C1622.44 359.404 1626.14 363.099 1626.14 367.409Z" fill="#25C7E4"/>
<path d="M354.073 560.449C354.073 564.76 357.768 568.455 362.078 568.455C366.389 568.455 370.084 564.76 370.084 560.449C370.084 556.139 366.389 552.444 362.078 552.444C357.768 552.444 354.073 555.831 354.073 560.449Z" fill="#25C7E4"/>
<path d="M1837.31 654.067C1833.93 656.222 1829.61 655.299 1827.46 651.912C1825.3 648.525 1826.23 644.215 1829.61 642.06C1833 639.904 1837.31 640.828 1839.47 644.215C1841.62 647.294 1840.7 651.912 1837.31 654.067Z" fill="#96C3F9"/>
<g opacity="0.3">
<path d="M1571.06 751.238C1568.29 751.238 1566.14 749.083 1566.14 746.312V735.536C1566.14 732.765 1568.29 730.61 1571.06 730.61C1573.84 730.61 1575.99 732.765 1575.99 735.536V746.004C1576.3 748.775 1574.14 751.238 1571.06 751.238Z" fill="#FDF9FD"/>
<path d="M1571.06 794.343C1568.29 794.343 1566.14 796.498 1566.14 799.269V809.737C1566.14 812.508 1568.29 814.663 1571.06 814.663C1573.84 814.663 1575.99 812.508 1575.99 809.737V799.269C1576.3 796.806 1574.14 794.343 1571.06 794.343Z" fill="#FDF9FD"/>
<path d="M1592.92 772.79C1592.92 770.019 1595.08 767.864 1597.85 767.864H1608.32C1611.09 767.864 1613.24 770.019 1613.24 772.79C1613.24 775.561 1611.09 777.717 1608.32 777.717H1597.85C1595.08 777.717 1592.92 775.561 1592.92 772.79Z" fill="#FDF9FD"/>
<path d="M1549.51 772.79C1549.51 770.019 1547.36 767.864 1544.59 767.864H1533.81C1531.04 767.864 1528.88 770.019 1528.88 772.79C1528.88 775.561 1531.04 777.717 1533.81 777.717H1544.28C1547.36 777.717 1549.51 775.561 1549.51 772.79Z" fill="#FDF9FD"/>
<path d="M1586.46 757.396C1584.61 755.549 1584.61 752.162 1586.46 750.315L1593.85 742.925C1595.7 741.078 1599.08 741.078 1600.93 742.925C1602.78 744.773 1602.78 748.16 1600.93 750.007L1593.54 757.396C1591.69 759.551 1588.61 759.551 1586.46 757.396Z" fill="#FDF9FD"/>
<path d="M1555.98 788.185C1554.13 786.338 1550.74 786.338 1548.9 788.185L1541.51 795.574C1539.66 797.422 1539.66 800.808 1541.51 802.656C1543.35 804.503 1546.74 804.503 1548.59 802.656L1555.98 795.266C1557.82 793.419 1557.82 790.032 1555.98 788.185Z" fill="#FDF9FD"/>
<path d="M1586.46 788.185C1588.31 786.338 1591.69 786.338 1593.54 788.185L1600.93 795.574C1602.78 797.422 1602.78 800.808 1600.93 802.656C1599.08 804.503 1595.7 804.503 1593.85 802.656L1586.46 795.266C1584.61 793.419 1584.61 790.032 1586.46 788.185Z" fill="#FDF9FD"/>
<path d="M1555.98 757.396C1557.82 755.549 1557.82 752.162 1555.98 750.315L1548.59 742.925C1546.74 741.078 1543.35 741.078 1541.51 742.925C1539.66 744.773 1539.66 748.16 1541.51 750.007L1548.9 757.396C1550.74 759.551 1553.82 759.551 1555.98 757.396Z" fill="#FDF9FD"/>
<path d="M1576.3 772.791C1576.3 775.562 1574.14 777.717 1571.37 777.717C1568.6 777.717 1566.45 775.562 1566.45 772.791C1566.45 770.02 1568.6 767.864 1571.37 767.864C1574.14 767.557 1576.3 770.02 1576.3 772.791Z" fill="#FDF9FD"/>
</g>
<g opacity="0.2">
<path d="M2156.15 -148.595L1645.67 361.886C1616.73 390.828 1616.73 437.627 1645.67 466.261C1674.61 495.203 1721.41 495.203 1750.05 466.261L2260.53 -44.2203C2289.47 -73.1619 2289.47 -119.961 2260.53 -148.595C2231.89 -177.229 2185.09 -177.229 2156.15 -148.595Z" stroke="#E17A66" stroke-width="1.1603" stroke-miterlimit="10"/>
<path d="M290.648 169.455L96.3695 363.734C76.6646 383.438 76.6646 414.843 96.3695 434.548C116.074 454.253 147.479 454.253 167.184 434.548L361.463 239.962C381.168 220.257 381.168 188.852 361.463 169.147C342.066 149.75 310.353 149.75 290.648 169.455Z" stroke="#E17A66" stroke-width="1.1603" stroke-miterlimit="10"/>
<path d="M440.36 674.773L194.773 920.36C187.076 928.057 187.076 940.373 194.773 948.07C202.47 955.767 214.786 955.767 222.483 948.07L468.07 702.483C475.767 694.786 475.767 682.47 468.07 674.773C460.373 667.076 448.057 667.076 440.36 674.773Z" fill="url(#paint0_linear_636_54)"/>
<path d="M691.212 -298.229L375.625 17.3578C367.928 25.055 367.928 37.3706 375.625 45.0678C383.323 52.7651 395.638 52.7651 403.336 45.0678L718.922 -270.211C726.62 -277.908 726.62 -290.224 718.922 -297.921C711.225 -305.619 698.91 -305.619 691.212 -298.229Z" fill="white"/>
<path d="M1930.06 396.396L1686.63 639.826C1672.94 653.511 1672.94 675.947 1686.63 689.633C1700.31 703.319 1722.75 703.319 1736.44 689.633L1979.86 446.204C1993.55 432.518 1993.55 410.082 1979.86 396.396C1966.18 382.71 1943.74 382.71 1930.06 396.396Z" fill="url(#paint1_linear_636_54)"/>
</g>
<path d="M1736.83 819.6C1743.03 810.2 1753.83 811.4 1763.73 810.2C1774.63 808.9 1782.43 802.4 1784.43 791.4C1784.93 788.9 1781.53 783.2 1780.63 780.9C1779.73 778.5 1776.23 772.9 1776.63 770.4C1774.63 781.4 1766.83 787.8 1755.93 789.2C1746.03 790.5 1735.33 789.2 1729.03 798.6C1728.33 799.7 1732.33 807.8 1732.83 809.1C1733.43 810.5 1737.63 818.5 1736.83 819.6Z" fill="#9AA5F0"/>
<path d="M1664.64 508.211C1664.64 508.211 1657.98 502.425 1658.05 491.786C1658.11 479.406 1654.81 472.064 1650.77 470.136L1670.12 466.838C1670.12 466.838 1676.15 467.274 1678.33 478.41C1680.51 489.547 1675.34 502.114 1685.73 505.785L1664.64 508.211Z" fill="#F19774"/>
<path d="M1611.45 499.812C1611.45 499.812 1623.02 504.665 1630.61 492.035C1638.2 479.406 1637.7 464.35 1670.18 466.776C1670.18 466.776 1661.97 467.523 1656.86 480.028C1652.26 491.289 1645.91 505.971 1629.12 504.603C1614.06 503.358 1611.45 499.812 1611.45 499.812Z" fill="#F3CDB7"/>
<path d="M160.94 666.611C160.94 666.611 148.604 667.452 138.043 656.797C125.8 644.368 115.146 640.442 109.258 642.405L125.239 619.882C125.239 619.882 131.688 614.368 144.959 623.246C158.23 632.125 165.613 649.882 179.632 643.153L160.94 666.611Z" fill="#8E9BF0"/>
<path d="M99.6318 711.283C99.6318 711.283 115.987 704.554 110.94 684.461C105.894 664.368 90.3795 649.788 125.239 619.882C125.239 619.882 117.856 628.76 125.146 646.33C131.781 662.125 140.099 683.059 122.062 698.386C105.707 712.218 99.6318 711.283 99.6318 711.283Z" fill="#D3BDFD"/>
<path d="M497.156 122C495.333 122 494.725 125.495 494.725 132.028C494.725 145.4 497.308 185.818 497.308 185.818C497.308 185.818 499.891 145.4 499.739 131.877C499.739 125.343 499.132 122 497.156 122Z" fill="#68D8DD"/>
<path d="M497.308 282C499.131 282 499.891 278.505 499.891 271.972C499.891 258.6 497.308 218.182 497.308 218.182C497.308 218.182 494.573 258.6 494.725 272.123C494.725 278.505 495.333 282 497.308 282Z" fill="#68D8DD"/>
<path d="M577.232 201.924C577.232 200.101 573.737 199.341 567.204 199.341C553.832 199.341 513.415 201.924 513.415 201.924C513.415 201.924 553.832 204.507 567.356 204.355C573.737 204.507 577.232 203.899 577.232 201.924Z" fill="#68D8DD"/>
<path d="M417.232 202.076C417.232 203.899 420.727 204.659 427.26 204.659C440.784 204.659 481.05 202.076 481.05 202.076C481.05 202.076 440.48 199.341 427.108 199.493C420.575 199.493 417.232 200.101 417.232 202.076Z" fill="#68D8DD"/>
<path d="M553.832 145.4C552.465 144.032 549.578 146.008 545.019 150.718C535.447 160.139 508.856 190.68 508.856 190.68C508.856 190.68 539.245 163.937 548.818 154.365C553.072 149.654 555.048 146.767 553.832 145.4Z" fill="#68D8DD"/>
<path d="M440.632 258.6C441.999 259.968 444.886 257.992 449.445 253.282C459.017 243.861 485.608 213.32 485.608 213.32C485.608 213.32 455.219 240.215 445.798 249.787C441.24 254.346 439.416 257.233 440.632 258.6Z" fill="#68D8DD"/>
<path d="M553.832 258.6C555.2 257.233 553.225 254.346 548.514 249.787C539.094 240.215 508.552 213.624 508.552 213.624C508.552 213.624 535.295 244.013 544.868 253.586C549.578 257.84 552.465 259.816 553.832 258.6Z" fill="#68D8DD"/>
<path d="M440.631 145.4C439.264 146.767 441.239 149.654 445.95 154.213C455.37 163.785 485.912 190.376 485.912 190.376C485.912 190.376 459.017 159.987 449.444 150.566C444.886 146.008 441.999 144.184 440.631 145.4Z" fill="#68D8DD"/>
<path d="M519.796 144.184C518.429 143.728 517.061 146.008 515.086 150.718C511.287 160.443 501.714 190.376 501.714 190.376C501.714 190.376 515.086 161.81 518.732 152.085C520.708 147.375 521.164 144.64 519.796 144.184Z" fill="#68D8DD"/>
<path d="M474.516 259.816C475.883 260.272 477.251 257.992 479.226 253.282C483.025 243.557 492.597 213.624 492.597 213.624C492.597 213.624 479.226 242.19 475.579 251.915C473.756 256.625 473.3 259.36 474.516 259.816Z" fill="#68D8DD"/>
<path d="M555.048 224.564C555.504 223.197 553.224 221.829 548.514 219.854C538.789 216.055 508.856 206.482 508.856 206.482C508.856 206.482 537.422 219.854 547.147 223.5C551.857 225.476 554.592 225.932 555.048 224.564Z" fill="#68D8DD"/>
<path d="M439.416 179.284C438.96 180.651 441.239 182.019 445.95 183.994C455.674 187.793 485.608 197.366 485.608 197.366C485.608 197.366 457.042 183.994 447.317 180.348C442.607 178.524 439.872 178.068 439.416 179.284Z" fill="#68D8DD"/>
<path d="M554.136 177.005C553.528 175.637 550.945 176.245 546.235 178.372C536.662 182.475 508.704 196.91 508.704 196.91C508.704 196.91 538.334 186.122 547.906 181.867C552.465 179.892 554.744 178.372 554.136 177.005Z" fill="#68D8DD"/>
<path d="M440.328 226.843C440.935 228.211 443.519 227.603 448.229 225.476C457.802 221.373 485.608 206.938 485.608 206.938C485.608 206.938 456.13 217.726 446.557 221.981C441.999 224.108 439.72 225.628 440.328 226.843Z" fill="#68D8DD"/>
<path d="M522.075 258.904C523.443 258.296 522.835 255.713 520.708 251.003C516.605 241.43 502.17 213.472 502.17 213.472C502.17 213.472 512.959 243.102 517.213 252.674C519.34 257.233 520.86 259.512 522.075 258.904Z" fill="#68D8DD"/>
<path d="M472.237 145.096C470.869 145.704 471.477 148.287 473.604 152.997C477.707 162.57 492.294 190.376 492.294 190.376C492.294 190.376 481.505 160.746 477.251 151.174C475.124 146.767 473.604 144.488 472.237 145.096Z" fill="#68D8DD"/>
<path d="M1437.51 235.324C1436.49 235.324 1436.15 237.29 1436.15 240.965C1436.15 248.572 1437.6 271.221 1437.6 271.221C1437.6 271.221 1439.05 248.486 1438.97 240.879C1438.97 237.204 1438.62 235.324 1437.51 235.324Z" fill="#F2A64C"/>
<path d="M1437.6 325.324C1438.62 325.324 1439.05 323.358 1439.05 319.683C1439.05 312.161 1437.6 289.426 1437.6 289.426C1437.6 289.426 1436.06 312.161 1436.15 319.768C1436.15 323.358 1436.49 325.324 1437.6 325.324Z" fill="#F2A64C"/>
<path d="M1482.56 280.281C1482.56 279.255 1480.59 278.828 1476.91 278.828C1469.39 278.828 1446.66 280.281 1446.66 280.281C1446.66 280.281 1469.39 281.734 1477 281.649C1480.59 281.734 1482.56 281.392 1482.56 280.281Z" fill="#F2A64C"/>
<path d="M1392.56 280.367C1392.56 281.392 1394.52 281.82 1398.2 281.82C1405.72 281.82 1428.45 280.367 1428.45 280.367C1428.45 280.367 1405.63 278.828 1398.11 278.914C1394.44 278.914 1392.56 279.255 1392.56 280.367Z" fill="#F2A64C"/>
<path d="M1469.39 248.486C1468.62 247.717 1467 248.828 1464.44 251.478C1459.05 256.777 1444.09 273.956 1444.09 273.956C1444.09 273.956 1461.19 258.914 1466.57 253.529C1468.97 250.879 1470.08 249.255 1469.39 248.486Z" fill="#F2A64C"/>
<path d="M1405.72 312.161C1406.49 312.931 1408.11 311.82 1410.68 309.17C1416.06 303.871 1431.02 286.691 1431.02 286.691C1431.02 286.691 1413.92 301.82 1408.62 307.204C1406.06 309.768 1405.03 311.392 1405.72 312.161Z" fill="#F2A64C"/>
<path d="M1469.39 312.161C1470.16 311.392 1469.05 309.768 1466.4 307.204C1461.1 301.82 1443.92 286.862 1443.92 286.862C1443.92 286.862 1458.97 303.956 1464.35 309.341C1467 311.734 1468.62 312.845 1469.39 312.161Z" fill="#F2A64C"/>
<path d="M1405.72 248.486C1404.95 249.255 1406.06 250.879 1408.71 253.443C1414.01 258.828 1431.19 273.785 1431.19 273.785C1431.19 273.785 1416.06 256.691 1410.68 251.392C1408.11 248.828 1406.49 247.802 1405.72 248.486Z" fill="#F2A64C"/>
<path d="M1450.25 247.802C1449.48 247.546 1448.71 248.828 1447.6 251.478C1445.46 256.948 1440.08 273.785 1440.08 273.785C1440.08 273.785 1447.6 257.717 1449.65 252.247C1450.76 249.597 1451.02 248.059 1450.25 247.802Z" fill="#F2A64C"/>
<path d="M1424.78 312.845C1425.55 313.102 1426.32 311.82 1427.43 309.17C1429.56 303.7 1434.95 286.862 1434.95 286.862C1434.95 286.862 1427.43 302.931 1425.38 308.401C1424.35 311.05 1424.09 312.589 1424.78 312.845Z" fill="#F2A64C"/>
<path d="M1470.08 293.016C1470.33 292.247 1469.05 291.478 1466.4 290.367C1460.93 288.23 1444.09 282.845 1444.09 282.845C1444.09 282.845 1460.16 290.367 1465.63 292.418C1468.28 293.529 1469.82 293.785 1470.08 293.016Z" fill="#F2A64C"/>
<path d="M1405.03 267.546C1404.78 268.315 1406.06 269.085 1408.71 270.196C1414.18 272.332 1431.02 277.717 1431.02 277.717C1431.02 277.717 1414.95 270.196 1409.48 268.144C1406.83 267.119 1405.29 266.862 1405.03 267.546Z" fill="#F2A64C"/>
<path d="M1469.56 266.264C1469.22 265.495 1467.77 265.837 1465.12 267.033C1459.74 269.341 1444.01 277.461 1444.01 277.461C1444.01 277.461 1460.68 271.392 1466.06 268.999C1468.62 267.888 1469.91 267.033 1469.56 266.264Z" fill="#F2A64C"/>
<path d="M1405.55 294.298C1405.89 295.067 1407.34 294.726 1409.99 293.529C1415.38 291.221 1431.02 283.102 1431.02 283.102C1431.02 283.102 1414.44 289.17 1409.05 291.563C1406.49 292.76 1405.21 293.614 1405.55 294.298Z" fill="#F2A64C"/>
<path d="M1451.53 312.332C1452.3 311.991 1451.96 310.538 1450.76 307.888C1448.45 302.503 1440.33 286.777 1440.33 286.777C1440.33 286.777 1446.4 303.444 1448.8 308.828C1449.99 311.392 1450.85 312.674 1451.53 312.332Z" fill="#F2A64C"/>
<path d="M1423.5 248.315C1422.73 248.657 1423.07 250.11 1424.27 252.76C1426.57 258.144 1434.78 273.785 1434.78 273.785C1434.78 273.785 1428.71 257.119 1426.32 251.734C1425.12 249.255 1424.27 247.973 1423.5 248.315Z" fill="#F2A64C"/>
<path d="M1536.49 124.675C1539.29 120.93 1551.28 120.186 1556.41 110.542C1561.54 100.898 1562.18 96.41 1564.78 97.6924C1567.34 98.9748 1575.07 111.184 1574.43 113.748C1573.78 116.313 1562.21 129.163 1556.44 130.446C1550.66 131.728 1534.59 127.24 1536.52 124.675H1536.49Z" fill="#FFC801"/>
<path d="M194.951 761.165C194.951 761.165 202.009 776.247 201.676 777.196C201.342 778.145 185.301 779.76 184.993 778.478C184.686 777.196 180.836 764.371 179.861 763.397C178.885 762.422 194.951 761.14 194.951 761.14V761.165Z" fill="#8E0EC7"/>
<path d="M503.795 883.397C503.795 883.397 503.795 904.224 505.463 903.813C507.131 903.403 525.456 895.888 524.635 894.657C523.813 893.4 517.141 882.987 515.472 882.576C513.804 882.166 503.795 883.397 503.795 883.397Z" fill="#FFC801"/>
<path d="M1457.16 839.522C1457.16 839.522 1463.08 830.776 1464.44 831.853C1465.8 832.93 1472.86 840.65 1476.79 841.856C1480.72 843.087 1490.24 841.446 1487.95 843.703C1485.67 845.96 1472.96 851.654 1466.93 848.602C1460.9 845.549 1456.39 840.266 1457.16 839.496V839.522Z" fill="#BC7B8D"/>
<path d="M1419.36 683.489C1413.25 690.414 1407.71 697.852 1401.57 704.777C1400.14 706.419 1409.73 714.934 1411.17 713.293C1417.28 706.368 1422.82 698.929 1428.96 692.004C1430.39 690.363 1420.8 681.847 1419.36 683.489Z" fill="#A1AFFE"/>
<path d="M38.6025 839.647C40.1502 842.131 26.934 850.425 25.3752 847.952C27.9169 843.852 27.2057 838.994 25.8261 833.982C29.8133 837.122 34.035 839.181 38.5914 839.659L38.6025 839.647Z" fill="url(#paint2_radial_636_54)"/>
<path d="M33.5421 846.178C35.8823 844.706 37.8995 842.667 39.7611 839.959C39.9617 839.669 39.8839 839.257 39.5943 839.057C39.3047 838.856 38.8925 838.934 38.6918 839.224C35.214 844.306 31.0797 846.903 25.2862 847.641C24.9296 847.685 24.6733 848.008 24.7177 848.365C24.7621 848.721 25.0851 848.977 25.4416 848.933C28.539 848.531 31.1908 847.638 33.5421 846.178Z" fill="url(#paint3_radial_636_54)"/>
<path d="M27.9064 753.61C45.9661 782.414 42.6953 829.363 28.6545 838.169C14.6137 846.976 -29.052 829.457 -47.1006 800.664C-65.1603 771.861 -57.4414 746.858 -36.7256 733.871C-16.0098 720.884 9.83555 724.818 27.8952 753.622L27.9064 753.61Z" fill="url(#paint4_radial_636_54)"/>
<g style="mix-blend-mode:screen" opacity="0.29">
<path d="M1.00408 745.432C7.24048 752.092 8.77464 760.781 4.42817 764.838C0.0928433 768.906 -8.47371 766.781 -14.699 760.133C-20.9354 753.473 -22.4695 744.783 -18.1231 740.727C-13.7877 736.658 -5.22118 738.783 1.01521 745.443L1.00408 745.432Z" fill="white"/>
</g>
<g style="mix-blend-mode:screen" opacity="0.29">
<path d="M22.6349 758.481C25.1294 761.154 25.752 764.63 24.0134 766.257C22.2749 767.884 18.8438 767.039 16.3492 764.366C13.8547 761.693 13.2321 758.217 14.9707 756.59C16.7093 754.963 20.1403 755.808 22.6349 758.481Z" fill="white"/>
</g>
<path d="M229.54 518.077C230.383 521.288 247.5 516.801 246.657 513.59C241.289 512.508 237.836 508.147 234.759 503.125C234.258 508.841 232.685 513.932 229.54 518.077Z" fill="url(#paint5_radial_636_54)"/>
<path d="M238.873 518.965C235.842 519.762 232.583 519.842 228.925 519.284C228.526 519.227 228.252 518.84 228.309 518.441C228.366 518.043 228.754 517.769 229.153 517.826C236.036 518.897 241.392 517.496 246.509 513.283C246.816 513.021 247.284 513.066 247.546 513.385C247.808 513.704 247.762 514.159 247.443 514.421C244.708 516.676 241.916 518.168 238.885 518.965H238.873Z" fill="url(#paint6_radial_636_54)"/>
<path d="M166.805 442.498C176.583 479.746 217.871 513.488 236.036 508.728C254.19 503.968 273.609 454.329 263.842 417.081C254.076 379.832 227.432 366.805 200.64 373.82C173.848 380.846 157.038 405.249 166.805 442.498Z" fill="url(#paint7_radial_636_54)"/>
<g style="mix-blend-mode:screen" opacity="0.29">
<path d="M194.302 431.819C201.016 431.387 205.921 422.678 205.258 412.366C204.594 402.055 198.613 394.045 191.898 394.477C185.184 394.908 180.279 403.617 180.943 413.929C181.607 424.241 187.588 432.25 194.302 431.819Z" fill="white"/>
</g>
<g style="mix-blend-mode:screen" opacity="0.29">
<path d="M174.919 441.917C175.181 446.051 177.586 449.25 180.275 449.08C182.965 448.909 184.936 445.413 184.663 441.291C184.401 437.157 181.996 433.957 179.307 434.128C176.617 434.299 174.657 437.783 174.919 441.917Z" fill="white"/>
</g>
<path d="M262.617 169.348C261.634 171.267 251.399 166.018 252.382 164.099C255.94 164.167 258.742 161.875 261.408 159.121C260.922 162.824 261.205 166.267 262.628 169.348H262.617Z" fill="url(#paint8_radial_636_54)"/>
<path d="M256.573 168.603C258.381 169.529 260.437 170.048 262.843 170.195C263.103 170.206 263.34 170.014 263.351 169.743C263.363 169.484 263.171 169.258 262.9 169.235C258.381 168.942 255.172 167.305 252.518 163.919C252.36 163.715 252.055 163.67 251.851 163.84C251.648 163.998 251.603 164.302 251.772 164.517C253.195 166.334 254.754 167.678 256.573 168.603Z" fill="url(#paint9_radial_636_54)"/>
<path d="M313.069 130.166C301.625 152.45 270.672 168.073 259.816 162.508C248.959 156.942 243.605 122.705 255.037 100.421C266.469 78.138 285.211 73.6001 301.241 81.8181C317.272 90.036 324.513 107.883 313.069 130.166Z" fill="url(#paint10_radial_636_54)"/>
<g style="mix-blend-mode:screen" opacity="0.29">
<path d="M308.11 110.05C306.234 116.507 301.32 120.752 297.118 119.533C292.915 118.313 291.029 112.094 292.893 105.648C294.768 99.1909 299.682 94.9465 303.885 96.1656C308.087 97.3848 309.974 103.593 308.11 110.05Z" fill="white"/>
</g>
<g style="mix-blend-mode:screen" opacity="0.29">
<path d="M307.997 128.665C307.251 131.25 305.274 132.955 303.591 132.458C301.908 131.972 301.151 129.478 301.896 126.893C302.642 124.308 304.619 122.603 306.302 123.1C307.985 123.585 308.742 126.08 307.997 128.665Z" fill="white"/>
</g>
<path d="M1863.84 550.97C1865.51 553.652 1851.25 562.606 1849.56 559.936C1852.31 555.509 1851.54 550.265 1850.05 544.853C1854.35 548.243 1858.91 550.467 1863.83 550.982L1863.84 550.97Z" fill="url(#paint11_radial_636_54)"/>
<path d="M1858.38 558.02C1860.91 556.432 1863.08 554.23 1865.09 551.306C1865.31 550.993 1865.23 550.548 1864.91 550.332C1864.6 550.116 1864.16 550.2 1863.94 550.513C1860.19 555.999 1855.72 558.803 1849.47 559.599C1849.08 559.648 1848.81 559.997 1848.85 560.382C1848.9 560.766 1849.25 561.043 1849.63 560.995C1852.98 560.56 1855.84 559.597 1858.38 558.02Z" fill="url(#paint12_radial_636_54)"/>
<path d="M1852.3 458.081C1871.79 489.179 1868.26 539.866 1853.1 549.374C1837.94 558.882 1790.8 539.968 1771.32 508.882C1751.82 477.785 1760.15 450.791 1782.52 436.77C1804.88 422.749 1832.79 426.996 1852.28 458.093L1852.3 458.081Z" fill="url(#paint13_radial_636_54)"/>
<g style="mix-blend-mode:screen" opacity="0.29">
<path d="M1823.25 449.252C1829.98 456.442 1831.64 465.823 1826.95 470.203C1822.27 474.595 1813.02 472.301 1806.3 465.123C1799.56 457.933 1797.91 448.551 1802.6 444.171C1807.28 439.779 1816.53 442.073 1823.26 449.264L1823.25 449.252Z" fill="white"/>
</g>
<g style="mix-blend-mode:screen" opacity="0.29">
<path d="M1846.6 463.34C1849.3 466.225 1849.97 469.978 1848.09 471.735C1846.22 473.492 1842.51 472.579 1839.82 469.693C1837.12 466.807 1836.45 463.055 1838.33 461.298C1840.21 459.541 1843.91 460.454 1846.6 463.34Z" fill="white"/>
</g>
<path d="M1448.81 63.6993C1446.45 66.0352 1458.89 78.6156 1461.25 76.2796C1459.51 71.0902 1461.56 65.9191 1464.37 60.7435C1459.17 63.1675 1453.97 64.3506 1448.81 63.6993Z" fill="url(#paint14_radial_636_54)"/>
<path d="M1452.71 72.2263C1450.5 69.9996 1448.8 67.2168 1447.46 63.7698C1447.31 63.3959 1447.5 62.9654 1447.88 62.8155C1448.25 62.6656 1448.68 62.8645 1448.83 63.2384C1451.35 69.7346 1455.24 73.6729 1461.45 75.9975C1461.83 76.133 1462.02 76.5604 1461.87 76.9468C1461.73 77.3333 1461.31 77.5215 1460.93 77.3762C1457.61 76.1349 1454.92 74.4628 1452.71 72.2361L1452.71 72.2263Z" fill="url(#paint15_radial_636_54)"/>
<path d="M1482.89 -28.4208C1455.52 -1.32867 1446.95 51.2984 1460.15 64.6501C1473.35 77.9918 1526.05 69.99 1553.42 42.9078C1580.8 15.8255 1578.76 -13.7626 1559.29 -33.4579C1539.81 -53.1476 1510.27 -55.5031 1482.89 -28.4208Z" fill="url(#paint16_radial_636_54)"/>
<g style="mix-blend-mode:screen" opacity="0.29">
<path d="M1505.89 -9.94703C1509.62 -4.34804 1519.62 -4.45481 1528.22 -10.1855C1536.81 -15.9162 1540.76 -25.1007 1537.03 -30.6997C1533.3 -36.2987 1523.3 -36.1919 1514.7 -30.4612C1506.11 -24.7305 1502.16 -15.546 1505.89 -9.94703Z" fill="white"/>
</g>
<path d="M1847.32 244.575C1864.48 278.141 1910.91 301.674 1927.2 293.291C1943.48 284.908 1951.52 233.335 1934.37 199.77C1917.22 166.204 1889.11 159.368 1865.06 171.747C1841.01 184.126 1830.15 211.009 1847.32 244.575Z" fill="url(#paint17_radial_636_54)"/>
<g style="mix-blend-mode:screen" opacity="0.29">
<path d="M1854.76 214.274C1857.57 224 1864.94 230.394 1871.24 228.557C1877.55 226.721 1880.38 217.352 1877.58 207.643C1874.77 197.916 1867.4 191.523 1861.09 193.359C1854.79 195.196 1851.96 204.548 1854.76 214.274Z" fill="white"/>
</g>
<g style="mix-blend-mode:screen" opacity="0.29">
<path d="M1854.93 242.314C1856.04 246.207 1859.01 248.775 1861.54 248.027C1864.06 247.296 1865.2 243.538 1864.08 239.644C1862.96 235.75 1859.99 233.182 1857.47 233.931C1854.94 234.662 1853.81 238.42 1854.93 242.314Z" fill="white"/>
</g>
</g>
<defs>
<linearGradient id="paint0_linear_636_54" x1="366.543" y1="953.733" x2="366.543" y2="598.992" gradientUnits="userSpaceOnUse">
<stop stop-color="#5233C3"/>
<stop offset="0.8967" stop-color="#2E1C6D" stop-opacity="0.1033"/>
<stop offset="1" stop-color="#291A64" stop-opacity="0"/>
</linearGradient>
<linearGradient id="paint1_linear_636_54" x1="1833.2" y1="700.039" x2="1833.2" y2="386.084" gradientUnits="userSpaceOnUse">
<stop stop-color="#5233C3"/>
<stop offset="0.8967" stop-color="#2E1C6D" stop-opacity="0.1033"/>
<stop offset="1" stop-color="#291A64" stop-opacity="0"/>
</linearGradient>
<radialGradient id="paint2_radial_636_54" cx="0" cy="0" r="1" gradientUnits="userSpaceOnUse" gradientTransform="translate(32.1793 854.362) rotate(147.901) scale(16.4071 16.396)">
<stop offset="0.05" stop-color="#7BE5C5"/>
<stop offset="1" stop-color="#3ACE99"/>
</radialGradient>
<radialGradient id="paint3_radial_636_54" cx="0" cy="0" r="1" gradientUnits="userSpaceOnUse" gradientTransform="translate(24.8349 838.312) rotate(147.901) scale(12.8294 12.8207)">
<stop offset="0.05" stop-color="#7BE5B8"/>
<stop offset="1" stop-color="#3ACE87"/>
</radialGradient>
<radialGradient id="paint4_radial_636_54" cx="0" cy="0" r="1" gradientUnits="userSpaceOnUse" gradientTransform="translate(-7.51462 756.346) rotate(147.901) scale(79.1828 79.1293)">
<stop offset="0.09" stop-color="#ABFFF0"/>
<stop offset="1" stop-color="#3ACEC5"/>
</radialGradient>
<radialGradient id="paint5_radial_636_54" cx="0" cy="0" r="1" gradientUnits="userSpaceOnUse" gradientTransform="translate(246.666 524.162) rotate(-14.6794) scale(18.5861 18.5739)">
<stop stop-color="#F9C273"/>
<stop offset="1" stop-color="#C66C3C"/>
</radialGradient>
<radialGradient id="paint6_radial_636_54" cx="0" cy="0" r="1" gradientUnits="userSpaceOnUse" gradientTransform="translate(239.121 505.643) rotate(-14.6794) scale(14.5293 14.5198)">
<stop stop-color="#F9C273"/>
<stop offset="1" stop-color="#C66C3C"/>
</radialGradient>
<radialGradient id="paint7_radial_636_54" cx="0" cy="0" r="1" gradientUnits="userSpaceOnUse" gradientTransform="translate(196.534 415.345) rotate(-14.6794) scale(89.7056 89.6469)">
<stop offset="0.24" stop-color="#F9C273"/>
<stop offset="1" stop-color="#C66C3C"/>
</radialGradient>
<radialGradient id="paint8_radial_636_54" cx="0" cy="0" r="1" gradientUnits="userSpaceOnUse" gradientTransform="translate(250.86 170.799) rotate(-152.857) scale(12.0858 12.0805)">
<stop offset="0.05" stop-color="#8ECBFD"/>
<stop offset="1" stop-color="#4E4FFB"/>
</radialGradient>
<radialGradient id="paint9_radial_636_54" cx="0" cy="0" r="1" gradientUnits="userSpaceOnUse" gradientTransform="translate(258.247 160.097) rotate(-152.857) scale(9.44272 9.43858)">
<stop offset="0.05" stop-color="#8ECBFD"/>
<stop offset="1" stop-color="#4E4FFB"/>
</radialGradient>
<radialGradient id="paint10_radial_636_54" cx="0" cy="0" r="1" gradientUnits="userSpaceOnUse" gradientTransform="translate(297.987 108.736) rotate(-152.857) scale(58.3167 58.2911)">
<stop offset="0.05" stop-color="#8ECBFD"/>
<stop offset="1" stop-color="#4E4FFB"/>
</radialGradient>
<radialGradient id="paint11_radial_636_54" cx="0" cy="0" r="1" gradientUnits="userSpaceOnUse" gradientTransform="translate(1856.91 566.856) rotate(147.901) scale(17.7137 17.7017)">
<stop offset="0.05" stop-color="#E3E57B"/>
<stop offset="1" stop-color="#CBCE3A"/>
</radialGradient>
<radialGradient id="paint12_radial_636_54" cx="0" cy="0" r="1" gradientUnits="userSpaceOnUse" gradientTransform="translate(1848.98 549.529) rotate(147.901) scale(13.8511 13.8417)">
<stop offset="0.05" stop-color="#C9E57B"/>
<stop offset="1" stop-color="#CBCE3A"/>
</radialGradient>
<radialGradient id="paint13_radial_636_54" cx="0" cy="0" r="1" gradientUnits="userSpaceOnUse" gradientTransform="translate(1814.05 461.035) rotate(147.901) scale(85.4886 85.4308)">
<stop offset="0.09" stop-color="#FDFFAB"/>
<stop offset="1" stop-color="#CEAD3A"/>
</radialGradient>
<radialGradient id="paint14_radial_636_54" cx="0" cy="0" r="1" gradientUnits="userSpaceOnUse" gradientTransform="translate(1452.1 81.5733) rotate(45.3206) scale(18.5861 18.5739)">
<stop stop-color="#F973F4"/>
<stop offset="1" stop-color="#BB3CC6"/>
</radialGradient>
<radialGradient id="paint15_radial_636_54" cx="0" cy="0" r="1" gradientUnits="userSpaceOnUse" gradientTransform="translate(1464.37 65.7797) rotate(45.3206) scale(14.5293 14.5198)">
<stop stop-color="#DE73F9"/>
<stop offset="1" stop-color="#B33CC6"/>
</radialGradient>
<radialGradient id="paint16_radial_636_54" cx="0" cy="0" r="1" gradientUnits="userSpaceOnUse" gradientTransform="translate(1521.27 -16.2508) rotate(45.3206) scale(89.7056 89.6469)">
<stop offset="0.24" stop-color="#E673F9"/>
<stop offset="1" stop-color="#AA3CC6"/>
</radialGradient>
<radialGradient id="paint17_radial_636_54" cx="0" cy="0" r="1" gradientUnits="userSpaceOnUse" gradientTransform="translate(1869.94 212.295) rotate(-27.2404) scale(87.5518 87.7279)">
<stop offset="0.05" stop-color="#8ECEFD"/>
<stop offset="1" stop-color="#4EA8FB"/>
</radialGradient>
<clipPath id="clip0_636_54">
<rect width="1920" height="1076" fill="white"/>
</clipPath>
</defs>
</svg>
